<svg width="64" height="65" viewBox="0 0 64 65" fill="none" xmlns="http://www.w3.org/2000/svg">
<path d="M51.399 18.4782H46.199V13.2997C46.199 10.9097 44.199 8.91797 41.799 8.91797H34.599C32.199 8.91797 30.199 10.9097 30.199 13.2997V18.4782H24.999C22.599 18.4782 20.599 20.4699 20.599 22.8599V28.835C20.599 30.03 21.399 30.8267 22.599 30.8267C23.799 30.8267 24.599 30.03 24.599 28.835V22.8599C24.599 22.6607 24.799 22.4616 24.999 22.4616H32.199C33.399 22.4616 34.199 21.6649 34.199 20.4699V13.2997C34.199 13.1006 34.399 12.9014 34.599 12.9014H41.799C41.999 12.9014 42.199 13.1006 42.199 13.2997V20.4699C42.199 21.6649 42.999 22.4616 44.199 22.4616H51.399C51.599 22.4616 51.799 22.6607 51.799 22.8599V30.2292C51.799 30.4284 51.599 30.6276 51.399 30.6276H44.199C42.999 30.6276 42.199 31.4242 42.199 32.6193V39.7894C42.199 39.9886 41.999 40.1877 41.799 40.1877H35.999C34.799 40.1877 33.999 40.9844 33.999 42.1795C33.999 43.3745 34.799 44.1712 35.999 44.1712H41.799C44.399 44.1712 46.399 42.1794 46.399 39.5902V34.4118H51.599C53.999 34.4118 55.999 32.4201 55.999 30.03V22.8599C55.999 20.4699 53.999 18.4782 51.399 18.4782Z" fill="#2D373D"/>
<path d="M21.9992 37.9967C21.3992 38.395 20.5992 38.7934 19.7992 38.7934C18.1992 38.7934 16.7992 37.3992 16.7992 35.8058V35.6066C16.7992 34.0133 18.1992 32.6191 19.7992 32.6191C21.3992 32.6191 22.7992 34.0133 22.7992 35.6066V35.8058C22.7992 36.6025 22.3992 37.3992 21.9992 37.9967Z" fill="#2D373D"/>
<path d="M25.599 39.7894C25.599 38.196 26.999 36.8018 28.599 36.8018C30.199 36.8018 31.599 38.196 31.599 39.7894C31.599 40.5861 31.199 41.3828 30.799 41.9803C30.199 42.5778 29.399 42.777 28.599 42.777C26.999 42.777 25.599 41.3828 25.599 39.7894Z" fill="#2D373D"/>
<path d="M13.199 41.9803C13.599 41.3828 13.999 40.5861 13.999 39.7894C13.999 38.196 12.799 36.8018 10.999 36.8018C9.39902 36.8018 7.99902 38.196 7.99902 39.7894C7.99902 41.3828 9.39902 42.777 10.999 42.777C11.799 42.777 12.599 42.5778 13.199 41.9803Z" fill="#2D373D"/>
<path fill-rule="evenodd" clip-rule="evenodd" d="M19.7989 41.1835C21.1989 41.1835 22.5989 41.781 23.5989 42.7769L28.7989 47.9553C29.7989 48.9511 30.3989 50.3453 30.3989 51.7395C30.3989 53.1337 29.7989 54.5279 28.7989 55.5238C27.7989 56.5196 26.3989 56.918 24.9989 56.918H14.5989C11.5989 56.918 9.19889 54.5279 9.19889 51.5404C9.19889 50.1462 9.79889 48.752 10.7989 47.7561L15.9989 42.7769C16.9989 41.781 18.3989 41.1835 19.7989 41.1835ZM25.7127 52.8917C25.7989 52.8421 25.8917 52.7888 25.9989 52.7354C26.1989 52.5362 26.3989 52.1379 26.3989 51.7395C26.3989 51.4479 26.2917 51.2631 26.1558 51.0287C26.1061 50.9429 26.0525 50.8504 25.9989 50.7437L20.7989 45.5652C20.5989 45.3661 20.1989 45.1669 19.7989 45.1669C19.5061 45.1669 19.3204 45.2736 19.085 45.409C18.9989 45.4585 18.9061 45.5119 18.7989 45.5652L13.5989 50.7437C13.3989 50.9429 13.1989 51.3412 13.1989 51.7395C13.1989 52.5362 13.7989 53.1337 14.5989 53.1337H24.9989C25.2917 53.1337 25.4774 53.027 25.7127 52.8917Z" fill="#2D373D"/>
</svg>
