<svg width="64" height="65" viewBox="0 0 64 65" fill="none" xmlns="http://www.w3.org/2000/svg">
<path fill-rule="evenodd" clip-rule="evenodd" d="M14 43.5892C14 42.4846 14.8954 41.5892 16 41.5892H24C25.1046 41.5892 26 42.4846 26 43.5892C26 44.6938 25.1046 45.5892 24 45.5892H16C14.8954 45.5892 14 44.6938 14 43.5892Z" fill="#2D373D"/>
<path fill-rule="evenodd" clip-rule="evenodd" d="M46.6667 15.5892H39.3333V16.9225H45.3333C51.2244 16.9225 56 21.6982 56 27.5892V48.9225C56 50.3953 54.8061 51.5892 53.3333 51.5892H39.3333V57.5892C39.3333 58.6938 38.4379 59.5892 37.3333 59.5892H26.6667C25.5621 59.5892 24.6667 58.6938 24.6667 57.5892V51.5892H10.6667C10.5746 51.5892 10.4837 51.5845 10.394 51.5754C9.04933 51.4389 8 50.3032 8 48.9225V27.5892C8 21.6982 12.7756 16.9225 18.6667 16.9225H35.3333V8.25586C35.3333 7.15129 36.2288 6.25586 37.3333 6.25586H46.6667C47.1971 6.25586 47.7058 6.46657 48.0809 6.84165C48.456 7.21672 48.6667 7.72543 48.6667 8.25586V13.5892C48.6667 14.6938 47.7712 15.5892 46.6667 15.5892ZM39.3333 10.2559L44.6667 10.2559V11.5892L39.3333 11.5892V10.2559ZM28.6667 51.5892V55.5892H35.3333V51.5892H28.6667ZM35.3333 27.5889V20.9225H29.6605C31.1244 22.7487 32 25.0667 32 27.5892V47.5892H52V27.5892C52 23.9073 49.0152 20.9225 45.3333 20.9225H39.3333V27.5889C40.143 28.1971 40.6667 29.1653 40.6667 30.2559C40.6667 32.0968 39.1743 33.5892 37.3333 33.5892C35.4924 33.5892 34 32.0968 34 30.2559C34 29.1653 34.5237 28.1971 35.3333 27.5889ZM38 30.2559C38 30.624 37.7015 30.9225 37.3333 30.9225C36.9651 30.9225 36.6667 30.624 36.6667 30.2559C36.6667 29.8877 36.9651 29.5892 37.3333 29.5892C37.7015 29.5892 38 29.8877 38 30.2559ZM21.3333 20.9225H18.6667C14.9848 20.9225 12 23.9073 12 27.5892V47.5892H28V27.5892C28 23.9073 25.0152 20.9225 21.3333 20.9225Z" fill="#2D373D"/>
</svg>
