<svg width="24" height="24" viewBox="0 0 24 24" fill="none" xmlns="http://www.w3.org/2000/svg">
<path d="M20.2498 2.9248H3.6748C3.2248 2.9248 2.9248 3.2248 2.9248 3.6748V20.2498C2.9248 20.6998 3.2248 20.9998 3.6748 20.9998H20.2498C20.6998 20.9998 20.9998 20.6998 20.9998 20.2498V3.6748C20.9998 3.2248 20.6998 2.9248 20.2498 2.9248ZM19.4998 19.4998H4.4248V4.4248H19.4998V19.4998Z" fill="#2D373D"/>
<path d="M9.97488 15.4497C10.1249 15.5247 10.2749 15.5247 10.4249 15.5247C10.5749 15.5247 10.7999 15.4497 10.9499 15.3747L15.2249 13.1997C15.4499 13.0497 15.6749 12.8247 15.8249 12.5997C15.9749 12.2997 16.0499 11.9247 15.8999 11.5497C15.8249 11.1747 15.5249 10.8747 15.2249 10.7247L10.9499 8.62473C10.7999 8.54973 10.5749 8.47473 10.3499 8.47473C9.59988 8.47473 8.99988 9.07473 8.99988 9.82473V14.1747C8.99988 14.3997 9.07488 14.5497 9.14988 14.7747C9.37488 15.0747 9.59988 15.2997 9.97488 15.4497ZM10.4999 10.0497L14.3999 11.9997L10.4999 13.9497V10.0497Z" fill="#2D373D"/>
</svg>
