<svg width="24" height="25" viewBox="0 0 24 25" fill="none" xmlns="http://www.w3.org/2000/svg">
<path d="M17.25 11.7121H17.1C16.425 11.7121 15.825 11.3371 15.525 10.7371L15.375 10.4371C14.85 9.53708 14.025 8.71208 13.05 8.33708C12.675 8.11208 12.225 8.33708 12.075 8.71208C11.925 9.08708 12.15 9.53708 12.45 9.76208C13.05 10.0621 13.65 10.5121 13.95 11.1871L14.1 11.4871C14.7 12.6121 15.825 13.2871 17.025 13.2871H17.175C17.4 13.2871 17.625 13.5121 17.625 13.7371C17.625 14.0371 17.4 14.2621 17.175 14.2621H17.025C15.6 14.2621 14.25 13.5121 13.5 12.3121C13.35 12.0121 12.975 11.9371 12.675 12.0121C12.375 12.1621 12.15 12.4621 12.15 12.7621V20.6371C12.15 20.8621 11.925 21.0871 11.7 21.0871C11.55 21.0871 11.4 21.0121 11.325 20.9371C11.25 20.7871 11.175 20.7121 11.175 20.5621V16.8121C11.175 16.3621 10.875 16.0621 10.425 16.0621C9.97504 16.0621 9.67504 16.3621 9.67504 16.8121V20.5621C9.67504 20.7871 9.45004 21.0121 9.22504 21.0121C9.07504 21.0121 8.92504 20.9371 8.85004 20.8621C8.77504 20.7871 8.70004 20.7121 8.70004 20.5621V16.8121C8.70004 16.3621 8.40004 16.0621 7.95004 16.0621C7.50004 16.0621 7.20004 16.3621 7.20004 16.8121V20.5621C7.20004 21.1621 7.42504 21.6121 7.80004 21.9871C8.17504 22.3621 8.70004 22.5121 9.22504 22.5121C9.67504 22.5121 10.125 22.2871 10.425 22.0621C10.8 22.3621 11.25 22.5121 11.7 22.5121C12.825 22.4371 13.65 21.6121 13.65 20.5621V14.5621C14.625 15.3121 15.75 15.6871 17.025 15.6871H17.25C18.375 15.6871 19.2 14.7871 19.2 13.6621C19.2 12.6121 18.3 11.7121 17.25 11.7121Z" fill="#2D373D"/>
<path d="M9.7501 15.0871C10.8001 15.0871 11.7001 14.1871 11.7001 13.1371C11.7001 12.6121 11.5501 12.0871 11.1751 11.7121C10.8751 11.4121 10.5001 11.2621 10.1251 11.1871L11.1001 9.01211C11.1751 8.71211 11.1751 8.41211 10.9501 8.18711C12.3001 7.96211 13.3501 6.68711 13.3501 5.33711C13.3501 3.68711 12.0001 2.41211 10.4251 2.41211C8.8501 2.41211 7.5001 3.68711 7.5001 5.33711C7.5001 6.76211 8.5501 7.96211 9.9001 8.18711C9.8251 8.26211 9.8251 8.33711 9.7501 8.41211L8.4751 11.3371C8.3251 11.4871 8.2501 11.6371 8.2501 11.8621L7.5001 13.5871H6.7501C6.4501 13.5871 6.2251 13.3621 6.2251 13.0621V12.4621C6.2251 11.1871 7.0501 10.0621 8.2501 9.68711C8.6251 9.53711 8.8501 9.08711 8.7001 8.71211C8.5501 8.33711 8.1001 8.11211 7.7251 8.26211C5.9251 8.86211 4.7251 10.5121 4.7251 12.4621V13.0621C4.7251 14.1871 5.6251 15.0871 6.7501 15.0871H9.7501ZM9.7501 12.6121C9.9001 12.6121 10.0501 12.6871 10.1251 12.7621C10.2001 12.9121 10.2751 12.9871 10.2751 13.1371C10.2751 13.3621 10.0501 13.5871 9.8251 13.5871H9.0751L9.5251 12.6121H9.7501ZM9.0001 5.33711C9.0001 4.58711 9.6751 3.91211 10.4251 3.91211C11.2501 3.91211 11.8501 4.58711 11.8501 5.33711C11.8501 6.08711 11.1751 6.76211 10.4251 6.76211C9.6751 6.76211 9.0001 6.08711 9.0001 5.33711Z" fill="#2D373D"/>
</svg>
