<svg width="32" height="33" viewBox="0 0 32 33" fill="none" xmlns="http://www.w3.org/2000/svg">
<path fill-rule="evenodd" clip-rule="evenodd" d="M29.1501 8.85975C28.9627 9.12478 28.6583 9.28234 28.3336 9.28234H24.6485C24.6082 9.28234 24.5192 9.2844 24.4117 9.30093C24.3007 9.31797 24.1972 9.34633 24.1158 9.3849C24.0375 9.42196 24.0051 9.45593 23.9908 9.47656C23.9821 9.48908 23.9444 9.54426 23.9444 9.70254C23.9444 9.85988 23.9819 9.91463 23.9907 9.92719C24.0053 9.94807 24.0383 9.98245 24.1174 10.0198C24.1995 10.0587 24.3036 10.0871 24.4145 10.1042C24.522 10.1207 24.6102 10.1227 24.6485 10.1227H28.3336C28.6583 10.1227 28.9627 10.2803 29.1501 10.5453C29.3375 10.8104 29.3847 11.1499 29.2765 11.4559C28.4685 13.7423 26.2584 15.8152 23.5124 15.8152C22.1107 15.8152 20.8191 15.3433 19.788 14.5497L18.8811 15.4566L21.4108 17.9863C21.7639 18.3394 22.1778 18.9536 22.3027 19.7207C22.4377 20.5499 22.2173 21.4741 21.4108 22.2805C21.0653 22.6261 21.0457 22.9019 21.0787 23.1048C21.1218 23.3696 21.284 23.6195 21.4108 23.7464L25.7308 28.0664C26.1214 28.4569 26.1214 29.0901 25.7308 29.4806C25.3403 29.8711 24.7071 29.8711 24.3166 29.4806L19.9966 25.1606C19.6435 24.8074 19.2296 24.1933 19.1047 23.4261C18.9697 22.597 19.1902 21.6728 19.9966 20.8663C20.3422 20.5208 20.3617 20.2449 20.3287 20.0421C20.2856 19.7773 20.1234 19.5273 19.9966 19.4005L15.6766 15.0805C15.6034 15.0073 15.4244 14.9037 15.2141 14.8837C15.0401 14.8671 14.8646 14.9067 14.6908 15.0805C14.2091 15.5622 14.3066 16.042 14.4022 16.2326L16.4354 18.2659C17.9975 19.828 17.9975 22.3606 16.4354 23.9227L13.4522 26.906C13.3846 26.9736 13.3152 27.0383 13.2441 27.1001L14.211 28.067C14.6015 28.4575 14.6015 29.0907 14.211 29.4812C13.8205 29.8717 13.1873 29.8717 12.7968 29.4812L11.3305 28.015C10.0862 28.2372 8.75696 27.8675 7.79541 26.906L7.61359 26.7241L4.3741 29.9636C3.98357 30.3541 3.35041 30.3541 2.95989 29.9636C2.56936 29.5731 2.56936 28.9399 2.95989 28.5494L6.19938 25.3099L5.31802 24.4285C4.53697 23.6475 4.53697 22.3812 5.31802 21.6001L11.1296 15.7885C11.4835 15.4345 11.9371 15.241 12.4 15.2078C12.5232 14.6762 12.8015 14.1414 13.2766 13.6663C13.9166 13.0263 14.7011 12.8258 15.4036 12.8927C16.0699 12.9561 16.684 13.2594 17.0908 13.6663L17.4669 14.0424L18.4221 13.0872C17.7765 12.1181 17.4003 10.9543 17.4003 9.70254C17.4003 6.3267 20.1367 3.58984 23.5124 3.58984C26.2584 3.58984 28.4685 5.66282 29.2765 7.94913C29.3847 8.25519 29.3375 8.59471 29.1501 8.85975ZM26.6626 7.28234C25.8863 6.27542 24.7323 5.58984 23.5124 5.58984C21.2415 5.58984 19.4003 7.43105 19.4003 9.70254C19.4003 11.974 21.2415 13.8152 23.5124 13.8152C24.7323 13.8152 25.8863 13.1297 26.6626 12.1227H24.6485C24.4658 12.1227 23.858 12.1095 23.2625 11.828C22.9511 11.6807 22.6113 11.4453 22.3508 11.072C22.0844 10.6905 21.9444 10.2269 21.9444 9.70254C21.9444 9.17912 22.0835 8.71593 22.349 8.33435C22.6088 7.96087 22.948 7.725 23.2596 7.57744C23.855 7.29537 24.4636 7.28234 24.6485 7.28234L26.6626 7.28234ZM12.8571 17.516C12.9134 17.5889 12.9733 17.6572 13.0366 17.7205C13.0821 17.766 13.131 17.8063 13.1824 17.8412L15.0212 19.6801C15.8023 20.4611 15.8023 21.7275 15.0212 22.5085L12.038 25.4917C11.257 26.2728 9.99066 26.2728 9.20962 25.4917L6.73223 23.0143L12.5438 17.2027L12.8571 17.516Z" fill="#2D373D"/>
</svg>
