<svg width="64" height="65" viewBox="0 0 64 65" fill="none" xmlns="http://www.w3.org/2000/svg">
<path d="M31.1998 19.923V16.323C30.9998 14.323 29.3998 12.723 27.3998 12.723H24.5998V8.12305C24.5998 6.92305 23.7998 6.12305 22.5998 6.12305C21.3998 6.12305 20.5998 6.92305 20.5998 8.12305V12.723H16.9998C14.9998 12.523 13.1998 14.123 13.1998 16.323V19.323C13.1998 19.723 13.1998 20.323 13.3998 20.723L7.7998 50.323C7.7998 50.723 7.7998 51.323 7.9998 51.923C8.3998 52.323 8.7998 52.723 9.3998 52.723L10.7998 52.923L9.9998 57.323C9.7998 58.523 10.5998 59.523 11.5998 59.723C11.7998 59.723 11.7998 59.723 11.9998 59.723C12.9998 59.723 13.7998 58.923 13.9998 58.123L14.5998 53.523L15.9998 53.723C16.1998 53.723 16.1998 53.723 16.3998 53.723C17.1998 53.723 17.9998 53.123 18.1998 52.123L22.3998 30.923L26.3998 52.123C26.5998 53.123 27.3998 53.723 28.3998 53.723C28.5998 53.723 28.5998 53.723 28.5998 53.723L30.1998 53.523L30.9998 58.123C31.1998 59.123 31.9998 59.723 32.9998 59.723C33.1998 59.723 33.1998 59.723 33.3998 59.723C34.3998 59.523 35.1998 58.323 34.9998 57.323L34.3998 52.923L35.1998 52.723C35.7998 52.723 36.1998 52.323 36.5998 51.923C36.9998 51.323 36.9998 50.923 36.9998 50.323L31.3998 20.523C31.3998 20.323 31.3998 20.123 31.1998 19.923ZM17.1998 16.723H27.3998V19.723C27.3998 20.923 26.5998 22.323 25.5998 23.123C24.3998 24.123 22.9998 24.523 21.3998 24.123C19.3998 23.923 17.7998 22.523 17.3998 20.523C17.3998 20.323 17.3998 20.123 17.1998 19.923C17.1998 19.723 17.1998 19.523 17.1998 19.123V16.723ZM14.7998 49.523L14.1998 49.323C13.9998 49.123 13.7998 49.123 13.3998 49.123C12.9998 49.123 12.7998 49.123 12.3998 49.123H12.1998L16.3998 26.323C17.1998 26.923 17.9998 27.323 18.7998 27.723L14.7998 49.523ZM32.3998 49.123C32.1998 49.123 31.7998 49.123 31.5998 49.123C31.3998 49.123 31.1998 49.323 30.9998 49.323L29.9998 49.523L25.7998 27.523C26.5998 27.123 27.1998 26.723 27.9998 26.323C28.1998 26.323 28.1998 26.123 28.3998 25.923L32.5998 49.123H32.3998Z" fill="#2D373D"/>
<path d="M50.7994 6.12305H40.7994C37.7994 6.12305 35.3994 8.32305 35.3994 11.323V23.123C35.3994 24.323 36.1994 25.123 37.3994 25.123C38.5994 25.123 39.3994 24.323 39.3994 23.123V11.523C39.3994 10.723 39.9994 10.123 40.7994 10.123H50.7994C51.5994 10.123 52.1994 10.523 52.1994 11.323V16.123H47.3994C46.1994 16.123 45.3994 16.923 45.3994 18.123C45.3994 19.323 46.1994 20.123 47.3994 20.123H52.1994V25.923H47.3994C46.1994 25.923 45.3994 26.723 45.3994 27.923C45.3994 29.123 46.1994 29.923 47.3994 29.923H52.1994V35.923H47.3994C46.1994 35.923 45.3994 36.723 45.3994 37.923C45.3994 39.123 46.1994 39.923 47.3994 39.923H52.1994V45.723H47.3994C46.1994 45.723 45.3994 46.523 45.3994 47.723C45.3994 48.923 46.1994 49.723 47.3994 49.723H52.1994V54.323C52.1994 55.123 51.5994 55.723 50.7994 55.723H40.7994C39.5994 55.723 38.7994 56.523 38.7994 57.723C38.7994 58.923 39.5994 59.723 40.7994 59.723H50.7994C53.5994 59.723 55.9994 57.323 56.1994 54.323V11.323C56.1994 8.52305 53.7994 6.12305 50.7994 6.12305Z" fill="#2D373D"/>
</svg>
