<svg width="64" height="65" viewBox="0 0 64 65" fill="none" xmlns="http://www.w3.org/2000/svg">
<path d="M31.333 34.3625H29.5997V32.3359C29.5997 30.0159 28.6397 27.7492 26.9063 26.1225C23.493 22.8692 17.573 22.8425 14.1597 26.1225C12.4263 27.7492 11.4663 30.0159 11.4663 32.3359V34.3625H9.73301C7.30634 34.3625 5.33301 36.2825 5.33301 38.6559V55.2959C5.33301 57.6692 7.30634 59.5892 9.73301 59.5892H31.333C33.7597 59.5892 35.733 57.6692 35.733 55.2959V38.6559C35.733 36.2825 33.7597 34.3625 31.333 34.3625ZM15.4663 32.3359C15.4663 31.0825 15.973 29.9092 16.9063 29.0025C18.7997 27.1892 22.2663 27.2159 24.1597 29.0025C25.093 29.9092 25.5997 31.0825 25.5997 32.3359V34.3625H15.4663V32.3359ZM31.733 55.2959C31.733 55.2959 31.573 55.5892 31.333 55.5892H9.73301C9.49301 55.5892 9.33301 55.4292 9.33301 55.2959V38.6559C9.33301 38.5225 9.49301 38.3625 9.73301 38.3625H31.333C31.573 38.3625 31.733 38.5225 31.733 38.6559V55.2959Z" fill="#2D373D"/>
<path d="M24.7997 49.2959C24.613 50.0425 24.1597 50.6825 23.5197 51.1359C23.0397 51.4825 22.4263 51.6692 21.8397 51.7225C21.7063 52.3359 21.173 52.7892 20.533 52.7892C19.893 52.7892 19.3863 52.3625 19.253 51.7759H18.133C17.3863 51.7759 16.7997 51.1892 16.7997 50.4425C16.7997 49.6959 17.3863 49.1092 18.133 49.1092H21.3863C21.5997 49.1092 21.8397 49.0559 21.9997 48.9492C22.1063 48.8692 22.1863 48.7892 22.1863 48.7092C22.0797 48.4159 21.9463 48.3359 21.7597 48.2825L18.453 47.1625C17.7063 46.9225 17.093 46.4425 16.6663 45.8292C16.2397 45.1625 16.1063 44.3625 16.2663 43.5892C16.453 42.8692 16.9063 42.2025 17.5463 41.7759C18.053 41.4292 18.613 41.2159 19.2263 41.1625C19.3597 40.5492 19.893 40.1225 20.533 40.1225C21.173 40.1225 21.6797 40.5225 21.813 41.1092H22.933C23.6797 41.1092 24.2663 41.7225 24.2663 42.4425C24.2663 43.1625 23.6797 43.7759 22.933 43.7759H19.6797C19.4397 43.7759 19.2263 43.8559 19.0663 43.9625C18.933 44.0425 18.8797 44.1492 18.8797 44.2025C18.9863 44.4692 19.1197 44.5759 19.3063 44.6292L22.613 45.7492C23.3597 45.9892 23.973 46.4692 24.373 47.0825C24.8263 47.7492 24.9597 48.5492 24.7997 49.2959Z" fill="#2D373D"/>
<path d="M43.333 6.25586C34.8797 6.25586 27.9997 13.1359 27.9997 21.5892C27.9997 30.0425 34.8797 36.9225 43.333 36.9225C51.7863 36.9225 58.6663 30.0425 58.6663 21.5892C58.6663 13.1359 51.7863 6.25586 43.333 6.25586ZM43.333 10.2559C48.133 10.2559 52.2663 13.2692 53.893 17.5092H32.773C34.3997 13.2692 38.533 10.2559 43.333 10.2559ZM49.9197 21.2692C49.9197 22.2292 49.1197 23.0025 48.1863 23.0025C47.253 23.0025 46.453 22.2292 46.453 21.2692C46.453 20.3092 47.2263 19.5625 48.1863 19.5625C49.1463 19.5625 49.9197 20.3359 49.9197 21.2692ZM39.1997 21.2692C39.1997 22.2292 38.4263 23.0025 37.4663 23.0025C36.5063 23.0025 35.733 22.2292 35.733 21.2692C35.733 20.3092 36.5063 19.5625 37.4663 19.5625C38.4263 19.5625 39.1997 20.3359 39.1997 21.2692ZM43.333 32.9225C38.533 32.9225 34.3997 29.9092 32.773 25.6692H53.893C52.2663 29.9092 48.133 32.9225 43.333 32.9225Z" fill="#2D373D"/>
<path d="M45.2263 16.4159C44.6397 16.4159 44.0797 16.0159 43.9197 15.4025C43.733 14.6825 44.1863 13.9625 44.8797 13.7759L48.8797 12.7625C49.573 12.5759 50.3197 13.0292 50.5063 13.7225C50.693 14.4425 50.2397 15.1625 49.5463 15.3492L45.5463 16.3625C45.5463 16.3625 45.333 16.4159 45.2263 16.4159Z" fill="#2D373D"/>
<path d="M40.9597 16.4959C40.9597 16.4959 40.7197 16.4959 40.5863 16.4425L36.613 15.2959C35.893 15.0825 35.493 14.3625 35.7063 13.6425C35.9197 12.9492 36.6397 12.5225 37.3597 12.7359L41.333 13.8825C42.053 14.0959 42.453 14.8159 42.2397 15.5359C42.0797 16.1225 41.5463 16.4959 40.9597 16.4959Z" fill="#2D373D"/>
<path d="M40.8263 32.2292C40.613 32.2292 40.373 32.1759 40.1597 32.0692C39.5197 31.6959 39.2797 30.8959 39.653 30.2559C41.1463 27.6159 44.7197 25.3492 50.293 26.8959C51.013 27.0825 51.413 27.8292 51.2263 28.5492C51.0397 29.2692 50.293 29.6959 49.573 29.4825C44.453 28.0692 42.453 30.7359 41.973 31.5892C41.733 32.0159 41.2797 32.2559 40.7997 32.2559L40.8263 32.2292Z" fill="#2D373D"/>
</svg>
