<svg width="32" height="33" viewBox="0 0 32 33" fill="none" xmlns="http://www.w3.org/2000/svg">
<path fill-rule="evenodd" clip-rule="evenodd" d="M3.66602 3.58984C4.2183 3.58984 4.66602 4.03756 4.66602 4.58984V10.5898H9.08879C9.61375 9.94616 10.2628 9.40763 10.9993 9.01072V5.58984H9.33268C8.7804 5.58984 8.33268 5.14213 8.33268 4.58984C8.33268 4.03756 8.7804 3.58984 9.33268 3.58984H18.666C19.2183 3.58984 19.666 4.03756 19.666 4.58984C19.666 5.14213 19.2183 5.58984 18.666 5.58984H16.9993V9.01072C17.7359 9.40763 18.3849 9.94616 18.9099 10.5898H22.9993C26.4972 10.5898 29.3327 13.4254 29.3327 16.9232V19.9232C29.3327 20.4755 28.885 20.9232 28.3327 20.9232H22.9993C22.4471 20.9232 21.9993 20.4755 21.9993 19.9232V17.9232H19.3855C18.2687 19.7239 16.2741 20.9232 13.9993 20.9232C11.7246 20.9232 9.72995 19.7239 8.61316 17.9232H4.66602V23.9232C4.66602 24.4755 4.2183 24.9232 3.66602 24.9232C3.11373 24.9232 2.66602 24.4755 2.66602 23.9232V4.58984C2.66602 4.03756 3.11373 3.58984 3.66602 3.58984ZM4.66602 12.5898H7.98829C7.77922 13.2185 7.66602 13.891 7.66602 14.5898C7.66602 15.0472 7.7145 15.4933 7.80661 15.9232H4.66602V12.5898ZM13.9993 8.25651C13.6591 8.25651 13.3251 8.28334 12.9993 8.33501V5.58984H14.9993V8.33501C14.6736 8.28334 14.3396 8.25651 13.9993 8.25651ZM20.3327 14.5898C20.3327 13.891 20.2195 13.2185 20.0104 12.5898H22.9993C25.3926 12.5898 27.3327 14.5299 27.3327 16.9232V18.9232H23.9993V17.5898C23.9993 16.6694 23.2532 15.9232 22.3327 15.9232H20.1921C20.2842 15.4933 20.3327 15.0472 20.3327 14.5898ZM13.9993 18.9232C16.3926 18.9232 18.3327 16.9831 18.3327 14.5898C18.3327 12.1966 16.3926 10.2565 13.9993 10.2565C11.6061 10.2565 9.66602 12.1966 9.66602 14.5898C9.66602 16.9831 11.6061 18.9232 13.9993 18.9232Z" fill="#2D373D"/>
<path fill-rule="evenodd" clip-rule="evenodd" d="M29.3327 26.6853C29.3327 28.6577 27.7337 30.2567 25.7612 30.2567C23.7887 30.2567 22.1896 28.6577 22.1896 26.6853C22.1896 24.7128 24.666 21.5898 25.7612 21.5898C26.8563 21.5898 29.3327 24.7128 29.3327 26.6853ZM27.3327 26.6853C27.3327 27.5531 26.6292 28.2567 25.7612 28.2567C24.8932 28.2567 24.1896 27.5531 24.1896 26.6853C24.1896 26.5738 24.2351 26.2952 24.4262 25.8582C24.6072 25.4442 24.8713 24.9968 25.1755 24.5833C25.3778 24.3084 25.5796 24.0734 25.7612 23.8884C25.9428 24.0734 26.1445 24.3084 26.3468 24.5833C26.6511 24.9968 26.9152 25.4442 27.0962 25.8582C27.2872 26.2952 27.3327 26.5738 27.3327 26.6853Z" fill="#2D373D"/>
</svg>
