<svg width="64" height="65" viewBox="0 0 64 65" fill="none" xmlns="http://www.w3.org/2000/svg">
<path d="M23.3334 35.3502V33.7502C24.1735 33.3606 24.8854 32.74 25.3859 31.9609C25.8865 31.1817 26.155 30.2763 26.1601 29.3502C26.1588 28.4836 25.9242 27.6332 25.4809 26.8885C25.0376 26.1438 24.4019 25.5322 23.6407 25.1179C22.8794 24.7037 22.0207 24.502 21.1546 24.5341C20.2885 24.5662 19.4471 24.8309 18.7186 25.3005C17.9901 25.77 17.4015 26.427 17.0146 27.2025C16.6276 27.978 16.4566 28.8433 16.5195 29.7077C16.5824 30.5721 16.8769 31.4036 17.372 32.1149C17.8672 32.8263 18.5447 33.3911 19.3334 33.7502V35.3502C16.1808 35.8155 13.299 37.3945 11.2102 39.8013C9.12133 42.2081 7.96362 45.2835 7.94678 48.4702V54.8702C7.95368 55.3985 8.16662 55.9032 8.5402 56.2768C8.91379 56.6504 9.41849 56.8633 9.94678 56.8702H32.6134C33.1417 56.8633 33.6464 56.6504 34.02 56.2768C34.3936 55.9032 34.6065 55.3985 34.6134 54.8702V48.4702C34.6005 45.2992 33.4579 42.2366 31.3906 39.8321C29.3233 37.4276 26.4667 35.8386 23.3334 35.3502ZM21.2801 28.5236C21.4436 28.5236 21.6034 28.5721 21.7394 28.6629C21.8753 28.7537 21.9813 28.8828 22.0439 29.0339C22.1064 29.1849 22.1228 29.3512 22.0909 29.5115C22.059 29.6719 21.9803 29.8192 21.8647 29.9348C21.749 30.0504 21.6017 30.1291 21.4414 30.161C21.281 30.1929 21.1148 30.1766 20.9638 30.114C20.8127 30.0514 20.6836 29.9455 20.5928 29.8095C20.5019 29.6736 20.4534 29.5137 20.4534 29.3502C20.4534 29.131 20.5405 28.9207 20.6956 28.7657C20.8506 28.6107 21.0609 28.5236 21.2801 28.5236ZM30.6134 52.8702H11.9468V48.4702C11.9468 45.9949 12.9301 43.6209 14.6804 41.8706C16.4308 40.1202 18.8048 39.1369 21.2801 39.1369C23.7555 39.1369 26.1294 40.1202 27.8798 41.8706C29.6301 43.6209 30.6134 45.9949 30.6134 48.4702V52.8702Z" fill="#2D373D"/>
<path d="M58.2668 25.3769C58.0857 25.1048 57.8397 24.8819 57.5512 24.7283C57.2626 24.5747 56.9404 24.4952 56.6134 24.4969H47.5201C47.2265 24.4971 46.9359 24.4382 46.6656 24.3236C46.3953 24.2091 46.1508 24.0413 45.9468 23.8302C45.6286 23.5185 45.4106 23.1189 45.3206 22.6827C45.2306 22.2464 45.2728 21.7932 45.4417 21.381C45.6106 20.9688 45.8985 20.6163 46.2687 20.3686C46.639 20.1208 47.0746 19.9891 47.5201 19.9902H56.6134C56.9395 19.9874 57.26 19.9059 57.5479 19.7527C57.8357 19.5995 58.0823 19.3791 58.2668 19.1102C58.4527 18.835 58.5671 18.5177 58.5997 18.1872C58.6322 17.8566 58.582 17.5232 58.4534 17.2169C57.7682 15.5242 56.7426 13.9903 55.4401 12.7102C54.1268 11.437 52.5655 10.4476 50.8534 9.80358C49.1566 9.14302 47.3383 8.8521 45.5201 8.95025C42.764 9.08263 40.1168 10.0669 37.9436 11.7672C35.7704 13.4675 34.1783 15.8002 33.3868 18.4436C32.4705 21.4408 32.6597 24.6673 33.9201 27.5369L29.4134 32.0169C29.0389 32.3919 28.8285 32.9002 28.8285 33.4302C28.8285 33.9602 29.0389 34.4686 29.4134 34.8436C29.5973 35.0323 29.8171 35.1822 30.0598 35.2846C30.3025 35.387 30.5633 35.4398 30.8268 35.4398C31.0902 35.4398 31.351 35.387 31.5937 35.2846C31.8365 35.1822 32.0563 35.0323 32.2401 34.8436L37.7601 29.4036C38.0707 29.0893 38.2701 28.6821 38.3278 28.244C38.3856 27.8059 38.2986 27.361 38.0801 26.9769C37.4206 25.8775 37.0024 24.6503 36.8534 23.3769C36.7325 22.0812 36.8777 20.7745 37.2801 19.5369C37.6266 18.3013 38.2361 17.1551 39.0668 16.1769C39.9039 15.2008 40.9286 14.4028 42.0801 13.8302C43.232 13.272 44.4824 12.9458 45.7601 12.8702C47.042 12.8193 48.3209 13.0279 49.5201 13.4836C50.7171 13.9398 51.8066 14.639 52.7201 15.5369L53.1201 15.9369H47.5201C45.8726 15.9421 44.2929 16.5932 43.1201 17.7502C42.5323 18.3326 42.0668 19.0266 41.7508 19.7913C41.4349 20.556 41.2748 21.3762 41.2801 22.2036C41.2854 23.8641 41.9468 25.4552 43.1201 26.6302C43.6944 27.214 44.3793 27.6774 45.1348 27.9933C45.8903 28.3093 46.7012 28.4714 47.5201 28.4702H53.0401C52.8801 28.6569 52.6934 28.8169 52.5068 29.0036C51.5337 29.9305 50.3683 30.6315 49.0934 31.0569C47.8236 31.4925 46.4741 31.6466 45.1387 31.5085C43.8033 31.3704 42.5139 30.9433 41.3601 30.2569C40.9786 30.0294 40.5315 29.9371 40.0912 29.9952C39.6508 30.0533 39.2429 30.2582 38.9334 30.5769L33.3601 36.1502C32.9856 36.5252 32.7752 37.0336 32.7752 37.5636C32.7752 38.0936 32.9856 38.6019 33.3601 38.9769C33.5448 39.1639 33.7649 39.3121 34.0076 39.4128C34.2503 39.5136 34.5107 39.5648 34.7734 39.5636C35.3025 39.5574 35.8089 39.3473 36.1868 38.9769L40.7468 34.4169C42.0057 34.9826 43.3472 35.3428 44.7201 35.4836C46.6374 35.6718 48.5728 35.4537 50.4001 34.8436C52.2146 34.2361 53.872 33.2343 55.2534 31.9102C56.6939 30.6125 57.8396 29.0213 58.6134 27.2436C58.7125 26.9278 58.7326 26.5925 58.6722 26.2671C58.6118 25.9417 58.4726 25.6361 58.2668 25.3769Z" fill="#2D373D"/>
<path d="M16.7201 47.0569C17.6921 47.0569 18.4801 46.2689 18.4801 45.2969C18.4801 44.3249 17.6921 43.5369 16.7201 43.5369C15.7481 43.5369 14.9601 44.3249 14.9601 45.2969C14.9601 46.2689 15.7481 47.0569 16.7201 47.0569Z" fill="#2D373D"/>
<path d="M25.9201 47.0569C26.8921 47.0569 27.6801 46.2689 27.6801 45.2969C27.6801 44.3249 26.8921 43.5369 25.9201 43.5369C24.9481 43.5369 24.1601 44.3249 24.1601 45.2969C24.1601 46.2689 24.9481 47.0569 25.9201 47.0569Z" fill="#2D373D"/>
</svg>
