<svg width="24" height="25" viewBox="0 0 24 25" fill="none" xmlns="http://www.w3.org/2000/svg">
<path d="M8.37554 9.64625C8.85281 9.37016 9.40679 9.21191 10 9.21191C11.651 9.21191 13.0144 10.4429 13.2225 12.0371C13.0331 11.9212 12.7823 11.9424 12.6149 12.1036C12.4159 12.2951 12.4099 12.6117 12.6014 12.8106L13.6417 13.8913C13.8332 14.0902 14.1498 14.0962 14.3487 13.9047L15.4293 12.8644C15.6283 12.6729 15.6343 12.3564 15.4428 12.1574C15.2524 11.9596 14.9384 11.9525 14.7393 12.1406C14.5741 9.66711 12.5154 7.71191 10 7.71191C9.13606 7.71191 8.32388 7.94324 7.62446 8.34784C7.26591 8.55525 7.14339 9.01404 7.3508 9.37259C7.5582 9.73113 8.017 9.85365 8.37554 9.64625Z" fill="#2D373D"/>
<path d="M5.30645 11.7281L5.2988 11.7332C5.06956 11.8872 4.75892 11.8262 4.60495 11.5969C4.45099 11.3677 4.512 11.057 4.74124 10.9031L5.98645 10.0667C6.21568 9.91277 6.52633 9.97379 6.6803 10.203L7.51663 11.4482C7.6706 11.6775 7.60958 11.9881 7.38034 12.1421C7.18712 12.2719 6.93605 12.2489 6.76973 12.1012C6.7567 12.2195 6.75 12.3398 6.75 12.4619C6.75 14.2568 8.20507 15.7119 10 15.7119C10.7693 15.7119 11.4744 15.4456 12.0309 14.9994C12.3541 14.7403 12.8261 14.7923 13.0852 15.1155C13.3443 15.4387 13.2923 15.9107 12.9691 16.1698C12.156 16.8216 11.1226 17.2119 10 17.2119C7.37665 17.2119 5.25 15.0853 5.25 12.4619C5.25 12.2127 5.26926 11.9676 5.30645 11.7281Z" fill="#2D373D"/>
<path fill-rule="evenodd" clip-rule="evenodd" d="M2.25 7.46191C2.25 5.94313 3.48122 4.71191 5 4.71191H15C16.5188 4.71191 17.75 5.94313 17.75 7.46191V8.20882L17.7629 8.19916C18.0622 7.9757 18.4094 7.71639 18.7762 7.48456C19.5164 7.01674 20.326 7.10148 20.9185 7.56304C21.4739 7.99567 21.7881 8.71114 21.7881 9.4619V12.9619L21.7848 15.4703C21.7839 16.2216 21.4685 16.9371 20.9119 17.3687C20.3178 17.8292 19.5074 17.911 18.7684 17.44C18.4043 17.208 18.0598 16.9489 17.7627 16.7255L17.75 16.716V17.4619C17.75 18.9807 16.5188 20.2119 15 20.2119H5C3.48122 20.2119 2.25 18.9807 2.25 17.4619V7.46191ZM17.75 14.8858V10.0358C18.0287 9.87075 18.3151 9.65861 18.5787 9.46202L18.654 9.40588C18.9609 9.17679 19.2626 8.95164 19.5776 8.75253C19.6927 8.67976 19.7731 8.67042 19.8205 8.67302C19.8705 8.67577 19.9302 8.69453 19.9967 8.74638C20.1385 8.85682 20.2881 9.1081 20.2881 9.4619V12.4615L20.2848 15.4683C20.2844 15.8224 20.1343 16.0733 19.9927 16.1831C19.9262 16.2346 19.8667 16.2531 19.817 16.2557C19.7698 16.2581 19.6895 16.2485 19.5744 16.1752C19.2617 15.9759 18.9624 15.751 18.6578 15.5221L18.5807 15.4642C18.3165 15.2659 18.0294 15.0518 17.75 14.8858ZM5 6.21191C4.30964 6.21191 3.75 6.77156 3.75 7.46191V17.4619C3.75 18.1523 4.30964 18.7119 5 18.7119H15C15.6904 18.7119 16.25 18.1523 16.25 17.4619V7.46191C16.25 6.77156 15.6904 6.21191 15 6.21191H5Z" fill="#2D373D"/>
</svg>
