<svg width="32" height="33" viewBox="0 0 32 33" fill="none" xmlns="http://www.w3.org/2000/svg">
<path fill-rule="evenodd" clip-rule="evenodd" d="M13.6487 5.58594L9.03184 15.9193H12.8727C13.7809 15.9193 14.4234 16.8075 14.139 17.6701L11.6139 25.3281L22.4453 13.9193H18.6093C17.5557 13.9193 16.9183 12.7547 17.4863 11.8672L21.5063 5.58594H13.6487ZM11.9991 4.37536C12.2136 3.89515 12.6904 3.58594 13.2164 3.58594H22.7245C23.7782 3.58594 24.4155 4.75053 23.8475 5.63801L19.8275 11.9193H23.9974C25.1687 11.9193 25.7708 13.3212 24.9644 14.1706L9.99219 29.9411C9.66994 30.2805 9.15539 30.3511 8.75371 30.1108C8.35203 29.8706 8.1707 29.3839 8.31726 28.9395L11.9509 17.9193H8.00379C7.03778 17.9193 6.39238 16.924 6.78644 16.042L11.9991 4.37536Z" fill="#2D373D"/>
</svg>
