<svg width="24" height="25" viewBox="0 0 24 25" fill="none" xmlns="http://www.w3.org/2000/svg">
<path d="M9.14975 16.8118H6.97475C6.74975 16.8118 6.59975 16.6618 6.59975 16.4368V10.9618C6.59975 10.5118 6.29975 10.2118 5.84975 10.2118C5.39975 10.2118 5.09975 10.5118 5.09975 10.9618V16.3618C5.09975 17.4118 5.92475 18.2368 6.97475 18.2368H9.14975C9.59975 18.2368 9.89975 18.0118 9.89975 17.5618C9.89975 17.1118 9.59975 16.8118 9.14975 16.8118Z" fill="#2D373D"/>
<path d="M16.3498 9.46172C16.6498 9.76172 17.0998 9.68672 17.3998 9.38672C17.6998 9.08672 17.6248 8.63672 17.3248 8.33672L11.9998 3.83672C11.3248 3.23672 10.2748 3.23672 9.59977 3.83672L3.14977 9.23672C2.84977 9.46172 2.77477 9.98672 3.07477 10.2867C3.22477 10.5117 3.44977 10.5867 3.67477 10.5867C3.82477 10.5867 4.04977 10.5117 4.12477 10.4367L10.5748 4.96172C10.7248 4.88672 10.8748 4.88672 11.0248 4.96172L16.3498 9.46172Z" fill="#2D373D"/>
<path d="M14.8498 4.88672H16.2748V6.31172C16.2748 6.76172 16.5748 7.06172 17.0248 7.06172C17.4748 7.06172 17.7748 6.76172 17.7748 6.31172V4.13672C17.7748 3.68672 17.4748 3.38672 17.0248 3.38672H14.8498C14.3998 3.38672 14.0998 3.68672 14.0998 4.13672C14.0998 4.58672 14.3998 4.88672 14.8498 4.88672Z" fill="#2D373D"/>
<path d="M16.9498 14.9368L15.4498 14.3368C15.3748 14.2618 15.2998 14.1868 15.2998 14.1118C15.2998 14.0368 15.3748 13.9618 15.3748 13.9618C15.3748 13.9618 15.4498 13.8868 15.5248 13.8868H17.0248C17.4748 13.8868 17.7748 13.5868 17.7748 13.1368C17.7748 12.6868 17.4748 12.3868 17.0248 12.3868H16.6498C16.5748 12.0868 16.2748 11.8618 15.9748 11.8618C15.5998 11.8618 15.2998 12.0868 15.2248 12.3868C14.8498 12.4618 14.5498 12.6118 14.3248 12.9118C13.9498 13.2118 13.7998 13.6618 13.7998 14.1118C13.7998 14.7868 14.2498 15.3868 14.9248 15.6868L16.4248 16.2868C16.5748 16.3618 16.6498 16.4368 16.5748 16.5868C16.4998 16.6618 16.4248 16.7368 16.3498 16.7368H14.8498C14.3998 16.7368 14.0998 17.0368 14.0998 17.4868C14.0998 17.9368 14.3998 18.2368 14.8498 18.2368H15.2248C15.2998 18.6118 15.5248 18.8368 15.9748 18.8368C16.3498 18.8368 16.6498 18.5368 16.7248 18.1618C17.2498 18.0868 17.7748 17.7118 17.9248 17.1868C18.2998 16.2868 17.8498 15.3118 16.9498 14.9368Z" fill="#2D373D"/>
<path d="M15.9749 10.2867C13.1999 10.2867 10.8749 12.5367 10.8749 15.3867C10.8749 16.7367 11.3999 18.0117 12.3749 18.9867C13.2749 19.9617 14.6249 20.4867 15.9749 20.4867C18.7499 20.4867 21.0749 18.1617 21.1499 15.4617C21.1499 12.6117 18.8249 10.2867 15.9749 10.2867ZM15.8999 18.9117C14.9249 18.9117 14.0249 18.5367 13.3499 17.8617C12.6749 17.1867 12.2999 16.2867 12.2999 15.3117C12.2999 13.2867 13.9499 11.7117 15.8999 11.5617C17.9249 11.5617 19.5749 13.2117 19.5749 15.2367C19.5749 17.2617 17.9249 18.9117 15.8999 18.9117Z" fill="#2D373D"/>
</svg>
