<svg width="24" height="25" viewBox="0 0 24 25" fill="none" xmlns="http://www.w3.org/2000/svg">
<path d="M12.5252 20.8619C10.5752 21.0119 8.70024 20.4869 7.12524 19.3619L7.72524 16.3619H8.02524C9.07524 16.3619 9.97524 15.4619 9.97524 14.3369C9.97524 14.1869 9.97524 14.0369 9.90024 13.8869L9.30024 11.4119C9.07524 10.5119 8.25024 9.91193 7.35024 9.91193H3.90024C4.27524 8.78693 4.80024 7.66192 5.62524 6.76192C7.12524 5.11192 9.22524 4.06192 11.4752 3.91192C13.8752 3.76192 16.0502 4.66192 17.7002 6.16192H16.0502C15.1502 6.16192 14.3252 6.76192 14.1002 7.66192L13.5752 10.1369C13.4252 10.5119 13.7252 10.9619 14.1002 11.0369C14.1002 11.0369 14.1752 11.0369 14.2502 11.0369C14.5502 11.0369 14.8502 10.8119 15.0002 10.5119L15.6002 8.03692C15.6002 7.81192 15.8252 7.66192 16.0502 7.66192H19.0502C19.8002 8.71193 20.2502 9.91192 20.4002 11.2619C20.4002 11.7119 20.8502 12.0119 21.2252 11.9369C21.6752 11.9369 21.9752 11.4869 21.9002 11.1119C21.6752 9.38692 21.0002 7.88692 20.1002 6.53692C20.0252 6.46193 20.0252 6.38692 19.9502 6.31192C18.0002 3.76192 14.7752 2.18692 11.3252 2.41192C8.70024 2.63692 6.22524 3.83692 4.50024 5.86192C3.37524 7.13692 2.62524 8.63693 2.25024 10.2869C2.17524 10.3619 2.17524 10.4369 2.17524 10.5119C1.50024 14.0369 2.62524 17.6369 5.32524 19.9619L5.40024 20.0369C5.55024 20.1119 5.62524 20.2619 5.77524 20.3369C7.50024 21.6869 9.67524 22.5119 12.0002 22.5119C12.2252 22.5119 12.3752 22.5119 12.6752 22.3619C13.0502 22.2869 13.3502 21.9869 13.3502 21.5369C13.2752 21.1619 12.9752 20.8619 12.5252 20.8619ZM7.35024 11.2619C7.57524 11.2619 7.72524 11.4119 7.80024 11.6369L8.40024 14.1119C8.40024 14.1869 8.40024 14.1869 8.40024 14.2619C8.40024 14.5619 8.25024 14.7869 7.95024 14.7869H7.05024C6.67524 14.7869 6.37524 15.0119 6.30024 15.3869L5.70024 18.0869C4.42524 16.6619 3.60024 14.8619 3.52524 12.9119C3.52524 12.3869 3.52524 11.7869 3.60024 11.2619H7.35024Z" fill="#2D373D"/>
<path d="M21.0753 13.212C19.8003 11.937 17.7003 12.012 16.5003 13.287L16.3503 13.4369L16.2003 13.287C14.9253 12.012 12.9003 12.012 11.6253 13.212C10.3503 14.487 10.3503 16.512 11.5503 17.787L15.8253 22.2869C15.9753 22.4369 16.1253 22.5119 16.3503 22.5119C16.5003 22.5119 16.7253 22.4369 16.8753 22.2869L21.1503 17.787C22.4253 16.512 22.3503 14.412 21.0753 13.212ZM20.1003 16.737L16.3503 20.6369L12.6003 16.737C11.9253 15.987 12.0003 14.9369 12.6753 14.2619C13.0503 13.9619 13.4253 13.8119 13.8753 13.8119C14.3253 13.8119 14.7753 13.9619 15.2253 14.4119L15.9003 15.1619C16.1253 15.4619 16.6503 15.4619 16.9503 15.1619L17.6253 14.4119C17.9253 14.1119 18.3753 13.8869 18.8253 13.8869C19.2753 13.8869 19.7253 14.0369 20.0253 14.337C20.3253 14.637 20.5503 15.087 20.5503 15.537C20.6253 15.987 20.4003 16.437 20.1003 16.737Z" fill="#2D373D"/>
</svg>
