<svg width="24" height="25" viewBox="0 0 24 25" fill="none" xmlns="http://www.w3.org/2000/svg">
<path d="M2.75662 15.532C2.61658 15.532 2.46654 15.492 2.33651 15.402C1.99641 15.172 1.89638 14.702 2.12645 14.362C2.16646 14.312 5.84748 8.95203 12.3893 12.812C15.4402 14.612 18.281 14.242 20.6016 11.742L20.7216 11.612C21.0117 11.322 21.4918 11.322 21.7819 11.612C22.072 11.902 22.072 12.382 21.7819 12.672L21.7019 12.762C18.8811 15.802 15.3001 16.282 11.6191 14.112C6.32762 10.992 3.48683 15.032 3.3768 15.202C3.22675 15.412 2.99669 15.532 2.75662 15.532Z" fill="#2D373D"/>
<path d="M2.75662 19.2215C2.61658 19.2215 2.46654 19.1815 2.33651 19.0915C1.99641 18.8615 1.89638 18.3915 2.12645 18.0515C2.16646 18.0015 5.84748 12.6415 12.3893 16.5015C15.4402 18.3015 18.281 17.9315 20.6016 15.4315L20.7216 15.3015C21.0117 15.0115 21.4918 15.0115 21.7819 15.3015C22.072 15.5915 22.072 16.0715 21.7819 16.3615L21.7019 16.4515C18.8811 19.4915 15.3001 19.9715 11.6191 17.8015C6.32762 14.6815 3.48683 18.7215 3.3768 18.8915C3.22675 19.1015 2.99669 19.2215 2.75662 19.2215Z" fill="#2D373D"/>
<path d="M2.75664 22.9227C2.6166 22.9227 2.46656 22.8827 2.33653 22.7927C1.98643 22.5627 1.8964 22.0927 2.12647 21.7527C2.16648 21.7027 5.8475 16.3427 12.3893 20.2027C15.4402 22.0027 18.281 21.6327 20.6016 19.1327L20.7217 19.0027C21.0117 18.7127 21.4919 18.7127 21.782 19.0027C22.072 19.2927 22.072 19.7727 21.782 20.0627L21.6919 20.1527C18.8711 23.1927 15.2901 23.6627 11.6091 21.4927C6.27763 18.3527 3.47684 22.4127 3.36681 22.5827C3.21677 22.8027 2.98671 22.9127 2.73664 22.9127L2.75664 22.9227Z" fill="#2D373D"/>
<path d="M14.9995 12.4144C14.5895 12.4144 14.2495 12.0744 14.2495 11.6644V5.47438L13.5295 6.19438C13.2395 6.48438 12.7595 6.48438 12.4695 6.19438C12.1795 5.90438 12.1795 5.42437 12.4695 5.13437L14.4695 3.13438C14.5395 3.06438 14.6195 3.00438 14.7095 2.97438C14.8895 2.90438 15.1095 2.90438 15.2895 2.97438C15.3795 3.01438 15.4595 3.06438 15.5295 3.13438L17.5295 5.13437C17.8195 5.42437 17.8195 5.90438 17.5295 6.19438C17.2395 6.48438 16.7595 6.48438 16.4695 6.19438L15.7495 5.47438V11.6644C15.7495 12.0744 15.4095 12.4144 14.9995 12.4144Z" fill="#2D373D"/>
<path d="M8.99945 10.6644C8.58945 10.6644 8.24945 10.3244 8.24945 9.91437V5.47438L7.52945 6.19438C7.23945 6.48438 6.75945 6.48438 6.46945 6.19438C6.17945 5.90438 6.17945 5.42437 6.46945 5.13437L8.46945 3.13438C8.53945 3.06438 8.61945 3.00438 8.70945 2.97438C8.88945 2.90438 9.10945 2.90438 9.28945 2.97438C9.37945 3.01438 9.45945 3.06438 9.52945 3.13438L11.5295 5.13437C11.8195 5.42437 11.8195 5.90438 11.5295 6.19438C11.2395 6.48438 10.7595 6.48438 10.4695 6.19438L9.74945 5.47438V9.91437C9.74945 10.3244 9.40945 10.6644 8.99945 10.6644Z" fill="#2D373D"/>
</svg>
