<svg width="24" height="25" viewBox="0 0 24 25" fill="none" xmlns="http://www.w3.org/2000/svg">
<path fill-rule="evenodd" clip-rule="evenodd" d="M19.75 17.4462C19.75 18.5398 18.8741 19.4462 17.7692 19.4462H4.23077C3.12593 19.4462 2.25 18.5398 2.25 17.4462L2.25 9.94622C2.25 8.85268 3.12592 7.94622 4.23077 7.94622L17.7692 7.94622C18.8741 7.94622 19.75 8.85269 19.75 9.94622V17.4462ZM17.7692 17.9462C18.0238 17.9462 18.25 17.7334 18.25 17.4462V9.94622C18.25 9.65908 18.0238 9.44622 17.7692 9.44622L4.23077 9.44622C3.97619 9.44622 3.75 9.65909 3.75 9.94622L3.75 17.4462C3.75 17.7334 3.97618 17.9462 4.23077 17.9462H17.7692Z" fill="#2D373D"/>
<path fill-rule="evenodd" clip-rule="evenodd" d="M21.5882 15.7109C22.0025 15.7109 22.3382 15.3751 22.3382 14.9609V7.608C22.3382 7.10496 22.1384 6.62236 21.7826 6.26654C21.4268 5.91073 20.9442 5.71094 20.4412 5.71094L6.5 5.71094C6.08578 5.71094 5.75 6.04672 5.75 6.46094C5.75 6.87515 6.08578 7.21094 6.5 7.21094L20.4412 7.21094C20.5465 7.21094 20.6476 7.2528 20.722 7.3272C20.7964 7.40161 20.8382 7.50263 20.8382 7.608V14.9609C20.8382 15.3751 21.174 15.7109 21.5882 15.7109Z" fill="#2D373D"/>
<path d="M9.87353 10.7703C10.015 10.5829 10.2454 10.4609 10.5055 10.4609C10.7626 10.4609 10.9905 10.58 11.1323 10.7635C11.3153 10.7915 11.5032 10.8311 11.6952 10.8824C12.0953 10.9896 12.3328 11.4008 12.2257 11.8009C12.1186 12.201 11.7074 12.4385 11.3072 12.3314C10.1483 12.0211 9.80618 12.39 9.76992 12.4486C9.74512 12.4886 9.74717 12.5173 9.75616 12.541C9.76484 12.5638 9.80303 12.6368 9.95184 12.6937L9.9801 12.7045L11.0452 13.2137L11.0266 13.2527L11.6857 13.5678L11.7104 13.582C12.6122 14.1007 13.1414 15.2675 12.4184 16.2106C12.1515 16.5587 11.7733 16.7874 11.3113 16.903C11.2246 17.2239 10.9199 17.4609 10.5572 17.4609C10.2068 17.4609 9.91041 17.2397 9.81258 16.9353C9.48215 16.8849 9.13381 16.8015 8.77225 16.6863C8.37759 16.5605 8.15963 16.1386 8.28541 15.744C8.41119 15.3493 8.83308 15.1314 9.22774 15.2571C10.7191 15.7325 11.1795 15.3613 11.228 15.2979C11.2469 15.2733 11.2599 15.2425 11.2406 15.18C11.2196 15.1122 11.1516 14.9972 10.9835 14.8947L9.97511 14.4126L9.99374 14.3736L9.38478 14.0825C8.89987 13.8882 8.52845 13.5322 8.35426 13.0745C8.17666 12.6079 8.22738 12.0905 8.49463 11.6589C8.78686 11.187 9.26905 10.8881 9.87353 10.7703Z" fill="#2D373D"/>
</svg>
