<svg width="64" height="65" viewBox="0 0 64 65" fill="none" xmlns="http://www.w3.org/2000/svg">
<path d="M35.4396 36.6214C35.0373 33.2776 33.4132 30.2004 30.8796 27.9814C29.1818 26.5352 27.1602 25.5198 24.9863 25.0214C26.8546 24.2801 28.4059 22.9106 29.3733 21.1486C30.3406 19.3867 30.6633 17.3427 30.286 15.3684C29.9086 13.3941 28.8547 11.6132 27.3057 10.3323C25.7567 9.05138 23.8096 8.35059 21.7996 8.35059C19.7896 8.35059 17.8425 9.05138 16.2935 10.3323C14.7446 11.6132 13.6906 13.3941 13.3133 15.3684C12.9359 17.3427 13.2586 19.3867 14.226 21.1486C15.1933 22.9106 16.7447 24.2801 18.6129 25.0214C16.4307 25.5188 14.4002 26.534 12.6929 27.9814C10.0899 30.1698 8.3973 33.2508 7.94628 36.6214C7.88185 36.8952 7.87586 37.1794 7.9287 37.4556C7.98154 37.7318 8.09203 37.9937 8.25295 38.2243C8.41387 38.4549 8.62162 38.649 8.86262 38.7938C9.10362 38.9387 9.37246 39.0312 9.6516 39.0651C9.93074 39.0991 10.2139 39.0738 10.4826 38.9909C10.7513 38.908 10.9995 38.7694 11.211 38.5841C11.4225 38.3988 11.5926 38.1709 11.7101 37.9155C11.8276 37.66 11.8899 37.3826 11.8929 37.1014C12.2116 34.7421 13.366 32.5754 15.1463 30.9948C16.9369 29.4416 19.2292 28.5891 21.5996 28.5948C23.9612 28.5932 26.2438 29.4456 28.0263 30.9948C29.8066 32.5754 30.9609 34.7421 31.2796 37.1014C31.338 37.5847 31.5707 38.0301 31.9339 38.3541C32.2972 38.6781 32.7662 38.8585 33.2529 38.8614H33.4929C33.7739 38.8602 34.0513 38.799 34.3067 38.682C34.5621 38.5649 34.7896 38.3946 34.9739 38.1826C35.1581 37.9705 35.295 37.7215 35.3753 37.4523C35.4557 37.1831 35.4776 36.8998 35.4396 36.6214ZM17.1196 17.0748C17.1301 16.1647 17.4096 15.2781 17.9229 14.5264C18.4362 13.7748 19.1603 13.1918 20.0041 12.8508C20.848 12.5098 21.7739 12.426 22.6652 12.61C23.5566 12.794 24.3736 13.2375 25.0135 13.8848C25.6533 14.5321 26.0874 15.3541 26.2612 16.2475C26.4349 17.1409 26.3405 18.0658 25.9898 18.9057C25.6391 19.7455 25.0478 20.4629 24.2903 20.9675C23.5329 21.4721 22.6431 21.7414 21.7329 21.7414C21.1226 21.7415 20.5183 21.6204 19.9551 21.3852C19.3919 21.1501 18.8809 20.8055 18.4518 20.3714C18.0227 19.9374 17.684 19.4225 17.4554 18.8566C17.2267 18.2907 17.1126 17.6851 17.1196 17.0748Z" fill="#2D373D"/>
<path d="M35.7329 26.7014C36.3738 25.9716 37.112 25.2026 37.9996 24.8081C38.88 24.4122 39.8343 24.2075 40.7996 24.2075C41.7649 24.2075 42.7192 24.4122 43.5996 24.8081C44.4872 25.2026 45.2787 25.7849 45.9196 26.5148C46.1062 26.7284 46.3355 26.9005 46.5927 27.0199C46.8499 27.1394 47.1294 27.2035 47.4129 27.2081C47.9055 27.214 48.3819 27.0329 48.7463 26.7014C49.1063 26.3615 49.3253 25.8985 49.3599 25.4045C49.3945 24.9105 49.2421 24.4216 48.9329 24.0348C47.9173 22.8861 46.6608 21.9756 45.2529 21.3681C46.4188 20.4483 47.2692 19.1881 47.6858 17.7628C48.1025 16.3374 48.0648 14.8176 47.578 13.4147C47.0912 12.0117 46.1794 10.7952 44.9694 9.93432C43.7594 9.0734 42.3113 8.61079 40.8263 8.61079C39.3413 8.61079 37.8931 9.0734 36.6831 9.93432C35.4731 10.7952 34.5613 12.0117 34.0745 13.4147C33.5877 14.8176 33.55 16.3374 33.9667 17.7628C34.3834 19.1881 35.2338 20.4483 36.3996 21.3681C34.9956 21.9823 33.7405 22.8919 32.7196 24.0348C32.366 24.4344 32.1856 24.9581 32.2181 25.4907C32.2506 26.0233 32.4934 26.5212 32.8929 26.8748C33.2925 27.2284 33.8162 27.4088 34.3488 27.3763C34.8814 27.3438 35.3793 27.101 35.7329 26.7014ZM40.7996 12.4614C41.4231 12.4615 42.0325 12.6467 42.5505 12.9937C43.0686 13.3406 43.4719 13.8336 43.7092 14.4102C43.9466 14.9867 44.0073 15.6208 43.8837 16.2319C43.7601 16.843 43.4578 17.4036 43.015 17.8426C42.5723 18.2816 42.0091 18.5791 41.397 18.6975C40.7848 18.8159 40.1513 18.7498 39.5768 18.5075C39.0024 18.2653 38.5128 17.8578 38.1702 17.3368C37.8277 16.8159 37.6477 16.2049 37.6529 15.5814C37.66 14.7515 37.9946 13.958 38.584 13.3736C39.1733 12.7893 39.9697 12.4614 40.7996 12.4614Z" fill="#2D373D"/>
<path d="M53.0663 38.2214V36.8614C52.9942 35.3502 52.495 33.8905 51.6267 32.6515C50.7584 31.4125 49.5566 30.4452 48.1607 29.8617C46.7648 29.2782 45.2321 29.1025 43.7403 29.355C42.2486 29.6075 40.8591 30.2778 39.7329 31.2881C38.2125 32.7498 37.3307 34.7529 37.2796 36.8614V38.2214C36.4071 38.6084 35.6656 39.2401 35.145 40.04C34.6243 40.8399 34.3469 41.7737 34.3463 42.7281V51.5281C34.3532 52.176 34.4878 52.8161 34.7421 53.412C34.9965 54.0079 35.3658 54.5478 35.8288 55.001C36.2919 55.4541 36.8397 55.8116 37.4409 56.0531C38.0422 56.2945 38.6851 56.4152 39.3329 56.4081H51.0663C52.3562 56.3942 53.5894 55.8756 54.5016 54.9635C55.4138 54.0513 55.9324 52.8181 55.9463 51.5281V42.7281C55.9503 41.7796 55.6808 40.8499 55.17 40.0506C54.6592 39.2513 53.9288 38.6163 53.0663 38.2214ZM41.3329 36.8614C41.3473 35.8611 41.7487 34.9053 42.4529 34.1948C43.1924 33.4874 44.1763 33.0925 45.1996 33.0925C46.2229 33.0925 47.2068 33.4874 47.9463 34.1948C48.6553 34.9021 49.0576 35.86 49.0663 36.8614V37.7414H41.3329V36.8614ZM51.9996 51.5281C51.9996 51.7756 51.9013 52.013 51.7262 52.1881C51.5512 52.3631 51.3138 52.4614 51.0663 52.4614H39.3329C39.0854 52.4614 38.848 52.3631 38.673 52.1881C38.4979 52.013 38.3996 51.7756 38.3996 51.5281V42.7281C38.3996 42.4806 38.4979 42.2432 38.673 42.0681C38.848 41.8931 39.0854 41.7948 39.3329 41.7948H51.0663C51.3138 41.7948 51.5512 41.8931 51.7262 42.0681C51.9013 42.2432 51.9996 42.4806 51.9996 42.7281V51.5281Z" fill="#2D373D"/>
<path d="M45.1729 49.8748C46.6457 49.8748 47.8396 48.6809 47.8396 47.2081C47.8396 45.7354 46.6457 44.5414 45.1729 44.5414C43.7002 44.5414 42.5063 45.7354 42.5063 47.2081C42.5063 48.6809 43.7002 49.8748 45.1729 49.8748Z" fill="#2D373D"/>
</svg>
