<svg width="32" height="32" viewBox="0 0 32 32" fill="none" xmlns="http://www.w3.org/2000/svg">
<path fill-rule="evenodd" clip-rule="evenodd" d="M9.86465 22.1328C9.6043 21.8724 9.18219 21.8724 8.92184 22.1328C8.6615 22.3931 8.6615 22.8153 8.92184 23.0756C9.18219 23.336 9.6043 23.336 9.86465 23.0756C10.125 22.8153 10.125 22.3931 9.86465 22.1328ZM7.50763 20.7186C8.54903 19.6772 10.2375 19.6772 11.2789 20.7186C12.3203 21.76 12.3203 23.4484 11.2789 24.4898C10.2375 25.5312 8.54903 25.5312 7.50763 24.4898C6.46623 23.4484 6.46623 21.76 7.50763 20.7186Z" fill="#2D373D"/>
<path fill-rule="evenodd" clip-rule="evenodd" d="M14.5911 15.3462C14.036 15.8984 13.2096 16.0759 12.4766 15.8002C10.1858 14.9387 7.87876 15.1863 6.40842 16.7259C4.09325 19.1501 4.08738 23.1466 6.39353 25.5613C8.65409 27.9283 12.8508 27.9278 15.1122 25.5598C16.6748 23.9237 16.9513 21.7743 16.1365 19.3991C15.8881 18.6748 16.075 17.8723 16.6178 17.3323L18.556 15.4042C19.1815 14.782 20.1399 14.6437 20.9151 15.0614L20.9176 15.0626L20.9319 15.0697C20.9574 15.082 21.0049 15.1039 21.0693 15.1295C21.2039 15.1831 21.3805 15.2401 21.5656 15.2708C21.9524 15.335 22.0965 15.2563 22.1901 15.1632C22.2974 15.0565 22.3879 14.8722 22.3319 14.4404C22.3057 14.2384 22.2524 14.0474 22.2023 13.9035C22.1782 13.8342 22.1573 13.7828 22.1452 13.7546C22.1411 13.7449 22.1382 13.7383 22.1366 13.7349C21.7688 12.9685 21.9256 12.0522 22.5293 11.4517L22.82 11.1625C23.4222 10.5634 24.3365 10.4106 25.1001 10.7794C25.1036 10.7809 25.1112 10.7844 25.1225 10.7892C25.1524 10.8021 25.206 10.8241 25.2777 10.8493C25.4267 10.9017 25.6228 10.9572 25.8284 10.9846C26.273 11.0439 26.4339 10.9465 26.5172 10.8595C26.6298 10.7419 26.7013 10.5753 26.6405 10.2008C26.611 10.0196 26.5561 9.84816 26.5051 9.71884C26.4806 9.6569 26.4598 9.6116 26.4484 9.58782C26.4451 9.58089 26.4427 9.57601 26.4413 9.57329C26.0519 8.84751 26.1472 7.95606 26.6832 7.32869C26.717 7.28911 26.7521 7.25111 26.7885 7.2147L27.0013 6.9991C27.1254 6.87336 27.2896 6.60671 27.3208 6.3295C27.3341 6.21098 27.3256 6.07851 27.2685 5.92118C27.2105 5.76125 27.081 5.51795 26.7789 5.21131C26.4833 4.9113 26.2474 4.78468 26.0929 4.72823C25.9401 4.67238 25.8063 4.6628 25.6809 4.6771C25.3853 4.71083 25.1059 4.88629 24.9884 5.00319L14.5911 15.3462ZM28.6596 10.3306C28.6272 9.39616 28.2038 8.62788 28.2038 8.62788L28.4246 8.40418C29.164 7.65518 30.1153 5.74802 28.2036 3.80764C26.2919 1.86727 24.3254 2.84174 23.5779 3.58528L13.1806 13.9282C10.4248 12.8918 7.16991 13.0328 4.96206 15.3446C1.91322 18.537 1.89833 23.7502 4.94717 26.9426C7.99601 30.135 13.5098 30.1335 16.5586 26.9411C18.7665 24.6293 19.0182 21.6358 18.0283 18.7502L19.9665 16.8221C19.9665 16.8221 22.147 18.0272 23.6006 16.5811C24.1523 16.0323 24.3341 15.3654 24.3473 14.7491C24.3633 13.9991 24.1296 13.3241 24.0091 13.0281C23.9678 12.9265 23.9398 12.8696 23.9398 12.8696L24.2305 12.5804C24.2305 12.5804 24.2868 12.6082 24.3871 12.6496C24.6825 12.7713 25.3601 13.0102 26.1093 13.0014C26.7373 12.9941 27.4156 12.8129 27.9615 12.243C28.529 11.6506 28.6812 10.9537 28.6596 10.3306Z" fill="#2D373D"/>
</svg>
