<svg width="64" height="64" viewBox="0 0 64 64" fill="none" xmlns="http://www.w3.org/2000/svg">
<path d="M25.8003 25.8003C24.6003 25.8003 23.8003 26.6003 23.8003 27.8003V44.4003C23.8003 45.6003 24.6003 46.4003 25.8003 46.4003C27.0003 46.4003 27.8003 45.6003 27.8003 44.4003V27.8003C27.8003 26.6003 27.0003 25.8003 25.8003 25.8003Z" fill="#2D373D"/>
<path d="M38.2002 25.8003C37.0002 25.8003 36.2002 26.6003 36.2002 27.8003V44.4003C36.2002 45.6003 37.0002 46.4003 38.2002 46.4003C39.4002 46.4003 40.2002 45.6003 40.2002 44.4003V27.8003C40.2002 26.6003 39.4002 25.8003 38.2002 25.8003Z" fill="#2D373D"/>
<path d="M56.8002 13.4002H44.4002V11.4002C44.4002 8.0002 41.6002 5.2002 38.2002 5.2002H25.8002C24.2002 5.2002 22.6002 5.8002 21.4002 7.0002C20.2002 8.2002 19.6002 9.8002 19.6002 11.4002V13.4002H7.2002C6.0002 13.4002 5.2002 14.2002 5.2002 15.4002C5.2002 16.6002 6.0002 17.4002 7.2002 17.4002H11.4002V52.6002C11.4002 56.0002 14.2002 58.8002 17.6002 58.8002H46.4002C49.8002 58.8002 52.6002 56.0002 52.6002 52.6002V17.4002H56.8002C58.0002 17.4002 58.8002 16.6002 58.8002 15.4002C58.8002 14.2002 58.0002 13.4002 56.8002 13.4002ZM23.6002 11.4002C23.6002 10.8002 24.0002 10.2002 24.4002 9.8002C24.8002 9.4002 25.2002 9.2002 25.8002 9.2002H38.0002C39.2002 9.2002 40.2002 10.2002 40.2002 11.4002V13.4002H23.6002V11.4002ZM48.8002 52.6002C48.8002 53.8002 47.8002 54.8002 46.6002 54.8002H17.6002C16.4002 54.8002 15.4002 53.8002 15.4002 52.6002V17.4002H48.8002V52.6002Z" fill="#2D373D"/>
</svg>
