<svg width="64" height="65" viewBox="0 0 64 65" fill="none" xmlns="http://www.w3.org/2000/svg">
<path fill-rule="evenodd" clip-rule="evenodd" d="M58.2997 16.7976C57.9249 17.3277 57.316 17.6428 56.6668 17.6428H49.2964C49.2159 17.6428 49.038 17.6469 48.8228 17.68C48.601 17.7141 48.3939 17.7708 48.231 17.8479C48.0746 17.922 48.0097 17.99 47.981 18.0312C47.9636 18.0563 47.8883 18.1666 47.8883 18.4832C47.8883 18.7979 47.9634 18.9074 47.9809 18.9325C48.01 18.9743 48.076 19.043 48.2342 19.1178C48.3985 19.1955 48.6068 19.2524 48.8284 19.2865C49.0435 19.3196 49.2199 19.3236 49.2964 19.3236H56.6668C57.316 19.3236 57.9249 19.6387 58.2997 20.1688C58.6746 20.6988 58.7688 21.3779 58.5525 21.99C56.9365 26.5626 52.5163 30.7086 47.0244 30.7086C44.2208 30.7086 41.6378 29.7647 39.5756 28.1775L37.7618 29.9913L42.8211 35.0506C43.5274 35.757 44.3552 36.9853 44.605 38.5196C44.8749 40.178 44.4341 42.0263 42.8212 43.6392C42.1301 44.3303 42.0909 44.882 42.1569 45.2877C42.2432 45.8174 42.5675 46.3171 42.8212 46.5708L51.4612 55.2109C52.2422 55.992 52.2422 57.2583 51.4612 58.0394C50.6801 58.8204 49.4138 58.8204 48.6328 58.0394L39.9927 49.3993C39.2864 48.693 38.4587 47.4647 38.2089 45.9304C37.939 44.272 38.3798 42.4237 39.9927 40.8108C40.6838 40.1197 40.723 39.568 40.6569 39.1623C40.5707 38.6326 40.2463 38.1328 39.9926 37.8791L31.3527 29.2391C31.2063 29.0927 30.8483 28.8856 30.4277 28.8455C30.0796 28.8124 29.7288 28.8914 29.3811 29.2391C28.4177 30.2025 28.6127 31.1622 28.804 31.5434L32.8704 35.6099C35.9946 38.7341 35.9946 43.7994 32.8704 46.9236L26.904 52.89C26.7687 53.0253 26.6299 53.1547 26.4876 53.2782L28.4215 55.2121C29.2026 55.9932 29.2026 57.2595 28.4215 58.0406C27.6405 58.8216 26.3741 58.8216 25.5931 58.0406L22.6606 55.108C20.172 55.5525 17.5134 54.8131 15.5903 52.89L15.2267 52.5264L8.74771 59.0054C7.96666 59.7864 6.70033 59.7864 5.91928 59.0054C5.13823 58.2243 5.13823 56.958 5.91928 56.1769L12.3983 49.6979L10.6355 47.9352C9.07345 46.3731 9.07345 43.8404 10.6355 42.2783L22.2588 30.655C22.9666 29.9472 23.8737 29.5601 24.7995 29.4938C25.046 28.4305 25.6025 27.3608 26.5527 26.4106C27.8326 25.1307 29.4018 24.7298 30.8068 24.8635C32.1393 24.9904 33.3675 25.597 34.1811 26.4106L34.9333 27.1629L36.8436 25.2526C35.5526 23.3144 34.8001 20.9867 34.8001 18.4832C34.8001 11.7315 40.2729 6.25781 47.0244 6.25781C52.5163 6.25781 56.9365 10.4038 58.5525 14.9764C58.7688 15.5885 58.6746 16.2676 58.2997 16.7976ZM53.3248 13.6428C51.7721 11.629 49.4641 10.2578 47.0244 10.2578C42.4825 10.2578 38.8001 13.9402 38.8001 18.4832C38.8001 23.0262 42.4825 26.7086 47.0244 26.7086C49.4641 26.7086 51.7721 25.3374 53.3248 23.3236H49.2964C48.9312 23.3236 47.7155 23.2971 46.5245 22.734C45.9017 22.4396 45.2222 21.9687 44.7011 21.2222C44.1683 20.4591 43.8883 19.5319 43.8883 18.4832C43.8883 17.4364 44.1666 16.51 44.6975 15.7468C45.2172 14.9999 45.8956 14.5281 46.5186 14.233C47.7096 13.6689 48.9268 13.6428 49.2964 13.6428L53.3248 13.6428ZM25.7138 34.1101C25.8263 34.2559 25.9461 34.3926 26.0727 34.5191C26.1638 34.6102 26.2615 34.6907 26.3642 34.7605L30.042 38.4383C31.6041 40.0004 31.6041 42.5331 30.042 44.0952L24.0756 50.0616C22.5135 51.6237 19.9808 51.6237 18.4188 50.0616L13.464 45.1068L25.0872 33.4835L25.7138 34.1101Z" fill="#2D373D"/>
</svg>
