<svg width="24" height="25" viewBox="0 0 24 25" fill="none" xmlns="http://www.w3.org/2000/svg">
<path fill-rule="evenodd" clip-rule="evenodd" d="M17.0625 13.8664C17.3069 13.9845 17.4944 14.0752 17.625 14.3364C17.7 14.4114 17.7 14.4864 17.7 14.5614C17.85 15.1614 17.775 15.7614 17.475 16.2114C16.875 17.4114 15.75 18.0864 14.4 18.0864H14.25C12.675 18.0114 11.175 17.4114 9.9 16.5114C8.55 15.6114 7.5 14.3364 6.75 12.8364C5.925 11.1864 6.225 9.16142 7.5 7.73642C7.875 7.36142 8.325 7.21142 8.775 7.21142C9.375 7.13642 9.975 7.43642 10.275 7.96142L10.35 8.03642L10.575 8.48642V8.56142C10.725 9.01142 10.875 9.38642 11.1 9.76142C11.325 10.1364 11.325 10.5114 11.1 10.8864C11.025 11.0364 10.875 11.2614 10.725 11.3364L10.65 11.4114C11.325 12.4614 12.3 13.2114 13.425 13.7364C13.4625 13.6614 13.5188 13.5864 13.575 13.5114C13.6313 13.4364 13.6875 13.3614 13.725 13.2864C13.875 12.9864 14.25 12.7614 14.625 12.7614H14.7C14.85 12.7614 15.075 12.8364 15.225 12.9114C15.3 12.9114 15.6 13.0614 16.725 13.6614L16.95 13.8114C16.9888 13.8308 17.0263 13.8489 17.0625 13.8664ZM16.275 15.3864C16.275 15.3864 16.275 15.3114 16.35 15.3114C16.425 15.2364 16.425 15.1614 16.425 15.0864L16.125 14.9364C15.45 14.5614 15.075 14.4114 14.85 14.3364C14.775 14.4489 14.7 14.5427 14.625 14.6364C14.55 14.7302 14.475 14.8239 14.4 14.9364C14.25 15.1614 13.95 15.3114 13.575 15.3114C13.35 15.3114 13.125 15.2364 12.975 15.1614C11.4 14.4864 10.125 13.3614 9.225 11.9364C8.925 11.6364 9.075 10.9614 9.45 10.5864L9.675 10.3614L9.225 9.23642V9.16142C9.15 9.01142 9.075 8.86142 9.075 8.78642C9 8.78642 8.925 8.71142 8.925 8.71142H8.775C8.7 8.71142 8.625 8.71142 8.55 8.78642C7.725 9.68642 7.5 11.0364 8.1 12.0864C8.7 13.3614 9.6 14.4114 10.725 15.1614C11.775 15.9864 12.975 16.4364 14.325 16.5114C15.15 16.5114 15.9 16.1364 16.275 15.3864Z" fill="#2D373D"/>
<path fill-rule="evenodd" clip-rule="evenodd" d="M4.95005 5.41133C6.75005 3.53633 9.37505 2.48633 12.0751 2.48633C17.5501 2.48633 22.0501 6.91133 22.1251 12.3863C22.1251 16.1363 20.1001 19.5863 16.8001 21.3113C15.3001 22.0613 13.6501 22.5113 12.0001 22.5113C10.1251 22.5113 8.32505 21.9863 6.75005 21.0863L3.52505 22.1363C3.22505 22.2113 2.92505 22.1363 2.77505 21.9113C2.55005 21.6863 2.47505 21.3863 2.62505 21.1613L3.67505 18.0863C0.975055 14.1113 1.50005 8.71133 4.95005 5.41133ZM12.0001 21.0113C13.4251 21.0113 14.7751 20.6363 16.0501 20.0363C18.9001 18.5363 20.6251 15.6863 20.6251 12.4613C20.5501 7.73633 16.7251 3.98633 12.1501 3.98633H12.0751C9.75005 3.98633 7.57505 4.88633 6.00005 6.46133C3.00005 9.38633 2.62505 14.1113 5.10005 17.4863C5.25005 17.7113 5.25005 17.9363 5.17505 18.1613L4.50005 20.1863L6.67505 19.5113C6.75005 19.4363 6.82505 19.4363 6.90005 19.4363C7.05005 19.4363 7.20005 19.5113 7.27505 19.5863C8.70005 20.4863 10.2751 21.0113 12.0001 21.0113Z" fill="#2D373D"/>
</svg>
