<svg width="64" height="65" viewBox="0 0 64 65" fill="none" xmlns="http://www.w3.org/2000/svg">
<path d="M44.6668 14.9245C44.6668 16.0291 45.5623 16.9245 46.6668 16.9245C47.7714 16.9245 48.6668 16.029 48.6668 14.9245L48.6668 8.25781C48.6668 7.15324 47.7714 6.25781 46.6668 6.25781H40.0002C38.8956 6.25781 38.0002 7.15324 38.0002 8.25781C38.0002 9.36238 38.8956 10.2578 40.0002 10.2578L44.6668 10.2578L44.6668 14.9245Z" fill="#2D373D"/>
<path d="M28.5659 11.4249C28.5189 11.423 28.4669 11.4332 28.405 11.4751C27.8249 11.8674 27.0936 12.3708 26.253 12.9582L30.4558 21.3638C30.784 22.0203 30.7263 22.8039 30.3054 23.4052L26.2159 29.2473L27.231 32.2925C27.5803 33.3403 27.014 34.473 25.9661 34.8223C24.9182 35.1716 23.7855 34.6053 23.4362 33.5574L22.1029 29.5574C21.9027 28.9567 21.9987 28.2967 22.3618 27.778L26.3454 22.0872L22.9512 15.2989C18.1049 18.7794 11.9327 23.4011 8.69007 26.3943C7.87843 27.1435 6.61311 27.0929 5.8639 26.2812C5.11469 25.4696 5.1653 24.2043 5.97695 23.4551C10.9667 18.8491 22.2076 10.8373 26.1643 8.1616C27.7489 7.09002 29.7359 7.2265 31.1852 8.31347L51.2002 23.3247C52.0838 23.9874 52.2629 25.241 51.6002 26.1247C50.9374 27.0083 49.6838 27.1874 48.8002 26.5247L28.7852 11.5135C28.6945 11.4454 28.6166 11.4269 28.5659 11.4249Z" fill="#2D373D"/>
<path d="M13.3335 25.5911C14.4381 25.5911 15.3335 26.4866 15.3335 27.5911V46.2578C15.3335 46.626 15.632 46.9245 16.0002 46.9245H24.0002C25.1047 46.9245 26.0002 47.8199 26.0002 48.9245C26.0002 50.029 25.1047 50.9245 24.0002 50.9245H16.0002C13.4228 50.9245 11.3335 48.8351 11.3335 46.2578V27.5911C11.3335 26.4866 12.2289 25.5911 13.3335 25.5911Z" fill="#2D373D"/>
<path fill-rule="evenodd" clip-rule="evenodd" d="M55.8566 35.4338C55.8566 37.3572 54.9512 39.0692 53.5433 40.167C54.4817 40.5405 55.2609 41.1556 55.8556 41.9298C56.8249 43.1917 57.2521 44.7974 57.2518 46.338L57.2518 54.7153L58.4794 57.1844C58.8892 58.0086 58.5532 59.009 57.729 59.4188C56.9048 59.8286 55.9044 59.4926 55.4946 58.6684L54.0928 55.8488C53.9781 55.6183 53.9185 55.3643 53.9185 55.1069V46.3373C53.9187 45.3703 53.6449 44.5237 53.2121 43.9603C52.8154 43.4438 52.2454 43.0998 51.3795 43.0998L45.407 43.0996C44.1313 43.0987 43.6821 43.0983 43.2631 43.2316C42.9007 43.3469 42.4404 43.6168 41.3428 44.7144C40.1944 45.8627 39.4316 46.5368 38.933 46.9359C38.6828 47.1361 38.4904 47.2741 38.3416 47.3709C38.2667 47.4196 38.2002 47.4596 38.1404 47.4928C38.1104 47.5094 38.0816 47.5246 38.0538 47.5385L38.0124 47.5586L37.992 47.568L37.9819 47.5726L37.9768 47.5749L37.9743 47.576L37.9718 47.5771C37.3875 47.834 36.7078 47.7346 36.2215 47.3213L33.5969 45.0902C33.5686 45.0662 33.5411 45.0412 33.5145 45.0153L33.4916 44.9947C33.4645 44.971 33.4178 44.9318 33.3556 44.8856C33.2245 44.7883 33.0592 44.6859 32.8884 44.6184C32.7179 44.5509 32.6015 44.5413 32.5307 44.5497C32.4873 44.5548 32.38 44.5721 32.2044 44.7401C31.858 45.0715 31.8141 45.271 31.8064 45.3158C31.7976 45.3671 31.7995 45.4418 31.8597 45.5696C31.9254 45.7091 32.0348 45.8529 32.1524 45.9749C32.207 46.0316 32.2539 46.0738 32.2825 46.0983L32.3059 46.1178C32.3337 46.1388 32.3609 46.1608 32.3873 46.1836L32.396 46.1911L32.4284 46.2186L32.5593 46.3291C32.6744 46.4256 32.8423 46.5648 33.0495 46.7325C33.4655 47.0691 34.0328 47.5144 34.6455 47.9563C35.2645 48.4029 35.898 48.8228 36.4514 49.124C36.9478 49.3942 37.2116 49.4733 37.2845 49.4951C37.3055 49.5014 37.3107 49.503 37.301 49.503C37.5618 49.503 37.9991 49.3813 38.6472 48.9974C39.273 48.6268 39.9365 48.109 40.628 47.5297C40.8359 47.3556 41.0548 47.1684 41.2762 46.9789C41.7371 46.5846 42.2096 46.1804 42.6173 45.865C42.9308 45.6226 43.2751 45.3766 43.6245 45.1856C43.9402 45.0131 44.4473 44.7784 45.0441 44.7784C45.9645 44.7784 46.7107 45.5246 46.7107 46.4451V55.1068C46.7107 55.3278 46.6668 55.5465 46.5815 55.7504L45.4003 58.572C45.0448 59.4211 44.0684 59.8212 43.2193 59.4658C42.3702 59.1104 41.9701 58.1339 42.3255 57.2848L43.3774 54.772V49.5687C43.1873 49.7313 42.9855 49.9032 42.7685 50.085C42.05 50.6869 41.2158 51.3502 40.3459 51.8655C39.4984 52.3674 38.4421 52.8363 37.301 52.8363C36.4177 52.8363 35.501 52.4018 34.8579 52.0518C34.1286 51.6549 33.3667 51.144 32.6954 50.6597C32.0177 50.1709 31.3996 49.6853 30.9528 49.3238C30.7286 49.1424 30.5458 48.9908 30.4179 48.8836C30.354 48.83 30.3037 48.7875 30.2688 48.7578L30.2465 48.7388L30.2381 48.7322C30.2054 48.7063 30.1638 48.6724 30.1152 48.6309C30.0187 48.5483 29.8918 48.4329 29.7515 48.2872C29.4792 48.0046 29.1148 47.5649 28.8439 46.9896C28.5675 46.4025 28.3703 45.631 28.5211 44.752C28.673 43.8664 29.1476 43.0515 29.9 42.3316C30.574 41.6868 31.3444 41.3332 32.1398 41.2393C32.9078 41.1487 33.5912 41.3118 34.1143 41.5186C34.6372 41.7254 35.0594 41.999 35.3423 42.209C35.4871 42.3165 35.6041 42.4138 35.6889 42.4881C35.7302 42.5244 35.7645 42.5556 35.7911 42.5805L37.353 43.9082C37.7404 43.5665 38.2728 43.0702 38.9858 42.3573C40.1312 41.2119 41.0728 40.4305 42.2525 40.0552C43.2031 39.7528 44.2337 39.7586 45.3109 39.7647C45.4422 39.7655 45.5741 39.7662 45.7067 39.7664C44.5665 38.6744 43.8566 37.137 43.8566 35.4338C43.8566 32.1207 46.5429 29.4349 49.8566 29.4349C53.1703 29.4349 55.8566 32.1207 55.8566 35.4338ZM52.6864 35.4338C52.6864 36.9955 51.42 38.2625 49.8566 38.2625C48.2932 38.2625 47.0268 36.9955 47.0268 35.4338C47.0268 33.8721 48.2932 32.6051 49.8566 32.6051C51.42 32.6051 52.6864 33.8721 52.6864 35.4338Z" fill="#2D373D"/>
<path d="M37.6232 32.0254C38.1122 30.1382 38.7713 29.4512 39.1329 29.201C39.4849 28.9574 39.7886 28.9657 39.9353 28.984C40.2903 29.0283 40.6479 29.2444 40.7953 29.5308C40.9014 29.737 41.1367 30.4555 40.1986 32.0759C39.5983 33.1127 38.6238 35.0639 37.8228 36.7036C37.4169 37.5345 37.0467 38.3036 36.7782 38.8647C36.6438 39.1453 36.5348 39.3742 36.4592 39.5332L36.3412 39.7819C35.9477 40.6141 36.3033 41.6077 37.1355 42.0012C37.9676 42.3947 38.9615 42.0382 39.355 41.2061L39.4697 40.9643C39.5442 40.8077 39.6519 40.5815 39.7849 40.3038C40.0508 39.7481 40.4169 38.9875 40.8179 38.1667C41.6307 36.5029 42.5527 34.6624 43.0833 33.7461C44.3415 31.5729 44.5769 29.5945 43.7591 28.0054C42.9826 26.4965 41.4922 25.819 40.3476 25.6763C39.679 25.5929 38.4696 25.6064 37.236 26.46C36.012 27.307 35.013 28.8096 34.3964 31.1894C34.1553 32.1201 33.6353 33.9971 33.1709 35.6578C32.9396 36.4846 32.7237 37.2523 32.5655 37.8134L32.3073 38.728C32.0565 39.6137 32.5712 40.535 33.4569 40.7857C34.3425 41.0365 35.2641 40.5207 35.5148 39.635L35.7739 38.7177C35.9324 38.1551 36.149 37.3852 36.381 36.5556C36.843 34.9036 37.3725 32.9933 37.6232 32.0254Z" fill="#2D373D"/>
</svg>
