<svg width="64" height="65" viewBox="0 0 64 65" fill="none" xmlns="http://www.w3.org/2000/svg">
<path d="M32 38.0619C33 38.0619 34 37.0619 34 36.0619V32.4619C34 31.2619 33.2 30.4619 32 30.4619C30.8 30.4619 30 31.2619 30 32.4619V36.0619C30 37.2619 30.8 38.0619 32 38.0619Z" fill="#2D373D"/>
<path d="M32 26.8619C33 26.8619 34 26.0619 34 25.0619V21.4619C34 20.2619 33.2 19.4619 32 19.4619C30.8 19.4619 30 20.2619 30 21.4619V24.8619C30 26.0619 30.8 26.8619 32 26.8619Z" fill="#2D373D"/>
<path d="M32 15.8617C33 15.8617 34 14.8617 34 13.8617V10.2617C34 9.06172 33.2 8.26172 32 8.26172C30.8 8.26172 30 9.06172 30 10.2617V13.8617C30 15.0617 30.8 15.8617 32 15.8617Z" fill="#2D373D"/>
<path d="M31.9998 45.2614C31.7998 45.2614 31.7998 45.2614 31.5998 45.2614L20.3998 21.8614C19.9998 20.8614 18.7998 20.4614 17.7998 20.8614C16.7998 21.2614 16.3998 22.4614 16.7998 23.4614L22.1998 34.8614C20.5998 35.4614 18.9998 36.0614 17.5998 36.8614C17.1998 37.0614 16.7998 37.0614 16.3998 36.8614C15.9998 36.6614 15.7998 36.4614 15.5998 36.0614L9.79977 24.2614C8.39977 21.6614 9.59977 18.4614 12.1998 17.2614C16.1998 15.0614 20.5998 13.6614 25.1998 12.8614C26.3998 12.6614 26.9998 11.6614 26.9998 10.4614C26.7998 9.46142 25.5998 8.66142 24.5998 8.86142C19.7998 9.66142 14.7998 11.2614 10.3998 13.6614C5.79977 16.0614 3.99977 21.4614 6.19977 26.0614L11.9998 37.8614C12.5998 39.2614 13.7998 40.2614 15.1998 40.6614C15.7998 40.8614 16.3998 41.0614 16.9998 41.0614C17.7998 41.0614 18.3998 40.8614 19.1998 40.4614H19.3998C20.7998 39.6614 22.3998 39.0614 23.9998 38.4614L27.9998 46.8614C26.9998 47.8614 26.3998 49.2614 26.3998 50.8614C26.3998 54.0614 28.9998 56.4614 31.9998 56.4614C34.9998 56.4614 37.5998 54.0614 37.5998 50.8614C37.5998 47.6614 35.1998 45.2614 31.9998 45.2614ZM31.9998 52.6614C30.9998 52.6614 30.3998 52.0614 30.3998 51.0614C30.3998 50.0614 31.1998 49.4614 31.9998 49.4614C32.7998 49.4614 33.5998 50.0614 33.5998 51.0614C33.5998 52.0614 32.9998 52.6614 31.9998 52.6614Z" fill="#2D373D"/>
<path d="M53.5996 13.6614C49.1996 11.2614 44.3996 9.66142 39.3996 8.86142C38.1996 8.66142 37.1996 9.46142 36.9996 10.4614C36.7996 11.6614 37.5996 12.6614 38.5996 12.8614C43.1996 13.6614 47.5996 15.0614 51.7996 17.2614C54.3996 18.4614 55.3996 21.6614 54.1996 24.2614L48.3996 36.0614C48.3996 36.4614 47.9996 36.6614 47.5996 36.8614C47.1996 37.0614 46.7996 37.0614 46.3996 36.8614C44.1996 35.8614 41.9996 34.8614 39.5996 34.2614C38.5996 34.0614 37.3996 34.6614 37.1996 35.6614C36.9996 36.6614 37.5996 37.6614 38.5996 38.0614C40.7996 38.6614 42.7996 39.4614 44.7996 40.4614C45.5996 40.8614 46.3996 41.0614 47.1996 41.0614C47.7996 41.0614 48.3996 40.8614 48.7996 40.6614C50.1996 40.2614 51.3996 39.2614 51.9996 37.8614L57.7996 26.0614C59.9996 21.4614 57.9996 15.8614 53.5996 13.6614Z" fill="#2D373D"/>
</svg>
