<svg width="64" height="64" viewBox="0 0 64 64" fill="none" xmlns="http://www.w3.org/2000/svg">
<path d="M24.3998 45.9998H12.5998C12.3998 45.9998 11.9998 45.7998 11.9998 45.7998C11.9998 45.7998 11.7998 45.5998 11.7998 45.1998V20.5998H49.3998V28.9998C49.3998 30.1998 50.1998 30.9998 51.3998 30.9998C52.5998 30.9998 53.3998 30.1998 53.3998 28.9998V12.7998C53.3998 9.9998 51.1998 7.7998 48.3998 7.7998H12.7998C11.3998 7.7998 10.1998 8.3998 9.1998 9.1998C8.3998 10.1998 7.7998 11.3998 7.7998 12.7998V45.1998C7.7998 46.5998 8.3998 47.7998 9.3998 48.7998C10.1998 49.5998 11.3998 50.1998 12.7998 50.1998C12.7998 50.1998 12.7998 50.1998 12.7998 49.9998H24.3998C25.5998 49.9998 26.3998 49.1998 26.3998 47.9998C26.3998 46.7998 25.5998 45.9998 24.3998 45.9998ZM11.9998 11.9998C12.1998 11.9998 12.3998 11.7998 12.7998 11.7998H48.3998C48.9998 11.7998 49.3998 12.1998 49.3998 12.7998V16.5998H11.7998V12.7998C11.7998 12.3998 11.7998 11.9998 11.9998 11.9998Z" fill="#2D373D"/>
<path d="M40.7997 47.3998C40.3997 47.7998 40.1997 48.1998 40.1997 48.7998C40.1997 49.3998 40.3997 49.7998 40.7997 50.1998C41.1997 50.5998 41.5997 50.7998 42.1997 50.7998C42.7997 50.7998 43.1997 50.5998 43.5997 50.1998C43.9997 49.7998 44.1997 49.3998 44.1997 48.7998C44.1997 48.1998 43.9997 47.7998 43.5997 47.3998C42.7997 46.5998 41.5997 46.5998 40.7997 47.3998Z" fill="#2D373D"/>
<path d="M42.1997 35.7998C40.9997 35.7998 40.1997 36.5998 40.1997 37.7998V43.7998C40.1997 44.9998 40.9997 45.7998 42.1997 45.7998C43.3997 45.7998 44.1997 44.7998 44.1997 43.7998V37.7998C44.1997 36.5998 43.3997 35.7998 42.1997 35.7998Z" fill="#2D373D"/>
<path d="M55.7996 48.1996L47.3996 31.5996C46.9996 30.5996 45.9996 29.7996 44.9996 29.1996C42.1996 27.7996 38.9996 28.7996 37.5996 31.5996L29.1996 48.1996C28.7996 48.7996 28.5996 49.7996 28.5996 50.5996C28.5996 53.5996 30.9996 55.9996 33.9996 55.9996H50.5996C51.3996 55.9996 52.1996 55.7996 53.1996 55.5996C54.5996 54.9996 55.5996 53.7996 55.9996 52.3996C56.5996 50.9996 56.3996 49.5996 55.7996 48.1996ZM51.5996 50.7996C51.3996 51.1996 51.1996 51.3996 50.7996 51.5996C50.5996 51.7996 50.3996 51.7996 50.1996 51.7996H33.5996C32.7996 51.7996 32.1996 51.1996 32.1996 50.3996C32.1996 50.1996 32.1996 49.9996 32.3996 49.7996L40.7996 33.1996C41.1996 32.7996 41.5996 32.3996 42.1996 32.3996C42.3996 32.3996 42.7996 32.5996 42.5996 32.3996C42.7996 32.3996 42.9996 32.7996 43.1996 32.9996L51.5996 49.5996C51.5996 49.9996 51.7996 50.3996 51.5996 50.7996Z" fill="#2D373D"/>
</svg>
