<svg width="32" height="33" viewBox="0 0 32 33" fill="none" xmlns="http://www.w3.org/2000/svg">
<path d="M16 19.2614C16.5 19.2614 17 18.7614 17 18.2614V16.4614C17 15.8614 16.6 15.4614 16 15.4614C15.4 15.4614 15 15.8614 15 16.4614V18.2614C15 18.8614 15.4 19.2614 16 19.2614Z" fill="#2D373D"/>
<path d="M16 13.6614C16.5 13.6614 17 13.2614 17 12.7614V10.9614C17 10.3614 16.6 9.96143 16 9.96143C15.4 9.96143 15 10.3614 15 10.9614V12.6614C15 13.2614 15.4 13.6614 16 13.6614Z" fill="#2D373D"/>
<path d="M16 8.16133C16.5 8.16133 17 7.66133 17 7.16133V5.36133C17 4.76133 16.6 4.36133 16 4.36133C15.4 4.36133 15 4.76133 15 5.36133V7.16133C15 7.76133 15.4 8.16133 16 8.16133Z" fill="#2D373D"/>
<path d="M15.9999 22.8612C15.8999 22.8612 15.8999 22.8612 15.7999 22.8612L10.1999 11.1612C9.99988 10.6612 9.39988 10.4612 8.89988 10.6612C8.39988 10.8612 8.19988 11.4612 8.39988 11.9612L11.0999 17.6612C10.2999 17.9612 9.49988 18.2612 8.79988 18.6612C8.59988 18.7612 8.39988 18.7612 8.19988 18.6612C7.99988 18.5612 7.89988 18.4612 7.79988 18.2612L4.89988 12.3612C4.19988 11.0612 4.79988 9.46118 6.09988 8.86118C8.09988 7.76118 10.2999 7.06118 12.5999 6.66118C13.1999 6.56118 13.4999 6.06118 13.4999 5.46118C13.3999 4.96118 12.7999 4.56118 12.2999 4.66118C9.89988 5.06118 7.39988 5.86118 5.19988 7.06118C2.89988 8.26118 1.99988 10.9612 3.09988 13.2612L5.99988 19.1612C6.29988 19.8612 6.89988 20.3612 7.59988 20.5612C7.89988 20.6612 8.19988 20.7612 8.49988 20.7612C8.89988 20.7612 9.19988 20.6612 9.59988 20.4612H9.69988C10.3999 20.0612 11.1999 19.7612 11.9999 19.4612L13.9999 23.6612C13.4999 24.1612 13.1999 24.8612 13.1999 25.6612C13.1999 27.2612 14.4999 28.4612 15.9999 28.4612C17.4999 28.4612 18.7999 27.2612 18.7999 25.6612C18.7999 24.0612 17.5999 22.8612 15.9999 22.8612ZM15.9999 26.5612C15.4999 26.5612 15.1999 26.2612 15.1999 25.7612C15.1999 25.2612 15.5999 24.9612 15.9999 24.9612C16.3999 24.9612 16.7999 25.2612 16.7999 25.7612C16.7999 26.2612 16.4999 26.5612 15.9999 26.5612Z" fill="#2D373D"/>
<path d="M26.7998 7.06118C24.5998 5.86118 22.1998 5.06118 19.6998 4.66118C19.0998 4.56118 18.5998 4.96118 18.4998 5.46118C18.3998 6.06118 18.7998 6.56118 19.2998 6.66118C21.5998 7.06118 23.7998 7.76118 25.8998 8.86118C27.1998 9.46118 27.6998 11.0612 27.0998 12.3612L24.1998 18.2612C24.1998 18.4612 23.9998 18.5612 23.7998 18.6612C23.5998 18.7612 23.3998 18.7612 23.1998 18.6612C22.0998 18.1612 20.9998 17.6612 19.7998 17.3612C19.2998 17.2612 18.6998 17.5612 18.5998 18.0612C18.4998 18.5612 18.7998 19.0612 19.2998 19.2612C20.3998 19.5612 21.3998 19.9612 22.3998 20.4612C22.7998 20.6612 23.1998 20.7612 23.5998 20.7612C23.8998 20.7612 24.1998 20.6612 24.3998 20.5612C25.0998 20.3612 25.6998 19.8612 25.9998 19.1612L28.8998 13.2612C29.9998 10.9612 28.9998 8.16118 26.7998 7.06118Z" fill="#2D373D"/>
</svg>
