<svg width="24" height="25" viewBox="0 0 24 25" fill="none" xmlns="http://www.w3.org/2000/svg">
<path d="M11.6998 8.04805V6.69805C11.6248 5.94805 11.0248 5.34805 10.2748 5.34805H9.22481V3.62305C9.22481 3.17305 8.92481 2.87305 8.47481 2.87305C8.02481 2.87305 7.72481 3.17305 7.72481 3.62305V5.34805H6.3748C5.6248 5.27305 4.9498 5.87305 4.9498 6.69805V7.82305C4.9498 7.97305 4.9498 8.19805 5.0248 8.34805L2.9248 19.448C2.9248 19.598 2.9248 19.823 2.9998 20.048C3.1498 20.198 3.2998 20.348 3.5248 20.348L4.0498 20.423L3.7498 22.073C3.6748 22.523 3.9748 22.898 4.3498 22.973C4.4248 22.973 4.4248 22.973 4.4998 22.973C4.8748 22.973 5.1748 22.673 5.2498 22.373L5.47481 20.648L5.9998 20.723C6.0748 20.723 6.0748 20.723 6.1498 20.723C6.4498 20.723 6.74981 20.498 6.82481 20.123L8.39981 12.173L9.8998 20.123C9.97481 20.498 10.2748 20.723 10.6498 20.723C10.7248 20.723 10.7248 20.723 10.7248 20.723L11.3248 20.648L11.6248 22.373C11.6998 22.748 11.9998 22.973 12.3748 22.973C12.4498 22.973 12.4498 22.973 12.5248 22.973C12.8998 22.898 13.1998 22.448 13.1248 22.073L12.8998 20.423L13.1998 20.348C13.4248 20.348 13.5748 20.198 13.7248 20.048C13.8748 19.823 13.8748 19.673 13.8748 19.448L11.7748 8.27305C11.7748 8.19805 11.7748 8.12305 11.6998 8.04805ZM6.44981 6.84805H10.2748V7.97305C10.2748 8.42305 9.97481 8.94805 9.59981 9.24805C9.1498 9.62305 8.62481 9.77305 8.02481 9.62305C7.2748 9.54805 6.67481 9.02305 6.5248 8.27305C6.5248 8.19805 6.52481 8.12305 6.44981 8.04805C6.44981 7.97305 6.44981 7.89805 6.44981 7.74805V6.84805ZM5.54981 19.148L5.3248 19.073C5.2498 18.998 5.1748 18.998 5.0248 18.998C4.8748 18.998 4.7998 18.998 4.6498 18.998H4.5748L6.1498 10.448C6.4498 10.673 6.7498 10.823 7.0498 10.973L5.54981 19.148ZM12.1498 18.998C12.0748 18.998 11.9248 18.998 11.8498 18.998C11.7748 18.998 11.6998 19.073 11.6248 19.073L11.2498 19.148L9.67481 10.898C9.97481 10.748 10.1998 10.598 10.4998 10.448C10.5748 10.448 10.5748 10.373 10.6498 10.298L12.2248 18.998H12.1498Z" fill="#2D373D"/>
<path d="M19.0497 2.87305H15.2997C14.1747 2.87305 13.2747 3.69805 13.2747 4.82305V9.24805C13.2747 9.69805 13.5747 9.99805 14.0247 9.99805C14.4747 9.99805 14.7747 9.69805 14.7747 9.24805V4.89805C14.7747 4.59805 14.9997 4.37305 15.2997 4.37305H19.0497C19.3497 4.37305 19.5747 4.52305 19.5747 4.82305V6.62305H17.7747C17.3247 6.62305 17.0247 6.92305 17.0247 7.37305C17.0247 7.82305 17.3247 8.12305 17.7747 8.12305H19.5747V10.298H17.7747C17.3247 10.298 17.0247 10.598 17.0247 11.048C17.0247 11.498 17.3247 11.798 17.7747 11.798H19.5747V14.048H17.7747C17.3247 14.048 17.0247 14.348 17.0247 14.798C17.0247 15.248 17.3247 15.548 17.7747 15.548H19.5747V17.723H17.7747C17.3247 17.723 17.0247 18.023 17.0247 18.473C17.0247 18.923 17.3247 19.223 17.7747 19.223H19.5747V20.948C19.5747 21.248 19.3497 21.473 19.0497 21.473H15.2997C14.8497 21.473 14.5497 21.773 14.5497 22.223C14.5497 22.673 14.8497 22.973 15.2997 22.973H19.0497C20.0997 22.973 20.9997 22.073 21.0747 20.948V4.82305C21.0747 3.77305 20.1747 2.87305 19.0497 2.87305Z" fill="#2D373D"/>
</svg>
