<svg width="32" height="33" viewBox="0 0 32 33" fill="none" xmlns="http://www.w3.org/2000/svg">
<path fill-rule="evenodd" clip-rule="evenodd" d="M12.3336 7.25781C12.3336 6.70553 12.7814 6.25781 13.3336 6.25781H21.6059C23.972 6.25781 25.4221 7.36729 26.248 8.50297C26.6496 9.05516 26.8975 9.60228 27.0457 10.0098C27.1203 10.2149 27.1711 10.3887 27.204 10.5155C27.2205 10.5791 27.2327 10.6313 27.2412 10.6701C27.2454 10.6896 27.2487 10.7058 27.2513 10.7184L27.2545 10.7347L27.2556 10.7408L27.2561 10.7434C27.2561 10.7434 27.2565 10.7456 26.2726 10.9245L27.2565 10.7456C27.2587 10.758 27.2608 10.7705 27.2626 10.7831L27.9315 15.4654L29.3257 26.4654C29.3618 26.7502 29.2738 27.0369 29.0839 27.2523C28.8941 27.4677 28.6208 27.5911 28.3337 27.5911H3.66699C3.11471 27.5911 2.66699 27.1434 2.66699 26.5911C2.66699 22.7072 3.62043 19.6785 5.51345 17.6151C7.41898 15.5381 10.1362 14.5911 13.3336 14.5911H25.7863L25.2868 11.0951C25.2835 11.08 25.2775 11.0539 25.2683 11.0183C25.2491 10.9447 25.2166 10.8319 25.1662 10.6933C25.0644 10.4133 24.8956 10.0438 24.6305 9.67932C24.1232 8.98166 23.2399 8.25781 21.6059 8.25781H13.3336C12.7814 8.25781 12.3336 7.8101 12.3336 7.25781ZM26.058 16.5911H13.3336C10.5311 16.5911 8.41499 17.4109 6.9872 18.9672C5.68498 20.3866 4.84086 22.5428 4.69097 25.5911H27.1989L26.058 16.5911Z" fill="#2D373D"/>
<path d="M11.6098 23.2006C11.0891 23.7213 10.2449 23.7213 9.72421 23.2006C9.20351 22.6799 9.20351 21.8357 9.72421 21.315C10.2449 20.7943 11.0891 20.7943 11.6098 21.315C12.1305 21.8357 12.1305 22.6799 11.6098 23.2006Z" fill="#2D373D"/>
<path d="M16.9432 23.2006C16.4225 23.7213 15.5782 23.7213 15.0575 23.2006C14.5368 22.6799 14.5368 21.8357 15.0575 21.315C15.5782 20.7943 16.4225 20.7943 16.9432 21.315C17.4639 21.8357 17.4639 22.6799 16.9432 23.2006Z" fill="#2D373D"/>
<path d="M22.2765 23.2006C21.7558 23.7213 20.9116 23.7213 20.3909 23.2006C19.8702 22.6799 19.8702 21.8357 20.3909 21.315C20.9116 20.7943 21.7558 20.7943 22.2765 21.315C22.7972 21.8357 22.7972 22.6799 22.2765 23.2006Z" fill="#2D373D"/>
</svg>
