<svg width="16" height="17" viewBox="0 0 16 17" fill="none" xmlns="http://www.w3.org/2000/svg">
<path d="M14.5498 7.76161C14.3998 7.41161 14.0998 7.11161 13.7498 6.96161L12.1498 6.21161C12.0498 6.11161 11.9498 6.11161 11.8998 6.06161L3.6498 2.21161C3.2498 2.01161 2.7998 2.01161 2.3998 2.16161C1.9498 2.31161 1.6498 2.61161 1.4498 3.01161C1.3498 3.21161 1.2998 3.46161 1.2998 3.71161V13.2116C1.2998 13.6616 1.4998 14.0616 1.7998 14.3616C2.0998 14.7116 2.4998 14.8616 2.9498 14.8616C3.1998 14.8616 3.3998 14.7616 3.6498 14.6616L4.0498 14.4616C4.0498 14.4616 4.0998 14.4616 4.1498 14.4616L11.9998 10.7616L13.6998 9.96161C14.5498 9.56161 14.9498 8.56161 14.5498 7.76161ZM10.8498 6.76161L9.7998 7.76161L6.4998 4.71161L10.8498 6.76161ZM2.9498 13.8616C2.7998 13.8616 2.5998 13.7616 2.4998 13.6616C2.3498 13.5616 2.2998 13.3616 2.2998 13.2116V3.71161C2.2998 3.61161 2.2998 3.51161 2.3498 3.41161C2.4498 3.26161 2.5498 3.16161 2.6998 3.11161C2.7998 3.06161 2.8498 3.06161 2.9498 3.06161C3.0498 3.06161 3.0998 3.06161 3.1998 3.11161L3.4998 3.26161L9.0998 8.41161L3.5998 13.6616L3.1998 13.8616C3.1498 13.8616 3.0498 13.8616 2.9498 13.8616ZM9.8498 9.11161L10.9998 10.1616L6.4498 12.3116L9.8498 9.11161ZM13.2998 9.06161L11.9498 9.71161L10.5498 8.46161L11.8498 7.26161L13.2998 7.96161C13.4498 8.01161 13.5498 8.11161 13.5998 8.26161C13.7498 8.51161 13.5998 8.91161 13.2998 9.06161Z" fill="#2D373D"/>
</svg>
