<svg width="32" height="33" viewBox="0 0 32 33" fill="none" xmlns="http://www.w3.org/2000/svg">
<path fill-rule="evenodd" clip-rule="evenodd" d="M21.5837 9.26292H26.917C28.3897 9.26292 29.5837 10.4568 29.5837 11.9296V25.7963C29.5837 27.269 28.3898 28.4629 26.917 28.4629H5.58366C4.1109 28.4629 2.91699 27.269 2.91699 25.7963V11.9296C2.91699 10.4568 4.1109 9.26292 5.58366 9.26292H10.917V7.12956C10.917 5.6568 12.1109 4.46289 13.5837 4.46289H18.917C20.3898 4.46289 21.5837 5.6568 21.5837 7.12956V9.26292ZM12.917 9.06289H19.5837V7.12956C19.5837 6.76137 19.2852 6.46289 18.917 6.46289H13.5837C13.2155 6.46289 12.917 6.76137 12.917 7.12956V9.06289ZM23.5837 26.4629V11.2629H26.917C27.2852 11.2629 27.5837 11.5614 27.5837 11.9296V25.7963C27.5837 26.1644 27.2852 26.4629 26.917 26.4629H23.5837ZM21.5837 11.2629V26.4629H10.917V11.2629H21.5837ZM8.91699 11.2629V26.4629H5.58366C5.21547 26.4629 4.91699 26.1644 4.91699 25.7963V11.9296C4.91699 11.5614 5.21547 11.2629 5.58366 11.2629H8.91699Z" fill="#2D373D"/>
</svg>
