<svg width="64" height="64" viewBox="0 0 64 64" fill="none" xmlns="http://www.w3.org/2000/svg">
<path fill-rule="evenodd" clip-rule="evenodd" d="M38.5464 8.01072C37.2878 6.83134 35.673 5.87983 33.8673 5.50426C30.8935 4.88571 27.7191 5.89843 25.222 9.22793L25.2143 9.23825C23.8027 11.1458 23.5275 13.2518 24.0151 15.3177C24.4793 17.2845 25.6223 19.1893 26.9796 20.9597C28.9949 23.5883 31.8334 26.3417 34.5268 28.9544C35.4232 29.824 36.3036 30.6779 37.1322 31.5065C37.5072 31.8816 38.0159 32.0923 38.5464 32.0923C39.0768 32.0923 39.5855 31.8816 39.9606 31.5065C40.7892 30.6779 41.6695 29.824 42.5659 28.9544C45.2593 26.3417 48.0978 23.5883 50.1131 20.9597C51.4705 19.1893 52.6134 17.2845 53.0777 15.3177C53.5652 13.2518 53.29 11.1458 51.8784 9.23825L51.8708 9.22793C49.3736 5.89843 46.1992 4.88571 43.2254 5.50426C41.4197 5.87983 39.8049 6.83134 38.5464 8.01072ZM28.426 11.6225C27.7993 12.4721 27.6582 13.3401 27.9081 14.3989C28.1819 15.5587 28.932 16.9321 30.154 18.526C31.9746 20.9006 34.4905 23.342 37.1191 25.8928C37.5924 26.352 38.0692 26.8148 38.5464 27.2813C39.0235 26.8148 39.5004 26.352 39.9736 25.8928C42.6022 23.342 45.1181 20.9006 46.9387 18.526C48.1607 16.9321 48.9109 15.5587 49.1846 14.3989C49.4345 13.34 49.2935 12.472 48.6666 11.6224C47.0271 9.43957 45.3755 9.14265 44.04 9.42044C42.5065 9.7394 41.0389 10.9031 40.2424 12.1776C39.8769 12.7624 39.236 13.1176 38.5464 13.1176C37.8568 13.1176 37.2158 12.7624 36.8504 12.1776C36.0538 10.9031 34.5862 9.7394 33.0528 9.42044C31.7172 9.14265 30.0656 9.43958 28.426 11.6225Z" fill="#2D373D"/>
<path fill-rule="evenodd" clip-rule="evenodd" d="M24.4348 37.7768C22.3855 37.7401 20.3721 38.3177 18.654 39.4352L18.6503 39.4376L11.8663 43.8291L14.1544 51.8274L26.4284 52.7351C26.4492 52.7366 26.47 52.7385 26.4908 52.7407C27.4133 52.8381 28.3885 52.6168 29.4934 52.12C30.5796 51.6316 31.6425 50.9494 32.8117 50.1991C32.8546 50.1715 32.8977 50.1439 32.9409 50.1161L32.9441 50.1141L44.8724 42.3925C45.3455 42.0862 45.6776 41.6046 45.7956 41.0535C45.9135 40.5024 45.8078 39.927 45.5015 39.4538C45.1952 38.9807 44.7136 38.6487 44.1625 38.5307C43.6114 38.4127 43.036 38.5185 42.5628 38.8247L42.557 38.8285L33.5878 44.5904C33.5063 44.6428 33.4223 44.6885 33.3366 44.7277C32.629 45.1442 31.8359 45.4104 31.0067 45.5013C30.9344 45.5092 30.8616 45.5132 30.7888 45.5132H23.5001C22.3956 45.5132 21.5001 44.6178 21.5001 43.5132C21.5001 42.4086 22.3956 41.5132 23.5001 41.5132H30.6596C31.073 41.4475 31.4528 41.2434 31.7361 40.9329C32.0395 40.6003 32.2112 40.1685 32.219 39.7183L32.2201 39.6792C32.2295 39.4269 32.1863 39.1755 32.0934 38.9408C32.0004 38.7061 31.8598 38.4932 31.6803 38.3157C31.5007 38.1383 31.2863 38 31.0506 37.9097C30.8149 37.8194 30.5629 37.7791 30.3108 37.7913C30.2767 37.793 30.2426 37.7937 30.2084 37.7937L24.4348 37.7768ZM36.0595 38.2483C35.9957 37.9834 35.9132 37.7227 35.8124 37.4682C35.5155 36.7184 35.0661 36.0384 34.4927 35.4714C33.9192 34.9044 33.2342 34.4626 32.4811 34.1742C31.7455 33.8926 30.9607 33.7632 30.1741 33.7935L24.4909 33.7772C21.6491 33.7294 18.8578 34.5315 16.4748 36.0809L10.7161 39.8087L10.4224 38.782C10.1186 37.7201 9.01142 37.1054 7.94945 37.4093C6.88748 37.7131 6.27287 38.8202 6.57668 39.8822L11.5357 57.2168C11.8395 58.2788 12.9467 58.8934 14.0087 58.5896C15.0706 58.2858 15.6852 57.1786 15.3814 56.1166L15.3266 55.925L26.1043 56.7221C27.9668 56.9108 29.6675 56.4275 31.1339 55.7681C32.5001 55.1538 33.7934 54.3229 34.8961 53.6143C34.9662 53.5693 35.0355 53.5248 35.104 53.4809L35.1109 53.4764L47.046 45.7504C48.4097 44.8676 49.3669 43.4793 49.7069 41.8908C50.047 40.3024 49.7421 38.6439 48.8594 37.2802C47.9766 35.9165 46.5883 34.9594 44.9998 34.6193C43.4126 34.2795 41.7555 34.5836 40.3925 35.4647L40.3892 35.4669L36.0595 38.2483Z" fill="#2D373D"/>
</svg>
