<svg width="32" height="33" viewBox="0 0 32 33" fill="none" xmlns="http://www.w3.org/2000/svg">
<path d="M22.5998 21.0614L20.5998 20.2614C20.4998 20.2614 20.3998 20.0614 20.3998 19.9614C20.3998 19.8614 20.4998 19.7614 20.4998 19.7614C20.4998 19.7614 20.5998 19.6614 20.6998 19.6614H22.6998C23.2998 19.6614 23.6998 19.2614 23.6998 18.6614C23.6998 18.0614 23.2998 17.6614 22.6998 17.6614H21.9998C21.8998 17.2614 21.4998 16.9614 21.0998 16.9614C20.5998 16.9614 20.1998 17.2614 20.0998 17.7614C19.5998 17.8614 19.2998 18.0614 18.9998 18.3614C18.5998 18.7614 18.2998 19.3614 18.2998 19.9614C18.2998 20.9614 18.8998 21.8614 19.7998 22.1614L21.7998 22.9614C21.8998 23.0614 21.9998 23.0614 21.9998 23.1614C21.9998 23.1614 21.9998 23.2614 21.9998 23.3614C21.9998 23.4614 21.7998 23.5614 21.6998 23.5614H19.6998C19.0998 23.5614 18.6998 23.9614 18.6998 24.5614C18.6998 25.1614 19.0998 25.5614 19.6998 25.5614H20.1998C20.2998 25.9614 20.6998 26.2614 21.0998 26.2614C21.5998 26.2614 21.9998 25.9614 22.0998 25.4614C22.8998 25.3614 23.5998 24.7614 23.8998 24.0614C24.1998 23.4614 24.0998 22.8614 23.8998 22.2614C23.5998 21.7614 23.1998 21.2614 22.5998 21.0614Z" fill="#2D373D"/>
<path d="M21.1002 14.6614C17.3002 14.6614 14.2002 17.7614 14.2002 21.5614C14.2002 25.3614 17.3002 28.4614 21.1002 28.4614C24.9002 28.4614 28.0002 25.3614 28.0002 21.5614C28.0002 17.7614 24.9002 14.6614 21.1002 14.6614ZM21.1002 26.4614C18.4002 26.4614 16.2002 24.2614 16.2002 21.5614C16.2002 18.8614 18.4002 16.6614 21.1002 16.6614C23.8002 16.6614 26.0002 18.8614 26.0002 21.5614C26.0002 24.2614 23.8002 26.4614 21.1002 26.4614Z" fill="#2D373D"/>
<path d="M12.2999 19.1613H6.3999C6.0999 19.1613 5.8999 18.9613 5.8999 18.6613V10.6613H23.0999V12.7613C23.0999 13.3613 23.4999 13.7613 24.0999 13.7613C24.6999 13.7613 25.0999 13.3613 25.0999 12.7613V6.86133C25.0999 6.16133 24.8999 5.56133 24.3999 5.06133C23.8999 4.66133 23.2999 4.36133 22.5999 4.36133H6.3999C4.9999 4.36133 3.8999 5.46133 3.8999 6.86133V18.6613C3.8999 20.0613 4.9999 21.1613 6.3999 21.1613H12.2999C12.7999 21.1613 13.2999 20.7613 13.2999 20.1613C13.2999 19.5613 12.8999 19.1613 12.2999 19.1613ZM6.3999 6.36133H22.5999C22.7999 6.36133 22.9999 6.56133 22.9999 6.56133C22.9999 6.56133 23.0999 6.66133 23.0999 6.86133V7.96133H5.8999V6.86133C5.8999 6.56133 6.0999 6.36133 6.3999 6.36133Z" fill="#2D373D"/>
<path d="M14.7999 13.4614C14.7999 12.8614 14.3999 12.4614 13.7999 12.4614H7.8999C7.2999 12.4614 6.8999 12.8614 6.8999 13.4614C6.8999 14.0614 7.2999 14.4614 7.8999 14.4614H13.7999C14.2999 14.4614 14.7999 14.0614 14.7999 13.4614Z" fill="#2D373D"/>
<path d="M10.7999 17.4614C11.3999 17.4614 11.8999 17.0614 11.8999 16.4614C11.8999 15.8614 11.4999 15.4614 10.8999 15.4614H7.8999C7.2999 15.4614 6.8999 15.8614 6.8999 16.4614C6.8999 17.0614 7.2999 17.4614 7.8999 17.4614H10.7999Z" fill="#2D373D"/>
</svg>
