<svg width="24" height="25" viewBox="0 0 24 25" fill="none" xmlns="http://www.w3.org/2000/svg">
<path d="M14.8496 2.41016H9.22461C7.12461 2.41016 5.47461 4.06016 5.47461 6.16016V18.7602C5.47461 20.8602 7.12461 22.5102 9.22461 22.5102H14.8496C16.8746 22.5102 18.5996 20.8602 18.5996 18.7602V6.16016C18.5996 4.06016 16.9496 2.41016 14.8496 2.41016ZM9.22461 3.91016H14.8496C16.1246 3.91016 17.0996 4.88516 17.0996 6.16016V16.2102H6.97461V6.16016C6.97461 4.88516 7.94961 3.91016 9.22461 3.91016ZM14.8496 21.0102H9.22461C7.94961 21.0102 6.97461 20.0352 6.97461 18.7602V17.7102H17.0996V18.7602C17.0996 20.0352 16.1246 21.0102 14.8496 21.0102Z" fill="#2D373D"/>
<path d="M11.9996 20.1102C12.4138 20.1102 12.7496 19.7744 12.7496 19.3602C12.7496 18.946 12.4138 18.6102 11.9996 18.6102C11.5854 18.6102 11.2496 18.946 11.2496 19.3602C11.2496 19.7744 11.5854 20.1102 11.9996 20.1102Z" fill="#2D373D"/>
</svg>
