<svg width="64" height="65" viewBox="0 0 64 65" fill="none" xmlns="http://www.w3.org/2000/svg">
<path fill-rule="evenodd" clip-rule="evenodd" d="M46.964 12.1008C42.7726 10.8975 37.1624 10.2561 32.0003 10.2559C26.8383 10.2556 21.2283 10.8969 17.037 12.1001C14.9159 12.709 13.4228 13.3882 12.5473 14.0123C12.2411 14.2307 12.0799 14.388 12.0005 14.4803V32.9222C12.0005 39.0301 14.7886 44.7416 18.8781 48.9772C23.0316 53.2791 28.0558 55.5891 32.0006 55.5892C35.9452 55.5893 40.9694 53.2794 45.1229 48.9776C49.2123 44.742 52.0005 39.0303 52.0005 32.9222V14.4808C51.9211 14.3884 51.7599 14.2312 51.4538 14.0129C50.5782 13.3888 49.0851 12.7097 46.964 12.1008ZM52.0687 14.5779C52.0687 14.5779 52.0589 14.5661 52.0485 14.5418C52.0652 14.5657 52.0687 14.5779 52.0687 14.5779ZM11.9323 14.5774C11.9323 14.5774 11.9359 14.5652 11.9525 14.5413C11.9422 14.5656 11.9323 14.5774 11.9323 14.5774ZM32.0005 6.25586C42.8464 6.25642 56.0005 8.92253 56.0005 14.2556V32.9222C56.0005 47.5892 42.6671 59.5895 32.0005 59.5892C21.3338 59.5889 8.00049 47.5889 8.00049 32.9222V14.2553C8.00049 8.92197 21.1546 6.2553 32.0005 6.25586Z" fill="#2D373D"/>
<path fill-rule="evenodd" clip-rule="evenodd" d="M32.0005 31.1638C31.9469 31.1638 30.9282 29.1644 29.7307 26.7187L27.5503 22.2559H20.7411V40.4644H27.5325L27.5682 36.0551L27.6218 31.6279L29.8201 36.073L32.0005 40.518L34.1988 36.073L36.3792 31.6279L36.4328 36.0373L36.4685 40.4644H43.2599V22.2559H39.8285L36.3792 22.2737L34.2345 26.7187C33.0549 29.1644 32.0541 31.1638 32.0005 31.1638Z" fill="#2D373D"/>
<path d="M29.7307 26.7187C30.9282 29.1644 31.9469 31.1638 32.0005 31.1638C32.0541 31.1638 33.0549 29.1644 34.2345 26.7187L36.3792 22.2737L39.8285 22.2559H43.2599V40.4644H36.4685L36.4328 36.0373L36.3792 31.6279L34.1988 36.073L32.0005 40.518L29.8201 36.073L27.6218 31.6279L27.5682 36.0551L27.5325 40.4644H20.7411V22.2559H27.5503L29.7307 26.7187Z" fill="#2D373D"/>
</svg>
