<svg width="24" height="25" viewBox="0 0 24 25" fill="none" xmlns="http://www.w3.org/2000/svg">
<path d="M15.4498 15.3108C15.0748 15.0108 14.6248 14.7858 14.0998 14.7858C13.5748 14.7858 13.1248 14.9358 12.7498 15.3108C12.6748 15.3858 12.5998 15.3858 12.5248 15.3858C12.5248 15.3858 12.3748 15.3858 12.2998 15.3108L9.14983 12.1608C8.99983 12.0108 8.99983 11.7858 9.14983 11.6358C9.52483 11.2608 9.67483 10.7358 9.67483 10.2858C9.67483 9.83578 9.52483 9.31078 9.14983 8.93578L7.19983 6.98578C6.44983 6.23578 5.32483 6.23578 4.57483 6.98578L4.12483 7.43578C2.77483 8.78578 2.54983 10.8858 3.59983 12.5358C5.77483 15.8358 8.54983 18.6108 11.8498 20.7858C12.5248 21.2358 13.2748 21.4608 14.0248 21.4608C15.0748 21.4608 16.1248 21.0858 16.9498 20.3358L17.3998 19.8858C18.1498 19.1358 18.1498 18.0108 17.3998 17.2608L15.4498 15.3108ZM16.2748 18.8358L15.8248 19.2858C14.9998 20.1858 13.6498 20.2608 12.6748 19.6608C9.52483 17.5608 6.89983 14.8608 4.79983 11.7858C4.19983 10.7358 4.34983 9.38578 5.17483 8.56078L5.69983 8.03578C5.77483 7.96078 5.84983 7.96078 5.92483 7.96078C5.99983 7.96078 6.07483 8.03578 6.14983 8.11078L8.09983 10.0608C8.24983 10.2108 8.24983 10.4358 8.09983 10.5858C7.34983 11.3358 7.34983 12.4608 8.09983 13.2108L11.2498 16.3608C11.6248 16.6608 12.0748 16.8858 12.5998 16.8858C13.0498 16.8858 13.4998 16.7358 13.8748 16.3608C13.9498 16.2858 14.0248 16.2858 14.0998 16.2858C14.0998 16.2858 14.2498 16.2858 14.3248 16.3608L16.2748 18.3108C16.4248 18.4608 16.4248 18.6858 16.2748 18.8358Z" fill="#2D373D"/>
<path d="M14.0246 12.9857C14.0246 13.4357 14.3246 13.7357 14.7746 13.7357C15.1496 13.7357 15.5246 13.4357 15.5246 12.9857C15.5246 10.7357 13.7246 8.93567 11.4746 8.93567C11.0246 8.93567 10.7246 9.23567 10.7246 9.68567C10.7246 10.1357 11.0246 10.4357 11.4746 10.4357C12.8996 10.4357 14.0246 11.5607 14.0246 12.9857Z" fill="#2D373D"/>
<path d="M11.3999 6.16071C10.9499 6.16071 10.6499 6.46071 10.6499 6.91071C10.6499 7.36071 10.9499 7.66071 11.3999 7.66071C14.3249 7.66071 16.7249 10.0607 16.7249 12.9857C16.7249 13.4357 17.0249 13.7357 17.4749 13.7357C17.9249 13.7357 18.2249 13.4357 18.2249 12.9857C18.2249 9.23571 15.1499 6.16071 11.3999 6.16071Z" fill="#2D373D"/>
<path d="M11.3999 3.38574C10.9499 3.38574 10.6499 3.68574 10.6499 4.13574C10.6499 4.58574 10.9499 4.88574 11.3999 4.88574C15.8999 4.88574 19.4999 8.48574 19.4999 12.9857C19.4999 13.4357 19.7999 13.7357 20.2499 13.7357C20.6999 13.7357 20.9999 13.4357 20.9999 12.9857C20.9999 7.66074 16.7249 3.38574 11.3999 3.38574Z" fill="#2D373D"/>
</svg>
