<svg width="32" height="33" viewBox="0 0 32 33" fill="none" xmlns="http://www.w3.org/2000/svg">
<path d="M22.3337 7.92318C22.3337 8.47546 22.7814 8.92318 23.3337 8.92318C23.8859 8.92318 24.3337 8.47546 24.3337 7.92318L24.3337 4.58984C24.3337 4.03756 23.8859 3.58984 23.3337 3.58984H20.0003C19.448 3.58984 19.0003 4.03756 19.0003 4.58984C19.0003 5.14213 19.448 5.58984 20.0003 5.58984L22.3337 5.58984L22.3337 7.92318Z" fill="#2D373D"/>
<path d="M14.2832 6.17338C14.2597 6.17245 14.2337 6.17754 14.2028 6.19848C13.9127 6.39463 13.5471 6.64636 13.1267 6.94005L15.2281 11.1428C15.3923 11.4711 15.3634 11.8629 15.1529 12.1635L13.1082 15.0846L13.6157 16.6072C13.7904 17.1311 13.5072 17.6974 12.9833 17.8721C12.4593 18.0467 11.893 17.7636 11.7184 17.2396L11.0517 15.2396C10.9516 14.9393 10.9996 14.6093 11.1812 14.3499L13.1729 11.5045L11.4758 8.11038C9.05268 9.85063 5.96658 12.1615 4.34528 13.6581C3.93946 14.0327 3.3068 14.0074 2.93219 13.6016C2.55759 13.1957 2.5829 12.5631 2.98872 12.1885C5.4836 9.88551 11.1041 5.87957 13.0824 4.54174C13.8747 4.00595 14.8682 4.07419 15.5929 4.61767L25.6003 12.1233C26.0422 12.4547 26.1317 13.0815 25.8003 13.5233C25.469 13.9651 24.8422 14.0547 24.4003 13.7233L14.3929 6.21767C14.3475 6.18365 14.3086 6.1744 14.2832 6.17338Z" fill="#2D373D"/>
<path d="M6.66699 13.2565C7.21928 13.2565 7.66699 13.7042 7.66699 14.2565V23.5898C7.66699 23.7739 7.81623 23.9232 8.00033 23.9232H12.0003C12.5526 23.9232 13.0003 24.3709 13.0003 24.9232C13.0003 25.4755 12.5526 25.9232 12.0003 25.9232H8.00033C6.71166 25.9232 5.66699 24.8785 5.66699 23.5898V14.2565C5.66699 13.7042 6.11471 13.2565 6.66699 13.2565Z" fill="#2D373D"/>
<path fill-rule="evenodd" clip-rule="evenodd" d="M27.9285 18.1778C27.9285 19.1396 27.4759 19.9956 26.7719 20.5445C27.2411 20.7312 27.6307 21.0387 27.928 21.4258C28.4127 22.0568 28.6263 22.8596 28.6262 23.6299L28.6261 27.8186L29.2399 29.0531C29.4448 29.4652 29.2769 29.9654 28.8647 30.1703C28.4526 30.3752 27.9525 30.2072 27.7476 29.7951L27.0466 28.3853C26.9893 28.2701 26.9595 28.1431 26.9595 28.0144V23.6296C26.9596 23.1461 26.8227 22.7228 26.6063 22.4411C26.4079 22.1829 26.123 22.0108 25.69 22.0108L22.7037 22.0107C22.0659 22.0103 21.8413 22.0101 21.6318 22.0768C21.4506 22.1344 21.2204 22.2693 20.6716 22.8181C20.0974 23.3923 19.716 23.7293 19.4667 23.9289C19.3416 24.029 19.2454 24.098 19.171 24.1464C19.1336 24.1708 19.1003 24.1908 19.0705 24.2073C19.0555 24.2156 19.041 24.2232 19.0271 24.2302L19.0065 24.2402L18.9963 24.245L18.9912 24.2472L18.9887 24.2484L18.9874 24.2489L18.9861 24.2495C18.694 24.3779 18.3542 24.3283 18.111 24.1216L16.7987 23.0061C16.7845 22.994 16.7708 22.9815 16.7575 22.9686L16.746 22.9583C16.7325 22.9464 16.7092 22.9268 16.678 22.9037C16.6125 22.8551 16.5298 22.8039 16.4445 22.7701C16.3592 22.7364 16.301 22.7316 16.2656 22.7358C16.2439 22.7383 16.1902 22.747 16.1025 22.831C15.9293 22.9967 15.9073 23.0965 15.9034 23.1188C15.899 23.1445 15.9 23.1819 15.9301 23.2458C15.9629 23.3155 16.0177 23.3874 16.0764 23.4484C16.1037 23.4767 16.1272 23.4979 16.1415 23.5101L16.1532 23.5198C16.1671 23.5304 16.1807 23.5413 16.1939 23.5527L16.1983 23.5565L16.2144 23.5703L16.2799 23.6255C16.3374 23.6737 16.4214 23.7433 16.525 23.8272C16.733 23.9955 17.0166 24.2181 17.323 24.4391C17.6325 24.6624 17.9492 24.8723 18.2259 25.0229C18.4741 25.158 18.606 25.1976 18.6425 25.2085C18.653 25.2117 18.6556 25.2124 18.6507 25.2124C18.7811 25.2124 18.9998 25.1516 19.3238 24.9597C19.6367 24.7743 19.9685 24.5154 20.3143 24.2258C20.4182 24.1387 20.5276 24.0451 20.6383 23.9504C20.8688 23.7532 21.1051 23.5511 21.3089 23.3935C21.4656 23.2722 21.6378 23.1493 21.8125 23.0538C21.9703 22.9675 22.2239 22.8502 22.5223 22.8502C22.9825 22.8502 23.3556 23.2233 23.3556 23.6835V28.0143C23.3556 28.1248 23.3336 28.2342 23.291 28.3361L22.7004 29.7469C22.5227 30.1715 22.0344 30.3716 21.6099 30.1938C21.1854 30.0161 20.9853 29.5279 21.163 29.1034L21.6889 27.8469V25.2453C21.5939 25.3266 21.493 25.4125 21.3845 25.5035C21.0252 25.8044 20.6081 26.1361 20.1732 26.3937C19.7494 26.6447 19.2213 26.8791 18.6507 26.8791C18.2091 26.8791 17.7507 26.6618 17.4292 26.4868C17.0645 26.2884 16.6836 26.0329 16.3479 25.7908C16.0091 25.5464 15.7 25.3036 15.4766 25.1228C15.3646 25.0322 15.2731 24.9563 15.2092 24.9028C15.1772 24.876 15.1521 24.8547 15.1346 24.8398L15.1235 24.8303L15.1193 24.8271C15.1029 24.8141 15.0821 24.7972 15.0579 24.7764C15.0096 24.7351 14.9461 24.6774 14.876 24.6046C14.7399 24.4632 14.5576 24.2434 14.4222 23.9557C14.284 23.6622 14.1854 23.2765 14.2608 22.837C14.3368 22.3941 14.574 21.9867 14.9503 21.6267C15.2872 21.3043 15.6725 21.1276 16.0701 21.0806C16.4541 21.0353 16.7958 21.1168 17.0574 21.2203C17.3188 21.3237 17.5299 21.4604 17.6714 21.5654C17.7438 21.6192 17.8023 21.6678 17.8447 21.705C17.8654 21.7231 17.8825 21.7388 17.8958 21.7512L18.6767 22.415C18.8704 22.2442 19.1366 21.9961 19.4932 21.6396C20.0659 21.0669 20.5366 20.6762 21.1265 20.4885C21.6018 20.3373 22.1171 20.3402 22.6557 20.3433C22.7213 20.3437 22.7873 20.344 22.8536 20.3441C22.2835 19.7982 21.9285 19.0294 21.9285 18.1778C21.9285 16.5213 23.2717 15.1784 24.9285 15.1784C26.5854 15.1784 27.9285 16.5213 27.9285 18.1778ZM26.3435 18.1778C26.3435 18.9587 25.7103 19.5922 24.9285 19.5922C24.1468 19.5922 23.5136 18.9587 23.5136 18.1778C23.5136 17.397 24.1468 16.7635 24.9285 16.7635C25.7103 16.7635 26.3435 17.397 26.3435 18.1778Z" fill="#2D373D"/>
<path d="M18.8119 16.4736C19.0563 15.53 19.3859 15.1866 19.5667 15.0614C19.7427 14.9396 19.8945 14.9438 19.9679 14.9529C20.1454 14.9751 20.3242 15.0831 20.3979 15.2263C20.451 15.3294 20.5686 15.6887 20.0995 16.4989C19.7994 17.0173 19.3122 17.9929 18.9117 18.8127C18.7087 19.2282 18.5236 19.6127 18.3893 19.8933C18.3222 20.0336 18.2676 20.148 18.2299 20.2275L18.1708 20.3519C17.9741 20.768 18.1519 21.2648 18.568 21.4615C18.984 21.6583 19.481 21.48 19.6777 21.064L19.7351 20.9431C19.7723 20.8648 19.8262 20.7517 19.8927 20.6128C20.0256 20.335 20.2087 19.9547 20.4092 19.5443C20.8156 18.7124 21.2766 17.7921 21.5419 17.334C22.171 16.2474 22.2887 15.2582 21.8798 14.4636C21.4915 13.7092 20.7463 13.3704 20.174 13.2991C19.8397 13.2574 19.235 13.2641 18.6183 13.6909C18.0063 14.1145 17.5067 14.8657 17.1985 16.0556C17.0779 16.521 16.8179 17.4595 16.5857 18.2898C16.4701 18.7032 16.3621 19.0871 16.283 19.3676L16.1539 19.8249C16.0285 20.2678 16.2859 20.7284 16.7287 20.8538C17.1715 20.9792 17.6323 20.7213 17.7577 20.2785L17.8872 19.8198C17.9665 19.5385 18.0747 19.1535 18.1907 18.7387C18.4218 17.9127 18.6865 16.9576 18.8119 16.4736Z" fill="#2D373D"/>
</svg>
