<svg width="16" height="17" viewBox="0 0 16 17" fill="none" xmlns="http://www.w3.org/2000/svg">
<path d="M8.34983 14.0622C7.04984 14.1622 5.79983 13.8122 4.74983 13.0622L5.14983 11.0622H5.34983C6.04983 11.0622 6.64983 10.4622 6.64983 9.71225C6.64983 9.61225 6.64983 9.51225 6.59983 9.41225L6.19983 7.76225C6.04983 7.16225 5.49983 6.76225 4.89983 6.76225H2.59983C2.84983 6.01225 3.19983 5.26225 3.74983 4.66225C4.74983 3.56225 6.14983 2.86225 7.64983 2.76225C9.24983 2.66225 10.6998 3.26225 11.7998 4.26225H10.6998C10.0998 4.26225 9.54983 4.66225 9.39983 5.26225L9.04983 6.91225C8.94983 7.16225 9.14983 7.46225 9.39983 7.51225C9.39983 7.51225 9.44983 7.51225 9.49984 7.51225C9.69983 7.51225 9.89983 7.36225 9.99984 7.16225L10.3998 5.51225C10.3998 5.36225 10.5498 5.26225 10.6998 5.26225H12.6998C13.1998 5.96225 13.4998 6.76225 13.5998 7.66225C13.5998 7.96225 13.8998 8.16225 14.1498 8.11225C14.4498 8.11225 14.6498 7.81225 14.5998 7.56225C14.4498 6.41225 13.9998 5.41225 13.3998 4.51225C13.3498 4.46225 13.3498 4.41225 13.2998 4.36225C11.9998 2.66225 9.84983 1.61225 7.54983 1.76225C5.79983 1.91225 4.14983 2.71225 2.99983 4.06225C2.24983 4.91225 1.74983 5.91225 1.49983 7.01225C1.44983 7.06225 1.44983 7.11225 1.44983 7.16225C0.999835 9.51225 1.74983 11.9122 3.54983 13.4622L3.59983 13.5122C3.69983 13.5622 3.74983 13.6622 3.84983 13.7122C4.99983 14.6122 6.44983 15.1622 7.99983 15.1622C8.14983 15.1622 8.24983 15.1622 8.44983 15.0622C8.69983 15.0122 8.89983 14.8122 8.89983 14.5122C8.84983 14.2622 8.64984 14.0622 8.34983 14.0622ZM4.89983 7.66225C5.04983 7.66225 5.14983 7.76225 5.19983 7.91225L5.59983 9.56225C5.59983 9.61225 5.59983 9.61225 5.59983 9.66225C5.59983 9.86225 5.49983 10.0122 5.29983 10.0122H4.69983C4.44983 10.0122 4.24983 10.1622 4.19983 10.4122L3.79983 12.2122C2.94983 11.2622 2.39983 10.0622 2.34983 8.76225C2.34983 8.41225 2.34983 8.01225 2.39983 7.66225H4.89983Z" fill="#2D373D"/>
<path d="M14.0499 8.96226C13.1999 8.11226 11.7998 8.16226 10.9998 9.01226L10.8998 9.11226L10.7998 9.01226C9.94985 8.16226 8.59985 8.16226 7.74985 8.96226C6.89985 9.81226 6.89985 11.1623 7.69985 12.0123L10.5498 15.0123C10.6498 15.1123 10.7498 15.1623 10.8998 15.1623C10.9998 15.1623 11.1498 15.1123 11.2498 15.0123L14.0999 12.0123C14.9499 11.1623 14.8999 9.76226 14.0499 8.96226ZM13.3998 11.3123L10.8998 13.9123L8.39985 11.3123C7.94985 10.8123 7.99985 10.1123 8.44985 9.66226C8.69985 9.46226 8.94985 9.36226 9.24985 9.36226C9.54985 9.36226 9.84985 9.46226 10.1498 9.76226L10.5998 10.2623C10.7498 10.4623 11.0998 10.4623 11.2998 10.2623L11.7498 9.76226C11.9498 9.56226 12.2498 9.41226 12.5498 9.41226C12.8498 9.41226 13.1499 9.51226 13.3499 9.71226C13.5499 9.91226 13.6999 10.2123 13.6999 10.5123C13.7498 10.8123 13.5998 11.1123 13.3998 11.3123Z" fill="#2D373D"/>
</svg>
