<svg width="32" height="32" viewBox="0 0 32 32" fill="none" xmlns="http://www.w3.org/2000/svg">
<path d="M26.9999 3.8999H4.8999C4.2999 3.8999 3.8999 4.2999 3.8999 4.8999V26.9999C3.8999 27.5999 4.2999 27.9999 4.8999 27.9999H26.9999C27.5999 27.9999 27.9999 27.5999 27.9999 26.9999V4.8999C27.9999 4.2999 27.5999 3.8999 26.9999 3.8999ZM25.9999 25.9999H5.8999V5.8999H25.9999V25.9999Z" fill="#2D373D"/>
<path d="M13.3 20.5998C13.5 20.6998 13.7 20.6998 13.9 20.6998C14.1 20.6998 14.4 20.5998 14.6 20.4998L20.3 17.5998C20.6 17.3998 20.9 17.0998 21.1 16.7998C21.3 16.3998 21.4 15.8998 21.2 15.3998C21.1 14.8998 20.7 14.4998 20.3 14.2998L14.6 11.4998C14.4 11.3998 14.1 11.2998 13.8 11.2998C12.8 11.2998 12 12.0998 12 13.0998V18.8998C12 19.1998 12.1 19.3998 12.2 19.6998C12.5 20.0998 12.8 20.3998 13.3 20.5998ZM14 13.3998L19.2 15.9998L14 18.5998V13.3998Z" fill="#2D373D"/>
</svg>
