<svg width="32" height="33" viewBox="0 0 32 33" fill="none" xmlns="http://www.w3.org/2000/svg">
<path fill-rule="evenodd" clip-rule="evenodd" d="M11.666 24.5859C13.3229 24.5859 14.666 23.2428 14.666 21.5859C14.666 19.9291 13.3229 18.5859 11.666 18.5859C10.0092 18.5859 8.66602 19.9291 8.66602 21.5859C8.66602 23.2428 10.0092 24.5859 11.666 24.5859ZM11.666 22.5859C12.2183 22.5859 12.666 22.1382 12.666 21.5859C12.666 21.0337 12.2183 20.5859 11.666 20.5859C11.1137 20.5859 10.666 21.0337 10.666 21.5859C10.666 22.1382 11.1137 22.5859 11.666 22.5859Z" fill="#2D373D"/>
<path fill-rule="evenodd" clip-rule="evenodd" d="M20.3327 24.5859C21.9895 24.5859 23.3327 23.2428 23.3327 21.5859C23.3327 19.9291 21.9895 18.5859 20.3327 18.5859C18.6758 18.5859 17.3327 19.9291 17.3327 21.5859C17.3327 23.2428 18.6758 24.5859 20.3327 24.5859ZM20.3327 22.5859C20.885 22.5859 21.3327 22.1382 21.3327 21.5859C21.3327 21.0337 20.885 20.5859 20.3327 20.5859C19.7804 20.5859 19.3327 21.0337 19.3327 21.5859C19.3327 22.1382 19.7804 22.5859 20.3327 22.5859Z" fill="#2D373D"/>
<path fill-rule="evenodd" clip-rule="evenodd" d="M16.9993 11.4599C18.7246 11.0159 19.9993 9.44978 19.9993 7.58594C19.9993 5.3768 18.2085 3.58594 15.9993 3.58594C13.7902 3.58594 11.9993 5.3768 11.9993 7.58594C11.9993 9.44978 13.2741 11.0159 14.9993 11.4599V12.9193H7.99935C6.52659 12.9193 5.33268 14.1132 5.33268 15.5859L5.33268 27.5808C5.33268 29.0533 6.52614 30.247 7.99861 30.2474L23.9986 30.2519C25.4717 30.2523 26.666 29.0582 26.666 27.5852V15.5859C26.666 14.1132 25.4721 12.9193 23.9993 12.9193H16.9993V11.4599ZM17.9993 7.58594C17.9993 8.69051 17.1039 9.58594 15.9993 9.58594C14.8948 9.58594 13.9993 8.69051 13.9993 7.58594C13.9993 6.48137 14.8948 5.58594 15.9993 5.58594C17.1039 5.58594 17.9993 6.48137 17.9993 7.58594ZM24.666 27.5852V15.5859C24.666 15.2177 24.3675 14.9193 23.9993 14.9193L7.99935 14.9193C7.63116 14.9193 7.33268 15.2177 7.33268 15.5859L7.33268 27.5808C7.33268 27.9489 7.63105 28.2473 7.99916 28.2474L23.9992 28.2519C24.3674 28.252 24.666 27.9535 24.666 27.5852Z" fill="#2D373D"/>
<path d="M4.66602 19.2526C4.66602 18.7003 4.2183 18.2526 3.66602 18.2526C3.11373 18.2526 2.66602 18.7003 2.66602 19.2526V24.5859C2.66602 25.1382 3.11373 25.5859 3.66602 25.5859C4.2183 25.5859 4.66602 25.1382 4.66602 24.5859L4.66602 19.2526Z" fill="#2D373D"/>
<path d="M28.3327 18.2526C28.885 18.2526 29.3327 18.7003 29.3327 19.2526V24.5859C29.3327 25.1382 28.885 25.5859 28.3327 25.5859C27.7804 25.5859 27.3327 25.1382 27.3327 24.5859V19.2526C27.3327 18.7003 27.7804 18.2526 28.3327 18.2526Z" fill="#2D373D"/>
</svg>
