<svg width="32" height="33" viewBox="0 0 32 33" fill="none" xmlns="http://www.w3.org/2000/svg">
<path d="M21.8401 17.7714C20.541 17.7715 19.2929 18.2771 18.3601 19.1814C18.2323 19.3215 18.1121 19.4684 18.0001 19.6214L12.4501 16.9014C12.5602 16.5071 12.6207 16.1006 12.6301 15.6914C12.6238 15.433 12.5971 15.1756 12.5501 14.9214L17.7201 12.9214C17.9049 13.2066 18.1195 13.4714 18.3601 13.7114C19.2948 14.6275 20.5514 15.1407 21.8601 15.1407C23.1689 15.1407 24.4255 14.6275 25.3601 13.7114C25.8195 13.265 26.1846 12.731 26.4339 12.141C26.6833 11.5509 26.8117 10.9169 26.8117 10.2764C26.8117 9.63587 26.6833 9.00184 26.4339 8.41183C26.1846 7.82182 25.8195 7.28781 25.3601 6.8414C24.4255 5.92526 23.1689 5.41211 21.8601 5.41211C20.5514 5.41211 19.2948 5.92526 18.3601 6.8414C17.9032 7.29058 17.5398 7.82585 17.2909 8.4163C17.042 9.00674 16.9126 9.64065 16.9101 10.2814C16.9164 10.5398 16.9432 10.7972 16.9901 11.0514L11.8201 13.0514C11.6353 12.7662 11.4208 12.5014 11.1801 12.2614C10.2455 11.3453 8.98888 10.8321 7.68012 10.8321C6.37136 10.8321 5.11477 11.3453 4.18012 12.2614C3.72079 12.7078 3.35565 13.2418 3.10632 13.8318C2.85698 14.4218 2.72852 15.0559 2.72852 15.6964C2.72852 16.3369 2.85698 16.9709 3.10632 17.561C3.35565 18.151 3.72079 18.685 4.18012 19.1314C5.11477 20.0475 6.37136 20.5607 7.68012 20.5607C8.98888 20.5607 10.2455 20.0475 11.1801 19.1314C11.3101 18.9914 11.4201 18.8314 11.5401 18.6914L17.0701 21.4014C16.9608 21.7958 16.9004 22.2022 16.8901 22.6114C16.8926 23.2521 17.022 23.8861 17.2709 24.4765C17.5198 25.0669 17.8832 25.6022 18.3401 26.0514C19.2748 26.9675 20.5314 27.4807 21.8401 27.4807C23.1489 27.4807 24.4055 26.9675 25.3401 26.0514C25.7995 25.605 26.1646 25.071 26.4139 24.481C26.6633 23.8909 26.7917 23.2569 26.7917 22.6164C26.7917 21.9759 26.6633 21.3418 26.4139 20.7518C26.1646 20.1618 25.7995 19.6278 25.3401 19.1814C24.4024 18.2723 23.1462 17.7662 21.8401 17.7714ZM19.7601 8.3014C20.319 7.76364 21.0645 7.46325 21.8401 7.46325C22.6157 7.46325 23.3612 7.76364 23.9201 8.3014C24.1874 8.56139 24.3999 8.87234 24.545 9.21586C24.6901 9.55938 24.7648 9.92849 24.7648 10.3014C24.7648 10.6743 24.6901 11.0434 24.545 11.3869C24.3999 11.7304 24.1874 12.0414 23.9201 12.3014C23.3501 12.8172 22.6088 13.1028 21.8401 13.1028C21.0714 13.1028 20.3301 12.8172 19.7601 12.3014C19.4928 12.0414 19.2803 11.7304 19.1352 11.3869C18.9902 11.0434 18.9154 10.6743 18.9154 10.3014C18.9154 9.92849 18.9902 9.55938 19.1352 9.21586C19.2803 8.87234 19.4928 8.56139 19.7601 8.3014ZM5.62012 17.7014C5.35185 17.4418 5.1384 17.1311 4.99239 16.7876C4.84639 16.444 4.77081 16.0747 4.77012 15.7014C4.76851 15.3278 4.84304 14.9577 4.98919 14.6139C5.13533 14.27 5.35001 13.9595 5.62012 13.7014C6.17904 13.1636 6.92451 12.8632 7.70012 12.8632C8.47573 12.8632 9.2212 13.1636 9.78012 13.7014C10.0502 13.9595 10.2649 14.27 10.4111 14.6139C10.5572 14.9577 10.6317 15.3278 10.6301 15.7014C10.6294 16.0747 10.5539 16.444 10.4078 16.7876C10.2618 17.1311 10.0484 17.4418 9.78012 17.7014C9.21013 18.2172 8.46884 18.5028 7.70012 18.5028C6.93141 18.5028 6.19011 18.2172 5.62012 17.7014ZM23.9201 24.6214C23.3522 25.1414 22.6101 25.4298 21.8401 25.4298C21.0701 25.4298 20.328 25.1414 19.7601 24.6214C19.4928 24.3614 19.2803 24.0504 19.1352 23.7069C18.9902 23.3634 18.9154 22.9943 18.9154 22.6214C18.9154 22.2485 18.9902 21.8794 19.1352 21.5359C19.2803 21.1923 19.4928 20.8814 19.7601 20.6214C20.319 20.0836 21.0645 19.7832 21.8401 19.7832C22.6157 19.7832 23.3612 20.0836 23.9201 20.6214C24.1874 20.8814 24.3999 21.1923 24.545 21.5359C24.6901 21.8794 24.7648 22.2485 24.7648 22.6214C24.7648 22.9943 24.6901 23.3634 24.545 23.7069C24.3999 24.0504 24.1874 24.3614 23.9201 24.6214Z" fill="#2D373D"/>
</svg>
