<svg width="24" height="25" viewBox="0 0 24 25" fill="none" xmlns="http://www.w3.org/2000/svg">
<path d="M14.3943 6.73834C13.8151 6.16209 13.9132 5.29599 14.4427 4.77432C14.6908 4.52987 15.0024 4.40228 15.3376 4.4295C15.6731 4.45676 16.1452 4.64945 16.6792 5.26709C16.8198 5.42973 17.0235 5.5242 17.2385 5.52652C17.4535 5.52884 17.6591 5.43878 17.8032 5.27921C18.3498 4.67393 18.8288 4.48638 19.1707 4.46296C19.5124 4.43957 19.8248 4.57153 20.0699 4.81528C20.5917 5.33431 20.6751 6.17485 20.1143 6.72323L16.7422 9.78768C16.4356 10.0663 16.4129 10.5406 16.6915 10.8471C16.9701 11.1537 17.4444 11.1763 17.751 10.8978L21.1321 7.8251C21.1376 7.82015 21.1429 7.81511 21.1482 7.81C22.4451 6.55972 22.1192 4.7379 21.1276 3.75173C20.6149 3.24179 19.8926 2.91003 19.0683 2.96647C18.4508 3.00874 17.8365 3.26409 17.2576 3.73252C16.6877 3.25151 16.0775 2.98466 15.459 2.93443C14.6337 2.86739 13.9069 3.19643 13.3899 3.70581C12.3892 4.69182 12.0502 6.52223 13.3365 7.80177C13.6301 8.0939 14.105 8.09265 14.3971 7.79899C14.6893 7.50533 14.688 7.03046 14.3943 6.73834Z" fill="#2D373D"/>
<path d="M7.21924 8.58984L6.89305 7.37271L4.83793 7.92328L5.16417 9.1406L3.71527 9.52877L3.5846 9.04118L3.14425 9.15915L2.94869 8.42941L2.94435 8.43057C2.54425 8.53776 2.13297 8.30031 2.02575 7.90022C1.91853 7.50012 2.15595 7.08889 2.55606 6.9817L2.56039 6.98054L2.365 6.25144L2.80534 6.13348L2.67469 5.64598L4.1236 5.25781L4.44964 6.47441L6.50476 5.92384L6.17866 4.70705L7.62757 4.31889L7.75905 4.8095L8.19608 4.69241L8.39069 5.4186L8.39852 5.4165C8.79862 5.30931 9.20989 5.54676 9.31712 5.94685C9.42434 6.34695 9.18692 6.75818 8.78681 6.86537L8.77899 6.86747L8.97533 7.60012L8.5383 7.7172L8.66814 8.20168L7.21924 8.58984Z" fill="#2D373D"/>
<path fill-rule="evenodd" clip-rule="evenodd" d="M9.11245 10.6959C8.70317 10.0531 8.0019 9.53906 7.06036 9.53906C5.82363 9.53906 4.55144 10.5923 4.7737 12.1173C4.92619 13.1636 5.29926 14.1728 5.87223 15.0698C6.45899 15.9978 7.23917 16.7831 8.15511 17.3745V20.5469H2.75018C2.33597 20.5469 2.00018 20.8827 2.00018 21.2969C2.00018 21.7111 2.33597 22.0469 2.75018 22.0469H8.15511V22.0531H15.6017C16.0228 22.5527 16.6454 22.918 17.4393 22.918C18.1252 22.918 18.8209 22.5945 19.2675 22.0469H21.2471C21.6613 22.0469 21.9971 21.7111 21.9971 21.2969C21.9971 20.8827 21.6613 20.5469 21.2471 20.5469H19.748C19.744 20.4797 19.7371 20.4114 19.7272 20.3422C19.496 18.7365 18.752 17.2372 17.5914 16.0765C16.7118 15.197 15.6378 14.5567 14.4703 14.1975C14.8262 13.7827 15.0729 13.2845 15.1847 12.7397C15.3139 12.1096 15.2504 11.4601 15.0075 10.8733C14.7591 10.2645 14.3344 9.76524 13.8121 9.41709C13.2899 9.0689 12.6734 8.87109 12.02 8.87109C11.1734 8.87109 10.3478 9.20408 9.73978 9.82069C9.47849 10.0783 9.26812 10.3751 9.11245 10.6959ZM12.02 10.3711C11.5616 10.3711 11.1205 10.5527 10.8005 10.8814C10.4718 11.2014 10.2902 11.6425 10.2902 12.1009C10.2902 12.4469 10.394 12.7756 10.5843 13.061C10.7745 13.3464 11.0427 13.5713 11.354 13.701C11.6708 13.8309 12.0189 13.864 12.3544 13.7963C12.69 13.7286 12.998 13.563 13.2396 13.3205C13.4817 13.0783 13.6461 12.7756 13.7153 12.4382C13.7845 12.1009 13.7499 11.755 13.6201 11.4436C13.4904 11.1236 13.2655 10.8554 12.9801 10.6652C12.6947 10.4749 12.366 10.3711 12.02 10.3711ZM6.25802 11.901C6.38028 12.7399 6.67968 13.5483 7.13821 14.2652C7.7489 15.2324 8.62173 16.0062 9.65511 16.4967V20.5531H14.8446V17.9584C15.3808 18.3649 15.8133 18.8838 16.116 19.4806C16.205 19.6586 16.2812 19.841 16.3446 20.027C16.404 20.2014 16.452 20.3789 16.4885 20.5589C16.5834 21.027 16.9616 21.418 17.4393 21.418C17.917 21.418 18.3105 21.0288 18.2425 20.556C18.0572 19.269 17.4609 18.0674 16.5307 17.1372C15.9334 16.5399 15.2242 16.0803 14.4523 15.7787C14.0949 15.6391 13.724 15.5334 13.3446 15.4635C12.9859 15.3976 12.6196 15.3637 12.2499 15.3636C11.0995 15.3636 10.0011 14.9052 9.18805 14.1009C8.58715 13.4935 8.17932 12.7268 8.01145 11.8983C7.9166 11.4301 7.53804 11.0391 7.06036 11.0391C6.58269 11.0391 6.18913 11.4283 6.25802 11.901Z" fill="#2D373D"/>
</svg>
