<svg width="24" height="25" viewBox="0 0 24 25" fill="none" xmlns="http://www.w3.org/2000/svg">
<path fill-rule="evenodd" clip-rule="evenodd" d="M10.2495 6.70067V3.67188C10.2495 3.25766 9.91375 2.92188 9.49953 2.92188C9.08532 2.92188 8.74953 3.25766 8.74953 3.67188V6.70067H7.99964C7.03434 6.70067 6.24964 7.48176 6.24964 8.44946L6.24963 13.0365C6.24964 14.205 6.49494 15.4803 7.37594 16.4848L2.21918 21.6415C1.92629 21.9344 1.92629 22.4093 2.21918 22.7022C2.51207 22.9951 2.98695 22.9951 3.27984 22.7022L8.55894 17.4231C8.6069 17.4493 8.65565 17.4749 8.7052 17.4998V18.6719C8.7052 19.6384 9.4887 20.4219 10.4552 20.4219H11.2877V22.1719C11.2877 22.5861 11.6235 22.9219 12.0377 22.9219C12.4519 22.9219 12.7877 22.5861 12.7877 22.1719V20.4219H13.6525C14.619 20.4219 15.4025 19.6384 15.4025 18.6719V17.4175C17.0643 16.4737 17.9968 14.7935 17.9968 13.036L17.9968 10.7425C17.9968 10.3283 17.661 9.9925 17.2468 9.9925C16.8326 9.9925 16.4968 10.3283 16.4968 10.7425L16.4968 13.036C16.4968 14.8362 15.0573 16.7002 12.247 16.7002C11.1307 16.7002 10.3021 16.5427 9.68533 16.2967L21.7798 4.20221C22.0727 3.90931 22.0727 3.43444 21.7798 3.14154C21.4869 2.84865 21.0121 2.84865 20.7192 3.14154L8.4403 15.4204C7.94269 14.8057 7.74964 13.9825 7.74963 13.0365L7.74964 8.44945C7.74964 8.31257 7.86037 8.20067 7.99964 8.20067H14.4993C14.9135 8.20067 15.2493 7.86488 15.2493 7.45067V3.67188C15.2493 3.25766 14.9135 2.92188 14.4993 2.92188C14.0851 2.92188 13.7493 3.25766 13.7493 3.67188V6.70067H10.2495ZM13.9025 18.0078C13.3919 18.1326 12.839 18.2002 12.247 18.2002C11.4878 18.2002 10.8089 18.1347 10.2052 18.0087V18.6719C10.2052 18.8099 10.3171 18.9219 10.4552 18.9219H13.6525C13.7906 18.9219 13.9025 18.8099 13.9025 18.6719V18.0078Z" fill="#2D373D"/>
</svg>
