<svg width="16" height="17" viewBox="0 0 16 17" fill="none" xmlns="http://www.w3.org/2000/svg">
<path fill-rule="evenodd" clip-rule="evenodd" d="M8.7727 14.9219C9.04957 14.9219 9.27402 14.698 9.27402 14.4219V14.298H9.36343L9.36537 14.298C10.3285 14.2943 11.2553 13.9325 11.9839 13.2829C12.6067 12.7277 13.0506 11.993 13.267 11.1788H13.4987C13.7756 11.1788 14 10.9549 14 10.6788L14 9.0121C14 8.73596 13.7756 8.5121 13.4987 8.5121H10.5449C10.2681 8.5121 10.0436 8.73596 10.0436 9.0121V10.6788C10.0436 10.8338 10.1143 10.9723 10.2253 11.064C10.1819 11.1072 10.1357 11.1472 10.087 11.1835C9.87259 11.3435 9.62005 11.4269 9.36426 11.4265H9.27402V11.3026C9.27402 11.0265 9.04957 10.8026 8.7727 10.8026H7.10164C6.82477 10.8026 6.60032 11.0265 6.60032 11.3026L6.60032 14.4219C6.60032 14.698 6.82477 14.9219 7.10164 14.9219H8.7727ZM8.27136 11.9265L8.27138 11.9214V11.8026H7.60296L7.60296 13.9219H8.27138V13.8031L8.27136 13.798L8.27136 11.9265ZM9.36241 13.298H9.27402V12.4265H9.36301C9.84045 12.4272 10.3034 12.271 10.6878 11.9841C10.9729 11.7713 11.2038 11.4948 11.3665 11.1788H12.2189C12.0336 11.7058 11.7228 12.1744 11.3157 12.5373C10.7651 13.0282 10.0734 13.2951 9.36241 13.298ZM12.9974 10.1788H12.865L12.8622 10.1788H11.0463L11.0463 9.5121H12.9974L12.9974 10.1788Z" fill="#2D373D"/>
<path fill-rule="evenodd" clip-rule="evenodd" d="M5.82099 2.92188C5.15177 2.92187 4.50996 3.18702 4.03674 3.65899C3.72503 3.96988 3.50329 4.35375 3.38825 4.77032H3.24318C2.96631 4.77032 2.74186 4.99418 2.74186 5.27032C2.74186 5.54647 2.96631 5.77032 3.24318 5.77032H3.3197C3.39236 6.31532 3.64264 6.82502 4.03675 7.21809C4.31113 7.49176 4.6422 7.69588 5.00243 7.81911C4.77886 7.86864 4.55919 7.93828 4.34617 8.02773C3.65023 8.31997 3.05632 8.81067 2.63893 9.43828C2.22154 10.0659 1.99927 10.8024 2 11.5556C2.00027 11.8317 2.22493 12.0553 2.5018 12.0551C2.77867 12.0548 3.00291 11.8307 3.00264 11.5546C3.0021 10.9984 3.16624 10.4545 3.47447 9.99103C3.78271 9.52756 4.2213 9.16518 4.73523 8.94937C5.24917 8.73356 5.81555 8.67392 6.36334 8.77793C6.91113 8.88194 7.41593 9.14498 7.81441 9.53403C8.01226 9.72721 8.32966 9.72384 8.52334 9.52651C8.71702 9.32918 8.71364 9.01261 8.51579 8.81944C8.00022 8.31606 7.35321 7.96847 6.64956 7.81566C7.00592 7.6921 7.3334 7.48922 7.60524 7.21809C7.99935 6.82502 8.24962 6.31532 8.32228 5.77032H8.43251C8.70938 5.77032 8.93383 5.54647 8.93383 5.27032C8.93383 4.99418 8.70938 4.77032 8.43251 4.77032H8.25373C8.13869 4.35375 7.91695 3.96988 7.60524 3.65899C7.13203 3.18702 6.49021 2.92188 5.82099 2.92188ZM7.18611 4.77032C7.11312 4.62197 7.01564 4.48516 6.89627 4.3661C6.84531 4.31528 6.79111 4.26843 6.73416 4.22577L6.74205 4.77032H7.18611ZM6.07355 4.77032L6.06154 3.94096C5.98248 3.92833 5.90207 3.92188 5.82099 3.92188C5.75191 3.92188 5.68332 3.92656 5.61563 3.93576L5.61563 4.77032L6.07355 4.77032ZM4.94721 4.77032L4.45587 4.77032C4.52886 4.62197 4.62634 4.48516 4.74572 4.3661C4.80829 4.30369 4.87575 4.24728 4.94721 4.19725L4.94721 4.77032ZM4.33715 5.77032L7.30483 5.77032C7.24227 6.04865 7.10169 6.30611 6.89627 6.51099C6.61109 6.79542 6.2243 6.95521 5.82099 6.95521C5.41769 6.95521 5.0309 6.79542 4.74572 6.51099C4.5403 6.30611 4.39972 6.04865 4.33715 5.77032Z" fill="#2D373D"/>
</svg>
