<svg width="24" height="25" viewBox="0 0 24 25" fill="none" xmlns="http://www.w3.org/2000/svg">
<path d="M20.1525 4.32313C19.8865 4.05151 19.5691 3.83541 19.219 3.68735C18.8688 3.5393 18.4927 3.46223 18.1125 3.46063V3.46063C17.5832 3.45901 17.0639 3.60442 16.6125 3.88063C16.4815 3.79637 16.3435 3.72359 16.2 3.66313C15.8436 3.51419 15.4612 3.4375 15.075 3.4375C14.6888 3.4375 14.3064 3.51419 13.95 3.66313C13.5985 3.81247 13.278 4.02613 13.005 4.29313L10.755 6.54313C10.6138 6.68435 10.5344 6.8759 10.5344 7.07563C10.5344 7.27535 10.6138 7.4669 10.755 7.60813C10.8962 7.74935 11.0878 7.8287 11.2875 7.8287C11.4872 7.8287 11.6788 7.74935 11.82 7.60813L14.07 5.35813C14.1987 5.22748 14.3515 5.12305 14.52 5.05063C14.7891 4.93379 15.0875 4.90238 15.375 4.96063L13.4025 6.96313L6.54749 13.8106C6.37766 13.9796 6.24313 14.1807 6.15172 14.4022C6.0603 14.6236 6.01382 14.861 6.01499 15.1006C6.01671 15.2422 6.03432 15.383 6.06749 15.5206C5.65955 15.6297 5.28887 15.8474 4.99499 16.1506C4.24499 16.9006 3.58499 19.3981 3.39749 20.1556C3.36967 20.2679 3.36821 20.3851 3.39323 20.4981C3.41824 20.6111 3.46905 20.7167 3.54168 20.8068C3.61431 20.8968 3.70679 20.9689 3.81188 21.0172C3.91698 21.0656 4.03184 21.089 4.14749 21.0856C4.20472 21.0934 4.26275 21.0934 4.31999 21.0856C5.06999 20.9056 7.61249 20.2531 8.34749 19.5181C8.65453 19.2171 8.87476 18.8388 8.98499 18.4231C9.11533 18.4533 9.2487 18.4684 9.38249 18.4681C9.62394 18.4684 9.86322 18.4226 10.0875 18.3331C10.3064 18.2398 10.5051 18.1048 10.6725 17.9356L20.1675 8.41063C20.7083 7.86615 21.0128 7.13053 21.015 6.36313C21.013 5.983 20.9357 5.60703 20.7877 5.2569C20.6397 4.90677 20.4238 4.58941 20.1525 4.32313ZM7.27499 18.4606C6.62962 18.84 5.93224 19.123 5.20499 19.3006C5.38159 18.573 5.67002 17.8773 6.05999 17.2381C6.13974 17.1504 6.23702 17.0803 6.34554 17.0325C6.45406 16.9847 6.57141 16.9602 6.68999 16.9606V16.9606C6.91439 16.9597 7.13106 17.0426 7.29749 17.1931C7.45546 17.364 7.53909 17.5906 7.52999 17.8231C7.53209 17.941 7.51062 18.0581 7.46683 18.1676C7.42304 18.2771 7.35782 18.3767 7.27499 18.4606V18.4606ZM9.59249 16.8856C9.56234 16.9149 9.52664 16.9379 9.48749 16.9531C9.44889 16.9717 9.40659 16.9814 9.36374 16.9814C9.32089 16.9814 9.27859 16.9717 9.23999 16.9531C9.19994 16.9397 9.16386 16.9165 9.13499 16.8856L8.38499 16.1356L7.63499 15.3856C7.60284 15.3563 7.57747 15.3203 7.56063 15.2801C7.54379 15.24 7.5359 15.1966 7.53749 15.1531C7.53649 15.1108 7.54469 15.0688 7.56152 15.0299C7.57836 14.9911 7.60342 14.9563 7.63499 14.9281L13.95 8.61313L15.93 10.5931L9.59249 16.8856ZM19.1025 7.35313L16.9725 9.46063L15.015 7.50313L17.115 5.37313C17.3759 5.11241 17.7286 4.96432 18.0975 4.96063V4.96063C18.28 4.95943 18.4608 4.99464 18.6295 5.06418C18.7982 5.13372 18.9514 5.2362 19.08 5.36563C19.3397 5.62819 19.4853 5.98258 19.4853 6.35188C19.4853 6.72117 19.3397 7.07556 19.08 7.33813L19.1025 7.35313Z" fill="#2D373D"/>
</svg>
