<svg width="16" height="17" viewBox="0 0 16 17" fill="none" xmlns="http://www.w3.org/2000/svg">
<path d="M5.86015 10.2699C5.77245 10.1243 5.65691 9.99746 5.52015 9.89657C5.3844 9.79943 5.23008 9.73134 5.06682 9.69657C4.90442 9.6599 4.73588 9.6599 4.57348 9.69657V8.8899C4.57428 8.72001 4.54106 8.55168 4.4758 8.39482C4.41054 8.23797 4.31455 8.09576 4.19348 7.97657C3.94656 7.74599 3.62132 7.61775 3.28348 7.61775C2.94565 7.61775 2.6204 7.74599 2.37348 7.97657C2.13194 8.21996 1.99347 8.54706 1.98682 8.8899V11.6166C1.99603 12.2733 2.2315 12.9067 2.65348 13.4099L3.70015 14.7432C3.74673 14.8032 3.80635 14.8518 3.8745 14.8853C3.94266 14.9188 4.01754 14.9363 4.09348 14.9366C4.20481 14.9366 4.31289 14.899 4.40015 14.8299C4.50419 14.7484 4.57171 14.629 4.58795 14.4978C4.60419 14.3666 4.56783 14.2343 4.48682 14.1299L3.43348 12.7966C3.16655 12.4637 3.02079 12.0499 3.02015 11.6232V8.8899C3.02015 8.81387 3.05035 8.74096 3.10411 8.6872C3.15787 8.63344 3.23079 8.60323 3.30682 8.60323C3.38285 8.60323 3.45576 8.63344 3.50952 8.6872C3.56328 8.74096 3.59348 8.81387 3.59348 8.8899V10.8032C3.56852 11.0518 3.61721 11.3022 3.73348 11.5232L4.44682 12.7099C4.51559 12.8176 4.623 12.8949 4.74698 12.9259C4.87096 12.9569 5.00211 12.9392 5.11348 12.8766C5.22362 12.81 5.30338 12.703 5.33577 12.5785C5.36815 12.4539 5.35058 12.3217 5.28682 12.2099L4.62015 11.0566C4.60032 11.0005 4.60032 10.9393 4.62015 10.8832C4.6146 10.8213 4.62612 10.7591 4.65348 10.7032L4.74015 10.6699H4.83348C4.86715 10.6762 4.89902 10.6899 4.92682 10.7099C4.95912 10.7339 4.98443 10.7662 5.00015 10.8032L5.60015 11.7099C5.80611 12.0175 5.91525 12.3797 5.91348 12.7499V14.4032C5.91348 14.5358 5.96616 14.663 6.05993 14.7568C6.1537 14.8506 6.28088 14.9032 6.41348 14.9032C6.54609 14.9032 6.67327 14.8506 6.76704 14.7568C6.8608 14.663 6.91348 14.5358 6.91348 14.4032V12.7499C6.91455 12.183 6.74751 11.6285 6.43348 11.1566L5.86015 10.2699Z" fill="#2D373D"/>
<path d="M13.6268 7.9499C13.3799 7.71933 13.0547 7.59108 12.7168 7.59108C12.379 7.59108 12.0537 7.71933 11.8068 7.9499C11.6825 8.07221 11.5846 8.21875 11.5192 8.38045C11.4539 8.54214 11.4224 8.71555 11.4268 8.8899V9.6899C11.2644 9.65323 11.0959 9.65323 10.9335 9.6899C10.7672 9.72523 10.6103 9.7957 10.4735 9.89657C10.3414 9.98783 10.2301 10.106 10.1468 10.2432L9.55348 11.1499C9.23873 11.6215 9.07162 12.1762 9.07348 12.7432V14.3966C9.07348 14.5292 9.12616 14.6564 9.21993 14.7501C9.3137 14.8439 9.44088 14.8966 9.57348 14.8966C9.70609 14.8966 9.83327 14.8439 9.92704 14.7501C10.0208 14.6564 10.0735 14.5292 10.0735 14.3966V12.7432C10.0726 12.3753 10.1818 12.0154 10.3868 11.7099L10.9935 10.7832C11.0104 10.7544 11.0331 10.7294 11.0602 10.7099C11.0862 10.6912 11.1157 10.6776 11.1468 10.6699H11.2468C11.2899 10.6809 11.3296 10.7026 11.3622 10.7328C11.3948 10.7631 11.4193 10.8011 11.4335 10.8432C11.4442 10.887 11.4442 10.9328 11.4335 10.9766L10.7135 12.1699C10.6497 12.2817 10.6322 12.4139 10.6645 12.5385C10.6969 12.663 10.7767 12.77 10.8868 12.8366C10.9982 12.8992 11.1293 12.9169 11.2533 12.8859C11.3773 12.8549 11.4847 12.7776 11.5535 12.6699L12.2868 11.4499C12.3886 11.2433 12.4302 11.0123 12.4068 10.7832V8.8899C12.4068 8.81387 12.437 8.74096 12.4908 8.6872C12.5445 8.63344 12.6175 8.60323 12.6935 8.60323C12.7695 8.60323 12.8424 8.63344 12.8962 8.6872C12.9499 8.74096 12.9801 8.81387 12.9801 8.8899V11.6166C12.9795 12.0433 12.8338 12.457 12.5668 12.7899L11.5135 14.1232C11.4325 14.2277 11.3961 14.3599 11.4124 14.4911C11.4286 14.6223 11.4961 14.7417 11.6002 14.8232C11.6874 14.8924 11.7955 14.93 11.9068 14.9299C11.9828 14.9297 12.0576 14.9121 12.1258 14.8786C12.1939 14.8451 12.2536 14.7965 12.3001 14.7366L13.3468 13.4032C13.7559 12.8924 13.9792 12.2577 13.9801 11.6032V8.8899C13.9894 8.54249 13.8626 8.20521 13.6268 7.9499Z" fill="#2D373D"/>
<path d="M9.88682 8.7899C9.90313 8.85778 9.93348 8.92149 9.97591 8.97693C10.0183 9.03237 10.0719 9.07831 10.1332 9.11179C10.1944 9.14528 10.262 9.16556 10.3316 9.17134C10.4011 9.17712 10.4712 9.16827 10.5371 9.14535C10.603 9.12243 10.6635 9.08596 10.7145 9.03828C10.7654 8.9906 10.8059 8.93278 10.8332 8.86852C10.8605 8.80426 10.874 8.73501 10.8729 8.6652C10.8718 8.5954 10.8561 8.5266 10.8268 8.46323C10.6201 7.90998 10.2355 7.441 9.73348 7.1299C9.50359 6.9633 9.24953 6.8329 8.98015 6.74323C9.14697 6.65203 9.30154 6.54003 9.44015 6.4099C9.82041 6.02441 10.0336 5.50471 10.0336 4.96323C10.0336 4.42176 9.82041 3.90205 9.44015 3.51657C9.05284 3.14498 8.53688 2.9375 8.00015 2.9375C7.46342 2.9375 6.94746 3.14498 6.56015 3.51657C6.17989 3.90205 5.9667 4.42176 5.9667 4.96323C5.9667 5.50471 6.17989 6.02441 6.56015 6.4099C6.69876 6.54003 6.85333 6.65203 7.02015 6.74323C6.75195 6.83569 6.49829 6.96589 6.26682 7.1299C5.75549 7.48699 5.37226 7.99875 5.17348 8.5899C5.14711 8.65356 5.13418 8.72198 5.1355 8.79087C5.13682 8.85976 5.15237 8.92764 5.18116 8.99024C5.20996 9.05283 5.25138 9.10881 5.30283 9.15464C5.35428 9.20047 5.41465 9.23517 5.48015 9.25657C5.53329 9.26299 5.58701 9.26299 5.64015 9.25657C5.74805 9.25472 5.85245 9.218 5.93777 9.15192C6.02308 9.08583 6.08472 8.99391 6.11348 8.8899C6.21577 8.59793 6.38439 8.33367 6.60609 8.11789C6.82779 7.90212 7.09652 7.74072 7.39116 7.64638C7.68579 7.55205 7.9983 7.52735 8.30409 7.57423C8.60989 7.62111 8.90064 7.7383 9.15348 7.91657C9.49264 8.11283 9.75217 8.4219 9.88682 8.7899ZM7.26682 4.22323C7.36287 4.12648 7.47711 4.04969 7.60297 3.99729C7.72883 3.94489 7.86382 3.91791 8.00015 3.91791C8.13648 3.91791 8.27147 3.94489 8.39733 3.99729C8.52319 4.04969 8.63743 4.12648 8.73348 4.22323C8.92734 4.42057 9.0352 4.68662 9.03348 4.96323C9.03348 5.09893 9.00676 5.2333 8.95483 5.35867C8.9029 5.48404 8.82678 5.59796 8.73083 5.69391C8.63487 5.78986 8.52096 5.86598 8.39559 5.91791C8.27022 5.96984 8.13585 5.99657 8.00015 5.99657C7.86445 5.99657 7.73008 5.96984 7.60471 5.91791C7.47934 5.86598 7.36543 5.78986 7.26947 5.69391C7.17352 5.59796 7.0974 5.48404 7.04547 5.35867C6.99354 5.2333 6.96682 5.09893 6.96682 4.96323C6.9651 4.68662 7.07296 4.42057 7.26682 4.22323Z" fill="#2D373D"/>
</svg>
