<svg width="32" height="33" viewBox="0 0 32 33" fill="none" xmlns="http://www.w3.org/2000/svg">
<path d="M11.3062 6.9617C11.334 6.93601 11.3703 6.92188 11.4078 6.92188C11.4453 6.92188 11.4816 6.93601 11.5093 6.9617C11.5344 6.98486 11.5606 7.00673 11.5879 7.02721C12.2749 7.54286 13.5668 8.79983 14.748 9.99807V12.2981C14.748 12.8504 15.1958 13.2981 15.748 13.2981C16.3003 13.2981 16.748 12.8504 16.748 12.2981V12.0706L16.7657 12.0893L16.892 12.2232L16.9354 12.2694C17.3131 12.6723 17.9459 12.6928 18.3489 12.3151C18.7518 11.9374 18.7714 11.3036 18.3937 10.9007L18.3486 10.8527L18.2194 10.7157C18.1076 10.5973 17.9464 10.4273 17.7482 10.2197C17.4384 9.89513 17.0377 9.47826 16.5939 9.02369C16.518 8.90374 16.4174 8.80104 16.2991 8.7228L16.2141 8.63644C15.068 7.47268 13.6676 6.09695 12.8247 5.45506C12.4332 5.11185 11.9298 4.92188 11.4078 4.92188C10.8829 4.92188 10.3769 5.11389 9.98455 5.46058C9.16435 6.10278 7.73412 7.468 6.5439 8.63409C5.93181 9.23377 5.36791 9.79599 4.95719 10.2081C4.75175 10.4143 4.58444 10.5831 4.46836 10.7005L4.33426 10.8363L4.28682 10.8845C3.8997 11.2784 3.90512 11.9116 4.29902 12.2987C4.69292 12.6858 5.32669 12.6797 5.71381 12.2858L5.75866 12.2402L5.89049 12.1067L5.94381 12.0528V15.1793C5.90836 15.709 6.04003 16.2369 6.32094 16.6883C6.61037 17.1534 7.0427 17.5123 7.55329 17.711C7.6689 17.756 7.79188 17.7791 7.91594 17.7791H9.88758C10.4399 17.7791 10.8876 17.3314 10.8876 16.7791V13.8054C10.8876 13.7958 10.8874 13.7861 10.8872 13.7764C10.8854 13.7143 10.8963 13.6526 10.9193 13.5949C10.9424 13.5373 10.9769 13.4851 11.0209 13.4415C11.0649 13.3979 11.1173 13.3639 11.1748 13.3415C11.2323 13.319 11.2938 13.3087 11.3555 13.311C11.378 13.3119 11.4005 13.312 11.423 13.3113C11.4829 13.3096 11.5424 13.3201 11.598 13.3424C11.6537 13.3647 11.7042 13.3981 11.7464 13.4408C11.7887 13.4835 11.8218 13.5345 11.8436 13.5906C11.8654 13.6467 11.8755 13.7067 11.8732 13.7669C11.8519 14.3188 12.282 14.7834 12.8339 14.8047C13.3858 14.826 13.8504 14.3958 13.8717 13.8439C13.8845 13.5101 13.8287 13.1771 13.7076 12.8658C13.5866 12.5544 13.4028 12.2712 13.1677 12.0337C12.9327 11.7963 12.6513 11.6097 12.3411 11.4855C12.0413 11.3656 11.7208 11.3065 11.3981 11.3114C11.0738 11.3035 10.751 11.3601 10.4486 11.478C10.1356 11.5999 9.85106 11.7849 9.61259 12.0214C9.37413 12.2579 9.18678 12.5409 9.06214 12.8528C8.93954 13.1596 8.8802 13.4879 8.88758 13.8181V15.7791H8.15509C8.10121 15.7393 8.05492 15.6894 8.019 15.6317C7.9579 15.5335 7.9302 15.418 7.94013 15.3026C7.94258 15.2741 7.94381 15.2455 7.94381 15.2169V10.0625C9.17261 8.85858 10.5353 7.56422 11.2401 7.0177C11.263 7 11.285 6.98131 11.3062 6.9617Z" fill="#2D373D"/>
<path fill-rule="evenodd" clip-rule="evenodd" d="M22.7034 9.53032C21.0539 9.53032 19.7181 10.8684 19.7181 12.5173C19.7181 14.1662 21.0539 15.5043 22.7034 15.5043C24.353 15.5043 25.6888 14.1662 25.6888 12.5173C25.6888 10.8684 24.353 9.53032 22.7034 9.53032ZM21.7181 12.5173C21.7181 11.9714 22.16 11.5303 22.7034 11.5303C23.2468 11.5303 23.6888 11.9714 23.6888 12.5173C23.6888 13.0632 23.2468 13.5043 22.7034 13.5043C22.16 13.5043 21.7181 13.0632 21.7181 12.5173Z" fill="#2D373D"/>
<path fill-rule="evenodd" clip-rule="evenodd" d="M16.2913 23.7312C16.0125 24.6301 15.7868 25.4815 15.6983 26.1299C15.6583 26.3333 15.6164 26.7386 15.7433 27.2031C15.9021 27.7841 16.3126 28.3956 17.1324 28.7637C17.1627 28.7773 17.1937 28.7894 17.2253 28.8C17.5378 28.9043 17.8686 28.9423 18.1966 28.9115C18.5247 28.8807 18.8427 28.7818 19.1303 28.6211C19.4179 28.4605 19.6688 28.2416 19.8671 27.9785C20.0579 27.7253 20.1959 27.4365 20.273 27.1293L20.4509 26.5457C20.6373 26.8667 20.8409 27.2241 21.0573 27.6144C21.2793 28.0331 21.6217 28.3758 22.0405 28.5979C22.4807 28.8314 22.9314 28.8972 23.387 28.8449C23.4158 28.8416 23.4445 28.837 23.4729 28.8312C23.9507 28.7337 24.4998 28.4823 24.883 28.0029C25.2292 27.5697 25.4126 27.029 25.4014 26.4747C25.397 26.2556 25.3752 26.0348 25.2979 25.797C25.2267 25.578 25.1221 25.3909 25.0352 25.2391C25.0123 25.1991 24.9877 25.1567 24.9612 25.1111C24.7857 24.8087 24.528 24.3646 24.1283 23.5187C23.8923 23.0194 23.2962 22.8059 22.7969 23.0418C22.2975 23.2778 22.084 23.8739 22.32 24.3732C22.7559 25.2956 23.0479 25.7987 23.2285 26.11C23.2544 26.1546 23.2781 26.1954 23.2995 26.2328C23.3403 26.304 23.3639 26.3475 23.3796 26.3792C23.3897 26.3998 23.394 26.4104 23.3954 26.4141C23.3971 26.4245 23.4006 26.4533 23.4018 26.5149C23.4036 26.6018 23.3748 26.6864 23.3208 26.7541C23.3054 26.7733 23.2385 26.8284 23.1157 26.8615C23.0516 26.8644 23.0182 26.8526 22.9777 26.8311C22.9119 26.7962 22.858 26.742 22.8233 26.6757L22.8117 26.6541C22.2834 25.701 21.8275 24.9345 21.5025 24.4046C21.3399 24.1396 21.21 23.9336 21.1201 23.7928C21.0751 23.7224 21.0401 23.6683 21.016 23.6312L20.9881 23.5886L20.9805 23.577L20.9773 23.5721C20.7635 23.2492 20.3826 23.0788 19.9994 23.1345C19.6163 23.1903 19.2997 23.4622 19.1869 23.8326L18.3517 26.5733C18.3453 26.5941 18.3396 26.6152 18.3347 26.6364C18.3229 26.6866 18.3008 26.7338 18.2698 26.7749C18.2388 26.816 18.1997 26.8501 18.1549 26.8751C18.1101 26.9001 18.0607 26.9155 18.0097 26.9203C17.9727 26.9237 17.9355 26.9216 17.8994 26.914C17.8015 26.863 17.7533 26.8153 17.7295 26.7866C17.7004 26.7515 17.6833 26.7152 17.6726 26.6758C17.6609 26.633 17.6573 26.5882 17.6584 26.5502C17.6589 26.5334 17.6601 26.5219 17.6607 26.5167C17.6673 26.4873 17.6724 26.4576 17.6763 26.4278C17.7458 25.8885 17.9732 25.0313 18.3052 23.995C18.6313 22.9771 19.0383 21.8465 19.4386 20.7861C19.8382 19.7271 20.2282 18.746 20.5183 18.0292C20.6095 17.8041 20.6907 17.6053 20.7592 17.4386C20.8088 17.4506 20.8575 17.4671 20.9047 17.488C21.0845 17.5676 21.2318 17.7064 21.3222 17.8815C21.3447 17.9253 21.3705 17.9674 21.3993 18.0074C21.7563 18.5033 22.2716 18.8584 22.7508 19.1134C23.2423 19.3749 23.776 19.5727 24.2519 19.7198C24.7314 19.868 25.176 19.9718 25.4996 20.0386C25.6452 20.0686 25.7678 20.0915 25.8599 20.1077C25.9007 20.14 25.9345 20.1808 25.9588 20.2277C25.9971 20.3017 26.0094 20.3865 25.9937 20.4685C25.9918 20.4784 25.99 20.4883 25.9884 20.4983C25.9788 20.5582 25.9463 20.6118 25.8982 20.648C25.85 20.6841 25.7899 20.7 25.7304 20.6926C25.7034 20.6892 25.6763 20.687 25.6491 20.6858C24.9233 20.6549 24.4186 20.5686 24.0079 20.4277C23.6065 20.2899 23.2483 20.0839 22.8365 19.7536C22.4056 19.4082 21.7762 19.4774 21.4307 19.9083C21.0853 20.3391 21.1545 20.9685 21.5854 21.314C22.1351 21.7548 22.6933 22.091 23.3586 22.3193C24.0053 22.5413 24.7067 22.6453 25.5284 22.6824C26.0875 22.7406 26.6484 22.5855 27.0988 22.2475C27.5574 21.9033 27.8657 21.396 27.9605 20.8311C28.0567 20.3126 27.9774 19.7767 27.7349 19.3082C27.49 18.8352 27.0929 18.4584 26.6076 18.2387C26.5229 18.2004 26.433 18.174 26.3411 18.1605L26.3381 18.16L26.3183 18.1569C26.2998 18.1539 26.2708 18.1492 26.2326 18.1426C26.1561 18.1293 26.0432 18.1086 25.9039 18.0798C25.6237 18.022 25.2442 17.9331 24.8423 17.8089C24.4368 17.6836 24.0318 17.5295 23.6902 17.3477C23.3692 17.177 23.1648 17.0135 23.0537 16.8792C22.7515 16.339 22.2819 15.9104 21.7143 15.6592C21.117 15.3948 20.4473 15.3427 19.8163 15.5116C19.805 15.5147 19.7939 15.5179 19.7827 15.5213C18.9494 15.1958 18.0495 15.0639 17.1515 15.1399C16.0139 15.2362 14.9292 15.6622 14.0299 16.3654C12.7932 17.2709 11.9941 18.356 11.6816 19.4774C11.365 20.6136 11.5624 21.7673 12.2896 22.6387C12.4888 22.8795 13.2469 23.6102 14.4285 23.8385C15.005 23.9499 15.6327 23.9328 16.2913 23.7312ZM18.6731 17.2575C18.6702 17.2645 18.6674 17.2716 18.6645 17.2787C18.3703 18.0053 17.9743 19.0018 17.5674 20.0798C17.4887 20.2882 17.4096 20.4999 17.3306 20.7136C16.1619 21.9218 15.2962 21.9692 14.8079 21.8749C14.2498 21.767 13.8813 21.4136 13.8393 21.3733L13.8355 21.3697L13.8261 21.3585C13.5695 21.0517 13.4459 20.5966 13.6082 20.0143C13.7737 19.4204 14.2497 18.6802 15.2228 17.9708L15.2398 17.9581L15.2522 17.9486C15.8472 17.4802 16.5662 17.1966 17.3203 17.1328C17.7774 17.0941 18.2352 17.1371 18.6731 17.2575Z" fill="#2D373D"/>
</svg>
