<svg width="32" height="33" viewBox="0 0 32 33" fill="none" xmlns="http://www.w3.org/2000/svg">
<path d="M3.6755 20.4034C3.48878 20.4034 3.28872 20.3501 3.11534 20.2301C2.66188 19.9234 2.52851 19.2967 2.83526 18.8434C2.88861 18.7767 7.79665 11.6301 16.5191 16.7767C20.5869 19.1767 24.3746 18.6834 27.4688 15.3501L27.6288 15.1767C28.0156 14.7901 28.6558 14.7901 29.0426 15.1767C29.4293 15.5634 29.4293 16.2034 29.0426 16.5901L28.9359 16.7101C25.1748 20.7634 20.4002 21.4034 15.4921 18.5101C8.43682 14.3501 4.6491 19.7367 4.50239 19.9634C4.30234 20.2434 3.99559 20.4034 3.6755 20.4034Z" fill="#2D373D"/>
<path d="M3.6755 25.3227C3.48878 25.3227 3.28872 25.2693 3.11534 25.1493C2.66188 24.8427 2.52851 24.216 2.83526 23.7627C2.88861 23.696 7.79665 16.5493 16.5191 21.696C20.5869 24.096 24.3746 23.6027 27.4688 20.2693L27.6288 20.096C28.0156 19.7093 28.6558 19.7093 29.0426 20.096C29.4293 20.4827 29.4293 21.1227 29.0426 21.5093L28.9359 21.6293C25.1748 25.6827 20.4002 26.3227 15.4921 23.4293C8.43682 19.2693 4.6491 24.656 4.50239 24.8827C4.30234 25.1627 3.99559 25.3227 3.6755 25.3227Z" fill="#2D373D"/>
<path d="M3.67552 30.2576C3.48881 30.2576 3.28875 30.2042 3.11537 30.0842C2.64857 29.7776 2.52854 29.1509 2.83529 28.6976C2.88864 28.6309 7.79667 21.4842 16.5191 26.6309C20.5869 29.0309 24.3746 28.5376 27.4688 25.2042L27.6289 25.0309C28.0156 24.6442 28.6558 24.6442 29.0426 25.0309C29.4294 25.4176 29.4294 26.0576 29.0426 26.4442L28.9226 26.5642C25.1615 30.6176 20.3869 31.2442 15.4788 28.3509C8.37017 24.1642 4.63579 29.5776 4.48908 29.8042C4.28903 30.0976 3.98228 30.2442 3.64885 30.2442L3.67552 30.2576Z" fill="#2D373D"/>
<path d="M19.9993 16.2465C19.4526 16.2465 18.9993 15.7932 18.9993 15.2465V6.99318L18.0393 7.95318C17.6526 8.33984 17.0126 8.33984 16.6259 7.95318C16.2393 7.56651 16.2393 6.92651 16.6259 6.53984L19.2926 3.87318C19.3859 3.77984 19.4926 3.69984 19.6126 3.65984C19.8526 3.56651 20.1459 3.56651 20.3859 3.65984C20.5059 3.71318 20.6126 3.77984 20.7059 3.87318L23.3726 6.53984C23.7593 6.92651 23.7593 7.56651 23.3726 7.95318C22.9859 8.33984 22.3459 8.33984 21.9593 7.95318L20.9993 6.99318V15.2465C20.9993 15.7932 20.5459 16.2465 19.9993 16.2465Z" fill="#2D373D"/>
<path d="M11.9993 13.9132C11.4526 13.9132 10.9993 13.4598 10.9993 12.9132V6.99318L10.0393 7.95318C9.6526 8.33984 9.0126 8.33984 8.62594 7.95318C8.23927 7.56651 8.23927 6.92651 8.62594 6.53984L11.2926 3.87318C11.3859 3.77984 11.4926 3.69984 11.6126 3.65984C11.8526 3.56651 12.1459 3.56651 12.3859 3.65984C12.5059 3.71318 12.6126 3.77984 12.7059 3.87318L15.3726 6.53984C15.7593 6.92651 15.7593 7.56651 15.3726 7.95318C14.9859 8.33984 14.3459 8.33984 13.9593 7.95318L12.9993 6.99318V12.9132C12.9993 13.4598 12.5459 13.9132 11.9993 13.9132Z" fill="#2D373D"/>
</svg>
