<svg width="64" height="65" viewBox="0 0 64 65" fill="none" xmlns="http://www.w3.org/2000/svg">
<path fill-rule="evenodd" clip-rule="evenodd" d="M31.999 6.25586C42.8449 6.25642 55.999 8.92253 55.999 14.2556V32.9222C55.999 47.5892 42.6657 59.5895 31.999 59.5892C21.3324 59.5889 7.99902 47.5889 7.99902 32.9222V14.2553C7.99902 8.92197 21.1531 6.2553 31.999 6.25586ZM31.9987 31.1638C31.9451 31.1638 30.9264 29.1644 29.7289 26.7188L27.5485 22.2559H20.7393V40.4644H27.5307L27.5664 36.0551L27.62 31.6279L29.8183 36.073L31.9987 40.518L34.197 36.073L36.3774 31.6279L36.431 36.0373L36.4667 40.4644H43.2581V22.2559H39.8267L36.3774 22.2737L34.2327 26.7188C33.0531 29.1644 32.0523 31.1638 31.9987 31.1638Z" fill="#2D373D"/>
</svg>
