<svg width="24" height="24" viewBox="0 0 24 24" fill="none" xmlns="http://www.w3.org/2000/svg">
<path d="M11.8324 3.53808C11.8931 3.51302 11.9586 3.5 12.0249 3.5C12.0912 3.5 12.1567 3.51302 12.2174 3.53808C12.2781 3.56313 12.3326 3.59961 12.3779 3.64492L20.8728 12.0371C21.1675 12.3282 21.6423 12.3253 21.9334 12.0306C22.2246 11.7359 22.2217 11.2611 21.927 10.97L13.4386 2.58427L13.4368 2.58252C13.2515 2.39766 13.0315 2.25134 12.7897 2.15154C12.5472 2.05143 12.2872 2 12.0249 2C11.7626 2 11.5026 2.05143 11.2601 2.15154C11.0183 2.25133 10.7983 2.39764 10.613 2.58247L10.6112 2.58427L2.12281 10.97C1.82814 11.2611 1.82525 11.7359 2.11635 12.0306C2.40746 12.3253 2.88233 12.3282 3.177 12.0371L11.6687 3.64814L11.6719 3.64491C11.7172 3.5996 11.7717 3.56313 11.8324 3.53808Z" fill="#2D373D"/>
<path fill-rule="evenodd" clip-rule="evenodd" d="M5.8999 12.7384C5.8999 12.3242 5.56412 11.9884 5.1499 11.9884C4.73569 11.9884 4.3999 12.3242 4.3999 12.7384V15.7157C3.63302 16.0505 2.91606 16.5018 2.27694 17.0594C1.96483 17.3318 1.93258 17.8055 2.20491 18.1176C2.47724 18.4297 2.95102 18.462 3.26312 18.1897C4.50406 17.1069 6.10688 16.5125 7.76563 16.5222L7.77003 16.5222C8.38628 16.5222 9.19316 16.7877 10.2588 17.2075C10.4512 17.2833 10.6505 17.3634 10.8557 17.4459C11.7328 17.7984 12.7181 18.1945 13.7375 18.4832C15.0063 18.8426 16.3938 19.0575 17.8208 18.8279C19.2624 18.5959 20.6919 17.9187 22.0471 16.5799C22.3418 16.2888 22.3447 15.8139 22.0536 15.5193C21.7625 15.2246 21.2876 15.2217 20.9929 15.5128C20.5451 15.9552 20.0967 16.3046 19.6499 16.5769V12.7384C19.6499 12.3242 19.3141 11.9884 18.8999 11.9884C18.4857 11.9884 18.1499 12.3242 18.1499 12.7384V17.2255C17.96 17.2766 17.7708 17.3166 17.5825 17.3469C16.6158 17.5025 15.6343 17.4066 14.6499 17.1717V14.5907C14.6499 14.0613 14.4369 13.5555 14.0609 13.184C13.6851 12.8128 13.1774 12.6058 12.6499 12.6058H11.3999C10.8724 12.6058 10.3647 12.8128 9.98893 13.184C9.61286 13.5555 9.3999 14.0613 9.3999 14.5907V15.3069C8.83912 15.1373 8.28767 15.0226 7.77231 15.0222C7.13791 15.0187 6.50992 15.0876 5.8999 15.2247V12.7384ZM10.8999 15.8479C11.0813 15.9198 11.2634 15.9929 11.4463 16.0664C12.0039 16.2903 12.5699 16.5176 13.1499 16.7216V14.5907C13.1499 14.4651 13.0995 14.3427 13.0067 14.2511C12.9136 14.1591 12.7854 14.1058 12.6499 14.1058H11.3999C11.2644 14.1058 11.1362 14.1591 11.0431 14.2511C10.9503 14.3427 10.8999 14.4651 10.8999 14.5907V15.8479Z" fill="#2D373D"/>
<path d="M16.6602 3.97565C16.6602 3.56143 16.9959 3.22565 17.4102 3.22565H19.9908C20.405 3.22565 20.7408 3.56143 20.7408 3.97565V6.52503C20.7408 6.93924 20.405 7.27503 19.9908 7.27503C19.5765 7.27503 19.2408 6.93924 19.2408 6.52503V4.72565H17.4102C16.9959 4.72565 16.6602 4.38986 16.6602 3.97565Z" fill="#2D373D"/>
<path d="M7.95802 19.6094C6.29927 19.5997 4.69644 20.1941 3.45551 21.2769C3.1434 21.5492 2.66962 21.5169 2.3973 21.2048C2.12497 20.8927 2.15721 20.4189 2.46932 20.1466C3.98684 18.8225 5.9432 18.0981 7.9647 18.1094C8.91038 18.11 9.97761 18.496 11.001 18.8991C11.2125 18.9824 11.4249 19.0677 11.6385 19.1535C12.5109 19.5038 13.4038 19.8624 14.3387 20.1272C15.4917 20.4538 16.6433 20.6162 17.7749 20.4341C18.892 20.2544 20.0405 19.731 21.1853 18.6C21.48 18.3089 21.9549 18.3118 22.246 18.6065C22.5371 18.9011 22.5342 19.376 22.2395 19.6671C20.8843 21.0059 19.4548 21.6831 18.0132 21.9151C16.5862 22.1447 15.1987 21.9298 13.9299 21.5704C12.9105 21.2817 11.9252 20.8856 11.0482 20.5331C10.843 20.4506 10.6436 20.3705 10.4512 20.2947C9.38554 19.8749 8.57867 19.6094 7.96241 19.6094H7.95802Z" fill="#2D373D"/>
</svg>
