<svg width="64" height="65" viewBox="0 0 64 65" fill="none" xmlns="http://www.w3.org/2000/svg">
<path d="M54.2 32.0605H44.2C43 32.0605 42.2 32.8605 42.2 34.0605C42.2 35.2605 43 36.0605 44.2 36.0605H49.8L42.2 43.8605C41.4 44.4605 40.4 44.8605 39.4 44.4605L27.4 41.2605C25 40.6605 22.4 41.2605 20.8 43.0605L8.6 55.6605C7.8 56.4605 7.8 57.6605 8.6 58.4605C9 58.8605 9.4 59.0605 10 59.0605C10.6 59.0605 11 58.8605 11.4 58.6605L23.6 46.0605C24.2 45.2605 25.2 45.0605 26.2 45.2605L38.2 48.4605C40.6 49.0605 43.2 48.4605 45 46.6605L52.2 39.2605V44.0605C52.2 45.2605 53 46.0605 54.2 46.0605C55.4 46.0605 56.2 45.0605 56.2 44.0605V34.0605C56.2 32.8605 55.4 32.0605 54.2 32.0605Z" fill="#2D373D"/>
<path d="M29.2 35.2603C30.2 35.2603 31.2 34.2603 31.2 33.2603V32.6603C32.8 32.4603 34.4 31.2603 35 29.4603C35.6 28.2603 35.6 26.8603 35 25.6603C34.4 24.4603 33.4 23.4603 32.2 23.0603L27.6 21.2603C27.2 21.2603 27 20.8603 27 20.4603C27 20.2603 27.2 20.0603 27.4 19.8603C27.4 19.8603 27.6 19.6603 28 19.6603H32.6C33.8 19.6603 34.6 18.8603 34.6 17.6603C34.6 16.4603 33.8 15.6603 32.6 15.6603H31.2V15.2603C31.2 14.0603 30.4 13.2603 29.2 13.2603C28 13.2603 27.2 14.0603 27.2 15.2603V15.6603C24.8 16.0603 23 18.0603 23 20.6603C23 22.6603 24.2 24.4603 26.2 25.0603L30.4 26.8603C30.8 27.0603 31 27.2603 31 27.4603C31 27.6603 31.2 27.8603 31 28.2603C31 28.6603 30.6 28.8603 30.2 28.8603H25.8C24.6 28.8603 23.8 29.6603 23.8 30.8603C23.8 32.0603 24.6 32.8603 25.8 32.8603H27.2V33.2603C27.2 34.4603 28 35.2603 29.2 35.2603Z" fill="#2D373D"/>
<path d="M17.9993 39.0606C18.3993 39.2606 18.7993 39.4606 19.1993 39.4606C19.7993 39.4606 20.3993 39.0606 20.7993 38.6606C21.3993 37.8606 21.1993 36.4606 20.3993 35.8606C15.9993 32.4606 13.7993 26.8606 14.9993 21.2606C15.5993 17.4606 17.7993 14.2606 21.1993 12.0606C24.5993 9.86061 28.3993 9.06061 32.1993 9.86061C35.9993 10.6606 39.1993 12.8606 41.3993 16.0606C43.5993 19.4606 44.3993 23.2606 43.5993 27.0606C43.3993 28.2606 44.1993 29.2606 45.1993 29.4606C46.3993 29.6606 47.3993 28.8606 47.5993 27.8606C48.5993 22.8606 47.5993 18.0606 44.7993 13.8606C41.9993 9.66061 37.7993 6.86061 32.9993 5.86061C27.9993 4.86061 23.1993 5.86061 18.9993 8.66061C14.7993 11.4606 11.9993 15.6606 10.9993 20.6606C9.59935 27.4606 12.3993 34.8606 17.9993 39.0606Z" fill="#2D373D"/>
</svg>
