<svg width="32" height="32" viewBox="0 0 32 32" fill="none" xmlns="http://www.w3.org/2000/svg">
<path fill-rule="evenodd" clip-rule="evenodd" d="M24.1468 3.97335H7.81346C7.48392 3.96798 7.15665 4.02871 6.85098 4.15195C6.54531 4.27518 6.26744 4.45842 6.03377 4.69085C5.8001 4.92327 5.61538 5.20017 5.49052 5.50518C5.36565 5.81019 5.30318 6.13712 5.30679 6.46668V25.5333C5.31026 25.8584 5.37795 26.1796 5.50598 26.4784C5.634 26.7772 5.81983 27.0478 6.05278 27.2746C6.28573 27.5013 6.5612 27.6798 6.86336 27.7997C7.16552 27.9196 7.48841 27.9786 7.81346 27.9733H24.1468C24.4707 27.9769 24.7922 27.9165 25.0928 27.7958C25.3934 27.6751 25.6673 27.4964 25.8988 27.2698C26.1304 27.0432 26.315 26.7732 26.4422 26.4753C26.5694 26.1774 26.6366 25.8573 26.6401 25.5333V6.46668C26.6437 6.13826 26.5816 5.81243 26.4576 5.50832C26.3336 5.2042 26.15 4.92792 25.9178 4.69567C25.6856 4.46343 25.4093 4.27991 25.1052 4.15587C24.801 4.03183 24.4752 3.96978 24.1468 3.97335ZM7.81346 6.00002H24.1468C24.2718 5.99997 24.3919 6.0487 24.4816 6.13586C24.5712 6.22301 24.6233 6.3417 24.6268 6.46668V9.86668H7.29345V6.46668C7.29504 6.40127 7.30999 6.33686 7.33738 6.27743C7.36477 6.21801 7.40402 6.1648 7.45272 6.1211C7.50142 6.07739 7.55854 6.04411 7.62058 6.02328C7.68261 6.00246 7.74825 5.99454 7.81346 6.00002ZM24.1468 26H7.81346C7.68843 26.0001 7.56832 25.9513 7.47867 25.8642C7.38903 25.777 7.33693 25.6583 7.33345 25.5333V11.8667H24.6668V25.5333C24.6652 25.5988 24.6503 25.6632 24.6229 25.7226C24.5955 25.782 24.5562 25.8352 24.5075 25.8789C24.4588 25.9226 24.4017 25.9559 24.3397 25.9767C24.2776 25.9976 24.212 26.0055 24.1468 26Z" fill="#2D373D"/>
<path fill-rule="evenodd" clip-rule="evenodd" d="M9.30679 8.93335H12.2668C12.532 8.93335 12.7864 8.82799 12.9739 8.64046C13.1614 8.45292 13.2668 8.19857 13.2668 7.93335C13.2668 7.66813 13.1614 7.41378 12.9739 7.22624C12.7864 7.03871 12.532 6.93335 12.2668 6.93335H9.30679C9.04157 6.93335 8.78722 7.03871 8.59968 7.22624C8.41215 7.41378 8.30679 7.66813 8.30679 7.93335C8.30679 8.19857 8.41215 8.45292 8.59968 8.64046C8.78722 8.82799 9.04157 8.93335 9.30679 8.93335Z" fill="#2D373D"/>
<path fill-rule="evenodd" clip-rule="evenodd" d="M15.9735 12.8C14.7627 12.8105 13.5822 13.1792 12.5806 13.8595C11.579 14.5398 10.8012 15.5013 10.3452 16.6229C9.88911 17.7445 9.77524 18.976 10.0179 20.1623C10.2605 21.3485 10.8488 22.4363 11.7087 23.2888C12.5685 24.1412 13.6614 24.7201 14.8497 24.9524C16.038 25.1848 17.2684 25.0603 18.3861 24.5945C19.5037 24.1288 20.4584 23.3427 21.1301 22.3352C21.8017 21.3278 22.1601 20.1441 22.1601 18.9333C22.1566 18.1244 21.9938 17.3241 21.681 16.578C21.3682 15.832 20.9115 15.1549 20.3371 14.5854C19.7626 14.0158 19.0815 13.565 18.3328 13.2587C17.5841 12.9524 16.7824 12.7965 15.9735 12.8ZM15.9735 23.0667C15.1583 23.0562 14.3645 22.8048 13.6918 22.3443C13.0191 21.8838 12.4977 21.2346 12.193 20.4785C11.8883 19.7224 11.814 18.893 11.9795 18.0948C12.1449 17.2965 12.5428 16.565 13.1229 15.9923C13.703 15.4196 14.4395 15.0312 15.2398 14.876C16.0401 14.7208 16.8685 14.8057 17.6206 15.12C18.3728 15.4344 19.0152 15.9641 19.4671 16.6426C19.9189 17.3212 20.1601 18.1181 20.1601 18.9333C20.1496 20.0356 19.7034 21.0888 18.919 21.8632C18.1346 22.6376 17.0757 23.0703 15.9735 23.0667Z" fill="#2D373D"/>
<path fill-rule="evenodd" clip-rule="evenodd" d="M21.4001 9.20002C21.6514 9.29264 21.922 9.32016 22.1868 9.28002C22.4502 9.22821 22.6919 9.09809 22.8801 8.90668C23.0788 8.71663 23.2138 8.4698 23.2668 8.20002C23.3089 7.94482 23.2758 7.68289 23.1716 7.44615C23.0675 7.20941 22.8967 7.00808 22.6801 6.86668C22.4556 6.71579 22.1906 6.63674 21.9201 6.64002C21.5665 6.64002 21.2274 6.78049 20.9773 7.03054C20.7273 7.28059 20.5868 7.61973 20.5868 7.97335C20.5874 8.24523 20.6712 8.51041 20.8268 8.73335C20.9701 8.93983 21.1688 9.10161 21.4001 9.20002ZM21.3068 7.86668C21.3271 7.74649 21.3828 7.63508 21.4668 7.54668C21.5575 7.4634 21.6675 7.40385 21.7868 7.37335H21.9068C21.9863 7.36086 22.0673 7.36086 22.1468 7.37335H22.2535C22.3233 7.41188 22.3828 7.46678 22.4268 7.53335V7.65335C22.4395 7.73284 22.4395 7.81385 22.4268 7.89335C22.4333 7.93309 22.4333 7.97361 22.4268 8.01335C22.4044 8.13569 22.3437 8.24775 22.2535 8.33335C22.1627 8.41664 22.0528 8.47618 21.9335 8.50668H21.8135C21.7339 8.51917 21.653 8.51917 21.5735 8.50668H21.4668C21.396 8.45791 21.3369 8.39418 21.2935 8.32002C21.2863 8.28482 21.2863 8.24854 21.2935 8.21335C21.278 8.13347 21.2826 8.05103 21.3068 7.97335C21.2952 7.92064 21.2952 7.86606 21.3068 7.81335V7.86668Z" fill="#2D373D"/>
<path fill-rule="evenodd" clip-rule="evenodd" d="M16.9468 9.20002C17.1981 9.29264 17.4687 9.32016 17.7335 9.28002C17.9969 9.22821 18.2385 9.09809 18.4268 8.90668C18.6255 8.71663 18.7605 8.4698 18.8135 8.20002C18.8555 7.94482 18.8225 7.68289 18.7183 7.44615C18.6141 7.20941 18.4434 7.00808 18.2268 6.86668C18.0023 6.71579 17.7372 6.63674 17.4668 6.64002C17.1132 6.64002 16.774 6.78049 16.524 7.03054C16.2739 7.28059 16.1335 7.61973 16.1335 7.97335C16.1341 8.24523 16.2178 8.51041 16.3735 8.73335C16.5168 8.93983 16.7155 9.10161 16.9468 9.20002Z" fill="#2D373D"/>
<path fill-rule="evenodd" clip-rule="evenodd" d="M15.9735 15.7333C15.1199 15.7307 14.3001 16.0663 13.6935 16.6667C13.3923 16.9622 13.1534 17.315 12.9909 17.7043C12.8283 18.0936 12.7453 18.5115 12.7468 18.9333C12.7468 19.1986 12.8521 19.4529 13.0397 19.6405C13.2272 19.828 13.4816 19.9333 13.7468 19.9333C14.012 19.9333 14.2664 19.828 14.4539 19.6405C14.6414 19.4529 14.7468 19.1986 14.7468 18.9333C14.7458 18.7773 14.776 18.6227 14.8355 18.4784C14.895 18.3342 14.9827 18.2033 15.0935 18.0933C15.3281 17.8624 15.6442 17.7331 15.9735 17.7333C16.2387 17.7333 16.493 17.628 16.6806 17.4405C16.8681 17.2529 16.9735 16.9986 16.9735 16.7333C16.9735 16.4681 16.8681 16.2138 16.6806 16.0262C16.493 15.8387 16.2387 15.7333 15.9735 15.7333Z" fill="#2D373D"/>
</svg>
