<svg width="32" height="33" viewBox="0 0 32 33" fill="none" xmlns="http://www.w3.org/2000/svg">
<path fill-rule="evenodd" clip-rule="evenodd" d="M26.666 3.12793C27.2183 3.12793 27.666 3.57564 27.666 4.12793V16.4613C27.666 16.5251 27.66 16.5876 27.6486 16.6482C27.9774 16.7783 28.2856 16.9763 28.5516 17.2423C29.593 18.2837 29.593 19.9721 28.5516 21.0135C28.2903 21.2748 27.9883 21.4706 27.666 21.6007V26.6613C27.666 26.6613 27.666 26.6613 26.666 26.6613H27.666L27.666 26.6635L27.666 26.666L27.666 26.6715L27.6658 26.685L27.6648 26.7217C27.6637 26.7502 27.6618 26.7869 27.6584 26.8308C27.6516 26.9182 27.6385 27.0358 27.6133 27.1739C27.5638 27.4459 27.4629 27.8216 27.2517 28.2077C27.0375 28.5994 26.7057 29.0082 26.2021 29.3151C25.6964 29.6234 25.0736 29.7946 24.3327 29.7946C23.5917 29.7946 22.969 29.6234 22.4633 29.3151C21.9597 29.0082 21.6278 28.5994 21.4136 28.2077C21.2025 27.8216 21.1016 27.4459 21.052 27.1739C21.0268 27.0358 21.0138 26.9182 21.0069 26.8308C21.0035 26.7869 21.0016 26.7502 21.0006 26.7217L20.9996 26.685L20.9994 26.6715L20.9994 26.666L20.9994 26.6635C20.9994 26.6635 20.9993 26.6613 21.9993 26.6613L20.9993 26.6612V25.1279C20.9993 24.5756 21.4471 24.1279 21.9993 24.1279C22.5516 24.1279 22.9993 24.5756 22.9993 25.1279V26.6511C22.9993 26.6511 22.9996 26.6567 22.9999 26.6611C23.0001 26.665 23.0004 26.6696 23.0009 26.675C23.0032 26.7043 23.0083 26.7534 23.0196 26.8153C23.0429 26.9433 23.0879 27.1009 23.1684 27.2481C23.2458 27.3898 23.3515 27.5143 23.5042 27.6074C23.6547 27.6991 23.907 27.7946 24.3327 27.7946C24.7584 27.7946 25.0106 27.6991 25.1612 27.6074C25.3139 27.5143 25.4195 27.3898 25.497 27.2481C25.5775 27.1009 25.6224 26.9433 25.6458 26.8153C25.657 26.7534 25.6622 26.7043 25.6645 26.675L25.6652 26.6651L25.666 26.6511V21.6007C25.3437 21.4706 25.0417 21.2748 24.7804 21.0135C23.739 19.9721 23.739 18.2837 24.7804 17.2423C25.0464 16.9763 25.3546 16.7783 25.6834 16.6482C25.672 16.5876 25.666 16.5251 25.666 16.4613V4.12793C25.666 3.57564 26.1137 3.12793 26.666 3.12793ZM27.1374 18.6565C27.3978 18.9169 27.3978 19.339 27.1374 19.5993C26.8771 19.8597 26.455 19.8597 26.1946 19.5993C25.9343 19.339 25.9343 18.9169 26.1946 18.6565C26.455 18.3962 26.8771 18.3962 27.1374 18.6565Z" fill="#2D373D"/>
<path d="M16.6216 17.3341C17.059 17.7715 17.7681 17.7715 18.2055 17.3341C18.6429 16.8967 18.6429 16.1875 18.2055 15.7502C17.7681 15.3128 17.059 15.3128 16.6216 15.7502C16.1842 16.1875 16.1842 16.8967 16.6216 17.3341Z" fill="#2D373D"/>
<path fill-rule="evenodd" clip-rule="evenodd" d="M4.16215 20.3295C4.99503 19.8536 5.94868 19.1591 6.93133 18.4245C7.13561 18.2718 7.34185 18.1168 7.54992 17.9604L7.88771 17.7067C8.22715 17.9546 8.57173 18.2018 8.91873 18.4433C10.0372 19.2217 11.2171 19.9674 12.3932 20.5204C13.5618 21.0698 14.7926 21.4612 15.9993 21.4612C17.5695 21.4612 19.1101 20.8781 20.266 20.0112C21.3968 19.1631 22.3327 17.9015 22.3327 16.4612C22.3327 15.021 21.3968 13.7593 20.266 12.9113C19.1101 12.0443 17.5696 11.4613 15.9993 11.4613C14.7926 11.4613 13.5618 11.8526 12.3932 12.4021C11.2171 12.9551 10.0372 13.7007 8.91872 14.4792C8.57172 14.7207 8.22714 14.9679 7.8877 15.2158L7.55172 14.9635C7.34304 14.8066 7.1362 14.6512 6.93132 14.498C5.94867 13.7634 4.99502 13.0689 4.16215 12.593C3.85264 12.4162 3.4724 12.4174 3.16409 12.5964C2.85577 12.7753 2.66602 13.1048 2.66602 13.4613V19.4613C2.66602 19.8177 2.85577 20.1472 3.16409 20.3262C3.4724 20.5051 3.85264 20.5064 4.16215 20.3295ZM5.73382 16.8226C5.89151 16.7047 6.05225 16.584 6.21564 16.4613C6.05225 16.3385 5.89151 16.2178 5.73382 16.0999C5.35843 15.8193 5.00223 15.556 4.66602 15.3152V17.6073C5.00223 17.3665 5.35842 17.1032 5.73382 16.8226ZM10.0613 16.8018C9.89966 16.6893 9.73878 16.5757 9.57867 16.4612C9.73878 16.3468 9.89966 16.2332 10.0613 16.1207C11.1404 15.3696 12.2151 14.6959 13.2443 14.212C14.281 13.7245 15.2061 13.4613 15.9993 13.4613C17.0958 13.4613 18.222 13.8782 19.066 14.5113C19.9352 15.1631 20.3327 15.9015 20.3327 16.4612C20.3327 17.021 19.9352 17.7593 19.066 18.4112C18.222 19.0442 17.0958 19.4612 15.9993 19.4612C15.206 19.4612 14.281 19.198 13.2443 18.7105C12.2151 18.2265 11.1404 17.5528 10.0613 16.8018Z" fill="#2D373D"/>
</svg>
