<svg width="16" height="17" viewBox="0 0 16 17" fill="none" xmlns="http://www.w3.org/2000/svg">
<path fill-rule="evenodd" clip-rule="evenodd" d="M3.29471 4.20137C4.54408 2.9568 6.23584 2.25781 7.99967 2.25781C9.76778 2.25781 11.4635 2.96019 12.7137 4.21043C13.964 5.46068 14.6663 7.15637 14.6663 8.92448C14.6663 10.6926 13.964 12.3883 12.7137 13.6385C11.4635 14.8888 9.76778 15.5911 7.99967 15.5911C6.23156 15.5911 4.53587 14.8888 3.28563 13.6385C2.03539 12.3883 1.33301 10.6926 1.33301 8.92448C1.33301 7.16072 2.03194 5.46902 3.27642 4.21967C3.27938 4.21655 3.28238 4.21346 3.28544 4.21041C3.2885 4.20735 3.29159 4.20434 3.29471 4.20137ZM3.65667 5.2923L4.35663 5.99226C4.55288 6.18851 4.87105 6.18851 5.06729 5.99226C5.26354 5.79602 5.26354 5.47785 5.06729 5.2816L4.36732 4.58163C5.38181 3.73305 6.6665 3.26284 7.99967 3.26284C9.50124 3.26284 10.9413 3.85933 12.0031 4.92109C13.0648 5.98286 13.6613 7.42292 13.6613 8.92448C13.6613 10.2576 13.1911 11.5423 12.3426 12.5568L10.8206 11.0348C10.6243 10.8386 10.3062 10.8386 10.1099 11.0348C9.91368 11.2311 9.91368 11.5492 10.1099 11.7455L11.6319 13.2674C10.6174 14.116 9.33279 14.5861 7.99967 14.5861C6.49811 14.5861 5.05805 13.9896 3.99629 12.9279C2.93453 11.8661 2.33803 10.426 2.33803 8.92448C2.33803 7.59138 2.80819 6.30676 3.65667 5.2923Z" fill="#2D373D"/>
<path fill-rule="evenodd" clip-rule="evenodd" d="M7.14078 5.72848H9.65194L8.78296 7.46695C8.70509 7.62273 8.71343 7.80771 8.805 7.95584C8.89656 8.10398 9.0583 8.19414 9.23245 8.19414H9.89974L7.45454 11.6174L7.67775 9.38541C7.69187 9.24414 7.64558 9.10348 7.55032 8.99822C7.45505 8.89295 7.3197 8.83289 7.17773 8.83289H6.20945L7.14078 5.72848ZM7.07253 4.72346C6.87616 4.72339 6.68501 4.78665 6.52744 4.90384C6.36982 5.02107 6.25421 5.18601 6.1978 5.37416L5.21163 8.66139C5.17069 8.79768 5.16207 8.94199 5.18664 9.08217C5.21124 9.22246 5.26829 9.35506 5.35326 9.46937C5.43822 9.58369 5.54874 9.67655 5.67599 9.74054C5.80323 9.80453 5.94368 9.83788 6.08611 9.83792H6.62246L6.26676 13.3948C6.24411 13.6214 6.37665 13.8349 6.58978 13.9151C6.80291 13.9954 7.04333 13.9222 7.17569 13.7369L11.2851 7.98371C11.3945 7.83054 11.4092 7.62906 11.323 7.46169C11.2369 7.29432 11.0645 7.18912 10.8762 7.18912H10.0454L10.6172 6.04515C10.6868 5.90588 10.7197 5.75094 10.7126 5.59544C10.7055 5.43995 10.6588 5.28884 10.577 5.15646C10.4951 5.02407 10.3808 4.9148 10.2448 4.83902C10.1088 4.76324 9.95577 4.72346 9.80011 4.72346H7.07253Z" fill="#2D373D"/>
</svg>
