<svg width="16" height="17" viewBox="0 0 16 17" fill="none" xmlns="http://www.w3.org/2000/svg">
<path d="M8.56667 10.0289C8.50076 10.028 8.43534 10.0403 8.37427 10.0651C8.3132 10.0899 8.25772 10.1267 8.21111 10.1733C8.16451 10.2199 8.12771 10.2754 8.1029 10.3365C8.07809 10.3975 8.06577 10.463 8.06667 10.5289V11.3355H3.01333V4.9222C3.01541 4.79716 3.03793 4.6733 3.08 4.55553C3.12607 4.44323 3.19406 4.34125 3.28 4.25553C3.3584 4.17011 3.45377 4.10199 3.56 4.05553C3.6666 4.01482 3.77928 3.99228 3.89333 3.98886H5.12667C5.25927 3.98886 5.38645 3.93619 5.48022 3.84242C5.57399 3.74865 5.62667 3.62147 5.62667 3.48886C5.62667 3.35626 5.57399 3.22908 5.48022 3.13531C5.38645 3.04154 5.25927 2.98886 5.12667 2.98886H3.88667C3.63686 2.98705 3.38939 3.03707 3.1599 3.13575C2.9304 3.23444 2.72386 3.37964 2.55333 3.5622C2.37722 3.74178 2.23894 3.95487 2.14667 4.18886C2.0521 4.42191 2.00235 4.67071 2 4.9222V13.0155C2.0084 13.5116 2.20086 13.9868 2.54 14.3489C2.71583 14.5284 2.9239 14.6731 3.15333 14.7755C3.38368 14.8713 3.63053 14.9212 3.88 14.9222H7.17333C7.42314 14.924 7.67061 14.874 7.9001 14.7753C8.1296 14.6766 8.33614 14.5314 8.50667 14.3489C8.68278 14.1693 8.82106 13.9562 8.91333 13.7222C9.00562 13.4887 9.05311 13.2399 9.05333 12.9889V10.5289C9.05338 10.3985 9.00254 10.2733 8.91163 10.1799C8.82073 10.0865 8.69695 10.0323 8.56667 10.0289ZM7.99333 13.3622C7.94972 13.4742 7.88397 13.5762 7.8 13.6622C7.7205 13.7493 7.62257 13.8177 7.51333 13.8622C7.41059 13.9079 7.29911 13.9307 7.18667 13.9289H3.89333C3.77804 13.9304 3.66373 13.9075 3.55799 13.8615C3.45225 13.8155 3.35749 13.7476 3.28 13.6622C3.19406 13.5765 3.12607 13.4745 3.08 13.3622C3.03793 13.2444 3.01541 13.1206 3.01333 12.9955V12.3289H8.06667V12.9955C8.07109 13.1298 8.04842 13.2636 8 13.3889L7.99333 13.3622Z" fill="#2D373D"/>
<path d="M14 5.58886C14.0011 5.40861 13.9656 5.23002 13.8957 5.06387C13.8258 4.89772 13.7229 4.74747 13.5933 4.6222C13.331 4.37466 12.984 4.23678 12.6233 4.23678C12.2627 4.23678 11.9156 4.37466 11.6533 4.6222C11.5297 4.75025 11.433 4.90176 11.3689 5.06778C11.3048 5.2338 11.2746 5.41098 11.28 5.58886C11.2626 5.87552 11.3381 6.16015 11.4955 6.40039C11.6529 6.64063 11.8836 6.82365 12.1533 6.9222V7.58886C12.1531 7.78121 12.1146 7.97159 12.0403 8.14897C11.9659 8.32635 11.857 8.4872 11.72 8.6222C11.4393 8.8861 11.0686 9.03303 10.6833 9.03303C10.2981 9.03303 9.92733 8.8861 9.64667 8.6222C9.42391 8.40154 9.28084 8.11307 9.24 7.8022C9.64263 7.70441 10.0112 7.49937 10.3067 7.20886C10.5169 7.00141 10.684 6.75442 10.7985 6.48211C10.9129 6.20981 10.9723 5.91756 10.9733 5.6222V3.86886C10.9739 3.74523 10.95 3.6227 10.9031 3.5083C10.8562 3.3939 10.7872 3.28988 10.7 3.2022C10.6085 3.11039 10.4992 3.0382 10.3789 2.99006C10.2585 2.94192 10.1296 2.91883 10 2.9222H9.56667C9.43406 2.9222 9.30688 2.97488 9.21311 3.06864C9.11935 3.16241 9.06667 3.28959 9.06667 3.4222C9.06667 3.55481 9.11935 3.68198 9.21311 3.77575C9.30688 3.86952 9.43406 3.9222 9.56667 3.9222H10V5.58886C9.99847 5.91904 9.8667 6.23528 9.63333 6.46886C9.39527 6.69587 9.07895 6.82252 8.75 6.82252C8.42105 6.82252 8.10473 6.69587 7.86667 6.46886C7.74447 6.35644 7.6461 6.22061 7.57739 6.06945C7.50867 5.91828 7.47102 5.75486 7.46667 5.58886V3.93553H7.84C7.97261 3.93553 8.09979 3.88285 8.19355 3.78908C8.28732 3.69532 8.34 3.56814 8.34 3.43553C8.34 3.30292 8.28732 3.17575 8.19355 3.08198C8.09979 2.98821 7.97261 2.93553 7.84 2.93553H7.40667C7.28354 2.93465 7.16146 2.95814 7.04745 3.00465C6.93344 3.05116 6.82976 3.11977 6.74239 3.20653C6.65501 3.29329 6.58567 3.39647 6.53834 3.51015C6.49102 3.62382 6.46666 3.74573 6.46667 3.86886V5.58886C6.46733 6.102 6.64363 6.59945 6.96626 6.99849C7.28888 7.39752 7.73838 7.67409 8.24 7.7822C8.28613 8.35379 8.53428 8.89027 8.94 9.29553C9.28378 9.63603 9.71988 9.86822 10.1943 9.96334C10.6687 10.0585 11.1606 10.0123 11.6091 9.83068C12.0576 9.64902 12.4429 9.33981 12.7174 8.94133C12.9919 8.54286 13.1434 8.07263 13.1533 7.58886V6.9222C13.3297 6.85202 13.4905 6.74782 13.6267 6.61553C13.7548 6.47838 13.854 6.31674 13.9181 6.14031C13.9823 5.96389 14.0101 5.77632 14 5.58886ZM12.36 5.32886C12.3942 5.29253 12.4355 5.26369 12.4814 5.24418C12.5273 5.22467 12.5768 5.21492 12.6267 5.21553C12.6764 5.2157 12.7256 5.22581 12.7714 5.24527C12.8172 5.26473 12.8587 5.29316 12.8933 5.32886C12.9273 5.36306 12.9543 5.40362 12.9726 5.44824C12.9909 5.49285 13.0002 5.54064 13 5.58886C12.9993 5.68802 12.9612 5.78327 12.8933 5.85553C12.8207 5.92253 12.7255 5.95973 12.6267 5.95973C12.5278 5.95973 12.4326 5.92253 12.36 5.85553C12.3252 5.82055 12.2978 5.7789 12.2795 5.73308C12.2611 5.68725 12.2523 5.6382 12.2533 5.58886C12.2653 5.49656 12.264 5.43093 12.36 5.32886Z" fill="#2D373D"/>
</svg>
