<svg width="64" height="65" viewBox="0 0 64 65" fill="none" xmlns="http://www.w3.org/2000/svg">
<path d="M22.3348 24.9536C23.6075 24.2174 25.0848 23.7954 26.6667 23.7954C31.0692 23.7954 34.7051 27.0781 35.26 31.3293C34.7549 31.0201 34.0862 31.0768 33.6397 31.5067C33.1091 32.0174 33.0931 32.8614 33.6038 33.3919L36.3779 36.2736C36.8886 36.8041 37.7327 36.8202 38.2632 36.3095L41.1449 33.5354C41.6754 33.0247 41.6915 32.1806 41.1808 31.6501C40.673 31.1227 39.8358 31.1037 39.3048 31.6053C38.8643 25.0093 33.3743 19.7954 26.6667 19.7954C24.3628 19.7954 22.197 20.4123 20.3319 21.4912C19.3758 22.0443 19.049 23.2678 19.6021 24.2239C20.1552 25.18 21.3787 25.5067 22.3348 24.9536Z" fill="#2D373D"/>
<path d="M14.1505 30.5052L14.1301 30.5189C13.5188 30.9295 12.6904 30.7667 12.2799 30.1554C11.8693 29.5441 12.032 28.7157 12.6433 28.3052L15.9639 26.0749C16.5752 25.6644 17.4035 25.8271 17.8141 26.4384L20.0444 29.7589C20.4549 30.3702 20.2922 31.1986 19.6809 31.6092C19.1656 31.9553 18.4961 31.894 18.0526 31.5001C18.0179 31.8155 18 32.1364 18 32.4621C18 37.2485 21.8802 41.1287 26.6667 41.1287C28.7182 41.1287 30.5983 40.4184 32.0824 39.2287C32.9442 38.5379 34.203 38.6765 34.8938 39.5383C35.5847 40.4001 35.4461 41.6589 34.5843 42.3497C32.4161 44.0878 29.6602 45.1287 26.6667 45.1287C19.6711 45.1287 14 39.4577 14 32.4621C14 31.7975 14.0513 31.1439 14.1505 30.5052Z" fill="#2D373D"/>
<path fill-rule="evenodd" clip-rule="evenodd" d="M6 19.1287C6 15.0787 9.28325 11.7954 13.3333 11.7954H40C44.0501 11.7954 47.3333 15.0787 47.3333 19.1287V21.1205L47.3679 21.0947C48.1658 20.4988 49.0917 19.8074 50.0698 19.1891C52.0437 17.9416 54.2026 18.1676 55.7827 19.3984C57.2638 20.5521 58.1015 22.46 58.1015 24.4621V33.7954L58.0927 40.4844C58.0905 42.488 57.2494 44.396 55.765 45.5468C54.1808 46.7749 52.0196 46.9931 50.049 45.737C49.0782 45.1182 48.1594 44.4274 47.3671 43.8318L47.3333 43.8064V45.7954C47.3333 49.8455 44.0501 53.1287 40 53.1287H13.3333C9.28325 53.1287 6 49.8455 6 45.7954V19.1287ZM47.3333 38.9258V25.9925C48.0766 25.5523 48.8402 24.9866 49.5433 24.4624L49.7439 24.3127C50.5624 23.7018 51.3668 23.1013 52.2069 22.5704C52.5139 22.3763 52.7282 22.3514 52.8546 22.3584C52.988 22.3657 53.1471 22.4157 53.3246 22.554C53.7027 22.8485 54.1015 23.5186 54.1015 24.4621V32.4611L54.0927 40.479C54.0917 41.4235 53.6915 42.0924 53.3137 42.3852C53.1365 42.5227 52.978 42.5719 52.8452 42.5788C52.7194 42.5852 52.5053 42.5597 52.1984 42.3641C51.3645 41.8326 50.5664 41.2329 49.7542 40.6226L49.5485 40.4681C48.844 39.9393 48.0783 39.3685 47.3333 38.9258ZM13.3333 15.7954C11.4924 15.7954 10 17.2878 10 19.1287V45.7954C10 47.6364 11.4924 49.1287 13.3333 49.1287H40C41.841 49.1287 43.3333 47.6364 43.3333 45.7954V19.1287C43.3333 17.2878 41.841 15.7954 40 15.7954H13.3333Z" fill="#2D373D"/>
</svg>
