<svg width="24" height="25" viewBox="0 0 24 25" fill="none" xmlns="http://www.w3.org/2000/svg">
<path d="M14.175 7.51019H8.625C8.175 7.51019 7.875 7.81019 7.875 8.26019C7.875 8.71019 8.175 9.01019 8.625 9.01019H14.175C14.625 9.01019 14.925 8.71019 14.925 8.26019C14.925 7.81019 14.625 7.51019 14.175 7.51019Z" fill="#2D373D"/>
<path d="M14.175 11.5601H8.625C8.175 11.5601 7.875 11.8601 7.875 12.3101C7.875 12.7601 8.175 13.0601 8.625 13.0601H14.175C14.625 13.0601 14.925 12.7601 14.925 12.3101C14.925 11.8601 14.625 11.5601 14.175 11.5601Z" fill="#2D373D"/>
<path d="M14.175 15.8351H8.625C8.175 15.8351 7.875 16.1351 7.875 16.5851C7.875 17.0351 8.175 17.3351 8.625 17.3351H14.175C14.625 17.3351 14.925 17.0351 14.925 16.5851C14.925 16.1351 14.625 15.8351 14.175 15.8351Z" fill="#2D373D"/>
<path d="M19.4999 2.41016H8.32489C6.52489 2.41016 5.09989 3.83516 5.09989 5.63516V18.0102C5.09989 20.0352 4.19989 20.5602 3.07489 21.0102C2.77489 21.1602 2.54989 21.4602 2.62489 21.8352C2.69989 22.2102 2.99989 22.4352 3.37489 22.4352H13.2749C15.7499 22.4352 17.6999 20.4852 17.6999 18.0102V9.46016H19.8749C20.7749 9.46016 21.4499 8.78516 21.4499 7.88516V4.36016C21.4499 3.31016 20.6249 2.41016 19.4999 2.41016ZM16.1999 18.0102C16.1999 19.5852 14.9249 20.9352 13.2749 20.9352H5.77489C6.29989 20.3352 6.59989 19.3602 6.59989 18.0102V5.63516C6.59989 4.66016 7.34989 3.91016 8.32489 3.91016H16.2749C16.2749 4.06016 16.1999 4.21016 16.1999 4.36016V18.0102ZM19.9499 7.88516C19.9499 7.96016 19.9499 7.96016 19.8749 7.96016H17.6999V4.36016C17.6999 4.13516 17.9249 3.91016 18.2249 3.91016H19.4999C19.7249 3.91016 19.9499 4.06016 19.9499 4.36016V7.88516Z" fill="#2D373D"/>
</svg>
