<svg width="64" height="65" viewBox="0 0 64 65" fill="none" xmlns="http://www.w3.org/2000/svg">
<path d="M53.1998 55.4604C53.5998 54.8604 53.5998 54.2604 53.3998 53.4604V45.6604C53.3998 44.4604 52.5998 43.6604 51.3998 43.6604C50.1998 43.6604 49.3998 44.4604 49.3998 45.6604V49.2604L42.9998 42.8604C41.1998 41.2604 38.7998 40.6604 36.5998 41.2604L25.3998 44.2604C24.3998 44.4604 23.5998 44.2604 22.9998 43.6604L11.1998 31.4604C10.3998 30.6604 9.1998 30.6604 8.3998 31.4604C7.5998 32.2604 7.5998 33.4604 8.3998 34.2604L20.1998 46.6604C21.7998 48.2604 24.1998 48.8604 26.3998 48.2604L37.5998 45.2604C38.3998 45.0604 39.3998 45.2604 39.9998 45.8604L46.5998 52.4604H42.5998C41.3998 52.4604 40.5998 53.2604 40.5998 54.4604C40.5998 55.6604 41.3998 56.4604 42.5998 56.4604H51.3998C51.5998 56.4604 51.7998 56.4604 51.9998 56.2604C52.5998 56.2604 52.9998 55.8604 53.1998 55.4604Z" fill="#2D373D"/>
<path d="M13.7993 29.8602C14.7993 29.6602 15.5993 28.6602 15.1993 27.4602C13.7993 20.6602 18.3993 13.8602 25.1993 12.4602C28.5993 11.6602 31.9993 12.4602 34.7993 14.2602C37.5993 16.2602 39.5993 19.0602 40.1993 22.4602C41.1993 27.2602 39.3993 32.2602 35.3993 35.2602C34.5993 35.8602 34.3993 37.2602 34.9993 38.0602C35.3993 38.6602 35.9993 38.8602 36.5993 38.8602C36.9993 38.8602 37.3993 38.6602 37.9993 38.2602C43.1993 34.2602 45.5993 27.8602 44.3993 21.4602C43.3993 17.0602 40.9993 13.2602 37.1993 10.8602C33.3993 8.46016 28.9993 7.66016 24.5993 8.46016C15.3993 10.2602 9.59934 19.2602 11.3993 28.2602C11.5993 29.4602 12.5993 30.0602 13.7993 29.8602Z" fill="#2D373D"/>
<path d="M28.8 28.8602H24.8C23.6 28.8602 22.8 29.6602 22.8 30.8602C22.8 32.0602 23.6 32.8602 24.8 32.8602H26C26.2 33.8602 26.8 34.4602 28 34.4602C29 34.4602 29.8 33.6602 30 32.6602C31.6 32.4602 32.8 31.4602 33.2 29.8602C33.8 28.6602 33.8 27.2602 33.2 26.2602C32.6 25.2602 31.8 24.2602 30.6 23.8602L26.6 22.2602C26.4 22.2602 26.2 22.0602 26.2 21.6602C26.2 21.4602 26.4 21.2602 26.4 21.2602C26.4 21.2602 26.6 21.0602 26.8 21.0602H30.8C32 21.0602 32.8 20.2602 32.8 19.0602C32.8 17.8602 32 17.0602 30.8 17.0602H29.8C29.6 16.2602 28.8 15.6602 28 15.6602C27 15.6602 26.2 16.2602 26 17.0602C25 17.4602 24 17.8602 23.4 18.4602C22.4 19.2602 22 20.4602 22 21.6602C22 23.6602 23.2 25.2602 25 26.0602L29 27.6602C29.2 27.8602 29.4 28.0602 29.4 28.0602C29.4 28.0602 29.4 28.2602 29.4 28.4602C29.4 28.6602 29 28.8602 28.8 28.8602Z" fill="#2D373D"/>
</svg>
