<svg width="24" height="24" viewBox="0 0 24 24" fill="none" xmlns="http://www.w3.org/2000/svg">
<path d="M20.1002 6.90019H18.3752V3.9002C18.3752 2.8502 17.4752 1.9502 16.3502 1.9502H7.6502C6.6002 1.9502 5.7002 2.8502 5.7002 3.9002V6.90019H3.9752C2.8502 6.90019 1.9502 7.80019 1.9502 8.92519V15.1502C1.9502 16.2002 2.8502 17.1002 3.9752 17.1002H5.7002V21.3002C5.7002 21.7502 6.0002 22.0502 6.4502 22.0502H17.6252C18.0002 22.0502 18.3752 21.7502 18.3752 21.3002V17.1002H20.1002C21.2252 17.1002 22.1252 16.2002 22.1252 15.0752V8.8502C22.1252 7.8002 21.2252 6.90019 20.1002 6.90019ZM7.2002 3.9752C7.2002 3.6752 7.4252 3.4502 7.6502 3.3752H16.3502C16.6502 3.3752 16.8752 3.6002 16.8752 3.9002V6.90019H7.2002V3.9752ZM16.8752 20.5502H7.2002V13.3502H16.8752V20.5502ZM20.6252 15.0752C20.6252 15.3752 20.4002 15.6002 20.1002 15.6002H18.3752V12.6002C18.3752 12.1502 18.0752 11.8502 17.6252 11.8502H6.4502C6.0002 11.8502 5.7002 12.1502 5.7002 12.6002V15.6752H3.9752C3.6752 15.6752 3.4502 15.4502 3.4502 15.1502V8.92519C3.4502 8.62519 3.6752 8.4002 3.9752 8.4002H20.1002C20.4002 8.4002 20.6252 8.62519 20.6252 8.92519V15.0752Z" fill="#2D373D"/>
<path d="M6.45023 9.37512H5.17523C4.72523 9.37512 4.42523 9.67512 4.42523 10.1251C4.42523 10.5751 4.72523 10.8751 5.17523 10.8751H6.45023C6.82523 10.8751 7.20023 10.5751 7.20023 10.1251C7.20023 9.67512 6.90023 9.37512 6.45023 9.37512Z" fill="#2D373D"/>
<path d="M15.1502 14.4003H8.92523C8.47523 14.4003 8.17523 14.7003 8.17523 15.1503C8.17523 15.6003 8.47523 15.9003 8.92523 15.9003H15.1502C15.5252 15.9003 15.9002 15.6003 15.9002 15.1503C15.9002 14.7003 15.6002 14.4003 15.1502 14.4003Z" fill="#2D373D"/>
<path d="M13.2752 16.8751H8.92523C8.47523 16.8751 8.17523 17.1751 8.17523 17.6251C8.17523 18.0751 8.47523 18.3751 8.92523 18.3751H13.2752C13.6502 18.3751 14.0252 18.0751 14.0252 17.6251C14.0252 17.1751 13.7252 16.8751 13.2752 16.8751Z" fill="#2D373D"/>
</svg>
