<svg width="24" height="25" viewBox="0 0 24 25" fill="none" xmlns="http://www.w3.org/2000/svg">
<path d="M16.9497 15.9118L15.4497 15.3118C15.3747 15.3118 15.2997 15.1618 15.2997 15.0868C15.2997 15.0118 15.3747 14.9368 15.3747 14.9368C15.3747 14.9368 15.4497 14.8618 15.5247 14.8618H17.0247C17.4747 14.8618 17.7747 14.5618 17.7747 14.1118C17.7747 13.6618 17.4747 13.3618 17.0247 13.3618H16.4997C16.4247 13.0618 16.1247 12.8368 15.8247 12.8368C15.4497 12.8368 15.1497 13.0618 15.0747 13.4368C14.6997 13.5118 14.4747 13.6618 14.2497 13.8868C13.9497 14.1868 13.7247 14.6368 13.7247 15.0868C13.7247 15.8368 14.1747 16.5118 14.8497 16.7368L16.3497 17.3368C16.4997 17.4118 16.5747 17.4868 16.4997 17.6368C16.4247 17.7118 16.3497 17.7868 16.2747 17.7868H14.7747C14.3247 17.7868 14.0247 18.0868 14.0247 18.5368C14.0247 18.9868 14.3247 19.2868 14.7747 19.2868H15.1497C15.2247 19.5868 15.5247 19.8118 15.8247 19.8118C16.1997 19.8118 16.4997 19.5868 16.5747 19.2118C17.0997 19.1368 17.6247 18.6868 17.9247 18.1618C18.1497 17.7118 18.0747 17.2618 17.9247 16.8118C17.6997 16.4368 17.3997 16.0618 16.9497 15.9118Z" fill="#2D373D"/>
<path d="M15.825 11.1118C12.975 11.1118 10.65 13.4368 10.65 16.2868C10.65 19.1368 12.975 21.4618 15.825 21.4618C18.675 21.4618 21 19.1368 21 16.2868C21 13.4368 18.675 11.1118 15.825 11.1118ZM15.825 19.9618C13.8 19.9618 12.15 18.3118 12.15 16.2868C12.15 14.2618 13.8 12.6118 15.825 12.6118C17.85 12.6118 19.5 14.2618 19.5 16.2868C19.5 18.3118 17.85 19.9618 15.825 19.9618Z" fill="#2D373D"/>
<path d="M9.1498 17.7117H4.7248C4.6498 17.7117 4.5748 17.7117 4.4998 17.6367C4.4998 17.6367 4.4248 17.5617 4.4248 17.4117V5.26172C4.4248 5.03672 4.5748 4.88672 4.7998 4.88672H12.5998C12.7498 4.88672 12.8248 4.96172 12.8998 5.03672L14.9998 7.13672C15.0748 7.21172 15.0748 7.28672 15.0748 7.36172V9.68672C15.0748 10.1367 15.3748 10.4367 15.8248 10.4367C16.2748 10.4367 16.5748 10.1367 16.5748 9.68672V7.36172C16.5748 6.83672 16.4248 6.38672 16.1248 6.01172L14.0248 3.91172C13.6498 3.61172 13.1998 3.38672 12.6748 3.38672H4.7998C3.7498 3.38672 2.9248 4.21172 2.9248 5.26172V17.4117C2.9248 17.9367 3.2248 18.4617 3.5248 18.7617C3.8248 19.0617 4.2748 19.2867 4.7998 19.2867C4.7998 19.2867 4.7998 19.2867 4.7998 19.2117H9.1498C9.5998 19.2117 9.8998 18.9117 9.8998 18.4617C9.8998 18.0117 9.5998 17.7117 9.1498 17.7117Z" fill="#2D373D"/>
</svg>
