<svg width="32" height="33" viewBox="0 0 32 33" fill="none" xmlns="http://www.w3.org/2000/svg">
<path d="M22.0999 4.36133H9.8999C6.5999 4.36133 3.8999 7.06133 3.8999 10.3613V22.5613C3.8999 25.8613 6.5999 28.5613 9.8999 28.5613H22.0999C25.3999 28.5613 28.0999 25.8613 28.0999 22.5613V10.3613C28.0999 7.06133 25.3999 4.36133 22.0999 4.36133ZM26.0999 22.5613C26.0999 24.7613 24.2999 26.5613 22.0999 26.5613H9.8999C7.6999 26.5613 5.8999 24.7613 5.8999 22.5613V10.3613C5.8999 8.16133 7.6999 6.36133 9.8999 6.36133H22.0999C24.2999 6.36133 26.0999 8.16133 26.0999 10.3613V22.5613Z" fill="#2D373D"/>
<path d="M16 9.96143C12.4 9.96143 9.5 12.8614 9.5 16.4614C9.5 20.0614 12.4 22.9614 16 22.9614C19.6 22.9614 22.5 20.0614 22.5 16.4614C22.5 12.8614 19.6 9.96143 16 9.96143ZM16 20.8614C13.5 20.8614 11.5 18.8614 11.5 16.3614C11.5 13.8614 13.5 11.8614 16 11.8614C18.5 11.8614 20.5 13.8614 20.5 16.3614C20.5 18.8614 18.5 20.8614 16 20.8614Z" fill="#2D373D"/>
<path d="M22.5 11.3613C23.3284 11.3613 24 10.6898 24 9.86133C24 9.0329 23.3284 8.36133 22.5 8.36133C21.6716 8.36133 21 9.0329 21 9.86133C21 10.6898 21.6716 11.3613 22.5 11.3613Z" fill="#2D373D"/>
</svg>
