<svg width="64" height="65" viewBox="0 0 64 65" fill="none" xmlns="http://www.w3.org/2000/svg">
<path d="M46.8016 28.6616L49.2016 24.4616C49.8016 23.4616 49.8016 22.2616 49.2016 21.2616C48.6016 20.2616 47.6016 19.6616 46.6016 19.6616H35.0016C34.0016 19.6616 33.0016 20.2616 32.4016 21.2616C31.8016 22.2616 31.8016 23.4616 32.4016 24.4616L34.8016 28.6616C31.6016 30.4616 25.6016 34.4616 25.6016 42.4616C25.6016 50.2616 32.2016 56.4616 40.6016 56.4616C49.2016 56.4616 56.0016 50.2616 56.0016 42.2616C56.0016 34.2616 50.0016 30.4616 46.8016 28.6616ZM40.4016 52.4616C34.2016 52.4616 29.4016 48.0616 29.4016 42.4616C29.4016 36.0616 34.8016 33.2616 37.4016 31.8616C38.0016 31.6616 38.4016 31.4616 38.6016 31.2616C39.4016 30.8616 39.8016 29.6616 39.2016 28.6616L36.6016 24.0616V23.8616H44.6016L42.0016 28.4616C41.6016 29.2616 41.8016 30.4616 42.6016 31.0616C43.0016 31.2616 43.6016 31.6616 44.2016 32.0616C47.0016 33.6616 51.8016 36.4616 51.8016 42.4616C51.8016 48.0616 46.8016 52.4616 40.4016 52.4616Z" fill="#2D373D"/>
<path d="M20.2008 39.2617H12.0008C11.8008 39.2617 11.8008 39.2617 11.8008 39.0617V19.6617H30.4008C31.6008 19.6617 32.4008 18.8617 32.4008 17.6617C32.4008 16.4617 31.6008 15.6617 30.4008 15.6617H11.8008V12.4617L12.0008 12.2617H44.4008C44.6008 12.2617 44.6008 12.2617 44.6008 12.4617V16.2617C44.6008 17.4617 45.4008 18.2617 46.6008 18.2617C47.8008 18.2617 48.6008 17.4617 48.6008 16.2617V12.4617C48.6008 10.0617 46.8008 8.26172 44.4008 8.26172H12.0008C11.0008 8.26172 9.80078 8.66172 9.00078 9.46172C8.20078 10.2617 7.80078 11.2617 7.80078 12.4617V39.0617C7.80078 41.4617 9.80078 43.2617 12.0008 43.2617H20.2008C21.4008 43.2617 22.2008 42.4617 22.2008 41.2617C22.2008 40.0617 21.4008 39.2617 20.2008 39.2617Z" fill="#2D373D"/>
<path d="M40.8 40.0618C39.6 40.0618 38.8 39.4618 38.8 39.0618C38.8 38.6618 39.6 38.0618 41 38.0618C41.8 38.0618 42.6 38.4618 43 39.0618C43.6 39.8618 45 40.0618 45.8 39.4618C46.6 38.8618 46.8 37.4618 46.2 36.6618C45.4 35.4618 44.2 34.6618 42.8 34.2618V33.8618C42.8 32.6618 42 31.8618 40.8 31.8618C39.6 31.8618 38.8 32.6618 38.8 33.8618V34.4618C36.6 35.2618 35 37.0618 35 39.0618C35 41.8618 37.6 44.0618 41 44.0618C42.2 44.0618 43 44.6618 43 45.0618C43 45.4618 42.2 46.0618 40.8 46.0618C40 46.0618 39.2 45.6618 38.8 45.0618C38.2 44.2618 36.8 44.0618 36 44.6618C35.2 45.2618 35 46.6618 35.6 47.4618C36.4 48.4618 37.6 49.2618 38.8 49.6618V50.0618C38.8 51.2618 39.6 52.0618 40.8 52.0618C41.8 52.0618 42.8 51.2618 42.8 50.0618V49.8618C45.2 49.2618 46.8 47.4618 46.8 45.0618C46.8 42.2618 44.2 40.0618 40.8 40.0618Z" fill="#2D373D"/>
</svg>
