<svg width="32" height="33" viewBox="0 0 32 33" fill="none" xmlns="http://www.w3.org/2000/svg">
<path d="M16.0002 16.6605C19.7002 16.6605 22.8002 13.6605 22.8002 9.86055C22.8002 6.06055 19.8002 3.06055 16.0002 3.06055C12.2002 3.06055 9.2002 6.16055 9.2002 9.86055C9.2002 13.5605 12.2002 16.6605 16.0002 16.6605ZM16.0002 5.06055C18.6002 5.06055 20.8002 7.16055 20.8002 9.86055C20.8002 12.5605 18.6002 14.6605 16.0002 14.6605C13.3002 14.6605 11.2002 12.5605 11.2002 9.86055C11.2002 7.16055 13.3002 5.06055 16.0002 5.06055Z" fill="#2D373D"/>
<path d="M16.0002 17.0605H15.9002C12.7002 17.0605 9.8002 18.3605 7.6002 20.5605C5.4002 22.7605 4.2002 25.7605 4.2002 28.8605C4.2002 29.4605 4.7002 29.8605 5.2002 29.8605C5.8002 29.8605 6.2002 29.4605 6.2002 28.8605C6.2002 26.2605 7.2002 23.7605 8.9002 21.8605C10.8002 20.0605 13.2002 18.9605 15.8002 18.9605H15.9002C21.3002 18.9605 25.6002 23.2605 25.7002 28.6605V28.8605C25.7002 29.3605 26.1002 29.8605 26.7002 29.8605C27.3002 29.8605 27.7002 29.4605 27.8002 28.8605V28.6605C27.7002 22.2605 22.4002 17.0605 16.0002 17.0605Z" fill="#2D373D"/>
</svg>
