<svg width="32" height="33" viewBox="0 0 32 33" fill="none" xmlns="http://www.w3.org/2000/svg">
<path d="M18.9 9.8606H11.5C10.9 9.8606 10.5 10.2606 10.5 10.8606C10.5 11.4606 10.9 11.8606 11.5 11.8606H18.9C19.5 11.8606 19.9 11.4606 19.9 10.8606C19.9 10.2606 19.5 9.8606 18.9 9.8606Z" fill="#2D373D"/>
<path d="M18.9 15.2605H11.5C10.9 15.2605 10.5 15.6605 10.5 16.2605C10.5 16.8605 10.9 17.2605 11.5 17.2605H18.9C19.5 17.2605 19.9 16.8605 19.9 16.2605C19.9 15.6605 19.5 15.2605 18.9 15.2605Z" fill="#2D373D"/>
<path d="M18.9 20.9604H11.5C10.9 20.9604 10.5 21.3604 10.5 21.9604C10.5 22.5604 10.9 22.9604 11.5 22.9604H18.9C19.5 22.9604 19.9 22.5604 19.9 21.9604C19.9 21.3604 19.5 20.9604 18.9 20.9604Z" fill="#2D373D"/>
<path d="M25.9998 3.06055H11.0999C8.69985 3.06055 6.79985 4.96055 6.79985 7.36055V23.8605C6.79985 26.5605 5.59985 27.2605 4.09985 27.8605C3.69985 28.0605 3.39985 28.4605 3.49985 28.9605C3.59985 29.4605 3.99985 29.7605 4.49985 29.7605H17.6999C20.9999 29.7605 23.5998 27.1605 23.5998 23.8605V12.4605H26.4998C27.6999 12.4605 28.5998 11.5605 28.5998 10.3605V5.66055C28.5998 4.26055 27.4998 3.06055 25.9998 3.06055ZM21.5998 23.8605C21.5998 25.9605 19.8999 27.7605 17.6999 27.7605H7.69985C8.39985 26.9605 8.79985 25.6605 8.79985 23.8605V7.36055C8.79985 6.06055 9.79985 5.06055 11.0999 5.06055H21.6999C21.6999 5.26055 21.5998 5.46055 21.5998 5.66055V23.8605ZM26.5998 10.3605C26.5998 10.4605 26.5998 10.4605 26.4998 10.4605H23.5998V5.66055C23.5998 5.36055 23.8998 5.06055 24.2998 5.06055H25.9998C26.2998 5.06055 26.5998 5.26055 26.5998 5.66055V10.3605Z" fill="#2D373D"/>
</svg>
