<svg width="64" height="65" viewBox="0 0 64 65" fill="none" xmlns="http://www.w3.org/2000/svg">
<path d="M58.8002 27.6617C58.8002 26.4617 58.0002 25.6617 56.8002 25.6617C55.6002 25.6617 54.8002 26.4617 54.8002 27.6617C54.8002 28.6617 54.6002 29.2617 54.2002 29.6617C54.0002 29.8617 53.6002 30.0617 53.2002 30.2617C52.6002 24.6617 49.6002 20.0617 45.2002 16.6617C39.4002 12.4617 31.4002 11.0617 24.2002 12.8617C20.8002 8.26172 14.2002 8.26172 14.0002 8.26172C13.4002 8.26172 12.8002 8.46172 12.4002 8.86172C12.0002 9.26172 12.0002 9.86172 12.0002 10.4617L13.4002 19.6617C12.0002 21.2617 10.8002 23.2617 10.0002 25.2617H7.2002C6.0002 25.2617 5.2002 26.0617 5.2002 27.2617V40.6617C5.2002 41.8617 6.0002 42.6617 7.2002 42.6617H11.8002C12.8002 44.2617 14.0002 45.8617 15.4002 47.0617V52.6617C15.4002 54.8617 17.2002 56.4617 19.2002 56.4617H22.4002C24.6002 56.4617 26.2002 54.6617 26.2002 52.6617V52.4617C29.4002 53.0617 32.6002 53.0617 35.8002 52.4617V52.6617C35.8002 54.8617 37.6002 56.4617 39.6002 56.4617H43.0002C45.0002 56.4617 46.6002 54.8617 46.6002 53.0617V47.4617C50.4002 44.2617 52.8002 39.4617 53.4002 34.2617C55.0002 33.8617 56.2002 33.2617 57.0002 32.4617C58.2002 31.2617 58.8002 29.6617 58.8002 27.6617ZM43.4002 44.6617C42.8002 45.0617 42.6002 45.6617 42.6002 46.2617V52.4617H39.8002V49.8617C39.8002 49.2617 39.6002 48.6617 39.0002 48.2617C38.4002 48.0617 37.8002 47.8617 37.2002 48.0617C33.2002 49.4617 28.8002 49.4617 24.8002 48.0617C24.2002 47.8617 23.6002 47.8617 23.0002 48.2617C22.6002 48.6617 22.2002 49.2617 22.2002 49.8617V52.4617H19.4002V46.2617C19.4002 45.6617 19.2002 45.0617 18.6002 44.6617C17.0002 43.2617 15.6002 41.6617 14.6002 39.8617C14.2002 39.2617 13.6002 38.8617 12.8002 38.8617H9.2002V29.2617H11.4002C12.4002 29.2617 13.2002 28.6617 13.4002 27.8617C14.0002 25.4617 15.2002 23.2617 16.8002 21.6617C17.2002 21.2617 17.4002 20.6617 17.4002 20.0617L16.4002 12.6617C18.2002 13.0617 20.6002 13.8617 21.6002 15.8617C22.0002 16.8617 23.0002 17.2617 24.0002 16.8617C30.4002 14.8617 37.8002 15.8617 43.0002 19.6617C45.8002 21.6617 49.4002 25.6617 49.4002 32.2617C49.4002 37.0617 47.2002 41.6617 43.4002 44.6617Z" fill="#2D373D"/>
<path d="M38.8004 20.4616C34.0004 18.0616 28.2004 18.0616 23.4004 20.4616C22.4004 20.8616 22.0004 22.0616 22.4004 23.0616C22.8004 23.8616 23.4004 24.2616 24.2004 24.2616C24.6004 24.2616 24.8004 24.0616 25.2004 24.0616C28.8004 22.0616 33.2004 22.0616 37.2004 24.0616C38.2004 24.4616 39.4004 24.0616 39.8004 23.0616C40.2003 22.0616 39.8004 20.8616 38.8004 20.4616Z" fill="#2D373D"/>
<path d="M20.0002 27.0615C18.4002 27.0615 17.2002 28.2615 17.2002 29.8615C17.2002 31.4615 18.4002 32.6615 20.0002 32.6615C21.6002 32.6615 22.8002 31.4615 22.8002 29.8615C22.8002 28.2615 21.6002 27.0615 20.0002 27.0615Z" fill="#2D373D"/>
</svg>
