<svg width="64" height="65" viewBox="0 0 64 65" fill="none" xmlns="http://www.w3.org/2000/svg">
<path d="M29.9998 32.0617C30.9998 31.4617 31.3998 30.2617 30.7998 29.2617C29.1998 26.2617 26.5998 24.2617 23.3998 23.2617C25.9998 22.0617 27.9998 19.2617 27.9998 16.2617C27.9998 14.0617 27.1998 12.0617 25.7998 10.6617C24.1998 9.06172 22.3998 8.26172 20.1998 8.26172C15.7998 8.26172 12.1998 11.8617 12.1998 16.0617C12.1998 18.2617 12.9998 20.0617 14.5998 21.6617C15.3998 22.4617 16.1998 22.8617 16.9998 23.2617C15.9998 23.6617 14.9998 24.0617 13.9998 24.4617C10.1998 26.6617 7.7998 30.8617 7.7998 35.2617V39.6617C7.7998 40.8617 8.5998 41.6617 9.7998 41.6617H12.5998L13.7998 54.6617C13.9998 55.6617 14.7998 56.4617 15.7998 56.4617H24.5998C25.5998 56.4617 26.3998 55.6617 26.3998 54.6617L26.9998 48.2617C27.1998 47.0617 26.1998 46.2617 25.1998 46.0617C23.9998 46.0617 23.1998 46.8617 22.9998 47.8617L22.5998 52.4617H17.3998L16.1998 39.4617C15.9998 38.4617 15.1998 37.6617 14.1998 37.6617H11.7998V35.2617C11.7998 32.2617 13.3998 29.6617 15.9998 28.0617C17.9998 27.0617 19.9998 26.6617 22.1998 27.2617C24.3998 27.8617 25.9998 29.2617 27.1998 31.2617C27.7998 32.2617 28.9998 32.6617 29.9998 32.0617ZM20.1998 12.2617C21.1998 12.2617 22.1998 12.6617 22.9998 13.2617C23.7998 14.0617 24.1998 15.0617 24.1998 16.0617C24.1998 18.2617 22.3998 20.0617 20.1998 20.0617C17.9998 20.0617 16.1998 18.2617 16.1998 16.0617C16.3998 14.0617 18.1998 12.2617 20.1998 12.2617Z" fill="#2D373D"/>
<path d="M54.0001 40.6618C52.8001 40.6618 52.0001 41.4618 52.0001 42.6618C52.0001 48.0618 47.6001 52.4618 42.2001 52.4618C36.8001 52.4618 32.4001 48.0618 32.4001 42.6618C32.4001 37.2618 36.8001 32.8618 42.2001 32.8618C43.4001 32.8618 44.2001 32.0618 44.2001 30.8618C44.2001 29.6618 43.4001 28.8618 42.2001 28.8618C34.6001 28.8618 28.4001 35.0618 28.4001 42.6618C28.4001 50.2618 34.6001 56.4618 42.2001 56.4618C49.8001 56.4618 56.0001 50.2618 56.0001 42.6618C56.0001 41.4618 55.2001 40.6618 54.0001 40.6618Z" fill="#2D373D"/>
<path d="M39.1998 39.8618C38.3998 39.0618 37.1998 39.0618 36.3998 39.8618C35.5998 40.6618 35.5998 41.8618 36.3998 42.6618L39.7998 46.0618C40.3998 46.6618 41.3998 47.0618 42.1998 47.0618C43.1998 47.0618 43.9998 46.6618 44.5998 46.0618L55.3998 35.2618C56.1998 34.4618 56.1998 33.2618 55.3998 32.4618C54.5998 31.6618 53.3998 31.6618 52.5998 32.4618L42.1998 42.8618L39.1998 39.8618Z" fill="#2D373D"/>
</svg>
