<svg width="64" height="65" viewBox="0 0 64 65" fill="none" xmlns="http://www.w3.org/2000/svg">
<path d="M23.4401 38.3101C23.0893 37.7278 22.6272 37.2203 22.0801 36.8167C21.5371 36.4282 20.9198 36.1558 20.2668 36.0167C19.6172 35.8701 18.943 35.8701 18.2934 36.0167V32.7901C18.2966 32.1105 18.1638 31.4372 17.9027 30.8098C17.6417 30.1823 17.2577 29.6135 16.7734 29.1367C15.7858 28.2144 14.4848 27.7015 13.1334 27.7015C11.7821 27.7015 10.4811 28.2144 9.49344 29.1367C8.52729 30.1103 7.97337 31.4187 7.94678 32.7901V43.6967C7.98363 46.3235 8.9255 48.8571 10.6134 50.8701L14.8001 56.2034C14.9864 56.4433 15.2249 56.6376 15.4975 56.7716C15.7701 56.9056 16.0697 56.9758 16.3734 56.9767C16.8188 56.977 17.2511 56.8266 17.6001 56.5501C18.0163 56.2239 18.2863 55.7463 18.3513 55.2216C18.4163 54.6969 18.2708 54.1678 17.9468 53.7501L13.7334 48.4167C12.6657 47.0852 12.0827 45.4301 12.0801 43.7234V32.7901C12.0801 32.486 12.2009 32.1943 12.416 31.9793C12.631 31.7642 12.9227 31.6434 13.2268 31.6434C13.5309 31.6434 13.8226 31.7642 14.0376 31.9793C14.2526 32.1943 14.3734 32.486 14.3734 32.7901V40.4434C14.2736 41.4376 14.4683 42.4391 14.9334 43.3234L17.7868 48.0701C18.0619 48.5009 18.4915 48.8101 18.9874 48.9341C19.4834 49.0581 20.008 48.9875 20.4534 48.7367C20.894 48.4705 21.213 48.0426 21.3426 47.5444C21.4721 47.0463 21.4018 46.5172 21.1468 46.0701L18.4801 41.4567C18.4008 41.2324 18.4008 40.9877 18.4801 40.7634C18.4579 40.5157 18.504 40.2667 18.6134 40.0434L18.9601 39.9101H19.3334C19.4681 39.9354 19.5956 39.99 19.7068 40.0701C19.836 40.1662 19.9372 40.2951 20.0001 40.4434L22.4001 44.0701C23.224 45.3004 23.6605 46.7494 23.6534 48.2301V54.8434C23.6534 55.3738 23.8642 55.8825 24.2392 56.2576C24.6143 56.6327 25.123 56.8434 25.6534 56.8434C26.1839 56.8434 26.6926 56.6327 27.0677 56.2576C27.4427 55.8825 27.6534 55.3738 27.6534 54.8434V48.2301C27.6577 45.9625 26.9895 43.7446 25.7334 41.8567L23.4401 38.3101Z" fill="#2D373D"/>
<path d="M54.5068 29.0301C53.5191 28.1078 52.2181 27.5948 50.8668 27.5948C49.5154 27.5948 48.2145 28.1078 47.2268 29.0301C46.7294 29.5193 46.3379 30.1055 46.0764 30.7523C45.8149 31.399 45.6891 32.0927 45.7068 32.7901V35.9901C45.0572 35.8434 44.383 35.8434 43.7334 35.9901C43.0682 36.1314 42.4409 36.4133 41.8934 36.8167C41.3651 37.1818 40.9198 37.6543 40.5868 38.2034L38.2134 41.8301C36.9544 43.7166 36.286 45.9354 36.2934 48.2034V54.8167C36.2934 55.3472 36.5042 55.8559 36.8792 56.231C37.2543 56.606 37.763 56.8167 38.2934 56.8167C38.8239 56.8167 39.3326 56.606 39.7077 56.231C40.0827 55.8559 40.2934 55.3472 40.2934 54.8167V48.2034C40.2901 46.7315 40.7265 45.2922 41.5468 44.0701L43.9734 40.3634C44.041 40.2481 44.1318 40.1482 44.2401 40.0701C44.3445 39.9953 44.4621 39.941 44.5868 39.9101H44.9868C45.1592 39.9542 45.3178 40.0407 45.4483 40.1618C45.5787 40.2829 45.6767 40.4347 45.7334 40.6034C45.7764 40.7786 45.7764 40.9616 45.7334 41.1367L42.8534 45.9101C42.5984 46.3572 42.5281 46.8863 42.6576 47.3844C42.7872 47.8826 43.1062 48.3105 43.5468 48.5767C43.9923 48.8275 44.5169 48.8981 45.0128 48.7741C45.5087 48.6501 45.9384 48.3409 46.2134 47.9101L49.1468 43.0301C49.5539 42.2039 49.7202 41.2797 49.6268 40.3634V32.7901C49.6268 32.486 49.7476 32.1943 49.9626 31.9793C50.1777 31.7642 50.4693 31.6434 50.7734 31.6434C51.0776 31.6434 51.3692 31.7642 51.5843 31.9793C51.7993 32.1943 51.9201 32.486 51.9201 32.7901V43.6967C51.9176 45.4035 51.3345 47.0586 50.2668 48.3901L46.0534 53.7234C45.7294 54.1412 45.584 54.6702 45.6489 55.1949C45.7139 55.7196 45.984 56.1973 46.4001 56.5234C46.7491 56.8 47.1815 56.9503 47.6268 56.9501C47.9305 56.9491 48.2301 56.879 48.5027 56.745C48.7753 56.611 49.0138 56.4167 49.2001 56.1767L53.3868 50.8434C55.023 48.8 55.9162 46.2612 55.9201 43.6434V32.7901C55.957 31.4004 55.4499 30.0513 54.5068 29.0301Z" fill="#2D373D"/>
<path d="M39.5468 32.3901C39.612 32.6616 39.7334 32.9164 39.9031 33.1382C40.0728 33.3599 40.2871 33.5437 40.5321 33.6776C40.7772 33.8116 41.0475 33.8927 41.3258 33.9158C41.6041 33.9389 41.8842 33.9035 42.1479 33.8119C42.4117 33.7202 42.6533 33.5743 42.8573 33.3836C43.0613 33.1929 43.2231 32.9616 43.3322 32.7045C43.4414 32.4475 43.4955 32.1705 43.4912 31.8913C43.4868 31.6121 43.424 31.3369 43.3068 31.0834C42.4798 28.8704 40.9416 26.9945 38.9334 25.7501C38.0139 25.0837 36.9976 24.5621 35.9201 24.2034C36.5874 23.8386 37.2057 23.3906 37.7601 22.8701C39.2812 21.3281 40.1339 19.2493 40.1339 17.0834C40.1339 14.9175 39.2812 12.8387 37.7601 11.2967C36.2109 9.8104 34.147 8.98047 32.0001 8.98047C29.8532 8.98047 27.7893 9.8104 26.2401 11.2967C24.7191 12.8387 23.8663 14.9175 23.8663 17.0834C23.8663 19.2493 24.7191 21.3281 26.2401 22.8701C26.7946 23.3906 27.4128 23.8386 28.0801 24.2034C27.0073 24.5732 25.9927 25.094 25.0668 25.7501C23.0215 27.1784 21.4885 29.2255 20.6934 31.5901C20.5879 31.8447 20.5362 32.1184 20.5415 32.3939C20.5468 32.6695 20.609 32.941 20.7242 33.1914C20.8393 33.4418 21.005 33.6657 21.2108 33.849C21.4166 34.0323 21.6581 34.1712 21.9201 34.2567C22.1327 34.2824 22.3476 34.2824 22.5601 34.2567C22.9917 34.2493 23.4093 34.1025 23.7506 33.8381C24.0918 33.5738 24.3384 33.2061 24.4534 32.7901C24.8626 31.6222 25.5371 30.5651 26.4239 29.702C27.3107 28.8389 28.3856 28.1933 29.5641 27.816C30.7427 27.4387 31.9927 27.3399 33.2159 27.5274C34.4391 27.7149 35.6021 28.1837 36.6134 28.8967C37.9701 29.6818 39.0082 30.9181 39.5468 32.3901ZM29.0668 14.1234C29.451 13.7364 29.908 13.4292 30.4114 13.2196C30.9148 13.01 31.4548 12.9021 32.0001 12.9021C32.5454 12.9021 33.0854 13.01 33.5888 13.2196C34.0923 13.4292 34.5492 13.7364 34.9334 14.1234C35.7089 14.9127 36.1403 15.9769 36.1334 17.0834C36.1334 17.6262 36.0265 18.1637 35.8188 18.6652C35.6111 19.1666 35.3066 19.6223 34.9228 20.0061C34.539 20.3899 34.0833 20.6944 33.5819 20.9021C33.0804 21.1098 32.5429 21.2167 32.0001 21.2167C31.4573 21.2167 30.9198 21.1098 30.4184 20.9021C29.9169 20.6944 29.4612 20.3899 29.0774 20.0061C28.6936 19.6223 28.3891 19.1666 28.1814 18.6652C27.9737 18.1637 27.8668 17.6262 27.8668 17.0834C27.8599 15.9769 28.2913 14.9127 29.0668 14.1234Z" fill="#2D373D"/>
</svg>
