<svg width="64" height="65" viewBox="0 0 64 65" fill="none" xmlns="http://www.w3.org/2000/svg">
<path fill-rule="evenodd" clip-rule="evenodd" d="M54.554 53.7183C54.9484 54.5963 54.306 55.5887 53.3435 55.5887H41.355C40.3924 55.5887 39.7501 54.5963 40.1444 53.7183L46.1387 39.19C46.6077 38.1456 48.0907 38.1456 48.5598 39.19L54.554 53.7183ZM36.4632 52.153C34.948 55.66 37.5187 59.5887 41.355 59.5887H53.3435C57.1798 59.5887 59.7504 55.66 58.2353 52.153L52.2574 37.6644C52.2417 37.6264 52.2255 37.5887 52.2087 37.5512C50.3256 33.3586 44.3728 33.3586 42.4898 37.5512C42.473 37.5887 42.4567 37.6264 42.441 37.6644L36.4632 52.153Z" fill="#2D373D"/>
<path fill-rule="evenodd" clip-rule="evenodd" d="M47.3598 42.5888C48.2803 42.5888 49.0265 43.335 49.0265 44.2554V47.5888C49.0265 48.5092 48.2803 49.2554 47.3598 49.2554C46.4393 49.2554 45.6931 48.5092 45.6931 47.5888V44.2554C45.6931 43.335 46.4393 42.5888 47.3598 42.5888Z" fill="#2D373D"/>
<path d="M48.9998 51.9221C48.9998 52.8426 48.2536 53.5888 47.3331 53.5888C46.4126 53.5888 45.6664 52.8426 45.6664 51.9221C45.6664 51.0016 46.4126 50.2554 47.3331 50.2554C48.2536 50.2554 48.9998 51.0016 48.9998 51.9221Z" fill="#2D373D"/>
<path fill-rule="evenodd" clip-rule="evenodd" d="M30.2811 6.58808C31.3865 6.15814 32.613 6.15814 33.7185 6.58808L57.3788 15.7901C58.1484 16.0894 58.6553 16.8304 58.6553 17.6561V31.3536C58.6553 32.4594 57.7589 33.3558 56.6531 33.3558C55.5473 33.3558 54.6509 32.4594 54.6509 31.3536V20.5831L34.002 28.6139V54.6392C34.002 55.3002 33.6758 55.9186 33.1302 56.2918C32.5846 56.665 31.8901 56.7448 31.274 56.5053L6.6207 46.9171C5.85114 46.6178 5.34424 45.8767 5.34424 45.051V17.6561C5.34424 16.8304 5.85114 16.0894 6.6207 15.7901L30.2811 6.58808ZM31.9998 25.0961L38.8027 22.4502L19.6731 15.0103L12.8702 17.6561L31.9998 25.0961ZM9.34864 20.5831V43.6814L29.9976 51.7122V28.6139L9.34864 20.5831ZM25.1968 12.862L44.3264 20.302L51.1294 17.6561L32.267 10.3202C32.0951 10.2533 31.9044 10.2533 31.7326 10.3202L25.1968 12.862Z" fill="#2D373D"/>
</svg>
