<svg width="16" height="17" viewBox="0 0 16 17" fill="none" xmlns="http://www.w3.org/2000/svg">
<path d="M5.3002 10.2738C4.4002 10.2738 3.7002 10.9738 3.7002 11.8738C3.7002 12.7738 4.4002 13.4738 5.3002 13.4738C6.1502 13.4738 6.9002 12.7738 6.9002 11.8738C6.9002 10.9738 6.2002 10.2738 5.3002 10.2738ZM5.3002 12.4738C4.9502 12.4738 4.7002 12.2238 4.7002 11.8738C4.7002 11.5238 4.9502 11.2738 5.3002 11.2738C5.6002 11.2738 5.9002 11.5238 5.9002 11.8738C5.9002 12.2238 5.6502 12.4738 5.3002 12.4738Z" fill="#2D373D"/>
<path d="M13.3002 11.2238V9.22383C13.3002 8.67383 12.9002 8.17383 12.4002 8.02383L10.9002 7.52383L10.0502 5.27383C10.1502 5.17383 10.2002 5.07383 10.2502 4.92383V3.92383C10.2502 3.37383 9.8002 2.92383 9.2502 2.92383H5.0502C4.5002 2.92383 4.0502 3.37383 4.0502 3.92383V4.92383C4.0502 5.07383 4.1002 5.22383 4.2002 5.32383L3.2502 7.82383C3.0502 7.92383 2.8502 8.02383 2.7002 8.12383C2.5002 8.27383 2.3002 8.47383 2.1002 8.62383C1.9002 8.82383 1.9002 9.12383 2.1002 9.32383C2.3002 9.52383 2.6002 9.52383 2.8002 9.32383C2.9502 9.22383 3.1002 9.07383 3.2502 8.97383C4.9502 7.87383 7.2002 8.32383 8.3002 9.97383L8.5502 10.3238C8.6502 10.4238 8.8002 10.5238 8.9502 10.5238H10.4502C10.6002 10.5238 10.7002 10.4738 10.8002 10.3738C10.9002 10.2738 10.9502 10.1738 10.9502 10.0238V8.52383L12.1502 8.92383C12.2502 8.97383 12.3002 9.07383 12.3002 9.17383V10.7238C12.1502 10.6738 12.0002 10.6738 11.8502 10.6738C10.7502 10.6738 9.8502 11.4738 9.7502 12.5238H8.3502C8.4002 12.3238 8.4502 12.0738 8.4502 11.8738C8.4502 10.1738 7.0502 8.77383 5.3502 8.77383C3.6502 8.77383 2.2502 10.1738 2.2502 11.8738C2.2502 13.5738 3.6502 14.9738 5.3502 14.9738C6.4502 14.9738 7.4002 14.4238 7.9502 13.5238H9.8502C10.1502 14.3738 10.9002 14.9738 11.9002 14.9738C13.1002 14.9738 14.0502 14.0238 14.0502 12.8238C14.0002 12.1738 13.7502 11.5738 13.3002 11.2238ZM5.0502 3.87383H9.2002V4.37383H5.0502V3.87383ZM9.9502 9.52383H9.2502L9.1502 9.37383C8.10019 7.77383 6.2502 7.07383 4.5002 7.37383L5.2502 5.37383H9.0002L9.9002 7.82383V9.52383H9.9502ZM7.3002 12.6238C7.2002 12.7238 7.1502 12.8238 7.1502 12.9238C6.8002 13.5738 6.1002 13.9738 5.3502 13.9738C4.2002 13.9738 3.2502 13.0238 3.2502 11.8738C3.2502 10.7238 4.2002 9.77383 5.3502 9.77383C5.9002 9.77383 6.4002 9.97383 6.8502 10.4238C7.2502 10.7738 7.4502 11.3238 7.4502 11.8738C7.4002 12.1238 7.3502 12.3738 7.3002 12.6238ZM11.8502 13.9238C11.2002 13.9238 10.7002 13.4238 10.7002 12.7738C10.7002 12.1238 11.2002 11.6238 11.8502 11.6238C12.0502 11.6238 12.2502 11.6738 12.4502 11.7738C12.5002 11.8238 12.5502 11.8238 12.5502 11.8738C12.8002 12.0738 13.0002 12.4238 13.0002 12.7738C13.0002 13.4238 12.5002 13.9238 11.8502 13.9238Z" fill="#2D373D"/>
<path d="M12.1002 12.1239C12.0502 12.0739 11.9502 12.0739 11.9002 12.0739C11.8502 12.0739 11.7502 12.0739 11.7002 12.1239C11.5002 12.1739 11.3002 12.3739 11.2502 12.5739C11.2002 12.6239 11.2002 12.7239 11.2002 12.7739C11.2002 12.8239 11.2002 12.9239 11.2502 12.9739C11.3002 13.1739 11.5002 13.3739 11.7002 13.4239C11.7502 13.4739 11.8502 13.4739 11.9002 13.4739C12.3002 13.4739 12.6002 13.1739 12.6002 12.7739C12.6002 12.6739 12.6002 12.6239 12.5502 12.5739C12.4502 12.3739 12.3002 12.1739 12.1002 12.1239Z" fill="#2D373D"/>
</svg>
