<svg width="64" height="64" viewBox="0 0 64 64" fill="none" xmlns="http://www.w3.org/2000/svg">
<path d="M51.2001 40.6001C51.0001 40.6001 51.0001 40.6001 51.2001 40.6001C49.6001 40.6001 48.4001 41.8001 48.4001 43.2001C48.4001 43.8001 48.6001 44.4001 49.0001 44.6001C49.4001 45.2001 49.8001 45.6001 50.4001 45.8001C50.6001 46.0001 51.0001 46.0001 51.2001 46.0001C52.6001 46.0001 53.8001 44.8001 53.8001 43.4001C53.8001 43.4001 53.8001 43.4001 53.8001 43.2001C53.8001 41.8001 52.6001 40.6001 51.2001 40.6001Z" fill="#2D373D"/>
<path d="M24.4002 40.6001C24.2002 40.6001 24.2002 40.6001 24.2002 40.6001C22.8002 40.6001 21.6002 41.8001 21.6002 43.2001C21.6002 44.2001 22.4002 45.2001 23.4002 45.6001C23.6002 45.8001 24.0002 45.8001 24.2002 45.8001C25.6002 45.8001 26.6002 45.0001 26.8002 44.0001C27.0002 43.8001 27.0002 43.4001 27.0002 43.0001C27.0002 41.8001 25.8002 40.6001 24.4002 40.6001Z" fill="#2D373D"/>
<path d="M54.0001 35.8L51.8001 30.8C51.0001 28.6 48.8001 27 46.4001 27H28.8001C26.4001 27 24.2001 28.4 23.4001 30.6L21.0001 35.8C18.4001 36.2 16.4001 38.4 16.4001 41.2V47.6C16.6001 48.6 17.0001 49.6 17.8001 50.2V51.8C17.8001 54.4 19.8001 56.4 22.4001 56.4C24.8001 56.4 27.0001 54.2 27.0001 51.8V51.2H48.4001V51.8C48.4001 54.4 50.4001 56.4 53.0001 56.4C55.6001 56.4 57.6001 54.2 57.6001 51.8V50C58.2001 49.4 58.8001 48.4 58.6001 47.4V41C58.6001 38.4 56.6001 36.2 54.0001 35.8ZM54.8001 47H20.6001V41C20.6001 40.2 21.2001 39.6 22.0001 39.6H52.0001C52.4001 39.8 53.0001 39.8 53.4001 39.6C54.2001 39.6 54.6001 40.2 54.6001 41V47H54.8001ZM28.8001 30.8H46.4001C47.2001 30.8 47.8001 31.4 48.2001 32.2L49.6001 35.6H25.4001L27.0001 32C27.4001 31.2 28.0001 30.8 28.8001 30.8ZM23.0001 51.6C23.0001 52.2 21.8001 52.2 21.8001 51.6V51H23.0001V51.6ZM52.4001 51.6V51H53.6001V51.6C53.6001 52.2 52.4001 52.2 52.4001 51.6Z" fill="#2D373D"/>
<path d="M13.8001 22.2C13.6001 22.2 13.4001 22 13.0001 22C12.6001 22 12.4001 22 12.2001 22.2C11.4001 22.4 11.0001 23 10.6001 23.8C10.4001 24 10.4001 24.4 10.4001 24.6C10.4001 24.8 10.4001 25.2 10.6001 25.4C10.8001 26.2 11.4001 26.6 12.2001 27C12.4001 27.2 12.8001 27.2 13.0001 27.2C13.2001 27.2 13.6001 27.2 13.8001 27C14.6001 26.8 15.2001 26.2 15.4001 25.4C15.6001 25.2 15.6001 25 15.6001 24.6C15.6001 24.2 15.6001 24 15.4001 23.8C15.2001 23 14.6001 22.4 13.8001 22.2Z" fill="#2D373D"/>
<path d="M18.8002 32.4001C19.8002 32.4001 20.8002 31.6001 20.8002 30.4001C20.8002 29.2001 20.0002 28.4001 18.8002 28.4001H9.8002C9.6002 28.4001 9.60019 28.4001 9.4002 28.2001C9.4002 28.2001 9.2002 28.0001 9.2002 27.8001V24.0001C9.2002 22.2001 10.6002 20.8001 12.4002 20.8001H38.0002C38.2002 20.8001 38.6002 20.8001 38.8002 20.8001C38.8002 20.8001 38.8002 20.8001 39.0002 20.8001C39.8002 21.0001 40.4002 21.6001 40.8002 22.2001C41.4002 23.2001 42.6002 23.6001 43.6002 23.0001C44.6002 22.4001 45.0002 21.2001 44.4002 20.2001C43.6002 18.8001 42.4002 17.6001 40.8002 17.0001L38.2002 11.4001C37.4002 9.2001 35.2002 7.6001 32.8002 7.6001H17.6002C15.2002 7.6001 13.0002 9.2001 12.2002 11.4001L9.6002 17.4001C7.0002 18.4001 5.2002 21.0001 5.2002 24.0001V27.8001C5.2002 29.0001 5.6002 30.2001 6.4002 31.0001V32.8001C6.4002 35.4001 8.4002 37.6001 11.0002 37.6001C13.6002 37.6001 15.6002 35.6001 15.6002 33.0001V32.4001H18.8002ZM17.6002 11.8001H32.8002C33.6002 11.8001 34.2002 12.2001 34.6002 13.2001L36.2002 16.8001H14.2002L15.8002 13.0001C16.2002 12.2001 16.8002 11.8001 17.6002 11.8001ZM11.6002 33.0001C11.6002 33.4001 11.4002 33.6001 11.0002 33.6001C10.6002 33.6001 10.4002 33.4001 10.4002 33.0001V32.4001H11.6002V33.0001Z" fill="#2D373D"/>
</svg>
