<svg width="16" height="17" viewBox="0 0 16 17" fill="none" xmlns="http://www.w3.org/2000/svg">
<path d="M8.50011 6.61111C8.50011 5.31111 7.45011 4.26111 6.15011 4.26111C4.85011 4.26111 3.80011 5.31111 3.80011 6.61111C3.80011 7.91111 4.85011 8.96111 6.15011 8.96111C7.45011 8.96111 8.50011 7.91111 8.50011 6.61111ZM6.15011 7.96111C5.40011 7.96111 4.80011 7.36111 4.80011 6.61111C4.80011 5.86111 5.40011 5.26111 6.15011 5.26111C6.90011 5.26111 7.50011 5.86111 7.50011 6.61111C7.50011 7.36111 6.90011 7.96111 6.15011 7.96111Z" fill="#2D373D"/>
<path d="M2.9502 6.61113C2.9502 5.76113 3.3002 4.96113 3.9002 4.36113C4.5002 3.76113 5.3002 3.41113 6.1502 3.41113C7.5502 3.41113 8.7502 4.31113 9.1502 5.66113C9.2502 5.96113 9.5502 6.11113 9.8002 6.01113C10.1002 5.91113 10.2502 5.61113 10.1502 5.36113C9.60019 3.61113 8.0002 2.41113 6.1502 2.41113C5.0002 2.41113 4.0002 2.91113 3.2002 3.66113C2.4002 4.41113 1.9502 5.46113 1.9502 6.61113C1.9502 8.46113 4.5002 12.6611 5.0502 13.5111C5.1002 13.6611 5.30019 13.7611 5.4502 13.7611C5.55019 13.7611 5.6502 13.7111 5.7502 13.6611C5.9502 13.5111 6.0502 13.2111 5.9002 12.9611C4.4502 10.7111 2.9502 7.76113 2.9502 6.61113Z" fill="#2D373D"/>
<path d="M13.1001 6.51111H9.80015C9.35015 6.51111 8.95015 6.86111 8.95015 7.36111V9.41111H7.90015C7.50015 9.41111 7.15015 9.76111 7.15015 10.1611V13.4611H6.90015C6.60015 13.4611 6.40015 13.6611 6.40015 13.9611C6.40015 14.2611 6.60015 14.4611 6.90015 14.4611H7.60015C7.60015 14.4611 7.60015 14.4611 7.65015 14.4611H13.5001C13.8001 14.4611 14.0001 14.2611 13.9501 14.0111V7.36111C13.9501 6.91111 13.6001 6.51111 13.1001 6.51111ZM8.15015 10.4111H10.4501V13.4611H8.15015V10.4111ZM13.0501 13.4611H11.5001V10.1611C11.5001 9.76111 11.1501 9.41111 10.7501 9.41111H9.95015V7.46111H13.0501V13.4611Z" fill="#2D373D"/>
</svg>
