<svg width="32" height="33" viewBox="0 0 32 33" fill="none" xmlns="http://www.w3.org/2000/svg">
<path d="M14.3274 5.08533C14.8057 5.3615 14.9695 5.97309 14.6934 6.45137L13.96 7.7215C13.6838 8.19978 13.0722 8.36363 12.594 8.08747C12.1157 7.81131 11.9518 7.19971 12.228 6.72143L12.9614 5.4513C13.2375 4.97302 13.8491 4.80917 14.3274 5.08533Z" fill="#2D373D"/>
<path fill-rule="evenodd" clip-rule="evenodd" d="M10.8939 7.83171C10.0452 7.83171 9.23124 8.16883 8.63109 8.76894C8.03094 9.36905 7.69377 10.183 7.69377 11.0317C7.69377 11.8804 8.03094 12.6943 8.63109 13.2944C9.23123 13.8946 10.0452 14.2317 10.8939 14.2317C11.7426 14.2317 12.5566 13.8946 13.1567 13.2944C13.7569 12.6943 14.094 11.8804 14.094 11.0317C14.094 10.183 13.7569 9.36905 13.1567 8.76894C12.5566 8.16883 11.7426 7.83171 10.8939 7.83171ZM10.0453 10.1832C10.2703 9.95815 10.5756 9.83171 10.8939 9.83171C11.2122 9.83171 11.5175 9.95815 11.7425 10.1832C11.9676 10.4082 12.094 10.7135 12.094 11.0317C12.094 11.3499 11.9676 11.6551 11.7425 11.8802C11.5175 12.1052 11.2122 12.2317 10.8939 12.2317C10.5756 12.2317 10.2703 12.1052 10.0453 11.8802C9.82019 11.6551 9.69377 11.3499 9.69377 11.0317C9.69377 10.7135 9.82019 10.4082 10.0453 10.1832Z" fill="#2D373D"/>
<path fill-rule="evenodd" clip-rule="evenodd" d="M25.4048 16.0044C24.5703 15.8513 23.7092 16.0358 23.0107 16.5175L18.6422 19.6182H9.4271C8.5784 19.6182 7.76444 19.9554 7.16429 20.5555C6.56414 21.1556 6.22697 21.9695 6.22697 22.8182C6.22697 23.6669 6.56414 24.4809 7.16429 25.081C7.63607 25.5527 8.23997 25.862 8.88901 25.9727L8.45498 27.7087C8.32103 28.2445 8.64678 28.7874 9.18257 28.9214C9.71836 29.0553 10.2613 28.7296 10.3953 28.1938L10.9392 26.0182L19.6957 26.0182C19.7328 26.0182 19.7699 26.0175 19.8069 26.0161L20.9982 28.3984C21.2452 28.8924 21.8459 29.0926 22.3398 28.8456C22.8338 28.5986 23.034 27.9979 22.787 27.504L21.6912 25.3125C21.7313 25.2801 21.7708 25.2467 21.8094 25.2123L26.6517 21.7793C27.3464 21.2971 27.822 20.5594 27.9744 19.7273C28.1273 18.8932 27.9424 18.032 27.461 17.3338C26.9789 16.6356 26.2393 16.1574 25.4048 16.0044ZM10.1908 24.0182H19.6931C19.9925 24.0177 20.281 23.904 20.4999 23.7C20.5325 23.6696 20.567 23.6415 20.6033 23.6158L25.5091 20.1378C25.7707 19.9569 25.9499 19.6797 26.0072 19.367C26.0645 19.0543 25.9953 18.7316 25.8149 18.4699C25.6341 18.2082 25.3569 18.0289 25.044 17.9715C24.7329 17.9145 24.4119 17.9825 24.1508 18.1607L19.5398 21.4337C19.3707 21.5537 19.1684 21.6182 18.961 21.6182H9.4271C9.10879 21.6182 8.80352 21.7447 8.57846 21.9697C8.3534 22.1948 8.22697 22.5 8.22697 22.8182C8.22697 23.1365 8.3534 23.4417 8.57846 23.6667C8.80352 23.8918 9.10879 24.0182 9.4271 24.0182H10.1247C10.1466 24.0175 10.1687 24.0175 10.1908 24.0182Z" fill="#2D373D"/>
<path d="M14.2942 11.032C14.2942 10.4797 14.7419 10.032 15.2942 10.032H16.7609C17.3132 10.032 17.7609 10.4797 17.7609 11.032C17.7609 11.5843 17.3132 12.032 16.7609 12.032H15.2942C14.7419 12.032 14.2942 11.5843 14.2942 11.032Z" fill="#2D373D"/>
<path d="M5.02686 10.032C4.47457 10.032 4.02686 10.4797 4.02686 11.032C4.02686 11.5843 4.47457 12.032 5.02686 12.032H6.49361C7.0459 12.032 7.49361 11.5843 7.49361 11.032C7.49361 10.4797 7.0459 10.032 6.49361 10.032H5.02686Z" fill="#2D373D"/>
<path d="M9.55975 15.3422C9.83592 14.8639 9.67207 14.2523 9.19379 13.9761C8.71551 13.7 8.10391 13.8638 7.82775 14.3421L7.09437 15.6122C6.81821 16.0905 6.98205 16.7021 7.46034 16.9783C7.93862 17.2544 8.55021 17.0906 8.82638 16.6123L9.55975 15.3422Z" fill="#2D373D"/>
<path d="M7.46034 5.08533C7.93862 4.80917 8.55021 4.97302 8.82638 5.4513L9.55975 6.72143C9.83592 7.19971 9.67207 7.81131 9.19379 8.08747C8.71551 8.36363 8.10391 8.19978 7.82775 7.7215L7.09437 6.45137C6.81821 5.97309 6.98205 5.3615 7.46034 5.08533Z" fill="#2D373D"/>
<path d="M13.96 14.3421C13.6838 13.8638 13.0722 13.7 12.594 13.9761C12.1157 14.2523 11.9518 14.8639 12.228 15.3422L12.9614 16.6123C13.2375 17.0906 13.8491 17.2544 14.3274 16.9783C14.8057 16.7021 14.9695 16.0905 14.6934 15.6122L13.96 14.3421Z" fill="#2D373D"/>
</svg>
