<svg width="24" height="24" viewBox="0 0 24 24" fill="none" xmlns="http://www.w3.org/2000/svg">
<path d="M20.9248 16.5C21.5998 15.075 22.0498 13.575 22.0498 11.925C22.0498 11.775 22.0498 11.625 22.0498 11.475C22.0498 11.4 22.0498 11.4 22.0498 11.325C22.0498 11.25 22.0498 11.1 21.9748 11.025C21.8248 9.74998 21.5248 8.39998 20.9248 7.27498C20.6998 6.89998 20.4748 6.52498 20.2498 6.14998C20.1748 5.92498 20.0998 5.77498 19.8748 5.69998C18.5998 4.12498 16.9498 2.99998 14.9998 2.39998C12.4498 1.57498 9.7498 1.79998 7.3498 3.07498C6.0748 3.82498 4.9498 4.72498 4.1248 5.84998C4.1248 5.84998 4.0498 5.92498 4.0498 5.99998C3.2998 6.89998 2.7748 7.87498 2.3998 8.99998C2.1748 9.74998 2.0248 10.5 1.9498 11.325C1.8748 13.2 2.2498 15 3.0748 16.65C4.3498 18.975 6.4498 20.7 8.9998 21.525C9.1498 21.6 9.2248 21.6 9.3748 21.6C9.5248 21.75 9.6748 21.75 9.7498 21.75H9.82481C10.5748 21.9 11.3248 21.975 11.9998 21.975C12.7498 21.975 13.4248 21.9 14.1748 21.75C14.3998 21.75 14.5498 21.675 14.6998 21.6C15.2998 21.45 15.8998 21.225 16.4248 20.925L21.0748 21.975C21.3748 21.975 21.6748 21.9 21.8248 21.675C21.9748 21.45 22.0498 21.075 21.8998 20.85L20.2498 17.55C20.3998 17.325 20.5498 17.025 20.6998 16.8C20.8498 16.725 20.9248 16.575 20.9248 16.5ZM4.2748 15.525C3.7498 14.4 3.5248 13.275 3.5248 12.075H6.9748C6.9748 13.275 7.0498 14.4 7.1998 15.525H4.2748V15.525ZM19.0498 7.12498C19.2748 7.42498 19.4998 7.72498 19.6498 8.09998C20.0248 8.84998 20.3248 9.67498 20.4748 10.575H17.0248C16.9498 9.37498 16.7998 8.17498 16.5748 7.12498H19.0498V7.12498ZM16.1998 5.62498C16.0498 5.17498 15.8998 4.72498 15.7498 4.34998C16.4248 4.64998 17.0998 5.09998 17.6998 5.62498H16.1998ZM15.4498 10.575H8.47481C8.54981 9.37498 8.6998 8.17498 8.9248 7.12498H14.9248C15.2248 8.17498 15.3748 9.37498 15.4498 10.575ZM8.47481 12.075H15.5248C15.5248 13.275 15.4498 14.475 15.2248 15.525H8.69981C8.54981 14.475 8.47481 13.275 8.47481 12.075ZM17.0248 12.075H20.6248C20.6248 13.275 20.3998 14.475 19.8748 15.525H16.7998C16.9498 14.475 17.0248 13.275 17.0248 12.075ZM13.6498 3.67498C14.0248 4.19998 14.3248 4.87498 14.5498 5.69998H9.3748C9.5998 4.94998 9.9748 4.27498 10.2748 3.67498C10.7998 3.59998 11.3998 3.52498 11.9248 3.52498C12.5248 3.44998 13.1248 3.52498 13.6498 3.67498ZM7.94981 4.42498C8.02481 4.34998 8.0998 4.34998 8.2498 4.27498C8.0998 4.72498 7.9498 5.09998 7.7998 5.62498H6.2998C6.8248 5.17498 7.34981 4.79998 7.94981 4.42498ZM5.0248 7.12498H7.4248C7.1998 8.17498 7.0498 9.37498 6.9748 10.575H3.5998C3.6748 10.2 3.7498 9.82498 3.8248 9.44998C4.1248 8.62498 4.4998 7.87498 5.0248 7.12498ZM5.0998 17.025H7.4248C7.6498 18 7.8748 18.9 8.1748 19.65C6.9748 19.05 5.9248 18.15 5.0998 17.025ZM10.2748 20.4C9.7498 19.575 9.2998 18.375 8.9998 17.025H14.9248C14.6248 18.375 14.1748 19.575 13.5748 20.4C12.5248 20.625 11.3998 20.625 10.2748 20.4ZM16.4998 19.5C16.2748 19.5 16.1248 19.5 15.9748 19.575C15.8998 19.65 15.8248 19.65 15.7498 19.65C16.0498 18.825 16.3498 17.925 16.4998 17.025H18.9748C18.9748 17.1 18.8998 17.1 18.8998 17.175C18.7498 17.4 18.6748 17.7 18.8248 17.925L19.9498 20.25L16.4998 19.5Z" fill="#2D373D"/>
</svg>
