<svg width="64" height="65" viewBox="0 0 64 65" fill="none" xmlns="http://www.w3.org/2000/svg">
<path fill-rule="evenodd" clip-rule="evenodd" d="M55.9873 11.3246C56.0545 10.7207 55.8434 10.119 55.4138 9.68932C54.9841 9.25965 54.3824 9.04862 53.7785 9.11578L49.2064 9.62426C45.169 10.073 41.4045 11.8826 38.5322 14.7551L26.4943 26.7929L25.0062 26.2973C22.4142 25.4335 19.6328 25.3086 16.9738 25.9366C14.3148 26.5645 11.8831 27.9205 9.95135 29.8526L9.45982 30.3442C9.02734 30.7762 8.71246 31.3117 8.5451 31.8997C8.37755 32.4884 8.36342 33.1102 8.50406 33.7058C8.6447 34.3015 8.93543 34.8513 9.34859 35.3029C9.76147 35.7541 10.2829 36.0923 10.8633 36.2853L18.088 38.6949L26.4035 47.0143L28.813 54.2387C29.0059 54.8189 29.3446 55.3417 29.7958 55.7545C30.2473 56.1677 30.7971 56.4584 31.3928 56.599C31.9885 56.7397 32.6102 56.7256 33.1989 56.558C33.7862 56.3908 34.3211 56.0765 34.753 55.6448L34.756 55.6418L35.2483 55.1516C37.18 53.2196 38.5356 50.7877 39.1631 48.1287C39.7906 45.4699 39.6654 42.689 38.8015 40.0974L38.3065 38.6099L50.3479 26.571C53.2213 23.6992 55.0311 19.9337 55.4789 15.896L55.9873 11.3246ZM49.6485 13.5998L51.7354 13.3677L51.5032 15.4552C51.1557 18.5898 49.7505 21.5129 47.5197 23.7423L28.1523 43.1058L21.9968 36.9473L41.3607 17.5834C43.5909 15.3531 46.5138 13.9482 49.6485 13.5998ZM17.8932 29.8295C19.687 29.4059 21.5572 29.4528 23.3235 29.9622L18.6284 34.6585L12.7597 32.7012L12.7799 32.6809C14.1865 31.2741 15.957 30.2867 17.8932 29.8295ZM32.398 52.345L30.4405 46.4759L35.1388 41.7877C35.6463 43.5515 35.6928 45.4188 35.2701 47.2099C34.8133 49.1454 33.8267 50.9156 32.4209 52.3222L32.398 52.345Z" fill="#2D373D"/>
<path fill-rule="evenodd" clip-rule="evenodd" d="M17.8686 44.303C18.9709 44.2311 19.8062 43.2794 19.7343 42.1771C19.6625 41.0749 18.7107 40.2396 17.6085 40.3114C15.9696 40.4183 14.4257 41.1182 13.2653 42.2804C12.5062 43.038 11.8659 44.296 11.3659 45.4166C10.8238 46.6314 10.2988 48.0381 9.84467 49.3508C9.38846 50.6696 8.9932 51.9249 8.7125 52.8484C8.57192 53.3109 8.4595 53.6921 8.38194 53.9586C8.34315 54.092 8.31304 54.1967 8.29245 54.2688L8.2688 54.3519L8.26014 54.3826C8.06455 55.0789 8.25999 55.8268 8.77142 56.3382C9.28285 56.8495 10.0309 57.0448 10.7271 56.8491L10.7577 56.8405L10.8408 56.8168C10.9128 56.7962 11.0175 56.7661 11.1508 56.7273C11.4172 56.6498 11.7981 56.5374 12.2604 56.3968C13.1833 56.1161 14.438 55.7208 15.7564 55.2646C17.0687 54.8106 18.475 54.2855 19.6899 53.7436C20.8117 53.2432 22.0691 52.6032 22.8274 51.8457C23.457 51.2175 23.9563 50.4712 24.2967 49.6495C24.6371 48.8275 24.8118 47.9464 24.8106 47.0568C24.8092 45.9522 23.9126 45.0579 22.808 45.0594C21.7035 45.0608 20.8092 45.9574 20.8106 47.062C20.8111 47.4246 20.7399 47.7837 20.6011 48.1187C20.4624 48.4538 20.2588 48.758 20.002 49.0141L20.0002 49.016C19.8282 49.188 19.2178 49.5743 18.0604 50.0906C16.9955 50.5656 15.7108 51.0477 14.4484 51.4845C14.0248 51.6311 13.6072 51.7714 13.2056 51.9033C13.3377 51.501 13.4781 51.0827 13.6249 50.6584C14.0617 49.3956 14.5438 48.1109 15.0187 47.0465C15.5352 45.8889 15.9209 45.281 16.091 45.1116L16.0951 45.1074C16.5688 44.6326 17.1993 44.3466 17.8686 44.303Z" fill="#2D373D"/>
</svg>
