<svg width="32" height="33" viewBox="0 0 32 33" fill="none" xmlns="http://www.w3.org/2000/svg">
<path fill-rule="evenodd" clip-rule="evenodd" d="M19.3333 10.9193C19.3333 12.7602 17.8409 14.2526 16 14.2526C14.1591 14.2526 12.6667 12.7602 12.6667 10.9193C12.6667 9.07832 14.1591 7.58594 16 7.58594C17.8409 7.58594 19.3333 9.07832 19.3333 10.9193ZM17.3333 10.9193C17.3333 11.6557 16.7364 12.2526 16 12.2526C15.2636 12.2526 14.6667 11.6557 14.6667 10.9193C14.6667 10.1829 15.2636 9.58594 16 9.58594C16.7364 9.58594 17.3333 10.1829 17.3333 10.9193Z" fill="#2D373D"/>
<path fill-rule="evenodd" clip-rule="evenodd" d="M10.2223 4.54562C11.4211 4.01814 13.2321 3.58594 16 3.58594C18.768 3.58594 20.5789 4.01814 21.7778 4.54562C22.898 5.03855 23.4374 5.59916 23.6537 5.82387C23.6741 5.8451 23.6923 5.86398 23.7071 5.87883C23.8946 6.06637 24 6.32072 24 6.58594V22.2526C24 22.6615 23.751 23.0292 23.3714 23.1811C23.0822 23.2968 22.7383 23.416 22.3333 23.531V25.5859C22.3333 25.9203 22.1662 26.2325 21.888 26.418C21.3941 26.7473 20.577 27.0287 19.6242 27.2308C19.3161 27.2962 18.9837 27.3553 18.6296 27.4058V29.2575C18.6296 29.8098 18.1819 30.2575 17.6296 30.2575C17.0773 30.2575 16.6296 29.8098 16.6296 29.2575V27.576C16.4238 27.5825 16.2138 27.5859 16 27.5859C15.8878 27.5859 15.7767 27.585 15.6667 27.5832V29.2575C15.6667 29.8098 15.219 30.2575 14.6667 30.2575C14.1144 30.2575 13.6667 29.8098 13.6667 29.2575V27.4453C13.2006 27.3873 12.7685 27.3141 12.3758 27.2308C11.423 27.0287 10.6059 26.7473 10.112 26.418C9.83377 26.2325 9.66667 25.9203 9.66667 25.5859V23.531C9.26174 23.416 8.9178 23.2968 8.62861 23.1811C8.24895 23.0292 8 22.6615 8 22.2526V6.58594C8 6.32072 8.10536 6.06637 8.29289 5.87883C8.3079 5.86383 8.32564 5.84539 8.34634 5.82387C8.56256 5.59916 9.10199 5.03855 10.2223 4.54562ZM16 24.2526C17.7505 24.2526 19.1787 24.1336 20.3333 23.9564V24.9604C20.0661 25.0597 19.6925 25.1718 19.2092 25.2744C18.3631 25.4538 17.2661 25.5859 16 25.5859C14.7339 25.5859 13.6369 25.4538 12.7908 25.2744C12.3075 25.1718 11.9339 25.0597 11.6667 24.9604V23.9564C12.8214 24.1336 14.2496 24.2526 16 24.2526ZM22 7.00484V17.2526H10V7.00485C10.2045 6.82541 10.5182 6.60047 11.0278 6.37625C11.9123 5.98707 13.4347 5.58594 16 5.58594C18.5654 5.58594 20.0878 5.98707 20.9723 6.37625C21.4818 6.60046 21.7955 6.82541 22 7.00484ZM10 21.5441V19.2526H22V21.5441C20.8802 21.8885 18.9825 22.2526 16 22.2526C13.0176 22.2526 11.1198 21.8885 10 21.5441Z" fill="#2D373D"/>
</svg>
