<svg width="16" height="16" viewBox="0 0 16 16" fill="none" xmlns="http://www.w3.org/2000/svg">
<path fill-rule="evenodd" clip-rule="evenodd" d="M13.3331 12.5C13.2411 12.5 13.1665 12.5746 13.1665 12.6667C13.1665 12.7587 13.2411 12.8333 13.3331 12.8333C13.4252 12.8333 13.4998 12.7587 13.4998 12.6667C13.4998 12.5746 13.4252 12.5 13.3331 12.5ZM12.1665 12.6667C12.1665 12.0223 12.6888 11.5 13.3331 11.5C13.9775 11.5 14.4998 12.0223 14.4998 12.6667C14.4998 13.311 13.9775 13.8333 13.3331 13.8333C12.6888 13.8333 12.1665 13.311 12.1665 12.6667Z" fill="#2D373D"/>
<path fill-rule="evenodd" clip-rule="evenodd" d="M2.66647 12.5C2.57443 12.5 2.49981 12.5746 2.49981 12.6667C2.49981 12.7587 2.57443 12.8333 2.66647 12.8333C2.75852 12.8333 2.83314 12.7587 2.83314 12.6667C2.83314 12.5746 2.75852 12.5 2.66647 12.5ZM1.49981 12.6667C1.49981 12.0223 2.02214 11.5 2.66647 11.5C3.31081 11.5 3.83314 12.0223 3.83314 12.6667C3.83314 13.311 3.31081 13.8333 2.66647 13.8333C2.02214 13.8333 1.49981 13.311 1.49981 12.6667Z" fill="#2D373D"/>
<path fill-rule="evenodd" clip-rule="evenodd" d="M12.1432 2.99567C12.3995 2.89311 12.5243 2.60213 12.4217 2.34573C12.3191 2.08934 12.0282 1.96463 11.7718 2.06719L9.97276 2.78679C9.7298 2.88398 9.60287 3.15206 9.68167 3.40159L11.7363 9.90778C11.1074 10.2833 10.6341 10.8998 10.4364 11.6116H5.493C5.42392 11.277 5.29171 10.9497 5.0932 10.6476C4.30554 9.44895 2.75022 9.0589 1.50227 9.69939C1.25659 9.82548 1.15965 10.1269 1.28574 10.3725C1.41183 10.6182 1.7132 10.7151 1.95888 10.5891C2.75723 10.1793 3.75339 10.4297 4.25748 11.1968C4.43603 11.4685 4.53017 11.7697 4.54735 12.0711C4.55607 12.2243 4.63288 12.3574 4.74671 12.4428C4.83831 12.5463 4.97217 12.6116 5.12126 12.6116H10.658C10.6905 12.6116 10.7224 12.6085 10.7532 12.6025C10.7668 12.6052 10.7806 12.6072 10.7945 12.6087C11.0691 12.6383 11.3156 12.4396 11.3452 12.1651C11.4426 11.2594 12.2238 10.5211 13.1285 10.5211C13.4537 10.5211 13.757 10.6078 14.0184 10.759C14.2574 10.8973 14.5633 10.8156 14.7016 10.5766C14.8398 10.3376 14.7582 10.0317 14.5191 9.89342C14.1097 9.65655 13.6341 9.52114 13.1285 9.52114C12.974 9.52114 12.8225 9.53431 12.675 9.55952L10.775 3.54294L12.1432 2.99567Z" fill="#2D373D"/>
</svg>
