<svg width="64" height="65" viewBox="0 0 64 65" fill="none" xmlns="http://www.w3.org/2000/svg">
<path d="M24.5636 26.6087C24.6557 26.1637 25.0758 25.7856 25.6238 25.7856C26.1718 25.7856 26.5919 26.1637 26.684 26.6087C26.8877 27.592 27.8499 28.224 28.8332 28.0203C29.8165 27.8166 30.4485 26.8544 30.2448 25.8711C29.7998 23.7229 27.8804 22.1492 25.6238 22.1492C23.3672 22.1492 21.4478 23.7229 21.0028 25.8711C20.7991 26.8544 21.4311 27.8166 22.4144 28.0203C23.3977 28.224 24.3599 27.592 24.5636 26.6087Z" fill="#2D373D"/>
<path d="M38.4055 25.7856C37.8574 25.7856 37.4374 26.1637 37.3452 26.6087C37.1416 27.592 36.1794 28.224 35.1961 28.0203C34.2128 27.8166 33.5808 26.8544 33.7845 25.8711C34.2294 23.7229 36.1488 22.1492 38.4055 22.1492C40.6621 22.1492 42.5815 23.7229 43.0265 25.8711C43.2301 26.8544 42.5981 27.8166 41.6148 28.0203C40.6316 28.224 39.6694 27.592 39.4657 26.6087C39.3735 26.1637 38.9535 25.7856 38.4055 25.7856Z" fill="#2D373D"/>
<path d="M30.2441 33.5404C30.0404 32.5571 29.0782 31.9251 28.0949 32.1288C27.1116 32.3325 26.4796 33.2947 26.6833 34.278C27.1954 36.7503 29.4073 38.568 32.0145 38.568C34.6216 38.568 36.8335 36.7503 37.3456 34.278C37.5493 33.2947 36.9173 32.3325 35.934 32.1288C34.9507 31.9251 33.9885 32.5571 33.7848 33.5404C33.6255 34.3095 32.9131 34.9316 32.0145 34.9316C31.1159 34.9316 30.4034 34.3095 30.2441 33.5404Z" fill="#2D373D"/>
<path fill-rule="evenodd" clip-rule="evenodd" d="M50.753 19.876C53.3591 21.3814 55.2233 23.8105 56.0015 26.7184C56.7809 29.6251 56.3809 32.6615 54.8767 35.2675C53.804 37.1257 52.2621 38.6057 50.4124 39.5851C50.49 41.6772 49.9785 43.7511 48.9058 45.6093C47.4015 48.2154 44.9712 50.0796 42.0646 50.859C41.1118 51.1136 40.1324 51.2433 39.1506 51.2433C37.3712 51.2433 35.6621 50.813 34.1349 50.0481V57.6518C34.1349 58.7233 33.267 59.5912 32.1955 59.5912C31.124 59.5912 30.2561 58.7233 30.2561 57.6518V50.0493C28.7276 50.813 27.0197 51.2433 25.2403 51.2433C24.2585 51.2433 23.2791 51.1136 22.3264 50.859C19.4197 50.0796 16.9894 48.2154 15.4852 45.6093C14.4124 43.7511 13.9009 41.676 13.9785 39.5851C12.1288 38.6045 10.587 37.1257 9.51425 35.2675C8.01001 32.6615 7.61001 29.6251 8.38819 26.7184C9.16759 23.8105 11.0318 21.3802 13.6379 19.876C14.1058 19.6069 14.5918 19.3705 15.09 19.1718C14.5894 15.7536 15.6561 12.1572 18.2561 9.55721C20.3846 7.42993 23.2136 6.25781 26.2233 6.25781C28.3676 6.25781 30.4209 6.85296 32.1943 7.96569C33.9664 6.85296 36.0197 6.25781 38.164 6.25781C41.1737 6.25781 44.0027 7.42993 46.13 9.55721C48.2597 11.6845 49.4318 14.5148 49.4318 17.5257C49.4318 18.0808 49.3906 18.6324 49.3094 19.1754C49.8052 19.373 50.2876 19.6081 50.753 19.876ZM47.0306 36.7705C48.9385 36.2602 50.5312 35.0372 51.5167 33.3281C52.5046 31.619 52.7664 29.6275 52.2549 27.7221C51.7446 25.8154 50.5227 24.2227 48.8137 23.236C47.6779 22.5802 46.4185 22.2481 45.1446 22.2481C44.6694 22.2481 44.3785 21.5475 44.6343 21.0869C45.233 20.0093 45.553 18.7936 45.553 17.5257C45.553 15.5511 44.7846 13.6966 43.3882 12.3002C41.993 10.9063 40.1385 10.1366 38.164 10.1366C36.1918 10.1366 34.3361 10.9051 32.9397 12.3002C32.9397 12.3002 32.6876 12.7536 32.1955 12.7427C31.7033 12.733 31.4476 12.3002 31.4476 12.3002C30.0512 10.9051 28.1955 10.1366 26.2233 10.1366C24.2488 10.1366 22.3943 10.9063 20.9991 12.3002C18.633 14.6675 18.2149 18.2493 19.7397 21.0518C19.9955 21.5221 19.7215 22.2481 19.2464 22.2481C17.9712 22.2481 16.713 22.5802 15.5785 23.236C13.8682 24.2227 12.6464 25.8154 12.1361 27.7221C11.6246 29.6275 11.8864 31.619 12.8743 33.3281C13.8597 35.0372 15.4524 36.2602 17.3603 36.7705C17.3603 36.7705 17.9615 36.8493 18.0997 37.3245C18.1858 37.6178 18.107 38.0627 18.107 38.0627C17.5955 39.9693 17.8573 41.9608 18.844 43.6699C19.8318 45.379 21.4246 46.6008 23.3312 47.1124C23.9688 47.2833 24.6088 47.3645 25.2403 47.3645C27.9846 47.3645 30.5397 45.8166 31.8052 43.3584C31.9543 43.0699 32.4246 43.0421 32.5652 43.316C33.8233 45.7984 36.3894 47.3645 39.1506 47.3645C39.7821 47.3645 40.4221 47.2833 41.0597 47.1124C42.9664 46.6008 44.5591 45.379 45.547 43.6699C46.5337 41.9608 46.7955 39.9693 46.284 38.0627C46.284 38.0627 46.1397 37.653 46.2852 37.2748C46.4306 36.8954 47.0306 36.7705 47.0306 36.7705Z" fill="#2D373D"/>
</svg>
