<svg width="16" height="17" viewBox="0 0 16 17" fill="none" xmlns="http://www.w3.org/2000/svg">
<path fill-rule="evenodd" clip-rule="evenodd" d="M8.00013 7.25391C8.29028 7.25391 8.56612 7.37992 8.75606 7.59925L9.33341 8.26592C9.58968 8.56183 9.64972 8.98006 9.48706 9.33611C9.3244 9.69217 8.96894 9.92057 8.57749 9.92057H7.42279C7.03133 9.92057 6.67587 9.69217 6.51321 9.33611C6.35055 8.98006 6.41059 8.56183 6.66686 8.26592L7.24421 7.59925C7.43415 7.37992 7.70999 7.25391 8.00013 7.25391ZM8.00013 8.25391L7.42279 8.92057H8.57749L8.00013 8.25391Z" fill="#2D373D"/>
<path d="M7.52876 6.72531C7.78911 6.98566 8.21122 6.98566 8.47157 6.72531C8.73192 6.46496 8.73192 6.04285 8.47157 5.7825C8.21122 5.52215 7.78911 5.52215 7.52876 5.7825C7.26841 6.04285 7.26841 6.46496 7.52876 6.72531Z" fill="#2D373D"/>
<path d="M6.97157 7.39198C6.71122 7.65233 6.28911 7.65233 6.02876 7.39198C5.76841 7.13163 5.76841 6.70952 6.02876 6.44917C6.28911 6.18882 6.71122 6.18882 6.97157 6.44917C7.23192 6.70952 7.23192 7.13163 6.97157 7.39198Z" fill="#2D373D"/>
<path d="M9.02876 7.39198C9.28911 7.65233 9.71122 7.65233 9.97157 7.39198C10.2319 7.13163 10.2319 6.70952 9.97157 6.44917C9.71122 6.18882 9.28911 6.18882 9.02876 6.44917C8.76841 6.70952 8.76841 7.13163 9.02876 7.39198Z" fill="#2D373D"/>
<path d="M8.47157 13.892C8.21122 14.1523 7.78911 14.1523 7.52876 13.892C7.26841 13.6316 7.26841 13.2095 7.52876 12.9492C7.78911 12.6888 8.21122 12.6888 8.47157 12.9492C8.73192 13.2095 8.73192 13.6316 8.47157 13.892Z" fill="#2D373D"/>
<path fill-rule="evenodd" clip-rule="evenodd" d="M4.66683 2.25391C3.93045 2.25391 3.3335 2.85086 3.3335 3.58724V14.2539C3.3335 14.9903 3.93045 15.5872 4.66683 15.5872H11.3335C12.0699 15.5872 12.6668 14.9903 12.6668 14.2539V3.58724C12.6668 2.85086 12.0699 2.25391 11.3335 2.25391H4.66683ZM11.3335 3.25391H4.66683C4.48273 3.25391 4.3335 3.40314 4.3335 3.58724V11.0872H11.6668V3.58724C11.6668 3.40314 11.5176 3.25391 11.3335 3.25391ZM11.6668 12.0872H4.3335V14.2539C4.3335 14.438 4.48273 14.5872 4.66683 14.5872H11.3335C11.5176 14.5872 11.6668 14.438 11.6668 14.2539V12.0872Z" fill="#2D373D"/>
</svg>
