<svg width="64" height="65" viewBox="0 0 64 65" fill="none" xmlns="http://www.w3.org/2000/svg">
<path d="M45.1996 41.6619L41.1996 40.0619C40.9996 40.0619 40.7996 39.6619 40.7996 39.4619C40.7996 39.2619 40.9996 39.0619 40.9996 39.0619C40.9996 39.0619 41.1996 38.8619 41.3996 38.8619H45.3996C46.5996 38.8619 47.3996 38.0619 47.3996 36.8619C47.3996 35.6619 46.5996 34.8619 45.3996 34.8619H43.9996C43.7996 34.0619 42.9996 33.4619 42.1996 33.4619C41.1996 33.4619 40.3996 34.0619 40.1996 35.0619C39.1996 35.2619 38.5996 35.6619 37.9996 36.2619C37.1996 37.0619 36.5996 38.2619 36.5996 39.4619C36.5996 41.4619 37.7996 43.2619 39.5996 43.8619L43.5996 45.4619C43.7996 45.6619 43.9996 45.6619 43.9996 45.8619C43.9996 45.8619 43.9996 46.0619 43.9996 46.2619C43.9996 46.4619 43.5996 46.6619 43.3996 46.6619H39.3996C38.1996 46.6619 37.3996 47.4619 37.3996 48.6619C37.3996 49.8619 38.1996 50.6619 39.3996 50.6619H40.3996C40.5996 51.4619 41.3996 52.0619 42.1996 52.0619C43.1996 52.0619 43.9996 51.4619 44.1996 50.4619C45.7996 50.2619 47.1996 49.0619 47.7996 47.6619C48.3996 46.4619 48.1996 45.2619 47.7996 44.0619C47.1996 43.0619 46.3996 42.0619 45.1996 41.6619Z" fill="#2D373D"/>
<path d="M42.2004 28.8618C34.6004 28.8618 28.4004 35.0618 28.4004 42.6618C28.4004 50.2618 34.6004 56.4618 42.2004 56.4618C49.8004 56.4618 56.0004 50.2618 56.0004 42.6618C56.0004 35.0618 49.8004 28.8618 42.2004 28.8618ZM42.2004 52.4618C36.8004 52.4618 32.4004 48.0618 32.4004 42.6618C32.4004 37.2618 36.8004 32.8618 42.2004 32.8618C47.6004 32.8618 52.0004 37.2618 52.0004 42.6618C52.0004 48.0618 47.6004 52.4618 42.2004 52.4618Z" fill="#2D373D"/>
<path d="M24.5998 37.8617H12.7998C12.1998 37.8617 11.7998 37.4617 11.7998 36.8617V20.8617H46.1998V25.0617C46.1998 26.2617 46.9998 27.0617 48.1998 27.0617C49.3998 27.0617 50.1998 26.2617 50.1998 25.0617V13.2617C50.1998 11.8617 49.7998 10.6617 48.7998 9.66172C47.7998 8.86172 46.5998 8.26172 45.1998 8.26172H12.7998C9.9998 8.26172 7.7998 10.4617 7.7998 13.2617V36.8617C7.7998 39.6617 9.9998 41.8617 12.7998 41.8617H24.5998C25.5998 41.8617 26.5998 41.0617 26.5998 39.8617C26.5998 38.6617 25.7998 37.8617 24.5998 37.8617ZM12.7998 12.2617H45.1998C45.5998 12.2617 45.9998 12.6617 45.9998 12.6617C45.9998 12.6617 46.1998 12.8617 46.1998 13.2617V15.4617H11.7998V13.2617C11.7998 12.6617 12.1998 12.2617 12.7998 12.2617Z" fill="#2D373D"/>
<path d="M29.5998 26.4619C29.5998 25.2619 28.7998 24.4619 27.5998 24.4619H15.7998C14.5998 24.4619 13.7998 25.2619 13.7998 26.4619C13.7998 27.6619 14.5998 28.4619 15.7998 28.4619H27.5998C28.5998 28.4619 29.5998 27.6619 29.5998 26.4619Z" fill="#2D373D"/>
<path d="M21.5998 34.4619C22.7998 34.4619 23.7998 33.6619 23.7998 32.4619C23.7998 31.2619 22.9998 30.4619 21.7998 30.4619H15.7998C14.5998 30.4619 13.7998 31.2619 13.7998 32.4619C13.7998 33.6619 14.5998 34.4619 15.7998 34.4619H21.5998Z" fill="#2D373D"/>
</svg>
