<svg width="16" height="16" viewBox="0 0 16 16" fill="none" xmlns="http://www.w3.org/2000/svg">
<path d="M7.59988 11.8C7.69988 11.95 7.79988 12 7.99988 12C8.09988 12 8.14988 12 8.19988 11.95C8.24988 11.9 8.34988 11.85 8.34988 11.8L11.5999 8.55005C11.7999 8.35005 11.7999 8.05005 11.5999 7.85005C11.3999 7.65005 11.0999 7.65005 10.8999 7.85005L8.49988 10.3V1.80005C8.49988 1.50005 8.29988 1.30005 7.99988 1.30005C7.69988 1.30005 7.49988 1.50005 7.49988 1.80005V10.3L5.09988 7.90005C4.89988 7.70005 4.59988 7.70005 4.39988 7.90005C4.19988 8.10005 4.19988 8.40005 4.39988 8.60005L7.59988 11.8Z" fill="#2D373D"/>
<path d="M12.8499 13.65H3.1499C2.8499 13.65 2.6499 13.85 2.6499 14.15C2.6499 14.45 2.8499 14.65 3.1499 14.65H12.8499C13.1499 14.65 13.3499 14.45 13.3499 14.15C13.3499 13.85 13.1499 13.65 12.8499 13.65Z" fill="#2D373D"/>
</svg>
