<svg width="64" height="65" viewBox="0 0 64 65" fill="none" xmlns="http://www.w3.org/2000/svg">
<path d="M53.9998 8.26172H9.7998C8.5998 8.26172 7.7998 9.06172 7.7998 10.2617V54.4617C7.7998 55.6617 8.5998 56.4617 9.7998 56.4617H53.9998C55.1998 56.4617 55.9998 55.6617 55.9998 54.4617V10.2617C55.9998 9.06172 55.1998 8.26172 53.9998 8.26172ZM51.9998 52.4617H11.7998V12.2617H51.9998V52.4617Z" fill="#2D373D"/>
<path d="M21.5992 30.8616C21.9992 31.2616 22.3992 31.4616 22.9992 31.4616C23.7992 31.4616 24.3992 31.0616 24.5992 30.4616L33.3992 18.6616C33.9992 17.8616 33.7992 16.4616 32.9992 15.8616C32.1992 15.2616 30.7992 15.4616 30.1992 16.2616L22.7992 26.2616L18.5992 22.0616C17.7992 21.2616 16.5992 21.2616 15.7992 22.0616C14.9992 22.8616 14.9992 24.2616 15.7992 24.8616L21.5992 30.8616Z" fill="#2D373D"/>
<path d="M36.4004 27.0615H45.2004C46.4004 27.0615 47.2004 26.2615 47.2004 25.0615C47.2004 23.8615 46.4004 23.0615 45.2004 23.0615H36.4004C35.2004 23.0615 34.4004 23.8615 34.4004 25.0615C34.4004 26.2615 35.2004 27.0615 36.4004 27.0615Z" fill="#2D373D"/>
<path d="M21.6 48.4619C22 48.8619 22.4 49.0619 23 49.0619C23.8 49.0619 24.4 48.8619 24.6 48.2619L33.2 36.4619C33.8 35.6619 33.6 34.2619 32.8 33.6619C32 33.0619 30.6 33.2619 30 34.0619L22.6 44.0619L18.4 39.8619C17.6 39.0619 16.4 39.0619 15.6 39.8619C14.8 40.6619 14.8 41.8619 15.6 42.6619L21.6 48.4619Z" fill="#2D373D"/>
<path d="M36.4004 44.6616H45.2004C46.4004 44.6616 47.2004 43.8616 47.2004 42.6616C47.2004 41.4616 46.4004 40.6616 45.2004 40.6616H36.4004C35.2004 40.6616 34.4004 41.4616 34.4004 42.6616C34.4004 43.8616 35.2004 44.6616 36.4004 44.6616Z" fill="#2D373D"/>
</svg>
