<svg width="64" height="65" viewBox="0 0 64 65" fill="none" xmlns="http://www.w3.org/2000/svg">
<path fill-rule="evenodd" clip-rule="evenodd" d="M23.2012 8.92188C20.5312 8.92188 17.9706 9.98251 16.0827 11.8705C14.8542 13.099 13.976 14.6123 13.5124 16.2553H12.9336C11.829 16.2553 10.9336 17.1507 10.9336 18.2553C10.9336 19.3599 11.829 20.2553 12.9336 20.2553H13.214C13.4933 22.4582 14.4957 24.5205 16.0827 26.1074C17.1042 27.1289 18.3226 27.9082 19.6487 28.4084C18.8475 28.6003 18.0598 28.858 17.2938 29.1805C14.537 30.3412 12.1844 32.2901 10.531 34.7828C8.8776 37.2755 7.99712 40.2009 8.00001 43.1921C8.00107 44.2967 8.89737 45.1912 10.0019 45.1902C11.1065 45.1891 12.0011 44.2928 12 43.1882C11.9979 40.9849 12.6465 38.83 13.8644 36.9938C15.0823 35.1577 16.8153 33.722 18.846 32.8671C20.8767 32.0121 23.1147 31.7758 25.2791 32.1879C27.4436 32.5999 29.4382 33.642 31.0127 35.1833C31.802 35.956 33.0683 35.9425 33.841 35.1532C34.6137 34.3639 34.6002 33.0976 33.8109 32.325C31.848 30.4034 29.4042 29.0535 26.7426 28.4126C28.073 27.9126 29.2953 27.1318 30.3197 26.1074C31.9066 24.5205 32.9091 22.4582 33.1883 20.2553H33.468C34.5725 20.2553 35.468 19.3599 35.468 18.2553C35.468 17.1507 34.5725 16.2553 33.468 16.2553H32.89C32.4264 14.6123 31.5482 13.099 30.3197 11.8705C28.4317 9.98251 25.8711 8.92188 23.2012 8.92188ZM28.6175 16.2553C28.3298 15.6852 27.9513 15.1589 27.4913 14.6989C27.2625 14.4701 27.0173 14.2615 26.7585 14.0741L26.79 16.2553H28.6175ZM24.123 16.2553L24.0758 12.9852C23.7878 12.9433 23.4956 12.9219 23.2012 12.9219C22.9091 12.9219 22.6191 12.9429 22.3333 12.9842L22.3333 16.2553H24.123ZM19.6667 16.2553L19.6667 14.0577C19.3995 14.2493 19.1466 14.4634 18.9111 14.6989C18.4511 15.1589 18.0726 15.6852 17.7849 16.2553H19.6667ZM17.2677 20.2553C17.5103 21.392 18.0766 22.4445 18.9111 23.279C20.0489 24.4168 21.5921 25.056 23.2012 25.056C24.8103 25.056 26.3535 24.4168 27.4913 23.279C28.3257 22.4445 28.892 21.392 29.1347 20.2553H17.2677Z" fill="#2D373D"/>
<path fill-rule="evenodd" clip-rule="evenodd" d="M48.8293 26.6473C49.6137 26.9379 50.1344 27.6861 50.1344 28.5227V38.2566H53.2713C53.7928 38.2575 54.3032 38.4075 54.7422 38.689C55.1812 38.9705 55.5305 39.3717 55.749 39.8453C55.9673 40.3189 56.0457 40.8451 55.9748 41.3618C55.9039 41.8785 55.6866 42.364 55.3487 42.7612L55.3427 42.7682L43.7848 56.227C43.2397 56.8617 42.3572 57.0901 41.5727 56.7995C40.7882 56.5089 40.2675 55.7607 40.2675 54.924V45.1901H37.1359C36.6145 45.1903 36.1019 45.0413 35.6623 44.7607C35.2222 44.4797 34.8718 44.0786 34.6525 43.6047C34.4332 43.1309 34.3542 42.6041 34.4249 42.0868C34.4956 41.5695 34.7129 41.0832 35.0513 40.6855L35.0573 40.6784L46.6172 27.2196C47.1623 26.585 48.0448 26.3567 48.8293 26.6473ZM39.8907 41.1901H42.2675C43.372 41.1901 44.2675 42.0856 44.2675 43.1901V49.5253L50.5095 42.2566H48.1344C47.0299 42.2566 46.1344 41.3612 46.1344 40.2566V33.9208L39.8907 41.1901Z" fill="#2D373D"/>
</svg>
