<svg width="24" height="24" viewBox="0 0 24 24" fill="none" xmlns="http://www.w3.org/2000/svg">
<path d="M20.2498 11.25H12.7498V3.67505C12.7498 3.22505 12.4498 2.92505 11.9998 2.92505C11.5498 2.92505 11.2498 3.22505 11.2498 3.67505V11.25H3.6748C3.2248 11.25 2.9248 11.55 2.9248 12C2.9248 12.45 3.2248 12.75 3.6748 12.75H11.2498V20.25C11.2498 20.7 11.5498 21 11.9998 21C12.3748 21 12.7498 20.7 12.7498 20.25V12.75H20.2498C20.6998 12.75 20.9998 12.45 20.9998 12C20.9998 11.55 20.6998 11.25 20.2498 11.25Z" fill="#2D373D"/>
</svg>
