<svg width="32" height="33" viewBox="0 0 32 33" fill="none" xmlns="http://www.w3.org/2000/svg">
<path d="M25.796 20.4032C25.796 25.6298 21.236 30.2565 15.996 30.2565C13.476 30.2565 11.0627 29.1898 9.28935 27.5232C8.88935 27.1365 8.87602 26.5098 9.24935 26.1098C9.62268 25.6965 10.2627 25.6832 10.6627 26.0565C12.1027 27.4165 14.036 28.2565 15.996 28.2565C20.116 28.2565 23.796 24.5365 23.796 20.4032C23.796 17.1898 22.2227 14.3632 22.1693 14.2432C21.9293 13.7498 22.1427 13.1498 22.636 12.9098C23.1293 12.6832 23.7293 12.8832 23.9693 13.3898C23.9693 13.3898 24.4493 14.2432 24.8893 15.4965C25.3427 16.7632 25.796 18.5098 25.796 20.4032Z" fill="#2D373D"/>
<path d="M20.6227 9.70984C20.1827 10.0565 19.556 9.97651 19.2227 9.53651C18.2094 8.22984 17.236 7.17651 16.516 6.45651C16.316 6.24318 16.1427 6.06984 15.9827 5.93651C15.7827 6.12318 15.5293 6.36318 15.2493 6.64318C14.4093 7.48318 13.2893 8.70984 12.1827 10.2165C9.98268 13.2432 7.94268 17.3365 8.22268 21.7898C8.26268 22.3498 7.83602 22.8165 7.28935 22.8565C6.74268 22.8832 6.26268 22.4698 6.22268 21.9232C5.90268 16.7765 8.24935 12.2298 10.5693 9.02984C11.7427 7.42984 12.9293 6.12318 13.836 5.22984C14.276 4.77651 14.6627 4.42984 14.9293 4.18984C15.0627 4.06984 15.1694 3.97651 15.236 3.92318C15.276 3.88318 15.3027 3.85651 15.3293 3.84318C15.3293 3.84318 15.3382 3.83873 15.356 3.82984H15.3693C15.7293 3.50984 16.276 3.50984 16.636 3.82984H16.6493C16.6493 3.82984 16.6627 3.84318 16.676 3.85651C16.6894 3.86984 16.716 3.88318 16.7427 3.90984C16.8094 3.96318 16.8894 4.04318 17.0094 4.14984C17.236 4.34984 17.5427 4.65651 17.9293 5.04318C18.7027 5.80318 19.7293 6.92318 20.8093 8.30984C21.1427 8.74984 21.0627 9.37651 20.6227 9.70984Z" fill="#2D373D"/>
<path d="M29.036 5.29651L4.36935 29.9632C4.16935 30.1632 3.91602 30.2565 3.66268 30.2565C3.40935 30.2565 3.15602 30.1632 2.95602 29.9632C2.56935 29.5765 2.56935 28.9365 2.95602 28.5498L27.6227 3.88318C28.0093 3.49651 28.6493 3.49651 29.036 3.88318C29.4227 4.26984 29.4227 4.90984 29.036 5.29651Z" fill="#2D373D"/>
</svg>
