<svg width="24" height="24" viewBox="0 0 24 24" fill="none" xmlns="http://www.w3.org/2000/svg">
<path d="M6.75 10C6.75 9.58579 6.41421 9.25 6 9.25C5.58579 9.25 5.25 9.58579 5.25 10V12.5C5.25 12.9142 5.58579 13.25 6 13.25C6.41421 13.25 6.75 12.9142 6.75 12.5V10Z" fill="#2D373D"/>
<path fill-rule="evenodd" clip-rule="evenodd" d="M2.25 7C2.25 5.48122 3.48122 4.25 5 4.25H15C16.5188 4.25 17.75 5.48122 17.75 7V7.74692L17.7629 7.73726C18.0622 7.51379 18.4094 7.25451 18.7762 7.02266C19.5164 6.55484 20.326 6.63958 20.9185 7.10114C21.4739 7.53377 21.7881 8.24924 21.7881 9.00001V12.5L21.7848 15.0084C21.7839 15.7597 21.4685 16.4752 20.9119 16.9068C20.3178 17.3673 19.5074 17.4491 18.7684 16.9781C18.4043 16.7461 18.0598 16.487 17.7627 16.2636L17.75 16.2541V17C17.75 18.5188 16.5188 19.75 15 19.75H5C3.48122 19.75 2.25 18.5188 2.25 17V7ZM17.75 14.4239V9.57393C18.0287 9.40885 18.3151 9.19671 18.5787 9.00012L18.654 8.94398C18.9609 8.71489 19.2626 8.48974 19.5776 8.29063C19.6927 8.21786 19.7731 8.20852 19.8205 8.21113C19.8705 8.21387 19.9302 8.23263 19.9967 8.28448C20.1385 8.39492 20.2881 8.6462 20.2881 9.00001V11.9996L20.2848 15.0064C20.2844 15.3605 20.1343 15.6114 19.9927 15.7212C19.9262 15.7727 19.8667 15.7912 19.817 15.7938C19.7698 15.7962 19.6895 15.7866 19.5744 15.7133C19.2617 15.514 18.9624 15.2891 18.6578 15.0602L18.5807 15.0023C18.3165 14.804 18.0294 14.5899 17.75 14.4239ZM5 5.75C4.30964 5.75 3.75 6.30964 3.75 7V17C3.75 17.6904 4.30964 18.25 5 18.25H15C15.6904 18.25 16.25 17.6904 16.25 17V7C16.25 6.30964 15.6904 5.75 15 5.75H5Z" fill="#2D373D"/>
</svg>
