<svg width="32" height="32" viewBox="0 0 32 32" fill="none" xmlns="http://www.w3.org/2000/svg">
<path d="M26.9999 14.9999H16.9999V4.8999C16.9999 4.2999 16.5999 3.8999 15.9999 3.8999C15.3999 3.8999 14.9999 4.2999 14.9999 4.8999V14.9999H4.8999C4.2999 14.9999 3.8999 15.3999 3.8999 15.9999C3.8999 16.5999 4.2999 16.9999 4.8999 16.9999H14.9999V26.9999C14.9999 27.5999 15.3999 27.9999 15.9999 27.9999C16.4999 27.9999 16.9999 27.5999 16.9999 26.9999V16.9999H26.9999C27.5999 16.9999 27.9999 16.5999 27.9999 15.9999C27.9999 15.3999 27.5999 14.9999 26.9999 14.9999Z" fill="#2D373D"/>
</svg>
