<svg width="64" height="65" viewBox="0 0 64 65" fill="none" xmlns="http://www.w3.org/2000/svg">
<path fill-rule="evenodd" clip-rule="evenodd" d="M30.2816 6.58808C31.387 6.15814 32.6135 6.15814 33.719 6.58808L57.3793 15.7901C58.1489 16.0894 58.6558 16.8304 58.6558 17.6561V31.3536C58.6558 32.4594 57.7594 33.3558 56.6536 33.3558C55.5478 33.3558 54.6514 32.4594 54.6514 31.3536V20.5831L34.0025 28.6139V54.6392C34.0025 55.3002 33.6762 55.9186 33.1307 56.2918C32.5851 56.665 31.8906 56.7448 31.2745 56.5053L6.62119 46.9171C5.85162 46.6178 5.34473 45.8767 5.34473 45.051V17.6561C5.34473 16.8304 5.85162 16.0894 6.62119 15.7901L30.2816 6.58808ZM32.0003 25.0961L38.8032 22.4502L19.6736 15.0103L12.8707 17.6561L32.0003 25.0961ZM9.34913 20.5831V43.6814L29.9981 51.7122V28.614L9.34913 20.5831ZM25.1973 12.862L44.3269 20.302L51.1299 17.6561L32.2675 10.3202C32.0956 10.2533 31.9049 10.2533 31.7331 10.3202L25.1973 12.862Z" fill="#2D373D"/>
<path fill-rule="evenodd" clip-rule="evenodd" d="M48.3336 55.5879C51.8314 55.5879 54.6669 52.7524 54.6669 49.2547C54.6669 47.4203 53.5599 44.0578 51.8198 40.859C51.4653 40.2072 51.1078 39.606 50.7604 39.0685C50.6267 39.5166 50.4987 39.9691 50.3692 40.4272L50.3611 40.4557C50.213 40.9795 50.0552 41.5375 49.9009 42.0293C49.7578 42.4856 49.551 43.107 49.2753 43.6607C49.1474 43.9175 48.8828 44.4144 48.4341 44.8946C48.0368 45.3197 46.8437 46.4096 44.9674 46.2371C44.1249 46.1597 43.5253 45.8371 43.2854 45.6977C42.9972 45.5301 42.7842 45.3597 42.6652 45.2591C42.6317 45.2309 42.5994 45.2027 42.5683 45.1749C42.1922 46.8649 42.0003 48.5051 42.0003 49.2547C42.0003 52.7524 44.8357 55.5879 48.3336 55.5879ZM42.3758 39.2792C41.8918 39.0041 41.4033 38.9031 40.9569 39.1325C39.2468 40.0111 38.0003 46.7143 38.0003 49.2547C38.0003 54.9616 42.6266 59.5879 48.3336 59.5879C54.0405 59.5879 58.6669 54.9616 58.6669 49.2547C58.6669 43.5479 52.6669 32.9206 50.0003 32.9206C48.5983 32.9206 47.6404 35.5242 46.9106 37.9812C46.8572 38.1609 46.805 38.3398 46.754 38.5169C46.674 38.7945 46.5968 39.0676 46.522 39.3319C46.0565 40.9783 45.6866 42.2864 45.3337 42.2539C45.2432 42.2456 45.0129 41.96 44.6915 41.5613C44.1671 40.9107 43.3999 39.9591 42.6011 39.4195C42.5263 39.3689 42.4511 39.3219 42.3758 39.2792Z" fill="#2D373D"/>
</svg>
