<svg width="24" height="25" viewBox="0 0 24 25" fill="none" xmlns="http://www.w3.org/2000/svg">
<path d="M13.2748 13.0617C13.2748 12.6117 12.9748 12.3117 12.5248 12.3117H4.7998C4.5748 12.3117 4.4248 12.1617 4.4248 11.9367V5.26172C4.4248 5.03672 4.5748 4.88672 4.7998 4.88672H18.0748C18.2998 4.88672 18.4498 5.03672 18.4498 5.26172V9.68672C18.4498 10.1367 18.7498 10.4367 19.1998 10.4367C19.6498 10.4367 19.9498 10.1367 19.9498 9.68672V5.26172C19.9498 4.21172 19.1248 3.38672 18.0748 3.38672H4.7998C3.7498 3.38672 2.9248 4.21172 2.9248 5.26172V11.8617C2.9248 12.9117 3.7498 13.7367 4.7998 13.7367H12.5248C12.9748 13.7367 13.2748 13.4367 13.2748 13.0617Z" fill="#2D373D"/>
<path d="M6.2248 7.81172C5.9998 8.03672 5.9248 8.26172 5.9248 8.56172C5.9248 9.16172 6.3748 9.61172 6.9748 9.61172C7.5748 9.61172 8.0248 9.16172 8.0248 8.56172C8.0248 7.96172 7.5748 7.51172 6.9748 7.51172C6.6748 7.51172 6.4498 7.58672 6.2248 7.81172Z" fill="#2D373D"/>
<path d="M10.7248 7.81172C10.4998 8.03672 10.4248 8.26172 10.4248 8.56172C10.4248 8.86172 10.4998 9.08672 10.6498 9.31172C10.8748 9.53672 11.0998 9.61172 11.3998 9.61172C11.9998 9.61172 12.4498 9.16172 12.5248 8.56172C12.5248 7.96172 12.0748 7.51172 11.4748 7.51172C11.1748 7.51172 10.9498 7.58672 10.7248 7.81172Z" fill="#2D373D"/>
<path d="M15.0744 7.81172C14.8494 8.03672 14.7744 8.26172 14.7744 8.56172C14.7744 8.86172 14.8494 9.08672 15.0744 9.31172C15.2994 9.53672 15.5244 9.61172 15.8244 9.61172C16.4244 9.61172 16.8744 9.16172 16.8744 8.56172C16.8744 8.26172 16.7994 8.03672 16.5744 7.81172C16.3494 7.58672 16.1244 7.51172 15.8244 7.51172C15.5244 7.51172 15.2994 7.58672 15.0744 7.81172Z" fill="#2D373D"/>
<path d="M20.3244 14.4865H19.9494V14.1115C19.9494 12.5365 18.5994 11.1865 16.9494 11.1865C15.3744 11.1865 14.0244 12.4615 14.0244 14.1115V14.4865H13.6494C13.1994 14.4865 12.8994 14.7865 12.8994 15.2365V20.7865C12.8994 21.2365 13.1994 21.5365 13.6494 21.5365H20.3244C20.6994 21.5365 21.0744 21.1615 21.0744 20.7865V15.2365C21.0744 14.7865 20.7744 14.4865 20.3244 14.4865ZM15.4494 14.1865C15.4494 13.3615 16.1244 12.6865 16.9494 12.6865C17.7744 12.6865 18.4494 13.2865 18.4494 14.1115V14.4865H15.5244L15.4494 14.1865ZM19.5744 20.0365H14.3994V15.9865H19.5744V20.0365Z" fill="#2D373D"/>
<path d="M16.9494 16.9617C16.3494 16.9617 15.8994 17.4117 15.8994 18.0117C15.8994 18.6117 16.3494 19.0617 16.9494 19.0617C17.5494 19.0617 17.9994 18.6117 17.9994 18.0117C17.9994 17.4117 17.5494 16.9617 16.9494 16.9617Z" fill="#2D373D"/>
</svg>
