<svg width="32" height="33" viewBox="0 0 32 33" fill="none" xmlns="http://www.w3.org/2000/svg">
<path fill-rule="evenodd" clip-rule="evenodd" d="M15.9993 22.3859C18.8396 22.3859 21.466 19.7596 21.466 16.9193C21.466 16.2516 21.2546 15.1646 20.8011 13.8042C20.3603 12.482 19.7381 11.0414 19.0306 9.71397C18.3169 8.37497 17.5558 7.22516 16.8608 6.4418C16.5126 6.0493 16.2274 5.80179 16.0211 5.6654C16.0075 5.65642 15.9948 5.64825 15.9829 5.64081C15.9715 5.64792 15.9595 5.6557 15.9466 5.66421C15.7417 5.79997 15.4581 6.04681 15.1115 6.43895C14.4198 7.22161 13.6628 8.37085 12.9532 9.70982C12.2498 11.0371 11.6315 12.4778 11.1935 13.8004C10.743 15.1608 10.5327 16.2493 10.5327 16.9193C10.5327 19.7596 13.159 22.3859 15.9993 22.3859ZM15.9993 24.3859C19.9442 24.3859 23.466 20.8642 23.466 16.9193C23.466 12.9744 18.8394 3.58594 15.9822 3.58594C13.1251 3.58594 8.53265 12.9744 8.53265 16.9193C8.53265 20.8642 12.0544 24.3859 15.9993 24.3859Z" fill="#2D373D"/>
<path fill-rule="evenodd" clip-rule="evenodd" d="M12.9021 15.924C13.4518 15.8703 13.9409 16.2723 13.9946 16.822C14.1173 18.0777 14.8943 18.9193 15.9994 18.9193C16.5517 18.9193 16.9994 19.367 16.9994 19.9193C16.9994 20.4716 16.5517 20.9193 15.9994 20.9193C13.5696 20.9193 12.1953 18.9731 12.0041 17.0165C11.9504 16.4669 12.3524 15.9777 12.9021 15.924Z" fill="#2D373D"/>
<path fill-rule="evenodd" clip-rule="evenodd" d="M5.51211 21.4721C5.7591 21.966 5.55887 22.5667 5.06489 22.8137C4.99957 22.8464 4.73795 23.0965 4.6773 23.6045C4.62503 24.0423 4.74011 24.6275 5.3248 25.2122C6.22728 26.1146 7.27482 26.8565 8.87232 27.3845C10.4953 27.9209 12.7238 28.2487 15.9994 28.2487C19.275 28.2487 21.5034 27.9209 23.1264 27.3845C24.7239 26.8565 25.7715 26.1146 26.6739 25.2122C27.2586 24.6275 27.3737 24.0423 27.3214 23.6045C27.2608 23.0965 26.9992 22.8464 26.9338 22.8137C26.4399 22.5667 26.2396 21.966 26.4866 21.4721C26.7336 20.9781 27.3343 20.7779 27.8283 21.0248C28.6518 21.4366 29.1902 22.3864 29.3073 23.3674C29.4328 24.4185 29.1035 25.6111 28.0881 26.6264C26.9906 27.7239 25.6807 28.6467 23.754 29.2835C21.8529 29.9118 19.3904 30.2487 15.9994 30.2487C12.6083 30.2487 10.1459 29.9118 8.24472 29.2835C6.31806 28.6467 5.00811 27.7239 3.91059 26.6264C2.89528 25.6111 2.56591 24.4185 2.69141 23.3674C2.80853 22.3864 3.3469 21.4366 4.17047 21.0248C4.66444 20.7779 5.26512 20.9781 5.51211 21.4721Z" fill="#2D373D"/>
</svg>
