<svg width="16" height="17" viewBox="0 0 16 17" fill="none" xmlns="http://www.w3.org/2000/svg">
<path d="M5.51546 6.67759C5.68609 5.99504 6.11692 5.00195 6.83192 4.26171C7.44757 3.62432 8.26107 3.1818 9.33011 3.26417C9.24926 4.72863 9.60698 5.60749 10.1188 6.11938C10.3956 6.39617 10.6918 6.53792 10.923 6.6097C11.0382 6.64544 11.1378 6.66404 11.2122 6.67376C11.2496 6.67863 11.2809 6.68131 11.3052 6.68277C11.3173 6.68351 11.3277 6.68394 11.3362 6.68419L11.3476 6.68444L11.3522 6.68449L11.3543 6.6845L11.3552 6.6845C11.3552 6.6845 11.3569 6.6845 11.3543 6.6845L11.3569 6.6845L11.3576 6.6845L11.3592 6.68449L11.3626 6.68446L11.3702 6.68432L11.378 6.68409L11.3888 6.68364C11.4028 6.68297 11.4196 6.6818 11.4393 6.67984C11.4786 6.67591 11.529 6.66877 11.5888 6.65596C11.7087 6.63027 11.8652 6.58201 12.0449 6.49217C12.2836 6.37281 12.5542 6.18458 12.8301 5.89167C13.084 6.2426 13.3415 6.63842 13.5067 7.10881C13.7455 7.78834 13.7841 8.62312 13.1617 9.64527C13.0181 9.88112 13.0928 10.1887 13.3287 10.3324C13.5645 10.476 13.8722 10.4012 14.0158 10.1654C14.8048 8.86964 14.7814 7.71988 14.4502 6.77733C14.1866 6.02713 13.721 5.40658 13.4127 4.99567C13.3519 4.91458 13.2972 4.84166 13.2514 4.77751C13.1559 4.64381 13.0007 4.56558 12.8364 4.56824C12.6721 4.57089 12.5196 4.65411 12.4285 4.79083C12.1009 5.2822 11.7931 5.50003 11.5976 5.59775C11.4982 5.64745 11.4222 5.66896 11.3793 5.67816C11.3675 5.68068 11.3581 5.6823 11.3513 5.68332L11.3416 5.68216C11.3158 5.67879 11.2729 5.67122 11.2194 5.65464C11.1135 5.62175 10.9678 5.55417 10.826 5.41231C10.5546 5.14097 10.188 4.48094 10.3647 2.89044C10.3933 2.63267 10.2201 2.3958 9.96577 2.34494C8.27798 2.00737 6.99667 2.65173 6.11265 3.56698C5.36496 4.34107 4.89058 5.31482 4.64512 6.08506C4.55395 6.05112 4.44152 5.98826 4.3135 5.89369C4.01998 5.67685 3.7369 5.36271 3.56987 5.14C3.41065 4.9277 3.11331 4.87677 2.89251 5.02397C1.85007 5.71895 1.41101 6.74281 1.34458 7.71593C1.27951 8.66901 1.56796 9.61155 2.02964 10.2105C2.19822 10.4293 2.51218 10.4699 2.7309 10.3013C2.94961 10.1328 2.99026 9.81879 2.82168 9.60007C2.52452 9.21454 2.29203 8.5198 2.34225 7.78404C2.38264 7.1924 2.60316 6.6002 3.09847 6.1326C3.27742 6.32645 3.49076 6.52917 3.71931 6.69801C3.91642 6.84363 4.14807 6.9815 4.39726 7.0562C4.65077 7.1322 4.95751 7.15178 5.254 7.00354C5.38455 6.93826 5.48006 6.81919 5.51546 6.67759Z" fill="#2D373D"/>
<path d="M11.9853 11.6126L7.98592 7.73106C7.62628 8.07408 7.03657 8.6577 6.40026 9.28745L6.09932 9.58523C5.30627 10.3697 4.48624 11.1778 4.00598 11.6212C3.80308 11.8085 3.48675 11.7959 3.29944 11.593C3.11213 11.39 3.12478 11.0737 3.32768 10.8864C3.79226 10.4575 4.59795 9.66378 5.39606 8.8743L5.697 8.57651C6.38149 7.89906 7.02485 7.26233 7.38185 6.92573C7.75373 6.57509 8.27958 6.62253 8.61145 6.94463L12.6817 10.895C12.8799 11.0873 12.8846 11.4039 12.6923 11.602C12.5 11.8002 12.1834 11.8049 11.9853 11.6126Z" fill="#2D373D"/>
<path d="M11.6525 11.9206C11.6525 11.6444 11.4287 11.4206 11.1525 11.4206C10.8764 11.4206 10.6525 11.6444 10.6525 11.9206L10.6525 14.5868H9.40075V12.5873C9.40075 12.1271 9.02766 11.754 8.56742 11.754H7.42949C6.96925 11.754 6.59615 12.1271 6.59615 12.5873V14.5869L5.34759 14.5869L5.34758 11.9206C5.34758 11.6445 5.12373 11.4206 4.84758 11.4206C4.57144 11.4206 4.34758 11.6445 4.34758 11.9206L4.34758 14.5895C4.34754 14.7013 4.3475 14.823 4.35872 14.924C4.37018 15.0272 4.40242 15.2196 4.55861 15.3758C4.7148 15.532 4.90715 15.5642 5.01037 15.5757C5.11137 15.5869 5.23314 15.5869 5.34496 15.5869L7.09615 15.5869C7.3723 15.5869 7.59615 15.363 7.59615 15.0869V12.754H8.40075V15.0868C8.40075 15.363 8.62461 15.5868 8.90075 15.5868L10.6552 15.5868C10.767 15.5869 10.8887 15.5869 10.9897 15.5757C11.0929 15.5642 11.2853 15.532 11.4415 15.3758C11.5977 15.2196 11.6299 15.0272 11.6414 14.924C11.6526 14.823 11.6526 14.7013 11.6525 14.5895L11.6525 11.9206Z" fill="#2D373D"/>
<path d="M11.4864 9.37891C11.2103 9.37891 10.9864 9.15505 10.9864 8.87891L10.9864 8.08757H10.1952C9.91902 8.08757 9.69516 7.86371 9.69516 7.58757C9.69516 7.31142 9.91902 7.08757 10.1952 7.08757H11.4864C11.7626 7.08757 11.9864 7.31142 11.9864 7.58757L11.9864 8.87891C11.9864 9.15505 11.7626 9.37891 11.4864 9.37891Z" fill="#2D373D"/>
</svg>
