<svg width="32" height="32" viewBox="0 0 32 32" fill="none" xmlns="http://www.w3.org/2000/svg">
<path d="M7.95605 18.5758C8.66825 18.5758 9.2456 17.9992 9.2456 17.2879C9.2456 16.5766 8.66825 16 7.95605 16C7.24385 16 6.6665 16.5766 6.6665 17.2879C6.6665 17.9992 7.24385 18.5758 7.95605 18.5758Z" fill="#2D373D"/>
<path fill-rule="evenodd" clip-rule="evenodd" d="M14.6399 17.8453C15.1922 17.8453 15.6399 18.293 15.6399 18.8453V24.262H18.1271V20.5953C18.1271 20.0331 18.3415 19.4863 18.7348 19.0773C19.1294 18.6669 19.6732 18.4287 20.2489 18.4287H21.3707C21.9463 18.4287 22.4901 18.6669 22.8847 19.0773C23.2781 19.4863 23.4925 20.0331 23.4925 20.5953V24.262H25.9796V18.8453C25.9796 18.293 26.4274 17.8453 26.9796 17.8453C27.5319 17.8453 27.9796 18.293 27.9796 18.8453V25.262C27.9796 25.8143 27.5319 26.262 26.9796 26.262H22.4925C21.9402 26.262 21.4925 25.8143 21.4925 25.262V20.5953C21.4925 20.5387 21.4705 20.492 21.4431 20.4635C21.4169 20.4363 21.39 20.4287 21.3707 20.4287H20.2489C20.2295 20.4287 20.2026 20.4363 20.1765 20.4635C20.1491 20.492 20.1271 20.5387 20.1271 20.5953V25.262C20.1271 25.8143 19.6794 26.262 19.1271 26.262H14.6399C14.0876 26.262 13.6399 25.8143 13.6399 25.262V18.8453C13.6399 18.293 14.0876 17.8453 14.6399 17.8453Z" fill="#2D373D"/>
<path fill-rule="evenodd" clip-rule="evenodd" d="M20.8098 10.4119C20.7993 10.4119 20.788 10.414 20.7761 10.4191C20.7641 10.4243 20.7505 10.433 20.7373 10.4468L13.1171 18.3718C12.7344 18.7699 12.1013 18.7823 11.7032 18.3995C11.3051 18.0167 11.2927 17.3837 11.6755 16.9856L19.2952 9.06101C19.2953 9.06093 19.2952 9.06109 19.2952 9.06101C19.4903 8.85803 19.7244 8.69458 19.9845 8.58245C20.2449 8.47023 20.5255 8.41191 20.8098 8.41191C21.0941 8.41191 21.3746 8.47023 21.635 8.58245C21.8952 8.69459 22.129 8.85781 22.3241 9.0608C22.3242 9.06087 22.324 9.06073 22.3241 9.0608L29.9441 16.9856C30.3269 17.3837 30.3144 18.0167 29.9163 18.3995C29.5182 18.7823 28.8852 18.7699 28.5024 18.3718L20.8824 10.447C20.8692 10.4333 20.8555 10.4243 20.8434 10.4191C20.8315 10.414 20.8202 10.4119 20.8098 10.4119Z" fill="#2D373D"/>
<path d="M21.5904 5.33333H10.968C10.2294 5.33251 9.50819 5.55788 8.90145 5.97913C8.31509 6.39171 7.86859 6.97339 7.62159 7.64647L5.59026 12.0496C4.99546 12.274 4.45514 12.6222 4.00512 13.0712C3.57813 13.4979 3.23998 14.0051 3.01023 14.5634C2.78047 15.1217 2.66366 15.72 2.66656 16.3237V19.0947C2.66941 19.8166 2.95623 20.5083 3.465 21.0204L3.59416 21.126V22.7699C3.57835 23.321 3.73089 23.8639 4.03145 24.3262C4.332 24.7884 4.7663 25.1481 5.27646 25.3573C5.78661 25.5664 6.3484 25.6151 6.88695 25.4969C7.4255 25.3787 7.91523 25.0992 8.29087 24.6955C8.54491 24.4435 8.74632 24.1434 8.88339 23.8129C9.02046 23.4823 9.09046 23.1278 9.08932 22.7699V21.7953H12.2022C12.4357 21.7953 12.6597 21.7025 12.8249 21.5374C12.99 21.3722 13.0828 21.1482 13.0828 20.9147C13.0828 20.6811 12.99 20.4571 12.8249 20.292C12.6597 20.1268 12.4357 20.0341 12.2022 20.0341H5.39065C5.13931 20.0341 4.89791 19.9359 4.718 19.7604C4.5381 19.5849 4.43396 19.346 4.42782 19.0947V16.3237C4.42627 15.9562 4.49749 15.5921 4.63738 15.2524C4.77727 14.9126 4.98306 14.604 5.24286 14.3441C5.50267 14.0843 5.81136 13.8786 6.15111 13.7387C6.49086 13.5988 6.85495 13.5276 7.22237 13.5291H13.0306C13.2642 13.5291 13.4882 13.4363 13.6533 13.2712C13.8185 13.106 13.9112 12.882 13.9112 12.6485C13.9112 12.4149 13.8185 12.1909 13.6533 12.0258C13.4882 11.8606 13.2642 11.7678 13.0306 11.7678H7.62159L9.21848 8.30401C9.34998 7.94767 9.58769 7.64028 9.8995 7.42337C10.2156 7.21117 10.5873 7.09682 10.968 7.0946H21.5904C21.8239 7.0946 22.0479 7.00182 22.2131 6.83667C22.3782 6.67152 22.471 6.44753 22.471 6.21397C22.471 5.98041 22.3782 5.75642 22.2131 5.59127C22.0479 5.42612 21.8239 5.33333 21.5904 5.33333ZM7.26934 22.7464C7.26717 22.9345 7.20995 23.1179 7.10475 23.2738C6.99954 23.4298 6.85096 23.5515 6.67735 23.6239C6.50374 23.6963 6.31271 23.7163 6.12787 23.6814C5.94302 23.6465 5.77245 23.5582 5.63723 23.4274C5.54677 23.3388 5.47517 23.2328 5.42675 23.1157C5.37832 22.9987 5.35406 22.8731 5.35543 22.7464V21.7836H7.26934V22.7464Z" fill="#2D373D"/>
</svg>
