<svg width="32" height="33" viewBox="0 0 32 33" fill="none" xmlns="http://www.w3.org/2000/svg">
<path d="M22.1002 16.4619C21.7002 16.0619 21.1002 16.0619 20.7002 16.4619L17.0002 20.0619V10.4619C17.0002 9.86191 16.6002 9.46191 16.0002 9.46191C15.4002 9.46191 15.0002 9.86191 15.0002 10.4619V20.0619L11.4002 16.4619C11.0002 16.0619 10.4002 16.0619 10.0002 16.4619C9.6002 16.8619 9.6002 17.4619 10.0002 17.8619L15.3002 23.1619C15.5002 23.3619 15.7002 23.4619 16.0002 23.4619C16.3002 23.4619 16.5002 23.3619 16.7002 23.1619L22.1002 17.8619C22.5002 17.4619 22.5002 16.8619 22.1002 16.4619Z" fill="#2D373D"/>
</svg>
