<svg width="64" height="65" viewBox="0 0 64 65" fill="none" xmlns="http://www.w3.org/2000/svg">
<path fill-rule="evenodd" clip-rule="evenodd" d="M30.2073 18.8077C30.7488 18.4778 31.3707 18.3032 32.0047 18.3032C32.6388 18.3032 33.2607 18.4778 33.8021 18.8077C34.3436 19.1377 34.7838 19.6103 35.0745 20.1738C35.0846 20.1935 35.0944 20.2133 35.1039 20.2332L37.623 25.5414H41.5423C42.2188 25.5337 42.8826 25.7266 43.4497 26.0961C44.0229 26.4694 44.471 27.0059 44.7365 27.6363C45.0019 28.2667 45.0724 28.9622 44.9388 29.633C44.8053 30.3038 44.4739 30.9193 43.9873 31.4001C43.9625 31.4245 43.9371 31.4483 43.9111 31.4715L40.2116 34.7633L42.2877 39.5338C42.5664 40.1986 42.629 40.9343 42.4669 41.6367C42.3048 42.3392 41.9261 42.9729 41.3842 43.4484C40.8423 43.9238 40.1646 44.2169 39.4471 44.2863C38.7356 44.3551 38.0205 44.2005 37.4012 43.8441L32.0004 40.8065L26.5995 43.8441C25.9802 44.2005 25.2651 44.3551 24.5536 44.2863C23.8361 44.2169 23.1585 43.9238 22.6166 43.4484C22.0747 42.9729 21.6959 42.3392 21.5338 41.6367C21.3717 40.9343 21.4345 40.1987 21.7132 39.5338L21.7236 39.509L23.7897 34.7621L20.097 31.4703C20.0715 31.4475 20.0465 31.4241 20.0222 31.4001C19.5356 30.9193 19.2042 30.3039 19.0707 29.633C18.9371 28.9622 19.0076 28.2667 19.273 27.6363C19.5384 27.0059 19.9866 26.4694 20.5597 26.0961C21.1269 25.7266 21.7907 25.5337 22.4672 25.5414H26.3864L28.9056 20.2332C28.915 20.2133 28.9248 20.1935 28.935 20.1738C29.2257 19.6103 29.6659 19.1377 30.2073 18.8077ZM32.0047 23.0324L34.5515 28.3989C34.8827 29.0966 35.586 29.5414 36.3584 29.5414H40.0629L36.4699 32.7384C35.824 33.3132 35.6205 34.2379 35.9655 35.0307L37.9345 39.5548L32.9808 36.7687C32.372 36.4263 31.6287 36.4263 31.0199 36.7687L26.0663 39.5548L28.0352 35.0307C28.3799 34.2385 28.1771 33.3145 27.5322 32.7396L23.9444 29.5414H27.6511C28.4235 29.5414 29.1268 29.0966 29.4579 28.3989L32.0047 23.0324Z" fill="#2D373D"/>
<path fill-rule="evenodd" clip-rule="evenodd" d="M13.1914 13.6523C18.1798 8.66382 24.9456 5.86133 32.0004 5.86133C39.0551 5.86133 45.821 8.66382 50.8094 13.6523C55.7979 18.6408 58.6004 25.4066 58.6004 32.4613C58.6004 39.5161 55.7979 46.2819 50.8094 51.2704C45.821 56.2588 39.0551 59.0613 32.0004 59.0613C24.9456 59.0613 18.1798 56.2588 13.1914 51.2704C8.20288 46.2819 5.40039 39.5161 5.40039 32.4613C5.40039 25.4066 8.20288 18.6408 13.1914 13.6523ZM32.0004 9.86133C26.0065 9.86133 20.2581 12.2424 16.0198 16.4807C11.7815 20.719 9.40039 26.4674 9.40039 32.4613C9.40039 38.4552 11.7815 44.2036 16.0198 48.4419C20.2581 52.6803 26.0065 55.0613 32.0004 55.0613C37.9943 55.0613 43.7427 52.6803 47.981 48.4419C52.2193 44.2036 54.6004 38.4552 54.6004 32.4613C54.6004 26.4674 52.2193 20.719 47.981 16.4807C43.7427 12.2424 37.9943 9.86133 32.0004 9.86133Z" fill="#2D373D"/>
</svg>
