<svg width="32" height="33" viewBox="0 0 32 33" fill="none" xmlns="http://www.w3.org/2000/svg">
<path d="M26.9999 26.4612H26.4999V17.8612C26.4999 16.9612 25.7999 16.1612 24.7999 16.1612H21.8999C20.9999 16.1612 20.1999 16.8612 20.1999 17.8612V26.4612H19.0999V14.9612C19.0999 14.0612 18.3999 13.2612 17.3999 13.2612H14.4999C13.5999 13.2612 12.7999 13.9612 12.7999 14.9612V26.4612H11.7999V22.3612C11.7999 21.4612 11.0999 20.6612 10.0999 20.6612H7.0999C6.1999 20.6612 5.3999 21.3612 5.3999 22.3612V26.4612H4.8999C4.2999 26.4612 3.8999 26.8612 3.8999 27.4612C3.8999 28.0612 4.2999 28.4612 4.8999 28.4612H26.9999C27.5999 28.4612 27.9999 28.0612 27.9999 27.4612C27.9999 26.8612 27.5999 26.4612 26.9999 26.4612ZM9.7999 26.4612H7.3999V22.5612H9.7999V26.4612ZM17.1999 26.4612H14.7999V15.2612H17.1999V26.4612ZM24.4999 26.4612H22.0999V18.1612H24.4999V26.4612Z" fill="#2D373D"/>
<path d="M26.9999 4.36133H22.5999C21.9999 4.36133 21.5999 4.76133 21.5999 5.36133C21.5999 5.96133 21.9999 6.36133 22.5999 6.36133H24.5999L21.2999 9.66133C20.9999 9.96133 20.5999 10.0613 20.0999 9.96133L14.4999 8.46133C13.3999 8.16133 12.1999 8.46133 11.3999 9.26133L5.6999 14.9613C5.2999 15.3613 5.2999 15.9613 5.6999 16.3613C5.8999 16.5613 6.0999 16.6613 6.3999 16.6613C6.5999 16.6613 6.8999 16.5613 7.0999 16.3613L12.7999 10.6613C13.0999 10.3613 13.5999 10.2613 13.9999 10.3613L19.4999 11.8613C20.5999 12.1613 21.8999 11.8613 22.6999 11.0613L25.9999 7.76133V9.76133C25.9999 10.3613 26.3999 10.7613 26.9999 10.7613C27.5999 10.7613 27.9999 10.3613 27.9999 9.76133V5.36133C27.9999 4.76133 27.5999 4.36133 26.9999 4.36133Z" fill="#2D373D"/>
</svg>
