<svg width="32" height="33" viewBox="0 0 32 33" fill="none" xmlns="http://www.w3.org/2000/svg">
<path d="M16 3.0625C9.9 3.0625 5 7.9625 5 14.0625C5 23.1625 12.7 28.2625 15.1 29.6625C15.4 29.7625 15.7 29.8625 16 29.8625C16.3 29.8625 16.6 29.7625 16.9 29.6625C19.3 28.3625 27 23.2625 27 14.0625C27 7.9625 22.1 3.0625 16 3.0625ZM16 27.8625C14.3 26.8625 7 22.1625 7 14.0625C7 9.0625 11 5.0625 16 5.0625C20.9 5.0625 24.9 9.0625 25 14.0625C25 22.0625 18.2 26.5625 16 27.8625Z" fill="#2D373D"/>
<path d="M20.2 11.2625H19.1V10.1625C19.1 8.9625 18.1 8.0625 17 8.0625H14.9C13.7 8.0625 12.8 9.0625 12.8 10.1625V11.2625H11.7C10.5 11.2625 9.59998 12.2625 9.59998 13.3625V15.4625C9.59998 16.6625 10.6 17.5625 11.7 17.5625H12.8V18.6625C12.8 19.8625 13.8 20.7625 14.9 20.7625H17C18.2 20.7625 19.1 19.8625 19.1 18.6625V17.5625H20.2C21.4 17.5625 22.3 16.5625 22.3 15.4625V13.3625C22.3 12.1625 21.3 11.2625 20.2 11.2625ZM20.2 15.6625H18.1C17.5 15.6625 17.1 16.0625 17.1 16.6625L17 18.8625L14.8 18.7625V16.6625C14.8 16.0625 14.4 15.6625 13.8 15.6625L11.6 15.5625L11.7 13.3625H13.8C14.4 13.3625 14.8 12.9625 14.8 12.3625L14.9 10.1625H17.1V12.3625C17.1 12.9625 17.5 13.3625 18.1 13.3625H20.2C20.3 13.3625 20.3 13.4625 20.3 13.4625L20.2 15.6625Z" fill="#2D373D"/>
</svg>
