<svg width="32" height="33" viewBox="0 0 32 33" fill="none" xmlns="http://www.w3.org/2000/svg">
<path fill-rule="evenodd" clip-rule="evenodd" d="M6.19908 9.29284C6.66159 8.83071 7.28867 8.57111 7.94251 8.57111C8.59655 8.57111 9.22381 8.83087 9.68636 9.29327M9.68636 9.29327L12.2792 11.8851C12.5084 12.1142 12.6903 12.3862 12.8143 12.6855C12.9384 12.9849 13.0022 13.3058 13.0022 13.6298C13.0022 13.9539 12.9384 14.2748 12.8143 14.5741C12.6903 14.8733 12.5086 15.1452 12.2795 15.3742C12.1921 15.4617 12.1429 15.5804 12.1429 15.7041C12.1429 15.8278 12.1921 15.9464 12.2795 16.0339L16.4268 20.1823C16.5143 20.2697 16.633 20.3189 16.7567 20.3189C16.8804 20.3189 16.9991 20.2697 17.0866 20.1823C17.3156 19.9532 17.5875 19.7715 17.8867 19.6475C18.186 19.5234 18.5069 19.4596 18.831 19.4596C19.155 19.4596 19.4759 19.5234 19.7753 19.6475C20.0744 19.7715 20.3462 19.9531 20.5752 20.1821L23.1691 22.774C23.3983 23.0031 23.5802 23.2751 23.7042 23.5745C23.8283 23.8739 23.8921 24.1947 23.8921 24.5188C23.8921 24.8428 23.8283 25.1637 23.7042 25.4631C23.5802 25.7624 23.3983 26.0344 23.1691 26.2635L22.5546 26.878C21.6858 27.7473 20.5462 28.2945 19.3245 28.4286C18.1027 28.5628 16.8717 28.2761 15.8349 27.616C15.8226 27.6082 15.8105 27.6001 15.7985 27.5917L15.7955 27.5896C11.488 24.6781 7.77817 20.9682 4.86669 16.6605C4.85687 16.646 4.84743 16.6312 4.83838 16.6162C4.18341 15.582 3.89921 14.3557 4.03266 13.1386C4.16662 11.9168 4.71341 10.7773 5.58266 9.90828L6.19908 9.29284M16.922 25.9371C17.5721 26.3469 18.342 26.5245 19.1062 26.4406C19.8755 26.3561 20.5929 26.0117 21.1399 25.4643L21.7551 24.8491C21.7985 24.8057 21.8331 24.754 21.8566 24.6974C21.8801 24.6408 21.8921 24.5801 21.8921 24.5188C21.8921 24.4575 21.8801 24.3968 21.8566 24.3402C21.8331 24.2836 21.7988 24.2321 21.7554 24.1888L19.1615 21.5968C19.1182 21.5535 19.0662 21.5186 19.0096 21.4951C18.953 21.4717 18.8923 21.4596 18.831 21.4596C18.7697 21.4596 18.709 21.4717 18.6523 21.4951C18.5957 21.5186 18.5443 21.553 18.5009 21.5963C18.0384 22.0588 17.4108 22.3189 16.7567 22.3189C16.1027 22.3189 15.4754 22.0591 15.0128 21.5967L10.8651 17.448C10.4027 16.9854 10.1429 16.3581 10.1429 15.7041C10.1429 15.05 10.4027 14.4228 10.8651 13.9602C10.9085 13.9169 10.9432 13.8651 10.9667 13.8085C10.9901 13.7518 11.0022 13.6911 11.0022 13.6298C11.0022 13.5685 10.9901 13.5078 10.9667 13.4512C10.9432 13.3946 10.9088 13.3431 10.8654 13.2998L8.27241 10.7077C8.18491 10.6203 8.06623 10.5711 7.94251 10.5711C7.81878 10.5711 7.70012 10.6202 7.61262 10.7077L6.99665 11.3227C6.44962 11.8698 6.10507 12.5875 6.02075 13.3566C5.93641 14.1258 6.11703 14.9008 6.53277 15.5535C6.53414 15.5557 6.5355 15.5579 6.53685 15.56C9.30476 19.6499 12.8298 23.1723 16.922 25.9371Z" fill="#2D373D"/>
<path d="M27.9275 5.08662C27.8787 4.96549 27.8052 4.852 27.707 4.75383C27.5117 4.55857 27.2558 4.46093 26.9999 4.46094C26.9998 4.46094 26.9999 4.46094 26.9999 4.46094H21.1335C20.5812 4.46094 20.1335 4.90865 20.1335 5.46094C20.1335 6.01322 20.5812 6.46094 21.1335 6.46094H24.5857L16.7599 14.2867C16.3694 14.6772 16.3694 15.3104 16.7599 15.7009C17.1505 16.0914 17.7836 16.0914 18.1741 15.7009L25.9999 7.87516V11.3273C25.9999 11.8796 26.4476 12.3273 26.9999 12.3273C27.5522 12.3273 27.9999 11.8796 27.9999 11.3273V5.46094C27.9999 5.45053 27.9997 5.44016 27.9994 5.42982" fill="#2D373D"/>
</svg>
