<svg width="24" height="25" viewBox="0 0 24 25" fill="none" xmlns="http://www.w3.org/2000/svg">
<path fill-rule="evenodd" clip-rule="evenodd" d="M11.7409 5.11566C10.693 4.66446 9.29049 4.42393 7.99995 4.42383C6.70946 4.42373 5.30696 4.6642 4.25913 5.11541C3.72886 5.34375 3.35559 5.59844 3.1367 5.83251C3.06014 5.91438 3.01985 5.97337 3 6.008V12.9237C3 15.2142 3.69703 17.356 4.7194 18.9443C5.75777 20.5575 7.01383 21.4238 8.00003 21.4238C8.98619 21.4239 10.2422 20.5577 11.2806 18.9445C12.303 17.3561 13 15.2142 13 12.9237V6.00817C12.9802 5.97354 12.9399 5.91457 12.8633 5.83274C12.6444 5.59868 12.2712 5.34401 11.7409 5.11566ZM13.0171 6.0446C13.0171 6.0446 13.0146 6.04017 13.012 6.03107C13.0162 6.04002 13.0171 6.0446 13.0171 6.0446ZM2.98295 6.04442C2.98295 6.04442 2.98385 6.03983 2.98801 6.03087C2.98543 6.03998 2.98295 6.04442 2.98295 6.04442ZM8 2.92383C10.7115 2.92404 14 3.92383 14 5.92374V12.9237C14 18.4238 10.6667 22.9239 8 22.9238C5.33333 22.9237 2 18.4237 2 12.9237V5.92362C2 3.92362 5.28853 2.92362 8 2.92383Z" fill="#2D373D"/>
<path d="M10.5222 11.4238H8.50202V8.4238C8.50202 8.01133 8.27475 7.67383 7.99697 7.67383C7.71919 7.67383 7.49192 8.01133 7.49192 8.4238V11.4238H5.47172C5.19394 11.4238 4.96667 11.7613 4.96667 12.1738C4.96667 12.5863 5.19394 12.9238 5.47172 12.9238H7.49192V15.9238C7.49192 16.3363 7.71919 16.6738 7.99697 16.6738C8.27475 16.6738 8.50202 16.3363 8.50202 15.9238V12.9238H10.5222C10.8 12.9238 11.0273 12.5863 11.0273 12.1738C11.0273 11.7613 10.8 11.4238 10.5222 11.4238Z" fill="#2D373D"/>
</svg>
