<svg width="64" height="64" viewBox="0 0 64 64" fill="none" xmlns="http://www.w3.org/2000/svg">
<path d="M15.9126 37.1517C17.337 37.1517 18.4917 35.9984 18.4917 34.5758C18.4917 33.1532 17.337 32 15.9126 32C14.4882 32 13.3335 33.1532 13.3335 34.5758C13.3335 35.9984 14.4882 37.1517 15.9126 37.1517Z" fill="#2D373D"/>
<path fill-rule="evenodd" clip-rule="evenodd" d="M58.0002 33.6065C58.0002 27.9102 53.2278 24.6482 48.6693 24.3554C49.6206 23.3734 50.2648 22.0922 50.4473 20.6667H58.0002C59.1047 20.6667 60.0002 19.7712 60.0002 18.6667C60.0002 17.5621 59.1047 16.6667 58.0002 16.6667H50.0002C49.8951 16.6667 49.7919 16.6748 49.6912 16.6904C48.5834 14.6886 46.4501 13.3333 44.0002 13.3333C41.4777 13.3333 39.2908 14.7702 38.2134 16.8701C37.9479 16.7398 37.6492 16.6667 37.3335 16.6667H29.3335C28.2289 16.6667 27.3335 17.5621 27.3335 18.6667C27.3335 19.7712 28.2289 20.6667 29.3335 20.6667H37.3335C37.4072 20.6667 37.48 20.6627 37.5516 20.6549C37.732 22.0852 38.3772 23.3707 39.3311 24.3554C34.7725 24.6482 30.0002 27.9102 30.0002 33.6065V42.6975C30.0002 44.9587 31.3086 46.4514 32.7621 47.2773C34.1414 48.0609 35.7563 48.3338 37.0002 48.3338H39.0002C39.0007 51.0948 41.2391 53.3328 44.0002 53.3328C46.7613 53.3328 48.9997 51.0948 49.0002 48.3338H51.0002C52.244 48.3338 53.8589 48.061 55.2382 47.2773C56.6917 46.4514 58.0002 44.9587 58.0002 42.6975V33.6065ZM44.0002 22.3333C45.3809 22.3333 46.5002 21.214 46.5002 19.8333C46.5002 18.4526 45.3809 17.3333 44.0002 17.3333C42.6195 17.3333 41.5002 18.4526 41.5002 19.8333C41.5002 21.214 42.6195 22.3333 44.0002 22.3333ZM40.0002 28.3338C36.7478 28.3338 34.0002 30.4916 34.0002 33.6065V42.6975C34.0002 43.1635 34.1918 43.489 34.7382 43.7995C35.3589 44.1521 36.244 44.3338 37.0002 44.3338H39.0002L39.0002 40.3328C39.0002 37.5714 41.2388 35.3328 44.0002 35.3328C46.7616 35.3328 49.0002 37.5714 49.0002 40.3328V44.3338H51.0002C51.7563 44.3338 52.6414 44.1521 53.2621 43.7995C53.8086 43.489 54.0002 43.1635 54.0002 42.6975V33.6065C54.0002 30.4916 51.2525 28.3338 48.0002 28.3338H40.0002ZM45.0002 48.3328V40.3328C45.0002 39.7806 44.5525 39.3328 44.0002 39.3328C43.4479 39.3328 43.0002 39.7806 43.0002 40.3328V48.3328C43.0002 48.8851 43.4479 49.3328 44.0002 49.3328C44.5525 49.3328 45.0002 48.8851 45.0002 48.3328Z" fill="#2D373D"/>
<path d="M30.5596 10.6667H22.3324C20.8199 10.665 19.3431 11.1158 18.1007 11.9583C16.9 12.7834 15.9857 13.9468 15.48 15.2929L11.3204 24.0993C10.1025 24.5479 8.99607 25.2444 8.07456 26.1423C7.20023 26.9959 6.5078 28.0103 6.03733 29.1268C5.56686 30.2434 5.32767 31.4399 5.3336 32.6473V38.1894C5.33945 39.6331 5.92676 41.0166 6.96856 42.0407L7.23304 42.2521V45.5398C7.20068 46.6421 7.51303 47.7278 8.12847 48.6523C8.74392 49.5768 9.63322 50.2962 10.6779 50.7145C11.7225 51.1328 12.8729 51.2303 13.9756 50.9938C15.0784 50.7574 16.0812 50.1983 16.8504 49.3911C17.3706 48.887 17.783 48.2869 18.0637 47.6257C18.3444 46.9646 18.4877 46.2555 18.4854 45.5398V43.5907H24.7324C25.2106 43.5907 25.6693 43.4051 26.0075 43.0748C26.3457 42.7445 26.5357 42.2965 26.5357 41.8294C26.5357 41.3623 26.3457 40.9143 26.0075 40.584C25.6693 40.2537 25.2106 40.0681 24.7324 40.0681H10.9117C10.397 40.0683 9.90271 39.8718 9.53432 39.5208C9.16593 39.1698 8.95268 38.692 8.94013 38.1894V32.6473C8.93695 31.9125 9.08279 31.1843 9.36924 30.5048C9.65569 29.8253 10.0771 29.2079 10.6091 28.6883C11.1411 28.1687 11.7732 27.7571 12.4689 27.4773C13.1646 27.1975 13.9101 27.0551 14.6625 27.0582H26.3652C26.8434 27.0582 27.3021 26.8726 27.6403 26.5423C27.9785 26.212 28.1684 25.7641 28.1684 25.2969C28.1684 24.8298 27.9785 24.3818 27.6403 24.0515C27.3021 23.7212 26.8434 23.5357 26.3652 23.5357H15.48L18.7499 16.608C19.0192 15.8953 19.5059 15.2806 20.1444 14.8467C20.7917 14.4223 21.5527 14.1936 22.3324 14.1892H30.5596C31.0378 14.1892 31.4965 14.0036 31.8347 13.6733C32.1728 13.343 32.3628 12.8951 32.3628 12.4279C32.3628 11.9608 32.1728 11.5128 31.8347 11.1825C31.4965 10.8522 31.0378 10.6667 30.5596 10.6667ZM14.7587 45.4928C14.7542 45.869 14.6371 46.2357 14.4216 46.5476C14.2062 46.8595 13.9019 47.1029 13.5464 47.2478C13.191 47.3927 12.7998 47.4327 12.4213 47.3629C12.0428 47.293 11.6935 47.1164 11.4166 46.8549C11.2314 46.6776 11.0848 46.4655 10.9856 46.2314C10.8864 45.9974 10.8368 45.7461 10.8396 45.4928V43.5672H14.7587V45.4928Z" fill="#2D373D"/>
</svg>
