<svg width="16" height="17" viewBox="0 0 16 17" fill="none" xmlns="http://www.w3.org/2000/svg">
<path d="M14.2249 4.03887C13.9637 3.80159 13.6228 3.67128 13.2699 3.67387H2.7699C2.41821 3.67278 2.07837 3.80089 1.8149 4.03387C1.68406 4.15299 1.57956 4.29815 1.50809 4.46002C1.43663 4.6219 1.39977 4.79692 1.3999 4.97387V12.9739C1.40173 13.1507 1.44048 13.3252 1.51367 13.4862C1.58685 13.6473 1.69286 13.7912 1.8249 13.9089C2.08787 14.1427 2.42804 14.2709 2.7799 14.2689H13.3349C13.6703 14.2696 13.9943 14.1468 14.2449 13.9239C14.3717 13.8117 14.4734 13.674 14.5432 13.5197C14.613 13.3655 14.6494 13.1982 14.6499 13.0289V4.97387C14.6493 4.79681 14.6111 4.62189 14.5379 4.4607C14.4646 4.29951 14.3579 4.15572 14.2249 4.03887V4.03887ZM13.5549 4.77887C13.5832 4.80206 13.6063 4.83098 13.6227 4.86372C13.6391 4.89646 13.6483 4.93229 13.6499 4.96887V5.88887H8.1149V4.67387H13.2699C13.3746 4.67257 13.4761 4.70996 13.5549 4.77887V4.77887ZM5.6649 5.88887V4.67387H7.1149V5.88887H5.6649ZM2.5149 4.77887C2.59465 4.71153 2.69553 4.67436 2.7999 4.67387H4.6649V5.88887H2.3999V4.97387C2.40348 4.93489 2.41565 4.89718 2.43553 4.86347C2.45542 4.82975 2.48252 4.80086 2.5149 4.77887V4.77887ZM13.5749 13.1889C13.5079 13.2455 13.4226 13.2757 13.3349 13.2739H2.7799C2.68212 13.2704 2.58852 13.2333 2.5149 13.1689C2.48227 13.1471 2.45498 13.1183 2.43507 13.0845C2.41515 13.0508 2.40313 13.0129 2.3999 12.9739V6.88887H13.6499V13.0339C13.6491 13.0635 13.6419 13.0927 13.629 13.1194C13.6161 13.1461 13.5976 13.1698 13.5749 13.1889Z" fill="#2D373D"/>
</svg>
