<svg width="24" height="25" viewBox="0 0 24 25" fill="none" xmlns="http://www.w3.org/2000/svg">
<path fill-rule="evenodd" clip-rule="evenodd" d="M7.0782 4.05382C7.2834 3.91415 7.54441 3.88506 7.77532 3.97611L16.3843 7.37071C16.3949 7.37493 16.4055 7.37938 16.416 7.38408C16.742 7.53026 17.0178 7.76832 17.2109 8.06829C17.4039 8.36818 17.5063 8.71747 17.5063 9.07383C17.5063 9.4302 17.4039 9.77948 17.2109 10.0794C17.0178 10.3793 16.742 10.6174 16.416 10.7636C16.4055 10.7683 16.3949 10.7727 16.3843 10.777L8.2502 13.9843V21.1738C8.2502 21.588 7.91441 21.9238 7.5002 21.9238C7.08599 21.9238 6.7502 21.588 6.7502 21.1738V13.4913C6.74993 13.4798 6.74993 13.4682 6.7502 13.4568V4.67383C6.7502 4.42562 6.87301 4.19348 7.0782 4.05382ZM8.2502 12.3719L15.8134 9.38965C15.8679 9.36275 15.9153 9.32088 15.9496 9.26753C15.9863 9.2105 16.0063 9.1432 16.0063 9.07383C16.0063 9.00447 15.9863 8.93716 15.9496 8.88013C15.9153 8.82678 15.8679 8.78492 15.8134 8.75802L8.2502 5.77576V12.3719Z" fill="#2D373D"/>
</svg>
