<svg width="24" height="24" viewBox="0 0 24 24" fill="none" xmlns="http://www.w3.org/2000/svg">
<path d="M15.8301 8.16895C16.123 8.46184 16.123 8.93672 15.8301 9.22961L13.0602 11.9995L15.8301 14.7694C16.123 15.0622 16.123 15.5371 15.8301 15.83C15.5372 16.1229 15.0623 16.1229 14.7694 15.83L11.9995 13.0601L9.22968 15.83C8.93679 16.1229 8.46191 16.1229 8.16902 15.83C7.87613 15.5371 7.87613 15.0622 8.16902 14.7694L10.9389 11.9995L8.16902 9.22961C7.87613 8.93672 7.87613 8.46184 8.16902 8.16895C8.46191 7.87606 8.93679 7.87606 9.22968 8.16895L11.9995 10.9388L14.7694 8.16895C15.0623 7.87606 15.5372 7.87606 15.8301 8.16895Z" fill="#2D373D"/>
<path fill-rule="evenodd" clip-rule="evenodd" d="M2.99902 4.84909C2.99902 3.82733 3.82733 2.99902 4.84909 2.99902H19.15C20.1717 2.99902 21 3.82733 21 4.84909V19.15C21 20.1717 20.1717 21 19.15 21H4.84909C3.82733 21 2.99902 20.1717 2.99902 19.15V4.84909ZM4.84909 4.49902C4.65575 4.49902 4.49902 4.65575 4.49902 4.84909V19.15C4.49902 19.3433 4.65575 19.5 4.84909 19.5H19.15C19.3433 19.5 19.5 19.3433 19.5 19.15V4.84909C19.5 4.65575 19.3433 4.49902 19.15 4.49902H4.84909Z" fill="#2D373D"/>
</svg>
