<svg width="32" height="32" viewBox="0 0 32 32" fill="none" xmlns="http://www.w3.org/2000/svg">
<path d="M13.2001 18.6999C12.5001 19.4999 11.4001 19.9999 10.3001 19.9999H8.6001C6.4001 19.9999 4.6001 18.1999 4.6001 15.9999C4.6001 13.7999 6.4001 11.9999 8.6001 11.9999H10.2001C11.3001 11.9999 12.4001 12.4999 13.1001 13.2999C13.5001 13.6999 14.1001 13.7999 14.5001 13.3999C14.9001 12.9999 15.0001 12.3999 14.6001 11.9999C13.5001 10.6999 11.9001 9.9999 10.3001 9.8999H8.6001C5.3001 9.8999 2.6001 12.5999 2.6001 15.8999C2.6001 19.1999 5.3001 21.8999 8.6001 21.8999H10.2001C11.9001 21.8999 13.5001 21.1999 14.7001 19.9999C15.0001 19.5999 15.0001 18.9999 14.6001 18.5999C14.2001 18.1999 13.6001 18.2999 13.2001 18.6999Z" fill="#2D373D"/>
<path d="M23.4001 9.8999H21.7001C20.0001 9.8999 18.4 10.5999 17.3 11.8999C16.9 12.2999 17 12.8999 17.4 13.2999C17.8 13.5999 18.4 13.5999 18.8 13.1999C19.5 12.3999 20.6001 11.8999 21.7001 11.8999H23.4001C25.6001 11.8999 27.4001 13.6999 27.4001 15.8999C27.4001 18.0999 25.6001 19.8999 23.4001 19.8999H21.7001C20.6001 19.8999 19.5 19.3999 18.8 18.5999C18.4 18.1999 17.8 18.0999 17.4 18.4999C17 18.8999 16.9 19.4999 17.3 19.8999C18.4 21.1999 20.0001 21.8999 21.7001 21.8999H23.4001C26.7001 21.8999 29.4001 19.1999 29.4001 15.8999C29.4001 12.5999 26.7001 9.8999 23.4001 9.8999Z" fill="#2D373D"/>
<path d="M9.2002 16C9.2002 16.6 9.6002 17 10.2002 17H21.8002C22.3002 17 22.8002 16.6 22.8002 16C22.8002 15.4 22.4002 15 21.8002 15H10.2002C9.6002 15 9.2002 15.4 9.2002 16Z" fill="#2D373D"/>
</svg>
