<svg width="16" height="16" viewBox="0 0 16 16" fill="none" xmlns="http://www.w3.org/2000/svg">
<path fill-rule="evenodd" clip-rule="evenodd" d="M1.5 4.6665C1.5 3.65398 2.32081 2.83317 3.33333 2.83317H9.66667C9.94281 2.83317 10.1667 3.05703 10.1667 3.33317C10.1667 3.60931 9.94281 3.83317 9.66667 3.83317H3.33333C2.8731 3.83317 2.5 4.20627 2.5 4.6665V11.3332C2.5 11.6093 2.27614 11.8332 2 11.8332C1.72386 11.8332 1.5 11.6093 1.5 11.3332V4.6665ZM11.3333 4.1665C11.6095 4.1665 11.8333 4.39036 11.8333 4.6665V11.3326C11.8333 12.3449 11.0128 13.1665 10 13.1665H3.33333C3.05719 13.1665 2.83333 12.9426 2.83333 12.6665C2.83333 12.3904 3.05719 12.1665 3.33333 12.1665H10C10.46 12.1665 10.8333 11.7931 10.8333 11.3326V4.6665C10.8333 4.39036 11.0572 4.1665 11.3333 4.1665Z" fill="#2D373D"/>
<path fill-rule="evenodd" clip-rule="evenodd" d="M14.5254 5.99983C14.5254 5.49932 14.3159 5.02234 13.9457 4.73392C13.5507 4.42621 13.0109 4.36972 12.5175 4.6816C12.2729 4.83618 12.0415 5.00902 11.842 5.158L11.7881 5.19822C11.5645 5.36493 11.3972 5.48555 11.2607 5.55744L11.7267 6.44223C11.9451 6.32723 12.1762 6.1562 12.3858 5.99991L12.436 5.96248C12.6406 5.80976 12.8417 5.65965 13.0517 5.52692C13.1285 5.4784 13.182 5.47217 13.2137 5.47391C13.247 5.47574 13.2868 5.48825 13.3312 5.52282C13.4257 5.59644 13.5254 5.76396 13.5254 5.99983V7.99959L13.5232 10.0041C13.5229 10.2402 13.4229 10.4074 13.3284 10.4806C13.2841 10.515 13.2445 10.5273 13.2113 10.529C13.1798 10.5306 13.1263 10.5243 13.0496 10.4753C12.8411 10.3425 12.6416 10.1925 12.4385 10.04L12.3871 10.0013C12.1786 9.84482 11.9486 9.67358 11.7312 9.55818L11.2626 10.4415C11.3983 10.5135 11.5646 10.6342 11.787 10.8011L11.8418 10.8422C12.0398 10.9912 12.2695 11.1639 12.5123 11.3186C13.0049 11.6326 13.5452 11.578 13.9413 11.271C14.3124 10.9833 14.5226 10.5063 14.5232 10.0054L14.525 8.33316H14.5254V5.99983Z" fill="#2D373D"/>
<path fill-rule="evenodd" clip-rule="evenodd" d="M13.6869 2.31295C13.8821 2.50821 13.8821 2.8248 13.6869 3.02006L3.02022 13.6867C2.82496 13.882 2.50838 13.882 2.31311 13.6867C2.11785 13.4915 2.11785 13.1749 2.31311 12.9796L12.9798 2.31295C13.175 2.11769 13.4916 2.11769 13.6869 2.31295Z" fill="#2D373D"/>
<path fill-rule="evenodd" clip-rule="evenodd" d="M4 6.1665C4.27614 6.1665 4.5 6.39036 4.5 6.6665V8.33317C4.5 8.60931 4.27614 8.83317 4 8.83317C3.72386 8.83317 3.5 8.60931 3.5 8.33317V6.6665C3.5 6.39036 3.72386 6.1665 4 6.1665Z" fill="#2D373D"/>
</svg>
