<svg width="32" height="33" viewBox="0 0 32 33" fill="none" xmlns="http://www.w3.org/2000/svg">
<path d="M29.1301 14.7501C28.9301 15.0034 28.6368 15.1501 28.3301 15.1501C28.1168 15.1501 27.9168 15.0834 27.7301 14.9501L16.1568 6.33674C16.1568 6.33674 15.9301 6.19007 15.7568 6.31007C13.6901 7.69674 7.13012 12.3101 4.34346 14.8834C3.93012 15.2567 3.30346 15.2301 2.93012 14.8301C2.55679 14.4167 2.58346 13.7901 2.98346 13.4167C5.81012 10.8034 12.1701 6.31007 14.6501 4.6434C15.4768 4.09674 16.5435 4.1234 17.3435 4.73674L28.9301 13.3501C29.3701 13.6701 29.4635 14.2967 29.1301 14.7501Z" fill="#2D373D"/>
<path d="M25.3301 14.8164C24.7834 14.8164 24.3301 15.2697 24.3301 15.8164V19.8431C22.8234 19.6164 22.0634 18.9097 22.0367 18.8831C21.6634 18.5097 21.0634 18.4964 20.6634 18.8431C20.1567 19.2964 19.1701 19.9231 18.6634 19.9231C18.1301 19.9231 17.1567 19.2831 16.6634 18.8431C16.2767 18.5097 15.7167 18.5097 15.3301 18.8431C14.8234 19.2964 13.8367 19.9231 13.3301 19.9231C12.7967 19.9231 11.8234 19.2831 11.3301 18.8431C10.9301 18.4964 10.3434 18.5097 9.97008 18.8697C9.93008 18.9097 9.17008 19.6164 7.66341 19.8431V15.8164C7.66341 15.2697 7.21008 14.8164 6.66341 14.8164C6.11674 14.8164 5.66341 15.2697 5.66341 15.8164V27.7364C5.66341 29.1231 6.79675 30.2564 8.19675 30.2564H23.7967C25.1967 30.2564 26.3301 29.1231 26.3301 27.7364V15.8164C26.3301 15.2697 25.8767 14.8164 25.3301 14.8164ZM24.3301 27.7364C24.3301 28.0164 24.0901 28.2564 23.7967 28.2564H8.19675C7.90341 28.2564 7.66341 28.0164 7.66341 27.7364V26.5231C9.03674 26.3631 10.0234 25.8964 10.6367 25.5097C11.3034 25.9897 12.3434 26.5897 13.3301 26.5897C14.3167 26.5897 15.3301 26.0031 15.9967 25.5231C16.6634 26.0031 17.6767 26.5897 18.6634 26.5897C19.6501 26.5897 20.6901 25.9897 21.3434 25.5097C21.9567 25.8964 22.9567 26.3631 24.3301 26.5231V27.7364ZM22.0367 23.5497C21.6634 23.1764 21.0634 23.1631 20.6634 23.5097C20.1567 23.9631 19.1701 24.5897 18.6634 24.5897C18.1301 24.5897 17.1567 23.9497 16.6634 23.5097C16.2767 23.1764 15.7167 23.1764 15.3301 23.5097C14.8234 23.9631 13.8367 24.5897 13.3301 24.5897C12.7967 24.5897 11.8234 23.9497 11.3301 23.5097C10.9301 23.1631 10.3434 23.1764 9.97008 23.5364C9.93008 23.5764 9.17008 24.2831 7.66341 24.5097V21.8564C9.03674 21.6964 10.0234 21.2297 10.6367 20.8431C11.3034 21.3231 12.3434 21.9231 13.3301 21.9231C14.3167 21.9231 15.3301 21.3364 15.9967 20.8564C16.6634 21.3364 17.6767 21.9231 18.6634 21.9231C19.6501 21.9231 20.6901 21.3231 21.3434 20.8431C21.9567 21.2297 22.9567 21.6964 24.3301 21.8564V24.5097C22.8234 24.2831 22.0634 23.5764 22.0367 23.5497Z" fill="#2D373D"/>
<path d="M27.3167 4.58984V8.41651C27.3167 8.96318 26.8767 9.41651 26.3167 9.41651C25.7567 9.41651 25.3167 8.96318 25.3167 8.41651V5.58984H22.4901C21.9434 5.58984 21.4901 5.13651 21.4901 4.58984C21.4901 4.04318 21.9434 3.58984 22.4901 3.58984H26.3167C26.8767 3.58984 27.3167 4.04318 27.3167 4.58984Z" fill="#2D373D"/>
</svg>
