<svg width="32" height="33" viewBox="0 0 32 33" fill="none" xmlns="http://www.w3.org/2000/svg">
<path fill-rule="evenodd" clip-rule="evenodd" d="M9.43761 5.09715C9.7112 4.91093 10.0592 4.87214 10.3671 4.99354L21.8457 9.51968C21.8599 9.52529 21.874 9.53124 21.888 9.5375C22.3227 9.73241 22.6905 10.0498 22.9479 10.4498C23.2053 10.8496 23.3417 11.3153 23.3417 11.7905C23.3417 12.2657 23.2053 12.7314 22.9479 13.1312C22.6905 13.5312 22.3227 13.8486 21.888 14.0435C21.874 14.0498 21.8599 14.0557 21.8457 14.0613L11.0003 18.3378V27.9238C11.0003 28.4761 10.5526 28.9238 10.0003 28.9238C9.44798 28.9238 9.00027 28.4761 9.00027 27.9238V17.6805C8.99991 17.6651 8.99991 17.6497 9.00027 17.6344V5.92383C9.00027 5.59288 9.16401 5.28336 9.43761 5.09715ZM11.0003 16.1879L21.0845 12.2116C21.1572 12.1757 21.2204 12.1199 21.2661 12.0488C21.3151 11.9727 21.3417 11.883 21.3417 11.7905C21.3417 11.698 21.3151 11.6083 21.2661 11.5322C21.2204 11.4611 21.1572 11.4053 21.0845 11.3694L11.0003 7.39308V16.1879Z" fill="#2D373D"/>
</svg>
