<svg width="24" height="24" viewBox="0 0 24 24" fill="none" xmlns="http://www.w3.org/2000/svg">
<path fill-rule="evenodd" clip-rule="evenodd" d="M11.9966 5.75004C11.95 5.75004 11.904 5.75919 11.8615 5.77674C11.819 5.79428 11.781 5.81974 11.7496 5.85119L11.7463 5.85443L4.27367 13.2367C3.979 13.5278 3.50413 13.5249 3.21303 13.2302C2.92192 12.9356 2.92481 12.4607 3.21948 12.1696L10.6907 4.78874C10.8622 4.61777 11.0656 4.48248 11.2892 4.3902C11.5136 4.2976 11.754 4.25004 11.9966 4.25004C12.2392 4.25004 12.4796 4.2976 12.7039 4.3902C12.9275 4.48247 13.131 4.61775 13.3024 4.78869C13.303 4.78931 13.3036 4.78993 13.3042 4.79055L20.7737 12.1696C21.0683 12.4607 21.0712 12.9356 20.7801 13.2302C20.489 13.5249 20.0142 13.5278 19.7195 13.2367L12.2436 5.8512C12.2121 5.81975 12.1742 5.79428 12.1317 5.77674C12.0891 5.75919 12.0432 5.75004 11.9966 5.75004Z" fill="#2D373D"/>
<path fill-rule="evenodd" clip-rule="evenodd" d="M5.99981 13.75C6.41403 13.75 6.74981 14.0858 6.74981 14.5V19.5H9.74981V15.75C9.74981 15.7369 9.74978 15.723 9.74974 15.7085C9.74922 15.4935 9.74834 15.1327 9.8508 14.8254C9.91264 14.6399 10.0283 14.4167 10.2503 14.244C10.4788 14.0662 10.7451 14 10.9998 14H12.9998C13.2545 14 13.5208 14.0662 13.7493 14.244C13.9714 14.4167 14.087 14.6399 14.1488 14.8254C14.2513 15.1327 14.2504 15.4935 14.2499 15.7085C14.2498 15.723 14.2498 15.7369 14.2498 15.75V19.5H17.2498V14.5C17.2498 14.0858 17.5856 13.75 17.9998 13.75C18.414 13.75 18.7498 14.0858 18.7498 14.5V20.25C18.7498 20.6642 18.414 21 17.9998 21H13.4998C13.0856 21 12.7498 20.6642 12.7498 20.25V15.75C12.7498 15.6518 12.7496 15.5713 12.7471 15.5H11.2526C11.25 15.5713 11.2498 15.6518 11.2498 15.75V20.25C11.2498 20.6642 10.914 21 10.4998 21H5.99981C5.5856 21 5.24981 20.6642 5.24981 20.25V14.5C5.24981 14.0858 5.5856 13.75 5.99981 13.75Z" fill="#2D373D"/>
<path fill-rule="evenodd" clip-rule="evenodd" d="M7.94544 5.54266C7.99076 5.95439 7.69373 6.3249 7.28201 6.37022C7.17242 6.38228 7.04575 6.41727 6.9116 6.48126C6.77777 6.5451 6.64577 6.63344 6.52585 6.74218C6.40593 6.85092 6.30513 6.97367 6.22854 7.10063C6.15177 7.22791 6.10458 7.35056 6.08189 7.45844C5.99662 7.86378 5.5989 8.12325 5.19356 8.03798C4.78821 7.9527 4.52875 7.55498 4.61402 7.14964C4.67476 6.8609 4.78959 6.58203 4.94414 6.32583C5.09888 6.06931 5.2942 5.83415 5.51825 5.63098C5.74231 5.42782 5.99541 5.25638 6.2658 5.1274C6.53585 4.99858 6.8246 4.9115 7.11789 4.87922C7.52961 4.8339 7.90012 5.13093 7.94544 5.54266Z" fill="#2D373D"/>
<path fill-rule="evenodd" clip-rule="evenodd" d="M16.1544 5.54266C16.1091 5.95439 16.4061 6.3249 16.8178 6.37022C16.9274 6.38228 17.0541 6.41727 17.1882 6.48126C17.3221 6.5451 17.4541 6.63344 17.574 6.74218C17.6939 6.85092 17.7947 6.97367 17.8713 7.10063C17.9481 7.22791 17.9953 7.35056 18.018 7.45844C18.1032 7.86378 18.5009 8.12325 18.9063 8.03798C19.3116 7.9527 19.5711 7.55498 19.4858 7.14964C19.4251 6.8609 19.3103 6.58203 19.1557 6.32583C19.001 6.06931 18.8056 5.83415 18.5816 5.63098C18.3575 5.42782 18.1044 5.25638 17.834 5.1274C17.564 4.99858 17.2752 4.9115 16.982 4.87922C16.5702 4.8339 16.1997 5.13093 16.1544 5.54266Z" fill="#2D373D"/>
<path fill-rule="evenodd" clip-rule="evenodd" d="M7.26684 3.70513C7.29163 4.1186 6.97655 4.47389 6.56308 4.49868C5.99501 4.53274 5.3906 4.79427 4.90115 5.25142C4.41171 5.70858 4.1096 6.29376 4.03691 6.85819C3.98399 7.26901 3.60807 7.55915 3.19725 7.50624C2.78643 7.45332 2.49628 7.0774 2.5492 6.66658C2.67059 5.72403 3.15708 4.8279 3.87727 4.15522C4.59746 3.48254 5.52467 3.05825 6.47329 3.00137C6.88676 2.97657 7.24204 3.29166 7.26684 3.70513Z" fill="#2D373D"/>
<path fill-rule="evenodd" clip-rule="evenodd" d="M16.833 3.70513C16.8082 4.1186 17.1233 4.47389 17.5368 4.49868C18.1048 4.53274 18.7092 4.79427 19.1987 5.25142C19.6881 5.70858 19.9902 6.29376 20.0629 6.85819C20.1158 7.26901 20.4918 7.55915 20.9026 7.50624C21.3134 7.45332 21.6036 7.0774 21.5506 6.66658C21.4293 5.72403 20.9428 4.8279 20.2226 4.15522C19.5024 3.48254 18.5752 3.05825 17.6266 3.00137C17.2131 2.97657 16.8578 3.29166 16.833 3.70513Z" fill="#2D373D"/>
</svg>
