<svg width="24" height="25" viewBox="0 0 24 25" fill="none" xmlns="http://www.w3.org/2000/svg">
<path fill-rule="evenodd" clip-rule="evenodd" d="M21.8623 6.8743C21.7218 7.07308 21.4935 7.19125 21.25 7.19125H18.4861C18.4559 7.19125 18.3892 7.19279 18.3085 7.20519C18.2253 7.21797 18.1476 7.23924 18.0866 7.26817C18.0279 7.29596 18.0036 7.32144 17.9928 7.33691C17.9863 7.3463 17.9581 7.38769 17.9581 7.50639C17.9581 7.6244 17.9862 7.66547 17.9928 7.67489C18.0037 7.69054 18.0284 7.71633 18.0878 7.74438C18.1494 7.77351 18.2275 7.79484 18.3106 7.80763C18.3912 7.82003 18.4574 7.82154 18.4861 7.82154H21.25C21.4935 7.82154 21.7218 7.93971 21.8623 8.13849C22.0029 8.33726 22.0383 8.5919 21.9571 8.82145C21.3511 10.5362 19.6935 12.0909 17.6341 12.0909C16.5828 12.0909 15.6141 11.737 14.8408 11.1418L14.1606 11.8219L16.0578 13.7192C16.3227 13.9841 16.6331 14.4447 16.7268 15.0201C16.828 15.6419 16.6627 16.3351 16.0579 16.9399C15.7987 17.1991 15.784 17.406 15.8088 17.5581C15.8411 17.7567 15.9627 17.9441 16.0579 18.0393L19.2979 21.2793C19.5908 21.5722 19.5908 22.0471 19.2979 22.34C19.005 22.6329 18.5301 22.6329 18.2372 22.34L14.9972 19.0999C14.7324 18.8351 14.422 18.3745 14.3283 17.7991C14.2271 17.1772 14.3924 16.4841 14.9972 15.8792C15.2564 15.6201 15.2711 15.4132 15.2463 15.2611C15.214 15.0624 15.0923 14.875 14.9972 14.7798L11.7572 11.5399C11.7023 11.485 11.568 11.4073 11.4103 11.3923C11.2798 11.3798 11.1482 11.4095 11.0179 11.5399C10.6566 11.9011 10.7297 12.261 10.8014 12.404L12.3263 13.9289C13.4979 15.1005 13.4979 17 12.3263 18.1715L10.0889 20.409C10.0382 20.4597 9.98614 20.5082 9.9328 20.5545L10.658 21.2797C10.9509 21.5726 10.9509 22.0475 10.658 22.3404C10.3651 22.6333 9.89024 22.6333 9.59735 22.3404L8.49767 21.2407C7.56444 21.4074 6.56747 21.1301 5.84631 20.409L5.70995 20.2726L3.28033 22.7022C2.98744 22.9951 2.51256 22.9951 2.21967 22.7022C1.92678 22.4093 1.92678 21.9344 2.21967 21.6415L4.64929 19.2119L3.98827 18.5509C3.40248 17.9651 3.40248 17.0154 3.98827 16.4296L8.34697 12.0708C8.61242 11.8054 8.95259 11.6602 9.29977 11.6354C9.39219 11.2366 9.60088 10.8355 9.9572 10.4792C10.4372 9.99921 11.0256 9.84885 11.5525 9.89901C12.0522 9.94658 12.5128 10.1741 12.8179 10.4792L13.0999 10.7613L13.8163 10.0449C13.3322 9.3181 13.05 8.44519 13.05 7.50639C13.05 4.97451 15.1023 2.92188 17.6341 2.92188C19.6935 2.92188 21.3511 4.4766 21.9571 6.19134C22.0383 6.42089 22.0029 6.67553 21.8623 6.8743ZM19.9967 5.69125C19.4145 4.93605 18.549 4.42188 17.6341 4.42188C15.9309 4.42188 14.55 5.80278 14.55 7.50639C14.55 9.21001 15.9309 10.5909 17.6341 10.5909C18.549 10.5909 19.4145 10.0767 19.9967 9.32154H18.4861C18.3491 9.32154 17.8933 9.31161 17.4466 9.10046C17.2131 8.99004 16.9583 8.81345 16.7628 8.53353C16.5631 8.24737 16.4581 7.89965 16.4581 7.50639C16.4581 7.11383 16.5624 6.76644 16.7615 6.48025C16.9564 6.20014 17.2108 6.02325 17.4444 5.91257C17.891 5.70102 18.3475 5.69125 18.4861 5.69125L19.9967 5.69125ZM9.6426 13.3665C9.68479 13.4211 9.72975 13.4724 9.7772 13.5199C9.81136 13.554 9.84799 13.5842 9.88652 13.6104L11.2657 14.9896C11.8515 15.5753 11.8515 16.5251 11.2657 17.1109L9.02828 19.3483C8.4425 19.9341 7.49275 19.9341 6.90697 19.3483L5.04893 17.4902L9.40763 13.1315L9.6426 13.3665Z" fill="#2D373D"/>
</svg>
