<svg width="16" height="16" viewBox="0 0 16 16" fill="none" xmlns="http://www.w3.org/2000/svg">
<path d="M13.6 5.3375C13.55 5.2875 13.5 5.2875 13.45 5.2875L7.95 3.0375C7.85 2.9875 7.7 2.9875 7.6 3.0375L5.25 3.9875C5.2 3.9875 5.15 4.0375 5.1 4.0375L2.1 5.2375C2.05 5.2375 2 5.2875 1.95 5.2875C1.85 5.3875 1.75 5.5375 1.75 5.6875V12.3375C1.75 12.5375 1.85 12.7375 2.05 12.7875L7.6 14.9875C7.65 15.0375 7.75 15.0375 7.8 15.0375C7.9 15.0375 8 15.0375 8.05 14.9375L13.5 12.7875C13.7 12.7375 13.8 12.5375 13.8 12.3375V5.6875C13.8 5.6375 13.8 5.6375 13.8 5.5875C13.75 5.4875 13.7 5.3875 13.6 5.3375ZM7.8 4.0375L12 5.6875L10.9 6.1375L6.7 4.4875L7.8 4.0375ZM7.3 13.8375L2.75 12.0375V6.4875L5.35 7.4875L7.3 8.2875V13.8375V13.8375ZM7.8 7.3375L3.6 5.6875L5.3 5.0375L9.45 6.6875L7.8 7.3375ZM12.85 11.9875L8.3 13.7875V8.2875L9.15 7.9375L12.85 6.4875V11.9875Z" fill="#2D373D"/>
</svg>
