<svg width="32" height="33" viewBox="0 0 32 33" fill="none" xmlns="http://www.w3.org/2000/svg">
<path fill-rule="evenodd" clip-rule="evenodd" d="M15.1403 3.75498C15.693 3.54001 16.3063 3.54001 16.859 3.75498L28.6892 8.35599C29.074 8.50564 29.3274 8.87615 29.3274 9.28901V16.1377C29.3274 16.6906 28.8792 17.1388 28.3263 17.1388C27.7734 17.1388 27.3252 16.6906 27.3252 16.1377V10.7525L17.0007 14.7679V27.7805C17.0007 28.111 16.8376 28.4202 16.5649 28.6068C16.2921 28.7934 15.9448 28.8334 15.6368 28.7136L3.3101 23.9195C2.92532 23.7698 2.67188 23.3993 2.67188 22.9864V9.28901C2.67188 8.87615 2.92532 8.50564 3.3101 8.35599L15.1403 3.75498ZM15.9996 13.009L19.4011 11.6861L9.83631 7.96611L6.43484 9.28901L15.9996 13.009ZM4.67408 10.7525V22.3016L14.9985 26.3171V14.7679L4.67408 10.7525ZM12.5982 6.89196L22.163 10.6119L25.5644 9.28901L16.1332 5.62102C16.0473 5.5876 15.952 5.5876 15.866 5.62102L12.5982 6.89196Z" fill="#2D373D"/>
<path fill-rule="evenodd" clip-rule="evenodd" d="M24.1663 28.2549C25.9152 28.2549 27.333 26.8371 27.333 25.0883C27.333 24.6762 27.2085 23.966 26.9121 23.0429C26.6259 22.1517 26.2193 21.1846 25.7538 20.298C25.2819 19.3991 24.7891 18.6585 24.3557 18.1746C24.2862 18.0971 24.2229 18.0314 24.1663 17.9762C24.1097 18.0314 24.0464 18.0971 23.9769 18.1746C23.5435 18.6585 23.0507 19.3991 22.5788 20.298C22.1133 21.1846 21.7067 22.1517 21.4205 23.0429C21.1241 23.966 20.9996 24.6762 20.9996 25.0883C20.9996 26.8371 22.4174 28.2549 24.1663 28.2549ZM24.1663 30.2549C27.0198 30.2549 29.333 27.9417 29.333 25.0883C29.333 22.2349 26.233 15.7884 24.1663 15.7884C22.0996 15.7884 18.9996 22.2349 18.9996 25.0883C18.9996 27.9417 21.3128 30.2549 24.1663 30.2549Z" fill="#2D373D"/>
</svg>
