<svg width="32" height="33" viewBox="0 0 32 33" fill="none" xmlns="http://www.w3.org/2000/svg">
<path d="M28.3337 6.25391C27.7737 6.25391 27.3337 6.70724 27.3337 7.25391V12.7472C24.8403 12.5606 23.6137 11.4139 23.5603 11.3606C23.187 10.9872 22.587 10.9739 22.2003 11.3206C21.6537 11.8006 20.267 12.7739 19.427 12.7739C18.587 12.7739 17.2003 11.8006 16.667 11.3206C16.2803 10.9872 15.7203 10.9872 15.3337 11.3206C14.8003 11.8006 13.4137 12.7739 12.5737 12.7739C11.7337 12.7739 10.347 11.8006 9.80032 11.3206C9.41366 10.9739 8.81366 10.9872 8.44033 11.3472C8.38699 11.4139 7.16033 12.5606 4.66699 12.7472V7.25391C4.66699 6.70724 4.21366 6.25391 3.66699 6.25391C3.12033 6.25391 2.66699 6.70724 2.66699 7.25391V25.0672C2.66699 26.4806 4.01366 27.5872 5.74699 27.5872H26.2537C27.9737 27.5872 29.3337 26.4806 29.3337 25.0672V7.25391C29.3337 6.70724 28.8803 6.25391 28.3337 6.25391ZM27.3337 25.0672C27.3337 25.2539 26.907 25.5872 26.2537 25.5872H5.74699C5.08033 25.5872 4.66699 25.2539 4.66699 25.0672V20.7472C6.82699 20.6272 8.32033 19.8806 9.13366 19.3339C9.92032 19.9206 11.307 20.7739 12.5737 20.7739C13.8403 20.7739 15.2003 19.9339 16.0003 19.3472C16.8003 19.9339 18.1603 20.7739 19.427 20.7739C20.6937 20.7739 22.0803 19.9206 22.867 19.3339C23.6803 19.8806 25.1737 20.6272 27.3337 20.7472V25.0672ZM27.3337 18.7472C24.8403 18.5606 23.6137 17.4139 23.5603 17.3606C23.187 16.9872 22.587 16.9739 22.2003 17.3206C21.6537 17.8006 20.267 18.7739 19.427 18.7739C18.587 18.7739 17.2003 17.8006 16.667 17.3206C16.2803 16.9872 15.7203 16.9872 15.3337 17.3206C14.8003 17.8006 13.4137 18.7739 12.5737 18.7739C11.7337 18.7739 10.347 17.8006 9.80032 17.3206C9.41366 16.9739 8.81366 16.9872 8.44033 17.3472C8.38699 17.4139 7.16033 18.5606 4.66699 18.7472V14.7472C6.82699 14.6272 8.32033 13.8806 9.13366 13.3339C9.92032 13.9206 11.307 14.7739 12.5737 14.7739C13.8403 14.7739 15.2003 13.9339 16.0003 13.3472C16.8003 13.9339 18.1603 14.7739 19.427 14.7739C20.6937 14.7739 22.0803 13.9206 22.867 13.3339C23.6803 13.8806 25.1737 14.6272 27.3337 14.7472V18.7472Z" fill="#2D373D"/>
</svg>
