<svg width="16" height="17" viewBox="0 0 16 17" fill="none" xmlns="http://www.w3.org/2000/svg">
<path fill-rule="evenodd" clip-rule="evenodd" d="M5.25018 6.54505C5.25018 5.08158 6.43656 3.8952 7.90003 3.8952C9.3635 3.8952 10.5499 5.08158 10.5499 6.54505C10.5499 7.83339 9.63045 8.90698 8.41195 9.14548C9.04994 9.21869 9.6669 9.42813 10.2201 9.76194C10.9203 10.1844 11.4919 10.79 11.8731 11.5134C12.0019 11.7577 11.9082 12.0601 11.6639 12.1889C11.4196 12.3176 11.1172 12.224 10.9884 11.9797C10.6921 11.4173 10.2478 10.9465 9.70354 10.6182C9.15927 10.2898 8.53567 10.1162 7.90001 10.1162C7.26435 10.1162 6.64075 10.2898 6.09648 10.6182C5.55221 10.9465 5.10794 11.4173 4.81157 11.9797C4.68283 12.224 4.38042 12.3176 4.13613 12.1889C3.89183 12.0601 3.79816 11.7577 3.92691 11.5134C4.30816 10.79 4.8797 10.1844 5.57987 9.76194C6.13312 9.42813 6.75009 9.21868 7.38809 9.14548C6.1696 8.90698 5.25018 7.83338 5.25018 6.54505ZM7.90003 4.8952C6.98884 4.8952 6.25018 5.63386 6.25018 6.54505C6.25018 7.45623 6.98884 8.19489 7.90003 8.19489C8.81121 8.19489 9.54987 7.45623 9.54987 6.54505C9.54987 5.63386 8.81121 4.8952 7.90003 4.8952Z" fill="#2D373D"/>
<path fill-rule="evenodd" clip-rule="evenodd" d="M2.5 3.13796C2.5 2.43939 3.04049 1.82129 3.76923 1.82129H12.2308C12.9595 1.82129 13.5 2.43939 13.5 3.13796V13.7546C13.5 14.4532 12.9595 15.0713 12.2308 15.0713H3.76923C3.04049 15.0713 2.5 14.4532 2.5 13.7546V3.13796ZM3.76923 2.82129C3.64831 2.82129 3.5 2.93446 3.5 3.13796V13.7546C3.5 13.9581 3.64831 14.0713 3.76923 14.0713H12.2308C12.3517 14.0713 12.5 13.9581 12.5 13.7546V3.13796C12.5 2.93446 12.3517 2.82129 12.2308 2.82129H3.76923Z" fill="#2D373D"/>
</svg>
