<svg width="16" height="17" viewBox="0 0 16 17" fill="none" xmlns="http://www.w3.org/2000/svg">
<path d="M10.3901 5.72625C10.4649 5.69522 10.5451 5.67925 10.6262 5.67925C10.7072 5.67925 10.7875 5.69522 10.8623 5.72625C10.9372 5.75728 11.0052 5.80276 11.0625 5.86008C11.2582 6.05596 11.5756 6.0561 11.7715 5.8604C11.9673 5.6647 11.9675 5.34727 11.7718 5.15139C11.6214 5.00086 11.4428 4.88145 11.2462 4.79997C11.0497 4.7185 10.839 4.67656 10.6262 4.67656C10.4134 4.67656 10.2027 4.7185 10.0061 4.79997C9.80956 4.88145 9.63098 5.00086 9.48059 5.15139C9.28489 5.34727 9.28503 5.6647 9.4809 5.8604C9.67678 6.0561 9.99421 6.05596 10.1899 5.86008C10.2472 5.80276 10.3152 5.75728 10.3901 5.72625Z" fill="#2D373D"/>
<path fill-rule="evenodd" clip-rule="evenodd" d="M8.68772 3.83271C9.27158 3.24924 10.0633 2.9216 10.8888 2.92188C11.7142 2.92215 12.5057 3.25032 13.0892 3.83419C13.6726 4.41806 14.0003 5.20981 14 6.03525C13.9997 6.86067 13.6716 7.65218 13.0877 8.23566L7.28268 14.0378C6.6967 14.6088 5.90934 14.926 5.09116 14.9207C4.27299 14.9154 3.48982 14.588 2.91127 14.0095C2.33272 13.4309 2.00536 12.6477 2.00007 11.8295C1.99477 11.0114 2.31198 10.224 2.883 9.63804L2.88751 9.63341L5.52247 6.99823L5.52408 6.99661L5.52566 6.99503L8.68772 3.83271ZM3.59898 10.34L5.87861 8.06016L8.861 11.0426L6.58073 13.3217C6.18381 13.7074 5.65114 13.9216 5.09765 13.918C4.54315 13.9144 4.01238 13.6925 3.62028 13.3004C3.22818 12.9083 3.00631 12.3776 3.00273 11.8231C2.99915 11.2696 3.21333 10.7369 3.59898 10.34ZM12.3789 7.52647L9.57019 10.3338L6.58759 7.35112L9.39648 4.54196C9.79223 4.14654 10.329 3.92438 10.8884 3.92457C11.4479 3.92475 11.9844 4.1472 12.3799 4.54296C12.7754 4.93873 12.9975 5.4754 12.9973 6.03491C12.9971 6.59442 12.7747 7.13097 12.3789 7.52647Z" fill="#2D373D"/>
</svg>
