<svg width="64" height="65" viewBox="0 0 64 65" fill="none" xmlns="http://www.w3.org/2000/svg">
<path d="M43.9202 23.0845C42.8535 19.8311 39.8402 18.0178 36.5602 18.5511C36.0268 15.2178 33.3868 12.9778 30.0002 12.9778C26.6135 12.9778 23.9468 15.2445 23.4135 18.5245C20.1335 18.0178 17.1468 19.8311 16.0802 23.0845C15.0402 26.3111 16.4002 29.5378 19.3868 31.0311C17.8402 34.0178 18.6402 37.4045 21.4135 39.4311C24.1602 41.4311 27.6268 41.1378 30.0002 38.7911C31.3068 40.0978 32.9602 40.7645 34.6402 40.7645C36.0002 40.7645 37.3602 40.3111 38.5868 39.4311C41.3602 37.4311 42.1602 34.0178 40.6402 31.0578C43.6268 29.5378 44.9602 26.3111 43.9202 23.0845ZM38.6402 27.5645L37.6802 27.9911C36.9868 28.3111 36.4535 28.8978 36.2135 29.6178C35.9735 30.3378 36.0802 31.1111 36.4535 31.7778L36.9868 32.6845C38.1335 34.6578 36.5602 35.9378 36.2402 36.1778C35.9202 36.4178 34.2135 37.5111 32.6935 35.8045L32.0002 35.0311C31.4935 34.4445 30.7468 34.1245 30.0002 34.1245C29.2535 34.1245 28.5068 34.4445 28.0002 35.0311L27.3068 35.8045C25.7868 37.5111 24.0802 36.4178 23.7602 36.1778C23.4402 35.9378 21.8668 34.6578 23.0135 32.6845L23.5468 31.7778C23.9202 31.1111 24.0268 30.3378 23.7868 29.6178C23.5468 28.8978 23.0135 28.3111 22.3202 27.9911L21.3602 27.5645C19.2535 26.6578 19.7602 24.6845 19.8935 24.3111C20.0268 23.9378 20.7735 22.0445 22.9868 22.5245L24.0268 22.7378C24.7468 22.8978 25.5468 22.7378 26.1602 22.2845C26.7735 21.8578 27.1735 21.1645 27.2535 20.4178L27.3335 19.3778C27.5735 17.0845 29.6002 16.9778 30.0002 16.9778C30.4002 16.9778 32.4268 17.0845 32.6668 19.3778L32.7468 20.4178C32.8268 21.1645 33.2268 21.8578 33.8402 22.3111C34.4535 22.7378 35.2268 22.8978 35.9735 22.7378L37.0135 22.5245C39.2535 22.0445 39.9735 23.9378 40.1068 24.3111C40.2402 24.6845 40.7468 26.6578 38.6402 27.5645Z" fill="#2D373D"/>
<path d="M31.8935 28.9511C30.8535 29.9911 29.1735 29.9911 28.1335 28.9511C27.0935 27.9111 27.0935 26.2311 28.1335 25.1911C29.1735 24.1511 30.8535 24.1511 31.8935 25.1911C32.9335 26.2311 32.9335 27.9111 31.8935 28.9511Z" fill="#2D373D"/>
<path d="M55.9713 33.1111C56.0512 33.9645 55.9713 34.8978 55.5185 35.8045C55.0657 36.7378 54.3465 37.4845 53.361 38.0978C53.2544 38.1778 53.1212 38.2311 53.0147 38.2845C52.4553 38.4711 51.9759 38.6311 51.5497 38.7645V43.8045C51.5497 43.8045 51.5497 43.9911 51.5497 44.1245C51.5231 44.3911 51.4698 44.7645 51.3633 45.1911C51.1768 46.0178 50.7506 47.1645 49.8983 48.2311C49.0193 49.2978 47.7142 50.2311 45.9029 50.6311C44.731 50.8978 43.3992 50.9511 41.8543 50.7111V57.5911C41.8543 58.6845 40.9487 59.5911 39.8566 59.5911C38.7645 59.5911 37.8589 58.6845 37.8589 57.5911V48.2578C37.8589 47.6178 38.1519 47.0311 38.6314 46.6578C39.1374 46.2845 39.7767 46.1511 40.3893 46.3378C42.6001 46.9511 44.0917 46.9511 45.0239 46.7378C45.9562 46.5245 46.4623 46.1245 46.8085 45.6978C47.1548 45.2711 47.3679 44.7378 47.4744 44.2845C47.5277 44.0445 47.5544 43.8578 47.5544 43.7511C47.5544 43.6978 47.5544 43.6445 47.5544 43.6178V37.2711C47.5544 36.3645 48.167 35.5378 49.0726 35.3245H49.0992C49.0992 35.3245 49.1791 35.2978 49.2324 35.2978C49.3656 35.2445 49.552 35.2178 49.7651 35.1378C50.1913 35.0045 50.7773 34.8178 51.4165 34.5778C51.7628 34.3645 51.8694 34.1511 51.9226 34.0711C52.0025 33.9378 52.0292 33.7778 52.0025 33.5645C51.9493 33.0578 51.6829 32.4711 51.2834 31.8845C51.2567 31.8045 51.2035 31.7511 51.1502 31.6711C51.0969 31.6178 51.0703 31.5911 51.0436 31.5378C50.4577 30.5245 49.7119 29.4311 49.0726 28.5511C48.753 28.1245 48.4866 27.7511 48.2735 27.4845C48.1936 27.3778 48.1137 27.2711 48.0604 27.1911C48.0604 27.1911 48.0072 27.1378 48.0072 27.1111H47.9805C47.6875 26.7378 47.5544 26.3111 47.5544 25.8578C47.5544 19.5378 44.6244 15.7511 41.0019 13.4311C37.2463 11.0578 32.6649 10.2578 29.6817 10.2578C18.4947 10.2578 11.8624 19.0045 11.9955 28.8978C11.9955 33.8578 15.0587 39.6178 21.4779 43.1645C22.1171 43.5111 22.5167 44.2045 22.5167 44.9245V57.5911C22.5167 58.6845 21.6111 59.5911 20.519 59.5911C19.4269 59.5911 18.5213 58.6845 18.5213 57.5911V46.0711C11.6759 41.8578 8.00017 35.1911 8.00017 28.9511C7.86699 17.2178 15.8844 6.25781 29.6817 6.25781C33.2243 6.25781 38.5781 7.19115 43.1328 10.0711C47.6609 12.9511 51.31 17.6978 51.5231 25.1378C51.7095 25.4045 52.0025 25.7511 52.2955 26.2045C52.9348 27.0845 53.7605 28.2578 54.4264 29.4045C54.453 29.4311 54.4797 29.4845 54.5063 29.5378C54.5063 29.5645 54.5596 29.5911 54.5596 29.6178C55.0923 30.3911 55.8115 31.6711 55.9713 33.1111Z" fill="#2D373D"/>
</svg>
