<svg width="32" height="33" viewBox="0 0 32 33" fill="none" xmlns="http://www.w3.org/2000/svg">
<path d="M25.3223 8.40893C25.3223 8.96122 25.77 9.40893 26.3223 9.40893C26.8746 9.40893 27.3223 8.96121 27.3223 8.40893L27.3223 4.58594C27.3223 4.03365 26.8745 3.58594 26.3223 3.58594H22.4993C21.9471 3.58594 21.4993 4.03365 21.4993 4.58594C21.4993 5.13822 21.9471 5.58594 22.4993 5.58594L25.3223 5.58594L25.3223 8.40893Z" fill="#2D373D"/>
<path d="M16.1589 6.33294C16.0158 6.2265 15.8729 6.23479 15.7646 6.30732C13.4751 7.83997 7.07447 12.3593 4.34528 14.8786C3.93947 15.2532 3.30681 15.2279 2.9322 14.8221C2.55759 14.4163 2.58289 13.7837 2.98871 13.409C5.84641 10.7711 12.3686 6.17394 14.652 4.64535C15.5032 4.07551 16.5692 4.14548 17.3526 4.72828L28.9305 13.3415C29.3737 13.6712 29.4656 14.2976 29.136 14.7407C28.8063 15.1838 28.1799 15.2758 27.7368 14.9462L16.1589 6.33294Z" fill="#2D373D"/>
<path d="M25.3337 14.8126C25.8859 14.8126 26.3337 15.2603 26.3337 15.8126V27.7265C26.3337 29.1238 25.2009 30.2566 23.8036 30.2566L8.19706 30.2567C6.79974 30.2567 5.66699 29.124 5.66699 27.7266V15.8127C5.66699 15.2604 6.11471 14.8127 6.66699 14.8127C7.21928 14.8127 7.66699 15.2604 7.66699 15.8127V27.7266C7.66699 28.0194 7.90431 28.2567 8.19706 28.2567L23.8036 28.2566C24.0963 28.2566 24.3337 28.0192 24.3337 27.7265V15.8126C24.3337 15.2603 24.7814 14.8126 25.3337 14.8126Z" fill="#2D373D"/>
<path d="M14.3741 14.2122C14.7646 14.6028 14.7646 15.2359 14.3741 15.6265L14.3723 15.6282C14.1825 15.818 12.8836 17.1166 13.8947 19.1388C14.6709 20.6913 14.4483 22.1621 14.065 23.1906C13.8738 23.7035 13.6383 24.1213 13.4507 24.4118C13.3563 24.558 13.2723 24.6744 13.2095 24.7573C13.178 24.7988 13.1516 24.8321 13.1317 24.8567L13.1068 24.887L13.0982 24.8972L13.095 24.9011L13.0936 24.9027L13.0924 24.9041C12.7326 25.3231 12.1013 25.3712 11.6823 25.0114C11.2646 24.6528 11.2155 24.0243 11.5715 23.6053L11.5776 23.5979C11.5849 23.5889 11.598 23.5723 11.616 23.5487C11.652 23.5012 11.7066 23.4259 11.7707 23.3267C11.9001 23.1263 12.0618 22.8385 12.1909 22.492C12.4482 21.8018 12.5589 20.9393 12.1059 20.0332C10.4535 16.7284 12.6987 14.4734 12.9598 14.2122C13.3504 13.8217 13.9835 13.8217 14.3741 14.2122Z" fill="#2D373D"/>
<path d="M20.3741 15.6265C20.7646 15.2359 20.7646 14.6028 20.3741 14.2122C19.9835 13.8217 19.3504 13.8217 18.9598 14.2122C18.6987 14.4734 16.4535 16.7284 18.1059 20.0332C18.5589 20.9393 18.4482 21.8018 18.1909 22.492C18.0618 22.8385 17.9001 23.1263 17.7707 23.3267C17.7066 23.4259 17.652 23.5012 17.616 23.5487C17.598 23.5723 17.5849 23.5889 17.5776 23.5979L17.5715 23.6053C17.2155 24.0243 17.2646 24.6528 17.6823 25.0114C18.1013 25.3712 18.7326 25.3231 19.0924 24.9041L19.0936 24.9027L19.095 24.9011L19.0982 24.8972L19.1068 24.887L19.1317 24.8567C19.1516 24.8321 19.178 24.7988 19.2095 24.7573C19.2723 24.6744 19.3563 24.558 19.4507 24.4118C19.6383 24.1213 19.8738 23.7035 20.065 23.1906C20.4483 22.1621 20.6709 20.6913 19.8947 19.1388C18.8836 17.1166 20.1825 15.818 20.3723 15.6282L20.3741 15.6265Z" fill="#2D373D"/>
</svg>
