<svg width="64" height="65" viewBox="0 0 64 65" fill="none" xmlns="http://www.w3.org/2000/svg">
<path fill-rule="evenodd" clip-rule="evenodd" d="M45.5 36.2083C46.1517 36.5232 46.6517 36.7649 47 37.4616C47.2 37.6616 47.2 37.8616 47.2 38.0616C47.6 39.6616 47.4 41.2616 46.6 42.4616C45 45.6616 42 47.4616 38.4 47.4616H38C33.8 47.2616 29.8 45.6616 26.4 43.2616C22.8 40.8616 20 37.4616 18 33.4616C15.8 29.0616 16.6 23.6616 20 19.8616C21 18.8616 22.2 18.4616 23.4 18.4616C25 18.2616 26.6 19.0616 27.4 20.4616L27.6 20.6616L28.2 21.8616V22.0616C28.6 23.2616 29 24.2616 29.6 25.2616C30.2 26.2616 30.2 27.2616 29.6 28.2616C29.4 28.6616 29 29.2616 28.6 29.4616L28.4 29.6616C30.2 32.4616 32.8 34.4616 35.8 35.8616C35.9 35.6616 36.05 35.4616 36.2 35.2616C36.35 35.0616 36.5 34.8616 36.6 34.6616C37 33.8616 38 33.2616 39 33.2616H39.2C39.6 33.2616 40.2 33.4616 40.6 33.6616C40.8 33.6616 41.6 34.0616 44.6 35.6616L45.2 36.0616C45.3033 36.1132 45.4033 36.1616 45.5 36.2083ZM43.4 40.2616C43.4 40.2616 43.4 40.0616 43.6 40.0616C43.8 39.8616 43.8 39.6616 43.8 39.4616L43 39.0616C41.2 38.0616 40.2 37.6616 39.6 37.4616C39.4 37.7616 39.2 38.0116 39 38.2616C38.8 38.5116 38.6 38.7616 38.4 39.0616C38 39.6616 37.2 40.0616 36.2 40.0616C35.6 40.0616 35 39.8616 34.6 39.6616C30.4 37.8616 27 34.8616 24.6 31.0616C23.8 30.2616 24.2 28.4616 25.2 27.4616L25.8 26.8616L24.6 23.8616V23.6616C24.4 23.2616 24.2 22.8616 24.2 22.6616C24 22.6616 23.8 22.4616 23.8 22.4616H23.4C23.2 22.4616 23 22.4616 22.8 22.6616C20.6 25.0616 20 28.6616 21.6 31.4616C23.2 34.8616 25.6 37.6616 28.6 39.6616C31.4 41.8616 34.6 43.0616 38.2 43.2616C40.4 43.2616 42.4 42.2616 43.4 40.2616Z" fill="#2D373D"/>
<path fill-rule="evenodd" clip-rule="evenodd" d="M13.2001 13.6613C18.0001 8.66133 25.0001 5.86133 32.2001 5.86133C46.8001 5.86133 58.8001 17.6613 59.0001 32.2613C59.0001 42.2613 53.6001 51.4613 44.8001 56.0613C40.8001 58.0613 36.4001 59.2613 32.0001 59.2613C27.0001 59.2613 22.2001 57.8613 18.0001 55.4613L9.40015 58.2613C8.60015 58.4613 7.80015 58.2613 7.40015 57.6613C6.80015 57.0613 6.60015 56.2613 7.00015 55.6613L9.80015 47.4613C2.60015 36.8613 4.00015 22.4613 13.2001 13.6613ZM32.0001 55.2613C35.8001 55.2613 39.4001 54.2613 42.8001 52.6613C50.4001 48.6613 55.0001 41.0613 55.0001 32.4613C54.8001 19.8613 44.6001 9.86133 32.4001 9.86133H32.2001C26.0001 9.86133 20.2001 12.2613 16.0001 16.4613C8.00014 24.2613 7.00015 36.8613 13.6001 45.8613C14.0001 46.4613 14.0001 47.0613 13.8001 47.6613L12.0001 53.0613L17.8001 51.2613C18.0001 51.0613 18.2001 51.0613 18.4001 51.0613C18.8001 51.0613 19.2001 51.2613 19.4001 51.4613C23.2001 53.8613 27.4001 55.2613 32.0001 55.2613Z" fill="#2D373D"/>
</svg>
