<svg width="32" height="33" viewBox="0 0 32 33" fill="none" xmlns="http://www.w3.org/2000/svg">
<path d="M23.4008 14.5613L24.6008 12.4613C24.9008 11.9613 24.9008 11.3613 24.6008 10.8613C24.3008 10.3613 23.8008 10.0613 23.3008 10.0613H17.5008C17.0008 10.0613 16.5008 10.3613 16.2008 10.8613C15.9008 11.3613 15.9008 11.9613 16.2008 12.4613L17.4008 14.5613C15.8008 15.4613 12.8008 17.4613 12.8008 21.4613C12.8008 25.3613 16.1008 28.4613 20.3008 28.4613C24.6008 28.4613 28.0008 25.3613 28.0008 21.3613C28.0008 17.3613 25.0008 15.4613 23.4008 14.5613ZM20.2008 26.4613C17.1008 26.4613 14.7008 24.2613 14.7008 21.4613C14.7008 18.2613 17.4008 16.8613 18.7008 16.1613C19.0008 16.0613 19.2008 15.9613 19.3008 15.8613C19.7008 15.6613 19.9008 15.0613 19.6008 14.5613L18.3008 12.2613V12.1613H22.3008L21.0008 14.4613C20.8008 14.8613 20.9008 15.4613 21.3008 15.7613C21.5008 15.8613 21.8008 16.0613 22.1008 16.2613C23.5008 17.0613 25.9008 18.4613 25.9008 21.4613C25.9008 24.2613 23.4008 26.4613 20.2008 26.4613Z" fill="#2D373D"/>
<path d="M10.1004 19.8613H6.00039C5.90039 19.8613 5.90039 19.8613 5.90039 19.7613V10.0613H15.2004C15.8004 10.0613 16.2004 9.66133 16.2004 9.06133C16.2004 8.46133 15.8004 8.06133 15.2004 8.06133H5.90039V6.46133L6.00039 6.36133H22.2004C22.3004 6.36133 22.3004 6.36133 22.3004 6.46133V8.36133C22.3004 8.96133 22.7004 9.36133 23.3004 9.36133C23.9004 9.36133 24.3004 8.96133 24.3004 8.36133V6.46133C24.3004 5.26133 23.4004 4.36133 22.2004 4.36133H6.00039C5.50039 4.36133 4.90039 4.56133 4.50039 4.96133C4.10039 5.36133 3.90039 5.86133 3.90039 6.46133V19.7613C3.90039 20.9613 4.90039 21.8613 6.00039 21.8613H10.1004C10.7004 21.8613 11.1004 21.4613 11.1004 20.8613C11.1004 20.2613 10.7004 19.8613 10.1004 19.8613Z" fill="#2D373D"/>
<path d="M20.4 20.2614C19.8 20.2614 19.4 19.9614 19.4 19.7614C19.4 19.5614 19.8 19.2614 20.5 19.2614C20.9 19.2614 21.3 19.4614 21.5 19.7614C21.8 20.1614 22.5 20.2614 22.9 19.9614C23.3 19.6614 23.4 18.9614 23.1 18.5614C22.7 17.9614 22.1 17.5614 21.4 17.3614V17.1614C21.4 16.5614 21 16.1614 20.4 16.1614C19.8 16.1614 19.4 16.5614 19.4 17.1614V17.4614C18.3 17.8614 17.5 18.7614 17.5 19.7614C17.5 21.1614 18.8 22.2614 20.5 22.2614C21.1 22.2614 21.5 22.5614 21.5 22.7614C21.5 22.9614 21.1 23.2614 20.4 23.2614C20 23.2614 19.6 23.0614 19.4 22.7614C19.1 22.3614 18.4 22.2614 18 22.5614C17.6 22.8614 17.5 23.5614 17.8 23.9614C18.2 24.4614 18.8 24.8614 19.4 25.0614V25.2614C19.4 25.8614 19.8 26.2614 20.4 26.2614C20.9 26.2614 21.4 25.8614 21.4 25.2614V25.1614C22.6 24.8614 23.4 23.9614 23.4 22.7614C23.4 21.3614 22.1 20.2614 20.4 20.2614Z" fill="#2D373D"/>
</svg>
