<svg width="32" height="33" viewBox="0 0 32 33" fill="none" xmlns="http://www.w3.org/2000/svg">
<path d="M16.0002 2.16016C8.1002 2.16016 1.7002 8.56016 1.7002 16.4602C1.7002 24.3602 8.1002 30.7602 16.0002 30.7602C23.9002 30.7602 30.3002 24.3602 30.3002 16.4602C30.3002 8.56016 23.9002 2.16016 16.0002 2.16016ZM16.0002 28.7602C9.2002 28.7602 3.7002 23.2602 3.7002 16.4602C3.7002 9.66016 9.2002 4.16016 16.0002 4.16016C22.8002 4.16016 28.3002 9.66016 28.3002 16.4602C28.3002 23.2602 22.8002 28.7602 16.0002 28.7602Z" fill="#2D373D"/>
<path d="M19.8 12.6601C19.4 12.2601 18.8 12.2601 18.4 12.6601L12.3 18.7601C11.9 19.1601 11.9 19.7601 12.3 20.1601C12.5 20.3601 12.7 20.4601 13 20.4601C13.3 20.4601 13.5 20.3601 13.7 20.1601L19.8 14.0601C20.2 13.6601 20.2 13.0601 19.8 12.6601Z" fill="#2D373D"/>
<path d="M12.0002 13.5602C12.7182 13.5602 13.3002 12.9782 13.3002 12.2602C13.3002 11.5422 12.7182 10.9602 12.0002 10.9602C11.2822 10.9602 10.7002 11.5422 10.7002 12.2602C10.7002 12.9782 11.2822 13.5602 12.0002 13.5602Z" fill="#2D373D"/>
<path d="M20.2004 19.1602C19.5004 19.1602 18.9004 19.7602 18.9004 20.4602C18.9004 21.1602 19.5004 21.7602 20.2004 21.7602C20.9004 21.7602 21.5004 21.2602 21.5004 20.4602C21.5004 19.7602 20.9004 19.1602 20.2004 19.1602Z" fill="#2D373D"/>
</svg>
