<svg width="16" height="17" viewBox="0 0 16 17" fill="none" xmlns="http://www.w3.org/2000/svg">
<path d="M14.5498 8.27344L11.9998 3.72344C11.7998 3.27344 11.3498 3.02344 10.8498 3.02344H5.1998C4.6998 3.02344 4.24981 3.27344 4.04981 3.72344L1.4498 8.27344C1.2498 8.67344 1.2498 9.12344 1.4498 9.52344L4.04981 14.0734C4.24981 14.5234 4.6998 14.7734 5.1998 14.7734H10.8498C11.2998 14.7734 11.7498 14.5234 11.9498 14.0734L14.5498 9.52344C14.7498 9.12344 14.7498 8.67344 14.5498 8.27344ZM13.6998 9.07344L11.0998 13.6234C11.0498 13.7234 10.8998 13.7734 10.7998 13.7734H5.14981C4.9998 13.7734 4.8998 13.6734 4.8498 13.5734L2.2998 9.02344C2.2498 8.92344 2.2498 8.82344 2.2998 8.72344L4.89981 4.17344C4.9498 4.07344 5.0998 4.02344 5.1998 4.02344H10.8498C10.9498 4.02344 11.0498 4.07344 11.1498 4.22344L13.6998 8.77344C13.7498 8.87344 13.7498 8.97344 13.6998 9.07344Z" fill="#2D373D"/>
<path d="M7.99966 5.57336C6.14966 5.57336 4.64966 7.07336 4.64966 8.92336C4.64966 10.7734 6.14966 12.2734 7.99966 12.2734C9.84966 12.2734 11.3497 10.7734 11.3497 8.92336C11.3497 7.07336 9.84966 5.57336 7.99966 5.57336ZM7.99966 11.2734C6.69966 11.2734 5.64966 10.2234 5.64966 8.92336C5.64966 7.62336 6.69966 6.57336 7.99966 6.57336C9.29966 6.57336 10.3497 7.62336 10.3497 8.92336C10.3497 10.2234 9.29966 11.2734 7.99966 11.2734Z" fill="#2D373D"/>
</svg>
