<svg width="16" height="17" viewBox="0 0 16 17" fill="none" xmlns="http://www.w3.org/2000/svg">
<path fill-rule="evenodd" clip-rule="evenodd" d="M1.83301 2.25586C2.10915 2.25586 2.33301 2.47972 2.33301 2.75586V5.75586H4.54439C4.80687 5.43402 5.13138 5.16475 5.49967 4.9663V3.25586H4.66634C4.3902 3.25586 4.16634 3.032 4.16634 2.75586C4.16634 2.47972 4.3902 2.25586 4.66634 2.25586H9.33301C9.60915 2.25586 9.83301 2.47972 9.83301 2.75586C9.83301 3.032 9.60915 3.25586 9.33301 3.25586H8.49967V4.9663C8.86797 5.16475 9.19247 5.43402 9.45496 5.75586H11.4997C13.2486 5.75586 14.6663 7.17362 14.6663 8.92253V10.4225C14.6663 10.6987 14.4425 10.9225 14.1663 10.9225H11.4997C11.2235 10.9225 10.9997 10.6987 10.9997 10.4225V9.42253H9.69277C9.13437 10.3229 8.13705 10.9225 6.99967 10.9225C5.8623 10.9225 4.86497 10.3229 4.30658 9.42253H2.33301V12.4225C2.33301 12.6987 2.10915 12.9225 1.83301 12.9225C1.55687 12.9225 1.33301 12.6987 1.33301 12.4225V2.75586C1.33301 2.47972 1.55687 2.25586 1.83301 2.25586ZM2.33301 6.75586H3.99414C3.88961 7.07019 3.83301 7.40642 3.83301 7.75586C3.83301 7.98455 3.85725 8.20759 3.90331 8.42253H2.33301V6.75586ZM6.99967 4.58919C6.82954 4.58919 6.66254 4.60261 6.49967 4.62844V3.25586H7.49967V4.62844C7.33681 4.60261 7.16981 4.58919 6.99967 4.58919ZM10.1663 7.75586C10.1663 7.40642 10.1097 7.07019 10.0052 6.75586H11.4997C12.6963 6.75586 13.6663 7.72591 13.6663 8.92253V9.92253H11.9997V9.25586C11.9997 8.79562 11.6266 8.42253 11.1663 8.42253H10.096C10.1421 8.20759 10.1663 7.98455 10.1663 7.75586ZM6.99967 9.92253C8.19629 9.92253 9.16634 8.95248 9.16634 7.75586C9.16634 6.55924 8.19629 5.58919 6.99967 5.58919C5.80306 5.58919 4.83301 6.55924 4.83301 7.75586C4.83301 8.95248 5.80306 9.92253 6.99967 9.92253Z" fill="#2D373D"/>
<path fill-rule="evenodd" clip-rule="evenodd" d="M14.6664 13.8036C14.6664 14.7898 13.8668 15.5893 12.8806 15.5893C11.8943 15.5893 11.0948 14.7898 11.0948 13.8036C11.0948 12.8174 12.333 11.2559 12.8806 11.2559C13.4282 11.2559 14.6664 12.8174 14.6664 13.8036ZM13.6664 13.8036C13.6664 14.2375 13.3146 14.5893 12.8806 14.5893C12.4466 14.5893 12.0948 14.2375 12.0948 13.8036C12.0948 13.7479 12.1176 13.6085 12.2131 13.39C12.3036 13.1831 12.4356 12.9593 12.5878 12.7526C12.6889 12.6151 12.7898 12.4976 12.8806 12.4051C12.9714 12.4976 13.0723 12.6151 13.1734 12.7526C13.3255 12.9593 13.4576 13.1831 13.5481 13.39C13.6436 13.6085 13.6664 13.7479 13.6664 13.8036Z" fill="#2D373D"/>
</svg>
