<svg width="24" height="25" viewBox="0 0 24 25" fill="none" xmlns="http://www.w3.org/2000/svg">
<path d="M20.2498 19.9616H19.8748V13.5116C19.8748 12.8366 19.3498 12.2366 18.5998 12.2366H16.4248C15.7498 12.2366 15.1498 12.7616 15.1498 13.5116V19.9616H14.3248V11.3366C14.3248 10.6616 13.7998 10.0616 13.0498 10.0616H10.8748C10.1998 10.0616 9.5998 10.5866 9.5998 11.3366V19.9616H8.84981V16.8866C8.84981 16.2116 8.32481 15.6116 7.57481 15.6116H5.3248C4.6498 15.6116 4.0498 16.1366 4.0498 16.8866V19.9616H3.6748C3.2248 19.9616 2.9248 20.2616 2.9248 20.7116C2.9248 21.1616 3.2248 21.4616 3.6748 21.4616H20.2498C20.6998 21.4616 20.9998 21.1616 20.9998 20.7116C20.9998 20.2616 20.6998 19.9616 20.2498 19.9616ZM7.34981 19.9616H5.5498V17.0366H7.34981V19.9616ZM12.8998 19.9616H11.0998V11.5616H12.8998V19.9616ZM18.3748 19.9616H16.5748V13.7366H18.3748V19.9616Z" fill="#2D373D"/>
<path d="M20.2498 3.38672H16.9498C16.4998 3.38672 16.1998 3.68672 16.1998 4.13672C16.1998 4.58672 16.4998 4.88672 16.9498 4.88672H18.4498L15.9748 7.36172C15.7498 7.58672 15.4498 7.66172 15.0748 7.58672L10.8748 6.46172C10.0498 6.23672 9.14981 6.46172 8.54981 7.06172L4.2748 11.3367C3.9748 11.6367 3.9748 12.0867 4.2748 12.3867C4.4248 12.5367 4.5748 12.6117 4.7998 12.6117C4.9498 12.6117 5.1748 12.5367 5.3248 12.3867L9.59981 8.11172C9.82481 7.88672 10.1998 7.81172 10.4998 7.88672L14.6248 9.01172C15.4498 9.23672 16.4248 9.01172 17.0248 8.41172L19.4998 5.93672V7.43672C19.4998 7.88672 19.7998 8.18672 20.2498 8.18672C20.6998 8.18672 20.9998 7.88672 20.9998 7.43672V4.13672C20.9998 3.68672 20.6998 3.38672 20.2498 3.38672Z" fill="#2D373D"/>
</svg>
