<svg width="64" height="65" viewBox="0 0 64 65" fill="none" xmlns="http://www.w3.org/2000/svg">
<path fill-rule="evenodd" clip-rule="evenodd" d="M10.6665 25.1287C11.7711 25.1287 12.6665 26.0242 12.6665 27.1287V35.1287C12.6665 42.8607 18.9345 49.1287 26.6665 49.1287H34.6665C42.3985 49.1287 48.6665 42.8607 48.6665 35.1287V27.1287C48.6665 26.0242 49.5619 25.1287 50.6665 25.1287C51.7711 25.1287 52.6665 26.0242 52.6665 27.1287V35.1287C52.6665 45.0699 44.6076 53.1287 34.6665 53.1287H26.6665C16.7254 53.1287 8.6665 45.0699 8.6665 35.1287V27.1287C8.6665 26.0242 9.56193 25.1287 10.6665 25.1287Z" fill="#2D373D"/>
<path fill-rule="evenodd" clip-rule="evenodd" d="M31.9998 49.1287C33.1044 49.1287 33.9998 50.0242 33.9998 51.1287V57.7954C33.9998 58.9 33.1044 59.7954 31.9998 59.7954C30.8953 59.7954 29.9998 58.9 29.9998 57.7954V51.1287C29.9998 50.0242 30.8953 49.1287 31.9998 49.1287Z" fill="#2D373D"/>
<path fill-rule="evenodd" clip-rule="evenodd" d="M31.1642 5.79545L31.1729 5.79541L31.4426 5.79543C33.5326 5.79859 35.5955 6.26967 37.4797 7.17409C39.3639 8.07852 41.0217 9.39335 42.3315 11.0221C43.0237 11.8829 42.887 13.1418 42.0262 13.834C41.1655 14.5262 39.9065 14.3895 39.2143 13.5288C38.2788 12.3654 37.0946 11.4262 35.7488 10.7802C34.4033 10.1344 32.9304 9.79789 31.438 9.79543H31.1775C28.4998 9.80824 25.9354 10.8776 24.0419 12.7711C22.1484 14.6646 21.0791 17.229 21.0662 19.9067V31.3098C21.071 32.1049 21.1683 32.8967 21.3562 33.6694C21.6173 34.7426 20.9589 35.8243 19.8857 36.0854C18.8124 36.3465 17.7307 35.6881 17.4696 34.6148C17.2076 33.5381 17.0723 32.4344 17.0663 31.3263L17.0662 31.3154V19.8933C17.0826 16.1594 18.5732 12.583 21.2135 9.94268C23.8538 7.30235 27.4302 5.81179 31.1642 5.79545Z" fill="#2D373D"/>
<path fill-rule="evenodd" clip-rule="evenodd" d="M41.5198 31.3109V21.3421H45.5198V31.3155L45.5198 31.3242C45.5035 35.0528 44.0172 38.6245 41.3836 41.264C38.7499 43.9034 35.1815 45.3976 31.4529 45.4221L31.4398 45.4222L31.1796 45.4221C28.1673 45.4409 25.2284 44.4932 22.7946 42.718C22.4059 42.4338 22.0363 42.1204 21.6925 41.7832L24.4937 38.9277C24.6997 39.1299 24.9201 39.3169 25.153 39.4873C26.8965 40.7585 29.0019 41.4367 31.1596 41.4222L31.1731 41.4221L31.4329 41.4221C34.106 41.4029 36.6638 40.331 38.552 38.4387C40.4407 36.5458 41.507 33.9847 41.5198 31.3109Z" fill="#2D373D"/>
<path fill-rule="evenodd" clip-rule="evenodd" d="M53.4141 11.0479C54.1951 11.8289 54.1951 13.0952 53.4141 13.8763L12.0807 55.2096C11.2997 55.9907 10.0333 55.9907 9.25229 55.2096C8.47124 54.4286 8.47124 53.1622 9.25229 52.3812L50.5856 11.0479C51.3667 10.2668 52.633 10.2668 53.4141 11.0479Z" fill="#2D373D"/>
</svg>
