<svg width="32" height="33" viewBox="0 0 32 33" fill="none" xmlns="http://www.w3.org/2000/svg">
<path d="M27.4846 14.2136L25.6765 12.4236L27.3028 10.8136C27.6967 10.4236 27.6967 9.79359 27.3028 9.40359L22.626 4.77359C22.2321 4.38359 21.5957 4.38359 21.2018 4.77359L19.5755 6.38359L17.3937 4.22359C17.2018 4.03359 16.9493 3.93359 16.6765 3.93359H10.5452C7.79775 3.93359 5.56543 6.14359 5.56543 8.86359V27.0636C5.56543 28.6436 6.85836 29.9236 8.45432 29.9236H24.8887C26.4846 29.9236 27.7775 28.6436 27.7775 27.0636V14.9236C27.7775 14.6536 27.6664 14.4036 27.4846 14.2136ZM21.9089 6.89359L25.1513 10.1036L24.2422 11.0036L20.9998 7.79359L21.9089 6.89359ZM25.7573 27.0636C25.7573 27.5436 25.3634 27.9236 24.8887 27.9236H8.44422C7.95937 27.9236 7.57553 27.5336 7.57553 27.0636V8.85359C7.57553 7.23359 8.90886 5.92359 10.5351 5.92359H16.2422L25.7472 15.3336V27.0536L25.7573 27.0636Z" fill="#2D373D"/>
<path d="M17.2018 13.4836C17.0301 13.1436 16.6866 12.9236 16.3028 12.9236C15.9089 12.8936 15.5654 13.1336 15.3937 13.4636L12.2624 19.5136C11.2018 21.5536 11.9291 24.0836 13.9695 25.2936C14.6765 25.7136 15.4644 25.9236 16.2422 25.9236C17.02 25.9236 17.8786 25.6936 18.6058 25.2436C20.5149 24.0536 21.2119 21.6336 20.222 19.6236L17.2018 13.4836ZM17.5351 23.5536C16.7674 24.0336 15.7977 24.0436 14.9695 23.5536C13.8887 22.9136 13.4947 21.5436 14.0705 20.4236L16.2826 16.1536L18.424 20.4936C18.9594 21.5836 18.5856 22.8936 17.5452 23.5436L17.5351 23.5536Z" fill="#2D373D"/>
<path d="M16.6664 9.92358C16.6664 9.37358 16.2119 8.92358 15.6563 8.92358H10.6058C10.0503 8.92358 9.59572 9.37358 9.59572 9.92358C9.59572 10.4736 10.0503 10.9235 10.6058 10.9235H15.6563C16.2119 10.9235 16.6664 10.4736 16.6664 9.92358Z" fill="#2D373D"/>
</svg>
