<svg width="32" height="33" viewBox="0 0 32 33" fill="none" xmlns="http://www.w3.org/2000/svg">
<path fill-rule="evenodd" clip-rule="evenodd" d="M6.96685 16.2883C7.51913 16.2883 7.96685 16.736 7.96685 17.2883V27.1483C7.96685 27.3189 8.03462 27.4826 8.15527 27.6032C8.27592 27.7239 8.43956 27.7917 8.61018 27.7917H23.4002C23.5708 27.7917 23.7344 27.7239 23.8551 27.6032C23.9757 27.4826 24.0435 27.3189 24.0435 27.1483V17.2883C24.0435 16.736 24.4912 16.2883 25.0435 16.2883C25.5958 16.2883 26.0435 16.736 26.0435 17.2883V27.1483C26.0435 27.8494 25.765 28.5217 25.2693 29.0174C24.7736 29.5132 24.1012 29.7917 23.4002 29.7917H8.61018C7.90912 29.7917 7.23678 29.5132 6.74106 29.0174C6.24534 28.5217 5.96685 27.8494 5.96685 27.1483V17.2883C5.96685 16.736 6.41456 16.2883 6.96685 16.2883Z" fill="#2D373D"/>
<path fill-rule="evenodd" clip-rule="evenodd" d="M15.3229 3.41055C15.7071 3.05195 16.3033 3.05195 16.6875 3.41055L29.0125 14.9139C29.4162 15.2907 29.4381 15.9235 29.0612 16.3273C28.6844 16.731 28.0516 16.7528 27.6479 16.376L16.0052 5.50949L4.3625 16.376C3.95875 16.7528 3.32596 16.731 2.94912 16.3273C2.57229 15.9235 2.59411 15.2907 2.99786 14.9139L15.3229 3.41055Z" fill="#2D373D"/>
<path fill-rule="evenodd" clip-rule="evenodd" d="M13.8954 13.5352C14.237 13.1936 14.7004 13.0016 15.1835 13.0016H16.8269C17.31 13.0016 17.7733 13.1936 18.115 13.5352C18.4566 13.8768 18.6485 14.3402 18.6485 14.8233V16.2883H20.1135C20.5967 16.2883 21.06 16.4802 21.4016 16.8218C21.7433 17.1635 21.9352 17.6268 21.9352 18.11V19.7533C21.9352 20.2364 21.7433 20.6998 21.4016 21.0414C21.06 21.383 20.5967 21.575 20.1135 21.575H18.6485V23.04C18.6485 23.5231 18.4566 23.9864 18.115 24.3281C17.7733 24.6697 17.31 24.8616 16.8269 24.8616H15.1835C14.7004 24.8616 14.237 24.6697 13.8954 24.3281C13.5538 23.9864 13.3619 23.5231 13.3619 23.04V21.575H11.8969C11.4137 21.575 10.9504 21.383 10.6087 21.0414C10.2671 20.6998 10.0752 20.2364 10.0752 19.7533V18.11C10.0752 17.6268 10.2671 17.1635 10.6087 16.8218C10.9504 16.4802 11.4137 16.2883 11.8969 16.2883H13.3619V14.8233C13.3619 14.3402 13.5538 13.8768 13.8954 13.5352ZM15.3619 15.0016V17.2883C15.3619 17.8406 14.9141 18.2883 14.3619 18.2883H12.0752V19.575H14.3619C14.9141 19.575 15.3619 20.0227 15.3619 20.575V22.8616H16.6485V20.575C16.6485 20.0227 17.0962 19.575 17.6485 19.575H19.9352V18.2883H17.6485C17.0962 18.2883 16.6485 17.8406 16.6485 17.2883V15.0016H15.3619Z" fill="#2D373D"/>
</svg>
