<svg width="32" height="32" viewBox="0 0 32 32" fill="none" xmlns="http://www.w3.org/2000/svg">
<path d="M27.2 10.675C27.1 10.575 27 10.575 26.9 10.575L15.9 6.075C15.7 5.975 15.4 5.975 15.2 6.075L10.5 7.975C10.4 7.975 10.3 8.075 10.2 8.075L4.2 10.475C4.1 10.475 4 10.575 3.9 10.575C3.7 10.775 3.5 11.075 3.5 11.375V24.675C3.5 25.075 3.7 25.475 4.1 25.575L15.2 29.975C15.3 30.075 15.5 30.075 15.6 30.075C15.8 30.075 16 30.075 16.1 29.875L27 25.575C27.4 25.475 27.6 25.075 27.6 24.675V11.375C27.6 11.275 27.6 11.275 27.6 11.175C27.5 10.975 27.4 10.775 27.2 10.675ZM15.6 8.075L24 11.375L21.8 12.275L13.4 8.975L15.6 8.075ZM14.6 27.675L5.5 24.075V12.975L10.7 14.975L14.6 16.575V27.675V27.675ZM15.6 14.675L7.2 11.375L10.6 10.075L18.9 13.375L15.6 14.675ZM25.7 23.975L16.6 27.575V16.575L18.3 15.875L25.7 12.975V23.975Z" fill="#2D373D"/>
</svg>
