<svg width="32" height="33" viewBox="0 0 32 33" fill="none" xmlns="http://www.w3.org/2000/svg">
<path d="M12.6317 29.3384C15.5266 30.0919 18.5908 29.8491 21.3308 28.649C22.3225 28.2146 23.2509 27.664 24.0987 27.0131C24.5368 26.6767 24.6192 26.049 24.2829 25.6109C23.9465 25.1729 23.3188 25.0904 22.8807 25.4267C22.1602 25.9799 21.3713 26.4478 20.5285 26.817C18.1998 27.8369 15.5957 28.0433 13.1355 27.4029C10.6753 26.7625 8.50228 25.3127 6.96642 23.2869C5.43057 21.2611 4.6213 18.7773 4.66898 16.2356C4.71667 13.6939 5.61851 11.2422 7.22926 9.27545C8.84002 7.3087 11.0659 5.94138 13.5484 5.39373C16.0309 4.84609 18.6254 5.14999 20.9141 6.25651C21.6135 6.59463 22.2719 7.00165 22.8807 7.46912C23.3188 7.80546 23.9465 7.723 24.2829 7.28495C24.6192 6.84689 24.5368 6.21912 24.0987 5.88278C23.3823 5.33269 22.6076 4.85374 21.7847 4.4559C19.0916 3.15389 16.0386 2.79629 13.1175 3.44069C10.1964 4.08509 7.5773 5.69399 5.68196 8.00823C3.78663 10.3225 2.72544 13.2073 2.66934 16.1981C2.61323 19.1889 3.56547 22.1115 5.37268 24.4952C7.17989 26.8789 9.73685 28.5849 12.6317 29.3384Z" fill="#2D373D"/>
<path d="M23.2393 11.3403C23.6298 10.9498 24.263 10.9498 24.6535 11.3403L29.0351 15.7219C29.2272 15.9041 29.347 16.1618 29.347 16.4475C29.347 16.7343 29.2262 16.993 29.0326 17.1754L24.6535 21.5545C24.263 21.945 23.6298 21.945 23.2393 21.5545C22.8488 21.164 22.8488 20.5308 23.2393 20.1403L25.9321 17.4475H9.86698C9.3147 17.4475 8.86698 16.9997 8.86698 16.4475C8.86698 15.8952 9.3147 15.4475 9.86698 15.4475H25.9323L23.2393 12.7545C22.8488 12.364 22.8488 11.7308 23.2393 11.3403Z" fill="#2D373D"/>
</svg>
