<svg width="16" height="17" viewBox="0 0 16 17" fill="none" xmlns="http://www.w3.org/2000/svg">
<path d="M7.99993 11.2117C7.59993 11.2117 7.29993 11.5117 7.29993 11.9117C7.29993 12.3117 7.59993 12.6117 7.99993 12.6117C8.34993 12.6117 8.69993 12.3117 8.69993 11.9117C8.69993 11.5117 8.39993 11.2117 7.99993 11.2117Z" fill="#2D373D"/>
<path d="M7.99988 10.8118C8.24988 10.8118 8.49988 10.5618 8.49988 10.3118V6.61176C8.49988 6.31176 8.29988 6.11176 7.99988 6.11176C7.69988 6.11176 7.49988 6.31176 7.49988 6.61176V10.3118C7.49988 10.6118 7.69988 10.8118 7.99988 10.8118Z" fill="#2D373D"/>
<path d="M13.8999 12.6617L9.24987 3.16174C9.09987 2.81174 8.79987 2.56174 8.44987 2.46174C8.09987 2.36174 7.69987 2.41174 7.34987 2.51174C7.04987 2.66174 6.84987 2.91174 6.69987 3.16174L2.04987 12.6617C1.89987 12.9617 1.89987 13.3117 1.99987 13.6117C2.09987 13.9117 2.34987 14.1617 2.64987 14.3117C2.79987 14.4117 2.99987 14.4617 3.19987 14.4617H12.7999C13.4999 14.4617 14.0499 13.9117 14.0499 13.2117C14.0499 13.0117 13.9999 12.8117 13.8999 12.6617ZM12.7499 13.5117H3.19987C3.14987 13.5117 3.14987 13.4617 3.09987 13.4617C2.99987 13.4117 2.94987 13.3617 2.94987 13.3117C2.94987 13.2617 2.89987 13.2117 2.94987 13.1117L7.64987 3.66174C7.69987 3.56174 7.74987 3.51174 7.84987 3.46174C7.89987 3.41174 7.94987 3.41174 7.99987 3.41174C7.99987 3.41174 8.04987 3.41174 8.09987 3.46174C8.19987 3.51174 8.24987 3.56174 8.29987 3.66174L12.9499 13.1617C12.9999 13.2117 12.9999 13.2117 12.9999 13.2617C12.9999 13.4117 12.8999 13.5117 12.7499 13.5117Z" fill="#2D373D"/>
</svg>
