<svg width="64" height="65" viewBox="0 0 64 65" fill="none" xmlns="http://www.w3.org/2000/svg">
<path d="M45.9375 15.8253C43.559 13.0462 42.2994 9.48178 42.4035 5.82533L33.4935 5.61133V42.2333C33.6175 53.5373 15.7575 53.2633 17.1715 40.7673C17.3945 39.5888 17.8698 38.4724 18.5646 37.4946C19.2594 36.5169 20.1575 35.701 21.1971 35.1028C22.2368 34.5046 23.3935 34.1383 24.588 34.0289C25.7825 33.9196 26.9865 34.0698 28.1175 34.4693V25.3793C25.6609 24.9747 23.1457 25.1076 20.7455 25.7691C18.3452 26.4305 16.117 27.6047 14.2144 29.2107C12.3119 30.8166 10.7803 32.8161 9.72528 35.0713C8.67028 37.3265 8.11697 39.7836 8.10352 42.2733C9.00552 64.9853 41.5815 64.9873 42.4855 42.2733C42.2575 41.4613 42.3855 26.3253 42.3535 25.0493C46.4083 27.5713 51.1212 28.8313 55.8935 28.6693V19.2793C54.086 19.4156 52.2697 19.1793 50.5572 18.5852C48.8447 17.9911 47.2723 17.0517 45.9375 15.8253Z" fill="#2D373D"/>
</svg>
