<svg width="32" height="33" viewBox="0 0 32 33" fill="none" xmlns="http://www.w3.org/2000/svg">
<path fill-rule="evenodd" clip-rule="evenodd" d="M16.0003 13.5859C16.5806 13.5859 17.1322 13.838 17.5121 14.2766L18.6668 15.61C19.1794 16.2018 19.2994 17.0382 18.9741 17.7503C18.6488 18.4625 17.9379 18.9193 17.155 18.9193H14.8456C14.0627 18.9193 13.3517 18.4625 13.0264 17.7503C12.7011 17.0382 12.8212 16.2018 13.3337 15.61L14.4884 14.2766C14.8683 13.838 15.42 13.5859 16.0003 13.5859ZM16.0003 15.5859L14.8456 16.9193H17.155L16.0003 15.5859Z" fill="#2D373D"/>
<path d="M15.0575 12.5287C15.5782 13.0494 16.4224 13.0494 16.9431 12.5287C17.4638 12.008 17.4638 11.1638 16.9431 10.6431C16.4224 10.1224 15.5782 10.1224 15.0575 10.6431C14.5368 11.1638 14.5368 12.008 15.0575 12.5287Z" fill="#2D373D"/>
<path d="M13.9431 13.8621C13.4224 14.3828 12.5782 14.3828 12.0575 13.8621C11.5368 13.3414 11.5368 12.4972 12.0575 11.9765C12.5782 11.4558 13.4224 11.4558 13.9431 11.9765C14.4638 12.4972 14.4638 13.3414 13.9431 13.8621Z" fill="#2D373D"/>
<path d="M18.0575 13.8621C18.5782 14.3828 19.4224 14.3828 19.9431 13.8621C20.4638 13.3414 20.4638 12.4972 19.9431 11.9765C19.4224 11.4558 18.5782 11.4558 18.0575 11.9765C17.5368 12.4972 17.5368 13.3414 18.0575 13.8621Z" fill="#2D373D"/>
<path d="M16.9431 26.8621C16.4224 27.3828 15.5782 27.3828 15.0575 26.8621C14.5368 26.3414 14.5368 25.4972 15.0575 24.9765C15.5782 24.4558 16.4224 24.4558 16.9431 24.9765C17.4638 25.4972 17.4638 26.3414 16.9431 26.8621Z" fill="#2D373D"/>
<path fill-rule="evenodd" clip-rule="evenodd" d="M9.33366 3.58594C7.8609 3.58594 6.66699 4.77985 6.66699 6.2526V27.5859C6.66699 29.0587 7.8609 30.2526 9.33366 30.2526H22.667C24.1398 30.2526 25.3337 29.0587 25.3337 27.5859V6.2526C25.3337 4.77984 24.1398 3.58594 22.667 3.58594H9.33366ZM22.667 5.58594H9.33366C8.96547 5.58594 8.66699 5.88441 8.66699 6.2526V21.2526H23.3337V6.2526C23.3337 5.88441 23.0352 5.58594 22.667 5.58594ZM23.3337 23.2526H8.66699V27.5859C8.66699 27.9541 8.96547 28.2526 9.33366 28.2526H22.667C23.0352 28.2526 23.3337 27.9541 23.3337 27.5859V23.2526Z" fill="#2D373D"/>
</svg>
