<svg width="32" height="33" viewBox="0 0 32 33" fill="none" xmlns="http://www.w3.org/2000/svg">
<path fill-rule="evenodd" clip-rule="evenodd" d="M11.6078 4.92188C10.2714 4.92188 8.98968 5.45129 8.04469 6.39365C7.4021 7.03445 6.95099 7.83049 6.72808 8.69338H6.46843C5.91552 8.69338 5.46731 9.14035 5.46731 9.69172C5.46731 10.2431 5.91552 10.6901 6.46843 10.6901H6.6242C6.78282 11.7478 7.27717 12.7346 8.04469 13.5C8.70137 14.1549 9.52064 14.6103 10.4079 14.8273C9.33551 15.0029 8.31138 15.4116 7.4049 16.0267C6.35504 16.7391 5.49648 17.7055 4.90337 18.8373C4.31034 19.969 4.00036 21.2321 3.99951 22.5141C3.99915 23.0655 4.44707 23.5127 4.99997 23.5131C5.55288 23.5135 6.00139 23.0668 6.00176 22.5154C6.0024 21.5528 6.23528 20.6067 6.67792 19.7621C7.1205 18.9175 7.75815 18.2021 8.53128 17.6775C9.30423 17.153 10.1892 16.835 11.1071 16.7495C12.0248 16.6639 12.9497 16.8132 13.7997 17.1853C14.3059 17.4069 14.8965 17.1773 15.1188 16.6725C15.341 16.1676 15.1108 15.5787 14.6045 15.357C14.0279 15.1047 13.4252 14.9271 12.8103 14.8266C13.6965 14.6094 14.5148 14.1542 15.1709 13.5C15.9384 12.7346 16.4328 11.7478 16.5914 10.6901H16.7466C17.2995 10.6901 17.7478 10.2431 17.7478 9.69172C17.7478 9.14035 17.2995 8.69338 16.7466 8.69338H16.4875C16.2646 7.83049 15.8135 7.03445 15.1709 6.39365C14.2259 5.45129 12.9442 4.92188 11.6078 4.92188ZM14.3722 8.69338C14.2229 8.36602 14.015 8.0647 13.7551 7.80551C13.6406 7.69132 13.5179 7.58719 13.3883 7.49369L13.4052 8.69338H14.3722ZM12.0457 6.95019C11.9015 6.92924 11.7552 6.91855 11.6078 6.91855C11.4619 6.91855 11.317 6.92902 11.1742 6.94956L11.1742 8.69338H12.0702L12.0457 6.95019ZM9.8394 7.48497C9.70539 7.5807 9.57858 7.68776 9.46049 7.80551C9.20059 8.0647 8.99266 8.36602 8.8434 8.69338H9.8394L9.8394 7.48497ZM8.66392 10.6901C8.79715 11.2148 9.07022 11.699 9.46049 12.0882C10.03 12.6561 10.8024 12.9751 11.6078 12.9751C12.4132 12.9751 13.1856 12.6561 13.7551 12.0882C14.1454 11.699 14.4184 11.2148 14.5517 10.6901H8.66392Z" fill="#2D373D"/>
<path fill-rule="evenodd" clip-rule="evenodd" d="M21.3256 18.9651C20.7946 18.9651 20.2853 19.1755 19.9098 19.5499C19.5343 19.9244 19.3234 20.4323 19.3234 20.9618C19.3234 21.4914 19.5343 21.9992 19.9098 22.3737C20.123 22.5862 20.3793 22.7459 20.6582 22.8443V24.9552C20.6582 25.3227 20.957 25.6207 21.3256 25.6207C21.6942 25.6207 21.993 25.3227 21.993 24.9552V22.8443C22.2719 22.7459 22.5282 22.5862 22.7414 22.3737C23.1169 21.9992 23.3279 21.4914 23.3279 20.9618C23.3279 20.4323 23.1169 19.9244 22.7414 19.5499C22.3659 19.1755 21.8566 18.9651 21.3256 18.9651ZM21.3256 21.6274C21.5026 21.6274 21.6724 21.5572 21.7975 21.4324C21.9227 21.3076 21.993 21.1383 21.993 20.9618C21.993 20.7853 21.9227 20.616 21.7975 20.4912C21.6724 20.3664 21.5026 20.2962 21.3256 20.2962C21.1486 20.2962 20.9788 20.3664 20.8537 20.4912C20.7285 20.616 20.6582 20.7853 20.6582 20.9618C20.6582 21.1383 20.7285 21.3076 20.8537 21.4324C20.9788 21.5572 21.1486 21.6274 21.3256 21.6274Z" fill="#2D373D"/>
<path fill-rule="evenodd" clip-rule="evenodd" d="M16.3781 17.3329C17.6548 16.0597 19.3864 15.3445 21.1919 15.3445C22.9974 15.3445 24.7289 16.0597 26.0056 17.3329C27.2823 18.606 27.9995 20.3327 27.9995 22.1332C27.9995 23.9337 27.2823 25.6604 26.0056 26.9335C24.7289 28.2066 22.9974 28.9219 21.1919 28.9219C19.3864 28.9219 17.6548 28.2066 16.3781 26.9335C15.1015 25.6604 14.3842 23.9337 14.3842 22.1332C14.3842 20.3327 15.1015 18.606 16.3781 17.3329ZM21.1919 17.3412C19.9174 17.3412 18.6951 17.846 17.7939 18.7447C16.8928 19.6434 16.3865 20.8623 16.3865 22.1332C16.3865 23.4041 16.8928 24.623 17.7939 25.5217C18.6951 26.4203 19.9174 26.9252 21.1919 26.9252C22.4663 26.9252 23.6886 26.4203 24.5898 25.5217C25.491 24.623 25.9973 23.4041 25.9973 22.1332C25.9973 20.8623 25.491 19.6434 24.5898 18.7447C23.6886 17.846 22.4663 17.3412 21.1919 17.3412Z" fill="#2D373D"/>
</svg>
