<svg width="24" height="24" viewBox="0 0 24 24" fill="none" xmlns="http://www.w3.org/2000/svg">
<path fill-rule="evenodd" clip-rule="evenodd" d="M14.4548 3.00399C13.9828 2.56172 13.3772 2.20491 12.7001 2.06407C11.585 1.83211 10.3945 2.21188 9.45812 3.46044L9.45524 3.46431C8.9259 4.17963 8.82269 4.9694 9.00554 5.7441C9.17961 6.48167 9.60823 7.19595 10.1172 7.85987C10.873 8.8456 11.9374 9.87812 12.9474 10.8579C13.2836 11.184 13.6137 11.5042 13.9244 11.8149C14.0651 11.9556 14.2559 12.0346 14.4548 12.0346C14.6537 12.0346 14.8444 11.9556 14.9851 11.8149C15.2958 11.5042 15.6259 11.184 15.9621 10.8579C16.9721 9.87812 18.0366 8.8456 18.7923 7.85987C19.3013 7.19595 19.7299 6.48167 19.904 5.7441C20.0868 4.9694 19.9836 4.17963 19.4543 3.46431L19.4514 3.46044C18.515 2.21188 17.3246 1.83211 16.2094 2.06407C15.5323 2.20491 14.9267 2.56172 14.4548 3.00399ZM10.6596 4.35842C10.4246 4.67701 10.3717 5.0025 10.4654 5.39955C10.5681 5.8345 10.8494 6.34951 11.3076 6.94721C11.9904 7.8377 12.9338 8.75322 13.9196 9.70978C14.097 9.88198 14.2758 10.0555 14.4548 10.2305C14.6337 10.0555 14.8125 9.88198 14.99 9.70978C15.9757 8.75322 16.9192 7.8377 17.6019 6.94721C18.0601 6.34951 18.3415 5.8345 18.4441 5.39955C18.5378 5.00248 18.4849 4.67699 18.2499 4.35838C17.635 3.53981 17.0157 3.42846 16.5149 3.53263C15.9398 3.65225 15.3895 4.08864 15.0908 4.56657C14.9537 4.78586 14.7134 4.91907 14.4548 4.91907C14.1962 4.91907 13.9558 4.78586 13.8188 4.56657C13.5201 4.08864 12.9697 3.65225 12.3947 3.53263C11.8938 3.42846 11.2745 3.53981 10.6596 4.35842Z" fill="#2D373D"/>
<path fill-rule="evenodd" clip-rule="evenodd" d="M9.16292 14.1663C8.39444 14.1525 7.63943 14.3691 6.99512 14.7882L6.99376 14.7891L4.44973 16.4359L5.30777 19.4352L9.91051 19.7756C9.91833 19.7762 9.92615 19.7769 9.93394 19.7777C10.2798 19.8143 10.6456 19.7313 11.0599 19.545C11.4672 19.3618 11.8658 19.106 12.3043 18.8246C12.3204 18.8143 12.3365 18.8039 12.3527 18.7935L12.3539 18.7928L16.827 15.8972C17.0044 15.7823 17.129 15.6017 17.1732 15.395C17.2175 15.1884 17.1778 14.9726 17.0629 14.7952C16.9481 14.6177 16.7675 14.4932 16.5608 14.449C16.3541 14.4047 16.1384 14.4444 15.9609 14.5592L15.9587 14.5607L12.5953 16.7214C12.5647 16.741 12.5332 16.7582 12.5011 16.7729C12.2358 16.929 11.9383 17.0289 11.6274 17.063C11.6003 17.0659 11.573 17.0674 11.5457 17.0674H8.81243C8.39822 17.0674 8.06243 16.7316 8.06243 16.3174C8.06243 15.9032 8.39822 15.5674 8.81243 15.5674H11.4972C11.6522 15.5428 11.7947 15.4662 11.9009 15.3498C12.0147 15.2251 12.0791 15.0631 12.082 14.8944L12.0824 14.8797C12.0859 14.7851 12.0697 14.6908 12.0349 14.6028C12 14.5147 11.9473 14.4349 11.88 14.3684C11.8127 14.3018 11.7323 14.25 11.6439 14.2161C11.5554 14.1823 11.461 14.1671 11.3664 14.1717C11.3536 14.1723 11.3408 14.1726 11.328 14.1726L9.16292 14.1663ZM13.5222 14.3431C13.4983 14.2438 13.4673 14.146 13.4295 14.0505C13.3182 13.7694 13.1497 13.5144 12.9346 13.3017C12.7196 13.0891 12.4627 12.9235 12.1803 12.8153C11.9045 12.7097 11.6101 12.6612 11.3152 12.6725L9.18395 12.6664C8.1183 12.6485 7.07154 12.9493 6.17794 13.5303L4.01842 14.9282L3.90828 14.5432C3.79435 14.145 3.37916 13.9145 2.98092 14.0284C2.58268 14.1424 2.3522 14.5576 2.46613 14.9558L4.32577 21.4563C4.4397 21.8545 4.85489 22.085 5.25313 21.9711C5.65137 21.8571 5.88185 21.4419 5.76792 21.0437L5.74736 20.9718L9.78899 21.2707C10.4874 21.3415 11.1252 21.1603 11.6751 20.913C12.1874 20.6826 12.6724 20.371 13.0859 20.1053C13.1122 20.0885 13.1382 20.0718 13.1639 20.0553L13.1665 20.0536L17.6421 17.1564C18.1535 16.8253 18.5124 16.3047 18.64 15.709C18.7675 15.1134 18.6532 14.4914 18.3221 13.98C17.9911 13.4687 17.4705 13.1097 16.8748 12.9822C16.2796 12.8548 15.6582 12.9688 15.147 13.2992L15.1458 13.3L13.5222 14.3431Z" fill="#2D373D"/>
</svg>
