<svg width="32" height="33" viewBox="0 0 32 33" fill="none" xmlns="http://www.w3.org/2000/svg">
<path d="M22.3308 20.3796C22.2379 20.288 22.0521 20.288 21.9591 20.288C21.8662 20.288 21.6803 20.288 21.5874 20.3796C21.2157 20.4713 20.844 20.838 20.751 21.2046C20.6581 21.2963 20.6581 21.4796 20.6581 21.5713C20.6581 21.663 20.6581 21.7546 20.751 21.938C20.844 22.3046 21.2157 22.6713 21.5874 22.763C21.6803 22.8546 21.8662 22.8546 21.9591 22.8546C22.7026 22.8546 23.2601 22.3046 23.2601 21.5713C23.2601 21.388 23.2601 21.2963 23.1672 21.2046C23.0743 20.838 22.7026 20.4713 22.3308 20.3796Z" fill="#2D373D"/>
<path d="M7.0904 20.3796C6.99747 20.288 6.81162 20.288 6.71869 20.288C6.62576 20.288 6.4399 20.288 6.34697 20.3796C5.88232 20.3796 5.60353 20.7463 5.5106 21.113C5.41768 21.2046 5.41768 21.388 5.41768 21.4796C5.41768 21.5713 5.41768 21.7546 5.5106 21.8463C5.60353 22.3046 5.88232 22.5796 6.34697 22.763C6.4399 22.8546 6.62576 22.8546 6.71869 22.8546C6.81162 22.8546 6.99747 22.8546 7.0904 22.763C7.46212 22.6713 7.83384 22.3046 7.92677 21.938C8.0197 21.8463 8.0197 21.663 8.0197 21.5713C8.0197 21.4796 8.0197 21.2963 7.92677 21.2046C7.83384 20.838 7.46212 20.4713 7.0904 20.3796Z" fill="#2D373D"/>
<path d="M23.7248 17.263L22.2379 13.963C21.7733 12.6796 20.4723 11.8546 19.1712 11.8546H9.5066C8.11269 11.8546 6.90461 12.6796 6.53289 13.8713L5.04602 17.1713C3.55915 17.3546 2.35107 18.5463 2.35107 20.1046V23.863C2.35107 24.5046 2.62986 25.0546 3.09451 25.4213V26.338C3.09451 27.713 4.20966 28.813 5.6036 28.813C6.90461 28.813 8.01976 27.713 8.11269 26.338V25.788H20.5652V26.338C20.5652 27.713 21.6803 28.813 23.0743 28.813C24.4682 28.813 25.5834 27.713 25.5834 26.338V25.4213C26.048 25.0546 26.3268 24.5046 26.3268 23.863V20.1046C26.3268 18.638 25.2117 17.3546 23.7248 17.263ZM8.20562 14.6046C8.39148 14.0546 8.94905 13.688 9.5066 13.688H19.1712C19.7288 13.688 20.2864 14.0546 20.4723 14.6046L21.6803 17.1713H6.99754L8.20562 14.6046ZM6.2541 26.338C6.2541 26.7046 5.97532 26.9796 5.6036 26.9796C5.23188 26.9796 4.95309 26.7046 4.95309 26.338V25.788H6.2541V26.338ZM23.7248 26.338C23.7248 26.7046 23.446 26.9796 23.0743 26.9796C22.7026 26.9796 22.4238 26.7046 22.4238 26.338V25.788H23.7248V26.338ZM24.4682 23.863C24.4682 23.9241 24.4373 23.9546 24.3753 23.9546H4.30259C4.24063 23.9546 4.20966 23.9241 4.20966 23.863V20.1046C4.20966 19.463 4.67431 19.0046 5.41774 19.0046H23.3531C24.0036 19.0046 24.4682 19.463 24.4682 20.1046V23.863Z" fill="#2D373D"/>
<path d="M29.1519 8.10543C28.9381 7.82127 28.585 7.68377 28.2319 7.73877L23.5854 8.59127L22.9721 3.97127C22.9256 3.62294 22.6747 3.3296 22.3401 3.2196C22.0056 3.1096 21.6246 3.20127 21.383 3.45794L18.1304 6.84043L14.8779 3.45794C14.6363 3.20127 14.2553 3.1096 13.9207 3.2196C13.5769 3.3296 13.3353 3.62294 13.2888 3.97127L12.6941 8.42627L11.0957 7.8671C10.6125 7.69294 10.0828 7.9496 9.9062 8.42627C9.73892 8.90293 9.98983 9.42544 10.4731 9.5996L13.1494 10.5438C13.4096 10.6354 13.707 10.6079 13.9486 10.4613C14.1902 10.3146 14.3482 10.0763 14.3854 9.80127L14.8779 6.12544L17.4613 8.81127C17.8145 9.17793 18.4557 9.17793 18.8088 8.81127L21.3923 6.12544L21.8848 9.80127C21.922 10.0488 22.0521 10.2779 22.2565 10.4246C22.4609 10.5713 22.7211 10.6263 22.9721 10.5804L26.6613 9.9021L24.8678 13.1563C24.6262 13.5871 24.7842 14.1371 25.2117 14.3846L27.2003 15.5396C27.349 15.6221 27.507 15.668 27.665 15.668C27.9809 15.668 28.2969 15.503 28.4642 15.2188C28.7244 14.7788 28.5757 14.2196 28.1296 13.963L26.9123 13.2571L29.2076 9.09543C29.3749 8.78377 29.3563 8.40793 29.1426 8.1146L29.1519 8.10543Z" fill="#2D373D"/>
</svg>
