<svg width="64" height="64" viewBox="0 0 64 64" fill="none" xmlns="http://www.w3.org/2000/svg">
<path d="M51.6001 24.6001C50.4001 24.6001 49.6001 25.4001 49.6001 26.6001V34.4001C49.6001 42.0001 43.4001 48.0001 36.0001 48.0001H28.2001C20.6001 48.0001 14.6001 41.8001 14.6001 34.4001V26.6001C14.6001 25.4001 13.8001 24.6001 12.6001 24.6001C11.4001 24.6001 10.6001 25.4001 10.6001 26.6001V34.4001C10.6001 44.2001 18.6001 52.0001 28.2001 52.0001H30.0001V56.8001C30.0001 58.0001 30.8001 58.8001 32.0001 58.8001C33.2001 58.8001 34.0001 58.0001 34.0001 56.8001V52.0001H36.0001C45.6001 52.0001 53.6001 44.2001 53.6001 34.4001V26.6001C53.6001 25.4001 52.8001 24.6001 51.6001 24.6001Z" fill="#2D373D"/>
<path d="M28.2003 44.2002H36.0003C41.8003 44.0002 46.2003 39.0002 45.8003 33.4002V16.0002C46.2003 10.4002 41.8003 5.6002 36.0003 5.2002H28.0003C22.4003 5.6002 18.0003 10.4002 18.4003 16.0002V33.4002C18.0003 39.0002 22.4003 43.8002 28.2003 44.2002ZM22.4003 15.8002C22.2003 12.4002 24.8003 9.4002 28.2003 9.2002H35.8003C39.4003 9.4002 42.0003 12.4002 41.8003 16.0002V33.6002C42.0003 37.0002 39.4003 40.0002 36.0003 40.2002H28.4003C24.8003 40.0002 22.2003 37.0002 22.4003 33.4002V15.8002Z" fill="#2D373D"/>
</svg>
