<svg width="16" height="16" viewBox="0 0 16 16" fill="none" xmlns="http://www.w3.org/2000/svg">
<path d="M13.9502 11C14.4002 10.05 14.7002 9.04999 14.7002 7.94999C14.7002 7.84999 14.7002 7.74999 14.7002 7.64999C14.7002 7.59999 14.7002 7.59999 14.7002 7.54999C14.7002 7.49999 14.7002 7.39999 14.6502 7.34999C14.5502 6.49999 14.3502 5.59999 13.9502 4.84999C13.8002 4.59999 13.6502 4.34999 13.5002 4.09999C13.4502 3.94999 13.4002 3.84999 13.2502 3.79999C12.4002 2.74999 11.3002 1.99999 10.0002 1.59999C8.3002 1.04999 6.5002 1.19999 4.9002 2.04999C4.0502 2.54999 3.3002 3.14999 2.7502 3.89999C2.7502 3.89999 2.7002 3.94999 2.7002 3.99999C2.2002 4.59999 1.8502 5.24999 1.6002 5.99999C1.4502 6.49999 1.3502 6.99999 1.3002 7.54999C1.2502 8.79999 1.5002 9.99999 2.0502 11.1C2.9002 12.65 4.3002 13.8 6.0002 14.35C6.1002 14.4 6.1502 14.4 6.2502 14.4C6.3502 14.5 6.4502 14.5 6.5002 14.5H6.5502C7.0502 14.6 7.5502 14.65 8.0002 14.65C8.5002 14.65 8.9502 14.6 9.4502 14.5C9.6002 14.5 9.7002 14.45 9.8002 14.4C10.2002 14.3 10.6002 14.15 10.9502 13.95L14.0502 14.65C14.2502 14.65 14.4502 14.6 14.5502 14.45C14.6502 14.3 14.7002 14.05 14.6002 13.9L13.5002 11.7C13.6002 11.55 13.7002 11.35 13.8002 11.2C13.9002 11.15 13.9502 11.05 13.9502 11ZM2.8502 10.35C2.5002 9.59999 2.3502 8.84999 2.3502 8.04999H4.6502C4.6502 8.84999 4.7002 9.59999 4.8002 10.35H2.8502V10.35ZM12.7002 4.74999C12.8502 4.94999 13.0002 5.14999 13.1002 5.39999C13.3502 5.89999 13.5502 6.44999 13.6502 7.04999H11.3502C11.3002 6.24999 11.2002 5.44999 11.0502 4.74999H12.7002V4.74999ZM10.8002 3.74999C10.7002 3.44999 10.6002 3.14999 10.5002 2.89999C10.9502 3.09999 11.4002 3.39999 11.8002 3.74999H10.8002ZM10.3002 7.04999H5.6502C5.7002 6.24999 5.8002 5.44999 5.9502 4.74999H9.9502C10.1502 5.44999 10.2502 6.24999 10.3002 7.04999ZM5.6502 8.04999H10.3502C10.3502 8.84999 10.3002 9.64999 10.1502 10.35H5.8002C5.7002 9.64999 5.6502 8.84999 5.6502 8.04999ZM11.3502 8.04999H13.7502C13.7502 8.84999 13.6002 9.64999 13.2502 10.35H11.2002C11.3002 9.64999 11.3502 8.84999 11.3502 8.04999ZM9.1002 2.44999C9.3502 2.79999 9.5502 3.24999 9.7002 3.79999H6.2502C6.4002 3.29999 6.6502 2.84999 6.8502 2.44999C7.2002 2.39999 7.6002 2.34999 7.9502 2.34999C8.3502 2.29999 8.7502 2.34999 9.1002 2.44999ZM5.3002 2.94999C5.3502 2.89999 5.4002 2.89999 5.5002 2.84999C5.4002 3.14999 5.3002 3.39999 5.2002 3.74999H4.2002C4.5502 3.44999 4.9002 3.19999 5.3002 2.94999ZM3.3502 4.74999H4.9502C4.8002 5.44999 4.7002 6.24999 4.6502 7.04999H2.4002C2.4502 6.79999 2.5002 6.54999 2.5502 6.29999C2.7502 5.74999 3.0002 5.24999 3.3502 4.74999ZM3.4002 11.35H4.9502C5.1002 12 5.2502 12.6 5.4502 13.1C4.6502 12.7 3.9502 12.1 3.4002 11.35ZM6.8502 13.6C6.5002 13.05 6.2002 12.25 6.0002 11.35H9.9502C9.7502 12.25 9.4502 13.05 9.0502 13.6C8.3502 13.75 7.6002 13.75 6.8502 13.6ZM11.0002 13C10.8502 13 10.7502 13 10.6502 13.05C10.6002 13.1 10.5502 13.1 10.5002 13.1C10.7002 12.55 10.9002 11.95 11.0002 11.35H12.6502C12.6502 11.4 12.6002 11.4 12.6002 11.45C12.5002 11.6 12.4502 11.8 12.5502 11.95L13.3002 13.5L11.0002 13Z" fill="#2D373D"/>
</svg>
