<svg width="24" height="25" viewBox="0 0 24 25" fill="none" xmlns="http://www.w3.org/2000/svg">
<path d="M20.3246 16.4367L17.7746 8.41172H20.3246C20.6996 8.41172 21.0746 8.11172 21.0746 7.66172C21.0746 7.21172 20.7746 6.91172 20.3246 6.91172H12.7496V4.13672C12.7496 3.68672 12.4496 3.38672 11.9996 3.38672C11.5496 3.38672 11.2496 3.68672 11.2496 4.13672V6.91172H3.67461C3.22461 6.91172 2.92461 7.21172 2.92461 7.66172C2.92461 8.11172 3.22461 8.41172 3.67461 8.41172H6.14961L3.59961 16.4367C3.14961 16.4367 2.84961 16.7367 2.84961 17.1867C2.84961 19.5867 4.79961 21.5367 7.19961 21.5367C9.59961 21.5367 11.5496 19.5867 11.4746 17.1867C11.4746 16.7367 11.1746 16.5117 10.7996 16.4367L8.24961 8.41172H15.6746L13.1246 16.4367C12.6746 16.4367 12.3746 16.7367 12.3746 17.1867C12.3746 19.5867 14.3246 21.5367 16.7246 21.5367C19.1246 21.5367 21.0746 19.5867 20.9996 17.1867C20.9996 16.8117 20.7746 16.5117 20.3246 16.4367ZM7.19961 10.2117L9.14961 16.4367H5.24961L7.19961 10.2117ZM7.19961 20.0367C5.92461 20.0367 4.87461 19.1367 4.49961 17.9367H9.89961C9.59961 19.1367 8.47461 20.0367 7.19961 20.0367ZM16.7246 10.2117L18.6746 16.4367H14.7746L16.7246 10.2117ZM16.7246 20.0367C15.4496 20.0367 14.3246 19.1367 14.0246 17.9367H19.4246C19.1246 19.1367 17.9996 20.0367 16.7246 20.0367Z" fill="#2D373D"/>
</svg>
