<svg width="16" height="17" viewBox="0 0 16 17" fill="none" xmlns="http://www.w3.org/2000/svg">
<path d="M7.41698 7.42817C7.58269 7.20727 7.53795 6.89387 7.31706 6.72816C7.09616 6.56245 6.78276 6.60718 6.61704 6.82808L5.55313 8.24631L5.02007 7.71371C4.82472 7.51853 4.50814 7.51866 4.31296 7.71401C4.11778 7.90936 4.11792 8.22594 4.31327 8.42112L4.92864 9.03596C5.01966 9.12693 5.12914 9.19729 5.24968 9.24229C5.37029 9.28732 5.49916 9.30591 5.62757 9.29682C5.75598 9.28773 5.88094 9.25117 5.994 9.1896C6.10705 9.12803 6.20572 9.04269 6.28303 8.93975L7.41698 7.42817Z" fill="#2D373D"/>
<path d="M7.41698 11.0183C7.58269 10.7974 7.53795 10.484 7.31706 10.3183C7.09616 10.1526 6.78276 10.1973 6.61704 10.4182L5.55316 11.8364L5.02022 11.3035C4.82496 11.1082 4.50838 11.1082 4.31311 11.3035C4.11785 11.4987 4.11785 11.8153 4.31311 12.0106L4.92852 12.626C5.01956 12.717 5.12908 12.7874 5.24968 12.8324C5.37029 12.8775 5.49916 12.8961 5.62757 12.887C5.75598 12.8779 5.88094 12.8413 5.994 12.7797C6.10705 12.7182 6.20572 12.6328 6.28303 12.5299L7.41698 11.0183Z" fill="#2D373D"/>
<path d="M8.1556 8.79927C8.1556 8.52313 8.37946 8.29927 8.6556 8.29927H11.049C11.3252 8.29927 11.549 8.52313 11.549 8.79927C11.549 9.07541 11.3252 9.29927 11.049 9.29927H8.6556C8.37946 9.29927 8.1556 9.07541 8.1556 8.79927Z" fill="#2D373D"/>
<path d="M8.6556 11.4905C8.37946 11.4905 8.1556 11.7144 8.1556 11.9905C8.1556 12.2666 8.37946 12.4905 8.6556 12.4905H11.049C11.3252 12.4905 11.549 12.2666 11.549 11.9905C11.549 11.7144 11.3252 11.4905 11.049 11.4905H8.6556Z" fill="#2D373D"/>
<path fill-rule="evenodd" clip-rule="evenodd" d="M12.0499 2.21051C11.8124 1.96798 11.4888 1.828 11.1471 1.82813H3.31416C2.9668 1.82813 2.6386 1.97283 2.40034 2.22233C2.16282 2.47104 2.0332 2.80365 2.0332 3.1459V13.777C2.0332 14.1193 2.16282 14.4519 2.40034 14.7006C2.6386 14.9501 2.9668 15.0948 3.31416 15.0948H12.6856C13.0329 15.0948 13.3611 14.9501 13.5994 14.7006C13.8369 14.4519 13.9665 14.1193 13.9665 13.777V4.71763C13.9665 4.54493 13.9335 4.37346 13.8689 4.21312C13.8043 4.05276 13.7092 3.90604 13.5878 3.78223L12.0499 2.21051ZM11.1667 2.82887C11.2263 2.83355 11.2864 2.86013 11.3354 2.91006L12.8735 4.48206C12.9015 4.5106 12.9249 4.54599 12.9414 4.58675C12.9468 4.60016 12.9513 4.61399 12.955 4.62812H11.1667V2.82887ZM10.1667 2.82813L3.31416 2.82813C3.24727 2.82813 3.17819 2.85573 3.12354 2.91296C3.06814 2.97098 3.0332 3.05438 3.0332 3.1459V13.777C3.0332 13.8685 3.06814 13.9519 3.12354 14.01C3.17819 14.0672 3.24727 14.0948 3.31416 14.0948H12.6856C12.7525 14.0948 12.8215 14.0672 12.8762 14.01C12.9316 13.9519 12.9665 13.8685 12.9665 13.777V5.62812H10.6667C10.3905 5.62812 10.1667 5.40427 10.1667 5.12812V2.82813Z" fill="#2D373D"/>
</svg>
