<svg width="24" height="25" viewBox="0 0 24 25" fill="none" xmlns="http://www.w3.org/2000/svg">
<path d="M6.53646 2.92188H17.4626C17.6774 2.92185 17.9417 2.92182 18.198 2.95204C18.465 2.98355 18.777 3.05284 19.0703 3.22661C19.7314 3.61823 19.9995 4.3409 19.9995 5.27188V10.1719C19.9995 10.5861 19.6637 10.9219 19.2495 10.9219C18.8353 10.9219 18.4995 10.5861 18.4995 10.1719V5.27188C18.4995 4.62305 18.3306 4.53073 18.3075 4.51811L18.3058 4.51715C18.2615 4.49092 18.179 4.46021 18.0222 4.44172C17.862 4.42282 17.681 4.42188 17.444 4.42188H6.55507C6.31807 4.42188 6.137 4.42282 5.97679 4.44172C5.82001 4.46021 5.73748 4.49092 5.6932 4.51715L5.69148 4.51811C5.6684 4.53073 5.49951 4.62304 5.49951 5.27188V10.9219L8.99952 10.9219C9.41373 10.9219 9.74952 11.2577 9.74952 11.6719C9.74952 12.0861 9.41373 12.4219 8.99952 12.4219H3.70575C3.79138 12.6859 3.89817 12.9554 4.02561 13.1974C4.33625 13.7872 4.60481 13.9219 4.74952 13.9219H8.99952C9.41373 13.9219 9.74952 14.2577 9.74952 14.6719C9.74952 15.0861 9.41373 15.4219 8.99952 15.4219H4.74952C3.69422 15.4219 3.04611 14.5565 2.69842 13.8964C2.32115 13.18 2.10178 12.3475 2.00972 11.7952C1.97348 11.5777 2.03475 11.3553 2.17725 11.1871C2.31976 11.0189 2.52905 10.9219 2.74952 10.9219L3.99951 10.9219V5.27188C3.99951 4.3409 4.2676 3.61823 4.92868 3.22661C5.222 3.05284 5.53398 2.98355 5.80107 2.95204C6.05728 2.92182 6.32158 2.92185 6.53646 2.92188Z" fill="#2D373D"/>
<path fill-rule="evenodd" clip-rule="evenodd" d="M16.2495 18.582C17.3541 18.582 18.2495 17.6866 18.2495 16.582C18.2495 15.4775 17.3541 14.582 16.2495 14.582C15.1449 14.582 14.2495 15.4775 14.2495 16.582C14.2495 17.6866 15.1449 18.582 16.2495 18.582ZM16.9995 16.582C16.9995 16.9962 16.6637 17.332 16.2495 17.332C15.8353 17.332 15.4995 16.9962 15.4995 16.582C15.4995 16.1678 15.8353 15.832 16.2495 15.832C16.6637 15.832 16.9995 16.1678 16.9995 16.582Z" fill="#2D373D"/>
<path fill-rule="evenodd" clip-rule="evenodd" d="M18.0371 11.6084C17.5515 9.77378 14.9476 9.77377 14.462 11.6084L14.2115 12.5544C14.162 12.7416 13.9695 12.8527 13.7826 12.802L12.8381 12.5459C11.0065 12.0492 9.70451 14.3042 11.0505 15.6421L11.7446 16.332C11.8819 16.4685 11.8819 16.6907 11.7446 16.8273L11.0505 17.5172C9.70451 18.8551 11.0064 21.1101 12.8381 20.6134L13.7826 20.3572C13.9695 20.3065 14.162 20.4176 14.2115 20.6048L14.462 21.5509C14.9476 23.3855 17.5515 23.3855 18.0371 21.5509L18.2876 20.6048C18.3371 20.4176 18.5296 20.3065 18.7165 20.3572L19.661 20.6134C21.4926 21.1101 22.7946 18.8551 21.4486 17.5172L20.7545 16.8273C20.6171 16.6907 20.6171 16.4685 20.7545 16.332L21.4486 15.6421C22.7946 14.3042 21.4926 12.0492 19.661 12.5459L18.7165 12.802C18.5296 12.8527 18.3371 12.7416 18.2876 12.5544L18.0371 11.6084ZM15.912 11.9922C16.0037 11.6458 16.4954 11.6458 16.5871 11.9922L16.8375 12.9383C17.1 13.9297 18.1192 14.5182 19.1091 14.2498L20.0536 13.9936C20.3994 13.8998 20.6453 14.3256 20.3911 14.5782L19.697 15.2681C18.9696 15.9912 18.9696 17.1681 19.697 17.8911L20.3911 18.581C20.6453 18.8336 20.3994 19.2594 20.0536 19.1656L19.1091 18.9095C18.1192 18.6411 17.1 19.2295 16.8375 20.221L16.5871 21.167C16.4954 21.5134 16.0037 21.5134 15.912 21.167L15.6616 20.221C15.3991 19.2295 14.3799 18.6411 13.39 18.9095L12.4455 19.1656C12.0996 19.2594 11.8538 18.8336 12.108 18.581L12.802 17.8911C13.5294 17.1681 13.5294 15.9912 12.802 15.2681L12.108 14.5782C11.8538 14.3256 12.0996 13.8998 12.4455 13.9936L13.39 14.2498C14.3799 14.5182 15.3991 13.9297 15.6616 12.9383L15.912 11.9922Z" fill="#2D373D"/>
</svg>
