<svg width="64" height="64" viewBox="0 0 64 64" fill="none" xmlns="http://www.w3.org/2000/svg">
<path d="M40.0001 8.19995C39.4001 7.79995 38.6001 7.79995 38.0001 8.19995L20.6001 18.4H7.2001C6.0001 18.4 5.2001 19.2 5.2001 20.4V43.5999C5.2001 44.7999 6.0001 45.5999 7.2001 45.5999H20.6001L38.0001 55.7999C38.4001 56 38.6001 56 39.0001 56C39.4001 56 39.6001 56 40.0001 55.7999C40.6001 55.3999 41.0001 54.7999 41.0001 54V9.79995C41.0001 9.19995 40.6001 8.59995 40.0001 8.19995ZM37.0001 50.5999L22.2001 41.7999C21.8001 41.5999 21.6001 41.5999 21.2001 41.5999H9.2001V22.4H21.2001C21.6001 22.4 22.0001 22.4 22.2001 22.2L37.0001 13.4V50.5999Z" fill="#2D373D"/>
<path d="M58.2001 35.2L55 32L58.2001 28.7999C59 28 59 26.8 58.2001 26C57.4001 25.2 56.2001 25.2 55.4001 26L52.2001 29.2L49 26C48.2 25.2 47 25.2 46.2 26C45.4 26.8 45.4 28 46.2 28.7999L49.4 32L46.2 35.2C45.4 36 45.4 37.2 46.2 38C46.6 38.4 47.2 38.5999 47.6 38.5999C48 38.5999 48.6 38.4 49 38L52.2001 34.7999L55.4001 38C55.8001 38.4 56.4 38.5999 56.8 38.5999C57.2001 38.5999 57.8 38.4 58.2001 38C59 37.2 59 36 58.2001 35.2Z" fill="#2D373D"/>
</svg>
