<svg width="16" height="17" viewBox="0 0 16 17" fill="none" xmlns="http://www.w3.org/2000/svg">
<path fill-rule="evenodd" clip-rule="evenodd" d="M7.59163 3.99916C7.59163 3.03636 8.37259 2.25586 9.33594 2.25586C10.2993 2.25586 11.0802 3.03636 11.0802 3.99916C11.0802 4.96195 10.2993 5.74245 9.33594 5.74245C8.37259 5.74245 7.59163 4.96195 7.59163 3.99916ZM9.33594 3.25528C8.92487 3.25528 8.59163 3.58833 8.59163 3.99916C8.59163 4.40999 8.92487 4.74303 9.33594 4.74303C9.74701 4.74303 10.0802 4.40999 10.0802 3.99916C10.0802 3.58833 9.74701 3.25528 9.33594 3.25528Z" fill="#2D373D"/>
<path fill-rule="evenodd" clip-rule="evenodd" d="M6.60186 11.2848L4.52465 12.8995H5.45662C6.19764 12.8995 6.79836 13.4999 6.79836 14.2405C6.79836 14.9811 6.19764 15.5814 5.45662 15.5814H2.67523C1.93421 15.5814 1.3335 14.9811 1.3335 14.2405C1.3335 13.4999 1.93421 12.8995 2.67523 12.8995H2.89583L6.02223 10.4693C5.99275 10.3506 5.97897 10.2276 5.98202 10.1033C5.98225 10.0943 5.98271 10.0853 5.98342 10.0763C6.00768 9.76895 6.14502 9.48128 6.36923 9.26929C6.37574 9.26313 6.38243 9.25714 6.38927 9.25134C6.44771 9.20176 6.59766 9.09853 6.74525 8.99801C6.90866 8.88671 7.11323 8.74945 7.31262 8.61638C7.51223 8.48317 7.70764 8.3535 7.85307 8.25719L8.03035 8.13991L9.54344 6.28248C9.6502 6.14322 9.7836 6.0265 9.93598 5.9392C10.0914 5.85016 10.2633 5.7936 10.4412 5.773C10.4476 5.77226 10.4541 5.77164 10.4605 5.77114C10.7116 5.75188 10.9631 5.80266 11.1871 5.91776C11.4111 6.03285 11.5988 6.20771 11.7295 6.42279C11.7378 6.4365 11.7455 6.45059 11.7524 6.46504L13.2789 9.62658C13.2854 9.6402 13.2914 9.65411 13.2967 9.66827C13.8139 11.0466 14.2583 12.4514 14.6281 13.8767C14.6294 13.8819 14.6307 13.8871 14.6319 13.8923C14.696 14.177 14.6943 14.5556 14.5019 14.8744C14.3956 15.0505 14.2482 15.1984 14.0722 15.3052C14.068 15.3077 14.0637 15.3103 14.0594 15.3127C13.7466 15.49 13.3778 15.5405 13.029 15.4535C12.7358 15.3805 12.5203 15.204 12.3717 15.0458C12.2479 14.9141 12.1592 14.7197 12.1177 14.6251C12.0913 14.5651 12.0695 14.5104 12.0543 14.4709C12.0466 14.4509 12.0405 14.4344 12.0361 14.4225L12.0309 14.4082L12.0293 14.4038L12.0288 14.4024L12.0285 14.4014L12.0248 14.3904L11.4007 12.4756L11.3804 12.4974V14.0524L11.3805 14.0894C11.3815 14.3421 11.3833 14.8088 11.0363 15.1774C10.8227 15.4115 10.5295 15.5578 10.2135 15.5871C10.1982 15.5885 10.1828 15.5892 10.1674 15.5892C9.71141 15.5892 9.3744 15.4456 9.14284 15.2228C8.92763 15.0158 8.85015 14.7821 8.82311 14.7006L8.82153 14.6959C8.77693 14.5617 8.76454 14.4004 8.75944 14.3172C8.75634 14.2665 8.75488 14.2212 8.75418 14.1887C8.75383 14.1723 8.75366 14.1587 8.75358 14.149L8.75352 14.1371L8.75352 14.1335C8.75352 13.8903 8.74076 13.6181 8.72707 13.3264C8.7161 13.0929 8.70454 12.8466 8.69843 12.5919C8.69204 12.3253 8.69265 12.0586 8.71323 11.8334C8.7235 11.721 8.7399 11.6052 8.76789 11.4983C8.79332 11.4012 8.84084 11.2605 8.94367 11.1402C9.08363 10.9765 9.50032 10.5678 9.85463 10.2248C10.0186 10.0661 10.1764 9.91462 10.3005 9.79578L10.1885 9.54408L9.71291 10.1172C9.68268 10.1536 9.64741 10.1856 9.60818 10.2121L7.94698 11.335C7.94277 11.3379 7.93852 11.3406 7.93423 11.3433C7.48521 11.6273 7.04582 11.5229 6.77237 11.3853C6.70915 11.3534 6.65207 11.3189 6.60186 11.2848ZM2.3335 14.2405C2.3335 14.0518 2.4865 13.8989 2.67523 13.8989H5.45662C5.64536 13.8989 5.79836 14.0518 5.79836 14.2405C5.79836 14.4291 5.64536 14.582 5.45662 14.582H2.67523C2.4865 14.582 2.3335 14.4291 2.3335 14.2405ZM10.4333 6.80625C10.4685 6.78611 10.507 6.77283 10.5468 6.76702C10.6101 6.7639 10.6733 6.77748 10.7299 6.80659C10.7839 6.83433 10.8302 6.87525 10.8645 6.92565L12.3683 10.0404C12.8688 11.3763 13.2992 12.7375 13.6578 14.1185C13.6845 14.2439 13.6613 14.3322 13.6457 14.3581C13.6239 14.3942 13.5942 14.4246 13.5591 14.4472C13.4709 14.495 13.3681 14.508 13.2708 14.4838C13.2371 14.4754 13.1832 14.4477 13.1075 14.3689C13.1052 14.3653 13.0987 14.3555 13.0887 14.3374C13.0712 14.3058 13.0521 14.2661 13.0333 14.2233C13.0149 14.1814 12.999 14.1418 12.9878 14.1125C12.9822 14.098 12.9779 14.0865 12.9752 14.0789L12.9733 14.0737L12.0888 11.3603C12.034 11.1922 11.8943 11.0655 11.7215 11.0272C11.5487 10.989 11.3686 11.0449 11.2478 11.1743L10.5147 11.9596C10.4284 12.0521 10.3804 12.1739 10.3804 12.3005V14.0524C10.3804 14.2008 10.3787 14.292 10.3634 14.3698C10.3507 14.4345 10.3322 14.4671 10.3072 14.4933L10.2982 14.503C10.2565 14.5493 10.2007 14.5795 10.1402 14.5895C9.92829 14.5845 9.85652 14.5222 9.83633 14.5028C9.80421 14.4719 9.78916 14.4363 9.77197 14.3851C9.77193 14.3849 9.77186 14.3845 9.77176 14.384C9.77108 14.3808 9.76901 14.3708 9.76651 14.3524C9.76271 14.3246 9.75972 14.2912 9.75758 14.2562C9.75548 14.2219 9.75444 14.1903 9.75395 14.1672C9.7537 14.1558 9.7536 14.1469 9.75355 14.1411L9.75352 14.1345V14.133C9.75352 13.8844 9.73868 13.5565 9.724 13.2325C9.71341 12.9986 9.70291 12.7666 9.69814 12.5679C9.69198 12.3109 9.69389 12.0906 9.70908 11.9243C9.71641 11.8441 9.72578 11.7892 9.73432 11.7552C9.8663 11.6108 10.2075 11.2747 10.5504 10.9427C10.7314 10.7674 10.9051 10.6008 11.0337 10.4779C11.0979 10.4165 11.1508 10.366 11.1876 10.331L11.2449 10.2764C11.3983 10.1308 11.4433 9.90438 11.3573 9.71116L10.7749 8.40225C10.7046 8.2443 10.5576 8.13388 10.3863 8.11027C10.2149 8.08667 10.0436 8.15324 9.93314 8.28629L8.98879 9.42422L7.39467 10.5018C7.34574 10.5313 7.3032 10.5335 7.22227 10.4927C7.17826 10.4706 7.13771 10.441 7.10691 10.4149C7.09223 10.4024 7.08155 10.3922 7.07569 10.3864L7.07286 10.3835C7.01521 10.3165 6.98284 10.2311 6.98164 10.1423C6.98824 10.0918 7.01025 10.0448 7.04431 10.0076C7.05466 10.0001 7.07506 9.9852 7.10922 9.96118C7.16049 9.92514 7.22849 9.87831 7.30839 9.82389C7.4679 9.71525 7.6694 9.58004 7.86794 9.44754C8.06625 9.3152 8.26061 9.18622 8.40546 9.09029L8.64523 8.93175C8.68761 8.90379 8.72549 8.86954 8.75755 8.83018L10.3241 6.90708C10.3281 6.90225 10.3319 6.89735 10.3357 6.89237C10.3622 6.85725 10.3954 6.82797 10.4333 6.80625Z" fill="#2D373D"/>
</svg>
