<svg width="16" height="16" viewBox="0 0 16 16" fill="none" xmlns="http://www.w3.org/2000/svg">
<path d="M13.6767 14.6751H2.3432C2.20264 14.6769 2.06315 14.6506 1.93293 14.5976C1.80272 14.5447 1.68443 14.4662 1.58503 14.3668C1.48563 14.2674 1.40714 14.1491 1.35419 14.0189C1.30123 13.8886 1.27489 13.7492 1.2767 13.6086V6.74209C1.27257 6.58616 1.3069 6.4316 1.37666 6.29207C1.44642 6.15255 1.54947 6.03235 1.6767 5.94209L7.6767 1.40859C7.76325 1.34368 7.86852 1.30859 7.9767 1.30859C8.08489 1.30859 8.19015 1.34368 8.2767 1.40859L14.2767 5.94209C14.3934 6.04196 14.489 6.16421 14.5577 6.30161C14.6264 6.43902 14.6668 6.58879 14.6767 6.74209V13.6751C14.6702 13.9383 14.5628 14.1889 14.3766 14.375C14.1905 14.5612 13.9399 14.6686 13.6767 14.6751ZM2.3432 6.74209V13.6751L13.6767 13.7421C13.6855 13.7422 13.6942 13.7406 13.7023 13.7373C13.7104 13.734 13.7178 13.7291 13.724 13.7229C13.7302 13.7167 13.7351 13.7093 13.7384 13.7012C13.7417 13.6931 13.7433 13.6844 13.7432 13.6756V6.74209C13.7434 6.73328 13.7418 6.72452 13.7386 6.71633C13.7353 6.70814 13.7304 6.7007 13.7242 6.69444C13.718 6.68819 13.7106 6.68325 13.7024 6.67992C13.6943 6.6766 13.6855 6.67496 13.6767 6.67509L8.0102 2.40859L2.3432 6.74209Z" fill="#2D373D"/>
</svg>
