<svg width="16" height="16" viewBox="0 0 16 16" fill="none" xmlns="http://www.w3.org/2000/svg">
<path fill-rule="evenodd" clip-rule="evenodd" d="M3.54709 3.8719C3.16434 4.21585 2.88228 4.60159 2.68692 5H13.3134C13.118 4.60159 12.836 4.21585 12.4532 3.8719C11.5925 3.09836 10.1804 2.5 8.00016 2.5C5.81992 2.5 4.40787 3.09836 3.54709 3.8719ZM2.3335 6.5C2.3335 6.42067 2.33644 6.34033 2.34246 6.25923C2.35138 6.28252 2.36054 6.30578 2.36991 6.32898C2.49517 6.63899 2.68173 6.99347 2.93172 7.33095C3.42592 7.99813 4.22388 8.66667 5.3335 8.66667C6.44311 8.66667 7.24107 7.99813 7.73527 7.33095C7.83327 7.19865 7.92153 7.06374 8.00016 6.92991C8.0788 7.06374 8.16705 7.19865 8.26505 7.33095C8.75926 7.99813 9.55722 8.66667 10.6668 8.66667C11.7764 8.66667 12.5744 7.99813 13.0686 7.33095C13.3186 6.99347 13.5052 6.63899 13.6304 6.32898C13.6398 6.30578 13.6489 6.28252 13.6579 6.25922C13.6639 6.34033 13.6668 6.42067 13.6668 6.5V13C13.6668 13.2761 13.8907 13.5 14.1668 13.5C14.443 13.5 14.6668 13.2761 14.6668 13V6.5C14.6668 5.36622 14.2067 4.10321 13.1216 3.1281C12.0351 2.15164 10.3638 1.5 8.00016 1.5C5.63654 1.5 3.96526 2.15164 2.87868 3.1281C1.7936 4.10321 1.3335 5.36622 1.3335 6.5V13C1.3335 13.2761 1.55735 13.5 1.8335 13.5C2.10964 13.5 2.3335 13.2761 2.3335 13V6.5ZM3.73527 6.73572C3.55302 6.48968 3.41266 6.22929 3.31594 6H7.35106C7.25433 6.22929 7.11397 6.48968 6.93172 6.73572C6.53704 7.26854 6.00166 7.66667 5.3335 7.66667C4.66533 7.66667 4.12996 7.26854 3.73527 6.73572ZM9.06861 6.73572C8.88635 6.48968 8.746 6.22929 8.64927 6H12.6844C12.5877 6.22929 12.4473 6.48968 12.265 6.73572C11.8704 7.26854 11.335 7.66667 10.6668 7.66667C9.99866 7.66667 9.46329 7.26854 9.06861 6.73572ZM10.6668 13.3333C10.943 13.3333 11.1668 13.1095 11.1668 12.8333C11.1668 12.7118 11.1371 12.581 11.1053 12.4717C11.0705 12.3518 11.0209 12.2162 10.958 12.073C10.8324 11.7869 10.6457 11.4509 10.3958 11.1276C9.90168 10.4883 9.10505 9.83333 8.00016 9.83333C6.89528 9.83333 6.09864 10.4883 5.60456 11.1276C5.35464 11.4509 5.16792 11.7869 5.04233 12.073C4.97945 12.2162 4.92979 12.3518 4.89498 12.4717C4.86324 12.581 4.8335 12.7118 4.8335 12.8333C4.8335 13.1095 5.05735 13.3333 5.3335 13.3333H10.6668ZM9.60456 11.7391C9.75889 11.9388 9.88306 12.1462 9.97604 12.3333H6.02428C6.11727 12.1462 6.24143 11.9388 6.39576 11.7391C6.79057 11.2283 7.32727 10.8333 8.00016 10.8333C8.67306 10.8333 9.20975 11.2283 9.60456 11.7391Z" fill="#2D373D"/>
</svg>
