<svg width="24" height="25" viewBox="0 0 24 25" fill="none" xmlns="http://www.w3.org/2000/svg">
<path d="M11.9893 21.4644C13.1974 21.4644 14.1768 20.485 14.1768 19.2769C14.1768 18.0687 13.1974 17.0894 11.9893 17.0894C10.7811 17.0894 9.80176 18.0687 9.80176 19.2769C9.80176 20.485 10.7811 21.4644 11.9893 21.4644Z" fill="#2D373D"/>
<path d="M11.9893 7.46436C13.1974 7.46436 14.1768 6.48498 14.1768 5.27686C14.1768 4.06873 13.1974 3.08936 11.9893 3.08936C10.7811 3.08936 9.80176 4.06873 9.80176 5.27686C9.80176 6.48498 10.7811 7.46436 11.9893 7.46436Z" fill="#2D373D"/>
<path d="M11.9893 14.4644C13.1974 14.4644 14.1768 13.485 14.1768 12.2769C14.1768 11.0687 13.1974 10.0894 11.9893 10.0894C10.7811 10.0894 9.80176 11.0687 9.80176 12.2769C9.80176 13.485 10.7811 14.4644 11.9893 14.4644Z" fill="#2D373D"/>
</svg>
