<svg width="64" height="65" viewBox="0 0 64 65" fill="none" xmlns="http://www.w3.org/2000/svg">
<path d="M48.0002 31.4618C53.0002 31.4618 57.0002 27.4618 57.0002 22.4618C57.0002 17.4618 53.0002 13.4618 48.0002 13.4618C43.0002 13.4618 39.0002 17.4618 39.0002 22.4618C39.0002 27.4618 43.0002 31.4618 48.0002 31.4618ZM48.0002 17.2618C50.8002 17.2618 53.0002 19.4618 53.0002 22.2618C53.0002 25.0618 50.8002 27.2618 48.0002 27.2618C45.2002 27.2618 43.0002 25.0618 43.0002 22.2618C43.0002 19.4618 45.2002 17.2618 48.0002 17.2618Z" fill="#2D373D"/>
<path d="M48.0002 31.8618C45.6002 31.8618 43.2002 32.6618 41.4002 34.0618C40.6002 34.6618 40.4002 36.0618 41.0002 36.8618C41.6002 37.6618 43.0002 37.8618 43.8002 37.2618C45.0002 36.2618 46.6002 35.8618 48.0002 35.8618C51.8002 35.8618 54.8002 38.8618 54.8002 42.6618C54.8002 43.8618 55.6002 44.6618 56.8002 44.6618C58.0002 44.6618 58.8002 43.8618 58.8002 42.6618C58.8002 36.6618 54.0002 31.8618 48.0002 31.8618Z" fill="#2D373D"/>
<path d="M16.0002 31.4617C21.0002 31.4617 25.2002 27.2617 25.2002 22.2617C25.2002 17.2617 21.0002 13.2617 16.0002 13.2617C11.0002 13.2617 7.00024 17.4617 7.00024 22.4617C7.00024 27.4617 11.0002 31.4617 16.0002 31.4617ZM16.0002 17.2617C18.8002 17.2617 21.2002 19.2617 21.2002 22.2617C21.2002 25.2617 18.8002 27.4617 16.0002 27.4617C13.2002 27.4617 11.0002 25.0617 11.0002 22.2617C11.0002 19.4617 13.2002 17.2617 16.0002 17.2617Z" fill="#2D373D"/>
<path d="M23.0002 36.8618C23.6002 36.0618 23.4002 34.6618 22.6002 34.0618C20.6002 32.6618 18.4002 31.8618 16.0002 31.8618C10.0002 31.8618 5.2002 36.6618 5.2002 42.6618C5.2002 43.8618 6.0002 44.6618 7.2002 44.6618C8.4002 44.6618 9.2002 43.8618 9.2002 42.6618C9.2002 38.8618 12.2002 35.8618 16.0002 35.8618C17.6002 35.8618 19.0002 36.4618 20.2002 37.2618C21.0002 37.8618 22.4002 37.6618 23.0002 36.8618Z" fill="#2D373D"/>
<path d="M32.0002 38.4616C36.0002 38.4616 39.4002 35.2616 39.4002 31.0616C39.4002 26.8616 36.0002 23.6616 32.0002 23.6616C27.8002 23.6616 24.6002 26.8616 24.6002 31.0616C24.6002 35.2616 28.0002 38.4616 32.0002 38.4616ZM32.0002 27.8616C33.8002 27.8616 35.4002 29.4616 35.4002 31.2616C35.4002 33.2616 34.0002 34.6616 32.0002 34.6616C30.0002 34.6616 28.6002 33.0616 28.6002 31.2616C28.6002 29.2616 30.2002 27.8616 32.0002 27.8616Z" fill="#2D373D"/>
<path d="M38.2002 40.6617C35.8002 39.0617 32.8002 38.4617 30.0002 39.0617C29.6002 39.0617 29.4002 39.2617 29.0002 39.4617C25.2002 40.6617 22.2002 43.6617 21.6002 47.6617C21.4002 48.8617 22.2002 49.8617 23.2002 50.0617C23.4002 50.0617 23.4002 50.0617 23.6002 50.0617C24.6002 50.0617 25.4002 49.2617 25.6002 48.6617C26.0002 45.8617 28.2002 43.8617 30.8002 43.2617C31.0002 43.2617 31.4002 43.0617 31.6002 43.0617C35.0002 42.6617 38.2002 44.8617 39.0002 48.2617C39.2002 49.2617 40.0002 49.8617 41.0002 49.8617C41.0002 49.8617 41.2002 49.8617 41.4002 49.8617C42.6002 49.6617 43.2002 48.4617 43.0002 47.4617C42.4002 44.6617 40.6002 42.2617 38.2002 40.6617Z" fill="#2D373D"/>
</svg>
