<svg width="64" height="65" viewBox="0 0 64 65" fill="none" xmlns="http://www.w3.org/2000/svg">
<path d="M58.2 26.2602C56.4 19.2602 52.2 13.4602 46.2 9.66016C41.8 7.06016 37 5.66016 32 5.66016C17.2 5.66016 5.2 17.6602 5.2 32.2602C5.2 37.0602 6.4 41.6602 8.8 45.6602L5.2 56.6602C5 57.2602 5.2 58.0602 5.8 58.6602C6.2 59.0602 6.6 59.2602 7.2 59.2602C7.4 59.2602 7.8 59.2602 8 59.2602L18.8 55.6602C24.8 59.0602 31.6 60.0602 38.2 58.4602C45.2 56.6602 51 52.4602 54.8 46.4602C58.6 40.4602 59.8 33.2602 58.2 26.2602ZM51.4 44.2602C48.2 49.4602 43.2 53.0602 37.2 54.4602C31.2 55.8602 25.2 54.8602 20 51.8602C19.8 51.6602 19.4 51.4602 19 51.4602C18.8 51.4602 18.4 51.4602 18.2 51.4602L10.2 54.0602L12.8 45.8602C13 45.2602 13 44.6602 12.6 44.2602C10.4 40.6602 9.2 36.4602 9.2 32.2602C9.2 19.8602 19.4 9.66016 32 9.66016C36.2 9.66016 40.4 10.8602 44 13.0602C49.2 16.2602 52.8 21.0602 54.2 27.0602C55.6 33.0602 54.6 39.0602 51.4 44.2602Z" fill="#2D373D"/>
<path d="M36.6 25.0601C36 25.0601 35.6 25.2601 35.4 25.4601C34 26.0601 33 27.2601 33 28.8601C33 30.8601 34.6 32.4601 36.6 32.4601C37.4 32.4601 38 32.2601 38.6 31.8601C38.6 32.0601 38.6 32.0601 38.6 32.2601C38.6 33.8601 37.6 35.2601 36.2 35.8601C35.2 36.2601 34.8 37.4601 35.2 38.4601C35.6 39.2601 36.2 39.6601 37 39.6601C37.2 39.6601 37.6 39.6601 37.8 39.2601C40.6 38.0601 42.4 35.4601 42.6 32.2601C42.6 28.8601 40.6 25.0601 36.6 25.0601Z" fill="#2D373D"/>
<path d="M25.0004 25.0601C24.4004 25.0601 24.0004 25.2601 23.8004 25.4601C22.4004 26.0601 21.4004 27.2601 21.4004 28.8601C21.4004 30.8601 23.0004 32.4601 25.0004 32.4601C25.8004 32.4601 26.4004 32.2601 27.0004 31.8601C27.0004 32.0601 27.0004 32.0601 27.0004 32.2601C27.0004 33.8601 26.0004 35.2601 24.6004 35.8601C23.6004 36.2601 23.2004 37.4601 23.6004 38.4601C24.0004 39.2601 24.6004 39.6601 25.4004 39.6601C25.8004 39.6601 26.0004 39.6601 26.2004 39.2601C29.0004 38.0601 30.8004 35.4601 31.0004 32.2601C31.0004 28.8601 29.0004 25.0601 25.0004 25.0601Z" fill="#2D373D"/>
</svg>
