<svg width="24" height="25" viewBox="0 0 24 25" fill="none" xmlns="http://www.w3.org/2000/svg">
<path d="M20.25 13.3618H18.3V12.9868C18.3 11.9368 17.475 11.1118 16.425 11.1118H15.3C14.25 11.1118 13.425 11.9368 13.425 12.9868V13.3618H11.4C10.95 13.3618 10.65 13.6618 10.65 14.1118V20.7118C10.65 21.1618 10.95 21.4618 11.4 21.4618H20.25C20.7 21.4618 21 21.1618 21 20.7118V14.1118C21 13.6618 20.7 13.3618 20.25 13.3618ZM14.85 12.9868C14.85 12.7618 15 12.6118 15.225 12.6118H16.35C16.575 12.6118 16.725 12.7618 16.725 12.9868V13.3618H14.85V12.9868ZM19.5 14.8618V15.5368H12.15V14.8618H19.5ZM12.15 19.9618V17.0368H15.075V17.4118C15.075 17.8618 15.375 18.1618 15.825 18.1618C16.275 18.1618 16.575 17.8618 16.575 17.4118V17.0368H19.5V19.9618H12.15Z" fill="#2D373D"/>
<path d="M10.5748 11.0367C10.0498 10.0617 9.2248 9.46172 8.1748 9.08672C9.2248 8.63672 9.9748 7.58672 9.9748 6.38672C9.9748 5.56172 9.6748 4.81172 9.0748 4.28672C8.4748 3.68672 7.7998 3.38672 6.9748 3.38672C5.3248 3.38672 4.0498 4.73672 4.0498 6.31172C4.0498 7.13672 4.3498 7.88672 4.8748 8.41172C5.1748 8.71172 5.4748 8.93672 5.7748 9.08672C5.5498 9.16172 5.2498 9.31172 5.0248 9.38672C3.7498 10.0617 2.9248 11.4117 2.9248 12.9117V15.1617C2.9248 15.6117 3.2248 15.9117 3.6748 15.9117H4.1248L4.5748 20.7867C4.6498 21.1617 4.9498 21.4617 5.3248 21.4617H8.6248C9.0748 21.4617 9.3748 21.1617 9.3748 20.7867L9.7498 17.0367C9.8248 16.5867 9.4498 16.2867 9.0748 16.2117C8.6248 16.2117 8.3248 16.5117 8.2498 16.8867L7.9498 20.0367H5.9998L5.5498 15.1617C5.4748 14.7867 5.1748 14.4867 4.7998 14.4867H4.4248V12.9867C4.4248 12.0867 4.9498 11.1867 5.7748 10.7367C5.9248 10.6617 6.0748 10.5867 6.2248 10.5867V12.9867C6.2248 13.4367 6.5248 13.7367 6.9748 13.7367C7.4248 13.7367 7.7248 13.4367 7.7248 12.9867V10.5117C8.3998 10.7367 8.9248 11.1117 9.2248 11.7867C9.4498 12.1617 9.8998 12.3117 10.2748 12.0867C10.6498 11.8617 10.7998 11.4117 10.5748 11.0367ZM5.4748 6.31172C5.5498 5.48672 6.1498 4.88672 6.9748 4.88672C7.3498 4.88672 7.7248 5.03672 8.0998 5.26172C8.3998 5.56172 8.5498 5.93672 8.5498 6.31172C8.5498 7.13672 7.8748 7.81172 7.0498 7.81172C6.6748 7.81172 6.2998 7.66172 5.9998 7.36172C5.6998 7.06172 5.5498 6.68672 5.4748 6.31172Z" fill="#2D373D"/>
</svg>
