<svg width="32" height="33" viewBox="0 0 32 33" fill="none" xmlns="http://www.w3.org/2000/svg">
<path d="M21.4598 18.3545C21.1946 18.3545 20.9402 18.4598 20.7527 18.6473C20.5652 18.8349 20.4598 19.0892 20.4598 19.3545C20.4977 20.3396 20.143 21.2995 19.4736 22.0232C18.8042 22.747 17.8749 23.1754 16.8898 23.2145C16.7542 23.2143 16.6199 23.2417 16.4952 23.2951C16.3705 23.3484 16.258 23.4266 16.1644 23.5248C16.0709 23.623 15.9983 23.7392 15.9511 23.8664C15.9039 23.9936 15.883 24.129 15.8898 24.2645C15.9026 24.5209 16.0136 24.7626 16.1998 24.9395C16.386 25.1163 16.633 25.2148 16.8898 25.2145C17.6449 25.1918 18.3879 25.0182 19.0749 24.7039C19.7618 24.3896 20.3789 23.941 20.8898 23.3845C21.921 22.27 22.4677 20.7917 22.4098 19.2745C22.3906 19.0317 22.2835 18.8044 22.1086 18.635C21.9337 18.4656 21.703 18.3659 21.4598 18.3545Z" fill="#2D373D"/>
<path d="M14.3598 3.70445C14.0777 3.67251 13.7924 3.7247 13.5398 3.85445C13.2851 3.98595 13.0773 4.19299 12.9448 4.44719C12.8123 4.7014 12.7617 4.99035 12.7998 5.27445C12.8296 5.56237 12.9525 5.83271 13.1498 6.04445C18.5898 12.1045 16.1498 15.8345 14.6698 17.2545C14.192 16.8148 13.8224 16.2706 13.5898 15.6645C13.3313 14.9931 13.2453 14.2676 13.3398 13.5545C13.3697 13.3154 13.3316 13.0728 13.2298 12.8545C13.1349 12.6295 12.9791 12.4355 12.7798 12.2945C12.5885 12.1461 12.3603 12.0527 12.1198 12.0245C11.8867 11.994 11.6497 12.0215 11.4298 12.1045C9.64085 12.7922 8.10615 14.0127 7.03312 15.6007C5.96008 17.1888 5.40044 19.0681 5.42981 20.9845C5.42981 25.8745 10.4298 30.1645 16.2398 30.1645C23.6698 30.1645 27.0598 24.1645 27.0598 18.5345C26.9998 11.7145 20.8698 4.50445 14.3598 3.70445ZM16.2098 28.1645C11.5198 28.1645 7.39981 24.8145 7.39981 20.9745C7.37916 19.618 7.73328 18.2822 8.42317 17.1142C9.11305 15.9461 10.1119 14.9912 11.3098 14.3545C11.3345 15.0393 11.473 15.7152 11.7198 16.3545C12.0859 17.3481 12.6983 18.2324 13.4998 18.9245C13.8389 19.2077 14.2681 19.3602 14.7098 19.3545C15.1514 19.3433 15.5741 19.1728 15.8998 18.8745C17.2798 17.6045 21.1198 13.0845 15.7498 6.08445C20.6398 7.62445 24.9998 13.3045 24.9998 18.5345C24.9998 23.3245 22.2998 28.1645 16.2098 28.1645Z" fill="#2D373D"/>
</svg>
