<svg width="64" height="65" viewBox="0 0 64 65" fill="none" xmlns="http://www.w3.org/2000/svg">
<path d="M54.3998 16.6617C52.3998 16.4617 49.7998 16.2617 46.9998 16.4617V10.2617C46.9998 9.66172 46.7998 9.26172 46.3998 8.86172C45.9998 8.46172 45.5998 8.26172 44.9998 8.26172C44.5998 8.26172 36.7998 8.46172 31.9998 12.4617C28.3998 9.86172 23.7998 8.46172 19.1998 8.26172C18.3998 8.26172 17.9998 8.46172 17.5998 8.86172C17.1998 9.26172 16.9998 9.66172 16.9998 10.2617V17.6617C13.1998 17.0617 10.3998 16.6617 9.9998 16.6617C9.3998 16.6617 8.7998 16.8617 8.3998 17.2617C7.9998 17.4617 7.7998 18.0617 7.7998 18.6617V33.4617C8.1998 46.2617 18.5998 56.4617 31.3998 56.4617C31.5998 56.4617 31.5998 56.4617 31.7998 56.4617C39.9998 56.6617 47.3998 52.6617 51.7998 46.4617C51.9998 46.2617 52.1998 45.8617 52.3998 45.4617C54.5998 42.0617 55.7998 37.8617 55.9998 33.4617V18.6617C55.9998 17.6617 55.3998 16.8617 54.3998 16.6617ZM42.9998 12.4617V16.8617C41.1998 17.2617 39.3998 17.6617 37.7998 18.4617C36.9998 17.2617 35.9998 16.0617 35.1998 15.0617C37.5998 13.4617 40.7998 12.8617 42.9998 12.4617ZM20.9998 12.4617C26.1998 13.0617 30.9998 15.8617 34.1998 20.2617C33.5998 20.6617 32.9998 21.2617 32.5998 21.8617C28.7998 20.4617 24.5998 19.2617 20.9998 18.4617V12.4617ZM31.7998 52.4617C20.9998 52.8617 11.9998 44.2617 11.7998 33.4617V21.0617C15.9998 21.4617 25.3998 23.0617 32.1998 26.0617H32.3998C34.1998 26.8617 35.7998 27.6617 37.1998 28.6617C42.5998 32.4617 46.5998 37.8617 48.1998 44.2617C44.5998 49.4617 38.5998 52.6617 31.7998 52.4617ZM52.1998 33.2617C51.9998 35.4617 51.5998 37.4617 50.9998 39.4617C48.5998 33.8617 44.7998 29.0617 39.7998 25.4617C38.7998 24.8617 37.7998 24.2617 36.5998 23.6617C40.3998 20.4617 47.1998 20.0617 52.1998 20.4617V33.2617Z" fill="#2D373D"/>
</svg>
