<svg width="16" height="16" viewBox="0 0 16 16" fill="none" xmlns="http://www.w3.org/2000/svg">
<path d="M11.9834 14.7252H3.9834C3.63006 14.7241 3.29149 14.5833 3.04164 14.3335C2.79179 14.0836 2.65096 13.745 2.6499 13.3917V2.6587C2.65096 2.30535 2.79179 1.96679 3.04164 1.71693C3.29149 1.46708 3.63006 1.32625 3.9834 1.3252H12.0499C12.4032 1.32625 12.7418 1.46708 12.9917 1.71693C13.2415 1.96679 13.3823 2.30535 13.3834 2.6587V13.3917C13.3564 13.7478 13.1984 14.0813 12.9398 14.3276C12.6812 14.5739 12.3404 14.7156 11.9834 14.7252ZM3.9834 2.3252C3.9389 2.3225 3.89434 2.32927 3.85265 2.34508C3.81097 2.36088 3.77311 2.38535 3.74159 2.41688C3.71006 2.4484 3.68559 2.48626 3.66978 2.52794C3.65398 2.56963 3.6472 2.6142 3.6499 2.6587V13.3917C3.6472 13.4362 3.65398 13.4808 3.66978 13.5224C3.68559 13.5641 3.71006 13.602 3.74159 13.6335C3.77311 13.665 3.81097 13.6895 3.85265 13.7053C3.89434 13.7211 3.9389 13.7279 3.9834 13.7252H12.0499C12.0944 13.7279 12.139 13.7211 12.1807 13.7053C12.2223 13.6895 12.2602 13.665 12.2917 13.6335C12.3232 13.602 12.3477 13.5641 12.3635 13.5224C12.3793 13.4808 12.3861 13.4362 12.3834 13.3917V2.6587C12.3861 2.6142 12.3793 2.56963 12.3635 2.52794C12.3477 2.48626 12.3232 2.4484 12.2917 2.41688C12.2602 2.38535 12.2223 2.36088 12.1807 2.34508C12.139 2.32927 12.0944 2.3225 12.0499 2.3252H3.9834Z" fill="#2D373D"/>
<path d="M10.85 6.52514H5.11646C4.85327 6.51868 4.60266 6.41124 4.41651 6.22509C4.23035 6.03894 4.12292 5.78832 4.11646 5.52514V3.85864C4.12292 3.59546 4.23035 3.34485 4.41651 3.1587C4.60266 2.97254 4.85327 2.86511 5.11646 2.85864H10.85C11.1131 2.86511 11.3637 2.97254 11.5499 3.1587C11.7361 3.34485 11.8435 3.59546 11.85 3.85864V5.52514C11.8524 5.65714 11.8282 5.78827 11.7788 5.9107C11.7294 6.03313 11.6559 6.14434 11.5625 6.23769C11.4692 6.33104 11.3579 6.40461 11.2355 6.454C11.1131 6.50339 10.9819 6.52759 10.85 6.52514ZM5.11646 3.85864V5.52514H10.85V3.85864H5.11646Z" fill="#2D373D"/>
<path d="M5.58335 7.19165C5.38934 7.19335 5.20376 7.27117 5.06657 7.40836C4.92937 7.54556 4.85155 7.73114 4.84985 7.92515C4.85212 8.01777 4.87315 8.10897 4.91168 8.19322C4.9502 8.27748 5.00542 8.35305 5.07399 8.41535C5.14256 8.47766 5.22305 8.5254 5.3106 8.55571C5.39815 8.58601 5.49094 8.59824 5.58335 8.59165C5.76 8.59125 5.9293 8.52091 6.0542 8.396C6.17911 8.27109 6.24946 8.10179 6.24985 7.92515C6.24032 7.7448 6.16877 7.57329 6.04732 7.43963C5.92586 7.30597 5.76197 7.21837 5.58335 7.19165Z" fill="#2D373D"/>
<path d="M7.98293 7.19165C7.89031 7.19392 7.79912 7.21495 7.71486 7.25348C7.6306 7.292 7.55503 7.34722 7.49273 7.41578C7.43042 7.48435 7.38268 7.56485 7.35237 7.6524C7.32207 7.73995 7.30984 7.83274 7.31643 7.92515C7.31683 8.10179 7.38717 8.27109 7.51208 8.396C7.63699 8.52091 7.80629 8.59125 7.98293 8.59165C8.15581 8.57985 8.31856 8.50584 8.44109 8.38331C8.56362 8.26078 8.63763 8.09803 8.64943 7.92515C8.65171 7.74126 8.58422 7.56334 8.46054 7.42723C8.33686 7.29112 8.1662 7.20694 7.98293 7.19165Z" fill="#2D373D"/>
<path d="M10.2499 7.19165C10.1573 7.19392 10.0661 7.21495 9.98183 7.25348C9.89757 7.292 9.822 7.34722 9.7597 7.41578C9.69739 7.48435 9.64964 7.56485 9.61934 7.6524C9.58904 7.73995 9.57681 7.83274 9.5834 7.92515C9.5838 8.10179 9.65414 8.27109 9.77905 8.396C9.90396 8.52091 10.0733 8.59125 10.2499 8.59165C10.4228 8.57985 10.5855 8.50584 10.7081 8.38331C10.8306 8.26078 10.9046 8.09803 10.9164 7.92515C10.9187 7.74126 10.8512 7.56334 10.7275 7.42723C10.6038 7.29112 10.4332 7.20694 10.2499 7.19165Z" fill="#2D373D"/>
<path d="M5.58335 9.32522C5.39966 9.32365 5.22212 9.39138 5.08617 9.51492C4.95021 9.63846 4.86583 9.80872 4.84985 9.99172C4.86583 10.1747 4.95021 10.345 5.08617 10.4685C5.22212 10.5921 5.39966 10.6598 5.58335 10.6582C5.76 10.6578 5.9293 10.5875 6.0542 10.4626C6.17911 10.3377 6.24946 10.1684 6.24985 9.99172C6.23805 9.81884 6.16404 9.65609 6.04151 9.53356C5.91899 9.41103 5.75623 9.33702 5.58335 9.32522Z" fill="#2D373D"/>
<path d="M7.98291 9.3252C7.80626 9.32559 7.63696 9.39594 7.51206 9.52085C7.38715 9.64575 7.3168 9.81505 7.31641 9.9917C7.32821 10.1646 7.40222 10.3273 7.52475 10.4499C7.64727 10.5724 7.81003 10.6464 7.98291 10.6582C8.15578 10.6464 8.31854 10.5724 8.44107 10.4499C8.56359 10.3273 8.6376 10.1646 8.64941 9.9917C8.64901 9.81505 8.57866 9.64575 8.45376 9.52085C8.32885 9.39594 8.15955 9.32559 7.98291 9.3252Z" fill="#2D373D"/>
<path d="M10.2499 10.7247C10.618 10.7247 10.9164 10.4263 10.9164 10.0582C10.9164 9.69013 10.618 9.39172 10.2499 9.39172C9.88178 9.39172 9.58337 9.69013 9.58337 10.0582C9.58337 10.4263 9.88178 10.7247 10.2499 10.7247Z" fill="#2D373D"/>
<path d="M10.2499 12.9247C10.618 12.9247 10.9164 12.6263 10.9164 12.2582C10.9164 11.8901 10.618 11.5917 10.2499 11.5917C9.88178 11.5917 9.58337 11.8901 9.58337 12.2582C9.58337 12.6263 9.88178 12.9247 10.2499 12.9247Z" fill="#2D373D"/>
<path d="M7.98291 11.5917C7.80626 11.5921 7.63696 11.6624 7.51206 11.7873C7.38715 11.9122 7.3168 12.0815 7.31641 12.2582C7.32821 12.4311 7.40222 12.5938 7.52475 12.7163C7.64727 12.8389 7.81003 12.9129 7.98291 12.9247C8.15578 12.9129 8.31854 12.8389 8.44107 12.7163C8.56359 12.5938 8.6376 12.4311 8.64941 12.2582C8.64901 12.0815 8.57866 11.9122 8.45376 11.7873C8.32885 11.6624 8.15955 11.5921 7.98291 11.5917Z" fill="#2D373D"/>
<path d="M5.58335 11.5917C5.39966 11.5901 5.22212 11.6579 5.08617 11.7814C4.95021 11.9049 4.86583 12.0752 4.84985 12.2582C4.86583 12.4412 4.95021 12.6115 5.08617 12.735C5.22212 12.8585 5.39966 12.9263 5.58335 12.9247C5.76 12.9243 5.9293 12.854 6.0542 12.7291C6.17911 12.6041 6.24946 12.4348 6.24985 12.2582C6.23805 12.0853 6.16404 11.9226 6.04151 11.8C5.91899 11.6775 5.75623 11.6035 5.58335 11.5917Z" fill="#2D373D"/>
</svg>
