<svg width="64" height="65" viewBox="0 0 64 65" fill="none" xmlns="http://www.w3.org/2000/svg">
<path d="M55.3998 23.2602C55.1998 22.0602 54.5998 21.0602 53.7998 20.2602L40.7998 7.26016C39.7998 6.26016 38.3998 5.66016 36.9998 5.66016H13.5998C10.7998 5.66016 8.39984 8.06016 8.39984 11.0602V53.8602C8.19984 56.8602 10.5998 59.2601 13.5998 59.2601H50.1998C51.5998 59.2601 52.7998 58.6601 53.7998 57.8602C54.7998 56.8602 55.3998 55.4601 55.3998 54.0601V25.0602C55.5998 24.8602 55.5998 24.4602 55.5998 24.2602C55.5998 23.8602 55.5998 23.4602 55.3998 23.2602ZM38.9998 10.8602L50.3998 22.2602H40.3998C39.5998 22.2602 38.9998 21.6602 38.9998 20.8602V10.8602ZM51.5998 54.0601C51.5998 54.4601 51.5998 54.8601 51.1998 55.0601C50.7998 55.2601 50.5998 55.4601 50.1998 55.4601H13.7998C12.9998 55.4601 12.3998 54.8601 12.3998 54.0601V11.0602C12.3998 10.2602 12.9998 9.66016 13.5998 9.66016H34.9998V20.8602C34.9998 23.8602 37.1998 26.2602 40.1998 26.2602H51.5998V54.0601Z" fill="#2D373D"/>
<path d="M25.1991 35.8602V35.2602C27.9991 34.4602 29.9991 32.6602 29.9991 30.0602C29.9991 27.0602 26.9991 24.6602 23.3991 24.6602C21.7991 24.6602 20.7991 23.8602 20.7991 23.2602C20.7991 22.6602 21.7991 21.8602 23.3991 21.8602C24.1991 21.8602 25.1991 22.2602 25.7991 23.0602C26.3991 23.8602 27.5991 24.0602 28.5991 23.4602C29.3991 22.8602 29.5991 21.4602 28.9991 20.6602C27.9991 19.4602 26.5991 18.4602 25.1991 18.0602V17.6602C25.1991 16.4602 24.3991 15.6602 23.1991 15.6602C21.9991 15.6602 21.1991 16.4602 21.1991 17.6602V18.0602C18.3991 18.6602 16.5991 20.6602 16.5991 23.2602C16.5991 26.2602 19.5991 28.6602 23.1991 28.6602C24.7991 28.6602 25.7991 29.4602 25.7991 30.0602C25.7991 30.6602 24.7991 31.4602 23.1991 31.4602C22.1991 31.4602 21.3991 31.0602 20.7991 30.2602C20.1991 29.4602 18.7991 29.2602 17.9991 29.8602C17.1991 30.4602 16.9991 31.8602 17.5991 32.6602C18.3991 33.8602 19.7991 34.8602 21.1991 35.2602V35.8602C21.1991 37.0602 21.9991 37.8602 23.1991 37.8602C24.3991 37.8602 25.1991 36.8602 25.1991 35.8602Z" fill="#2D373D"/>
<path d="M33.2007 39.0599C33.2007 40.2599 34.0007 41.0599 35.2007 41.0599H45.2007C46.2007 41.0599 47.2007 40.2599 47.2007 39.0599C47.2007 37.8599 46.4007 37.0599 45.2007 37.0599H35.2007C34.0007 37.0599 33.2007 37.8599 33.2007 39.0599Z" fill="#2D373D"/>
<path d="M45.1996 47.0601H25.7996C24.5996 47.0601 23.7996 47.8601 23.7996 49.0601C23.7996 50.2601 24.5996 51.0601 25.7996 51.0601H45.1996C46.1996 51.0601 47.1996 50.2601 47.1996 49.0601C47.1996 47.8601 46.3996 47.0601 45.1996 47.0601Z" fill="#2D373D"/>
</svg>
