<svg width="24" height="24" viewBox="0 0 24 24" fill="none" xmlns="http://www.w3.org/2000/svg">
<path d="M9.90019 14.0248C9.3752 14.6248 8.55019 14.9998 7.7252 14.9998H6.4502C4.8002 14.9998 3.4502 13.6498 3.4502 11.9998C3.4502 10.3498 4.8002 8.99981 6.4502 8.99981H7.65019C8.47519 8.99981 9.30019 9.37481 9.82519 9.97481C10.1252 10.2748 10.5752 10.3498 10.8752 10.0498C11.1752 9.74981 11.2502 9.29981 10.9502 8.99981C10.1252 8.02481 8.92519 7.4998 7.7252 7.4248H6.4502C3.9752 7.4248 1.9502 9.44981 1.9502 11.9248C1.9502 14.3998 3.9752 16.4248 6.4502 16.4248H7.65019C8.92519 16.4248 10.1252 15.8998 11.0252 14.9998C11.2502 14.6998 11.2502 14.2498 10.9502 13.9498C10.6502 13.6498 10.2002 13.7248 9.90019 14.0248Z" fill="#2D373D"/>
<path d="M17.5502 7.4248H16.2752C15.0002 7.4248 13.8002 7.9498 12.9752 8.9248C12.6752 9.22481 12.7502 9.67481 13.0502 9.97481C13.3502 10.1998 13.8002 10.1998 14.1002 9.89981C14.6252 9.29981 15.4502 8.9248 16.2752 8.9248H17.5502C19.2002 8.9248 20.5502 10.2748 20.5502 11.9248C20.5502 13.5748 19.2002 14.9248 17.5502 14.9248H16.2752C15.4502 14.9248 14.6252 14.5498 14.1002 13.9498C13.8002 13.6498 13.3502 13.5748 13.0502 13.8748C12.7502 14.1748 12.6752 14.6248 12.9752 14.9248C13.8002 15.8998 15.0002 16.4248 16.2752 16.4248H17.5502C20.0252 16.4248 22.0502 14.3998 22.0502 11.9248C22.0502 9.44981 20.0252 7.4248 17.5502 7.4248Z" fill="#2D373D"/>
<path d="M6.90027 11.9999C6.90027 12.4499 7.20027 12.7499 7.65027 12.7499H16.3503C16.7253 12.7499 17.1003 12.4499 17.1003 11.9999C17.1003 11.5499 16.8003 11.2499 16.3503 11.2499H7.65027C7.20027 11.2499 6.90027 11.5499 6.90027 11.9999Z" fill="#2D373D"/>
</svg>
