<svg width="16" height="16" viewBox="0 0 16 16" fill="none" xmlns="http://www.w3.org/2000/svg">
<path d="M8.0001 1.2998C5.4501 1.2998 3.3501 3.3998 3.3501 5.9498C3.3501 8.1998 4.6501 9.5998 5.8501 10.7998C6.0001 10.9498 6.1501 11.0998 6.3001 11.2498C6.8001 11.6998 7.3001 13.3498 7.5001 14.2998C7.5501 14.5498 7.7501 14.6998 8.0001 14.6998C8.2001 14.6998 8.4001 14.5498 8.5001 14.3498C8.7501 13.3998 9.2501 11.7498 9.7001 11.2498C9.8501 11.0498 10.0001 10.8998 10.1501 10.7498C11.3001 9.5498 12.6501 8.1998 12.6501 5.9498C12.6501 3.3998 10.5501 1.2998 8.0001 1.2998ZM9.4001 10.0998C9.2501 10.2498 9.1001 10.4498 8.9501 10.5998C8.5501 10.9998 8.2501 11.7498 8.0001 12.4498C7.7501 11.7498 7.4001 10.9998 7.0501 10.5998C6.9001 10.4498 6.7501 10.2498 6.6001 10.0998C5.5001 8.9498 4.3501 7.7998 4.3501 5.9498C4.3501 3.9498 6.0001 2.2998 8.0001 2.2998C10.0001 2.2998 11.6001 3.9498 11.6001 5.9498C11.6001 7.7998 10.5001 8.9498 9.4001 10.0998Z" fill="#2D373D"/>
<path d="M8.0001 3.7998C6.8001 3.7998 5.8501 4.7498 5.8501 5.9498C5.8501 7.0998 6.8001 8.0998 8.0001 8.0998C9.1501 8.0998 10.1501 7.0998 10.1501 5.9498C10.1501 4.7498 9.2001 3.7998 8.0001 3.7998ZM8.0001 7.0998C7.3501 7.0998 6.8501 6.5998 6.8501 5.9498C6.8501 5.2998 7.3501 4.7998 8.0001 4.7998C8.6001 4.7998 9.1501 5.2998 9.1501 5.9498C9.1501 6.5998 8.6501 7.0998 8.0001 7.0998Z" fill="#2D373D"/>
</svg>
