<svg width="24" height="24" viewBox="0 0 24 24" fill="none" xmlns="http://www.w3.org/2000/svg">
<path fill-rule="evenodd" clip-rule="evenodd" d="M9.84112 7.67276C9.84112 5.19501 11.8497 3.1864 14.3275 3.1864C16.8052 3.1864 18.8138 5.19501 18.8138 7.67276C18.8138 9.98152 17.0693 11.8838 14.8269 12.1317C14.4152 12.1772 14.1183 12.5479 14.1638 12.9596C14.2094 13.3713 14.58 13.6681 14.9917 13.6226C17.9856 13.2917 20.3138 10.7546 20.3138 7.67276C20.3138 4.36659 17.6337 1.6864 14.3275 1.6864C11.6688 1.6864 9.41486 3.41964 8.63405 5.81784C8.40395 5.7792 8.16784 5.75912 7.92743 5.75912C5.58524 5.75912 3.68652 7.65784 3.68652 10C3.68652 12.3422 5.58524 14.2409 7.92743 14.2409C8.52966 14.2409 9.10444 14.115 9.62528 13.8872C10.0048 13.7212 10.1779 13.2791 10.012 12.8995C9.846 12.52 9.40381 12.3469 9.0243 12.5129C8.68939 12.6593 8.31893 12.7409 7.92743 12.7409C6.41367 12.7409 5.18652 11.5138 5.18652 10C5.18652 8.48627 6.41367 7.25912 7.92743 7.25912C8.07249 7.25912 8.2146 7.27033 8.35304 7.29186C8.34513 7.41781 8.34112 7.54482 8.34112 7.67276C8.34112 8.01186 8.36939 8.34493 8.42385 8.66958C8.49239 9.07809 8.8791 9.35369 9.28761 9.28515C9.69611 9.21662 9.97171 8.8299 9.90318 8.4214C9.86242 8.17842 9.84112 7.92837 9.84112 7.67276Z" fill="#2D373D"/>
<path fill-rule="evenodd" clip-rule="evenodd" d="M12.5779 12.2162C12.8582 12.3323 13.0409 12.6058 13.0409 12.9091V16.0405L14.4333 16.2394C14.7067 16.2785 14.9365 16.4646 15.0315 16.7239C15.1265 16.9832 15.0713 17.2737 14.8878 17.4801L10.2333 22.7165C10.0264 22.9492 9.69723 23.0299 9.40617 22.9193C9.11511 22.8086 8.92271 22.5296 8.92271 22.2182V19.022L7.16353 18.5822C6.90139 18.5167 6.69477 18.3152 6.62265 18.0548C6.55052 17.7944 6.62404 17.5153 6.8151 17.3243L11.7606 12.3788C11.9751 12.1643 12.2976 12.1001 12.5779 12.2162ZM8.81243 17.4483L9.85461 17.7088C10.1885 17.7923 10.4227 18.0923 10.4227 18.4364V20.2456L12.8393 17.5269L12.1848 17.4334C11.8153 17.3806 11.5409 17.0642 11.5409 16.691V14.7198L8.81243 17.4483Z" fill="#2D373D"/>
</svg>
