<svg width="64" height="64" viewBox="0 0 64 64" fill="none" xmlns="http://www.w3.org/2000/svg">
<path d="M49.9185 52.7488C50.6995 53.5299 51.9658 53.5299 52.7469 52.7488C53.5279 51.9678 53.5279 50.7015 52.7469 49.9204L34.8278 32.0013L52.7469 14.0822C53.5279 13.3011 53.5279 12.0348 52.7469 11.2538C51.9658 10.4727 50.6995 10.4727 49.9185 11.2538L31.9993 29.1729L14.0802 11.2538C13.2992 10.4727 12.0328 10.4727 11.2518 11.2538C10.4708 12.0348 10.4708 13.3011 11.2518 14.0822L29.1709 32.0013L11.2518 49.9204C10.4708 50.7015 10.4708 51.9678 11.2518 52.7488C12.0329 53.5299 13.2992 53.5299 14.0802 52.7488L31.9993 34.8297L49.9185 52.7488Z" fill="#2D373D"/>
</svg>
