<svg width="16" height="17" viewBox="0 0 16 17" fill="none" xmlns="http://www.w3.org/2000/svg">
<path d="M13.5 7.10123C13.1293 6.60589 12.5998 6.25286 12 6.10123L11.705 6.03623C11.115 5.92123 11.115 5.86123 11.115 5.71623V4.04623C11.1163 3.836 11.0754 3.62766 10.9946 3.43355C10.9139 3.23944 10.795 3.06352 10.645 2.91623C10.3407 2.62527 9.93598 2.46289 9.515 2.46289C9.09402 2.46289 8.68926 2.62527 8.385 2.91623C8.23164 3.06831 8.11087 3.25005 8.03007 3.45034C7.94926 3.65064 7.91011 3.8653 7.915 4.08123C7.915 4.28123 7.99 6.08123 6.98 7.13623C6.50515 7.61405 5.87219 7.90208 5.2 7.94623V7.34123C5.2 7.20862 5.14732 7.08144 5.05355 6.98768C4.95979 6.89391 4.83261 6.84123 4.7 6.84123H2.5C2.36739 6.84123 2.24021 6.89391 2.14645 6.98768C2.05268 7.08144 2 7.20862 2 7.34123V13.9462C2 14.0788 2.05268 14.206 2.14645 14.2998C2.24021 14.3936 2.36739 14.4462 2.5 14.4462H4.7C4.83261 14.4462 4.95979 14.3936 5.05355 14.2998C5.14732 14.206 5.2 14.0788 5.2 13.9462V13.7862C5.24091 13.7991 5.28268 13.8092 5.325 13.8162L6.205 14.0712C6.79191 14.2976 7.41158 14.4277 8.04 14.4562H10.45C11.3043 14.4562 12.1278 14.1374 12.7594 13.5622C13.3911 12.987 13.7853 12.1968 13.865 11.3462L14.015 8.84623C14.0491 8.22264 13.8673 7.60635 13.5 7.10123V7.10123ZM4.2 13.4462H3V7.84123H4.2V13.4462ZM12.87 11.2662C12.8081 11.8647 12.5264 12.419 12.0793 12.8217C11.6323 13.2244 11.0517 13.4469 10.45 13.4462H8.04C7.51164 13.4135 6.99183 13.297 6.5 13.1012L5.6 12.8462C5.46912 12.8062 5.3354 12.7761 5.2 12.7562V8.94623C6.12988 8.89007 7.00534 8.48889 7.655 7.82123C8.95 6.48623 8.91 4.44623 8.89 4.04623C8.89 3.96744 8.90552 3.88941 8.93567 3.81662C8.96582 3.74382 9.01002 3.67768 9.06574 3.62196C9.12145 3.56625 9.18759 3.52205 9.26039 3.4919C9.33319 3.46175 9.41121 3.44623 9.49 3.44623C9.56879 3.44623 9.64681 3.46175 9.71961 3.4919C9.79241 3.52205 9.85855 3.56625 9.91426 3.62196C9.96998 3.67768 10.0142 3.74382 10.0443 3.81662C10.0745 3.88941 10.09 3.96744 10.09 4.04623V5.70623C10.09 6.73623 11 6.91123 11.485 7.00623L11.735 7.06123C12.1125 7.15873 12.4446 7.38374 12.6752 7.69812C12.9057 8.01249 13.0205 8.39691 13 8.78623L12.87 11.2662Z" fill="#2D373D"/>
</svg>
