<svg width="16" height="16" viewBox="0 0 16 16" fill="none" xmlns="http://www.w3.org/2000/svg">
<path d="M14.3502 7.04991C12.9002 5.44991 10.4502 3.74991 8.0002 3.79991C5.5502 3.74991 3.1002 5.44991 1.7002 7.09991C1.2002 7.6499 1.2002 8.4499 1.7002 8.99991C3.1502 10.5499 5.5502 12.2499 7.9502 12.2499C8.0002 12.2499 8.0502 12.2499 8.1002 12.2499C10.5002 12.2499 12.9002 10.5499 14.3502 8.9499C14.8502 8.3999 14.8502 7.59991 14.3502 7.04991ZM13.6002 8.29991C12.3002 9.74991 10.1502 11.2499 8.0502 11.2499H8.0002C5.8502 11.2999 3.7002 9.74991 2.4002 8.29991C2.2502 8.14991 2.2502 7.89991 2.4002 7.74991C3.7002 6.29991 5.9002 4.74991 8.0002 4.79991C10.1502 4.74991 12.3002 6.29991 13.6002 7.74991C13.7502 7.89991 13.7502 8.14991 13.6002 8.29991Z" fill="#2D373D"/>
<path d="M8.0002 5.49988C6.6002 5.49988 5.4502 6.64988 5.4502 8.04988C5.4502 8.69988 5.7002 9.34988 6.2002 9.84988C6.6502 10.3499 7.3002 10.5999 8.0002 10.5999C8.7002 10.5999 9.3002 10.2999 9.8002 9.84988C10.3002 9.39988 10.5502 8.74988 10.5502 8.04988C10.5502 7.39988 10.3002 6.74988 9.8002 6.24988C9.3502 5.74988 8.7002 5.49988 8.0002 5.49988ZM9.1002 9.09988C8.8002 9.39988 8.4002 9.54988 8.0002 9.54988C7.6002 9.54988 7.2002 9.39988 6.9002 9.09988C6.6002 8.79988 6.4502 8.39988 6.4502 7.99988C6.4502 7.14988 7.1502 6.44988 8.0002 6.44988C8.4002 6.44988 8.8002 6.59988 9.1002 6.89988C9.4002 7.19988 9.5502 7.59988 9.5502 7.99988C9.5502 8.39988 9.4002 8.79988 9.1002 9.09988Z" fill="#2D373D"/>
</svg>
