<svg width="32" height="33" viewBox="0 0 32 33" fill="none" xmlns="http://www.w3.org/2000/svg">
<path fill-rule="evenodd" clip-rule="evenodd" d="M23.4005 4.92188C22.743 4.92188 22.1122 5.18184 21.6457 5.64486C21.268 6.01108 20.9667 6.4485 20.759 6.93189C20.5503 7.41777 20.4405 7.94034 20.4359 8.46913C20.4313 8.99792 20.532 9.52233 20.7323 10.0118C20.8045 10.1882 20.889 10.3588 20.9852 10.5224L14.4377 17.07L11.4545 14.0868C11.0641 13.6964 10.4311 13.6963 10.0405 14.0865L5.82208 18.302C4.65542 19.4687 4 21.051 4 22.7009C4 24.3508 4.65542 25.9332 5.82208 27.0998C6.98874 28.2665 8.57108 28.9219 10.221 28.9219C11.8709 28.9219 13.4533 28.2664 14.62 27.0997L18.8372 22.8815C19.0247 22.6939 19.13 22.4395 19.13 22.1743C19.1299 21.909 19.0245 21.6547 18.8369 21.4672L17.2552 19.8865C16.8645 19.4961 16.2313 19.4963 15.8409 19.8869C15.4505 20.2776 15.4507 20.9107 15.8414 21.3011L16.7156 22.1748L13.2056 25.6857C12.414 26.4772 11.3404 26.9219 10.221 26.9219C9.10151 26.9219 8.02788 26.4772 7.2363 25.6856C6.44471 24.894 6 23.8204 6 22.7009C6 21.5816 6.44487 20.5078 7.2363 19.7162L10.7471 16.2079L13.0235 18.4842L11.0941 20.4136C10.7036 20.8041 10.7036 21.4373 11.0941 21.8278C11.4846 22.2183 12.1178 22.2183 12.5083 21.8278L15.1397 19.1964L15.1448 19.1913L15.1499 19.1862L22.3994 11.9366C22.563 12.0328 22.7337 12.1174 22.9101 12.1896C23.3996 12.3899 23.924 12.4906 24.4528 12.4861C24.9816 12.4815 25.5041 12.3716 25.99 12.1629C26.4737 11.9551 26.9114 11.6535 27.2777 11.2755C27.7391 10.8092 27.998 10.1796 27.998 9.52338C27.998 8.86442 27.7362 8.23153 27.2712 7.76462L25.1618 5.65127C24.6946 5.18424 24.0611 4.92188 23.4005 4.92188ZM23.0532 7.0657C23.1453 6.97361 23.2703 6.92188 23.4005 6.92188C23.5307 6.92188 23.6557 6.97377 23.7478 7.0657L25.8551 9.17699C25.9467 9.26903 25.998 9.39356 25.998 9.52338C25.998 9.65332 25.9465 9.77788 25.8548 9.86994L25.8441 9.88098C25.6613 10.0703 25.4425 10.2214 25.2006 10.3253C24.9588 10.4292 24.6986 10.4838 24.4354 10.4861C24.1722 10.4884 23.9111 10.4383 23.6675 10.3386C23.4238 10.2389 23.2025 10.0917 23.0164 9.90555C22.8302 9.71941 22.683 9.49807 22.5833 9.25443C22.4837 9.01079 22.4335 8.74974 22.4358 8.48651C22.4381 8.22328 22.4928 7.96314 22.5967 7.72127C22.7006 7.47941 22.8517 7.26076 23.041 7.07788L23.0532 7.0657Z" fill="#2D373D"/>
</svg>
