<svg width="32" height="33" viewBox="0 0 32 33" fill="none" xmlns="http://www.w3.org/2000/svg">
<path fill-rule="evenodd" clip-rule="evenodd" d="M10.7326 21.739C7.85383 19.9728 5.93359 16.7963 5.93359 13.1714C5.93359 7.624 10.4306 3.12695 15.978 3.12695C21.5254 3.12695 26.0225 7.624 26.0225 13.1714C26.0225 16.7963 24.1023 19.9727 21.2236 21.739L22.7108 28.5813C22.7947 28.9673 22.6436 29.3664 22.3251 29.6C22.0066 29.8336 21.5804 29.8579 21.2375 29.6619L15.9781 26.6566L10.7187 29.6619C10.3757 29.8579 9.94959 29.8336 9.6311 29.6C9.31261 29.3664 9.16146 28.9673 9.24535 28.5813L10.7326 21.739ZM7.93359 13.1714C7.93359 8.72857 11.5352 5.12695 15.978 5.12695C20.4208 5.12695 24.0225 8.72857 24.0225 13.1714C24.0225 16.2805 22.2586 18.9777 19.677 20.3168C19.6474 20.3302 19.6187 20.3449 19.5909 20.3609C18.5046 20.9078 17.2773 21.2158 15.978 21.2158C14.6792 21.2158 13.4522 20.908 12.3661 20.3613C12.3378 20.345 12.3085 20.33 12.2783 20.3165C9.69711 18.9772 7.93359 16.2802 7.93359 13.1714ZM12.5859 22.6286L11.6769 26.8109L15.4819 24.6366C15.7894 24.4609 16.1668 24.4609 16.4742 24.6366L20.2793 26.8109L19.3702 22.6286C18.3106 23.0087 17.1685 23.2158 15.978 23.2158C14.7876 23.2158 13.6456 23.0087 12.5859 22.6286Z" fill="#2D373D"/>
<path fill-rule="evenodd" clip-rule="evenodd" d="M15.123 6.8975C15.3813 6.74185 15.6771 6.6596 15.9787 6.6596C16.2802 6.6596 16.576 6.74185 16.8343 6.8975C17.0926 7.05314 17.3035 7.27629 17.4444 7.54291L16.5602 8.01008L17.4519 7.55736L18.5422 9.70478H20.2508C20.5752 9.69983 20.8939 9.79132 21.1664 9.96782C21.443 10.147 21.6592 10.4056 21.7866 10.7096C21.914 11.0137 21.9467 11.3491 21.8804 11.672C21.8144 11.9934 21.6535 12.2875 21.4184 12.5164L19.7708 14.1352L20.6871 16.2415C20.8204 16.5595 20.8503 16.9114 20.7728 17.2474C20.6954 17.5833 20.5143 17.8865 20.2553 18.1141C19.9962 18.3416 19.6723 18.482 19.3291 18.5156C18.9887 18.5488 18.6465 18.4752 18.35 18.305L15.9781 16.9707L13.6062 18.305C13.3097 18.4752 12.9675 18.5488 12.6271 18.5156C12.2839 18.482 11.96 18.3416 11.7009 18.1141C11.4419 17.8865 11.2609 17.5833 11.1834 17.2474C11.1059 16.9114 11.136 16.5596 11.2692 16.2416L11.2746 16.2288L12.1865 14.1345L10.5375 12.5117C10.3026 12.2829 10.1418 11.9889 10.0758 11.6676C10.0095 11.3447 10.0422 11.0093 10.1696 10.7052C10.297 10.4012 10.5132 10.1427 10.7899 9.96343C11.0623 9.78694 11.381 9.69545 11.7054 9.70039H13.4147L14.5128 7.54286C14.6537 7.27623 14.8647 7.05314 15.123 6.8975ZM15.9783 9.07276L14.919 11.154C14.7484 11.4893 14.404 11.7004 14.0278 11.7004H12.5644L14.0791 13.191C14.3741 13.4814 14.4598 13.9235 14.2946 14.303L13.5333 16.0513L15.4878 14.9518C15.7923 14.7806 16.164 14.7806 16.4684 14.9518L18.4234 16.0516L17.6626 14.3027C17.4974 13.9229 17.5834 13.4807 17.8788 13.1905L19.3908 11.7048H17.9284C17.5519 11.7048 17.2072 11.4932 17.0368 11.1575L15.9783 9.07276ZM20.2847 11.7045C20.2817 11.7045 20.2788 11.7046 20.2758 11.7046L20.2847 11.7045ZM20.0203 11.0863L20.0241 11.0826ZM11.6716 11.7001L11.6804 11.7002C11.6775 11.7002 11.6745 11.7002 11.6716 11.7001Z" fill="#2D373D"/>
</svg>
