<svg width="64" height="64" viewBox="0 0 64 64" fill="none" xmlns="http://www.w3.org/2000/svg">
<path d="M21.3335 34.3333C21.3335 35.8061 20.1396 37 18.6668 37C17.1941 37 16.0002 35.8061 16.0002 34.3333C16.0002 32.8606 17.1941 31.6667 18.6668 31.6667C20.1396 31.6667 21.3335 32.8606 21.3335 34.3333Z" fill="#2D373D"/>
<path d="M32.0002 37C33.4729 37 34.6668 35.8061 34.6668 34.3333C34.6668 32.8606 33.4729 31.6667 32.0002 31.6667C30.5274 31.6667 29.3335 32.8606 29.3335 34.3333C29.3335 35.8061 30.5274 37 32.0002 37Z" fill="#2D373D"/>
<path d="M48.0002 34.3333C48.0002 35.8061 46.8063 37 45.3335 37C43.8607 37 42.6668 35.8061 42.6668 34.3333C42.6668 32.8606 43.8607 31.6667 45.3335 31.6667C46.8063 31.6667 48.0002 32.8606 48.0002 34.3333Z" fill="#2D373D"/>
<path d="M18.6668 46.3333C20.1396 46.3333 21.3335 45.1394 21.3335 43.6667C21.3335 42.1939 20.1396 41 18.6668 41C17.1941 41 16.0002 42.1939 16.0002 43.6667C16.0002 45.1394 17.1941 46.3333 18.6668 46.3333Z" fill="#2D373D"/>
<path d="M34.6668 43.6667C34.6668 45.1394 33.4729 46.3333 32.0002 46.3333C30.5274 46.3333 29.3335 45.1394 29.3335 43.6667C29.3335 42.1939 30.5274 41 32.0002 41C33.4729 41 34.6668 42.1939 34.6668 43.6667Z" fill="#2D373D"/>
<path d="M45.3335 46.3333C46.8063 46.3333 48.0002 45.1394 48.0002 43.6667C48.0002 42.1939 46.8063 41 45.3335 41C43.8607 41 42.6668 42.1939 42.6668 43.6667C42.6668 45.1394 43.8607 46.3333 45.3335 46.3333Z" fill="#2D373D"/>
<path fill-rule="evenodd" clip-rule="evenodd" d="M23.3335 11C23.3335 9.89543 22.4381 9 21.3335 9C20.2289 9 19.3335 9.89543 19.3335 11V11.6667H7.13355C6.13941 11.6667 5.3335 12.4726 5.3335 13.4667V52.5333C5.3335 53.5274 6.13941 54.3333 7.13355 54.3333H56.8668C57.8609 54.3333 58.6668 53.5274 58.6668 52.5333V13.4667C58.6668 12.4726 57.8609 11.6667 56.8668 11.6667H44.6668V11C44.6668 9.89543 43.7714 9 42.6668 9C41.5623 9 40.6668 9.89543 40.6668 11V11.6667H23.3335V11ZM9.3335 15.6667H19.3335V15.8003C19.3335 16.9049 20.2289 17.8003 21.3335 17.8003C22.4381 17.8003 23.3335 16.9049 23.3335 15.8003V15.6667H40.6668V15.8003C40.6668 16.9049 41.5623 17.8003 42.6668 17.8003C43.7714 17.8003 44.6668 16.9049 44.6668 15.8003V15.6667H54.6668V23.6667L9.3335 23.6667V15.6667ZM9.3335 27.6667V50.3333H54.6668V27.6667L9.3335 27.6667Z" fill="#2D373D"/>
</svg>
