<svg width="24" height="25" viewBox="0 0 24 25" fill="none" xmlns="http://www.w3.org/2000/svg">
<path fill-rule="evenodd" clip-rule="evenodd" d="M12.7952 3.46094H4.86867C4.37307 3.46094 3.89776 3.65781 3.54732 4.00826C3.19688 4.3587 3 4.834 3 5.3296V19.8723C3 20.3679 3.19688 20.8432 3.54732 21.1936C3.89776 21.5441 4.37307 21.7409 4.86867 21.7409H7.106C7.52021 21.7409 7.856 21.4052 7.856 20.9909C7.856 20.5767 7.52021 20.2409 7.106 20.2409H4.86867C4.77089 20.2409 4.67712 20.2021 4.60798 20.133C4.53884 20.0638 4.5 19.97 4.5 19.8723V5.3296C4.5 5.23183 4.53884 5.13806 4.60798 5.06892C4.67712 4.99978 4.77089 4.96094 4.86867 4.96094H11.9493V8.6856C11.9493 9.1812 12.1462 9.65651 12.4967 10.0069C12.8471 10.3574 13.3224 10.5543 13.818 10.5543H17.5427V13.1603C17.5427 13.5745 17.8785 13.9103 18.2927 13.9103C18.7069 13.9103 19.0427 13.5745 19.0427 13.1603V9.80758L19.0427 9.80427L19.0427 9.80096V9.70791C19.0426 9.21265 18.8457 8.73757 18.4956 8.38726L14.117 4.00783C13.9434 3.83434 13.7373 3.69674 13.5105 3.6029C13.2838 3.50911 13.0405 3.46087 12.7952 3.46094ZM13.4493 5.46159L17.0414 9.05427H13.818C13.7202 9.05427 13.6265 9.01543 13.5573 8.94629C13.4882 8.87715 13.4493 8.78338 13.4493 8.6856V5.46159Z" fill="#2D373D"/>
<path d="M14.6595 15.1942C14.526 14.8604 14.1743 14.6683 13.8213 14.7363C13.4683 14.8043 13.2131 15.1133 13.2131 15.4728V20.7165C13.2131 21.1308 13.5489 21.4665 13.9631 21.4665C14.3773 21.4665 14.7131 21.1308 14.7131 20.7165V19.3672L15.3643 20.9951C15.4978 21.3289 15.8494 21.521 16.2025 21.453C16.5555 21.385 16.8106 21.0761 16.8106 20.7165V15.4728C16.8106 15.0586 16.4748 14.7228 16.0606 14.7228C15.6464 14.7228 15.3106 15.0586 15.3106 15.4728V16.8221L14.6595 15.1942Z" fill="#2D373D"/>
<path fill-rule="evenodd" clip-rule="evenodd" d="M11.9352 18.6886C11.553 19.0708 11.0514 19.306 10.5181 19.358V20.7165C10.5181 21.1307 10.1823 21.4665 9.76813 21.4665C9.35391 21.4665 9.01813 21.1307 9.01813 20.7165V15.4728C9.01813 15.0586 9.35391 14.7228 9.76813 14.7228H10.2925C10.9086 14.7228 11.4995 14.9675 11.9352 15.4032C12.3709 15.8389 12.6156 16.4298 12.6156 17.0459C12.6156 17.662 12.3709 18.2529 11.9352 18.6886ZM10.5181 16.2543V17.8375C10.6516 17.7994 10.7746 17.7278 10.8745 17.6279C11.0289 17.4736 11.1156 17.2642 11.1156 17.0459C11.1156 16.8276 11.0289 16.6182 10.8745 16.4639C10.7746 16.3639 10.6516 16.2923 10.5181 16.2543Z" fill="#2D373D"/>
<path d="M19.2069 16.2228C19.1277 16.2228 19.0517 16.2543 18.9956 16.3103C18.9396 16.3664 18.9081 16.4424 18.9081 16.5216V19.6678C18.9081 19.7471 18.9396 19.8231 18.9956 19.8791C19.0517 19.9351 19.1277 19.9666 19.2069 19.9666C19.2861 19.9666 19.3621 19.9351 19.4181 19.8791C19.4742 19.8231 19.5056 19.7471 19.5056 19.6678V19.3346C19.2017 19.2388 18.9813 18.9547 18.9813 18.6191C18.9813 18.2049 19.3171 17.8691 19.7313 17.8691H20.2556C20.6699 17.8691 21.0056 18.2049 21.0056 18.6191V19.6678C21.0056 20.1449 20.8161 20.6024 20.4788 20.9397C20.1415 21.2771 19.684 21.4666 19.2069 21.4666C18.7298 21.4666 18.2723 21.2771 17.935 20.9397C17.5977 20.6024 17.4081 20.1449 17.4081 19.6678V16.5216C17.4081 16.0445 17.5977 15.587 17.935 15.2497C18.2723 14.9124 18.7298 14.7228 19.2069 14.7228H20.2556C20.6699 14.7228 21.0056 15.0586 21.0056 15.4728C21.0056 15.8871 20.6699 16.2228 20.2556 16.2228H19.2069Z" fill="#2D373D"/>
</svg>
