<svg width="64" height="64" viewBox="0 0 64 64" fill="none" xmlns="http://www.w3.org/2000/svg">
<path fill-rule="evenodd" clip-rule="evenodd" d="M32.0012 5.2002C17.1999 5.2002 5.20117 17.199 5.20117 32.0002C5.20117 46.8014 17.1999 58.8002 32.0012 58.8002C46.8024 58.8002 58.8012 46.8014 58.8012 32.0002C58.8012 17.199 46.8024 5.2002 32.0012 5.2002ZM30.0007 9.28675C19.0045 10.2426 10.2433 19.0039 9.28769 30.0002H18.6673C19.7719 30.0002 20.6673 30.8956 20.6673 32.0002C20.6673 33.1047 19.7719 34.0002 18.6673 34.0002H9.28768C10.2433 44.9964 19.0045 53.7578 30.0007 54.7136V45.3335C30.0007 44.2289 30.8961 43.3335 32.0007 43.3335C33.1052 43.3335 34.0007 44.2289 34.0007 45.3335V54.7137C44.9973 53.7583 53.759 44.9968 54.7147 34.0002H45.334C44.2294 34.0002 43.334 33.1047 43.334 32.0002C43.334 30.8956 44.2294 30.0002 45.334 30.0002H54.7147C53.759 19.0036 44.9973 10.2421 34.0007 9.28666V18.6668C34.0007 19.7714 33.1052 20.6668 32.0007 20.6668C30.8961 20.6668 30.0007 19.7714 30.0007 18.6668V9.28675Z" fill="#2D373D"/>
</svg>
