<svg width="24" height="25" viewBox="0 0 24 25" fill="none" xmlns="http://www.w3.org/2000/svg">
<path fill-rule="evenodd" clip-rule="evenodd" d="M11.9995 2.92188C16.0667 2.92209 20.9995 3.92187 20.9995 5.92178V12.9218C20.9995 18.4219 15.9995 22.922 11.9995 22.9219C7.99951 22.9218 2.99951 18.4218 2.99951 12.9218V5.92167C2.99951 3.92167 7.93231 2.92166 11.9995 2.92188ZM11.9994 12.2623C11.9793 12.2623 11.5973 11.5126 11.1482 10.5955L10.3306 8.92188H7.7771V15.7501H10.3239L10.3373 14.0966L10.3574 12.4364L11.1817 14.1033L11.9994 15.7702L12.8237 14.1033L13.6414 12.4364L13.6615 14.0899L13.6749 15.7501H16.2217V8.92188H14.9349L13.6414 8.92857L12.8371 10.5955C12.3948 11.5126 12.0195 12.2623 11.9994 12.2623Z" fill="#2D373D"/>
</svg>
