<svg width="32" height="33" viewBox="0 0 32 33" fill="none" xmlns="http://www.w3.org/2000/svg">
<path d="M26.8698 5.61052C26.5151 5.24837 26.092 4.96023 25.6251 4.76283C25.1582 4.56542 24.6567 4.46266 24.1498 4.46052C23.4442 4.45837 22.7518 4.65224 22.1498 5.02052C21.9752 4.90818 21.7912 4.81115 21.5998 4.73052C21.1247 4.53194 20.6148 4.42969 20.0998 4.42969C19.5848 4.42969 19.075 4.53194 18.5998 4.73052C18.1312 4.92965 17.7039 5.21453 17.3398 5.57052L14.3398 8.57052C14.1515 8.75883 14.0457 9.01422 14.0457 9.28052C14.0457 9.54682 14.1515 9.80222 14.3398 9.99052C14.5281 10.1788 14.7835 10.2846 15.0498 10.2846C15.3161 10.2846 15.5715 10.1788 15.7598 9.99052L18.7598 6.99052C18.9314 6.81633 19.1352 6.67709 19.3598 6.58052C19.7186 6.42475 20.1165 6.38286 20.4998 6.46052L17.8698 9.13052L8.72982 18.2605C8.50339 18.4859 8.32401 18.754 8.20212 19.0492C8.08024 19.3445 8.01827 19.6611 8.01982 19.9805C8.02211 20.1692 8.04559 20.3571 8.08982 20.5405C7.54591 20.6859 7.05167 20.9762 6.65982 21.3805C5.65982 22.3805 4.77982 25.7105 4.52982 26.7205C4.49273 26.8703 4.49079 27.0265 4.52414 27.1772C4.55749 27.3278 4.62524 27.4686 4.72208 27.5887C4.81891 27.7088 4.94222 27.8048 5.08235 27.8693C5.22248 27.9338 5.37563 27.965 5.52982 27.9605C5.60613 27.9709 5.68351 27.9709 5.75982 27.9605C6.75982 27.7205 10.1498 26.8505 11.1298 25.8705C11.5392 25.4691 11.8328 24.9647 11.9798 24.4105C12.1536 24.4507 12.3314 24.4709 12.5098 24.4705C12.8318 24.4709 13.1508 24.4098 13.4498 24.2905C13.7417 24.166 14.0066 23.986 14.2298 23.7605L26.8898 11.0605C27.6109 10.3346 28.0169 9.35372 28.0198 8.33052C28.0171 7.82368 27.9141 7.32239 27.7167 6.85555C27.5194 6.38872 27.2315 5.96557 26.8698 5.61052ZM9.69982 24.4605C8.83933 24.9664 7.90949 25.3437 6.93982 25.5805C7.17529 24.6104 7.55987 23.6827 8.07982 22.8305C8.18616 22.7135 8.31587 22.6201 8.46056 22.5564C8.60526 22.4927 8.76171 22.46 8.91982 22.4605C9.21903 22.4593 9.50791 22.5698 9.72982 22.7705C9.94044 22.9983 10.052 23.3005 10.0398 23.6105C10.0426 23.7677 10.014 23.9239 9.95561 24.0698C9.89723 24.2158 9.81026 24.3486 9.69982 24.4605ZM12.7898 22.3605C12.7496 22.3996 12.702 22.4302 12.6498 22.4505C12.5984 22.4753 12.542 22.4882 12.4848 22.4882C12.4277 22.4882 12.3713 22.4753 12.3198 22.4505C12.2664 22.4326 12.2183 22.4017 12.1798 22.3605L11.1798 21.3605L10.1798 20.3605C10.137 20.3214 10.1031 20.2734 10.0807 20.2198C10.0582 20.1663 10.0477 20.1085 10.0498 20.0505C10.0485 19.9941 10.0594 19.938 10.0819 19.8862C10.1043 19.8344 10.1377 19.7881 10.1798 19.7505L18.5998 11.3305L21.2398 13.9705L12.7898 22.3605ZM25.4698 9.65052L22.6298 12.4605L20.0198 9.85052L22.8198 7.01052C23.1677 6.66289 23.638 6.46545 24.1298 6.46052C24.3731 6.45893 24.6143 6.50587 24.8392 6.59859C25.0641 6.69131 25.2683 6.82795 25.4398 7.00052C25.7861 7.35061 25.9803 7.82313 25.9803 8.31552C25.9803 8.80792 25.7861 9.28044 25.4398 9.63052L25.4698 9.65052Z" fill="#2D373D"/>
</svg>
