<svg width="64" height="65" viewBox="0 0 64 65" fill="none" xmlns="http://www.w3.org/2000/svg">
<path fill-rule="evenodd" clip-rule="evenodd" d="M46.964 12.1027C42.7726 10.8995 37.1624 10.2581 32.0003 10.2578C26.8383 10.2575 21.2283 10.8988 17.037 12.102C14.9159 12.7109 13.4228 13.3901 12.5473 14.0143C12.2411 14.2326 12.0799 14.3899 12.0005 14.4823V32.9242C12.0005 39.0321 14.7886 44.7436 18.8781 48.9792C23.0316 53.281 28.0558 55.591 32.0006 55.5911C35.9452 55.5913 40.9694 53.2814 45.1229 48.9795C49.2123 44.7439 52.0005 39.0323 52.0005 32.9242V14.4827C51.9211 14.3904 51.7599 14.2331 51.4538 14.0149C50.5782 13.3907 49.0851 12.7116 46.964 12.1027ZM52.0687 14.5799C52.0687 14.5799 52.0589 14.5681 52.0485 14.5438C52.0652 14.5677 52.0687 14.5799 52.0687 14.5799ZM11.9323 14.5794C11.9323 14.5794 11.9359 14.5672 11.9525 14.5433C11.9422 14.5675 11.9323 14.5794 11.9323 14.5794ZM32.0005 6.25781C42.8464 6.25837 56.0005 8.92448 56.0005 14.2576V32.9242C56.0005 47.5911 42.6671 59.5914 32.0005 59.5911C21.3338 59.5908 8.00049 47.5908 8.00049 32.9242V14.2573C8.00049 8.92393 21.1546 6.25725 32.0005 6.25781Z" fill="#2D373D"/>
<path d="M38.6005 24.7245L28.4005 34.9245L25.4005 31.9245C24.6005 31.1245 23.4005 31.1245 22.6005 31.9245C21.8005 32.7245 21.8005 33.9245 22.6005 34.7245L26.0005 38.1245C26.6005 38.7245 27.6005 39.1245 28.4005 39.1245C29.4005 39.1245 30.2005 38.7245 30.8005 38.1245L41.4005 27.5245C42.2005 26.7245 42.2005 25.5245 41.4005 24.7245C40.6005 23.9245 39.4005 23.9245 38.6005 24.7245Z" fill="#2D373D"/>
</svg>
