<svg width="24" height="24" viewBox="0 0 24 24" fill="none" xmlns="http://www.w3.org/2000/svg">
<path d="M20.7748 19.7999L16.1248 15.1499C16.5748 14.5499 16.9498 13.9499 17.2498 13.1999C17.9998 11.3249 17.9248 9.29994 17.1748 7.49994C16.4248 5.69994 14.9998 4.27494 13.1248 3.52494C11.2498 2.77494 9.22481 2.84994 7.42481 3.59994C3.67481 5.24994 1.94981 9.59994 3.52481 13.3499C4.72481 16.1249 7.42481 17.8499 10.3498 17.8499C11.3248 17.8499 12.2998 17.6249 13.2748 17.2499C13.9498 16.9499 14.5498 16.6499 15.0748 16.1999L19.7248 20.8499C19.8748 20.9999 20.0248 21.0749 20.2498 21.0749C20.4748 21.0749 20.6248 20.9999 20.7748 20.8499C21.0748 20.5499 21.0748 20.0999 20.7748 19.7999ZM12.6748 15.8999C9.67481 17.1749 6.14981 15.7499 4.87481 12.7499C3.59981 9.74994 5.02481 6.22494 8.02481 5.09994C9.44981 4.42494 11.0248 4.42494 12.5248 5.02494C13.9498 5.62494 15.1498 6.74994 15.7498 8.17494C16.4248 9.59994 16.4248 11.1749 15.8248 12.6749C15.2248 14.0999 14.0998 15.2999 12.6748 15.8999Z" fill="#2D373D"/>
</svg>
