<svg width="32" height="32" viewBox="0 0 32 32" fill="none" xmlns="http://www.w3.org/2000/svg">
<path d="M26.6001 26C25.3001 26.2 24.0001 25.7 23.0001 24.8C22.8001 24.6 22.6001 24.5 22.3001 24.5C22.0001 24.5 21.8001 24.6 21.6001 24.8C21.6001 24.8 21.5001 24.9 21.4001 25C20.0001 26.3 17.8001 26.2 16.5001 24.8C16.4001 24.6 16.1001 24.5 15.8001 24.5C15.6001 24.5 15.3001 24.6 15.1001 24.8C15.1001 24.8 15.0001 24.9 14.9001 25C13.5001 26.3 11.3001 26.2 10.0001 24.8C9.80008 24.6 9.60008 24.5 9.30008 24.5C9.10008 24.5 8.80008 24.6 8.60008 24.8C7.60008 25.7 6.30008 26.2 5.00008 26C4.50008 26 4.00008 26.4 3.90008 26.9C3.80008 27.5 4.20008 28 4.80008 28.1C5.10008 28.1 5.30008 28.1 5.60008 28.1C6.90008 28.1 8.20008 27.7 9.00008 26.9C11.0001 28.4 13.7001 28.4 15.7001 26.9C16.5001 27.6 17.6001 27.9 18.7001 28C20.0001 28.1 21.3001 27.7 22.3001 26.9C23.6001 27.8 25.2001 28.2 26.8001 28C27.4001 27.9 27.8001 27.4 27.7001 26.9C27.6001 26.3 27.1001 25.9 26.6001 26Z" fill="#2D373D"/>
<path d="M27.9 21.3C27.8 20.8 27.4 20.5 27 20.3C26.8 20.2 26.5 20.2 26.3 20.2H16.1V6.10002C16.1 4.90002 15.1 3.90002 13.9 3.90002C13.2 3.90002 12.6 4.30002 12.1 4.90002L5.50002 15C5.00002 15.8 5.20002 16.9 6.00002 17.4C6.30002 17.6 6.60002 17.7 7.00002 17.7H14.2V20.2H5.60002C5.20002 20.2 4.70002 20.4 4.40002 20.7C4.10002 21 3.90002 21.4 3.90002 21.9C3.90002 22.1 4.00002 22.4 4.10002 22.6C4.50002 23.6 5.20002 24.5 6.10002 25.2C6.30002 25.3 6.50002 25.4 6.70002 25.4C7.00002 25.4 7.30002 25.3 7.60002 25.1C7.90002 24.7 7.80002 24 7.40002 23.7C6.90002 23.3 6.40002 22.8 6.10002 22.2H26C25.7 22.6 25.4 23 25 23.4C24.6 23.8 24.5 24.4 24.9 24.8C25.3 25.2 25.9 25.3 26.3 24.9C26.9 24.2 27.5 23.5 27.9 22.6C28.1 22.2 28.1 21.7 27.9 21.3ZM7.50002 15.7L13.8 6.00002C13.8 5.90002 13.9 5.90002 14 5.90002C14.1 5.90002 14.2 6.00002 14.2 6.10002V15.7H7.50002Z" fill="#2D373D"/>
<path d="M18.2001 19.2H23.5001C24.4001 19.2 25.2001 18.4 25.3001 17.4C25.3001 17.1 25.2001 16.8 25.0001 16.5L20.4001 9.40004C19.9001 8.60004 18.8001 8.40004 18.0001 8.90004C17.5001 9.30004 17.2001 9.80004 17.2001 10.4V18.2C17.2001 18.8 17.6001 19.2 18.2001 19.2ZM19.2001 11.3L23.0001 17.2H19.2001V11.3Z" fill="#2D373D"/>
</svg>
