<svg width="64" height="65" viewBox="0 0 64 65" fill="none" xmlns="http://www.w3.org/2000/svg">
<path d="M40.6004 20.8612C40.6004 16.0612 36.8004 12.2612 32.0004 12.2612C27.2004 12.2612 23.4004 16.0612 23.4004 20.8612C23.4004 25.6612 27.2004 29.4612 32.0004 29.4612C36.6004 29.4612 40.6004 25.6612 40.6004 20.8612ZM27.4004 20.8612C27.4004 18.2612 29.4004 16.2612 32.0004 16.2612C34.4004 16.2612 36.6004 18.2612 36.6004 20.8612C36.6004 23.4612 34.6004 25.4612 32.0004 25.4612C29.4004 25.4612 27.4004 23.4612 27.4004 20.8612Z" fill="#2D373D"/>
<path d="M29.8006 44.2611C30.4006 44.8611 31.2006 45.0611 32.0006 45.0611C33.0006 45.0611 34.0006 44.6611 34.8006 43.6611C39.4006 37.8611 47.2006 27.0611 47.2006 20.8611C47.2006 12.4611 40.4006 5.66113 32.0006 5.66113C23.6006 5.66113 16.6006 12.4611 16.6006 20.8611C16.6006 27.0611 24.4006 37.8611 29.2006 43.6611C29.4006 43.8611 29.6006 44.0611 29.8006 44.2611ZM32.0006 9.66113C38.2006 9.66113 43.2006 14.6611 43.0006 20.8611C43.0006 25.0611 37.2006 33.8611 31.8006 40.8611C24.8006 32.0611 20.6006 24.4611 20.6006 20.8611C20.6006 14.6611 25.8006 9.66113 32.0006 9.66113Z" fill="#2D373D"/>
<path d="M35.6004 54.061C35.6004 53.061 35.2004 52.461 34.4004 52.261L31.6004 49.461C30.8004 48.661 29.6004 48.661 28.8004 49.461C28.2004 50.061 28.0004 51.061 28.6004 51.861C18.8004 51.061 12.4004 47.461 12.4004 44.061C12.4004 42.261 14.4004 40.261 17.8004 38.661C18.8004 38.261 19.2004 37.061 18.8004 36.061C18.4004 35.061 17.2004 34.661 16.2004 35.061C11.2004 37.261 8.40039 40.461 8.40039 44.061C8.40039 50.261 17.0004 55.261 28.8004 55.861C28.0004 56.661 28.0004 57.861 28.8004 58.661C29.2004 59.061 29.6004 59.261 30.2004 59.261C30.8004 59.261 31.2004 59.061 31.6004 59.061L35.0004 55.661C35.6004 55.261 35.6004 54.661 35.6004 54.061Z" fill="#2D373D"/>
<path d="M47.4003 35.061C46.4003 34.661 45.2003 35.061 44.8003 36.061C44.4003 37.061 44.8003 38.261 45.8003 38.661C49.2003 40.261 51.2003 42.261 51.2003 44.061C51.2003 46.661 47.2003 49.461 41.2003 50.861C40.2003 51.061 39.6003 52.261 39.8003 53.261C40.0003 54.261 40.8003 54.861 41.8003 54.861H42.0003C50.2003 52.861 55.2003 48.861 55.2003 44.061C55.2003 40.461 52.4003 37.261 47.4003 35.061Z" fill="#2D373D"/>
</svg>
