<svg width="16" height="17" viewBox="0 0 16 17" fill="none" xmlns="http://www.w3.org/2000/svg">
<path fill-rule="evenodd" clip-rule="evenodd" d="M7.76041 2.75782C7.76041 2.59551 7.68162 2.4433 7.5491 2.34958C7.41658 2.25586 7.24681 2.23231 7.09378 2.2864C5.90775 2.70561 4.83448 3.85167 4.83448 5.27279C4.83448 6.59305 5.59376 7.74687 6.76694 8.21664L6.76773 10.9245H2.3335L2.3335 6.52446C2.3335 6.10105 2.67673 5.75781 3.10014 5.75781L4.00015 5.75781C4.27629 5.75781 4.50015 5.53395 4.50015 5.25781C4.50015 4.98167 4.27629 4.75781 4.00015 4.75781H3.10014C2.12445 4.75781 1.3335 5.54877 1.3335 6.52446V11.8248C1.3335 12.8003 2.12422 13.5912 3.09976 13.5914L6.61509 13.5922L6.25546 14.5911H5.3335C5.05736 14.5911 4.8335 14.815 4.8335 15.0911C4.8335 15.3673 5.05736 15.5911 5.3335 15.5911H10.6668C10.943 15.5911 11.1668 15.3673 11.1668 15.0911C11.1668 14.815 10.943 14.5911 10.6668 14.5911H9.74488L9.38547 13.5928L12.8998 13.5935C13.8756 13.5937 14.6668 12.8027 14.6668 11.8269V6.52446C14.6668 5.54877 13.8759 4.75781 12.9002 4.75781H12.0002C11.724 4.75781 11.5002 4.98167 11.5002 5.25781C11.5002 5.53395 11.724 5.75781 12.0002 5.75781H12.9002C13.3236 5.75781 13.6668 6.10105 13.6668 6.52446V10.9245H9.24907L9.2471 8.2164C10.4205 7.74566 11.1678 6.58993 11.1678 5.27279C11.1678 3.85167 10.0945 2.70561 8.90851 2.2864C8.75548 2.23231 8.58572 2.25586 8.45319 2.34958C8.32067 2.4433 8.24189 2.59551 8.24189 2.75782V4.68018C8.24189 4.73395 8.234 4.86528 8.18615 4.96651C8.16545 5.01029 8.14534 5.03081 8.13065 5.04107C8.12012 5.04842 8.08716 5.06909 8.00115 5.06909C7.91467 5.06909 7.88149 5.04837 7.87098 5.04105C7.85642 5.03092 7.83651 5.01069 7.81599 4.96735C7.7684 4.86688 7.76041 4.73595 7.76041 4.68018V2.75782ZM8.32256 13.5925L7.67783 13.5924L7.31828 14.5911H8.68205L8.32256 13.5925ZM8.24907 10.9245H7.76773L7.76684 7.85509C7.76677 7.62707 7.61245 7.42798 7.39165 7.37106C6.47623 7.13508 5.83448 6.30107 5.83448 5.27279C5.83448 4.61452 6.21184 3.99446 6.76041 3.58607V4.68018C6.76041 4.77573 6.76723 5.08925 6.91223 5.3954C6.988 5.55537 7.10884 5.729 7.29983 5.8619C7.49487 5.99761 7.73207 6.06909 8.00115 6.06909C8.27069 6.06909 8.5081 5.99716 8.70312 5.86099C8.89399 5.72773 9.01462 5.55381 9.09022 5.39388C9.23496 5.08769 9.24189 4.77457 9.24189 4.68018V3.58607C9.79045 3.99446 10.1678 4.61452 10.1678 5.27279C10.1678 6.30455 9.53422 7.1359 8.62202 7.37106C8.40104 7.42803 8.24667 7.62739 8.24684 7.8556L8.24907 10.9245ZM3.09998 12.5914C2.71043 12.5913 2.38878 12.3007 2.33992 11.9245H13.6607C13.6127 12.3019 13.2904 12.5936 12.9 12.5935L3.09998 12.5914Z" fill="#2D373D"/>
</svg>
