<svg width="24" height="25" viewBox="0 0 24 25" fill="none" xmlns="http://www.w3.org/2000/svg">
<path fill-rule="evenodd" clip-rule="evenodd" d="M6.50002 3.92383C6.0858 3.92383 5.75002 4.25961 5.75002 4.67383C5.75002 6.14106 6.5004 7.42263 7.5398 8.32385H4.85C4.35935 8.32385 3.88879 8.51876 3.54185 8.8657C3.19491 9.21265 3 9.6832 3 10.1739V11.8239C3 12.1686 3.13696 12.4993 3.38076 12.7431C3.5769 12.9392 3.82927 13.0662 4.09998 13.1084V20.0739C4.09998 20.5645 4.29489 21.0351 4.64184 21.382C4.98878 21.729 5.45933 21.9239 5.94998 21.9239H18.05C18.5406 21.9239 19.0112 21.729 19.3581 21.382C19.7051 21.0351 19.9 20.5645 19.9 20.0739V13.1084C20.1707 13.0662 20.4231 12.9392 20.6192 12.7431C20.863 12.4993 21 12.1686 21 11.8239V10.1739C21 9.6832 20.8051 9.21265 20.4581 8.8657C20.1112 8.51876 19.6407 8.32385 19.15 8.32385H16.4602C17.4996 7.42263 18.25 6.14106 18.25 4.67383C18.25 4.25961 17.9142 3.92383 17.5 3.92383C16.0912 3.92383 14.6844 4.49016 13.627 5.3918C12.8905 6.01982 12.2945 6.83748 12 7.77685C11.7055 6.83748 11.1095 6.01982 10.373 5.3918C9.31567 4.49016 7.90881 3.92383 6.50002 3.92383ZM14.6003 6.53316C15.1783 6.04031 15.8876 5.68605 16.6176 5.52349C16.4204 6.15204 16.0116 6.73534 15.4497 7.2145C14.8717 7.70735 14.1624 8.06161 13.4324 8.22417C13.6296 7.59562 14.0384 7.01232 14.6003 6.53316ZM8.55031 7.2145C9.12827 7.70735 9.83759 8.06161 10.5676 8.22417C10.3704 7.59562 9.96163 7.01232 9.39972 6.53316C8.82176 6.04031 8.11244 5.68605 7.38244 5.52348C7.57963 6.15204 7.9884 6.73534 8.55031 7.2145ZM4.85 9.82385C4.75717 9.82385 4.66815 9.86073 4.60251 9.92636C4.53687 9.992 4.5 10.081 4.5 10.1739V11.6239H9.59999V9.82385H4.85ZM12.9 9.82385H11.1V11.6239H12.9V9.82385ZM14.4 11.6239V9.82385H19.15C19.2428 9.82385 19.3318 9.86073 19.3975 9.92636C19.4631 9.992 19.5 10.081 19.5 10.1739V11.6239H14.4ZM12.9 13.1239H11.1V20.4239H12.9V13.1239ZM9.59999 13.1239H5.59998V20.0739C5.59998 20.1667 5.63686 20.2557 5.7025 20.3214C5.76813 20.387 5.85716 20.4239 5.94998 20.4239H9.59999V13.1239ZM14.4 20.4239V13.1239H18.4V20.0739C18.4 20.1667 18.3631 20.2557 18.2975 20.3214C18.2318 20.387 18.1428 20.4239 18.05 20.4239H14.4Z" fill="#2D373D"/>
</svg>
