<svg width="64" height="65" viewBox="0 0 64 65" fill="none" xmlns="http://www.w3.org/2000/svg">
<path d="M33.5345 32.4617L42.7345 23.2617C43.5345 22.4617 43.5345 21.2617 42.7345 20.4617C41.9345 19.6617 40.7345 19.6617 39.9345 20.4617L29.3345 31.0617C28.5345 31.8617 28.5345 33.0617 29.3345 33.8617L39.9345 44.6617C40.3345 45.0617 40.7345 45.2617 41.3345 45.2617C41.9345 45.2617 42.3345 45.0617 42.7345 44.6617C43.5345 43.8617 43.5345 42.6617 42.7345 41.8617L33.5345 32.4617Z" fill="#2D373D"/>
<path fill-rule="evenodd" clip-rule="evenodd" d="M21.3335 19.7949C22.4381 19.7949 23.3335 20.6904 23.3335 21.7949V43.1283C23.3335 44.2328 22.4381 45.1283 21.3335 45.1283C20.2289 45.1283 19.3335 44.2328 19.3335 43.1283V21.7949C19.3335 20.6904 20.2289 19.7949 21.3335 19.7949Z" fill="#2D373D"/>
</svg>
