<svg width="16" height="17" viewBox="0 0 16 17" fill="none" xmlns="http://www.w3.org/2000/svg">
<path d="M13.75 3.21169C13.45 2.81169 12.95 2.51169 12.45 2.41169C11.9 2.36169 11.4 2.46169 10.95 2.76169C10.85 2.86169 10.75 2.91169 10.7 2.96169L9.25 4.41169L4.95 3.31169C4.55 3.21169 4.1 3.31169 3.8 3.61169L3.45 3.96169C3.2 4.21169 3.05 4.56169 3.05 4.86169C3.05 5.16169 3.2 5.46169 3.45 5.71169C3.5 5.81169 3.6 5.86169 3.65 5.91169L6.25 7.51169L4.45 9.56169H3.95C3.6 9.51169 3.2 9.61169 2.95 9.86169L2.2 10.5617C1.85 10.9117 1.85 11.4617 2.2 11.8117C2.3 11.8617 2.35 11.9117 2.45 11.9617L3.8 12.7117L4.65 14.0617C4.75 14.2117 4.9 14.3617 5.1 14.4617C5.2 14.5117 5.3 14.5117 5.4 14.5117C5.5 14.5117 5.6 14.4617 5.7 14.4117C5.8 14.4117 5.9 14.3117 6.05 14.2117L6.7 13.6117C7 13.3617 7.15 12.9617 7.1 12.5617V12.0617L9.1 10.2117L10.65 12.8117C10.8 13.0617 11.1 13.2617 11.4 13.3617C11.75 13.4117 12.05 13.3617 12.35 13.2117C12.4 13.1617 12.5 13.1117 12.55 13.0617C12.6 13.0117 12.6 13.0117 12.6 13.0117L12.95 12.6617C13.25 12.3617 13.35 11.8617 13.25 11.4617L12.1 7.16169L13.45 5.81169C14.2 5.16169 14.3 4.06169 13.75 3.21169ZM12.65 5.06169L11.05 6.66169C10.9 6.81169 10.85 7.01169 10.9 7.16169L12.1 11.7117C12.15 11.8117 12.1 11.9117 12.05 11.9617L11.75 12.2617C11.75 12.3117 11.7 12.3117 11.7 12.3117C11.6 12.3617 11.55 12.3617 11.5 12.3617C11.45 12.3617 11.4 12.3117 11.35 12.2617L9.5 9.16169C9.45 9.01169 9.3 8.91169 9.15 8.91169C9 8.91169 8.85 8.96169 8.75 9.06169L6.15 11.5117C6.05 11.6117 6 11.7117 6 11.8617V12.6117C6 12.6617 6 12.6617 6 12.7117C6.05 12.7617 6 12.8617 5.95 12.9117L5.4 13.4117L4.55 12.0617C4.5 12.0117 4.4 11.9617 4.35 11.9117L3.05 11.1617L3.7 10.5617C3.75 10.5117 3.85 10.5117 3.9 10.5117C3.95 10.5117 3.95 10.5117 4 10.5117H4.75C4.85 10.5117 5 10.4617 5.1 10.3617L7.45 7.66169C7.55 7.56169 7.55 7.41169 7.55 7.26169C7.5 7.11169 7.45 7.01169 7.3 6.91169L4.15 5.06169L4.1 5.01169C4.05 4.96169 4.05 4.91169 4.05 4.86169C4.05 4.81169 4.05 4.71169 4.15 4.66169L4.45 4.31169C4.55 4.26169 4.6 4.26169 4.7 4.26169L9.15 5.41169C9.35 5.46169 9.5 5.41169 9.65 5.26169L11.3 3.61169C11.35 3.56169 11.4 3.56169 11.45 3.51169C11.7 3.36169 11.95 3.31169 12.2 3.36169C12.45 3.41169 12.65 3.56169 12.8 3.76169C13.1 4.16169 13 4.71169 12.65 5.06169Z" fill="#2D373D"/>
</svg>
