<svg width="64" height="64" viewBox="0 0 64 64" fill="none" xmlns="http://www.w3.org/2000/svg">
<path d="M56.6007 10.5993H44.4007V9.79932C44.4007 8.59932 43.6007 7.79932 42.4007 7.79932C41.2007 7.79932 40.4007 8.59932 40.4007 9.79932V10.5993H23.4007V9.79932C23.4007 8.59932 22.6007 7.79932 21.4007 7.79932C20.2007 7.79932 19.4007 8.59932 19.4007 9.79932V10.5993H7.20068C6.00068 10.5993 5.20068 11.3993 5.20068 12.5993V51.3993C5.20068 52.5993 6.00068 53.3993 7.20068 53.3993H56.6007C57.8007 53.3993 58.6007 52.5993 58.6007 51.5993V12.5993C58.6007 11.3993 57.8007 10.5993 56.6007 10.5993ZM19.4007 14.5993V15.1993C19.4007 16.3993 20.2007 17.1993 21.4007 17.1993C22.6007 17.1993 23.4007 16.3993 23.4007 15.1993V14.5993H40.4007V15.1993C40.4007 16.3993 41.2007 17.1993 42.4007 17.1993C43.6007 17.1993 44.4007 16.3993 44.4007 15.1993V14.5993H54.6007V22.5993H9.20068V14.5993H19.4007ZM9.20068 49.3993V26.5993H54.6007V49.3993H9.20068Z" fill="#2D373D"/>
<path fill-rule="evenodd" clip-rule="evenodd" d="M32.0445 29.4665C33.149 29.4665 34.0445 30.3619 34.0445 31.4665V44.622C34.0445 45.7266 33.149 46.622 32.0445 46.622C30.9399 46.622 30.0445 45.7266 30.0445 44.622V31.4665C30.0445 30.3619 30.9399 29.4665 32.0445 29.4665Z" fill="#2D373D"/>
<path fill-rule="evenodd" clip-rule="evenodd" d="M23.4668 38.0443C23.4668 36.9397 24.3622 36.0443 25.4668 36.0443H38.6224C39.7269 36.0443 40.6224 36.9397 40.6224 38.0443C40.6224 39.1489 39.7269 40.0443 38.6224 40.0443H25.4668C24.3622 40.0443 23.4668 39.1489 23.4668 38.0443Z" fill="#2D373D"/>
</svg>
