<svg width="32" height="32" viewBox="0 0 32 32" fill="none" xmlns="http://www.w3.org/2000/svg">
<path d="M29.3997 16.3001C29.3997 16.2001 29.3997 16.1001 29.3997 16.0001C29.3997 15.8001 29.3997 15.6001 29.3997 15.4001C29.3997 15.2001 29.3997 15.1001 29.3997 14.9001C29.3997 14.6001 29.2997 14.3001 29.2997 14.1001V14.0001C28.2997 7.6001 22.6997 2.6001 15.9997 2.6001C9.6997 2.6001 4.3997 7.0001 2.9997 12.9001C2.8997 13.0001 2.8997 13.1001 2.7997 13.3001C1.7997 18.2001 3.5997 23.3001 7.5997 26.4001C7.6997 26.5001 7.7997 26.6001 7.8997 26.6001C10.0997 28.3001 12.8997 29.3001 15.9997 29.3001C20.9997 29.3001 25.2997 26.5001 27.5997 22.5001C27.6997 22.4001 27.6997 22.4001 27.7997 22.3001C28.8997 20.4001 29.3997 18.4001 29.3997 16.3001ZM27.0997 18.7001C27.0997 18.9001 26.9997 19.1001 26.9997 19.3001C26.8997 19.7001 26.6997 20.2001 26.4997 20.6001H24.9997C24.6997 20.6001 24.4997 20.4001 24.3997 20.1001L23.4997 14.9001C23.3997 14.5001 22.9997 14.1001 22.4997 14.1001H20.7997C20.6997 14.1001 20.5997 14.1001 20.5997 14.1001C20.3997 14.1001 20.2997 13.9001 20.1997 13.8001C19.9997 13.6001 19.9997 13.5001 19.9997 13.3001L20.7997 10.0001C20.7997 9.7001 21.0997 9.5001 21.3997 9.5001V9.4001H25.2997C26.5997 11.3001 27.3997 13.5001 27.3997 16.0001C27.3997 16.8001 27.2997 17.5001 27.1997 18.2001C27.1997 18.4001 27.0997 18.6001 27.0997 18.7001ZM8.3997 19.9001L7.5997 23.7001L7.4997 23.6001C7.2997 23.4001 7.0997 23.1001 6.8997 22.8001C6.7997 22.7001 6.7997 22.7001 6.6997 22.6001C6.4997 22.3001 6.2997 22.1001 6.1997 21.8001C6.1997 21.7001 6.0997 21.7001 6.0997 21.6001C5.8997 21.3001 5.6997 20.9001 5.5997 20.6001C4.7997 18.8001 4.4997 16.7001 4.6997 14.6001C4.6997 14.5001 4.6997 14.5001 4.6997 14.4001H9.8997C10.1997 14.4001 10.3997 14.6001 10.4997 14.9001L11.2997 18.2001C11.2997 18.3001 11.2997 18.3001 11.2997 18.4001C11.2997 18.6001 11.1997 18.8001 11.0997 18.9001C10.8997 19.0001 10.7997 19.1001 10.5997 19.1001H9.3997C8.8997 19.1001 8.4997 19.4001 8.3997 19.9001ZM15.9997 27.4001C13.4997 27.4001 11.2997 26.6001 9.3997 25.3001L10.1997 21.1001H10.5997C11.2997 21.1001 11.8997 20.8001 12.3997 20.3001C12.8997 19.8001 13.1997 19.1001 13.1997 18.4001C13.1997 18.2001 13.1997 18.0001 13.0997 17.8001L12.2997 14.5001C11.9997 13.3001 10.8997 12.5001 9.6997 12.5001H5.1997C6.6997 7.9001 10.8997 4.6001 15.9997 4.6001C18.8997 4.6001 21.5997 5.7001 23.6997 7.6001H21.3997C20.1997 7.6001 19.0997 8.4001 18.7997 9.6001L18.0997 12.9001C17.8997 13.6001 17.9997 14.3001 18.3997 14.9001C18.6997 15.5001 19.2997 15.9001 19.9997 16.1001C20.1997 16.2001 20.3997 16.2001 20.5997 16.2001H21.4997L22.1997 20.6001C22.3997 21.9001 23.4997 22.8001 24.7997 22.8001H25.0997C23.0997 25.6001 19.7997 27.4001 15.9997 27.4001Z" fill="#2D373D"/>
</svg>
