<svg width="24" height="24" viewBox="0 0 24 24" fill="none" xmlns="http://www.w3.org/2000/svg">
<path d="M21.315 19.1175L18.9375 16.74C19.6468 15.7697 19.9643 14.5677 19.8266 13.3736C19.689 12.1796 19.1064 11.0814 18.1949 10.2979C17.2835 9.51435 16.1102 9.10316 14.9091 9.1463C13.7079 9.18944 12.5672 9.68373 11.7143 10.5306C10.8614 11.3775 10.3591 12.5147 10.3075 13.7155C10.2558 14.9163 10.6587 16.0925 11.4358 17.0094C12.2128 17.9264 13.3069 18.5167 14.5 18.6628C15.693 18.8089 16.8972 18.4999 17.8725 17.7975L20.25 20.1825C20.3201 20.252 20.4032 20.307 20.4946 20.3443C20.586 20.3817 20.6838 20.4006 20.7825 20.4C20.9308 20.3994 21.0757 20.3548 21.1986 20.2719C21.3216 20.189 21.4173 20.0714 21.4735 19.9341C21.5297 19.7969 21.5439 19.646 21.5144 19.5007C21.4848 19.3553 21.4128 19.222 21.3075 19.1175H21.315ZM12.825 16.2525C12.2241 15.6458 11.887 14.8264 11.887 13.9725C11.887 13.1186 12.2241 12.2992 12.825 11.6925C13.276 11.2414 13.8506 10.9341 14.4763 10.8096C15.1019 10.685 15.7504 10.7488 16.3397 10.9929C16.9291 11.2369 17.4328 11.6503 17.7873 12.1807C18.1417 12.711 18.3309 13.3346 18.3309 13.9725C18.3309 14.6104 18.1417 15.234 17.7873 15.7643C17.4328 16.2947 16.9291 16.7081 16.3397 16.9521C15.7504 17.1962 15.1019 17.26 14.4763 17.1355C13.8506 17.0109 13.276 16.7037 12.825 16.2525Z" fill="#2D373D"/>
<path d="M5.57252 9.54751C5.47479 9.64602 5.39787 9.76319 5.34633 9.89203C5.29479 10.0209 5.26969 10.1588 5.27252 10.2975C5.26837 10.4364 5.29287 10.5747 5.34448 10.7037C5.3961 10.8327 5.47372 10.9498 5.57252 11.0475C5.67066 11.1462 5.78759 11.2243 5.91641 11.2771C6.04522 11.3299 6.18331 11.3564 6.32252 11.355C6.59581 11.3511 6.85682 11.2408 7.05008 11.0476C7.24335 10.8543 7.35364 10.5933 7.35752 10.32C7.35894 10.1808 7.33246 10.0427 7.27965 9.9139C7.22683 9.78508 7.14875 9.66815 7.05002 9.57001C6.95228 9.47121 6.83526 9.39359 6.70623 9.34197C6.5772 9.29036 6.43892 9.26586 6.30002 9.27001C6.03064 9.26429 5.76965 9.36384 5.57252 9.54751Z" fill="#2D373D"/>
<path d="M8.86502 12.0825H4.88252C4.78529 12.0904 4.6887 12.0609 4.61252 12C4.57319 11.9611 4.54276 11.9141 4.52334 11.8624C4.50392 11.8106 4.49596 11.7552 4.50002 11.7V9.99751C4.49983 9.59334 4.6588 9.20535 4.94252 8.91751C5.22608 8.64114 5.60413 8.48295 6.00002 8.47501H17.3775C17.5118 8.47348 17.6457 8.49116 17.775 8.52751C17.9679 8.57782 18.1488 8.66608 18.3072 8.78713C18.4656 8.90818 18.5983 9.05959 18.6975 9.23251C18.7444 9.32214 18.8089 9.40135 18.8872 9.4654C18.9655 9.52944 19.056 9.57698 19.1531 9.60516C19.2503 9.63335 19.3521 9.64159 19.4525 9.62939C19.5529 9.61719 19.6498 9.58481 19.7374 9.53419C19.825 9.48357 19.9014 9.41576 19.9621 9.33483C20.0228 9.25391 20.0665 9.16154 20.0905 9.0633C20.1146 8.96505 20.1186 8.86295 20.1021 8.76314C20.0857 8.66333 20.0493 8.56787 19.995 8.48251C19.7311 8.02426 19.3508 7.64392 18.8925 7.38001C18.7804 7.31207 18.6624 7.25434 18.54 7.20751L17.3625 4.59001C17.1871 4.12302 16.8734 3.72064 16.4634 3.43655C16.0533 3.15247 15.5664 3.00018 15.0675 3.00001H8.31752C7.81663 2.99884 7.32733 3.15061 6.91502 3.43501C6.52595 3.71173 6.22827 4.0982 6.06002 4.54501L4.86752 7.20001C4.50018 7.35397 4.16644 7.57816 3.88502 7.86001C3.60337 8.13998 3.38011 8.47309 3.22819 8.84002C3.07627 9.20694 2.99871 9.60038 3.00002 9.99751V11.7C2.99957 11.9482 3.0484 12.194 3.14367 12.4232C3.23894 12.6523 3.37876 12.8603 3.55502 13.035V13.9575C3.61287 14.414 3.83524 14.8336 4.18043 15.1378C4.52561 15.442 4.96992 15.6099 5.43002 15.6099C5.89012 15.6099 6.33442 15.442 6.67961 15.1378C7.0248 14.8336 7.24716 14.414 7.30502 13.9575V13.5675H8.80502C9.00393 13.5675 9.19469 13.4885 9.33535 13.3478C9.476 13.2072 9.55502 13.0164 9.55502 12.8175C9.55502 12.6186 9.476 12.4278 9.33535 12.2872C9.19469 12.1465 9.00393 12.0675 8.80502 12.0675L8.86502 12.0825ZM7.44752 5.12251C7.5115 4.93951 7.6324 4.78181 7.79252 4.67251C7.95336 4.56094 8.14427 4.5008 8.34002 4.50001H15.09C15.2908 4.50315 15.4858 4.56824 15.6482 4.68637C15.8107 4.8045 15.9327 4.96992 15.9975 5.16001L16.7925 6.97501H6.61502L7.44752 5.12251ZM5.84252 13.9725C5.84227 14.0739 5.80181 14.171 5.73002 14.2425C5.65614 14.3127 5.55815 14.3518 5.45627 14.3518C5.35438 14.3518 5.25639 14.3127 5.18252 14.2425C5.14591 14.2079 5.11699 14.166 5.09761 14.1194C5.07823 14.0729 5.06883 14.0229 5.07002 13.9725V13.5825H5.82002L5.84252 13.9725Z" fill="#2D373D"/>
</svg>
