<svg width="64" height="65" viewBox="0 0 64 65" fill="none" xmlns="http://www.w3.org/2000/svg">
<path d="M14 31.9234C14.2 32.1234 14.6 32.1234 14.8 32.1234C16.4 32.1234 17.6 30.7234 17.6 29.1234C17.6 28.7234 17.6 28.5234 17.4 28.3234C17.2 27.5234 16.4 26.7234 15.6 26.5234C15.4 26.3234 15 26.3234 14.8 26.3234C13.2 26.1234 12 27.5234 12 28.9234C12 30.5234 12.8 31.5234 14 31.9234Z" fill="#2D373D"/>
<path d="M30.8002 34.5234H10.6002C9.8002 34.5234 9.2002 33.9234 9.2002 33.1234V28.1234C9.2002 25.5234 11.4002 23.3234 14.0002 23.3234H47.6002C49.4002 23.3234 51.0002 24.3234 51.8002 25.7234C52.4002 26.7234 53.6002 27.1234 54.6002 26.5234C55.6002 25.9234 56.0002 24.7234 55.4002 23.7234C54.4002 21.9234 52.8002 20.7234 51.0002 19.9234L47.4002 12.1234C46.4002 9.32344 43.8002 7.52344 40.8002 7.52344H20.8002C18.0002 7.52344 15.2002 9.32344 14.4002 11.9234L10.8002 19.9234C7.6002 21.3234 5.2002 24.3234 5.2002 28.1234V33.1234C5.2002 34.7234 5.8002 35.9234 6.8002 36.9234V39.9234C6.8002 42.9234 9.2002 45.3234 12.2002 45.3234C15.2002 45.3234 17.6002 42.9234 17.6002 39.9234V38.5234H30.8002C31.8002 38.5234 32.8002 37.7234 32.8002 36.5234C32.8002 35.3234 32.0002 34.5234 30.8002 34.5234ZM18.0002 13.5234C18.4002 12.3234 19.6002 11.5234 21.0002 11.5234H41.0002C42.2002 11.5234 43.4002 12.3234 43.8002 13.5234L46.4002 19.3234H15.4002L18.0002 13.5234ZM13.6002 39.9234C13.6002 40.7234 13.0002 41.3234 12.2002 41.3234C11.4002 41.3234 10.8002 40.7234 10.8002 39.9234V38.5234H13.6002V39.9234Z" fill="#2D373D"/>
<path d="M47 36.9233C46.8 36.9233 46.8 37.1233 47 36.9233C45.6 36.9233 44.6 37.7233 44.2 38.9233C44 39.1233 44 39.5233 44 39.7233C44 39.9233 44 40.3233 44.2 40.5233C44.4 41.3233 45.2 42.1233 46 42.3233C46.2 42.5233 46.6 42.5233 46.8 42.5233C48 42.5233 49.2 41.7233 49.6 40.7233C49.8 40.5233 49.8 40.1233 49.8 39.7233C49.8 38.1233 48.6 36.9233 47 36.9233Z" fill="#2D373D"/>
<path d="M47 27.7231C40.4 27.7231 35 33.1231 35 39.7231C35 44.1231 39.8 51.5231 44 56.7231C44.2 56.9231 44.4 57.1231 44.6 57.3231C45.2 57.9231 46 58.1231 46.8 58.1231C47 58.1231 47.2 58.1231 47.6 58.1231C48.6 57.9231 49.4 57.5231 50 56.7231C54 51.3231 59 44.1231 59 39.7231C59 33.1231 53.6 27.7231 47 27.7231ZM46.8 54.1231C41.8 47.7231 38.8 42.3231 38.8 39.9231C38.8 35.5231 42.4 31.9231 46.8 31.9231C51.2 31.9231 54.8 35.3231 54.8 39.9231C54.8 42.3231 51.6 47.7231 46.8 54.1231Z" fill="#2D373D"/>
</svg>
