<svg width="24" height="25" viewBox="0 0 24 25" fill="none" xmlns="http://www.w3.org/2000/svg">
<path d="M22.1999 9.92383C22.2082 9.46476 22.063 9.01607 21.7874 8.64883L18.8849 4.75633C18.6855 4.49638 18.4289 4.28592 18.1349 4.14133H18.0749C17.8186 4.01063 17.5373 3.93646 17.2499 3.92383H6.7499C6.45967 3.92518 6.12065 3.98914 5.8574 4.11133C5.56207 4.2538 5.30496 4.46462 5.1074 4.72633L2.2499 8.67133C1.96781 9.02833 1.81217 9.46885 1.8074 9.92383C1.7997 10.3969 1.95606 10.858 2.2499 11.2288L10.4174 21.1738C10.6157 21.4024 10.858 21.5886 11.1299 21.7213C11.4011 21.853 11.6984 21.9222 11.9999 21.9238H12.0674C12.3572 21.9187 12.6429 21.8549 12.9074 21.7363C13.1799 21.6047 13.4205 21.4153 13.6124 21.1813L21.7499 11.2363C22.0425 10.8744 22.2084 10.4265 22.2224 9.96133L22.1999 9.92383ZM14.9399 10.6738L11.9999 18.9238L9.0674 10.6738H14.9399ZM9.5699 9.17383L11.9999 5.93383L14.4374 9.17383H9.5699ZM13.4999 5.42383H16.8299L15.7499 8.42383L13.4999 5.42383ZM8.2499 8.42383L7.1849 5.42383H10.4999L8.2499 8.42383ZM10.3124 18.6538L3.7499 10.6738H7.4999L10.3124 18.6538ZM16.4999 10.6738H20.2499L13.6874 18.6838L16.4999 10.6738ZM20.2874 9.17383H17.0699L18.1199 6.21883L20.2874 9.17383ZM5.8799 6.24883L6.9374 9.17383H3.6824L5.8799 6.24883Z" fill="#2D373D"/>
</svg>
