<svg width="32" height="33" viewBox="0 0 32 33" fill="none" xmlns="http://www.w3.org/2000/svg">
<path d="M19.0167 21.037C19.927 20.4726 20.9768 20.1737 22.0479 20.1738C22.6002 20.1739 23.048 19.7263 23.0481 19.174C23.0481 18.6217 22.6005 18.1739 22.0482 18.1738C20.6047 18.1736 19.1898 18.5765 17.9628 19.3372C16.7359 20.0979 15.7458 21.1863 15.1043 22.4794C14.8588 22.9741 15.0609 23.5742 15.5556 23.8196C16.0504 24.0651 16.6504 23.863 16.8959 23.3683C17.3719 22.4088 18.1065 21.6013 19.0167 21.037Z" fill="#2D373D"/>
<path d="M12.25 12.5488C13.0094 12.5488 13.625 13.1644 13.625 13.9238C13.625 14.6832 13.0094 15.2988 12.25 15.2988C11.4906 15.2988 10.875 14.6832 10.875 13.9238C10.875 13.1644 11.4906 12.5488 12.25 12.5488Z" fill="#2D373D"/>
<path d="M19.75 12.5488C20.5094 12.5488 21.125 13.1644 21.125 13.9238C21.125 14.6832 20.5094 15.2988 19.75 15.2988C18.9906 15.2988 18.375 14.6832 18.375 13.9238C18.375 13.1644 18.9906 12.5488 19.75 12.5488Z" fill="#2D373D"/>
<path fill-rule="evenodd" clip-rule="evenodd" d="M16 4.67383C9.23452 4.67383 3.75 10.1583 3.75 16.9238C3.75 23.6893 9.23452 29.1738 16 29.1738C22.7655 29.1738 28.25 23.6893 28.25 16.9238C28.25 10.1583 22.7655 4.67383 16 4.67383ZM5.75 16.9238C5.75 11.2629 10.3391 6.67383 16 6.67383C21.6609 6.67383 26.25 11.2629 26.25 16.9238C26.25 22.5847 21.6609 27.1738 16 27.1738C10.3391 27.1738 5.75 22.5847 5.75 16.9238Z" fill="#2D373D"/>
</svg>
