<svg width="64" height="65" viewBox="0 0 64 65" fill="none" xmlns="http://www.w3.org/2000/svg">
<path d="M29.9998 31.2617C30.3998 30.2617 29.9998 29.0617 28.9998 28.6617C28.1998 28.2617 27.1998 28.0617 26.3998 27.8617C30.3998 26.4617 33.1998 22.6617 33.1998 18.4617C33.1998 12.8617 28.5998 8.26172 22.9998 8.26172C17.5998 8.26172 12.9998 12.8617 12.7998 18.2617C12.7998 22.6617 15.5998 26.4617 19.5998 27.8617C12.7998 29.4617 7.7998 35.4617 7.7998 42.6617C7.7998 43.8617 8.5998 44.6617 9.7998 44.6617C10.9998 44.6617 11.7998 43.8617 11.7998 42.6617C11.7998 39.6617 12.9998 36.8617 15.1998 34.6617C17.3998 32.4617 20.1998 31.2617 23.1998 31.2617C24.7998 31.2617 26.1998 31.6617 27.5998 32.2617C28.5998 32.8617 29.7998 32.2617 29.9998 31.2617ZM16.9998 18.4617C16.9998 15.0617 19.7998 12.2617 22.9998 12.2617C26.3998 12.2617 29.1998 14.8617 29.1998 18.2617C29.1998 21.6617 26.1998 24.4617 22.9998 24.4617C19.7998 24.4617 16.9998 21.8617 16.9998 18.4617Z" fill="#2D373D"/>
<path d="M54.9998 36.0616C54.7998 35.4616 54.1998 34.6616 53.5998 34.0616C52.1998 32.4616 50.1998 31.6616 47.9998 31.6616C45.7998 31.6616 43.9998 32.4616 42.3998 34.0616L42.1998 34.2616L41.9998 34.0616C41.3998 33.4616 40.7998 33.0616 39.9998 32.6616C36.1998 30.6616 31.3998 32.2616 29.3998 36.2616C27.7998 39.4616 28.3998 43.0616 30.7998 45.4616L40.7998 55.8616C41.1998 56.2616 41.5998 56.4616 42.1998 56.4616C42.7998 56.4616 43.3998 56.2616 43.5998 55.6616L53.5998 45.2616C55.9998 42.8616 56.5998 39.0616 54.9998 36.0616ZM50.7998 42.6616L42.1998 51.6616L33.5998 42.6616C32.3998 41.4616 31.9998 39.6616 32.7998 38.0616C33.5998 36.6616 34.9998 35.8616 36.3998 35.8616C36.9998 35.8616 37.5998 36.0616 38.1998 36.2616C38.5998 36.4616 38.7998 36.6616 39.1998 37.0616L40.7998 38.6616C41.5998 39.4616 42.7998 39.4616 43.5998 38.6616L45.1998 37.0616C45.9998 36.2616 46.9998 35.8616 47.9998 35.8616C48.9998 35.8616 49.9998 36.2616 50.7998 37.0616C51.1998 37.2616 51.3998 37.6616 51.5998 38.0616C52.3998 39.6616 51.9998 41.4616 50.7998 42.6616Z" fill="#2D373D"/>
</svg>
