<svg width="64" height="65" viewBox="0 0 64 65" fill="none" xmlns="http://www.w3.org/2000/svg">
<path d="M29.6679 28.3279C30.3308 27.4443 30.1518 26.1907 29.2682 25.5279C28.3846 24.865 27.131 25.044 26.4682 25.9276L22.2125 31.6005L20.0803 29.4701C19.2989 28.6893 18.0326 28.6899 17.2518 29.4713C16.4711 30.2527 16.4717 31.519 17.2531 32.2997L19.7146 34.7591C20.0786 35.1229 20.5165 35.4044 20.9987 35.5844C21.4812 35.7645 21.9966 35.8389 22.5103 35.8025C23.0239 35.7662 23.5238 35.6199 23.976 35.3736C24.4282 35.1274 24.8229 34.786 25.1321 34.3742L29.6679 28.3279Z" fill="#2D373D"/>
<path d="M29.6679 42.6885C30.3308 41.8049 30.1518 40.5513 29.2682 39.8884C28.3846 39.2256 27.131 39.4045 26.4682 40.2881L22.2126 45.9608L20.0809 43.8291C19.2998 43.048 18.0335 43.048 17.2525 43.8291C16.4714 44.6101 16.4714 45.8765 17.2525 46.6575L19.7141 49.1192C20.0782 49.4832 20.5163 49.7649 20.9987 49.945C21.4812 50.1251 21.9966 50.1994 22.5103 50.1631C23.0239 50.1267 23.5238 49.9804 23.976 49.7342C24.4282 49.4879 24.8229 49.1466 25.1321 48.7348L29.6679 42.6885Z" fill="#2D373D"/>
<path d="M32.6224 33.8123C32.6224 32.7077 33.5178 31.8123 34.6224 31.8123H44.1961C45.3007 31.8123 46.1961 32.7077 46.1961 33.8123C46.1961 34.9169 45.3007 35.8123 44.1961 35.8123H34.6224C33.5178 35.8123 32.6224 34.9169 32.6224 33.8123Z" fill="#2D373D"/>
<path d="M34.6224 44.5772C33.5178 44.5772 32.6224 45.4727 32.6224 46.5772C32.6224 47.6818 33.5178 48.5772 34.6224 48.5772H44.1961C45.3007 48.5772 46.1961 47.6818 46.1961 46.5772C46.1961 45.4727 45.3007 44.5772 44.1961 44.5772H34.6224Z" fill="#2D373D"/>
<path fill-rule="evenodd" clip-rule="evenodd" d="M48.1997 7.45727C47.2496 6.48714 45.9553 5.92725 44.5884 5.92773H13.2566C11.8672 5.92773 10.5544 6.50657 9.60135 7.50455C8.6513 8.4994 8.13281 9.82983 8.13281 11.1988V53.7233C8.13281 55.0923 8.6513 56.4227 9.60135 57.4176C10.5544 58.4156 11.8672 58.9944 13.2566 58.9944H50.7423C52.1318 58.9944 53.4446 58.4156 54.3976 57.4176C55.3477 56.4227 55.8661 55.0923 55.8661 53.7233V17.4857C55.8661 16.7949 55.7341 16.1091 55.4758 15.4677C55.2174 14.8263 54.8366 14.2394 54.3514 13.7441L48.1997 7.45727ZM44.6667 9.93073C44.9052 9.94943 45.1455 10.0558 45.3414 10.2555L51.4941 16.5435C51.606 16.6576 51.6998 16.7992 51.7654 16.9622C51.787 17.0159 51.8053 17.0712 51.8201 17.1277H44.6667V9.93073ZM40.6667 9.92773L13.2566 9.92774C12.9891 9.92774 12.7128 10.0382 12.4942 10.2671C12.2726 10.4991 12.1328 10.8328 12.1328 11.1988V53.7233C12.1328 54.0894 12.2726 54.423 12.4942 54.655C12.7128 54.884 12.9891 54.9944 13.2566 54.9944H50.7423C51.0099 54.9944 51.2862 54.884 51.5048 54.655C51.7264 54.423 51.8661 54.0894 51.8661 53.7233V21.1277H42.6667C41.5621 21.1277 40.6667 20.2323 40.6667 19.1277V9.92773Z" fill="#2D373D"/>
</svg>
