<svg width="24" height="24" viewBox="0 0 24 24" fill="none" xmlns="http://www.w3.org/2000/svg">
<path d="M17.5502 13.2749C17.6252 13.5749 17.9252 13.8749 18.2252 13.9499C18.3002 14.0249 18.4502 14.0249 18.5252 14.0249C19.1252 14.0249 19.5752 13.5749 19.5752 12.9749C19.5752 12.8249 19.5752 12.7499 19.5002 12.6749C19.4252 12.3749 19.1252 12.0749 18.8252 11.9999C18.7502 11.9249 18.6002 11.9249 18.5252 11.9249C18.4502 11.9249 18.3002 11.9249 18.2252 11.9999C17.9252 12.0749 17.6252 12.3749 17.5502 12.6749C17.4752 12.7499 17.4752 12.8999 17.4752 12.9749C17.4752 13.0499 17.4752 13.1249 17.5502 13.2749Z" fill="#2D373D"/>
<path d="M5.17519 13.9499C5.25019 14.0249 5.40019 14.0249 5.47519 14.0249C5.55019 14.0249 5.70019 14.0249 5.77519 13.9499C6.07519 13.8749 6.37519 13.5749 6.45019 13.2749C6.52519 13.1999 6.52519 13.0499 6.52519 12.9749C6.52519 12.8999 6.52519 12.7499 6.45019 12.6749C6.37519 12.3749 6.07519 12.0749 5.77519 11.9999C5.70019 11.9249 5.55019 11.9249 5.47519 11.9249C5.40019 11.9249 5.25019 11.9249 5.17519 11.9999C4.80019 11.9999 4.57519 12.2999 4.50019 12.5999C4.42519 12.6749 4.42519 12.8249 4.42519 12.8999C4.42519 12.9749 4.42519 13.1249 4.50019 13.1999C4.57519 13.5749 4.80019 13.7999 5.17519 13.9499Z" fill="#2D373D"/>
<path d="M19.9502 9.4499L18.7502 6.7499C18.3752 5.6999 17.3252 5.0249 16.2752 5.0249H7.7252C6.6002 5.0249 5.6252 5.6999 5.3252 6.6749L4.1252 9.3749C2.9252 9.5249 1.9502 10.4999 1.9502 11.7749V14.8499C1.9502 15.3749 2.1752 15.8249 2.5502 16.1249V16.8749C2.5502 17.9999 3.4502 18.8999 4.5752 18.8999C5.6252 18.8999 6.5252 17.9999 6.6002 16.8749V16.4249H17.4002V16.8749C17.4002 17.9999 18.3002 18.8999 19.4252 18.8999C20.5502 18.8999 21.4502 17.9999 21.4502 16.8749V16.1249C21.8252 15.8249 22.0502 15.3749 22.0502 14.8499V11.7749C22.0502 10.5749 21.1502 9.5249 19.9502 9.4499ZM6.67519 7.2749C6.82519 6.8249 7.2752 6.5249 7.7252 6.5249H16.2752C16.7252 6.5249 17.1752 6.8249 17.3252 7.2749L18.3002 9.3749H5.7002L6.67519 7.2749ZM3.4502 11.7749C3.4502 11.2499 3.8252 10.8749 4.4252 10.8749H19.6502C20.1752 10.8749 20.5502 11.2499 20.5502 11.7749V14.8499C20.5502 14.9249 20.5502 14.9249 20.4752 14.9249H3.5252C3.4502 14.9249 3.4502 14.9249 3.4502 14.8499V11.7749ZM5.1002 16.8749C5.1002 17.1749 4.8752 17.3999 4.5752 17.3999C4.2752 17.3999 4.0502 17.1749 4.0502 16.8749V16.4249H5.1002V16.8749ZM19.4252 17.3999C19.1252 17.3999 18.9002 17.1749 18.9002 16.8749V16.4249H19.9502V16.8749C19.9502 17.1749 19.7252 17.3999 19.4252 17.3999Z" fill="#2D373D"/>
</svg>
