<svg width="24" height="25" viewBox="0 0 24 25" fill="none" xmlns="http://www.w3.org/2000/svg">
<path d="M12.85 14.5824C12.7511 14.581 12.653 14.5995 12.5614 14.6367C12.4698 14.6739 12.3866 14.7291 12.3167 14.799C12.2468 14.8689 12.1916 14.9522 12.1544 15.0438C12.1171 15.1354 12.0987 15.2335 12.1 15.3324V16.5424H4.52V6.92236C4.52312 6.7348 4.5569 6.54901 4.62 6.37236C4.6891 6.20391 4.79109 6.05093 4.92 5.92236C5.03761 5.79423 5.18065 5.69205 5.34 5.62236C5.4999 5.56129 5.66891 5.52749 5.84 5.52236H7.69C7.88891 5.52236 8.07968 5.44334 8.22033 5.30269C8.36098 5.16204 8.44 4.97127 8.44 4.77236C8.44 4.57345 8.36098 4.38268 8.22033 4.24203C8.07968 4.10138 7.88891 4.02236 7.69 4.02236H5.83C5.45529 4.01964 5.08409 4.09467 4.73984 4.24269C4.3956 4.39072 4.0858 4.60853 3.83 4.88236C3.56583 5.15173 3.3584 5.47137 3.22 5.82236C3.07816 6.17193 3.00352 6.54512 3 6.92236V19.0624C3.0126 19.8064 3.30129 20.5192 3.81 21.0624C4.07374 21.3316 4.38585 21.5487 4.73 21.7024C5.07552 21.8461 5.4458 21.9208 5.82 21.9224H10.76C11.1347 21.9251 11.5059 21.85 11.8502 21.702C12.1944 21.554 12.5042 21.3362 12.76 21.0624C13.0242 20.793 13.2316 20.4733 13.37 20.1224C13.5084 19.7721 13.5797 19.399 13.58 19.0224V15.3324C13.5801 15.1369 13.5038 14.9491 13.3674 14.809C13.2311 14.6689 13.0454 14.5876 12.85 14.5824ZM11.99 19.5824C11.9246 19.7503 11.826 19.9034 11.7 20.0324C11.5808 20.1631 11.4339 20.2656 11.27 20.3324C11.1159 20.4009 10.9487 20.435 10.78 20.4324H5.84C5.66706 20.4347 5.4956 20.4003 5.33698 20.3313C5.17837 20.2623 5.03623 20.1604 4.92 20.0324C4.79109 19.9038 4.6891 19.7508 4.62 19.5824C4.5569 19.4057 4.52312 19.2199 4.52 19.0324V18.0324H12.1V19.0324C12.1066 19.2337 12.0726 19.4344 12 19.6224L11.99 19.5824Z" fill="#2D373D"/>
<path d="M21 7.92236C21.0016 7.65198 20.9484 7.38409 20.8435 7.13487C20.7387 6.88564 20.5844 6.66027 20.39 6.47236C19.9965 6.10106 19.476 5.89423 18.935 5.89423C18.394 5.89423 17.8735 6.10106 17.48 6.47236C17.2946 6.66444 17.1496 6.8917 17.0534 7.14073C16.9572 7.38976 16.9118 7.65553 16.92 7.92236C16.8938 8.35235 17.0072 8.77929 17.2433 9.13965C17.4793 9.50001 17.8254 9.77453 18.23 9.92236V10.9224C18.2296 11.2109 18.172 11.4964 18.0604 11.7625C17.9488 12.0286 17.7855 12.2699 17.58 12.4724C17.159 12.8682 16.6029 13.0886 16.025 13.0886C15.4471 13.0886 14.891 12.8682 14.47 12.4724C14.1359 12.1414 13.9213 11.7087 13.86 11.2424C14.4639 11.0957 15.0169 10.7881 15.46 10.3524C15.7754 10.0412 16.0261 9.67069 16.1977 9.26223C16.3693 8.85377 16.4585 8.41541 16.46 7.97236V5.34236C16.4608 5.1569 16.425 4.97311 16.3546 4.80152C16.2843 4.62992 16.1807 4.47389 16.05 4.34236C15.9127 4.20464 15.7488 4.09637 15.5683 4.02415C15.3877 3.95194 15.1944 3.9173 15 3.92236H14.35C14.1511 3.92236 13.9603 4.00138 13.8197 4.14203C13.679 4.28268 13.6 4.47345 13.6 4.67236C13.6 4.87127 13.679 5.06204 13.8197 5.20269C13.9603 5.34334 14.1511 5.42236 14.35 5.42236H15V7.92236C14.9977 8.41763 14.8 8.89198 14.45 9.24236C14.0929 9.58287 13.6184 9.77284 13.125 9.77284C12.6316 9.77284 12.1571 9.58287 11.8 9.24236C11.6167 9.07372 11.4691 8.86998 11.3661 8.64323C11.263 8.41649 11.2065 8.17135 11.2 7.92236V5.44236H11.76C11.9589 5.44236 12.1497 5.36334 12.2903 5.22269C12.431 5.08204 12.51 4.89127 12.51 4.69236C12.51 4.49345 12.431 4.30268 12.2903 4.16203C12.1497 4.02138 11.9589 3.94236 11.76 3.94236H11.11C10.9253 3.94104 10.7422 3.97628 10.5712 4.04604C10.4002 4.11581 10.2446 4.21872 10.1136 4.34886C9.98252 4.47899 9.8785 4.63377 9.80752 4.80428C9.73654 4.97479 9.7 5.15766 9.7 5.34236V7.92236C9.701 8.69207 9.96545 9.43824 10.4494 10.0368C10.9333 10.6353 11.6076 11.0502 12.36 11.2124C12.4292 12.0697 12.8014 12.8745 13.41 13.4824C13.9257 13.9931 14.5798 14.3414 15.2914 14.4841C16.0031 14.6267 16.7409 14.5576 17.4136 14.2851C18.0863 14.0126 18.6643 13.5488 19.0761 12.9511C19.4878 12.3533 19.7152 11.648 19.73 10.9224V9.92236C19.9946 9.81709 20.2358 9.66079 20.44 9.46236C20.6323 9.25663 20.781 9.01417 20.8772 8.74953C20.9735 8.48489 21.0152 8.20354 21 7.92236ZM18.54 7.53236C18.5913 7.47786 18.6533 7.4346 18.7221 7.40534C18.791 7.37607 18.8652 7.36144 18.94 7.36236C19.0146 7.36261 19.0885 7.37778 19.1572 7.40697C19.2259 7.43616 19.288 7.4788 19.34 7.53236C19.391 7.58365 19.4314 7.6445 19.4588 7.71142C19.4863 7.77834 19.5003 7.85002 19.5 7.92236C19.499 8.07109 19.4418 8.21396 19.34 8.32236C19.231 8.42286 19.0882 8.47865 18.94 8.47865C18.7918 8.47865 18.649 8.42286 18.54 8.32236C18.4878 8.26988 18.4467 8.20741 18.4192 8.13868C18.3917 8.06994 18.3784 7.99637 18.38 7.92236C18.398 7.7839 18.396 7.68545 18.54 7.53236Z" fill="#2D373D"/>
</svg>
