<svg width="16" height="17" viewBox="0 0 16 17" fill="none" xmlns="http://www.w3.org/2000/svg">
<path fill-rule="evenodd" clip-rule="evenodd" d="M4.7188 3.01049C4.8556 2.91738 5.0296 2.89798 5.18355 2.95869L10.9228 5.22175C10.93 5.22456 10.937 5.22753 10.944 5.23067C11.1613 5.32812 11.3452 5.48682 11.4739 5.6868C11.6026 5.88673 11.6708 6.11959 11.6708 6.35716C11.6708 6.59474 11.6026 6.8276 11.4739 7.02752C11.3452 7.22751 11.1613 7.38621 10.944 7.48366C10.937 7.4868 10.93 7.48977 10.9228 7.49258L5.50013 9.63081V14.4238C5.50013 14.7 5.27628 14.9238 5.00013 14.9238C4.72399 14.9238 4.50013 14.7 4.50013 14.4238V9.30216C4.49995 9.29446 4.49996 9.28678 4.50013 9.27911V3.42383C4.50013 3.25835 4.58201 3.10359 4.7188 3.01049ZM5.50013 8.55587L10.5423 6.56771C10.5786 6.54977 10.6102 6.52186 10.6331 6.4863C10.6575 6.44828 10.6708 6.40341 10.6708 6.35716C10.6708 6.31092 10.6575 6.26605 10.6331 6.22803C10.6102 6.19247 10.5786 6.16456 10.5423 6.14662L5.50013 4.15845V8.55587Z" fill="#2D373D"/>
</svg>
