<svg width="24" height="25" viewBox="0 0 24 25" fill="none" xmlns="http://www.w3.org/2000/svg">
<path d="M12.0004 1.73633C6.07539 1.73633 1.27539 6.53633 1.27539 12.4613C1.27539 18.3863 6.07539 23.1863 12.0004 23.1863C17.9254 23.1863 22.7254 18.3863 22.7254 12.4613C22.7254 6.53633 17.9254 1.73633 12.0004 1.73633ZM12.0004 21.6863C6.90039 21.6863 2.77539 17.5613 2.77539 12.4613C2.77539 7.36133 6.90039 3.23633 12.0004 3.23633C17.1004 3.23633 21.2254 7.36133 21.2254 12.4613C21.2254 17.5613 17.1004 21.6863 12.0004 21.6863Z" fill="#2D373D"/>
<path d="M14.8502 9.61129C14.5502 9.31129 14.1002 9.31129 13.8002 9.61129L9.22524 14.1863C8.92524 14.4863 8.92524 14.9363 9.22524 15.2363C9.37524 15.3863 9.52524 15.4613 9.75024 15.4613C9.97524 15.4613 10.1252 15.3863 10.2752 15.2363L14.8502 10.6613C15.1502 10.3613 15.1502 9.91129 14.8502 9.61129Z" fill="#2D373D"/>
<path d="M9.00039 10.2864C9.53887 10.2864 9.97539 9.84984 9.97539 9.31136C9.97539 8.77289 9.53887 8.33636 9.00039 8.33636C8.46191 8.33636 8.02539 8.77289 8.02539 9.31136C8.02539 9.84984 8.46191 10.2864 9.00039 10.2864Z" fill="#2D373D"/>
<path d="M15.1505 14.4863C14.6255 14.4863 14.1755 14.9363 14.1755 15.4613C14.1755 15.9863 14.6255 16.4363 15.1505 16.4363C15.6755 16.4363 16.1255 16.0613 16.1255 15.4613C16.1255 14.9363 15.6755 14.4863 15.1505 14.4863Z" fill="#2D373D"/>
</svg>
