<svg width="64" height="65" viewBox="0 0 64 65" fill="none" xmlns="http://www.w3.org/2000/svg">
<path d="M56.0003 38.8615L51.6003 29.8615C52.6003 29.6615 53.2003 29.0615 53.2003 27.8615C53.2003 26.6615 52.4003 25.8615 51.2003 25.8615H38.4003V25.0615C38.4003 23.8615 37.6003 23.0615 36.4003 23.0615C35.2003 23.0615 34.4003 23.8615 34.4003 25.0615V25.8615H21.6003C20.4003 25.8615 19.6003 26.6615 19.6003 27.8615C19.6003 28.8615 20.2003 29.6615 21.4003 29.8615L16.8003 38.6615C16.4003 39.4615 16.4003 40.0615 17.0003 40.6615C17.4003 44.6615 20.6003 47.6615 24.6003 47.6615C29.0003 47.6615 32.4003 44.0615 32.6003 39.6615C32.6003 39.2615 32.4003 39.0615 32.4003 38.6615L28.0003 29.8615H34.6003V46.8615C33.2003 47.2615 32.0003 48.0615 31.0003 48.8615C29.4003 50.4615 28.6003 52.2615 28.6003 54.4615C28.6003 55.6615 29.4003 56.4615 30.6003 56.4615L42.6003 56.2615C43.2003 56.2615 43.6003 56.0615 44.0003 55.6615C44.4003 55.2615 44.6003 54.8615 44.6003 54.2615C44.6003 50.6615 42.0003 47.6615 38.6003 46.6615V29.8615H45.4003L40.8003 38.4615C40.4003 38.8615 40.2003 39.2615 40.2003 39.8615C40.4003 44.0615 43.8003 47.6615 48.2003 47.6615C50.2003 47.6615 52.2003 46.8615 53.6003 45.4615C55.0003 44.0615 55.8003 42.4615 56.0003 40.6615C56.2003 40.2615 56.4003 39.4615 56.0003 38.8615ZM24.6003 43.6615C23.2003 43.6615 21.8003 42.8615 21.2003 41.6615H28.0003C27.2003 42.8615 26.0003 43.6615 24.6003 43.6615ZM21.8003 37.6615L24.6003 32.2615L27.4003 37.6615H21.8003ZM39.6003 52.4615H33.0003C33.2003 52.2615 33.4003 52.0615 33.4003 51.6615C34.0003 51.0615 34.8003 50.6615 35.6003 50.4615C35.8003 50.4615 36.2003 50.6615 36.4003 50.6615C36.6003 50.6615 36.8003 50.6615 36.8003 50.4615C38.0003 50.8615 39.2003 51.4615 39.6003 52.4615ZM51.2003 37.8615H45.6003L48.4003 32.4615L51.2003 37.8615ZM51.0003 42.2615C50.2003 43.0615 49.2003 43.4615 48.2003 43.4615C46.8003 43.4615 45.4003 42.8615 44.8003 41.6615V41.4615H51.6003C51.4003 41.8615 51.2003 42.0615 51.0003 42.2615Z" fill="#2D373D"/>
<path d="M21.5998 49.6617H12.7998C12.1998 49.6617 11.7998 49.2617 11.7998 48.6617V13.2617C11.7998 12.6617 12.1998 12.2617 12.7998 12.2617H32.5998L40.1998 19.8617V22.0617C40.1998 23.2617 40.9998 24.0617 42.1998 24.0617C43.3998 24.0617 44.1998 23.2617 44.1998 22.0617V19.6617C44.1998 18.8617 43.7998 17.8617 43.1998 17.2617L35.1998 9.26172C34.5998 8.66172 33.7998 8.26172 32.7998 8.26172H12.7998C9.9998 8.26172 7.7998 10.4617 7.7998 13.2617V48.4617C7.7998 51.2617 9.9998 53.4617 12.7998 53.4617H21.5998C22.7998 53.4617 23.5998 52.8617 23.5998 51.6617C23.5998 50.4617 22.7998 49.6617 21.5998 49.6617Z" fill="#2D373D"/>
</svg>
