<svg width="16" height="17" viewBox="0 0 16 17" fill="none" xmlns="http://www.w3.org/2000/svg">
<path d="M11.9998 8.21213C13.2498 8.21213 14.2498 7.21213 14.2498 5.96213C14.2498 4.71213 13.2498 3.71213 11.9998 3.71213C10.7498 3.71213 9.74982 4.71213 9.74982 5.96213C9.74982 7.21213 10.7498 8.21213 11.9998 8.21213ZM11.9998 4.66213C12.6998 4.66213 13.2498 5.21213 13.2498 5.91213C13.2498 6.61213 12.6998 7.16213 11.9998 7.16213C11.2998 7.16213 10.7498 6.61213 10.7498 5.91213C10.7498 5.21213 11.2998 4.66213 11.9998 4.66213Z" fill="#2D373D"/>
<path d="M11.9998 8.31213C11.3998 8.31213 10.7998 8.51213 10.3498 8.86213C10.1498 9.01213 10.0998 9.36213 10.2498 9.56213C10.3998 9.76213 10.7498 9.81213 10.9498 9.66213C11.2498 9.41213 11.6498 9.31213 11.9998 9.31213C12.9498 9.31213 13.6998 10.0621 13.6998 11.0121C13.6998 11.3121 13.8998 11.5121 14.1998 11.5121C14.4998 11.5121 14.6998 11.3121 14.6998 11.0121C14.6998 9.51213 13.4998 8.31213 11.9998 8.31213Z" fill="#2D373D"/>
<path d="M3.99982 8.21211C5.24982 8.21211 6.29982 7.16211 6.29982 5.91211C6.29982 4.66211 5.24982 3.66211 3.99982 3.66211C2.74982 3.66211 1.74982 4.71211 1.74982 5.96211C1.74982 7.21211 2.74982 8.21211 3.99982 8.21211ZM3.99982 4.66211C4.69982 4.66211 5.29982 5.16211 5.29982 5.91211C5.29982 6.66211 4.69982 7.21211 3.99982 7.21211C3.29982 7.21211 2.74982 6.61211 2.74982 5.91211C2.74982 5.21211 3.29982 4.66211 3.99982 4.66211Z" fill="#2D373D"/>
<path d="M5.7498 9.56213C5.8998 9.36213 5.8498 9.01213 5.64981 8.86213C5.14981 8.51213 4.5998 8.31213 3.9998 8.31213C2.4998 8.31213 1.2998 9.51213 1.2998 11.0121C1.2998 11.3121 1.4998 11.5121 1.7998 11.5121C2.0998 11.5121 2.2998 11.3121 2.2998 11.0121C2.2998 10.0621 3.0498 9.31213 3.9998 9.31213C4.3998 9.31213 4.7498 9.46213 5.0498 9.66213C5.2498 9.81213 5.5998 9.76213 5.7498 9.56213Z" fill="#2D373D"/>
<path d="M7.99981 9.96209C8.99981 9.96209 9.84981 9.16209 9.84981 8.11209C9.84981 7.06209 8.99981 6.26208 7.99981 6.26208C6.94981 6.26208 6.14981 7.06209 6.14981 8.11209C6.14981 9.16209 6.99981 9.96209 7.99981 9.96209ZM7.99981 7.31208C8.44981 7.31208 8.84981 7.71208 8.84981 8.16208C8.84981 8.66208 8.49981 9.01208 7.99981 9.01208C7.49981 9.01208 7.14981 8.61208 7.14981 8.16208C7.14981 7.66208 7.54981 7.31208 7.99981 7.31208Z" fill="#2D373D"/>
<path d="M9.5498 10.5121C8.9498 10.1121 8.1998 9.96211 7.4998 10.1121C7.3998 10.1121 7.3498 10.1621 7.2498 10.2121C6.2998 10.5121 5.5498 11.2621 5.3998 12.2621C5.3498 12.5621 5.5498 12.8121 5.7998 12.8621C5.8498 12.8621 5.8498 12.8621 5.8998 12.8621C6.1498 12.8621 6.3498 12.6621 6.3998 12.5121C6.4998 11.8121 7.0498 11.3121 7.6998 11.1621C7.7498 11.1621 7.8498 11.1121 7.8998 11.1121C8.7498 11.0121 9.5498 11.5621 9.7498 12.4121C9.7998 12.6621 9.9998 12.8121 10.2498 12.8121C10.2498 12.8121 10.2998 12.8121 10.3498 12.8121C10.6498 12.7621 10.7998 12.4621 10.7498 12.2121C10.5998 11.5121 10.1498 10.9121 9.5498 10.5121Z" fill="#2D373D"/>
</svg>
