<svg width="32" height="33" viewBox="0 0 32 33" fill="none" xmlns="http://www.w3.org/2000/svg">
<path d="M25.7 9.1623H23.1V6.5623C23.1 5.3623 22.1 4.3623 20.9 4.3623H17.3C16.1 4.3623 15.1 5.3623 15.1 6.5623V9.1623H12.5C11.3 9.1623 10.3 10.1623 10.3 11.3623V14.3623C10.3 14.9623 10.7 15.3623 11.3 15.3623C11.9 15.3623 12.3 14.9623 12.3 14.3623V11.3623C12.3 11.2623 12.4 11.1623 12.5 11.1623H16.1C16.7 11.1623 17.1 10.7623 17.1 10.1623V6.5623C17.1 6.4623 17.2 6.3623 17.3 6.3623H20.9C21 6.3623 21.1 6.4623 21.1 6.5623V10.1623C21.1 10.7623 21.5 11.1623 22.1 11.1623H25.7C25.8 11.1623 25.9 11.2623 25.9 11.3623V15.0623C25.9 15.1623 25.8 15.2623 25.7 15.2623H22.1C21.5 15.2623 21.1 15.6623 21.1 16.2623V19.8623C21.1 19.9623 21 20.0623 20.9 20.0623H18C17.4 20.0623 17 20.4623 17 21.0623C17 21.6623 17.4 22.0623 18 22.0623H20.9C22.2 22.0623 23.2 21.0623 23.2 19.7623V17.1623H25.8C27 17.1623 28 16.1623 28 14.9623V11.3623C28 10.1623 27 9.1623 25.7 9.1623Z" fill="#2D373D"/>
<path d="M9.90002 19.3622C10.3 19.3622 10.7 19.1622 11 18.9622C11.2 18.6622 11.4 18.2622 11.4 17.8622C11.4 17.8622 11.4 17.8622 11.4 17.7622C11.4 16.9622 10.7 16.2622 9.90002 16.2622C9.10002 16.2622 8.40002 16.9622 8.40002 17.7622C8.40002 17.7622 8.40002 17.7622 8.40002 17.8622C8.40002 18.6622 9.10002 19.3622 9.90002 19.3622Z" fill="#2D373D"/>
<path d="M14.3 18.3623C13.5 18.3623 12.8 19.0623 12.8 19.8623C12.8 20.6623 13.5 21.3623 14.3 21.3623C14.7 21.3623 15.1 21.2623 15.4 20.9623C15.6 20.6623 15.8 20.2623 15.8 19.8623C15.8 19.0623 15.1 18.3623 14.3 18.3623Z" fill="#2D373D"/>
<path d="M6.6 20.9623C6.8 20.6623 7 20.2623 7 19.8623C7 19.0623 6.4 18.3623 5.5 18.3623C4.7 18.3623 4 19.0623 4 19.8623C4 20.6623 4.7 21.3623 5.5 21.3623C5.9 21.3623 6.3 21.2623 6.6 20.9623Z" fill="#2D373D"/>
<path d="M11.8 21.3623C11.3 20.8623 10.6 20.5623 9.89998 20.5623C9.19998 20.5623 8.49998 20.8623 7.99998 21.3623L5.39998 23.8623C4.89998 24.3623 4.59998 25.0623 4.59998 25.7623C4.59998 27.2623 5.79998 28.4623 7.29998 28.4623H12.5C13.2 28.4623 13.9 28.2623 14.4 27.7623C14.9 27.2623 15.2 26.5623 15.2 25.8623C15.2 25.1623 14.9 24.4623 14.4 23.9623L11.8 21.3623ZM13 26.3623C12.8 26.4623 12.7 26.5623 12.5 26.5623H7.29998C6.89998 26.5623 6.59998 26.2623 6.59998 25.8623C6.59998 25.6623 6.69998 25.4623 6.79998 25.3623L9.39998 22.7623C9.59998 22.6623 9.69998 22.5623 9.89998 22.5623C10.1 22.5623 10.3 22.6623 10.4 22.7623L13 25.3623C13.1 25.5623 13.2 25.6623 13.2 25.8623C13.2 26.0623 13.1 26.2623 13 26.3623Z" fill="#2D373D"/>
</svg>
