<svg width="24" height="25" viewBox="0 0 24 25" fill="none" xmlns="http://www.w3.org/2000/svg">
<path d="M18.8248 12.9871C18.4498 12.9871 18.0748 13.2871 17.9998 13.6621C17.8498 14.8621 17.2498 17.9371 15.3748 19.7371C14.5498 19.3621 13.7998 18.6121 13.3498 17.8621C14.1748 17.4871 14.6998 16.8871 14.6998 16.0621C14.6998 14.9371 13.5748 14.0371 12.0748 14.0371C10.5748 14.0371 9.44978 14.9371 9.44978 16.0621C9.44978 16.8871 10.0498 17.5621 10.8748 17.8621C10.3498 18.5371 9.59978 19.3621 8.77478 19.6621C6.89978 17.8621 6.29978 14.7871 6.14978 13.5871C6.14978 13.1371 5.69978 12.8371 5.32478 12.9121C4.87478 12.9121 4.57478 13.3621 4.64978 13.7371C5.39978 19.2121 8.17478 22.4371 12.0748 22.4371C13.4248 22.4371 14.6248 22.0621 15.6748 21.3121C15.9748 21.3121 16.2748 21.0871 16.3498 20.7871C17.9998 19.2871 19.1248 16.8871 19.4998 13.7371C19.4998 13.4371 19.1998 13.0621 18.8248 12.9871ZM12.0748 15.6871C12.8248 15.6871 13.1998 15.9871 13.1998 16.2121C13.1998 16.3621 12.8998 16.5871 12.3748 16.6621C12.2998 16.6621 12.2248 16.6621 12.1498 16.6621C12.0748 16.6621 11.9998 16.6621 11.8498 16.7371C11.2498 16.6621 10.9498 16.3621 10.9498 16.2121C10.9498 16.0621 11.3248 15.6871 12.0748 15.6871ZM10.3498 20.7871C11.0998 20.2621 11.7748 19.5121 12.2248 18.9121C12.6748 19.4371 13.1998 20.1871 13.9498 20.7121C13.4248 20.9371 12.7498 21.0871 12.0748 21.0871C11.3998 21.0871 10.8748 21.0121 10.3498 20.7871Z" fill="#2D373D"/>
<path d="M21.3748 5.26211C20.7748 4.06211 19.6498 3.16211 18.2998 2.86211C17.9248 2.78711 17.4748 2.78711 17.0998 2.86211C16.5748 2.93711 16.1998 3.23711 15.8248 3.61211C14.6998 2.78711 13.3498 2.41211 11.9248 2.41211C10.5748 2.48711 9.22477 2.93711 8.24977 3.68711C7.94977 3.23711 7.42477 2.86211 6.82477 2.78711C6.44977 2.71211 5.99977 2.71211 5.62477 2.78711C4.27477 3.08711 3.14977 3.98711 2.54977 5.11211C1.64977 6.53711 1.87477 8.56211 3.22477 10.8871C3.59977 11.5621 4.27477 11.9371 4.94977 11.9371C5.24977 11.9371 5.62477 11.8621 5.92477 11.7121C6.29977 11.4871 6.59977 11.1871 6.74977 10.8871C7.57477 9.38711 8.24977 7.73711 8.77477 6.01211C8.84977 5.78711 8.84977 5.48711 8.77477 5.26211C9.67477 4.43711 10.7998 3.91211 11.9998 3.91211C13.1998 3.91211 14.2498 4.28711 15.1498 4.96211C15.0748 5.26211 15.1498 5.63711 15.2248 6.01211C15.7498 7.66211 16.4248 9.31211 17.2498 10.8871C17.4748 11.2621 17.6998 11.4871 18.0748 11.7121C18.3748 11.8621 18.7498 11.9371 19.0498 11.9371C19.2748 11.9371 19.4248 11.9371 19.4998 12.0121C20.0248 11.8621 20.4748 11.4871 20.6998 11.0371C22.0498 8.71211 22.2748 6.68711 21.3748 5.26211ZM7.27477 5.63711C6.82477 7.21211 6.22477 8.71211 5.39977 10.2121C5.32477 10.2871 5.24977 10.3621 5.17477 10.4371C4.94977 10.5121 4.64977 10.4371 4.49977 10.2121C3.89977 9.16211 3.07477 7.21211 3.82477 5.86211C4.27477 5.03711 5.09977 4.43711 5.99977 4.21211C6.07477 4.21211 6.14977 4.21211 6.22477 4.21211C6.29977 4.21211 6.37477 4.21211 6.44977 4.28711C7.04977 4.43711 7.42477 5.03711 7.27477 5.63711ZM19.4998 10.1371C19.3498 10.4371 19.0498 10.5121 18.8248 10.3621C18.7498 10.2871 18.6748 10.2121 18.5998 10.1371C17.8498 8.71211 17.1748 7.13711 16.7248 5.56211C16.6498 5.33711 16.7248 5.03711 16.8748 4.73711C17.0248 4.43711 17.2498 4.28711 17.5498 4.21211C17.6998 4.21211 17.9248 4.21211 18.0748 4.21211C18.9748 4.43711 19.7248 5.03711 20.1748 5.86211C20.9998 7.13711 20.0998 9.08711 19.4998 10.1371Z" fill="#2D373D"/>
<path d="M8.99977 11.862C9.07477 11.937 9.22477 11.937 9.29977 11.937C9.89977 11.937 10.3498 11.487 10.3498 10.887C10.3498 10.737 10.3498 10.662 10.2748 10.587C10.1998 10.287 9.89977 9.98704 9.59977 9.91204C9.52477 9.83704 9.37477 9.83704 9.29977 9.83704C9.22477 9.83704 9.07477 9.83704 8.99977 9.91204C8.69977 9.98704 8.39977 10.287 8.32477 10.587C8.24977 10.662 8.24977 10.812 8.24977 10.887C8.24977 10.962 8.24977 11.112 8.32477 11.187C8.39977 11.562 8.62477 11.787 8.99977 11.862Z" fill="#2D373D"/>
<path d="M14.5497 11.862C14.6247 11.937 14.7747 11.937 14.8497 11.937C15.4497 11.937 15.8997 11.487 15.8997 10.887C15.8997 10.737 15.8997 10.662 15.8247 10.587C15.7497 10.287 15.4497 9.98704 15.1497 9.91204C15.0747 9.83704 14.9247 9.83704 14.8497 9.83704C14.7747 9.83704 14.6247 9.83704 14.5497 9.91204C14.2497 9.98704 13.9497 10.287 13.8747 10.587C13.7997 10.662 13.7997 10.812 13.7997 10.887C13.7997 10.962 13.7997 11.112 13.8747 11.187C13.9497 11.562 14.1747 11.787 14.5497 11.862Z" fill="#2D373D"/>
</svg>
