<svg width="64" height="65" viewBox="0 0 64 65" fill="none" xmlns="http://www.w3.org/2000/svg">
<path fill-rule="evenodd" clip-rule="evenodd" d="M50.6672 8.92323H40.2939C39.8101 8.92693 39.3445 9.10825 38.9856 9.43273C38.6267 9.75721 38.3995 10.2022 38.3472 10.6832C38.3353 10.7538 38.3353 10.826 38.3472 10.8966C38.3472 10.8966 38.3472 10.8966 38.3472 11.0832C38.3324 11.2607 38.3324 11.4391 38.3472 11.6166L42.1072 21.9899H39.6806C39.3701 21.9899 39.0639 22.0622 38.7861 22.201C38.5084 22.3399 38.2669 22.5415 38.0806 22.7899C37.8979 23.0401 37.7743 23.3284 37.7188 23.6332C37.6634 23.938 37.6777 24.2514 37.7606 24.5499L39.4406 30.2566L32.6672 23.3499H34.4272C34.784 23.339 35.1311 23.2316 35.4317 23.0391C35.7322 22.8466 35.9749 22.5761 36.1339 22.2566C36.3045 21.9557 36.3942 21.6158 36.3942 21.2699C36.3942 20.924 36.3045 20.5841 36.1339 20.2832L30.5072 10.0166C30.3382 9.67664 30.0747 9.39269 29.7483 9.19877C29.422 9.00484 29.0466 8.90917 28.6672 8.92323H13.7339C12.978 8.91245 12.2276 9.05339 11.5272 9.3377C10.8267 9.62202 10.1904 10.0439 9.65582 10.5785C9.12127 11.113 8.69936 11.7494 8.41505 12.4498C8.13074 13.1503 7.9898 13.9007 8.00057 14.6566V51.3232C8.00752 52.0679 8.16154 52.8039 8.45377 53.4889C8.74601 54.1739 9.1707 54.7944 9.70345 55.3147C10.2362 55.8351 10.8665 56.2451 11.5582 56.5211C12.2499 56.7971 12.9893 56.9338 13.7339 56.9232H50.4006C51.8815 56.9093 53.2978 56.3149 54.345 55.2677C55.3922 54.2205 55.9867 52.8041 56.0006 51.3232V14.4432C56.015 13.007 55.4636 11.6228 54.4656 10.5898C53.4676 9.55686 52.1031 8.95819 50.6672 8.92323V8.92323ZM34.2939 30.6299L34.6406 30.9766H34.2939V30.6299ZM30.2939 52.9766H13.7339C13.288 52.9719 12.86 52.8007 12.5339 52.4966C12.2359 52.1773 12.0651 51.7599 12.0539 51.3232V34.9766H30.2939V52.9766ZM12.0539 30.9766V14.6566C12.0586 14.2107 12.2298 13.7826 12.5339 13.4566C12.86 13.1524 13.288 12.9812 13.7339 12.9766H27.5739L31.0406 19.3499H27.8406C27.4464 19.3472 27.0605 19.4626 26.7326 19.6813C26.4047 19.8999 26.1497 20.2117 26.0006 20.5766C25.8468 20.9423 25.8053 21.3454 25.8812 21.7348C25.9572 22.1242 26.1473 22.4822 26.4272 22.7632L30.2939 26.6299V30.9766H12.0539ZM52.0539 51.3232C52.0575 51.5413 52.0172 51.758 51.9354 51.9602C51.8536 52.1624 51.7319 52.3461 51.5777 52.5003C51.4234 52.6546 51.2397 52.7762 51.0375 52.8581C50.8353 52.9399 50.6187 52.9802 50.4006 52.9766H34.4006V34.9766H38.7472L42.3206 38.5499C42.6346 38.8632 43.0439 39.0633 43.4841 39.1185C43.9243 39.1738 44.3703 39.0811 44.752 38.8551C45.1338 38.6291 45.4296 38.2826 45.5928 37.8701C45.7561 37.4577 45.7776 37.0026 45.6539 36.5766L45.1739 34.9766H52.1606L52.0539 51.3232ZM52.0539 30.9766H43.8672L42.3739 25.9899H45.0406C45.3602 25.988 45.6746 25.9095 45.9577 25.761C46.2407 25.6126 46.484 25.3984 46.6672 25.1366C46.855 24.8731 46.9752 24.5674 47.017 24.2465C47.0589 23.9257 47.0212 23.5994 46.9072 23.2966L43.1206 12.9766H50.6672C50.8598 12.9766 51.0506 13.0145 51.2285 13.0882C51.4065 13.1619 51.5681 13.2699 51.7043 13.4061C51.8405 13.5423 51.9486 13.704 52.0223 13.882C52.096 14.0599 52.1339 14.2506 52.1339 14.4432L52.0539 30.9766Z" fill="#2D373D"/>
</svg>
