<svg width="16" height="17" viewBox="0 0 16 17" fill="none" xmlns="http://www.w3.org/2000/svg">
<path d="M9.0502 11.261H7.6502C7.4502 10.461 6.6502 9.81099 5.7502 9.81099H2.9502V9.51099C2.9502 9.21099 2.7502 9.01099 2.4502 9.01099C2.1502 9.01099 1.9502 9.21099 1.9502 9.51099V13.961C1.9502 14.261 2.1502 14.461 2.4502 14.461C2.7502 14.461 2.9502 14.261 2.9502 13.961V13.761H10.5502C10.8502 13.761 11.0502 13.511 11.0502 13.261C11.0502 12.711 10.8002 12.211 10.4502 11.861C10.0502 11.461 9.6002 11.261 9.0502 11.261ZM2.9502 12.761V10.811H5.7502C6.1002 10.811 6.45019 11.011 6.60019 11.261H5.4002C5.1002 11.261 4.9002 11.461 4.9002 11.761C4.9002 12.061 5.1002 12.261 5.4002 12.261H9.1002C9.4502 12.261 9.8002 12.461 9.9502 12.761H2.9502Z" fill="#2D373D"/>
<path d="M11.3003 2.46094C9.80034 2.46094 8.60034 3.66094 8.60034 5.16094C8.60034 6.66094 9.80034 7.86094 11.3003 7.86094C12.8003 7.86094 14.0003 6.61094 14.0003 5.16094C14.0003 3.66094 12.8003 2.46094 11.3003 2.46094ZM11.3003 6.81094C10.3503 6.81094 9.60034 6.06094 9.60034 5.11094C9.60034 4.16094 10.3503 3.41094 11.3003 3.41094C12.2503 3.41094 13.0003 4.16094 13.0003 5.11094C13.0003 6.06094 12.2503 6.81094 11.3003 6.81094Z" fill="#2D373D"/>
<path d="M11.3503 8.31094C11.0503 8.31094 10.8503 8.51094 10.8503 8.81094C10.8503 9.36094 10.4003 9.81094 9.85034 9.81094C9.30034 9.81094 8.85034 9.36094 8.85034 8.81094C8.85034 8.56094 8.95034 8.36094 9.10034 8.16094C9.30034 7.96094 9.25034 7.66094 9.05034 7.46094C8.85034 7.26094 8.55034 7.31094 8.35034 7.51094C8.05034 7.86094 7.85034 8.31094 7.85034 8.81094C7.85034 9.91094 8.75034 10.8109 9.85034 10.8109C10.9003 10.8109 11.8003 9.91094 11.8503 8.81094C11.8503 8.51094 11.6503 8.31094 11.3503 8.31094Z" fill="#2D373D"/>
</svg>
