<svg width="24" height="24" viewBox="0 0 24 24" fill="none" xmlns="http://www.w3.org/2000/svg">
<path d="M19.2002 15.2251C19.1252 15.2251 19.1252 15.2251 19.2002 15.2251C18.6002 15.2251 18.1502 15.6751 18.1502 16.2001C18.1502 16.4251 18.2252 16.6501 18.3752 16.7251C18.5252 16.9501 18.6752 17.1001 18.9002 17.1751C18.9752 17.2501 19.1252 17.2501 19.2002 17.2501C19.7252 17.2501 20.1752 16.8001 20.1752 16.2751C20.1752 16.2751 20.1752 16.2751 20.1752 16.2001C20.1752 15.6751 19.7252 15.2251 19.2002 15.2251Z" fill="#2D373D"/>
<path d="M9.1502 15.2251C9.0752 15.2251 9.0752 15.2251 9.0752 15.2251C8.5502 15.2251 8.1002 15.6751 8.1002 16.2001C8.1002 16.5751 8.4002 16.9501 8.7752 17.1001C8.8502 17.1751 9.0002 17.1751 9.0752 17.1751C9.6002 17.1751 9.9752 16.8751 10.0502 16.5001C10.1252 16.4251 10.1252 16.2751 10.1252 16.1251C10.1252 15.6751 9.6752 15.2251 9.1502 15.2251Z" fill="#2D373D"/>
<path d="M20.2502 13.4251L19.4252 11.5501C19.1252 10.7251 18.3002 10.1251 17.4002 10.1251H10.8002C9.90018 10.1251 9.07518 10.6501 8.77518 11.4751L7.87518 13.4251C6.90018 13.5751 6.15018 14.4001 6.15018 15.4501V17.8501C6.22518 18.2251 6.37518 18.6001 6.67518 18.8251V19.4251C6.67518 20.4001 7.42518 21.1501 8.40018 21.1501C9.30018 21.1501 10.1252 20.3251 10.1252 19.4251V19.2001H18.1502V19.4251C18.1502 20.4001 18.9002 21.1501 19.8752 21.1501C20.8502 21.1501 21.6002 20.3251 21.6002 19.4251V18.7501C21.8252 18.5251 22.0502 18.1501 21.9752 17.7751V15.3751C21.9752 14.4001 21.2252 13.5751 20.2502 13.4251ZM20.5502 17.6251H7.72518V15.3751C7.72518 15.0751 7.95018 14.8501 8.25018 14.8501H19.5002C19.6502 14.9251 19.8752 14.9251 20.0252 14.8501C20.3252 14.8501 20.4752 15.0751 20.4752 15.3751V17.6251H20.5502ZM10.8002 11.5501H17.4002C17.7002 11.5501 17.9252 11.7751 18.0752 12.0751L18.6002 13.3501H9.52518L10.1252 12.0001C10.2752 11.7001 10.5002 11.5501 10.8002 11.5501ZM8.62518 19.3501C8.62518 19.5751 8.17518 19.5751 8.17518 19.3501V19.1251H8.62518V19.3501ZM19.6502 19.3501V19.1251H20.1002V19.3501C20.1002 19.5751 19.6502 19.5751 19.6502 19.3501Z" fill="#2D373D"/>
<path d="M5.17518 8.32506C5.10018 8.32506 5.02518 8.25006 4.87518 8.25006C4.72518 8.25006 4.65018 8.25006 4.57518 8.32506C4.27518 8.40006 4.12518 8.62506 3.97518 8.92506C3.90018 9.00006 3.90018 9.15006 3.90018 9.22506C3.90018 9.30006 3.90018 9.45006 3.97518 9.52506C4.05018 9.82506 4.27518 9.97506 4.57518 10.1251C4.65018 10.2001 4.80018 10.2001 4.87518 10.2001C4.95018 10.2001 5.10018 10.2001 5.17518 10.1251C5.47518 10.0501 5.70018 9.82506 5.77518 9.52506C5.85018 9.45006 5.85018 9.37506 5.85018 9.22506C5.85018 9.07506 5.85018 9.00006 5.77518 8.92506C5.70018 8.62506 5.47518 8.40006 5.17518 8.32506Z" fill="#2D373D"/>
<path d="M7.0502 12.1501C7.4252 12.1501 7.8002 11.8501 7.8002 11.4001C7.8002 10.9501 7.5002 10.6501 7.0502 10.6501H3.6752C3.6002 10.6501 3.6002 10.6501 3.5252 10.5751C3.5252 10.5751 3.4502 10.5001 3.4502 10.4251V9.0001C3.4502 8.3251 3.9752 7.8001 4.6502 7.8001H14.2502C14.3252 7.8001 14.4752 7.8001 14.5502 7.8001C14.5502 7.8001 14.5502 7.8001 14.6252 7.8001C14.9252 7.8751 15.1502 8.1001 15.3002 8.3251C15.5252 8.7001 15.9752 8.8501 16.3502 8.6251C16.7252 8.4001 16.8752 7.9501 16.6502 7.5751C16.3502 7.0501 15.9002 6.6001 15.3002 6.3751L14.3252 4.2751C14.0252 3.4501 13.2002 2.8501 12.3002 2.8501H6.6002C5.7002 2.8501 4.8752 3.4501 4.5752 4.2751L3.6002 6.5251C2.6252 6.9001 1.9502 7.8751 1.9502 9.0001V10.4251C1.9502 10.8751 2.1002 11.3251 2.4002 11.6251V12.3001C2.4002 13.2751 3.1502 14.1001 4.1252 14.1001C5.1002 14.1001 5.8502 13.3501 5.8502 12.3751V12.1501H7.0502ZM6.6002 4.4251H12.3002C12.6002 4.4251 12.8252 4.5751 12.9752 4.9501L13.5752 6.3001H5.3252L5.9252 4.8751C6.0752 4.5751 6.3002 4.4251 6.6002 4.4251ZM4.3502 12.3751C4.3502 12.5251 4.2752 12.6001 4.1252 12.6001C3.9752 12.6001 3.9002 12.5251 3.9002 12.3751V12.1501H4.3502V12.3751Z" fill="#2D373D"/>
</svg>
