<svg width="64" height="65" viewBox="0 0 64 65" fill="none" xmlns="http://www.w3.org/2000/svg">
<path fill-rule="evenodd" clip-rule="evenodd" d="M11.9508 9.411C12.7273 9.08937 13.5595 8.92383 14.4 8.92383C15.2405 8.92383 16.0727 9.08937 16.8492 9.411C17.6257 9.73263 18.3312 10.2041 18.9255 10.7983C19.5198 11.3926 19.9912 12.0982 20.3128 12.8747C20.6345 13.6511 20.8 14.4834 20.8 15.3238C20.8 16.1643 20.6345 16.9965 20.3128 17.773C19.9912 18.5495 19.5198 19.255 18.9255 19.8493C18.3312 20.4436 17.6257 20.915 16.8492 21.2367C16.0727 21.5583 15.2405 21.7238 14.4 21.7238C13.5595 21.7238 12.7273 21.5583 11.9508 21.2367C11.1743 20.915 10.4688 20.4436 9.87452 19.8493C9.28022 19.255 8.8088 18.5495 8.48717 17.773C8.16554 16.9965 8 16.1643 8 15.3238C8 14.4834 8.16554 13.6511 8.48717 12.8747C8.8088 12.0982 9.28022 11.3926 9.87452 10.7983C10.4688 10.204 11.1743 9.73263 11.9508 9.411ZM14.4 12.9238C14.0848 12.9238 13.7727 12.9859 13.4816 13.1065C13.1904 13.2271 12.9258 13.4039 12.7029 13.6268C12.4801 13.8496 12.3033 14.1142 12.1827 14.4054C12.0621 14.6966 12 15.0087 12 15.3238C12 15.639 12.0621 15.9511 12.1827 16.2423C12.3033 16.5334 12.4801 16.798 12.7029 17.0209C12.9258 17.2437 13.1904 17.4205 13.4816 17.5411C13.7727 17.6618 14.0848 17.7238 14.4 17.7238C14.7152 17.7238 15.0273 17.6618 15.3184 17.5411C15.6096 17.4205 15.8742 17.2437 16.0971 17.0209C16.3199 16.798 16.4967 16.5334 16.6173 16.2423C16.7379 15.9511 16.8 15.639 16.8 15.3238C16.8 15.0087 16.7379 14.6966 16.6173 14.4054C16.4967 14.1142 16.3199 13.8496 16.0971 13.6268C15.8742 13.4039 15.6096 13.2271 15.3184 13.1065C15.0273 12.9859 14.7152 12.9238 14.4 12.9238Z" fill="#2D373D"/>
<path fill-rule="evenodd" clip-rule="evenodd" d="M27.4744 10.7983C28.6747 9.59811 30.3025 8.92383 31.9999 8.92383C33.6973 8.92383 35.3252 9.59811 36.5254 10.7983C37.7256 11.9986 38.3999 13.6264 38.3999 15.3238C38.3999 17.0212 37.7256 18.6491 36.5254 19.8493C35.3252 21.0495 33.6973 21.7238 31.9999 21.7238C30.3025 21.7238 28.6747 21.0495 27.4744 19.8493C26.2742 18.6491 25.5999 17.0212 25.5999 15.3238C25.5999 13.6264 26.2742 11.9986 27.4744 10.7983ZM31.9999 12.9238C31.3634 12.9238 30.753 13.1767 30.3029 13.6268C29.8528 14.0769 29.5999 14.6873 29.5999 15.3238C29.5999 15.9603 29.8528 16.5708 30.3029 17.0209C30.753 17.471 31.3634 17.7238 31.9999 17.7238C32.6364 17.7238 33.2469 17.471 33.697 17.0209C34.1471 16.5708 34.3999 15.9603 34.3999 15.3238C34.3999 14.6873 34.1471 14.0769 33.697 13.6268C33.2469 13.1767 32.6364 12.9238 31.9999 12.9238Z" fill="#2D373D"/>
<path fill-rule="evenodd" clip-rule="evenodd" d="M45.0745 10.7983C46.2747 9.59811 47.9026 8.92383 49.6 8.92383C51.2974 8.92383 52.9252 9.59811 54.1255 10.7983C55.3257 11.9986 56 13.6264 56 15.3238C56 17.0212 55.3257 18.6491 54.1255 19.8493C52.9252 21.0495 51.2974 21.7238 49.6 21.7238C47.9026 21.7238 46.2747 21.0495 45.0745 19.8493C43.8743 18.6491 43.2 17.0212 43.2 15.3238C43.2 13.6264 43.8743 11.9986 45.0745 10.7983ZM49.6 12.9238C48.9635 12.9238 48.353 13.1767 47.9029 13.6268C47.4528 14.0769 47.2 14.6873 47.2 15.3238C47.2 15.9603 47.4528 16.5708 47.9029 17.0209C48.353 17.471 48.9635 17.7238 49.6 17.7238C50.2365 17.7238 50.8469 17.471 51.297 17.0209C51.7471 16.5708 52 15.9603 52 15.3238C52 14.6873 51.7471 14.0769 51.297 13.6268C50.8469 13.1767 50.2365 12.9238 49.6 12.9238Z" fill="#2D373D"/>
<path fill-rule="evenodd" clip-rule="evenodd" d="M11.9508 27.0109C12.7273 26.6893 13.5595 26.5238 14.4 26.5238C15.2405 26.5238 16.0727 26.6893 16.8492 27.0109C17.6257 27.3326 18.3312 27.804 18.9255 28.3983C19.5198 28.9926 19.9912 29.6981 20.3128 30.4746C20.6345 31.2511 20.8 32.0833 20.8 32.9238C20.8 33.7642 20.6345 34.5964 20.3128 35.3729C19.9912 36.1494 19.5198 36.8549 18.9255 37.4492C18.3312 38.0435 17.6257 38.515 16.8492 38.8366C16.0727 39.1582 15.2405 39.3238 14.4 39.3238C13.5595 39.3238 12.7273 39.1582 11.9508 38.8366C11.1743 38.515 10.4688 38.0435 9.87452 37.4492C9.28022 36.8549 8.8088 36.1494 8.48717 35.3729C8.16554 34.5964 8 33.7642 8 32.9238C8 32.0833 8.16554 31.2511 8.48717 30.4746C8.8088 29.6981 9.28022 28.9926 9.87452 28.3983C10.4688 27.804 11.1743 27.3326 11.9508 27.0109ZM14.4 30.5238C14.0848 30.5238 13.7727 30.5858 13.4816 30.7064C13.1904 30.8271 12.9258 31.0038 12.7029 31.2267C12.4801 31.4496 12.3033 31.7141 12.1827 32.0053C12.0621 32.2965 12 32.6086 12 32.9238C12 33.2389 12.0621 33.551 12.1827 33.8422C12.3033 34.1334 12.4801 34.3979 12.7029 34.6208C12.9258 34.8437 13.1904 35.0205 13.4816 35.1411C13.7727 35.2617 14.0848 35.3238 14.4 35.3238C14.7152 35.3238 15.0273 35.2617 15.3184 35.1411C15.6096 35.0205 15.8742 34.8437 16.0971 34.6208C16.3199 34.3979 16.4967 34.1334 16.6173 33.8422C16.7379 33.551 16.8 33.2389 16.8 32.9238C16.8 32.6086 16.7379 32.2965 16.6173 32.0053C16.4967 31.7141 16.3199 31.4496 16.0971 31.2267C15.8742 31.0038 15.6096 30.8271 15.3184 30.7064C15.0273 30.5858 14.7152 30.5238 14.4 30.5238Z" fill="#2D373D"/>
<path fill-rule="evenodd" clip-rule="evenodd" d="M27.4744 28.3983C28.6747 27.198 30.3025 26.5238 31.9999 26.5238C33.6973 26.5238 35.3252 27.198 36.5254 28.3983C37.7256 29.5985 38.3999 31.2264 38.3999 32.9238C38.3999 34.6211 37.7256 36.249 36.5254 37.4492C35.3252 38.6495 33.6973 39.3238 31.9999 39.3238C30.3025 39.3238 28.6747 38.6495 27.4744 37.4492C26.2742 36.249 25.5999 34.6211 25.5999 32.9238C25.5999 31.2264 26.2742 29.5985 27.4744 28.3983ZM31.9999 30.5238C31.3634 30.5238 30.753 30.7766 30.3029 31.2267C29.8528 31.6768 29.5999 32.2872 29.5999 32.9238C29.5999 33.5603 29.8528 34.1707 30.3029 34.6208C30.753 35.0709 31.3634 35.3238 31.9999 35.3238C32.6364 35.3238 33.2469 35.0709 33.697 34.6208C34.1471 34.1707 34.3999 33.5603 34.3999 32.9238C34.3999 32.2872 34.1471 31.6768 33.697 31.2267C33.2469 30.7766 32.6364 30.5238 31.9999 30.5238Z" fill="#2D373D"/>
<path fill-rule="evenodd" clip-rule="evenodd" d="M45.0745 28.3983C46.2747 27.198 47.9026 26.5238 49.6 26.5238C51.2974 26.5238 52.9252 27.198 54.1255 28.3983C55.3257 29.5985 56 31.2264 56 32.9238C56 34.6211 55.3257 36.249 54.1255 37.4492C52.9252 38.6495 51.2974 39.3238 49.6 39.3238C47.9026 39.3238 46.2747 38.6495 45.0745 37.4492C43.8743 36.249 43.2 34.6211 43.2 32.9238C43.2 31.2264 43.8743 29.5985 45.0745 28.3983ZM49.6 30.5238C48.9635 30.5238 48.353 30.7766 47.9029 31.2267C47.4528 31.6768 47.2 32.2872 47.2 32.9238C47.2 33.5603 47.4528 34.1707 47.9029 34.6208C48.353 35.0709 48.9635 35.3238 49.6 35.3238C50.2365 35.3238 50.8469 35.0709 51.297 34.6208C51.7471 34.1707 52 33.5603 52 32.9238C52 32.2872 51.7471 31.6768 51.297 31.2267C50.8469 30.7766 50.2365 30.5238 49.6 30.5238Z" fill="#2D373D"/>
<path fill-rule="evenodd" clip-rule="evenodd" d="M27.4744 45.9983C28.6747 44.7981 30.3025 44.1238 31.9999 44.1238C33.6973 44.1238 35.3252 44.7981 36.5254 45.9983C37.7256 47.1986 38.3999 48.8264 38.3999 50.5238C38.3999 52.2212 37.7256 53.8491 36.5254 55.0493C35.3252 56.2495 33.6973 56.9238 31.9999 56.9238C30.3025 56.9238 28.6747 56.2495 27.4744 55.0493C26.2742 53.8491 25.5999 52.2212 25.5999 50.5238C25.5999 48.8264 26.2742 47.1986 27.4744 45.9983ZM31.9999 48.1238C31.3634 48.1238 30.753 48.3767 30.3029 48.8267C29.8528 49.2768 29.5999 49.8873 29.5999 50.5238C29.5999 51.1603 29.8528 51.7708 30.3029 52.2209C30.753 52.6709 31.3634 52.9238 31.9999 52.9238C32.6364 52.9238 33.2469 52.6709 33.697 52.2209C34.1471 51.7708 34.3999 51.1603 34.3999 50.5238C34.3999 49.8873 34.1471 49.2768 33.697 48.8267C33.2469 48.3767 32.6364 48.1238 31.9999 48.1238Z" fill="#2D373D"/>
</svg>
