<svg width="16" height="17" viewBox="0 0 16 17" fill="none" xmlns="http://www.w3.org/2000/svg">
<path fill-rule="evenodd" clip-rule="evenodd" d="M3.46662 7.32076H3.1699C2.52378 7.32076 2 7.84455 2 8.49068V13.752C2 14.3981 2.52378 14.9219 3.1699 14.9219H4.33422C4.61113 14.9219 4.83561 14.6974 4.83561 14.4205C4.83561 14.1436 4.61113 13.9191 4.33422 13.9191H3.1699C3.0776 13.9191 3.00277 13.8443 3.00277 13.752V8.49068C3.00277 8.39837 3.0776 8.32355 3.1699 8.32355H9.89734C9.98965 8.32355 10.0645 8.39837 10.0645 8.49068V8.92188C10.0645 9.19879 10.289 9.42327 10.5659 9.42327C10.8428 9.42327 11.0672 9.19879 11.0672 8.92188V8.49068C11.0672 7.84455 10.5435 7.32076 9.89734 7.32076H9.60134V5.98927C9.60134 4.29519 8.22803 2.92188 6.53398 2.92188C4.83993 2.92188 3.46662 4.29519 3.46662 5.98926L3.46662 7.32076ZM4.4694 7.32076H8.59856V5.98927C8.59856 4.84902 7.67422 3.92466 6.53398 3.92466C5.39374 3.92466 4.4694 4.84902 4.4694 5.98926L4.4694 7.32076Z" fill="#2D373D"/>
<path d="M8.48495 11.5698C8.61685 11.4406 8.82848 11.4429 8.95763 11.5748L9.34863 11.9741L9.7615 11.5698C9.8934 11.4406 10.105 11.4429 10.2342 11.5748C10.3633 11.7067 10.3611 11.9183 10.2292 12.0475L9.81634 12.4517L10.1884 12.8318C10.3176 12.9637 10.3154 13.1753 10.1835 13.3045C10.0516 13.4336 9.83994 13.4314 9.71079 13.2995L9.33869 12.9195L8.97224 13.2783C8.84034 13.4075 8.62871 13.4052 8.49956 13.2733C8.3704 13.1414 8.37263 12.9298 8.50453 12.8006L8.87097 12.4418L8.47998 12.0425C8.35082 11.9106 8.35305 11.699 8.48495 11.5698Z" fill="#2D373D"/>
<path fill-rule="evenodd" clip-rule="evenodd" d="M7.31281 9.79513C5.89711 9.79513 4.74947 10.9428 4.74947 12.3585C4.74947 13.7742 5.89712 14.9219 7.31281 14.9219H11.4367C12.8524 14.9219 14 13.7742 14 12.3585C14 10.9428 12.8524 9.79513 11.4367 9.79513H7.31281ZM5.75224 12.3585C5.75224 11.4966 6.45093 10.7979 7.31281 10.7979H11.4367C12.2985 10.7979 12.9972 11.4966 12.9972 12.3585C12.9972 13.2204 12.2985 13.9191 11.4367 13.9191H7.31281C6.45093 13.9191 5.75224 13.2204 5.75224 12.3585Z" fill="#2D373D"/>
</svg>
