<svg width="64" height="65" viewBox="0 0 64 65" fill="none" xmlns="http://www.w3.org/2000/svg">
<path d="M29.9998 32.0605C30.9998 31.4605 31.3998 30.2605 30.7998 29.2605C29.1998 26.4605 26.5998 24.2605 23.3998 23.4605H23.1998C25.9998 22.2605 27.9998 19.4605 28.1998 16.0605C28.1998 11.6605 24.5998 8.06055 20.1998 8.06055C15.7998 8.06055 12.1998 11.6605 12.1998 16.0605C12.1998 19.4605 14.1998 22.2605 17.1998 23.4605C15.9998 23.6605 14.9998 24.0605 13.9998 24.6605C10.1998 26.8605 7.7998 30.8605 7.7998 35.2605V39.6605C7.7998 40.8605 8.5998 41.6605 9.7998 41.6605H12.5998L13.7998 54.6605C13.9998 55.6605 14.7998 56.4605 15.7998 56.4605H24.5998C25.5998 56.4605 26.3998 55.6605 26.3998 54.6605L26.9998 48.2605C27.1998 47.0605 26.1998 46.2605 25.1998 46.0605C23.9998 46.0605 23.1998 46.8605 22.9998 47.8605L22.5998 52.4605H17.3998L16.1998 39.4605C15.9998 38.4605 15.1998 37.6605 14.1998 37.6605H11.7998V35.2605C11.7998 32.4605 13.3998 29.6605 15.7998 28.2605C16.5998 27.8605 17.3998 27.4605 18.1998 27.2605V34.8605C18.1998 36.0605 18.9998 36.8605 20.1998 36.8605C21.1998 36.8605 22.1998 36.0605 22.1998 34.8605V27.4605C24.1998 28.0605 26.1998 29.2605 27.1998 31.2605C27.7998 32.2605 28.9998 32.6605 29.9998 32.0605ZM20.1998 20.2605C17.9998 20.2605 16.1998 18.4605 16.1998 16.2605C16.1998 14.0605 17.9998 12.2605 20.1998 12.2605C22.1998 12.2605 24.1998 14.0605 24.1998 16.2605C24.1998 18.4605 22.3998 20.2605 20.1998 20.2605Z" fill="#2D373D"/>
<path d="M42.1994 28.8604C34.5994 28.8604 28.3994 35.0604 28.3994 42.6604C28.3994 50.2603 34.5994 56.4604 42.1994 56.4604C49.7994 56.4604 55.9994 50.2603 55.9994 42.6604C55.9994 35.0604 49.7994 28.8604 42.1994 28.8604ZM42.1994 52.4604C36.7994 52.4604 32.3994 48.0604 32.3994 42.6604C32.3994 37.2604 36.7994 32.8604 42.1994 32.8604C47.5994 32.8604 51.9994 37.2604 51.9994 42.6604C51.9994 48.0604 47.5994 52.4604 42.1994 52.4604Z" fill="#2D373D"/>
<path d="M42.2002 40.6606C41.0002 40.6606 40.2002 41.4606 40.2002 42.6606V48.6606C40.2002 49.8606 41.0002 50.6606 42.2002 50.6606C43.4002 50.6606 44.2002 49.6606 44.2002 48.6606V42.6606C44.2002 41.4606 43.4002 40.6606 42.2002 40.6606Z" fill="#2D373D"/>
<path d="M43.3994 36.8605C43.1994 36.6604 43.1994 36.6604 43.1994 36.6604H42.7994C42.5994 36.6604 42.5994 36.4604 42.5994 36.4604C42.5994 36.4604 42.3994 36.4604 42.1994 36.4604C41.7994 36.4604 41.3994 36.6604 40.9994 37.0604C40.5994 37.4604 40.3994 37.8604 40.3994 38.2604C40.3994 38.6604 40.5994 39.0604 40.9994 39.4604C41.3994 39.8604 41.7994 40.0604 42.1994 40.0604C42.5994 40.0604 42.9994 39.8604 43.3994 39.4604C43.7994 39.0604 43.9994 38.6604 43.9994 38.2604C43.7994 37.4604 43.5994 37.0605 43.3994 36.8605Z" fill="#2D373D"/>
</svg>
