<svg width="24" height="25" viewBox="0 0 24 25" fill="none" xmlns="http://www.w3.org/2000/svg">
<path fill-rule="evenodd" clip-rule="evenodd" d="M6.45728 4.21216C6.71119 3.8849 7.18233 3.82543 7.50959 4.07935L9.50667 5.62881H14V5.24087C14 4.85654 14.2905 4.5344 14.6728 4.49486L20.1728 3.92589C20.384 3.90404 20.5946 3.97275 20.7523 4.11496C20.91 4.25718 21 4.45957 21 4.67191V8.0857C21 8.29804 20.91 8.50043 20.7523 8.64265C20.5946 8.78486 20.384 8.85357 20.1728 8.83172L14.6728 8.26275C14.2905 8.22321 14 7.90107 14 7.51674V7.12881H12.7498V7.59225C13.2015 7.93259 13.5795 8.36602 13.8595 8.86494C14.2123 9.49352 14.398 10.2052 14.3998 10.9287L14.3998 10.9305V12.0468C14.4 12.054 14.4001 12.0612 14.4001 12.0685C14.4001 12.0757 14.4 12.0829 14.3998 12.0901L14.3998 17.7364C14.4 17.7437 14.4001 17.7509 14.4001 17.7581C14.4001 17.7654 14.4 17.7726 14.3998 17.7798V20.034C14.3998 20.5266 14.2108 21.004 13.8668 21.3599C13.522 21.7166 13.0488 21.9219 12.5498 21.9219H8.1498C7.65079 21.9219 7.17757 21.7166 6.83274 21.3599C6.48875 21.004 6.2998 20.5266 6.2998 20.034V10.9305L6.29981 10.9287C6.30155 10.2052 6.48727 9.49352 6.84009 8.86494C7.12013 8.36602 7.49813 7.93259 7.9498 7.59225V7.13454C7.06237 7.18532 6.21671 7.57248 5.57797 8.23325C4.89051 8.94441 4.5 9.91421 4.5 10.9305V18.8961C4.5 19.3103 4.16421 19.6461 3.75 19.6461C3.33579 19.6461 3 19.3103 3 18.8961V10.9305C3 9.53248 3.53662 8.18679 4.49948 7.19072C5.23343 6.43146 6.16974 5.92275 7.18152 5.72335L6.59009 5.26447C6.26283 5.01056 6.20336 4.53942 6.45728 4.21216ZM12.8998 17.0081V12.8185H11.1001V17.0081H12.8998ZM12.8998 11.3185H10.3501C9.93588 11.3185 9.6001 11.6543 9.6001 12.0685V17.7581C9.6001 18.1724 9.93588 18.5081 10.3501 18.5081H12.8998V20.034C12.8998 20.1449 12.8569 20.2464 12.7884 20.3174C12.7206 20.3874 12.6342 20.4219 12.5498 20.4219H8.1498C8.06534 20.4219 7.97898 20.3874 7.91123 20.3174C7.84264 20.2464 7.7998 20.1449 7.7998 20.034V10.9315C7.80108 10.4619 7.9218 10.0023 8.14813 9.59913C8.3745 9.19582 8.6977 8.86442 9.08277 8.63574C9.31032 8.5006 9.4498 8.25554 9.4498 7.99088V7.12881H11.2498V7.99088C11.2498 8.25554 11.3893 8.5006 11.6168 8.63574C12.0019 8.86442 12.3251 9.19582 12.5515 9.59913C12.7778 10.0023 12.8985 10.4619 12.8998 10.9314V11.3185ZM15.5 5.91729V6.84032L19.5 7.25411V5.5035L15.5 5.91729Z" fill="#2D373D"/>
</svg>
