<svg width="24" height="25" viewBox="0 0 24 25" fill="none" xmlns="http://www.w3.org/2000/svg">
<path d="M18.75 16.7352C17.7 16.2852 17.025 15.2352 17.025 14.1102C17.025 14.0352 17.025 14.0352 17.025 14.0352C17.1 13.0602 17.625 12.1602 18.45 11.6352C18.675 11.5602 18.75 11.4102 18.825 11.1852C18.825 10.9602 18.825 10.7352 18.675 10.5852C17.85 9.38524 16.5 8.71024 15.15 8.63524C14.25 8.56024 13.35 8.93524 12.675 9.16024C12.45 9.23524 12.075 9.38524 12 9.38524C11.85 9.38524 11.55 9.23524 11.25 9.16024C10.725 8.93524 10.05 8.71024 9.3 8.71024C7.65 8.71024 6.15 9.68524 5.325 11.1102C3.75 13.7352 4.725 17.7102 6.375 20.1102C7.05 21.0852 8.025 22.5102 9.525 22.5102C9.6 22.5102 9.6 22.5102 9.525 22.4352C10.2 22.4352 10.65 22.2102 11.025 22.0602C11.4 21.9102 11.7 21.7602 12.225 21.7602C12.675 21.7602 12.975 21.9102 13.35 22.0602C13.8 22.2102 14.25 22.4352 14.925 22.4352C16.425 22.4352 17.4 21.0102 18 20.1102C18.525 19.3602 18.9 18.5352 19.2 17.6352C19.275 17.2602 19.125 16.8852 18.75 16.7352ZM16.875 19.3602C16.275 20.2602 15.675 21.0102 15 21.0102C14.625 21.0102 14.325 20.9352 14.025 20.7852C13.65 20.6352 13.125 20.4102 12.3 20.4102C11.475 20.4102 10.95 20.6352 10.5 20.7852C10.2 20.8602 9.975 21.0102 9.6 21.0102C8.925 21.0102 8.25 20.1102 7.65 19.2852C6.45 17.5602 5.4 14.1102 6.675 11.8602C7.275 10.8852 8.325 10.2102 9.45 10.2102C9.825 10.2102 10.35 10.4352 10.8 10.5102C11.25 10.7352 11.625 10.8852 12.075 10.8852C12.45 10.8852 12.825 10.7352 13.35 10.6602C13.95 10.4352 14.55 10.1352 15.225 10.2102C15.9 10.2102 16.575 10.5102 17.1 10.9602C16.2 11.7852 15.675 12.9852 15.675 14.1852V14.2602C15.675 15.7602 16.5 17.1102 17.7 17.8602C17.475 18.3852 17.175 18.9102 16.875 19.3602Z" fill="#2D373D"/>
<path d="M12 8.26016C13.275 8.26016 14.475 7.66016 15.3 6.61016C16.125 5.63516 16.5 4.36016 16.425 3.08516C16.35 2.86016 16.275 2.71016 16.125 2.56016C15.975 2.48516 15.825 2.41016 15.6 2.41016C14.325 2.56016 13.2 3.16016 12.375 4.06016C11.55 5.03516 11.1 6.31016 11.25 7.58516C11.25 7.96016 11.625 8.26016 12 8.26016ZM13.5 5.03516C13.875 4.66016 14.325 4.28516 14.85 4.13516C14.775 4.66016 14.55 5.18516 14.1 5.63516C13.8 6.08516 13.275 6.46016 12.75 6.61016C12.825 6.01016 13.125 5.48516 13.5 5.03516Z" fill="#2D373D"/>
</svg>
