<svg width="32" height="33" viewBox="0 0 32 33" fill="none" xmlns="http://www.w3.org/2000/svg">
<path fill-rule="evenodd" clip-rule="evenodd" d="M6.47198 4.92578C5.81844 4.92578 5.19167 5.1854 4.72955 5.64752C4.26743 6.10964 4.00781 6.73641 4.00781 7.38995V23.4958C4.00781 24.1493 4.26743 24.7761 4.72955 25.2382C5.19167 25.7003 5.81844 25.9599 6.47198 25.9599H12.3286C12.8809 25.9599 13.3286 25.5122 13.3286 24.9599C13.3286 24.4077 12.8809 23.9599 12.3286 23.9599H6.47198C6.34888 23.9599 6.23081 23.911 6.14376 23.824C6.05672 23.7369 6.00781 23.6189 6.00781 23.4958V11.3191H24.5061V13.2466C24.5061 13.7989 24.9539 14.2466 25.5061 14.2466C26.0584 14.2466 26.5061 13.7989 26.5061 13.2466V7.38995C26.5061 6.73641 26.2465 6.10964 25.7844 5.64752C25.3223 5.1854 24.6955 4.92578 24.042 4.92578H6.47198ZM24.5061 9.31913V7.38995C24.5061 7.26684 24.4572 7.14878 24.3702 7.06173C24.2831 6.97468 24.1651 6.92578 24.042 6.92578H6.47198C6.34887 6.92578 6.23081 6.97468 6.14376 7.06173C6.05672 7.14878 6.00781 7.26684 6.00781 7.38995V9.31913H24.5061Z" fill="#2D373D"/>
<path fill-rule="evenodd" clip-rule="evenodd" d="M18.4906 15.6977C19.3224 15.3531 20.2141 15.1758 21.1145 15.1758C22.0149 15.1758 22.9065 15.3531 23.7384 15.6977C24.5703 16.0423 25.3262 16.5474 25.9629 17.1841C26.5996 17.8208 27.1046 18.5766 27.4492 19.4085C27.7938 20.2404 27.9712 21.132 27.9712 22.0325C27.9712 22.9329 27.7938 23.8245 27.4492 24.6564C27.1046 25.4883 26.5996 26.2441 25.9629 26.8808C25.3262 27.5175 24.5703 28.0226 23.7384 28.3672C22.9065 28.7118 22.0149 28.8891 21.1145 28.8891C20.2141 28.8891 19.3224 28.7118 18.4906 28.3672C17.6587 28.0226 16.9028 27.5175 16.2661 26.8808C15.6294 26.2441 15.1243 25.4883 14.7798 24.6564C14.4352 23.8245 14.2578 22.9329 14.2578 22.0325C14.2578 21.132 14.4352 20.2404 14.7798 19.4085C15.1243 18.5766 15.6294 17.8208 16.2661 17.1841C16.9028 16.5474 17.6587 16.0423 18.4906 15.6977ZM21.1145 17.1758C20.4767 17.1758 19.8452 17.3014 19.2559 17.5455C18.6667 17.7895 18.1313 18.1473 17.6803 18.5983C17.2293 19.0493 16.8716 19.5846 16.6275 20.1739C16.3834 20.7631 16.2578 21.3947 16.2578 22.0325C16.2578 22.6702 16.3834 23.3018 16.6275 23.891C16.8716 24.4803 17.2293 25.0156 17.6803 25.4666C18.1313 25.9176 18.6667 26.2754 19.2559 26.5194C19.8452 26.7635 20.4767 26.8891 21.1145 26.8891C21.7523 26.8891 22.3838 26.7635 22.9731 26.5194C23.5623 26.2754 24.0977 25.9176 24.5487 25.4666C24.9997 25.0156 25.3574 24.4803 25.6015 23.891C25.8455 23.3018 25.9712 22.6702 25.9712 22.0325C25.9712 21.3947 25.8455 20.7631 25.6015 20.1739C25.3574 19.5846 24.9997 19.0493 24.5487 18.5983C24.0977 18.1473 23.5623 17.7895 22.9731 17.5455C22.3838 17.3014 21.7523 17.1758 21.1145 17.1758Z" fill="#2D373D"/>
<path d="M22.1145 19.1041C22.1145 18.5518 21.6668 18.1041 21.1145 18.1041C20.5622 18.1041 20.1145 18.5518 20.1145 19.1041V21.0325H18.1861C17.6338 21.0325 17.1861 21.4802 17.1861 22.0325C17.1861 22.5848 17.6338 23.0325 18.1861 23.0325H20.1145V24.9608C20.1145 25.5131 20.5622 25.9608 21.1145 25.9608C21.6668 25.9608 22.1145 25.5131 22.1145 24.9608V23.0325H24.0428C24.5951 23.0325 25.0428 22.5848 25.0428 22.0325C25.0428 21.4802 24.5951 21.0325 24.0428 21.0325H22.1145V19.1041Z" fill="#2D373D"/>
</svg>
