<svg width="16" height="16" viewBox="0 0 16 16" fill="none" xmlns="http://www.w3.org/2000/svg">
<path d="M14.55 11.3498L12.7 9.4998C13.15 8.8998 13.4 8.1498 13.4 7.3498C13.4 5.3998 11.8 3.7998 9.85003 3.7998C7.90003 3.7998 6.30002 5.3998 6.30002 7.3498C6.30002 9.2998 7.90003 10.8998 9.85003 10.8998C10.65 10.8998 11.4 10.6498 12 10.1998L13.85 12.0498C13.95 12.1498 14.05 12.1998 14.2 12.1998C14.35 12.1998 14.45 12.1498 14.55 12.0498C14.65 11.9498 14.7 11.8498 14.7 11.6998C14.7 11.5998 14.65 11.4498 14.55 11.3498ZM7.30002 7.3498C7.30002 5.9498 8.45003 4.7998 9.85003 4.7998C11.3 4.7998 12.4 5.9498 12.4 7.3498C12.4 8.7498 11.25 9.8998 9.85003 9.8998C8.45003 9.8998 7.30002 8.7498 7.30002 7.3498Z" fill="#2D373D"/>
<path d="M1.80002 4.7998H6.00002C6.25002 4.7998 6.50002 4.5498 6.50002 4.2998C6.50002 3.9998 6.30002 3.7998 6.00002 3.7998H1.80002C1.50002 3.7998 1.30002 3.9998 1.30002 4.2998C1.30002 4.5998 1.50002 4.7998 1.80002 4.7998Z" fill="#2D373D"/>
<path d="M1.80002 7.84983H5.05002C5.30002 7.84983 5.55002 7.64983 5.55002 7.34983C5.55002 7.04983 5.35002 6.84983 5.05002 6.84983H1.80002C1.50002 6.84983 1.30002 7.04983 1.30002 7.34983C1.30002 7.64983 1.50002 7.84983 1.80002 7.84983Z" fill="#2D373D"/>
<path d="M5.95 9.89979H1.75C1.45 9.89979 1.25 10.0998 1.25 10.3998C1.25 10.6998 1.45 10.8998 1.75 10.8998H5.95C6.25 10.8998 6.45 10.6998 6.45 10.3998C6.45 10.0998 6.25 9.89979 5.95 9.89979Z" fill="#2D373D"/>
</svg>
