<svg width="32" height="32" viewBox="0 0 32 32" fill="none" xmlns="http://www.w3.org/2000/svg">
<path d="M6.89996 20.2999C6.99996 20.3999 7.19996 20.3999 7.29996 20.3999C8.09996 20.3999 8.69996 19.6999 8.69996 18.9999C8.69996 18.3999 8.29996 17.8999 7.69996 17.6999C7.59996 17.5999 7.39996 17.5999 7.29996 17.5999C7.19996 17.5999 6.99996 17.5999 6.89996 17.6999C6.29996 17.8999 5.89996 18.3999 5.89996 18.9999C5.89996 19.5999 6.29996 20.0999 6.89996 20.2999Z" fill="#2D373D"/>
<path d="M24.3 20.2999C24.4 20.3999 24.6 20.3999 24.7 20.3999C25.5 20.3999 26.1 19.6999 26.1 18.9999C26.1 18.3999 25.7 17.8999 25.1 17.6999C25 17.5999 24.8 17.5999 24.7 17.5999C24.6 17.5999 24.4 17.5999 24.3 17.6999C23.7 17.8999 23.3 18.3999 23.3 18.9999C23.3 19.5999 23.7 20.0999 24.3 20.2999Z" fill="#2D373D"/>
<path d="M26.2 14.1999V12.7999H28.4C29 12.7999 29.4 12.3999 29.4 11.7999C29.4 11.1999 29 10.7999 28.4 10.7999H26.2V9.9999C26.2 6.6999 23.5 3.8999 20.2 3.8999H11.9C8.49996 3.8999 5.89996 6.6999 5.89996 9.9999V10.7999H3.59996C2.99996 10.7999 2.59996 11.1999 2.59996 11.7999C2.59996 12.3999 2.99996 12.7999 3.59996 12.7999H5.89996V14.1999C4.09996 14.6999 2.59996 16.2999 2.59996 18.2999V18.3999C2.49996 19.8999 2.99996 21.3999 3.99996 22.4999C4.09996 22.5999 4.19996 22.6999 4.29996 22.7999V25.1999C4.29996 26.6999 5.39996 27.8999 6.99996 27.9999C8.49996 27.9999 9.59996 26.6999 9.59996 25.2999V24.3999H11.8C11.8 24.3999 11.8 24.3999 11.9 24.3999H20.2C20.2 24.3999 20.2 24.3999 20.3 24.3999H22.4V25.0999C22.4 25.1999 22.4 25.3999 22.4 25.4999C22.6 26.8999 23.7 27.9999 25.1 27.9999C25.2 27.9999 25.3 27.9999 25.4 27.9999C26.1 27.9999 26.8 27.6999 27.2 27.0999C27.6 26.4999 27.9 25.7999 27.8 25.1999V22.8999C27.9 22.7999 28.1 22.6999 28.2 22.4999C29.2 21.3999 29.7 19.8999 29.6 18.4999V18.2999C29.6 16.1999 28.1 14.5999 26.2 14.1999ZM20 16.3999L17.4 14.5999C16.5 13.9999 15.3 13.9999 14.4 14.5999L12 16.2999C11.1 15.2999 9.79996 14.5999 8.49996 14.2999C9.09996 13.5999 10.4 12.7999 12.7 12.7999H19.3C21.6 12.7999 22.9 13.5999 23.5 14.3999C22.2 14.6999 21 15.3999 20 16.3999ZM7.89996 9.9999C7.89996 7.7999 9.69996 5.8999 11.9 5.8999H20.2C22.4 5.8999 24.2 7.7999 24.2 9.9999V11.2999C24.1 11.3999 24.1 11.5999 24.1 11.7999C24.1 11.9999 24.1 12.0999 24.2 12.1999C23.2 11.3999 21.6 10.7999 19.3 10.7999H12.7C10.5 10.7999 8.89996 11.3999 7.89996 12.1999V9.9999ZM4.59996 18.2999C4.69996 17.0999 5.69996 16.0999 6.89996 16.0999C8.39996 16.0999 9.89996 16.7999 10.9 17.8999V22.3999H8.49996C8.29996 22.3999 8.19996 22.3999 7.99996 22.3999C7.29996 22.3999 6.69996 22.0999 6.09996 21.6999C5.99996 21.4999 5.89996 21.3999 5.69996 21.3999C5.59996 21.2999 5.59996 21.2999 5.49996 21.1999C4.89996 20.3999 4.49996 19.4999 4.59996 18.4999V18.2999ZM6.99996 25.9999C6.59996 25.9999 6.29996 25.5999 6.29996 25.1999V23.9999C6.69996 24.1999 7.19996 24.2999 7.59996 24.2999V25.2999C7.59996 25.6999 7.29996 25.9999 6.99996 25.9999ZM19.2 22.3999H12.8V18.0999L15.6 16.1999C15.9 15.9999 16.2 15.9999 16.4 16.1999L19.2 18.0999V22.3999ZM21.2 17.8999C22.2 16.7999 23.7 16.0999 25.2 16.0999C26.4 16.0999 27.4 17.0999 27.4 18.2999V18.4999C27.5 19.4999 27.2 20.4999 26.5 21.1999C26.4 21.2999 26.3 21.3999 26.1 21.4999L26 21.5999C25.4 21.9999 24.7 22.2999 24 22.3999C23.9 22.3999 23.7 22.3999 23.5 22.3999H21.2V17.8999ZM25.8 25.2999C25.8 25.4999 25.7 25.6999 25.6 25.7999C25.4 25.8999 25.3 25.9999 25.1 25.9999C24.8 25.9999 24.4 25.7999 24.4 25.3999V24.3999C24.9 24.3999 25.3 24.1999 25.8 24.0999V25.2999Z" fill="#2D373D"/>
</svg>
