<svg width="16" height="17" viewBox="0 0 16 17" fill="none" xmlns="http://www.w3.org/2000/svg">
<path fill-rule="evenodd" clip-rule="evenodd" d="M7.57015 2.33843C7.84651 2.23094 8.15313 2.23094 8.42949 2.33843L14.3446 4.63893C14.537 4.71376 14.6637 4.89901 14.6637 5.10544V8.5298C14.6637 8.80625 14.4396 9.03035 14.1632 9.03035C13.8867 9.03035 13.6626 8.80625 13.6626 8.5298V5.83719L8.50037 7.84489V14.3512C8.50037 14.5165 8.41882 14.6711 8.28243 14.7644C8.14604 14.8576 7.97239 14.8776 7.81839 14.8177L1.65505 12.4207C1.46266 12.3458 1.33594 12.1606 1.33594 11.9542V5.10544C1.33594 4.89901 1.46266 4.71376 1.65505 4.63893L7.57015 2.33843ZM7.99982 6.96542L9.70055 6.30397L4.91815 4.44399L3.21742 5.10544L7.99982 6.96542ZM2.33704 5.83719V11.6118L7.49927 13.6195V7.84489L2.33704 5.83719ZM6.29909 3.90692L11.0815 5.76689L12.7822 5.10544L8.06662 3.27145C8.02366 3.25474 7.97599 3.25474 7.93302 3.27145L6.29909 3.90692Z" fill="#2D373D"/>
<path fill-rule="evenodd" clip-rule="evenodd" d="M12.0832 14.5884C12.9576 14.5884 13.6665 13.8795 13.6665 13.0051C13.6665 12.5465 13.3897 11.7058 12.9547 10.9062C12.8661 10.7432 12.7767 10.5929 12.6898 10.4585C12.6564 10.5706 12.6244 10.6837 12.592 10.7982L12.59 10.8053C12.553 10.9363 12.5136 11.0758 12.475 11.1987C12.4392 11.3128 12.3875 11.4681 12.3186 11.6066C12.2866 11.6708 12.2205 11.795 12.1083 11.915C12.0089 12.0213 11.7107 12.2938 11.2416 12.2507C11.031 12.2313 10.8811 12.1507 10.8211 12.1158C10.749 12.0739 10.6958 12.0313 10.666 12.0062C10.6577 11.9991 10.6496 11.9921 10.6418 11.9851C10.5478 12.4076 10.4998 12.8177 10.4998 13.0051C10.4998 13.8795 11.2087 14.5884 12.0832 14.5884ZM10.5937 10.5112C10.4727 10.4424 10.3506 10.4172 10.239 10.4745C9.81146 10.6942 9.49982 12.37 9.49982 13.0051C9.49982 14.4318 10.6564 15.5884 12.0832 15.5884C13.5099 15.5884 14.6665 14.4318 14.6665 13.0051C14.6665 11.5784 13.1665 8.92155 12.4998 8.92155C12.1493 8.92155 11.9099 9.57245 11.7274 10.1867C11.714 10.2316 11.701 10.2764 11.6883 10.3206C11.6683 10.39 11.6489 10.4583 11.6303 10.5244C11.5139 10.936 11.4214 11.263 11.3332 11.2549C11.3106 11.2528 11.253 11.1814 11.1726 11.0817C11.0415 10.9191 10.8497 10.6812 10.65 10.5463C10.6313 10.5336 10.6125 10.5219 10.5937 10.5112Z" fill="#2D373D"/>
</svg>
