<svg width="16" height="17" viewBox="0 0 16 17" fill="none" xmlns="http://www.w3.org/2000/svg">
<path fill-rule="evenodd" clip-rule="evenodd" d="M5.36629 11.101C3.92691 10.2178 2.9668 8.62961 2.9668 6.81714C2.9668 4.04345 5.21532 1.79492 7.98901 1.79492C10.7627 1.79492 13.0112 4.04345 13.0112 6.81714C13.0112 8.62959 12.0511 10.2178 10.6118 11.1009L11.3554 14.5221C11.3974 14.7151 11.3218 14.9147 11.1625 15.0315C11.0033 15.1483 10.7902 15.1604 10.6187 15.0624L7.98904 13.5597L5.35934 15.0624C5.18787 15.1604 4.97479 15.1483 4.81555 15.0315C4.6563 14.9147 4.58073 14.7151 4.62268 14.5221L5.36629 11.101ZM3.9668 6.81714C3.9668 4.59573 5.7676 2.79492 7.98901 2.79492C10.2104 2.79492 12.0112 4.59573 12.0112 6.81714C12.0112 8.3717 11.1293 9.72029 9.83851 10.3899C9.82371 10.3965 9.80934 10.4039 9.79544 10.4119C9.25228 10.6854 8.63863 10.8394 7.98901 10.8394C7.33958 10.8394 6.72609 10.6854 6.18304 10.4121C6.16889 10.404 6.15425 10.3965 6.13917 10.3897C4.84855 9.72004 3.9668 8.37156 3.9668 6.81714ZM6.29296 11.5458L5.83843 13.6369L7.74097 12.5497C7.89469 12.4619 8.08339 12.4619 8.23711 12.5497L10.1397 13.6369L9.68512 11.5457C9.15529 11.7358 8.58424 11.8394 7.98901 11.8394C7.3938 11.8394 6.82278 11.7358 6.29296 11.5458Z" fill="#2D373D"/>
<path fill-rule="evenodd" clip-rule="evenodd" d="M7.5615 3.68019C7.69063 3.60237 7.83855 3.56125 7.98933 3.56125C8.1401 3.56125 8.28802 3.60237 8.41716 3.68019C8.5463 3.75802 8.65177 3.86959 8.7222 4.0029L8.28012 4.23649L8.72595 4.01013L9.2711 5.08383H10.1254C10.2876 5.08136 10.4469 5.12711 10.5832 5.21535C10.7215 5.30496 10.8296 5.43423 10.8933 5.58625C10.957 5.73827 10.9733 5.90598 10.9402 6.06743C10.9072 6.22813 10.8267 6.37521 10.7092 6.48962L9.88542 7.29907L10.3435 8.35221C10.4102 8.51121 10.4251 8.68714 10.3864 8.85513C10.3477 9.02312 10.2572 9.1747 10.1276 9.28847C9.99812 9.40224 9.83614 9.47247 9.66455 9.48922C9.49437 9.50584 9.32327 9.46902 9.17502 9.38395L7.98905 8.71681L6.80309 9.38395C6.65484 9.46902 6.48374 9.50584 6.31355 9.48922C6.14197 9.47247 5.97999 9.40224 5.85047 9.28847C5.72095 9.1747 5.63043 9.02312 5.5917 8.85513C5.55297 8.68714 5.56798 8.51123 5.63461 8.35223L5.63728 8.34585L6.09327 7.29872L5.26875 6.48729C5.1513 6.3729 5.07088 6.22588 5.0379 6.06524C5.00476 5.90378 5.02111 5.73608 5.08481 5.58406C5.14851 5.43204 5.25659 5.30277 5.39493 5.21316C5.53116 5.12491 5.69049 5.07917 5.85268 5.08164H6.70735L7.2564 4.00287C7.32684 3.86956 7.43236 3.75802 7.5615 3.68019ZM7.98914 4.76782L7.4595 5.80844C7.37418 5.97607 7.202 6.08164 7.0139 6.08164H6.28222L7.03956 6.82696C7.18707 6.97213 7.2299 7.19318 7.14728 7.38293L6.76666 8.25708L7.74392 7.70735C7.89613 7.62173 8.08198 7.62173 8.23419 7.70735L9.21171 8.25722L8.83131 7.38278C8.74872 7.19292 8.79169 6.97179 8.93938 6.82668L9.69539 6.08383H8.96421C8.77593 6.08383 8.60362 5.97807 8.51838 5.81019L7.98914 4.76782ZM10.1423 6.08368C10.1409 6.08372 10.1394 6.08374 10.1379 6.08374L10.1423 6.08368ZM10.0101 5.77457L10.012 5.77272ZM5.83578 6.08149L5.8402 6.08155C5.83873 6.08155 5.83726 6.08153 5.83578 6.08149Z" fill="#2D373D"/>
</svg>
