<svg width="32" height="33" viewBox="0 0 32 33" fill="none" xmlns="http://www.w3.org/2000/svg">
<path d="M29.1 13.3605C28.2 9.86055 26.1 6.96055 23.1 5.06055C20.9 3.76055 18.5 3.06055 16 3.06055C8.6 3.06055 2.6 9.06055 2.6 16.3605C2.6 18.7605 3.2 21.0605 4.4 23.0605L2.6 28.5605C2.5 28.8605 2.6 29.2605 2.9 29.5605C3.1 29.7605 3.3 29.8605 3.6 29.8605C3.7 29.8605 3.9 29.8605 4 29.8605L9.4 28.0605C12.4 29.7605 15.8 30.2605 19.1 29.4605C22.6 28.5605 25.5 26.4605 27.4 23.4605C29.3 20.4605 29.9 16.8605 29.1 13.3605ZM25.7 22.3605C24.1 24.9605 21.6 26.7605 18.6 27.4605C15.6 28.1605 12.6 27.6605 10 26.1605C9.9 26.0605 9.7 25.9605 9.5 25.9605C9.4 25.9605 9.2 25.9605 9.1 25.9605L5.1 27.2605L6.4 23.1605C6.5 22.8605 6.5 22.5605 6.3 22.3605C5.2 20.5605 4.6 18.4605 4.6 16.3605C4.6 10.1605 9.7 5.06055 16 5.06055C18.1 5.06055 20.2 5.66055 22 6.76055C24.6 8.36055 26.4 10.7605 27.1 13.7605C27.8 16.7605 27.3 19.7605 25.7 22.3605Z" fill="#2D373D"/>
<path d="M18.3 12.7605C18 12.7605 17.8 12.8605 17.7 12.9605C17 13.2605 16.5 13.8605 16.5 14.6605C16.5 15.6605 17.3 16.4605 18.3 16.4605C18.7 16.4605 19 16.3605 19.3 16.1605C19.3 16.2605 19.3 16.2605 19.3 16.3605C19.3 17.1605 18.8 17.8605 18.1 18.1605C17.6 18.3605 17.4 18.9605 17.6 19.4605C17.8 19.8605 18.1 20.0605 18.5 20.0605C18.6 20.0605 18.8 20.0605 18.9 19.8605C20.3 19.2605 21.2 17.9605 21.3 16.3605C21.3 14.6605 20.3 12.7605 18.3 12.7605Z" fill="#2D373D"/>
<path d="M12.5002 12.7605C12.2002 12.7605 12.0002 12.8605 11.9002 12.9605C11.2002 13.2605 10.7002 13.8605 10.7002 14.6605C10.7002 15.6605 11.5002 16.4605 12.5002 16.4605C12.9002 16.4605 13.2002 16.3605 13.5002 16.1605C13.5002 16.2605 13.5002 16.2605 13.5002 16.3605C13.5002 17.1605 13.0002 17.8605 12.3002 18.1605C11.8002 18.3605 11.6002 18.9605 11.8002 19.4605C12.0002 19.8605 12.3002 20.0605 12.7002 20.0605C12.9002 20.0605 13.0002 20.0605 13.1002 19.8605C14.5002 19.2605 15.4002 17.9605 15.5002 16.3605C15.5002 14.6605 14.5002 12.7605 12.5002 12.7605Z" fill="#2D373D"/>
</svg>
