<svg width="32" height="33" viewBox="0 0 32 33" fill="none" xmlns="http://www.w3.org/2000/svg">
<path d="M20.7806 10.5306C20.9303 10.4686 21.0908 10.4366 21.2529 10.4366C21.4149 10.4366 21.5754 10.4686 21.7251 10.5306C21.8748 10.5927 22.0109 10.6836 22.1254 10.7983C22.5168 11.19 23.1517 11.1903 23.5434 10.7989C23.9352 10.4075 23.9354 9.77266 23.5441 9.38091C23.2433 9.07985 22.8861 8.84102 22.493 8.67807C22.0998 8.51512 21.6784 8.43125 21.2529 8.43125C20.8273 8.43125 20.4059 8.51512 20.0128 8.67807C19.6196 8.84102 19.2624 9.07985 18.9617 9.38091C18.5703 9.77266 18.5705 10.4075 18.9623 10.7989C19.354 11.1903 19.9889 11.19 20.3803 10.7983C20.4949 10.6836 20.6309 10.5927 20.7806 10.5306Z" fill="#2D373D"/>
<path fill-rule="evenodd" clip-rule="evenodd" d="M17.3759 6.74355C18.5437 5.5766 20.1271 4.92132 21.778 4.92188C23.4289 4.92243 25.0119 5.57877 26.1788 6.74651C27.3458 7.91425 28.001 9.49774 28.0005 11.1486C27.9999 12.7995 27.3436 14.3825 26.1759 15.5494L14.5659 27.1536C13.3939 28.2957 11.8192 28.93 10.1828 28.9195C8.54646 28.9089 6.98014 28.2541 5.82304 27.097C4.66594 25.9399 4.0112 24.3736 4.00062 22.7372C3.99003 21.1009 4.62445 19.5262 5.76649 18.3542L5.77551 18.3449L11.0454 13.0746L11.0486 13.0714L11.0518 13.0682L17.3759 6.74355ZM7.19845 19.7581L11.7577 15.1984L17.7225 21.1633L13.1619 25.7215C12.3681 26.4929 11.3028 26.9213 10.1958 26.9141C9.08678 26.907 8.02524 26.4632 7.24104 25.679C6.45685 24.8948 6.01311 23.8333 6.00594 22.7242C5.99878 21.6173 6.42715 20.552 7.19845 19.7581ZM24.7583 14.1311L19.1409 19.7456L13.1757 13.7804L18.7935 8.16205C19.585 7.37121 20.6584 6.92688 21.7773 6.92726C22.8963 6.92763 23.9694 7.37252 24.7603 8.16405C25.5513 8.95559 25.9955 10.0289 25.9951 11.1479C25.9947 12.267 25.5498 13.3401 24.7583 14.1311Z" fill="#2D373D"/>
</svg>
