<svg width="32" height="33" viewBox="0 0 32 33" fill="none" xmlns="http://www.w3.org/2000/svg">
<path d="M10.7111 5.58984C7.86672 5.58984 5.20335 7.03546 4.26701 7.73764C3.82516 8.06899 3.19837 7.97941 2.86702 7.53757C2.53567 7.09572 2.62525 6.46892 3.06709 6.13758C4.21788 5.27458 7.29413 3.58984 10.7111 3.58984C14.1281 3.58984 17.2044 5.27458 18.3551 6.13758C18.797 6.46892 18.8866 7.09572 18.5552 7.53757C18.2239 7.97941 17.5971 8.06899 17.1552 7.73764C16.2189 7.03546 13.5555 5.58984 10.7111 5.58984Z" fill="#2D373D"/>
<path fill-rule="evenodd" clip-rule="evenodd" d="M21.2451 20.7463C23.5895 20.7463 25.49 18.8458 25.49 16.5014C25.49 14.157 23.5895 12.2565 21.2451 12.2565C18.9007 12.2565 17.0002 14.157 17.0002 16.5014C17.0002 18.8458 18.9007 20.7463 21.2451 20.7463ZM21.2451 18.7463C22.4849 18.7463 23.49 17.7412 23.49 16.5014C23.49 15.2616 22.4849 14.2565 21.2451 14.2565C20.0052 14.2565 19.0002 15.2616 19.0002 16.5014C19.0002 17.7412 20.0052 18.7463 21.2451 18.7463Z" fill="#2D373D"/>
<path fill-rule="evenodd" clip-rule="evenodd" d="M13.3281 23.5352C12.3513 23.5352 11.5594 24.327 11.5594 25.3039C11.5594 26.2807 12.3513 27.0726 13.3281 27.0726C14.3049 27.0726 15.0968 26.2807 15.0968 25.3039C15.0968 24.327 14.3049 23.5352 13.3281 23.5352ZM12.9744 25.3039C12.9744 25.1085 13.1327 24.9501 13.3281 24.9501C13.5235 24.9501 13.6819 25.1085 13.6819 25.3039C13.6819 25.4992 13.5235 25.6576 13.3281 25.6576C13.1327 25.6576 12.9744 25.4992 12.9744 25.3039Z" fill="#2D373D"/>
<path fill-rule="evenodd" clip-rule="evenodd" d="M5.49287 22.3152C5.10059 21.3826 5.78541 20.3516 6.79715 20.3516H16.8941C17.4636 20.3516 17.9775 20.693 18.1984 21.2179L21.1743 28.2927C21.5666 29.2253 20.8818 30.2563 19.87 30.2563H9.77308C9.2036 30.2563 8.68962 29.9149 8.46881 29.39L5.49287 22.3152ZM10.1617 28.2563L7.67792 22.3516H16.5055L18.9892 28.2563H10.1617Z" fill="#2D373D"/>
<path d="M20.6668 21.2565C20.1145 21.2565 19.6668 21.7042 19.6668 22.2565C19.6668 22.8088 20.1145 23.2565 20.6668 23.2565C23.2333 23.2565 24.8679 24.1667 25.8728 25.3155C26.6409 26.1935 27.079 27.2552 27.2521 28.2619H23.3335C22.7812 28.2619 22.3335 28.7096 22.3335 29.2619C22.3335 29.8142 22.7812 30.2619 23.3335 30.2619H28.3393C28.8915 30.2619 29.3393 29.8142 29.3393 29.2619C29.3393 27.5851 28.7698 25.5896 27.3782 23.9987C25.9618 22.3795 23.7602 21.2565 20.6668 21.2565Z" fill="#2D373D"/>
<path d="M7.39771 11.3895C7.87024 11.0351 9.25814 10.2852 10.7111 10.2852C12.1641 10.2852 13.552 11.0351 14.0245 11.3895C14.4664 11.7208 15.0932 11.6313 15.4245 11.1894C15.7559 10.7476 15.6663 10.1208 15.2244 9.78944C14.5375 9.27426 12.7367 8.28516 10.7111 8.28516C8.68555 8.28516 6.88477 9.27426 6.19779 9.78944C5.75594 10.1208 5.66637 10.7476 5.99772 11.1894C6.32906 11.6313 6.95586 11.7208 7.39771 11.3895Z" fill="#2D373D"/>
</svg>
