<svg width="64" height="65" viewBox="0 0 64 65" fill="none" xmlns="http://www.w3.org/2000/svg">
<path d="M33.6195 44.3238H27.9395C27.4822 42.6426 26.4886 41.1566 25.1096 40.0917C23.7306 39.0268 22.0417 38.4412 20.2995 38.4238H11.9395V37.4838C11.9395 36.9534 11.7287 36.4447 11.3537 36.0696C10.9786 35.6945 10.4699 35.4838 9.93945 35.4838C9.40902 35.4838 8.90031 35.6945 8.52524 36.0696C8.15017 36.4447 7.93945 36.9534 7.93945 37.4838V55.1838C7.93945 55.7143 8.15017 56.223 8.52524 56.598C8.90031 56.9731 9.40902 57.1838 9.93945 57.1838C10.4699 57.1838 10.9786 56.9731 11.3537 56.598C11.7287 56.223 11.9395 55.7143 11.9395 55.1838V54.2238H39.5195C40.0499 54.2238 40.5586 54.0131 40.9337 53.638C41.3087 53.263 41.5195 52.7543 41.5195 52.2238C41.4935 50.1367 40.6529 48.1423 39.1769 46.6664C37.701 45.1904 35.7066 44.3498 33.6195 44.3238ZM11.9395 50.2238V42.4238H20.3395C21.3721 42.4333 22.3611 42.8418 23.0995 43.5638C23.31 43.7987 23.4975 44.0532 23.6595 44.3238H20.3395C19.809 44.3238 19.3003 44.5345 18.9252 44.9096C18.5502 45.2847 18.3395 45.7934 18.3395 46.3238C18.3395 46.8543 18.5502 47.363 18.9252 47.738C19.3003 48.1131 19.809 48.3238 20.3395 48.3238H33.6195C34.6549 48.3386 35.6443 48.7545 36.3795 49.4838C36.6004 49.7076 36.795 49.9558 36.9595 50.2238H11.9395Z" fill="#2D373D"/>
<path d="M42.5795 33.1638C43.1757 32.5677 43.6487 31.8599 43.9714 31.0809C44.2941 30.3019 44.4602 29.467 44.4602 28.6238C44.4602 27.7807 44.2941 26.9457 43.9714 26.1668C43.6487 25.3878 43.1757 24.68 42.5795 24.0838C41.3557 22.9174 39.73 22.2667 38.0395 22.2667C36.3489 22.2667 34.7232 22.9174 33.4995 24.0838C32.2954 25.2879 31.6189 26.921 31.6189 28.6238C31.6189 30.3267 32.2954 31.9598 33.4995 33.1638C34.7035 34.3679 36.3366 35.0444 38.0395 35.0444C39.7423 35.0444 41.3754 34.3679 42.5795 33.1638ZM36.3195 30.3438C35.9835 30.0044 35.7555 29.5732 35.6641 29.1044C35.5728 28.6357 35.6222 28.1504 35.8061 27.7096C35.99 27.2689 36.3001 26.8924 36.6976 26.6276C37.095 26.3628 37.5619 26.2215 38.0395 26.2215C38.517 26.2215 38.9839 26.3628 39.3813 26.6276C39.7788 26.8924 40.089 27.2689 40.2728 27.7096C40.4567 28.1504 40.5061 28.6357 40.4148 29.1044C40.3234 29.5732 40.0954 30.0044 39.7595 30.3438C39.295 30.7841 38.6794 31.0296 38.0395 31.0296C37.3995 31.0296 36.7839 30.7841 36.3195 30.3438Z" fill="#2D373D"/>
<path d="M55.9394 34.7238C55.7147 33.5529 55.0757 32.5021 54.1395 31.7638L51.8395 29.9638C51.9395 29.0733 51.9395 28.1744 51.8395 27.2838L54.1395 25.4838C55.0799 24.7493 55.7199 23.6968 55.9394 22.5238C56.1622 21.3512 55.9564 20.1375 55.3594 19.1038L54.9795 18.4438C54.3767 17.4102 53.4272 16.6237 52.2994 16.2238C51.1842 15.8049 49.9547 15.8049 48.8395 16.2238L45.9395 17.4238C45.2307 16.9173 44.4737 16.4819 43.6795 16.1238L43.3395 13.1838C43.1688 11.9985 42.5801 10.9132 41.6795 10.1238C40.7782 9.34844 39.6284 8.92259 38.4395 8.92383H37.6395C36.4476 8.92635 35.2969 9.35964 34.3995 10.1438C33.5071 10.9231 32.9191 11.9928 32.7395 13.1638L32.3195 16.1038C31.5208 16.4611 30.763 16.9037 30.0595 17.4238L27.2995 16.3238C26.1842 15.9049 24.9547 15.9049 23.8395 16.3238C22.7166 16.7217 21.7684 17.5 21.1595 18.5238L20.7795 19.2038C20.1842 20.2381 19.9785 21.4511 20.1995 22.6238C20.419 23.7968 21.059 24.8493 21.9995 25.5838L24.2995 27.3838C24.1994 28.2744 24.1994 29.1733 24.2995 30.0638L21.9995 31.8638C21.6915 32.2189 21.5184 32.671 21.5105 33.1409C21.5027 33.6108 21.6606 34.0685 21.9565 34.4336C22.2524 34.7988 22.6674 35.048 23.1288 35.1376C23.5902 35.2273 24.0683 35.1516 24.4795 34.9238L27.6795 32.4038C27.9789 32.1742 28.2073 31.8646 28.3382 31.5107C28.4692 31.1568 28.4973 30.7731 28.4195 30.4038C28.1797 29.2225 28.1797 28.0051 28.4195 26.8238C28.4973 26.4546 28.4692 26.0709 28.3382 25.717C28.2073 25.3631 27.9789 25.0534 27.6795 24.8238L24.4795 22.3038C24.291 22.1624 24.1625 21.9554 24.1195 21.7238C24.0762 21.503 24.1191 21.274 24.2395 21.0838L24.6395 20.4038C24.7437 20.1986 24.9227 20.0412 25.1395 19.9638C25.3606 19.8934 25.5983 19.8934 25.8195 19.9638L29.6395 21.5038C29.9728 21.6307 30.3341 21.666 30.6858 21.6062C31.0374 21.5465 31.3667 21.3937 31.6395 21.1638C32.5531 20.3675 33.6127 19.7562 34.7595 19.3638C35.1047 19.2433 35.4104 19.0304 35.6431 18.7483C35.8758 18.4662 36.0267 18.1257 36.0795 17.7638L36.6595 13.7638C36.7001 13.5408 36.8124 13.3371 36.9795 13.1838C37.1571 13.0143 37.3939 12.921 37.6395 12.9238H38.4395C38.6685 12.9256 38.8889 13.011 39.0595 13.1638C39.2265 13.3171 39.3389 13.5208 39.3795 13.7438L39.9595 17.7438C40.0122 18.1057 40.1631 18.4462 40.3958 18.7283C40.6286 19.0104 40.9342 19.2233 41.2795 19.3438C42.4225 19.7442 43.4807 20.3547 44.3995 21.1438C44.6722 21.3737 45.0015 21.5265 45.3531 21.5862C45.7048 21.646 46.0661 21.6107 46.3995 21.4838L50.2195 19.9438C50.4338 19.8736 50.6651 19.8736 50.8795 19.9438C51.0981 20.0266 51.2817 20.1819 51.3995 20.3838L51.7795 21.0638C51.897 21.2593 51.9395 21.4908 51.8991 21.7152C51.8586 21.9397 51.7379 22.1418 51.5595 22.2838L48.3995 24.9238C48.1036 25.1558 47.8791 25.4665 47.7518 25.8203C47.6244 26.174 47.5993 26.5565 47.6795 26.9238C47.9197 28.1118 47.9197 29.3359 47.6795 30.5238C47.5993 30.8912 47.6244 31.2737 47.7518 31.6274C47.8791 31.9812 48.1036 32.2918 48.3995 32.5238L51.6195 34.9238C51.7977 35.0625 51.9187 35.2618 51.9595 35.4838C51.9967 35.7089 51.9616 35.9399 51.8595 36.1438L51.4595 36.8238C51.3407 37.0204 51.1567 37.1691 50.9395 37.2438C50.7267 37.3236 50.4922 37.3236 50.2795 37.2438L46.4395 35.7038C46.1061 35.577 45.7448 35.5416 45.3931 35.6014C45.0415 35.6612 44.7122 35.814 44.4395 36.0438C43.5258 36.8402 42.4662 37.4515 41.3195 37.8438C40.9742 37.9644 40.6686 38.1772 40.4358 38.4593C40.2031 38.7414 40.0522 39.0819 39.9995 39.4438L39.6795 41.6438C39.6053 42.1689 39.7427 42.702 40.0615 43.1258C40.3803 43.5497 40.8544 43.8295 41.3795 43.9038H41.6595C42.1448 43.9086 42.6152 43.7368 42.9832 43.4203C43.3512 43.1038 43.5915 42.6644 43.6595 42.1838L43.8195 41.1438C44.5696 40.7779 45.28 40.3355 45.9395 39.8238L48.6995 40.9438C49.8163 41.3539 51.0426 41.3539 52.1595 40.9438C53.2906 40.6206 54.2693 39.9043 54.9194 38.9238L55.3195 38.2438C55.9657 37.1918 56.1874 35.9333 55.9394 34.7238Z" fill="#2D373D"/>
</svg>
