<svg width="24" height="25" viewBox="0 0 24 25" fill="none" xmlns="http://www.w3.org/2000/svg">
<path d="M2 5.67188C2 5.25766 2.33579 4.92188 2.75 4.92188H21.25C21.6642 4.92188 22 5.25766 22 5.67188C22 6.08609 21.6642 6.42188 21.25 6.42188H2.75C2.33579 6.42188 2 6.08609 2 5.67188Z" fill="#2D373D"/>
<path d="M2 20.1719C2 19.7577 2.33579 19.4219 2.75 19.4219H21.25C21.6642 19.4219 22 19.7577 22 20.1719C22 20.5861 21.6642 20.9219 21.25 20.9219H2.75C2.33579 20.9219 2 20.5861 2 20.1719Z" fill="#2D373D"/>
<path d="M3.5 8.92188C3.08579 8.92188 2.75 9.25766 2.75 9.67188C2.75 10.0861 3.08579 10.4219 3.5 10.4219H4.25L4.25 16.1719C4.25 16.5861 4.58579 16.9219 5 16.9219C5.41421 16.9219 5.75 16.5861 5.75 16.1719L5.75 10.4219H6.5C6.91421 10.4219 7.25 10.0861 7.25 9.67188C7.25 9.25766 6.91421 8.92188 6.5 8.92188H3.5Z" fill="#2D373D"/>
<path d="M20.25 9.67188C20.25 9.25766 19.9142 8.92188 19.5 8.92188C19.0858 8.92188 18.75 9.25766 18.75 9.67188V16.1719C18.75 16.5861 19.0858 16.9219 19.5 16.9219C19.9142 16.9219 20.25 16.5861 20.25 16.1719V9.67188Z" fill="#2D373D"/>
<path fill-rule="evenodd" clip-rule="evenodd" d="M7.75 10.9219C7.75 10.5519 7.85484 10.0135 8.19135 9.54615C8.5554 9.04052 9.15556 8.67188 10 8.67188C10.8444 8.67188 11.4446 9.04052 11.8087 9.54615C12.1452 10.0135 12.25 10.5519 12.25 10.9219V16.1719C12.25 16.5861 11.9142 16.9219 11.5 16.9219C11.0858 16.9219 10.75 16.5861 10.75 16.1719V14.4219H9.25V16.1719C9.25 16.5861 8.91421 16.9219 8.5 16.9219C8.08579 16.9219 7.75 16.5861 7.75 16.1719V10.9219ZM9.25 12.9219V10.9219C9.25 10.7919 9.29516 10.5802 9.40865 10.4226C9.4946 10.3032 9.64444 10.1719 10 10.1719C10.3556 10.1719 10.5054 10.3032 10.5913 10.4226C10.7048 10.5802 10.75 10.7919 10.75 10.9219V12.9219H9.25Z" fill="#2D373D"/>
<path d="M17.3144 8.99109C17.6904 9.16467 17.8546 9.61026 17.681 9.98635L16.326 12.9222L17.6809 15.8578C17.8545 16.2339 17.6903 16.6794 17.3142 16.853C16.9381 17.0266 16.4926 16.8624 16.319 16.4863L15.5 14.7119L14.681 16.4863C14.5074 16.8624 14.0619 17.0266 13.6858 16.853C13.3097 16.6794 13.1455 16.2339 13.3191 15.8578L14.674 12.9222L13.319 9.98635C13.1454 9.61026 13.3096 9.16467 13.6856 8.99109C14.0617 8.81751 14.5073 8.98167 14.6809 9.35776L15.5 11.1325L16.3191 9.35776C16.4927 8.98167 16.9383 8.81751 17.3144 8.99109Z" fill="#2D373D"/>
</svg>
