<svg width="64" height="65" viewBox="0 0 64 65" fill="none" xmlns="http://www.w3.org/2000/svg">
<path fill-rule="evenodd" clip-rule="evenodd" d="M34.787 9.12695H13.6496C12.328 9.12695 11.0605 9.65196 10.126 10.5865C9.19151 11.521 8.6665 12.7885 8.6665 14.1101V52.8905C8.6665 54.2121 9.19151 55.4796 10.126 56.4141C11.0605 57.3486 12.328 57.8736 13.6496 57.8736H19.6158C20.7204 57.8736 21.6158 56.9782 21.6158 55.8736C21.6158 54.7691 20.7204 53.8736 19.6158 53.8736H13.6496C13.3889 53.8736 13.1388 53.77 12.9545 53.5857C12.7701 53.4013 12.6665 53.1512 12.6665 52.8905V14.1101C12.6665 13.8493 12.7701 13.5993 12.9545 13.4149C13.1388 13.2305 13.3889 13.127 13.6496 13.127H32.5314V23.0594C32.5314 24.381 33.0564 25.6485 33.9909 26.583C34.9254 27.5175 36.1929 28.0425 37.5145 28.0425H47.4469V34.9918C47.4469 36.0964 48.3424 36.9918 49.4469 36.9918C50.5515 36.9918 51.4469 36.0964 51.4469 34.9918V26.0513L51.447 26.0425L51.4469 26.0337V25.7855C51.4467 24.4649 50.9218 23.198 49.9882 22.2638L38.3118 10.5853C37.8488 10.1227 37.2992 9.75577 36.6945 9.50553C36.09 9.25542 35.4412 9.12678 34.787 9.12695ZM36.5314 14.462L46.1103 24.0425H37.5145C37.2538 24.0425 37.0037 23.9389 36.8194 23.7546C36.635 23.5702 36.5314 23.3201 36.5314 23.0594V14.462Z" fill="#2D373D"/>
<path d="M31.6413 38.492C32.7459 38.492 33.6413 39.3875 33.6413 40.492V51.6787C33.6413 52.9508 33.136 54.1709 32.2364 55.0704C31.3369 55.97 30.1168 56.4754 28.8447 56.4754H26.048C24.9434 56.4754 24.048 55.5799 24.048 54.4754C24.048 53.3708 24.9434 52.4754 26.048 52.4754H28.8447C29.056 52.4754 29.2586 52.3914 29.408 52.242C29.5574 52.0926 29.6413 51.89 29.6413 51.6787V40.492C29.6413 39.3875 30.5368 38.492 31.6413 38.492Z" fill="#2D373D"/>
<path fill-rule="evenodd" clip-rule="evenodd" d="M35.2349 40.492C35.2349 39.3875 36.1303 38.492 37.2349 38.492H38.6332C40.2762 38.492 41.8519 39.1447 43.0137 40.3065C44.1755 41.4683 44.8282 43.044 44.8282 44.687C44.8282 46.33 44.1755 47.9058 43.0137 49.0676C41.9946 50.0867 40.657 50.714 39.2349 50.8528V54.4754C39.2349 55.5799 38.3394 56.4754 37.2349 56.4754C36.1303 56.4754 35.2349 55.5799 35.2349 54.4754V40.492ZM39.2349 46.798V42.5761C39.5909 42.6776 39.9188 42.8685 40.1853 43.1349C40.5969 43.5466 40.8282 44.1049 40.8282 44.687C40.8282 45.2692 40.5969 45.8275 40.1853 46.2391C39.9188 46.5056 39.5909 46.6965 39.2349 46.798Z" fill="#2D373D"/>
<path d="M51.2181 42.492C51.0068 42.492 50.8041 42.576 50.6547 42.7254C50.5053 42.8748 50.4214 43.0774 50.4214 43.2887V51.6787C50.4214 51.89 50.5053 52.0926 50.6547 52.242C50.8041 52.3914 51.0068 52.4754 51.2181 52.4754C51.4293 52.4754 51.632 52.3914 51.7814 52.242C51.9308 52.0926 52.0147 51.89 52.0147 51.6787V50.7899C51.2042 50.5346 50.6164 49.7769 50.6164 48.882C50.6164 47.7775 51.5118 46.882 52.6164 46.882H54.0147C55.1193 46.882 56.0147 47.7775 56.0147 48.882V51.6787C56.0147 52.9509 55.5094 54.1709 54.6098 55.0704C53.7103 55.97 52.4902 56.4754 51.2181 56.4754C49.9459 56.4754 48.7258 55.97 47.8263 55.0704C46.9268 54.1709 46.4214 52.9509 46.4214 51.6787V43.2887C46.4214 42.0165 46.9268 40.7965 47.8263 39.8969C48.7258 38.9974 49.9459 38.492 51.2181 38.492H54.0147C55.1193 38.492 56.0147 39.3875 56.0147 40.492C56.0147 41.5966 55.1193 42.492 54.0147 42.492H51.2181Z" fill="#2D373D"/>
</svg>
