<svg width="16" height="17" viewBox="0 0 16 17" fill="none" xmlns="http://www.w3.org/2000/svg">
<path d="M6.14089 7.34553C6.16393 7.23429 6.26894 7.13976 6.40595 7.13976C6.54295 7.13976 6.64796 7.23429 6.671 7.34553C6.72192 7.59135 6.96248 7.74935 7.2083 7.69843C7.45412 7.64751 7.61212 7.40696 7.5612 7.16114C7.44996 6.62408 6.9701 6.23067 6.40595 6.23067C5.8418 6.23067 5.36194 6.62408 5.2507 7.16114C5.19978 7.40696 5.35778 7.64751 5.6036 7.69843C5.84942 7.74935 6.08998 7.59135 6.14089 7.34553Z" fill="#2D373D"/>
<path d="M9.60136 7.13976C9.46436 7.13976 9.35935 7.23429 9.33631 7.34553C9.28539 7.59135 9.04484 7.74935 8.79902 7.69843C8.5532 7.64751 8.3952 7.40696 8.44611 7.16114C8.55736 6.62408 9.03721 6.23067 9.60136 6.23067C10.1655 6.23067 10.6454 6.62408 10.7566 7.16114C10.8075 7.40696 10.6495 7.64751 10.4037 7.69843C10.1579 7.74935 9.91734 7.59135 9.86642 7.34553C9.84338 7.23429 9.73837 7.13976 9.60136 7.13976Z" fill="#2D373D"/>
<path d="M7.56102 9.07846C7.5101 8.83264 7.26955 8.67464 7.02373 8.72556C6.77791 8.77647 6.61991 9.01703 6.67083 9.26285C6.79885 9.88094 7.35182 10.3354 8.00361 10.3354C8.65541 10.3354 9.20838 9.88094 9.3364 9.26285C9.38732 9.01703 9.22932 8.77647 8.9835 8.72556C8.73768 8.67464 8.49713 8.83264 8.44621 9.07846C8.40638 9.27074 8.22826 9.42626 8.00361 9.42626C7.77897 9.42626 7.60085 9.27074 7.56102 9.07846Z" fill="#2D373D"/>
<path fill-rule="evenodd" clip-rule="evenodd" d="M12.6883 5.66236C13.3398 6.03872 13.8058 6.64599 14.0004 7.37296C14.1952 8.09963 14.0952 8.85872 13.7192 9.51024C13.451 9.97478 13.0655 10.3448 12.6031 10.5896C12.6225 11.1127 12.4946 11.6311 12.2264 12.0957C11.8504 12.7472 11.2428 13.2133 10.5161 13.4081C10.278 13.4718 10.0331 13.5042 9.78765 13.5042C9.34281 13.5042 8.91553 13.3966 8.53372 13.2054V15.1063C8.53372 15.3742 8.31675 15.5911 8.04887 15.5911C7.78099 15.5911 7.56402 15.3742 7.56402 15.1063V13.2057C7.1819 13.3966 6.75493 13.5042 6.31008 13.5042C6.06462 13.5042 5.81978 13.4718 5.58159 13.4081C4.85493 13.2133 4.24735 12.7472 3.87129 12.0957C3.60311 11.6311 3.47523 11.1124 3.49462 10.5896C3.0322 10.3445 2.64675 9.97478 2.37856 9.51024C2.0025 8.85872 1.9025 8.09963 2.09705 7.37296C2.2919 6.64599 2.75796 6.03842 3.40947 5.66236C3.52644 5.59509 3.64796 5.53599 3.7725 5.4863C3.64735 4.63175 3.91402 3.73266 4.56402 3.08266C5.09614 2.55084 5.80341 2.25781 6.55584 2.25781C7.0919 2.25781 7.60523 2.4066 8.04856 2.68478C8.49159 2.4066 9.00493 2.25781 9.54099 2.25781C10.2934 2.25781 11.0007 2.55084 11.5325 3.08266C12.0649 3.61448 12.358 4.32205 12.358 5.07478C12.358 5.21357 12.3477 5.35145 12.3274 5.48721C12.4513 5.5366 12.5719 5.59539 12.6883 5.66236ZM11.7577 9.886C12.2346 9.75842 12.6328 9.45266 12.8792 9.02539C13.1261 8.59812 13.1916 8.10024 13.0637 7.62387C12.9361 7.14721 12.6307 6.74902 12.2034 6.50236C11.9195 6.33842 11.6046 6.25539 11.2861 6.25539C11.1674 6.25539 11.0946 6.08024 11.1586 5.96509C11.3083 5.69569 11.3883 5.39175 11.3883 5.07478C11.3883 4.58115 11.1961 4.11751 10.847 3.76842C10.4983 3.41993 10.0346 3.22751 9.54099 3.22751C9.04796 3.22751 8.58402 3.41963 8.23493 3.76842C8.23493 3.76842 8.1719 3.88175 8.04887 3.87902C7.92584 3.8766 7.8619 3.76842 7.8619 3.76842C7.51281 3.41963 7.04887 3.22751 6.55584 3.22751C6.0622 3.22751 5.59856 3.41993 5.24978 3.76842C4.65826 4.36024 4.55372 5.25569 4.93493 5.9563C4.99887 6.07387 4.93038 6.25539 4.81159 6.25539C4.49281 6.25539 4.17826 6.33842 3.89462 6.50236C3.46705 6.74902 3.16159 7.14721 3.03402 7.62387C2.90614 8.10024 2.97159 8.59812 3.21856 9.02539C3.46493 9.45266 3.86311 9.75842 4.34008 9.886C4.34008 9.886 4.49038 9.90569 4.52493 10.0245C4.54644 10.0978 4.52675 10.209 4.52675 10.209C4.39887 10.6857 4.46432 11.1836 4.71099 11.6108C4.95796 12.0381 5.35614 12.3436 5.83281 12.4715C5.9922 12.5142 6.1522 12.5345 6.31008 12.5345C6.99614 12.5345 7.63493 12.1475 7.95129 11.533C7.98856 11.4608 8.10614 11.4539 8.14129 11.5224C8.45584 12.143 9.09735 12.5345 9.78765 12.5345C9.94553 12.5345 10.1055 12.5142 10.2649 12.4715C10.7416 12.3436 11.1398 12.0381 11.3867 11.6108C11.6334 11.1836 11.6989 10.6857 11.571 10.209C11.571 10.209 11.5349 10.1066 11.5713 10.0121C11.6077 9.91721 11.7577 9.886 11.7577 9.886Z" fill="#2D373D"/>
</svg>
