<svg width="64" height="65" viewBox="0 0 64 65" fill="none" xmlns="http://www.w3.org/2000/svg">
<path fill-rule="evenodd" clip-rule="evenodd" d="M5.91782 9.66421C5.13677 8.88316 5.13677 7.61683 5.91782 6.83579C6.69887 6.05474 7.96519 6.05474 8.74625 6.83579L24.2278 22.3173L32.9335 7.24963C33.3863 6.46594 34.309 6.08402 35.1832 6.31841C36.0574 6.55281 36.6653 7.34509 36.6653 8.25018V25.5835H47.0046C49.1028 25.5835 50.3791 27.8947 49.2615 29.6705L42.4324 40.5219L58.0796 56.1691C58.8606 56.9502 58.8606 58.2165 58.0796 58.9975C57.2985 59.7786 56.0322 59.7786 55.2511 58.9975L5.91782 9.66421ZM39.5317 37.6212L44.59 29.5835H35.3319C33.8592 29.5835 32.6653 28.3896 32.6653 26.9168V15.7095L27.1557 25.2453L39.5317 37.6212Z" fill="#2D373D"/>
<path d="M23.0637 32.3277C23.6162 31.3712 23.2889 30.148 22.3325 29.5954C21.3761 29.0428 20.1528 29.3701 19.6002 30.3265L16.1781 36.2494C15.1509 38.0272 16.4339 40.2502 18.4871 40.2502H27.3319V57.5835C27.3319 58.4746 27.9214 59.2582 28.7776 59.5052C29.6337 59.7521 30.55 59.4029 31.0246 58.6488L38.157 47.3154C38.7453 46.3806 38.4644 45.1458 37.5296 44.5575C36.5947 43.9692 35.36 44.2501 34.7716 45.1849L31.3319 50.6506V38.9168C31.3319 37.4441 30.138 36.2502 28.6653 36.2502H20.7973L23.0637 32.3277Z" fill="#2D373D"/>
</svg>
