<svg width="24" height="25" viewBox="0 0 24 25" fill="none" xmlns="http://www.w3.org/2000/svg">
<path d="M11 4.16992C11 4.44992 10.78 4.66992 10.5 4.66992H10.25V4.91992C10.25 5.19992 10.03 5.41992 9.75 5.41992C9.47 5.41992 9.25 5.19992 9.25 4.91992V4.66992H9C8.72 4.66992 8.5 4.44992 8.5 4.16992C8.5 3.88992 8.72 3.66992 9 3.66992H9.25V3.41992C9.25 3.13992 9.47 2.91992 9.75 2.91992C10.03 2.91992 10.25 3.13992 10.25 3.41992V3.66992H10.5C10.78 3.66992 11 3.88992 11 4.16992Z" fill="#2D373D"/>
<path d="M8.75 14.9199V18.4199C8.75 18.8299 8.41 19.1699 8 19.1699C7.59 19.1699 7.25 18.8299 7.25 18.4199V14.9199C7.25 14.5099 7.59 14.1699 8 14.1699C8.41 14.1699 8.75 14.5099 8.75 14.9199Z" fill="#2D373D"/>
<path d="M8 10.1689C7.59 10.1689 7.25 9.82895 7.25 9.41895V8.41895C7.25 8.00895 7.59 7.66895 8 7.66895C8.41 7.66895 8.75 8.00895 8.75 8.41895V9.41895C8.75 9.82895 8.41 10.1689 8 10.1689Z" fill="#2D373D"/>
<path d="M17.27 5.53027H16.5C16.09 5.53027 15.75 5.87027 15.75 6.28027C15.75 6.69027 16.09 7.03027 16.5 7.03027H17.27C17.36 7.03027 17.5 7.18027 17.5 7.42027V11.1703H6.5V7.42027C6.5 7.18027 6.64 7.03027 6.74 7.03027H8.5C8.91 7.03027 9.25 6.70027 9.25 6.28027C9.25 5.86027 8.91 5.53027 8.5 5.53027H6.74C5.78 5.53027 5 6.38027 5 7.42027V20.0303C5 21.0703 5.78 21.9203 6.74 21.9203H7.25V22.1703C7.25 22.5803 7.59 22.9203 8 22.9203C8.41 22.9203 8.75 22.5803 8.75 22.1703V21.9203H15.25V22.1703C15.25 22.5803 15.59 22.9203 16 22.9203C16.41 22.9203 16.75 22.5803 16.75 22.1703V21.9203H17.27C18.22 21.9203 19 21.0703 19 20.0303V7.42027C19 6.38027 18.22 5.53027 17.27 5.53027ZM17.5 20.0303C17.5 20.2703 17.36 20.4203 17.27 20.4203H6.74C6.64 20.4203 6.5 20.2703 6.5 20.0303V12.6703H17.5V20.0303Z" fill="#2D373D"/>
<path d="M15.04 4.91992C14.66 4.88992 14.03 4.74992 13.85 4.56992C13.67 4.38992 13.53 3.75992 13.5 3.37992C13.48 3.11992 13.26 2.91992 13 2.91992C12.74 2.91992 12.52 3.11992 12.5 3.37992C12.47 3.75992 12.33 4.38992 12.15 4.56992C11.97 4.74992 11.34 4.88992 10.96 4.91992C10.7 4.93992 10.5 5.15992 10.5 5.41992C10.5 5.67992 10.7 5.89992 10.96 5.91992C11.34 5.94992 11.97 6.08992 12.15 6.26992C12.33 6.44992 12.47 7.07992 12.5 7.45992C12.52 7.71992 12.74 7.91992 13 7.91992C13.26 7.91992 13.48 7.71992 13.5 7.45992C13.53 7.07992 13.67 6.45992 13.85 6.26992C14.03 6.08992 14.66 5.94992 15.04 5.91992C15.3 5.89992 15.5 5.67992 15.5 5.41992C15.5 5.15992 15.3 4.93992 15.04 4.91992ZM13.15 5.56992C13.09 5.61992 13.04 5.67992 13 5.73992C12.96 5.67992 12.91 5.61992 12.85 5.56992C12.8 5.50992 12.74 5.45992 12.68 5.41992C12.74 5.36992 12.8 5.32992 12.85 5.26992C12.91 5.21992 12.96 5.15992 13 5.09992C13.04 5.15992 13.09 5.21992 13.15 5.26992C13.2 5.32992 13.26 5.36992 13.32 5.41992C13.26 5.45992 13.2 5.50992 13.15 5.56992Z" fill="#2D373D"/>
</svg>
