<svg width="16" height="17" viewBox="0 0 16 17" fill="none" xmlns="http://www.w3.org/2000/svg">
<path fill-rule="evenodd" clip-rule="evenodd" d="M2.8335 6.52318C2.8335 6.24703 3.05735 6.02318 3.3335 6.02318H12.6668C12.943 6.02318 13.1668 6.24703 13.1668 6.52318V14.9232C13.1668 15.1993 12.943 15.4232 12.6668 15.4232H3.3335C3.05735 15.4232 2.8335 15.1993 2.8335 14.9232V6.52318ZM3.8335 7.02318V14.4232H12.1668V7.02318H3.8335Z" fill="#2D373D"/>
<path fill-rule="evenodd" clip-rule="evenodd" d="M8.00016 4.08984C7.00082 4.08984 6.16683 4.92713 6.16683 5.98984C6.16683 6.16483 6.18954 6.3335 6.23175 6.49322L5.26495 6.74874C5.20086 6.50624 5.16683 6.2517 5.16683 5.98984C5.16683 4.40159 6.42217 3.08984 8.00016 3.08984C9.57815 3.08984 10.8335 4.40159 10.8335 5.98984C10.8335 6.2517 10.7995 6.50624 10.7354 6.74874L9.76857 6.49322C9.81079 6.3335 9.8335 6.16483 9.8335 5.98984C9.8335 4.92713 8.9995 4.08984 8.00016 4.08984Z" fill="#2D373D"/>
<path d="M9.16683 10.1232C9.16683 10.7859 8.64449 11.3232 8.00016 11.3232C7.35583 11.3232 6.8335 10.7859 6.8335 10.1232C6.8335 9.46043 7.35583 8.92318 8.00016 8.92318C8.64449 8.92318 9.16683 9.46043 9.16683 10.1232Z" fill="#2D373D"/>
</svg>
