<svg width="64" height="64" viewBox="0 0 64 64" fill="none" xmlns="http://www.w3.org/2000/svg">
<path d="M18 26.6668C18 25.5623 17.1046 24.6668 16 24.6668C14.8954 24.6668 14 25.5623 14 26.6668V33.3335C14 34.4381 14.8954 35.3335 16 35.3335C17.1046 35.3335 18 34.4381 18 33.3335V26.6668Z" fill="#2D373D"/>
<path fill-rule="evenodd" clip-rule="evenodd" d="M6 18.6668C6 14.6167 9.28325 11.3335 13.3333 11.3335H40C44.0501 11.3335 47.3333 14.6167 47.3333 18.6668V20.6586L47.3679 20.6328C48.1658 20.0369 49.0916 19.3455 50.0698 18.7273C52.0437 17.4797 54.2026 17.7057 55.7827 18.9365C57.2638 20.0902 58.1015 21.9981 58.1015 24.0002V33.3335L58.0927 40.0225C58.0905 42.0262 57.2494 43.9341 55.765 45.0849C54.1808 46.313 52.0196 46.5312 50.049 45.2751C49.0782 44.6563 48.1594 43.9655 47.3671 43.3699L47.3333 43.3445V45.3335C47.3333 49.3836 44.0501 52.6668 40 52.6668H13.3333C9.28325 52.6668 6 49.3836 6 45.3335V18.6668ZM47.3333 38.4639V25.5307C48.0766 25.0904 48.8402 24.5247 49.5433 24.0005L49.7439 23.8508C50.5624 23.2399 51.3668 22.6395 52.2069 22.1085C52.5139 21.9145 52.7281 21.8896 52.8546 21.8965C52.988 21.9038 53.1471 21.9538 53.3246 22.0921C53.7027 22.3866 54.1015 23.0567 54.1015 24.0002V31.9992L54.0927 40.0171C54.0917 40.9616 53.6915 41.6305 53.3137 41.9234C53.1365 42.0608 52.978 42.11 52.8452 42.1169C52.7194 42.1234 52.5053 42.0979 52.1984 41.9023C51.3645 41.3707 50.5664 40.771 49.7542 40.1607L49.5485 40.0062C48.844 39.4774 48.0783 38.9067 47.3333 38.4639ZM13.3333 15.3335C11.4924 15.3335 10 16.8259 10 18.6668V45.3335C10 47.1744 11.4924 48.6668 13.3333 48.6668H40C41.841 48.6668 43.3333 47.1744 43.3333 45.3335V18.6668C43.3333 16.8259 41.841 15.3335 40 15.3335H13.3333Z" fill="#2D373D"/>
</svg>
