<svg width="16" height="16" viewBox="0 0 16 16" fill="none" xmlns="http://www.w3.org/2000/svg">
<path fill-rule="evenodd" clip-rule="evenodd" d="M2.71642 1.61573C2.79993 1.44314 2.97478 1.3335 3.16651 1.3335H12.8332C13.0249 1.3335 13.1998 1.44314 13.2833 1.61573C13.3668 1.78832 13.3442 1.99346 13.2252 2.1438L9.61523 6.70484V12.6668C9.61523 12.8342 9.53151 12.9904 9.39219 13.0831L7.16142 14.5673C7.00796 14.6694 6.81079 14.6788 6.64832 14.5917C6.48586 14.5047 6.38446 14.3353 6.38446 14.151V6.70484L2.77445 2.1438C2.65546 1.99346 2.63292 1.78832 2.71642 1.61573ZM4.19991 2.3335L7.27651 6.2206C7.34642 6.30893 7.38446 6.41827 7.38446 6.53091V13.2178L8.61523 12.3989V6.53091C8.61523 6.41827 8.65326 6.30893 8.72317 6.2206L11.7998 2.3335H4.19991Z" fill="#2D373D"/>
</svg>
