<svg width="16" height="17" viewBox="0 0 16 17" fill="none" xmlns="http://www.w3.org/2000/svg">
<path d="M13.75 6.51075C13.6 6.36075 13.4 6.21075 13.15 6.21075L10.25 5.91075L8.75 2.91075C8.65 2.71075 8.5 2.61075 8.35 2.51075C7.9 2.31075 7.4 2.46075 7.15 2.91075L5.65 5.91075L2.75 6.16075C2.55 6.16075 2.35 6.26075 2.2 6.41075C1.85 6.76075 1.85 7.31075 2.2 7.66075L4.6 10.0607L3.7 13.3107C3.65 13.5607 3.65 13.7607 3.75 13.9607C3.95 14.4107 4.5 14.5607 4.95 14.3607L7.95 12.8607L10.95 14.3607C11.05 14.4107 11.2 14.4607 11.35 14.4607C11.45 14.4607 11.55 14.4607 11.6 14.4607C11.85 14.4107 12.05 14.2607 12.15 14.0607C12.3 13.8607 12.3 13.6107 12.25 13.3607L11.35 10.1107L13.75 7.71075C13.9 7.56075 14 7.36075 14 7.16075C14.05 6.91075 13.95 6.71075 13.75 6.51075Z" fill="#2D373D"/>
</svg>
