<svg width="64" height="65" viewBox="0 0 64 65" fill="none" xmlns="http://www.w3.org/2000/svg">
<path d="M44.0002 29.6619L33.4002 19.0619C32.6002 18.2619 31.4002 18.2619 30.6002 19.0619L19.8002 29.6619C19.0002 30.4619 19.0002 31.6619 19.8002 32.4619C20.2002 32.8619 20.6002 33.0619 21.2002 33.0619C21.8002 33.0619 22.2002 32.8619 22.6002 32.4619L30.0002 25.2619V44.4619C30.0002 45.6619 30.8002 46.4619 32.0002 46.4619C33.0002 46.4619 34.0002 45.6619 34.0002 44.4619V25.2619L41.2002 32.4619C42.0002 33.2619 43.2002 33.2619 44.0002 32.4619C44.8002 31.6619 44.8002 30.4619 44.0002 29.6619Z" fill="#2D373D"/>
</svg>
