<svg width="64" height="65" viewBox="0 0 64 65" fill="none" xmlns="http://www.w3.org/2000/svg">
<path fill-rule="evenodd" clip-rule="evenodd" d="M24.6663 13.5859C24.6663 12.4814 25.5617 11.5859 26.6663 11.5859H43.2109C47.9431 11.5859 50.8432 13.8049 52.4951 16.0763C53.2982 17.1806 53.7941 18.2749 54.0905 19.09C54.2397 19.5002 54.3412 19.8476 54.4071 20.1014C54.4401 20.2285 54.4644 20.3328 54.4814 20.4106C54.4898 20.4495 54.4965 20.4818 54.5016 20.5071L54.5079 20.5397L54.5102 20.552L54.5112 20.5571C54.5112 20.5571 54.512 20.5615 52.5443 20.9193L54.512 20.5615C54.5165 20.5864 54.5206 20.6114 54.5242 20.6364L55.862 30.0011L58.6505 52.0011C58.7227 52.5708 58.5465 53.1441 58.1668 53.5749C57.7872 54.0058 57.2406 54.2526 56.6663 54.2526H7.33301C6.22844 54.2526 5.33301 53.3572 5.33301 52.2526C5.33301 44.4848 7.23988 38.4273 11.0259 34.3005C14.837 30.1465 20.2713 28.2526 26.6663 28.2526H51.5716L50.5727 21.2605C50.5661 21.2304 50.5541 21.1782 50.5356 21.107C50.4973 20.9597 50.4322 20.7342 50.3313 20.4569C50.1277 19.897 49.7903 19.1579 49.2601 18.4289C48.2453 17.0336 46.4787 15.5859 43.2109 15.5859H26.6663C25.5617 15.5859 24.6663 14.6905 24.6663 13.5859ZM52.1151 32.2526H26.6663C21.0613 32.2526 16.829 33.8921 13.9734 37.0047C11.369 39.8435 9.68074 44.156 9.38097 50.2526H54.3968L52.1151 32.2526Z" fill="#2D373D"/>
<path d="M23.2187 45.4716C22.1773 46.513 20.4888 46.513 19.4474 45.4716C18.406 44.4302 18.406 42.7417 19.4474 41.7003C20.4888 40.6589 22.1773 40.6589 23.2187 41.7003C24.2601 42.7417 24.2601 44.4302 23.2187 45.4716Z" fill="#2D373D"/>
<path d="M33.8853 45.4716C32.8439 46.513 31.1555 46.513 30.1141 45.4716C29.0727 44.4302 29.0727 42.7417 30.1141 41.7003C31.1555 40.6589 32.8439 40.6589 33.8853 41.7003C34.9267 42.7417 34.9267 44.4302 33.8853 45.4716Z" fill="#2D373D"/>
<path d="M44.552 45.4716C43.5106 46.513 41.8222 46.513 40.7808 45.4716C39.7394 44.4302 39.7394 42.7417 40.7808 41.7003C41.8222 40.6589 43.5106 40.6589 44.552 41.7003C45.5934 42.7417 45.5934 44.4302 44.552 45.4716Z" fill="#2D373D"/>
</svg>
