<svg width="64" height="65" viewBox="0 0 64 65" fill="none" xmlns="http://www.w3.org/2000/svg">
<path d="M54.1996 43.0617L47.3996 21.6617H54.1996C55.1996 21.6617 56.1996 20.8617 56.1996 19.6617C56.1996 18.4617 55.3996 17.6617 54.1996 17.6617H33.9996V10.2617C33.9996 9.06172 33.1996 8.26172 31.9996 8.26172C30.7996 8.26172 29.9996 9.06172 29.9996 10.2617V17.6617H9.79961C8.59961 17.6617 7.79961 18.4617 7.79961 19.6617C7.79961 20.8617 8.59961 21.6617 9.79961 21.6617H16.3996L9.59961 43.0617C8.39961 43.0617 7.59961 43.8617 7.59961 45.0617C7.59961 51.4617 12.7996 56.6617 19.1996 56.6617C25.5996 56.6617 30.7996 51.4617 30.5996 45.0617C30.5996 43.8617 29.7996 43.2617 28.7996 43.0617L21.9996 21.6617H41.7996L34.9996 43.0617C33.7996 43.0617 32.9996 43.8617 32.9996 45.0617C32.9996 51.4617 38.1996 56.6617 44.5996 56.6617C50.9996 56.6617 56.1996 51.4617 55.9996 45.0617C55.9996 44.0617 55.3996 43.2617 54.1996 43.0617ZM19.1996 26.4617L24.3996 43.0617H13.9996L19.1996 26.4617ZM19.1996 52.6617C15.7996 52.6617 12.9996 50.2617 11.9996 47.0617H26.3996C25.5996 50.2617 22.5996 52.6617 19.1996 52.6617ZM44.5996 26.4617L49.7996 43.0617H39.3996L44.5996 26.4617ZM44.5996 52.6617C41.1996 52.6617 38.1996 50.2617 37.3996 47.0617H51.7996C50.9996 50.2617 47.9996 52.6617 44.5996 52.6617Z" fill="#2D373D"/>
</svg>
