<svg width="64" height="65" viewBox="0 0 64 65" fill="none" xmlns="http://www.w3.org/2000/svg">
<path fill-rule="evenodd" clip-rule="evenodd" d="M15.31 16.2335C16.2352 15.3083 17.49 14.7886 18.7984 14.7886H30.5315C31.8399 14.7886 33.0947 15.3083 34.0199 16.2335C34.945 17.1587 35.4648 18.4135 35.4648 19.7219C35.4648 21.0303 34.945 22.2851 34.0199 23.2103C33.0947 24.1355 31.8399 24.6552 30.5315 24.6552H18.7984C17.49 24.6552 16.2352 24.1355 15.31 23.2103C14.3848 22.2851 13.8651 21.0303 13.8651 19.7219C13.8651 18.4135 14.3848 17.1587 15.31 16.2335ZM18.7984 18.7886C18.5508 18.7886 18.3135 18.8869 18.1384 19.0619C17.9634 19.237 17.8651 19.4744 17.8651 19.7219C17.8651 19.9695 17.9634 20.2069 18.1384 20.3819C18.3135 20.5569 18.5508 20.6552 18.7984 20.6552H30.5315C30.779 20.6552 31.0164 20.5569 31.1914 20.3819C31.3665 20.2069 31.4648 19.9695 31.4648 19.7219C31.4648 19.4744 31.3665 19.237 31.1914 19.0619C31.0164 18.8869 30.779 18.7886 30.5315 18.7886H18.7984Z" fill="#2D373D"/>
<path fill-rule="evenodd" clip-rule="evenodd" d="M8.00049 52.9663C8.00049 55.1508 9.77141 56.9218 11.956 56.9218H37.3778C39.5624 56.9218 41.3333 55.1508 41.3333 52.9663V21.722H42.2619C42.5094 21.722 42.7468 21.8203 42.9218 21.9954C43.0969 22.1704 43.1952 22.4078 43.1952 22.6553V51.9886C43.1952 53.297 43.7149 54.5518 44.6401 55.477C45.5653 56.4022 46.8201 56.922 48.1285 56.922C49.4369 56.922 50.6917 56.4022 51.6168 55.477C52.542 54.5518 53.0618 53.297 53.0618 51.9886V36.3885H54.0015C55.1061 36.3885 56.0015 35.4931 56.0015 34.3885C56.0015 33.2839 55.1061 32.3885 54.0015 32.3885H53.326C53.5419 31.5857 53.8876 30.8189 54.3532 30.1198L55.6581 28.1663C56.2717 27.2478 56.0245 26.0058 55.106 25.3922C54.1875 24.7787 52.9455 25.0259 52.332 25.9444L51.0243 27.902C49.7444 29.8232 49.0616 32.0804 49.0618 34.3889V51.9886C49.0618 52.2362 48.9634 52.4736 48.7884 52.6486C48.6134 52.8237 48.376 52.922 48.1285 52.922C47.881 52.922 47.6436 52.8237 47.4686 52.6486C47.2935 52.4736 47.1952 52.2362 47.1952 51.9886V22.6553C47.1952 21.3469 46.6754 20.0921 45.7503 19.167C44.8251 18.2418 43.5703 17.722 42.2619 17.722H41.3333V12.8774C41.3333 10.6929 39.5624 8.92188 37.3778 8.92188H11.956C9.77141 8.92188 8.00049 10.6929 8.00049 12.8774V52.9663ZM12.0005 30.522V52.9218H37.3333V30.522H12.0005ZM37.3286 19.722C37.3286 19.6754 37.3302 19.6292 37.3333 19.5834V12.9219H12.0005V26.522H37.3333V19.8606C37.3302 19.8148 37.3286 19.7686 37.3286 19.722Z" fill="#2D373D"/>
</svg>
