<svg width="16" height="16" viewBox="0 0 16 16" fill="none" xmlns="http://www.w3.org/2000/svg">
<path d="M6.06738 3.26749C6.06738 2.88508 6.18078 2.51125 6.39324 2.19329C6.60569 1.87533 6.90766 1.62751 7.26096 1.48116C7.61427 1.33482 8.00303 1.29653 8.37809 1.37114C8.75315 1.44574 9.09767 1.62989 9.36808 1.90029C9.63848 2.1707 9.82263 2.51522 9.89723 2.89028C9.97184 3.26534 9.93355 3.6541 9.78721 4.0074C9.64086 4.3607 9.39304 4.66268 9.07508 4.87513C8.75712 5.08759 8.38329 5.20099 8.00088 5.20099C7.48817 5.20072 6.99653 4.99693 6.63398 4.63438C6.27144 4.27184 6.06765 3.7802 6.06738 3.26749ZM8.93388 3.26749C8.93676 3.14311 8.91475 3.01942 8.86915 2.90367C8.82354 2.78792 8.75526 2.68246 8.66831 2.59348C8.58137 2.5045 8.47751 2.43379 8.36285 2.38552C8.24819 2.33725 8.12504 2.31238 8.00063 2.31238C7.87623 2.31238 7.75307 2.33725 7.63841 2.38552C7.52376 2.43379 7.4199 2.5045 7.33296 2.59348C7.24601 2.68246 7.17773 2.78792 7.13212 2.90367C7.08652 3.01942 7.0645 3.14311 7.06738 3.26749C7.0645 3.39186 7.08652 3.51555 7.13212 3.6313C7.17773 3.74705 7.24601 3.85251 7.33296 3.94149C7.4199 4.03047 7.52376 4.10118 7.63841 4.14945C7.75307 4.19772 7.87623 4.22259 8.00063 4.22259C8.12504 4.22259 8.24819 4.19772 8.36285 4.14945C8.47751 4.10118 8.58137 4.03047 8.66831 3.94149C8.75526 3.85251 8.82354 3.74705 8.86915 3.6313C8.91475 3.51555 8.93676 3.39186 8.93388 3.26749Z" fill="#2D373D"/>
<path d="M6.06738 12.734C6.06738 12.3516 6.18078 11.9778 6.39324 11.6598C6.60569 11.3419 6.90766 11.0941 7.26096 10.9477C7.61427 10.8014 8.00303 10.7631 8.37809 10.8377C8.75315 10.9123 9.09767 11.0964 9.36808 11.3668C9.63848 11.6373 9.82263 11.9818 9.89723 12.3568C9.97184 12.7319 9.93355 13.1207 9.78721 13.474C9.64086 13.8273 9.39304 14.1292 9.07508 14.3417C8.75712 14.5541 8.38329 14.6675 8.00088 14.6675C7.48817 14.6673 6.99653 14.4635 6.63398 14.1009C6.27144 13.7384 6.06765 13.2468 6.06738 12.734ZM8.93388 12.734C8.93388 12.5494 8.87914 12.3689 8.77656 12.2154C8.67399 12.0619 8.52819 11.9423 8.35762 11.8716C8.18704 11.8009 7.99935 11.7825 7.81827 11.8185C7.63719 11.8545 7.47085 11.9434 7.3403 12.074C7.20975 12.2045 7.12084 12.3708 7.08482 12.5519C7.0488 12.733 7.06729 12.9207 7.13794 13.0913C7.2086 13.2618 7.32825 13.4076 7.48176 13.5102C7.63527 13.6128 7.81575 13.6675 8.00038 13.6675C8.1238 13.6706 8.24654 13.6485 8.36116 13.6026C8.47578 13.5568 8.57989 13.4881 8.66718 13.4008C8.75448 13.3135 8.82313 13.2094 8.86897 13.0948C8.91482 12.9802 8.9369 12.8575 8.93388 12.734Z" fill="#2D373D"/>
<path d="M6.06738 8.00101C6.06738 7.6186 6.18078 7.24477 6.39324 6.92681C6.60569 6.60885 6.90766 6.36103 7.26096 6.21469C7.61427 6.06834 8.00303 6.03005 8.37809 6.10466C8.75315 6.17926 9.09767 6.36341 9.36808 6.63382C9.63848 6.90422 9.82263 7.24874 9.89723 7.6238C9.97184 7.99886 9.93355 8.38762 9.78721 8.74092C9.64086 9.09423 9.39304 9.3962 9.07508 9.60865C8.75712 9.82111 8.38329 9.93451 8.00088 9.93451C7.48817 9.93424 6.99653 9.73045 6.63398 9.3679C6.27144 9.00536 6.06765 8.51372 6.06738 8.00101ZM8.93388 8.00101C8.93388 7.81638 8.87914 7.63589 8.77656 7.48238C8.67399 7.32887 8.52819 7.20922 8.35762 7.13856C8.18704 7.06791 7.99935 7.04942 7.81827 7.08544C7.63719 7.12146 7.47085 7.21037 7.3403 7.34092C7.20975 7.47147 7.12084 7.63781 7.08482 7.81889C7.0488 7.99997 7.06729 8.18767 7.13794 8.35824C7.2086 8.52882 7.32825 8.67461 7.48176 8.77718C7.63527 8.87976 7.81575 8.93451 8.00038 8.93451C8.1238 8.93752 8.24654 8.91544 8.36116 8.86959C8.47578 8.82375 8.57989 8.7551 8.66718 8.66781C8.75448 8.58051 8.82313 8.4764 8.86897 8.36178C8.91482 8.24716 8.9369 8.12442 8.93388 8.00101Z" fill="#2D373D"/>
</svg>
