<svg width="16" height="17" viewBox="0 0 16 17" fill="none" xmlns="http://www.w3.org/2000/svg">
<path fill-rule="evenodd" clip-rule="evenodd" d="M3.82737 4.74979C4.05867 4.51849 4.37237 4.38855 4.69947 4.38855H7.63275C7.95985 4.38855 8.27355 4.51849 8.50485 4.74979C8.73614 4.98108 8.86607 5.29479 8.86607 5.62188C8.86607 5.94898 8.73614 6.26268 8.50485 6.49398C8.27355 6.72527 7.95985 6.85522 7.63275 6.85522H4.69947C4.37237 6.85522 4.05867 6.72527 3.82737 6.49398C3.59608 6.26268 3.46615 5.94898 3.46615 5.62188C3.46615 5.29479 3.59608 4.98108 3.82737 4.74979ZM4.69947 5.38855C4.63759 5.38855 4.57824 5.41313 4.53449 5.45689C4.49073 5.50065 4.46615 5.56 4.46615 5.62188C4.46615 5.68377 4.49073 5.74312 4.53449 5.78688C4.57824 5.83063 4.63759 5.85522 4.69947 5.85522H7.63275C7.69463 5.85522 7.75398 5.83063 7.79773 5.78688C7.84149 5.74312 7.86607 5.68377 7.86607 5.62188C7.86607 5.56 7.84149 5.50065 7.79773 5.45689C7.75398 5.41313 7.69463 5.38855 7.63275 5.38855H4.69947Z" fill="#2D373D"/>
<path fill-rule="evenodd" clip-rule="evenodd" d="M2 13.933C2 14.4791 2.44273 14.9219 2.98888 14.9219H9.34433C9.89048 14.9219 10.3332 14.4791 10.3332 13.933V6.12191H10.5654C10.6272 6.12191 10.6866 6.14649 10.7303 6.19025C10.7741 6.234 10.7987 6.29335 10.7987 6.35524V13.6886C10.7987 14.0157 10.9286 14.3294 11.1599 14.5607C11.3912 14.792 11.7049 14.9219 12.032 14.9219C12.3591 14.9219 12.6728 14.792 12.9041 14.5607C13.1354 14.3294 13.2653 14.0157 13.2653 13.6886V9.78853H13.5002C13.7764 9.78853 14.0002 9.56468 14.0002 9.28853C14.0002 9.01239 13.7764 8.78853 13.5002 8.78853H13.3314C13.3854 8.58784 13.4718 8.39612 13.5882 8.22134L13.9144 7.73297C14.0678 7.50335 14.006 7.19285 13.7764 7.03947C13.5467 6.88608 13.2363 6.94788 13.0829 7.17751L12.756 7.66691C12.436 8.14721 12.2653 8.7115 12.2653 9.28863V13.6886C12.2653 13.7505 12.2407 13.8098 12.197 13.8536C12.1532 13.8973 12.0939 13.9219 12.032 13.9219C11.9701 13.9219 11.9108 13.8973 11.867 13.8536C11.8233 13.8098 11.7987 13.7505 11.7987 13.6886V6.35524C11.7987 6.02814 11.6687 5.71444 11.4374 5.48314C11.2062 5.25185 10.8925 5.12191 10.5654 5.12191H10.3332V3.91076C10.3332 3.36462 9.89048 2.92188 9.34433 2.92188H2.98888C2.44273 2.92188 2 3.36462 2 3.91076V13.933ZM3 8.3219V13.9219H9.33321V8.3219H3ZM9.33203 5.62191C9.33203 5.61026 9.33243 5.5987 9.33321 5.58725V3.92188H3V7.3219H9.33321V5.65657C9.33243 5.64512 9.33203 5.63356 9.33203 5.62191Z" fill="#2D373D"/>
</svg>
