<svg width="32" height="33" viewBox="0 0 32 33" fill="none" xmlns="http://www.w3.org/2000/svg">
<path d="M27.5 5.96147C26.9 5.16147 25.9 4.56147 24.9 4.36147C23.8 4.26147 22.8 4.46147 21.9 5.06147C21.7 5.26147 21.5 5.36147 21.4 5.46147L18.5 8.36147L9.9 6.16147C9.1 5.96147 8.2 6.16147 7.6 6.76147L6.9 7.46147C6.4 7.96147 6.1 8.66147 6.1 9.26147C6.1 9.86147 6.4 10.4615 6.9 10.9615C7 11.1615 7.2 11.2615 7.3 11.3615L12.5 14.5615L8.9 18.6615H7.9C7.2 18.5615 6.4 18.7615 5.9 19.2615L4.4 20.6615C3.7 21.3615 3.7 22.4615 4.4 23.1615C4.6 23.2615 4.7 23.3615 4.9 23.4615L7.6 24.9615L9.3 27.6615C9.5 27.9615 9.8 28.2615 10.2 28.4615C10.4 28.5615 10.6 28.5615 10.8 28.5615C11 28.5615 11.2 28.4615 11.4 28.3615C11.6 28.3615 11.8 28.1615 12.1 27.9615L13.4 26.7615C14 26.2615 14.3 25.4615 14.2 24.6615V23.6615L18.2 19.9615L21.3 25.1615C21.6 25.6615 22.2 26.0615 22.8 26.2615C23.5 26.3615 24.1 26.2615 24.7 25.9615C24.8 25.8615 25 25.7615 25.1 25.6615C25.2 25.5615 25.2 25.5615 25.2 25.5615L25.9 24.8615C26.5 24.2615 26.7 23.2615 26.5 22.4615L24.2 13.8615L26.9 11.1615C28.4 9.86147 28.6 7.66147 27.5 5.96147ZM25.3 9.66147L22.1 12.8615C21.8 13.1615 21.7 13.5615 21.8 13.8615L24.2 22.9615C24.3 23.1615 24.2 23.3615 24.1 23.4615L23.5 24.0615C23.5 24.1615 23.4 24.1615 23.4 24.1615C23.2 24.2615 23.1 24.2615 23 24.2615C22.9 24.2615 22.8 24.1615 22.7 24.0615L19 17.8615C18.9 17.5615 18.6 17.3615 18.3 17.3615C18 17.3615 17.7 17.4615 17.5 17.6615L12.3 22.5615C12.1 22.7615 12 22.9615 12 23.2615V24.7615C12 24.8615 12 24.8615 12 24.9615C12.1 25.0615 12 25.2615 11.9 25.3615L10.8 26.3615L9.1 23.6615C9 23.5615 8.8 23.4615 8.7 23.3615L6.1 21.8615L7.4 20.6615C7.5 20.5615 7.7 20.5615 7.8 20.5615C7.9 20.5615 7.9 20.5615 8 20.5615H9.5C9.7 20.5615 10 20.4615 10.2 20.2615L14.9 14.8615C15.1 14.6615 15.1 14.3615 15.1 14.0615C15 13.7615 14.9 13.5615 14.6 13.3615L8.3 9.66147L8.2 9.56147C8.1 9.46147 8.1 9.36147 8.1 9.26147C8.1 9.16147 8.1 8.96147 8.3 8.86147L8.9 8.16147C9.1 8.06147 9.2 8.06147 9.4 8.06147L18.3 10.3615C18.7 10.4615 19 10.3615 19.3 10.0615L22.6 6.76147C22.7 6.66147 22.8 6.66147 22.9 6.56147C23.4 6.26147 23.9 6.16147 24.4 6.26147C24.9 6.36147 25.3 6.66147 25.6 7.06147C26.2 7.86147 26 8.96147 25.3 9.66147Z" fill="#2D373D"/>
</svg>
