<svg width="32" height="33" viewBox="0 0 32 33" fill="none" xmlns="http://www.w3.org/2000/svg">
<path fill-rule="evenodd" clip-rule="evenodd" d="M8.6097 5.30892C8.94825 4.87257 9.57643 4.79329 10.0128 5.13184L12.6756 7.19779H18.6667V6.68054C18.6667 6.1681 19.054 5.73858 19.5638 5.68585L26.8971 4.92723C27.1787 4.8981 27.4595 4.9897 27.6697 5.17932C27.88 5.36894 28 5.6388 28 5.92192V10.4736C28 10.7568 27.88 11.0266 27.6697 11.2162C27.4595 11.4059 27.1787 11.4975 26.8971 11.4683L19.5638 10.7097C19.054 10.657 18.6667 10.2275 18.6667 9.71502V9.19779H16.9997V9.81571C17.6019 10.2695 18.1059 10.8474 18.4793 11.5126C18.9497 12.3507 19.1974 13.2997 19.1997 14.2644L19.1997 14.2668V15.7552C19.2 15.7647 19.2001 15.7744 19.2001 15.784C19.2001 15.7937 19.2 15.8033 19.1997 15.8129L19.1997 23.3413C19.2 23.3509 19.2001 23.3606 19.2001 23.3702C19.2001 23.3799 19.2 23.3895 19.1997 23.3991V26.4047C19.1997 27.0616 18.9478 27.6981 18.4891 28.1726C18.0293 28.6482 17.3984 28.9219 16.733 28.9219H10.8664C10.201 28.9219 9.5701 28.6482 9.11032 28.1726C8.65167 27.6981 8.39974 27.0616 8.39974 26.4047V14.2668L8.39974 14.2644C8.40206 13.2997 8.6497 12.3507 9.12011 11.5126C9.4935 10.8474 9.9975 10.2695 10.5997 9.81571V9.20542C9.4165 9.27313 8.28894 9.78935 7.43729 10.6704C6.52069 11.6186 6 12.9117 6 14.2668V24.8874C6 25.4397 5.55228 25.8874 5 25.8874C4.44772 25.8874 4 25.4397 4 24.8874V14.2668C4 12.4027 4.7155 10.6084 5.99931 9.28033C6.97791 8.26799 8.22632 7.58971 9.57536 7.32384L8.78679 6.71201C8.35044 6.37346 8.27115 5.74527 8.6097 5.30892ZM17.1997 22.3702V16.784H14.8001V22.3702H17.1997ZM17.1997 14.784H13.8001C13.2478 14.784 12.8001 15.2317 12.8001 15.784V23.3702C12.8001 23.9225 13.2478 24.3702 13.8001 24.3702H17.1997V26.4047C17.1997 26.5526 17.1426 26.6879 17.0511 26.7825C16.9608 26.876 16.8457 26.9219 16.733 26.9219H10.8664C10.7538 26.9219 10.6386 26.876 10.5483 26.7825C10.4569 26.6879 10.3997 26.5526 10.3997 26.4047V14.268C10.4014 13.642 10.5624 13.0292 10.8642 12.4916C11.166 11.9538 11.5969 11.5119 12.1104 11.207C12.4138 11.0268 12.5997 10.7001 12.5997 10.3472V9.19779H14.9997V10.3472C14.9997 10.7001 15.1857 11.0268 15.4891 11.207C16.0025 11.5119 16.4334 11.9538 16.7353 12.4916C17.037 13.0291 17.198 13.6419 17.1997 14.2679V14.784ZM20.6667 7.58243V8.81314L26 9.36486V7.03071L20.6667 7.58243Z" fill="#2D373D"/>
</svg>
