<svg width="64" height="65" viewBox="0 0 64 65" fill="none" xmlns="http://www.w3.org/2000/svg">
<path d="M50.5998 36.2621C53.9998 31.6621 55.7998 26.4621 56.1998 20.8621C56.1998 14.6621 52.5998 9.06209 46.7998 6.66209C41.5998 4.66209 35.9998 5.66209 31.9998 9.06209C27.9998 5.66209 22.1998 4.66209 17.1998 6.66209C11.3998 9.06209 7.7998 14.6621 7.7998 21.0621C8.1998 26.4621 9.9998 31.8621 13.3998 36.2621C13.7998 36.4621 13.7998 37.0621 13.5998 37.4621C12.7998 39.2621 9.7998 51.6621 12.7998 57.0621C13.9998 58.6621 15.3998 59.4621 17.1998 59.4621C21.1998 59.4621 22.1998 55.6621 22.7998 53.0621C23.7998 49.2621 24.5998 46.0621 30.7998 46.0621H32.5998C38.7998 46.0621 39.5998 49.0621 40.5998 52.8621C41.3998 55.6621 42.1998 59.2621 46.3998 59.2621C48.1998 59.2621 49.5998 58.4621 50.7998 56.8621C54.1998 51.6621 51.1998 39.2621 50.3998 37.4621C50.1998 37.0621 50.3998 36.6621 50.5998 36.2621ZM46.7998 39.2621C47.5998 41.2621 49.3998 51.8621 47.3998 54.8621C46.9998 55.4621 46.7998 55.4621 46.3998 55.4621C45.5998 55.4621 45.3998 55.0621 44.5998 52.0621C43.5998 48.2621 42.1998 42.0621 32.7998 42.0621H30.9998C21.7998 42.0621 20.1998 48.2621 19.3998 51.8621C18.5998 55.0621 18.3998 55.2621 17.5998 55.2621C17.1998 55.2621 16.9998 55.0621 16.5998 54.6621C14.3998 51.6621 16.3998 41.0621 17.1998 39.0621C17.9998 37.4621 17.7998 35.2621 16.5998 33.8621C13.7998 30.0621 12.1998 25.4621 11.7998 20.8621C11.7998 16.2621 14.5998 12.2621 18.7998 10.4621C22.7998 8.86209 27.5998 9.86209 30.5998 13.4621C31.3998 14.2621 32.7998 14.2621 33.5998 13.4621C36.3998 10.2621 41.1998 9.06209 45.1998 10.6621C49.3998 12.4621 52.1998 16.6621 52.1998 21.0621C51.7998 25.6621 50.1998 30.2621 47.3998 34.0621C46.3998 35.4621 45.9998 37.4621 46.7998 39.2621Z" fill="#2D373D"/>
</svg>
