<svg width="32" height="33" viewBox="0 0 32 33" fill="none" xmlns="http://www.w3.org/2000/svg">
<path d="M23.9995 19.2539H20.2795C19.6465 19.2539 19.0395 19.5054 18.5919 19.9529C18.1443 20.4005 17.8928 21.0076 17.8928 21.6406V24.4672C17.8968 24.519 17.8896 24.5711 17.8716 24.6198C17.8536 24.6685 17.8252 24.7128 17.7885 24.7495C17.7517 24.7863 17.7075 24.8146 17.6588 24.8326C17.61 24.8507 17.558 24.8579 17.5062 24.8539H10.4795L10.6662 24.7339C10.7605 24.642 10.8355 24.5321 10.8867 24.4107C10.9379 24.2894 10.9643 24.159 10.9643 24.0272C10.9643 23.8955 10.9379 23.7651 10.8867 23.6438C10.8355 23.5224 10.7605 23.4125 10.6662 23.3206C10.4787 23.1333 10.2245 23.0281 9.95951 23.0281C9.69451 23.0281 9.44035 23.1333 9.25284 23.3206L7.29284 25.2139C7.19435 25.3131 7.11835 25.4323 7.07004 25.5634C7.02172 25.6945 7.00222 25.8345 7.01285 25.9739C7.00309 26.1132 7.023 26.2529 7.07127 26.384C7.11953 26.515 7.19506 26.6342 7.29284 26.7339L9.18618 28.6272C9.2785 28.7207 9.38857 28.7948 9.50992 28.8452C9.63127 28.8956 9.76146 28.9212 9.89285 28.9206C10.0354 28.9315 10.1786 28.9108 10.3122 28.8601C10.4459 28.8094 10.5667 28.7299 10.6662 28.6272C10.7605 28.5353 10.8355 28.4254 10.8867 28.3041C10.9379 28.1827 10.9643 28.0523 10.9643 27.9206C10.9643 27.7888 10.9379 27.6585 10.8867 27.5371C10.8355 27.4157 10.7605 27.3058 10.6662 27.2139L10.3062 26.8539H17.5728C18.2056 26.8498 18.8123 26.6014 19.2662 26.1606C19.488 25.9382 19.6636 25.6741 19.7826 25.3834C19.9016 25.0927 19.9617 24.7813 19.9595 24.4672V21.6406C19.9579 21.5899 19.9679 21.5396 19.9887 21.4934C20.0095 21.4472 20.0406 21.4063 20.0795 21.3739C20.1131 21.3364 20.1542 21.3063 20.2001 21.2856C20.246 21.2649 20.2958 21.2541 20.3462 21.2539H23.9995C24.2647 21.2539 24.5191 21.1485 24.7066 20.961C24.8942 20.7735 24.9995 20.5191 24.9995 20.2539C24.9995 19.9887 24.8942 19.7343 24.7066 19.5468C24.5191 19.3593 24.2647 19.2539 23.9995 19.2539Z" fill="#2D373D"/>
<path d="M8.45285 20.708C8.67945 20.8248 8.93124 20.8844 9.18618 20.8813C9.44521 20.8829 9.70097 20.8235 9.93284 20.708C10.1617 20.5936 10.3621 20.4296 10.5195 20.228C12.2662 18.0013 14.3462 14.8947 14.3462 13.0147C14.3443 11.6461 13.8029 10.3334 12.8395 9.36134C11.8504 8.43134 10.5438 7.91357 9.18618 7.91357C7.82852 7.91357 6.52196 8.43134 5.53285 9.36134C5.04857 9.83879 4.66372 10.4075 4.40054 11.0345C4.13735 11.6616 4.00105 12.3346 3.99951 13.0147C3.99951 14.9347 6.07951 18.0013 7.82618 20.228C7.99325 20.4363 8.20826 20.601 8.45285 20.708ZM6.94618 10.7747C7.38815 10.3305 7.9522 10.0277 8.56665 9.90488C9.18109 9.78203 9.81819 9.84463 10.397 10.0847C10.9758 10.3248 11.4701 10.7315 11.8172 11.2533C12.1642 11.775 12.3484 12.3881 12.3462 13.0147C12.3462 13.9613 11.1195 16.1747 9.18618 18.6813C7.25284 16.1747 6.02618 13.9747 6.02618 13.0147C6.02758 12.1763 6.35793 11.372 6.94618 10.7747Z" fill="#2D373D"/>
<path d="M9.19951 13.7347C9.7518 13.7347 10.1995 13.287 10.1995 12.7347C10.1995 12.1824 9.7518 11.7347 9.19951 11.7347C8.64723 11.7347 8.19951 12.1824 8.19951 12.7347C8.19951 13.287 8.64723 13.7347 9.19951 13.7347Z" fill="#2D373D"/>
<path d="M22.9062 16.8547C23.1089 16.9717 23.3388 17.0333 23.5728 17.0333C23.8069 17.0333 24.0368 16.9717 24.2395 16.8547C24.4331 16.7436 24.5975 16.5882 24.7195 16.4013C26.1995 14.108 27.9995 11.0147 27.9995 9.34801C27.9972 8.7593 27.8781 8.1769 27.6493 7.6345C27.4204 7.0921 27.0863 6.60045 26.6662 6.18801C25.8137 5.37765 24.6824 4.92578 23.5062 4.92578C22.33 4.92578 21.1987 5.37765 20.3462 6.18801C19.9261 6.60045 19.592 7.0921 19.3631 7.6345C19.1342 8.1769 19.0152 8.7593 19.0128 9.34801C19.0128 11.0147 20.8262 14.108 22.3595 16.4013C22.5002 16.5965 22.6883 16.7526 22.9062 16.8547ZM21.7995 7.60134C22.1445 7.25537 22.5845 7.01965 23.0636 6.92406C23.5427 6.82847 24.0395 6.87733 24.4908 7.06443C24.9421 7.25154 25.3277 7.56846 25.5987 7.97501C25.8697 8.38156 26.0138 8.85943 26.0128 9.34801C25.5148 11.1927 24.6784 12.9288 23.5462 14.468C22.414 12.9288 21.5776 11.1927 21.0795 9.34801C21.0789 9.02384 21.1421 8.70272 21.2657 8.40301C21.3892 8.1033 21.5706 7.83089 21.7995 7.60134Z" fill="#2D373D"/>
<path d="M23.5862 10.4547C24.1385 10.4547 24.5862 10.007 24.5862 9.45467C24.5862 8.90239 24.1385 8.45467 23.5862 8.45467C23.0339 8.45467 22.5862 8.90239 22.5862 9.45467C22.5862 10.007 23.0339 10.4547 23.5862 10.4547Z" fill="#2D373D"/>
</svg>
