<svg width="24" height="25" viewBox="0 0 24 25" fill="none" xmlns="http://www.w3.org/2000/svg">
<path d="M10.1509 5.38751C9.73458 5.38751 9.39712 5.72498 9.39712 6.14128C9.39712 6.55757 9.73458 6.89505 10.1509 6.89505H13.8492C14.2655 6.89505 14.603 6.55757 14.603 6.14128C14.603 5.72498 14.2655 5.38751 13.8492 5.38751H10.1509Z" fill="#2D373D"/>
<path d="M13.848 16.483C13.4317 16.483 13.0942 16.8205 13.0942 17.2368C13.0942 17.6531 13.4317 17.9906 13.848 17.9906H16.3135C16.7298 17.9906 17.0673 17.6531 17.0673 17.2368C17.0673 16.8205 16.7298 16.483 16.3135 16.483H13.848Z" fill="#2D373D"/>
<path d="M6.93076 17.2368C6.93076 16.8205 7.26822 16.483 7.68451 16.483H10.1501C10.5664 16.483 10.9038 16.8205 10.9038 17.2368C10.9038 17.6531 10.5664 17.9906 10.1501 17.9906H7.68451C7.26822 17.9906 6.93076 17.6531 6.93076 17.2368Z" fill="#2D373D"/>
<path fill-rule="evenodd" clip-rule="evenodd" d="M4.46636 8.12789V18.0587C4.46636 18.9592 4.96288 19.7438 5.69709 20.1536V20.9353C5.69709 21.4622 5.90638 21.9675 6.27893 22.34C6.65148 22.7126 7.15676 22.9219 7.68362 22.9219C8.21048 22.9219 8.71577 22.7126 9.08832 22.34C9.46086 21.9675 9.67016 21.4622 9.67016 20.9353V20.4562H14.3269V20.9353C14.3269 21.4622 14.5362 21.9675 14.9087 22.34C15.2813 22.7126 15.7866 22.9219 16.3134 22.9219C16.8403 22.9219 17.3456 22.7126 17.7181 22.34C18.0907 21.9675 18.3 21.4622 18.3 20.9353V20.1558C19.0363 19.7466 19.5345 18.9608 19.5345 18.0587V8.12789H20.0135C20.1405 8.12789 20.2624 8.17836 20.3522 8.26821C20.442 8.35805 20.4925 8.4799 20.4925 8.60695V11.0726C20.4925 11.4889 20.83 11.8264 21.2463 11.8264C21.6625 11.8264 22 11.4889 22 11.0726V8.60695C22 8.08008 21.7907 7.57478 21.4182 7.20222C21.0456 6.82966 20.5403 6.62036 20.0135 6.62036H19.5345V5.31942C19.5345 3.99529 18.4612 2.92188 17.1371 2.92188H6.86383C5.53974 2.92188 4.46636 3.99529 4.46636 5.31942V6.62036H3.98654C3.45967 6.62036 2.95439 6.82966 2.58184 7.20222C2.20929 7.57478 2 8.08008 2 8.60695V11.0726C2 11.4889 2.33746 11.8264 2.75375 11.8264C3.17003 11.8264 3.50749 11.4889 3.50749 11.0726V8.60695C3.50749 8.4799 3.55796 8.35805 3.6478 8.26821C3.73764 8.17837 3.85949 8.12789 3.98654 8.12789H4.46636ZM5.97385 5.31942C5.97385 4.82788 6.37231 4.42941 6.86383 4.42941H17.1371C17.6286 4.42941 18.027 4.82788 18.027 5.31942V7.36139L18.0269 7.37413L18.027 7.38686V14.0173H5.97385V5.31942ZM5.97385 15.5249H18.027V18.0587C18.027 18.4627 17.7578 18.8039 17.3889 18.9125C17.3684 18.9169 17.3482 18.9221 17.3283 18.9281C17.2667 18.9415 17.2027 18.9487 17.1371 18.9487H6.86383C6.79155 18.9487 6.72128 18.94 6.65399 18.9238C6.64488 18.9212 6.63569 18.9189 6.62643 18.9166C6.25016 18.8128 5.97385 18.468 5.97385 18.0587V15.5249ZM8.16267 20.4562H7.20458V20.9353C7.20458 21.0623 7.25505 21.1842 7.34489 21.274C7.43473 21.3639 7.55657 21.4143 7.68362 21.4143C7.81067 21.4143 7.93252 21.3639 8.02236 21.274C8.11219 21.1842 8.16267 21.0623 8.16267 20.9353V20.4562ZM15.8344 20.4562V20.9353C15.8344 21.0623 15.8849 21.1842 15.9747 21.274C16.0645 21.3639 16.1864 21.4143 16.3134 21.4143C16.4405 21.4143 16.5623 21.3639 16.6522 21.274C16.742 21.1842 16.7925 21.0623 16.7925 20.9353V20.4562H15.8344Z" fill="#2D373D"/>
</svg>
