<svg width="64" height="65" viewBox="0 0 64 65" fill="none" xmlns="http://www.w3.org/2000/svg">
<path d="M44.28 14.8048C44.5604 14.9407 44.8686 15.0092 45.18 15.0048C45.5528 15.0074 45.9188 14.9058 46.2369 14.7115C46.5549 14.5171 46.8123 14.2377 46.98 13.9048L48.6 10.6248C48.8373 10.1525 48.8779 9.60547 48.713 9.10329C48.5481 8.6011 48.1911 8.18461 47.72 7.94484C47.4791 7.82762 47.2171 7.75999 46.9496 7.74597C46.682 7.73195 46.4144 7.77183 46.1626 7.86324C45.9107 7.95464 45.6798 8.09572 45.4836 8.27808C45.2873 8.46045 45.1297 8.68039 45.02 8.92484L43.4 12.1248C43.1628 12.5972 43.1222 13.1442 43.2871 13.6464C43.452 14.1486 43.809 14.5651 44.28 14.8048Z" fill="#2D373D"/>
<path d="M37 11.7448C37.5305 11.7448 38.0392 11.5341 38.4143 11.1591C38.7893 10.784 39 10.2753 39 9.74484V6.46484C39 5.93441 38.7893 5.4257 38.4143 5.05063C38.0392 4.67556 37.5305 4.46484 37 4.46484C36.4696 4.46484 35.9609 4.67556 35.5858 5.05063C35.2108 5.4257 35 5.93441 35 6.46484V9.74484C35 10.2753 35.2108 10.784 35.5858 11.1591C35.9609 11.5341 36.4696 11.7448 37 11.7448Z" fill="#2D373D"/>
<path d="M45.18 33.9248H42.28V30.9248C42.28 30.3944 42.0693 29.8857 41.6943 29.5106C41.3192 29.1356 40.8105 28.9248 40.28 28.9248C39.7496 28.9248 39.2409 29.1356 38.8658 29.5106C38.4908 29.8857 38.28 30.3944 38.28 30.9248V33.9248H35.36C34.8296 33.9248 34.3209 34.1356 33.9458 34.5106C33.5708 34.8857 33.36 35.3944 33.36 35.9248C33.36 36.4553 33.5708 36.964 33.9458 37.3391C34.3209 37.7141 34.8296 37.9248 35.36 37.9248H38.28V40.9248C38.28 41.4553 38.4908 41.964 38.8658 42.3391C39.2409 42.7141 39.7496 42.9248 40.28 42.9248C40.8105 42.9248 41.3192 42.7141 41.6943 42.3391C42.0693 41.964 42.28 41.4553 42.28 40.9248V37.9248H45.18C45.7105 37.9248 46.2192 37.7141 46.5943 37.3391C46.9693 36.964 47.18 36.4553 47.18 35.9248C47.18 35.3944 46.9693 34.8857 46.5943 34.5106C46.2192 34.1356 45.7105 33.9248 45.18 33.9248Z" fill="#2D373D"/>
<path d="M27.02 13.9048C27.1878 14.2377 27.4452 14.5171 27.7632 14.7115C28.0813 14.9058 28.4473 15.0074 28.82 15.0048C29.1248 15.0061 29.4258 14.9377 29.7 14.8048C30.1746 14.5686 30.536 14.1536 30.7047 13.6511C30.8735 13.1486 30.8358 12.5996 30.6 12.1248L28.96 8.92484C28.8605 8.66376 28.7074 8.42641 28.5106 8.22812C28.3138 8.02982 28.0776 7.87496 27.8172 7.77353C27.5569 7.67209 27.2782 7.62634 26.9991 7.6392C26.72 7.65207 26.4466 7.72327 26.1967 7.84823C25.9468 7.97318 25.7259 8.14911 25.5481 8.36468C25.3704 8.58024 25.2397 8.83066 25.1647 9.0998C25.0896 9.36893 25.0718 9.65081 25.1123 9.92726C25.1529 10.2037 25.2509 10.4686 25.4 10.7048L27.02 13.9048Z" fill="#2D373D"/>
<path d="M57.1 22.3848C56.0954 21.4228 54.7507 20.8979 53.36 20.9248H43.9C43.803 19.1596 43.034 17.4985 41.7509 16.2824C40.4678 15.0662 38.7679 14.3873 37 14.3848C35.174 14.3855 33.4214 15.1038 32.12 16.3848C30.8867 17.5851 30.1511 19.2062 30.06 20.9248H27.18C26.4877 20.9262 25.8024 21.0648 25.1639 21.3325C24.5254 21.6003 23.9463 21.9919 23.46 22.4848C22.956 22.9696 22.5606 23.5559 22.3 24.2048H16.64C15.4404 24.2084 14.2777 24.6203 13.3435 25.3728C12.4092 26.1253 11.759 27.1735 11.5 28.3448L10.64 33.1848L7.90004 34.9248C7.17546 35.4079 6.58107 36.0621 6.16945 36.8295C5.75783 37.597 5.54165 38.454 5.54004 39.3248V49.0448C5.54407 50.4391 6.09737 51.7757 7.08004 52.7648C7.57031 53.2565 8.15342 53.6459 8.79546 53.9102C9.43751 54.1746 10.1257 54.3087 10.82 54.3048H16.4C17.0183 55.3056 17.8822 56.1316 18.9096 56.7045C19.9369 57.2774 21.0937 57.5781 22.27 57.5781C23.4464 57.5781 24.6031 57.2774 25.6305 56.7045C26.6579 56.1316 27.5218 55.3056 28.14 54.3048H40.94C41.5609 55.3054 42.4267 56.1309 43.4556 56.7034C44.4846 57.2758 45.6426 57.5763 46.82 57.5763C47.9975 57.5763 49.1555 57.2758 50.1844 56.7034C51.2134 56.1309 52.0792 55.3054 52.7 54.3048H53.36C54.0525 54.3075 54.7386 54.1734 55.3791 53.9102C56.0196 53.647 56.6018 53.26 57.0924 52.7713C57.5829 52.2826 57.9722 51.7019 58.2377 51.0624C58.5033 50.4229 58.64 49.7373 58.64 49.0448V26.1048C58.6446 25.4134 58.5107 24.728 58.2462 24.0891C57.9818 23.4502 57.592 22.8707 57.1 22.3848ZM34.94 19.1448C35.4946 18.6143 36.2325 18.3182 37 18.3182C37.7675 18.3182 38.5054 18.6143 39.06 19.1448C39.5151 19.5963 39.8041 20.1884 39.88 20.8248H34.06C34.1522 20.1806 34.4629 19.5875 34.94 19.1448ZM15.36 50.2848H10.82C10.6537 50.2872 10.4885 50.2566 10.334 50.1949C10.1796 50.1331 10.0389 50.0413 9.92004 49.9248C9.68118 49.6857 9.54488 49.3628 9.54004 49.0248V39.3048C9.54332 39.0947 9.59827 38.8887 9.70004 38.7048C9.80001 38.5254 9.93623 38.3688 10.1 38.2448L13.56 35.9448C13.7831 35.7968 13.9742 35.6054 14.1219 35.3821C14.2696 35.1588 14.371 34.9081 14.42 34.6448L15.42 29.0648C15.4823 28.788 15.6376 28.541 15.86 28.3648C16.087 28.1998 16.3594 28.109 16.64 28.1048H21.9V43.7648C20.1984 43.8557 18.5901 44.5712 17.3834 45.7743C16.1766 46.9774 15.4561 48.5835 15.36 50.2848ZM25.04 51.5248V51.7248C24.8229 52.266 24.4488 52.7297 23.9658 53.0563C23.4828 53.383 22.9131 53.5575 22.33 53.5575C21.747 53.5575 21.1773 53.383 20.6943 53.0563C20.2113 52.7297 19.8372 52.266 19.62 51.7248V51.5248C19.5217 51.249 19.4743 50.9576 19.48 50.6648C19.4466 50.2624 19.4971 49.8574 19.6282 49.4755C19.7593 49.0936 19.9681 48.743 20.2416 48.4459C20.5151 48.1487 20.8472 47.9116 21.217 47.7494C21.5868 47.5871 21.9862 47.5034 22.39 47.5034C22.7938 47.5034 23.1933 47.5871 23.5631 47.7494C23.9329 47.9116 24.265 48.1487 24.5385 48.4459C24.8119 48.743 25.0208 49.0936 25.1519 49.4755C25.283 49.8574 25.3334 50.2624 25.3 50.6648C25.2678 50.9652 25.1796 51.2569 25.04 51.5248ZM49.6 51.5248C49.5918 51.5779 49.5918 51.6318 49.6 51.6848C49.3863 52.2323 49.0123 52.7025 48.527 53.034C48.0417 53.3654 47.4677 53.5428 46.88 53.5428C46.2923 53.5428 45.7183 53.3654 45.2331 53.034C44.7478 52.7025 44.3738 52.2323 44.16 51.6848V51.5248C44.0731 51.2394 44.026 50.9432 44.02 50.6448C43.9866 50.2424 44.0371 49.8374 44.1682 49.4555C44.2993 49.0736 44.5081 48.723 44.7816 48.4258C45.0551 48.1287 45.3872 47.8916 45.757 47.7294C46.1268 47.5671 46.5262 47.4834 46.93 47.4834C47.3338 47.4834 47.7333 47.5671 48.1031 47.7294C48.4729 47.8916 48.805 48.1287 49.0785 48.4258C49.3519 48.723 49.5608 49.0736 49.6919 49.4555C49.823 49.8374 49.8734 50.2424 49.84 50.6448C49.8041 50.9549 49.7232 51.2581 49.6 51.5448V51.5248ZM54.64 49.0048C54.6352 49.3428 54.4989 49.6657 54.26 49.9048C54.1079 50.0528 53.9228 50.1624 53.72 50.2248C53.5875 48.4856 52.8031 46.8606 51.5237 45.6749C50.2443 44.4893 48.5643 43.8306 46.82 43.8306C45.0757 43.8306 43.3958 44.4893 42.1164 45.6749C40.837 46.8606 40.0526 48.4856 39.92 50.2248H29.18C29.1152 49.1121 28.7833 48.0313 28.2123 47.0739C27.6414 46.1166 26.8483 45.3108 25.9 44.7248V26.1048C25.9052 25.767 26.0417 25.4444 26.2806 25.2055C26.5196 24.9665 26.8422 24.83 27.18 24.8248H53.36C53.528 24.8239 53.6943 24.8572 53.849 24.9225C54.0037 24.9878 54.1436 25.0839 54.26 25.2048C54.5007 25.4428 54.6373 25.7664 54.64 26.1048V49.0048Z" fill="#2D373D"/>
</svg>
