<svg width="64" height="65" viewBox="0 0 64 65" fill="none" xmlns="http://www.w3.org/2000/svg">
<path fill-rule="evenodd" clip-rule="evenodd" d="M35.0903 56.922C36.1978 56.922 37.0956 56.0265 37.0956 54.922V54.4265H37.4532L37.461 54.4265C41.3135 54.4116 45.0206 52.9643 47.9352 50.3659C50.4262 48.1451 52.2021 45.2065 53.0675 41.9495H53.9942C55.1017 41.9495 55.9995 41.054 55.9995 39.9495L55.9995 33.2828C55.9995 32.1782 55.1017 31.2828 53.9942 31.2828H42.1793C41.0718 31.2828 40.174 32.1782 40.174 33.2828L40.174 39.9495C40.174 40.5694 40.4568 41.1235 40.9008 41.4903C40.7271 41.6632 40.5422 41.823 40.3474 41.9684C39.4899 42.6085 38.4797 42.9419 37.4565 42.9403H37.0956V42.4449C37.0956 41.3403 36.1978 40.4449 35.0903 40.4449H28.4061C27.2986 40.4449 26.4008 41.3403 26.4008 42.4449L26.4008 54.922C26.4008 56.0265 27.2986 56.922 28.4061 56.922H35.0903ZM33.0849 44.9403L33.085 44.9199V44.4449H30.4113L30.4113 52.922H33.085V52.4469L33.0849 52.4265L33.0849 44.9403ZM37.4492 50.4265H37.0956V46.9403H37.4515C39.3613 46.943 41.213 46.3186 42.7505 45.1708C43.891 44.3194 44.8149 43.2136 45.4655 41.9495H48.8752C48.1338 44.0577 46.8906 45.9321 45.2624 47.3837C43.06 49.3472 40.2931 50.4146 37.4492 50.4265ZM51.989 37.9495H51.4593L51.4485 37.9494H44.1845L44.1845 35.2828H51.989L51.989 37.9495Z" fill="#2D373D"/>
<path fill-rule="evenodd" clip-rule="evenodd" d="M23.2835 8.92188C20.6066 8.92187 18.0393 9.98247 16.1465 11.8703C14.8996 13.1139 14.0127 14.6494 13.5525 16.3157H12.9722C11.8647 16.3157 10.967 17.2111 10.967 18.3157C10.967 19.4202 11.8647 20.3157 12.9722 20.3157H13.2783C13.569 22.4957 14.5701 24.5345 16.1465 26.1068C17.244 27.2014 18.5683 28.0179 20.0092 28.5108C19.115 28.7089 18.2363 28.9875 17.3842 29.3453C14.6004 30.5142 12.2248 32.4771 10.5552 34.9875C8.88569 37.4979 7.99661 40.4442 7.99952 43.4566C8.00058 44.5612 8.89925 45.4558 10.0067 45.4547C11.1142 45.4536 12.0111 44.5573 12.0101 43.4528C12.0079 41.2281 12.6645 39.0524 13.8974 37.1985C15.1303 35.3446 16.8847 33.8951 18.9404 33.0319C20.9962 32.1686 23.2617 31.9301 25.4529 32.3461C27.644 32.7621 29.6632 33.8143 31.2571 35.3705C32.0485 36.1432 33.3181 36.1297 34.0929 35.3404C34.8676 34.5511 34.8541 33.2848 34.0627 32.5121C32.0004 30.4986 29.4123 29.1083 26.5978 28.497C28.0232 28.0028 29.3331 27.1913 30.4205 26.1067C31.9969 24.5345 32.998 22.4957 33.2886 20.3157H33.7295C34.837 20.3157 35.7348 19.4202 35.7348 18.3157C35.7348 17.2111 34.837 16.3157 33.7295 16.3157H33.0144C32.5543 14.6494 31.6673 13.1139 30.4205 11.8703C28.5276 9.98247 25.9604 8.92188 23.2835 8.92188ZM28.744 16.3157C28.452 15.7223 28.0621 15.175 27.5846 14.6988C27.3808 14.4955 27.164 14.3081 26.9361 14.1375L26.9677 16.3157H28.744ZM24.2937 16.3157L24.2457 12.9982C23.9294 12.9477 23.6078 12.9219 23.2835 12.9219C23.0072 12.9219 22.7328 12.9406 22.462 12.9774L22.462 16.3157L24.2937 16.3157ZM19.7883 16.3157L17.823 16.3157C18.115 15.7223 18.5049 15.175 18.9824 14.6988C19.2327 14.4491 19.5025 14.2235 19.7883 14.0234L19.7883 16.3157ZM17.3481 20.3157L29.2188 20.3157C28.9686 21.429 28.4063 22.4588 27.5846 23.2783C26.4439 24.416 24.8967 25.0552 23.2835 25.0552C21.6703 25.0552 20.1231 24.416 18.9824 23.2783C18.1607 22.4588 17.5984 21.429 17.3481 20.3157Z" fill="#2D373D"/>
</svg>
