<svg width="32" height="33" viewBox="0 0 32 33" fill="none" xmlns="http://www.w3.org/2000/svg">
<path d="M16.767 16.4623L21.367 11.8623C21.767 11.4623 21.767 10.8623 21.367 10.4623C20.967 10.0623 20.367 10.0623 19.967 10.4623L14.667 15.7623C14.267 16.1623 14.267 16.7623 14.667 17.1623L19.967 22.5623C20.167 22.7623 20.367 22.8623 20.667 22.8623C20.967 22.8623 21.167 22.7623 21.367 22.5623C21.767 22.1623 21.767 21.5623 21.367 21.1623L16.767 16.4623Z" fill="#2D373D"/>
<path fill-rule="evenodd" clip-rule="evenodd" d="M10.6665 10.1289C11.2188 10.1289 11.6665 10.5766 11.6665 11.1289V21.7956C11.6665 22.3479 11.2188 22.7956 10.6665 22.7956C10.1142 22.7956 9.6665 22.3479 9.6665 21.7956V11.1289C9.6665 10.5766 10.1142 10.1289 10.6665 10.1289Z" fill="#2D373D"/>
</svg>
