<svg width="64" height="65" viewBox="0 0 64 65" fill="none" xmlns="http://www.w3.org/2000/svg">
<path fill-rule="evenodd" clip-rule="evenodd" d="M23.332 48.2539C26.6457 48.2539 29.332 45.5676 29.332 42.2539C29.332 38.9402 26.6457 36.2539 23.332 36.2539C20.0183 36.2539 17.332 38.9402 17.332 42.2539C17.332 45.5676 20.0183 48.2539 23.332 48.2539ZM23.332 44.2539C24.4366 44.2539 25.332 43.3585 25.332 42.2539C25.332 41.1493 24.4366 40.2539 23.332 40.2539C22.2275 40.2539 21.332 41.1493 21.332 42.2539C21.332 43.3585 22.2275 44.2539 23.332 44.2539Z" fill="#2D373D"/>
<path fill-rule="evenodd" clip-rule="evenodd" d="M40.6654 48.2539C43.9791 48.2539 46.6654 45.5676 46.6654 42.2539C46.6654 38.9402 43.9791 36.2539 40.6654 36.2539C37.3517 36.2539 34.6654 38.9402 34.6654 42.2539C34.6654 45.5676 37.3517 48.2539 40.6654 48.2539ZM40.6654 44.2539C41.7699 44.2539 42.6654 43.3585 42.6654 42.2539C42.6654 41.1493 41.7699 40.2539 40.6654 40.2539C39.5608 40.2539 38.6654 41.1493 38.6654 42.2539C38.6654 43.3585 39.5608 44.2539 40.6654 44.2539Z" fill="#2D373D"/>
<path fill-rule="evenodd" clip-rule="evenodd" d="M33.9987 22.0019C37.4492 21.1138 39.9987 17.9816 39.9987 14.2539C39.9987 9.83563 36.417 6.25391 31.9987 6.25391C27.5804 6.25391 23.9987 9.83563 23.9987 14.2539C23.9987 17.9816 26.5482 21.1138 29.9987 22.0019V24.9206H15.9987C13.0532 24.9206 10.6654 27.3084 10.6654 30.2539L10.6654 54.2436C10.6654 57.1885 13.0523 59.5761 15.9972 59.5769L47.9972 59.5858C50.9433 59.5866 53.332 57.1985 53.332 54.2524V30.2539C53.332 27.3084 50.9442 24.9206 47.9987 24.9206H33.9987V22.0019ZM35.9987 14.2539C35.9987 16.463 34.2078 18.2539 31.9987 18.2539C29.7896 18.2539 27.9987 16.463 27.9987 14.2539C27.9987 12.0448 29.7896 10.2539 31.9987 10.2539C34.2078 10.2539 35.9987 12.0448 35.9987 14.2539ZM49.332 54.2524V30.2539C49.332 29.5175 48.7351 28.9206 47.9987 28.9206L15.9987 28.9206C15.2623 28.9206 14.6654 29.5175 14.6654 30.2539L14.6654 54.2436C14.6654 54.9798 15.2621 55.5767 15.9983 55.5769L47.9983 55.5858C48.7348 55.586 49.332 54.989 49.332 54.2524Z" fill="#2D373D"/>
<path d="M9.33203 37.5872C9.33203 36.4827 8.4366 35.5872 7.33203 35.5872C6.22746 35.5872 5.33203 36.4827 5.33203 37.5872V48.2539C5.33203 49.3585 6.22746 50.2539 7.33203 50.2539C8.4366 50.2539 9.33203 49.3585 9.33203 48.2539L9.33203 37.5872Z" fill="#2D373D"/>
<path d="M56.6654 35.5872C57.7699 35.5872 58.6654 36.4827 58.6654 37.5872V48.2539C58.6654 49.3585 57.7699 50.2539 56.6654 50.2539C55.5608 50.2539 54.6654 49.3585 54.6654 48.2539V37.5872C54.6654 36.4827 55.5608 35.5872 56.6654 35.5872Z" fill="#2D373D"/>
</svg>
