<svg width="64" height="65" viewBox="0 0 64 65" fill="none" xmlns="http://www.w3.org/2000/svg">
<path d="M31.8002 55.0611C27.0002 55.0611 22.6002 53.6611 18.8002 50.8611L20.4002 42.6611H22.0002C23.2002 42.6611 24.0002 41.8611 24.0002 40.6611C24.0002 39.4611 23.2002 38.6611 22.0002 38.6611H18.8002C17.8002 38.6611 17.0002 39.2611 16.8002 40.2611L15.2002 47.8611C15.0002 47.6611 14.8002 47.4611 14.6002 47.2611C14.4002 47.0611 14.2002 46.8611 14.0002 46.6611C13.8002 46.2611 13.4002 45.8611 13.2002 45.4611C13.0002 45.2611 12.8002 44.8611 12.6002 44.6611C12.4002 44.2611 12.2002 43.8611 11.8002 43.4611C12.0002 43.0611 11.8002 42.8611 11.6002 42.4611C11.4002 42.0611 11.2002 41.6611 11.0002 41.4611C10.8002 40.8611 10.6002 40.4611 10.4002 39.8611C10.4002 39.6611 10.2002 39.4611 10.2002 39.2611C9.2002 36.2611 9.0002 33.0611 9.4002 29.6611V29.4611H19.6002C20.2002 29.4611 20.6002 29.8611 20.8002 30.4611L21.8002 34.4611C22.0002 35.6611 23.2002 36.2611 24.2002 36.0611C25.2002 35.6611 26.0002 34.6611 25.8002 33.6611L24.8002 29.6611C24.2002 27.2611 22.0002 25.6611 19.6002 25.6611H10.2002C13.0002 16.4611 21.8002 9.66113 32.2002 9.66113C37.8002 9.66113 43.2002 11.8611 47.6002 15.6611H42.8002C40.4002 15.6611 38.2002 17.2611 37.6002 19.6611L37.2002 22.0611C36.8002 23.0611 37.6002 24.2611 38.6002 24.4611C38.6002 24.4611 38.8002 24.4611 39.0002 24.4611C40.0002 24.4611 40.8002 23.8611 41.0002 23.0611L41.6002 20.6611C41.6002 20.0611 42.2002 19.6611 42.8002 19.6611H51.0002C53.4002 23.4611 54.8002 27.8611 54.8002 32.4611H58.8002C58.8002 25.2611 56.0002 18.4611 51.0002 13.4611C45.8002 8.46113 39.2002 5.66113 32.0002 5.66113C17.2002 5.66113 5.2002 17.6611 5.2002 32.4611C5.2002 39.6611 8.0002 46.2611 13.0002 51.4611C18.2002 56.4611 24.8002 59.2611 32.0002 59.2611C33.0002 59.2611 34.0002 58.2611 33.8002 57.0611C33.8002 55.8611 33.0002 55.0611 31.8002 55.0611Z" fill="#2D373D"/>
<path d="M51.1999 48.861C52.7999 46.661 53.7999 43.861 53.7999 40.661C53.7999 33.061 47.5999 27.061 40.1999 27.061C32.7999 27.061 26.7999 33.061 26.5999 40.461V40.661C26.5999 48.261 32.7999 54.261 40.1999 54.261C43.1999 54.261 45.9999 53.261 48.3999 51.661L55.3999 58.661C55.7999 59.061 56.1999 59.261 56.7999 59.261C57.1999 59.261 57.7999 59.061 58.1999 58.661C58.9999 57.861 58.9999 56.661 58.1999 55.861L51.1999 48.861ZM30.7999 40.861C30.7999 35.461 34.9999 31.061 40.3999 31.061C45.7999 31.061 49.9999 35.461 49.9999 40.661C49.9999 43.261 48.9999 45.461 47.3999 47.261C47.1999 47.261 47.1999 47.461 46.9999 47.461C46.9999 47.461 46.7999 47.661 46.7999 47.861C44.9998 49.461 42.7999 50.261 40.3999 50.261C35.1999 50.261 30.7999 46.061 30.7999 40.861Z" fill="#2D373D"/>
</svg>
