<svg width="32" height="33" viewBox="0 0 32 33" fill="none" xmlns="http://www.w3.org/2000/svg">
<path d="M22.9997 15.4625H22.7997C21.8997 15.4625 21.0997 14.9625 20.6997 14.1625L20.4997 13.7625C19.7997 12.5625 18.6997 11.4625 17.3997 10.9625C16.8997 10.6625 16.2997 10.9625 16.0997 11.4625C15.8997 11.9625 16.1997 12.5625 16.5997 12.8625C17.3997 13.2625 18.1997 13.8625 18.5997 14.7625L18.7997 15.1625C19.5997 16.6625 21.0997 17.5625 22.6997 17.5625H22.8997C23.1997 17.5625 23.4997 17.8625 23.4997 18.1625C23.4997 18.5625 23.1997 18.8625 22.8997 18.8625H22.6997C20.7997 18.8625 18.9997 17.8625 17.9997 16.2625C17.7997 15.8625 17.2997 15.7625 16.8997 15.8625C16.4997 16.0625 16.1997 16.4625 16.1997 16.8625V27.3625C16.1997 27.6625 15.8997 27.9625 15.5997 27.9625C15.3997 27.9625 15.1997 27.8625 15.0997 27.7625C14.9997 27.5625 14.8997 27.4625 14.8997 27.2625V22.2625C14.8997 21.6625 14.4997 21.2625 13.8997 21.2625C13.2997 21.2625 12.8997 21.6625 12.8997 22.2625V27.2625C12.8997 27.5625 12.5997 27.8625 12.2997 27.8625C12.0997 27.8625 11.8997 27.7625 11.7997 27.6625C11.6997 27.5625 11.5997 27.4625 11.5997 27.2625V22.2625C11.5997 21.6625 11.1997 21.2625 10.5997 21.2625C9.99973 21.2625 9.59973 21.6625 9.59973 22.2625V27.2625C9.59973 28.0625 9.89973 28.6625 10.3997 29.1625C10.8997 29.6625 11.5997 29.8625 12.2997 29.8625C12.8997 29.8625 13.4997 29.5625 13.8997 29.2625C14.3997 29.6625 14.9997 29.8625 15.5997 29.8625C17.0997 29.7625 18.1997 28.6625 18.1997 27.2625V19.2625C19.4997 20.2625 20.9997 20.7625 22.6997 20.7625H22.9997C24.4997 20.7625 25.5997 19.5625 25.5997 18.0625C25.5997 16.6625 24.3997 15.4625 22.9997 15.4625Z" fill="#2D373D"/>
<path d="M12.9998 19.9625C14.3998 19.9625 15.5998 18.7625 15.5998 17.3625C15.5998 16.6625 15.3998 15.9625 14.8998 15.4625C14.4998 15.0625 13.9998 14.8625 13.4998 14.7625L14.7998 11.8625C14.8998 11.4625 14.8998 11.0625 14.5998 10.7625C16.3998 10.4625 17.7998 8.7625 17.7998 6.9625C17.7998 4.7625 15.9998 3.0625 13.8998 3.0625C11.7998 3.0625 9.9998 4.7625 9.9998 6.9625C9.9998 8.8625 11.3998 10.4625 13.1998 10.7625C13.0998 10.8625 13.0998 10.9625 12.9998 11.0625L11.2998 14.9625C11.0998 15.1625 10.9998 15.3625 10.9998 15.6625L9.9998 17.9625H8.9998C8.5998 17.9625 8.2998 17.6625 8.2998 17.2625V16.4625C8.2998 14.7625 9.3998 13.2625 10.9998 12.7625C11.4998 12.5625 11.7998 11.9625 11.5998 11.4625C11.3998 10.9625 10.7998 10.6625 10.2998 10.8625C7.8998 11.6625 6.2998 13.8625 6.2998 16.4625V17.2625C6.2998 18.7625 7.4998 19.9625 8.9998 19.9625H12.9998ZM12.9998 16.6625C13.1998 16.6625 13.3998 16.7625 13.4998 16.8625C13.5998 17.0625 13.6998 17.1625 13.6998 17.3625C13.6998 17.6625 13.3998 17.9625 13.0998 17.9625H12.0998L12.6998 16.6625H12.9998ZM11.9998 6.9625C11.9998 5.9625 12.8998 5.0625 13.8998 5.0625C14.9998 5.0625 15.7998 5.9625 15.7998 6.9625C15.7998 7.9625 14.8998 8.8625 13.8998 8.8625C12.8998 8.8625 11.9998 7.9625 11.9998 6.9625Z" fill="#2D373D"/>
</svg>
