<svg width="64" height="64" viewBox="0 0 64 64" fill="none" xmlns="http://www.w3.org/2000/svg">
<path d="M41.3998 42.3998V9.7998C41.3998 8.5998 40.5998 7.7998 39.3998 7.7998H9.7998C8.5998 7.7998 7.7998 8.5998 7.7998 9.7998V42.3998C7.7998 43.5998 8.5998 44.3998 9.7998 44.3998H39.3998C40.3998 44.3998 41.3998 43.3998 41.3998 42.3998ZM37.3998 31.3998H22.3998L28.3998 22.9998C28.7998 22.3998 29.3998 22.3998 29.7998 22.5998L29.9998 22.7998L37.3998 31.3998ZM37.3998 11.7998V25.1998L32.9998 20.1998C32.7998 19.9998 32.5998 19.5998 32.1998 19.3998C29.7998 17.7998 26.7998 18.3998 25.1998 20.5998L17.5998 31.3998H11.7998V11.7998H37.3998ZM11.7998 40.3998V35.3998H37.3998V40.3998H11.7998Z" fill="#2D373D"/>
<path d="M53.8 21.4001L46 18.8001C44.8 18.4001 43.8 19.0001 43.4 20.0001C43 21.2001 43.6 22.2001 44.6 22.6001L52 25.0001L43 52.0001L22.2 45.0001L21 48.8001L42.4 56.0001C42.6 56.2001 43 56.2001 43.4 56.2001C44.8 56.2001 46.2 55.2001 46.6 53.8001L56 25.8001C56.6 23.8001 55.6 22.0001 53.8 21.4001Z" fill="#2D373D"/>
<path d="M18.1998 23.5998C21.1998 23.5998 23.5998 21.1998 23.5998 18.1998C23.5998 15.1998 21.1998 12.7998 18.1998 12.7998C15.1998 12.7998 12.7998 15.1998 12.7998 18.1998C12.7998 21.1998 15.1998 23.5998 18.1998 23.5998ZM18.1998 16.9998C18.9998 16.9998 19.5998 17.5998 19.5998 18.3998C19.5998 19.1998 18.9998 19.7998 18.1998 19.7998C17.3998 19.7998 16.7998 19.1998 16.7998 18.3998C16.7998 17.5998 17.3998 16.9998 18.1998 16.9998Z" fill="#2D373D"/>
</svg>
