<svg width="24" height="25" viewBox="0 0 24 25" fill="none" xmlns="http://www.w3.org/2000/svg">
<path fill-rule="evenodd" clip-rule="evenodd" d="M12.75 3.21191C12.75 2.7977 12.4142 2.46191 12 2.46191C11.5858 2.46191 11.25 2.7977 11.25 3.21191V3.73799C8.88672 3.90289 6.64027 4.84786 4.93443 6.51889C3.05741 8.3576 2 10.8548 2 13.4619C2 13.7516 2.1668 14.0153 2.42849 14.1395C2.69019 14.2637 2.99999 14.2261 3.22435 14.0429L3.89108 13.4984C4.20961 13.2384 4.57875 13.0426 4.97714 12.9232C5.37555 12.8037 5.79461 12.7633 6.20961 12.8044C6.62459 12.8455 7.02645 12.9672 7.39163 13.1619C7.75678 13.3566 8.07755 13.6201 8.33573 13.9363C8.46903 14.0995 8.66487 14.1992 8.87531 14.2108C9.08575 14.2224 9.29137 14.1449 9.44184 13.9974C9.77623 13.6694 10.1742 13.4084 10.6133 13.2301C10.8194 13.1464 11.0326 13.0817 11.25 13.0366V20.4587C11.25 20.9891 11.4607 21.4978 11.8358 21.8729C12.2109 22.2479 12.7196 22.4587 13.25 22.4587C13.7804 22.4587 14.2891 22.2479 14.6642 21.8729C15.0393 21.4978 15.25 20.9891 15.25 20.4587C15.25 20.0444 14.9142 19.7087 14.5 19.7087C14.0858 19.7087 13.75 20.0444 13.75 20.4587C13.75 20.5913 13.6973 20.7184 13.6036 20.8122C13.5098 20.906 13.3826 20.9587 13.25 20.9587C13.1174 20.9587 12.9902 20.906 12.8964 20.8122C12.8027 20.7184 12.75 20.5913 12.75 20.4587V13.0366C12.9674 13.0817 13.1806 13.1464 13.3867 13.2301C13.8258 13.4084 14.2238 13.6694 14.5582 13.9974C14.7086 14.1449 14.9143 14.2224 15.1247 14.2108C15.3351 14.1992 15.531 14.0995 15.6643 13.9363C15.9224 13.6201 16.2432 13.3566 16.6084 13.1619C16.9736 12.9672 17.3754 12.8455 17.7904 12.8044C18.2054 12.7633 18.6245 12.8037 19.0229 12.9232C19.4213 13.0426 19.7904 13.2384 20.1089 13.4984L20.7756 14.0429C21 14.2261 21.3098 14.2637 21.5715 14.1395C21.8332 14.0153 22 13.7516 22 13.4619C22 10.8548 20.9426 8.35761 19.0656 6.51889C17.3597 4.84786 15.1133 3.90289 12.75 3.73799V3.21191ZM12 5.21191C11.8732 5.21191 11.5684 5.32936 11.1469 5.89461C10.7544 6.42093 10.3771 7.18657 10.0754 8.07749C9.61802 9.4279 9.38031 10.9236 9.45218 12.1287C9.64416 12.0201 9.84346 11.9237 10.0489 11.8403C10.6679 11.5889 11.3308 11.4597 12 11.4597C12.6692 11.4597 13.3321 11.5889 13.9511 11.8403C14.1565 11.9237 14.3558 12.0201 14.5478 12.1286C14.6197 10.9236 14.382 9.4279 13.9246 8.07749C13.6229 7.18657 13.2456 6.42093 12.8531 5.89461C12.4316 5.32936 12.1267 5.21191 12 5.21191ZM9.58499 5.53587C8.23127 5.91017 6.9913 6.60378 5.9841 7.59043C4.78509 8.76497 3.98334 10.2527 3.66038 11.8549C3.94133 11.7024 4.23823 11.5788 4.54638 11.4864C5.13244 11.3107 5.74805 11.2513 6.35738 11.3117C6.90793 11.3662 7.44393 11.5174 7.93987 11.7581C7.92974 10.3896 8.21818 8.88505 8.65463 7.59634C8.90763 6.84927 9.22224 6.13807 9.58499 5.53587ZM16.0601 11.7581C16.0702 10.3896 15.7818 8.88506 15.3454 7.59634C15.0924 6.84927 14.7778 6.13806 14.415 5.53587C15.7687 5.91017 17.0087 6.60378 18.0159 7.59043C19.2149 8.76497 20.0167 10.2527 20.3396 11.8549C20.0587 11.7024 19.7618 11.5788 19.4536 11.4864C18.8676 11.3107 18.2519 11.2513 17.6426 11.3117C17.0921 11.3662 16.5561 11.5174 16.0601 11.7581Z" fill="#2D373D"/>
</svg>
