<svg width="32" height="33" viewBox="0 0 32 33" fill="none" xmlns="http://www.w3.org/2000/svg">
<path d="M28.4001 5.66016H3.6001C3.0001 5.66016 2.6001 6.06016 2.6001 6.66016V26.1602C2.6001 26.7602 3.0001 27.1602 3.6001 27.1602H28.4001C29.0001 27.1602 29.4001 26.6602 29.4001 26.1602V6.66016C29.4001 6.06016 29.0001 5.66016 28.4001 5.66016ZM27.4001 7.66016V10.2602H4.6001V7.66016H27.4001ZM4.6001 25.1602V13.7602H27.4001V25.1602H4.6001Z" fill="#2D373D"/>
<path d="M10.3 17.9602H7C6.4 17.9602 6 18.3602 6 18.9602C6 19.5602 6.4 19.9602 7 19.9602H10.3C10.8 19.9602 11.3 19.5602 11.3 18.9602C11.3 18.3602 10.9 17.9602 10.3 17.9602Z" fill="#2D373D"/>
<path d="M19.9002 16.4602C18.6002 15.4602 16.8002 15.4602 15.5002 16.4602C14.7002 17.0602 14.1002 17.9602 14.0002 18.9602C13.8002 19.9602 14.1002 20.9602 14.7002 21.7602C15.3002 22.5602 16.2002 23.1602 17.2002 23.2602C17.3002 23.2602 17.5002 23.2602 17.7002 23.2602C18.5002 23.2602 19.2002 22.9602 20.0002 22.4602C21.3002 23.4602 23.1002 23.4602 24.4002 22.4602C26.0002 21.2602 26.3002 18.8602 25.1002 17.2602C23.9002 15.6602 21.5002 15.2602 19.9002 16.4602ZM23.7002 19.8602C23.6002 20.2602 23.4002 20.6602 23.0002 20.9602C22.6002 21.1602 22.2002 21.3602 21.7002 21.2602C21.3002 21.1602 20.9002 20.9602 20.6002 20.5602C20.4002 20.2602 20.1002 20.1602 19.8002 20.1602C19.5002 20.1602 19.2002 20.2602 19.0002 20.5602C18.9002 20.6602 18.8002 20.7602 18.7002 20.8602C18.3002 21.0602 17.9002 21.2602 17.4002 21.1602C17.0002 21.0602 16.6002 20.8602 16.3002 20.4602C16.1002 20.0602 15.9002 19.6602 16.0002 19.1602C16.1002 18.7602 16.3002 18.3602 16.7002 18.0602C17.0002 17.8602 17.3002 17.7602 17.7002 17.7602C17.8002 17.7602 17.8002 17.7602 18.0002 17.8602C18.4002 17.9602 18.8002 18.1602 19.1002 18.5602C19.5002 19.0602 20.3002 19.0602 20.7002 18.5602C20.8002 18.4602 20.9002 18.3602 21.0002 18.2602C21.7002 17.6602 22.8002 17.7602 23.4002 18.5602C23.6002 18.9602 23.8002 19.3602 23.7002 19.8602Z" fill="#2D373D"/>
</svg>
