<svg width="24" height="25" viewBox="0 0 24 25" fill="none" xmlns="http://www.w3.org/2000/svg">
<path d="M19.7252 9.23672C19.2002 8.63672 18.5252 8.18672 17.7752 7.88672C17.7002 6.46172 17.1002 5.11172 16.0502 4.13672C13.7252 1.88672 10.1252 1.88672 7.80016 4.13672C6.82516 5.11172 6.22516 6.46172 6.22516 7.88672C5.47516 8.18672 4.87516 8.63672 4.27516 9.23672C2.17516 11.5617 2.32516 15.0867 4.57516 17.1867L12.0002 22.5117L19.3502 17.2617L19.5002 17.1867C21.6752 15.0867 21.8252 11.5617 19.7252 9.23672ZM9.22516 5.33672C9.97516 4.73672 10.9502 4.28672 12.0002 4.28672C13.0502 4.28672 14.0252 4.73672 14.7752 5.41172C15.3002 5.93672 15.6752 6.61172 15.8252 7.36172C14.7752 7.28672 13.7252 7.51172 12.7502 7.96172C12.3002 8.18672 11.7002 8.18672 11.2502 7.96172C10.2752 7.43672 9.22516 7.28672 8.17516 7.28672C8.32516 6.53672 8.70016 5.86172 9.22516 5.33672ZM15.7502 9.31172C15.5252 9.91172 15.2252 10.4367 14.7752 10.8867C13.2752 12.3867 10.8002 12.3867 9.30016 10.8867C8.85016 10.4367 8.55016 9.91172 8.32516 9.31172C9.07516 9.23672 9.75016 9.38672 10.4252 9.76172C10.9502 9.98672 11.4752 10.1367 12.0752 10.1367C12.6752 10.1367 13.2002 9.98672 13.7252 9.76172C14.3252 9.38672 15.0002 9.23672 15.7502 9.31172ZM18.7502 15.1617C18.6002 15.3867 18.3752 15.6117 18.1502 15.8367L12.0002 20.1867L5.85016 15.8367C4.35016 14.4117 4.27516 12.0117 5.70016 10.5117C5.92516 10.2867 6.15016 10.0617 6.45016 9.91172C6.75016 10.8117 7.20016 11.5617 7.87516 12.2367C10.2002 14.4867 13.8002 14.4867 16.1252 12.2367C16.8002 11.5617 17.2502 10.8117 17.5502 9.91172C19.3502 11.0367 19.8752 13.3617 18.7502 15.1617Z" fill="#2D373D"/>
</svg>
