<svg width="24" height="25" viewBox="0 0 24 25" fill="none" xmlns="http://www.w3.org/2000/svg">
<path d="M12.0001 16.5866C11.4001 16.5866 10.9501 17.0366 10.9501 17.6366C10.9501 18.2366 11.4001 18.6866 12.0001 18.6866C12.5251 18.6866 13.0501 18.2366 13.0501 17.6366C13.0501 17.0366 12.6001 16.5866 12.0001 16.5866Z" fill="#2D373D"/>
<path d="M12.0001 15.9867C12.3751 15.9867 12.7501 15.6117 12.7501 15.2367V9.68668C12.7501 9.23668 12.4501 8.93668 12.0001 8.93668C11.5501 8.93668 11.2501 9.23668 11.2501 9.68668V15.2367C11.2501 15.6867 11.5501 15.9867 12.0001 15.9867Z" fill="#2D373D"/>
<path d="M20.85 18.7616L13.875 4.51165C13.65 3.98665 13.2 3.61165 12.675 3.46165C12.15 3.31165 11.55 3.38665 11.025 3.53665C10.575 3.76165 10.275 4.13665 10.05 4.51165L3.07505 18.7616C2.85005 19.2116 2.85005 19.7366 3.00005 20.1866C3.15005 20.6366 3.52505 21.0116 3.97505 21.2366C4.20005 21.3866 4.50005 21.4616 4.80005 21.4616H19.2C20.25 21.4616 21.075 20.6366 21.075 19.5866C21.075 19.2866 21 18.9866 20.85 18.7616ZM19.125 20.0366H4.80005C4.72505 20.0366 4.72505 19.9616 4.65005 19.9616C4.50005 19.8866 4.42505 19.8116 4.42505 19.7366C4.42505 19.6616 4.35005 19.5866 4.42505 19.4366L11.475 5.26165C11.55 5.11165 11.625 5.03665 11.775 4.96165C11.85 4.88665 11.925 4.88665 12 4.88665C12 4.88665 12.075 4.88665 12.15 4.96165C12.3 5.03665 12.375 5.11165 12.45 5.26165L19.425 19.5116C19.5 19.5866 19.5 19.5866 19.5 19.6616C19.5 19.8866 19.35 20.0366 19.125 20.0366Z" fill="#2D373D"/>
</svg>
