<svg width="32" height="33" viewBox="0 0 32 33" fill="none" xmlns="http://www.w3.org/2000/svg">
<path fill-rule="evenodd" clip-rule="evenodd" d="M7 22.2546C7 21.7023 7.44772 21.2546 8 21.2546H12C12.5523 21.2546 13 21.7023 13 22.2546C13 22.8068 12.5523 23.2546 12 23.2546H8C7.44772 23.2546 7 22.8068 7 22.2546Z" fill="#2D373D"/>
<path fill-rule="evenodd" clip-rule="evenodd" d="M23.3333 8.25456H19.6667V8.92122H22.6667C25.6122 8.92122 28 11.309 28 14.2546V24.9212C28 25.6576 27.403 26.2546 26.6667 26.2546H19.6667V29.2546C19.6667 29.8068 19.219 30.2546 18.6667 30.2546H13.3333C12.781 30.2546 12.3333 29.8068 12.3333 29.2546V26.2546H5.33333C5.28731 26.2546 5.24183 26.2522 5.19701 26.2477C4.52467 26.1794 4 25.6116 4 24.9212V14.2546C4 11.309 6.38781 8.92122 9.33333 8.92122H17.6667V4.58789C17.6667 4.03561 18.1144 3.58789 18.6667 3.58789H23.3333C23.5985 3.58789 23.8529 3.69325 24.0404 3.88078C24.228 4.06832 24.3333 4.32267 24.3333 4.58789V7.25456C24.3333 7.80684 23.8856 8.25456 23.3333 8.25456ZM19.6667 5.58789L22.3333 5.58789V6.25456L19.6667 6.25456V5.58789ZM14.3333 26.2546V28.2546H17.6667V26.2546H14.3333ZM17.6667 14.2544V10.9212H14.8302C15.5622 11.8343 16 12.9933 16 14.2546V24.2546H26V14.2546C26 12.4136 24.5076 10.9212 22.6667 10.9212H19.6667V14.2544C20.0715 14.5585 20.3333 15.0426 20.3333 15.5879C20.3333 16.5084 19.5871 17.2546 18.6667 17.2546C17.7462 17.2546 17 16.5084 17 15.5879C17 15.0426 17.2619 14.5585 17.6667 14.2544ZM19 15.5879C19 15.772 18.8508 15.9212 18.6667 15.9212C18.4826 15.9212 18.3333 15.772 18.3333 15.5879C18.3333 15.4038 18.4826 15.2546 18.6667 15.2546C18.8508 15.2546 19 15.4038 19 15.5879ZM10.6667 10.9212H9.33333C7.49238 10.9212 6 12.4136 6 14.2546V24.2546H14V14.2546C14 12.4136 12.5076 10.9212 10.6667 10.9212Z" fill="#2D373D"/>
</svg>
