<svg width="64" height="64" viewBox="0 0 64 64" fill="none" xmlns="http://www.w3.org/2000/svg">
<path d="M55.3998 52.7998L42.9998 40.3998C44.1998 38.7998 45.1998 37.1998 45.9998 35.1998C47.9998 30.1998 47.7998 24.7998 45.7998 19.9998C43.7998 15.1998 39.9998 11.3998 34.9998 9.39984C29.9998 7.39984 24.5998 7.59984 19.7998 9.59984C9.79982 13.9998 5.19982 25.5998 9.39982 35.5998C12.5998 42.9998 19.7998 47.5998 27.5998 47.5998C30.1998 47.5998 32.7998 46.9998 35.3998 45.9998C37.1998 45.1998 38.7998 44.3998 40.1998 43.1998L52.5998 55.5998C52.9998 55.9998 53.3998 56.1998 53.9998 56.1998C54.5998 56.1998 54.9998 55.9998 55.3998 55.5998C56.1998 54.7998 56.1998 53.5998 55.3998 52.7998ZM33.7998 42.3998C25.7998 45.7998 16.3998 41.9998 12.9998 33.9998C9.59982 25.9998 13.3998 16.5998 21.3998 13.5998C25.1998 11.7998 29.3998 11.7998 33.3998 13.3998C37.1998 14.9998 40.3998 17.9998 41.9998 21.7998C43.7998 25.5998 43.7998 29.7998 42.1998 33.7998C40.5998 37.5998 37.5998 40.7998 33.7998 42.3998Z" fill="#2D373D"/>
</svg>
