<svg width="24" height="25" viewBox="0 0 24 25" fill="none" xmlns="http://www.w3.org/2000/svg">
<path d="M21.825 10.1352C21.15 7.51016 19.575 5.33516 17.325 3.91016C15.675 2.93516 13.875 2.41016 12 2.41016C6.45 2.41016 1.95 6.91016 1.95 12.3852C1.95 14.1852 2.4 15.9102 3.3 17.4102L1.95 21.5352C1.875 21.7602 1.95 22.0602 2.175 22.2852C2.325 22.4352 2.475 22.5102 2.7 22.5102C2.775 22.5102 2.925 22.5102 3 22.5102L7.05 21.1602C9.3 22.4352 11.85 22.8102 14.325 22.2102C16.95 21.5352 19.125 19.9602 20.55 17.7102C21.975 15.4602 22.425 12.7602 21.825 10.1352ZM19.275 16.8852C18.075 18.8352 16.2 20.1852 13.95 20.7102C11.7 21.2352 9.45 20.8602 7.5 19.7352C7.425 19.6602 7.275 19.5852 7.125 19.5852C7.05 19.5852 6.9 19.5852 6.825 19.5852L3.825 20.5602L4.8 17.4852C4.875 17.2602 4.875 17.0352 4.725 16.8852C3.9 15.5352 3.45 13.9602 3.45 12.3852C3.45 7.73516 7.275 3.91016 12 3.91016C13.575 3.91016 15.15 4.36016 16.5 5.18516C18.45 6.38516 19.8 8.18516 20.325 10.4352C20.85 12.6852 20.475 14.9352 19.275 16.8852Z" fill="#2D373D"/>
<path d="M13.725 9.68512C13.5 9.68512 13.35 9.76012 13.275 9.83512C12.75 10.0601 12.375 10.5101 12.375 11.1101C12.375 11.8601 12.975 12.4601 13.725 12.4601C14.025 12.4601 14.25 12.3851 14.475 12.2351C14.475 12.3101 14.475 12.3101 14.475 12.3851C14.475 12.9851 14.1 13.5101 13.575 13.7351C13.2 13.8851 13.05 14.3351 13.2 14.7101C13.35 15.0101 13.575 15.1601 13.875 15.1601C13.95 15.1601 14.1 15.1601 14.175 15.0101C15.225 14.5601 15.9 13.5851 15.975 12.3851C15.975 11.1101 15.225 9.68512 13.725 9.68512Z" fill="#2D373D"/>
<path d="M9.37515 9.68512C9.15015 9.68512 9.00015 9.76012 8.92515 9.83512C8.40015 10.0601 8.02515 10.5101 8.02515 11.1101C8.02515 11.8601 8.62515 12.4601 9.37515 12.4601C9.67515 12.4601 9.90015 12.3851 10.1251 12.2351C10.1251 12.3101 10.1251 12.3101 10.1251 12.3851C10.1251 12.9851 9.75015 13.5101 9.22515 13.7351C8.85015 13.8851 8.70015 14.3351 8.85015 14.7101C9.00015 15.0101 9.22515 15.1601 9.52515 15.1601C9.67515 15.1601 9.75015 15.1601 9.82515 15.0101C10.8751 14.5601 11.5501 13.5851 11.6251 12.3851C11.6251 11.1101 10.8751 9.68512 9.37515 9.68512Z" fill="#2D373D"/>
</svg>
