<svg width="16" height="16" viewBox="0 0 16 16" fill="none" xmlns="http://www.w3.org/2000/svg">
<path d="M5.3335 8.58333C5.3335 8.95152 5.03502 9.25 4.66683 9.25C4.29864 9.25 4.00016 8.95152 4.00016 8.58333C4.00016 8.21514 4.29864 7.91667 4.66683 7.91667C5.03502 7.91667 5.3335 8.21514 5.3335 8.58333Z" fill="#2D373D"/>
<path d="M8.00016 9.25C8.36835 9.25 8.66683 8.95152 8.66683 8.58333C8.66683 8.21514 8.36835 7.91667 8.00016 7.91667C7.63197 7.91667 7.3335 8.21514 7.3335 8.58333C7.3335 8.95152 7.63197 9.25 8.00016 9.25Z" fill="#2D373D"/>
<path d="M12.0002 8.58333C12.0002 8.95152 11.7017 9.25 11.3335 9.25C10.9653 9.25 10.6668 8.95152 10.6668 8.58333C10.6668 8.21514 10.9653 7.91667 11.3335 7.91667C11.7017 7.91667 12.0002 8.21514 12.0002 8.58333Z" fill="#2D373D"/>
<path d="M4.66683 11.5833C5.03502 11.5833 5.3335 11.2849 5.3335 10.9167C5.3335 10.5485 5.03502 10.25 4.66683 10.25C4.29864 10.25 4.00016 10.5485 4.00016 10.9167C4.00016 11.2849 4.29864 11.5833 4.66683 11.5833Z" fill="#2D373D"/>
<path d="M8.66683 10.9167C8.66683 11.2849 8.36835 11.5833 8.00016 11.5833C7.63197 11.5833 7.3335 11.2849 7.3335 10.9167C7.3335 10.5485 7.63197 10.25 8.00016 10.25C8.36835 10.25 8.66683 10.5485 8.66683 10.9167Z" fill="#2D373D"/>
<path d="M11.3335 11.5833C11.7017 11.5833 12.0002 11.2849 12.0002 10.9167C12.0002 10.5485 11.7017 10.25 11.3335 10.25C10.9653 10.25 10.6668 10.5485 10.6668 10.9167C10.6668 11.2849 10.9653 11.5833 11.3335 11.5833Z" fill="#2D373D"/>
<path fill-rule="evenodd" clip-rule="evenodd" d="M5.8335 2.75C5.8335 2.47386 5.60964 2.25 5.3335 2.25C5.05735 2.25 4.8335 2.47386 4.8335 2.75V2.91667H1.78351C1.53497 2.91667 1.3335 3.11814 1.3335 3.36668V13.1333C1.3335 13.3819 1.53497 13.5833 1.78351 13.5833H14.2168C14.4654 13.5833 14.6668 13.3819 14.6668 13.1333V3.36668C14.6668 3.11814 14.4654 2.91667 14.2168 2.91667H11.1668V2.75C11.1668 2.47386 10.943 2.25 10.6668 2.25C10.3907 2.25 10.1668 2.47386 10.1668 2.75V2.91667H5.8335V2.75ZM2.3335 3.91667H4.8335V3.95007C4.8335 4.22621 5.05735 4.45007 5.3335 4.45007C5.60964 4.45007 5.8335 4.22621 5.8335 3.95007V3.91667H10.1668V3.95007C10.1668 4.22621 10.3907 4.45007 10.6668 4.45007C10.943 4.45007 11.1668 4.22621 11.1668 3.95007V3.91667H13.6668V5.91667L2.3335 5.91667V3.91667ZM2.3335 6.91667V12.5833H13.6668V6.91667L2.3335 6.91667Z" fill="#2D373D"/>
</svg>
