<svg width="24" height="24" viewBox="0 0 24 24" fill="none" xmlns="http://www.w3.org/2000/svg">
<path d="M5.17485 15.225C5.24985 15.3 5.39985 15.3 5.47485 15.3C6.07485 15.3 6.52485 14.775 6.52485 14.25C6.52485 13.8 6.22485 13.425 5.77485 13.275C5.69985 13.2 5.54985 13.2 5.47485 13.2C5.39985 13.2 5.24985 13.2 5.17485 13.275C4.72485 13.425 4.42485 13.8 4.42485 14.25C4.42485 14.7 4.72485 15.075 5.17485 15.225Z" fill="#2D373D"/>
<path d="M18.2249 15.225C18.2999 15.3 18.4499 15.3 18.5249 15.3C19.1249 15.3 19.5749 14.775 19.5749 14.25C19.5749 13.8 19.2749 13.425 18.8249 13.275C18.7499 13.2 18.5999 13.2 18.5249 13.2C18.4499 13.2 18.2999 13.2 18.2249 13.275C17.7749 13.425 17.4749 13.8 17.4749 14.25C17.4749 14.7 17.7749 15.075 18.2249 15.225Z" fill="#2D373D"/>
<path d="M19.6498 10.65V9.60005H21.2998C21.7498 9.60005 22.0498 9.30005 22.0498 8.85005C22.0498 8.40005 21.7498 8.10005 21.2998 8.10005H19.6498V7.50005C19.6498 5.02505 17.6248 2.92505 15.1498 2.92505H8.92485C6.37485 2.92505 4.42485 5.02505 4.42485 7.50005V8.10005H2.69985C2.24985 8.10005 1.94985 8.40005 1.94985 8.85005C1.94985 9.30005 2.24985 9.60005 2.69985 9.60005H4.42485V10.65C3.07485 11.025 1.94985 12.225 1.94985 13.725V13.8C1.87485 14.925 2.24985 16.05 2.99985 16.875C3.07485 16.95 3.14985 17.025 3.22485 17.1V18.9C3.22485 20.025 4.04985 20.925 5.24985 21C6.37485 21 7.19985 20.025 7.19985 18.975V18.3H8.84985C8.84985 18.3 8.84985 18.3 8.92485 18.3H15.1498C15.1498 18.3 15.1498 18.3 15.2248 18.3H16.7998V18.825C16.7998 18.9 16.7998 19.05 16.7998 19.125C16.9498 20.175 17.7748 21 18.8248 21C18.8998 21 18.9748 21 19.0498 21C19.5748 21 20.0999 20.775 20.3998 20.325C20.6998 19.875 20.9248 19.35 20.8498 18.9V17.175C20.9248 17.1 21.0748 17.025 21.1498 16.875C21.8998 16.05 22.2748 14.925 22.1998 13.875V13.725C22.1998 12.15 21.0748 10.95 19.6498 10.65ZM14.9998 12.3L13.0498 10.95C12.3748 10.5 11.4748 10.5 10.7998 10.95L8.99985 12.225C8.32485 11.475 7.34985 10.95 6.37485 10.725C6.82485 10.2 7.79985 9.60005 9.52485 9.60005H14.4748C16.1998 9.60005 17.1748 10.2 17.6248 10.8C16.6498 11.025 15.7498 11.55 14.9998 12.3ZM5.92485 7.50005C5.92485 5.85005 7.27485 4.42505 8.92485 4.42505H15.1498C16.7999 4.42505 18.1498 5.85005 18.1498 7.50005V8.47505C18.0748 8.55005 18.0748 8.70005 18.0748 8.85005C18.0748 9.00005 18.0748 9.07505 18.1498 9.15005C17.3998 8.55005 16.1998 8.10005 14.4748 8.10005H9.52485C7.87485 8.10005 6.67485 8.55005 5.92485 9.15005V7.50005ZM3.44985 13.725C3.52485 12.825 4.27485 12.075 5.17485 12.075C6.29985 12.075 7.42485 12.6 8.17485 13.425V16.8H6.37485C6.22485 16.8 6.14985 16.8 5.99985 16.8C5.47485 16.8 5.02485 16.575 4.57485 16.275C4.49985 16.125 4.42485 16.05 4.27485 16.05C4.19985 15.975 4.19985 15.975 4.12485 15.9C3.67485 15.3001 3.37485 14.625 3.44985 13.875V13.725ZM5.24985 19.5C4.94985 19.5 4.72485 19.2 4.72485 18.9V18C5.02485 18.15 5.39985 18.225 5.69985 18.225V18.975C5.69985 19.275 5.47485 19.5 5.24985 19.5ZM14.3998 16.8H9.59985V13.575L11.6998 12.15C11.9248 12 12.1498 12 12.2998 12.15L14.3998 13.575V16.8ZM15.8998 13.425C16.6498 12.6 17.7748 12.075 18.8998 12.075C19.7999 12.075 20.5498 12.825 20.5498 13.725V13.875C20.6248 14.625 20.3998 15.375 19.8748 15.9C19.7998 15.975 19.7249 16.05 19.5748 16.125L19.4998 16.2C19.0498 16.5 18.5248 16.725 17.9998 16.8C17.9248 16.8 17.7748 16.8 17.6248 16.8H15.8998V13.425ZM19.3498 18.975C19.3498 19.125 19.2748 19.275 19.1998 19.35C19.0498 19.425 18.9749 19.5 18.8248 19.5C18.5999 19.5 18.2998 19.35 18.2998 19.05V18.3C18.6748 18.3 18.9748 18.15 19.3498 18.075V18.975Z" fill="#2D373D"/>
</svg>
