<svg width="64" height="65" viewBox="0 0 64 65" fill="none" xmlns="http://www.w3.org/2000/svg">
<path d="M50.644 15.8999C50.644 17.0045 51.5395 17.8999 52.644 17.8999C53.7486 17.8999 54.644 17.0045 54.644 15.8999L54.644 8.2539C54.644 7.14934 53.7486 6.25391 52.644 6.25391H44.9982C43.8936 6.25391 42.9982 7.14934 42.9982 8.25391C42.9982 9.35848 43.8936 10.2539 44.9982 10.2539L50.644 10.2539L50.644 15.8999Z" fill="#2D373D"/>
<path d="M32.3173 11.7479C32.0311 11.535 31.7454 11.5516 31.5287 11.6967C26.9498 14.762 14.1484 23.8007 8.69008 28.8393C7.87845 29.5885 6.61313 29.5379 5.86391 28.7263C5.1147 27.9147 5.1653 26.6493 5.97693 25.9001C11.6923 20.6243 24.7367 11.4299 29.3035 8.37274C31.0059 7.23306 33.138 7.37299 34.7048 8.5386L57.8606 25.7651C58.7468 26.4244 58.9308 27.6773 58.2715 28.5635C57.6122 29.4497 56.3593 29.6337 55.4731 28.9744L32.3173 11.7479Z" fill="#2D373D"/>
<path d="M50.6668 28.7072C51.7714 28.7072 52.6668 29.6026 52.6668 30.7072V54.535C52.6668 57.3296 50.4013 59.5952 47.6067 59.5952L16.3936 59.5954C13.599 59.5954 11.3335 57.3299 11.3335 54.5353V30.7075C11.3335 29.6029 12.2289 28.7075 13.3335 28.7075C14.4381 28.7075 15.3335 29.6029 15.3335 30.7075V54.5353C15.3335 55.1208 15.8081 55.5954 16.3936 55.5954L47.6067 55.5952C48.1922 55.5952 48.6668 55.1205 48.6668 54.535V30.7072C48.6668 29.6026 49.5623 28.7072 50.6668 28.7072Z" fill="#2D373D"/>
<path d="M28.7476 27.5065C29.5287 28.2876 29.5287 29.5539 28.7476 30.3349L28.7441 30.3385C28.3645 30.718 25.7668 33.3153 27.7889 37.3596C29.3414 40.4646 28.8961 43.4063 28.1295 45.4632C27.7471 46.489 27.2762 47.3247 26.9009 47.9057C26.7121 48.198 26.5442 48.4309 26.4185 48.5967C26.3555 48.6797 26.3028 48.7463 26.263 48.7954L26.2131 48.8561L26.196 48.8765L26.1894 48.8842L26.1867 48.8874L26.1843 48.8902C25.4647 49.7283 24.2021 49.8244 23.364 49.1048C22.5287 48.3876 22.4305 47.1307 23.1425 46.2926L23.1547 46.2778C23.1692 46.2598 23.1956 46.2267 23.2315 46.1794C23.3036 46.0844 23.4127 45.9339 23.5409 45.7353C23.7998 45.3346 24.1231 44.7589 24.3814 44.0661C24.8959 42.6856 25.1173 40.9606 24.2112 39.1485C20.9064 32.5389 25.397 28.0287 25.9192 27.5065C26.7002 26.7255 27.9666 26.7255 28.7476 27.5065Z" fill="#2D373D"/>
<path d="M40.7476 30.3349C41.5287 29.5539 41.5287 28.2876 40.7476 27.5065C39.9666 26.7255 38.7002 26.7255 37.9192 27.5065C37.397 28.0287 32.9064 32.5389 36.2112 39.1485C37.1173 40.9606 36.8959 42.6856 36.3814 44.0661C36.1231 44.7589 35.7998 45.3346 35.5409 45.7353C35.4127 45.9339 35.3036 46.0844 35.2315 46.1794C35.1956 46.2267 35.1692 46.2598 35.1547 46.2778L35.1425 46.2926C34.4305 47.1307 34.5287 48.3876 35.364 49.1048C36.2021 49.8244 37.4647 49.7283 38.1843 48.8902L38.1867 48.8874L38.1894 48.8842L38.196 48.8765L38.2131 48.8561L38.263 48.7954C38.3028 48.7463 38.3555 48.6797 38.4185 48.5967C38.5442 48.4309 38.7121 48.198 38.9009 47.9057C39.2762 47.3247 39.7471 46.489 40.1295 45.4632C40.8961 43.4063 41.3414 40.4646 39.7889 37.3596C37.7668 33.3153 40.3645 30.718 40.7441 30.3385L40.7476 30.3349Z" fill="#2D373D"/>
</svg>
