<svg width="16" height="16" viewBox="0 0 16 16" fill="none" xmlns="http://www.w3.org/2000/svg">
<path fill-rule="evenodd" clip-rule="evenodd" d="M4.88808 1.7272C4.94603 1.99719 4.77415 2.26304 4.50415 2.321C3.56373 2.52287 2.59362 3.18599 2.32294 4.50755C2.26753 4.77808 2.00331 4.95247 1.73278 4.89706C1.46225 4.84165 1.28787 4.57743 1.34328 4.3069C1.71081 2.51245 3.05723 1.60881 4.29428 1.34327C4.56427 1.28531 4.83012 1.4572 4.88808 1.7272Z" fill="#2D373D"/>
<path fill-rule="evenodd" clip-rule="evenodd" d="M5.20298 3.04692C5.3231 3.29556 5.21892 3.59451 4.97027 3.71464C4.45499 3.96358 3.99053 4.37173 3.70365 4.97375C3.58486 5.22303 3.28647 5.32882 3.03719 5.21003C2.7879 5.09124 2.68211 4.79285 2.8009 4.54357C3.19841 3.7094 3.84348 3.14843 4.53526 2.81421C4.7839 2.69409 5.08285 2.79827 5.20298 3.04692Z" fill="#2D373D"/>
<path fill-rule="evenodd" clip-rule="evenodd" d="M11.1111 1.7272C11.0532 1.99719 11.2251 2.26304 11.4951 2.321C12.4355 2.52287 13.4056 3.18599 13.6763 4.50755C13.7317 4.77808 13.9959 4.95247 14.2664 4.89706C14.537 4.84165 14.7113 4.57743 14.6559 4.3069C14.2884 2.51245 12.942 1.60881 11.7049 1.34327C11.4349 1.28531 11.1691 1.4572 11.1111 1.7272Z" fill="#2D373D"/>
<path fill-rule="evenodd" clip-rule="evenodd" d="M10.7962 3.04692C10.6761 3.29556 10.7803 3.59451 11.0289 3.71464C11.5442 3.96358 12.0087 4.37173 12.2956 4.97375C12.4143 5.22303 12.7127 5.32882 12.962 5.21003C13.2113 5.09124 13.3171 4.79285 13.1983 4.54357C12.8008 3.7094 12.1557 3.14843 11.4639 2.81421C11.2153 2.69409 10.9164 2.79827 10.7962 3.04692Z" fill="#2D373D"/>
<path fill-rule="evenodd" clip-rule="evenodd" d="M8.49979 2.4988C8.49979 2.22266 8.27594 1.9988 7.99979 1.9988C7.72365 1.9988 7.49979 2.22266 7.49979 2.4988V3.36414C6.76728 3.45671 5.97688 3.7543 5.32206 4.31107C4.49978 5.01024 3.92195 6.09307 3.92195 7.59785C3.92195 8.94041 3.91982 9.58853 3.83586 10.0502C3.76091 10.4625 3.62176 10.721 3.25271 11.2745C3.15041 11.4279 3.14087 11.6252 3.22788 11.7878C3.31488 11.9503 3.48432 12.0518 3.66872 12.0518H12.3309C12.5153 12.0518 12.6847 11.9503 12.7717 11.7878C12.8587 11.6252 12.8492 11.4279 12.7469 11.2745C12.3778 10.721 12.2387 10.4625 12.1637 10.0502C12.0798 9.58853 12.0776 8.94041 12.0776 7.59785C12.0776 6.09307 11.4998 5.01024 10.6775 4.31107C10.0227 3.7543 9.23231 3.45671 8.49979 3.36414V2.4988ZM4.92195 7.59785C4.92195 6.37463 5.37981 5.57459 5.96984 5.07291C6.5748 4.55852 7.35028 4.33213 7.9998 4.33213C8.64932 4.33213 9.42479 4.55852 10.0298 5.07291C10.6198 5.57459 11.0776 6.37463 11.0776 7.59785L11.0776 7.67391C11.0776 8.9214 11.0776 9.66664 11.1799 10.2292C11.2369 10.5429 11.3254 10.8002 11.4482 11.0518H4.55137C4.67418 10.8002 4.76268 10.5429 4.81973 10.2292C4.92202 9.66664 4.92199 8.9214 4.92195 7.67391L4.92195 7.59785Z" fill="#2D373D"/>
<path fill-rule="evenodd" clip-rule="evenodd" d="M6.66644 12.4988C6.94258 12.4988 7.16644 12.7227 7.16644 12.9988C7.16644 13.1556 7.24363 13.3159 7.40374 13.4497C7.56633 13.5855 7.78691 13.6678 7.99976 13.6678C8.21262 13.6678 8.4332 13.5855 8.5958 13.4497C8.75591 13.3159 8.83311 13.1556 8.83311 12.9988C8.83311 12.7227 9.05696 12.4988 9.33311 12.4988C9.60925 12.4988 9.83311 12.7227 9.83311 12.9988C9.83311 13.5087 9.57696 13.9329 9.23706 14.217C8.89966 14.499 8.45357 14.6678 7.99976 14.6678C7.54596 14.6678 7.09987 14.499 6.76247 14.217C6.42258 13.9329 6.16644 13.5087 6.16644 12.9988C6.16644 12.7227 6.3903 12.4988 6.66644 12.4988Z" fill="#2D373D"/>
</svg>
