<svg width="24" height="25" viewBox="0 0 24 25" fill="none" xmlns="http://www.w3.org/2000/svg">
<path d="M21 14.8616L19.35 11.4866C19.725 11.4116 19.95 11.1866 19.95 10.7366C19.95 10.2866 19.65 9.98665 19.2 9.98665H14.4V9.68665C14.4 9.23665 14.1 8.93665 13.65 8.93665C13.2 8.93665 12.9 9.23665 12.9 9.68665V9.98665H8.09998C7.64998 9.98665 7.34998 10.2866 7.34998 10.7366C7.34998 11.1116 7.57498 11.4116 8.02498 11.4866L6.29997 14.7866C6.14997 15.0866 6.14998 15.3116 6.37498 15.5366C6.52498 17.0366 7.72498 18.1616 9.22498 18.1616C10.875 18.1616 12.15 16.8116 12.225 15.1616C12.225 15.0116 12.15 14.9366 12.15 14.7866L10.5 11.4866H12.975V17.8616C12.45 18.0116 12 18.3116 11.625 18.6116C11.025 19.2116 10.725 19.8866 10.725 20.7116C10.725 21.1616 11.025 21.4616 11.475 21.4616L15.975 21.3866C16.2 21.3866 16.35 21.3116 16.5 21.1616C16.65 21.0116 16.725 20.8616 16.725 20.6366C16.725 19.2866 15.75 18.1616 14.475 17.7866V11.4866H17.025L15.3 14.7116C15.15 14.8616 15.075 15.0116 15.075 15.2366C15.15 16.8116 16.425 18.1616 18.075 18.1616C18.825 18.1616 19.575 17.8616 20.1 17.3366C20.625 16.8116 20.925 16.2116 21 15.5366C21.075 15.3866 21.15 15.0866 21 14.8616ZM9.22498 16.6616C8.69998 16.6616 8.17498 16.3616 7.94998 15.9116H10.5C10.2 16.3616 9.74998 16.6616 9.22498 16.6616ZM8.17497 14.4116L9.22498 12.3866L10.275 14.4116H8.17497ZM14.85 19.9616H12.375C12.45 19.8866 12.525 19.8116 12.525 19.6616C12.75 19.4366 13.05 19.2866 13.35 19.2116C13.425 19.2116 13.575 19.2866 13.65 19.2866C13.725 19.2866 13.8 19.2866 13.8 19.2116C14.25 19.3616 14.7 19.5866 14.85 19.9616ZM19.2 14.4866H17.1L18.15 12.4616L19.2 14.4866ZM19.125 16.1366C18.825 16.4366 18.45 16.5866 18.075 16.5866C17.55 16.5866 17.025 16.3616 16.8 15.9116V15.8366H19.35C19.275 15.9866 19.2 16.0616 19.125 16.1366Z" fill="#2D373D"/>
<path d="M8.0998 18.9117H4.7998C4.5748 18.9117 4.4248 18.7617 4.4248 18.5367V5.26172C4.4248 5.03672 4.5748 4.88672 4.7998 4.88672H12.2248L15.0748 7.73672V8.56172C15.0748 9.01172 15.3748 9.31172 15.8248 9.31172C16.2748 9.31172 16.5748 9.01172 16.5748 8.56172V7.66172C16.5748 7.36172 16.4248 6.98672 16.1998 6.76172L13.1998 3.76172C12.9748 3.53672 12.6748 3.38672 12.2998 3.38672H4.7998C3.7498 3.38672 2.9248 4.21172 2.9248 5.26172V18.4617C2.9248 19.5117 3.7498 20.3367 4.7998 20.3367H8.0998C8.5498 20.3367 8.8498 20.1117 8.8498 19.6617C8.8498 19.2117 8.5498 18.9117 8.0998 18.9117Z" fill="#2D373D"/>
</svg>
