<svg width="32" height="33" viewBox="0 0 32 33" fill="none" xmlns="http://www.w3.org/2000/svg">
<path fill-rule="evenodd" clip-rule="evenodd" d="M6.56122 9.95782C6.56122 7.17654 8.81706 4.92188 11.5998 4.92188C14.3825 4.92188 16.6383 7.17654 16.6383 9.95782C16.6383 12.1131 15.2837 13.9521 13.379 14.6708L13.4032 14.6766C14.8997 15.042 16.2498 15.8533 17.2746 17.0029C17.6421 17.4153 17.6056 18.0474 17.193 18.4148C16.7805 18.7822 16.148 18.7457 15.7804 18.3333C15.0255 17.4864 14.0309 16.8887 12.9284 16.6195C11.8259 16.3504 10.6676 16.4224 9.607 16.8261C8.5464 17.2298 7.63358 17.9461 6.98952 18.8801C6.34546 19.814 6.00056 20.9216 6.00055 22.0559C6.00054 22.6082 5.55259 23.0559 5.00002 23.0559C4.44745 23.0559 3.9995 22.6081 3.99951 22.0559C3.99953 20.5161 4.46768 19.0128 5.34192 17.7451C6.21616 16.4773 7.4552 15.505 8.89484 14.957C9.19815 14.8416 9.50735 14.7461 9.82049 14.6708C7.91582 13.9521 6.56122 12.113 6.56122 9.95782ZM11.5998 6.92188C9.92221 6.92188 8.56226 8.28111 8.56226 9.95782C8.56226 11.6345 9.92221 12.9938 11.5998 12.9938C13.2774 12.9938 14.6373 11.6345 14.6373 9.95782C14.6373 8.28111 13.2774 6.92188 11.5998 6.92188Z" fill="#2D373D"/>
<path fill-rule="evenodd" clip-rule="evenodd" d="M20.7803 18.2582C20.5362 18.1577 20.2623 18.1577 20.0183 18.2582L13.4398 20.9661C13.3529 20.9996 13.2719 21.0449 13.1986 21.0999C13.139 21.1447 13.0849 21.1958 13.0372 21.2519C12.8893 21.4256 12.7999 21.6505 12.7991 21.8963L12.7991 21.8995V25.5641C12.7991 26.1164 13.247 26.5641 13.7996 26.5641C14.3522 26.5641 14.8001 26.1164 14.8001 25.5641V23.3303L15.7322 23.6712L15.7322 26.0136L15.7323 26.0169C15.7334 26.361 15.8364 26.697 16.0283 26.9826C16.2202 27.2683 16.4923 27.4908 16.8105 27.6221L19.7539 28.7989L19.7617 28.8019C20.1717 28.9619 20.6269 28.9619 21.0369 28.8019L23.9778 27.6262L23.988 27.622C24.3062 27.4907 24.5784 27.2683 24.7703 26.9826C24.9621 26.697 25.0652 26.361 25.0663 26.0169V23.6712L27.3428 22.8386C27.7304 22.6969 27.9911 22.3318 27.9993 21.9195C28.0075 21.5071 27.7616 21.1319 27.38 20.9749L20.7803 18.2582ZM16.9604 21.9907C17.0403 22.0093 17.1165 22.0374 17.1878 22.0738L20.3993 23.2484L23.6106 22.0739C23.682 22.0374 23.7583 22.0092 23.8383 21.9906L24.238 21.8445L20.3993 20.2643L16.5606 21.8445L16.9604 21.9907ZM17.7333 25.8369V24.403L20.0555 25.2524C20.2775 25.3336 20.5211 25.3336 20.7431 25.2524L23.0652 24.4031V25.8369L20.3993 26.9028L17.7333 25.8369Z" fill="#2D373D"/>
</svg>
