<svg width="32" height="33" viewBox="0 0 32 33" fill="none" xmlns="http://www.w3.org/2000/svg">
<path d="M20.0003 18.2533C20.7367 18.2533 21.3337 17.6564 21.3337 16.92C21.3337 16.1836 20.7367 15.5867 20.0003 15.5867C19.2639 15.5867 18.667 16.1836 18.667 16.92C18.667 17.6564 19.2639 18.2533 20.0003 18.2533Z" fill="#2D373D"/>
<path fill-rule="evenodd" clip-rule="evenodd" d="M6.66928 28.2533L6.66922 6.10355C6.66922 4.8551 7.57216 3.58608 8.98071 3.58608L23.0247 3.58594C24.4333 3.58594 25.3362 4.85496 25.3362 6.1034L25.3363 28.2533H28.3328C28.8851 28.2533 29.3328 28.7011 29.3328 29.2533C29.3328 29.8056 28.8851 30.2533 28.3328 30.2533H3.66699C3.11471 30.2533 2.66699 29.8056 2.66699 29.2533C2.66699 28.7011 3.11471 28.2533 3.66699 28.2533H6.66928ZM23.3363 28.2533L23.3362 6.1034C23.3362 5.91603 23.2704 5.77092 23.1955 5.68429C23.1224 5.5997 23.0592 5.58594 23.0247 5.58594L15.1179 5.58602L16.8948 9.13968C17.0678 9.48571 17.0257 9.9005 16.7867 10.2047L13.5115 14.3731L15.8948 19.1397C16.1418 19.6337 15.9415 20.2343 15.4475 20.4813C14.9536 20.7283 14.3529 20.5281 14.1059 20.0341L11.4392 14.7008C11.2662 14.3547 11.3083 13.9399 11.5473 13.6357L14.8225 9.46733L12.8819 5.58604L8.98071 5.58608C8.94621 5.58608 8.88304 5.59985 8.80994 5.68443C8.73506 5.77107 8.66922 5.91618 8.66922 6.10354L8.66928 28.2533H23.3363Z" fill="#2D373D"/>
</svg>
