<svg width="24" height="25" viewBox="0 0 24 25" fill="none" xmlns="http://www.w3.org/2000/svg">
<path d="M20.4746 4.28618C19.9496 3.38618 18.6746 3.08618 17.7746 3.68618L4.12461 12.2362C3.59961 12.5362 3.22461 13.2112 3.22461 13.8862C3.22461 15.0112 4.12461 15.8362 5.24961 15.9112H8.77461V18.9862C8.77461 20.0362 9.59961 20.9362 10.7246 20.9362C11.0996 20.9362 11.5496 20.7862 11.9246 20.6362L13.6496 19.4362L14.6246 20.7112C14.9246 21.0862 15.2996 21.3862 15.8246 21.4612C15.9746 21.4612 16.0496 21.4612 16.1996 21.4612C17.0996 21.4612 17.9246 20.7862 18.1496 19.8862L20.7746 5.71118C20.8496 5.18618 20.7746 4.73618 20.4746 4.28618ZM5.17461 14.3362C4.94961 14.3362 4.72461 14.1862 4.72461 13.8862C4.72461 13.7362 4.79961 13.5862 4.94961 13.5112L17.6246 5.56118L10.9496 14.3362H5.17461ZM11.0246 19.2862C10.7246 19.5112 10.2746 19.2862 10.2746 18.9112V15.9112H11.0246L12.7496 18.1612L11.0246 19.2862ZM16.5746 19.5112C16.5746 19.7362 16.2746 19.9612 16.0496 19.8862C15.8996 19.8862 15.8246 19.8112 15.7496 19.7362L14.3996 17.9362L12.2996 15.0862L19.0496 6.23618L16.5746 19.5112Z" fill="#2D373D"/>
</svg>
