<svg width="32" height="33" viewBox="0 0 32 33" fill="none" xmlns="http://www.w3.org/2000/svg">
<path d="M8.71528 3.58594H23.2834C23.5699 3.58591 23.9223 3.58587 24.2639 3.62616C24.6201 3.66817 25.036 3.76056 25.4271 3.99225C26.3086 4.51442 26.666 5.47797 26.666 6.71928V13.2526C26.666 13.8049 26.2183 14.2526 25.666 14.2526C25.1137 14.2526 24.666 13.8049 24.666 13.2526V6.71928C24.666 5.85417 24.4408 5.73108 24.4101 5.71425L24.4078 5.71297C24.3487 5.678 24.2387 5.63705 24.0296 5.61239C23.816 5.58719 23.5746 5.58594 23.2586 5.58594H8.74009C8.42409 5.58594 8.18267 5.58719 7.96906 5.61239C7.76001 5.63705 7.64998 5.678 7.59094 5.71297L7.58864 5.71425C7.55786 5.73108 7.33268 5.85416 7.33268 6.71928V14.2526L11.9994 14.2526C12.5516 14.2526 12.9994 14.7003 12.9994 15.2526C12.9994 15.8049 12.5516 16.2526 11.9994 16.2526H4.941C5.05517 16.6047 5.19756 16.964 5.36748 17.2866C5.78167 18.0731 6.13975 18.2526 6.33269 18.2526H11.9994C12.5516 18.2526 12.9994 18.7003 12.9994 19.2526C12.9994 19.8049 12.5516 20.2526 11.9994 20.2526H6.33269C4.92563 20.2526 4.06148 19.0988 3.5979 18.2186C3.09487 17.2635 2.80237 16.1534 2.67963 15.417C2.6313 15.1271 2.713 14.8305 2.903 14.6062C3.09301 14.3819 3.37207 14.2526 3.66602 14.2526L5.33268 14.2526V6.71928C5.33268 5.47797 5.69014 4.51442 6.57157 3.99225C6.96267 3.76056 7.37864 3.66817 7.73476 3.62616C8.07637 3.58587 8.42877 3.58591 8.71528 3.58594Z" fill="#2D373D"/>
<path fill-rule="evenodd" clip-rule="evenodd" d="M21.666 24.4661C23.1388 24.4661 24.3327 23.2722 24.3327 21.7995C24.3327 20.3267 23.1388 19.1328 21.666 19.1328C20.1933 19.1328 18.9993 20.3267 18.9993 21.7995C18.9993 23.2722 20.1933 24.4661 21.666 24.4661ZM22.666 21.7995C22.666 22.3518 22.2183 22.7995 21.666 22.7995C21.1137 22.7995 20.666 22.3518 20.666 21.7995C20.666 21.2472 21.1137 20.7995 21.666 20.7995C22.2183 20.7995 22.666 21.2472 22.666 21.7995Z" fill="#2D373D"/>
<path fill-rule="evenodd" clip-rule="evenodd" d="M24.0495 15.1679C23.402 12.7218 19.9301 12.7218 19.2826 15.1679L18.9487 16.4293C18.8826 16.6789 18.626 16.8271 18.3768 16.7595L17.1174 16.418C14.6753 15.7557 12.9393 18.7624 14.734 20.5462L15.6594 21.4661C15.8426 21.6481 15.8426 21.9444 15.6594 22.1265L14.734 23.0463C12.9394 24.8302 14.6753 27.8369 17.1174 27.1746L18.3768 26.8331C18.626 26.7655 18.8826 26.9136 18.9487 27.1632L19.2826 28.4246C19.9301 30.8708 23.402 30.8708 24.0495 28.4246L24.3834 27.1632C24.4495 26.9136 24.7061 26.7655 24.9553 26.8331L26.2147 27.1746C28.6568 27.8369 30.3928 24.8302 28.5981 23.0463L27.6727 22.1265C27.4895 21.9444 27.4895 21.6481 27.6727 21.4661L28.5981 20.5462C30.3928 18.7624 28.6568 15.7557 26.2147 16.418L24.9553 16.7595C24.7061 16.8271 24.4495 16.6789 24.3834 16.4293L24.0495 15.1679ZM21.216 15.6797C21.3383 15.2179 21.9938 15.2179 22.1161 15.6797L22.45 16.9411C22.8 18.2631 24.1589 19.0477 25.4788 18.6898L26.7381 18.3483C27.1993 18.2232 27.527 18.7909 27.1882 19.1278L26.2627 20.0476C25.2928 21.0117 25.2928 22.5809 26.2627 23.5449L27.1882 24.4648C27.527 24.8016 27.1993 25.3693 26.7381 25.2443L25.4788 24.9028C24.1589 24.5449 22.8 25.3295 22.45 26.6514L22.1161 27.9128C21.9938 28.3747 21.3383 28.3747 21.216 27.9128L20.8821 26.6514C20.5321 25.3295 19.1732 24.5449 17.8533 24.9028L16.594 25.2443C16.1328 25.3693 15.8051 24.8016 16.1439 24.4648L17.0694 23.5449C18.0393 22.5809 18.0393 21.0117 17.0694 20.0476L16.1439 19.1278C15.8051 18.7909 16.1328 18.2232 16.594 18.3483L17.8533 18.6898C19.1732 19.0477 20.5321 18.2631 20.8821 16.9411L21.216 15.6797Z" fill="#2D373D"/>
</svg>
