<svg width="24" height="25" viewBox="0 0 24 25" fill="none" xmlns="http://www.w3.org/2000/svg">
<path d="M11.1255 10.9118C11.374 10.5804 11.3069 10.1103 10.9756 9.86177C10.6442 9.6132 10.1741 9.68031 9.92557 10.0117L8.32969 12.139L7.5301 11.3401C7.23708 11.0473 6.76221 11.0475 6.46944 11.3405C6.17667 11.6336 6.17688 12.1084 6.4699 12.4012L7.39296 13.3235C7.52948 13.4599 7.69371 13.5655 7.87453 13.633C8.05543 13.7005 8.24873 13.7284 8.44135 13.7148C8.63397 13.7011 8.82141 13.6463 8.99099 13.5539C9.16058 13.4616 9.30858 13.3336 9.42454 13.1792L11.1255 10.9118Z" fill="#2D373D"/>
<path d="M11.1255 16.297C11.374 15.9657 11.3069 15.4955 10.9756 15.247C10.6442 14.9984 10.1741 15.0655 9.92557 15.3969L8.32974 17.5241L7.53033 16.7247C7.23744 16.4318 6.76256 16.4318 6.46967 16.7247C6.17678 17.0176 6.17678 17.4925 6.46967 17.7854L7.39278 18.7085C7.52934 18.845 7.69362 18.9506 7.87453 19.0182C8.05543 19.0857 8.24873 19.1136 8.44135 19.1C8.63397 19.0863 8.82141 19.0315 8.99099 18.9391C9.16058 18.8468 9.30858 18.7188 9.42454 18.5644L11.1255 16.297Z" fill="#2D373D"/>
<path d="M12.2334 12.9684C12.2334 12.5542 12.5692 12.2184 12.9834 12.2184H16.5735C16.9878 12.2184 17.3235 12.5542 17.3235 12.9684C17.3235 13.3826 16.9878 13.7184 16.5735 13.7184H12.9834C12.5692 13.7184 12.2334 13.3826 12.2334 12.9684Z" fill="#2D373D"/>
<path d="M12.9834 17.0053C12.5692 17.0053 12.2334 17.3411 12.2334 17.7553C12.2334 18.1695 12.5692 18.5053 12.9834 18.5053H16.5735C16.9878 18.5053 17.3235 18.1695 17.3235 17.7553C17.3235 17.3411 16.9878 17.0053 16.5735 17.0053H12.9834Z" fill="#2D373D"/>
<path fill-rule="evenodd" clip-rule="evenodd" d="M18.0749 3.0853C17.7186 2.7215 17.2333 2.51154 16.7207 2.51172H4.97123C4.4502 2.51172 3.9579 2.72878 3.60051 3.10302C3.24424 3.47609 3.0498 3.97501 3.0498 4.48839V20.4351C3.0498 20.9484 3.24424 21.4473 3.60051 21.8204C3.9579 22.1947 4.4502 22.4117 4.97123 22.4117H19.0284C19.5494 22.4117 20.0417 22.1947 20.3991 21.8204C20.7554 21.4473 20.9498 20.9484 20.9498 20.4351V6.84597C20.9498 6.58692 20.9003 6.32972 20.8034 6.08922C20.7065 5.84867 20.5637 5.6286 20.3818 5.44287L18.0749 3.0853ZM16.75 4.01284C16.8394 4.01985 16.9296 4.05973 17.003 4.13462L19.3103 6.49262C19.3522 6.53543 19.3874 6.58852 19.412 6.64965C19.4201 6.66977 19.427 6.69051 19.4325 6.71172H16.75V4.01284ZM15.25 4.01172L4.97123 4.01172C4.87091 4.01172 4.76729 4.05313 4.68531 4.13898C4.60221 4.226 4.5498 4.3511 4.5498 4.48839V20.4351C4.5498 20.5723 4.60221 20.6974 4.68531 20.7845C4.76729 20.8703 4.87091 20.9117 4.97123 20.9117H19.0284C19.1287 20.9117 19.2323 20.8703 19.3143 20.7845C19.3974 20.6974 19.4498 20.5723 19.4498 20.4351V8.21172H16C15.5858 8.21172 15.25 7.87593 15.25 7.46172V4.01172Z" fill="#2D373D"/>
</svg>
