<svg width="24" height="25" viewBox="0 0 24 25" fill="none" xmlns="http://www.w3.org/2000/svg">
<path fill-rule="evenodd" clip-rule="evenodd" d="M4.95 8.71191C4.70147 8.71191 4.5 8.91339 4.5 9.16191V19.5119C4.5 19.7604 4.70147 19.9619 4.95 19.9619H15.3C15.5485 19.9619 15.75 19.7604 15.75 19.5119V14.7119C15.75 14.2977 16.0858 13.9619 16.5 13.9619C16.9142 13.9619 17.25 14.2977 17.25 14.7119V19.5119C17.25 20.5889 16.377 21.4619 15.3 21.4619H4.95C3.87304 21.4619 3 20.5889 3 19.5119V9.16191C3 8.08496 3.87304 7.21191 4.95 7.21191H9.75C10.1642 7.21191 10.5 7.5477 10.5 7.96191C10.5 8.37613 10.1642 8.71191 9.75 8.71191H4.95Z" fill="#2D373D"/>
<path d="M20.9431 3.92483C20.9068 3.83702 20.853 3.75471 20.7819 3.68318L20.7803 3.68158L20.7787 3.68C20.6431 3.54521 20.4563 3.46191 20.25 3.46191H16.25C15.8358 3.46191 15.5 3.7977 15.5 4.21191C15.5 4.62613 15.8358 4.96191 16.25 4.96191H18.4393L10.4697 12.9316C10.1768 13.2245 10.1768 13.6994 10.4697 13.9922C10.7626 14.2851 11.2374 14.2851 11.5303 13.9922L19.5 6.02257V8.21191C19.5 8.62613 19.8358 8.96191 20.25 8.96191C20.6642 8.96191 21 8.62613 21 8.21191V4.21191C21 4.11022 20.9798 4.01326 20.9431 3.92483Z" fill="#2D373D"/>
</svg>
