<svg width="24" height="25" viewBox="0 0 24 25" fill="none" xmlns="http://www.w3.org/2000/svg">
<path d="M20.25 10.4204C19.694 9.67738 18.8997 9.14785 18 8.9204L17.5575 8.8229C16.6725 8.6504 16.6725 8.5604 16.6725 8.3429V5.8379C16.6745 5.52256 16.6131 5.21004 16.492 4.91887C16.3709 4.62771 16.1925 4.36383 15.9675 4.1429C15.5111 3.70647 14.904 3.46289 14.2725 3.46289C13.641 3.46289 13.0339 3.70647 12.5775 4.1429C12.3475 4.37102 12.1663 4.64362 12.0451 4.94407C11.9239 5.24452 11.8652 5.56651 11.8725 5.8904C11.8725 6.1904 11.985 8.8904 10.47 10.4729C9.75772 11.1896 8.80829 11.6217 7.8 11.6879V10.7804C7.8 10.5815 7.72098 10.3907 7.58033 10.2501C7.43968 10.1094 7.24891 10.0304 7.05 10.0304H3.75C3.55109 10.0304 3.36032 10.1094 3.21967 10.2501C3.07902 10.3907 3 10.5815 3 10.7804V20.6879C3 20.8868 3.07902 21.0776 3.21967 21.2182C3.36032 21.3589 3.55109 21.4379 3.75 21.4379H7.05C7.24891 21.4379 7.43968 21.3589 7.58033 21.2182C7.72098 21.0776 7.8 20.8868 7.8 20.6879V20.4479C7.86137 20.4673 7.92402 20.4823 7.9875 20.4929L9.3075 20.8754C10.1879 21.215 11.1174 21.41 12.06 21.4529H15.675C16.9564 21.4529 18.1917 20.9747 19.1392 20.1119C20.0866 19.2491 20.6779 18.0637 20.7975 16.7879L21.0225 13.0379C21.0737 12.1025 20.8009 11.1781 20.25 10.4204V10.4204ZM6.3 19.9379H4.5V11.5304H6.3V19.9379ZM19.305 16.6679C19.2121 17.5656 18.7895 18.397 18.119 19.0011C17.4484 19.6052 16.5775 19.939 15.675 19.9379H12.06C11.2675 19.8888 10.4877 19.7141 9.75 19.4204L8.4 19.0379C8.20367 18.9779 8.00311 18.9328 7.8 18.9029V13.1879C9.19483 13.1037 10.508 12.5019 11.4825 11.5004C13.425 9.4979 13.365 6.4379 13.335 5.8379C13.335 5.71971 13.3583 5.60268 13.4035 5.49348C13.4487 5.38429 13.515 5.28507 13.5986 5.2015C13.6822 5.11793 13.7814 5.05164 13.8906 5.00641C13.9998 4.96118 14.1168 4.9379 14.235 4.9379C14.3532 4.9379 14.4702 4.96118 14.5794 5.00641C14.6886 5.05164 14.7878 5.11793 14.8714 5.2015C14.955 5.28507 15.0213 5.38429 15.0665 5.49348C15.1117 5.60268 15.135 5.71971 15.135 5.8379V8.3279C15.135 9.8729 16.5 10.1354 17.2275 10.2779L17.6025 10.3604C18.1687 10.5067 18.6669 10.8442 19.0127 11.3157C19.3585 11.7873 19.5307 12.3639 19.5 12.9479L19.305 16.6679Z" fill="#2D373D"/>
</svg>
