<svg width="32" height="33" viewBox="0 0 32 33" fill="none" xmlns="http://www.w3.org/2000/svg">
<path fill-rule="evenodd" clip-rule="evenodd" d="M17.3938 4.79492H6.82505C6.16425 4.79492 5.53051 5.05742 5.06326 5.52468C4.596 5.99194 4.3335 6.62568 4.3335 7.28648V26.6767C4.3335 27.3375 4.596 27.9712 5.06326 28.4385C5.53051 28.9058 6.16425 29.1683 6.82505 29.1683H9.80816C10.3604 29.1683 10.8082 28.7205 10.8082 28.1683C10.8082 27.616 10.3604 27.1683 9.80816 27.1683H6.82505C6.69468 27.1683 6.56965 27.1165 6.47747 27.0243C6.38529 26.9321 6.3335 26.8071 6.3335 26.6767V7.28648C6.3335 7.15611 6.38528 7.03108 6.47747 6.9389C6.56965 6.84671 6.69468 6.79492 6.82505 6.79492H16.266V11.7611C16.266 12.4219 16.5285 13.0557 16.9957 13.5229C17.463 13.9902 18.0967 14.2527 18.7575 14.2527H23.7237V17.7274C23.7237 18.2797 24.1714 18.7274 24.7237 18.7274C25.276 18.7274 25.7237 18.2797 25.7237 17.7274V13.2571L25.7237 13.2527L25.7237 13.2483V13.1242C25.7236 12.4639 25.4611 11.8304 24.9944 11.3633L19.1561 5.52412C18.9246 5.29279 18.6499 5.10933 18.3475 4.98421C18.0452 4.85915 17.7209 4.79483 17.3938 4.79492ZM18.266 7.46246L23.0554 12.2527H18.7575C18.6271 12.2527 18.5021 12.2009 18.4099 12.1087C18.3177 12.0165 18.266 11.8915 18.266 11.7611V7.46246Z" fill="#2D373D"/>
<path d="M15.8209 19.4775C16.3732 19.4775 16.8209 19.9252 16.8209 20.4775V26.0708C16.8209 26.7069 16.5682 27.3169 16.1185 27.7667C15.6687 28.2164 15.0587 28.4691 14.4226 28.4691H13.0243C12.472 28.4691 12.0243 28.0214 12.0243 27.4691C12.0243 26.9168 12.472 26.4691 13.0243 26.4691H14.4226C14.5282 26.4691 14.6295 26.4272 14.7042 26.3525C14.779 26.2778 14.8209 26.1764 14.8209 26.0708V20.4775C14.8209 19.9252 15.2686 19.4775 15.8209 19.4775Z" fill="#2D373D"/>
<path fill-rule="evenodd" clip-rule="evenodd" d="M17.6177 20.4775C17.6177 19.9252 18.0654 19.4775 18.6177 19.4775H19.3168C20.1384 19.4775 20.9262 19.8038 21.5071 20.3847C22.088 20.9656 22.4143 21.7535 22.4143 22.575C22.4143 23.3965 22.088 24.1843 21.5071 24.7652C20.9976 25.2748 20.3287 25.5885 19.6177 25.6578V27.4691C19.6177 28.0214 19.17 28.4691 18.6177 28.4691C18.0654 28.4691 17.6177 28.0214 17.6177 27.4691V20.4775ZM19.6177 23.6304V21.5195C19.7957 21.5702 19.9597 21.6657 20.0929 21.7989C20.2987 22.0047 20.4143 22.2839 20.4143 22.575C20.4143 22.866 20.2987 23.1452 20.0929 23.351C19.9597 23.4842 19.7957 23.5797 19.6177 23.6304Z" fill="#2D373D"/>
<path d="M25.6093 21.4775C25.5036 21.4775 25.4023 21.5194 25.3276 21.5941C25.2529 21.6688 25.2109 21.7701 25.2109 21.8758V26.0708C25.2109 26.1764 25.2529 26.2778 25.3276 26.3525C25.4023 26.4272 25.5036 26.4691 25.6093 26.4691C25.7149 26.4691 25.8162 26.4272 25.8909 26.3525C25.9656 26.2778 26.0076 26.1764 26.0076 26.0708V25.6264C25.6023 25.4987 25.3084 25.1199 25.3084 24.6725C25.3084 24.1202 25.7562 23.6725 26.3084 23.6725H27.0076C27.5599 23.6725 28.0076 24.1202 28.0076 24.6725V26.0708C28.0076 26.7069 27.7549 27.3169 27.3051 27.7667C26.8554 28.2164 26.2453 28.4691 25.6093 28.4691C24.9732 28.4691 24.3632 28.2164 23.9134 27.7667C23.4636 27.3169 23.2109 26.7069 23.2109 26.0708V21.8758C23.2109 21.2397 23.4636 20.6297 23.9134 20.1799C24.3632 19.7301 24.9732 19.4775 25.6093 19.4775H27.0076C27.5599 19.4775 28.0076 19.9252 28.0076 20.4775C28.0076 21.0297 27.5599 21.4775 27.0076 21.4775H25.6093Z" fill="#2D373D"/>
</svg>
