<svg width="32" height="32" viewBox="0 0 32 32" fill="none" xmlns="http://www.w3.org/2000/svg">
<path d="M29.1 22.7001L25.4 19.0001C26.3 17.8001 26.8 16.3001 26.8 14.7001C26.8 10.8001 23.6 7.6001 19.7001 7.6001C15.8001 7.6001 12.6 10.8001 12.6 14.7001C12.6 18.6001 15.8001 21.8001 19.7001 21.8001C21.3001 21.8001 22.8 21.3001 24 20.4001L27.7001 24.1001C27.9001 24.3001 28.1 24.4001 28.4 24.4001C28.7 24.4001 28.9 24.3001 29.1 24.1001C29.3 23.9001 29.4 23.7001 29.4 23.4001C29.4 23.2001 29.3 22.9001 29.1 22.7001ZM14.6 14.7001C14.6 11.9001 16.9001 9.6001 19.7001 9.6001C22.6 9.6001 24.8 11.9001 24.8 14.7001C24.8 17.5001 22.5001 19.8001 19.7001 19.8001C16.9001 19.8001 14.6 17.5001 14.6 14.7001Z" fill="#2D373D"/>
<path d="M3.60005 9.6001H12C12.5 9.6001 13 9.1001 13 8.6001C13 8.0001 12.6 7.6001 12 7.6001H3.60005C3.00005 7.6001 2.60005 8.0001 2.60005 8.6001C2.60005 9.2001 3.00005 9.6001 3.60005 9.6001Z" fill="#2D373D"/>
<path d="M3.60005 15.7001H10.1C10.6 15.7001 11.1 15.3001 11.1 14.7001C11.1 14.1001 10.7 13.7001 10.1 13.7001H3.60005C3.00005 13.7001 2.60005 14.1001 2.60005 14.7001C2.60005 15.3001 3.00005 15.7001 3.60005 15.7001Z" fill="#2D373D"/>
<path d="M11.9 19.8001H3.5C2.9 19.8001 2.5 20.2001 2.5 20.8001C2.5 21.4001 2.9 21.8001 3.5 21.8001H11.9C12.5 21.8001 12.9 21.4001 12.9 20.8001C12.9 20.2001 12.5 19.8001 11.9 19.8001Z" fill="#2D373D"/>
</svg>
