<svg width="24" height="25" viewBox="0 0 24 25" fill="none" xmlns="http://www.w3.org/2000/svg">
<path d="M16.75 6.17188C16.75 6.58609 17.0858 6.92188 17.5 6.92188C17.9142 6.92188 18.25 6.58609 18.25 6.17188L18.25 3.67187C18.25 3.25766 17.9142 2.92188 17.5 2.92188H15C14.5858 2.92188 14.25 3.25766 14.25 3.67188C14.25 4.08609 14.5858 4.42188 15 4.42188L16.75 4.42188L16.75 6.17188Z" fill="#2D373D"/>
<path d="M10.7121 4.85953C10.6945 4.85883 10.675 4.86265 10.6518 4.87835C10.4343 5.02547 10.16 5.21426 9.84481 5.43453L11.4209 8.58663C11.544 8.83282 11.5223 9.12665 11.3645 9.35214L9.83091 11.5429L10.2116 12.6849C10.3425 13.0778 10.1302 13.5026 9.73721 13.6336C9.34426 13.7645 8.91952 13.5522 8.78853 13.1592L8.28853 11.6592C8.21345 11.434 8.24946 11.1865 8.38562 10.9919L9.87945 8.8579L8.60664 6.31228C6.78927 7.61747 4.47469 9.35061 3.25871 10.4731C2.95435 10.754 2.47985 10.735 2.1989 10.4307C1.91795 10.1263 1.93693 9.6518 2.24129 9.37085C4.11246 7.64362 8.3278 4.63917 9.81155 3.6358C10.4058 3.23395 11.1509 3.28513 11.6944 3.69275L19.2 9.32195C19.5314 9.57048 19.5985 10.0406 19.35 10.372C19.1015 10.7033 18.6314 10.7705 18.3 10.522L10.7944 4.89275C10.7604 4.86723 10.7312 4.86029 10.7121 4.85953Z" fill="#2D373D"/>
<path d="M5 10.1719C5.41421 10.1719 5.75 10.5077 5.75 10.9219V17.9219C5.75 18.0599 5.86193 18.1719 6 18.1719H9C9.41421 18.1719 9.75 18.5077 9.75 18.9219C9.75 19.3361 9.41421 19.6719 9 19.6719H6C5.0335 19.6719 4.25 18.8884 4.25 17.9219V10.9219C4.25 10.5077 4.58579 10.1719 5 10.1719Z" fill="#2D373D"/>
<path fill-rule="evenodd" clip-rule="evenodd" d="M20.9462 13.8629C20.9462 14.5842 20.6066 15.2262 20.0787 15.6378C20.4306 15.7779 20.7228 16.0086 20.9458 16.2989C21.3093 16.7721 21.4695 17.3742 21.4694 17.9519L21.4694 21.0934L21.9297 22.0193C22.0834 22.3284 21.9574 22.7036 21.6483 22.8572C21.3392 23.0109 20.9641 22.8849 20.8104 22.5758L20.2847 21.5185C20.2417 21.432 20.2194 21.3368 20.2194 21.2403V17.9517C20.2194 17.5891 20.1168 17.2716 19.9545 17.0603C19.8057 16.8666 19.592 16.7376 19.2673 16.7376L17.0276 16.7376C16.5492 16.7372 16.3807 16.7371 16.2236 16.7871C16.0877 16.8303 15.9151 16.9315 15.5035 17.3431C15.0728 17.7737 14.7868 18.0265 14.5998 18.1761C14.506 18.2512 14.4338 18.303 14.378 18.3393C14.3499 18.3576 14.325 18.3726 14.3026 18.385C14.2913 18.3912 14.2805 18.3969 14.2701 18.4021L14.2546 18.4097L14.247 18.4132L14.2432 18.4149L14.2413 18.4158L14.2403 18.4162L14.2394 18.4166C14.0203 18.5129 13.7654 18.4757 13.583 18.3207L12.5988 17.484C12.5882 17.475 12.5779 17.4656 12.5679 17.4559L12.5593 17.4482C12.5491 17.4393 12.5316 17.4246 12.5083 17.4073C12.4591 17.3708 12.3971 17.3324 12.3331 17.3071C12.2692 17.2818 12.2255 17.2782 12.1989 17.2813C12.1827 17.2832 12.1424 17.2897 12.0766 17.3527C11.9467 17.477 11.9302 17.5518 11.9273 17.5686C11.924 17.5879 11.9248 17.6159 11.9473 17.6638C11.972 17.7161 12.013 17.77 12.0571 17.8158C12.0776 17.837 12.0952 17.8529 12.1059 17.8621L12.1146 17.8694C12.1251 17.8773 12.1353 17.8855 12.1452 17.894L12.1485 17.8968L12.1606 17.9072L12.2097 17.9486C12.2528 17.9848 12.3158 18.037 12.3935 18.0999C12.5495 18.2261 12.7622 18.3931 12.992 18.5588C13.2241 18.7263 13.4617 18.8838 13.6692 18.9967C13.8554 19.098 13.9543 19.1277 13.9816 19.1359C13.9895 19.1382 13.9914 19.1388 13.9878 19.1388C14.0856 19.1388 14.2496 19.0932 14.4926 18.9492C14.7273 18.8102 14.9761 18.6161 15.2354 18.3988C15.3134 18.3335 15.3955 18.2633 15.4785 18.1923C15.6514 18.0444 15.8285 17.8929 15.9814 17.7746C16.099 17.6837 16.2281 17.5914 16.3591 17.5198C16.4775 17.4551 16.6677 17.3671 16.8915 17.3671C17.2366 17.3671 17.5165 17.6469 17.5165 17.9921V21.2402C17.5165 21.3231 17.5 21.4051 17.468 21.4816L17.025 22.5397C16.8918 22.8581 16.5256 23.0082 16.2072 22.8749C15.8888 22.7416 15.7387 22.3754 15.872 22.057L16.2665 21.1147V19.1635C16.1952 19.2244 16.1195 19.2889 16.0381 19.3571C15.7687 19.5828 15.4559 19.8315 15.1297 20.0247C14.8118 20.213 14.4157 20.3888 13.9878 20.3888C13.6566 20.3888 13.3128 20.2259 13.0717 20.0946C12.7982 19.9458 12.5125 19.7542 12.2607 19.5726C12.0066 19.3893 11.7748 19.2072 11.6072 19.0716C11.5232 19.0036 11.4546 18.9467 11.4067 18.9066C11.3827 18.8865 11.3638 18.8705 11.3507 18.8594L11.3424 18.8523L11.3392 18.8498C11.327 18.8401 11.3113 18.8274 11.2931 18.8118C11.257 18.7808 11.2093 18.7375 11.1568 18.6829C11.0547 18.5769 10.918 18.412 10.8164 18.1963C10.7128 17.9762 10.6388 17.6868 10.6953 17.3572C10.7523 17.0251 10.9303 16.7195 11.2124 16.4495C11.4652 16.2077 11.7541 16.0752 12.0524 16.0399C12.3403 16.0059 12.5966 16.0671 12.7928 16.1447C12.9889 16.2222 13.1472 16.3248 13.2533 16.4036C13.3076 16.4439 13.3515 16.4804 13.3833 16.5083C13.3988 16.5218 13.4116 16.5336 13.4216 16.5429L14.0073 17.0408C14.1526 16.9126 14.3522 16.7265 14.6196 16.4592C15.0491 16.0297 15.4022 15.7366 15.8446 15.5959C16.2011 15.4825 16.5876 15.4847 16.9915 15.487C17.0408 15.4872 17.0902 15.4875 17.1399 15.4876C16.7124 15.0781 16.4462 14.5016 16.4462 13.8629C16.4462 12.6205 17.4535 11.6133 18.6962 11.6133C19.9388 11.6133 20.9462 12.6205 20.9462 13.8629ZM19.7573 13.8629C19.7573 14.4485 19.2824 14.9236 18.6962 14.9236C18.1099 14.9236 17.635 14.4485 17.635 13.8629C17.635 13.2772 18.1099 12.8021 18.6962 12.8021C19.2824 12.8021 19.7573 13.2772 19.7573 13.8629Z" fill="#2D373D"/>
<path d="M14.1087 12.5847C14.292 11.877 14.5392 11.6194 14.6748 11.5256C14.8068 11.4342 14.9207 11.4373 14.9757 11.4442C15.1088 11.4608 15.2429 11.5419 15.2982 11.6492C15.338 11.7266 15.4262 11.996 15.0744 12.6036C14.8493 12.9925 14.4839 13.7242 14.1835 14.339C14.0313 14.6506 13.8925 14.939 13.7918 15.1494C13.7414 15.2547 13.7005 15.3405 13.6722 15.4001L13.6279 15.4934C13.4803 15.8055 13.6137 16.1781 13.9257 16.3256C14.2378 16.4732 14.6105 16.3395 14.7581 16.0275L14.8011 15.9368C14.829 15.8781 14.8694 15.7932 14.9193 15.6891C15.019 15.4807 15.1563 15.1955 15.3066 14.8877C15.6114 14.2638 15.9572 13.5736 16.1562 13.23C16.628 12.415 16.7163 11.6731 16.4096 11.0772C16.1184 10.5114 15.5595 10.2573 15.1303 10.2038C14.8796 10.1725 14.426 10.1776 13.9635 10.4977C13.5044 10.8153 13.1298 11.3788 12.8986 12.2712C12.8082 12.6202 12.6132 13.3241 12.439 13.9469C12.3523 14.2569 12.2713 14.5448 12.212 14.7552L12.1152 15.0982C12.0211 15.4303 12.2141 15.7758 12.5463 15.8698C12.8784 15.9639 13.224 15.7705 13.318 15.4383L13.4151 15.0943C13.4746 14.8834 13.5558 14.5946 13.6428 14.2836C13.8161 13.664 14.0146 12.9477 14.1087 12.5847Z" fill="#2D373D"/>
</svg>
