<svg width="64" height="64" viewBox="0 0 64 64" fill="none" xmlns="http://www.w3.org/2000/svg">
<path d="M55.2002 27.1999C53.6002 24.9999 51.8002 22.9999 50.2002 20.7999L51.0002 19.9999C53.0002 17.9999 53.0002 14.7999 51.0002 12.7999C50.0002 11.9999 48.8002 11.3999 47.4002 11.3999C46.0002 11.3999 44.8002 11.7999 43.8002 12.7999L43.0002 13.5999C41.0002 11.7999 39.0002 9.9999 36.8002 8.5999C34.6002 7.1999 32.0002 7.3999 30.2002 9.1999L23.0002 16.3999C21.2002 18.1999 21.0002 20.9999 22.4002 22.9999C24.0002 25.1999 25.6002 27.1999 27.4002 29.1999L9.2002 47.3999C7.2002 49.3999 7.2002 52.5999 9.2002 54.5999C10.2002 55.3999 11.4002 55.9999 12.8002 55.9999C14.2002 55.9999 15.4002 55.5999 16.2002 54.3999L34.4002 36.1999C36.4002 37.9999 38.6002 39.7999 40.8002 41.3999C41.8002 41.9999 42.8002 42.3999 43.8002 42.3999C45.2002 42.3999 46.4002 41.9999 47.4002 40.9999L54.6002 33.7999C56.4002 31.9999 56.6002 29.1999 55.2002 27.1999ZM46.6002 15.7999C46.8002 15.5999 47.2002 15.3999 47.4002 15.3999C47.8002 15.3999 48.0002 15.5999 48.2002 15.7999C48.6002 16.1999 48.6002 16.7999 48.2002 17.1999L47.4002 17.9999C47.0002 17.3999 46.4002 16.9999 46.0002 16.3999L46.6002 15.7999ZM13.4002 51.5999C13.0002 51.9999 12.4002 51.9999 12.0002 51.5999C11.6002 51.1999 11.6002 50.5999 12.0002 50.1999L30.0002 32.1999C30.4002 32.5999 31.0002 33.1999 31.4002 33.5999L13.4002 51.5999ZM51.8002 30.7999L44.6002 37.9999C44.2002 38.3999 43.6002 38.5999 43.2002 38.1999C36.4002 33.1999 30.4002 27.3999 25.6002 20.5999C25.4002 20.1999 25.4002 19.5999 25.8002 19.3999L33.0002 12.1999C33.2002 11.9999 33.6002 11.7999 33.8002 11.7999C34.0002 11.7999 34.2002 11.7999 34.4002 11.7999C36.8002 13.5999 39.0002 15.3999 41.2002 17.3999C41.2002 17.5999 41.4002 17.7999 41.6002 17.9999C41.8002 18.1999 42.0002 18.3999 42.4002 18.3999C43.6002 19.5999 44.8002 20.5999 45.8002 21.7999C45.8002 21.7999 45.8002 21.9999 46.0002 21.9999C46.0002 21.9999 46.2002 21.9999 46.2002 22.1999C48.2002 24.3999 50.2002 26.7999 52.0002 29.1999C52.2002 29.7999 52.2002 30.3999 51.8002 30.7999Z" fill="#2D373D"/>
</svg>
