<svg width="64" height="65" viewBox="0 0 64 65" fill="none" xmlns="http://www.w3.org/2000/svg">
<path fill-rule="evenodd" clip-rule="evenodd" d="M18.8752 9.27046C19.4224 8.89803 20.1184 8.82045 20.7342 9.06326L43.6914 18.1155C43.7199 18.1268 43.7481 18.1386 43.776 18.1512C44.6454 18.541 45.3809 19.1758 45.8958 19.9757C46.4105 20.7754 46.6834 21.7069 46.6834 22.6572C46.6834 23.6075 46.4105 24.5389 45.8958 25.3386C45.3809 26.1385 44.6454 26.7734 43.776 27.1632C43.7481 27.1757 43.7199 27.1876 43.6914 27.1988L22.0005 35.7517V54.9238C22.0005 56.0284 21.1051 56.9238 20.0005 56.9238C18.896 56.9238 18.0005 56.0284 18.0005 54.9238V34.4371C17.9998 34.4064 17.9998 34.3756 18.0005 34.345V10.9238C18.0005 10.2619 18.328 9.64289 18.8752 9.27046ZM22.0005 31.452L42.1691 23.4993C42.3145 23.4276 42.4407 23.316 42.5323 23.1737C42.6302 23.0216 42.6834 22.8421 42.6834 22.6572C42.6834 22.4722 42.6302 22.2927 42.5323 22.1406C42.4407 21.9984 42.3145 21.8867 42.1691 21.815L22.0005 13.8623V31.452Z" fill="#2D373D"/>
</svg>
