<svg width="24" height="25" viewBox="0 0 24 25" fill="none" xmlns="http://www.w3.org/2000/svg">
<path d="M16.6051 6.12945C16.7103 6.1804 16.8258 6.20608 16.9426 6.20445C17.0824 6.20543 17.2197 6.16732 17.3389 6.09443C17.4582 6.02155 17.5547 5.91678 17.6176 5.79195L18.2251 4.56195C18.3141 4.38483 18.3293 4.17969 18.2675 3.99137C18.2056 3.80305 18.0718 3.64687 17.8951 3.55695C17.8048 3.51299 17.7065 3.48763 17.6062 3.48238C17.5059 3.47712 17.4055 3.49207 17.3111 3.52635C17.2166 3.56063 17.1301 3.61353 17.0565 3.68192C16.9829 3.7503 16.9237 3.83278 16.8826 3.92445L16.2751 5.12445C16.1862 5.30158 16.171 5.50672 16.2328 5.69504C16.2946 5.88336 16.4285 6.03954 16.6051 6.12945Z" fill="#2D373D"/>
<path d="M13.8751 4.98195C14.074 4.98195 14.2648 4.90294 14.4055 4.76228C14.5461 4.62163 14.6251 4.43087 14.6251 4.23195V3.00195C14.6251 2.80304 14.5461 2.61228 14.4055 2.47162C14.2648 2.33097 14.074 2.25195 13.8751 2.25195C13.6762 2.25195 13.4855 2.33097 13.3448 2.47162C13.2042 2.61228 13.1251 2.80304 13.1251 3.00195V4.23195C13.1251 4.43087 13.2042 4.62163 13.3448 4.76228C13.4855 4.90294 13.6762 4.98195 13.8751 4.98195Z" fill="#2D373D"/>
<path d="M16.9426 13.2995H15.8551V12.1745C15.8551 11.9755 15.7761 11.7848 15.6355 11.6441C15.4948 11.5035 15.304 11.4245 15.1051 11.4245C14.9062 11.4245 14.7155 11.5035 14.5748 11.6441C14.4342 11.7848 14.3551 11.9755 14.3551 12.1745V13.2995H13.2601C13.0612 13.2995 12.8705 13.3785 12.7298 13.5191C12.5892 13.6598 12.5101 13.8505 12.5101 14.0495C12.5101 14.2484 12.5892 14.4391 12.7298 14.5798C12.8705 14.7204 13.0612 14.7995 13.2601 14.7995H14.3551V15.9245C14.3551 16.1234 14.4342 16.3141 14.5748 16.4548C14.7155 16.5954 14.9062 16.6745 15.1051 16.6745C15.304 16.6745 15.4948 16.5954 15.6355 16.4548C15.7761 16.3141 15.8551 16.1234 15.8551 15.9245V14.7995H16.9426C17.1415 14.7995 17.3323 14.7204 17.473 14.5798C17.6136 14.4391 17.6926 14.2484 17.6926 14.0495C17.6926 13.8505 17.6136 13.6598 17.473 13.5191C17.3323 13.3785 17.1415 13.2995 16.9426 13.2995Z" fill="#2D373D"/>
<path d="M10.1326 5.79195C10.1955 5.91678 10.2921 6.02155 10.4113 6.09443C10.5306 6.16732 10.6679 6.20543 10.8076 6.20445C10.9219 6.20492 11.0348 6.17927 11.1376 6.12945C11.3156 6.04087 11.4511 5.88525 11.5144 5.6968C11.5777 5.50836 11.5636 5.3025 11.4751 5.12445L10.8601 3.92445C10.8228 3.82655 10.7654 3.73754 10.6916 3.66318C10.6178 3.58882 10.5292 3.53075 10.4316 3.49271C10.334 3.45467 10.2294 3.43751 10.1248 3.44234C10.0201 3.44716 9.91761 3.47386 9.8239 3.52072C9.73018 3.56758 9.64732 3.63355 9.58066 3.71439C9.51401 3.79523 9.46502 3.88914 9.43688 3.99006C9.40873 4.09099 9.40204 4.19669 9.41724 4.30036C9.43244 4.40403 9.4692 4.50336 9.52514 4.59195L10.1326 5.79195Z" fill="#2D373D"/>
<path d="M21.4126 8.97195C21.0359 8.6112 20.5316 8.41434 20.0101 8.42445H16.4626C16.4262 7.7625 16.1379 7.13959 15.6567 6.68353C15.1755 6.22748 14.5381 5.97287 13.8751 5.97195C13.1904 5.97221 12.5331 6.24157 12.0451 6.72195C11.5826 7.17206 11.3068 7.77998 11.2726 8.42445H10.1926C9.933 8.42496 9.67603 8.47693 9.43659 8.57734C9.19715 8.67775 8.97998 8.82462 8.79764 9.00945C8.60862 9.19124 8.46035 9.41109 8.36264 9.65445H6.24014C5.79028 9.65577 5.35428 9.81024 5.00393 10.0924C4.65358 10.3746 4.40976 10.7677 4.31264 11.207L3.99014 13.022L2.96264 13.6745C2.69092 13.8556 2.46802 14.1009 2.31367 14.3887C2.15931 14.6765 2.07824 14.9979 2.07764 15.3245V18.9695C2.07915 19.4923 2.28664 19.9935 2.65514 20.3645C2.83899 20.5488 3.05765 20.6948 3.29842 20.794C3.53919 20.8931 3.79726 20.9434 4.05764 20.942H6.15014C6.38199 21.3172 6.70594 21.627 7.09121 21.8418C7.47647 22.0567 7.91027 22.1694 8.35139 22.1694C8.7925 22.1694 9.2263 22.0567 9.61157 21.8418C9.99683 21.627 10.3208 21.3172 10.5526 20.942H15.3526C15.5854 21.3171 15.9101 21.6267 16.296 21.8414C16.6818 22.0561 17.1161 22.1687 17.5576 22.1687C17.9992 22.1687 18.4334 22.0561 18.8193 21.8414C19.2051 21.6267 19.5298 21.3171 19.7626 20.942H20.0101C20.2698 20.9429 20.5271 20.8927 20.7673 20.794C21.0075 20.6953 21.2258 20.5501 21.4098 20.3669C21.5937 20.1836 21.7397 19.9658 21.8393 19.726C21.9389 19.4862 21.9901 19.2291 21.9901 18.9695V10.367C21.9919 10.1077 21.9416 9.85064 21.8425 9.61105C21.7433 9.37146 21.5971 9.15416 21.4126 8.97195ZM13.1026 7.75695C13.3106 7.55799 13.5873 7.44695 13.8751 7.44695C14.1629 7.44695 14.4397 7.55799 14.6476 7.75695C14.8183 7.92623 14.9267 8.14827 14.9551 8.38695H12.7726C12.8072 8.14534 12.9237 7.92294 13.1026 7.75695ZM5.76014 19.4345H4.05764C3.99525 19.4353 3.93331 19.4239 3.87539 19.4007C3.81746 19.3775 3.76469 19.3431 3.72014 19.2995C3.63056 19.2098 3.57945 19.0887 3.57764 18.962V15.317C3.57887 15.2382 3.59947 15.1609 3.63764 15.092C3.67513 15.0247 3.72621 14.9659 3.78764 14.9195L5.08514 14.057C5.16879 14.0014 5.24044 13.9297 5.29583 13.8459C5.35123 13.7622 5.38925 13.6682 5.40764 13.5695L5.78264 11.477C5.80599 11.3732 5.86423 11.2805 5.94764 11.2145C6.03274 11.1526 6.13491 11.1185 6.24014 11.117H8.21264V16.9895C7.57453 17.0235 6.97143 17.2918 6.51888 17.743C6.06633 18.1942 5.79617 18.7965 5.76014 19.4345ZM9.39014 19.8995V19.9745C9.30872 20.1774 9.16841 20.3513 8.98729 20.4738C8.80618 20.5962 8.59253 20.6617 8.37389 20.6617C8.15524 20.6617 7.9416 20.5962 7.76048 20.4738C7.57936 20.3513 7.43906 20.1774 7.35764 19.9745V19.8995C7.32077 19.796 7.30298 19.6867 7.30514 19.577C7.29262 19.426 7.31153 19.2742 7.36069 19.1309C7.40984 18.9877 7.48817 18.8562 7.59073 18.7448C7.69328 18.6334 7.81783 18.5445 7.9565 18.4836C8.09518 18.4228 8.24496 18.3914 8.39639 18.3914C8.54782 18.3914 8.6976 18.4228 8.83627 18.4836C8.97494 18.5445 9.09949 18.6334 9.20205 18.7448C9.3046 18.8562 9.38293 18.9877 9.43209 19.1309C9.48124 19.2742 9.50016 19.426 9.48764 19.577C9.47555 19.6896 9.44248 19.799 9.39014 19.8995ZM18.6001 19.8995C18.597 19.9193 18.597 19.9396 18.6001 19.9595C18.52 20.1647 18.3797 20.3411 18.1978 20.4654C18.0158 20.5897 17.8005 20.6562 17.5801 20.6562C17.3598 20.6562 17.1445 20.5897 16.9625 20.4654C16.7805 20.3411 16.6403 20.1647 16.5601 19.9595V19.8995C16.5275 19.7924 16.5099 19.6813 16.5076 19.5695C16.4951 19.4185 16.514 19.2667 16.5632 19.1234C16.6123 18.9802 16.6907 18.8487 16.7932 18.7373C16.8958 18.6259 17.0203 18.537 17.159 18.4761C17.2977 18.4153 17.4475 18.3839 17.5989 18.3839C17.7503 18.3839 17.9001 18.4153 18.0388 18.4761C18.1774 18.537 18.302 18.6259 18.4045 18.7373C18.5071 18.8487 18.5854 18.9802 18.6346 19.1234C18.6837 19.2667 18.7027 19.4185 18.6901 19.5695C18.6767 19.6857 18.6463 19.7994 18.6001 19.907V19.8995ZM20.4901 18.9545C20.4883 19.0812 20.4372 19.2023 20.3476 19.292C20.2906 19.3474 20.2212 19.3886 20.1451 19.412C20.0954 18.7597 19.8013 18.1503 19.3215 17.7057C18.8417 17.2611 18.2117 17.0141 17.5576 17.0141C16.9035 17.0141 16.2735 17.2611 15.7938 17.7057C15.314 18.1503 15.0198 18.7597 14.9701 19.412H10.9426C10.9183 18.9947 10.7938 18.5894 10.5797 18.2304C10.3656 17.8713 10.0682 17.5692 9.71264 17.3495V10.367C9.71457 10.2403 9.76576 10.1193 9.85537 10.0297C9.94497 9.94008 10.0659 9.88889 10.1926 9.88695H20.0101C20.0731 9.88661 20.1355 9.89907 20.1935 9.92357C20.2515 9.94806 20.304 9.98409 20.3476 10.0295C20.4379 10.1187 20.4891 10.24 20.4901 10.367V18.9545Z" fill="#2D373D"/>
</svg>
