<svg width="64" height="65" viewBox="0 0 64 65" fill="none" xmlns="http://www.w3.org/2000/svg">
<path fill-rule="evenodd" clip-rule="evenodd" d="M13.867 26.5174H12.6801C10.0956 26.5174 8.00049 28.6126 8.00049 31.1971V52.2422C8.00049 54.8267 10.0956 56.9219 12.6801 56.9219H17.3374C18.445 56.9219 19.3429 56.024 19.3429 54.9163C19.3429 53.8087 18.445 52.9107 17.3374 52.9107H12.6801C12.3109 52.9107 12.0116 52.6114 12.0116 52.2422V31.1971C12.0116 30.8279 12.3109 30.5286 12.6801 30.5286H39.5899C39.9591 30.5286 40.2584 30.8279 40.2584 31.1971V32.9219C40.2584 34.0295 41.1563 34.9274 42.2639 34.9274C43.3716 34.9274 44.2695 34.0295 44.2695 32.9219V31.1971C44.2695 28.6126 42.1743 26.5174 39.5899 26.5174H38.4058V21.1914C38.4058 14.4151 32.9126 8.92188 26.1364 8.92188C19.3602 8.92188 13.867 14.4151 13.867 21.1914L13.867 26.5174ZM17.8781 26.5174H34.3947V21.1914C34.3947 16.6304 30.6973 12.933 26.1364 12.933C21.5755 12.933 17.8781 16.6304 17.8781 21.1914L17.8781 26.5174Z" fill="#2D373D"/>
<path d="M33.9403 43.5136C34.4679 42.9969 35.3144 43.0058 35.831 43.5335L37.395 45.1307L39.0465 43.5136C39.5741 42.9969 40.4206 43.0058 40.9372 43.5335C41.4538 44.0611 41.4449 44.9076 40.9173 45.4242L39.2659 47.0414L40.7543 48.5614C41.2709 49.089 41.262 49.9356 40.7344 50.4522C40.2068 50.9688 39.3603 50.9599 38.8436 50.4323L37.3552 48.9123L35.8895 50.3476C35.3619 50.8642 34.5153 50.8553 33.9987 50.3277C33.4821 49.8001 33.491 48.9535 34.0186 48.4369L35.4844 47.0016L33.9204 45.4044C33.4038 44.8767 33.4127 44.0302 33.9403 43.5136Z" fill="#2D373D"/>
<path fill-rule="evenodd" clip-rule="evenodd" d="M29.2517 36.4149C23.5889 36.4149 18.9984 41.0055 18.9984 46.6684C18.9984 52.3312 23.589 56.9219 29.2517 56.9219H45.7471C51.4099 56.9219 56.0005 52.3312 56.0005 46.6684C56.0005 41.0055 51.4099 36.4149 45.7471 36.4149H29.2517ZM23.0095 46.6684C23.0095 43.2208 25.8042 40.426 29.2517 40.426H45.7471C49.1946 40.426 51.9894 43.2208 51.9894 46.6684C51.9894 50.1159 49.1946 52.9107 45.7471 52.9107H29.2517C25.8042 52.9107 23.0095 50.1159 23.0095 46.6684Z" fill="#2D373D"/>
</svg>
