<svg width="64" height="65" viewBox="0 0 64 65" fill="none" xmlns="http://www.w3.org/2000/svg">
<path d="M50.6436 15.8999C50.6436 17.0045 51.539 17.8999 52.6436 17.8999C53.7481 17.8999 54.6436 17.0045 54.6436 15.8999L54.6435 8.2539C54.6435 7.14934 53.7481 6.25391 52.6435 6.25391L44.9977 6.25391C43.8931 6.25391 42.9977 7.14934 42.9977 8.25391C42.9977 9.35848 43.8931 10.2539 44.9977 10.2539L50.6436 10.2539L50.6436 15.8999Z" fill="#2D373D"/>
<path d="M32.3168 11.7479C32.0306 11.535 31.7449 11.5516 31.5282 11.6967C26.9493 14.762 14.148 23.8007 8.68959 28.8393C7.87796 29.5885 6.61264 29.5379 5.86342 28.7263C5.11421 27.9147 5.16481 26.6493 5.97644 25.9001C11.6919 20.6243 24.7362 11.4299 29.303 8.37274C31.0054 7.23306 33.1375 7.37299 34.7043 8.5386L57.8601 25.7651C58.7463 26.4244 58.9303 27.6773 58.271 28.5635C57.6117 29.4497 56.3588 29.6337 55.4726 28.9744L32.3168 11.7479Z" fill="#2D373D"/>
<path d="M50.6663 28.7072C51.7709 28.7072 52.6663 29.6026 52.6663 30.7072V54.535C52.6663 57.3296 50.4008 59.5952 47.6062 59.5952L16.3931 59.5954C13.5985 59.5954 11.333 57.3299 11.333 54.5353V30.7075C11.333 29.6029 12.2284 28.7075 13.333 28.7075C14.4376 28.7075 15.333 29.6029 15.333 30.7075V54.5353C15.333 55.1208 15.8077 55.5954 16.3931 55.5954L47.6062 55.5952C48.1917 55.5952 48.6663 55.1205 48.6663 54.535V30.7072C48.6663 29.6026 49.5618 28.7072 50.6663 28.7072Z" fill="#2D373D"/>
<path fill-rule="evenodd" clip-rule="evenodd" d="M39.2037 24.8323C39.3135 25.4722 39.1058 26.1256 38.6467 26.5847L33.2094 32.022C33.0517 32.1797 32.704 32.5726 32.5544 32.9914C32.4899 33.172 32.489 33.2855 32.5015 33.3554C32.5105 33.4058 32.5458 33.5583 32.7904 33.8029C33.0336 34.0461 33.1853 34.0809 33.2359 34.0899C33.3065 34.1024 33.4214 34.1013 33.6038 34.036C34.0254 33.885 34.4192 33.5359 34.5713 33.3838L40.0085 27.9465C40.4676 27.4874 41.121 27.2797 41.7609 27.3895C42.4008 27.4993 42.9476 27.9128 43.2274 28.4986C45.3963 33.0389 45.1904 39.3162 41.1709 43.3357C39.9374 44.5692 38.5128 45.4951 36.9923 46.1135V51.2769C36.9923 52.3814 36.0969 53.2769 34.9923 53.2769C33.8878 53.2769 32.9923 52.3814 32.9923 51.2769V47.022C32.3508 47.0612 31.7068 47.0519 31.0664 46.994V51.2769C31.0664 52.3814 30.171 53.2769 29.0664 53.2769C27.9618 53.2769 27.0664 52.3814 27.0664 51.2769V45.9564C25.6847 45.3424 24.3904 44.4689 23.2574 43.3358C18.3107 38.3892 18.3108 30.369 23.2575 25.4223C27.277 21.4028 33.5543 21.1969 38.0946 23.3658C38.6804 23.6456 39.0939 24.1924 39.2037 24.8323ZM33.4756 26.0989C30.7689 25.7024 27.9478 26.3889 26.0859 28.2507C22.7013 31.6354 22.7013 37.1229 26.0858 40.5074C29.4703 43.8919 34.9578 43.8919 38.3425 40.5073C40.2043 38.6454 40.8908 35.8243 40.4943 33.1176L37.3997 36.2122C37.1327 36.4792 36.2275 37.3452 34.9521 37.8019C34.2859 38.0404 33.4528 38.1911 32.536 38.0282C31.5992 37.8617 30.7243 37.3937 29.9619 36.6313C29.2009 35.8702 28.7321 34.9972 28.5643 34.0616C28.4 33.1455 28.5493 32.3127 28.7875 31.6459C29.2433 30.3698 30.1108 29.4638 30.381 29.1935L33.4756 26.0989Z" fill="#2D373D"/>
</svg>
