<svg width="64" height="65" viewBox="0 0 64 65" fill="none" xmlns="http://www.w3.org/2000/svg">
<path fill-rule="evenodd" clip-rule="evenodd" d="M46.801 8.92188C45.4859 8.92188 44.2244 9.4418 43.2913 10.3678C42.5361 11.1003 41.9334 11.9751 41.5181 12.9419C41.1006 13.9137 40.8809 14.9588 40.8717 16.0164C40.8625 17.074 41.0641 18.1228 41.4645 19.1016C41.6089 19.4545 41.7781 19.7958 41.9705 20.1229L28.8753 33.2181L22.909 27.2517C22.1281 26.4709 20.8622 26.4706 20.0811 27.2512L11.6442 35.6822C9.31085 38.0155 8 41.1801 8 44.4799C8 47.7798 9.31085 50.9444 11.6442 53.2778C13.9775 55.6111 17.1422 56.9219 20.442 56.9219C23.7418 56.9219 26.9066 55.6109 29.2399 53.2776L37.6743 44.8412C38.0494 44.466 38.2601 43.9572 38.26 43.4267C38.2598 42.8962 38.049 42.3875 37.6737 42.0125L34.5103 38.8511C33.729 38.0703 32.4627 38.0707 31.6819 38.852C30.9011 39.6333 30.9015 40.8996 31.6828 41.6804L33.4312 43.4278L26.4112 50.4495C24.828 52.0326 22.6808 52.9219 20.442 52.9219C18.203 52.9219 16.0558 52.0325 14.4726 50.4493C12.8894 48.8661 12 46.7189 12 44.4799C12 42.2412 12.8897 40.0937 14.4726 38.5106L21.4943 31.4939L26.0469 36.0465L22.1882 39.9052C21.4071 40.6863 21.4071 41.9526 22.1882 42.7337C22.9692 43.5147 24.2355 43.5147 25.0166 42.7337L30.2793 37.4709L30.2896 37.4608L30.2998 37.4505L44.7989 22.9514C45.1261 23.1438 45.4674 23.313 45.8203 23.4574C46.7992 23.8579 47.848 24.0594 48.9056 24.0502C49.9631 24.041 51.0083 23.8213 51.98 23.4039C52.9474 22.9883 53.8228 22.3851 54.5555 21.6292C55.4783 20.6965 55.9961 19.4373 55.9961 18.1249C55.9961 16.807 55.4724 15.5412 54.5424 14.6074L50.3236 10.3807C49.3893 9.44661 48.1222 8.92188 46.801 8.92188ZM46.1064 13.2095C46.2907 13.0253 46.5405 12.9219 46.801 12.9219C47.0613 12.9219 47.3114 13.0257 47.4956 13.2095L51.7103 17.4321C51.8933 17.6162 51.9961 17.8653 51.9961 18.1249C51.9961 18.3848 51.893 18.6339 51.7096 18.818L51.6883 18.8401C51.3225 19.2188 50.885 19.5208 50.4013 19.7286C49.9175 19.9364 49.3973 20.0458 48.8708 20.0504C48.3443 20.055 47.8222 19.9546 47.335 19.7553C46.8477 19.5559 46.405 19.2615 46.0327 18.8892C45.6604 18.5169 45.366 18.0743 45.1667 17.587C44.9673 17.0997 44.867 16.5776 44.8716 16.0511C44.8761 15.5247 44.9855 15.0044 45.1933 14.5207C45.4011 14.0369 45.7034 13.5996 46.0821 13.2339L46.1064 13.2095Z" fill="#2D373D"/>
</svg>
