<svg width="16" height="17" viewBox="0 0 16 17" fill="none" xmlns="http://www.w3.org/2000/svg">
<path d="M12.9998 14.1617H12.6498V12.6617C13.0998 12.6117 13.4498 12.2617 13.4498 11.7617V2.66172C13.4498 2.16172 13.0498 1.76172 12.5498 1.76172H4.6998C3.4998 1.76172 2.5498 2.71172 2.5498 3.91172V13.4117C2.5498 14.3617 3.3498 15.1617 4.2998 15.1617H12.9498C13.2498 15.1617 13.4998 14.9617 13.4998 14.6617C13.4998 14.3617 13.2998 14.1617 12.9998 14.1617ZM3.5498 3.91172C3.5498 3.26172 4.0498 2.76172 4.6998 2.76172H12.4998V11.7117H12.3998C12.3498 11.6617 12.2498 11.6617 12.1498 11.6617C12.0498 11.6617 11.9998 11.6617 11.8998 11.7117H4.2998C4.0498 11.7117 3.7998 11.7617 3.5498 11.8617V3.91172ZM3.5498 13.5117C3.5498 13.4617 3.5998 13.4117 3.5998 13.3617C3.5998 13.2117 3.6498 13.0117 3.7998 12.8617C3.8998 12.7617 4.0998 12.6617 4.2998 12.6617H11.6498V14.1617H4.2998C3.8998 14.1617 3.5998 13.8617 3.5498 13.5117Z" fill="#2D373D"/>
</svg>
