<svg width="24" height="25" viewBox="0 0 24 25" fill="none" xmlns="http://www.w3.org/2000/svg">
<path d="M21.0298 14.4709C20.3946 13.6883 19.5152 13.1416 18.5323 12.9184H18.4723C14.2385 12.1047 9.88854 12.1047 5.65479 12.9184H5.57979C4.59436 13.1346 3.71284 13.6821 3.08228 14.4696C2.45172 15.2572 2.11023 16.2371 2.11479 17.2459V17.9959C2.11666 18.5113 2.32019 19.0055 2.68182 19.3728C3.04346 19.74 3.53447 19.9511 4.04979 19.9609H7.11729C7.64043 19.9609 8.14214 19.7531 8.51206 19.3832C8.88197 19.0133 9.08979 18.5116 9.08979 17.9884C9.09173 17.8617 9.14292 17.7408 9.23252 17.6512C9.32212 17.5616 9.44309 17.5104 9.56979 17.5084H14.4748C14.6015 17.5103 14.7226 17.5614 14.8123 17.6509C14.856 17.6955 14.8904 17.7483 14.9135 17.8062C14.9367 17.8641 14.9482 17.9261 14.9473 17.9884C14.9488 18.5113 15.1563 19.0125 15.5248 19.3834C15.7086 19.5678 15.9273 19.7138 16.1681 19.813C16.4088 19.9121 16.6669 19.9624 16.9273 19.9609H19.9873C20.2477 19.9624 20.5057 19.9121 20.7465 19.813C20.9873 19.7138 21.2059 19.5678 21.3898 19.3834C21.7583 19.0125 21.9658 18.5113 21.9673 17.9884V17.2384C21.9748 16.2368 21.6445 15.2618 21.0298 14.4709ZM20.5048 17.9734C20.5038 18.1004 20.4525 18.2217 20.3623 18.3109C20.3177 18.3546 20.265 18.389 20.207 18.4122C20.1491 18.4354 20.0872 18.4468 20.0248 18.4459H16.9273C16.8649 18.4468 16.803 18.4354 16.745 18.4122C16.6871 18.389 16.6343 18.3546 16.5898 18.3109C16.4995 18.2217 16.4483 18.1004 16.4473 17.9734C16.4453 17.4502 16.2371 16.9489 15.8678 16.5782C15.4986 16.2075 14.998 15.9974 14.4748 15.9934H9.56979C9.04527 15.9954 8.5428 16.2047 8.1719 16.5755C7.80101 16.9464 7.59177 17.4489 7.58979 17.9734C7.59078 18.0993 7.5423 18.2205 7.45479 18.3109C7.41023 18.3546 7.35747 18.389 7.29954 18.4122C7.24162 18.4354 7.17967 18.4468 7.11729 18.4459H4.04979C3.98741 18.4468 3.92547 18.4354 3.86754 18.4122C3.80961 18.389 3.75685 18.3546 3.71229 18.3109C3.62479 18.2205 3.57631 18.0993 3.57729 17.9734V17.2234C3.57549 16.5551 3.80318 15.9065 4.22229 15.3859C4.63105 14.8807 5.1953 14.5248 5.82729 14.3734C9.8992 13.5821 14.0854 13.5821 18.1573 14.3734C18.7992 14.5243 19.3711 14.8882 19.7797 15.4057C20.1883 15.9233 20.4095 16.564 20.4073 17.2234L20.5048 17.9734Z" fill="#2D373D"/>
<path d="M12.0298 10.7509C12.2287 10.7509 12.4195 10.6719 12.5601 10.5313C12.7008 10.3906 12.7798 10.1998 12.7798 10.0009V5.71094C12.7798 5.51203 12.7008 5.32126 12.5601 5.18061C12.4195 5.03996 12.2287 4.96094 12.0298 4.96094C11.8309 4.96094 11.6401 5.03996 11.4995 5.18061C11.3588 5.32126 11.2798 5.51203 11.2798 5.71094V10.0009C11.2798 10.1998 11.3588 10.3906 11.4995 10.5313C11.6401 10.6719 11.8309 10.7509 12.0298 10.7509Z" fill="#2D373D"/>
<path d="M7.08729 10.3909C7.1546 10.5015 7.24937 10.5928 7.3624 10.6558C7.47543 10.7189 7.60285 10.7517 7.73229 10.7509C7.8669 10.7509 7.99902 10.7146 8.11479 10.6459C8.28457 10.5432 8.40674 10.3774 8.45453 10.1849C8.50232 9.99228 8.47185 9.7886 8.36979 9.61844L6.53229 6.55094C6.4935 6.44714 6.43219 6.35322 6.35276 6.27594C6.27334 6.19867 6.17778 6.13995 6.07296 6.10402C5.96813 6.06808 5.85665 6.05582 5.74652 6.06812C5.63639 6.08042 5.53035 6.11697 5.43604 6.17514C5.34172 6.23331 5.26146 6.31166 5.20104 6.40455C5.14062 6.49744 5.10154 6.60257 5.0866 6.71237C5.07166 6.82217 5.08123 6.93392 5.11464 7.03958C5.14804 7.14524 5.20445 7.24218 5.27979 7.32344L7.08729 10.3909Z" fill="#2D373D"/>
<path d="M15.9298 10.6459C16.0446 10.7168 16.1774 10.7533 16.3123 10.7509C16.4417 10.7517 16.5692 10.7189 16.6822 10.6558C16.7952 10.5928 16.89 10.5015 16.9573 10.3909L18.7798 7.32344C18.8563 7.15424 18.8672 6.9627 18.8106 6.78587C18.754 6.60904 18.6338 6.4595 18.4733 6.36618C18.3128 6.27286 18.1234 6.24239 17.9417 6.28068C17.76 6.31896 17.599 6.42328 17.4898 6.57344L15.6523 9.64094C15.5592 9.81174 15.5361 10.012 15.5879 10.1995C15.6396 10.3871 15.7622 10.5471 15.9298 10.6459Z" fill="#2D373D"/>
</svg>
