<svg width="16" height="17" viewBox="0 0 16 17" fill="none" xmlns="http://www.w3.org/2000/svg">
<path d="M9.8999 1.76172H6.1499C4.7499 1.76172 3.6499 2.86172 3.6499 4.26172V12.6617C3.6499 14.0617 4.7499 15.1617 6.1499 15.1617H9.8999C11.2499 15.1617 12.3999 14.0617 12.3999 12.6617V4.26172C12.3999 2.86172 11.2999 1.76172 9.8999 1.76172ZM6.1499 2.76172H9.8999C10.7499 2.76172 11.3999 3.41172 11.3999 4.26172V10.9617H4.6499V4.26172C4.6499 3.41172 5.2999 2.76172 6.1499 2.76172ZM9.8999 14.1617H6.1499C5.2999 14.1617 4.6499 13.5117 4.6499 12.6617V11.9617H11.3999V12.6617C11.3999 13.5117 10.7499 14.1617 9.8999 14.1617Z" fill="#2D373D"/>
<path d="M7.99988 13.5618C8.27602 13.5618 8.49988 13.3379 8.49988 13.0618C8.49988 12.7856 8.27602 12.5618 7.99988 12.5618C7.72374 12.5618 7.49988 12.7856 7.49988 13.0618C7.49988 13.3379 7.72374 13.5618 7.99988 13.5618Z" fill="#2D373D"/>
</svg>
