<svg width="64" height="65" viewBox="0 0 64 65" fill="none" xmlns="http://www.w3.org/2000/svg">
<path fill-rule="evenodd" clip-rule="evenodd" d="M37.7409 9.67254C38.3864 9.62678 39.0347 9.70808 39.6489 9.91193C40.2632 10.1158 40.8316 10.4383 41.3215 10.8615C41.8114 11.2847 42.2134 11.8003 42.5039 12.3792L46.5601 20.4563C48.168 20.7219 49.666 21.4811 50.8352 22.6453C52.3121 24.1157 53.1434 26.1119 53.1434 28.1952V29.5398C53.6919 29.7823 54.1968 30.1248 54.63 30.5561C55.5564 31.4785 56.0785 32.7315 56.0785 34.0398V42.8065C56.0785 44.1148 55.5564 45.3677 54.63 46.2901C54.1968 46.7214 53.6919 47.064 53.1434 47.3064V48.651C53.1434 50.7343 52.3121 52.7305 50.8352 54.2009C49.3587 55.6711 47.3578 56.4955 45.2734 56.4955H15.9232C13.8388 56.4955 11.838 55.6711 10.3614 54.2009C8.88451 52.7305 8.05322 50.7343 8.05322 48.651V28.1952C8.05322 26.1119 8.88451 24.1157 10.3614 22.6453C11.7189 21.2936 13.5196 20.4879 15.421 20.3667L35.8858 10.1788C36.4649 9.89039 37.0956 9.71829 37.7409 9.67254ZM51.1492 43.7287L51.1434 43.7287L51.1332 43.7287H43.806C42.3875 43.7287 41.029 43.1676 40.0287 42.1717C39.0286 41.176 38.4684 39.8274 38.4684 38.4231C38.4684 37.0188 39.0286 35.6702 40.0287 34.6746C41.029 33.6786 42.3876 33.1175 43.806 33.1175H51.1435C51.3943 33.1175 51.633 33.2168 51.8077 33.3907C51.9821 33.5643 52.0785 33.798 52.0785 34.0398V42.8065C52.0785 43.0483 51.9821 43.2819 51.8077 43.4555C51.6344 43.6281 51.3979 43.7272 51.1492 43.7287ZM49.1434 47.7287V48.651C49.1434 49.6678 48.7378 50.6447 48.013 51.3663C47.2879 52.0883 46.3026 52.4955 45.2734 52.4955H15.9232C14.894 52.4955 13.9087 52.0883 13.1836 51.3663C12.4588 50.6447 12.0532 49.6678 12.0532 48.651V28.1952C12.0532 27.1784 12.4588 26.2015 13.1836 25.4799C13.9007 24.7659 14.8722 24.3598 15.889 24.3509C15.9154 24.3514 15.9418 24.3513 15.9683 24.3507H45.2318C45.2577 24.3513 45.2836 24.3514 45.3096 24.3509C46.3257 24.3604 47.2964 24.7664 48.013 25.4799C48.7378 26.2015 49.1434 27.1784 49.1434 28.1952V29.1175H43.806C41.3323 29.1175 38.9582 30.0958 37.2064 31.84C35.4543 33.5844 34.4684 35.9523 34.4684 38.4231C34.4684 40.8939 35.4543 43.2618 37.2064 45.0063C38.9582 46.7504 41.3323 47.7287 43.806 47.7287H49.1434ZM38.929 14.1738L42.031 20.3507H24.4286L37.6693 13.7592C37.7796 13.7042 37.9001 13.6713 38.0238 13.6625C38.1475 13.6538 38.2716 13.6694 38.389 13.7083C38.5063 13.7472 38.6143 13.8087 38.7068 13.8886C38.7993 13.9685 38.8749 14.0658 38.929 14.1738Z" fill="#2D373D"/>
<path fill-rule="evenodd" clip-rule="evenodd" d="M43.8059 35.6926C43.0837 35.6926 42.3893 35.9782 41.876 36.4893C41.3623 37.0007 41.0722 37.6961 41.0722 38.4232C41.0722 38.9651 41.2336 39.4942 41.5352 39.9435C41.8366 40.3927 42.2641 40.7414 42.7626 40.947C43.2611 41.1526 43.8091 41.2063 44.3376 41.1016C44.8662 40.9969 45.353 40.7383 45.7359 40.357C46.1189 39.9757 46.3807 39.4888 46.4868 38.9575C46.593 38.4261 46.5384 37.8754 46.3304 37.3754C46.1224 36.8754 45.7708 36.4495 45.3214 36.1505C44.8721 35.8516 44.3447 35.6926 43.8059 35.6926Z" fill="#2D373D"/>
</svg>
