<svg width="64" height="65" viewBox="0 0 64 65" fill="none" xmlns="http://www.w3.org/2000/svg">
<path fill-rule="evenodd" clip-rule="evenodd" d="M41.8518 30.9156C38.9284 30.9156 36.5586 33.2854 36.5586 36.2088C36.5586 39.1322 38.9284 41.502 41.8518 41.502C44.7752 41.502 47.1451 39.1322 47.1451 36.2088C47.1451 33.2854 44.7752 30.9156 41.8518 30.9156ZM40.5686 36.2088C40.5686 35.5001 41.1431 34.9256 41.8518 34.9256C42.5605 34.9256 43.135 35.5001 43.135 36.2088C43.135 36.9175 42.5605 37.492 41.8518 37.492C41.1431 37.492 40.5686 36.9175 40.5686 36.2088Z" fill="#2D373D"/>
<path fill-rule="evenodd" clip-rule="evenodd" d="M30.3431 37.492C27.4197 37.492 25.0498 39.8619 25.0498 42.7852C25.0498 45.7086 27.4197 48.0785 30.3431 48.0785C33.2664 48.0785 35.6363 45.7086 35.6363 42.7852C35.6363 39.8619 33.2664 37.492 30.3431 37.492ZM29.0599 42.7852C29.0599 42.0765 29.6344 41.502 30.3431 41.502C31.0518 41.502 31.6263 42.0765 31.6263 42.7852C31.6263 43.4939 31.0518 44.0684 30.3431 44.0684C29.6344 44.0684 29.0599 43.4939 29.0599 42.7852Z" fill="#2D373D"/>
<path fill-rule="evenodd" clip-rule="evenodd" d="M48.0672 42.7852C48.0672 39.8619 50.437 37.492 53.3604 37.492C56.2838 37.492 58.6536 39.8619 58.6536 42.7852C58.6536 45.7086 56.2838 48.0785 53.3604 48.0785C50.437 48.0785 48.0672 45.7086 48.0672 42.7852ZM53.3604 41.502C52.6517 41.502 52.0772 42.0765 52.0772 42.7852C52.0772 43.4939 52.6517 44.0684 53.3604 44.0684C54.0691 44.0684 54.6436 43.4939 54.6436 42.7852C54.6436 42.0765 54.0691 41.502 53.3604 41.502Z" fill="#2D373D"/>
<path fill-rule="evenodd" clip-rule="evenodd" d="M41.8517 43.5204C41.2852 43.5204 40.7265 43.6523 40.2198 43.9057C39.7131 44.159 39.2723 44.5268 38.9324 44.9801L32.356 53.7486C31.9494 54.2908 31.7018 54.9355 31.6409 55.6104C31.58 56.2853 31.7083 56.9639 32.0114 57.5701C32.3145 58.1762 32.7804 58.686 33.3568 59.0422C33.9333 59.3985 34.5976 59.5872 35.2753 59.5872H48.4282C49.1059 59.5872 49.7702 59.3985 50.3466 59.0422C50.9231 58.686 51.389 58.1762 51.6921 57.5701C51.9951 56.9639 52.1234 56.2853 52.0626 55.6104C52.0017 54.9355 51.7541 54.2908 51.3475 53.7486L44.771 44.9801C44.4311 44.5268 43.9904 44.159 43.4837 43.9057C42.977 43.6523 42.4182 43.5204 41.8517 43.5204ZM35.9971 55.5772L41.8517 47.771L47.7064 55.5772H35.9971Z" fill="#2D373D"/>
<path d="M27.9944 6.69327C28.7266 6.10745 29.7671 6.10745 30.4994 6.69327L46.3823 19.3996C46.3884 19.4044 46.3946 19.4093 46.4007 19.4143L52.4209 24.2304C53.2856 24.9222 53.4258 26.1839 52.734 27.0486C52.0423 27.9133 50.7805 28.0535 49.9158 27.3617L47.1449 25.145V26.8922C47.1449 27.9995 46.2473 28.8972 45.1399 28.8972C44.0326 28.8972 43.1349 27.9995 43.1349 26.8922V21.937L29.2469 10.8266L15.3588 21.9371V39.497C15.3588 39.8374 15.494 40.1638 15.7346 40.4044C15.9753 40.6451 16.3016 40.7802 16.642 40.7802H20.4782C21.5856 40.7802 22.4832 41.6779 22.4832 42.7853C22.4832 43.8926 21.5856 44.7903 20.4782 44.7903H16.642C15.2381 44.7903 13.8918 44.2326 12.8991 43.2399C11.9064 42.2472 11.3487 40.9009 11.3487 39.497V25.1451L8.57792 27.3617C7.71324 28.0535 6.4515 27.9133 5.75975 27.0486C5.068 26.1839 5.20819 24.9222 6.07288 24.2304L27.9944 6.69327Z" fill="#2D373D"/>
</svg>
