<svg width="24" height="25" viewBox="0 0 24 25" fill="none" xmlns="http://www.w3.org/2000/svg">
<path fill-rule="evenodd" clip-rule="evenodd" d="M8.70045 3.92188C7.69921 3.92188 6.73899 4.31961 6.03101 5.02759C5.57031 5.48829 5.24099 6.05579 5.06713 6.67191H4.8501C4.43588 6.67191 4.1001 7.00769 4.1001 7.42191C4.1001 7.83612 4.43588 8.17191 4.8501 8.17191H4.95527C5.06 8.99801 5.4359 9.77135 6.03101 10.3665C6.41407 10.7495 6.87098 11.0418 7.36827 11.2293C7.06781 11.3013 6.77243 11.3979 6.48519 11.5189C5.45139 11.9541 4.56914 12.685 3.94912 13.6197C3.3291 14.5545 2.99892 15.6515 3 16.7732C3.0004 17.1874 3.33651 17.5229 3.75073 17.5225C4.16494 17.5221 4.5004 17.186 4.5 16.7718C4.49921 15.9455 4.74242 15.1374 5.19914 14.4489C5.65585 13.7603 6.30573 13.2219 7.06725 12.9013C7.82876 12.5807 8.668 12.4921 9.47968 12.6466C10.2914 12.8011 11.0393 13.1919 11.6298 13.7699C11.9258 14.0597 12.4006 14.0546 12.6904 13.7586C12.9801 13.4626 12.9751 12.9878 12.6791 12.698C11.943 11.9775 11.0266 11.4712 10.0285 11.2309C10.5274 11.0434 10.9858 10.7506 11.3699 10.3665C11.965 9.77135 12.3409 8.99801 12.4456 8.17191H12.5505C12.9647 8.17191 13.3005 7.83612 13.3005 7.42191C13.3005 7.00769 12.9647 6.67191 12.5505 6.67191H12.3338C12.1599 6.05579 11.8306 5.48829 11.3699 5.02759C10.6619 4.31961 9.70168 3.92188 8.70045 3.92188ZM10.7316 6.67191C10.6237 6.45811 10.4817 6.26076 10.3092 6.08825C10.2234 6.00245 10.1315 5.92422 10.0344 5.85397L10.0462 6.67191H10.7316ZM9.04614 6.67191L9.02842 5.44563C8.92044 5.4299 8.81086 5.42188 8.70045 5.42188C8.59089 5.42188 8.48216 5.42978 8.375 5.44526L8.375 6.67191H9.04614ZM7.375 6.67191L7.375 5.84782C7.2748 5.91965 7.17998 5.99994 7.09167 6.08825C6.91916 6.26076 6.77722 6.45811 6.66932 6.67191H7.375ZM6.4754 8.17191C6.56638 8.59816 6.77874 8.99287 7.09167 9.3058C7.51834 9.73248 8.09704 9.97218 8.70045 9.97218C9.30385 9.97218 9.88255 9.73248 10.3092 9.3058C10.6222 8.99287 10.8345 8.59816 10.9255 8.17191H6.4754Z" fill="#2D373D"/>
<path fill-rule="evenodd" clip-rule="evenodd" d="M18.311 10.5689C18.6052 10.6779 18.8004 10.9585 18.8004 11.2722V14.9224H19.9767C20.1723 14.9227 20.3637 14.979 20.5283 15.0846C20.693 15.1901 20.824 15.3406 20.9059 15.5182C20.9878 15.6958 21.0171 15.8931 20.9905 16.0868C20.9639 16.2806 20.8825 16.4627 20.7557 16.6116L20.7535 16.6143L16.4193 21.6613C16.2149 21.8993 15.8839 21.985 15.5898 21.876C15.2956 21.767 15.1003 21.4864 15.1003 21.1727V17.5225H13.926C13.7304 17.5225 13.5382 17.4667 13.3734 17.3614C13.2083 17.2561 13.0769 17.1056 12.9947 16.9279C12.9125 16.7503 12.8828 16.5527 12.9093 16.3587C12.9358 16.1647 13.0173 15.9824 13.1442 15.8332L13.1465 15.8306L17.4815 10.7835C17.6859 10.5455 18.0168 10.4599 18.311 10.5689ZM14.959 16.0225H15.8503C16.2645 16.0225 16.6003 16.3583 16.6003 16.7725V19.1481L18.9411 16.4224H18.0504C17.6362 16.4224 17.3004 16.0866 17.3004 15.6724V13.2965L14.959 16.0225Z" fill="#2D373D"/>
</svg>
