<svg width="64" height="65" viewBox="0 0 64 65" fill="none" xmlns="http://www.w3.org/2000/svg">
<path d="M56.6668 11.5859C55.5468 11.5859 54.6668 12.4926 54.6668 13.5859V24.5726C49.6802 24.1993 47.2268 21.9059 47.1202 21.7993C46.3735 21.0526 45.1735 21.0259 44.4002 21.7193C43.3068 22.6793 40.5335 24.6259 38.8535 24.6259C37.1735 24.6259 34.4002 22.6793 33.3335 21.7193C32.5602 21.0526 31.4402 21.0526 30.6668 21.7193C29.6002 22.6793 26.8268 24.6259 25.1468 24.6259C23.4668 24.6259 20.6935 22.6793 19.6002 21.7193C18.8268 21.0259 17.6268 21.0526 16.8802 21.7726C16.7735 21.9059 14.3202 24.1993 9.3335 24.5726V13.5859C9.3335 12.4926 8.42683 11.5859 7.3335 11.5859C6.24016 11.5859 5.3335 12.4926 5.3335 13.5859V49.2126C5.3335 52.0393 8.02683 54.2526 11.4935 54.2526H52.5068C55.9468 54.2526 58.6668 52.0393 58.6668 49.2126V13.5859C58.6668 12.4926 57.7602 11.5859 56.6668 11.5859ZM54.6668 49.2126C54.6668 49.5859 53.8135 50.2526 52.5068 50.2526H11.4935C10.1602 50.2526 9.3335 49.5859 9.3335 49.2126V40.5726C13.6535 40.3326 16.6402 38.8393 18.2668 37.7459C19.8402 38.9193 22.6135 40.6259 25.1468 40.6259C27.6802 40.6259 30.4002 38.9459 32.0002 37.7726C33.6002 38.9459 36.3202 40.6259 38.8535 40.6259C41.3868 40.6259 44.1602 38.9193 45.7335 37.7459C47.3602 38.8393 50.3468 40.3326 54.6668 40.5726V49.2126ZM54.6668 36.5726C49.6802 36.1993 47.2268 33.9059 47.1202 33.7993C46.3735 33.0526 45.1735 33.0259 44.4002 33.7193C43.3068 34.6793 40.5335 36.6259 38.8535 36.6259C37.1735 36.6259 34.4002 34.6793 33.3335 33.7193C32.5602 33.0526 31.4402 33.0526 30.6668 33.7193C29.6002 34.6793 26.8268 36.6259 25.1468 36.6259C23.4668 36.6259 20.6935 34.6793 19.6002 33.7193C18.8268 33.0259 17.6268 33.0526 16.8802 33.7726C16.7735 33.9059 14.3202 36.1993 9.3335 36.5726V28.5726C13.6535 28.3326 16.6402 26.8393 18.2668 25.7459C19.8402 26.9193 22.6135 28.6259 25.1468 28.6259C27.6802 28.6259 30.4002 26.9459 32.0002 25.7726C33.6002 26.9459 36.3202 28.6259 38.8535 28.6259C41.3868 28.6259 44.1602 26.9193 45.7335 25.7459C47.3602 26.8393 50.3468 28.3326 54.6668 28.5726V36.5726Z" fill="#2D373D"/>
</svg>
