<svg width="32" height="33" viewBox="0 0 32 33" fill="none" xmlns="http://www.w3.org/2000/svg">
<path d="M27.0002 17.6614H24.4002V17.1614C24.4002 15.7614 23.3002 14.6614 21.9002 14.6614H20.4002C19.0002 14.6614 17.9002 15.7614 17.9002 17.1614V17.6614H15.2002C14.6002 17.6614 14.2002 18.0614 14.2002 18.6614V27.4614C14.2002 28.0614 14.6002 28.4614 15.2002 28.4614H27.0002C27.6002 28.4614 28.0002 28.0614 28.0002 27.4614V18.6614C28.0002 18.0614 27.6002 17.6614 27.0002 17.6614ZM19.8002 17.1614C19.8002 16.8614 20.0002 16.6614 20.3002 16.6614H21.8002C22.1002 16.6614 22.3002 16.8614 22.3002 17.1614V17.6614H19.8002V17.1614ZM26.0002 19.6614V20.5614H16.2002V19.6614H26.0002ZM16.2002 26.4614V22.5614H20.1002V23.0614C20.1002 23.6614 20.5002 24.0614 21.1002 24.0614C21.7002 24.0614 22.1002 23.6614 22.1002 23.0614V22.5614H26.0002V26.4614H16.2002Z" fill="#2D373D"/>
<path d="M14.0999 14.5613C13.3999 13.2613 12.2999 12.4613 10.8999 11.9613C12.2999 11.3613 13.2999 9.96133 13.2999 8.36133C13.2999 7.26133 12.8999 6.26133 12.0999 5.56133C11.2999 4.76133 10.3999 4.36133 9.2999 4.36133C7.0999 4.36133 5.3999 6.16133 5.3999 8.26133C5.3999 9.36133 5.7999 10.3613 6.4999 11.0613C6.8999 11.4613 7.2999 11.7613 7.6999 11.9613C7.3999 12.0613 6.9999 12.2613 6.6999 12.3613C4.9999 13.2613 3.8999 15.0613 3.8999 17.0613V20.0613C3.8999 20.6613 4.2999 21.0613 4.8999 21.0613H5.4999L6.0999 27.5613C6.1999 28.0613 6.5999 28.4613 7.0999 28.4613H11.4999C12.0999 28.4613 12.4999 28.0613 12.4999 27.5613L12.9999 22.5613C13.0999 21.9613 12.5999 21.5613 12.0999 21.4613C11.4999 21.4613 11.0999 21.8613 10.9999 22.3613L10.5999 26.5613H7.9999L7.3999 20.0613C7.2999 19.5613 6.8999 19.1613 6.3999 19.1613H5.8999V17.1613C5.8999 15.9613 6.5999 14.7613 7.6999 14.1613C7.8999 14.0613 8.0999 13.9613 8.2999 13.9613V17.1613C8.2999 17.7613 8.6999 18.1613 9.2999 18.1613C9.8999 18.1613 10.2999 17.7613 10.2999 17.1613V13.8613C11.1999 14.1613 11.8999 14.6613 12.2999 15.5613C12.5999 16.0613 13.1999 16.2613 13.6999 15.9613C14.1999 15.6613 14.3999 15.0613 14.0999 14.5613ZM7.2999 8.26133C7.3999 7.16133 8.1999 6.36133 9.2999 6.36133C9.7999 6.36133 10.2999 6.56133 10.7999 6.86133C11.1999 7.26133 11.3999 7.76133 11.3999 8.26133C11.3999 9.36133 10.4999 10.2613 9.3999 10.2613C8.8999 10.2613 8.3999 10.0613 7.9999 9.66133C7.5999 9.26133 7.3999 8.76133 7.2999 8.26133Z" fill="#2D373D"/>
</svg>
