<svg width="32" height="33" viewBox="0 0 32 33" fill="none" xmlns="http://www.w3.org/2000/svg">
<path d="M16.0002 8.7605C14.9002 8.7605 13.8002 9.2605 13.0002 10.0605C12.1002 10.8605 11.7002 11.9605 11.7002 13.0605C11.7002 13.6605 12.1002 14.0605 12.7002 14.0605C13.3002 14.0605 13.7002 13.6605 13.7002 13.0605C13.7002 12.4605 14.0002 11.8605 14.4002 11.4605C14.8002 10.9605 15.4002 10.7605 16.0002 10.7605C16.6002 10.7605 17.2002 11.0605 17.6002 11.4605C18.1002 11.8605 18.3002 12.4605 18.3002 13.0605C18.3002 14.0605 17.7002 14.9605 16.8002 15.2605C15.7002 15.6605 15.0002 16.6605 15.0002 17.7605V18.8605C15.0002 19.4605 15.4002 19.8605 16.0002 19.8605C16.5002 19.8605 17.0002 19.4605 17.0002 18.8605V17.7605C17.0002 17.4605 17.1002 17.2605 17.4002 17.1605C19.1002 16.4605 20.3002 14.8605 20.3002 13.0605C20.3002 11.9605 19.8002 10.8605 19.0002 10.0605C18.2002 9.1605 17.1002 8.7605 16.0002 8.7605Z" fill="#2D373D"/>
<path d="M16.0001 21.2605C15.2001 21.2605 14.6001 21.8605 14.6001 22.6605C14.6001 23.4605 15.2001 24.0605 16.0001 24.0605C16.8001 24.0605 17.4001 23.4605 17.4001 22.6605C17.4001 21.8605 16.8001 21.2605 16.0001 21.2605Z" fill="#2D373D"/>
<path d="M16.0001 3.06055C8.6001 3.06055 2.6001 9.06055 2.6001 16.4605C2.6001 23.7605 8.6001 29.7605 16.0001 29.7605C23.3001 29.7605 29.3001 23.7605 29.4001 16.4605C29.4001 9.06055 23.4001 3.06055 16.0001 3.06055ZM16.0001 27.8605C9.7001 27.8605 4.6001 22.7605 4.6001 16.4605C4.6001 10.1605 9.7001 5.06055 16.0001 5.06055C22.2001 5.06055 27.4001 10.1605 27.4001 16.4605C27.4001 22.7605 22.3001 27.8605 16.0001 27.8605Z" fill="#2D373D"/>
</svg>
