<svg width="64" height="64" viewBox="0 0 64 64" fill="none" xmlns="http://www.w3.org/2000/svg">
<path d="M54.7058 58.6999H9.37183C8.8096 58.7071 8.25161 58.6018 7.73075 58.3899C7.2099 58.1781 6.73673 57.8642 6.33914 57.4666C5.94155 57.069 5.62759 56.5958 5.41578 56.075C5.20396 55.5541 5.09857 54.9961 5.10583 54.4339V26.9679C5.0893 26.3441 5.22662 25.7259 5.50567 25.1678C5.78472 24.6097 6.19691 24.1289 6.70583 23.7679L30.7058 5.63389C31.052 5.37424 31.4731 5.23389 31.9058 5.23389C32.3386 5.23389 32.7596 5.37424 33.1058 5.63389L57.1058 23.7679C57.5727 24.1674 57.9549 24.6564 58.2297 25.206C58.5045 25.7556 58.6664 26.3547 58.7058 26.9679V54.6999C58.68 55.7526 58.2502 56.7551 57.5056 57.4997C56.761 58.2443 55.7585 58.674 54.7058 58.6999ZM9.37183 26.9679V54.6999L54.7058 54.9679C54.7409 54.9684 54.7757 54.9619 54.8083 54.9487C54.8408 54.9356 54.8703 54.916 54.8951 54.8912C54.9199 54.8664 54.9395 54.8368 54.9527 54.8043C54.9659 54.7718 54.9724 54.737 54.9718 54.7019V26.9679C54.9726 26.9326 54.9663 26.8976 54.9533 26.8648C54.9402 26.8321 54.9207 26.8023 54.8959 26.7773C54.871 26.7523 54.8414 26.7325 54.8087 26.7192C54.7761 26.7059 54.7411 26.6993 54.7058 26.6999L32.0398 9.63389L9.37183 26.9679Z" fill="#2D373D"/>
</svg>
