<svg width="16" height="17" viewBox="0 0 16 17" fill="none" xmlns="http://www.w3.org/2000/svg">
<path d="M12.0002 2.41016H3.9002C3.4002 2.41016 2.9002 2.61016 2.5502 3.01016C2.1502 3.41016 1.9502 3.86016 1.9502 4.41016V8.81016C1.9502 9.91016 2.8502 10.8102 3.9002 10.8102C4.2002 10.8102 4.4002 10.6102 4.4002 10.3102C4.4002 10.0102 4.2002 9.81016 3.9002 9.81016C3.4002 9.81016 2.9502 9.41016 2.9502 8.86016V4.41016C2.9502 4.11016 3.0002 3.91016 3.2002 3.71016C3.4002 3.51016 3.6502 3.41016 3.9002 3.41016H12.0002C12.5502 3.41016 13.0002 3.86016 13.0002 4.41016V8.86016C13.0002 9.11016 12.9002 9.31016 12.7502 9.51016C12.5502 9.71016 12.6002 10.0102 12.8002 10.2102C13.0002 10.4102 13.3002 10.3602 13.5002 10.1602C13.8502 9.81016 14.0002 9.36016 14.0002 8.86016V4.41016C14.0002 3.31016 13.1002 2.41016 12.0002 2.41016Z" fill="#2D373D"/>
<path d="M11.2501 9.1102L9.60014 8.7602V6.2102C9.60014 5.5102 9.05014 4.96021 8.35014 4.96021C7.65014 4.96021 7.10014 5.5102 7.10014 6.2102V10.0102H7.05014L7.00014 9.9602C6.70014 9.7602 6.40014 9.7102 6.05014 9.7602C5.70014 9.8602 5.45014 10.0102 5.25014 10.3102C4.95014 10.7602 5.00014 11.3602 5.30014 11.7602L7.20014 14.2602C7.30014 14.4102 7.45014 14.4602 7.60014 14.4602H12.0501C12.3001 14.4602 12.5001 14.2602 12.5501 13.9602L12.8001 11.2102C12.9001 10.2102 12.2001 9.3102 11.2501 9.1102ZM11.7501 11.1602L11.5501 13.4602H7.85014L6.05014 11.1102C6.00014 11.0102 6.00014 10.9102 6.05014 10.8102C6.10014 10.7602 6.15014 10.7102 6.20014 10.7102C6.25014 10.7102 6.35014 10.7102 6.40014 10.7602L7.25014 11.4102C7.40014 11.5102 7.60014 11.5602 7.75014 11.4602C7.95014 11.3602 8.05014 11.2102 8.05014 11.0102V6.2102C8.05014 6.0602 8.15014 5.9602 8.30014 5.9602C8.45014 5.9602 8.55014 6.0602 8.55014 6.2102V9.1602C8.55014 9.4102 8.70014 9.6102 8.95014 9.6602L11.0001 10.1102C11.4501 10.2102 11.8001 10.6602 11.7501 11.1602Z" fill="#2D373D"/>
</svg>
