<svg width="32" height="32" viewBox="0 0 32 32" fill="none" xmlns="http://www.w3.org/2000/svg">
<path d="M27.1 4.90005C25.8 3.60005 23.5999 3.60005 22.2999 4.90005L12.1 15.2C11.9 15.4 11.8 15.6 11.8 15.8L11.2 19.8C11.2 20.1 11.3 20.4 11.5 20.6C11.7 20.8001 11.9 20.9 12.2 20.9H12.3L16.3 20.3C16.5 20.3 16.7 20.2001 16.9 20L27.1 9.70005C27.7 9.10005 28.1 8.20005 28.1 7.30005C28.1 6.40005 27.7 5.50005 27.1 4.90005ZM25.7 8.30005L15.7 18.3L13.4 18.6L13.7 16.3L23.7 6.30005C24.2 5.70005 25.1 5.70005 25.7 6.30005C26.3 6.80005 26.3 7.70005 25.7 8.30005Z" fill="#2D373D"/>
<path d="M24.3 16.3002C23.7 16.3002 23.3 16.7002 23.3 17.3002V25.4002C23.3 25.5002 23.2 25.7002 23.1 25.8002C23 25.9002 22.9 26.0002 22.7 26.0002H6.6C6.3 26.0002 6 25.7002 6 25.4002V9.3002C6 8.9002 6.3 8.6002 6.6 8.7002H14.7C15.3 8.7002 15.7 8.3002 15.7 7.7002C15.7 7.1002 15.3 6.7002 14.7 6.7002H6.6C5.2 6.7002 4 7.9002 4 9.3002V25.4002C4 26.8002 5.2 28.0002 6.6 28.0002H22.7C23.4 28.0002 24.1 27.7002 24.5 27.2002C25 26.8002 25.3 26.1002 25.3 25.4002V17.3002C25.3 16.7002 24.9 16.3002 24.3 16.3002Z" fill="#2D373D"/>
</svg>
