<svg width="16" height="16" viewBox="0 0 16 16" fill="none" xmlns="http://www.w3.org/2000/svg">
<path d="M3.45023 10.1499C3.50023 10.1999 3.60023 10.1999 3.65023 10.1999C4.05023 10.1999 4.35023 9.84993 4.35023 9.49993C4.35023 9.19993 4.15023 8.94993 3.85023 8.84993C3.80023 8.79993 3.70023 8.79993 3.65023 8.79993C3.60023 8.79993 3.50023 8.79993 3.45023 8.84993C3.15023 8.94993 2.95023 9.19993 2.95023 9.49993C2.95023 9.79993 3.15023 10.0499 3.45023 10.1499Z" fill="#2D373D"/>
<path d="M12.1502 10.1499C12.2002 10.1999 12.3002 10.1999 12.3502 10.1999C12.7502 10.1999 13.0502 9.84993 13.0502 9.49993C13.0502 9.19993 12.8502 8.94993 12.5502 8.84993C12.5002 8.79993 12.4002 8.79993 12.3502 8.79993C12.3002 8.79993 12.2002 8.79993 12.1502 8.84993C11.8502 8.94993 11.6502 9.19993 11.6502 9.49993C11.6502 9.79993 11.8502 10.0499 12.1502 10.1499Z" fill="#2D373D"/>
<path d="M13.1002 7.09995V6.39995H14.2002C14.5002 6.39995 14.7002 6.19995 14.7002 5.89995C14.7002 5.59995 14.5002 5.39995 14.2002 5.39995H13.1002V4.99995C13.1002 3.34995 11.7502 1.94995 10.1002 1.94995H5.95022C4.25022 1.94995 2.95022 3.34995 2.95022 4.99995V5.39995H1.80022C1.50022 5.39995 1.30022 5.59995 1.30022 5.89995C1.30022 6.19995 1.50022 6.39995 1.80022 6.39995H2.95022V7.09995C2.05022 7.34995 1.30022 8.14995 1.30022 9.14995V9.19995C1.25022 9.94995 1.50022 10.7 2.00022 11.25C2.05022 11.3 2.10022 11.35 2.15022 11.4V12.6C2.15022 13.35 2.70022 13.95 3.50022 14C4.25022 14 4.80022 13.35 4.80022 12.65V12.2H5.90022C5.90022 12.2 5.90022 12.2 5.95022 12.2H10.1002C10.1002 12.2 10.1002 12.2 10.1502 12.2H11.2002V12.55C11.2002 12.6 11.2002 12.7 11.2002 12.75C11.3002 13.45 11.8502 14 12.5502 14C12.6002 14 12.6502 14 12.7002 14C13.0502 14 13.4002 13.85 13.6002 13.55C13.8002 13.25 13.9502 12.9 13.9002 12.6V11.45C13.9502 11.4 14.0502 11.35 14.1002 11.25C14.6002 10.7 14.8502 9.94995 14.8002 9.24995V9.14995C14.8002 8.09995 14.0502 7.29995 13.1002 7.09995ZM10.0002 8.19995L8.70022 7.29995C8.25022 6.99995 7.65022 6.99995 7.20022 7.29995L6.00022 8.14995C5.55022 7.64995 4.90022 7.29995 4.25022 7.14995C4.55022 6.79995 5.20022 6.39995 6.35022 6.39995H9.65022C10.8002 6.39995 11.4502 6.79995 11.7502 7.19995C11.1002 7.34995 10.5002 7.69995 10.0002 8.19995ZM3.95022 4.99995C3.95022 3.89995 4.85022 2.94995 5.95022 2.94995H10.1002C11.2002 2.94995 12.1002 3.89995 12.1002 4.99995V5.64995C12.0502 5.69995 12.0502 5.79995 12.0502 5.89995C12.0502 5.99995 12.0502 6.04995 12.1002 6.09995C11.6002 5.69995 10.8002 5.39995 9.65022 5.39995H6.35022C5.25022 5.39995 4.45022 5.69995 3.95022 6.09995V4.99995ZM2.30022 9.14995C2.35022 8.54995 2.85022 8.04995 3.45022 8.04995C4.20022 8.04995 4.95022 8.39995 5.45022 8.94995V11.2H4.25022C4.15022 11.2 4.10022 11.2 4.00022 11.2C3.65022 11.2 3.35022 11.05 3.05022 10.85C3.00022 10.75 2.95022 10.7 2.85022 10.7C2.80022 10.65 2.80022 10.65 2.75022 10.6C2.45022 10.2 2.25022 9.74995 2.30022 9.24995V9.14995ZM3.50022 13C3.30022 13 3.15022 12.8 3.15022 12.6V12C3.35022 12.1 3.60022 12.15 3.80022 12.15V12.65C3.80022 12.85 3.65022 13 3.50022 13ZM9.60023 11.2H6.40022V9.04995L7.80022 8.09995C7.95022 7.99995 8.10022 7.99995 8.20022 8.09995L9.60023 9.04995V11.2ZM10.6002 8.94995C11.1002 8.39995 11.8502 8.04995 12.6002 8.04995C13.2002 8.04995 13.7002 8.54995 13.7002 9.14995V9.24995C13.7502 9.74995 13.6002 10.25 13.2502 10.6C13.2002 10.65 13.1502 10.7 13.0502 10.75L13.0002 10.8C12.7002 11 12.3502 11.15 12.0002 11.2C11.9502 11.2 11.8502 11.2 11.7502 11.2H10.6002V8.94995ZM12.9002 12.65C12.9002 12.75 12.8502 12.85 12.8002 12.9C12.7002 12.95 12.6502 13 12.5502 13C12.4002 13 12.2002 12.9 12.2002 12.7V12.2C12.4502 12.2 12.6502 12.1 12.9002 12.05V12.65Z" fill="#2D373D"/>
</svg>
