<svg width="16" height="17" viewBox="0 0 16 17" fill="none" xmlns="http://www.w3.org/2000/svg">
<path d="M5.65311 3.94179C5.667 3.92894 5.68514 3.92188 5.70389 3.92188C5.72264 3.92188 5.74078 3.92894 5.75467 3.94179C5.7672 3.95337 5.78031 3.9643 5.79395 3.97454C6.13743 4.23237 6.78338 4.86085 7.37402 5.45997V6.60997C7.37402 6.88612 7.59788 7.10997 7.87402 7.10997C8.15017 7.10997 8.37402 6.88612 8.37402 6.60997V6.49623L8.38285 6.50557L8.44601 6.57254L8.46769 6.59562C8.65654 6.79709 8.97296 6.80733 9.17443 6.61848C9.3759 6.42963 9.3857 6.11275 9.19686 5.91128L9.17432 5.88729L9.1097 5.81877C9.05379 5.7596 8.97319 5.67456 8.87412 5.57078C8.71922 5.4085 8.51887 5.20007 8.29694 4.97278C8.25901 4.91281 8.20869 4.86146 8.14956 4.82234L8.10707 4.77916C7.53401 4.19728 6.83381 3.50941 6.41237 3.18847C6.21661 3.01686 5.96491 2.92188 5.70389 2.92188C5.44147 2.92188 5.18847 3.01788 4.99227 3.19123C4.58217 3.51233 3.86706 4.19494 3.27195 4.77798C2.9659 5.07782 2.68396 5.35893 2.4786 5.565C2.37588 5.66808 2.29222 5.75248 2.23418 5.81117L2.16713 5.87908L2.14341 5.90317C1.94985 6.10012 1.95256 6.41673 2.14951 6.61029C2.34646 6.80385 2.66335 6.80078 2.8569 6.60383L2.87933 6.58105L2.94525 6.5143L2.97191 6.48735V8.05058C2.95418 8.31542 3.02002 8.5794 3.16047 8.8051C3.30518 9.03766 3.52135 9.2171 3.77665 9.31644C3.83445 9.33894 3.89594 9.35048 3.95797 9.35048H4.94379C5.21993 9.35048 5.44379 9.12662 5.44379 8.85048V7.36366C5.44379 7.35882 5.44372 7.35399 5.44358 7.34915C5.44268 7.3181 5.44816 7.28721 5.45967 7.25841C5.47118 7.22961 5.48847 7.2035 5.51046 7.18169C5.53244 7.1599 5.55863 7.14288 5.5874 7.13166C5.61617 7.12045 5.64692 7.11528 5.67775 7.11646C5.689 7.11689 5.70026 7.11694 5.71151 7.11661C5.74143 7.11573 5.77121 7.12101 5.79902 7.13214C5.82683 7.14327 5.85209 7.16001 5.87321 7.18135C5.89433 7.20268 5.91088 7.22817 5.92179 7.25623C5.9327 7.2843 5.93774 7.31431 5.93658 7.34441C5.92595 7.62035 6.14102 7.85266 6.41696 7.86329C6.6929 7.87392 6.92521 7.65884 6.93584 7.3829C6.94227 7.21598 6.91435 7.04951 6.85381 6.89383C6.79328 6.73814 6.70141 6.59653 6.58387 6.47781C6.46633 6.35909 6.32565 6.26578 6.17053 6.20371C6.02064 6.14373 5.86039 6.11416 5.69907 6.11666C5.53691 6.1127 5.37552 6.14098 5.22428 6.19992C5.0678 6.26091 4.92553 6.35341 4.80629 6.47166C4.68707 6.5899 4.59339 6.73138 4.53107 6.88733C4.46977 7.04072 4.4401 7.20489 4.44379 7.36997V8.35048H4.07755C4.05061 8.33057 4.02746 8.30562 4.0095 8.27677C3.97895 8.22767 3.9651 8.16995 3.97006 8.11226C3.97129 8.098 3.97191 8.0837 3.97191 8.06938V5.49217C4.5863 4.89023 5.26766 4.24305 5.62006 3.96979C5.63148 3.96094 5.6425 3.95159 5.65311 3.94179Z" fill="#2D373D"/>
<path fill-rule="evenodd" clip-rule="evenodd" d="M11.3517 5.2261C10.5269 5.2261 9.85905 5.89516 9.85905 6.7196C9.85905 7.54404 10.5269 8.21309 11.3517 8.21309C12.1765 8.21309 12.8444 7.54404 12.8444 6.7196C12.8444 5.89516 12.1765 5.2261 11.3517 5.2261ZM10.859 6.7196C10.859 6.44665 11.08 6.2261 11.3517 6.2261C11.6234 6.2261 11.8444 6.44665 11.8444 6.7196C11.8444 6.99254 11.6234 7.21309 11.3517 7.21309C11.08 7.21309 10.859 6.99254 10.859 6.7196Z" fill="#2D373D"/>
<path fill-rule="evenodd" clip-rule="evenodd" d="M8.14565 12.3266C8.00624 12.776 7.89339 13.2017 7.84915 13.5259C7.82915 13.6276 7.80819 13.8303 7.87166 14.0625C7.95106 14.353 8.15629 14.6588 8.56619 14.8428C8.58136 14.8496 8.59686 14.8557 8.61263 14.8609C8.76888 14.9131 8.9343 14.9321 9.09832 14.9167C9.26234 14.9013 9.42133 14.8518 9.56514 14.7715C9.70895 14.6912 9.83441 14.5817 9.93354 14.4502C10.0289 14.3236 10.0979 14.1792 10.1365 14.0256L10.2254 13.7338C10.3187 13.8943 10.4205 14.073 10.5287 14.2682C10.6396 14.4775 10.8108 14.6488 11.0203 14.7599C11.2403 14.8766 11.4657 14.9095 11.6935 14.8834C11.7079 14.8817 11.7222 14.8795 11.7365 14.8766C11.9753 14.8278 12.2499 14.7021 12.4415 14.4624C12.6146 14.2458 12.7063 13.9754 12.7007 13.6983C12.6985 13.5887 12.6876 13.4783 12.6489 13.3594C12.6133 13.2499 12.5611 13.1564 12.5176 13.0805C12.5061 13.0605 12.4938 13.0393 12.4806 13.0165C12.3929 12.8653 12.264 12.6432 12.0641 12.2203C11.9461 11.9706 11.6481 11.8639 11.3984 11.9819C11.1488 12.0998 11.042 12.3979 11.16 12.6476C11.3779 13.1087 11.5239 13.3603 11.6143 13.5159C11.6272 13.5383 11.639 13.5586 11.6498 13.5774C11.6701 13.6129 11.6819 13.6347 11.6898 13.6505C11.6949 13.6609 11.697 13.6661 11.6977 13.668C11.6986 13.6732 11.7003 13.6876 11.7009 13.7184C11.7018 13.7618 11.6874 13.8042 11.6604 13.838C11.6527 13.8476 11.6192 13.8751 11.5579 13.8917C11.5258 13.8931 11.5091 13.8872 11.4889 13.8765C11.4559 13.859 11.429 13.832 11.4117 13.7988L11.4059 13.788C11.1417 13.3114 10.9137 12.9282 10.7512 12.6633C10.67 12.5308 10.605 12.4277 10.56 12.3573C10.5376 12.3221 10.5201 12.2951 10.508 12.2766L10.4941 12.2552L10.4903 12.2494L10.4886 12.247C10.3818 12.0855 10.1913 12.0003 9.99972 12.0282C9.80814 12.0561 9.64987 12.1921 9.59344 12.3772L9.17583 13.7476C9.17266 13.758 9.16982 13.7685 9.16733 13.7791C9.16144 13.8042 9.15039 13.8278 9.1349 13.8484C9.11942 13.8689 9.09985 13.886 9.07746 13.8985C9.05507 13.911 9.03034 13.9187 9.00485 13.9211C8.98637 13.9228 8.96777 13.9217 8.94968 13.9179C8.90073 13.8924 8.87667 13.8686 8.86474 13.8542C8.85019 13.8367 8.84166 13.8185 8.83628 13.7988C8.83043 13.7774 8.82866 13.755 8.8292 13.736C8.82943 13.7277 8.83004 13.7219 8.83037 13.7193C8.83363 13.7046 8.83622 13.6897 8.83815 13.6748C8.87291 13.4052 8.98662 12.9766 9.15261 12.4584C9.31564 11.9495 9.51916 11.3842 9.71928 10.854C9.91911 10.3245 10.1141 9.83392 10.2592 9.47552C10.3047 9.36299 10.3453 9.26359 10.3796 9.18021C10.4044 9.18623 10.4287 9.19448 10.4523 9.20493C10.5422 9.24472 10.6159 9.31411 10.6611 9.40169C10.6724 9.42359 10.6853 9.44462 10.6997 9.46461C10.8782 9.7126 11.1358 9.89015 11.3754 10.0176C11.6211 10.1484 11.888 10.2473 12.1259 10.3208C12.3657 10.3949 12.588 10.4468 12.7498 10.4802C12.8226 10.4952 12.8839 10.5067 12.93 10.5148C12.9503 10.5309 12.9672 10.5513 12.9794 10.5748C12.9985 10.6118 13.0047 10.6542 12.9968 10.6952C12.9959 10.7001 12.995 10.7051 12.9942 10.7101C12.9894 10.74 12.9732 10.7669 12.9491 10.7849C12.925 10.803 12.895 10.811 12.8652 10.8072C12.8517 10.8056 12.8382 10.8044 12.8246 10.8038C12.4617 10.7884 12.2093 10.7453 12.0039 10.6748C11.8033 10.6059 11.6242 10.5029 11.4182 10.3378C11.2028 10.165 10.8881 10.1996 10.7154 10.4151C10.5426 10.6305 10.5772 10.9452 10.7927 11.1179C11.0676 11.3383 11.3466 11.5064 11.6793 11.6206C12.0026 11.7316 12.3533 11.7836 12.7642 11.8022C13.0437 11.8312 13.3242 11.7537 13.5494 11.5847C13.7787 11.4126 13.9328 11.1589 13.9803 10.8765C14.0284 10.6172 13.9887 10.3493 13.8674 10.115C13.745 9.87852 13.5465 9.69012 13.3038 9.5803C13.2615 9.56115 13.2165 9.54796 13.1706 9.54117L13.169 9.54094L13.1592 9.53939C13.1499 9.53791 13.1354 9.53553 13.1163 9.53222C13.078 9.52558 13.0216 9.51524 12.9519 9.50086C12.8118 9.47194 12.6221 9.4275 12.4212 9.36541C12.2184 9.30275 12.0159 9.22568 11.8451 9.13481C11.6846 9.04942 11.5824 8.9677 11.5269 8.90054C11.3758 8.63045 11.1409 8.41615 10.8571 8.29052C10.5585 8.15832 10.2236 8.13228 9.90816 8.21676C9.90252 8.21827 9.89692 8.21987 9.89136 8.22157C9.47468 8.05883 9.02472 7.99286 8.57577 8.03088C8.00696 8.07906 7.4646 8.29204 7.01496 8.64365C6.39662 9.09639 5.99705 9.63895 5.8408 10.1997C5.68251 10.7677 5.78119 11.3446 6.14478 11.7803C6.2444 11.9007 6.62344 12.266 7.21423 12.3802C7.5025 12.4359 7.81636 12.4273 8.14565 12.3266ZM9.33654 9.08968C9.33512 9.09319 9.33369 9.09672 9.33226 9.10026C9.18517 9.46358 8.98713 9.96185 8.78369 10.5009C8.74437 10.605 8.70479 10.7109 8.66529 10.8177C8.08095 11.4218 7.64808 11.4455 7.40395 11.3984C7.12488 11.3444 6.94066 11.1677 6.91964 11.1476L6.91776 11.1458L6.91306 11.1402C6.78477 10.9868 6.72297 10.7593 6.80411 10.4681C6.88686 10.1711 7.12484 9.80105 7.61138 9.44636L7.61992 9.43999L7.62608 9.43522C7.9236 9.20104 8.2831 9.05925 8.66015 9.02732C8.88868 9.00797 9.11761 9.02948 9.33654 9.08968Z" fill="#2D373D"/>
</svg>
