<svg width="32" height="33" viewBox="0 0 32 33" fill="none" xmlns="http://www.w3.org/2000/svg">
<path fill-rule="evenodd" clip-rule="evenodd" d="M23.4817 6.51229C21.3861 5.91068 18.581 5.58998 15.9999 5.58984C13.4189 5.58971 10.6139 5.91034 8.51826 6.51195C7.45772 6.81641 6.71117 7.15599 6.27341 7.46809C6.12029 7.57725 6.03969 7.6559 6 7.70208V16.923C6 19.977 7.39406 22.8327 9.43881 24.9505C11.5155 27.1014 14.0277 28.2565 16.0001 28.2565C17.9724 28.2566 20.4845 27.1016 22.5612 24.9507C24.6059 22.8329 26 19.9771 26 16.923V7.7023C25.9603 7.65613 25.8797 7.5775 25.7267 7.46839C25.2889 7.15631 24.5423 6.81675 23.4817 6.51229ZM26.0341 7.75087C26.0341 7.75087 26.0292 7.74497 26.024 7.73283C26.0323 7.74476 26.0341 7.75087 26.0341 7.75087ZM5.9659 7.75063C5.9659 7.75063 5.96769 7.74451 5.97601 7.73257C5.97085 7.74471 5.9659 7.75063 5.9659 7.75063ZM16 3.58984C21.4229 3.59012 28 4.92318 28 7.58972V16.923C28 24.2565 21.3333 30.2567 16 30.2565C10.6667 30.2564 4 24.2564 4 16.923V7.58957C4 4.9229 10.5771 3.58956 16 3.58984Z" fill="#2D373D"/>
<path d="M21.0444 14.9231H17.004V10.9231C17.004 10.3732 16.5495 9.92318 15.9939 9.92318C15.4384 9.92318 14.9838 10.3732 14.9838 10.9231V14.9231H10.9434C10.3879 14.9231 9.93333 15.3731 9.93333 15.9231C9.93333 16.4731 10.3879 16.9231 10.9434 16.9231H14.9838V20.9231C14.9838 21.4731 15.4384 21.9231 15.9939 21.9231C16.5495 21.9231 17.004 21.4731 17.004 20.9231V16.9231H21.0444C21.6 16.9231 22.0545 16.4731 22.0545 15.9231C22.0545 15.3731 21.6 14.9231 21.0444 14.9231Z" fill="#2D373D"/>
</svg>
