<svg width="32" height="32" viewBox="0 0 32 32" fill="none" xmlns="http://www.w3.org/2000/svg">
<path d="M18.1 13.3999C18.6 13.1999 18.9 12.5999 18.7 12.0999C18.6 11.6999 18.5 11.3999 18.5 10.9999C18.6 10.4999 18.7 9.99995 19 9.79995C19.2 10.0999 19.5 10.3999 19.9 10.5999C20.4 10.7999 21.2 11.0999 22.2 10.6999C23.2 10.2999 23.9 9.59995 24.1 8.69995C24.2 8.49995 24.2 8.19995 24.2 7.99995C24.9 8.99995 25.4 10.0999 25.4 10.9999C25.4 11.8999 25 12.8999 24.3 13.4999C23.9 13.8999 23.8 14.4999 24.2 14.8999C24.4 15.0999 24.6 15.1999 24.9 15.1999C25.1 15.1999 25.4 15.0999 25.6 14.9999C26.7 13.9999 27.4 12.4999 27.4 10.9999C27.4 8.49995 25.1 4.89995 22.2 4.09995C21.8 3.89995 21.3 4.09995 21.1 4.49995C20.8 4.89995 20.9 5.39995 21.2 5.69995C21.8 6.29995 22.3 7.39995 22.1 8.09995C22 8.29995 21.9 8.49995 21.5 8.69995C21.1 8.79995 20.9 8.79995 20.8 8.69995C20.4 8.49995 20.2 7.79995 20.1 7.59995C20 7.29995 19.8 6.99995 19.5 6.99995C19.1 6.89995 18.8 6.99995 18.5 7.19995C17.4 8.19995 16.7 9.49995 16.5 10.8999V10.9999C16.5 11.5999 16.6 12.1999 16.8 12.7999C17 13.2999 17.6 13.5999 18.1 13.3999Z" fill="#2D373D"/>
<path d="M24.7 18.7999L23.2 15.6999C22.8 14.7999 21.9 14.2999 21 14.2999H13.3C12.4 14.2999 11.5 14.8999 11.1 15.6999L9.6 18.6999H8C6.9 18.6999 5.9 19.1999 5.2 19.8999C4.4 20.6999 4 21.5999 4 22.6999V24.1999C4 25.5999 5.1 26.6999 6.5 26.6999H8.7C9.1 27.4999 9.9 28.0999 10.9 28.0999C11.9 28.0999 12.8 27.4999 13.2 26.5999H20.4C20.8 27.4999 21.7 28.0999 22.7 28.0999C23.7 28.0999 24.5 27.4999 24.9 26.5999H25.6C27 26.5999 28.1 25.4999 28 24.1999V22.6999C28 20.6999 26.6 19.0999 24.7 18.7999ZM13.3 16.1999H21.1C21.3 16.1999 21.4 16.2999 21.5 16.4999L22.6 18.7999H11.7L12.9 16.4999C13 16.2999 13.1 16.1999 13.3 16.1999ZM10.9 26.0999C10.6 26.0999 10.4 25.8999 10.4 25.5999C10.4 25.2999 10.6 25.0999 10.9 25.0999C11.2 25.0999 11.4 25.2999 11.4 25.5999C11.4 25.8999 11.2 26.0999 10.9 26.0999ZM22.7 26.0999C22.4 26.0999 22.2 25.8999 22.2 25.5999C22.2 25.2999 22.4 25.0999 22.7 25.0999C22.8 25.0999 23 25.1999 23.1 25.3999C23.1 25.4999 23.1 25.4999 23.1 25.5999C23.1 25.6999 23.1 25.7999 23.1 25.7999C23 25.9999 22.9 26.0999 22.7 26.0999ZM26.1 24.0999C26.1 24.3999 25.9 24.5999 25.6 24.5999H25C24.6 23.6999 23.7 23.0999 22.7 23.0999C21.7 23.0999 20.8 23.6999 20.4 24.5999H13.2C12.8 23.6999 11.9 23.0999 10.9 23.0999C9.8 23.0999 8.9 23.7999 8.6 24.6999H6.5C6.2 24.6999 6 24.4999 6 24.1999V22.6999C6 22.0999 6.2 21.5999 6.5 21.3999C6.9 20.9999 7.4 20.7999 7.9 20.7999H10.1C10.2 20.7999 10.2 20.7999 10.3 20.7999L24 20.6999H24.2C25.2 20.6999 26.1 21.4999 26.1 22.5999V24.0999Z" fill="#2D373D"/>
</svg>
