<svg width="16" height="16" viewBox="0 0 16 16" fill="none" xmlns="http://www.w3.org/2000/svg">
<path d="M11.6998 8.85007C11.7498 9.05007 11.9498 9.25007 12.1498 9.30007C12.1998 9.35007 12.2998 9.35007 12.3498 9.35007C12.7498 9.35007 13.0498 9.05007 13.0498 8.65007C13.0498 8.55007 13.0498 8.50007 12.9998 8.45007C12.9498 8.25007 12.7498 8.05007 12.5498 8.00007C12.4998 7.95007 12.3998 7.95007 12.3498 7.95007C12.2998 7.95007 12.1998 7.95007 12.1498 8.00007C11.9498 8.05007 11.7498 8.25007 11.6998 8.45007C11.6498 8.50007 11.6498 8.60007 11.6498 8.65007C11.6498 8.70007 11.6498 8.75007 11.6998 8.85007Z" fill="#2D373D"/>
<path d="M3.4498 9.30007C3.4998 9.35007 3.5998 9.35007 3.6498 9.35007C3.6998 9.35007 3.7998 9.35007 3.8498 9.30007C4.0498 9.25007 4.2498 9.05007 4.2998 8.85007C4.3498 8.80007 4.3498 8.70007 4.3498 8.65007C4.3498 8.60007 4.3498 8.50007 4.2998 8.45007C4.2498 8.25007 4.0498 8.05007 3.8498 8.00007C3.7998 7.95007 3.6998 7.95007 3.6498 7.95007C3.5998 7.95007 3.4998 7.95007 3.4498 8.00007C3.1998 8.00007 3.0498 8.20007 2.9998 8.40007C2.9498 8.45007 2.9498 8.55007 2.9498 8.60007C2.9498 8.65007 2.9498 8.75007 2.9998 8.80007C3.0498 9.05007 3.1998 9.20007 3.4498 9.30007Z" fill="#2D373D"/>
<path d="M13.2998 6.3001L12.4998 4.5001C12.2498 3.8001 11.5498 3.3501 10.8498 3.3501H5.1498C4.3998 3.3501 3.7498 3.8001 3.5498 4.4501L2.7498 6.2501C1.9498 6.3501 1.2998 7.0001 1.2998 7.8501V9.9001C1.2998 10.2501 1.4498 10.5501 1.6998 10.7501V11.2501C1.6998 12.0001 2.2998 12.6001 3.0498 12.6001C3.7498 12.6001 4.3498 12.0001 4.3998 11.2501V10.9501H11.5998V11.2501C11.5998 12.0001 12.1998 12.6001 12.9498 12.6001C13.6998 12.6001 14.2998 12.0001 14.2998 11.2501V10.7501C14.5498 10.5501 14.6998 10.2501 14.6998 9.9001V7.8501C14.6998 7.0501 14.0998 6.3501 13.2998 6.3001ZM4.4498 4.8501C4.5498 4.5501 4.8498 4.3501 5.1498 4.3501H10.8498C11.1498 4.3501 11.4498 4.5501 11.5498 4.8501L12.1998 6.2501H3.7998L4.4498 4.8501ZM2.2998 7.8501C2.2998 7.5001 2.5498 7.2501 2.9498 7.2501H13.0998C13.4498 7.2501 13.6998 7.5001 13.6998 7.8501V9.9001C13.6998 9.9501 13.6998 9.9501 13.6498 9.9501H2.3498C2.2998 9.9501 2.2998 9.9501 2.2998 9.9001V7.8501ZM3.3998 11.2501C3.3998 11.4501 3.2498 11.6001 3.0498 11.6001C2.8498 11.6001 2.6998 11.4501 2.6998 11.2501V10.9501H3.3998V11.2501ZM12.9498 11.6001C12.7498 11.6001 12.5998 11.4501 12.5998 11.2501V10.9501H13.2998V11.2501C13.2998 11.4501 13.1498 11.6001 12.9498 11.6001Z" fill="#2D373D"/>
</svg>
