<svg width="32" height="33" viewBox="0 0 32 33" fill="none" xmlns="http://www.w3.org/2000/svg">
<path fill-rule="evenodd" clip-rule="evenodd" d="M4 24.1289C4 23.5766 4.44772 23.1289 5 23.1289H12C12.5523 23.1289 13 23.5766 13 24.1289C13 24.6812 12.5523 25.1289 12 25.1289H5C4.44772 25.1289 4 24.6812 4 24.1289Z" fill="#2D373D"/>
<path fill-rule="evenodd" clip-rule="evenodd" d="M4 16.1289C4 15.5766 4.44772 15.1289 5 15.1289H13.6667C14.219 15.1289 14.6667 15.5766 14.6667 16.1289C14.6667 16.6812 14.219 17.1289 13.6667 17.1289H5C4.44772 17.1289 4 16.6812 4 16.1289Z" fill="#2D373D"/>
<path d="M22.3842 25.4922C22.3808 25.4958 22.3773 25.4993 22.3738 25.5028C21.9832 25.8934 21.3501 25.8934 20.9596 25.5028L15.6262 20.1695C15.2357 19.779 15.2357 19.1458 15.6262 18.7553C16.0168 18.3648 16.6499 18.3648 17.0404 18.7553L20.6667 22.3815V12.7956C20.6667 12.2433 21.1144 11.7956 21.6667 11.7956C22.219 11.7956 22.6667 12.2433 22.6667 12.7956V22.3814L26.2929 18.7551C26.6834 18.3646 27.3166 18.3646 27.7071 18.7551C28.0976 19.1457 28.0976 19.7788 27.7071 20.1693L22.3842 25.4922Z" fill="#2D373D"/>
<path fill-rule="evenodd" clip-rule="evenodd" d="M4 8.12891C4 7.57662 4.44772 7.12891 5 7.12891H21.6667C22.219 7.12891 22.6667 7.57662 22.6667 8.12891C22.6667 8.68119 22.219 9.12891 21.6667 9.12891H5C4.44772 9.12891 4 8.68119 4 8.12891Z" fill="#2D373D"/>
</svg>
