<svg width="24" height="25" viewBox="0 0 24 25" fill="none" xmlns="http://www.w3.org/2000/svg">
<path d="M16.0583 8.21854C15.8821 8.21854 15.7096 8.20354 15.5333 8.16979C14.8096 8.03104 14.1871 7.61854 13.7708 7.01104C13.3583 6.40354 13.2083 5.66854 13.3471 4.94854C13.4858 4.22479 13.8983 3.60229 14.5058 3.18604C15.1133 2.77354 15.8483 2.62354 16.5721 2.76229C18.0646 3.05104 19.0433 4.49479 18.7583 5.98729C18.6196 6.70729 18.2071 7.33354 17.5996 7.74604C17.1383 8.05729 16.6058 8.22229 16.0621 8.22229L16.0583 8.21854ZM16.0471 4.20979C15.7996 4.20979 15.5558 4.28479 15.3458 4.42729C15.0683 4.61479 14.8808 4.89979 14.8171 5.22979C14.7533 5.55979 14.8208 5.89354 15.0083 6.16729C15.1958 6.44104 15.4808 6.63229 15.8108 6.69604C16.1408 6.75979 16.4746 6.69229 16.7521 6.50104C17.0296 6.31354 17.2171 6.02854 17.2808 5.69854C17.4121 5.01979 16.9658 4.35979 16.2871 4.22854C16.2083 4.21354 16.1258 4.20604 16.0471 4.20604V4.20979Z" fill="#2D373D"/>
<path d="M16.5421 22.2098C16.2946 22.2098 16.0508 22.1573 15.8183 22.0523C15.3871 21.8573 15.0608 21.5085 14.8921 21.066C13.6546 17.4623 10.5833 15.7448 10.5496 15.726C8.86957 14.6985 8.47582 13.4798 9.31582 11.976L10.1408 10.5098C9.52582 10.6898 8.76457 11.0348 8.01832 11.706C7.17082 12.4373 6.13582 12.2085 5.58832 11.6235C5.57707 11.6123 5.56957 11.601 5.55832 11.5898C4.91332 10.8173 5.02207 9.80853 5.83207 9.01728C5.93707 8.90853 8.76082 6.07728 12.8783 6.94728C13.2833 7.03353 13.5421 7.43104 13.4558 7.83604C13.3696 8.24104 12.9721 8.49978 12.5671 8.41353C9.27457 7.71603 6.98707 9.98104 6.88957 10.0785C6.56707 10.3935 6.63082 10.5248 6.69082 10.6035C6.74332 10.6523 6.85582 10.716 7.02457 10.5735C9.16207 8.64979 11.4833 8.81853 11.5808 8.82603C11.8358 8.84853 12.0608 8.99479 12.1808 9.22354C12.3008 9.45229 12.2971 9.71854 12.1733 9.94354L10.6208 12.7035C10.2833 13.3035 10.1371 13.7085 11.2996 14.421C11.4158 14.4848 14.8808 16.4235 16.2983 20.5485C16.3246 20.616 16.3921 20.6573 16.4296 20.676C16.4671 20.691 16.5421 20.7173 16.6321 20.6835C16.7708 20.631 16.8383 20.4773 16.7858 20.3385C16.7783 20.3235 16.7746 20.3085 16.7708 20.2935C15.5371 16.3223 12.4921 14.3948 12.4583 14.376C12.1171 14.1623 12.0008 13.716 12.1996 13.3673L13.5008 11.0873C13.6733 10.7835 14.0371 10.641 14.3746 10.7423C16.9846 11.5448 19.5046 9.63604 19.7596 9.43728C20.1121 9.08478 20.0183 8.96853 19.9658 8.90854C19.8758 8.79979 19.8196 8.79603 19.8008 8.79603C19.7146 8.78853 19.5908 8.84478 19.5083 8.92353C19.4858 8.94603 19.4596 8.96853 19.4296 8.98728C16.5271 11.0385 14.8096 10.281 14.6221 10.1873C14.2508 10.0035 14.1008 9.55353 14.2846 9.18228C14.4683 8.81103 14.9183 8.66103 15.2896 8.84478C15.2896 8.84478 16.4183 9.26104 18.5221 7.78729C18.9083 7.44979 19.4146 7.26979 19.8946 7.29979C20.3671 7.32979 20.7908 7.55478 21.1133 7.94853C21.6158 8.54478 21.7996 9.54229 20.7796 10.536C20.7646 10.551 20.7496 10.5623 20.7346 10.5735C20.6108 10.6785 17.7946 12.9773 14.5171 12.3248L13.8346 13.521C14.9033 14.3498 17.1196 16.401 18.1921 19.8285C18.5221 20.7323 18.0608 21.7373 17.1608 22.0823C16.9583 22.161 16.7446 22.1985 16.5308 22.1985L16.5421 22.2098Z" fill="#2D373D"/>
<path d="M4.35456 20.5898C3.95706 20.5898 3.56706 20.451 3.25206 20.1885C2.89581 19.8923 2.67456 19.476 2.63331 19.0148C2.58831 18.5535 2.72706 18.1035 3.02331 17.7473C3.31956 17.391 3.73581 17.1698 4.19706 17.1285L6.95706 16.8623L7.89081 15.1223C8.08581 14.7585 8.54331 14.6198 8.90706 14.8148C9.27081 15.0098 9.40956 15.4635 9.21456 15.831L8.09331 17.9235C7.97331 18.1448 7.75581 18.291 7.50456 18.3135L4.34331 18.621C4.25706 18.6285 4.20456 18.6773 4.18206 18.7035C4.15956 18.7298 4.12206 18.7898 4.12956 18.8723C4.13706 18.951 4.17831 19.0035 4.21206 19.0298C4.23831 19.0523 4.29831 19.0898 4.38456 19.0823L7.92831 18.7823C7.92831 18.7823 7.94706 18.7748 7.96581 18.771C8.01081 18.7598 8.05581 18.7523 8.10456 18.7485C8.14581 18.7485 8.24331 18.7298 8.29956 18.6285L9.48081 16.4235C9.67581 16.0598 10.1296 15.921 10.4971 16.116C10.8608 16.311 10.9996 16.7648 10.8046 17.1323L9.62331 19.341C9.34956 19.851 8.85081 20.1848 8.27331 20.2448C8.20581 20.2598 8.13831 20.2748 8.06706 20.2785L4.52331 20.5785C4.47081 20.5823 4.41456 20.586 4.36206 20.586L4.35456 20.5898Z" fill="#2D373D"/>
<path d="M17.9071 16.8773C17.6708 16.8773 17.4383 16.7648 17.2921 16.5585C17.0558 16.221 17.1383 15.7523 17.4758 15.5123L18.9346 14.4885C19.2758 14.2485 19.7408 14.331 19.9808 14.6723C20.2171 15.0098 20.1346 15.4785 19.7971 15.7185L18.3383 16.7423C18.2071 16.836 18.0571 16.8773 17.9071 16.8773Z" fill="#2D373D"/>
<path d="M16.7971 15.4785C16.6283 15.4785 16.4558 15.4223 16.3171 15.3023C15.9983 15.036 15.9571 14.5635 16.2233 14.2448L17.3671 12.8798C17.6333 12.561 18.1058 12.5198 18.4246 12.786C18.7433 13.0523 18.7846 13.5248 18.5183 13.8435L17.3746 15.2085C17.2246 15.3848 17.0146 15.4748 16.8008 15.4748L16.7971 15.4785Z" fill="#2D373D"/>
<path d="M18.8408 18.3998C18.5333 18.3998 18.2483 18.2123 18.1358 17.9048C17.9933 17.5148 18.1958 17.0835 18.5821 16.9448L20.2546 16.3335C20.6446 16.191 21.0758 16.3935 21.2146 16.7798C21.3571 17.1698 21.1546 17.601 20.7683 17.7398L19.0958 18.351C19.0096 18.381 18.9233 18.396 18.8408 18.396V18.3998Z" fill="#2D373D"/>
</svg>
