<svg width="24" height="25" viewBox="0 0 24 25" fill="none" xmlns="http://www.w3.org/2000/svg">
<path fill-rule="evenodd" clip-rule="evenodd" d="M19.1429 8.41433C19.1429 10.1238 17.7571 11.5096 16.0476 11.5096C14.3382 11.5096 12.9524 10.1238 12.9524 8.41433C12.9524 6.70488 14.3382 5.31909 16.0476 5.31909C17.7571 5.31909 19.1429 6.70488 19.1429 8.41433ZM17.6429 8.41433C17.6429 9.29535 16.9287 10.0096 16.0476 10.0096C15.1666 10.0096 14.4524 9.29535 14.4524 8.41433C14.4524 7.5333 15.1666 6.81909 16.0476 6.81909C16.9287 6.81909 17.6429 7.5333 17.6429 8.41433Z" fill="#2D373D"/>
<path d="M9.732 15.2708C8.03165 15.039 6.35494 15.5312 5.34694 16.0572C4.97972 16.2488 4.52669 16.1065 4.33506 15.7393C4.14343 15.3721 4.28578 14.919 4.653 14.7274C5.86723 14.0938 7.85719 13.5014 9.93461 13.7846C11.2907 13.9694 12.6605 14.5258 13.8504 15.6425C14.4101 15.2656 15.2045 14.8858 16.094 14.7574C17.2042 14.5972 18.4754 14.8327 19.541 15.9424C19.8279 16.2412 19.8183 16.716 19.5195 17.0029C19.2207 17.2898 18.746 17.2801 18.4591 16.9814C17.7855 16.28 17.0277 16.1382 16.3083 16.2421C15.7599 16.3212 15.2434 16.5452 14.8518 16.7822C15.1429 17.1815 15.4164 17.6268 15.6684 18.1217C15.8563 18.4908 15.7093 18.9424 15.3402 19.1303C14.9711 19.3182 14.5195 19.1713 14.3316 18.8021C13.1127 16.4076 11.3837 15.496 9.732 15.2708Z" fill="#2D373D"/>
<path fill-rule="evenodd" clip-rule="evenodd" d="M2 3.89049C2 3.10151 2.63959 2.46191 3.42857 2.46191H20.5714C21.3604 2.46191 22 3.10151 22 3.89049V21.0333C22 21.8223 21.3604 22.4619 20.5714 22.4619H3.42857C2.63959 22.4619 2 21.8223 2 21.0333V3.89049ZM3.5 20.9619V3.96191H20.5V20.9619H3.5Z" fill="#2D373D"/>
</svg>
