<svg width="64" height="64" viewBox="0 0 64 64" fill="none" xmlns="http://www.w3.org/2000/svg">
<path d="M49.6538 8.27003C50.4999 7.96507 51.4153 7.90714 52.2931 8.10305C53.1718 8.29915 53.9765 8.74148 54.6129 9.37827C55.2493 10.0151 55.6912 10.8199 55.8868 11.6987C56.0823 12.577 56.0237 13.4927 55.718 14.3389C53.0916 21.6379 47.5408 35.1754 39.7843 42.9318C35.5297 47.1865 30.2612 47.8453 25.8893 48.2487C25.5618 48.2789 25.2409 48.3075 24.9264 48.3356C23.0643 48.5016 21.4235 48.648 19.9174 48.9924C18.2071 49.3835 16.8738 49.9923 15.8419 51.0242C15.7503 51.1158 15.652 51.1967 15.5485 51.2668L11.4142 55.401C10.6331 56.182 9.36677 56.1819 8.58574 55.4009C7.80472 54.6198 7.80476 53.3535 8.58583 52.5724L40.8162 20.344C41.5973 19.563 42.8636 19.5631 43.6446 20.3441C44.4256 21.1252 44.4256 22.3915 43.6445 23.1726L22.2397 44.5761C23.038 44.4864 23.8368 44.4158 24.6164 44.3468C24.921 44.3199 25.2242 44.2931 25.5218 44.2656C29.8806 43.8634 33.805 43.2543 36.9559 40.1034C44.01 33.0493 49.3178 20.3116 51.9548 12.983L51.9559 12.9799C52.0037 12.8478 52.0129 12.7049 51.9824 12.5678C51.9519 12.4308 51.8829 12.3052 51.7837 12.2059C51.6844 12.1066 51.5589 12.0376 51.4219 12.007C51.2848 11.9764 51.1419 11.9855 51.0098 12.0332L51.0072 12.0341C47.398 13.3318 42.3613 15.3208 37.3326 17.8849C32.2802 20.4611 27.3568 23.5576 23.8838 27.0325L23.8694 27.0469C21.8928 28.9847 20.6249 31.5304 20.2693 34.2753C20.1656 35.1721 20.1847 36.0789 20.326 36.9707C20.4988 38.0616 19.7546 39.0861 18.6636 39.259C17.5727 39.4319 16.5481 38.6876 16.3753 37.5966C16.1763 36.3405 16.1501 35.0631 16.2976 33.7999L16.3003 33.7768C16.7679 30.14 18.4451 26.7662 21.0617 24.1977C24.9662 20.2936 30.3134 16.974 35.5156 14.3214C40.7445 11.6552 45.9495 9.60193 49.6538 8.27003Z" fill="#2D373D"/>
<path d="M23.2322 52.0122C22.1276 52.0122 21.2322 52.9076 21.2322 54.0122C21.2322 55.1168 22.1276 56.0122 23.2322 56.0122H48.1783C49.2828 56.0122 50.1783 55.1168 50.1783 54.0122C50.1783 52.9076 49.2828 52.0122 48.1783 52.0122H23.2322Z" fill="#2D373D"/>
</svg>
