<svg width="24" height="24" viewBox="0 0 24 24" fill="none" xmlns="http://www.w3.org/2000/svg">
<path d="M16.3502 13.05C15.2252 13.05 14.3252 13.95 14.3252 15.075C14.3252 16.2 15.2252 17.1 16.3502 17.1C17.4752 17.1 18.3002 16.2 18.3752 15.075C18.3752 13.95 17.4752 13.05 16.3502 13.05ZM16.3502 15.675C16.0502 15.675 15.8252 15.45 15.8252 15.15C15.8252 14.85 16.0502 14.625 16.3502 14.625C16.6502 14.625 16.8752 14.85 16.8752 15.15C16.8752 15.45 16.6502 15.675 16.3502 15.675Z" fill="#2D373D"/>
<path d="M20.7002 15.0751L21.6002 14.1001C21.9752 13.6501 22.2002 13.0501 22.0502 12.4501C21.8252 11.4001 20.7752 10.8001 19.8002 11.0251L18.6002 11.3251L18.5252 11.2501L18.1502 10.0501C18.0752 10.0501 18.0752 9.97506 18.0752 9.97506C17.8502 9.45006 17.4002 9.00006 16.8752 8.85006C15.9002 8.55006 14.8502 9.07506 14.5502 10.0501L14.1002 11.3251C14.1002 11.4001 14.0252 11.4001 14.0252 11.4001L12.8252 11.1001C12.2252 10.9501 11.6252 11.1001 11.1752 11.5501C10.8002 11.8501 10.5752 12.3001 10.5752 12.8251C10.5752 13.3501 10.8002 13.8001 11.1002 14.1751L11.9252 15.0751V15.1501L11.1002 16.0501C10.7252 16.5001 10.5002 17.1001 10.6502 17.7001C10.8002 18.2251 11.0252 18.6001 11.4752 18.9001C11.9252 19.1251 12.3752 19.2001 12.9002 19.1251L14.1002 18.8251C14.1002 18.8251 14.1752 18.8251 14.1752 18.9001L14.5502 20.1001C14.7752 20.7001 15.2252 21.2251 15.8252 21.3751C15.9752 21.4501 16.2002 21.4501 16.3502 21.4501C16.6502 21.4501 16.9502 21.3751 17.2502 21.1501C17.7002 20.8501 18.0002 20.4751 18.1502 20.0251L18.5252 18.8251C18.5252 18.7501 18.5252 18.7501 18.6002 18.7501L19.8002 19.0501C20.4002 19.2001 21.0002 19.0501 21.4502 18.6001C21.8252 18.3001 22.0502 17.8501 22.0502 17.3251C22.0502 16.8001 21.8252 16.3501 21.5252 15.9751L20.7002 15.0751ZM19.6502 16.2751L20.4752 17.1751C20.5502 17.2501 20.5502 17.3251 20.5502 17.4001C20.4752 17.4001 20.4752 17.5501 20.4002 17.6251C20.3252 17.7001 20.2502 17.7001 20.1002 17.7001L18.9002 17.4001C18.0752 17.1751 17.2502 17.7001 17.0252 18.4501L16.6502 19.6501C16.6502 19.8001 16.5752 19.8751 16.5002 19.8751C16.4252 19.8751 16.3502 19.8751 16.2002 19.8751C16.1252 19.8751 15.9752 19.8001 15.9752 19.6501L15.6002 18.4501C15.3752 17.7751 14.8502 17.4001 14.1752 17.4001C14.1002 17.4001 13.8752 17.3251 13.7252 17.4751L12.6002 17.7751C12.4502 17.7751 12.3752 17.7751 12.3002 17.7751C12.2252 17.7751 12.0752 17.6251 12.0752 17.4751C12.0752 17.4001 12.1502 17.2501 12.2252 17.1751L13.0502 16.2751C13.5752 15.6751 13.5752 14.7001 13.0502 14.1001L12.2252 13.2001C12.0752 13.0501 12.0752 12.8251 12.2252 12.6751C12.3002 12.6001 12.4502 12.6001 12.5252 12.6001L13.7252 12.9001C14.5502 13.1251 15.3752 12.6001 15.6002 11.8501L15.9752 10.6501C16.0502 10.5001 16.2752 10.3501 16.4252 10.4251C16.5002 10.4251 16.6502 10.5001 16.6502 10.6501V10.7251L17.0252 11.8501C17.2502 12.6001 18.0752 13.0501 18.9002 12.9001L20.1002 12.6001C20.2502 12.6001 20.3252 12.6751 20.4002 12.6751C20.4752 12.6751 20.5502 12.7501 20.5502 12.9001C20.6252 12.9751 20.5502 13.1251 20.4752 13.2001L19.6502 14.1001C19.1252 14.7001 19.1252 15.6751 19.6502 16.2751Z" fill="#2D373D"/>
<path d="M5.77516 9.45003C5.70016 9.37503 5.55016 9.37503 5.47516 9.37503C5.40016 9.37503 5.25016 9.37503 5.17516 9.45003C4.87516 9.52503 4.57516 9.82503 4.50016 10.125C4.42516 10.2 4.42516 10.35 4.42516 10.425C4.42516 10.875 4.72516 11.25 5.17516 11.4C5.25016 11.475 5.40016 11.475 5.47516 11.475C5.55016 11.475 5.70016 11.475 5.77516 11.4C6.07516 11.325 6.37516 11.025 6.45016 10.725C6.52516 10.65 6.52516 10.5 6.52516 10.425C6.52516 10.35 6.52516 10.2 6.45016 10.125C6.37516 9.82503 6.15016 9.52503 5.77516 9.45003Z" fill="#2D373D"/>
<path d="M8.9252 12.525H3.9752C3.6752 12.525 3.4502 12.3 3.4502 12V10.125C3.4502 9.15005 4.2002 8.40005 5.1752 8.40005H17.4752C18.0752 8.40005 18.6752 8.77505 18.9752 9.30005C19.2002 9.67505 19.6502 9.82505 20.0252 9.60005C20.4002 9.37505 20.5502 8.92505 20.3252 8.55005C20.0252 7.95005 19.5002 7.42505 18.9002 7.20005L17.5502 4.27505C17.1752 3.22505 16.1252 2.55005 15.0752 2.55005H7.7252C6.6002 2.55005 5.6252 3.22505 5.2502 4.20005L3.9752 7.12505C2.7752 7.57505 1.9502 8.77505 1.9502 10.125V12C1.9502 12.525 2.1752 13.05 2.5502 13.35V14.4C2.5502 15.525 3.4502 16.425 4.5752 16.425C5.6252 16.425 6.5252 15.6 6.6002 14.475V13.95H8.9252C9.3002 13.95 9.6752 13.725 9.6752 13.275C9.6752 12.825 9.3752 12.525 8.9252 12.525ZM6.6752 4.80005C6.8252 4.35005 7.2752 4.05005 7.7252 4.05005H15.0752C15.5252 4.05005 15.9752 4.35005 16.1252 4.80005L17.1002 6.90005H5.7002L6.6752 4.80005ZM5.1002 14.475C5.1002 14.775 4.8752 15 4.5752 15C4.2752 15 4.0502 14.775 4.0502 14.475V13.95H5.1002V14.475Z" fill="#2D373D"/>
</svg>
