<svg width="32" height="33" viewBox="0 0 32 33" fill="none" xmlns="http://www.w3.org/2000/svg">
<path fill-rule="evenodd" clip-rule="evenodd" d="M15.9988 8.52124C13.771 8.52124 11.6344 9.40624 10.0591 10.9815C8.48379 12.5568 7.5988 14.6934 7.5988 16.9212C7.5988 19.1491 8.48379 21.2856 10.0591 22.8609C11.6344 24.4362 13.771 25.3212 15.9988 25.3212C17.7673 25.3212 19.4782 24.7636 20.8966 23.7456C20.9105 23.7365 20.9243 23.727 20.9379 23.7172C20.9516 23.7072 20.965 23.6969 20.9781 23.6864C21.3165 23.4373 21.6377 23.1617 21.9385 22.8609C23.5138 21.2856 24.3988 19.1491 24.3988 16.9212C24.3988 16.0543 24.2648 15.2012 24.0082 14.3896C24.0028 14.3681 23.9966 14.3467 23.9896 14.3253C23.9827 14.304 23.9751 14.2831 23.967 14.2626C23.5582 13.0377 22.8687 11.9118 21.9385 10.9815C20.3636 9.40661 18.2276 8.52166 16.0004 8.52124H15.9988ZM21.702 14.0173C21.3998 13.4237 21.0041 12.8756 20.5243 12.3958C19.5626 11.4341 18.3264 10.8101 16.9998 10.6V13.6018C17.5432 13.7654 18.0431 14.0614 18.4517 14.47C18.5988 14.6171 18.7314 14.7761 18.8484 14.9447L21.702 14.0173ZM19.4662 16.8469C19.4668 16.8717 19.467 16.8964 19.467 16.9213C19.467 17.683 19.2163 18.4189 18.7606 19.0186L20.5244 21.4466C21.7246 20.2464 22.3988 18.6186 22.3988 16.9212C22.3988 16.5836 22.3721 16.2487 22.3199 15.9194L19.4662 16.8469ZM18.9066 22.6225L17.1427 20.1943C16.7789 20.3213 16.393 20.3879 16.0004 20.3879C15.6077 20.3879 15.2218 20.3213 14.858 20.1943L13.0927 22.6234C13.9846 23.0779 14.9791 23.3212 15.9988 23.3212C17.0191 23.3212 18.0143 23.0776 18.9066 22.6225ZM16.8627 18.1074L16.8738 18.0995C16.9314 18.0568 16.9861 18.0097 17.0374 17.9583C17.3125 17.6833 17.467 17.3102 17.467 16.9213C17.467 16.5323 17.3125 16.1592 17.0374 15.8842C16.7624 15.6091 16.3893 15.4546 16.0004 15.4546C15.6114 15.4546 15.2383 15.6091 14.9633 15.8842C14.6882 16.1592 14.5337 16.5323 14.5337 16.9213C14.5337 17.3102 14.6882 17.6833 14.9633 17.9583C15.0137 18.0088 15.0675 18.0552 15.124 18.0973L15.1383 18.1075L15.1524 18.118C15.3986 18.2924 15.6946 18.3879 16.0004 18.3879C16.3074 18.3879 16.6045 18.2916 16.8513 18.1158L16.8627 18.1074ZM11.4746 21.448L13.2401 19.0186C12.7844 18.4189 12.5337 17.683 12.5337 16.9213C12.5337 16.8966 12.534 16.8719 12.5345 16.8472L9.67776 15.9188C9.62551 16.2483 9.5988 16.5834 9.5988 16.9212C9.5988 18.6186 10.2731 20.2465 11.4733 21.4467L11.4746 21.448ZM13.5491 14.47C13.4018 14.6172 13.2692 14.7763 13.1521 14.945L10.2958 14.0167C10.598 13.4233 10.9937 12.8754 11.4733 12.3958C12.4355 11.4336 13.6725 10.8094 14.9998 10.5997V13.6021C14.4569 13.7658 13.9573 14.0617 13.5491 14.47Z" fill="#2D373D"/>
<path fill-rule="evenodd" clip-rule="evenodd" d="M15.9998 3.58789C12.4636 3.58789 9.07223 4.99265 6.57175 7.49313C4.07126 9.99362 2.6665 13.385 2.6665 16.9212C2.6665 20.4574 4.07126 23.8488 6.57175 26.3493C9.07223 28.8498 12.4636 30.2546 15.9998 30.2546C19.5361 30.2546 22.9274 28.8498 25.4279 26.3493C27.9284 23.8488 29.3332 20.4574 29.3332 16.9212C29.3332 13.385 27.9284 9.99362 25.4279 7.49313C22.9274 4.99265 19.5361 3.58789 15.9998 3.58789ZM7.98596 8.90735C10.1114 6.78193 12.994 5.58789 15.9998 5.58789C19.0056 5.58789 21.8883 6.78193 24.0137 8.90735C26.1391 11.0328 27.3332 13.9154 27.3332 16.9212C27.3332 19.927 26.1391 22.8097 24.0137 24.9351C21.8883 27.0605 19.0056 28.2546 15.9998 28.2546C12.994 28.2546 10.1114 27.0605 7.98596 24.9351C5.86055 22.8097 4.6665 19.927 4.6665 16.9212C4.6665 13.9154 5.86055 11.0328 7.98596 8.90735Z" fill="#2D373D"/>
</svg>
