<svg width="24" height="25" viewBox="0 0 24 25" fill="none" xmlns="http://www.w3.org/2000/svg">
<path fill-rule="evenodd" clip-rule="evenodd" d="M9.24999 5.67188C9.24999 5.25766 9.58577 4.92188 9.99999 4.92188H16.2042C17.9788 4.92188 19.0663 5.75399 19.6858 6.60575C19.987 7.01989 20.1729 7.43022 20.2841 7.73588C20.34 7.88972 20.3781 8.02001 20.4028 8.11516C20.4152 8.16283 20.4243 8.20195 20.4306 8.23112C20.4338 8.24571 20.4363 8.25783 20.4382 8.26731L20.4406 8.27955L20.4415 8.28415L20.4418 8.28606C20.4418 8.28606 20.4421 8.28771 19.7042 8.42188L20.4421 8.28771C20.4438 8.29705 20.4453 8.30641 20.4467 8.31581L20.9484 11.8275L21.994 20.0776C22.0211 20.2912 21.9551 20.5062 21.8127 20.6677C21.6703 20.8293 21.4653 20.9219 21.25 20.9219H2.75C2.33579 20.9219 2 20.5861 2 20.1719C2 17.2589 2.71508 14.9874 4.13484 13.4399C5.56399 11.8821 7.60187 11.1719 9.99999 11.1719H19.3395L18.9649 8.54984C18.9624 8.53854 18.9579 8.51896 18.951 8.49226C18.9366 8.43702 18.9122 8.35247 18.8744 8.24849C18.798 8.03853 18.6715 7.76136 18.4727 7.488C18.0921 6.96476 17.4297 6.42188 16.2042 6.42188H9.99999C9.58577 6.42188 9.24999 6.08609 9.24999 5.67188ZM19.5433 12.6719H9.99999C7.89812 12.6719 6.311 13.2867 5.24015 14.4539C4.26349 15.5185 3.6304 17.1356 3.51799 19.4219H20.3989L19.5433 12.6719Z" fill="#2D373D"/>
<path d="M8.70713 17.629C8.3166 18.0195 7.68344 18.0195 7.29291 17.629C6.90239 17.2385 6.90239 16.6053 7.29291 16.2148C7.68344 15.8242 8.3166 15.8242 8.70713 16.2148C9.09765 16.6053 9.09765 17.2385 8.70713 17.629Z" fill="#2D373D"/>
<path d="M12.7071 17.629C12.3166 18.0195 11.6834 18.0195 11.2929 17.629C10.9024 17.2385 10.9024 16.6053 11.2929 16.2148C11.6834 15.8242 12.3166 15.8242 12.7071 16.2148C13.0977 16.6053 13.0977 17.2385 12.7071 17.629Z" fill="#2D373D"/>
<path d="M16.7071 17.629C16.3166 18.0195 15.6834 18.0195 15.2929 17.629C14.9024 17.2385 14.9024 16.6053 15.2929 16.2148C15.6834 15.8242 16.3166 15.8242 16.7071 16.2148C17.0977 16.6053 17.0977 17.2385 16.7071 17.629Z" fill="#2D373D"/>
</svg>
