<svg width="24" height="25" viewBox="0 0 24 25" fill="none" xmlns="http://www.w3.org/2000/svg">
<path d="M13.65 15.1601C13.2 15.1601 12.9 15.4601 12.9 15.9101V17.3351H4.5V6.68512C4.5 6.23512 4.65 5.86012 4.95 5.63512C5.25 5.33512 5.625 5.18512 6 5.18512H9.975C10.425 5.18512 10.725 4.88512 10.725 4.43512C10.725 3.98512 10.425 3.68512 9.975 3.68512H6C5.175 3.68512 4.425 3.98512 3.9 4.58512C3.3 5.11012 3 5.86012 3 6.68512V19.5101C3 21.1601 4.35 22.5101 6 22.5101H11.4C12.15 22.5101 12.9 22.2101 13.5 21.6101C14.1 21.0851 14.4 20.3351 14.4 19.5101V15.9101C14.4 15.4601 14.1 15.1601 13.65 15.1601ZM12.45 20.5601C12.15 20.8601 11.775 21.0101 11.4 21.0101H6C5.175 21.0101 4.5 20.3351 4.5 19.5101V18.8351H12.9V19.5101C12.9 19.8851 12.75 20.2601 12.45 20.5601Z" fill="#2D373D"/>
<path d="M19.7251 5.86016H17.6251V3.76016C17.6251 3.01016 17.0251 2.41016 16.2751 2.41016H13.9501C13.2001 2.41016 12.6001 3.01016 12.6001 3.76016V5.86016H10.5001C9.75015 5.86016 9.15015 6.46016 9.15015 7.21016V9.46015C9.15015 10.2102 9.75015 10.8102 10.5001 10.8102H12.6001V12.9102C12.6001 13.6602 13.2001 14.2602 13.9501 14.2602H16.2751C17.0251 14.2602 17.6251 13.6602 17.6251 12.9852V10.8852H19.7251C20.4751 10.8852 21.0751 10.2852 21.0751 9.53516V7.21016C21.0751 6.46016 20.4751 5.86016 19.7251 5.86016ZM19.5751 9.31016H16.8751C16.4251 9.31016 16.1251 9.61016 16.1251 10.0602V12.7602H14.1751V10.0602C14.1751 9.61016 13.8751 9.31016 13.4251 9.31016H10.7251V7.36016H13.4251C13.8751 7.36016 14.1751 7.06016 14.1751 6.61016V3.91016H16.1251V6.61016C16.1251 7.06016 16.4251 7.36016 16.8751 7.36016H19.5751V9.31016Z" fill="#2D373D"/>
</svg>
