<svg width="16" height="17" viewBox="0 0 16 17" fill="none" xmlns="http://www.w3.org/2000/svg">
<path fill-rule="evenodd" clip-rule="evenodd" d="M12.8316 8.08724L7.83278 8.08724V13.7513C7.83278 13.8839 7.7801 14.0111 7.68633 14.1049C7.59256 14.1986 7.46538 14.2513 7.33278 14.2513H2.59272C1.96849 14.2513 1.33398 13.7998 1.33398 13.0956V3.40965C1.33398 2.70538 1.96849 2.25391 2.59272 2.25391L12.0728 2.25391C12.6971 2.25391 13.3316 2.70538 13.3316 3.40966V7.58724C13.3316 7.86338 13.1077 8.08724 12.8316 8.08724ZM12.3316 3.40966V3.85417H7.83278V3.25391L12.0728 3.25391C12.1665 3.25391 12.2391 3.28683 12.2824 3.32427C12.3247 3.36082 12.3316 3.3924 12.3316 3.40966ZM7.83278 4.85417H12.3316V5.45443H7.83278V4.85417ZM6.83278 5.45443V4.85417H2.33398V5.45443H6.83278ZM2.33398 6.45443H6.83278V7.08724H2.33398V6.45443ZM7.83278 6.45443H12.3316V7.08724H7.83278V6.45443ZM6.83278 3.25391V3.85417H2.33398V3.40965C2.33398 3.3924 2.34087 3.36081 2.38316 3.32426C2.42648 3.28682 2.49903 3.25391 2.59272 3.25391L6.83278 3.25391ZM6.83278 8.08724H2.33398L2.33398 13.0956C2.33398 13.1128 2.34087 13.1444 2.38316 13.1809C2.42648 13.2184 2.49903 13.2513 2.59272 13.2513H6.83278V8.08724Z" fill="#2D373D"/>
<path d="M10.0414 10.2515C10.5069 9.78604 11.2121 9.61443 11.8888 9.71355L11.1152 10.4872C11.0476 10.5548 10.8307 10.7813 10.7168 11.1003C10.6572 11.267 10.6199 11.4752 10.661 11.7042C10.7029 11.9381 10.8201 12.1564 11.0104 12.3466C11.201 12.5372 11.4197 12.6543 11.6539 12.6959C11.8831 12.7366 12.0914 12.6989 12.2579 12.6393C12.5768 12.5251 12.8031 12.3086 12.8698 12.2419L13.6435 11.4682C13.7426 12.1449 13.571 12.8502 13.1055 13.3156C12.8772 13.544 12.6117 13.71 12.329 13.8149L12.16 13.8523C11.931 13.903 11.768 14.106 11.768 14.3405V15.0852C11.768 15.3614 11.9918 15.5852 12.268 15.5852C12.5441 15.5852 12.768 15.3614 12.768 15.0852V14.7171C13.1486 14.5622 13.5049 14.3305 13.8126 14.0227C14.8175 13.0179 14.869 11.4486 14.3268 10.3135C14.2568 10.167 14.1201 10.0636 13.9601 10.0362C13.8001 10.0088 13.6368 10.0607 13.522 10.1754L12.1627 11.5348C12.1247 11.5728 12.0263 11.6601 11.9208 11.6978C11.8752 11.7141 11.8465 11.7144 11.8289 11.7113C11.8162 11.709 11.7783 11.7004 11.7175 11.6395C11.6563 11.5784 11.6475 11.5403 11.6453 11.5277C11.6421 11.5102 11.6424 11.4818 11.6585 11.4367C11.6959 11.332 11.7828 11.2337 11.8223 11.1943L13.1816 9.83499C13.2963 9.72022 13.3483 9.55688 13.3208 9.39691C13.2934 9.23693 13.19 9.10023 13.0435 9.03027C11.9085 8.48804 10.3392 8.53952 9.33428 9.5444C8.09761 10.7811 8.09758 12.7861 9.33425 14.0228C9.61697 14.3055 9.94065 14.524 10.2865 14.6778V15.0852C10.2865 15.3614 10.5104 15.5852 10.7865 15.5852C11.0626 15.5852 11.2865 15.3614 11.2865 15.0852V14.3405C11.2865 14.1375 11.1638 13.9547 10.9759 13.8778L10.8674 13.8334L10.8548 13.8284L10.8455 13.825C10.5525 13.7208 10.2771 13.5514 10.0414 13.3157C9.19523 12.4695 9.19523 11.0977 10.0414 10.2515Z" fill="#2D373D"/>
</svg>
