<svg width="16" height="17" viewBox="0 0 16 17" fill="none" xmlns="http://www.w3.org/2000/svg">
<path d="M14.1998 4.51016H10.2498C10.1498 3.31016 9.1998 2.41016 7.9998 2.41016C6.7998 2.41016 5.8498 3.31016 5.7498 4.51016H1.7998C1.4998 4.51016 1.2998 4.71016 1.2998 5.01016V13.3102C1.2998 13.6102 1.4998 13.8102 1.7998 13.8102H14.1998C14.4998 13.8102 14.6998 13.6102 14.6998 13.3102V5.01016C14.6998 4.71016 14.4998 4.51016 14.1998 4.51016ZM7.9998 3.41016C8.6498 3.41016 9.1498 3.86016 9.2498 4.51016H6.7998C6.8498 3.91016 7.3498 3.41016 7.9998 3.41016ZM13.6998 12.8102H2.2998V8.86016H6.64981C6.69981 9.56016 7.2998 10.0602 7.9998 10.0602C8.6998 10.0602 9.2998 9.56016 9.2998 8.86016H13.6998V12.8102V12.8102ZM7.64981 8.76016V7.96016C7.64981 7.86016 7.6998 7.76016 7.7498 7.71016C7.8498 7.66016 7.8998 7.61016 7.9998 7.61016C8.1998 7.61016 8.3498 7.76016 8.3498 7.91016V8.76016C8.3498 8.96016 8.1998 9.11016 7.9998 9.11016C7.7998 9.11016 7.64981 8.96016 7.64981 8.76016ZM13.6998 7.86016H9.2998C9.2498 7.16016 8.6998 6.61016 7.9998 6.61016C7.6498 6.56016 7.2998 6.71016 7.0498 6.96016C6.7998 7.21016 6.64981 7.51016 6.64981 7.86016H2.2998V5.51016H13.6998V7.86016Z" fill="#2D373D"/>
</svg>
