<svg width="24" height="25" viewBox="0 0 24 25" fill="none" xmlns="http://www.w3.org/2000/svg">
<path d="M19.1998 12.6246C18.7498 12.6246 18.4498 12.9246 18.4498 13.3746V20.0496C18.4498 20.2746 18.2998 20.4246 18.0748 20.4246H17.6248V16.2246C17.6248 15.3996 17.2498 14.6496 16.7248 14.1246C16.1998 13.5996 15.4498 13.2996 14.6248 13.2996C13.0498 13.3746 11.8498 14.6496 11.7748 16.2246V20.4246H5.9248C5.6998 20.4246 5.5498 20.2746 5.5498 20.0496V13.3746C5.5498 12.9246 5.2498 12.6246 4.7998 12.6246C4.3498 12.6246 4.0498 12.9246 4.0498 13.3746V20.0496C4.0498 21.0996 4.8748 21.9246 5.9248 21.9246H18.0748C19.0498 21.9246 19.9498 21.0996 19.9498 20.0496V13.3746C19.9498 12.9246 19.6498 12.6246 19.1998 12.6246ZM13.2748 20.4246V16.2246C13.2748 15.4746 13.9498 14.7996 14.6998 14.7996C15.1498 14.7246 15.4498 14.8746 15.7498 15.1746C16.0498 15.4746 16.1998 15.8496 16.1998 16.2246V20.4246H13.2748Z" fill="#2D373D"/>
<path d="M20.0248 4.89961C19.8748 4.29961 19.3498 3.84961 18.7498 3.84961H5.2498C4.5748 3.84961 4.0498 4.29961 3.8998 4.82461L2.9248 9.39961C2.9248 9.47461 2.9248 9.47461 2.9248 9.54961C2.9248 10.8996 3.9748 12.0246 5.3248 12.0246C5.9998 12.0246 6.59981 11.7246 6.97481 11.3496C7.42481 11.7246 8.0248 12.0246 8.62481 12.0246C9.29981 12.0246 9.8998 11.7246 10.3498 11.3496C10.7248 11.7246 11.3998 12.0246 11.9998 12.0246C12.5998 12.0246 13.1998 11.7246 13.6498 11.3496C14.0998 11.7996 14.6248 12.0246 15.2998 12.0246C15.8998 12.0246 16.4998 11.7246 16.9498 11.3496C17.3998 11.7996 17.9248 12.0246 18.5998 12.0246C19.9498 12.0246 20.9998 10.8996 21.0748 9.62461C21.0748 9.54961 21.0748 9.54961 21.0748 9.47461L20.0248 4.89961ZM18.5998 10.4496C18.0748 10.4496 17.6998 10.0746 17.6998 9.54961C17.6998 9.09961 17.3998 8.79961 16.9498 8.79961C16.5748 8.79961 16.1998 9.17461 16.1248 9.54961C16.1248 10.0746 15.7498 10.4496 15.2248 10.4496C14.6998 10.4496 14.3248 10.0746 14.3248 9.54961C14.3248 9.09961 14.0248 8.79961 13.5748 8.79961C13.1248 8.79961 12.8248 9.09961 12.8248 9.54961C12.8248 10.0746 12.4498 10.4496 11.9248 10.4496C11.3998 10.4496 11.0248 10.0746 11.0248 9.54961C11.0248 9.09961 10.7248 8.79961 10.2748 8.79961C9.8248 8.79961 9.5248 9.09961 9.5248 9.54961C9.5248 10.0746 9.14981 10.4496 8.62481 10.4496C8.09981 10.4496 7.72481 10.0746 7.72481 9.54961C7.72481 9.09961 7.42481 8.79961 6.97481 8.79961C6.52481 8.79961 6.22481 9.09961 6.22481 9.54961C6.22481 10.0746 5.8498 10.4496 5.3248 10.4496C4.8748 10.4496 4.4248 10.0746 4.4248 9.62461L5.3998 5.34961H18.5998L19.4998 9.62461C19.4998 10.0746 19.0498 10.4496 18.5998 10.4496Z" fill="#2D373D"/>
<path d="M10.05 17.5746C10.5 17.5746 10.8 17.2746 10.875 16.8246V13.9746C10.875 13.5246 10.575 13.2246 10.125 13.2246H7.27502C6.82502 13.2246 6.52502 13.5246 6.52502 13.9746V16.8246C6.52502 17.2746 6.82502 17.5746 7.27502 17.5746H10.05ZM8.02502 14.7246H9.37503V16.0746H8.02502V14.7246Z" fill="#2D373D"/>
</svg>
