<svg width="32" height="33" viewBox="0 0 32 33" fill="none" xmlns="http://www.w3.org/2000/svg">
<path fill-rule="evenodd" clip-rule="evenodd" d="M25.5237 11.0655C25.5237 13.3447 23.6759 15.1924 21.3967 15.1924C19.1174 15.1924 17.2697 13.3447 17.2697 11.0655C17.2697 8.78619 19.1174 6.93848 21.3967 6.93848C23.6759 6.93848 25.5237 8.78619 25.5237 11.0655ZM23.5237 11.0655C23.5237 12.2402 22.5714 13.1924 21.3967 13.1924C20.222 13.1924 19.2697 12.2402 19.2697 11.0655C19.2697 9.89076 20.222 8.93848 21.3967 8.93848C22.5714 8.93848 23.5237 9.89076 23.5237 11.0655Z" fill="#2D373D"/>
<path d="M12.9758 20.2074C10.7087 19.8984 8.47309 20.5546 7.1291 21.256C6.63947 21.5115 6.03542 21.3217 5.77991 20.832C5.52441 20.3424 5.71421 19.7384 6.20383 19.4829C7.8228 18.638 10.4761 17.8482 13.246 18.2258C15.0541 18.4723 16.8804 19.2141 18.4671 20.703C19.2133 20.2004 20.2725 19.6941 21.4585 19.5229C22.9388 19.3093 24.6337 19.6233 26.0545 21.1029C26.437 21.5013 26.4242 22.1343 26.0258 22.5168C25.6275 22.8994 24.9944 22.8865 24.6119 22.4882C23.7139 21.553 22.7034 21.364 21.7442 21.5024C21.013 21.608 20.3243 21.9067 19.8023 22.2226C20.1904 22.7551 20.5551 23.3487 20.891 24.0086C21.1415 24.5008 20.9456 25.1029 20.4534 25.3534C19.9612 25.6039 19.3591 25.408 19.1086 24.9159C17.4834 21.7231 15.178 20.5077 12.9758 20.2074Z" fill="#2D373D"/>
<path fill-rule="evenodd" clip-rule="evenodd" d="M2.6665 5.03367C2.6665 3.9817 3.5193 3.12891 4.57127 3.12891H27.4284C28.4804 3.12891 29.3332 3.9817 29.3332 5.03367V27.8908C29.3332 28.9428 28.4804 29.7956 27.4284 29.7956H4.57127C3.5193 29.7956 2.6665 28.9428 2.6665 27.8908V5.03367ZM4.6665 27.7956V5.12891H27.3332V27.7956H4.6665Z" fill="#2D373D"/>
</svg>
