<svg width="64" height="64" viewBox="0 0 64 64" fill="none" xmlns="http://www.w3.org/2000/svg">
<path fill-rule="evenodd" clip-rule="evenodd" d="M26.2428 20.4606C26.2428 13.8533 31.5991 8.49695 38.2065 8.49695C44.8138 8.49695 50.1701 13.8533 50.1701 20.4606C50.1701 26.6173 45.5178 31.6901 39.5382 32.3511C38.4403 32.4725 37.6487 33.4609 37.7701 34.5588C37.8914 35.6566 38.8798 36.4483 39.9777 36.3269C47.9616 35.4443 54.1701 28.6789 54.1701 20.4606C54.1701 11.6441 47.0229 4.49695 38.2065 4.49695C31.1165 4.49695 25.1061 9.11892 23.024 15.5141C22.4104 15.4111 21.7808 15.3575 21.1397 15.3575C14.8938 15.3575 9.83057 20.4208 9.83057 26.6666C9.83057 32.9125 14.8938 37.9757 21.1397 37.9757C22.7456 37.9757 24.2784 37.6398 25.6673 37.0324C26.6793 36.5899 27.141 35.4107 26.6984 34.3986C26.2558 33.3866 25.0767 32.9249 24.0646 33.3675C23.1715 33.758 22.1837 33.9757 21.1397 33.9757C17.103 33.9757 13.8306 30.7033 13.8306 26.6666C13.8306 22.6299 17.103 19.3575 21.1397 19.3575C21.5265 19.3575 21.9054 19.3874 22.2746 19.4448C22.2535 19.7807 22.2428 20.1194 22.2428 20.4606C22.2428 21.3648 22.3182 22.253 22.4634 23.1188C22.6462 24.2081 23.6774 24.9431 24.7668 24.7603C25.8561 24.5775 26.5911 23.5463 26.4083 22.4569C26.2996 21.809 26.2428 21.1422 26.2428 20.4606Z" fill="#2D373D"/>
<path fill-rule="evenodd" clip-rule="evenodd" d="M33.541 32.5765C34.2884 32.8861 34.7757 33.6153 34.7757 34.4243V42.7745L38.4888 43.305C39.2178 43.4091 39.8306 43.9055 40.0839 44.5969C40.3372 45.2884 40.19 46.0632 39.7008 46.6136L27.2887 60.5772C26.737 61.1978 25.8592 61.413 25.0831 61.1179C24.3069 60.8228 23.7938 60.0789 23.7938 59.2485V50.7252L19.1027 49.5524C18.4037 49.3777 17.8527 48.8404 17.6603 48.146C17.468 47.4516 17.6641 46.7074 18.1736 46.1979L31.3614 33.01C31.9334 32.438 32.7937 32.2669 33.541 32.5765ZM23.4998 46.5286L26.2789 47.2234C27.1692 47.4459 27.7938 48.2459 27.7938 49.1636V53.9881L34.2381 46.7383L32.4928 46.489C31.5075 46.3482 30.7757 45.5044 30.7757 44.5091V39.2527L23.4998 46.5286Z" fill="#2D373D"/>
</svg>
