<svg width="64" height="65" viewBox="0 0 64 65" fill="none" xmlns="http://www.w3.org/2000/svg">
<path fill-rule="evenodd" clip-rule="evenodd" d="M12.3982 18.1247C13.3232 17.2005 14.5773 16.6813 15.885 16.6813C17.1931 16.6813 18.4476 17.2008 19.3727 18.1256M19.3727 18.1256L24.5584 23.3093C25.0167 23.7674 25.3805 24.3115 25.6286 24.9102C25.8767 25.5089 26.0044 26.1506 26.0044 26.7987C26.0044 27.4468 25.8767 28.0886 25.6286 28.6873C25.3806 29.2857 25.0172 29.8295 24.5591 30.2875C24.3841 30.4625 24.2858 30.6998 24.2858 30.9472C24.2858 31.1947 24.3841 31.4319 24.559 31.6069L32.8537 39.9036C33.0287 40.0785 33.266 40.1768 33.5134 40.1768C33.7609 40.1768 33.9982 40.0785 34.1732 39.9036C34.6312 39.4455 35.1749 39.082 35.7734 38.834C36.3721 38.5859 37.0138 38.4582 37.6619 38.4582C38.3101 38.4582 38.9518 38.5859 39.5505 38.834C40.1488 39.082 40.6924 39.4453 41.1504 39.9032L46.3382 45.0872C46.7966 45.5453 47.1604 46.0893 47.4085 46.6881C47.6566 47.2868 47.7843 47.9285 47.7843 48.5766C47.7843 49.2247 47.6566 49.8665 47.4085 50.4652C47.1604 51.064 46.7967 51.6079 46.3383 52.066L45.1092 53.2951C43.3716 55.0337 41.0924 56.128 38.6491 56.3963C36.2055 56.6647 33.7434 56.0913 31.6698 54.771C31.6452 54.7554 31.621 54.7392 31.5971 54.7225L31.5911 54.7182C22.976 48.8952 15.5563 41.4754 9.73338 32.8601C9.71373 32.8311 9.69485 32.8015 9.67676 32.7714C8.36681 30.703 7.79842 28.2505 8.06533 25.8162C8.33325 23.3726 9.42681 21.0936 11.1653 19.3556L12.3982 18.1247M33.8439 51.4133C35.1441 52.2329 36.684 52.5881 38.2124 52.4202C39.7509 52.2513 41.1858 51.5625 42.2798 50.4676L43.5103 49.2372C43.597 49.1505 43.6663 49.0471 43.7132 48.9339C43.7601 48.8206 43.7843 48.6992 43.7843 48.5766C43.7843 48.4541 43.7601 48.3327 43.7132 48.2194C43.6663 48.1062 43.5975 48.0033 43.5108 47.9166L38.323 42.7327C38.2363 42.646 38.1325 42.5762 38.0192 42.5293C37.9059 42.4824 37.7845 42.4582 37.6619 42.4582C37.5394 42.4582 37.418 42.4824 37.3047 42.5293C37.1914 42.5762 37.0885 42.645 37.0019 42.7318C36.0768 43.6566 34.8215 44.1768 33.5134 44.1768C32.2053 44.1768 30.9508 43.6572 30.0257 42.7324L21.7303 34.435C20.8054 33.5099 20.2858 32.2553 20.2858 30.9472C20.2858 29.6391 20.8054 28.3846 21.7302 27.4595C21.8169 27.3728 21.8864 27.2692 21.9333 27.156C21.9803 27.0427 22.0044 26.9213 22.0044 26.7987C22.0044 26.6761 21.9803 26.5547 21.9333 26.4415C21.8864 26.3282 21.8176 26.2253 21.7309 26.1387L16.5448 20.9546C16.3698 20.7796 16.1325 20.6813 15.885 20.6813C15.6376 20.6813 15.4002 20.7796 15.2252 20.9545L13.9933 22.1845C12.8992 23.2786 12.2101 24.7141 12.0415 26.2522C11.8728 27.7907 12.2341 29.3407 13.0655 30.6462C13.0683 30.6505 13.071 30.6548 13.0737 30.6591C18.6095 38.8388 25.6596 45.8838 33.8439 51.4133Z" fill="#2D373D"/>
<path d="M55.8549 9.71229C55.7573 9.47005 55.6103 9.24306 55.414 9.04672C55.0235 8.65619 54.5116 8.46093 53.9998 8.46094C53.9997 8.46094 53.9999 8.46094 53.9998 8.46094H42.267C41.1625 8.46094 40.267 9.35637 40.267 10.4609C40.267 11.5655 41.1625 12.4609 42.267 12.4609H49.1714L33.5199 28.1124C32.7388 28.8935 32.7388 30.1598 33.5199 30.9408C34.3009 31.7219 35.5672 31.7219 36.3483 30.9408L51.9998 15.2894V22.1937C51.9998 23.2982 52.8952 24.1937 53.9998 24.1937C55.1043 24.1937 55.9998 23.2982 55.9998 22.1937V10.4609C55.9998 10.4401 55.9994 10.4194 55.9988 10.3987" fill="#2D373D"/>
</svg>
