<svg width="24" height="25" viewBox="0 0 24 25" fill="none" xmlns="http://www.w3.org/2000/svg">
<path d="M17.325 3.91016C15.675 2.93516 13.875 2.41016 12 2.41016C9.3 2.41016 6.825 3.46016 4.875 5.33516C3 7.21016 1.95 9.68516 1.95 12.3852C1.95 14.1852 2.4 15.9102 3.3 17.4102L1.95 21.6102C1.875 21.8352 1.95 22.1352 2.175 22.3602C2.325 22.5102 2.475 22.5852 2.7 22.5852C2.775 22.5852 2.925 22.5102 2.925 22.5102L6.975 21.1602C11.7 23.8602 17.7 22.3602 20.55 17.7102C23.475 13.0602 22.05 6.83516 17.325 3.91016ZM19.275 16.9602C16.8 21.0102 11.475 22.2102 7.5 19.7352C7.425 19.6602 7.275 19.5852 7.125 19.5852C7.05 19.5852 6.975 19.5852 6.9 19.5852L3.9 20.5602L4.875 17.4852C4.95 17.2602 4.95 17.0352 4.8 16.8852C3.975 15.5352 3.525 13.9602 3.525 12.3852C3.525 10.1352 4.425 7.96016 6 6.38516C7.575 4.81016 9.75 3.91016 12 3.91016C13.575 3.91016 15.15 4.36016 16.5 5.18516C20.55 7.66016 21.75 12.9852 19.275 16.9602Z" fill="#2D373D"/>
<path d="M16.2749 16.0602H15.6749V8.86023C15.6749 8.03523 14.9999 7.36023 14.1749 7.36023H9.89985C9.07485 7.36023 8.39985 8.03523 8.39985 8.86023V16.0602H7.72485C7.27485 16.0602 6.97485 16.3602 6.97485 16.8102C6.97485 17.2602 7.27485 17.5602 7.72485 17.5602H16.2749C16.7249 17.5602 17.0249 17.2602 17.0249 16.8102C17.0249 16.3602 16.7249 16.0602 16.2749 16.0602ZM9.89985 8.86023H14.1749V10.2852H11.9999C11.5499 10.2852 11.2499 10.5852 11.2499 11.0352C11.2499 11.4852 11.5499 11.7852 11.9999 11.7852H14.1749V13.1352H11.9999C11.5499 13.1352 11.2499 13.4352 11.2499 13.8852C11.2499 14.3352 11.5499 14.6352 11.9999 14.6352H14.1749V16.0602H9.89985V8.86023Z" fill="#2D373D"/>
</svg>
