<svg width="16" height="16" viewBox="0 0 16 16" fill="none" xmlns="http://www.w3.org/2000/svg">
<path d="M13.2499 3.90988C12.5556 3.03269 11.6511 2.34484 10.6203 1.91003C9.58954 1.47521 8.4657 1.30748 7.35287 1.42236C6.24003 1.53725 5.17416 1.93103 4.25393 2.56725C3.3337 3.20348 2.58886 4.06159 2.08835 5.06213C1.58785 6.06268 1.34786 7.17333 1.3906 8.29127C1.43334 9.4092 1.75743 10.4983 2.33287 11.4577C2.90831 12.4171 3.7165 13.2158 4.68262 13.78C5.64874 14.3441 6.74156 14.6553 7.85992 14.6849H8.03492C9.47674 14.6842 10.8797 14.2177 12.0349 13.3549C12.141 13.2753 12.2111 13.1569 12.2299 13.0256C12.2487 12.8943 12.2145 12.761 12.1349 12.6549C12.0554 12.5488 11.9369 12.4787 11.8056 12.4599C11.6744 12.4412 11.541 12.4753 11.4349 12.5549C10.416 13.3191 9.1688 13.7165 7.89562 13.6829C6.62243 13.6492 5.39797 13.1864 4.42087 12.3694C3.44377 11.5525 2.77135 10.4294 2.5127 9.18227C2.25405 7.93518 2.42434 6.63728 2.99594 5.49913C3.56755 4.36097 4.50694 3.44933 5.66172 2.9121C6.81649 2.37487 8.11891 2.24356 9.35769 2.53947C10.5965 2.83539 11.6989 3.54117 12.4862 4.54232C13.2735 5.54348 13.6994 6.78126 13.6949 8.05488V9.28488C13.6952 9.43456 13.6657 9.5828 13.6082 9.721C13.5507 9.85919 13.4663 9.98458 13.3599 10.0899C13.1431 10.2971 12.8548 10.4127 12.5549 10.4127C12.255 10.4127 11.9667 10.2971 11.7499 10.0899C11.6436 9.98458 11.5592 9.85919 11.5017 9.721C11.4441 9.5828 11.4147 9.43456 11.4149 9.28488V8.03488C11.4142 7.48098 11.2771 6.93578 11.0155 6.44754C10.7539 5.95929 10.376 5.54304 9.91524 5.23563C9.45447 4.92822 8.92504 4.73912 8.37378 4.68507C7.82252 4.63102 7.26643 4.71368 6.75473 4.92574C6.24303 5.13781 5.79148 5.47273 5.44006 5.90087C5.08863 6.32901 4.84815 6.83718 4.73991 7.3804C4.63166 7.92363 4.65898 8.48516 4.81945 9.01531C4.97992 9.54546 5.26859 10.0279 5.65992 10.4199C6.13192 10.8895 6.73195 11.2096 7.38492 11.3399C7.60216 11.3838 7.82329 11.4056 8.04492 11.4049C8.48745 11.4049 8.92569 11.3183 9.33492 11.1499C9.83893 10.9388 10.2836 10.6075 10.6299 10.1849C10.731 10.4043 10.8679 10.6054 11.0349 10.7799C11.3333 11.079 11.7136 11.2831 12.1278 11.3664C12.542 11.4498 12.9716 11.4087 13.3624 11.2483C13.7533 11.0879 14.0879 10.8153 14.3242 10.465C14.5604 10.1148 14.6877 9.70238 14.6899 9.27988V8.03488C14.6866 6.53721 14.1794 5.08422 13.2499 3.90988V3.90988ZM8.93992 10.2249C8.50653 10.4039 8.02992 10.4508 7.56992 10.3599C7.11073 10.2666 6.68929 10.0399 6.35841 9.70815C6.02753 9.37638 5.80194 8.95432 5.70992 8.49488C5.61177 7.99653 5.67632 7.47983 5.89405 7.02094C6.11179 6.56205 6.47119 6.18525 6.91928 5.94608C7.36737 5.70691 7.88045 5.61803 8.38288 5.69253C8.88531 5.76703 9.35052 6.00098 9.70992 6.35988C9.93162 6.57862 10.1073 6.8395 10.2267 7.12716C10.346 7.41482 10.4066 7.72345 10.4049 8.03488C10.4047 8.50315 10.2655 8.96082 10.0049 9.34988C9.74606 9.74207 9.37488 10.047 8.93992 10.2249V10.2249Z" fill="#2D373D"/>
</svg>
