<svg width="24" height="24" viewBox="0 0 24 24" fill="none" xmlns="http://www.w3.org/2000/svg">
<path d="M21.3752 12.525H18.9002C18.8252 11.175 17.7002 10.05 16.2752 10.05C14.8502 10.05 13.7252 11.175 13.6502 12.525H11.2502C10.8002 12.525 10.5002 12.825 10.5002 13.275V20.85C10.5002 21.3 10.8002 21.6 11.2502 21.6H21.3002C21.7502 21.6 22.0502 21.225 22.1252 20.85V13.275C22.1252 12.825 21.8252 12.525 21.3752 12.525ZM16.2752 11.55C16.8002 11.55 17.3252 12 17.4002 12.525H15.1502C15.2252 12 15.7502 11.55 16.2752 11.55ZM20.6252 14.025V15.675H17.0252C17.0252 15.3 16.7252 15 16.2752 15C15.8252 15 15.6002 15.3 15.5252 15.675H12.0002V14.025H20.6252ZM12.0002 20.1V17.175H15.5252V17.625C15.5252 18.075 15.8252 18.375 16.2752 18.375C16.6502 18.375 17.0252 18.075 17.0252 17.625V17.175H20.6252V20.1H12.0002Z" fill="#2D373D"/>
<path d="M5.85021 9.44997C5.77521 9.37497 5.62521 9.37497 5.55021 9.37497C5.47521 9.37497 5.32521 9.37497 5.25021 9.44997C4.95021 9.52497 4.65021 9.82497 4.57521 10.125C4.50021 10.2 4.50021 10.35 4.50021 10.425C4.50021 10.5 4.50021 10.65 4.57521 10.725C4.65021 11.025 4.95021 11.325 5.25021 11.4C5.32521 11.475 5.47521 11.475 5.55021 11.475C6.15021 11.475 6.60021 11.025 6.60021 10.425C6.60021 10.275 6.60021 10.2 6.52521 10.125C6.45021 9.82497 6.22521 9.52497 5.85021 9.44997Z" fill="#2D373D"/>
<path d="M8.4002 12.525H3.9752C3.9002 12.525 3.8252 12.525 3.7502 12.45L3.6752 12.375C3.5252 12.3 3.4502 12.15 3.4502 11.925V10.05C3.4502 8.99995 4.2752 8.24995 5.2502 8.24995H17.8502C18.4502 8.24995 19.0502 8.62495 19.3502 9.14995C19.5752 9.52495 20.0252 9.67495 20.4002 9.44995C20.7752 9.22495 20.9252 8.77495 20.7002 8.39995C20.3252 7.72495 19.7252 7.27495 19.0502 6.97495L17.7752 4.04995C17.4002 2.99995 16.4252 2.32495 15.3002 2.32495H7.8002C6.6752 2.32495 5.7002 2.99995 5.4002 3.97495L4.0502 6.97495C2.8502 7.49995 1.9502 8.62495 1.9502 10.05V12C1.9502 12.6 2.2502 13.125 2.6252 13.5V14.55C2.5502 15.075 2.7752 15.6 3.1502 15.975C3.5252 16.35 3.9752 16.575 4.5752 16.575C5.7002 16.575 6.6002 15.675 6.6752 14.625V14.025H8.4002C8.7752 14.025 9.1502 13.725 9.1502 13.275C9.1502 12.825 8.8502 12.525 8.4002 12.525ZM6.7502 4.64995C6.9002 4.19995 7.3502 3.89995 7.8002 3.89995H15.3002C15.7502 3.89995 16.2002 4.12495 16.3502 4.64995L17.3252 6.82495H5.7752L6.7502 4.64995ZM5.1752 14.55C5.1752 14.85 4.9502 15.075 4.6502 15.075C4.5002 15.075 4.3502 15 4.2752 14.925C4.2002 14.85 4.1252 14.7 4.1252 14.55V14.025H5.1752V14.55Z" fill="#2D373D"/>
</svg>
