<svg width="32" height="33" viewBox="0 0 32 33" fill="none" xmlns="http://www.w3.org/2000/svg">
<path d="M19.1327 13.2167C19.1327 12.6645 18.6849 12.2167 18.1327 12.2167C17.5804 12.2167 17.1327 12.6645 17.1327 13.2167V15.9056C17.1327 16.4579 17.5804 16.9056 18.1327 16.9056C18.6849 16.9056 19.1327 16.4579 19.1327 15.9056V13.2167Z" fill="#2D373D"/>
<path d="M23.9985 12.2167C24.5508 12.2167 24.9985 12.6645 24.9985 13.2167V15.9056C24.9985 16.4579 24.5508 16.9056 23.9985 16.9056C23.4463 16.9056 22.9985 16.4579 22.9985 15.9056V13.2167C22.9985 12.6645 23.4463 12.2167 23.9985 12.2167Z" fill="#2D373D"/>
<path d="M22.0662 11.0168C22.0662 10.4645 21.6185 10.0168 21.0662 10.0168C20.514 10.0168 20.0662 10.4645 20.0662 11.0168V15.9057C20.0662 16.4579 20.514 16.9057 21.0662 16.9057C21.6185 16.9057 22.0662 16.4579 22.0662 15.9057V11.0168Z" fill="#2D373D"/>
<path fill-rule="evenodd" clip-rule="evenodd" d="M3.93213 20.0612C3.93213 22.2335 5.69314 23.9945 7.86546 23.9945H12.5514L12.1514 26.3945H10.798C10.2457 26.3945 9.79801 26.8422 9.79801 27.3945C9.79801 27.9468 10.2457 28.3945 10.798 28.3945H21.0647C21.617 28.3945 22.0647 27.9468 22.0647 27.3945C22.0647 26.8422 21.617 26.3945 21.0647 26.3945H19.7123L19.3123 23.9945H23.9988C26.1711 23.9945 27.9321 22.2335 27.9321 20.0612V8.32786C27.9321 6.15554 26.1711 4.39453 23.9988 4.39453H7.86546C5.69314 4.39453 3.93213 6.15554 3.93213 8.32786V20.0612ZM7.86546 6.39453C6.79771 6.39453 5.93213 7.26011 5.93213 8.32786V12.7581L8.13613 10.5541C8.46113 10.2295 8.90213 10.0467 9.36146 10.0467C9.8208 10.0467 10.2614 10.2291 10.5864 10.5536L10.5977 10.565L12.2685 12.2884L15.9877 8.5692C16.3782 8.17868 17.0114 8.17868 17.4019 8.5692C17.7924 8.95972 17.7924 9.59289 17.4019 9.98341L13.4908 13.8945C13.1658 14.2191 12.7248 14.4019 12.2655 14.4019C11.8061 14.4019 11.3656 14.2196 11.0406 13.895L11.0292 13.8836L9.35846 12.1602L5.93213 15.5865V18.0834H25.9321V8.32786C25.9321 7.26011 25.0665 6.39453 23.9988 6.39453H7.86546ZM23.9988 21.9945C25.0591 21.9945 25.9201 21.1409 25.932 20.0834H5.93225C5.94416 21.1409 6.80513 21.9945 7.86546 21.9945H13.7287L13.7319 21.9945H18.1319L18.1351 21.9945H23.9988ZM14.179 26.3945L14.579 23.9945H17.2847L17.6847 26.3945H14.179Z" fill="#2D373D"/>
</svg>
