<svg width="64" height="65" viewBox="0 0 64 65" fill="none" xmlns="http://www.w3.org/2000/svg">
<path fill-rule="evenodd" clip-rule="evenodd" d="M16.0819 11.4103C17.9697 9.52249 20.5302 8.46191 23.2 8.46191C25.8698 8.46191 28.4303 9.52249 30.3181 11.4103C32.206 13.2982 33.2665 15.8587 33.2665 18.5285C33.2665 21.1983 32.206 23.7588 30.3181 25.6466C29.2919 26.6728 28.0669 27.4546 26.7337 27.9544C27.5203 28.1453 28.2942 28.3998 29.0476 28.7175C32.1377 30.0202 34.7085 32.3108 36.3577 35.2307C36.9009 36.1925 36.5616 37.4125 35.5999 37.9557C34.6381 38.4989 33.4181 38.1596 32.8748 37.1979C31.6608 35.0485 29.7684 33.3623 27.4937 32.4033C25.2191 31.4443 22.6906 31.2667 20.3042 31.8982C17.9178 32.5296 15.8081 33.9346 14.3055 35.8931C12.8029 37.8517 11.9921 40.2532 12.0001 42.7217C12.0036 43.8262 11.1111 44.7246 10.0065 44.7281C8.90197 44.7317 8.00365 43.8392 8.00008 42.7346C7.98924 39.3812 9.09067 36.1189 11.132 33.4583C13.1732 30.7977 16.0391 28.8891 19.281 28.0312C19.3984 28.0002 19.5162 27.9705 19.6341 27.9423C18.3133 27.442 17.0998 26.6646 16.0819 25.6466C14.194 23.7588 13.1334 21.1983 13.1334 18.5285C13.1334 15.8587 14.194 13.2982 16.0819 11.4103ZM23.2 12.4619C21.591 12.4619 20.048 13.1011 18.9103 14.2388C17.7726 15.3765 17.1334 16.9195 17.1334 18.5285C17.1334 20.1374 17.7726 21.6805 18.9103 22.8182C20.048 23.9559 21.591 24.595 23.2 24.595C24.8089 24.595 26.352 23.9559 27.4897 22.8182C28.6274 21.6805 29.2665 20.1374 29.2665 18.5285C29.2665 16.9195 28.6274 15.3765 27.4897 14.2388C26.352 13.1011 24.8089 12.4619 23.2 12.4619Z" fill="#2D373D"/>
<path fill-rule="evenodd" clip-rule="evenodd" d="M54.2 39.4875L39.2807 54.4088C39.0015 54.688 38.6459 54.8783 38.2587 54.9558L30.9254 56.4224C30.2697 56.5536 29.5918 56.3483 29.119 55.8755C28.6461 55.4026 28.4409 54.7248 28.572 54.069L30.0387 46.7358C30.1161 46.3487 30.3064 45.9931 30.5855 45.7139L45.5062 30.7913C46.6573 29.6406 48.2185 28.9939 49.846 28.9939C51.4735 28.9939 53.0345 29.6403 54.1855 30.791L54.2071 30.8129C54.2186 30.8248 54.23 30.8369 54.2413 30.849C54.7925 31.4098 55.2308 32.0716 55.5322 32.7982C55.8411 33.5429 56.0001 34.3413 56.0001 35.1475C56.0001 35.9537 55.8411 36.752 55.5322 37.4967C55.2235 38.2412 54.7704 38.9181 54.2 39.4875ZM48.3345 33.6198L33.8423 48.114L33.0827 51.9118L36.8803 51.1522L51.3728 36.6579C51.5712 36.4598 51.73 36.2232 51.8374 35.9643C51.9448 35.7054 52.0001 35.4278 52.0001 35.1475C52.0001 34.8672 51.9448 34.5896 51.8374 34.3307C51.73 34.0718 51.5726 33.8365 51.3742 33.6385C51.3648 33.6291 51.3555 33.6196 51.3463 33.61C51.3404 33.604 51.3346 33.5979 51.3289 33.5918C50.9309 33.2085 50.3995 32.9939 49.846 32.9939C49.2793 32.9939 48.7354 33.2192 48.3345 33.6198Z" fill="#2D373D"/>
</svg>
