<svg width="24" height="25" viewBox="0 0 24 25" fill="none" xmlns="http://www.w3.org/2000/svg">
<path d="M21.3002 4.43555H2.7002C2.2502 4.43555 1.9502 4.73555 1.9502 5.18555V19.7355C1.9502 20.1855 2.2502 20.4855 2.7002 20.4855H21.3002C21.6752 20.4855 22.0502 20.1855 22.0502 19.7355V5.18555C22.0502 4.73555 21.7502 4.43555 21.3002 4.43555ZM19.6502 5.93555L13.2752 11.4855C12.5252 12.1605 11.4752 12.1605 10.7252 11.4855L4.3502 5.93555H19.6502ZM3.4502 18.9855V7.06055L9.75019 12.5355C10.3502 13.1355 11.1752 13.4355 12.0002 13.4355C12.8252 13.4355 13.6502 13.1355 14.2502 12.6105L20.5502 7.06055V18.9855H3.4502Z" fill="#2D373D"/>
</svg>
