<svg width="16" height="17" viewBox="0 0 16 17" fill="none" xmlns="http://www.w3.org/2000/svg">
<path d="M13.8501 6.16172C13.8001 5.86172 13.6501 5.61172 13.4501 5.41172L10.2001 2.16172C9.95008 1.91172 9.60008 1.76172 9.25008 1.76172H3.40008C2.70008 1.76172 2.10008 2.36172 2.10008 3.11172V13.8117C2.05008 14.5617 2.65008 15.1617 3.40008 15.1617H12.5501C12.9001 15.1617 13.2001 15.0117 13.4501 14.8117C13.7001 14.5617 13.8501 14.2117 13.8501 13.8617V6.61172C13.9001 6.56172 13.9001 6.46172 13.9001 6.41172C13.9001 6.31172 13.9001 6.21172 13.8501 6.16172ZM9.75008 3.06172L12.6001 5.91172H10.1001C9.90008 5.91172 9.75008 5.76172 9.75008 5.56172V3.06172ZM12.9001 13.8617C12.9001 13.9617 12.9001 14.0617 12.8001 14.1117C12.7001 14.1617 12.6501 14.2117 12.5501 14.2117H3.45008C3.25008 14.2117 3.10008 14.0617 3.10008 13.8617V3.11172C3.10008 2.91172 3.25008 2.76172 3.40008 2.76172H8.75008V5.56172C8.75008 6.31172 9.30008 6.91172 10.0501 6.91172H12.9001V13.8617Z" fill="#2D373D"/>
<path d="M6.2999 9.31172V9.16172C6.9999 8.96172 7.4999 8.51172 7.4999 7.86172C7.4999 7.11172 6.7499 6.51172 5.8499 6.51172C5.4499 6.51172 5.1999 6.31172 5.1999 6.16172C5.1999 6.01172 5.4499 5.81172 5.8499 5.81172C6.0499 5.81172 6.2999 5.91172 6.4499 6.11172C6.5999 6.31172 6.8999 6.36172 7.1499 6.21172C7.3499 6.06172 7.3999 5.71172 7.2499 5.51172C6.9999 5.21172 6.6499 4.96172 6.2999 4.86172V4.76172C6.2999 4.46172 6.0999 4.26172 5.7999 4.26172C5.4999 4.26172 5.2999 4.46172 5.2999 4.76172V4.86172C4.5999 5.01172 4.1499 5.51172 4.1499 6.16172C4.1499 6.91172 4.8999 7.51172 5.7999 7.51172C6.1999 7.51172 6.4499 7.71172 6.4499 7.86172C6.4499 8.01172 6.1999 8.21172 5.7999 8.21172C5.5499 8.21172 5.3499 8.11172 5.1999 7.91172C5.0499 7.71172 4.6999 7.66172 4.4999 7.81172C4.2999 7.96172 4.2499 8.31172 4.3999 8.51172C4.5999 8.81172 4.9499 9.06172 5.2999 9.16172V9.31172C5.2999 9.61172 5.4999 9.81172 5.7999 9.81172C6.0999 9.81172 6.2999 9.56172 6.2999 9.31172Z" fill="#2D373D"/>
<path d="M8.30029 10.1117C8.30029 10.4117 8.50029 10.6117 8.80029 10.6117H11.3003C11.5503 10.6117 11.8003 10.4117 11.8003 10.1117C11.8003 9.81165 11.6003 9.61165 11.3003 9.61165H8.80029C8.50029 9.61165 8.30029 9.81165 8.30029 10.1117Z" fill="#2D373D"/>
<path d="M11.3 12.1117H6.45003C6.15003 12.1117 5.95003 12.3117 5.95003 12.6117C5.95003 12.9117 6.15003 13.1117 6.45003 13.1117H11.3C11.55 13.1117 11.8 12.9117 11.8 12.6117C11.8 12.3117 11.6 12.1117 11.3 12.1117Z" fill="#2D373D"/>
</svg>
