<svg width="64" height="65" viewBox="0 0 64 65" fill="none" xmlns="http://www.w3.org/2000/svg">
<path d="M41.5612 20.1355C41.8606 20.0114 42.1816 19.9475 42.5057 19.9475C42.8298 19.9475 43.1508 20.0114 43.4502 20.1355C43.7497 20.2596 44.0217 20.4415 44.2508 20.6708C45.0336 21.4543 46.3033 21.4549 47.0868 20.6721C47.8703 19.8893 47.8709 18.6195 47.0881 17.836C46.4865 17.2339 45.7722 16.7563 44.9859 16.4304C44.1996 16.1045 43.3569 15.9367 42.5057 15.9367C41.6546 15.9367 40.8118 16.1045 40.0255 16.4304C39.2392 16.7563 38.5249 17.2339 37.9233 17.836C37.1405 18.6195 37.1411 19.8893 37.9246 20.6721C38.7081 21.4549 39.9778 21.4543 40.7606 20.6708C40.9897 20.4415 41.2617 20.2596 41.5612 20.1355Z" fill="#2D373D"/>
<path fill-rule="evenodd" clip-rule="evenodd" d="M34.7518 12.5613C37.0873 10.2274 40.2542 8.91686 43.556 8.91797C46.8577 8.91908 50.0238 10.2318 52.3577 12.5672C54.6916 14.9027 56.0021 18.0697 56.001 21.3715C55.9999 24.6732 54.6872 27.8392 52.3518 30.1731L29.1317 53.3815C26.7878 55.6656 23.6383 56.9343 20.3656 56.9131C17.0929 56.892 13.9603 55.5825 11.6461 53.2683C9.33187 50.9541 8.02241 47.8214 8.00124 44.5487C7.98007 41.2759 9.24891 38.1266 11.533 35.7826L11.551 35.7641L22.0909 25.2234L22.0973 25.2169L22.1036 25.2106L34.7518 12.5613ZM14.3969 38.5905L23.5154 29.4711L35.445 41.4008L26.3239 50.5173C24.7362 52.06 22.6056 52.9168 20.3916 52.9025C18.1736 52.8881 16.0505 52.0007 14.4821 50.4322C12.9137 48.8638 12.0262 46.7407 12.0119 44.5227C11.9976 42.3088 12.8543 40.1781 14.3969 38.5905ZM49.5166 27.3363L38.2817 38.5655L26.3513 26.635L37.5869 15.3983C39.1699 13.8166 41.3169 12.928 43.5546 12.9287C45.7926 12.9295 47.9387 13.8193 49.5207 15.4023C51.1027 16.9854 51.991 19.1321 51.9903 21.3701C51.9895 23.6081 51.0996 25.7543 49.5166 27.3363Z" fill="#2D373D"/>
</svg>
