<svg width="16" height="17" viewBox="0 0 16 17" fill="none" xmlns="http://www.w3.org/2000/svg">
<path fill-rule="evenodd" clip-rule="evenodd" d="M12.8625 2.46279C13.1382 2.47901 13.3485 2.71562 13.3323 2.99129C13.2451 4.47438 12.8535 5.82195 12.4396 6.80225C12.2329 7.29196 12.0158 7.70114 11.8201 7.99614L11.8031 8.02168C12.2389 8.37416 12.472 8.84171 12.572 9.30674C12.7034 9.91789 12.6104 10.5307 12.4825 10.9279C12.3638 11.4539 12.1209 12.2746 11.7622 12.9801C11.5806 13.3373 11.3564 13.6913 11.0835 13.9624C10.8109 14.2333 10.4471 14.4619 9.99984 14.4619C9.65258 14.4619 9.23622 14.3618 8.82426 14.2297C8.4015 14.0942 7.93883 13.9099 7.4838 13.7121C6.66998 13.3582 5.85268 12.9483 5.29517 12.6687L5.10956 12.5757C4.90215 12.472 4.79326 12.2393 4.84655 12.0136C4.89984 11.7879 5.10131 11.6285 5.3332 11.6285C5.45295 11.6285 5.63829 11.5748 5.88727 11.4245C6.1289 11.2786 6.39023 11.0663 6.65078 10.8122C7.17057 10.3054 7.63745 9.68181 7.89122 9.22778C8.08716 8.83993 8.46824 8.30626 9.00729 7.93383C9.50492 7.59001 10.1582 7.37408 10.8982 7.56901C10.9243 7.53461 10.9539 7.49294 10.9868 7.44334C11.1401 7.21231 11.3293 6.86106 11.5184 6.41328C11.8961 5.51857 12.2546 4.28281 12.334 2.93257C12.3502 2.6569 12.5869 2.44658 12.8625 2.46279ZM9.29618 8.98818L11.6353 9.96283C11.6377 9.81642 11.6261 9.66464 11.5943 9.51698C11.5117 9.13287 11.2997 8.787 10.8141 8.59277C10.3389 8.40266 9.93125 8.51092 9.57572 8.75656C9.47577 8.82561 9.38223 8.90444 9.29618 8.98818ZM11.4439 10.9664L8.70189 9.8239C8.39124 10.35 7.89486 10.9959 7.34889 11.5282C7.10102 11.7699 6.83408 11.9969 6.56064 12.1806C6.97256 12.3818 7.42845 12.5976 7.88254 12.795C8.13519 12.9049 8.38439 13.0078 8.62256 13.0984L9.21929 11.905C9.34278 11.658 9.64312 11.5579 9.89011 11.6814C10.1371 11.8049 10.2372 12.1052 10.1137 12.3522L9.58739 13.4048C9.75732 13.4432 9.89563 13.4619 9.99984 13.4619C10.0859 13.4619 10.211 13.4197 10.3786 13.2531C10.5461 13.0867 10.7135 12.8365 10.8708 12.527C11.1281 12.0207 11.3236 11.4261 11.4439 10.9664Z" fill="#2D373D"/>
<path d="M5.99984 9.1286C5.99984 9.49679 5.70136 9.79526 5.33317 9.79526C4.96498 9.79526 4.6665 9.49679 4.6665 9.1286C4.6665 8.76041 4.96498 8.46193 5.33317 8.46193C5.70136 8.46193 5.99984 8.76041 5.99984 9.1286Z" fill="#2D373D"/>
<path d="M5.33317 6.46193C5.33317 6.83012 5.03469 7.1286 4.6665 7.1286C4.29831 7.1286 3.99984 6.83012 3.99984 6.46193C3.99984 6.09374 4.29831 5.79526 4.6665 5.79526C5.03469 5.79526 5.33317 6.09374 5.33317 6.46193Z" fill="#2D373D"/>
<path d="M3.99984 8.46193C3.99984 8.83012 3.70136 9.1286 3.33317 9.1286C2.96498 9.1286 2.6665 8.83012 2.6665 8.46193C2.6665 8.09374 2.96498 7.79526 3.33317 7.79526C3.70136 7.79526 3.99984 8.09374 3.99984 8.46193Z" fill="#2D373D"/>
</svg>
