<svg width="32" height="33" viewBox="0 0 32 33" fill="none" xmlns="http://www.w3.org/2000/svg">
<path d="M21.4111 10.8041C21.1761 10.8041 20.9461 10.7841 20.7111 10.7391C19.7461 10.5541 18.9161 10.0041 18.3611 9.19408C17.8111 8.38408 17.6111 7.40408 17.7961 6.44408C17.9811 5.47908 18.5311 4.64908 19.3411 4.09408C20.1511 3.54408 21.1311 3.34408 22.0961 3.52908C24.0861 3.91408 25.3911 5.83908 25.0111 7.82908C24.8261 8.78908 24.2761 9.62408 23.4661 10.1741C22.8511 10.5891 22.1411 10.8091 21.4161 10.8091L21.4111 10.8041ZM21.3961 5.45908C21.0661 5.45908 20.7411 5.55908 20.4611 5.74908C20.0911 5.99908 19.8411 6.37908 19.7561 6.81908C19.6711 7.25908 19.7611 7.70408 20.0111 8.06908C20.2611 8.43408 20.6411 8.68908 21.0811 8.77408C21.5211 8.85908 21.9661 8.76908 22.3361 8.51408C22.7061 8.26408 22.9561 7.88408 23.0411 7.44408C23.2161 6.53908 22.6211 5.65908 21.7161 5.48408C21.6111 5.46408 21.5011 5.45408 21.3961 5.45408V5.45908Z" fill="#2D373D"/>
<path d="M22.0561 29.4591C21.7261 29.4591 21.4011 29.3891 21.0911 29.2491C20.5161 28.9891 20.0811 28.5241 19.8561 27.9341C18.2061 23.1291 14.1111 20.8391 14.0661 20.8141C11.8261 19.4441 11.3011 17.8191 12.4211 15.8141L13.5211 13.8591C12.7011 14.0991 11.6861 14.5591 10.6911 15.4541C9.56109 16.4291 8.18109 16.1241 7.45109 15.3441C7.43609 15.3291 7.42609 15.3141 7.41109 15.2991C6.55109 14.2691 6.69609 12.9241 7.77609 11.8691C7.91609 11.7241 11.6811 7.94908 17.1711 9.10908C17.7111 9.22408 18.0561 9.75408 17.9411 10.2941C17.8261 10.8341 17.2961 11.1791 16.7561 11.0641C12.3661 10.1341 9.31609 13.1541 9.18609 13.2841C8.75609 13.7041 8.84109 13.8791 8.92109 13.9841C8.99109 14.0491 9.14109 14.1341 9.36609 13.9441C12.2161 11.3791 15.3111 11.6041 15.4411 11.6141C15.7811 11.6441 16.0811 11.8391 16.2411 12.1441C16.4011 12.4491 16.3961 12.8041 16.2311 13.1041L14.1611 16.7841C13.7111 17.5841 13.5161 18.1241 15.0661 19.0741C15.2211 19.1591 19.8411 21.7441 21.7311 27.2441C21.7661 27.3341 21.8561 27.3891 21.9061 27.4141C21.9561 27.4341 22.0561 27.4691 22.1761 27.4241C22.3611 27.3541 22.4511 27.1491 22.3811 26.9641C22.3711 26.9441 22.3661 26.9241 22.3611 26.9041C20.7161 21.6091 16.6561 19.0391 16.6111 19.0141C16.1561 18.7291 16.0011 18.1341 16.2661 17.6691L18.0011 14.6291C18.2311 14.2241 18.7161 14.0341 19.1661 14.1691C22.6461 15.2391 26.0061 12.6941 26.3461 12.4291C26.8161 11.9591 26.6911 11.8041 26.6211 11.7241C26.5011 11.5791 26.4261 11.5741 26.4011 11.5741C26.2861 11.5641 26.1211 11.6391 26.0111 11.7441C25.9811 11.7741 25.9461 11.8041 25.9061 11.8291C22.0361 14.5641 19.7461 13.5541 19.4961 13.4291C19.0011 13.1841 18.8011 12.5841 19.0461 12.0891C19.2911 11.5941 19.8911 11.3941 20.3861 11.6391C20.3861 11.6391 21.8911 12.1941 24.6961 10.2291C25.2111 9.77908 25.8861 9.53908 26.5261 9.57908C27.1561 9.61908 27.7211 9.91908 28.1511 10.4441C28.8211 11.2391 29.0661 12.5691 27.7061 13.8941C27.6861 13.9141 27.6661 13.9291 27.6461 13.9441C27.4811 14.0841 23.7261 17.1491 19.3561 16.2791L18.4461 17.8741C19.8711 18.9791 22.8261 21.7141 24.2561 26.2841C24.6961 27.4891 24.0811 28.8291 22.8811 29.2891C22.6111 29.3941 22.3261 29.4441 22.0411 29.4441L22.0561 29.4591Z" fill="#2D373D"/>
<path d="M5.80609 27.2991C5.27609 27.2991 4.75609 27.1141 4.33609 26.7641C3.86109 26.3691 3.56609 25.8141 3.51109 25.1991C3.45109 24.5841 3.63609 23.9841 4.03109 23.5091C4.42609 23.0341 4.98109 22.7391 5.59609 22.6841L9.27609 22.3291L10.5211 20.0091C10.7811 19.5241 11.3911 19.3391 11.8761 19.5991C12.3611 19.8591 12.5461 20.4641 12.2861 20.9541L10.7911 23.7441C10.6311 24.0391 10.3411 24.2341 10.0061 24.2641L5.79109 24.6741C5.67609 24.6841 5.60609 24.7491 5.57609 24.7841C5.54609 24.8191 5.49609 24.8991 5.50609 25.0091C5.51609 25.1141 5.57109 25.1841 5.61609 25.2191C5.65109 25.2491 5.73109 25.2991 5.84609 25.2891L10.5711 24.8891C10.5711 24.8891 10.5961 24.8791 10.6211 24.8741C10.6811 24.8591 10.7411 24.8491 10.8061 24.8441C10.8611 24.8441 10.9911 24.8191 11.0661 24.6841L12.6411 21.7441C12.9011 21.2591 13.5061 21.0741 13.9961 21.3341C14.4811 21.5941 14.6661 22.1991 14.4061 22.6891L12.8311 25.6341C12.4661 26.3141 11.8011 26.7591 11.0311 26.8391C10.9411 26.8591 10.8511 26.8791 10.7561 26.8841L6.03109 27.2841C5.96109 27.2891 5.88609 27.2941 5.81609 27.2941L5.80609 27.2991Z" fill="#2D373D"/>
<path d="M23.8761 22.3491C23.5611 22.3491 23.2511 22.1991 23.0561 21.9241C22.7411 21.4741 22.8511 20.8491 23.3011 20.5291L25.2461 19.1641C25.7011 18.8441 26.3211 18.9541 26.6411 19.4091C26.9561 19.8591 26.8461 20.4841 26.3961 20.8041L24.4511 22.1691C24.2761 22.2941 24.0761 22.3491 23.8761 22.3491Z" fill="#2D373D"/>
<path d="M22.3961 20.4841C22.1711 20.4841 21.9411 20.4091 21.7561 20.2491C21.3311 19.8941 21.2761 19.2641 21.6311 18.8391L23.1561 17.0191C23.5111 16.5941 24.1411 16.5391 24.5661 16.8941C24.9911 17.2491 25.0461 17.8791 24.6911 18.3041L23.1661 20.1241C22.9661 20.3591 22.6861 20.4791 22.4011 20.4791L22.3961 20.4841Z" fill="#2D373D"/>
<path d="M25.1211 24.3791C24.7111 24.3791 24.3311 24.1291 24.1811 23.7191C23.9911 23.1991 24.2611 22.6241 24.7761 22.4391L27.0061 21.6241C27.5261 21.4341 28.1011 21.7041 28.2861 22.2191C28.4761 22.7391 28.2061 23.3141 27.6911 23.4991L25.4611 24.3141C25.3461 24.3541 25.2311 24.3741 25.1211 24.3741V24.3791Z" fill="#2D373D"/>
</svg>
