<svg width="64" height="65" viewBox="0 0 64 65" fill="none" xmlns="http://www.w3.org/2000/svg">
<path fill-rule="evenodd" clip-rule="evenodd" d="M51.3258 29.5833L31.3306 29.5833V52.2396C31.3306 52.77 31.1199 53.2787 30.7448 53.6538C30.3698 54.0289 29.861 54.2396 29.3306 54.2396H10.3704C7.87349 54.2396 5.33545 52.4337 5.33545 49.6166V10.873C5.33545 8.05588 7.87348 6.25 10.3704 6.25L48.2909 6.25002C50.7878 6.25002 53.3258 8.0559 53.3258 10.873V27.5833C53.3258 28.6879 52.4304 29.5833 51.3258 29.5833ZM49.3258 10.873V12.651H31.3306V10.25L48.2909 10.25C48.6656 10.25 48.9558 10.3817 49.1291 10.5315C49.2983 10.6777 49.3258 10.804 49.3258 10.873ZM31.3306 16.651H49.3258V19.0521H31.3306V16.651ZM27.3306 19.0521V16.651H9.33545V19.0521H27.3306ZM9.33545 23.0521H27.3306V25.5833H9.33545V23.0521ZM31.3306 23.0521H49.3258V25.5833L31.3306 25.5833V23.0521ZM27.3306 10.25V12.651H9.33545V10.873C9.33545 10.804 9.36298 10.6776 9.53214 10.5314C9.70542 10.3817 9.99564 10.25 10.3704 10.25L27.3306 10.25ZM27.3306 29.5833H9.33545L9.33545 49.6166C9.33545 49.6856 9.36298 49.812 9.53214 49.9582C9.70542 50.1079 9.99563 50.2396 10.3704 50.2396H27.3306V29.5833Z" fill="#2D373D"/>
<path d="M40.1651 38.2404C42.0269 36.3786 44.8481 35.6921 47.5547 36.0886L44.4601 39.1832C44.1899 39.4534 43.3224 40.3595 42.8666 41.6355C42.6284 42.3023 42.4791 43.1352 42.6435 44.0513C42.8113 44.9868 43.28 45.8599 44.041 46.6209C44.8034 47.3833 45.6784 47.8514 46.6151 48.0179C47.5319 48.1808 48.365 48.03 49.0312 47.7915C50.3066 47.3349 51.2119 46.4688 51.4788 46.2019L54.5734 43.1073C54.9699 45.8139 54.2834 48.6351 52.4216 50.4969C51.5083 51.4102 50.4463 52.0745 49.3155 52.4941L48.6394 52.6437C47.7235 52.8463 47.0714 53.6584 47.0714 54.5965V57.5752C47.0714 58.6798 47.9669 59.5752 49.0714 59.5752C50.176 59.5752 51.0714 58.6798 51.0714 57.5752V56.1026C52.5938 55.4833 54.019 54.5564 55.25 53.3253C59.2695 49.3058 59.4754 43.0286 57.3065 38.4883C57.0267 37.9025 56.4799 37.4889 55.84 37.3792C55.2001 37.2694 54.5467 37.4771 54.0877 37.9362L48.6504 43.3734C48.4983 43.5255 48.1045 43.8747 47.6829 44.0256C47.5005 44.0909 47.3856 44.0921 47.315 44.0796C47.2644 44.0706 47.1128 44.0358 46.8695 43.7925C46.6249 43.5479 46.5897 43.3955 46.5806 43.3451C46.5681 43.2752 46.569 43.1617 46.6335 42.981C46.7831 42.5623 47.1308 42.1693 47.2885 42.0116L52.7258 36.5743C53.1849 36.1152 53.3926 35.4619 53.2828 34.822C53.1731 34.1821 52.7595 33.6353 52.1737 33.3555C47.6334 31.1865 41.3562 31.3925 37.3366 35.412C32.39 40.3587 32.3899 48.3788 37.3365 53.3255C38.4674 54.4564 39.7621 55.3306 41.1455 55.9454V57.5752C41.1455 58.6798 42.041 59.5752 43.1455 59.5752C44.2501 59.5752 45.1455 58.6798 45.1455 57.5752V54.5965C45.1455 53.7846 44.6547 53.0532 43.9033 52.7456L43.469 52.5678L43.4188 52.548L43.3814 52.5343C42.2094 52.1175 41.1079 51.44 40.1649 50.4971C36.7804 47.1125 36.7804 41.625 40.1651 38.2404Z" fill="#2D373D"/>
</svg>
