<svg width="64" height="65" viewBox="0 0 64 65" fill="none" xmlns="http://www.w3.org/2000/svg">
<path d="M46.2 9.66016C41.8 7.06016 37 5.66016 32 5.66016C24.8 5.66016 18.2 8.46016 13 13.4602C8 18.4602 5.2 25.0602 5.2 32.2602C5.2 37.0602 6.4 41.6602 8.8 45.6602L5.2 56.8602C5 57.4602 5.2 58.2602 5.8 58.8602C6.2 59.2602 6.6 59.4602 7.2 59.4602C7.4 59.4602 7.8 59.2602 7.8 59.2602L18.6 55.6602C31.2 62.8602 47.2 58.8602 54.8 46.4602C62.6 34.0602 58.8 17.4602 46.2 9.66016ZM51.4 44.4602C44.8 55.2602 30.6 58.4602 20 51.8602C19.8 51.6602 19.4 51.4602 19 51.4602C18.8 51.4602 18.6 51.4602 18.4 51.4602L10.4 54.0602L13 45.8602C13.2 45.2602 13.2 44.6602 12.8 44.2602C10.6 40.6602 9.4 36.4602 9.4 32.2602C9.4 26.2602 11.8 20.4602 16 16.2602C20.2 12.0602 26 9.66016 32 9.66016C36.2 9.66016 40.4 10.8602 44 13.0602C54.8 19.6602 58 33.8602 51.4 44.4602Z" fill="#2D373D"/>
<path d="M43.3996 42.0603H41.7996V22.8604C41.7996 20.6604 39.9996 18.8604 37.7996 18.8604H26.3996C24.1996 18.8604 22.3996 20.6604 22.3996 22.8604V42.0603H20.5996C19.3996 42.0603 18.5996 42.8603 18.5996 44.0603C18.5996 45.2603 19.3996 46.0603 20.5996 46.0603H43.3996C44.5996 46.0603 45.3996 45.2603 45.3996 44.0603C45.3996 42.8603 44.5996 42.0603 43.3996 42.0603ZM26.3996 22.8604H37.7996V26.6604H31.9996C30.7996 26.6604 29.9996 27.4604 29.9996 28.6604C29.9996 29.8604 30.7996 30.6604 31.9996 30.6604H37.7996V34.2604H31.9996C30.7996 34.2604 29.9996 35.0604 29.9996 36.2604C29.9996 37.4604 30.7996 38.2604 31.9996 38.2604H37.7996V42.0603H26.3996V22.8604Z" fill="#2D373D"/>
</svg>
