<svg width="24" height="25" viewBox="0 0 24 25" fill="none" xmlns="http://www.w3.org/2000/svg">
<path d="M8.14918 10.061C7.73496 10.061 7.39918 10.3968 7.39918 10.811C7.39918 11.2252 7.73496 11.561 8.14918 11.561H15.8492C16.2634 11.561 16.5992 11.2252 16.5992 10.811C16.5992 10.3968 16.2634 10.061 15.8492 10.061H8.14918Z" fill="#2D373D"/>
<path d="M7.39918 14.111C7.39918 13.6968 7.73496 13.361 8.14918 13.361H15.8492C16.2634 13.361 16.5992 13.6968 16.5992 14.111C16.5992 14.5252 16.2634 14.861 15.8492 14.861H8.14918C7.73496 14.861 7.39918 14.5252 7.39918 14.111Z" fill="#2D373D"/>
<path d="M8.14918 16.661C7.73496 16.661 7.39918 16.9968 7.39918 17.411C7.39918 17.8252 7.73496 18.161 8.14918 18.161H11.9992C12.4134 18.161 12.7492 17.8252 12.7492 17.411C12.7492 16.9968 12.4134 16.661 11.9992 16.661H8.14918Z" fill="#2D373D"/>
<path fill-rule="evenodd" clip-rule="evenodd" d="M7.79917 4.21094C7.79917 3.79672 7.46338 3.46094 7.04917 3.46094C6.63496 3.46094 6.29917 3.79672 6.29917 4.21094V5.66095H4.84915C4.84013 5.66095 4.83111 5.66111 4.8221 5.66144C4.32177 5.6795 3.84901 5.89515 3.50738 6.26114C3.16891 6.62376 2.98653 7.10466 2.99915 7.60017V19.5218C2.98653 20.0173 3.16891 20.4982 3.50738 20.8608C3.84901 21.2268 4.32177 21.4425 4.8221 21.4605C4.83111 21.4609 4.84013 21.461 4.84915 21.461H19.1492C19.1582 21.461 19.1673 21.4609 19.1763 21.4605C19.6766 21.4425 20.1494 21.2268 20.491 20.8608C20.8295 20.4982 21.0118 20.0173 20.9992 19.5218V7.60014C21.0118 7.10464 20.8295 6.62375 20.491 6.26114C20.1494 5.89515 19.6766 5.6795 19.1763 5.66144C19.1673 5.66111 19.1582 5.66095 19.1492 5.66095H17.6992V4.21094C17.6992 3.79672 17.3634 3.46094 16.9492 3.46094C16.535 3.46094 16.1992 3.79672 16.1992 4.21094V5.66095H14.3992V4.21094C14.3992 3.79672 14.0634 3.46094 13.6492 3.46094C13.235 3.46094 12.8992 3.79672 12.8992 4.21094V5.66095H11.0992V4.21094C11.0992 3.79672 10.7634 3.46094 10.3492 3.46094C9.93496 3.46094 9.59918 3.79672 9.59918 4.21094V5.66095H7.79917V4.21094ZM16.1992 7.51095V7.16095H14.3992V7.51095C14.3992 7.92517 14.0634 8.26095 13.6492 8.26095C13.235 8.26095 12.8992 7.92517 12.8992 7.51095V7.16095H11.0992V7.51095C11.0992 7.92517 10.7634 8.26095 10.3492 8.26095C9.93496 8.26095 9.59918 7.92517 9.59918 7.51095V7.16095H7.79917V7.51095C7.79917 7.92517 7.46338 8.26095 7.04917 8.26095C6.63496 8.26095 6.29917 7.92517 6.29917 7.51095V7.16095H4.86622C4.76631 7.16711 4.6724 7.2113 4.60392 7.28466C4.53317 7.36046 4.49535 7.46122 4.49875 7.56485C4.49902 7.57304 4.49915 7.58123 4.49915 7.58942V19.5325C4.49915 19.5407 4.49902 19.5489 4.49875 19.5571C4.49535 19.6607 4.53317 19.7615 4.60392 19.8373C4.6724 19.9107 4.76631 19.9549 4.86622 19.961H19.1322C19.2321 19.9549 19.326 19.9107 19.3945 19.8373C19.4652 19.7615 19.503 19.6607 19.4996 19.5571C19.4994 19.5489 19.4992 19.5407 19.4992 19.5325V7.58942C19.4992 7.58123 19.4994 7.57304 19.4996 7.56485C19.503 7.46121 19.4652 7.36046 19.3945 7.28466C19.326 7.2113 19.2321 7.16711 19.1322 7.16095H17.6992V7.51095C17.6992 7.92517 17.3634 8.26095 16.9492 8.26095C16.535 8.26095 16.1992 7.92517 16.1992 7.51095Z" fill="#2D373D"/>
</svg>
