<svg width="64" height="65" viewBox="0 0 64 65" fill="none" xmlns="http://www.w3.org/2000/svg">
<path d="M21.7311 26.061C20.6266 26.061 19.7311 26.9565 19.7311 28.061C19.7311 29.1656 20.6266 30.061 21.7311 30.061H42.2646C43.3691 30.061 44.2646 29.1656 44.2646 28.061C44.2646 26.9565 43.3691 26.061 42.2646 26.061H21.7311Z" fill="#2D373D"/>
<path d="M19.7311 36.8611C19.7311 35.7565 20.6266 34.8611 21.7311 34.8611H42.2646C43.3691 34.8611 44.2646 35.7565 44.2646 36.8611C44.2646 37.9657 43.3691 38.8611 42.2646 38.8611H21.7311C20.6266 38.8611 19.7311 37.9657 19.7311 36.8611Z" fill="#2D373D"/>
<path d="M21.7311 43.6611C20.6266 43.6611 19.7311 44.5566 19.7311 45.6611C19.7311 46.7657 20.6266 47.6611 21.7311 47.6611H31.9979C33.1024 47.6611 33.9979 46.7657 33.9979 45.6611C33.9979 44.5566 33.1024 43.6611 31.9979 43.6611H21.7311Z" fill="#2D373D"/>
<path fill-rule="evenodd" clip-rule="evenodd" d="M20.7978 10.4609C20.7978 9.35637 19.9024 8.46094 18.7978 8.46094C17.6932 8.46094 16.7978 9.35637 16.7978 10.4609V14.3276H12.9311C12.907 14.3276 12.883 14.3281 12.8589 14.3289C11.5247 14.3771 10.264 14.9522 9.35303 15.9281C8.45043 16.8951 7.96407 18.1775 7.99773 19.4989V51.2899C7.96407 52.6112 8.45043 53.8937 9.35303 54.8606C10.264 55.8366 11.5247 56.4117 12.8589 56.4598C12.883 56.4607 12.907 56.4611 12.9311 56.4611H51.0646C51.0886 56.4611 51.1127 56.4607 51.1367 56.4598C52.4709 56.4117 53.7317 55.8366 54.6426 54.8606C55.5452 53.8937 56.0316 52.6113 55.9979 51.29V19.4988C56.0316 18.1775 55.5452 16.8951 54.6426 15.9281C53.7317 14.9522 52.4709 14.3771 51.1367 14.3289C51.1127 14.3281 51.0886 14.3276 51.0646 14.3276H47.1979V10.4609C47.1979 9.35637 46.3024 8.46094 45.1979 8.46094C44.0933 8.46094 43.1979 9.35637 43.1979 10.4609V14.3276H38.3979V10.4609C38.3979 9.35637 37.5025 8.46094 36.3979 8.46094C35.2933 8.46094 34.3979 9.35637 34.3979 10.4609V14.3276H29.5978V10.4609C29.5978 9.35637 28.7024 8.46094 27.5978 8.46094C26.4932 8.46094 25.5978 9.35637 25.5978 10.4609V14.3276H20.7978V10.4609ZM43.1979 19.261V18.3276H38.3979V19.261C38.3979 20.3655 37.5025 21.261 36.3979 21.261C35.2933 21.261 34.3979 20.3655 34.3979 19.261V18.3276H29.5978V19.261C29.5978 20.3655 28.7024 21.261 27.5978 21.261C26.4932 21.261 25.5978 20.3655 25.5978 19.261V18.3276H20.7978V19.261C20.7978 20.3655 19.9024 21.261 18.7978 21.261C17.6932 21.261 16.7978 20.3655 16.7978 19.261V18.3276H12.9766C12.7102 18.3441 12.4597 18.4619 12.2771 18.6575C12.0885 18.8597 11.9876 19.1283 11.9967 19.4047C11.9974 19.4265 11.9977 19.4484 11.9977 19.4702V51.3186C11.9977 51.3404 11.9974 51.3622 11.9967 51.3841C11.9876 51.6604 12.0885 51.9291 12.2771 52.1312C12.4597 52.3269 12.7102 52.4447 12.9766 52.4611H51.0191C51.2855 52.4447 51.5359 52.3269 51.7185 52.1312C51.9072 51.9291 52.0081 51.6604 51.999 51.3841C51.9983 51.3622 51.9979 51.3404 51.9979 51.3186V19.4702C51.9979 19.4484 51.9983 19.4265 51.999 19.4047C52.0081 19.1283 51.9072 18.8597 51.7185 18.6575C51.5359 18.4619 51.2855 18.3441 51.0191 18.3276H47.1979V19.261C47.1979 20.3655 46.3024 21.261 45.1979 21.261C44.0933 21.261 43.1979 20.3655 43.1979 19.261Z" fill="#2D373D"/>
</svg>
