<svg width="24" height="25" viewBox="0 0 24 25" fill="none" xmlns="http://www.w3.org/2000/svg">
<path fill-rule="evenodd" clip-rule="evenodd" d="M17.6113 5.11371C16.0395 4.6625 13.9357 4.42198 11.9999 4.42188C10.0642 4.42177 7.96043 4.66225 6.3887 5.11346C5.59329 5.3418 5.03338 5.59649 4.70505 5.83056C4.59022 5.91243 4.52977 5.97142 4.5 6.00605V12.9218C4.5 15.2122 5.54555 17.354 7.07911 18.9424C8.63665 20.5556 10.5207 21.4218 12 21.4219C13.4793 21.4219 15.3633 20.5557 16.9209 18.9425C18.4544 17.3542 19.5 15.2123 19.5 12.9218V6.00622C19.4702 5.97159 19.4098 5.91262 19.295 5.83078C18.9667 5.59672 18.4067 5.34205 17.6113 5.11371ZM19.5256 6.04265C19.5256 6.04265 19.5219 6.03822 19.518 6.02912C19.5243 6.03807 19.5256 6.04265 19.5256 6.04265ZM4.47443 6.04247C4.47443 6.04247 4.47577 6.03788 4.48201 6.02892C4.47814 6.03802 4.47443 6.04247 4.47443 6.04247ZM12 2.92188C16.0672 2.92209 21 3.92188 21 5.92178V12.9218C21 18.4219 16 22.922 12 22.9219C8 22.9218 3 18.4218 3 12.9218V5.92167C3 3.92167 7.9328 2.92166 12 2.92188Z" fill="#2D373D"/>
<path fill-rule="evenodd" clip-rule="evenodd" d="M12 12.2623C11.9799 12.2623 11.5979 11.5126 11.1488 10.5955L10.3312 8.92188H7.77771V15.7501H10.3245L10.3379 14.0966L10.358 12.4364L11.1824 14.1033L12 15.7702L12.8244 14.1033L13.642 12.4364L13.6621 14.0899L13.6755 15.7501H16.2223V8.92188H14.9355L13.642 8.92857L12.8378 10.5955C12.3954 11.5126 12.0201 12.2623 12 12.2623Z" fill="#2D373D"/>
<path d="M11.1488 10.5955C11.5979 11.5126 11.9799 12.2623 12 12.2623C12.0201 12.2623 12.3954 11.5126 12.8378 10.5955L13.642 8.92857L14.9355 8.92188H16.2223V15.7501H13.6755L13.6621 14.0899L13.642 12.4364L12.8244 14.1033L12 15.7702L11.1824 14.1033L10.358 12.4364L10.3379 14.0966L10.3245 15.7501H7.77771V8.92188H10.3312L11.1488 10.5955Z" fill="#2D373D"/>
</svg>
