<svg width="24" height="25" viewBox="0 0 24 25" fill="none" xmlns="http://www.w3.org/2000/svg">
<path fill-rule="evenodd" clip-rule="evenodd" d="M4.00286 17.8743C3.73593 17.8743 3.51953 17.658 3.51953 17.391V9.99102C3.51953 9.72408 3.73593 9.50768 4.00286 9.50768H17.5695C17.8365 9.50768 18.0529 9.72408 18.0529 9.99102V17.391C18.0529 17.658 17.8365 17.8743 17.5695 17.8743H4.00286ZM2.01953 17.391C2.01953 18.4864 2.9075 19.3743 4.00286 19.3743H17.5695C18.6649 19.3743 19.5529 18.4864 19.5529 17.391V9.99102C19.5529 8.89565 18.6649 8.00768 17.5695 8.00768H4.00286C2.9075 8.00768 2.01953 8.89565 2.01953 9.99102V17.391Z" fill="#2D373D"/>
<path d="M10.189 12.4771C10.5109 12.1552 10.9476 11.9743 11.4029 11.9743C11.8171 11.9743 12.1529 11.6386 12.1529 11.2243C12.1529 10.8101 11.8171 10.4743 11.4029 10.4743C10.5498 10.4743 9.73158 10.8132 9.12834 11.4165C8.70488 11.8399 8.41168 12.3693 8.27453 12.9423C7.88125 12.9656 7.5695 13.2919 7.5695 13.691C7.5695 14.0901 7.88125 14.4164 8.27453 14.4397C8.41168 15.0127 8.70488 15.5421 9.12834 15.9655C9.73158 16.5688 10.5498 16.9077 11.4029 16.9077C11.8171 16.9077 12.1529 16.5719 12.1529 16.1577C12.1529 15.7435 11.8171 15.4077 11.4029 15.4077C10.9476 15.4077 10.5109 15.2268 10.189 14.9049C10.0525 14.7684 9.94144 14.6114 9.8587 14.441H11.4028C11.817 14.441 12.1528 14.1052 12.1528 13.691C12.1528 13.2768 11.817 12.941 11.4028 12.941H9.8587C9.94143 12.7707 10.0525 12.6136 10.189 12.4771Z" fill="#2D373D"/>
<path fill-rule="evenodd" clip-rule="evenodd" d="M21.2695 15.6743C21.6838 15.6743 22.0195 15.3386 22.0195 14.9243V7.52435C22.0195 6.99833 21.8106 6.49387 21.4386 6.12192C21.0667 5.74997 20.5622 5.54102 20.0362 5.54102H6.46953C6.05532 5.54102 5.71953 5.8768 5.71953 6.29102C5.71953 6.70523 6.05532 7.04102 6.46953 7.04102H20.0362C20.1644 7.04102 20.2873 7.09194 20.378 7.18258C20.4686 7.27322 20.5195 7.39616 20.5195 7.52435V14.9243C20.5195 15.3386 20.8553 15.6743 21.2695 15.6743Z" fill="#2D373D"/>
</svg>
