<svg width="32" height="33" viewBox="0 0 32 33" fill="none" xmlns="http://www.w3.org/2000/svg">
<path fill-rule="evenodd" clip-rule="evenodd" d="M5.33732 23.6788C4.9814 23.6788 4.69287 23.3903 4.69287 23.0344V13.1677C4.69287 12.8118 4.9814 12.5233 5.33732 12.5233H23.4262C23.7821 12.5233 24.0707 12.8118 24.0707 13.1677V23.0344C24.0707 23.3903 23.7821 23.6788 23.4262 23.6788H5.33732ZM2.69287 23.0344C2.69287 24.4949 3.87683 25.6788 5.33732 25.6788H23.4262C24.8867 25.6788 26.0707 24.4949 26.0707 23.0344V13.1677C26.0707 11.7072 24.8867 10.5233 23.4262 10.5233H5.33732C3.87683 10.5233 2.69287 11.7072 2.69287 13.1677V23.0344Z" fill="#2D373D"/>
<path d="M13.5855 16.4826C14.0147 16.0533 14.5969 15.8122 15.204 15.8122C15.7563 15.8122 16.204 15.3644 16.204 14.8122C16.204 14.2599 15.7563 13.8122 15.204 13.8122C14.0665 13.8122 12.9756 14.264 12.1713 15.0683C11.6067 15.633 11.2157 16.3388 11.0329 17.1028C10.5085 17.1338 10.0928 17.5689 10.0928 18.101C10.0928 18.6332 10.5085 19.0683 11.0329 19.0993C11.2157 19.8633 11.6067 20.5691 12.1713 21.1337C12.9756 21.9381 14.0665 22.3899 15.204 22.3899C15.7563 22.3899 16.204 21.9422 16.204 21.3899C16.204 20.8376 15.7563 20.3899 15.204 20.3899C14.5969 20.3899 14.0147 20.1488 13.5855 19.7195C13.4036 19.5376 13.2554 19.3282 13.1451 19.101H15.2039C15.7562 19.101 16.2039 18.6533 16.2039 18.101C16.2039 17.5488 15.7562 17.101 15.2039 17.101H13.1451C13.2554 16.8739 13.4036 16.6645 13.5855 16.4826Z" fill="#2D373D"/>
<path fill-rule="evenodd" clip-rule="evenodd" d="M28.3595 20.7455C28.9118 20.7455 29.3595 20.2978 29.3595 19.7455V9.87882C29.3595 9.17747 29.0809 8.50484 28.585 8.00891C28.0891 7.51299 27.4165 7.23438 26.7151 7.23438H8.62621C8.07392 7.23438 7.62621 7.68209 7.62621 8.23437C7.62621 8.78666 8.07392 9.23437 8.62621 9.23437H26.7151C26.886 9.23437 27.0499 9.30227 27.1708 9.42313C27.2916 9.54399 27.3595 9.7079 27.3595 9.87882V19.7455C27.3595 20.2978 27.8073 20.7455 28.3595 20.7455Z" fill="#2D373D"/>
</svg>
