<svg width="64" height="65" viewBox="0 0 64 65" fill="none" xmlns="http://www.w3.org/2000/svg">
<path d="M32.0002 43.4622C30.4002 43.4622 29.2002 44.6622 29.2002 46.2622C29.2002 47.8622 30.4002 49.0622 32.0002 49.0622C33.4002 49.0622 34.8002 47.8622 34.8002 46.2622C34.8002 44.6622 33.6002 43.4622 32.0002 43.4622Z" fill="#2D373D"/>
<path d="M32 41.8623C33 41.8623 34 40.8623 34 39.8623V25.0623C34 23.8623 33.2 23.0623 32 23.0623C30.8 23.0623 30 23.8623 30 25.0623V39.8623C30 41.0623 30.8 41.8623 32 41.8623Z" fill="#2D373D"/>
<path d="M55.6 49.2622L37 11.2622C36.4 9.86217 35.2 8.86217 33.8 8.46217C32.4 8.06217 30.8 8.26217 29.4 8.66217C28.2 9.26217 27.4 10.2622 26.8 11.2622L8.19997 49.2622C7.59997 50.4622 7.59997 51.8622 7.99997 53.0622C8.39997 54.2622 9.39997 55.2622 10.6 55.8622C11.2 56.2622 12 56.4622 12.8 56.4622H51.2C54 56.4622 56.2 54.2622 56.2 51.4622C56.2 50.6622 56 49.8622 55.6 49.2622ZM51 52.6622H12.8C12.6 52.6622 12.6 52.4622 12.4 52.4622C12 52.2622 11.8 52.0622 11.8 51.8622C11.8 51.6622 11.6 51.4622 11.8 51.0622L30.6 13.2622C30.8 12.8622 31 12.6622 31.4 12.4622C31.6 12.2622 31.8 12.2622 32 12.2622C32 12.2622 32.2 12.2622 32.4 12.4622C32.8 12.6622 33 12.8622 33.2 13.2622L51.8 51.2622C52 51.4622 52 51.4622 52 51.6622C52 52.2622 51.6 52.6622 51 52.6622Z" fill="#2D373D"/>
</svg>
