<svg width="24" height="24" viewBox="0 0 24 24" fill="none" xmlns="http://www.w3.org/2000/svg">
<path d="M18.6751 12.75C18.2251 12.75 17.9251 13.05 17.9251 13.5V19.5H14.5501V15.375C14.5501 14.325 13.6501 13.425 12.6001 13.425H11.4001C10.3501 13.425 9.45009 14.325 9.45009 15.375V19.5H6.07509V13.5C6.07509 13.05 5.77509 12.75 5.32509 12.75C4.87509 12.75 4.57509 13.05 4.57509 13.5V20.25C4.57509 20.7 4.87509 21 5.32509 21H10.2751C10.7251 21 11.0251 20.7 11.0251 20.25V15.375C11.0251 15.15 11.1751 14.925 11.4751 14.925H12.6751C12.9001 14.925 13.1251 15.15 13.1251 15.375V20.25C13.1251 20.7 13.4251 21 13.8751 21H18.7501C19.1251 21 19.5001 20.7 19.4251 20.25V13.5C19.4251 13.05 19.1251 12.75 18.6751 12.75Z" fill="#2D373D"/>
<path d="M21.7501 11.85L19.5001 9.59999V5.62499C19.5001 5.17499 19.2001 4.87499 18.7501 4.87499H15.6751C15.3751 4.87499 15.2251 5.02499 15.0751 5.17499L13.4251 3.52499C12.6751 2.77499 11.4001 2.77499 10.6501 3.52499L2.3251 11.775C2.0251 12.075 2.0251 12.525 2.3251 12.825C2.4751 12.975 2.6251 13.05 2.8501 13.05C3.0751 13.05 3.2251 12.975 3.3751 12.825L11.7001 4.57499C11.9251 4.42499 12.2251 4.42499 12.3751 4.57499L15.0751 7.27499C15.1501 7.34999 15.1501 7.42499 15.2251 7.42499L18.1501 10.35C18.2251 10.425 18.2251 10.5 18.3001 10.5L20.7001 12.9C21.0001 13.2 21.4501 13.2 21.7501 12.9C22.0501 12.6 22.0501 12.15 21.7501 11.85ZM16.4251 6.37499H18.0001V8.09999L16.4251 6.52499V6.37499Z" fill="#2D373D"/>
</svg>
