<svg width="24" height="25" viewBox="0 0 24 25" fill="none" xmlns="http://www.w3.org/2000/svg">
<path d="M16.75 5.71094C16.75 6.12515 17.0858 6.46094 17.5 6.46094C17.9142 6.46094 18.25 6.12515 18.25 5.71094L18.25 3.21094C18.25 2.79672 17.9142 2.46094 17.5 2.46094H15C14.5858 2.46094 14.25 2.79672 14.25 3.21094C14.25 3.62515 14.5858 3.96094 15 3.96094L16.75 3.96094L16.75 5.71094Z" fill="#2D373D"/>
<path d="M10.7121 4.39859C10.6945 4.39789 10.675 4.40171 10.6518 4.41741C9.16621 5.42205 5.03729 8.37035 3.25871 10.0121C2.95435 10.2931 2.47985 10.2741 2.1989 9.96972C1.91795 9.66536 1.93693 9.19086 2.24129 8.90991C4.11246 7.18268 8.3278 4.17823 9.81155 3.17486C10.4058 2.77302 11.1509 2.8242 11.6944 3.23181L19.2 8.86101C19.5314 9.10954 19.5985 9.57964 19.35 9.91101C19.1015 10.2424 18.6314 10.3095 18.3 10.061L10.7944 4.43181C10.7604 4.40629 10.7312 4.39935 10.7121 4.39859Z" fill="#2D373D"/>
<path d="M5 9.71094C5.41421 9.71094 5.75 10.0467 5.75 10.4609V17.4609C5.75 17.599 5.86193 17.7109 6 17.7109H9C9.41421 17.7109 9.75 18.0467 9.75 18.4609C9.75 18.8752 9.41421 19.2109 9 19.2109H6C5.0335 19.2109 4.25 18.4274 4.25 17.4609V10.4609C4.25 10.0467 4.58579 9.71094 5 9.71094Z" fill="#2D373D"/>
<path d="M17.5 13.0859C16.8106 13.0859 15.9021 13.1589 15.1576 13.6464C14.6623 13.9707 14.2881 14.4438 14.0752 15.0859H13.5C13.1548 15.0859 12.875 15.3658 12.875 15.7109C12.875 16.0561 13.1548 16.3359 13.5 16.3359H13.8763C13.8755 16.3772 13.875 16.4188 13.875 16.4609C13.875 16.59 13.8781 16.715 13.8844 16.8359H13.5C13.1548 16.8359 12.875 17.1158 12.875 17.4609C12.875 17.8061 13.1548 18.0859 13.5 18.0859H14.1023C14.3184 18.728 14.6861 19.1797 15.1947 19.4644C15.5926 19.687 16.0225 19.7733 16.4105 19.8097C16.7283 19.8394 17.0566 19.8378 17.3374 19.8365C17.3936 19.8362 17.4481 19.8359 17.5 19.8359C17.8452 19.8359 18.125 19.5561 18.125 19.2109C18.125 18.8658 17.8452 18.5859 17.5 18.5859C17.4367 18.5859 17.3748 18.5862 17.3141 18.5864H17.3129C17.0334 18.5876 16.778 18.5886 16.527 18.5651C16.2275 18.5371 15.9908 18.4774 15.8052 18.3736C15.701 18.3152 15.5883 18.2284 15.4851 18.0859H16.25C16.5952 18.0859 16.875 17.8061 16.875 17.4609C16.875 17.1158 16.5952 16.8359 16.25 16.8359H15.136C15.1288 16.7198 15.125 16.595 15.125 16.4609C15.125 16.4183 15.1256 16.3767 15.1267 16.3359H17C17.3452 16.3359 17.625 16.0561 17.625 15.7109C17.625 15.3658 17.3452 15.0859 17 15.0859H15.4481C15.5646 14.9083 15.7021 14.784 15.8424 14.6922C16.2646 14.4157 16.8561 14.3359 17.5 14.3359C17.8452 14.3359 18.125 14.0561 18.125 13.7109C18.125 13.3658 17.8452 13.0859 17.5 13.0859Z" fill="#2D373D"/>
<path fill-rule="evenodd" clip-rule="evenodd" d="M16 22.4609C19.3137 22.4609 22 19.7746 22 16.4609C22 13.1472 19.3137 10.4609 16 10.4609C12.6863 10.4609 10 13.1472 10 16.4609C10 19.7746 12.6863 22.4609 16 22.4609ZM16 20.9609C18.4853 20.9609 20.5 18.9462 20.5 16.4609C20.5 13.9757 18.4853 11.9609 16 11.9609C13.5147 11.9609 11.5 13.9757 11.5 16.4609C11.5 18.9462 13.5147 20.9609 16 20.9609Z" fill="#2D373D"/>
</svg>
