<svg width="64" height="65" viewBox="0 0 64 65" fill="none" xmlns="http://www.w3.org/2000/svg">
<path d="M59.2001 24.9238C59.2221 23.6996 58.8349 22.5031 58.1001 21.5238L50.3601 11.1438C49.8284 10.4506 49.144 9.88942 48.3601 9.50383H48.2001C47.5167 9.15529 46.7664 8.9575 46.0001 8.92383H18.0001C17.2261 8.92744 16.3221 9.09798 15.6201 9.42383C14.8325 9.80374 14.1469 10.366 13.6201 11.0638L6.00006 21.5838C5.24782 22.5358 4.83279 23.7106 4.82006 24.9238C4.79951 26.1853 5.21647 27.415 6.00006 28.4038L27.7801 54.9238C28.3088 55.5333 28.955 56.0299 29.6801 56.3838C30.4033 56.7349 31.1961 56.9194 32.0001 56.9238H32.1801C32.9528 56.9102 33.7148 56.7401 34.4201 56.4238C35.1467 56.0728 35.7882 55.5678 36.3001 54.9438L58.0001 28.4238C58.7802 27.4586 59.2228 26.2644 59.2601 25.0238L59.2001 24.9238ZM39.8401 26.9238L32.0001 48.9238L24.1801 26.9238H39.8401ZM25.5201 22.9238L32.0001 14.2838L38.5001 22.9238H25.5201ZM36.0001 12.9238H44.8801L42.0001 20.9238L36.0001 12.9238ZM22.0001 20.9238L19.1601 12.9238H28.0001L22.0001 20.9238ZM27.5001 48.2038L10.0001 26.9238H20.0001L27.5001 48.2038ZM44.0001 26.9238H54.0001L36.5001 48.2838L44.0001 26.9238ZM54.1001 22.9238H45.5201L48.3201 15.0438L54.1001 22.9238ZM15.6801 15.1238L18.5001 22.9238H9.82006L15.6801 15.1238Z" fill="#2D373D"/>
</svg>
