<svg width="64" height="65" viewBox="0 0 64 65" fill="none" xmlns="http://www.w3.org/2000/svg">
<path fill-rule="evenodd" clip-rule="evenodd" d="M30.2811 6.58808C31.3865 6.15814 32.613 6.15814 33.7185 6.58808L57.3789 15.7901C58.1484 16.0894 58.6553 16.8304 58.6553 17.6561V31.3536C58.6553 32.4594 57.7589 33.3558 56.6531 33.3558C55.5473 33.3558 54.6509 32.4594 54.6509 31.3536V20.5831L34.002 28.6139V54.6392C34.002 55.3002 33.6758 55.9186 33.1302 56.2918C32.5846 56.665 31.8901 56.7448 31.274 56.5053L6.6207 46.9171C5.85114 46.6178 5.34424 45.8767 5.34424 45.051V17.6561C5.34424 16.8304 5.85114 16.0894 6.6207 15.7901L30.2811 6.58808ZM31.9998 25.0961L38.8027 22.4502L19.6731 15.0103L12.8702 17.6561L31.9998 25.0961ZM9.34864 20.5831V43.6814L29.9976 51.7122V28.614L9.34864 20.5831ZM25.1968 12.862L44.3264 20.302L51.1294 17.6561L32.267 10.3202C32.0951 10.2533 31.9044 10.2533 31.7326 10.3202L25.1968 12.862Z" fill="#2D373D"/>
<path fill-rule="evenodd" clip-rule="evenodd" d="M48.3331 55.5879C51.8309 55.5879 54.6664 52.7524 54.6664 49.2547C54.6664 48.4304 54.4175 47.0101 53.8246 45.1639C53.2523 43.3815 52.4391 41.4473 51.5082 39.6741C50.5644 37.8764 49.5786 36.3951 48.7119 35.4274C48.5729 35.2723 48.4464 35.1409 48.3331 35.0305C48.2198 35.1409 48.0933 35.2723 47.9543 35.4274C47.0876 36.3951 46.1018 37.8764 45.158 39.6741C44.2271 41.4473 43.4139 43.3815 42.8416 45.1639C42.2487 47.0101 41.9998 48.4304 41.9998 49.2547C41.9998 52.7524 44.8352 55.5879 48.3331 55.5879ZM48.3331 59.5879C54.04 59.5879 58.6664 54.9616 58.6664 49.2547C58.6664 43.5479 52.4664 30.655 48.3331 30.655C44.1998 30.655 37.9998 43.5479 37.9998 49.2547C37.9998 54.9616 42.6262 59.5879 48.3331 59.5879Z" fill="#2D373D"/>
</svg>
