<svg width="64" height="65" viewBox="0 0 64 65" fill="none" xmlns="http://www.w3.org/2000/svg">
<path d="M58.2 26.2621C56.6 19.2621 52.2 13.4621 46.2 9.66211C41.8 7.06211 37 5.66211 32 5.66211C24.8 5.66211 18.2 8.46211 13 13.6621C8 18.6621 5.2 25.2621 5.2 32.4621C5.2 37.0621 6.4 41.6621 8.8 45.6621L5.2 56.8621C5 57.4621 5.2 58.2621 5.8 58.8621C6.2 59.2621 6.6 59.4621 7.2 59.4621C7.4 59.4621 7.8 59.2621 8 59.2621L18.8 55.6621C24.6 59.0621 31.6 60.0621 38.2 58.4621C45.2 56.8621 51 52.4621 54.8 46.4621C58.6 40.4621 59.8 33.2621 58.2 26.2621ZM51.4 44.4621C44.8 55.2621 30.6 58.4621 20 51.8621C19.8 51.6621 19.4 51.4621 19 51.4621C18.8 51.4621 18.6 51.4621 18.4 51.4621L10.4 54.0621L13 45.8621C13.2 45.2621 13.2 44.6621 12.8 44.2621C10.6 40.6621 9.4 36.4621 9.4 32.2621C9.4 26.2621 11.6 20.4621 16 16.2621C20.2 12.0621 26 9.66211 32 9.66211C36.2 9.46211 40.4 10.8621 44 13.0621C49.2 16.2621 52.8 21.2621 54.2 27.2621C55.6 33.2621 54.6 39.2621 51.4 44.4621Z" fill="#2D373D"/>
<path d="M32.0004 16.8623C27.2004 16.8623 23.4004 20.6623 23.4004 25.4623C23.4004 26.6623 24.2004 27.4623 25.4004 27.4623C26.6004 27.4623 27.4004 26.6623 27.4004 25.4623C27.4004 22.8623 29.4004 20.8623 32.0004 20.8623C34.6004 20.8623 36.6004 22.8623 36.6004 25.4623C36.6004 27.4623 35.4004 29.2623 33.6004 29.8623C31.4004 30.6623 30.0004 32.6623 30.0004 34.8623V37.0623C30.0004 38.2623 30.8004 39.0623 32.0004 39.0623C33.2004 39.0623 34.0004 38.0623 34.0004 37.0623V34.8623C34.0004 34.2623 34.2004 33.8623 34.8004 33.6623C38.2004 32.4623 40.6004 29.0623 40.6004 25.4623C40.6004 20.6623 36.8004 16.8623 32.0004 16.8623Z" fill="#2D373D"/>
<path d="M32.0002 43.062C30.4002 43.062 29.2002 44.262 29.2002 45.862C29.2002 47.462 30.4002 48.662 32.0002 48.662C33.6002 48.662 34.8002 47.462 34.8002 45.862C34.8002 44.262 33.6002 43.062 32.0002 43.062Z" fill="#2D373D"/>
</svg>
