<svg width="32" height="32" viewBox="0 0 32 32" fill="none" xmlns="http://www.w3.org/2000/svg">
<path d="M25.6001 20.3C25.5001 20.3 25.5001 20.3 25.6001 20.3C24.8001 20.3 24.2001 20.9 24.2001 21.6C24.2001 21.9 24.3001 22.2 24.5001 22.3C24.7001 22.6 24.9001 22.8 25.2001 22.9C25.3001 23 25.5001 23 25.6001 23C26.3001 23 26.9001 22.4001 26.9001 21.7001C26.9001 21.7001 26.9001 21.7001 26.9001 21.6C26.9001 20.9 26.3001 20.3 25.6001 20.3Z" fill="#2D373D"/>
<path d="M12.2001 20.3C12.1001 20.3 12.1001 20.3 12.1001 20.3C11.4001 20.3 10.8001 20.9 10.8001 21.6C10.8001 22.1 11.2001 22.6 11.7001 22.8C11.8001 22.9 12.0001 22.9 12.1001 22.9C12.8001 22.9 13.3001 22.5 13.4001 22C13.5001 21.9 13.5001 21.7001 13.5001 21.5C13.5001 20.9 12.9001 20.3 12.2001 20.3Z" fill="#2D373D"/>
<path d="M27.0001 17.9L25.9001 15.4C25.5001 14.3 24.4001 13.5 23.2001 13.5H14.4001C13.2001 13.5 12.1001 14.2 11.7001 15.3L10.5001 17.9C9.20007 18.1 8.20007 19.2 8.20007 20.6V23.8C8.30007 24.3 8.50007 24.8 8.90007 25.1V25.9C8.90007 27.2 9.90007 28.2 11.2001 28.2C12.4001 28.2 13.5001 27.1 13.5001 25.9V25.6H24.2001V25.9C24.2001 27.2 25.2001 28.2 26.5001 28.2C27.8001 28.2 28.8001 27.1 28.8001 25.9V25C29.1001 24.7 29.4001 24.2 29.3001 23.7V20.5C29.3001 19.2 28.3001 18.1 27.0001 17.9ZM27.4001 23.5H10.3001V20.5C10.3001 20.1 10.6001 19.8 11.0001 19.8H26.0001C26.2001 19.9 26.5001 19.9 26.7001 19.8C27.1001 19.8 27.3001 20.1 27.3001 20.5V23.5H27.4001ZM14.4001 15.4H23.2001C23.6001 15.4 23.9001 15.7 24.1001 16.1L24.8001 17.8H12.7001L13.5001 16C13.7001 15.6 14.0001 15.4 14.4001 15.4ZM11.5001 25.8C11.5001 26.1 10.9001 26.1 10.9001 25.8V25.5H11.5001V25.8ZM26.2001 25.8V25.5H26.8001V25.8C26.8001 26.1 26.2001 26.1 26.2001 25.8Z" fill="#2D373D"/>
<path d="M6.90007 11.1C6.80007 11.1 6.70007 11 6.50007 11C6.30007 11 6.20007 11 6.10007 11.1C5.70007 11.2 5.50007 11.5 5.30007 11.9C5.20007 12 5.20007 12.2 5.20007 12.3C5.20007 12.4 5.20007 12.6 5.30007 12.7C5.40007 13.1 5.70007 13.3 6.10007 13.5C6.20007 13.6 6.40007 13.6 6.50007 13.6C6.60007 13.6 6.80007 13.6 6.90007 13.5C7.30007 13.4 7.60007 13.1 7.70007 12.7C7.80007 12.6 7.80007 12.5 7.80007 12.3C7.80007 12.1 7.80007 12 7.70007 11.9C7.60007 11.5 7.30007 11.2 6.90007 11.1Z" fill="#2D373D"/>
<path d="M9.4001 16.2C9.9001 16.2 10.4001 15.8 10.4001 15.2C10.4001 14.6 10.0001 14.2 9.4001 14.2H4.9001C4.8001 14.2 4.8001 14.2 4.7001 14.1C4.7001 14.1 4.6001 14 4.6001 13.9V12C4.6001 11.1 5.3001 10.4 6.2001 10.4H19.0001C19.1001 10.4 19.3001 10.4 19.4001 10.4C19.4001 10.4 19.4001 10.4 19.5001 10.4C19.9001 10.5 20.2001 10.8 20.4001 11.1C20.7001 11.6 21.3001 11.8 21.8001 11.5C22.3001 11.2 22.5001 10.6 22.2001 10.1C21.8001 9.40005 21.2001 8.80005 20.4001 8.50005L19.1001 5.70005C18.7001 4.60005 17.6001 3.80005 16.4001 3.80005H8.8001C7.6001 3.80005 6.5001 4.60005 6.1001 5.70005L4.8001 8.70005C3.5001 9.20005 2.6001 10.5 2.6001 12V13.9C2.6001 14.5 2.8001 15.1 3.2001 15.5V16.4C3.2001 17.7 4.2001 18.8 5.5001 18.8C6.8001 18.8 7.8001 17.8 7.8001 16.5V16.2H9.4001ZM8.8001 5.90005H16.4001C16.8001 5.90005 17.1001 6.10005 17.3001 6.60005L18.1001 8.40005H7.1001L7.9001 6.50005C8.1001 6.10005 8.4001 5.90005 8.8001 5.90005ZM5.8001 16.5C5.8001 16.7 5.7001 16.8 5.5001 16.8C5.3001 16.8 5.2001 16.7 5.2001 16.5V16.2H5.8001V16.5Z" fill="#2D373D"/>
</svg>
