<svg width="64" height="64" viewBox="0 0 64 64" fill="none" xmlns="http://www.w3.org/2000/svg">
<path d="M53.9998 7.7998H9.7998C8.5998 7.7998 7.7998 8.5998 7.7998 9.7998V53.9998C7.7998 55.1998 8.5998 55.9998 9.7998 55.9998H53.9998C55.1998 55.9998 55.9998 55.1998 55.9998 53.9998V9.7998C55.9998 8.5998 55.1998 7.7998 53.9998 7.7998ZM51.9998 51.9998H11.7998V11.7998H51.9998V51.9998Z" fill="#2D373D"/>
<path d="M26.6 41.1996C27 41.3996 27.4 41.3996 27.8 41.3996C28.2 41.3996 28.8 41.1996 29.2 40.9996L40.6 35.1996C41.2 34.7996 41.8 34.1996 42.2 33.5996C42.6 32.7996 42.8 31.7996 42.4 30.7996C42.2 29.7996 41.4 28.9996 40.6 28.5996L29.2 22.9996C28.8 22.7996 28.2 22.5996 27.6 22.5996C25.6 22.5996 24 24.1996 24 26.1996V37.7996C24 38.3996 24.2 38.7996 24.4 39.3996C25 40.1996 25.6 40.7996 26.6 41.1996ZM28 26.7996L38.4 31.9996L28 37.1996V26.7996Z" fill="#2D373D"/>
</svg>
