<svg width="24" height="25" viewBox="0 0 24 25" fill="none" xmlns="http://www.w3.org/2000/svg">
<path d="M11.2498 12.0117C11.3998 11.6367 11.2498 11.1867 10.8748 11.0367C10.5748 10.8867 10.1998 10.8117 9.89981 10.7367C11.3998 10.2117 12.4498 8.78672 12.4498 7.21172C12.4498 5.11172 10.7248 3.38672 8.62481 3.38672C6.59981 3.38672 4.87481 5.11172 4.79981 7.13672C4.79981 8.78672 5.84981 10.2117 7.34981 10.7367C4.79981 11.3367 2.9248 13.5867 2.9248 16.2867C2.9248 16.7367 3.2248 17.0367 3.6748 17.0367C4.1248 17.0367 4.4248 16.7367 4.4248 16.2867C4.4248 15.1617 4.8748 14.1117 5.69981 13.2867C6.52481 12.4617 7.57481 12.0117 8.69981 12.0117C9.29981 12.0117 9.82481 12.1617 10.3498 12.3867C10.7248 12.6117 11.1748 12.3867 11.2498 12.0117ZM6.37481 7.21172C6.37481 5.93672 7.42481 4.88672 8.62481 4.88672C9.89981 4.88672 10.9498 5.86172 10.9498 7.13672C10.9498 8.41172 9.82481 9.46172 8.62481 9.46172C7.42481 9.46172 6.37481 8.48672 6.37481 7.21172Z" fill="#2D373D"/>
<path d="M20.6248 13.8117C20.5498 13.5867 20.3248 13.2867 20.0998 13.0617C19.5748 12.4617 18.8248 12.1617 17.9998 12.1617C17.1748 12.1617 16.4998 12.4617 15.8998 13.0617L15.8248 13.1367L15.7498 13.0617C15.5248 12.8367 15.2998 12.6867 14.9998 12.5367C13.5748 11.7867 11.7748 12.3867 11.0248 13.8867C10.4248 15.0867 10.6498 16.4367 11.5498 17.3367L15.2998 21.2367C15.4498 21.3867 15.5998 21.4617 15.8248 21.4617C16.0498 21.4617 16.2748 21.3867 16.3498 21.1617L20.0998 17.2617C20.9998 16.3617 21.2248 14.9367 20.6248 13.8117ZM19.0498 16.2867L15.8248 19.6617L12.5998 16.2867C12.1498 15.8367 11.9998 15.1617 12.2998 14.5617C12.5998 14.0367 13.1248 13.7367 13.6498 13.7367C13.8748 13.7367 14.0998 13.8117 14.3248 13.8867C14.4748 13.9617 14.5498 14.0367 14.6998 14.1867L15.2998 14.7867C15.5998 15.0867 16.0498 15.0867 16.3498 14.7867L16.9498 14.1867C17.2498 13.8867 17.6248 13.7367 17.9998 13.7367C18.3748 13.7367 18.7498 13.8867 19.0498 14.1867C19.1998 14.2617 19.2748 14.4117 19.3498 14.5617C19.6498 15.1617 19.4998 15.8367 19.0498 16.2867Z" fill="#2D373D"/>
</svg>
