<svg width="24" height="25" viewBox="0 0 24 25" fill="none" xmlns="http://www.w3.org/2000/svg">
<path d="M8.17761 9.71644C8.37593 9.51812 8.64491 9.40671 8.92537 9.40671C9.13453 9.40671 9.33899 9.46873 9.51289 9.58493C9.6868 9.70113 9.82234 9.86629 9.90238 10.0595C9.98242 10.2528 10.0034 10.4654 9.96255 10.6705C9.92175 10.8756 9.82104 11.0641 9.67314 11.212C9.52524 11.3599 9.33681 11.4606 9.13168 11.5014C8.92655 11.5422 8.71392 11.5213 8.52069 11.4412C8.32745 11.3612 8.1623 11.2256 8.0461 11.0517C7.9299 10.8778 7.86787 10.6734 7.86787 10.4642C7.86787 10.1837 7.97929 9.91476 8.17761 9.71644Z" fill="#2D373D"/>
<path d="M15.0754 9.40671C14.7949 9.40671 14.5259 9.51812 14.3276 9.71644C14.1293 9.91476 14.0179 10.1837 14.0179 10.4642C14.0179 10.6734 14.0799 10.8778 14.1961 11.0517C14.3123 11.2256 14.4775 11.3612 14.6707 11.4412C14.8639 11.5213 15.0766 11.5422 15.2817 11.5014C15.4868 11.4606 15.6753 11.3599 15.8231 11.212C15.971 11.0641 16.0718 10.8756 16.1126 10.6705C16.1534 10.4654 16.1324 10.2528 16.0524 10.0595C15.9723 9.86629 15.8368 9.70113 15.6629 9.58493C15.489 9.46873 15.2845 9.40671 15.0754 9.40671Z" fill="#2D373D"/>
<path d="M7.70977 15.0512C7.52586 14.68 7.0759 14.5282 6.70475 14.7121C6.33361 14.8961 6.18182 15.346 6.36573 15.7172C6.88579 16.7667 7.68875 17.6501 8.68405 18.2677C9.67935 18.8853 10.8274 19.2126 11.9987 19.2126C13.1701 19.2126 14.3182 18.8853 15.3134 18.2677C16.3087 17.6501 17.1117 16.7667 17.6318 15.7172C17.8157 15.346 17.6639 14.8961 17.2927 14.7121C16.9216 14.5282 16.4716 14.68 16.2877 15.0512C15.8917 15.8503 15.2804 16.5229 14.5226 16.9932C13.7647 17.4634 12.8906 17.7126 11.9987 17.7126C11.1069 17.7126 10.2328 17.4634 9.47494 16.9932C8.71712 16.5229 8.10575 15.8503 7.70977 15.0512Z" fill="#2D373D"/>
<path fill-rule="evenodd" clip-rule="evenodd" d="M12.0004 2.94922C9.35486 2.94922 6.81768 4.00015 4.947 5.87083C3.07632 7.7415 2.02539 10.2787 2.02539 12.9242C2.02539 15.5698 3.07632 18.1069 4.947 19.9776C6.81768 21.8483 9.35486 22.8992 12.0004 22.8992C14.6459 22.8992 17.1831 21.8483 19.0538 19.9776C20.9245 18.1069 21.9754 15.5698 21.9754 12.9242C21.9754 10.2787 20.9245 7.7415 19.0538 5.87083C17.1831 4.00015 14.6459 2.94922 12.0004 2.94922ZM6.00766 6.93149C7.59703 5.34212 9.75268 4.44922 12.0004 4.44922C14.2481 4.44922 16.4038 5.34212 17.9931 6.93149C19.5825 8.52086 20.4754 10.6765 20.4754 12.9242C20.4754 15.1719 19.5825 17.3276 17.9931 18.9169C16.4038 20.5063 14.2481 21.3992 12.0004 21.3992C9.75268 21.3992 7.59703 20.5063 6.00766 18.9169C4.41829 17.3276 3.52539 15.1719 3.52539 12.9242C3.52539 10.6765 4.41829 8.52086 6.00766 6.93149Z" fill="#2D373D"/>
</svg>
