<svg width="32" height="33" viewBox="0 0 32 33" fill="none" xmlns="http://www.w3.org/2000/svg">
<path d="M18.2 20.0605C17.6 20.0605 17.2 20.4605 17.2 21.0605V22.9605H6V8.7605C6 8.1605 6.2 7.6605 6.6 7.3605C7 6.9605 7.5 6.7605 8 6.7605H13.3C13.9 6.7605 14.3 6.3605 14.3 5.7605C14.3 5.1605 13.9 4.7605 13.3 4.7605H8C6.9 4.7605 5.9 5.1605 5.2 5.9605C4.4 6.6605 4 7.6605 4 8.7605V25.8605C4 28.0605 5.8 29.8605 8 29.8605H15.2C16.2 29.8605 17.2 29.4605 18 28.6605C18.8 27.9605 19.2 26.9605 19.2 25.8605V21.0605C19.2 20.4605 18.8 20.0605 18.2 20.0605ZM16.6 27.2605C16.2 27.6605 15.7 27.8605 15.2 27.8605H8C6.9 27.8605 6 26.9605 6 25.8605V24.9605H17.2V25.8605C17.2 26.3605 17 26.8605 16.6 27.2605Z" fill="#2D373D"/>
<path d="M26.3002 7.66055H23.5002V4.86055C23.5002 3.86055 22.7002 3.06055 21.7002 3.06055H18.6002C17.6002 3.06055 16.8002 3.86055 16.8002 4.86055V7.66055H14.0002C13.0002 7.66055 12.2002 8.46055 12.2002 9.46055V12.4605C12.2002 13.4605 13.0002 14.2605 14.0002 14.2605H16.8002V17.0605C16.8002 18.0605 17.6002 18.8605 18.6002 18.8605H21.7002C22.7002 18.8605 23.5002 18.0605 23.5002 17.1605V14.3605H26.3002C27.3002 14.3605 28.1002 13.5605 28.1002 12.5605V9.46055C28.1002 8.46055 27.3002 7.66055 26.3002 7.66055ZM26.1002 12.2605H22.5002C21.9002 12.2605 21.5002 12.6605 21.5002 13.2605V16.8605H18.9002V13.2605C18.9002 12.6605 18.5002 12.2605 17.9002 12.2605H14.3002V9.66055H17.9002C18.5002 9.66055 18.9002 9.26055 18.9002 8.66055V5.06055H21.5002V8.66055C21.5002 9.26055 21.9002 9.66055 22.5002 9.66055H26.1002V12.2605Z" fill="#2D373D"/>
</svg>
