<svg width="32" height="33" viewBox="0 0 32 33" fill="none" xmlns="http://www.w3.org/2000/svg">
<path fill-rule="evenodd" clip-rule="evenodd" d="M15.4281 16.0924C14.6628 15.7458 13.81 15.6405 12.9834 15.7904C12.1567 15.9403 11.3953 16.3385 10.8005 16.9318C10.4095 17.3218 9.77629 17.321 9.38625 16.93C8.99622 16.539 8.99702 15.9059 9.38803 15.5158C10.2705 14.6356 11.4 14.045 12.6264 13.8225C13.8528 13.6001 15.1178 13.7563 16.2532 14.2706C16.7563 14.4984 16.9794 15.091 16.7516 15.5941C16.5237 16.0972 15.9312 16.3203 15.4281 16.0924Z" fill="#2D373D"/>
<path fill-rule="evenodd" clip-rule="evenodd" d="M19.4674 13.5496C17.891 12.1133 15.834 11.3193 13.7014 11.324C11.5688 11.3287 9.51527 12.1317 7.94523 13.575C7.53864 13.9487 6.90603 13.9221 6.53227 13.5155C6.15851 13.1089 6.18513 12.4763 6.59173 12.1025C8.52974 10.321 11.0646 9.32977 13.697 9.32397C16.3294 9.31817 18.8686 10.2983 20.8144 12.0712C21.2227 12.4432 21.2521 13.0757 20.8801 13.4839C20.5081 13.8921 19.8757 13.9215 19.4674 13.5496Z" fill="#2D373D"/>
<path fill-rule="evenodd" clip-rule="evenodd" d="M13.7275 6.92188C10.7816 6.92072 7.92346 7.92518 5.62596 9.76912C5.19524 10.1148 4.56584 10.0459 4.22015 9.61515C3.87446 9.18444 3.94339 8.55503 4.37411 8.20935C7.02685 6.08031 10.3269 4.92054 13.7283 4.92188C17.1297 4.92321 20.4288 6.08556 23.0799 8.21668C23.5103 8.56271 23.5788 9.19216 23.2328 9.62261C22.8867 10.0531 22.2573 10.1215 21.8268 9.77547C19.5308 7.92973 16.6735 6.92303 13.7275 6.92188Z" fill="#2D373D"/>
<path fill-rule="evenodd" clip-rule="evenodd" d="M16.2779 17.2018C17.5657 15.914 19.3122 15.1906 21.1334 15.1906C22.9545 15.1906 24.7011 15.914 25.9888 17.2018C27.2766 18.4895 28 20.2361 28 22.0572C28 23.8784 27.2766 25.6249 25.9888 26.9127C24.7011 28.2004 22.9545 28.9239 21.1334 28.9239C19.3122 28.9239 17.5657 28.2004 16.2779 26.9127C14.9902 25.6249 14.2667 23.8784 14.2667 22.0572C14.2667 20.2361 14.9902 18.4895 16.2779 17.2018ZM21.1334 17.1906C19.8427 17.1906 18.6048 17.7033 17.6921 18.616C16.7794 19.5287 16.2667 20.7665 16.2667 22.0572C16.2667 23.3479 16.7794 24.5858 17.6921 25.4985C18.6048 26.4112 19.8427 26.9239 21.1334 26.9239C22.4241 26.9239 23.6619 26.4112 24.5746 25.4985C25.4873 24.5858 26 23.3479 26 22.0572C26 20.7665 25.4873 19.5287 24.5746 18.616C23.6619 17.7033 22.4241 17.1906 21.1334 17.1906Z" fill="#2D373D"/>
<path fill-rule="evenodd" clip-rule="evenodd" d="M21.348 19.8784C21.1346 19.8359 20.9134 19.8577 20.7124 19.941C20.5114 20.0242 20.3396 20.1652 20.2187 20.3461C20.0979 20.527 20.0334 20.7397 20.0334 20.9572C20.0334 21.3622 19.705 21.6906 19.3 21.6906C18.895 21.6906 18.5667 21.3622 18.5667 20.9572C18.5667 20.4496 18.7172 19.9534 18.9993 19.5313C19.2813 19.1092 19.6821 18.7802 20.1511 18.5859C20.6201 18.3917 21.1362 18.3408 21.6341 18.4399C22.132 18.5389 22.5893 18.7834 22.9483 19.1423C23.3072 19.5013 23.5517 19.9586 23.6507 20.4565C23.7497 20.9544 23.6989 21.4705 23.5046 21.9394C23.3104 22.4084 22.9814 22.8093 22.5593 23.0913C22.1372 23.3734 21.641 23.5239 21.1334 23.5239C20.7283 23.5239 20.4 23.1956 20.4 22.7906C20.4 22.3856 20.7283 22.0572 21.1334 22.0572C21.3509 22.0572 21.5636 21.9927 21.7445 21.8718C21.9254 21.751 22.0664 21.5792 22.1496 21.3782C22.2329 21.1772 22.2547 20.956 22.2122 20.7426C22.1698 20.5293 22.065 20.3332 21.9112 20.1794C21.7573 20.0256 21.5613 19.9208 21.348 19.8784Z" fill="#2D373D"/>
<path d="M21.0845 24.355C21.2779 24.355 21.4669 24.4124 21.6277 24.5198C21.7885 24.6272 21.9138 24.7799 21.9878 24.9586C22.0619 25.1373 22.0812 25.3339 22.0435 25.5235C22.0058 25.7132 21.9126 25.8874 21.7759 26.0242C21.6391 26.1609 21.4649 26.254 21.2752 26.2918C21.0856 26.3295 20.889 26.3101 20.7103 26.2361C20.5316 26.1621 20.3789 26.0368 20.2715 25.876C20.1641 25.7152 20.1067 25.5262 20.1067 25.3328C20.1067 25.0735 20.2097 24.8248 20.3931 24.6414C20.5765 24.458 20.8252 24.355 21.0845 24.355Z" fill="#2D373D"/>
</svg>
