<svg width="32" height="33" viewBox="0 0 32 33" fill="none" xmlns="http://www.w3.org/2000/svg">
<path d="M27.1999 8.5623C26.1999 8.4623 24.8999 8.3623 23.4999 8.4623V5.3623C23.4999 5.0623 23.3999 4.8623 23.1999 4.6623C22.9999 4.4623 22.7999 4.3623 22.4999 4.3623C22.2999 4.3623 18.3999 4.4623 15.9999 6.4623C14.1999 5.1623 11.8999 4.4623 9.5999 4.3623C9.1999 4.3623 8.9999 4.4623 8.7999 4.6623C8.5999 4.8623 8.4999 5.0623 8.4999 5.3623V9.0623C6.5999 8.7623 5.1999 8.5623 4.9999 8.5623C4.6999 8.5623 4.3999 8.6623 4.1999 8.8623C3.9999 8.9623 3.8999 9.2623 3.8999 9.5623V16.9623C4.0999 23.3623 9.2999 28.4623 15.6999 28.4623C15.7999 28.4623 15.7999 28.4623 15.8999 28.4623C19.9999 28.5623 23.6999 26.5623 25.8999 23.4623C25.9999 23.3623 26.0999 23.1623 26.1999 22.9623C27.2999 21.2623 27.8999 19.1623 27.9999 16.9623V9.5623C27.9999 9.0623 27.6999 8.6623 27.1999 8.5623ZM21.4999 6.4623V8.6623C20.5999 8.8623 19.6999 9.0623 18.8999 9.4623C18.4999 8.8623 17.9999 8.2623 17.5999 7.7623C18.7999 6.9623 20.3999 6.6623 21.4999 6.4623ZM10.4999 6.4623C13.0999 6.7623 15.4999 8.1623 17.0999 10.3623C16.7999 10.5623 16.4999 10.8623 16.2999 11.1623C14.3999 10.4623 12.2999 9.8623 10.4999 9.4623V6.4623ZM15.8999 26.4623C10.4999 26.6623 5.9999 22.3623 5.8999 16.9623V10.7623C7.9999 10.9623 12.6999 11.7623 16.0999 13.2623H16.1999C17.0999 13.6623 17.8999 14.0623 18.5999 14.5623C21.2999 16.4623 23.2999 19.1623 24.0999 22.3623C22.2999 24.9623 19.2999 26.5623 15.8999 26.4623ZM26.0999 16.8623C25.9999 17.9623 25.7999 18.9623 25.4999 19.9623C24.2999 17.1623 22.3999 14.7623 19.8999 12.9623C19.3999 12.6623 18.8999 12.3623 18.2999 12.0623C20.1999 10.4623 23.5999 10.2623 26.0999 10.4623V16.8623V16.8623Z" fill="#2D373D"/>
</svg>
