<svg width="16" height="17" viewBox="0 0 16 17" fill="none" xmlns="http://www.w3.org/2000/svg">
<path d="M13.5002 13.4601H13.2502V9.16011C13.2502 8.71011 12.9002 8.31011 12.4002 8.31011H10.9502C10.5002 8.31011 10.1002 8.66011 10.1002 9.16011V13.4601H9.5502V7.71011C9.5502 7.26011 9.2002 6.86011 8.7002 6.86011H7.2502C6.8002 6.86011 6.4002 7.21011 6.4002 7.71011V13.4601H5.9002V11.4101C5.9002 10.9601 5.5502 10.5601 5.0502 10.5601H3.5502C3.1002 10.5601 2.7002 10.9101 2.7002 11.4101V13.4601H2.4502C2.1502 13.4601 1.9502 13.6601 1.9502 13.9601C1.9502 14.2601 2.1502 14.4601 2.4502 14.4601H13.5002C13.8002 14.4601 14.0002 14.2601 14.0002 13.9601C14.0002 13.6601 13.8002 13.4601 13.5002 13.4601ZM4.9002 13.4601H3.7002V11.5101H4.9002V13.4601ZM8.6002 13.4601H7.4002V7.86011H8.6002V13.4601ZM12.2502 13.4601H11.0502V9.31011H12.2502V13.4601Z" fill="#2D373D"/>
<path d="M13.5002 2.41016H11.3002C11.0002 2.41016 10.8002 2.61016 10.8002 2.91016C10.8002 3.21016 11.0002 3.41016 11.3002 3.41016H12.3002L10.6502 5.06016C10.5002 5.21016 10.3002 5.26016 10.0502 5.21016L7.2502 4.46016C6.7002 4.31016 6.1002 4.46016 5.7002 4.86016L2.8502 7.71016C2.6502 7.91016 2.6502 8.21016 2.8502 8.41016C2.9502 8.51016 3.0502 8.56016 3.2002 8.56016C3.3002 8.56016 3.4502 8.51016 3.5502 8.41016L6.4002 5.56016C6.5502 5.41016 6.8002 5.36016 7.0002 5.41016L9.7502 6.16016C10.3002 6.31016 10.9502 6.16016 11.3502 5.76016L13.0002 4.11016V5.11016C13.0002 5.41016 13.2002 5.61016 13.5002 5.61016C13.8002 5.61016 14.0002 5.41016 14.0002 5.11016V2.91016C14.0002 2.61016 13.8002 2.41016 13.5002 2.41016Z" fill="#2D373D"/>
</svg>
