<svg width="32" height="33" viewBox="0 0 32 33" fill="none" xmlns="http://www.w3.org/2000/svg">
<path d="M10.6803 3.58984C11.2326 3.58984 11.6803 4.03756 11.6803 4.58984V15.3403L12.4551 14.5697C12.8467 14.1802 13.4799 14.182 13.8693 14.5735C14.2588 14.9651 14.2571 15.5983 13.8655 15.9877L11.3882 18.4518C11.3788 18.4611 11.3693 18.4703 11.3596 18.4793C11.2732 18.5594 11.1761 18.6214 11.0731 18.6653C10.9525 18.7169 10.8198 18.7454 10.6803 18.7454C10.6115 18.7454 10.5438 18.7384 10.4788 18.7251C10.2942 18.6874 10.1182 18.5972 9.97465 18.4544L7.49467 15.9877C7.10309 15.5983 7.10139 14.9651 7.49086 14.5735C7.88033 14.182 8.5135 14.1802 8.90507 14.5697L9.68034 15.3408V4.58984C9.68034 4.03756 10.1281 3.58984 10.6803 3.58984Z" fill="#2D373D"/>
<path d="M21.3464 3.58984C21.8986 3.58984 22.3464 4.03756 22.3464 4.58984V7.58984C22.3464 8.14213 21.8986 8.58984 21.3464 8.58984C20.7941 8.58984 20.3464 8.14213 20.3464 7.58984V4.58984C20.3464 4.03756 20.7941 3.58984 21.3464 3.58984Z" fill="#2D373D"/>
<path fill-rule="evenodd" clip-rule="evenodd" d="M22.3464 11.9213L28.1779 6.12109C28.5694 5.73162 28.5711 5.09845 28.1817 4.70688C27.7922 4.31531 27.159 4.3136 26.7675 4.70308L3.62097 27.7253C3.2294 28.1148 3.22769 28.7479 3.61717 29.1395C4.00664 29.5311 4.6398 29.5328 5.03137 29.1433L18.2096 16.0358L20.6302 18.4433C20.6398 18.4532 20.6496 18.4628 20.6596 18.4723C20.7479 18.5558 20.8477 18.6202 20.9537 18.6654C21.0742 18.7169 21.207 18.7454 21.3464 18.7454C21.462 18.7454 21.5731 18.7258 21.6764 18.6897C21.815 18.6413 21.9451 18.5617 22.0555 18.4506L22.0624 18.4436L24.5315 15.9877C24.9231 15.5983 24.9248 14.9651 24.5353 14.5735C24.1459 14.182 23.5127 14.1802 23.1211 14.5697L22.3464 15.3403V11.9213ZM20.3464 13.9106L19.6277 14.6254L20.3464 15.3402V13.9106Z" fill="#2D373D"/>
<path d="M8.4581 21.784C8.98204 21.6094 9.2652 21.0431 9.09055 20.5191C8.91591 19.9952 8.34959 19.712 7.82564 19.8867C5.64867 20.6123 4.44214 21.5734 3.00403 22.8435C2.59009 23.2091 2.55091 23.8411 2.91652 24.255C3.28213 24.669 3.91408 24.7082 4.32802 24.3426C5.68889 23.1406 6.65654 22.3846 8.4581 21.784Z" fill="#2D373D"/>
<path d="M29.0398 22.1986C29.4303 21.808 29.4303 21.1749 29.0398 20.7843C28.6493 20.3938 28.0161 20.3938 27.6256 20.7843C25.4409 22.9691 23.2173 23.4783 21.0525 23.286C18.9911 23.1029 16.9872 22.2892 15.0517 21.5033C14.875 21.4315 14.6989 21.36 14.5233 21.2892C14.0111 21.0827 13.4285 21.3305 13.2219 21.8427C13.0154 22.3549 13.2632 22.9375 13.7754 23.1441C13.9546 23.2164 14.138 23.2911 14.3253 23.3673C16.2157 24.1374 18.4977 25.067 20.8755 25.2782C23.5739 25.5178 26.3981 24.8403 29.0398 22.1986Z" fill="#2D373D"/>
<path d="M9.11263 26.0597C9.11263 25.5074 9.56035 25.0597 10.1126 25.0597C11.3674 25.0597 12.7826 25.5752 14.1367 26.1122C14.4165 26.2232 14.6974 26.3368 14.98 26.451C16.1337 26.9175 17.3143 27.3948 18.5501 27.7473C20.0742 28.1819 21.5951 28.3976 23.0889 28.1556C24.5631 27.9168 26.0804 27.2212 27.594 25.7158C27.9855 25.3263 28.6187 25.328 29.0082 25.7196C29.3976 26.1112 29.3959 26.7443 29.0044 27.1338C27.2113 28.9173 25.3186 29.8205 23.4087 30.1299C21.5183 30.4361 19.6809 30.1494 18.0017 29.6706C16.6526 29.2859 15.3486 28.7581 14.1886 28.2886L14.1855 28.2874C13.9152 28.178 13.6527 28.0718 13.3994 27.9713C11.9893 27.4121 10.9245 27.0597 10.1126 27.0597C9.56035 27.0597 9.11263 26.612 9.11263 26.0597Z" fill="#2D373D"/>
</svg>
