<svg width="24" height="24" viewBox="0 0 24 24" fill="none" xmlns="http://www.w3.org/2000/svg">
<path d="M9.1498 17.2498H4.7248C4.6498 17.2498 4.4998 17.1748 4.4998 17.1748C4.4998 17.1748 4.4248 17.0998 4.4248 16.9498V7.7248H18.5248V10.8748C18.5248 11.3248 18.8248 11.6248 19.2748 11.6248C19.7248 11.6248 20.0248 11.3248 20.0248 10.8748V4.7998C20.0248 3.7498 19.1998 2.9248 18.1498 2.9248H4.7998C4.2748 2.9248 3.8248 3.1498 3.4498 3.4498C3.1498 3.8248 2.9248 4.2748 2.9248 4.7998V16.9498C2.9248 17.4748 3.1498 17.9248 3.5248 18.2998C3.8248 18.5998 4.2748 18.8248 4.7998 18.8248C4.7998 18.8248 4.7998 18.8248 4.7998 18.7498H9.1498C9.5998 18.7498 9.8998 18.4498 9.8998 17.9998C9.8998 17.5498 9.5998 17.2498 9.1498 17.2498ZM4.4998 4.4998C4.5748 4.4998 4.6498 4.4248 4.7998 4.4248H18.1498C18.3748 4.4248 18.5248 4.5748 18.5248 4.7998V6.2248H4.4248V4.7998C4.4248 4.6498 4.4248 4.4998 4.4998 4.4998Z" fill="#2D373D"/>
<path d="M15.2998 17.7748C15.1498 17.9248 15.0748 18.0748 15.0748 18.2998C15.0748 18.5248 15.1498 18.6748 15.2998 18.8248C15.4498 18.9748 15.5998 19.0498 15.8248 19.0498C16.0498 19.0498 16.1998 18.9748 16.3498 18.8248C16.4998 18.6748 16.5748 18.5248 16.5748 18.2998C16.5748 18.0748 16.4998 17.9248 16.3498 17.7748C16.0498 17.4748 15.5998 17.4748 15.2998 17.7748Z" fill="#2D373D"/>
<path d="M15.8248 13.4248C15.3748 13.4248 15.0748 13.7248 15.0748 14.1748V16.4248C15.0748 16.8748 15.3748 17.1748 15.8248 17.1748C16.2748 17.1748 16.5748 16.7998 16.5748 16.4248V14.1748C16.5748 13.7248 16.2748 13.4248 15.8248 13.4248Z" fill="#2D373D"/>
<path d="M20.9247 18.0747L17.7747 11.8497C17.6247 11.4747 17.2497 11.1747 16.8747 10.9497C15.8247 10.4247 14.6247 10.7997 14.0997 11.8497L10.9497 18.0747C10.7997 18.2997 10.7247 18.6747 10.7247 18.9747C10.7247 20.0997 11.6247 20.9997 12.7497 20.9997H18.9747C19.2747 20.9997 19.5747 20.9247 19.9497 20.8497C20.4747 20.6247 20.8497 20.1747 20.9997 19.6497C21.2247 19.1247 21.1497 18.5997 20.9247 18.0747ZM19.3497 19.0497C19.2747 19.1997 19.1997 19.2747 19.0497 19.3497C18.9747 19.4247 18.8997 19.4247 18.8247 19.4247H12.5997C12.2997 19.4247 12.0747 19.1997 12.0747 18.8997C12.0747 18.8247 12.0747 18.7497 12.1497 18.6747L15.2997 12.4497C15.4497 12.2997 15.5997 12.1497 15.8247 12.1497C15.8997 12.1497 16.0497 12.2247 15.9747 12.1497C16.0497 12.1497 16.1247 12.2997 16.1997 12.3747L19.3497 18.5997C19.3497 18.7497 19.4247 18.8997 19.3497 19.0497Z" fill="#2D373D"/>
</svg>
