<svg width="16" height="17" viewBox="0 0 16 17" fill="none" xmlns="http://www.w3.org/2000/svg">
<path fill-rule="evenodd" clip-rule="evenodd" d="M4.66357 3.56553C4.66357 3.20702 4.90361 2.96583 5.09458 2.83037C5.29855 2.6857 5.56127 2.57588 5.84089 2.49199C6.4065 2.32231 7.15793 2.22461 7.9666 2.22461C8.77528 2.22461 9.52671 2.32231 10.0923 2.49199C10.3719 2.57588 10.6347 2.6857 10.8386 2.83037C11.0296 2.96583 11.2696 3.20701 11.2696 3.56552V7.48977C11.2696 7.84829 11.0296 8.08947 10.8386 8.22492C10.6347 8.36959 10.3719 8.47941 10.0923 8.5633C9.52671 8.73298 8.77528 8.83068 7.9666 8.83068C7.15793 8.83068 6.4065 8.73298 5.84089 8.5633C5.56127 8.47941 5.29855 8.36959 5.09458 8.22492C4.90361 8.08947 4.66357 7.84829 4.66357 7.48977V3.56553ZM5.62931 3.44827C5.62912 3.44828 5.63029 3.44986 5.63337 3.45296C5.63103 3.4498 5.62949 3.44825 5.62931 3.44827ZM5.81628 3.56552C5.8961 3.60291 5.99937 3.64256 6.12824 3.68122C6.57712 3.81588 7.22721 3.90643 7.9666 3.90643C8.706 3.90643 9.35609 3.81588 9.80497 3.68122C9.93384 3.64256 10.0371 3.60291 10.1169 3.56552C10.0371 3.52813 9.93384 3.48848 9.80497 3.44982C9.35609 3.31515 8.706 3.22461 7.9666 3.22461C7.22721 3.22461 6.57712 3.31515 6.12824 3.44982C5.99937 3.48848 5.8961 3.52813 5.81628 3.56552ZM10.3039 3.44827C10.3037 3.44825 10.3022 3.4498 10.2998 3.45296C10.3029 3.44986 10.3041 3.44828 10.3039 3.44827ZM5.84089 4.63904C6.4065 4.80873 7.15793 4.90643 7.9666 4.90643C8.77528 4.90643 9.52671 4.80873 10.0923 4.63904C10.1523 4.62104 10.2116 4.60184 10.2696 4.58135V5.44019C10.2667 5.44238 10.2635 5.44468 10.2601 5.44711C10.1804 5.50365 10.0326 5.57503 9.80497 5.64332C9.35609 5.77798 8.706 5.86852 7.9666 5.86852C7.22721 5.86852 6.57712 5.77798 6.12824 5.64332C5.90061 5.57503 5.75283 5.50365 5.67312 5.44711C5.6697 5.44468 5.66653 5.44238 5.66357 5.44019V4.58135C5.72162 4.60184 5.78087 4.62104 5.84089 4.63904ZM10.2696 6.54345V7.40235L10.2601 7.40926C10.1804 7.4658 10.0326 7.53719 9.80497 7.60547C9.35609 7.74014 8.706 7.83068 7.9666 7.83068C7.22721 7.83068 6.57712 7.74014 6.12824 7.60547C5.90061 7.53719 5.75283 7.4658 5.67312 7.40926L5.66357 7.40235V6.54345C5.72162 6.56393 5.78087 6.58313 5.84089 6.60114C6.4065 6.77083 7.15793 6.86853 7.9666 6.86853C8.77528 6.86853 9.52671 6.77083 10.0923 6.60114C10.1523 6.58313 10.2116 6.56393 10.2696 6.54345ZM5.62931 7.37252C5.62912 7.37254 5.63029 7.37412 5.63337 7.37721C5.63103 7.37406 5.62949 7.37251 5.62931 7.37252ZM10.3039 7.37252C10.3037 7.37251 10.3022 7.37406 10.2998 7.37721C10.3029 7.37412 10.3041 7.37254 10.3039 7.37252Z" fill="#2D373D"/>
<path d="M2.86149 7.20943C2.86149 7.14929 2.88365 7.04795 2.93544 6.97602C2.95771 6.94509 2.98363 6.92178 3.01643 6.90486C3.04884 6.88814 3.1056 6.86853 3.2024 6.86853C3.47854 6.86853 3.7024 6.64467 3.7024 6.36852C3.7024 6.09238 3.47854 5.86852 3.2024 5.86852C2.70308 5.86852 2.34274 6.08778 2.12391 6.39171C1.92343 6.67016 1.86149 6.98927 1.86149 7.20943V8.33065C1.86149 8.60679 2.08535 8.83065 2.36149 8.83065C2.63763 8.83065 2.86149 8.60679 2.86149 8.33065V7.20943Z" fill="#2D373D"/>
<path fill-rule="evenodd" clip-rule="evenodd" d="M1.30029 10.5882C1.30029 9.99412 1.78193 9.51249 2.37605 9.51249H6.26999C6.86411 9.51249 7.34575 9.99412 7.34575 10.5882V12.8004C7.34575 13.3945 6.86411 13.8761 6.26999 13.8761H4.82302V14.5579H5.72454C6.00068 14.5579 6.22454 14.7818 6.22454 15.0579C6.22454 15.3341 6.00068 15.5579 5.72454 15.5579H2.92151C2.64536 15.5579 2.42151 15.3341 2.42151 15.0579C2.42151 14.7818 2.64536 14.5579 2.92151 14.5579H3.82302V13.8761H2.37605C1.78193 13.8761 1.30029 13.3945 1.30029 12.8004V10.5882ZM2.37605 10.5125C2.33421 10.5125 2.30029 10.5464 2.30029 10.5882V12.8004C2.30029 12.8422 2.33421 12.8761 2.37605 12.8761H6.26999C6.31183 12.8761 6.34575 12.8422 6.34575 12.8004V10.5882C6.34575 10.5464 6.31183 10.5125 6.26999 10.5125H2.37605Z" fill="#2D373D"/>
<path fill-rule="evenodd" clip-rule="evenodd" d="M14.6336 10.5882C14.6336 9.99412 14.152 9.51249 13.5579 9.51249H9.66393C9.06981 9.51249 8.58817 9.99412 8.58817 10.5882V12.8004C8.58817 13.3945 9.0698 13.8761 9.66393 13.8761H11.1109V14.5579H10.2094C9.93324 14.5579 9.70938 14.7818 9.70938 15.0579C9.70938 15.3341 9.93324 15.5579 10.2094 15.5579H13.0124C13.2886 15.5579 13.5124 15.3341 13.5124 15.0579C13.5124 14.7818 13.2886 14.5579 13.0124 14.5579H12.1109V13.8761H13.5579C14.152 13.8761 14.6336 13.3945 14.6336 12.8004V10.5882ZM13.5579 10.5125C13.5997 10.5125 13.6336 10.5464 13.6336 10.5882V12.8004C13.6336 12.8422 13.5997 12.8761 13.5579 12.8761H9.66393C9.62209 12.8761 9.58817 12.8422 9.58817 12.8004V10.5882C9.58817 10.5464 9.62209 10.5125 9.66393 10.5125H13.5579Z" fill="#2D373D"/>
<path d="M12.9985 6.97602C13.0503 7.04795 13.0724 7.14929 13.0724 7.20943V8.33065C13.0724 8.60679 13.2963 8.83065 13.5724 8.83065C13.8486 8.83065 14.0724 8.60679 14.0724 8.33065V7.20943C14.0724 6.98927 14.0105 6.67016 13.81 6.39171C13.5912 6.08778 13.2308 5.86852 12.7315 5.86852C12.4554 5.86852 12.2315 6.09238 12.2315 6.36852C12.2315 6.64467 12.4554 6.86853 12.7315 6.86853C12.8283 6.86853 12.8851 6.88814 12.9175 6.90486C12.9503 6.92178 12.9762 6.94509 12.9985 6.97602Z" fill="#2D373D"/>
</svg>
