<svg width="16" height="17" viewBox="0 0 16 17" fill="none" xmlns="http://www.w3.org/2000/svg">
<path d="M12.6502 9.41171C13.5002 8.26171 13.9502 6.96171 14.0502 5.56171C14.0502 4.01171 13.1502 2.61171 11.7002 2.01171C10.4002 1.51171 9.0002 1.76171 8.0002 2.61171C7.0002 1.76171 5.5502 1.51171 4.3002 2.01171C2.8502 2.61171 1.9502 4.01171 1.9502 5.61171C2.0502 6.96171 2.5002 8.31171 3.3502 9.41171C3.4502 9.46171 3.4502 9.61171 3.4002 9.71171C3.2002 10.1617 2.4502 13.2617 3.2002 14.6117C3.5002 15.0117 3.8502 15.2117 4.3002 15.2117C5.3002 15.2117 5.5502 14.2617 5.7002 13.6117C5.9502 12.6617 6.1502 11.8617 7.7002 11.8617H8.1502C9.7002 11.8617 9.9002 12.6117 10.1502 13.5617C10.3502 14.2617 10.5502 15.1617 11.6002 15.1617C12.0502 15.1617 12.4002 14.9617 12.7002 14.5617C13.5502 13.2617 12.8002 10.1617 12.6002 9.71171C12.5502 9.61171 12.6002 9.51171 12.6502 9.41171ZM11.7002 10.1617C11.9002 10.6617 12.3502 13.3117 11.8502 14.0617C11.7502 14.2117 11.7002 14.2117 11.6002 14.2117C11.4002 14.2117 11.3502 14.1117 11.1502 13.3617C10.9002 12.4117 10.5502 10.8617 8.2002 10.8617H7.7502C5.4502 10.8617 5.0502 12.4117 4.8502 13.3117C4.6502 14.1117 4.6002 14.1617 4.4002 14.1617C4.3002 14.1617 4.2502 14.1117 4.1502 14.0117C3.6002 13.2617 4.1002 10.6117 4.3002 10.1117C4.5002 9.71171 4.4502 9.16171 4.1502 8.81171C3.4502 7.86171 3.0502 6.71171 2.9502 5.56171C2.9502 4.41171 3.6502 3.41171 4.7002 2.96171C5.7002 2.56171 6.9002 2.81171 7.6502 3.71171C7.8502 3.91171 8.2002 3.91171 8.4002 3.71171C9.1002 2.91171 10.3002 2.61171 11.3002 3.01171C12.3502 3.46171 13.0502 4.51171 13.0502 5.61171C12.9502 6.76171 12.5502 7.91171 11.8502 8.86171C11.6002 9.21171 11.5002 9.71171 11.7002 10.1617Z" fill="#2D373D"/>
</svg>
