<svg width="32" height="33" viewBox="0 0 32 33" fill="none" xmlns="http://www.w3.org/2000/svg">
<path d="M25 22.1607C23.6 21.5607 22.7 20.1607 22.7 18.6607C22.7 18.5607 22.7 18.5607 22.7 18.5607C22.8 17.2607 23.5 16.0607 24.6 15.3607C24.9 15.2607 25 15.0607 25.1 14.7607C25.1 14.4607 25.1 14.1607 24.9 13.9607C23.8 12.3607 22 11.4607 20.2 11.3607C19 11.2607 17.8 11.7607 16.9 12.0607C16.6 12.1607 16.1 12.3607 16 12.3607C15.8 12.3607 15.4 12.1607 15 12.0607C14.3 11.7607 13.4 11.4607 12.4 11.4607C10.2 11.4607 8.2 12.7607 7.1 14.6607C5 18.1607 6.3 23.4607 8.5 26.6607C9.4 27.9607 10.7 29.8607 12.7 29.8607C12.8 29.8607 12.8 29.8607 12.7 29.7607C13.6 29.7607 14.2 29.4607 14.7 29.2607C15.2 29.0607 15.6 28.8607 16.3 28.8607C16.9 28.8607 17.3 29.0607 17.8 29.2607C18.4 29.4607 19 29.7607 19.9 29.7607C21.9 29.7607 23.2 27.8607 24 26.6607C24.7 25.6607 25.2 24.5607 25.6 23.3607C25.7 22.8607 25.5 22.3607 25 22.1607ZM22.5 25.6607C21.7 26.8607 20.9 27.8607 20 27.8607C19.5 27.8607 19.1 27.7607 18.7 27.5607C18.2 27.3607 17.5 27.0607 16.4 27.0607C15.3 27.0607 14.6 27.3607 14 27.5607C13.6 27.6607 13.3 27.8607 12.8 27.8607C11.9 27.8607 11 26.6607 10.2 25.5607C8.6 23.2607 7.2 18.6607 8.9 15.6607C9.7 14.3607 11.1 13.4607 12.6 13.4607C13.1 13.4607 13.8 13.7607 14.4 13.8607C15 14.1607 15.5 14.3607 16.1 14.3607C16.6 14.3607 17.1 14.1607 17.8 14.0607C18.6 13.7607 19.4 13.3607 20.3 13.4607C21.2 13.4607 22.1 13.8607 22.8 14.4607C21.6 15.5607 20.9 17.1607 20.9 18.7607V18.8607C20.9 20.8607 22 22.6607 23.6 23.6607C23.3 24.3607 22.9 25.0607 22.5 25.6607Z" fill="#2D373D"/>
<path d="M16 10.8605C17.7 10.8605 19.3 10.0605 20.4 8.66055C21.5 7.36055 22 5.66055 21.9 3.96055C21.8 3.66055 21.7 3.46055 21.5 3.26055C21.3 3.16055 21.1 3.06055 20.8 3.06055C19.1 3.26055 17.6 4.06055 16.5 5.26055C15.4 6.56055 14.8 8.26055 15 9.96055C15 10.4605 15.5 10.8605 16 10.8605ZM18 6.56055C18.5 6.06055 19.1 5.56055 19.8 5.36055C19.7 6.06055 19.4 6.76055 18.8 7.36055C18.4 7.96055 17.7 8.46055 17 8.66055C17.1 7.86055 17.5 7.16055 18 6.56055Z" fill="#2D373D"/>
</svg>
