<svg width="32" height="33" viewBox="0 0 32 33" fill="none" xmlns="http://www.w3.org/2000/svg">
<path d="M15.9855 28.4653C17.5963 28.4653 18.9022 27.1595 18.9022 25.5487C18.9022 23.9378 17.5963 22.632 15.9855 22.632C14.3747 22.632 13.0688 23.9378 13.0688 25.5487C13.0688 27.1595 14.3747 28.4653 15.9855 28.4653Z" fill="#2D373D"/>
<path d="M15.9855 9.79867C17.5963 9.79867 18.9022 8.49283 18.9022 6.882C18.9022 5.27117 17.5963 3.96533 15.9855 3.96533C14.3747 3.96533 13.0688 5.27117 13.0688 6.882C13.0688 8.49283 14.3747 9.79867 15.9855 9.79867Z" fill="#2D373D"/>
<path d="M15.9855 19.132C17.5963 19.132 18.9022 17.8262 18.9022 16.2153C18.9022 14.6045 17.5963 13.2987 15.9855 13.2987C14.3747 13.2987 13.0688 14.6045 13.0688 16.2153C13.0688 17.8262 14.3747 19.132 15.9855 19.132Z" fill="#2D373D"/>
</svg>
