<svg width="64" height="65" viewBox="0 0 64 65" fill="none" xmlns="http://www.w3.org/2000/svg">
<path d="M29.9998 31.7246C30.3998 30.7246 29.9998 29.5246 28.9998 29.1246C28.1998 28.7246 27.1998 28.5246 26.3998 28.3246C30.3998 26.9246 33.1998 23.1246 33.1998 18.9246C33.1998 13.3246 28.5998 8.72461 22.9998 8.72461C17.5998 8.72461 12.9998 13.3246 12.7998 18.7246C12.7998 23.1246 15.5998 26.9246 19.5998 28.3246C12.7998 29.9246 7.7998 35.9246 7.7998 43.1246C7.7998 44.3246 8.5998 45.1246 9.7998 45.1246C10.9998 45.1246 11.7998 44.3246 11.9998 42.9246C11.9998 36.7246 16.9998 31.7246 23.1998 31.7246C24.7998 31.7246 26.1998 32.1246 27.5998 32.7246C28.5998 33.3246 29.7998 32.7246 29.9998 31.7246ZM16.9998 18.9246C16.9998 15.5246 19.7998 12.7246 22.9998 12.7246C26.3998 12.7246 29.1998 15.3246 29.1998 18.7246C29.1998 22.1246 26.1998 24.9246 22.9998 24.9246C19.7998 24.9246 16.9998 22.3246 16.9998 18.9246Z" fill="#2D373D"/>
<path d="M42.2004 29.3247C34.6004 29.3247 28.4004 35.5247 28.4004 43.1247C28.4004 50.7247 34.6004 56.9247 42.2004 56.9247C49.8004 56.9247 56.0004 50.7247 56.0004 43.1247C56.0004 35.5247 49.8004 29.3247 42.2004 29.3247ZM42.2004 52.9247C36.8004 52.9247 32.4004 48.5247 32.4004 43.1247C32.4004 37.7247 36.8004 33.3247 42.2004 33.3247C47.6004 33.3247 52.0004 37.7247 52.0004 43.1247C52.0004 48.5247 47.6004 52.9247 42.2004 52.9247Z" fill="#2D373D"/>
<path d="M42.1992 41.1245C40.9992 41.1245 40.1992 41.9245 40.1992 43.1245V49.1245C40.1992 50.3245 40.9992 51.1245 42.1992 51.1245C43.3992 51.1245 44.1992 50.1245 44.1992 49.1245V43.1245C44.1992 41.9245 43.3992 41.1245 42.1992 41.1245Z" fill="#2D373D"/>
<path d="M43.7992 36.5248C43.5992 36.5248 43.5992 36.5248 43.3992 36.3248C43.1992 36.1248 43.1992 36.1248 42.9992 36.1248C42.7992 35.9248 42.7992 35.9248 42.5992 35.9248C41.9992 35.9248 41.1992 36.1248 40.7992 36.5248C40.5992 36.7248 40.3992 36.9248 40.3992 37.1248C40.1992 37.3248 40.1992 37.7248 40.1992 37.9248C40.1992 38.5248 40.3992 38.9248 40.7992 39.3248C41.1992 39.7248 41.5992 39.9248 42.1992 39.9248C42.7992 39.9248 43.1992 39.7248 43.7992 39.3248C44.1992 38.9248 44.3992 38.5248 44.3992 37.9248C44.3992 37.5248 44.1992 37.3248 44.1992 37.1248C44.1992 36.9248 43.9992 36.7248 43.7992 36.5248Z" fill="#2D373D"/>
</svg>
