<svg width="32" height="32" viewBox="0 0 32 32" fill="none" xmlns="http://www.w3.org/2000/svg">
<path d="M10.6665 17.1667C10.6665 17.903 10.0695 18.5 9.33317 18.5C8.59679 18.5 7.99984 17.903 7.99984 17.1667C7.99984 16.4303 8.59679 15.8333 9.33317 15.8333C10.0695 15.8333 10.6665 16.4303 10.6665 17.1667Z" fill="#2D373D"/>
<path d="M15.9998 18.5C16.7362 18.5 17.3332 17.903 17.3332 17.1667C17.3332 16.4303 16.7362 15.8333 15.9998 15.8333C15.2635 15.8333 14.6665 16.4303 14.6665 17.1667C14.6665 17.903 15.2635 18.5 15.9998 18.5Z" fill="#2D373D"/>
<path d="M23.9998 17.1667C23.9998 17.903 23.4029 18.5 22.6665 18.5C21.9301 18.5 21.3332 17.903 21.3332 17.1667C21.3332 16.4303 21.9301 15.8333 22.6665 15.8333C23.4029 15.8333 23.9998 16.4303 23.9998 17.1667Z" fill="#2D373D"/>
<path d="M9.33317 23.1667C10.0695 23.1667 10.6665 22.5697 10.6665 21.8333C10.6665 21.097 10.0695 20.5 9.33317 20.5C8.59679 20.5 7.99984 21.097 7.99984 21.8333C7.99984 22.5697 8.59679 23.1667 9.33317 23.1667Z" fill="#2D373D"/>
<path d="M17.3332 21.8333C17.3332 22.5697 16.7362 23.1667 15.9998 23.1667C15.2635 23.1667 14.6665 22.5697 14.6665 21.8333C14.6665 21.097 15.2635 20.5 15.9998 20.5C16.7362 20.5 17.3332 21.097 17.3332 21.8333Z" fill="#2D373D"/>
<path d="M22.6665 23.1667C23.4029 23.1667 23.9998 22.5697 23.9998 21.8333C23.9998 21.097 23.4029 20.5 22.6665 20.5C21.9301 20.5 21.3332 21.097 21.3332 21.8333C21.3332 22.5697 21.9301 23.1667 22.6665 23.1667Z" fill="#2D373D"/>
<path fill-rule="evenodd" clip-rule="evenodd" d="M11.6665 5.5C11.6665 4.94772 11.2188 4.5 10.6665 4.5C10.1142 4.5 9.6665 4.94772 9.6665 5.5V5.83333H3.56653C3.06946 5.83333 2.6665 6.23629 2.6665 6.73336V26.2666C2.6665 26.7637 3.06946 27.1667 3.56653 27.1667H28.4331C28.9302 27.1667 29.3332 26.7637 29.3332 26.2666V6.73336C29.3332 6.23629 28.9302 5.83333 28.4331 5.83333H22.3332V5.5C22.3332 4.94772 21.8855 4.5 21.3332 4.5C20.7809 4.5 20.3332 4.94772 20.3332 5.5V5.83333H11.6665V5.5ZM4.6665 7.83333H9.6665V7.90014C9.6665 8.45243 10.1142 8.90014 10.6665 8.90014C11.2188 8.90014 11.6665 8.45243 11.6665 7.90014V7.83333H20.3332V7.90014C20.3332 8.45243 20.7809 8.90014 21.3332 8.90014C21.8855 8.90014 22.3332 8.45243 22.3332 7.90014V7.83333H27.3332V11.8333L4.6665 11.8333V7.83333ZM4.6665 13.8333V25.1667H27.3332V13.8333L4.6665 13.8333Z" fill="#2D373D"/>
</svg>
