<svg width="64" height="64" viewBox="0 0 64 64" fill="none" xmlns="http://www.w3.org/2000/svg">
<path d="M41.9998 15.2H40.5998V7.19995C40.5998 5.99995 39.7998 5.19995 38.5998 5.19995C37.3998 5.19995 36.5998 5.99995 36.5998 7.19995V15.2H27.3998V7.19995C27.3998 5.99995 26.5998 5.19995 25.3998 5.19995C24.1998 5.19995 23.3998 5.99995 23.3998 7.19995V15.2H22.1998C19.1998 15.2 16.7998 17.4 16.7998 20.4V30.4C16.7998 35.6 19.3998 40.2 23.3998 43V46.7999C23.3998 49.7999 25.7998 52.2 28.7998 52.2H29.9998V56.7999C29.9998 58 30.7998 58.7999 31.9998 58.7999C33.1998 58.7999 33.9998 58 33.9998 56.7999V52.2H35.3998C38.1998 52.2 40.5998 49.7999 40.7998 46.7999V42.7999C44.5998 40 47.1998 35.6 47.3998 30.4V20.4C47.3998 17.6 44.9998 15.2 41.9998 15.2ZM36.7998 46.7999C36.7998 47.5999 36.1998 48.2 35.3998 48.2H28.7998C27.9998 48.2 27.3998 47.5999 27.3998 46.7999V44.7999C28.7998 45.2 30.3998 45.5999 31.9998 45.5999C33.5998 45.5999 35.1998 45.3999 36.7998 44.7999V46.7999ZM43.1998 30.4C43.1998 36.6 38.1998 41.5999 31.9998 41.5999C30.1998 41.5999 28.3998 41.2 26.7998 40.4C26.5998 40.2 26.3998 40 25.9998 40C22.7998 38 20.5998 34.6 20.5998 30.4V20.4C20.5998 19.8 21.1998 19.2 21.9998 19.2H41.5998C42.3998 19.2 42.9998 19.6 42.9998 20.4V30.4H43.1998Z" fill="#2D373D"/>
</svg>
