<svg width="16" height="16" viewBox="0 0 16 16" fill="none" xmlns="http://www.w3.org/2000/svg">
<path d="M4.24981 8.04999C4.54981 8.04999 4.74981 7.84999 4.74981 7.54999V6.74999C4.74981 6.44999 4.54981 6.24999 4.24981 6.24999C3.94981 6.24999 3.74981 6.44999 3.74981 6.74999V7.54999C3.74981 7.84999 3.94981 8.04999 4.24981 8.04999Z" fill="#2D373D"/>
<path d="M6.74981 8.04999C7.04981 8.04999 7.24981 7.84999 7.24981 7.54999V6.74999C7.24981 6.44999 7.04981 6.24999 6.74981 6.24999C6.44981 6.24999 6.24981 6.44999 6.24981 6.74999V7.54999C6.24981 7.84999 6.44981 8.04999 6.74981 8.04999Z" fill="#2D373D"/>
<path d="M9.1998 8.04999C9.4998 8.04999 9.6998 7.84999 9.6998 7.54999V6.74999C9.6998 6.44999 9.4998 6.24999 9.1998 6.24999C8.8998 6.24999 8.6998 6.44999 8.6998 6.74999V7.54999C8.6998 7.84999 8.8998 8.04999 9.1998 8.04999Z" fill="#2D373D"/>
<path d="M11.6998 8.04999C11.9498 8.04999 12.1998 7.84999 12.1998 7.54999V6.74999C12.1998 6.44999 11.9998 6.24999 11.6998 6.24999C11.3998 6.24999 11.1998 6.44999 11.1998 6.74999V7.54999C11.1998 7.84999 11.3998 8.04999 11.6998 8.04999Z" fill="#2D373D"/>
<path d="M4.24981 10.55C4.54981 10.55 4.74981 10.35 4.74981 10.05V9.2C4.74981 8.9 4.54981 8.7 4.24981 8.7C3.94981 8.7 3.74981 8.9 3.74981 9.2V10.05C3.74981 10.35 3.94981 10.55 4.24981 10.55Z" fill="#2D373D"/>
<path d="M6.74981 10.55C7.04981 10.55 7.24981 10.35 7.24981 10.05V9.2C7.24981 8.9 7.04981 8.7 6.74981 8.7C6.44981 8.7 6.24981 8.9 6.24981 9.2V10.05C6.24981 10.35 6.44981 10.55 6.74981 10.55Z" fill="#2D373D"/>
<path d="M9.1998 10.55C9.4998 10.55 9.6998 10.35 9.6998 10.05V9.2C9.6998 8.9 9.4998 8.7 9.1998 8.7C8.8998 8.7 8.6998 8.9 8.6998 9.2V10.05C8.6998 10.35 8.8998 10.55 9.1998 10.55Z" fill="#2D373D"/>
<path d="M11.6998 10.55C11.9498 10.55 12.1998 10.35 12.1998 10.05V9.2C12.1998 8.9 11.9998 8.7 11.6998 8.7C11.3998 8.7 11.1998 8.9 11.1998 9.2V10.05C11.1998 10.35 11.3998 10.55 11.6998 10.55Z" fill="#2D373D"/>
<path d="M14.1998 4.59999H13.7498L13.1998 2.29999C13.0498 1.69999 12.4998 1.29999 11.8998 1.29999H4.0998C3.4998 1.29999 2.9498 1.69999 2.7998 2.29999L2.2498 4.59999H1.7998C1.4998 4.59999 1.2998 4.79999 1.2998 5.09999C1.2998 5.39999 1.4998 5.59999 1.7998 5.59999H2.0998V14.15C2.0998 14.45 2.2998 14.65 2.5998 14.65H13.3498C13.6498 14.65 13.8498 14.45 13.7998 14.15V5.59999H14.1498C14.4498 5.59999 14.6998 5.39999 14.6998 5.09999C14.6998 4.79999 14.4998 4.59999 14.1998 4.59999ZM3.7998 2.54999C3.7998 2.39999 3.9498 2.29999 4.0998 2.29999H11.8998C12.0498 2.29999 12.1498 2.39999 12.1998 2.54999L12.6998 4.59999H3.2498L3.7998 2.54999ZM7.2498 13.65V12.5C7.2498 12.3 7.3498 12.15 7.5498 12.15H8.3998C8.5498 12.15 8.6998 12.3 8.6998 12.5V13.65H7.2498ZM12.7998 13.65H9.6998V12.5C9.6998 11.75 9.0998 11.15 8.3498 11.15H7.5498C6.8498 11.15 6.2498 11.75 6.2498 12.5V13.65H3.0998V5.59999H12.7998V13.65Z" fill="#2D373D"/>
<path d="M4.24981 13C4.54981 13 4.74981 12.8 4.74981 12.5V11.65C4.74981 11.35 4.54981 11.15 4.24981 11.15C3.94981 11.15 3.74981 11.35 3.74981 11.65V12.5C3.74981 12.8 3.94981 13 4.24981 13Z" fill="#2D373D"/>
<path d="M11.6998 13C11.9498 13 12.1998 12.8 12.1998 12.5V11.65C12.1998 11.35 11.9998 11.15 11.6998 11.15C11.3998 11.15 11.1998 11.35 11.1998 11.65V12.5C11.1998 12.8 11.3998 13 11.6998 13Z" fill="#2D373D"/>
</svg>
