<svg width="64" height="65" viewBox="0 0 64 65" fill="none" xmlns="http://www.w3.org/2000/svg">
<path d="M54.6004 41.8605L37.6004 25.8605C38.8004 25.0605 40.0004 24.2605 41.4004 23.4605C41.6004 23.4605 41.6004 23.2605 41.8004 23.2605C42.0004 23.0605 42.0004 23.0605 42.0004 23.0605C43.0004 22.2605 43.4004 21.0605 43.4004 19.8605C43.4004 18.6605 42.8004 17.4605 42.0004 16.6605L35.0004 9.66055C33.2004 7.86055 30.4004 7.86055 28.6004 9.66055C28.4004 9.66055 28.2004 9.86055 28.2004 10.0605C25.0004 15.8605 20.2004 20.6605 14.4004 23.8605C14.2004 24.0605 14.2004 24.0605 14.0004 24.2605C12.2004 26.0605 12.2004 28.8605 14.0004 30.4605L21.0004 37.4605C21.8004 38.4605 23.0004 38.8605 24.2004 38.8605C25.4004 38.8605 26.4004 38.4605 27.2004 37.6605C27.4004 37.6605 27.6004 37.4605 27.6004 37.2605C28.4004 35.6605 29.4004 34.2605 30.4004 32.8605L46.4004 49.8605C47.2004 50.8605 48.4004 51.2605 49.6004 51.2605C50.8004 51.2605 52.0004 50.6605 52.8004 50.2605L54.6004 48.4605C56.4004 46.6605 56.4004 43.6605 54.6004 41.8605ZM24.4004 35.0605C24.0004 35.0605 24.0004 35.0605 23.8004 34.8605L16.8004 27.8605C16.6004 27.6605 16.4004 27.4605 16.6004 27.2605C22.8004 23.6605 28.0004 18.4605 31.6004 12.2605H31.8004C32.0004 12.2605 32.0004 12.2605 32.0004 12.6605L39.0004 19.6605C39.2004 19.8605 39.2004 19.8605 39.2004 20.0605V20.2605C33.0004 23.6605 27.8004 28.8605 24.4004 35.0605ZM51.8004 45.2605L50.0004 47.0605C49.8004 47.2605 49.8004 47.2605 49.6004 47.2605C49.4004 47.2605 49.4004 47.2605 49.2004 47.0605L33.0004 29.8605C33.6004 29.2605 34.0004 28.8605 34.6004 28.2605L51.8004 44.2605C52.0004 44.6605 52.0004 45.0605 51.8004 45.2605Z" fill="#2D373D"/>
<path d="M36.4008 52.4606H35.6008V51.0606C35.6008 48.2606 33.6008 45.8606 30.6008 45.6606H15.6008C12.8008 45.8606 10.6008 48.2606 10.8008 51.0606V52.4606H9.80078C8.60078 52.4606 7.80078 53.2606 7.80078 54.4606C7.80078 55.6606 8.60078 56.4606 9.80078 56.4606H36.4008C37.6008 56.4606 38.4008 55.6606 38.4008 54.4606C38.4008 53.2606 37.6008 52.4606 36.4008 52.4606ZM14.8008 52.4606V50.8606C14.8008 50.2606 15.2008 49.6606 15.8008 49.6606H30.4008C31.0008 49.6606 31.4008 50.2606 31.4008 50.8606C31.4008 51.0606 31.4008 51.0606 31.4008 51.0606V52.4606H14.8008Z" fill="#2D373D"/>
</svg>
