<svg width="64" height="65" viewBox="0 0 64 65" fill="none" xmlns="http://www.w3.org/2000/svg">
<path d="M52.0002 55.2602H50.6002V49.2602C52.4002 49.0602 53.8002 47.6602 53.8002 45.6602V9.26016C53.8002 7.26016 52.2002 5.66016 50.2002 5.66016H18.8002C14.0002 5.66016 10.2002 9.46016 10.2002 14.2602V52.2602C10.2002 56.0602 13.4002 59.2602 17.2002 59.2602H51.8002C53.0002 59.2602 54.0002 58.4602 54.0002 57.2602C54.0002 56.0602 53.2002 55.2602 52.0002 55.2602ZM14.2002 14.2602C14.2002 11.6602 16.2002 9.66016 18.8002 9.66016H50.0002V45.4602H49.6002C49.4002 45.2602 49.0002 45.2602 48.6002 45.2602C48.2002 45.2602 48.0002 45.2602 47.6002 45.4602H17.2002C16.2002 45.4602 15.2002 45.6602 14.2002 46.0602V14.2602ZM14.2002 52.6602C14.2002 52.4602 14.4002 52.2602 14.4002 52.0602C14.4002 51.4602 14.6002 50.6602 15.2002 50.0602C15.6002 49.6602 16.4002 49.2602 17.2002 49.2602H46.6002V55.2602H17.2002C15.6002 55.2602 14.4002 54.0602 14.2002 52.6602Z" fill="#2D373D"/>
</svg>
