<svg width="16" height="17" viewBox="0 0 16 17" fill="none" xmlns="http://www.w3.org/2000/svg">
<path fill-rule="evenodd" clip-rule="evenodd" d="M13.6384 14.121C13.737 14.3405 13.5764 14.5886 13.3357 14.5886H10.3386C10.098 14.5886 9.9374 14.3405 10.036 14.121L11.5345 10.4889C11.6518 10.2278 12.0226 10.2278 12.1398 10.4889L13.6384 14.121ZM9.11567 13.7296C8.73689 14.6064 9.37955 15.5886 10.3386 15.5886H13.3357C14.2948 15.5886 14.9375 14.6064 14.5587 13.7296L13.0642 10.1075C13.0603 10.098 13.0563 10.0886 13.052 10.0792C12.5813 9.03105 11.0931 9.03105 10.6223 10.0792C10.6181 10.0886 10.6141 10.098 10.6101 10.1075L9.11567 13.7296Z" fill="#2D373D"/>
<path fill-rule="evenodd" clip-rule="evenodd" d="M11.8398 11.3386C12.0699 11.3386 12.2565 11.5251 12.2565 11.7553V12.5886C12.2565 12.8187 12.0699 13.0053 11.8398 13.0053C11.6097 13.0053 11.4232 12.8187 11.4232 12.5886V11.7553C11.4232 11.5251 11.6097 11.3386 11.8398 11.3386Z" fill="#2D373D"/>
<path d="M12.2498 13.6719C12.2498 13.9021 12.0633 14.0886 11.8332 14.0886C11.603 14.0886 11.4165 13.9021 11.4165 13.6719C11.4165 13.4418 11.603 13.2553 11.8332 13.2553C12.0633 13.2553 12.2498 13.4418 12.2498 13.6719Z" fill="#2D373D"/>
<path fill-rule="evenodd" clip-rule="evenodd" d="M7.57015 2.33843C7.84651 2.23094 8.15313 2.23094 8.42949 2.33843L14.3446 4.63893C14.537 4.71376 14.6637 4.89901 14.6637 5.10544V8.5298C14.6637 8.80625 14.4396 9.03035 14.1632 9.03035C13.8867 9.03035 13.6626 8.80625 13.6626 8.5298V5.83719L8.50037 7.84489V14.3512C8.50037 14.5165 8.41882 14.6711 8.28243 14.7643C8.14604 14.8576 7.97239 14.8776 7.81839 14.8177L1.65505 12.4207C1.46266 12.3458 1.33594 12.1606 1.33594 11.9542V5.10544C1.33594 4.89901 1.46266 4.71376 1.65505 4.63893L7.57015 2.33843ZM7.99982 6.96542L9.70055 6.30397L4.91815 4.44399L3.21742 5.10544L7.99982 6.96542ZM2.33704 5.83719V11.6118L7.49927 13.6195V7.84489L2.33704 5.83719ZM6.29909 3.90692L11.0815 5.76689L12.7822 5.10544L8.06662 3.27145C8.02366 3.25474 7.97599 3.25474 7.93302 3.27145L6.29909 3.90692Z" fill="#2D373D"/>
</svg>
