<svg width="16" height="17" viewBox="0 0 16 17" fill="none" xmlns="http://www.w3.org/2000/svg">
<path fill-rule="evenodd" clip-rule="evenodd" d="M11.939 2.28521C12.2334 2.28321 12.5253 2.33957 12.7978 2.45102C13.0702 2.56246 13.3179 2.72679 13.5266 2.93451L13.5279 2.9359C13.7357 3.14444 13.9001 3.39211 14.0116 3.66458C14.1231 3.93705 14.1795 4.22892 14.1775 4.52331C14.1755 4.81771 14.1152 5.10879 14 5.37972C13.8853 5.6497 13.7183 5.89434 13.5087 6.0996L6.62318 12.9851C6.55984 13.0485 6.48063 13.0937 6.39385 13.1159L3.11398 13.9571C2.94281 14.001 2.76119 13.9513 2.63623 13.8264C2.51127 13.7015 2.46154 13.5198 2.50542 13.3487L3.34617 10.0688C3.36842 9.98199 3.41359 9.90276 3.47695 9.83939L10.3625 2.9538C10.5679 2.74428 10.8126 2.57736 11.0826 2.46263C11.3536 2.3475 11.6446 2.2872 11.939 2.28521ZM12.4192 3.37659C12.269 3.31515 12.1081 3.28409 11.9458 3.28518C11.7835 3.28628 11.6231 3.31953 11.4737 3.38299C11.3243 3.44646 11.189 3.53889 11.0756 3.65495L11.0716 3.65902L4.28086 10.4497L3.68387 12.7786L6.01285 12.1813L12.8077 5.38638C12.9238 5.27302 13.0163 5.1378 13.0797 4.98849C13.1432 4.83918 13.1765 4.67878 13.1776 4.51654C13.1787 4.35431 13.1476 4.19346 13.0861 4.04331C13.0248 3.89345 12.9345 3.75721 12.8203 3.64243C12.7054 3.52825 12.5691 3.4379 12.4192 3.37659Z" fill="#2D373D"/>
<path fill-rule="evenodd" clip-rule="evenodd" d="M10.1678 3.14901C10.363 2.95375 10.6796 2.95375 10.8749 3.14901L13.3135 5.58766C13.5088 5.78292 13.5088 6.0995 13.3135 6.29477C13.1183 6.49003 12.8017 6.49003 12.6064 6.29477L10.1678 3.85612C9.97251 3.66085 9.97251 3.34427 10.1678 3.14901Z" fill="#2D373D"/>
<path fill-rule="evenodd" clip-rule="evenodd" d="M3.47695 9.83939C3.67204 9.64396 3.98878 9.64351 4.18422 9.8386L6.62524 12.2754C6.82067 12.4704 6.82095 12.787 6.62586 12.9825C6.43077 13.1779 6.11419 13.1782 5.91875 12.9831L3.47773 10.5463C3.2823 10.3512 3.28186 10.0348 3.47695 9.83939Z" fill="#2D373D"/>
</svg>
