<svg width="16" height="17" viewBox="0 0 16 17" fill="none" xmlns="http://www.w3.org/2000/svg">
<path d="M7.5002 8.36016C7.7502 8.21016 7.8502 7.91016 7.7002 7.66016C7.3002 6.91016 6.6502 6.41016 5.8502 6.16016C6.5002 5.86016 7.0002 5.16016 7.0002 4.41016C7.0002 3.86016 6.8002 3.36016 6.4502 3.01016C6.0502 2.61016 5.6002 2.41016 5.0502 2.41016C3.9502 2.41016 3.0502 3.31016 3.0502 4.36016C3.0502 4.91016 3.2502 5.36016 3.6502 5.76016C3.8502 5.96016 4.0502 6.06016 4.2502 6.16016C4.0002 6.26016 3.7502 6.36016 3.5002 6.46016C2.5502 7.01016 1.9502 8.06016 1.9502 9.16016V10.2602C1.9502 10.5602 2.1502 10.7602 2.4502 10.7602H3.1502L3.4502 14.0102C3.5002 14.2602 3.7002 14.4602 3.9502 14.4602H6.1502C6.4002 14.4602 6.60019 14.2602 6.60019 14.0102L6.7502 12.4102C6.8002 12.1102 6.5502 11.9102 6.3002 11.8602C6.0002 11.8602 5.8002 12.0602 5.7502 12.3102L5.6502 13.4602H4.3502L4.0502 10.2102C4.0002 9.96016 3.8002 9.76016 3.5502 9.76016H2.9502V9.16016C2.9502 8.41016 3.3502 7.76016 4.0002 7.36016C4.5002 7.11016 5.0002 7.01016 5.5502 7.16016C6.1002 7.31016 6.5002 7.66016 6.8002 8.16016C6.9502 8.41016 7.2502 8.51016 7.5002 8.36016ZM5.0502 3.41016C5.3002 3.41016 5.5502 3.51016 5.7502 3.66016C5.9502 3.86016 6.0502 4.11016 6.0502 4.36016C6.0502 4.91016 5.6002 5.36016 5.0502 5.36016C4.5002 5.36016 4.0502 4.91016 4.0502 4.36016C4.1002 3.86016 4.5502 3.41016 5.0502 3.41016Z" fill="#2D373D"/>
<path d="M13.5003 10.5102C13.2003 10.5102 13.0003 10.7102 13.0003 11.0102C13.0003 12.3602 11.9003 13.4602 10.5503 13.4602C9.20028 13.4602 8.10028 12.3602 8.10028 11.0102C8.10028 9.66018 9.20028 8.56018 10.5503 8.56018C10.8503 8.56018 11.0503 8.36018 11.0503 8.06018C11.0503 7.76018 10.8503 7.56018 10.5503 7.56018C8.65028 7.56018 7.10028 9.11018 7.10028 11.0102C7.10028 12.9102 8.65028 14.4602 10.5503 14.4602C12.4503 14.4602 14.0003 12.9102 14.0003 11.0102C14.0003 10.7102 13.8003 10.5102 13.5003 10.5102Z" fill="#2D373D"/>
<path d="M9.8002 10.3102C9.6002 10.1102 9.3002 10.1102 9.1002 10.3102C8.9002 10.5102 8.9002 10.8102 9.1002 11.0102L9.9502 11.8602C10.1002 12.0102 10.3502 12.1102 10.5502 12.1102C10.8002 12.1102 11.0002 12.0102 11.1502 11.8602L13.8502 9.16018C14.0502 8.96018 14.0502 8.66018 13.8502 8.46018C13.6502 8.26018 13.3502 8.26018 13.1502 8.46018L10.5502 11.0602L9.8002 10.3102Z" fill="#2D373D"/>
</svg>
