<svg width="32" height="33" viewBox="0 0 32 33" fill="none" xmlns="http://www.w3.org/2000/svg">
<path d="M12.2818 13.7653C12.3279 13.5428 12.5379 13.3537 12.8119 13.3537C13.0859 13.3537 13.2959 13.5428 13.342 13.7653C13.4438 14.2569 13.925 14.5729 14.4166 14.4711C14.9082 14.3692 15.2242 13.8881 15.1224 13.3965C14.8999 12.3224 13.9402 11.5356 12.8119 11.5356C11.6836 11.5356 10.7239 12.3224 10.5014 13.3965C10.3996 13.8881 10.7156 14.3692 11.2072 14.4711C11.6988 14.5729 12.18 14.2569 12.2818 13.7653Z" fill="#2D373D"/>
<path d="M19.2027 13.3537C18.9287 13.3537 18.7187 13.5428 18.6726 13.7653C18.5708 14.2569 18.0897 14.5729 17.598 14.4711C17.1064 14.3692 16.7904 13.8881 16.8922 13.3965C17.1147 12.3224 18.0744 11.5356 19.2027 11.5356C20.331 11.5356 21.2907 12.3224 21.5132 13.3965C21.6151 13.8881 21.2991 14.3692 20.8074 14.4711C20.3158 14.5729 19.8347 14.2569 19.7328 13.7653C19.6868 13.5428 19.4767 13.3537 19.2027 13.3537Z" fill="#2D373D"/>
<path d="M15.122 17.2311C15.0202 16.7395 14.5391 16.4235 14.0475 16.5253C13.5558 16.6272 13.2398 17.1083 13.3417 17.5999C13.5977 18.8361 14.7036 19.7449 16.0072 19.7449C17.3108 19.7449 18.4168 18.8361 18.6728 17.5999C18.7746 17.1083 18.4586 16.6272 17.967 16.5253C17.4754 16.4235 16.9943 16.7395 16.8924 17.2311C16.8128 17.6157 16.4565 17.9267 16.0072 17.9267C15.5579 17.9267 15.2017 17.6157 15.122 17.2311Z" fill="#2D373D"/>
<path fill-rule="evenodd" clip-rule="evenodd" d="M25.3765 10.3989C26.6796 11.1517 27.6117 12.3662 28.0008 13.8201C28.3905 15.2735 28.1905 16.7917 27.4383 18.0947C26.902 19.0238 26.1311 19.7638 25.2062 20.2535C25.245 21.2995 24.9893 22.3365 24.4529 23.2656C23.7008 24.5686 22.4856 25.5008 21.0323 25.8905C20.5559 26.0177 20.0662 26.0826 19.5753 26.0826C18.6856 26.0826 17.8311 25.8674 17.0674 25.485V29.2868C17.0674 29.8226 16.6335 30.2565 16.0977 30.2565C15.562 30.2565 15.128 29.8226 15.128 29.2868V25.4856C14.3638 25.8674 13.5099 26.0826 12.6202 26.0826C12.1292 26.0826 11.6396 26.0177 11.1632 25.8905C9.70985 25.5008 8.4947 24.5686 7.74258 23.2656C7.20622 22.3365 6.95046 21.2989 6.98925 20.2535C6.0644 19.7632 5.29349 19.0238 4.75713 18.0947C4.00501 16.7917 3.80501 15.2735 4.1941 13.8201C4.58379 12.3662 5.51591 11.1511 6.81895 10.3989C7.05288 10.2644 7.29591 10.1462 7.54501 10.0468C7.2947 8.33772 7.82804 6.53954 9.12804 5.23954C10.1923 4.1759 11.6068 3.58984 13.1117 3.58984C14.1838 3.58984 15.2105 3.88742 16.0971 4.44378C16.9832 3.88742 18.0099 3.58984 19.082 3.58984C20.5868 3.58984 22.0014 4.1759 23.065 5.23954C24.1299 6.30318 24.7159 7.71833 24.7159 9.22378C24.7159 9.50136 24.6953 9.77712 24.6547 10.0486C24.9026 10.1474 25.1438 10.265 25.3765 10.3989ZM23.5153 18.8462C24.4692 18.5911 25.2656 17.9795 25.7583 17.125C26.2523 16.2705 26.3832 15.2747 26.1274 14.322C25.8723 13.3686 25.2614 12.5723 24.4068 12.0789C23.8389 11.7511 23.2092 11.585 22.5723 11.585C22.3347 11.585 22.1892 11.2347 22.3171 11.0044C22.6165 10.4656 22.7765 9.85772 22.7765 9.22378C22.7765 8.23651 22.3923 7.30924 21.6941 6.61106C20.9965 5.91409 20.0692 5.52924 19.082 5.52924C18.0959 5.52924 17.168 5.91348 16.4699 6.61106C16.4699 6.61106 16.3438 6.83772 16.0977 6.83227C15.8517 6.82742 15.7238 6.61106 15.7238 6.61106C15.0256 5.91348 14.0977 5.52924 13.1117 5.52924C12.1244 5.52924 11.1971 5.91409 10.4996 6.61106C9.31652 7.79469 9.10743 9.5856 9.86985 10.9868C9.99773 11.222 9.86076 11.585 9.62319 11.585C8.98561 11.585 8.35652 11.7511 7.78925 12.0789C6.9341 12.5723 6.32319 13.3686 6.06804 14.322C5.81228 15.2747 5.94319 16.2705 6.43713 17.125C6.92985 17.9795 7.72622 18.5911 8.68016 18.8462C8.68016 18.8462 8.98076 18.8856 9.04985 19.1232C9.09288 19.2698 9.05349 19.4923 9.05349 19.4923C8.79773 20.4456 8.92864 21.4414 9.42198 22.2959C9.91592 23.1505 10.7123 23.7614 11.6656 24.0171C11.9844 24.1026 12.3044 24.1432 12.6202 24.1432C13.9923 24.1432 15.2699 23.3692 15.9026 22.1401C15.9771 21.9959 16.2123 21.982 16.2826 22.1189C16.9117 23.3601 18.1947 24.1432 19.5753 24.1432C19.8911 24.1432 20.2111 24.1026 20.5299 24.0171C21.4832 23.7614 22.2796 23.1505 22.7735 22.2959C23.2668 21.4414 23.3977 20.4456 23.142 19.4923C23.142 19.4923 23.0699 19.2874 23.1426 19.0983C23.2153 18.9086 23.5153 18.8462 23.5153 18.8462Z" fill="#2D373D"/>
</svg>
