<svg width="24" height="25" viewBox="0 0 24 25" fill="none" xmlns="http://www.w3.org/2000/svg">
<path d="M18.0002 12.0867C19.8752 12.0867 21.3752 10.5867 21.3752 8.71175C21.3752 6.83675 19.8752 5.33675 18.0002 5.33675C16.1252 5.33675 14.6252 6.83675 14.6252 8.71175C14.6252 10.5867 16.1252 12.0867 18.0002 12.0867ZM18.0002 6.76175C19.0502 6.76175 19.8752 7.58675 19.8752 8.63675C19.8752 9.68675 19.0502 10.5117 18.0002 10.5117C16.9502 10.5117 16.1252 9.68675 16.1252 8.63675C16.1252 7.58675 16.9502 6.76175 18.0002 6.76175Z" fill="#2D373D"/>
<path d="M18.0002 12.2368C17.1002 12.2368 16.2002 12.5368 15.5252 13.0618C15.2252 13.2868 15.1502 13.8118 15.3752 14.1118C15.6002 14.4118 16.1252 14.4868 16.4252 14.2618C16.8752 13.8868 17.4752 13.7368 18.0002 13.7368C19.4252 13.7368 20.5502 14.8618 20.5502 16.2868C20.5502 16.7368 20.8502 17.0368 21.3002 17.0368C21.7502 17.0368 22.0502 16.7368 22.0502 16.2868C22.0502 14.0368 20.2502 12.2368 18.0002 12.2368Z" fill="#2D373D"/>
<path d="M6.00021 12.0867C7.87521 12.0867 9.45021 10.5117 9.45021 8.63672C9.45021 6.76172 7.87521 5.26172 6.00021 5.26172C4.12521 5.26172 2.62521 6.83672 2.62521 8.71172C2.62521 10.5867 4.12521 12.0867 6.00021 12.0867ZM6.00021 6.76172C7.05021 6.76172 7.95021 7.51172 7.95021 8.63672C7.95021 9.76172 7.05021 10.5867 6.00021 10.5867C4.95021 10.5867 4.12521 9.68672 4.12521 8.63672C4.12521 7.58672 4.95021 6.76172 6.00021 6.76172Z" fill="#2D373D"/>
<path d="M8.6252 14.1118C8.8502 13.8118 8.7752 13.2868 8.4752 13.0618C7.7252 12.5368 6.9002 12.2368 6.0002 12.2368C3.7502 12.2368 1.9502 14.0368 1.9502 16.2868C1.9502 16.7368 2.2502 17.0368 2.7002 17.0368C3.1502 17.0368 3.4502 16.7368 3.4502 16.2868C3.4502 14.8618 4.5752 13.7368 6.0002 13.7368C6.6002 13.7368 7.1252 13.9618 7.5752 14.2618C7.8752 14.4868 8.40019 14.4118 8.6252 14.1118Z" fill="#2D373D"/>
<path d="M12.0002 14.7117C13.5002 14.7117 14.7752 13.5117 14.7752 11.9367C14.7752 10.3617 13.5002 9.16168 12.0002 9.16168C10.4252 9.16168 9.2252 10.3617 9.2252 11.9367C9.2252 13.5117 10.5002 14.7117 12.0002 14.7117ZM12.0002 10.7367C12.6752 10.7367 13.2752 11.3367 13.2752 12.0117C13.2752 12.7617 12.7502 13.2867 12.0002 13.2867C11.2502 13.2867 10.7252 12.6867 10.7252 12.0117C10.7252 11.2617 11.3252 10.7367 12.0002 10.7367Z" fill="#2D373D"/>
<path d="M14.3252 15.5367C13.4252 14.9367 12.3002 14.7117 11.2502 14.9367C11.1002 14.9367 11.0252 15.0117 10.8752 15.0867C9.45019 15.5367 8.32519 16.6617 8.10019 18.1617C8.02519 18.6117 8.32519 18.9867 8.70019 19.0617C8.77519 19.0617 8.77519 19.0617 8.85019 19.0617C9.22519 19.0617 9.52519 18.7617 9.60019 18.5367C9.75019 17.4867 10.5752 16.7367 11.5502 16.5117C11.6252 16.5117 11.7752 16.4367 11.8502 16.4367C13.1252 16.2867 14.3252 17.1117 14.6252 18.3867C14.7002 18.7617 15.0002 18.9867 15.3752 18.9867C15.3752 18.9867 15.4502 18.9867 15.5252 18.9867C15.9752 18.9117 16.2002 18.4617 16.1252 18.0867C15.9002 17.0367 15.2252 16.1367 14.3252 15.5367Z" fill="#2D373D"/>
</svg>
