<svg width="24" height="25" viewBox="0 0 24 25" fill="none" xmlns="http://www.w3.org/2000/svg">
<path d="M21.2249 9.83711H12.1499V7.43711C12.1499 4.66211 9.8999 2.41211 7.1249 2.41211H7.0499C4.1999 2.48711 2.0249 4.73711 2.0249 7.51211V10.5871C2.0249 11.0371 2.3249 11.3371 2.7749 11.3371C3.2249 11.3371 3.5249 11.0371 3.5249 10.5871V7.51211C3.5249 5.56211 5.0999 3.98711 7.0499 3.91211C8.9999 3.91211 10.6499 5.48711 10.6499 7.43711V9.83711H7.7249C7.2749 9.83711 6.9749 10.1371 6.9749 10.5871V21.6871C6.9749 22.1371 7.2749 22.4371 7.7249 22.4371H21.2249C21.6749 22.4371 21.9749 22.1371 21.9749 21.6871V10.5871C21.9749 10.1371 21.6749 9.83711 21.2249 9.83711ZM20.4749 20.9371H8.4749V11.3371H20.4749V20.9371Z" fill="#2D373D"/>
<path d="M14.475 18.7621C15.9 18.7621 17.1 17.5621 17.1 16.1371C17.1 14.7121 15.9 13.5121 14.475 13.5121C13.05 13.5121 11.85 14.7121 11.85 16.1371C11.85 17.5621 13.05 18.7621 14.475 18.7621ZM14.475 15.0871C15.075 15.0871 15.6 15.6121 15.6 16.2121C15.6 16.8121 15.075 17.3371 14.475 17.3371C13.875 17.3371 13.35 16.8121 13.35 16.2121C13.35 15.6121 13.875 15.0871 14.475 15.0871Z" fill="#2D373D"/>
</svg>
