<svg width="64" height="64" viewBox="0 0 64 64" fill="none" xmlns="http://www.w3.org/2000/svg">
<path d="M50.5999 38.3999L49.7999 34.3999C51.3999 34.3999 53.1999 34.9999 54.5999 35.9999C54.7999 35.9999 54.9999 36.1999 55.1999 36.3999L55.7999 36.9999C56.5999 37.7999 57.7999 37.7999 58.5999 36.9999C59.3999 36.1999 59.3999 34.9999 58.5999 34.1999L57.9999 33.5999C57.7999 33.1999 57.3999 32.9999 57.1999 32.7999C54.7999 30.7999 51.9999 29.9999 48.9999 30.1999L47.1999 21.5999C47.1999 21.3999 47.3999 21.1999 47.3999 20.9999C47.3999 20.5999 47.1999 20.3999 46.9999 19.9999L45.3999 12.5999C44.7999 10.1999 42.5999 8.3999 40.1999 8.3999H36.1999C34.9999 8.3999 34.1999 9.1999 34.1999 10.3999C34.1999 11.5999 34.9999 12.3999 36.1999 12.3999H40.1999C40.7999 12.3999 41.3999 12.7999 41.5999 13.3999L42.7999 19.3999L21.5999 20.7999C21.3999 20.7999 21.1999 20.7999 20.9999 20.7999L10.7999 21.5999C7.7999 21.5999 5.3999 24.1999 5.3999 26.9999C5.3999 29.7999 7.7999 32.1999 10.7999 32.1999H14.3999C17.7999 32.1999 20.7999 33.7999 22.9999 36.1999L23.5999 36.9999L19.3999 40.1999C17.9999 38.9999 15.9999 38.1999 13.9999 38.1999C9.1999 38.1999 5.3999 41.9999 5.3999 46.7999C5.3999 51.5999 9.1999 55.3999 13.9999 55.3999C18.7999 55.3999 22.5999 51.5999 22.5999 46.7999C22.5999 45.5999 22.3999 44.3999 21.7999 43.3999L25.9999 39.9999L27.7999 41.9999C28.7999 43.1999 30.1999 43.7999 31.7999 43.7999H35.3999C36.9999 43.7999 38.3999 43.1999 39.5999 42.3999L43.9999 36.9999C44.5999 36.3999 45.1999 35.7999 45.7999 35.3999L46.5999 38.9999C43.5999 40.3999 41.5999 43.1999 41.5999 46.7999C41.5999 51.5999 45.3999 55.3999 50.1999 55.3999C54.9999 55.3999 58.7999 51.5999 58.7999 46.7999C58.7999 42.1999 55.1999 38.5999 50.5999 38.3999ZM18.3999 46.9999C18.3999 49.5999 16.3999 51.5999 13.7999 51.5999C11.1999 51.5999 9.1999 49.5999 9.1999 46.9999C9.1999 44.3999 11.1999 42.3999 13.7999 42.3999C14.5999 42.3999 15.1999 42.5999 15.7999 42.7999L12.5999 45.3999C11.7999 45.9999 11.5999 47.3999 12.1999 48.1999C12.5999 48.7999 13.1999 48.9999 13.7999 48.9999C14.1999 48.9999 14.5999 48.7999 14.9999 48.5999L18.3999 45.9999C18.3999 46.1999 18.3999 46.5999 18.3999 46.9999ZM35.1999 23.9999V26.7999C35.1999 27.5999 34.5999 28.1999 33.7999 28.1999H30.1999C29.7999 28.1999 29.3999 27.9999 29.1999 27.7999L25.7999 24.5999L35.1999 23.9999ZM40.9999 34.3999L36.5999 39.7999C36.3999 39.9999 35.9999 40.1999 35.5999 40.1999H31.9999C31.5999 40.1999 31.1999 39.9999 30.9999 39.7999L28.1999 36.3999C28.1999 36.3999 28.1999 36.1999 27.9999 36.1999C27.9999 35.9999 27.7999 35.9999 27.5999 35.7999L25.9999 33.9999C22.9999 30.5999 18.7999 28.5999 14.3999 28.5999H10.5999C9.7999 28.5999 9.1999 27.9999 9.1999 27.1999C9.1999 26.3999 9.7999 25.7999 10.5999 25.7999L20.5999 25.1999L26.1999 30.7999C27.1999 31.7999 28.5999 32.3999 29.9999 32.3999H33.5999C36.5999 32.3999 38.9999 29.9999 39.1999 27.1999V23.7999L43.3999 23.5999L44.9999 31.3999C43.3999 31.9999 42.1999 32.9999 40.9999 34.3999ZM50.1999 51.5999C47.5999 51.5999 45.5999 49.5999 45.5999 46.9999C45.5999 45.3999 46.1999 44.1999 47.3999 43.3999L48.1999 47.3999C48.3999 48.3999 49.1999 48.9999 50.1999 48.9999C50.3999 48.9999 50.3999 48.9999 50.5999 48.9999C51.7999 48.7999 52.3999 47.5999 52.1999 46.5999L51.3999 42.5999C53.3999 42.9999 54.7999 44.7999 54.7999 46.9999C54.7999 49.5999 52.7999 51.5999 50.1999 51.5999Z" fill="#2D373D"/>
<path d="M54.3999 27.4H55.9999C56.9999 27.4 57.9999 26.6 57.9999 25.4V17.2C57.9999 16 57.1999 15.2 55.9999 15.2H54.3999C51.1999 15.2 48.3999 18 48.3999 21.2C48.3999 24.6 50.9999 27.4 54.3999 27.4ZM53.9999 19.2V23.4C53.1999 23.2 52.3999 22.2 52.3999 21.2C52.3999 20.2 52.9999 19.4 53.9999 19.2Z" fill="#2D373D"/>
</svg>
