<svg width="16" height="17" viewBox="0 0 16 17" fill="none" xmlns="http://www.w3.org/2000/svg">
<path d="M11.1668 4.42448C11.1668 4.70062 11.3907 4.92448 11.6668 4.92448C11.943 4.92448 12.1668 4.70062 12.1668 4.42448L12.1668 2.75781C12.1668 2.48167 11.943 2.25781 11.6668 2.25781H10.0002C9.72402 2.25781 9.50016 2.48167 9.50016 2.75781C9.50016 3.03395 9.72402 3.25781 10.0002 3.25781H11.1668L11.1668 4.42448Z" fill="#2D373D"/>
<path d="M7.14159 3.54958C7.12985 3.54911 7.11686 3.55166 7.10138 3.56213C6.95634 3.66021 6.77353 3.78607 6.56337 3.93291L7.61407 6.03432C7.69613 6.19844 7.6817 6.39433 7.57647 6.54465L6.5541 8.00518L6.80787 8.76648C6.89519 9.02845 6.75361 9.31161 6.49164 9.39893C6.22967 9.48625 5.94651 9.34467 5.85918 9.0827L5.52585 8.0827C5.47579 7.93254 5.4998 7.76753 5.59058 7.63786L6.58646 6.21516L5.73792 4.51808C4.52634 5.38821 2.98329 6.54364 2.17264 7.29193C1.96973 7.47923 1.6534 7.46658 1.4661 7.26367C1.27879 7.06076 1.29145 6.74443 1.49436 6.55713C2.7418 5.40564 5.55203 3.40268 6.5412 2.73376C6.93735 2.46587 7.4341 2.49999 7.79643 2.77173L12.8002 6.52453C13.0211 6.69022 13.0659 7.00362 12.9002 7.22453C12.7345 7.44544 12.4211 7.49022 12.2002 7.32453L7.19643 3.57173C7.17374 3.55471 7.15428 3.55009 7.14159 3.54958Z" fill="#2D373D"/>
<path d="M3.3335 7.09115C3.60964 7.09115 3.8335 7.315 3.8335 7.59115V12.2578C3.8335 12.3499 3.90812 12.4245 4.00016 12.4245H6.00016C6.27631 12.4245 6.50016 12.6483 6.50016 12.9245C6.50016 13.2006 6.27631 13.4245 6.00016 13.4245H4.00016C3.35583 13.4245 2.8335 12.9021 2.8335 12.2578V7.59115C2.8335 7.315 3.05735 7.09115 3.3335 7.09115Z" fill="#2D373D"/>
<path fill-rule="evenodd" clip-rule="evenodd" d="M13.9643 9.55181C13.9643 10.0327 13.7379 10.4607 13.386 10.7351C13.6205 10.8285 13.8154 10.9823 13.964 11.1758C14.2063 11.4913 14.3132 11.8927 14.3131 12.2779L14.3131 14.3722L14.62 14.9895C14.7224 15.1955 14.6384 15.4456 14.4324 15.5481C14.2263 15.6505 13.9762 15.5665 13.8738 15.3605L13.5233 14.6556C13.4947 14.5979 13.4797 14.5344 13.4797 14.4701V12.2777C13.4798 12.0359 13.4113 11.8243 13.3031 11.6834C13.204 11.5543 13.0615 11.4683 12.845 11.4683L11.3519 11.4683C11.033 11.468 10.9206 11.4679 10.8159 11.5013C10.7253 11.5301 10.6102 11.5976 10.3358 11.8719C10.0487 12.159 9.85802 12.3276 9.73337 12.4273C9.67082 12.4774 9.62272 12.5119 9.58552 12.5361C9.56679 12.5483 9.55016 12.5583 9.53523 12.5666C9.52773 12.5707 9.52052 12.5745 9.51356 12.578L9.50323 12.583L9.49813 12.5854L9.4956 12.5865L9.49433 12.5871L9.4937 12.5874L9.49307 12.5876C9.347 12.6519 9.17708 12.627 9.05551 12.5237L8.39934 11.9659C8.39227 11.9599 8.3854 11.9537 8.37874 11.9472L8.37302 11.942C8.36625 11.9361 8.35458 11.9263 8.33902 11.9148C8.30624 11.8904 8.26492 11.8648 8.22223 11.848C8.1796 11.8311 8.1505 11.8287 8.13279 11.8308C8.12194 11.8321 8.09511 11.8364 8.05123 11.8784C7.96463 11.9612 7.95364 12.0111 7.95172 12.0223C7.94952 12.0351 7.95 12.0538 7.96504 12.0858C7.98146 12.1206 8.00883 12.1566 8.03821 12.1871C8.05187 12.2013 8.0636 12.2118 8.07075 12.2179L8.07659 12.2228C8.08355 12.2281 8.09034 12.2336 8.09695 12.2393L8.09913 12.2411L8.10722 12.248L8.13995 12.2756C8.16872 12.2998 8.21069 12.3346 8.2625 12.3765C8.3665 12.4606 8.50832 12.572 8.66149 12.6824C8.81624 12.7941 8.97462 12.8991 9.11296 12.9744C9.23707 13.0419 9.30301 13.0617 9.32125 13.0671C9.32649 13.0687 9.32779 13.0691 9.32537 13.0691C9.39057 13.0691 9.4999 13.0387 9.66192 12.9427C9.81837 12.8501 9.98424 12.7206 10.1571 12.5758C10.2091 12.5323 10.2638 12.4854 10.3192 12.4381C10.4344 12.3395 10.5525 12.2385 10.6544 12.1596C10.7328 12.099 10.8189 12.0375 10.9063 11.9898C10.9852 11.9466 11.112 11.888 11.2611 11.888C11.4913 11.888 11.6778 12.0745 11.6778 12.3046V14.4701C11.6778 14.5253 11.6668 14.58 11.6455 14.631L11.3502 15.3364C11.2613 15.5486 11.0172 15.6487 10.805 15.5598C10.5927 15.471 10.4926 15.2268 10.5815 15.0146L10.8445 14.3864V13.0855C10.797 13.1262 10.7465 13.1692 10.6922 13.2146C10.5126 13.3651 10.3041 13.5309 10.0866 13.6597C9.87471 13.7852 9.61064 13.9024 9.32537 13.9024C9.10456 13.9024 8.87537 13.7938 8.7146 13.7063C8.53227 13.6071 8.3418 13.4794 8.17396 13.3583C8.00454 13.2361 7.85001 13.1147 7.73832 13.0243C7.68228 12.979 7.63656 12.9411 7.6046 12.9143C7.58862 12.9009 7.57605 12.8902 7.56732 12.8828L7.56176 12.8781L7.55965 12.8764C7.55147 12.8699 7.54106 12.8615 7.52893 12.8511C7.5048 12.8304 7.47306 12.8016 7.438 12.7652C7.36993 12.6945 7.27882 12.5846 7.2111 12.4408C7.142 12.294 7.09268 12.1011 7.13039 11.8814C7.16838 11.66 7.28702 11.4562 7.47513 11.2762C7.64361 11.115 7.83623 11.0267 8.03507 11.0032C8.22706 10.9805 8.39791 11.0213 8.5287 11.073C8.65942 11.1247 8.76497 11.1931 8.8357 11.2456C8.87189 11.2725 8.90114 11.2968 8.92235 11.3154C8.93268 11.3245 8.94124 11.3323 8.94789 11.3385L9.33836 11.6704C9.43522 11.585 9.56832 11.4609 9.74658 11.2827C10.0329 10.9963 10.2683 10.801 10.5632 10.7072C10.8009 10.6315 11.0585 10.633 11.3279 10.6345C11.3607 10.6347 11.3937 10.6349 11.4268 10.635C11.1418 10.362 10.9643 9.97761 10.9643 9.55181C10.9643 8.72353 11.6358 8.05208 12.4643 8.05208C13.2927 8.05208 13.9643 8.72353 13.9643 9.55181ZM13.1717 9.55181C13.1717 9.94224 12.8551 10.259 12.4643 10.259C12.0734 10.259 11.7568 9.94224 11.7568 9.55181C11.7568 9.16138 12.0734 8.84463 12.4643 8.84463C12.8551 8.84463 13.1717 9.16138 13.1717 9.55181Z" fill="#2D373D"/>
<path d="M9.40593 8.69971C9.52816 8.2279 9.69294 8.05617 9.78334 7.99361C9.87135 7.93271 9.94727 7.93479 9.98394 7.93936C10.0727 7.95043 10.1621 8.00446 10.1989 8.07605C10.2255 8.12761 10.2843 8.30723 10.0498 8.71232C9.89969 8.97153 9.65608 9.45933 9.45583 9.86925C9.35434 10.077 9.26181 10.2692 9.19467 10.4095C9.16108 10.4797 9.13382 10.5369 9.11493 10.5766L9.08542 10.6388C8.98706 10.8469 9.07595 11.0953 9.28399 11.1937C9.49202 11.292 9.74051 11.2029 9.83887 10.9949L9.86755 10.9344C9.88616 10.8953 9.91311 10.8387 9.94634 10.7693C10.0128 10.6304 10.1043 10.4402 10.2046 10.235C10.4078 9.81909 10.6383 9.35895 10.7709 9.12987C11.0855 8.58658 11.1444 8.09197 10.9399 7.69471C10.7458 7.31748 10.3732 7.1481 10.087 7.11243C9.91986 7.09159 9.61752 7.09495 9.30913 7.30836C9.00313 7.52012 8.75337 7.89575 8.59923 8.49071C8.53896 8.72337 8.40895 9.19263 8.29284 9.60781C8.23503 9.81451 8.18104 10.0064 8.14151 10.1467L8.07695 10.3754C8.01426 10.5968 8.14293 10.8271 8.36434 10.8898C8.58576 10.9525 8.81614 10.8235 8.87883 10.6021L8.94359 10.3728C8.98323 10.2321 9.03737 10.0397 9.09537 9.83226C9.21088 9.41926 9.34324 8.94168 9.40593 8.69971Z" fill="#2D373D"/>
</svg>
