<svg width="24" height="25" viewBox="0 0 24 25" fill="none" xmlns="http://www.w3.org/2000/svg">
<path d="M5.25012 12.5484C5.32512 12.6234 5.47512 12.6234 5.55012 12.6234C6.15012 12.6234 6.60012 12.0984 6.60012 11.4984C6.60012 11.3484 6.60012 11.2734 6.52512 11.1984C6.45012 10.8984 6.15012 10.5984 5.85012 10.5234C5.77512 10.4484 5.62512 10.4484 5.55012 10.4484C4.95012 10.3734 4.50012 10.8984 4.50012 11.4234C4.50012 12.0234 4.80012 12.3984 5.25012 12.5484Z" fill="#2D373D"/>
<path d="M11.5502 13.5234H3.9752C3.6752 13.5234 3.4502 13.2984 3.4502 12.9984V11.1234C3.4502 10.1484 4.2752 9.32344 5.2502 9.32344H17.8502C18.5252 9.32344 19.1252 9.69844 19.4252 10.2234C19.6502 10.5984 20.1002 10.7484 20.4752 10.5234C20.8502 10.2984 21.0002 9.84844 20.7752 9.47344C20.4002 8.79844 19.8002 8.34844 19.1252 8.04844L17.7752 5.12344C17.4002 4.07344 16.4252 3.39844 15.3002 3.39844H7.8002C6.7502 3.39844 5.7002 4.07344 5.4002 5.04844L4.0502 8.04844C2.8502 8.57344 1.9502 9.69844 1.9502 11.1234V12.9984C1.9502 13.5984 2.1752 14.0484 2.5502 14.4234V15.5484C2.5502 16.6734 3.4502 17.5734 4.5752 17.5734C5.7002 17.5734 6.6002 16.6734 6.6002 15.5484V15.0234H11.5502C11.9252 15.0234 12.3002 14.7234 12.3002 14.2734C12.3002 13.8234 12.0002 13.5234 11.5502 13.5234ZM6.7502 5.64844C6.9002 5.19844 7.3502 4.89844 7.8752 4.89844H15.3752C15.8252 4.89844 16.2752 5.19844 16.4252 5.64844L17.4002 7.82344H5.7752L6.7502 5.64844ZM5.1002 15.5484C5.1002 15.8484 4.8752 16.0734 4.5752 16.0734C4.2752 16.0734 4.0502 15.8484 4.0502 15.5484V15.0234H5.1002V15.5484Z" fill="#2D373D"/>
<path d="M17.6251 14.4234C17.5501 14.4984 17.5501 14.4234 17.6251 14.4234C17.1001 14.4234 16.7251 14.7234 16.5751 15.1734C16.5001 15.2484 16.5001 15.3984 16.5001 15.4734C16.5001 15.5484 16.5001 15.6984 16.5751 15.7734C16.6501 16.0734 16.9501 16.3734 17.2501 16.4484C17.3251 16.5234 17.4751 16.5234 17.5501 16.5234C18.0001 16.5234 18.4501 16.2234 18.6001 15.8484C18.6751 15.7734 18.6751 15.6234 18.6751 15.4734C18.6751 14.8734 18.2251 14.4234 17.6251 14.4234Z" fill="#2D373D"/>
<path d="M17.6251 10.9733C15.1501 10.9733 13.1251 12.9983 13.1251 15.4733C13.1251 17.1233 14.9251 19.8983 16.5001 21.8483C16.5751 21.9233 16.6501 21.9983 16.7251 22.0733C16.9501 22.2983 17.2501 22.3733 17.5501 22.3733C17.6251 22.3733 17.7001 22.3733 17.8501 22.3733C18.2251 22.2983 18.5251 22.1483 18.7501 21.8483C20.2501 19.8233 22.1251 17.1233 22.1251 15.4733C22.1251 12.9983 20.1001 10.9733 17.6251 10.9733ZM17.5501 20.8733C15.6751 18.4733 14.5501 16.4483 14.5501 15.5483C14.5501 13.8983 15.9001 12.5483 17.5501 12.5483C19.2001 12.5483 20.5501 13.8233 20.5501 15.5483C20.5501 16.4483 19.3501 18.4733 17.5501 20.8733Z" fill="#2D373D"/>
</svg>
