<svg width="24" height="25" viewBox="0 0 24 25" fill="none" xmlns="http://www.w3.org/2000/svg">
<path d="M18.991 6.53912C18.991 6.95333 19.3268 7.28912 19.741 7.28912C20.1552 7.28912 20.491 6.95333 20.491 6.53912L20.491 3.67187C20.491 3.25766 20.1552 2.92188 19.741 2.92188L16.8738 2.92188C16.4596 2.92187 16.1238 3.25766 16.1238 3.67187C16.1238 4.08609 16.4596 4.42188 16.8738 4.42188L18.991 4.42188L18.991 6.53912Z" fill="#2D373D"/>
<path d="M12.1184 4.98213C12.0111 4.90229 11.904 4.90851 11.8227 4.96291C10.1056 6.1124 5.30512 9.50193 3.25823 11.3914C2.95387 11.6724 2.47937 11.6534 2.19842 11.349C1.91746 11.0447 1.93644 10.5702 2.2408 10.2892C4.38408 8.31076 9.27572 4.86288 10.9883 3.71644C11.6267 3.28906 12.4262 3.34153 13.0138 3.77863L21.6972 10.2386C22.0295 10.4858 22.0985 10.9556 21.8513 11.288C21.604 11.6203 21.1342 11.6893 20.8019 11.4421L12.1184 4.98213Z" fill="#2D373D"/>
<path d="M18.9995 11.3419C19.4137 11.3419 19.7495 11.6776 19.7495 12.0919V21.0273C19.7495 22.0753 18.9 22.9248 17.852 22.9248L6.14706 22.925C5.09907 22.925 4.24951 22.0754 4.24951 21.0274V12.092C4.24951 11.6778 4.5853 11.342 4.99951 11.342C5.41373 11.342 5.74951 11.6778 5.74951 12.092V21.0274C5.74951 21.247 5.9275 21.425 6.14706 21.425L17.852 21.4248C18.0715 21.4248 18.2495 21.2469 18.2495 21.0273V12.0919C18.2495 11.6776 18.5853 11.3419 18.9995 11.3419Z" fill="#2D373D"/>
<path fill-rule="evenodd" clip-rule="evenodd" d="M14.701 9.88879C14.7422 10.1287 14.6643 10.3738 14.4921 10.5459L12.4532 12.5849C12.394 12.644 12.2636 12.7914 12.2075 12.9484C12.1833 13.0162 12.183 13.0587 12.1877 13.0849C12.1911 13.1038 12.2043 13.161 12.296 13.2527C12.3872 13.344 12.4441 13.357 12.4631 13.3604C12.4896 13.3651 12.5327 13.3646 12.601 13.3401C12.7592 13.2835 12.9068 13.1526 12.9639 13.0956L15.0028 11.0566C15.175 10.8844 15.42 10.8066 15.66 10.8477C15.8999 10.8889 16.105 11.044 16.2099 11.2636C17.0233 12.9663 16.946 15.3202 15.4387 16.8275C14.9762 17.2901 14.4419 17.6373 13.8718 17.8692V19.8055C13.8718 20.2197 13.536 20.5555 13.1218 20.5555C12.7075 20.5555 12.3718 20.2197 12.3718 19.8055V18.2099C12.1312 18.2246 11.8897 18.2211 11.6495 18.1994V19.8055C11.6495 20.2197 11.3137 20.5555 10.8995 20.5555C10.4853 20.5555 10.1495 20.2197 10.1495 19.8055V17.8103C9.63141 17.5801 9.14605 17.2525 8.72115 16.8276C6.86616 14.9726 6.86619 11.965 8.7212 10.11C10.2285 8.60271 12.5825 8.5255 14.2851 9.33883C14.5048 9.44378 14.6599 9.64883 14.701 9.88879ZM12.553 10.3638C11.538 10.2151 10.4801 10.4725 9.78186 11.1707C8.51262 12.4399 8.51262 14.4977 9.78182 15.7669C11.051 17.0361 13.1088 17.0361 14.3781 15.7669C15.0763 15.0687 15.3337 14.0108 15.185 12.9958L14.0245 14.1562C13.9244 14.2563 13.5849 14.5811 13.1067 14.7524C12.8568 14.8418 12.5444 14.8983 12.2006 14.8372C11.8494 14.7748 11.5212 14.5993 11.2354 14.3134C10.95 14.028 10.7742 13.7006 10.7113 13.3498C10.6496 13.0062 10.7056 12.6939 10.7949 12.4439C10.9659 11.9653 11.2912 11.6256 11.3925 11.5242L12.553 10.3638Z" fill="#2D373D"/>
</svg>
