<svg width="16" height="17" viewBox="0 0 16 17" fill="none" xmlns="http://www.w3.org/2000/svg">
<path fill-rule="evenodd" clip-rule="evenodd" d="M8.00038 3.95902C7.41507 3.29332 6.58273 2.7302 5.64387 2.53492C4.39756 2.27569 3.04074 2.68174 1.93371 4.15777L1.93371 4.15777L1.93179 4.16035C1.34075 4.95907 1.22327 5.83268 1.43125 6.71391C1.63339 7.57039 2.13999 8.42901 2.78025 9.26411C3.73143 10.5048 5.06529 11.7988 6.36051 13.0553C6.79917 13.4809 7.2334 13.9021 7.64683 14.3156C7.74059 14.4093 7.86777 14.462 8.00038 14.462C8.13299 14.462 8.26017 14.4093 8.35393 14.3156C8.76736 13.9021 9.20159 13.4809 9.64025 13.0553C10.9355 11.7988 12.2693 10.5048 13.2205 9.26411C13.8608 8.42901 14.3674 7.57039 14.5695 6.71391C14.7775 5.83268 14.66 4.95907 14.069 4.16035L14.069 4.16035L14.067 4.15778C12.96 2.68174 11.6032 2.27569 10.3569 2.53492C9.41803 2.7302 8.5857 3.29332 8.00038 3.95902ZM2.7347 4.75646C3.6274 3.56698 4.60351 3.33993 5.44023 3.51396C6.32646 3.6983 7.13587 4.35129 7.57638 5.05611C7.66775 5.2023 7.82798 5.29111 8.00038 5.29111C8.17277 5.29111 8.33301 5.2023 8.42438 5.05611C8.86489 4.35129 9.6743 3.6983 10.5605 3.51396C11.3973 3.33992 12.3734 3.56699 13.2661 4.75653C13.6609 5.29076 13.7448 5.85476 13.5962 6.48421C13.4417 7.13894 13.0333 7.86471 12.4269 8.65567C11.5244 9.83283 10.2712 11.0488 8.99216 12.2899C8.66142 12.6108 8.32896 12.9334 8.00038 13.2575C7.67181 12.9334 7.33934 12.6108 7.0086 12.2899C5.72957 11.0488 4.47635 9.83283 3.57385 8.65567C2.96743 7.86471 2.55904 7.13894 2.40451 6.48421C2.25594 5.85473 2.33988 5.29071 2.7347 4.75646Z" fill="#2D373D"/>
</svg>
