<svg width="32" height="33" viewBox="0 0 32 33" fill="none" xmlns="http://www.w3.org/2000/svg">
<path d="M16.7002 27.6616C14.1002 27.8616 11.6002 27.1616 9.50016 25.6616L10.3002 21.6616H10.7002C12.1002 21.6616 13.3002 20.4616 13.3002 18.9616C13.3002 18.7616 13.3002 18.5616 13.2002 18.3616L12.4002 15.0616C12.1002 13.8616 11.0002 13.0616 9.80016 13.0616H5.20016C5.70016 11.5616 6.40016 10.0616 7.50016 8.8616C9.50016 6.6616 12.3002 5.2616 15.3002 5.0616C18.5002 4.8616 21.4002 6.0616 23.6002 8.0616H21.4002C20.2002 8.0616 19.1002 8.8616 18.8002 10.0616L18.1002 13.3616C17.9002 13.8616 18.3002 14.4616 18.8002 14.5616C18.8002 14.5616 18.9002 14.5616 19.0002 14.5616C19.4002 14.5616 19.8002 14.2616 20.0002 13.8616L20.8002 10.5616C20.8002 10.2616 21.1002 10.0616 21.4002 10.0616H25.4002C26.4002 11.4616 27.0002 13.0616 27.2002 14.8616C27.2002 15.4616 27.8002 15.8616 28.3002 15.7616C28.9002 15.7616 29.3002 15.1616 29.2002 14.6616C28.9002 12.3616 28.0002 10.3616 26.8002 8.5616C26.7002 8.4616 26.7002 8.3616 26.6002 8.2616C24.0002 4.8616 19.7002 2.7616 15.1002 3.0616C11.6002 3.3616 8.30016 4.9616 6.00016 7.6616C4.50016 9.3616 3.50016 11.3616 3.00016 13.5616C2.90016 13.6616 2.90016 13.7616 2.90016 13.8616C2.00016 18.5616 3.50016 23.3616 7.10016 26.4616L7.20016 26.5616C7.40016 26.6616 7.50016 26.8616 7.70016 26.9616C10.0002 28.7616 12.9002 29.8616 16.0002 29.8616C16.3002 29.8616 16.5002 29.8616 16.9002 29.6616C17.4002 29.5616 17.8002 29.1616 17.8002 28.5616C17.7002 28.0616 17.3002 27.6616 16.7002 27.6616ZM9.80016 14.8616C10.1002 14.8616 10.3002 15.0616 10.4002 15.3616L11.2002 18.6616C11.2002 18.7616 11.2002 18.7616 11.2002 18.8616C11.2002 19.2616 11.0002 19.5616 10.6002 19.5616H9.40016C8.90016 19.5616 8.50016 19.8616 8.40016 20.3616L7.60016 23.9616C5.90016 22.0616 4.80016 19.6616 4.70016 17.0616C4.70016 16.3616 4.70016 15.5616 4.80016 14.8616H9.80016Z" fill="#2D373D"/>
<path d="M28.1002 17.4616C26.4002 15.7616 23.6002 15.8616 22.0002 17.5616L21.8002 17.7616L21.6002 17.5616C19.9002 15.8616 17.2002 15.8616 15.5002 17.4616C13.8002 19.1616 13.8002 21.8616 15.4002 23.5616L21.1002 29.5616C21.3002 29.7616 21.5002 29.8616 21.8002 29.8616C22.0002 29.8616 22.3002 29.7616 22.5002 29.5616L28.2002 23.5616C29.9002 21.8616 29.8002 19.0616 28.1002 17.4616ZM26.8002 22.1616L21.8002 27.3616L16.8002 22.1616C15.9002 21.1616 16.0002 19.7616 16.9002 18.8616C17.4002 18.4616 17.9002 18.2616 18.5002 18.2616C19.1002 18.2616 19.7002 18.4616 20.3002 19.0616L21.2002 20.0616C21.5002 20.4616 22.2002 20.4616 22.6002 20.0616L23.5002 19.0616C23.9002 18.6616 24.5002 18.3616 25.1002 18.3616C25.7002 18.3616 26.3002 18.5616 26.7002 18.9616C27.1002 19.3616 27.4002 19.9616 27.4002 20.5616C27.5002 21.1616 27.2002 21.7616 26.8002 22.1616Z" fill="#2D373D"/>
</svg>
