<svg width="24" height="25" viewBox="0 0 24 25" fill="none" xmlns="http://www.w3.org/2000/svg">
<path d="M16.5002 11.4119L12.5252 7.43691C12.2252 7.13691 11.7752 7.13691 11.4752 7.43691L7.4252 11.4119C7.1252 11.7119 7.1252 12.1619 7.4252 12.4619C7.5752 12.6119 7.7252 12.6869 7.9502 12.6869C8.1752 12.6869 8.3252 12.6119 8.4752 12.4619L11.2502 9.76191V16.9619C11.2502 17.4119 11.5502 17.7119 12.0002 17.7119C12.3752 17.7119 12.7502 17.4119 12.7502 16.9619V9.76191L15.4502 12.4619C15.7502 12.7619 16.2002 12.7619 16.5002 12.4619C16.8002 12.1619 16.8002 11.7119 16.5002 11.4119Z" fill="#2D373D"/>
</svg>
