<svg width="64" height="65" viewBox="0 0 64 65" fill="none" xmlns="http://www.w3.org/2000/svg">
<path d="M36.6001 40.062H35.0001C34.4001 40.062 33.8001 39.662 33.8001 38.862V30.662C33.8001 28.662 32.2001 27.062 30.2001 27.062H28.6001C27.4001 27.062 26.6001 27.862 26.6001 29.062C26.6001 30.262 27.4001 31.062 28.6001 31.062H30.0001V39.062C30.0001 41.862 32.2001 44.262 35.2001 44.262H36.8001C38.0001 44.262 38.6001 43.262 38.6001 42.062C38.6001 40.862 37.8001 40.062 36.6001 40.062Z" fill="#2D373D"/>
<path d="M31.2004 24.4621C32.6004 24.4621 34.0004 23.2621 34.0004 21.6621C34.0004 20.0621 32.8004 18.8621 31.2004 18.8621C29.6004 18.8621 28.4004 20.0621 28.4004 21.6621C28.4004 23.2621 29.6004 24.4621 31.2004 24.4621Z" fill="#2D373D"/>
<path d="M32.0002 5.66211C17.2002 5.66211 5.2002 17.8621 5.2002 32.4621C5.2002 47.0621 17.2002 59.0621 32.0002 59.0621C46.6002 59.0621 58.8002 47.2621 58.8002 32.4621C58.8002 17.6621 46.8002 5.66211 32.0002 5.66211ZM32.0002 55.2621C19.4002 55.2621 9.2002 45.0621 9.2002 32.4621C9.2002 19.8621 19.4002 9.66211 32.0002 9.66211C44.4002 9.66211 54.8002 19.8621 54.8002 32.4621C54.8002 45.0621 44.6002 55.2621 32.0002 55.2621Z" fill="#2D373D"/>
</svg>
