<svg width="64" height="64" viewBox="0 0 64 64" fill="none" xmlns="http://www.w3.org/2000/svg">
<path d="M39.0001 56.2C38.6001 56.2 38.2001 56.2 38.0001 56L20.6001 45.7999H7.2001C6.0001 45.7999 5.2001 45 5.2001 43.7999V20.4C5.2001 19.2 6.0001 18.4 7.2001 18.4H20.6001L38.0001 8.19995C38.6001 7.79995 39.4001 7.79995 40.0001 8.19995C40.6001 8.59995 41.0001 9.19995 41.0001 9.99995V54.2C41.0001 55 40.6001 55.5999 40.0001 56C39.8001 56 39.4001 56.2 39.0001 56.2ZM9.2001 41.5999H21.2001C21.6001 41.5999 22.0001 41.5999 22.2001 41.7999L37.0001 50.5999V13.4L22.2001 22C21.8001 22.2 21.6001 22.2 21.2001 22.2H9.2001V41.5999Z" fill="#2D373D"/>
<path d="M48.3999 47.0002C47.7999 47.0002 47.1999 46.8002 46.9999 46.4002C46.1999 45.6002 46.3999 44.4002 47.1999 43.6002C50.3999 40.8002 52.1999 36.6002 52.1999 32.4002C52.3999 28.2002 50.3999 24.2002 47.1999 21.6002C46.3999 21.0002 46.1999 19.6002 46.7999 18.8002C47.3999 18.0002 48.7999 17.8002 49.5999 18.4002C53.7999 21.8002 56.1999 27.0002 55.9999 32.4002C55.9999 37.8002 53.7999 43.0002 49.5999 46.6002C49.3999 46.8002 48.7999 47.0002 48.3999 47.0002Z" fill="#2D373D"/>
</svg>
