<svg width="32" height="32" viewBox="0 0 32 32" fill="none" xmlns="http://www.w3.org/2000/svg">
<path d="M6.39978 17.7C7.69978 17.7 8.89978 16.6 8.89978 15.2C8.89978 14.2 8.19978 13.4 7.39978 13V12.3C7.39978 11.7 6.99978 11.3 6.39978 11.3C5.79978 11.3 5.39978 11.7 5.39978 12.3V13.8C5.39978 14.4 5.79978 14.8 6.39978 14.8C6.59978 14.8 6.89978 14.9 6.89978 15.2C6.89978 15.5 6.69978 15.7 6.39978 15.7C6.09978 15.7 5.89978 15.5 5.89978 15.2C5.89978 14.6 5.49978 14.2 4.89978 14.2C4.29978 14.2 3.89978 14.6 3.89978 15.2C3.89978 16.6 4.99978 17.7 6.39978 17.7Z" fill="#2D373D"/>
<path d="M24.5998 18.7L22.2998 14.1C21.8998 13.2 20.9998 12.7 20.0998 12.7H18.0998C16.6998 12.7 15.5998 13.8 15.5998 15.2V15.9L7.7998 4.3C7.3998 3.7 6.5998 3.5 5.9998 3.9C5.5998 4.1 5.3998 4.6 5.3998 5V9.2C5.3998 9.8 5.7998 10.2 6.3998 10.2C6.9998 10.2 7.3998 9.8 7.3998 9.2V7.3L14.8998 18.6H6.2998C4.8998 18.6 3.7998 19.7 3.7998 21.1V24.1C3.7998 25.5 4.8998 26.6 6.2998 26.6H8.4998C8.8998 27.5 9.7998 28.1 10.7998 28.1C11.7998 28.1 12.6998 27.5 13.0998 26.6H20.2998C20.6998 27.5 21.5998 28.1 22.5998 28.1C23.5998 28.1 24.4998 27.5 24.8998 26.6H25.3998C26.7998 26.6 27.8998 25.5 27.8998 24.1V22.6C27.8998 20.6 26.4998 19 24.5998 18.7ZM17.5998 15.1C17.5998 14.8 17.7998 14.6 18.0998 14.6H20.0998C20.2998 14.6 20.3998 14.7 20.4998 14.9L22.2998 18.6H17.5998V15.1ZM10.7998 26.1C10.4998 26.1 10.2998 25.9 10.2998 25.6C10.2998 25.3 10.4998 25.1 10.7998 25.1C11.0998 25.1 11.2998 25.3 11.2998 25.6C11.2998 25.9 11.0998 26.1 10.7998 26.1ZM22.5998 26.1C22.2998 26.1 22.0998 25.9 22.0998 25.6C22.0998 25.3 22.2998 25.1 22.5998 25.1C22.8998 25.1 23.0998 25.3 23.0998 25.6C23.0998 25.9 22.8998 26.1 22.5998 26.1ZM25.8998 24.1C25.8998 24.4 25.6998 24.6 25.3998 24.6H24.8998C24.4998 23.7 23.5998 23.1 22.5998 23.1C21.5998 23.1 20.6998 23.7 20.2998 24.6H13.0998C12.6998 23.7 11.7998 23.1 10.7998 23.1C9.7998 23.1 8.8998 23.7 8.4998 24.6H6.3998C6.0998 24.6 5.8998 24.4 5.8998 24.1V21.1C5.8998 20.9 6.0998 20.7 6.3998 20.5H16.2998C16.3998 20.5 16.4998 20.6 16.5998 20.6H23.5998C23.6998 20.6 23.7998 20.6 23.8998 20.6C24.9998 20.6 25.8998 21.5 25.8998 22.6V24.1Z" fill="#2D373D"/>
</svg>
