<svg width="64" height="64" viewBox="0 0 64 64" fill="none" xmlns="http://www.w3.org/2000/svg">
<path d="M56.84 50.98L50.5 44.64C52.3914 42.0525 53.238 38.8471 52.871 35.6631C52.504 32.479 50.9503 29.5503 48.5198 27.461C46.0893 25.3716 42.9606 24.2751 39.7576 24.3901C36.5545 24.5052 33.5125 25.8233 31.2382 28.0816C28.9638 30.3399 27.6242 33.3726 27.4866 36.5747C27.3489 39.7769 28.4233 42.9133 30.4954 45.3585C32.5675 47.8037 35.4852 49.378 38.6666 49.7675C41.8479 50.157 45.0592 49.3331 47.66 47.46L54 53.82C54.1869 54.0054 54.4086 54.152 54.6522 54.2516C54.8959 54.3511 55.1568 54.4015 55.42 54.4C55.8156 54.3984 56.2018 54.2795 56.5297 54.0583C56.8577 53.8372 57.1127 53.5238 57.2626 53.1577C57.4124 52.7917 57.4504 52.3894 57.3716 52.0018C57.2928 51.6141 57.1009 51.2586 56.82 50.98H56.84ZM34.2 43.34C32.5976 41.7222 31.6987 39.5371 31.6987 37.26C31.6987 34.9829 32.5976 32.7979 34.2 31.18C35.4027 29.977 36.935 29.1576 38.6033 28.8255C40.2717 28.4934 42.001 28.6635 43.5726 29.3144C45.1443 29.9652 46.4876 31.0675 47.4327 32.4818C48.3778 33.8961 48.8823 35.559 48.8823 37.26C48.8823 38.9611 48.3778 40.6239 47.4327 42.0382C46.4876 43.4526 45.1443 44.5549 43.5726 45.2057C42.001 45.8565 40.2717 46.0266 38.6033 45.6945C36.935 45.3625 35.4027 44.5431 34.2 43.34Z" fill="#2D373D"/>
<path d="M14.86 25.46C14.5994 25.7227 14.3943 26.0352 14.2569 26.3787C14.1194 26.7223 14.0525 27.09 14.06 27.46C14.049 27.8304 14.1143 28.1992 14.252 28.5433C14.3896 28.8873 14.5966 29.1994 14.86 29.46C15.1218 29.7233 15.4336 29.9315 15.7771 30.0724C16.1206 30.2132 16.4888 30.2838 16.86 30.28C17.5888 30.2697 18.2848 29.9756 18.8002 29.4602C19.3156 28.9448 19.6097 28.2488 19.62 27.52C19.6238 27.1488 19.5532 26.7806 19.4124 26.4371C19.2716 26.0936 19.0633 25.7817 18.8 25.52C18.5394 25.2566 18.2274 25.0496 17.8833 24.9119C17.5392 24.7743 17.1705 24.709 16.8 24.72C16.0817 24.7048 15.3857 24.9702 14.86 25.46Z" fill="#2D373D"/>
<path d="M23.64 32.22H13.02C12.7608 32.2412 12.5032 32.1625 12.3 32C12.1952 31.8963 12.114 31.7711 12.0622 31.6329C12.0105 31.4948 11.9892 31.3471 12 31.2V26.66C11.9996 25.5822 12.4235 24.5476 13.18 23.78C13.9362 23.043 14.9444 22.6212 16 22.6H46.34C46.6982 22.596 47.0552 22.6431 47.4 22.74C47.9144 22.8742 48.3969 23.1096 48.8193 23.4324C49.2417 23.7552 49.5955 24.1589 49.86 24.62C49.9851 24.859 50.1572 25.0703 50.3659 25.2411C50.5747 25.4118 50.8159 25.5386 51.075 25.6138C51.334 25.6889 51.6056 25.7109 51.8734 25.6784C52.1411 25.6458 52.3996 25.5595 52.6331 25.4245C52.8666 25.2895 53.0704 25.1087 53.2323 24.8929C53.3941 24.6771 53.5106 24.4308 53.5748 24.1688C53.639 23.9068 53.6495 23.6345 53.6057 23.3684C53.5619 23.1022 53.4647 22.8477 53.32 22.62C52.6163 21.398 51.602 20.3838 50.38 19.68C50.0811 19.4989 49.7665 19.3449 49.44 19.22L46.3 12.24C45.8322 10.9947 44.9958 9.92172 43.9023 9.16415C42.8088 8.40657 41.5103 8.00047 40.18 8.00002H22.18C20.8444 7.99691 19.5395 8.40161 18.44 9.16002C17.4025 9.89794 16.6087 10.9285 16.16 12.12L12.98 19.2C12.0005 19.6106 11.1105 20.2084 10.36 20.96C9.60897 21.7066 9.01362 22.5949 8.6085 23.5734C8.20338 24.5518 7.99656 25.601 8.00004 26.66V31.2C7.99885 31.8618 8.12906 32.5173 8.38312 33.1284C8.63717 33.7395 9.01002 34.2941 9.48004 34.76V37.22C9.63432 38.4372 10.2273 39.5563 11.1478 40.3675C12.0683 41.1787 13.2531 41.6263 14.48 41.6263C15.707 41.6263 16.8918 41.1787 17.8123 40.3675C18.7328 39.5563 19.3258 38.4372 19.48 37.22V36.18H23.48C24.0105 36.18 24.5192 35.9693 24.8943 35.5942C25.2693 35.2192 25.48 34.7105 25.48 34.18C25.48 33.6496 25.2693 33.1409 24.8943 32.7658C24.5192 32.3907 24.0105 32.18 23.48 32.18L23.64 32.22ZM19.86 13.66C20.0307 13.172 20.3531 12.7515 20.78 12.46C21.209 12.1625 21.718 12.0021 22.24 12H40.24C40.7756 12.0084 41.2955 12.182 41.7286 12.497C42.1618 12.812 42.4871 13.2531 42.66 13.76L44.78 18.6H17.64L19.86 13.66ZM15.58 37.26C15.5794 37.5303 15.4715 37.7892 15.28 37.98C15.0831 38.1671 14.8217 38.2714 14.55 38.2714C14.2784 38.2714 14.017 38.1671 13.82 37.98C13.7224 37.8877 13.6453 37.7759 13.5936 37.6519C13.5419 37.5278 13.5169 37.3943 13.52 37.26V36.22H15.52L15.58 37.26Z" fill="#2D373D"/>
</svg>
