<svg width="24" height="25" viewBox="0 0 24 25" fill="none" xmlns="http://www.w3.org/2000/svg">
<path fill-rule="evenodd" clip-rule="evenodd" d="M19.294 3.46323C19.7075 3.48755 20.023 3.84248 19.9987 4.25598C19.8678 6.48062 19.2805 8.50197 18.6597 9.97242C18.3495 10.707 18.024 11.3207 17.7305 11.7633L17.7048 11.8016C18.3585 12.3303 18.7082 13.0316 18.8582 13.7291C19.0554 14.6459 18.9158 15.5651 18.724 16.1609C18.546 16.9498 18.1816 18.1809 17.6436 19.2392C17.3712 19.7751 17.0348 20.306 16.6255 20.7127C16.2166 21.119 15.6708 21.4619 15 21.4619C14.4791 21.4619 13.8546 21.3117 13.2366 21.1136C12.6025 20.9103 11.9085 20.634 11.2259 20.3372C10.0052 19.8064 8.77926 19.1916 7.943 18.7722L7.66459 18.6327C7.35347 18.4771 7.19014 18.128 7.27007 17.7895C7.35 17.451 7.65221 17.2118 8.00005 17.2118C8.17966 17.2118 8.45768 17.1312 8.83115 16.9057C9.19359 16.6869 9.58559 16.3684 9.97642 15.9874C10.7561 15.2272 11.4564 14.2918 11.8371 13.6107C12.131 13.0289 12.7026 12.2284 13.5112 11.6698C14.2576 11.1541 15.2375 10.8302 16.3475 11.1226C16.3866 11.071 16.4311 11.0085 16.4805 10.9341C16.7104 10.5875 16.9942 10.0606 17.2778 9.38896C17.8445 8.0469 18.3822 6.19325 18.5013 4.1679C18.5256 3.7544 18.8805 3.43891 19.294 3.46323ZM13.9445 13.2513L17.4532 14.7133C17.4568 14.4937 17.4394 14.266 17.3918 14.0445C17.2679 13.4683 16.9498 12.9495 16.2215 12.6582C15.5086 12.373 14.8971 12.5354 14.3638 12.9039C14.2139 13.0075 14.0736 13.1257 13.9445 13.2513ZM17.166 16.2186L13.0531 14.5049C12.5871 15.294 11.8425 16.2629 11.0236 17.0614C10.6518 17.4239 10.2514 17.7644 9.84121 18.04C10.4591 18.3417 11.1429 18.6654 11.8241 18.9616C12.203 19.1264 12.5768 19.2807 12.9341 19.4167L13.8292 17.6265C14.0144 17.256 14.4649 17.1059 14.8354 17.2911C15.2059 17.4764 15.3561 17.9269 15.1708 18.2973L14.3813 19.8763C14.6362 19.9339 14.8437 19.9619 15 19.9619C15.1292 19.9619 15.3167 19.8986 15.5682 19.6487C15.8194 19.3991 16.0705 19.0237 16.3064 18.5595C16.6924 17.8002 16.9857 16.9082 17.166 16.2186Z" fill="#2D373D"/>
<path d="M9 13.4619C9 14.0142 8.55228 14.4619 8 14.4619C7.44772 14.4619 7 14.0142 7 13.4619C7 12.9097 7.44772 12.4619 8 12.4619C8.55228 12.4619 9 12.9097 9 13.4619Z" fill="#2D373D"/>
<path d="M8 9.46194C8 10.0142 7.55228 10.4619 7 10.4619C6.44772 10.4619 6 10.0142 6 9.46194C6 8.90965 6.44772 8.46194 7 8.46194C7.55228 8.46194 8 8.90965 8 9.46194Z" fill="#2D373D"/>
<path d="M6 12.4619C6 13.0142 5.55228 13.4619 5 13.4619C4.44772 13.4619 4 13.0142 4 12.4619C4 11.9097 4.44772 11.4619 5 11.4619C5.55228 11.4619 6 11.9097 6 12.4619Z" fill="#2D373D"/>
</svg>
