<svg width="64" height="65" viewBox="0 0 64 65" fill="none" xmlns="http://www.w3.org/2000/svg">
<path d="M56.7999 39.1245H55.3999V37.7245C55.3999 32.9245 51.5999 29.1245 46.7999 29.1245C41.9999 29.1245 38.1999 32.9245 38.1999 37.7245V39.1245H36.9999C35.7999 39.1245 34.9999 39.9245 34.9999 41.1245V57.7245C34.9999 58.9245 35.7999 59.7245 36.9999 59.7245H56.7999C57.9999 59.7245 58.7999 58.9245 58.7999 57.7245V41.1245C58.7999 39.9245 57.9999 39.1245 56.7999 39.1245ZM42.1999 37.7245C42.1999 35.1245 44.1999 33.1245 46.7999 33.1245C49.3999 33.1245 51.3999 35.1245 51.3999 37.7245V39.1245H42.1999V37.7245ZM54.7999 55.7245H38.9999V43.1245H54.7999V55.7245Z" fill="#2D373D"/>
<path d="M46.7999 46.7246C45.1999 46.7246 43.9999 47.9246 43.9999 49.5246C43.9999 51.1246 45.1999 52.3246 46.7999 52.3246C48.3999 52.3246 49.5999 51.1246 49.5999 49.5246C49.5999 47.9246 48.3999 46.7246 46.7999 46.7246Z" fill="#2D373D"/>
<path d="M30.3999 46.5246C31.3999 46.5246 32.1999 45.7246 32.1999 44.5246C32.1999 43.3246 31.3999 42.5246 30.1999 42.5246H23.1999C22.7999 39.5246 22.5999 36.5246 22.3999 33.3246H35.3999C36.3999 33.3246 37.1999 32.5246 37.1999 31.3246C37.1999 30.1246 36.3999 29.3246 35.1999 29.3246H22.5999C22.7999 26.1246 23.1999 22.9246 23.7999 20.1246H40.1999C40.5999 21.7246 40.7999 23.3246 40.9999 24.9246C41.1999 25.9246 41.9999 26.7246 42.9999 26.7246C44.3999 26.5246 45.1999 25.7246 45.1999 24.5246C44.9999 23.1246 44.7999 21.5246 44.5999 20.1246H50.9999C52.9999 22.9246 54.1999 26.1246 54.7999 29.7246C54.7999 30.9246 55.9999 31.7246 56.9999 31.5246C58.1999 31.5246 58.9999 30.3246 58.7999 29.3246C56.7999 16.7246 46.3999 6.92458 33.7999 6.12458C18.9999 5.12458 6.19992 16.3246 5.19992 31.1246C4.99992 36.1246 5.99992 40.9246 7.99992 45.1246C7.99992 45.5246 8.19992 45.7246 8.39992 46.1246C9.39992 47.7246 10.3999 49.3246 11.5999 50.7246C16.3999 56.1246 22.9999 59.5246 30.1999 59.9246C31.1999 59.9246 31.9999 59.1246 31.9999 57.9246C32.1999 56.7246 31.3999 55.7246 30.1999 55.7246C28.9999 55.7246 27.9999 55.5246 26.7999 55.3246C25.3999 53.1246 24.3999 50.1246 23.5999 46.7246H30.3999V46.5246ZM19.1999 42.5246H11.3999C9.99992 39.7246 9.39992 36.5246 9.19992 33.3246H18.3999C18.3999 36.5246 18.5999 39.5246 19.1999 42.5246ZM18.5999 29.3246H9.39992C9.99992 25.9246 11.1999 22.9246 13.1999 20.1246H19.5999C18.9999 22.9246 18.5999 26.1246 18.5999 29.3246ZM16.7999 16.1246C18.3999 14.7246 19.9999 13.5246 21.9999 12.5246C21.5999 13.7246 21.1999 14.9246 20.7999 16.1246H16.7999ZM43.3999 16.1246C42.9999 14.9246 42.5999 13.7246 41.9999 12.5246C43.9999 13.5246 45.7999 14.7246 47.3999 16.1246H43.3999ZM33.5999 10.1246C34.5999 10.1246 35.5999 10.3246 36.5999 10.5246C37.5999 12.3246 38.3999 14.1246 39.1999 16.1246H24.9999C25.7999 13.9246 26.5999 12.1246 27.5999 10.5246C29.3999 10.1246 31.3999 9.92458 33.5999 10.1246ZM21.7999 53.3246C18.5999 51.7246 15.7999 49.3246 13.7999 46.5246H19.7999C20.3999 48.9246 20.9999 51.1246 21.7999 53.3246Z" fill="#2D373D"/>
</svg>
