<svg width="16" height="16" viewBox="0 0 16 16" fill="none" xmlns="http://www.w3.org/2000/svg">
<path d="M14.21 12.745L12.625 11.16C13.0979 10.5131 13.3095 9.71177 13.2178 8.91577C13.126 8.11976 12.7376 7.38758 12.13 6.86524C11.5223 6.3429 10.7402 6.06877 9.93939 6.09753C9.13863 6.12629 8.37813 6.45582 7.80954 7.0204C7.24095 7.58498 6.90606 8.34314 6.87164 9.14368C6.83723 9.94422 7.10582 10.7283 7.62385 11.3396C8.14189 11.9509 8.8713 12.3445 9.66664 12.4419C10.462 12.5393 11.2648 12.3333 11.915 11.865L13.5 13.455C13.5467 13.5013 13.6021 13.538 13.6631 13.5629C13.724 13.5878 13.7892 13.6004 13.855 13.6C13.9539 13.5996 14.0504 13.5699 14.1324 13.5146C14.2144 13.4593 14.2782 13.3809 14.3156 13.2894C14.3531 13.1979 14.3626 13.0973 14.3429 13.0004C14.3232 12.9035 14.2752 12.8146 14.205 12.745H14.21ZM8.55001 10.835C8.14941 10.4305 7.92468 9.88428 7.92468 9.315C7.92468 8.74573 8.14941 8.19947 8.55001 7.795C8.85066 7.49424 9.23375 7.2894 9.65084 7.20637C10.0679 7.12335 10.5002 7.16588 10.8932 7.32859C11.2861 7.49129 11.6219 7.76686 11.8582 8.12045C12.0945 8.47403 12.2206 8.88974 12.2206 9.315C12.2206 9.74027 12.0945 10.156 11.8582 10.5096C11.6219 10.8631 11.2861 11.1387 10.8932 11.3014C10.5002 11.4641 10.0679 11.5067 9.65084 11.4236C9.23375 11.3406 8.85066 11.1358 8.55001 10.835Z" fill="#2D373D"/>
<path d="M3.71501 6.365C3.64986 6.43068 3.59858 6.50879 3.56422 6.59469C3.52986 6.68058 3.51313 6.77251 3.51501 6.865C3.51225 6.95761 3.52858 7.04979 3.56299 7.13581C3.5974 7.22183 3.64915 7.29985 3.71501 7.365C3.78044 7.43083 3.8584 7.48288 3.94427 7.51809C4.03015 7.5533 4.1222 7.57095 4.21501 7.57C4.39721 7.56742 4.57121 7.49389 4.70006 7.36505C4.8289 7.23621 4.90243 7.0622 4.90501 6.88C4.90596 6.7872 4.88831 6.69514 4.8531 6.60926C4.81789 6.52339 4.76584 6.44544 4.70001 6.38C4.63486 6.31414 4.55684 6.26239 4.47082 6.22798C4.3848 6.19357 4.29262 6.17724 4.20001 6.18C4.02043 6.17619 3.84643 6.24256 3.71501 6.365Z" fill="#2D373D"/>
<path d="M5.91001 8.055H3.25501C3.19019 8.0603 3.1258 8.04062 3.07501 8C3.04879 7.97407 3.02851 7.94276 3.01556 7.90824C3.00261 7.87371 2.99731 7.83678 3.00001 7.8V6.665C2.99989 6.39556 3.10587 6.1369 3.29501 5.945C3.48406 5.76076 3.73609 5.6553 4.00001 5.65H11.585C11.6746 5.64899 11.7638 5.66077 11.85 5.685C11.9786 5.71855 12.0992 5.77739 12.2048 5.85809C12.3104 5.93879 12.3989 6.03973 12.465 6.155C12.4963 6.21476 12.5393 6.26757 12.5915 6.31026C12.6437 6.35296 12.704 6.38465 12.7687 6.40344C12.8335 6.42223 12.9014 6.42773 12.9683 6.41959C13.0353 6.41146 13.0999 6.38987 13.1583 6.35613C13.2167 6.32238 13.2676 6.27717 13.3081 6.22322C13.3485 6.16927 13.3777 6.1077 13.3937 6.0422C13.4097 5.9767 13.4124 5.90863 13.4014 5.84209C13.3905 5.77555 13.3662 5.71191 13.33 5.655C13.1541 5.34951 12.9005 5.09594 12.595 4.92C12.5203 4.87472 12.4416 4.83623 12.36 4.805L11.575 3.06C11.4581 2.74868 11.2489 2.48043 10.9756 2.29104C10.7022 2.10164 10.3776 2.00012 10.045 2H5.54501C5.21109 1.99923 4.88489 2.1004 4.61001 2.29C4.35064 2.47448 4.15218 2.73213 4.04001 3.03L3.24501 4.8C3.00012 4.90265 2.77763 5.05211 2.59001 5.24C2.40224 5.42665 2.2534 5.64873 2.15212 5.89334C2.05084 6.13796 1.99914 6.40025 2.00001 6.665V7.8C1.99971 7.96546 2.03227 8.12932 2.09578 8.2821C2.15929 8.43488 2.25251 8.57352 2.37001 8.69V9.305C2.40858 9.6093 2.55682 9.88908 2.78695 10.0919C3.01708 10.2947 3.31328 10.4066 3.62001 10.4066C3.92674 10.4066 4.22294 10.2947 4.45307 10.0919C4.6832 9.88908 4.83144 9.6093 4.87001 9.305V9.045H5.87001C6.00262 9.045 6.1298 8.99233 6.22356 8.89856C6.31733 8.80479 6.37001 8.67761 6.37001 8.545C6.37001 8.4124 6.31733 8.28522 6.22356 8.19145C6.1298 8.09768 6.00262 8.045 5.87001 8.045L5.91001 8.055ZM4.96501 3.415C5.00767 3.293 5.08827 3.18787 5.19501 3.115C5.30224 3.04063 5.42951 3.00053 5.56001 3H10.06C10.1939 3.0021 10.3239 3.04549 10.4322 3.12425C10.5404 3.203 10.6218 3.31328 10.665 3.44L11.195 4.65H4.41001L4.96501 3.415ZM3.89501 9.315C3.89485 9.38257 3.86787 9.44731 3.82001 9.495C3.77076 9.54178 3.70543 9.56786 3.63751 9.56786C3.56959 9.56786 3.50426 9.54178 3.45501 9.495C3.43061 9.47192 3.41133 9.44397 3.39841 9.41296C3.38549 9.38196 3.37922 9.34858 3.38001 9.315V9.055H3.88001L3.89501 9.315Z" fill="#2D373D"/>
</svg>
