<svg width="24" height="25" viewBox="0 0 24 25" fill="none" xmlns="http://www.w3.org/2000/svg">
<path fill-rule="evenodd" clip-rule="evenodd" d="M20.995 4.82314C21.0202 4.59667 20.941 4.37103 20.7799 4.20991C20.6188 4.04878 20.3932 3.96965 20.1667 3.99483L18.4522 4.18551C16.9381 4.35381 15.5265 5.03237 14.4493 6.10958L9.93514 10.6238L9.37707 10.4379C8.40506 10.114 7.36207 10.0672 6.36494 10.3026C5.3678 10.5381 4.45593 11.0466 3.73151 11.7712L3.54719 11.9555C3.38501 12.1175 3.26693 12.3183 3.20417 12.5388C3.14134 12.7596 3.13604 12.9927 3.18878 13.2161C3.24152 13.4395 3.35054 13.6457 3.50548 13.815C3.66031 13.9842 3.85584 14.111 4.07349 14.1834L6.78275 15.087L9.90107 18.2068L10.8046 20.9159C10.877 21.1335 11.004 21.3296 11.1732 21.4844C11.3425 21.6393 11.5487 21.7483 11.7721 21.8011C11.9954 21.8538 12.2286 21.8485 12.4494 21.7857C12.6696 21.723 12.8702 21.6051 13.0321 21.4432L13.0332 21.4421L13.2179 21.2583C13.9423 20.5338 14.4506 19.6218 14.6859 18.6247C14.9212 17.6276 14.8743 16.5848 14.5503 15.6129L14.3647 15.0551L18.8802 10.5405C19.9578 9.46362 20.6364 8.05156 20.8043 6.53741L20.995 4.82314ZM18.618 5.67632L19.4005 5.58929L19.3135 6.37213C19.1832 7.54761 18.6562 8.64375 17.8197 9.47977L10.5569 16.7411L8.24855 14.4317L15.51 7.1702C16.3463 6.33383 17.4424 5.80698 18.618 5.67632ZM6.7097 11.7625C7.38237 11.6036 8.08371 11.6212 8.74605 11.8122L6.98541 13.5734L4.78463 12.8394L4.79222 12.8318C5.31969 12.3042 5.98365 11.9339 6.7097 11.7625ZM12.149 20.2058L11.415 18.0049L13.1768 16.2468C13.3671 16.9082 13.3845 17.6085 13.226 18.2801C13.0547 19.006 12.6848 19.6698 12.1576 20.1972L12.149 20.2058Z" fill="#2D373D"/>
<path fill-rule="evenodd" clip-rule="evenodd" d="M6.70049 17.19C7.11383 17.1631 7.42706 16.8062 7.40012 16.3928C7.37318 15.9795 7.01627 15.6663 6.60293 15.6932C5.98835 15.7333 5.4094 15.9957 4.97426 16.4316C4.68959 16.7157 4.44945 17.1874 4.26195 17.6076C4.05868 18.0632 3.86179 18.5907 3.69151 19.083C3.52043 19.5775 3.37221 20.0483 3.26694 20.3946C3.21422 20.568 3.17207 20.7109 3.14298 20.8109C3.12844 20.8609 3.11715 20.9002 3.10943 20.9272L3.10056 20.9584L3.09731 20.9699C3.02396 21.231 3.09725 21.5115 3.28904 21.7032C3.48083 21.895 3.76133 21.9682 4.02241 21.8948L4.03391 21.8916L4.06506 21.8827C4.09207 21.875 4.13134 21.8637 4.1813 21.8492C4.2812 21.8201 4.42405 21.7779 4.59739 21.7252C4.94351 21.6199 5.414 21.4717 5.9084 21.3007C6.40051 21.1304 6.92786 20.9335 7.38347 20.7303C7.80415 20.5426 8.27568 20.3026 8.56002 20.0185C8.79613 19.783 8.98338 19.5031 9.11101 19.195C9.23868 18.8867 9.30418 18.5563 9.30374 18.2227C9.3032 17.8085 8.96698 17.4731 8.55277 17.4737C8.13855 17.4742 7.8032 17.8104 7.80374 18.2247C7.80392 18.3606 7.77722 18.4953 7.72519 18.6209C7.67315 18.7466 7.5968 18.8607 7.50052 18.9567L7.49984 18.9574C7.43533 19.0219 7.20641 19.1668 6.7724 19.3604C6.37308 19.5385 5.89131 19.7193 5.41791 19.8831C5.25907 19.9381 5.10247 19.9907 4.95184 20.0402C5.00139 19.8893 5.05406 19.7324 5.10909 19.5733C5.2729 19.0998 5.45369 18.618 5.63178 18.2188C5.82547 17.7847 5.9701 17.5568 6.03388 17.4933L6.03542 17.4917C6.21306 17.3136 6.4495 17.2064 6.70049 17.19Z" fill="#2D373D"/>
</svg>
