<svg width="32" height="32" viewBox="0 0 32 32" fill="none" xmlns="http://www.w3.org/2000/svg">
<path d="M24.8269 4.13502C25.25 3.98254 25.7077 3.95357 26.1466 4.05152C26.5859 4.14957 26.9882 4.37074 27.3064 4.68913C27.6247 5.00753 27.8456 5.40997 27.9434 5.84937C28.0412 6.2885 28.0119 6.74637 27.859 7.16945C26.5458 10.8189 23.7704 17.5877 19.8922 21.4659C17.7648 23.5933 15.1306 23.9226 12.9447 24.1243C12.7809 24.1395 12.6205 24.1538 12.4632 24.1678C11.5322 24.2508 10.7117 24.324 9.95869 24.4962C9.10357 24.6918 8.43688 24.9962 7.92097 25.5121C7.87515 25.5579 7.82599 25.5983 7.77427 25.6334L5.70709 27.7005C5.31655 28.091 4.68338 28.091 4.29287 27.7004C3.90236 27.3099 3.90238 26.6767 4.29291 26.2862L20.4081 10.172C20.7986 9.78151 21.4318 9.78153 21.8223 10.1721C22.2128 10.5626 22.2128 11.1958 21.8223 11.5863L11.1199 22.288C11.519 22.2432 11.9184 22.2079 12.3082 22.1734C12.4605 22.1599 12.6121 22.1465 12.7609 22.1328C14.9403 21.9317 16.9025 21.6272 18.4779 20.0517C22.005 16.5247 24.6589 10.1558 25.9774 6.49152L25.978 6.48994C26.0019 6.42391 26.0064 6.35244 25.9912 6.28392C25.9759 6.21539 25.9415 6.15261 25.8918 6.10295C25.8422 6.05329 25.7795 6.0188 25.7109 6.0035C25.6424 5.98821 25.5709 5.99275 25.5049 6.0166L25.5036 6.01706C23.699 6.66592 21.1807 7.6604 18.6663 8.94247C16.1401 10.2306 13.6784 11.7788 11.9419 13.5162L11.9347 13.5234C10.9464 14.4923 10.3124 15.7652 10.1346 17.1376C10.0828 17.5861 10.0923 18.0395 10.163 18.4853C10.2494 19.0308 9.87729 19.5431 9.33181 19.6295C8.78633 19.7159 8.27406 19.3438 8.18764 18.7983C8.08813 18.1703 8.07506 17.5315 8.1488 16.9L8.15015 16.8884C8.38397 15.07 9.22254 13.3831 10.5308 12.0989C12.4831 10.1468 15.1567 8.48701 17.7578 7.16072C20.3723 5.82761 22.9748 4.80097 24.8269 4.13502Z" fill="#2D373D"/>
<path d="M11.6161 26.0061C11.0638 26.0061 10.6161 26.4538 10.6161 27.0061C10.6161 27.5584 11.0638 28.0061 11.6161 28.0061H24.0891C24.6414 28.0061 25.0891 27.5584 25.0891 27.0061C25.0891 26.4538 24.6414 26.0061 24.0891 26.0061H11.6161Z" fill="#2D373D"/>
</svg>
