<svg width="32" height="33" viewBox="0 0 32 33" fill="none" xmlns="http://www.w3.org/2000/svg">
<path d="M26.0001 27.8605H25.3001V24.8605C26.2001 24.7605 26.9001 24.0605 26.9001 23.0605V4.86055C26.9001 3.86055 26.1001 3.06055 25.1001 3.06055H9.4001C7.0001 3.06055 5.1001 4.96055 5.1001 7.36055V26.3605C5.1001 28.2605 6.7001 29.8605 8.6001 29.8605H25.9001C26.5001 29.8605 27.0001 29.4605 27.0001 28.8605C27.0001 28.2605 26.6001 27.8605 26.0001 27.8605ZM7.1001 7.36055C7.1001 6.06055 8.1001 5.06055 9.4001 5.06055H25.0001V22.9605H24.8001C24.7001 22.8605 24.5001 22.8605 24.3001 22.8605C24.1001 22.8605 24.0001 22.8605 23.8001 22.9605H8.6001C8.1001 22.9605 7.6001 23.0605 7.1001 23.2605V7.36055ZM7.1001 26.5605C7.1001 26.4605 7.2001 26.3605 7.2001 26.2605C7.2001 25.9605 7.3001 25.5605 7.6001 25.2605C7.8001 25.0605 8.2001 24.8605 8.6001 24.8605H23.3001V27.8605H8.6001C7.8001 27.8605 7.2001 27.2605 7.1001 26.5605Z" fill="#2D373D"/>
</svg>
