<svg width="16" height="17" viewBox="0 0 16 17" fill="none" xmlns="http://www.w3.org/2000/svg">
<path fill-rule="evenodd" clip-rule="evenodd" d="M12.6668 2.92221H10.0735C9.95252 2.92314 9.83612 2.96847 9.7464 3.04959C9.65668 3.13071 9.59988 3.24196 9.58681 3.36221C9.58383 3.37987 9.58383 3.39789 9.58681 3.41555C9.58681 3.41555 9.58681 3.41555 9.58681 3.46221C9.5831 3.50658 9.5831 3.55118 9.58681 3.59555L10.5268 6.18888H9.92014C9.84252 6.18888 9.76596 6.20695 9.69654 6.24167C9.62711 6.27638 9.56672 6.32678 9.52014 6.38888C9.47448 6.45144 9.44356 6.52351 9.42971 6.59971C9.41586 6.67591 9.41942 6.75426 9.44014 6.82888L9.86014 8.25555L8.16681 6.52888H8.60681C8.696 6.52617 8.78278 6.49931 8.85792 6.45118C8.93305 6.40304 8.99373 6.33543 9.03348 6.25555C9.07613 6.18034 9.09856 6.09535 9.09856 6.00888C9.09856 5.92241 9.07613 5.83743 9.03348 5.76221L7.62681 3.19555C7.58455 3.11057 7.51868 3.03958 7.43709 2.9911C7.3555 2.94262 7.26165 2.9187 7.16681 2.92221H3.43348C3.2445 2.91952 3.05691 2.95475 2.88179 3.02583C2.70668 3.09691 2.54759 3.20239 2.41396 3.33603C2.28032 3.46966 2.17484 3.62875 2.10376 3.80386C2.03268 3.97898 1.99745 4.16657 2.00014 4.35555V13.5222C2.00188 13.7084 2.04039 13.8924 2.11344 14.0636C2.1865 14.2349 2.29267 14.39 2.42586 14.5201C2.55905 14.6502 2.71663 14.7527 2.88955 14.8217C3.06247 14.8907 3.24732 14.9249 3.43348 14.9222H12.6001C12.9704 14.9187 13.3244 14.7701 13.5863 14.5083C13.8481 14.2465 13.9967 13.8924 14.0001 13.5222V4.30221C14.0038 3.94315 13.8659 3.59709 13.6164 3.33886C13.3669 3.08062 13.0258 2.93095 12.6668 2.92221ZM8.57348 8.34888L8.66014 8.43555H8.57348V8.34888ZM7.57348 13.9355H3.43348C3.32201 13.9344 3.215 13.8916 3.13348 13.8155C3.05897 13.7357 3.01628 13.6314 3.01348 13.5222V9.43555H7.57348V13.9355ZM3.01348 8.43555V4.35555C3.01464 4.24408 3.05744 4.13707 3.13348 4.05555C3.215 3.97951 3.32201 3.93671 3.43348 3.93555H6.89348L7.76014 5.52888H6.96014C6.86161 5.52821 6.76514 5.55707 6.68315 5.61172C6.60116 5.66638 6.53743 5.74434 6.50014 5.83555C6.4617 5.92697 6.45132 6.02777 6.47031 6.12511C6.4893 6.22245 6.53682 6.31195 6.60681 6.38221L7.57348 7.34888V8.43555H3.01348ZM13.0135 13.5222C13.0144 13.5767 13.0043 13.6309 12.9839 13.6814C12.9634 13.732 12.933 13.7779 12.8944 13.8165C12.8559 13.8551 12.8099 13.8855 12.7594 13.9059C12.7088 13.9264 12.6547 13.9364 12.6001 13.9355H8.60014V9.43555H9.68681L10.5801 10.3289C10.6587 10.4072 10.761 10.4572 10.871 10.471C10.9811 10.4848 11.0926 10.4617 11.188 10.4052C11.2834 10.3487 11.3574 10.2621 11.3982 10.1589C11.439 10.0558 11.4444 9.94206 11.4135 9.83555L11.2935 9.43555H13.0401L13.0135 13.5222ZM13.0135 8.43555H10.9668L10.5935 7.18888H11.2601C11.34 7.1884 11.4187 7.16878 11.4894 7.13166C11.5602 7.09455 11.621 7.04101 11.6668 6.97555C11.7138 6.90967 11.7438 6.83326 11.7543 6.75304C11.7647 6.67282 11.7553 6.59126 11.7268 6.51555L10.7801 3.93555H12.6668C12.715 3.93555 12.7626 3.94503 12.8071 3.96346C12.8516 3.98188 12.892 4.00889 12.9261 4.04294C12.9601 4.07699 12.9871 4.11741 13.0056 4.1619C13.024 4.20638 13.0335 4.25406 13.0335 4.30221L13.0135 8.43555Z" fill="#2D373D"/>
</svg>
