<svg width="64" height="65" viewBox="0 0 64 65" fill="none" xmlns="http://www.w3.org/2000/svg">
<path d="M44.6617 39.8354C44.4758 39.6521 44.1041 39.6521 43.9183 39.6521C43.7324 39.6521 43.3607 39.6521 43.1748 39.8354C42.4314 40.0187 41.6879 40.7521 41.5021 41.4854C41.3162 41.6687 41.3162 42.0354 41.3162 42.2187C41.3162 42.4021 41.3162 42.5854 41.5021 42.9521C41.6879 43.6854 42.4314 44.4187 43.1748 44.6021C43.3607 44.7854 43.7324 44.7854 43.9183 44.7854C45.4051 44.7854 46.5203 43.6854 46.5203 42.2187C46.5203 41.8521 46.5203 41.6687 46.3344 41.4854C46.1486 40.7521 45.4051 40.0187 44.6617 39.8354Z" fill="#2D373D"/>
<path d="M14.1808 39.8354C13.9949 39.6521 13.6232 39.6521 13.4374 39.6521C13.2515 39.6521 12.8798 39.6521 12.6939 39.8354C11.7646 39.8354 11.2071 40.5687 11.0212 41.3021C10.8354 41.4854 10.8354 41.8521 10.8354 42.0354C10.8354 42.2187 10.8354 42.5854 11.0212 42.7687C11.2071 43.6854 11.7646 44.2354 12.6939 44.6021C12.8798 44.7854 13.2515 44.7854 13.4374 44.7854C13.6232 44.7854 13.9949 44.7854 14.1808 44.6021C14.9242 44.4187 15.6677 43.6854 15.8535 42.9521C16.0394 42.7687 16.0394 42.4021 16.0394 42.2187C16.0394 42.0354 16.0394 41.6687 15.8535 41.4854C15.6677 40.7521 14.9242 40.0187 14.1808 39.8354Z" fill="#2D373D"/>
<path d="M47.4496 33.6021L44.4758 27.0021C43.5465 24.4354 40.9445 22.7854 38.3425 22.7854H19.0132C16.2254 22.7854 13.8092 24.4354 13.0658 26.8187L10.092 33.4187C7.11831 33.7854 4.70215 36.1687 4.70215 39.2854V46.8021C4.70215 48.0854 5.25972 49.1854 6.18902 49.9187V51.7521C6.18902 54.5021 8.41932 56.7021 11.2072 56.7021C13.8092 56.7021 16.0395 54.5021 16.2254 51.7521V50.6521H41.1304V51.7521C41.1304 54.5021 43.3607 56.7021 46.1486 56.7021C48.9364 56.7021 51.1667 54.5021 51.1667 51.7521V49.9187C52.096 49.1854 52.6536 48.0854 52.6536 46.8021V39.2854C52.6536 36.3521 50.4233 33.7854 47.4496 33.6021ZM16.4112 28.2854C16.783 27.1854 17.8981 26.4521 19.0132 26.4521H38.3425C39.4576 26.4521 40.5728 27.1854 40.9445 28.2854L43.3607 33.4187H13.9951L16.4112 28.2854ZM12.5082 51.7521C12.5082 52.4854 11.9506 53.0354 11.2072 53.0354C10.4638 53.0354 9.90619 52.4854 9.90619 51.7521V50.6521H12.5082V51.7521ZM47.4496 51.7521C47.4496 52.4854 46.892 53.0354 46.1486 53.0354C45.4051 53.0354 44.8475 52.4854 44.8475 51.7521V50.6521H47.4496V51.7521ZM48.9364 46.8021C48.9364 46.9244 48.8745 46.9854 48.7506 46.9854H8.60518C8.48127 46.9854 8.41932 46.9244 8.41932 46.8021V39.2854C8.41932 38.0021 9.34861 37.0854 10.8355 37.0854H46.7061C48.0071 37.0854 48.9364 38.0021 48.9364 39.2854V46.8021Z" fill="#2D373D"/>
<path d="M58.3037 15.287C57.8762 14.7187 57.17 14.4437 56.4637 14.5537L47.1708 16.2587L45.9441 7.01871C45.8512 6.32204 45.3494 5.73538 44.6803 5.51538C44.0112 5.29537 43.2492 5.47871 42.7659 5.99204L36.2609 12.757L29.7558 5.99204C29.2726 5.47871 28.5106 5.29537 27.8415 5.51538C27.1538 5.73538 26.6706 6.32204 26.5776 7.01871L25.3882 15.9287L22.1914 14.8104C21.2249 14.462 20.1655 14.9754 19.8124 15.9287C19.4778 16.882 19.9797 17.927 20.9461 18.2754L26.2989 20.1637C26.8193 20.347 27.414 20.292 27.8972 19.9987C28.3805 19.7054 28.6964 19.2287 28.7708 18.6787L29.7558 11.327L34.9227 16.6987C35.629 17.432 36.9114 17.432 37.6176 16.6987L42.7845 11.327L43.7696 18.6787C43.8439 19.1737 44.1041 19.632 44.513 19.9254C44.9219 20.2187 45.4423 20.3287 45.9441 20.237L53.3227 18.8804L49.7356 25.3887C49.2524 26.2504 49.5684 27.3504 50.4233 27.8454L54.4007 30.1554C54.6981 30.3204 55.014 30.4121 55.33 30.4121C55.9619 30.4121 56.5938 30.0821 56.9284 29.5137C57.4488 28.6337 57.1514 27.5154 56.2593 27.0021L53.8245 25.5904L58.4152 17.267C58.7498 16.6437 58.7126 15.892 58.2851 15.3054L58.3037 15.287Z" fill="#2D373D"/>
</svg>
