<svg width="24" height="25" viewBox="0 0 24 25" fill="none" xmlns="http://www.w3.org/2000/svg">
<path d="M6.44971 14.0492C5.99971 14.0492 5.69971 14.3492 5.69971 14.7992V16.5992C4.04971 13.6742 4.49971 9.9992 6.97471 7.6742C9.07471 5.6492 12.1497 5.1242 14.7747 6.1742C15.1497 6.3992 15.5997 6.1742 15.7497 5.7992C15.9747 5.4242 15.7497 4.9742 15.3747 4.8242C12.1497 3.4742 8.47471 4.1492 5.92471 6.6242C2.77471 9.5492 2.32471 14.2742 4.64971 17.7992H2.69971C2.24971 17.7992 1.94971 18.0992 1.94971 18.5492C1.94971 18.9992 2.24971 19.2992 2.69971 19.2992H6.44971C6.82471 19.2992 7.19971 18.9242 7.19971 18.5492V14.7992C7.19971 14.3492 6.89971 14.0492 6.44971 14.0492Z" fill="#2D373D"/>
<path d="M21.2997 6.62427H17.5497C17.0997 6.62427 16.7997 6.92427 16.7997 7.37427V11.1243C16.7997 11.5743 17.0997 11.8743 17.5497 11.8743C17.9997 11.8743 18.2997 11.4993 18.2997 11.1243V9.32427C18.9747 10.5243 19.4247 11.7993 19.3497 13.1493C19.2747 15.0993 18.5247 16.8993 17.0997 18.2493C14.9997 20.2743 11.9247 20.8743 9.22468 19.7493C8.84968 19.5243 8.39968 19.7493 8.24968 20.1243C8.02468 20.4993 8.24968 20.9493 8.62468 21.0993C9.67468 21.5493 10.8747 21.7743 11.9997 21.7743C14.2497 21.7743 16.4247 20.9493 18.0747 19.2993C19.7997 17.7243 20.6997 15.4743 20.7747 13.1493C20.7747 11.2743 20.2497 9.62427 19.2747 8.12427H21.2997C21.7497 8.12427 22.0497 7.82427 22.0497 7.37427C22.0497 6.92427 21.7497 6.62427 21.2997 6.62427Z" fill="#2D373D"/>
</svg>
