<svg width="24" height="25" viewBox="0 0 24 25" fill="none" xmlns="http://www.w3.org/2000/svg">
<path d="M9.21134 10.5554C9.2459 10.3885 9.40342 10.2467 9.60892 10.2467C9.81443 10.2467 9.97194 10.3885 10.0065 10.5554C10.0829 10.9241 10.4437 11.1611 10.8124 11.0848C11.1812 11.0084 11.4182 10.6475 11.3418 10.2788C11.1749 9.47323 10.4552 8.88311 9.60892 8.88311C8.76269 8.88311 8.04291 9.47323 7.87605 10.2788C7.79967 10.6475 8.03667 11.0084 8.4054 11.0848C8.77413 11.1611 9.13496 10.9241 9.21134 10.5554Z" fill="#2D373D"/>
<path d="M14.402 10.2467C14.1965 10.2467 14.039 10.3885 14.0045 10.5554C13.9281 10.9241 13.5673 11.1611 13.1985 11.0848C12.8298 11.0084 12.5928 10.6475 12.6692 10.2788C12.836 9.47323 13.5558 8.88311 14.402 8.88311C15.2483 8.88311 15.9681 9.47323 16.1349 10.2788C16.2113 10.6475 15.9743 11.0084 15.6056 11.0848C15.2368 11.1611 14.876 10.9241 14.7996 10.5554C14.7651 10.3885 14.6076 10.2467 14.402 10.2467Z" fill="#2D373D"/>
<path d="M11.3415 13.1548C11.2652 12.7861 10.9043 12.5491 10.5356 12.6254C10.1669 12.7018 9.92986 13.0627 10.0062 13.4314C10.1983 14.3585 11.0277 15.0401 12.0054 15.0401C12.9831 15.0401 13.8126 14.3585 14.0046 13.4314C14.081 13.0627 13.844 12.7018 13.4753 12.6254C13.1065 12.5491 12.7457 12.7861 12.6693 13.1548C12.6096 13.4432 12.3424 13.6765 12.0054 13.6765C11.6684 13.6765 11.4013 13.4432 11.3415 13.1548Z" fill="#2D373D"/>
<path fill-rule="evenodd" clip-rule="evenodd" d="M19.0324 8.03065C20.0097 8.59519 20.7088 9.5061 21.0006 10.5966C21.2928 11.6866 21.1428 12.8252 20.5788 13.8025C20.1765 14.4993 19.5983 15.0543 18.9047 15.4216C18.9338 16.2061 18.7419 16.9838 18.3397 17.6806C17.7756 18.6579 16.8642 19.357 15.7742 19.6493C15.4169 19.7447 15.0497 19.7934 14.6815 19.7934C14.0142 19.7934 13.3733 19.632 12.8006 19.3452V22.1966C12.8006 22.5984 12.4751 22.9238 12.0733 22.9238C11.6715 22.9238 11.346 22.5984 11.346 22.1966V19.3456C10.7728 19.632 10.1324 19.7934 9.46512 19.7934C9.09694 19.7934 8.72966 19.7447 8.37239 19.6493C7.28239 19.357 6.37103 18.6579 5.80694 17.6806C5.40466 16.9838 5.21285 16.2056 5.24194 15.4216C4.5483 15.0538 3.97012 14.4993 3.56785 13.8025C3.00375 12.8252 2.85375 11.6866 3.14557 10.5966C3.43785 9.5061 4.13694 8.59474 5.11421 8.03065C5.28966 7.92974 5.47194 7.8411 5.65875 7.76656C5.47103 6.48474 5.87103 5.1361 6.84603 4.1611C7.64421 3.36337 8.70512 2.92383 9.83375 2.92383C10.6378 2.92383 11.4078 3.14701 12.0728 3.56428C12.7374 3.14701 13.5074 2.92383 14.3115 2.92383C15.4401 2.92383 16.501 3.36337 17.2988 4.1611C18.0974 4.95883 18.5369 6.02019 18.5369 7.14928C18.5369 7.35746 18.5215 7.56428 18.491 7.76792C18.6769 7.84201 18.8578 7.93019 19.0324 8.03065ZM17.6365 14.3661C18.3519 14.1747 18.9492 13.7161 19.3188 13.0752C19.6892 12.4343 19.7874 11.6875 19.5956 10.9729C19.4042 10.2579 18.946 9.66065 18.3051 9.29065C17.8792 9.04474 17.4069 8.92019 16.9292 8.92019C16.751 8.92019 16.6419 8.65746 16.7378 8.48474C16.9624 8.08065 17.0824 7.62474 17.0824 7.14928C17.0824 6.40883 16.7942 5.71337 16.2706 5.18974C15.7474 4.66701 15.0519 4.37837 14.3115 4.37837C13.5719 4.37837 12.876 4.66656 12.3524 5.18974C12.3524 5.18974 12.2578 5.35974 12.0733 5.35565C11.8888 5.35201 11.7928 5.18974 11.7928 5.18974C11.2692 4.66656 10.5733 4.37837 9.83375 4.37837C9.0933 4.37837 8.39785 4.66701 7.87466 5.18974C6.98739 6.07746 6.83057 7.42065 7.40239 8.47156C7.4983 8.64792 7.39557 8.92019 7.21739 8.92019C6.73921 8.92019 6.26739 9.04474 5.84194 9.29065C5.20057 9.66065 4.74239 10.2579 4.55103 10.9729C4.35921 11.6875 4.45739 12.4343 4.82785 13.0752C5.19739 13.7161 5.79466 14.1747 6.51012 14.3661C6.51012 14.3661 6.73557 14.3956 6.78739 14.5738C6.81966 14.6838 6.79012 14.8506 6.79012 14.8506C6.5983 15.5656 6.69648 16.3125 7.06648 16.9534C7.43694 17.5943 8.03421 18.0525 8.74921 18.2443C8.9883 18.3084 9.2283 18.3388 9.46512 18.3388C10.4942 18.3388 11.4524 17.7584 11.9269 16.8366C11.9828 16.7284 12.1592 16.7179 12.2119 16.8206C12.6838 17.7516 13.646 18.3388 14.6815 18.3388C14.9183 18.3388 15.1583 18.3084 15.3974 18.2443C16.1124 18.0525 16.7097 17.5943 17.0801 16.9534C17.4501 16.3125 17.5483 15.5656 17.3565 14.8506C17.3565 14.8506 17.3024 14.697 17.3569 14.5552C17.4115 14.4129 17.6365 14.3661 17.6365 14.3661Z" fill="#2D373D"/>
</svg>
