<svg width="24" height="25" viewBox="0 0 24 25" fill="none" xmlns="http://www.w3.org/2000/svg">
<path d="M20.6248 13.8117C20.5498 13.5117 20.3248 13.2867 20.0998 13.0617C19.5748 12.4617 18.8248 12.1617 17.9998 12.1617C17.1748 12.1617 16.4998 12.4617 15.8998 13.0617L15.8248 13.1367L15.7498 13.0617C15.5248 12.8367 15.2998 12.6867 14.9998 12.5367C13.5748 11.7867 11.7748 12.3867 11.0248 13.8867C10.4248 15.0867 10.6498 16.4367 11.5498 17.3367L15.2998 21.2367C15.4498 21.3867 15.5998 21.4617 15.8248 21.4617C16.0498 21.4617 16.2748 21.3867 16.3498 21.1617L20.0998 17.2617C20.9998 16.3617 21.2248 14.9367 20.6248 13.8117ZM19.0498 16.2867L15.8248 19.6617L12.5998 16.2867C12.1498 15.8367 11.9998 15.1617 12.2998 14.5617C12.5998 14.0367 13.1248 13.7367 13.6498 13.7367C13.8748 13.7367 14.0998 13.8117 14.3248 13.8867C14.4748 13.9617 14.5498 14.0367 14.6998 14.1867L15.2998 14.7867C15.5998 15.0867 16.0498 15.0867 16.3498 14.7867L16.9498 14.1867C17.2498 13.8867 17.6248 13.7367 17.9998 13.7367C18.3748 13.7367 18.7498 13.8867 19.0498 14.1867C19.1998 14.2617 19.2748 14.4117 19.3498 14.5617C19.6498 15.1617 19.4998 15.8367 19.0498 16.2867Z" fill="#2D373D"/>
<path d="M9.2248 17.7867H4.7998C4.5748 17.7867 4.4248 17.6367 4.4248 17.4117V5.26172C4.4248 5.03672 4.5748 4.88672 4.7998 4.88672H12.5998C12.7498 4.88672 12.8248 4.88672 12.8998 5.03672L14.9998 7.13672C15.0748 7.21172 15.0748 7.28672 15.0748 7.36172V10.7367C15.0748 11.1867 15.3748 11.4867 15.8248 11.4867C16.2748 11.4867 16.5748 11.1867 16.5748 10.7367V7.36172C16.5748 6.83672 16.4248 6.38672 16.0498 6.01172L13.9498 3.91172C13.6498 3.61172 13.1998 3.38672 12.6748 3.38672H4.7998C3.7498 3.38672 2.9248 4.21172 2.9248 5.26172V17.4117C2.9248 18.4617 3.7498 19.2867 4.7998 19.2867H9.2248C9.67481 19.2867 9.9748 18.9867 9.9748 18.5367C9.9748 18.0867 9.67481 17.7867 9.2248 17.7867Z" fill="#2D373D"/>
</svg>
