<svg width="32" height="33" viewBox="0 0 32 33" fill="none" xmlns="http://www.w3.org/2000/svg">
<path fill-rule="evenodd" clip-rule="evenodd" d="M10.5004 12.6282C10.5004 9.70124 12.8731 7.32849 15.8001 7.32849C18.727 7.32849 21.0997 9.70124 21.0997 12.6282C21.0997 15.2049 19.2609 17.3521 16.8239 17.8291C18.0999 17.9755 19.3338 18.3943 20.4403 19.062C21.8406 19.9069 22.9837 21.1181 23.7462 22.5649C24.0037 23.0535 23.8164 23.6584 23.3278 23.9158C22.8392 24.1733 22.2344 23.986 21.9769 23.4974C21.3842 22.3727 20.4956 21.4312 19.4071 20.7744C18.3185 20.1176 17.0713 19.7705 15.8 19.7705C14.5287 19.7705 13.2815 20.1176 12.193 20.7744C11.1044 21.4312 10.2159 22.3727 9.62315 23.4974C9.36566 23.986 8.76084 24.1733 8.27226 23.9158C7.78367 23.6584 7.59633 23.0535 7.85382 22.5649C8.61632 21.1181 9.7594 19.9069 11.1597 19.062C12.2662 18.3943 13.5002 17.9754 14.7762 17.829C12.3392 17.352 10.5004 15.2049 10.5004 12.6282ZM15.8001 9.32849C13.9777 9.32849 12.5004 10.8058 12.5004 12.6282C12.5004 14.4506 13.9777 15.9279 15.8001 15.9279C17.6224 15.9279 19.0997 14.4506 19.0997 12.6282C19.0997 10.8058 17.6224 9.32849 15.8001 9.32849Z" fill="#2D373D"/>
<path fill-rule="evenodd" clip-rule="evenodd" d="M5 5.814C5 4.41687 6.08098 3.18066 7.53846 3.18066H24.4615C25.919 3.18066 27 4.41687 27 5.814V27.0473C27 28.4445 25.919 29.6807 24.4615 29.6807H7.53846C6.08098 29.6807 5 28.4445 5 27.0473V5.814ZM7.53846 5.18066C7.29661 5.18066 7 5.407 7 5.814V27.0473C7 27.4543 7.29661 27.6807 7.53846 27.6807H24.4615C24.7034 27.6807 25 27.4543 25 27.0473V5.814C25 5.407 24.7034 5.18066 24.4615 5.18066H7.53846Z" fill="#2D373D"/>
</svg>
