<svg width="16" height="17" viewBox="0 0 16 17" fill="none" xmlns="http://www.w3.org/2000/svg">
<path d="M7.99985 4.61072C7.44985 4.61072 6.89985 4.86072 6.49985 5.26072C6.04985 5.66072 5.84985 6.21072 5.84985 6.76072C5.84985 7.06072 6.04985 7.26072 6.34985 7.26072C6.64985 7.26072 6.84985 7.06072 6.84985 6.76072C6.84985 6.46072 6.99985 6.16072 7.19985 5.96072C7.39985 5.71072 7.69985 5.61072 7.99985 5.61072C8.29985 5.61072 8.59985 5.76072 8.79985 5.96072C9.04985 6.16072 9.14985 6.46072 9.14985 6.76072C9.14985 7.26072 8.84985 7.71072 8.39985 7.86072C7.84985 8.06072 7.49985 8.56072 7.49985 9.11072V9.66072C7.49985 9.96072 7.69985 10.1607 7.99985 10.1607C8.24985 10.1607 8.49985 9.96072 8.49985 9.66072V9.11072C8.49985 8.96072 8.54985 8.86072 8.69985 8.81072C9.54985 8.46072 10.1499 7.66072 10.1499 6.76072C10.1499 6.21072 9.89985 5.66072 9.49985 5.26072C9.09985 4.81072 8.54985 4.61072 7.99985 4.61072Z" fill="#2D373D"/>
<path d="M7.9998 10.8607C7.5998 10.8607 7.2998 11.1607 7.2998 11.5607C7.2998 11.9607 7.5998 12.2607 7.9998 12.2607C8.3998 12.2607 8.6998 11.9607 8.6998 11.5607C8.6998 11.1607 8.3998 10.8607 7.9998 10.8607Z" fill="#2D373D"/>
<path d="M7.9998 1.76074C4.2998 1.76074 1.2998 4.76074 1.2998 8.46074C1.2998 12.1107 4.2998 15.1107 7.9998 15.1107C11.6498 15.1107 14.6498 12.1107 14.6998 8.46074C14.6998 4.76074 11.6998 1.76074 7.9998 1.76074ZM7.9998 14.1607C4.8498 14.1607 2.2998 11.6107 2.2998 8.46074C2.2998 5.31074 4.8498 2.76074 7.9998 2.76074C11.0998 2.76074 13.6998 5.31074 13.6998 8.46074C13.6998 11.6107 11.1498 14.1607 7.9998 14.1607Z" fill="#2D373D"/>
</svg>
