<svg width="16" height="17" viewBox="0 0 16 17" fill="none" xmlns="http://www.w3.org/2000/svg">
<path fill-rule="evenodd" clip-rule="evenodd" d="M12.7621 5.7632C12.7621 6.90283 11.8382 7.82669 10.6986 7.82669C9.55895 7.82669 8.63509 6.90283 8.63509 5.7632C8.63509 4.62356 9.55895 3.69971 10.6986 3.69971C11.8382 3.69971 12.7621 4.62356 12.7621 5.7632ZM11.7621 5.7632C11.7621 6.35055 11.2859 6.82669 10.6986 6.82669C10.1112 6.82669 9.63509 6.35055 9.63509 5.7632C9.63509 5.17585 10.1112 4.69971 10.6986 4.69971C11.2859 4.69971 11.7621 5.17585 11.7621 5.7632Z" fill="#2D373D"/>
<path d="M6.48816 10.3342C5.35459 10.1797 4.23679 10.5078 3.56479 10.8585C3.31998 10.9862 3.01795 10.8913 2.8902 10.6465C2.76245 10.4017 2.85735 10.0997 3.10216 9.9719C3.91165 9.54949 5.23829 9.15455 6.62324 9.34336C7.52728 9.4666 8.44046 9.8375 9.23379 10.582C9.60689 10.3307 10.1365 10.0775 10.7295 9.99194C11.4697 9.8851 12.3171 10.0421 13.0275 10.7819C13.2188 10.9811 13.2123 11.2976 13.0132 11.4889C12.814 11.6802 12.4975 11.6737 12.3062 11.4746C11.8572 11.0069 11.352 10.9125 10.8723 10.9817C10.5068 11.0345 10.1624 11.1838 9.90138 11.3418C10.0955 11.608 10.2778 11.9048 10.4457 12.2348C10.571 12.4809 10.4731 12.7819 10.227 12.9072C9.98087 13.0324 9.67982 12.9345 9.55455 12.6884C8.74196 11.092 7.58926 10.4843 6.48816 10.3342Z" fill="#2D373D"/>
<path fill-rule="evenodd" clip-rule="evenodd" d="M1.3335 2.7473C1.3335 2.22132 1.75989 1.79492 2.28588 1.79492H13.7144C14.2404 1.79492 14.6668 2.22132 14.6668 2.7473V14.1759C14.6668 14.7019 14.2404 15.1283 13.7144 15.1283H2.28588C1.75989 15.1283 1.3335 14.7019 1.3335 14.1759V2.7473ZM2.3335 14.1283V2.79492H13.6668V14.1283H2.3335Z" fill="#2D373D"/>
</svg>
