<svg width="24" height="25" viewBox="0 0 24 25" fill="none" xmlns="http://www.w3.org/2000/svg">
<path fill-rule="evenodd" clip-rule="evenodd" d="M8.14626 5.53963C8.87824 4.80765 9.79699 4.30538 10.7905 4.07924C10.8134 4.07304 10.8366 4.06791 10.8601 4.06388C11.2319 3.98434 11.6139 3.94336 12 3.94336C12.386 3.94336 12.7679 3.98432 13.1397 4.06383C13.1634 4.06788 13.1868 4.07306 13.2099 4.07933C14.2032 4.30552 15.1218 4.80774 15.8537 5.53963C16.4217 6.10756 16.8513 6.78794 17.121 7.52843C17.1346 7.55993 17.1462 7.59255 17.1555 7.62612C17.3487 8.1897 17.45 8.78631 17.45 9.39336C17.45 10.0004 17.3487 10.597 17.1555 11.1606C17.1462 11.1942 17.1347 11.2268 17.121 11.2583C16.8513 11.9988 16.4217 12.6791 15.8537 13.2471C15.0237 14.0771 13.9536 14.6117 12.8066 14.7834C12.78 14.7886 12.753 14.7925 12.7258 14.7948C12.4865 14.827 12.2441 14.8434 12 14.8434C11.7537 14.8434 11.5092 14.8267 11.2679 14.794C11.2471 14.7919 11.2266 14.789 11.2062 14.7853C10.0544 14.6157 8.97934 14.0802 8.14626 13.2471C7.57818 12.679 7.14846 11.9984 6.87879 11.2577C6.86531 11.2266 6.85388 11.1943 6.84466 11.1612C6.65134 10.5974 6.54999 10.0006 6.54999 9.39336C6.54999 8.78611 6.65133 8.18931 6.84466 7.62557C6.85387 7.59238 6.86531 7.56012 6.87881 7.52895C7.14847 6.78826 7.57819 6.1077 8.14626 5.53963ZM13.8006 12.9091C14.1638 12.7231 14.4992 12.4803 14.7931 12.1864C14.9418 12.0377 15.0775 11.8783 15.1993 11.71H14.0651C13.9925 12.1128 13.9043 12.5128 13.8006 12.9091ZM12.5383 11.71C12.4282 12.2612 12.2857 12.8061 12.1112 13.3418C12.0742 13.3428 12.0371 13.3434 12 13.3434C11.9639 13.3434 11.9279 13.3429 11.892 13.3419C11.7175 12.805 11.5751 12.2601 11.465 11.71H12.5383ZM14.2622 10.21H15.8647C15.921 9.9435 15.95 9.66993 15.95 9.39336C15.95 9.11679 15.921 8.84321 15.8647 8.57669H14.3142C14.316 8.67472 14.3168 8.77279 14.3167 8.87089C14.3174 9.31846 14.2992 9.76523 14.2622 10.21ZM12.814 8.57669C12.8159 8.67456 12.8168 8.77247 12.8167 8.87042V8.87239C12.8174 9.31963 12.7973 9.76599 12.7565 10.21H11.2456C11.1951 9.66715 11.1753 9.12183 11.1863 8.57669H12.814ZM14.2167 7.07669H15.1993C15.0775 6.90844 14.9418 6.74904 14.7931 6.60029C14.5711 6.37837 14.3255 6.18558 14.0622 6.02439C14.1254 6.37336 14.1769 6.72433 14.2167 7.07669ZM12.4111 5.4648C12.5401 5.9964 12.6386 6.53458 12.7062 7.07669H11.2947C11.3622 6.53592 11.4603 5.99773 11.5893 5.46475C11.7251 5.45056 11.8622 5.44336 12 5.44336C12.1379 5.44336 12.2751 5.45058 12.4111 5.4648ZM9.20692 6.60029C9.42909 6.37811 9.67501 6.18513 9.93871 6.02383C9.87542 6.3735 9.82391 6.72465 9.78417 7.07669H8.80066C8.9225 6.90844 9.05816 6.74904 9.20692 6.60029ZM8.13532 8.57669H9.68602C9.67606 9.12173 9.694 9.66689 9.73977 10.21H8.13532C8.07899 9.9435 8.04999 9.66993 8.04999 9.39336C8.04999 9.11679 8.07899 8.84321 8.13532 8.57669ZM8.80066 11.71H9.93809C10.0109 12.113 10.0993 12.5136 10.2033 12.9111C9.83865 12.7249 9.50186 12.4814 9.20692 12.1864C9.05816 12.0377 8.92249 11.8783 8.80066 11.71Z" fill="#2D373D"/>
<path fill-rule="evenodd" clip-rule="evenodd" d="M5.86464 14.027C6.18919 13.8926 6.53703 13.8234 6.88832 13.8234C7.2396 13.8234 7.58745 13.8926 7.912 14.027C8.23654 14.1614 8.53143 14.3585 8.77983 14.6069C9.02822 14.8553 9.22526 15.1501 9.35969 15.4747C9.49413 15.7992 9.56332 16.1471 9.56332 16.4984C9.56332 16.8497 9.49413 17.1975 9.35969 17.522C9.22526 17.8466 9.02823 18.1415 8.77983 18.3899C8.71037 18.4593 8.63727 18.5248 8.56091 18.586C8.79203 18.6913 9.01383 18.8188 9.22303 18.9674C9.90502 19.4519 10.4194 20.1365 10.6948 20.9264C10.8312 21.3175 10.6247 21.7451 10.2336 21.8815C9.84251 22.0179 9.41488 21.8114 9.27849 21.4203C9.10554 20.9244 8.78258 20.4945 8.35437 20.1903C7.92617 19.8862 7.41394 19.7227 6.8887 19.7227C6.36346 19.7227 5.85123 19.8862 5.42303 20.1903C4.99482 20.4945 4.67186 20.9244 4.49891 21.4203C4.36252 21.8114 3.93489 22.0179 3.54377 21.8815C3.15266 21.7451 2.94617 21.3175 3.08256 20.9264C3.35801 20.1365 3.87238 19.4519 4.55437 18.9674C4.76343 18.8189 4.98506 18.6915 5.21601 18.5862C5.13954 18.5249 5.06635 18.4594 4.99681 18.3899C4.74841 18.1415 4.55137 17.8466 4.41694 17.522C4.28251 17.1975 4.21332 16.8497 4.21332 16.4984C4.21332 16.1471 4.28251 15.7992 4.41694 15.4747C4.55137 15.1501 4.74841 14.8553 4.99681 14.6069C5.2452 14.3585 5.54009 14.1614 5.86464 14.027ZM6.88832 15.3234C6.73401 15.3234 6.58122 15.3538 6.43866 15.4128C6.29611 15.4719 6.16658 15.5584 6.05747 15.6675C5.94836 15.7766 5.86181 15.9062 5.80276 16.0487C5.74371 16.1913 5.71332 16.3441 5.71332 16.4984C5.71332 16.6527 5.74371 16.8055 5.80276 16.948C5.86181 17.0906 5.94836 17.2201 6.05747 17.3292C6.16658 17.4383 6.29611 17.5249 6.43866 17.5839C6.58122 17.643 6.73401 17.6734 6.88832 17.6734C7.04262 17.6734 7.19541 17.643 7.33797 17.5839C7.48053 17.5249 7.61006 17.4383 7.71917 17.3292C7.82828 17.2201 7.91483 17.0906 7.97388 16.948C8.03293 16.8055 8.06332 16.6527 8.06332 16.4984C8.06332 16.3441 8.03293 16.1913 7.97388 16.0487C7.91483 15.9062 7.82828 15.7766 7.71917 15.6675C7.61006 15.5584 7.48053 15.4719 7.33797 15.4128C7.19541 15.3538 7.04262 15.3234 6.88832 15.3234Z" fill="#2D373D"/>
<path fill-rule="evenodd" clip-rule="evenodd" d="M15.3009 14.6069C15.8025 14.1052 16.4829 13.8234 17.1924 13.8234C17.9018 13.8234 18.5822 14.1052 19.0839 14.6069C19.5856 15.1085 19.8674 15.7889 19.8674 16.4984C19.8674 17.2078 19.5856 17.8882 19.0839 18.3899C19.0142 18.4596 18.941 18.5251 18.8647 18.5862C19.0957 18.6915 19.3173 18.8189 19.5264 18.9674C20.2084 19.4519 20.7227 20.1365 20.9982 20.9264C21.1346 21.3175 20.9281 21.7451 20.537 21.8815C20.1459 22.0179 19.7182 21.8114 19.5818 21.4203C19.4089 20.9244 19.0859 20.4945 18.6577 20.1903C18.2295 19.8862 17.7173 19.7227 17.192 19.7227C16.6668 19.7227 16.1546 19.8862 15.7264 20.1903C15.2982 20.4945 14.9752 20.9244 14.8023 21.4203C14.6659 21.8114 14.2382 22.0179 13.8471 21.8815C13.456 21.7451 13.2495 21.3175 13.3859 20.9264C13.6614 20.1365 14.1757 19.4519 14.8577 18.9674C15.0669 18.8188 15.2887 18.6913 15.5198 18.586C15.4437 18.525 15.3705 18.4595 15.3009 18.3899C14.7992 17.8882 14.5174 17.2078 14.5174 16.4984C14.5174 15.7889 14.7992 15.1085 15.3009 14.6069ZM17.1924 15.3234C16.8808 15.3234 16.5819 15.4472 16.3615 15.6675C16.1412 15.8879 16.0174 16.1867 16.0174 16.4984C16.0174 16.81 16.1412 17.1089 16.3615 17.3292C16.5819 17.5496 16.8808 17.6734 17.1924 17.6734C17.504 17.6734 17.8029 17.5496 18.0232 17.3292C18.2436 17.1089 18.3674 16.81 18.3674 16.4984C18.3674 16.1867 18.2436 15.8879 18.0232 15.6675C17.8029 15.4472 17.504 15.3234 17.1924 15.3234Z" fill="#2D373D"/>
</svg>
