<svg width="16" height="17" viewBox="0 0 16 17" fill="none" xmlns="http://www.w3.org/2000/svg">
<path d="M11.1657 10.6517C11.1192 10.6059 11.0263 10.6059 10.9798 10.6059C10.9333 10.6059 10.8404 10.6059 10.7939 10.6517C10.6081 10.6976 10.4222 10.8809 10.3758 11.0642C10.3293 11.1101 10.3293 11.2017 10.3293 11.2476C10.3293 11.2934 10.3293 11.3392 10.3758 11.4309C10.4222 11.6142 10.6081 11.7976 10.7939 11.8434C10.8404 11.8892 10.9333 11.8892 10.9798 11.8892C11.3515 11.8892 11.6303 11.6142 11.6303 11.2476C11.6303 11.1559 11.6303 11.1101 11.5838 11.0642C11.5374 10.8809 11.3515 10.6976 11.1657 10.6517Z" fill="#2D373D"/>
<path d="M3.54545 10.6517C3.49898 10.6059 3.40605 10.6059 3.35959 10.6059C3.31312 10.6059 3.22019 10.6059 3.17373 10.6517C2.94141 10.6517 2.80201 10.8351 2.75555 11.0184C2.70908 11.0642 2.70908 11.1559 2.70908 11.2017C2.70908 11.2476 2.70908 11.3392 2.75555 11.3851C2.80201 11.6142 2.94141 11.7517 3.17373 11.8434C3.22019 11.8892 3.31312 11.8892 3.35959 11.8892C3.40605 11.8892 3.49898 11.8892 3.54545 11.8434C3.7313 11.7976 3.91716 11.6142 3.96363 11.4309C4.01009 11.3851 4.01009 11.2934 4.01009 11.2476C4.01009 11.2017 4.01009 11.1101 3.96363 11.0642C3.91716 10.8809 3.7313 10.6976 3.54545 10.6517Z" fill="#2D373D"/>
<path d="M11.8626 9.09339L11.1192 7.44339C10.8869 6.80172 10.2364 6.38922 9.58587 6.38922H4.75354C4.05659 6.38922 3.45255 6.80172 3.26669 7.39756L2.52326 9.04756C1.77982 9.13922 1.17578 9.73506 1.17578 10.5142V12.3934C1.17578 12.7142 1.31518 12.9892 1.5475 13.1726V13.6309C1.5475 14.3184 2.10507 14.8684 2.80204 14.8684C3.45255 14.8684 4.01012 14.3184 4.05659 13.6309V13.3559H10.2828V13.6309C10.2828 14.3184 10.8404 14.8684 11.5374 14.8684C12.2344 14.8684 12.7919 14.3184 12.7919 13.6309V13.1726C13.0243 12.9892 13.1636 12.7142 13.1636 12.3934V10.5142C13.1636 9.78089 12.6061 9.13922 11.8626 9.09339ZM4.10305 7.76422C4.19598 7.48922 4.47477 7.30589 4.75354 7.30589H9.58587C9.86466 7.30589 10.1434 7.48922 10.2364 7.76422L10.8404 9.04756H3.49901L4.10305 7.76422ZM3.1273 13.6309C3.1273 13.8142 2.9879 13.9517 2.80204 13.9517C2.61619 13.9517 2.47679 13.8142 2.47679 13.6309V13.3559H3.1273V13.6309ZM11.8626 13.6309C11.8626 13.8142 11.7232 13.9517 11.5374 13.9517C11.3515 13.9517 11.2121 13.8142 11.2121 13.6309V13.3559H11.8626V13.6309ZM12.2344 12.3934C12.2344 12.424 12.2189 12.4392 12.1879 12.4392H2.15154C2.12056 12.4392 2.10507 12.424 2.10507 12.3934V10.5142C2.10507 10.1934 2.3374 9.96422 2.70911 9.96422H11.6768C12.002 9.96422 12.2344 10.1934 12.2344 10.5142V12.3934Z" fill="#2D373D"/>
<path d="M14.5762 4.51463C14.4693 4.37255 14.2927 4.3038 14.1162 4.3313L11.7929 4.75755L11.4863 2.44755C11.463 2.27338 11.3376 2.12671 11.1703 2.07171C11.003 2.01671 10.8125 2.06255 10.6917 2.19088L9.06546 3.88213L7.4392 2.19088C7.31839 2.06255 7.12789 2.01671 6.96061 2.07171C6.7887 2.12671 6.66789 2.27338 6.64466 2.44755L6.34728 4.67505L5.54809 4.39546C5.30647 4.30838 5.04163 4.43671 4.95334 4.67505C4.86971 4.91338 4.99516 5.17463 5.23678 5.26172L6.57496 5.7338C6.70506 5.77963 6.85375 5.76588 6.97455 5.69255C7.09536 5.61921 7.17435 5.50005 7.19294 5.36255L7.4392 3.52463L8.73092 4.86755C8.90748 5.05088 9.22809 5.05088 9.40466 4.86755L10.6964 3.52463L10.9426 5.36255C10.9612 5.4863 11.0263 5.60088 11.1285 5.67421C11.2307 5.74755 11.3608 5.77505 11.4863 5.75213L13.3309 5.41296L12.4342 7.04006C12.3133 7.25547 12.3923 7.53047 12.6061 7.65422L13.6004 8.23172C13.6748 8.27297 13.7537 8.29589 13.8327 8.29589C13.9907 8.29589 14.1487 8.21339 14.2323 8.07131C14.3624 7.85131 14.2881 7.57172 14.0651 7.44339L13.4564 7.09047L14.6041 5.00963C14.6877 4.8538 14.6784 4.66588 14.5715 4.51921L14.5762 4.51463Z" fill="#2D373D"/>
</svg>
