<svg width="16" height="17" viewBox="0 0 16 17" fill="none" xmlns="http://www.w3.org/2000/svg">
<path d="M2.5 8.59594C2.61278 8.59528 2.72203 8.55652 2.81 8.48594L6.055 5.91094C6.09395 5.88173 6.14132 5.86594 6.19 5.86594C6.23868 5.86594 6.28605 5.88173 6.325 5.91094L7.935 7.05594C8.17187 7.22774 8.46242 7.30908 8.75406 7.28524C9.04571 7.26139 9.31918 7.13394 9.525 6.92594L12.265 4.18594V5.91594C12.265 6.04855 12.3177 6.17572 12.4114 6.26949C12.5052 6.36326 12.6324 6.41594 12.765 6.41594C12.8976 6.41594 13.0248 6.36326 13.1186 6.26949C13.2123 6.17572 13.265 6.04855 13.265 5.91594V2.96094C13.2658 2.89593 13.2539 2.83139 13.23 2.77094C13.1793 2.64876 13.0822 2.55167 12.96 2.50094C12.898 2.47575 12.8319 2.46219 12.765 2.46094H9.835C9.70239 2.46094 9.57521 2.51362 9.48145 2.60738C9.38768 2.70115 9.335 2.82833 9.335 2.96094C9.335 3.09355 9.38768 3.22072 9.48145 3.31449C9.57521 3.40826 9.70239 3.46094 9.835 3.46094H11.56L8.82 6.20094C8.78142 6.24062 8.73007 6.26541 8.675 6.27094C8.61995 6.27209 8.56587 6.25639 8.52 6.22594L6.9 5.07094C6.67596 4.92031 6.40975 4.845 6.14 4.85594C5.87623 4.86987 5.62388 4.96801 5.42 5.13594L2.19 7.70094C2.13827 7.74184 2.09513 7.79257 2.06309 7.85021C2.03104 7.90785 2.01072 7.97126 2.00328 8.03679C1.99585 8.10232 2.00145 8.16867 2.01976 8.23202C2.03808 8.29538 2.06875 8.35449 2.11 8.40594C2.15656 8.46486 2.2158 8.51254 2.28332 8.54544C2.35084 8.57833 2.4249 8.59559 2.5 8.59594Z" fill="#2D373D"/>
<path d="M14 9.68094V8.46094C14 8.23153 13.9089 8.01151 13.7466 7.84929C13.5844 7.68707 13.3644 7.59594 13.135 7.59594H9.465C9.23559 7.59594 9.01557 7.68707 8.85335 7.84929C8.69113 8.01151 8.6 8.23153 8.6 8.46094V9.56094C8.39593 9.59299 8.20992 9.69661 8.07525 9.85326C7.94059 10.0099 7.86606 10.2094 7.865 10.4159V11.6409C7.8626 11.6809 7.8626 11.721 7.865 11.7609C7.73078 11.626 7.55426 11.5412 7.365 11.5209V10.4159C7.36369 10.1869 7.27213 9.96768 7.1102 9.80574C6.94826 9.64381 6.72901 9.55225 6.5 9.55094H2.865C2.63599 9.55225 2.41674 9.64381 2.2548 9.80574C2.09287 9.96768 2.00131 10.1869 2 10.4159V11.6409C2.00123 11.8469 2.07594 12.0457 2.21068 12.2015C2.34542 12.3574 2.53134 12.46 2.735 12.4909V13.5959C2.735 13.8253 2.82613 14.0454 2.98835 14.2076C3.15057 14.3698 3.37059 14.4609 3.6 14.4609H7.265C7.49487 14.4609 7.71541 14.37 7.87842 14.2079C8.04144 14.0458 8.13368 13.8258 8.135 13.5959V12.3709C8.1374 12.331 8.1374 12.2909 8.135 12.2509C8.27205 12.3819 8.44713 12.4659 8.635 12.4909V13.5959C8.63605 13.819 8.72277 14.0332 8.87724 14.1942C9.03171 14.3552 9.24213 14.4507 9.465 14.4609H13.135C13.364 14.4596 13.5833 14.3681 13.7452 14.2061C13.9071 14.0442 13.9987 13.8249 14 13.5959V12.3709C13.9988 12.1649 13.9241 11.9662 13.7893 11.8103C13.6546 11.6545 13.4687 11.5519 13.265 11.5209V10.5209C13.467 10.4903 13.6516 10.3891 13.7861 10.2353C13.9206 10.0816 13.9964 9.8852 14 9.68094ZM8.865 11.5059V10.5509H12.265V11.5059H8.865ZM9.6 8.59594H13V9.55094H9.6V8.59594ZM3 10.5509H6.4V11.5059H3V10.5509ZM7.135 13.4609H3.735V12.5059H7.135V13.4609ZM13 13.4609H9.6V12.5059H13V13.4609Z" fill="#2D373D"/>
</svg>
