<svg width="32" height="33" viewBox="0 0 32 33" fill="none" xmlns="http://www.w3.org/2000/svg">
<path d="M25.2999 18.3625C26.9999 16.0625 27.8999 13.4625 28.0999 10.6625C28.0999 7.56249 26.2999 4.76249 23.3999 3.56249C20.7999 2.56249 17.9999 3.06249 15.9999 4.76249C13.9999 3.06249 11.0999 2.56249 8.5999 3.56249C5.6999 4.76249 3.8999 7.56249 3.8999 10.7625C4.0999 13.4625 4.9999 16.1625 6.6999 18.3625C6.8999 18.4625 6.8999 18.7625 6.7999 18.9625C6.3999 19.8625 4.8999 26.0625 6.3999 28.7625C6.9999 29.5625 7.6999 29.9625 8.5999 29.9625C10.5999 29.9625 11.0999 28.0625 11.3999 26.7625C11.8999 24.8625 12.2999 23.2625 15.3999 23.2625H16.2999C19.3999 23.2625 19.7999 24.7625 20.2999 26.6625C20.6999 28.0625 21.0999 29.8625 23.1999 29.8625C24.0999 29.8625 24.7999 29.4625 25.3999 28.6625C27.0999 26.0625 25.5999 19.8625 25.1999 18.9625C25.0999 18.7625 25.1999 18.5625 25.2999 18.3625ZM23.3999 19.8625C23.7999 20.8625 24.6999 26.1625 23.6999 27.6625C23.4999 27.9625 23.3999 27.9625 23.1999 27.9625C22.7999 27.9625 22.6999 27.7625 22.2999 26.2625C21.7999 24.3625 21.0999 21.2625 16.3999 21.2625H15.4999C10.8999 21.2625 10.0999 24.3625 9.6999 26.1625C9.2999 27.7625 9.1999 27.8625 8.7999 27.8625C8.5999 27.8625 8.4999 27.7625 8.2999 27.5625C7.1999 26.0625 8.1999 20.7625 8.5999 19.7625C8.9999 18.9625 8.8999 17.8625 8.2999 17.1625C6.8999 15.2625 6.0999 12.9625 5.8999 10.6625C5.8999 8.36249 7.2999 6.36249 9.3999 5.46249C11.3999 4.66249 13.7999 5.16249 15.2999 6.96249C15.6999 7.36249 16.3999 7.36249 16.7999 6.96249C18.1999 5.36249 20.5999 4.76249 22.5999 5.56249C24.6999 6.46249 26.0999 8.56249 26.0999 10.7625C25.8999 13.0625 25.0999 15.3625 23.6999 17.2625C23.1999 17.9625 22.9999 18.9625 23.3999 19.8625Z" fill="#2D373D"/>
</svg>
