<svg width="32" height="32" viewBox="0 0 32 32" fill="none" xmlns="http://www.w3.org/2000/svg">
<path d="M23.9668 29.4509H7.9668C7.26012 29.4488 6.58299 29.1671 6.08328 28.6674C5.58358 28.1677 5.30191 27.4906 5.2998 26.7839V5.31788C5.30191 4.6112 5.58358 3.93406 6.08328 3.43436C6.58299 2.93465 7.26012 2.65299 7.9668 2.65088H24.0998C24.8065 2.65299 25.4836 2.93465 25.9833 3.43436C26.483 3.93406 26.7647 4.6112 26.7668 5.31788V26.7839C26.7129 27.4961 26.3967 28.163 25.8795 28.6557C25.3623 29.1483 24.6808 29.4316 23.9668 29.4509ZM7.9668 4.65088C7.87781 4.64548 7.78867 4.65903 7.7053 4.69064C7.62193 4.72225 7.54622 4.7712 7.48317 4.83424C7.42012 4.89729 7.37118 4.973 7.33957 5.05638C7.30796 5.13975 7.2944 5.22888 7.2998 5.31788V26.7839C7.2944 26.8729 7.30796 26.962 7.33957 27.0454C7.37118 27.1288 7.42012 27.2045 7.48317 27.2675C7.54622 27.3306 7.62193 27.3795 7.7053 27.4111C7.78867 27.4427 7.87781 27.4563 7.9668 27.4509H24.0998C24.1888 27.4563 24.2779 27.4427 24.3613 27.4111C24.4447 27.3795 24.5204 27.3306 24.5834 27.2675C24.6465 27.2045 24.6954 27.1288 24.727 27.0454C24.7587 26.962 24.7722 26.8729 24.7668 26.7839V5.31788C24.7722 5.22888 24.7587 5.13975 24.727 5.05638C24.6954 4.973 24.6465 4.89729 24.5834 4.83424C24.5204 4.7712 24.4447 4.72225 24.3613 4.69064C24.2779 4.65903 24.1888 4.64548 24.0998 4.65088H7.9668Z" fill="#2D373D"/>
<path d="M21.6999 13.0508H10.2329C9.70655 13.0378 9.20532 12.823 8.83301 12.4507C8.46071 12.0784 8.24584 11.5771 8.23291 11.0508V7.71777C8.24584 7.19141 8.46071 6.69018 8.83301 6.31788C9.20532 5.94557 9.70655 5.73071 10.2329 5.71777H21.6999C22.2263 5.73071 22.7275 5.94557 23.0998 6.31788C23.4721 6.69018 23.687 7.19141 23.6999 7.71777V11.0508C23.7048 11.3148 23.6564 11.577 23.5576 11.8219C23.4588 12.0667 23.3117 12.2892 23.125 12.4759C22.9383 12.6626 22.7159 12.8097 22.471 12.9085C22.2262 13.0073 21.9639 13.0557 21.6999 13.0508ZM10.2329 7.71777V11.0508H21.6999V7.71777H10.2329Z" fill="#2D373D"/>
<path d="M11.1667 14.3838C10.7787 14.3872 10.4075 14.5428 10.1331 14.8172C9.85875 15.0916 9.7031 15.4628 9.69971 15.8508C9.70424 16.036 9.74631 16.2184 9.82336 16.3869C9.90041 16.5554 10.0108 16.7066 10.148 16.8312C10.2851 16.9558 10.4461 17.0513 10.6212 17.1119C10.7963 17.1725 10.9819 17.197 11.1667 17.1838C11.52 17.183 11.8586 17.0423 12.1084 16.7925C12.3582 16.5427 12.4989 16.2041 12.4997 15.8508C12.4806 15.4901 12.3375 15.1471 12.0946 14.8797C11.8517 14.6124 11.5239 14.4372 11.1667 14.3838Z" fill="#2D373D"/>
<path d="M15.9659 14.3838C15.7806 14.3883 15.5982 14.4304 15.4297 14.5074C15.2612 14.5845 15.1101 14.6949 14.9855 14.8321C14.8608 14.9692 14.7654 15.1302 14.7047 15.3053C14.6441 15.4804 14.6197 15.666 14.6329 15.8508C14.6337 16.2041 14.7743 16.5427 15.0242 16.7925C15.274 17.0423 15.6126 17.183 15.9659 17.1838C16.3116 17.1602 16.6371 17.0122 16.8822 16.7671C17.1272 16.5221 17.2753 16.1965 17.2989 15.8508C17.3034 15.483 17.1684 15.1272 16.9211 14.8549C16.6737 14.5827 16.3324 14.4144 15.9659 14.3838Z" fill="#2D373D"/>
<path d="M20.4998 14.3838C20.3146 14.3883 20.1322 14.4304 19.9637 14.5074C19.7951 14.5845 19.644 14.6949 19.5194 14.8321C19.3948 14.9692 19.2993 15.1302 19.2387 15.3053C19.1781 15.4804 19.1536 15.666 19.1668 15.8508C19.1676 16.2041 19.3083 16.5427 19.5581 16.7925C19.8079 17.0423 20.1465 17.183 20.4998 17.1838C20.8456 17.1602 21.1711 17.0122 21.4161 16.7671C21.6612 16.5221 21.8092 16.1965 21.8328 15.8508C21.8374 15.483 21.7024 15.1272 21.455 14.8549C21.2077 14.5827 20.8663 14.4144 20.4998 14.3838Z" fill="#2D373D"/>
<path d="M11.1667 18.6509C10.7993 18.6478 10.4442 18.7833 10.1723 19.0303C9.90042 19.2774 9.73165 19.6179 9.69971 19.9839C9.73165 20.3499 9.90042 20.6905 10.1723 20.9375C10.4442 21.1846 10.7993 21.3201 11.1667 21.3169C11.52 21.3161 11.8586 21.1754 12.1084 20.9256C12.3582 20.6758 12.4989 20.3372 12.4997 19.9839C12.4761 19.6382 12.3281 19.3127 12.083 19.0676C11.838 18.8226 11.5125 18.6745 11.1667 18.6509Z" fill="#2D373D"/>
<path d="M15.9658 18.6509C15.6125 18.6517 15.2739 18.7924 15.0241 19.0422C14.7743 19.292 14.6336 19.6306 14.6328 19.9839C14.6564 20.3296 14.8044 20.6551 15.0495 20.9002C15.2945 21.1453 15.6201 21.2933 15.9658 21.3169C16.3116 21.2933 16.6371 21.1453 16.8821 20.9002C17.1272 20.6551 17.2752 20.3296 17.2988 19.9839C17.298 19.6306 17.1573 19.292 16.9075 19.0422C16.6577 18.7924 16.3191 18.6517 15.9658 18.6509Z" fill="#2D373D"/>
<path d="M20.4997 21.4499C21.2359 21.4499 21.8327 20.8531 21.8327 20.1169C21.8327 19.3807 21.2359 18.7839 20.4997 18.7839C19.7636 18.7839 19.1667 19.3807 19.1667 20.1169C19.1667 20.8531 19.7636 21.4499 20.4997 21.4499Z" fill="#2D373D"/>
<path d="M20.4997 25.8498C21.2359 25.8498 21.8327 25.253 21.8327 24.5168C21.8327 23.7806 21.2359 23.1838 20.4997 23.1838C19.7636 23.1838 19.1667 23.7806 19.1667 24.5168C19.1667 25.253 19.7636 25.8498 20.4997 25.8498Z" fill="#2D373D"/>
<path d="M15.9658 23.1838C15.6125 23.1846 15.2739 23.3253 15.0241 23.5751C14.7743 23.825 14.6336 24.1635 14.6328 24.5168C14.6564 24.8626 14.8044 25.1881 15.0495 25.4332C15.2945 25.6782 15.6201 25.8262 15.9658 25.8498C16.3116 25.8262 16.6371 25.6782 16.8821 25.4332C17.1272 25.1881 17.2752 24.8626 17.2988 24.5168C17.298 24.1635 17.1573 23.825 16.9075 23.5751C16.6577 23.3253 16.3191 23.1846 15.9658 23.1838Z" fill="#2D373D"/>
<path d="M11.1667 23.1839C10.7993 23.1807 10.4442 23.3162 10.1723 23.5633C9.90042 23.8104 9.73165 24.1509 9.69971 24.5169C9.73165 24.8829 9.90042 25.2234 10.1723 25.4705C10.4442 25.7176 10.7993 25.853 11.1667 25.8499C11.52 25.8491 11.8586 25.7084 12.1084 25.4586C12.3582 25.2088 12.4989 24.8702 12.4997 24.5169C12.4761 24.1711 12.3281 23.8456 12.083 23.6006C11.838 23.3555 11.5125 23.2075 11.1667 23.1839Z" fill="#2D373D"/>
</svg>
