<svg width="24" height="25" viewBox="0 0 24 25" fill="none" xmlns="http://www.w3.org/2000/svg">
<path d="M21.2997 6.53672H15.3747C15.2247 4.73672 13.7997 3.38672 11.9997 3.38672C10.1997 3.38672 8.77471 4.73672 8.62471 6.53672H2.69971C2.24971 6.53672 1.94971 6.83672 1.94971 7.28672V19.7367C1.94971 20.1867 2.24971 20.4867 2.69971 20.4867H21.2997C21.7497 20.4867 22.0497 20.1867 22.0497 19.7367V7.28672C22.0497 6.83672 21.7497 6.53672 21.2997 6.53672ZM11.9997 4.88672C12.9747 4.88672 13.7247 5.56172 13.8747 6.53672H10.1997C10.2747 5.63672 11.0247 4.88672 11.9997 4.88672ZM20.5497 18.9867H3.44971V13.0617H9.97471C10.0497 14.1117 10.9497 14.8617 11.9997 14.8617C13.0497 14.8617 13.9497 14.1117 13.9497 13.0617H20.5497V18.9867V18.9867ZM11.4747 12.9117V11.7117C11.4747 11.5617 11.5497 11.4117 11.6247 11.3367C11.7747 11.2617 11.8497 11.1867 11.9997 11.1867C12.2997 11.1867 12.5247 11.4117 12.5247 11.6367V12.9117C12.5247 13.2117 12.2997 13.4367 11.9997 13.4367C11.6997 13.4367 11.4747 13.2117 11.4747 12.9117ZM20.5497 11.5617H13.9497C13.8747 10.5117 13.0497 9.68672 11.9997 9.68672C11.4747 9.61172 10.9497 9.83672 10.5747 10.2117C10.1997 10.5867 9.97471 11.0367 9.97471 11.5617H3.44971V8.03672H20.5497V11.5617Z" fill="#2D373D"/>
</svg>
