<svg width="64" height="65" viewBox="0 0 64 65" fill="none" xmlns="http://www.w3.org/2000/svg">
<path d="M42.8222 21.1462C42.3522 21.1462 41.8922 21.1062 41.4222 21.0162C39.4922 20.6462 37.8322 19.5462 36.7222 17.9262C35.6222 16.3062 35.2222 14.3462 35.5922 12.4262C35.9622 10.4962 37.0622 8.83625 38.6822 7.72625C40.3022 6.62625 42.2622 6.22625 44.1922 6.59625C48.1722 7.36625 50.7822 11.2162 50.0222 15.1962C49.6522 17.1162 48.5522 18.7862 46.9322 19.8862C45.7022 20.7162 44.2822 21.1562 42.8322 21.1562L42.8222 21.1462ZM42.7922 10.4562C42.1322 10.4562 41.4822 10.6562 40.9222 11.0362C40.1822 11.5362 39.6822 12.2962 39.5122 13.1762C39.3422 14.0562 39.5222 14.9462 40.0222 15.6762C40.5222 16.4062 41.2822 16.9162 42.1622 17.0862C43.0422 17.2562 43.9322 17.0762 44.6722 16.5662C45.4122 16.0662 45.9122 15.3062 46.0822 14.4262C46.4322 12.6162 45.2422 10.8562 43.4322 10.5062C43.2222 10.4662 43.0022 10.4462 42.7922 10.4462V10.4562Z" fill="#2D373D"/>
<path d="M44.1122 58.4562C43.4522 58.4562 42.8022 58.3162 42.1822 58.0362C41.0322 57.5162 40.1622 56.5862 39.7122 55.4062C36.4122 45.7962 28.2222 41.2162 28.1322 41.1662C23.6522 38.4262 22.6022 35.1762 24.8422 31.1662L27.0422 27.2562C25.4022 27.7362 23.3722 28.6562 21.3822 30.4462C19.1222 32.3962 16.3622 31.7862 14.9022 30.2262C14.8722 30.1962 14.8522 30.1662 14.8222 30.1362C13.1022 28.0762 13.3922 25.3862 15.5522 23.2762C15.8322 22.9862 23.3622 15.4362 34.3422 17.7562C35.4222 17.9862 36.1122 19.0462 35.8822 20.1262C35.6522 21.2062 34.5922 21.8962 33.5122 21.6662C24.7322 19.8062 18.6322 25.8462 18.3722 26.1062C17.5122 26.9462 17.6822 27.2962 17.8422 27.5062C17.9822 27.6362 18.2822 27.8062 18.7322 27.4262C24.4322 22.2962 30.6222 22.7462 30.8822 22.7662C31.5622 22.8262 32.1622 23.2162 32.4822 23.8262C32.8022 24.4362 32.7922 25.1462 32.4622 25.7462L28.3222 33.1062C27.4222 34.7062 27.0322 35.7862 30.1322 37.6862C30.4422 37.8562 39.6822 43.0262 43.4622 54.0262C43.5322 54.2062 43.7122 54.3162 43.8122 54.3662C43.9122 54.4062 44.1122 54.4762 44.3522 54.3862C44.7222 54.2462 44.9022 53.8362 44.7622 53.4662C44.7422 53.4262 44.7322 53.3862 44.7222 53.3462C41.4322 42.7562 33.3122 37.6162 33.2222 37.5662C32.3122 36.9962 32.0022 35.8062 32.5322 34.8762L36.0022 28.7962C36.4622 27.9862 37.4322 27.6062 38.3322 27.8762C45.2922 30.0162 52.0122 24.9262 52.6922 24.3962C53.6322 23.4562 53.3822 23.1462 53.2422 22.9862C53.0022 22.6962 52.8522 22.6862 52.8022 22.6862C52.5722 22.6662 52.2422 22.8162 52.0222 23.0262C51.9622 23.0862 51.8922 23.1462 51.8122 23.1962C44.0722 28.6662 39.4922 26.6462 38.9922 26.3962C38.0022 25.9062 37.6022 24.7062 38.0922 23.7162C38.5822 22.7262 39.7822 22.3262 40.7722 22.8162C40.7722 22.8162 43.7822 23.9262 49.3922 19.9962C50.4222 19.0962 51.7722 18.6162 53.0522 18.6962C54.3122 18.7762 55.4422 19.3762 56.3022 20.4262C57.6422 22.0162 58.1322 24.6762 55.4122 27.3262C55.3722 27.3662 55.3322 27.3962 55.2922 27.4262C54.9622 27.7062 47.4522 33.8362 38.7122 32.0962L36.8922 35.2862C39.7422 37.4962 45.6522 42.9662 48.5122 52.1062C49.3922 54.5162 48.1622 57.1962 45.7622 58.1162C45.2222 58.3262 44.6522 58.4262 44.0822 58.4262L44.1122 58.4562Z" fill="#2D373D"/>
<path d="M11.6122 54.1362C10.5522 54.1362 9.51217 53.7663 8.67217 53.0662C7.72217 52.2762 7.13217 51.1662 7.02217 49.9362C6.90217 48.7062 7.27217 47.5062 8.06217 46.5562C8.85217 45.6062 9.96217 45.0163 11.1922 44.9062L18.5522 44.1963L21.0422 39.5562C21.5622 38.5862 22.7822 38.2162 23.7522 38.7362C24.7222 39.2562 25.0922 40.4663 24.5722 41.4463L21.5822 47.0262C21.2622 47.6162 20.6822 48.0062 20.0122 48.0662L11.5822 48.8862C11.3522 48.9062 11.2122 49.0363 11.1522 49.1063C11.0922 49.1763 10.9922 49.3362 11.0122 49.5562C11.0322 49.7662 11.1422 49.9062 11.2322 49.9762C11.3022 50.0363 11.4622 50.1362 11.6922 50.1162L21.1422 49.3162C21.1422 49.3162 21.1922 49.2962 21.2422 49.2863C21.3622 49.2563 21.4822 49.2363 21.6122 49.2262C21.7222 49.2262 21.9822 49.1763 22.1322 48.9062L25.2822 43.0262C25.8022 42.0562 27.0122 41.6862 27.9922 42.2062C28.9622 42.7262 29.3322 43.9362 28.8122 44.9162L25.6622 50.8062C24.9322 52.1662 23.6022 53.0562 22.0622 53.2162C21.8822 53.2562 21.7022 53.2962 21.5122 53.3062L12.0622 54.1063C11.9222 54.1162 11.7722 54.1262 11.6322 54.1262L11.6122 54.1362Z" fill="#2D373D"/>
<path d="M47.7522 44.2362C47.1222 44.2362 46.5022 43.9362 46.1122 43.3862C45.4822 42.4862 45.7022 41.2362 46.6022 40.5962L50.4922 37.8662C51.4022 37.2262 52.6422 37.4462 53.2822 38.3562C53.9122 39.2562 53.6922 40.5062 52.7922 41.1462L48.9022 43.8762C48.5522 44.1262 48.1522 44.2362 47.7522 44.2362Z" fill="#2D373D"/>
<path d="M44.7922 40.5062C44.3422 40.5062 43.8822 40.3562 43.5122 40.0362C42.6622 39.3262 42.5522 38.0662 43.2622 37.2162L46.3122 33.5762C47.0222 32.7262 48.2822 32.6162 49.1322 33.3262C49.9822 34.0362 50.0922 35.2962 49.3822 36.1462L46.3322 39.7862C45.9322 40.2562 45.3722 40.4962 44.8022 40.4962L44.7922 40.5062Z" fill="#2D373D"/>
<path d="M50.2422 48.2962C49.4222 48.2962 48.6622 47.7962 48.3622 46.9762C47.9822 45.9362 48.5222 44.7862 49.5522 44.4162L54.0122 42.7862C55.0522 42.4062 56.2022 42.9462 56.5722 43.9762C56.9522 45.0162 56.4122 46.1662 55.3822 46.5362L50.9222 48.1662C50.6922 48.2462 50.4622 48.2862 50.2422 48.2862V48.2962Z" fill="#2D373D"/>
</svg>
