<svg width="24" height="25" viewBox="0 0 24 25" fill="none" xmlns="http://www.w3.org/2000/svg">
<path d="M17.9998 3.38672H5.8498C5.0998 3.38672 4.3498 3.68672 3.8248 4.28672C3.2248 4.88672 2.9248 5.56172 2.9248 6.38672V12.9867C2.9248 14.6367 4.2748 15.9867 5.8498 15.9867C6.2998 15.9867 6.5998 15.6867 6.5998 15.2367C6.5998 14.7867 6.2998 14.4867 5.8498 14.4867C5.0998 14.4867 4.4248 13.8867 4.4248 13.0617V6.38672C4.4248 5.93672 4.4998 5.63672 4.7998 5.33672C5.0998 5.03672 5.4748 4.88672 5.8498 4.88672H17.9998C18.8248 4.88672 19.4998 5.56172 19.4998 6.38672V13.0617C19.4998 13.4367 19.3498 13.7367 19.1248 14.0367C18.8248 14.3367 18.8998 14.7867 19.1998 15.0867C19.4998 15.3867 19.9498 15.3117 20.2498 15.0117C20.7748 14.4867 20.9998 13.8117 20.9998 13.0617V6.38672C20.9998 4.73672 19.6498 3.38672 17.9998 3.38672Z" fill="#2D373D"/>
<path d="M16.8747 13.4368L14.3997 12.9118V9.08679C14.3997 8.03679 13.5747 7.21179 12.5247 7.21179C11.4747 7.21179 10.6497 8.03679 10.6497 9.08679V14.7868H10.5747L10.4997 14.7118C10.0497 14.4118 9.59972 14.3368 9.07472 14.4118C8.54972 14.5618 8.17472 14.7868 7.87472 15.2368C7.42472 15.9118 7.49972 16.8118 7.94972 17.4118L10.7997 21.1618C10.9497 21.3868 11.1747 21.4618 11.3997 21.4618H18.0747C18.4497 21.4618 18.7497 21.1618 18.8247 20.7118L19.1997 16.5868C19.3497 15.0868 18.2997 13.7368 16.8747 13.4368ZM17.6247 16.5118L17.3247 19.9618H11.7747L9.07472 16.4368C8.99972 16.2868 8.99972 16.1368 9.07472 15.9868C9.14972 15.9118 9.22472 15.8368 9.29972 15.8368C9.37472 15.8368 9.52472 15.8368 9.59972 15.9118L10.8747 16.8868C11.0997 17.0368 11.3997 17.1118 11.6247 16.9618C11.9247 16.8118 12.0747 16.5868 12.0747 16.2868V9.08679C12.0747 8.86179 12.2247 8.71179 12.4497 8.71179C12.6747 8.71179 12.8247 8.86179 12.8247 9.08679V13.5118C12.8247 13.8868 13.0497 14.1868 13.4247 14.2618L16.4997 14.9368C17.1747 15.0868 17.6997 15.7618 17.6247 16.5118Z" fill="#2D373D"/>
</svg>
