<svg width="32" height="33" viewBox="0 0 32 33" fill="none" xmlns="http://www.w3.org/2000/svg">
<path d="M25.6995 9.70197H23.0995V7.11275C23.0995 5.91773 22.0995 4.92188 20.8995 4.92188H17.2995C16.0995 4.92188 15.0995 5.91773 15.0995 7.11275V9.70197H12.4995C11.2995 9.70197 10.2995 10.6978 10.2995 11.8928V14.8804C10.2995 15.4779 10.6995 15.8763 11.2995 15.8763C11.8995 15.8763 12.2995 15.4779 12.2995 14.8804V11.8928C12.2995 11.7933 12.3995 11.6937 12.4995 11.6937H16.0995C16.6995 11.6937 17.0995 11.2953 17.0995 10.6978V7.11275C17.0995 7.01317 17.1995 6.91358 17.2995 6.91358H20.8995C20.9995 6.91358 21.0995 7.01317 21.0995 7.11275V10.6978C21.0995 11.2953 21.4995 11.6937 22.0995 11.6937H25.6995C25.7995 11.6937 25.8995 11.7933 25.8995 11.8928V15.5775C25.8995 15.6771 25.7995 15.7767 25.6995 15.7767H22.0995C21.4995 15.7767 21.0995 16.175 21.0995 16.7725V20.3576C21.0995 20.4572 20.9995 20.5568 20.8995 20.5568H17.9995C17.3995 20.5568 16.9995 20.9551 16.9995 21.5526C16.9995 22.1501 17.3995 22.5485 17.9995 22.5485H20.8995C22.1995 22.5485 23.1995 21.5526 23.1995 20.258V17.6688H25.7995C26.9995 17.6688 27.9995 16.6729 27.9995 15.4779V11.8928C27.9995 10.6978 26.9995 9.70197 25.6995 9.70197Z" fill="#2D373D"/>
<path d="M10.9996 19.4612C10.6996 19.6604 10.2996 19.8596 9.89958 19.8596C9.09958 19.8596 8.39958 19.1625 8.39958 18.3658V18.2662C8.39958 17.4695 9.09958 16.7724 9.89958 16.7724C10.6996 16.7724 11.3996 17.4695 11.3996 18.2662V18.3658C11.3996 18.7641 11.1996 19.1625 10.9996 19.4612Z" fill="#2D373D"/>
<path d="M12.7995 20.3576C12.7995 19.5609 13.4995 18.8638 14.2995 18.8638C15.0995 18.8638 15.7995 19.5609 15.7995 20.3576C15.7995 20.7559 15.5995 21.1543 15.3995 21.453C15.0995 21.7518 14.6995 21.8514 14.2995 21.8514C13.4995 21.8514 12.7995 21.1543 12.7995 20.3576Z" fill="#2D373D"/>
<path d="M6.59951 21.453C6.79951 21.1543 6.99951 20.7559 6.99951 20.3576C6.99951 19.5609 6.39951 18.8638 5.49951 18.8638C4.69951 18.8638 3.99951 19.5609 3.99951 20.3576C3.99951 21.1543 4.69951 21.8514 5.49951 21.8514C5.89951 21.8514 6.29951 21.7518 6.59951 21.453Z" fill="#2D373D"/>
<path fill-rule="evenodd" clip-rule="evenodd" d="M9.89945 21.0546C10.5994 21.0546 11.2994 21.3534 11.7994 21.8513L14.3994 24.4405C14.8994 24.9385 15.1994 25.6356 15.1994 26.3327C15.1994 27.0298 14.8994 27.7269 14.3994 28.2248C13.8994 28.7227 13.1994 28.9219 12.4994 28.9219H7.29945C5.79945 28.9219 4.59945 27.7269 4.59945 26.2331C4.59945 25.536 4.89945 24.8389 5.39945 24.341L7.99945 21.8513C8.49945 21.3534 9.19945 21.0546 9.89945 21.0546ZM12.8564 26.9087C12.8994 26.884 12.9459 26.8573 12.9994 26.8306C13.0994 26.731 13.1994 26.5318 13.1994 26.3327C13.1994 26.1869 13.1459 26.0944 13.0779 25.9772C13.053 25.9343 13.0262 25.8881 12.9994 25.8347L10.3994 23.2455C10.2994 23.1459 10.0994 23.0463 9.89945 23.0463C9.75304 23.0463 9.66022 23.0997 9.54252 23.1674C9.49945 23.1921 9.45304 23.2188 9.39945 23.2455L6.79945 25.8347C6.69945 25.9343 6.59945 26.1335 6.59945 26.3327C6.59945 26.731 6.89945 27.0298 7.29945 27.0298H12.4994C12.6459 27.0298 12.7387 26.9764 12.8564 26.9087Z" fill="#2D373D"/>
</svg>
