<svg width="64" height="65" viewBox="0 0 64 65" fill="none" xmlns="http://www.w3.org/2000/svg">
<path d="M55 11.462C53.8 9.862 51.8 8.662 49.8 8.262C47.6 8.062 45.6 8.462 43.8 9.662C43.4 10.062 43 10.262 42.8 10.462L37 16.262L19.8 11.862C18.2 11.462 16.4 11.862 15.2 13.062L13.8 14.462C12.8 15.462 12.2 16.862 12.2 18.062C12.2 19.262 12.8 20.462 13.8 21.462C14 21.862 14.4 22.062 14.6 22.262L25 28.662L17.8 36.862H15.8C14.4 36.662 12.8 37.062 11.8 38.062L8.8 40.862C7.4 42.262 7.4 44.462 8.8 45.862C9.2 46.062 9.4 46.262 9.8 46.462L15.2 49.462L18.6 54.862C19 55.462 19.6 56.062 20.4 56.462C20.8 56.662 21.2 56.662 21.6 56.662C22 56.662 22.4 56.462 22.8 56.262C23.2 56.262 23.6 55.862 24.2 55.462L26.8 53.062C28 52.062 28.6 50.462 28.4 48.862V46.862L36.4 39.462L42.6 49.862C43.2 50.862 44.4 51.662 45.6 52.062C47 52.262 48.2 52.062 49.4 51.462C49.6 51.262 50 51.062 50.2 50.862C50.4 50.662 50.4 50.662 50.4 50.662L51.8 49.262C53 48.062 53.4 46.062 53 44.462L48.4 27.262L53.8 21.862C56.8 19.262 57.2 14.862 55 11.462ZM50.6 18.862L44.2 25.262C43.6 25.862 43.4 26.662 43.6 27.262L48.4 45.462C48.6 45.862 48.4 46.262 48.2 46.462L47 47.662C47 47.862 46.8 47.862 46.8 47.862C46.4 48.062 46.2 48.062 46 48.062C45.8 48.062 45.6 47.862 45.4 47.662L38 35.262C37.8 34.662 37.2 34.262 36.6 34.262C36 34.262 35.4 34.462 35 34.862L24.6 44.662C24.2 45.062 24 45.462 24 46.062V49.062C24 49.262 24 49.262 24 49.462C24.2 49.662 24 50.062 23.8 50.262L21.6 52.262L18.2 46.862C18 46.662 17.6 46.462 17.4 46.262L12.2 43.262L14.8 40.862C15 40.662 15.4 40.662 15.6 40.662C15.8 40.662 15.8 40.662 16 40.662H19C19.4 40.662 20 40.462 20.4 40.062L29.8 29.262C30.2 28.862 30.2 28.262 30.2 27.662C30 27.062 29.8 26.662 29.2 26.262L16.6 18.862L16.4 18.662C16.2 18.462 16.2 18.262 16.2 18.062C16.2 17.862 16.2 17.462 16.6 17.262L17.8 15.862C18.2 15.662 18.4 15.662 18.8 15.662L36.6 20.262C37.4 20.462 38 20.262 38.6 19.662L45.2 13.062C45.4 12.862 45.6 12.862 45.8 12.662C46.8 12.062 47.8 11.862 48.8 12.062C49.8 12.262 50.6 12.862 51.2 13.662C52.4 15.262 52 17.462 50.6 18.862Z" fill="#2D373D"/>
</svg>
