<svg width="24" height="24" viewBox="0 0 24 24" fill="none" xmlns="http://www.w3.org/2000/svg">
<path d="M20.9999 20.0999L17.3999 9.1499C17.3249 8.7749 17.0999 8.4749 16.8749 8.2499C16.1249 7.4999 14.9249 7.4999 14.1749 8.2499L11.7749 10.6499L10.3499 9.2249C10.4249 8.9999 10.4999 8.7749 10.4999 8.4749C10.4999 7.9499 10.2749 7.4999 9.9749 7.1999L6.2249 3.5249C5.4749 2.7749 4.2749 2.7749 3.5249 3.5249C2.7749 4.2749 2.7749 5.4749 3.5249 6.2249L7.1999 9.8999C7.4999 10.1999 8.0249 10.4249 8.4749 10.4249C8.7749 10.4249 8.9999 10.3499 9.2249 10.2749L11.0249 12.0749C11.0249 12.1499 11.0999 12.2249 11.1749 12.2999C11.2499 12.3749 11.3249 12.4499 11.3999 12.4499L13.2749 14.3249C13.4249 14.4749 13.5749 14.5499 13.7999 14.5499C13.9499 14.5499 14.1749 14.4749 14.3249 14.3249C14.6249 14.0249 14.6249 13.5749 14.3249 13.2749L12.8249 11.7749L15.2249 9.3749C15.4499 9.2249 15.6749 9.2249 15.8249 9.3749C15.8999 9.3749 15.9749 9.4499 15.9749 9.5999L19.1249 19.1999L9.4499 16.0499C9.3749 16.0499 9.2999 15.9749 9.2249 15.8999C9.1499 15.8249 9.1499 15.6749 9.1499 15.5999C9.1499 15.5249 9.1499 15.4499 9.2249 15.3749L10.6499 13.9499C10.9499 13.6499 10.9499 13.1999 10.6499 12.8999C10.3499 12.5999 9.8999 12.5999 9.5999 12.8999L8.1749 14.2499C7.8749 14.4749 7.7249 14.7749 7.6499 15.1499C7.4999 15.5999 7.5749 16.1249 7.8749 16.5749C8.1749 17.0249 8.5499 17.3249 8.9999 17.3999L20.0999 21.0749C20.1749 21.0749 20.2499 21.0749 20.3249 21.0749C20.4749 21.0749 20.6999 20.9999 20.8499 20.8499C20.9999 20.6999 21.0749 20.3999 20.9999 20.0999ZM8.1749 8.7749L4.5749 5.0999C4.3499 4.9499 4.3499 4.7249 4.4999 4.5749C4.6499 4.4249 4.9499 4.4249 5.0999 4.5749L8.7749 8.1749C8.8499 8.2499 8.9249 8.3999 8.9249 8.4749C8.9249 8.6249 8.8499 8.6999 8.7749 8.7749C8.6999 8.8499 8.5499 8.9249 8.4749 8.9249C8.3999 8.9249 8.3249 8.8499 8.1749 8.7749Z" fill="#2D373D"/>
</svg>
