<svg width="16" height="17" viewBox="0 0 16 17" fill="none" xmlns="http://www.w3.org/2000/svg">
<path fill-rule="evenodd" clip-rule="evenodd" d="M5.80414 2.92188C5.13593 2.92188 4.49509 3.18658 4.02259 3.65776C3.7013 3.97816 3.47574 4.37618 3.36428 4.80763H3.23446C2.95801 4.80763 2.7339 5.03111 2.7339 5.3068C2.7339 5.58248 2.95801 5.80597 3.23446 5.80597H3.31235C3.39165 6.33482 3.63883 6.82826 4.02259 7.21095C4.35093 7.53838 4.76056 7.7661 5.20419 7.87457C4.668 7.96241 4.15593 8.16674 3.7027 8.47429C3.17777 8.83047 2.74848 9.31368 2.45193 9.87958C2.15541 10.4454 2.00043 11.077 2 11.718C1.99982 11.9937 2.22378 12.2173 2.50023 12.2175C2.77668 12.2177 3.00094 11.9943 3.00112 11.7187C3.00144 11.2374 3.11788 10.7643 3.33921 10.342C3.56049 9.91969 3.87932 9.56197 4.26589 9.29967C4.65236 9.03743 5.09486 8.87843 5.55378 8.83567C6.01266 8.7929 6.4751 8.86756 6.90008 9.0536C7.15322 9.16441 7.44851 9.04961 7.55963 8.79717C7.67075 8.54474 7.55562 8.25028 7.30249 8.13946C7.01421 8.01327 6.71284 7.92446 6.40537 7.87426C6.8485 7.76566 7.25767 7.53806 7.58569 7.21095C7.96946 6.82826 8.21663 6.33482 8.29594 5.80597H8.37356C8.65002 5.80597 8.87413 5.58248 8.87413 5.3068C8.87413 5.03111 8.65002 4.80763 8.37356 4.80763H8.244C8.13254 4.37618 7.90699 3.97816 7.58569 3.65776C7.1132 3.18658 6.47235 2.92188 5.80414 2.92188ZM7.18634 4.80763C7.11171 4.64395 7.00775 4.49329 6.87779 4.36369C6.82054 4.3066 6.75918 4.25453 6.69441 4.20778L6.70284 4.80763H7.18634ZM6.0231 3.93603C5.95102 3.92556 5.87786 3.92021 5.80414 3.92021C5.73117 3.92021 5.65874 3.92545 5.58736 3.93572L5.58736 4.80763H6.03536L6.0231 3.93603ZM4.91995 4.20342C4.85294 4.25129 4.78953 4.30482 4.73049 4.36369C4.60054 4.49329 4.49657 4.64395 4.42194 4.80763H4.91995L4.91995 4.20342ZM4.3322 5.80597C4.39882 6.06832 4.53535 6.31042 4.73049 6.50502C5.01524 6.78897 5.40144 6.9485 5.80414 6.9485C6.20684 6.9485 6.59304 6.78897 6.87779 6.50502C7.07293 6.31042 7.20947 6.06832 7.27608 5.80597H4.3322Z" fill="#2D373D"/>
<path fill-rule="evenodd" clip-rule="evenodd" d="M10.663 9.9435C10.3975 9.9435 10.1429 10.0487 9.95515 10.2359C9.7674 10.4231 9.66192 10.6771 9.66192 10.9418C9.66192 11.2066 9.7674 11.4605 9.95515 11.6478C10.0617 11.7541 10.1899 11.8339 10.3293 11.8831V12.9385C10.3293 13.1223 10.4787 13.2713 10.663 13.2713C10.8474 13.2713 10.9968 13.1223 10.9968 12.9385V11.8831C11.1362 11.8339 11.2644 11.7541 11.371 11.6478C11.5587 11.4605 11.6642 11.2066 11.6642 10.9418C11.6642 10.6771 11.5587 10.4231 11.371 10.2359C11.1832 10.0487 10.9286 9.9435 10.663 9.9435ZM10.663 11.2746C10.7516 11.2746 10.8364 11.2396 10.899 11.1771C10.9616 11.1147 10.9968 11.0301 10.9968 10.9418C10.9968 10.8536 10.9616 10.7689 10.899 10.7065C10.8364 10.6441 10.7516 10.6091 10.663 10.6091C10.5745 10.6091 10.4897 10.6441 10.4271 10.7065C10.3645 10.7689 10.3293 10.8536 10.3293 10.9418C10.3293 11.0301 10.3645 11.1147 10.4271 11.1771C10.4897 11.2396 10.5745 11.2746 10.663 11.2746Z" fill="#2D373D"/>
<path fill-rule="evenodd" clip-rule="evenodd" d="M8.18931 9.12736C8.82765 8.4908 9.69343 8.13318 10.5962 8.13318C11.4989 8.13318 12.3647 8.4908 13.003 9.12736C13.6414 9.76393 14 10.6273 14 11.5275C14 12.4278 13.6414 13.2911 13.003 13.9277C12.3647 14.5643 11.4989 14.9219 10.5962 14.9219C9.69343 14.9219 8.82765 14.5643 8.18931 13.9277C7.55097 13.2911 7.19235 12.4278 7.19235 11.5275C7.19235 10.6273 7.55097 9.76393 8.18931 9.12736ZM10.5962 9.13152C9.95894 9.13152 9.34781 9.38396 8.89721 9.8333C8.44662 10.2826 8.19348 10.8921 8.19348 11.5275C8.19348 12.163 8.44662 12.7724 8.89721 13.2218C9.34781 13.6711 9.95894 13.9235 10.5962 13.9235C11.2334 13.9235 11.8445 13.6711 12.2951 13.2218C12.7457 12.7724 12.9989 12.163 12.9989 11.5275C12.9989 10.8921 12.7457 10.2826 12.2951 9.8333C11.8445 9.38396 11.2334 9.13152 10.5962 9.13152Z" fill="#2D373D"/>
</svg>
