<svg width="16" height="17" viewBox="0 0 16 17" fill="none" xmlns="http://www.w3.org/2000/svg">
<path d="M9.9 10.4247C9.6 10.4247 9.4 10.6247 9.4 10.9247V12.0247H3V4.9747C3.05 4.3247 3.55 3.8747 4.2 3.9247H6.8C7.1 3.9247 7.3 3.7247 7.3 3.4247C7.3 3.1247 7.1 2.9247 6.8 2.9247H4.2C3.05 2.8747 2.05 3.7247 2 4.9247V13.6247C2.05 14.7247 3 15.6247 4.1 15.6247C4.1 15.6247 4.15 15.6247 4.2 15.5747H8.2C9.35 15.6247 10.35 14.7747 10.4 13.5747V10.9247C10.4 10.6247 10.2 10.4247 9.9 10.4247ZM9.4 13.5747C9.35 14.1747 8.85 14.6747 8.2 14.6247H4.15C3.55 14.6747 3.05 14.2247 3 13.6247V13.0247H9.4V13.5747Z" fill="#2D373D"/>
<path d="M10.25 7.32471C9.94995 7.32471 9.69995 7.57471 9.69995 7.87471C9.69995 8.17471 9.94995 8.42471 10.25 8.42471C10.55 8.42471 10.8 8.17471 10.8 7.87471C10.8 7.57471 10.55 7.32471 10.25 7.32471Z" fill="#2D373D"/>
<path d="M10.25 6.92466C10.5 6.92466 10.75 6.72466 10.75 6.42466V4.77466C10.75 4.47466 10.55 4.27466 10.25 4.27466C9.95 4.27466 9.75 4.47466 9.75 4.77466V6.42466C9.75 6.72466 9.95 6.92466 10.25 6.92466Z" fill="#2D373D"/>
<path d="M13.8499 7.67472L11.5499 3.02472C11.3999 2.77472 11.1999 2.52472 10.8999 2.37472C10.4999 2.17472 10.0999 2.12472 9.7499 2.27472C9.3999 2.42472 9.0499 2.67472 8.8999 3.02472L6.5499 7.67472C6.4499 7.87472 6.3999 8.07472 6.3999 8.32472C6.3999 8.72472 6.5499 9.07472 6.8499 9.37472C7.1499 9.67472 7.4999 9.82472 7.8999 9.82472H12.5499C12.7999 9.82472 12.9999 9.77472 13.1999 9.67472C13.5499 9.52472 13.8499 9.17472 13.9499 8.82472C14.0499 8.42472 14.0499 8.02472 13.8499 7.67472ZM13.0499 8.47472C12.9999 8.62472 12.8999 8.72472 12.7999 8.77472C12.7499 8.82472 12.6499 8.82472 12.5999 8.82472H7.9499C7.7999 8.82472 7.6999 8.77472 7.5999 8.67472C7.4999 8.57472 7.4499 8.47472 7.4499 8.32472C7.4499 8.27472 7.4499 8.17472 7.4999 8.12472L9.8499 3.52472C9.8999 3.42472 9.9999 3.32472 10.0999 3.27472C10.1499 3.22472 10.1999 3.22472 10.2499 3.22472C10.2999 3.22472 10.3999 3.22472 10.4999 3.27472C10.5999 3.32472 10.6499 3.37472 10.6999 3.47472L12.9999 8.12472C13.0999 8.22472 13.0999 8.37472 13.0499 8.47472Z" fill="#2D373D"/>
</svg>
