<svg width="16" height="16" viewBox="0 0 16 16" fill="none" xmlns="http://www.w3.org/2000/svg">
<path d="M13.5002 1.94995H2.4502C2.1502 1.94995 1.9502 2.14995 1.9502 2.44995V13.5C1.9502 13.8 2.1502 14 2.4502 14H13.5002C13.8002 14 14.0002 13.8 14.0002 13.5V2.44995C14.0002 2.14995 13.8002 1.94995 13.5002 1.94995ZM13.0002 13H2.9502V2.94995H13.0002V13Z" fill="#2D373D"/>
<path d="M6.65024 10.2999C6.75024 10.3499 6.85024 10.3499 6.95024 10.3499C7.05024 10.3499 7.20024 10.2999 7.30024 10.2499L10.1502 8.7999C10.3002 8.6999 10.4502 8.5499 10.5502 8.3999C10.6502 8.1999 10.7002 7.9499 10.6002 7.6999C10.5502 7.4499 10.3502 7.2499 10.1502 7.1499L7.30024 5.7499C7.20024 5.6999 7.05024 5.6499 6.90024 5.6499C6.40024 5.6499 6.00024 6.0499 6.00024 6.5499V9.4499C6.00024 9.5999 6.05024 9.6999 6.10024 9.8499C6.25024 10.0499 6.40024 10.1999 6.65024 10.2999ZM7.00024 6.6999L9.60024 7.9999L7.00024 9.2999V6.6999Z" fill="#2D373D"/>
</svg>
