<svg width="64" height="65" viewBox="0 0 64 65" fill="none" xmlns="http://www.w3.org/2000/svg">
<path d="M50 43.8604C47.2 42.6604 45.4 39.8604 45.4 36.8604C45.4 36.6604 45.4 36.6604 45.4 36.6604C45.6 34.0604 47 31.6604 49.2 30.2604C49.8 30.0604 50 29.6604 50.2 29.0604C50.2 28.4604 50.2 27.8604 49.8 27.4604C47.6 24.2604 44 22.4604 40.4 22.2604C38 22.0604 35.6 23.0604 33.8 23.6604C33.2 23.8604 32.2 24.2604 32 24.2604C31.6 24.2604 30.8 23.8604 30 23.6604C28.6 23.0604 26.8 22.4604 24.8 22.4604C20.4 22.4604 16.4 25.0604 14.2 28.8604C10 35.8604 12.6 46.4604 17 52.8604C18.8 55.4604 21.4 59.2604 25.4 59.2604C25.6 59.2604 25.6 59.2604 25.4 59.0604C27.2 59.0604 28.4 58.4604 29.4 58.0604C30.4 57.6604 31.2 57.2604 32.6 57.2604C33.8 57.2604 34.6 57.6604 35.6 58.0604C36.8 58.4604 38 59.0604 39.8 59.0604C43.8 59.0604 46.4 55.2604 48 52.8604C49.4 50.8604 50.4 48.6604 51.2 46.2604C51.4 45.2604 51 44.2604 50 43.8604ZM45 50.8604C43.4 53.2604 41.8 55.2604 40 55.2604C39 55.2604 38.2 55.0604 37.4 54.6604C36.4 54.2604 35 53.6604 32.8 53.6604C30.6 53.6604 29.2 54.2604 28 54.6604C27.2 54.8604 26.6 55.2604 25.6 55.2604C23.8 55.2604 22 52.8604 20.4 50.6604C17.2 46.0604 14.4 36.8604 17.8 30.8604C19.4 28.2604 22.2 26.4604 25.2 26.4604C26.2 26.4604 27.6 27.0604 28.8 27.2604C30 27.8604 31 28.2604 32.2 28.2604C33.2 28.2604 34.2 27.8604 35.6 27.6604C37.2 27.0604 38.8 26.2604 40.6 26.4604C42.4 26.4604 44.2 27.2604 45.6 28.4604C43.2 30.6604 41.8 33.8604 41.8 37.0604V37.2604C41.8 41.2604 44 44.8604 47.2 46.8604C46.6 48.2604 45.8 49.6604 45 50.8604Z" fill="#2D373D"/>
<path d="M32 21.2602C35.4 21.2602 38.6 19.6602 40.8 16.8602C43 14.2602 44 10.8602 43.8 7.46016C43.6 6.86016 43.4 6.46016 43 6.06016C42.6 5.86016 42.2 5.66016 41.6 5.66016C38.2 6.06016 35.2 7.66016 33 10.0602C30.8 12.6602 29.6 16.0602 30 19.4602C30 20.4602 31 21.2602 32 21.2602ZM36 12.6602C37 11.6602 38.2 10.6602 39.6 10.2602C39.4 11.6602 38.8 13.0602 37.6 14.2602C36.8 15.4602 35.4 16.4602 34 16.8602C34.2 15.2602 35 13.8602 36 12.6602Z" fill="#2D373D"/>
</svg>
