<svg width="32" height="32" viewBox="0 0 32 32" fill="none" xmlns="http://www.w3.org/2000/svg">
<path d="M12.1343 6.53448C12.1343 5.76966 12.3611 5.02202 12.786 4.38609C13.2109 3.75017 13.8148 3.25452 14.5214 2.96184C15.228 2.66916 16.0056 2.59258 16.7557 2.74179C17.5058 2.89099 18.1949 3.25929 18.7357 3.8001C19.2765 4.34091 19.6448 5.02994 19.794 5.78007C19.9432 6.53019 19.8666 7.30772 19.5739 8.01432C19.2812 8.72092 18.7856 9.32486 18.1497 9.74978C17.5137 10.1747 16.7661 10.4015 16.0013 10.4015C14.9758 10.401 13.9926 9.99337 13.2675 9.26828C12.5424 8.54319 12.1348 7.55991 12.1343 6.53448ZM17.8673 6.53448C17.873 6.28573 17.829 6.03835 17.7378 5.80685C17.6466 5.57536 17.51 5.36444 17.3361 5.18647C17.1622 5.00851 16.9545 4.8671 16.7252 4.77056C16.4959 4.67401 16.2496 4.62428 16.0008 4.62428C15.752 4.62428 15.5057 4.67401 15.2763 4.77056C15.047 4.8671 14.8393 5.00851 14.6654 5.18647C14.4915 5.36444 14.355 5.57536 14.2638 5.80685C14.1725 6.03835 14.1285 6.28573 14.1343 6.53448C14.1285 6.78323 14.1725 7.03062 14.2638 7.26211C14.355 7.4936 14.4915 7.70453 14.6654 7.88249C14.8393 8.06045 15.047 8.20186 15.2763 8.29841C15.5057 8.39495 15.752 8.44469 16.0008 8.44469C16.2496 8.44469 16.4959 8.39495 16.7252 8.29841C16.9545 8.20186 17.1622 8.06045 17.3361 7.88249C17.51 7.70453 17.6466 7.4936 17.7378 7.26211C17.829 7.03062 17.873 6.78323 17.8673 6.53448Z" fill="#2D373D"/>
<path d="M12.1343 25.4676C12.1343 24.7028 12.3611 23.9551 12.786 23.3192C13.2109 22.6833 13.8148 22.1876 14.5214 21.8949C15.228 21.6023 16.0056 21.5257 16.7557 21.6749C17.5058 21.8241 18.1949 22.1924 18.7357 22.7332C19.2765 23.274 19.6448 23.9631 19.794 24.7132C19.9432 25.4633 19.8666 26.2408 19.5739 26.9474C19.2812 27.654 18.7856 28.258 18.1497 28.6829C17.5137 29.1078 16.7661 29.3346 16.0013 29.3346C14.9758 29.3341 13.9926 28.9265 13.2675 28.2014C12.5424 27.4763 12.1348 26.493 12.1343 25.4676ZM17.8673 25.4676C17.8673 25.0983 17.7578 24.7374 17.5526 24.4303C17.3475 24.1233 17.0559 23.884 16.7147 23.7427C16.3736 23.6014 15.9982 23.5644 15.636 23.6365C15.2739 23.7085 14.9412 23.8863 14.6801 24.1474C14.419 24.4085 14.2412 24.7412 14.1692 25.1034C14.0971 25.4655 14.1341 25.8409 14.2754 26.1821C14.4167 26.5232 14.656 26.8148 14.963 27.0199C15.2701 27.2251 15.631 27.3346 16.0003 27.3346C16.2471 27.3406 16.4926 27.2965 16.7218 27.2048C16.9511 27.1131 17.1593 26.9758 17.3339 26.8012C17.5085 26.6266 17.6458 26.4184 17.7375 26.1891C17.8291 25.9599 17.8733 25.7144 17.8673 25.4676Z" fill="#2D373D"/>
<path d="M12.1343 16.0015C12.1343 15.2367 12.3611 14.4891 12.786 13.8531C13.2109 13.2172 13.8148 12.7216 14.5214 12.4289C15.228 12.1362 16.0056 12.0596 16.7557 12.2088C17.5058 12.358 18.1949 12.7263 18.7357 13.2671C19.2765 13.808 19.6448 14.497 19.794 15.2471C19.9432 15.9972 19.8666 16.7748 19.5739 17.4814C19.2812 18.188 18.7856 18.7919 18.1497 19.2168C17.5137 19.6417 16.7661 19.8685 16.0013 19.8685C14.9758 19.868 13.9926 19.4604 13.2675 18.7353C12.5424 18.0102 12.1348 17.027 12.1343 16.0015ZM17.8673 16.0015C17.8673 15.6323 17.7578 15.2713 17.5526 14.9643C17.3475 14.6572 17.0559 14.418 16.7147 14.2766C16.3736 14.1353 15.9982 14.0984 15.636 14.1704C15.2739 14.2424 14.9412 14.4203 14.6801 14.6814C14.419 14.9425 14.2412 15.2751 14.1692 15.6373C14.0971 15.9995 14.1341 16.3748 14.2754 16.716C14.4167 17.0571 14.656 17.3487 14.963 17.5539C15.2701 17.759 15.631 17.8685 16.0003 17.8685C16.2471 17.8746 16.4926 17.8304 16.7218 17.7387C16.9511 17.647 17.1593 17.5097 17.3339 17.3351C17.5085 17.1605 17.6458 16.9523 17.7375 16.7231C17.8291 16.4938 17.8733 16.2483 17.8673 16.0015Z" fill="#2D373D"/>
</svg>
