<svg width="24" height="24" viewBox="0 0 24 24" fill="none" xmlns="http://www.w3.org/2000/svg">
<path d="M20.4001 4.0502C20.1001 3.7502 19.6501 3.7502 19.3501 4.0502L3.8251 18.9002C3.5251 19.2002 3.5251 19.6502 3.8251 19.9502C3.9751 20.1002 4.1251 20.1752 4.3501 20.1752C4.5751 20.1752 4.7251 20.1002 4.8751 20.0252L20.4001 5.1002C20.7001 4.8002 20.7001 4.3502 20.4001 4.0502Z" fill="#2D373D"/>
<path d="M21.5251 11.1752C20.7751 10.2752 19.8751 9.45017 18.9001 8.77517C18.6001 8.55017 18.0751 8.62517 17.8501 8.92517C17.6251 9.22517 17.7001 9.75017 18.0001 9.97517C18.8251 10.6502 19.6501 11.3252 20.4001 12.1502C20.6251 12.3752 20.6251 12.7502 20.4001 12.9752C18.4501 15.1502 15.2251 17.4752 12.0001 17.4002C11.2501 17.4752 10.5001 17.3252 9.75011 17.1002C9.30011 17.0252 8.85011 17.1752 8.77511 17.6252C8.70011 18.0752 8.92511 18.4502 9.30011 18.6002C10.1251 18.8252 11.0251 18.9752 11.9251 18.9752C12.0001 18.9752 12.0751 18.9752 12.1501 18.9752C15.7501 18.9752 19.3501 16.4252 21.5251 14.0252C22.2751 13.2002 22.2751 12.0002 21.5251 11.1752Z" fill="#2D373D"/>
<path d="M5.1751 16.2752C5.4001 16.2752 5.6251 16.2002 5.7751 15.9752C6.0001 15.6752 5.9251 15.1502 5.6251 14.9252C4.9501 14.4002 4.2001 13.7252 3.6001 12.9752C3.3751 12.7502 3.3751 12.3752 3.6001 12.1502C5.5501 9.9752 8.7751 7.6502 12.0001 7.7252C12.6001 7.7252 13.2001 7.8002 13.8001 7.9502C14.1751 8.1002 14.6251 7.8002 14.7001 7.4252C14.8501 7.0502 14.5501 6.6002 14.1751 6.5252C13.4251 6.3752 12.7501 6.3002 12.0001 6.3002C8.3251 6.2252 4.6501 8.7752 2.4751 11.1752C1.7251 12.0002 1.7251 13.2002 2.4751 14.0252C3.1501 14.7752 3.9001 15.5252 4.7251 16.1252C4.8751 16.2002 5.0251 16.2752 5.1751 16.2752Z" fill="#2D373D"/>
<path d="M8.17517 12.6003C8.17517 13.0503 8.47517 13.3503 8.92517 13.3503C9.30017 13.3503 9.67517 13.0503 9.67517 12.6003C9.67517 11.3253 10.7252 10.2753 12.0002 10.2753C12.4502 10.2753 12.7502 9.97527 12.7502 9.52527C12.7502 9.07527 12.4502 8.77527 12.0002 8.77527C9.90017 8.77527 8.17517 10.5003 8.17517 12.6003Z" fill="#2D373D"/>
<path d="M14.3251 12.6752C14.3251 13.2752 14.1001 13.8752 13.6501 14.3252C13.2001 14.7752 12.6001 15.0002 12.0001 15.0002V16.5002C13.0501 16.5002 13.9501 16.0502 14.7001 15.3752C15.4501 14.7002 15.8251 13.7252 15.8251 12.6752C15.8251 12.2252 15.5251 11.9252 15.0751 11.9252C14.6251 11.9252 14.3251 12.2252 14.3251 12.6752Z" fill="#2D373D"/>
</svg>
