<svg width="64" height="64" viewBox="0 0 64 64" fill="none" xmlns="http://www.w3.org/2000/svg">
<path d="M58.7999 32.6002C58.7999 32.4002 58.7999 32.2002 58.7999 32.0002C58.7999 31.6002 58.7999 31.2002 58.7999 30.8002C58.7999 30.4002 58.7999 30.2002 58.7999 29.8002C58.7999 29.2002 58.5999 28.6002 58.5999 28.2002V28.0002C56.5999 15.2002 45.3999 5.2002 31.9999 5.2002C19.3999 5.2002 8.79988 14.0002 5.99988 25.8002C5.79988 26.0002 5.79988 26.2002 5.59988 26.6002C3.59988 36.4002 7.19988 46.6002 15.1999 52.8002C15.3999 53.0002 15.5999 53.2002 15.7999 53.2002C20.1999 56.6002 25.7999 58.6002 31.9999 58.6002C41.9999 58.6002 50.5999 53.0002 55.1999 45.0002C55.3999 44.8002 55.3999 44.8002 55.5999 44.6002C57.7999 40.8002 58.7999 36.8002 58.7999 32.6002ZM54.1999 37.4002C54.1999 37.8002 53.9999 38.2002 53.9999 38.6002C53.7999 39.4002 53.3999 40.4002 52.9999 41.2002H49.9999C49.3999 41.2002 48.9999 40.8002 48.7999 40.2002L46.9999 29.8002C46.7999 29.0002 45.9999 28.2002 44.9999 28.2002H41.5999C41.3999 28.2002 41.1999 28.2002 41.1999 28.2002C40.7999 28.2002 40.5999 27.8002 40.3999 27.6002C39.9999 27.2002 39.9999 27.0002 39.9999 26.6002L41.5999 20.0002C41.5999 19.4002 42.1999 19.0002 42.7999 19.0002V18.8002H50.5999C53.1999 22.6002 54.7999 27.0002 54.7999 32.0002C54.7999 33.6002 54.5999 35.0002 54.3999 36.4002C54.3999 36.8002 54.1999 37.2002 54.1999 37.4002ZM16.7999 39.8002L15.1999 47.4002L14.9999 47.2002C14.5999 46.8002 14.1999 46.2002 13.7999 45.6002C13.5999 45.4002 13.5999 45.4002 13.3999 45.2002C12.9999 44.6002 12.5999 44.2002 12.3999 43.6002C12.3999 43.4002 12.1999 43.4002 12.1999 43.2002C11.7999 42.6002 11.3999 41.8002 11.1999 41.2002C9.59988 37.6002 8.99988 33.4002 9.39988 29.2002C9.39988 29.0002 9.39988 29.0002 9.39988 28.8002H19.7999C20.3999 28.8002 20.7999 29.2002 20.9999 29.8002L22.5999 36.4002C22.5999 36.6002 22.5999 36.6002 22.5999 36.8002C22.5999 37.2002 22.3999 37.6002 22.1999 37.8002C21.7999 38.0002 21.5999 38.2002 21.1999 38.2002H18.7999C17.7999 38.2002 16.9999 38.8002 16.7999 39.8002ZM31.9999 54.8002C26.9999 54.8002 22.5999 53.2002 18.7999 50.6002L20.3999 42.2002H21.1999C22.5999 42.2002 23.7999 41.6002 24.7999 40.6002C25.7999 39.6002 26.3999 38.2002 26.3999 36.8002C26.3999 36.4002 26.3999 36.0002 26.1999 35.6002L24.5999 29.0002C23.9999 26.6002 21.7999 25.0002 19.3999 25.0002H10.3999C13.3999 15.8002 21.7999 9.2002 31.9999 9.2002C37.7999 9.2002 43.1999 11.4002 47.3999 15.2002H42.7999C40.3999 15.2002 38.1999 16.8002 37.5999 19.2002L36.1999 25.8002C35.7999 27.2002 35.9999 28.6002 36.7999 29.8002C37.3999 31.0002 38.5999 31.8002 39.9999 32.2002C40.3999 32.4002 40.7999 32.4002 41.1999 32.4002H42.9999L44.3999 41.2002C44.7999 43.8002 46.9999 45.6002 49.5999 45.6002H50.1999C46.1999 51.2002 39.5999 54.8002 31.9999 54.8002Z" fill="#2D373D"/>
</svg>
