<svg width="16" height="17" viewBox="0 0 16 17" fill="none" xmlns="http://www.w3.org/2000/svg">
<path d="M8.40486 11.7738H6.98486C6.87055 11.3535 6.62214 10.982 6.2774 10.7158C5.93265 10.4496 5.51042 10.3032 5.07486 10.2988H2.98486V10.0638C2.98486 9.93122 2.93218 9.80404 2.83842 9.71028C2.74465 9.61651 2.61747 9.56383 2.48486 9.56383C2.35226 9.56383 2.22508 9.61651 2.13131 9.71028C2.03754 9.80404 1.98486 9.93122 1.98486 10.0638V14.4888C1.98486 14.6214 2.03754 14.7486 2.13131 14.8424C2.22508 14.9362 2.35226 14.9888 2.48486 14.9888C2.61747 14.9888 2.74465 14.9362 2.83842 14.8424C2.93218 14.7486 2.98486 14.6214 2.98486 14.4888V14.2488H9.87986C10.0125 14.2488 10.1396 14.1962 10.2334 14.1024C10.3272 14.0086 10.3799 13.8814 10.3799 13.7488C10.3734 13.227 10.1632 12.7284 9.79423 12.3595C9.42524 11.9905 8.92665 11.7803 8.40486 11.7738ZM2.98486 13.2488V11.2988H5.08486C5.34303 11.3012 5.59028 11.4033 5.77486 11.5838C5.82749 11.6425 5.87437 11.7062 5.91486 11.7738H5.08486C4.95225 11.7738 4.82508 11.8265 4.73131 11.9203C4.63754 12.014 4.58486 12.1412 4.58486 12.2738C4.58486 12.4064 4.63754 12.5336 4.73131 12.6274C4.82508 12.7212 4.95225 12.7738 5.08486 12.7738H8.40486C8.66373 12.7775 8.91107 12.8815 9.09486 13.0638C9.1501 13.1198 9.19875 13.1818 9.23986 13.2488H2.98486Z" fill="#2D373D"/>
<path d="M10.6449 8.98383C10.7939 8.83479 10.9122 8.65784 10.9929 8.4631C11.0735 8.26835 11.1151 8.05962 11.1151 7.84883C11.1151 7.63804 11.0735 7.42931 10.9929 7.23456C10.9122 7.03982 10.7939 6.86287 10.6449 6.71383C10.3389 6.42222 9.93251 6.25954 9.50986 6.25954C9.08722 6.25954 8.68079 6.42222 8.37486 6.71383C8.07384 7.01485 7.90473 7.42312 7.90473 7.84883C7.90473 8.27454 8.07384 8.68281 8.37486 8.98383C8.67588 9.28485 9.08416 9.45396 9.50986 9.45396C9.93557 9.45396 10.3438 9.28485 10.6449 8.98383ZM9.07986 8.27883C8.99588 8.19397 8.93888 8.08616 8.91604 7.96898C8.8932 7.85179 8.90554 7.73046 8.95152 7.62028C8.99749 7.51009 9.07504 7.41597 9.17439 7.34977C9.27375 7.28357 9.39047 7.24824 9.50986 7.24824C9.62925 7.24824 9.74598 7.28357 9.84533 7.34977C9.94469 7.41597 10.0222 7.51009 10.0682 7.62028C10.1142 7.73046 10.1265 7.85179 10.1037 7.96898C10.0809 8.08616 10.0238 8.19397 9.93986 8.27883C9.82376 8.3889 9.66985 8.45026 9.50986 8.45026C9.34987 8.45026 9.19597 8.3889 9.07986 8.27883Z" fill="#2D373D"/>
<path d="M13.9849 9.37383C13.9287 9.08109 13.7689 8.81839 13.5349 8.63383L12.9599 8.18383C12.9849 7.9612 12.9849 7.73646 12.9599 7.51383L13.5349 7.06383C13.77 6.88019 13.93 6.61706 13.9849 6.32383C14.0406 6.03066 13.9891 5.72724 13.8399 5.46883L13.7449 5.30383C13.5942 5.04543 13.3568 4.8488 13.0749 4.74883C12.796 4.6441 12.4887 4.6441 12.2099 4.74883L11.4849 5.04883C11.3077 4.9222 11.1184 4.81334 10.9199 4.72383L10.8349 3.98883C10.7922 3.69249 10.645 3.42116 10.4199 3.22383C10.1945 3.02998 9.90709 2.92352 9.60986 2.92383H9.40986C9.11191 2.92446 8.82423 3.03278 8.59986 3.22883C8.37677 3.42364 8.22977 3.69108 8.18486 3.98383L8.07986 4.71883C7.88019 4.80815 7.69075 4.91879 7.51486 5.04883L6.82486 4.77383C6.54604 4.6691 6.23869 4.6691 5.95986 4.77383C5.67915 4.87329 5.44211 5.06787 5.28986 5.32383L5.19486 5.49383C5.04605 5.75239 4.99462 6.05566 5.04986 6.34883C5.10475 6.64206 5.26476 6.90519 5.49986 7.08883L6.07486 7.53883C6.04985 7.76146 6.04985 7.9862 6.07486 8.20883L5.49986 8.65883C5.42287 8.74759 5.3796 8.86062 5.37763 8.9781C5.37567 9.09558 5.41514 9.21 5.48912 9.30128C5.5631 9.39256 5.66686 9.45487 5.7822 9.47728C5.89754 9.49969 6.01709 9.48077 6.11986 9.42383L6.91986 8.79383C6.99473 8.73643 7.05183 8.65902 7.08456 8.57054C7.1173 8.48207 7.12434 8.38613 7.10486 8.29383C7.04493 7.99851 7.04493 7.69415 7.10486 7.39883C7.12434 7.30652 7.1173 7.21059 7.08456 7.12212C7.05183 7.03364 6.99473 6.95623 6.91986 6.89883L6.11986 6.26883C6.07275 6.23348 6.04063 6.18173 6.02986 6.12383C6.01904 6.06862 6.02977 6.01136 6.05986 5.96383L6.15986 5.79383C6.18593 5.74253 6.23066 5.70316 6.28486 5.68383C6.34016 5.66621 6.39957 5.66621 6.45486 5.68383L7.40986 6.06883C7.49321 6.10054 7.58352 6.10938 7.67144 6.09443C7.75936 6.07948 7.84167 6.0413 7.90986 5.98383C8.13828 5.78474 8.40318 5.63191 8.68986 5.53383C8.77618 5.5037 8.85259 5.45048 8.91077 5.37995C8.96895 5.30943 9.00668 5.2243 9.01986 5.13383L9.16486 4.13383C9.17501 4.07807 9.20311 4.02715 9.24486 3.98883C9.28926 3.94644 9.34849 3.92311 9.40986 3.92383H9.60986C9.66711 3.92428 9.72223 3.94562 9.76486 3.98383C9.80662 4.02215 9.83471 4.07307 9.84486 4.12883L9.98986 5.12883C10.003 5.2193 10.0408 5.30443 10.099 5.37495C10.1571 5.44548 10.2335 5.4987 10.3199 5.52883C10.6056 5.62892 10.8702 5.78154 11.0999 5.97883C11.1681 6.0363 11.2504 6.07448 11.3383 6.08943C11.4262 6.10438 11.5165 6.09554 11.5999 6.06383L12.5549 5.67883C12.6085 5.66127 12.6663 5.66127 12.7199 5.67883C12.7745 5.69952 12.8204 5.73835 12.8499 5.78883L12.9449 5.95883C12.9743 6.00769 12.9849 6.06557 12.9748 6.12168C12.9646 6.17779 12.9345 6.22832 12.8899 6.26383L12.0999 6.92383C12.0259 6.98183 11.9698 7.0595 11.9379 7.14794C11.9061 7.23637 11.8998 7.33199 11.9199 7.42383C11.9799 7.72082 11.9799 8.02684 11.9199 8.32383C11.8998 8.41566 11.9061 8.51128 11.9379 8.59972C11.9698 8.68816 12.0259 8.76583 12.0999 8.82383L12.9049 9.42383C12.9494 9.45848 12.9797 9.50831 12.9899 9.56383C12.9992 9.62009 12.9904 9.67785 12.9649 9.72883L12.8649 9.89883C12.8352 9.94798 12.7892 9.98514 12.7349 10.0038C12.6817 10.0238 12.6231 10.0238 12.5699 10.0038L11.6099 9.61883C11.5265 9.58712 11.4362 9.57828 11.3483 9.59323C11.2604 9.60817 11.1781 9.64636 11.1099 9.70383C10.8814 9.90291 10.6165 10.0557 10.3299 10.1538C10.2435 10.184 10.1671 10.2372 10.109 10.3077C10.0508 10.3782 10.013 10.4634 9.99986 10.5538L9.91986 11.1038C9.90132 11.2351 9.93567 11.3684 10.0154 11.4743C10.0951 11.5803 10.2136 11.6502 10.3449 11.6688H10.4149C10.5362 11.67 10.6538 11.6271 10.7458 11.5479C10.8378 11.4688 10.8979 11.359 10.9149 11.2388L10.9549 10.9788C11.1424 10.8873 11.32 10.7768 11.4849 10.6488L12.1749 10.9288C12.4541 11.0313 12.7606 11.0313 13.0399 10.9288C13.3227 10.848 13.5673 10.669 13.7299 10.4238L13.8299 10.2538C13.9914 9.99083 14.0468 9.6762 13.9849 9.37383Z" fill="#2D373D"/>
</svg>
