<svg width="16" height="16" viewBox="0 0 16 16" fill="none" xmlns="http://www.w3.org/2000/svg">
<path d="M3.97827 9.28791C4.33437 9.28791 4.62304 8.99961 4.62304 8.64396C4.62304 8.28831 4.33437 8 3.97827 8C3.62217 8 3.3335 8.28831 3.3335 8.64396C3.3335 8.99961 3.62217 9.28791 3.97827 9.28791Z" fill="#2D373D"/>
<path fill-rule="evenodd" clip-rule="evenodd" d="M7.32019 8.92267C7.59634 8.92267 7.82019 9.14652 7.82019 9.42267V12.131H9.06378V10.2977C9.06378 10.0165 9.17098 9.74317 9.36765 9.53863C9.56496 9.33343 9.83685 9.21433 10.1247 9.21433H10.6856C10.9734 9.21433 11.2453 9.33343 11.4426 9.53863C11.6393 9.74317 11.7465 10.0165 11.7465 10.2977V12.131H12.9901V9.42267C12.9901 9.14652 13.2139 8.92267 13.4901 8.92267C13.7662 8.92267 13.9901 9.14652 13.9901 9.42267V12.631C13.9901 12.9071 13.7662 13.131 13.4901 13.131H11.2465C10.9703 13.131 10.7465 12.9071 10.7465 12.631V10.2977C10.7465 10.2694 10.7355 10.246 10.7218 10.2317C10.7087 10.2182 10.6953 10.2143 10.6856 10.2143H10.1247C10.115 10.2143 10.1016 10.2182 10.0885 10.2317C10.0748 10.246 10.0638 10.2694 10.0638 10.2977V12.631C10.0638 12.9071 9.83993 13.131 9.56378 13.131H7.32019C7.04405 13.131 6.82019 12.9071 6.82019 12.631V9.42267C6.82019 9.14652 7.04405 8.92267 7.32019 8.92267Z" fill="#2D373D"/>
<path fill-rule="evenodd" clip-rule="evenodd" d="M10.4051 5.20596C10.3999 5.20596 10.3943 5.207 10.3883 5.20957C10.3823 5.21216 10.3755 5.21652 10.3689 5.22338L6.55882 9.18589C6.36742 9.38494 6.0509 9.39115 5.85185 9.19975C5.65279 9.00836 5.64659 8.69183 5.83798 8.49278L9.64786 4.53051C9.6479 4.53047 9.64782 4.53055 9.64786 4.53051C9.74542 4.42901 9.86242 4.34729 9.99251 4.29123C10.1227 4.23512 10.263 4.20596 10.4051 4.20596C10.5473 4.20596 10.6876 4.23512 10.8178 4.29123C10.9478 4.34729 11.0647 4.42891 11.1623 4.5304C11.1623 4.53044 11.1623 4.53037 11.1623 4.5304L14.9723 8.49278C15.1637 8.69183 15.1575 9.00836 14.9584 9.19975C14.7594 9.39115 14.4428 9.38494 14.2514 9.18589L10.4415 5.2235C10.4349 5.21663 10.428 5.21216 10.422 5.20957C10.416 5.207 10.4103 5.20596 10.4051 5.20596Z" fill="#2D373D"/>
<path d="M10.7954 2.66667H5.48425C5.11493 2.66626 4.75434 2.77894 4.45097 2.98957C4.15779 3.19586 3.93454 3.4867 3.81104 3.82324L2.79538 6.02482C2.49798 6.13699 2.22781 6.31109 2.0028 6.53559C1.78931 6.74898 1.62024 7.00257 1.50536 7.2817C1.39048 7.56084 1.33207 7.85998 1.33352 8.16183V9.54736C1.33495 9.90828 1.47836 10.2541 1.73274 10.5102L1.79732 10.563V11.3849C1.78942 11.6605 1.86569 11.932 2.01597 12.1631C2.16625 12.3942 2.38339 12.574 2.63847 12.6786C2.89355 12.7832 3.17445 12.8076 3.44372 12.7485C3.71299 12.6894 3.95786 12.5496 4.14568 12.3478C4.2727 12.2217 4.3734 12.0717 4.44194 11.9064C4.51047 11.7411 4.54547 11.5639 4.5449 11.3849V10.8977H6.10133C6.21811 10.8977 6.3301 10.8513 6.41268 10.7687C6.49526 10.6861 6.54165 10.5741 6.54165 10.4573C6.54165 10.3406 6.49526 10.2286 6.41268 10.146C6.3301 10.0634 6.21811 10.017 6.10133 10.017H2.69557C2.5699 10.0171 2.4492 9.96796 2.35924 9.8802C2.26929 9.79245 2.21722 9.67299 2.21416 9.54736V8.16183C2.21338 7.97812 2.24899 7.79607 2.31894 7.6262C2.38888 7.45632 2.49177 7.30198 2.62168 7.17207C2.75158 7.04217 2.90592 6.93928 3.0758 6.86933C3.24567 6.79939 3.42772 6.76378 3.61143 6.76455H6.51555C6.63233 6.76455 6.74432 6.71816 6.8269 6.63559C6.90947 6.55301 6.95586 6.44102 6.95586 6.32424C6.95586 6.20746 6.90947 6.09546 6.8269 6.01289C6.74432 5.93031 6.63233 5.88392 6.51555 5.88392H3.81104L4.60948 4.15201C4.67523 3.97384 4.79409 3.82014 4.94999 3.71169C5.10806 3.60559 5.29388 3.54841 5.48425 3.5473H10.7954C10.9122 3.5473 11.0242 3.50091 11.1068 3.41834C11.1894 3.33576 11.2357 3.22377 11.2357 3.10699C11.2357 2.99021 11.1894 2.87821 11.1068 2.79563C11.0242 2.71306 10.9122 2.66667 10.7954 2.66667ZM3.63491 11.3732C3.63383 11.4673 3.60522 11.5589 3.55262 11.6369C3.50001 11.7149 3.42572 11.7757 3.33892 11.812C3.25211 11.8482 3.1566 11.8582 3.06418 11.8407C2.97175 11.8233 2.88647 11.7791 2.81886 11.7137C2.77363 11.6694 2.73783 11.6164 2.71362 11.5579C2.6894 11.4993 2.67727 11.4365 2.67796 11.3732V10.8918H3.63491V11.3732Z" fill="#2D373D"/>
</svg>
