<svg width="16" height="17" viewBox="0 0 16 17" fill="none" xmlns="http://www.w3.org/2000/svg">
<path d="M8.38376 8.46161L10.6838 6.1616C10.8838 5.9616 10.8838 5.6616 10.6838 5.4616C10.4838 5.2616 10.1838 5.2616 9.98376 5.4616L7.33376 8.11161C7.13376 8.31161 7.13376 8.61161 7.33376 8.81161L9.98376 11.5116C10.0838 11.6116 10.1838 11.6616 10.3338 11.6616C10.4838 11.6616 10.5838 11.6116 10.6838 11.5116C10.8838 11.3116 10.8838 11.0116 10.6838 10.8116L8.38376 8.46161Z" fill="#2D373D"/>
<path fill-rule="evenodd" clip-rule="evenodd" d="M5.3335 5.29492C5.60964 5.29492 5.8335 5.51878 5.8335 5.79492V11.1283C5.8335 11.4044 5.60964 11.6283 5.3335 11.6283C5.05735 11.6283 4.8335 11.4044 4.8335 11.1283V5.79492C4.8335 5.51878 5.05735 5.29492 5.3335 5.29492Z" fill="#2D373D"/>
</svg>
