<svg width="32" height="33" viewBox="0 0 32 33" fill="none" xmlns="http://www.w3.org/2000/svg">
<path fill-rule="evenodd" clip-rule="evenodd" d="M26.3333 23.108C26.3333 24.5661 25.1655 25.7746 23.6923 25.7746H5.64103C4.16791 25.7746 3 24.5661 3 23.108L3 13.108C3 11.6499 4.1679 10.4413 5.64103 10.4413L23.6923 10.4413C25.1655 10.4413 26.3333 11.6499 26.3333 13.108V23.108ZM23.6923 23.7746C24.0318 23.7746 24.3333 23.4908 24.3333 23.108V13.108C24.3333 12.7251 24.0318 12.4413 23.6923 12.4413L5.64103 12.4413C5.30159 12.4413 5 12.7251 5 13.108L5 23.108C5 23.4908 5.30158 23.7746 5.64103 23.7746H23.6923Z" fill="#2D373D"/>
<path fill-rule="evenodd" clip-rule="evenodd" d="M28.7843 20.7943C29.3366 20.7943 29.7843 20.3465 29.7843 19.7943V9.99035C29.7843 9.31963 29.5179 8.67617 29.0435 8.20175C28.5691 7.72732 27.9256 7.46094 27.2549 7.46094L8.66666 7.46094C8.11438 7.46094 7.66666 7.90865 7.66666 8.46094C7.66666 9.01322 8.11438 9.46094 8.66666 9.46094L27.2549 9.46094C27.3954 9.46094 27.5301 9.51675 27.6293 9.61596C27.7285 9.71517 27.7843 9.84987 27.7843 9.99035V19.7943C27.7843 20.3465 28.232 20.7943 28.7843 20.7943Z" fill="#2D373D"/>
<path d="M13.1647 14.2068C13.3533 13.9569 13.6605 13.7943 14.0074 13.7943C14.3501 13.7943 14.654 13.953 14.8431 14.1978C15.0871 14.235 15.3377 14.2878 15.5935 14.3563C16.127 14.4991 16.4437 15.0474 16.3009 15.5809C16.1581 16.1144 15.6098 16.4311 15.0763 16.2882C13.5311 15.8746 13.0749 16.3664 13.0266 16.4445C12.9935 16.4979 12.9962 16.5361 13.0082 16.5676C13.0198 16.598 13.0707 16.6954 13.2691 16.7712L13.3068 16.7857L14.727 17.4646L14.7021 17.5166L15.5809 17.9367L15.6138 17.9557C16.8162 18.6473 17.5219 20.2031 16.5579 21.4605C16.202 21.9247 15.6978 22.2295 15.0817 22.3837C14.9662 22.8115 14.5598 23.1276 14.0762 23.1276C13.609 23.1276 13.2139 22.8326 13.0834 22.4267C12.6429 22.3596 12.1784 22.2484 11.6963 22.0948C11.1701 21.9271 10.8795 21.3645 11.0472 20.8383C11.2149 20.3121 11.7774 20.0215 12.3036 20.1892C14.2922 20.823 14.9059 20.328 14.9707 20.2436C14.9959 20.2108 15.0132 20.1697 14.9874 20.0864C14.9595 19.9959 14.8688 19.8426 14.6447 19.706L13.3001 19.0632L13.325 19.0112L12.513 18.623C11.8665 18.364 11.3713 17.8893 11.139 17.279C10.9022 16.6569 10.9698 15.967 11.3262 15.3916C11.7158 14.7623 12.3587 14.3638 13.1647 14.2068Z" fill="#2D373D"/>
</svg>
