<svg width="24" height="24" viewBox="0 0 24 24" fill="none" xmlns="http://www.w3.org/2000/svg">
<path d="M18.6202 3.10138C18.9375 2.98702 19.2807 2.9653 19.6099 3.03876C19.9394 3.1123 20.2412 3.27818 20.4798 3.51697C20.7185 3.75577 20.8842 4.0576 20.9576 4.38715C21.0309 4.7165 21.0089 5.0599 20.8942 5.37721C19.9093 8.11433 17.8278 13.1909 14.9191 16.0996C13.3236 17.6951 11.3479 17.9421 9.7085 18.0934C9.58566 18.1047 9.46535 18.1154 9.34741 18.126C8.64911 18.1882 8.03381 18.2431 7.46902 18.3723C6.82768 18.5189 6.32766 18.7472 5.94073 19.1342C5.90636 19.1685 5.86949 19.1989 5.8307 19.2252L4.28031 20.7755C3.98741 21.0684 3.51254 21.0683 3.21965 20.7754C2.92677 20.4825 2.92678 20.0077 3.21969 19.7148L15.3061 7.62914C15.599 7.33625 16.0738 7.33627 16.3667 7.62917C16.6596 7.92207 16.6596 8.39695 16.3667 8.68983L8.3399 16.7161C8.63924 16.6825 8.93882 16.656 9.23114 16.6302C9.34539 16.6201 9.45909 16.61 9.57068 16.5997C11.2052 16.4489 12.6769 16.2205 13.8585 15.0389C16.5037 12.3936 18.4942 7.61699 19.483 4.86876L19.4835 4.86757C19.5014 4.81805 19.5048 4.76446 19.4934 4.71306C19.4819 4.66166 19.4561 4.61458 19.4189 4.57734C19.3817 4.54009 19.3346 4.51422 19.2832 4.50275C19.2318 4.49128 19.1782 4.49469 19.1287 4.51257L19.1277 4.51292C17.7742 4.99956 15.8855 5.74542 13.9997 6.70697C12.1051 7.67304 10.2588 8.83422 8.95641 10.1373L8.95101 10.1427C8.20979 10.8694 7.73433 11.824 7.60098 12.8533C7.56211 13.1897 7.56926 13.5297 7.62225 13.8641C7.68707 14.2732 7.40797 14.6574 6.99885 14.7222C6.58974 14.7871 6.20555 14.508 6.14073 14.0989C6.06609 13.6278 6.05629 13.1488 6.1116 12.6751L6.11261 12.6664C6.28798 11.3026 6.91691 10.0374 7.89813 9.07427C9.36232 7.61022 11.3675 6.36538 13.3183 5.37066C15.2792 4.37083 17.2311 3.60085 18.6202 3.10138Z" fill="#2D373D"/>
<path d="M8.71207 19.5047C8.29785 19.5047 7.96207 19.8405 7.96207 20.2547C7.96207 20.6689 8.29785 21.0047 8.71207 21.0047H18.0668C18.4811 21.0047 18.8168 20.6689 18.8168 20.2547C18.8168 19.8405 18.4811 19.5047 18.0668 19.5047H8.71207Z" fill="#2D373D"/>
</svg>
