<svg width="24" height="25" viewBox="0 0 24 25" fill="none" xmlns="http://www.w3.org/2000/svg">
<path fill-rule="evenodd" clip-rule="evenodd" d="M19.3163 19.8134C19.3018 19.8277 19.3018 19.8421 19.3018 19.8421L19.309 19.8349L19.789 20.4027C20.1527 20.834 20.2254 21.4234 19.9854 21.9337C19.7454 22.444 19.2363 22.7602 18.669 22.7602H5.39629C4.81447 22.7602 4.28356 22.4224 4.05811 21.8906C3.83265 21.3587 3.94174 20.7477 4.34901 20.3309L4.76356 19.8996C3.02538 18.0884 2.05811 15.6949 2.05811 13.1721C2.05811 10.369 3.27265 7.69528 5.38901 5.83371C7.50539 3.97215 10.349 3.09528 13.1927 3.4259C17.7308 3.95059 21.3818 7.58746 21.869 12.0724C22.1818 14.9187 21.2508 17.7434 19.3163 19.8134ZM5.81811 20.8987L5.40356 21.3299H18.669L18.1818 20.7549C17.709 20.1943 17.7381 19.3893 18.2472 18.8431C19.9199 17.0462 20.6908 14.7031 20.4218 12.2306C20.0072 8.40684 16.8945 5.30184 13.0254 4.85621C12.6763 4.82028 12.3272 4.79871 11.9854 4.79871C9.90539 4.79871 7.93448 5.53184 6.36356 6.91184C4.55265 8.50028 3.51992 10.7787 3.51992 13.1721C3.51992 15.3284 4.34901 17.3696 5.83992 18.9293C6.36356 19.4827 6.35629 20.3452 5.81811 20.8987ZM11.9999 6.95503C14.938 6.95503 17.4253 8.87409 18.2544 11.5119L18.2471 11.5191C18.4362 12.1228 18.538 12.7625 18.538 13.4309C18.538 16.9959 15.5999 19.8997 11.9926 19.8997C10.3708 19.8997 8.88714 19.3103 7.74532 18.34C7.73805 18.3328 7.7235 18.3256 7.70896 18.3184C7.70168 18.3112 7.69805 18.3041 7.69441 18.2969C7.69077 18.2897 7.68714 18.2825 7.67987 18.2753C6.31987 17.0894 5.45441 15.3572 5.45441 13.4237C5.45441 12.7625 5.55623 12.1156 5.74532 11.5119C6.57441 8.87409 9.06168 6.95503 11.9999 6.95503ZM14.1162 12.0294L16.5962 11.2675H16.589C15.8762 9.77969 14.4362 8.6944 12.7271 8.45003V11.0303C13.3017 11.2028 13.789 11.5478 14.1162 12.0294ZM12.0071 12.3456C11.4035 12.3456 10.9162 12.8272 10.9162 13.4237C10.9162 14.0203 11.4035 14.5019 12.0071 14.5019C12.6108 14.5019 13.098 14.0203 13.098 13.4237C13.098 12.8272 12.6108 12.3456 12.0071 12.3456ZM11.2799 11.0231V8.45003L11.2726 8.44284C9.5635 8.68722 8.13077 9.7725 7.41077 11.2603L9.89078 12.0222C10.218 11.5478 10.7126 11.1956 11.2799 11.0231ZM6.97441 12.6403C6.93805 12.8991 6.90896 13.1578 6.90896 13.4237V13.4309C6.90896 14.6816 7.38168 15.8316 8.15259 16.7156L9.85441 14.775C9.60714 14.3869 9.45441 13.9269 9.45441 13.4309V13.4022L6.97441 12.6403ZM10.9526 15.7094L9.25077 17.65C10.0435 18.1603 10.9599 18.455 11.9999 18.455C13.0399 18.455 13.9999 18.1459 14.8071 17.6212L13.1053 15.6806C12.7708 15.8387 12.3999 15.9394 11.9999 15.9394C11.6217 15.9394 11.2726 15.8531 10.9526 15.7094ZM14.5453 13.4166C14.5453 13.8909 14.3999 14.3294 14.1744 14.7031L15.8908 16.6581V16.6437C16.6399 15.7741 17.0908 14.6384 17.0908 13.4094C17.0908 13.1434 17.069 12.8847 17.0253 12.6259L14.5453 13.3878V13.4166Z" fill="#2D373D"/>
</svg>
