<svg width="32" height="33" viewBox="0 0 32 33" fill="none" xmlns="http://www.w3.org/2000/svg">
<path d="M28.3335 28.9215C28.0801 28.9215 27.8268 28.8281 27.6268 28.6281L27.4668 28.4548C24.3735 25.1215 20.5868 24.6281 16.5201 27.0148C7.80013 32.1481 2.89346 25.0148 2.84013 24.9481C2.53346 24.4948 2.65346 23.8681 3.12013 23.5615C3.58679 23.2548 4.20013 23.3748 4.50679 23.8415C4.66679 24.0681 8.44013 29.4548 15.4935 25.2948C20.4001 22.4015 25.1735 23.0415 28.9335 27.0948L29.0401 27.2148C29.4268 27.6015 29.4268 28.2415 29.0401 28.6281C28.8401 28.8281 28.5868 28.9215 28.3335 28.9215Z" fill="#2D373D"/>
<path d="M28.3335 19.6948C28.0801 19.6948 27.8268 19.6015 27.6268 19.4015L27.4668 19.2281C24.3735 15.8948 20.5868 15.4015 16.5201 17.7881C7.80013 22.9215 2.89346 15.7881 2.84013 15.7215C2.53346 15.2548 2.65346 14.6415 3.12013 14.3348C3.58679 14.0281 4.20013 14.1481 4.50679 14.6148C4.66679 14.8415 8.44013 20.2281 15.4935 16.0681C20.4001 13.1748 25.1735 13.8148 28.9335 17.8681L29.0401 17.9881C29.4268 18.3748 29.4268 19.0148 29.0401 19.4015C28.8401 19.6015 28.5868 19.6948 28.3335 19.6948Z" fill="#2D373D"/>
<path d="M28.3335 10.4456C28.0802 10.4456 27.8268 10.3522 27.6268 10.1522L27.4668 9.97891C24.3735 6.64558 20.5868 6.15225 16.5202 8.55225C7.80016 13.6989 2.8935 6.55225 2.84016 6.48558C2.5335 6.01891 2.6535 5.40558 3.12016 5.09891C3.58683 4.79225 4.20016 4.91225 4.50683 5.37891C4.66683 5.60558 8.44016 10.9922 15.4935 6.83225C20.4002 3.93891 25.1735 4.57891 28.9335 8.63225L29.0402 8.75225C29.4268 9.13891 29.4268 9.77891 29.0402 10.1656C28.8402 10.3656 28.5868 10.4589 28.3335 10.4589V10.4456Z" fill="#2D373D"/>
</svg>
