<svg width="16" height="17" viewBox="0 0 16 17" fill="none" xmlns="http://www.w3.org/2000/svg">
<path fill-rule="evenodd" clip-rule="evenodd" d="M9.66667 8.08724C9.66667 9.00771 8.92048 9.75391 8 9.75391C7.07953 9.75391 6.33333 9.00771 6.33333 8.08724C6.33333 7.16677 7.33333 5.08724 8 5.08724C8.66667 5.08724 9.66667 7.16677 9.66667 8.08724ZM8.66667 8.08724C8.66667 8.45543 8.36819 8.75391 8 8.75391C7.63181 8.75391 7.33333 8.45543 7.33333 8.08724C7.33333 8.00773 7.3612 7.81903 7.45212 7.5359C7.53791 7.26872 7.661 6.9756 7.80207 6.70688C7.86922 6.57897 7.93617 6.46477 8 6.36644C8.06383 6.46477 8.13078 6.57897 8.19793 6.70688C8.339 6.9756 8.46209 7.26872 8.54788 7.5359C8.6388 7.81903 8.66667 8.00773 8.66667 8.08724Z" fill="#2D373D"/>
<path fill-rule="evenodd" clip-rule="evenodd" d="M8.00002 2.25391C6.61603 2.25391 5.71056 2.47001 5.11114 2.73375C4.55099 2.98021 4.28128 3.26052 4.17317 3.37287C4.16282 3.38363 4.15395 3.39285 4.14645 3.40035C4.05268 3.49412 4 3.6213 4 3.75391V11.5872C4 11.7917 4.12448 11.9755 4.3143 12.0515C4.4589 12.1093 4.63087 12.1689 4.83333 12.2265V13.2539C4.83333 13.4211 4.91688 13.5772 5.05598 13.6699C5.30297 13.8346 5.71152 13.9753 6.18791 14.0764C6.38425 14.118 6.60028 14.1546 6.83333 14.1836V15.0897C6.83333 15.3658 7.05719 15.5897 7.33333 15.5897C7.60948 15.5897 7.83333 15.3658 7.83333 15.0897V14.2525C7.88835 14.2534 7.94391 14.2539 8 14.2539C8.1069 14.2539 8.21189 14.2522 8.31482 14.249V15.0897C8.31482 15.3658 8.53867 15.5897 8.81482 15.5897C9.09096 15.5897 9.31482 15.3658 9.31482 15.0897V14.1638C9.49184 14.1386 9.65803 14.109 9.81209 14.0764C10.2885 13.9753 10.697 13.8346 10.944 13.6699C11.0831 13.5772 11.1667 13.4211 11.1667 13.2539V12.2265C11.3691 12.1689 11.5411 12.1093 11.6857 12.0515C11.8755 11.9755 12 11.7917 12 11.5872V3.75391C12 3.6213 11.9473 3.49412 11.8536 3.40035C11.8461 3.39291 11.8373 3.38377 11.8271 3.37311C11.719 3.26076 11.449 2.98021 10.8889 2.73375C10.2895 2.47001 9.384 2.25391 8.00002 2.25391ZM5.83333 12.9411V12.4392C6.41068 12.5277 7.12478 12.5872 8.00002 12.5872C8.87524 12.5872 9.58933 12.5277 10.1667 12.4392V12.9411C10.033 12.9908 9.84626 13.0469 9.60458 13.0981C9.18156 13.1879 8.63304 13.2539 8 13.2539C7.36696 13.2539 6.81844 13.1879 6.39542 13.0981C6.15374 13.0469 5.96695 12.9908 5.83333 12.9411ZM5 11.233V3.96336C5.10225 3.87364 5.25909 3.76117 5.51388 3.64906C5.95613 3.45447 6.71733 3.25391 8.00002 3.25391C9.2827 3.25391 10.0439 3.45447 10.4861 3.64906C10.7409 3.76117 10.8977 3.87364 11 3.96336V11.233C10.4401 11.4052 9.49123 11.5872 8.00002 11.5872C6.5088 11.5872 5.55989 11.4052 5 11.233Z" fill="#2D373D"/>
</svg>
