<svg width="16" height="17" viewBox="0 0 16 17" fill="none" xmlns="http://www.w3.org/2000/svg">
<path d="M12.0502 6.11211H10.3502V4.41211C10.3502 3.31211 9.5002 2.41211 8.4002 2.41211H7.6502C6.5502 2.41211 5.6502 3.31211 5.6502 4.41211V6.06211H3.9502C2.8502 6.06211 1.9502 6.96211 1.9502 8.06211V8.81211C2.0002 9.86211 2.8502 10.7621 3.9502 10.7621H5.6002V12.4621C5.6002 13.5621 6.5002 14.4621 7.6002 14.4621H8.3502C9.4502 14.4621 10.3502 13.6121 10.3502 12.5121V10.8121H12.0502C13.1502 10.8121 14.0502 9.96211 14.0502 8.86211V8.11211C14.0502 7.01211 13.1502 6.11211 12.0502 6.11211ZM13.1002 8.86211C13.1002 9.36211 12.6502 9.81211 12.1002 9.81211H9.9002C9.6002 9.81211 9.4002 10.0121 9.4002 10.3121V12.5121C9.4002 13.0621 8.9502 13.5121 8.4002 13.5121H7.6502C7.1002 13.5121 6.6502 13.0621 6.6502 12.5121V10.3121C6.6502 10.0121 6.4502 9.81211 6.1502 9.81211H3.9502C3.4002 9.81211 2.9502 9.41211 2.9502 8.86211V8.11211C2.9502 7.56211 3.4002 7.11211 3.9502 7.11211H6.2002C6.5002 7.11211 6.7002 6.91211 6.7002 6.61211V4.41211C6.7002 3.86211 7.1502 3.41211 7.7002 3.41211H8.4502C8.9502 3.46211 9.4002 3.86211 9.4002 4.41211V6.61211C9.4002 6.91211 9.6002 7.11211 9.9002 7.11211H12.1002C12.6502 7.11211 13.1002 7.56211 13.1002 8.11211V8.86211Z" fill="#2D373D"/>
</svg>
