<svg width="64" height="65" viewBox="0 0 64 65" fill="none" xmlns="http://www.w3.org/2000/svg">
<path d="M47.9998 8.26172H15.5998C13.5998 8.26172 11.5998 9.06172 10.1998 10.6617C8.5998 12.2617 7.7998 14.0617 7.7998 16.2617V33.8617C7.7998 38.2617 11.3998 41.8617 15.5998 41.8617C16.7998 41.8617 17.5998 41.0617 17.5998 39.8617C17.5998 38.6617 16.7998 37.8617 15.5998 37.8617C13.5998 37.8617 11.7998 36.2617 11.7998 34.0617V16.2617C11.7998 15.0617 11.9998 14.2617 12.7998 13.4617C13.5998 12.6617 14.5998 12.2617 15.5998 12.2617H47.9998C50.1998 12.2617 51.9998 14.0617 51.9998 16.2617V34.0617C51.9998 35.0617 51.5998 35.8617 50.9998 36.6617C50.1998 37.4617 50.3998 38.6617 51.1998 39.4617C51.9998 40.2617 53.1998 40.0617 53.9998 39.2617C55.3998 37.8617 55.9998 36.0617 55.9998 34.0617V16.2617C55.9998 11.8617 52.3998 8.26172 47.9998 8.26172Z" fill="#2D373D"/>
<path d="M44.9996 35.0619L38.3996 33.6619V23.4619C38.3996 20.6619 36.1996 18.4619 33.3996 18.4619C30.5996 18.4619 28.3996 20.6619 28.3996 23.4619V38.6619H28.1996L27.9996 38.4619C26.7996 37.6619 25.5996 37.4619 24.1996 37.6619C22.7996 38.0619 21.7996 38.6619 20.9996 39.8619C19.7996 41.6619 19.9996 44.0619 21.1996 45.6619L28.7996 55.6619C29.1996 56.2619 29.7996 56.4619 30.3996 56.4619H48.1996C49.1996 56.4619 49.9996 55.6619 50.1996 54.4619L51.1996 43.4619C51.5996 39.4619 48.7996 35.8619 44.9996 35.0619ZM46.9996 43.2619L46.1996 52.4619H31.3996L24.1996 43.0619C23.9996 42.6619 23.9996 42.2619 24.1996 41.8619C24.3996 41.6619 24.5996 41.4619 24.7996 41.4619C24.9996 41.4619 25.3996 41.4619 25.5996 41.6619L28.9996 44.2619C29.5996 44.6619 30.3996 44.8619 30.9996 44.4619C31.7996 44.0619 32.1996 43.4619 32.1996 42.6619V23.4619C32.1996 22.8619 32.5996 22.4619 33.1996 22.4619C33.7996 22.4619 34.1996 22.8619 34.1996 23.4619V35.2619C34.1996 36.2619 34.7996 37.0619 35.7996 37.2619L43.9996 39.0619C45.7996 39.4619 47.1996 41.2619 46.9996 43.2619Z" fill="#2D373D"/>
</svg>
