<svg width="24" height="25" viewBox="0 0 24 25" fill="none" xmlns="http://www.w3.org/2000/svg">
<path fill-rule="evenodd" clip-rule="evenodd" d="M6.72078 4.46095C6.0829 4.85885 5.48717 5.33066 4.947 5.87083C4.40914 6.40869 3.93904 7.00166 3.54221 7.63646C3.51741 7.67008 3.49577 7.70531 3.4773 7.74173C2.53541 9.29084 2.02539 11.0812 2.02539 12.9242C2.02539 14.767 2.53529 16.5572 3.47695 18.1061C3.49561 18.143 3.51752 18.1787 3.54267 18.2127C3.93941 18.8472 4.40935 19.44 4.947 19.9776C5.48468 20.5153 6.07743 20.9853 6.71199 21.382C6.74599 21.4071 6.78164 21.429 6.81852 21.4477C8.36749 22.3893 10.1577 22.8992 12.0004 22.8992C13.8429 22.8992 15.6328 22.3895 17.1816 21.4481C17.219 21.4292 17.2551 21.4071 17.2895 21.3816C17.9238 20.9849 18.5163 20.5151 19.0538 19.9776C19.5913 19.4401 20.0612 18.8475 20.4579 18.2131C20.4833 18.1788 20.5054 18.1428 20.5241 18.1056C21.4656 16.5568 21.9754 14.7668 21.9754 12.9242C21.9754 11.0815 21.4655 9.29137 20.5239 7.74242C20.5052 7.70553 20.4833 7.66986 20.4582 7.63584C20.0614 7.00128 19.5915 6.40852 19.0538 5.87083C18.5138 5.33081 17.9182 4.8591 17.2805 4.46127C17.2519 4.44073 17.2222 4.42244 17.1916 4.40641C15.6405 3.46115 13.8468 2.94922 12.0004 2.94922C10.1538 2.94922 8.36 3.46124 6.8088 4.40667C6.77852 4.42255 6.7491 4.44064 6.72078 4.46095ZM7.06201 6.03665C6.68914 6.304 6.3363 6.60285 6.00766 6.93149C5.67889 7.26026 5.37991 7.61327 5.11248 7.98631L8.14687 11.0207C8.35265 10.6041 8.62648 10.2198 8.96122 9.8851C9.29596 9.55036 9.68022 9.27654 10.0968 9.07077L7.06201 6.03665ZM4.32834 9.32349C3.80448 10.4397 3.52539 11.6676 3.52539 12.9242C3.52539 14.1809 3.80449 15.4088 4.32837 16.525L7.70803 13.1454C7.70425 13.0719 7.70235 12.9982 7.70235 12.9243C7.70235 12.8504 7.70425 12.7767 7.70803 12.7032L4.32834 9.32349ZM5.11253 17.8622C5.37995 18.2352 5.6789 18.5882 6.00766 18.9169C6.33645 19.2457 6.68948 19.5447 7.06254 19.8122L10.0973 16.7781C9.68053 16.5723 9.29609 16.2984 8.96122 15.9635C8.62647 15.6287 8.35264 15.2445 8.14686 14.8279L5.11253 17.8622ZM8.39976 20.5963C9.51596 21.1201 10.7438 21.3992 12.0004 21.3992C13.257 21.3992 14.4849 21.1201 15.6012 20.5963L12.2216 17.2167C12.1481 17.2205 12.0744 17.2224 12.0004 17.2224C11.9268 17.2224 11.8533 17.2205 11.7801 17.2167L8.39976 20.5963ZM16.9383 19.8121C17.3114 19.5447 17.6644 19.2457 17.9931 18.9169C18.3219 18.5882 18.6208 18.2352 18.8883 17.8622L15.8538 14.8283C15.648 15.2448 15.3742 15.6289 15.0396 15.9635C14.7049 16.2982 14.3206 16.5721 13.904 16.7778L16.9383 19.8121ZM19.6724 16.5251C20.1963 15.4088 20.4754 14.1809 20.4754 12.9242C20.4754 11.6676 20.1963 10.4397 19.6725 9.32354L16.2928 12.7032C16.2966 12.7767 16.2985 12.8504 16.2985 12.9243C16.2985 12.9985 16.2966 13.0725 16.2928 13.1462L19.6724 16.5251ZM18.8883 7.98635C18.6209 7.6133 18.3219 7.26028 17.9931 6.93149C17.6645 6.60287 17.3117 6.30402 16.9388 6.03668L13.9041 9.07077C14.3206 9.27654 14.7049 9.55036 15.0396 9.8851C15.3744 10.2198 15.6482 10.6041 15.854 11.0207L18.8883 7.98635ZM15.6017 5.25243C14.4853 4.7284 13.2572 4.44922 12.0004 4.44922C10.7436 4.44922 9.5155 4.7284 8.39914 5.25241L11.7794 8.6319C11.8528 8.62812 11.9265 8.62622 12.0004 8.62622C12.0743 8.62622 12.148 8.62812 12.2215 8.6319L15.6017 5.25243ZM12.4348 10.1601C12.408 10.1578 12.3813 10.154 12.3548 10.1487C12.2379 10.1338 12.1196 10.1262 12.0004 10.1262C11.8813 10.1262 11.7629 10.1338 11.646 10.1487C11.6195 10.154 11.5928 10.1578 11.566 10.1601C10.9848 10.2515 10.4431 10.5245 10.0219 10.9458C9.60106 11.3666 9.32812 11.9077 9.23652 12.4882C9.23413 12.5162 9.23017 12.544 9.22465 12.5716C9.20987 12.688 9.20235 12.8057 9.20235 12.9243C9.20235 13.0428 9.20986 13.1605 9.22464 13.2769C9.23017 13.3045 9.23414 13.3324 9.23653 13.3604C9.32814 13.941 9.60107 14.482 10.0219 14.9028C10.4462 15.3272 10.9929 15.6012 11.5789 15.6905C11.5971 15.6924 11.6152 15.695 11.6333 15.6982C11.7543 15.7142 11.877 15.7224 12.0004 15.7224C12.1188 15.7224 12.2364 15.7149 12.3525 15.7001C12.3805 15.6945 12.4088 15.6905 12.4371 15.6881C13.0174 15.5964 13.5583 15.3235 13.979 14.9028C14.4 14.4818 14.6731 13.9403 14.7645 13.3593C14.7669 13.3325 14.7707 13.3059 14.7759 13.2794C14.7909 13.1623 14.7985 13.0437 14.7985 12.9243C14.7985 12.8057 14.791 12.688 14.7762 12.5716C14.7707 12.544 14.7667 12.5162 14.7643 12.4882C14.6727 11.9077 14.3998 11.3666 13.979 10.9458C13.5577 10.5245 13.016 10.2515 12.4348 10.1601Z" fill="#2D373D"/>
</svg>
