<svg width="32" height="33" viewBox="0 0 32 33" fill="none" xmlns="http://www.w3.org/2000/svg">
<path d="M8.59961 18.4243C7.99961 18.4243 7.59961 18.8243 7.59961 19.4243V21.8243C5.39961 17.9243 5.99961 13.0243 9.29961 9.92432C12.0996 7.22432 16.1996 6.52432 19.6996 7.92432C20.1996 8.22432 20.7996 7.92432 20.9996 7.42432C21.2996 6.92432 20.9996 6.32432 20.4996 6.12432C16.1996 4.32432 11.2996 5.22432 7.89961 8.52432C3.69961 12.4243 3.09961 18.7243 6.19961 23.4243H3.59961C2.99961 23.4243 2.59961 23.8243 2.59961 24.4243C2.59961 25.0243 2.99961 25.4243 3.59961 25.4243H8.59961C9.09961 25.4243 9.59961 24.9243 9.59961 24.4243V19.4243C9.59961 18.8243 9.19961 18.4243 8.59961 18.4243Z" fill="#2D373D"/>
<path d="M28.3996 8.52441H23.3996C22.7996 8.52441 22.3996 8.92441 22.3996 9.52441V14.5244C22.3996 15.1244 22.7996 15.5244 23.3996 15.5244C23.9996 15.5244 24.3996 15.0244 24.3996 14.5244V12.1244C25.2996 13.7244 25.8996 15.4244 25.7996 17.2244C25.6996 19.8244 24.6996 22.2244 22.7996 24.0244C19.9996 26.7244 15.8996 27.5244 12.2996 26.0244C11.7996 25.7244 11.1996 26.0244 10.9996 26.5244C10.6996 27.0244 10.9996 27.6244 11.4996 27.8244C12.8996 28.4244 14.4996 28.7244 15.9996 28.7244C18.9996 28.7244 21.8996 27.6244 24.0996 25.4244C26.3996 23.3244 27.5996 20.3244 27.6996 17.2244C27.6996 14.7244 26.9996 12.5244 25.6996 10.5244H28.3996C28.9996 10.5244 29.3996 10.1244 29.3996 9.52441C29.3996 8.92441 28.9996 8.52441 28.3996 8.52441Z" fill="#2D373D"/>
</svg>
