<svg width="64" height="65" viewBox="0 0 64 65" fill="none" xmlns="http://www.w3.org/2000/svg">
<path d="M23.3998 23.9246C24.1998 23.5246 24.9998 22.9246 25.7998 22.3246C27.1998 20.7246 27.9998 18.7246 27.9998 16.7246C27.9998 14.5246 27.1998 12.5246 25.7998 11.1246C24.1998 9.52461 22.3998 8.72461 20.1998 8.72461C15.7998 8.72461 12.1998 12.3246 12.1998 16.5246C12.1998 19.7246 14.1998 22.5246 16.9998 23.7246C11.7998 25.1246 7.7998 29.9246 7.7998 35.7246V40.1246C7.7998 41.3246 8.5998 42.1246 9.7998 42.1246H12.3998L13.5998 55.1246C13.7998 56.1246 14.5998 56.9246 15.5998 56.9246H24.5998C25.5998 56.9246 26.3998 56.1246 26.5998 55.1246L27.7998 42.1246H30.5998C31.7998 42.1246 32.5998 41.3246 32.5998 40.1246V35.7246C32.5998 30.1246 28.7998 25.3246 23.3998 23.9246ZM20.1998 12.7246C21.1998 12.7246 21.9998 13.1246 22.7998 13.9246C23.5998 14.7246 23.9998 15.7246 23.9998 16.7246C23.9998 17.7246 23.5998 18.7246 22.9998 19.3246C22.1998 20.1246 21.1998 20.5246 20.1998 20.5246C17.9998 20.5246 16.1998 18.7246 16.1998 16.5246C16.3998 14.5246 18.1998 12.7246 20.1998 12.7246ZM28.3998 38.1246H25.9998C24.9998 38.1246 24.1998 38.9246 23.9998 39.9246L22.7998 52.9246H17.5998L16.1998 39.9246C15.9998 38.9246 15.1998 38.1246 14.1998 38.1246H11.7998V35.7246C11.7998 31.7246 14.3998 28.3246 18.1998 27.5246V34.7246C18.1998 35.9246 18.9998 36.7246 20.1998 36.7246C21.1998 36.7246 22.1998 35.9246 22.1998 34.7246V27.7246C25.7998 28.7246 28.3998 31.9246 28.3998 35.7246V38.1246Z" fill="#2D373D"/>
<path d="M47.2004 23.7246C48.0004 23.3246 48.8004 22.9246 49.4004 22.3246C51.0004 20.7246 51.8004 18.9246 51.8004 16.7246C51.8004 14.5246 50.8004 12.5246 49.4004 11.1246C47.8004 9.52461 46.0004 8.72461 43.8004 8.72461C39.4004 8.72461 35.8004 12.3246 35.8004 16.5246C35.8004 18.7246 36.6004 20.5246 38.2004 22.1246C38.8004 22.7246 39.4004 23.1246 40.2004 23.5246C37.2004 24.3246 34.4004 26.3246 32.8004 29.1246C32.2004 30.1246 32.4004 31.3246 33.4004 31.9246C34.4004 32.5246 35.6004 32.3246 36.2004 31.3246C37.6004 29.3246 39.4004 27.9246 41.8004 27.5246V34.7246C41.8004 35.9246 42.6004 36.7246 43.8004 36.7246C44.8004 36.7246 45.8004 35.9246 45.8004 34.7246V27.7246C49.2004 28.7246 51.8004 31.9246 51.8004 35.7246V38.1246H49.4004C48.4004 38.1246 47.6004 38.9246 47.4004 39.9246L46.2004 52.9246H41.0004L39.8004 39.9246C39.6004 38.9246 38.8004 38.1246 37.8004 38.1246H35.0004C33.8004 38.1246 33.0004 38.9246 33.0004 40.1246C33.0004 41.3246 33.8004 42.1246 35.0004 42.1246H36.2004L37.4004 55.1246C37.6004 56.1246 38.4004 56.9246 39.4004 56.9246H48.2004C49.2004 56.9246 50.0004 56.1246 50.0004 54.9246L51.2004 41.9246H53.8004C55.0004 41.9246 55.8004 41.1246 55.8004 39.9246V35.5246C55.8004 30.1246 52.2004 25.3246 47.2004 23.7246ZM43.8004 12.7246C44.8004 12.7246 45.6004 13.1246 46.4004 13.9246C47.2004 14.7246 47.6004 15.7246 47.6004 16.7246C47.6004 17.7246 47.2004 18.7246 46.6004 19.3246C45.8004 20.1246 44.8004 20.5246 43.8004 20.5246C42.6004 20.5246 41.8004 20.1246 41.0004 19.3246C40.2004 18.5246 39.8004 17.5246 39.8004 16.5246C39.8004 14.5246 41.6004 12.7246 43.8004 12.7246Z" fill="#2D373D"/>
</svg>
