<svg width="24" height="25" viewBox="0 0 24 25" fill="none" xmlns="http://www.w3.org/2000/svg">
<path d="M12.5754 12.4619L16.0254 9.01194C16.3254 8.71194 16.3254 8.26194 16.0254 7.96194C15.7254 7.66194 15.2754 7.66194 14.9754 7.96194L11.0004 11.9369C10.7004 12.2369 10.7004 12.6869 11.0004 12.9869L14.9754 17.0369C15.1254 17.1869 15.2754 17.2619 15.5004 17.2619C15.7254 17.2619 15.8754 17.1869 16.0254 17.0369C16.3254 16.7369 16.3254 16.2869 16.0254 15.9869L12.5754 12.4619Z" fill="#2D373D"/>
<path fill-rule="evenodd" clip-rule="evenodd" d="M8 7.71191C8.41421 7.71191 8.75 8.0477 8.75 8.46191V16.4619C8.75 16.8761 8.41421 17.2119 8 17.2119C7.58579 17.2119 7.25 16.8761 7.25 16.4619V8.46191C7.25 8.0477 7.58579 7.71191 8 7.71191Z" fill="#2D373D"/>
</svg>
