<svg width="64" height="65" viewBox="0 0 64 65" fill="none" xmlns="http://www.w3.org/2000/svg">
<path fill-rule="evenodd" clip-rule="evenodd" d="M31.0411 8.25783C31.0411 7.60859 30.726 6.99974 30.1959 6.62488C29.6658 6.25002 28.9868 6.15579 28.3746 6.37215C23.6305 8.04899 19.3374 12.6333 19.3374 18.3177C19.3374 23.5988 22.3746 28.214 27.0673 30.0931L27.0704 40.9245H9.3335L9.3335 23.3244C9.3335 21.6308 10.7065 20.2578 12.4001 20.2578L16.0001 20.2578C17.1047 20.2578 18.0001 19.3624 18.0001 18.2578C18.0001 17.1532 17.1047 16.2578 16.0001 16.2578H12.4001C8.49731 16.2578 5.3335 19.4216 5.3335 23.3244V44.5257C5.3335 48.4278 8.49639 51.5914 12.3986 51.5922L26.4599 51.5953L25.0213 55.5911H21.3335C20.229 55.5911 19.3335 56.4866 19.3335 57.5911C19.3335 58.6957 20.229 59.5911 21.3335 59.5911H42.6669C43.7714 59.5911 44.6669 58.6957 44.6669 57.5911C44.6669 56.4866 43.7714 55.5911 42.6669 55.5911H38.979L37.5414 51.5977L51.5987 51.6007C55.5021 51.6016 58.6669 48.4375 58.6669 44.5341V23.3244C58.6669 19.4216 55.503 16.2578 51.6003 16.2578L48.0001 16.2578C46.8956 16.2578 46.0001 17.1532 46.0001 18.2578C46.0001 19.3624 46.8956 20.2578 48.0001 20.2578H51.6003C53.2939 20.2578 54.6669 21.6308 54.6669 23.3244V40.9245H36.9958L36.9879 30.0922C41.6815 28.2092 44.6708 23.5863 44.6708 18.3177C44.6708 12.6333 40.3777 8.04899 35.6336 6.37215C35.0214 6.15579 34.3424 6.25002 33.8123 6.62488C33.2822 6.99974 32.9671 7.60859 32.9671 8.25783V15.9473C32.9671 16.1624 32.9355 16.6877 32.7441 17.0926C32.6613 17.2677 32.5809 17.3498 32.5221 17.3908C32.48 17.4203 32.3482 17.5029 32.0041 17.5029C31.6582 17.5029 31.5255 17.42 31.4834 17.3908C31.4252 17.3502 31.3456 17.2693 31.2635 17.096C31.0731 16.6941 31.0411 16.1703 31.0411 15.9473V8.25783ZM33.2897 51.5968L30.7108 51.5962L29.2727 55.5911H34.7277L33.2897 51.5968ZM32.9958 40.9245H31.0704L31.0669 28.6469C31.0666 27.7349 30.4493 26.9385 29.5661 26.7108C25.9044 25.7669 23.3374 22.4308 23.3374 18.3177C23.3374 15.6847 24.8469 13.2044 27.0411 11.5709V15.9473C27.0411 16.3295 27.0684 17.5835 27.6484 18.8082C27.9515 19.4481 28.4349 20.1426 29.1988 20.6741C29.979 21.217 30.9278 21.5029 32.0041 21.5029C33.0823 21.5029 34.0319 21.2152 34.812 20.6705C35.5755 20.1375 36.058 19.4418 36.3604 18.8021C36.9394 17.5773 36.9671 16.3248 36.9671 15.9473V11.5709C39.1613 13.2044 40.6708 15.6847 40.6708 18.3177C40.6708 22.4448 38.1364 25.7702 34.4876 26.7108C33.6037 26.9387 32.9862 27.7361 32.9869 28.649L32.9958 40.9245ZM12.3994 47.5922C10.8412 47.5919 9.55465 46.4294 9.35919 44.9245H54.6422C54.4505 46.434 53.1613 47.6011 51.5996 47.6007L12.3994 47.5922Z" fill="#2D373D"/>
</svg>
