<svg width="16" height="17" viewBox="0 0 16 17" fill="none" xmlns="http://www.w3.org/2000/svg">
<path d="M7.99251 14.4634C8.79793 14.4634 9.45085 13.8105 9.45085 13.005C9.45085 12.1996 8.79793 11.5467 7.99251 11.5467C7.1871 11.5467 6.53418 12.1996 6.53418 13.005C6.53418 13.8105 7.1871 14.4634 7.99251 14.4634Z" fill="#2D373D"/>
<path d="M7.99251 5.13005C8.79793 5.13005 9.45085 4.47713 9.45085 3.67171C9.45085 2.8663 8.79793 2.21338 7.99251 2.21338C7.1871 2.21338 6.53418 2.8663 6.53418 3.67171C6.53418 4.47713 7.1871 5.13005 7.99251 5.13005Z" fill="#2D373D"/>
<path d="M7.99251 9.79671C8.79793 9.79671 9.45085 9.14379 9.45085 8.33838C9.45085 7.53296 8.79793 6.88005 7.99251 6.88005C7.1871 6.88005 6.53418 7.53296 6.53418 8.33838C6.53418 9.14379 7.1871 9.79671 7.99251 9.79671Z" fill="#2D373D"/>
</svg>
