<svg width="16" height="17" viewBox="0 0 16 17" fill="none" xmlns="http://www.w3.org/2000/svg">
<path d="M14.1668 3.58789C13.8868 3.58789 13.6668 3.81456 13.6668 4.08789V6.83456C12.4202 6.74122 11.8068 6.16789 11.7802 6.14122C11.5935 5.95456 11.2935 5.94789 11.1002 6.12122C10.8268 6.36122 10.1335 6.84789 9.7135 6.84789C9.2935 6.84789 8.60016 6.36122 8.3335 6.12122C8.14016 5.95456 7.86016 5.95456 7.66683 6.12122C7.40016 6.36122 6.70683 6.84789 6.28683 6.84789C5.86683 6.84789 5.1735 6.36122 4.90016 6.12122C4.70683 5.94789 4.40683 5.95456 4.22016 6.13456C4.1935 6.16789 3.58016 6.74122 2.3335 6.83456V4.08789C2.3335 3.81456 2.10683 3.58789 1.8335 3.58789C1.56016 3.58789 1.3335 3.81456 1.3335 4.08789V12.9946C1.3335 13.7012 2.00683 14.2546 2.8735 14.2546H13.1268C13.9868 14.2546 14.6668 13.7012 14.6668 12.9946V4.08789C14.6668 3.81456 14.4402 3.58789 14.1668 3.58789ZM13.6668 12.9946C13.6668 13.0879 13.4535 13.2546 13.1268 13.2546H2.8735C2.54016 13.2546 2.3335 13.0879 2.3335 12.9946V10.8346C3.4135 10.7746 4.16016 10.4012 4.56683 10.1279C4.96016 10.4212 5.6535 10.8479 6.28683 10.8479C6.92016 10.8479 7.60016 10.4279 8.00016 10.1346C8.40016 10.4279 9.08016 10.8479 9.7135 10.8479C10.3468 10.8479 11.0402 10.4212 11.4335 10.1279C11.8402 10.4012 12.5868 10.7746 13.6668 10.8346V12.9946ZM13.6668 9.83456C12.4202 9.74122 11.8068 9.16789 11.7802 9.14122C11.5935 8.95456 11.2935 8.94789 11.1002 9.12122C10.8268 9.36122 10.1335 9.84789 9.7135 9.84789C9.2935 9.84789 8.60016 9.36122 8.3335 9.12122C8.14016 8.95456 7.86016 8.95456 7.66683 9.12122C7.40016 9.36122 6.70683 9.84789 6.28683 9.84789C5.86683 9.84789 5.1735 9.36122 4.90016 9.12122C4.70683 8.94789 4.40683 8.95456 4.22016 9.13456C4.1935 9.16789 3.58016 9.74122 2.3335 9.83456V7.83456C3.4135 7.77456 4.16016 7.40122 4.56683 7.12789C4.96016 7.42122 5.6535 7.84789 6.28683 7.84789C6.92016 7.84789 7.60016 7.42789 8.00016 7.13456C8.40016 7.42789 9.08016 7.84789 9.7135 7.84789C10.3468 7.84789 11.0402 7.42122 11.4335 7.12789C11.8402 7.40122 12.5868 7.77456 13.6668 7.83456V9.83456Z" fill="#2D373D"/>
</svg>
