<svg width="16" height="17" viewBox="0 0 16 17" fill="none" xmlns="http://www.w3.org/2000/svg">
<path d="M14.8003 6.92383C14.8058 6.61778 14.709 6.31865 14.5253 6.07383L12.5903 3.47883C12.4573 3.30553 12.2862 3.16522 12.0903 3.06883H12.0503C11.8794 2.98169 11.6919 2.93225 11.5003 2.92383H4.50026C4.30677 2.92473 4.08076 2.96737 3.90526 3.04883C3.70837 3.14381 3.53696 3.28436 3.40526 3.45883L1.50026 6.08883C1.3122 6.32683 1.20844 6.62051 1.20526 6.92383C1.20012 7.2392 1.30436 7.54662 1.50026 7.79383L6.94526 14.4238C7.07744 14.5762 7.239 14.7003 7.42026 14.7888C7.60108 14.8766 7.79927 14.9227 8.00026 14.9238H8.04526C8.23845 14.9204 8.42895 14.8779 8.60526 14.7988C8.78692 14.7111 8.9473 14.5848 9.07526 14.4288L14.5003 7.79883C14.6953 7.55752 14.8059 7.25897 14.8153 6.94883L14.8003 6.92383ZM9.96026 7.42383L8.00026 12.9238L6.04526 7.42383H9.96026ZM6.38026 6.42383L8.00026 4.26383L9.62526 6.42383H6.38026ZM9.00026 3.92383H11.2203L10.5003 5.92383L9.00026 3.92383ZM5.50026 5.92383L4.79026 3.92383H7.00026L5.50026 5.92383ZM6.87526 12.7438L2.50026 7.42383H5.00026L6.87526 12.7438ZM11.0003 7.42383H13.5003L9.12526 12.7638L11.0003 7.42383ZM13.5253 6.42383H11.3803L12.0803 4.45383L13.5253 6.42383ZM3.92026 4.47383L4.62526 6.42383H2.45526L3.92026 4.47383Z" fill="#2D373D"/>
</svg>
