<svg width="16" height="17" viewBox="0 0 16 17" fill="none" xmlns="http://www.w3.org/2000/svg">
<path d="M4.2998 9.67407C3.9998 9.67407 3.7998 9.87407 3.7998 10.1741V11.3741C2.6998 9.42407 2.9998 6.97407 4.6498 5.42408C6.0498 4.07408 8.0998 3.72408 9.8498 4.42408C10.0998 4.57408 10.3998 4.42408 10.4998 4.17408C10.6498 3.92408 10.4998 3.62408 10.2498 3.52408C8.0998 2.62408 5.64981 3.07408 3.9498 4.72407C1.8498 6.67407 1.5498 9.82407 3.0998 12.1741H1.7998C1.4998 12.1741 1.2998 12.3741 1.2998 12.6741C1.2998 12.9741 1.4998 13.1741 1.7998 13.1741H4.2998C4.5498 13.1741 4.7998 12.9241 4.7998 12.6741V10.1741C4.7998 9.87407 4.5998 9.67407 4.2998 9.67407Z" fill="#2D373D"/>
<path d="M14.1998 4.72412H11.6998C11.3998 4.72412 11.1998 4.92412 11.1998 5.22412V7.72412C11.1998 8.02412 11.3998 8.22412 11.6998 8.22412C11.9998 8.22412 12.1998 7.97412 12.1998 7.72412V6.52412C12.6498 7.32412 12.9498 8.17412 12.8998 9.07412C12.8498 10.3741 12.3498 11.5741 11.3998 12.4741C9.99979 13.8241 7.94979 14.2241 6.14979 13.4741C5.89979 13.3241 5.59979 13.4741 5.49979 13.7241C5.34979 13.9741 5.49979 14.2741 5.74979 14.3741C6.44979 14.6741 7.24979 14.8241 7.99979 14.8241C9.49979 14.8241 10.9498 14.2741 12.0498 13.1741C13.1998 12.1241 13.7998 10.6241 13.8498 9.07412C13.8498 7.82412 13.4998 6.72412 12.8498 5.72412H14.1998C14.4998 5.72412 14.6998 5.52412 14.6998 5.22412C14.6998 4.92412 14.4998 4.72412 14.1998 4.72412Z" fill="#2D373D"/>
</svg>
