<svg width="32" height="33" viewBox="0 0 32 33" fill="none" xmlns="http://www.w3.org/2000/svg">
<path d="M2.6665 7.25586C2.6665 6.70357 3.11422 6.25586 3.6665 6.25586H28.3332C28.8855 6.25586 29.3332 6.70357 29.3332 7.25586C29.3332 7.80814 28.8855 8.25586 28.3332 8.25586H3.6665C3.11422 8.25586 2.6665 7.80814 2.6665 7.25586Z" fill="#2D373D"/>
<path d="M2.6665 26.5892C2.6665 26.0369 3.11422 25.5892 3.6665 25.5892H28.3332C28.8855 25.5892 29.3332 26.0369 29.3332 26.5892C29.3332 27.1415 28.8855 27.5892 28.3332 27.5892H3.6665C3.11422 27.5892 2.6665 27.1415 2.6665 26.5892Z" fill="#2D373D"/>
<path d="M4.6665 11.5892C4.11422 11.5892 3.6665 12.0369 3.6665 12.5892C3.6665 13.1415 4.11422 13.5892 4.6665 13.5892H5.6665L5.6665 21.2559C5.6665 21.8081 6.11422 22.2559 6.6665 22.2559C7.21879 22.2559 7.6665 21.8081 7.6665 21.2559L7.6665 13.5892H8.6665C9.21879 13.5892 9.6665 13.1415 9.6665 12.5892C9.6665 12.0369 9.21879 11.5892 8.6665 11.5892H4.6665Z" fill="#2D373D"/>
<path d="M26.9998 12.5892C26.9998 12.0369 26.5521 11.5892 25.9998 11.5892C25.4476 11.5892 24.9998 12.0369 24.9998 12.5892V21.2559C24.9998 21.8081 25.4476 22.2559 25.9998 22.2559C26.5521 22.2559 26.9998 21.8081 26.9998 21.2559V12.5892Z" fill="#2D373D"/>
<path fill-rule="evenodd" clip-rule="evenodd" d="M10.3332 14.2559C10.3332 13.7625 10.473 13.0447 10.9216 12.4216C11.407 11.7474 12.2073 11.2559 13.3332 11.2559C14.4591 11.2559 15.2593 11.7474 15.7447 12.4216C16.1934 13.0447 16.3332 13.7625 16.3332 14.2559V21.2559C16.3332 21.8081 15.8855 22.2559 15.3332 22.2559C14.7809 22.2559 14.3332 21.8081 14.3332 21.2559V18.9225H12.3332V21.2559C12.3332 21.8081 11.8855 22.2559 11.3332 22.2559C10.7809 22.2559 10.3332 21.8081 10.3332 21.2559V14.2559ZM12.3332 16.9225V14.2559C12.3332 14.0825 12.3934 13.8003 12.5447 13.5902C12.6593 13.431 12.8591 13.2559 13.3332 13.2559C13.8073 13.2559 14.007 13.431 14.1216 13.5902C14.273 13.8003 14.3332 14.0825 14.3332 14.2559V16.9225H12.3332Z" fill="#2D373D"/>
<path d="M23.0856 11.6815C23.5871 11.9129 23.806 12.507 23.5745 13.0085L21.7679 16.9229L23.5744 20.837C23.8058 21.3385 23.5869 21.9326 23.0855 22.1641C22.584 22.3955 21.9899 22.1766 21.7585 21.6752L20.6665 19.3092L19.5745 21.6752C19.3431 22.1766 18.749 22.3955 18.2475 22.1641C17.7461 21.9326 17.5272 21.3385 17.7586 20.837L19.5651 16.9229L17.7585 13.0085C17.527 12.507 17.7459 11.9129 18.2474 11.6815C18.7488 11.45 19.3429 11.6689 19.5744 12.1704L20.6665 14.5366L21.7586 12.1704C21.9901 11.6689 22.5842 11.45 23.0856 11.6815Z" fill="#2D373D"/>
</svg>
