<svg width="64" height="65" viewBox="0 0 64 65" fill="none" xmlns="http://www.w3.org/2000/svg">
<path fill-rule="evenodd" clip-rule="evenodd" d="M24.6667 50.1544L24.6472 50.1543L24.64 50.1543C24.034 50.1515 23.4057 50.0445 22.8267 49.8076L11.0933 45.1143C10.1867 44.7409 9.41333 44.1276 8.85333 43.3009C8.29333 42.4743 8 41.5143 8 40.5276V12.4209C8 11.8609 8.13333 11.3009 8.4 10.7943C8.66667 10.2876 9.04 9.86094 9.52 9.54094C9.97333 9.22094 10.5333 9.03427 11.0933 8.95427C11.6533 8.90094 12.24 8.95427 12.7733 9.19427L24.32 13.8076C24.5333 13.8876 24.8 13.8876 25.0133 13.8076L37.4933 8.82094C38.6667 8.34094 39.9733 8.34094 41.1467 8.82094L52.88 13.5143C53.7867 13.8876 54.5867 14.5009 55.12 15.3276C55.68 16.1276 55.9733 17.0876 55.9733 18.1009V26.6076C55.9733 27.7009 55.0667 28.6076 53.9733 28.6076C52.88 28.6076 51.9733 27.7009 51.9733 26.6076V18.1009C51.9733 17.9143 51.92 17.7276 51.8133 17.5943C51.7067 17.4343 51.5467 17.3276 51.3867 17.2476L41.3333 13.2263V25.141C41.3333 26.2343 40.4267 27.141 39.3333 27.141C38.24 27.141 37.3333 26.2343 37.3333 25.141V13.2042L26.6667 17.4664V45.4427L30.64 43.8609C31.68 43.4609 32.8267 43.9409 33.2267 44.9809C33.6267 45.9943 33.1467 47.1676 32.1067 47.5676L26.48 49.8076C25.9161 50.0383 25.3275 50.1458 24.7143 50.1538L24.6667 50.1544ZM22.6667 17.4873V45.4396L12.5867 41.4076C12.4 41.3276 12.2667 41.2209 12.16 41.0609C12.0533 40.9009 12 40.7143 12 40.5276V13.1943L22.6667 17.4873Z" fill="#2D373D"/>
<path d="M45.2004 42.7277C46.7321 42.7277 47.9737 41.486 47.9737 39.9543C47.9737 38.4227 46.7321 37.181 45.2004 37.181C43.6687 37.181 42.4271 38.4227 42.4271 39.9543C42.4271 41.486 43.6687 42.7277 45.2004 42.7277Z" fill="#2D373D"/>
<path fill-rule="evenodd" clip-rule="evenodd" d="M45.201 56.4743C44.6677 56.4743 44.1344 56.341 43.681 56.1276C43.2277 55.9143 42.801 55.5676 42.481 55.1676C38.801 50.4476 34.401 43.9943 34.401 39.9676C34.401 37.0876 35.521 34.3676 37.5744 32.341C39.5744 30.341 42.3744 29.1676 45.201 29.1676C48.0277 29.1676 50.801 30.2876 52.8277 32.341C54.8544 34.3943 56.001 37.0876 56.001 39.9676C56.001 43.9943 51.601 50.4476 47.921 55.1676C47.601 55.5943 47.1744 55.941 46.6944 56.1543C46.241 56.3676 45.7077 56.501 45.1744 56.501L45.201 56.4743ZM45.201 33.1676C43.4144 33.1676 41.6544 33.8876 40.401 35.1676C39.1477 36.4476 38.401 38.1543 38.401 39.9676C38.401 42.021 41.0677 46.7676 45.201 52.1543C49.3344 46.7676 52.001 42.021 52.001 39.9676C52.001 38.1543 51.3077 36.4476 50.001 35.1676C48.7477 33.9143 46.9877 33.1676 45.201 33.1676Z" fill="#2D373D"/>
</svg>
