<svg width="24" height="24" viewBox="0 0 24 24" fill="none" xmlns="http://www.w3.org/2000/svg">
<path d="M19.3501 9.22516C18.9001 9.22516 18.6001 9.52516 18.6001 9.97516V12.9002C18.6001 15.7502 16.2751 18.0002 13.5001 18.0002H10.5751C7.7251 18.0002 5.4751 15.6752 5.4751 12.9002V9.97516C5.4751 9.52516 5.1751 9.22516 4.7251 9.22516C4.2751 9.22516 3.9751 9.52516 3.9751 9.97516V12.9002C3.9751 16.5752 6.9751 19.5002 10.5751 19.5002H11.2501V21.3002C11.2501 21.7502 11.5501 22.0502 12.0001 22.0502C12.4501 22.0502 12.7501 21.7502 12.7501 21.3002V19.5002H13.5001C17.1001 19.5002 20.1001 16.5752 20.1001 12.9002V9.97516C20.1001 9.52516 19.8001 9.22516 19.3501 9.22516Z" fill="#2D373D"/>
<path d="M10.5752 16.5752H13.5002C15.6752 16.5002 17.3252 14.6252 17.1752 12.5252V6.0002C17.3252 3.9002 15.6752 2.1002 13.5002 1.9502H10.5002C8.40016 2.1002 6.75016 3.9002 6.90016 6.0002V12.5252C6.75016 14.6252 8.40016 16.4252 10.5752 16.5752ZM8.40016 5.9252C8.32516 4.6502 9.30016 3.5252 10.5752 3.4502H13.4252C14.7752 3.5252 15.7502 4.6502 15.6752 6.0002V12.6002C15.7502 13.8752 14.7752 15.0002 13.5002 15.0752H10.6502C9.30016 15.0002 8.32516 13.8752 8.40016 12.5252V5.9252Z" fill="#2D373D"/>
</svg>
