<svg width="64" height="65" viewBox="0 0 64 65" fill="none" xmlns="http://www.w3.org/2000/svg">
<path fill-rule="evenodd" clip-rule="evenodd" d="M21.4647 43.0191C15.7072 39.4866 11.8667 33.1337 11.8667 25.8838C11.8667 14.789 20.8608 5.79492 31.9556 5.79492C43.0503 5.79492 52.0444 14.789 52.0444 25.8838C52.0444 33.1336 48.2041 39.4865 42.4467 43.019L45.4211 56.7036C45.5889 57.4755 45.2866 58.2739 44.6496 58.7411C44.0127 59.2083 43.1604 59.2568 42.4745 58.8649L31.9557 52.8541L21.4369 58.8649C20.751 59.2568 19.8987 59.2083 19.2617 58.7411C18.6247 58.2739 18.3224 57.4755 18.4902 56.7036L21.4647 43.0191ZM15.8667 25.8838C15.8667 16.9982 23.0699 9.79492 31.9556 9.79492C40.8412 9.79492 48.0444 16.9982 48.0444 25.8838C48.0444 32.102 44.5168 37.4964 39.3535 40.1747C39.2943 40.2014 39.2369 40.2308 39.1813 40.2627C37.0086 41.3567 34.554 41.9727 31.9556 41.9727C29.3578 41.9727 26.9039 41.357 24.7317 40.2636C24.6751 40.231 24.6165 40.2011 24.5562 40.1739C19.3937 37.4954 15.8667 32.1015 15.8667 25.8838ZM25.1714 44.7983L23.3532 53.1628L30.9634 48.8141C31.5783 48.4628 32.3331 48.4628 32.948 48.8141L40.5581 53.1628L38.74 44.7982C36.6207 45.5585 34.3365 45.9727 31.9556 45.9727C29.5747 45.9727 27.2906 45.5585 25.1714 44.7983Z" fill="#2D373D"/>
<path fill-rule="evenodd" clip-rule="evenodd" d="M30.2455 13.336C30.762 13.0247 31.3537 12.8602 31.9568 12.8602C32.5599 12.8602 33.1516 13.0247 33.6682 13.336C34.1847 13.6473 34.6066 14.0936 34.8883 14.6268L33.12 15.5612L34.9033 14.6557L37.0839 18.9506H40.5012C41.15 18.9407 41.7873 19.1237 42.3322 19.4767C42.8856 19.8351 43.3179 20.3521 43.5727 20.9602C43.8275 21.5683 43.8929 22.2391 43.7603 22.885C43.6284 23.5278 43.3065 24.1161 42.8364 24.5737L39.5412 27.8115L41.3737 32.0241C41.6402 32.6601 41.7001 33.3638 41.5451 34.0357C41.3902 34.7077 41.0282 35.314 40.5101 35.7691C39.992 36.2242 39.3441 36.5051 38.6577 36.5721C37.977 36.6386 37.2926 36.4913 36.6996 36.151L31.9557 33.4825L27.2119 36.151C26.6189 36.4913 25.9345 36.6386 25.2537 36.5721C24.5674 36.5051 23.9195 36.2242 23.4014 35.7691C22.8833 35.314 22.5212 34.7077 22.3663 34.0357C22.2114 33.3638 22.2714 32.6601 22.5379 32.0241L22.5486 31.9986L24.3726 27.8101L21.0745 24.5644C20.6047 24.1068 20.283 23.5187 20.1511 22.8762C20.0186 22.2304 20.084 21.5595 20.3387 20.9515C20.5935 20.3434 21.0259 19.8263 21.5792 19.4679C22.1241 19.1149 22.7615 18.9319 23.4102 18.9418H26.8289L29.0251 14.6267C29.3069 14.0935 29.7289 13.6473 30.2455 13.336ZM31.9561 17.6865L29.8375 21.849C29.4962 22.5195 28.8075 22.9418 28.0551 22.9418H25.1284L28.1578 25.9231C28.7478 26.5037 28.9191 27.3879 28.5886 28.147L27.0662 31.6435L30.9752 29.4446C31.584 29.1021 32.3274 29.1021 32.9363 29.4446L36.8463 31.6441L35.3248 28.1463C34.9944 27.3869 35.1663 26.5024 35.757 25.922L38.7811 22.9506H35.8563C35.1032 22.9506 34.414 22.5275 34.073 21.856L31.9561 17.6865ZM40.5688 22.95C40.5629 22.9501 40.557 22.9502 40.5511 22.9502L40.5688 22.95ZM40.0401 21.7135L40.0477 21.7061ZM23.3426 22.9412L23.3603 22.9414C23.3544 22.9414 23.3485 22.9413 23.3426 22.9412Z" fill="#2D373D"/>
</svg>
