<svg width="16" height="17" viewBox="0 0 16 17" fill="none" xmlns="http://www.w3.org/2000/svg">
<path d="M11.3001 10.7602L10.3001 10.3602C10.2501 10.3602 10.2001 10.2602 10.2001 10.2102C10.2001 10.1602 10.2501 10.1102 10.2501 10.1102C10.2501 10.1102 10.3001 10.0602 10.3501 10.0602H11.3501C11.6501 10.0602 11.8501 9.86021 11.8501 9.56021C11.8501 9.26021 11.6501 9.06021 11.3501 9.06021H11.0001C10.9501 8.86021 10.7501 8.71021 10.5501 8.71021C10.3001 8.71021 10.1001 8.86021 10.0501 9.11021C9.80015 9.16021 9.65015 9.26021 9.50015 9.41021C9.30015 9.61021 9.15015 9.91021 9.15015 10.2102C9.15015 10.7102 9.45015 11.1602 9.90015 11.3102L10.9001 11.7102C10.9501 11.7602 11.0001 11.7602 11.0001 11.8102C11.0001 11.8102 11.0001 11.8602 11.0001 11.9102C11.0001 11.9602 10.9001 12.0102 10.8501 12.0102H9.85015C9.55015 12.0102 9.35015 12.2102 9.35015 12.5102C9.35015 12.8102 9.55015 13.0102 9.85015 13.0102H10.1001C10.1501 13.2102 10.3501 13.3602 10.5501 13.3602C10.8001 13.3602 11.0001 13.2102 11.0501 12.9602C11.4501 12.9102 11.8001 12.6102 11.9501 12.2602C12.1001 11.9602 12.0501 11.6602 11.9501 11.3602C11.8001 11.1102 11.6001 10.8602 11.3001 10.7602Z" fill="#2D373D"/>
<path d="M10.5503 7.56018C8.65034 7.56018 7.10034 9.11018 7.10034 11.0102C7.10034 12.9102 8.65034 14.4602 10.5503 14.4602C12.4503 14.4602 14.0003 12.9102 14.0003 11.0102C14.0003 9.11018 12.4503 7.56018 10.5503 7.56018ZM10.5503 13.4602C9.20034 13.4602 8.10034 12.3602 8.10034 11.0102C8.10034 9.66018 9.20034 8.56018 10.5503 8.56018C11.9003 8.56018 13.0003 9.66018 13.0003 11.0102C13.0003 12.3602 11.9003 13.4602 10.5503 13.4602Z" fill="#2D373D"/>
<path d="M6.1502 9.81016H3.2002C3.0502 9.81016 2.9502 9.71016 2.9502 9.56016V5.56016H11.5502V6.61016C11.5502 6.91016 11.7502 7.11016 12.0502 7.11016C12.3502 7.11016 12.5502 6.91016 12.5502 6.61016V3.66016C12.5502 3.31016 12.4502 3.01016 12.2002 2.76016C11.9502 2.56016 11.6502 2.41016 11.3002 2.41016H3.2002C2.5002 2.41016 1.9502 2.96016 1.9502 3.66016V9.56016C1.9502 10.2602 2.5002 10.8102 3.2002 10.8102H6.1502C6.4002 10.8102 6.6502 10.6102 6.6502 10.3102C6.6502 10.0102 6.4502 9.81016 6.1502 9.81016ZM3.2002 3.41016H11.3002C11.4002 3.41016 11.5002 3.51016 11.5002 3.51016C11.5002 3.51016 11.5502 3.56016 11.5502 3.66016V4.21016H2.9502V3.66016C2.9502 3.51016 3.0502 3.41016 3.2002 3.41016Z" fill="#2D373D"/>
<path d="M7.4002 6.96021C7.4002 6.66021 7.2002 6.46021 6.9002 6.46021H3.9502C3.6502 6.46021 3.4502 6.66021 3.4502 6.96021C3.4502 7.26021 3.6502 7.46021 3.9502 7.46021H6.9002C7.1502 7.46021 7.4002 7.26021 7.4002 6.96021Z" fill="#2D373D"/>
<path d="M5.4002 8.96021C5.7002 8.96021 5.9502 8.76021 5.9502 8.46021C5.9502 8.1602 5.7502 7.96021 5.4502 7.96021H3.9502C3.6502 7.96021 3.4502 8.1602 3.4502 8.46021C3.4502 8.76021 3.6502 8.96021 3.9502 8.96021H5.4002Z" fill="#2D373D"/>
</svg>
