<svg width="16" height="16" viewBox="0 0 16 16" fill="none" xmlns="http://www.w3.org/2000/svg">
<path d="M3.19989 8.85002C3.84989 8.85002 4.44989 8.30002 4.44989 7.60002C4.44989 7.10002 4.09989 6.70002 3.69989 6.50002V6.15002C3.69989 5.85002 3.49989 5.65002 3.19989 5.65002C2.89989 5.65002 2.69989 5.85002 2.69989 6.15002V6.90002C2.69989 7.20002 2.89989 7.40002 3.19989 7.40002C3.29989 7.40002 3.44989 7.45002 3.44989 7.60002C3.44989 7.75002 3.34989 7.85002 3.19989 7.85002C3.04989 7.85002 2.94989 7.75002 2.94989 7.60002C2.94989 7.30002 2.74989 7.10002 2.44989 7.10002C2.14989 7.10002 1.94989 7.30002 1.94989 7.60002C1.94989 8.30002 2.49989 8.85002 3.19989 8.85002Z" fill="#2D373D"/>
<path d="M12.2999 9.35L11.1499 7.05C10.9499 6.6 10.4999 6.35 10.0499 6.35H9.0499C8.3499 6.35 7.7999 6.9 7.7999 7.6V7.95L3.8999 2.15C3.6999 1.85 3.2999 1.75 2.9999 1.95C2.7999 2.05 2.6999 2.3 2.6999 2.5V4.6C2.6999 4.9 2.8999 5.1 3.1999 5.1C3.4999 5.1 3.6999 4.9 3.6999 4.6V3.65L7.4499 9.3H3.1499C2.4499 9.3 1.8999 9.85 1.8999 10.55V12.05C1.8999 12.75 2.4499 13.3 3.1499 13.3H4.2499C4.4499 13.75 4.8999 14.05 5.3999 14.05C5.8999 14.05 6.3499 13.75 6.5499 13.3H10.1499C10.3499 13.75 10.7999 14.05 11.2999 14.05C11.7999 14.05 12.2499 13.75 12.4499 13.3H12.6999C13.3999 13.3 13.9499 12.75 13.9499 12.05V11.3C13.9499 10.3 13.2499 9.5 12.2999 9.35ZM8.7999 7.55C8.7999 7.4 8.8999 7.3 9.0499 7.3H10.0499C10.1499 7.3 10.1999 7.35 10.2499 7.45L11.1499 9.3H8.7999V7.55ZM5.3999 13.05C5.2499 13.05 5.1499 12.95 5.1499 12.8C5.1499 12.65 5.2499 12.55 5.3999 12.55C5.5499 12.55 5.6499 12.65 5.6499 12.8C5.6499 12.95 5.5499 13.05 5.3999 13.05ZM11.2999 13.05C11.1499 13.05 11.0499 12.95 11.0499 12.8C11.0499 12.65 11.1499 12.55 11.2999 12.55C11.4499 12.55 11.5499 12.65 11.5499 12.8C11.5499 12.95 11.4499 13.05 11.2999 13.05ZM12.9499 12.05C12.9499 12.2 12.8499 12.3 12.6999 12.3H12.4499C12.2499 11.85 11.7999 11.55 11.2999 11.55C10.7999 11.55 10.3499 11.85 10.1499 12.3H6.5499C6.3499 11.85 5.8999 11.55 5.3999 11.55C4.8999 11.55 4.4499 11.85 4.2499 12.3H3.1999C3.0499 12.3 2.9499 12.2 2.9499 12.05V10.55C2.9499 10.45 3.0499 10.35 3.1999 10.25H8.1499C8.1999 10.25 8.2499 10.3 8.2999 10.3H11.7999C11.8499 10.3 11.8999 10.3 11.9499 10.3C12.4999 10.3 12.9499 10.75 12.9499 11.3V12.05Z" fill="#2D373D"/>
</svg>
