<svg width="24" height="25" viewBox="0 0 24 25" fill="none" xmlns="http://www.w3.org/2000/svg">
<path d="M8.77481 9.54961C9.07481 9.39961 9.37481 9.17461 9.67481 8.94961C10.1998 8.34961 10.4998 7.59961 10.4998 6.84961C10.4998 6.02461 10.1998 5.27461 9.67481 4.74961C9.07481 4.14961 8.39981 3.84961 7.57481 3.84961C5.92481 3.84961 4.5748 5.19961 4.5748 6.77461C4.5748 7.97461 5.3248 9.02461 6.3748 9.47461C4.4248 9.99961 2.9248 11.7996 2.9248 13.9746V15.6246C2.9248 16.0746 3.2248 16.3746 3.6748 16.3746H4.6498L5.0998 21.2496C5.17481 21.6246 5.47481 21.9246 5.84981 21.9246H9.22481C9.59981 21.9246 9.89981 21.6246 9.97481 21.2496L10.4248 16.3746H11.4748C11.9248 16.3746 12.2248 16.0746 12.2248 15.6246V13.9746C12.2248 11.8746 10.7998 10.0746 8.77481 9.54961ZM7.57481 5.34961C7.94981 5.34961 8.2498 5.49961 8.54981 5.79961C8.84981 6.09961 8.99981 6.47461 8.99981 6.84961C8.99981 7.22461 8.84981 7.59961 8.62481 7.82461C8.32481 8.12461 7.94981 8.27461 7.57481 8.27461C6.74981 8.27461 6.07481 7.59961 6.07481 6.77461C6.14981 6.02461 6.82481 5.34961 7.57481 5.34961ZM10.6498 14.8746H9.74981C9.37481 14.8746 9.07481 15.1746 8.99981 15.5496L8.54981 20.4246H6.59981L6.07481 15.5496C5.99981 15.1746 5.6998 14.8746 5.3248 14.8746H4.4248V13.9746C4.4248 12.4746 5.39981 11.1996 6.82481 10.8996V13.5996C6.82481 14.0496 7.12481 14.3496 7.57481 14.3496C7.94981 14.3496 8.32481 14.0496 8.32481 13.5996V10.9746C9.67481 11.3496 10.6498 12.5496 10.6498 13.9746V14.8746Z" fill="#2D373D"/>
<path d="M17.7 9.47461C18 9.32461 18.3 9.17461 18.525 8.94961C19.125 8.34961 19.425 7.67461 19.425 6.84961C19.425 6.02461 19.05 5.27461 18.525 4.74961C17.925 4.14961 17.25 3.84961 16.425 3.84961C14.775 3.84961 13.425 5.19961 13.425 6.77461C13.425 7.59961 13.725 8.27461 14.325 8.87461C14.55 9.09961 14.775 9.24961 15.075 9.39961C13.95 9.69961 12.9 10.4496 12.3 11.4996C12.075 11.8746 12.15 12.3246 12.525 12.5496C12.9 12.7746 13.35 12.6996 13.575 12.3246C14.1 11.5746 14.775 11.0496 15.675 10.8996V13.5996C15.675 14.0496 15.975 14.3496 16.425 14.3496C16.8 14.3496 17.175 14.0496 17.175 13.5996V10.9746C18.45 11.3496 19.425 12.5496 19.425 13.9746V14.8746H18.525C18.15 14.8746 17.85 15.1746 17.775 15.5496L17.325 20.4246H15.375L14.925 15.5496C14.85 15.1746 14.55 14.8746 14.175 14.8746H13.125C12.675 14.8746 12.375 15.1746 12.375 15.6246C12.375 16.0746 12.675 16.3746 13.125 16.3746H13.575L14.025 21.2496C14.1 21.6246 14.4 21.9246 14.775 21.9246H18.075C18.45 21.9246 18.75 21.6246 18.75 21.1746L19.2 16.2996H20.175C20.625 16.2996 20.925 15.9996 20.925 15.5496V13.8996C20.925 11.8746 19.575 10.0746 17.7 9.47461ZM16.425 5.34961C16.8 5.34961 17.1 5.49961 17.4 5.79961C17.7 6.09961 17.85 6.47461 17.85 6.84961C17.85 7.22461 17.7 7.59961 17.475 7.82461C17.175 8.12461 16.8 8.27461 16.425 8.27461C15.975 8.27461 15.675 8.12461 15.375 7.82461C15.075 7.52461 14.925 7.14961 14.925 6.77461C14.925 6.02461 15.6 5.34961 16.425 5.34961Z" fill="#2D373D"/>
</svg>
