<svg width="64" height="65" viewBox="0 0 64 65" fill="none" xmlns="http://www.w3.org/2000/svg">
<path d="M55 24.6602C54.4 24.0602 53.6 23.4602 52.6 23.4602L41 22.2602L35 10.2602C34.6 9.46017 34 9.06017 33.4 8.66017C31.6 7.86017 29.6 8.46017 28.6 10.2602L22.6 22.2602L11 23.2602C10.2 23.2602 9.4 23.6602 8.8 24.2602C7.4 25.6602 7.4 27.8602 8.8 29.2602L18.4 38.8602L14.8 51.8602C14.6 52.8602 14.6 53.6602 15 54.4602C15.8 56.2602 18 56.8602 19.8 56.0602L31.8 50.0602L43.8 56.0602C44.2 56.2602 44.8 56.4602 45.4 56.4602C45.8 56.4602 46.2 56.4602 46.4 56.4602C47.4 56.2602 48.2 55.6602 48.6 54.8602C49.2 54.0602 49.2 53.0602 49 52.0602L45.4 39.0602L55 29.4602C55.6 28.8602 56 28.0602 56 27.2602C56.2 26.2602 55.8 25.4602 55 24.6602Z" fill="#2D373D"/>
</svg>
