<svg width="32" height="33" viewBox="0 0 32 33" fill="none" xmlns="http://www.w3.org/2000/svg">
<path fill-rule="evenodd" clip-rule="evenodd" d="M27.2768 27.3201C27.4739 27.7591 27.1528 28.2553 26.6715 28.2553H20.6772C20.196 28.2553 19.8748 27.7591 20.072 27.3201L23.0691 20.0559C23.3036 19.5337 24.0451 19.5337 24.2797 20.0559L27.2768 27.3201ZM18.2313 26.5374C17.4738 28.2909 18.7591 30.2553 20.6772 30.2553H26.6715C28.5896 30.2553 29.875 28.2909 29.1174 26.5374L26.1285 19.2931C26.1206 19.2741 26.1125 19.2553 26.1041 19.2365C25.1626 17.1402 22.1862 17.1402 21.2447 19.2365C21.2362 19.2553 21.2281 19.2741 21.2203 19.2931L18.2313 26.5374Z" fill="#2D373D"/>
<path fill-rule="evenodd" clip-rule="evenodd" d="M23.6796 21.7553C24.1399 21.7553 24.513 22.1284 24.513 22.5887V24.2553C24.513 24.7156 24.1399 25.0887 23.6796 25.0887C23.2194 25.0887 22.8463 24.7156 22.8463 24.2553V22.5887C22.8463 22.1284 23.2194 21.7553 23.6796 21.7553Z" fill="#2D373D"/>
<path d="M24.4996 26.422C24.4996 26.8822 24.1265 27.2553 23.6663 27.2553C23.2061 27.2553 22.833 26.8822 22.833 26.422C22.833 25.9618 23.2061 25.5887 23.6663 25.5887C24.1265 25.5887 24.4996 25.9618 24.4996 26.422Z" fill="#2D373D"/>
<path fill-rule="evenodd" clip-rule="evenodd" d="M15.1403 3.75498C15.693 3.54001 16.3063 3.54001 16.859 3.75498L28.6892 8.35599C29.074 8.50564 29.3274 8.87615 29.3274 9.28901V16.1377C29.3274 16.6906 28.8792 17.1388 28.3263 17.1388C27.7734 17.1388 27.3252 16.6906 27.3252 16.1377V10.7525L17.0007 14.7679V27.7805C17.0007 28.111 16.8376 28.4202 16.5649 28.6068C16.2921 28.7934 15.9448 28.8334 15.6368 28.7136L3.3101 23.9195C2.92532 23.7698 2.67188 23.3993 2.67188 22.9864V9.28901C2.67188 8.87615 2.92532 8.50564 3.3101 8.35599L15.1403 3.75498ZM15.9996 13.009L19.4011 11.6861L9.83631 7.96611L6.43484 9.28901L15.9996 13.009ZM4.67408 10.7525V22.3016L14.9985 26.317V14.7679L4.67408 10.7525ZM12.5982 6.89196L22.163 10.6119L25.5644 9.28901L16.1332 5.62102C16.0473 5.5876 15.952 5.5876 15.866 5.62102L12.5982 6.89196Z" fill="#2D373D"/>
</svg>
