<svg width="24" height="25" viewBox="0 0 24 25" fill="none" xmlns="http://www.w3.org/2000/svg">
<path fill-rule="evenodd" clip-rule="evenodd" d="M11.328 7.34122C11.531 7.21749 11.7642 7.15204 12.002 7.15204C12.2398 7.15204 12.473 7.21749 12.676 7.34122C12.8791 7.46495 13.0442 7.64219 13.1532 7.85351C13.157 7.86087 13.1607 7.8683 13.1642 7.87579L14.1089 9.86635H15.5786C15.8323 9.86346 16.0812 9.93582 16.2939 10.0744C16.5088 10.2144 16.6769 10.4155 16.7764 10.6519C16.8759 10.8883 16.9024 11.1491 16.8523 11.4007C16.8022 11.6523 16.6779 11.8831 16.4955 12.0634C16.4862 12.0725 16.4767 12.0815 16.4669 12.0901L15.0796 13.3246L15.8581 15.1135C15.9627 15.3628 15.9861 15.6387 15.9253 15.9021C15.8645 16.1655 15.7225 16.4032 15.5193 16.5815C15.3161 16.7598 15.062 16.8697 14.7929 16.8957C14.5261 16.9215 14.2579 16.8635 14.0257 16.7299L12.0004 15.5908L9.97507 16.7299C9.74283 16.8635 9.47467 16.9215 9.20786 16.8957C8.93878 16.8697 8.68467 16.7598 8.48146 16.5815C8.27825 16.4032 8.13621 16.1655 8.07542 15.9021C8.01463 15.6387 8.03816 15.3628 8.14269 15.1135L8.1466 15.1042L8.92138 13.3241L7.53661 12.0897C7.52704 12.0811 7.51769 12.0724 7.50857 12.0634C7.3261 11.8831 7.20182 11.6523 7.15174 11.4007C7.10167 11.1491 7.1281 10.8883 7.22763 10.6519C7.32715 10.4155 7.49522 10.2144 7.71014 10.0744C7.92282 9.93582 8.17174 9.86346 8.42543 9.86635H9.89516L10.8398 7.87579C10.8434 7.8683 10.8471 7.86087 10.8509 7.85351C10.9599 7.64219 11.1249 7.46495 11.328 7.34122ZM12.002 8.92548L12.9571 10.9379C13.0813 11.1996 13.345 11.3663 13.6346 11.3663H15.0238L13.6765 12.5652C13.4342 12.7808 13.3579 13.1275 13.4873 13.4248L14.2257 15.1214L12.368 14.0766C12.1398 13.9482 11.861 13.9482 11.6327 14.0766L9.77509 15.1214L10.5134 13.4248C10.6427 13.1278 10.5666 12.7813 10.3248 12.5657L8.97939 11.3663H10.3694C10.659 11.3663 10.9228 11.1996 11.047 10.9379L12.002 8.92548Z" fill="#2D373D"/>
<path fill-rule="evenodd" clip-rule="evenodd" d="M4.947 5.40794C6.81768 3.53726 9.35486 2.48633 12.0004 2.48633C14.6459 2.48633 17.1831 3.53726 19.0538 5.40794C20.9245 7.27861 21.9754 9.81579 21.9754 12.4613C21.9754 15.1069 20.9245 17.644 19.0538 19.5147C17.1831 21.3854 14.6459 22.4363 12.0004 22.4363C9.35486 22.4363 6.81768 21.3854 4.947 19.5147C3.07632 17.644 2.02539 15.1069 2.02539 12.4613C2.02539 9.81579 3.07632 7.27861 4.947 5.40794ZM12.0004 3.98633C9.75268 3.98633 7.59703 4.87923 6.00766 6.4686C4.41829 8.05797 3.52539 10.2136 3.52539 12.4613C3.52539 14.709 4.41829 16.8647 6.00766 18.4541C7.59703 20.0434 9.75268 20.9363 12.0004 20.9363C14.2481 20.9363 16.4038 20.0434 17.9931 18.4541C19.5825 16.8647 20.4754 14.709 20.4754 12.4613C20.4754 10.2136 19.5825 8.05797 17.9931 6.4686C16.4038 4.87923 14.2481 3.98633 12.0004 3.98633Z" fill="#2D373D"/>
</svg>
