<svg width="32" height="33" viewBox="0 0 32 33" fill="none" xmlns="http://www.w3.org/2000/svg">
<path d="M29.1001 15.0603C28.8001 14.3603 28.2001 13.7603 27.5001 13.4603L24.3001 11.9603C24.1001 11.7603 23.9001 11.7603 23.8001 11.6603L7.3001 3.96033C6.5001 3.56033 5.6001 3.56033 4.8001 3.86033C3.9001 4.16033 3.3001 4.76033 2.9001 5.56033C2.7001 5.96033 2.6001 6.46033 2.6001 6.96033V25.9603C2.6001 26.8603 3.0001 27.6603 3.6001 28.2603C4.2001 28.9603 5.0001 29.2603 5.9001 29.2603C6.4001 29.2603 6.8001 29.0603 7.3001 28.8603L8.1001 28.4603C8.1001 28.4603 8.2001 28.4603 8.3001 28.4603L24.0001 21.0603L27.4001 19.4603C29.1001 18.6603 29.9001 16.6603 29.1001 15.0603ZM21.7001 13.0603L19.6001 15.0603L13.0001 8.96033L21.7001 13.0603ZM5.9001 27.2603C5.6001 27.2603 5.2001 27.0603 5.0001 26.8603C4.7001 26.6603 4.6001 26.2603 4.6001 25.9603V6.96033C4.6001 6.76033 4.6001 6.56033 4.7001 6.36033C4.9001 6.06033 5.1001 5.86033 5.4001 5.76033C5.6001 5.66033 5.7001 5.66033 5.9001 5.66033C6.1001 5.66033 6.2001 5.66033 6.4001 5.76033L7.0001 6.06033L18.2001 16.3603L7.2001 26.8603L6.4001 27.2603C6.3001 27.2603 6.1001 27.2603 5.9001 27.2603ZM19.7001 17.7603L22.0001 19.8603L12.9001 24.1603L19.7001 17.7603ZM26.6001 17.6603L23.9001 18.9603L21.1001 16.4603L23.7001 14.0603L26.6001 15.4603C26.9001 15.5603 27.1001 15.7603 27.2001 16.0603C27.5001 16.5603 27.2001 17.3603 26.6001 17.6603Z" fill="#2D373D"/>
</svg>
