<svg width="64" height="65" viewBox="0 0 64 65" fill="none" xmlns="http://www.w3.org/2000/svg">
<path d="M39.6 38.9234C38.4 38.9234 37.6 39.7234 37.6 40.9234V45.3234H12V17.1234C12.2 14.5234 14.2 12.7234 16.8 12.9234H27.2C28.4 12.9234 29.2 12.1234 29.2 10.9234C29.2 9.72342 28.4 8.92342 27.2 8.92342H16.8C12.2 8.72342 8.2 12.1234 8 16.9234V51.7234C8.2 56.1234 12 59.7234 16.4 59.7234C16.4 59.7234 16.6 59.7234 16.8 59.5234H32.8C37.4 59.7234 41.4 56.3234 41.6 51.5234V40.9234C41.6 39.7234 40.8 38.9234 39.6 38.9234ZM37.6 51.5234C37.4 53.9234 35.4 55.9234 32.8 55.7234H16.6C14.2 55.9234 12.2 54.1234 12 51.7234V49.3234H37.6V51.5234Z" fill="#2D373D"/>
<path d="M40.9998 26.5234C39.7998 26.5234 38.7998 27.5234 38.7998 28.7234C38.7998 29.9234 39.7998 30.9234 40.9998 30.9234C42.1998 30.9234 43.1998 29.9234 43.1998 28.7234C43.1998 27.5234 42.1998 26.5234 40.9998 26.5234Z" fill="#2D373D"/>
<path d="M41 24.9232C42 24.9232 43 24.1232 43 22.9232V16.3232C43 15.1232 42.2 14.3232 41 14.3232C39.8 14.3232 39 15.1232 39 16.3232V22.9232C39 24.1232 39.8 24.9232 41 24.9232Z" fill="#2D373D"/>
<path d="M55.3996 27.9235L46.1996 9.32348C45.5996 8.32348 44.7996 7.32348 43.5996 6.72348C41.9996 5.92348 40.3996 5.72348 38.9996 6.32348C37.5996 6.92348 36.1996 7.92348 35.5996 9.32348L26.1996 27.9235C25.7996 28.7235 25.5996 29.5235 25.5996 30.5235C25.5996 32.1235 26.1996 33.5235 27.3996 34.7235C28.5996 35.9235 29.9996 36.5235 31.5996 36.5235H50.1996C51.1996 36.5235 51.9996 36.3235 52.7996 35.9235C54.1996 35.3235 55.3996 33.9235 55.7996 32.5235C56.1996 30.9235 56.1996 29.3235 55.3996 27.9235ZM52.1996 31.1235C51.9996 31.7235 51.5996 32.1235 51.1996 32.3235C50.9996 32.5235 50.5996 32.5235 50.3996 32.5235H31.7996C31.1996 32.5235 30.7996 32.3235 30.3996 31.9235C29.9996 31.5235 29.7996 31.1235 29.7996 30.5235C29.7996 30.3235 29.7996 29.9235 29.9996 29.7235L39.3996 11.3235C39.5996 10.9235 39.9996 10.5235 40.3996 10.3235C40.5996 10.1235 40.7996 10.1235 40.9996 10.1235C41.1996 10.1235 41.5996 10.1235 41.9996 10.3235C42.3996 10.5235 42.5996 10.7235 42.7996 11.1235L51.9996 29.7235C52.3996 30.1235 52.3996 30.7235 52.1996 31.1235Z" fill="#2D373D"/>
</svg>
