<svg width="32" height="33" viewBox="0 0 32 33" fill="none" xmlns="http://www.w3.org/2000/svg">
<path fill-rule="evenodd" clip-rule="evenodd" d="M8.66669 4.92383C8.1144 4.92383 7.66669 5.37154 7.66669 5.92383C7.66669 7.88014 8.6672 9.5889 10.0531 10.7905H6.46667C5.81247 10.7905 5.18506 11.0504 4.72247 11.513C4.25988 11.9756 4 12.603 4 13.2572V15.4572C4 15.9169 4.18262 16.3578 4.50768 16.6828C4.76921 16.9444 5.1057 17.1137 5.46664 17.1699V26.4572C5.46664 27.1114 5.72652 27.7388 6.18911 28.2014C6.6517 28.664 7.27911 28.9239 7.93331 28.9239H24.0666C24.7208 28.9239 25.3483 28.664 25.8108 28.2014C26.2734 27.7388 26.5333 27.1114 26.5333 26.4572V17.1699C26.8943 17.1137 27.2308 16.9444 27.4923 16.6828C27.8174 16.3578 28 15.9169 28 15.4572V13.2572C28 12.603 27.7401 11.9756 27.2775 11.513C26.8149 11.0504 26.1875 10.7905 25.5333 10.7905H21.947C23.3328 9.5889 24.3333 7.88014 24.3333 5.92383C24.3333 5.37154 23.8856 4.92383 23.3333 4.92383C21.4549 4.92383 19.5791 5.67894 18.1693 6.88112C17.1874 7.71849 16.3927 8.80869 16 10.0612C15.6073 8.80869 14.8127 7.71849 13.8307 6.88112C12.4209 5.67894 10.5451 4.92383 8.66669 4.92383ZM19.4671 8.40294C20.2377 7.7458 21.1834 7.27345 22.1568 7.0567C21.8938 7.89477 21.3488 8.6725 20.5996 9.31138C19.829 9.96852 18.8832 10.4409 17.9099 10.6576C18.1728 9.81955 18.7179 9.04182 19.4671 8.40294ZM11.4004 9.31138C12.171 9.96852 13.1168 10.4409 14.0901 10.6576C13.8272 9.81955 13.2822 9.04182 12.533 8.40294C11.7623 7.7458 10.8166 7.27345 9.84326 7.0567C10.1062 7.89477 10.6512 8.6725 11.4004 9.31138ZM6.46667 12.7905C6.3429 12.7905 6.2242 12.8397 6.13668 12.9272C6.04917 13.0147 6 13.1334 6 13.2572V15.1905H12.8V12.7905H6.46667ZM17.2 12.7905H14.8V15.1905H17.2V12.7905ZM19.2 15.1905V12.7905H25.5333C25.6571 12.7905 25.7758 12.8397 25.8633 12.9272C25.9508 13.0147 26 13.1334 26 13.2572V15.1905H19.2ZM17.2 17.1906H14.8V26.9239H17.2V17.1906ZM12.8 17.1906H7.46664V26.4572C7.46664 26.581 7.51581 26.6997 7.60333 26.7872C7.69085 26.8747 7.80954 26.9239 7.93331 26.9239H12.8V17.1906ZM19.2 26.9239V17.1906H24.5333V26.4572C24.5333 26.581 24.4841 26.6997 24.3966 26.7872C24.3091 26.8747 24.1904 26.9239 24.0666 26.9239H19.2Z" fill="#2D373D"/>
</svg>
