<svg width="16" height="17" viewBox="0 0 16 17" fill="none" xmlns="http://www.w3.org/2000/svg">
<path d="M10.0992 4.78865C9.82301 4.78865 9.59916 5.0125 9.59916 5.28865C9.59916 5.56479 9.82301 5.78865 10.0992 5.78865H11.3338C11.6099 5.78865 11.8338 5.56479 11.8338 5.28865C11.8338 5.0125 11.6099 4.78865 11.3338 4.78865H10.0992Z" fill="#2D373D"/>
<path d="M10.8399 7.01098C10.5638 7.01098 10.3399 7.23483 10.3399 7.51098C10.3399 7.78712 10.5638 8.01098 10.8399 8.01098H11.3338C11.6099 8.01098 11.8338 7.78712 11.8338 7.51098C11.8338 7.23483 11.6099 7.01098 11.3338 7.01098H10.8399Z" fill="#2D373D"/>
<path d="M9.6053 9.23331C9.32916 9.23331 9.1053 9.45716 9.1053 9.73331C9.1053 10.0094 9.32916 10.2333 9.6053 10.2333H11.3338C11.6099 10.2333 11.8338 10.0094 11.8338 9.73331C11.8338 9.45716 11.6099 9.23331 11.3338 9.23331H9.6053Z" fill="#2D373D"/>
<path d="M5.16064 11.4556C4.8845 11.4556 4.66064 11.6795 4.66064 11.9556C4.66064 12.2318 4.8845 12.4556 5.16064 12.4556H11.3338C11.6099 12.4556 11.8338 12.2318 11.8338 11.9556C11.8338 11.6795 11.6099 11.4556 11.3338 11.4556H5.16064Z" fill="#2D373D"/>
<path fill-rule="evenodd" clip-rule="evenodd" d="M6.89121 4.29479L6.88948 4.29479C5.38598 4.29479 4.16716 5.51362 4.16716 7.01712C4.16716 8.52062 5.38598 9.73945 6.88948 9.73945C8.39299 9.73945 9.61181 8.52062 9.61181 7.01712C9.61181 5.51419 8.39392 4.29572 6.89121 4.29479ZM6.38959 5.36845C5.68216 5.58267 5.16716 6.23975 5.16716 7.01712C5.16716 7.31082 5.24067 7.58735 5.3703 7.82931L6.38959 6.81001V5.36845ZM7.38959 5.36852V7.01712C7.38959 7.14973 7.33692 7.2769 7.24315 7.37067L6.07744 8.53638C6.31937 8.66597 6.59584 8.73945 6.88948 8.73945C7.8407 8.73945 8.61181 7.96834 8.61181 7.01712C8.61181 6.23983 8.09691 5.58281 7.38959 5.36852Z" fill="#2D373D"/>
<path fill-rule="evenodd" clip-rule="evenodd" d="M12.0504 2.21051C11.8129 1.96798 11.4893 1.828 11.1476 1.82813H3.31464C2.96729 1.82813 2.63909 1.97283 2.40083 2.22233C2.16331 2.47104 2.03369 2.80365 2.03369 3.1459V13.777C2.03369 14.1193 2.16331 14.4519 2.40083 14.7006C2.63909 14.9501 2.96729 15.0948 3.31464 15.0948H12.6861C13.0334 15.0948 13.3616 14.9501 13.5999 14.7006C13.8374 14.4519 13.967 14.1193 13.967 13.777V4.71763C13.967 4.54493 13.934 4.37346 13.8694 4.21312C13.8048 4.05276 13.7096 3.90604 13.5883 3.78223L12.0504 2.21051ZM11.1479 2.82813C11.2137 2.82809 11.2816 2.85475 11.3358 2.91006L12.874 4.48206C12.902 4.5106 12.9254 4.54599 12.9418 4.58675C12.9583 4.62752 12.967 4.67215 12.967 4.71772V13.777C12.967 13.8685 12.9321 13.9519 12.8767 14.01C12.822 14.0672 12.753 14.0948 12.6861 14.0948H3.31464C3.24776 14.0948 3.17868 14.0672 3.12403 14.01C3.06863 13.9519 3.03369 13.8685 3.03369 13.777V3.1459C3.03369 3.05438 3.06863 2.97098 3.12403 2.91296C3.17868 2.85573 3.24776 2.82813 3.31464 2.82813L11.1479 2.82813Z" fill="#2D373D"/>
</svg>
