<svg width="24" height="25" viewBox="0 0 24 25" fill="none" xmlns="http://www.w3.org/2000/svg">
<path fill-rule="evenodd" clip-rule="evenodd" d="M11.2502 9.83509H5.2237C4.92095 9.83469 4.63977 9.71834 4.42541 9.52697C4.21304 9.33737 4.07698 9.08622 4.02055 8.82276C3.96413 8.55937 3.98642 8.2815 4.08776 8.0291C4.18925 7.77631 4.37072 7.54935 4.62184 7.40185C4.63765 7.39256 4.65378 7.38386 4.67022 7.37577L11.1628 4.17699C11.4145 4.02628 11.7022 3.94336 12.0002 3.94336C12.2983 3.94336 12.586 4.02628 12.8376 4.17699L19.3302 7.37577C19.3467 7.38386 19.3628 7.39256 19.3786 7.40185C19.6297 7.54935 19.8112 7.77631 19.9127 8.0291C20.014 8.2815 20.0363 8.55937 19.9799 8.82276C19.9235 9.08622 19.7874 9.33737 19.5751 9.52697C19.3607 9.71834 19.0805 9.83469 18.7778 9.83509H12.7502V13.276H15.3885C15.8027 13.276 16.1385 13.6118 16.1385 14.026C16.1385 14.4402 15.8027 14.776 15.3885 14.776H12.7502V21.1631C12.7502 21.5773 12.4144 21.9131 12.0002 21.9131C11.586 21.9131 11.2502 21.5773 11.2502 21.1631V14.776H8.61194C8.19772 14.776 7.86194 14.4402 7.86194 14.026C7.86194 13.6118 8.19772 13.276 8.61194 13.276H11.2502V9.83509ZM11.9291 5.46661C11.9578 5.44833 11.9819 5.44336 12.0002 5.44336C12.0185 5.44336 12.0427 5.44833 12.0714 5.46661C12.0945 5.48138 12.1185 5.49486 12.1431 5.50699L17.8834 8.33509H12.0252C12.0169 8.33482 12.0085 8.33469 12.0002 8.33469C11.9918 8.33469 11.9835 8.33482 11.9752 8.33509H6.11709L11.8573 5.50699C11.882 5.49486 11.9059 5.48138 11.9291 5.46661Z" fill="#2D373D"/>
<path d="M5.07951 11.6434C5.486 11.5638 5.88008 11.8288 5.95972 12.2352L6.80903 16.5703H8.12792C8.61625 16.5703 9.06225 16.7911 9.37503 17.1459C9.68512 17.4976 9.84599 17.9565 9.84599 18.4183V21.1634C9.84599 21.5776 9.51021 21.9134 9.09599 21.9134C8.68178 21.9134 8.34599 21.5776 8.34599 21.1634V18.4183C8.34599 18.2976 8.30288 18.198 8.24987 18.1379C8.19955 18.0808 8.15308 18.0703 8.12792 18.0703H6.77627L5.95097 21.3466C5.84979 21.7483 5.44216 21.9919 5.04049 21.8907C4.63882 21.7895 4.39523 21.3819 4.49641 20.9802L5.42347 17.2999L4.48771 12.5236C4.40807 12.1172 4.67303 11.7231 5.07951 11.6434Z" fill="#2D373D"/>
<path d="M19.5128 12.5236C19.5924 12.1172 19.3274 11.7231 18.9209 11.6434C18.5145 11.5638 18.1204 11.8288 18.0407 12.2352L17.1914 16.5703H15.8725C15.3842 16.5703 14.9382 16.7911 14.6254 17.1459C14.3153 17.4976 14.1544 17.9565 14.1544 18.4183V21.1634C14.1544 21.5776 14.4902 21.9134 14.9044 21.9134C15.3186 21.9134 15.6544 21.5776 15.6544 21.1634V18.4183C15.6544 18.2976 15.6975 18.198 15.7505 18.1379C15.8009 18.0808 15.8473 18.0703 15.8725 18.0703H17.2241L18.0494 21.3466C18.1506 21.7483 18.5583 21.9919 18.9599 21.8907C19.3616 21.7895 19.6052 21.3819 19.504 20.9802L18.577 17.3L19.5128 12.5236Z" fill="#2D373D"/>
</svg>
