<svg width="32" height="33" viewBox="0 0 32 33" fill="none" xmlns="http://www.w3.org/2000/svg">
<path d="M25.2498 19.6283C26.8607 19.6283 28.1665 18.3224 28.1665 16.7116C28.1665 15.1008 26.8607 13.7949 25.2498 13.7949C23.639 13.7949 22.3332 15.1008 22.3332 16.7116C22.3332 18.3224 23.639 19.6283 25.2498 19.6283Z" fill="#2D373D"/>
<path d="M5.58317 19.6283C7.194 19.6283 8.49984 18.3224 8.49984 16.7116C8.49984 15.1008 7.194 13.7949 5.58317 13.7949C3.97234 13.7949 2.6665 15.1008 2.6665 16.7116C2.6665 18.3224 3.97234 19.6283 5.58317 19.6283Z" fill="#2D373D"/>
<path d="M15.4165 19.6283C17.0273 19.6283 18.3332 18.3224 18.3332 16.7116C18.3332 15.1008 17.0273 13.7949 15.4165 13.7949C13.8057 13.7949 12.4998 15.1008 12.4998 16.7116C12.4998 18.3224 13.8057 19.6283 15.4165 19.6283Z" fill="#2D373D"/>
</svg>
