<svg width="16" height="16" viewBox="0 0 16 16" fill="none" xmlns="http://www.w3.org/2000/svg">
<path d="M6.44983 6.45007C6.14983 6.45007 5.94983 6.65007 5.94983 6.95007V11.1001C5.94983 11.4001 6.14983 11.6001 6.44983 11.6001C6.74983 11.6001 6.94983 11.4001 6.94983 11.1001V6.95007C6.94983 6.65007 6.74983 6.45007 6.44983 6.45007Z" fill="#2D373D"/>
<path d="M9.5498 6.45007C9.2498 6.45007 9.0498 6.65007 9.0498 6.95007V11.1001C9.0498 11.4001 9.2498 11.6001 9.5498 11.6001C9.8498 11.6001 10.0498 11.4001 10.0498 11.1001V6.95007C10.0498 6.65007 9.8498 6.45007 9.5498 6.45007Z" fill="#2D373D"/>
<path d="M14.1998 3.35005H11.0998V2.85005C11.0998 2.00005 10.3998 1.30005 9.5498 1.30005H6.4498C6.0498 1.30005 5.64981 1.45005 5.3498 1.75005C5.0498 2.05005 4.8998 2.45005 4.8998 2.85005V3.35005H1.7998C1.4998 3.35005 1.2998 3.55005 1.2998 3.85005C1.2998 4.15005 1.4998 4.35005 1.7998 4.35005H2.8498V13.15C2.8498 14 3.5498 14.7 4.3998 14.7H11.5998C12.4498 14.7 13.1498 14 13.1498 13.15V4.35005H14.1998C14.4998 4.35005 14.6998 4.15005 14.6998 3.85005C14.6998 3.55005 14.4998 3.35005 14.1998 3.35005ZM5.89981 2.85005C5.89981 2.70005 5.9998 2.55005 6.0998 2.45005C6.1998 2.35005 6.2998 2.30005 6.4498 2.30005H9.4998C9.7998 2.30005 10.0498 2.55005 10.0498 2.85005V3.35005H5.89981V2.85005ZM12.1998 13.15C12.1998 13.45 11.9498 13.7 11.6498 13.7H4.3998C4.0998 13.7 3.8498 13.45 3.8498 13.15V4.35005H12.1998V13.15Z" fill="#2D373D"/>
</svg>
