<svg width="64" height="65" viewBox="0 0 64 65" fill="none" xmlns="http://www.w3.org/2000/svg">
<path fill-rule="evenodd" clip-rule="evenodd" d="M21.0007 24.7964C21.0007 18.9425 25.7462 14.197 31.6001 14.197C37.454 14.197 42.1995 18.9425 42.1995 24.7964C42.1995 29.9498 38.5218 34.2441 33.6478 35.1981C36.1998 35.491 38.6676 36.3287 40.8806 37.664C43.6813 39.3538 45.9674 41.7762 47.4924 44.6699C48.0074 45.6471 47.6327 46.8567 46.6556 47.3717C45.6784 47.8867 44.4688 47.512 43.9538 46.5348C42.7683 44.2854 40.9912 42.4024 38.8142 41.0888C36.6371 39.7753 34.1427 39.0811 31.6 39.0811C29.0574 39.0811 26.563 39.7753 24.3859 41.0888C22.2089 42.4024 20.4317 44.2854 19.2463 46.5348C18.7313 47.512 17.5217 47.8867 16.5445 47.3717C15.5673 46.8567 15.1927 45.6471 15.7076 44.6699C17.2326 41.7762 19.5188 39.3538 22.3195 37.664C24.5325 36.3287 27.0004 35.4909 29.5524 35.1981C24.6784 34.2441 21.0007 29.9497 21.0007 24.7964ZM31.6001 18.197C27.9554 18.197 25.0007 21.1517 25.0007 24.7964C25.0007 28.4411 27.9554 31.3958 31.6001 31.3958C35.2449 31.3958 38.1995 28.4411 38.1995 24.7964C38.1995 21.1517 35.2449 18.197 31.6001 18.197Z" fill="#2D373D"/>
<path fill-rule="evenodd" clip-rule="evenodd" d="M10 11.168C10 8.37377 12.162 5.90137 15.0769 5.90137H48.9231C51.8381 5.90137 54 8.37377 54 11.168V53.6347C54 56.429 51.8381 58.9014 48.9231 58.9014H15.0769C12.162 58.9014 10 56.429 10 53.6347V11.168ZM15.0769 9.90137C14.5932 9.90137 14 10.354 14 11.168V53.6347C14 54.4487 14.5932 54.9014 15.0769 54.9014H48.9231C49.4068 54.9014 50 54.4487 50 53.6347V11.168C50 10.354 49.4068 9.90137 48.9231 9.90137H15.0769Z" fill="#2D373D"/>
</svg>
