<svg width="24" height="24" viewBox="0 0 24 24" fill="none" xmlns="http://www.w3.org/2000/svg">
<path d="M20.325 3.6751C19.35 2.7001 17.7 2.7001 16.725 3.6751L9.07496 11.4001C8.92496 11.5501 8.84996 11.7001 8.84996 11.8501L8.39996 14.8501C8.39996 15.0751 8.47496 15.3001 8.62496 15.4501C8.77496 15.6001 8.92496 15.6751 9.14996 15.6751H9.22496L12.225 15.2251C12.375 15.2251 12.525 15.1501 12.675 15.0001L20.325 7.2751C20.775 6.8251 21.075 6.1501 21.075 5.4751C21.075 4.8001 20.775 4.1251 20.325 3.6751ZM19.275 6.2251L11.775 13.7251L10.05 13.9501L10.275 12.2251L17.775 4.7251C18.15 4.2751 18.825 4.2751 19.275 4.7251C19.725 5.1001 19.725 5.7751 19.275 6.2251Z" fill="#2D373D"/>
<path d="M18.225 12.2252C17.775 12.2252 17.475 12.5252 17.475 12.9752V19.0502C17.475 19.1252 17.4 19.2752 17.325 19.3502C17.25 19.4252 17.175 19.5002 17.025 19.5002H4.95C4.725 19.5002 4.5 19.2752 4.5 19.0502V6.97521C4.5 6.67521 4.725 6.45021 4.95 6.52521H11.025C11.475 6.52521 11.775 6.22521 11.775 5.77521C11.775 5.32521 11.475 5.02521 11.025 5.02521H4.95C3.9 5.02521 3 5.92521 3 6.97521V19.0502C3 20.1002 3.9 21.0002 4.95 21.0002H17.025C17.55 21.0002 18.075 20.7752 18.375 20.4002C18.75 20.1002 18.975 19.5752 18.975 19.0502V12.9752C18.975 12.5252 18.675 12.2252 18.225 12.2252Z" fill="#2D373D"/>
</svg>
