<svg width="24" height="24" viewBox="0 0 24 24" fill="none" xmlns="http://www.w3.org/2000/svg">
<path d="M19.9501 19.5C18.9751 19.65 18.0001 19.275 17.2501 18.6C17.1001 18.45 16.9501 18.375 16.7251 18.375C16.5001 18.375 16.3501 18.45 16.2001 18.6C16.2001 18.6 16.1251 18.675 16.0501 18.75C15.0001 19.725 13.3501 19.65 12.3751 18.6C12.3001 18.45 12.0751 18.375 11.8501 18.375C11.7001 18.375 11.4751 18.45 11.3251 18.6C11.3251 18.6 11.2501 18.675 11.1751 18.75C10.1251 19.725 8.47506 19.65 7.50006 18.6C7.35006 18.45 7.20006 18.375 6.97506 18.375C6.82506 18.375 6.60006 18.45 6.45006 18.6C5.70006 19.275 4.72506 19.65 3.75006 19.5C3.37506 19.5 3.00006 19.8 2.92506 20.175C2.85006 20.625 3.15006 21 3.60006 21.075C3.82506 21.075 3.97506 21.075 4.20006 21.075C5.17506 21.075 6.15006 20.775 6.75006 20.175C8.25006 21.3 10.2751 21.3 11.7751 20.175C12.3751 20.7 13.2001 20.925 14.0251 21C15.0001 21.075 15.9751 20.775 16.7251 20.175C17.7001 20.85 18.9001 21.15 20.1001 21C20.5501 20.925 20.8501 20.55 20.7751 20.175C20.7001 19.725 20.3251 19.425 19.9501 19.5Z" fill="#2D373D"/>
<path d="M20.925 15.975C20.85 15.6 20.55 15.375 20.25 15.225C20.1 15.15 19.875 15.15 19.725 15.15H12.075V4.57505C12.075 3.67505 11.325 2.92505 10.425 2.92505C9.90002 2.92505 9.45002 3.22505 9.07502 3.67505L4.12502 11.25C3.75002 11.85 3.90002 12.675 4.50002 13.05C4.72502 13.2 4.95002 13.275 5.25002 13.275H10.65V15.15H4.20002C3.90002 15.15 3.52502 15.3001 3.30002 15.525C3.07502 15.75 2.92502 16.05 2.92502 16.425C2.92502 16.575 3.00002 16.8 3.07502 16.95C3.37502 17.7 3.90002 18.375 4.57502 18.9C4.72502 18.975 4.87502 19.05 5.02502 19.05C5.25002 19.05 5.47502 18.975 5.70002 18.825C5.92502 18.525 5.85002 18 5.55002 17.775C5.17502 17.475 4.80002 17.1 4.57502 16.65H19.5C19.275 16.95 19.05 17.25 18.75 17.55C18.45 17.85 18.375 18.3 18.675 18.6C18.975 18.9 19.425 18.975 19.725 18.675C20.175 18.15 20.625 17.625 20.925 16.95C21.075 16.65 21.075 16.275 20.925 15.975ZM5.62502 11.775L10.35 4.50005C10.35 4.42505 10.425 4.42505 10.5 4.42505C10.575 4.42505 10.65 4.50005 10.65 4.57505V11.775H5.62502Z" fill="#2D373D"/>
<path d="M13.6501 14.4001H17.6251C18.3001 14.4001 18.9001 13.8001 18.9751 13.0501C18.9751 12.8251 18.9001 12.6001 18.7501 12.3751L15.3001 7.05006C14.9251 6.45006 14.1001 6.30006 13.5001 6.67506C13.1251 6.97506 12.9001 7.35006 12.9001 7.80006V13.6501C12.9001 14.1001 13.2001 14.4001 13.6501 14.4001ZM14.4001 8.47506L17.2501 12.9001H14.4001V8.47506Z" fill="#2D373D"/>
</svg>
