<svg width="32" height="32" viewBox="0 0 32 32" fill="none" xmlns="http://www.w3.org/2000/svg">
<path fill-rule="evenodd" clip-rule="evenodd" d="M16 6C10.5117 6 6 10.592 6 15.3333V25.6667C6 26.219 5.55228 26.6667 5 26.6667C4.44772 26.6667 4 26.219 4 25.6667V15.3333C4 9.40803 9.48825 4 16 4C22.5117 4 28 9.40803 28 15.3333V25.6667C28 26.219 27.5523 26.6667 27 26.6667C26.4477 26.6667 26 26.219 26 25.6667V15.3333C26 10.592 21.4883 6 16 6Z" fill="#2D373D"/>
<path fill-rule="evenodd" clip-rule="evenodd" d="M10.3333 12C10.0681 12 9.81376 12.1054 9.62623 12.2929C9.43869 12.4804 9.33333 12.7348 9.33333 13C9.33333 14.7443 10.6725 17.0667 13.2581 17.0667C14.5007 17.0667 15.4024 16.4305 16.0001 15.7072C16.5977 16.4305 17.4995 17.0667 18.7421 17.0667C21.3296 17.0667 22.6668 14.7314 22.6668 13C22.6668 12.4477 22.2191 12 21.6668 12H10.3333ZM13.2581 15.0667C12.4956 15.0667 11.9029 14.6013 11.5868 14H14.7542C14.6911 14.1106 14.6215 14.219 14.5454 14.3218C14.1919 14.7994 13.7763 15.0667 13.2581 15.0667ZM17.4547 14.3218C17.3786 14.219 17.3091 14.1106 17.2459 14H20.4109C20.094 14.5996 19.5017 15.0667 18.7421 15.0667C18.2239 15.0667 17.8082 14.7994 17.4547 14.3218Z" fill="#2D373D"/>
<path fill-rule="evenodd" clip-rule="evenodd" d="M19.776 22.2973C19.5861 22.531 19.3011 22.6667 19 22.6667L13 22.6667C12.6989 22.6667 12.4138 22.531 12.2239 22.2973C12.034 22.0637 11.9595 21.7569 12.0211 21.4622C12.147 20.8595 12.4743 19.987 13.0782 19.242C13.6984 18.4769 14.6612 17.7948 16 17.7948C17.3388 17.7948 18.3016 18.4769 18.9218 19.242C19.5257 19.987 19.853 20.8595 19.9789 21.4622C20.0404 21.7569 19.9659 22.0637 19.776 22.2973ZM17.4922 20.6667C17.453 20.6104 17.4117 20.5551 17.3682 20.5014C17.0184 20.0699 16.5812 19.7948 16 19.7948C15.4188 19.7948 14.9816 20.0699 14.6318 20.5014C14.5883 20.5551 14.547 20.6104 14.5078 20.6667H17.4922Z" fill="#2D373D"/>
</svg>
