<svg width="24" height="25" viewBox="0 0 24 25" fill="none" xmlns="http://www.w3.org/2000/svg">
<path d="M21.825 10.1371C21.225 7.51211 19.575 5.33711 17.325 3.91211C15.675 2.93711 13.875 2.41211 12 2.41211C9.3 2.41211 6.825 3.46211 4.875 5.41211C3 7.28711 1.95 9.76211 1.95 12.4621C1.95 14.1871 2.4 15.9121 3.3 17.4121L1.95 21.6121C1.875 21.8371 1.95 22.1371 2.175 22.3621C2.325 22.5121 2.475 22.5871 2.7 22.5871C2.775 22.5871 2.925 22.5121 3 22.5121L7.05 21.1621C9.225 22.4371 11.85 22.8121 14.325 22.2121C16.95 21.6121 19.125 19.9621 20.55 17.7121C21.975 15.4621 22.425 12.7621 21.825 10.1371ZM19.275 16.9621C16.8 21.0121 11.475 22.2121 7.5 19.7371C7.425 19.6621 7.275 19.5871 7.125 19.5871C7.05 19.5871 6.975 19.5871 6.9 19.5871L3.9 20.5621L4.875 17.4871C4.95 17.2621 4.95 17.0371 4.8 16.8871C3.975 15.5371 3.525 13.9621 3.525 12.3871C3.525 10.1371 4.35 7.96211 6 6.38711C7.575 4.81211 9.75 3.91211 12 3.91211C13.575 3.83711 15.15 4.36211 16.5 5.18711C18.45 6.38711 19.8 8.26211 20.325 10.5121C20.85 12.7621 20.475 15.0121 19.275 16.9621Z" fill="#2D373D"/>
<path d="M12.0001 6.61218C10.2001 6.61218 8.77515 8.03718 8.77515 9.83718C8.77515 10.2872 9.07515 10.5872 9.52515 10.5872C9.97515 10.5872 10.2751 10.2872 10.2751 9.83718C10.2751 8.86218 11.0251 8.11218 12.0001 8.11218C12.9751 8.11218 13.7251 8.86218 13.7251 9.83718C13.7251 10.5872 13.2751 11.2622 12.6001 11.4872C11.7751 11.7872 11.2501 12.5372 11.2501 13.3622V14.1872C11.2501 14.6372 11.5501 14.9372 12.0001 14.9372C12.4501 14.9372 12.7501 14.5622 12.7501 14.1872V13.3622C12.7501 13.1372 12.8251 12.9872 13.0501 12.9122C14.3251 12.4622 15.2251 11.1872 15.2251 9.83718C15.2251 8.03718 13.8001 6.61218 12.0001 6.61218Z" fill="#2D373D"/>
<path d="M12.0001 16.4371C11.4001 16.4371 10.9501 16.8871 10.9501 17.4871C10.9501 18.0871 11.4001 18.5371 12.0001 18.5371C12.6001 18.5371 13.0501 18.0871 13.0501 17.4871C13.0501 16.8871 12.6001 16.4371 12.0001 16.4371Z" fill="#2D373D"/>
</svg>
