<svg width="16" height="16" viewBox="0 0 16 16" fill="none" xmlns="http://www.w3.org/2000/svg">
<path fill-rule="evenodd" clip-rule="evenodd" d="M4.93233 11.0664C4.80215 10.9362 4.5911 10.9362 4.46092 11.0664C4.33075 11.1965 4.33075 11.4076 4.46092 11.5378C4.5911 11.6679 4.80215 11.6679 4.93233 11.5378C5.0625 11.4076 5.0625 11.1965 4.93233 11.0664ZM3.75382 10.3593C4.27451 9.83856 5.11873 9.83856 5.63943 10.3593C6.16013 10.88 6.16013 11.7242 5.63943 12.2449C5.11873 12.7656 4.27451 12.7656 3.75382 12.2449C3.23312 11.7242 3.23312 10.88 3.75382 10.3593Z" fill="#2D373D"/>
<path fill-rule="evenodd" clip-rule="evenodd" d="M7.29557 7.67305C7.01799 7.94918 6.60478 8.03792 6.2383 7.90009C5.09288 7.46931 3.93938 7.59313 3.20421 8.36292C2.04662 9.57501 2.04369 11.5732 3.19676 12.7806C4.32705 13.9641 6.42538 13.9639 7.55612 12.7799C8.3374 11.9618 8.47563 10.8871 8.06826 9.69952C7.94404 9.33738 8.03749 8.93611 8.30891 8.6661L9.278 7.70207C9.59073 7.39098 10.07 7.3218 10.4575 7.53066L10.4588 7.53128L10.4659 7.5348C10.4787 7.54096 10.5025 7.55192 10.5347 7.56473C10.6019 7.5915 10.6903 7.62004 10.7828 7.63538C10.9762 7.66745 11.0483 7.62811 11.095 7.58157C11.1487 7.5282 11.194 7.43605 11.166 7.22015C11.1529 7.11916 11.1262 7.02366 11.1011 6.9517C11.0891 6.91708 11.0786 6.89137 11.0726 6.87728C11.0706 6.87243 11.0691 6.8691 11.0683 6.8674C10.8844 6.48421 10.9628 6.02608 11.2646 5.72582L11.41 5.58122C11.7111 5.28169 12.1682 5.20525 12.5501 5.38965C12.5518 5.39044 12.5556 5.39215 12.5613 5.39459C12.5762 5.40102 12.603 5.412 12.6388 5.4246C12.7133 5.45081 12.8114 5.47855 12.9142 5.49226C13.1365 5.52191 13.2169 5.47322 13.2586 5.4297C13.3149 5.37092 13.3507 5.28763 13.3202 5.10038C13.3055 5.00976 13.2781 4.92405 13.2525 4.85939C13.2403 4.82842 13.2299 4.80577 13.2242 4.79388C13.2226 4.79042 13.2213 4.78797 13.2207 4.78661C13.026 4.42373 13.0736 3.978 13.3416 3.66431C13.3585 3.64453 13.3761 3.62552 13.3942 3.60732L13.5007 3.49952C13.5627 3.43665 13.6448 3.30333 13.6604 3.16472C13.667 3.10546 13.6628 3.03922 13.6343 2.96056C13.6053 2.88059 13.5405 2.75894 13.3895 2.60562C13.2417 2.45562 13.1237 2.39231 13.0465 2.36409C12.97 2.33616 12.9031 2.33137 12.8404 2.33852C12.6926 2.35538 12.553 2.44311 12.4942 2.50157L7.29557 7.67305ZM14.3298 5.16529C14.3136 4.69805 14.1019 4.31391 14.1019 4.31391L14.2123 4.20206C14.582 3.82756 15.0577 2.87398 14.1018 1.90379C13.1459 0.933606 12.1627 1.42084 11.789 1.79261L6.59032 6.96409C5.21238 6.44587 3.58495 6.51635 2.48103 7.67226C0.956609 9.26846 0.949164 11.8751 2.47358 13.4713C3.998 15.0675 6.75489 15.0667 8.2793 13.4705C9.38323 12.3146 9.50908 10.8179 9.01416 9.37506L9.98325 8.41103C9.98325 8.41103 11.0735 9.01355 11.8003 8.29053C12.0762 8.01611 12.167 7.68267 12.1736 7.37454C12.1816 6.99953 12.0648 6.66202 12.0046 6.51403C11.9839 6.46324 11.9699 6.43477 11.9699 6.43477L12.1152 6.29017C12.1152 6.29017 12.1434 6.30408 12.1936 6.32475C12.3413 6.3856 12.68 6.50505 13.0547 6.50068C13.3686 6.49703 13.7078 6.40641 13.9807 6.12146C14.2645 5.82527 14.3406 5.47681 14.3298 5.16529Z" fill="#2D373D"/>
</svg>
