<svg width="32" height="33" viewBox="0 0 32 33" fill="none" xmlns="http://www.w3.org/2000/svg">
<path d="M21.0499 20.4409C20.8197 20.2044 20.5422 20.0187 20.2355 19.8957C19.6197 19.643 18.9286 19.643 18.3129 19.8957C18.0061 20.0187 17.7287 20.2044 17.4985 20.4409C17.3978 20.5316 17.267 20.5818 17.1313 20.5818C16.9956 20.5818 16.8648 20.5316 16.7642 20.4409L12.4918 16.1722C12.3988 16.0756 12.3469 15.947 12.3469 15.8131C12.3469 15.6793 12.3988 15.5507 12.4918 15.4541C12.7205 15.2177 12.9058 14.9431 13.0392 14.6429C13.1602 14.338 13.2236 14.0133 13.2261 13.6854C13.2234 13.3532 13.1601 13.0243 13.0392 12.7147C12.9058 12.4144 12.7205 12.1399 12.4918 11.9035L9.82159 9.24381C9.3426 8.79011 8.70689 8.5371 8.04589 8.5371C7.3849 8.5371 6.74918 8.79011 6.27019 9.24381L5.64269 9.88213C4.74377 10.7676 4.17762 11.9338 4.03908 13.1854C3.90053 14.4371 4.19801 15.6981 4.88168 16.7573C6.10824 18.6793 7.54076 20.4628 9.15403 22.0766L10.8763 23.7921C12.4996 25.3995 14.2898 26.8304 16.2168 28.0608C17.1096 28.6167 18.1412 28.9116 19.1941 28.9119C19.3941 28.9252 19.5948 28.9252 19.7949 28.9119C21.0503 28.7725 22.2218 28.2149 23.1193 27.3294L23.7468 26.6911C23.9801 26.4589 24.1652 26.1832 24.2915 25.8797C24.4178 25.5763 24.4828 25.251 24.4828 24.9225C24.4828 24.5939 24.4178 24.2686 24.2915 23.9652C24.1652 23.6617 23.9801 23.386 23.7468 23.1538L21.0499 20.4409ZM22.3049 25.2283L21.6774 25.8666C21.1014 26.428 20.3549 26.7834 19.5546 26.8773C18.7715 26.9434 17.9882 26.7519 17.3249 26.3321C15.5208 25.1914 13.8504 23.8532 12.345 22.3426L10.5559 20.6404C9.04413 19.1317 7.70116 17.4641 6.55057 15.6669C6.11987 14.991 5.936 14.1879 6.02987 13.3929C6.11258 12.5963 6.47138 11.8533 7.04456 11.2917L7.67206 10.6534C7.75508 10.5718 7.86322 10.5203 7.97914 10.5071C8.04604 10.5059 8.11249 10.5183 8.17445 10.5434C8.23642 10.5686 8.29261 10.606 8.33962 10.6534L11.0098 13.3131C11.0559 13.3585 11.0922 13.4128 11.1166 13.4727C11.1293 13.5386 11.1293 13.6062 11.1166 13.6721C11.1304 13.7334 11.1304 13.797 11.1166 13.8583C11.089 13.9204 11.0531 13.9786 11.0098 14.0312C10.7765 14.2634 10.5914 14.5391 10.4651 14.8426C10.3388 15.146 10.2738 15.4713 10.2738 15.7999C10.2738 16.1284 10.3388 16.4537 10.4651 16.7571C10.5914 17.0606 10.7765 17.3363 11.0098 17.5685L15.2822 21.8373C15.7712 22.271 16.4031 22.5106 17.0579 22.5106C17.7127 22.5106 18.3446 22.271 18.8336 21.8373C18.8824 21.7857 18.9415 21.7449 19.0072 21.7176C19.1365 21.6708 19.2783 21.6708 19.4077 21.7176C19.4672 21.7487 19.5213 21.7891 19.5679 21.8373L22.2381 24.4969C22.3311 24.5935 22.3831 24.7221 22.3831 24.856C22.3831 24.9898 22.3311 25.1184 22.2381 25.215L22.3049 25.2283Z" fill="#2D373D"/>
<path d="M27.4718 8.47251C27.3088 8.31045 27.1151 8.1823 26.9019 8.09555C26.6888 8.00879 26.4604 7.96515 26.2301 7.96718H24.895V6.63735C24.882 6.19103 24.6999 5.76613 24.3854 5.44795C24.0709 5.12976 23.6472 4.94183 23.1994 4.92188H20.1687C19.7047 4.92356 19.2595 5.10475 18.927 5.42721C18.6037 5.76393 18.4221 6.21127 18.4197 6.67725V8.00707H17.0846C16.62 8.00592 16.1738 8.18753 15.8429 8.5124C15.6784 8.67406 15.5477 8.86659 15.4583 9.07887C15.369 9.29114 15.3227 9.51896 15.3222 9.74914V12.728C15.3227 12.9581 15.369 13.186 15.4583 13.3982C15.5477 13.6105 15.6784 13.803 15.8429 13.9647C16.1724 14.2932 16.6184 14.4795 17.0846 14.4833H18.4197V15.8131C18.4177 16.0425 18.4615 16.27 18.5486 16.4823C18.6357 16.6946 18.7643 16.8876 18.927 17.0499C19.2595 17.3723 19.7047 17.5535 20.1687 17.5552H23.1994C23.664 17.5564 24.1102 17.3748 24.4411 17.0499C24.6056 16.8882 24.7363 16.6957 24.8257 16.4834C24.915 16.2711 24.9613 16.0433 24.9618 15.8131V14.4833H26.2969C26.7561 14.4729 27.1927 14.2829 27.5125 13.9544C27.8322 13.626 28.0094 13.1854 28.0058 12.728V9.70925C28.0044 9.47801 27.9563 9.2494 27.8646 9.03697C27.7729 8.82454 27.6393 8.6326 27.4718 8.47251ZM25.9764 12.462H24.0005C23.8685 12.4602 23.7375 12.4848 23.6152 12.5343C23.4929 12.5838 23.3818 12.6572 23.2884 12.7501C23.1951 12.8431 23.1214 12.9538 23.0717 13.0756C23.022 13.1974 22.9973 13.3279 22.9991 13.4594V15.5605H20.4624V13.486C20.4624 13.2214 20.3569 12.9677 20.1691 12.7807C19.9814 12.5937 19.7267 12.4886 19.4611 12.4886H17.3917V9.96192H19.421C19.5566 9.96024 19.6905 9.93153 19.8147 9.87747C19.9389 9.82342 20.051 9.74511 20.1444 9.64718C20.2377 9.54925 20.3104 9.43368 20.3581 9.30729C20.4059 9.18091 20.4277 9.04628 20.4224 8.91135V6.94321H22.9591V8.91135C22.9591 9.17587 23.0646 9.42956 23.2524 9.6166C23.4402 9.80364 23.6948 9.90872 23.9604 9.90872H25.9764V12.462Z" fill="#2D373D"/>
</svg>
