<svg width="24" height="25" viewBox="0 0 24 25" fill="none" xmlns="http://www.w3.org/2000/svg">
<path d="M12 14.5618C12.375 14.5618 12.75 14.1868 12.75 13.8118V12.4618C12.75 12.0118 12.45 11.7118 12 11.7118C11.55 11.7118 11.25 12.0118 11.25 12.4618V13.8118C11.25 14.2618 11.55 14.5618 12 14.5618Z" fill="#2D373D"/>
<path d="M12 10.3618C12.375 10.3618 12.75 10.0618 12.75 9.68679V8.33679C12.75 7.88679 12.45 7.58679 12 7.58679C11.55 7.58679 11.25 7.88679 11.25 8.33679V9.61179C11.25 10.0618 11.55 10.3618 12 10.3618Z" fill="#2D373D"/>
<path d="M12 6.23672C12.375 6.23672 12.75 5.86172 12.75 5.48672V4.13672C12.75 3.68672 12.45 3.38672 12 3.38672C11.55 3.38672 11.25 3.68672 11.25 4.13672V5.48672C11.25 5.93672 11.55 6.23672 12 6.23672Z" fill="#2D373D"/>
<path d="M11.9999 17.2616C11.9249 17.2616 11.9249 17.2616 11.8499 17.2616L7.64991 8.48661C7.49991 8.11161 7.04991 7.96161 6.67491 8.11161C6.29991 8.26161 6.14991 8.71161 6.29991 9.08661L8.32491 13.3616C7.72491 13.5866 7.12491 13.8116 6.59991 14.1116C6.44991 14.1866 6.29991 14.1866 6.14991 14.1116C5.99991 14.0366 5.92491 13.9616 5.84991 13.8116L3.67491 9.38661C3.14991 8.41161 3.59991 7.21161 4.57491 6.76161C6.07491 5.93661 7.72491 5.41161 9.44991 5.11161C9.89991 5.03661 10.1249 4.66161 10.1249 4.21161C10.0499 3.83661 9.59991 3.53661 9.22491 3.61161C7.42491 3.91161 5.54991 4.51161 3.89991 5.41161C2.17491 6.31161 1.49991 8.33661 2.32491 10.0616L4.49991 14.4866C4.72491 15.0116 5.17491 15.3866 5.69991 15.5366C5.92491 15.6116 6.14991 15.6866 6.37491 15.6866C6.67491 15.6866 6.89991 15.6116 7.19991 15.4616H7.27491C7.79991 15.1616 8.39991 14.9366 8.99991 14.7116L10.4999 17.8616C10.1249 18.2366 9.89991 18.7616 9.89991 19.3616C9.89991 20.5616 10.8749 21.4616 11.9999 21.4616C13.1249 21.4616 14.0999 20.5616 14.0999 19.3616C14.0999 18.1616 13.1999 17.2616 11.9999 17.2616ZM11.9999 20.0366C11.6249 20.0366 11.3999 19.8116 11.3999 19.4366C11.3999 19.0616 11.6999 18.8366 11.9999 18.8366C12.2999 18.8366 12.5999 19.0616 12.5999 19.4366C12.5999 19.8116 12.3749 20.0366 11.9999 20.0366Z" fill="#2D373D"/>
<path d="M20.0999 5.41161C18.4499 4.51161 16.6499 3.91161 14.7749 3.61161C14.3249 3.53661 13.9499 3.83661 13.8749 4.21161C13.7999 4.66161 14.0999 5.03661 14.4749 5.11161C16.1999 5.41161 17.8499 5.93661 19.4249 6.76161C20.3999 7.21161 20.7749 8.41161 20.3249 9.38661L18.1499 13.8116C18.1499 13.9616 17.9999 14.0366 17.8499 14.1116C17.6999 14.1866 17.5499 14.1866 17.3999 14.1116C16.5749 13.7366 15.7499 13.3616 14.8499 13.1366C14.4749 13.0616 14.0249 13.2866 13.9499 13.6616C13.8749 14.0366 14.0999 14.4116 14.4749 14.5616C15.2999 14.7866 16.0499 15.0866 16.7999 15.4616C17.0999 15.6116 17.3999 15.6866 17.6999 15.6866C17.9249 15.6866 18.1499 15.6116 18.2999 15.5366C18.8249 15.3866 19.2749 15.0116 19.4999 14.4866L21.6749 10.0616C22.4999 8.33661 21.7499 6.23661 20.0999 5.41161Z" fill="#2D373D"/>
</svg>
