<svg width="32" height="33" viewBox="0 0 32 33" fill="none" xmlns="http://www.w3.org/2000/svg">
<path d="M23.3337 8.92122C22.7814 8.92122 22.3337 8.47351 22.3337 7.92122L22.3337 5.58789L20.0003 5.58789C19.448 5.58789 19.0003 5.14017 19.0003 4.58789C19.0003 4.03561 19.448 3.58789 20.0003 3.58789H23.3337C23.8859 3.58789 24.3337 4.03561 24.3337 4.58789L24.3337 7.92122C24.3337 8.47351 23.8859 8.92122 23.3337 8.92122Z" fill="#2D373D"/>
<path d="M14.2028 6.19653C14.2337 6.17559 14.2597 6.17049 14.2832 6.17143C14.3085 6.17244 14.3475 6.18169 14.3929 6.21572L24.4003 13.7213C24.8422 14.0527 25.469 13.9632 25.8003 13.5213C26.1317 13.0795 26.0422 12.4527 25.6003 12.1213L15.5929 4.61572C14.8682 4.07224 13.8747 4.004 13.0824 4.53978C11.1041 5.87762 5.4836 9.88355 2.98872 12.1865C2.5829 12.5611 2.55759 13.1938 2.93219 13.5996C3.3068 14.0054 3.93946 14.0307 4.34528 13.6561C6.71672 11.4671 12.2219 7.53604 14.2028 6.19653Z" fill="#2D373D"/>
<path d="M7.66699 14.2546C7.66699 13.7023 7.21928 13.2546 6.66699 13.2546C6.11471 13.2546 5.66699 13.7023 5.66699 14.2546V23.5879C5.66699 24.8766 6.71166 25.9212 8.00033 25.9212H12.0003C12.5526 25.9212 13.0003 25.4735 13.0003 24.9212C13.0003 24.3689 12.5526 23.9212 12.0003 23.9212H8.00033C7.81623 23.9212 7.66699 23.772 7.66699 23.5879V14.2546Z" fill="#2D373D"/>
<path d="M21.3337 17.9212C21.8859 17.9212 22.3337 18.3689 22.3337 18.9212V21.2546H24.667C25.2193 21.2546 25.667 21.7023 25.667 22.2546C25.667 22.8068 25.2193 23.2546 24.667 23.2546H22.3337V25.5879C22.3337 26.1402 21.8859 26.5879 21.3337 26.5879C20.7814 26.5879 20.3337 26.1402 20.3337 25.5879V23.2546H18.0003C17.448 23.2546 17.0003 22.8068 17.0003 22.2546C17.0003 21.7023 17.448 21.2546 18.0003 21.2546H20.3337V18.9212C20.3337 18.3689 20.7814 17.9212 21.3337 17.9212Z" fill="#2D373D"/>
<path fill-rule="evenodd" clip-rule="evenodd" d="M29.3337 22.2546C29.3337 26.6728 25.7519 30.2546 21.3337 30.2546C16.9154 30.2546 13.3337 26.6728 13.3337 22.2546C13.3337 17.8363 16.9154 14.2546 21.3337 14.2546C25.7519 14.2546 29.3337 17.8363 29.3337 22.2546ZM27.3337 22.2546C27.3337 25.5683 24.6474 28.2546 21.3337 28.2546C18.0199 28.2546 15.3337 25.5683 15.3337 22.2546C15.3337 18.9408 18.0199 16.2546 21.3337 16.2546C24.6474 16.2546 27.3337 18.9408 27.3337 22.2546Z" fill="#2D373D"/>
</svg>
