<svg width="64" height="65" viewBox="0 0 64 65" fill="none" xmlns="http://www.w3.org/2000/svg">
<path d="M41.1734 36.9142C41.1734 36.6738 41.1256 36.4358 41.0329 36.2141C40.9401 35.9923 40.8041 35.7912 40.6329 35.6225C40.4617 35.4537 40.2586 35.3207 40.0355 35.2312C39.8124 35.1416 39.5738 35.0973 39.3334 35.1009C39.0943 35.0973 38.8569 35.1417 38.6352 35.2316C38.4136 35.3214 38.2123 35.4549 38.0432 35.624C37.8741 35.7931 37.7406 35.9944 37.6508 36.216C37.5609 36.4377 37.5165 36.6751 37.5201 36.9142V38.7542C37.5165 38.9946 37.5608 39.2332 37.6504 39.4563C37.7399 39.6794 37.8729 39.8825 38.0416 40.0537C38.2104 40.2249 38.4115 40.3609 38.6332 40.4537C38.855 40.5465 39.093 40.5942 39.3334 40.5942C39.8214 40.5942 40.2894 40.4003 40.6345 40.0553C40.9795 39.7102 41.1734 39.2422 41.1734 38.7542V36.9142Z" fill="#2D373D"/>
<path d="M25.9944 35.6131C26.3395 35.9582 26.5334 36.4262 26.5334 36.9142V38.7542C26.5334 39.2422 26.3395 39.7102 25.9944 40.0553C25.6494 40.4004 25.1814 40.5942 24.6934 40.5942C24.2054 40.5942 23.7373 40.4004 23.3923 40.0553C23.0472 39.7102 22.8534 39.2422 22.8534 38.7542V36.9142C22.8534 36.4262 23.0472 35.9582 23.3923 35.6131C23.7373 35.2681 24.2054 35.0742 24.6934 35.0742C25.1814 35.0742 25.6494 35.2681 25.9944 35.6131Z" fill="#2D373D"/>
<path fill-rule="evenodd" clip-rule="evenodd" d="M21.9468 46.4875H42.0801C44.3716 46.4875 46.5692 45.5772 48.1895 43.9569C49.8099 42.3366 50.7201 40.139 50.7201 37.8475C50.7201 35.5561 49.8099 33.3584 48.1895 31.7381C46.5692 30.1178 44.3716 29.2075 42.0801 29.2075H21.9468C19.6553 29.2075 17.4577 30.1178 15.8374 31.7381C14.2171 33.3584 13.3068 35.5561 13.3068 37.8475C13.3068 40.139 14.2171 42.3366 15.8374 43.9569C17.4577 45.5772 19.6553 46.4875 21.9468 46.4875ZM18.6658 34.5132C19.536 33.643 20.7162 33.1542 21.9468 33.1542H42.0801C43.3107 33.1542 44.4909 33.643 45.3611 34.5132C46.2313 35.3834 46.7201 36.5636 46.7201 37.7942C46.7201 39.0248 46.2313 40.205 45.3611 41.0752C44.4909 41.9453 43.3107 42.4342 42.0801 42.4342H21.9468C20.7162 42.4342 19.536 41.9453 18.6658 41.0752C17.7957 40.205 17.3068 39.0248 17.3068 37.7942C17.3068 36.5636 17.7957 35.3834 18.6658 34.5132Z" fill="#2D373D"/>
<path fill-rule="evenodd" clip-rule="evenodd" d="M34.0267 14.4819C34.2236 14.3864 34.4143 14.2766 34.597 14.153C35.3483 13.6446 35.932 12.9249 36.2743 12.0848C36.6166 11.2447 36.702 10.322 36.5199 9.43328C36.3377 8.5446 35.8961 7.7299 35.251 7.09218C34.6058 6.45447 33.786 6.02239 32.8953 5.85059C32.0045 5.67878 31.0829 5.77497 30.2468 6.12698C29.4107 6.47899 28.6978 7.07102 28.1982 7.8282C27.6986 8.58538 27.4348 9.4737 27.44 10.3808C27.44 10.9842 27.5597 11.5815 27.7922 12.1383C28.0246 12.695 28.3653 13.2001 28.7944 13.6242C29.1547 13.9803 29.5712 14.2734 30.0267 14.4921V15.9325C22.8423 16.285 15.9908 19.1818 10.7201 24.1409C7.76796 26.7596 5.97469 30.442 5.7334 34.3809C5.7334 42.2209 8.4534 52.3009 12.6401 54.8875C18.7242 57.7008 25.3504 59.148 32.0534 59.1275C40.8267 59.1275 50.2934 56.4609 52.6667 54.7542C56.0534 52.3275 58.2401 44.3275 58.2401 34.3809C58.2401 22.7773 46.0416 16.8536 34.0267 15.9963V14.4819ZM13.6267 27.1275C18.4596 22.5878 24.8103 20.0113 31.4401 19.9009H32.0267C43.0934 20.1675 54.3201 25.2342 54.3201 34.3809C54.3201 44.8342 51.9201 50.4342 50.4267 51.5009C44.6115 53.9371 38.3579 55.1534 32.0534 55.0742C26.0682 55.1441 20.1352 53.9539 14.6401 51.5809C12.6667 50.3542 9.7334 42.5142 9.7334 34.5142C10.0169 31.6381 11.4142 28.9869 13.6267 27.1275Z" fill="#2D373D"/>
</svg>
