<svg width="64" height="65" viewBox="0 0 64 65" fill="none" xmlns="http://www.w3.org/2000/svg">
<path d="M50.1999 33.862C49.1999 33.862 48.1999 34.662 47.9999 35.662C47.5999 38.862 45.9999 47.062 40.9999 51.862C38.7999 50.862 36.7999 48.862 35.5999 46.862C37.7999 45.862 39.1999 44.262 39.1999 42.062C39.1999 39.062 36.1999 36.662 32.1999 36.662C28.1999 36.662 25.1999 39.062 25.1999 42.062C25.1999 44.262 26.7999 46.062 28.9999 46.862C27.5999 48.662 25.5999 50.862 23.3999 51.662C18.3999 46.862 16.7999 38.662 16.3999 35.462C16.3999 34.262 15.1999 33.462 14.1999 33.662C12.9999 33.662 12.1999 34.862 12.3999 35.862C14.3999 50.462 21.7999 59.062 32.1999 59.062C35.7999 59.062 38.9999 58.062 41.7999 56.062C42.5999 56.062 43.3999 55.462 43.5999 54.662C47.9999 50.662 50.9999 44.262 51.9999 35.862C51.9999 35.062 51.1999 34.062 50.1999 33.862ZM32.1999 41.062C34.1999 41.062 35.1999 41.862 35.1999 42.462C35.1999 42.862 34.3999 43.462 32.9999 43.662C32.7999 43.662 32.5999 43.662 32.3999 43.662C32.1999 43.662 31.9999 43.662 31.5999 43.862C29.9999 43.662 29.1999 42.862 29.1999 42.462C29.1999 42.062 30.1999 41.062 32.1999 41.062ZM27.5999 54.662C29.5999 53.262 31.3999 51.262 32.5999 49.662C33.7999 51.062 35.1999 53.062 37.1999 54.462C35.7999 55.062 33.9999 55.462 32.1999 55.462C30.3999 55.462 28.9999 55.262 27.5999 54.662Z" fill="#2D373D"/>
<path d="M56.9999 13.2621C55.3999 10.0621 52.3999 7.66211 48.7999 6.86211C47.7999 6.66211 46.5999 6.66211 45.5999 6.86211C44.1999 7.06211 43.1999 7.86211 42.1999 8.86211C39.1999 6.66211 35.5999 5.66211 31.7999 5.66211C28.1999 5.86211 24.5999 7.06211 21.9999 9.06211C21.1999 7.86211 19.7999 6.86211 18.1999 6.66211C17.1999 6.46211 15.9999 6.46211 14.9999 6.66211C11.3999 7.46211 8.39986 9.86211 6.79986 12.8621C4.39986 16.6621 4.99986 22.0621 8.59986 28.2621C9.59986 30.0621 11.3999 31.0621 13.1999 31.0621C13.9999 31.0621 14.9999 30.8621 15.7999 30.4621C16.7999 29.8621 17.5999 29.0621 17.9999 28.2621C20.1999 24.2621 21.9999 19.8621 23.3999 15.2621C23.5999 14.6621 23.5999 13.8621 23.3999 13.2621C25.7999 11.0621 28.7999 9.66211 31.9999 9.66211C35.1999 9.66211 37.9999 10.6621 40.3999 12.4621C40.1999 13.2621 40.3999 14.2621 40.5999 15.2621C41.9999 19.6621 43.7999 24.0621 45.9999 28.2621C46.5999 29.2621 47.1999 29.8621 48.1999 30.4621C48.9999 30.8621 49.9999 31.0621 50.7999 31.0621C51.3999 31.0621 51.7999 31.0621 51.9999 31.2621C53.3999 30.8621 54.5999 29.8621 55.1999 28.6621C58.7999 22.4621 59.3999 17.0621 56.9999 13.2621ZM19.3999 14.2621C18.1999 18.4621 16.5999 22.4621 14.3999 26.4621C14.1999 26.6621 13.9999 26.8621 13.7999 27.0621C13.1999 27.2621 12.3999 27.0621 11.9999 26.4621C10.3999 23.6621 8.19986 18.4621 10.1999 14.8621C11.3999 12.6621 13.5999 11.0621 15.9999 10.4621C16.1999 10.4621 16.3999 10.4621 16.5999 10.4621C16.7999 10.4621 16.9999 10.4621 17.1999 10.6621C18.7999 11.0621 19.7999 12.6621 19.3999 14.2621ZM51.9999 26.2621C51.5999 27.0621 50.7999 27.2621 50.1999 26.8621C49.9999 26.6621 49.7999 26.4621 49.5999 26.2621C47.5999 22.4621 45.7999 18.2621 44.5999 14.0621C44.3999 13.4621 44.5999 12.6621 44.9999 11.8621C45.3999 11.0621 45.9999 10.6621 46.7999 10.4621C47.1999 10.4621 47.7999 10.4621 48.1999 10.4621C50.5999 11.0621 52.5999 12.6621 53.7999 14.8621C55.9999 18.2621 53.5999 23.4621 51.9999 26.2621Z" fill="#2D373D"/>
<path d="M23.9999 30.8619C24.1999 31.0619 24.5999 31.0619 24.7999 31.0619C26.3999 31.0619 27.5999 29.8619 27.5999 28.2619C27.5999 27.8619 27.5999 27.6619 27.3999 27.4619C27.1999 26.6619 26.3999 25.8619 25.5999 25.6619C25.3999 25.4619 24.9999 25.4619 24.7999 25.4619C24.5999 25.4619 24.1999 25.4619 23.9999 25.6619C23.1999 25.8619 22.3999 26.6619 22.1999 27.4619C21.9999 27.6619 21.9999 28.0619 21.9999 28.2619C21.9999 28.4619 21.9999 28.8619 22.1999 29.0619C22.3999 30.0619 22.9999 30.6619 23.9999 30.8619Z" fill="#2D373D"/>
<path d="M38.7998 30.8619C38.9998 31.0619 39.3998 31.0619 39.5998 31.0619C41.1998 31.0619 42.3998 29.8619 42.3998 28.2619C42.3998 27.8619 42.3998 27.6619 42.1998 27.4619C41.9998 26.6619 41.1998 25.8619 40.3998 25.6619C40.1998 25.4619 39.7998 25.4619 39.5998 25.4619C39.3998 25.4619 38.9998 25.4619 38.7998 25.6619C37.9998 25.8619 37.1998 26.6619 36.9998 27.4619C36.7998 27.6619 36.7998 28.0619 36.7998 28.2619C36.7998 28.4619 36.7998 28.8619 36.9998 29.0619C37.1998 30.0619 37.7998 30.6619 38.7998 30.8619Z" fill="#2D373D"/>
</svg>
