<svg width="24" height="24" viewBox="0 0 24 24" fill="none" xmlns="http://www.w3.org/2000/svg">
<path d="M21.3002 3.9751H2.7002C2.2502 3.9751 1.9502 4.2751 1.9502 4.7251V19.3501C1.9502 19.8001 2.2502 20.1001 2.7002 20.1001H21.3002C21.6752 20.1001 22.0502 19.7251 22.0502 19.3501V4.7251C22.0502 4.2751 21.7502 3.9751 21.3002 3.9751ZM20.5502 5.4751V7.2751H3.4502V5.4751H20.5502ZM3.4502 18.6001V8.7751H20.5502V18.6001H3.4502Z" fill="#2D373D"/>
<path d="M8.40012 10.5001C6.67512 10.5001 5.25012 11.9251 5.25012 13.6501V14.8501C5.25012 15.3001 5.55012 15.6001 6.00012 15.6001H7.65012V16.0501C7.65012 16.5001 7.95012 16.8001 8.40012 16.8001C8.85012 16.8001 9.15012 16.5001 9.15012 16.0501V11.2501C9.15012 10.8001 8.85012 10.5001 8.40012 10.5001ZM7.65012 14.1001H6.75012V13.7251C6.75012 13.0501 7.12512 12.5251 7.65012 12.2251V14.1001Z" fill="#2D373D"/>
<path d="M18.0002 10.5001C16.2752 10.5001 14.8502 11.9251 14.8502 13.6501V14.8501C14.8502 15.3001 15.1502 15.6001 15.6002 15.6001H17.2502V16.0501C17.2502 16.5001 17.5502 16.8001 18.0002 16.8001C18.3752 16.8001 18.7502 16.5001 18.7502 16.0501V11.2501C18.7502 10.8001 18.4502 10.5001 18.0002 10.5001ZM17.2502 14.1001H16.3502V13.7251C16.3502 13.0501 16.7252 12.5251 17.2502 12.2251V14.1001Z" fill="#2D373D"/>
<path d="M12.0002 10.5001C11.4752 10.5001 11.0252 10.7251 10.6502 11.1001C10.2752 11.4751 10.0502 11.9251 10.0502 12.4501V14.8501C10.0502 15.9001 10.9502 16.8001 12.0002 16.8001C13.0502 16.8001 13.9502 15.9751 13.9502 14.8501V12.4501C13.9502 11.4001 13.0502 10.5001 12.0002 10.5001ZM12.4502 14.8501C12.4502 15.0751 12.2252 15.3001 12.0002 15.3001C11.7752 15.3001 11.5502 15.0751 11.5502 14.8501V12.4501C11.5502 12.3751 11.6252 12.2251 11.7002 12.1501C11.7752 12.0751 11.8502 12.0001 12.0002 12.0001C12.2252 12.0001 12.4502 12.2251 12.4502 12.4501V14.8501Z" fill="#2D373D"/>
</svg>
