<svg width="16" height="17" viewBox="0 0 16 17" fill="none" xmlns="http://www.w3.org/2000/svg">
<path fill-rule="evenodd" clip-rule="evenodd" d="M2.6665 6.62874C2.94265 6.62874 3.1665 6.8526 3.1665 7.12874V9.12874C3.1665 11.0617 4.73351 12.6287 6.6665 12.6287H8.6665C10.5995 12.6287 12.1665 11.0617 12.1665 9.12874V7.12874C12.1665 6.8526 12.3904 6.62874 12.6665 6.62874C12.9426 6.62874 13.1665 6.8526 13.1665 7.12874V9.12874C13.1665 11.614 11.1518 13.6287 8.6665 13.6287H6.6665C4.18122 13.6287 2.1665 11.614 2.1665 9.12874V7.12874C2.1665 6.8526 2.39036 6.62874 2.6665 6.62874Z" fill="#2D373D"/>
<path fill-rule="evenodd" clip-rule="evenodd" d="M7.99984 12.6287C8.27598 12.6287 8.49984 12.8526 8.49984 13.1287V14.7954C8.49984 15.0716 8.27598 15.2954 7.99984 15.2954C7.72369 15.2954 7.49984 15.0716 7.49984 14.7954V13.1287C7.49984 12.8526 7.72369 12.6287 7.99984 12.6287Z" fill="#2D373D"/>
<path fill-rule="evenodd" clip-rule="evenodd" d="M7.79092 1.79542L7.79311 1.79541L7.86053 1.79541C8.38304 1.7962 8.89874 1.91397 9.3698 2.14008C9.84086 2.36619 10.2553 2.6949 10.5827 3.10208C10.7558 3.31728 10.7216 3.63201 10.5064 3.80506C10.2912 3.97811 9.97651 3.94394 9.80346 3.72875C9.56957 3.4379 9.27354 3.20311 8.93707 3.0416C8.60071 2.88015 8.23247 2.79603 7.85937 2.79541H7.79425C7.12484 2.79862 6.48373 3.06596 6.01036 3.53933C5.53698 4.01271 5.26964 4.65381 5.26644 5.32323V8.174C5.26762 8.37278 5.29195 8.57074 5.33894 8.7639C5.40421 9.03221 5.23961 9.30264 4.97129 9.36791C4.70297 9.43319 4.43255 9.26859 4.36727 9.00027C4.30179 8.73108 4.26795 8.45517 4.26645 8.17813L4.26644 8.17542V5.31989C4.27052 4.3864 4.64317 3.49231 5.30325 2.83223C5.96334 2.17214 6.85743 1.79951 7.79092 1.79542Z" fill="#2D373D"/>
<path fill-rule="evenodd" clip-rule="evenodd" d="M10.3798 8.17428V5.68209H11.3798V8.17542L11.3798 8.1776C11.3758 9.10976 11.0042 10.0027 10.3458 10.6626C9.68736 11.3224 8.79525 11.696 7.86311 11.7021L7.85983 11.7021L7.79477 11.7021C7.04171 11.7068 6.30697 11.4698 5.69852 11.0261C5.60135 10.955 5.50894 10.8766 5.42301 10.7924L6.12331 10.0785C6.17481 10.129 6.2299 10.1758 6.28814 10.2184C6.72401 10.5362 7.25036 10.7057 7.78979 10.7021L7.79316 10.7021L7.85811 10.7021C8.52637 10.6973 9.16584 10.4293 9.63789 9.95622C10.1101 9.48301 10.3766 8.84274 10.3798 8.17428Z" fill="#2D373D"/>
<path fill-rule="evenodd" clip-rule="evenodd" d="M13.3534 3.10852C13.5487 3.30379 13.5487 3.62037 13.3534 3.81563L3.02006 14.149C2.8248 14.3442 2.50821 14.3442 2.31295 14.149C2.11769 13.9537 2.11769 13.6371 2.31295 13.4419L12.6463 3.10852C12.8415 2.91326 13.1581 2.91326 13.3534 3.10852Z" fill="#2D373D"/>
</svg>
