<svg width="32" height="32" viewBox="0 0 32 32" fill="none" xmlns="http://www.w3.org/2000/svg">
<path d="M9 13.3332C9 12.7809 8.55229 12.3332 8 12.3332C7.44772 12.3332 7 12.7809 7 13.3332V16.6665C7 17.2188 7.44772 17.6665 8 17.6665C8.55229 17.6665 9 17.2188 9 16.6665V13.3332Z" fill="#2D373D"/>
<path fill-rule="evenodd" clip-rule="evenodd" d="M3 9.33317C3 7.30813 4.64162 5.6665 6.66667 5.6665H20C22.025 5.6665 23.6667 7.30813 23.6667 9.33317V10.3291L23.6839 10.3162C24.0829 10.0182 24.5458 9.67252 25.0349 9.36339C26.0218 8.73962 27.1013 8.85261 27.8914 9.46802C28.6319 10.0449 29.0508 10.9988 29.0508 11.9998V16.6665L29.0464 20.011C29.0453 21.0128 28.6247 21.9668 27.8825 22.5422C27.0904 23.1563 26.0098 23.2654 25.0245 22.6373C24.5391 22.3279 24.0797 21.9825 23.6836 21.6847L23.6667 21.672V22.6665C23.6667 24.6915 22.025 26.3332 20 26.3332H6.66667C4.64162 26.3332 3 24.6915 3 22.6665V9.33317ZM23.6667 19.2317V12.7651C24.0383 12.545 24.4201 12.2621 24.7716 12L24.872 11.9251C25.2812 11.6197 25.6834 11.3195 26.1035 11.054C26.257 10.957 26.3641 10.9445 26.4273 10.948C26.494 10.9517 26.5735 10.9767 26.6623 11.0458C26.8513 11.1931 27.0508 11.5281 27.0508 11.9998V15.9994L27.0464 20.0083C27.0458 20.4806 26.8457 20.815 26.6569 20.9614C26.5682 21.0302 26.489 21.0548 26.4226 21.0582C26.3597 21.0614 26.2527 21.0487 26.0992 20.9509C25.6823 20.6851 25.2832 20.3852 24.8771 20.0801L24.7743 20.0029C24.422 19.7385 24.0392 19.4531 23.6667 19.2317ZM6.66667 7.6665C5.74619 7.6665 5 8.4127 5 9.33317V22.6665C5 23.587 5.74619 24.3332 6.66667 24.3332H20C20.9205 24.3332 21.6667 23.587 21.6667 22.6665V9.33317C21.6667 8.4127 20.9205 7.6665 20 7.6665H6.66667Z" fill="#2D373D"/>
</svg>
