<svg width="64" height="65" viewBox="0 0 64 65" fill="none" xmlns="http://www.w3.org/2000/svg">
<path d="M7.35099 39.8849C6.97756 39.8849 6.57744 39.7782 6.23068 39.5382C5.32376 38.9249 5.05702 37.6716 5.67052 36.7649C5.77722 36.6316 15.5933 22.3382 33.0382 32.6316C41.1738 37.4316 48.7492 36.4449 54.9376 29.7782L55.2577 29.4316C56.0312 28.6582 57.3116 28.6582 58.0851 29.4316C58.8587 30.2049 58.8587 31.4849 58.0851 32.2582L57.8718 32.4982C50.3497 40.6049 40.8003 41.8849 30.9842 36.0982C16.8736 27.7782 9.2982 38.5516 9.00479 39.0049C8.60468 39.5649 7.99117 39.8849 7.35099 39.8849Z" fill="#2D373D"/>
<path d="M7.35099 49.7234C6.97756 49.7234 6.57744 49.6168 6.23068 49.3768C5.32376 48.7634 5.05702 47.5101 5.67052 46.6034C5.77722 46.4701 15.5933 32.1768 33.0382 42.4701C41.1738 47.2701 48.7492 46.2834 54.9376 39.6168L55.2577 39.2701C56.0312 38.4968 57.3116 38.4968 58.0851 39.2701C58.8587 40.0434 58.8587 41.3234 58.0851 42.0968L57.8718 42.3368C50.3497 50.4434 40.8003 51.7234 30.9842 45.9368C16.8736 37.6168 9.2982 48.3901 9.00479 48.8434C8.60468 49.4034 7.99117 49.7234 7.35099 49.7234Z" fill="#2D373D"/>
<path d="M7.35105 59.5932C6.97761 59.5932 6.5775 59.4866 6.23074 59.2466C5.29714 58.6332 5.05708 57.3799 5.67058 56.4732C5.77728 56.3399 15.5933 42.0466 33.0382 52.3399C41.1738 57.1399 48.7493 56.1532 54.9377 49.4866L55.2577 49.1399C56.0313 48.3666 57.3117 48.3666 58.0852 49.1399C58.8588 49.9132 58.8588 51.1932 58.0852 51.9666L57.8451 52.2066C50.323 60.3132 40.7737 61.5666 30.9576 55.7799C16.7403 47.4066 9.27158 58.2332 8.97817 58.6866C8.57806 59.2732 7.96455 59.5666 7.2977 59.5666L7.35105 59.5932Z" fill="#2D373D"/>
<path d="M39.9985 31.5711C38.9052 31.5711 37.9985 30.6645 37.9985 29.5711V13.0645L36.0785 14.9845C35.3052 15.7578 34.0252 15.7578 33.2519 14.9845C32.4785 14.2111 32.4785 12.9311 33.2519 12.1578L38.5852 6.82448C38.7719 6.63781 38.9852 6.47781 39.2252 6.39781C39.7052 6.21115 40.2919 6.21115 40.7719 6.39781C41.0119 6.50448 41.2252 6.63781 41.4119 6.82448L46.7452 12.1578C47.5185 12.9311 47.5185 14.2111 46.7452 14.9845C45.9719 15.7578 44.6919 15.7578 43.9185 14.9845L41.9985 13.0645V29.5711C41.9985 30.6645 41.0919 31.5711 39.9985 31.5711Z" fill="#2D373D"/>
<path d="M23.9985 26.9045C22.9052 26.9045 21.9985 25.9978 21.9985 24.9045V13.0645L20.0785 14.9845C19.3052 15.7578 18.0252 15.7578 17.2519 14.9845C16.4785 14.2111 16.4785 12.9311 17.2519 12.1578L22.5852 6.82448C22.7719 6.63781 22.9852 6.47781 23.2252 6.39781C23.7052 6.21115 24.2919 6.21115 24.7719 6.39781C25.0119 6.50448 25.2252 6.63781 25.4119 6.82448L30.7452 12.1578C31.5185 12.9311 31.5185 14.2111 30.7452 14.9845C29.9719 15.7578 28.6919 15.7578 27.9185 14.9845L25.9985 13.0645V24.9045C25.9985 25.9978 25.0919 26.9045 23.9985 26.9045Z" fill="#2D373D"/>
</svg>
