<svg width="32" height="33" viewBox="0 0 32 33" fill="none" xmlns="http://www.w3.org/2000/svg">
<path d="M10.1947 8.56238C10.1947 7.90955 10.3977 7.02935 10.8848 6.34115C11.3404 5.69731 12.0566 5.19336 13.236 5.19336C14.3947 5.19336 15.1487 5.72451 15.6466 6.41605C16.1734 7.14764 16.3866 8.03329 16.3866 8.56238C16.3866 9.11467 16.8343 9.56238 17.3866 9.56238H21.2095C21.3225 9.56238 21.5144 9.60452 21.6492 9.70159C21.7065 9.74288 21.7491 9.79037 21.78 9.85028C21.8105 9.90939 21.8479 10.0159 21.8479 10.2008V12.9314C21.8479 13.4837 22.2956 13.9314 22.8479 13.9314C23.4002 13.9314 23.8479 13.4837 23.8479 12.9314V10.2008C23.8479 9.21949 23.4166 8.50968 22.8178 8.07853C22.27 7.68408 21.6426 7.56238 21.2095 7.56238H18.2774C18.1231 6.81443 17.7993 5.98301 17.2697 5.24744C16.4569 4.11855 15.1356 3.19336 13.236 3.19336C11.3572 3.19336 10.0527 4.05473 9.25221 5.18581C8.72327 5.93323 8.42166 6.78359 8.28488 7.56238H5.37178C4.39051 7.56238 3.6807 7.99365 3.24954 8.59247C2.8551 9.14031 2.7334 9.76768 2.7334 10.2008V27.1307C2.7334 28.112 3.16466 28.8218 3.76349 29.253C4.31132 29.6474 4.93869 29.7691 5.37178 29.7691H14.0003C14.5526 29.7691 15.0003 29.3214 15.0003 28.7691C15.0003 28.2168 14.5526 27.7691 14.0003 27.7691H5.37178C5.25874 27.7691 5.06692 27.727 4.9321 27.6299C4.87476 27.5886 4.83222 27.5411 4.80131 27.4812C4.77082 27.4221 4.7334 27.3156 4.7334 27.1307V10.2008C4.7334 10.0877 4.77554 9.89591 4.87261 9.76108C4.91389 9.70374 4.96138 9.6612 5.02129 9.63029C5.0804 9.5998 5.18687 9.56238 5.37178 9.56238H9.19468C9.74696 9.56238 10.1947 9.11467 10.1947 8.56238Z" fill="#2D373D"/>
<path d="M13.3452 9.1085C13.9484 9.1085 14.4374 8.61948 14.4374 8.01625C14.4374 7.41301 13.9484 6.92399 13.3452 6.92399C12.7419 6.92399 12.2529 7.41301 12.2529 8.01625C12.2529 8.61948 12.7419 9.1085 13.3452 9.1085Z" fill="#2D373D"/>
<path d="M8.10189 14.1159C7.5496 14.1159 7.10189 14.5636 7.10189 15.1159C7.10189 15.6682 7.5496 16.1159 8.10189 16.1159H14.1093C14.6616 16.1159 15.1093 15.6682 15.1093 15.1159C15.1093 14.5636 14.6616 14.1159 14.1093 14.1159H8.10189Z" fill="#2D373D"/>
<path d="M7.10189 18.9388C7.10189 18.3865 7.5496 17.9388 8.10189 17.9388H11.3787C11.9309 17.9388 12.3787 18.3865 12.3787 18.9388C12.3787 19.4911 11.9309 19.9388 11.3787 19.9388H8.10189C7.5496 19.9388 7.10189 19.4911 7.10189 18.9388Z" fill="#2D373D"/>
<path d="M8.10189 22.3079C7.5496 22.3079 7.10189 22.7556 7.10189 23.3079C7.10189 23.8601 7.5496 24.3079 8.10189 24.3079H11.3787C11.9309 24.3079 12.3787 23.8601 12.3787 23.3079C12.3787 22.7556 11.9309 22.3079 11.3787 22.3079H8.10189Z" fill="#2D373D"/>
<path d="M25.7765 20.6955C26.1434 20.2827 26.1063 19.6506 25.6935 19.2837C25.2807 18.9168 24.6486 18.954 24.2817 19.3667L20.6173 23.4892L19.1827 22.0546C18.7922 21.6641 18.159 21.6641 17.7685 22.0546C17.378 22.4452 17.378 23.0783 17.7685 23.4688L19.953 25.6534C20.1477 25.8481 20.4142 25.9539 20.6895 25.9458C20.9648 25.9377 21.2245 25.8165 21.4075 25.6106L25.7765 20.6955Z" fill="#2D373D"/>
<path fill-rule="evenodd" clip-rule="evenodd" d="M14.1995 22.2156C14.1995 18.0439 17.5814 14.662 21.7531 14.662C25.9248 14.662 29.3066 18.0439 29.3066 22.2156C29.3066 26.3873 25.9248 29.7691 21.7531 29.7691C17.5814 29.7691 14.1995 26.3873 14.1995 22.2156ZM21.7531 16.662C18.6859 16.662 16.1995 19.1484 16.1995 22.2156C16.1995 25.2827 18.6859 27.7691 21.7531 27.7691C24.8202 27.7691 27.3066 25.2827 27.3066 22.2156C27.3066 19.1484 24.8202 16.662 21.7531 16.662Z" fill="#2D373D"/>
</svg>
