<svg width="16" height="17" viewBox="0 0 16 17" fill="none" xmlns="http://www.w3.org/2000/svg">
<path d="M7.94 15.1076C7.87414 15.1091 7.8087 15.0968 7.74786 15.0716C7.68701 15.0463 7.63211 15.0086 7.58667 14.9609C7.52913 14.9032 7.48636 14.8325 7.46199 14.7547C7.43762 14.677 7.43236 14.5945 7.44667 14.5143L7.84 12.5743C7.85971 12.477 7.90584 12.387 7.97333 12.3143L11.9267 8.3676C12.0715 8.21729 12.2464 8.09917 12.44 8.02094C12.831 7.86125 13.269 7.86125 13.66 8.02094C13.8547 8.10072 14.0315 8.21858 14.18 8.3676C14.3303 8.51558 14.4495 8.69202 14.5308 8.88661C14.612 9.08121 14.6537 9.29005 14.6533 9.50094C14.6487 9.92388 14.4788 10.3282 14.18 10.6276V10.6276L10.2333 14.5743C10.1653 14.6459 10.0768 14.6948 9.98 14.7143L8.04 15.1009L7.94 15.1076ZM8.78667 12.9143L8.58 13.9743L9.66 13.7609L13.5 9.92094C13.6091 9.80479 13.6729 9.65343 13.68 9.49427C13.6777 9.33601 13.613 9.18505 13.5 9.07427C13.4445 9.01804 13.3789 8.9728 13.3067 8.94094C13.1609 8.88437 12.9992 8.88437 12.8533 8.94094C12.7802 8.97122 12.7143 9.01666 12.66 9.07427L8.78667 12.9143ZM6.38667 13.5543H3.28C3.11266 13.5553 2.94681 13.5228 2.79224 13.4586C2.63766 13.3945 2.49749 13.3001 2.38 13.1809C2.26053 13.0633 2.16546 12.9233 2.10025 12.7688C2.03504 12.6144 2.00097 12.4486 2 12.2809V3.74094C2.00167 3.40033 2.13832 3.07428 2.38 2.83427C2.61905 2.59604 2.94251 2.46187 3.28 2.46094H11.0467C11.2139 2.46067 11.3795 2.49353 11.534 2.55761C11.6885 2.62168 11.8287 2.71571 11.9467 2.83427C12.0666 2.9529 12.162 3.09407 12.2272 3.24967C12.2924 3.40527 12.3262 3.57223 12.3267 3.74094V7.23427C12.3249 7.36634 12.2717 7.49252 12.1783 7.58592C12.0849 7.67931 11.9587 7.73255 11.8267 7.73427C11.6946 7.73255 11.5684 7.67931 11.475 7.58592C11.3816 7.49252 11.3284 7.36634 11.3267 7.23427V3.74094C11.3279 3.70487 11.3214 3.66897 11.3076 3.63563C11.2938 3.60228 11.273 3.57228 11.2467 3.54761C11.2218 3.52102 11.1919 3.49966 11.1587 3.48478C11.1255 3.4699 11.0897 3.46179 11.0533 3.46094H3.28C3.20778 3.4623 3.13873 3.49087 3.08667 3.54094C3.03257 3.59359 3.00143 3.66546 3 3.74094V12.2809C3.00006 12.3174 3.00781 12.3535 3.02275 12.3868C3.03768 12.4201 3.05946 12.4499 3.08667 12.4743C3.11134 12.5006 3.14135 12.5214 3.17469 12.5352C3.20803 12.549 3.24394 12.5555 3.28 12.5543H6.38667C6.51874 12.556 6.64491 12.6092 6.73831 12.7026C6.83171 12.796 6.88494 12.9222 6.88667 13.0543C6.88667 13.1199 6.87373 13.1849 6.84861 13.2456C6.82348 13.3063 6.78665 13.3614 6.74022 13.4078C6.69379 13.4543 6.63867 13.4911 6.57801 13.5162C6.51735 13.5413 6.45233 13.5543 6.38667 13.5543V13.5543ZM8.71333 10.4543H4.83333C4.70073 10.4543 4.57355 10.4016 4.47978 10.3078C4.38601 10.2141 4.33333 10.0869 4.33333 9.95427C4.33244 9.88836 4.34476 9.82294 4.36957 9.76187C4.39438 9.70081 4.43117 9.64533 4.47778 9.59872C4.52439 9.55211 4.57987 9.51531 4.64094 9.4905C4.702 9.4657 4.76742 9.45337 4.83333 9.45427H8.71333C8.77924 9.45337 8.84466 9.4657 8.90573 9.4905C8.9668 9.51531 9.02228 9.55211 9.06888 9.59872C9.11549 9.64533 9.15229 9.70081 9.1771 9.76187C9.20191 9.82294 9.21423 9.88836 9.21333 9.95427C9.21333 10.0199 9.2004 10.085 9.17527 10.1456C9.15015 10.2063 9.11332 10.2614 9.06689 10.3078C9.02046 10.3543 8.96534 10.3911 8.90467 10.4162C8.84401 10.4413 8.77899 10.4543 8.71333 10.4543V10.4543ZM9.49333 8.12094H4.82667C4.76076 8.12184 4.69534 8.10951 4.63427 8.08471C4.5732 8.0599 4.51772 8.0231 4.47112 7.97649C4.42451 7.92988 4.38771 7.8744 4.3629 7.81334C4.33809 7.75227 4.32577 7.68685 4.32667 7.62094C4.32667 7.48833 4.37934 7.36115 4.47311 7.26738C4.56688 7.17362 4.69406 7.12094 4.82667 7.12094H9.49333C9.6254 7.12267 9.75158 7.1759 9.84498 7.26929C9.93837 7.36269 9.99161 7.48887 9.99333 7.62094C9.99333 7.75355 9.94066 7.88072 9.84689 7.97449C9.75312 8.06826 9.62594 8.12094 9.49333 8.12094ZM9.49333 5.79427H6.38667C6.25406 5.79427 6.12688 5.74159 6.03311 5.64783C5.93934 5.55406 5.88667 5.42688 5.88667 5.29427C5.88577 5.22836 5.89809 5.16294 5.9229 5.10187C5.94771 5.04081 5.98451 4.98533 6.03112 4.93872C6.07772 4.89211 6.1332 4.85531 6.19427 4.8305C6.25534 4.80569 6.32076 4.79338 6.38667 4.79427H9.49333C9.62594 4.79427 9.75312 4.84695 9.84689 4.94072C9.94066 5.03449 9.99333 5.16166 9.99333 5.29427C9.99161 5.42634 9.93837 5.55252 9.84498 5.64592C9.75158 5.73931 9.6254 5.79255 9.49333 5.79427V5.79427Z" fill="#2D373D"/>
</svg>
