<svg width="16" height="17" viewBox="0 0 16 17" fill="none" xmlns="http://www.w3.org/2000/svg">
<path fill-rule="evenodd" clip-rule="evenodd" d="M7.1411 3.54758C7.12936 3.54711 7.11637 3.54966 7.10089 3.56013C6.11048 4.22988 3.35787 6.19542 2.17215 7.28993C1.96924 7.47723 1.65291 7.46458 1.46561 7.26167C1.27831 7.05875 1.29096 6.74243 1.49387 6.55512C2.74131 5.40364 5.55154 3.40067 6.54071 2.73176C6.93686 2.46386 7.43362 2.49798 7.79594 2.76972L12.7997 6.52253C13.0206 6.68821 13.0654 7.00161 12.8997 7.22253C12.734 7.44344 12.4206 7.48821 12.1997 7.32253L7.19594 3.56972C7.17325 3.55271 7.15379 3.54809 7.1411 3.54758Z" fill="#2D373D"/>
<path fill-rule="evenodd" clip-rule="evenodd" d="M3.33301 7.08919C3.60915 7.08919 3.83301 7.31305 3.83301 7.58919V12.2559C3.83301 12.3479 3.90763 12.4225 3.99968 12.4225H5.99968C6.27582 12.4225 6.49968 12.6464 6.49968 12.9225C6.49968 13.1987 6.27582 13.4225 5.99968 13.4225H3.99968C3.35534 13.4225 2.83301 12.9002 2.83301 12.2559V7.58919C2.83301 7.31305 3.05687 7.08919 3.33301 7.08919Z" fill="#2D373D"/>
<path fill-rule="evenodd" clip-rule="evenodd" d="M11.6663 4.92253C11.3902 4.92253 11.1663 4.69867 11.1663 4.42253L11.1663 3.25586L9.99967 3.25586C9.72353 3.25586 9.49967 3.032 9.49967 2.75586C9.49967 2.47972 9.72353 2.25586 9.99967 2.25586L11.6663 2.25586C11.9425 2.25586 12.1663 2.47972 12.1663 2.75586L12.1663 4.42253C12.1663 4.69867 11.9425 4.92253 11.6663 4.92253Z" fill="#2D373D"/>
<path fill-rule="evenodd" clip-rule="evenodd" d="M11.2936 8.86272L13.6075 13.936C13.7597 14.2426 13.5117 14.5892 13.1402 14.5892H8.5125C8.14096 14.5892 7.89301 14.2426 8.04521 13.936L10.3591 8.86272C10.5401 8.49802 11.1126 8.49802 11.2936 8.86272ZM7.14081 13.5092C6.60493 14.6195 7.57417 15.5892 8.5125 15.5892H13.1402C14.0785 15.5892 15.0477 14.6195 14.5119 13.5092L12.2035 8.44776C12.1989 8.43777 12.1942 8.42787 12.1893 8.41804C11.8981 7.83151 11.3174 7.58919 10.8263 7.58919C10.3353 7.58919 9.75455 7.83151 9.46336 8.41804C9.45848 8.42787 9.45376 8.43777 9.44921 8.44776L7.14081 13.5092Z" fill="#2D373D"/>
<path fill-rule="evenodd" clip-rule="evenodd" d="M10.8305 9.67773C11.1066 9.67773 11.3305 9.90159 11.3305 10.1777V11.7949C11.3305 12.0711 11.1066 12.2949 10.8305 12.2949C10.5544 12.2949 10.3305 12.0711 10.3305 11.7949V10.1777C10.3305 9.90159 10.5544 9.67773 10.8305 9.67773Z" fill="#2D373D"/>
<path d="M11.5101 13.3918C11.5101 13.7596 11.2116 14.0578 10.8434 14.0578C10.4752 14.0578 10.1768 13.7596 10.1768 13.3918C10.1768 13.0241 10.4752 12.7259 10.8434 12.7259C11.2116 12.7259 11.5101 13.0241 11.5101 13.3918Z" fill="#2D373D"/>
</svg>
