<svg width="24" height="25" viewBox="0 0 24 25" fill="none" xmlns="http://www.w3.org/2000/svg">
<path d="M13.8752 19.811C13.5002 19.736 13.1252 19.961 12.9752 20.336C12.9002 20.636 12.6002 20.936 12.3002 21.011C12.0752 21.086 11.7752 21.086 11.5502 20.936C11.3252 20.786 11.1752 20.561 11.1002 20.336C10.9502 19.886 10.5752 19.661 10.1252 19.811C9.67523 19.886 9.45023 20.336 9.60023 20.711C9.82523 21.386 10.2002 21.911 10.8002 22.211C11.1752 22.436 11.6252 22.511 12.0002 22.511C12.2252 22.511 12.4502 22.5111 12.7502 22.3611C13.5002 22.136 14.1752 21.536 14.4002 20.711C14.4752 20.336 14.2502 19.961 13.8752 19.811Z" fill="#2D373D"/>
<path d="M19.9501 17.4111C19.9501 17.3361 18.9751 16.2111 18.9751 11.1111C18.9751 7.51113 16.2001 4.58613 12.7501 4.21113V3.16113C12.7501 2.71113 12.4501 2.41113 12.0001 2.41113C11.5501 2.41113 11.2501 2.71113 11.2501 3.16113V4.21113C7.80012 4.58613 5.02512 7.58613 5.02512 11.1111C5.02512 15.9111 3.97512 17.4861 3.97512 17.4861C3.82512 17.7111 3.75012 18.0861 3.90012 18.3111C4.05012 18.6111 4.27512 18.7611 4.57512 18.7611H19.4251C19.8001 18.7611 20.1001 18.5361 20.1751 18.2361C20.2501 17.9361 20.1751 17.6361 19.9501 17.4111ZM5.77512 17.2611C6.15012 16.2111 6.60012 14.3361 6.52512 11.1861C6.52512 8.26113 8.85012 5.86113 11.7001 5.71113C11.7751 5.71113 11.9251 5.78613 12.0001 5.78613C12.0751 5.78613 12.2251 5.78613 12.3001 5.71113C15.1501 5.86113 17.4751 8.26113 17.4751 11.1861C17.4751 14.3361 17.8501 16.2111 18.2251 17.2611H5.77512Z" fill="#2D373D"/>
</svg>
