<svg width="24" height="24" viewBox="0 0 24 24" fill="none" xmlns="http://www.w3.org/2000/svg">
<path d="M14.25 12.0002C14.25 13.2428 13.2426 14.2502 12 14.2502C10.7574 14.2502 9.75 13.2428 9.75 12.0002C9.75 10.7575 10.7574 9.75018 12 9.75018C13.2426 9.75018 14.25 10.7575 14.25 12.0002Z" fill="#2D373D"/>
<path fill-rule="evenodd" clip-rule="evenodd" d="M1.9502 12.0002C1.9502 6.44973 6.44973 1.9502 12.0002 1.9502C17.5507 1.9502 22.0502 6.44973 22.0502 12.0002C22.0502 17.5507 17.5507 22.0502 12.0002 22.0502C6.44973 22.0502 1.9502 17.5507 1.9502 12.0002ZM11.25 3.48265C7.12644 3.84111 3.841 7.1266 3.48264 11.2502H7C7.41421 11.2502 7.75 11.586 7.75 12.0002C7.75 12.4144 7.41421 12.7502 7 12.7502H3.48264C3.84099 16.8738 7.12643 20.1593 11.25 20.5177V17.0002C11.25 16.586 11.5858 16.2502 12 16.2502C12.4142 16.2502 12.75 16.586 12.75 17.0002V20.5178C16.8738 20.1595 20.1594 16.8739 20.5178 12.7502H17C16.5858 12.7502 16.25 12.4144 16.25 12.0002C16.25 11.586 16.5858 11.2502 17 11.2502H20.5178C20.1594 7.12647 16.8737 3.8409 12.75 3.48262V7.00018C12.75 7.4144 12.4142 7.75018 12 7.75018C11.5858 7.75018 11.25 7.4144 11.25 7.00018V3.48265Z" fill="#2D373D"/>
</svg>
