<svg width="32" height="33" viewBox="0 0 32 33" fill="none" xmlns="http://www.w3.org/2000/svg">
<path d="M18.3 20.2615H17.5C17.2 20.2615 16.9 20.0615 16.9 19.6615V15.5615C16.9 14.5615 16.1 13.7615 15.1 13.7615H14.3C13.7 13.7615 13.3 14.1615 13.3 14.7615C13.3 15.3615 13.7 15.7615 14.3 15.7615H15V19.7615C15 21.1615 16.1 22.3615 17.6 22.3615H18.4C19 22.3615 19.3 21.8615 19.3 21.2615C19.3 20.6615 18.9 20.2615 18.3 20.2615Z" fill="#2D373D"/>
<path d="M15.6002 12.4615C16.3002 12.4615 17.0002 11.8615 17.0002 11.0615C17.0002 10.2615 16.4002 9.6615 15.6002 9.6615C14.8002 9.6615 14.2002 10.2615 14.2002 11.0615C14.2002 11.8615 14.8002 12.4615 15.6002 12.4615Z" fill="#2D373D"/>
<path d="M16.0001 3.06152C8.6001 3.06152 2.6001 9.16152 2.6001 16.4615C2.6001 23.7615 8.6001 29.7615 16.0001 29.7615C23.3001 29.7615 29.4001 23.8615 29.4001 16.4615C29.4001 9.06152 23.4001 3.06152 16.0001 3.06152ZM16.0001 27.8615C9.7001 27.8615 4.6001 22.7615 4.6001 16.4615C4.6001 10.1615 9.7001 5.06152 16.0001 5.06152C22.2001 5.06152 27.4001 10.1615 27.4001 16.4615C27.4001 22.7615 22.3001 27.8615 16.0001 27.8615Z" fill="#2D373D"/>
</svg>
