<svg width="64" height="65" viewBox="0 0 64 65" fill="none" xmlns="http://www.w3.org/2000/svg">
<path fill-rule="evenodd" clip-rule="evenodd" d="M33.9452 18.5285C33.5261 18.3192 33.0026 18.0796 32.4876 17.9951C32.233 17.9533 31.6987 17.8981 31.1235 18.1594C30.4145 18.4815 30.0434 19.0904 29.9133 19.6337C29.8074 20.0761 29.8586 20.4603 29.8886 20.6413C29.9238 20.8529 29.9785 21.048 30.0212 21.1892C30.0544 21.2989 30.1343 21.5387 30.1997 21.7348C30.2395 21.8542 30.274 21.9576 30.2891 22.0054C30.4642 22.5568 30.5166 22.9087 30.4838 23.141L30.4828 23.1485C30.4736 23.2153 30.4587 23.3235 30.287 23.4717C30.2449 23.464 30.2035 23.4559 30.1538 23.4462C30.0875 23.4333 30.0065 23.4174 29.8899 23.396C29.6732 23.3563 29.3727 23.3067 29.0399 23.2932C28.3224 23.264 27.4142 23.4036 26.5743 24.0858C25.8012 24.7137 25.3047 25.6277 24.9572 26.6747C23.6384 30.6482 26.286 34.6273 30.0292 35.6303C33.8811 36.6623 37.8403 34.3765 38.8725 30.5247C40.1574 25.7294 38.4023 20.7552 33.9452 18.5285ZM32.0834 27.0822C33.3684 26.3231 34.098 25.2673 34.3692 24.1044C35.2732 25.538 35.5595 27.4342 35.0088 29.4894C34.5484 31.2073 32.7825 32.2269 31.0645 31.7666C29.2377 31.2771 28.2559 29.434 28.7535 27.9348C28.8614 27.61 28.957 27.4154 29.0215 27.3056C29.0616 27.3117 29.1101 27.3198 29.1692 27.3306L29.2868 27.353C29.4231 27.3793 29.6223 27.4177 29.7758 27.4415C30.2117 27.5093 31.1578 27.6289 32.0834 27.0822Z" fill="#2D373D"/>
<path fill-rule="evenodd" clip-rule="evenodd" d="M31.9996 6.25391C26.4636 6.25391 22.8417 7.11831 20.4441 8.17327C18.2035 9.15913 17.1246 10.2803 16.6922 10.7298C16.6508 10.7728 16.6153 10.8097 16.5853 10.8397C16.2102 11.2148 15.9995 11.7235 15.9995 12.2539V43.5872C15.9995 44.4051 16.4974 45.1405 17.2567 45.4442C17.8351 45.6755 18.523 45.914 19.3328 46.1441V50.2539C19.3328 50.9226 19.667 51.5471 20.2234 51.918C21.2114 52.5766 22.8456 53.1395 24.7512 53.5437C25.5365 53.7103 26.4006 53.8567 27.3328 53.9727V57.597C27.3328 58.7016 28.2283 59.597 29.3328 59.597C30.4374 59.597 31.3328 58.7016 31.3328 57.597V54.2484C31.5529 54.252 31.7752 54.2539 31.9995 54.2539C32.4271 54.2539 32.8471 54.2471 33.2588 54.2341V57.597C33.2588 58.7016 34.1542 59.597 35.2588 59.597C36.3633 59.597 37.2588 58.7016 37.2588 57.597V53.8936C37.9669 53.7927 38.6316 53.6744 39.2479 53.5437C41.1534 53.1395 42.7876 52.5766 43.7756 51.918C44.332 51.5471 44.6662 50.9226 44.6662 50.2539V46.1441C45.476 45.914 46.1639 45.6755 46.7423 45.4442C47.5016 45.1405 47.9995 44.4051 47.9995 43.5872V12.2539C47.9995 11.7235 47.7888 11.2148 47.4137 10.8397C47.3839 10.8099 47.3488 10.7734 47.3077 10.7307C46.8753 10.2813 45.7956 9.15912 43.555 8.17328C41.1574 7.11831 37.5355 6.25391 31.9996 6.25391ZM40.6662 46.9949C38.3568 47.3493 35.5005 47.5872 31.9996 47.5872C28.4986 47.5872 25.6422 47.3492 23.3328 46.9949V49.0029C23.8673 49.2015 24.6145 49.4257 25.5812 49.6308C27.2733 49.9897 29.4673 50.2539 31.9995 50.2539C34.5317 50.2539 36.7257 49.9897 38.4178 49.6308C39.3845 49.4257 40.1317 49.2015 40.6662 49.0029V46.9949ZM19.9995 42.1703V13.0917C20.4085 12.7329 21.0359 12.283 22.055 11.8345C23.824 11.0562 26.8688 10.2539 31.9996 10.2539C37.1303 10.2539 40.1751 11.0562 41.9441 11.8345C42.9632 12.283 43.5905 12.7328 43.9995 13.0917V42.1703C41.76 42.8589 37.9644 43.5872 31.9996 43.5872C26.0347 43.5872 22.2391 42.8589 19.9995 42.1703Z" fill="#2D373D"/>
</svg>
