<svg width="64" height="65" viewBox="0 0 64 65" fill="none" xmlns="http://www.w3.org/2000/svg">
<path fill-rule="evenodd" clip-rule="evenodd" d="M13.9332 32.1157C15.0378 32.1157 15.9332 33.0111 15.9332 34.1157V53.8357C15.9332 54.177 16.0688 54.5042 16.3101 54.7455C16.5514 54.9868 16.8786 55.1224 17.2199 55.1224H46.7999C47.1411 55.1224 47.4684 54.9868 47.7097 54.7455C47.951 54.5042 48.0865 54.177 48.0865 53.8357V34.1157C48.0865 33.0111 48.982 32.1157 50.0865 32.1157C51.1911 32.1157 52.0865 33.0111 52.0865 34.1157V53.8357C52.0865 55.2378 51.5295 56.5825 50.5381 57.5739C49.5467 58.5654 48.202 59.1224 46.7999 59.1224H17.2199C15.8178 59.1224 14.4731 58.5654 13.4816 57.5739C12.4902 56.5825 11.9332 55.2378 11.9332 53.8357V34.1157C11.9332 33.0111 12.8286 32.1157 13.9332 32.1157Z" fill="#2D373D"/>
<path fill-rule="evenodd" clip-rule="evenodd" d="M30.6452 6.36016C31.4136 5.64297 32.6061 5.64297 33.3745 6.36016L58.0245 29.3668C58.832 30.1205 58.8756 31.3861 58.122 32.1936C57.3683 33.0011 56.1027 33.0447 55.2952 32.291L32.0099 10.558L8.72451 32.291C7.91701 33.0447 6.65143 33.0011 5.89776 32.1936C5.14409 31.3861 5.18773 30.1205 5.99523 29.3668L30.6452 6.36016Z" fill="#2D373D"/>
<path fill-rule="evenodd" clip-rule="evenodd" d="M27.7903 26.6094C28.4736 25.9262 29.4003 25.5423 30.3665 25.5423H33.6532C34.6195 25.5423 35.5462 25.9262 36.2294 26.6094C36.9127 27.2927 37.2965 28.2194 37.2965 29.1857V32.1157H40.2265C41.1928 32.1157 42.1195 32.4995 42.8028 33.1828C43.486 33.866 43.8699 34.7927 43.8699 35.759V39.0457C43.8699 40.0119 43.486 40.9386 42.8028 41.6219C42.1195 42.3051 41.1928 42.689 40.2265 42.689H37.2965V45.619C37.2965 46.5853 36.9127 47.512 36.2294 48.1952C35.5462 48.8785 34.6195 49.2623 33.6532 49.2623H30.3665C29.4003 49.2623 28.4736 48.8785 27.7903 48.1952C27.1071 47.512 26.7232 46.5853 26.7232 45.619V42.689H23.7932C22.8269 42.689 21.9002 42.3051 21.217 41.6219C20.5337 40.9386 20.1499 40.0119 20.1499 39.0457V35.759C20.1499 34.7927 20.5337 33.866 21.217 33.1828C21.9002 32.4995 22.8269 32.1157 23.7932 32.1157H26.7232V29.1857C26.7232 28.2194 27.1071 27.2927 27.7903 26.6094ZM30.7232 29.5423V34.1157C30.7232 35.2202 29.8278 36.1157 28.7232 36.1157H24.1499V38.689H28.7232C29.8278 38.689 30.7232 39.5844 30.7232 40.689V45.2623H33.2965V40.689C33.2965 39.5844 34.192 38.689 35.2965 38.689H39.8699V36.1157H35.2965C34.192 36.1157 33.2965 35.2202 33.2965 34.1157V29.5423H30.7232Z" fill="#2D373D"/>
</svg>
