<svg width="16" height="17" viewBox="0 0 16 17" fill="none" xmlns="http://www.w3.org/2000/svg">
<path fill-rule="evenodd" clip-rule="evenodd" d="M6.16667 12.8843L6.16179 12.8843L6.16 12.8843C6.0085 12.8836 5.85142 12.8568 5.70667 12.7976L2.77333 11.6243C2.54667 11.5309 2.35333 11.3776 2.21333 11.1709C2.07333 10.9643 2 10.7243 2 10.4776V3.45094C2 3.31094 2.03333 3.17094 2.1 3.04427C2.16667 2.9176 2.26 2.81094 2.38 2.73094C2.49333 2.65094 2.63333 2.60427 2.77333 2.58427C2.91333 2.57094 3.06 2.58427 3.19333 2.64427L6.08 3.7976C6.13333 3.8176 6.2 3.8176 6.25333 3.7976L9.37333 2.55094C9.66667 2.43094 9.99333 2.43094 10.2867 2.55094L13.22 3.72427C13.4467 3.8176 13.6467 3.97094 13.78 4.1776C13.92 4.3776 13.9933 4.6176 13.9933 4.87094V6.9976C13.9933 7.27094 13.7667 7.4976 13.4933 7.4976C13.22 7.4976 12.9933 7.27094 12.9933 6.9976V4.87094C12.9933 4.82427 12.98 4.7776 12.9533 4.74427C12.9267 4.70427 12.8867 4.6776 12.8467 4.6576L10.3333 3.65227V6.63094C10.3333 6.90427 10.1067 7.13094 9.83333 7.13094C9.56 7.13094 9.33333 6.90427 9.33333 6.63094V3.64676L6.66667 4.71229V11.7064L7.66 11.3109C7.92 11.2109 8.20667 11.3309 8.30667 11.5909C8.40667 11.8443 8.28667 12.1376 8.02667 12.2376L6.62 12.7976C6.47902 12.8553 6.33187 12.8822 6.17856 12.8842L6.16667 12.8843ZM5.66667 4.71752V11.7056L3.14667 10.6976C3.1 10.6776 3.06667 10.6509 3.04 10.6109C3.01333 10.5709 3 10.5243 3 10.4776V3.64427L5.66667 4.71752Z" fill="#2D373D"/>
<path d="M11.3001 11.0276C11.683 11.0276 11.9934 10.7172 11.9934 10.3343C11.9934 9.95137 11.683 9.64095 11.3001 9.64095C10.9172 9.64095 10.6068 9.95137 10.6068 10.3343C10.6068 10.7172 10.9172 11.0276 11.3001 11.0276Z" fill="#2D373D"/>
<path fill-rule="evenodd" clip-rule="evenodd" d="M11.3003 14.4643C11.1669 14.4643 11.0336 14.4309 10.9203 14.3776C10.8069 14.3243 10.7003 14.2376 10.6203 14.1376C9.70026 12.9576 8.60026 11.3443 8.60026 10.3376C8.60026 9.61761 8.88026 8.93761 9.39359 8.43095C9.89359 7.93095 10.5936 7.63761 11.3003 7.63761C12.0069 7.63761 12.7003 7.91761 13.2069 8.43095C13.7136 8.94428 14.0003 9.61761 14.0003 10.3376C14.0003 11.3443 12.9003 12.9576 11.9803 14.1376C11.9003 14.2443 11.7936 14.3309 11.6736 14.3843C11.5603 14.4376 11.4269 14.4709 11.2936 14.4709L11.3003 14.4643ZM11.3003 8.63761C10.8536 8.63761 10.4136 8.81761 10.1003 9.13761C9.78693 9.45761 9.60026 9.88428 9.60026 10.3376C9.60026 10.8509 10.2669 12.0376 11.3003 13.3843C12.3336 12.0376 13.0003 10.8509 13.0003 10.3376C13.0003 9.88428 12.8269 9.45761 12.5003 9.13761C12.1869 8.82428 11.7469 8.63761 11.3003 8.63761Z" fill="#2D373D"/>
</svg>
