<svg width="64" height="64" viewBox="0 0 64 64" fill="none" xmlns="http://www.w3.org/2000/svg">
<path d="M55.3998 35.5998L53.1998 33.5998L51.7998 34.9998L52.9998 33.3998C52.5998 32.9998 52.3998 32.5998 52.3998 31.9998C52.3998 31.3998 52.5998 30.9998 52.9998 30.5998L55.1998 28.5998C56.5998 27.3998 57.1998 25.5998 57.1998 23.7998C56.9998 22.1998 56.3998 20.5998 55.1998 19.5998C53.9998 18.3998 52.3998 17.7998 50.7998 17.9998H47.9998C46.7998 17.7998 45.9998 16.9998 45.9998 15.7998L46.1998 12.9998C46.1998 11.1998 45.5998 9.39981 44.1998 8.19981C41.5998 5.99981 37.7998 6.19981 35.5998 8.59981L33.5998 10.7998C33.5998 10.9998 33.3998 10.9998 33.3998 10.9998C32.9998 11.3998 32.5998 11.5998 31.9998 11.5998C31.3998 11.5998 30.9998 11.3998 30.5998 10.9998L28.5998 8.79981C27.3998 7.39981 25.5998 6.79981 23.7998 6.79981C22.1998 6.79981 20.5998 7.59981 19.5998 8.79981C18.3998 9.99981 17.9998 11.5998 17.9998 13.1998L18.1998 15.9998V16.1998C18.1998 16.7998 17.9998 17.3998 17.3998 17.5998C16.9998 17.9998 16.5998 18.1998 15.9998 18.1998L13.1998 17.9998C11.3998 17.9998 9.5998 18.5998 8.3998 19.9998C6.1998 22.5998 6.3998 26.3998 8.7998 28.5998L10.7998 30.1998L10.9998 30.3998C11.3998 30.7998 11.5998 31.1998 11.5998 31.7998C11.5998 32.3998 11.3998 32.7998 10.9998 33.1998L8.7998 35.1998C7.3998 36.3998 6.7998 38.1998 6.7998 39.9998C6.9998 43.3998 9.7998 45.9998 13.1998 45.7998L15.9998 45.5998H16.1998C17.3998 45.7998 18.1998 46.5998 18.1998 47.7998L17.9998 50.7998C17.9998 52.5998 18.5998 54.3998 19.9998 55.5998C20.9998 56.5998 22.5998 57.1998 23.9998 57.1998C25.7998 57.1998 27.3998 56.5998 28.5998 55.7998L30.5998 53.5998C30.7998 53.3998 30.7998 53.3998 30.7998 53.3998C31.1998 52.9998 31.5998 52.7998 32.1998 52.7998C32.7998 52.7998 33.1998 52.9998 33.5998 53.3998L35.5998 55.5998C36.7998 56.9998 38.5998 57.5998 40.3998 57.5998C41.9998 57.3998 43.5998 56.7998 44.5998 55.5998C45.7998 54.3998 46.1998 52.7998 46.1998 51.1998L45.9998 48.1998V47.9998C46.1998 46.7998 46.9998 45.9998 48.1998 45.9998L50.9998 46.1998C52.7998 46.1998 54.5998 45.5998 55.7998 44.1998C56.9998 42.9998 57.3998 41.3998 57.3998 39.7998C57.3998 38.1998 56.5998 36.5998 55.3998 35.5998ZM52.7998 41.5998C52.3998 41.9998 51.7998 42.1998 51.1998 42.1998L48.3998 41.9998C44.9998 41.9998 42.1998 44.3998 41.9998 47.7998C41.9998 47.9998 41.9998 48.1998 41.9998 48.3998L42.1998 51.1998C42.1998 51.5998 41.9998 52.1998 41.5998 52.5998C41.1998 52.9998 40.7998 53.1998 40.1998 53.1998C39.5998 53.1998 38.9998 52.9998 38.5998 52.5998L36.5998 50.3998C35.3998 49.1998 33.9998 48.3998 32.3998 48.3998C30.7998 48.3998 29.1998 48.9998 27.9998 49.9998C27.7998 50.1998 27.7998 50.1998 27.5998 50.3998L25.5998 52.5998C25.1998 52.9998 24.7998 53.1998 24.1998 53.1998C23.7998 53.1998 23.1998 52.9998 22.7998 52.5998C22.3998 52.1998 22.1998 51.5998 22.1998 50.9998L22.3998 48.1998C22.3998 44.7998 19.9998 41.9998 16.5998 41.7998C16.3998 41.7998 16.3998 41.7998 16.1998 41.7998C15.9998 41.7998 15.9998 41.7998 15.7998 41.7998L12.9998 41.9998C11.7998 41.9998 10.7998 41.1998 10.7998 39.9998C10.7998 39.3998 10.9998 38.7998 11.3998 38.5998L13.5998 36.5998C14.7998 35.3998 15.5998 33.9998 15.5998 32.3998C15.5998 30.7998 14.9998 29.1998 13.9998 27.9998C13.7998 27.7998 13.7998 27.7998 13.5998 27.5998L11.3998 25.5998C10.5998 24.7998 10.5998 23.5998 11.3998 22.7998C11.7998 22.1998 12.3998 21.9998 12.9998 21.9998L15.7998 22.1998C19.1998 22.3998 21.9998 19.7998 22.1998 16.3998C22.1998 16.1998 22.1998 15.9998 22.1998 15.7998L21.9998 12.9998C21.9998 12.3998 22.1998 11.7998 22.5998 11.3998C22.9998 10.9998 23.3998 10.7998 23.9998 10.7998C24.5998 10.7998 25.1998 10.9998 25.9998 11.7998L27.9998 13.9998C29.1998 15.1998 30.5998 15.9998 32.1998 15.9998C33.7998 15.9998 35.3998 15.3998 36.5998 14.3998C36.7998 14.1998 36.7998 14.1998 36.9998 13.9998L38.9998 11.7998C39.5998 10.9998 40.9998 10.7998 41.7998 11.5998C42.1998 11.9998 42.3998 12.5998 42.3998 13.1998L42.1998 15.9998C42.1998 19.3998 44.5998 22.1998 47.9998 22.3998C48.1998 22.3998 48.3998 22.3998 48.5998 22.3998L51.3998 22.1998C51.7998 22.1998 52.3998 22.3998 52.7998 22.7998C53.1998 23.1998 53.3998 23.5998 53.3998 24.1998C53.3998 24.7998 53.1998 25.3998 52.7998 25.7998L50.5998 27.7998C49.3998 28.9998 48.5998 30.3998 48.5998 31.9998C48.5998 33.5998 49.1998 35.1998 50.1998 36.3998C50.3998 36.5998 50.3998 36.5998 50.5998 36.7998L52.7998 38.7998C53.1998 39.1998 53.3998 39.7998 53.3998 40.1998C53.3998 40.5998 53.1998 41.1998 52.7998 41.5998Z" fill="#2D373D"/>
<path d="M31.9998 20.7998C25.7998 20.7998 20.7998 25.7998 20.7998 32.1998C20.7998 38.3998 25.7998 43.3998 31.9998 43.3998C34.9998 43.3998 37.7998 42.1998 39.7998 39.9998C41.9998 37.7998 43.1998 34.9998 43.1998 31.9998C43.1998 25.7998 38.1998 20.7998 31.9998 20.7998ZM37.1998 36.9998C35.7998 38.3998 33.9998 39.1998 31.9998 39.1998C27.9998 39.1998 24.7998 35.9998 24.7998 31.9998C24.7998 27.9998 28.1998 24.5998 32.1998 24.5998C36.1998 24.5998 39.3998 27.7998 39.3998 31.7998C39.3998 33.7998 38.5998 35.5998 37.1998 36.9998Z" fill="#2D373D"/>
</svg>
