<svg width="16" height="16" viewBox="0 0 16 16" fill="none" xmlns="http://www.w3.org/2000/svg">
<path fill-rule="evenodd" clip-rule="evenodd" d="M9.75 2.33337C7.95651 2.33337 6.5 3.79215 6.5 5.59485C6.5 5.87099 6.27614 6.09485 6 6.09485C5.72386 6.09485 5.5 5.87099 5.5 5.59485C5.5 5.36212 5.51862 5.13372 5.55444 4.91108C5.37888 4.86056 5.193 4.83337 5.00004 4.83337C3.84888 4.83337 3 5.60649 3 6.66671C3 7.72694 3.84885 8.50004 5 8.50004C5.27614 8.50004 5.5 8.7239 5.5 9.00004C5.5 9.27618 5.27614 9.50004 5 9.50004C3.38968 9.50004 2 8.36795 2 6.66671C2 4.96546 3.38973 3.83337 5.00004 3.83337C5.2868 3.83337 5.56486 3.87375 5.82847 3.94935C6.47031 2.41332 7.98366 1.33337 9.75 1.33337C12.05 1.33337 14 2.93489 14 5.33337C14 7.50421 12.6765 8.74603 11.4914 9.14105C11.2295 9.22837 10.9463 9.08679 10.859 8.82482C10.7717 8.56285 10.9132 8.27969 11.1752 8.19237C11.9902 7.92072 13 7.03481 13 5.33337C13 3.57705 11.5921 2.33337 9.75 2.33337ZM9.70704 7.66556C9.8905 7.45916 9.87191 7.14313 9.66552 6.95967C9.45912 6.77621 9.14309 6.7948 8.95963 7.00119L6.29296 10.0012C6.16215 10.1484 6.12989 10.3586 6.21055 10.5382C6.29121 10.7178 6.46977 10.8334 6.66667 10.8334H9.56929L6.95603 13.8386C6.77483 14.047 6.79687 14.3628 7.00524 14.544C7.21362 14.7252 7.52944 14.7032 7.71064 14.4948L11.044 10.6615C11.1725 10.5136 11.2029 10.3043 11.1217 10.1261C11.0404 9.94779 10.8626 9.83337 10.6667 9.83337H7.78009L9.70704 7.66556Z" fill="#2D373D"/>
</svg>
