<svg width="24" height="24" viewBox="0 0 24 24" fill="none" xmlns="http://www.w3.org/2000/svg">
<path fill-rule="evenodd" clip-rule="evenodd" d="M2.25 7C2.25 5.48122 3.48122 4.25 5 4.25H14.5C14.9142 4.25 15.25 4.58579 15.25 5C15.25 5.41421 14.9142 5.75 14.5 5.75H5C4.30964 5.75 3.75 6.30964 3.75 7V17C3.75 17.4142 3.41421 17.75 3 17.75C2.58579 17.75 2.25 17.4142 2.25 17V7ZM17 6.25C17.4142 6.25 17.75 6.58579 17.75 7V16.9992C17.75 18.5176 16.5192 19.75 15 19.75H5C4.58579 19.75 4.25 19.4142 4.25 19C4.25 18.5858 4.58579 18.25 5 18.25H15C15.69 18.25 16.25 17.6899 16.25 16.9992V7C16.25 6.58579 16.5858 6.25 17 6.25Z" fill="#2D373D"/>
<path fill-rule="evenodd" clip-rule="evenodd" d="M21.7881 8.99999C21.7881 8.24922 21.4739 7.53376 20.9185 7.10112C20.326 6.63956 19.5164 6.55482 18.7762 7.02265C18.4093 7.25451 18.0622 7.51377 17.763 7.73724L17.6821 7.79758C17.3467 8.04765 17.0959 8.22857 16.8911 8.3364L17.5901 9.66358C17.9176 9.49109 18.2643 9.23454 18.5787 9.00011L18.654 8.94397C18.9609 8.71488 19.2626 8.48972 19.5776 8.29062C19.6927 8.21785 19.7731 8.20851 19.8205 8.21111C19.8705 8.21386 19.9302 8.23262 19.9967 8.28447C20.1385 8.39491 20.2881 8.64619 20.2881 8.99999V11.9996L20.2848 15.0063C20.2844 15.3605 20.1343 15.6114 19.9927 15.7212C19.9262 15.7727 19.8667 15.7912 19.817 15.7938C19.7698 15.7962 19.6895 15.7866 19.5744 15.7133C19.2617 15.5139 18.9624 15.289 18.6578 15.0602L18.5807 15.0023C18.2679 14.7675 17.9229 14.5106 17.5968 14.3375L16.8939 15.6625C17.0975 15.7705 17.347 15.9515 17.6805 16.2018L17.7627 16.2636C18.0598 16.487 18.4043 16.746 18.7684 16.9781C19.5074 17.4491 20.3178 17.3673 20.9119 16.9068C21.4685 16.4752 21.7839 15.7597 21.7848 15.0084L21.7875 12.5H21.7881V8.99999Z" fill="#2D373D"/>
<path fill-rule="evenodd" clip-rule="evenodd" d="M20.5303 3.46967C20.8232 3.76256 20.8232 4.23744 20.5303 4.53033L4.53033 20.5303C4.23744 20.8232 3.76256 20.8232 3.46967 20.5303C3.17678 20.2374 3.17678 19.7626 3.46967 19.4697L19.4697 3.46967C19.7626 3.17678 20.2374 3.17678 20.5303 3.46967Z" fill="#2D373D"/>
<path fill-rule="evenodd" clip-rule="evenodd" d="M6 9.25C6.41421 9.25 6.75 9.58579 6.75 10V12.5C6.75 12.9142 6.41421 13.25 6 13.25C5.58579 13.25 5.25 12.9142 5.25 12.5V10C5.25 9.58579 5.58579 9.25 6 9.25Z" fill="#2D373D"/>
</svg>
