<svg width="64" height="65" viewBox="0 0 64 65" fill="none" xmlns="http://www.w3.org/2000/svg">
<path fill-rule="evenodd" clip-rule="evenodd" d="M51.5106 51.2966C51.4718 51.3349 51.4718 51.3732 51.4718 51.3732L51.4912 51.3541L52.7712 52.8682C53.7409 54.0182 53.9349 55.5899 53.2949 56.9507C52.6549 58.3116 51.2973 59.1549 49.7846 59.1549H14.3906C12.8391 59.1549 11.4233 58.2541 10.8221 56.8357C10.2209 55.4174 10.5118 53.7882 11.5979 52.6766L12.7033 51.5266C8.06816 46.6966 5.48877 40.3141 5.48877 33.5866C5.48877 26.1116 8.72756 18.9817 14.3712 14.0175C20.0149 9.05334 27.5979 6.71501 35.1809 7.59667C47.2827 8.99584 57.0185 18.6942 58.3179 30.6541C59.1518 38.2441 56.6694 45.7766 51.5106 51.2966ZM15.5154 54.1907L14.41 55.3407H49.7846L48.4852 53.8074C47.2246 52.3124 47.3021 50.1657 48.6597 48.7091C53.1203 43.9174 55.1761 37.6691 54.4585 31.0757C53.3531 20.8792 45.0524 12.5992 34.7349 11.4108C33.804 11.315 32.8731 11.2575 31.9615 11.2575C26.4149 11.2575 21.1591 13.2125 16.97 16.8925C12.1409 21.1283 9.38695 27.2041 9.38695 33.5866C9.38695 39.3366 11.5979 44.7799 15.5736 48.9391C16.97 50.4149 16.9506 52.7149 15.5154 54.1907ZM32.0001 17.0077C39.8353 17.0077 46.468 22.1252 48.6789 29.1593L48.6595 29.1784C49.1638 30.7884 49.4353 32.4943 49.4353 34.2768C49.4353 43.7834 41.6001 51.5268 31.9807 51.5268C27.6559 51.5268 23.6995 49.9551 20.6547 47.3676C20.6353 47.3484 20.5965 47.3293 20.5577 47.3101C20.5383 47.2909 20.5286 47.2718 20.5189 47.2526C20.5092 47.2334 20.4995 47.2143 20.4801 47.1951C16.8535 44.0326 14.5456 39.4134 14.5456 34.2576C14.5456 32.4943 14.8171 30.7693 15.3213 29.1593C17.5323 22.1252 24.165 17.0077 32.0001 17.0077ZM37.6438 30.5393L44.2571 28.5076H44.2377C42.3371 24.5401 38.4971 21.646 33.9395 20.9943V27.8751C35.4716 28.3351 36.771 29.2551 37.6438 30.5393ZM32.0195 31.3826C30.4098 31.3826 29.1104 32.6668 29.1104 34.2576C29.1104 35.8484 30.4098 37.1326 32.0195 37.1326C33.6292 37.1326 34.9286 35.8484 34.9286 34.2576C34.9286 32.6668 33.6292 31.3826 32.0195 31.3826ZM30.0801 27.8559V20.9943L30.0607 20.9752C25.5032 21.6268 21.6826 24.5209 19.7626 28.4884L26.3759 30.5201C27.2486 29.2551 28.5674 28.3159 30.0801 27.8559ZM18.5989 32.1684C18.5019 32.8584 18.4244 33.5484 18.4244 34.2576V34.2768C18.4244 37.6118 19.685 40.6784 21.7407 43.0359L26.2789 37.8609C25.6195 36.8259 25.2123 35.5993 25.2123 34.2768V34.2001L18.5989 32.1684ZM29.2074 40.3526L24.6692 45.5276C26.7832 46.8884 29.2268 47.6743 32.0001 47.6743C34.7735 47.6743 37.3335 46.8501 39.4862 45.4509L34.948 40.2759C34.0559 40.6976 33.0668 40.9659 32.0001 40.9659C30.9916 40.9659 30.0607 40.7359 29.2074 40.3526ZM38.788 34.2384C38.788 35.5034 38.4001 36.6726 37.7989 37.6693L42.3759 42.8826V42.8443C44.3735 40.5251 45.5759 37.4968 45.5759 34.2193C45.5759 33.5101 45.5177 32.8201 45.4013 32.1301L38.788 34.1618V34.2384Z" fill="#2D373D"/>
</svg>
