<svg width="64" height="65" viewBox="0 0 64 65" fill="none" xmlns="http://www.w3.org/2000/svg">
<path d="M32.0004 32.8611C39.4004 32.8611 45.6004 26.8611 45.6004 19.2611C45.6004 11.6611 39.6004 5.66113 32.0004 5.66113C24.4004 5.66113 18.4004 11.8611 18.4004 19.2611C18.4004 26.6611 24.4004 32.8611 32.0004 32.8611ZM32.0004 9.66113C37.2004 9.66113 41.6004 13.8611 41.6004 19.2611C41.6004 24.6611 37.2004 28.8611 32.0004 28.8611C26.6004 28.8611 22.4004 24.6611 22.4004 19.2611C22.4004 13.8611 26.6004 9.66113 32.0004 9.66113Z" fill="#2D373D"/>
<path d="M32.0004 33.6611H31.8004C25.4004 33.6611 19.6004 36.2611 15.2004 40.6611C10.8004 45.0611 8.40039 51.0611 8.40039 57.2611C8.40039 58.4611 9.40039 59.2611 10.4004 59.2611C11.6004 59.2611 12.4004 58.4611 12.4004 57.2611C12.4004 52.0611 14.4004 47.0611 17.8004 43.2611C21.6004 39.6611 26.4004 37.4611 31.6004 37.4611H31.8004C42.6004 37.4611 51.2004 46.0611 51.4004 56.8611V57.2611C51.4004 58.2611 52.2004 59.2611 53.4004 59.2611C54.6004 59.2611 55.4004 58.4611 55.6004 57.2611V56.8611C55.4004 44.0611 44.8004 33.6611 32.0004 33.6611Z" fill="#2D373D"/>
</svg>
