<svg width="24" height="24" viewBox="0 0 24 24" fill="none" xmlns="http://www.w3.org/2000/svg">
<path d="M2.75 5.25C2.33579 5.25 2 5.58579 2 6C2 6.41421 2.33579 6.75 2.75 6.75H2.775C3.18921 6.75 3.525 6.41421 3.525 6C3.525 5.58579 3.18921 5.25 2.775 5.25H2.75Z" fill="#2D373D"/>
<path d="M2.75 11.2636C2.33579 11.2636 2 11.5994 2 12.0136C2 12.4279 2.33579 12.7636 2.75 12.7636H2.775C3.18921 12.7636 3.525 12.4279 3.525 12.0136C3.525 11.5994 3.18921 11.2636 2.775 11.2636H2.75Z" fill="#2D373D"/>
<path d="M2.75 17.25C2.33579 17.25 2 17.5858 2 18C2 18.4142 2.33579 18.75 2.75 18.75H2.775C3.18921 18.75 3.525 18.4142 3.525 18C3.525 17.5858 3.18921 17.25 2.775 17.25H2.75Z" fill="#2D373D"/>
<path d="M6.25 5.25C5.83579 5.25 5.5 5.58579 5.5 6C5.5 6.41421 5.83579 6.75 6.25 6.75H21.25C21.6642 6.75 22 6.41421 22 6C22 5.58579 21.6642 5.25 21.25 5.25H6.25Z" fill="#2D373D"/>
<path d="M6.25 11.2636C5.83579 11.2636 5.5 11.5994 5.5 12.0136C5.5 12.4279 5.83579 12.7636 6.25 12.7636H21.25C21.6642 12.7636 22 12.4279 22 12.0136C22 11.5994 21.6642 11.2636 21.25 11.2636H6.25Z" fill="#2D373D"/>
<path d="M6.25 17.25C5.83579 17.25 5.5 17.5858 5.5 18C5.5 18.4142 5.83579 18.75 6.25 18.75H21.25C21.6642 18.75 22 18.4142 22 18C22 17.5858 21.6642 17.25 21.25 17.25H6.25Z" fill="#2D373D"/>
</svg>
