<svg width="16" height="17" viewBox="0 0 16 17" fill="none" xmlns="http://www.w3.org/2000/svg">
<path d="M7.5002 8.62305C7.6002 8.37305 7.5002 8.07305 7.2502 7.97305C7.0502 7.87305 6.8002 7.82305 6.6002 7.77305C7.6002 7.42305 8.3002 6.47305 8.3002 5.42305C8.3002 4.02305 7.1502 2.87305 5.7502 2.87305C4.4002 2.87305 3.2502 4.02305 3.2002 5.37305C3.2002 6.47305 3.9002 7.42305 4.9002 7.77305C3.2002 8.17305 1.9502 9.67305 1.9502 11.473C1.9502 11.773 2.1502 11.973 2.4502 11.973C2.7502 11.973 2.9502 11.773 3.0002 11.423C3.0002 9.87305 4.2502 8.62305 5.8002 8.62305C6.2002 8.62305 6.5502 8.72305 6.9002 8.87305C7.1502 9.02305 7.4502 8.87305 7.5002 8.62305ZM4.2502 5.42305C4.2502 4.57305 4.9502 3.87305 5.7502 3.87305C6.6002 3.87305 7.3002 4.52305 7.3002 5.37305C7.3002 6.22305 6.5502 6.92305 5.7502 6.92305C4.9502 6.92305 4.2502 6.27305 4.2502 5.42305Z" fill="#2D373D"/>
<path d="M10.5503 8.02307C8.65034 8.02307 7.10034 9.57307 7.10034 11.4731C7.10034 13.3731 8.65034 14.9231 10.5503 14.9231C12.4503 14.9231 14.0003 13.3731 14.0003 11.4731C14.0003 9.57307 12.4503 8.02307 10.5503 8.02307ZM10.5503 13.9231C9.20034 13.9231 8.10034 12.8231 8.10034 11.4731C8.10034 10.1231 9.20034 9.02307 10.5503 9.02307C11.9003 9.02307 13.0003 10.1231 13.0003 11.4731C13.0003 12.8231 11.9003 13.9231 10.5503 13.9231Z" fill="#2D373D"/>
<path d="M10.55 10.973C10.25 10.973 10.05 11.173 10.05 11.473V12.973C10.05 13.273 10.25 13.473 10.55 13.473C10.85 13.473 11.05 13.223 11.05 12.973V11.473C11.05 11.173 10.85 10.973 10.55 10.973Z" fill="#2D373D"/>
<path d="M10.95 9.8231C10.9 9.8231 10.9 9.8231 10.85 9.7731C10.8 9.7231 10.8 9.7231 10.75 9.7231C10.7 9.6731 10.7 9.6731 10.65 9.6731C10.5 9.6731 10.3 9.7231 10.2 9.8231C10.15 9.8731 10.1 9.9231 10.1 9.9731C10.05 10.0231 10.05 10.1231 10.05 10.1731C10.05 10.3231 10.1 10.4231 10.2 10.5231C10.3 10.6231 10.4 10.6731 10.55 10.6731C10.7 10.6731 10.8 10.6231 10.95 10.5231C11.05 10.4231 11.1 10.3231 11.1 10.1731C11.1 10.0731 11.05 10.0231 11.05 9.9731C11.05 9.9231 11 9.8731 10.95 9.8231Z" fill="#2D373D"/>
</svg>
