<svg width="24" height="24" viewBox="0 0 24 24" fill="none" xmlns="http://www.w3.org/2000/svg">
<path fill-rule="evenodd" clip-rule="evenodd" d="M7.33261 2.59079C7.41954 2.99578 7.16171 3.39456 6.75672 3.4815C5.34609 3.7843 3.89092 4.77899 3.48489 6.76133C3.40178 7.16712 3.00545 7.4287 2.59966 7.34559C2.19387 7.26248 1.93229 6.86614 2.0154 6.46035C2.56671 3.76867 4.58633 2.41322 6.4419 2.01491C6.84689 1.92797 7.24567 2.18581 7.33261 2.59079Z" fill="#2D373D"/>
<path fill-rule="evenodd" clip-rule="evenodd" d="M7.80495 4.57038C7.98514 4.94335 7.82887 5.39177 7.4559 5.57196C6.68297 5.94538 5.98628 6.55759 5.55596 7.46062C5.37777 7.83455 4.9302 7.99323 4.55627 7.81505C4.18234 7.63686 4.02366 7.18928 4.20184 6.81535C4.7981 5.56411 5.76571 4.72264 6.80337 4.22132C7.17634 4.04113 7.62476 4.19741 7.80495 4.57038Z" fill="#2D373D"/>
<path fill-rule="evenodd" clip-rule="evenodd" d="M16.6672 2.59079C16.5802 2.99578 16.8381 3.39456 17.2431 3.4815C18.6537 3.7843 20.1089 4.77899 20.5149 6.76133C20.598 7.16712 20.9943 7.4287 21.4001 7.34559C21.8059 7.26248 22.0675 6.86614 21.9844 6.46035C21.4331 3.76867 19.4135 2.41322 17.5579 2.01491C17.1529 1.92797 16.7541 2.18581 16.6672 2.59079Z" fill="#2D373D"/>
<path fill-rule="evenodd" clip-rule="evenodd" d="M16.1948 4.57038C16.0146 4.94335 16.1709 5.39177 16.5439 5.57196C17.3168 5.94538 18.0135 6.55759 18.4438 7.46062C18.622 7.83455 19.0696 7.99323 19.4435 7.81505C19.8174 7.63686 19.9761 7.18928 19.7979 6.81535C19.2017 5.56411 18.2341 4.72264 17.1964 4.22132C16.8234 4.04113 16.375 4.19741 16.1948 4.57038Z" fill="#2D373D"/>
<path fill-rule="evenodd" clip-rule="evenodd" d="M12.7502 3.7482C12.7502 3.33399 12.4144 2.9982 12.0002 2.9982C11.586 2.9982 11.2502 3.33399 11.2502 3.7482V5.0462C10.1514 5.18506 8.96581 5.63145 7.98359 6.46661C6.75016 7.51537 5.88341 9.1396 5.88341 11.3968C5.88341 13.4106 5.88022 14.3828 5.75428 15.0754C5.64185 15.6937 5.43313 16.0814 4.87955 16.9117C4.72611 17.1418 4.71179 17.4378 4.8423 17.6816C4.97281 17.9255 5.22696 18.0778 5.50357 18.0778H18.4968C18.7734 18.0778 19.0276 17.9255 19.1581 17.6816C19.2886 17.4378 19.2743 17.1418 19.1208 16.9117C18.5672 16.0814 18.3585 15.6937 18.2461 15.0754C18.1201 14.3828 18.117 13.4106 18.117 11.3968C18.117 9.1396 17.2502 7.51537 16.0168 6.46661C15.0346 5.63144 13.8489 5.18506 12.7502 5.0462V3.7482ZM7.38341 11.3968C7.38341 9.56194 8.07021 8.36189 8.95524 7.60936C9.86269 6.83778 11.0259 6.4982 12.0002 6.4982C12.9745 6.4982 14.1377 6.83778 15.0451 7.60936C15.9302 8.36189 16.617 9.56194 16.617 11.3968L16.617 11.5109C16.6169 13.3821 16.6169 14.5 16.7703 15.3437C16.8559 15.8144 16.9886 16.2003 17.1728 16.5778H6.82754C7.01176 16.2003 7.14451 15.8144 7.23008 15.3437C7.38351 14.5 7.38348 13.3821 7.38342 11.5109L7.38341 11.3968Z" fill="#2D373D"/>
<path fill-rule="evenodd" clip-rule="evenodd" d="M10.0001 18.7482C10.4144 18.7482 10.7501 19.084 10.7501 19.4982C10.7501 19.7334 10.8659 19.9738 11.1061 20.1745C11.35 20.3783 11.6809 20.5018 12.0001 20.5018C12.3194 20.5018 12.6503 20.3783 12.8942 20.1745C13.1344 19.9738 13.2501 19.7333 13.2501 19.4982C13.2501 19.084 13.5859 18.7482 14.0001 18.7482C14.4144 18.7482 14.7501 19.084 14.7501 19.4982C14.7501 20.2631 14.3659 20.8994 13.8561 21.3255C13.35 21.7484 12.6808 22.0018 12.0001 22.0018C11.3194 22.0018 10.6503 21.7484 10.1442 21.3255C9.63436 20.8994 9.25015 20.2631 9.25015 19.4982C9.25015 19.084 9.58594 18.7482 10.0001 18.7482Z" fill="#2D373D"/>
</svg>
