<svg width="32" height="33" viewBox="0 0 32 33" fill="none" xmlns="http://www.w3.org/2000/svg">
<path d="M19.1923 8.67716C18.4199 7.90883 18.5508 6.75403 19.2568 6.05847C19.5876 5.73253 20.0031 5.56241 20.45 5.59871C20.8973 5.63505 21.5268 5.89197 22.2388 6.71549C22.4263 6.93235 22.6978 7.05831 22.9845 7.0614C23.2711 7.06449 23.5453 6.94442 23.7374 6.73166C24.4662 5.92462 25.1048 5.67454 25.5608 5.64333C26.0163 5.61214 26.4329 5.78808 26.7597 6.11308C27.4555 6.80512 27.5667 7.92585 26.8188 8.65702L22.3227 12.7429C21.914 13.1144 21.8838 13.7468 22.2552 14.1555C22.6266 14.5643 23.2591 14.5945 23.6678 14.2231L28.176 10.1262C28.1833 10.1196 28.1904 10.1129 28.1975 10.106C29.9267 8.43901 29.4921 6.00991 28.17 4.69502C27.4864 4.0151 26.5233 3.57275 25.4242 3.648C24.6009 3.70437 23.7819 4.04483 23.01 4.6694C22.2501 4.02806 21.4364 3.67226 20.6119 3.60528C19.5115 3.51589 18.5424 3.95461 17.8531 4.63379C16.5187 5.94847 16.0668 8.38902 17.7818 10.0951C18.1733 10.4846 18.8065 10.4829 19.196 10.0914C19.5855 9.69982 19.5838 9.06666 19.1923 8.67716Z" fill="#2D373D"/>
<path d="M9.62549 11.1458L9.19057 9.52299L6.45042 10.2571L6.8854 11.8802L4.95353 12.3977L4.7793 11.7476L4.19218 11.9049L3.93142 10.9319L3.92564 10.9335C3.39216 11.0764 2.8438 10.7598 2.70084 10.2263C2.55787 9.69287 2.87444 9.14456 3.40791 9.00164L3.41369 9.00009L3.15317 8.02797L3.74029 7.87068L3.56609 7.22068L5.49796 6.70312L5.93269 8.32525L8.67284 7.59116L8.23805 5.96878L10.1699 5.45123L10.3452 6.10537L10.9279 5.94926L11.1874 6.9175L11.1979 6.91471C11.7313 6.77179 12.2797 7.08839 12.4227 7.62185C12.5656 8.15531 12.2491 8.70362 11.7156 8.84654L11.7052 8.84933L11.9669 9.8262L11.3842 9.98231L11.5574 10.6283L9.62549 11.1458Z" fill="#2D373D"/>
<path fill-rule="evenodd" clip-rule="evenodd" d="M12.1498 13.9539C11.6041 13.0969 10.669 12.4115 9.41366 12.4115C7.76467 12.4115 6.06842 13.8157 6.36477 15.8491C6.56809 17.2442 7.06551 18.5898 7.82948 19.7857C8.61183 21.0232 9.65207 22.0702 10.8733 22.8587V27.0885H3.66675C3.11446 27.0885 2.66675 27.5363 2.66675 28.0885C2.66675 28.6408 3.11446 29.0885 3.66675 29.0885H10.8733V29.0969H20.8022C21.3635 29.763 22.1938 30.2501 23.2522 30.2501C24.1668 30.2501 25.0944 29.8187 25.6899 29.0885H28.3293C28.8815 29.0885 29.3293 28.6408 29.3293 28.0885C29.3293 27.5363 28.8815 27.0885 28.3293 27.0885H26.3305C26.3252 26.9989 26.316 26.9079 26.3027 26.8157C25.9945 24.6747 25.0025 22.6756 23.455 21.1281C22.2823 19.9554 20.8502 19.1016 19.2936 18.6228C19.7681 18.0697 20.097 17.4053 20.2461 16.6789C20.4184 15.8388 20.3338 14.9729 20.0098 14.1905C19.6786 13.3787 19.1123 12.713 18.416 12.2488C17.7196 11.7846 16.8977 11.5208 16.0265 11.5208C14.8976 11.5208 13.7969 11.9648 12.9862 12.787C12.6378 13.1305 12.3573 13.5261 12.1498 13.9539ZM16.0265 13.5208C15.4153 13.5208 14.8272 13.763 14.4005 14.2012C13.9623 14.6279 13.7201 15.2161 13.7201 15.8273C13.7201 16.2886 13.8585 16.7268 14.1122 17.1073C14.3659 17.4879 14.7234 17.7877 15.1386 17.9607C15.5609 18.1339 16.025 18.1781 16.4724 18.0878C16.9198 17.9975 17.3305 17.7767 17.6526 17.4533C17.9755 17.1304 18.1946 16.7268 18.2868 16.277C18.3791 15.8273 18.333 15.366 18.16 14.9508C17.987 14.5241 17.6872 14.1666 17.3066 13.9129C16.926 13.6592 16.4878 13.5208 16.0265 13.5208ZM8.34386 15.5607C8.50688 16.6792 8.90607 17.7572 9.51744 18.713C10.3317 20.0025 11.4955 21.0343 12.8733 21.6883V27.0969H19.7926V23.6372C20.5076 24.1792 21.0842 24.8712 21.4879 25.6669C21.6065 25.9041 21.7082 26.1473 21.7926 26.3953C21.8718 26.6279 21.9359 26.8646 21.9845 27.1046C22.1111 27.7287 22.6153 28.2501 23.2522 28.2501C23.8891 28.2501 24.4139 27.7311 24.3231 27.1007C24.0761 25.3848 23.281 23.7825 22.0408 22.5423C21.2444 21.7459 20.2987 21.1331 19.2696 20.731C18.793 20.5448 18.2985 20.4038 17.7926 20.3108C17.3144 20.2228 16.826 20.1776 16.333 20.1776C14.7992 20.1776 13.3346 19.5663 12.2506 18.4939C11.4494 17.684 10.9056 16.6618 10.6818 15.557C10.5553 14.9328 10.0506 14.4115 9.41366 14.4115C8.77675 14.4115 8.25201 14.9304 8.34386 15.5607Z" fill="#2D373D"/>
</svg>
