<svg width="32" height="33" viewBox="0 0 32 33" fill="none" xmlns="http://www.w3.org/2000/svg">
<path fill-rule="evenodd" clip-rule="evenodd" d="M15.1833 7.07644C15.1833 5.15085 16.7452 3.58984 18.6719 3.58984C20.5986 3.58984 22.1605 5.15085 22.1605 7.07644C22.1605 9.00203 20.5986 10.563 18.6719 10.563C16.7452 10.563 15.1833 9.00203 15.1833 7.07644ZM18.6719 5.58869C17.8497 5.58869 17.1833 6.25478 17.1833 7.07644C17.1833 7.8981 17.8497 8.56419 18.6719 8.56419C19.494 8.56419 20.1605 7.8981 20.1605 7.07644C20.1605 6.25478 19.494 5.58869 18.6719 5.58869Z" fill="#2D373D"/>
<path fill-rule="evenodd" clip-rule="evenodd" d="M13.2037 21.6478L9.04931 24.8771H10.9132C12.3953 24.8771 13.5967 26.0779 13.5967 27.5591C13.5967 29.0402 12.3953 30.241 10.9132 30.241H5.35046C3.86842 30.241 2.66699 29.0402 2.66699 27.5591C2.66699 26.0779 3.86842 24.8771 5.35046 24.8771H5.79166L12.0445 20.0167C11.9855 19.7793 11.9579 19.5332 11.964 19.2848C11.9645 19.2667 11.9654 19.2487 11.9668 19.2307C12.0154 18.616 12.29 18.0407 12.7385 17.6167C12.7515 17.6044 12.7649 17.5924 12.7785 17.5808C12.8954 17.4816 13.1953 17.2752 13.4905 17.0741C13.8173 16.8515 14.2265 16.577 14.6252 16.3109C15.0245 16.0445 15.4153 15.7851 15.7061 15.5925L16.0607 15.3579L19.0869 11.6431C19.3004 11.3646 19.5672 11.1311 19.872 10.9565C20.1828 10.7784 20.5265 10.6653 20.8824 10.6241C20.8953 10.6226 20.9081 10.6214 20.921 10.6204C21.4233 10.5819 21.9263 10.6834 22.3743 10.9136C22.8222 11.1438 23.1975 11.4935 23.459 11.9237C23.4756 11.9511 23.4909 11.9793 23.5049 12.0082L26.5577 18.3313C26.5709 18.3585 26.5828 18.3863 26.5934 18.4147C27.6279 21.1714 28.5167 23.9809 29.2561 26.8315C29.2588 26.8418 29.2614 26.8523 29.2637 26.8627C29.392 27.4322 29.3887 28.1894 29.0038 28.827C28.7911 29.1792 28.4963 29.4749 28.1444 29.6885C28.1359 29.6936 28.1274 29.6986 28.1187 29.7035C27.4933 30.0581 26.7557 30.159 26.0579 29.9852C25.4715 29.8391 25.0406 29.4861 24.7434 29.1698C24.4959 28.9063 24.3184 28.5175 24.2353 28.3284C24.1826 28.2084 24.1389 28.099 24.1085 28.0199C24.0932 27.98 24.0809 27.947 24.0722 27.9232L24.0618 27.8945L24.0587 27.8857L24.0577 27.8828L24.057 27.881L24.0495 27.8589L22.8013 24.0294L22.7607 24.0729V27.183L22.7609 27.2569C22.7629 27.7622 22.7666 28.6957 22.0726 29.4329C21.6455 29.9011 21.0589 30.1937 20.427 30.2522C20.3964 30.2551 20.3655 30.2565 20.3347 30.2565C19.4228 30.2565 18.7488 29.9693 18.2857 29.5237C17.8553 29.1097 17.7003 28.6424 17.6462 28.4794L17.6431 28.4698C17.5539 28.2015 17.5291 27.879 17.5189 27.7126C17.5127 27.6111 17.5098 27.5206 17.5084 27.4555C17.5077 27.4227 17.5073 27.3956 17.5072 27.3761L17.507 27.3524L17.507 27.3451C17.507 26.8587 17.4815 26.3143 17.4541 25.7309C17.4322 25.264 17.4091 24.7714 17.3969 24.2618C17.3841 23.7288 17.3853 23.1953 17.4265 22.7449C17.447 22.5201 17.4798 22.2886 17.5358 22.0748C17.5866 21.8806 17.6817 21.5991 17.8873 21.3585C18.1673 21.031 19.0006 20.2138 19.7093 19.5278C20.0372 19.2104 20.3527 18.9074 20.601 18.6697L20.377 18.1663L19.4258 19.3125C19.3654 19.3853 19.2948 19.4493 19.2164 19.5023L15.894 21.7481C15.8855 21.7538 15.877 21.7594 15.8685 21.7648C14.9704 22.3328 14.0916 22.124 13.5447 21.8487C13.4183 21.785 13.3041 21.7159 13.2037 21.6478ZM4.66699 27.5591C4.66699 27.1818 4.97299 26.876 5.35046 26.876H10.9132C11.2907 26.876 11.5967 27.1818 11.5967 27.5591C11.5967 27.9363 11.2907 28.2421 10.9132 28.2421H5.35046C4.97299 28.2421 4.66699 27.9363 4.66699 27.5591ZM20.8666 12.6906C20.9369 12.6504 21.014 12.6238 21.0937 12.6122C21.2203 12.6059 21.3465 12.6331 21.4598 12.6913C21.5678 12.7468 21.6604 12.8286 21.729 12.9294L24.7367 19.1589C25.7375 21.8307 26.5983 24.5532 27.3155 27.3152C27.369 27.5659 27.3226 27.7425 27.2913 27.7943C27.2477 27.8665 27.1884 27.9274 27.1182 27.9725C26.9417 28.0681 26.7362 28.0942 26.5417 28.0457C26.4742 28.0289 26.3664 27.9736 26.2151 27.8159C26.2103 27.8088 26.1974 27.7892 26.1773 27.7529C26.1424 27.6898 26.1041 27.6103 26.0665 27.5247C26.0297 27.4409 25.9981 27.3617 25.9756 27.3031C25.9644 27.2742 25.9558 27.2511 25.9503 27.236L25.9465 27.2256L24.1777 21.7988C24.0681 21.4624 23.7886 21.2091 23.443 21.1326C23.0974 21.0561 22.7371 21.1679 22.4957 21.4266L21.0295 22.9973C20.8568 23.1824 20.7607 23.426 20.7607 23.6791V27.183C20.7607 27.4798 20.7574 27.6622 20.7268 27.8178C20.7014 27.9471 20.6644 28.0123 20.6145 28.0647L20.5965 28.0841C20.513 28.1766 20.4014 28.2371 20.2805 28.257C19.8566 28.2472 19.713 28.1225 19.6727 28.0837C19.6084 28.0218 19.5783 27.9507 19.5439 27.8483C19.5439 27.8479 19.5437 27.8472 19.5435 27.8462C19.5422 27.8396 19.538 27.8197 19.533 27.783C19.5254 27.7273 19.5194 27.6605 19.5152 27.5905C19.511 27.522 19.5089 27.4588 19.5079 27.4126C19.5074 27.3898 19.5072 27.3719 19.5071 27.3603L19.507 27.3472V27.3441C19.507 26.8469 19.4774 26.1912 19.448 25.5431C19.4268 25.0753 19.4058 24.6113 19.3963 24.214C19.384 23.6998 19.3878 23.2592 19.4182 22.9268C19.4328 22.7664 19.4516 22.6565 19.4686 22.5886C19.7326 22.2997 20.4149 21.6275 21.1008 20.9636C21.4629 20.613 21.8103 20.2797 22.0673 20.0339C22.1958 19.9111 22.3015 19.8102 22.3751 19.7401L22.4898 19.631C22.7965 19.3396 22.8866 18.8869 22.7146 18.5005L21.5497 15.8826C21.4091 15.5667 21.1152 15.3459 20.7725 15.2987C20.4299 15.2515 20.0871 15.3846 19.8663 15.6507L17.9776 17.9266L14.7893 20.0817C14.6915 20.1407 14.6064 20.145 14.4445 20.0635C14.3565 20.0192 14.2754 19.9602 14.2138 19.9079C14.1845 19.8829 14.1631 19.8626 14.1514 19.851L14.1457 19.8452C14.0304 19.7112 13.9657 19.5403 13.9633 19.3627C13.9765 19.2617 14.0205 19.1676 14.0886 19.0934C14.1093 19.0782 14.1501 19.0485 14.2184 19.0005C14.321 18.9284 14.457 18.8348 14.6168 18.7259C14.9358 18.5086 15.3388 18.2382 15.7359 17.9732C16.1325 17.7085 16.5212 17.4506 16.8109 17.2587L17.2905 16.9416C17.3752 16.8857 17.451 16.8172 17.5151 16.7385L20.6483 12.8923C20.6561 12.8826 20.6638 12.8728 20.6713 12.8629C20.7243 12.7926 20.7908 12.7341 20.8666 12.6906Z" fill="#2D373D"/>
</svg>
