<svg width="16" height="16" viewBox="0 0 16 16" fill="none" xmlns="http://www.w3.org/2000/svg">
<path d="M13.8502 13.2L10.7502 10.1C11.0502 9.69996 11.3002 9.29996 11.5002 8.79996C12.0002 7.54996 11.9502 6.19996 11.4502 4.99996C10.9502 3.79996 10.0002 2.84996 8.7502 2.34996C7.5002 1.84996 6.1502 1.89996 4.9502 2.39996C2.4502 3.49996 1.3002 6.39996 2.3502 8.89996C3.1502 10.75 4.9502 11.9 6.9002 11.9C7.5502 11.9 8.2002 11.75 8.8502 11.5C9.3002 11.3 9.7002 11.1 10.0502 10.8L13.1502 13.9C13.2502 14 13.3502 14.05 13.5002 14.05C13.6502 14.05 13.7502 14 13.8502 13.9C14.0502 13.7 14.0502 13.4 13.8502 13.2ZM8.4502 10.6C6.4502 11.45 4.1002 10.5 3.2502 8.49996C2.4002 6.49996 3.3502 4.14996 5.3502 3.39996C6.3002 2.94996 7.3502 2.94996 8.3502 3.34996C9.3002 3.74996 10.1002 4.49996 10.5002 5.44996C10.9502 6.39996 10.9502 7.44996 10.5502 8.44996C10.1502 9.39996 9.4002 10.2 8.4502 10.6Z" fill="#2D373D"/>
</svg>
