<svg width="64" height="65" viewBox="0 0 64 65" fill="none" xmlns="http://www.w3.org/2000/svg">
<path fill-rule="evenodd" clip-rule="evenodd" d="M17.9214 10.3555C16.2204 11.4166 14.6318 12.6747 13.1914 14.1152C11.757 15.5495 10.5035 17.1307 9.44523 18.8235C9.3791 18.9132 9.3214 19.0071 9.27215 19.1043C6.76045 23.2352 5.40039 28.0096 5.40039 32.9242C5.40039 37.8382 6.76012 42.612 9.27122 46.7427C9.32099 46.841 9.37941 46.9362 9.44648 47.0269C10.5044 48.719 11.7576 50.2995 13.1914 51.7333C14.6252 53.1671 16.2058 54.4203 17.898 55.4783C17.9887 55.5453 18.0837 55.6037 18.1821 55.6535C22.3126 58.1645 27.0864 59.5242 32.0004 59.5242C36.9137 59.5242 41.6868 58.1649 45.817 55.6545C45.9166 55.6042 46.0129 55.5451 46.1047 55.4771C47.7961 54.4194 49.3761 53.1665 50.8094 51.7333C52.2429 50.2998 53.4958 48.7196 54.5536 47.028C54.6214 46.9365 54.6803 46.8405 54.7304 46.7413C57.241 42.611 58.6004 37.8377 58.6004 32.9242C58.6004 28.0103 57.2407 23.2366 54.7298 19.1061C54.68 19.0077 54.6216 18.9126 54.5545 18.8219C53.4965 17.1297 52.2433 15.549 50.8094 14.1152C49.3694 12.6751 47.7812 11.4172 46.0808 10.3564C46.0044 10.3016 45.9251 10.2528 45.8435 10.2101C41.7072 7.68937 36.9242 6.32422 32.0004 6.32422C27.0761 6.32422 22.2927 7.68962 18.1562 10.2108C18.0754 10.2531 17.997 10.3013 17.9214 10.3555ZM18.8314 14.5574C17.8371 15.2703 16.8961 16.0672 16.0198 16.9436C15.143 17.8203 14.3458 18.7617 13.6326 19.7565L21.7243 27.8482C22.2731 26.7373 23.0033 25.7126 23.8959 24.8199C24.7886 23.9273 25.8133 23.1971 26.9241 22.6484L18.8314 14.5574ZM11.5416 23.3223C10.1446 26.2989 9.40039 29.5732 9.40039 32.9242C9.40039 36.2753 10.1447 39.5497 11.5417 42.5264L20.5541 33.514C20.544 33.3181 20.5389 33.1215 20.5389 32.9244C20.5389 32.7273 20.544 32.5307 20.5541 32.3348L11.5416 23.3223ZM13.6328 46.0921C14.3459 47.0869 15.1431 48.0282 16.0198 48.9048C16.8966 49.7816 17.838 50.5789 18.8328 51.2921L26.9255 43.2012C25.8141 42.6524 24.7889 41.9219 23.8959 41.029C23.0033 40.1363 22.273 39.1115 21.7243 38.0006L13.6328 46.0921ZM22.3987 53.3832C25.3752 54.78 28.6494 55.5242 32.0004 55.5242C35.3515 55.5242 38.6258 54.78 41.6024 53.383L32.5902 44.3708C32.3943 44.3809 32.1976 44.386 32.0005 44.386C31.8041 44.386 31.6081 44.3809 31.4129 44.3709L22.3987 53.3832ZM45.1682 51.2919C46.163 50.5788 47.1043 49.7815 47.981 48.9048C48.8577 48.0281 49.6549 47.0868 50.368 46.0921L42.276 38.0019C41.7274 39.1123 40.9973 40.1366 40.105 41.029C39.2124 41.9216 38.1877 42.6518 37.0768 43.2005L45.1682 51.2919ZM52.4591 42.5265C53.8561 39.5498 54.6004 36.2754 54.6004 32.9242C54.6004 29.5732 53.8562 26.299 52.4593 23.3224L43.4469 32.3348C43.4569 32.5307 43.462 32.7273 43.462 32.9244C43.462 33.1222 43.4569 33.3195 43.4468 33.5161L52.4591 42.5265ZM50.3682 19.7566C49.6551 18.7618 48.8578 17.8204 47.981 16.9436C47.1047 16.0673 46.1638 15.2703 45.1695 14.5574L37.0768 22.6484C38.1877 23.1971 39.2124 23.9273 40.105 24.8199C40.9977 25.7126 41.7279 26.7373 42.2766 27.8482L50.3682 19.7566ZM41.6038 12.4661C38.6268 11.0687 35.352 10.3242 32.0004 10.3242C28.6488 10.3242 25.374 11.0687 22.3971 12.4661L31.411 21.478C31.6069 21.468 31.8034 21.4629 32.0005 21.4629C32.1975 21.4629 32.3941 21.468 32.5899 21.478L41.6038 12.4661ZM33.1588 25.5533C33.0874 25.547 33.0162 25.5369 32.9456 25.523C32.6338 25.4832 32.3182 25.4629 32.0005 25.4629C31.6828 25.4629 31.3672 25.4832 31.0554 25.523C30.9848 25.5369 30.9136 25.547 30.8421 25.5533C29.2922 25.7969 27.8477 26.525 26.7244 27.6483C25.6022 28.7705 24.8743 30.2134 24.6301 31.7616C24.6237 31.8361 24.6131 31.9103 24.5984 31.9839C24.559 32.2942 24.5389 32.6083 24.5389 32.9244C24.5389 33.2405 24.559 33.5544 24.5984 33.8646C24.6131 33.9384 24.6237 34.0127 24.6301 34.0874C24.8744 35.6356 25.6022 37.0784 26.7244 38.2005C27.856 39.3321 29.3136 40.0627 30.8765 40.3009C30.925 40.306 30.9733 40.3128 31.0214 40.3215C31.3442 40.3642 31.6712 40.386 32.0005 40.386C32.3161 40.386 32.6297 40.366 32.9395 40.3267C33.0141 40.3117 33.0894 40.301 33.165 40.2946C34.7125 40.0501 36.1548 39.3223 37.2766 38.2005C38.3995 37.0776 39.1275 35.6337 39.3713 34.0845C39.3776 34.0131 39.3878 33.942 39.4017 33.8715C39.4417 33.559 39.462 33.2428 39.462 32.9244C39.462 32.6083 39.442 32.2942 39.4025 31.9839C39.3878 31.9103 39.3773 31.8361 39.3709 31.7616C39.1266 30.2134 38.3988 28.7705 37.2766 27.6483C36.1533 26.525 34.7087 25.7969 33.1588 25.5533Z" fill="#2D373D"/>
</svg>
