<svg width="32" height="33" viewBox="0 0 32 33" fill="none" xmlns="http://www.w3.org/2000/svg">
<path fill-rule="evenodd" clip-rule="evenodd" d="M15.1408 3.75498C15.6935 3.54001 16.3067 3.54001 16.8595 3.75498L28.6897 8.35599C29.0745 8.50564 29.3279 8.87615 29.3279 9.28901V16.1377C29.3279 16.6906 28.8797 17.1388 28.3268 17.1388C27.7739 17.1388 27.3257 16.6906 27.3257 16.1377V10.7525L17.0012 14.7679V27.7805C17.0012 28.111 16.8381 28.4202 16.5653 28.6068C16.2926 28.7934 15.9453 28.8334 15.6373 28.7136L3.31059 23.9195C2.92581 23.7698 2.67236 23.3993 2.67236 22.9864V9.28901C2.67236 8.87615 2.92581 8.50564 3.31059 8.35599L15.1408 3.75498ZM16.0001 13.009L19.4016 11.6861L9.8368 7.96611L6.43533 9.28901L16.0001 13.009ZM4.67456 10.7525V22.3016L14.999 26.3171V14.7679L4.67456 10.7525ZM12.5987 6.89196L22.1635 10.6119L25.5649 9.28901L16.1337 5.62102C16.0478 5.5876 15.9525 5.5876 15.8665 5.62102L12.5987 6.89196Z" fill="#2D373D"/>
<path fill-rule="evenodd" clip-rule="evenodd" d="M24.1668 28.2549C25.9157 28.2549 27.3335 26.8371 27.3335 25.0883C27.3335 24.1711 26.78 22.4898 25.9099 20.8904C25.7326 20.5646 25.5539 20.2639 25.3802 19.9952C25.3134 20.2193 25.2493 20.4455 25.1846 20.6745L25.1806 20.6888C25.1065 20.9507 25.0276 21.2297 24.9505 21.4756C24.8789 21.7037 24.7755 22.0144 24.6376 22.2913C24.5737 22.4197 24.4414 22.6681 24.217 22.9082C24.0184 23.1208 23.4218 23.6658 22.4837 23.5795C22.0625 23.5408 21.7626 23.3795 21.6427 23.3098C21.4986 23.226 21.3921 23.1408 21.3326 23.0905C21.3159 23.0764 21.2997 23.0623 21.2841 23.0484C21.0961 23.8934 21.0001 24.7135 21.0001 25.0883C21.0001 26.8371 22.4179 28.2549 24.1668 28.2549ZM21.1879 20.1005C20.9459 19.963 20.7017 19.9125 20.4785 20.0272C19.6234 20.4665 19.0001 23.8181 19.0001 25.0883C19.0001 27.9417 21.3133 30.2549 24.1668 30.2549C27.0203 30.2549 29.3335 27.9417 29.3335 25.0883C29.3335 22.2349 26.3335 16.9212 25.0001 16.9212C24.2991 16.9212 23.8202 18.223 23.4553 19.4515C23.4286 19.5414 23.4025 19.6309 23.377 19.7194C23.337 19.8582 23.2984 19.9947 23.261 20.1269C23.0282 20.9501 22.8433 21.6041 22.6668 21.5879C22.6216 21.5837 22.5065 21.4409 22.3458 21.2416C22.0835 20.9163 21.7 20.4405 21.3006 20.1707C21.2631 20.1454 21.2256 20.1219 21.1879 20.1005Z" fill="#2D373D"/>
</svg>
