<svg width="24" height="25" viewBox="0 0 24 25" fill="none" xmlns="http://www.w3.org/2000/svg">
<path fill-rule="evenodd" clip-rule="evenodd" d="M8.74951 18.6719C9.99215 18.6719 10.9995 17.6645 10.9995 16.4219C10.9995 15.1792 9.99215 14.1719 8.74951 14.1719C7.50687 14.1719 6.49951 15.1792 6.49951 16.4219C6.49951 17.6645 7.50687 18.6719 8.74951 18.6719ZM8.74951 17.1719C9.16373 17.1719 9.49951 16.8361 9.49951 16.4219C9.49951 16.0077 9.16373 15.6719 8.74951 15.6719C8.3353 15.6719 7.99951 16.0077 7.99951 16.4219C7.99951 16.8361 8.3353 17.1719 8.74951 17.1719Z" fill="#2D373D"/>
<path fill-rule="evenodd" clip-rule="evenodd" d="M15.2495 18.6719C16.4922 18.6719 17.4995 17.6645 17.4995 16.4219C17.4995 15.1792 16.4922 14.1719 15.2495 14.1719C14.0069 14.1719 12.9995 15.1792 12.9995 16.4219C12.9995 17.6645 14.0069 18.6719 15.2495 18.6719ZM15.2495 17.1719C15.6637 17.1719 15.9995 16.8361 15.9995 16.4219C15.9995 16.0077 15.6637 15.6719 15.2495 15.6719C14.8353 15.6719 14.4995 16.0077 14.4995 16.4219C14.4995 16.8361 14.8353 17.1719 15.2495 17.1719Z" fill="#2D373D"/>
<path fill-rule="evenodd" clip-rule="evenodd" d="M12.7495 8.82736C14.0434 8.49433 14.9995 7.31975 14.9995 5.92188C14.9995 4.26502 13.6564 2.92188 11.9995 2.92188C10.3427 2.92188 8.99951 4.26502 8.99951 5.92188C8.99951 7.31975 9.95559 8.49433 11.2495 8.82736V9.92187H5.99951C4.89494 9.92187 3.99951 10.8173 3.99951 11.9219L3.99951 20.918C3.99951 22.0224 4.89461 22.9177 5.99896 22.918L17.999 22.9213C19.1037 22.9216 19.9995 22.0261 19.9995 20.9213V11.9219C19.9995 10.8173 19.1041 9.92188 17.9995 9.92188H12.7495V8.82736ZM13.4995 5.92188C13.4995 6.7503 12.8279 7.42188 11.9995 7.42188C11.1711 7.42188 10.4995 6.7503 10.4995 5.92188C10.4995 5.09345 11.1711 4.42188 11.9995 4.42188C12.8279 4.42188 13.4995 5.09345 13.4995 5.92188ZM18.4995 20.9213V11.9219C18.4995 11.6457 18.2757 11.4219 17.9995 11.4219L5.99951 11.4219C5.72337 11.4219 5.49951 11.6457 5.49951 11.9219L5.49951 20.918C5.49951 21.1941 5.72329 21.4179 5.99937 21.418L17.9994 21.4213C18.2756 21.4214 18.4995 21.1975 18.4995 20.9213Z" fill="#2D373D"/>
<path d="M3.49951 14.6719C3.49951 14.2577 3.16373 13.9219 2.74951 13.9219C2.3353 13.9219 1.99951 14.2577 1.99951 14.6719V18.6719C1.99951 19.0861 2.3353 19.4219 2.74951 19.4219C3.16373 19.4219 3.49951 19.0861 3.49951 18.6719L3.49951 14.6719Z" fill="#2D373D"/>
<path d="M21.2495 13.9219C21.6637 13.9219 21.9995 14.2577 21.9995 14.6719V18.6719C21.9995 19.0861 21.6637 19.4219 21.2495 19.4219C20.8353 19.4219 20.4995 19.0861 20.4995 18.6719V14.6719C20.4995 14.2577 20.8353 13.9219 21.2495 13.9219Z" fill="#2D373D"/>
</svg>
