<svg width="64" height="65" viewBox="0 0 64 65" fill="none" xmlns="http://www.w3.org/2000/svg">
<path fill-rule="evenodd" clip-rule="evenodd" d="M51.4506 8.46543C52.5533 8.53029 53.3946 9.47676 53.3297 10.5794C52.9808 16.5118 51.4146 21.9021 49.759 25.8233C48.9319 27.7821 48.0638 29.4188 47.2811 30.5988L47.2127 30.701C48.9559 32.1109 49.8884 33.9811 50.2885 35.8412C50.8142 38.2858 50.4419 40.737 49.9305 42.3258C49.4558 44.4297 48.484 47.7125 47.0494 50.5348C46.3231 51.9636 45.426 53.3794 44.3346 54.4639C43.2441 55.5476 41.7888 56.462 39.9998 56.462C38.6108 56.462 36.9454 56.0615 35.2975 55.5331C33.6065 54.9909 31.7558 54.254 29.9357 53.4626C26.6804 52.0472 23.4112 50.4076 21.1812 49.2892L20.4387 48.9172C19.6091 48.5024 19.1735 47.5716 19.3867 46.6688C19.5998 45.766 20.4057 45.1283 21.3333 45.1284C21.8123 45.1284 22.5536 44.9133 23.5496 44.3121C24.5161 43.7287 25.5614 42.8793 26.6036 41.8631C28.6828 39.8359 30.5503 37.3415 31.5654 35.5254C32.3491 33.974 33.8735 31.8393 36.0296 30.3496C38.0202 28.9743 40.6333 28.1106 43.5931 28.8903C43.6975 28.7527 43.8162 28.586 43.9478 28.3876C44.5608 27.4635 45.3177 26.0585 46.074 24.2674C47.5851 20.6885 49.0189 15.7455 49.3366 10.3445C49.4015 9.24187 50.348 8.40056 51.4506 8.46543ZM37.1852 34.567L46.5418 38.4656C46.5513 37.8799 46.5049 37.2728 46.3779 36.6822C46.0475 35.1457 45.1994 33.7622 43.2571 32.9853C41.356 32.2249 39.7255 32.6579 38.3034 33.6405C37.9036 33.9167 37.5294 34.232 37.1852 34.567ZM45.7759 42.4798L34.8081 37.9098C33.5654 40.0142 31.5799 42.5978 29.3961 44.7271C28.4045 45.6938 27.3368 46.6018 26.2431 47.3368C27.8907 48.1414 29.7143 49.0046 31.5307 49.7944C32.5413 50.2338 33.5381 50.6453 34.4907 51.008L36.8777 46.2342C37.3716 45.2463 38.573 44.8458 39.5609 45.3398C40.5489 45.8338 40.9493 47.0351 40.4554 48.0231L38.3501 52.2337C39.0298 52.3872 39.583 52.462 39.9998 52.462C40.3442 52.462 40.8445 52.293 41.5151 51.6266C42.1848 50.9611 42.8544 49.9601 43.4836 48.7222C44.513 46.6972 45.2951 44.3186 45.7759 42.4798Z" fill="#2D373D"/>
<path d="M23.9998 35.1286C23.9998 36.6014 22.8059 37.7953 21.3332 37.7953C19.8604 37.7953 18.6665 36.6014 18.6665 35.1286C18.6665 33.6559 19.8604 32.462 21.3332 32.462C22.8059 32.462 23.9998 33.6559 23.9998 35.1286Z" fill="#2D373D"/>
<path d="M21.3332 24.462C21.3332 25.9347 20.1393 27.1286 18.6665 27.1286C17.1937 27.1286 15.9998 25.9347 15.9998 24.462C15.9998 22.9892 17.1937 21.7953 18.6665 21.7953C20.1393 21.7953 21.3332 22.9892 21.3332 24.462Z" fill="#2D373D"/>
<path d="M15.9998 32.462C15.9998 33.9347 14.8059 35.1286 13.3332 35.1286C11.8604 35.1286 10.6665 33.9347 10.6665 32.462C10.6665 30.9892 11.8604 29.7953 13.3332 29.7953C14.8059 29.7953 15.9998 30.9892 15.9998 32.462Z" fill="#2D373D"/>
</svg>
