<svg width="64" height="65" viewBox="0 0 64 65" fill="none" xmlns="http://www.w3.org/2000/svg">
<path d="M22.6124 13.0015C22.668 12.9502 22.7405 12.9219 22.8156 12.9219C22.8906 12.9219 22.9631 12.9502 23.0187 13.0015C23.0688 13.0478 23.1212 13.0916 23.1758 13.1325C24.5497 14.1638 27.1335 16.6778 29.4961 19.0743V23.6743C29.4961 24.7788 30.3915 25.6743 31.4961 25.6743C32.6007 25.6743 33.4961 24.7788 33.4961 23.6743V23.2193L33.5314 23.2567L33.7841 23.5245L33.8708 23.6168C34.6262 24.4227 35.8918 24.4637 36.6977 23.7083C37.5036 22.9529 37.5428 21.6854 36.7874 20.8795L36.6973 20.7835L36.4388 20.5095C36.2151 20.2728 35.8928 19.9326 35.4965 19.5175C34.8769 18.8684 34.0755 18.0347 33.1877 17.1255C33.0361 16.8856 32.8347 16.6802 32.5982 16.5237L32.4283 16.351C30.136 14.0235 27.3353 11.272 25.6495 9.98825C24.8665 9.30183 23.8596 8.92188 22.8156 8.92188C21.7659 8.92188 20.7539 9.3059 19.9691 9.99929C18.3287 11.2837 15.4682 14.0141 13.0878 16.3463C11.8636 17.5457 10.7358 18.6701 9.91438 19.4944C9.5035 19.9067 9.16888 20.2443 8.93673 20.4791L8.66852 20.7507L8.57364 20.8471C7.7994 21.6349 7.81024 22.9013 8.59804 23.6755C9.38584 24.4498 10.6534 24.4375 11.4276 23.6497L11.5173 23.5586L11.781 23.2916L11.8876 23.1838V29.4367C11.8167 30.4961 12.0801 31.552 12.6419 32.4548C13.2207 33.385 14.0854 34.1028 15.1066 34.5001C15.3378 34.5901 15.5838 34.6363 15.8319 34.6363H19.7752C20.8797 34.6363 21.7752 33.7409 21.7752 32.6363V26.689C21.7752 26.6697 21.7749 26.6503 21.7743 26.631C21.7707 26.5068 21.7926 26.3832 21.8387 26.268C21.8847 26.1528 21.9539 26.0484 22.0418 25.9611C22.1298 25.874 22.2345 25.8059 22.3496 25.761C22.4647 25.7162 22.5877 25.6955 22.711 25.7002C22.756 25.7019 22.801 25.7021 22.846 25.7008C22.9657 25.6973 23.0848 25.7184 23.1961 25.7629C23.3073 25.8074 23.4083 25.8744 23.4929 25.9598C23.5773 26.0451 23.6435 26.147 23.6872 26.2593C23.7308 26.3716 23.751 26.4916 23.7463 26.612C23.7038 27.7158 24.5641 28.645 25.6678 28.6875C26.7716 28.73 27.7008 27.8697 27.7434 26.766C27.7691 26.0983 27.6574 25.4324 27.4152 24.8097C27.1731 24.1869 26.8056 23.6205 26.3355 23.1456C25.8653 22.6707 25.3026 22.2975 24.6821 22.0492C24.0826 21.8093 23.4415 21.691 22.7963 21.701C22.1476 21.6852 21.5021 21.7983 20.8971 22.0341C20.2712 22.278 19.7021 22.648 19.2252 23.121C18.7483 23.594 18.3736 24.1599 18.1243 24.7837C17.8791 25.3973 17.7604 26.0539 17.7752 26.7142V30.6363H16.3102C16.2024 30.5567 16.1098 30.4569 16.038 30.3414C15.9158 30.1451 15.8604 29.9142 15.8803 29.6834C15.8852 29.6264 15.8876 29.5692 15.8876 29.5119V19.203C18.3452 16.7953 21.0707 14.2066 22.4802 13.1135C22.5259 13.0781 22.57 13.0408 22.6124 13.0015Z" fill="#2D373D"/>
<path fill-rule="evenodd" clip-rule="evenodd" d="M45.4069 18.1388C42.1078 18.1388 39.4362 20.815 39.4362 24.1128C39.4362 27.4105 42.1078 30.0868 45.4069 30.0868C48.7059 30.0868 51.3775 27.4105 51.3775 24.1128C51.3775 20.815 48.7059 18.1388 45.4069 18.1388ZM43.4362 24.1128C43.4362 23.021 44.3201 22.1388 45.4069 22.1388C46.4936 22.1388 47.3775 23.021 47.3775 24.1128C47.3775 25.2046 46.4936 26.0868 45.4069 26.0868C44.3201 26.0868 43.4362 25.2045 43.4362 24.1128Z" fill="#2D373D"/>
<path fill-rule="evenodd" clip-rule="evenodd" d="M32.5826 46.5406C32.025 48.3383 31.5736 50.041 31.3966 51.338C31.3166 51.7448 31.2328 52.5554 31.4866 53.4843C31.8042 54.6463 32.6252 55.8694 34.2648 56.6055C34.3254 56.6328 34.3874 56.657 34.4505 56.678C35.0755 56.8867 35.7372 56.9627 36.3933 56.9011C37.0493 56.8396 37.6853 56.6417 38.2605 56.3204C38.8358 55.9991 39.3376 55.5613 39.7341 55.0351C40.1157 54.5287 40.3917 53.9512 40.5461 53.3367L40.9018 52.1696C41.2746 52.8114 41.6818 53.5264 42.1147 54.307C42.5586 55.1443 43.2434 55.8296 44.0811 56.274C44.9613 56.7409 45.8628 56.8725 46.7739 56.768C46.8316 56.7613 46.8889 56.7522 46.9458 56.7406C47.9014 56.5456 48.9996 56.0427 49.766 55.0838C50.4584 54.2176 50.8252 53.136 50.8029 52.0274C50.794 51.5893 50.7504 51.1477 50.5957 50.6721C50.4534 50.2342 50.2442 49.86 50.0704 49.5564C50.0245 49.4763 49.9754 49.3916 49.9224 49.3004C49.5714 48.6955 49.056 47.8072 48.2565 46.1155C47.7846 45.1169 46.5924 44.6899 45.5937 45.1618C44.5951 45.6338 44.1681 46.8259 44.64 47.8246C45.5118 49.6693 46.0957 50.6755 46.457 51.2981C46.5089 51.3874 46.5562 51.4689 46.599 51.5438C46.6805 51.6862 46.7277 51.7731 46.7591 51.8366C46.7795 51.8778 46.788 51.8989 46.7908 51.9063C46.7943 51.9271 46.8012 51.9847 46.8037 52.108C46.8072 52.2818 46.7497 52.451 46.6415 52.5863C46.6108 52.6248 46.477 52.7349 46.2315 52.8012C46.1032 52.8069 46.0364 52.7833 45.9555 52.7403C45.8238 52.6705 45.716 52.5622 45.6467 52.4295L45.6234 52.3863C44.5669 50.4801 43.655 48.9472 43.005 47.8874C42.6799 47.3574 42.4201 46.9453 42.2402 46.6637C42.1502 46.5229 42.0802 46.4147 42.032 46.3406L41.9762 46.2552L41.961 46.2321L41.9545 46.2222C41.527 45.5765 40.7652 45.2357 39.9989 45.3472C39.2326 45.4587 38.5995 46.0026 38.3738 46.7433L36.7033 52.2247C36.6906 52.2664 36.6793 52.3085 36.6693 52.3509C36.6458 52.4513 36.6016 52.5456 36.5396 52.6278C36.4777 52.71 36.3994 52.7783 36.3098 52.8283C36.2203 52.8783 36.1214 52.9091 36.0194 52.9187C35.9455 52.9256 35.8711 52.9213 35.7987 52.906C35.6029 52.8042 35.5067 52.7088 35.459 52.6512C35.4008 52.5811 35.3667 52.5085 35.3451 52.4297C35.3217 52.3441 35.3147 52.2545 35.3168 52.1785C35.3177 52.145 35.3202 52.1219 35.3215 52.1114C35.3345 52.0527 35.3449 51.9934 35.3526 51.9337C35.4916 50.8552 35.9465 49.1407 36.6104 47.068C37.2625 45.0324 38.0766 42.7711 38.8771 40.6502C39.6765 38.5323 40.4563 36.5701 41.0367 35.1365C41.2189 34.6863 41.3813 34.2887 41.5183 33.9552C41.6175 33.9793 41.715 34.0123 41.8094 34.0541C42.1689 34.2132 42.4636 34.4908 42.6443 34.8411C42.6895 34.9287 42.7411 35.0129 42.7986 35.0928C43.5127 36.0848 44.5431 36.795 45.5016 37.3049C46.4846 37.8279 47.552 38.2236 48.5038 38.5177C49.4628 38.8141 50.3521 39.0217 50.9991 39.1552C51.2904 39.2154 51.5356 39.2611 51.7199 39.2936C51.8014 39.3582 51.869 39.4397 51.9176 39.5335C51.9942 39.6815 52.0188 39.8512 51.9873 40.0151C51.9835 40.0349 51.98 40.0548 51.9768 40.0747C51.9575 40.1946 51.8926 40.3018 51.7963 40.3741C51.7001 40.4463 51.5798 40.4782 51.4609 40.4634C51.4069 40.4566 51.3526 40.4521 51.2982 40.4497C49.8466 40.3879 48.8372 40.2154 48.0158 39.9335C47.2131 39.658 46.4966 39.2458 45.673 38.5854C44.8112 37.8944 43.5525 38.0329 42.8615 38.8946C42.1705 39.7564 42.309 41.0151 43.1707 41.7061C44.2703 42.5877 45.3865 43.2601 46.7172 43.7168C48.0106 44.1608 49.4133 44.3688 51.0568 44.443C52.1749 44.5593 53.2969 44.2492 54.1976 43.5731C55.1147 42.8847 55.7314 41.8701 55.9211 40.7402C56.1135 39.7034 55.9549 38.6315 55.4697 37.6944C54.9799 36.7485 54.1858 35.9949 53.2151 35.5556C53.0459 35.479 52.8661 35.4262 52.6823 35.3991L52.6762 35.3981L52.6366 35.3919C52.5995 35.386 52.5415 35.3765 52.4651 35.3632C52.3121 35.3367 52.0864 35.2953 51.8077 35.2378C51.2474 35.1222 50.4884 34.9444 49.6847 34.696C48.8736 34.4454 48.0635 34.1371 47.3804 33.7736C46.7384 33.432 46.3296 33.1052 46.1074 32.8365C45.503 31.7562 44.5637 30.899 43.4285 30.3964C42.234 29.8676 40.8946 29.7635 39.6327 30.1014C39.6101 30.1074 39.5877 30.1139 39.5655 30.1207C37.8987 29.4697 36.0989 29.2058 34.3031 29.3579C32.0278 29.5506 29.8584 30.4025 28.0598 31.809C25.5865 33.6199 23.9882 35.7902 23.3632 38.033C22.73 40.3053 23.1248 42.6127 24.5791 44.3556C24.9776 44.8372 26.4938 46.2985 28.8569 46.7552C30.01 46.978 31.2654 46.9438 32.5826 46.5406ZM37.3462 33.5931C37.3405 33.6071 37.3348 33.6213 37.329 33.6354C36.7407 35.0887 35.9485 37.0818 35.1348 39.2378C34.9775 39.6545 34.8192 40.078 34.6612 40.5053C32.3238 42.9217 30.5923 43.0165 29.6158 42.8278C28.4995 42.6121 27.7626 41.9053 27.6786 41.8247L27.6711 41.8176L27.6522 41.7951C27.1391 41.1816 26.8919 40.2714 27.2164 39.1067C27.5474 37.9188 28.4994 36.4386 30.4455 35.0198L30.4797 34.9944L30.5043 34.9752C31.6944 34.0385 33.1324 33.4714 34.6406 33.3436C35.5547 33.2662 36.4704 33.3523 37.3462 33.5931Z" fill="#2D373D"/>
</svg>
