<svg width="24" height="25" viewBox="0 0 24 25" fill="none" xmlns="http://www.w3.org/2000/svg">
<path d="M15 13.9224C15.5523 13.9224 16 13.4747 16 12.9224C16 12.3701 15.5523 11.9224 15 11.9224C14.4477 11.9224 14 12.3701 14 12.9224C14 13.4747 14.4477 13.9224 15 13.9224Z" fill="#2D373D"/>
<path fill-rule="evenodd" clip-rule="evenodd" d="M5.00172 21.4224L5.00167 4.81008C5.00167 3.87375 5.67888 2.92198 6.73529 2.92198L17.2683 2.92188C18.3247 2.92188 19.0019 3.87364 19.0019 4.80997L19.002 21.4224H21.2494C21.6636 21.4224 21.9994 21.7582 21.9994 22.1724C21.9994 22.5866 21.6636 22.9224 21.2494 22.9224H2.75C2.33579 22.9224 2 22.5866 2 22.1724C2 21.7582 2.33579 21.4224 2.75 21.4224H5.00172ZM17.502 21.4224L17.5019 4.80997C17.5019 4.66944 17.4525 4.56062 17.3964 4.49564C17.3415 4.4322 17.2942 4.42187 17.2683 4.42187L11.3382 4.42194L12.6708 7.08718C12.8006 7.34671 12.769 7.6578 12.5897 7.88596L10.1334 11.0123L11.9208 14.5872C12.1061 14.9577 11.9559 15.4082 11.5854 15.5934C11.2149 15.7787 10.7644 15.6285 10.5792 15.258L8.57919 11.258C8.44942 10.9985 8.481 10.6874 8.66027 10.4592L11.1166 7.33292L9.66116 4.42195L6.73529 4.42198C6.70941 4.42198 6.66204 4.43231 6.60721 4.49574C6.55105 4.56073 6.50167 4.66955 6.50167 4.81008L6.50172 21.4224H17.502Z" fill="#2D373D"/>
</svg>
