<svg width="24" height="25" viewBox="0 0 24 25" fill="none" xmlns="http://www.w3.org/2000/svg">
<path d="M11.2498 12.3105C11.6248 12.0855 11.7748 11.6355 11.5498 11.2605C10.9498 10.2105 9.9748 9.38555 8.7748 9.08555H8.6998C9.7498 8.63555 10.4998 7.58555 10.5748 6.31055C10.5748 4.66055 9.2248 3.31055 7.5748 3.31055C5.9248 3.31055 4.5748 4.66055 4.5748 6.31055C4.5748 7.58555 5.3248 8.63555 6.4498 9.08555C5.9998 9.16055 5.6248 9.31055 5.2498 9.53555C3.8248 10.3605 2.9248 11.8605 2.9248 13.5105V15.1605C2.9248 15.6105 3.2248 15.9105 3.6748 15.9105H4.7248L5.1748 20.7855C5.2498 21.1605 5.5498 21.4605 5.9248 21.4605H9.2248C9.5998 21.4605 9.8998 21.1605 9.8998 20.7855L10.1248 18.3855C10.1998 17.9355 9.8248 17.6355 9.4498 17.5605C8.9998 17.5605 8.6998 17.8605 8.6248 18.2355L8.4748 19.9605H6.5248L6.0748 15.0855C5.9998 14.7105 5.6998 14.4105 5.3248 14.4105H4.4248V13.5105C4.4248 12.4605 5.0248 11.4105 5.9248 10.8855C6.2248 10.7355 6.5248 10.5855 6.8248 10.5105V13.3605C6.8248 13.8105 7.1248 14.1105 7.5748 14.1105C7.9498 14.1105 8.3248 13.8105 8.3248 13.3605V10.5855C9.0748 10.8105 9.8248 11.2605 10.1998 12.0105C10.4248 12.3855 10.8748 12.5355 11.2498 12.3105ZM7.5748 7.88555C6.7498 7.88555 6.0748 7.21055 6.0748 6.38555C6.0748 5.56055 6.7498 4.88555 7.5748 4.88555C8.3248 4.88555 9.0748 5.56055 9.0748 6.38555C9.0748 7.21055 8.3998 7.88555 7.5748 7.88555Z" fill="#2D373D"/>
<path d="M15.8247 11.1105C12.9747 11.1105 10.6497 13.4355 10.6497 16.2855C10.6497 19.1355 12.9747 21.4605 15.8247 21.4605C18.6747 21.4605 20.9997 19.1355 20.9997 16.2855C20.9997 13.4355 18.6747 11.1105 15.8247 11.1105ZM15.8247 19.9605C13.7997 19.9605 12.1497 18.3105 12.1497 16.2855C12.1497 14.2605 13.7997 12.6105 15.8247 12.6105C17.8497 12.6105 19.4997 14.2605 19.4997 16.2855C19.4997 18.3105 17.8497 19.9605 15.8247 19.9605Z" fill="#2D373D"/>
<path d="M15.825 15.5356C15.375 15.5356 15.075 15.8356 15.075 16.2856V18.5356C15.075 18.9856 15.375 19.2856 15.825 19.2856C16.275 19.2856 16.575 18.9106 16.575 18.5356V16.2856C16.575 15.8356 16.275 15.5356 15.825 15.5356Z" fill="#2D373D"/>
<path d="M16.2747 14.1105C16.1997 14.0355 16.1997 14.0355 16.1997 14.0355H16.0497C15.9747 14.0355 15.9747 13.9605 15.9747 13.9605C15.9747 13.9605 15.8997 13.9605 15.8247 13.9605C15.6747 13.9605 15.5247 14.0355 15.3747 14.1855C15.2247 14.3355 15.1497 14.4855 15.1497 14.6355C15.1497 14.7855 15.2247 14.9355 15.3747 15.0855C15.5247 15.2355 15.6747 15.3105 15.8247 15.3105C15.9747 15.3105 16.1247 15.2355 16.2747 15.0855C16.4247 14.9355 16.4997 14.7855 16.4997 14.6355C16.4247 14.3355 16.3497 14.1855 16.2747 14.1105Z" fill="#2D373D"/>
</svg>
