<svg width="16" height="17" viewBox="0 0 16 17" fill="none" xmlns="http://www.w3.org/2000/svg">
<path fill-rule="evenodd" clip-rule="evenodd" d="M6.16682 4.08984C6.16682 3.8137 6.39068 3.58984 6.66682 3.58984H10.803C11.986 3.58984 12.711 4.14458 13.124 4.71242C13.3248 4.98852 13.4488 5.26208 13.5229 5.46585C13.5602 5.5684 13.5855 5.65527 13.602 5.7187C13.6103 5.75048 13.6163 5.77656 13.6206 5.796C13.6227 5.80573 13.6244 5.81381 13.6256 5.82014L13.6272 5.82829L13.6278 5.83136L13.628 5.83263C13.628 5.83263 13.6282 5.83373 13.1363 5.92318L13.6282 5.83373C13.6294 5.83996 13.6304 5.8462 13.6313 5.85247L13.9657 8.19362L14.6629 13.6936C14.6809 13.8361 14.6369 13.9794 14.542 14.0871C14.447 14.1948 14.3104 14.2565 14.1668 14.2565H1.8335C1.55735 14.2565 1.3335 14.0327 1.3335 13.7565C1.3335 11.8146 1.81021 10.3002 2.75672 9.2685C3.70949 8.22998 5.06808 7.75651 6.66682 7.75651H12.8931L12.6434 6.00849C12.6418 6.00095 12.6388 5.9879 12.6341 5.9701C12.6246 5.93328 12.6083 5.87691 12.5831 5.80759C12.5322 5.66761 12.4478 5.48283 12.3153 5.3006C12.0616 4.95177 11.6199 4.58984 10.803 4.58984H6.66682C6.39068 4.58984 6.16682 4.36599 6.16682 4.08984ZM13.029 8.75651H6.66682C5.26557 8.75651 4.2075 9.16638 3.4936 9.94453C2.84249 10.6542 2.42043 11.7323 2.34549 13.2565H13.5994L13.029 8.75651Z" fill="#2D373D"/>
<path d="M5.80491 12.0612C5.54456 12.3216 5.12245 12.3216 4.8621 12.0612C4.60175 11.8009 4.60175 11.3788 4.8621 11.1184C5.12245 10.8581 5.54456 10.8581 5.80491 11.1184C6.06526 11.3788 6.06526 11.8009 5.80491 12.0612Z" fill="#2D373D"/>
<path d="M8.47158 12.0612C8.21123 12.3216 7.78912 12.3216 7.52877 12.0612C7.26842 11.8009 7.26842 11.3788 7.52877 11.1184C7.78912 10.8581 8.21123 10.8581 8.47158 11.1184C8.73193 11.3788 8.73193 11.8009 8.47158 12.0612Z" fill="#2D373D"/>
<path d="M11.1382 12.0612C10.8779 12.3216 10.4558 12.3216 10.1954 12.0612C9.93509 11.8009 9.93509 11.3788 10.1954 11.1184C10.4558 10.8581 10.8779 10.8581 11.1382 11.1184C11.3986 11.3788 11.3986 11.8009 11.1382 12.0612Z" fill="#2D373D"/>
</svg>
