<svg width="24" height="25" viewBox="0 0 24 25" fill="none" xmlns="http://www.w3.org/2000/svg">
<path d="M19.275 6.98672H17.325V5.03672C17.325 4.13672 16.575 3.38672 15.675 3.38672H12.975C12.075 3.38672 11.325 4.13672 11.325 5.03672V6.98672H9.37499C8.47499 6.98672 7.72499 7.73672 7.72499 8.63672V10.8867C7.72499 11.3367 8.02499 11.6367 8.47499 11.6367C8.92499 11.6367 9.22499 11.3367 9.22499 10.8867V8.63672C9.22499 8.56172 9.29999 8.48672 9.37499 8.48672H12.075C12.525 8.48672 12.825 8.18672 12.825 7.73672V5.03672C12.825 4.96172 12.9 4.88672 12.975 4.88672H15.675C15.75 4.88672 15.825 4.96172 15.825 5.03672V7.73672C15.825 8.18672 16.125 8.48672 16.575 8.48672H19.275C19.35 8.48672 19.425 8.56172 19.425 8.63672V11.4117C19.425 11.4867 19.35 11.5617 19.275 11.5617H16.575C16.125 11.5617 15.825 11.8617 15.825 12.3117V15.0117C15.825 15.0867 15.75 15.1617 15.675 15.1617H13.5C13.05 15.1617 12.75 15.4617 12.75 15.9117C12.75 16.3617 13.05 16.6617 13.5 16.6617H15.675C16.65 16.6617 17.4 15.9117 17.4 14.9367V12.9867H19.35C20.25 12.9867 21 12.2367 21 11.3367V8.63672C21 7.73672 20.25 6.98672 19.275 6.98672Z" fill="#2D373D"/>
<path d="M7.42502 14.6366C7.72502 14.6366 8.02502 14.4866 8.25002 14.3366C8.40002 14.1116 8.55002 13.8116 8.55002 13.5116C8.55002 13.5116 8.55002 13.5116 8.55002 13.4366C8.55002 12.8366 8.02502 12.3116 7.42502 12.3116C6.82502 12.3116 6.30002 12.8366 6.30002 13.4366C6.30002 13.4366 6.30002 13.4366 6.30002 13.5116C6.30002 14.1116 6.82502 14.6366 7.42502 14.6366Z" fill="#2D373D"/>
<path d="M10.725 13.8867C10.125 13.8867 9.59999 14.4117 9.59999 15.0117C9.59999 15.6117 10.125 16.1367 10.725 16.1367C11.025 16.1367 11.325 16.0617 11.55 15.8367C11.7 15.6117 11.85 15.3117 11.85 15.0117C11.85 14.4117 11.325 13.8867 10.725 13.8867Z" fill="#2D373D"/>
<path d="M4.95 15.8367C5.1 15.6117 5.25 15.3117 5.25 15.0117C5.25 14.4117 4.8 13.8867 4.125 13.8867C3.525 13.8867 3 14.4117 3 15.0117C3 15.6117 3.525 16.1367 4.125 16.1367C4.425 16.1367 4.725 16.0617 4.95 15.8367Z" fill="#2D373D"/>
<path d="M8.84998 16.1367C8.47498 15.7617 7.94998 15.5367 7.42498 15.5367C6.89998 15.5367 6.37498 15.7617 5.99998 16.1367L4.04998 18.0117C3.67498 18.3867 3.44998 18.9117 3.44998 19.4367C3.44998 20.5617 4.34998 21.4617 5.47498 21.4617H9.37498C9.89998 21.4617 10.425 21.3117 10.8 20.9367C11.175 20.5617 11.4 20.0367 11.4 19.5117C11.4 18.9867 11.175 18.4617 10.8 18.0867L8.84998 16.1367ZM9.74998 19.8867C9.59998 19.9617 9.52498 20.0367 9.37498 20.0367H5.47498C5.17498 20.0367 4.94998 19.8117 4.94998 19.5117C4.94998 19.3617 5.02498 19.2117 5.09998 19.1367L7.04998 17.1867C7.19998 17.1117 7.27498 17.0367 7.42498 17.0367C7.57498 17.0367 7.72498 17.1117 7.79998 17.1867L9.74998 19.1367C9.82498 19.2867 9.89998 19.3617 9.89998 19.5117C9.89998 19.6617 9.82498 19.8117 9.74998 19.8867Z" fill="#2D373D"/>
</svg>
