<svg width="24" height="25" viewBox="0 0 24 25" fill="none" xmlns="http://www.w3.org/2000/svg">
<path fill-rule="evenodd" clip-rule="evenodd" d="M12 10.4219C12.4352 10.4219 12.8489 10.6109 13.1339 10.9399L13.9999 11.9399C14.3843 12.3838 14.4743 13.0111 14.2303 13.5452C13.9864 14.0793 13.4532 14.4219 12.866 14.4219H11.1339C10.5468 14.4219 10.0136 14.0793 9.76957 13.5452C9.52558 13.0111 9.61564 12.3838 10 11.9399L10.8661 10.9399C11.151 10.6109 11.5647 10.4219 12 10.4219ZM12 11.9219L11.1339 12.9219H12.866L12 11.9219Z" fill="#2D373D"/>
<path d="M11.2929 9.62898C11.6834 10.0195 12.3166 10.0195 12.7071 9.62898C13.0976 9.23846 13.0976 8.60529 12.7071 8.21477C12.3166 7.82424 11.6834 7.82424 11.2929 8.21477C10.9024 8.60529 10.9024 9.23846 11.2929 9.62898Z" fill="#2D373D"/>
<path d="M10.4571 10.629C10.0666 11.0195 9.43342 11.0195 9.04289 10.629C8.65237 10.2385 8.65237 9.60529 9.04289 9.21477C9.43342 8.82424 10.0666 8.82424 10.4571 9.21477C10.8476 9.60529 10.8476 10.2385 10.4571 10.629Z" fill="#2D373D"/>
<path d="M13.5429 10.629C13.9334 11.0195 14.5666 11.0195 14.9571 10.629C15.3476 10.2385 15.3476 9.60529 14.9571 9.21477C14.5666 8.82424 13.9334 8.82424 13.5429 9.21477C13.1524 9.60529 13.1524 10.2385 13.5429 10.629Z" fill="#2D373D"/>
<path d="M12.7071 20.379C12.3166 20.7695 11.6834 20.7695 11.2929 20.379C10.9024 19.9885 10.9024 19.3553 11.2929 18.9648C11.6834 18.5742 12.3166 18.5742 12.7071 18.9648C13.0976 19.3553 13.0976 19.9885 12.7071 20.379Z" fill="#2D373D"/>
<path fill-rule="evenodd" clip-rule="evenodd" d="M7 2.92188C5.89543 2.92188 5 3.81731 5 4.92188V20.9219C5 22.0264 5.89543 22.9219 7 22.9219H17C18.1046 22.9219 19 22.0264 19 20.9219V4.92188C19 3.81731 18.1046 2.92188 17 2.92188H7ZM17 4.42188H7C6.72386 4.42188 6.5 4.64573 6.5 4.92188V16.1719H17.5V4.92188C17.5 4.64573 17.2761 4.42188 17 4.42188ZM17.5 17.6719H6.5V20.9219C6.5 21.198 6.72386 21.4219 7 21.4219H17C17.2761 21.4219 17.5 21.198 17.5 20.9219V17.6719Z" fill="#2D373D"/>
</svg>
