<svg width="64" height="65" viewBox="0 0 64 65" fill="none" xmlns="http://www.w3.org/2000/svg">
<path fill-rule="evenodd" clip-rule="evenodd" d="M13.1788 14.0321C18.1763 9.05375 24.9434 6.25781 31.9987 6.25781C39.0711 6.25781 45.8539 9.06733 50.8549 14.0683C55.8559 19.0693 58.6654 25.852 58.6654 32.9245C58.6654 39.9969 55.8559 46.7797 50.8549 51.7807C45.8539 56.7816 39.0711 59.5911 31.9987 59.5911C24.9263 59.5911 18.1435 56.7816 13.1425 51.7807C8.14155 46.7797 5.33203 39.9969 5.33203 32.9245C5.33203 25.8694 8.12775 19.1026 13.1057 14.1052C13.1175 14.0928 13.1295 14.0804 13.1418 14.0682C13.154 14.056 13.1664 14.0439 13.1788 14.0321ZM14.6267 18.3958L17.4265 21.1956C18.2115 21.9806 19.4842 21.9806 20.2692 21.1956C21.0541 20.4106 21.0541 19.1379 20.2692 18.353L17.4693 15.5531C21.5272 12.1588 26.666 10.2779 31.9987 10.2779C38.0049 10.2779 43.7652 12.6639 48.0122 16.9109C52.2593 21.158 54.6453 26.9182 54.6453 32.9245C54.6453 38.2571 52.7645 43.3958 49.3703 47.4537L43.2824 41.3658C42.4974 40.5808 41.2247 40.5808 40.4397 41.3658C39.6547 42.1508 39.6547 43.4235 40.4397 44.2085L46.5276 50.2963C42.4697 53.6904 37.3312 55.571 31.9987 55.571C25.9925 55.571 20.2322 53.1851 15.9852 48.938C11.7381 44.691 9.35213 38.9307 9.35213 32.9245C9.35213 27.5921 11.2328 22.4536 14.6267 18.3958Z" fill="#2D373D"/>
<path fill-rule="evenodd" clip-rule="evenodd" d="M28.5631 20.1405H38.6078L35.1318 27.0944C34.8204 27.7175 34.8537 28.4574 35.22 29.0499C35.5862 29.6425 36.2332 30.0031 36.9298 30.0031H39.599L29.8182 43.6962L30.711 34.7682C30.7675 34.2031 30.5823 33.6405 30.2013 33.2194C29.8202 32.7984 29.2788 32.5581 28.7109 32.5581H24.8378L28.5631 20.1405ZM28.2901 16.1204C27.5046 16.1201 26.74 16.3732 26.1098 16.8419C25.4793 17.3108 25.0169 17.9706 24.7912 18.7232L20.8465 31.8721C20.6828 32.4173 20.6483 32.9945 20.7466 33.5553C20.8449 34.1164 21.0732 34.6468 21.413 35.1041C21.7529 35.5613 22.195 35.9327 22.704 36.1887C23.2129 36.4447 23.7747 36.5781 24.3444 36.5782H26.4898L25.0671 50.8059C24.9764 51.7123 25.5066 52.5663 26.3591 52.8872C27.2116 53.208 28.1733 52.9155 28.7028 52.1742L45.1405 29.1614C45.5782 28.5487 45.6367 27.7428 45.2922 27.0733C44.9476 26.4038 44.2578 25.983 43.5049 25.983H40.1817L42.469 21.4071C42.7471 20.8501 42.8786 20.2303 42.8504 19.6083C42.8221 18.9864 42.6354 18.3819 42.3079 17.8524C41.9804 17.3228 41.523 16.8858 40.9792 16.5827C40.4354 16.2795 39.8231 16.1204 39.2005 16.1204H28.2901Z" fill="#2D373D"/>
</svg>
