<svg width="64" height="65" viewBox="0 0 64 65" fill="none" xmlns="http://www.w3.org/2000/svg">
<path d="M41.8 30.9229H34V22.9229C34 21.7229 33.2 20.9229 32 20.9229C30.8 20.9229 30 21.7229 30 22.9229V30.9229H22C20.8 30.9229 20 31.7229 20 32.9229C20 34.1229 20.8 34.9229 22 34.9229H30V42.9229C30 44.1229 30.8 44.9229 32 44.9229C33.2 44.9229 34 43.9229 34 42.7229V34.9229H42C43 34.9229 43.8 34.1229 43.8 32.9229C43.8 31.7229 43 30.9229 41.8 30.9229Z" fill="#2D373D"/>
<path d="M32.0002 6.12305C17.2002 6.12305 5.2002 18.123 5.2002 32.723C5.2002 32.923 5.2002 32.923 5.2002 32.923C5.2002 40.123 8.0002 46.723 13.0002 51.923C18.2002 56.923 24.8002 59.723 32.0002 59.723C46.8002 59.723 58.8002 47.723 58.8002 32.923C58.8002 18.123 46.8002 6.12305 32.0002 6.12305ZM32.0002 55.723C25.8002 55.723 20.2002 53.523 15.8002 49.123C11.6002 44.923 9.2002 39.123 9.2002 33.123C9.2002 20.323 19.4002 10.123 32.0002 10.123C44.6002 10.123 54.8002 20.323 54.8002 32.923C54.8002 45.523 44.6002 55.723 32.0002 55.723Z" fill="#2D373D"/>
</svg>
