<svg width="24" height="25" viewBox="0 0 24 25" fill="none" xmlns="http://www.w3.org/2000/svg">
<path d="M21.4548 5.39258H19.0911V4.26758C19.0911 3.32227 18.319 2.55664 17.3657 2.55664H15.3015C14.3481 2.55664 13.576 3.32227 13.576 4.26758V5.39258H10.4245V4.26758C10.4245 3.32227 9.65236 2.55664 8.69903 2.55664H6.63478C5.68145 2.55664 4.90933 3.32227 4.90933 4.26758V5.39258H2.54569C2.11236 5.39258 1.75781 5.74414 1.75781 6.17383V21.7989C1.75781 22.2285 2.11236 22.5801 2.54569 22.5801H21.4548C21.8881 22.5801 22.2427 22.2285 22.2427 21.7989V6.17383C22.2427 5.74414 21.8881 5.39258 21.4548 5.39258ZM15.1518 4.26758C15.1518 4.18164 15.2148 4.11914 15.3015 4.11914H17.3657C17.4524 4.11914 17.5154 4.18945 17.5154 4.26758V5.39258H15.1518V4.26758ZM6.48509 4.26758C6.48509 4.18164 6.54812 4.11914 6.63478 4.11914H8.69903C8.78569 4.11914 8.84872 4.18945 8.84872 4.26758V5.39258H6.48509V4.26758ZM20.6669 6.95508V8.51761H3.33357V6.95508H20.6669ZM20.6669 21.0176H3.33357V10.0801H20.6669V21.0176Z" fill="#2D373D"/>
<path d="M5.69721 15.9628H6.87903V17.1347C6.87903 17.5644 7.23357 17.916 7.6669 17.916C8.10024 17.916 8.45478 17.5644 8.45478 17.1347V15.9628H9.6366C10.0699 15.9628 10.4245 15.6113 10.4245 15.1816C10.4245 14.7519 10.0699 14.4003 9.6366 14.4003H8.45478V13.2285C8.45478 12.7988 8.10024 12.4472 7.6669 12.4472C7.23357 12.4472 6.87903 12.7988 6.87903 13.2285V14.4003H5.69721C5.26387 14.4003 4.90933 14.7519 4.90933 15.1816C4.90933 15.6113 5.26387 15.9628 5.69721 15.9628Z" fill="#2D373D"/>
<path d="M14.3639 16.33H18.3033C18.7366 16.33 19.0911 15.9784 19.0911 15.5487C19.0911 15.119 18.7366 14.7675 18.3033 14.7675H14.3639C13.9305 14.7675 13.576 15.119 13.576 15.5487C13.576 15.9784 13.9305 16.33 14.3639 16.33Z" fill="#2D373D"/>
</svg>
