<svg width="16" height="16" viewBox="0 0 16 16" fill="none" xmlns="http://www.w3.org/2000/svg">
<path d="M12.4499 8.5C12.1499 8.5 11.9499 8.7 11.9499 9V13H9.6999V10.25C9.6999 9.55 9.0999 8.95 8.3999 8.95H7.5999C6.8999 8.95 6.2999 9.55 6.2999 10.25V13H4.0499V9C4.0499 8.7 3.8499 8.5 3.5499 8.5C3.2499 8.5 3.0499 8.7 3.0499 9V13.5C3.0499 13.8 3.2499 14 3.5499 14H6.8499C7.1499 14 7.3499 13.8 7.3499 13.5V10.25C7.3499 10.1 7.4499 9.95 7.6499 9.95H8.4499C8.5999 9.95 8.7499 10.1 8.7499 10.25V13.5C8.7499 13.8 8.9499 14 9.2499 14H12.4999C12.7499 14 12.9999 13.8 12.9499 13.5V9C12.9499 8.7 12.7499 8.5 12.4499 8.5Z" fill="#2D373D"/>
<path d="M14.4999 7.89998L12.9999 6.39998V3.74998C12.9999 3.44998 12.7999 3.24998 12.4999 3.24998H10.4499C10.2499 3.24998 10.1499 3.34998 10.0499 3.44998L8.9499 2.34998C8.4499 1.84998 7.5999 1.84998 7.0999 2.34998L1.5499 7.84998C1.3499 8.04998 1.3499 8.34998 1.5499 8.54998C1.6499 8.64998 1.7499 8.69998 1.8999 8.69998C2.0499 8.69998 2.1499 8.64998 2.2499 8.54998L7.7999 3.04998C7.9499 2.94998 8.1499 2.94998 8.2499 3.04998L10.0499 4.84998C10.0999 4.89998 10.0999 4.94998 10.1499 4.94998L12.0999 6.89998C12.1499 6.94998 12.1499 6.99998 12.1999 6.99998L13.7999 8.59998C13.9999 8.79998 14.2999 8.79998 14.4999 8.59998C14.6999 8.39998 14.6999 8.09998 14.4999 7.89998ZM10.9499 4.24998H11.9999V5.39998L10.9499 4.34998V4.24998Z" fill="#2D373D"/>
</svg>
