<svg width="32" height="33" viewBox="0 0 32 33" fill="none" xmlns="http://www.w3.org/2000/svg">
<path d="M11.5789 3.58594H14.9322C14.7722 6.70878 14.6126 9.8317 14.4531 12.9546H9.59308L11.5789 3.58594Z" fill="#2D373D"/>
<path d="M22.4072 12.9546C21.7452 9.8317 21.0831 6.70878 20.4208 3.58594H17.0674L17.547 12.9546H22.4072Z" fill="#2D373D"/>
<path d="M17.802 17.9401C18.0123 22.0443 18.2224 26.1483 18.4323 30.2524H26.0739C25.2919 26.5643 24.5103 22.8762 23.7287 19.1881L23.4642 17.9401H17.802Z" fill="#2D373D"/>
<path d="M5.9257 30.2524H13.5673C13.778 26.1483 13.9881 22.0443 14.1978 17.9401H8.53637C7.66644 22.0443 6.79637 26.1484 5.9257 30.2524Z" fill="#2D373D"/>
<path d="M29.0237 14.25C29.1946 14.25 29.3332 14.3949 29.3332 14.5736V16.3228C29.3332 16.5015 29.1946 16.6464 29.0236 16.6464H27.3487V19.2665C27.3487 19.4452 27.2103 19.5901 27.0392 19.5901H25.368C25.2265 19.5901 25.1029 19.4897 25.0681 19.3462L24.4117 16.6465H7.58795L6.93146 19.3462C6.89669 19.4896 6.77318 19.5901 6.63163 19.5901H4.96023C4.78932 19.5901 4.65084 19.4452 4.65084 19.2665V16.6464H2.97596C2.80505 16.6464 2.6665 16.5015 2.6665 16.3228V14.5736C2.6665 14.3949 2.80505 14.25 2.97596 14.25H29.0237Z" fill="#2D373D"/>
</svg>
