<svg width="64" height="65" viewBox="0 0 64 65" fill="none" xmlns="http://www.w3.org/2000/svg">
<path d="M37.3333 8.25391C37.3333 7.14934 36.4379 6.25391 35.3333 6.25391C34.2288 6.25391 33.3333 7.14934 33.3333 8.25391V10.9206L30.6667 10.9206V8.25391C30.6667 7.14934 29.7712 6.25391 28.6667 6.25391C27.5621 6.25391 26.6667 7.14934 26.6667 8.25391V16.9206C26.6667 18.0251 27.5621 18.9206 28.6667 18.9206C29.7712 18.9206 30.6667 18.0251 30.6667 16.9206V14.9206H33.3333V16.9206C33.3333 18.0251 34.2288 18.9206 35.3333 18.9206C36.4379 18.9206 37.3333 18.0251 37.3333 16.9206V8.25391Z" fill="#2D373D"/>
<path d="M29.6667 30.9206C29.6667 29.816 28.7712 28.9206 27.6667 28.9206C26.5621 28.9206 25.6667 29.816 25.6667 30.9206V33.5872C25.6667 34.6918 26.5621 35.5872 27.6667 35.5872C28.7712 35.5872 29.6667 34.6918 29.6667 33.5872V30.9206Z" fill="#2D373D"/>
<path d="M38.3333 30.9206C38.3333 29.816 37.4379 28.9206 36.3333 28.9206C35.2288 28.9206 34.3333 29.816 34.3333 30.9206V33.5872C34.3333 34.6918 35.2288 35.5872 36.3333 35.5872C37.4379 35.5872 38.3333 34.6918 38.3333 33.5872V30.9206Z" fill="#2D373D"/>
<path d="M36.3333 37.5872C37.4379 37.5872 38.3333 38.4827 38.3333 39.5872V42.2539C38.3333 43.3585 37.4379 44.2539 36.3333 44.2539C35.2288 44.2539 34.3333 43.3585 34.3333 42.2539V39.5872C34.3333 38.4827 35.2288 37.5872 36.3333 37.5872Z" fill="#2D373D"/>
<path d="M47 30.9206C47 29.816 46.1046 28.9206 45 28.9206C43.8954 28.9206 43 29.816 43 30.9206V33.5872C43 34.6918 43.8954 35.5872 45 35.5872C46.1046 35.5872 47 34.6918 47 33.5872V30.9206Z" fill="#2D373D"/>
<path d="M45 37.5872C46.1046 37.5872 47 38.4827 47 39.5872V42.2539C47 43.3585 46.1046 44.2539 45 44.2539C43.8954 44.2539 43 43.3585 43 42.2539V39.5872C43 38.4827 43.8954 37.5872 45 37.5872Z" fill="#2D373D"/>
<path d="M47 48.2539C47 47.1493 46.1046 46.2539 45 46.2539C43.8954 46.2539 43 47.1493 43 48.2539V50.9206C43 52.0251 43.8954 52.9206 45 52.9206C46.1046 52.9206 47 52.0251 47 50.9206V48.2539Z" fill="#2D373D"/>
<path d="M27.6667 37.5872C28.7712 37.5872 29.6667 38.4827 29.6667 39.5872V42.2539C29.6667 43.3585 28.7712 44.2539 27.6667 44.2539C26.5621 44.2539 25.6667 43.3585 25.6667 42.2539V39.5872C25.6667 38.4827 26.5621 37.5872 27.6667 37.5872Z" fill="#2D373D"/>
<path d="M21 30.9206C21 29.816 20.1046 28.9206 19 28.9206C17.8954 28.9206 17 29.816 17 30.9206V33.5872C17 34.6918 17.8954 35.5872 19 35.5872C20.1046 35.5872 21 34.6918 21 33.5872V30.9206Z" fill="#2D373D"/>
<path d="M19 37.5872C20.1046 37.5872 21 38.4827 21 39.5872V42.2539C21 43.3585 20.1046 44.2539 19 44.2539C17.8954 44.2539 17 43.3585 17 42.2539V39.5872C17 38.4827 17.8954 37.5872 19 37.5872Z" fill="#2D373D"/>
<path d="M21 48.2539C21 47.1493 20.1046 46.2539 19 46.2539C17.8954 46.2539 17 47.1493 17 48.2539V50.9206C17 52.0251 17.8954 52.9206 19 52.9206C20.1046 52.9206 21 52.0251 21 50.9206V48.2539Z" fill="#2D373D"/>
<path fill-rule="evenodd" clip-rule="evenodd" d="M15.8265 22.9206L17.6043 14.9201H22.6666C23.7712 14.9201 24.6666 14.0247 24.6666 12.9201C24.6666 11.8156 23.7712 10.9201 22.6666 10.9201H16C15.0626 10.9201 14.251 11.5712 14.0476 12.4863L11.7289 22.9206H10C8.89543 22.9206 8 23.816 8 24.9206C8 26.0251 8.89543 26.9206 10 26.9206H11.3333V57.5872C11.3333 58.6918 12.2288 59.5872 13.3333 59.5872H50.6667C51.7712 59.5872 52.6667 58.6918 52.6667 57.5872V26.9206H54C55.1046 26.9206 56 26.0251 56 24.9206C56 23.816 55.1046 22.9206 54 22.9206H52.2711L49.9524 12.4863C49.749 11.5712 48.9374 10.9201 48 10.9201H41.3333C40.2287 10.9201 39.3333 11.8156 39.3333 12.9201C39.3333 14.0247 40.2287 14.9201 41.3333 14.9201H46.3956L48.1735 22.9206H15.8265ZM34.6667 55.5872H29.3333V51.5872C29.3333 51.219 29.6318 50.9206 30 50.9206H34C34.3682 50.9206 34.6667 51.219 34.6667 51.5872V55.5872ZM38.6667 51.5872V55.5872H48.6667V26.9206H15.3333V55.5872H25.3333V51.5872C25.3333 49.0099 27.4227 46.9206 30 46.9206H34C36.5773 46.9206 38.6667 49.0099 38.6667 51.5872Z" fill="#2D373D"/>
</svg>
