<svg width="16" height="17" viewBox="0 0 16 17" fill="none" xmlns="http://www.w3.org/2000/svg">
<path d="M7.5002 8.36133C7.7502 8.21133 7.8502 7.91133 7.7002 7.66133C7.3002 6.96133 6.6502 6.41133 5.8502 6.21133H5.8002C6.5002 5.91133 7.0002 5.21133 7.0502 4.36133C7.0502 3.26133 6.1502 2.36133 5.0502 2.36133C3.9502 2.36133 3.0502 3.26133 3.0502 4.36133C3.0502 5.21133 3.5502 5.91133 4.3002 6.21133C4.0002 6.26133 3.7502 6.36133 3.5002 6.51133C2.5502 7.06133 1.9502 8.06133 1.9502 9.16133V10.2613C1.9502 10.5613 2.1502 10.7613 2.4502 10.7613H3.1502L3.4502 14.0113C3.5002 14.2613 3.7002 14.4613 3.9502 14.4613H6.1502C6.4002 14.4613 6.60019 14.2613 6.60019 14.0113L6.7502 12.4113C6.8002 12.1113 6.5502 11.9113 6.3002 11.8613C6.0002 11.8613 5.8002 12.0613 5.7502 12.3113L5.6502 13.4613H4.3502L4.0502 10.2113C4.0002 9.96133 3.8002 9.76133 3.5502 9.76133H2.9502V9.16133C2.9502 8.46133 3.3502 7.76133 3.9502 7.41133C4.1502 7.31133 4.3502 7.21133 4.5502 7.16133V9.06133C4.5502 9.36133 4.7502 9.56133 5.0502 9.56133C5.3002 9.56133 5.5502 9.36133 5.5502 9.06133V7.21133C6.0502 7.36133 6.5502 7.66133 6.8002 8.16133C6.9502 8.41133 7.2502 8.51133 7.5002 8.36133ZM5.0502 5.41133C4.5002 5.41133 4.0502 4.96133 4.0502 4.41133C4.0502 3.86133 4.5002 3.41133 5.0502 3.41133C5.5502 3.41133 6.0502 3.86133 6.0502 4.41133C6.0502 4.96133 5.6002 5.41133 5.0502 5.41133Z" fill="#2D373D"/>
<path d="M10.5501 7.56128C8.6501 7.56128 7.1001 9.11128 7.1001 11.0113C7.1001 12.9113 8.6501 14.4613 10.5501 14.4613C12.4501 14.4613 14.0001 12.9113 14.0001 11.0113C14.0001 9.11128 12.4501 7.56128 10.5501 7.56128ZM10.5501 13.4613C9.2001 13.4613 8.1001 12.3613 8.1001 11.0113C8.1001 9.66128 9.2001 8.56128 10.5501 8.56128C11.9001 8.56128 13.0001 9.66128 13.0001 11.0113C13.0001 12.3613 11.9001 13.4613 10.5501 13.4613Z" fill="#2D373D"/>
<path d="M10.5503 10.5114C10.2503 10.5114 10.0503 10.7114 10.0503 11.0114V12.5114C10.0503 12.8114 10.2503 13.0114 10.5503 13.0114C10.8503 13.0114 11.0503 12.7614 11.0503 12.5114V11.0114C11.0503 10.7114 10.8503 10.5114 10.5503 10.5114Z" fill="#2D373D"/>
<path d="M10.8501 9.5613C10.8001 9.5113 10.8001 9.5113 10.8001 9.5113H10.7001C10.6501 9.5113 10.6501 9.4613 10.6501 9.4613C10.6501 9.4613 10.6001 9.4613 10.5501 9.4613C10.4501 9.4613 10.3501 9.5113 10.2501 9.6113C10.1501 9.7113 10.1001 9.8113 10.1001 9.9113C10.1001 10.0113 10.1501 10.1113 10.2501 10.2113C10.3501 10.3113 10.4501 10.3613 10.5501 10.3613C10.6501 10.3613 10.7501 10.3113 10.8501 10.2113C10.9501 10.1113 11.0001 10.0113 11.0001 9.9113C10.9501 9.7113 10.9001 9.6113 10.8501 9.5613Z" fill="#2D373D"/>
</svg>
