<svg width="24" height="25" viewBox="0 0 24 25" fill="none" xmlns="http://www.w3.org/2000/svg">
<path fill-rule="evenodd" clip-rule="evenodd" d="M9.25 19.096L9.24269 19.0959L9.24 19.0959C9.01275 19.0949 8.77713 19.0548 8.56 18.9659L4.16 17.2059C3.82 17.0659 3.53 16.8359 3.32 16.5259C3.11 16.2159 3 15.8559 3 15.4859V4.94594C3 4.73594 3.05 4.52594 3.15 4.33594C3.25 4.14594 3.39 3.98594 3.57 3.86594C3.74 3.74594 3.95 3.67594 4.16 3.64594C4.37 3.62594 4.59 3.64594 4.79 3.73594L9.12 5.46594C9.2 5.49594 9.3 5.49594 9.38 5.46594L14.06 3.59594C14.5 3.41594 14.99 3.41594 15.43 3.59594L19.83 5.35594C20.17 5.49594 20.47 5.72594 20.67 6.03594C20.88 6.33594 20.99 6.69594 20.99 7.07594V10.2659C20.99 10.6759 20.65 11.0159 20.24 11.0159C19.83 11.0159 19.49 10.6759 19.49 10.2659V7.07594C19.49 7.00594 19.47 6.93594 19.43 6.88594C19.39 6.82594 19.33 6.78594 19.27 6.75594L15.5 5.24794V9.71594C15.5 10.1259 15.16 10.4659 14.75 10.4659C14.34 10.4659 14 10.1259 14 9.71594V5.23968L10 6.83797V17.3291L11.49 16.7359C11.88 16.5859 12.31 16.7659 12.46 17.1559C12.61 17.5359 12.43 17.9759 12.04 18.1259L9.93 18.9659C9.71852 19.0525 9.4978 19.0928 9.26785 19.0958L9.25 19.096ZM8.5 6.84581V17.3279L4.72 15.8159C4.65 15.7859 4.6 15.7459 4.56 15.6859C4.52 15.6259 4.5 15.5559 4.5 15.4859V5.23594L8.5 6.84581Z" fill="#2D373D"/>
<path d="M16.9502 16.311C17.5245 16.311 17.9902 15.8453 17.9902 15.271C17.9902 14.6966 17.5245 14.231 16.9502 14.231C16.3758 14.231 15.9102 14.6966 15.9102 15.271C15.9102 15.8453 16.3758 16.311 16.9502 16.311Z" fill="#2D373D"/>
<path fill-rule="evenodd" clip-rule="evenodd" d="M16.9504 21.466C16.7504 21.466 16.5504 21.416 16.3804 21.336C16.2104 21.256 16.0504 21.126 15.9304 20.976C14.5504 19.206 12.9004 16.786 12.9004 15.276C12.9004 14.196 13.3204 13.176 14.0904 12.416C14.8404 11.666 15.8904 11.226 16.9504 11.226C18.0104 11.226 19.0504 11.646 19.8104 12.416C20.5704 13.186 21.0004 14.196 21.0004 15.276C21.0004 16.786 19.3504 19.206 17.9704 20.976C17.8504 21.136 17.6904 21.266 17.5104 21.346C17.3404 21.426 17.1404 21.476 16.9404 21.476L16.9504 21.466ZM16.9504 12.726C16.2804 12.726 15.6204 12.996 15.1504 13.476C14.6804 13.956 14.4004 14.596 14.4004 15.276C14.4004 16.046 15.4004 17.826 16.9504 19.846C18.5004 17.826 19.5004 16.046 19.5004 15.276C19.5004 14.596 19.2404 13.956 18.7504 13.476C18.2804 13.006 17.6204 12.726 16.9504 12.726Z" fill="#2D373D"/>
</svg>
