<svg width="32" height="33" viewBox="0 0 32 33" fill="none" xmlns="http://www.w3.org/2000/svg">
<path fill-rule="evenodd" clip-rule="evenodd" d="M6.93373 13.7196H6.34029C5.04805 13.7196 4.00049 14.7672 4.00049 16.0595V26.582C4.00049 27.8743 5.04806 28.9219 6.3403 28.9219H8.66893C9.22275 28.9219 9.67171 28.4729 9.67171 27.9191C9.67171 27.3653 9.22275 26.9163 8.66893 26.9163H6.3403C6.15569 26.9163 6.00604 26.7667 6.00604 26.582V16.0595C6.00604 15.8749 6.15569 15.7252 6.34029 15.7252H19.7952C19.9798 15.7252 20.1294 15.8749 20.1294 16.0595V16.9219C20.1294 17.4757 20.5784 17.9247 21.1322 17.9247C21.686 17.9247 22.135 17.4757 22.135 16.9219V16.0595C22.135 14.7672 21.0874 13.7196 19.7952 13.7196H19.2032V11.0567C19.2032 7.66851 16.4566 4.92188 13.0684 4.92188C9.68034 4.92188 6.93373 7.66851 6.93373 11.0567L6.93373 13.7196ZM8.93928 13.7196H17.1976V11.0567C17.1976 8.77616 15.3489 6.92745 13.0684 6.92745C10.788 6.92745 8.93928 8.77616 8.93928 11.0567L8.93928 13.7196Z" fill="#2D373D"/>
<path d="M16.9704 22.2177C17.2342 21.9594 17.6574 21.9639 17.9158 22.2277L18.6977 23.0263L19.5235 22.2177C19.7873 21.9594 20.2105 21.9639 20.4688 22.2277C20.7272 22.4915 20.7227 22.9147 20.4589 23.1731L19.6332 23.9816L20.3774 24.7417C20.6357 25.0055 20.6312 25.4287 20.3674 25.687C20.1036 25.9454 19.6804 25.9409 19.4221 25.6771L18.6779 24.9171L17.945 25.6347C17.6812 25.893 17.2579 25.8886 16.9996 25.6248C16.7413 25.361 16.7457 24.9377 17.0095 24.6794L17.7424 23.9617L16.9604 23.1631C16.7021 22.8993 16.7066 22.476 16.9704 22.2177Z" fill="#2D373D"/>
<path fill-rule="evenodd" clip-rule="evenodd" d="M14.6261 18.6684C11.7947 18.6684 9.49942 20.9637 9.49942 23.7951C9.49942 26.6265 11.7947 28.9219 14.6261 28.9219H22.8738C25.7052 28.9219 28.0005 26.6265 28.0005 23.7951C28.0005 20.9637 25.7052 18.6684 22.8738 18.6684H14.6261ZM11.505 23.7951C11.505 22.0713 12.9024 20.674 14.6261 20.674H22.8738C24.5976 20.674 25.9949 22.0713 25.9949 23.7951C25.9949 25.5189 24.5976 26.9163 22.8738 26.9163H14.6261C12.9024 26.9163 11.505 25.5189 11.505 23.7951Z" fill="#2D373D"/>
</svg>
