<svg width="32" height="33" viewBox="0 0 32 33" fill="none" xmlns="http://www.w3.org/2000/svg">
<path fill-rule="evenodd" clip-rule="evenodd" d="M5.6665 12.1245C5.6665 11.5722 6.11422 11.1245 6.6665 11.1245H25.3332C25.8855 11.1245 26.3332 11.5722 26.3332 12.1245V28.9245C26.3332 29.4768 25.8855 29.9245 25.3332 29.9245H6.6665C6.11422 29.9245 5.6665 29.4768 5.6665 28.9245V12.1245ZM7.6665 13.1245V27.9245H24.3332V13.1245H7.6665Z" fill="#2D373D"/>
<path fill-rule="evenodd" clip-rule="evenodd" d="M15.9998 7.25781C14.0012 7.25781 12.3332 8.93239 12.3332 11.0578C12.3332 11.4078 12.3786 11.7451 12.463 12.0646L10.5294 12.5756C10.4012 12.0906 10.3332 11.5815 10.3332 11.0578C10.3332 7.8813 12.8439 5.25781 15.9998 5.25781C19.1558 5.25781 21.6665 7.8813 21.6665 11.0578C21.6665 11.5815 21.5985 12.0906 21.4703 12.5756L19.5367 12.0646C19.6211 11.7451 19.6665 11.4078 19.6665 11.0578C19.6665 8.93239 17.9985 7.25781 15.9998 7.25781Z" fill="#2D373D"/>
<path d="M18.3332 19.3245C18.3332 20.65 17.2885 21.7245 15.9998 21.7245C14.7112 21.7245 13.6665 20.65 13.6665 19.3245C13.6665 17.999 14.7112 16.9245 15.9998 16.9245C17.2885 16.9245 18.3332 17.999 18.3332 19.3245Z" fill="#2D373D"/>
</svg>
