<svg width="32" height="33" viewBox="0 0 32 33" fill="none" xmlns="http://www.w3.org/2000/svg">
<path d="M7.6998 16.9235C8.4998 16.9235 9.0998 16.3235 9.0998 15.5235C9.0998 14.7235 8.4998 14.1235 7.6998 14.1235C6.8998 14.1235 6.2998 14.7235 6.2998 15.5235C6.2998 16.3235 6.8998 16.9235 7.6998 16.9235Z" fill="#2D373D"/>
<path d="M24.2994 25.2233C25.0994 25.2233 25.6994 24.6233 25.6994 23.8233C25.6994 23.0233 25.0994 22.4233 24.2994 22.4233C23.4994 22.4233 22.8994 23.0233 22.8994 23.8233C22.8994 24.6233 23.4994 25.2233 24.2994 25.2233Z" fill="#2D373D"/>
<path d="M28.3996 10.4233H3.59961C2.99961 10.4233 2.59961 10.8233 2.59961 11.4233V27.9233C2.59961 28.5233 2.99961 28.9233 3.59961 28.9233H28.3996C28.9996 28.9233 29.3996 28.5233 29.3996 27.9233V11.4233C29.3996 10.8233 28.9996 10.4233 28.3996 10.4233ZM27.3996 26.9233H4.59961V12.4233H27.3996V26.9233Z" fill="#2D373D"/>
<path d="M15.9992 24.0233C18.3992 24.0233 20.2992 22.0233 20.2992 19.7233C20.2992 17.3233 18.3992 15.4233 15.9992 15.4233C13.5992 15.4233 11.6992 17.3233 11.6992 19.7233C11.6992 22.1233 13.5992 24.0233 15.9992 24.0233ZM15.9992 17.3233C17.2992 17.3233 18.2992 18.3233 18.2992 19.6233C18.2992 20.9233 17.2992 21.9233 15.9992 21.9233C14.6992 21.9233 13.6992 20.9233 13.6992 19.6233C13.6992 18.3233 14.6992 17.3233 15.9992 17.3233Z" fill="#2D373D"/>
<path d="M5.2998 8.92358H26.7998C27.2998 8.92358 27.7998 8.52358 27.7998 7.92358C27.7998 7.32358 27.3998 6.92358 26.7998 6.92358H5.2998C4.6998 6.92358 4.2998 7.32358 4.2998 7.92358C4.2998 8.52358 4.6998 8.92358 5.2998 8.92358Z" fill="#2D373D"/>
<path d="M8.59961 5.52344H23.3996C23.9996 5.52344 24.4996 5.12344 24.4996 4.52344C24.4996 3.92344 24.0996 3.52344 23.4996 3.52344H8.59961C7.99961 3.52344 7.59961 3.92344 7.59961 4.52344C7.59961 5.12344 7.99961 5.52344 8.59961 5.52344Z" fill="#2D373D"/>
</svg>
