<svg width="32" height="32" viewBox="0 0 32 32" fill="none" xmlns="http://www.w3.org/2000/svg">
<path fill-rule="evenodd" clip-rule="evenodd" d="M19.2732 4.00524C18.6439 3.41555 17.8365 2.9398 16.9337 2.75201C15.4468 2.44273 13.8596 2.94909 12.611 4.61384L12.6071 4.619C11.9014 5.57276 11.7638 6.62578 12.0075 7.65872C12.2396 8.64214 12.8111 9.59452 13.4898 10.4797C14.4975 11.794 15.9167 13.1708 17.2634 14.4771C17.7116 14.9119 18.1518 15.3388 18.5661 15.7531C18.7536 15.9407 19.008 16.046 19.2732 16.046C19.5384 16.046 19.7928 15.9407 19.9803 15.7531C20.3946 15.3388 20.8347 14.9119 21.2829 14.4771C22.6297 13.1707 24.0489 11.794 25.0566 10.4797C25.7352 9.59452 26.3067 8.64214 26.5388 7.65872C26.7826 6.62579 26.645 5.57276 25.9392 4.619L25.9354 4.61384C24.6868 2.94909 23.0996 2.44273 21.6127 2.75201C20.7099 2.9398 19.9025 3.41555 19.2732 4.00524ZM14.213 5.81114C13.8996 6.23594 13.8291 6.66991 13.9541 7.19931C14.0909 7.77925 14.466 8.46593 15.077 9.26287C15.9873 10.4502 17.2452 11.6709 18.5596 12.9463C18.7962 13.1759 19.0346 13.4073 19.2732 13.6405C19.5117 13.4073 19.7502 13.1759 19.9868 12.9463C21.3011 11.6709 22.5591 10.4502 23.4694 9.26287C24.0804 8.46593 24.4554 7.77925 24.5923 7.19931C24.7173 6.66989 24.6467 6.2359 24.3333 5.81109C23.5135 4.71967 22.6877 4.5712 22.02 4.7101C21.2532 4.86958 20.5195 5.45144 20.1212 6.08868C19.9384 6.38106 19.618 6.55868 19.2732 6.55868C18.9284 6.55868 18.6079 6.38106 18.4252 6.08868C18.0269 5.45144 17.2931 4.86958 16.5264 4.7101C15.8586 4.5712 15.0328 4.71967 14.213 5.81114Z" fill="#2D373D"/>
<path fill-rule="evenodd" clip-rule="evenodd" d="M12.2174 18.8883C11.1927 18.8699 10.1861 19.1587 9.32699 19.7175L9.32517 19.7187L5.93313 21.9144L7.07719 25.9136L13.2142 26.3674C13.2246 26.3682 13.235 26.3691 13.2454 26.3702C13.7066 26.4189 14.1943 26.3083 14.7467 26.0599C15.2898 25.8157 15.8213 25.4746 16.4058 25.0994C16.4273 25.0856 16.4489 25.0718 16.4705 25.0579L16.4721 25.0569L22.4362 21.1961C22.6727 21.043 22.8388 20.8022 22.8978 20.5266C22.9568 20.2511 22.9039 19.9634 22.7507 19.7268C22.5976 19.4902 22.3568 19.3242 22.0812 19.2652C21.8057 19.2062 21.518 19.2591 21.2814 19.4122L21.2785 19.4141L16.7939 22.2951C16.7531 22.3213 16.7112 22.3441 16.6683 22.3637C16.3145 22.572 15.918 22.7051 15.5034 22.7505C15.4672 22.7545 15.4308 22.7565 15.3944 22.7565H11.7501C11.1978 22.7565 10.7501 22.3088 10.7501 21.7565C10.7501 21.2042 11.1978 20.7565 11.7501 20.7565H15.3298C15.5365 20.7236 15.7264 20.6216 15.868 20.4663C16.0197 20.3 16.1056 20.0841 16.1095 19.8591L16.1101 19.8395C16.1147 19.7133 16.0931 19.5876 16.0467 19.4703C16.0002 19.3529 15.9299 19.2465 15.8401 19.1577C15.7504 19.069 15.6432 18.9999 15.5253 18.9547C15.4074 18.9096 15.2815 18.8894 15.1554 18.8955C15.1383 18.8964 15.1213 18.8968 15.1042 18.8967L12.2174 18.8883ZM18.0297 19.124C17.9978 18.9916 17.9566 18.8612 17.9062 18.734C17.7578 18.3591 17.5331 18.0191 17.2463 17.7356C16.9596 17.4521 16.6171 17.2312 16.2405 17.087C15.8728 16.9462 15.4804 16.8815 15.0871 16.8966L12.2454 16.8885C10.8246 16.8646 9.42888 17.2656 8.23742 18.0403L5.35806 19.9042L5.2112 19.3909C5.0593 18.8599 4.50571 18.5526 3.97473 18.7045C3.44374 18.8564 3.13644 19.41 3.28834 19.941L5.76786 28.6083C5.91976 29.1393 6.47335 29.4466 7.00433 29.2947C7.53532 29.1428 7.84262 28.5892 7.69072 28.0582L7.66331 27.9624L13.0521 28.3609C13.9834 28.4553 14.8338 28.2136 15.5669 27.8839C16.25 27.5768 16.8967 27.1613 17.448 26.807C17.4831 26.7845 17.5177 26.7623 17.552 26.7403L17.5554 26.7381L23.523 22.8751C24.2049 22.4337 24.6834 21.7395 24.8535 20.9453C25.0235 20.1511 24.8711 19.3218 24.4297 18.64C23.9883 17.9581 23.2941 17.4796 22.4999 17.3095C21.7063 17.1396 20.8778 17.2917 20.1962 17.7323L20.1946 17.7333L18.0297 19.124Z" fill="#2D373D"/>
</svg>
