<svg width="24" height="25" viewBox="0 0 24 25" fill="none" xmlns="http://www.w3.org/2000/svg">
<path d="M9.97481 9.38672V5.78672C9.97481 4.43672 8.92481 3.38672 7.57481 3.38672C6.22481 3.38672 5.17481 4.43672 5.17481 5.78672V9.38672C3.7498 11.0367 2.9998 13.0617 2.9248 15.2367C2.9248 17.2617 3.6748 19.2117 4.9498 20.7867C5.2498 21.2367 5.77481 21.4617 6.3748 21.4617H8.69981C9.29981 21.4617 9.82481 21.2367 10.1998 20.7867C11.4748 19.2117 12.2248 17.1867 12.2248 15.1617C12.1498 13.0617 11.3248 11.0367 9.97481 9.38672ZM6.6748 8.93672V8.18672H8.47481V8.93672H6.6748ZM7.57481 4.88672C8.02481 4.88672 8.47481 5.26172 8.47481 5.78672V6.68672H6.6748V5.78672C6.6748 5.26172 7.04981 4.88672 7.57481 4.88672ZM8.99981 19.8867C8.92481 19.9617 8.77481 20.0367 8.69981 20.0367H6.3748C6.22481 20.0367 6.14981 19.9617 6.07481 19.8867C5.02481 18.5367 4.4248 16.8867 4.4248 15.2367C4.4998 13.4367 5.0998 11.7867 6.22481 10.4367H8.84981C9.97481 11.7867 10.6498 13.4367 10.7248 15.2367C10.6498 16.8867 10.0498 18.5367 8.99981 19.8867Z" fill="#2D373D"/>
<path d="M20.6248 13.1367C20.0248 11.5617 18.8998 10.2867 17.3998 9.53672C15.6748 8.71172 13.6498 8.71172 11.9248 9.53672C11.5498 9.68672 11.3998 10.1367 11.5498 10.5117C11.6998 10.8867 12.1498 11.0367 12.5248 10.8867C13.8748 10.2117 15.3748 10.2117 16.7248 10.8867C17.8498 11.4867 18.6748 12.4617 19.1248 13.6617C19.5748 14.8617 19.4248 16.2117 18.8998 17.3367C17.7748 19.6617 14.9248 20.6367 12.5248 19.5117C12.1498 19.3617 11.6998 19.5117 11.5498 19.8867C11.3998 20.2617 11.5498 20.7117 11.9248 20.8617C12.8248 21.2367 13.7998 21.4617 14.6998 21.4617C17.0248 21.4617 19.2748 20.1867 20.3248 17.9367C21.0748 16.4367 21.1498 14.7117 20.6248 13.1367Z" fill="#2D373D"/>
<path d="M14.475 14.1117C14.4 14.1867 14.325 14.2617 14.25 14.3367C14.1 14.4867 14.025 14.6367 14.025 14.9367C14.025 15.3867 14.325 15.7617 14.775 15.9117C14.85 15.9867 15 15.9867 15.075 15.9867C15.675 15.9867 16.125 15.4617 16.125 14.9367C16.125 14.7867 16.125 14.7117 16.05 14.6367C15.975 14.4117 15.825 14.2617 15.675 14.1117C15.525 13.9617 15.375 13.8867 15.15 13.8867C14.775 13.8867 14.625 13.9617 14.475 14.1117Z" fill="#2D373D"/>
<path d="M18.5997 13.8118C18.5247 13.7368 18.4497 13.6618 18.3747 13.5868C18.2247 13.4368 18.0747 13.3618 17.8497 13.3618C17.8497 13.3618 17.8497 13.3618 17.7747 13.3618C17.5497 13.3618 17.3247 13.4368 17.2497 13.5868C17.1747 13.6618 17.1747 13.6618 17.0997 13.7368C16.8747 13.8868 16.7247 14.1118 16.7247 14.3368C16.7247 14.7868 17.0247 15.1618 17.4747 15.3118C17.5497 15.3868 17.6997 15.3868 17.7747 15.3868C17.8497 15.3868 17.9997 15.3868 18.0747 15.3118C18.3747 15.2368 18.5997 15.0118 18.7497 14.7118C18.8247 14.6368 18.8247 14.5618 18.8247 14.4118C18.8247 14.4118 18.8247 14.4118 18.8247 14.3368C18.8247 14.1118 18.7497 13.9618 18.5997 13.8118Z" fill="#2D373D"/>
<path d="M15.2999 13.2116C15.3749 13.2866 15.5249 13.2866 15.5999 13.2866C16.1249 13.2866 16.5749 12.8366 16.6499 12.2366C16.6499 12.0116 16.5749 11.7866 16.4249 11.6366C16.3499 11.5616 16.2749 11.4866 16.1999 11.4116C16.0499 11.2616 15.8999 11.1866 15.6749 11.1866C15.6749 11.1866 15.6749 11.1866 15.5999 11.1866C15.3749 11.1866 15.1499 11.2616 15.0749 11.4116C14.9249 11.5616 14.7749 11.7116 14.6999 11.9366C14.6249 12.0116 14.6249 12.1616 14.6249 12.2366C14.6249 12.3116 14.6249 12.4616 14.6999 12.5366C14.6999 12.8366 14.9999 13.0616 15.2999 13.2116Z" fill="#2D373D"/>
</svg>
