<svg width="24" height="25" viewBox="0 0 24 25" fill="none" xmlns="http://www.w3.org/2000/svg">
<path d="M15.675 12.173H12.75V9.17297C12.75 8.72297 12.45 8.42297 12 8.42297C11.55 8.42297 11.25 8.72297 11.25 9.17297V12.173H8.25C7.8 12.173 7.5 12.473 7.5 12.923C7.5 13.373 7.8 13.673 8.25 13.673H11.25V16.673C11.25 17.123 11.55 17.423 12 17.423C12.45 17.423 12.75 17.048 12.75 16.598V13.673H15.75C16.125 13.673 16.425 13.373 16.425 12.923C16.425 12.473 16.125 12.173 15.675 12.173Z" fill="#2D373D"/>
<path d="M11.9997 2.87305C6.44971 2.87305 1.94971 7.37305 1.94971 12.848C1.94971 12.923 1.94971 12.923 1.94971 12.923C1.94971 15.623 2.99971 18.098 4.87471 20.048C6.82471 21.923 9.29971 22.973 11.9997 22.973C17.5497 22.973 22.0497 18.473 22.0497 12.923C22.0497 7.37305 17.5497 2.87305 11.9997 2.87305ZM11.9997 21.473C9.67471 21.473 7.57471 20.648 5.92471 18.998C4.34971 17.423 3.44971 15.248 3.44971 12.998C3.44971 8.19805 7.27471 4.37305 11.9997 4.37305C16.7247 4.37305 20.5497 8.19805 20.5497 12.923C20.5497 17.648 16.7247 21.473 11.9997 21.473Z" fill="#2D373D"/>
</svg>
