<svg width="16" height="16" viewBox="0 0 16 16" fill="none" xmlns="http://www.w3.org/2000/svg">
<path d="M14.1503 2.64971H11.1003V2.44971C11.1003 2.14971 10.9003 1.94971 10.6003 1.94971C10.3003 1.94971 10.1003 2.14971 10.1003 2.44971V2.64971H5.85029V2.44971C5.85029 2.14971 5.65029 1.94971 5.35029 1.94971C5.05029 1.94971 4.85029 2.14971 4.85029 2.44971V2.64971H1.80029C1.50029 2.64971 1.30029 2.84971 1.30029 3.14971V12.8497C1.30029 13.1497 1.50029 13.3497 1.80029 13.3497H14.1503C14.4503 13.3497 14.6503 13.1497 14.6503 12.8997V3.14971C14.6503 2.84971 14.4503 2.64971 14.1503 2.64971ZM4.85029 3.64971V3.79971C4.85029 4.09971 5.05029 4.29971 5.35029 4.29971C5.65029 4.29971 5.85029 4.09971 5.85029 3.79971V3.64971H10.1003V3.79971C10.1003 4.09971 10.3003 4.29971 10.6003 4.29971C10.9003 4.29971 11.1003 4.09971 11.1003 3.79971V3.64971H13.6503V5.64971H2.30029V3.64971H4.85029ZM2.30029 12.3497V6.64971H13.6503V12.3497H2.30029Z" fill="#2D373D"/>
<path fill-rule="evenodd" clip-rule="evenodd" d="M8.01124 7.3665C8.28738 7.3665 8.51124 7.59036 8.51124 7.8665V11.1554C8.51124 11.4315 8.28738 11.6554 8.01124 11.6554C7.73509 11.6554 7.51124 11.4315 7.51124 11.1554V7.8665C7.51124 7.59036 7.73509 7.3665 8.01124 7.3665Z" fill="#2D373D"/>
<path fill-rule="evenodd" clip-rule="evenodd" d="M5.86683 9.51095C5.86683 9.23481 6.09068 9.01095 6.36683 9.01095H9.65571C9.93186 9.01095 10.1557 9.23481 10.1557 9.51095C10.1557 9.78709 9.93186 10.0109 9.65571 10.0109H6.36683C6.09068 10.0109 5.86683 9.78709 5.86683 9.51095Z" fill="#2D373D"/>
</svg>
