<svg width="16" height="16" viewBox="0 0 16 16" fill="none" xmlns="http://www.w3.org/2000/svg">
<path d="M13.3 13C12.65 13.1 12 12.85 11.5 12.4C11.4 12.3 11.3 12.25 11.15 12.25C11 12.25 10.9 12.3 10.8 12.4C10.8 12.4 10.75 12.45 10.7 12.5C10 13.15 8.90004 13.1 8.25004 12.4C8.20004 12.3 8.05004 12.25 7.90004 12.25C7.80004 12.25 7.65004 12.3 7.55004 12.4C7.55004 12.4 7.50004 12.45 7.45004 12.5C6.75004 13.15 5.65004 13.1 5.00004 12.4C4.90004 12.3 4.80004 12.25 4.65004 12.25C4.55004 12.25 4.40004 12.3 4.30004 12.4C3.80004 12.85 3.15004 13.1 2.50004 13C2.25004 13 2.00004 13.2 1.95004 13.45C1.90004 13.75 2.10004 14 2.40004 14.05C2.55004 14.05 2.65004 14.05 2.80004 14.05C3.45004 14.05 4.10004 13.85 4.50004 13.45C5.50004 14.2 6.85004 14.2 7.85004 13.45C8.25004 13.8 8.80004 13.95 9.35004 14C10 14.05 10.65 13.85 11.15 13.45C11.8 13.9 12.6 14.1 13.4 14C13.7 13.95 13.9 13.7 13.85 13.45C13.8 13.15 13.55 12.95 13.3 13Z" fill="#2D373D"/>
<path d="M13.95 10.65C13.9 10.4 13.7 10.25 13.5 10.15C13.4 10.1 13.25 10.1 13.15 10.1H8.05001V3.05001C8.05001 2.45001 7.55001 1.95001 6.95001 1.95001C6.60001 1.95001 6.30001 2.15001 6.05001 2.45001L2.75001 7.50001C2.50001 7.90001 2.60001 8.45001 3.00001 8.70001C3.15001 8.80001 3.30001 8.85001 3.50001 8.85001H7.10001V10.1H2.80001C2.60001 10.1 2.35001 10.2 2.20001 10.35C2.05001 10.5 1.95001 10.7 1.95001 10.95C1.95001 11.05 2.00001 11.2 2.05001 11.3C2.25001 11.8 2.60001 12.25 3.05001 12.6C3.15001 12.65 3.25001 12.7 3.35001 12.7C3.50001 12.7 3.65001 12.65 3.80001 12.55C3.95001 12.35 3.90001 12 3.70001 11.85C3.45001 11.65 3.20001 11.4 3.05001 11.1H13C12.85 11.3 12.7 11.5 12.5 11.7C12.3 11.9 12.25 12.2 12.45 12.4C12.65 12.6 12.95 12.65 13.15 12.45C13.45 12.1 13.75 11.75 13.95 11.3C14.05 11.1 14.05 10.85 13.95 10.65ZM3.75001 7.85001L6.90001 3.00001C6.90001 2.95001 6.95001 2.95001 7.00001 2.95001C7.05001 2.95001 7.10001 3.00001 7.10001 3.05001V7.85001H3.75001Z" fill="#2D373D"/>
<path d="M9.10004 9.60002H11.75C12.2 9.60002 12.6 9.20002 12.65 8.70002C12.65 8.55002 12.6 8.40002 12.5 8.25002L10.2 4.70002C9.95004 4.30002 9.40004 4.20002 9.00004 4.45002C8.75004 4.65002 8.60004 4.90002 8.60004 5.20002V9.10002C8.60004 9.40002 8.80004 9.60002 9.10004 9.60002ZM9.60004 5.65002L11.5 8.60002H9.60004V5.65002Z" fill="#2D373D"/>
</svg>
