<svg width="32" height="32" viewBox="0 0 32 32" fill="none" xmlns="http://www.w3.org/2000/svg">
<path d="M15.7765 4.7174C15.8575 4.68399 15.9447 4.66663 16.0332 4.66663C16.1217 4.66663 16.2089 4.68399 16.2899 4.7174C16.3708 4.75081 16.4434 4.79944 16.5038 4.85985L27.8304 16.0494C28.2233 16.4375 28.8565 16.4337 29.2446 16.0408C29.6327 15.6479 29.6289 15.0147 29.236 14.6266L17.9181 3.44565L17.9158 3.44331C17.6687 3.19684 17.3753 3.00175 17.0529 2.86868C16.7295 2.7352 16.383 2.66663 16.0332 2.66663C15.6834 2.66663 15.3369 2.7352 15.0135 2.86868C14.6911 3.00174 14.3978 3.19681 14.1507 3.44325L14.1483 3.44565L2.83041 14.6266C2.43752 15.0147 2.43367 15.6479 2.82181 16.0408C3.20995 16.4337 3.8431 16.4375 4.23599 16.0494L15.5582 4.86415L15.5625 4.85984C15.623 4.79942 15.6956 4.75081 15.7765 4.7174Z" fill="#2D373D"/>
<path fill-rule="evenodd" clip-rule="evenodd" d="M7.86654 16.9845C7.86654 16.4322 7.41882 15.9845 6.86654 15.9845C6.31425 15.9845 5.86654 16.4322 5.86654 16.9845V20.9542C4.84403 21.4006 3.88808 22.0023 3.03591 22.7459C2.61977 23.109 2.57678 23.7407 2.93988 24.1568C3.30299 24.573 3.93469 24.6159 4.35083 24.2528C6.00541 22.8091 8.14251 22.0166 10.3542 22.0296L10.36 22.0296C11.1817 22.0296 12.2575 22.3836 13.6784 22.9433C13.935 23.0443 14.2007 23.1511 14.4743 23.2611C15.6437 23.7312 16.9575 24.2593 18.3167 24.6443C20.0085 25.1234 21.8584 25.4099 23.7611 25.1038C25.6832 24.7945 27.5893 23.8916 29.3962 22.1065C29.7891 21.7184 29.7929 21.0852 29.4048 20.6923C29.0166 20.2994 28.3835 20.2956 27.9906 20.6837C27.3935 21.2736 26.7957 21.7395 26.1999 22.1025V16.9845C26.1999 16.4322 25.7522 15.9845 25.1999 15.9845C24.6476 15.9845 24.1999 16.4322 24.1999 16.9845V22.9673C23.9467 23.0354 23.6944 23.0888 23.4434 23.1292C22.1543 23.3366 20.8458 23.2087 19.5332 22.8955V19.4542C19.5332 18.7484 19.2493 18.0739 18.7478 17.5786C18.2468 17.0836 17.5699 16.8077 16.8665 16.8077H15.1999C14.4965 16.8077 13.8196 17.0836 13.3186 17.5786C12.8171 18.0739 12.5332 18.7484 12.5332 19.4542V20.4092C11.7855 20.1831 11.0502 20.03 10.3631 20.0296C9.51722 20.0248 8.6799 20.1167 7.86654 20.2996V16.9845ZM14.5332 21.1305C14.775 21.2263 15.0178 21.3238 15.2618 21.4218C16.0052 21.7203 16.7599 22.0234 17.5332 22.2954V19.4542C17.5332 19.2867 17.466 19.1236 17.3423 19.0014C17.2181 18.8788 17.0472 18.8077 16.8665 18.8077H15.1999C15.0192 18.8077 14.8483 18.8788 14.7241 19.0014C14.6004 19.1236 14.5332 19.2867 14.5332 19.4542V21.1305Z" fill="#2D373D"/>
<path d="M22.2135 5.30082C22.2135 4.74854 22.6613 4.30082 23.2135 4.30082H26.6543C27.2066 4.30082 27.6543 4.74854 27.6543 5.30082V8.7C27.6543 9.25228 27.2066 9.7 26.6543 9.7C26.1021 9.7 25.6543 9.25228 25.6543 8.7V6.30082H23.2135C22.6613 6.30082 22.2135 5.85311 22.2135 5.30082Z" fill="#2D373D"/>
<path d="M10.6107 26.1459C8.39902 26.1329 6.26192 26.9254 4.60734 28.3691C4.1912 28.7322 3.5595 28.6892 3.19639 28.2731C2.83329 27.8569 2.87628 27.2252 3.29243 26.8621C5.31579 25.0966 7.92427 24.1307 10.6196 24.1459C11.8805 24.1467 13.3035 24.6612 14.6679 25.1987C14.95 25.3098 15.2332 25.4235 15.5181 25.5379C16.6811 26.005 17.8717 26.4832 19.1182 26.8362C20.6556 27.2717 22.1911 27.4882 23.6999 27.2454C25.1893 27.0058 26.7207 26.3079 28.2471 24.8C28.64 24.4118 29.2731 24.4157 29.6613 24.8086C30.0494 25.2015 30.0456 25.8346 29.6527 26.2228C27.8458 28.0078 25.9397 28.9108 24.0176 29.22C22.1149 29.5262 20.265 29.2397 18.5732 28.7605C17.214 28.3756 15.9003 27.8475 14.7309 27.3774C14.4573 27.2674 14.1915 27.1606 13.9349 27.0595C12.5141 26.4998 11.4382 26.1459 10.6166 26.1459H10.6107Z" fill="#2D373D"/>
</svg>
