<svg width="24" height="25" viewBox="0 0 24 25" fill="none" xmlns="http://www.w3.org/2000/svg">
<path d="M21.9151 9.57352L21.5851 10.7635C21.4751 11.1635 21.0551 11.3935 20.6651 11.2835C20.2651 11.1735 20.0351 10.7635 20.1451 10.3635L20.4751 9.17352C20.5351 8.94352 20.4851 8.70352 20.3451 8.51352C20.2051 8.32352 19.9851 8.22352 19.7451 8.22352H4.25514C4.01514 8.22352 3.79514 8.32352 3.65514 8.51352C3.51514 8.70352 3.46514 8.94352 3.53514 9.17352L5.61514 16.4635C5.70514 16.7835 6.00514 17.0035 6.33514 17.0035H9.55514C9.97514 17.0035 10.3051 17.3435 10.3051 17.7535C10.3051 18.1635 9.97514 18.5035 9.55514 18.5035H6.33514C5.33514 18.5035 4.44514 17.8335 4.17514 16.8735L2.08514 9.58352C1.89514 8.90352 2.02514 8.18352 2.45514 7.61352C2.88514 7.04352 3.54514 6.71352 4.25514 6.71352H5.39514L8.70514 3.16352C8.99514 2.86352 9.46514 2.84352 9.76514 3.12352C10.0651 3.40352 10.0851 3.88352 9.80514 4.18352L7.44514 6.71352H16.5651L14.2051 4.18352C13.9251 3.88352 13.9451 3.40352 14.2451 3.12352C14.5451 2.84352 15.0251 2.85352 15.3051 3.16352L18.6151 6.71352H19.7451C20.4551 6.71352 21.1051 7.04352 21.5351 7.60352C21.9651 8.17352 22.1051 8.88352 21.9151 9.57352Z" fill="#2D373D"/>
<path d="M21.9551 17.7315C21.7451 19.6715 20.8351 21.4515 19.5251 22.5015C18.4151 23.2415 17.2551 22.8515 16.5051 22.3615C16.0451 22.6615 15.4451 22.9215 14.7951 22.9215C14.3851 22.9315 13.9451 22.8215 13.5251 22.5415C11.7351 21.1015 10.7151 18.3815 11.0651 16.0315C11.2851 14.5515 12.0251 13.4815 13.1551 13.0315C14.0851 12.6615 14.9951 12.7815 15.7551 13.1715V12.7115C15.7551 12.2915 16.0851 11.9615 16.5051 11.9615C16.9251 11.9615 17.2551 12.2915 17.2551 12.7115V14.7515C17.2551 15.0715 17.0451 15.3615 16.7351 15.4615C16.4351 15.5615 16.0951 15.4615 15.9051 15.2015C15.8651 15.1515 14.9351 13.9315 13.7151 14.4215C12.8851 14.7515 12.6351 15.7115 12.5551 16.2515C12.3151 17.8215 12.9551 20.1615 14.4151 21.3315C15.0551 21.7515 15.9651 20.8815 15.9751 20.8715C16.2651 20.5815 16.7451 20.5815 17.0351 20.8715C17.0351 20.8815 17.9451 21.7515 18.6451 21.2915C19.5851 20.5315 20.3051 19.0915 20.4651 17.5715C20.5851 16.4515 20.3851 15.4815 19.9251 14.9015C19.8751 14.8415 19.8351 14.7915 19.7851 14.7415C19.4851 14.4615 19.4651 13.9815 19.7551 13.6815C20.0351 13.3815 20.5151 13.3715 20.8151 13.6515C20.9151 13.7515 21.0051 13.8515 21.0851 13.9515C21.8151 14.8515 22.1251 16.1915 21.9551 17.7315Z" fill="#2D373D"/>
<path d="M20.0351 11.7822C20.0351 12.1922 19.9851 12.8622 19.5651 13.2822C19.1551 13.6922 18.4851 13.7522 18.0751 13.7422C17.8551 13.7422 17.6851 13.5722 17.6851 13.3522C17.6751 12.9422 17.7351 12.2822 18.1551 11.8622C18.5751 11.4422 19.2351 11.3822 19.6451 11.3922C19.8651 11.4022 20.0351 11.5622 20.0351 11.7822Z" fill="#2D373D"/>
</svg>
