<svg width="64" height="65" viewBox="0 0 64 65" fill="none" xmlns="http://www.w3.org/2000/svg">
<path fill-rule="evenodd" clip-rule="evenodd" d="M38.6667 29.5872C38.6667 33.2691 35.6819 36.2539 32 36.2539C28.3181 36.2539 25.3333 33.2691 25.3333 29.5872C25.3333 25.9053 29.3333 17.5872 32 17.5872C34.6667 17.5872 38.6667 25.9053 38.6667 29.5872ZM34.6667 29.5872C34.6667 31.06 33.4728 32.2539 32 32.2539C30.5272 32.2539 29.3333 31.06 29.3333 29.5872C29.3333 29.2692 29.4448 28.5144 29.8085 27.3819C30.1516 26.3132 30.644 25.1407 31.2083 24.0658C31.4769 23.5542 31.7447 23.0973 32 22.704C32.2553 23.0973 32.5231 23.5542 32.7917 24.0658C33.356 25.1407 33.8484 26.3132 34.1915 27.3819C34.5552 28.5144 34.6667 29.2692 34.6667 29.5872Z" fill="#2D373D"/>
<path fill-rule="evenodd" clip-rule="evenodd" d="M32.0001 6.25391C26.4641 6.25391 22.8422 7.11831 20.4446 8.17327C18.204 9.15913 17.1251 10.2803 16.6927 10.7298C16.6513 10.7728 16.6158 10.8097 16.5858 10.8397C16.2107 11.2148 16 11.7235 16 12.2539V43.5872C16 44.4051 16.4979 45.1405 17.2572 45.4442C17.8356 45.6755 18.5235 45.914 19.3333 46.1441V50.2539C19.3333 50.9226 19.6675 51.5471 20.2239 51.918C21.2119 52.5766 22.8461 53.1395 24.7517 53.5437C25.537 53.7103 26.4011 53.8567 27.3333 53.9727V57.597C27.3333 58.7016 28.2288 59.597 29.3333 59.597C30.4379 59.597 31.3333 58.7016 31.3333 57.597V54.2484C31.5534 54.252 31.7756 54.2539 32 54.2539C32.4276 54.2539 32.8476 54.2471 33.2593 54.2341V57.597C33.2593 58.7016 34.1547 59.597 35.2593 59.597C36.3638 59.597 37.2593 58.7016 37.2593 57.597V53.8936C37.9674 53.7927 38.6321 53.6744 39.2483 53.5437C41.1539 53.1395 42.7881 52.5766 43.7761 51.918C44.3325 51.5471 44.6667 50.9226 44.6667 50.2539V46.1441C45.4765 45.914 46.1644 45.6755 46.7428 45.4442C47.5021 45.1405 48 44.4051 48 43.5872V12.2539C48 11.7235 47.7893 11.2148 47.4142 10.8397C47.3844 10.8099 47.3493 10.7734 47.3082 10.7307C46.8758 10.2813 45.7961 9.15912 43.5555 8.17328C41.1579 7.11831 37.536 6.25391 32.0001 6.25391ZM23.3333 49.0029V46.9949C25.6427 47.3492 28.4991 47.5872 32.0001 47.5872C35.501 47.5872 38.3573 47.3493 40.6667 46.9949V49.0029C40.1322 49.2015 39.385 49.4257 38.4183 49.6308C36.7262 49.9897 34.5322 50.2539 32 50.2539C29.4678 50.2539 27.2738 49.9897 25.5817 49.6308C24.615 49.4257 23.8678 49.2015 23.3333 49.0029ZM20 42.1703V13.0917C20.409 12.7329 21.0363 12.283 22.0555 11.8345C23.8245 11.0562 26.8693 10.2539 32.0001 10.2539C37.1308 10.2539 40.1756 11.0562 41.9446 11.8345C42.9637 12.283 43.591 12.7328 44 13.0917V42.1703C41.7605 42.8589 37.9649 43.5872 32.0001 43.5872C26.0352 43.5872 22.2396 42.8589 20 42.1703Z" fill="#2D373D"/>
</svg>
