<svg width="32" height="32" viewBox="0 0 32 32" fill="none" xmlns="http://www.w3.org/2000/svg">
<path d="M26 4H17.71C17.1796 4 16.6709 4.21071 16.2958 4.58579C15.9207 4.96086 15.71 5.46957 15.71 6V16.49C15.71 17.0204 15.9207 17.5291 16.2958 17.9042C16.6709 18.2793 17.1796 18.49 17.71 18.49H26C26.5304 18.49 27.0392 18.2793 27.4142 17.9042C27.7893 17.5291 28 17.0204 28 16.49V6C28 5.46957 27.7893 4.96086 27.4142 4.58579C27.0392 4.21071 26.5304 4 26 4ZM17.73 16.49L17.71 6H26V16.47L17.73 16.49Z" fill="#2D373D"/>
<path d="M24.56 7.8C24.3304 7.66963 24.0585 7.63536 23.8037 7.70468C23.549 7.774 23.3319 7.94127 23.2 8.17L20.91 12.17L20.37 11.63C20.2923 11.4988 20.1857 11.3872 20.0582 11.3035C19.9308 11.2199 19.7859 11.1665 19.6346 11.1474C19.4834 11.1284 19.3297 11.1441 19.1855 11.1935C19.0413 11.2429 18.9103 11.3247 18.8025 11.4325C18.6947 11.5403 18.613 11.6713 18.5635 11.8155C18.5141 11.9597 18.4984 12.1133 18.5174 12.2646C18.5365 12.4159 18.5899 12.5608 18.6735 12.6882C18.7572 12.8157 18.8688 12.9223 19 13L20.47 14.47C20.6563 14.6547 20.9077 14.7589 21.17 14.76H21.31C21.4512 14.7371 21.5859 14.6843 21.7049 14.6049C21.824 14.5255 21.9246 14.4216 22 14.3L24.93 9.16C25.0604 8.93038 25.0947 8.65852 25.0253 8.40374C24.956 8.14895 24.7887 7.93192 24.56 7.8Z" fill="#2D373D"/>
<path d="M7.33001 19.8C7.19828 19.9303 7.09479 20.0863 7.02597 20.2584C6.95715 20.4304 6.92449 20.6148 6.93001 20.8C6.92567 20.9851 6.95887 21.1691 7.02762 21.341C7.09637 21.5128 7.19924 21.669 7.33001 21.8C7.58789 22.0523 7.93428 22.1935 8.29501 22.1935C8.65575 22.1935 9.00214 22.0523 9.26001 21.8C9.39213 21.6695 9.49653 21.5136 9.56698 21.3418C9.63743 21.17 9.67248 20.9857 9.67001 20.8C9.67266 20.6152 9.63868 20.4316 9.57002 20.26C9.50137 20.0884 9.39941 19.932 9.27001 19.8C9.00274 19.5396 8.64315 19.3958 8.27001 19.4C7.91683 19.4072 7.58006 19.5505 7.33001 19.8Z" fill="#2D373D"/>
<path d="M23.19 21.74C23.3221 21.6095 23.4265 21.4536 23.497 21.2818C23.5674 21.11 23.6025 20.9257 23.6 20.74C23.6055 20.5548 23.5729 20.3704 23.5041 20.1984C23.4352 20.0263 23.3317 19.8703 23.2 19.74C23.068 19.6106 22.9117 19.5086 22.74 19.44C22.5684 19.3713 22.3849 19.3374 22.2 19.34C21.8384 19.3426 21.4925 19.4881 21.2377 19.7448C20.983 20.0014 20.84 20.3484 20.84 20.71C20.8326 20.9819 20.9068 21.2498 21.0532 21.4791C21.1996 21.7083 21.4114 21.8884 21.6612 21.9961C21.911 22.1038 22.1873 22.1341 22.4545 22.0831C22.7217 22.0321 22.9674 21.9021 23.16 21.71L23.19 21.74Z" fill="#2D373D"/>
<path d="M25.53 19.4C25.2648 19.4 25.0104 19.5054 24.8229 19.6929C24.6354 19.8804 24.53 20.1348 24.53 20.4V22.6C24.5294 22.7224 24.483 22.8401 24.4 22.93C24.3128 23.0184 24.1942 23.0688 24.07 23.07H6.47001C6.40826 23.0711 6.34697 23.0592 6.29011 23.0351C6.23325 23.011 6.18211 22.9752 6.14001 22.93C6.09531 22.8875 6.05982 22.8363 6.03574 22.7795C6.01165 22.7228 5.99949 22.6617 6.00001 22.6V20.4C5.99734 20.1458 6.04543 19.8936 6.14148 19.6583C6.23752 19.4229 6.37958 19.2091 6.55933 19.0293C6.73909 18.8496 6.95291 18.7075 7.18828 18.6115C7.42365 18.5154 7.67582 18.4673 7.93001 18.47H13.8C14.0652 18.47 14.3196 18.3646 14.5071 18.1771C14.6947 17.9896 14.8 17.7352 14.8 17.47C14.8 17.2048 14.6947 16.9504 14.5071 16.7629C14.3196 16.5754 14.0652 16.47 13.8 16.47H8.74001L9.80001 14.11C9.88433 13.8818 10.0383 13.6859 10.24 13.55C10.4391 13.4093 10.6763 13.3326 10.92 13.33H13.8C14.0652 13.33 14.3196 13.2246 14.5071 13.0371C14.6947 12.8496 14.8 12.5952 14.8 12.33C14.8 12.0648 14.6947 11.8104 14.5071 11.6229C14.3196 11.4354 14.0652 11.33 13.8 11.33H10.92C10.2696 11.3312 9.63492 11.53 9.10001 11.9C8.59824 12.2641 8.21549 12.7687 8.00001 13.35L6.41001 16.77C5.94025 16.9715 5.51276 17.2599 5.15001 17.62C4.78426 17.9845 4.49432 18.4178 4.29694 18.895C4.09955 19.3721 3.99864 19.8836 4.00001 20.4V22.6C3.99933 22.9232 4.0626 23.2433 4.18617 23.5419C4.30974 23.8406 4.49117 24.1118 4.72001 24.34V25.52C4.71735 25.8464 4.77968 26.1701 4.90336 26.4722C5.02705 26.7743 5.20963 27.0487 5.44045 27.2796C5.67127 27.5104 5.94572 27.693 6.24782 27.8166C6.54991 27.9403 6.87359 28.0027 7.20001 28C7.85429 27.9974 8.48101 27.7363 8.94366 27.2736C9.4063 26.811 9.66738 26.1843 9.67001 25.53V25.07H20.87V25.53C20.8687 25.8539 20.9314 26.1749 21.0544 26.4745C21.1774 26.7741 21.3584 27.0465 21.587 27.276C21.8155 27.5054 22.0872 27.6875 22.3863 27.8118C22.6854 27.936 23.0061 28 23.33 28C23.6547 28.0013 23.9765 27.9383 24.2768 27.8147C24.5771 27.691 24.8499 27.5091 25.0795 27.2795C25.3091 27.0499 25.491 26.7771 25.6147 26.4768C25.7384 26.1765 25.8013 25.8547 25.8 25.53V24.35C26.0307 24.1231 26.2133 23.8522 26.337 23.5532C26.4607 23.2543 26.5229 22.9335 26.52 22.61V20.4C26.52 20.1365 26.416 19.8837 26.2307 19.6964C26.0453 19.5092 25.7935 19.4026 25.53 19.4ZM7.67001 25.53C7.67115 25.5918 7.65926 25.653 7.63514 25.7099C7.61102 25.7668 7.5752 25.8179 7.53001 25.86C7.44207 25.9467 7.32352 25.9953 7.20001 25.9953C7.0765 25.9953 6.95796 25.9467 6.87001 25.86C6.82482 25.8179 6.789 25.7668 6.76488 25.7099C6.74076 25.653 6.72888 25.5918 6.73001 25.53V25.07H7.67001V25.53ZM23.67 25.86C23.6057 25.9263 23.5229 25.9717 23.4324 25.9903C23.3419 26.0088 23.2479 25.9997 23.1626 25.9641C23.0774 25.9285 23.0048 25.868 22.9544 25.7906C22.904 25.7132 22.8781 25.6224 22.88 25.53V25.07H23.81V25.53C23.8099 25.5925 23.7964 25.6543 23.7706 25.7112C23.7447 25.7681 23.707 25.8188 23.66 25.86H23.67Z" fill="#2D373D"/>
</svg>
