<svg width="32" height="33" viewBox="0 0 32 33" fill="none" xmlns="http://www.w3.org/2000/svg">
<path d="M28.3002 12.9615H16.2002V9.76152C16.2002 6.06152 13.2002 3.06152 9.5002 3.06152H9.4002C5.6002 3.16152 2.7002 6.16152 2.7002 9.86152V13.9615C2.7002 14.5615 3.1002 14.9615 3.7002 14.9615C4.3002 14.9615 4.7002 14.5615 4.7002 13.9615V9.86152C4.7002 7.26152 6.8002 5.16152 9.4002 5.06152C12.0002 5.06152 14.2002 7.16152 14.2002 9.76152V12.9615H10.3002C9.7002 12.9615 9.3002 13.3615 9.3002 13.9615V28.7615C9.3002 29.3615 9.7002 29.7615 10.3002 29.7615H28.3002C28.9002 29.7615 29.3002 29.3615 29.3002 28.7615V13.9615C29.3002 13.3615 28.9002 12.9615 28.3002 12.9615ZM27.3002 27.7615H11.3002V14.9615H27.3002V27.7615Z" fill="#2D373D"/>
<path d="M19.3003 24.8616C21.2003 24.8616 22.8003 23.2616 22.8003 21.3616C22.8003 19.4616 21.2003 17.8616 19.3003 17.8616C17.4003 17.8616 15.8003 19.4616 15.8003 21.3616C15.8003 23.2616 17.4003 24.8616 19.3003 24.8616ZM19.3003 19.9616C20.1003 19.9616 20.8003 20.6616 20.8003 21.4616C20.8003 22.2616 20.1003 22.9616 19.3003 22.9616C18.5003 22.9616 17.8003 22.2616 17.8003 21.4616C17.8003 20.6616 18.5003 19.9616 19.3003 19.9616Z" fill="#2D373D"/>
</svg>
