<svg width="16" height="17" viewBox="0 0 16 17" fill="none" xmlns="http://www.w3.org/2000/svg">
<path d="M13.5499 11.1102L11.8499 5.76016H13.5499C13.7999 5.76016 14.0499 5.56016 14.0499 5.26016C14.0499 4.96016 13.8499 4.76016 13.5499 4.76016H8.4999V2.91016C8.4999 2.61016 8.2999 2.41016 7.9999 2.41016C7.6999 2.41016 7.4999 2.61016 7.4999 2.91016V4.76016H2.4499C2.1499 4.76016 1.9499 4.96016 1.9499 5.26016C1.9499 5.56016 2.1499 5.76016 2.4499 5.76016H4.0999L2.3999 11.1102C2.0999 11.1102 1.8999 11.3102 1.8999 11.6102C1.8999 13.2102 3.1999 14.5102 4.7999 14.5102C6.3999 14.5102 7.6999 13.2102 7.6499 11.6102C7.6499 11.3102 7.4499 11.1602 7.1999 11.1102L5.4999 5.76016H10.4499L8.7499 11.1102C8.4499 11.1102 8.2499 11.3102 8.2499 11.6102C8.2499 13.2102 9.5499 14.5102 11.1499 14.5102C12.7499 14.5102 14.0499 13.2102 13.9999 11.6102C13.9999 11.3602 13.8499 11.1602 13.5499 11.1102ZM4.7999 6.96016L6.0999 11.1102H3.4999L4.7999 6.96016ZM4.7999 13.5102C3.9499 13.5102 3.2499 12.9102 2.9999 12.1102H6.5999C6.3999 12.9102 5.6499 13.5102 4.7999 13.5102ZM11.1499 6.96016L12.4499 11.1102H9.8499L11.1499 6.96016ZM11.1499 13.5102C10.2999 13.5102 9.5499 12.9102 9.3499 12.1102H12.9499C12.7499 12.9102 11.9999 13.5102 11.1499 13.5102Z" fill="#2D373D"/>
</svg>
