<svg width="24" height="25" viewBox="0 0 24 25" fill="none" xmlns="http://www.w3.org/2000/svg">
<path d="M15.5851 8.12844C15.6974 8.0819 15.8177 8.05794 15.9393 8.05794C16.0608 8.05794 16.1812 8.0819 16.2935 8.12844C16.4058 8.17498 16.5078 8.2432 16.5937 8.32918C16.8872 8.623 17.3634 8.62321 17.6572 8.32966C17.951 8.03611 17.9512 7.55996 17.6577 7.26615C17.4321 7.04035 17.1642 6.86123 16.8694 6.73902C16.5745 6.61681 16.2585 6.55391 15.9393 6.55391C15.6201 6.55391 15.3041 6.61681 15.0092 6.73902C14.7143 6.86123 14.4465 7.04035 14.2209 7.26615C13.9273 7.55996 13.9275 8.03611 14.2214 8.32966C14.5152 8.62321 14.9913 8.623 15.2849 8.32918C15.3708 8.2432 15.4728 8.17498 15.5851 8.12844Z" fill="#2D373D"/>
<path fill-rule="evenodd" clip-rule="evenodd" d="M13.0316 5.28813C13.9074 4.41292 15.095 3.92146 16.3331 3.92188C17.5713 3.92229 18.7585 4.41455 19.6338 5.29035C20.509 6.16616 21.0004 7.35377 21 8.59193C20.9996 9.83007 20.5073 11.0173 19.6316 11.8925L10.924 20.5957C10.045 21.4522 8.86401 21.928 7.63674 21.9201C6.40948 21.9121 5.23474 21.4211 4.36691 20.5532C3.49909 19.6854 3.00804 18.5107 3.0001 17.2834C2.99216 16.0561 3.46797 14.8751 4.3245 13.9961L4.33127 13.9892L8.28371 10.0364L8.28612 10.034L8.28849 10.0316L13.0316 5.28813ZM5.39847 15.0491L8.81792 11.6293L13.2915 16.1029L9.87109 19.5216C9.27572 20.1001 8.47672 20.4214 7.64647 20.4161C6.81472 20.4107 6.01857 20.0779 5.43042 19.4897C4.84227 18.9016 4.50947 18.1054 4.50409 17.2737C4.49872 16.4434 4.82 15.6444 5.39847 15.0491ZM18.5683 10.8288L14.3553 15.0397L9.88138 10.5657L14.0947 6.352C14.6883 5.75888 15.4935 5.42563 16.3326 5.42591C17.1719 5.42619 17.9766 5.75986 18.5699 6.35351C19.1631 6.94716 19.4963 7.75216 19.496 8.59143C19.4957 9.43069 19.162 10.2355 18.5683 10.8288Z" fill="#2D373D"/>
</svg>
