<svg width="16" height="17" viewBox="0 0 16 17" fill="none" xmlns="http://www.w3.org/2000/svg">
<path d="M12.85 5.31192H11.55V4.01731C11.55 3.4198 11.05 2.92188 10.45 2.92188H8.64999C8.04999 2.92188 7.54999 3.4198 7.54999 4.01731V5.31192H6.24999C5.64999 5.31192 5.14999 5.80985 5.14999 6.40736V7.90114C5.14999 8.19989 5.34999 8.39907 5.64999 8.39907C5.94999 8.39907 6.14999 8.19989 6.14999 7.90114V6.40736C6.14999 6.35757 6.19999 6.30777 6.24999 6.30777H8.04999C8.34999 6.30777 8.54999 6.1086 8.54999 5.80985V4.01731C8.54999 3.96752 8.59999 3.91773 8.64999 3.91773H10.45C10.5 3.91773 10.55 3.96752 10.55 4.01731V5.80985C10.55 6.1086 10.75 6.30777 11.05 6.30777H12.85C12.9 6.30777 12.95 6.35757 12.95 6.40736V8.24969C12.95 8.29948 12.9 8.34927 12.85 8.34927H11.05C10.75 8.34927 10.55 8.54844 10.55 8.8472V10.6397C10.55 10.6895 10.5 10.7393 10.45 10.7393H8.99999C8.69999 10.7393 8.49999 10.9385 8.49999 11.2372C8.49999 11.536 8.69999 11.7352 8.99999 11.7352H10.45C11.1 11.7352 11.6 11.2372 11.6 10.5899V9.29533H12.9C13.5 9.29533 14 8.79741 14 8.19989V6.40736C14 5.80985 13.5 5.31192 12.85 5.31192Z" fill="#2D373D"/>
<path d="M5.50003 10.1916C5.35003 10.2911 5.15003 10.3907 4.95003 10.3907C4.55003 10.3907 4.20003 10.0422 4.20003 9.64383V9.59404C4.20003 9.1957 4.55003 8.84715 4.95003 8.84715C5.35003 8.84715 5.70003 9.1957 5.70003 9.59404V9.64383C5.70003 9.843 5.60003 10.0422 5.50003 10.1916Z" fill="#2D373D"/>
<path d="M6.39998 10.6397C6.39998 10.2414 6.74998 9.89284 7.14998 9.89284C7.54998 9.89284 7.89998 10.2414 7.89998 10.6397C7.89998 10.8389 7.79998 11.0381 7.69998 11.1875C7.54998 11.3368 7.34998 11.3866 7.14998 11.3866C6.74998 11.3866 6.39998 11.0381 6.39998 10.6397Z" fill="#2D373D"/>
<path d="M3.3 11.1875C3.4 11.0381 3.5 10.8389 3.5 10.6397C3.5 10.2414 3.2 9.89284 2.75 9.89284C2.35 9.89284 2 10.2414 2 10.6397C2 11.0381 2.35 11.3866 2.75 11.3866C2.95 11.3866 3.15 11.3368 3.3 11.1875Z" fill="#2D373D"/>
<path fill-rule="evenodd" clip-rule="evenodd" d="M4.94997 10.9883C5.29997 10.9883 5.64997 11.1376 5.89997 11.3866L7.19997 12.6812C7.44997 12.9302 7.59997 13.2787 7.59997 13.6273C7.59997 13.9758 7.44997 14.3244 7.19997 14.5733C6.94997 14.8223 6.59997 14.9219 6.24997 14.9219H3.64997C2.89997 14.9219 2.29997 14.3244 2.29997 13.5775C2.29997 13.2289 2.44997 12.8804 2.69997 12.6314L3.99997 11.3866C4.24997 11.1376 4.59997 10.9883 4.94997 10.9883ZM6.42843 13.9153C6.44997 13.9029 6.47317 13.8896 6.49997 13.8762C6.54997 13.8264 6.59997 13.7269 6.59997 13.6273C6.59997 13.5544 6.57317 13.5081 6.5392 13.4495C6.52676 13.4281 6.51337 13.405 6.49997 13.3783L5.19997 12.0837C5.14997 12.0339 5.04997 11.9841 4.94997 11.9841C4.87676 11.9841 4.83035 12.0108 4.77151 12.0446C4.74997 12.057 4.72676 12.0704 4.69997 12.0837L3.39997 13.3783C3.34997 13.4281 3.29997 13.5277 3.29997 13.6273C3.29997 13.8264 3.44997 13.9758 3.64997 13.9758H6.24997C6.32317 13.9758 6.36958 13.9491 6.42843 13.9153Z" fill="#2D373D"/>
</svg>
