<svg width="32" height="33" viewBox="0 0 32 33" fill="none" xmlns="http://www.w3.org/2000/svg">
<path d="M14.9999 16.2617C15.4999 15.9617 15.6999 15.3617 15.3999 14.8617C14.5999 13.4617 13.2999 12.3617 11.6999 11.9617H11.5999C12.9999 11.3617 13.9999 9.96172 14.0999 8.26172C14.0999 6.06172 12.2999 4.26172 10.0999 4.26172C7.8999 4.26172 6.0999 6.06172 6.0999 8.26172C6.0999 9.96172 7.0999 11.3617 8.5999 11.9617C7.9999 12.0617 7.4999 12.2617 6.9999 12.5617C5.0999 13.6617 3.8999 15.6617 3.8999 17.8617V20.0617C3.8999 20.6617 4.2999 21.0617 4.8999 21.0617H6.2999L6.8999 27.5617C6.9999 28.0617 7.3999 28.4617 7.8999 28.4617H12.2999C12.7999 28.4617 13.1999 28.0617 13.1999 27.5617L13.4999 24.3617C13.5999 23.7617 13.0999 23.3617 12.5999 23.2617C11.9999 23.2617 11.5999 23.6617 11.4999 24.1617L11.2999 26.4617H8.6999L8.0999 19.9617C7.9999 19.4617 7.5999 19.0617 7.0999 19.0617H5.8999V17.8617C5.8999 16.4617 6.6999 15.0617 7.8999 14.3617C8.2999 14.1617 8.6999 13.9617 9.0999 13.8617V17.6617C9.0999 18.2617 9.4999 18.6617 10.0999 18.6617C10.5999 18.6617 11.0999 18.2617 11.0999 17.6617V13.9617C12.0999 14.2617 13.0999 14.8617 13.5999 15.8617C13.8999 16.3617 14.4999 16.5617 14.9999 16.2617ZM10.0999 10.3617C8.9999 10.3617 8.0999 9.46172 8.0999 8.36172C8.0999 7.26172 8.9999 6.36172 10.0999 6.36172C11.0999 6.36172 12.0999 7.26172 12.0999 8.36172C12.0999 9.46172 11.1999 10.3617 10.0999 10.3617Z" fill="#2D373D"/>
<path d="M21.0997 14.6616C17.2997 14.6616 14.1997 17.7616 14.1997 21.5616C14.1997 25.3616 17.2997 28.4616 21.0997 28.4616C24.8997 28.4616 27.9997 25.3616 27.9997 21.5616C27.9997 17.7616 24.8997 14.6616 21.0997 14.6616ZM21.0997 26.4616C18.3997 26.4616 16.1997 24.2616 16.1997 21.5616C16.1997 18.8616 18.3997 16.6616 21.0997 16.6616C23.7997 16.6616 25.9997 18.8616 25.9997 21.5616C25.9997 24.2616 23.7997 26.4616 21.0997 26.4616Z" fill="#2D373D"/>
<path d="M21.1001 20.5618C20.5001 20.5618 20.1001 20.9618 20.1001 21.5618V24.5618C20.1001 25.1618 20.5001 25.5618 21.1001 25.5618C21.7001 25.5618 22.1001 25.0618 22.1001 24.5618V21.5618C22.1001 20.9618 21.7001 20.5618 21.1001 20.5618Z" fill="#2D373D"/>
<path d="M21.6997 18.6617C21.5997 18.5617 21.5997 18.5617 21.5997 18.5617H21.3997C21.2997 18.5617 21.2997 18.4617 21.2997 18.4617C21.2997 18.4617 21.1997 18.4617 21.0997 18.4617C20.8997 18.4617 20.6997 18.5617 20.4997 18.7617C20.2997 18.9617 20.1997 19.1617 20.1997 19.3617C20.1997 19.5617 20.2997 19.7617 20.4997 19.9617C20.6997 20.1617 20.8997 20.2617 21.0997 20.2617C21.2997 20.2617 21.4997 20.1617 21.6997 19.9617C21.8997 19.7617 21.9997 19.5617 21.9997 19.3617C21.8997 18.9617 21.7997 18.7617 21.6997 18.6617Z" fill="#2D373D"/>
</svg>
