<svg width="24" height="25" viewBox="0 0 24 25" fill="none" xmlns="http://www.w3.org/2000/svg">
<path d="M20.2498 3.38672H3.6748C3.2248 3.38672 2.9248 3.68672 2.9248 4.13672V20.7117C2.9248 21.1617 3.2248 21.4617 3.6748 21.4617H20.2498C20.6998 21.4617 20.9998 21.1617 20.9998 20.7117V4.13672C20.9998 3.68672 20.6998 3.38672 20.2498 3.38672ZM19.4998 19.9617H4.4248V4.88672H19.4998V19.9617Z" fill="#2D373D"/>
<path d="M8.09958 11.8617C8.24958 12.0117 8.39958 12.0867 8.62458 12.0867C8.92458 12.0867 9.14959 11.9367 9.22459 11.7117L12.5246 7.28666C12.7496 6.98666 12.6746 6.46166 12.3746 6.23666C12.0746 6.01166 11.5496 6.08666 11.3246 6.38666L8.54958 10.1367L6.97458 8.56166C6.67458 8.26166 6.22458 8.26166 5.92458 8.56166C5.62458 8.86166 5.62458 9.38666 5.92458 9.61166L8.09958 11.8617Z" fill="#2D373D"/>
<path d="M13.65 10.4366H16.95C17.4 10.4366 17.7 10.1366 17.7 9.68665C17.7 9.23665 17.4 8.93665 16.95 8.93665H13.65C13.2 8.93665 12.9 9.23665 12.9 9.68665C12.9 10.1366 13.2 10.4366 13.65 10.4366Z" fill="#2D373D"/>
<path d="M8.09988 18.4618C8.24988 18.6118 8.39988 18.6868 8.62488 18.6868C8.92488 18.6868 9.14988 18.6118 9.22488 18.3868L12.4499 13.9618C12.6749 13.6618 12.5999 13.1368 12.2999 12.9118C11.9999 12.6868 11.4749 12.7618 11.2499 13.0618L8.47488 16.8118L6.89988 15.2368C6.59988 14.9368 6.14988 14.9368 5.84988 15.2368C5.54988 15.5368 5.54988 15.9868 5.84988 16.2868L8.09988 18.4618Z" fill="#2D373D"/>
<path d="M13.65 17.0367H16.95C17.4 17.0367 17.7 16.7367 17.7 16.2867C17.7 15.8367 17.4 15.5367 16.95 15.5367H13.65C13.2 15.5367 12.9 15.8367 12.9 16.2867C12.9 16.7367 13.2 17.0367 13.65 17.0367Z" fill="#2D373D"/>
</svg>
