<svg width="16" height="16" viewBox="0 0 16 16" fill="none" xmlns="http://www.w3.org/2000/svg">
<path d="M9.50016 7.9998C9.50016 8.82822 8.82859 9.4998 8.00016 9.4998C7.17174 9.4998 6.50016 8.82822 6.50016 7.9998C6.50016 7.17137 7.17174 6.4998 8.00016 6.4998C8.82859 6.4998 9.50016 7.17137 9.50016 7.9998Z" fill="#2D373D"/>
<path fill-rule="evenodd" clip-rule="evenodd" d="M1.30029 7.99981C1.30029 4.2995 4.29999 1.2998 8.00029 1.2998C11.7006 1.2998 14.7003 4.2995 14.7003 7.99981C14.7003 11.7001 11.7006 14.6998 8.00029 14.6998C4.29999 14.6998 1.30029 11.7001 1.30029 7.99981ZM7.50016 2.32144C4.75112 2.56041 2.56083 4.75074 2.32192 7.4998H4.66683C4.94297 7.4998 5.16683 7.72365 5.16683 7.9998C5.16683 8.27594 4.94297 8.4998 4.66683 8.4998H2.32192C2.56082 11.2489 4.75112 13.4392 7.50016 13.6782V11.3331C7.50016 11.057 7.72402 10.8331 8.00016 10.8331C8.27631 10.8331 8.50016 11.057 8.50016 11.3331V13.6782C11.2493 13.4393 13.4398 11.2489 13.6787 8.4998H11.3335C11.0574 8.4998 10.8335 8.27594 10.8335 7.9998C10.8335 7.72365 11.0574 7.4998 11.3335 7.4998H13.6787C13.4397 4.75065 11.2493 2.56027 8.50016 2.32142V4.66646C8.50016 4.94261 8.27631 5.16646 8.00016 5.16646C7.72402 5.16646 7.50016 4.94261 7.50016 4.66646V2.32144Z" fill="#2D373D"/>
</svg>
