<svg width="24" height="25" viewBox="0 0 24 25" fill="none" xmlns="http://www.w3.org/2000/svg">
<path fill-rule="evenodd" clip-rule="evenodd" d="M11.5711 12.2998C10.9971 12.0398 10.3575 11.9608 9.73752 12.0733C9.11752 12.1857 8.54647 12.4843 8.10035 12.9293C7.80709 13.2218 7.33222 13.2213 7.03969 12.928C6.74717 12.6347 6.74776 12.1599 7.04102 11.8673C7.70285 11.2072 8.55003 10.7642 9.46981 10.5974C10.3896 10.4305 11.3384 10.5477 12.1899 10.9334C12.5672 11.1043 12.7346 11.5487 12.5637 11.926C12.3928 12.3033 11.9484 12.4707 11.5711 12.2998Z" fill="#2D373D"/>
<path fill-rule="evenodd" clip-rule="evenodd" d="M14.6006 10.3926C13.4183 9.31542 11.8755 8.71992 10.276 8.72344C8.67661 8.72697 7.13645 9.32925 5.95893 10.4117C5.65398 10.692 5.17952 10.672 4.8992 10.3671C4.61888 10.0621 4.63885 9.58769 4.9438 9.30737C6.39731 7.97124 8.29843 7.2278 10.2727 7.22345C12.2471 7.2191 14.1514 7.95416 15.6108 9.28387C15.917 9.56285 15.9391 10.0372 15.6601 10.3434C15.3811 10.6496 14.9067 10.6716 14.6006 10.3926Z" fill="#2D373D"/>
<path fill-rule="evenodd" clip-rule="evenodd" d="M10.2956 5.42188C8.08617 5.42101 5.9426 6.17436 4.21947 7.55731C3.89643 7.81657 3.42438 7.76487 3.16511 7.44183C2.90585 7.1188 2.95755 6.64674 3.28059 6.38748C5.27014 4.7907 7.74514 3.92088 10.2962 3.92188C12.8473 3.92288 15.3216 4.79464 17.3099 6.39298C17.6328 6.6525 17.6841 7.12459 17.4246 7.44743C17.1651 7.77026 16.693 7.82159 16.3701 7.56207C14.6481 6.17777 12.5051 5.42274 10.2956 5.42188Z" fill="#2D373D"/>
<path fill-rule="evenodd" clip-rule="evenodd" d="M12.2084 13.1318C13.1742 12.166 14.4842 11.6234 15.85 11.6234C17.2159 11.6234 18.5258 12.166 19.4916 13.1318C20.4574 14.0976 21 15.4075 21 16.7734C21 18.1393 20.4574 19.4492 19.4916 20.415C18.5258 21.3808 17.2159 21.9234 15.85 21.9234C14.4842 21.9234 13.1742 21.3808 12.2084 20.415C11.2426 19.4492 10.7 18.1393 10.7 16.7734C10.7 15.4075 11.2426 14.0976 12.2084 13.1318ZM15.85 13.1234C14.882 13.1234 13.9536 13.5079 13.2691 14.1925C12.5846 14.877 12.2 15.8053 12.2 16.7734C12.2 17.7414 12.5846 18.6698 13.2691 19.3543C13.9536 20.0388 14.882 20.4234 15.85 20.4234C16.8181 20.4234 17.7465 20.0388 18.431 19.3543C19.1155 18.6698 19.5 17.7414 19.5 16.7734C19.5 15.8053 19.1155 14.877 18.431 14.1925C17.7465 13.5079 16.8181 13.1234 15.85 13.1234Z" fill="#2D373D"/>
<path fill-rule="evenodd" clip-rule="evenodd" d="M16.011 15.1392C15.8509 15.1074 15.6851 15.1237 15.5343 15.1862C15.3836 15.2486 15.2547 15.3544 15.1641 15.49C15.0734 15.6257 15.025 15.7852 15.025 15.9484C15.025 16.2521 14.7788 16.4984 14.475 16.4984C14.1713 16.4984 13.925 16.2521 13.925 15.9484C13.925 15.5677 14.0379 15.1955 14.2494 14.8789C14.461 14.5624 14.7616 14.3156 15.1134 14.1699C15.4651 14.0242 15.8522 13.9861 16.2256 14.0604C16.599 14.1347 16.942 14.318 17.2112 14.5872C17.4804 14.8564 17.6638 15.1994 17.738 15.5728C17.8123 15.9463 17.7742 16.3333 17.6285 16.6851C17.4828 17.0368 17.2361 17.3374 16.9195 17.549C16.6029 17.7605 16.2307 17.8734 15.85 17.8734C15.5463 17.8734 15.3 17.6271 15.3 17.3234C15.3 17.0196 15.5463 16.7734 15.85 16.7734C16.0132 16.7734 16.1727 16.725 16.3084 16.6344C16.444 16.5437 16.5498 16.4149 16.6122 16.2641C16.6747 16.1134 16.691 15.9475 16.6592 15.7874C16.6273 15.6274 16.5488 15.4804 16.4334 15.365C16.318 15.2496 16.171 15.1711 16.011 15.1392Z" fill="#2D373D"/>
<path d="M15.8134 18.4967C15.9584 18.4967 16.1002 18.5397 16.2208 18.6203C16.3414 18.7009 16.4354 18.8154 16.4909 18.9494C16.5464 19.0834 16.5609 19.2309 16.5326 19.3731C16.5043 19.5154 16.4345 19.646 16.3319 19.7486C16.2294 19.8512 16.0987 19.921 15.9564 19.9493C15.8142 19.9776 15.6667 19.9631 15.5327 19.9076C15.3987 19.8521 15.2842 19.7581 15.2036 19.6375C15.123 19.5169 15.08 19.3751 15.08 19.2301C15.08 19.0356 15.1573 18.849 15.2948 18.7115C15.4324 18.574 15.6189 18.4967 15.8134 18.4967Z" fill="#2D373D"/>
</svg>
