<svg width="24" height="24" viewBox="0 0 24 24" fill="none" xmlns="http://www.w3.org/2000/svg">
<path d="M10.4251 13.05C11.0251 13.05 11.4751 12.525 11.4751 11.925C11.4751 11.7 11.3251 11.4 11.1751 11.25C10.9501 11.025 10.7251 10.95 10.4251 10.95C10.3501 10.95 10.3501 10.95 10.3501 10.95C9.82508 11.025 9.37508 11.475 9.37508 12.075C9.37508 12.6 9.90008 13.05 10.4251 13.05Z" fill="#2D373D"/>
<path d="M18.4501 3.75003H15.9001C15.4501 3.75003 15.1501 4.05003 15.1501 4.50003C15.1501 4.95003 15.4501 5.25003 15.9001 5.25003H18.3751C18.3751 5.32503 18.5251 5.47503 18.5251 5.77503V18.15C18.5251 18.45 18.4501 18.675 18.4501 18.675H15.9001C15.4501 18.675 15.1501 18.975 15.1501 19.425C15.1501 19.875 15.4501 20.175 15.9001 20.175H18.4501C19.3501 20.175 20.0251 19.35 20.0251 18.15V5.77503C20.0251 4.65003 19.3501 3.75003 18.4501 3.75003Z" fill="#2D373D"/>
<path d="M12.4501 1.95L5.0251 3.825C4.4251 3.975 3.9751 4.50001 3.9751 5.17501V19.65C3.9751 20.325 4.5001 20.85 5.1001 21L12.5251 22.05C12.6001 22.05 12.6751 22.05 12.7501 22.05C13.5751 22.05 14.1751 21.45 14.1001 20.7V3.30001C14.1001 3.22501 14.1001 3.075 14.1001 3C13.9501 2.25 13.2001 1.8 12.4501 1.95ZM12.6751 20.55L5.4751 19.5V5.25001L12.6751 3.45V20.55Z" fill="#2D373D"/>
</svg>
