<svg width="32" height="33" viewBox="0 0 32 33" fill="none" xmlns="http://www.w3.org/2000/svg">
<path d="M11.1674 12.7075C11.8037 12.3394 12.5424 12.1284 13.3333 12.1284C15.5346 12.1284 17.3525 13.7698 17.63 15.8954C17.3775 15.7408 17.0431 15.7691 16.8198 15.984C16.5546 16.2394 16.5465 16.6614 16.8019 16.9267L18.189 18.3675C18.4443 18.6328 18.8663 18.6408 19.1316 18.3855L20.5724 16.9984C20.8377 16.7431 20.8457 16.321 20.5904 16.0558C20.3365 15.7921 19.9179 15.7826 19.6524 16.0334C19.4321 12.7353 16.6872 10.1284 13.3333 10.1284C12.1814 10.1284 11.0985 10.4369 10.1659 10.9763C9.68788 11.2529 9.52452 11.8646 9.80106 12.3426C10.0776 12.8207 10.6893 12.9841 11.1674 12.7075Z" fill="#2D373D"/>
<path d="M7.07527 15.4833L7.06506 15.4902C6.75942 15.6954 6.34522 15.6141 6.13993 15.3084C5.93465 15.0028 6.01601 14.5886 6.32165 14.3833L7.98193 13.2682C8.28758 13.0629 8.70177 13.1443 8.90706 13.4499L10.0222 15.1102C10.2275 15.4158 10.1461 15.83 9.84046 16.0353C9.58282 16.2084 9.24806 16.1777 9.0263 15.9808C9.00894 16.1385 9 16.2989 9 16.4618C9 18.855 10.9401 20.7951 13.3333 20.7951C14.3591 20.7951 15.2991 20.4399 16.0412 19.8451C16.4721 19.4996 17.1015 19.5689 17.4469 19.9999C17.7924 20.4308 17.7231 21.0601 17.2921 21.4056C16.2081 22.2746 14.8301 22.7951 13.3333 22.7951C9.83553 22.7951 7 19.9596 7 16.4618C7 16.1295 7.02567 15.8027 7.07527 15.4833Z" fill="#2D373D"/>
<path fill-rule="evenodd" clip-rule="evenodd" d="M3 9.79508C3 7.77004 4.64162 6.12842 6.66667 6.12842H20C22.025 6.12842 23.6667 7.77004 23.6667 9.79508V10.791L23.6839 10.7781C24.0829 10.4801 24.5458 10.1344 25.0349 9.82528C26.0218 9.20152 27.1013 9.3145 27.8914 9.92992C28.6319 10.5068 29.0508 11.4607 29.0508 12.4617V17.1284L29.0464 20.4729C29.0453 21.4747 28.6247 22.4287 27.8825 23.0041C27.0904 23.6182 26.0098 23.7273 25.0245 23.0992C24.5391 22.7898 24.0797 22.4444 23.6836 22.1466L23.6667 22.1339V23.1284C23.6667 25.1535 22.025 26.7951 20 26.7951H6.66667C4.64162 26.7951 3 25.1535 3 23.1284V9.79508ZM23.6667 19.6936V13.227C24.0383 13.0069 24.4201 12.724 24.7716 12.4619L24.872 12.387C25.2812 12.0816 25.6834 11.7814 26.1035 11.5159C26.257 11.4189 26.3641 11.4064 26.4273 11.4099C26.494 11.4136 26.5735 11.4386 26.6623 11.5077C26.8513 11.655 27.0508 11.99 27.0508 12.4617V16.4613L27.0464 20.4702C27.0458 20.9425 26.8457 21.2769 26.6569 21.4233C26.5682 21.492 26.489 21.5167 26.4226 21.5201C26.3597 21.5233 26.2527 21.5106 26.0992 21.4128C25.6823 21.147 25.2832 20.8471 24.8771 20.542L24.7743 20.4648C24.422 20.2004 24.0392 19.915 23.6667 19.6936ZM6.66667 8.12842C5.74619 8.12842 5 8.87461 5 9.79508V23.1284C5 24.0489 5.74619 24.7951 6.66667 24.7951H20C20.9205 24.7951 21.6667 24.0489 21.6667 23.1284V9.79508C21.6667 8.87461 20.9205 8.12842 20 8.12842H6.66667Z" fill="#2D373D"/>
</svg>
