<svg width="24" height="25" viewBox="0 0 24 25" fill="none" xmlns="http://www.w3.org/2000/svg">
<path d="M17.5 6.92188C17.0858 6.92188 16.75 6.58609 16.75 6.17187L16.75 4.42187L15 4.42187C14.5858 4.42187 14.25 4.08609 14.25 3.67187C14.25 3.25766 14.5858 2.92188 15 2.92188H17.5C17.9142 2.92188 18.25 3.25766 18.25 3.67187L18.25 6.17188C18.25 6.58609 17.9142 6.92187 17.5 6.92188Z" fill="#2D373D"/>
<path d="M10.6518 4.87835C10.675 4.86265 10.6945 4.85883 10.7121 4.85953C10.7312 4.86029 10.7604 4.86723 10.7944 4.89275L18.3 10.522C18.6314 10.7705 19.1015 10.7033 19.35 10.372C19.5985 10.0406 19.5314 9.57048 19.2 9.32195L11.6944 3.69275C11.1509 3.28513 10.4058 3.23395 9.81155 3.6358C8.3278 4.63917 4.11246 7.64362 2.24129 9.37085C1.93693 9.6518 1.91795 10.1263 2.1989 10.4307C2.47985 10.735 2.95435 10.754 3.25871 10.4731C5.03729 8.83129 9.16621 5.88299 10.6518 4.87835Z" fill="#2D373D"/>
<path d="M5.75 10.9219C5.75 10.5077 5.41421 10.1719 5 10.1719C4.58579 10.1719 4.25 10.5077 4.25 10.9219V17.9219C4.25 18.8884 5.0335 19.6719 6 19.6719H9C9.41421 19.6719 9.75 19.3361 9.75 18.9219C9.75 18.5077 9.41421 18.1719 9 18.1719H6C5.86193 18.1719 5.75 18.0599 5.75 17.9219V10.9219Z" fill="#2D373D"/>
<path d="M16 13.6719C16.4142 13.6719 16.75 14.0077 16.75 14.4219V16.1719H18.5C18.9142 16.1719 19.25 16.5077 19.25 16.9219C19.25 17.3361 18.9142 17.6719 18.5 17.6719H16.75V19.4219C16.75 19.8361 16.4142 20.1719 16 20.1719C15.5858 20.1719 15.25 19.8361 15.25 19.4219V17.6719H13.5C13.0858 17.6719 12.75 17.3361 12.75 16.9219C12.75 16.5077 13.0858 16.1719 13.5 16.1719H15.25V14.4219C15.25 14.0077 15.5858 13.6719 16 13.6719Z" fill="#2D373D"/>
<path fill-rule="evenodd" clip-rule="evenodd" d="M22 16.9219C22 20.2356 19.3137 22.9219 16 22.9219C12.6863 22.9219 10 20.2356 10 16.9219C10 13.6082 12.6863 10.9219 16 10.9219C19.3137 10.9219 22 13.6082 22 16.9219ZM20.5 16.9219C20.5 19.4072 18.4853 21.4219 16 21.4219C13.5147 21.4219 11.5 19.4072 11.5 16.9219C11.5 14.4366 13.5147 12.4219 16 12.4219C18.4853 12.4219 20.5 14.4366 20.5 16.9219Z" fill="#2D373D"/>
</svg>
