<svg width="16" height="17" viewBox="0 0 16 17" fill="none" xmlns="http://www.w3.org/2000/svg">
<path fill-rule="evenodd" clip-rule="evenodd" d="M8.50016 2.29492C8.50016 2.01878 8.2763 1.79492 8.00016 1.79492C7.72402 1.79492 7.50016 2.01878 7.50016 2.29492V2.64564C5.92464 2.75557 4.42701 3.38555 3.28978 4.49957C2.03843 5.72538 1.3335 7.39016 1.3335 9.12826C1.3335 9.32136 1.44469 9.4972 1.61916 9.57998C1.79362 9.66276 2.00015 9.63768 2.14973 9.51555L2.59422 9.15261C2.80657 8.97928 3.05266 8.84873 3.31825 8.76911C3.58386 8.68948 3.86324 8.6625 4.1399 8.68989C4.41656 8.71728 4.68446 8.79843 4.92792 8.92823C5.17135 9.05802 5.3852 9.2337 5.55731 9.44449C5.64618 9.55333 5.77674 9.61975 5.91703 9.62749C6.05733 9.63524 6.19441 9.5836 6.29472 9.48522C6.51765 9.26657 6.78294 9.09258 7.0757 8.97368C7.21309 8.91788 7.3552 8.87476 7.50016 8.84471V13.7928C7.50016 14.1464 7.64064 14.4855 7.89069 14.7356C8.14074 14.9856 8.47987 15.1261 8.8335 15.1261C9.18712 15.1261 9.52626 14.9856 9.77631 14.7356C10.0264 14.4855 10.1668 14.1464 10.1668 13.7928C10.1668 13.5166 9.94297 13.2928 9.66683 13.2928C9.39069 13.2928 9.16683 13.5166 9.16683 13.7928C9.16683 13.8812 9.13171 13.9659 9.0692 14.0285C9.00669 14.091 8.9219 14.1261 8.8335 14.1261C8.74509 14.1261 8.6603 14.091 8.59779 14.0285C8.53528 13.9659 8.50016 13.8812 8.50016 13.7928V8.84471C8.64512 8.87476 8.78723 8.91788 8.92463 8.97368C9.21738 9.09258 9.48268 9.26657 9.70561 9.48522C9.80592 9.5836 9.943 9.63524 10.0833 9.62749C10.2236 9.61975 10.3541 9.55333 10.443 9.44449C10.6151 9.2337 10.829 9.05802 11.0724 8.92823C11.3159 8.79843 11.5838 8.71728 11.8604 8.68989C12.1371 8.6625 12.4165 8.68948 12.6821 8.76911C12.9477 8.84873 13.1938 8.97928 13.4061 9.15261L13.8506 9.51555C14.0002 9.63768 14.2067 9.66276 14.3812 9.57998C14.5556 9.4972 14.6668 9.32136 14.6668 9.12826C14.6668 7.39016 13.9619 5.72538 12.7105 4.49957C11.5733 3.38555 10.0757 2.75557 8.50016 2.64564V2.29492ZM8.00016 3.62826C7.91566 3.62826 7.7124 3.70655 7.43141 4.08339C7.16978 4.43426 6.91822 4.9447 6.71707 5.53864C6.41218 6.43891 6.2537 7.43604 6.30161 8.23941C6.4296 8.16704 6.56247 8.10279 6.69942 8.04717C7.11207 7.87959 7.55405 7.79346 8.00016 7.79346C8.44628 7.79346 8.88825 7.87959 9.3009 8.04717C9.43785 8.10279 9.57072 8.16704 9.6987 8.23941C9.74662 7.43603 9.58814 6.43891 9.28325 5.53864C9.0821 4.9447 8.83053 4.43426 8.56891 4.08339C8.28792 3.70655 8.08466 3.62826 8.00016 3.62826ZM6.39016 3.84423C5.48768 4.09376 4.66103 4.55617 3.98956 5.21393C3.19022 5.99696 2.65572 6.98879 2.44042 8.05693C2.62772 7.95524 2.82565 7.87281 3.03109 7.81123C3.42179 7.69409 3.8322 7.65454 4.23842 7.69476C4.60545 7.73109 4.96278 7.83193 5.29341 7.99238C5.28666 7.08005 5.47895 6.07701 5.76991 5.21787C5.93859 4.71982 6.14832 4.24569 6.39016 3.84423ZM10.7069 7.99239C10.7137 7.08005 10.5214 6.07702 10.2304 5.21787C10.0617 4.71983 9.852 4.24569 9.61016 3.84422C10.5126 4.09376 11.3393 4.55616 12.0108 5.21393C12.8101 5.99696 13.3446 6.98879 13.5599 8.05693C13.3726 7.95524 13.1747 7.87281 12.9692 7.81123C12.5785 7.69409 12.1681 7.65454 11.7619 7.69476C11.3949 7.73109 11.0375 7.83193 10.7069 7.99239Z" fill="#2D373D"/>
</svg>
