<svg width="24" height="25" viewBox="0 0 24 25" fill="none" xmlns="http://www.w3.org/2000/svg">
<path fill-rule="evenodd" clip-rule="evenodd" d="M10.7116 4.85945C10.694 4.85875 10.6746 4.86257 10.6513 4.87827C9.16572 5.88291 5.03681 8.83121 3.25823 10.473C2.95386 10.7539 2.47937 10.735 2.19841 10.4306C1.91746 10.1262 1.93644 9.65172 2.24081 9.37077C4.11197 7.64355 8.32731 4.63909 9.81106 3.63572C10.4053 3.23388 11.1504 3.28506 11.6939 3.69267L19.1995 9.32188C19.5309 9.5704 19.598 10.0405 19.3495 10.3719C19.101 10.7032 18.6309 10.7704 18.2995 10.5219L10.7939 4.89267C10.7599 4.86715 10.7307 4.86021 10.7116 4.85945Z" fill="#2D373D"/>
<path fill-rule="evenodd" clip-rule="evenodd" d="M4.99952 10.1719C5.41373 10.1719 5.74952 10.5077 5.74952 10.9219V17.9219C5.74952 18.0599 5.86144 18.1719 5.99952 18.1719H8.99952C9.41373 18.1719 9.74952 18.5077 9.74952 18.9219C9.74952 19.3361 9.41373 19.6719 8.99952 19.6719H5.99952C5.03302 19.6719 4.24952 18.8884 4.24952 17.9219V10.9219C4.24952 10.5077 4.5853 10.1719 4.99952 10.1719Z" fill="#2D373D"/>
<path fill-rule="evenodd" clip-rule="evenodd" d="M17.4995 6.92188C17.0853 6.92188 16.7495 6.58609 16.7495 6.17188L16.7495 4.42188L14.9995 4.42188C14.5853 4.42187 14.2495 4.08609 14.2495 3.67187C14.2495 3.25766 14.5853 2.92187 14.9995 2.92188L17.4995 2.92188C17.9137 2.92188 18.2495 3.25766 18.2495 3.67187L18.2495 6.17188C18.2495 6.58609 17.9137 6.92187 17.4995 6.92188Z" fill="#2D373D"/>
<path fill-rule="evenodd" clip-rule="evenodd" d="M16.9404 12.8322L20.4112 20.4421C20.6395 20.902 20.2676 21.4219 19.7103 21.4219H12.7688C12.2114 21.4219 11.8395 20.902 12.0678 20.4421L15.5386 12.8322C15.8102 12.2851 16.6688 12.2851 16.9404 12.8322ZM10.7112 19.8018C9.9074 21.4674 11.3613 22.9219 12.7688 22.9219H19.7103C21.1178 22.9219 22.5716 21.4674 21.7678 19.8018L18.3052 12.2097C18.2984 12.1947 18.2913 12.1799 18.284 12.1651C17.8472 11.2854 16.9761 10.9219 16.2395 10.9219C15.5029 10.9219 14.6318 11.2854 14.195 12.1651C14.1877 12.1799 14.1806 12.1947 14.1738 12.2097L10.7112 19.8018Z" fill="#2D373D"/>
<path fill-rule="evenodd" clip-rule="evenodd" d="M16.2457 14.0547C16.66 14.0547 16.9957 14.3905 16.9957 14.8047V17.2305C16.9957 17.6447 16.66 17.9805 16.2457 17.9805C15.8315 17.9805 15.4957 17.6447 15.4957 17.2305V14.8047C15.4957 14.3905 15.8315 14.0547 16.2457 14.0547Z" fill="#2D373D"/>
<path d="M17.2652 19.6258C17.2652 20.1775 16.8174 20.6247 16.2652 20.6247C15.7129 20.6247 15.2652 20.1775 15.2652 19.6258C15.2652 19.0742 15.7129 18.627 16.2652 18.627C16.8174 18.627 17.2652 19.0742 17.2652 19.6258Z" fill="#2D373D"/>
</svg>
