<svg width="32" height="33" viewBox="0 0 32 33" fill="none" xmlns="http://www.w3.org/2000/svg">
<path fill-rule="evenodd" clip-rule="evenodd" d="M19.3333 15.2526C19.3333 17.0936 17.8409 18.5859 16 18.5859C14.1591 18.5859 12.6667 17.0936 12.6667 15.2526C12.6667 13.4117 14.6667 9.2526 16 9.2526C17.3333 9.2526 19.3333 13.4117 19.3333 15.2526ZM17.3333 15.2526C17.3333 15.989 16.7364 16.5859 16 16.5859C15.2636 16.5859 14.6667 15.989 14.6667 15.2526C14.6667 15.0936 14.7224 14.7162 14.9042 14.1499C15.0758 13.6156 15.322 13.0293 15.6041 12.4919C15.7384 12.2361 15.8723 12.0077 16 11.811C16.1277 12.0077 16.2616 12.2361 16.3959 12.4919C16.678 13.0293 16.9242 13.6156 17.0958 14.1499C17.2776 14.7162 17.3333 15.0936 17.3333 15.2526Z" fill="#2D373D"/>
<path fill-rule="evenodd" clip-rule="evenodd" d="M16 3.58594C13.2321 3.58594 11.4211 4.01814 10.2223 4.54562C9.10199 5.03855 8.56256 5.59916 8.34634 5.82387C8.32564 5.84539 8.3079 5.86383 8.29289 5.87883C8.10536 6.06637 8 6.32072 8 6.58594V22.2526C8 22.6615 8.24895 23.0292 8.62861 23.1811C8.9178 23.2968 9.26174 23.416 9.66667 23.531V25.5859C9.66667 25.9203 9.83377 26.2325 10.112 26.418C10.6059 26.7473 11.423 27.0287 12.3758 27.2308C12.7685 27.3141 13.2006 27.3873 13.6667 27.4453V29.2575C13.6667 29.8098 14.1144 30.2575 14.6667 30.2575C15.219 30.2575 15.6667 29.8098 15.6667 29.2575V27.5832C15.7767 27.585 15.8878 27.5859 16 27.5859C16.2138 27.5859 16.4238 27.5825 16.6296 27.576V29.2575C16.6296 29.8098 17.0773 30.2575 17.6296 30.2575C18.1819 30.2575 18.6296 29.8098 18.6296 29.2575V27.4058C18.9837 27.3553 19.3161 27.2962 19.6242 27.2308C20.577 27.0287 21.3941 26.7473 21.888 26.418C22.1662 26.2325 22.3333 25.9203 22.3333 25.5859V23.531C22.7383 23.416 23.0822 23.2968 23.3714 23.1811C23.751 23.0292 24 22.6615 24 22.2526V6.58594C24 6.32072 23.8946 6.06637 23.7071 5.87883C23.6922 5.86394 23.6746 5.84566 23.6541 5.82435C23.4379 5.59964 22.898 5.03855 21.7778 4.54562C20.5789 4.01814 18.768 3.58594 16 3.58594ZM11.6667 24.9604V23.9564C12.8214 24.1336 14.2496 24.2526 16 24.2526C17.7505 24.2526 19.1787 24.1336 20.3333 23.9564V24.9604C20.0661 25.0597 19.6925 25.1718 19.2092 25.2744C18.3631 25.4538 17.2661 25.5859 16 25.5859C14.7339 25.5859 13.6369 25.4538 12.7908 25.2744C12.3075 25.1718 11.9339 25.0597 11.6667 24.9604ZM10 21.5441V7.00485C10.2045 6.82541 10.5182 6.60047 11.0278 6.37625C11.9123 5.98707 13.4347 5.58594 16 5.58594C18.5654 5.58594 20.0878 5.98707 20.9723 6.37625C21.4818 6.60046 21.7955 6.82541 22 7.00484V21.5441C20.8802 21.8885 18.9825 22.2526 16 22.2526C13.0176 22.2526 11.1198 21.8885 10 21.5441Z" fill="#2D373D"/>
</svg>
