<svg width="24" height="25" viewBox="0 0 24 25" fill="none" xmlns="http://www.w3.org/2000/svg">
<path d="M20.4751 15.9855L14.1001 9.98555C14.5501 9.68555 15.0001 9.38555 15.5251 9.08555C15.6001 9.08555 15.6001 9.01055 15.6751 9.01055C15.7501 8.93555 15.7501 8.93555 15.7501 8.93555C16.1251 8.63555 16.2751 8.18555 16.2751 7.73555C16.2751 7.28555 16.0501 6.83555 15.7501 6.53555L13.1251 3.91055C12.4501 3.23555 11.4001 3.23555 10.7251 3.91055C10.6501 3.91055 10.5751 3.98555 10.5751 4.06055C9.37515 6.23555 7.57515 8.03555 5.40015 9.23555C5.32515 9.31055 5.32515 9.31055 5.25015 9.38555C4.57515 10.0605 4.57515 11.1105 5.25015 11.7105L7.87515 14.3355C8.17515 14.7105 8.62515 14.8605 9.07515 14.8605C9.52515 14.8605 9.90015 14.7105 10.2001 14.4105C10.2751 14.4105 10.3501 14.3355 10.3501 14.2605C10.6501 13.6605 11.0251 13.1355 11.4001 12.6105L17.4001 18.9855C17.7001 19.3605 18.1501 19.5105 18.6001 19.5105C19.0501 19.5105 19.5001 19.2855 19.8001 19.1355L20.4751 18.4605C21.1501 17.7855 21.1501 16.6605 20.4751 15.9855ZM9.15015 13.4355C9.00015 13.4355 9.00015 13.4355 8.92515 13.3605L6.30015 10.7355C6.22515 10.6605 6.15015 10.5855 6.22515 10.5105C8.55015 9.16055 10.5001 7.21055 11.8501 4.88555H11.9251C12.0001 4.88555 12.0001 4.88555 12.0001 5.03555L14.6251 7.66055C14.7001 7.73555 14.7001 7.73555 14.7001 7.81055V7.88555C12.3751 9.16055 10.4251 11.1105 9.15015 13.4355ZM19.4251 17.2605L18.7501 17.9355C18.6751 18.0105 18.6751 18.0105 18.6001 18.0105C18.5251 18.0105 18.5251 18.0105 18.4501 17.9355L12.3751 11.4855C12.6001 11.2605 12.7501 11.1105 12.9751 10.8855L19.4251 16.8855C19.5001 17.0355 19.5001 17.1855 19.4251 17.2605Z" fill="#2D373D"/>
<path d="M13.6503 19.9606H13.3503V19.4356C13.3503 18.3856 12.6003 17.4856 11.4753 17.4106H5.85029C4.80029 17.4856 3.97529 18.3856 4.05029 19.4356V19.9606H3.67529C3.22529 19.9606 2.92529 20.2606 2.92529 20.7106C2.92529 21.1606 3.22529 21.4606 3.67529 21.4606H13.6503C14.1003 21.4606 14.4003 21.1606 14.4003 20.7106C14.4003 20.2606 14.1003 19.9606 13.6503 19.9606ZM5.55029 19.9606V19.3606C5.55029 19.1356 5.70029 18.9106 5.92529 18.9106H11.4003C11.6253 18.9106 11.7753 19.1356 11.7753 19.3606C11.7753 19.4356 11.7753 19.4356 11.7753 19.4356V19.9606H5.55029Z" fill="#2D373D"/>
</svg>
