<svg width="24" height="25" viewBox="0 0 24 25" fill="none" xmlns="http://www.w3.org/2000/svg">
<path fill-rule="evenodd" clip-rule="evenodd" d="M4.94206 5.83721C6.81611 3.97035 9.35376 2.92188 11.9995 2.92188C14.6517 2.92188 17.1952 3.97544 19.0706 5.85081C20.9459 7.72617 21.9995 10.2697 21.9995 12.9219C21.9995 15.574 20.9459 18.1176 19.0706 19.9929C17.1952 21.8683 14.6517 22.9219 11.9995 22.9219C9.34735 22.9219 6.80381 21.8683 4.92844 19.9929C3.05308 18.1176 1.99951 15.574 1.99951 12.9219C1.99951 10.2762 3.0479 7.73868 4.91462 5.86465C4.91906 5.85998 4.92358 5.85535 4.92816 5.85077C4.93275 5.84618 4.93739 5.84166 4.94206 5.83721ZM5.48501 7.47361L6.53495 8.52355C6.82932 8.81791 7.30658 8.81791 7.60094 8.52355C7.89531 8.22918 7.89531 7.75192 7.60094 7.45756L6.55098 6.4076C8.07271 5.13473 9.99975 4.42941 11.9995 4.42941C14.2519 4.42941 16.4119 5.32415 18.0046 6.9168C19.5972 8.50944 20.492 10.6695 20.492 12.9219C20.492 14.9216 19.7867 16.8486 18.5138 18.3703L16.2309 16.0874C15.9365 15.793 15.4593 15.793 15.1649 16.0874C14.8705 16.3817 14.8705 16.859 15.1649 17.1534L17.4478 19.4363C15.9261 20.7091 13.9992 21.4143 11.9995 21.4143C9.74717 21.4143 7.58708 20.5196 5.99443 18.927C4.40179 17.3343 3.50705 15.1742 3.50705 12.9219C3.50705 10.9222 4.21228 8.9953 5.48501 7.47361Z" fill="#2D373D"/>
<path fill-rule="evenodd" clip-rule="evenodd" d="M10.7112 8.12788H14.4779L13.1744 10.7356C13.0576 10.9692 13.0702 11.2467 13.2075 11.4689C13.3448 11.6911 13.5874 11.8264 13.8487 11.8264H14.8496L11.1818 16.9613L11.5166 13.6133C11.5378 13.4014 11.4684 13.1904 11.3255 13.0325C11.1826 12.8746 10.9796 12.7845 10.7666 12.7845H9.31418L10.7112 8.12788ZM10.6088 6.62034C10.3142 6.62025 10.0275 6.71513 9.79116 6.89092C9.55473 7.06676 9.38132 7.31417 9.29669 7.5964L7.81744 12.5272C7.75604 12.7317 7.74311 12.9481 7.77997 13.1584C7.81685 13.3689 7.90244 13.5677 8.02989 13.7392C8.15733 13.9107 8.32311 14.05 8.51398 14.146C8.70485 14.2419 8.91552 14.292 9.12917 14.292H9.93369L9.40015 19.6274C9.36616 19.9673 9.56498 20.2876 9.88467 20.4079C10.2044 20.5282 10.565 20.4185 10.7635 20.1405L16.9277 11.5107C17.0918 11.281 17.1138 10.9787 16.9846 10.7277C16.8554 10.4766 16.5967 10.3188 16.3143 10.3188H15.0681L15.9259 8.60287C16.0301 8.39398 16.0795 8.16157 16.0689 7.92832C16.0583 7.69508 15.9883 7.46841 15.8655 7.26984C15.7427 7.07126 15.5711 6.90736 15.3672 6.79369C15.1633 6.68002 14.9337 6.62035 14.7002 6.62034H10.6088Z" fill="#2D373D"/>
</svg>
