<svg width="64" height="65" viewBox="0 0 64 65" fill="none" xmlns="http://www.w3.org/2000/svg">
<path d="M44.6663 14.4635C44.6663 15.5681 45.5618 16.4635 46.6663 16.4635C47.7709 16.4635 48.6663 15.5681 48.6663 14.4635L48.6663 7.79687C48.6663 6.6923 47.7709 5.79688 46.6663 5.79688H39.9997C38.8951 5.79688 37.9997 6.6923 37.9997 7.79687C37.9997 8.90144 38.8951 9.79687 39.9997 9.79687L44.6663 9.79687L44.6663 14.4635Z" fill="#2D373D"/>
<path d="M28.5654 10.964C28.5184 10.9621 28.4665 10.9723 28.4045 11.0141C24.4429 13.6932 13.4325 21.5553 8.68958 25.9334C7.87794 26.6826 6.61262 26.6319 5.86341 25.8203C5.1142 25.0087 5.16482 23.7433 5.97646 22.9941C10.9662 18.3882 22.2071 10.3763 26.1638 7.70066C27.7484 6.62908 29.7354 6.76557 31.1847 7.85253L51.1997 22.8637C52.0833 23.5265 52.2624 24.7801 51.5997 25.6637C50.9369 26.5474 49.6833 26.7265 48.7997 26.0637L28.7847 11.0525C28.694 10.9845 28.6161 10.966 28.5654 10.964Z" fill="#2D373D"/>
<path d="M13.333 25.1302C14.4376 25.1302 15.333 26.0256 15.333 27.1302V45.7969C15.333 46.1651 15.6315 46.4635 15.9997 46.4635H23.9997C25.1042 46.4635 25.9997 47.359 25.9997 48.4635C25.9997 49.5681 25.1042 50.4635 23.9997 50.4635H15.9997C13.4223 50.4635 11.333 48.3742 11.333 45.7969V27.1302C11.333 26.0256 12.2284 25.1302 13.333 25.1302Z" fill="#2D373D"/>
<path d="M46.6663 34.1302C44.8278 34.1302 42.4053 34.3248 40.42 35.6247C39.0993 36.4895 38.1012 37.7511 37.5336 39.4635H35.9997C35.0792 39.4635 34.333 40.2097 34.333 41.1302C34.333 42.0507 35.0792 42.7969 35.9997 42.7969H37.0033C37.0009 42.9068 36.9997 43.0179 36.9997 43.1302C36.9997 43.4744 37.008 43.8076 37.0247 44.1302H35.9997C35.0792 44.1302 34.333 44.8764 34.333 45.7969C34.333 46.7173 35.0792 47.4635 35.9997 47.4635H37.6059C38.1821 49.1757 39.1625 50.3801 40.519 51.1393C41.5799 51.7331 42.7264 51.9633 43.761 52.0601C44.6084 52.1395 45.4841 52.1353 46.2328 52.1316C46.3827 52.1309 46.5278 52.1302 46.6663 52.1302C47.5868 52.1302 48.333 51.384 48.333 50.4635C48.333 49.5431 47.5868 48.7969 46.6663 48.7969C46.4976 48.7969 46.3326 48.7976 46.1707 48.7982H46.1673C45.4219 48.8012 44.7409 48.804 44.0717 48.7413C43.2729 48.6665 42.6417 48.5075 42.147 48.2306C41.869 48.075 41.5684 47.8436 41.2933 47.4635H43.333C44.2535 47.4635 44.9997 46.7173 44.9997 45.7969C44.9997 44.8764 44.2535 44.1302 43.333 44.1302H40.3624C40.3432 43.8205 40.333 43.4878 40.333 43.1302C40.333 43.0166 40.3345 42.9055 40.3374 42.7969H45.333C46.2535 42.7969 46.9997 42.0507 46.9997 41.1302C46.9997 40.2097 46.2535 39.4635 45.333 39.4635H41.1946C41.5053 38.99 41.872 38.6583 42.246 38.4135C43.3718 37.6763 44.9493 37.4635 46.6663 37.4635C47.5868 37.4635 48.333 36.7173 48.333 35.7969C48.333 34.8764 47.5868 34.1302 46.6663 34.1302Z" fill="#2D373D"/>
<path fill-rule="evenodd" clip-rule="evenodd" d="M42.6663 59.1302C51.5029 59.1302 58.6663 51.9668 58.6663 43.1302C58.6663 34.2937 51.5029 27.1302 42.6663 27.1302C33.8298 27.1302 26.6663 34.2937 26.6663 43.1302C26.6663 51.9668 33.8298 59.1302 42.6663 59.1302ZM42.6663 55.1302C49.2938 55.1302 54.6663 49.7576 54.6663 43.1302C54.6663 36.5028 49.2938 31.1302 42.6663 31.1302C36.0389 31.1302 30.6663 36.5028 30.6663 43.1302C30.6663 49.7576 36.0389 55.1302 42.6663 55.1302Z" fill="#2D373D"/>
</svg>
