<svg width="24" height="25" viewBox="0 0 24 25" fill="none" xmlns="http://www.w3.org/2000/svg">
<path fill-rule="evenodd" clip-rule="evenodd" d="M4.25 9.32383C4.25 8.90961 4.58579 8.57383 5 8.57383H19C19.4142 8.57383 19.75 8.90961 19.75 9.32383V21.9238C19.75 22.338 19.4142 22.6738 19 22.6738H5C4.58579 22.6738 4.25 22.338 4.25 21.9238V9.32383ZM5.75 10.0738V21.1738H18.25V10.0738H5.75Z" fill="#2D373D"/>
<path fill-rule="evenodd" clip-rule="evenodd" d="M12 5.67383C10.501 5.67383 9.25 6.92976 9.25 8.52383C9.25 8.7863 9.28406 9.03931 9.34738 9.27889L7.89718 9.66217C7.80104 9.29843 7.75 8.91662 7.75 8.52383C7.75 6.14145 9.63301 4.17383 12 4.17383C14.367 4.17383 16.25 6.14145 16.25 8.52383C16.25 8.91662 16.199 9.29843 16.1028 9.66217L14.6526 9.27889C14.7159 9.03931 14.75 8.7863 14.75 8.52383C14.75 6.92976 13.499 5.67383 12 5.67383Z" fill="#2D373D"/>
<path d="M13.75 14.7238C13.75 15.7179 12.9665 16.5238 12 16.5238C11.0335 16.5238 10.25 15.7179 10.25 14.7238C10.25 13.7297 11.0335 12.9238 12 12.9238C12.9665 12.9238 13.75 13.7297 13.75 14.7238Z" fill="#2D373D"/>
</svg>
