<svg width="24" height="25" viewBox="0 0 24 25" fill="none" xmlns="http://www.w3.org/2000/svg">
<path fill-rule="evenodd" clip-rule="evenodd" d="M13.0452 3.71094H5.11867C4.62307 3.71094 4.14776 3.90781 3.79732 4.25826C3.44688 4.6087 3.25 5.084 3.25 5.5796V20.1223C3.25 20.6179 3.44688 21.0932 3.79732 21.4436C4.14776 21.7941 4.62307 21.9909 5.11867 21.9909H7.356C7.77021 21.9909 8.106 21.6552 8.106 21.2409C8.106 20.8267 7.77021 20.4909 7.356 20.4909H5.11867C5.02089 20.4909 4.92712 20.4521 4.85798 20.383C4.78884 20.3138 4.75 20.22 4.75 20.1223V5.5796C4.75 5.48183 4.78884 5.38806 4.85798 5.31892C4.92712 5.24978 5.02089 5.21094 5.11867 5.21094H12.1993V8.9356C12.1993 9.4312 12.3962 9.90651 12.7467 10.2569C13.0971 10.6074 13.5724 10.8043 14.068 10.8043H17.7927V13.4103C17.7927 13.8245 18.1285 14.1603 18.5427 14.1603C18.9569 14.1603 19.2927 13.8245 19.2927 13.4103V10.0576L19.2927 10.0543L19.2927 10.051V9.95791C19.2926 9.46265 19.0957 8.98757 18.7456 8.63726L14.367 4.25783C14.1934 4.08434 13.9873 3.94674 13.7605 3.8529C13.5338 3.75911 13.2905 3.71087 13.0452 3.71094ZM13.6993 5.71159L17.2914 9.30427H14.068C13.9702 9.30427 13.8765 9.26543 13.8073 9.19629C13.7382 9.12715 13.6993 9.03338 13.6993 8.9356V5.71159Z" fill="#2D373D"/>
<path d="M11.8656 14.7228C12.2798 14.7228 12.6156 15.0586 12.6156 15.4728V19.6678C12.6156 20.1449 12.4261 20.6024 12.0887 20.9397C11.7514 21.2771 11.2939 21.4666 10.8168 21.4666H9.76807C9.35385 21.4666 9.01807 21.1308 9.01807 20.7166C9.01807 20.3024 9.35385 19.9666 9.76807 19.9666H10.8168C10.896 19.9666 10.972 19.9351 11.0281 19.8791C11.0841 19.8231 11.1156 19.7471 11.1156 19.6678V15.4728C11.1156 15.0586 11.4514 14.7228 11.8656 14.7228Z" fill="#2D373D"/>
<path fill-rule="evenodd" clip-rule="evenodd" d="M13.2131 15.4728C13.2131 15.0586 13.5489 14.7228 13.9631 14.7228H14.4875C15.1036 14.7228 15.6945 14.9676 16.1302 15.4033C16.5659 15.8389 16.8106 16.4298 16.8106 17.046C16.8106 17.6621 16.5659 18.253 16.1302 18.6887C15.748 19.0708 15.2464 19.3061 14.7131 19.3581V20.7166C14.7131 21.1308 14.3773 21.4666 13.9631 21.4666C13.5489 21.4666 13.2131 21.1308 13.2131 20.7166V15.4728ZM14.7131 17.8376V16.2544C14.8467 16.2924 14.9696 16.364 15.0695 16.4639C15.2239 16.6183 15.3106 16.8277 15.3106 17.046C15.3106 17.2643 15.2239 17.4736 15.0695 17.628C14.9696 17.7279 14.8467 17.7995 14.7131 17.8376Z" fill="#2D373D"/>
<path d="M19.2068 16.2228C19.1276 16.2228 19.0516 16.2543 18.9956 16.3103C18.9396 16.3664 18.9081 16.4424 18.9081 16.5216V19.6678C18.9081 19.7471 18.9396 19.8231 18.9956 19.8791C19.0516 19.9351 19.1276 19.9666 19.2068 19.9666C19.2861 19.9666 19.362 19.9351 19.4181 19.8791C19.4741 19.8231 19.5056 19.7471 19.5056 19.6678V19.3346C19.2016 19.2388 18.9812 18.9547 18.9812 18.6191C18.9812 18.2049 19.317 17.8691 19.7312 17.8691H20.2556C20.6698 17.8691 21.0056 18.2049 21.0056 18.6191V19.6678C21.0056 20.1449 20.8161 20.6024 20.4787 20.9397C20.1414 21.2771 19.6839 21.4666 19.2068 21.4666C18.7298 21.4666 18.2723 21.2771 17.9349 20.9397C17.5976 20.6024 17.4081 20.1449 17.4081 19.6678V16.5216C17.4081 16.0445 17.5976 15.587 17.9349 15.2497C18.2723 14.9124 18.7298 14.7228 19.2068 14.7228H20.2556C20.6698 14.7228 21.0056 15.0586 21.0056 15.4728C21.0056 15.8871 20.6698 16.2228 20.2556 16.2228H19.2068Z" fill="#2D373D"/>
</svg>
