<svg width="64" height="65" viewBox="0 0 64 65" fill="none" xmlns="http://www.w3.org/2000/svg">
<path d="M54.5996 10.6609C53.1996 8.26093 49.7996 7.46093 47.3996 9.06093L10.9996 31.8609C9.59961 32.6609 8.59961 34.4609 8.59961 36.2609C8.59961 39.2609 10.9996 41.4609 13.9996 41.6609H23.3996V49.8609C23.3996 52.6609 25.5996 55.0609 28.5996 55.0609C29.5996 55.0609 30.7996 54.6609 31.7996 54.2609L36.3996 51.0609L38.9996 54.4609C39.7996 55.4609 40.7996 56.2609 42.1996 56.4609C42.5996 56.4609 42.7996 56.4609 43.1996 56.4609C45.5996 56.4609 47.7996 54.6609 48.3996 52.2609L55.3996 14.4609C55.5996 13.0609 55.3996 11.8609 54.5996 10.6609ZM13.7996 37.4609C13.1996 37.4609 12.5996 37.0609 12.5996 36.2609C12.5996 35.8609 12.7996 35.4609 13.1996 35.2609L46.9996 14.0609L29.1996 37.4609H13.7996ZM29.3996 50.6609C28.5996 51.2609 27.3996 50.6609 27.3996 49.6609V41.6609H29.3996L33.9996 47.6609L29.3996 50.6609ZM44.1996 51.2609C44.1996 51.8609 43.3996 52.4609 42.7996 52.2609C42.3996 52.2609 42.1996 52.0609 41.9996 51.8609L38.3996 47.0609L32.7996 39.4609L50.7996 15.8609L44.1996 51.2609Z" fill="#2D373D"/>
</svg>
