<svg width="64" height="64" viewBox="0 0 64 64" fill="none" xmlns="http://www.w3.org/2000/svg">
<path d="M46.8002 35.3998C47.0002 36.1998 47.8002 36.9998 48.6002 37.1998C48.8002 37.3998 49.2002 37.3998 49.4002 37.3998C51.0002 37.3998 52.2002 36.1998 52.2002 34.5998C52.2002 34.1998 52.2002 33.9998 52.0002 33.7998C51.8002 32.9998 51.0002 32.1998 50.2002 31.9998C50.0002 31.7998 49.6002 31.7998 49.4002 31.7998C49.2002 31.7998 48.8002 31.7998 48.6002 31.9998C47.8002 32.1998 47.0002 32.9998 46.8002 33.7998C46.6002 33.9998 46.6002 34.3998 46.6002 34.5998C46.6002 34.7998 46.6002 34.9998 46.8002 35.3998Z" fill="#2D373D"/>
<path d="M13.8002 37.1998C14.0002 37.3998 14.4002 37.3998 14.6002 37.3998C14.8002 37.3998 15.2002 37.3998 15.4002 37.1998C16.2002 36.9998 17.0002 36.1998 17.2002 35.3998C17.4002 35.1998 17.4002 34.7998 17.4002 34.5998C17.4002 34.3998 17.4002 33.9998 17.2002 33.7998C17.0002 32.9998 16.2002 32.1998 15.4002 31.9998C15.2002 31.7998 14.8002 31.7998 14.6002 31.7998C14.4002 31.7998 14.0002 31.7998 13.8002 31.9998C12.8002 31.9998 12.2002 32.7998 12.0002 33.5998C11.8002 33.7998 11.8002 34.1998 11.8002 34.3998C11.8002 34.5998 11.8002 34.9998 12.0002 35.1998C12.2002 36.1998 12.8002 36.7998 13.8002 37.1998Z" fill="#2D373D"/>
<path d="M53.2002 25.1999L50.0002 17.9999C49.0002 15.1999 46.2002 13.3999 43.4002 13.3999H20.6002C17.6002 13.3999 15.0002 15.1999 14.2002 17.7999L11.0002 24.9999C7.8002 25.3999 5.2002 27.9999 5.2002 31.3999V39.5999C5.2002 40.9999 5.8002 42.1999 6.8002 42.9999V44.9999C6.8002 47.9999 9.2002 50.3999 12.2002 50.3999C15.0002 50.3999 17.4002 47.9999 17.6002 44.9999V43.7999H46.4002V44.9999C46.4002 47.9999 48.8002 50.3999 51.8002 50.3999C54.8002 50.3999 57.2002 47.9999 57.2002 44.9999V42.9999C58.2002 42.1999 58.8002 40.9999 58.8002 39.5999V31.3999C58.8002 28.1999 56.4002 25.3999 53.2002 25.1999ZM17.8002 19.3999C18.2002 18.1999 19.4002 17.3999 20.6002 17.3999H43.4002C44.6002 17.3999 45.8002 18.1999 46.2002 19.3999L48.8002 24.9999H15.2002L17.8002 19.3999ZM9.2002 31.3999C9.2002 29.9999 10.2002 28.9999 11.8002 28.9999H52.4002C53.8002 28.9999 54.8002 29.9999 54.8002 31.3999V39.5999C54.8002 39.7999 54.8002 39.7999 54.6002 39.7999H9.4002C9.2002 39.7999 9.2002 39.7999 9.2002 39.5999V31.3999ZM13.6002 44.9999C13.6002 45.7999 13.0002 46.3999 12.2002 46.3999C11.4002 46.3999 10.8002 45.7999 10.8002 44.9999V43.7999H13.6002V44.9999ZM51.8002 46.3999C51.0002 46.3999 50.4002 45.7999 50.4002 44.9999V43.7999H53.2002V44.9999C53.2002 45.7999 52.6002 46.3999 51.8002 46.3999Z" fill="#2D373D"/>
</svg>
