<svg width="24" height="25" viewBox="0 0 24 25" fill="none" xmlns="http://www.w3.org/2000/svg">
<path d="M17.9996 2.41016H6.07461C4.94961 2.41016 4.04961 3.23516 3.97461 4.43516V21.1602C3.97461 21.6852 4.27461 22.2102 4.87461 22.3602C5.24961 22.5852 5.77461 22.5102 6.22461 22.2852L11.6246 19.5852C11.6246 19.5102 11.6996 19.5102 11.6996 19.5102C11.9246 19.3602 12.2246 19.3602 12.4496 19.5102C12.4496 19.5852 12.5246 19.5852 12.5246 19.5852L17.9246 22.2852C18.1496 22.4352 18.3746 22.5102 18.6746 22.5102C18.8996 22.5102 19.0496 22.5102 19.2746 22.3602C19.7996 22.2102 20.0996 21.6852 20.0996 21.1602V4.36016C20.0246 3.23516 19.1246 2.41016 17.9996 2.41016ZM18.5996 21.0102L13.1996 18.3102C12.4496 17.8602 11.5496 17.8602 10.8746 18.3102L5.47461 21.0102V4.43516C5.47461 4.13516 5.69961 3.91016 5.99961 3.91016H17.9996C18.2246 3.91016 18.5246 4.13516 18.5246 4.43516V21.0102H18.5996Z" fill="#2D373D"/>
<path d="M15.2248 8.78516H13.9498L13.1248 7.13516C13.0498 6.91016 12.8248 6.76016 12.5998 6.61016C12.2998 6.46016 11.9248 6.46016 11.6248 6.53516C11.2498 6.61016 11.0248 6.83516 10.8748 7.13516L10.0498 8.78516H8.77476C8.47476 8.78516 8.17476 8.93516 7.87476 9.16016C7.64976 9.38516 7.49976 9.76016 7.49976 10.0602C7.49976 10.4352 7.64976 10.7352 7.87476 10.9602L9.14976 12.1602L8.47476 13.7352C8.32476 14.1102 8.32476 14.5602 8.54976 14.8602C8.84976 15.4602 9.59976 15.6852 10.1998 15.3102L11.9998 14.3352L13.7998 15.3102C13.9498 15.3852 14.1748 15.4602 14.3998 15.4602C14.6248 15.4602 14.7748 15.4602 14.8498 15.3852C15.1498 15.2352 15.3748 15.0102 15.5248 14.7102C15.6748 14.4102 15.6748 14.0352 15.5248 13.7352L14.8498 12.1602L16.1248 10.9602C16.3498 10.7352 16.4998 10.3602 16.4998 10.0602C16.4998 9.68516 16.3498 9.38516 16.1248 9.16016C15.8248 8.93516 15.5248 8.78516 15.2248 8.78516ZM13.4248 11.4102C13.1998 11.6352 13.1248 11.9352 13.2748 12.2352L13.8748 13.5852L12.3748 12.7602C12.2248 12.6852 12.1498 12.6852 11.9998 12.6852C11.9248 12.6852 11.7748 12.6852 11.6248 12.7602L10.1248 13.5852L10.7248 12.2352C10.8748 11.9352 10.7998 11.6352 10.5748 11.4102L9.44976 10.2852H10.5748C10.7998 10.2852 11.0998 10.1352 11.2498 9.91016L11.9998 8.33516L12.7498 9.91016C12.8998 10.1352 13.1248 10.2852 13.4248 10.2852H14.5498L13.4248 11.4102Z" fill="#2D373D"/>
</svg>
