<svg width="16" height="17" viewBox="0 0 16 17" fill="none" xmlns="http://www.w3.org/2000/svg">
<path d="M10.3001 10.3612C10.0501 10.1612 9.75005 10.0112 9.40005 10.0112C9.05005 10.0112 8.75005 10.1112 8.50005 10.3612C8.45005 10.4112 8.40005 10.4112 8.35005 10.4112C8.35005 10.4112 8.25005 10.4112 8.20005 10.3612L6.10005 8.26116C6.00005 8.16116 6.00005 8.01116 6.10005 7.91116C6.35005 7.66116 6.45005 7.31116 6.45005 7.01116C6.45005 6.71116 6.35005 6.36116 6.10005 6.11116L4.80005 4.81116C4.30005 4.31116 3.55005 4.31116 3.05005 4.81116L2.75005 5.11116C1.85005 6.01116 1.70005 7.41116 2.40005 8.51116C3.85005 10.7112 5.70005 12.5612 7.90005 14.0112C8.35005 14.3112 8.85005 14.4612 9.35005 14.4612C10.0501 14.4612 10.7501 14.2112 11.3001 13.7112L11.6001 13.4112C12.1001 12.9112 12.1001 12.1612 11.6001 11.6612L10.3001 10.3612ZM10.8501 12.7112L10.5501 13.0112C10.0001 13.6112 9.10005 13.6612 8.45005 13.2612C6.35005 11.8612 4.60005 10.0612 3.20005 8.01116C2.80005 7.31116 2.90005 6.41116 3.45005 5.86116L3.80005 5.51116C3.85005 5.46116 3.90005 5.46116 3.95005 5.46116C4.00005 5.46116 4.05005 5.51116 4.10005 5.56116L5.40005 6.86116C5.50005 6.96116 5.50005 7.11116 5.40005 7.21116C4.90005 7.71116 4.90005 8.46116 5.40005 8.96116L7.50005 11.0612C7.75005 11.2612 8.05005 11.4112 8.40005 11.4112C8.70005 11.4112 9.00005 11.3112 9.25005 11.0612C9.30005 11.0112 9.35005 11.0112 9.40005 11.0112C9.40005 11.0112 9.50005 11.0112 9.55005 11.0612L10.8501 12.3612C10.9501 12.4612 10.9501 12.6112 10.8501 12.7112Z" fill="#2D373D"/>
<path d="M9.3499 8.81108C9.3499 9.11108 9.5499 9.31108 9.8499 9.31108C10.0999 9.31108 10.3499 9.11108 10.3499 8.81108C10.3499 7.31108 9.1499 6.11108 7.6499 6.11108C7.3499 6.11108 7.1499 6.31108 7.1499 6.61108C7.1499 6.91108 7.3499 7.11108 7.6499 7.11108C8.5999 7.11108 9.3499 7.86108 9.3499 8.81108Z" fill="#2D373D"/>
<path d="M7.6001 4.26111C7.3001 4.26111 7.1001 4.46111 7.1001 4.76111C7.1001 5.06111 7.3001 5.26111 7.6001 5.26111C9.5501 5.26111 11.1501 6.86111 11.1501 8.81111C11.1501 9.11111 11.3501 9.31111 11.6501 9.31111C11.9501 9.31111 12.1501 9.11111 12.1501 8.81111C12.1501 6.31111 10.1001 4.26111 7.6001 4.26111Z" fill="#2D373D"/>
<path d="M7.6001 2.41113C7.3001 2.41113 7.1001 2.61113 7.1001 2.91113C7.1001 3.21113 7.3001 3.41113 7.6001 3.41113C10.6001 3.41113 13.0001 5.81113 13.0001 8.81113C13.0001 9.11113 13.2001 9.31113 13.5001 9.31113C13.8001 9.31113 14.0001 9.11113 14.0001 8.81113C14.0001 5.26113 11.1501 2.41113 7.6001 2.41113Z" fill="#2D373D"/>
</svg>
