<svg width="32" height="33" viewBox="0 0 32 33" fill="none" xmlns="http://www.w3.org/2000/svg">
<path d="M17.7201 18.5407C17.5189 16.8688 16.7069 15.3302 15.4401 14.2207C14.5911 13.4976 13.5803 12.9899 12.4934 12.7407C13.4275 12.37 14.2032 11.6853 14.6869 10.8043C15.1705 9.92334 15.3319 8.90131 15.1432 7.91418C14.9545 6.92705 14.4276 6.0366 13.6531 5.39614C12.8786 4.75567 11.9051 4.40527 10.9001 4.40527C9.89505 4.40527 8.9215 4.75567 8.14701 5.39614C7.37252 6.0366 6.84557 6.92705 6.65688 7.91418C6.46819 8.90131 6.62956 9.92334 7.11323 10.8043C7.59689 11.6853 8.37257 12.37 9.30672 12.7407C8.21559 12.9894 7.20033 13.497 6.34672 14.2207C5.04522 15.3149 4.19889 16.8554 3.97339 18.5407C3.94117 18.6776 3.93817 18.8197 3.96459 18.9578C3.99101 19.0959 4.04626 19.2268 4.12672 19.3421C4.20718 19.4574 4.31105 19.5545 4.43155 19.6269C4.55205 19.6993 4.68648 19.7456 4.82605 19.7625C4.96562 19.7795 5.1072 19.7669 5.24155 19.7254C5.3759 19.684 5.5 19.6147 5.60575 19.522C5.71151 19.4294 5.79653 19.3155 5.85529 19.1877C5.91404 19.06 5.94519 18.9213 5.94672 18.7807C6.10606 17.6011 6.68323 16.5177 7.57338 15.7274C8.46871 14.9508 9.61487 14.5245 10.8001 14.5274C11.9809 14.5266 13.1221 14.9528 14.0134 15.7274C14.9035 16.5177 15.4807 17.6011 15.6401 18.7807C15.6693 19.0223 15.7856 19.245 15.9672 19.407C16.1489 19.569 16.3833 19.6592 16.6267 19.6607H16.7467C16.8872 19.6601 17.0259 19.6295 17.1536 19.571C17.2813 19.5124 17.395 19.4273 17.4872 19.3213C17.5793 19.2152 17.6478 19.0907 17.6879 18.9561C17.7281 18.8215 17.739 18.6799 17.7201 18.5407ZM8.56005 8.76737C8.56531 8.31233 8.70505 7.86901 8.96169 7.4932C9.21833 7.1174 9.58039 6.8259 10.0023 6.6554C10.4242 6.48489 10.8872 6.443 11.3328 6.53499C11.7785 6.62698 12.187 6.84875 12.507 7.17238C12.8269 7.49601 13.044 7.90704 13.1308 8.35375C13.2177 8.80045 13.1705 9.26287 12.9951 9.68281C12.8198 10.1027 12.5241 10.4614 12.1454 10.7137C11.7667 10.966 11.3218 11.1007 10.8667 11.1007C10.5615 11.1007 10.2594 11.0402 9.97779 10.9226C9.69618 10.805 9.4407 10.6327 9.22616 10.4157C9.01161 10.1987 8.84226 9.94123 8.72792 9.65829C8.61358 9.37534 8.55652 9.07252 8.56005 8.76737Z" fill="#2D373D"/>
<path d="M17.8667 13.5807C18.1872 13.2158 18.5563 12.8313 19.0001 12.634C19.4402 12.4361 19.9174 12.3337 20.4001 12.3337C20.8827 12.3337 21.3599 12.4361 21.8001 12.634C22.2438 12.8313 22.6396 13.1224 22.96 13.4874C23.0533 13.5942 23.168 13.6802 23.2966 13.7399C23.4252 13.7997 23.5649 13.8317 23.7067 13.834C23.953 13.837 24.1912 13.7465 24.3734 13.5807C24.5534 13.4107 24.6629 13.1792 24.6802 12.9322C24.6975 12.6853 24.6213 12.4408 24.4667 12.2474C23.9589 11.673 23.3306 11.2178 22.6267 10.914C23.2096 10.4541 23.6348 9.82404 23.8432 9.11136C24.0515 8.39868 24.0327 7.63879 23.7893 6.93731C23.5459 6.23583 23.09 5.6276 22.485 5.19714C21.88 4.76668 21.1559 4.53538 20.4134 4.53538C19.6709 4.53538 18.9468 4.76668 18.3418 5.19714C17.7368 5.6276 17.2809 6.23583 17.0375 6.93731C16.7941 7.63879 16.7753 8.39868 16.9836 9.11136C17.1919 9.82404 17.6171 10.4541 18.2 10.914C17.4981 11.2211 16.8705 11.6759 16.36 12.2474C16.1832 12.4472 16.093 12.709 16.1093 12.9753C16.1255 13.2416 16.2469 13.4906 16.4467 13.6674C16.6465 13.8442 16.9084 13.9344 17.1747 13.9181C17.441 13.9019 17.6899 13.7805 17.8667 13.5807ZM20.4001 6.4607C20.7118 6.46072 21.0165 6.55334 21.2755 6.72681C21.5345 6.90029 21.7362 7.1468 21.8549 7.43507C21.9735 7.72334 22.0039 8.04036 21.9421 8.34592C21.8803 8.65147 21.7291 8.93178 21.5078 9.15128C21.2864 9.37077 21.0048 9.51956 20.6987 9.57875C20.3927 9.63794 20.0759 9.60488 19.7887 9.48375C19.5014 9.36262 19.2566 9.15889 19.0854 8.8984C18.9141 8.63792 18.8241 8.33243 18.8267 8.0207C18.8302 7.60575 18.9975 7.20898 19.2922 6.9168C19.5869 6.62462 19.9851 6.46069 20.4001 6.4607Z" fill="#2D373D"/>
<path d="M26.5334 19.3407V18.6607C26.4973 17.9051 26.2477 17.1752 25.8136 16.5557C25.3794 15.9362 24.7785 15.4526 24.0806 15.1608C23.3826 14.8691 22.6163 14.7812 21.8704 14.9075C21.1246 15.0337 20.4298 15.3689 19.8667 15.874C19.1065 16.6049 18.6656 17.6064 18.6401 18.6607V19.3407C18.2038 19.5342 17.8331 19.85 17.5727 20.25C17.3124 20.6499 17.1737 21.1168 17.1734 21.594V25.994C17.1769 26.318 17.2441 26.638 17.3713 26.936C17.4985 27.2339 17.6831 27.5039 17.9147 27.7305C18.1462 27.957 18.4201 28.1358 18.7207 28.2565C19.0213 28.3772 19.3428 28.4376 19.6667 28.434H25.5334C26.1784 28.4271 26.795 28.1678 27.2511 27.7117C27.7071 27.2556 27.9664 26.639 27.9734 25.994V21.594C27.9754 21.1198 27.8406 20.6549 27.5852 20.2553C27.3298 19.8557 26.9646 19.5381 26.5334 19.3407ZM20.6667 18.6607C20.6739 18.1606 20.8746 17.6826 21.2267 17.3274C21.5964 16.9737 22.0884 16.7763 22.6 16.7763C23.1117 16.7763 23.6037 16.9737 23.9734 17.3274C24.3279 17.681 24.529 18.16 24.5334 18.6607V19.1007H20.6667V18.6607ZM26 25.994C26 26.1178 25.9509 26.2365 25.8634 26.324C25.7758 26.4115 25.6572 26.4607 25.5334 26.4607H19.6667C19.543 26.4607 19.4243 26.4115 19.3367 26.324C19.2492 26.2365 19.2001 26.1178 19.2001 25.994V21.594C19.2001 21.4703 19.2492 21.3516 19.3367 21.2641C19.4243 21.1765 19.543 21.1274 19.6667 21.1274H25.5334C25.6572 21.1274 25.7758 21.1765 25.8634 21.2641C25.9509 21.3516 26 21.4703 26 21.594V25.994Z" fill="#2D373D"/>
<path d="M22.5867 25.1674C23.3231 25.1674 23.9201 24.5704 23.9201 23.834C23.9201 23.0977 23.3231 22.5007 22.5867 22.5007C21.8503 22.5007 21.2534 23.0977 21.2534 23.834C21.2534 24.5704 21.8503 25.1674 22.5867 25.1674Z" fill="#2D373D"/>
</svg>
