<svg width="16" height="17" viewBox="0 0 16 17" fill="none" xmlns="http://www.w3.org/2000/svg">
<path d="M6.76692 3.89766C6.4894 3.89766 6.26442 4.12264 6.26442 4.40017C6.26442 4.6777 6.4894 4.90269 6.76692 4.90269H9.2325C9.51002 4.90269 9.73499 4.6777 9.73499 4.40017C9.73499 4.12264 9.51002 3.89766 9.2325 3.89766H6.76692Z" fill="#2D373D"/>
<path d="M9.23164 11.2947C8.95412 11.2947 8.72915 11.5196 8.72915 11.7972C8.72915 12.0747 8.95412 12.2997 9.23164 12.2997H10.8754C11.1529 12.2997 11.3779 12.0747 11.3779 11.7972C11.3779 11.5196 11.1529 11.2947 10.8754 11.2947H9.23164Z" fill="#2D373D"/>
<path d="M4.62018 11.7972C4.62018 11.5196 4.84516 11.2947 5.12268 11.2947H6.7664C7.04392 11.2947 7.26889 11.5196 7.26889 11.7972C7.26889 12.0747 7.04392 12.2997 6.7664 12.2997H5.12268C4.84516 12.2997 4.62018 12.0747 4.62018 11.7972Z" fill="#2D373D"/>
<path fill-rule="evenodd" clip-rule="evenodd" d="M2.97725 5.72459V12.3451C2.97725 12.9455 3.30826 13.4685 3.79773 13.7417V14.2628C3.79773 14.6141 3.93726 14.951 4.18563 15.1993C4.43399 15.4477 4.77085 15.5872 5.12209 15.5872C5.47333 15.5872 5.81019 15.4477 6.05855 15.1993C6.30692 14.951 6.44645 14.6141 6.44645 14.2628V13.9435H9.55094V14.2628C9.55094 14.6141 9.69047 14.951 9.93883 15.1993C10.1872 15.4477 10.5241 15.5872 10.8753 15.5872C11.2265 15.5872 11.5634 15.4477 11.8118 15.1993C12.0601 14.951 12.1997 14.6141 12.1997 14.2628V13.7432C12.6905 13.4704 13.0227 12.9465 13.0227 12.3451V5.72459H13.342C13.4267 5.72459 13.5079 5.75823 13.5678 5.81813C13.6277 5.87802 13.6613 5.95926 13.6613 6.04396V7.68773C13.6613 7.96526 13.8863 8.19024 14.1638 8.19024C14.4414 8.19024 14.6663 7.96526 14.6663 7.68773V6.04396C14.6663 5.69271 14.5268 5.35584 14.2784 5.10747C14.0301 4.8591 13.6932 4.71956 13.342 4.71956H13.0227V3.85227C13.0227 2.96952 12.3071 2.25391 11.4244 2.25391H4.57556C3.69283 2.25391 2.97725 2.96952 2.97725 3.85227V4.71956H2.65736C2.30612 4.71956 1.96927 4.8591 1.7209 5.10747C1.47254 5.35584 1.33301 5.69271 1.33301 6.04396V7.68773C1.33301 7.96526 1.55798 8.19024 1.83551 8.19024C2.11303 8.19024 2.338 7.96526 2.338 7.68773V6.04396C2.338 5.95926 2.37165 5.87802 2.43154 5.81813C2.49144 5.75823 2.57267 5.72459 2.65736 5.72459H2.97725ZM3.98224 3.85227C3.98224 3.52457 4.24788 3.25893 4.57556 3.25893H11.4244C11.7521 3.25893 12.0177 3.52457 12.0177 3.85227V5.21358L12.0176 5.22207L12.0177 5.23056V9.65087H3.98224V3.85227ZM3.98224 10.6559H12.0177V12.3451C12.0177 12.6145 11.8382 12.8419 11.5923 12.9143C11.5786 12.9172 11.5651 12.9207 11.5519 12.9247C11.5108 12.9337 11.4682 12.9384 11.4244 12.9384H4.57556C4.52737 12.9384 4.48053 12.9327 4.43567 12.9218C4.42959 12.9201 4.42346 12.9186 4.41729 12.9171C4.16645 12.8478 3.98224 12.618 3.98224 12.3451V10.6559ZM5.44145 13.9435H4.80273V14.2628C4.80273 14.3475 4.83638 14.4288 4.89627 14.4887C4.95616 14.5486 5.03739 14.5822 5.12209 14.5822C5.20679 14.5822 5.28802 14.5486 5.34791 14.4887C5.4078 14.4288 5.44145 14.3475 5.44145 14.2628V13.9435ZM10.5559 13.9435V14.2628C10.5559 14.3475 10.5896 14.4288 10.6495 14.4887C10.7094 14.5486 10.7906 14.5822 10.8753 14.5822C10.96 14.5822 11.0412 14.5486 11.1011 14.4887C11.161 14.4288 11.1947 14.3475 11.1947 14.2628V13.9435H10.5559Z" fill="#2D373D"/>
</svg>
