<svg width="16" height="16" viewBox="0 0 16 16" fill="none" xmlns="http://www.w3.org/2000/svg">
<path d="M13.8502 8.90007L13.3002 8.40007L12.9502 8.75007L13.2502 8.35008C13.1502 8.25008 13.1002 8.15007 13.1002 8.00007C13.1002 7.85007 13.1502 7.75007 13.2502 7.65007L13.8002 7.15007C14.1502 6.85007 14.3002 6.40007 14.3002 5.95007C14.2502 5.55007 14.1002 5.15007 13.8002 4.90007C13.5002 4.60007 13.1002 4.45007 12.7002 4.50007H12.0002C11.7002 4.45007 11.5002 4.25007 11.5002 3.95007L11.5502 3.25007C11.5502 2.80007 11.4002 2.35007 11.0502 2.05007C10.4002 1.50007 9.4502 1.55007 8.9002 2.15007L8.4002 2.70007C8.4002 2.75007 8.3502 2.75007 8.3502 2.75007C8.2502 2.85007 8.1502 2.90007 8.0002 2.90007C7.8502 2.90007 7.7502 2.85007 7.6502 2.75007L7.1502 2.20007C6.85019 1.85007 6.4002 1.70007 5.9502 1.70007C5.5502 1.70007 5.1502 1.90007 4.9002 2.20007C4.6002 2.50007 4.5002 2.90007 4.5002 3.30007L4.5502 4.00007V4.05007C4.5502 4.20007 4.5002 4.35007 4.3502 4.40007C4.2502 4.50007 4.1502 4.55007 4.0002 4.55007L3.3002 4.50007C2.8502 4.50007 2.4002 4.65007 2.1002 5.00007C1.5502 5.65007 1.6002 6.60007 2.2002 7.15007L2.7002 7.55008L2.7502 7.60007C2.8502 7.70007 2.9002 7.80007 2.9002 7.95007C2.9002 8.10007 2.8502 8.20008 2.7502 8.30008L2.2002 8.80008C1.8502 9.10008 1.7002 9.55007 1.7002 10.0001C1.7502 10.8501 2.4502 11.5001 3.3002 11.4501L4.0002 11.4001H4.0502C4.3502 11.4501 4.5502 11.6501 4.5502 11.9501L4.5002 12.7001C4.5002 13.1501 4.6502 13.6001 5.0002 13.9001C5.2502 14.1501 5.6502 14.3001 6.0002 14.3001C6.4502 14.3001 6.85019 14.1501 7.1502 13.9501L7.6502 13.4001C7.7002 13.3501 7.7002 13.3501 7.7002 13.3501C7.8002 13.2501 7.9002 13.2001 8.0502 13.2001C8.2002 13.2001 8.3002 13.2501 8.4002 13.3501L8.9002 13.9001C9.2002 14.2501 9.6502 14.4001 10.1002 14.4001C10.5002 14.3501 10.9002 14.2001 11.1502 13.9001C11.4502 13.6001 11.5502 13.2001 11.5502 12.8001L11.5002 12.0501V12.0001C11.5502 11.7001 11.7502 11.5001 12.0502 11.5001L12.7502 11.5501C13.2002 11.5501 13.6502 11.4001 13.9502 11.0501C14.2502 10.7501 14.3502 10.3501 14.3502 9.95007C14.3502 9.55007 14.1502 9.15007 13.8502 8.90007ZM13.2002 10.4001C13.1002 10.5001 12.9502 10.5501 12.8002 10.5501L12.1002 10.5001C11.2502 10.5001 10.5502 11.1001 10.5002 11.9501C10.5002 12.0001 10.5002 12.0501 10.5002 12.1001L10.5502 12.8001C10.5502 12.9001 10.5002 13.0501 10.4002 13.1501C10.3002 13.2501 10.2002 13.3001 10.0502 13.3001C9.9002 13.3001 9.7502 13.2501 9.6502 13.1501L9.1502 12.6001C8.85019 12.3001 8.5002 12.1001 8.1002 12.1001C7.7002 12.1001 7.3002 12.2501 7.0002 12.5001C6.9502 12.5501 6.9502 12.5501 6.9002 12.6001L6.4002 13.1501C6.3002 13.2501 6.2002 13.3001 6.0502 13.3001C5.9502 13.3001 5.8002 13.2501 5.7002 13.1501C5.6002 13.0501 5.5502 12.9001 5.5502 12.7501L5.6002 12.0501C5.6002 11.2001 5.0002 10.5001 4.1502 10.4501C4.1002 10.4501 4.1002 10.4501 4.0502 10.4501C4.0002 10.4501 4.0002 10.4501 3.9502 10.4501L3.2502 10.5001C2.9502 10.5001 2.7002 10.3001 2.7002 10.0001C2.7002 9.85007 2.7502 9.70007 2.8502 9.65007L3.4002 9.15007C3.7002 8.85007 3.9002 8.50008 3.9002 8.10008C3.9002 7.70008 3.7502 7.30008 3.5002 7.00007C3.4502 6.95007 3.4502 6.95008 3.4002 6.90007L2.8502 6.40007C2.6502 6.20008 2.6502 5.90007 2.8502 5.70007C2.9502 5.55007 3.1002 5.50007 3.2502 5.50007L3.9502 5.55007C4.8002 5.60007 5.5002 4.95007 5.5502 4.10007C5.5502 4.05007 5.5502 4.00007 5.5502 3.95007L5.5002 3.25007C5.5002 3.10007 5.5502 2.95007 5.6502 2.85007C5.7502 2.75007 5.8502 2.70007 6.0002 2.70007C6.1502 2.70007 6.3002 2.75007 6.5002 2.95007L7.0002 3.50007C7.3002 3.80007 7.6502 4.00007 8.0502 4.00007C8.4502 4.00007 8.85019 3.85007 9.1502 3.60007C9.2002 3.55007 9.2002 3.55007 9.2502 3.50007L9.7502 2.95007C9.9002 2.75007 10.2502 2.70007 10.4502 2.90007C10.5502 3.00007 10.6002 3.15007 10.6002 3.30007L10.5502 4.00007C10.5502 4.85007 11.1502 5.55007 12.0002 5.60007C12.0502 5.60007 12.1002 5.60007 12.1502 5.60007L12.8502 5.55007C12.9502 5.55007 13.1002 5.60007 13.2002 5.70007C13.3002 5.80007 13.3502 5.90007 13.3502 6.05008C13.3502 6.20008 13.3002 6.35007 13.2002 6.45007L12.6502 6.95007C12.3502 7.25007 12.1502 7.60007 12.1502 8.00007C12.1502 8.40007 12.3002 8.80008 12.5502 9.10008C12.6002 9.15008 12.6002 9.15007 12.6502 9.20007L13.2002 9.70007C13.3002 9.80007 13.3502 9.95007 13.3502 10.0501C13.3502 10.1501 13.3002 10.3001 13.2002 10.4001Z" fill="#2D373D"/>
<path d="M8.0002 5.20007C6.4502 5.20007 5.2002 6.45007 5.2002 8.05007C5.2002 9.60007 6.4502 10.8501 8.0002 10.8501C8.7502 10.8501 9.4502 10.5501 9.9502 10.0001C10.5002 9.45007 10.8002 8.75007 10.8002 8.00007C10.8002 6.45007 9.5502 5.20007 8.0002 5.20007ZM9.3002 9.25007C8.9502 9.60007 8.5002 9.80007 8.0002 9.80007C7.0002 9.80007 6.2002 9.00007 6.2002 8.00007C6.2002 7.00007 7.0502 6.15007 8.0502 6.15007C9.0502 6.15007 9.8502 6.95007 9.8502 7.95007C9.8502 8.45007 9.6502 8.90007 9.3002 9.25007Z" fill="#2D373D"/>
</svg>
