<svg width="64" height="65" viewBox="0 0 64 65" fill="none" xmlns="http://www.w3.org/2000/svg">
<path fill-rule="evenodd" clip-rule="evenodd" d="M31.9997 10.2578C27.5166 10.2578 23.1343 11.5872 19.4068 14.0778C15.6792 16.5685 12.774 20.1085 11.0584 24.2503C9.34283 28.3921 8.89396 32.9496 9.76855 37.3465C10.6432 41.7434 12.8019 45.7822 15.9719 48.9522C19.1419 52.1222 23.1807 54.281 27.5776 55.1556C31.9745 56.0302 36.5321 55.5813 40.6738 53.8657C44.8156 52.1502 48.3557 49.2449 50.8463 45.5174C53.337 41.7899 54.6664 37.4075 54.6664 32.9245C54.6664 29.9478 54.0801 27.0004 52.941 24.2503C51.8018 21.5003 50.1322 19.0015 48.0274 16.8967C45.9226 14.7919 43.4239 13.1223 40.6738 11.9832C37.9238 10.8441 34.9763 10.2578 31.9997 10.2578ZM17.1845 10.752C21.5698 7.82179 26.7255 6.25781 31.9997 6.25781C35.5016 6.25781 38.9692 6.94757 42.2046 8.28769C45.4399 9.62782 48.3796 11.5921 50.8559 14.0683C53.3321 16.5445 55.2964 19.4842 56.6365 22.7196C57.9766 25.9549 58.6664 29.4226 58.6664 32.9245C58.6664 38.1986 57.1024 43.3544 54.1722 47.7397C51.242 52.125 47.0773 55.5429 42.2046 57.5613C37.3319 59.5796 31.9701 60.1077 26.7973 59.0788C21.6245 58.0498 16.8729 55.5101 13.1435 51.7807C9.41411 48.0513 6.87435 43.2997 5.84541 38.1269C4.81647 32.9541 5.34456 27.5923 7.3629 22.7196C9.38124 17.8469 12.7992 13.6821 17.1845 10.752Z" fill="#2D373D"/>
<path fill-rule="evenodd" clip-rule="evenodd" d="M45.3915 22.7976C46.1864 23.5646 46.209 24.8307 45.442 25.6256L28.6765 43.0009C27.9238 43.7809 26.6868 43.8194 25.8871 43.0877L18.6527 36.4685C17.8377 35.7229 17.7816 34.4578 18.5272 33.6429C19.2728 32.828 20.5379 32.7718 21.3528 33.5174L27.1504 38.8218L42.5635 22.8481C43.3305 22.0532 44.5966 22.0306 45.3915 22.7976Z" fill="#2D373D"/>
</svg>
