<svg width="32" height="33" viewBox="0 0 32 33" fill="none" xmlns="http://www.w3.org/2000/svg">
<path d="M29.2205 12.4548L28.7805 14.0415C28.6338 14.5748 28.0738 14.8815 27.5538 14.7348C27.0205 14.5881 26.7138 14.0415 26.8605 13.5081L27.3005 11.9215C27.3805 11.6148 27.3138 11.2948 27.1272 11.0415C26.9405 10.7881 26.6472 10.6548 26.3272 10.6548H5.67385C5.35385 10.6548 5.06051 10.7881 4.87385 11.0415C4.68718 11.2948 4.62051 11.6148 4.71385 11.9215L7.48718 21.6415C7.60718 22.0681 8.00718 22.3615 8.44718 22.3615H12.7405C13.3005 22.3615 13.7405 22.8148 13.7405 23.3615C13.7405 23.9081 13.3005 24.3615 12.7405 24.3615H8.44718C7.11385 24.3615 5.92718 23.4681 5.56718 22.1881L2.78051 12.4681C2.52718 11.5615 2.70051 10.6015 3.27385 9.84147C3.84718 9.08147 4.72718 8.64147 5.67385 8.64147H7.19385L11.6072 3.90813C11.9938 3.50813 12.6205 3.48147 13.0205 3.8548C13.4205 4.22813 13.4472 4.86813 13.0738 5.26813L9.92718 8.64147H22.0872L18.9405 5.26813C18.5672 4.86813 18.5938 4.22813 18.9938 3.8548C19.3938 3.48147 20.0338 3.4948 20.4072 3.90813L24.8205 8.64147H26.3272C27.2738 8.64147 28.1405 9.08147 28.7138 9.82813C29.2872 10.5881 29.4738 11.5348 29.2205 12.4548Z" fill="#2D373D"/>
<path d="M29.2738 23.3321C28.9938 25.9188 27.7804 28.2921 26.0338 29.6921C24.5538 30.6788 23.0071 30.1588 22.0071 29.5054C21.3938 29.9054 20.5938 30.2521 19.7271 30.2521C19.1804 30.2654 18.5938 30.1188 18.0338 29.7454C15.6471 27.8254 14.2871 24.1988 14.7538 21.0654C15.0471 19.0921 16.0338 17.6654 17.5404 17.0654C18.7804 16.5721 19.9938 16.7321 21.0071 17.2521V16.6388C21.0071 16.0788 21.4471 15.6388 22.0071 15.6388C22.5671 15.6388 23.0071 16.0788 23.0071 16.6388V19.3588C23.0071 19.7854 22.7271 20.1721 22.3138 20.3054C21.9138 20.4388 21.4604 20.3054 21.2071 19.9588C21.1538 19.8921 19.9138 18.2654 18.2871 18.9188C17.1804 19.3588 16.8471 20.6388 16.7404 21.3588C16.4204 23.4521 17.2738 26.5721 19.2204 28.1321C20.0738 28.6921 21.2871 27.5321 21.3004 27.5188C21.6871 27.1321 22.3271 27.1321 22.7138 27.5188C22.7138 27.5321 23.9271 28.6921 24.8604 28.0788C26.1138 27.0654 27.0738 25.1454 27.2871 23.1188C27.4471 21.6254 27.1804 20.3321 26.5671 19.5588C26.5004 19.4788 26.4471 19.4121 26.3804 19.3454C25.9804 18.9721 25.9538 18.3321 26.3404 17.9321C26.7138 17.5321 27.3538 17.5188 27.7538 17.8921C27.8871 18.0254 28.0071 18.1588 28.1138 18.2921C29.0871 19.4921 29.5004 21.2788 29.2738 23.3321Z" fill="#2D373D"/>
<path d="M26.7137 15.3996C26.7137 15.9463 26.6471 16.8396 26.0871 17.3996C25.5404 17.9463 24.6471 18.0263 24.1004 18.013C23.8071 18.013 23.5804 17.7863 23.5804 17.493C23.5671 16.9463 23.6471 16.0663 24.2071 15.5063C24.7671 14.9463 25.6471 14.8663 26.1937 14.8796C26.4871 14.893 26.7137 15.1063 26.7137 15.3996Z" fill="#2D373D"/>
</svg>
