<svg width="32" height="32" viewBox="0 0 32 32" fill="none" xmlns="http://www.w3.org/2000/svg">
<path d="M27.0999 5.89998H25.0999C24.6999 4.89998 23.6999 4.19998 22.5999 4.19998H19.2999C18.4999 3.19998 17.2999 2.59998 15.9999 2.59998C14.6999 2.59998 13.3999 3.19998 12.6999 4.19998H9.3999C8.2999 4.19998 7.2999 4.89998 6.8999 5.89998H4.8999C4.2999 5.89998 3.8999 6.29998 3.8999 6.89998C3.8999 7.49998 4.2999 7.89998 4.8999 7.89998H6.8999C7.2999 8.89998 8.2999 9.59998 9.3999 9.59998H12.6999C12.7999 9.69998 12.7999 9.79998 12.8999 9.89998C10.2999 11.1 8.3999 13.7 8.3999 16.8V21.8C8.3999 24.2 10.2999 26.1 12.6999 26.1H13.2999V26.7C13.2999 27.4 13.5999 28.1 14.0999 28.6C14.5999 29.1 15.2999 29.4 15.9999 29.4C17.3999 29.4 18.5999 28.2 18.6999 26.6V26.1H19.2999C21.5999 26.1 23.5999 24.2 23.5999 21.8V16.8C23.5999 13.7 21.6999 11 19.0999 9.89998C19.1999 9.79998 19.1999 9.69998 19.2999 9.59998H22.5999C23.6999 9.59998 24.6999 8.89998 25.0999 7.89998H27.0999C27.5999 7.89998 28.0999 7.49998 28.0999 6.89998C28.0999 6.29998 27.6999 5.89998 27.0999 5.89998ZM11.7999 7.59998H9.3999C8.9999 7.59998 8.6999 7.29998 8.6999 6.89998C8.6999 6.49998 8.9999 6.19998 9.3999 6.19998H11.7999C11.7999 6.39998 11.6999 6.69998 11.6999 6.89998C11.6999 7.09998 11.7999 7.39998 11.7999 7.59998ZM15.9999 4.59998C17.1999 4.59998 18.2999 5.59998 18.2999 6.89998C18.2999 8.19998 17.2999 9.19998 15.9999 9.19998C14.6999 9.19998 13.6999 8.19998 13.6999 6.89998C13.6999 5.59998 14.6999 4.59998 15.9999 4.59998ZM16.5999 11.2V14.2H15.2999V11.2C15.4999 11.2 15.7999 11.2 15.9999 11.2C16.1999 11.2 16.3999 11.2 16.5999 11.2ZM16.6999 24.6C16.6999 24.7 16.6999 24.9 16.6999 25C16.6999 25.2 16.6999 25.3 16.6999 25.5V26.7C16.6999 27.1 16.3999 27.4 15.9999 27.4C15.7999 27.4 15.5999 27.4 15.4999 27.2C15.3999 27 15.2999 26.9 15.2999 26.7V25.5C15.2999 25.3 15.2999 25.2 15.2999 25.1C15.2999 25 15.2999 24.8 15.2999 24.6V20.2C15.2999 19.8 15.5999 19.5 15.9999 19.5C16.2999 19.5 16.5999 19.8 16.6999 20.2V24.6ZM21.5999 16.8V21.8C21.5999 23.1 20.5999 24.1 19.2999 24.1H18.6999V20C18.6999 18.6 17.4999 17.4 15.9999 17.4C14.4999 17.4 13.2999 18.6 13.2999 20.1V24.1H12.6999C11.3999 24.1 10.3999 23.1 10.3999 21.8V16.8C10.3999 14.7 11.5999 12.8 13.2999 11.9V14.4C13.2999 15.4 14.0999 16.2 15.0999 16.2H16.7999C17.7999 16.2 18.5999 15.4 18.5999 14.3V11.8C20.3999 12.8 21.5999 14.6 21.5999 16.8ZM22.5999 7.59998H20.1999C20.1999 7.39998 20.2999 7.09998 20.2999 6.89998C20.2999 6.69998 20.2999 6.39998 20.1999 6.19998H22.5999C22.9999 6.19998 23.2999 6.49998 23.2999 6.89998C23.2999 7.29998 22.9999 7.59998 22.5999 7.59998Z" fill="#2D373D"/>
</svg>
