<svg width="64" height="65" viewBox="0 0 64 65" fill="none" xmlns="http://www.w3.org/2000/svg">
<path fill-rule="evenodd" clip-rule="evenodd" d="M32.0006 55.5833C39.5588 55.5833 46.6673 48.44 46.6673 40.438C46.6673 38.5305 46.0924 35.5973 44.9444 32.0654C43.8203 28.6074 42.2386 24.8528 40.4418 21.3953C38.6327 17.9139 36.6827 14.8826 34.8694 12.7863C33.9608 11.7359 33.1805 11.0303 32.5677 10.6148C32.2628 10.4081 32.0625 10.3153 31.9584 10.2749C31.855 10.3152 31.6567 10.4075 31.3554 10.6123C30.7458 11.0266 29.9693 11.7308 29.0648 12.7805C27.2596 14.8755 25.3199 17.9057 23.521 21.3871C21.7345 24.8444 20.1628 28.5991 19.046 32.0579C17.9056 35.5897 17.334 38.5261 17.334 40.438C17.334 48.4401 24.4424 55.5833 32.0006 55.5833ZM32.0006 59.5833C41.8628 59.5833 50.6673 50.5531 50.6673 40.438C50.6673 30.3229 39.1008 6.25 31.9579 6.25C24.8151 6.25 13.334 30.3229 13.334 40.438C13.334 50.5531 22.1383 59.5833 32.0006 59.5833Z" fill="#2D373D"/>
<path fill-rule="evenodd" clip-rule="evenodd" d="M22.211 40.259C23.3105 40.1542 24.2869 40.9607 24.3916 42.0603C24.5395 43.612 25.3711 45.3751 26.6759 46.752C27.9792 48.1273 29.5552 48.9167 31.0673 48.9167C32.1719 48.9167 33.0673 49.8121 33.0673 50.9167C33.0673 52.0212 32.1719 52.9167 31.0673 52.9167C28.1609 52.9167 25.5998 51.4318 23.7724 49.5034C21.9466 47.5766 20.6542 45.0063 20.4097 42.4397C20.3049 41.3401 21.1114 40.3638 22.211 40.259Z" fill="#2D373D"/>
</svg>
