<svg width="32" height="33" viewBox="0 0 32 33" fill="none" xmlns="http://www.w3.org/2000/svg">
<path d="M18.4998 23.6242L19.0998 18.6242H19.6998C20.2998 18.6242 20.6998 18.2242 20.6998 17.6242V15.4242C20.6998 13.6242 19.6998 12.0242 18.1998 11.2242C19.0998 10.5242 19.5998 9.52422 19.5998 8.42422C19.5998 6.42422 17.9998 4.82422 15.9998 4.82422C13.9998 4.82422 12.3998 6.42422 12.3998 8.42422C12.3998 9.62422 12.9998 10.6242 13.7998 11.3242C12.2998 12.1242 11.2998 13.6242 11.2998 15.4242V17.6242C11.2998 18.2242 11.6998 18.6242 12.2998 18.6242H12.7998L13.3998 23.6242C13.4998 24.1242 13.8998 24.5242 14.3998 24.5242H17.3998C17.8998 24.5242 18.3998 24.1242 18.4998 23.6242ZM15.9998 6.82422C16.7998 6.82422 17.5998 7.52422 17.5998 8.42422C17.5998 9.32422 16.8998 10.0242 15.9998 10.0242C15.0998 10.0242 14.3998 9.32422 14.3998 8.42422C14.3998 7.52422 15.0998 6.82422 15.9998 6.82422ZM16.5998 22.5242H15.3998L14.7998 17.5242C14.6998 17.0242 14.2998 16.6242 13.7998 16.6242H13.2998V15.4242C13.2998 13.9242 14.4998 12.7242 15.9998 12.7242C17.4998 12.7242 18.6998 13.9242 18.6998 15.4242V16.6242H18.1998C17.6998 16.6242 17.2998 17.0242 17.1998 17.5242L16.5998 22.5242Z" fill="#2D373D"/>
<path d="M12.0998 25.8241L10.9998 21.8241C10.8998 21.2241 10.2998 20.9241 9.7998 21.1241C9.2998 21.2241 8.9998 21.8241 9.0998 22.3241L9.7998 24.6241C7.2998 23.9241 5.8998 22.9241 5.8998 22.0241C5.8998 21.3241 6.9998 20.2241 9.3998 19.4241C9.9998 19.3241 10.2998 18.7241 10.0998 18.2241C9.9998 17.6241 9.3998 17.3241 8.8998 17.5241C5.5998 18.5241 3.7998 20.1241 3.7998 22.0241C3.7998 23.8241 5.4998 25.4241 8.4998 26.4241L7.3998 27.0241C6.8998 27.3241 6.6998 27.9241 6.9998 28.4241C7.1998 28.7241 7.5998 28.9241 7.8998 28.9241C7.9998 28.9241 8.1998 28.9241 8.3998 28.8241L11.5998 26.9241C11.6998 26.9241 11.6998 26.8241 11.6998 26.8241C11.7998 26.7241 11.7998 26.7241 11.8998 26.6241C11.9998 26.5241 11.9998 26.4241 11.9998 26.3241C12.1998 26.1241 12.1998 26.0241 12.0998 25.8241Z" fill="#2D373D"/>
<path d="M22.9 17.6241C22.4 17.5241 21.9 17.8241 21.7 18.3241C21.6 18.8241 21.9 19.3241 22.4 19.5241C25 20.3241 26.1 21.4241 26.1 22.1241C26.1 23.5241 22.1 25.5241 16 25.5241C15.4 25.5241 15 25.9241 15 26.5241C15 27.1241 15.4 27.5241 16 27.5241C21.8 27.5241 28 25.6241 28 22.1241C28 20.2241 26.2 18.6241 22.9 17.6241Z" fill="#2D373D"/>
</svg>
