<svg width="32" height="33" viewBox="0 0 32 33" fill="none" xmlns="http://www.w3.org/2000/svg">
<path fill-rule="evenodd" clip-rule="evenodd" d="M5.95882 6.41927C6.05094 6.32714 6.17589 6.27539 6.30617 6.27539H15.7448V11.2403C15.7448 11.901 16.0073 12.5347 16.4745 13.0019C16.9417 13.4691 17.5753 13.7315 18.236 13.7315H23.2009V17.2052C23.2009 17.7575 23.6486 18.2052 24.2009 18.2052C24.7532 18.2052 25.2009 17.7575 25.2009 17.2052V12.7389L25.2009 12.7315L25.2009 12.7241V12.6031C25.2008 11.9428 24.9383 11.3094 24.4716 10.8424L18.6337 5.00449C18.1667 4.53777 17.5333 4.27553 16.873 4.27539H6.30617C5.64545 4.27539 5.0118 4.53786 4.54461 5.00505C4.07741 5.47225 3.81494 6.1059 3.81494 6.76662V26.1526C3.81494 26.8133 4.07741 27.447 4.54461 27.9142C5.0118 28.3813 5.64546 28.6438 6.30617 28.6438H9.28863C9.84091 28.6438 10.2886 28.1961 10.2886 27.6438C10.2886 27.0915 9.84091 26.6438 9.28863 26.6438H6.30617C6.17589 26.6438 6.05094 26.5921 5.95882 26.4999C5.8667 26.4078 5.81494 26.2829 5.81494 26.1526V6.76662C5.81494 6.63634 5.8667 6.51139 5.95882 6.41927ZM17.7448 6.94402V11.2403C17.7448 11.3706 17.7965 11.4955 17.8887 11.5877C17.9808 11.6798 18.1057 11.7315 18.236 11.7315H22.5323L17.7448 6.94402Z" fill="#2D373D"/>
<path d="M11.8997 19.2592C12.4125 19.0541 12.9945 19.3035 13.1996 19.8163L13.7623 21.2232L14.3251 19.8163C14.5302 19.3035 15.1122 19.0541 15.6249 19.2592C16.1377 19.4643 16.3871 20.0463 16.182 20.5591L14.8394 23.9158L16.182 27.2724C16.3871 27.7852 16.1377 28.3672 15.6249 28.5723C15.1122 28.7774 14.5302 28.528 14.3251 28.0152L13.7623 26.6083L13.1996 28.0152C12.9945 28.528 12.4125 28.7774 11.8997 28.5723C11.3869 28.3672 11.1375 27.7852 11.3426 27.2724L12.6853 23.9158L11.3426 20.5591C11.1375 20.0463 11.3869 19.4643 11.8997 19.2592Z" fill="#2D373D"/>
<path d="M18.236 19.1877C18.7883 19.1877 19.236 19.6354 19.236 20.1877V26.1526C19.236 26.2829 19.2878 26.4078 19.3799 26.4999C19.472 26.592 19.5969 26.6438 19.7272 26.6438H21.2185C21.7707 26.6438 22.2185 27.0915 22.2185 27.6438C22.2185 28.1961 21.7707 28.6438 21.2185 28.6438H19.7272C19.0665 28.6438 18.4329 28.3813 17.9657 27.9141C17.4985 27.4469 17.236 26.8133 17.236 26.1526V20.1877C17.236 19.6354 17.6837 19.1877 18.236 19.1877Z" fill="#2D373D"/>
<path d="M25.6922 19.1877C25.0315 19.1877 24.3979 19.4501 23.9307 19.9173C23.4635 20.3845 23.201 21.0182 23.201 21.6789C23.201 23.3026 24.3197 24.1384 25.0216 24.6629L25.0922 24.7157C25.8889 25.3132 26.1835 25.5951 26.1835 26.1526C26.1835 26.2829 26.1317 26.4078 26.0396 26.4999C25.9475 26.592 25.8225 26.6438 25.6922 26.6438H24.201C23.6487 26.6438 23.201 27.0915 23.201 27.6438C23.201 28.1961 23.6487 28.6438 24.201 28.6438H25.6922C26.3529 28.6438 26.9866 28.3813 27.4538 27.9141C27.921 27.4469 28.1835 26.8133 28.1835 26.1526C28.1835 24.5289 27.0648 23.693 26.3628 23.1686L26.2922 23.1157C25.4956 22.5183 25.201 22.2364 25.201 21.6789C25.201 21.5486 25.2528 21.4237 25.3449 21.3315C25.437 21.2394 25.562 21.1877 25.6922 21.1877H27.1835C27.7357 21.1877 28.1835 20.7399 28.1835 20.1877C28.1835 19.6354 27.7357 19.1877 27.1835 19.1877H25.6922Z" fill="#2D373D"/>
</svg>
