<svg width="24" height="25" viewBox="0 0 24 25" fill="none" xmlns="http://www.w3.org/2000/svg">
<path d="M18.0748 8.93672H15.5248V6.38672C15.5248 4.73672 14.2498 3.38672 12.5998 3.38672H11.4748C9.8248 3.38672 8.47481 4.73672 8.47481 6.38672V8.86172H5.9248C4.2748 8.86172 2.9248 10.2117 2.9248 11.8617V12.9867C2.9998 14.5617 4.2748 15.9117 5.9248 15.9117H8.3998V18.4617C8.3998 20.1117 9.7498 21.4617 11.3998 21.4617H12.5248C14.1748 21.4617 15.5248 20.1867 15.5248 18.5367V15.9867H18.0748C19.7248 15.9867 21.0748 14.7117 21.0748 13.0617V11.9367C21.0748 10.2867 19.7248 8.93672 18.0748 8.93672ZM19.6498 13.0617C19.6498 13.8117 18.9748 14.4867 18.1498 14.4867H14.8498C14.3998 14.4867 14.0998 14.7867 14.0998 15.2367V18.5367C14.0998 19.3617 13.4248 20.0367 12.5998 20.0367H11.4748C10.6498 20.0367 9.9748 19.3617 9.9748 18.5367V15.2367C9.9748 14.7867 9.6748 14.4867 9.2248 14.4867H5.9248C5.0998 14.4867 4.4248 13.8867 4.4248 13.0617V11.9367C4.4248 11.1117 5.0998 10.4367 5.9248 10.4367H9.29981C9.74981 10.4367 10.0498 10.1367 10.0498 9.68672V6.38672C10.0498 5.56172 10.7248 4.88672 11.5498 4.88672H12.6748C13.4248 4.96172 14.0998 5.56172 14.0998 6.38672V9.68672C14.0998 10.1367 14.3998 10.4367 14.8498 10.4367H18.1498C18.9748 10.4367 19.6498 11.1117 19.6498 11.9367V13.0617V13.0617Z" fill="#2D373D"/>
</svg>
