<svg width="32" height="33" viewBox="0 0 32 33" fill="none" xmlns="http://www.w3.org/2000/svg">
<path d="M20.3002 10.6606C20.3002 8.2606 18.4002 6.3606 16.0002 6.3606C13.6002 6.3606 11.7002 8.2606 11.7002 10.6606C11.7002 13.0606 13.6002 14.9606 16.0002 14.9606C18.3002 14.9606 20.3002 13.0606 20.3002 10.6606ZM13.7002 10.6606C13.7002 9.3606 14.7002 8.3606 16.0002 8.3606C17.2002 8.3606 18.3002 9.3606 18.3002 10.6606C18.3002 11.9606 17.3002 12.9606 16.0002 12.9606C14.7002 12.9606 13.7002 11.9606 13.7002 10.6606Z" fill="#2D373D"/>
<path d="M14.9003 22.3605C15.2003 22.6605 15.6003 22.7605 16.0003 22.7605C16.5003 22.7605 17.0003 22.5605 17.4003 22.0605C19.7003 19.1605 23.6003 13.7605 23.6003 10.6605C23.6003 6.46055 20.2003 3.06055 16.0003 3.06055C11.8003 3.06055 8.30029 6.46055 8.30029 10.6605C8.30029 13.7605 12.2003 19.1605 14.6003 22.0605C14.7003 22.1605 14.8003 22.2605 14.9003 22.3605ZM16.0003 5.06055C19.1003 5.06055 21.6003 7.56055 21.5003 10.6605C21.5003 12.7605 18.6003 17.1605 15.9003 20.6605C12.4003 16.2605 10.3003 12.4605 10.3003 10.6605C10.3003 7.56055 12.9003 5.06055 16.0003 5.06055Z" fill="#2D373D"/>
<path d="M17.8002 27.2605C17.8002 26.7605 17.6002 26.4605 17.2002 26.3605L15.8002 24.9605C15.4002 24.5605 14.8002 24.5605 14.4002 24.9605C14.1002 25.2605 14.0002 25.7605 14.3002 26.1605C9.4002 25.7605 6.2002 23.9605 6.2002 22.2605C6.2002 21.3605 7.20019 20.3605 8.90019 19.5605C9.40019 19.3605 9.60019 18.7605 9.40019 18.2605C9.20019 17.7605 8.6002 17.5605 8.1002 17.7605C5.6002 18.8605 4.2002 20.4605 4.2002 22.2605C4.2002 25.3605 8.50019 27.8605 14.4002 28.1605C14.0002 28.5605 14.0002 29.1605 14.4002 29.5605C14.6002 29.7605 14.8002 29.8605 15.1002 29.8605C15.4002 29.8605 15.6002 29.7605 15.8002 29.7605L17.5002 28.0605C17.8002 27.8605 17.8002 27.5605 17.8002 27.2605Z" fill="#2D373D"/>
<path d="M23.7001 17.7605C23.2001 17.5605 22.6001 17.7605 22.4001 18.2605C22.2001 18.7605 22.4001 19.3605 22.9001 19.5605C24.6001 20.3605 25.6001 21.3605 25.6001 22.2605C25.6001 23.5605 23.6001 24.9605 20.6001 25.6605C20.1001 25.7605 19.8001 26.3605 19.9001 26.8605C20.0001 27.3605 20.4001 27.6605 20.9001 27.6605H21.0001C25.1001 26.6605 27.6001 24.6605 27.6001 22.2605C27.6001 20.4605 26.2001 18.8605 23.7001 17.7605Z" fill="#2D373D"/>
</svg>
