<svg width="24" height="25" viewBox="0 0 24 25" fill="none" xmlns="http://www.w3.org/2000/svg">
<path d="M12.0004 12.6111C14.7754 12.6111 17.1004 10.3611 17.1004 7.51113C17.1004 4.66113 14.8504 2.41113 12.0004 2.41113C9.15039 2.41113 6.90039 4.73613 6.90039 7.51113C6.90039 10.2861 9.15039 12.6111 12.0004 12.6111ZM12.0004 3.91113C13.9504 3.91113 15.6004 5.48613 15.6004 7.51113C15.6004 9.53613 13.9504 11.1111 12.0004 11.1111C9.97539 11.1111 8.40039 9.53613 8.40039 7.51113C8.40039 5.48613 9.97539 3.91113 12.0004 3.91113Z" fill="#2D373D"/>
<path d="M12.0004 12.9111H11.9254C9.52539 12.9111 7.35039 13.8861 5.70039 15.5361C4.05039 17.1861 3.15039 19.4361 3.15039 21.7611C3.15039 22.2111 3.52539 22.5111 3.90039 22.5111C4.35039 22.5111 4.65039 22.2111 4.65039 21.7611C4.65039 19.8111 5.40039 17.9361 6.67539 16.5111C8.10039 15.1611 9.90039 14.3361 11.8504 14.3361H11.9254C15.9754 14.3361 19.2004 17.5611 19.2754 21.6111V21.7611C19.2754 22.1361 19.5754 22.5111 20.0254 22.5111C20.4754 22.5111 20.7754 22.2111 20.8504 21.7611V21.6111C20.7754 16.8111 16.8004 12.9111 12.0004 12.9111Z" fill="#2D373D"/>
</svg>
