<svg width="64" height="64" viewBox="0 0 64 64" fill="none" xmlns="http://www.w3.org/2000/svg">
<path d="M49.8001 34.0001C48.6001 34.0001 47.8001 34.8001 47.8001 36.0001V52.0001H38.8001V41.0001C38.8001 38.2001 36.4001 35.8001 33.6001 35.8001H30.4001C27.6001 35.8001 25.2001 38.2001 25.2001 41.0001V52.0001H16.2001V36.0001C16.2001 34.8001 15.4001 34.0001 14.2001 34.0001C13.0001 34.0001 12.2001 34.8001 12.2001 36.0001V54.0001C12.2001 55.2001 13.0001 56.0001 14.2001 56.0001H27.4001C28.6001 56.0001 29.4001 55.2001 29.4001 54.0001V41.0001C29.4001 40.4001 29.8001 39.8001 30.6001 39.8001H33.8001C34.4001 39.8001 35.0001 40.4001 35.0001 41.0001V54.0001C35.0001 55.2001 35.8001 56.0001 37.0001 56.0001H50.0001C51.0001 56.0001 52.0001 55.2001 51.8001 54.0001V36.0001C51.8001 34.8001 51.0001 34.0001 49.8001 34.0001Z" fill="#2D373D"/>
<path d="M58.0001 31.6L52.0001 25.6V15C52.0001 13.8 51.2001 13 50.0001 13H41.8001C41.0001 13 40.6001 13.4 40.2001 13.8L35.8001 9.39996C33.8001 7.39996 30.4001 7.39996 28.4001 9.39996L6.2001 31.4C5.4001 32.2 5.4001 33.4 6.2001 34.2C6.6001 34.6 7.0001 34.8 7.6001 34.8C8.2001 34.8 8.6001 34.6 9.0001 34.2L31.2001 12.2C31.8001 11.8 32.6001 11.8 33.0001 12.2L40.2001 19.4C40.4001 19.6 40.4001 19.8 40.6001 19.8L48.4001 27.6C48.6001 27.8 48.6001 28 48.8001 28L55.2001 34.4C56.0001 35.2 57.2001 35.2 58.0001 34.4C58.8001 33.6 58.8001 32.4 58.0001 31.6ZM43.8001 17H48.0001V21.6L43.8001 17.4V17Z" fill="#2D373D"/>
</svg>
