<svg width="24" height="24" viewBox="0 0 24 24" fill="none" xmlns="http://www.w3.org/2000/svg">
<path d="M4.90123 14.9011C4.32761 14.9011 3.76688 14.731 3.28994 14.4123C2.81299 14.0936 2.44126 13.6407 2.22175 13.1107C2.00223 12.5808 1.9448 11.9976 2.05671 11.435C2.16861 10.8724 2.44483 10.3557 2.85044 9.95005C3.25605 9.54444 3.77282 9.26822 4.33542 9.15631C4.89801 9.04441 5.48115 9.10184 6.01111 9.32136C6.54106 9.54087 6.99401 9.9126 7.3127 10.3895C7.63138 10.8665 7.80148 11.4272 7.80148 12.0008C7.80108 12.7699 7.49539 13.5074 6.95158 14.0512C6.40776 14.595 5.6703 14.9007 4.90123 14.9011ZM4.90123 10.6013C4.71467 10.597 4.52913 10.63 4.35551 10.6984C4.18189 10.7669 4.02369 10.8693 3.89022 10.9997C3.75675 11.1301 3.65069 11.2859 3.57828 11.4579C3.50587 11.6299 3.46857 11.8146 3.46857 12.0012C3.46857 12.1878 3.50587 12.3726 3.57828 12.5445C3.65069 12.7165 3.75675 12.8723 3.89022 13.0027C4.02369 13.1331 4.18189 13.2356 4.35551 13.304C4.52913 13.3724 4.71467 13.4054 4.90123 13.4011C5.08779 13.4054 5.27333 13.3724 5.44695 13.304C5.62057 13.2356 5.77876 13.1331 5.91223 13.0027C6.04571 12.8723 6.15176 12.7165 6.22417 12.5445C6.29658 12.3726 6.33388 12.1878 6.33388 12.0012C6.33388 11.8146 6.29658 11.6299 6.22417 11.4579C6.15176 11.2859 6.04571 11.1301 5.91223 10.9997C5.77876 10.8693 5.62057 10.7669 5.44695 10.6984C5.27333 10.63 5.08779 10.597 4.90123 10.6013Z" fill="#2D373D"/>
<path d="M19.1011 14.9011C18.5274 14.9011 17.9667 14.731 17.4898 14.4123C17.0128 14.0936 16.6411 13.6407 16.4216 13.1107C16.2021 12.5808 16.1446 11.9976 16.2565 11.435C16.3684 10.8724 16.6447 10.3557 17.0503 9.95005C17.4559 9.54444 17.9727 9.26822 18.5352 9.15631C19.0978 9.04441 19.681 9.10184 20.2109 9.32136C20.7409 9.54087 21.1938 9.9126 21.5125 10.3895C21.8312 10.8665 22.0013 11.4272 22.0013 12.0008C22.0009 12.7699 21.6952 13.5074 21.1514 14.0512C20.6076 14.595 19.8701 14.9007 19.1011 14.9011ZM19.1011 10.6013C18.8241 10.6013 18.5534 10.6835 18.3231 10.8373C18.0928 10.9912 17.9134 11.2099 17.8074 11.4657C17.7014 11.7216 17.6737 12.0031 17.7277 12.2748C17.7817 12.5464 17.9151 12.7959 18.1109 12.9917C18.3068 13.1875 18.5563 13.3209 18.8279 13.3749C19.0995 13.429 19.381 13.4012 19.6369 13.2953C19.8928 13.1893 20.1115 13.0098 20.2653 12.7795C20.4192 12.5493 20.5013 12.2785 20.5013 12.0016C20.5058 11.8165 20.4727 11.6324 20.4039 11.4604C20.3352 11.2885 20.2322 11.1323 20.1013 11.0014C19.9703 10.8704 19.8141 10.7675 19.6422 10.6987C19.4703 10.6299 19.2862 10.5968 19.1011 10.6013Z" fill="#2D373D"/>
<path d="M12.0015 14.9011C11.4279 14.9011 10.8672 14.731 10.3902 14.4123C9.91327 14.0936 9.54154 13.6407 9.32203 13.1107C9.10251 12.5808 9.04508 11.9976 9.15699 11.435C9.26889 10.8724 9.54512 10.3557 9.95072 9.95005C10.3563 9.54444 10.8731 9.26822 11.4357 9.15631C11.9983 9.04441 12.5814 9.10184 13.1114 9.32136C13.6413 9.54087 14.0943 9.9126 14.413 10.3895C14.7317 10.8665 14.9018 11.4272 14.9018 12.0008C14.9014 12.7699 14.5957 13.5074 14.0519 14.0512C13.508 14.595 12.7706 14.9007 12.0015 14.9011ZM12.0015 10.6013C11.7246 10.6013 11.4538 10.6835 11.2236 10.8373C10.9933 10.9912 10.8138 11.2099 10.7078 11.4657C10.6019 11.7216 10.5741 12.0031 10.6282 12.2748C10.6822 12.5464 10.8156 12.7959 11.0114 12.9917C11.2072 13.1875 11.4567 13.3209 11.7283 13.3749C12 13.429 12.2815 13.4012 12.5374 13.2953C12.7932 13.1893 13.0119 13.0098 13.1658 12.7795C13.3196 12.5493 13.4018 12.2785 13.4018 12.0016C13.4063 11.8165 13.3732 11.6324 13.3044 11.4604C13.2356 11.2885 13.1326 11.1323 13.0017 11.0014C12.8708 10.8704 12.7146 10.7675 12.5427 10.6987C12.3707 10.6299 12.1866 10.5968 12.0015 10.6013Z" fill="#2D373D"/>
</svg>
