<svg width="24" height="25" viewBox="0 0 24 25" fill="none" xmlns="http://www.w3.org/2000/svg">
<path d="M16.9497 15.9118L15.4497 15.3118C15.3747 15.3118 15.2997 15.1618 15.2997 15.0868C15.2997 15.0118 15.3747 14.9368 15.3747 14.9368C15.3747 14.9368 15.4497 14.8618 15.5247 14.8618H17.0247C17.4747 14.8618 17.7747 14.5618 17.7747 14.1118C17.7747 13.6618 17.4747 13.3618 17.0247 13.3618H16.4997C16.4247 13.0618 16.1247 12.8368 15.8247 12.8368C15.4497 12.8368 15.1497 13.0618 15.0747 13.4368C14.6997 13.5118 14.4747 13.6618 14.2497 13.8868C13.9497 14.1868 13.7247 14.6368 13.7247 15.0868C13.7247 15.8368 14.1747 16.5118 14.8497 16.7368L16.3497 17.3368C16.4247 17.4118 16.4997 17.4118 16.4997 17.4868C16.4997 17.4868 16.4997 17.5618 16.4997 17.6368C16.4997 17.7118 16.3497 17.7868 16.2747 17.7868H14.7747C14.3247 17.7868 14.0247 18.0868 14.0247 18.5368C14.0247 18.9868 14.3247 19.2868 14.7747 19.2868H15.1497C15.2247 19.5868 15.5247 19.8118 15.8247 19.8118C16.1997 19.8118 16.4997 19.5868 16.5747 19.2118C17.1747 19.1368 17.6997 18.6868 17.9247 18.1618C18.1497 17.7118 18.0747 17.2618 17.9247 16.8118C17.6997 16.4368 17.3997 16.0618 16.9497 15.9118Z" fill="#2D373D"/>
<path d="M15.825 11.1118C12.975 11.1118 10.65 13.4368 10.65 16.2868C10.65 19.1368 12.975 21.4618 15.825 21.4618C18.675 21.4618 21 19.1368 21 16.2868C21 13.4368 18.675 11.1118 15.825 11.1118ZM15.825 19.9618C13.8 19.9618 12.15 18.3118 12.15 16.2868C12.15 14.2618 13.8 12.6118 15.825 12.6118C17.85 12.6118 19.5 14.2618 19.5 16.2868C19.5 18.3118 17.85 19.9618 15.825 19.9618Z" fill="#2D373D"/>
<path d="M9.2248 14.4867H4.7998C4.5748 14.4867 4.4248 14.3367 4.4248 14.1117V8.11172H17.3248V9.68672C17.3248 10.1367 17.6248 10.4367 18.0748 10.4367C18.5248 10.4367 18.8248 10.1367 18.8248 9.68672V5.26172C18.8248 4.73672 18.6748 4.28672 18.2998 3.91172C17.9248 3.61172 17.4748 3.38672 16.9498 3.38672H4.7998C3.7498 3.38672 2.9248 4.21172 2.9248 5.26172V14.1117C2.9248 15.1617 3.7498 15.9867 4.7998 15.9867H9.2248C9.5998 15.9867 9.9748 15.6867 9.9748 15.2367C9.9748 14.7867 9.67481 14.4867 9.2248 14.4867ZM4.7998 4.88672H16.9498C17.0998 4.88672 17.2498 5.03672 17.2498 5.03672C17.2498 5.03672 17.3248 5.11172 17.3248 5.26172V6.08672H4.4248V5.26172C4.4248 5.03672 4.5748 4.88672 4.7998 4.88672Z" fill="#2D373D"/>
<path d="M11.0998 10.2118C11.0998 9.76179 10.7998 9.46179 10.3498 9.46179H5.9248C5.4748 9.46179 5.1748 9.76179 5.1748 10.2118C5.1748 10.6618 5.4748 10.9618 5.9248 10.9618H10.3498C10.7248 10.9618 11.0998 10.6618 11.0998 10.2118Z" fill="#2D373D"/>
<path d="M8.09981 13.2118C8.54981 13.2118 8.92481 12.9118 8.92481 12.4618C8.92481 12.0118 8.62481 11.7118 8.17481 11.7118H5.9248C5.4748 11.7118 5.1748 12.0118 5.1748 12.4618C5.1748 12.9118 5.4748 13.2118 5.9248 13.2118H8.09981Z" fill="#2D373D"/>
</svg>
