<svg width="24" height="24" viewBox="0 0 24 24" fill="none" xmlns="http://www.w3.org/2000/svg">
<path d="M15.5248 15.8998V3.6748C15.5248 3.2248 15.2248 2.9248 14.7748 2.9248H3.6748C3.2248 2.9248 2.9248 3.2248 2.9248 3.6748V15.8998C2.9248 16.3498 3.2248 16.6498 3.6748 16.6498H14.7748C15.1498 16.6498 15.5248 16.2748 15.5248 15.8998ZM14.0248 11.7748H8.3998L10.6498 8.6248C10.7998 8.3998 11.0248 8.3998 11.1748 8.4748L11.2498 8.5498L14.0248 11.7748ZM14.0248 4.4248V9.44981L12.3748 7.5748C12.2998 7.4998 12.2248 7.3498 12.0748 7.2748C11.1748 6.6748 10.0498 6.8998 9.44981 7.7248L6.5998 11.7748H4.4248V4.4248H14.0248ZM4.4248 15.1498V13.2748H14.0248V15.1498H4.4248Z" fill="#2D373D"/>
<path d="M20.1749 8.02491L17.2499 7.04991C16.7999 6.89991 16.4249 7.12491 16.2749 7.49991C16.1249 7.94991 16.3499 8.32491 16.7249 8.47491L19.4999 9.37492L16.1249 19.4999L8.32488 16.8749L7.87488 18.2999L15.8999 20.9999C15.9749 21.0749 16.1249 21.0749 16.2749 21.0749C16.7999 21.0749 17.3249 20.6999 17.4749 20.1749L20.9999 9.67491C21.2249 8.92491 20.8499 8.24991 20.1749 8.02491Z" fill="#2D373D"/>
<path d="M6.8248 8.84981C7.94981 8.84981 8.84981 7.94981 8.84981 6.8248C8.84981 5.6998 7.94981 4.7998 6.8248 4.7998C5.6998 4.7998 4.7998 5.6998 4.7998 6.8248C4.7998 7.94981 5.6998 8.84981 6.8248 8.84981ZM6.8248 6.3748C7.1248 6.3748 7.34981 6.5998 7.34981 6.8998C7.34981 7.1998 7.1248 7.4248 6.8248 7.4248C6.52481 7.4248 6.2998 7.1998 6.2998 6.8998C6.2998 6.5998 6.52481 6.3748 6.8248 6.3748Z" fill="#2D373D"/>
</svg>
