<svg width="64" height="65" viewBox="0 0 64 65" fill="none" xmlns="http://www.w3.org/2000/svg">
<path d="M44.1998 8.26172H19.7998C13.1998 8.26172 7.7998 13.6617 7.7998 20.2617V44.6617C7.7998 51.2617 13.1998 56.6617 19.7998 56.6617H44.1998C50.7998 56.6617 56.1998 51.2617 56.1998 44.6617V20.2617C56.1998 13.6617 50.7998 8.26172 44.1998 8.26172ZM52.1998 44.6617C52.1998 49.0617 48.5998 52.6617 44.1998 52.6617H19.7998C15.3998 52.6617 11.7998 49.0617 11.7998 44.6617V20.2617C11.7998 15.8617 15.3998 12.2617 19.7998 12.2617H44.1998C48.5998 12.2617 52.1998 15.8617 52.1998 20.2617V44.6617Z" fill="#2D373D"/>
<path d="M32 19.4619C24.8 19.4619 19 25.2619 19 32.4619C19 39.6619 24.8 45.4619 32 45.4619C39.2 45.4619 45 39.6619 45 32.4619C45 25.2619 39.2 19.4619 32 19.4619ZM32 41.2619C27 41.2619 23 37.2619 23 32.2619C23 27.2619 27 23.2619 32 23.2619C37 23.2619 41 27.2619 41 32.2619C41 37.2619 37 41.2619 32 41.2619Z" fill="#2D373D"/>
<path d="M45 22.2617C46.6569 22.2617 48 20.9186 48 19.2617C48 17.6049 46.6569 16.2617 45 16.2617C43.3431 16.2617 42 17.6049 42 19.2617C42 20.9186 43.3431 22.2617 45 22.2617Z" fill="#2D373D"/>
</svg>
