<svg width="24" height="25" viewBox="0 0 24 25" fill="none" xmlns="http://www.w3.org/2000/svg">
<path d="M11.4746 15.2359C11.1746 15.5359 11.1746 15.9859 11.4746 16.2859C11.6246 16.4359 11.7746 16.5109 11.9996 16.5109C12.2246 16.5109 12.3746 16.4359 12.5246 16.2859L15.7496 13.0609C15.9746 12.9109 16.0496 12.7609 16.0496 12.4609C16.0496 12.1609 15.8996 12.0109 15.7496 11.8609L12.5246 8.63589C12.2246 8.33589 11.7746 8.33589 11.4746 8.63589C11.1746 8.93589 11.1746 9.38589 11.4746 9.68589L13.4996 11.7109H1.72461C1.27461 11.7109 0.974609 12.0109 0.974609 12.4609C0.974609 12.9109 1.27461 13.2109 1.72461 13.2109H13.4996L11.4746 15.2359Z" fill="#2D373D"/>
<path d="M20.9994 8.11083C18.5244 3.08584 12.5244 1.06084 7.57438 3.46084C5.69938 4.36084 4.12437 5.86083 3.14937 7.73583C2.99937 8.11083 3.07437 8.56084 3.44937 8.71084C3.82437 8.93584 4.27438 8.78584 4.49937 8.41084C5.32437 6.83584 6.67438 5.56083 8.24938 4.73583C10.2744 3.76083 12.5994 3.61083 14.7744 4.36083C16.9494 5.11083 18.6744 6.68584 19.6494 8.71084C21.7494 12.9108 19.9494 18.0858 15.7494 20.1108C11.5494 22.2108 6.37438 20.4108 4.34938 16.2108C4.19938 15.8358 3.74937 15.6858 3.37437 15.8358C2.99937 15.9858 2.84937 16.4358 2.99937 16.8108C4.72437 20.3358 8.24938 22.4358 11.9994 22.4358C13.4994 22.4358 14.9994 22.1358 16.3494 21.5358C21.3744 19.1358 23.3994 13.0608 20.9994 8.11083Z" fill="#2D373D"/>
</svg>
