<svg width="64" height="65" viewBox="0 0 64 65" fill="none" xmlns="http://www.w3.org/2000/svg">
<path d="M46.2 9.66016C41.8 7.06016 37 5.66016 32 5.66016C31.8 5.66016 31.8 5.66016 31.8 5.66016C17.2 5.66016 5.2 17.6602 5.2 32.2602C5.2 37.0602 6.4 41.6602 8.8 45.6602L5.2 56.6602C5 57.2602 5.2 58.0602 5.8 58.6602C6.2 59.0602 6.6 59.2602 7.2 59.2602C7.4 59.2602 7.8 59.2602 8 59.0602L18.8 55.4602C31.2 62.6602 47.2 58.6602 54.8 46.4602C62.6 34.0602 58.8 17.4602 46.2 9.66016ZM51.2 44.4602C44.6 55.0602 30.6 58.2602 20 51.6602C19.8 51.4602 19.4 51.2602 19 51.2602C18.6 51.2602 18.4 51.4602 18.4 51.4602L10.4 54.0602L12.8 45.8602C13 45.2602 13 44.6602 12.6 44.2602C10.4 40.6602 9.2 36.4602 9.2 32.2602C9.2 19.8602 19.4 9.66016 32 9.66016C36.2 9.66016 40.4 10.8602 44 13.0602C54.6 19.6602 57.8 33.8602 51.2 44.4602Z" fill="#2D373D"/>
<path d="M38.6002 24.0604L29.2002 36.6604L23.6002 31.0604C22.8002 30.2604 21.6002 30.2604 20.8002 31.0604C20.0002 31.8604 20.0002 33.0604 20.8002 33.8604L28.0002 41.0604C28.4002 41.4604 28.8002 41.6604 29.4002 41.6604C30.0002 41.6604 30.6002 41.4604 31.0002 40.8604L41.8002 26.4604C42.4002 25.6604 42.2002 24.2604 41.4002 23.6604C40.6002 23.0604 39.2002 23.2604 38.6002 24.0604Z" fill="#2D373D"/>
</svg>
