<svg width="32" height="32" viewBox="0 0 32 32" fill="none" xmlns="http://www.w3.org/2000/svg">
<path d="M26.8001 9.2001H24.5001V5.2001C24.5001 3.8001 23.3001 2.6001 21.8001 2.6001H10.2001C8.8001 2.6001 7.6001 3.8001 7.6001 5.2001V9.2001H5.3001C3.8001 9.2001 2.6001 10.4001 2.6001 11.9001V20.2001C2.6001 21.6001 3.8001 22.8001 5.3001 22.8001H7.6001V28.4001C7.6001 29.0001 8.0001 29.4001 8.6001 29.4001H23.5001C24.0001 29.4001 24.5001 29.0001 24.5001 28.4001V22.8001H26.8001C28.3001 22.8001 29.5001 21.6001 29.5001 20.1001V11.8001C29.5001 10.4001 28.3001 9.2001 26.8001 9.2001ZM9.6001 5.3001C9.6001 4.9001 9.9001 4.6001 10.2001 4.5001H21.8001C22.2001 4.5001 22.5001 4.8001 22.5001 5.2001V9.2001H9.6001V5.3001ZM22.5001 27.4001H9.6001V17.8001H22.5001V27.4001ZM27.5001 20.1001C27.5001 20.5001 27.2001 20.8001 26.8001 20.8001H24.5001V16.8001C24.5001 16.2001 24.1001 15.8001 23.5001 15.8001H8.6001C8.0001 15.8001 7.6001 16.2001 7.6001 16.8001V20.9001H5.3001C4.9001 20.9001 4.6001 20.6001 4.6001 20.2001V11.9001C4.6001 11.5001 4.9001 11.2001 5.3001 11.2001H26.8001C27.2001 11.2001 27.5001 11.5001 27.5001 11.9001V20.1001Z" fill="#2D373D"/>
<path d="M8.60015 12.5H6.90015C6.30015 12.5 5.90015 12.9 5.90015 13.5C5.90015 14.1 6.30015 14.5 6.90015 14.5H8.60015C9.10015 14.5 9.60015 14.1 9.60015 13.5C9.60015 12.9 9.20015 12.5 8.60015 12.5Z" fill="#2D373D"/>
<path d="M20.2001 19.2002H11.9001C11.3001 19.2002 10.9001 19.6002 10.9001 20.2002C10.9001 20.8002 11.3001 21.2002 11.9001 21.2002H20.2001C20.7001 21.2002 21.2001 20.8002 21.2001 20.2002C21.2001 19.6002 20.8001 19.2002 20.2001 19.2002Z" fill="#2D373D"/>
<path d="M17.7001 22.5H11.9001C11.3001 22.5 10.9001 22.9 10.9001 23.5C10.9001 24.1 11.3001 24.5 11.9001 24.5H17.7001C18.2001 24.5 18.7001 24.1 18.7001 23.5C18.7001 22.9 18.3001 22.5 17.7001 22.5Z" fill="#2D373D"/>
</svg>
