<svg width="32" height="33" viewBox="0 0 32 33" fill="none" xmlns="http://www.w3.org/2000/svg">
<path d="M16.9997 12.7613C16.9997 10.1613 14.8997 8.06128 12.2997 8.06128C9.69973 8.06128 7.59973 10.1613 7.59973 12.7613C7.59973 15.3613 9.69973 17.4613 12.2997 17.4613C14.8997 17.4613 16.9997 15.3613 16.9997 12.7613ZM12.2997 15.4613C10.7997 15.4613 9.59973 14.2613 9.59973 12.7613C9.59973 11.2613 10.7997 10.0613 12.2997 10.0613C13.7997 10.0613 14.9997 11.2613 14.9997 12.7613C14.9997 14.2613 13.7997 15.4613 12.2997 15.4613Z" fill="#2D373D"/>
<path d="M5.8999 12.7613C5.8999 11.0613 6.5999 9.46133 7.7999 8.26133C8.9999 7.06133 10.5999 6.36133 12.2999 6.36133C15.0999 6.36133 17.4999 8.16133 18.2999 10.8613C18.4999 11.4613 19.0999 11.7613 19.5999 11.5613C20.1999 11.3613 20.4999 10.7613 20.2999 10.2613C19.1999 6.76133 15.9999 4.36133 12.2999 4.36133C9.9999 4.36133 7.9999 5.36133 6.3999 6.86133C4.7999 8.36133 3.8999 10.4613 3.8999 12.7613C3.8999 16.4613 8.9999 24.8613 10.0999 26.5613C10.1999 26.8613 10.5999 27.0613 10.8999 27.0613C11.0999 27.0613 11.2999 26.9613 11.4999 26.8613C11.8999 26.5613 12.0999 25.9613 11.7999 25.4613C8.8999 20.9613 5.8999 15.0613 5.8999 12.7613Z" fill="#2D373D"/>
<path d="M26.1998 12.5613H19.5998C18.6998 12.5613 17.8998 13.2613 17.8998 14.2613V18.3613H15.7998C14.9998 18.3613 14.2998 19.0613 14.2998 19.8613V26.4613H13.7998C13.1998 26.4613 12.7998 26.8613 12.7998 27.4613C12.7998 28.0613 13.1998 28.4613 13.7998 28.4613H15.1998C15.1998 28.4613 15.1998 28.4613 15.2998 28.4613H26.9998C27.5998 28.4613 27.9998 28.0613 27.8998 27.5613V14.2613C27.8998 13.3613 27.1998 12.5613 26.1998 12.5613ZM16.2998 20.3613H20.8998V26.4613H16.2998V20.3613ZM26.0998 26.4613H22.9998V19.8613C22.9998 19.0613 22.2998 18.3613 21.4998 18.3613H19.8998V14.4613H26.0998V26.4613Z" fill="#2D373D"/>
</svg>
