<svg width="64" height="64" viewBox="0 0 64 64" fill="none" xmlns="http://www.w3.org/2000/svg">
<path d="M54.1998 11.8H50.1998C49.3998 9.79995 47.3998 8.39995 45.1998 8.39995H38.5998C36.9998 6.39995 34.5998 5.19995 31.9998 5.19995C29.3998 5.19995 26.7998 6.39995 25.3998 8.39995H18.7998C16.5998 8.39995 14.5998 9.79995 13.7998 11.8H9.7998C8.5998 11.8 7.7998 12.6 7.7998 13.8C7.7998 15 8.5998 15.8 9.7998 15.8H13.7998C14.5998 17.8 16.5998 19.2 18.7998 19.2H25.3998C25.5998 19.4 25.5998 19.6 25.7998 19.8C20.5998 22.2 16.7998 27.3999 16.7998 33.5999V43.5999C16.7998 48.3999 20.5998 52.2 25.3998 52.2H26.5998V53.4C26.5998 54.8 27.1998 56.2 28.1998 57.2C29.1998 58.2 30.5998 58.7999 31.9998 58.7999C34.7998 58.7999 37.1998 56.4 37.3998 53.2V52.2H38.5998C43.1998 52.2 47.1998 48.3999 47.1998 43.5999V33.5999C47.1998 27.3999 43.3998 22 38.1998 19.8C38.3998 19.6 38.3998 19.4 38.5998 19.2H45.1998C47.3998 19.2 49.3998 17.8 50.1998 15.8H54.1998C55.1998 15.8 56.1998 15 56.1998 13.8C56.1998 12.6 55.3998 11.8 54.1998 11.8ZM23.5998 15.2H18.7998C17.9998 15.2 17.3998 14.6 17.3998 13.8C17.3998 13 17.9998 12.4 18.7998 12.4H23.5998C23.5998 12.8 23.3998 13.4 23.3998 13.8C23.3998 14.2 23.5998 14.8 23.5998 15.2ZM31.9998 9.19995C34.3998 9.19995 36.5998 11.2 36.5998 13.8C36.5998 16.4 34.5998 18.4 31.9998 18.4C29.3998 18.4 27.3998 16.4 27.3998 13.8C27.3998 11.2 29.3998 9.19995 31.9998 9.19995ZM33.1998 22.4V28.4H30.5998V22.4C30.9998 22.4 31.5998 22.4 31.9998 22.4C32.3998 22.4 32.7998 22.4 33.1998 22.4ZM33.3998 49.2C33.3998 49.4 33.3998 49.7999 33.3998 50C33.3998 50.4 33.3998 50.5999 33.3998 51V53.4C33.3998 54.2 32.7998 54.7999 31.9998 54.7999C31.5998 54.7999 31.1998 54.8 30.9998 54.4C30.7998 54 30.5998 53.8 30.5998 53.4V51C30.5998 50.5999 30.5998 50.4 30.5998 50.2C30.5998 50 30.5998 49.6 30.5998 49.2V40.4C30.5998 39.6 31.1998 39 31.9998 39C32.5998 39 33.1998 39.6 33.3998 40.4V49.2ZM43.1998 33.5999V43.5999C43.1998 46.1999 41.1998 48.2 38.5998 48.2H37.3998V40C37.3998 37.2 34.9998 34.7999 31.9998 34.7999C28.9998 34.7999 26.5998 37.2 26.5998 40.2V48.2H25.3998C22.7998 48.2 20.7998 46.1999 20.7998 43.5999V33.5999C20.7998 29.3999 23.1998 25.5999 26.5998 23.7999V28.7999C26.5998 30.7999 28.1998 32.4 30.1998 32.4H33.5998C35.5998 32.4 37.1998 30.8 37.1998 28.6V23.6C40.7998 25.6 43.1998 29.1999 43.1998 33.5999ZM45.1998 15.2H40.3998C40.3998 14.8 40.5998 14.2 40.5998 13.8C40.5998 13.4 40.5998 12.8 40.3998 12.4H45.1998C45.9998 12.4 46.5998 13 46.5998 13.8C46.5998 14.6 45.9998 15.2 45.1998 15.2Z" fill="#2D373D"/>
</svg>
