<svg width="24" height="25" viewBox="0 0 24 25" fill="none" xmlns="http://www.w3.org/2000/svg">
<path d="M19.5002 21.0102H18.9752V18.7602C19.6502 18.6852 20.1752 18.1602 20.1752 17.4102V3.76016C20.1752 3.01016 19.5752 2.41016 18.8252 2.41016H7.05019C5.25019 2.41016 3.8252 3.83516 3.8252 5.63516V19.8852C3.8252 21.3102 5.0252 22.5102 6.4502 22.5102H19.4252C19.8752 22.5102 20.2502 22.2102 20.2502 21.7602C20.2502 21.3102 19.9502 21.0102 19.5002 21.0102ZM5.3252 5.63516C5.3252 4.66016 6.07519 3.91016 7.05019 3.91016H18.7502V17.3352H18.6002C18.5252 17.2602 18.3752 17.2602 18.2252 17.2602C18.0752 17.2602 18.0002 17.2602 17.8502 17.3352H6.4502C6.0752 17.3352 5.7002 17.4102 5.3252 17.5602V5.63516ZM5.3252 20.0352C5.3252 19.9602 5.40019 19.8852 5.40019 19.8102C5.40019 19.5852 5.4752 19.2852 5.7002 19.0602C5.85019 18.9102 6.1502 18.7602 6.4502 18.7602H17.4752V21.0102H6.4502C5.8502 21.0102 5.4002 20.5602 5.3252 20.0352Z" fill="#2D373D"/>
</svg>
