<svg width="64" height="65" viewBox="0 0 64 65" fill="none" xmlns="http://www.w3.org/2000/svg">
<path fill-rule="evenodd" clip-rule="evenodd" d="M54.1486 39.4269V31.9726C54.139 25.8207 51.7095 19.9191 47.3838 15.5354C43.0616 11.1553 37.1911 8.63972 31.0321 8.52598C29.7802 8.48783 28.5524 8.87924 27.5539 9.63598L20.7799 14.701C18.0902 15.6039 15.5983 17.071 13.484 19.0318C9.95747 22.3022 7.72733 26.7181 7.18376 31.4746C5.99626 32.7859 5.3335 34.4942 5.3335 36.2717C5.3335 38.1713 6.0905 39.9919 7.43599 41.3333C8.71592 42.6094 10.4286 43.3524 12.2282 43.4216V50.0189C12.2282 51.9185 12.9852 53.7391 14.3307 55.0805C15.676 56.4217 17.4993 57.1741 19.3992 57.1741C21.2991 57.1741 23.1224 56.4217 24.4676 55.0805C25.7465 53.8055 26.4937 52.0977 26.5646 50.3005H41.8067C43.1865 50.3005 44.5477 49.9802 45.7823 49.3647C47.017 48.7493 48.0916 47.8554 48.9207 46.7534L51.4232 43.4269H56.6668C57.7714 43.4269 58.6668 42.5314 58.6668 41.4269C58.6668 40.3223 57.7714 39.4269 56.6668 39.4269H54.1486ZM30.9149 12.5243C30.5731 12.5128 30.2386 12.6195 29.9681 12.8253L29.9551 12.8352L28.7738 13.7184C31.4192 13.9356 34.0012 14.6733 36.3684 15.8949C39.2152 17.364 41.6692 19.4904 43.5256 22.0976C44.1662 22.9974 43.9562 24.2461 43.0564 24.8868C42.1566 25.5275 40.9078 25.3174 40.2671 24.4176C38.7809 22.3303 36.8154 20.6268 34.534 19.4495C32.254 18.2729 29.7247 17.6561 27.1568 17.6508C23.0905 17.6641 19.1796 19.205 16.2039 21.9647C14.0783 23.936 12.5414 26.4256 11.7252 29.1588C11.9828 29.1307 12.2429 29.1165 12.5045 29.1165H33.1884C34.2929 29.1165 35.1884 30.0119 35.1884 31.1165C35.1884 32.221 34.2929 33.1165 33.1884 33.1165H12.5045C11.7613 33.1165 11.046 33.376 10.4799 33.8433C10.4398 33.8812 10.3982 33.9174 10.3551 33.9519C10.3229 33.9815 10.2912 34.0118 10.2601 34.0428C9.66609 34.6349 9.3335 35.4368 9.3335 36.2717C9.3335 37.1065 9.66609 37.9084 10.2601 38.5006C10.8543 39.093 11.6615 39.4269 12.5045 39.4269H14.217L14.2282 39.4268L14.2394 39.4269H50.1486V31.9788C50.1403 26.8787 48.126 21.9825 44.5366 18.3449C40.9466 14.7068 36.0672 12.6166 30.9463 12.5251L30.9149 12.5243ZM46.4177 43.4269H16.2282V50.0189C16.2282 50.8537 16.5608 51.6556 17.1548 52.2478C17.749 52.8402 18.5562 53.1741 19.3992 53.1741C20.2421 53.1741 21.0493 52.8402 21.6435 52.2478C22.2375 51.6556 22.5701 50.8537 22.5701 50.0189V48.3005C22.5701 47.1959 23.4656 46.3005 24.5701 46.3005H41.8067C42.5676 46.3005 43.3178 46.1238 43.9979 45.7848C44.6779 45.4459 45.2688 44.954 45.7242 44.3487L46.4177 43.4269Z" fill="#2D373D"/>
</svg>
