<svg width="16" height="17" viewBox="0 0 16 17" fill="none" xmlns="http://www.w3.org/2000/svg">
<path fill-rule="evenodd" clip-rule="evenodd" d="M4.16466 6.96189C4.0708 6.96189 3.98444 6.99796 3.92367 7.05645C3.86356 7.11432 3.8335 7.18863 3.8335 7.26189V13.6619C3.8335 13.7352 3.86356 13.8095 3.92367 13.8673C3.98444 13.9258 4.0708 13.9619 4.16466 13.9619H11.6452C11.739 13.9619 11.8254 13.9258 11.8862 13.8673C11.9463 13.8095 11.9764 13.7352 11.9764 13.6619V7.26189C11.9764 7.18863 11.9463 7.11432 11.8862 7.05645C11.8254 6.99796 11.7391 6.96189 11.6452 6.96189H10.814C10.5379 6.96189 10.314 6.73804 10.314 6.46189C10.314 6.18575 10.5379 5.96189 10.814 5.96189H11.6452C11.9922 5.96189 12.3287 6.0944 12.5796 6.33597C12.8313 6.57816 12.9764 6.91081 12.9764 7.26189V13.6619C12.9764 14.013 12.8313 14.3456 12.5796 14.5878C12.3287 14.8294 11.9922 14.9619 11.6452 14.9619H4.16466C3.81765 14.9619 3.48119 14.8294 3.23021 14.5878C2.97857 14.3456 2.8335 14.013 2.8335 13.6619V7.26189C2.8335 6.91081 2.97857 6.57816 3.23021 6.33597C3.48119 6.0944 3.81765 5.96189 4.16466 5.96189H4.99583C5.27198 5.96189 5.49583 6.18575 5.49583 6.46189C5.49583 6.73804 5.27198 6.96189 4.99583 6.96189H4.16466Z" fill="#2D373D"/>
<path fill-rule="evenodd" clip-rule="evenodd" d="M7.90487 1.96191C8.18101 1.96191 8.40487 2.18577 8.40487 2.46191V8.1762C8.40487 8.45234 8.18101 8.6762 7.90487 8.6762C7.62872 8.6762 7.40487 8.45234 7.40487 8.1762V2.46191C7.40487 2.18577 7.62872 1.96191 7.90487 1.96191Z" fill="#2D373D"/>
<path fill-rule="evenodd" clip-rule="evenodd" d="M7.55146 2.10836C7.74673 1.9131 8.06331 1.9131 8.25857 2.10836L10.5443 4.39407C10.7395 4.58934 10.7395 4.90592 10.5443 5.10118C10.349 5.29644 10.0324 5.29644 9.83718 5.10118L7.90502 3.16902L5.97286 5.10118C5.77759 5.29644 5.46101 5.29644 5.26575 5.10118C5.07049 4.90592 5.07049 4.58934 5.26575 4.39407L7.55146 2.10836Z" fill="#2D373D"/>
</svg>
