<svg width="64" height="64" viewBox="0 0 64 64" fill="none" xmlns="http://www.w3.org/2000/svg">
<path d="M30.4 47.2C30.8 47.7999 31.2 48 32 48C32.4 48 32.6 48 32.8 47.7999C33 47.5999 33.4 47.4 33.4 47.2L46.4 34.2C47.2 33.4 47.2 32.2 46.4 31.4C45.6 30.6 44.4 30.6 43.6 31.4L34 41.2V7.19995C34 5.99995 33.2 5.19995 32 5.19995C30.8 5.19995 30 5.99995 30 7.19995V41.2L20.4 31.6C19.6 30.8 18.4 30.8 17.6 31.6C16.8 32.4 16.8 33.6 17.6 34.4L30.4 47.2Z" fill="#2D373D"/>
<path d="M51.4001 54.5999H12.6001C11.4001 54.5999 10.6001 55.3999 10.6001 56.5999C10.6001 57.7999 11.4001 58.5999 12.6001 58.5999H51.4001C52.6001 58.5999 53.4001 57.7999 53.4001 56.5999C53.4001 55.3999 52.6001 54.5999 51.4001 54.5999Z" fill="#2D373D"/>
</svg>
