<svg width="64" height="65" viewBox="0 0 64 65" fill="none" xmlns="http://www.w3.org/2000/svg">
<path d="M31.9859 50.9245C25.7422 50.9245 20.6725 45.8578 20.6725 39.6178C20.6725 32.7111 23.5542 29.4845 23.8744 29.1378C24.2746 28.7111 24.8083 28.4711 25.422 28.5245C26.009 28.5245 26.5427 28.8178 26.8895 29.2711L28.704 31.5645C31.9592 22.9245 32.0927 22.9245 33.4801 22.9245C34.2273 22.9245 34.6809 23.1645 36.2551 24.7378C38.4164 26.8978 43.4061 32.7111 43.3527 39.6445C43.3527 45.8578 38.2563 50.9245 31.9859 50.9245ZM25.6088 34.0711C25.1285 35.3245 24.6749 37.1645 24.6749 39.6178C24.6749 43.6445 27.9568 46.9245 31.9859 46.9245C36.015 46.9245 39.3503 43.6445 39.3503 39.6178C39.377 35.0578 36.3619 30.7645 34.2273 28.3911C33.4268 30.4711 32.2794 33.4845 31.2388 36.2845C30.9987 36.9511 30.385 37.4578 29.6645 37.5645C28.9441 37.6711 28.2237 37.4045 27.7967 36.8178L25.6088 34.0711Z" fill="#2D373D"/>
<path d="M31.9592 59.5911C20.4323 59.5911 10.6665 50.1245 10.6665 38.9245C10.6665 25.6978 22.06 13.4045 22.5403 12.8978C22.9405 12.4711 23.4742 12.2045 24.0612 12.2578C24.6215 12.2578 25.1819 12.5245 25.5287 12.9778L27.7701 15.6711C33.5869 6.25781 33.6936 6.25781 34.9744 6.25781C35.6948 6.25781 35.9883 6.25781 38.4965 8.79115C42.0186 12.3378 53.4654 24.9511 53.332 38.9511C53.332 50.1245 43.5395 59.5911 31.9326 59.5911H31.9592ZM24.0078 17.3511C21.046 21.0045 14.6956 29.9378 14.6956 38.9245C14.6956 47.9111 22.6203 55.5911 31.9859 55.5911C41.3515 55.5911 49.383 47.9645 49.383 38.9245C49.4897 26.8978 39.4571 15.2445 35.3479 11.2178C34.0138 13.2445 31.7725 16.8178 29.7446 20.1245C29.3977 20.6845 28.8374 21.0311 28.197 21.0578C27.5566 21.1111 26.9429 20.8445 26.516 20.3378L24.0078 17.3511Z" fill="#2D373D"/>
</svg>
