<svg width="32" height="33" viewBox="0 0 32 33" fill="none" xmlns="http://www.w3.org/2000/svg">
<path d="M19.8 19.9236C19.2 19.9236 18.8 20.3236 18.8 20.9236V23.1236H6V9.02362C6.1 7.72362 7.1 6.82362 8.4 6.92362H13.6C14.2 6.92362 14.6 6.52362 14.6 5.92362C14.6 5.32362 14.2 4.92362 13.6 4.92362H8.4C6.1 4.82362 4.1 6.52362 4 8.92362V26.3236C4.1 28.5236 6 30.3236 8.2 30.3236C8.2 30.3236 8.3 30.3236 8.4 30.2236H16.4C18.7 30.3236 20.7 28.6236 20.8 26.2236V20.9236C20.8 20.3236 20.4 19.9236 19.8 19.9236ZM18.8 26.2236C18.7 27.4236 17.7 28.4236 16.4 28.3236H8.3C7.1 28.4236 6.1 27.5236 6 26.3236V25.1236H18.8V26.2236Z" fill="#2D373D"/>
<path d="M20.4999 13.7236C19.8999 13.7236 19.3999 14.2236 19.3999 14.8236C19.3999 15.4236 19.8999 15.9236 20.4999 15.9236C21.0999 15.9236 21.5999 15.4236 21.5999 14.8236C21.5999 14.2236 21.0999 13.7236 20.4999 13.7236Z" fill="#2D373D"/>
<path d="M20.5 12.9235C21 12.9235 21.5 12.5235 21.5 11.9235V8.62354C21.5 8.02354 21.1 7.62354 20.5 7.62354C19.9 7.62354 19.5 8.02354 19.5 8.62354V11.9235C19.5 12.5235 19.9 12.9235 20.5 12.9235Z" fill="#2D373D"/>
<path d="M27.6998 14.4237L23.0998 5.12365C22.7998 4.62365 22.3998 4.12365 21.7998 3.82365C20.9998 3.42365 20.1998 3.32365 19.4998 3.62365C18.7998 3.92365 18.0998 4.42365 17.7998 5.12365L13.0998 14.4237C12.8998 14.8237 12.7998 15.2237 12.7998 15.7237C12.7998 16.5237 13.0998 17.2237 13.6998 17.8237C14.2998 18.4237 14.9998 18.7237 15.7998 18.7237H25.0998C25.5998 18.7237 25.9998 18.6237 26.3998 18.4237C27.0998 18.1237 27.6998 17.4237 27.8998 16.7237C28.0998 15.9237 28.0998 15.1237 27.6998 14.4237ZM26.0998 16.0237C25.9998 16.3237 25.7998 16.5237 25.5998 16.6237C25.4998 16.7237 25.2998 16.7237 25.1998 16.7237H15.8998C15.5998 16.7237 15.3998 16.6237 15.1998 16.4237C14.9998 16.2237 14.8998 16.0237 14.8998 15.7237C14.8998 15.6237 14.8998 15.4237 14.9998 15.3237L19.6998 6.12365C19.7998 5.92365 19.9998 5.72365 20.1998 5.62365C20.2998 5.52365 20.3998 5.52365 20.4998 5.52365C20.5998 5.52365 20.7998 5.52365 20.9998 5.62365C21.1998 5.72365 21.2998 5.82365 21.3998 6.02365L25.9998 15.3237C26.1998 15.5237 26.1998 15.8237 26.0998 16.0237Z" fill="#2D373D"/>
</svg>
