<svg width="24" height="25" viewBox="0 0 24 25" fill="none" xmlns="http://www.w3.org/2000/svg">
<path d="M8.47967 5.45174C8.5005 5.43248 8.52771 5.42188 8.55584 5.42188C8.58397 5.42188 8.61117 5.43248 8.63201 5.45174C8.65079 5.46911 8.67046 5.48551 8.69092 5.50087C9.20614 5.88761 10.1751 6.83034 11.061 7.72902V9.45402C11.061 9.86824 11.3968 10.204 11.811 10.204C12.2252 10.204 12.561 9.86824 12.561 9.45402V9.2834L12.5743 9.29742L12.669 9.39788L12.7015 9.43249C12.9848 9.7347 13.4594 9.75005 13.7616 9.46678C14.0639 9.18351 14.0786 8.70819 13.7953 8.40598L13.7615 8.37L13.6646 8.26722C13.5807 8.17846 13.4598 8.05091 13.3112 7.89523C13.0788 7.65181 12.7783 7.33917 12.4454 6.99824C12.3885 6.90827 12.313 6.83125 12.2243 6.77257L12.1606 6.7078C11.301 5.83498 10.2507 4.80318 9.61855 4.32176C9.32492 4.06436 8.94736 3.92188 8.55584 3.92188C8.16221 3.92188 7.78271 4.06589 7.48841 4.32591C6.87326 4.80755 5.80059 5.83147 4.90792 6.70604C4.44886 7.15579 4.02594 7.57746 3.71789 7.88657C3.56381 8.04118 3.43833 8.16778 3.35127 8.25582L3.25069 8.35768L3.21511 8.39382C2.92477 8.68924 2.92884 9.16416 3.22427 9.4545C3.51969 9.74484 3.99502 9.74023 4.28536 9.44481L4.319 9.41064L4.41787 9.31051L4.45786 9.27009V11.6149C4.43127 12.0122 4.53002 12.4082 4.7407 12.7467C4.95777 13.0956 5.28202 13.3647 5.66497 13.5137C5.75168 13.5475 5.84391 13.5648 5.93695 13.5648H7.41568C7.8299 13.5648 8.16568 13.229 8.16568 12.8148V10.5845C8.16568 10.5773 8.16558 10.57 8.16537 10.5628C8.16402 10.5162 8.17224 10.4699 8.18951 10.4267C8.20677 10.3835 8.23271 10.3443 8.26569 10.3116C8.29866 10.2789 8.33795 10.2534 8.3811 10.2366C8.42426 10.2197 8.47038 10.212 8.51662 10.2137C8.5335 10.2144 8.55039 10.2145 8.56727 10.214C8.61214 10.2127 8.65682 10.2206 8.69853 10.2373C8.74024 10.254 8.77813 10.2791 8.80982 10.3111C8.8415 10.3431 8.86632 10.3813 8.88268 10.4234C8.89905 10.4655 8.90661 10.5105 8.90487 10.5557C8.88892 10.9696 9.21154 11.318 9.62544 11.334C10.0393 11.3499 10.3878 11.0273 10.4038 10.6134C10.4134 10.363 10.3715 10.1133 10.2807 9.8798C10.1899 9.64628 10.0521 9.43386 9.8758 9.25577C9.6995 9.07769 9.48847 8.93773 9.25579 8.84463C9.03096 8.75466 8.79058 8.71031 8.54861 8.71405C8.30536 8.70811 8.06328 8.75053 7.83642 8.83894C7.60169 8.93042 7.3883 9.06917 7.20944 9.24655C7.0306 9.42391 6.89008 9.63614 6.79661 9.87005C6.70466 10.1001 6.66015 10.3464 6.66568 10.594V12.0648H6.11632C6.07591 12.0349 6.04119 11.9975 6.01425 11.9542C5.96843 11.8806 5.94765 11.794 5.9551 11.7075C5.95694 11.6861 5.95786 11.6646 5.95786 11.6431V7.77731C6.87946 6.87441 7.9015 5.90363 8.43009 5.49374C8.44722 5.48047 8.46376 5.46645 8.47967 5.45174Z" fill="#2D373D"/>
<path fill-rule="evenodd" clip-rule="evenodd" d="M17.0276 7.37821C15.7904 7.37821 14.7886 8.3818 14.7886 9.61846C14.7886 10.8551 15.7904 11.8587 17.0276 11.8587C18.2647 11.8587 19.2666 10.8551 19.2666 9.61846C19.2666 8.3818 18.2647 7.37821 17.0276 7.37821ZM16.2886 9.61846C16.2886 9.20904 16.62 8.87821 17.0276 8.87821C17.4351 8.87821 17.7666 9.20904 17.7666 9.61846C17.7666 10.0279 17.4351 10.3587 17.0276 10.3587C16.62 10.3587 16.2886 10.0279 16.2886 9.61846Z" fill="#2D373D"/>
<path fill-rule="evenodd" clip-rule="evenodd" d="M12.2185 18.0289C12.0094 18.703 11.8401 19.3416 11.7737 19.8279C11.7437 19.9805 11.7123 20.2845 11.8075 20.6328C11.9266 21.0685 12.2344 21.5272 12.8493 21.8033C12.872 21.8135 12.8953 21.8225 12.9189 21.8304C13.1533 21.9087 13.4015 21.9372 13.6475 21.9141C13.8935 21.891 14.132 21.8168 14.3477 21.6963C14.5634 21.5758 14.7516 21.4117 14.9003 21.2143C15.0434 21.0244 15.1469 20.8079 15.2048 20.5774L15.3382 20.1398C15.478 20.3805 15.6307 20.6486 15.793 20.9413C15.9595 21.2553 16.2163 21.5123 16.5304 21.6789C16.8605 21.854 17.1986 21.9034 17.5402 21.8642C17.5618 21.8617 17.5834 21.8583 17.6047 21.8539C17.963 21.7808 18.3748 21.5922 18.6623 21.2326C18.9219 20.9078 19.0594 20.5022 19.0511 20.0865C19.0478 19.9222 19.0314 19.7566 18.9734 19.5782C18.92 19.414 18.8416 19.2737 18.7764 19.1598C18.7592 19.1298 18.7408 19.098 18.7209 19.0638C18.5893 18.837 18.396 18.5039 18.0962 17.8695C17.9192 17.495 17.4721 17.3349 17.0976 17.5119C16.7231 17.6888 16.563 18.1359 16.74 18.5104C17.0669 19.2022 17.2859 19.5795 17.4214 19.813C17.4408 19.8465 17.4586 19.877 17.4746 19.9051C17.5052 19.9585 17.5229 19.9911 17.5347 20.0149C17.5423 20.0303 17.5455 20.0383 17.5465 20.041C17.5479 20.0488 17.5504 20.0704 17.5514 20.1167C17.5527 20.1818 17.5311 20.2453 17.4906 20.296C17.479 20.3105 17.4289 20.3518 17.3368 20.3766C17.2887 20.3787 17.2637 20.3699 17.2333 20.3538C17.1839 20.3276 17.1435 20.287 17.1175 20.2372L17.1088 20.221C16.7126 19.5062 16.3706 18.9314 16.1269 18.5339C16.005 18.3352 15.9075 18.1807 15.8401 18.0751C15.8063 18.0223 15.7801 17.9817 15.762 17.9539L15.7411 17.9219L15.7354 17.9132L15.7329 17.9095C15.5726 17.6674 15.2869 17.5396 14.9996 17.5814C14.7122 17.6232 14.4748 17.8271 14.3902 18.1049L13.7637 20.1604C13.759 20.1761 13.7547 20.1918 13.751 20.2078C13.7422 20.2454 13.7256 20.2808 13.7024 20.3116C13.6791 20.3424 13.6498 20.368 13.6162 20.3868C13.5826 20.4055 13.5455 20.4171 13.5073 20.4207C13.4796 20.4233 13.4517 20.4217 13.4245 20.4159C13.3511 20.3777 13.315 20.342 13.2971 20.3204C13.2753 20.2941 13.2625 20.2669 13.2544 20.2373C13.2456 20.2052 13.243 20.1716 13.2438 20.1431C13.2442 20.1306 13.2451 20.1219 13.2455 20.118C13.2504 20.0959 13.2543 20.0737 13.2572 20.0513C13.3094 19.6469 13.4799 19.0039 13.7289 18.2267C13.9735 17.4633 14.2787 16.6153 14.5789 15.82C14.8787 15.0258 15.1711 14.2899 15.3888 13.7523C15.4571 13.5836 15.518 13.4344 15.5694 13.3094C15.6066 13.3184 15.6431 13.3308 15.6785 13.3464C15.8133 13.4061 15.9239 13.5102 15.9916 13.6416C16.0086 13.6744 16.0279 13.706 16.0495 13.736C16.3173 14.108 16.7037 14.3743 17.0631 14.5655C17.4317 14.7616 17.832 14.91 18.1889 15.0203C18.5486 15.1314 18.882 15.2093 19.1247 15.2594C19.2339 15.2819 19.3259 15.2991 19.395 15.3113C19.4255 15.3355 19.4509 15.3661 19.4691 15.4012C19.4978 15.4567 19.5071 15.5204 19.4953 15.5818C19.4938 15.5893 19.4925 15.5967 19.4913 15.6042C19.4841 15.6491 19.4597 15.6893 19.4236 15.7165C19.3875 15.7435 19.3424 15.7555 19.2978 15.7499C19.2776 15.7474 19.2572 15.7457 19.2368 15.7448C18.6925 15.7216 18.3139 15.657 18.0059 15.5512C17.7049 15.4479 17.4362 15.2934 17.1274 15.0457C16.8042 14.7866 16.3322 14.8385 16.0731 15.1617C15.8139 15.4848 15.8659 15.9568 16.189 16.216C16.6013 16.5466 17.02 16.7987 17.5189 16.97C18.004 17.1365 18.53 17.2145 19.1463 17.2423C19.5656 17.2859 19.9863 17.1696 20.3241 16.9161C20.668 16.6579 20.8993 16.2775 20.9704 15.8538C21.0426 15.4649 20.9831 15.063 20.8011 14.7116C20.6175 14.3568 20.3197 14.0742 19.9557 13.9095C19.8922 13.8808 19.8248 13.861 19.7559 13.8508L19.7536 13.8505L19.7387 13.8481C19.7248 13.8459 19.7031 13.8424 19.6744 13.8374C19.6171 13.8274 19.5324 13.8119 19.4279 13.7904C19.2178 13.747 18.9332 13.6803 18.6317 13.5872C18.3276 13.4932 18.0238 13.3776 17.7676 13.2413C17.5269 13.1132 17.3736 12.9906 17.2903 12.8899C17.0636 12.4847 16.7114 12.1633 16.2857 11.9748C15.8377 11.7765 15.3355 11.7375 14.8622 11.8642C14.8538 11.8665 14.8454 11.8689 14.837 11.8714C14.212 11.6273 13.5371 11.5284 12.8637 11.5854C12.0104 11.6576 11.1969 11.9771 10.5224 12.5045C9.59493 13.1836 8.99557 13.9975 8.76121 14.8386C8.52377 15.6907 8.67178 16.5559 9.21718 17.2095C9.3666 17.3901 9.93517 17.9381 10.8213 18.1094C11.2537 18.1929 11.7245 18.1801 12.2185 18.0289ZM14.0048 13.1736C14.0027 13.1788 14.0005 13.1841 13.9984 13.1895C13.7778 13.7344 13.4807 14.4818 13.1755 15.2903C13.1166 15.4466 13.0572 15.6054 12.9979 15.7657C12.1214 16.6718 11.4721 16.7074 11.1059 16.6366C10.6873 16.5557 10.411 16.2907 10.3795 16.2604L10.3766 16.2578L10.3696 16.2493C10.1771 16.0193 10.0845 15.6779 10.2062 15.2412C10.3303 14.7957 10.6873 14.2406 11.4171 13.7086L11.4299 13.6991L11.4391 13.6919C11.8854 13.3406 12.4246 13.1279 12.9902 13.08C13.333 13.051 13.6764 13.0833 14.0048 13.1736Z" fill="#2D373D"/>
</svg>
