<svg width="24" height="25" viewBox="0 0 24 25" fill="none" xmlns="http://www.w3.org/2000/svg">
<path fill-rule="evenodd" clip-rule="evenodd" d="M4 9.71191C4.41421 9.71191 4.75 10.0477 4.75 10.4619V13.4619C4.75 16.3614 7.1005 18.7119 10 18.7119H13C15.8995 18.7119 18.25 16.3614 18.25 13.4619V10.4619C18.25 10.0477 18.5858 9.71191 19 9.71191C19.4142 9.71191 19.75 10.0477 19.75 10.4619V13.4619C19.75 17.1898 16.7279 20.2119 13 20.2119H10C6.27208 20.2119 3.25 17.1898 3.25 13.4619V10.4619C3.25 10.0477 3.58579 9.71191 4 9.71191Z" fill="#2D373D"/>
<path fill-rule="evenodd" clip-rule="evenodd" d="M12 18.7119C12.4142 18.7119 12.75 19.0477 12.75 19.4619V21.9619C12.75 22.3761 12.4142 22.7119 12 22.7119C11.5858 22.7119 11.25 22.3761 11.25 21.9619V19.4619C11.25 19.0477 11.5858 18.7119 12 18.7119Z" fill="#2D373D"/>
<path fill-rule="evenodd" clip-rule="evenodd" d="M11.6866 2.46193L11.6899 2.46191L11.791 2.46192C12.5748 2.46311 13.3484 2.63976 14.0549 2.97892C14.7615 3.31808 15.3832 3.81114 15.8744 4.42192C16.1339 4.74471 16.0827 5.21681 15.7599 5.47639C15.4371 5.73596 14.965 5.68471 14.7054 5.36192C14.3546 4.92565 13.9105 4.57346 13.4058 4.3312C12.9013 4.08902 12.3489 3.96285 11.7893 3.96192H11.6916C10.6875 3.96673 9.72584 4.36774 9.01578 5.0778C8.30572 5.78786 7.90471 6.74952 7.8999 7.75364V12.0298C7.90167 12.328 7.93817 12.6249 8.00865 12.9146C8.10656 13.3171 7.85966 13.7228 7.45718 13.8207C7.0547 13.9186 6.64906 13.6717 6.55115 13.2692C6.45293 12.8654 6.40217 12.4515 6.39991 12.036L6.3999 12.0319V7.74864C6.40603 6.3484 6.965 5.00727 7.95512 4.01714C8.94525 3.02702 10.2864 2.46806 11.6866 2.46193Z" fill="#2D373D"/>
<path fill-rule="evenodd" clip-rule="evenodd" d="M15.57 12.0302V8.29193H17.07V12.0319L17.07 12.0352C17.0639 13.4334 16.5065 14.7728 15.5189 15.7626C14.5313 16.7524 13.1931 17.3127 11.7949 17.3219L11.79 17.3219L11.6924 17.3219C10.5628 17.329 9.4607 16.9736 8.54802 16.3079C8.40227 16.2013 8.26366 16.0838 8.13477 15.9573L9.1852 14.8865C9.26247 14.9623 9.3451 15.0325 9.43245 15.0964C10.0863 15.5731 10.8758 15.8274 11.6849 15.8219L11.69 15.8219L11.7874 15.8219C12.7898 15.8147 13.749 15.4128 14.4571 14.7031C15.1653 13.9933 15.5652 13.0329 15.57 12.0302Z" fill="#2D373D"/>
<path fill-rule="evenodd" clip-rule="evenodd" d="M20.0303 4.43158C20.3232 4.72448 20.3232 5.19935 20.0303 5.49224L4.53033 20.9922C4.23744 21.2851 3.76256 21.2851 3.46967 20.9922C3.17678 20.6994 3.17678 20.2245 3.46967 19.9316L18.9697 4.43158C19.2626 4.13869 19.7374 4.13869 20.0303 4.43158Z" fill="#2D373D"/>
</svg>
