<svg width="24" height="24" viewBox="0 0 24 24" fill="none" xmlns="http://www.w3.org/2000/svg">
<path d="M12.0002 1.9502C6.45019 1.9502 1.9502 6.45019 1.9502 12.0002C1.9502 17.5502 6.45019 22.0502 12.0002 22.0502C17.5502 22.0502 22.0502 17.5502 22.0502 12.0002C22.0502 6.45019 17.5502 1.9502 12.0002 1.9502ZM12.0002 20.5502C7.27519 20.5502 3.4502 16.7252 3.4502 12.0002C3.4502 7.27519 7.27519 3.4502 12.0002 3.4502C16.7252 3.4502 20.5502 7.27519 20.5502 12.0002C20.5502 16.7252 16.7252 20.5502 12.0002 20.5502Z" fill="#2D373D"/>
<path d="M16.8001 11.2502H12.7501V5.7002C12.7501 5.2502 12.4501 4.9502 12.0001 4.9502C11.5501 4.9502 11.2501 5.2502 11.2501 5.7002V12.0002C11.2501 12.4502 11.5501 12.7502 12.0001 12.7502H16.8001C17.1751 12.7502 17.5501 12.4502 17.5501 12.0002C17.5501 11.5502 17.2501 11.2502 16.8001 11.2502Z" fill="#2D373D"/>
</svg>
