<svg width="16" height="17" viewBox="0 0 16 17" fill="none" xmlns="http://www.w3.org/2000/svg">
<path d="M12.4499 6.76172C12.0499 6.36172 11.5499 6.11172 10.9499 5.96172C11.8499 5.71172 12.5499 4.91172 12.5499 3.91172C12.5499 2.71172 11.5999 1.76172 10.3999 1.76172C9.1999 1.76172 8.2499 2.71172 8.2499 3.91172C8.2499 4.91172 8.8999 5.71172 9.7999 5.96172C9.1999 6.06172 8.6999 6.36172 8.2499 6.76172C7.6999 7.31172 7.3999 8.06172 7.3999 8.86172V10.5117C7.3999 10.8117 7.5999 11.0117 7.8999 11.0117H8.2999L8.6499 14.7117C8.6999 14.9617 8.8999 15.1617 9.1499 15.1617H11.6499C11.8999 15.1617 12.0999 14.9617 12.1499 14.7117L12.4499 11.0117H12.7999C13.0999 11.0117 13.2999 10.8117 13.2999 10.5117V8.86172C13.2999 8.06172 12.9999 7.31172 12.4499 6.76172ZM9.2499 3.91172C9.2499 3.26172 9.7499 2.76172 10.3999 2.76172C11.0499 2.76172 11.5499 3.26172 11.5499 3.91172C11.5499 4.56172 11.0499 5.06172 10.3999 5.06172C9.7499 5.06172 9.2499 4.56172 9.2499 3.91172ZM12.3999 10.0117H12.0499C11.7999 10.0117 11.5999 10.2117 11.5499 10.4617L11.1999 14.1617H9.5999L9.2499 10.4617C9.1999 10.2117 8.9999 10.0117 8.7499 10.0117H8.3999V8.86172C8.3999 7.76172 9.2999 6.86172 10.3999 6.86172C10.9499 6.86172 11.3999 7.11172 11.7999 7.46172C12.1999 7.81172 12.3999 8.31172 12.3999 8.86172V10.0117Z" fill="#2D373D"/>
<path d="M4.3999 7.9617C3.4499 7.9617 2.6499 8.7617 2.6499 9.7117C2.6499 10.0117 2.8499 10.2117 3.1499 10.2117C3.4499 10.2117 3.6499 10.0117 3.6499 9.7117C3.6499 9.3117 3.9999 8.9617 4.3999 8.9617C4.7999 8.9617 5.1499 9.3117 5.1499 9.7117V14.6617C5.1499 14.9617 5.3499 15.1617 5.6499 15.1617C5.8999 15.1617 6.1499 14.9617 6.1499 14.6617V9.7117C6.1499 8.7617 5.3499 7.9617 4.3999 7.9617Z" fill="#2D373D"/>
</svg>
