<svg width="64" height="65" viewBox="0 0 64 65" fill="none" xmlns="http://www.w3.org/2000/svg">
<path d="M35.3993 34.0617C35.3993 32.8617 34.5993 32.0617 33.3993 32.0617H12.7993C12.1993 32.0617 11.7993 31.6617 11.7993 31.0617V13.2617C11.7993 12.6617 12.1993 12.2617 12.7993 12.2617H48.1993C48.7993 12.2617 49.1993 12.6617 49.1993 13.2617V25.0617C49.1993 26.2617 49.9993 27.0617 51.1993 27.0617C52.3993 27.0617 53.1993 26.2617 53.1993 25.0617V13.2617C53.1993 10.4617 50.9993 8.26172 48.1993 8.26172H12.7993C9.99932 8.26172 7.79932 10.4617 7.79932 13.2617V30.8617C7.79932 33.6617 9.99932 35.8617 12.7993 35.8617H33.3993C34.5993 35.8617 35.3993 35.0617 35.3993 34.0617Z" fill="#2D373D"/>
<path d="M16.5993 20.0617C15.9993 20.6617 15.7993 21.2617 15.7993 22.0617C15.7993 23.6617 16.9993 24.8617 18.5993 24.8617C20.1993 24.8617 21.3993 23.6617 21.3993 22.0617C21.3993 20.4617 20.1993 19.2617 18.5993 19.2617C17.7993 19.2617 17.1993 19.4617 16.5993 20.0617Z" fill="#2D373D"/>
<path d="M28.5993 20.0617C27.9993 20.6617 27.7993 21.2617 27.7993 22.0617C27.7993 22.8617 27.9993 23.4617 28.3993 24.0617C28.9993 24.6617 29.5993 24.8617 30.3993 24.8617C31.9993 24.8617 33.1993 23.6617 33.3993 22.0617C33.3993 20.4617 32.1993 19.2617 30.5993 19.2617C29.7993 19.2617 29.1993 19.4617 28.5993 20.0617Z" fill="#2D373D"/>
<path d="M40.1983 20.0617C39.5983 20.6617 39.3983 21.2617 39.3983 22.0617C39.3983 22.8617 39.5983 23.4617 40.1983 24.0617C40.7983 24.6617 41.3983 24.8617 42.1983 24.8617C43.7983 24.8617 44.9983 23.6617 44.9983 22.0617C44.9983 21.2617 44.7983 20.6617 44.1983 20.0617C43.5983 19.4617 42.9983 19.2617 42.1983 19.2617C41.3983 19.2617 40.7983 19.4617 40.1983 20.0617Z" fill="#2D373D"/>
<path d="M54.1983 37.8612H53.1983V36.8612C53.1983 32.6612 49.5983 29.0612 45.1983 29.0612C40.9983 29.0612 37.3983 32.4612 37.3983 36.8612V37.8612H36.3983C35.1983 37.8612 34.3983 38.6612 34.3983 39.8612V54.6612C34.3983 55.8612 35.1983 56.6612 36.3983 56.6612H54.1983C55.1983 56.6612 56.1983 55.6612 56.1983 54.6612V39.8612C56.1983 38.6612 55.3983 37.8612 54.1983 37.8612ZM41.1983 37.0612C41.1983 34.8612 42.9983 33.0612 45.1983 33.0612C47.3983 33.0612 49.1983 34.6612 49.1983 36.8612V37.8612H41.3983L41.1983 37.0612ZM52.1983 52.6612H38.3983V41.8612H52.1983V52.6612Z" fill="#2D373D"/>
<path d="M45.1983 44.4616C43.5983 44.4616 42.3983 45.6616 42.3983 47.2616C42.3983 48.8616 43.5983 50.0616 45.1983 50.0616C46.7983 50.0616 47.9983 48.8616 47.9983 47.2616C47.9983 45.6616 46.7983 44.4616 45.1983 44.4616Z" fill="#2D373D"/>
</svg>
