<svg width="32" height="33" viewBox="0 0 32 33" fill="none" xmlns="http://www.w3.org/2000/svg">
<path d="M9.74186 11.3711C9.18958 11.3711 8.74186 11.8188 8.74186 12.3711C8.74186 12.9234 9.18958 13.3711 9.74186 13.3711H22.0847C22.637 13.3711 23.0847 12.9234 23.0847 12.3711C23.0847 11.8188 22.637 11.3711 22.0847 11.3711H9.74186Z" fill="#2D373D"/>
<path d="M8.74186 17.2778C8.74186 16.7255 9.18958 16.2778 9.74186 16.2778H22.0847C22.637 16.2778 23.0847 16.7255 23.0847 17.2778C23.0847 17.8301 22.637 18.2778 22.0847 18.2778H9.74186C9.18958 18.2778 8.74186 17.8301 8.74186 17.2778Z" fill="#2D373D"/>
<path d="M9.74186 21.1845C9.18958 21.1845 8.74186 21.6322 8.74186 22.1845C8.74186 22.7368 9.18958 23.1845 9.74186 23.1845H15.9133C16.4656 23.1845 16.9133 22.7368 16.9133 22.1845C16.9133 21.6322 16.4656 21.1845 15.9133 21.1845H9.74186Z" fill="#2D373D"/>
<path fill-rule="evenodd" clip-rule="evenodd" d="M24.1009 3.95813C23.6258 3.47306 22.9786 3.19312 22.2952 3.19336H6.62929C5.93457 3.19336 5.27817 3.48278 4.80165 3.98177C4.32663 4.47919 4.06738 5.14441 4.06738 5.82892V27.0911C4.06738 27.7756 4.32663 28.4409 4.80165 28.9383C5.27817 29.4373 5.93457 29.7267 6.62929 29.7267H25.3721C26.0669 29.7267 26.7233 29.4373 27.1998 28.9383C27.6748 28.4409 27.934 27.7756 27.934 27.0911V8.97236C27.934 8.62696 27.868 8.28403 27.7389 7.96336C27.6097 7.64263 27.4193 7.3492 27.1767 7.10157L24.1009 3.95813ZM22.2958 5.19336C22.4274 5.19328 22.5632 5.2466 22.6717 5.35723L25.748 8.50123C25.804 8.55831 25.8509 8.62909 25.8837 8.71061C25.9165 8.79216 25.934 8.88141 25.934 8.97255V27.0911C25.934 27.2742 25.8642 27.441 25.7534 27.557C25.6441 27.6715 25.5059 27.7267 25.3721 27.7267H6.62929C6.49552 27.7267 6.35736 27.6715 6.24806 27.557C6.13725 27.441 6.06738 27.2742 6.06738 27.0911V5.82892C6.06738 5.64587 6.13725 5.47907 6.24806 5.36304C6.35736 5.24858 6.49552 5.19336 6.62929 5.19336L22.2958 5.19336Z" fill="#2D373D"/>
</svg>
