<svg width="24" height="25" viewBox="0 0 24 25" fill="none" xmlns="http://www.w3.org/2000/svg">
<path fill-rule="evenodd" clip-rule="evenodd" d="M10.2363 4.42188L6.77363 12.1719H9.65427C10.3355 12.1719 10.8173 12.8381 10.604 13.485L8.7102 19.2285L16.8337 10.6719H13.9568C13.1665 10.6719 12.6885 9.79843 13.1145 9.13282L16.1295 4.42188H10.2363ZM8.99905 3.51394C9.15997 3.15378 9.51758 2.92188 9.91206 2.92188H17.0431C17.8334 2.92188 18.3114 3.79532 17.8854 4.46093L14.8704 9.17188H17.9978C18.8763 9.17188 19.3279 10.2233 18.7231 10.8604L7.4939 22.6883C7.25221 22.9428 6.8663 22.9957 6.56504 22.8156C6.26378 22.6354 6.12778 22.2704 6.2377 21.937L8.96293 13.6719H6.0026C5.27809 13.6719 4.79404 12.9254 5.08959 12.2639L8.99905 3.51394Z" fill="#2D373D"/>
</svg>
