<svg width="16" height="17" viewBox="0 0 16 17" fill="none" xmlns="http://www.w3.org/2000/svg">
<path d="M3.49976 8.6742C3.54976 8.7242 3.64976 8.7242 3.69976 8.7242C4.09976 8.7242 4.39976 8.3742 4.39976 7.9742C4.39976 7.8742 4.39976 7.8242 4.34976 7.7742C4.29976 7.5742 4.09976 7.3742 3.89976 7.3242C3.84976 7.2742 3.74976 7.2742 3.69976 7.2742C3.29976 7.2242 2.99976 7.5742 2.99976 7.9242C2.99976 8.3242 3.19976 8.5742 3.49976 8.6742Z" fill="#2D373D"/>
<path d="M7.6998 9.32422H2.6498C2.4498 9.32422 2.2998 9.17422 2.2998 8.97422V7.72422C2.2998 7.07422 2.8498 6.52422 3.4998 6.52422H11.8998C12.3498 6.52422 12.7498 6.77422 12.9498 7.12422C13.0998 7.37422 13.3998 7.47422 13.6498 7.32422C13.8998 7.17422 13.9998 6.87422 13.8498 6.62422C13.5998 6.17422 13.1998 5.87422 12.7498 5.67422L11.8498 3.72422C11.5998 3.02422 10.9498 2.57422 10.1998 2.57422H5.1998C4.4998 2.57422 3.7998 3.02422 3.5998 3.67422L2.6998 5.67422C1.8998 6.02422 1.2998 6.77422 1.2998 7.72422V8.97422C1.2998 9.37422 1.4498 9.67422 1.6998 9.92422V10.6742C1.6998 11.4242 2.2998 12.0242 3.0498 12.0242C3.7998 12.0242 4.3998 11.4242 4.3998 10.6742V10.3242H7.6998C7.9498 10.3242 8.1998 10.1242 8.1998 9.82422C8.1998 9.52422 7.9998 9.32422 7.6998 9.32422ZM4.4998 4.07422C4.5998 3.77422 4.8998 3.57422 5.2498 3.57422H10.2498C10.5498 3.57422 10.8498 3.77422 10.9498 4.07422L11.5998 5.52422H3.8498L4.4998 4.07422ZM3.3998 10.6742C3.3998 10.8742 3.2498 11.0242 3.0498 11.0242C2.8498 11.0242 2.6998 10.8742 2.6998 10.6742V10.3242H3.3998V10.6742Z" fill="#2D373D"/>
<path d="M11.7498 9.92419C11.6998 9.97419 11.6998 9.92419 11.7498 9.92419C11.3998 9.92419 11.1498 10.1242 11.0498 10.4242C10.9998 10.4742 10.9998 10.5742 10.9998 10.6242C10.9998 10.6742 10.9998 10.7742 11.0498 10.8242C11.0998 11.0242 11.2998 11.2242 11.4998 11.2742C11.5498 11.3242 11.6498 11.3242 11.6998 11.3242C11.9998 11.3242 12.2998 11.1242 12.3998 10.8742C12.4498 10.8242 12.4498 10.7242 12.4498 10.6242C12.4498 10.2242 12.1498 9.92419 11.7498 9.92419Z" fill="#2D373D"/>
<path d="M11.7498 7.62415C10.0998 7.62415 8.74976 8.97415 8.74976 10.6241C8.74976 11.7241 9.94976 13.5741 10.9998 14.8741C11.0498 14.9241 11.0998 14.9741 11.1498 15.0241C11.2998 15.1741 11.4998 15.2241 11.6998 15.2241C11.7498 15.2241 11.7998 15.2241 11.8998 15.2241C12.1498 15.1741 12.3498 15.0741 12.4998 14.8741C13.4998 13.5241 14.7498 11.7241 14.7498 10.6241C14.7498 8.97415 13.3998 7.62415 11.7498 7.62415ZM11.6998 14.2241C10.4498 12.6241 9.69976 11.2741 9.69976 10.6741C9.69976 9.57415 10.5998 8.67415 11.6998 8.67415C12.7998 8.67415 13.6998 9.52415 13.6998 10.6741C13.6998 11.2741 12.8998 12.6241 11.6998 14.2241Z" fill="#2D373D"/>
</svg>
