<svg width="24" height="25" viewBox="0 0 24 25" fill="none" xmlns="http://www.w3.org/2000/svg">
<path d="M13.2899 14.0215C13.139 12.7676 12.53 11.6136 11.5799 10.7815C10.9432 10.2392 10.1851 9.85838 9.36992 9.67149C10.0705 9.39349 10.6523 8.87992 11.015 8.21919C11.3778 7.55847 11.4988 6.79195 11.3573 6.0516C11.2158 5.31126 10.8206 4.64342 10.2397 4.16307C9.65883 3.68272 8.92867 3.41992 8.17492 3.41992C7.42117 3.41992 6.691 3.68272 6.11013 4.16307C5.52927 4.64342 5.13405 5.31126 4.99254 6.0516C4.85102 6.79195 4.97205 7.55847 5.3348 8.21919C5.69755 8.87992 6.27931 9.39349 6.97992 9.67149C6.16157 9.858 5.40013 10.2387 4.75992 10.7815C3.78379 11.6021 3.14905 12.7575 2.97992 14.0215C2.95575 14.1241 2.95351 14.2307 2.97332 14.3343C2.99314 14.4379 3.03457 14.5361 3.09492 14.6226C3.15526 14.709 3.23317 14.7818 3.32354 14.8361C3.41392 14.8905 3.51473 14.9251 3.61941 14.9379C3.72409 14.9506 3.83027 14.9411 3.93104 14.91C4.0318 14.8789 4.12488 14.827 4.20419 14.7575C4.28351 14.688 4.34728 14.6026 4.39134 14.5068C4.43541 14.411 4.45877 14.3069 4.45992 14.2015C4.57942 13.3168 5.0123 12.5042 5.67992 11.9115C6.35141 11.3291 7.21103 11.0094 8.09992 11.0115C8.98553 11.0109 9.84149 11.3305 10.5099 11.9115C11.1775 12.5042 11.6104 13.3168 11.7299 14.2015C11.7518 14.3827 11.8391 14.5497 11.9753 14.6712C12.1115 14.7927 12.2874 14.8604 12.4699 14.8615H12.5599C12.6653 14.861 12.7693 14.8381 12.8651 14.7942C12.9609 14.7503 13.0461 14.6864 13.1153 14.6069C13.1844 14.5274 13.2357 14.434 13.2658 14.3331C13.2959 14.2321 13.3042 14.1259 13.2899 14.0215ZM6.41992 6.6915C6.42386 6.35021 6.52867 6.01772 6.72115 5.73587C6.91362 5.45402 7.18517 5.23539 7.50162 5.10751C7.81806 4.97964 8.16526 4.94822 8.49952 5.01721C8.83377 5.0862 9.14016 5.25253 9.38011 5.49525C9.62005 5.73797 9.78285 6.04625 9.84799 6.38128C9.91314 6.71631 9.87773 7.06312 9.74623 7.37807C9.61472 7.69303 9.39299 7.96204 9.10894 8.15127C8.82489 8.34049 8.49122 8.44147 8.14992 8.4415C7.92104 8.44151 7.69443 8.39611 7.48322 8.30792C7.27201 8.21973 7.08041 8.09051 6.9195 7.92774C6.75859 7.76497 6.63158 7.57189 6.54582 7.35968C6.46006 7.14747 6.41727 6.92036 6.41992 6.6915Z" fill="#2D373D"/>
<path d="M13.3999 10.3015C13.6403 10.0278 13.9171 9.73944 14.2499 9.59149C14.5801 9.44302 14.9379 9.36625 15.2999 9.36625C15.6619 9.36625 16.0198 9.44302 16.3499 9.59149C16.6828 9.73944 16.9796 9.95779 17.2199 10.2315C17.2899 10.3116 17.3759 10.3761 17.4723 10.4209C17.5688 10.4657 17.6736 10.4898 17.7799 10.4915C17.9646 10.4937 18.1433 10.4258 18.2799 10.3015C18.4149 10.174 18.4971 10.0004 18.51 9.81515C18.523 9.62991 18.4658 9.44656 18.3499 9.30149C17.969 8.87075 17.4978 8.52931 16.9699 8.3015C17.4071 7.95656 17.726 7.484 17.8823 6.94949C18.0385 6.41498 18.0244 5.84506 17.8418 5.31895C17.6593 4.79284 17.3174 4.33666 16.8636 4.01382C16.4099 3.69098 15.8668 3.5175 15.3099 3.5175C14.753 3.5175 14.21 3.69098 13.7562 4.01382C13.3025 4.33666 12.9606 4.79284 12.778 5.31895C12.5955 5.84506 12.5813 6.41498 12.7376 6.94949C12.8938 7.484 13.2127 7.95656 13.6499 8.3015C13.1234 8.53183 12.6527 8.8729 12.2699 9.30149C12.1373 9.45134 12.0697 9.64773 12.0818 9.84746C12.094 10.0472 12.1851 10.2339 12.3349 10.3665C12.4848 10.4991 12.6812 10.5668 12.8809 10.5546C13.0806 10.5424 13.2673 10.4513 13.3999 10.3015ZM15.2999 4.9615C15.5337 4.9615 15.7623 5.03097 15.9565 5.16108C16.1508 5.29118 16.302 5.47607 16.391 5.69227C16.48 5.90847 16.5028 6.14624 16.4565 6.3754C16.4101 6.60457 16.2967 6.8148 16.1307 6.97942C15.9647 7.14405 15.7535 7.25563 15.5239 7.30003C15.2944 7.34442 15.0568 7.31962 14.8414 7.22878C14.6259 7.13793 14.4424 6.98513 14.3139 6.78977C14.1855 6.59441 14.1179 6.36529 14.1199 6.1315C14.1226 5.82028 14.248 5.5227 14.469 5.30357C14.6901 5.08443 14.9887 4.96148 15.2999 4.9615Z" fill="#2D373D"/>
<path d="M19.8999 14.6215V14.1115C19.8729 13.5448 19.6857 12.9974 19.3601 12.5328C19.0345 12.0682 18.5838 11.7054 18.0603 11.4866C17.5369 11.2678 16.9621 11.2019 16.4027 11.2966C15.8433 11.3913 15.3222 11.6426 14.8999 12.0215C14.3297 12.5696 13.9991 13.3208 13.9799 14.1115V14.6215C13.6527 14.7666 13.3747 15.0035 13.1794 15.3035C12.9842 15.6034 12.8801 15.9536 12.8799 16.3115V19.6115C12.8825 19.8544 12.933 20.0945 13.0284 20.318C13.1238 20.5414 13.2622 20.7439 13.4359 20.9138C13.6095 21.0838 13.8149 21.2178 14.0404 21.3084C14.2659 21.3989 14.507 21.4441 14.7499 21.4415H19.1499C19.6336 21.4363 20.0961 21.2418 20.4382 20.8997C20.7802 20.5577 20.9747 20.0952 20.9799 19.6115V16.3115C20.9814 15.9558 20.8804 15.6072 20.6888 15.3074C20.4973 15.0077 20.2234 14.7695 19.8999 14.6215ZM15.4999 14.1115C15.5053 13.7364 15.6558 13.3779 15.9199 13.1115C16.1972 12.8462 16.5662 12.6982 16.9499 12.6982C17.3337 12.6982 17.7026 12.8462 17.9799 13.1115C18.2458 13.3767 18.3967 13.7359 18.3999 14.1115V14.4415H15.4999V14.1115ZM19.4999 19.6115C19.4999 19.7043 19.463 19.7933 19.3974 19.859C19.3318 19.9246 19.2427 19.9615 19.1499 19.9615H14.7499C14.6571 19.9615 14.5681 19.9246 14.5024 19.859C14.4368 19.7933 14.3999 19.7043 14.3999 19.6115V16.3115C14.3999 16.2187 14.4368 16.1296 14.5024 16.064C14.5681 15.9984 14.6571 15.9615 14.7499 15.9615H19.1499C19.2427 15.9615 19.3318 15.9984 19.3974 16.064C19.463 16.1296 19.4999 16.2187 19.4999 16.3115V19.6115Z" fill="#2D373D"/>
<path d="M16.9399 18.9915C17.4922 18.9915 17.9399 18.5438 17.9399 17.9915C17.9399 17.4392 17.4922 16.9915 16.9399 16.9915C16.3876 16.9915 15.9399 17.4392 15.9399 17.9915C15.9399 18.5438 16.3876 18.9915 16.9399 18.9915Z" fill="#2D373D"/>
</svg>
