<svg width="16" height="17" viewBox="0 0 16 17" fill="none" xmlns="http://www.w3.org/2000/svg">
<path fill-rule="evenodd" clip-rule="evenodd" d="M7.57015 2.33843C7.84651 2.23094 8.15313 2.23094 8.42949 2.33843L14.3446 4.63893C14.537 4.71376 14.6637 4.89901 14.6637 5.10544V8.5298C14.6637 8.80625 14.4396 9.03035 14.1632 9.03035C13.8867 9.03035 13.6626 8.80625 13.6626 8.5298V5.83719L8.50037 7.84489V14.3512C8.50037 14.5165 8.41882 14.6711 8.28243 14.7644C8.14604 14.8576 7.97239 14.8776 7.81839 14.8177L1.65505 12.4207C1.46266 12.3458 1.33594 12.1606 1.33594 11.9542V5.10544C1.33594 4.89901 1.46266 4.71376 1.65505 4.63893L7.57015 2.33843ZM7.99982 6.96542L9.70055 6.30397L4.91815 4.44399L3.21742 5.10544L7.99982 6.96542ZM2.33704 5.83719V11.6118L7.49927 13.6195V7.84489L2.33704 5.83719ZM6.29909 3.90692L11.0815 5.76689L12.7822 5.10544L8.06662 3.27145C8.02366 3.25474 7.97599 3.25474 7.93302 3.27145L6.29909 3.90692Z" fill="#2D373D"/>
<path fill-rule="evenodd" clip-rule="evenodd" d="M12.0832 14.5884C12.9576 14.5884 13.6665 13.8795 13.6665 13.0051C13.6665 12.799 13.6042 12.4439 13.456 11.9824C13.313 11.5368 13.1097 11.0532 12.8769 10.6099C12.641 10.1605 12.3945 9.79018 12.1778 9.54826C12.1431 9.50947 12.1115 9.47663 12.0832 9.44903C12.0548 9.47663 12.0232 9.50947 11.9885 9.54826C11.7718 9.79018 11.5253 10.1605 11.2894 10.6099C11.0567 11.0532 10.8534 11.5368 10.7103 11.9824C10.5621 12.4439 10.4998 12.799 10.4998 13.0051C10.4998 13.8795 11.2087 14.5884 12.0832 14.5884ZM12.0832 15.5884C13.5099 15.5884 14.6665 14.4318 14.6665 13.0051C14.6665 11.5784 13.1165 8.35515 12.0832 8.35515C11.0498 8.35515 9.49982 11.5784 9.49982 13.0051C9.49982 14.4318 10.6564 15.5884 12.0832 15.5884Z" fill="#2D373D"/>
</svg>
