<svg width="24" height="25" viewBox="0 0 24 25" fill="none" xmlns="http://www.w3.org/2000/svg">
<path d="M8.74998 13.8347V13.2347C9.06501 13.0886 9.33197 12.8559 9.51967 12.5637C9.70737 12.2715 9.80806 11.932 9.80998 11.5847C9.8095 11.2597 9.72151 10.9408 9.55527 10.6616C9.38902 10.3823 9.15065 10.1529 8.86519 9.99759C8.57972 9.84224 8.25769 9.76661 7.93291 9.77866C7.60813 9.7907 7.29259 9.88997 7.01941 10.066C6.74623 10.2421 6.5255 10.4885 6.3804 10.7793C6.23529 11.0701 6.17117 11.3946 6.19476 11.7188C6.21834 12.0429 6.32877 12.3547 6.51445 12.6215C6.70012 12.8882 6.95419 13.1 7.24998 13.2347V13.8347C6.06772 14.0092 4.98705 14.6013 4.20375 15.5039C3.42044 16.4064 2.9863 17.5597 2.97998 18.7547V21.1547C2.98257 21.3528 3.06242 21.5421 3.20251 21.6822C3.34261 21.8223 3.53187 21.9021 3.72998 21.9047H12.23C12.4281 21.9021 12.6174 21.8223 12.7574 21.6822C12.8975 21.5421 12.9774 21.3528 12.98 21.1547V18.7547C12.9751 17.5656 12.5466 16.4171 11.7714 15.5154C10.9962 14.6137 9.92494 14.0178 8.74998 13.8347ZM7.97998 11.2747C8.04129 11.2747 8.10123 11.2929 8.15221 11.327C8.20319 11.361 8.24292 11.4094 8.26638 11.4661C8.28985 11.5227 8.29599 11.5851 8.28402 11.6452C8.27206 11.7053 8.24254 11.7606 8.19918 11.8039C8.15583 11.8473 8.10059 11.8768 8.04046 11.8888C7.98032 11.9007 7.91799 11.8946 7.86135 11.8711C7.8047 11.8477 7.75629 11.8079 7.72222 11.7569C7.68816 11.706 7.66998 11.646 7.66998 11.5847C7.66998 11.5025 7.70264 11.4236 7.76078 11.3655C7.81891 11.3074 7.89776 11.2747 7.97998 11.2747ZM11.48 20.4047H4.47998V18.7547C4.47998 17.8265 4.84873 16.9362 5.50511 16.2798C6.16148 15.6235 7.05172 15.2547 7.97998 15.2547C8.90824 15.2547 9.79848 15.6235 10.4549 16.2798C11.1112 16.9362 11.48 17.8265 11.48 18.7547V20.4047Z" fill="#2D373D"/>
<path d="M21.85 10.0947C21.7821 9.99265 21.6898 9.90907 21.5816 9.85147C21.4734 9.79387 21.3526 9.76406 21.23 9.76471H17.82C17.7099 9.76478 17.6009 9.74268 17.4995 9.69973C17.3982 9.65678 17.3065 9.59385 17.23 9.51471C17.1107 9.3978 17.0289 9.24797 16.9952 9.08437C16.9614 8.92076 16.9772 8.75081 17.0406 8.59624C17.1039 8.44166 17.2119 8.30948 17.3507 8.21658C17.4896 8.12368 17.6529 8.07429 17.82 8.07471H21.23C21.3522 8.07364 21.4725 8.04308 21.5804 7.98563C21.6883 7.92818 21.7808 7.84554 21.85 7.74471C21.9197 7.64149 21.9626 7.52253 21.9748 7.39857C21.987 7.27461 21.9682 7.14956 21.92 7.03471C21.663 6.39994 21.2784 5.82472 20.79 5.34471C20.2975 4.86724 19.712 4.49622 19.07 4.25471C18.4337 4.007 17.7518 3.89791 17.07 3.93471C16.0364 3.98436 15.0437 4.35344 14.2288 4.99106C13.4138 5.62869 12.8168 6.50345 12.52 7.49471C12.1764 8.61868 12.2473 9.82862 12.72 10.9047L11.03 12.5847C10.8895 12.7253 10.8106 12.916 10.8106 13.1147C10.8106 13.3135 10.8895 13.5041 11.03 13.6447C11.0989 13.7155 11.1813 13.7717 11.2724 13.8101C11.3634 13.8485 11.4612 13.8683 11.56 13.8683C11.6588 13.8683 11.7566 13.8485 11.8476 13.8101C11.9386 13.7717 12.021 13.7155 12.09 13.6447L14.16 11.6047C14.2765 11.4868 14.3512 11.3342 14.3729 11.1699C14.3945 11.0056 14.3619 10.8387 14.28 10.6947C14.0327 10.2824 13.8758 9.82224 13.82 9.34471C13.7746 8.85882 13.8291 8.36879 13.98 7.90471C14.1099 7.44135 14.3385 7.01154 14.65 6.64471C14.9639 6.27866 15.3482 5.9794 15.78 5.76471C16.2119 5.55538 16.6808 5.43306 17.16 5.40471C17.6407 5.38559 18.1203 5.46383 18.57 5.63471C19.0188 5.80581 19.4274 6.06798 19.77 6.40471L19.92 6.55471H17.82C17.2022 6.55667 16.6098 6.80081 16.17 7.23471C15.9496 7.45311 15.775 7.71333 15.6565 8.0001C15.538 8.28688 15.478 8.59443 15.48 8.90471C15.482 9.52741 15.73 10.1241 16.17 10.5647C16.3853 10.7836 16.6422 10.9574 16.9255 11.0759C17.2088 11.1943 17.5129 11.2551 17.82 11.2547H19.89C19.83 11.3247 19.76 11.3847 19.69 11.4547C19.3251 11.8023 18.888 12.0652 18.41 12.2247C17.9338 12.3881 17.4277 12.4459 16.9269 12.3941C16.4262 12.3423 15.9427 12.1821 15.51 11.9247C15.3669 11.8394 15.1993 11.8048 15.0341 11.8266C14.869 11.8484 14.716 11.9252 14.6 12.0447L12.51 14.1347C12.3695 14.2753 12.2906 14.466 12.2906 14.6647C12.2906 14.8635 12.3695 15.0541 12.51 15.1947C12.5792 15.2648 12.6618 15.3204 12.7528 15.3582C12.8438 15.396 12.9414 15.4152 13.04 15.4147C13.2384 15.4124 13.4283 15.3336 13.57 15.1947L15.28 13.4847C15.7521 13.6969 16.2551 13.8319 16.77 13.8847C17.489 13.9553 18.2147 13.8735 18.9 13.6447C19.5804 13.4169 20.202 13.0412 20.72 12.5447C21.2601 12.0581 21.6898 11.4613 21.98 10.7947C22.0171 10.6763 22.0247 10.5506 22.002 10.4285C21.9794 10.3065 21.9272 10.1919 21.85 10.0947Z" fill="#2D373D"/>
<path d="M6.26998 18.2247C6.63449 18.2247 6.92998 17.9292 6.92998 17.5647C6.92998 17.2002 6.63449 16.9047 6.26998 16.9047C5.90547 16.9047 5.60998 17.2002 5.60998 17.5647C5.60998 17.9292 5.90547 18.2247 6.26998 18.2247Z" fill="#2D373D"/>
<path d="M9.71998 18.2247C10.0845 18.2247 10.38 17.9292 10.38 17.5647C10.38 17.2002 10.0845 16.9047 9.71998 16.9047C9.35547 16.9047 9.05998 17.2002 9.05998 17.5647C9.05998 17.9292 9.35547 18.2247 9.71998 18.2247Z" fill="#2D373D"/>
</svg>
