<svg width="24" height="25" viewBox="0 0 24 25" fill="none" xmlns="http://www.w3.org/2000/svg">
<path fill-rule="evenodd" clip-rule="evenodd" d="M5.22477 12.3317C5.63898 12.3317 5.97477 12.6675 5.97477 13.0817V20.4767C5.97477 20.6047 6.0256 20.7274 6.11609 20.8179C6.20658 20.9084 6.3293 20.9592 6.45727 20.9592H17.5498C17.6777 20.9592 17.8005 20.9084 17.8909 20.8179C17.9814 20.7274 18.0323 20.6047 18.0323 20.4767V13.0817C18.0323 12.6675 18.3681 12.3317 18.7823 12.3317C19.1965 12.3317 19.5323 12.6675 19.5323 13.0817V20.4767C19.5323 21.0025 19.3234 21.5068 18.9516 21.8786C18.5798 22.2504 18.0756 22.4592 17.5498 22.4592H6.45727C5.93148 22.4592 5.42722 22.2504 5.05543 21.8786C4.68364 21.5068 4.47477 21.0025 4.47477 20.4767V13.0817C4.47477 12.6675 4.81055 12.3317 5.22477 12.3317Z" fill="#2D373D"/>
<path fill-rule="evenodd" clip-rule="evenodd" d="M11.4918 2.67339C11.7799 2.40444 12.2271 2.40444 12.5153 2.67339L21.759 11.3009C22.0618 11.5835 22.0782 12.0581 21.7956 12.3609C21.5129 12.6637 21.0383 12.6801 20.7355 12.3975L12.0035 4.24759L3.27151 12.3975C2.96869 12.6801 2.4941 12.6637 2.21148 12.3609C1.92885 12.0581 1.94522 11.5835 2.24803 11.3009L11.4918 2.67339Z" fill="#2D373D"/>
<path fill-rule="evenodd" clip-rule="evenodd" d="M10.4212 10.2669C10.6774 10.0106 11.0249 9.8667 11.3873 9.8667H12.6198C12.9821 9.8667 13.3296 10.0106 13.5859 10.2669C13.8421 10.5231 13.986 10.8706 13.986 11.2329V12.3317H15.0848C15.4471 12.3317 15.7946 12.4756 16.0509 12.7319C16.3071 12.9881 16.451 13.3356 16.451 13.6979V14.9304C16.451 15.2928 16.3071 15.6403 16.0509 15.8965C15.7946 16.1528 15.4471 16.2967 15.0848 16.2967H13.986V17.3954C13.986 17.7578 13.8421 18.1053 13.5859 18.3615C13.3296 18.6178 12.9821 18.7617 12.6198 18.7617H11.3873C11.0249 18.7617 10.6774 18.6178 10.4212 18.3615C10.165 18.1053 10.021 17.7578 10.021 17.3954V16.2967H8.92227C8.55992 16.2967 8.21241 16.1528 7.95619 15.8965C7.69997 15.6403 7.55602 15.2928 7.55602 14.9304V13.6979C7.55602 13.3356 7.69997 12.9881 7.95619 12.7319C8.21241 12.4756 8.55992 12.3317 8.92227 12.3317H10.021V11.2329C10.021 10.8706 10.165 10.5231 10.4212 10.2669ZM11.521 11.3667V13.0817C11.521 13.4959 11.1852 13.8317 10.771 13.8317H9.05602V14.7967H10.771C11.1852 14.7967 11.521 15.1325 11.521 15.5467V17.2617H12.486V15.5467C12.486 15.1325 12.8218 14.7967 13.236 14.7967H14.951V13.8317H13.236C12.8218 13.8317 12.486 13.4959 12.486 13.0817V11.3667H11.521Z" fill="#2D373D"/>
</svg>
