<svg width="64" height="64" viewBox="0 0 64 64" fill="none" xmlns="http://www.w3.org/2000/svg">
<path d="M53.6002 18.4002H49.0002V10.4002C49.0002 7.6002 46.6002 5.2002 43.6002 5.2002H20.4002C17.6002 5.2002 15.2002 7.6002 15.2002 10.4002V18.4002H10.6002C7.6002 18.4002 5.2002 20.8002 5.2002 23.8002V40.4002C5.2002 43.2002 7.6002 45.6002 10.6002 45.6002H15.2002V56.8002C15.2002 58.0002 16.0002 58.8002 17.2002 58.8002H47.0002C48.0002 58.8002 49.0002 58.0002 49.0002 56.8002V45.6002H53.6002C56.6002 45.6002 59.0002 43.2002 59.0002 40.2002V23.6002C59.0002 20.8002 56.6002 18.4002 53.6002 18.4002ZM19.2002 10.6002C19.2002 9.8002 19.8002 9.2002 20.4002 9.0002H43.6002C44.4002 9.0002 45.0002 9.60019 45.0002 10.4002V18.4002H19.2002V10.6002ZM45.0002 54.8002H19.2002V35.6002H45.0002V54.8002ZM55.0002 40.2002C55.0002 41.0002 54.4002 41.6002 53.6002 41.6002H49.0002V33.6002C49.0002 32.4002 48.2002 31.6002 47.0002 31.6002H17.2002C16.0002 31.6002 15.2002 32.4002 15.2002 33.6002V41.8002H10.6002C9.8002 41.8002 9.2002 41.2002 9.2002 40.4002V23.8002C9.2002 23.0002 9.8002 22.4002 10.6002 22.4002H53.6002C54.4002 22.4002 55.0002 23.0002 55.0002 23.8002V40.2002Z" fill="#2D373D"/>
<path d="M17.2003 25H13.8003C12.6003 25 11.8003 25.8 11.8003 27C11.8003 28.2 12.6003 29 13.8003 29H17.2003C18.2003 29 19.2003 28.2 19.2003 27C19.2003 25.8 18.4003 25 17.2003 25Z" fill="#2D373D"/>
<path d="M40.4003 38.4004H23.8003C22.6003 38.4004 21.8003 39.2004 21.8003 40.4004C21.8003 41.6004 22.6003 42.4004 23.8003 42.4004H40.4003C41.4003 42.4004 42.4003 41.6004 42.4003 40.4004C42.4003 39.2004 41.6003 38.4004 40.4003 38.4004Z" fill="#2D373D"/>
<path d="M35.4003 45H23.8003C22.6003 45 21.8003 45.8 21.8003 47C21.8003 48.2 22.6003 49 23.8003 49H35.4003C36.4003 49 37.4003 48.2 37.4003 47C37.4003 45.8 36.6003 45 35.4003 45Z" fill="#2D373D"/>
</svg>
