<svg width="24" height="24" viewBox="0 0 24 24" fill="none" xmlns="http://www.w3.org/2000/svg">
<path d="M11.9999 1.9502C8.1749 1.9502 5.0249 5.10019 5.0249 8.92519C5.0249 12.3002 6.9749 14.4002 8.7749 16.2002C8.9999 16.4252 9.2249 16.6502 9.4499 16.8752C10.1999 17.5502 10.9499 20.0252 11.2499 21.4502C11.3249 21.8252 11.6249 22.0502 11.9999 22.0502C12.2999 22.0502 12.5999 21.8252 12.7499 21.5252C13.1249 20.1002 13.8749 17.6252 14.5499 16.8752C14.7749 16.5752 14.9999 16.3502 15.2249 16.1252C16.9499 14.3252 18.9749 12.3002 18.9749 8.92519C18.9749 5.10019 15.8249 1.9502 11.9999 1.9502ZM14.0999 15.1502C13.8749 15.3752 13.6499 15.6752 13.4249 15.9002C12.8249 16.5002 12.3749 17.6252 11.9999 18.6752C11.6249 17.6252 11.0999 16.5002 10.5749 15.9002C10.3499 15.6752 10.1249 15.3752 9.8999 15.1502C8.2499 13.4252 6.5249 11.7002 6.5249 8.92519C6.5249 5.92519 8.9999 3.4502 11.9999 3.4502C14.9999 3.4502 17.3999 5.92519 17.3999 8.92519C17.3999 11.7002 15.7499 13.4252 14.0999 15.1502Z" fill="#2D373D"/>
<path d="M11.9999 5.7002C10.1999 5.7002 8.7749 7.12519 8.7749 8.92519C8.7749 10.6502 10.1999 12.1502 11.9999 12.1502C13.7249 12.1502 15.2249 10.6502 15.2249 8.92519C15.2249 7.12519 13.7999 5.7002 11.9999 5.7002ZM11.9999 10.6502C11.0249 10.6502 10.2749 9.90019 10.2749 8.92519C10.2749 7.95019 11.0249 7.2002 11.9999 7.2002C12.8999 7.2002 13.7249 7.95019 13.7249 8.92519C13.7249 9.90019 12.9749 10.6502 11.9999 10.6502Z" fill="#2D373D"/>
</svg>
