<svg width="24" height="25" viewBox="0 0 24 25" fill="none" xmlns="http://www.w3.org/2000/svg">
<path d="M20.325 12.3105H16.575C16.125 12.3105 15.825 12.6105 15.825 13.0605C15.825 13.5105 16.125 13.8105 16.575 13.8105H18.675L15.825 16.7355C15.525 16.9605 15.15 17.1105 14.775 16.9605L10.275 15.7605C9.375 15.5355 8.4 15.7605 7.8 16.4355L3.225 21.1605C2.925 21.4605 2.925 21.9105 3.225 22.2105C3.375 22.3605 3.525 22.4355 3.75 22.4355C3.975 22.4355 4.125 22.3605 4.275 22.2855L8.85 17.5605C9.075 17.2605 9.45 17.1855 9.825 17.2605L14.325 18.4605C15.225 18.6855 16.2 18.4605 16.875 17.7855L19.575 15.0105V16.8105C19.575 17.2605 19.875 17.5605 20.325 17.5605C20.775 17.5605 21.075 17.1855 21.075 16.8105V13.0605C21.075 12.6105 20.775 12.3105 20.325 12.3105Z" fill="#2D373D"/>
<path d="M10.95 13.5104C11.325 13.5104 11.7 13.1354 11.7 12.7604V12.5354C12.3 12.4604 12.9 12.0104 13.125 11.3354C13.35 10.8854 13.35 10.3604 13.125 9.91044C12.9 9.46044 12.525 9.08544 12.075 8.93544L10.35 8.26044C10.2 8.26044 10.125 8.11044 10.125 7.96044C10.125 7.88544 10.2 7.81044 10.275 7.73544C10.275 7.73544 10.35 7.66044 10.5 7.66044H12.225C12.675 7.66044 12.975 7.36044 12.975 6.91044C12.975 6.46044 12.675 6.16044 12.225 6.16044H11.7V6.01044C11.7 5.56044 11.4 5.26044 10.95 5.26044C10.5 5.26044 10.2 5.56044 10.2 6.01044V6.16044C9.3 6.31044 8.625 7.06044 8.625 8.03544C8.625 8.78544 9.075 9.46044 9.825 9.68544L11.4 10.3604C11.55 10.4354 11.625 10.5104 11.625 10.5854C11.625 10.6604 11.7 10.7354 11.625 10.8854C11.625 11.0354 11.475 11.1104 11.325 11.1104H9.675C9.225 11.1104 8.925 11.4104 8.925 11.8604C8.925 12.3104 9.225 12.6104 9.675 12.6104H10.2V12.7604C10.2 13.2104 10.5 13.5104 10.95 13.5104Z" fill="#2D373D"/>
<path d="M6.74975 14.9356C6.89975 15.0106 7.04976 15.0856 7.19975 15.0856C7.42476 15.0856 7.64975 14.9356 7.79975 14.7856C8.02475 14.4856 7.94975 13.9606 7.64975 13.7356C5.99975 12.4606 5.17475 10.3606 5.62475 8.26057C5.84975 6.83557 6.67475 5.63557 7.94975 4.81057C9.22475 3.98557 10.6498 3.68557 12.0748 3.98557C13.4998 4.28557 14.6998 5.11057 15.5248 6.31057C16.3498 7.58557 16.6498 9.01057 16.3498 10.4356C16.2748 10.8856 16.5748 11.2606 16.9498 11.3356C17.3998 11.4106 17.7748 11.1106 17.8498 10.7356C18.2248 8.86057 17.8498 7.06057 16.7998 5.48557C15.7498 3.91057 14.1748 2.86057 12.3748 2.48557C10.4998 2.11057 8.69975 2.48557 7.12475 3.53557C5.54975 4.58557 4.49975 6.16057 4.12475 8.03557C3.59975 10.5856 4.64975 13.3606 6.74975 14.9356Z" fill="#2D373D"/>
</svg>
