<svg width="64" height="64" viewBox="0 0 64 64" fill="none" xmlns="http://www.w3.org/2000/svg">
<path d="M55.5998 30.6L33.3998 8.40002C32.9998 8.00002 32.5998 7.80002 31.9998 7.80002C31.3998 7.80002 30.9998 8.00002 30.5998 8.40002L8.3998 30.6C7.9998 31 7.7998 31.4 7.7998 32V54.2C7.7998 55.4 8.5998 56.2 9.7998 56.2C10.9998 56.2 11.7998 55.4 11.7998 54.2V32.8L31.9998 12.6L52.1998 32.8V54.2C52.1998 55.4 52.9998 56.2 54.1998 56.2C55.1998 56.2 56.1998 55.2 56.1998 54.2V32C56.1998 31.4 55.9998 31 55.5998 30.6Z" fill="#2D373D"/>
<path d="M34.5999 31.8001C36.7999 30.8001 38.3999 28.6001 38.3999 26.0001C38.3999 22.4001 35.5999 19.6001 31.9999 19.6001C28.3999 19.6001 25.5999 22.4001 25.5999 26.0001C25.5999 28.6001 27.1999 30.8001 29.3999 31.8001C25.5999 33.0001 22.5999 36.6001 22.5999 40.8001V45.2001C22.5999 46.4001 23.3999 47.2001 24.5999 47.2001H25.7999L26.9999 54.6001C27.1999 55.4001 27.9999 56.2001 28.9999 56.2001H34.9999C35.7999 56.2001 36.7999 55.4001 36.9999 54.4001L38.1999 47.2001H39.3999C40.5999 47.2001 41.3999 46.4001 41.3999 45.2001V40.8001C41.3999 36.6001 38.5999 33.0001 34.5999 31.8001ZM31.9999 23.6001C33.1999 23.6001 34.3999 24.6001 34.3999 26.0001C34.3999 27.4001 33.3999 28.4001 31.9999 28.4001C30.5999 28.4001 29.5999 27.4001 29.5999 26.0001C29.5999 24.6001 30.5999 23.6001 31.9999 23.6001ZM37.3999 43.4001H36.3999C35.3999 43.4001 34.5999 44.0001 34.3999 45.0001L33.1999 52.2001H30.5999L29.5999 44.8001C29.3999 44.0001 28.5999 43.2001 27.5999 43.2001H26.5999V40.8001C26.5999 37.8001 28.9999 35.6001 31.9999 35.6001C34.9999 35.6001 37.3999 38.0001 37.3999 41.0001V43.4001Z" fill="#2D373D"/>
</svg>
