<svg width="16" height="17" viewBox="0 0 16 17" fill="none" xmlns="http://www.w3.org/2000/svg">
<path fill-rule="evenodd" clip-rule="evenodd" d="M1.47945 3.10746C1.28419 2.9122 1.28419 2.59561 1.47945 2.40035C1.67472 2.20509 1.9913 2.20509 2.18656 2.40035L6.05694 6.27073L8.23338 2.50381C8.34658 2.30789 8.57725 2.21241 8.7958 2.27101C9.01435 2.32961 9.16631 2.52768 9.16631 2.75395V7.08728H11.7511C12.2757 7.08728 12.5948 7.66508 12.3154 8.10904L10.6081 10.8219L14.5199 14.7337C14.7152 14.9289 14.7152 15.2455 14.5199 15.4408C14.3246 15.6361 14.008 15.6361 13.8128 15.4408L1.47945 3.10746ZM9.88292 10.0967L11.1475 8.08728H8.83298C8.46479 8.08728 8.16631 7.78881 8.16631 7.42062V4.61878L6.78893 7.00272L9.88292 10.0967Z" fill="#2D373D"/>
<path d="M5.76591 8.77332C5.90406 8.53422 5.82222 8.2284 5.58312 8.09025C5.34402 7.9521 5.0382 8.03394 4.90005 8.27304L4.04452 9.75377C3.78773 10.1982 4.10847 10.754 4.62176 10.754H6.83298V15.0873C6.83298 15.3101 6.98035 15.5059 7.19439 15.5677C7.40843 15.6294 7.6375 15.5421 7.75615 15.3536L9.53925 12.5203C9.68634 12.2866 9.61611 11.9779 9.3824 11.8308C9.14868 11.6837 8.83999 11.7539 8.69291 11.9876L7.83298 13.3541V10.4206C7.83298 10.0524 7.5345 9.75395 7.16631 9.75395H5.19933L5.76591 8.77332Z" fill="#2D373D"/>
</svg>
