<svg width="16" height="16" viewBox="0 0 16 16" fill="none" xmlns="http://www.w3.org/2000/svg">
<path d="M14.6998 8.15008C14.6998 8.00008 14.5998 7.85008 14.4498 7.80008C12.4998 6.80008 10.1498 6.80008 8.14982 7.85008C7.34982 8.30008 6.84982 8.95008 6.69982 9.70008C6.59982 10.4001 6.79983 11.1001 7.24983 11.8501C6.94982 12.3001 6.59982 12.9001 6.34982 13.6001C6.19982 13.8501 6.34982 14.1501 6.59982 14.2501C6.64982 14.3001 6.74983 14.3001 6.79983 14.3001C6.99983 14.3001 7.19983 14.2001 7.29983 14.0001C7.49983 13.5501 7.69983 13.1501 7.89983 12.8001C8.24983 13.3501 9.04982 14.3001 10.2498 14.3001C10.2998 14.3001 10.3498 14.3001 10.4498 14.3001C12.7498 14.0501 13.3998 12.0001 13.8998 10.3001C14.0998 9.60008 14.2998 8.90008 14.5998 8.55008C14.6998 8.45008 14.7498 8.30008 14.6998 8.15008ZM12.8998 10.0501C12.4498 11.5501 11.9498 13.1501 10.2998 13.3001C9.24983 13.4001 8.49983 11.9501 8.49983 11.9501C9.34982 10.9501 10.1498 10.8501 10.1998 10.8501C10.4498 10.8001 10.6498 10.5501 10.6498 10.3001C10.5998 10.0501 10.3498 9.85008 10.0998 9.85008C10.0498 9.85008 8.99983 9.95008 7.89983 11.1001C7.64983 10.6501 7.54982 10.2501 7.59982 9.90008C7.69982 9.45008 7.99983 9.05008 8.54983 8.75008C10.0498 8.00008 11.8498 7.90008 13.4498 8.50008C13.2498 8.95008 13.0498 9.50008 12.8998 10.0501Z" fill="#2D373D"/>
<path d="M3.49982 7.70005C3.54982 7.75005 3.64982 7.75005 3.69982 7.75005C4.09982 7.75005 4.39982 7.40005 4.39982 7.00005C4.39982 6.90005 4.39982 6.85005 4.34982 6.80005C4.29982 6.60005 4.09982 6.40005 3.89982 6.35005C3.84982 6.30005 3.74982 6.30005 3.69982 6.30005C3.29982 6.30005 2.99982 6.65005 2.99982 7.00005C2.99982 7.40005 3.19982 7.65005 3.49982 7.70005Z" fill="#2D373D"/>
<path d="M5.5998 8.40008H2.6498C2.4498 8.40008 2.2998 8.25008 2.2998 8.05008V6.80008C2.2998 6.30008 2.6498 5.85008 3.0998 5.70008C3.1498 5.70008 3.2498 5.65008 3.2998 5.65008C3.3498 5.65008 3.4498 5.65008 3.4998 5.65008H11.8998C11.9998 5.65008 12.0998 5.65008 12.1498 5.70008C12.1998 5.75008 12.2498 5.75008 12.3498 5.75008C12.5998 5.85008 12.8498 6.05008 12.9498 6.25008C13.0998 6.50008 13.3998 6.60008 13.6498 6.45008C13.8998 6.30008 13.9998 6.00008 13.8498 5.75008C13.5998 5.30008 13.1998 5.00008 12.7498 4.80008L11.8498 2.85008C11.5998 2.15008 10.9498 1.70008 10.1998 1.70008H5.1998C4.4998 1.65008 3.7998 2.10008 3.5998 2.75008L2.6998 4.75008C1.8998 5.10008 1.2998 5.85008 1.2998 6.80008V8.10008C1.2998 8.50008 1.4498 8.80008 1.6998 9.05008V9.75008C1.6998 10.5001 2.2998 11.1001 3.0498 11.1001C3.7998 11.1001 4.3998 10.5001 4.3998 9.75008V9.45008H5.5998C5.89981 9.45008 6.0998 9.20008 6.0998 8.90008C6.0998 8.60008 5.89981 8.40008 5.5998 8.40008ZM4.4998 3.15008C4.5998 2.85008 4.8998 2.65008 5.2498 2.65008H10.2498C10.5498 2.65008 10.8498 2.85008 10.9498 3.20008L11.5998 4.60008H3.8498L4.4998 3.15008ZM3.3998 9.75008C3.3998 9.95008 3.2498 10.1001 3.0498 10.1001C2.8498 10.1001 2.6998 9.95008 2.6998 9.75008V9.45008H3.3998V9.75008Z" fill="#2D373D"/>
</svg>
