<svg width="16" height="16" viewBox="0 0 16 16" fill="none" xmlns="http://www.w3.org/2000/svg">
<path d="M14.6998 8.15005C14.6998 8.10005 14.6998 8.05005 14.6998 8.00005C14.6998 7.90005 14.6998 7.80005 14.6998 7.70005C14.6998 7.60005 14.6998 7.55005 14.6998 7.45005C14.6998 7.30005 14.6498 7.15005 14.6498 7.05005V7.00005C14.1498 3.80005 11.3498 1.30005 7.99985 1.30005C4.84985 1.30005 2.19985 3.50005 1.49985 6.45005C1.44985 6.50005 1.44985 6.55005 1.39985 6.65005C0.899848 9.10005 1.79985 11.65 3.79985 13.2C3.84985 13.25 3.89985 13.3 3.94985 13.3C5.04985 14.15 6.44985 14.65 7.99985 14.65C10.4998 14.65 12.6498 13.25 13.7998 11.25C13.8498 11.2 13.8498 11.2 13.8998 11.15C14.4498 10.2 14.6998 9.20005 14.6998 8.15005ZM13.5498 9.35005C13.5498 9.45005 13.4998 9.55005 13.4998 9.65005C13.4498 9.85005 13.3498 10.1 13.2498 10.3H12.4998C12.3498 10.3 12.2498 10.2 12.1998 10.05L11.7498 7.45005C11.6998 7.25005 11.4998 7.05005 11.2498 7.05005H10.3998C10.3498 7.05005 10.2998 7.05005 10.2998 7.05005C10.1998 7.05005 10.1498 6.95005 10.0998 6.90005C9.99985 6.80005 9.99985 6.75005 9.99985 6.65005L10.3998 5.00005C10.3998 4.85005 10.5498 4.75005 10.6998 4.75005V4.70005H12.6498C13.2998 5.65005 13.6998 6.75005 13.6998 8.00005C13.6998 8.40005 13.6498 8.75005 13.5998 9.10005C13.5998 9.20005 13.5498 9.30005 13.5498 9.35005ZM4.19985 9.95005L3.79985 11.85L3.74985 11.8C3.64985 11.7 3.54985 11.55 3.44985 11.4C3.39985 11.35 3.39985 11.35 3.34985 11.3C3.24985 11.15 3.14985 11.05 3.09985 10.9C3.09985 10.85 3.04985 10.85 3.04985 10.8C2.94985 10.65 2.84985 10.45 2.79985 10.3C2.39985 9.40005 2.24985 8.35005 2.34985 7.30005C2.34985 7.25005 2.34985 7.25005 2.34985 7.20005H4.94985C5.09985 7.20005 5.19985 7.30005 5.24985 7.45005L5.64985 9.10005C5.64985 9.15005 5.64985 9.15005 5.64985 9.20005C5.64985 9.30005 5.59985 9.40005 5.54985 9.45005C5.44985 9.50005 5.39985 9.55005 5.29985 9.55005H4.69985C4.44985 9.55005 4.24985 9.70005 4.19985 9.95005ZM7.99985 13.7C6.74985 13.7 5.64985 13.3 4.69985 12.65L5.09985 10.55H5.29985C5.64985 10.55 5.94985 10.4 6.19985 10.15C6.44985 9.90005 6.59985 9.55005 6.59985 9.20005C6.59985 9.10005 6.59985 9.00005 6.54985 8.90005L6.14985 7.25005C5.99985 6.65005 5.44985 6.25005 4.84985 6.25005H2.59985C3.34985 3.95005 5.44985 2.30005 7.99985 2.30005C9.44985 2.30005 10.7998 2.85005 11.8498 3.80005H10.6998C10.0998 3.80005 9.54985 4.20005 9.39985 4.80005L9.04985 6.45005C8.94985 6.80005 8.99985 7.15005 9.19985 7.45005C9.34985 7.75005 9.64985 7.95005 9.99985 8.05005C10.0998 8.10005 10.1998 8.10005 10.2998 8.10005H10.7498L11.0998 10.3C11.1998 10.95 11.7498 11.4 12.3998 11.4H12.5498C11.5498 12.8 9.89985 13.7 7.99985 13.7Z" fill="#2D373D"/>
</svg>
