<svg width="16" height="17" viewBox="0 0 16 17" fill="none" xmlns="http://www.w3.org/2000/svg">
<path fill-rule="evenodd" clip-rule="evenodd" d="M3.23575 3.92746C3.10864 3.92746 3.00559 4.03051 3.00559 4.15763V13.6861C3.00559 13.8132 3.10864 13.9163 3.23575 13.9163H12.7642C12.8914 13.9163 12.9944 13.8132 12.9944 13.6861V4.15763C12.9944 4.03051 12.8914 3.92746 12.7642 3.92746H3.23575ZM2 4.15763C2 3.47514 2.55327 2.92188 3.23575 2.92188H12.7642C13.4467 2.92188 14 3.47514 14 4.15763V13.6861C14 14.3686 13.4467 14.9219 12.7642 14.9219H3.23575C2.55327 14.9219 2 14.3686 2 13.6861V4.15763Z" fill="#2D373D"/>
<path fill-rule="evenodd" clip-rule="evenodd" d="M6.90056 6.85931C6.77345 6.85931 6.6704 6.96236 6.6704 7.08948V10.7543C6.6704 10.8814 6.77345 10.9845 6.90056 10.9845H9.09945C9.22656 10.9845 9.32962 10.8814 9.32962 10.7543V7.08948C9.32962 6.96236 9.22656 6.85931 9.09945 6.85931H6.90056ZM5.66481 7.08948C5.66481 6.40699 6.21808 5.85373 6.90056 5.85373H9.09945C9.78194 5.85373 10.3352 6.40699 10.3352 7.08948V10.7543C10.3352 11.4368 9.78194 11.99 9.09945 11.99H6.90056C6.21808 11.99 5.66481 11.4368 5.66481 10.7543V7.08948Z" fill="#2D373D"/>
<path fill-rule="evenodd" clip-rule="evenodd" d="M7.13064 7.82245C7.13064 7.54476 7.35574 7.31965 7.63343 7.31965H8.36594C8.64363 7.31965 8.86874 7.54476 8.86874 7.82245C8.86874 8.10013 8.64363 8.32524 8.36594 8.32524H7.63343C7.35574 8.32524 7.13064 8.10013 7.13064 7.82245Z" fill="#2D373D"/>
</svg>
