<svg width="16" height="17" viewBox="0 0 16 17" fill="none" xmlns="http://www.w3.org/2000/svg">
<path d="M13.1498 6.31211C12.7998 5.91211 12.3498 5.61211 11.8498 5.41211C11.7998 4.46211 11.3998 3.56211 10.6998 2.91211C9.14978 1.41211 6.74978 1.41211 5.19978 2.91211C4.54978 3.56211 4.14978 4.46211 4.14978 5.41211C3.64978 5.61211 3.24978 5.91211 2.84978 6.31211C1.44978 7.86211 1.54978 10.2121 3.04978 11.6121L7.99978 15.1621L12.8998 11.6621L12.9998 11.6121C14.4498 10.2121 14.5498 7.86211 13.1498 6.31211ZM6.14978 3.71211C6.64978 3.31211 7.29978 3.01211 7.99978 3.01211C8.69978 3.01211 9.34978 3.31211 9.84978 3.76211C10.1998 4.11211 10.4498 4.56211 10.5498 5.06211C9.84978 5.01211 9.14978 5.16211 8.49978 5.46211C8.19978 5.61211 7.79978 5.61211 7.49978 5.46211C6.84978 5.11211 6.14978 5.01211 5.44978 5.01211C5.54978 4.51211 5.79978 4.06211 6.14978 3.71211ZM10.4998 6.36211C10.3498 6.76211 10.1498 7.11211 9.84978 7.41211C8.84978 8.41211 7.19978 8.41211 6.19978 7.41211C5.89978 7.11211 5.69978 6.76211 5.54978 6.36211C6.04978 6.31211 6.49978 6.41211 6.94978 6.66211C7.29978 6.81211 7.64978 6.91211 8.04978 6.91211C8.44978 6.91211 8.79978 6.81211 9.14978 6.66211C9.54978 6.41211 9.99978 6.31211 10.4998 6.36211ZM12.4998 10.2621C12.3998 10.4121 12.2498 10.5621 12.0998 10.7121L7.99978 13.6121L3.89978 10.7121C2.89978 9.76211 2.84978 8.16211 3.79978 7.16211C3.94978 7.01211 4.09978 6.86211 4.29978 6.76211C4.49978 7.36211 4.79978 7.86211 5.24978 8.31211C6.79978 9.81211 9.19978 9.81211 10.7498 8.31211C11.1998 7.86211 11.4998 7.36211 11.6998 6.76211C12.8998 7.51211 13.2498 9.06211 12.4998 10.2621Z" fill="#2D373D"/>
</svg>
