<svg width="24" height="25" viewBox="0 0 24 25" fill="none" xmlns="http://www.w3.org/2000/svg">
<path d="M20.325 16.5109L17.925 14.1109C17.1 13.2859 15.75 13.2859 14.925 14.1109C14.7 14.3359 14.325 14.3359 14.1 14.1109L10.275 10.2859C10.05 9.98594 10.05 9.61094 10.275 9.38594C11.1 8.56094 11.1 7.21094 10.275 6.38594L7.94997 3.98594C7.12497 3.16094 5.77497 3.16094 4.94997 3.98594L4.34997 4.58594C2.69997 6.16094 2.39997 8.63594 3.67497 10.5859C6.37497 14.6359 9.82497 18.0109 13.8 20.7109C14.625 21.2359 15.525 21.4609 16.425 21.4609C17.625 21.4609 18.9 21.0109 19.725 20.1109L20.325 19.5109C21.15 18.6859 21.15 17.3359 20.325 16.5109ZM19.35 18.3859L18.75 18.9859C17.7 20.1109 15.975 20.2609 14.625 19.4359C10.8 16.8859 7.49997 13.5859 4.94997 9.76094C4.12497 8.48594 4.27497 6.76094 5.39997 5.63594L5.92497 5.03594C6.22497 4.81094 6.59997 4.81094 6.82497 5.03594L9.22497 7.51094C9.44997 7.73594 9.44997 8.11094 9.22497 8.33594C8.39997 9.16094 8.39997 10.5109 9.22497 11.3359L13.05 15.0859C13.875 15.9109 15.225 15.9109 16.05 15.0859C16.35 14.8609 16.725 14.8609 16.95 15.0859L19.35 17.4859C19.575 17.7859 19.575 18.1609 19.35 18.3859Z" fill="#2D373D"/>
</svg>
