<svg width="24" height="25" viewBox="0 0 24 25" fill="none" xmlns="http://www.w3.org/2000/svg">
<path fill-rule="evenodd" clip-rule="evenodd" d="M11.3557 3.0467C11.7703 2.88547 12.2302 2.88547 12.6447 3.0467L21.5174 6.49746C21.806 6.6097 21.996 6.88758 21.996 7.19723V12.3338C21.996 12.7484 21.6599 13.0846 21.2452 13.0846C20.8306 13.0846 20.4944 12.7484 20.4944 12.3338V8.29485L12.751 11.3064V21.0659C12.751 21.3137 12.6287 21.5456 12.4241 21.6856C12.2195 21.8255 11.9591 21.8555 11.7281 21.7656L2.48307 18.1701C2.19448 18.0578 2.00439 17.7799 2.00439 17.4703V7.19723C2.00439 6.88758 2.19448 6.6097 2.48307 6.49746L11.3557 3.0467ZM12.0002 9.98719L14.5513 8.99502L7.37772 6.20505L4.82662 7.19723L12.0002 9.98719ZM3.50605 8.29485V16.9567L11.2494 19.9683V11.3064L3.50605 8.29485ZM9.44912 5.39944L16.6227 8.1894L19.1738 7.19723L12.1004 4.44623C12.036 4.42117 11.9645 4.42117 11.9 4.44623L9.44912 5.39944Z" fill="#2D373D"/>
<path fill-rule="evenodd" clip-rule="evenodd" d="M18.1252 21.4216C19.4369 21.4216 20.5002 20.3583 20.5002 19.0467C20.5002 18.3588 20.0851 17.0978 19.4326 15.8983C19.2996 15.6539 19.1655 15.4284 19.0353 15.2268C18.9851 15.3949 18.9371 15.5646 18.8886 15.7364L18.8855 15.747C18.83 15.9435 18.7708 16.1527 18.713 16.3372C18.6593 16.5083 18.5817 16.7413 18.4783 16.9489C18.4304 17.0452 18.3312 17.2316 18.1629 17.4116C18.0139 17.571 17.5665 17.9798 16.8629 17.9151C16.547 17.886 16.3221 17.7651 16.2322 17.7128C16.1241 17.65 16.0442 17.5861 15.9996 17.5483C15.987 17.5377 15.9749 17.5272 15.9632 17.5167C15.8222 18.1505 15.7502 18.7656 15.7502 19.0467C15.7502 20.3583 16.8135 21.4216 18.1252 21.4216ZM15.8911 15.3059C15.7095 15.2027 15.5264 15.1649 15.359 15.2509C14.7177 15.5803 14.2502 18.094 14.2502 19.0467C14.2502 21.1868 15.9851 22.9216 18.1252 22.9216C20.2653 22.9216 22.0002 21.1868 22.0002 19.0467C22.0002 16.9066 19.7502 12.9214 18.7502 12.9214C18.2245 12.9214 17.8653 13.8977 17.5916 14.8191C17.5716 14.8865 17.552 14.9536 17.5329 15.02C17.5029 15.1241 17.4739 15.2265 17.4459 15.3256C17.2713 15.943 17.1326 16.4336 17.0002 16.4214C16.9663 16.4183 16.88 16.3112 16.7594 16.1616C16.5628 15.9177 16.2751 15.5609 15.9755 15.3585C15.9475 15.3395 15.9193 15.3219 15.8911 15.3059Z" fill="#2D373D"/>
</svg>
