<svg width="32" height="32" viewBox="0 0 32 32" fill="none" xmlns="http://www.w3.org/2000/svg">
<path d="M26.4998 7.81977C25.1111 6.06537 23.3023 4.68968 21.2407 3.82005C19.1791 2.95042 16.9314 2.61496 14.7057 2.84473C12.4801 3.07449 10.3483 3.86205 8.50787 5.13451C6.66741 6.40696 5.17772 8.12317 4.17671 10.1243C3.17569 12.1254 2.69571 14.3467 2.7812 16.5825C2.86668 18.8184 3.51486 20.9966 4.66574 22.9154C5.81662 24.8342 7.433 26.4317 9.36524 27.5599C11.2975 28.6881 13.4831 29.3106 15.7198 29.3698H16.0698C18.9535 29.3683 21.7595 28.4353 24.0698 26.7098C24.282 26.5506 24.4223 26.3137 24.4598 26.0512C24.4973 25.7886 24.429 25.5219 24.2698 25.3098C24.1107 25.0976 23.8738 24.9573 23.6113 24.9198C23.3487 24.8823 23.082 24.9506 22.8698 25.1098C20.832 26.6381 18.3376 27.4331 15.7912 27.3658C13.2449 27.2984 10.7959 26.3727 8.84174 24.7388C6.88753 23.105 5.5427 20.8587 5.02539 18.3645C4.50809 15.8704 4.84867 13.2746 5.99189 10.9983C7.1351 8.72195 9.01388 6.89867 11.3234 5.8242C13.633 4.74973 16.2378 4.48711 18.7154 5.07895C21.1929 5.67078 23.3978 7.08235 24.9724 9.08465C26.547 11.087 27.3989 13.5625 27.3898 16.1098V18.5698C27.3904 18.8691 27.3314 19.1656 27.2164 19.442C27.1014 19.7184 26.9326 19.9692 26.7198 20.1798C26.2863 20.5942 25.7096 20.8255 25.1098 20.8255C24.5101 20.8255 23.9334 20.5942 23.4998 20.1798C23.2871 19.9692 23.1183 19.7184 23.0033 19.442C22.8883 19.1656 22.8293 18.8691 22.8298 18.5698V16.0698C22.8285 14.962 22.5541 13.8716 22.031 12.8951C21.5078 11.9186 20.752 11.0861 19.8305 10.4713C18.9089 9.85644 17.8501 9.47824 16.7476 9.37014C15.645 9.26204 14.5329 9.42737 13.5095 9.85149C12.4861 10.2756 11.583 10.9455 10.8801 11.8017C10.1773 12.658 9.6963 13.6744 9.47981 14.7608C9.26332 15.8473 9.31796 16.9703 9.6389 18.0306C9.95984 19.0909 10.5372 20.0558 11.3198 20.8398C12.2638 21.7791 13.4639 22.4191 14.7698 22.6798C15.2043 22.7676 15.6466 22.8111 16.0898 22.8098C16.9749 22.8098 17.8514 22.6365 18.6698 22.2998C19.6779 21.8776 20.5671 21.215 21.2598 20.3698C21.462 20.8086 21.7358 21.2107 22.0698 21.5598C22.6666 22.158 23.4272 22.5662 24.2556 22.7329C25.0839 22.8996 25.9432 22.8173 26.7249 22.4965C27.5066 22.1757 28.1759 21.6307 28.6484 20.9301C29.1208 20.2295 29.3754 19.4048 29.3798 18.5598V16.0698C29.3733 13.0744 28.3588 10.1684 26.4998 7.81977ZM17.8798 20.4498C17.0131 20.8077 16.0598 20.9016 15.1398 20.7198C14.2215 20.5333 13.3786 20.0798 12.7168 19.4163C12.0551 18.7528 11.6039 17.9086 11.4198 16.9898C11.2235 15.9931 11.3526 14.9597 11.7881 14.0419C12.2236 13.1241 12.9424 12.3705 13.8386 11.8922C14.7347 11.4138 15.7609 11.2361 16.7658 11.3851C17.7706 11.5341 18.701 12.002 19.4198 12.7198C19.8632 13.1572 20.2146 13.679 20.4534 14.2543C20.6921 14.8296 20.8133 15.4469 20.8098 16.0698C20.8094 17.0063 20.531 17.9216 20.0098 18.6998C19.4921 19.4841 18.7498 20.0941 17.8798 20.4498Z" fill="#2D373D"/>
</svg>
