<svg width="24" height="25" viewBox="0 0 24 25" fill="none" xmlns="http://www.w3.org/2000/svg">
<path d="M13.5748 16.661H11.4748C11.1748 15.461 9.9748 14.486 8.62481 14.486H4.4248V14.036C4.4248 13.586 4.1248 13.286 3.6748 13.286C3.2248 13.286 2.9248 13.586 2.9248 14.036V20.711C2.9248 21.161 3.2248 21.461 3.6748 21.461C4.1248 21.461 4.4248 21.161 4.4248 20.711V20.411H15.8248C16.2748 20.411 16.5748 20.036 16.5748 19.661C16.5748 18.836 16.1998 18.086 15.6748 17.561C15.0748 16.961 14.3998 16.661 13.5748 16.661ZM4.4248 18.911V15.986H8.62481C9.14981 15.986 9.6748 16.286 9.8998 16.661H8.09981C7.64981 16.661 7.34981 16.961 7.34981 17.411C7.34981 17.861 7.64981 18.161 8.09981 18.161H13.6498C14.1748 18.161 14.6998 18.461 14.9248 18.911H4.4248Z" fill="#2D373D"/>
<path d="M16.95 3.46094C14.7 3.46094 12.9 5.26094 12.9 7.51094C12.9 9.76094 14.7 11.5609 16.95 11.5609C19.2 11.5609 21 9.68594 21 7.51094C21 5.26094 19.2 3.46094 16.95 3.46094ZM16.95 9.98594C15.525 9.98594 14.4 8.86094 14.4 7.43594C14.4 6.01094 15.525 4.88594 16.95 4.88594C18.375 4.88594 19.5 6.01094 19.5 7.43594C19.5 8.86094 18.375 9.98594 16.95 9.98594Z" fill="#2D373D"/>
<path d="M17.025 12.2359C16.575 12.2359 16.275 12.5359 16.275 12.9859C16.275 13.8109 15.6 14.4859 14.775 14.4859C13.95 14.4859 13.275 13.8109 13.275 12.9859C13.275 12.6109 13.425 12.3109 13.65 12.0109C13.95 11.7109 13.875 11.2609 13.575 10.9609C13.275 10.6609 12.825 10.7359 12.525 11.0359C12.075 11.5609 11.775 12.2359 11.775 12.9859C11.775 14.6359 13.125 15.9859 14.775 15.9859C16.35 15.9859 17.7 14.6359 17.775 12.9859C17.775 12.5359 17.475 12.2359 17.025 12.2359Z" fill="#2D373D"/>
</svg>
