<svg width="64" height="65" viewBox="0 0 64 65" fill="none" xmlns="http://www.w3.org/2000/svg">
<path d="M30.5996 39.8611C29.7996 40.6611 29.7996 41.8611 30.5996 42.6611C30.9996 43.0611 31.3996 43.2611 31.9996 43.2611C32.5996 43.2611 32.9996 43.0611 33.3996 42.6611L41.9996 34.0611C42.5996 33.6611 42.7996 33.2611 42.7996 32.4611C42.7996 31.6611 42.3996 31.2611 41.9996 30.8611L33.3996 22.2611C32.5996 21.4611 31.3996 21.4611 30.5996 22.2611C29.7996 23.0611 29.7996 24.2611 30.5996 25.0611L35.9996 30.4611H4.59961C3.39961 30.4611 2.59961 31.2611 2.59961 32.4611C2.59961 33.6611 3.39961 34.4611 4.59961 34.4611H35.9996L30.5996 39.8611Z" fill="#2D373D"/>
<path d="M55.999 20.861C49.399 7.46099 33.399 2.06099 20.199 8.46099C15.199 10.861 10.999 14.861 8.39898 19.861C7.99898 20.861 8.19898 22.061 9.19898 22.461C10.199 23.061 11.399 22.661 11.999 21.661C14.199 17.461 17.799 14.061 21.999 11.861C27.399 9.26099 33.599 8.86099 39.399 10.861C45.199 12.861 49.799 17.061 52.399 22.461C57.999 33.661 53.199 47.461 41.999 52.861C30.799 58.461 16.999 53.661 11.599 42.461C11.199 41.461 9.99898 41.061 8.99898 41.461C7.99898 41.861 7.59898 43.061 7.99898 44.061C12.599 53.461 21.999 59.061 31.999 59.061C35.999 59.061 39.999 58.261 43.599 56.661C56.999 50.261 62.399 34.061 55.999 20.861Z" fill="#2D373D"/>
</svg>
