<svg width="16" height="17" viewBox="0 0 16 17" fill="none" xmlns="http://www.w3.org/2000/svg">
<path fill-rule="evenodd" clip-rule="evenodd" d="M8.00017 3.25781C6.87941 3.25781 5.78381 3.59016 4.85193 4.21282C3.92006 4.83548 3.19375 5.72049 2.76485 6.75594C2.33595 7.79139 2.22373 8.93076 2.44238 10.03C2.66103 11.1292 3.20073 12.1389 3.99323 12.9314C4.78573 13.7239 5.79543 14.2636 6.89465 14.4823C7.99388 14.7009 9.13326 14.5887 10.1687 14.1598C11.2042 13.7309 12.0892 13.0046 12.7118 12.0727C13.3345 11.1408 13.6668 10.0452 13.6668 8.92448C13.6668 8.18032 13.5203 7.44345 13.2355 6.75594C12.9507 6.06843 12.5333 5.44374 12.0071 4.91754C11.4809 4.39134 10.8562 3.97394 10.1687 3.68916C9.48119 3.40439 8.74432 3.25781 8.00017 3.25781ZM4.29636 3.38135C5.39269 2.64881 6.68162 2.25781 8.00017 2.25781C8.87565 2.25781 9.74255 2.43025 10.5514 2.76528C11.3602 3.10031 12.0952 3.59138 12.7142 4.21043C13.3333 4.82949 13.8243 5.56442 14.1594 6.37326C14.4944 7.18209 14.6668 8.049 14.6668 8.92448C14.6668 10.243 14.2758 11.532 13.5433 12.6283C12.8108 13.7246 11.7696 14.5791 10.5514 15.0837C9.33322 15.5883 7.99277 15.7203 6.69956 15.463C5.40636 15.2058 4.21847 14.5709 3.28612 13.6385C2.35377 12.7062 1.71883 11.5183 1.4616 10.2251C1.20436 8.93187 1.33638 7.59143 1.84097 6.37326C2.34555 5.15508 3.20004 4.11389 4.29636 3.38135Z" fill="#2D373D"/>
<path fill-rule="evenodd" clip-rule="evenodd" d="M11.3481 6.39275C11.5468 6.5845 11.5525 6.90103 11.3607 7.09975L7.16936 11.4436C6.9812 11.6386 6.67195 11.6482 6.47203 11.4653L4.66341 9.81049C4.45968 9.62409 4.44563 9.30782 4.63204 9.10408C4.81844 8.90035 5.13471 8.8863 5.33845 9.07271L6.78783 10.3988L10.6411 6.40538C10.8329 6.20666 11.1494 6.20101 11.3481 6.39275Z" fill="#2D373D"/>
</svg>
