<svg width="64" height="64" viewBox="0 0 64 64" fill="none" xmlns="http://www.w3.org/2000/svg">
<path fill-rule="evenodd" clip-rule="evenodd" d="M53.3335 50C52.9654 50 52.6669 50.2985 52.6669 50.6667C52.6669 51.0349 52.9654 51.3333 53.3335 51.3333C53.7017 51.3333 54.0002 51.0349 54.0002 50.6667C54.0002 50.2985 53.7017 50 53.3335 50ZM48.6669 50.6667C48.6669 48.0893 50.7562 46 53.3335 46C55.9109 46 58.0002 48.0893 58.0002 50.6667C58.0002 53.244 55.9109 55.3333 53.3335 55.3333C50.7562 55.3333 48.6669 53.244 48.6669 50.6667Z" fill="#2D373D"/>
<path fill-rule="evenodd" clip-rule="evenodd" d="M10.6669 50C10.2987 50 10.0002 50.2985 10.0002 50.6667C10.0002 51.0349 10.2987 51.3333 10.6669 51.3333C11.0351 51.3333 11.3335 51.0349 11.3335 50.6667C11.3335 50.2985 11.0351 50 10.6669 50ZM6.00021 50.6667C6.00021 48.0893 8.08955 46 10.6669 46C13.2442 46 15.3335 48.0893 15.3335 50.6667C15.3335 53.244 13.2442 55.3333 10.6669 55.3333C8.08955 55.3333 6.00021 53.244 6.00021 50.6667Z" fill="#2D373D"/>
<path fill-rule="evenodd" clip-rule="evenodd" d="M48.5736 11.9826C49.5992 11.5724 50.098 10.4085 49.6878 9.3829C49.2775 8.35734 48.1136 7.8585 47.088 8.26873L39.892 11.1471C38.9202 11.5359 38.4125 12.6082 38.7277 13.6063L46.946 39.6311C44.4306 41.133 42.5373 43.5991 41.7467 46.4464H21.973C21.6967 45.1079 21.1678 43.7989 20.3738 42.5905C17.2231 37.7958 11.0019 36.2356 6.01005 38.7975C5.02735 39.3019 4.63958 40.5074 5.14394 41.4901C5.6483 42.4728 6.85379 42.8606 7.83649 42.3562C11.0299 40.7172 15.0145 41.7186 17.0309 44.7871C17.7451 45.874 18.1217 47.0786 18.1904 48.2845C18.2253 48.8972 18.5325 49.4297 18.9878 49.7713C19.3542 50.1853 19.8896 50.4464 20.486 50.4464H42.6329C42.7631 50.4464 42.8904 50.4339 43.0137 50.4101C43.068 50.4206 43.1232 50.4288 43.1791 50.4349C44.2774 50.553 45.2634 49.7585 45.3816 48.6603C45.7713 45.0377 48.8961 42.0845 52.5151 42.0845C53.8156 42.0845 55.0291 42.4313 56.0746 43.0361C57.0307 43.5892 58.2542 43.2624 58.8073 42.3063C59.3604 41.3502 59.0336 40.1267 58.0775 39.5737C56.4396 38.6262 54.5375 38.0845 52.5151 38.0845C51.8969 38.0845 51.2909 38.1372 50.7008 38.238L43.1009 14.1717L48.5736 11.9826Z" fill="#2D373D"/>
</svg>
