<svg width="32" height="33" viewBox="0 0 32 33" fill="none" xmlns="http://www.w3.org/2000/svg">
<path fill-rule="evenodd" clip-rule="evenodd" d="M15.9995 3.58984C21.4224 3.59012 27.9995 4.92318 27.9995 7.58972V16.923C27.9995 24.2565 21.3328 30.2567 15.9995 30.2565C10.6662 30.2564 3.99951 24.2564 3.99951 16.923V7.58957C3.99951 4.9229 10.5766 3.58956 15.9995 3.58984ZM15.9993 16.0438C15.9725 16.0438 15.4632 15.0441 14.8645 13.8213L13.7743 11.5898H10.3696V20.6941H13.7653L13.7832 18.4895L13.81 16.2759L14.9091 18.4984L15.9993 20.7209L17.0985 18.4984L18.1887 16.2759L18.2155 18.4805L18.2334 20.6941H21.6291V11.5898H19.9133L18.1887 11.5988L17.1164 13.8213C16.5266 15.0441 16.0262 16.0438 15.9993 16.0438Z" fill="#2D373D"/>
</svg>
