<svg width="32" height="32" viewBox="0 0 32 32" fill="none" xmlns="http://www.w3.org/2000/svg">
<path d="M28.6999 14.1001C25.7999 10.9001 20.8999 7.50005 15.9999 7.60005C11.0999 7.50005 6.1999 10.9001 3.3999 14.2001C2.3999 15.3001 2.3999 16.9001 3.3999 18.0001C6.2999 21.1001 11.0999 24.5001 15.8999 24.5001C15.9999 24.5001 16.0999 24.5001 16.1999 24.5001C20.9999 24.5001 25.7999 21.1001 28.6999 17.9001C29.6999 16.8001 29.6999 15.2001 28.6999 14.1001ZM27.1999 16.6001C24.5999 19.5001 20.2999 22.5001 16.0999 22.5001H15.9999C11.6999 22.6001 7.3999 19.5001 4.7999 16.6001C4.4999 16.3001 4.4999 15.8001 4.7999 15.5001C7.3999 12.6001 11.7999 9.50005 15.9999 9.60005C20.2999 9.50005 24.5999 12.6001 27.1999 15.5001C27.4999 15.8001 27.4999 16.3001 27.1999 16.6001Z" fill="#2D373D"/>
<path d="M15.9999 11C13.1999 11 10.8999 13.3 10.8999 16.1C10.8999 17.4 11.3999 18.7 12.3999 19.7C13.2999 20.7 14.5999 21.2 15.9999 21.2C17.3999 21.2 18.5999 20.6 19.5999 19.7C20.5999 18.8 21.0999 17.5 21.0999 16.1C21.0999 14.8 20.5999 13.5 19.5999 12.5C18.6999 11.5 17.3999 11 15.9999 11ZM18.1999 18.2C17.5999 18.8 16.7999 19.1 15.9999 19.1C15.1999 19.1 14.3999 18.8 13.7999 18.2C13.1999 17.6 12.8999 16.8 12.8999 16C12.8999 14.3 14.2999 12.9 15.9999 12.9C16.7999 12.9 17.5999 13.2 18.1999 13.8C18.7999 14.4 19.0999 15.2 19.0999 16C19.0999 16.8 18.7999 17.6 18.1999 18.2Z" fill="#2D373D"/>
</svg>
