<svg width="16" height="17" viewBox="0 0 16 17" fill="none" xmlns="http://www.w3.org/2000/svg">
<path d="M14.1667 14.9217C14.0401 14.9217 13.9134 14.875 13.8134 14.775L13.7334 14.6883C12.1867 13.0217 10.2934 12.775 8.26006 13.9683C3.90006 16.535 1.44673 12.9683 1.42006 12.935C1.26673 12.7083 1.32673 12.395 1.56006 12.2417C1.7934 12.0883 2.10006 12.1483 2.2534 12.3817C2.3334 12.495 4.22006 15.1883 7.74673 13.1083C10.2001 11.6617 12.5867 11.9817 14.4667 14.0083L14.5201 14.0683C14.7134 14.2617 14.7134 14.5817 14.5201 14.775C14.4201 14.875 14.2934 14.9217 14.1667 14.9217Z" fill="#2D373D"/>
<path d="M14.1667 10.3083C14.0401 10.3083 13.9134 10.2617 13.8134 10.1617L13.7334 10.075C12.1867 8.40834 10.2934 8.16167 8.26006 9.35501C3.90006 11.9217 1.44673 8.35501 1.42006 8.32167C1.26673 8.08834 1.32673 7.78167 1.56006 7.62834C1.7934 7.47501 2.10006 7.53501 2.2534 7.76834C2.3334 7.88167 4.22006 10.575 7.74673 8.49501C10.2001 7.04834 12.5867 7.36834 14.4667 9.39501L14.5201 9.45501C14.7134 9.64834 14.7134 9.96834 14.5201 10.1617C14.4201 10.2617 14.2934 10.3083 14.1667 10.3083Z" fill="#2D373D"/>
<path d="M14.1667 5.68373C14.0401 5.68373 13.9134 5.63706 13.8134 5.53706L13.7334 5.45039C12.1867 3.78373 10.2934 3.53706 8.26008 4.73706C3.90008 7.31039 1.44675 3.73706 1.42008 3.70373C1.26675 3.47039 1.32675 3.16373 1.56008 3.01039C1.79341 2.85706 2.10008 2.91706 2.25341 3.15039C2.33341 3.26373 4.22008 5.95706 7.74675 3.87706C10.2001 2.43039 12.5867 2.75039 14.4667 4.77706L14.5201 4.83706C14.7134 5.03039 14.7134 5.35039 14.5201 5.54373C14.4201 5.64373 14.2934 5.69039 14.1667 5.69039V5.68373Z" fill="#2D373D"/>
</svg>
