<svg width="16" height="17" viewBox="0 0 16 17" fill="none" xmlns="http://www.w3.org/2000/svg">
<path d="M14.0003 10.0601L12.9003 7.81011C13.1503 7.76011 13.3003 7.61011 13.3003 7.31011C13.3003 7.01011 13.1003 6.81011 12.8003 6.81011H9.60031V6.61011C9.60031 6.31011 9.40031 6.11011 9.10031 6.11011C8.80031 6.11011 8.60031 6.31011 8.60031 6.61011V6.81011H5.40031C5.10031 6.81011 4.90031 7.01011 4.90031 7.31011C4.90031 7.56011 5.05031 7.76011 5.35031 7.81011L4.20031 10.0101C4.10031 10.2101 4.10031 10.3601 4.25031 10.5101C4.35031 11.5101 5.15031 12.2601 6.15031 12.2601C7.25031 12.2601 8.10031 11.3601 8.15031 10.2601C8.15031 10.1601 8.10031 10.1101 8.10031 10.0101L7.00031 7.81011H8.65031V12.0601C8.30031 12.1601 8.00031 12.3601 7.75031 12.5601C7.35031 12.9601 7.15031 13.4101 7.15031 13.9601C7.15031 14.2601 7.35031 14.4601 7.65031 14.4601L10.6503 14.4101C10.8003 14.4101 10.9003 14.3601 11.0003 14.2601C11.1003 14.1601 11.1503 14.0601 11.1503 13.9101C11.1503 13.0101 10.5003 12.2601 9.65031 12.0101V7.81011H11.3503L10.2003 9.96011C10.1003 10.0601 10.0503 10.1601 10.0503 10.3101C10.1003 11.3601 10.9503 12.2601 12.0503 12.2601C12.5503 12.2601 13.0503 12.0601 13.4003 11.7101C13.7503 11.3601 13.9503 10.9601 14.0003 10.5101C14.0503 10.4101 14.1003 10.2101 14.0003 10.0601ZM6.15031 11.2601C5.80031 11.2601 5.45031 11.0601 5.30031 10.7601H7.00031C6.80031 11.0601 6.50031 11.2601 6.15031 11.2601ZM5.45031 9.76011L6.15031 8.41011L6.85031 9.76011H5.45031ZM9.90031 13.4601H8.25031C8.30031 13.4101 8.35031 13.3601 8.35031 13.2601C8.50031 13.1101 8.70031 13.0101 8.90031 12.9601C8.95031 12.9601 9.05031 13.0101 9.10031 13.0101C9.15031 13.0101 9.20031 13.0101 9.20031 12.9601C9.50031 13.0601 9.80031 13.2101 9.90031 13.4601ZM12.8003 9.81011H11.4003L12.1003 8.46011L12.8003 9.81011ZM12.7503 10.9101C12.5503 11.1101 12.3003 11.2101 12.0503 11.2101C11.7003 11.2101 11.3503 11.0601 11.2003 10.7601V10.7101H12.9003C12.8503 10.8101 12.8003 10.8601 12.7503 10.9101Z" fill="#2D373D"/>
<path d="M5.4002 12.7602H3.2002C3.0502 12.7602 2.9502 12.6602 2.9502 12.5102V3.66016C2.9502 3.51016 3.0502 3.41016 3.2002 3.41016H8.1502L10.0502 5.31016V5.86016C10.0502 6.16016 10.2502 6.36016 10.5502 6.36016C10.8502 6.36016 11.0502 6.16016 11.0502 5.86016V5.26016C11.0502 5.06016 10.9502 4.81016 10.8002 4.66016L8.8002 2.66016C8.6502 2.51016 8.4502 2.41016 8.2002 2.41016H3.2002C2.5002 2.41016 1.9502 2.96016 1.9502 3.66016V12.4602C1.9502 13.1602 2.5002 13.7102 3.2002 13.7102H5.4002C5.7002 13.7102 5.9002 13.5602 5.9002 13.2602C5.9002 12.9602 5.7002 12.7602 5.4002 12.7602Z" fill="#2D373D"/>
</svg>
