<svg width="24" height="25" viewBox="0 0 24 25" fill="none" xmlns="http://www.w3.org/2000/svg">
<path d="M20.625 9.53663C20.4 9.31163 20.1 9.08663 19.725 9.08663L15.375 8.63663L13.125 4.13663C12.975 3.83663 12.75 3.68663 12.525 3.53663C11.85 3.23663 11.1 3.46163 10.725 4.13663L8.475 8.63663L4.125 9.01163C3.825 9.01163 3.525 9.16163 3.3 9.38663C2.775 9.91163 2.775 10.7366 3.3 11.2616L6.9 14.8616L5.55 19.7366C5.475 20.1116 5.475 20.4116 5.625 20.7116C5.925 21.3866 6.75 21.6116 7.425 21.3116L11.925 19.0616L16.425 21.3116C16.575 21.3866 16.8 21.4616 17.025 21.4616C17.175 21.4616 17.325 21.4616 17.4 21.4616C17.775 21.3866 18.075 21.1616 18.225 20.8616C18.45 20.5616 18.45 20.1866 18.375 19.8116L17.025 14.9366L20.625 11.3366C20.85 11.1116 21 10.8116 21 10.5116C21.075 10.1366 20.925 9.83663 20.625 9.53663ZM15.675 14.1866C15.45 14.4116 15.375 14.7116 15.45 14.9366L16.8 19.8866L12.3 17.6366C12.225 17.5616 12.15 17.5616 12 17.5616C11.85 17.5616 11.775 17.5616 11.625 17.6366L7.125 19.8866L8.55 14.9366C8.625 14.6366 8.55 14.4116 8.325 14.1866L4.65 10.5116L9.075 10.1366C9.3 10.0616 9.525 9.91163 9.675 9.68663L12 5.11163L14.325 9.76163C14.475 9.98663 14.7 10.1366 14.925 10.1366L19.35 10.5116L15.675 14.1866Z" fill="#2D373D"/>
</svg>
