<svg width="64" height="65" viewBox="0 0 64 65" fill="none" xmlns="http://www.w3.org/2000/svg">
<path d="M42.9196 35.7831C42.3892 35.7831 41.8805 35.9938 41.5054 36.3689C41.1303 36.744 40.9196 37.2527 40.9196 37.7831C40.9954 39.7534 40.2859 41.6731 38.9472 43.1206C37.6084 44.5682 35.7498 45.4251 33.7796 45.5031C33.5083 45.5028 33.2398 45.5576 32.9904 45.6643C32.741 45.771 32.5159 45.9274 32.3288 46.1238C32.1418 46.3203 31.9966 46.5527 31.9022 46.807C31.8078 47.0613 31.7661 47.3322 31.7796 47.6031C31.8053 48.116 32.0273 48.5994 32.3996 48.9531C32.7719 49.3068 33.2661 49.5038 33.7796 49.5031C35.2899 49.4578 36.7758 49.1107 38.1497 48.4821C39.5237 47.8535 40.7579 46.9562 41.7796 45.8431C43.842 43.6141 44.9354 40.6577 44.8196 37.6231C44.7812 37.1377 44.567 36.683 44.2172 36.3442C43.8674 36.0055 43.406 35.806 42.9196 35.7831Z" fill="#2D373D"/>
<path d="M28.7196 6.48312C28.1553 6.41924 27.5848 6.52362 27.0796 6.78312C26.5702 7.04612 26.1545 7.46019 25.8896 7.9686C25.6246 8.47702 25.5234 9.05491 25.5996 9.62312C25.6592 10.199 25.9049 10.7396 26.2996 11.1631C37.1796 23.2831 32.2996 30.7431 29.3396 33.5831C28.384 32.7039 27.6448 31.6155 27.1796 30.4031C26.6626 29.0604 26.4907 27.6095 26.6796 26.1831C26.7395 25.7051 26.6632 25.2198 26.4596 24.7831C26.2698 24.3332 25.9581 23.9453 25.5596 23.6631C25.177 23.3663 24.7206 23.1796 24.2396 23.1231C23.7735 23.0622 23.2995 23.1172 22.8596 23.2831C19.2817 24.6587 16.2123 27.0995 14.0662 30.2757C11.9202 33.4519 10.8009 37.2103 10.8596 41.0431C10.8596 50.8231 20.8596 59.4031 32.4796 59.4031C47.3396 59.4031 54.1196 47.4031 54.1196 36.1431C53.9996 22.5031 41.7396 8.08312 28.7196 6.48312ZM32.4196 55.4031C23.0396 55.4031 14.7996 48.7031 14.7996 41.0231C14.7583 38.3103 15.4666 35.6387 16.8463 33.3026C18.2261 30.9665 20.2239 29.0566 22.6196 27.7831C22.6689 29.1527 22.9461 30.5046 23.4396 31.7831C24.1717 33.7704 25.3967 35.539 26.9996 36.9231C27.6777 37.4895 28.5361 37.7946 29.4196 37.7831C30.3028 37.7609 31.1482 37.4199 31.7996 36.8231C34.5596 34.2831 42.2396 25.2431 31.4996 11.2431C41.2796 14.3231 49.9996 25.6831 49.9996 36.1431C49.9996 45.7231 44.5996 55.4031 32.4196 55.4031Z" fill="#2D373D"/>
</svg>
