<svg width="64" height="64" viewBox="0 0 64 64" fill="none" xmlns="http://www.w3.org/2000/svg">
<path d="M37.0001 21.4004C30.2001 21.4004 24.6001 27.0004 24.6001 33.8004C24.6001 40.6004 30.2001 46.2004 37.0001 46.2004C43.8001 46.2004 49.4001 40.6004 49.4001 33.8004C49.4001 27.0004 43.8001 21.4004 37.0001 21.4004ZM37.0001 42.0004C32.4001 42.0004 28.6001 38.2004 28.6001 33.6004C28.6001 29.0004 32.4001 25.2004 37.0001 25.2004C41.6001 25.2004 45.4001 29.0004 45.4001 33.6004C45.4001 38.2004 41.6001 42.0004 37.0001 42.0004Z" fill="#2D373D"/>
<path d="M57.1999 18.0001C56.1999 17.0001 54.7999 16.4001 53.3999 16.4001H49.5999L47.7999 13.6001C46.7999 11.8001 44.9999 10.6001 42.9999 10.6001H30.5999C28.5999 10.6001 26.7999 11.8001 26.3999 13.4001L24.5999 16.4001H19.1999V15.2001C19.1999 14.0001 18.3999 13.2001 17.1999 13.2001C15.9999 13.2001 15.1999 14.0001 15.1999 15.2001V16.4001H10.7999C9.3999 16.4001 7.9999 17.0001 6.9999 18.0001C5.9999 19.0001 5.3999 20.4001 5.3999 21.8001V48.2001C5.3999 51.0001 7.5999 53.4001 10.5999 53.4001H53.3999C56.3999 53.4001 58.7999 51.0001 58.7999 48.2001V21.8001C58.7999 20.4001 58.1999 19.0001 57.1999 18.0001ZM54.9999 48.2001C54.9999 49.0001 54.3999 49.6001 53.5999 49.6001H10.5999C9.7999 49.6001 9.1999 49.0001 9.1999 48.2001V21.8001C9.1999 21.0001 9.7999 20.4001 10.5999 20.4001H25.3999C25.9999 20.4001 26.7999 20.0001 26.9999 19.4001L29.3999 15.4001C29.5999 14.8001 30.1999 14.6001 30.5999 14.6001H42.9999C43.5999 14.6001 43.9999 14.8001 44.3999 15.4001L46.7999 19.4001C47.1999 20.0001 47.9999 20.4001 48.5999 20.4001H53.5999C53.9999 20.4001 54.3999 20.6001 54.5999 20.8001C54.7999 21.2001 54.9999 21.4001 54.9999 21.8001V48.2001Z" fill="#2D373D"/>
<path d="M14.5998 28.6C16.1462 28.6 17.3998 27.3464 17.3998 25.8C17.3998 24.2536 16.1462 23 14.5998 23C13.0534 23 11.7998 24.2536 11.7998 25.8C11.7998 27.3464 13.0534 28.6 14.5998 28.6Z" fill="#2D373D"/>
</svg>
