<svg width="24" height="25" viewBox="0 0 24 25" fill="none" xmlns="http://www.w3.org/2000/svg">
<path d="M11.2498 12.3117C11.6248 12.0867 11.7748 11.6367 11.5498 11.2617C10.9498 10.1367 9.9748 9.38672 8.7748 9.01172C9.7498 8.56172 10.4998 7.51172 10.4998 6.38672C10.4998 5.56172 10.1998 4.81172 9.67481 4.28672C9.07481 3.68672 8.39981 3.38672 7.57481 3.38672C5.9248 3.38672 4.5748 4.73672 4.5748 6.31172C4.5748 7.13672 4.8748 7.81172 5.4748 8.41172C5.77481 8.71172 6.0748 8.86172 6.3748 9.01172C5.9998 9.16172 5.6248 9.31172 5.2498 9.46172C3.8248 10.2867 2.9248 11.8617 2.9248 13.5117V15.1617C2.9248 15.6117 3.2248 15.9117 3.6748 15.9117H4.7248L5.1748 20.7867C5.2498 21.1617 5.5498 21.4617 5.9248 21.4617H9.2248C9.5998 21.4617 9.8998 21.1617 9.8998 20.7867L10.1248 18.3867C10.1998 17.9367 9.82481 17.6367 9.44981 17.5617C8.99981 17.5617 8.69981 17.8617 8.62481 18.2367L8.47481 19.9617H6.5248L6.07481 15.0867C5.99981 14.7117 5.6998 14.4117 5.3248 14.4117H4.4248V13.5117C4.4248 12.3867 5.0248 11.4117 5.9998 10.8117C6.7498 10.4367 7.49981 10.2867 8.32481 10.5117C9.14981 10.7367 9.74981 11.2617 10.1998 12.0117C10.4248 12.3867 10.8748 12.5367 11.2498 12.3117ZM7.57481 4.88672C7.94981 4.88672 8.3248 5.03672 8.62481 5.26172C8.92481 5.56172 9.07481 5.93672 9.07481 6.31172C9.07481 7.13672 8.39981 7.81172 7.57481 7.81172C6.74981 7.81172 6.07481 7.13672 6.07481 6.31172C6.14981 5.56172 6.82481 4.88672 7.57481 4.88672Z" fill="#2D373D"/>
<path d="M20.2499 15.5368C19.7999 15.5368 19.4999 15.8368 19.4999 16.2868C19.4999 18.3118 17.8499 19.9618 15.8249 19.9618C13.7999 19.9618 12.1499 18.3118 12.1499 16.2868C12.1499 14.2618 13.7999 12.6118 15.8249 12.6118C16.2749 12.6118 16.5749 12.3118 16.5749 11.8618C16.5749 11.4118 16.2749 11.1118 15.8249 11.1118C12.9749 11.1118 10.6499 13.4368 10.6499 16.2868C10.6499 19.1368 12.9749 21.4618 15.8249 21.4618C18.6749 21.4618 20.9999 19.1368 20.9999 16.2868C20.9999 15.8368 20.6999 15.5368 20.2499 15.5368Z" fill="#2D373D"/>
<path d="M14.6998 15.2368C14.3998 14.9368 13.9498 14.9368 13.6498 15.2368C13.3498 15.5368 13.3498 15.9868 13.6498 16.2868L14.9248 17.5618C15.1498 17.7868 15.5248 17.9368 15.8248 17.9368C16.1998 17.9368 16.4998 17.7868 16.7248 17.5618L20.7748 13.5118C21.0748 13.2118 21.0748 12.7618 20.7748 12.4618C20.4748 12.1618 20.0248 12.1618 19.7248 12.4618L15.8248 16.3618L14.6998 15.2368Z" fill="#2D373D"/>
</svg>
