<svg width="32" height="33" viewBox="0 0 32 33" fill="none" xmlns="http://www.w3.org/2000/svg">
<path d="M5 16.7309C5.22556 16.7296 5.44406 16.6521 5.62 16.5109L12.11 11.3609C12.1879 11.3025 12.2826 11.2709 12.38 11.2709C12.4774 11.2709 12.5721 11.3025 12.65 11.3609L15.87 13.6509C16.3437 13.9945 16.9248 14.1572 17.5081 14.1095C18.0914 14.0618 18.6384 13.8069 19.05 13.3909L24.53 7.91094V11.3709C24.53 11.6362 24.6354 11.8905 24.8229 12.078C25.0104 12.2656 25.2648 12.3709 25.53 12.3709C25.7952 12.3709 26.0496 12.2656 26.2371 12.078C26.4246 11.8905 26.53 11.6362 26.53 11.3709V5.46094C26.5316 5.33092 26.5078 5.20185 26.46 5.08094C26.3585 4.83659 26.1643 4.64241 25.92 4.54094C25.796 4.49055 25.6638 4.46344 25.53 4.46094H19.67C19.4048 4.46094 19.1504 4.56629 18.9629 4.75383C18.7754 4.94137 18.67 5.19572 18.67 5.46094C18.67 5.72615 18.7754 5.98051 18.9629 6.16804C19.1504 6.35558 19.4048 6.46094 19.67 6.46094H23.12L17.64 11.9409C17.5628 12.0203 17.4601 12.0699 17.35 12.0809C17.2399 12.0832 17.1317 12.0518 17.04 11.9909L13.8 9.68094C13.3519 9.37969 12.8195 9.22907 12.28 9.25094C11.7525 9.27881 11.2478 9.47508 10.84 9.81094L4.38 14.9409C4.27653 15.0227 4.19027 15.1242 4.12618 15.2395C4.06209 15.3548 4.02144 15.4816 4.00656 15.6126C3.99169 15.7437 4.00289 15.8764 4.03953 16.0031C4.07616 16.1298 4.13749 16.248 4.22 16.3509C4.31313 16.4688 4.43161 16.5642 4.56664 16.6299C4.70168 16.6957 4.84979 16.7302 5 16.7309Z" fill="#2D373D"/>
<path d="M28 18.9009V16.4609C28 16.0021 27.8177 15.5621 27.4933 15.2376C27.1689 14.9132 26.7288 14.7309 26.27 14.7309H18.93C18.4712 14.7309 18.0311 14.9132 17.7067 15.2376C17.3823 15.5621 17.2 16.0021 17.2 16.4609V18.6609C16.7919 18.725 16.4198 18.9323 16.1505 19.2456C15.8812 19.5589 15.7321 19.9578 15.73 20.3709V22.8209C15.7252 22.9009 15.7252 22.981 15.73 23.0609C15.4616 22.791 15.1085 22.6215 14.73 22.5809V20.3709C14.7274 19.9129 14.5443 19.4744 14.2204 19.1505C13.8965 18.8267 13.458 18.6436 13 18.6409H5.73C5.27199 18.6436 4.83348 18.8267 4.50961 19.1505C4.18573 19.4744 4.00262 19.9129 4 20.3709V22.8209C4.00247 23.2329 4.15188 23.6305 4.42136 23.9421C4.69084 24.2538 5.06268 24.459 5.47 24.5209V26.7309C5.47 27.1898 5.65227 27.6298 5.97671 27.9542C6.30114 28.2787 6.74118 28.4609 7.2 28.4609H14.53C14.9897 28.4609 15.4308 28.279 15.7568 27.9548C16.0829 27.6307 16.2674 27.1907 16.27 26.7309V24.2809C16.2748 24.201 16.2748 24.1209 16.27 24.0409C16.5441 24.3028 16.8943 24.4709 17.27 24.5209V26.7309C17.2721 27.1772 17.4455 27.6055 17.7545 27.9275C18.0634 28.2495 18.4843 28.4404 18.93 28.4609H26.27C26.728 28.4583 27.1665 28.2752 27.4904 27.9513C27.8143 27.6275 27.9974 27.189 28 26.7309V24.2809C27.9975 23.869 27.8481 23.4714 27.5786 23.1597C27.3092 22.8481 26.9373 22.6428 26.53 22.5809V20.5809C26.934 20.5196 27.3032 20.3173 27.5722 20.0098C27.8413 19.7023 27.9928 19.3095 28 18.9009ZM17.73 22.5509V20.6409H24.53V22.5509H17.73ZM19.2 16.7309H26V18.6409H19.2V16.7309ZM6 20.6409H12.8V22.5509H6V20.6409ZM14.27 26.4609H7.47V24.5509H14.27V26.4609ZM26 26.4609H19.2V24.5509H26V26.4609Z" fill="#2D373D"/>
</svg>
