<svg width="32" height="32" viewBox="0 0 32 32" fill="none" xmlns="http://www.w3.org/2000/svg">
<path fill-rule="evenodd" clip-rule="evenodd" d="M15.9954 7.66672C15.9333 7.66672 15.872 7.67892 15.8153 7.70232C15.7587 7.72571 15.708 7.75966 15.6661 7.80159L15.6618 7.80591L5.69823 17.6489C5.30533 18.0371 4.67218 18.0332 4.28404 17.6403C3.8959 17.2474 3.89975 16.6143 4.29265 16.2261L14.2543 6.38498C14.4829 6.15703 14.7542 5.97664 15.0523 5.8536C15.3514 5.73013 15.672 5.66672 15.9954 5.66672C16.3189 5.66672 16.6395 5.73013 16.9386 5.8536C17.2367 5.97663 17.5079 6.157 17.7365 6.38491C17.7373 6.38574 17.7382 6.38657 17.739 6.3874L27.6982 16.2261C28.0911 16.6143 28.095 17.2474 27.7068 17.6403C27.3187 18.0332 26.6855 18.0371 26.2926 17.6489L16.3247 7.8016C16.2828 7.75967 16.2322 7.72571 16.1755 7.70232C16.1189 7.67892 16.0576 7.66672 15.9954 7.66672Z" fill="#2D373D"/>
<path fill-rule="evenodd" clip-rule="evenodd" d="M7.99975 18.3334C8.55203 18.3334 8.99975 18.7811 8.99975 19.3334V26H12.9997V21C12.9997 20.9825 12.9997 20.964 12.9997 20.9446C12.999 20.658 12.9978 20.177 13.1344 19.7672C13.2168 19.5198 13.371 19.2222 13.6671 18.9919C13.9717 18.755 14.3268 18.6667 14.6664 18.6667H17.3331C17.6727 18.6667 18.0278 18.755 18.3324 18.9919C18.6285 19.2222 18.7827 19.5198 18.8651 19.7672C19.0017 20.177 19.0005 20.658 18.9998 20.9446C18.9998 20.964 18.9997 20.9825 18.9997 21V26H22.9998V19.3334C22.9998 18.7811 23.4475 18.3334 23.9998 18.3334C24.552 18.3334 24.9998 18.7811 24.9998 19.3334V27C24.9998 27.5523 24.552 28 23.9998 28H17.9997C17.4475 28 16.9997 27.5523 16.9997 27V21C16.9997 20.8691 16.9995 20.7617 16.9961 20.6667H15.0034C15 20.7617 14.9997 20.8691 14.9997 21V27C14.9997 27.5523 14.552 28 13.9997 28H7.99975C7.44746 28 6.99975 27.5523 6.99975 27V19.3334C6.99975 18.7811 7.44746 18.3334 7.99975 18.3334Z" fill="#2D373D"/>
<path fill-rule="evenodd" clip-rule="evenodd" d="M10.5939 7.39021C10.6544 7.93918 10.2583 8.43319 9.70934 8.49362C9.56323 8.5097 9.39434 8.55636 9.21546 8.64168C9.03702 8.7268 8.86102 8.84459 8.70113 8.98957C8.54124 9.13456 8.40684 9.29823 8.30472 9.46751C8.20235 9.63721 8.13945 9.80074 8.10919 9.94459C7.99549 10.485 7.4652 10.831 6.92474 10.7173C6.38429 10.6036 6.03833 10.0733 6.15202 9.53286C6.23302 9.14787 6.38612 8.77604 6.59219 8.43444C6.79851 8.09242 7.05893 7.77887 7.35767 7.50798C7.65642 7.23709 7.99388 7.0085 8.35439 6.83653C8.71447 6.66478 9.09946 6.54867 9.49052 6.50563C10.0395 6.4452 10.5335 6.84124 10.5939 7.39021Z" fill="#2D373D"/>
<path fill-rule="evenodd" clip-rule="evenodd" d="M21.5392 7.39021C21.4788 7.93918 21.8748 8.43319 22.4238 8.49362C22.5699 8.5097 22.7388 8.55636 22.9177 8.64168C23.0961 8.7268 23.2721 8.84459 23.432 8.98957C23.5919 9.13456 23.7263 9.29823 23.8284 9.46751C23.9308 9.63721 23.9937 9.80074 24.0239 9.94459C24.1376 10.485 24.6679 10.831 25.2084 10.7173C25.7488 10.6036 26.0948 10.0733 25.9811 9.53286C25.9001 9.14787 25.747 8.77604 25.5409 8.43444C25.3346 8.09242 25.0742 7.77887 24.7755 7.50798C24.4767 7.23709 24.1392 7.0085 23.7787 6.83653C23.4187 6.66478 23.0337 6.54867 22.6426 6.50563C22.0936 6.4452 21.5996 6.84124 21.5392 7.39021Z" fill="#2D373D"/>
<path fill-rule="evenodd" clip-rule="evenodd" d="M9.68912 4.94017C9.72218 5.49147 9.30206 5.96518 8.75077 5.99824C7.99334 6.04366 7.18747 6.39236 6.53487 7.0019C5.88228 7.61144 5.47947 8.39168 5.38254 9.14425C5.31199 9.69201 4.81075 10.0789 4.26299 10.0083C3.71523 9.93777 3.32838 9.43653 3.39893 8.88877C3.56079 7.63205 4.20944 6.4372 5.1697 5.54029C6.12995 4.64339 7.36622 4.07767 8.63105 4.00182C9.18235 3.96877 9.65606 4.38888 9.68912 4.94017Z" fill="#2D373D"/>
<path fill-rule="evenodd" clip-rule="evenodd" d="M22.444 4.94017C22.4109 5.49147 22.8311 5.96518 23.3824 5.99824C24.1398 6.04366 24.9457 6.39236 25.5983 7.0019C26.2508 7.61144 26.6537 8.39168 26.7506 9.14425C26.8211 9.69201 27.3224 10.0789 27.8701 10.0083C28.4179 9.93777 28.8047 9.43653 28.7342 8.88877C28.5723 7.63205 27.9237 6.4372 26.9634 5.54029C26.0032 4.64339 24.7669 4.07767 23.5021 4.00182C22.9508 3.96877 22.4771 4.38888 22.444 4.94017Z" fill="#2D373D"/>
</svg>
