<svg width="16" height="17" viewBox="0 0 16 17" fill="none" xmlns="http://www.w3.org/2000/svg">
<path d="M13.3999 6.86133H13.1499V5.86133C13.1499 5.16133 12.5999 4.61133 11.8999 4.61133H7.1499V4.36133C7.1499 3.66133 6.5999 3.11133 5.8999 3.11133H3.6499C2.9499 3.11133 2.3999 3.66133 2.3999 4.36133V12.5113C2.3999 12.8613 2.5499 13.2113 2.7999 13.4113C2.9999 13.6113 3.2999 13.7113 3.5499 13.7613C3.5999 13.8113 3.6999 13.8113 3.7499 13.8113H12.2999C12.8499 13.8113 13.3499 13.4613 13.4999 12.9113L14.5999 8.41133C14.6499 8.31133 14.6499 8.21133 14.6499 8.11133C14.6499 7.41133 14.0999 6.86133 13.3999 6.86133ZM3.7499 12.8613C3.6499 12.8613 3.5499 12.8113 3.4999 12.7613C3.4499 12.6613 3.3999 12.6113 3.3999 12.5113V4.36133C3.3999 4.21133 3.4999 4.11133 3.6499 4.11133H5.8999C6.0499 4.11133 6.1499 4.21133 6.1499 4.36133V5.11133C6.1499 5.41133 6.3499 5.61133 6.6499 5.61133H11.8499C11.9999 5.61133 12.0999 5.71133 12.0999 5.86133V6.86133H6.4499C5.8999 6.86133 5.3999 7.21133 5.2499 7.81133L4.0999 12.6113C4.0499 12.7613 3.8999 12.8613 3.7499 12.8613ZM13.6499 8.11133L12.5499 12.6113C12.4999 12.7113 12.3999 12.8113 12.2999 12.8113H5.0499L6.1999 8.01133C6.2499 7.86133 6.3499 7.81133 6.4499 7.81133H12.6499H13.3999C13.5499 7.81133 13.6499 7.91133 13.6499 8.06133C13.6499 8.06133 13.6499 8.06133 13.6499 8.11133Z" fill="#2D373D"/>
</svg>
