<svg width="32" height="33" viewBox="0 0 32 33" fill="none" xmlns="http://www.w3.org/2000/svg">
<path d="M7 16.4246C7.1 16.5246 7.3 16.5246 7.4 16.5246C8.2 16.5246 8.8 15.8246 8.8 15.0246C8.8 14.8246 8.8 14.7246 8.7 14.6246C8.6 14.2246 8.2 13.8246 7.8 13.7246C7.7 13.6246 7.5 13.6246 7.4 13.6246C6.6 13.5246 6 14.2246 6 14.9246C6 15.7246 6.4 16.2246 7 16.4246Z" fill="#2D373D"/>
<path d="M15.4001 17.7246H5.3001C4.9001 17.7246 4.6001 17.4246 4.6001 17.0246V14.5246C4.6001 13.2246 5.7001 12.1246 7.0001 12.1246H23.8001C24.7001 12.1246 25.5001 12.6246 25.9001 13.3246C26.2001 13.8246 26.8001 14.0246 27.3001 13.7246C27.8001 13.4246 28.0001 12.8246 27.7001 12.3246C27.2001 11.4246 26.4001 10.8246 25.5001 10.4246L23.7001 6.52461C23.2001 5.12461 21.9001 4.22461 20.4001 4.22461H10.4001C9.0001 4.22461 7.6001 5.12461 7.2001 6.42461L5.4001 10.4246C3.8001 11.1246 2.6001 12.6246 2.6001 14.5246V17.0246C2.6001 17.8246 2.9001 18.4246 3.4001 18.9246V20.4246C3.4001 21.9246 4.6001 23.1246 6.1001 23.1246C7.6001 23.1246 8.8001 21.9246 8.8001 20.4246V19.7246H15.4001C15.9001 19.7246 16.4001 19.3246 16.4001 18.7246C16.4001 18.1246 16.0001 17.7246 15.4001 17.7246ZM9.0001 7.22461C9.2001 6.62461 9.8001 6.22461 10.5001 6.22461H20.5001C21.1001 6.22461 21.7001 6.62461 21.9001 7.22461L23.2001 10.1246H7.7001L9.0001 7.22461ZM6.8001 20.4246C6.8001 20.8246 6.5001 21.1246 6.1001 21.1246C5.7001 21.1246 5.4001 20.8246 5.4001 20.4246V19.7246H6.8001V20.4246Z" fill="#2D373D"/>
<path d="M23.5 18.9246C23.4 19.0246 23.4 18.9246 23.5 18.9246C22.8 18.9246 22.3 19.3246 22.1 19.9246C22 20.0246 22 20.2246 22 20.3246C22 20.4246 22 20.6246 22.1 20.7246C22.2 21.1246 22.6 21.5246 23 21.6246C23.1 21.7246 23.3 21.7246 23.4 21.7246C24 21.7246 24.6 21.3246 24.8 20.8246C24.9 20.7246 24.9 20.5246 24.9 20.3246C24.9 19.5246 24.3 18.9246 23.5 18.9246Z" fill="#2D373D"/>
<path d="M23.5 14.3245C20.2 14.3245 17.5 17.0245 17.5 20.3245C17.5 22.5245 19.9 26.2245 22 28.8245C22.1 28.9245 22.2 29.0245 22.3 29.1245C22.6 29.4245 23 29.5245 23.4 29.5245C23.5 29.5245 23.6 29.5245 23.8 29.5245C24.3 29.4245 24.7 29.2245 25 28.8245C27 26.1245 29.5 22.5245 29.5 20.3245C29.5 17.0245 26.8 14.3245 23.5 14.3245ZM23.4 27.5245C20.9 24.3245 19.4 21.6245 19.4 20.4245C19.4 18.2245 21.2 16.4245 23.4 16.4245C25.6 16.4245 27.4 18.1245 27.4 20.4245C27.4 21.6245 25.8 24.3245 23.4 27.5245Z" fill="#2D373D"/>
</svg>
