<svg width="32" height="33" viewBox="0 0 32 33" fill="none" xmlns="http://www.w3.org/2000/svg">
<path fill-rule="evenodd" clip-rule="evenodd" d="M7.93335 4.46191C8.48563 4.46191 8.93335 4.90963 8.93335 5.46191V9.12858C8.93335 9.68087 8.48563 10.1286 7.93335 10.1286C7.38106 10.1286 6.93335 9.68087 6.93335 9.12858V7.92859H6.46667C6.3429 7.92859 6.2242 7.97776 6.13668 8.06527C6.04917 8.15279 6 8.27149 6 8.39526V14.2619C6 15.5526 6.51274 16.7905 7.42541 17.7032C8.33562 18.6134 9.56926 19.1258 10.8562 19.1286C10.8597 19.1285 10.8632 19.1285 10.8667 19.1285C10.8702 19.1285 10.8736 19.1285 10.8771 19.1286C12.1641 19.1258 13.3977 18.6134 14.3079 17.7032C15.2206 16.7905 15.7333 15.5526 15.7333 14.2619V8.39526C15.7333 8.27149 15.6842 8.15279 15.5966 8.06527C15.5091 7.97776 15.3904 7.92859 15.2667 7.92859H14.8V9.12858C14.8 9.68087 14.3523 10.1286 13.8 10.1286C13.2477 10.1286 12.8 9.68087 12.8 9.12858V5.46191C12.8 4.90963 13.2477 4.46191 13.8 4.46191C14.3523 4.46191 14.8 4.90963 14.8 5.46191V5.92859H15.2667C15.9209 5.92859 16.5483 6.18847 17.0109 6.65106C17.4735 7.11365 17.7333 7.74106 17.7333 8.39526V14.2619C17.7333 16.0831 17.0099 17.8296 15.7221 19.1174C14.6733 20.1663 13.32 20.8408 11.87 21.0549C11.9188 22.47 12.5023 23.817 13.5069 24.8217C14.5571 25.8719 15.9815 26.4619 17.4667 26.4619C18.9519 26.4619 20.3763 25.8719 21.4265 24.8217C22.4767 23.7715 23.0667 22.3471 23.0667 20.8619V18.0661C22.3985 17.8904 21.7823 17.5402 21.2854 17.0432C20.5477 16.3056 20.1333 15.3051 20.1333 14.2619C20.1333 13.2188 20.5477 12.2183 21.2854 11.4807C22.023 10.743 23.0235 10.3286 24.0667 10.3286C25.1098 10.3286 26.1103 10.743 26.848 11.4807C27.5856 12.2183 28 13.2188 28 14.2619C28 15.3051 27.5856 16.3056 26.848 17.0432C26.351 17.5402 25.7348 17.8904 25.0667 18.066V20.8619C25.0667 22.8775 24.266 24.8106 22.8407 26.2359C21.4154 27.6611 19.4823 28.4619 17.4667 28.4619C15.451 28.4619 13.5179 27.6611 12.0927 26.2359C10.7132 24.8564 9.91874 23.0011 9.86914 21.0558C8.41693 20.8426 7.06147 20.1677 6.0112 19.1174C4.72345 17.8296 4 16.0831 4 14.2619V8.39526C4 7.74105 4.25988 7.11365 4.72247 6.65106C5.18506 6.18847 5.81247 5.92859 6.46667 5.92859H6.93335V5.46191C6.93335 4.90963 7.38106 4.46191 7.93335 4.46191ZM24.0776 16.1952C24.5864 16.1924 25.0737 15.989 25.4337 15.629C25.7963 15.2664 26 14.7747 26 14.2619C26 13.7492 25.7963 13.2574 25.4337 12.8949C25.0712 12.5323 24.5794 12.3286 24.0667 12.3286C23.5539 12.3286 23.0622 12.5323 22.6996 12.8949C22.337 13.2574 22.1333 13.7492 22.1333 14.2619C22.1333 14.7747 22.337 15.2664 22.6996 15.629C23.0596 15.989 23.5469 16.1924 24.0557 16.1952C24.0594 16.1952 24.063 16.1952 24.0667 16.1952C24.0703 16.1952 24.074 16.1952 24.0776 16.1952Z" fill="#2D373D"/>
</svg>
