<svg width="64" height="65" viewBox="0 0 64 65" fill="none" xmlns="http://www.w3.org/2000/svg">
<path d="M56.8996 13.384C55.8548 12.4349 54.4911 11.9137 53.0796 11.924H11.0796C9.67284 11.9197 8.31346 12.4321 7.25961 13.364C6.73624 13.8405 6.31823 14.4211 6.03236 15.0686C5.7465 15.7161 5.5991 16.4162 5.59961 17.124V49.124C5.60694 49.8314 5.76193 50.5295 6.05468 51.1735C6.34742 51.8175 6.77145 52.3933 7.29961 52.864C8.35149 53.7991 9.71216 54.3121 11.1196 54.304H53.3396C54.6813 54.3068 55.977 53.8156 56.9796 52.924C57.4869 52.4753 57.8935 51.9244 58.1727 51.3073C58.4519 50.6903 58.5974 50.0212 58.5996 49.344V17.124C58.5973 16.4157 58.4445 15.7161 58.1515 15.0713C57.8584 14.4266 57.4317 13.8514 56.8996 13.384V13.384ZM54.2196 16.344C54.3329 16.4368 54.4253 16.5524 54.4908 16.6834C54.5563 16.8144 54.5933 16.9577 54.5996 17.104V20.784H32.4596V15.924H53.0796C53.4984 15.9188 53.9043 16.0683 54.2196 16.344V16.344ZM22.6596 20.784V15.924H28.4596V20.784H22.6596ZM10.0596 16.344C10.3786 16.0746 10.7821 15.926 11.1996 15.924H18.6596V20.784H9.59961V17.124C9.61392 16.9681 9.66259 16.8173 9.74213 16.6824C9.82166 16.5475 9.93009 16.4319 10.0596 16.344V16.344ZM54.2996 49.984C54.0317 50.2105 53.6903 50.3314 53.3396 50.324H11.1196C10.7285 50.3102 10.3541 50.1618 10.0596 49.904C9.92909 49.8171 9.81992 49.7017 9.74026 49.5667C9.6606 49.4316 9.61252 49.2803 9.59961 49.124V24.784H54.5996V49.364C54.5963 49.4827 54.5678 49.5993 54.5161 49.7061C54.4644 49.813 54.3906 49.9077 54.2996 49.984Z" fill="#2D373D"/>
</svg>
