<svg width="64" height="65" viewBox="0 0 64 65" fill="none" xmlns="http://www.w3.org/2000/svg">
<path d="M50.7996 35.8609C51.9996 35.8609 52.7996 35.0609 52.7996 33.8609V26.0609C52.9996 25.8609 52.9996 25.4609 52.9996 25.2609C52.9996 24.8609 52.7996 24.6609 52.7996 24.2609C52.5996 23.2609 52.1996 22.2609 51.3996 21.4609L39.7996 9.86094C38.9996 9.06094 37.7996 8.46094 36.3996 8.46094H15.5996C12.7996 8.46094 10.5996 10.4609 10.5996 13.4609V51.6609C10.5996 54.4609 12.7996 56.4609 15.5996 56.4609H21.3996C22.5996 56.4609 23.3996 55.8609 23.3996 54.6609C23.3996 53.4609 22.5996 52.6609 21.3996 52.6609H15.5996C14.9996 52.6609 14.5996 52.2609 14.5996 51.6609V13.4609C14.5996 12.8609 14.9996 12.4609 15.5996 12.4609H34.1996V22.2609C34.1996 25.0609 36.3996 27.2609 39.1996 27.2609H48.7996V33.8609C48.7996 34.8609 49.5996 35.8609 50.7996 35.8609ZM38.1996 22.0609V13.6609L47.5996 23.0609H39.1996C38.5996 23.0609 38.1996 22.8609 38.1996 22.0609Z" fill="#2D373D"/>
<path d="M28.7994 38.0611C28.1994 37.8611 27.7994 37.6611 27.3994 37.6611C26.1994 37.6611 25.3994 38.4611 25.3994 39.6611V54.4611C25.3994 55.6611 26.1994 56.4611 27.3994 56.4611C28.3994 56.4611 29.3994 55.6611 29.3994 54.4611V50.8611C32.7994 50.6611 35.3994 47.8611 35.3994 44.2611C35.3994 42.6611 34.5994 41.0611 33.3994 39.8611C31.9994 38.8611 30.3994 38.0611 28.7994 38.0611ZM29.3994 46.6611V42.2611C29.7994 42.2611 30.3994 42.4611 30.5994 42.8611C31.1994 43.2611 31.3994 43.8611 31.3994 44.4611C31.3994 45.4611 30.3994 46.2611 29.3994 46.6611Z" fill="#2D373D"/>
<path d="M39.1992 37.8608C37.9992 37.8608 37.1992 38.6608 37.1992 39.8608V54.4608C37.1992 55.6608 37.9992 56.4608 39.1992 56.4608C43.3992 56.4608 46.9992 52.8608 46.9992 48.4608V45.4608C46.9992 41.4608 43.5992 37.8608 39.1992 37.8608ZM42.9992 48.4608C42.9992 49.8608 42.3992 51.2608 41.1992 51.8608V42.4608C42.1992 43.2608 42.9992 44.4608 42.9992 45.6608V48.4608Z" fill="#2D373D"/>
<path d="M54 41.8608H57C58.2 41.8608 59 41.0608 59 39.8608C59 38.6608 58.2 37.8608 57 37.8608H54C51.2 37.8608 49 40.0608 49 42.8608V54.4608C49 55.6608 49.8 56.4608 51 56.4608C52 56.4608 53 55.6608 53 54.4608V50.6608H55.4C56.4 50.6608 57.4 49.8608 57.4 48.6608C57.4 47.4608 56.6 46.6608 55.4 46.6608H53V42.6608C53 42.0608 53.4 41.8608 54 41.8608Z" fill="#2D373D"/>
</svg>
