<svg width="32" height="32" viewBox="0 0 32 32" fill="none" xmlns="http://www.w3.org/2000/svg">
<path d="M27.8999 22C28.7999 20.1 29.3999 18.1 29.3999 15.9C29.3999 15.7 29.3999 15.5 29.3999 15.3C29.3999 15.2 29.3999 15.2 29.3999 15.1C29.3999 15 29.3999 14.8 29.2999 14.7C29.0999 13 28.6999 11.2 27.8999 9.69997C27.5999 9.19997 27.2999 8.69997 26.9999 8.19997C26.8999 7.89997 26.7999 7.69997 26.4999 7.59997C24.7999 5.49997 22.5999 3.99997 19.9999 3.19997C16.5999 2.09997 12.9999 2.39997 9.7999 4.09997C8.0999 5.09997 6.5999 6.29997 5.4999 7.79997C5.4999 7.79997 5.3999 7.89997 5.3999 7.99997C4.3999 9.19997 3.6999 10.5 3.1999 12C2.8999 13 2.6999 14 2.5999 15.1C2.4999 17.6 2.9999 20 4.0999 22.2C5.7999 25.3 8.5999 27.6 11.9999 28.7C12.1999 28.8 12.2999 28.8 12.4999 28.8C12.6999 29 12.8999 29 12.9999 29H13.0999C14.0999 29.2 15.0999 29.3 15.9999 29.3C16.9999 29.3 17.8999 29.2 18.8999 29C19.1999 29 19.3999 28.9 19.5999 28.8C20.3999 28.6 21.1999 28.3 21.8999 27.9L28.0999 29.3C28.4999 29.3 28.8999 29.2 29.0999 28.9C29.2999 28.6 29.3999 28.1 29.1999 27.8L26.9999 23.4C27.1999 23.1 27.3999 22.7 27.5999 22.4C27.7999 22.3 27.8999 22.1 27.8999 22ZM5.6999 20.7C4.9999 19.2 4.6999 17.7 4.6999 16.1H9.2999C9.2999 17.7 9.3999 19.2 9.5999 20.7H5.6999V20.7ZM25.3999 9.49997C25.6999 9.89997 25.9999 10.3 26.1999 10.8C26.6999 11.8 27.0999 12.9 27.2999 14.1H22.6999C22.5999 12.5 22.3999 10.9 22.0999 9.49997H25.3999V9.49997ZM21.5999 7.49997C21.3999 6.89997 21.1999 6.29997 20.9999 5.79997C21.8999 6.19997 22.7999 6.79997 23.5999 7.49997H21.5999ZM20.5999 14.1H11.2999C11.3999 12.5 11.5999 10.9 11.8999 9.49997H19.8999C20.2999 10.9 20.4999 12.5 20.5999 14.1ZM11.2999 16.1H20.6999C20.6999 17.7 20.5999 19.3 20.2999 20.7H11.5999C11.3999 19.3 11.2999 17.7 11.2999 16.1ZM22.6999 16.1H27.4999C27.4999 17.7 27.1999 19.3 26.4999 20.7H22.3999C22.5999 19.3 22.6999 17.7 22.6999 16.1ZM18.1999 4.89997C18.6999 5.59997 19.0999 6.49997 19.3999 7.59997H12.4999C12.7999 6.59997 13.2999 5.69997 13.6999 4.89997C14.3999 4.79997 15.1999 4.69997 15.8999 4.69997C16.6999 4.59997 17.4999 4.69997 18.1999 4.89997ZM10.5999 5.89997C10.6999 5.79997 10.7999 5.79997 10.9999 5.69997C10.7999 6.29997 10.5999 6.79997 10.3999 7.49997H8.3999C9.0999 6.89997 9.7999 6.39997 10.5999 5.89997ZM6.6999 9.49997H9.8999C9.5999 10.9 9.3999 12.5 9.2999 14.1H4.7999C4.8999 13.6 4.9999 13.1 5.0999 12.6C5.4999 11.5 5.9999 10.5 6.6999 9.49997ZM6.7999 22.7H9.8999C10.1999 24 10.4999 25.2 10.8999 26.2C9.2999 25.4 7.8999 24.2 6.7999 22.7ZM13.6999 27.2C12.9999 26.1 12.3999 24.5 11.9999 22.7H19.8999C19.4999 24.5 18.8999 26.1 18.0999 27.2C16.6999 27.5 15.1999 27.5 13.6999 27.2ZM21.9999 26C21.6999 26 21.4999 26 21.2999 26.1C21.1999 26.2 21.0999 26.2 20.9999 26.2C21.3999 25.1 21.7999 23.9 21.9999 22.7H25.2999C25.2999 22.8 25.1999 22.8 25.1999 22.9C24.9999 23.2 24.8999 23.6 25.0999 23.9L26.5999 27L21.9999 26Z" fill="#2D373D"/>
</svg>
