<svg width="32" height="33" viewBox="0 0 32 33" fill="none" xmlns="http://www.w3.org/2000/svg">
<path d="M15.2998 20.1615C14.8998 20.5615 14.8998 21.1615 15.2998 21.5615C15.4998 21.7615 15.6998 21.8615 15.9998 21.8615C16.2998 21.8615 16.4998 21.7615 16.6998 21.5615L20.9998 17.2615C21.2998 17.0615 21.3998 16.8615 21.3998 16.4615C21.3998 16.0615 21.1998 15.8615 20.9998 15.6615L16.6998 11.3615C16.2998 10.9615 15.6998 10.9615 15.2998 11.3615C14.8998 11.7615 14.8998 12.3615 15.2998 12.7615L17.9998 15.4615H2.2998C1.6998 15.4615 1.2998 15.8615 1.2998 16.4615C1.2998 17.0615 1.6998 17.4615 2.2998 17.4615H17.9998L15.2998 20.1615Z" fill="#2D373D"/>
<path d="M27.9995 10.6615C24.6995 3.96145 16.6995 1.26145 10.0995 4.46145C7.59949 5.66145 5.49949 7.66145 4.19949 10.1615C3.99949 10.6615 4.09949 11.2615 4.59949 11.4615C5.09949 11.7615 5.69949 11.5615 5.99949 11.0615C7.09949 8.96145 8.89949 7.26145 10.9995 6.16145C13.6995 4.86145 16.7995 4.66145 19.6995 5.66145C22.5995 6.66145 24.8995 8.76145 26.1995 11.4615C28.9995 17.0615 26.5995 23.9615 20.9995 26.6615C15.3995 29.4615 8.49949 27.0615 5.79949 21.4615C5.59949 20.9615 4.99949 20.7615 4.49949 20.9615C3.99949 21.1615 3.79949 21.7615 3.99949 22.2615C6.29949 26.9615 10.9995 29.7615 15.9995 29.7615C17.9995 29.7615 19.9995 29.3615 21.7995 28.5615C28.4995 25.3615 31.1995 17.2615 27.9995 10.6615Z" fill="#2D373D"/>
</svg>
