<svg width="64" height="65" viewBox="0 0 64 65" fill="none" xmlns="http://www.w3.org/2000/svg">
<path d="M53.9998 52.4615H52.9998V35.2615C52.9998 33.4615 51.5998 31.8615 49.5998 31.8615H43.7998C41.9998 31.8615 40.3998 33.2615 40.3998 35.2615V52.4615H38.1998V29.4615C38.1998 27.6615 36.7998 26.0615 34.7998 26.0615H28.9998C27.1998 26.0615 25.5998 27.4615 25.5998 29.4615V52.4615H23.5998V44.2615C23.5998 42.4615 22.1998 40.8615 20.1998 40.8615H14.1998C12.3998 40.8615 10.7998 42.2615 10.7998 44.2615V52.4615H9.7998C8.5998 52.4615 7.7998 53.2615 7.7998 54.4615C7.7998 55.6615 8.5998 56.4615 9.7998 56.4615H53.9998C55.1998 56.4615 55.9998 55.6615 55.9998 54.4615C55.9998 53.2615 55.1998 52.4615 53.9998 52.4615ZM19.5998 52.4615H14.7998V44.6615H19.5998V52.4615ZM34.3998 52.4615H29.5998V30.0615H34.3998V52.4615ZM48.9998 52.4615H44.1998V35.8615H48.9998V52.4615Z" fill="#2D373D"/>
<path d="M53.9998 8.26172H45.1998C43.9998 8.26172 43.1998 9.06172 43.1998 10.2617C43.1998 11.4617 43.9998 12.2617 45.1998 12.2617H49.1998L42.5998 18.8617C41.9998 19.4617 41.1998 19.6617 40.1998 19.4617L28.9998 16.4617C26.7998 15.8617 24.3998 16.4617 22.7998 18.0617L11.3998 29.4617C10.5998 30.2617 10.5998 31.4617 11.3998 32.2617C11.7998 32.6617 12.1998 32.8617 12.7998 32.8617C13.1998 32.8617 13.7998 32.6617 14.1998 32.2617L25.5998 20.8617C26.1998 20.2617 27.1998 20.0617 27.9998 20.2617L38.9998 23.2617C41.1998 23.8617 43.7998 23.2617 45.3998 21.6617L51.9998 15.0617V19.0617C51.9998 20.2617 52.7998 21.0617 53.9998 21.0617C55.1998 21.0617 55.9998 20.2617 55.9998 19.0617V10.2617C55.9998 9.06172 55.1998 8.26172 53.9998 8.26172Z" fill="#2D373D"/>
</svg>
