<svg width="24" height="25" viewBox="0 0 24 25" fill="none" xmlns="http://www.w3.org/2000/svg">
<path d="M14.3496 10.0278C14.3496 9.61357 14.0138 9.27779 13.5996 9.27779C13.1854 9.27779 12.8496 9.61357 12.8496 10.0278V12.0445C12.8496 12.4587 13.1854 12.7945 13.5996 12.7945C14.0138 12.7945 14.3496 12.4587 14.3496 12.0445V10.0278Z" fill="#2D373D"/>
<path d="M17.999 9.27779C18.4132 9.27779 18.749 9.61357 18.749 10.0278V12.0445C18.749 12.4587 18.4132 12.7945 17.999 12.7945C17.5848 12.7945 17.249 12.4587 17.249 12.0445V10.0278C17.249 9.61357 17.5848 9.27779 17.999 9.27779Z" fill="#2D373D"/>
<path d="M16.5498 8.37781C16.5498 7.96359 16.214 7.62781 15.7998 7.62781C15.3856 7.62781 15.0498 7.96359 15.0498 8.37781V12.0445C15.0498 12.4587 15.3856 12.7945 15.7998 12.7945C16.214 12.7945 16.5498 12.4587 16.5498 12.0445V8.37781Z" fill="#2D373D"/>
<path fill-rule="evenodd" clip-rule="evenodd" d="M2.94922 15.1611C2.94922 16.7904 4.26998 18.1111 5.89922 18.1111H9.41368L9.11368 19.9111H8.09863C7.68442 19.9111 7.34863 20.2469 7.34863 20.6611C7.34863 21.0753 7.68442 21.4111 8.09863 21.4111H15.7986C16.2128 21.4111 16.5486 21.0753 16.5486 20.6611C16.5486 20.2469 16.2128 19.9111 15.7986 19.9111H14.7844L14.4844 18.1111H17.9992C19.6285 18.1111 20.9492 16.7904 20.9492 15.1611V6.36113C20.9492 4.73189 19.6285 3.41113 17.9992 3.41113H5.89922C4.26998 3.41113 2.94922 4.73189 2.94922 6.36113V15.1611ZM5.89922 4.91113C5.09841 4.91113 4.44922 5.56032 4.44922 6.36113V9.6838L6.10222 8.0308C6.34597 7.78735 6.67672 7.65028 7.02122 7.65028C7.36572 7.65028 7.69613 7.78702 7.93989 8.03047L7.94842 8.039L9.20147 9.33155L11.9909 6.54213C12.2838 6.24924 12.7587 6.24924 13.0515 6.54213C13.3444 6.83503 13.3444 7.3099 13.0515 7.60279L10.1182 10.5361C9.87446 10.7796 9.54372 10.9166 9.19922 10.9166C8.85472 10.9166 8.5243 10.7799 8.28055 10.5365L8.27202 10.5279L7.01896 9.23538L4.44922 11.8051V13.6778H19.4492V6.36113C19.4492 5.56032 18.8 4.91113 17.9992 4.91113H5.89922ZM17.9992 16.6111C18.7945 16.6111 19.4402 15.9709 19.4491 15.1778H4.44931C4.45824 15.9709 5.10397 16.6111 5.89922 16.6111H10.2966L10.299 16.6111H13.599L13.6014 16.6111H17.9992ZM10.6344 19.9111L10.9344 18.1111H12.9637L13.2637 19.9111H10.6344Z" fill="#2D373D"/>
</svg>
