<svg width="16" height="17" viewBox="0 0 16 17" fill="none" xmlns="http://www.w3.org/2000/svg">
<path d="M7.99967 9.28174H2.43301C1.82634 9.28174 1.33301 9.7684 1.33301 10.3551V14.5217C1.33301 15.1084 1.82634 15.5884 2.43301 15.5884H7.99967C8.60634 15.5884 9.09967 15.1084 9.09967 14.5217V10.3551C9.09967 9.7684 8.60634 9.28174 7.99967 9.28174ZM8.09967 14.5217C8.09967 14.5217 8.05967 14.5884 7.99967 14.5884H2.43301C2.37301 14.5884 2.33301 14.5551 2.33301 14.5217V10.3551C2.33301 10.3551 2.37301 10.2817 2.43301 10.2817H7.99967C8.05967 10.2817 8.09967 10.3217 8.09967 10.3551V14.5217Z" fill="#2D373D"/>
<path d="M6.36634 13.0492C6.31967 13.2359 6.20634 13.3959 6.04634 13.5092C5.92634 13.5959 5.77301 13.6492 5.62634 13.6625C5.59301 13.8159 5.45967 13.9225 5.29967 13.9225C5.13967 13.9225 5.01301 13.8225 4.97967 13.6759H4.69967C4.51301 13.6759 4.36634 13.5225 4.36634 13.3425C4.36634 13.1625 4.51301 13.0092 4.69967 13.0092H5.51301C5.56634 13.0092 5.62634 12.9892 5.66634 12.9625C5.69301 12.9425 5.71301 12.9225 5.71301 12.9025C5.68634 12.8292 5.65301 12.8092 5.60634 12.7959L4.77967 12.5159C4.59301 12.4559 4.43967 12.3359 4.33301 12.1825C4.22634 12.0159 4.19301 11.8159 4.23301 11.6292C4.27967 11.4425 4.39301 11.2759 4.55967 11.1692C4.67967 11.0825 4.81967 11.0359 4.97301 11.0225C5.00634 10.8692 5.13301 10.7559 5.29967 10.7559C5.46634 10.7559 5.58634 10.8625 5.61967 11.0092H5.89967C6.08634 11.0092 6.23301 11.1559 6.23301 11.3425C6.23301 11.5292 6.08634 11.6759 5.89967 11.6759H5.08634C5.02634 11.6759 4.97301 11.6892 4.93301 11.7159C4.90634 11.7359 4.88634 11.7559 4.88634 11.7759C4.91301 11.8492 4.94634 11.8692 4.99301 11.8825L5.81967 12.1625C6.00634 12.2225 6.15967 12.3425 6.25968 12.4959C6.37301 12.6625 6.40634 12.8625 6.36634 13.0492Z" fill="#2D373D"/>
<path d="M10.833 2.25586C8.71966 2.25586 6.99966 3.97586 6.99966 6.08919C6.99966 8.20253 8.71966 9.92253 10.833 9.92253C12.9463 9.92253 14.6663 8.20253 14.6663 6.08919C14.6663 3.97586 12.9463 2.25586 10.833 2.25586ZM10.833 3.25586C12.033 3.25586 13.0663 4.00919 13.473 5.06919H8.193C8.59966 4.00919 9.633 3.25586 10.833 3.25586ZM12.4797 6.00919C12.4797 6.24919 12.2863 6.44253 12.0463 6.44253C11.8063 6.44253 11.613 6.24919 11.613 6.00919C11.613 5.76919 11.8063 5.58253 12.0463 5.58253C12.2863 5.58253 12.4797 5.77586 12.4797 6.00919ZM9.79966 6.00919C9.79966 6.24919 9.60633 6.44253 9.36633 6.44253C9.12633 6.44253 8.933 6.24919 8.933 6.00919C8.933 5.76919 9.133 5.58253 9.36633 5.58253C9.59966 5.58253 9.79966 5.77586 9.79966 6.00919ZM10.833 8.92253C9.633 8.92253 8.59966 8.16919 8.193 7.10919H13.473C13.0663 8.16919 12.033 8.92253 10.833 8.92253Z" fill="#2D373D"/>
<path d="M11.3064 4.79546C11.1597 4.79546 11.0197 4.69546 10.9797 4.54212C10.933 4.36212 11.0464 4.18212 11.2197 4.13546L12.2197 3.88212C12.393 3.83546 12.5797 3.94879 12.6264 4.12212C12.673 4.30212 12.5597 4.48212 12.3864 4.52879L11.3864 4.78212C11.3864 4.78212 11.333 4.79546 11.3064 4.79546Z" fill="#2D373D"/>
<path d="M10.2397 4.81611C10.2397 4.81611 10.1797 4.81611 10.1463 4.80277L9.15301 4.51611C8.97301 4.46277 8.87301 4.28277 8.92634 4.10277C8.97968 3.92944 9.15968 3.82277 9.33968 3.87611L10.333 4.16277C10.513 4.21611 10.613 4.39611 10.5597 4.57611C10.5197 4.72277 10.3863 4.81611 10.2397 4.81611Z" fill="#2D373D"/>
<path d="M10.2063 8.74889C10.153 8.74889 10.093 8.73556 10.0396 8.70889C9.87965 8.61556 9.81965 8.41556 9.91298 8.25556C10.2863 7.59556 11.1796 7.02889 12.573 7.41556C12.753 7.46223 12.853 7.64889 12.8063 7.82889C12.7596 8.00889 12.573 8.11556 12.393 8.06223C11.113 7.70889 10.613 8.37556 10.493 8.58889C10.433 8.69556 10.3196 8.75556 10.1996 8.75556L10.2063 8.74889Z" fill="#2D373D"/>
</svg>
