<svg width="64" height="65" viewBox="0 0 64 65" fill="none" xmlns="http://www.w3.org/2000/svg">
<path d="M51.1998 32.1245C49.9998 32.1245 49.1998 32.9245 49.1998 34.1245V51.9245C49.1998 52.5245 48.7998 52.9245 48.1998 52.9245H46.9998V41.7245C46.9998 39.5245 45.9998 37.5245 44.5998 36.1245C43.1998 34.7245 41.1998 33.9245 38.9998 33.9245C34.7998 34.1245 31.5998 37.5245 31.3998 41.7245V52.9245H15.7998C15.1998 52.9245 14.7998 52.5245 14.7998 51.9245V34.1245C14.7998 32.9245 13.9998 32.1245 12.7998 32.1245C11.5998 32.1245 10.7998 32.9245 10.7998 34.1245V51.9245C10.7998 54.7245 12.9998 56.9245 15.7998 56.9245H48.1998C50.7998 56.9245 53.1998 54.7245 53.1998 51.9245V34.1245C53.1998 32.9245 52.3998 32.1245 51.1998 32.1245ZM35.3998 52.9245V41.7245C35.3998 39.7245 37.1998 37.9245 39.1998 37.9245C40.3998 37.7245 41.1998 38.1245 41.9998 38.9245C42.7998 39.7245 43.1998 40.7245 43.1998 41.7245V52.9245H35.3998Z" fill="#2D373D"/>
<path d="M53.3998 11.5246C52.9998 9.92461 51.5998 8.72461 49.9998 8.72461H13.9998C12.1998 8.72461 10.7998 9.92461 10.3998 11.3246L7.7998 23.5246C7.7998 23.7246 7.7998 23.7246 7.7998 23.9246C7.7998 27.5246 10.5998 30.5246 14.1998 30.5246C15.9998 30.5246 17.5998 29.7246 18.5998 28.7246C19.7998 29.7246 21.3998 30.5246 22.9998 30.5246C24.7998 30.5246 26.3998 29.7246 27.5998 28.7246C28.5998 29.7246 30.3998 30.5246 31.9998 30.5246C33.5998 30.5246 35.1998 29.7246 36.3998 28.7246C37.5998 29.9246 38.9998 30.5246 40.7998 30.5246C42.3998 30.5246 43.9998 29.7246 45.1998 28.7246C46.3998 29.9246 47.7998 30.5246 49.5998 30.5246C53.1998 30.5246 55.9998 27.5246 56.1998 24.1246C56.1998 23.9246 56.1998 23.9246 56.1998 23.7246L53.3998 11.5246ZM49.5998 26.3246C48.1998 26.3246 47.1998 25.3246 47.1998 23.9246C47.1998 22.7246 46.3998 21.9246 45.1998 21.9246C44.1998 21.9246 43.1998 22.9246 42.9998 23.9246C42.9998 25.3246 41.9998 26.3246 40.5998 26.3246C39.1998 26.3246 38.1998 25.3246 38.1998 23.9246C38.1998 22.7246 37.3998 21.9246 36.1998 21.9246C34.9998 21.9246 34.1998 22.7246 34.1998 23.9246C34.1998 25.3246 33.1998 26.3246 31.7998 26.3246C30.3998 26.3246 29.3998 25.3246 29.3998 23.9246C29.3998 22.7246 28.5998 21.9246 27.3998 21.9246C26.1998 21.9246 25.3998 22.7246 25.3998 23.9246C25.3998 25.3246 24.3998 26.3246 22.9998 26.3246C21.5998 26.3246 20.5998 25.3246 20.5998 23.9246C20.5998 22.7246 19.7998 21.9246 18.5998 21.9246C17.3998 21.9246 16.5998 22.7246 16.5998 23.9246C16.5998 25.3246 15.5998 26.3246 14.1998 26.3246C12.9998 26.3246 11.7998 25.3246 11.7998 24.1246L14.3998 12.7246H49.5998L51.9998 24.1246C51.9998 25.3246 50.7998 26.3246 49.5998 26.3246Z" fill="#2D373D"/>
<path d="M26.8004 45.3246C28.0004 45.3246 28.8004 44.5246 29.0004 43.3246V35.7246C29.0004 34.5246 28.2004 33.7246 27.0004 33.7246H19.4004C18.2004 33.7246 17.4004 34.5246 17.4004 35.7246V43.3246C17.4004 44.5246 18.2004 45.3246 19.4004 45.3246H26.8004ZM21.4004 37.7246H25.0004V41.3246H21.4004V37.7246Z" fill="#2D373D"/>
</svg>
