<svg width="64" height="65" viewBox="0 0 64 65" fill="none" xmlns="http://www.w3.org/2000/svg">
<path fill-rule="evenodd" clip-rule="evenodd" d="M34.0006 7.79492C34.0006 6.69035 33.1052 5.79492 32.0006 5.79492C30.8961 5.79492 30.0006 6.69035 30.0006 7.79492V9.1978C23.6986 9.63752 17.708 12.1574 13.1591 16.6135C8.15373 21.5168 5.33398 28.1759 5.33398 35.1283C5.33398 35.9007 5.77878 36.6041 6.47663 36.9352C7.17448 37.2663 8.00062 37.166 8.59893 36.6774L10.3769 35.2257C11.2263 34.5323 12.2106 34.0102 13.273 33.6917C14.3354 33.3731 15.453 33.2653 16.5596 33.3748C17.6662 33.4844 18.7379 33.809 19.7117 34.3282C20.6854 34.8473 21.5408 35.55 22.2293 36.3932C22.5847 36.8285 23.107 37.0942 23.6681 37.1252C24.2293 37.1562 24.7776 36.9496 25.1789 36.5561C26.0706 35.6815 27.1318 34.9855 28.3028 34.51C28.8524 34.2868 29.4208 34.1143 30.0006 33.9941V53.7862C30.0006 55.2007 30.5626 56.5573 31.5627 57.5575C32.5629 58.5577 33.9195 59.1196 35.334 59.1196C36.7485 59.1196 38.105 58.5577 39.1052 57.5575C40.1054 56.5573 40.6673 55.2007 40.6673 53.7862C40.6673 52.6817 39.7719 51.7862 38.6673 51.7862C37.5627 51.7862 36.6673 52.6817 36.6673 53.7862C36.6673 54.1399 36.5268 54.479 36.2768 54.7291C36.0267 54.9791 35.6876 55.1196 35.334 55.1196C34.9804 55.1196 34.6412 54.9791 34.3912 54.7291C34.1411 54.479 34.0006 54.1399 34.0006 53.7862V33.9941C34.5805 34.1143 35.1489 34.2868 35.6985 34.51C36.8695 34.9855 37.9307 35.6815 38.8224 36.5561C39.2237 36.9496 39.772 37.1562 40.3332 37.1252C40.8943 37.0942 41.4166 36.8285 41.772 36.3932C42.4605 35.55 43.3159 34.8473 44.2896 34.3282C45.2635 33.809 46.3351 33.4844 47.4417 33.3748C48.5483 33.2653 49.6659 33.3731 50.7283 33.6917C51.7907 34.0102 52.775 34.5323 53.6244 35.2257L55.4024 36.6774C56.0007 37.166 56.8268 37.2663 57.5247 36.9352C58.2225 36.6041 58.6673 35.9007 58.6673 35.1283C58.6673 28.1759 55.8476 21.5168 50.8422 16.6135C46.2933 12.1574 40.3027 9.63752 34.0006 9.1978V7.79492ZM32.0006 13.1283C31.6626 13.1283 30.8496 13.4414 29.7257 14.9488C28.6791 16.3523 27.6729 18.394 26.8683 20.7698C25.6487 24.3709 25.0148 28.3594 25.2065 31.5729C25.7184 31.2834 26.2499 31.0264 26.7977 30.8039C28.4483 30.1336 30.2162 29.7891 32.0006 29.7891C33.7851 29.7891 35.553 30.1336 37.2036 30.8039C37.7514 31.0264 38.2829 31.2834 38.7948 31.5729C38.9865 28.3594 38.3525 24.3709 37.133 20.7698C36.3284 18.394 35.3221 16.3523 34.2756 14.9488C33.1517 13.4414 32.3386 13.1283 32.0006 13.1283ZM25.5606 13.9921C21.9507 14.9903 18.6441 16.8399 15.9582 19.471C12.7609 22.6031 10.6229 26.5704 9.76167 30.8429C10.5109 30.4362 11.3026 30.1065 12.1243 29.8601C13.6872 29.3916 15.3288 29.2334 16.9537 29.3943C18.4218 29.5396 19.8511 29.943 21.1736 30.5848C21.1466 26.9354 21.9158 22.9233 23.0797 19.4867C23.7543 17.4945 24.5933 15.598 25.5606 13.9921ZM42.8276 30.5848C42.8546 26.9354 42.0855 22.9233 40.9216 19.4867C40.2469 17.4945 39.408 15.598 38.4406 13.9921C42.0506 14.9903 45.3572 16.8399 48.0431 19.471C51.2404 22.6031 53.3784 26.5704 54.2396 30.843C53.4904 30.4362 52.6987 30.1065 51.877 29.8601C50.3141 29.3916 48.6725 29.2334 47.0476 29.3943C45.5795 29.5396 44.1501 29.943 42.8276 30.5848Z" fill="#2D373D"/>
</svg>
