<svg width="16" height="17" viewBox="0 0 16 17" fill="none" xmlns="http://www.w3.org/2000/svg">
<path fill-rule="evenodd" clip-rule="evenodd" d="M8 1.96191C4.41015 1.96191 1.5 4.87206 1.5 8.46191C1.5 12.0518 4.41015 14.9619 8 14.9619C11.5899 14.9619 14.5 12.0518 14.5 8.46191C14.5 4.87206 11.5899 1.96191 8 1.96191ZM2.5 8.46191C2.5 5.42435 4.96243 2.96191 8 2.96191C9.33871 2.96191 10.5657 3.4402 11.5195 4.23522L3.77289 11.9809C2.97812 11.0272 2.5 9.8004 2.5 8.46191ZM4.4799 12.6881C5.43373 13.4834 6.66098 13.9619 8 13.9619C11.0376 13.9619 13.5 11.4995 13.5 8.46191C13.5 7.12313 13.0217 5.89607 12.2266 4.94231L4.4799 12.6881Z" fill="#2D373D"/>
</svg>
