<svg width="16" height="17" viewBox="0 0 16 17" fill="none" xmlns="http://www.w3.org/2000/svg">
<path fill-rule="evenodd" clip-rule="evenodd" d="M3.3 5.96191C3.13431 5.96191 3 6.09623 3 6.26191V13.1619C3 13.3276 3.13431 13.4619 3.3 13.4619H10.2C10.3657 13.4619 10.5 13.3276 10.5 13.1619V9.96191C10.5 9.68577 10.7239 9.46191 11 9.46191C11.2761 9.46191 11.5 9.68577 11.5 9.96191V13.1619C11.5 13.8799 10.918 14.4619 10.2 14.4619H3.3C2.58203 14.4619 2 13.8799 2 13.1619V6.26191C2 5.54394 2.58203 4.96191 3.3 4.96191H6.5C6.77614 4.96191 7 5.18577 7 5.46191C7 5.73806 6.77614 5.96191 6.5 5.96191H3.3Z" fill="#2D373D"/>
<path d="M13.9621 2.77052C13.9378 2.71198 13.902 2.65711 13.8546 2.60942L13.8536 2.60836L13.8525 2.6073C13.7621 2.51744 13.6375 2.46191 13.5 2.46191H10.8333C10.5572 2.46191 10.3333 2.68577 10.3333 2.96191C10.3333 3.23806 10.5572 3.46191 10.8333 3.46191H12.2929L6.97978 8.77503C6.78452 8.97029 6.78452 9.28687 6.97978 9.48213C7.17504 9.6774 7.49162 9.6774 7.68689 9.48213L13 4.16902V5.62858C13 5.90472 13.2239 6.12858 13.5 6.12858C13.7761 6.12858 14 5.90472 14 5.62858V2.96191C14 2.89412 13.9865 2.82948 13.9621 2.77052Z" fill="#2D373D"/>
</svg>
