<svg width="24" height="25" viewBox="0 0 24 25" fill="none" xmlns="http://www.w3.org/2000/svg">
<path d="M16.3801 13.4433C15.4057 13.4433 14.4697 13.8226 13.7701 14.5008C13.6742 14.6059 13.5841 14.716 13.5001 14.8308L9.33759 12.7908C9.42017 12.4951 9.46552 12.1902 9.47259 11.8833C9.46785 11.6895 9.44779 11.4964 9.41259 11.3058L13.2901 9.80579C13.4287 10.0197 13.5896 10.2183 13.7701 10.3983C14.4711 11.0854 15.4135 11.4703 16.3951 11.4703C17.3767 11.4703 18.3191 11.0854 19.0201 10.3983C19.3646 10.0635 19.6384 9.66297 19.8254 9.22047C20.0124 8.77796 20.1088 8.30244 20.1088 7.82204C20.1088 7.34164 20.0124 6.86613 19.8254 6.42362C19.6384 5.98111 19.3646 5.58061 19.0201 5.24579C18.3191 4.55869 17.3767 4.17383 16.3951 4.17383C15.4135 4.17383 14.4711 4.55869 13.7701 5.24579C13.4274 5.58268 13.1548 5.98414 12.9682 6.42697C12.7815 6.8698 12.6844 7.34523 12.6826 7.82579C12.6873 8.01957 12.7074 8.21268 12.7426 8.40329L8.86509 9.90329C8.72647 9.68939 8.56557 9.49078 8.38509 9.31079C7.68411 8.62369 6.74166 8.23883 5.76009 8.23883C4.77852 8.23883 3.83607 8.62369 3.13509 9.31079C2.79059 9.64561 2.51674 10.0461 2.32974 10.4886C2.14274 10.9311 2.04639 11.4066 2.04639 11.887C2.04639 12.3674 2.14274 12.843 2.32974 13.2855C2.51674 13.728 2.79059 14.1285 3.13509 14.4633C3.83607 15.1504 4.77852 15.5353 5.76009 15.5353C6.74166 15.5353 7.68411 15.1504 8.38509 14.4633C8.48259 14.3583 8.56509 14.2383 8.65509 14.1333L12.8026 16.1658C12.7206 16.4616 12.6753 16.7664 12.6676 17.0733C12.6694 17.5539 12.7665 18.0293 12.9532 18.4721C13.1398 18.9149 13.4124 19.3164 13.7551 19.6533C14.4561 20.3404 15.3985 20.7253 16.3801 20.7253C17.3617 20.7253 18.3041 20.3404 19.0051 19.6533C19.3496 19.3185 19.6234 18.918 19.8104 18.4755C19.9974 18.033 20.0938 17.5574 20.0938 17.077C20.0938 16.5966 19.9974 16.1211 19.8104 15.6786C19.6234 15.2361 19.3496 14.8356 19.0051 14.5008C18.3018 13.819 17.3596 13.4394 16.3801 13.4433ZM14.8201 6.34079C15.2393 5.93747 15.7984 5.71218 16.3801 5.71218C16.9618 5.71218 17.5209 5.93747 17.9401 6.34079C18.1406 6.53579 18.2999 6.769 18.4088 7.02664C18.5176 7.28428 18.5736 7.56112 18.5736 7.84079C18.5736 8.12047 18.5176 8.39731 18.4088 8.65494C18.2999 8.91258 18.1406 9.14579 17.9401 9.34079C17.5126 9.72763 16.9566 9.94184 16.3801 9.94184C15.8036 9.94184 15.2476 9.72763 14.8201 9.34079C14.6196 9.14579 14.4602 8.91258 14.3514 8.65494C14.2426 8.39731 14.1865 8.12047 14.1865 7.84079C14.1865 7.56112 14.2426 7.28428 14.3514 7.02664C14.4602 6.769 14.6196 6.53579 14.8201 6.34079V6.34079ZM4.21509 13.3908C4.01389 13.1961 3.8538 12.9631 3.7443 12.7054C3.63479 12.4478 3.57811 12.1707 3.57759 11.8908C3.57638 11.6106 3.63228 11.333 3.74189 11.0752C3.8515 10.8173 4.01251 10.5844 4.21509 10.3908C4.63428 9.98747 5.19338 9.76218 5.77509 9.76218C6.3568 9.76218 6.9159 9.98747 7.33509 10.3908C7.53768 10.5844 7.69869 10.8173 7.80829 11.0752C7.9179 11.333 7.9738 11.6106 7.97259 11.8908C7.97208 12.1707 7.91539 12.4478 7.80589 12.7054C7.69638 12.9631 7.53629 13.1961 7.33509 13.3908C6.9076 13.7776 6.35163 13.9918 5.77509 13.9918C5.19856 13.9918 4.64258 13.7776 4.21509 13.3908V13.3908ZM17.9401 18.5808C17.5142 18.9708 16.9576 19.1871 16.3801 19.1871C15.8026 19.1871 15.246 18.9708 14.8201 18.5808C14.6196 18.3858 14.4602 18.1526 14.3514 17.8949C14.2426 17.6373 14.1865 17.3605 14.1865 17.0808C14.1865 16.8011 14.2426 16.5243 14.3514 16.2666C14.4602 16.009 14.6196 15.7758 14.8201 15.5808C15.2393 15.1775 15.7984 14.9522 16.3801 14.9522C16.9618 14.9522 17.5209 15.1775 17.9401 15.5808C18.1406 15.7758 18.2999 16.009 18.4088 16.2666C18.5176 16.5243 18.5736 16.8011 18.5736 17.0808C18.5736 17.3605 18.5176 17.6373 18.4088 17.8949C18.2999 18.1526 18.1406 18.3858 17.9401 18.5808Z" fill="#2D373D"/>
</svg>
