<svg width="64" height="64" viewBox="0 0 64 64" fill="none" xmlns="http://www.w3.org/2000/svg">
<path d="M13.0699 39.7361C11.5403 39.7361 10.045 39.2825 8.77316 38.4327C7.50131 37.5828 6.51002 36.375 5.92466 34.9617C5.33929 33.5485 5.18613 31.9935 5.48455 30.4932C5.78297 28.993 6.51956 27.6149 7.60118 26.5333C8.6828 25.4517 10.0609 24.7151 11.5611 24.4167C13.0614 24.1183 14.6164 24.2714 16.0296 24.8568C17.4428 25.4422 18.6507 26.4334 19.5005 27.7053C20.3504 28.9771 20.8039 30.4724 20.8039 32.0021C20.8029 34.0529 19.9877 36.0195 18.5375 37.4697C17.0874 38.9198 15.1208 39.735 13.0699 39.7361ZM13.0699 28.2701C12.5724 28.2586 12.0777 28.3466 11.6147 28.529C11.1517 28.7114 10.7298 28.9846 10.3739 29.3324C10.018 29.6801 9.73518 30.0956 9.54209 30.5542C9.349 31.0128 9.24953 31.5054 9.24953 32.0031C9.24953 32.5007 9.349 32.9933 9.54209 33.4519C9.73518 33.9106 10.018 34.326 10.3739 34.6738C10.7298 35.0216 11.1517 35.2947 11.6147 35.4771C12.0777 35.6595 12.5724 35.7476 13.0699 35.7361C13.5674 35.7476 14.0622 35.6595 14.5252 35.4771C14.9882 35.2947 15.41 35.0216 15.766 34.6738C16.1219 34.326 16.4047 33.9106 16.5978 33.4519C16.7909 32.9933 16.8904 32.5007 16.8904 32.0031C16.8904 31.5054 16.7909 31.0128 16.5978 30.5542C16.4047 30.0956 16.1219 29.6801 15.766 29.3324C15.41 28.9846 14.9882 28.7114 14.5252 28.529C14.0622 28.3466 13.5674 28.2586 13.0699 28.2701Z" fill="#2D373D"/>
<path d="M50.9362 39.7361C49.4065 39.7361 47.9112 39.2825 46.6394 38.4327C45.3675 37.5828 44.3762 36.375 43.7909 34.9617C43.2055 33.5485 43.0523 31.9935 43.3508 30.4932C43.6492 28.993 44.3858 27.6149 45.4674 26.5333C46.549 25.4517 47.9271 24.7151 49.4273 24.4167C50.9276 24.1183 52.4826 24.2714 53.8958 24.8568C55.309 25.4422 56.5169 26.4334 57.3667 27.7053C58.2166 28.9771 58.6702 30.4724 58.6702 32.0021C58.6691 34.0529 57.8539 36.0195 56.4037 37.4697C54.9536 38.9198 52.987 39.735 50.9362 39.7361ZM50.9362 28.2701C50.1976 28.2701 49.4757 28.4891 48.8617 28.8994C48.2476 29.3097 47.769 29.8928 47.4864 30.5751C47.2038 31.2574 47.1298 32.0082 47.2739 32.7325C47.418 33.4569 47.7736 34.1222 48.2958 34.6444C48.818 35.1666 49.4834 35.5222 50.2077 35.6663C50.932 35.8104 51.6828 35.7365 52.3651 35.4538C53.0474 35.1712 53.6306 34.6926 54.0409 34.0786C54.4512 33.4645 54.6702 32.7426 54.6702 32.0041C54.6822 31.5104 54.5939 31.0195 54.4105 30.561C54.2271 30.1025 53.9525 29.686 53.6034 29.3369C53.2542 28.9877 52.8377 28.7131 52.3792 28.5297C51.9208 28.3463 51.4298 28.258 50.9362 28.2701Z" fill="#2D373D"/>
<path d="M32.004 39.7361C30.4744 39.7361 28.9791 39.2825 27.7072 38.4327C26.4354 37.5828 25.4441 36.375 24.8587 34.9617C24.2734 33.5485 24.1202 31.9935 24.4186 30.4932C24.717 28.993 25.4536 27.6149 26.5353 26.5333C27.6169 25.4517 28.9949 24.7151 30.4952 24.4167C31.9954 24.1183 33.5505 24.2714 34.9637 24.8568C36.3769 25.4422 37.5848 26.4334 38.4346 27.7053C39.2844 28.9771 39.738 30.4724 39.738 32.0021C39.737 34.0529 38.9218 36.0195 37.4716 37.4697C36.0214 38.9198 34.0549 39.735 32.004 39.7361ZM32.004 28.2701C31.2655 28.2701 30.5436 28.4891 29.9295 28.8994C29.3155 29.3097 28.8369 29.8928 28.5543 30.5751C28.2716 31.2574 28.1977 32.0082 28.3418 32.7325C28.4858 33.4569 28.8415 34.1222 29.3637 34.6444C29.8859 35.1666 30.5512 35.5222 31.2756 35.6663C31.9999 35.8104 32.7507 35.7365 33.433 35.4538C34.1153 35.1712 34.6984 34.6926 35.1087 34.0786C35.519 33.4645 35.738 32.7426 35.738 32.0041C35.7501 31.5104 35.6618 31.0195 35.4784 30.561C35.295 30.1025 35.0204 29.686 34.6712 29.3369C34.3221 28.9877 33.9056 28.7131 33.4471 28.5297C32.9886 28.3463 32.4977 28.258 32.004 28.2701Z" fill="#2D373D"/>
</svg>
