<svg width="32" height="33" viewBox="0 0 32 33" fill="none" xmlns="http://www.w3.org/2000/svg">
<path fill-rule="evenodd" clip-rule="evenodd" d="M16.0003 28.2526C19.7794 28.2526 23.3337 24.681 23.3337 20.68C23.3337 19.7262 23.0462 18.2596 22.4722 16.4936C21.9102 14.7646 21.1193 12.8874 20.2209 11.1586C19.3163 9.41789 18.3413 7.90224 17.4347 6.85406C16.9804 6.32887 16.5903 5.97611 16.2838 5.76833C16.1314 5.66496 16.0312 5.61857 15.9792 5.59838C15.9275 5.61855 15.8284 5.6647 15.6777 5.76711C15.3729 5.97426 14.9846 6.32634 14.5324 6.85118C13.6298 7.89869 12.66 9.41379 11.7605 11.1545C10.8673 12.8831 10.0814 14.7605 9.52301 16.4899C8.95282 18.2558 8.66699 19.724 8.66699 20.68C8.66699 24.681 12.2212 28.2526 16.0003 28.2526ZM16.0003 30.2526C20.9314 30.2526 25.3337 25.7375 25.3337 20.68C25.3337 15.6224 19.5504 3.58594 15.979 3.58594C12.4075 3.58594 6.66699 15.6224 6.66699 20.68C6.66699 25.7375 11.0692 30.2526 16.0003 30.2526Z" fill="#2D373D"/>
<path fill-rule="evenodd" clip-rule="evenodd" d="M11.1055 20.5904C11.6553 20.5381 12.1434 20.9413 12.1958 21.4911C12.2697 22.2669 12.6856 23.1485 13.338 23.837C13.9896 24.5246 14.7776 24.9193 15.5337 24.9193C16.0859 24.9193 16.5337 25.367 16.5337 25.9193C16.5337 26.4716 16.0859 26.9193 15.5337 26.9193C14.0805 26.9193 12.7999 26.1768 11.8862 25.2126C10.9733 24.2492 10.3271 22.9641 10.2048 21.6808C10.1524 21.131 10.5557 20.6428 11.1055 20.5904Z" fill="#2D373D"/>
</svg>
