<svg width="64" height="65" viewBox="0 0 64 65" fill="none" xmlns="http://www.w3.org/2000/svg">
<path fill-rule="evenodd" clip-rule="evenodd" d="M41.1532 8.99644C43.8497 8.71416 46.5682 9.25905 48.9476 10.5587C49.5005 10.8607 49.8788 11.4057 49.9685 12.0293C50.0582 12.6529 49.8487 13.2824 49.4033 13.7279L43.4409 19.6921V21.4807H45.2294L51.1962 15.5156C51.6418 15.0705 52.2712 14.8613 52.8946 14.9511C53.5181 15.0409 54.0628 15.4192 54.3648 15.972C55.6644 18.3513 56.2093 21.0698 55.927 23.7663C55.6448 26.4628 54.5487 29.0095 52.7844 31.0681C51.0202 33.1267 48.6713 34.5998 46.0498 35.2916C43.8495 35.8722 41.5446 35.8794 39.3528 35.3226L19.7834 54.8996C18.489 56.194 16.733 56.9215 14.9024 56.9215C13.0718 56.9215 11.3161 56.1943 10.0217 54.8998C8.72722 53.6054 8 51.8497 8 50.0191C8 48.1885 8.72721 46.4328 10.0217 45.1384L29.5969 25.5707C29.0402 23.3789 29.0473 21.074 29.628 18.8736C30.3197 16.2522 31.7928 13.9033 33.8514 12.139C35.9101 10.3748 38.4568 9.27872 41.1532 8.99644ZM44.3711 13.1039C43.4543 12.9214 42.5101 12.8763 41.5697 12.9747C39.6807 13.1725 37.8965 13.9403 36.4543 15.1763C35.0122 16.4122 33.9802 18.0578 33.4956 19.8943C33.0109 21.7308 33.0966 23.6712 33.7411 25.4579C34.0042 26.1872 33.8221 27.0029 33.2737 27.5511L12.8501 47.9668C12.3058 48.5111 12 49.2493 12 50.0191C12 50.7889 12.3058 51.5271 12.8501 52.0714C13.3944 52.6157 14.1326 52.9215 14.9024 52.9215C15.6722 52.9215 16.4104 52.6157 16.9547 52.0714L37.3724 31.6458C37.9206 31.0974 38.7363 30.9153 39.4656 31.1784C41.2523 31.823 43.1927 31.9086 45.0292 31.424C46.8657 30.9394 48.5112 29.9074 49.7472 28.4652C50.9832 27.023 51.751 25.2389 51.9488 23.3498C52.0472 22.4095 52.0021 21.4653 51.8196 20.5484L47.4716 24.8951C47.0966 25.27 46.5879 25.4806 46.0576 25.4806H41.4409C40.3363 25.4806 39.4409 24.5852 39.4409 23.4807V18.8639C39.4409 18.3336 39.6515 17.8249 40.0264 17.4499L44.3711 13.1039Z" fill="#2D373D"/>
</svg>
