<svg width="32" height="33" viewBox="0 0 32 33" fill="none" xmlns="http://www.w3.org/2000/svg">
<path fill-rule="evenodd" clip-rule="evenodd" d="M17.0603 4.46094H6.49156C5.83075 4.46094 5.19702 4.72344 4.72976 5.1907C4.2625 5.65795 4 6.29169 4 6.95249V26.3427C4 27.0035 4.2625 27.6373 4.72976 28.1045C5.19702 28.5718 5.83076 28.8343 6.49156 28.8343H9.47467C10.027 28.8343 10.4747 28.3866 10.4747 27.8343C10.4747 27.282 10.027 26.8343 9.47467 26.8343H6.49156C6.36119 26.8343 6.23616 26.7825 6.14397 26.6903C6.05179 26.5981 6 26.4731 6 26.3427V6.95249C6 6.82212 6.05179 6.6971 6.14397 6.60491C6.23616 6.51273 6.36119 6.46094 6.49156 6.46094H15.9325V11.4272C15.9325 12.088 16.195 12.7217 16.6622 13.189C17.1295 13.6562 17.7632 13.9187 18.424 13.9187H23.3902V17.3934C23.3902 17.9457 23.8379 18.3934 24.3902 18.3934C24.9425 18.3934 25.3902 17.9457 25.3902 17.3934V12.9231L25.3902 12.9187L25.3902 12.9143V12.7902C25.3901 12.1299 25.1276 11.4964 24.6609 11.0294L18.8226 5.19013C18.5911 4.9588 18.3164 4.77534 18.014 4.65023C17.7117 4.52517 17.3874 4.46085 17.0603 4.46094ZM17.9325 7.12848L22.7219 11.9187H18.424C18.2936 11.9187 18.1686 11.8669 18.0764 11.7747C17.9842 11.6826 17.9325 11.5575 17.9325 11.4272V7.12848Z" fill="#2D373D"/>
<path d="M19.546 20.1054C19.368 19.6603 18.8991 19.4041 18.4284 19.4948C17.9577 19.5854 17.6175 19.9974 17.6175 20.4767V27.4684C17.6175 28.0207 18.0652 28.4684 18.6175 28.4684C19.1698 28.4684 19.6175 28.0207 19.6175 27.4684V25.6693L20.4857 27.8398C20.6637 28.2849 21.1326 28.541 21.6033 28.4504C22.074 28.3597 22.4142 27.9478 22.4142 27.4684V20.4767C22.4142 19.9245 21.9665 19.4767 21.4142 19.4767C20.8619 19.4767 20.4142 19.9245 20.4142 20.4767V22.2758L19.546 20.1054Z" fill="#2D373D"/>
<path fill-rule="evenodd" clip-rule="evenodd" d="M15.9136 24.7645C15.404 25.274 14.7352 25.5877 14.0242 25.6571V27.4684C14.0242 28.0207 13.5765 28.4684 13.0242 28.4684C12.4719 28.4684 12.0242 28.0207 12.0242 27.4684V20.4767C12.0242 19.9244 12.4719 19.4767 13.0242 19.4767H13.7233C14.5448 19.4767 15.3327 19.803 15.9136 20.3839C16.4945 20.9648 16.8208 21.7527 16.8208 22.5742C16.8208 23.3957 16.4945 24.1836 15.9136 24.7645ZM14.0242 21.5187V23.6297C14.2022 23.5789 14.3662 23.4835 14.4994 23.3503C14.7052 23.1444 14.8208 22.8653 14.8208 22.5742C14.8208 22.2831 14.7052 22.004 14.4994 21.7982C14.3662 21.6649 14.2022 21.5695 14.0242 21.5187Z" fill="#2D373D"/>
<path d="M25.6092 21.4768C25.5035 21.4768 25.4022 21.5188 25.3275 21.5935C25.2528 21.6682 25.2109 21.7695 25.2109 21.8751V26.0701C25.2109 26.1758 25.2528 26.2771 25.3275 26.3518C25.4022 26.4265 25.5035 26.4685 25.6092 26.4685C25.7148 26.4685 25.8162 26.4265 25.8909 26.3518C25.9656 26.2771 26.0075 26.1758 26.0075 26.0701V25.6258C25.6022 25.4981 25.3084 25.1193 25.3084 24.6718C25.3084 24.1195 25.7561 23.6718 26.3084 23.6718H27.0075C27.5598 23.6718 28.0075 24.1195 28.0075 24.6718V26.0701C28.0075 26.7062 27.7548 27.3162 27.3051 27.766C26.8553 28.2158 26.2453 28.4685 25.6092 28.4685C24.9731 28.4685 24.3631 28.2158 23.9133 27.766C23.4635 27.3162 23.2109 26.7062 23.2109 26.0701V21.8751C23.2109 21.2391 23.4635 20.629 23.9133 20.1793C24.3631 19.7295 24.9731 19.4768 25.6092 19.4768H27.0075C27.5598 19.4768 28.0075 19.9245 28.0075 20.4768C28.0075 21.0291 27.5598 21.4768 27.0075 21.4768H25.6092Z" fill="#2D373D"/>
</svg>
