<svg width="16" height="17" viewBox="0 0 16 17" fill="none" xmlns="http://www.w3.org/2000/svg">
<path d="M10.7055 5.633C10.588 5.633 10.473 5.623 10.3555 5.6005C9.87304 5.508 9.45804 5.233 9.18054 4.828C8.90554 4.423 8.80554 3.933 8.89804 3.453C8.99054 2.9705 9.26554 2.5555 9.67054 2.278C10.0755 2.003 10.5655 1.903 11.048 1.9955C12.043 2.188 12.6955 3.1505 12.5055 4.1455C12.413 4.6255 12.138 5.043 11.733 5.318C11.4255 5.5255 11.0705 5.6355 10.708 5.6355L10.7055 5.633ZM10.698 2.9605C10.533 2.9605 10.3705 3.0105 10.2305 3.1055C10.0455 3.2305 9.92054 3.4205 9.87804 3.6405C9.83554 3.8605 9.88054 4.083 10.0055 4.2655C10.1305 4.448 10.3205 4.5755 10.5405 4.618C10.7605 4.6605 10.983 4.6155 11.168 4.488C11.353 4.363 11.478 4.173 11.5205 3.953C11.608 3.5005 11.3105 3.0605 10.858 2.973C10.8055 2.963 10.7505 2.958 10.698 2.958V2.9605Z" fill="#2D373D"/>
<path d="M11.028 14.9605C10.863 14.9605 10.7005 14.9255 10.5455 14.8555C10.258 14.7255 10.0405 14.493 9.92804 14.198C9.10304 11.7955 7.05554 10.6505 7.03304 10.638C5.91304 9.95299 5.65054 9.14049 6.21054 8.13799L6.76054 7.16049C6.35054 7.28049 5.84304 7.51049 5.34554 7.95799C4.78054 8.44549 4.09054 8.293 3.72554 7.903C3.71804 7.8955 3.71304 7.888 3.70554 7.8805C3.27554 7.36549 3.34804 6.69299 3.88804 6.16549C3.95804 6.09299 5.84054 4.20549 8.58554 4.78549C8.85554 4.84299 9.02804 5.10799 8.97054 5.37799C8.91304 5.64799 8.64804 5.82049 8.37804 5.76299C6.18304 5.29799 4.65804 6.80799 4.59304 6.87299C4.37804 7.08299 4.42054 7.17049 4.46054 7.22299C4.49554 7.25549 4.57054 7.29799 4.68304 7.20299C6.10804 5.92049 7.65554 6.03299 7.72054 6.03799C7.89054 6.05299 8.04054 6.15049 8.12054 6.30299C8.20054 6.45549 8.19804 6.633 8.11554 6.783L7.08054 8.623C6.85554 9.023 6.75804 9.29299 7.53304 9.76799C7.61054 9.81049 9.92054 11.103 10.8655 13.853C10.883 13.898 10.928 13.9255 10.953 13.938C10.978 13.948 11.028 13.9655 11.088 13.943C11.1805 13.908 11.2255 13.8055 11.1905 13.713C11.1855 13.703 11.183 13.693 11.1805 13.683C10.358 11.0355 8.32804 9.75049 8.30554 9.73799C8.07804 9.59549 8.00054 9.29799 8.13304 9.06549L9.00054 7.5455C9.11554 7.34299 9.35804 7.24799 9.58304 7.3155C11.323 7.8505 13.003 6.57799 13.173 6.44549C13.408 6.21049 13.3455 6.13299 13.3105 6.09299C13.2505 6.02049 13.213 6.01799 13.2005 6.01799C13.143 6.01299 13.0605 6.05049 13.0055 6.10299C12.9905 6.11799 12.973 6.13299 12.953 6.14549C11.018 7.51299 9.87304 7.008 9.74804 6.9455C9.50054 6.823 9.40054 6.52299 9.52304 6.27549C9.64554 6.02799 9.94554 5.92799 10.193 6.05049C10.193 6.05049 10.9455 6.328 12.348 5.34549C12.6055 5.12049 12.943 5.00049 13.263 5.02049C13.578 5.04049 13.8605 5.19049 14.0755 5.45299C14.4105 5.85049 14.533 6.5155 13.853 7.178C13.843 7.188 13.833 7.19549 13.823 7.20299C13.7405 7.27299 11.863 8.8055 9.67804 8.37049L9.22304 9.16799C9.93554 9.7205 11.413 11.088 12.128 13.373C12.348 13.9755 12.0405 14.6455 11.4405 14.8755C11.3055 14.928 11.163 14.953 11.0205 14.953L11.028 14.9605Z" fill="#2D373D"/>
<path d="M2.90304 13.8805C2.63804 13.8805 2.37804 13.788 2.16804 13.613C1.93054 13.4155 1.78304 13.138 1.75554 12.8305C1.72554 12.523 1.81804 12.223 2.01554 11.9855C2.21304 11.748 2.49054 11.6005 2.79804 11.573L4.63804 11.3955L5.26054 10.2355C5.39054 9.993 5.69554 9.9005 5.93804 10.0305C6.18054 10.1605 6.27304 10.463 6.14304 10.708L5.39554 12.103C5.31554 12.2505 5.17054 12.348 5.00304 12.363L2.89554 12.568C2.83804 12.573 2.80304 12.6055 2.78804 12.623C2.77304 12.6405 2.74804 12.6805 2.75304 12.7355C2.75804 12.788 2.78554 12.823 2.80804 12.8405C2.82554 12.8555 2.86554 12.8805 2.92304 12.8755L5.28554 12.6755C5.28554 12.6755 5.29804 12.6705 5.31054 12.668C5.34054 12.6605 5.37054 12.6555 5.40304 12.653C5.43054 12.653 5.49554 12.6405 5.53304 12.573L6.32054 11.103C6.45054 10.8605 6.75304 10.768 6.99804 10.898C7.24054 11.028 7.33304 11.3305 7.20304 11.5755L6.41554 13.048C6.23304 13.388 5.90054 13.6105 5.51554 13.6505C5.47054 13.6605 5.42554 13.6705 5.37804 13.673L3.01554 13.873C2.98054 13.8755 2.94304 13.878 2.90804 13.878L2.90304 13.8805Z" fill="#2D373D"/>
<path d="M11.938 11.4055C11.7805 11.4055 11.6255 11.3305 11.528 11.193C11.3705 10.968 11.4255 10.6555 11.6505 10.4955L12.623 9.81299C12.8505 9.65299 13.1605 9.70799 13.3205 9.93549C13.478 10.1605 13.423 10.473 13.198 10.633L12.2255 11.3155C12.138 11.378 12.038 11.4055 11.938 11.4055Z" fill="#2D373D"/>
<path d="M11.198 10.473C11.0855 10.473 10.9705 10.4355 10.878 10.3555C10.6655 10.178 10.638 9.86299 10.8155 9.65049L11.578 8.74049C11.7555 8.52799 12.0705 8.50049 12.283 8.67799C12.4955 8.85549 12.523 9.17049 12.3455 9.38299L11.583 10.293C11.483 10.4105 11.343 10.4705 11.2005 10.4705L11.198 10.473Z" fill="#2D373D"/>
<path d="M12.5605 12.4205C12.3555 12.4205 12.1655 12.2955 12.0905 12.0905C11.9955 11.8305 12.1305 11.543 12.388 11.4505L13.503 11.043C13.763 10.948 14.0505 11.083 14.143 11.3405C14.238 11.6005 14.103 11.888 13.8455 11.9805L12.7305 12.388C12.673 12.408 12.6155 12.418 12.5605 12.418V12.4205Z" fill="#2D373D"/>
</svg>
