<svg width="16" height="17" viewBox="0 0 16 17" fill="none" xmlns="http://www.w3.org/2000/svg">
<path d="M7.9498 14.1107C6.7498 14.1107 5.6498 13.7607 4.6998 13.0607L5.0998 11.0107H5.4998C5.7998 11.0107 5.9998 10.8107 5.9998 10.5107C5.9998 10.2107 5.7998 10.0107 5.4998 10.0107H4.6998C4.4498 10.0107 4.2498 10.1607 4.1998 10.4107L3.7998 12.3107C3.7498 12.2607 3.6998 12.2107 3.6498 12.1607C3.5998 12.1107 3.5498 12.0607 3.4998 12.0107C3.4498 11.9107 3.3498 11.8107 3.2998 11.7107C3.2498 11.6607 3.1998 11.5607 3.1498 11.5107C3.0998 11.4107 3.0498 11.3107 2.9498 11.2107C2.9998 11.1107 2.9498 11.0607 2.8998 10.9607C2.8498 10.8607 2.7998 10.7607 2.7498 10.7107C2.6998 10.5607 2.6498 10.4607 2.5998 10.3107C2.5998 10.2607 2.5498 10.2107 2.5498 10.1607C2.2998 9.41074 2.2498 8.61074 2.3498 7.76074V7.71074H4.8998C5.0498 7.71074 5.1498 7.81074 5.1998 7.96074L5.4498 8.96074C5.4998 9.26074 5.7998 9.41074 6.0498 9.36074C6.2998 9.26074 6.4998 9.01074 6.4498 8.76074L6.1998 7.76074C6.0498 7.16074 5.4998 6.76074 4.8998 6.76074H2.5498C3.2498 4.46074 5.4498 2.76074 8.0498 2.76074C9.4498 2.76074 10.7998 3.31074 11.8998 4.26074H10.6998C10.0998 4.26074 9.5498 4.66074 9.3998 5.26074L9.2998 5.86074C9.1998 6.11074 9.3998 6.41074 9.6498 6.46074C9.6498 6.46074 9.6998 6.46074 9.7498 6.46074C9.9998 6.46074 10.1998 6.31074 10.2498 6.11074L10.3998 5.51074C10.3998 5.36074 10.5498 5.26074 10.6998 5.26074H12.7498C13.3498 6.21074 13.6998 7.31074 13.6998 8.46074H14.6998C14.6998 6.66074 13.9998 4.96074 12.7498 3.71074C11.4498 2.46074 9.7998 1.76074 7.9998 1.76074C4.2998 1.76074 1.2998 4.76074 1.2998 8.46074C1.2998 10.2607 1.9998 11.9107 3.2498 13.2107C4.5498 14.4607 6.1998 15.1607 7.9998 15.1607C8.2498 15.1607 8.4998 14.9107 8.4498 14.6107C8.4498 14.3107 8.2498 14.1107 7.9498 14.1107Z" fill="#2D373D"/>
<path d="M12.7997 12.5607C13.1997 12.0107 13.4497 11.3107 13.4497 10.5107C13.4497 8.61072 11.8997 7.11072 10.0497 7.11072C8.19972 7.11072 6.69972 8.61072 6.64972 10.4607V10.5107C6.64972 12.4107 8.19972 13.9107 10.0497 13.9107C10.7997 13.9107 11.4997 13.6607 12.0997 13.2607L13.8497 15.0107C13.9497 15.1107 14.0497 15.1607 14.1997 15.1607C14.2997 15.1607 14.4497 15.1107 14.5497 15.0107C14.7497 14.8107 14.7497 14.5107 14.5497 14.3107L12.7997 12.5607ZM7.69972 10.5607C7.69972 9.21072 8.74972 8.11072 10.0997 8.11072C11.4497 8.11072 12.4997 9.21072 12.4997 10.5107C12.4997 11.1607 12.2497 11.7107 11.8497 12.1607C11.7997 12.1607 11.7997 12.2107 11.7497 12.2107C11.7497 12.2107 11.6997 12.2607 11.6997 12.3107C11.2497 12.7107 10.6997 12.9107 10.0997 12.9107C8.79972 12.9107 7.69972 11.8607 7.69972 10.5607Z" fill="#2D373D"/>
</svg>
