<svg width="32" height="33" viewBox="0 0 32 33" fill="none" xmlns="http://www.w3.org/2000/svg">
<path fill-rule="evenodd" clip-rule="evenodd" d="M27.9936 6.12421C28.0272 5.82225 27.9217 5.5214 27.7069 5.30657C27.492 5.09174 27.1912 4.98622 26.8892 5.01981L24.6032 5.27405C22.5845 5.49843 20.7023 6.40319 19.2661 7.83946L13.2472 13.8584L12.5031 13.6105C11.2071 13.1787 9.81642 13.1162 8.48692 13.4302C7.1574 13.7442 5.94157 14.4222 4.97568 15.3882L4.72991 15.634C4.51367 15.85 4.35623 16.1178 4.27255 16.4118C4.18877 16.7061 4.18171 17.017 4.25203 17.3148C4.32235 17.6127 4.46772 17.8876 4.67429 18.1133C4.88073 18.339 5.14144 18.5081 5.43165 18.6046L9.044 19.8094L13.2017 23.9691L14.4065 27.5812C14.503 27.8714 14.6723 28.1328 14.8979 28.3392C15.1237 28.5457 15.3986 28.6911 15.6964 28.7614C15.9942 28.8318 16.3051 28.8247 16.5995 28.7409C16.8931 28.6573 17.1606 28.5002 17.3765 28.2843L17.378 28.2828L17.6241 28.0377C18.59 27.0717 19.2678 25.8558 19.5816 24.5262C19.8953 23.1969 19.8327 21.8064 19.4008 20.5106L19.1533 19.7669L25.1739 13.7474C26.6107 12.3115 27.5155 10.4288 27.7394 8.40991L27.9936 6.12421ZM24.8243 7.26179L25.8677 7.14575L25.7516 8.18953C25.5779 9.75684 24.8753 11.2184 23.7599 12.333L14.0762 22.0148L10.9984 18.9356L20.6804 9.25362C21.7954 8.13846 23.2569 7.436 24.8243 7.26179ZM8.94659 15.3767C9.84348 15.1649 10.7786 15.1883 11.6617 15.443L9.31421 17.7912L6.37983 16.8125L6.38996 16.8024C7.09325 16.099 7.97852 15.6053 8.94659 15.3767ZM16.199 26.6344L15.2203 23.6999L17.5694 21.3558C17.8232 22.2377 17.8464 23.1713 17.635 24.0669C17.4066 25.0346 16.9134 25.9197 16.2104 26.623L16.199 26.6344Z" fill="#2D373D"/>
<path fill-rule="evenodd" clip-rule="evenodd" d="M8.93431 22.6134C9.48543 22.5775 9.90308 22.1016 9.86716 21.5505C9.83124 20.9994 9.35535 20.5817 8.80424 20.6176C7.98479 20.671 7.21286 21.021 6.63267 21.6021C6.25311 21.9809 5.93293 22.6099 5.68293 23.1702C5.4119 23.7776 5.14938 24.4809 4.92234 25.1373C4.69423 25.7967 4.4966 26.4244 4.35625 26.8861C4.28596 27.1174 4.22975 27.3079 4.19097 27.4412C4.17157 27.5079 4.15652 27.5603 4.14623 27.5963L4.1344 27.6379L4.13007 27.6532C4.03228 28.0014 4.13 28.3753 4.38571 28.631C4.64143 28.8867 5.01543 28.9843 5.36354 28.8865L5.37887 28.8821L5.42041 28.8703C5.45642 28.86 5.50877 28.845 5.57539 28.8256C5.70859 28.7868 5.89905 28.7306 6.13018 28.6603C6.59167 28.5199 7.21899 28.3223 7.8782 28.0942C8.53434 27.8672 9.23748 27.6047 9.84495 27.3337C10.4059 27.0835 11.0346 26.7635 11.4137 26.3847C11.7285 26.0707 11.9782 25.6975 12.1483 25.2866C12.3186 24.8757 12.4059 24.4351 12.4053 23.9903C12.4046 23.438 11.9563 22.9909 11.404 22.9916C10.8517 22.9923 10.4046 23.4406 10.4053 23.9929C10.4056 24.1742 10.37 24.3538 10.3006 24.5213C10.2312 24.6888 10.1294 24.8409 10.001 24.969L10.0001 24.9699C9.9141 25.0559 9.60888 25.2491 9.03019 25.5072C8.49776 25.7447 7.85541 25.9858 7.2242 26.2042C7.01242 26.2775 6.80362 26.3476 6.60278 26.4136C6.66884 26.2124 6.73907 26.0032 6.81245 25.7911C7.03086 25.1597 7.27191 24.5173 7.50937 23.9851C7.76762 23.4064 7.96046 23.1024 8.04549 23.0177L8.04756 23.0156C8.28441 22.7782 8.59966 22.6352 8.93431 22.6134Z" fill="#2D373D"/>
</svg>
