<svg width="24" height="25" viewBox="0 0 24 25" fill="none" xmlns="http://www.w3.org/2000/svg">
<path fill-rule="evenodd" clip-rule="evenodd" d="M3 18.2119C3 17.7977 3.33579 17.4619 3.75 17.4619H9C9.41421 17.4619 9.75 17.7977 9.75 18.2119C9.75 18.6261 9.41421 18.9619 9 18.9619H3.75C3.33579 18.9619 3 18.6261 3 18.2119Z" fill="#2D373D"/>
<path fill-rule="evenodd" clip-rule="evenodd" d="M3 12.2119C3 11.7977 3.33579 11.4619 3.75 11.4619H10.25C10.6642 11.4619 11 11.7977 11 12.2119C11 12.6261 10.6642 12.9619 10.25 12.9619H3.75C3.33579 12.9619 3 12.6261 3 12.2119Z" fill="#2D373D"/>
<path d="M16.7882 19.2344C16.7856 19.2371 16.783 19.2397 16.7803 19.2424C16.4874 19.5353 16.0126 19.5353 15.7197 19.2424L11.7197 15.2424C11.4268 14.9495 11.4268 14.4746 11.7197 14.1817C12.0126 13.8888 12.4874 13.8888 12.7803 14.1817L15.5 16.9014V9.71191C15.5 9.2977 15.8358 8.96191 16.25 8.96191C16.6642 8.96191 17 9.2977 17 9.71191V16.9013L19.7197 14.1816C20.0126 13.8887 20.4874 13.8887 20.7803 14.1816C21.0732 14.4745 21.0732 14.9494 20.7803 15.2422L16.7882 19.2344Z" fill="#2D373D"/>
<path fill-rule="evenodd" clip-rule="evenodd" d="M3 6.21191C3 5.7977 3.33579 5.46191 3.75 5.46191H16.25C16.6642 5.46191 17 5.7977 17 6.21191C17 6.62613 16.6642 6.96191 16.25 6.96191H3.75C3.33579 6.96191 3 6.62613 3 6.21191Z" fill="#2D373D"/>
</svg>
