<svg width="32" height="33" viewBox="0 0 32 33" fill="none" xmlns="http://www.w3.org/2000/svg">
<path d="M20.834 11.9456C21.2245 12.3362 21.2245 12.9693 20.834 13.3599L17.5728 16.621L20.8339 19.8822C21.2244 20.2727 21.2244 20.9058 20.8339 21.2964C20.4434 21.6869 19.8102 21.6869 19.4197 21.2964L16.1586 18.0353L12.8975 21.2964C12.5069 21.6869 11.8738 21.6869 11.4832 21.2964C11.0927 20.9058 11.0927 20.2727 11.4832 19.8822L14.7444 16.621L11.4832 13.3599C11.0927 12.9693 11.0927 12.3362 11.4832 11.9456C11.8737 11.5551 12.5069 11.5551 12.8974 11.9456L16.1586 15.2068L19.4197 11.9456C19.8103 11.5551 20.4434 11.5551 20.834 11.9456Z" fill="#2D373D"/>
<path fill-rule="evenodd" clip-rule="evenodd" d="M15.9998 29.7956C23.3636 29.7956 29.3332 23.826 29.3332 16.4622C29.3332 9.09844 23.3636 3.12891 15.9998 3.12891C8.63604 3.12891 2.6665 9.09844 2.6665 16.4622C2.6665 23.826 8.63604 29.7956 15.9998 29.7956ZM15.9998 27.7956C22.2591 27.7956 27.3332 22.7215 27.3332 16.4622C27.3332 10.203 22.2591 5.12891 15.9998 5.12891C9.74061 5.12891 4.6665 10.203 4.6665 16.4622C4.6665 22.7215 9.74061 27.7956 15.9998 27.7956Z" fill="#2D373D"/>
</svg>
