<svg width="32" height="33" viewBox="0 0 32 33" fill="none" xmlns="http://www.w3.org/2000/svg">
<path d="M14.9999 16.3242C15.1999 15.8242 14.9999 15.2242 14.4999 15.0242C14.0999 14.8242 13.5999 14.7242 13.1999 14.6242C15.1999 13.9242 16.5999 12.0242 16.5999 9.92422C16.5999 7.12422 14.2999 4.82422 11.4999 4.82422C8.7999 4.82422 6.4999 7.12422 6.3999 9.82422C6.3999 12.0242 7.7999 13.9242 9.7999 14.6242C6.3999 15.4242 3.8999 18.4242 3.8999 22.0242C3.8999 22.6242 4.2999 23.0242 4.8999 23.0242C5.4999 23.0242 5.8999 22.6242 5.9999 21.9242C5.9999 18.8242 8.4999 16.3242 11.5999 16.3242C12.3999 16.3242 13.0999 16.5242 13.7999 16.8242C14.2999 17.1242 14.8999 16.8242 14.9999 16.3242ZM8.4999 9.92422C8.4999 8.22422 9.8999 6.82422 11.4999 6.82422C13.1999 6.82422 14.5999 8.12422 14.5999 9.82422C14.5999 11.5242 13.0999 12.9242 11.4999 12.9242C9.8999 12.9242 8.4999 11.6242 8.4999 9.92422Z" fill="#2D373D"/>
<path d="M21.1002 15.1243C17.3002 15.1243 14.2002 18.2243 14.2002 22.0243C14.2002 25.8243 17.3002 28.9243 21.1002 28.9243C24.9002 28.9243 28.0002 25.8243 28.0002 22.0243C28.0002 18.2243 24.9002 15.1243 21.1002 15.1243ZM21.1002 26.9243C18.4002 26.9243 16.2002 24.7243 16.2002 22.0243C16.2002 19.3243 18.4002 17.1243 21.1002 17.1243C23.8002 17.1243 26.0002 19.3243 26.0002 22.0243C26.0002 24.7243 23.8002 26.9243 21.1002 26.9243Z" fill="#2D373D"/>
<path d="M21.0996 21.0242C20.4996 21.0242 20.0996 21.4242 20.0996 22.0242V25.0242C20.0996 25.6242 20.4996 26.0242 21.0996 26.0242C21.6996 26.0242 22.0996 25.5242 22.0996 25.0242V22.0242C22.0996 21.4242 21.6996 21.0242 21.0996 21.0242Z" fill="#2D373D"/>
<path d="M21.8996 18.7243C21.7996 18.7243 21.7996 18.7243 21.6996 18.6243C21.5996 18.5243 21.5996 18.5243 21.4996 18.5243C21.3996 18.4243 21.3996 18.4243 21.2996 18.4243C20.9996 18.4243 20.5996 18.5243 20.3996 18.7243C20.2996 18.8243 20.1996 18.9243 20.1996 19.0243C20.0996 19.1243 20.0996 19.3243 20.0996 19.4243C20.0996 19.7243 20.1996 19.9243 20.3996 20.1243C20.5996 20.3243 20.7996 20.4243 21.0996 20.4243C21.3996 20.4243 21.5996 20.3243 21.8996 20.1243C22.0996 19.9243 22.1996 19.7243 22.1996 19.4243C22.1996 19.2243 22.0996 19.1243 22.0996 19.0243C22.0996 18.9243 21.9996 18.8243 21.8996 18.7243Z" fill="#2D373D"/>
</svg>
