<svg width="24" height="25" viewBox="0 0 24 25" fill="none" xmlns="http://www.w3.org/2000/svg">
<path fill-rule="evenodd" clip-rule="evenodd" d="M17.5504 3.92188C17.0572 3.92188 16.5842 4.11685 16.2342 4.46411C15.951 4.73878 15.725 5.06685 15.5693 5.42939C15.4127 5.79379 15.3303 6.18573 15.3269 6.58232C15.3234 6.97891 15.399 7.37222 15.5492 7.73929C15.6033 7.87162 15.6668 7.99958 15.7389 8.12227L10.8283 13.0329L8.59087 10.7956C8.29805 10.5027 7.82332 10.5027 7.5304 10.7954L4.36656 13.957C3.49157 14.832 3 16.0187 3 17.2562C3 18.4936 3.49157 19.6803 4.36656 20.5553C5.24156 21.4303 6.42831 21.9219 7.66574 21.9219C8.90317 21.9219 10.09 21.4303 10.965 20.5553L14.1279 17.3916C14.2685 17.2509 14.3475 17.0601 14.3475 16.8612C14.3474 16.6622 14.2684 16.4715 14.1276 16.3309L12.9414 15.1453C12.6484 14.8525 12.1735 14.8527 11.8807 15.1457C11.5879 15.4386 11.5881 15.9135 11.881 16.2063L12.5367 16.8616L9.90419 19.4947C9.3105 20.0884 8.50531 20.4219 7.66574 20.4219C6.82613 20.4219 6.02091 20.0884 5.42722 19.4947C4.83353 18.901 4.5 18.0958 4.5 17.2562C4.5 16.4166 4.83365 15.6113 5.42722 15.0176L8.06035 12.3864L9.76759 14.0936L8.32056 15.5406C8.02767 15.8335 8.02767 16.3084 8.32056 16.6013C8.61345 16.8942 9.08833 16.8942 9.38122 16.6013L11.3547 14.6278L11.3586 14.624L11.3624 14.6201L16.7996 9.18294C16.9223 9.2551 17.0503 9.31855 17.1826 9.3727C17.5497 9.52288 17.943 9.59845 18.3396 9.59501C18.7362 9.59156 19.1281 9.50916 19.4925 9.35263C19.8553 9.19679 20.1835 8.97059 20.4583 8.68712C20.8044 8.33738 20.9985 7.86517 20.9985 7.373C20.9985 6.87878 20.8022 6.40411 20.4534 6.05394L18.8714 4.46892C18.521 4.11865 18.0458 3.92188 17.5504 3.92188ZM17.2899 5.52974C17.359 5.46068 17.4527 5.42188 17.5504 5.42188C17.648 5.42188 17.7418 5.46079 17.8109 5.52974L19.3914 7.11321C19.46 7.18224 19.4985 7.27564 19.4985 7.373C19.4985 7.47045 19.4599 7.56388 19.3911 7.63292L19.3831 7.6412C19.2459 7.78321 19.0819 7.89648 18.9005 7.97441C18.7191 8.05233 18.524 8.09335 18.3265 8.09506C18.1291 8.09678 17.9333 8.05916 17.7506 7.9844C17.5679 7.90964 17.4019 7.79924 17.2623 7.65963C17.1227 7.52003 17.0123 7.35402 16.9375 7.17129C16.8627 6.98856 16.8251 6.79278 16.8268 6.59535C16.8286 6.39793 16.8696 6.20282 16.9475 6.02142C17.0254 5.84002 17.1388 5.67604 17.2808 5.53888L17.2899 5.52974Z" fill="#2D373D"/>
</svg>
