<svg width="32" height="33" viewBox="0 0 32 33" fill="none" xmlns="http://www.w3.org/2000/svg">
<path d="M15.6665 17.6432H14.7998V16.6298C14.7998 15.4698 14.3198 14.3365 13.4532 13.5232C11.7465 11.8965 8.7865 11.8832 7.07984 13.5232C6.21317 14.3365 5.73317 15.4698 5.73317 16.6298V17.6432H4.8665C3.65317 17.6432 2.6665 18.6032 2.6665 19.7898V28.1098C2.6665 29.2965 3.65317 30.2565 4.8665 30.2565H15.6665C16.8798 30.2565 17.8665 29.2965 17.8665 28.1098V19.7898C17.8665 18.6032 16.8798 17.6432 15.6665 17.6432ZM7.73317 16.6298C7.73317 16.0032 7.9865 15.4165 8.45317 14.9632C9.39984 14.0565 11.1332 14.0698 12.0798 14.9632C12.5465 15.4165 12.7998 16.0032 12.7998 16.6298V17.6432H7.73317V16.6298ZM15.8665 28.1098C15.8665 28.1098 15.7865 28.2565 15.6665 28.2565H4.8665C4.7465 28.2565 4.6665 28.1765 4.6665 28.1098V19.7898C4.6665 19.7232 4.7465 19.6432 4.8665 19.6432H15.6665C15.7865 19.6432 15.8665 19.7232 15.8665 19.7898V28.1098Z" fill="#2D373D"/>
<path d="M12.3998 25.1098C12.3065 25.4832 12.0798 25.8032 11.7598 26.0298C11.5198 26.2032 11.2132 26.2965 10.9198 26.3232C10.8532 26.6298 10.5865 26.8565 10.2665 26.8565C9.9465 26.8565 9.69317 26.6432 9.6265 26.3498H9.0665C8.69317 26.3498 8.39984 26.0565 8.39984 25.6832C8.39984 25.3098 8.69317 25.0165 9.0665 25.0165H10.6932C10.7998 25.0165 10.9198 24.9898 10.9998 24.9365C11.0532 24.8965 11.0932 24.8565 11.0932 24.8165C11.0398 24.6698 10.9732 24.6298 10.8798 24.6032L9.2265 24.0432C8.85317 23.9232 8.5465 23.6832 8.33317 23.3765C8.11984 23.0432 8.05317 22.6432 8.13317 22.2565C8.2265 21.8965 8.45317 21.5632 8.77317 21.3498C9.0265 21.1765 9.3065 21.0698 9.61317 21.0432C9.67984 20.7365 9.9465 20.5232 10.2665 20.5232C10.5865 20.5232 10.8398 20.7232 10.9065 21.0165H11.4665C11.8398 21.0165 12.1332 21.3232 12.1332 21.6832C12.1332 22.0432 11.8398 22.3498 11.4665 22.3498H9.83984C9.71984 22.3498 9.61317 22.3898 9.53317 22.4432C9.4665 22.4832 9.43984 22.5365 9.43984 22.5632C9.49317 22.6965 9.55984 22.7498 9.65317 22.7765L11.3065 23.3365C11.6798 23.4565 11.9865 23.6965 12.1865 24.0032C12.4132 24.3365 12.4798 24.7365 12.3998 25.1098Z" fill="#2D373D"/>
<path d="M21.6665 3.58984C17.4398 3.58984 13.9998 7.02984 13.9998 11.2565C13.9998 15.4832 17.4398 18.9232 21.6665 18.9232C25.8932 18.9232 29.3332 15.4832 29.3332 11.2565C29.3332 7.02984 25.8932 3.58984 21.6665 3.58984ZM21.6665 5.58984C24.0665 5.58984 26.1332 7.09651 26.9465 9.21651H16.3865C17.1998 7.09651 19.2665 5.58984 21.6665 5.58984ZM24.9598 11.0965C24.9598 11.5765 24.5598 11.9632 24.0932 11.9632C23.6265 11.9632 23.2265 11.5765 23.2265 11.0965C23.2265 10.6165 23.6132 10.2432 24.0932 10.2432C24.5732 10.2432 24.9598 10.6298 24.9598 11.0965ZM19.5998 11.0965C19.5998 11.5765 19.2132 11.9632 18.7332 11.9632C18.2532 11.9632 17.8665 11.5765 17.8665 11.0965C17.8665 10.6165 18.2532 10.2432 18.7332 10.2432C19.2132 10.2432 19.5998 10.6298 19.5998 11.0965ZM21.6665 16.9232C19.2665 16.9232 17.1998 15.4165 16.3865 13.2965H26.9465C26.1332 15.4165 24.0665 16.9232 21.6665 16.9232Z" fill="#2D373D"/>
<path d="M22.6132 8.66984C22.3198 8.66984 22.0398 8.46984 21.9598 8.16318C21.8665 7.80318 22.0932 7.44318 22.4398 7.34984L24.4398 6.84318C24.7865 6.74984 25.1598 6.97651 25.2532 7.32318C25.3465 7.68318 25.1198 8.04318 24.7732 8.13651L22.7732 8.64318C22.7732 8.64318 22.6665 8.66984 22.6132 8.66984Z" fill="#2D373D"/>
<path d="M20.4798 8.70984C20.4798 8.70984 20.3598 8.70984 20.2932 8.68318L18.3065 8.10984C17.9465 8.00318 17.7465 7.64318 17.8532 7.28318C17.9598 6.93651 18.3198 6.72318 18.6798 6.82984L20.6665 7.40318C21.0265 7.50984 21.2265 7.86984 21.1198 8.22984C21.0398 8.52318 20.7732 8.70984 20.4798 8.70984Z" fill="#2D373D"/>
<path d="M20.4132 16.5765C20.3065 16.5765 20.1865 16.5498 20.0798 16.4965C19.7598 16.3098 19.6398 15.9098 19.8265 15.5898C20.5732 14.2698 22.3598 13.1365 25.1465 13.9098C25.5065 14.0032 25.7065 14.3765 25.6132 14.7365C25.5198 15.0965 25.1465 15.3098 24.7865 15.2032C22.2265 14.4965 21.2265 15.8298 20.9865 16.2565C20.8665 16.4698 20.6398 16.5898 20.3998 16.5898L20.4132 16.5765Z" fill="#2D373D"/>
</svg>
