<svg width="32" height="33" viewBox="0 0 32 33" fill="none" xmlns="http://www.w3.org/2000/svg">
<path fill-rule="evenodd" clip-rule="evenodd" d="M10.8618 7.07953C11.8378 6.10355 13.0628 5.43387 14.3875 5.13234C14.418 5.12408 14.4489 5.11723 14.4803 5.11187C14.9761 5.00581 15.4853 4.95117 16.0001 4.95117C16.5149 4.95117 17.024 5.00578 17.5197 5.1118C17.5513 5.1172 17.5825 5.12411 17.6133 5.13247C18.9378 5.43405 20.1626 6.10369 21.1385 7.07953C21.8957 7.83678 22.4686 8.74394 22.8281 9.73126C22.8464 9.77326 22.8618 9.81676 22.8742 9.86152C23.1318 10.613 23.2668 11.4084 23.2668 12.2178C23.2668 13.0273 23.1318 13.8227 22.8742 14.5742C22.8618 14.6189 22.8464 14.6624 22.8282 14.7044C22.4686 15.6917 21.8957 16.5989 21.1385 17.3561C20.0318 18.4628 18.6049 19.1757 17.0756 19.4045C17.0401 19.4115 17.0042 19.4167 16.9679 19.4198C16.6489 19.4627 16.3256 19.4845 16.0001 19.4845C15.6718 19.4845 15.3457 19.4623 15.024 19.4187C14.9963 19.4159 14.9689 19.412 14.9417 19.407C13.406 19.181 11.9726 18.4669 10.8618 17.3561C10.1044 16.5987 9.53144 15.6913 9.17189 14.7037C9.15391 14.6621 9.13866 14.6191 9.12638 14.5749C8.86861 13.8233 8.73348 13.0275 8.73348 12.2178C8.73348 11.4082 8.86861 10.6124 9.12637 9.86078C9.13866 9.81653 9.15391 9.77352 9.1719 9.73196C9.53146 8.74437 10.1044 7.83695 10.8618 7.07953ZM18.401 16.9054C18.8852 16.6575 19.3324 16.3338 19.7242 15.9419C19.9226 15.7436 20.1035 15.5311 20.2659 15.3067H18.7536C18.6568 15.8438 18.5392 16.3771 18.401 16.9054ZM16.7179 15.3067C16.5711 16.0416 16.381 16.7681 16.1485 17.4824C16.0991 17.4838 16.0497 17.4845 16.0001 17.4845C15.9521 17.4845 15.9041 17.4838 15.8561 17.4825C15.6235 16.7667 15.4336 16.0401 15.2868 15.3067H16.7179ZM19.0164 13.3067H21.153C21.2281 12.9514 21.2668 12.5866 21.2668 12.2178C21.2668 11.8491 21.2281 11.4843 21.153 11.1289H19.0858C19.0881 11.2596 19.0892 11.3904 19.0891 11.5212C19.0901 12.118 19.0657 12.7137 19.0164 13.3067ZM17.0855 11.1289C17.088 11.2594 17.0892 11.39 17.0891 11.5206V11.5232C17.0901 12.1195 17.0632 12.7147 17.0088 13.3067H14.9943C14.927 12.5829 14.9006 11.8558 14.9152 11.1289H17.0855ZM18.9557 9.12895H20.2659C20.1035 8.90461 19.9226 8.69208 19.7242 8.49374C19.4283 8.19785 19.1009 7.9408 18.7497 7.72588C18.8341 8.19118 18.9028 8.65913 18.9557 9.12895ZM16.5483 6.97976C16.7203 7.68856 16.8516 8.40613 16.9417 9.12895H15.0598C15.1497 8.40792 15.2806 7.69033 15.4526 6.9797C15.6337 6.96077 15.8164 6.95117 16.0001 6.95117C16.1841 6.95117 16.367 6.96079 16.5483 6.97976ZM12.2761 8.49374C12.5723 8.19751 12.9002 7.9402 13.2518 7.72513C13.1674 8.19136 13.0987 8.65956 13.0457 9.12895H11.7344C11.8968 8.90461 12.0777 8.69208 12.2761 8.49374ZM10.8473 11.1289H12.9149C12.9016 11.8557 12.9255 12.5826 12.9865 13.3067H10.8473C10.7722 12.9514 10.7335 12.5866 10.7335 12.2178C10.7335 11.8491 10.7722 11.4843 10.8473 11.1289ZM11.7344 15.3067H13.2509C13.3481 15.844 13.466 16.3782 13.6046 16.9082C13.1184 16.6598 12.6693 16.3352 12.2761 15.9419C12.0777 15.7436 11.8968 15.5311 11.7344 15.3067Z" fill="#2D373D"/>
<path fill-rule="evenodd" clip-rule="evenodd" d="M7.81968 18.396C8.25241 18.2168 8.71621 18.1245 9.18459 18.1245C9.65297 18.1245 10.1168 18.2168 10.5495 18.396C10.9822 18.5753 11.3754 18.838 11.7066 19.1692C12.0378 19.5004 12.3005 19.8935 12.4798 20.3263C12.659 20.759 12.7513 21.2228 12.7513 21.6912C12.7513 22.1596 12.659 22.6234 12.4798 23.0561C12.3005 23.4888 12.0378 23.882 11.7066 24.2132C11.614 24.3058 11.5165 24.3931 11.4147 24.4746C11.7229 24.6151 12.0186 24.7852 12.2975 24.9833C13.2069 25.6292 13.8927 26.542 14.2599 27.5952C14.4418 28.1167 14.1665 28.6869 13.645 28.8687C13.1235 29.0506 12.5533 28.7752 12.3715 28.2538C12.1409 27.5925 11.7103 27.0194 11.1393 26.6138C10.5684 26.2082 9.88542 25.9904 9.18509 25.9904C8.48477 25.9904 7.8018 26.2082 7.23086 26.6138C6.65992 27.0194 6.2293 27.5925 5.9987 28.2538C5.81685 28.7752 5.24668 29.0506 4.72519 28.8687C4.20371 28.6869 3.92838 28.1167 4.11024 27.5952C4.47751 26.542 5.16334 25.6292 6.07265 24.9833C6.3514 24.7853 6.64691 24.6154 6.95484 24.4749C6.85288 24.3933 6.7553 24.3059 6.66257 24.2132C6.33138 23.882 6.06866 23.4888 5.88942 23.0561C5.71017 22.6234 5.61792 22.1596 5.61792 21.6912C5.61792 21.2228 5.71017 20.759 5.88942 20.3263C6.06866 19.8935 6.33138 19.5004 6.66257 19.1692C6.99377 18.838 7.38695 18.5753 7.81968 18.396ZM9.18459 20.1245C8.97885 20.1245 8.77512 20.165 8.58505 20.2438C8.39497 20.3225 8.22226 20.4379 8.07679 20.5834C7.93131 20.7289 7.81591 20.9016 7.73718 21.0916C7.65844 21.2817 7.61792 21.4854 7.61792 21.6912C7.61792 21.8969 7.65844 22.1006 7.73718 22.2907C7.81591 22.4808 7.93131 22.6535 8.07679 22.799C8.22226 22.9445 8.39497 23.0599 8.58505 23.1386C8.77512 23.2173 8.97885 23.2578 9.18459 23.2578C9.39032 23.2578 9.59405 23.2173 9.78412 23.1386C9.9742 23.0599 10.1469 22.9445 10.2924 22.799C10.4379 22.6535 10.5533 22.4808 10.632 22.2907C10.7107 22.1006 10.7513 21.8969 10.7513 21.6912C10.7513 21.4854 10.7107 21.2817 10.632 21.0916C10.5533 20.9016 10.4379 20.7289 10.2924 20.5834C10.1469 20.4379 9.9742 20.3225 9.78412 20.2438C9.59405 20.165 9.39032 20.1245 9.18459 20.1245Z" fill="#2D373D"/>
<path fill-rule="evenodd" clip-rule="evenodd" d="M20.4013 19.1692C21.0702 18.5003 21.9774 18.1245 22.9234 18.1245C23.8693 18.1245 24.7765 18.5003 25.4454 19.1692C26.1142 19.838 26.49 20.7452 26.49 21.6912C26.49 22.6371 26.1142 23.5443 25.4454 24.2132C25.3524 24.3062 25.2548 24.3935 25.1531 24.4749C25.4611 24.6154 25.7566 24.7853 26.0353 24.9833C26.9446 25.6292 27.6305 26.542 27.9977 27.5952C28.1796 28.1167 27.9043 28.6869 27.3828 28.8687C26.8613 29.0506 26.2911 28.7752 26.1093 28.2538C25.8787 27.5925 25.4481 27.0194 24.8771 26.6138C24.3062 26.2082 23.6232 25.9904 22.9229 25.9904C22.2226 25.9904 21.5396 26.2082 20.9687 26.6138C20.3977 27.0194 19.9671 27.5925 19.7365 28.2538C19.5546 28.7752 18.9845 29.0506 18.463 28.8687C17.9415 28.6869 17.6662 28.1167 17.848 27.5952C18.2153 26.542 18.9011 25.6292 19.8104 24.9833C20.0894 24.7852 20.3851 24.6152 20.6932 24.4747C20.5917 24.3933 20.4942 24.3061 20.4013 24.2132C19.7325 23.5443 19.3567 22.6371 19.3567 21.6912C19.3567 20.7452 19.7325 19.838 20.4013 19.1692ZM22.9234 20.1245C22.5078 20.1245 22.1094 20.2896 21.8156 20.5834C21.5217 20.8772 21.3567 21.2757 21.3567 21.6912C21.3567 22.1067 21.5217 22.5052 21.8156 22.799C22.1094 23.0928 22.5078 23.2578 22.9234 23.2578C23.3389 23.2578 23.7373 23.0928 24.0312 22.799C24.325 22.5052 24.49 22.1067 24.49 21.6912C24.49 21.2757 24.325 20.8772 24.0312 20.5834C23.7373 20.2896 23.3389 20.1245 22.9234 20.1245Z" fill="#2D373D"/>
</svg>
