<svg width="64" height="65" viewBox="0 0 64 65" fill="none" xmlns="http://www.w3.org/2000/svg">
<path fill-rule="evenodd" clip-rule="evenodd" d="M16.6582 26.4618C16.2827 26.4618 15.9373 26.6061 15.6942 26.8401C15.4537 27.0715 15.3335 27.3688 15.3335 27.6618V53.2618C15.3335 53.5549 15.4537 53.8521 15.6942 54.0836C15.9373 54.3176 16.2827 54.4618 16.6582 54.4618H46.5802C46.9557 54.4618 47.3011 54.3176 47.5442 54.0836C47.7847 53.8521 47.9049 53.5549 47.9049 53.2618V27.6618C47.9049 27.3688 47.7847 27.0715 47.5442 26.8401C47.3011 26.6061 46.9557 26.4618 46.5802 26.4618H43.2556C42.151 26.4618 41.2556 25.5664 41.2556 24.4618C41.2556 23.3573 42.151 22.4618 43.2556 22.4618H46.5802C47.9683 22.4618 49.3142 22.9918 50.3181 23.9581C51.3246 24.9269 51.9049 26.2575 51.9049 27.6618V53.2618C51.9049 54.6662 51.3246 55.9968 50.3181 56.9655C49.3142 57.9318 47.9683 58.4618 46.5802 58.4618H16.6582C15.2701 58.4618 13.9243 57.9318 12.9203 56.9655C11.9138 55.9968 11.3335 54.6662 11.3335 53.2618V27.6618C11.3335 26.2575 11.9138 24.9269 12.9203 23.9581C13.9243 22.9918 15.2701 22.4618 16.6582 22.4618H19.9828C21.0874 22.4618 21.9828 23.3573 21.9828 24.4618C21.9828 25.5664 21.0874 26.4618 19.9828 26.4618H16.6582Z" fill="#2D373D"/>
<path fill-rule="evenodd" clip-rule="evenodd" d="M31.619 6.46191C32.7235 6.46191 33.619 7.35734 33.619 8.46191V31.3191C33.619 32.4236 32.7235 33.3191 31.619 33.3191C30.5144 33.3191 29.619 32.4236 29.619 31.3191V8.46191C29.619 7.35734 30.5144 6.46191 31.619 6.46191Z" fill="#2D373D"/>
<path fill-rule="evenodd" clip-rule="evenodd" d="M30.2054 7.0477C30.9864 6.26665 32.2527 6.26665 33.0338 7.0477L42.1766 16.1906C42.9577 16.9716 42.9577 18.2379 42.1766 19.019C41.3956 19.8 40.1293 19.8 39.3482 19.019L31.6196 11.2903L23.8909 19.019C23.1099 19.8 21.8436 19.8 21.0625 19.019C20.2815 18.2379 20.2815 16.9716 21.0625 16.1906L30.2054 7.0477Z" fill="#2D373D"/>
</svg>
