<svg width="64" height="65" viewBox="0 0 64 65" fill="none" xmlns="http://www.w3.org/2000/svg">
<path fill-rule="evenodd" clip-rule="evenodd" d="M17.2194 9.69597C17.8965 8.82327 19.1529 8.6647 20.0256 9.3418L25.3511 13.4737H37.3333V12.4392C37.3333 11.4143 38.1081 10.5553 39.1275 10.4498L53.7941 8.93258C54.3574 8.87432 54.9189 9.05753 55.3394 9.43677C55.7599 9.81601 55.9999 10.3557 55.9999 10.922V20.0254C55.9999 20.5917 55.7599 21.1314 55.3394 21.5106C54.9189 21.8898 54.3574 22.0731 53.7941 22.0148L39.1275 20.4976C38.1081 20.3921 37.3333 19.5331 37.3333 18.5082V17.4737H33.9994V18.7096C35.2039 19.6171 36.2119 20.7729 36.9587 22.1034C37.8995 23.7796 38.3948 25.6774 38.3994 27.6068L38.3994 27.6116V30.5884C38.3999 30.6076 38.4002 30.6269 38.4002 30.6462C38.4002 30.6655 38.3999 30.6847 38.3994 30.7039L38.3994 45.7607C38.3999 45.7799 38.4002 45.7992 38.4002 45.8186C38.4002 45.8379 38.3999 45.8572 38.3994 45.8764V51.8875C38.3994 53.2013 37.8955 54.4743 36.9782 55.4232C36.0587 56.3745 34.7968 56.922 33.4661 56.922H21.7328C20.4021 56.922 19.1402 56.3745 18.2206 55.4232C17.3033 54.4743 16.7995 53.2013 16.7995 51.8875V27.6116L16.7995 27.6068C16.8041 25.6774 17.2994 23.7796 18.2402 22.1034C18.987 20.7729 19.995 19.6171 21.1995 18.7096V17.489C18.833 17.6244 16.5779 18.6568 14.8746 20.4189C13.0414 22.3153 12 24.9014 12 27.6116V48.853C12 49.9576 11.1046 50.853 10 50.853C8.89543 50.853 8 49.9576 8 48.853V27.6116C8 23.8835 9.43099 20.295 11.9986 17.6388C13.9558 15.6141 16.4526 14.2575 19.1507 13.7258L17.5736 12.5021C16.7009 11.825 16.5423 10.5687 17.2194 9.69597ZM34.3994 43.8186V32.6462H29.6003V43.8186H34.3994ZM34.3994 28.6462H27.6003C26.4957 28.6462 25.6003 29.5416 25.6003 30.6462V45.8186C25.6003 46.9231 26.4957 47.8186 27.6003 47.8186H34.3994V51.8875C34.3994 52.1833 34.2852 52.454 34.1023 52.6432C33.9216 52.8301 33.6913 52.922 33.4661 52.922H21.7328C21.5076 52.922 21.2773 52.8301 21.0966 52.6432C20.9137 52.454 20.7995 52.1833 20.7995 51.8875V27.6142C20.8029 26.362 21.1248 25.1365 21.7283 24.0612C22.332 22.9857 23.1939 22.102 24.2207 21.4922C24.8275 21.1318 25.1995 20.4783 25.1995 19.7726V17.4737H29.9994V19.7726C29.9994 20.4783 30.3714 21.1318 30.9782 21.4922C32.005 22.102 32.8669 22.9857 33.4705 24.0612C34.074 25.1364 34.396 26.3619 34.3994 27.614V28.6462ZM41.3333 14.243V16.7044L51.9999 17.8078V13.1395L41.3333 14.243Z" fill="#2D373D"/>
</svg>
