<svg width="64" height="65" viewBox="0 0 64 65" fill="none" xmlns="http://www.w3.org/2000/svg">
<path d="M22.0613 23.9447C22.7439 21.2145 24.4672 17.2422 27.3272 14.2812C29.7898 11.7317 33.0438 9.96158 37.3199 10.291C36.9965 16.1489 38.4274 19.6643 40.4747 21.7119C41.5818 22.8191 42.7666 23.3861 43.6916 23.6732C44.1523 23.8162 44.5506 23.8906 44.8484 23.9294C44.9977 23.9489 45.1232 23.9596 45.2202 23.9655C45.2687 23.9684 45.3104 23.9701 45.3445 23.9711L45.39 23.9721L45.4085 23.9723L45.4166 23.9724L45.4204 23.9724C45.4204 23.9724 45.427 23.9724 45.4166 23.9724L45.427 23.9724L45.43 23.9724L45.4363 23.9723L45.4498 23.9722L45.4802 23.9717L45.5117 23.9707L45.5548 23.9689C45.6105 23.9663 45.6781 23.9616 45.7567 23.9537C45.914 23.938 46.1156 23.9095 46.3547 23.8582C46.8341 23.7555 47.4602 23.5624 48.179 23.2031C49.1338 22.7256 50.2163 21.9727 51.3199 20.8011C52.3356 22.2048 53.3654 23.7881 54.0265 25.6696C54.9815 28.3878 55.1359 31.7269 52.6462 35.8154C52.0718 36.7589 52.3708 37.9894 53.3143 38.5638C54.2577 39.1383 55.4882 38.8392 56.0627 37.8958C59.2187 32.7129 59.125 28.1139 57.8003 24.3437C56.746 21.3429 54.8837 18.8607 53.6505 17.217C53.4071 16.8927 53.1883 16.601 53.005 16.3444C52.6229 15.8096 52.0025 15.4967 51.3453 15.5073C50.6881 15.518 50.0781 15.8508 49.7135 16.3977C48.4032 18.3632 47.1718 19.2345 46.3901 19.6254C45.9925 19.8242 45.6883 19.9102 45.5166 19.947C45.4694 19.9571 45.4318 19.9636 45.4046 19.9677L45.3658 19.963C45.2625 19.9495 45.091 19.9193 44.8773 19.8529C44.4534 19.7214 43.8707 19.4511 43.3033 18.8836C42.2181 17.7982 40.7513 15.1581 41.4581 8.79613C41.5727 7.76507 40.8799 6.81759 39.8626 6.61413C33.1115 5.26387 27.9862 7.84131 24.4501 11.5023C21.4594 14.5987 19.5618 18.4936 18.58 21.5746C18.2153 21.4389 17.7656 21.1874 17.2535 20.8091C16.0794 19.9418 14.9471 18.6852 14.279 17.7944C13.6421 16.9452 12.4528 16.7415 11.5696 17.3303C7.3998 20.1102 5.64354 24.2056 5.37782 28.0981C5.11757 31.9104 6.27135 35.6806 8.11808 38.0766C8.79239 38.9514 10.0482 39.114 10.9231 38.4397C11.798 37.7654 11.9605 36.5095 11.2862 35.6347C10.0976 34.0925 9.16762 31.3136 9.36853 28.3705C9.53008 26.004 10.4121 23.6352 12.3934 21.7648C13.1092 22.5402 13.9626 23.3511 14.8767 24.0264C15.6652 24.6089 16.5918 25.1604 17.5886 25.4592C18.6026 25.7632 19.8296 25.8415 21.0155 25.2485C21.5377 24.9874 21.9197 24.5112 22.0613 23.9447Z" fill="#2D373D"/>
<path d="M47.9406 43.6848L31.9432 28.1586C30.5046 29.5307 28.1458 31.8652 25.6005 34.3842L24.3968 35.5753C21.2246 38.7132 17.9445 41.9457 16.0235 43.7191C15.2118 44.4684 13.9465 44.4178 13.1973 43.6062C12.448 42.7946 12.4986 41.5292 13.3102 40.78C15.1686 39.0645 18.3913 35.8895 21.5838 32.7316L22.7875 31.5404C25.5255 28.8306 28.0989 26.2837 29.5269 24.9373C31.0144 23.5347 33.1178 23.7245 34.4453 25.0129L50.7264 40.8144C51.5191 41.5837 51.538 42.8498 50.7687 43.6425C49.9994 44.4351 48.7332 44.454 47.9406 43.6848Z" fill="#2D373D"/>
<path d="M46.6097 44.9167C46.6097 43.8121 45.7143 42.9167 44.6097 42.9167C43.5051 42.9167 42.6097 43.8121 42.6097 44.9167L42.6097 55.5816H37.6025V47.5837C37.6025 45.7428 36.1101 44.2504 34.2692 44.2504H29.7175C27.8765 44.2504 26.3841 45.7428 26.3841 47.5837V55.5818L21.3899 55.5818L21.3898 44.9169C21.3898 43.8123 20.4944 42.9169 19.3898 42.9169C18.2853 42.9169 17.3898 43.8123 17.3898 44.9169L17.3898 55.5925C17.3897 56.0396 17.3895 56.5265 17.4344 56.9304C17.4802 57.3432 17.6092 58.1126 18.2339 58.7374C18.8587 59.3623 19.6281 59.4913 20.041 59.5372C20.445 59.5822 20.9321 59.582 21.3794 59.5818L28.3841 59.5818C29.4887 59.5818 30.3841 58.6864 30.3841 57.5818V48.2504H33.6025V57.5816C33.6025 58.6862 34.498 59.5816 35.6025 59.5816L42.6203 59.5816C43.0674 59.5818 43.5544 59.5821 43.9583 59.5372C44.3711 59.4914 45.1406 59.3625 45.7655 58.7375C46.3904 58.1126 46.5193 57.3431 46.5652 56.9304C46.61 56.5265 46.6099 56.0396 46.6097 55.5924L46.6097 44.9167Z" fill="#2D373D"/>
<path d="M45.9451 34.75C44.8406 34.75 43.9452 33.8546 43.9452 32.75L43.9451 29.5846H40.7801C39.6756 29.5846 38.7801 28.6892 38.7801 27.5846C38.7801 26.4801 39.6756 25.5846 40.7801 25.5846H45.9452C47.0497 25.5846 47.9451 26.4801 47.9451 27.5846L47.9452 32.75C47.9452 33.8546 47.0497 34.75 45.9451 34.75Z" fill="#2D373D"/>
</svg>
