<svg width="32" height="32" viewBox="0 0 32 32" fill="none" xmlns="http://www.w3.org/2000/svg">
<path d="M29.4001 16.3C29.4001 16 29.2001 15.7 28.9001 15.6C25.0001 13.6 20.3001 13.6 16.3001 15.7C14.7001 16.6 13.7001 17.9 13.4001 19.4C13.2001 20.8 13.6001 22.2 14.5001 23.7C13.9001 24.6 13.2001 25.8 12.7001 27.2C12.4001 27.7 12.7001 28.3 13.2001 28.5C13.3001 28.6 13.5001 28.6 13.6001 28.6C14.0001 28.6 14.4001 28.4 14.6001 28C15.0001 27.1 15.4001 26.3 15.8001 25.6C16.5001 26.7 18.1001 28.6 20.5001 28.6C20.6001 28.6 20.7001 28.6 20.9001 28.6C25.5001 28.1 26.8001 24 27.8001 20.6C28.2001 19.2 28.6001 17.8 29.2001 17.1C29.4001 16.9 29.5001 16.6 29.4001 16.3ZM25.8001 20.1C24.9001 23.1 23.9001 26.3 20.6001 26.6C18.5001 26.8 17.0001 23.9 17.0001 23.9C18.7001 21.9 20.3001 21.7 20.4001 21.7C20.9001 21.6 21.3001 21.1 21.3001 20.6C21.2001 20.1 20.7001 19.7 20.2001 19.7C20.1001 19.7 18.0001 19.9 15.8001 22.2C15.3001 21.3 15.1001 20.5 15.2001 19.8C15.4001 18.9 16.0001 18.1 17.1001 17.5C20.1001 16 23.7001 15.8 26.9001 17C26.5001 17.9 26.1001 19 25.8001 20.1Z" fill="#2D373D"/>
<path d="M7.00012 15.4C7.10012 15.5 7.30012 15.5 7.40012 15.5C8.20012 15.5 8.80012 14.8 8.80012 14C8.80012 13.8 8.80012 13.7 8.70012 13.6C8.60012 13.2 8.20012 12.8 7.80012 12.7C7.70012 12.6 7.50012 12.6 7.40012 12.6C6.60012 12.6 6.00012 13.3 6.00012 14C6.00012 14.8 6.40012 15.3 7.00012 15.4Z" fill="#2D373D"/>
<path d="M11.2001 16.8H5.3001C4.9001 16.8 4.6001 16.5 4.6001 16.1V13.6C4.6001 12.6 5.3001 11.7 6.2001 11.4C6.3001 11.4 6.5001 11.3 6.6001 11.3C6.7001 11.3 6.9001 11.3 7.0001 11.3H23.8001C24.0001 11.3 24.2001 11.3 24.3001 11.4C24.4001 11.5 24.5001 11.5 24.7001 11.5C25.2001 11.7 25.7001 12.1 25.9001 12.5C26.2001 13 26.8001 13.2 27.3001 12.9C27.8001 12.6 28.0001 12 27.7001 11.5C27.2001 10.6 26.4001 10 25.5001 9.60003L23.7001 5.70003C23.2001 4.30003 21.9001 3.40003 20.4001 3.40003H10.4001C9.0001 3.30003 7.6001 4.20003 7.2001 5.50003L5.4001 9.50003C3.8001 10.2 2.6001 11.7 2.6001 13.6V16.2C2.6001 17 2.9001 17.6 3.4001 18.1V19.5C3.4001 21 4.6001 22.2 6.1001 22.2C7.6001 22.2 8.8001 21 8.8001 19.5V18.9H11.2001C11.8001 18.9 12.2001 18.4 12.2001 17.8C12.2001 17.2 11.8001 16.8 11.2001 16.8ZM9.0001 6.30003C9.2001 5.70003 9.8001 5.30003 10.5001 5.30003H20.5001C21.1001 5.30003 21.7001 5.70003 21.9001 6.40003L23.2001 9.20003H7.7001L9.0001 6.30003ZM6.8001 19.5C6.8001 19.9 6.5001 20.2 6.1001 20.2C5.7001 20.2 5.4001 19.9 5.4001 19.5V18.9H6.8001V19.5Z" fill="#2D373D"/>
</svg>
