<svg width="32" height="32" viewBox="0 0 32 32" fill="none" xmlns="http://www.w3.org/2000/svg">
<path d="M18.9998 16.0001C18.9998 17.6569 17.6567 19.0001 15.9998 19.0001C14.343 19.0001 12.9998 17.6569 12.9998 16.0001C12.9998 14.3432 14.343 13.0001 15.9998 13.0001C17.6567 13.0001 18.9998 14.3432 18.9998 16.0001Z" fill="#2D373D"/>
<path fill-rule="evenodd" clip-rule="evenodd" d="M2.6001 16.0001C2.6001 8.59948 8.59948 2.6001 16.0001 2.6001C23.4007 2.6001 29.4001 8.59948 29.4001 16.0001C29.4001 23.4007 23.4007 29.4001 16.0001 29.4001C8.59948 29.4001 2.6001 23.4007 2.6001 16.0001ZM14.9998 4.64338C9.50176 5.12131 5.12118 9.50197 4.64335 15.0001H9.33317C9.88546 15.0001 10.3332 15.4478 10.3332 16.0001C10.3332 16.5524 9.88546 17.0001 9.33317 17.0001H4.64335C5.12116 22.4982 9.50175 26.8789 14.9998 27.3568V22.6667C14.9998 22.1145 15.4476 21.6667 15.9998 21.6667C16.5521 21.6667 16.9998 22.1145 16.9998 22.6667V27.3569C22.4982 26.8792 26.879 22.4984 27.3568 17.0001H22.6665C22.1142 17.0001 21.6665 16.5524 21.6665 16.0001C21.6665 15.4478 22.1142 15.0001 22.6665 15.0001H27.3568C26.879 9.50179 22.4982 5.12104 16.9998 4.64333V9.33341C16.9998 9.8857 16.5521 10.3334 15.9998 10.3334C15.4476 10.3334 14.9998 9.8857 14.9998 9.33341V4.64338Z" fill="#2D373D"/>
</svg>
