<svg width="32" height="33" viewBox="0 0 32 33" fill="none" xmlns="http://www.w3.org/2000/svg">
<path fill-rule="evenodd" clip-rule="evenodd" d="M20.9259 15.9168C19.4642 15.9168 18.2793 17.1017 18.2793 18.5634C18.2793 20.0251 19.4642 21.21 20.9259 21.21C22.3876 21.21 23.5725 20.0251 23.5725 18.5634C23.5725 17.1017 22.3876 15.9168 20.9259 15.9168ZM20.2843 18.5634C20.2843 18.209 20.5716 17.9218 20.9259 17.9218C21.2803 17.9218 21.5675 18.209 21.5675 18.5634C21.5675 18.9177 21.2803 19.205 20.9259 19.205C20.5716 19.205 20.2843 18.9177 20.2843 18.5634Z" fill="#2D373D"/>
<path fill-rule="evenodd" clip-rule="evenodd" d="M15.1715 19.205C13.7098 19.205 12.5249 20.3899 12.5249 21.8516C12.5249 23.3133 13.7098 24.4982 15.1715 24.4982C16.6332 24.4982 17.8181 23.3133 17.8181 21.8516C17.8181 20.3899 16.6332 19.205 15.1715 19.205ZM14.5299 21.8516C14.5299 21.4972 14.8172 21.21 15.1715 21.21C15.5259 21.21 15.8131 21.4972 15.8131 21.8516C15.8131 22.2059 15.5259 22.4932 15.1715 22.4932C14.8172 22.4932 14.5299 22.2059 14.5299 21.8516Z" fill="#2D373D"/>
<path fill-rule="evenodd" clip-rule="evenodd" d="M24.0336 21.8516C24.0336 20.3899 25.2185 19.205 26.6802 19.205C28.1419 19.205 29.3268 20.3899 29.3268 21.8516C29.3268 23.3133 28.1419 24.4982 26.6802 24.4982C25.2185 24.4982 24.0336 23.3133 24.0336 21.8516ZM26.6802 21.21C26.3259 21.21 26.0386 21.4972 26.0386 21.8516C26.0386 22.2059 26.3259 22.4932 26.6802 22.4932C27.0346 22.4932 27.3218 22.2059 27.3218 21.8516C27.3218 21.4972 27.0346 21.21 26.6802 21.21Z" fill="#2D373D"/>
<path fill-rule="evenodd" clip-rule="evenodd" d="M20.9259 22.2192C20.6426 22.2192 20.3632 22.2851 20.1099 22.4118C19.8565 22.5385 19.6362 22.7224 19.4662 22.949L16.178 27.3333C15.9747 27.6044 15.8509 27.9267 15.8205 28.2642C15.79 28.6017 15.8542 28.9409 16.0057 29.244C16.1572 29.5471 16.3902 29.802 16.6784 29.9801C16.9667 30.1582 17.2988 30.2526 17.6376 30.2526H24.2141C24.5529 30.2526 24.8851 30.1582 25.1733 29.9801C25.4616 29.802 25.6945 29.5471 25.846 29.244C25.9976 28.9409 26.0617 28.6017 26.0313 28.2642C26.0008 27.9267 25.877 27.6044 25.6737 27.3333L22.3855 22.949C22.2156 22.7224 21.9952 22.5385 21.7418 22.4118C21.4885 22.2851 21.2091 22.2192 20.9259 22.2192ZM17.9985 28.2476L20.9259 24.3445L23.8532 28.2476H17.9985Z" fill="#2D373D"/>
<path d="M13.9972 3.80562C14.3633 3.51271 14.8836 3.51271 15.2497 3.80562L23.1911 10.1588C23.1942 10.1612 23.1973 10.1637 23.2003 10.1661L26.2104 12.5742C26.6428 12.9201 26.7129 13.5509 26.367 13.9833C26.0211 14.4156 25.3903 14.4857 24.9579 14.1399L23.5725 13.0315V13.9051C23.5725 14.4588 23.1236 14.9076 22.57 14.9076C22.0163 14.9076 21.5675 14.4588 21.5675 13.9051V11.4275L14.6234 5.87228L7.67938 11.4275V20.2075C7.67938 20.3777 7.74698 20.5409 7.8673 20.6612C7.98763 20.7815 8.15082 20.8491 8.32098 20.8491H10.2391C10.7928 20.8491 11.2416 21.2979 11.2416 21.8516C11.2416 22.4053 10.7928 22.8541 10.2391 22.8541H8.32098C7.61906 22.8541 6.94588 22.5753 6.44954 22.0789C5.95321 21.5826 5.67437 20.9094 5.67437 20.2075V13.0315L4.28896 14.1399C3.85662 14.4857 3.22575 14.4156 2.87987 13.9833C2.534 13.5509 2.6041 12.9201 3.03644 12.5742L13.9972 3.80562Z" fill="#2D373D"/>
</svg>
