<svg width="64" height="65" viewBox="0 0 64 65" fill="none" xmlns="http://www.w3.org/2000/svg">
<path d="M54.2002 43.2609L47.8002 36.8609C45.6002 34.6609 42.0002 34.6609 39.8002 36.8609C39.2002 37.4609 38.2002 37.4609 37.6002 36.8609L27.4002 26.6609C26.8002 25.8609 26.8002 24.8609 27.4002 24.2609C29.6002 22.0609 29.6002 18.4609 27.4002 16.2609L21.2002 9.86094C19.0002 7.66094 15.4002 7.66094 13.2002 9.86094L11.6002 11.4609C7.20024 15.6609 6.40024 22.2609 9.80024 27.4609C17.0002 38.2609 26.2002 47.2609 36.8002 54.4609C39.0002 55.8609 41.4002 56.4609 43.8002 56.4609C47.0002 56.4609 50.4002 55.2609 52.6002 52.8609L54.2002 51.2609C56.4002 49.0609 56.4002 45.4609 54.2002 43.2609ZM51.6002 48.2609L50.0002 49.8609C47.2002 52.8609 42.6002 53.2609 39.0002 51.0609C28.8002 44.2609 20.0002 35.4609 13.2002 25.2609C11.0002 21.8609 11.4002 17.2609 14.4002 14.2609L15.8002 12.6609C16.6002 12.0609 17.6002 12.0609 18.2002 12.6609L24.6002 19.2609C25.2002 19.8609 25.2002 20.8609 24.6002 21.4609C22.4002 23.6609 22.4002 27.2609 24.6002 29.4609L34.8002 39.4609C37.0002 41.6609 40.6002 41.6609 42.8002 39.4609C43.6002 38.8609 44.6002 38.8609 45.2002 39.4609L51.6002 45.8609C52.2002 46.6609 52.2002 47.6609 51.6002 48.2609Z" fill="#2D373D"/>
</svg>
