<svg width="24" height="25" viewBox="0 0 24 25" fill="none" xmlns="http://www.w3.org/2000/svg">
<path d="M11.9252 20.9361C10.1252 20.9361 8.47519 20.4111 7.05019 19.3611L7.65019 16.2861H8.25019C8.70019 16.2861 9.00019 15.9861 9.00019 15.5361C9.00019 15.0861 8.70019 14.7861 8.25019 14.7861H7.05019C6.67519 14.7861 6.37519 15.0111 6.30019 15.3861L5.7002 18.2361C5.6252 18.1611 5.5502 18.0861 5.4752 18.0111C5.4002 17.9361 5.3252 17.8611 5.2502 17.7861C5.1752 17.6361 5.02519 17.4861 4.9502 17.3361C4.8752 17.2611 4.8002 17.1111 4.7252 17.0361C4.6502 16.8861 4.5752 16.7361 4.4252 16.5861C4.5002 16.4361 4.4252 16.3611 4.3502 16.2111C4.2752 16.0611 4.2002 15.9111 4.1252 15.8361C4.0502 15.6111 3.9752 15.4611 3.9002 15.2361C3.9002 15.1611 3.8252 15.0861 3.8252 15.0111C3.4502 13.8861 3.3752 12.6861 3.5252 11.4111V11.3361H7.3502C7.5752 11.3361 7.72519 11.4861 7.80019 11.7111L8.17519 13.2111C8.25019 13.6611 8.70019 13.8861 9.07519 13.8111C9.45019 13.6611 9.75019 13.2861 9.67519 12.9111L9.30019 11.4111C9.07519 10.5111 8.2502 9.91113 7.3502 9.91113H3.8252C4.8752 6.46113 8.17519 3.91113 12.0752 3.91113C14.1752 3.91113 16.2002 4.73613 17.8502 6.16113H16.0502C15.1502 6.16113 14.3252 6.76113 14.1002 7.66113L13.9502 8.56113C13.8002 8.93613 14.1002 9.38613 14.4752 9.46113C14.4752 9.46113 14.5502 9.46113 14.6252 9.46113C15.0002 9.46113 15.3002 9.23613 15.3752 8.93613L15.6002 8.03613C15.6002 7.81113 15.8252 7.66113 16.0502 7.66113H19.1252C20.0252 9.08613 20.5502 10.7361 20.5502 12.4611H22.0502C22.0502 9.76113 21.0002 7.21113 19.1252 5.33613C17.1752 3.46113 14.7002 2.41113 12.0002 2.41113C6.45019 2.41113 1.9502 6.91113 1.9502 12.4611C1.9502 15.1611 3.0002 17.6361 4.8752 19.5861C6.82519 21.4611 9.30019 22.5111 12.0002 22.5111C12.3752 22.5111 12.7502 22.1361 12.6752 21.6861C12.6752 21.2361 12.3752 20.9361 11.9252 20.9361Z" fill="#2D373D"/>
<path d="M19.2001 18.6111C19.8001 17.7861 20.1751 16.7361 20.1751 15.5361C20.1751 12.6861 17.8501 10.4361 15.0751 10.4361C12.3001 10.4361 10.0501 12.6861 9.97507 15.4611V15.5361C9.97507 18.3861 12.3001 20.6361 15.0751 20.6361C16.2001 20.6361 17.2501 20.2611 18.1501 19.6611L20.7751 22.2861C20.9251 22.4361 21.0751 22.5111 21.3001 22.5111C21.4501 22.5111 21.6751 22.4361 21.8251 22.2861C22.1251 21.9861 22.1251 21.5361 21.8251 21.2361L19.2001 18.6111ZM11.5501 15.6111C11.5501 13.5861 13.1251 11.9361 15.1501 11.9361C17.1751 11.9361 18.7501 13.5861 18.7501 15.5361C18.7501 16.5111 18.3751 17.3361 17.7751 18.0111C17.7001 18.0111 17.7001 18.0861 17.6251 18.0861C17.6251 18.0861 17.5501 18.1611 17.5501 18.2361C16.8751 18.8361 16.0501 19.1361 15.1501 19.1361C13.2001 19.1361 11.5501 17.5611 11.5501 15.6111Z" fill="#2D373D"/>
</svg>
