<svg width="32" height="33" viewBox="0 0 32 33" fill="none" xmlns="http://www.w3.org/2000/svg">
<path fill-rule="evenodd" clip-rule="evenodd" d="M23.8776 4.10752C24.4663 4.10354 25.0501 4.21625 25.595 4.43914C26.14 4.66203 26.6354 4.9907 27.0526 5.40614L27.0554 5.4089C27.471 5.82599 27.7998 6.32132 28.0228 6.86626C28.2458 7.41121 28.3586 7.99494 28.3546 8.58373C28.3506 9.17253 28.2299 9.75469 27.9996 10.2966C27.77 10.8365 27.4361 11.3258 27.017 11.7363L13.2459 25.5074C13.1192 25.6341 12.9608 25.7244 12.7872 25.7689L6.22747 27.4514C5.88513 27.5392 5.52188 27.4398 5.27197 27.1899C5.02205 26.94 4.92259 26.5768 5.01034 26.2344L6.69184 19.6747C6.73635 19.5011 6.82669 19.3426 6.95342 19.2159L20.7246 5.4447C21.1353 5.02567 21.6247 4.69183 22.1648 4.46236C22.7067 4.23211 23.2888 4.11151 23.8776 4.10752ZM24.8379 6.29029C24.5375 6.16741 24.2157 6.10528 23.8911 6.10748C23.5665 6.10968 23.2456 6.17616 22.9469 6.30309C22.6482 6.43002 22.3775 6.61489 22.1506 6.847L22.1427 6.85516L8.56122 20.4365L7.36726 25.0943L12.0252 23.8997L25.615 10.3099C25.8471 10.0832 26.032 9.81271 26.159 9.5141C26.2859 9.21548 26.3524 8.89466 26.3546 8.57019C26.3568 8.24572 26.2947 7.92403 26.1718 7.62373C26.0491 7.32401 25.8684 7.05153 25.64 6.82197C25.4103 6.59361 25.1377 6.41291 24.8379 6.29029Z" fill="#2D373D"/>
<path fill-rule="evenodd" clip-rule="evenodd" d="M20.335 5.83513C20.7256 5.44461 21.3587 5.44461 21.7493 5.83513L26.6266 10.7124C27.0171 11.103 27.0171 11.7361 26.6266 12.1266C26.236 12.5172 25.6029 12.5172 25.2123 12.1266L20.335 7.24934C19.9445 6.85882 19.9445 6.22565 20.335 5.83513Z" fill="#2D373D"/>
<path fill-rule="evenodd" clip-rule="evenodd" d="M6.95342 19.2159C7.3436 18.825 7.97708 18.8241 8.36794 19.2143L13.25 24.0878C13.6409 24.478 13.6414 25.1112 13.2512 25.502C12.8611 25.8929 12.2279 25.8934 11.837 25.5033L6.95497 20.6298C6.5641 20.2396 6.56324 19.6068 6.95342 19.2159Z" fill="#2D373D"/>
</svg>
