<svg width="64" height="64" viewBox="0 0 64 64" fill="none" xmlns="http://www.w3.org/2000/svg">
<path d="M31.9999 5.2002C21.7999 5.2002 13.3999 13.6002 13.3999 23.8002C13.3999 32.8002 18.5999 38.4002 23.3999 43.2002C23.9999 43.8002 24.5999 44.4002 25.1999 45.0002C27.1999 46.8002 29.1999 53.4002 29.9999 57.2002C30.1999 58.2002 30.9999 58.8002 31.9999 58.8002C32.7999 58.8002 33.5999 58.2002 33.9999 57.4002C34.9999 53.6002 36.9999 47.0002 38.7999 45.0002C39.3999 44.2002 39.9999 43.6002 40.5999 43.0002C45.1999 38.2002 50.5999 32.8002 50.5999 23.8002C50.5999 13.6002 42.1999 5.2002 31.9999 5.2002ZM37.5999 40.4002C36.9999 41.0002 36.3999 41.8002 35.7999 42.4002C34.1999 44.0002 32.9999 47.0002 31.9999 49.8002C30.9999 47.0002 29.5999 44.0002 28.1999 42.4002C27.5999 41.8002 26.9999 41.0002 26.3999 40.4002C21.9999 35.8002 17.3999 31.2002 17.3999 23.8002C17.3999 15.8002 23.9999 9.2002 31.9999 9.2002C39.9999 9.2002 46.3999 15.8002 46.3999 23.8002C46.3999 31.2002 41.9999 35.8002 37.5999 40.4002Z" fill="#2D373D"/>
<path d="M31.9999 15.2002C27.1999 15.2002 23.3999 19.0002 23.3999 23.8002C23.3999 28.4002 27.1999 32.4002 31.9999 32.4002C36.5999 32.4002 40.5999 28.4002 40.5999 23.8002C40.5999 19.0002 36.7999 15.2002 31.9999 15.2002ZM31.9999 28.4002C29.3999 28.4002 27.3999 26.4002 27.3999 23.8002C27.3999 21.2002 29.3999 19.2002 31.9999 19.2002C34.3999 19.2002 36.5999 21.2002 36.5999 23.8002C36.5999 26.4002 34.5999 28.4002 31.9999 28.4002Z" fill="#2D373D"/>
</svg>
