<svg width="64" height="65" viewBox="0 0 64 65" fill="none" xmlns="http://www.w3.org/2000/svg">
<path d="M21.4213 10.2539C15.7325 10.2539 10.4057 13.1451 8.53304 14.5495C7.64935 15.2122 6.39576 15.033 5.73306 14.1494C5.07037 13.2657 5.24952 12.0121 6.13321 11.3494C8.43479 9.62338 14.5873 6.25391 21.4213 6.25391C28.2552 6.25391 34.4077 9.62338 36.7093 11.3494C37.593 12.0121 37.7722 13.2657 37.1095 14.1494C36.4468 15.033 35.1932 15.2122 34.3095 14.5495C32.4368 13.1451 27.1101 10.2539 21.4213 10.2539Z" fill="#2D373D"/>
<path fill-rule="evenodd" clip-rule="evenodd" d="M42.4891 40.5668C47.1779 40.5668 50.9789 36.7658 50.9789 32.077C50.9789 27.3883 47.1779 23.5872 42.4891 23.5872C37.8004 23.5872 33.9993 27.3883 33.9993 32.077C33.9993 36.7658 37.8004 40.5668 42.4891 40.5668ZM42.4891 36.5668C44.9688 36.5668 46.9789 34.5567 46.9789 32.077C46.9789 29.5974 44.9688 27.5872 42.4891 27.5872C40.0095 27.5872 37.9993 29.5974 37.9993 32.077C37.9993 34.5567 40.0095 36.5668 42.4891 36.5668Z" fill="#2D373D"/>
<path fill-rule="evenodd" clip-rule="evenodd" d="M26.6553 46.1445C24.7016 46.1445 23.1178 47.7283 23.1178 49.6819C23.1178 51.6356 24.7016 53.2194 26.6553 53.2194C28.6089 53.2194 30.1927 51.6356 30.1927 49.6819C30.1927 47.7283 28.6089 46.1445 26.6553 46.1445ZM25.9478 49.6819C25.9478 49.2912 26.2645 48.9745 26.6553 48.9745C27.046 48.9745 27.3627 49.2912 27.3627 49.6819C27.3627 50.0727 27.046 50.3894 26.6553 50.3894C26.2645 50.3894 25.9478 50.0727 25.9478 49.6819Z" fill="#2D373D"/>
<path fill-rule="evenodd" clip-rule="evenodd" d="M10.9848 43.7045C10.2002 41.8393 11.5698 39.7773 13.5933 39.7773H33.7872C34.9261 39.7773 35.9541 40.4602 36.3957 41.51L42.3476 55.6597C43.1322 57.5249 41.7625 59.5869 39.739 59.5869H19.5452C18.4062 59.5869 17.3783 58.9041 16.9366 57.8542L10.9848 43.7045ZM20.3224 55.5869L15.3549 43.7773H33.01L37.9775 55.5869H20.3224Z" fill="#2D373D"/>
<path d="M41.3327 41.5872C40.2281 41.5872 39.3327 42.4827 39.3327 43.5872C39.3327 44.6918 40.2281 45.5872 41.3327 45.5872C46.4656 45.5872 49.7349 47.4076 51.7447 49.7052C53.2807 51.4612 54.1571 53.5846 54.5033 55.598H46.666C45.5614 55.598 44.666 56.4934 44.666 57.598C44.666 58.7025 45.5614 59.598 46.666 59.598H56.6775C57.7821 59.598 58.6775 58.7025 58.6775 57.598C58.6775 54.2445 57.5386 50.2534 54.7553 47.0716C51.9227 43.8333 47.5195 41.5872 41.3327 41.5872Z" fill="#2D373D"/>
<path d="M14.7944 21.8532C15.7395 21.1445 18.5153 19.6445 21.4213 19.6445C24.3272 19.6445 27.103 21.1445 28.0481 21.8532C28.9318 22.5159 30.1854 22.3368 30.8481 21.4531C31.5108 20.5694 31.3316 19.3158 30.4479 18.6531C29.074 17.6227 25.4724 15.6445 21.4213 15.6445C17.3701 15.6445 13.7686 17.6227 12.3946 18.6531C11.5109 19.3158 11.3318 20.5694 11.9945 21.4531C12.6572 22.3368 13.9107 22.5159 14.7944 21.8532Z" fill="#2D373D"/>
</svg>
