<svg width="16" height="17" viewBox="0 0 16 17" fill="none" xmlns="http://www.w3.org/2000/svg">
<path d="M12.6611 4.6654C12.6611 4.94155 12.885 5.1654 13.1611 5.1654C13.4373 5.1654 13.6611 4.94154 13.6611 4.6654L13.6611 2.75391C13.6611 2.47776 13.4373 2.25391 13.1611 2.25391H11.2497C10.9735 2.25391 10.7497 2.47776 10.7497 2.75391C10.7497 3.03005 10.9735 3.25391 11.2497 3.25391L12.6611 3.25391L12.6611 4.6654Z" fill="#2D373D"/>
<path d="M8.07944 3.62741C8.0079 3.57419 7.93646 3.57833 7.88229 3.6146C6.73756 4.38092 3.53723 6.64061 2.17264 7.90026C1.96973 8.08756 1.6534 8.07491 1.4661 7.872C1.2788 7.66909 1.29145 7.35276 1.49435 7.16546C2.92321 5.8465 6.1843 3.54791 7.32599 2.78361C7.7516 2.49869 8.28462 2.53368 8.67632 2.82508L14.4653 7.1317C14.6868 7.29652 14.7328 7.60974 14.568 7.8313C14.4032 8.05286 14.0899 8.09885 13.8684 7.93402L8.07944 3.62741Z" fill="#2D373D"/>
<path d="M12.6668 7.86722C12.943 7.86722 13.1668 8.09108 13.1668 8.36722V14.3242C13.1668 15.0228 12.6005 15.5892 11.9018 15.5892L4.09853 15.5893C3.39987 15.5893 2.8335 15.0229 2.8335 14.3243V8.3673C2.8335 8.09116 3.05735 7.8673 3.3335 7.8673C3.60964 7.8673 3.8335 8.09116 3.8335 8.3673V14.3243C3.8335 14.4706 3.95216 14.5893 4.09853 14.5893L11.9018 14.5892C12.0482 14.5892 12.1668 14.4706 12.1668 14.3242V8.36722C12.1668 8.09108 12.3907 7.86722 12.6668 7.86722Z" fill="#2D373D"/>
<path d="M7.18703 7.56706C7.38229 7.76232 7.38229 8.0789 7.18703 8.27416L7.18614 8.27505C7.09125 8.36993 6.44181 9.01925 6.94735 10.0303C7.33547 10.8066 7.22416 11.542 7.03249 12.0562C6.9369 12.3127 6.81917 12.5216 6.72535 12.6669C6.67815 12.7399 6.63617 12.7982 6.60474 12.8396C6.589 12.8604 6.57582 12.877 6.56587 12.8893L6.55341 12.9045L6.54912 12.9096L6.54748 12.9115L6.54679 12.9123L6.5462 12.913C6.36631 13.1225 6.05064 13.1465 5.84113 12.9666C5.63228 12.7873 5.60775 12.4731 5.78576 12.2636L5.7888 12.2599C5.79243 12.2554 5.79902 12.2471 5.808 12.2353C5.82601 12.2115 5.85329 12.1739 5.88535 12.1243C5.95006 12.0241 6.0309 11.8802 6.09546 11.707C6.22411 11.3618 6.27944 10.9306 6.05293 10.4775C5.22673 8.82516 6.34936 7.69761 6.47992 7.56706C6.67518 7.3718 6.99176 7.3718 7.18703 7.56706Z" fill="#2D373D"/>
<path d="M10.187 8.27416C10.3823 8.0789 10.3823 7.76232 10.187 7.56706C9.99176 7.3718 9.67518 7.3718 9.47992 7.56706C9.34936 7.69761 8.22673 8.82516 9.05293 10.4775C9.27944 10.9306 9.22411 11.3618 9.09546 11.707C9.0309 11.8802 8.95006 12.0241 8.88535 12.1243C8.85329 12.1739 8.82601 12.2115 8.808 12.2353C8.79902 12.2471 8.79243 12.2554 8.7888 12.2599L8.78576 12.2636C8.60775 12.4731 8.63229 12.7873 8.84113 12.9666C9.05064 13.1465 9.36631 13.1225 9.5462 12.913L9.54679 12.9123L9.54748 12.9115L9.54912 12.9096L9.55341 12.9045L9.56587 12.8893C9.57582 12.877 9.589 12.8604 9.60474 12.8396C9.63617 12.7982 9.67815 12.7399 9.72535 12.6669C9.81917 12.5216 9.9369 12.3127 10.0325 12.0562C10.2242 11.542 10.3355 10.8066 9.94735 10.0303C9.44181 9.01925 10.0912 8.36993 10.1861 8.27505L10.187 8.27416Z" fill="#2D373D"/>
</svg>
