<svg width="16" height="17" viewBox="0 0 16 17" fill="none" xmlns="http://www.w3.org/2000/svg">
<path d="M13.5 12.3006L12.5333 12.3606V9.3006H13.5133C13.6459 9.3006 13.7731 9.24792 13.8669 9.15415C13.9607 9.06038 14.0133 8.93321 14.0133 8.8006C14.0133 8.66799 13.9607 8.54081 13.8669 8.44705C13.7731 8.35328 13.6459 8.3006 13.5133 8.3006H12.52C12.2731 8.30079 12.0352 8.39356 11.8533 8.5606L9.76667 7.80727C9.58843 7.74665 9.40159 7.71513 9.21333 7.71393C8.95381 7.70785 8.69697 7.76748 8.46667 7.88727L7.35333 8.44727C7.11085 8.28404 6.82563 8.19593 6.53333 8.19393C6.3392 8.1911 6.14648 8.22738 5.96667 8.3006L4.38 8.92727C4.31321 8.74123 4.18987 8.58077 4.02727 8.46838C3.86467 8.356 3.67097 8.29732 3.47333 8.3006H2.5C2.36739 8.3006 2.24021 8.35328 2.14645 8.44705C2.05268 8.54081 2 8.66799 2 8.8006C2 8.93321 2.05268 9.06038 2.14645 9.15415C2.24021 9.24792 2.36739 9.3006 2.5 9.3006L3.46667 9.24727V12.2939H2.5C2.36739 12.2939 2.24021 12.3466 2.14645 12.4404C2.05268 12.5341 2 12.6613 2 12.7939C2 12.9265 2.05268 13.0537 2.14645 13.1475C2.24021 13.2413 2.36739 13.2939 2.5 13.2939H3.48C3.72592 13.2949 3.96346 13.2047 4.14667 13.0406L4.19333 12.9806H4.91333L6.48 14.7273C6.58766 14.8452 6.71957 14.9385 6.86667 15.0006C7.01118 15.0679 7.16742 15.1064 7.32666 15.1139C7.43169 15.1136 7.53407 15.081 7.62 15.0206C8.27977 14.5408 8.91397 14.0267 9.52 13.4806L11.84 13.0273C12.0215 13.1949 12.2596 13.2877 12.5067 13.2873H13.4933C13.6259 13.2873 13.7531 13.2346 13.8469 13.1408C13.9407 13.0471 13.9933 12.9199 13.9933 12.7873C13.9933 12.6547 13.9407 12.5275 13.8469 12.4337C13.7531 12.3399 13.6259 12.2873 13.4933 12.2873L13.5 12.3006ZM8.90667 8.78727C8.99557 8.7426 9.09384 8.71975 9.19333 8.7206C9.26791 8.72086 9.34203 8.73209 9.41333 8.75393L11.5267 9.5206V12.0739L10.6267 12.2473C10.6411 11.9803 10.5529 11.7179 10.38 11.5139L9.57333 10.4873C9.68494 10.4294 9.77024 10.3311 9.81182 10.2125C9.8534 10.0938 9.84813 9.96381 9.79707 9.84894C9.74602 9.73406 9.65303 9.64301 9.53711 9.59438C9.42119 9.54574 9.29107 9.5432 9.17333 9.58727L7.48 10.1406C7.41141 10.1674 7.33526 10.1674 7.26667 10.1406C7.23323 10.1261 7.20303 10.1051 7.17785 10.0787C7.15266 10.0524 7.13299 10.0213 7.12 9.98727C7.10532 9.95362 7.09774 9.91731 7.09774 9.8806C7.09774 9.84389 7.10532 9.80758 7.12 9.77393C7.14827 9.70483 7.20028 9.64809 7.26667 9.61393L7.5 9.49393L8.90667 8.78727ZM7.23333 14.0739L5.51333 12.1606C5.46551 12.1096 5.40765 12.0691 5.3434 12.0416C5.27915 12.014 5.2099 12.0001 5.14 12.0006H4.47333V10.0006L6.26667 9.29393C6.26667 9.35393 6.20667 9.41393 6.18 9.47393C6.082 9.78359 6.1004 10.1184 6.23174 10.4154C6.36308 10.7125 6.59833 10.9514 6.89333 11.0873C7.0561 11.1551 7.23033 11.1913 7.40667 11.1939C7.54759 11.1929 7.68732 11.1681 7.82 11.1206L8.6 10.8673L9.58667 12.1273C8.84951 12.8313 8.06307 13.4818 7.23333 14.0739Z" fill="#2D373D"/>
<path d="M7.94 7.33393H8.04C9.69333 7.33393 11.04 6.0006 11.42 5.54727C11.5789 5.36801 11.6666 5.13679 11.6666 4.89727C11.6666 4.65775 11.5789 4.42652 11.42 4.24727C10.64 3.37393 9.33333 2.44727 8 2.44727C6.66667 2.44727 5.33333 3.35393 4.58 4.22727C4.41178 4.40851 4.3183 4.64665 4.3183 4.89393C4.3183 5.14121 4.41178 5.37935 4.58 5.5606C4.95333 5.96727 6.30667 7.33393 7.94 7.33393ZM7.94 3.46727H8.02C9.04353 3.59281 9.98297 4.09702 10.6533 4.8806C10.3294 5.28972 9.9263 5.6293 9.4681 5.87901C9.0099 6.12873 8.50604 6.28346 7.98667 6.33393C6.94633 6.22739 5.98909 5.71766 5.32 4.91393C5.97804 4.10633 6.92519 3.58731 7.96 3.46727H7.94Z" fill="#2D373D"/>
<path d="M7.32 4.9206C7.32074 5.09549 7.39017 5.26309 7.51333 5.38727C7.57508 5.45026 7.6487 5.50037 7.72995 5.5347C7.8112 5.56903 7.89846 5.5869 7.98667 5.58727C8.16348 5.58727 8.33305 5.51703 8.45807 5.392C8.5831 5.26698 8.65333 5.09741 8.65333 4.9206C8.65384 4.83286 8.63702 4.74589 8.60385 4.66466C8.57067 4.58344 8.52179 4.50956 8.46 4.44727C8.39771 4.38548 8.32383 4.33659 8.2426 4.30342C8.16138 4.27024 8.0744 4.25342 7.98667 4.25393C7.80986 4.25393 7.64029 4.32417 7.51526 4.44919C7.39024 4.57422 7.32 4.74379 7.32 4.9206Z" fill="#2D373D"/>
</svg>
