<svg width="24" height="24" viewBox="0 0 24 24" fill="none" xmlns="http://www.w3.org/2000/svg">
<path d="M21.9449 9.48751C21.8442 8.97345 21.6146 8.49341 21.2774 8.09251C20.1334 6.77382 18.7085 5.7282 17.1074 5.03251C15.5141 4.34123 13.7885 4.00838 12.0524 4.05751C10.3061 4.00518 8.57 4.34136 6.96947 5.04175C5.36894 5.74215 3.94394 6.78928 2.79741 8.10751C2.47581 8.50828 2.25488 8.98025 2.1531 9.48392C2.05132 9.98759 2.07166 10.5083 2.21241 11.0025L3.87741 16.83C3.95991 17.1241 4.11164 17.3941 4.31991 17.6175C4.50939 17.8259 4.7413 17.9912 5.00003 18.1025C5.25877 18.2138 5.53833 18.2683 5.81991 18.2625H5.99241C6.28126 18.2236 6.55789 18.1211 6.80241 17.9625C7.25473 17.6974 7.72897 17.4716 8.21991 17.2875V19.26C8.21991 19.4589 8.29892 19.6497 8.43958 19.7903C8.58023 19.931 8.77099 20.01 8.96991 20.01C9.16882 20.01 9.35958 19.931 9.50024 19.7903C9.64089 19.6497 9.71991 19.4589 9.71991 19.26V16.8C10.4858 16.634 11.269 16.561 12.0524 16.5825C12.8259 16.5604 13.5992 16.6334 14.3549 16.8V19.23C14.3549 19.4289 14.4339 19.6197 14.5746 19.7603C14.7152 19.901 14.906 19.98 15.1049 19.98C15.3038 19.98 15.4946 19.901 15.6352 19.7603C15.7759 19.6197 15.8549 19.4289 15.8549 19.23V17.2875C16.3555 17.4716 16.8397 17.6974 17.3024 17.9625C17.5604 18.1259 17.8534 18.2261 18.1574 18.255C18.4632 18.2807 18.7708 18.2372 19.0574 18.1275C19.3438 18.0183 19.6006 17.8437 19.8074 17.6175C20.0157 17.3941 20.1674 17.1241 20.2499 16.83L21.9224 11.0025C22.0498 10.5064 22.0575 9.98716 21.9449 9.48751V9.48751ZM20.4449 10.59L18.8024 16.4175C18.7794 16.486 18.7438 16.5496 18.6974 16.605C18.6475 16.6584 18.5859 16.6995 18.5174 16.725C18.4435 16.7431 18.3663 16.7431 18.2924 16.725C18.2105 16.7374 18.1267 16.7243 18.0524 16.6875C17.3594 16.2642 16.6226 15.9172 15.8549 15.6525V11.85L16.4174 12.4125C16.4873 12.4819 16.5703 12.5369 16.6614 12.5743C16.7526 12.6117 16.8503 12.6308 16.9488 12.6304C17.0474 12.6301 17.1449 12.6103 17.2358 12.5723C17.3267 12.5343 17.4092 12.4787 17.4787 12.4088C17.5481 12.3388 17.6031 12.2559 17.6405 12.1647C17.6779 12.0736 17.6969 11.9759 17.6966 11.8774C17.6962 11.7788 17.6765 11.6813 17.6384 11.5904C17.6004 11.4995 17.5448 11.4169 17.4749 11.3475L15.6299 9.51001C15.563 9.44334 15.4841 9.3899 15.3974 9.35251C15.3059 9.31435 15.2078 9.2947 15.1087 9.2947C15.0095 9.2947 14.9114 9.31435 14.8199 9.35251C14.7337 9.3908 14.6549 9.44413 14.5874 9.51001V9.51001L12.7424 11.3475C12.6721 11.4172 12.6163 11.5002 12.5782 11.5916C12.5402 11.683 12.5206 11.781 12.5206 11.88C12.5206 11.979 12.5402 12.077 12.5782 12.1684C12.6163 12.2598 12.6721 12.3428 12.7424 12.4125C12.8829 12.5522 13.073 12.6306 13.2712 12.6306C13.4693 12.6306 13.6594 12.5522 13.7999 12.4125L14.3699 11.85V15.255C13.6064 15.1102 12.8289 15.0524 12.0524 15.0825C11.2659 15.0535 10.4787 15.1114 9.70491 15.255V11.85L10.2749 12.4125C10.4146 12.5511 10.6032 12.6292 10.7999 12.63C10.8986 12.6306 10.9965 12.6117 11.0878 12.5743C11.1792 12.537 11.2623 12.482 11.3324 12.4125C11.4027 12.3428 11.4585 12.2598 11.4966 12.1684C11.5347 12.077 11.5543 11.979 11.5543 11.88C11.5543 11.781 11.5347 11.683 11.4966 11.5916C11.4585 11.5002 11.4027 11.4172 11.3324 11.3475L9.50241 9.51001C9.43532 9.44905 9.35948 9.39849 9.27741 9.36001C9.18592 9.32185 9.08778 9.3022 8.98866 9.3022C8.88953 9.3022 8.79139 9.32185 8.69991 9.36001C8.61784 9.39849 8.54199 9.44905 8.47491 9.51001L6.59991 11.3475C6.52961 11.4172 6.47381 11.5002 6.43574 11.5916C6.39766 11.683 6.37806 11.781 6.37806 11.88C6.37806 11.979 6.39766 12.077 6.43574 12.1684C6.47381 12.2598 6.52961 12.3428 6.59991 12.4125C6.74043 12.5522 6.93052 12.6306 7.12866 12.6306C7.3268 12.6306 7.51689 12.5522 7.65741 12.4125L8.21991 11.85V15.6525C7.46203 15.9179 6.73526 16.265 6.05241 16.6875C5.98983 16.7287 5.91724 16.752 5.84241 16.755C5.77104 16.7731 5.69628 16.7731 5.62491 16.755C5.55643 16.7295 5.49482 16.6884 5.44491 16.635C5.38149 16.5743 5.33276 16.4999 5.30241 16.4175L3.64491 10.59C3.5776 10.3267 3.5776 10.0508 3.64491 9.78751C3.69644 9.52845 3.80678 9.28469 3.96741 9.07501C4.93476 7.96554 6.12905 7.07669 7.46953 6.46855C8.81001 5.86042 10.2654 5.54718 11.7374 5.55001H12.0524C13.5732 5.49593 15.0869 5.78081 16.484 6.38399C17.881 6.98718 19.1264 7.89357 20.1299 9.03751C20.3047 9.25542 20.4232 9.51299 20.4749 9.78751C20.5324 10.0533 20.5221 10.3293 20.4449 10.59Z" fill="#2D373D"/>
</svg>
