<svg width="64" height="65" viewBox="0 0 64 65" fill="none" xmlns="http://www.w3.org/2000/svg">
<path d="M56.0798 37.8209C54.386 35.734 52.0408 34.2762 49.4198 33.6809H49.2598C37.9698 31.5109 26.3698 31.5109 15.0798 33.6809H14.8798C12.252 34.2574 9.90124 35.7174 8.21974 37.8175C6.53823 39.9176 5.62761 42.5307 5.63977 45.2209V47.2209C5.64475 48.5954 6.18749 49.9132 7.15185 50.8925C8.11622 51.8719 9.42559 52.4348 10.7998 52.4609H18.9798C20.3748 52.4609 21.7127 51.9068 22.6992 50.9203C23.6856 49.9339 24.2398 48.596 24.2398 47.2009C24.2449 46.8631 24.3814 46.5405 24.6204 46.3015C24.8593 46.0626 25.1819 45.9261 25.5198 45.9209H38.5998C38.9378 45.9258 39.2606 46.0621 39.4998 46.3009C39.6162 46.4198 39.708 46.5605 39.7698 46.7149C39.8316 46.8694 39.8622 47.0346 39.8598 47.2009C39.8638 48.5952 40.4171 49.9318 41.3998 50.9209C41.89 51.4126 42.4731 51.802 43.1152 52.0663C43.7572 52.3307 44.4454 52.4648 45.1398 52.4609H53.2998C53.9941 52.4648 54.6823 52.3307 55.3243 52.0663C55.9664 51.802 56.5495 51.4126 57.0398 50.9209C58.0224 49.9318 58.5757 48.5952 58.5798 47.2009V45.2009C58.5998 42.5298 57.7191 39.9299 56.0798 37.8209ZM54.6798 47.1609C54.6771 47.4994 54.5404 47.823 54.2998 48.0609C54.181 48.1774 54.0402 48.2692 53.8858 48.3309C53.7313 48.3927 53.5661 48.4233 53.3998 48.4209H45.1398C44.9734 48.4233 44.8082 48.3927 44.6538 48.3309C44.4993 48.2692 44.3586 48.1774 44.2398 48.0609C43.9991 47.823 43.8625 47.4994 43.8598 47.1609C43.8545 45.7657 43.2993 44.4287 42.3146 43.4402C41.3298 42.4518 39.995 41.8915 38.5998 41.8809H25.5198C24.121 41.8862 22.7811 42.4442 21.7921 43.4332C20.803 44.4223 20.245 45.7622 20.2398 47.1609C20.2424 47.4965 20.1131 47.8197 19.8798 48.0609C19.7609 48.1774 19.6202 48.2692 19.4658 48.3309C19.3113 48.3927 19.1461 48.4233 18.9798 48.4209H10.7998C10.6334 48.4233 10.4682 48.3927 10.3138 48.3309C10.1593 48.2692 10.0186 48.1774 9.89977 48.0609C9.66642 47.8197 9.53714 47.4965 9.53977 47.1609V45.1609C9.53497 43.3788 10.1421 41.6491 11.2598 40.2609C12.3498 38.9137 13.8545 37.9645 15.5398 37.5609C26.3982 35.4508 37.5613 35.4508 48.4198 37.5609C50.1316 37.9632 51.6566 38.9336 52.7462 40.3138C53.8358 41.6939 54.4257 43.4025 54.4198 45.1609L54.6798 47.1609Z" fill="#2D373D"/>
<path d="M32.0798 27.9009C32.6102 27.9009 33.1189 27.6902 33.494 27.3152C33.8691 26.9401 34.0798 26.4314 34.0798 25.9009V14.4609C34.0798 13.9305 33.8691 13.4218 33.494 13.0467C33.1189 12.6717 32.6102 12.4609 32.0798 12.4609C31.5493 12.4609 31.0406 12.6717 30.6656 13.0467C30.2905 13.4218 30.0798 13.9305 30.0798 14.4609V25.9009C30.0798 26.4314 30.2905 26.9401 30.6656 27.3152C31.0406 27.6902 31.5493 27.9009 32.0798 27.9009Z" fill="#2D373D"/>
<path d="M18.8998 26.9409C19.0793 27.2358 19.332 27.4791 19.6334 27.6474C19.9348 27.8156 20.2746 27.9029 20.6198 27.9009C20.9787 27.9008 21.3311 27.8041 21.6398 27.6209C22.0925 27.3471 22.4183 26.905 22.5457 26.3914C22.6732 25.8778 22.5919 25.3347 22.3198 24.8809L17.4198 16.7009C17.3163 16.4241 17.1528 16.1737 16.941 15.9676C16.7292 15.7616 16.4744 15.605 16.1949 15.5092C15.9153 15.4133 15.618 15.3806 15.3244 15.4134C15.0307 15.4462 14.7479 15.5437 14.4964 15.6988C14.2449 15.8539 14.0309 16.0629 13.8698 16.3106C13.7087 16.5583 13.6044 16.8386 13.5646 17.1314C13.5247 17.4242 13.5503 17.7222 13.6394 18.004C13.7284 18.2857 13.8788 18.5443 14.0798 18.7609L18.8998 26.9409Z" fill="#2D373D"/>
<path d="M42.4798 27.6209C42.786 27.81 43.14 27.9071 43.4998 27.9009C43.8449 27.9029 44.1847 27.8156 44.4862 27.6474C44.7876 27.4791 45.0403 27.2358 45.2198 26.9409L50.0798 18.7609C50.2837 18.3098 50.313 17.799 50.162 17.3274C50.011 16.8559 49.6905 16.4571 49.2625 16.2082C48.8345 15.9594 48.3293 15.8781 47.8449 15.9802C47.3604 16.0823 46.931 16.3605 46.6398 16.7609L41.7398 24.9409C41.4915 25.3964 41.4299 25.9305 41.5679 26.4306C41.706 26.9306 42.033 27.3574 42.4798 27.6209Z" fill="#2D373D"/>
</svg>
