<svg width="64" height="65" viewBox="0 0 64 65" fill="none" xmlns="http://www.w3.org/2000/svg">
<path d="M19.4837 22.2833C18.3792 22.2833 17.4837 23.1787 17.4837 24.2833C17.4837 25.3879 18.3792 26.2833 19.4837 26.2833H44.1694C45.274 26.2833 46.1694 25.3879 46.1694 24.2833C46.1694 23.1787 45.274 22.2833 44.1694 22.2833H19.4837Z" fill="#2D373D"/>
<path d="M17.4837 34.0966C17.4837 32.9921 18.3792 32.0966 19.4837 32.0966H44.1694C45.274 32.0966 46.1694 32.9921 46.1694 34.0966C46.1694 35.2012 45.274 36.0966 44.1694 36.0966H19.4837C18.3792 36.0966 17.4837 35.2012 17.4837 34.0966Z" fill="#2D373D"/>
<path d="M19.4837 41.91C18.3792 41.91 17.4837 42.8054 17.4837 43.91C17.4837 45.0145 18.3792 45.91 19.4837 45.91H31.8266C32.9312 45.91 33.8266 45.0145 33.8266 43.91C33.8266 42.8054 32.9312 41.91 31.8266 41.91H19.4837Z" fill="#2D373D"/>
<path fill-rule="evenodd" clip-rule="evenodd" d="M48.2017 7.45727C47.2515 6.48714 45.9573 5.92725 44.5904 5.92773H13.2586C11.8691 5.92773 10.5563 6.50657 9.6033 7.50455C8.65325 8.4994 8.13477 9.82983 8.13477 11.1988V53.7233C8.13477 55.0923 8.65325 56.4227 9.6033 57.4176C10.5563 58.4156 11.8691 58.9944 13.2586 58.9944H50.7443C52.1337 58.9944 53.4465 58.4156 54.3996 57.4176C55.3496 56.4227 55.8681 55.0923 55.8681 53.7233V17.4857C55.868 16.7949 55.736 16.1091 55.4777 15.4677C55.2193 14.8263 54.8386 14.2394 54.3533 13.7441L48.2017 7.45727ZM44.5916 9.92773C44.8548 9.92758 45.1263 10.0342 45.3434 10.2555L51.4961 16.5435C51.608 16.6576 51.7017 16.7992 51.7674 16.9622C51.8331 17.1253 51.8681 17.3038 51.8681 17.4861V53.7233C51.8681 54.0894 51.7284 54.423 51.5067 54.655C51.2881 54.884 51.0118 54.9944 50.7443 54.9944H13.2586C12.991 54.9944 12.7147 54.884 12.4961 54.655C12.2745 54.423 12.1348 54.0894 12.1348 53.7233V11.1988C12.1348 10.8328 12.2745 10.4991 12.4961 10.2671C12.7147 10.0382 12.991 9.92774 13.2586 9.92774L44.5916 9.92773Z" fill="#2D373D"/>
</svg>
