<svg width="32" height="33" viewBox="0 0 32 33" fill="none" xmlns="http://www.w3.org/2000/svg">
<path d="M28.4 20.0232H27.7V19.3232C27.7 16.9232 25.8 15.0232 23.4 15.0232C21 15.0232 19.1 16.9232 19.1 19.3232V20.0232H18.5C17.9 20.0232 17.5 20.4232 17.5 21.0232V29.3232C17.5 29.9232 17.9 30.3232 18.5 30.3232H28.4C29 30.3232 29.4 29.9232 29.4 29.3232V21.0232C29.4 20.4232 29 20.0232 28.4 20.0232ZM21.1 19.3232C21.1 18.0232 22.1 17.0232 23.4 17.0232C24.7 17.0232 25.7 18.0232 25.7 19.3232V20.0232H21.1V19.3232ZM27.4 28.3232H19.5V22.0232H27.4V28.3232Z" fill="#2D373D"/>
<path d="M23.4 23.8232C22.6 23.8232 22 24.4232 22 25.2232C22 26.0232 22.6 26.6232 23.4 26.6232C24.2 26.6232 24.8 26.0232 24.8 25.2232C24.8 24.4232 24.2 23.8232 23.4 23.8232Z" fill="#2D373D"/>
<path d="M15.2 23.7232C15.7 23.7232 16.1 23.3232 16.1 22.7232C16.1 22.1232 15.7 21.7232 15.1 21.7232H11.6C11.4 20.2232 11.3 18.7232 11.2 17.1232H17.7C18.2 17.1232 18.6 16.7232 18.6 16.1232C18.6 15.5232 18.2 15.1232 17.6 15.1232H11.3C11.4 13.5232 11.6 11.9232 11.9 10.5232H20.1C20.3 11.3232 20.4 12.1232 20.5 12.9232C20.6 13.4232 21 13.8232 21.5 13.8232C22.2 13.7232 22.6 13.3232 22.6 12.7232C22.5 12.0232 22.4 11.2232 22.3 10.5232H25.5C26.5 11.9232 27.1 13.5232 27.4 15.3232C27.4 15.9232 28 16.3232 28.5 16.2232C29.1 16.2232 29.5 15.6232 29.4 15.1232C28.4 8.82323 23.2 3.92323 16.9 3.52323C9.49996 3.02323 3.09996 8.62323 2.59996 16.0232C2.49996 18.5232 2.99996 20.9232 3.99996 23.0232C3.99996 23.2232 4.09996 23.3232 4.19996 23.5232C4.69996 24.3232 5.19996 25.1232 5.79996 25.8232C8.19996 28.5232 11.5 30.2232 15.1 30.4232C15.6 30.4232 16 30.0232 16 29.4232C16.1 28.8232 15.7 28.3232 15.1 28.3232C14.5 28.3232 14 28.2232 13.4 28.1232C12.7 27.0232 12.2 25.5232 11.8 23.8232H15.2V23.7232ZM9.59996 21.7232H5.69996C4.99996 20.3232 4.69996 18.7232 4.59996 17.1232H9.19996C9.19996 18.7232 9.29996 20.2232 9.59996 21.7232ZM9.29996 15.1232H4.69996C4.99996 13.4232 5.59996 11.9232 6.59996 10.5232H9.79996C9.49996 11.9232 9.29996 13.5232 9.29996 15.1232ZM8.39996 8.52323C9.19996 7.82323 9.99996 7.22323 11 6.72323C10.8 7.32323 10.6 7.92323 10.4 8.52323H8.39996ZM21.7 8.52323C21.5 7.92323 21.3 7.32323 21 6.72323C22 7.22323 22.9 7.82323 23.7 8.52323H21.7ZM16.8 5.52323C17.3 5.52323 17.8 5.62323 18.3 5.72323C18.8 6.62323 19.2 7.52323 19.6 8.52323H12.5C12.9 7.42323 13.3 6.52323 13.8 5.72323C14.7 5.52323 15.7 5.42323 16.8 5.52323ZM10.9 27.1232C9.29996 26.3232 7.89996 25.1232 6.89996 23.7232H9.89996C10.2 24.9232 10.5 26.0232 10.9 27.1232Z" fill="#2D373D"/>
</svg>
