<svg width="32" height="32" viewBox="0 0 32 32" fill="none" xmlns="http://www.w3.org/2000/svg">
<path d="M20.6999 21.1999V4.8999C20.6999 4.2999 20.2999 3.8999 19.6999 3.8999H4.8999C4.2999 3.8999 3.8999 4.2999 3.8999 4.8999V21.1999C3.8999 21.7999 4.2999 22.1999 4.8999 22.1999H19.6999C20.1999 22.1999 20.6999 21.6999 20.6999 21.1999ZM18.6999 15.6999H11.1999L14.1999 11.4999C14.3999 11.1999 14.6999 11.1999 14.8999 11.2999L14.9999 11.3999L18.6999 15.6999ZM18.6999 5.8999V12.5999L16.4999 10.0999C16.3999 9.9999 16.2999 9.7999 16.0999 9.6999C14.8999 8.8999 13.3999 9.1999 12.5999 10.2999L8.7999 15.6999H5.8999V5.8999H18.6999ZM5.8999 20.1999V17.6999H18.6999V20.1999H5.8999Z" fill="#2D373D"/>
<path d="M26.9 10.7L23 9.40005C22.4 9.20005 21.9 9.50005 21.7 10C21.5 10.6 21.8 11.1 22.3 11.3L26 12.5L21.5 26.0001L11.1 22.5L10.5 24.4L21.2 28.0001C21.3 28.1001 21.5 28.1001 21.7 28.1001C22.4 28.1001 23.1 27.6001 23.3 26.9001L28 12.9C28.3 11.9 27.8 11 26.9 10.7Z" fill="#2D373D"/>
<path d="M9.0999 11.7999C10.5999 11.7999 11.7999 10.5999 11.7999 9.0999C11.7999 7.5999 10.5999 6.3999 9.0999 6.3999C7.5999 6.3999 6.3999 7.5999 6.3999 9.0999C6.3999 10.5999 7.5999 11.7999 9.0999 11.7999ZM9.0999 8.4999C9.4999 8.4999 9.7999 8.7999 9.7999 9.1999C9.7999 9.5999 9.4999 9.8999 9.0999 9.8999C8.6999 9.8999 8.3999 9.5999 8.3999 9.1999C8.3999 8.7999 8.6999 8.4999 9.0999 8.4999Z" fill="#2D373D"/>
</svg>
