<svg width="24" height="25" viewBox="0 0 24 25" fill="none" xmlns="http://www.w3.org/2000/svg">
<path d="M21.2498 21.9216C21.0598 21.9216 20.8698 21.8516 20.7198 21.7016L20.5998 21.5716C18.2798 19.0716 15.4399 18.7016 12.3899 20.4916C5.84985 24.3416 2.16985 18.9916 2.12985 18.9416C1.89985 18.6016 1.98985 18.1316 2.33985 17.9016C2.68985 17.6716 3.14985 17.7616 3.37985 18.1116C3.49985 18.2816 6.32985 22.3216 11.6199 19.2016C15.2999 17.0316 18.8799 17.5116 21.6999 20.5516L21.7799 20.6416C22.0698 20.9316 22.0698 21.4116 21.7799 21.7016C21.6299 21.8516 21.4398 21.9216 21.2498 21.9216Z" fill="#2D373D"/>
<path d="M21.2498 15.0016C21.0598 15.0016 20.8698 14.9316 20.7198 14.7816L20.5998 14.6516C18.2798 12.1516 15.4399 11.7816 12.3899 13.5716C5.84985 17.4216 2.16985 12.0716 2.12985 12.0216C1.89985 11.6716 1.98985 11.2116 2.33985 10.9816C2.68985 10.7516 3.14985 10.8416 3.37985 11.1916C3.49985 11.3616 6.32985 15.4016 11.6199 12.2816C15.2999 10.1116 18.8799 10.5916 21.6999 13.6316L21.7799 13.7216C22.0698 14.0116 22.0698 14.4916 21.7799 14.7816C21.6299 14.9316 21.4398 15.0016 21.2498 15.0016Z" fill="#2D373D"/>
<path d="M21.2499 8.06465C21.0599 8.06465 20.8699 7.99465 20.7199 7.84465L20.5999 7.71465C18.2799 5.21465 15.4399 4.84465 12.3899 6.64465C5.84988 10.5047 2.16988 5.14465 2.12988 5.09465C1.89988 4.74465 1.98988 4.28465 2.33988 4.05465C2.68988 3.82465 3.14988 3.91465 3.37988 4.26465C3.49988 4.43465 6.32988 8.47465 11.6199 5.35465C15.2999 3.18465 18.8799 3.66465 21.6999 6.70465L21.7799 6.79465C22.0699 7.08465 22.0699 7.56465 21.7799 7.85465C21.6299 8.00465 21.4399 8.07465 21.2499 8.07465V8.06465Z" fill="#2D373D"/>
</svg>
