<svg width="64" height="65" viewBox="0 0 64 65" fill="none" xmlns="http://www.w3.org/2000/svg">
<path d="M21.8063 24.3701C22.3352 23.8413 23.0524 23.5442 23.8003 23.5442C24.3581 23.5442 24.9033 23.7096 25.3671 24.0194C25.8308 24.3293 26.1922 24.7697 26.4057 25.285C26.6191 25.8003 26.675 26.3673 26.5662 26.9143C26.4574 27.4614 26.1888 27.9638 25.7944 28.3582C25.4 28.7526 24.8975 29.0212 24.3505 29.13C23.8035 29.2388 23.2365 29.183 22.7212 28.9695C22.2059 28.7561 21.7655 28.3946 21.4556 27.9309C21.1457 27.4672 20.9803 26.9219 20.9803 26.3642C20.9803 25.6163 21.2775 24.899 21.8063 24.3701Z" fill="#2D373D"/>
<path d="M40.2004 23.5442C39.4525 23.5442 38.7352 23.8413 38.2063 24.3701C37.6775 24.899 37.3804 25.6163 37.3804 26.3642C37.3804 26.9219 37.5458 27.4672 37.8556 27.9309C38.1655 28.3946 38.6059 28.7561 39.1212 28.9695C39.6365 29.183 40.2035 29.2388 40.7505 29.13C41.2975 29.0212 41.8 28.7526 42.1944 28.3582C42.5888 27.9638 42.8574 27.4614 42.9662 26.9143C43.075 26.3673 43.0191 25.8003 42.8057 25.285C42.5923 24.7697 42.2308 24.3293 41.7671 24.0194C41.3033 23.7096 40.7581 23.5442 40.2004 23.5442Z" fill="#2D373D"/>
<path d="M20.5587 38.5961C20.0683 37.6064 18.8684 37.2016 17.8787 37.692C16.889 38.1824 16.4842 39.3823 16.9746 40.3721C18.3615 43.1709 20.5027 45.5266 23.1568 47.1736C25.8109 48.8205 28.8724 49.6932 31.996 49.6932C35.1196 49.6932 38.1811 48.8205 40.8352 47.1736C43.4893 45.5266 45.6306 43.1709 47.0174 40.3721C47.5078 39.3823 47.1031 38.1824 46.1133 37.692C45.1236 37.2016 43.9237 37.6064 43.4333 38.5961C42.3773 40.7271 40.747 42.5208 38.7262 43.7748C36.7053 45.0287 34.3743 45.6932 31.996 45.6932C29.6177 45.6932 27.2867 45.0287 25.2659 43.7748C23.245 42.5208 21.6147 40.7271 20.5587 38.5961Z" fill="#2D373D"/>
<path fill-rule="evenodd" clip-rule="evenodd" d="M32.0004 6.32422C24.9456 6.32422 18.1798 9.12671 13.1914 14.1152C8.20288 19.1036 5.40039 25.8695 5.40039 32.9242C5.40039 39.979 8.20288 46.7448 13.1914 51.7333C18.1798 56.7217 24.9456 59.5242 32.0004 59.5242C39.0551 59.5242 45.821 56.7217 50.8094 51.7333C55.7979 46.7448 58.6004 39.979 58.6004 32.9242C58.6004 25.8695 55.7979 19.1036 50.8094 14.1152C45.821 9.12671 39.0551 6.32422 32.0004 6.32422ZM16.0198 16.9436C20.2581 12.7053 26.0065 10.3242 32.0004 10.3242C37.9943 10.3242 43.7427 12.7053 47.981 16.9436C52.2193 21.1819 54.6004 26.9303 54.6004 32.9242C54.6004 38.9181 52.2193 44.6665 47.981 48.9048C43.7427 53.1432 37.9943 55.5242 32.0004 55.5242C26.0065 55.5242 20.2581 53.1432 16.0198 48.9048C11.7815 44.6665 9.40039 38.9181 9.40039 32.9242C9.40039 26.9303 11.7815 21.1819 16.0198 16.9436Z" fill="#2D373D"/>
</svg>
