<svg width="24" height="25" viewBox="0 0 24 25" fill="none" xmlns="http://www.w3.org/2000/svg">
<path d="M21.2999 15.2479H20.7749V14.7229C20.7749 12.9229 19.3499 11.4979 17.5499 11.4979C15.7499 11.4979 14.3249 12.9229 14.3249 14.7229V15.2479H13.8749C13.4249 15.2479 13.1249 15.5479 13.1249 15.9979V22.2229C13.1249 22.6729 13.4249 22.9729 13.8749 22.9729H21.2999C21.7499 22.9729 22.0499 22.6729 22.0499 22.2229V15.9979C22.0499 15.5479 21.7499 15.2479 21.2999 15.2479ZM15.8249 14.7229C15.8249 13.7479 16.5749 12.9979 17.5499 12.9979C18.5249 12.9979 19.2749 13.7479 19.2749 14.7229V15.2479H15.8249V14.7229ZM20.5499 21.4729H14.6249V16.7479H20.5499V21.4729Z" fill="#2D373D"/>
<path d="M17.5499 18.0979C16.9499 18.0979 16.4999 18.5479 16.4999 19.1479C16.4999 19.7479 16.9499 20.1979 17.5499 20.1979C18.1499 20.1979 18.5999 19.7479 18.5999 19.1479C18.5999 18.5479 18.1499 18.0979 17.5499 18.0979Z" fill="#2D373D"/>
<path d="M11.3998 18.0229C11.7748 18.0229 12.0748 17.7229 12.0748 17.2729C12.0748 16.8229 11.7748 16.5229 11.3248 16.5229H8.69985C8.54985 15.3979 8.47485 14.2729 8.39985 13.0729H13.2748C13.6498 13.0729 13.9498 12.7729 13.9498 12.3229C13.9498 11.8729 13.6498 11.5729 13.1998 11.5729H8.47485C8.54985 10.3729 8.69985 9.17289 8.92485 8.12289H15.0748C15.2249 8.72289 15.2998 9.32289 15.3748 9.92289C15.4498 10.2979 15.7498 10.5979 16.1248 10.5979C16.6498 10.5229 16.9498 10.2229 16.9498 9.77289C16.8748 9.24789 16.7998 8.64789 16.7248 8.12289H19.1248C19.8748 9.17289 20.3248 10.3729 20.5498 11.7229C20.5498 12.1729 20.9998 12.4729 21.3748 12.3979C21.8248 12.3979 22.1248 11.9479 22.0498 11.5729C21.2998 6.84789 17.3998 3.17289 12.6748 2.87289C7.12485 2.49789 2.32485 6.69789 1.94985 12.2479C1.87485 14.1229 2.24985 15.9229 2.99985 17.4979C2.99985 17.6479 3.07485 17.7229 3.14985 17.8729C3.52485 18.4729 3.89985 19.0729 4.34985 19.5979C6.14985 21.6229 8.62485 22.8979 11.3248 23.0479C11.6998 23.0479 11.9998 22.7479 11.9998 22.2979C12.0748 21.8479 11.7748 21.4729 11.3248 21.4729C10.8748 21.4729 10.4998 21.3979 10.0498 21.3229C9.52485 20.4979 9.14985 19.3729 8.84985 18.0979H11.3998V18.0229ZM7.19985 16.5229H4.27485C3.74985 15.4729 3.52485 14.2729 3.44985 13.0729H6.89985C6.89985 14.2729 6.97485 15.3979 7.19985 16.5229ZM6.97485 11.5729H3.52485C3.74985 10.2979 4.19985 9.17289 4.94985 8.12289H7.34985C7.12485 9.17289 6.97485 10.3729 6.97485 11.5729ZM6.29985 6.62289C6.89985 6.09789 7.49985 5.64789 8.24985 5.27289C8.09985 5.72289 7.94985 6.17289 7.79985 6.62289H6.29985ZM16.2748 6.62289C16.1248 6.17289 15.9748 5.72289 15.7498 5.27289C16.4998 5.64789 17.1749 6.09789 17.7748 6.62289H16.2748ZM12.5998 4.37289C12.9748 4.37289 13.3498 4.44789 13.7248 4.52289C14.0998 5.19789 14.3998 5.87289 14.6998 6.62289H9.37485C9.67485 5.79789 9.97485 5.12289 10.3498 4.52289C11.0248 4.37289 11.7748 4.29789 12.5998 4.37289ZM8.17485 20.5729C6.97485 19.9729 5.92485 19.0729 5.17485 18.0229H7.42485C7.64985 18.9229 7.87485 19.7479 8.17485 20.5729Z" fill="#2D373D"/>
</svg>
