<svg width="32" height="32" viewBox="0 0 32 32" fill="none" xmlns="http://www.w3.org/2000/svg">
<path d="M27.6999 26.3999L21.4999 20.1999C22.0999 19.3999 22.5999 18.5999 22.9999 17.5999C23.9999 15.0999 23.8999 12.3999 22.8999 9.99992C21.8999 7.59992 19.9999 5.69992 17.4999 4.69992C14.9999 3.69992 12.2999 3.79992 9.89991 4.79992C4.89991 6.99992 2.59991 12.7999 4.69991 17.7999C6.29991 21.4999 9.89991 23.7999 13.7999 23.7999C15.0999 23.7999 16.3999 23.4999 17.6999 22.9999C18.5999 22.5999 19.3999 22.1999 20.0999 21.5999L26.2999 27.7999C26.4999 27.9999 26.6999 28.0999 26.9999 28.0999C27.2999 28.0999 27.4999 27.9999 27.6999 27.7999C28.0999 27.3999 28.0999 26.7999 27.6999 26.3999ZM16.8999 21.1999C12.8999 22.8999 8.19991 20.9999 6.49991 16.9999C4.79991 12.9999 6.69991 8.29992 10.6999 6.79992C12.5999 5.89992 14.6999 5.89992 16.6999 6.69992C18.5999 7.49992 20.1999 8.99992 20.9999 10.8999C21.8999 12.7999 21.8999 14.8999 21.0999 16.8999C20.2999 18.7999 18.7999 20.3999 16.8999 21.1999Z" fill="#2D373D"/>
</svg>
