<svg width="16" height="17" viewBox="0 0 16 17" fill="none" xmlns="http://www.w3.org/2000/svg">
<path fill-rule="evenodd" clip-rule="evenodd" d="M7.71404 8.50715C7.33138 8.33384 6.90502 8.28116 6.49168 8.35614C6.07835 8.43111 5.69765 8.63017 5.40023 8.92684C5.20473 9.12186 4.88814 9.12146 4.69313 8.92595C4.49811 8.73045 4.49851 8.41386 4.69402 8.21885C5.13523 7.77873 5.70002 7.48342 6.31321 7.37219C6.9264 7.26097 7.55892 7.33911 8.12661 7.59622C8.37815 7.71015 8.48972 8.00643 8.37579 8.25797C8.26186 8.50952 7.96558 8.62108 7.71404 8.50715Z" fill="#2D373D"/>
<path fill-rule="evenodd" clip-rule="evenodd" d="M9.73371 7.23572C8.94552 6.51757 7.91699 6.12057 6.8507 6.12292C5.7844 6.12527 4.75764 6.52679 3.97262 7.24841C3.76932 7.43529 3.45302 7.42198 3.26614 7.21869C3.07926 7.01539 3.09257 6.69908 3.29586 6.5122C4.26487 5.62145 5.53229 5.12582 6.8485 5.12292C8.1647 5.12002 9.43429 5.61007 10.4072 6.49654C10.6113 6.68252 10.626 6.99876 10.4401 7.20288C10.2541 7.407 9.93783 7.42171 9.73371 7.23572Z" fill="#2D373D"/>
<path fill-rule="evenodd" clip-rule="evenodd" d="M6.86376 3.92188C5.39078 3.9213 3.96173 4.42353 2.81298 5.3455C2.59762 5.51834 2.28292 5.48387 2.11008 5.26851C1.93723 5.05316 1.9717 4.73845 2.18706 4.56561C3.51342 3.50109 5.16343 2.92121 6.86415 2.92188C8.56487 2.92254 10.2144 3.50372 11.5399 4.56928C11.7552 4.74229 11.7894 5.05702 11.6164 5.27224C11.4434 5.48747 11.1286 5.52169 10.9134 5.34867C9.76539 4.4258 8.33673 3.92245 6.86376 3.92188Z" fill="#2D373D"/>
<path fill-rule="evenodd" clip-rule="evenodd" d="M8.13895 9.06182C8.78283 8.41794 9.65611 8.05622 10.5667 8.05622C11.4773 8.05622 12.3505 8.41794 12.9944 9.06182C13.6383 9.70569 14 10.579 14 11.4896C14 12.4001 13.6383 13.2734 12.9944 13.9173C12.3505 14.5612 11.4773 14.9229 10.5667 14.9229C9.65611 14.9229 8.78283 14.5612 8.13895 13.9173C7.49508 13.2734 7.13335 12.4001 7.13335 11.4896C7.13335 10.579 7.49508 9.70569 8.13895 9.06182ZM10.5667 9.05622C9.92133 9.05622 9.3024 9.31259 8.84606 9.76893C8.38972 10.2253 8.13335 10.8442 8.13335 11.4896C8.13335 12.1349 8.38972 12.7538 8.84606 13.2102C9.3024 13.6665 9.92133 13.9229 10.5667 13.9229C11.212 13.9229 11.831 13.6665 12.2873 13.2102C12.7437 12.7538 13 12.1349 13 11.4896C13 10.8442 12.7437 10.2253 12.2873 9.76893C11.831 9.31259 11.212 9.05622 10.5667 9.05622Z" fill="#2D373D"/>
<path fill-rule="evenodd" clip-rule="evenodd" d="M10.674 10.4001C10.5673 10.3789 10.4567 10.3898 10.3562 10.4314C10.2557 10.473 10.1698 10.5435 10.1094 10.634C10.0489 10.7244 10.0167 10.8308 10.0167 10.9396C10.0167 11.1421 9.85252 11.3062 9.65001 11.3062C9.44751 11.3062 9.28335 11.1421 9.28335 10.9396C9.28335 10.6857 9.35861 10.4376 9.49963 10.2266C9.64064 10.0155 9.84107 9.85104 10.0756 9.75391C10.3101 9.65678 10.5681 9.63136 10.817 9.68088C11.066 9.7304 11.2947 9.85262 11.4741 10.0321C11.6536 10.2116 11.7758 10.4402 11.8254 10.6892C11.8749 10.9381 11.8495 11.1962 11.7523 11.4307C11.6552 11.6652 11.4907 11.8656 11.2797 12.0066C11.0686 12.1476 10.8205 12.2229 10.5667 12.2229C10.3642 12.2229 10.2 12.0587 10.2 11.8562C10.2 11.6537 10.3642 11.4896 10.5667 11.4896C10.6755 11.4896 10.7818 11.4573 10.8722 11.3969C10.9627 11.3364 11.0332 11.2505 11.0748 11.15C11.1164 11.0495 11.1273 10.9389 11.1061 10.8323C11.0849 10.7256 11.0325 10.6276 10.9556 10.5506C10.8787 10.4737 10.7807 10.4213 10.674 10.4001Z" fill="#2D373D"/>
<path d="M10.5422 12.6384C10.6389 12.6384 10.7335 12.6671 10.8139 12.7208C10.8943 12.7746 10.9569 12.8509 10.9939 12.9402C11.0309 13.0296 11.0406 13.1279 11.0217 13.2227C11.0029 13.3175 10.9563 13.4047 10.8879 13.473C10.8196 13.5414 10.7325 13.588 10.6376 13.6068C10.5428 13.6257 10.4445 13.616 10.3552 13.579C10.2658 13.542 10.1895 13.4793 10.1358 13.3989C10.082 13.3185 10.0534 13.224 10.0534 13.1273C10.0534 12.9977 10.1049 12.8733 10.1966 12.7816C10.2882 12.6899 10.4126 12.6384 10.5422 12.6384Z" fill="#2D373D"/>
</svg>
