<svg width="24" height="24" viewBox="0 0 24 24" fill="none" xmlns="http://www.w3.org/2000/svg">
<path fill-rule="evenodd" clip-rule="evenodd" d="M20.0002 18.75C19.8621 18.75 19.7502 18.8619 19.7502 19C19.7502 19.1381 19.8621 19.25 20.0002 19.25C20.1383 19.25 20.2502 19.1381 20.2502 19C20.2502 18.8619 20.1383 18.75 20.0002 18.75ZM18.2502 19C18.2502 18.0335 19.0337 17.25 20.0002 17.25C20.9667 17.25 21.7502 18.0335 21.7502 19C21.7502 19.9665 20.9667 20.75 20.0002 20.75C19.0337 20.75 18.2502 19.9665 18.2502 19Z" fill="#2D373D"/>
<path fill-rule="evenodd" clip-rule="evenodd" d="M4.0002 18.75C3.86213 18.75 3.7502 18.8619 3.7502 19C3.7502 19.1381 3.86213 19.25 4.0002 19.25C4.13827 19.25 4.2502 19.1381 4.2502 19C4.2502 18.8619 4.13827 18.75 4.0002 18.75ZM2.2502 19C2.2502 18.0335 3.0337 17.25 4.0002 17.25C4.9667 17.25 5.7502 18.0335 5.7502 19C5.7502 19.9665 4.9667 20.75 4.0002 20.75C3.0337 20.75 2.2502 19.9665 2.2502 19Z" fill="#2D373D"/>
<path fill-rule="evenodd" clip-rule="evenodd" d="M18.2152 4.49349C18.5998 4.33966 18.7869 3.90318 18.633 3.51859C18.4792 3.134 18.0427 2.94694 17.6581 3.10078L14.9596 4.18018C14.5952 4.32596 14.4048 4.72808 14.523 5.10238L17.6049 14.8617C16.6616 15.4249 15.9516 16.3497 15.6551 17.4174H8.23999C8.13637 16.9155 7.93805 16.4246 7.64029 15.9714C6.4588 14.1734 4.12582 13.5883 2.25389 14.5491C1.88538 14.7382 1.73997 15.1903 1.9291 15.5588C2.11823 15.9273 2.5703 16.0727 2.93881 15.8836C4.13633 15.269 5.63058 15.6445 6.3867 16.7952C6.65453 17.2028 6.79574 17.6545 6.82151 18.1067C6.8346 18.3365 6.94981 18.5362 7.12055 18.6642C7.25796 18.8195 7.45874 18.9174 7.68238 18.9174H15.9875C16.0363 18.9174 16.084 18.9127 16.1303 18.9038C16.1506 18.9077 16.1713 18.9108 16.1923 18.9131C16.6041 18.9574 16.9739 18.6594 17.0182 18.2476C17.1644 16.8891 18.3362 15.7817 19.6933 15.7817C20.181 15.7817 20.636 15.9117 21.0281 16.1385C21.3866 16.3459 21.8454 16.2234 22.0529 15.8649C22.2603 15.5063 22.1377 15.0475 21.7792 14.8401C21.165 14.4848 20.4517 14.2817 19.6933 14.2817C19.4615 14.2817 19.2342 14.3015 19.0129 14.3393L16.163 5.3144L18.2152 4.49349Z" fill="#2D373D"/>
</svg>
