<svg width="32" height="33" viewBox="0 0 32 33" fill="none" xmlns="http://www.w3.org/2000/svg">
<path fill-rule="evenodd" clip-rule="evenodd" d="M15 7.58985C14.4478 7.58986 14 8.03758 14 8.58987V16.9232C14 17.4755 14.4477 17.9232 15 17.9232H21.3334C21.8856 17.9232 22.3334 17.4755 22.3334 16.9232C22.3334 16.3709 21.8857 15.9232 21.3334 15.9232H16V8.58982C16 8.03754 15.5523 7.58984 15 7.58985Z" fill="#2D373D"/>
<path d="M6.11851 11.2589C9.25686 5.83899 16.2097 3.9799 21.6486 7.11084C27.0857 10.2408 28.9463 17.1698 25.8089 22.588C22.6706 28.0079 15.7177 29.867 10.2788 26.736C8.48451 25.7031 7.08035 24.2573 6.11802 22.5909C5.84183 22.1126 5.23022 21.9488 4.75195 22.225C4.27369 22.5012 4.10987 23.1128 4.38606 23.591C5.52017 25.5549 7.17459 27.2567 9.28105 28.4693C15.6731 32.149 23.8475 29.9666 27.5397 23.5902C31.2329 17.212 29.0401 9.05816 22.6464 5.37753C16.2548 1.69813 8.08111 3.87994 4.3885 10.2553C3.77234 11.3157 3.30908 12.4512 3.00777 13.6286L2.94239 13.5386C2.61776 13.0918 1.99239 12.9927 1.54558 13.3174C1.09878 13.642 0.999731 14.2674 1.32436 14.7142L2.89136 16.8709C3.21593 17.3177 3.84116 17.4168 4.28797 17.0923L6.4491 15.523C6.89599 15.1984 6.99519 14.5731 6.67067 14.1262C6.34616 13.6793 5.72081 13.5801 5.27392 13.9046L4.93944 14.1475C5.19509 13.1397 5.59045 12.1676 6.11773 11.2602L6.11851 11.2589Z" fill="#2D373D"/>
</svg>
