<svg width="16" height="17" viewBox="0 0 16 17" fill="none" xmlns="http://www.w3.org/2000/svg">
<path d="M13.35 9.02461L10.8 6.47461C10.75 6.42461 10.75 6.42461 10.7 6.37461C10.2 5.92461 9.55 5.67461 8.9 5.67461L7.95 4.72461L8.2 4.47461C8.4 4.27461 8.4 3.97461 8.2 3.77461L6.8 2.37461C6.6 2.17461 6.3 2.17461 6.1 2.37461L3.25 5.22461C3.05 5.42461 3.05 5.72461 3.25 5.92461L4.7 7.32461C4.8 7.42461 4.9 7.47461 5.05 7.47461C5.15 7.47461 5.3 7.42461 5.4 7.32461L5.55 7.17461L6.45 8.12461C6.45 8.17461 6.45 8.27461 6.45 8.32461C6.45 8.57461 6.5 8.77461 6.6 8.97461L2.45 13.1246C2.15 13.3246 2 13.7246 2 14.1246C2 14.5246 2.15 14.9246 2.45 15.1746C2.7 15.4746 3.1 15.6246 3.5 15.6246C3.9 15.6246 4.25 15.4746 4.55 15.1746L8.5 11.2246L8.65 11.4246C8.85 11.5746 9.15 11.5746 9.35 11.4246C9.95 10.9246 10.9 10.9246 11.5 11.4246L12.65 12.5746C12.75 12.6746 12.85 12.7246 13 12.7246C13.1 12.7246 13.25 12.6746 13.35 12.5746C14.35 11.5746 14.35 10.0246 13.35 9.02461ZM5 6.27461L4.3 5.57461L6.45 3.42461L7.15 4.12461L5 6.27461ZM6.25 6.42461L7.25 5.42461L7.8 5.97461C7.55 6.07461 7.35 6.27461 7.15 6.47461C7 6.62461 6.9 6.77461 6.8 6.97461L6.25 6.42461ZM3.85 14.4746C3.65 14.6746 3.35 14.6746 3.15 14.4746C3.05 14.3746 3 14.2746 3 14.1246C3 13.9746 3.05 13.8746 3.15 13.7746L7.1 9.82461C7.15 9.87461 7.2 9.97461 7.25 10.0246L7.75 10.5246L3.85 14.4746ZM12.9 11.4746L12.15 10.7246C11.65 10.2746 11.05 10.0746 10.4 10.0746C9.95 10.0746 9.45 10.1746 9 10.4246L7.9 9.32461C7.8 9.22461 7.7 9.07461 7.6 8.92461C7.6 8.87461 7.55 8.87461 7.55 8.82461C7.45 8.62461 7.45 8.47461 7.45 8.27461C7.45 8.17461 7.45 8.12461 7.45 8.02461C7.45 7.97461 7.5 7.92461 7.5 7.82461C7.55 7.57461 7.65 7.32461 7.85 7.12461C8.45 6.52461 9.4 6.52461 10 7.07461C10 7.07461 10.05 7.07461 10.05 7.17461L12.6 9.72461C12.9 9.97461 13.05 10.3746 13.05 10.7746C13.05 11.0746 13 11.2746 12.9 11.4746Z" fill="#2D373D"/>
</svg>
