<svg width="64" height="65" viewBox="0 0 64 65" fill="none" xmlns="http://www.w3.org/2000/svg">
<path fill-rule="evenodd" clip-rule="evenodd" d="M43.1668 18.063H53.8335C56.779 18.063 59.1668 20.4508 59.1668 23.3963V51.1296C59.1668 54.0751 56.779 56.463 53.8335 56.463H11.1668C8.22131 56.463 5.8335 54.0751 5.8335 51.1296V23.3963C5.8335 20.4508 8.22131 18.063 11.1668 18.063H21.8335V13.7962C21.8335 10.8507 24.2213 8.46289 27.1668 8.46289H37.8335C40.779 8.46289 43.1668 10.8507 43.1668 13.7962V18.063ZM25.8335 17.6629H39.1668V13.7962C39.1668 13.0598 38.5699 12.4629 37.8335 12.4629H27.1668C26.4304 12.4629 25.8335 13.0598 25.8335 13.7962V17.6629ZM47.1668 52.463V22.063H53.8335C54.5699 22.063 55.1668 22.6599 55.1668 23.3963V51.1296C55.1668 51.866 54.5699 52.463 53.8335 52.463H47.1668ZM43.1668 22.063V52.463H21.8335V22.063H43.1668ZM17.8335 22.063V52.463H11.1668C10.4304 52.463 9.8335 51.866 9.8335 51.1296V23.3963C9.8335 22.6599 10.4305 22.063 11.1668 22.063H17.8335Z" fill="#2D373D"/>
</svg>
