<svg width="16" height="17" viewBox="0 0 16 17" fill="none" xmlns="http://www.w3.org/2000/svg">
<path d="M11.9999 1.76172H4.0499C3.2999 1.76172 2.6999 2.31172 2.6499 3.11172V14.2617C2.6499 14.6117 2.8499 14.9617 3.2499 15.0617C3.4999 15.2117 3.8499 15.1617 4.1499 15.0117L7.7499 13.2117C7.7499 13.1617 7.7999 13.1617 7.7999 13.1617C7.9499 13.0617 8.1499 13.0617 8.2999 13.1617C8.2999 13.2117 8.3499 13.2117 8.3499 13.2117L11.9499 15.0117C12.0999 15.1117 12.2499 15.1617 12.4499 15.1617C12.5999 15.1617 12.6999 15.1617 12.8499 15.0617C13.1999 14.9617 13.3999 14.6117 13.3999 14.2617V3.06172C13.3499 2.31172 12.7499 1.76172 11.9999 1.76172ZM12.3999 14.1617L8.7999 12.3617C8.2999 12.0617 7.6999 12.0617 7.2499 12.3617L3.6499 14.1617V3.11172C3.6499 2.91172 3.7999 2.76172 3.9999 2.76172H11.9999C12.1499 2.76172 12.3499 2.91172 12.3499 3.11172V14.1617H12.3999Z" fill="#2D373D"/>
<path d="M10.15 6.01172H9.3L8.75 4.91172C8.7 4.76172 8.55 4.66172 8.4 4.56172C8.2 4.46172 7.95 4.46172 7.75 4.51172C7.5 4.56172 7.35 4.71172 7.25 4.91172L6.7 6.01172H5.85C5.65 6.01172 5.45 6.11172 5.25 6.26172C5.1 6.41172 5 6.66172 5 6.86172C5 7.11172 5.1 7.31172 5.25 7.46172L6.1 8.26172L5.65 9.31172C5.55 9.56172 5.55 9.86172 5.7 10.0617C5.9 10.4617 6.4 10.6117 6.8 10.3617L8 9.71172L9.2 10.3617C9.3 10.4117 9.45 10.4617 9.6 10.4617C9.75 10.4617 9.85 10.4617 9.9 10.4117C10.1 10.3117 10.25 10.1617 10.35 9.96172C10.45 9.76172 10.45 9.51172 10.35 9.31172L9.9 8.26172L10.75 7.46172C10.9 7.31172 11 7.06172 11 6.86172C11 6.61172 10.9 6.41172 10.75 6.26172C10.55 6.11172 10.35 6.01172 10.15 6.01172ZM8.95 7.76172C8.8 7.91172 8.75 8.11172 8.85 8.31172L9.25 9.21172L8.25 8.66172C8.15 8.61172 8.1 8.61172 8 8.61172C7.95 8.61172 7.85 8.61172 7.75 8.66172L6.75 9.21172L7.15 8.31172C7.25 8.11172 7.2 7.91172 7.05 7.76172L6.3 7.01172H7.05C7.2 7.01172 7.4 6.91172 7.5 6.76172L8 5.71172L8.5 6.76172C8.6 6.91172 8.75 7.01172 8.95 7.01172H9.7L8.95 7.76172Z" fill="#2D373D"/>
</svg>
