<svg width="16" height="17" viewBox="0 0 16 17" fill="none" xmlns="http://www.w3.org/2000/svg">
<path d="M10.7299 9.63816C10.5973 9.63816 10.4701 9.69084 10.3764 9.78461C10.2826 9.87838 10.2299 10.0056 10.2299 10.1382C10.2488 10.6307 10.0715 11.1107 9.73679 11.4725C9.4021 11.8344 8.93745 12.0487 8.44491 12.0682C8.37709 12.0681 8.30996 12.0818 8.24761 12.1085C8.18526 12.1351 8.12898 12.1742 8.08221 12.2233C8.03544 12.2724 7.99915 12.3306 7.97554 12.3941C7.95194 12.4577 7.94151 12.5254 7.94491 12.5932C7.95133 12.7214 8.00682 12.8422 8.09991 12.9307C8.19299 13.0191 8.31652 13.0683 8.44491 13.0682C8.82247 13.0568 9.19394 12.97 9.53743 12.8129C9.88092 12.6558 10.1895 12.4314 10.4449 12.1532C10.9605 11.5959 11.2339 10.8568 11.2049 10.0982C11.1953 9.97681 11.1418 9.86312 11.0543 9.77843C10.9669 9.69375 10.8515 9.64387 10.7299 9.63816Z" fill="#2D373D"/>
<path d="M7.17991 2.31316C7.03883 2.29719 6.89619 2.32329 6.76991 2.38816C6.64255 2.45391 6.53864 2.55743 6.4724 2.68453C6.40616 2.81164 6.38084 2.95611 6.39991 3.09816C6.41479 3.24212 6.47623 3.37729 6.57491 3.48316C9.29491 6.51316 8.07491 8.37816 7.33491 9.08816C7.09601 8.86835 6.91119 8.59626 6.79491 8.29316C6.66564 7.95749 6.62266 7.59475 6.66991 7.23816C6.68487 7.11865 6.66581 6.99733 6.61491 6.88816C6.56746 6.77569 6.48953 6.67871 6.38991 6.60816C6.29424 6.53396 6.18014 6.48729 6.05991 6.47316C5.94337 6.45794 5.82487 6.47168 5.71491 6.51316C4.82043 6.85706 4.05308 7.46726 3.51656 8.26131C2.98004 9.05535 2.70022 9.99496 2.71491 10.9532C2.71491 13.3982 5.21491 15.5432 8.11991 15.5432C11.8349 15.5432 13.5299 12.5432 13.5299 9.72816C13.4999 6.31816 10.4349 2.71316 7.17991 2.31316ZM8.10491 14.5432C5.75991 14.5432 3.69991 12.8682 3.69991 10.9482C3.68958 10.27 3.86664 9.60206 4.21158 9.01803C4.55653 8.43401 5.05597 7.95652 5.65491 7.63816C5.66723 7.98057 5.73652 8.31853 5.85991 8.63816C6.04293 9.13498 6.34917 9.57714 6.74991 9.92316C6.91943 10.0648 7.13404 10.141 7.35491 10.1382C7.5757 10.1326 7.78704 10.0474 7.94991 9.89816C8.63991 9.26316 10.5599 7.00316 7.87491 3.50316C10.3199 4.27316 12.4999 7.11316 12.4999 9.72816C12.4999 12.1232 11.1499 14.5432 8.10491 14.5432Z" fill="#2D373D"/>
</svg>
