<svg width="32" height="33" viewBox="0 0 32 33" fill="none" xmlns="http://www.w3.org/2000/svg">
<path d="M27.6 12.5613C27.3 12.2613 26.9 11.9613 26.4 11.9613L20.6 11.3613L17.6 5.36133C17.4 4.96133 17.1 4.76133 16.8 4.56133C16.6 4.46133 16.3 4.36133 16 4.36133C15.8 4.36133 15.7 4.36133 15.5 4.46133H15.4C14.9 4.56133 14.5 4.96133 14.3 5.36133L11.3 11.3613L5.49999 11.8613C5.09999 11.8613 4.7 12.0613 4.4 12.3613C4 12.7613 3.8 13.3613 3.9 13.9613C3.9 14.3613 4.1 14.6613 4.4 14.8613L9.2 19.6613L7.4 26.1613C7.3 26.6613 7.29999 27.0613 7.49999 27.4613C7.8 28.0613 8.29999 28.3613 8.89999 28.4613C8.99999 28.4613 9.1 28.4613 9.2 28.4613C9.5 28.4613 9.8 28.4613 10 28.3613L16.1 25.3613L21.9 28.2613C22.1 28.3613 22.4 28.4613 22.7 28.4613C22.9 28.4613 23.1 28.4613 23.2 28.4613C23.7 28.3613 24.1 28.0613 24.3 27.6613C24.6 27.2613 24.6 26.7613 24.5 26.2613L22.7 19.7613L27.5 14.9613C27.8 14.6613 28 14.2613 28 13.8613C28.1 13.3613 27.9 12.9613 27.6 12.5613ZM20.9 18.7613C20.6 19.0613 20.5 19.4613 20.6 19.7613L22.4 26.3613L17 23.6613V8.66133L19.1 12.8613C19.3 13.1613 19.6 13.3613 19.9 13.3613L25.8 13.8613L20.9 18.7613Z" fill="#2D373D"/>
</svg>
