<svg width="64" height="65" viewBox="0 0 64 65" fill="none" xmlns="http://www.w3.org/2000/svg">
<path d="M10 33.0009C10.4511 32.9983 10.8881 32.8433 11.24 32.5609L24.22 22.2609C24.3758 22.1441 24.5653 22.0809 24.76 22.0809C24.9547 22.0809 25.1442 22.1441 25.3 22.2609L31.74 26.8409C32.6875 27.5282 33.8497 27.8535 35.0163 27.7581C36.1828 27.6628 37.2767 27.1529 38.1 26.3209L49.06 15.3609V22.2809C49.06 22.8114 49.2707 23.3201 49.6458 23.6952C50.0209 24.0702 50.5296 24.2809 51.06 24.2809C51.5904 24.2809 52.0991 24.0702 52.4742 23.6952C52.8493 23.3201 53.06 22.8114 53.06 22.2809V10.4609C53.0632 10.2009 53.0156 9.94276 52.92 9.70094C52.717 9.21224 52.3287 8.82389 51.84 8.62094C51.592 8.52017 51.3276 8.46593 51.06 8.46094H39.34C38.8096 8.46094 38.3009 8.67165 37.9258 9.04672C37.5507 9.4218 37.34 9.9305 37.34 10.4609C37.34 10.9914 37.5507 11.5001 37.9258 11.8752C38.3009 12.2502 38.8096 12.4609 39.34 12.4609H46.24L35.28 23.4209C35.1257 23.5797 34.9203 23.6788 34.7 23.7009C34.4798 23.7056 34.2635 23.6427 34.08 23.5209L27.6 18.9009C26.7038 18.2984 25.639 17.9972 24.56 18.0409C23.5049 18.0967 22.4955 18.4892 21.68 19.1609L8.76 29.4209C8.55306 29.5845 8.38054 29.7875 8.25236 30.018C8.12418 30.2486 8.04287 30.5022 8.01313 30.7643C7.98339 31.0265 8.00579 31.2919 8.07905 31.5453C8.15231 31.7987 8.27498 32.0351 8.44 32.2409C8.62625 32.4766 8.86321 32.6674 9.13328 32.7989C9.40335 32.9305 9.69959 32.9996 10 33.0009Z" fill="#2D373D"/>
<path d="M56 37.3409V32.4609C56 31.5433 55.6355 30.6632 54.9866 30.0143C54.3377 29.3655 53.4576 29.0009 52.54 29.0009H37.86C36.9424 29.0009 36.0623 29.3655 35.4134 30.0143C34.7645 30.6632 34.4 31.5433 34.4 32.4609V36.8609C33.5837 36.9891 32.8397 37.4036 32.301 38.0302C31.7624 38.6568 31.4642 39.4546 31.46 40.2809V45.1809C31.4504 45.3408 31.4504 45.5011 31.46 45.6609C30.9231 45.1211 30.217 44.7821 29.46 44.7009V40.2809C29.4547 39.3649 29.0885 38.4879 28.4408 37.8401C27.793 37.1924 26.916 36.8262 26 36.8209H11.46C10.544 36.8262 9.66695 37.1924 9.01921 37.8401C8.37147 38.4879 8.00525 39.3649 8 40.2809V45.1809C8.00493 46.0049 8.30376 46.8001 8.84272 47.4234C9.38167 48.0466 10.1254 48.4571 10.94 48.5809V53.0009C10.94 53.9186 11.3045 54.7987 11.9534 55.4475C12.6023 56.0964 13.4824 56.4609 14.4 56.4609H29.06C29.9795 56.461 30.8616 56.0971 31.5137 55.4487C32.1657 54.8004 32.5347 53.9204 32.54 53.0009V48.1009C32.5496 47.9411 32.5496 47.7808 32.54 47.6209C33.0882 48.1446 33.7885 48.4808 34.54 48.5809V53.0009C34.5442 53.8934 34.8911 54.7501 35.509 55.394C36.1268 56.038 36.9685 56.4199 37.86 56.4609H52.54C53.456 56.4557 54.333 56.0895 54.9808 55.4417C55.6285 54.794 55.9948 53.917 56 53.0009V48.1009C55.9951 47.277 55.6962 46.4818 55.1573 45.8585C54.6183 45.2352 53.8746 44.8248 53.06 44.7009V40.7009C53.8679 40.5783 54.6063 40.1736 55.1445 39.5586C55.6826 38.9436 55.9856 38.158 56 37.3409ZM35.46 44.6409V40.8209H49.06V44.6409H35.46ZM38.4 33.0009H52V36.8209H38.4V33.0009ZM12 40.8209H25.6V44.6409H12V40.8209ZM28.54 52.4609H14.94V48.6409H28.54V52.4609ZM52 52.4609H38.4V48.6409H52V52.4609Z" fill="#2D373D"/>
</svg>
