<svg width="16" height="16" viewBox="0 0 16 16" fill="none" xmlns="http://www.w3.org/2000/svg">
<path d="M9.05 6.69997C9.3 6.59997 9.45 6.29997 9.35 6.04997C9.3 5.84997 9.25 5.69997 9.25 5.49997C9.3 5.24997 9.35 4.99997 9.5 4.89997C9.6 5.04997 9.75 5.19997 9.95 5.29997C10.2 5.39997 10.6 5.54997 11.1 5.34997C11.6 5.14997 11.95 4.79997 12.05 4.34997C12.1 4.24997 12.1 4.09997 12.1 3.99997C12.45 4.49997 12.7 5.04997 12.7 5.49997C12.7 5.94997 12.5 6.44997 12.15 6.74997C11.95 6.94997 11.9 7.24997 12.1 7.44997C12.2 7.54997 12.3 7.59997 12.45 7.59997C12.55 7.59997 12.7 7.54997 12.8 7.49997C13.35 6.99997 13.7 6.24997 13.7 5.49997C13.7 4.24997 12.55 2.44997 11.1 2.04997C10.9 1.94997 10.65 2.04997 10.55 2.24997C10.4 2.44997 10.45 2.69997 10.6 2.84997C10.9 3.14997 11.15 3.69997 11.05 4.04997C11 4.14997 10.95 4.24997 10.75 4.34997C10.55 4.39997 10.45 4.39997 10.4 4.34997C10.2 4.24997 10.1 3.89997 10.05 3.79997C10 3.64997 9.9 3.49997 9.75 3.49997C9.55 3.44997 9.4 3.49997 9.25 3.59997C8.7 4.09997 8.35 4.74997 8.25 5.44997V5.49997C8.25 5.79997 8.3 6.09997 8.4 6.39997C8.5 6.64997 8.8 6.79997 9.05 6.69997Z" fill="#2D373D"/>
<path d="M12.35 9.39996L11.6 7.84996C11.4 7.39996 10.95 7.14996 10.5 7.14996H6.65C6.2 7.14996 5.75 7.44996 5.55 7.84996L4.8 9.34996H4C3.45 9.34996 2.95 9.59996 2.6 9.94996C2.2 10.35 2 10.8 2 11.35V12.1C2 12.8 2.55 13.35 3.25 13.35H4.35C4.55 13.75 4.95 14.05 5.45 14.05C5.95 14.05 6.4 13.75 6.6 13.3H10.2C10.4 13.75 10.85 14.05 11.35 14.05C11.85 14.05 12.25 13.75 12.45 13.3H12.8C13.5 13.3 14.05 12.75 14 12.1V11.35C14 10.35 13.3 9.54996 12.35 9.39996ZM6.65 8.09996H10.55C10.65 8.09996 10.7 8.14996 10.75 8.24996L11.3 9.39996H5.85L6.45 8.24996C6.5 8.14996 6.55 8.09996 6.65 8.09996ZM5.45 13.05C5.3 13.05 5.2 12.95 5.2 12.8C5.2 12.65 5.3 12.55 5.45 12.55C5.6 12.55 5.7 12.65 5.7 12.8C5.7 12.95 5.6 13.05 5.45 13.05ZM11.35 13.05C11.2 13.05 11.1 12.95 11.1 12.8C11.1 12.65 11.2 12.55 11.35 12.55C11.4 12.55 11.5 12.6 11.55 12.7C11.55 12.75 11.55 12.75 11.55 12.8C11.55 12.85 11.55 12.9 11.55 12.9C11.5 13 11.45 13.05 11.35 13.05ZM13.05 12.05C13.05 12.2 12.95 12.3 12.8 12.3H12.5C12.3 11.85 11.85 11.55 11.35 11.55C10.85 11.55 10.4 11.85 10.2 12.3H6.6C6.4 11.85 5.95 11.55 5.45 11.55C4.9 11.55 4.45 11.9 4.3 12.35H3.25C3.1 12.35 3 12.25 3 12.1V11.35C3 11.05 3.1 10.8 3.25 10.7C3.45 10.5 3.7 10.4 3.95 10.4H5.05C5.1 10.4 5.1 10.4 5.15 10.4L12 10.35H12.1C12.6 10.35 13.05 10.75 13.05 11.3V12.05Z" fill="#2D373D"/>
</svg>
