<svg width="64" height="64" viewBox="0 0 64 64" fill="none" xmlns="http://www.w3.org/2000/svg">
<path d="M54.4001 10.8002C53.6001 10.0002 52.4001 10.0002 51.6001 10.8002L10.2001 50.4002C9.4001 51.2002 9.4001 52.4002 10.2001 53.2002C10.6001 53.6002 11.0001 53.8002 11.6001 53.8002C12.2001 53.8002 12.6001 53.6002 13.0001 53.4002L54.4001 13.6002C55.2001 12.8002 55.2001 11.6002 54.4001 10.8002Z" fill="#2D373D"/>
<path d="M57.4001 29.8001C55.4001 27.4001 53.0001 25.2001 50.4001 23.4001C49.6001 22.8001 48.2001 23.0001 47.6001 23.8001C47.0001 24.6001 47.2001 26.0001 48.0001 26.6001C50.2001 28.4001 52.4001 30.2001 54.4001 32.4001C55.0001 33.0001 55.0001 34.0001 54.4001 34.6001C49.2001 40.4001 40.6001 46.6001 32.0001 46.4001C30.0001 46.6001 28.0001 46.2001 26.0001 45.6001C24.8001 45.4001 23.6001 45.8001 23.4001 47.0001C23.2001 48.2001 23.8001 49.2001 24.8001 49.6001C27.0001 50.2001 29.4001 50.6001 31.8001 50.6001C32.0001 50.6001 32.2001 50.6001 32.4001 50.6001C42.0001 50.6001 51.6001 43.8001 57.4001 37.4001C59.4001 35.2001 59.4001 32.0001 57.4001 29.8001Z" fill="#2D373D"/>
<path d="M13.8001 43.4002C14.4001 43.4002 15.0001 43.2002 15.4001 42.6002C16.0001 41.8002 15.8001 40.4002 15.0001 39.8002C13.2001 38.4002 11.2001 36.6002 9.6001 34.6002C9.0001 34.0002 9.0001 33.0002 9.6001 32.4002C14.8001 26.6002 23.4001 20.4002 32.0001 20.6002C33.6001 20.6002 35.2001 20.8002 36.8001 21.2002C37.8001 21.6002 39.0001 20.8002 39.2001 19.8002C39.6001 18.8002 38.8001 17.6002 37.8001 17.4002C35.8001 17.0002 34.0001 16.8002 32.0001 16.8002C22.2001 16.6002 12.4001 23.4002 6.6001 29.8002C4.6001 32.0002 4.6001 35.2002 6.6001 37.4002C8.4001 39.4002 10.4001 41.4002 12.6001 43.0002C13.0001 43.2002 13.4001 43.4002 13.8001 43.4002Z" fill="#2D373D"/>
<path d="M21.8003 33.6004C21.8003 34.8004 22.6003 35.6004 23.8003 35.6004C24.8003 35.6004 25.8003 34.8004 25.8003 33.6004C25.8003 30.2004 28.6003 27.4004 32.0003 27.4004C33.2003 27.4004 34.0003 26.6004 34.0003 25.4004C34.0003 24.2004 33.2003 23.4004 32.0003 23.4004C26.4003 23.4004 21.8003 28.0004 21.8003 33.6004Z" fill="#2D373D"/>
<path d="M38.2 33.8003C38.2 35.4003 37.6 37.0003 36.4 38.2003C35.2 39.4003 33.6 40.0003 32 40.0003V44.0003C34.8 44.0003 37.2 42.8003 39.2 41.0003C41.2 39.2003 42.2 36.6003 42.2 33.8003C42.2 32.6003 41.4 31.8003 40.2 31.8003C39 31.8003 38.2 32.6003 38.2 33.8003Z" fill="#2D373D"/>
</svg>
