<svg width="32" height="33" viewBox="0 0 32 33" fill="none" xmlns="http://www.w3.org/2000/svg">
<path fill-rule="evenodd" clip-rule="evenodd" d="M17.7729 20.0976C18.7103 20.6875 19.3332 21.7314 19.3332 22.9207C19.3332 24.7617 17.8408 26.2541 15.9998 26.2541C14.1589 26.2541 12.6665 24.7617 12.6665 22.9207C12.6665 21.1356 14.0698 19.6782 15.8335 19.5915L17.7187 13.9347C17.8934 13.4108 18.4597 13.1276 18.9836 13.3022C19.5076 13.4768 19.7908 14.0432 19.6161 14.5671L17.7729 20.0976ZM17.3332 22.9207C17.3332 23.6571 16.7362 24.2541 15.9998 24.2541C15.2635 24.2541 14.6665 23.6571 14.6665 22.9207C14.6665 22.1844 15.2635 21.5874 15.9998 21.5874C16.7362 21.5874 17.3332 22.1844 17.3332 22.9207Z" fill="#2D373D"/>
<path d="M8.19983 16.9217C8.19983 12.6139 11.692 9.12174 15.9998 9.12174C20.3076 9.12174 23.7998 12.6139 23.7998 16.9217C23.7998 17.474 24.2475 17.9217 24.7998 17.9217C25.3521 17.9217 25.7998 17.474 25.7998 16.9217C25.7998 11.5094 21.4122 7.12174 15.9998 7.12174C10.5874 7.12174 6.19983 11.5094 6.19983 16.9217C6.19983 17.474 6.64754 17.9217 7.19983 17.9217C7.75211 17.9217 8.19983 17.474 8.19983 16.9217Z" fill="#2D373D"/>
<path fill-rule="evenodd" clip-rule="evenodd" d="M15.9998 30.2546C23.3636 30.2546 29.3332 24.285 29.3332 16.9212C29.3332 9.55743 23.3636 3.58789 15.9998 3.58789C8.63604 3.58789 2.6665 9.55743 2.6665 16.9212C2.6665 24.285 8.63604 30.2546 15.9998 30.2546ZM15.9998 28.2546C22.2591 28.2546 27.3332 23.1805 27.3332 16.9212C27.3332 10.662 22.2591 5.58789 15.9998 5.58789C9.74061 5.58789 4.6665 10.662 4.6665 16.9212C4.6665 23.1805 9.74061 28.2546 15.9998 28.2546Z" fill="#2D373D"/>
</svg>
