<svg width="64" height="64" viewBox="0 0 64 64" fill="none" xmlns="http://www.w3.org/2000/svg">
<path d="M12.8 35.4001C15.4 35.4001 17.8 33.2001 17.8 30.4001C17.8 28.4001 16.4 26.8001 14.8 26.0001V24.6001C14.8 23.4001 14 22.6001 12.8 22.6001C11.6 22.6001 10.8 23.4001 10.8 24.6001V27.6001C10.8 28.8001 11.6 29.6001 12.8 29.6001C13.2 29.6001 13.8 29.8001 13.8 30.4001C13.8 31.0001 13.4 31.4001 12.8 31.4001C12.2 31.4001 11.8 31.0001 11.8 30.4001C11.8 29.2001 11 28.4001 9.80005 28.4001C8.60005 28.4001 7.80005 29.2001 7.80005 30.4001C7.80005 33.2001 10 35.4001 12.8 35.4001Z" fill="#2D373D"/>
<path d="M49.2001 37.4L44.6001 28.2C43.8001 26.4 42.0001 25.4 40.2001 25.4H36.2001C33.4001 25.4 31.2001 27.6 31.2001 30.4V31.8L15.6001 8.6C14.8001 7.4 13.2001 7 12.0001 7.8C11.2001 8.2 10.8001 9.2 10.8001 10V18.4C10.8001 19.6 11.6001 20.4 12.8001 20.4C14.0001 20.4 14.8001 19.6 14.8001 18.4V14.6L29.8001 37.2H12.6001C9.8001 37.2 7.6001 39.4 7.6001 42.2V48.2C7.6001 51 9.8001 53.2 12.6001 53.2H17.0001C17.8001 55 19.6001 56.2 21.6001 56.2C23.6001 56.2 25.4001 55 26.2001 53.2H40.6001C41.4001 55 43.2001 56.2 45.2001 56.2C47.2001 56.2 49.0001 55 49.8001 53.2H50.8001C53.6001 53.2 55.8001 51 55.8001 48.2V45.2C55.8001 41.2 53.0001 38 49.2001 37.4ZM35.2001 30.2C35.2001 29.6 35.6001 29.2 36.2001 29.2H40.2001C40.6001 29.2 40.8001 29.4 41.0001 29.8L44.6001 37.2H35.2001V30.2ZM21.6001 52.2C21.0001 52.2 20.6001 51.8 20.6001 51.2C20.6001 50.6 21.0001 50.2 21.6001 50.2C22.2001 50.2 22.6001 50.6 22.6001 51.2C22.6001 51.8 22.2001 52.2 21.6001 52.2ZM45.2001 52.2C44.6001 52.2 44.2001 51.8 44.2001 51.2C44.2001 50.6 44.6001 50.2 45.2001 50.2C45.8001 50.2 46.2001 50.6 46.2001 51.2C46.2001 51.8 45.8001 52.2 45.2001 52.2ZM51.8001 48.2C51.8001 48.8 51.4001 49.2 50.8001 49.2H49.8001C49.0001 47.4 47.2001 46.2 45.2001 46.2C43.2001 46.2 41.4001 47.4 40.6001 49.2H26.2001C25.4001 47.4 23.6001 46.2 21.6001 46.2C19.6001 46.2 17.8001 47.4 17.0001 49.2H12.8001C12.2001 49.2 11.8001 48.8 11.8001 48.2V42.2C11.8001 41.8 12.2001 41.4 12.8001 41H32.6001C32.8001 41 33.0001 41.2 33.2001 41.2H47.2001C47.4001 41.2 47.6001 41.2 47.8001 41.2C50.0001 41.2 51.8001 43 51.8001 45.2V48.2Z" fill="#2D373D"/>
</svg>
