<svg width="32" height="33" viewBox="0 0 32 33" fill="none" xmlns="http://www.w3.org/2000/svg">
<path d="M29.1001 15.623L24.0001 6.52305C23.6001 5.62305 22.7001 5.12305 21.7001 5.12305H10.4001C9.4001 5.12305 8.5001 5.62305 8.1001 6.52305L2.9001 15.623C2.5001 16.423 2.5001 17.323 2.9001 18.123L8.1001 27.223C8.5001 28.123 9.4001 28.623 10.4001 28.623H21.7001C22.6001 28.623 23.5001 28.123 23.9001 27.223L29.1001 18.123C29.5001 17.323 29.5001 16.423 29.1001 15.623ZM27.4001 17.223L22.2001 26.323C22.1001 26.523 21.8001 26.623 21.6001 26.623H10.3001C10.0001 26.623 9.8001 26.423 9.7001 26.223L4.6001 17.123C4.5001 16.923 4.5001 16.723 4.6001 16.523L9.8001 7.42305C9.9001 7.22305 10.2001 7.12305 10.4001 7.12305H21.7001C21.9001 7.12305 22.1001 7.22305 22.3001 7.52305L27.4001 16.623C27.5001 16.823 27.5001 17.023 27.4001 17.223Z" fill="#2D373D"/>
<path d="M15.9998 10.2229C12.2998 10.2229 9.29981 13.2229 9.29981 16.9229C9.29981 20.6229 12.2998 23.6229 15.9998 23.6229C19.6998 23.6229 22.6998 20.6229 22.6998 16.9229C22.6998 13.2229 19.6998 10.2229 15.9998 10.2229ZM15.9998 21.6229C13.3998 21.6229 11.2998 19.5229 11.2998 16.9229C11.2998 14.3229 13.3998 12.2229 15.9998 12.2229C18.5998 12.2229 20.6998 14.3229 20.6998 16.9229C20.6998 19.5229 18.5998 21.6229 15.9998 21.6229Z" fill="#2D373D"/>
</svg>
