<svg width="64" height="65" viewBox="0 0 64 65" fill="none" xmlns="http://www.w3.org/2000/svg">
<path d="M54 47.8206L50.1333 48.0606V35.8206H54.0533C54.5838 35.8206 55.0925 35.6098 55.4675 35.2348C55.8426 34.8597 56.0533 34.351 56.0533 33.8206C56.0533 33.2901 55.8426 32.7814 55.4675 32.4063C55.0925 32.0313 54.5838 31.8206 54.0533 31.8206H50.08C49.0923 31.8213 48.1408 32.1924 47.4133 32.8606L39.0667 29.8472C38.3537 29.6048 37.6064 29.4787 36.8533 29.4739C35.8153 29.4496 34.7879 29.6881 33.8667 30.1672L29.4133 32.4072C28.4434 31.7543 27.3025 31.4019 26.1333 31.3939C25.3568 31.3826 24.5859 31.5277 23.8667 31.8206L17.52 34.3272C17.2528 33.5831 16.7595 32.9412 16.1091 32.4917C15.4587 32.0421 14.6839 31.8075 13.8933 31.8206H10C9.46957 31.8206 8.96086 32.0313 8.58578 32.4063C8.21071 32.7814 8 33.2901 8 33.8206C8 34.351 8.21071 34.8597 8.58578 35.2348C8.96086 35.6098 9.46957 35.8206 10 35.8206L13.8667 35.6072V47.7939H10C9.46957 47.7939 8.96086 48.0046 8.58578 48.3797C8.21071 48.7547 8 49.2635 8 49.7939C8 50.3243 8.21071 50.833 8.58578 51.2081C8.96086 51.5832 9.46957 51.7939 10 51.7939H13.92C14.9037 51.7979 15.8539 51.4368 16.5867 50.7806L16.7733 50.5406H19.6533L25.92 57.5272C26.3506 57.999 26.8783 58.372 27.4667 58.6206C28.0447 58.8898 28.6697 59.0438 29.3067 59.0739C29.7268 59.0724 30.1363 58.9421 30.48 58.7006C33.1191 56.7813 35.6559 54.7251 38.08 52.5406L47.36 50.7272C48.086 51.3976 49.0385 51.7691 50.0267 51.7672H53.9733C54.5038 51.7672 55.0125 51.5565 55.3875 51.1814C55.7626 50.8064 55.9733 50.2977 55.9733 49.7672C55.9733 49.2368 55.7626 48.7281 55.3875 48.353C55.0125 47.9779 54.5038 47.7672 53.9733 47.7672L54 47.8206ZM35.6267 33.7672C35.9823 33.5886 36.3754 33.4972 36.7733 33.5006C37.0716 33.5016 37.3681 33.5465 37.6533 33.6339L46.1067 36.7006V46.9139L42.5067 47.6072C42.5645 46.5393 42.2115 45.4898 41.52 44.6739L38.2933 40.5672C38.7397 40.3358 39.081 39.9426 39.2473 39.4681C39.4136 38.9936 39.3925 38.4734 39.1883 38.0139C38.9841 37.5544 38.6121 37.1902 38.1484 36.9957C37.6847 36.8011 37.1643 36.791 36.6933 36.9672L29.92 39.1806C29.6456 39.2877 29.341 39.2877 29.0667 39.1806C28.9329 39.1226 28.8121 39.0385 28.7114 38.9331C28.6106 38.8278 28.532 38.7034 28.48 38.5672C28.4213 38.4326 28.3909 38.2874 28.3909 38.1406C28.3909 37.9937 28.4213 37.8485 28.48 37.7139C28.5931 37.4375 28.8011 37.2105 29.0667 37.0739L30 36.5939L35.6267 33.7672ZM28.9333 54.9139L22.0533 47.2606C21.862 47.0566 21.6306 46.8945 21.3736 46.7844C21.1166 46.6742 20.8396 46.6185 20.56 46.6206H17.8933V38.6206L25.0667 35.7939C25.0667 36.0339 24.8267 36.2739 24.72 36.5139C24.328 37.7525 24.4016 39.0916 24.927 40.2799C25.4523 41.4681 26.3933 42.4237 27.5733 42.9672C28.2244 43.2387 28.9213 43.3835 29.6267 43.3939C30.1904 43.3898 30.7493 43.2906 31.28 43.1006L34.4 42.0872L38.3467 47.1272C35.398 49.9433 32.2523 52.5455 28.9333 54.9139Z" fill="#2D373D"/>
<path d="M31.76 27.9539H32.16C38.7733 27.9539 44.16 22.6206 45.68 20.8072C46.3155 20.0902 46.6663 19.1653 46.6663 18.2072C46.6663 17.2491 46.3155 16.3242 45.68 15.6072C42.56 12.1139 37.3333 8.40723 32 8.40723C26.6667 8.40723 21.3333 12.0339 18.32 15.5272C17.6471 16.2522 17.2732 17.2048 17.2732 18.1939C17.2732 19.183 17.6471 20.1356 18.32 20.8606C19.8133 22.4872 25.2267 27.9539 31.76 27.9539ZM31.76 12.4872H32.08C36.1741 12.9894 39.9319 15.0062 42.6133 18.1406C41.3177 19.777 39.7052 21.1353 37.8724 22.1342C36.0396 23.1331 34.0242 23.752 31.9467 23.9539C27.7853 23.5277 23.9563 21.4888 21.28 18.2739C23.9122 15.0435 27.7008 12.9674 31.84 12.4872H31.76Z" fill="#2D373D"/>
<path d="M29.28 18.3006C29.2829 19.0001 29.5607 19.6705 30.0533 20.1672C30.3003 20.4192 30.5948 20.6196 30.9198 20.757C31.2448 20.8943 31.5938 20.9658 31.9467 20.9672C32.6539 20.9672 33.3322 20.6863 33.8323 20.1862C34.3324 19.6861 34.6133 19.0078 34.6133 18.3006C34.6154 17.9496 34.5481 17.6017 34.4154 17.2768C34.2827 16.9519 34.0871 16.6564 33.84 16.4072C33.5908 16.1601 33.2953 15.9645 32.9704 15.8318C32.6455 15.6991 32.2976 15.6319 31.9467 15.6339C31.2394 15.6339 30.5611 15.9148 30.061 16.4149C29.5609 16.915 29.28 17.5933 29.28 18.3006Z" fill="#2D373D"/>
</svg>
