<svg width="64" height="65" viewBox="0 0 64 65" fill="none" xmlns="http://www.w3.org/2000/svg">
<path fill-rule="evenodd" clip-rule="evenodd" d="M27.3321 16.3346V8.25781C27.3321 7.15324 26.4367 6.25781 25.3321 6.25781C24.2275 6.25781 23.3321 7.15324 23.3321 8.25781V16.3346H21.3324C18.7582 16.3346 16.6657 18.4175 16.6657 20.998L16.6657 33.2303C16.6657 36.3461 17.3199 39.7469 19.6692 42.4256L5.91782 56.1769C5.13677 56.958 5.13677 58.2243 5.91782 59.0054C6.69887 59.7864 7.9652 59.7864 8.74624 59.0054L22.8238 44.9278C22.9517 44.9977 23.0817 45.0659 23.2139 45.1324V48.2578C23.2139 50.8351 25.3032 52.9245 27.8805 52.9245H30.1006V57.5911C30.1006 58.6957 30.996 59.5911 32.1006 59.5911C33.2052 59.5911 34.1006 58.6957 34.1006 57.5911V52.9245H36.4068C38.9841 52.9245 41.0734 50.8351 41.0734 48.2578V44.9129C45.5047 42.3959 47.9914 37.9156 47.9914 33.2289L47.9914 27.1128C47.9914 26.0082 47.096 25.1128 45.9914 25.1128C44.8869 25.1128 43.9914 26.0082 43.9914 27.1128L43.9914 33.2289C43.9914 38.0294 40.1527 42.9999 32.6586 42.9999C29.6818 42.9999 27.4721 42.58 25.8275 41.9241L58.0796 9.67203C58.8606 8.89098 58.8606 7.62465 58.0796 6.8436C57.2985 6.06255 56.0322 6.06255 55.2511 6.8436L22.5075 39.5873C21.1805 37.9481 20.6657 35.7528 20.6657 33.2303L20.6657 20.998C20.6657 20.633 20.961 20.3346 21.3324 20.3346H38.6649C39.7695 20.3346 40.6649 19.4392 40.6649 18.3346V8.25781C40.6649 7.15324 39.7695 6.25781 38.6649 6.25781C37.5603 6.25781 36.6649 7.15324 36.6649 8.25781V16.3346H27.3321ZM37.0734 46.4868C35.7117 46.8197 34.2372 46.9999 32.6586 46.9999C30.6342 46.9999 28.8237 46.8255 27.2139 46.4892V48.2578C27.2139 48.626 27.5123 48.9245 27.8805 48.9245H36.4068C36.775 48.9245 37.0734 48.626 37.0734 48.2578V46.4868Z" fill="#2D373D"/>
</svg>
