<svg width="64" height="65" viewBox="0 0 64 65" fill="none" xmlns="http://www.w3.org/2000/svg">
<path d="M47.9996 5.66016H16.1996C13.1996 5.66016 10.7996 7.86016 10.5996 11.0602V55.6602C10.5996 57.0602 11.3996 58.4602 12.9996 58.8602C13.9996 59.4602 15.3996 59.2602 16.5996 58.6602L30.9996 51.4602C30.9996 51.2602 31.1996 51.2602 31.1996 51.2602C31.7996 50.8602 32.5996 50.8602 33.1996 51.2602C33.1996 51.4602 33.3996 51.4602 33.3996 51.4602L47.7996 58.6602C48.3996 59.0602 48.9996 59.2602 49.7996 59.2602C50.3996 59.2602 50.7996 59.2602 51.3996 58.8602C52.7996 58.4602 53.5996 57.0602 53.5996 55.6602V10.8602C53.3996 7.86016 50.9996 5.66016 47.9996 5.66016ZM49.5996 55.2602L35.1996 48.0602C33.1996 46.8602 30.7996 46.8602 28.9996 48.0602L14.5996 55.2602V11.0602C14.5996 10.2602 15.1996 9.66016 15.9996 9.66016H47.9996C48.5996 9.66016 49.3996 10.2602 49.3996 11.0602V55.2602H49.5996Z" fill="#2D373D"/>
<path d="M40.6 22.6602H37.2L35 18.2602C34.8 17.6602 34.2 17.2602 33.6 16.8602C32.8 16.4602 31.8 16.4602 31 16.6602C30 16.8602 29.4 17.4602 29 18.2602L26.8 22.6602H23.4C22.6 22.6602 21.8 23.0602 21 23.6602C20.4 24.2602 20 25.2602 20 26.0602C20 27.0602 20.4 27.8602 21 28.4602L24.4 31.6602L22.6 35.8602C22.2 36.8602 22.2 38.0602 22.8 38.8602C23.6 40.4602 25.6 41.0602 27.2 40.0602L32 37.4602L36.8 40.0602C37.2 40.2602 37.8 40.4602 38.4 40.4602C39 40.4602 39.4 40.4602 39.6 40.2602C40.4 39.8602 41 39.2602 41.4 38.4602C41.8 37.6602 41.8 36.6602 41.4 35.8602L39.6 31.6602L43 28.4602C43.6 27.8602 44 26.8602 44 26.0602C44 25.0602 43.6 24.2602 43 23.6602C42.2 23.0602 41.4 22.6602 40.6 22.6602ZM35.8 29.6602C35.2 30.2602 35 31.0602 35.4 31.8602L37 35.4602L33 33.2602C32.6 33.0602 32.4 33.0602 32 33.0602C31.8 33.0602 31.4 33.0602 31 33.2602L27 35.4602L28.6 31.8602C29 31.0602 28.8 30.2602 28.2 29.6602L25.2 26.6602H28.2C28.8 26.6602 29.6 26.2602 30 25.6602L32 21.4602L34 25.6602C34.4 26.2602 35 26.6602 35.8 26.6602H38.8L35.8 29.6602Z" fill="#2D373D"/>
</svg>
