<svg width="32" height="33" viewBox="0 0 32 33" fill="none" xmlns="http://www.w3.org/2000/svg">
<path fill-rule="evenodd" clip-rule="evenodd" d="M6.472 6.93305C6.21776 6.93305 6.01166 7.13915 6.01166 7.39338V26.4504C6.01166 26.7046 6.21776 26.9107 6.472 26.9107H25.529C25.7832 26.9107 25.9893 26.7046 25.9893 26.4504V7.39338C25.9893 7.13915 25.7832 6.93305 25.529 6.93305H6.472ZM4.00049 7.39338C4.00049 6.02841 5.10702 4.92188 6.472 4.92188H25.529C26.894 4.92188 28.0005 6.02841 28.0005 7.39338V26.4504C28.0005 27.8153 26.894 28.9219 25.529 28.9219H6.472C5.10702 28.9219 4.00049 27.8153 4.00049 26.4504V7.39338Z" fill="#2D373D"/>
<path fill-rule="evenodd" clip-rule="evenodd" d="M13.8016 12.7968C13.5474 12.7968 13.3413 13.0029 13.3413 13.2571V20.5867C13.3413 20.8409 13.5474 21.047 13.8016 21.047H18.1994C18.4536 21.047 18.6597 20.8409 18.6597 20.5867V13.2571C18.6597 13.0029 18.4536 12.7968 18.1994 12.7968H13.8016ZM11.3301 13.2571C11.3301 11.8921 12.4366 10.7856 13.8016 10.7856H18.1994C19.5644 10.7856 20.6709 11.8921 20.6709 13.2571V20.5867C20.6709 21.9517 19.5644 23.0582 18.1994 23.0582H13.8016C12.4366 23.0582 11.3301 21.9517 11.3301 20.5867V13.2571Z" fill="#2D373D"/>
<path fill-rule="evenodd" clip-rule="evenodd" d="M14.2618 14.723C14.2618 14.1676 14.712 13.7174 15.2673 13.7174H16.7324C17.2877 13.7174 17.738 14.1676 17.738 14.723C17.738 15.2784 17.2877 15.7286 16.7324 15.7286H15.2673C14.712 15.7286 14.2618 15.2784 14.2618 14.723Z" fill="#2D373D"/>
</svg>
