<svg width="32" height="32" viewBox="0 0 32 32" fill="none" xmlns="http://www.w3.org/2000/svg">
<path d="M21.1066 10.8918C21.4971 11.2823 21.4971 11.9155 21.1066 12.306L17.4135 15.9991L21.1066 19.6923C21.4971 20.0828 21.4971 20.716 21.1066 21.1065C20.7161 21.497 20.0829 21.497 19.6924 21.1065L15.9992 17.4134L12.3061 21.1065C11.9156 21.497 11.2824 21.497 10.8919 21.1065C10.5013 20.716 10.5013 20.0828 10.8919 19.6923L14.585 15.9991L10.8919 12.306C10.5013 11.9155 10.5013 11.2823 10.8919 10.8918C11.2824 10.5012 11.9156 10.5012 12.3061 10.8918L15.9992 14.5849L19.6924 10.8918C20.0829 10.5012 20.7161 10.5012 21.1066 10.8918Z" fill="#2D373D"/>
<path fill-rule="evenodd" clip-rule="evenodd" d="M3.99854 6.46529C3.99854 5.10294 5.10294 3.99854 6.46529 3.99854H25.5331C26.8955 3.99854 27.9999 5.10294 27.9999 6.46529V25.5331C27.9999 26.8955 26.8955 27.9999 25.5331 27.9999H6.46529C5.10294 27.9999 3.99854 26.8955 3.99854 25.5331V6.46529ZM6.46529 5.99854C6.20751 5.99854 5.99854 6.20751 5.99854 6.46529V25.5331C5.99854 25.7909 6.20751 25.9999 6.46529 25.9999H25.5331C25.7909 25.9999 25.9999 25.7909 25.9999 25.5331V6.46529C25.9999 6.20751 25.7909 5.99854 25.5331 5.99854H6.46529Z" fill="#2D373D"/>
</svg>
