<svg width="32" height="32" viewBox="0 0 32 32" fill="none" xmlns="http://www.w3.org/2000/svg">
<path d="M20.9999 7.59998H20.2999V3.59998C20.2999 2.99998 19.8999 2.59998 19.2999 2.59998C18.6999 2.59998 18.2999 2.99998 18.2999 3.59998V7.59998H13.6999V3.59998C13.6999 2.99998 13.2999 2.59998 12.6999 2.59998C12.0999 2.59998 11.6999 2.99998 11.6999 3.59998V7.59998H11.0999C9.5999 7.59998 8.3999 8.69998 8.3999 10.2V15.2C8.3999 17.8 9.6999 20.1 11.6999 21.5V23.4C11.6999 24.9 12.8999 26.1 14.3999 26.1H14.9999V28.4C14.9999 29 15.3999 29.4 15.9999 29.4C16.5999 29.4 16.9999 29 16.9999 28.4V26.1H17.6999C19.0999 26.1 20.2999 24.9 20.3999 23.4V21.4C22.2999 20 23.5999 17.8 23.6999 15.2V10.2C23.6999 8.79998 22.4999 7.59998 20.9999 7.59998ZM18.3999 23.4C18.3999 23.8 18.0999 24.1 17.6999 24.1H14.3999C13.9999 24.1 13.6999 23.8 13.6999 23.4V22.4C14.3999 22.6 15.1999 22.8 15.9999 22.8C16.7999 22.8 17.5999 22.7 18.3999 22.4V23.4ZM21.5999 15.2C21.5999 18.3 19.0999 20.8 15.9999 20.8C15.0999 20.8 14.1999 20.6 13.3999 20.2C13.2999 20.1 13.1999 20 12.9999 20C11.3999 19 10.2999 17.3 10.2999 15.2V10.2C10.2999 9.89998 10.5999 9.59998 10.9999 9.59998H20.7999C21.1999 9.59998 21.4999 9.79998 21.4999 10.2V15.2H21.5999Z" fill="#2D373D"/>
</svg>
