<svg width="32" height="32" viewBox="0 0 32 32" fill="none" xmlns="http://www.w3.org/2000/svg">
<path d="M16.0002 2.6001C10.9002 2.6001 6.7002 6.8001 6.7002 11.9001C6.7002 16.4001 9.3002 19.2001 11.7002 21.6001C12.0002 21.9001 12.3002 22.2001 12.6002 22.5001C13.6002 23.4001 14.6002 26.7001 15.0002 28.6001C15.1002 29.1001 15.5002 29.4001 16.0002 29.4001C16.4002 29.4001 16.8002 29.1001 17.0002 28.7001C17.5002 26.8001 18.5002 23.5001 19.4002 22.5001C19.7002 22.1001 20.0002 21.8001 20.3002 21.5001C22.6002 19.1001 25.3002 16.4001 25.3002 11.9001C25.3002 6.8001 21.1002 2.6001 16.0002 2.6001ZM18.8002 20.2001C18.5002 20.5001 18.2002 20.9001 17.9002 21.2001C17.1002 22.0001 16.5002 23.5001 16.0002 24.9001C15.5002 23.5001 14.8002 22.0001 14.1002 21.2001C13.8002 20.9001 13.5002 20.5001 13.2002 20.2001C11.0002 17.9001 8.7002 15.6001 8.7002 11.9001C8.7002 7.9001 12.0002 4.6001 16.0002 4.6001C20.0002 4.6001 23.2002 7.9001 23.2002 11.9001C23.2002 15.6001 21.0002 17.9001 18.8002 20.2001Z" fill="#2D373D"/>
<path d="M16.0002 7.6001C13.6002 7.6001 11.7002 9.5001 11.7002 11.9001C11.7002 14.2001 13.6002 16.2001 16.0002 16.2001C18.3002 16.2001 20.3002 14.2001 20.3002 11.9001C20.3002 9.5001 18.4002 7.6001 16.0002 7.6001ZM16.0002 14.2001C14.7002 14.2001 13.7002 13.2001 13.7002 11.9001C13.7002 10.6001 14.7002 9.6001 16.0002 9.6001C17.2002 9.6001 18.3002 10.6001 18.3002 11.9001C18.3002 13.2001 17.3002 14.2001 16.0002 14.2001Z" fill="#2D373D"/>
</svg>
