<svg width="32" height="33" viewBox="0 0 32 33" fill="none" xmlns="http://www.w3.org/2000/svg">
<path fill-rule="evenodd" clip-rule="evenodd" d="M23.4822 6.51034C21.3865 5.90873 18.5815 5.58802 16.0004 5.58789C13.4194 5.58776 10.6144 5.90839 8.51875 6.51C7.45821 6.81446 6.71166 7.15404 6.27389 7.46613C6.12078 7.5753 6.04018 7.65395 6.00049 7.70013V16.9211C6.00049 19.975 7.39455 22.8308 9.4393 24.9486C11.516 27.0995 14.0281 28.2545 16.0005 28.2546C17.9729 28.2546 20.4849 27.0997 22.5617 24.9487C24.6064 22.8309 26.0005 19.9751 26.0005 16.9211V7.70035C25.9608 7.65418 25.8802 7.57555 25.7271 7.46643C25.2894 7.15436 24.5428 6.8148 23.4822 6.51034ZM26.0346 7.74892C26.0346 7.74892 26.0297 7.74301 26.0245 7.73088C26.0328 7.74281 26.0346 7.74892 26.0346 7.74892ZM5.96639 7.74868C5.96639 7.74868 5.96818 7.74256 5.9765 7.73062C5.97134 7.74276 5.96639 7.74868 5.96639 7.74868ZM16.0005 3.58789C21.4234 3.58817 28.0005 4.92122 28.0005 7.58777V16.9211C28.0005 24.2546 21.3338 30.2547 16.0005 30.2546C10.6672 30.2544 4.00049 24.2544 4.00049 16.9211V7.58761C4.00049 4.92095 10.5776 3.58761 16.0005 3.58789Z" fill="#2D373D"/>
<path fill-rule="evenodd" clip-rule="evenodd" d="M16.0005 16.0419C15.9737 16.0419 15.4643 15.0422 14.8656 13.8193L13.7754 11.5879H10.3708V20.6922H13.7665L13.7843 18.4875L13.8112 16.2739L14.9103 18.4964L16.0005 20.719L17.0996 18.4964L18.1898 16.2739L18.2166 18.4786L18.2345 20.6922H21.6302V11.5879H19.9145L18.1898 11.5968L17.1175 13.8193C16.5277 15.0422 16.0273 16.0419 16.0005 16.0419Z" fill="#2D373D"/>
<path d="M14.8656 13.8193C15.4643 15.0422 15.9737 16.0419 16.0005 16.0419C16.0273 16.0419 16.5277 15.0422 17.1175 13.8193L18.1898 11.5968L19.9145 11.5879H21.6302V20.6922H18.2345L18.2166 18.4786L18.1898 16.2739L17.0996 18.4964L16.0005 20.719L14.9103 18.4964L13.8112 16.2739L13.7843 18.4875L13.7665 20.6922H10.3708V11.5879H13.7754L14.8656 13.8193Z" fill="#2D373D"/>
</svg>
