<svg width="32" height="33" viewBox="0 0 32 33" fill="none" xmlns="http://www.w3.org/2000/svg">
<path fill-rule="evenodd" clip-rule="evenodd" d="M15.0002 12.8068H6.96493C6.56126 12.8063 6.18637 12.6512 5.90055 12.396C5.61739 12.1432 5.43597 11.8083 5.36073 11.457C5.28551 11.1059 5.31523 10.7354 5.45035 10.3988C5.58567 10.0618 5.82762 9.75916 6.16246 9.56249C6.18353 9.55011 6.20505 9.53851 6.22697 9.52771L14.8838 5.26268C15.2193 5.06173 15.6029 4.95117 16.0003 4.95117C16.3977 4.95117 16.7813 5.06173 17.1168 5.26268L25.7737 9.52771C25.7956 9.53851 25.8171 9.55011 25.8382 9.56249C26.173 9.75916 26.4149 10.0618 26.5503 10.3988C26.6854 10.7354 26.7151 11.1059 26.6399 11.457C26.5646 11.8083 26.3832 12.1432 26.1001 12.396C25.8143 12.6512 25.4407 12.8063 25.037 12.8068H17.0002V17.3947H20.518C21.0702 17.3947 21.518 17.8424 21.518 18.3947C21.518 18.9469 21.0702 19.3947 20.518 19.3947H17.0002V27.9109C17.0002 28.4632 16.5525 28.9109 16.0002 28.9109C15.448 28.9109 15.0002 28.4632 15.0002 27.9109V19.3947H11.4826C10.9303 19.3947 10.4826 18.9469 10.4826 18.3947C10.4826 17.8424 10.9303 17.3947 11.4826 17.3947H15.0002V12.8068ZM15.9054 6.98218C15.9437 6.9578 15.9759 6.95117 16.0003 6.95117C16.0247 6.95117 16.0569 6.9578 16.0952 6.98218C16.1261 7.00186 16.158 7.01983 16.1908 7.03602L23.8445 10.8068H16.0336C16.0225 10.8065 16.0114 10.8063 16.0002 10.8063C15.9891 10.8063 15.978 10.8065 15.9669 10.8068H8.15612L15.8098 7.03602C15.8426 7.01983 15.8746 7.00186 15.9054 6.98218Z" fill="#2D373D"/>
<path d="M6.77269 15.2179C7.31467 15.1118 7.84011 15.465 7.94629 16.007L9.07871 21.787H10.8372C11.4883 21.787 12.083 22.0815 12.5 22.5545C12.9135 23.0235 13.128 23.6354 13.128 24.2511V27.9112C13.128 28.4635 12.6803 28.9112 12.128 28.9112C11.5757 28.9112 11.128 28.4635 11.128 27.9112V24.2511C11.128 24.0902 11.0705 23.9573 10.9998 23.8772C10.9327 23.8011 10.8708 23.787 10.8372 23.787H9.03503L7.93463 28.1555C7.79972 28.691 7.25621 29.0158 6.72065 28.8809C6.1851 28.746 5.86031 28.2025 5.99521 27.667L7.23129 22.7599L5.98361 16.3915C5.87742 15.8496 6.23071 15.3241 6.77269 15.2179Z" fill="#2D373D"/>
<path d="M26.017 16.3915C26.1232 15.8496 25.7699 15.3241 25.2279 15.2179C24.686 15.1118 24.1605 15.465 24.0543 16.007L22.9219 21.787H21.1633C20.5122 21.787 19.9176 22.0815 19.5005 22.5545C19.0871 23.0235 18.8726 23.6354 18.8726 24.2511V27.9112C18.8726 28.4635 19.3203 28.9112 19.8726 28.9112C20.4248 28.9112 20.8726 28.4635 20.8726 27.9112V24.2511C20.8726 24.0902 20.93 23.9573 21.0007 23.8772C21.0678 23.8011 21.1298 23.787 21.1633 23.787H22.9655L24.0659 28.1555C24.2008 28.691 24.7443 29.0158 25.2799 28.8809C25.8155 28.746 26.1402 28.2025 26.0053 27.667L24.7693 22.76L26.017 16.3915Z" fill="#2D373D"/>
</svg>
