<svg width="32" height="33" viewBox="0 0 32 33" fill="none" xmlns="http://www.w3.org/2000/svg">
<path d="M22.9688 8.14216C21.7795 6.75261 21.1497 4.97038 21.2018 3.14216L16.7468 3.03516V21.3462C16.8088 26.9982 7.87876 26.8612 8.58576 20.6132C8.69727 20.0239 8.93488 19.4657 9.2823 18.9768C9.62972 18.4879 10.0787 18.08 10.5986 17.7809C11.1184 17.4818 11.6968 17.2986 12.294 17.244C12.8913 17.1893 13.4933 17.2644 14.0588 17.4642V12.9192C12.8304 12.7168 11.5729 12.7833 10.3727 13.114C9.1726 13.4448 8.05848 14.0319 7.1072 14.8348C6.15593 15.6378 5.39014 16.6376 4.86264 17.7651C4.33514 18.8927 4.05849 20.1213 4.05176 21.3662C4.50276 32.7222 20.7908 32.7232 21.2428 21.3662C21.1288 20.9602 21.1928 13.3922 21.1768 12.7542C23.2042 14.0151 25.5606 14.6451 27.9468 14.5642V9.86916C27.043 9.93728 26.1349 9.81915 25.2786 9.52209C24.4223 9.22503 23.6362 8.75536 22.9688 8.14216Z" fill="#2D373D"/>
</svg>
