<svg width="24" height="25" viewBox="0 0 24 25" fill="none" xmlns="http://www.w3.org/2000/svg">
<path fill-rule="evenodd" clip-rule="evenodd" d="M14.1529 3.9148C14.395 3.89764 14.6381 3.92813 14.8684 4.00457C15.0987 4.08101 15.3119 4.20196 15.4956 4.36065C15.6794 4.51935 15.8301 4.71271 15.939 4.92978L17.4601 7.9587C18.0631 8.0583 18.6248 8.34301 19.0633 8.77957C19.6171 9.33099 19.9288 10.0796 19.9288 10.8608V11.365C20.1345 11.456 20.3239 11.5844 20.4863 11.7461C20.8337 12.0921 21.0295 12.5619 21.0295 13.0525V16.34C21.0295 16.8306 20.8337 17.3005 20.4863 17.6464C20.3239 17.8081 20.1345 17.9366 19.9288 18.0275V18.5317C19.9288 19.3129 19.6171 20.0615 19.0633 20.6129C18.5096 21.1643 17.7592 21.4734 16.9776 21.4734H5.97128C5.18961 21.4734 4.4393 21.1643 3.88558 20.6129C3.33175 20.0615 3.02002 19.3129 3.02002 18.5317V10.8608C3.02002 10.0796 3.33175 9.33099 3.88558 8.77957C4.39466 8.27271 5.06991 7.97055 5.78292 7.92512L13.4572 4.10466C13.6744 3.9965 13.9109 3.93196 14.1529 3.9148ZM19.181 16.6859L19.1788 16.6859L19.175 16.6859H16.4273C15.8954 16.6859 15.3859 16.4755 15.0108 16.102C14.6358 15.7286 14.4257 15.2229 14.4257 14.6963C14.4257 14.1697 14.6358 13.6639 15.0108 13.2906C15.3859 12.9171 15.8954 12.7067 16.4273 12.7067H19.1789C19.2729 12.7067 19.3625 12.7439 19.428 12.8091C19.4934 12.8742 19.5295 12.9618 19.5295 13.0525V16.34C19.5295 16.4307 19.4934 16.5183 19.428 16.5834C19.363 16.6482 19.2743 16.6853 19.181 16.6859ZM18.4288 18.1859V18.5317C18.4288 18.913 18.2767 19.2794 18.0049 19.55C17.733 19.8207 17.3635 19.9734 16.9776 19.9734H5.97128C5.58533 19.9734 5.21584 19.8207 4.94393 19.55C4.67212 19.2794 4.52002 18.913 4.52002 18.5317V10.8608C4.52002 10.4795 4.67212 10.1132 4.94393 9.84254C5.21282 9.57482 5.57713 9.42254 5.95842 9.41919C5.96832 9.41936 5.97824 9.41934 5.98816 9.41913H16.962C16.9717 9.41934 16.9814 9.41936 16.9912 9.41919C17.3722 9.42273 17.7362 9.57499 18.0049 9.84254C18.2767 10.1132 18.4288 10.4795 18.4288 10.8608V11.2067H16.4273C15.4997 11.2067 14.6094 11.5735 13.9525 12.2276C13.2954 12.8818 12.9257 13.7697 12.9257 14.6963C12.9257 15.6228 13.2954 16.5108 13.9525 17.1649C14.6094 17.819 15.4997 18.1859 16.4273 18.1859H18.4288ZM14.5985 5.60277L15.7617 7.91913H9.16079L14.1261 5.44729C14.1674 5.42669 14.2126 5.41433 14.259 5.41105C14.3054 5.40776 14.3519 5.41361 14.3959 5.42821C14.4399 5.44282 14.4804 5.46584 14.5151 5.49582C14.5498 5.52579 14.5781 5.56229 14.5985 5.60277Z" fill="#2D373D"/>
<path fill-rule="evenodd" clip-rule="evenodd" d="M16.4273 13.6723C16.1565 13.6723 15.8961 13.7794 15.7036 13.9711C15.5109 14.1629 15.4021 14.4237 15.4021 14.6963C15.4021 14.8995 15.4627 15.0979 15.5757 15.2664C15.6888 15.4349 15.8491 15.5656 16.036 15.6427C16.223 15.7198 16.4285 15.7399 16.6267 15.7007C16.8249 15.6614 17.0074 15.5644 17.151 15.4215C17.2946 15.2785 17.3928 15.0959 17.4326 14.8967C17.4724 14.6974 17.452 14.4909 17.374 14.3034C17.296 14.1159 17.1641 13.9562 16.9956 13.844C16.8271 13.732 16.6293 13.6723 16.4273 13.6723Z" fill="#2D373D"/>
</svg>
