<svg width="24" height="25" viewBox="0 0 24 25" fill="none" xmlns="http://www.w3.org/2000/svg">
<path fill-rule="evenodd" clip-rule="evenodd" d="M7.5 9.42188C9.29493 9.42188 10.75 7.9668 10.75 6.17188C10.75 4.37695 9.29493 2.92188 7.5 2.92188C5.70507 2.92188 4.25 4.37695 4.25 6.17188C4.25 7.9668 5.70507 9.42188 7.5 9.42188ZM7.5 7.92188C8.4665 7.92188 9.25 7.13837 9.25 6.17188C9.25 5.20538 8.4665 4.42188 7.5 4.42188C6.5335 4.42188 5.75 5.20538 5.75 6.17188C5.75 7.13837 6.5335 7.92188 7.5 7.92188Z" fill="#2D373D"/>
<path d="M6.24624 9.70762C6.48003 10.0495 6.39237 10.5163 6.05044 10.75C5.77039 10.9415 5.5 11.2362 5.5 11.6725V15.6725C5.5 15.9217 5.56063 16.2896 5.70993 16.5661C5.84168 16.8101 5.99677 16.9225 6.25 16.9225C6.66421 16.9225 7 17.2583 7 17.6725V20.1725C7 20.547 7.10475 20.8753 7.2702 21.0911C7.41744 21.2832 7.636 21.4225 8 21.4225C8.364 21.4225 8.58256 21.2832 8.7298 21.0911C8.89525 20.8753 9 20.547 9 20.1725V17.6725C9 17.3496 9.20657 17.063 9.51283 16.961C9.75719 16.8795 10.2019 16.6072 10.3965 16.1724C10.5657 15.7943 11.0094 15.625 11.3875 15.7942C11.7655 15.9635 11.9348 16.4072 11.7656 16.7852C11.4695 17.4467 10.954 17.8884 10.5 18.1495V20.1725C10.5 20.7979 10.3298 21.4696 9.9202 22.0038C9.49244 22.5617 8.836 22.9225 8 22.9225C7.164 22.9225 6.50756 22.5617 6.0798 22.0038C5.67025 21.4696 5.5 20.7979 5.5 20.1725V18.2903C4.97537 18.0914 4.61415 17.6938 4.39007 17.2788C4.08937 16.722 4 16.0899 4 15.6725V11.6725C4 10.5139 4.74711 9.82408 5.20381 9.51181C5.54574 9.27802 6.01245 9.36569 6.24624 9.70762Z" fill="#2D373D"/>
<path fill-rule="evenodd" clip-rule="evenodd" d="M8.29034 10.1513C7.99745 9.85842 7.52257 9.85842 7.22968 10.1513C6.93679 10.4442 6.93679 10.9191 7.22968 11.212L12.6734 16.6557C12.2242 17.4312 12.1577 18.3887 12.5529 19.2909C12.6704 19.5589 12.9163 19.9123 13.1563 20.235C13.4132 20.5804 13.7213 20.9663 14.0145 21.3237C14.3086 21.6821 14.5923 22.0173 14.8021 22.2625C14.9071 22.3852 14.9939 22.4857 15.0545 22.5557L15.125 22.6368L15.1506 22.6661C15.2873 22.8222 15.4826 22.9147 15.69 22.9216C15.8974 22.9284 16.0984 22.849 16.2451 22.7023L19.7807 19.1668C19.9256 19.0218 20.0049 18.8239 20.0001 18.619C19.9954 18.4142 19.9064 18.2196 19.7549 18.0815L19.7482 18.0754L19.7283 18.0574L19.6537 17.9902C19.5893 17.9323 19.4967 17.8496 19.3827 17.7491C19.155 17.5484 18.8407 17.2755 18.4954 16.9879C18.1511 16.7011 17.7705 16.3952 17.4111 16.1303C17.0634 15.8741 16.6946 15.6253 16.3839 15.4812C15.4738 15.059 14.5076 15.142 13.7333 15.5943L8.29034 10.1513ZM18.1567 18.6694L15.7564 21.0697C15.5827 20.8648 15.3808 20.624 15.1741 20.3722C14.8876 20.023 14.5964 19.6579 14.36 19.34C14.1068 18.9994 13.9654 18.777 13.9269 18.6891C13.6671 18.096 13.7988 17.514 14.1956 17.1172C14.6018 16.711 15.1879 16.5799 15.7528 16.8419C15.9169 16.9181 16.1832 17.0887 16.5212 17.3378C16.8475 17.5783 17.203 17.8636 17.5355 18.1405C17.7614 18.3287 17.9742 18.5109 18.1567 18.6694Z" fill="#2D373D"/>
</svg>
