<svg width="32" height="33" viewBox="0 0 32 33" fill="none" xmlns="http://www.w3.org/2000/svg">
<path d="M28.3996 8.56133H20.4996C20.2996 6.16133 18.3996 4.36133 15.9996 4.36133C13.5996 4.36133 11.6996 6.16133 11.4996 8.56133H3.59961C2.99961 8.56133 2.59961 8.96133 2.59961 9.56133V26.1613C2.59961 26.7613 2.99961 27.1613 3.59961 27.1613H28.3996C28.9996 27.1613 29.3996 26.7613 29.3996 26.1613V9.56133C29.3996 8.96133 28.9996 8.56133 28.3996 8.56133ZM15.9996 6.36133C17.2996 6.36133 18.2996 7.26133 18.4996 8.56133H13.5996C13.6996 7.36133 14.6996 6.36133 15.9996 6.36133ZM27.3996 25.1613H4.59961V17.2613H13.2996C13.3996 18.6613 14.5996 19.6613 15.9996 19.6613C17.3996 19.6613 18.5996 18.6613 18.5996 17.2613H27.3996V25.1613V25.1613ZM15.2996 17.0613V15.4613C15.2996 15.2613 15.3996 15.0613 15.4996 14.9613C15.6996 14.8613 15.7996 14.7613 15.9996 14.7613C16.3996 14.7613 16.6996 15.0613 16.6996 15.3613V17.0613C16.6996 17.4613 16.3996 17.7613 15.9996 17.7613C15.5996 17.7613 15.2996 17.4613 15.2996 17.0613ZM27.3996 15.2613H18.5996C18.4996 13.8613 17.3996 12.7613 15.9996 12.7613C15.2996 12.6613 14.5996 12.9613 14.0996 13.4613C13.5996 13.9613 13.2996 14.5613 13.2996 15.2613H4.59961V10.5613H27.3996V15.2613Z" fill="#2D373D"/>
</svg>
