<svg width="64" height="65" viewBox="0 0 64 65" fill="none" xmlns="http://www.w3.org/2000/svg">
<path fill-rule="evenodd" clip-rule="evenodd" d="M21.3732 15.1477C21.3732 11.4547 18.3794 8.46094 14.6864 8.46094C10.9934 8.46094 7.99967 11.4547 7.99967 15.1477C7.99967 18.8407 10.9934 21.8345 14.6864 21.8345C16.1154 21.8345 17.4397 21.3853 18.5254 20.6229L19.397 21.3393C20.2502 22.0408 21.5106 21.9177 22.212 21.0644C22.9134 20.2111 22.7903 18.9508 21.9371 18.2494L20.9655 17.4507C21.2291 16.732 21.3732 15.9558 21.3732 15.1477ZM14.6864 12.4609C16.1703 12.4609 17.3732 13.6638 17.3732 15.1477C17.3732 15.755 17.1741 16.31 16.8369 16.7589C16.3433 17.4158 15.564 17.8345 14.6864 17.8345C13.2026 17.8345 11.9997 16.6316 11.9997 15.1477C11.9997 13.6638 13.2026 12.4609 14.6864 12.4609Z" fill="#2D373D"/>
<path fill-rule="evenodd" clip-rule="evenodd" d="M32.0073 18.4609C27.7967 18.4609 24.3832 21.8744 24.3832 26.0851C24.3832 28.7851 25.7868 31.1574 27.9042 32.512C24.7108 34.0425 22.5056 37.3051 22.5056 41.0827C22.5056 42.1873 23.4011 43.0827 24.5056 43.0827H39.5033C40.6078 43.0827 41.5033 42.1873 41.5033 41.0827C41.5033 37.3064 39.2996 34.0447 36.108 32.5136C38.2268 31.1593 39.6315 28.7862 39.6315 26.0851C39.6315 21.8744 36.218 18.4609 32.0073 18.4609ZM28.3832 26.0851C28.3832 24.0835 30.0058 22.4609 32.0073 22.4609C34.0089 22.4609 35.6315 24.0835 35.6315 26.0851C35.6315 28.0866 34.0089 29.7092 32.0073 29.7092C30.0058 29.7092 28.3832 28.0866 28.3832 26.0851ZM32.0044 35.5839C34.3358 35.5839 36.3282 37.0347 37.1282 39.0827H26.8806C27.6807 37.0347 29.6731 35.5839 32.0044 35.5839Z" fill="#2D373D"/>
<path fill-rule="evenodd" clip-rule="evenodd" d="M21.3706 49.9075C21.3706 53.6005 18.3768 56.5942 14.6838 56.5942C10.9908 56.5942 7.99707 53.6005 7.99707 49.9075C7.99707 46.2145 10.9908 43.2207 14.6838 43.2207C16.1128 43.2207 17.4371 43.6698 18.5228 44.4323L19.3944 43.7158C20.2476 43.0144 21.508 43.1375 22.2094 43.9908C22.9108 44.844 22.7877 46.1044 21.9345 46.8058L20.9629 47.6045C21.2265 48.3232 21.3706 49.0994 21.3706 49.9075ZM14.6838 52.5942C16.1677 52.5942 17.3706 51.3913 17.3706 49.9075C17.3706 49.3002 17.1715 48.7452 16.8343 48.2963C16.3407 47.6394 15.5614 47.2207 14.6838 47.2207C13.2 47.2207 11.9971 48.4236 11.9971 49.9075C11.9971 51.3913 13.2 52.5942 14.6838 52.5942Z" fill="#2D373D"/>
<path fill-rule="evenodd" clip-rule="evenodd" d="M49.3144 56.5942C45.6214 56.5942 42.6276 53.6004 42.6276 49.9074C42.6276 49.0993 42.7717 48.3231 43.0354 47.6044L42.0638 46.8057C41.2105 46.1043 41.0874 44.844 41.7888 43.9907C42.4903 43.1374 43.7506 43.0143 44.6039 43.7158L45.4754 44.4322C46.5611 43.6698 47.8854 43.2206 49.3144 43.2206C53.0074 43.2206 56.0012 46.2144 56.0012 49.9074C56.0012 53.6004 53.0074 56.5942 49.3144 56.5942ZM46.6276 49.9074C46.6276 51.3913 47.8305 52.5942 49.3144 52.5942C50.7983 52.5942 52.0012 51.3913 52.0012 49.9074C52.0012 48.4235 50.7983 47.2206 49.3144 47.2206C48.4368 47.2206 47.6575 47.6393 47.164 48.2962C46.8267 48.7451 46.6276 49.3001 46.6276 49.9074Z" fill="#2D373D"/>
<path fill-rule="evenodd" clip-rule="evenodd" d="M49.3144 8.46094C45.6214 8.46094 42.6276 11.4547 42.6276 15.1477C42.6276 15.9558 42.7717 16.732 43.0354 17.4507L42.0638 18.2494C41.2105 18.9508 41.0874 20.2111 41.7888 21.0644C42.4903 21.9177 43.7506 22.0408 44.6039 21.3393L45.4754 20.6229C46.5611 21.3853 47.8854 21.8345 49.3144 21.8345C53.0074 21.8345 56.0012 18.8407 56.0012 15.1477C56.0012 11.4547 53.0074 8.46094 49.3144 8.46094ZM46.6276 15.1477C46.6276 13.6638 47.8305 12.4609 49.3144 12.4609C50.7983 12.4609 52.0012 13.6638 52.0012 15.1477C52.0012 16.6316 50.7983 17.8345 49.3144 17.8345C48.4368 17.8345 47.6575 17.4158 47.164 16.7589C46.8267 16.31 46.6276 15.755 46.6276 15.1477Z" fill="#2D373D"/>
</svg>
