<svg width="16" height="17" viewBox="0 0 16 17" fill="none" xmlns="http://www.w3.org/2000/svg">
<path fill-rule="evenodd" clip-rule="evenodd" d="M14.5751 4.89276C14.4813 5.02528 14.3291 5.10406 14.1668 5.10406H12.3242C12.3041 5.10406 12.2596 5.10509 12.2058 5.11335C12.1504 5.12187 12.0986 5.13606 12.0579 5.15534C12.0188 5.17387 12.0026 5.19086 11.9954 5.20117C11.991 5.20743 11.9722 5.23502 11.9722 5.31416C11.9722 5.39283 11.991 5.42021 11.9953 5.42649C12.0026 5.43693 12.0191 5.45412 12.0587 5.47281C12.0998 5.49224 12.1518 5.50645 12.2072 5.51498C12.261 5.52325 12.3051 5.52425 12.3242 5.52425H14.1668C14.3291 5.52425 14.4813 5.60304 14.5751 5.73555C14.6688 5.86807 14.6923 6.03783 14.6383 6.19086C14.2342 7.33402 13.1292 8.3705 11.7562 8.3705C11.0553 8.3705 10.4096 8.13455 9.89401 7.73774L9.44056 8.19118L10.7054 9.45602C10.882 9.6326 11.0889 9.93968 11.1514 10.3233C11.2189 10.7379 11.1086 11.1999 10.7054 11.6032C10.5326 11.7759 10.5229 11.9139 10.5394 12.0153C10.5609 12.1477 10.642 12.2726 10.7054 12.3361L12.8654 14.4961C13.0607 14.6914 13.0607 15.0079 12.8654 15.2032C12.6702 15.3985 12.3536 15.3985 12.1583 15.2032L9.99831 13.0432C9.82173 12.8666 9.6148 12.5595 9.55236 12.176C9.48487 11.7614 9.59508 11.2993 9.99831 10.8961C10.1711 10.7233 10.1809 10.5854 10.1644 10.4839C10.1428 10.3515 10.0617 10.2266 9.99828 10.1631L7.8383 8.00313C7.80171 7.96653 7.7122 7.91475 7.60705 7.90474C7.52003 7.89645 7.43231 7.91622 7.3454 8.00313C7.10454 8.24399 7.15329 8.4839 7.20111 8.57921L8.21772 9.59582C8.99876 10.3769 8.99876 11.6432 8.21772 12.4243L6.72612 13.9159C6.69231 13.9497 6.65759 13.982 6.62203 14.0129L7.1055 14.4964C7.30076 14.6917 7.30076 15.0082 7.1055 15.2035C6.91024 15.3988 6.59366 15.3988 6.3984 15.2035L5.66527 14.4704C5.04312 14.5815 4.37848 14.3966 3.89771 13.9159L3.80679 13.825L2.18705 15.4447C1.99179 15.64 1.6752 15.64 1.47994 15.4447C1.28468 15.2494 1.28468 14.9329 1.47994 14.7376L3.09969 13.1178L2.65901 12.6772C2.26849 12.2866 2.26849 11.6535 2.65901 11.2629L5.56481 8.35712C5.74177 8.18016 5.96855 8.08338 6.20001 8.0668C6.26162 7.80098 6.40075 7.53357 6.6383 7.29602C6.95828 6.97603 7.35056 6.8758 7.70182 6.90924C8.03495 6.94095 8.342 7.09261 8.5454 7.29602L8.73346 7.48408L9.21103 7.00651C8.88827 6.52196 8.70016 5.94002 8.70016 5.31416C8.70016 3.62624 10.0683 2.25781 11.7562 2.25781C13.1292 2.25781 14.2342 3.2943 14.6383 4.43746C14.6923 4.59049 14.6688 4.76025 14.5751 4.89276ZM13.3313 4.10406C12.9432 3.6006 12.3661 3.25781 11.7562 3.25781C10.6207 3.25781 9.70016 4.17842 9.70016 5.31416C9.70016 6.4499 10.6207 7.3705 11.7562 7.3705C12.3661 7.3705 12.9432 7.02772 13.3313 6.52425H12.3242C12.2329 6.52425 11.929 6.51764 11.6313 6.37687C11.4756 6.30325 11.3057 6.18553 11.1754 5.99891C11.0422 5.80814 10.9722 5.57633 10.9722 5.31416C10.9722 5.05245 11.0418 4.82086 11.1745 4.63007C11.3044 4.44332 11.474 4.32539 11.6298 4.25161C11.9275 4.11058 12.2318 4.10406 12.3242 4.10406L13.3313 4.10406ZM6.42857 9.22088C6.45669 9.25732 6.48666 9.2915 6.5183 9.32314C6.54107 9.34591 6.56549 9.36603 6.59118 9.38349L7.51061 10.3029C7.90114 10.6935 7.90114 11.3266 7.51061 11.7172L6.01902 13.2088C5.62849 13.5993 4.99533 13.5993 4.60481 13.2088L3.36611 11.9701L6.27192 9.06423L6.42857 9.22088Z" fill="#2D373D"/>
</svg>
