<svg width="16" height="17" viewBox="0 0 16 17" fill="none" xmlns="http://www.w3.org/2000/svg">
<path d="M7.99636 13.4245C6.43542 13.4245 5.168 12.1578 5.168 10.5978C5.168 8.87115 5.88843 8.06448 5.96848 7.97781C6.06854 7.87115 6.20195 7.81115 6.35538 7.82448C6.50213 7.82448 6.63554 7.89781 6.72226 8.01115L7.17587 8.58448C7.98969 6.42448 8.02304 6.42448 8.36991 6.42448C8.55669 6.42448 8.67009 6.48448 9.06366 6.87781C9.60399 7.41781 10.8514 8.87115 10.8381 10.6045C10.8381 12.1578 9.56396 13.4245 7.99636 13.4245ZM6.40207 9.21115C6.282 9.52448 6.1686 9.98448 6.1686 10.5978C6.1686 11.6045 6.98909 12.4245 7.99636 12.4245C9.00363 12.4245 9.83746 11.6045 9.83746 10.5978C9.84413 9.45781 9.09035 8.38448 8.55669 7.79115C8.35657 8.31115 8.06974 9.06448 7.80958 9.76448C7.74954 9.93115 7.59612 10.0578 7.41601 10.0845C7.2359 10.1111 7.0558 10.0445 6.94906 9.89781L6.40207 9.21115Z" fill="#2D373D"/>
<path d="M7.98969 15.5911C5.10796 15.5911 2.6665 13.2245 2.6665 10.4245C2.6665 7.11781 5.51487 4.04448 5.63495 3.91781C5.73501 3.81115 5.86842 3.74448 6.01517 3.75781C6.15526 3.75781 6.29534 3.82448 6.38206 3.93781L6.94239 4.61115C8.3966 2.25781 8.42328 2.25781 8.74347 2.25781C8.92358 2.25781 8.99696 2.25781 9.624 2.89115C10.5045 3.77781 13.3662 6.93115 13.3329 10.4311C13.3329 13.2245 10.8848 15.5911 7.98302 15.5911H7.98969ZM6.00183 5.03115C5.26139 5.94448 3.67377 8.17781 3.67377 10.4245C3.67377 12.6711 5.65496 14.5911 7.99636 14.5911C10.3378 14.5911 12.3456 12.6845 12.3456 10.4245C12.3723 7.41781 9.86414 4.50448 8.83686 3.49781C8.50333 4.00448 7.94299 4.89781 7.43602 5.72448C7.3493 5.86448 7.20922 5.95115 7.04912 5.95781C6.88903 5.97115 6.7356 5.90448 6.62887 5.77781L6.00183 5.03115Z" fill="#2D373D"/>
</svg>
