<svg width="16" height="17" viewBox="0 0 16 17" fill="none" xmlns="http://www.w3.org/2000/svg">
<path fill-rule="evenodd" clip-rule="evenodd" d="M4.48035 3.28126C4.05511 3.54652 3.65795 3.86107 3.29784 4.22118C2.93926 4.57975 2.62586 4.97506 2.36131 5.39826C2.34477 5.42068 2.33035 5.44417 2.31804 5.46845C1.69011 6.50119 1.3501 7.69478 1.3501 8.92344C1.3501 10.1519 1.69003 11.3454 2.3178 12.378C2.33025 12.4026 2.34485 12.4264 2.36162 12.4491C2.62611 12.8721 2.9394 13.2673 3.29784 13.6257C3.65629 13.9842 4.05146 14.2975 4.47449 14.562C4.49717 14.5787 4.52093 14.5933 4.54551 14.6057C5.57816 15.2335 6.77161 15.5734 8.0001 15.5734C9.22842 15.5734 10.4217 15.2336 11.4543 14.606C11.4792 14.5934 11.5032 14.5787 11.5262 14.5617C11.949 14.2972 12.344 13.984 12.7024 13.6257C13.0607 13.2673 13.374 12.8723 13.6384 12.4494C13.6553 12.4265 13.6701 12.4025 13.6826 12.3777C14.3102 11.3451 14.6501 10.1518 14.6501 8.92344C14.6501 7.69497 14.3102 6.50154 13.6824 5.46891C13.67 5.44431 13.6554 5.42053 13.6386 5.39785C13.3741 4.97481 13.0608 4.57964 12.7024 4.22118C12.3423 3.86117 11.9453 3.54669 11.5202 3.28147C11.5011 3.26778 11.4813 3.25559 11.4609 3.2449C10.4268 2.61473 9.23105 2.27344 8.0001 2.27344C6.76904 2.27344 5.57317 2.61479 4.53904 3.24507C4.51885 3.25566 4.49924 3.26772 4.48035 3.28126ZM4.70784 4.33173C4.45927 4.50996 4.22403 4.70919 4.00494 4.92828C3.78576 5.14747 3.58645 5.38281 3.40816 5.6315L5.43109 7.65443C5.56827 7.37671 5.75082 7.12052 5.97399 6.89736C6.19714 6.6742 6.45332 6.49165 6.73103 6.35447L4.70784 4.33173ZM2.88539 6.52295C2.53616 7.2671 2.3501 8.08568 2.3501 8.92344C2.3501 9.76122 2.53617 10.5798 2.88542 11.324L5.13852 9.07087C5.136 9.0219 5.13474 8.97276 5.13474 8.92349C5.13474 8.87421 5.136 8.82506 5.13853 8.77608L2.88539 6.52295ZM3.40819 12.2154C3.58647 12.4641 3.78577 12.6994 4.00494 12.9186C4.22414 13.1378 4.45949 13.3371 4.70819 13.5154L6.73136 11.4927C6.45352 11.3555 6.19723 11.1729 5.97399 10.9496C5.75082 10.7265 5.56826 10.4703 5.43108 10.1925L3.40819 12.2154ZM5.59968 14.0382C6.34381 14.3874 7.16236 14.5734 8.0001 14.5734C8.83787 14.5734 9.65645 14.3874 10.4006 14.0381L8.14756 11.7851C8.09857 11.7876 8.04941 11.7889 8.00012 11.7889C7.95101 11.7889 7.90203 11.7876 7.85323 11.7851L5.59968 14.0382ZM11.2921 13.5154C11.5407 13.3371 11.7761 13.1378 11.9953 12.9186C12.2144 12.6994 12.4137 12.4641 12.592 12.2154L10.569 10.1929C10.4318 10.4705 10.2493 10.7265 10.0263 10.9496C9.80309 11.1728 9.54692 11.3553 9.2692 11.4925L11.2921 13.5154ZM13.1148 11.324C13.464 10.5798 13.6501 9.76123 13.6501 8.92344C13.6501 8.08569 13.464 7.26712 13.1148 6.52298L10.8617 8.77608C10.8642 8.82506 10.8655 8.87421 10.8655 8.92349C10.8655 8.97295 10.8642 9.02227 10.8617 9.07141L13.1148 11.324ZM12.5921 5.63153C12.4138 5.38282 12.2144 5.14748 11.9953 4.92828C11.7762 4.7092 11.5409 4.50997 11.2924 4.33174L9.26921 6.35447C9.54692 6.49165 9.8031 6.6742 10.0263 6.89736C10.2494 7.12052 10.432 7.37671 10.5692 7.65443L12.5921 5.63153ZM10.401 3.80891C9.65671 3.45956 8.838 3.27344 8.0001 3.27344C7.16221 3.27344 6.34351 3.45956 5.59927 3.8089L7.85276 6.06189C7.90172 6.05937 7.95085 6.05811 8.00012 6.05811C8.04939 6.05811 8.09852 6.05937 8.14749 6.06189L10.401 3.80891ZM8.28971 7.08071C8.27184 7.07914 8.25404 7.07661 8.23639 7.07312C8.15844 7.06317 8.07954 7.05811 8.00012 7.05811C7.9207 7.05811 7.8418 7.06317 7.76385 7.07312C7.7462 7.07661 7.7284 7.07914 7.71053 7.08071C7.32306 7.1416 6.96192 7.32364 6.68109 7.60446C6.40054 7.88502 6.21858 8.24573 6.15752 8.63277C6.15592 8.65141 6.15329 8.66997 6.14961 8.68836C6.13975 8.76594 6.13474 8.84446 6.13474 8.92349C6.13474 9.0025 6.13975 9.08099 6.1496 9.15854C6.15329 9.17697 6.15593 9.19557 6.15753 9.21424C6.2186 9.60127 6.40055 9.96197 6.68109 10.2425C6.96399 10.5254 7.32841 10.7081 7.71913 10.7676C7.73125 10.7689 7.74332 10.7706 7.75534 10.7728C7.83605 10.7834 7.91781 10.7889 8.00012 10.7889C8.07903 10.7889 8.15742 10.7839 8.23487 10.7741C8.25352 10.7703 8.27235 10.7676 8.29125 10.766C8.67813 10.7049 9.03869 10.523 9.31915 10.2425C9.59987 9.96179 9.78188 9.60081 9.84283 9.2135C9.84441 9.19566 9.84694 9.17788 9.85043 9.16025C9.86042 9.08215 9.86551 9.00308 9.86551 8.92349C9.86551 8.84445 9.86049 8.76593 9.85063 8.68835C9.84695 8.66996 9.84432 8.65141 9.84272 8.63279C9.78166 8.24574 9.5997 7.88502 9.31915 7.60446C9.03832 7.32364 8.67718 7.1416 8.28971 7.08071Z" fill="#2D373D"/>
</svg>
