<svg width="32" height="33" viewBox="0 0 32 33" fill="none" xmlns="http://www.w3.org/2000/svg">
<path fill-rule="evenodd" clip-rule="evenodd" d="M9.40002 4.46094C8.74582 4.46094 8.11841 4.72082 7.65582 5.18341C7.19323 5.646 6.93335 6.2734 6.93335 6.9276V10.5943C6.93335 11.1466 7.38106 11.5943 7.93335 11.5943C8.39328 11.5943 8.78069 11.2838 8.89739 10.861H26V17.9276C26 18.4799 26.4477 18.9276 27 18.9276C27.5523 18.9276 28 18.4799 28 17.9276V6.9276C28 6.2734 27.7401 5.646 27.2775 5.18341C26.815 4.72082 26.1875 4.46094 25.5333 4.46094H9.40002ZM26 8.86096V6.9276C26 6.80384 25.9508 6.68514 25.8633 6.59762C25.7758 6.5101 25.6571 6.46094 25.5333 6.46094H9.40002C9.27625 6.46094 9.15755 6.5101 9.07003 6.59762C8.98252 6.68514 8.93335 6.80384 8.93335 6.9276V8.86096H26Z" fill="#2D373D"/>
<path d="M6.93335 22.3276C6.93335 21.7754 7.38106 21.3276 7.93335 21.3276H10.1333C10.6856 21.3276 11.1333 21.7754 11.1333 22.3276C11.1333 22.8799 10.6856 23.3276 10.1333 23.3276H7.93335C7.38106 23.3276 6.93335 22.8799 6.93335 22.3276Z" fill="#2D373D"/>
<path fill-rule="evenodd" clip-rule="evenodd" d="M17.2115 19.9898C16.6439 19.8125 16.0349 19.8183 15.4707 20.0064C14.9066 20.1944 14.4159 20.5552 14.0682 21.0376C13.7205 21.52 13.5334 22.0996 13.5334 22.6943C13.5334 23.289 13.7205 23.8686 14.0682 24.351C14.4159 24.8334 14.9066 25.1942 15.4707 25.3822C16.0349 25.5703 16.6439 25.5761 17.2115 25.3988C17.4306 25.3303 17.6392 25.2359 17.8334 25.1185C18.0275 25.2359 18.2361 25.3303 18.4552 25.3988C19.0228 25.5761 19.6318 25.5703 20.196 25.3822C20.7602 25.1942 21.2508 24.8334 21.5985 24.351C21.9463 23.8686 22.1334 23.289 22.1334 22.6943C22.1334 22.0996 21.9463 21.52 21.5985 21.0376C21.2508 20.5552 20.7602 20.1944 20.196 20.0064C19.6318 19.8183 19.0228 19.8125 18.4552 19.9898C18.2361 20.0583 18.0275 20.1527 17.8334 20.2701C17.6392 20.1527 17.4306 20.0583 17.2115 19.9898ZM16.1032 21.9037C16.2691 21.8484 16.4482 21.8467 16.6152 21.8989C16.7821 21.951 16.9284 22.0544 17.0334 22.1943C17.2222 22.4461 17.5186 22.5943 17.8334 22.5943C18.1481 22.5943 18.4445 22.4461 18.6334 22.1943C18.7383 22.0544 18.8846 21.951 19.0515 21.8989C19.2185 21.8467 19.3976 21.8484 19.5635 21.9037C19.7295 21.959 19.8738 22.0651 19.9761 22.207C20.0783 22.3489 20.1334 22.5194 20.1334 22.6943C20.1334 22.8692 20.0783 23.0397 19.9761 23.1816C19.8738 23.3234 19.7295 23.4296 19.5635 23.4849C19.3976 23.5402 19.2185 23.5419 19.0515 23.4897C18.8846 23.4376 18.7383 23.3342 18.6334 23.1943C18.4445 22.9425 18.1481 22.7943 17.8334 22.7943C17.5186 22.7943 17.2222 22.9425 17.0334 23.1943C16.9284 23.3342 16.7821 23.4376 16.6152 23.4897C16.4482 23.5419 16.2691 23.5402 16.1032 23.4849C15.9372 23.4296 15.7929 23.3234 15.6907 23.1816C15.5884 23.0397 15.5334 22.8692 15.5334 22.6943C15.5334 22.5194 15.5884 22.3489 15.6907 22.207C15.7929 22.0651 15.9372 21.959 16.1032 21.9037Z" fill="#2D373D"/>
<path fill-rule="evenodd" clip-rule="evenodd" d="M4 25.9943C4 27.3566 5.10436 28.4609 6.46667 28.4609H22.6C23.9623 28.4609 25.0667 27.3566 25.0667 25.9943V14.9943C25.0667 13.632 23.9623 12.5276 22.6 12.5276H6.46667C5.10436 12.5276 4 13.632 4 14.9943V25.9943ZM6.46667 14.5276C6.20893 14.5276 6 14.7365 6 14.9943V16.9276H23.0667V14.9943C23.0667 14.7365 22.8577 14.5276 22.6 14.5276H6.46667ZM23.0667 18.9276H6V25.9943C6 26.252 6.20893 26.4609 6.46667 26.4609H22.6C22.8577 26.4609 23.0667 26.252 23.0667 25.9943V18.9276Z" fill="#2D373D"/>
</svg>
