<svg width="24" height="25" viewBox="0 0 24 25" fill="none" xmlns="http://www.w3.org/2000/svg">
<path d="M21.9801 15.1151C21.9386 15.0278 21.8847 14.947 21.8201 14.8751L19.3201 12.3751C19.1794 12.2347 18.9888 12.1558 18.7901 12.1558C18.5913 12.1558 18.4007 12.2347 18.2601 12.3751C18.1893 12.4441 18.1331 12.5265 18.0947 12.6175C18.0563 12.7085 18.0365 12.8063 18.0365 12.9051C18.0365 13.0039 18.0563 13.1017 18.0947 13.1927C18.1331 13.2838 18.1893 13.3662 18.2601 13.4351L19.4701 14.6551H10.6301C10.4312 14.6551 10.2404 14.7342 10.0997 14.8748C9.95908 15.0155 9.88007 15.2062 9.88007 15.4051C9.88007 15.604 9.95908 15.7948 10.0997 15.9355C10.2404 16.0761 10.4312 16.1551 10.6301 16.1551H19.4401L18.2301 17.3751C18.1593 17.4441 18.1031 17.5265 18.0647 17.6175C18.0263 17.7085 18.0065 17.8063 18.0065 17.9051C18.0065 18.0039 18.0263 18.1017 18.0647 18.1927C18.1031 18.2838 18.1593 18.3662 18.2301 18.4351C18.2982 18.5067 18.3806 18.5632 18.4718 18.6011C18.5631 18.6389 18.6613 18.6574 18.7601 18.6551C18.8586 18.6556 18.9562 18.6364 19.0473 18.5986C19.1383 18.5608 19.2208 18.5052 19.2901 18.4351L21.7901 15.9351C21.8547 15.8633 21.9086 15.7824 21.9501 15.6951C22.0296 15.5117 22.0402 15.3058 21.9801 15.1151Z" fill="#2D373D"/>
<path d="M4.56007 11.1551H13.3701C13.569 11.1551 13.7598 11.0761 13.9004 10.9354C14.0411 10.7948 14.1201 10.604 14.1201 10.4051C14.1201 10.2062 14.0411 10.0154 13.9004 9.87479C13.7598 9.73414 13.569 9.65512 13.3701 9.65512H4.56007L5.78007 8.43512C5.91255 8.29295 5.98468 8.1049 5.98125 7.9106C5.97782 7.7163 5.89911 7.53091 5.7617 7.3935C5.62428 7.25608 5.4389 7.17737 5.2446 7.17394C5.0503 7.17052 4.86225 7.24264 4.72007 7.37512L2.22007 9.90512C2.15228 9.97448 2.09802 10.0559 2.06007 10.1451C2.02045 10.2367 2 10.3354 2 10.4351C2 10.5349 2.02045 10.6336 2.06007 10.7251C2.09802 10.8144 2.15228 10.8958 2.22007 10.9651L4.72007 13.4651C4.8607 13.6056 5.05132 13.6845 5.25007 13.6845C5.44883 13.6845 5.63945 13.6056 5.78007 13.4651C5.92053 13.3245 5.99941 13.1339 5.99941 12.9351C5.99941 12.7364 5.92053 12.5457 5.78007 12.4051L4.56007 11.1551Z" fill="#2D373D"/>
</svg>
