<svg width="24" height="25" viewBox="0 0 24 25" fill="none" xmlns="http://www.w3.org/2000/svg">
<path d="M15.149 6.9525C14.7348 6.9525 14.399 7.28829 14.399 7.7025C14.399 8.11671 14.7348 8.4525 15.149 8.4525H17.0009C17.4151 8.4525 17.7509 8.11671 17.7509 7.7025C17.7509 7.28829 17.4151 6.9525 17.0009 6.9525H15.149Z" fill="#2D373D"/>
<path d="M16.2601 10.286C15.8459 10.286 15.5101 10.6218 15.5101 11.036C15.5101 11.4502 15.8459 11.786 16.2601 11.786H17.0009C17.4151 11.786 17.7509 11.4502 17.7509 11.036C17.7509 10.6218 17.4151 10.286 17.0009 10.286H16.2601Z" fill="#2D373D"/>
<path d="M14.4082 13.6195C13.994 13.6195 13.6582 13.9553 13.6582 14.3695C13.6582 14.7837 13.994 15.1195 14.4082 15.1195H17.0009C17.4151 15.1195 17.7509 14.7837 17.7509 14.3695C17.7509 13.9553 17.4151 13.6195 17.0009 13.6195H14.4082Z" fill="#2D373D"/>
<path d="M7.74121 16.953C7.327 16.953 6.99121 17.2888 6.99121 17.703C6.99121 18.1172 7.327 18.453 7.74121 18.453H17.0009C17.4151 18.453 17.7509 18.1172 17.7509 17.703C17.7509 17.2888 17.4151 16.953 17.0009 16.953H7.74121Z" fill="#2D373D"/>
<path fill-rule="evenodd" clip-rule="evenodd" d="M10.3371 6.21172L10.3345 6.21172C8.07922 6.21172 6.25098 8.03996 6.25098 10.2952C6.25098 12.5505 8.07922 14.3787 10.3345 14.3787C12.5897 14.3787 14.418 12.5505 14.418 10.2952C14.418 8.04082 12.5911 6.21311 10.3371 6.21172ZM9.58463 7.82221C8.52349 8.14354 7.75098 9.12916 7.75098 10.2952C7.75098 10.7358 7.86125 11.1506 8.05569 11.5135L9.58463 9.98455V7.82221ZM11.0846 7.82231V10.2952C11.0846 10.4941 11.0056 10.6849 10.865 10.8255L9.1164 12.5741C9.47929 12.7685 9.89401 12.8787 10.3345 12.8787C11.7613 12.8787 12.918 11.722 12.918 10.2952C12.918 9.12928 12.1456 8.14374 11.0846 7.82231Z" fill="#2D373D"/>
<path fill-rule="evenodd" clip-rule="evenodd" d="M18.0759 3.0853C17.7196 2.7215 17.2342 2.51154 16.7216 2.51172H4.97221C4.45117 2.51172 3.95887 2.72878 3.60148 3.10302C3.24521 3.47609 3.05078 3.97501 3.05078 4.48839V20.4351C3.05078 20.9484 3.24521 21.4473 3.60148 21.8204C3.95887 22.1947 4.45117 22.4117 4.97221 22.4117H19.0294C19.5504 22.4117 20.0427 22.1947 20.4001 21.8204C20.7563 21.4473 20.9508 20.9484 20.9508 20.4351V6.84597C20.9508 6.58692 20.9013 6.32972 20.8044 6.08922C20.7075 5.84867 20.5647 5.6286 20.3827 5.44287L18.0759 3.0853ZM16.7221 4.01172C16.8208 4.01166 16.9226 4.05165 17.004 4.13462L19.3113 6.49262C19.3532 6.53543 19.3884 6.58852 19.413 6.64965C19.4376 6.71082 19.4508 6.77776 19.4508 6.84611V20.4351C19.4508 20.5723 19.3984 20.6974 19.3153 20.7845C19.2333 20.8703 19.1297 20.9117 19.0294 20.9117H4.97221C4.87188 20.9117 4.76827 20.8703 4.68629 20.7845C4.60318 20.6974 4.55078 20.5723 4.55078 20.4351V4.48839C4.55078 4.3511 4.60319 4.226 4.68629 4.13898C4.76827 4.05313 4.87188 4.01172 4.97221 4.01172L16.7221 4.01172Z" fill="#2D373D"/>
</svg>
