<svg width="32" height="33" viewBox="0 0 32 33" fill="none" xmlns="http://www.w3.org/2000/svg">
<path d="M14.9999 16.2613C15.4999 15.9613 15.6999 15.3613 15.3999 14.8613C14.5999 13.3613 13.2999 12.3613 11.6999 11.8613C12.9999 11.2613 13.9999 9.86133 13.9999 8.36133C13.9999 7.26133 13.5999 6.26133 12.8999 5.56133C12.0999 4.76133 11.1999 4.36133 10.0999 4.36133C7.8999 4.36133 6.0999 6.16133 6.0999 8.26133C6.0999 9.36133 6.4999 10.2613 7.2999 11.0613C7.6999 11.4613 8.0999 11.6613 8.4999 11.8613C7.9999 12.0613 7.4999 12.2613 6.9999 12.4613C5.0999 13.5613 3.8999 15.6613 3.8999 17.8613V20.0613C3.8999 20.6613 4.2999 21.0613 4.8999 21.0613H6.2999L6.8999 27.5613C6.9999 28.0613 7.3999 28.4613 7.8999 28.4613H12.2999C12.7999 28.4613 13.1999 28.0613 13.1999 27.5613L13.4999 24.3613C13.5999 23.7613 13.0999 23.3613 12.5999 23.2613C11.9999 23.2613 11.5999 23.6613 11.4999 24.1613L11.2999 26.4613H8.6999L8.0999 19.9613C7.9999 19.4613 7.5999 19.0613 7.0999 19.0613H5.8999V17.8613C5.8999 16.3613 6.6999 15.0613 7.9999 14.2613C8.9999 13.7613 9.9999 13.5613 11.0999 13.8613C12.1999 14.1613 12.9999 14.8613 13.5999 15.8613C13.8999 16.3613 14.4999 16.5613 14.9999 16.2613ZM10.0999 6.36133C10.5999 6.36133 11.0999 6.56133 11.4999 6.86133C11.8999 7.26133 12.0999 7.76133 12.0999 8.26133C12.0999 9.36133 11.1999 10.2613 10.0999 10.2613C8.9999 10.2613 8.0999 9.36133 8.0999 8.26133C8.1999 7.26133 9.0999 6.36133 10.0999 6.36133Z" fill="#2D373D"/>
<path d="M27.0001 20.5614C26.4001 20.5614 26.0001 20.9614 26.0001 21.5614C26.0001 24.2614 23.8001 26.4614 21.1001 26.4614C18.4001 26.4614 16.2001 24.2614 16.2001 21.5614C16.2001 18.8614 18.4001 16.6614 21.1001 16.6614C21.7001 16.6614 22.1001 16.2614 22.1001 15.6614C22.1001 15.0614 21.7001 14.6614 21.1001 14.6614C17.3001 14.6614 14.2001 17.7614 14.2001 21.5614C14.2001 25.3614 17.3001 28.4614 21.1001 28.4614C24.9001 28.4614 28.0001 25.3614 28.0001 21.5614C28.0001 20.9614 27.6001 20.5614 27.0001 20.5614Z" fill="#2D373D"/>
<path d="M19.5999 20.1614C19.1999 19.7614 18.5999 19.7614 18.1999 20.1614C17.7999 20.5614 17.7999 21.1614 18.1999 21.5614L19.8999 23.2614C20.1999 23.5614 20.6999 23.7614 21.0999 23.7614C21.5999 23.7614 21.9999 23.5614 22.2999 23.2614L27.6999 17.8614C28.0999 17.4614 28.0999 16.8614 27.6999 16.4614C27.2999 16.0614 26.6999 16.0614 26.2999 16.4614L21.0999 21.6614L19.5999 20.1614Z" fill="#2D373D"/>
</svg>
