<svg width="24" height="24" viewBox="0 0 24 24" fill="none" xmlns="http://www.w3.org/2000/svg">
<path d="M13.575 10.05C13.95 9.89996 14.175 9.44996 14.025 9.07496C13.95 8.77496 13.875 8.54996 13.875 8.24996C13.95 7.87496 14.025 7.49996 14.25 7.34996C14.4 7.57496 14.625 7.79996 14.925 7.94996C15.3 8.09996 15.9 8.32496 16.65 8.02496C17.4 7.72496 17.925 7.19996 18.075 6.52496C18.15 6.37496 18.15 6.14996 18.15 5.99996C18.675 6.74996 19.05 7.57496 19.05 8.24996C19.05 8.92496 18.75 9.67496 18.225 10.125C17.925 10.425 17.85 10.875 18.15 11.175C18.3 11.325 18.45 11.4 18.675 11.4C18.825 11.4 19.05 11.325 19.2 11.25C20.025 10.5 20.55 9.37496 20.55 8.24996C20.55 6.37496 18.825 3.67496 16.65 3.07496C16.35 2.92496 15.975 3.07496 15.825 3.37496C15.6 3.67496 15.675 4.04996 15.9 4.27496C16.35 4.72496 16.725 5.54996 16.575 6.07496C16.5 6.22496 16.425 6.37496 16.125 6.52496C15.825 6.59996 15.675 6.59996 15.6 6.52496C15.3 6.37496 15.15 5.84996 15.075 5.69996C15 5.47496 14.85 5.24996 14.625 5.24996C14.325 5.17496 14.1 5.24996 13.875 5.39996C13.05 6.14996 12.525 7.12496 12.375 8.17496V8.24996C12.375 8.69996 12.45 9.14996 12.6 9.59996C12.75 9.97496 13.2 10.2 13.575 10.05Z" fill="#2D373D"/>
<path d="M18.525 14.0999L17.4 11.7749C17.1 11.0999 16.425 10.7249 15.75 10.7249H9.975C9.3 10.7249 8.625 11.1749 8.325 11.7749L7.2 14.0249H6C5.175 14.0249 4.425 14.3999 3.9 14.9249C3.3 15.5249 3 16.1999 3 17.0249V18.1499C3 19.1999 3.825 20.0249 4.875 20.0249H6.525C6.825 20.6249 7.425 21.0749 8.175 21.0749C8.925 21.0749 9.6 20.6249 9.9 19.9499H15.3C15.6 20.6249 16.275 21.0749 17.025 21.0749C17.775 21.0749 18.375 20.6249 18.675 19.9499H19.2C20.25 19.9499 21.075 19.1249 21 18.1499V17.0249C21 15.5249 19.95 14.3249 18.525 14.0999ZM9.975 12.1499H15.825C15.975 12.1499 16.05 12.2249 16.125 12.3749L16.95 14.0999H8.775L9.675 12.3749C9.75 12.2249 9.825 12.1499 9.975 12.1499ZM8.175 19.5749C7.95 19.5749 7.8 19.4249 7.8 19.1999C7.8 18.9749 7.95 18.8249 8.175 18.8249C8.4 18.8249 8.55 18.9749 8.55 19.1999C8.55 19.4249 8.4 19.5749 8.175 19.5749ZM17.025 19.5749C16.8 19.5749 16.65 19.4249 16.65 19.1999C16.65 18.9749 16.8 18.8249 17.025 18.8249C17.1 18.8249 17.25 18.8999 17.325 19.0499C17.325 19.1249 17.325 19.1249 17.325 19.1999C17.325 19.2749 17.325 19.3499 17.325 19.3499C17.25 19.4999 17.175 19.5749 17.025 19.5749ZM19.575 18.0749C19.575 18.2999 19.425 18.4499 19.2 18.4499H18.75C18.45 17.7749 17.775 17.3249 17.025 17.3249C16.275 17.3249 15.6 17.7749 15.3 18.4499H9.9C9.6 17.7749 8.925 17.3249 8.175 17.3249C7.35 17.3249 6.675 17.8499 6.45 18.5249H4.875C4.65 18.5249 4.5 18.3749 4.5 18.1499V17.0249C4.5 16.5749 4.65 16.1999 4.875 16.0499C5.175 15.7499 5.55 15.5999 5.925 15.5999H7.575C7.65 15.5999 7.65 15.5999 7.725 15.5999L18 15.5249H18.15C18.9 15.5249 19.575 16.1249 19.575 16.9499V18.0749Z" fill="#2D373D"/>
</svg>
