<svg width="16" height="17" viewBox="0 0 16 17" fill="none" xmlns="http://www.w3.org/2000/svg">
<path fill-rule="evenodd" clip-rule="evenodd" d="M10.7918 4.86193H13.4585C14.1949 4.86193 14.7918 5.45888 14.7918 6.19526V13.1286C14.7918 13.865 14.1949 14.4619 13.4585 14.4619H2.79183C2.05545 14.4619 1.4585 13.865 1.4585 13.1286V6.19526C1.4585 5.45888 2.05545 4.86193 2.79183 4.86193H5.4585V3.79525C5.4585 3.05887 6.05545 2.46191 6.79183 2.46191H9.4585C10.1949 2.46191 10.7918 3.05887 10.7918 3.79525V4.86193ZM6.4585 4.76191H9.79183V3.79525C9.79183 3.61115 9.64259 3.46191 9.4585 3.46191H6.79183C6.60773 3.46191 6.4585 3.61115 6.4585 3.79525V4.76191ZM11.7918 13.4619V5.86193H13.4585C13.6426 5.86193 13.7918 6.01117 13.7918 6.19526V13.1286C13.7918 13.3127 13.6426 13.4619 13.4585 13.4619H11.7918ZM10.7918 5.86193V13.4619H5.4585V5.86193H10.7918ZM4.4585 5.86193V13.4619H2.79183C2.60773 13.4619 2.4585 13.3127 2.4585 13.1286V6.19526C2.4585 6.01117 2.60774 5.86193 2.79183 5.86193H4.4585Z" fill="#2D373D"/>
</svg>
