<svg width="16" height="16" viewBox="0 0 16 16" fill="none" xmlns="http://www.w3.org/2000/svg">
<path d="M13.7998 6.79998C13.3998 6.24998 12.9498 5.74998 12.5498 5.19998L12.7498 4.99998C13.2498 4.49998 13.2498 3.69998 12.7498 3.19998C12.4998 2.99998 12.1998 2.84998 11.8498 2.84998C11.4998 2.84998 11.1998 2.94998 10.9498 3.19998L10.7498 3.39998C10.2498 2.94998 9.7498 2.49998 9.1998 2.14998C8.6498 1.79998 7.9998 1.84998 7.5498 2.29998L5.7498 4.09998C5.2998 4.54998 5.2498 5.24998 5.5998 5.74998C5.9998 6.29998 6.3998 6.79998 6.8498 7.29998L2.2998 11.85C1.7998 12.35 1.7998 13.15 2.2998 13.65C2.5498 13.85 2.8498 14 3.1998 14C3.5498 14 3.8498 13.9 4.0498 13.6L8.5998 9.04998C9.0998 9.49998 9.6498 9.94998 10.1998 10.35C10.4498 10.5 10.6998 10.6 10.9498 10.6C11.2998 10.6 11.5998 10.5 11.8498 10.25L13.6498 8.44998C14.0998 7.99998 14.1498 7.29998 13.7998 6.79998ZM11.6498 3.94998C11.6998 3.89998 11.7998 3.84998 11.8498 3.84998C11.9498 3.84998 11.9998 3.89998 12.0498 3.94998C12.1498 4.04998 12.1498 4.19998 12.0498 4.29998L11.8498 4.49998C11.7498 4.34998 11.5998 4.24998 11.4998 4.09998L11.6498 3.94998ZM3.3498 12.9C3.2498 13 3.0998 13 2.9998 12.9C2.8998 12.8 2.8998 12.65 2.9998 12.55L7.4998 8.04998C7.5998 8.14998 7.7498 8.29998 7.8498 8.39998L3.3498 12.9ZM12.9498 7.69998L11.1498 9.49998C11.0498 9.59998 10.8998 9.64998 10.7998 9.54998C9.0998 8.29998 7.59981 6.84998 6.39981 5.14998C6.34981 5.04998 6.3498 4.89998 6.4498 4.84998L8.2498 3.04998C8.2998 2.99998 8.3998 2.94998 8.4498 2.94998C8.4998 2.94998 8.5498 2.94998 8.5998 2.94998C9.1998 3.39998 9.7498 3.84998 10.2998 4.34998C10.2998 4.39998 10.3498 4.44998 10.3998 4.49998C10.4498 4.54998 10.4998 4.59998 10.5998 4.59998C10.8998 4.89998 11.1998 5.14998 11.4498 5.44998C11.4498 5.44998 11.4498 5.49998 11.4998 5.49998C11.4998 5.49998 11.5498 5.49998 11.5498 5.54998C12.0498 6.09998 12.5498 6.69998 12.9998 7.29998C13.0498 7.44998 13.0498 7.59998 12.9498 7.69998Z" fill="#2D373D"/>
</svg>
