<svg width="32" height="33" viewBox="0 0 32 33" fill="none" xmlns="http://www.w3.org/2000/svg">
<path d="M25.1002 17.1615C24.6002 17.1615 24.1002 17.5615 24.0002 18.0615C23.8002 19.6615 23.0002 23.7615 20.5002 26.1615C19.4002 25.6615 18.4002 24.6615 17.8002 23.6615C18.9002 23.1615 19.6002 22.3615 19.6002 21.2615C19.6002 19.7615 18.1002 18.5615 16.1002 18.5615C14.1002 18.5615 12.6002 19.7615 12.6002 21.2615C12.6002 22.3615 13.4002 23.2615 14.5002 23.6615C13.8002 24.5615 12.8002 25.6615 11.7002 26.0615C9.20019 23.6615 8.40019 19.5615 8.20019 17.9615C8.20019 17.3615 7.60019 16.9615 7.10019 17.0615C6.50019 17.0615 6.10019 17.6615 6.20019 18.1615C7.20019 25.4615 10.9002 29.7615 16.1002 29.7615C17.9002 29.7615 19.5002 29.2615 20.9002 28.2615C21.3002 28.2615 21.7002 27.9615 21.8002 27.5615C24.0002 25.5615 25.5002 22.3615 26.0002 18.1615C26.0002 17.7615 25.6002 17.2615 25.1002 17.1615ZM16.1002 20.7615C17.1002 20.7615 17.6002 21.1615 17.6002 21.4615C17.6002 21.6615 17.2002 21.9615 16.5002 22.0615C16.4002 22.0615 16.3002 22.0615 16.2002 22.0615C16.1002 22.0615 16.0002 22.0615 15.8002 22.1615C15.0002 22.0615 14.6002 21.6615 14.6002 21.4615C14.6002 21.2615 15.1002 20.7615 16.1002 20.7615ZM13.8002 27.5615C14.8002 26.8615 15.7002 25.8615 16.3002 25.0615C16.9002 25.7615 17.6002 26.7615 18.6002 27.4615C17.9002 27.7615 17.0002 27.9615 16.1002 27.9615C15.2002 27.9615 14.5002 27.8615 13.8002 27.5615Z" fill="#2D373D"/>
<path d="M28.5002 6.86152C27.7002 5.26152 26.2002 4.06152 24.4002 3.66152C23.9002 3.56152 23.3002 3.56152 22.8002 3.66152C22.1002 3.76152 21.6002 4.16152 21.1002 4.66152C19.6002 3.56152 17.8002 3.06152 15.9002 3.06152C14.1002 3.16152 12.3002 3.76152 11.0002 4.76152C10.6002 4.16152 9.90018 3.66152 9.10018 3.56152C8.60018 3.46152 8.00018 3.46152 7.50018 3.56152C5.70018 3.96152 4.20018 5.16152 3.40018 6.66152C2.20018 8.56152 2.50018 11.2615 4.30018 14.3615C4.80018 15.2615 5.70018 15.7615 6.60018 15.7615C7.00018 15.7615 7.50018 15.6615 7.90018 15.4615C8.40018 15.1615 8.80018 14.7615 9.00018 14.3615C10.1002 12.3615 11.0002 10.1615 11.7002 7.86152C11.8002 7.56152 11.8002 7.16152 11.7002 6.86152C12.9002 5.76152 14.4002 5.06152 16.0002 5.06152C17.6002 5.06152 19.0002 5.56152 20.2002 6.46152C20.1002 6.86152 20.2002 7.36152 20.3002 7.86152C21.0002 10.0615 21.9002 12.2615 23.0002 14.3615C23.3002 14.8615 23.6002 15.1615 24.1002 15.4615C24.5002 15.6615 25.0002 15.7615 25.4002 15.7615C25.7002 15.7615 25.9002 15.7615 26.0002 15.8615C26.7002 15.6615 27.3002 15.1615 27.6002 14.5615C29.4002 11.4615 29.7002 8.76152 28.5002 6.86152ZM9.70018 7.36152C9.10018 9.46152 8.30018 11.4615 7.20018 13.4615C7.10018 13.5615 7.00018 13.6615 6.90018 13.7615C6.60018 13.8615 6.20018 13.7615 6.00018 13.4615C5.20018 12.0615 4.10018 9.46152 5.10018 7.66152C5.70018 6.56152 6.80018 5.76152 8.00018 5.46152C8.10018 5.46152 8.20018 5.46152 8.30018 5.46152C8.40018 5.46152 8.50018 5.46152 8.60018 5.56152C9.40018 5.76152 9.90018 6.56152 9.70018 7.36152ZM26.0002 13.3615C25.8002 13.7615 25.4002 13.8615 25.1002 13.6615C25.0002 13.5615 24.9002 13.4615 24.8002 13.3615C23.8002 11.4615 22.9002 9.36152 22.3002 7.26152C22.2002 6.96152 22.3002 6.56152 22.5002 6.16152C22.7002 5.76152 23.0002 5.56152 23.4002 5.46152C23.6002 5.46152 23.9002 5.46152 24.1002 5.46152C25.3002 5.76152 26.3002 6.56152 26.9002 7.66152C28.0002 9.36152 26.8002 11.9615 26.0002 13.3615Z" fill="#2D373D"/>
<path d="M12.0002 15.6614C12.1002 15.7614 12.3002 15.7614 12.4002 15.7614C13.2002 15.7614 13.8002 15.1614 13.8002 14.3614C13.8002 14.1614 13.8002 14.0614 13.7002 13.9614C13.6002 13.5614 13.2002 13.1614 12.8002 13.0614C12.7002 12.9614 12.5002 12.9614 12.4002 12.9614C12.3002 12.9614 12.1002 12.9614 12.0002 13.0614C11.6002 13.1614 11.2002 13.5614 11.1002 13.9614C11.0002 14.0614 11.0002 14.2614 11.0002 14.3614C11.0002 14.4614 11.0002 14.6614 11.1002 14.7614C11.2002 15.2614 11.5002 15.5614 12.0002 15.6614Z" fill="#2D373D"/>
<path d="M19.4001 15.6614C19.5001 15.7614 19.7001 15.7614 19.8001 15.7614C20.6001 15.7614 21.2001 15.1614 21.2001 14.3614C21.2001 14.1614 21.2001 14.0614 21.1001 13.9614C21.0001 13.5614 20.6001 13.1614 20.2001 13.0614C20.1001 12.9614 19.9001 12.9614 19.8001 12.9614C19.7001 12.9614 19.5001 12.9614 19.4001 13.0614C19.0001 13.1614 18.6001 13.5614 18.5001 13.9614C18.4001 14.0614 18.4001 14.2614 18.4001 14.3614C18.4001 14.4614 18.4001 14.6614 18.5001 14.7614C18.6001 15.2614 18.9001 15.5614 19.4001 15.6614Z" fill="#2D373D"/>
</svg>
