<svg width="32" height="33" viewBox="0 0 32 33" fill="none" xmlns="http://www.w3.org/2000/svg">
<path d="M25.3998 18.1609C25.9998 18.1609 26.3998 17.7609 26.3998 17.1609V13.2609C26.4998 13.1609 26.4998 12.9609 26.4998 12.8609C26.4998 12.6609 26.3998 12.5609 26.3998 12.3609C26.2998 11.8609 26.0998 11.3609 25.6998 10.9609L19.8998 5.16094C19.4998 4.76094 18.8998 4.46094 18.1998 4.46094H7.7998C6.3998 4.46094 5.2998 5.46094 5.2998 6.96094V26.0609C5.2998 27.4609 6.3998 28.4609 7.7998 28.4609H10.6998C11.2998 28.4609 11.6998 28.1609 11.6998 27.5609C11.6998 26.9609 11.2998 26.5609 10.6998 26.5609H7.7998C7.4998 26.5609 7.2998 26.3609 7.2998 26.0609V6.96094C7.2998 6.66094 7.4998 6.46094 7.7998 6.46094H17.0998V11.3609C17.0998 12.7609 18.1998 13.8609 19.5998 13.8609H24.3998V17.1609C24.3998 17.6609 24.7998 18.1609 25.3998 18.1609ZM19.0998 11.2609V7.06094L23.7998 11.7609H19.5998C19.2998 11.7609 19.0998 11.6609 19.0998 11.2609Z" fill="#2D373D"/>
<path d="M14.3997 19.261C14.0997 19.161 13.8997 19.061 13.6997 19.061C13.0997 19.061 12.6997 19.461 12.6997 20.061V27.461C12.6997 28.061 13.0997 28.461 13.6997 28.461C14.1997 28.461 14.6997 28.061 14.6997 27.461V25.661C16.3997 25.561 17.6997 24.161 17.6997 22.361C17.6997 21.561 17.2997 20.761 16.6997 20.161C15.9997 19.661 15.1997 19.261 14.3997 19.261ZM14.6997 23.561V21.361C14.8997 21.361 15.1997 21.461 15.2997 21.661C15.5997 21.861 15.6997 22.161 15.6997 22.461C15.6997 22.961 15.1997 23.361 14.6997 23.561Z" fill="#2D373D"/>
<path d="M19.5996 19.1609C18.9996 19.1609 18.5996 19.5609 18.5996 20.1609V27.4609C18.5996 28.0609 18.9996 28.4609 19.5996 28.4609C21.6996 28.4609 23.4996 26.6609 23.4996 24.4609V22.9609C23.4996 20.9609 21.7996 19.1609 19.5996 19.1609ZM21.4996 24.4609C21.4996 25.1609 21.1996 25.8609 20.5996 26.1609V21.4609C21.0996 21.8609 21.4996 22.4609 21.4996 23.0609V24.4609Z" fill="#2D373D"/>
<path d="M27 21.1609H28.5C29.1 21.1609 29.5 20.7609 29.5 20.1609C29.5 19.5609 29.1 19.1609 28.5 19.1609H27C25.6 19.1609 24.5 20.2609 24.5 21.6609V27.4609C24.5 28.0609 24.9 28.4609 25.5 28.4609C26 28.4609 26.5 28.0609 26.5 27.4609V25.5609H27.7C28.2 25.5609 28.7 25.1609 28.7 24.5609C28.7 23.9609 28.3 23.5609 27.7 23.5609H26.5V21.5609C26.5 21.2609 26.7 21.1609 27 21.1609Z" fill="#2D373D"/>
</svg>
