<svg width="16" height="17" viewBox="0 0 16 17" fill="none" xmlns="http://www.w3.org/2000/svg">
<path d="M10.4498 8.42456H8.49976V6.42456C8.49976 6.12456 8.29976 5.92456 7.99976 5.92456C7.69976 5.92456 7.49976 6.12456 7.49976 6.42456V8.42456H5.49976C5.19976 8.42456 4.99976 8.62456 4.99976 8.92456C4.99976 9.22456 5.19976 9.42456 5.49976 9.42456H7.49976V11.4246C7.49976 11.7246 7.69976 11.9246 7.99976 11.9246C8.29976 11.9246 8.49976 11.6746 8.49976 11.3746V9.42456H10.4998C10.7498 9.42456 10.9498 9.22456 10.9498 8.92456C10.9498 8.62456 10.7498 8.42456 10.4498 8.42456Z" fill="#2D373D"/>
<path d="M7.9998 2.22461C4.2998 2.22461 1.2998 5.22461 1.2998 8.87461C1.2998 8.92461 1.2998 8.92461 1.2998 8.92461C1.2998 10.7246 1.9998 12.3746 3.2498 13.6746C4.5498 14.9246 6.1998 15.6246 7.9998 15.6246C11.6998 15.6246 14.6998 12.6246 14.6998 8.92461C14.6998 5.22461 11.6998 2.22461 7.9998 2.22461ZM7.9998 14.6246C6.4498 14.6246 5.0498 14.0746 3.9498 12.9746C2.8998 11.9246 2.2998 10.4746 2.2998 8.97461C2.2998 5.77461 4.8498 3.22461 7.9998 3.22461C11.1498 3.22461 13.6998 5.77461 13.6998 8.92461C13.6998 12.0746 11.1498 14.6246 7.9998 14.6246Z" fill="#2D373D"/>
</svg>
