<svg width="64" height="65" viewBox="0 0 64 65" fill="none" xmlns="http://www.w3.org/2000/svg">
<path d="M24.3997 44.0619H18.5997C17.9997 44.0619 17.5997 43.6619 17.5997 43.0619V28.4619C17.5997 27.2619 16.7997 26.4619 15.5997 26.4619C14.3997 26.4619 13.5997 27.2619 13.5997 28.4619V42.8619C13.5997 45.6619 15.7997 47.8619 18.5997 47.8619H24.3997C25.5997 47.8619 26.3997 47.2619 26.3997 46.0619C26.3997 44.8619 25.5997 44.0619 24.3997 44.0619Z" fill="#2D373D"/>
<path d="M43.5997 24.4617C44.3997 25.2617 45.5997 25.0617 46.3997 24.2617C47.1997 23.4617 46.9997 22.2617 46.1997 21.4617L31.9997 9.46172C30.1997 7.86172 27.3997 7.86172 25.5997 9.46172L8.39971 23.8617C7.59971 24.4617 7.39971 25.8617 8.19971 26.6617C8.59971 27.2617 9.19971 27.4617 9.79971 27.4617C10.1997 27.4617 10.7997 27.2617 10.9997 27.0617L28.1997 12.4617C28.5997 12.2617 28.9997 12.2617 29.3997 12.4617L43.5997 24.4617Z" fill="#2D373D"/>
<path d="M39.5997 12.2617H43.3997V16.0617C43.3997 17.2617 44.1997 18.0617 45.3997 18.0617C46.5997 18.0617 47.3997 17.2617 47.3997 16.0617V10.2617C47.3997 9.06172 46.5997 8.26172 45.3997 8.26172H39.5997C38.3997 8.26172 37.5997 9.06172 37.5997 10.2617C37.5997 11.4617 38.3997 12.2617 39.5997 12.2617Z" fill="#2D373D"/>
<path d="M45.1997 39.0618L41.1997 37.4618C40.9997 37.2618 40.7997 37.0618 40.7997 36.8618C40.7997 36.6618 40.9997 36.4618 40.9997 36.4618C40.9997 36.4618 41.1997 36.2618 41.3997 36.2618H45.3997C46.5997 36.2618 47.3997 35.4618 47.3997 34.2618C47.3997 33.0618 46.5997 32.2618 45.3997 32.2618H44.3997C44.1997 31.4618 43.3997 30.8618 42.5997 30.8618C41.5997 30.8618 40.7997 31.4618 40.5997 32.2618C39.5997 32.4618 38.7997 32.8618 38.1997 33.6618C37.1997 34.4618 36.7997 35.6618 36.7997 36.8618C36.7997 38.6618 37.9997 40.2618 39.7997 41.0618L43.7997 42.6618C44.1997 42.8618 44.3997 43.0618 44.1997 43.4618C43.9997 43.6618 43.7997 43.8618 43.5997 43.8618H39.5997C38.3997 43.8618 37.5997 44.6618 37.5997 45.8618C37.5997 47.0618 38.3997 47.8618 39.5997 47.8618H40.5997C40.7997 48.8618 41.3997 49.4618 42.5997 49.4618C43.5997 49.4618 44.3997 48.6618 44.5997 47.6618C45.9997 47.4618 47.3997 46.4618 47.7997 45.0618C48.7997 42.6618 47.5997 40.0618 45.1997 39.0618Z" fill="#2D373D"/>
<path d="M42.6 26.6616C35.2 26.6616 29 32.6616 29 40.2616C29 43.8616 30.4 47.2616 33 49.8616C35.4 52.4616 39 53.8616 42.6 53.8616C50 53.8616 56.2 47.6616 56.4 40.4616C56.4 32.8616 50.2 26.6616 42.6 26.6616ZM42.4 49.6616C39.8 49.6616 37.4 48.6616 35.6 46.8616C33.8 45.0616 32.8 42.6616 32.8 40.0616C32.8 34.6616 37.2 30.4616 42.4 30.0616C47.8 30.0616 52.2 34.4616 52.2 39.8616C52.2 45.2616 47.8 49.6616 42.4 49.6616Z" fill="#2D373D"/>
</svg>
