<svg width="62" height="65" viewBox="0 0 62 65" fill="none" xmlns="http://www.w3.org/2000/svg">
<path d="M35.0518 39.6601C33.8962 39.6601 33.1258 40.4601 33.1258 41.6601V45.4601H11.5555V17.0601C11.5555 15.8601 11.9406 14.8601 12.711 14.2601C13.4814 13.4601 14.4444 13.0601 15.4073 13.0601H25.6147C26.7703 13.0601 27.5406 12.2601 27.5406 11.0601C27.5406 9.86006 26.7703 9.06006 25.6147 9.06006H15.4073C13.2888 9.06006 11.3629 9.86006 10.0147 11.4601C8.47398 12.8601 7.70361 14.8601 7.70361 17.0601V51.2601C7.70361 55.6601 11.1703 59.2601 15.4073 59.2601H29.274C31.1999 59.2601 33.1258 58.4601 34.6666 56.8601C36.2073 55.4601 36.9777 53.4601 36.9777 51.2601V41.6601C36.9777 40.4601 36.2073 39.6601 35.0518 39.6601ZM31.9703 54.0601C31.1999 54.8601 30.2369 55.2601 29.274 55.2601H15.4073C13.2888 55.2601 11.5555 53.4601 11.5555 51.2601V49.4601H33.1258V51.2601C33.1258 52.2601 32.7407 53.2601 31.9703 54.0601Z" fill="#2D373D"/>
<path d="M50.6521 14.8602H45.2595V9.26016C45.2595 7.26016 43.7188 5.66016 41.7929 5.66016H35.8225C33.8966 5.66016 32.3558 7.26016 32.3558 9.26016V14.8602H26.9632C25.0373 14.8602 23.4966 16.4602 23.4966 18.4602V24.4602C23.4966 26.4602 25.0373 28.0602 26.9632 28.0602H32.3558V33.6602C32.3558 35.6602 33.8966 37.2602 35.8225 37.2602H41.7929C43.7188 37.2602 45.2595 35.6602 45.2595 33.8602V28.2602H50.6521C52.5781 28.2602 54.1188 26.6602 54.1188 24.6602V18.4602C54.1188 16.4602 52.5781 14.8602 50.6521 14.8602ZM50.267 24.0602H43.3336C42.1781 24.0602 41.4077 24.8602 41.4077 26.0602V33.2602H36.4003V26.0602C36.4003 24.8602 35.6299 24.0602 34.4744 24.0602H27.541V18.8602H34.4744C35.6299 18.8602 36.4003 18.0602 36.4003 16.8602V9.66016H41.4077V16.8602C41.4077 18.0602 42.1781 18.8602 43.3336 18.8602H50.267V24.0602Z" fill="#2D373D"/>
</svg>
