<svg width="16" height="17" viewBox="0 0 16 17" fill="none" xmlns="http://www.w3.org/2000/svg">
<path fill-rule="evenodd" clip-rule="evenodd" d="M4.30485 3.1154C4.47413 2.89722 4.78822 2.85758 5.00639 3.02686L6.33778 4.05983H9.33333V3.80121C9.33333 3.54499 9.52702 3.33023 9.78188 3.30386L13.4485 2.92455C13.5893 2.90999 13.7297 2.95579 13.8349 3.0506C13.94 3.14541 14 3.28034 14 3.4219V5.69776C14 5.83932 13.94 5.97425 13.8349 6.06906C13.7297 6.16387 13.5893 6.20967 13.4485 6.19511L9.78188 5.81579C9.52702 5.78943 9.33333 5.57467 9.33333 5.31845V5.05983H8.49986V5.36879C8.80097 5.59568 9.05297 5.88464 9.23966 6.21725C9.47487 6.6363 9.59869 7.11076 9.59985 7.59312L9.59985 7.59432V8.33852C9.59999 8.34331 9.60006 8.34812 9.60006 8.35295C9.60006 8.35777 9.59999 8.36258 9.59985 8.36738L9.59985 12.1316C9.59999 12.1364 9.60006 12.1412 9.60006 12.146C9.60006 12.1509 9.59999 12.1557 9.59985 12.1605V13.6633C9.59985 13.9917 9.47389 14.31 9.24456 14.5472C9.01467 14.785 8.6992 14.9219 8.36652 14.9219H5.4332C5.10052 14.9219 4.78505 14.785 4.55516 14.5472C4.32583 14.31 4.19987 13.9917 4.19987 13.6633V7.59432L4.19987 7.59312C4.20103 7.11076 4.32485 6.6363 4.56006 6.21725C4.74675 5.88464 4.99875 5.59568 5.29986 5.36879V5.06365C4.70825 5.0975 4.14447 5.35561 3.71864 5.79612C3.26034 6.27023 3 6.91676 3 7.59432V12.9047C3 13.1808 2.77614 13.4047 2.5 13.4047C2.22386 13.4047 2 13.1808 2 12.9047V7.59432C2 6.66228 2.35775 5.76515 2.99965 5.1011C3.48895 4.59493 4.11316 4.25579 4.78768 4.12286L4.39339 3.81694C4.17522 3.64767 4.13558 3.33357 4.30485 3.1154ZM8.59985 11.646V8.85295H7.40007V11.646H8.59985ZM8.59985 7.85295H6.90007C6.62392 7.85295 6.40007 8.0768 6.40007 8.35295V12.146C6.40007 12.4222 6.62392 12.646 6.90007 12.646H8.59985V13.6633C8.59985 13.7372 8.57129 13.8049 8.52557 13.8522C8.4804 13.8989 8.42283 13.9219 8.36652 13.9219H5.4332C5.37689 13.9219 5.31932 13.8989 5.27415 13.8522C5.22843 13.8049 5.19987 13.7372 5.19987 13.6633V7.59496C5.20072 7.28191 5.2812 6.97552 5.43208 6.70671C5.583 6.43784 5.79847 6.21691 6.05518 6.06445C6.20688 5.97436 6.29986 5.81098 6.29986 5.63455V5.05983H7.49986V5.63455C7.49986 5.81098 7.59284 5.97436 7.74454 6.06445C8.00125 6.21691 8.21672 6.43784 8.36764 6.70671C8.51851 6.97551 8.59899 7.28188 8.59985 7.5949V7.85295ZM10.3333 4.25215V4.86751L13 5.14337V3.97629L10.3333 4.25215Z" fill="#2D373D"/>
</svg>
