<svg width="32" height="33" viewBox="0 0 32 33" fill="none" xmlns="http://www.w3.org/2000/svg">
<path fill-rule="evenodd" clip-rule="evenodd" d="M6.6 11.4619C6.26863 11.4619 6 11.7305 6 12.0619V25.8619C6 26.1933 6.26863 26.4619 6.6 26.4619H20.4C20.7314 26.4619 21 26.1933 21 25.8619V19.4619C21 18.9096 21.4477 18.4619 22 18.4619C22.5523 18.4619 23 18.9096 23 19.4619V25.8619C23 27.2979 21.8359 28.4619 20.4 28.4619H6.6C5.16406 28.4619 4 27.2979 4 25.8619V12.0619C4 10.626 5.16406 9.46191 6.6 9.46191H13C13.5523 9.46191 14 9.90963 14 10.4619C14 11.0142 13.5523 11.4619 13 11.4619H6.6Z" fill="#2D373D"/>
<path d="M27.9241 5.07913C27.8757 4.96206 27.804 4.85231 27.7092 4.75693L27.7071 4.75481L27.705 4.75269C27.5242 4.57297 27.2751 4.46191 27 4.46191H21.6667C21.1144 4.46191 20.6667 4.90963 20.6667 5.46191C20.6667 6.0142 21.1144 6.46191 21.6667 6.46191H24.5858L13.9596 17.0881C13.569 17.4787 13.569 18.1118 13.9596 18.5024C14.3501 18.8929 14.9832 18.8929 15.3738 18.5024L26 7.87613V10.7952C26 11.3475 26.4477 11.7952 27 11.7952C27.5523 11.7952 28 11.3475 28 10.7952V5.46191C28 5.32632 27.973 5.19704 27.9241 5.07913Z" fill="#2D373D"/>
</svg>
