<svg width="24" height="24" viewBox="0 0 24 24" fill="none" xmlns="http://www.w3.org/2000/svg">
<path d="M5.55021 11.8499C5.32521 11.8499 5.10021 11.9249 4.95021 12.0749C4.72521 12.2249 4.57521 12.3749 4.57521 12.5999C4.50021 12.7499 4.50021 12.8249 4.50021 12.9749C4.50021 13.1249 4.50021 13.1999 4.57521 13.2749C4.65021 13.5749 4.95021 13.8749 5.25021 13.9499C5.32521 14.0249 5.47521 14.0249 5.55021 14.0249C6.15021 14.0249 6.60021 13.4999 6.60021 12.9749C6.60021 12.9749 6.60021 12.9749 6.60021 12.8999C6.60021 12.2999 6.15021 11.8499 5.55021 11.8499Z" fill="#2D373D"/>
<path d="M7.4252 15H3.9752C3.6752 15 3.4502 14.7749 3.4502 14.4749V12.5999C3.4502 11.7749 4.0502 11.1 4.8002 10.875H4.8752C5.0252 10.875 5.1002 10.8 5.2502 10.8H17.9252C18.5252 10.8 19.1252 11.175 19.4252 11.7C19.6502 12.15 19.7252 12.5999 19.7252 13.0499C19.7252 13.4249 20.0252 13.7999 20.4752 13.7999C20.8502 13.7999 21.2252 13.5 21.2252 13.0499C21.2252 12.3 21.0752 11.625 20.7002 10.95C20.3252 10.275 19.7252 9.74995 19.0502 9.52495L17.7752 6.67495C17.4002 5.62495 16.4252 4.94995 15.3002 4.94995H7.8002C6.6752 4.94995 5.7002 5.62495 5.4002 6.59995L4.0502 9.52495C2.8502 9.97495 1.9502 11.175 1.9502 12.5999V14.4749C1.9502 15.0749 2.2502 15.5999 2.6252 15.9749V17.025C2.5502 17.55 2.7752 18.075 3.1502 18.45C3.5252 18.825 3.9752 19.0499 4.5752 19.0499C5.1002 19.0499 5.6252 18.9 6.0752 18.525C6.4502 18.15 6.6752 17.6249 6.6752 17.0999V16.4999H7.4252C7.8752 16.4999 8.17519 16.2 8.17519 15.75C8.17519 15.2999 7.8752 15 7.4252 15ZM6.7502 7.19995C6.9002 6.74995 7.3502 6.44995 7.8002 6.44995H15.3002C15.7502 6.44995 16.2002 6.74995 16.3502 7.19995L17.3252 9.29995H5.7752L6.7502 7.19995ZM5.1752 17.025C5.1752 17.175 5.1002 17.325 5.0252 17.4C4.9502 17.475 4.8002 17.5499 4.6502 17.5499C4.5002 17.5499 4.3502 17.475 4.2752 17.4C4.2002 17.325 4.1252 17.175 4.1252 17.025V16.4999H5.1752V17.025Z" fill="#2D373D"/>
<path d="M21.3002 14.9999H15.7502C15.4502 13.5749 14.1752 12.5249 12.6002 12.5249C10.8002 12.5249 9.37521 13.9499 9.37521 15.7499C9.37521 17.5499 10.8002 18.9749 12.6002 18.9749C14.1752 18.9749 15.3752 17.9249 15.7502 16.4999H18.0752V17.0249C18.0752 17.4749 18.3752 17.7749 18.8252 17.7749C19.2002 17.7749 19.5752 17.3999 19.5752 17.0249V16.4999H20.5502V17.6249C20.5502 18.0749 20.8502 18.3749 21.3002 18.3749C21.6752 18.3749 22.0502 17.9999 22.0502 17.6249V15.7499C22.0502 15.2999 21.7502 14.9999 21.3002 14.9999ZM12.6002 17.4749C11.6252 17.4749 10.8752 16.7249 10.8752 15.7499C10.8752 14.7749 11.6252 14.0249 12.6002 14.0249C13.5752 14.0249 14.3252 14.7749 14.3252 15.7499C14.3252 16.7249 13.5752 17.4749 12.6002 17.4749Z" fill="#2D373D"/>
</svg>
