<svg width="64" height="64" viewBox="0 0 64 64" fill="none" xmlns="http://www.w3.org/2000/svg">
<path d="M47.2001 18.4H47.0001C47.0001 18.4 47.0001 18.4 46.8001 18.4H42.2001V17.8C42.6001 14.8 40.2001 12 37.0001 11.8H10.4001C7.2001 12 5.0001 14.8 5.2001 17.6V36.8C5.2001 38 6.0001 38.8 7.2001 38.8C8.4001 38.8 9.2001 38 9.2001 36.8V17.4C9.2001 16.6 9.8001 15.8 10.4001 15.8H36.8001C37.6001 15.8 38.2001 16.6 38.2001 17.6V19.4C38.0001 19.6 38.0001 20 38.0001 20.4V33.4001C38.0001 34.6001 38.8001 35.4001 40.0001 35.4001C41.0001 35.4001 41.6001 34.8 41.8001 34C42.0001 33.6 42.2001 33.4 42.2001 33V22.2H45.0001V30.2001C44.8001 33.2001 47.2001 35.6 50.2001 35.6H54.6001V43.4001C54.6001 44.2001 54.2001 44.8 53.4001 44.8H51.8001C50.6001 44.8 49.8001 45.6 49.8001 46.8C49.8001 48 50.6001 48.8 51.8001 48.8H53.4001C56.4001 48.8 58.8001 46.4 58.6001 43.6V30.4C58.6001 24 53.6001 18.8 47.2001 18.4ZM50.4001 31.6C49.6001 31.6 49.0001 31 49.0001 30.2001V22.6C52.2001 23.6 54.6001 26.6 54.6001 30.2001V31.6H50.4001Z" fill="#2D373D"/>
<path d="M41.8 38C38 38 34.8 41.2 34.8 45C34.8 48.8 38 52 41.8 52C45.8 52 48.8 49 48.8 45C48.8 41.2 45.6 38 41.8 38ZM41.8 48.2C40.2001 48.2 38.8 46.8 38.8 45.2C38.8 43.6 40.2001 42.2 41.8 42.2C43.6 42.2 44.8 43.4 44.8 45.2C44.8 46.8 43.4 48.2 41.8 48.2Z" fill="#2D373D"/>
<path d="M15.4001 38C11.6001 38 8.40015 41.2 8.40015 45C8.40015 48.8 11.6001 52 15.4001 52C19.2001 52 22.4001 49 22.4001 45C22.4001 41.2 19.2001 38 15.4001 38ZM15.4001 48.2C13.8001 48.2 12.4001 46.8 12.4001 45.2C12.4001 43.6 13.8001 42.2 15.4001 42.2C17.0001 42.2 18.4001 43.4 18.4001 45.2C18.4001 46.8 17.0001 48.2 15.4001 48.2Z" fill="#2D373D"/>
<path d="M32.0001 44.8H25.4001C24.2001 44.8 23.4001 45.6 23.4001 46.8C23.4001 48 24.2001 48.8 25.4001 48.8H32.0001C33.0001 48.8 34.0001 47.8 34.0001 46.8C34.0001 45.6 33.2001 44.8 32.0001 44.8Z" fill="#2D373D"/>
</svg>
