<svg width="64" height="65" viewBox="0 0 64 65" fill="none" xmlns="http://www.w3.org/2000/svg">
<path d="M43.46 35.8091C42.3554 35.8091 41.46 36.7045 41.46 37.8091C41.46 38.9137 42.3554 39.8091 43.46 39.8091H50.02C51.1245 39.8091 52.02 38.9137 52.02 37.8091C52.02 36.7045 51.1245 35.8091 50.02 35.8091H43.46Z" fill="#2D373D"/>
<path d="M23.559 28.2572C24.3373 29.041 24.3329 30.3073 23.5491 31.0857L20.8782 33.7379L23.5491 36.3902C24.3329 37.1685 24.3373 38.4348 23.559 39.2186C22.7807 40.0024 21.5143 40.0068 20.7306 39.2285L18.0398 36.5565L15.3491 39.2285C14.5653 40.0068 13.299 40.0024 12.5207 39.2186C11.7424 38.4348 11.7468 37.1685 12.5306 36.3902L15.2015 33.7379L12.5306 31.0857C11.7468 30.3073 11.7424 29.041 12.5207 28.2572C13.299 27.4735 14.5653 27.469 15.3491 28.2474L18.0398 30.9193L20.7306 28.2474C21.5143 27.469 22.7807 27.4735 23.559 28.2572Z" fill="#2D373D"/>
<path d="M38.3191 28.2572C39.0974 29.041 39.093 30.3073 38.3092 31.0857L35.6383 33.7379L38.3092 36.3902C39.093 37.1685 39.0974 38.4348 38.3191 39.2186C37.5408 40.0024 36.2745 40.0068 35.4907 39.2285L32.8 36.5565L30.1092 39.2285C29.3254 40.0068 28.0591 40.0024 27.2808 39.2186C26.5025 38.4348 26.5069 37.1685 27.2907 36.3902L29.9616 33.7379L27.2907 31.0857C26.5069 30.3073 26.5025 29.041 27.2808 28.2572C28.0591 27.4735 29.3254 27.469 30.1092 28.2474L32.8 30.9193L35.4907 28.2474C36.2745 27.469 37.5408 27.4735 38.3191 28.2572Z" fill="#2D373D"/>
<path fill-rule="evenodd" clip-rule="evenodd" d="M10.6599 19.5234C7.75703 19.5234 5.37988 21.864 5.37988 24.7806V41.0663C5.37988 43.9829 7.75703 46.3234 10.6599 46.3234H53.2999C56.2027 46.3234 58.5799 43.9829 58.5799 41.0663V24.7806C58.5799 21.864 56.2027 19.5234 53.2999 19.5234H10.6599ZM9.37988 24.7806C9.37988 24.0994 9.93975 23.5234 10.6599 23.5234H53.2999C54.02 23.5234 54.5799 24.0994 54.5799 24.7806V41.0663C54.5799 41.7474 54.02 42.3234 53.2999 42.3234H10.6599C9.93975 42.3234 9.37988 41.7474 9.37988 41.0663V24.7806Z" fill="#2D373D"/>
</svg>
