<svg width="16" height="17" viewBox="0 0 16 17" fill="none" xmlns="http://www.w3.org/2000/svg">
<path fill-rule="evenodd" clip-rule="evenodd" d="M5.8003 2.92188C5.13281 2.92188 4.49266 3.18703 4.02067 3.65902C3.71354 3.96615 3.49399 4.34449 3.37809 4.75523H3.2334C2.95726 4.75523 2.7334 4.97909 2.7334 5.25523C2.7334 5.53137 2.95726 5.75523 3.2334 5.75523H3.30351C3.37333 6.30597 3.62393 6.82153 4.02067 7.21827C4.27605 7.47364 4.58065 7.66847 4.91218 7.79351C4.71187 7.84149 4.51495 7.90591 4.32346 7.98653C3.63426 8.2767 3.04609 8.76394 2.63275 9.38711C2.2194 10.0103 1.99928 10.7416 2 11.4894C2.00027 11.7656 2.22434 11.9892 2.50048 11.9889C2.77663 11.9887 3.00027 11.7646 3 11.4885C2.99947 10.9376 3.16161 10.3989 3.46609 9.93986C3.77057 9.48082 4.20382 9.12192 4.7115 8.90817C5.21917 8.69443 5.77867 8.63536 6.31979 8.73837C6.86091 8.84139 7.35956 9.1019 7.75318 9.48724C7.95051 9.68041 8.26707 9.67704 8.46025 9.47971C8.65342 9.28238 8.65005 8.96582 8.45272 8.77265C7.96201 8.29227 7.35106 7.95478 6.68564 7.79455C7.01824 7.66955 7.32384 7.47435 7.57992 7.21827C7.97666 6.82153 8.22726 6.30597 8.29708 5.75523H8.36699C8.64313 5.75523 8.86699 5.53137 8.86699 5.25523C8.86699 4.97909 8.64313 4.75523 8.36699 4.75523H8.22251C8.1066 4.34449 7.88705 3.96615 7.57992 3.65902C7.10794 3.18703 6.46779 2.92188 5.8003 2.92188ZM7.15438 4.75523C7.08245 4.6127 6.98782 4.48113 6.87281 4.36613C6.81562 4.30893 6.75432 4.25677 6.68962 4.20994L6.69749 4.75523H7.15438ZM6.03076 4.75523L6.01895 3.93771C5.94696 3.92723 5.8739 3.92187 5.8003 3.92187C5.72726 3.92187 5.65477 3.92714 5.58333 3.93747L5.58333 4.75523H6.03076ZM4.91667 4.75523L4.91667 4.20584C4.84986 4.25372 4.78665 4.30725 4.72778 4.36613C4.61278 4.48113 4.51815 4.6127 4.44622 4.75523H4.91667ZM4.31693 5.75523C4.37758 6.0394 4.51916 6.30254 4.72778 6.51116C5.01223 6.79561 5.39803 6.95541 5.8003 6.95541C6.20257 6.95541 6.58837 6.79561 6.87281 6.51116C7.08144 6.30254 7.22301 6.0394 7.28366 5.75523H4.31693Z" fill="#2D373D"/>
<path fill-rule="evenodd" clip-rule="evenodd" d="M12.2073 7.35323C12.4034 7.42589 12.5336 7.61294 12.5336 7.82209V10.2556H13.3178C13.4482 10.2558 13.5758 10.2933 13.6856 10.3637C13.7953 10.434 13.8826 10.5343 13.9372 10.6527C13.9918 10.7711 14.0114 10.9027 13.9937 11.0318C13.976 11.161 13.9216 11.2824 13.8372 11.3817L13.8357 11.3835L10.9462 14.7482C10.8099 14.9068 10.5893 14.9639 10.3932 14.8913C10.197 14.8186 10.0669 14.6316 10.0669 14.4224V11.9889H9.28398C9.15363 11.989 9.02546 11.9517 8.91558 11.8816C8.80555 11.8113 8.71795 11.7111 8.66313 11.5926C8.6083 11.4741 8.58856 11.3424 8.60622 11.2131C8.62389 11.0838 8.67823 10.9622 8.76282 10.8628L8.76434 10.861L11.6543 7.4963C11.7906 7.33765 12.0112 7.28057 12.2073 7.35323ZM9.97269 10.9889H10.5669C10.843 10.9889 11.0669 11.2128 11.0669 11.4889V13.0727L12.6274 11.2556H12.0336C11.7575 11.2556 11.5336 11.0317 11.5336 10.7556V9.17161L9.97269 10.9889Z" fill="#2D373D"/>
</svg>
