<svg width="24" height="25" viewBox="0 0 24 25" fill="none" xmlns="http://www.w3.org/2000/svg">
<path fill-rule="evenodd" clip-rule="evenodd" d="M13.0452 3.71094H5.11867C4.62307 3.71094 4.14776 3.90781 3.79732 4.25826C3.44688 4.6087 3.25 5.084 3.25 5.5796V20.1223C3.25 20.6179 3.44688 21.0932 3.79732 21.4436C4.14776 21.7941 4.62307 21.9909 5.11867 21.9909H7.356C7.77021 21.9909 8.106 21.6552 8.106 21.2409C8.106 20.8267 7.77021 20.4909 7.356 20.4909H5.11867C5.02089 20.4909 4.92712 20.4521 4.85798 20.383C4.78884 20.3138 4.75 20.22 4.75 20.1223V5.5796C4.75 5.48183 4.78884 5.38806 4.85798 5.31892C4.92712 5.24978 5.02089 5.21094 5.11867 5.21094H12.1993V8.9356C12.1993 9.4312 12.3962 9.90651 12.7467 10.2569C13.0971 10.6074 13.5724 10.8043 14.068 10.8043H17.7927V13.4103C17.7927 13.8245 18.1285 14.1603 18.5427 14.1603C18.9569 14.1603 19.2927 13.8245 19.2927 13.4103V10.0576L19.2927 10.0543L19.2927 10.051V9.95791C19.2926 9.46265 19.0957 8.98757 18.7456 8.63726L14.367 4.25783C14.1934 4.08434 13.9873 3.94674 13.7605 3.8529C13.5338 3.75911 13.2905 3.71087 13.0452 3.71094ZM13.6993 5.71159L17.2914 9.30427H14.068C13.9702 9.30427 13.8765 9.26543 13.8073 9.19629C13.7382 9.12715 13.6993 9.03338 13.6993 8.9356V5.71159Z" fill="#2D373D"/>
<path fill-rule="evenodd" clip-rule="evenodd" d="M9.59314 14.8975C9.17893 14.8975 8.84314 15.2332 8.84314 15.6475V21.2408C8.84314 21.4397 8.92216 21.6305 9.06281 21.7711C9.20346 21.9118 9.39423 21.9908 9.59314 21.9908C10.3854 21.9908 11.1453 21.6761 11.7055 21.1158C12.2657 20.5556 12.5805 19.7957 12.5805 19.0035V17.8848C12.5805 17.0925 12.2657 16.3327 11.7055 15.7724C11.1453 15.2122 10.3854 14.8975 9.59314 14.8975ZM10.3431 20.2879V16.6004C10.4524 16.6642 10.5539 16.7421 10.6448 16.8331C10.9238 17.112 11.0805 17.4903 11.0805 17.8848V19.0035C11.0805 19.3979 10.9238 19.7762 10.6448 20.0552C10.5539 20.1461 10.4524 20.2241 10.3431 20.2879Z" fill="#2D373D"/>
<path fill-rule="evenodd" clip-rule="evenodd" d="M13.8654 15.4448C14.2159 15.0943 14.6912 14.8975 15.1868 14.8975C15.6824 14.8975 16.1577 15.0943 16.5081 15.4448C16.8586 15.7952 17.0554 16.2705 17.0554 16.7661V20.1221C17.0554 20.6177 16.8586 21.093 16.5081 21.4435C16.1577 21.7939 15.6824 21.9908 15.1868 21.9908C14.6912 21.9908 14.2159 21.7939 13.8654 21.4435C13.515 21.093 13.3181 20.6177 13.3181 20.1221V16.7661C13.3181 16.2705 13.515 15.7952 13.8654 15.4448ZM15.1868 16.3975C15.089 16.3975 14.9952 16.4363 14.9261 16.5054C14.857 16.5746 14.8181 16.6684 14.8181 16.7661V20.1221C14.8181 20.2199 14.857 20.3137 14.9261 20.3828C14.9952 20.452 15.089 20.4908 15.1868 20.4908C15.2846 20.4908 15.3783 20.452 15.4475 20.3828C15.5166 20.3137 15.5554 20.2199 15.5554 20.1221V16.7661C15.5554 16.6683 15.5166 16.5746 15.4475 16.5054C15.3783 16.4363 15.2846 16.3975 15.1868 16.3975Z" fill="#2D373D"/>
<path d="M20.7798 14.8975C19.9875 14.8975 19.2277 15.2122 18.6674 15.7724C18.1072 16.3327 17.7925 17.0925 17.7925 17.8848V19.0035C17.7925 19.7957 18.1072 20.5556 18.6674 21.1158C19.2277 21.6761 19.9875 21.9908 20.7798 21.9908C21.194 21.9908 21.5298 21.655 21.5298 21.2408C21.5298 20.8266 21.194 20.4908 20.7798 20.4908C20.3853 20.4908 20.007 20.3341 19.7281 20.0552C19.4492 19.7762 19.2925 19.3979 19.2925 19.0035V17.8848C19.2925 17.4903 19.4492 17.112 19.7281 16.8331C20.007 16.5542 20.3853 16.3975 20.7798 16.3975C21.194 16.3975 21.5298 16.0617 21.5298 15.6475C21.5298 15.2332 21.194 14.8975 20.7798 14.8975Z" fill="#2D373D"/>
</svg>
