<svg width="32" height="33" viewBox="0 0 32 33" fill="none" xmlns="http://www.w3.org/2000/svg">
<path d="M18.6667 4.58984C18.6667 4.03756 18.219 3.58984 17.6667 3.58984C17.1144 3.58984 16.6667 4.03756 16.6667 4.58984V5.92318L15.3333 5.92318V4.58984C15.3333 4.03756 14.8856 3.58984 14.3333 3.58984C13.781 3.58984 13.3333 4.03756 13.3333 4.58984V8.92318C13.3333 9.47546 13.781 9.92318 14.3333 9.92318C14.8856 9.92318 15.3333 9.47546 15.3333 8.92318V7.92318H16.6667V8.92318C16.6667 9.47546 17.1144 9.92318 17.6667 9.92318C18.219 9.92318 18.6667 9.47546 18.6667 8.92318V4.58984Z" fill="#2D373D"/>
<path d="M14.8333 15.9232C14.8333 15.3709 14.3856 14.9232 13.8333 14.9232C13.281 14.9232 12.8333 15.3709 12.8333 15.9232V17.2565C12.8333 17.8088 13.281 18.2565 13.8333 18.2565C14.3856 18.2565 14.8333 17.8088 14.8333 17.2565V15.9232Z" fill="#2D373D"/>
<path d="M19.1667 15.9232C19.1667 15.3709 18.719 14.9232 18.1667 14.9232C17.6144 14.9232 17.1667 15.3709 17.1667 15.9232V17.2565C17.1667 17.8088 17.6144 18.2565 18.1667 18.2565C18.719 18.2565 19.1667 17.8088 19.1667 17.2565V15.9232Z" fill="#2D373D"/>
<path d="M18.1667 19.2565C18.719 19.2565 19.1667 19.7042 19.1667 20.2565V21.5898C19.1667 22.1421 18.719 22.5898 18.1667 22.5898C17.6144 22.5898 17.1667 22.1421 17.1667 21.5898V20.2565C17.1667 19.7042 17.6144 19.2565 18.1667 19.2565Z" fill="#2D373D"/>
<path d="M23.5 15.9232C23.5 15.3709 23.0523 14.9232 22.5 14.9232C21.9477 14.9232 21.5 15.3709 21.5 15.9232V17.2565C21.5 17.8088 21.9477 18.2565 22.5 18.2565C23.0523 18.2565 23.5 17.8088 23.5 17.2565V15.9232Z" fill="#2D373D"/>
<path d="M22.5 19.2565C23.0523 19.2565 23.5 19.7042 23.5 20.2565V21.5898C23.5 22.1421 23.0523 22.5898 22.5 22.5898C21.9477 22.5898 21.5 22.1421 21.5 21.5898V20.2565C21.5 19.7042 21.9477 19.2565 22.5 19.2565Z" fill="#2D373D"/>
<path d="M23.5 24.5898C23.5 24.0376 23.0523 23.5898 22.5 23.5898C21.9477 23.5898 21.5 24.0376 21.5 24.5898V25.9232C21.5 26.4755 21.9477 26.9232 22.5 26.9232C23.0523 26.9232 23.5 26.4755 23.5 25.9232V24.5898Z" fill="#2D373D"/>
<path d="M13.8333 19.2565C14.3856 19.2565 14.8333 19.7042 14.8333 20.2565V21.5898C14.8333 22.1421 14.3856 22.5898 13.8333 22.5898C13.281 22.5898 12.8333 22.1421 12.8333 21.5898V20.2565C12.8333 19.7042 13.281 19.2565 13.8333 19.2565Z" fill="#2D373D"/>
<path d="M10.5 15.9232C10.5 15.3709 10.0523 14.9232 9.5 14.9232C8.94772 14.9232 8.5 15.3709 8.5 15.9232V17.2565C8.5 17.8088 8.94772 18.2565 9.5 18.2565C10.0523 18.2565 10.5 17.8088 10.5 17.2565V15.9232Z" fill="#2D373D"/>
<path d="M9.5 19.2565C10.0523 19.2565 10.5 19.7042 10.5 20.2565V21.5898C10.5 22.1421 10.0523 22.5898 9.5 22.5898C8.94772 22.5898 8.5 22.1421 8.5 21.5898V20.2565C8.5 19.7042 8.94772 19.2565 9.5 19.2565Z" fill="#2D373D"/>
<path d="M10.5 24.5898C10.5 24.0376 10.0523 23.5898 9.5 23.5898C8.94772 23.5898 8.5 24.0376 8.5 24.5898V25.9232C8.5 26.4755 8.94772 26.9232 9.5 26.9232C10.0523 26.9232 10.5 26.4755 10.5 25.9232V24.5898Z" fill="#2D373D"/>
<path fill-rule="evenodd" clip-rule="evenodd" d="M7.91323 11.9232L8.80216 7.92296H11.3333C11.8856 7.92296 12.3333 7.47525 12.3333 6.92296C12.3333 6.37068 11.8856 5.92296 11.3333 5.92296H7.99999C7.53129 5.92296 7.12548 6.24849 7.0238 6.70603L5.86444 11.9232H5C4.44772 11.9232 4 12.3709 4 12.9232C4 13.4755 4.44772 13.9232 5 13.9232H5.66667V29.2565C5.66667 29.8088 6.11438 30.2565 6.66667 30.2565H25.3333C25.8856 30.2565 26.3333 29.8088 26.3333 29.2565V13.9232H27C27.5523 13.9232 28 13.4755 28 12.9232C28 12.3709 27.5523 11.9232 27 11.9232H26.1355L24.9762 6.70603C24.8745 6.24849 24.4687 5.92296 24 5.92296H20.6667C20.1144 5.92296 19.6667 6.37068 19.6667 6.92296C19.6667 7.47525 20.1144 7.92296 20.6667 7.92296H23.1978L24.0868 11.9232H7.91323ZM17.3333 28.2565H14.6667V26.2565C14.6667 26.0724 14.8159 25.9232 15 25.9232H17C17.1841 25.9232 17.3333 26.0724 17.3333 26.2565V28.2565ZM19.3333 26.2565V28.2565H24.3333V13.9232H7.66667V28.2565H12.6667V26.2565C12.6667 24.9678 13.7113 23.9232 15 23.9232H17C18.2887 23.9232 19.3333 24.9678 19.3333 26.2565Z" fill="#2D373D"/>
</svg>
