<svg width="64" height="65" viewBox="0 0 64 65" fill="none" xmlns="http://www.w3.org/2000/svg">
<path fill-rule="evenodd" clip-rule="evenodd" d="M13.1229 18.9938C13.1229 13.4312 17.6346 8.92188 23.2 8.92188C28.7655 8.92188 33.2772 13.4312 33.2772 18.9938C33.2772 23.3043 30.5679 26.9823 26.7585 28.4197L26.807 28.4314C29.7999 29.1622 32.5001 30.7847 34.5496 33.084C35.2847 33.9087 35.2117 35.1729 34.3866 35.9077C33.5614 36.6425 32.2965 36.5695 31.5614 35.7448C30.0515 34.0508 28.0623 32.8555 25.8573 32.3172C23.6523 31.7788 21.3357 31.9229 19.2145 32.7303C17.0933 33.5377 15.2676 34.9703 13.9795 36.8382C12.6914 38.7062 12.0016 40.9212 12.0016 43.1899C12.0016 44.2944 11.1057 45.1899 10.0005 45.1899C8.89538 45.1898 7.9995 44.2944 7.99951 43.1898C7.99955 40.1104 8.93585 37.1037 10.6843 34.5682C12.4328 32.0327 14.9109 30.0882 17.7902 28.9922C18.3968 28.7613 19.0152 28.5704 19.6415 28.4196C15.8321 26.9823 13.1229 23.3042 13.1229 18.9938ZM23.2 12.9219C19.8449 12.9219 17.125 15.6403 17.125 18.9938C17.125 22.3472 19.8449 25.0656 23.2 25.0656C26.5552 25.0656 29.2751 22.3472 29.2751 18.9938C29.2751 15.6403 26.5552 12.9219 23.2 12.9219Z" fill="#2D373D"/>
<path fill-rule="evenodd" clip-rule="evenodd" d="M41.5611 35.5945C41.073 35.3935 40.5252 35.3935 40.037 35.5945L26.88 41.0104C26.7063 41.0774 26.5442 41.1678 26.3978 41.278C26.2785 41.3675 26.1703 41.4697 26.0749 41.582C25.7792 41.9294 25.6002 42.3792 25.5987 42.8707L25.5986 42.8772V50.2064C25.5986 51.3109 26.4945 52.2064 27.5997 52.2064C28.7048 52.2064 29.6007 51.3109 29.6007 50.2064V45.7387L31.465 46.4205L31.465 51.1054L31.465 51.1119C31.4673 51.8 31.6732 52.4721 32.057 53.0434C32.4408 53.6147 32.9851 54.0597 33.6215 54.3223L39.5083 56.6759L39.5238 56.6819C40.3438 57.0018 41.2542 57.0019 42.0742 56.682L47.9562 54.3306L47.9765 54.3222C48.6129 54.0596 49.1572 53.6146 49.541 53.0434C49.9248 52.4721 50.1308 51.8001 50.1331 51.1119V46.4206L54.6861 44.7553C55.4612 44.4719 55.9826 43.7418 55.9991 42.917C56.0156 42.0923 55.5237 41.342 54.7605 41.0278L41.5611 35.5945ZM33.9213 43.0595C34.0811 43.0966 34.2335 43.1529 34.3761 43.2258L40.7991 45.5749L47.2217 43.226C47.3644 43.153 47.5171 43.0966 47.6771 43.0594L48.4764 42.767L40.7991 39.6067L33.1217 42.767L33.9213 43.0595ZM35.4671 50.752V47.8842L40.1114 49.5828C40.5555 49.7452 41.0427 49.7452 41.4867 49.5828L46.131 47.8843V50.752L40.799 52.8837L35.4671 50.752Z" fill="#2D373D"/>
</svg>
