<svg width="32" height="33" viewBox="0 0 32 33" fill="none" xmlns="http://www.w3.org/2000/svg">
<path d="M29.4001 14.0613C29.4001 13.4613 29.0001 13.0613 28.4001 13.0613C27.8001 13.0613 27.4001 13.4613 27.4001 14.0613C27.4001 14.5613 27.3001 14.8613 27.1001 15.0613C27.0001 15.1613 26.8001 15.2613 26.6001 15.3613C26.3001 12.5613 24.8001 10.2613 22.6001 8.56133C19.7001 6.46133 15.7001 5.76133 12.1001 6.66133C10.4001 4.36133 7.1001 4.36133 7.0001 4.36133C6.7001 4.36133 6.4001 4.46133 6.2001 4.66133C6.0001 4.86133 6.0001 5.16133 6.0001 5.46133L6.7001 10.0613C6.0001 10.8613 5.4001 11.8613 5.0001 12.8613H3.6001C3.0001 12.8613 2.6001 13.2613 2.6001 13.8613V20.5613C2.6001 21.1613 3.0001 21.5613 3.6001 21.5613H5.9001C6.4001 22.3613 7.0001 23.1613 7.7001 23.7613V26.5613C7.7001 27.6613 8.6001 28.4613 9.6001 28.4613H11.2001C12.3001 28.4613 13.1001 27.5613 13.1001 26.5613V26.4613C14.7001 26.7613 16.3001 26.7613 17.9001 26.4613V26.5613C17.9001 27.6613 18.8001 28.4613 19.8001 28.4613H21.5001C22.5001 28.4613 23.3001 27.6613 23.3001 26.7613V23.9613C25.2001 22.3613 26.4001 19.9613 26.7001 17.3613C27.5001 17.1613 28.1001 16.8613 28.5001 16.4613C29.1001 15.8613 29.4001 15.0613 29.4001 14.0613ZM21.7001 22.5613C21.4001 22.7613 21.3001 23.0613 21.3001 23.3613V26.4613H19.9001V25.1613C19.9001 24.8613 19.8001 24.5613 19.5001 24.3613C19.2001 24.2613 18.9001 24.1613 18.6001 24.2613C16.6001 24.9613 14.4001 24.9613 12.4001 24.2613C12.1001 24.1613 11.8001 24.1613 11.5001 24.3613C11.3001 24.5613 11.1001 24.8613 11.1001 25.1613V26.4613H9.7001V23.3613C9.7001 23.0613 9.6001 22.7613 9.3001 22.5613C8.5001 21.8613 7.8001 21.0613 7.3001 20.1613C7.1001 19.8613 6.8001 19.6613 6.4001 19.6613H4.6001V14.8613H5.7001C6.2001 14.8613 6.6001 14.5613 6.7001 14.1613C7.0001 12.9613 7.6001 11.8613 8.4001 11.0613C8.6001 10.8613 8.7001 10.5613 8.7001 10.2613L8.2001 6.56133C9.1001 6.76133 10.3001 7.16133 10.8001 8.16133C11.0001 8.66133 11.5001 8.86133 12.0001 8.66133C15.2001 7.66133 18.9001 8.16133 21.5001 10.0613C22.9001 11.0613 24.7001 13.0613 24.7001 16.3613C24.7001 18.7613 23.6001 21.0613 21.7001 22.5613Z" fill="#2D373D"/>
<path d="M19.4002 10.4613C17.0002 9.26128 14.1002 9.26128 11.7002 10.4613C11.2002 10.6613 11.0002 11.2613 11.2002 11.7613C11.4002 12.1613 11.7002 12.3613 12.1002 12.3613C12.3002 12.3613 12.4002 12.2613 12.6002 12.2613C14.4002 11.2613 16.6002 11.2613 18.6002 12.2613C19.1002 12.4613 19.7002 12.2613 19.9002 11.7613C20.1002 11.2613 19.9002 10.6613 19.4002 10.4613Z" fill="#2D373D"/>
<path d="M10.0001 13.7612C9.2001 13.7612 8.6001 14.3612 8.6001 15.1612C8.6001 15.9612 9.2001 16.5612 10.0001 16.5612C10.8001 16.5612 11.4001 15.9612 11.4001 15.1612C11.4001 14.3612 10.8001 13.7612 10.0001 13.7612Z" fill="#2D373D"/>
</svg>
