<svg width="16" height="17" viewBox="0 0 16 17" fill="none" xmlns="http://www.w3.org/2000/svg">
<path d="M12.8002 8.72302C12.5002 8.72302 12.3002 8.92302 12.3002 9.22302V13.673C12.3002 13.823 12.2002 13.923 12.0502 13.923H11.7502V11.123C11.7502 10.573 11.5002 10.073 11.1502 9.72302C10.8002 9.37302 10.3002 9.17302 9.7502 9.17302C8.7002 9.22302 7.9002 10.073 7.85019 11.123V13.923H3.9502C3.8002 13.923 3.7002 13.823 3.7002 13.673V9.22302C3.7002 8.92302 3.5002 8.72302 3.2002 8.72302C2.9002 8.72302 2.7002 8.92302 2.7002 9.22302V13.673C2.7002 14.373 3.2502 14.923 3.9502 14.923H12.0502C12.7002 14.923 13.3002 14.373 13.3002 13.673V9.22302C13.3002 8.92302 13.1002 8.72302 12.8002 8.72302ZM8.8502 13.923V11.123C8.8502 10.623 9.3002 10.173 9.8002 10.173C10.1002 10.123 10.3002 10.223 10.5002 10.423C10.7002 10.623 10.8002 10.873 10.8002 11.123V13.923H8.8502Z" fill="#2D373D"/>
<path d="M13.3502 3.57305C13.2502 3.17305 12.9002 2.87305 12.5002 2.87305H3.5002C3.0502 2.87305 2.7002 3.17305 2.6002 3.52305L1.9502 6.57305C1.9502 6.62305 1.9502 6.62305 1.9502 6.67305C1.9502 7.57305 2.6502 8.32305 3.5502 8.32305C4.0002 8.32305 4.4002 8.12305 4.6502 7.87305C4.9502 8.12305 5.3502 8.32305 5.7502 8.32305C6.2002 8.32305 6.60019 8.12305 6.9002 7.87305C7.1502 8.12305 7.6002 8.32305 8.0002 8.32305C8.4002 8.32305 8.8002 8.12305 9.1002 7.87305C9.4002 8.17305 9.7502 8.32305 10.2002 8.32305C10.6002 8.32305 11.0002 8.12305 11.3002 7.87305C11.6002 8.17305 11.9502 8.32305 12.4002 8.32305C13.3002 8.32305 14.0002 7.57305 14.0502 6.72305C14.0502 6.67305 14.0502 6.67305 14.0502 6.62305L13.3502 3.57305ZM12.4002 7.27305C12.0502 7.27305 11.8002 7.02305 11.8002 6.67305C11.8002 6.37305 11.6002 6.17305 11.3002 6.17305C11.0502 6.17305 10.8002 6.42305 10.7502 6.67305C10.7502 7.02305 10.5002 7.27305 10.1502 7.27305C9.8002 7.27305 9.5502 7.02305 9.5502 6.67305C9.5502 6.37305 9.3502 6.17305 9.0502 6.17305C8.7502 6.17305 8.5502 6.37305 8.5502 6.67305C8.5502 7.02305 8.3002 7.27305 7.9502 7.27305C7.6002 7.27305 7.35019 7.02305 7.35019 6.67305C7.35019 6.37305 7.1502 6.17305 6.85019 6.17305C6.55019 6.17305 6.35019 6.37305 6.35019 6.67305C6.35019 7.02305 6.1002 7.27305 5.7502 7.27305C5.4002 7.27305 5.1502 7.02305 5.1502 6.67305C5.1502 6.37305 4.9502 6.17305 4.6502 6.17305C4.3502 6.17305 4.1502 6.37305 4.1502 6.67305C4.1502 7.02305 3.9002 7.27305 3.5502 7.27305C3.2502 7.27305 2.9502 7.02305 2.9502 6.72305L3.6002 3.87305H12.4002L13.0002 6.72305C13.0002 7.02305 12.7002 7.27305 12.4002 7.27305Z" fill="#2D373D"/>
<path d="M6.70034 12.023C7.00034 12.023 7.20034 11.823 7.25034 11.523V9.62305C7.25034 9.32305 7.05034 9.12305 6.75034 9.12305H4.85034C4.55034 9.12305 4.35034 9.32305 4.35034 9.62305V11.523C4.35034 11.823 4.55034 12.023 4.85034 12.023H6.70034ZM5.35034 10.123H6.25034V11.023H5.35034V10.123Z" fill="#2D373D"/>
</svg>
