<svg width="24" height="25" viewBox="0 0 24 25" fill="none" xmlns="http://www.w3.org/2000/svg">
<path fill-rule="evenodd" clip-rule="evenodd" d="M4.85363 5.43025C4.66295 5.43025 4.50838 5.58483 4.50838 5.77551V20.0682C4.50838 20.2589 4.66295 20.4135 4.85363 20.4135H19.1464C19.337 20.4135 19.4916 20.2589 19.4916 20.0682V5.77551C19.4916 5.58483 19.337 5.43025 19.1464 5.43025H4.85363ZM3 5.77551C3 4.75177 3.8299 3.92188 4.85363 3.92188H19.1464C20.1701 3.92188 21 4.75177 21 5.77551V20.0682C21 21.092 20.1701 21.9219 19.1464 21.9219H4.85363C3.8299 21.9219 3 21.092 3 20.0682V5.77551Z" fill="#2D373D"/>
<path fill-rule="evenodd" clip-rule="evenodd" d="M10.3508 9.82803C10.1602 9.82803 10.0056 9.98261 10.0056 10.1733V15.6705C10.0056 15.8612 10.1602 16.0157 10.3508 16.0157H13.6492C13.8398 16.0157 13.9944 15.8612 13.9944 15.6705V10.1733C13.9944 9.98261 13.8398 9.82803 13.6492 9.82803H10.3508ZM8.49722 10.1733C8.49722 9.14955 9.32711 8.31965 10.3508 8.31965H13.6492C14.6729 8.31965 15.5028 9.14955 15.5028 10.1733V15.6705C15.5028 16.6942 14.6729 17.5241 13.6492 17.5241H10.3508C9.32711 17.5241 8.49722 16.6942 8.49722 15.6705V10.1733Z" fill="#2D373D"/>
<path fill-rule="evenodd" clip-rule="evenodd" d="M10.696 11.2727C10.696 10.8562 11.0336 10.5185 11.4501 10.5185H12.5489C12.9654 10.5185 13.3031 10.8562 13.3031 11.2727C13.3031 11.6893 12.9654 12.0269 12.5489 12.0269H11.4501C11.0336 12.0269 10.696 11.6893 10.696 11.2727Z" fill="#2D373D"/>
</svg>
