<svg width="16" height="16" viewBox="0 0 16 16" fill="none" xmlns="http://www.w3.org/2000/svg">
<path fill-rule="evenodd" clip-rule="evenodd" d="M12.0734 1.98661H3.90673C3.74196 1.98393 3.57833 2.0143 3.42549 2.07591C3.27266 2.13753 3.13372 2.22915 3.01688 2.34536C2.90005 2.46157 2.80769 2.60002 2.74526 2.75253C2.68283 2.90503 2.65159 3.0685 2.65339 3.23328V12.7666C2.65513 12.9291 2.68898 13.0897 2.75299 13.2391C2.817 13.3886 2.90992 13.5238 3.02639 13.6372C3.14286 13.7506 3.2806 13.8398 3.43168 13.8998C3.58276 13.9598 3.7442 13.9893 3.90673 13.9866H12.0734C12.2354 13.9884 12.3961 13.9582 12.5464 13.8979C12.6967 13.8375 12.8337 13.7481 12.9494 13.6348C13.0652 13.5215 13.1575 13.3866 13.2211 13.2376C13.2847 13.0886 13.3183 12.9286 13.3201 12.7666V3.23328C13.3218 3.06907 13.2908 2.90616 13.2288 2.7541C13.1668 2.60204 13.075 2.4639 12.9589 2.34778C12.8428 2.23165 12.7046 2.13989 12.5526 2.07787C12.4005 2.01586 12.2376 1.98483 12.0734 1.98661ZM3.90673 2.99995H12.0734C12.1359 2.99992 12.196 3.02429 12.2408 3.06787C12.2856 3.11145 12.3117 3.17079 12.3134 3.23328V4.93328H3.64673V3.23328C3.64752 3.20057 3.655 3.16837 3.66869 3.13866C3.68238 3.10894 3.70201 3.08234 3.72636 3.06049C3.75071 3.03864 3.77927 3.02199 3.81029 3.01158C3.84131 3.00117 3.87412 2.99721 3.90673 2.99995ZM12.0734 12.9999H3.90673C3.84421 13 3.78416 12.9756 3.73934 12.932C3.69451 12.8884 3.66846 12.8291 3.66673 12.7666V5.93328H12.3334V12.7666C12.3326 12.7993 12.3251 12.8315 12.3114 12.8612C12.2977 12.891 12.2781 12.9176 12.2538 12.9394C12.2294 12.9613 12.2009 12.9779 12.1698 12.9883C12.1388 12.9987 12.106 13.0027 12.0734 12.9999Z" fill="#2D373D"/>
<path fill-rule="evenodd" clip-rule="evenodd" d="M4.65339 4.46661H6.13339C6.266 4.46661 6.39318 4.41393 6.48695 4.32017C6.58072 4.2264 6.63339 4.09922 6.63339 3.96661C6.63339 3.83401 6.58072 3.70683 6.48695 3.61306C6.39318 3.51929 6.266 3.46661 6.13339 3.46661H4.65339C4.52079 3.46661 4.39361 3.51929 4.29984 3.61306C4.20607 3.70683 4.15339 3.83401 4.15339 3.96661C4.15339 4.09922 4.20607 4.2264 4.29984 4.32017C4.39361 4.41393 4.52079 4.46661 4.65339 4.46661Z" fill="#2D373D"/>
<path fill-rule="evenodd" clip-rule="evenodd" d="M7.98673 6.39995C7.38136 6.40521 6.7911 6.58953 6.29031 6.92969C5.78952 7.26984 5.40061 7.75061 5.17258 8.31141C4.94456 8.87221 4.88762 9.48796 5.00894 10.0811C5.13026 10.6742 5.42442 11.2181 5.85434 11.6443C6.28426 12.0705 6.83072 12.36 7.42486 12.4762C8.01899 12.5923 8.63422 12.5301 9.19303 12.2972C9.75184 12.0643 10.2292 11.6713 10.565 11.1676C10.9008 10.6638 11.08 10.072 11.0801 9.46661C11.0783 9.06214 10.9969 8.66197 10.8405 8.28896C10.6841 7.91594 10.4558 7.57739 10.1685 7.29262C9.88129 7.00785 9.54077 6.78245 9.16641 6.62929C8.79206 6.47612 8.3912 6.39819 7.98673 6.39995ZM7.98673 11.5333C7.57916 11.528 7.18224 11.4024 6.84591 11.1721C6.50957 10.9418 6.24884 10.6173 6.0965 10.2392C5.94416 9.86112 5.90701 9.44645 5.98974 9.04733C6.07247 8.64821 6.27138 8.28246 6.56144 7.99609C6.8515 7.70973 7.21977 7.51553 7.61991 7.43792C8.02006 7.36032 8.43423 7.40277 8.81031 7.55995C9.18639 7.71712 9.5076 7.98199 9.73353 8.32125C9.95946 8.66051 10.08 9.05901 10.0801 9.46661C10.0748 10.0177 9.85169 10.5443 9.4595 10.9315C9.0673 11.3187 8.53785 11.5351 7.98673 11.5333Z" fill="#2D373D"/>
<path fill-rule="evenodd" clip-rule="evenodd" d="M10.7001 4.59995C10.8257 4.64626 10.961 4.66002 11.0934 4.63995C11.2251 4.61405 11.3459 4.54898 11.4401 4.45328C11.5394 4.35825 11.6069 4.23484 11.6334 4.09995C11.6544 3.97235 11.6379 3.84138 11.5858 3.72301C11.5337 3.60464 11.4483 3.50398 11.3401 3.43328C11.2278 3.35783 11.0953 3.31831 10.9601 3.31995C10.7832 3.31995 10.6137 3.39019 10.4887 3.51521C10.3636 3.64023 10.2934 3.8098 10.2934 3.98661C10.2937 4.12255 10.3356 4.25514 10.4134 4.36661C10.485 4.46986 10.5844 4.55074 10.7001 4.59995ZM10.6534 3.93328C10.6636 3.87318 10.6914 3.81748 10.7334 3.77328C10.7788 3.73164 10.8337 3.70186 10.8934 3.68661H10.9534C10.9932 3.68037 11.0336 3.68037 11.0734 3.68661H11.1267C11.1617 3.70588 11.1914 3.73333 11.2134 3.76661V3.82661C11.2198 3.86636 11.2198 3.90687 11.2134 3.94661C11.2166 3.96648 11.2166 3.98674 11.2134 4.00661C11.2022 4.06779 11.1718 4.12382 11.1267 4.16661C11.0814 4.20826 11.0264 4.23803 10.9667 4.25328H10.9067C10.867 4.25953 10.8265 4.25953 10.7867 4.25328H10.7334C10.698 4.22889 10.6684 4.19703 10.6467 4.15995C10.6431 4.14235 10.6431 4.12421 10.6467 4.10661C10.639 4.06668 10.6413 4.02545 10.6534 3.98661C10.6476 3.96026 10.6476 3.93297 10.6534 3.90661V3.93328Z" fill="#2D373D"/>
<path fill-rule="evenodd" clip-rule="evenodd" d="M8.47339 4.59995C8.59903 4.64626 8.73434 4.66002 8.86673 4.63995C8.99844 4.61405 9.11927 4.54898 9.21339 4.45328C9.31273 4.35825 9.38025 4.23484 9.40673 4.09995C9.42776 3.97235 9.41123 3.84138 9.35915 3.72301C9.30707 3.60464 9.22168 3.50398 9.11339 3.43328C9.00115 3.35783 8.86862 3.31831 8.73339 3.31995C8.55658 3.31995 8.38701 3.39019 8.26199 3.51521C8.13697 3.64023 8.06673 3.8098 8.06673 3.98661C8.06705 4.12255 8.10892 4.25514 8.18673 4.36661C8.25838 4.46986 8.35776 4.55074 8.47339 4.59995Z" fill="#2D373D"/>
<path fill-rule="evenodd" clip-rule="evenodd" d="M7.98673 7.86661C7.55996 7.86527 7.15005 8.03307 6.84673 8.33328C6.69617 8.48103 6.57672 8.65742 6.49543 8.85207C6.41414 9.04672 6.37264 9.25567 6.37339 9.46661C6.37339 9.59922 6.42607 9.7264 6.51984 9.82017C6.61361 9.91393 6.74079 9.96661 6.87339 9.96661C7.006 9.96661 7.13318 9.91393 7.22695 9.82017C7.32072 9.7264 7.37339 9.59922 7.37339 9.46661C7.37291 9.3886 7.38799 9.31127 7.41775 9.23915C7.44751 9.16703 7.49136 9.10158 7.54673 9.04661C7.66406 8.93115 7.82211 8.86649 7.98673 8.86661C8.11934 8.86661 8.24651 8.81393 8.34028 8.72017C8.43405 8.6264 8.48673 8.49922 8.48673 8.36661C8.48673 8.234 8.43405 8.10683 8.34028 8.01306C8.24651 7.91929 8.11934 7.86661 7.98673 7.86661Z" fill="#2D373D"/>
</svg>
