<svg width="64" height="65" viewBox="0 0 64 65" fill="none" xmlns="http://www.w3.org/2000/svg">
<path d="M56.8002 11.0605H7.2002C6.0002 11.0605 5.2002 11.8605 5.2002 13.0605V51.8605C5.2002 53.0606 6.0002 53.8605 7.2002 53.8605H56.8002C57.8002 53.8605 58.8002 53.0606 58.8002 51.8605V13.0605C58.8002 11.8605 58.0002 11.0605 56.8002 11.0605ZM52.4002 15.0605L35.4002 29.8605C33.4002 31.6605 30.6002 31.6605 28.6002 29.8605L11.6002 15.0605H52.4002ZM9.2002 49.8605V18.0605L26.0002 32.6605C27.6002 34.2605 29.8002 35.0605 32.0002 35.0605C34.2002 35.0605 36.4002 34.2605 38.0002 32.8605L54.8002 18.0605V49.8605H9.2002Z" fill="#2D373D"/>
</svg>
