<svg width="16" height="17" viewBox="0 0 16 17" fill="none" xmlns="http://www.w3.org/2000/svg">
<path fill-rule="evenodd" clip-rule="evenodd" d="M3.96667 2.46191C4.24282 2.46191 4.46667 2.68577 4.46667 2.96191V4.79525C4.46667 5.07139 4.24282 5.29525 3.96667 5.29525C3.69053 5.29525 3.46667 5.07139 3.46667 4.79525V4.19525H3.23333C3.17145 4.19525 3.1121 4.21983 3.06834 4.26359C3.02458 4.30735 3 4.3667 3 4.42858V7.36192C3 8.00728 3.25637 8.62621 3.71271 9.08254C4.16781 9.53765 4.78463 9.79386 5.4281 9.79525C5.42984 9.79523 5.43159 9.79522 5.43333 9.79522C5.43508 9.79522 5.43682 9.79523 5.43857 9.79525C6.08204 9.79386 6.69885 9.53765 7.15396 9.08254C7.6103 8.62621 7.86667 8.00728 7.86667 7.36192V4.42858C7.86667 4.3667 7.84208 4.30735 7.79832 4.26359C7.75457 4.21983 7.69522 4.19525 7.63333 4.19525H7.39999V4.79525C7.39999 5.07139 7.17614 5.29525 6.89999 5.29525C6.62385 5.29525 6.39999 5.07139 6.39999 4.79525V2.96191C6.39999 2.68577 6.62385 2.46191 6.89999 2.46191C7.17614 2.46191 7.39999 2.68577 7.39999 2.96191V3.19525H7.63333C7.96043 3.19525 8.27414 3.32519 8.50543 3.55649C8.73673 3.78778 8.86667 4.10148 8.86667 4.42858V7.36192C8.86667 8.2725 8.50494 9.14578 7.86107 9.78965C7.33663 10.3141 6.66001 10.6513 5.935 10.7584C5.95938 11.466 6.25113 12.1395 6.75344 12.6418C7.27854 13.1669 7.99073 13.4619 8.73333 13.4619C9.47594 13.4619 10.1881 13.1669 10.7132 12.6418C11.2383 12.1167 11.5333 11.4045 11.5333 10.6619V9.26398C11.1992 9.17615 10.8911 9.00103 10.6427 8.75257C10.2739 8.38375 10.0667 7.88352 10.0667 7.36193C10.0667 6.84034 10.2739 6.34011 10.6427 5.97129C11.0115 5.60247 11.5117 5.39526 12.0333 5.39526C12.5549 5.39526 13.0552 5.60247 13.424 5.97129C13.7928 6.34011 14 6.84034 14 7.36193C14 7.88352 13.7928 8.38375 13.424 8.75257C13.1755 9.00103 12.8674 9.17615 12.5333 9.26398V10.6619C12.5333 11.6697 12.133 12.6363 11.4203 13.3489C10.7077 14.0615 9.74116 14.4619 8.73333 14.4619C7.72551 14.4619 6.75897 14.0615 6.04633 13.3489C5.35658 12.6591 4.95937 11.7315 4.93457 10.7588C4.20847 10.6522 3.53073 10.3148 3.0056 9.78965C2.36173 9.14578 2 8.2725 2 7.36192V4.42858C2 4.10148 2.12994 3.78778 2.36123 3.55649C2.59253 3.32519 2.90623 3.19525 3.23333 3.19525H3.46667V2.96191C3.46667 2.68577 3.69053 2.46191 3.96667 2.46191ZM12.0388 8.32858C12.2932 8.32714 12.5369 8.22546 12.7169 8.04547C12.8982 7.86418 13 7.61831 13 7.36193C13 7.10555 12.8982 6.85968 12.7169 6.67839C12.5356 6.49711 12.2897 6.39526 12.0333 6.39526C11.777 6.39526 11.5311 6.49711 11.3498 6.67839C11.1685 6.85968 11.0667 7.10555 11.0667 7.36193C11.0667 7.61831 11.1685 7.86418 11.3498 8.04547C11.5298 8.22546 11.7735 8.32714 12.0279 8.32858C12.0297 8.32856 12.0315 8.32855 12.0333 8.32855C12.0352 8.32855 12.037 8.32856 12.0388 8.32858Z" fill="#2D373D"/>
</svg>
