<svg width="24" height="25" viewBox="0 0 24 25" fill="none" xmlns="http://www.w3.org/2000/svg">
<path fill-rule="evenodd" clip-rule="evenodd" d="M7.87527 9.58661C7.87527 7.39141 9.65484 5.61185 11.85 5.61185C14.0452 5.61185 15.8248 7.39141 15.8248 9.58661C15.8248 11.5191 14.4457 13.1295 12.6179 13.4873C13.5749 13.5971 14.5004 13.9112 15.3302 14.4119C16.3805 15.0456 17.2378 15.954 17.8097 17.0392C18.0028 17.4056 17.8623 17.8592 17.4958 18.0524C17.1294 18.2455 16.6758 18.105 16.4827 17.7385C16.0381 16.895 15.3717 16.1889 14.5553 15.6963C13.7389 15.2037 12.8035 14.9434 11.85 14.9434C10.8965 14.9434 9.96112 15.2037 9.14472 15.6963C8.32832 16.1889 7.66191 16.895 7.21736 17.7385C7.02424 18.105 6.57063 18.2455 6.20419 18.0524C5.83775 17.8592 5.69725 17.4056 5.89036 17.0392C6.46224 15.954 7.31955 15.0456 8.3698 14.4119C9.19968 13.9112 10.1251 13.5971 11.0821 13.4873C9.2544 13.1295 7.87527 11.5191 7.87527 9.58661ZM11.85 7.11185C10.4833 7.11185 9.37527 8.21984 9.37527 9.58661C9.37527 10.9534 10.4833 12.0614 11.85 12.0614C13.2168 12.0614 14.3248 10.9534 14.3248 9.58661C14.3248 8.21984 13.2168 7.11185 11.85 7.11185Z" fill="#2D373D"/>
<path fill-rule="evenodd" clip-rule="evenodd" d="M3.75 4.47598C3.75 3.42813 4.56073 2.50098 5.65385 2.50098H18.3462C19.4393 2.50098 20.25 3.42813 20.25 4.47598V20.401C20.25 21.4488 19.4393 22.376 18.3462 22.376H5.65385C4.56073 22.376 3.75 21.4488 3.75 20.401V4.47598ZM5.65385 4.00098C5.47246 4.00098 5.25 4.17073 5.25 4.47598V20.401C5.25 20.7062 5.47246 20.876 5.65385 20.876H18.3462C18.5275 20.876 18.75 20.7062 18.75 20.401V4.47598C18.75 4.17073 18.5275 4.00098 18.3462 4.00098H5.65385Z" fill="#2D373D"/>
</svg>
