<svg width="16" height="17" viewBox="0 0 16 17" fill="none" xmlns="http://www.w3.org/2000/svg">
<path d="M10.9201 9.11519C10.2705 9.11522 9.64645 9.36807 9.18006 9.82019C9.11615 9.89024 9.05607 9.96368 9.00006 10.0402L6.22506 8.68019C6.28011 8.48305 6.31035 8.27982 6.31506 8.07519C6.3119 7.946 6.29853 7.81727 6.27506 7.69019L8.86006 6.69019C8.95247 6.83279 9.05974 6.9652 9.18006 7.08519C9.64738 7.54326 10.2757 7.79983 10.9301 7.79983C11.5844 7.79983 12.2127 7.54326 12.6801 7.08519C12.9097 6.86198 13.0923 6.59498 13.217 6.29997C13.3416 6.00497 13.4059 5.68795 13.4059 5.36769C13.4059 5.04742 13.3416 4.73041 13.217 4.43541C13.0923 4.1404 12.9097 3.8734 12.6801 3.65019C12.2127 3.19212 11.5844 2.93555 10.9301 2.93555C10.2757 2.93555 9.64738 3.19212 9.18006 3.65019C8.95159 3.87478 8.76988 4.14242 8.64544 4.43764C8.521 4.73286 8.4563 5.04982 8.45506 5.37019C8.45822 5.49938 8.47159 5.62811 8.49506 5.75519L5.91006 6.75519C5.81765 6.61259 5.71038 6.48018 5.59006 6.36019C5.12274 5.90212 4.49444 5.64555 3.84006 5.64555C3.18568 5.64555 2.55738 5.90212 2.09006 6.36019C1.86039 6.5834 1.67782 6.8504 1.55316 7.14541C1.42849 7.44041 1.36426 7.75742 1.36426 8.07769C1.36426 8.39795 1.42849 8.71497 1.55316 9.00997C1.67782 9.30498 1.86039 9.57198 2.09006 9.79519C2.55738 10.2533 3.18568 10.5098 3.84006 10.5098C4.49444 10.5098 5.12274 10.2533 5.59006 9.79519C5.65506 9.72519 5.71006 9.64519 5.77006 9.57519L8.53506 10.9302C8.48041 11.1274 8.45018 11.3306 8.44506 11.5352C8.4463 11.8556 8.511 12.1725 8.63544 12.4677C8.75988 12.763 8.94159 13.0306 9.17006 13.2552C9.63738 13.7133 10.2657 13.9698 10.9201 13.9698C11.5744 13.9698 12.2027 13.7133 12.6701 13.2552C12.8997 13.032 13.0823 12.765 13.207 12.47C13.3316 12.175 13.3959 11.858 13.3959 11.5377C13.3959 11.2174 13.3316 10.9004 13.207 10.6054C13.0823 10.3104 12.8997 10.0434 12.6701 9.82019C12.2012 9.36565 11.5731 9.11261 10.9201 9.11519ZM9.88006 4.38019C10.1595 4.11131 10.5323 3.96112 10.9201 3.96112C11.3079 3.96112 11.6806 4.11131 11.9601 4.38019C12.0937 4.51019 12.2 4.66566 12.2725 4.83742C12.345 5.00918 12.3824 5.19374 12.3824 5.38019C12.3824 5.56664 12.345 5.7512 12.2725 5.92296C12.2 6.09472 12.0937 6.25019 11.9601 6.38019C11.6751 6.63808 11.3044 6.78089 10.9201 6.78089C10.5357 6.78089 10.1651 6.63808 9.88006 6.38019C9.7464 6.25019 9.64016 6.09472 9.56762 5.92296C9.49508 5.7512 9.4577 5.56664 9.4577 5.38019C9.4577 5.19374 9.49508 5.00918 9.56762 4.83742C9.64016 4.66566 9.7464 4.51019 9.88006 4.38019V4.38019ZM2.81006 9.08019C2.67593 8.95041 2.5692 8.79504 2.4962 8.62327C2.42319 8.4515 2.3854 8.26683 2.38506 8.08019C2.38425 7.89338 2.42152 7.70836 2.49459 7.53643C2.56766 7.3645 2.675 7.20926 2.81006 7.08019C3.08952 6.81131 3.46226 6.66112 3.85006 6.66112C4.23787 6.66112 4.6106 6.81131 4.89006 7.08019C5.02512 7.20926 5.13246 7.3645 5.20553 7.53643C5.2786 7.70836 5.31587 7.89338 5.31506 8.08019C5.31472 8.26683 5.27693 8.4515 5.20392 8.62327C5.13092 8.79504 5.02419 8.95041 4.89006 9.08019C4.60507 9.33808 4.23442 9.48089 3.85006 9.48089C3.4657 9.48089 3.09506 9.33808 2.81006 9.08019V9.08019ZM11.9601 12.5402C11.6761 12.8002 11.3051 12.9444 10.9201 12.9444C10.5351 12.9444 10.164 12.8002 9.88006 12.5402C9.7464 12.4102 9.64016 12.2547 9.56762 12.083C9.49508 11.9112 9.4577 11.7266 9.4577 11.5402C9.4577 11.3537 9.49508 11.1692 9.56762 10.9974C9.64016 10.8257 9.7464 10.6702 9.88006 10.5402C10.1595 10.2713 10.5323 10.1211 10.9201 10.1211C11.3079 10.1211 11.6806 10.2713 11.9601 10.5402C12.0937 10.6702 12.2 10.8257 12.2725 10.9974C12.345 11.1692 12.3824 11.3537 12.3824 11.5402C12.3824 11.7266 12.345 11.9112 12.2725 12.083C12.2 12.2547 12.0937 12.4102 11.9601 12.5402Z" fill="#2D373D"/>
</svg>
