<svg width="32" height="32" viewBox="0 0 32 32" fill="none" xmlns="http://www.w3.org/2000/svg">
<path d="M25.7998 12.3C25.1998 12.3 24.7998 12.7 24.7998 13.3V17.2C24.7998 21 21.6998 24 17.9998 24H14.0998C10.2998 24 7.2998 20.9 7.2998 17.2V13.3C7.2998 12.7 6.8998 12.3 6.2998 12.3C5.6998 12.3 5.2998 12.7 5.2998 13.3V17.2C5.2998 22.1 9.2998 26 14.0998 26H14.9998V28.4C14.9998 29 15.3998 29.4 15.9998 29.4C16.5998 29.4 16.9998 29 16.9998 28.4V26H17.9998C22.7998 26 26.7998 22.1 26.7998 17.2V13.3C26.7998 12.7 26.3998 12.3 25.7998 12.3Z" fill="#2D373D"/>
<path d="M14.0999 22.1001H17.9999C20.8999 22.0001 23.0999 19.5001 22.8999 16.7001V8.0001C23.0999 5.2001 20.8999 2.8001 17.9999 2.6001H13.9999C11.1999 2.8001 8.99989 5.2001 9.19989 8.0001V16.7001C8.99989 19.5001 11.1999 21.9001 14.0999 22.1001ZM11.1999 7.9001C11.0999 6.2001 12.3999 4.7001 14.0999 4.6001H17.8999C19.6999 4.7001 20.9999 6.2001 20.8999 8.0001V16.8001C20.9999 18.5001 19.6999 20.0001 17.9999 20.1001H14.1999C12.3999 20.0001 11.0999 18.5001 11.1999 16.7001V7.9001Z" fill="#2D373D"/>
</svg>
