<svg width="16" height="17" viewBox="0 0 16 17" fill="none" xmlns="http://www.w3.org/2000/svg">
<path d="M8 9.86021C8.25 9.86021 8.5 9.61021 8.5 9.36021V8.46021C8.5 8.16021 8.3 7.96021 8 7.96021C7.7 7.96021 7.5 8.16021 7.5 8.46021V9.36021C7.5 9.66021 7.7 9.86021 8 9.86021Z" fill="#2D373D"/>
<path d="M8 7.0602C8.25 7.0602 8.5 6.86021 8.5 6.61021V5.71021C8.5 5.41021 8.3 5.21021 8 5.21021C7.7 5.21021 7.5 5.41021 7.5 5.71021V6.5602C7.5 6.8602 7.7 7.0602 8 7.0602Z" fill="#2D373D"/>
<path d="M8 4.31016C8.25 4.31016 8.5 4.06016 8.5 3.81016V2.91016C8.5 2.61016 8.3 2.41016 8 2.41016C7.7 2.41016 7.5 2.61016 7.5 2.91016V3.81016C7.5 4.11016 7.7 4.31016 8 4.31016Z" fill="#2D373D"/>
<path d="M7.99994 11.6601C7.94994 11.6601 7.94994 11.6601 7.89994 11.6601L5.09994 5.81008C4.99994 5.56008 4.69994 5.46008 4.44994 5.56008C4.19994 5.66008 4.09994 5.96008 4.19994 6.21008L5.54994 9.06008C5.14994 9.21008 4.74994 9.36008 4.39994 9.56008C4.29994 9.61008 4.19994 9.61008 4.09994 9.56008C3.99994 9.51008 3.94994 9.46008 3.89994 9.36008L2.44994 6.41008C2.09994 5.76008 2.39994 4.96008 3.04994 4.66008C4.04994 4.11008 5.14994 3.76008 6.29994 3.56008C6.59994 3.51008 6.74994 3.26008 6.74994 2.96008C6.69994 2.71008 6.39994 2.51008 6.14994 2.56008C4.94994 2.76008 3.69994 3.16008 2.59994 3.76008C1.44994 4.36008 0.999942 5.71008 1.54994 6.86008L2.99994 9.81008C3.14994 10.1601 3.44994 10.4101 3.79994 10.5101C3.94994 10.5601 4.09994 10.6101 4.24994 10.6101C4.44994 10.6101 4.59994 10.5601 4.79994 10.4601H4.84994C5.19994 10.2601 5.59994 10.1101 5.99994 9.96008L6.99994 12.0601C6.74994 12.3101 6.59994 12.6601 6.59994 13.0601C6.59994 13.8601 7.24994 14.4601 7.99994 14.4601C8.74994 14.4601 9.39994 13.8601 9.39994 13.0601C9.39994 12.2601 8.79994 11.6601 7.99994 11.6601ZM7.99994 13.5101C7.74994 13.5101 7.59994 13.3601 7.59994 13.1101C7.59994 12.8601 7.79994 12.7101 7.99994 12.7101C8.19994 12.7101 8.39994 12.8601 8.39994 13.1101C8.39994 13.3601 8.24994 13.5101 7.99994 13.5101Z" fill="#2D373D"/>
<path d="M13.3999 3.76008C12.2999 3.16008 11.0999 2.76008 9.8499 2.56008C9.5499 2.51008 9.2999 2.71008 9.2499 2.96008C9.1999 3.26008 9.3999 3.51008 9.6499 3.56008C10.7999 3.76008 11.8999 4.11008 12.9499 4.66008C13.5999 4.96008 13.8499 5.76008 13.5499 6.41008L12.0999 9.36008C12.0999 9.46008 11.9999 9.51008 11.8999 9.56008C11.7999 9.61008 11.6999 9.61008 11.5999 9.56008C11.0499 9.31008 10.4999 9.06008 9.8999 8.91008C9.6499 8.86008 9.3499 9.01008 9.2999 9.26008C9.2499 9.51008 9.3999 9.76008 9.6499 9.86008C10.1999 10.0101 10.6999 10.2101 11.1999 10.4601C11.3999 10.5601 11.5999 10.6101 11.7999 10.6101C11.9499 10.6101 12.0999 10.5601 12.1999 10.5101C12.5499 10.4101 12.8499 10.1601 12.9999 9.81008L14.4499 6.86008C14.9999 5.71008 14.4999 4.31008 13.3999 3.76008Z" fill="#2D373D"/>
</svg>
