<svg width="24" height="25" viewBox="0 0 24 25" fill="none" xmlns="http://www.w3.org/2000/svg">
<path d="M12.6075 17.1988H10.4775C10.3061 16.5684 9.93345 16.0111 9.41634 15.6118C8.89922 15.2124 8.26587 14.9928 7.61254 14.9863H4.47754V14.6338C4.47754 14.4349 4.39852 14.2442 4.25787 14.1035C4.11722 13.9628 3.92645 13.8838 3.72754 13.8838C3.52863 13.8838 3.33786 13.9628 3.19721 14.1035C3.05656 14.2442 2.97754 14.4349 2.97754 14.6338V21.2713C2.97754 21.4702 3.05656 21.661 3.19721 21.8017C3.33786 21.9423 3.52863 22.0213 3.72754 22.0213C3.92645 22.0213 4.11722 21.9423 4.25787 21.8017C4.39852 21.661 4.47754 21.4702 4.47754 21.2713V20.9113H14.82C15.019 20.9113 15.2097 20.8323 15.3504 20.6917C15.491 20.551 15.57 20.3602 15.57 20.1613C15.5603 19.3786 15.2451 18.6308 14.6916 18.0773C14.1381 17.5238 13.3902 17.2086 12.6075 17.1988ZM4.47754 19.4113V16.4863H7.62754C8.01479 16.4899 8.38566 16.6431 8.66254 16.9138C8.74148 17.0019 8.8118 17.0973 8.87254 17.1988H7.62754C7.42863 17.1988 7.23786 17.2778 7.09721 17.4185C6.95656 17.5592 6.87754 17.7499 6.87754 17.9488C6.87754 18.1477 6.95656 18.3385 7.09721 18.4792C7.23786 18.6198 7.42863 18.6988 7.62754 18.6988H12.6075C12.9958 18.7044 13.3669 18.8603 13.6425 19.1338C13.7254 19.2177 13.7984 19.3108 13.86 19.4113H4.47754Z" fill="#2D373D"/>
<path d="M15.9675 13.0138C16.1911 12.7903 16.3685 12.5248 16.4895 12.2327C16.6105 11.9406 16.6728 11.6275 16.6728 11.3113C16.6728 10.9951 16.6105 10.682 16.4895 10.3899C16.3685 10.0978 16.1911 9.83239 15.9675 9.60883C15.5086 9.17141 14.899 8.9274 14.265 8.9274C13.6311 8.9274 13.0214 9.17141 12.5625 9.60883C12.111 10.0604 11.8573 10.6728 11.8573 11.3113C11.8573 11.9499 12.111 12.5623 12.5625 13.0138C13.0141 13.4654 13.6265 13.719 14.265 13.719C14.9036 13.719 15.516 13.4654 15.9675 13.0138ZM13.62 11.9563C13.4941 11.829 13.4086 11.6673 13.3743 11.4915C13.34 11.3158 13.3586 11.1338 13.4275 10.9685C13.4965 10.8032 13.6128 10.662 13.7618 10.5627C13.9109 10.4634 14.086 10.4104 14.265 10.4104C14.4441 10.4104 14.6192 10.4634 14.7682 10.5627C14.9173 10.662 15.0336 10.8032 15.1026 10.9685C15.1715 11.1338 15.19 11.3158 15.1558 11.4915C15.1215 11.6673 15.036 11.829 14.91 11.9563C14.7359 12.1214 14.505 12.2135 14.265 12.2135C14.0251 12.2135 13.7942 12.1214 13.62 11.9563Z" fill="#2D373D"/>
<path d="M20.9775 13.5988C20.8933 13.1597 20.6536 12.7657 20.3025 12.4888L19.44 11.8138C19.4776 11.4799 19.4776 11.1428 19.44 10.8088L20.3025 10.1338C20.6552 9.85836 20.8952 9.46368 20.9775 9.02383C21.0611 8.58408 20.9839 8.12895 20.76 7.74133L20.6175 7.49383C20.3915 7.10623 20.0354 6.81128 19.6125 6.66133C19.1943 6.50423 18.7333 6.50423 18.315 6.66133L17.2275 7.11133C16.9617 6.92138 16.6779 6.75809 16.38 6.62383L16.2525 5.52133C16.1886 5.07682 15.9678 4.66983 15.63 4.37383C15.2921 4.08306 14.8609 3.92336 14.415 3.92383H14.115C13.6681 3.92477 13.2366 4.08726 12.9 4.38133C12.5654 4.67355 12.3449 5.0747 12.2775 5.51383L12.12 6.61633C11.8205 6.75031 11.5364 6.91627 11.2725 7.11133L10.2375 6.69883C9.8193 6.54173 9.35827 6.54173 8.94004 6.69883C8.51897 6.84802 8.16341 7.1399 7.93504 7.52383L7.79254 7.77883C7.56932 8.16668 7.49217 8.62157 7.57504 9.06133C7.65737 9.50118 7.89738 9.89586 8.25004 10.1713L9.11254 10.8463C9.07501 11.1803 9.07501 11.5174 9.11254 11.8513L8.25004 12.5263C8.13455 12.6595 8.06964 12.829 8.06669 13.0052C8.06375 13.1815 8.12295 13.3531 8.23392 13.49C8.34489 13.6269 8.50054 13.7204 8.67354 13.754C8.84655 13.7876 9.02587 13.7592 9.18004 13.6738L10.38 12.7288C10.4923 12.6427 10.578 12.5266 10.6271 12.3939C10.6762 12.2612 10.6867 12.1173 10.6575 11.9788C10.5676 11.5358 10.5676 11.0793 10.6575 10.6363C10.6867 10.4979 10.6762 10.354 10.6271 10.2213C10.578 10.0885 10.4923 9.97243 10.38 9.88633L9.18004 8.94133C9.10937 8.88831 9.06119 8.81068 9.04504 8.72383C9.0288 8.64102 9.0449 8.55513 9.09004 8.48383L9.24004 8.22883C9.27914 8.15188 9.34624 8.09283 9.42754 8.06383C9.51049 8.0374 9.59959 8.0374 9.68254 8.06383L11.115 8.64133C11.2401 8.68889 11.3755 8.70215 11.5074 8.67973C11.6393 8.65731 11.7628 8.60003 11.865 8.51383C12.2077 8.2152 12.605 7.98596 13.035 7.83883C13.1645 7.79363 13.2791 7.7138 13.3664 7.60801C13.4537 7.50223 13.5103 7.37454 13.53 7.23883L13.7475 5.73883C13.7628 5.65519 13.8049 5.57881 13.8675 5.52133C13.9341 5.45775 14.023 5.42276 14.115 5.42383H14.415C14.5009 5.42451 14.5836 5.45651 14.6475 5.51383C14.7102 5.57131 14.7523 5.64769 14.7675 5.73133L14.985 7.23133C15.0048 7.36704 15.0614 7.49473 15.1487 7.60051C15.236 7.7063 15.3506 7.78613 15.48 7.83133C15.9087 7.98147 16.3055 8.2104 16.65 8.50633C16.7523 8.59253 16.8758 8.64981 17.0077 8.67223C17.1395 8.69465 17.275 8.68139 17.4 8.63383L18.8325 8.05633C18.9129 8.02999 18.9996 8.02999 19.08 8.05633C19.162 8.08736 19.2309 8.14561 19.275 8.22133L19.4175 8.47633C19.4616 8.54962 19.4776 8.63644 19.4624 8.72061C19.4472 8.80478 19.402 8.88056 19.335 8.93383L18.15 9.92383C18.0391 10.0108 17.9549 10.1273 17.9072 10.26C17.8594 10.3926 17.85 10.5361 17.88 10.6738C17.9701 11.1193 17.9701 11.5783 17.88 12.0238C17.85 12.1616 17.8594 12.305 17.9072 12.4377C17.9549 12.5703 18.0391 12.6868 18.15 12.7738L19.3575 13.6738C19.4244 13.7258 19.4697 13.8006 19.485 13.8838C19.499 13.9682 19.4859 14.0549 19.4475 14.1313L19.2975 14.3863C19.253 14.4601 19.184 14.5158 19.1025 14.5438C19.0228 14.5737 18.9348 14.5737 18.855 14.5438L17.415 13.9663C17.29 13.9188 17.1545 13.9055 17.0227 13.9279C16.8908 13.9503 16.7673 14.0076 16.665 14.0938C16.3224 14.3925 15.9251 14.6217 15.495 14.7688C15.3656 14.814 15.251 14.8939 15.1637 14.9996C15.0764 15.1054 15.0198 15.2331 15 15.3688L14.88 16.1938C14.8522 16.3907 14.9038 16.5907 15.0233 16.7496C15.1429 16.9085 15.3206 17.0135 15.5175 17.0413H15.6225C15.8045 17.0431 15.981 16.9787 16.1189 16.86C16.2569 16.7413 16.3471 16.5765 16.3725 16.3963L16.4325 16.0063C16.7139 15.8691 16.9803 15.7032 17.2275 15.5113L18.2625 15.9313C18.6814 16.0851 19.1412 16.0851 19.56 15.9313C19.9842 15.8101 20.3512 15.5415 20.595 15.1738L20.745 14.9188C20.9874 14.5243 21.0705 14.0524 20.9775 13.5988Z" fill="#2D373D"/>
</svg>
