<svg width="64" height="65" viewBox="0 0 64 65" fill="none" xmlns="http://www.w3.org/2000/svg">
<path fill-rule="evenodd" clip-rule="evenodd" d="M52.6667 45.755C52.6667 48.6712 50.3309 51.0884 47.3846 51.0884H11.2821C8.33583 51.0884 6 48.6712 6 45.755L6 25.755C6 22.8389 8.3358 20.4217 11.2821 20.4217L47.3846 20.4217C50.331 20.4217 52.6667 22.8389 52.6667 25.755V45.755ZM47.3846 47.0884C48.0636 47.0884 48.6667 46.5208 48.6667 45.755V25.755C48.6667 24.9893 48.0635 24.4217 47.3846 24.4217L11.2821 24.4217C10.6032 24.4217 10 24.9894 10 25.755L10 45.755C10 46.5207 10.6032 47.0884 11.2821 47.0884H47.3846Z" fill="#2D373D"/>
<path fill-rule="evenodd" clip-rule="evenodd" d="M57.5686 41.1276C58.6732 41.1276 59.5686 40.2322 59.5686 39.1276V19.5198C59.5686 18.1783 59.0359 16.8914 58.087 15.9426C57.1382 14.9937 55.8512 14.4609 54.5098 14.4609L17.3333 14.4609C16.2288 14.4609 15.3333 15.3564 15.3333 16.4609C15.3333 17.5655 16.2288 18.4609 17.3333 18.4609L54.5098 18.4609C54.7908 18.4609 55.0602 18.5726 55.2586 18.771C55.457 18.9694 55.5686 19.2388 55.5686 19.5198V39.1276C55.5686 40.2322 56.4641 41.1276 57.5686 41.1276Z" fill="#2D373D"/>
<path d="M26.3294 27.9527C26.7066 27.4529 27.3209 27.1276 28.0148 27.1276C28.7002 27.1276 29.308 27.4451 29.6863 27.9346C30.1741 28.009 30.6753 28.1146 31.1871 28.2516C32.2541 28.5373 32.8875 29.6338 32.6018 30.7008C32.3162 31.7678 31.2196 32.4012 30.1526 32.1155C27.0622 31.2882 26.1498 32.2719 26.0531 32.428C25.987 32.5348 25.9924 32.6114 26.0164 32.6743C26.0396 32.7352 26.1414 32.9298 26.5382 33.0816L26.6136 33.1104L29.454 34.4683L29.4043 34.5723L31.1617 35.4125L31.2277 35.4504C33.6324 36.8336 35.0439 39.9452 33.1158 42.46C32.404 43.3884 31.3956 43.9981 30.1635 44.3064C29.9324 45.1621 29.1196 45.7942 28.1525 45.7942C27.218 45.7942 26.4277 45.2042 26.1669 44.3925C25.2857 44.2582 24.3568 44.0359 23.3927 43.7286C22.3403 43.3932 21.759 42.2681 22.0944 41.2157C22.4298 40.1633 23.5549 39.5821 24.6073 39.9175C28.5844 41.185 29.8119 40.1952 29.9414 40.0262C29.9917 39.9606 30.0263 39.8784 29.9748 39.7118C29.919 39.5309 29.7375 39.2244 29.2894 38.951L26.6003 37.6654L26.65 37.5614L25.0261 36.785C23.733 36.267 22.7425 35.3176 22.278 34.0972C21.8044 32.8528 21.9397 31.4731 22.6523 30.3222C23.4316 29.0637 24.7175 28.2667 26.3294 27.9527Z" fill="#2D373D"/>
</svg>
