<svg width="32" height="33" viewBox="0 0 32 33" fill="none" xmlns="http://www.w3.org/2000/svg">
<path fill-rule="evenodd" clip-rule="evenodd" d="M22.75 18.3336C23.0758 18.4911 23.3258 18.6119 23.5 18.9603C23.6 19.0603 23.6 19.1603 23.6 19.2603C23.8 20.0603 23.7 20.8603 23.3 21.4603C22.5 23.0603 21 23.9603 19.2 23.9603H19C16.9 23.8603 14.9 23.0603 13.2 21.8603C11.4 20.6603 10 18.9603 9.00001 16.9603C7.90001 14.7603 8.3 12.0603 10 10.1603C10.5 9.66027 11.1 9.46027 11.7 9.46027C12.5 9.36027 13.3 9.76027 13.7 10.4603L13.8 10.5603L14.1 11.1603V11.2603C14.3 11.8603 14.5 12.3603 14.8 12.8603C15.1 13.3603 15.1 13.8603 14.8 14.3603C14.7 14.5603 14.5 14.8603 14.3 14.9603L14.2 15.0603C15.1 16.4603 16.4 17.4603 17.9 18.1603C17.95 18.0603 18.025 17.9603 18.1 17.8603C18.175 17.7603 18.25 17.6603 18.3 17.5603C18.5 17.1603 19 16.8603 19.5 16.8603H19.6C19.8 16.8603 20.1 16.9603 20.3 17.0603C20.4 17.0603 20.8 17.2603 22.3 18.0603L22.6 18.2603C22.6517 18.2861 22.7017 18.3103 22.75 18.3336ZM21.7 20.3603C21.7 20.3603 21.7 20.2603 21.8 20.2603C21.9 20.1603 21.9 20.0603 21.9 19.9603L21.5 19.7603C20.6 19.2603 20.1 19.0603 19.8 18.9603C19.7 19.1103 19.6 19.2353 19.5 19.3603C19.4 19.4853 19.3 19.6103 19.2 19.7603C19 20.0603 18.6 20.2603 18.1 20.2603C17.8 20.2603 17.5 20.1603 17.3 20.0603C15.2 19.1603 13.5 17.6603 12.3 15.7603C11.9 15.3603 12.1 14.4603 12.6 13.9603L12.9 13.6603L12.3 12.1603V12.0603C12.2 11.8603 12.1 11.6603 12.1 11.5603C12 11.5603 11.9 11.4603 11.9 11.4603H11.7C11.6 11.4603 11.5 11.4603 11.4 11.5603C10.3 12.7603 10 14.5603 10.8 15.9603C11.6 17.6603 12.8 19.0603 14.3 20.0603C15.7 21.1603 17.3 21.7603 19.1 21.8603C20.2 21.8603 21.2 21.3603 21.7 20.3603Z" fill="#2D373D"/>
<path fill-rule="evenodd" clip-rule="evenodd" d="M6.60007 7.06016C9.00007 4.56016 12.5001 3.16016 16.1001 3.16016C23.4001 3.16016 29.4001 9.06016 29.5001 16.3602C29.5001 21.3602 26.8001 25.9602 22.4001 28.2602C20.4001 29.2602 18.2001 29.8602 16.0001 29.8602C13.5001 29.8602 11.1001 29.1602 9.00007 27.9602L4.70007 29.3602C4.30007 29.4602 3.90007 29.3602 3.70007 29.0602C3.40007 28.7602 3.30007 28.3602 3.50007 28.0602L4.90007 23.9602C1.30007 18.6602 2.00007 11.4602 6.60007 7.06016ZM16.0001 27.8602C17.9001 27.8602 19.7001 27.3602 21.4001 26.5602C25.2001 24.5602 27.5001 20.7602 27.5001 16.4602C27.4001 10.1602 22.3001 5.16016 16.2001 5.16016H16.1001C13.0001 5.16016 10.1001 6.36016 8.00007 8.46016C4.00007 12.3602 3.50007 18.6602 6.80007 23.1602C7.00007 23.4602 7.00007 23.7602 6.90007 24.0602L6.00007 26.7602L8.90007 25.8602C9.00007 25.7602 9.10007 25.7602 9.20007 25.7602C9.40007 25.7602 9.60007 25.8602 9.70007 25.9602C11.6001 27.1602 13.7001 27.8602 16.0001 27.8602Z" fill="#2D373D"/>
</svg>
