<svg width="32" height="32" viewBox="0 0 32 32" fill="none" xmlns="http://www.w3.org/2000/svg">
<path d="M6.53497 19.8678C5.77015 19.8678 5.02251 19.641 4.38658 19.2161C3.75066 18.7912 3.25501 18.1872 2.96233 17.4806C2.66964 16.774 2.59306 15.9965 2.74227 15.2464C2.89148 14.4963 3.25978 13.8072 3.80059 13.2664C4.3414 12.7256 5.03043 12.3573 5.78056 12.2081C6.53068 12.0589 7.30821 12.1355 8.01481 12.4281C8.72141 12.7208 9.32535 13.2165 9.75026 13.8524C10.1752 14.4883 10.402 15.236 10.402 16.0008C10.4014 17.0262 9.99386 18.0095 9.26877 18.7346C8.54368 19.4597 7.5604 19.8673 6.53497 19.8678ZM6.53497 14.1348C6.28622 14.129 6.03883 14.1731 5.80734 14.2643C5.57585 14.3555 5.36492 14.492 5.18696 14.6659C5.009 14.8398 4.86759 15.0475 4.77104 15.2769C4.6745 15.5062 4.62476 15.7525 4.62476 16.0013C4.62476 16.2501 4.6745 16.4964 4.77104 16.7257C4.86759 16.955 5.009 17.1628 5.18696 17.3366C5.36492 17.5105 5.57585 17.6471 5.80734 17.7383C6.03883 17.8295 6.28622 17.8736 6.53497 17.8678C6.78372 17.8736 7.03111 17.8295 7.2626 17.7383C7.49409 17.6471 7.70502 17.5105 7.88298 17.3366C8.06094 17.1628 8.20235 16.955 8.2989 16.7257C8.39544 16.4964 8.44518 16.2501 8.44518 16.0013C8.44518 15.7525 8.39544 15.5062 8.2989 15.2769C8.20235 15.0475 8.06094 14.8398 7.88298 14.6659C7.70502 14.492 7.49409 14.3555 7.2626 14.2643C7.03111 14.1731 6.78372 14.129 6.53497 14.1348Z" fill="#2D373D"/>
<path d="M25.4681 19.8678C24.7033 19.8678 23.9556 19.641 23.3197 19.2161C22.6838 18.7912 22.1881 18.1872 21.8954 17.4806C21.6027 16.774 21.5262 15.9965 21.6754 15.2464C21.8246 14.4963 22.1929 13.8072 22.7337 13.2664C23.2745 12.7256 23.9635 12.3573 24.7137 12.2081C25.4638 12.0589 26.2413 12.1355 26.9479 12.4281C27.6545 12.7208 28.2585 13.2165 28.6834 13.8524C29.1083 14.4883 29.3351 15.236 29.3351 16.0008C29.3345 17.0262 28.927 18.0095 28.2019 18.7346C27.4768 19.4597 26.4935 19.8673 25.4681 19.8678ZM25.4681 14.1348C25.0988 14.1348 24.7379 14.2443 24.4308 14.4494C24.1238 14.6546 23.8845 14.9462 23.7432 15.2873C23.6019 15.6285 23.5649 16.0039 23.6369 16.366C23.709 16.7282 23.8868 17.0609 24.1479 17.322C24.409 17.5831 24.7417 17.7609 25.1038 17.8329C25.466 17.905 25.8414 17.868 26.1825 17.7267C26.5237 17.5854 26.8153 17.3461 27.0204 17.039C27.2256 16.732 27.3351 16.371 27.3351 16.0018C27.3411 15.755 27.2969 15.5095 27.2053 15.2802C27.1136 15.051 26.9763 14.8428 26.8017 14.6682C26.6271 14.4936 26.4189 14.3563 26.1896 14.2646C25.9604 14.1729 25.7149 14.1288 25.4681 14.1348Z" fill="#2D373D"/>
<path d="M16.002 19.8678C15.2372 19.8678 14.4895 19.641 13.8536 19.2161C13.2177 18.7912 12.7221 18.1872 12.4294 17.4806C12.1367 16.774 12.0601 15.9965 12.2093 15.2464C12.3585 14.4963 12.7268 13.8072 13.2676 13.2664C13.8084 12.7256 14.4975 12.3573 15.2476 12.2081C15.9977 12.0589 16.7752 12.1355 17.4818 12.4281C18.1884 12.7208 18.7924 13.2165 19.2173 13.8524C19.6422 14.4883 19.869 15.236 19.869 16.0008C19.8685 17.0262 19.4609 18.0095 18.7358 18.7346C18.0107 19.4597 17.0274 19.8673 16.002 19.8678ZM16.002 14.1348C15.6328 14.1348 15.2718 14.2443 14.9648 14.4494C14.6577 14.6546 14.4184 14.9462 14.2771 15.2873C14.1358 15.6285 14.0988 16.0039 14.1709 16.366C14.2429 16.7282 14.4207 17.0609 14.6818 17.322C14.9429 17.5831 15.2756 17.7609 15.6378 17.8329C15.9999 17.905 16.3753 17.868 16.7165 17.7267C17.0576 17.5854 17.3492 17.3461 17.5544 17.039C17.7595 16.732 17.869 16.371 17.869 16.0018C17.875 15.755 17.8309 15.5095 17.7392 15.2802C17.6475 15.051 17.5102 14.8428 17.3356 14.6682C17.161 14.4936 16.9528 14.3563 16.7236 14.2646C16.4943 14.1729 16.2488 14.1288 16.002 14.1348Z" fill="#2D373D"/>
</svg>
