<svg width="32" height="33" viewBox="0 0 32 33" fill="none" xmlns="http://www.w3.org/2000/svg">
<path d="M11.6999 12.4242C12.0999 12.2242 12.4999 11.9242 12.8999 11.6242C13.5999 10.8242 13.9999 9.82422 13.9999 8.82422C13.9999 7.72422 13.5999 6.72422 12.8999 6.02422C12.0999 5.22422 11.1999 4.82422 10.0999 4.82422C7.8999 4.82422 6.0999 6.62422 6.0999 8.72422C6.0999 10.3242 7.0999 11.7242 8.4999 12.3242C5.8999 13.0242 3.8999 15.4242 3.8999 18.3242V20.5242C3.8999 21.1242 4.2999 21.5242 4.8999 21.5242H6.1999L6.7999 28.0242C6.8999 28.5242 7.2999 28.9242 7.7999 28.9242H12.2999C12.7999 28.9242 13.1999 28.5242 13.2999 28.0242L13.8999 21.5242H15.2999C15.8999 21.5242 16.2999 21.1242 16.2999 20.5242V18.3242C16.2999 15.5242 14.3999 13.1242 11.6999 12.4242ZM10.0999 6.82422C10.5999 6.82422 10.9999 7.02422 11.3999 7.42422C11.7999 7.82422 11.9999 8.32422 11.9999 8.82422C11.9999 9.32422 11.7999 9.82422 11.4999 10.1242C11.0999 10.5242 10.5999 10.7242 10.0999 10.7242C8.9999 10.7242 8.0999 9.82422 8.0999 8.72422C8.1999 7.72422 9.0999 6.82422 10.0999 6.82422ZM14.1999 19.5242H12.9999C12.4999 19.5242 12.0999 19.9242 11.9999 20.4242L11.3999 26.9242H8.7999L8.0999 20.4242C7.9999 19.9242 7.5999 19.5242 7.0999 19.5242H5.8999V18.3242C5.8999 16.3242 7.1999 14.6242 9.0999 14.2242V17.8242C9.0999 18.4242 9.4999 18.8242 10.0999 18.8242C10.5999 18.8242 11.0999 18.4242 11.0999 17.8242V14.3242C12.8999 14.8242 14.1999 16.4242 14.1999 18.3242V19.5242Z" fill="#2D373D"/>
<path d="M23.6002 12.3242C24.0002 12.1242 24.4002 11.9242 24.7002 11.6242C25.5002 10.8242 25.9002 9.92422 25.9002 8.82422C25.9002 7.72422 25.4002 6.72422 24.7002 6.02422C23.9002 5.22422 23.0002 4.82422 21.9002 4.82422C19.7002 4.82422 17.9002 6.62422 17.9002 8.72422C17.9002 9.82422 18.3002 10.7242 19.1002 11.5242C19.4002 11.8242 19.7002 12.0242 20.1002 12.2242C18.6002 12.6242 17.2002 13.6242 16.4002 15.0242C16.1002 15.5242 16.2002 16.1242 16.7002 16.4242C17.2002 16.7242 17.8002 16.6242 18.1002 16.1242C18.8002 15.1242 19.7002 14.4242 20.9002 14.2242V17.8242C20.9002 18.4242 21.3002 18.8242 21.9002 18.8242C22.4002 18.8242 22.9002 18.4242 22.9002 17.8242V14.3242C24.6002 14.8242 25.9002 16.4242 25.9002 18.3242V19.5242H24.7002C24.2002 19.5242 23.8002 19.9242 23.7002 20.4242L23.1002 26.9242H20.5002L19.9002 20.4242C19.8002 19.9242 19.4002 19.5242 18.9002 19.5242H17.5002C16.9002 19.5242 16.5002 19.9242 16.5002 20.5242C16.5002 21.1242 16.9002 21.5242 17.5002 21.5242H18.1002L18.7002 28.0242C18.8002 28.5242 19.2002 28.9242 19.7002 28.9242H24.1002C24.6002 28.9242 25.0002 28.5242 25.0002 27.9242L25.6002 21.4242H26.9002C27.5002 21.4242 27.9002 21.0242 27.9002 20.4242V18.2242C27.9002 15.5242 26.1002 13.1242 23.6002 12.3242ZM21.9002 6.82422C22.4002 6.82422 22.8002 7.02422 23.2002 7.42422C23.6002 7.82422 23.8002 8.32422 23.8002 8.82422C23.8002 9.32422 23.6002 9.82422 23.3002 10.1242C22.9002 10.5242 22.4002 10.7242 21.9002 10.7242C21.3002 10.7242 20.9002 10.5242 20.5002 10.1242C20.1002 9.72422 19.9002 9.22422 19.9002 8.72422C19.9002 7.72422 20.8002 6.82422 21.9002 6.82422Z" fill="#2D373D"/>
</svg>
