<svg width="64" height="64" viewBox="0 0 64 64" fill="none" xmlns="http://www.w3.org/2000/svg">
<path d="M57.0002 45.2002H7.2002C6.0002 45.2002 5.2002 46.0002 5.2002 47.2002C5.2002 48.4002 6.0002 49.2002 7.2002 49.2002H57.0002C58.0002 49.2002 59.0002 48.4002 59.0002 47.2002C59.0002 46.0002 58.2002 45.2002 57.0002 45.2002Z" fill="#2D373D"/>
<path d="M57.0002 30H7.2002C6.0002 30 5.2002 30.8 5.2002 32C5.2002 33.2 6.0002 34 7.2002 34H57.0002C58.0002 34 59.0002 33.2 59.0002 32C59.0002 30.8 58.2002 30 57.0002 30Z" fill="#2D373D"/>
<path d="M7.2002 18.6001H57.0002C58.0002 18.6001 59.0002 17.8001 59.0002 16.6001C59.0002 15.4001 58.2002 14.6001 57.0002 14.6001H7.2002C6.0002 14.6001 5.2002 15.4001 5.2002 16.6001C5.2002 17.8001 6.0002 18.6001 7.2002 18.6001Z" fill="#2D373D"/>
</svg>
