<svg width="64" height="65" viewBox="0 0 64 65" fill="none" xmlns="http://www.w3.org/2000/svg">
<path fill-rule="evenodd" clip-rule="evenodd" d="M30.3665 13.231C30.3665 9.37982 33.4903 6.25781 37.3438 6.25781C41.1972 6.25781 44.321 9.37982 44.321 13.231C44.321 17.0822 41.1972 20.2042 37.3438 20.2042C33.4903 20.2042 30.3665 17.0822 30.3665 13.231ZM37.3438 10.2555C35.6995 10.2555 34.3665 11.5877 34.3665 13.231C34.3665 14.8743 35.6995 16.2065 37.3438 16.2065C38.988 16.2065 40.321 14.8743 40.321 13.231C40.321 11.5877 38.988 10.2555 37.3438 10.2555Z" fill="#2D373D"/>
<path fill-rule="evenodd" clip-rule="evenodd" d="M26.4075 42.3737L18.0986 48.8324H21.8265C24.7906 48.8324 27.1934 51.2339 27.1934 54.1962C27.1934 57.1586 24.7906 59.5601 21.8265 59.5601H10.7009C7.73684 59.5601 5.33398 57.1586 5.33398 54.1962C5.33398 51.2339 7.73685 48.8324 10.7009 48.8324H11.5833L24.0889 39.1114C23.971 38.6367 23.9159 38.1446 23.9281 37.6477C23.929 37.6116 23.9308 37.5756 23.9337 37.5396C24.0307 36.3102 24.5801 35.1595 25.4769 34.3116C25.503 34.2869 25.5297 34.263 25.5571 34.2397C25.7908 34.0414 26.3906 33.6285 26.981 33.2264C27.6346 32.7812 28.4529 32.2322 29.2505 31.6999C30.0489 31.167 30.8306 30.6484 31.4123 30.2631L32.1214 29.794L38.1737 22.3643C38.6008 21.8073 39.1344 21.3404 39.7439 20.9912C40.3655 20.635 41.053 20.4088 41.7649 20.3264C41.7905 20.3234 41.8162 20.3209 41.842 20.319C42.8466 20.2419 43.8526 20.445 44.7486 20.9054C45.6445 21.3658 46.3951 22.0652 46.9179 22.9255C46.9512 22.9804 46.9819 23.0368 47.0098 23.0945L53.1154 35.7407C53.1417 35.7952 53.1656 35.8508 53.1868 35.9075C55.2557 41.421 57.0333 47.0399 58.5123 52.741C58.5177 52.7618 58.5227 52.7826 58.5274 52.8036C58.784 53.9425 58.7773 55.4569 58.0075 56.732C57.5822 57.4365 56.9927 58.0279 56.2888 58.4551C56.2718 58.4653 56.2547 58.4754 56.2375 58.4852C54.9866 59.1943 53.5114 59.3962 52.1158 59.0485C50.9431 58.7563 50.0812 58.0503 49.4868 57.4177C48.9917 56.8907 48.6369 56.1132 48.4706 55.7349C48.3652 55.495 48.2779 55.2761 48.2171 55.1179C48.1864 55.0381 48.1619 54.9721 48.1444 54.9245L48.1236 54.8671L48.1174 54.8496L48.1153 54.8438L48.114 54.8401L48.099 54.7959L45.6026 47.1369L45.5214 47.2239V53.444L45.5218 53.592C45.5258 54.6026 45.5332 56.4696 44.1452 57.9439C43.291 58.8803 42.1178 59.4655 40.8541 59.5826C40.7927 59.5883 40.7311 59.5911 40.6694 59.5911C38.8456 59.5911 37.4976 59.0167 36.5714 58.1256C35.7105 57.2975 35.4006 56.363 35.2924 56.0368L35.2861 56.0178C35.1077 55.4812 35.0581 54.8361 35.0378 54.5033C35.0254 54.3004 35.0195 54.1193 35.0167 53.9891C35.0153 53.9234 35.0146 53.8693 35.0143 53.8302L35.0141 53.7829L35.0141 53.7683C35.0141 52.7954 34.9631 51.7067 34.9083 50.5399C34.8644 49.6061 34.8182 48.6209 34.7937 47.6018C34.7682 46.5358 34.7706 45.4687 34.8529 44.568C34.894 44.1183 34.9596 43.6553 35.0716 43.2277C35.1733 42.8393 35.3634 42.2762 35.7747 41.7951C36.3345 41.1402 38.0013 39.5058 39.4185 38.1338C40.0744 37.4989 40.7055 36.8929 41.2021 36.4175L40.7541 35.4107L38.8516 37.7031C38.7307 37.8488 38.5897 37.9766 38.4327 38.0827L31.7879 42.5744C31.7711 42.5858 31.7541 42.5969 31.7369 42.6078C29.9409 43.7437 28.1833 43.3261 27.0895 42.7755C26.8366 42.6481 26.6083 42.5099 26.4075 42.3737ZM9.33398 54.1962C9.33398 53.4417 9.94599 52.8301 10.7009 52.8301H21.8265C22.5814 52.8301 23.1934 53.4417 23.1934 54.1962C23.1934 54.9508 22.5814 55.5624 21.8265 55.5624H10.7009C9.94599 55.5624 9.33398 54.9508 9.33398 54.1962ZM41.7333 24.4594C41.8739 24.3788 42.0279 24.3257 42.1874 24.3024C42.4405 24.29 42.693 24.3443 42.9196 24.4607C43.1356 24.5717 43.3207 24.7354 43.458 24.937L49.4733 37.396C51.4751 42.7396 53.1967 48.1845 54.631 53.7086C54.738 54.2099 54.6453 54.5631 54.5827 54.6668C54.4955 54.8112 54.3768 54.9329 54.2364 55.0232C53.8834 55.2143 53.4724 55.2665 53.0833 55.1695C52.9484 55.1359 52.7327 55.0252 52.4302 54.71C52.4206 54.6956 52.3949 54.6565 52.3547 54.5839C52.2848 54.4578 52.2083 54.2987 52.1331 54.1275C52.0594 53.9599 51.9961 53.8016 51.9511 53.6844C51.9288 53.6265 51.9117 53.5803 51.9006 53.5502L51.8931 53.5294L48.3554 42.6758C48.1361 42.003 47.5773 41.4963 46.8861 41.3433C46.1949 41.1904 45.4742 41.414 44.9913 41.9314L42.059 45.0728C41.7135 45.4429 41.5214 45.9302 41.5214 46.4363V53.444C41.5214 54.0377 41.5149 54.4026 41.4536 54.7137C41.4027 54.9723 41.3288 55.1028 41.229 55.2076L41.193 55.2464C41.026 55.4314 40.8027 55.5524 40.5609 55.5922C39.7132 55.5725 39.4261 55.3231 39.3453 55.2454C39.2168 55.1218 39.1566 54.9796 39.0879 54.7747C39.0877 54.7739 39.0874 54.7725 39.087 54.7705C39.0843 54.7574 39.076 54.7175 39.066 54.6442C39.0508 54.5328 39.0389 54.3991 39.0303 54.2592C39.0219 54.1221 39.0178 53.9956 39.0158 53.9033C39.0148 53.8577 39.0144 53.8218 39.0142 53.7988L39.0141 53.7725V53.7662C39.0141 52.7719 38.9547 51.4605 38.896 50.1643C38.8536 49.2287 38.8116 48.3008 38.7926 47.506C38.7679 46.4778 38.7755 45.5966 38.8363 44.9316C38.8656 44.6109 38.9031 44.3911 38.9373 44.2553C39.4652 43.6774 40.8298 42.3332 42.2015 41.0053C42.9257 40.3042 43.6206 39.6376 44.1346 39.146C44.3915 38.9003 44.6031 38.6986 44.7503 38.5584L44.9796 38.3401C45.593 37.7574 45.7731 36.8519 45.4292 36.079L43.0994 30.8434C42.8183 30.2116 42.2304 29.7699 41.5451 29.6755C40.8597 29.5811 40.1742 29.8473 39.7326 30.3795L35.9552 34.9312L29.5787 39.2415C29.383 39.3595 29.2128 39.3682 28.8891 39.2052C28.713 39.1166 28.5509 38.9985 28.4276 38.8938C28.3689 38.844 28.3262 38.8032 28.3028 38.78L28.2914 38.7685C28.0608 38.5005 27.9314 38.1588 27.9266 37.8036C27.953 37.6014 28.041 37.4134 28.1773 37.2649C28.2186 37.2346 28.3002 37.1752 28.4369 37.0791C28.642 36.9349 28.9139 36.7476 29.2336 36.5299C29.8716 36.0954 30.6776 35.5545 31.4718 35.0245C32.265 34.4952 33.0424 33.9793 33.6218 33.5955L34.5809 32.9614C34.7505 32.8495 34.902 32.7125 35.0302 32.5551L41.2965 24.8627C41.3123 24.8434 41.3277 24.8238 41.3427 24.8039C41.4486 24.6634 41.5816 24.5463 41.7333 24.4594Z" fill="#2D373D"/>
</svg>
