<svg width="24" height="25" viewBox="0 0 24 25" fill="none" xmlns="http://www.w3.org/2000/svg">
<path d="M21.8252 11.41C21.6002 10.885 21.1502 10.435 20.6252 10.21L18.2252 9.08499C18.0752 8.93499 17.9252 8.93499 17.8502 8.85999L5.4752 3.08499C4.8752 2.78499 4.2002 2.78499 3.6002 3.00999C2.9252 3.23499 2.4752 3.68499 2.1752 4.28499C2.0252 4.58499 1.9502 4.95999 1.9502 5.33499V19.585C1.9502 20.26 2.2502 20.86 2.7002 21.31C3.1502 21.835 3.7502 22.06 4.4252 22.06C4.8002 22.06 5.1002 21.91 5.4752 21.76L6.0752 21.46C6.0752 21.46 6.1502 21.46 6.2252 21.46L18.0002 15.91L20.5502 14.71C21.8252 14.11 22.4252 12.61 21.8252 11.41ZM16.2752 9.90999L14.7002 11.41L9.75019 6.83499L16.2752 9.90999ZM4.4252 20.56C4.2002 20.56 3.9002 20.41 3.7502 20.26C3.5252 20.11 3.4502 19.81 3.4502 19.585V5.33499C3.4502 5.18499 3.4502 5.03499 3.5252 4.88499C3.6752 4.65999 3.8252 4.50999 4.0502 4.43499C4.2002 4.35999 4.2752 4.35999 4.4252 4.35999C4.5752 4.35999 4.6502 4.35999 4.8002 4.43499L5.2502 4.65999L13.6502 12.385L5.40019 20.26L4.8002 20.56C4.7252 20.56 4.5752 20.56 4.4252 20.56ZM14.7752 13.435L16.5002 15.01L9.67519 18.235L14.7752 13.435ZM19.9502 13.36L17.9252 14.335L15.8252 12.46L17.7752 10.66L19.9502 11.71C20.1752 11.785 20.3252 11.935 20.4002 12.16C20.6252 12.535 20.4002 13.135 19.9502 13.36Z" fill="#2D373D"/>
</svg>
