<svg width="32" height="32" viewBox="0 0 32 32" fill="none" xmlns="http://www.w3.org/2000/svg">
<path d="M28.5001 16.7H25.2001C25.1001 14.9 23.6001 13.4 21.7001 13.4C19.8001 13.4 18.3001 14.9 18.2001 16.7H15.0001C14.4001 16.7 14.0001 17.1 14.0001 17.7V27.8C14.0001 28.4 14.4001 28.8 15.0001 28.8H28.4001C29.0001 28.8 29.4001 28.3 29.5001 27.8V17.7C29.5001 17.1 29.1001 16.7 28.5001 16.7ZM21.7001 15.4C22.4001 15.4 23.1001 16 23.2001 16.7H20.2001C20.3001 16 21.0001 15.4 21.7001 15.4ZM27.5001 18.7V20.9H22.7001C22.7001 20.4 22.3001 20 21.7001 20C21.1001 20 20.8001 20.4 20.7001 20.9H16.0001V18.7H27.5001ZM16.0001 26.8V22.9H20.7001V23.5C20.7001 24.1 21.1001 24.5 21.7001 24.5C22.2001 24.5 22.7001 24.1 22.7001 23.5V22.9H27.5001V26.8H16.0001Z" fill="#2D373D"/>
<path d="M7.80012 12.6C7.70012 12.5 7.50012 12.5 7.40012 12.5C7.30012 12.5 7.10012 12.5 7.00012 12.6C6.60012 12.7 6.20012 13.1 6.10012 13.5C6.00012 13.6 6.00012 13.8 6.00012 13.9C6.00012 14 6.00012 14.2 6.10012 14.3C6.20012 14.7 6.60012 15.1 7.00012 15.2C7.10012 15.3 7.30012 15.3 7.40012 15.3C8.20012 15.3 8.80012 14.7 8.80012 13.9C8.80012 13.7 8.80012 13.6 8.70012 13.5C8.60012 13.1 8.30012 12.7 7.80012 12.6Z" fill="#2D373D"/>
<path d="M11.2001 16.7H5.3001C5.2001 16.7 5.1001 16.7 5.0001 16.6L4.9001 16.5C4.7001 16.4 4.6001 16.2 4.6001 15.9V13.4C4.6001 12 5.7001 11 7.0001 11H23.8001C24.6001 11 25.4001 11.5 25.8001 12.2C26.1001 12.7 26.7001 12.9 27.2001 12.6C27.7001 12.3 27.9001 11.7 27.6001 11.2C27.1001 10.3 26.3001 9.69998 25.4001 9.29998L23.7001 5.39998C23.2001 3.99998 21.9001 3.09998 20.4001 3.09998H10.4001C8.9001 3.09998 7.6001 3.99998 7.2001 5.29998L5.4001 9.29998C3.8001 9.99998 2.6001 11.5 2.6001 13.4V16C2.6001 16.8 3.0001 17.5 3.5001 18V19.4C3.4001 20.1 3.7001 20.8 4.2001 21.3C4.7001 21.8 5.3001 22.1 6.1001 22.1C7.6001 22.1 8.8001 20.9 8.9001 19.5V18.7H11.2001C11.7001 18.7 12.2001 18.3 12.2001 17.7C12.2001 17.1 11.8001 16.7 11.2001 16.7ZM9.0001 6.19998C9.2001 5.59998 9.8001 5.19998 10.4001 5.19998H20.4001C21.0001 5.19998 21.6001 5.49998 21.8001 6.19998L23.1001 9.09998H7.7001L9.0001 6.19998ZM6.9001 19.4C6.9001 19.8 6.6001 20.1 6.2001 20.1C6.0001 20.1 5.8001 20 5.7001 19.9C5.6001 19.8 5.5001 19.6 5.5001 19.4V18.7H6.9001V19.4Z" fill="#2D373D"/>
</svg>
