<svg width="24" height="24" viewBox="0 0 24 24" fill="none" xmlns="http://www.w3.org/2000/svg">
<path fill-rule="evenodd" clip-rule="evenodd" d="M18.1101 2.97998H5.86009C5.61294 2.97596 5.36749 3.0215 5.13824 3.11393C4.90898 3.20636 4.70058 3.34379 4.52533 3.51811C4.35008 3.69242 4.21154 3.90009 4.11789 4.12885C4.02424 4.35761 3.97739 4.60281 3.98009 4.84998V19.15C3.98269 19.3938 4.03347 19.6347 4.12948 19.8588C4.2255 20.0829 4.36487 20.2858 4.53959 20.4559C4.7143 20.6259 4.9209 20.7598 5.14752 20.8497C5.37414 20.9397 5.61631 20.9839 5.86009 20.98H18.1101C18.353 20.9826 18.5941 20.9374 18.8196 20.8468C19.0451 20.7563 19.2505 20.6222 19.4241 20.4523C19.5978 20.2824 19.7363 20.0799 19.8316 19.8564C19.927 19.633 19.9775 19.3929 19.9801 19.15V4.84998C19.9828 4.60367 19.9362 4.3593 19.8432 4.13121C19.7502 3.90312 19.6125 3.69591 19.4383 3.52172C19.2642 3.34754 19.057 3.2099 18.8289 3.11687C18.6008 3.02384 18.3564 2.9773 18.1101 2.97998ZM5.86009 4.49998H18.1101C18.2039 4.49995 18.2939 4.5365 18.3612 4.60186C18.4284 4.66723 18.4675 4.75625 18.4701 4.84998V7.39998H5.47009V4.84998C5.47128 4.80092 5.48249 4.75262 5.50303 4.70805C5.52357 4.66347 5.55301 4.62357 5.58954 4.59079C5.62606 4.55801 5.6689 4.53305 5.71543 4.51743C5.76196 4.50182 5.81119 4.49588 5.86009 4.49998ZM18.1101 19.5H5.86009C5.76632 19.5 5.67624 19.4635 5.609 19.3981C5.54177 19.3327 5.5027 19.2437 5.50009 19.15V8.89998H18.5001V19.15C18.4989 19.199 18.4877 19.2473 18.4671 19.2919C18.4466 19.3365 18.4172 19.3764 18.3806 19.4092C18.3441 19.4419 18.3013 19.4669 18.2548 19.4825C18.2082 19.4981 18.159 19.5041 18.1101 19.5Z" fill="#2D373D"/>
<path fill-rule="evenodd" clip-rule="evenodd" d="M6.98009 6.69998H9.20009C9.399 6.69998 9.58977 6.62096 9.73042 6.48031C9.87107 6.33966 9.95009 6.14889 9.95009 5.94998C9.95009 5.75107 9.87107 5.5603 9.73042 5.41965C9.58977 5.279 9.399 5.19998 9.20009 5.19998H6.98009C6.78118 5.19998 6.59041 5.279 6.44976 5.41965C6.30911 5.5603 6.23009 5.75107 6.23009 5.94998C6.23009 6.14889 6.30911 6.33966 6.44976 6.48031C6.59041 6.62096 6.78118 6.69998 6.98009 6.69998Z" fill="#2D373D"/>
<path fill-rule="evenodd" clip-rule="evenodd" d="M11.9801 9.59998C11.072 9.60788 10.1866 9.88436 9.43546 10.3946C8.68427 10.9048 8.10091 11.626 7.75887 12.4672C7.41683 13.3084 7.33143 14.232 7.51341 15.1217C7.69539 16.0113 8.13663 16.8272 8.78151 17.4665C9.4264 18.1059 10.2461 18.54 11.1373 18.7143C12.0285 18.8886 12.9513 18.7952 13.7895 18.4459C14.6278 18.0966 15.3438 17.507 15.8475 16.7514C16.3513 15.9958 16.6201 15.1081 16.6201 14.2C16.6175 13.5933 16.4954 12.993 16.2608 12.4335C16.0262 11.874 15.6837 11.3661 15.2528 10.939C14.8219 10.5118 14.3111 10.1737 13.7496 9.94399C13.1881 9.71424 12.5868 9.59735 11.9801 9.59998ZM11.9801 17.3C11.3687 17.2921 10.7734 17.1036 10.2689 16.7582C9.76436 16.4128 9.37325 15.9259 9.14474 15.3588C8.91623 14.7917 8.86052 14.1697 8.98461 13.5711C9.10871 12.9724 9.40706 12.4238 9.84216 11.9942C10.2772 11.5647 10.8296 11.2734 11.4299 11.1569C12.0301 11.0405 12.6513 11.1042 13.2155 11.34C13.7796 11.5757 14.2614 11.9731 14.6003 12.4819C14.9392 12.9908 15.12 13.5886 15.1201 14.2C15.1122 15.0266 14.7775 15.8166 14.1892 16.3974C13.601 16.9782 12.8068 17.3027 11.9801 17.3Z" fill="#2D373D"/>
<path fill-rule="evenodd" clip-rule="evenodd" d="M16.0501 6.89998C16.2385 6.96945 16.4415 6.99009 16.6401 6.95998C16.8377 6.92113 17.0189 6.82354 17.1601 6.67998C17.3091 6.53744 17.4104 6.35232 17.4501 6.14998C17.4816 5.95858 17.4568 5.76214 17.3787 5.58458C17.3006 5.40703 17.1725 5.25603 17.0101 5.14998C16.8417 5.03681 16.6429 4.97752 16.4401 4.97998C16.1749 4.97998 15.9205 5.08534 15.733 5.27288C15.5454 5.46041 15.4401 5.71477 15.4401 5.97998C15.4406 6.18389 15.5034 6.38278 15.6201 6.54998C15.7276 6.70485 15.8766 6.82618 16.0501 6.89998ZM15.9801 5.89998C15.9954 5.80983 16.0371 5.72628 16.1001 5.65998C16.1681 5.59752 16.2506 5.55286 16.3401 5.52998H16.4301C16.4897 5.52061 16.5505 5.52061 16.6101 5.52998H16.6901C16.7425 5.55888 16.7871 5.60006 16.8201 5.64998V5.73998C16.8296 5.7996 16.8296 5.86036 16.8201 5.91998C16.8249 5.94979 16.8249 5.98018 16.8201 6.00998C16.8033 6.10174 16.7578 6.18578 16.6901 6.24998C16.622 6.31245 16.5396 6.35711 16.4501 6.37998H16.3601C16.3005 6.38935 16.2397 6.38935 16.1801 6.37998H16.1001C16.047 6.3434 16.0026 6.29561 15.9701 6.23998C15.9647 6.21359 15.9647 6.18638 15.9701 6.15998C15.9585 6.10007 15.962 6.03824 15.9801 5.97998C15.9714 5.94045 15.9714 5.89951 15.9801 5.85998V5.89998Z" fill="#2D373D"/>
<path fill-rule="evenodd" clip-rule="evenodd" d="M12.7101 6.89998C12.8985 6.96945 13.1015 6.99009 13.3001 6.95998C13.4977 6.92113 13.6789 6.82354 13.8201 6.67998C13.9691 6.53744 14.0704 6.35232 14.1101 6.14998C14.1416 5.95858 14.1168 5.76214 14.0387 5.58458C13.9606 5.40703 13.8325 5.25603 13.6701 5.14998C13.5017 5.03681 13.3029 4.97752 13.1001 4.97998C12.8349 4.97998 12.5805 5.08534 12.393 5.27288C12.2054 5.46041 12.1001 5.71477 12.1001 5.97998C12.1006 6.18389 12.1634 6.38278 12.2801 6.54998C12.3876 6.70485 12.5366 6.82618 12.7101 6.89998Z" fill="#2D373D"/>
<path fill-rule="evenodd" clip-rule="evenodd" d="M11.9801 11.8C11.3399 11.798 10.7251 12.0497 10.2701 12.5C10.0443 12.7216 9.86509 12.9862 9.74315 13.2782C9.62121 13.5701 9.55896 13.8836 9.56009 14.2C9.56009 14.3989 9.63911 14.5897 9.77976 14.7303C9.92041 14.871 10.1112 14.95 10.3101 14.95C10.509 14.95 10.6998 14.871 10.8404 14.7303C10.9811 14.5897 11.0601 14.3989 11.0601 14.2C11.0594 14.083 11.082 13.967 11.1266 13.8588C11.1713 13.7506 11.237 13.6524 11.3201 13.57C11.4961 13.3968 11.7332 13.2998 11.9801 13.3C12.179 13.3 12.3698 13.221 12.5104 13.0803C12.6511 12.9397 12.7301 12.7489 12.7301 12.55C12.7301 12.3511 12.6511 12.1603 12.5104 12.0197C12.3698 11.879 12.179 11.8 11.9801 11.8Z" fill="#2D373D"/>
</svg>
