<svg width="24" height="25" viewBox="0 0 24 25" fill="none" xmlns="http://www.w3.org/2000/svg">
<path d="M11.2498 12.4746C11.3998 12.0996 11.2498 11.6496 10.8748 11.4996C10.5748 11.3496 10.1998 11.2746 9.89981 11.1996C11.3998 10.6746 12.4498 9.24961 12.4498 7.67461C12.4498 5.57461 10.7248 3.84961 8.62481 3.84961C6.59981 3.84961 4.87481 5.57461 4.79981 7.59961C4.79981 9.24961 5.84981 10.6746 7.34981 11.1996C4.79981 11.7996 2.9248 14.0496 2.9248 16.7496C2.9248 17.1996 3.2248 17.4996 3.6748 17.4996C4.1248 17.4996 4.4248 17.1996 4.4998 16.6746C4.4998 14.3496 6.37481 12.4746 8.69981 12.4746C9.29981 12.4746 9.82481 12.6246 10.3498 12.8496C10.7248 13.0746 11.1748 12.8496 11.2498 12.4746ZM6.37481 7.67461C6.37481 6.39961 7.42481 5.34961 8.62481 5.34961C9.89981 5.34961 10.9498 6.32461 10.9498 7.59961C10.9498 8.87461 9.82481 9.92461 8.62481 9.92461C7.42481 9.92461 6.37481 8.94961 6.37481 7.67461Z" fill="#2D373D"/>
<path d="M15.825 11.5746C12.975 11.5746 10.65 13.8996 10.65 16.7496C10.65 19.5996 12.975 21.9246 15.825 21.9246C18.675 21.9246 21 19.5996 21 16.7496C21 13.8996 18.675 11.5746 15.825 11.5746ZM15.825 20.4246C13.8 20.4246 12.15 18.7746 12.15 16.7496C12.15 14.7246 13.8 13.0746 15.825 13.0746C17.85 13.0746 19.5 14.7246 19.5 16.7496C19.5 18.7746 17.85 20.4246 15.825 20.4246Z" fill="#2D373D"/>
<path d="M15.8246 15.9996C15.3746 15.9996 15.0746 16.2996 15.0746 16.7496V18.9996C15.0746 19.4496 15.3746 19.7496 15.8246 19.7496C16.2746 19.7496 16.5746 19.3746 16.5746 18.9996V16.7496C16.5746 16.2996 16.2746 15.9996 15.8246 15.9996Z" fill="#2D373D"/>
<path d="M16.4246 14.2747C16.3496 14.2747 16.3496 14.2747 16.2746 14.1997C16.1996 14.1247 16.1996 14.1247 16.1246 14.1247C16.0496 14.0497 16.0496 14.0497 15.9746 14.0497C15.7496 14.0497 15.4496 14.1247 15.2996 14.2747C15.2246 14.3497 15.1496 14.4247 15.1496 14.4997C15.0746 14.5747 15.0746 14.7247 15.0746 14.7997C15.0746 15.0247 15.1496 15.1747 15.2996 15.3247C15.4496 15.4747 15.5996 15.5497 15.8246 15.5497C16.0496 15.5497 16.1996 15.4747 16.4246 15.3247C16.5746 15.1747 16.6496 15.0247 16.6496 14.7997C16.6496 14.6497 16.5746 14.5747 16.5746 14.4997C16.5746 14.4247 16.4996 14.3497 16.4246 14.2747Z" fill="#2D373D"/>
</svg>
