<svg width="64" height="65" viewBox="0 0 64 65" fill="none" xmlns="http://www.w3.org/2000/svg">
<path d="M23.1578 6.25H29.8644C29.5445 12.4957 29.2252 18.7415 28.9062 24.9873H19.1862L23.1578 6.25Z" fill="#2D373D"/>
<path d="M44.8143 24.9873C43.4904 18.7415 42.1663 12.4957 40.8415 6.25H34.1348L35.0939 24.9873H44.8143Z" fill="#2D373D"/>
<path d="M35.6041 34.9583C36.0247 43.1666 36.4447 51.3747 36.8647 59.583H52.1478C50.5838 52.2068 49.0206 44.8306 47.4573 37.4543L46.9283 34.9583H35.6041Z" fill="#2D373D"/>
<path d="M11.8514 59.583H27.1346C27.5561 51.3748 27.9761 43.1666 28.3957 34.9583H17.0727C15.3329 43.1666 13.5927 51.375 11.8514 59.583Z" fill="#2D373D"/>
<path d="M58.0474 27.5781C58.3892 27.5781 58.6665 27.8678 58.6663 28.2252V31.7237C58.6663 32.0811 58.3892 32.3709 58.0473 32.3709H54.6974V37.611C54.6974 37.9684 54.4206 38.2583 54.0784 38.2583H50.7361C50.453 38.2583 50.2057 38.0575 50.1362 37.7706L48.8234 32.3711H15.1759L13.8629 37.7706C13.7934 38.0572 13.5464 38.2583 13.2633 38.2583H9.92046C9.57864 38.2583 9.30167 37.9684 9.30167 37.611V32.3709H5.95193C5.6101 32.3709 5.33301 32.0811 5.33301 31.7237V28.2252C5.33301 27.8678 5.6101 27.5781 5.95193 27.5781H58.0474Z" fill="#2D373D"/>
</svg>
