<svg width="64" height="64" viewBox="0 0 64 64" fill="none" xmlns="http://www.w3.org/2000/svg">
<path d="M54.4 21.35C54.2 21.15 54 21.15 53.8 21.15L31.8 12.15C31.4 11.95 30.8 11.95 30.4 12.15L21 15.95C20.8 15.95 20.6 16.15 20.4 16.15L8.4 20.95C8.2 20.95 8 21.15 7.8 21.15C7.4 21.55 7 22.15 7 22.75V49.35C7 50.15 7.4 50.95 8.2 51.15L30.4 59.95C30.6 60.15 31 60.15 31.2 60.15C31.6 60.15 32 60.15 32.2 59.75L54 51.15C54.8 50.95 55.2 50.15 55.2 49.35V22.75C55.2 22.55 55.2 22.55 55.2 22.35C55 21.95 54.8 21.55 54.4 21.35ZM31.2 16.15L48 22.75L43.6 24.55L26.8 17.95L31.2 16.15ZM29.2 55.35L11 48.15V25.95L21.4 29.95L29.2 33.15V55.35ZM31.2 29.35L14.4 22.75L21.2 20.15L37.8 26.75L31.2 29.35ZM51.4 47.95L33.2 55.15V33.15L36.6 31.75L51.4 25.95V47.95Z" fill="#2D373D"/>
</svg>
