<svg width="32" height="32" viewBox="0 0 32 32" fill="none" xmlns="http://www.w3.org/2000/svg">
<path d="M7.40012 15.8C7.10012 15.8 6.80012 15.9 6.60012 16.1C6.30012 16.3 6.10012 16.5 6.10012 16.8C6.00012 17 6.00012 17.1 6.00012 17.3C6.00012 17.5 6.00012 17.6001 6.10012 17.7001C6.20012 18.1001 6.60012 18.5001 7.00012 18.6C7.10012 18.7001 7.30012 18.7001 7.40012 18.7001C8.20012 18.7001 8.80012 18 8.80012 17.3C8.80012 17.3 8.80012 17.3001 8.80012 17.2001C8.80012 16.4001 8.20012 15.8 7.40012 15.8Z" fill="#2D373D"/>
<path d="M9.9001 20.0001H5.3001C4.9001 20.0001 4.6001 19.7001 4.6001 19.3001V16.8001C4.6001 15.7001 5.4001 14.8001 6.4001 14.5001H6.5001C6.7001 14.5001 6.8001 14.4001 7.0001 14.4001H23.9001C24.7001 14.4001 25.5001 14.9001 25.9001 15.6001C26.2001 16.2001 26.3001 16.8001 26.3001 17.4001C26.3001 17.9001 26.7001 18.4001 27.3001 18.4001C27.8001 18.4001 28.3001 18.0001 28.3001 17.4001C28.3001 16.4001 28.1001 15.5001 27.6001 14.6001C27.1001 13.7001 26.3001 13.0001 25.4001 12.7001L23.7001 8.9001C23.2001 7.5001 21.9001 6.6001 20.4001 6.6001H10.4001C8.9001 6.6001 7.6001 7.5001 7.2001 8.8001L5.4001 12.7001C3.8001 13.3001 2.6001 14.9001 2.6001 16.8001V19.3001C2.6001 20.1001 3.0001 20.8001 3.5001 21.3001V22.7001C3.4001 23.4001 3.7001 24.1001 4.2001 24.6001C4.7001 25.1001 5.3001 25.4001 6.1001 25.4001C6.8001 25.4001 7.5001 25.2001 8.1001 24.7001C8.6001 24.2001 8.9001 23.5001 8.9001 22.8001V22.0001H9.9001C10.5001 22.0001 10.9001 21.6001 10.9001 21.0001C10.9001 20.4001 10.5001 20.0001 9.9001 20.0001ZM9.0001 9.6001C9.2001 9.0001 9.8001 8.6001 10.4001 8.6001H20.4001C21.0001 8.6001 21.6001 9.0001 21.8001 9.6001L23.1001 12.4001H7.7001L9.0001 9.6001ZM6.9001 22.7001C6.9001 22.9001 6.8001 23.1001 6.7001 23.2001C6.6001 23.3001 6.4001 23.4001 6.2001 23.4001C6.0001 23.4001 5.8001 23.3001 5.7001 23.2001C5.6001 23.1001 5.5001 22.9001 5.5001 22.7001V22.0001H6.9001V22.7001Z" fill="#2D373D"/>
<path d="M28.4001 20.0001H21.0001C20.6001 18.1001 18.9001 16.7001 16.8001 16.7001C14.4001 16.7001 12.5001 18.6001 12.5001 21.0001C12.5001 23.4001 14.4001 25.3001 16.8001 25.3001C18.9001 25.3001 20.5001 23.9001 21.0001 22.0001H24.1001V22.7001C24.1001 23.3001 24.5001 23.7001 25.1001 23.7001C25.6001 23.7001 26.1001 23.2001 26.1001 22.7001V22.0001H27.4001V23.5001C27.4001 24.1001 27.8001 24.5001 28.4001 24.5001C28.9001 24.5001 29.4001 24.0001 29.4001 23.5001V21.0001C29.4001 20.4001 29.0001 20.0001 28.4001 20.0001ZM16.8001 23.3001C15.5001 23.3001 14.5001 22.3001 14.5001 21.0001C14.5001 19.7001 15.5001 18.7001 16.8001 18.7001C18.1001 18.7001 19.1001 19.7001 19.1001 21.0001C19.1001 22.3001 18.1001 23.3001 16.8001 23.3001Z" fill="#2D373D"/>
</svg>
