<svg width="24" height="25" viewBox="0 0 24 25" fill="none" xmlns="http://www.w3.org/2000/svg">
<path d="M7.64625 6.53849C7.64625 6.04886 7.79853 5.38871 8.16381 4.87256C8.50554 4.38968 9.04266 4.01172 9.92726 4.01172C10.7963 4.01172 11.3618 4.41009 11.7352 4.92874C12.1303 5.47743 12.2902 6.14167 12.2902 6.53849C12.2902 6.9527 12.626 7.28849 13.0402 7.28849H15.9074C15.9921 7.28849 16.136 7.32009 16.2371 7.39289C16.2801 7.42386 16.312 7.45948 16.3352 7.50441C16.3581 7.54874 16.3862 7.62859 16.3862 7.76727V9.81525C16.3862 10.2295 16.7219 10.5653 17.1362 10.5653C17.5504 10.5653 17.8862 10.2295 17.8862 9.81525V7.76727C17.8862 7.03132 17.5627 6.49896 17.1136 6.17559C16.7027 5.87976 16.2322 5.78849 15.9074 5.78849H13.7083C13.5926 5.22752 13.3497 4.60396 12.9525 4.05228C12.3429 3.20561 11.352 2.51172 9.92726 2.51172C8.51813 2.51172 7.53975 3.15774 6.9394 4.00606C6.54269 4.56662 6.31649 5.20439 6.21391 5.78849H4.02908C3.29313 5.78849 2.76077 6.11193 2.4374 6.56105C2.14157 6.97193 2.05029 7.44246 2.05029 7.76727V20.4647C2.05029 21.2007 2.37374 21.7331 2.82286 22.0564C3.23374 22.3523 3.70427 22.4435 4.02908 22.4435H10.5005C10.9147 22.4435 11.2505 22.1077 11.2505 21.6935C11.2505 21.2793 10.9147 20.9435 10.5005 20.9435H4.02908C3.9443 20.9435 3.80043 20.9119 3.69932 20.8391C3.65631 20.8082 3.62441 20.7725 3.60123 20.7276C3.57836 20.6833 3.55029 20.6034 3.55029 20.4647V7.76727C3.55029 7.68249 3.5819 7.53863 3.6547 7.43751C3.68566 7.39451 3.72128 7.3626 3.76621 7.33942C3.81055 7.31655 3.8904 7.28849 4.02908 7.28849H6.89625C7.31047 7.28849 7.64625 6.9527 7.64625 6.53849Z" fill="#2D373D"/>
<path d="M10.0091 6.94808C10.4616 6.94808 10.8283 6.58131 10.8283 6.12888C10.8283 5.67646 10.4616 5.30969 10.0091 5.30969C9.55671 5.30969 9.18994 5.67646 9.18994 6.12888C9.18994 6.58131 9.55671 6.94808 10.0091 6.94808Z" fill="#2D373D"/>
<path d="M6.07666 10.7036C5.66245 10.7036 5.32666 11.0394 5.32666 11.4536C5.32666 11.8678 5.66245 12.2036 6.07666 12.2036H10.5822C10.9964 12.2036 11.3322 11.8678 11.3322 11.4536C11.3322 11.0394 10.9964 10.7036 10.5822 10.7036H6.07666Z" fill="#2D373D"/>
<path d="M5.32666 14.3208C5.32666 13.9066 5.66245 13.5708 6.07666 13.5708H8.53424C8.94845 13.5708 9.28424 13.9066 9.28424 14.3208C9.28424 14.735 8.94845 15.0708 8.53424 15.0708H6.07666C5.66245 15.0708 5.32666 14.735 5.32666 14.3208Z" fill="#2D373D"/>
<path d="M6.07666 16.8476C5.66245 16.8476 5.32666 17.1834 5.32666 17.5976C5.32666 18.0118 5.66245 18.3476 6.07666 18.3476H8.53424C8.94845 18.3476 9.28424 18.0118 9.28424 17.5976C9.28424 17.1834 8.94845 16.8476 8.53424 16.8476H6.07666Z" fill="#2D373D"/>
<path d="M19.3326 15.6383C19.6078 15.3287 19.5799 14.8547 19.2704 14.5795C18.9608 14.3043 18.4867 14.3322 18.2115 14.6418L15.4632 17.7336L14.3873 16.6577C14.0944 16.3648 13.6195 16.3648 13.3266 16.6577C13.0337 16.9506 13.0337 17.4254 13.3266 17.7183L14.965 19.3567C15.111 19.5028 15.3109 19.5821 15.5173 19.5761C15.7238 19.57 15.9186 19.479 16.0559 19.3247L19.3326 15.6383Z" fill="#2D373D"/>
<path fill-rule="evenodd" clip-rule="evenodd" d="M10.6499 16.7784C10.6499 13.6496 13.1863 11.1132 16.3151 11.1132C19.4438 11.1132 21.9802 13.6496 21.9802 16.7784C21.9802 19.9071 19.4438 22.4435 16.3151 22.4435C13.1863 22.4435 10.6499 19.9071 10.6499 16.7784ZM16.3151 12.6132C14.0147 12.6132 12.1499 14.478 12.1499 16.7784C12.1499 19.0787 14.0147 20.9435 16.3151 20.9435C18.6154 20.9435 20.4802 19.0787 20.4802 16.7784C20.4802 14.478 18.6154 12.6132 16.3151 12.6132Z" fill="#2D373D"/>
</svg>
