<svg width="64" height="65" viewBox="0 0 64 65" fill="none" xmlns="http://www.w3.org/2000/svg">
<path d="M46.6668 16.9206C45.5623 16.9206 44.6668 16.0251 44.6668 14.9206L44.6668 10.2539L40.0002 10.2539C38.8956 10.2539 38.0002 9.35847 38.0002 8.25391C38.0002 7.14934 38.8956 6.25391 40.0002 6.25391H46.6668C47.7714 6.25391 48.6668 7.14934 48.6668 8.2539L48.6668 14.9206C48.6668 16.0251 47.7714 16.9206 46.6668 16.9206Z" fill="#2D373D"/>
<path d="M28.405 11.4712C28.4669 11.4293 28.5189 11.4191 28.5659 11.421C28.6166 11.423 28.6945 11.4415 28.7852 11.5096L48.8002 26.5208C49.6838 27.1835 50.9374 27.0044 51.6002 26.1208C52.2629 25.2371 52.0838 23.9835 51.2002 23.3208L31.1852 8.30956C29.7359 7.2226 27.7489 7.08612 26.1643 8.15769C22.2076 10.8334 10.9667 18.8452 5.97695 23.4512C5.1653 24.2004 5.11469 25.4657 5.8639 26.2773C6.61311 27.089 7.87842 27.1396 8.69007 26.3904C13.4329 22.0123 24.4434 14.1502 28.405 11.4712Z" fill="#2D373D"/>
<path d="M15.3335 27.5872C15.3335 26.4827 14.4381 25.5872 13.3335 25.5872C12.2289 25.5872 11.3335 26.4827 11.3335 27.5872V46.2539C11.3335 48.8312 13.4228 50.9206 16.0002 50.9206H24.0002C25.1047 50.9206 26.0002 50.0251 26.0002 48.9206C26.0002 47.816 25.1047 46.9206 24.0002 46.9206H16.0002C15.632 46.9206 15.3335 46.6221 15.3335 46.2539V27.5872Z" fill="#2D373D"/>
<path d="M42.6668 34.9206C43.7714 34.9206 44.6668 35.816 44.6668 36.9206V41.5872H49.3335C50.4381 41.5872 51.3335 42.4827 51.3335 43.5872C51.3335 44.6918 50.4381 45.5872 49.3335 45.5872H44.6668V50.2539C44.6668 51.3585 43.7714 52.2539 42.6668 52.2539C41.5623 52.2539 40.6668 51.3585 40.6668 50.2539V45.5872H36.0002C34.8956 45.5872 34.0002 44.6918 34.0002 43.5872C34.0002 42.4827 34.8956 41.5872 36.0002 41.5872H40.6668V36.9206C40.6668 35.816 41.5623 34.9206 42.6668 34.9206Z" fill="#2D373D"/>
<path fill-rule="evenodd" clip-rule="evenodd" d="M58.6668 43.5872C58.6668 52.4238 51.5034 59.5872 42.6668 59.5872C33.8303 59.5872 26.6668 52.4238 26.6668 43.5872C26.6668 34.7507 33.8303 27.5872 42.6668 27.5872C51.5034 27.5872 58.6668 34.7507 58.6668 43.5872ZM54.6668 43.5872C54.6668 50.2147 49.2942 55.5872 42.6668 55.5872C36.0394 55.5872 30.6668 50.2147 30.6668 43.5872C30.6668 36.9598 36.0394 31.5872 42.6668 31.5872C49.2942 31.5872 54.6668 36.9598 54.6668 43.5872Z" fill="#2D373D"/>
</svg>
