<svg width="16" height="17" viewBox="0 0 16 17" fill="none" xmlns="http://www.w3.org/2000/svg">
<path fill-rule="evenodd" clip-rule="evenodd" d="M11.1274 2.93752H3.06753C2.93084 2.93664 2.79529 2.96251 2.66853 3.01369C2.54096 3.0652 2.42479 3.14133 2.32665 3.23774C2.2285 3.33414 2.15031 3.44894 2.09653 3.57557C2.04275 3.70219 2.01443 3.83817 2.0132 3.97574L2.01318 10.5899L2.01322 10.5943C2.01568 10.8719 2.12764 11.1372 2.32475 11.3325C2.52185 11.5279 2.78815 11.6375 3.06567 11.6375H6.17986C6.456 11.6375 6.67986 11.4136 6.67986 11.1375C6.67986 10.8613 6.456 10.6375 6.17986 10.6375H3.06563C3.0518 10.6375 3.03853 10.632 3.02871 10.6223C3.01913 10.6128 3.01359 10.6 3.0132 10.5865V6.25944H11.2498C11.337 6.40598 11.497 6.50417 11.6799 6.50417C11.956 6.50417 12.1799 6.28032 12.1799 6.00417L12.1799 5.76723L12.1799 5.75944L12.1799 5.75166L12.1799 3.98507L12.1798 3.98065C12.1774 3.70314 12.0654 3.43784 11.8683 3.24247C11.6712 3.04712 11.4049 2.93752 11.1274 2.93752ZM11.1799 5.25944H3.0132V3.98362C3.01338 3.97772 3.01466 3.9719 3.01697 3.96646C3.01941 3.96072 3.02296 3.95551 3.02741 3.95113C3.03187 3.94675 3.03714 3.9433 3.04293 3.94096C3.04872 3.93862 3.05492 3.93747 3.06116 3.93752H11.1274C11.1413 3.93752 11.1545 3.94298 11.1643 3.95272C11.1739 3.96221 11.1795 3.97502 11.1799 3.98847V5.25944Z" fill="#2D373D"/>
<path d="M11.0799 10.0373C11.0799 9.76113 10.8561 9.53727 10.5799 9.53727C10.3038 9.53727 10.0799 9.76113 10.0799 10.0373V11.8706C10.0799 12.1467 10.3038 12.3706 10.5799 12.3706H11.5772C11.8534 12.3706 12.0772 12.1467 12.0772 11.8706C12.0772 11.5945 11.8534 11.3706 11.5772 11.3706H11.0799V10.0373Z" fill="#2D373D"/>
<path fill-rule="evenodd" clip-rule="evenodd" d="M11.0799 7.97087H11.6799C11.956 7.97087 12.1799 7.74701 12.1799 7.47087C12.1799 7.19472 11.956 6.97087 11.6799 6.97087H9.4799C9.20376 6.97087 8.9799 7.19472 8.9799 7.47087C8.9799 7.74701 9.20376 7.97087 9.4799 7.97087H10.0799V8.10694C8.42072 8.34901 7.14657 9.77777 7.14657 11.5041C7.14657 13.4003 8.68372 14.9374 10.5799 14.9374C12.4761 14.9374 14.0132 13.4003 14.0132 11.5041C14.0132 9.77778 12.7391 8.34904 11.0799 8.10695V7.97087ZM10.5799 9.07086L10.5729 9.07081C9.23221 9.0746 8.14657 10.1626 8.14657 11.5041C8.14657 12.848 9.236 13.9374 10.5799 13.9374C11.9238 13.9374 13.0132 12.848 13.0132 11.5041C13.0132 10.1626 11.9276 9.07462 10.5869 9.07081L10.5799 9.07086Z" fill="#2D373D"/>
</svg>
