<svg width="64" height="65" viewBox="0 0 64 65" fill="none" xmlns="http://www.w3.org/2000/svg">
<path fill-rule="evenodd" clip-rule="evenodd" d="M17.3334 8.92383C16.2288 8.92383 15.3334 9.81926 15.3334 10.9238C15.3334 14.8365 17.3344 18.254 20.1061 20.6572H12.9333C11.6249 20.6572 10.3701 21.177 9.44494 22.1022C8.51976 23.0273 8 24.2822 8 25.5906V29.9906C8 30.91 8.36524 31.7917 9.01536 32.4419C9.53841 32.9649 10.2114 33.3036 10.9333 33.416V51.9906C10.9333 53.299 11.453 54.5538 12.3782 55.479C13.3034 56.4042 14.5582 56.9239 15.8666 56.9239H48.1333C49.4417 56.9239 50.6965 56.4042 51.6217 55.479C52.5469 54.5538 53.0666 53.299 53.0666 51.9906V33.416C53.7886 33.3036 54.4616 32.9649 54.9846 32.4419C55.6348 31.7917 56 30.91 56 29.9906V25.5906C56 24.2822 55.4802 23.0273 54.5551 22.1022C53.6299 21.177 52.3751 20.6572 51.0667 20.6572H43.8939C46.6656 18.254 48.6667 14.8365 48.6667 10.9238C48.6667 9.81926 47.7712 8.92383 46.6667 8.92383C42.9099 8.92383 39.1583 10.434 36.3387 12.8384C34.3747 14.5131 32.7855 16.6936 32 19.1985C31.2146 16.6936 29.6253 14.5131 27.6614 12.8384C24.8418 10.434 21.0902 8.92383 17.3334 8.92383ZM38.9341 15.882C40.4754 14.5678 42.3669 13.6231 44.3135 13.1896C43.7877 14.8657 42.6976 16.4212 41.1992 17.6989C39.658 19.0132 37.7665 19.9579 35.8198 20.3914C36.3457 18.7153 37.4357 17.1598 38.9341 15.882ZM22.8008 17.6989C24.3421 19.0132 26.2336 19.9579 28.1802 20.3914C27.6544 18.7153 26.5643 17.1598 25.0659 15.882C23.5247 14.5678 21.6332 13.6231 19.6865 13.1896C20.2124 14.8657 21.3024 16.4212 22.8008 17.6989ZM12.9333 24.6572C12.6858 24.6572 12.4484 24.7556 12.2734 24.9306C12.0983 25.1056 12 25.343 12 25.5906V29.4572H25.6V24.6572H12.9333ZM34.4 24.6572H29.6V29.4572H34.4V24.6572ZM38.4 29.4572V24.6572H51.0667C51.3142 24.6572 51.5516 24.7556 51.7266 24.9306C51.9017 25.1056 52 25.343 52 25.5906V29.4572H38.4ZM34.4 33.4573H29.6V52.9239H34.4V33.4573ZM25.6 33.4573H14.9333V51.9906C14.9333 52.2381 15.0316 52.4755 15.2067 52.6506C15.3817 52.8256 15.6191 52.9239 15.8666 52.9239H25.6V33.4573ZM38.4 52.9239V33.4573H49.0666V51.9906C49.0666 52.2381 48.9683 52.4755 48.7933 52.6506C48.6182 52.8256 48.3808 52.9239 48.1333 52.9239H38.4Z" fill="#2D373D"/>
</svg>
