<svg width="32" height="32" viewBox="0 0 32 32" fill="none" xmlns="http://www.w3.org/2000/svg">
<path d="M28.4001 5.2998H3.6001C3.0001 5.2998 2.6001 5.6998 2.6001 6.2998V25.7998C2.6001 26.3998 3.0001 26.7998 3.6001 26.7998H28.4001C28.9001 26.7998 29.4001 26.2998 29.4001 25.7998V6.2998C29.4001 5.6998 29.0001 5.2998 28.4001 5.2998ZM27.4001 7.2998V9.6998H4.6001V7.2998H27.4001ZM4.6001 24.7998V11.6998H27.4001V24.7998H4.6001Z" fill="#2D373D"/>
<path d="M11.2 13.9998C8.9 13.9998 7 15.8998 7 18.1998V19.7998C7 20.3998 7.4 20.7998 8 20.7998H10.2V21.3998C10.2 21.9998 10.6 22.3998 11.2 22.3998C11.8 22.3998 12.2 21.9998 12.2 21.3998V14.9998C12.2 14.3998 11.8 13.9998 11.2 13.9998ZM10.2 18.7998H9V18.2998C9 17.3998 9.5 16.6998 10.2 16.2998V18.7998Z" fill="#2D373D"/>
<path d="M24 13.9998C21.7 13.9998 19.8 15.8998 19.8 18.1998V19.7998C19.8 20.3998 20.2 20.7998 20.8 20.7998H23V21.3998C23 21.9998 23.4 22.3998 24 22.3998C24.5 22.3998 25 21.9998 25 21.3998V14.9998C25 14.3998 24.6 13.9998 24 13.9998ZM23 18.7998H21.8V18.2998C21.8 17.3998 22.3 16.6998 23 16.2998V18.7998Z" fill="#2D373D"/>
<path d="M16.0001 13.9998C15.3001 13.9998 14.7001 14.2998 14.2001 14.7998C13.7001 15.2998 13.4001 15.8998 13.4001 16.5998V19.7998C13.4001 21.1998 14.6001 22.3998 16.0001 22.3998C17.4001 22.3998 18.6001 21.2998 18.6001 19.7998V16.5998C18.6001 15.1998 17.4001 13.9998 16.0001 13.9998ZM16.6001 19.7998C16.6001 20.0998 16.3001 20.3998 16.0001 20.3998C15.7001 20.3998 15.4001 20.0998 15.4001 19.7998V16.5998C15.4001 16.4998 15.5001 16.2998 15.6001 16.1998C15.7001 16.0998 15.8001 15.9998 16.0001 15.9998C16.3001 15.9998 16.6001 16.2998 16.6001 16.5998V19.7998Z" fill="#2D373D"/>
</svg>
