<svg width="24" height="25" viewBox="0 0 24 25" fill="none" xmlns="http://www.w3.org/2000/svg">
<path d="M20.7749 9.01016C20.6999 8.56016 20.4749 8.18516 20.1749 7.88516L15.2999 3.01016C14.9249 2.63516 14.3999 2.41016 13.8749 2.41016H5.09988C4.04988 2.41016 3.14988 3.31016 3.14988 4.43516V20.4852C3.07488 21.6102 3.97488 22.5102 5.09988 22.5102H18.8249C19.3499 22.5102 19.7999 22.2852 20.1749 21.9852C20.5499 21.6102 20.7749 21.0852 20.7749 20.5602V9.68516C20.8499 9.61016 20.8499 9.46016 20.8499 9.38516C20.8499 9.23516 20.8499 9.08516 20.7749 9.01016ZM14.6249 4.36016L18.8999 8.63516H15.1499C14.8499 8.63516 14.6249 8.41016 14.6249 8.11016V4.36016ZM19.3499 20.5602C19.3499 20.7102 19.3499 20.8602 19.1999 20.9352C19.0499 21.0102 18.9749 21.0852 18.8249 21.0852H5.17488C4.87488 21.0852 4.64988 20.8602 4.64988 20.5602V4.43516C4.64988 4.13516 4.87488 3.91016 5.09988 3.91016H13.1249V8.11016C13.1249 9.23516 13.9499 10.1352 15.0749 10.1352H19.3499V20.5602Z" fill="#2D373D"/>
<path d="M9.44961 13.7352V13.5102C10.4996 13.2102 11.2496 12.5352 11.2496 11.5602C11.2496 10.4352 10.1246 9.53516 8.77461 9.53516C8.17461 9.53516 7.79961 9.23516 7.79961 9.01016C7.79961 8.78516 8.17461 8.48516 8.77461 8.48516C9.07461 8.48516 9.44961 8.63516 9.67461 8.93516C9.89961 9.23516 10.3496 9.31016 10.7246 9.08516C11.0246 8.86016 11.0996 8.33516 10.8746 8.03516C10.4996 7.58516 9.97461 7.21016 9.44961 7.06016V6.91016C9.44961 6.46016 9.14961 6.16016 8.69961 6.16016C8.24961 6.16016 7.94961 6.46016 7.94961 6.91016V7.06016C6.89961 7.28516 6.22461 8.03516 6.22461 9.01016C6.22461 10.1352 7.34961 11.0352 8.69961 11.0352C9.29961 11.0352 9.67461 11.3352 9.67461 11.5602C9.67461 11.7852 9.29961 12.0852 8.69961 12.0852C8.32461 12.0852 8.02461 11.9352 7.79961 11.6352C7.57461 11.3352 7.04961 11.2602 6.74961 11.4852C6.44961 11.7102 6.37461 12.2352 6.59961 12.5352C6.89961 12.9852 7.42461 13.3602 7.94961 13.5102V13.7352C7.94961 14.1852 8.24961 14.4852 8.69961 14.4852C9.14961 14.4852 9.44961 14.1102 9.44961 13.7352Z" fill="#2D373D"/>
<path d="M12.4502 14.9351C12.4502 15.3851 12.7502 15.6851 13.2002 15.6851H16.9502C17.3252 15.6851 17.7002 15.3851 17.7002 14.9351C17.7002 14.4851 17.4002 14.1851 16.9502 14.1851H13.2002C12.7502 14.1851 12.4502 14.4851 12.4502 14.9351Z" fill="#2D373D"/>
<path d="M16.9498 17.9351H9.6748C9.2248 17.9351 8.9248 18.2351 8.9248 18.6851C8.9248 19.1351 9.2248 19.4351 9.6748 19.4351H16.9498C17.3248 19.4351 17.6998 19.1351 17.6998 18.6851C17.6998 18.2351 17.3998 17.9351 16.9498 17.9351Z" fill="#2D373D"/>
</svg>
