<svg width="16" height="16" viewBox="0 0 16 16" fill="none" xmlns="http://www.w3.org/2000/svg">
<path d="M10 2.04999C9.85002 1.94999 9.65002 1.94999 9.50002 2.04999L5.15002 4.59999H1.80002C1.50002 4.59999 1.30002 4.79999 1.30002 5.09999V10.9C1.30002 11.2 1.50002 11.4 1.80002 11.4H5.15002L9.50002 13.95C9.60002 14 9.65002 14 9.75002 14C9.85002 14 9.90002 14 10 13.95C10.15 13.85 10.25 13.7 10.25 13.5V2.44999C10.25 2.29999 10.15 2.14999 10 2.04999ZM9.25002 12.65L5.55002 10.45C5.45002 10.4 5.40002 10.4 5.30002 10.4H2.30002V5.59999H5.30002C5.40002 5.59999 5.50002 5.59999 5.55002 5.54999L9.25002 3.34999V12.65Z" fill="#2D373D"/>
<path d="M14.55 8.79999L13.75 7.99999L14.55 7.19999C14.75 6.99999 14.75 6.69999 14.55 6.49999C14.35 6.29999 14.05 6.29999 13.85 6.49999L13.05 7.29999L12.25 6.49999C12.05 6.29999 11.75 6.29999 11.55 6.49999C11.35 6.69999 11.35 6.99999 11.55 7.19999L12.35 7.99999L11.55 8.79999C11.35 8.99999 11.35 9.29999 11.55 9.49999C11.65 9.59999 11.8 9.64999 11.9 9.64999C12 9.64999 12.15 9.59999 12.25 9.49999L13.05 8.69999L13.85 9.49999C13.95 9.59999 14.1 9.64999 14.2 9.64999C14.3 9.64999 14.45 9.59999 14.55 9.49999C14.75 9.29999 14.75 8.99999 14.55 8.79999Z" fill="#2D373D"/>
</svg>
