<svg width="32" height="32" viewBox="0 0 32 32" fill="none" xmlns="http://www.w3.org/2000/svg">
<path d="M23.4001 17.6999C23.5001 18.0999 23.9001 18.4999 24.3001 18.5999C24.4001 18.6999 24.6001 18.6999 24.7001 18.6999C25.5001 18.6999 26.1001 18.0999 26.1001 17.2999C26.1001 17.0999 26.1001 16.9999 26.0001 16.8999C25.9001 16.4999 25.5001 16.0999 25.1001 15.9999C25.0001 15.8999 24.8001 15.8999 24.7001 15.8999C24.6001 15.8999 24.4001 15.8999 24.3001 15.9999C23.9001 16.0999 23.5001 16.4999 23.4001 16.8999C23.3001 16.9999 23.3001 17.1999 23.3001 17.2999C23.3001 17.3999 23.3001 17.4999 23.4001 17.6999Z" fill="#2D373D"/>
<path d="M6.90009 18.5999C7.00009 18.6999 7.20009 18.6999 7.30009 18.6999C7.40009 18.6999 7.60008 18.6999 7.70008 18.5999C8.10008 18.4999 8.50009 18.0999 8.60009 17.6999C8.70009 17.5999 8.70008 17.3999 8.70008 17.2999C8.70008 17.1999 8.70009 16.9999 8.60009 16.8999C8.50009 16.4999 8.10008 16.0999 7.70008 15.9999C7.60008 15.8999 7.40009 15.8999 7.30009 15.8999C7.20009 15.8999 7.00009 15.8999 6.90009 15.9999C6.40009 15.9999 6.10009 16.3999 6.00009 16.7999C5.90009 16.8999 5.90009 17.0999 5.90009 17.1999C5.90009 17.2999 5.90009 17.4999 6.00009 17.5999C6.10009 18.0999 6.40009 18.3999 6.90009 18.5999Z" fill="#2D373D"/>
<path d="M26.6001 12.6L25.0001 8.99995C24.5001 7.59995 23.1001 6.69995 21.7001 6.69995H10.3001C8.8001 6.69995 7.5001 7.59995 7.1001 8.89995L5.5001 12.5C3.9001 12.7 2.6001 14 2.6001 15.7V19.8C2.6001 20.5 2.9001 21.1 3.4001 21.5V22.5C3.4001 24 4.6001 25.2 6.1001 25.2C7.5001 25.2 8.7001 24 8.8001 22.5V21.9H23.2001V22.5C23.2001 24 24.4001 25.2 25.9001 25.2C27.4001 25.2 28.6001 24 28.6001 22.5V21.5C29.1001 21.1 29.4001 20.5 29.4001 19.8V15.7C29.4001 14.1 28.2001 12.7 26.6001 12.6ZM8.9001 9.69995C9.1001 9.09995 9.7001 8.69995 10.3001 8.69995H21.7001C22.3001 8.69995 22.9001 9.09995 23.1001 9.69995L24.4001 12.5H7.6001L8.9001 9.69995ZM4.6001 15.7C4.6001 15 5.1001 14.5 5.9001 14.5H26.2001C26.9001 14.5 27.4001 15 27.4001 15.7V19.8C27.4001 19.9 27.4001 19.9 27.3001 19.9H4.7001C4.6001 19.9 4.6001 19.9 4.6001 19.8V15.7ZM6.8001 22.5C6.8001 22.9 6.5001 23.2 6.1001 23.2C5.7001 23.2 5.4001 22.9 5.4001 22.5V21.9H6.8001V22.5ZM25.9001 23.2C25.5001 23.2 25.2001 22.9 25.2001 22.5V21.9H26.6001V22.5C26.6001 22.9 26.3001 23.2 25.9001 23.2Z" fill="#2D373D"/>
</svg>
