<svg width="64" height="64" viewBox="0 0 64 64" fill="none" xmlns="http://www.w3.org/2000/svg">
<path d="M56.8002 10.6001H7.2002C6.0002 10.6001 5.2002 11.4001 5.2002 12.6001V51.6001C5.2002 52.8001 6.0002 53.6001 7.2002 53.6001H56.8002C57.8002 53.6001 58.8002 52.6001 58.8002 51.6001V12.6001C58.8002 11.4001 58.0002 10.6001 56.8002 10.6001ZM54.8002 14.6001V19.4001H9.2002V14.6001H54.8002ZM9.2002 49.6001V23.4001H54.8002V49.6001H9.2002Z" fill="#2D373D"/>
<path d="M22.4 28C17.8 28 14 31.8 14 36.4V39.6C14 40.8 14.8 41.6 16 41.6H20.4V42.8C20.4 44 21.2 44.8 22.4 44.8C23.6 44.8 24.4 44 24.4 42.8V30C24.4 28.8 23.6 28 22.4 28ZM20.4 37.6H18V36.6C18 34.8 19 33.4 20.4 32.6V37.6Z" fill="#2D373D"/>
<path d="M48.0001 28C43.4001 28 39.6001 31.8 39.6001 36.4V39.6C39.6001 40.8 40.4001 41.6 41.6001 41.6H46.0001V42.8C46.0001 44 46.8001 44.8 48.0001 44.8C49.0001 44.8 50.0001 44 50.0001 42.8V30C50.0001 28.8 49.2001 28 48.0001 28ZM46.0001 37.6H43.6001V36.6C43.6001 34.8 44.6001 33.4 46.0001 32.6V37.6Z" fill="#2D373D"/>
<path d="M32.0003 28C30.6003 28 29.4003 28.6 28.4003 29.6C27.4003 30.6 26.8003 31.8 26.8003 33.2V39.6C26.8003 42.4 29.2003 44.8 32.0003 44.8C34.8003 44.8 37.2003 42.6 37.2003 39.6V33.2C37.2003 30.4 34.8003 28 32.0003 28ZM33.2003 39.6C33.2003 40.2 32.6003 40.8 32.0003 40.8C31.4003 40.8 30.8003 40.2 30.8003 39.6V33.2C30.8003 33 31.0003 32.6 31.2003 32.4C31.4003 32.2 31.6003 32 32.0003 32C32.6003 32 33.2003 32.6 33.2003 33.2V39.6Z" fill="#2D373D"/>
</svg>
