<svg width="16" height="17" viewBox="0 0 16 17" fill="none" xmlns="http://www.w3.org/2000/svg">
<path d="M12.6252 10.0456C13.4306 10.0456 14.0835 9.39266 14.0835 8.58724C14.0835 7.78182 13.4306 7.12891 12.6252 7.12891C11.8197 7.12891 11.1668 7.78182 11.1668 8.58724C11.1668 9.39266 11.8197 10.0456 12.6252 10.0456Z" fill="#2D373D"/>
<path d="M2.79183 10.0456C3.59724 10.0456 4.25016 9.39266 4.25016 8.58724C4.25016 7.78182 3.59724 7.12891 2.79183 7.12891C1.98641 7.12891 1.3335 7.78182 1.3335 8.58724C1.3335 9.39266 1.98641 10.0456 2.79183 10.0456Z" fill="#2D373D"/>
<path d="M7.7085 10.0456C8.51391 10.0456 9.16683 9.39266 9.16683 8.58724C9.16683 7.78182 8.51391 7.12891 7.7085 7.12891C6.90308 7.12891 6.25016 7.78182 6.25016 8.58724C6.25016 9.39266 6.90308 10.0456 7.7085 10.0456Z" fill="#2D373D"/>
</svg>
