<svg width="16" height="17" viewBox="0 0 16 17" fill="none" xmlns="http://www.w3.org/2000/svg">
<path d="M6.10016 11.3602H4.65016C4.50016 11.3602 4.40016 11.2602 4.40016 11.1102V7.46021C4.40016 7.16021 4.20016 6.96021 3.90016 6.96021C3.60016 6.96021 3.40016 7.16021 3.40016 7.46021V11.0602C3.40016 11.7602 3.95016 12.3102 4.65016 12.3102H6.10016C6.40016 12.3102 6.60016 12.1602 6.60016 11.8602C6.60016 11.5602 6.40016 11.3602 6.10016 11.3602Z" fill="#2D373D"/>
<path d="M10.9002 6.46016C11.1002 6.66016 11.4002 6.61016 11.6002 6.41016C11.8002 6.21016 11.7502 5.91016 11.5502 5.71016L8.00017 2.71016C7.55017 2.31016 6.85017 2.31016 6.40017 2.71016L2.10017 6.31016C1.90017 6.46016 1.85017 6.81016 2.05017 7.01016C2.15017 7.16016 2.30017 7.21016 2.45017 7.21016C2.55017 7.21016 2.70017 7.16016 2.75017 7.11016L7.05017 3.46016C7.15017 3.41016 7.25017 3.41016 7.35017 3.46016L10.9002 6.46016Z" fill="#2D373D"/>
<path d="M9.90016 3.41016H10.8502V4.36016C10.8502 4.66016 11.0502 4.86016 11.3502 4.86016C11.6502 4.86016 11.8502 4.66016 11.8502 4.36016V2.91016C11.8502 2.61016 11.6502 2.41016 11.3502 2.41016H9.90016C9.60016 2.41016 9.40016 2.61016 9.40016 2.91016C9.40016 3.21016 9.60016 3.41016 9.90016 3.41016Z" fill="#2D373D"/>
<path d="M11.3002 10.1102L10.3002 9.71018C10.2502 9.66018 10.2002 9.61018 10.2002 9.56018C10.2002 9.51018 10.2502 9.46018 10.2502 9.46018C10.2502 9.46018 10.3002 9.41018 10.3502 9.41018H11.3502C11.6502 9.41018 11.8502 9.21018 11.8502 8.91018C11.8502 8.61018 11.6502 8.41018 11.3502 8.41018H11.1002C11.0502 8.21018 10.8502 8.06018 10.6502 8.06018C10.4002 8.06018 10.2002 8.21018 10.1502 8.41018C9.90018 8.46018 9.70018 8.56018 9.55018 8.76018C9.30018 8.96018 9.20018 9.26018 9.20018 9.56018C9.20018 10.0102 9.50018 10.4102 9.95018 10.6102L10.9502 11.0102C11.0502 11.0602 11.1002 11.1102 11.0502 11.2102C11.0002 11.2602 10.9502 11.3102 10.9002 11.3102H9.90018C9.60018 11.3102 9.40018 11.5102 9.40018 11.8102C9.40018 12.1102 9.60018 12.3102 9.90018 12.3102H10.1502C10.2002 12.5602 10.3502 12.7102 10.6502 12.7102C10.9002 12.7102 11.1002 12.5102 11.1502 12.2602C11.5002 12.2102 11.8502 11.9602 11.9502 11.6102C12.2002 11.0102 11.9002 10.3602 11.3002 10.1102Z" fill="#2D373D"/>
<path d="M10.6502 7.01013C8.80024 7.01013 7.25024 8.51013 7.25024 10.4101C7.25024 11.3101 7.60024 12.1601 8.25024 12.8101C8.85024 13.4601 9.75024 13.8101 10.6502 13.8101C12.5002 13.8101 14.0502 12.2601 14.1002 10.4601C14.1002 8.56013 12.5502 7.01013 10.6502 7.01013ZM10.6002 12.7601C9.95024 12.7601 9.35024 12.5101 8.90024 12.0601C8.45024 11.6101 8.20024 11.0101 8.20024 10.3601C8.20024 9.01013 9.30024 7.96013 10.6002 7.86013C11.9502 7.86013 13.0502 8.96013 13.0502 10.3101C13.0502 11.6601 11.9502 12.7601 10.6002 12.7601Z" fill="#2D373D"/>
</svg>
