<svg width="32" height="33" viewBox="0 0 32 33" fill="none" xmlns="http://www.w3.org/2000/svg">
<path fill-rule="evenodd" clip-rule="evenodd" d="M13.666 8.62824V4.58984C13.666 4.03756 13.2183 3.58984 12.666 3.58984C12.1138 3.58984 11.666 4.03756 11.666 4.58984V8.62824H10.6662C9.37912 8.62824 8.33285 9.66968 8.33285 10.96L8.33284 17.0761C8.33285 18.634 8.65993 20.3344 9.83458 21.6737L2.95891 28.5494C2.56838 28.9399 2.56838 29.5731 2.95891 29.9636C3.34943 30.3541 3.9826 30.3541 4.37312 29.9636L11.4119 22.9248C11.4759 22.9598 11.5409 22.9939 11.6069 23.0271V24.5898C11.6069 25.8785 12.6516 26.9232 13.9403 26.9232H15.0503V29.2565C15.0503 29.8088 15.498 30.2565 16.0503 30.2565C16.6026 30.2565 17.0503 29.8088 17.0503 29.2565V26.9232H18.2034C19.492 26.9232 20.5367 25.8785 20.5367 24.5898V22.9174C22.7524 21.6589 23.9957 19.4187 23.9957 17.0754L23.9957 14.0173C23.9957 13.4651 23.548 13.0173 22.9957 13.0173C22.4434 13.0173 21.9957 13.4651 21.9957 14.0173L21.9957 17.0754C21.9957 19.4757 20.0764 21.9609 16.3293 21.9609C14.8409 21.9609 13.7361 21.7509 12.9138 21.423L29.0398 5.29695C29.4303 4.90643 29.4303 4.27326 29.0398 3.88274C28.6493 3.49221 28.0161 3.49221 27.6256 3.88274L11.2537 20.2546C10.5903 19.435 10.3328 18.3374 10.3328 17.0761L10.3329 10.9599C10.3329 10.7774 10.4805 10.6282 10.6662 10.6282H19.3324C19.8847 10.6282 20.3324 10.1805 20.3324 9.62824V4.58984C20.3324 4.03756 19.8847 3.58984 19.3324 3.58984C18.7802 3.58984 18.3324 4.03756 18.3324 4.58984V8.62824H13.666ZM18.5367 23.7044C17.8558 23.8708 17.1186 23.9609 16.3293 23.9609C15.3171 23.9609 14.4119 23.8737 13.6069 23.7055V24.5898C13.6069 24.7739 13.7562 24.9232 13.9403 24.9232H18.2034C18.3875 24.9232 18.5367 24.7739 18.5367 24.5898V23.7044Z" fill="#2D373D"/>
</svg>
