<svg width="24" height="25" viewBox="0 0 24 25" fill="none" xmlns="http://www.w3.org/2000/svg">
<path d="M13.8746 17.9496L14.3246 14.1996H14.7746C15.2246 14.1996 15.5246 13.8996 15.5246 13.4496V11.7996C15.5246 10.4496 14.7746 9.24961 13.6496 8.64961C14.3246 8.12461 14.6996 7.37461 14.6996 6.54961C14.6996 5.04961 13.4996 3.84961 11.9996 3.84961C10.4996 3.84961 9.29961 5.04961 9.29961 6.54961C9.29961 7.44961 9.74961 8.19961 10.3496 8.72461C9.22461 9.32461 8.47461 10.4496 8.47461 11.7996V13.4496C8.47461 13.8996 8.77461 14.1996 9.22461 14.1996H9.59961L10.0496 17.9496C10.1246 18.3246 10.4246 18.6246 10.7996 18.6246H13.0496C13.4246 18.6246 13.7996 18.3246 13.8746 17.9496ZM11.9996 5.34961C12.5996 5.34961 13.1996 5.87461 13.1996 6.54961C13.1996 7.22461 12.6746 7.74961 11.9996 7.74961C11.3246 7.74961 10.7996 7.22461 10.7996 6.54961C10.7996 5.87461 11.3246 5.34961 11.9996 5.34961ZM12.4496 17.1246H11.5496L11.0996 13.3746C11.0246 12.9996 10.7246 12.6996 10.3496 12.6996H9.97461V11.7996C9.97461 10.6746 10.8746 9.77461 11.9996 9.77461C13.1246 9.77461 14.0246 10.6746 14.0246 11.7996V12.6996H13.6496C13.2746 12.6996 12.9746 12.9996 12.8996 13.3746L12.4496 17.1246Z" fill="#2D373D"/>
<path d="M9.07461 19.5995L8.24961 16.5995C8.17461 16.1495 7.72461 15.9245 7.34961 16.0745C6.97461 16.1495 6.74961 16.5995 6.82461 16.9745L7.34961 18.6995C5.47461 18.1745 4.42461 17.4245 4.42461 16.7495C4.42461 16.2245 5.24961 15.3995 7.04961 14.7995C7.49961 14.7245 7.72461 14.2745 7.57461 13.8995C7.49961 13.4495 7.04961 13.2245 6.67461 13.3745C4.19961 14.1245 2.84961 15.3245 2.84961 16.7495C2.84961 18.0995 4.12461 19.2995 6.37461 20.0495L5.54961 20.4995C5.17461 20.7245 5.02461 21.1745 5.24961 21.5495C5.39961 21.7745 5.69961 21.9245 5.92461 21.9245C5.99961 21.9245 6.14961 21.9245 6.29961 21.8495L8.69961 20.4245C8.77461 20.4245 8.77461 20.3495 8.77461 20.3495C8.84961 20.2745 8.84961 20.2745 8.92461 20.1995C8.99961 20.1245 8.99961 20.0495 8.99961 19.9745C9.14961 19.8245 9.14961 19.7495 9.07461 19.5995Z" fill="#2D373D"/>
<path d="M17.1748 13.4496C16.7998 13.3746 16.4248 13.5996 16.2748 13.9746C16.1998 14.3496 16.4248 14.7246 16.7998 14.8746C18.7498 15.4746 19.5748 16.2996 19.5748 16.8246C19.5748 17.8746 16.5748 19.3746 11.9998 19.3746C11.5498 19.3746 11.2498 19.6746 11.2498 20.1246C11.2498 20.5746 11.5498 20.8746 11.9998 20.8746C16.3498 20.8746 20.9998 19.4496 20.9998 16.8246C20.9998 15.3996 19.6498 14.1996 17.1748 13.4496Z" fill="#2D373D"/>
</svg>
