<svg width="16" height="17" viewBox="0 0 16 17" fill="none" xmlns="http://www.w3.org/2000/svg">
<path d="M9.24999 13.3607C8.99999 13.3107 8.74999 13.4607 8.64999 13.7107C8.59999 13.9107 8.39999 14.1107 8.19999 14.1607C8.04999 14.2107 7.84999 14.2107 7.69999 14.1107C7.54999 14.0107 7.44999 13.8607 7.39999 13.7107C7.29999 13.4107 7.04999 13.2607 6.74999 13.3607C6.44999 13.4107 6.29999 13.7107 6.39999 13.9607C6.54999 14.4107 6.79999 14.7607 7.19999 14.9607C7.44999 15.1107 7.74999 15.1607 7.99999 15.1607C8.14999 15.1607 8.29999 15.1607 8.49999 15.0607C8.99999 14.9107 9.44999 14.5107 9.59999 13.9607C9.64999 13.7107 9.49999 13.4607 9.24999 13.3607Z" fill="#2D373D"/>
<path d="M13.2999 11.7607C13.2999 11.7107 12.6499 10.9607 12.6499 7.56074C12.6499 5.16074 10.7999 3.21074 8.49992 2.96074V2.26074C8.49992 1.96074 8.29992 1.76074 7.99992 1.76074C7.69992 1.76074 7.49992 1.96074 7.49992 2.26074V2.96074C5.19992 3.21074 3.34992 5.21074 3.34992 7.56074C3.34992 10.7607 2.64992 11.8107 2.64992 11.8107C2.54992 11.9607 2.49992 12.2107 2.59992 12.3607C2.69992 12.5607 2.84992 12.6607 3.04992 12.6607H12.9499C13.1999 12.6607 13.3999 12.5107 13.4499 12.3107C13.4999 12.1107 13.4499 11.9107 13.2999 11.7607ZM3.84992 11.6607C4.09992 10.9607 4.39992 9.71074 4.34992 7.61074C4.34992 5.66074 5.89992 4.06074 7.79992 3.96074C7.84992 3.96074 7.94992 4.01074 7.99992 4.01074C8.04992 4.01074 8.14992 4.01074 8.19992 3.96074C10.0999 4.06074 11.6499 5.66074 11.6499 7.61074C11.6499 9.71074 11.8999 10.9607 12.1499 11.6607H3.84992Z" fill="#2D373D"/>
</svg>
