<svg width="32" height="32" viewBox="0 0 32 32" fill="none" xmlns="http://www.w3.org/2000/svg">
<path d="M18.5003 10.7C15.1003 10.7 12.3003 13.5 12.3003 16.9C12.3003 20.3 15.1003 23.1 18.5003 23.1C21.9003 23.1 24.7003 20.3 24.7003 16.9C24.7003 13.5 21.9003 10.7 18.5003 10.7ZM18.5003 21C16.2003 21 14.3003 19.1 14.3003 16.8C14.3003 14.5 16.2003 12.6 18.5003 12.6C20.8003 12.6 22.7003 14.5 22.7003 16.8C22.7003 19.1 20.8003 21 18.5003 21Z" fill="#2D373D"/>
<path d="M28.6002 8.9998C28.1002 8.4998 27.4002 8.1998 26.7002 8.1998H24.8002L23.9002 6.7998C23.4002 5.8998 22.5002 5.2998 21.5002 5.2998H15.3002C14.3002 5.2998 13.4002 5.8998 13.2002 6.6998L12.3002 8.1998H9.6002V7.5998C9.6002 6.9998 9.2002 6.5998 8.6002 6.5998C8.0002 6.5998 7.60019 6.9998 7.60019 7.5998V8.1998H5.4002C4.7002 8.1998 4.0002 8.4998 3.5002 8.9998C3.0002 9.4998 2.7002 10.1998 2.7002 10.8998V24.0998C2.7002 25.4998 3.8002 26.6998 5.3002 26.6998H26.7002C28.2002 26.6998 29.4002 25.4998 29.4002 24.0998V10.8998C29.4002 10.1998 29.1002 9.4998 28.6002 8.9998ZM27.5002 24.0998C27.5002 24.4998 27.2002 24.7998 26.8002 24.7998H5.3002C4.9002 24.7998 4.6002 24.4998 4.6002 24.0998V10.8998C4.6002 10.4998 4.9002 10.1998 5.3002 10.1998H12.7002C13.0002 10.1998 13.4002 9.9998 13.5002 9.6998L14.7002 7.6998C14.8002 7.3998 15.1002 7.2998 15.3002 7.2998H21.5002C21.8002 7.2998 22.0002 7.3998 22.2002 7.6998L23.4002 9.6998C23.6002 9.9998 24.0002 10.1998 24.3002 10.1998H26.8002C27.0002 10.1998 27.2002 10.2998 27.3002 10.3998C27.4002 10.5998 27.5002 10.6998 27.5002 10.8998V24.0998Z" fill="#2D373D"/>
<path d="M7.30015 14.2998C8.07335 14.2998 8.70015 13.673 8.70015 12.8998C8.70015 12.1266 8.07335 11.4998 7.30015 11.4998C6.52695 11.4998 5.90015 12.1266 5.90015 12.8998C5.90015 13.673 6.52695 14.2998 7.30015 14.2998Z" fill="#2D373D"/>
</svg>
