<svg width="32" height="33" viewBox="0 0 32 33" fill="none" xmlns="http://www.w3.org/2000/svg">
<path d="M21.9598 12.0032C21.4265 10.3765 19.9198 9.46984 18.2798 9.73651C18.0132 8.06984 16.6932 6.94984 14.9998 6.94984C13.3065 6.94984 11.9732 8.08318 11.7065 9.72318C10.0665 9.46984 8.57317 10.3765 8.03984 12.0032C7.51984 13.6165 8.19984 15.2298 9.69317 15.9765C8.91984 17.4698 9.31984 19.1632 10.7065 20.1765C12.0798 21.1765 13.8132 21.0298 14.9998 19.8565C15.6532 20.5098 16.4798 20.8432 17.3198 20.8432C17.9998 20.8432 18.6798 20.6165 19.2932 20.1765C20.6798 19.1765 21.0798 17.4698 20.3198 15.9898C21.8132 15.2298 22.4798 13.6165 21.9598 12.0032ZM19.3198 14.2432L18.8398 14.4565C18.4932 14.6165 18.2265 14.9098 18.1065 15.2698C17.9865 15.6298 18.0398 16.0165 18.2265 16.3498L18.4932 16.8032C19.0665 17.7898 18.2798 18.4298 18.1198 18.5498C17.9598 18.6698 17.1065 19.2165 16.3465 18.3632L15.9998 17.9765C15.7465 17.6832 15.3732 17.5232 14.9998 17.5232C14.6265 17.5232 14.2532 17.6832 13.9998 17.9765L13.6532 18.3632C12.8932 19.2165 12.0398 18.6698 11.8798 18.5498C11.7198 18.4298 10.9332 17.7898 11.5065 16.8032L11.7732 16.3498C11.9598 16.0165 12.0132 15.6298 11.8932 15.2698C11.7732 14.9098 11.5065 14.6165 11.1598 14.4565L10.6798 14.2432C9.62651 13.7898 9.87984 12.8032 9.94651 12.6165C10.0132 12.4298 10.3865 11.4832 11.4932 11.7232L12.0132 11.8298C12.3732 11.9098 12.7732 11.8298 13.0798 11.6032C13.3865 11.3898 13.5865 11.0432 13.6265 10.6698L13.6665 10.1498C13.7865 9.00318 14.7998 8.94984 14.9998 8.94984C15.1998 8.94984 16.2132 9.00318 16.3332 10.1498L16.3732 10.6698C16.4132 11.0432 16.6132 11.3898 16.9198 11.6165C17.2265 11.8298 17.6132 11.9098 17.9865 11.8298L18.5065 11.7232C19.6265 11.4832 19.9865 12.4298 20.0532 12.6165C20.1198 12.8032 20.3732 13.7898 19.3198 14.2432Z" fill="#2D373D"/>
<path d="M15.9465 14.9365C15.4265 15.4565 14.5865 15.4565 14.0665 14.9365C13.5465 14.4165 13.5465 13.5765 14.0665 13.0565C14.5865 12.5365 15.4265 12.5365 15.9465 13.0565C16.4665 13.5765 16.4665 14.4165 15.9465 14.9365Z" fill="#2D373D"/>
<path d="M27.9854 17.0165C28.0253 17.4432 27.9854 17.9098 27.759 18.3632C27.5326 18.8298 27.173 19.2032 26.6802 19.5098C26.627 19.5498 26.5604 19.5765 26.5071 19.6032C26.2274 19.6965 25.9877 19.7765 25.7746 19.8432V22.3632C25.7746 22.3632 25.7746 22.4565 25.7746 22.5232C25.7613 22.6565 25.7347 22.8432 25.6814 23.0565C25.5882 23.4698 25.3751 24.0432 24.9489 24.5765C24.5094 25.1098 23.8568 25.5765 22.9512 25.7765C22.3652 25.9098 21.6993 25.9365 20.9269 25.8165V29.2565C20.9269 29.8032 20.4741 30.2565 19.9281 30.2565C19.382 30.2565 18.9292 29.8032 18.9292 29.2565V24.5898C18.9292 24.2698 19.0757 23.9765 19.3154 23.7898C19.5685 23.6032 19.8881 23.5365 20.1944 23.6298C21.2998 23.9365 22.0456 23.9365 22.5117 23.8298C22.9779 23.7232 23.2309 23.5232 23.404 23.3098C23.5772 23.0965 23.6837 22.8298 23.737 22.6032C23.7636 22.4832 23.7769 22.3898 23.7769 22.3365C23.7769 22.3098 23.7769 22.2832 23.7769 22.2698V19.0965C23.7769 18.6432 24.0832 18.2298 24.5361 18.1232H24.5494C24.5494 18.1232 24.5893 18.1098 24.616 18.1098C24.6825 18.0832 24.7758 18.0698 24.8823 18.0298C25.0954 17.9632 25.3884 17.8698 25.708 17.7498C25.8812 17.6432 25.9344 17.5365 25.9611 17.4965C26.001 17.4298 26.0143 17.3498 26.001 17.2432C25.9744 16.9898 25.8412 16.6965 25.6414 16.4032C25.6281 16.3632 25.6015 16.3365 25.5749 16.2965C25.5482 16.2698 25.5349 16.2565 25.5216 16.2298C25.2286 15.7232 24.8557 15.1765 24.5361 14.7365C24.3762 14.5232 24.2431 14.3365 24.1365 14.2032C24.0966 14.1498 24.0566 14.0965 24.03 14.0565C24.03 14.0565 24.0033 14.0298 24.0033 14.0165H23.99C23.8435 13.8298 23.7769 13.6165 23.7769 13.3898C23.7769 10.2298 22.312 8.33651 20.5007 7.17651C18.6229 5.98984 16.3322 5.58984 14.8406 5.58984C9.2471 5.58984 5.93094 9.96318 5.99753 14.9098C5.99753 17.3898 7.52909 20.2698 10.7387 22.0432C11.0583 22.2165 11.2581 22.5632 11.2581 22.9232V29.2565C11.2581 29.8032 10.8053 30.2565 10.2593 30.2565C9.71322 30.2565 9.26041 29.8032 9.26041 29.2565V23.4965C5.83771 21.3898 3.99984 18.0565 3.99984 14.9365C3.93325 9.06984 7.94194 3.58984 14.8406 3.58984C16.6119 3.58984 19.2888 4.05651 21.5662 5.49651C23.8302 6.93651 25.6548 9.30984 25.7613 13.0298C25.8545 13.1632 26.001 13.3365 26.1475 13.5632C26.4671 14.0032 26.88 14.5898 27.213 15.1632C27.2263 15.1765 27.2396 15.2032 27.2529 15.2298C27.2529 15.2432 27.2795 15.2565 27.2795 15.2698C27.5459 15.6565 27.9055 16.2965 27.9854 17.0165Z" fill="#2D373D"/>
</svg>
