<svg width="64" height="64" viewBox="0 0 64 64" fill="none" xmlns="http://www.w3.org/2000/svg">
<path fill-rule="evenodd" clip-rule="evenodd" d="M48.2931 7.94658H15.6264C14.9674 7.93585 14.3128 8.0573 13.7015 8.30377C13.0901 8.55024 12.5344 8.91672 12.067 9.38157C11.5997 9.84642 11.2303 10.4002 10.9805 11.0102C10.7308 11.6202 10.6059 12.2741 10.6131 12.9332V51.0666C10.62 51.7167 10.7554 52.3591 11.0115 52.9567C11.2675 53.5543 11.6392 54.0955 12.1051 54.549C12.571 55.0025 13.1219 55.3594 13.7262 55.5993C14.3306 55.8391 14.9763 55.9572 15.6264 55.9466H48.2931C48.941 55.9536 49.5839 55.833 50.1851 55.5915C50.7863 55.3501 51.3341 54.9926 51.7972 54.5394C52.2603 54.0863 52.6295 53.5463 52.8839 52.9505C53.1383 52.3546 53.2728 51.7144 53.2798 51.0666V12.9332C53.2869 12.2764 53.1628 11.6247 52.9147 11.0165C52.6666 10.4083 52.2996 9.85571 51.8351 9.39122C51.3706 8.92674 50.8181 8.55969 50.2098 8.31162C49.6016 8.06354 48.9499 7.93944 48.2931 7.94658ZM15.6264 11.9999H48.2931C48.5431 11.9998 48.7834 12.0973 48.9627 12.2716C49.1419 12.4459 49.2461 12.6833 49.2531 12.9332V19.7332H14.5864V12.9332C14.5896 12.8024 14.6195 12.6736 14.6743 12.5547C14.729 12.4359 14.8075 12.3295 14.9049 12.2421C15.0023 12.1547 15.1166 12.0881 15.2407 12.0464C15.3647 12.0048 15.496 11.989 15.6264 11.9999ZM48.2931 51.9999H15.6264C15.3764 52 15.1361 51.9025 14.9569 51.7282C14.7776 51.5539 14.6734 51.3165 14.6664 51.0666V23.7332H49.3331V51.0666C49.3299 51.1974 49.3 51.3262 49.2452 51.4451C49.1905 51.5639 49.112 51.6703 49.0146 51.7577C48.9172 51.8451 48.8029 51.9117 48.6788 51.9534C48.5548 51.995 48.4235 52.0108 48.2931 51.9999Z" fill="#2D373D"/>
<path fill-rule="evenodd" clip-rule="evenodd" d="M18.6131 17.8666H24.5331C25.0635 17.8666 25.5722 17.6559 25.9473 17.2808C26.3224 16.9057 26.5331 16.397 26.5331 15.8666C26.5331 15.3361 26.3224 14.8274 25.9473 14.4524C25.5722 14.0773 25.0635 13.8666 24.5331 13.8666H18.6131C18.0827 13.8666 17.5739 14.0773 17.1989 14.4524C16.8238 14.8274 16.6131 15.3361 16.6131 15.8666C16.6131 16.397 16.8238 16.9057 17.1989 17.2808C17.5739 17.6559 18.0827 17.8666 18.6131 17.8666Z" fill="#2D373D"/>
<path fill-rule="evenodd" clip-rule="evenodd" d="M31.9464 25.5999C29.525 25.621 27.1639 26.3582 25.1607 27.7189C23.1576 29.0795 21.6019 31.0026 20.6898 33.2458C19.7777 35.489 19.55 37.952 20.0353 40.3244C20.5206 42.6968 21.6972 44.8726 23.4169 46.5774C25.1366 48.2823 27.3224 49.44 29.6989 49.9048C32.0755 50.3695 34.5364 50.1204 36.7716 49.1889C39.0069 48.2574 40.9164 46.6852 42.2596 44.6704C43.6029 42.6555 44.3197 40.2881 44.3198 37.8666C44.3128 36.2487 43.9872 34.648 43.3616 33.156C42.736 31.6639 41.8226 30.3097 40.6736 29.1706C39.5247 28.0315 38.1626 27.1299 36.6652 26.5173C35.1677 25.9046 33.5643 25.5929 31.9464 25.5999ZM31.9464 46.1332C30.3161 46.1122 28.7285 45.6096 27.3831 44.6885C26.0378 43.7675 24.9949 42.4691 24.3855 40.9569C23.7761 39.4446 23.6276 37.7859 23.9585 36.1894C24.2894 34.5929 25.085 33.13 26.2453 31.9845C27.4055 30.839 28.8786 30.0622 30.4792 29.7518C32.0798 29.4414 33.7364 29.6112 35.2407 30.2399C36.7451 30.8686 38.0299 31.9281 38.9336 33.2851C39.8374 34.6422 40.3196 36.2362 40.3198 37.8666C40.2986 40.071 39.4063 42.1775 37.8375 43.7263C36.2687 45.2751 34.1509 46.1404 31.9464 46.1332Z" fill="#2D373D"/>
<path fill-rule="evenodd" clip-rule="evenodd" d="M42.7998 18.3999C43.3023 18.5852 43.8435 18.6402 44.3731 18.5599C44.8999 18.4563 45.3832 18.1961 45.7598 17.8132C46.1571 17.4331 46.4272 16.9395 46.5331 16.3999C46.6172 15.8895 46.5511 15.3657 46.3428 14.8922C46.1344 14.4187 45.7929 14.016 45.3598 13.7332C44.9108 13.4315 44.3807 13.2733 43.8398 13.2799C43.1325 13.2799 42.4542 13.5609 41.9541 14.061C41.454 14.5611 41.1731 15.2393 41.1731 15.9466C41.1744 16.4903 41.3419 17.0207 41.6531 17.4666C41.9397 17.8795 42.3372 18.2031 42.7998 18.3999ZM42.6131 15.7332C42.6538 15.4928 42.7652 15.27 42.9331 15.0932C43.1146 14.9267 43.3344 14.8076 43.5731 14.7466H43.8131C43.9721 14.7216 44.1341 14.7216 44.2931 14.7466H44.5064C44.6462 14.8236 44.7651 14.9334 44.8531 15.0666V15.3066C44.8785 15.4656 44.8785 15.6276 44.8531 15.7866C44.866 15.8661 44.866 15.9471 44.8531 16.0266C44.8083 16.2713 44.6869 16.4954 44.5064 16.6666C44.3249 16.8331 44.1051 16.9522 43.8664 17.0132H43.6264C43.4674 17.0382 43.3055 17.0382 43.1464 17.0132H42.9331C42.7916 16.9157 42.6732 16.7882 42.5864 16.6399C42.5721 16.5695 42.5721 16.497 42.5864 16.4266C42.5556 16.2668 42.5648 16.1019 42.6131 15.9466C42.59 15.8412 42.59 15.732 42.6131 15.6266V15.7332Z" fill="#2D373D"/>
<path fill-rule="evenodd" clip-rule="evenodd" d="M33.8931 18.3999C34.3956 18.5852 34.9369 18.6402 35.4664 18.5599C35.9933 18.4563 36.4766 18.1961 36.8531 17.8132C37.2504 17.4331 37.5205 16.9395 37.6264 16.3999C37.7106 15.8895 37.6444 15.3657 37.4361 14.8922C37.2278 14.4187 36.8862 14.016 36.4531 13.7332C36.0041 13.4315 35.474 13.2733 34.9331 13.2799C34.2258 13.2799 33.5476 13.5609 33.0475 14.061C32.5474 14.5611 32.2664 15.2393 32.2664 15.9466C32.2677 16.4903 32.4352 17.0207 32.7464 17.4666C33.033 17.8795 33.4305 18.2031 33.8931 18.3999Z" fill="#2D373D"/>
<path fill-rule="evenodd" clip-rule="evenodd" d="M31.9464 31.4666C30.2394 31.4612 28.5997 32.1324 27.3864 33.3332C26.7842 33.9242 26.3064 34.6298 25.9812 35.4084C25.6561 36.187 25.4901 37.0228 25.4931 37.8666C25.4931 38.397 25.7038 38.9057 26.0789 39.2808C26.4539 39.6559 26.9627 39.8666 27.4931 39.8666C28.0235 39.8666 28.5322 39.6559 28.9073 39.2808C29.2824 38.9057 29.4931 38.397 29.4931 37.8666C29.4911 37.5545 29.5515 37.2452 29.6705 36.9567C29.7896 36.6683 29.965 36.4064 30.1864 36.1866C30.6558 35.7247 31.288 35.4661 31.9464 35.4666C32.4769 35.4666 32.9856 35.2559 33.3606 34.8808C33.7357 34.5057 33.9464 33.997 33.9464 33.4666C33.9464 32.9361 33.7357 32.4274 33.3606 32.0524C32.9856 31.6773 32.4769 31.4666 31.9464 31.4666Z" fill="#2D373D"/>
</svg>
