<svg width="16" height="17" viewBox="0 0 16 17" fill="none" xmlns="http://www.w3.org/2000/svg">
<path d="M8.0001 8.56074C9.8501 8.56074 11.4001 7.06074 11.4001 5.16074C11.4001 3.26074 9.9001 1.76074 8.0001 1.76074C6.1001 1.76074 4.6001 3.31074 4.6001 5.16074C4.6001 7.01074 6.1001 8.56074 8.0001 8.56074ZM8.0001 2.76074C9.3001 2.76074 10.4001 3.81074 10.4001 5.16074C10.4001 6.51074 9.3001 7.56074 8.0001 7.56074C6.6501 7.56074 5.6001 6.51074 5.6001 5.16074C5.6001 3.81074 6.6501 2.76074 8.0001 2.76074Z" fill="#2D373D"/>
<path d="M8.0001 8.76074H7.9501C6.3501 8.76074 4.9001 9.41074 3.8001 10.5107C2.7001 11.6107 2.1001 13.1107 2.1001 14.6607C2.1001 14.9607 2.3501 15.1607 2.6001 15.1607C2.9001 15.1607 3.1001 14.9607 3.1001 14.6607C3.1001 13.3607 3.6001 12.1107 4.4501 11.1607C5.4001 10.2607 6.6001 9.71074 7.9001 9.71074H7.9501C10.6501 9.71074 12.8001 11.8607 12.8501 14.5607V14.6607C12.8501 14.9107 13.0501 15.1607 13.3501 15.1607C13.6501 15.1607 13.8501 14.9607 13.9001 14.6607V14.5607C13.8501 11.3607 11.2001 8.76074 8.0001 8.76074Z" fill="#2D373D"/>
</svg>
