<svg width="64" height="65" viewBox="0 0 64 65" fill="none" xmlns="http://www.w3.org/2000/svg">
<path d="M30.4665 32.4617L21.2665 23.2617C20.4665 22.4617 20.4665 21.2617 21.2665 20.4617C22.0665 19.6617 23.2665 19.6617 24.0665 20.4617L34.6665 31.0617C35.4665 31.8617 35.4665 33.0617 34.6665 33.8617L24.0665 44.6617C23.6665 45.0617 23.2665 45.2617 22.6665 45.2617C22.0665 45.2617 21.6665 45.0617 21.2665 44.6617C20.4665 43.8617 20.4665 42.6617 21.2665 41.8617L30.4665 32.4617Z" fill="#2D373D"/>
<path fill-rule="evenodd" clip-rule="evenodd" d="M42.6675 19.7949C41.563 19.7949 40.6675 20.6904 40.6675 21.7949V43.1283C40.6675 44.2328 41.563 45.1283 42.6675 45.1283C43.7721 45.1283 44.6675 44.2328 44.6675 43.1283V21.7949C44.6675 20.6904 43.7721 19.7949 42.6675 19.7949Z" fill="#2D373D"/>
</svg>
