<svg width="16" height="16" viewBox="0 0 16 16" fill="none" xmlns="http://www.w3.org/2000/svg">
<path d="M3.69982 7.90002C3.54982 7.90002 3.39982 7.95002 3.29982 8.05002C3.14982 8.15002 3.04982 8.25002 3.04982 8.40002C2.99982 8.50002 2.99982 8.55002 2.99982 8.65002C2.99982 8.75002 2.99982 8.80003 3.04982 8.85003C3.09982 9.05003 3.29982 9.25003 3.49982 9.30002C3.54982 9.35003 3.64982 9.35003 3.69982 9.35003C4.09982 9.35003 4.39982 9.00002 4.39982 8.65002C4.39982 8.65002 4.39982 8.65003 4.39982 8.60003C4.39982 8.20003 4.09982 7.90002 3.69982 7.90002Z" fill="#2D373D"/>
<path d="M4.9498 10H2.6498C2.4498 10 2.2998 9.85005 2.2998 9.65005V8.40005C2.2998 7.85005 2.6998 7.40005 3.1998 7.25005H3.2498C3.3498 7.25005 3.3998 7.20005 3.4998 7.20005H11.9498C12.3498 7.20005 12.7498 7.45005 12.9498 7.80005C13.0998 8.10005 13.1498 8.40005 13.1498 8.70005C13.1498 8.95005 13.3498 9.20005 13.6498 9.20005C13.8998 9.20005 14.1498 9.00005 14.1498 8.70005C14.1498 8.20005 14.0498 7.75005 13.7998 7.30005C13.5498 6.85005 13.1498 6.50005 12.6998 6.35005L11.8498 4.45005C11.5998 3.75005 10.9498 3.30005 10.1998 3.30005H5.1998C4.4498 3.30005 3.7998 3.75005 3.5998 4.40005L2.6998 6.35005C1.8998 6.65005 1.2998 7.45005 1.2998 8.40005V9.65005C1.2998 10.05 1.4998 10.4 1.7498 10.65V11.35C1.6998 11.7 1.8498 12.05 2.0998 12.3C2.3498 12.55 2.6498 12.7 3.0498 12.7C3.3998 12.7 3.7498 12.6 4.0498 12.35C4.2998 12.1 4.4498 11.75 4.4498 11.4V11H4.9498C5.2498 11 5.4498 10.8 5.4498 10.5C5.4498 10.2 5.2498 10 4.9498 10ZM4.4998 4.80005C4.5998 4.50005 4.8998 4.30005 5.1998 4.30005H10.1998C10.4998 4.30005 10.7998 4.50005 10.8998 4.80005L11.5498 6.20005H3.8498L4.4998 4.80005ZM3.4498 11.35C3.4498 11.45 3.3998 11.55 3.3498 11.6C3.2998 11.65 3.1998 11.7 3.0998 11.7C2.9998 11.7 2.8998 11.65 2.8498 11.6C2.7998 11.55 2.7498 11.45 2.7498 11.35V11H3.4498V11.35Z" fill="#2D373D"/>
<path d="M14.1998 10H10.4998C10.2998 9.05004 9.44982 8.35004 8.39982 8.35004C7.19982 8.35004 6.24982 9.30004 6.24982 10.5C6.24982 11.7 7.19982 12.65 8.39982 12.65C9.44982 12.65 10.2498 11.95 10.4998 11H12.0498V11.35C12.0498 11.65 12.2498 11.85 12.5498 11.85C12.7998 11.85 13.0498 11.6 13.0498 11.35V11H13.6998V11.75C13.6998 12.05 13.8998 12.25 14.1998 12.25C14.4498 12.25 14.6998 12 14.6998 11.75V10.5C14.6998 10.2 14.4998 10 14.1998 10ZM8.39982 11.65C7.74982 11.65 7.24982 11.15 7.24982 10.5C7.24982 9.85004 7.74982 9.35004 8.39982 9.35004C9.04982 9.35004 9.54982 9.85004 9.54982 10.5C9.54982 11.15 9.04982 11.65 8.39982 11.65Z" fill="#2D373D"/>
</svg>
