<svg width="16" height="17" viewBox="0 0 16 17" fill="none" xmlns="http://www.w3.org/2000/svg">
<path d="M12.6606 4.6654C12.6606 4.94154 12.8845 5.1654 13.1606 5.1654C13.4368 5.1654 13.6606 4.94154 13.6606 4.6654L13.6606 2.75391C13.6606 2.47776 13.4368 2.25391 13.1606 2.25391L11.2492 2.25391C10.973 2.25391 10.7492 2.47776 10.7492 2.75391C10.7492 3.03005 10.973 3.25391 11.2492 3.25391L12.6606 3.25391L12.6606 4.6654Z" fill="#2D373D"/>
<path d="M8.07895 3.62741C8.00741 3.57419 7.93597 3.57833 7.8818 3.6146C6.73707 4.38092 3.53674 6.64061 2.17215 7.90026C1.96925 8.08756 1.65292 8.07491 1.46561 7.872C1.27831 7.66909 1.29096 7.35276 1.49387 7.16546C2.92272 5.8465 6.18381 3.54791 7.3255 2.78361C7.75111 2.49869 8.28413 2.53368 8.67583 2.82508L14.4648 7.1317C14.6863 7.29652 14.7323 7.60974 14.5675 7.8313C14.4027 8.05286 14.0895 8.09885 13.8679 7.93402L8.07895 3.62741Z" fill="#2D373D"/>
<path d="M12.6663 7.86722C12.9425 7.86722 13.1663 8.09108 13.1663 8.36722V14.3242C13.1663 15.0228 12.6 15.5892 11.9013 15.5892L4.09804 15.5893C3.39938 15.5893 2.83301 15.0229 2.83301 14.3243V8.3673C2.83301 8.09116 3.05687 7.8673 3.33301 7.8673C3.60915 7.8673 3.83301 8.09116 3.83301 8.3673V14.3243C3.83301 14.4706 3.95167 14.5893 4.09804 14.5893L11.9013 14.5892C12.0477 14.5892 12.1663 14.4706 12.1663 14.3242V8.36722C12.1663 8.09108 12.3902 7.86722 12.6663 7.86722Z" fill="#2D373D"/>
<path fill-rule="evenodd" clip-rule="evenodd" d="M9.80068 6.89851C9.82812 7.05849 9.7762 7.22183 9.66143 7.3366L8.30211 8.69592C8.26268 8.73535 8.17575 8.83358 8.13836 8.93828C8.12222 8.98344 8.122 9.01182 8.12513 9.02928C8.12739 9.04188 8.13619 9.07999 8.19734 9.14114C8.25817 9.20196 8.29608 9.21066 8.30873 9.2129C8.32637 9.21604 8.3551 9.21574 8.4007 9.19942C8.50611 9.16168 8.60455 9.0744 8.64257 9.03638L10.0019 7.67706C10.1167 7.56229 10.28 7.51037 10.44 7.53781C10.5999 7.56525 10.7366 7.66863 10.8066 7.81509C11.3488 8.95017 11.2974 10.5195 10.2925 11.5244C9.9841 11.8327 9.62794 12.0642 9.24784 12.2188V13.5096C9.24784 13.7858 9.02398 14.0096 8.74784 14.0096C8.4717 14.0096 8.24784 13.7858 8.24784 13.5096V12.4459C8.08745 12.4557 7.92646 12.4534 7.76636 12.4389V13.5096C7.76636 13.7858 7.5425 14.0096 7.26636 14.0096C6.99022 14.0096 6.76636 13.7858 6.76636 13.5096V12.1795C6.42094 12.026 6.09736 11.8076 5.8141 11.5244C4.57744 10.2877 4.57746 8.28268 5.81414 7.04601C6.81902 6.04113 8.38832 5.98965 9.5234 6.53188C9.66986 6.60184 9.77324 6.73854 9.80068 6.89851ZM8.36866 7.21516C7.69199 7.11604 6.98671 7.28765 6.52124 7.75312C5.67508 8.59928 5.67508 9.97115 6.52121 10.8173C7.36734 11.6634 8.73921 11.6634 9.58537 10.8172C10.0508 10.3518 10.2224 9.6465 10.1233 8.96983L9.34968 9.74348C9.28294 9.81022 9.05663 10.0267 8.73777 10.1409C8.57123 10.2005 8.36295 10.2382 8.13376 10.1975C7.89957 10.1559 7.68083 10.0388 7.49024 9.84825C7.29997 9.65798 7.18279 9.43972 7.14084 9.20584C7.09976 8.97682 7.13709 8.7686 7.19663 8.6019C7.31058 8.28288 7.52745 8.05637 7.595 7.98881L8.36866 7.21516Z" fill="#2D373D"/>
</svg>
