<svg width="24" height="25" viewBox="0 0 24 25" fill="none" xmlns="http://www.w3.org/2000/svg">
<path d="M21.825 10.1352C21.15 7.51016 19.575 5.33516 17.325 3.91016C15.675 2.93516 13.875 2.41016 12 2.41016C6.45 2.41016 1.95 6.91016 1.95 12.3852C1.95 14.1852 2.4 15.9102 3.3 17.4102L1.95 21.5352C1.875 21.7602 1.95 22.0602 2.175 22.2852C2.325 22.4352 2.475 22.5102 2.7 22.5102C2.775 22.5102 2.925 22.5102 3 22.5102L7.05 21.1602C9.3 22.4352 11.85 22.8102 14.325 22.2102C16.95 21.5352 19.125 19.9602 20.55 17.7102C21.975 15.4602 22.425 12.7602 21.825 10.1352ZM19.275 16.8852C18.075 18.8352 16.2 20.1852 13.95 20.7102C11.7 21.2352 9.45 20.8602 7.5 19.7352C7.425 19.6602 7.275 19.5852 7.125 19.5852C7.05 19.5852 6.9 19.5852 6.825 19.5852L3.825 20.5602L4.8 17.4852C4.875 17.2602 4.875 17.0352 4.725 16.8852C3.9 15.5352 3.45 13.9602 3.45 12.3852C3.45 7.73516 7.275 3.91016 12 3.91016C13.575 3.91016 15.15 4.36016 16.5 5.18516C18.45 6.38516 19.8 8.18516 20.325 10.4352C20.85 12.6852 20.475 14.9352 19.275 16.8852Z" fill="#2D373D"/>
<path d="M16.4999 9.08511C15.2999 7.88511 13.3499 7.88511 12.1499 9.08511L11.9999 9.23511L11.8499 9.08511C11.6249 8.86011 11.3249 8.63511 11.0249 8.48511C9.52492 7.66011 7.64992 8.33511 6.89992 9.83511C6.29992 10.9601 6.59992 12.4601 7.49992 13.3601L11.4749 17.4851C11.6249 17.6351 11.7749 17.7101 11.9999 17.7101C12.2249 17.7101 12.3749 17.5601 12.5249 17.4101L16.4999 13.5101C17.4749 12.5351 17.6999 11.1101 17.0999 9.91011C16.9499 9.61011 16.7249 9.31011 16.4999 9.08511ZM15.3749 12.3101L11.9999 15.9101L8.54992 12.3101C8.09992 11.7851 7.94992 11.0351 8.24992 10.4351C8.54992 9.83511 9.07492 9.53511 9.67492 9.53511C9.89992 9.53511 10.1999 9.61011 10.4249 9.68511C10.5749 9.76011 10.6499 9.83511 10.7999 9.98511L11.4749 10.6601C11.7749 10.9601 12.2249 10.9601 12.5249 10.6601L13.1249 10.0601C13.7249 9.46011 14.7749 9.46011 15.3749 10.0601C15.5249 10.1351 15.5999 10.2851 15.6749 10.4351C15.9749 11.1101 15.8999 11.7851 15.3749 12.3101Z" fill="#2D373D"/>
</svg>
