<svg width="16" height="16" viewBox="0 0 16 16" fill="none" xmlns="http://www.w3.org/2000/svg">
<path d="M1.8335 3.5C1.55735 3.5 1.3335 3.72386 1.3335 4C1.3335 4.27614 1.55735 4.5 1.8335 4.5H1.85016C2.12631 4.5 2.35016 4.27614 2.35016 4C2.35016 3.72386 2.12631 3.5 1.85016 3.5H1.8335Z" fill="#2D373D"/>
<path d="M1.8335 7.50909C1.55735 7.50909 1.3335 7.73295 1.3335 8.00909C1.3335 8.28523 1.55735 8.50909 1.8335 8.50909H1.85016C2.12631 8.50909 2.35016 8.28523 2.35016 8.00909C2.35016 7.73295 2.12631 7.50909 1.85016 7.50909H1.8335Z" fill="#2D373D"/>
<path d="M1.8335 11.5C1.55735 11.5 1.3335 11.7239 1.3335 12C1.3335 12.2761 1.55735 12.5 1.8335 12.5H1.85016C2.12631 12.5 2.35016 12.2761 2.35016 12C2.35016 11.7239 2.12631 11.5 1.85016 11.5H1.8335Z" fill="#2D373D"/>
<path d="M4.16683 3.5C3.89069 3.5 3.66683 3.72386 3.66683 4C3.66683 4.27614 3.89069 4.5 4.16683 4.5H14.1668C14.443 4.5 14.6668 4.27614 14.6668 4C14.6668 3.72386 14.443 3.5 14.1668 3.5H4.16683Z" fill="#2D373D"/>
<path d="M4.16683 7.50909C3.89069 7.50909 3.66683 7.73295 3.66683 8.00909C3.66683 8.28523 3.89069 8.50909 4.16683 8.50909H14.1668C14.443 8.50909 14.6668 8.28523 14.6668 8.00909C14.6668 7.73295 14.443 7.50909 14.1668 7.50909H4.16683Z" fill="#2D373D"/>
<path d="M4.16683 11.5C3.89069 11.5 3.66683 11.7239 3.66683 12C3.66683 12.2761 3.89069 12.5 4.16683 12.5H14.1668C14.443 12.5 14.6668 12.2761 14.6668 12C14.6668 11.7239 14.443 11.5 14.1668 11.5H4.16683Z" fill="#2D373D"/>
</svg>
