<svg width="24" height="25" viewBox="0 0 24 25" fill="none" xmlns="http://www.w3.org/2000/svg">
<path fill-rule="evenodd" clip-rule="evenodd" d="M5.74106 6.66374C6.088 6.3168 6.55855 6.12189 7.0492 6.12189H11.4491C11.9398 6.12189 12.4103 6.3168 12.7573 6.66374C13.1042 7.01069 13.2991 7.48124 13.2991 7.97189C13.2991 8.46253 13.1042 8.93309 12.7573 9.28003C12.4103 9.62697 11.9398 9.82189 11.4491 9.82189H7.0492C6.55855 9.82189 6.088 9.62697 5.74106 9.28003C5.39412 8.93309 5.19922 8.46253 5.19922 7.97189C5.19922 7.48124 5.39412 7.01069 5.74106 6.66374ZM7.0492 7.62189C6.95638 7.62189 6.86737 7.65876 6.80173 7.7244C6.73609 7.79003 6.69922 7.87906 6.69922 7.97189C6.69922 8.06472 6.73609 8.15374 6.80173 8.21938C6.86737 8.28501 6.95638 8.32189 7.0492 8.32189H11.4491C11.5419 8.32189 11.631 8.28501 11.6966 8.21938C11.7622 8.15374 11.7991 8.06472 11.7991 7.97189C11.7991 7.87906 11.7622 7.79003 11.6966 7.7244C11.631 7.65876 11.5419 7.62189 11.4491 7.62189H7.0492Z" fill="#2D373D"/>
<path fill-rule="evenodd" clip-rule="evenodd" d="M3 20.4385C3 21.2577 3.66409 21.9219 4.48332 21.9219H14.0165C14.8357 21.9219 15.4998 21.2577 15.4998 20.4385V8.72192H15.848C15.9408 8.72192 16.0299 8.7588 16.0955 8.82443C16.1611 8.89007 16.198 8.97909 16.198 9.07192V20.0719C16.198 20.5626 16.3929 21.0331 16.7399 21.3801C17.0868 21.727 17.5573 21.9219 18.048 21.9219C18.5386 21.9219 19.0092 21.727 19.3561 21.3801C19.7031 21.0331 19.898 20.5626 19.898 20.0719V14.2219H20.2504C20.6646 14.2219 21.0004 13.8861 21.0004 13.4719C21.0004 13.0576 20.6646 12.7219 20.2504 12.7219H19.9971C20.078 12.4208 20.2077 12.1332 20.3823 11.8711L20.8716 11.1385C21.1017 10.7941 21.009 10.3283 20.6646 10.0983C20.3201 9.86819 19.8544 9.96089 19.6243 10.3053L19.1339 11.0394C18.654 11.7599 18.3979 12.6063 18.398 13.472V20.0719C18.398 20.1647 18.3611 20.2538 18.2955 20.3194C18.2298 20.385 18.1408 20.4219 18.048 20.4219C17.9552 20.4219 17.8662 20.385 17.8005 20.3194C17.7349 20.2538 17.698 20.1647 17.698 20.0719V9.07192C17.698 8.58128 17.5031 8.11072 17.1562 7.76378C16.8092 7.41684 16.3387 7.22192 15.848 7.22192H15.4998V5.40521C15.4998 4.586 14.8357 3.92188 14.0165 3.92188H4.48332C3.66409 3.92188 3 4.586 3 5.40521V20.4385ZM4.5 12.0219V20.4219H13.9998V12.0219H4.5ZM13.998 7.97192C13.998 7.95445 13.9986 7.93711 13.9998 7.91993V5.42188H4.5V10.5219H13.9998V8.02391C13.9986 8.00674 13.998 7.9894 13.998 7.97192Z" fill="#2D373D"/>
</svg>
