<svg width="32" height="32" viewBox="0 0 32 32" fill="none" xmlns="http://www.w3.org/2000/svg">
<path d="M28.3001 5.2999H22.2001V4.8999C22.2001 4.2999 21.8001 3.8999 21.2001 3.8999C20.6001 3.8999 20.2001 4.2999 20.2001 4.8999V5.2999H11.7001V4.8999C11.7001 4.2999 11.3001 3.8999 10.7001 3.8999C10.1001 3.8999 9.7001 4.2999 9.7001 4.8999V5.2999H3.6001C3.0001 5.2999 2.6001 5.6999 2.6001 6.2999V25.6999C2.6001 26.2999 3.0001 26.6999 3.6001 26.6999H28.3001C28.9001 26.6999 29.3001 26.2999 29.3001 25.7999V6.2999C29.3001 5.6999 28.9001 5.2999 28.3001 5.2999ZM9.7001 7.2999V7.5999C9.7001 8.1999 10.1001 8.5999 10.7001 8.5999C11.3001 8.5999 11.7001 8.1999 11.7001 7.5999V7.2999H20.2001V7.5999C20.2001 8.1999 20.6001 8.5999 21.2001 8.5999C21.8001 8.5999 22.2001 8.1999 22.2001 7.5999V7.2999H27.3001V11.2999H4.6001V7.2999H9.7001ZM4.6001 24.6999V13.2999H27.3001V24.6999H4.6001Z" fill="#2D373D"/>
<path fill-rule="evenodd" clip-rule="evenodd" d="M16.022 14.7335C16.5743 14.7335 17.022 15.1812 17.022 15.7335V22.3113C17.022 22.8635 16.5743 23.3113 16.022 23.3113C15.4697 23.3113 15.022 22.8635 15.022 22.3113V15.7335C15.022 15.1812 15.4697 14.7335 16.022 14.7335Z" fill="#2D373D"/>
<path fill-rule="evenodd" clip-rule="evenodd" d="M11.7332 19.0224C11.7332 18.4701 12.1809 18.0224 12.7332 18.0224H19.3109C19.8632 18.0224 20.3109 18.4701 20.3109 19.0224C20.3109 19.5747 19.8632 20.0224 19.3109 20.0224H12.7332C12.1809 20.0224 11.7332 19.5747 11.7332 19.0224Z" fill="#2D373D"/>
</svg>
