<svg width="64" height="65" viewBox="0 0 64 65" fill="none" xmlns="http://www.w3.org/2000/svg">
<path d="M12.2734 12.7343C12.4484 12.5593 12.6858 12.4609 12.9333 12.4609H33.4667C33.7142 12.4609 33.9516 12.5593 34.1266 12.7343C34.3017 12.9093 34.4 13.1467 34.4 13.3943V19.2609C34.4 20.3655 35.2954 21.2609 36.4 21.2609C37.5046 21.2609 38.4 20.3655 38.4 19.2609V13.3943C38.4 12.0859 37.8802 10.8311 36.9551 9.90588C36.0299 8.9807 34.7751 8.46094 33.4667 8.46094H12.9333C11.6249 8.46094 10.3701 8.9807 9.44494 9.90588C8.51976 10.8311 8 12.0859 8 13.3943V28.0609C8 29.3693 8.51976 30.6242 9.44494 31.5493C10.3701 32.4745 11.6249 32.9943 12.9333 32.9943H13.8667V39.7943C13.8667 40.6032 14.354 41.3325 15.1013 41.642C15.8486 41.9516 16.7089 41.7805 17.2809 41.2085L23.1475 35.3418C23.9286 34.5608 23.9286 33.2944 23.1475 32.5134C22.3665 31.7323 21.1002 31.7323 20.3191 32.5134L17.8667 34.9658V30.9943C17.8667 29.8897 16.9712 28.9943 15.8667 28.9943H12.9333C12.6858 28.9943 12.4484 28.8959 12.2734 28.7209C12.0983 28.5459 12 28.3085 12 28.0609V13.3943C12 13.1467 12.0983 12.9093 12.2734 12.7343Z" fill="#2D373D"/>
<path fill-rule="evenodd" clip-rule="evenodd" d="M30.5334 23.1277C29.225 23.1277 27.9702 23.6474 27.045 24.5726C26.1199 25.4978 25.6001 26.7526 25.6001 28.061V42.7277C25.6001 44.0361 26.1199 45.2909 27.045 46.2161C27.9702 47.1413 29.225 47.661 30.5334 47.661H38.505L46.7192 55.8752C47.2912 56.4472 48.1515 56.6183 48.8988 56.3088C49.6461 55.9992 50.1334 55.2699 50.1334 54.461V47.661H51.0668C52.3752 47.661 53.63 47.1413 54.5552 46.2161C55.4803 45.2909 56.0001 44.0361 56.0001 42.7277V28.061C56.0001 26.7526 55.4803 25.4978 54.5552 24.5726C53.63 23.6474 52.3752 23.1277 51.0668 23.1277H30.5334ZM29.8735 27.4011C30.0485 27.226 30.2859 27.1277 30.5334 27.1277H51.0668C51.3143 27.1277 51.5517 27.226 51.7267 27.4011C51.9018 27.5761 52.0001 27.8135 52.0001 28.061V42.7277C52.0001 42.9752 51.9018 43.2126 51.7267 43.3876C51.5517 43.5627 51.3143 43.661 51.0668 43.661H48.1334C47.0289 43.661 46.1334 44.5564 46.1334 45.661V49.6326L40.7476 44.2468C40.3726 43.8717 39.8639 43.661 39.3334 43.661H30.5334C30.2859 43.661 30.0485 43.5627 29.8735 43.3876C29.6984 43.2126 29.6001 42.9752 29.6001 42.7277V28.061C29.6001 27.8135 29.6984 27.5761 29.8735 27.4011Z" fill="#2D373D"/>
</svg>
