<svg width="24" height="25" viewBox="0 0 24 25" fill="none" xmlns="http://www.w3.org/2000/svg">
<path fill-rule="evenodd" clip-rule="evenodd" d="M11.9992 6.62189C10.3284 6.62189 8.72593 7.28564 7.54445 8.46711C6.36297 9.64859 5.69922 11.251 5.69922 12.9219C5.69922 14.5928 6.36297 16.1952 7.54445 17.3767C8.72593 18.5581 10.3284 19.2219 11.9992 19.2219C13.3256 19.2219 14.6088 18.8036 15.6726 18.0402C15.683 18.0334 15.6933 18.0262 15.7035 18.0188C15.7138 18.0113 15.7239 18.0036 15.7337 17.9957C15.9875 17.8089 16.2284 17.6022 16.454 17.3767C17.6355 16.1952 18.2992 14.5928 18.2992 12.9219C18.2992 12.2717 18.1987 11.6319 18.0063 11.0232C18.0022 11.0071 17.9976 10.991 17.9924 10.9749C17.9872 10.9589 17.9815 10.9433 17.9753 10.9279C17.6688 10.0092 17.1517 9.16478 16.454 8.46711C15.2728 7.28592 13.6708 6.6222 12.0004 6.62189H11.9992ZM16.2767 10.7439C16.05 10.2987 15.7532 9.88762 15.3933 9.52777C14.6721 8.80651 13.7449 8.3385 12.75 8.18095V10.4323C13.1575 10.555 13.5325 10.777 13.8389 11.0834C13.9492 11.1938 14.0486 11.313 14.1364 11.4395L16.2767 10.7439ZM14.5998 12.8661C14.6002 12.8847 14.6004 12.9033 14.6004 12.9219C14.6004 13.4932 14.4124 14.0451 14.0706 14.4949L15.3934 16.3159C16.2935 15.4157 16.7992 14.1949 16.7992 12.9219C16.7992 12.6687 16.7792 12.4175 16.7401 12.1705L14.5998 12.8661ZM14.1801 17.1978L12.8571 15.3767C12.5843 15.4719 12.2949 15.5219 12.0004 15.5219C11.7059 15.5219 11.4165 15.4719 11.1436 15.3767L9.81966 17.1985C10.4885 17.5394 11.2345 17.7219 11.9992 17.7219C12.7645 17.7219 13.5109 17.5391 14.1801 17.1978ZM12.6471 13.8115L12.6555 13.8056C12.6987 13.7735 12.7397 13.7382 12.7782 13.6997C12.9845 13.4934 13.1004 13.2136 13.1004 12.9219C13.1004 12.6302 12.9845 12.3504 12.7782 12.1441C12.5719 11.9378 12.2921 11.8219 12.0004 11.8219C11.7087 11.8219 11.4289 11.9378 11.2226 12.1441C11.0163 12.3504 10.9004 12.6302 10.9004 12.9219C10.9004 13.2136 11.0163 13.4934 11.2226 13.6997C11.2604 13.7376 11.3007 13.7724 11.3431 13.804L11.3539 13.8116L11.3644 13.8194C11.5491 13.9503 11.7711 14.0219 12.0004 14.0219C12.2307 14.0219 12.4535 13.9497 12.6386 13.8178L12.6471 13.8115ZM8.60606 16.3169L9.93019 14.4949C9.58841 14.0451 9.40039 13.4932 9.40039 12.9219C9.40039 12.9034 9.40059 12.8849 9.40098 12.8664L7.25844 12.1701C7.21925 12.4172 7.19922 12.6685 7.19922 12.9219C7.19922 14.1949 7.70493 15.4158 8.60511 16.316L8.60606 16.3169ZM10.1619 11.0834C10.0515 11.1938 9.95203 11.3132 9.86423 11.4397L7.722 10.7435C7.94864 10.2985 8.24538 9.88751 8.60511 9.52777C9.32674 8.80614 10.2545 8.33801 11.25 8.1807V10.4325C10.8428 10.5553 10.4681 10.7772 10.1619 11.0834Z" fill="#2D373D"/>
<path fill-rule="evenodd" clip-rule="evenodd" d="M12 2.92188C9.34784 2.92188 6.8043 3.97544 4.92893 5.85081C3.05357 7.72617 2 10.2697 2 12.9219C2 15.574 3.05357 18.1176 4.92893 19.9929C6.8043 21.8683 9.34784 22.9219 12 22.9219C14.6522 22.9219 17.1957 21.8683 19.0711 19.9929C20.9464 18.1176 22 15.574 22 12.9219C22 10.2697 20.9464 7.72617 19.0711 5.85081C17.1957 3.97544 14.6522 2.92188 12 2.92188ZM5.98959 6.91147C7.58365 5.31741 9.74566 4.42188 12 4.42188C14.2543 4.42188 16.4163 5.31741 18.0104 6.91147C19.6045 8.50553 20.5 10.6675 20.5 12.9219C20.5 15.1762 19.6045 17.3382 18.0104 18.9323C16.4163 20.5263 14.2543 21.4219 12 21.4219C9.74566 21.4219 7.58365 20.5263 5.98959 18.9323C4.39553 17.3382 3.5 15.1762 3.5 12.9219C3.5 10.6675 4.39553 8.50553 5.98959 6.91147Z" fill="#2D373D"/>
</svg>
