<svg width="64" height="65" viewBox="0 0 64 65" fill="none" xmlns="http://www.w3.org/2000/svg">
<path d="M15.3996 32.9252C16.9996 32.9252 18.1996 31.7252 18.1996 30.1252C18.1996 28.5252 16.9996 27.3252 15.3996 27.3252C13.7996 27.3252 12.5996 28.5252 12.5996 30.1252C12.5996 31.7252 13.7996 32.9252 15.3996 32.9252Z" fill="#2D373D"/>
<path d="M48.5988 49.5248C50.1988 49.5248 51.3988 48.3248 51.3988 46.7248C51.3988 45.1248 50.1988 43.9248 48.5988 43.9248C46.9988 43.9248 45.7988 45.1248 45.7988 46.7248C45.7988 48.3248 46.9988 49.5248 48.5988 49.5248Z" fill="#2D373D"/>
<path d="M56.7992 19.9248H7.19922C5.99922 19.9248 5.19922 20.7248 5.19922 21.9248V54.9248C5.19922 56.1248 5.99922 56.9248 7.19922 56.9248H56.7992C57.9992 56.9248 58.7992 56.1248 58.7992 54.9248V21.9248C58.7992 20.7248 57.9992 19.9248 56.7992 19.9248ZM54.7992 52.9248H9.19922V23.9248H54.7992V52.9248Z" fill="#2D373D"/>
<path d="M31.9984 47.1248C36.7984 47.1248 40.5984 43.1248 40.5984 38.5248C40.5984 33.7248 36.7984 29.9248 31.9984 29.9248C27.1984 29.9248 23.3984 33.7248 23.3984 38.5248C23.3984 43.3248 27.1984 47.1248 31.9984 47.1248ZM31.9984 33.7248C34.5984 33.7248 36.5984 35.7248 36.5984 38.3248C36.5984 40.9248 34.5984 42.9248 31.9984 42.9248C29.3984 42.9248 27.3984 40.9248 27.3984 38.3248C27.3984 35.7248 29.3984 33.7248 31.9984 33.7248Z" fill="#2D373D"/>
<path d="M10.5996 16.9253H53.5996C54.5996 16.9253 55.5996 16.1253 55.5996 14.9253C55.5996 13.7253 54.7996 12.9253 53.5996 12.9253H10.5996C9.39961 12.9253 8.59961 13.7253 8.59961 14.9253C8.59961 16.1253 9.39961 16.9253 10.5996 16.9253Z" fill="#2D373D"/>
<path d="M17.1992 10.125H46.7992C47.9992 10.125 48.9992 9.325 48.9992 8.125C48.9992 6.925 48.1992 6.125 46.9992 6.125H17.1992C15.9992 6.125 15.1992 6.925 15.1992 8.125C15.1992 9.325 15.9992 10.125 17.1992 10.125Z" fill="#2D373D"/>
</svg>
