<svg width="24" height="25" viewBox="0 0 24 25" fill="none" xmlns="http://www.w3.org/2000/svg">
<path fill-rule="evenodd" clip-rule="evenodd" d="M7.05001 3.46094C6.55936 3.46094 6.08881 3.65585 5.74186 4.00279C5.39492 4.34973 5.20001 4.82029 5.20001 5.31094V8.06094C5.20001 8.47515 5.5358 8.81094 5.95001 8.81094C6.29496 8.81094 6.58552 8.57807 6.67305 8.26096H19.5V13.5609C19.5 13.9752 19.8358 14.3109 20.25 14.3109C20.6642 14.3109 21 13.9752 21 13.5609V5.31094C21 4.82029 20.8051 4.34973 20.4582 4.00279C20.1112 3.65585 19.6407 3.46094 19.15 3.46094H7.05001ZM19.5 6.76096V5.31094C19.5 5.21811 19.4631 5.12909 19.3975 5.06345C19.3319 4.99781 19.2428 4.96094 19.15 4.96094H7.05001C6.95719 4.96094 6.86816 4.99781 6.80252 5.06345C6.73689 5.12909 6.70001 5.21811 6.70001 5.31094V6.76096H19.5Z" fill="#2D373D"/>
<path d="M5.20001 16.861C5.20001 16.4467 5.5358 16.111 5.95001 16.111H7.60001C8.01423 16.111 8.35001 16.4467 8.35001 16.861C8.35001 17.2752 8.01423 17.611 7.60001 17.611H5.95001C5.5358 17.611 5.20001 17.2752 5.20001 16.861Z" fill="#2D373D"/>
<path fill-rule="evenodd" clip-rule="evenodd" d="M12.9086 15.1076C12.4829 14.9746 12.0261 14.979 11.603 15.12C11.1799 15.261 10.8119 15.5316 10.5511 15.8934C10.2903 16.2553 10.15 16.69 10.15 17.136C10.15 17.582 10.2903 18.0167 10.5511 18.3785C10.8119 18.7403 11.1799 19.0109 11.603 19.1519C12.0261 19.2929 12.4829 19.2973 12.9086 19.1643C13.0729 19.113 13.2294 19.0422 13.375 18.9541C13.5206 19.0422 13.6771 19.113 13.8414 19.1643C14.2671 19.2973 14.7239 19.2929 15.147 19.1519C15.5701 19.0109 15.9381 18.7403 16.1989 18.3785C16.4597 18.0167 16.6 17.582 16.6 17.136C16.6 16.69 16.4597 16.2553 16.1989 15.8934C15.9381 15.5316 15.5701 15.261 15.147 15.12C14.7239 14.979 14.2671 14.9746 13.8414 15.1076C13.6771 15.1589 13.5206 15.2297 13.375 15.3178C13.2294 15.2297 13.0729 15.1589 12.9086 15.1076ZM12.0774 16.543C12.2018 16.5015 12.3362 16.5003 12.4614 16.5394C12.5866 16.5785 12.6963 16.656 12.775 16.761C12.9167 16.9498 13.1389 17.061 13.375 17.061C13.6111 17.061 13.8334 16.9498 13.975 16.761C14.0537 16.656 14.1635 16.5785 14.2887 16.5394C14.4139 16.5003 14.5482 16.5015 14.6727 16.543C14.7971 16.5845 14.9053 16.6641 14.982 16.7705C15.0587 16.8769 15.1 17.0048 15.1 17.136C15.1 17.2671 15.0587 17.395 14.982 17.5014C14.9053 17.6078 14.7971 17.6874 14.6727 17.7289C14.5482 17.7704 14.4139 17.7716 14.2887 17.7325C14.1635 17.6934 14.0537 17.6159 13.975 17.511C13.8334 17.3221 13.6111 17.211 13.375 17.211C13.1389 17.211 12.9167 17.3221 12.775 17.511C12.6963 17.6159 12.5866 17.6934 12.4614 17.7325C12.3362 17.7716 12.2018 17.7704 12.0774 17.7289C11.9529 17.6874 11.8447 17.6078 11.768 17.5014C11.6913 17.395 11.65 17.2671 11.65 17.136C11.65 17.0048 11.6913 16.8769 11.768 16.7705C11.8447 16.6641 11.9529 16.5845 12.0774 16.543Z" fill="#2D373D"/>
<path fill-rule="evenodd" clip-rule="evenodd" d="M3 19.6109C3 20.6327 3.82827 21.4609 4.85 21.4609H16.95C17.9717 21.4609 18.8 20.6327 18.8 19.6109V11.3609C18.8 10.3392 17.9717 9.51093 16.95 9.51093H4.85C3.82827 9.51093 3 10.3392 3 11.3609V19.6109ZM4.85 11.0109C4.6567 11.0109 4.5 11.1676 4.5 11.3609V12.8109H17.3V11.3609C17.3 11.1676 17.1433 11.0109 16.95 11.0109H4.85ZM17.3 14.3109H4.5V19.6109C4.5 19.8042 4.6567 19.9609 4.85 19.9609H16.95C17.1433 19.9609 17.3 19.8042 17.3 19.6109V14.3109Z" fill="#2D373D"/>
</svg>
