<svg width="32" height="33" viewBox="0 0 32 33" fill="none" xmlns="http://www.w3.org/2000/svg">
<path fill-rule="evenodd" clip-rule="evenodd" d="M9.99967 12.2565C12.3929 12.2565 14.333 10.3164 14.333 7.92318C14.333 5.52994 12.3929 3.58984 9.99967 3.58984C7.60644 3.58984 5.66634 5.52994 5.66634 7.92318C5.66634 10.3164 7.60644 12.2565 9.99967 12.2565ZM9.99967 10.2565C11.2883 10.2565 12.333 9.21184 12.333 7.92318C12.333 6.63451 11.2883 5.58984 9.99967 5.58984C8.71101 5.58984 7.66634 6.63451 7.66634 7.92318C7.66634 9.21184 8.71101 10.2565 9.99967 10.2565Z" fill="#2D373D"/>
<path d="M8.328 12.6375C8.63972 13.0934 8.52283 13.7157 8.06693 14.0274C7.69353 14.2827 7.33301 14.6756 7.33301 15.2573V20.5906C7.33301 20.923 7.41385 21.4135 7.61291 21.7822C7.78858 22.1075 7.99537 22.2573 8.33301 22.2573C8.88529 22.2573 9.33301 22.705 9.33301 23.2573V26.5906C9.33301 27.09 9.47268 27.5278 9.69328 27.8155C9.88959 28.0716 10.181 28.2573 10.6663 28.2573C11.1517 28.2573 11.4431 28.0716 11.6394 27.8155C11.86 27.5278 11.9997 27.09 11.9997 26.5906V23.2573C11.9997 22.8269 12.2751 22.4447 12.6834 22.3086C13.0093 22.2 13.6022 21.8369 13.8617 21.2572C14.0873 20.7531 14.6789 20.5274 15.183 20.753C15.6871 20.9787 15.9128 21.5702 15.6871 22.0743C15.2923 22.9563 14.6049 23.5452 13.9997 23.8933V26.5906C13.9997 27.4246 13.7727 28.3201 13.2266 29.0324C12.6563 29.7763 11.781 30.2573 10.6663 30.2573C9.55167 30.2573 8.67642 29.7763 8.10607 29.0324C7.56001 28.3201 7.33301 27.4246 7.33301 26.5906V24.0811C6.6335 23.8158 6.15187 23.2857 5.8531 22.7325C5.45217 21.99 5.33301 21.1472 5.33301 20.5906V15.2573C5.33301 13.7125 6.32916 12.7928 6.93809 12.3764C7.39399 12.0647 8.01628 12.1816 8.328 12.6375Z" fill="#2D373D"/>
<path fill-rule="evenodd" clip-rule="evenodd" d="M11.0535 13.2291C10.6629 12.8386 10.0298 12.8386 9.63925 13.2291C9.24872 13.6196 9.24872 14.2528 9.63925 14.6433L16.8976 21.9016C16.2986 22.9356 16.21 24.2123 16.7369 25.4152C16.8935 25.7726 17.2214 26.2437 17.5415 26.674C17.8839 27.1346 18.2947 27.6491 18.6857 28.1256C19.0779 28.6035 19.456 29.0504 19.7358 29.3773C19.8758 29.541 19.9915 29.675 20.0724 29.7683L20.1664 29.8764L20.2004 29.9154C20.3827 30.1236 20.6431 30.2469 20.9197 30.2561C21.1962 30.2652 21.4642 30.1594 21.6598 29.9637L26.3739 25.2497C26.5671 25.0565 26.6728 24.7926 26.6665 24.5194C26.6602 24.2462 26.5415 23.9868 26.3395 23.8027L26.3305 23.7945L26.3041 23.7705L26.2046 23.6809C26.1188 23.6038 25.9952 23.4935 25.8433 23.3595C25.5397 23.0918 25.1207 22.728 24.6602 22.3445C24.2011 21.9621 23.6936 21.5543 23.2145 21.2011C22.7509 20.8595 22.2591 20.5277 21.8449 20.3356C20.6314 19.7727 19.3432 19.8834 18.3108 20.4864L11.0535 13.2291ZM24.2086 24.5866L21.0083 27.7869C20.7766 27.5137 20.5074 27.1927 20.2318 26.8569C19.8498 26.3914 19.4616 25.9045 19.1464 25.4806C18.8087 25.0265 18.6202 24.73 18.5689 24.6127C18.2225 23.822 18.3981 23.046 18.9271 22.517C19.4687 21.9753 20.2503 21.8006 21.0034 22.1499C21.2223 22.2515 21.5773 22.479 22.0279 22.8111C22.463 23.1317 22.937 23.5121 23.3803 23.8813C23.6816 24.1322 23.9653 24.3752 24.2086 24.5866Z" fill="#2D373D"/>
</svg>
