<svg width="64" height="65" viewBox="0 0 64 65" fill="none" xmlns="http://www.w3.org/2000/svg">
<path d="M58.44 23.9955L57.56 27.1689C57.2667 28.2355 56.1467 28.8489 55.1067 28.5555C54.04 28.2622 53.4267 27.1689 53.72 26.1022L54.6 22.9289C54.76 22.3155 54.6267 21.6755 54.2534 21.1689C53.88 20.6622 53.2934 20.3955 52.6534 20.3955H11.3467C10.7067 20.3955 10.12 20.6622 9.74671 21.1689C9.37338 21.6755 9.24005 22.3155 9.42671 22.9289L14.9734 42.3689C15.2134 43.2222 16.0134 43.8089 16.8934 43.8089H25.48C26.6 43.8089 27.48 44.7155 27.48 45.8089C27.48 46.9022 26.6 47.8089 25.48 47.8089H16.8934C14.2267 47.8089 11.8534 46.0222 11.1334 43.4622L5.56005 24.0222C5.05338 22.2089 5.40005 20.2889 6.54671 18.7689C7.69338 17.2489 9.45338 16.3689 11.3467 16.3689H14.3867L23.2134 6.90221C23.9867 6.10221 25.24 6.04887 26.04 6.79554C26.84 7.54221 26.8934 8.82221 26.1467 9.62221L19.8534 16.3689H44.1734L37.88 9.62221C37.1334 8.82221 37.1867 7.54221 37.9867 6.79554C38.7867 6.04887 40.0667 6.07554 40.8134 6.90221L49.64 16.3689H52.6534C54.5467 16.3689 56.28 17.2489 57.4267 18.7422C58.5734 20.2622 58.9467 22.1555 58.44 23.9955Z" fill="#2D373D"/>
<path d="M58.5465 45.7501C57.9865 50.9234 55.5599 55.6701 52.0665 58.4701C49.1065 60.4434 46.0132 59.4034 44.0132 58.0968C42.7865 58.8968 41.1865 59.5901 39.4532 59.5901C38.3599 59.6168 37.1865 59.3234 36.0665 58.5768C31.2932 54.7368 28.5732 47.4834 29.5065 41.2168C30.0932 37.2701 32.0665 34.4168 35.0799 33.2168C37.5599 32.2301 39.9865 32.5501 42.0132 33.5901V32.3634C42.0132 31.2434 42.8932 30.3634 44.0132 30.3634C45.1332 30.3634 46.0132 31.2434 46.0132 32.3634V37.8034C46.0132 38.6568 45.4532 39.4301 44.6265 39.6968C43.8265 39.9634 42.9199 39.6968 42.4132 39.0034C42.3065 38.8701 39.8265 35.6168 36.5732 36.9234C34.3599 37.8034 33.6932 40.3634 33.4799 41.8034C32.8399 45.9901 34.5465 52.2301 38.4399 55.3501C40.1465 56.4701 42.5732 54.1501 42.5999 54.1234C43.3732 53.3501 44.6532 53.3501 45.4265 54.1234C45.4265 54.1501 47.8532 56.4701 49.7199 55.2434C52.2265 53.2168 54.1465 49.3768 54.5732 45.3234C54.8932 42.3368 54.3599 39.7501 53.1332 38.2034C52.9999 38.0434 52.8932 37.9101 52.7599 37.7768C51.9599 37.0301 51.9065 35.7501 52.6799 34.9501C53.4265 34.1501 54.7065 34.1234 55.5065 34.8701C55.7732 35.1368 56.0132 35.4034 56.2265 35.6701C58.1732 38.0701 58.9999 41.6434 58.5465 45.7501Z" fill="#2D373D"/>
<path d="M53.4265 29.8852C53.4265 30.9786 53.2932 32.7652 52.1732 33.8852C51.0798 34.9786 49.2932 35.1386 48.1998 35.1119C47.6132 35.1119 47.1598 34.6586 47.1598 34.0719C47.1332 32.9786 47.2932 31.2186 48.4132 30.0986C49.5332 28.9786 51.2932 28.8186 52.3865 28.8452C52.9732 28.8719 53.4265 29.2986 53.4265 29.8852Z" fill="#2D373D"/>
</svg>
