<svg width="24" height="24" viewBox="0 0 24 24" fill="none" xmlns="http://www.w3.org/2000/svg">
<path d="M17.7 6.90005H17.625C17.625 6.90005 17.625 6.90005 17.55 6.90005H15.825V6.67505C15.975 5.55005 15.075 4.50005 13.875 4.42505H3.90004C2.70004 4.50005 1.87504 5.55005 1.95004 6.60005V13.8C1.95004 14.25 2.25004 14.55 2.70004 14.55C3.15004 14.55 3.45004 14.25 3.45004 13.8V6.52505C3.45004 6.22505 3.67504 5.92505 3.90004 5.92505H13.8C14.1 5.92505 14.325 6.22505 14.325 6.60005V7.27505C14.25 7.35005 14.25 7.50005 14.25 7.65005V12.525C14.25 12.975 14.55 13.275 15 13.275C15.375 13.275 15.6 13.05 15.675 12.75C15.75 12.6 15.825 12.525 15.825 12.375V8.32505H16.875V11.325C16.8 12.45 17.7 13.35 18.825 13.35H20.475V16.275C20.475 16.575 20.325 16.8 20.025 16.8H19.425C18.975 16.8 18.675 17.1 18.675 17.55C18.675 18 18.975 18.3 19.425 18.3H20.025C21.15 18.3 22.05 17.4 21.975 16.35V11.4C21.975 9.00005 20.1 7.05005 17.7 6.90005ZM18.9 11.85C18.6 11.85 18.375 11.625 18.375 11.325V8.47505C19.575 8.85005 20.475 9.97505 20.475 11.325V11.85H18.9Z" fill="#2D373D"/>
<path d="M15.675 14.25C14.25 14.25 13.05 15.45 13.05 16.875C13.05 18.3 14.25 19.5 15.675 19.5C17.175 19.5 18.3 18.375 18.3 16.875C18.3 15.45 17.1 14.25 15.675 14.25ZM15.675 18.075C15.075 18.075 14.55 17.55 14.55 16.95C14.55 16.35 15.075 15.825 15.675 15.825C16.35 15.825 16.8 16.275 16.8 16.95C16.8 17.55 16.275 18.075 15.675 18.075Z" fill="#2D373D"/>
<path d="M5.77505 14.25C4.35005 14.25 3.15005 15.45 3.15005 16.875C3.15005 18.3 4.35005 19.5 5.77505 19.5C7.20006 19.5 8.40005 18.375 8.40005 16.875C8.40005 15.45 7.20006 14.25 5.77505 14.25ZM5.77505 18.075C5.17505 18.075 4.65005 17.55 4.65005 16.95C4.65005 16.35 5.17505 15.825 5.77505 15.825C6.37506 15.825 6.90005 16.275 6.90005 16.95C6.90005 17.55 6.37506 18.075 5.77505 18.075Z" fill="#2D373D"/>
<path d="M12.0001 16.8H9.52505C9.07506 16.8 8.77505 17.1 8.77505 17.55C8.77505 18 9.07506 18.3 9.52505 18.3H12.0001C12.3751 18.3 12.7501 17.925 12.7501 17.55C12.7501 17.1 12.4501 16.8 12.0001 16.8Z" fill="#2D373D"/>
</svg>
