<svg width="16" height="17" viewBox="0 0 16 17" fill="none" xmlns="http://www.w3.org/2000/svg">
<path d="M12.6999 9.31094C12.9999 9.31094 13.1999 9.11094 13.1999 8.81094V6.86094C13.2499 6.81094 13.2499 6.71094 13.2499 6.66094C13.2499 6.56094 13.1999 6.51094 13.1999 6.41094C13.1499 6.16094 13.0499 5.91094 12.8499 5.71094L9.9499 2.81094C9.7499 2.61094 9.4499 2.46094 9.0999 2.46094H3.8999C3.1999 2.46094 2.6499 2.96094 2.6499 3.71094V13.2609C2.6499 13.9609 3.1999 14.4609 3.8999 14.4609H5.3499C5.6499 14.4609 5.8499 14.3109 5.8499 14.0109C5.8499 13.7109 5.6499 13.5109 5.3499 13.5109H3.8999C3.7499 13.5109 3.6499 13.4109 3.6499 13.2609V3.71094C3.6499 3.56094 3.7499 3.46094 3.8999 3.46094H8.5499V5.91094C8.5499 6.61094 9.0999 7.16094 9.7999 7.16094H12.1999V8.81094C12.1999 9.06094 12.3999 9.31094 12.6999 9.31094ZM9.5499 5.86094V3.76094L11.8999 6.11094H9.7999C9.6499 6.11094 9.5499 6.06094 9.5499 5.86094Z" fill="#2D373D"/>
<path d="M7.19985 9.86099C7.04985 9.81099 6.94985 9.76099 6.84985 9.76099C6.54985 9.76099 6.34985 9.96099 6.34985 10.261V13.961C6.34985 14.261 6.54985 14.461 6.84985 14.461C7.09985 14.461 7.34985 14.261 7.34985 13.961V13.061C8.19985 13.011 8.84985 12.311 8.84985 11.411C8.84985 11.011 8.64985 10.611 8.34985 10.311C7.99985 10.061 7.59985 9.86099 7.19985 9.86099ZM7.34985 12.011V10.911C7.44985 10.911 7.59985 10.961 7.64985 11.061C7.79985 11.161 7.84985 11.311 7.84985 11.461C7.84985 11.711 7.59985 11.911 7.34985 12.011Z" fill="#2D373D"/>
<path d="M9.7998 9.81091C9.4998 9.81091 9.2998 10.0109 9.2998 10.3109V13.9609C9.2998 14.2609 9.4998 14.4609 9.7998 14.4609C10.8498 14.4609 11.7498 13.5609 11.7498 12.4609V11.7109C11.7498 10.7109 10.8998 9.81091 9.7998 9.81091ZM10.7498 12.4609C10.7498 12.8109 10.5998 13.1609 10.2998 13.3109V10.9609C10.5498 11.1609 10.7498 11.4609 10.7498 11.7609V12.4609Z" fill="#2D373D"/>
<path d="M13.5 10.8109H14.25C14.55 10.8109 14.75 10.6109 14.75 10.3109C14.75 10.0109 14.55 9.81091 14.25 9.81091H13.5C12.8 9.81091 12.25 10.3609 12.25 11.0609V13.9609C12.25 14.2609 12.45 14.4609 12.75 14.4609C13 14.4609 13.25 14.2609 13.25 13.9609V13.0109H13.85C14.1 13.0109 14.35 12.8109 14.35 12.5109C14.35 12.2109 14.15 12.0109 13.85 12.0109H13.25V11.0109C13.25 10.8609 13.35 10.8109 13.5 10.8109Z" fill="#2D373D"/>
</svg>
