<svg width="64" height="65" viewBox="0 0 64 65" fill="none" xmlns="http://www.w3.org/2000/svg">
<path d="M58.2002 29.6597C57.6002 28.2597 56.4002 27.0597 55.0002 26.4597L48.6002 23.4597C48.2002 23.0597 47.8002 23.0597 47.6002 22.8597L14.6002 7.45972C13.0002 6.65972 11.2002 6.65972 9.6002 7.25972C7.8002 7.85972 6.6002 9.05972 5.8002 10.6597C5.4002 11.4597 5.2002 12.4597 5.2002 13.4597V51.4597C5.2002 53.2597 6.0002 54.8597 7.2002 56.0597C8.4002 57.4597 10.0002 58.0597 11.8002 58.0597C12.8002 58.0597 13.6002 57.6597 14.6002 57.2597L16.2002 56.4597C16.2002 56.4597 16.4002 56.4597 16.6002 56.4597L48.0002 41.6597L54.8002 38.4597C58.2002 36.8597 59.8002 32.8597 58.2002 29.6597ZM43.4002 25.6597L39.2002 29.6597L26.0002 17.4597L43.4002 25.6597ZM11.8002 54.0597C11.2002 54.0597 10.4002 53.6597 10.0002 53.2597C9.4002 52.8597 9.2002 52.0597 9.2002 51.4597V13.4597C9.2002 13.0597 9.2002 12.6597 9.4002 12.2597C9.8002 11.6597 10.2002 11.2597 10.8002 11.0597C11.2002 10.8597 11.4002 10.8597 11.8002 10.8597C12.2002 10.8597 12.4002 10.8597 12.8002 11.0597L14.0002 11.6597L36.4002 32.2597L14.4002 53.2597L12.8002 54.0597C12.6002 54.0597 12.2002 54.0597 11.8002 54.0597ZM39.4002 35.0597L44.0002 39.2597L25.8002 47.8597L39.4002 35.0597ZM53.2002 34.8597L47.8002 37.4597L42.2002 32.4597L47.4002 27.6597L53.2002 30.4597C53.8002 30.6597 54.2002 31.0597 54.4002 31.6597C55.0002 32.6597 54.4002 34.2597 53.2002 34.8597Z" fill="#2D373D"/>
</svg>
