<svg width="64" height="65" viewBox="0 0 64 65" fill="none" xmlns="http://www.w3.org/2000/svg">
<path d="M33.3998 54.8623C28.1998 55.2623 23.1998 53.8623 18.9998 50.8623L20.5998 42.8623H21.3998C24.1998 42.8623 26.5998 40.4623 26.5998 37.4623C26.5998 37.0623 26.5998 36.6623 26.3998 36.2623L24.7998 29.6623C24.1998 27.2623 21.9998 25.6623 19.5998 25.6623H10.3998C11.3998 22.6623 12.7998 19.6623 14.9998 17.2623C18.9998 12.8623 24.5998 10.0623 30.5998 9.66227C36.9998 9.26227 42.7998 11.6623 47.1998 15.6623H42.7998C40.3998 15.6623 38.1998 17.2623 37.5998 19.6623L36.1998 26.2623C35.7998 27.2623 36.5998 28.4623 37.5998 28.6623C37.5998 28.6623 37.7998 28.6623 37.9998 28.6623C38.7998 28.6623 39.5998 28.0623 39.9998 27.2623L41.5998 20.6623C41.5998 20.0623 42.1998 19.6623 42.7998 19.6623H50.7998C52.7998 22.4623 53.9998 25.6623 54.3998 29.2623C54.3998 30.4623 55.5998 31.2623 56.5998 31.0623C57.7998 31.0623 58.5998 29.8623 58.3998 28.8623C57.7998 24.2623 55.9998 20.2623 53.5998 16.6623C53.3998 16.4623 53.3998 16.2623 53.1998 16.0623C47.9998 9.26227 39.3998 5.06227 30.1998 5.66227C23.1998 6.26227 16.5998 9.46227 11.9998 14.8623C8.99983 18.2623 6.99983 22.2623 5.99983 26.6623C5.79983 26.8623 5.79983 27.0623 5.79983 27.2623C3.99983 36.6623 6.99983 46.2623 14.1998 52.4623L14.3998 52.6623C14.7998 52.8623 14.9998 53.2623 15.3998 53.4623C19.9998 57.0623 25.7998 59.2623 31.9998 59.2623C32.5998 59.2623 32.9998 59.2623 33.7998 58.8623C34.7998 58.6623 35.5998 57.8623 35.5998 56.6623C35.3998 55.6623 34.5998 54.8623 33.3998 54.8623ZM19.5998 29.2623C20.1998 29.2623 20.5998 29.6623 20.7998 30.2623L22.3998 36.8623C22.3998 37.0623 22.3998 37.0623 22.3998 37.2623C22.3998 38.0623 21.9998 38.6623 21.1998 38.6623H18.7998C17.7998 38.6623 16.9998 39.2623 16.7998 40.2623L15.1998 47.4623C11.7998 43.6623 9.59983 38.8623 9.39983 33.6623C9.39983 32.2623 9.39983 30.6623 9.59983 29.2623H19.5998Z" fill="#2D373D"/>
<path d="M56.1999 34.4623C52.7999 31.0623 47.1999 31.2623 43.9999 34.6623L43.5999 35.0623L43.1999 34.6623C39.7999 31.2623 34.3999 31.2623 30.9999 34.4623C27.5999 37.8623 27.5999 43.2623 30.7999 46.6623L42.1999 58.6623C42.5999 59.0623 42.9999 59.2623 43.5999 59.2623C43.9999 59.2623 44.5999 59.0623 44.9999 58.6623L56.3999 46.6623C59.7999 43.2623 59.5999 37.6623 56.1999 34.4623ZM53.5999 43.8623L43.5999 54.2623L33.5999 43.8623C31.7999 41.8623 31.9999 39.0623 33.7999 37.2623C34.7999 36.4623 35.7999 36.0623 36.9999 36.0623C38.1999 36.0623 39.3999 36.4623 40.5999 37.6623L42.3999 39.6623C42.9999 40.4623 44.3999 40.4623 45.1999 39.6623L46.9999 37.6623C47.7999 36.8623 48.9999 36.2623 50.1999 36.2623C51.3999 36.2623 52.5999 36.6623 53.3999 37.4623C54.1999 38.2623 54.7999 39.4623 54.7999 40.6623C54.9999 41.8623 54.3999 43.0623 53.5999 43.8623Z" fill="#2D373D"/>
</svg>
