<svg width="24" height="25" viewBox="0 0 24 25" fill="none" xmlns="http://www.w3.org/2000/svg">
<path d="M8.01025 2.92188C8.42447 2.92188 8.76025 3.25766 8.76025 3.67188V11.7347L9.34134 11.1568C9.63502 10.8647 10.1099 10.866 10.402 11.1596C10.6941 11.4533 10.6928 11.9282 10.3991 12.2203L8.54113 14.0683C8.53412 14.0754 8.52697 14.0822 8.51969 14.089C8.45487 14.149 8.38205 14.1955 8.30483 14.2285C8.2144 14.2671 8.11483 14.2885 8.01025 14.2885C7.95859 14.2885 7.90782 14.2833 7.8591 14.2733C7.72067 14.245 7.58865 14.1774 7.48099 14.0703L5.621 12.2203C5.32732 11.9282 5.32604 11.4533 5.61815 11.1596C5.91025 10.866 6.38512 10.8647 6.6788 11.1568L7.26025 11.7351V3.67188C7.26025 3.25766 7.59604 2.92188 8.01025 2.92188Z" fill="#2D373D"/>
<path d="M16.0098 2.92188C16.424 2.92188 16.7598 3.25766 16.7598 3.67188V5.92188C16.7598 6.33609 16.424 6.67188 16.0098 6.67188C15.5956 6.67188 15.2598 6.33609 15.2598 5.92188V3.67188C15.2598 3.25766 15.5956 2.92188 16.0098 2.92188Z" fill="#2D373D"/>
<path fill-rule="evenodd" clip-rule="evenodd" d="M16.7598 9.17046L21.1334 4.82031C21.4271 4.52821 21.4284 4.05333 21.1362 3.75965C20.8441 3.46597 20.3693 3.46469 20.0756 3.7568L2.71573 21.0235C2.42205 21.3156 2.42077 21.7904 2.71288 22.0841C3.00498 22.3778 3.47985 22.3791 3.77353 22.087L13.6572 12.2563L15.4726 14.062C15.4798 14.0694 15.4872 14.0766 15.4947 14.0837C15.5609 14.1463 15.6357 14.1946 15.7153 14.2285C15.8057 14.2672 15.9052 14.2885 16.0098 14.2885C16.0965 14.2885 16.1798 14.2738 16.2573 14.2467C16.3613 14.2105 16.4588 14.1507 16.5416 14.0674L16.5468 14.0622L18.3987 12.2203C18.6923 11.9282 18.6936 11.4533 18.4015 11.1596C18.1094 10.866 17.6345 10.8647 17.3408 11.1568L16.7598 11.7347V9.17046ZM15.2598 10.6624L14.7208 11.1985L15.2598 11.7346V10.6624Z" fill="#2D373D"/>
<path d="M6.34357 16.5675C6.73653 16.4365 6.9489 16.0118 6.81792 15.6188C6.68693 15.2259 6.26219 15.0135 5.86923 15.1445C4.2365 15.6887 3.3316 16.4095 2.25303 17.3621C1.94257 17.6364 1.91318 18.1103 2.18739 18.4208C2.4616 18.7312 2.93556 18.7606 3.24602 18.4864C4.26667 17.5849 4.99241 17.0179 6.34357 16.5675Z" fill="#2D373D"/>
<path d="M21.7799 16.8784C22.0727 16.5855 22.0727 16.1106 21.7799 15.8177C21.487 15.5249 21.0121 15.5249 20.7192 15.8177C19.0807 17.4563 17.4129 17.8382 15.7894 17.694C14.2433 17.5567 12.7404 16.9464 11.2888 16.357C11.1563 16.3031 11.0242 16.2495 10.8925 16.1964C10.5083 16.0415 10.0713 16.2273 9.91644 16.6115C9.76154 16.9957 9.94738 17.4327 10.3315 17.5876C10.466 17.6418 10.6035 17.6978 10.744 17.755C12.1617 18.3325 13.8733 19.0297 15.6567 19.1881C17.6804 19.3679 19.7985 18.8597 21.7799 16.8784Z" fill="#2D373D"/>
<path d="M6.83447 19.7743C6.83447 19.3601 7.17026 19.0243 7.58447 19.0243C8.52554 19.0243 9.58693 19.4109 10.6025 19.8136C10.8124 19.8969 11.0231 19.9821 11.235 20.0677C12.1003 20.4176 12.9857 20.7756 13.9126 21.0399C15.0557 21.3659 16.1963 21.5277 17.3166 21.3462C18.4223 21.1671 19.5603 20.6454 20.6955 19.5163C20.9891 19.2242 21.464 19.2255 21.7561 19.5192C22.0482 19.8129 22.0469 20.2877 21.7533 20.5798C20.4084 21.9174 18.9889 22.5948 17.5565 22.8269C16.1387 23.0566 14.7607 22.8416 13.5012 22.4824C12.4895 22.1939 11.5114 21.7981 10.6414 21.446L10.6391 21.445C10.4364 21.363 10.2396 21.2833 10.0495 21.208C8.99199 20.7886 8.19339 20.5243 7.58447 20.5243C7.17026 20.5243 6.83447 20.1885 6.83447 19.7743Z" fill="#2D373D"/>
</svg>
