<svg width="32" height="32" viewBox="0 0 32 32" fill="none" xmlns="http://www.w3.org/2000/svg">
<path d="M27.6999 17.7999L26.5999 16.7999L25.8999 17.4999L26.4999 16.6999C26.2999 16.4999 26.1999 16.2999 26.1999 15.9999C26.1999 15.6999 26.2999 15.4999 26.4999 15.2999L27.5999 14.2999C28.2999 13.6999 28.5999 12.7999 28.5999 11.8999C28.4999 11.0999 28.1999 10.2999 27.5999 9.79991C26.9999 9.19991 26.1999 8.89991 25.3999 8.99991H23.9999C23.3999 8.89991 22.9999 8.49991 22.9999 7.89991L23.0999 6.49991C23.0999 5.59991 22.7999 4.69991 22.0999 4.09991C20.7999 2.99991 18.8999 3.09991 17.7999 4.29991L16.7999 5.39991C16.7999 5.49991 16.6999 5.49991 16.6999 5.49991C16.4999 5.69991 16.2999 5.79991 15.9999 5.79991C15.6999 5.79991 15.4999 5.69991 15.2999 5.49991L14.2999 4.39991C13.6999 3.69991 12.7999 3.39991 11.8999 3.39991C11.0999 3.39991 10.2999 3.79991 9.7999 4.39991C9.1999 4.99991 8.9999 5.79991 8.9999 6.59991L9.0999 7.99991V8.09991C9.0999 8.39991 8.9999 8.69991 8.6999 8.79991C8.4999 8.99991 8.2999 9.09991 7.9999 9.09991L6.5999 8.99991C5.6999 8.99991 4.7999 9.29991 4.1999 9.99991C3.0999 11.2999 3.1999 13.1999 4.3999 14.2999L5.3999 15.0999L5.4999 15.1999C5.6999 15.3999 5.7999 15.5999 5.7999 15.8999C5.7999 16.1999 5.6999 16.3999 5.4999 16.5999L4.3999 17.5999C3.6999 18.1999 3.3999 19.0999 3.3999 19.9999C3.4999 21.6999 4.8999 22.9999 6.5999 22.8999L7.9999 22.7999H8.0999C8.6999 22.8999 9.0999 23.2999 9.0999 23.8999L8.9999 25.3999C8.9999 26.2999 9.2999 27.1999 9.9999 27.7999C10.4999 28.2999 11.2999 28.5999 11.9999 28.5999C12.8999 28.5999 13.6999 28.2999 14.2999 27.8999L15.2999 26.7999C15.3999 26.6999 15.3999 26.6999 15.3999 26.6999C15.5999 26.4999 15.7999 26.3999 16.0999 26.3999C16.3999 26.3999 16.5999 26.4999 16.7999 26.6999L17.7999 27.7999C18.3999 28.4999 19.2999 28.7999 20.1999 28.7999C20.9999 28.6999 21.7999 28.3999 22.2999 27.7999C22.8999 27.1999 23.0999 26.3999 23.0999 25.5999L22.9999 24.0999V23.9999C23.0999 23.3999 23.4999 22.9999 24.0999 22.9999L25.4999 23.0999C26.3999 23.0999 27.2999 22.7999 27.8999 22.0999C28.4999 21.4999 28.6999 20.6999 28.6999 19.8999C28.6999 19.0999 28.2999 18.2999 27.6999 17.7999ZM26.3999 20.7999C26.1999 20.9999 25.8999 21.0999 25.5999 21.0999L24.1999 20.9999C22.4999 20.9999 21.0999 22.1999 20.9999 23.8999C20.9999 23.9999 20.9999 24.0999 20.9999 24.1999L21.0999 25.5999C21.0999 25.7999 20.9999 26.0999 20.7999 26.2999C20.5999 26.4999 20.3999 26.5999 20.0999 26.5999C19.7999 26.5999 19.4999 26.4999 19.2999 26.2999L18.2999 25.1999C17.6999 24.5999 16.9999 24.1999 16.1999 24.1999C15.3999 24.1999 14.5999 24.4999 13.9999 24.9999C13.8999 25.0999 13.8999 25.0999 13.7999 25.1999L12.7999 26.2999C12.5999 26.4999 12.3999 26.5999 12.0999 26.5999C11.8999 26.5999 11.5999 26.4999 11.3999 26.2999C11.1999 26.0999 11.0999 25.7999 11.0999 25.4999L11.1999 24.0999C11.1999 22.3999 9.9999 20.9999 8.2999 20.8999C8.1999 20.8999 8.1999 20.8999 8.0999 20.8999C7.9999 20.8999 7.9999 20.8999 7.8999 20.8999L6.4999 20.9999C5.8999 20.9999 5.3999 20.5999 5.3999 19.9999C5.3999 19.6999 5.4999 19.3999 5.6999 19.2999L6.7999 18.2999C7.3999 17.6999 7.7999 16.9999 7.7999 16.1999C7.7999 15.3999 7.4999 14.5999 6.9999 13.9999C6.8999 13.8999 6.8999 13.8999 6.7999 13.7999L5.6999 12.7999C5.2999 12.3999 5.2999 11.7999 5.6999 11.3999C5.8999 11.0999 6.1999 10.9999 6.4999 10.9999L7.8999 11.0999C9.5999 11.1999 10.9999 9.89991 11.0999 8.1999C11.0999 8.09991 11.0999 7.99991 11.0999 7.89991L10.9999 6.49991C10.9999 6.19991 11.0999 5.89991 11.2999 5.69991C11.4999 5.49991 11.6999 5.39991 11.9999 5.39991C12.2999 5.39991 12.5999 5.49991 12.9999 5.89991L13.9999 6.99991C14.5999 7.59991 15.2999 7.99991 16.0999 7.99991C16.8999 7.99991 17.6999 7.69991 18.2999 7.19991C18.3999 7.09991 18.3999 7.09991 18.4999 6.99991L19.4999 5.89991C19.7999 5.49991 20.4999 5.39991 20.8999 5.79991C21.0999 5.99991 21.1999 6.29991 21.1999 6.59991L21.0999 7.99991C21.0999 9.69991 22.2999 11.0999 23.9999 11.1999C24.0999 11.1999 24.1999 11.1999 24.2999 11.1999L25.6999 11.0999C25.8999 11.0999 26.1999 11.1999 26.3999 11.3999C26.5999 11.5999 26.6999 11.7999 26.6999 12.0999C26.6999 12.3999 26.5999 12.6999 26.3999 12.8999L25.2999 13.8999C24.6999 14.4999 24.2999 15.1999 24.2999 15.9999C24.2999 16.7999 24.5999 17.5999 25.0999 18.1999C25.1999 18.2999 25.1999 18.2999 25.2999 18.3999L26.3999 19.3999C26.5999 19.5999 26.6999 19.8999 26.6999 20.0999C26.6999 20.2999 26.5999 20.5999 26.3999 20.7999Z" fill="#2D373D"/>
<path d="M15.9999 10.3999C12.8999 10.3999 10.3999 12.8999 10.3999 16.0999C10.3999 19.1999 12.8999 21.6999 15.9999 21.6999C17.4999 21.6999 18.8999 21.0999 19.8999 19.9999C20.9999 18.8999 21.5999 17.4999 21.5999 15.9999C21.5999 12.8999 19.0999 10.3999 15.9999 10.3999ZM18.5999 18.4999C17.8999 19.1999 16.9999 19.5999 15.9999 19.5999C13.9999 19.5999 12.3999 17.9999 12.3999 15.9999C12.3999 13.9999 14.0999 12.2999 16.0999 12.2999C18.0999 12.2999 19.6999 13.8999 19.6999 15.8999C19.6999 16.8999 19.2999 17.7999 18.5999 18.4999Z" fill="#2D373D"/>
</svg>
