<svg width="16" height="16" viewBox="0 0 16 16" fill="none" xmlns="http://www.w3.org/2000/svg">
<path d="M6.94989 8.70005C7.34989 8.70005 7.64989 8.35005 7.64989 7.95005C7.64989 7.80005 7.54989 7.60005 7.44989 7.50005C7.29989 7.35005 7.14989 7.30005 6.94989 7.30005C6.89989 7.30005 6.89989 7.30005 6.89989 7.30005C6.54989 7.35005 6.24989 7.65005 6.24989 8.05005C6.24989 8.40005 6.59989 8.70005 6.94989 8.70005Z" fill="#2D373D"/>
<path d="M12.2999 2.50006H10.5999C10.2999 2.50006 10.0999 2.70006 10.0999 3.00006C10.0999 3.30006 10.2999 3.50006 10.5999 3.50006H12.2499C12.2499 3.55006 12.3499 3.65006 12.3499 3.85006V12.1001C12.3499 12.3001 12.2999 12.4501 12.2999 12.4501H10.5999C10.2999 12.4501 10.0999 12.6501 10.0999 12.9501C10.0999 13.2501 10.2999 13.4501 10.5999 13.4501H12.2999C12.8999 13.4501 13.3499 12.9001 13.3499 12.1001V3.85006C13.3499 3.10006 12.8999 2.50006 12.2999 2.50006Z" fill="#2D373D"/>
<path d="M8.2999 1.30004L3.3499 2.55004C2.9499 2.65004 2.6499 3.00004 2.6499 3.45004V13.1C2.6499 13.55 2.9999 13.9 3.3999 14L8.3499 14.7C8.3999 14.7 8.4499 14.7 8.4999 14.7C9.0499 14.7 9.4499 14.3 9.3999 13.8V2.20004C9.3999 2.15004 9.3999 2.05004 9.3999 2.00004C9.2999 1.50004 8.7999 1.20004 8.2999 1.30004ZM8.4499 13.7L3.6499 13V3.50004L8.4499 2.30004V13.7Z" fill="#2D373D"/>
</svg>
