<svg width="24" height="25" viewBox="0 0 24 25" fill="none" xmlns="http://www.w3.org/2000/svg">
<path fill-rule="evenodd" clip-rule="evenodd" d="M11.9995 17.0219C14.1297 17.0219 16.0995 15.0521 16.0995 12.9219C16.0995 12.4211 15.941 11.6059 15.6008 10.5856C15.2702 9.59389 14.8036 8.51346 14.2729 7.5179C13.7377 6.51365 13.1668 5.65129 12.6456 5.06377C12.3845 4.7694 12.1706 4.58377 12.0158 4.48147C12.0056 4.47474 11.9961 4.46861 11.9872 4.46303C11.9787 4.46836 11.9696 4.4742 11.96 4.48058C11.8063 4.5824 11.5935 4.76753 11.3336 5.06163C10.8149 5.64863 10.2471 6.51056 9.71488 7.51479C9.18732 8.51024 8.7236 9.59075 8.3951 10.5827C8.05724 11.603 7.89949 12.4194 7.89949 12.9219C7.89949 15.0521 9.86923 17.0219 11.9995 17.0219ZM11.9995 18.5219C14.9581 18.5219 17.5995 15.8805 17.5995 12.9219C17.5995 9.96321 14.1295 2.92188 11.9867 2.92188C9.84381 2.92188 6.39949 9.96321 6.39949 12.9219C6.39949 15.8805 9.0408 18.5219 11.9995 18.5219Z" fill="#2D373D"/>
<path fill-rule="evenodd" clip-rule="evenodd" d="M9.67658 12.1754C10.0888 12.1351 10.4557 12.4367 10.496 12.8489C10.588 13.7907 11.1707 14.4219 11.9995 14.4219C12.4137 14.4219 12.7495 14.7577 12.7495 15.1719C12.7495 15.5861 12.4137 15.9219 11.9995 15.9219C10.1772 15.9219 9.14649 14.4623 9.00308 12.9948C8.9628 12.5826 9.26433 12.2157 9.67658 12.1754Z" fill="#2D373D"/>
<path fill-rule="evenodd" clip-rule="evenodd" d="M4.13408 16.3365C4.31932 16.7069 4.16915 17.1575 3.79867 17.3427C3.74967 17.3672 3.55346 17.5548 3.50798 17.9358C3.46877 18.2642 3.55508 18.703 3.9936 19.1415C4.67046 19.8184 5.45612 20.3748 6.65424 20.7708C7.87151 21.1731 9.54282 21.4189 11.9995 21.4189C14.4562 21.4189 16.1275 21.1731 17.3448 20.7708C18.5429 20.3748 19.3286 19.8184 20.0054 19.1415C20.444 18.703 20.5303 18.2642 20.4911 17.9358C20.4456 17.5548 20.2494 17.3672 20.2004 17.3427C19.8299 17.1575 19.6797 16.7069 19.865 16.3365C20.0502 15.966 20.5007 15.8158 20.8712 16.0011C21.4889 16.3099 21.8927 17.0223 21.9805 17.758C22.0746 18.5463 21.8276 19.4407 21.0661 20.2022C20.243 21.0253 19.2605 21.7175 17.8155 22.195C16.3896 22.6663 14.5428 22.9189 11.9995 22.9189C9.4562 22.9189 7.60939 22.6663 6.18354 22.195C4.73854 21.7175 3.75608 21.0253 2.93294 20.2022C2.17146 19.4407 1.92443 18.5463 2.01856 17.758C2.1064 17.0223 2.51018 16.3099 3.12785 16.0011C3.49833 15.8158 3.94884 15.966 4.13408 16.3365Z" fill="#2D373D"/>
</svg>
