<svg width="64" height="65" viewBox="0 0 64 65" fill="none" xmlns="http://www.w3.org/2000/svg">
<path d="M34.2667 37.3498C34.003 37.3462 33.7413 37.3955 33.4971 37.4948C33.2528 37.594 33.0309 37.7412 32.8445 37.9276C32.658 38.1141 32.5108 38.336 32.4116 38.5802C32.3124 38.8245 32.2631 39.0862 32.2667 39.3498V42.5765H12.0533V16.9232C12.0616 16.423 12.1517 15.9276 12.32 15.4565C12.5043 15.0073 12.7762 14.5994 13.12 14.2565C13.4336 13.9148 13.8151 13.6423 14.24 13.4565C14.6664 13.2937 15.1171 13.2035 15.5733 13.1898H20.5067C21.0371 13.1898 21.5458 12.9791 21.9209 12.604C22.296 12.229 22.5067 11.7203 22.5067 11.1898C22.5067 10.6594 22.296 10.1507 21.9209 9.77562C21.5458 9.40055 21.0371 9.18983 20.5067 9.18983H15.5467C14.5474 9.18259 13.5576 9.38266 12.6396 9.77739C11.7216 10.1721 10.8955 10.7529 10.2133 11.4832C9.50889 12.2015 8.95575 13.0539 8.58667 13.9898C8.20841 14.922 8.00938 15.9172 8 16.9232V49.2965C8.0336 51.2806 8.80344 53.1815 10.16 54.6298C10.8633 55.3478 11.6956 55.9268 12.6133 56.3365C13.5347 56.7197 14.5221 56.919 15.52 56.9232H28.6933C29.6926 56.9304 30.6824 56.7303 31.6004 56.3356C32.5184 55.9409 33.3445 55.3601 34.0267 54.6298C34.7311 53.9115 35.2843 53.0591 35.6533 52.1232C36.0225 51.1892 36.2124 50.1941 36.2133 49.1898V39.3498C36.2135 38.8285 36.0101 38.3277 35.6465 37.9541C35.2829 37.5806 34.7878 37.3637 34.2667 37.3498ZM31.9733 50.6832C31.7989 51.1311 31.5359 51.5393 31.2 51.8832C30.882 52.2318 30.4903 52.5051 30.0533 52.6832C29.6423 52.866 29.1964 52.957 28.7467 52.9498H15.5733C15.1122 52.9561 14.6549 52.8642 14.232 52.6803C13.809 52.4964 13.43 52.2247 13.12 51.8832C12.7762 51.5403 12.5043 51.1324 12.32 50.6832C12.1517 50.2121 12.0616 49.7167 12.0533 49.2165V46.5498H32.2667V49.2165C32.2844 49.7535 32.1937 50.2886 32 50.7898L31.9733 50.6832Z" fill="#2D373D"/>
<path d="M56 19.5898C56.0043 18.8688 55.8624 18.1544 55.5828 17.4899C55.3032 16.8253 54.8918 16.2243 54.3733 15.7232C53.3241 14.733 51.936 14.1815 50.4933 14.1815C49.0507 14.1815 47.6626 14.733 46.6133 15.7232C46.119 16.2354 45.7321 16.8414 45.4757 17.5055C45.2192 18.1696 45.0983 18.8783 45.12 19.5898C45.0502 20.7365 45.3526 21.875 45.982 22.8359C46.6114 23.7969 47.5343 24.529 48.6133 24.9232V27.5898C48.6123 28.3592 48.4586 29.1207 48.161 29.8303C47.8635 30.5398 47.4281 31.1832 46.88 31.7232C45.7573 32.7788 44.2743 33.3665 42.7333 33.3665C41.1923 33.3665 39.7093 32.7788 38.5867 31.7232C37.6956 30.8405 37.1234 29.6867 36.96 28.4432C38.5705 28.052 40.0449 27.2318 41.2267 26.0698C42.0676 25.24 42.7362 24.252 43.1939 23.1628C43.6515 22.0736 43.8892 20.9046 43.8933 19.7232V12.7098C43.8954 12.2153 43.7999 11.7252 43.6123 11.2676C43.4247 10.81 43.1487 10.3939 42.8 10.0432C42.4339 9.67592 41.9969 9.38719 41.5154 9.19462C41.034 9.00204 40.5183 8.90968 40 8.92317H38.2667C37.7362 8.92317 37.2275 9.13388 36.8525 9.50895C36.4774 9.88402 36.2667 10.3927 36.2667 10.9232C36.2667 11.4536 36.4774 11.9623 36.8525 12.3374C37.2275 12.7125 37.7362 12.9232 38.2667 12.9232H40V19.5898C39.9939 20.9106 39.4668 22.1755 38.5333 23.1098C37.5811 24.0179 36.3158 24.5244 35 24.5244C33.6842 24.5244 32.4189 24.0179 31.4667 23.1098C30.9779 22.6601 30.5844 22.1168 30.3095 21.5122C30.0347 20.9075 29.8841 20.2538 29.8667 19.5898V12.9765H31.36C31.8904 12.9765 32.3991 12.7658 32.7742 12.3907C33.1493 12.0156 33.36 11.5069 33.36 10.9765C33.36 10.4461 33.1493 9.93736 32.7742 9.56228C32.3991 9.18721 31.8904 8.9765 31.36 8.9765H29.6267C29.1342 8.97298 28.6458 9.06695 28.1898 9.25299C27.7338 9.43903 27.319 9.71347 26.9695 10.0605C26.62 10.4075 26.3427 10.8203 26.1534 11.275C25.9641 11.7297 25.8667 12.2173 25.8667 12.7098V19.5898C25.8693 21.6424 26.5745 23.6322 27.865 25.2283C29.1555 26.8245 30.9535 27.9307 32.96 28.3632C33.1445 30.6495 34.1371 32.7955 35.76 34.4165C37.1351 35.7785 38.8795 36.7072 40.7772 37.0877C42.6749 37.4682 44.6425 37.2837 46.4364 36.5571C48.2302 35.8304 49.7716 34.5936 50.8695 32.9997C51.9674 31.4058 52.5737 29.5249 52.6133 27.5898V24.9232C53.3188 24.6425 53.9621 24.2256 54.5067 23.6965C55.0194 23.1479 55.416 22.5013 55.6726 21.7956C55.9292 21.0899 56.0406 20.3396 56 19.5898ZM49.44 18.5498C49.5767 18.4045 49.7421 18.2892 49.9257 18.2111C50.1093 18.1331 50.3072 18.094 50.5067 18.0965C50.7057 18.0972 50.9026 18.1376 51.0858 18.2155C51.269 18.2933 51.4347 18.407 51.5733 18.5498C51.7093 18.6866 51.817 18.8489 51.8903 19.0273C51.9635 19.2058 52.0008 19.3969 52 19.5898C51.9973 19.9865 51.8449 20.3674 51.5733 20.6565C51.2828 20.9245 50.902 21.0733 50.5067 21.0733C50.1114 21.0733 49.7306 20.9245 49.44 20.6565C49.3008 20.5166 49.1912 20.35 49.1179 20.1667C49.0446 19.9834 49.009 19.7872 49.0133 19.5898C49.0612 19.2206 49.056 18.9581 49.44 18.5498Z" fill="#2D373D"/>
</svg>
