<svg width="24" height="25" viewBox="0 0 24 25" fill="none" xmlns="http://www.w3.org/2000/svg">
<path fill-rule="evenodd" clip-rule="evenodd" d="M20.25 3.92188H18.05C17.8519 3.92446 17.6626 4.00431 17.5225 4.14441C17.3824 4.2845 17.3026 4.47377 17.3 4.67188V5.02187H16.95C15.3246 5.03224 13.7476 5.57602 12.4613 6.56966C11.175 7.5633 10.2506 8.95183 9.83 10.5219H9.25C9.05189 10.5245 8.86263 10.6043 8.72253 10.7444C8.58244 10.8845 8.50259 11.0738 8.5 11.2719V14.5719C8.49988 14.7093 8.53701 14.8441 8.60745 14.9621C8.67788 15.0801 8.77899 15.1768 8.9 15.2419C8.78354 15.3562 8.65996 15.4631 8.53 15.5619C8.09518 15.8627 7.57872 16.0232 7.05 16.0219H6.7V15.6719C6.7 15.473 6.62098 15.2822 6.48033 15.1415C6.33968 15.0009 6.14891 14.9219 5.95 14.9219H3.75C3.55189 14.9245 3.36263 15.0043 3.22253 15.1444C3.08244 15.2845 3.00259 15.4738 3 15.6719V21.1719C3 21.3708 3.07902 21.5616 3.21967 21.7022C3.36032 21.8429 3.55109 21.9219 3.75 21.9219H5.95C6.04886 21.9232 6.14699 21.9047 6.2386 21.8675C6.3302 21.8303 6.41341 21.7751 6.48333 21.7052C6.55324 21.6353 6.60844 21.5521 6.64565 21.4605C6.68287 21.3689 6.70135 21.2707 6.7 21.1719V20.8219H7.06C8.68494 20.8143 10.2621 20.2714 11.5474 19.2772C12.8327 18.283 13.7544 16.8928 14.17 15.3219H14.75C14.8489 15.3232 14.947 15.3047 15.0386 15.2675C15.1302 15.2303 15.2134 15.1751 15.2833 15.1052C15.3532 15.0353 15.4084 14.9521 15.4457 14.8605C15.4829 14.7689 15.5013 14.6707 15.5 14.5719V11.2719C15.4983 11.1374 15.4614 11.0057 15.393 10.8899C15.3246 10.7741 15.227 10.6782 15.11 10.6119C15.2216 10.4924 15.3456 10.3851 15.48 10.2919C15.9103 9.98831 16.4234 9.82424 16.95 9.82188H17.3V10.1719C17.3 10.3708 17.379 10.5616 17.5197 10.7022C17.6603 10.8429 17.8511 10.9219 18.05 10.9219H20.25C20.3489 10.9232 20.447 10.9047 20.5386 10.8675C20.6302 10.8303 20.7134 10.7751 20.7833 10.7052C20.8532 10.6353 20.9084 10.5521 20.9457 10.4605C20.9829 10.3689 21.0013 10.2707 21 10.1719V4.67188C21 4.47296 20.921 4.2822 20.7803 4.14154C20.6397 4.00089 20.4489 3.92188 20.25 3.92188V3.92188ZM5.25 20.4219H4.5V16.4219H5.2L5.25 20.4219ZM10.88 17.9419C9.82239 18.8336 8.48339 19.3225 7.1 19.3219H6.7V17.5219H7.05C7.89363 17.5313 8.71779 17.2683 9.4 16.7719C9.93509 16.395 10.3709 15.894 10.67 15.3119H12.6C12.2591 16.3327 11.6474 17.2417 10.83 17.9419H10.88ZM14.05 13.8219H10.05V12.0219H14.05V13.8219ZM17.35 8.32188H17C16.1606 8.32017 15.342 8.58255 14.66 9.07188C14.1285 9.44569 13.696 9.94337 13.4 10.5219H11.4C11.7427 9.5051 12.3585 8.60217 13.18 7.91187C14.2362 7.0232 15.5697 6.53153 16.95 6.52187H17.3L17.35 8.32188ZM19.55 9.42188H18.85V9.08187V5.77187V5.42188H19.55V9.42188Z" fill="#2D373D"/>
</svg>
