<svg width="24" height="24" viewBox="0 0 24 24" fill="none" xmlns="http://www.w3.org/2000/svg">
<path d="M20.4 8.00625C20.325 7.93125 20.25 7.93125 20.175 7.93125L11.925 4.55625C11.775 4.48125 11.55 4.48125 11.4 4.55625L7.875 5.98125C7.8 5.98125 7.725 6.05625 7.65 6.05625L3.15 7.85625C3.075 7.85625 3 7.93125 2.925 7.93125C2.775 8.08125 2.625 8.30625 2.625 8.53125V18.5063C2.625 18.8063 2.775 19.1063 3.075 19.1813L11.4 22.4813C11.475 22.5563 11.625 22.5563 11.7 22.5563C11.85 22.5563 12 22.5563 12.075 22.4063L20.25 19.1813C20.55 19.1063 20.7 18.8063 20.7 18.5063V8.53125C20.7 8.45625 20.7 8.45625 20.7 8.38125C20.625 8.23125 20.55 8.08125 20.4 8.00625ZM11.7 6.05625L18 8.53125L16.35 9.20625L10.05 6.73125L11.7 6.05625ZM10.95 20.7563L4.125 18.0563V9.73125L8.025 11.2313L10.95 12.4313V20.7563V20.7563ZM11.7 11.0063L5.4 8.53125L7.95 7.55625L14.175 10.0313L11.7 11.0063ZM19.275 17.9813L12.45 20.6813V12.4313L13.725 11.9063L19.275 9.73125V17.9813Z" fill="#2D373D"/>
</svg>
