<svg width="16" height="17" viewBox="0 0 16 17" fill="none" xmlns="http://www.w3.org/2000/svg">
<path d="M8 1.76172C4.95 1.76172 2.5 4.21172 2.5 7.26172C2.5 11.8117 6.35 14.3617 7.55 15.0617C7.7 15.1117 7.85 15.1617 8 15.1617C8.15 15.1617 8.3 15.1117 8.45 15.0617C9.65 14.4117 13.5 11.8617 13.5 7.26172C13.5 4.21172 11.05 1.76172 8 1.76172ZM8 14.1617C7.15 13.6617 3.5 11.3117 3.5 7.26172C3.5 4.76172 5.5 2.76172 8 2.76172C10.45 2.76172 12.45 4.76172 12.5 7.26172C12.5 11.2617 9.1 13.5117 8 14.1617Z" fill="#2D373D"/>
<path d="M10.1 5.86172H9.54999V5.31172C9.54999 4.71172 9.04999 4.26172 8.49999 4.26172H7.44999C6.84999 4.26172 6.39999 4.76172 6.39999 5.31172V5.86172H5.84999C5.24999 5.86172 4.79999 6.36172 4.79999 6.91172V7.96172C4.79999 8.56172 5.29999 9.01172 5.84999 9.01172H6.39999V9.56172C6.39999 10.1617 6.89999 10.6117 7.44999 10.6117H8.49999C9.09999 10.6117 9.54999 10.1617 9.54999 9.56172V9.01172H10.1C10.7 9.01172 11.15 8.51172 11.15 7.96172V6.91172C11.15 6.31172 10.65 5.86172 10.1 5.86172ZM10.1 8.06172H9.04999C8.74999 8.06172 8.54999 8.26172 8.54999 8.56172L8.49999 9.66172L7.39999 9.61172V8.56172C7.39999 8.26172 7.19999 8.06172 6.89999 8.06172L5.79999 8.01172L5.84999 6.91172H6.89999C7.19999 6.91172 7.39999 6.71172 7.39999 6.41172L7.44999 5.31172H8.54999V6.41172C8.54999 6.71172 8.74999 6.91172 9.04999 6.91172H10.1C10.15 6.91172 10.15 6.96172 10.15 6.96172L10.1 8.06172Z" fill="#2D373D"/>
</svg>
