<svg width="24" height="24" viewBox="0 0 24 24" fill="none" xmlns="http://www.w3.org/2000/svg">
<path d="M18.2252 12C17.9252 12 17.6252 12.075 17.4002 12.075L14.8502 6.37504L17.1752 5.70004C17.6252 5.62504 17.8502 5.17504 17.7002 4.80004C17.6252 4.35004 17.1752 4.12504 16.8002 4.27504L14.3252 5.02504C14.2502 5.02504 14.2502 5.10004 14.1752 5.10004C13.8002 5.25004 13.5752 5.47504 13.4252 5.85004C13.2752 6.22504 13.2752 6.60004 13.4252 6.90004L14.4002 9.15004L9.4502 10.5L8.3252 8.47504H9.5252C9.9752 8.47504 10.2752 8.17504 10.2752 7.72504C10.2752 7.27504 9.9752 6.97504 9.5252 6.97504H5.1752C4.7252 6.97504 4.4252 7.27504 4.4252 7.72504C4.4252 8.17504 4.7252 8.47504 5.1752 8.47504H6.6002L8.2502 11.325L7.4252 12.375C6.9002 12.15 6.3752 12 5.7752 12C3.6752 12 1.9502 13.725 1.9502 15.825C1.9502 17.925 3.6752 19.65 5.7752 19.65C7.9502 19.65 9.6752 17.925 9.6002 15.825C9.6002 14.85 9.2252 14.025 8.6252 13.35L9.6002 12.075L15.0002 10.5L15.9752 12.75C15.0002 13.425 14.3252 14.55 14.3252 15.825C14.3252 17.925 16.0502 19.65 18.1502 19.65C20.2502 19.65 21.9752 17.925 21.9752 15.825C22.0502 13.725 20.3252 12 18.2252 12ZM8.1002 15.75C8.1002 17.025 7.0502 18.075 5.7752 18.075C4.5002 18.075 3.4502 17.025 3.4502 15.75C3.4502 14.475 4.5002 13.425 5.7752 13.425C6.0752 13.425 6.3002 13.5 6.5252 13.575L5.1752 15.375C4.9502 15.675 5.0252 16.2 5.3252 16.425C5.4752 16.5 5.6252 16.575 5.7752 16.575C6.0002 16.575 6.2252 16.425 6.3752 16.275L7.7252 14.475C7.9502 14.925 8.1002 15.3 8.1002 15.75ZM18.2252 18.075C16.9502 18.075 15.9002 17.025 15.9002 15.75C15.9002 15.075 16.2002 14.475 16.6502 14.1L17.5502 16.125C17.7002 16.425 17.9252 16.575 18.2252 16.575C18.3002 16.575 18.4502 16.575 18.5252 16.5C18.9002 16.35 19.0502 15.9 18.9002 15.525L18.0002 13.5C18.0752 13.5 18.1502 13.5 18.2252 13.5C19.5002 13.5 20.5502 14.55 20.5502 15.825C20.5502 17.1 19.5002 18.075 18.2252 18.075Z" fill="#2D373D"/>
</svg>
