<svg width="24" height="25" viewBox="0 0 24 25" fill="none" xmlns="http://www.w3.org/2000/svg">
<path d="M18.6751 9.91211C18.0751 9.31211 17.3251 8.93711 16.4251 8.71211C17.7751 8.33711 18.8251 7.13711 18.8251 5.63711C18.8251 3.83711 17.4001 2.41211 15.6001 2.41211C13.8001 2.41211 12.3751 3.83711 12.3751 5.63711C12.3751 7.13711 13.3501 8.33711 14.7001 8.71211C13.8001 8.86211 13.0501 9.31211 12.3751 9.91211C11.5501 10.7371 11.1001 11.8621 11.1001 13.0621V15.5371C11.1001 15.9871 11.4001 16.2871 11.8501 16.2871H12.4501L12.9751 21.8371C13.0501 22.2121 13.3501 22.5121 13.7251 22.5121H17.4751C17.8501 22.5121 18.1501 22.2121 18.2251 21.8371L18.6751 16.2871H19.2001C19.6501 16.2871 19.9501 15.9871 19.9501 15.5371V13.0621C19.9501 11.8621 19.5001 10.7371 18.6751 9.91211ZM13.8751 5.63711C13.8751 4.66211 14.6251 3.91211 15.6001 3.91211C16.5751 3.91211 17.3251 4.66211 17.3251 5.63711C17.3251 6.61211 16.5751 7.36211 15.6001 7.36211C14.6251 7.36211 13.8751 6.61211 13.8751 5.63711ZM18.6001 14.7871H18.0751C17.7001 14.7871 17.4001 15.0871 17.3251 15.4621L16.8001 21.0121H14.4001L13.8751 15.4621C13.8001 15.0871 13.5001 14.7871 13.1251 14.7871H12.6001V13.0621C12.6001 11.4121 13.9501 10.0621 15.6001 10.0621C16.4251 10.0621 17.1001 10.4371 17.7001 10.9621C18.3001 11.4871 18.6001 12.2371 18.6001 13.0621V14.7871Z" fill="#2D373D"/>
<path d="M6.6001 11.7121C5.1751 11.7121 3.9751 12.9121 3.9751 14.3371C3.9751 14.7871 4.2751 15.0871 4.7251 15.0871C5.1751 15.0871 5.4751 14.7871 5.4751 14.3371C5.4751 13.7371 6.0001 13.2121 6.6001 13.2121C7.2001 13.2121 7.7251 13.7371 7.7251 14.3371V21.7621C7.7251 22.2121 8.0251 22.5121 8.4751 22.5121C8.8501 22.5121 9.2251 22.2121 9.2251 21.7621V14.3371C9.2251 12.9121 8.0251 11.7121 6.6001 11.7121Z" fill="#2D373D"/>
</svg>
