<svg width="64" height="64" viewBox="0 0 64 64" fill="none" xmlns="http://www.w3.org/2000/svg">
<path fill-rule="evenodd" clip-rule="evenodd" d="M19.7293 44.2656C19.2086 43.7449 18.3644 43.7449 17.8437 44.2656C17.323 44.7863 17.323 45.6305 17.8437 46.1512C18.3644 46.6719 19.2086 46.6719 19.7293 46.1512C20.25 45.6305 20.25 44.7863 19.7293 44.2656ZM15.0153 41.4372C17.0981 39.3544 20.4749 39.3544 22.5577 41.4372C24.6405 43.52 24.6405 46.8968 22.5577 48.9796C20.4749 51.0624 17.0981 51.0624 15.0153 48.9796C12.9325 46.8968 12.9325 43.52 15.0153 41.4372Z" fill="#2D373D"/>
<path fill-rule="evenodd" clip-rule="evenodd" d="M29.1823 30.6923C28.0719 31.7969 26.4191 32.1518 24.9532 31.6005C20.3715 29.8774 15.7575 30.3726 12.8168 33.4518C8.1865 38.3002 8.17476 46.2931 12.7871 51.1226C17.3082 55.8566 25.7015 55.8556 30.2245 51.1196C33.3496 47.8473 33.9025 43.5486 32.273 38.7982C31.7762 37.3496 32.1499 35.7445 33.2356 34.6645L37.112 30.8084C38.3629 29.564 40.2799 29.2873 41.8302 30.1228L41.8351 30.1253L41.8638 30.1393C41.9148 30.1639 42.0099 30.2078 42.1387 30.259C42.4078 30.3661 42.761 30.4803 43.1311 30.5416C43.9049 30.6699 44.193 30.5126 44.3802 30.3264C44.5947 30.1129 44.7758 29.7443 44.6638 28.8807C44.6114 28.4768 44.5047 28.0947 44.4046 27.8069C44.3564 27.6684 44.3145 27.5656 44.2905 27.5092C44.2822 27.4899 44.2763 27.4765 44.2733 27.4697C43.5376 25.937 43.8512 24.1045 45.0585 22.9034L45.64 22.325C46.8444 21.1269 48.6729 20.8211 50.2002 21.5587C50.2072 21.5619 50.2224 21.5687 50.2451 21.5785C50.3049 21.6042 50.4121 21.6481 50.5554 21.6985C50.8534 21.8034 51.2456 21.9143 51.6569 21.9692C52.5459 22.0877 52.8677 21.893 53.0345 21.7189C53.2597 21.4838 53.4027 21.1506 53.281 20.4017C53.2221 20.0392 53.1123 19.6963 53.0102 19.4377C52.9613 19.3138 52.9197 19.2232 52.8969 19.1756C52.8902 19.1618 52.8854 19.152 52.8826 19.1466C52.1038 17.695 52.2943 15.9121 53.3664 14.6574C53.434 14.5782 53.5043 14.5022 53.5769 14.4294L54.0026 13.9982C54.2509 13.7467 54.5793 13.2134 54.6415 12.659C54.6682 12.422 54.6512 12.157 54.537 11.8424C54.421 11.5225 54.1621 11.0359 53.5578 10.4226C52.9667 9.82261 52.4948 9.56936 52.1859 9.45647C51.8802 9.34476 51.6125 9.32559 51.3617 9.35421C50.7705 9.42165 50.2119 9.77257 49.9768 10.0064L29.1823 30.6923ZM57.3192 20.6613C57.2544 18.7923 56.4075 17.2558 56.4075 17.2558L56.8492 16.8084C58.328 15.3104 60.2307 11.496 56.4072 7.61529C52.5837 3.73455 48.6507 5.68348 47.1558 7.17057L26.3613 27.8565C20.8495 25.7836 14.3398 26.0655 9.92411 30.6892C3.82644 37.074 3.79665 47.5004 9.89433 53.8852C15.992 60.2701 27.0195 60.2671 33.1172 53.8823C37.5329 49.2586 38.0363 43.2717 36.0566 37.5003L39.933 33.6442C39.933 33.6442 44.2939 36.0543 47.2012 33.1622C48.3046 32.0645 48.6682 30.7308 48.6945 29.4983C48.7266 27.9982 48.2592 26.6482 48.0182 26.0562C47.9355 25.8531 47.8795 25.7392 47.8795 25.7392L48.461 25.1608C48.461 25.1608 48.5735 25.2164 48.7742 25.2991C49.3651 25.5425 50.7202 26.0203 52.2186 26.0029C53.4745 25.9882 54.8311 25.6258 55.923 24.486C57.0579 23.3012 57.3624 21.9074 57.3192 20.6613Z" fill="#2D373D"/>
</svg>
