<svg width="16" height="16" viewBox="0 0 16 16" fill="none" xmlns="http://www.w3.org/2000/svg">
<path d="M13.5502 2.95005H12.5502C12.3502 2.45005 11.8502 2.10005 11.3002 2.10005H9.6502C9.2502 1.60005 8.6502 1.30005 8.0002 1.30005C7.3502 1.30005 6.70019 1.60005 6.35019 2.10005H4.7002C4.1502 2.10005 3.6502 2.45005 3.4502 2.95005H2.4502C2.1502 2.95005 1.9502 3.15005 1.9502 3.45005C1.9502 3.75005 2.1502 3.95005 2.4502 3.95005H3.4502C3.6502 4.45005 4.1502 4.80005 4.7002 4.80005H6.35019C6.40019 4.85005 6.4002 4.90005 6.4502 4.95005C5.1502 5.55005 4.2002 6.85005 4.2002 8.40005V10.9C4.2002 12.1 5.15019 13.05 6.35019 13.05H6.6502V13.35C6.6502 13.7 6.8002 14.05 7.0502 14.3C7.3002 14.55 7.6502 14.7 8.0002 14.7C8.7002 14.7 9.3002 14.1 9.3502 13.3V13.05H9.6502C10.8002 13.05 11.8002 12.1 11.8002 10.9V8.40005C11.8002 6.85005 10.8502 5.50005 9.5502 4.95005C9.6002 4.90005 9.6002 4.85005 9.6502 4.80005H11.3002C11.8502 4.80005 12.3502 4.45005 12.5502 3.95005H13.5502C13.8002 3.95005 14.0502 3.75005 14.0502 3.45005C14.0502 3.15005 13.8502 2.95005 13.5502 2.95005ZM5.9002 3.80005H4.7002C4.5002 3.80005 4.3502 3.65005 4.3502 3.45005C4.3502 3.25005 4.5002 3.10005 4.7002 3.10005H5.9002C5.9002 3.20005 5.8502 3.35005 5.8502 3.45005C5.8502 3.55005 5.9002 3.70005 5.9002 3.80005ZM8.0002 2.30005C8.6002 2.30005 9.1502 2.80005 9.1502 3.45005C9.1502 4.10005 8.6502 4.60005 8.0002 4.60005C7.3502 4.60005 6.85019 4.10005 6.85019 3.45005C6.85019 2.80005 7.3502 2.30005 8.0002 2.30005ZM8.3002 5.60005V7.10005H7.6502V5.60005C7.7502 5.60005 7.9002 5.60005 8.0002 5.60005C8.1002 5.60005 8.2002 5.60005 8.3002 5.60005ZM8.3502 12.3C8.3502 12.35 8.3502 12.45 8.3502 12.5C8.3502 12.6 8.3502 12.65 8.3502 12.75V13.35C8.3502 13.55 8.2002 13.7 8.0002 13.7C7.9002 13.7 7.8002 13.7 7.7502 13.6C7.7002 13.5 7.6502 13.45 7.6502 13.35V12.75C7.6502 12.65 7.6502 12.6 7.6502 12.55C7.6502 12.5 7.6502 12.4 7.6502 12.3V10.1C7.6502 9.90005 7.8002 9.75005 8.0002 9.75005C8.1502 9.75005 8.3002 9.90005 8.3502 10.1V12.3ZM10.8002 8.40005V10.9C10.8002 11.55 10.3002 12.05 9.6502 12.05H9.3502V10C9.3502 9.30005 8.7502 8.70005 8.0002 8.70005C7.2502 8.70005 6.6502 9.30005 6.6502 10.05V12.05H6.35019C5.70019 12.05 5.2002 11.55 5.2002 10.9V8.40005C5.2002 7.35005 5.8002 6.40005 6.6502 5.95005V7.20005C6.6502 7.70005 7.0502 8.10005 7.5502 8.10005H8.4002C8.9002 8.10005 9.3002 7.70005 9.3002 7.15005V5.90005C10.2002 6.40005 10.8002 7.30005 10.8002 8.40005ZM11.3002 3.80005H10.1002C10.1002 3.70005 10.1502 3.55005 10.1502 3.45005C10.1502 3.35005 10.1502 3.20005 10.1002 3.10005H11.3002C11.5002 3.10005 11.6502 3.25005 11.6502 3.45005C11.6502 3.65005 11.5002 3.80005 11.3002 3.80005Z" fill="#2D373D"/>
</svg>
