<svg width="16" height="17" viewBox="0 0 16 17" fill="none" xmlns="http://www.w3.org/2000/svg">
<path d="M11.1663 3.96159C11.1663 4.23773 11.3902 4.46159 11.6663 4.46159C11.9425 4.46159 12.1663 4.23773 12.1663 3.96159L12.1663 2.29492C12.1663 2.01878 11.9425 1.79492 11.6663 1.79492H9.99967C9.72353 1.79492 9.49967 2.01878 9.49967 2.29492C9.49967 2.57106 9.72353 2.79492 9.99967 2.79492L11.1663 2.79492L11.1663 3.96159Z" fill="#2D373D"/>
<path d="M7.1411 3.08669C7.12936 3.08622 7.11637 3.08877 7.10089 3.09924C6.11048 3.769 3.35787 5.73453 2.17215 6.82904C1.96924 7.01634 1.65291 7.00369 1.46561 6.80078C1.27831 6.59787 1.29096 6.28154 1.49387 6.09424C2.74131 4.94275 5.55154 2.93979 6.54071 2.27087C6.93686 2.00297 7.43362 2.03709 7.79594 2.30884L12.7997 6.06164C13.0206 6.22733 13.0654 6.54073 12.8997 6.76164C12.734 6.98255 12.4206 7.02733 12.1997 6.86164L7.19594 3.10884C7.17325 3.09182 7.15379 3.0872 7.1411 3.08669Z" fill="#2D373D"/>
<path d="M3.33301 6.62825C3.60915 6.62825 3.83301 6.85211 3.83301 7.12825V11.7949C3.83301 11.887 3.90763 11.9616 3.99967 11.9616H5.99967C6.27582 11.9616 6.49967 12.1854 6.49967 12.4616C6.49967 12.7377 6.27582 12.9616 5.99967 12.9616H3.99967C3.35534 12.9616 2.83301 12.4393 2.83301 11.7949V7.12825C2.83301 6.85211 3.05687 6.62825 3.33301 6.62825Z" fill="#2D373D"/>
<path d="M11.6663 8.87825C11.2067 8.87825 10.6011 8.92691 10.1048 9.25188C9.77457 9.46808 9.52506 9.78348 9.38315 10.2116H8.99967C8.76956 10.2116 8.58301 10.3981 8.58301 10.6283C8.58301 10.8584 8.76956 11.0449 8.99967 11.0449H9.25057C9.24997 11.0724 9.24967 11.1002 9.24967 11.1283C9.24967 11.2143 9.25177 11.2976 9.25593 11.3783H8.99967C8.76956 11.3783 8.58301 11.5648 8.58301 11.7949C8.58301 12.025 8.76956 12.2116 8.99967 12.2116H9.40123C9.54529 12.6396 9.79039 12.9407 10.1295 13.1305C10.3947 13.279 10.6814 13.3365 10.94 13.3607C11.1519 13.3806 11.3708 13.3795 11.5579 13.3786C11.5954 13.3784 11.6317 13.3783 11.6663 13.3783C11.8965 13.3783 12.083 13.1917 12.083 12.9616C12.083 12.7315 11.8965 12.5449 11.6663 12.5449C11.6242 12.5449 11.5829 12.5451 11.5424 12.5453H11.5416C11.3552 12.546 11.185 12.5467 11.0177 12.531C10.818 12.5123 10.6602 12.4726 10.5365 12.4034C10.467 12.3645 10.3918 12.3066 10.3231 12.2116H10.833C11.0631 12.2116 11.2497 12.025 11.2497 11.7949C11.2497 11.5648 11.0631 11.3783 10.833 11.3783H10.0903C10.0856 11.3008 10.083 11.2177 10.083 11.1283C10.083 11.0998 10.0834 11.0721 10.0841 11.0449H11.333C11.5631 11.0449 11.7497 10.8584 11.7497 10.6283C11.7497 10.3981 11.5631 10.2116 11.333 10.2116H10.2984C10.3761 10.0932 10.4678 10.0103 10.5612 9.94907C10.8427 9.76478 11.2371 9.71159 11.6663 9.71159C11.8965 9.71159 12.083 9.52504 12.083 9.29492C12.083 9.0648 11.8965 8.87825 11.6663 8.87825Z" fill="#2D373D"/>
<path fill-rule="evenodd" clip-rule="evenodd" d="M10.6663 15.1283C12.8755 15.1283 14.6663 13.3374 14.6663 11.1283C14.6663 8.91912 12.8755 7.12825 10.6663 7.12825C8.4572 7.12825 6.66634 8.91912 6.66634 11.1283C6.66634 13.3374 8.4572 15.1283 10.6663 15.1283ZM10.6663 14.1283C12.3232 14.1283 13.6663 12.7851 13.6663 11.1283C13.6663 9.4714 12.3232 8.12825 10.6663 8.12825C9.00949 8.12825 7.66634 9.4714 7.66634 11.1283C7.66634 12.7851 9.00949 14.1283 10.6663 14.1283Z" fill="#2D373D"/>
</svg>
