<svg width="64" height="65" viewBox="0 0 64 65" fill="none" xmlns="http://www.w3.org/2000/svg">
<path d="M47.9995 37.5859H40.5595C39.2935 37.5859 38.0794 38.0888 37.1843 38.984C36.2891 39.8792 35.7862 41.0933 35.7862 42.3593V48.0126C35.7942 48.1162 35.7797 48.2203 35.7436 48.3178C35.7076 48.4152 35.6509 48.5037 35.5774 48.5772C35.504 48.6507 35.4155 48.7074 35.318 48.7434C35.2205 48.7794 35.1164 48.7939 35.0128 48.7859H20.9595L21.3328 48.5459C21.5215 48.3621 21.6715 48.1423 21.7739 47.8996C21.8763 47.6568 21.929 47.3961 21.929 47.1326C21.929 46.8692 21.8763 46.6084 21.7739 46.3656C21.6715 46.1229 21.5215 45.9031 21.3328 45.7193C20.9578 45.3447 20.4495 45.1344 19.9195 45.1344C19.3895 45.1344 18.8812 45.3447 18.5062 45.7193L14.5862 49.5059C14.3892 49.7042 14.2372 49.9426 14.1406 50.2049C14.0439 50.4672 14.0049 50.7472 14.0262 51.0259C14.0067 51.3045 14.0465 51.584 14.143 51.846C14.2396 52.1081 14.3906 52.3466 14.5862 52.5459L18.3728 56.3326C18.5575 56.5196 18.7776 56.6678 19.0203 56.7685C19.263 56.8693 19.5234 56.9205 19.7862 56.9193C20.0712 56.9411 20.3576 56.8998 20.6249 56.7984C20.8922 56.697 21.1339 56.538 21.3328 56.3326C21.5215 56.1487 21.6715 55.929 21.7739 55.6862C21.8763 55.4435 21.929 55.1827 21.929 54.9193C21.929 54.6558 21.8763 54.395 21.7739 54.1523C21.6715 53.9096 21.5215 53.6898 21.3328 53.5059L20.6128 52.7859H35.1462C36.4116 52.7777 37.625 52.2809 38.5328 51.3993C38.9766 50.9546 39.3276 50.4263 39.5657 49.8449C39.8037 49.2636 39.924 48.6408 39.9195 48.0126V42.3593C39.9163 42.258 39.9363 42.1573 39.9779 42.0649C40.0195 41.9725 40.0816 41.8907 40.1595 41.8259C40.2267 41.7508 40.3088 41.6907 40.4007 41.6493C40.4926 41.608 40.5921 41.5864 40.6928 41.5859H47.9995C48.5299 41.5859 49.0387 41.3752 49.4137 41.0001C49.7888 40.6251 49.9995 40.1164 49.9995 39.5859C49.9995 39.0555 49.7888 38.5468 49.4137 38.1717C49.0387 37.7966 48.5299 37.5859 47.9995 37.5859Z" fill="#2D373D"/>
<path d="M16.9062 40.4941C17.3594 40.7278 17.863 40.8468 18.3728 40.8408C18.8909 40.8438 19.4024 40.7251 19.8662 40.4941C20.3238 40.2654 20.7247 39.9374 21.0395 39.5341C24.5328 35.0808 28.6928 28.8675 28.6928 25.1075C28.6891 22.3703 27.6063 19.7449 25.6795 17.8008C23.7013 15.9408 21.0882 14.9053 18.3728 14.9053C15.6575 14.9053 13.0444 15.9408 11.0662 17.8008C10.0976 18.7557 9.32793 19.8931 8.80156 21.1472C8.27519 22.4013 8.00259 23.7474 7.99951 25.1075C7.99951 28.9475 12.1595 35.0808 15.6528 39.5341C15.987 39.9506 16.417 40.28 16.9062 40.4941ZM13.8928 20.6275C14.7768 19.7391 15.9049 19.1336 17.1338 18.8879C18.3627 18.6422 19.6369 18.7674 20.7944 19.2476C21.952 19.7277 22.9407 20.5412 23.6348 21.5846C24.329 22.628 24.6973 23.8543 24.6928 25.1075C24.6928 27.0008 22.2395 31.4275 18.3728 36.4408C14.5062 31.4275 12.0528 27.0275 12.0528 25.1075C12.0557 23.4308 12.7163 21.8221 13.8928 20.6275Z" fill="#2D373D"/>
<path d="M18.3995 26.5475C19.5041 26.5475 20.3995 25.652 20.3995 24.5475C20.3995 23.4429 19.5041 22.5475 18.3995 22.5475C17.2949 22.5475 16.3995 23.4429 16.3995 24.5475C16.3995 25.652 17.2949 26.5475 18.3995 26.5475Z" fill="#2D373D"/>
<path d="M45.8128 32.7875C46.2182 33.0215 46.6781 33.1447 47.1462 33.1447C47.6143 33.1447 48.0741 33.0215 48.4795 32.7875C48.8666 32.5653 49.1956 32.2546 49.4395 31.8808C52.3995 27.2941 55.9995 21.1075 55.9995 17.7741C55.9948 16.5967 55.7567 15.4319 55.299 14.3471C54.8413 13.2623 54.173 12.279 53.3328 11.4541C51.6278 9.83343 49.3653 8.92969 47.0128 8.92969C44.6604 8.92969 42.3979 9.83343 40.6928 11.4541C39.8527 12.279 39.1844 13.2623 38.7267 14.3471C38.269 15.4319 38.0309 16.5967 38.0262 17.7741C38.0262 21.1075 41.6528 27.2941 44.7195 31.8808C45.0008 32.2712 45.3772 32.5832 45.8128 32.7875ZM43.5995 14.2808C44.2895 13.5889 45.1694 13.1174 46.1277 12.9262C47.086 12.7351 48.0794 12.8328 48.9821 13.207C49.8848 13.5812 50.656 14.215 51.1979 15.0281C51.7399 15.8412 52.0281 16.797 52.0262 17.7741C51.0301 21.4635 49.3573 24.9358 47.0928 28.0141C44.8284 24.9358 43.1556 21.4635 42.1595 17.7741C42.1582 17.1258 42.2847 16.4836 42.5318 15.8841C42.7789 15.2847 43.1417 14.7399 43.5995 14.2808Z" fill="#2D373D"/>
<path d="M47.1728 19.9875C48.2774 19.9875 49.1728 19.092 49.1728 17.9875C49.1728 16.8829 48.2774 15.9875 47.1728 15.9875C46.0683 15.9875 45.1728 16.8829 45.1728 17.9875C45.1728 19.092 46.0683 19.9875 47.1728 19.9875Z" fill="#2D373D"/>
</svg>
