<svg width="24" height="25" viewBox="0 0 24 25" fill="none" xmlns="http://www.w3.org/2000/svg">
<path d="M21.8476 11.292C21.6976 11.482 21.4776 11.592 21.2476 11.592C21.0876 11.592 20.9376 11.542 20.7976 11.442L12.1176 4.98204C12.1176 4.98204 11.9476 4.87204 11.8176 4.96204C10.2676 6.00204 5.34759 9.46205 3.25759 11.392C2.94759 11.672 2.47759 11.652 2.19759 11.352C1.91759 11.042 1.93759 10.572 2.23759 10.292C4.35759 8.33204 9.12759 4.96204 10.9876 3.71204C11.6076 3.30204 12.4076 3.32204 13.0076 3.78204L21.6976 10.242C22.0276 10.482 22.0976 10.952 21.8476 11.292Z" fill="#2D373D"/>
<path d="M18.9976 11.3418C18.5876 11.3418 18.2476 11.6818 18.2476 12.0918V15.1118C17.1176 14.9418 16.5476 14.4118 16.5276 14.3918C16.2476 14.1118 15.7976 14.1018 15.4976 14.3618C15.1176 14.7018 14.3776 15.1718 13.9976 15.1718C13.5976 15.1718 12.8676 14.6918 12.4976 14.3618C12.2076 14.1118 11.7876 14.1118 11.4976 14.3618C11.1176 14.7018 10.3776 15.1718 9.99756 15.1718C9.59756 15.1718 8.86756 14.6918 8.49756 14.3618C8.19756 14.1018 7.75756 14.1118 7.47756 14.3818C7.44756 14.4118 6.87756 14.9418 5.74756 15.1118V12.0918C5.74756 11.6818 5.40756 11.3418 4.99756 11.3418C4.58756 11.3418 4.24756 11.6818 4.24756 12.0918V21.0318C4.24756 22.0718 5.09756 22.9218 6.14756 22.9218H17.8476C18.8976 22.9218 19.7476 22.0718 19.7476 21.0318V12.0918C19.7476 11.6818 19.4076 11.3418 18.9976 11.3418ZM18.2476 21.0318C18.2476 21.2418 18.0676 21.4218 17.8476 21.4218H6.14756C5.92756 21.4218 5.74756 21.2418 5.74756 21.0318V20.1218C6.77756 20.0018 7.51756 19.6518 7.97756 19.3618C8.47756 19.7218 9.25756 20.1718 9.99756 20.1718C10.7376 20.1718 11.4976 19.7318 11.9976 19.3718C12.4976 19.7318 13.2576 20.1718 13.9976 20.1718C14.7376 20.1718 15.5176 19.7218 16.0076 19.3618C16.4676 19.6518 17.2176 20.0018 18.2476 20.1218V21.0318ZM16.5276 17.8918C16.2476 17.6118 15.7976 17.6018 15.4976 17.8618C15.1176 18.2018 14.3776 18.6718 13.9976 18.6718C13.5976 18.6718 12.8676 18.1918 12.4976 17.8618C12.2076 17.6118 11.7876 17.6118 11.4976 17.8618C11.1176 18.2018 10.3776 18.6718 9.99756 18.6718C9.59756 18.6718 8.86756 18.1918 8.49756 17.8618C8.19756 17.6018 7.75756 17.6118 7.47756 17.8818C7.44756 17.9118 6.87756 18.4418 5.74756 18.6118V16.6218C6.77756 16.5018 7.51756 16.1518 7.97756 15.8618C8.47756 16.2218 9.25756 16.6718 9.99756 16.6718C10.7376 16.6718 11.4976 16.2318 11.9976 15.8718C12.4976 16.2318 13.2576 16.6718 13.9976 16.6718C14.7376 16.6718 15.5176 16.2218 16.0076 15.8618C16.4676 16.1518 17.2176 16.5018 18.2476 16.6218V18.6118C17.1176 18.4418 16.5476 17.9118 16.5276 17.8918Z" fill="#2D373D"/>
<path d="M20.4876 3.67188V6.54187C20.4876 6.95187 20.1576 7.29187 19.7376 7.29187C19.3176 7.29187 18.9876 6.95187 18.9876 6.54187V4.42188H16.8676C16.4576 4.42188 16.1176 4.08187 16.1176 3.67188C16.1176 3.26188 16.4576 2.92188 16.8676 2.92188H19.7376C20.1576 2.92188 20.4876 3.26188 20.4876 3.67188Z" fill="#2D373D"/>
</svg>
