<svg width="32" height="33" viewBox="0 0 32 33" fill="none" xmlns="http://www.w3.org/2000/svg">
<path d="M6.13668 6.59762C6.2242 6.5101 6.3429 6.46094 6.46667 6.46094H16.7333C16.8571 6.46094 16.9758 6.5101 17.0633 6.59762C17.1508 6.68514 17.2 6.80384 17.2 6.9276V9.86094C17.2 10.4132 17.6477 10.8609 18.2 10.8609C18.7523 10.8609 19.2 10.4132 19.2 9.86094V6.9276C19.2 6.2734 18.9401 5.646 18.4775 5.18341C18.0149 4.72082 17.3875 4.46094 16.7333 4.46094H6.46667C5.81247 4.46094 5.18506 4.72082 4.72247 5.18341C4.25988 5.646 4 6.2734 4 6.9276V14.2609C4 14.9151 4.25988 15.5425 4.72247 16.0051C5.18506 16.4677 5.81247 16.7276 6.46667 16.7276H6.93333V20.1276C6.93333 20.5321 7.17698 20.8967 7.55065 21.0515C7.92432 21.2063 8.35444 21.1207 8.64044 20.8347L11.5738 17.9014C11.9643 17.5109 11.9643 16.8777 11.5738 16.4872C11.1832 16.0966 10.5501 16.0966 10.1596 16.4872L8.93333 17.7134V15.7276C8.93333 15.1753 8.48562 14.7276 7.93333 14.7276H6.46667C6.3429 14.7276 6.2242 14.6784 6.13668 14.5909C6.04917 14.5034 6 14.3847 6 14.2609V6.9276C6 6.80384 6.04917 6.68514 6.13668 6.59762Z" fill="#2D373D"/>
<path fill-rule="evenodd" clip-rule="evenodd" d="M15.2667 11.7943C14.6125 11.7943 13.9851 12.0542 13.5225 12.5168C13.0599 12.9794 12.8 13.6068 12.8 14.261V21.5943C12.8 22.2485 13.0599 22.8759 13.5225 23.3385C13.9851 23.8011 14.6125 24.061 15.2667 24.061H19.2525L23.3596 28.1681C23.6456 28.4541 24.0757 28.5396 24.4494 28.3849C24.8231 28.2301 25.0667 27.8654 25.0667 27.461V24.061H25.5334C26.1876 24.061 26.815 23.8011 27.2776 23.3385C27.7402 22.8759 28 22.2485 28 21.5943V14.261C28 13.6068 27.7402 12.9794 27.2776 12.5168C26.815 12.0542 26.1876 11.7943 25.5334 11.7943H15.2667ZM14.9367 13.931C15.0242 13.8435 15.1429 13.7943 15.2667 13.7943H25.5334C25.6572 13.7943 25.7758 13.8435 25.8634 13.931C25.9509 14.0185 26 14.1372 26 14.261V21.5943C26 21.7181 25.9509 21.8368 25.8634 21.9243C25.7758 22.0118 25.6571 22.061 25.5334 22.061H24.0667C23.5144 22.061 23.0667 22.5087 23.0667 23.061V25.0468L20.3738 22.3539C20.1863 22.1663 19.9319 22.061 19.6667 22.061H15.2667C15.1429 22.061 15.0243 22.0118 14.9367 21.9243C14.8492 21.8368 14.8 21.7181 14.8 21.5943V14.261C14.8 14.1372 14.8492 14.0185 14.9367 13.931Z" fill="#2D373D"/>
</svg>
