<svg width="32" height="33" viewBox="0 0 32 33" fill="none" xmlns="http://www.w3.org/2000/svg">
<path d="M27.7002 11.8605C27.6002 11.2605 27.3002 10.7605 26.9002 10.3605L20.4002 3.86055C19.9002 3.36055 19.2002 3.06055 18.5002 3.06055H6.80016C5.40016 3.06055 4.20016 4.26055 4.20016 5.76055V27.1605C4.10016 28.6605 5.30016 29.8605 6.80016 29.8605H25.1002C25.8002 29.8605 26.4002 29.5605 26.9002 29.1605C27.4002 28.6605 27.7002 27.9605 27.7002 27.2605V12.7605C27.8002 12.6605 27.8002 12.4605 27.8002 12.3605C27.8002 12.1605 27.8002 11.9605 27.7002 11.8605ZM19.5002 5.66055L25.2002 11.3605H20.2002C19.8002 11.3605 19.5002 11.0605 19.5002 10.6605V5.66055ZM25.8002 27.2605C25.8002 27.4605 25.8002 27.6605 25.6002 27.7605C25.4002 27.8605 25.3002 27.9605 25.1002 27.9605H6.90016C6.50016 27.9605 6.20016 27.6605 6.20016 27.2605V5.76055C6.20016 5.36055 6.50016 5.06055 6.80016 5.06055H17.5002V10.6605C17.5002 12.1605 18.6002 13.3605 20.1002 13.3605H25.8002V27.2605Z" fill="#2D373D"/>
<path d="M12.5998 18.1605V17.8605C13.9998 17.4605 14.9998 16.5605 14.9998 15.2605C14.9998 13.7605 13.4998 12.5605 11.6998 12.5605C10.8998 12.5605 10.3998 12.1605 10.3998 11.8605C10.3998 11.5605 10.8998 11.1605 11.6998 11.1605C12.0998 11.1605 12.5998 11.3605 12.8998 11.7605C13.1998 12.1605 13.7998 12.2605 14.2998 11.9605C14.6998 11.6605 14.7998 10.9605 14.4998 10.5605C13.9998 9.96055 13.2998 9.46055 12.5998 9.26055V9.06055C12.5998 8.46055 12.1998 8.06055 11.5998 8.06055C10.9998 8.06055 10.5998 8.46055 10.5998 9.06055V9.26055C9.1998 9.56055 8.2998 10.5605 8.2998 11.8605C8.2998 13.3605 9.79981 14.5605 11.5998 14.5605C12.3998 14.5605 12.8998 14.9605 12.8998 15.2605C12.8998 15.5605 12.3998 15.9605 11.5998 15.9605C11.0998 15.9605 10.6998 15.7605 10.3998 15.3605C10.0998 14.9605 9.3998 14.8605 8.9998 15.1605C8.5998 15.4605 8.4998 16.1605 8.7998 16.5605C9.1998 17.1605 9.8998 17.6605 10.5998 17.8605V18.1605C10.5998 18.7605 10.9998 19.1605 11.5998 19.1605C12.1998 19.1605 12.5998 18.6605 12.5998 18.1605Z" fill="#2D373D"/>
<path d="M16.6006 19.7604C16.6006 20.3604 17.0006 20.7604 17.6006 20.7604H22.6006C23.1006 20.7604 23.6006 20.3604 23.6006 19.7604C23.6006 19.1604 23.2006 18.7604 22.6006 18.7604H17.6006C17.0006 18.7604 16.6006 19.1604 16.6006 19.7604Z" fill="#2D373D"/>
<path d="M22.6001 23.7605H12.9001C12.3001 23.7605 11.9001 24.1605 11.9001 24.7605C11.9001 25.3605 12.3001 25.7605 12.9001 25.7605H22.6001C23.1001 25.7605 23.6001 25.3605 23.6001 24.7605C23.6001 24.1605 23.2001 23.7605 22.6001 23.7605Z" fill="#2D373D"/>
</svg>
