<svg width="64" height="65" viewBox="0 0 64 65" fill="none" xmlns="http://www.w3.org/2000/svg">
<path d="M52.6001 23.8617C51.2001 22.2617 49.4001 21.0617 47.4001 20.2617C47.2001 16.4617 45.6001 12.8617 42.8001 10.2617C36.6001 4.26172 27.0001 4.26172 20.8001 10.2617C18.2001 12.8617 16.6001 16.4617 16.6001 20.2617C14.6001 21.0617 13.0001 22.2617 11.4001 23.8617C5.80011 30.0617 6.20011 39.4617 12.2001 45.0617L32.0001 59.2617L51.6001 45.2617L52.0001 45.0617C57.8001 39.4617 58.2001 30.0617 52.6001 23.8617ZM24.6001 13.4617C26.6001 11.8617 29.2001 10.6617 32.0001 10.6617C34.8001 10.6617 37.4001 11.8617 39.4001 13.6617C40.8001 15.0617 41.8001 16.8617 42.2001 18.8617C39.4001 18.6617 36.6001 19.2617 34.0001 20.4617C32.8001 21.0617 31.2001 21.0617 30.0001 20.4617C27.4001 19.0617 24.6001 18.6617 21.8001 18.6617C22.2001 16.6617 23.2001 14.8617 24.6001 13.4617ZM42.0001 24.0617C41.4001 25.6617 40.6001 27.0617 39.4001 28.2617C35.4001 32.2617 28.8001 32.2617 24.8001 28.2617C23.6001 27.0617 22.8001 25.6617 22.2001 24.0617C24.2001 23.8617 26.0001 24.2617 27.8001 25.2617C29.2001 25.8617 30.6001 26.2617 32.2001 26.2617C33.8001 26.2617 35.2001 25.8617 36.6001 25.2617C38.2001 24.2617 40.0001 23.8617 42.0001 24.0617ZM50.0001 39.6617C49.6001 40.2617 49.0001 40.8617 48.4001 41.4617L32.0001 53.0617L15.6001 41.4617C11.6001 37.6617 11.4001 31.2617 15.2001 27.2617C15.8001 26.6617 16.4001 26.0617 17.2001 25.6617C18.0001 28.0617 19.2001 30.0617 21.0001 31.8617C27.2001 37.8617 36.8001 37.8617 43.0001 31.8617C44.8001 30.0617 46.0001 28.0617 46.8001 25.6617C51.6001 28.6617 53.0001 34.8617 50.0001 39.6617Z" fill="#2D373D"/>
</svg>
