<svg width="16" height="16" viewBox="0 0 16 16" fill="none" xmlns="http://www.w3.org/2000/svg">
<path d="M13 2H8.85501C8.58979 2 8.33544 2.10536 8.1479 2.29289C7.96036 2.48043 7.85501 2.73478 7.85501 3V8.245C7.85501 8.51022 7.96036 8.76457 8.1479 8.95211C8.33544 9.13964 8.58979 9.245 8.85501 9.245H13C13.2652 9.245 13.5196 9.13964 13.7071 8.95211C13.8946 8.76457 14 8.51022 14 8.245V3C14 2.73478 13.8946 2.48043 13.7071 2.29289C13.5196 2.10536 13.2652 2 13 2ZM8.86501 8.245L8.85501 3H13V8.235L8.86501 8.245Z" fill="#2D373D"/>
<path d="M12.28 3.9C12.1652 3.83481 12.0293 3.81768 11.9019 3.85234C11.7745 3.887 11.666 3.97063 11.6 4.085L10.455 6.085L10.185 5.815C10.1462 5.74941 10.0928 5.69358 10.0291 5.65176C9.96538 5.60994 9.89293 5.58324 9.81731 5.57371C9.74168 5.56418 9.66487 5.57207 9.59276 5.59677C9.52065 5.62147 9.45514 5.66233 9.40124 5.71623C9.34734 5.77013 9.30648 5.83564 9.28177 5.90775C9.25707 5.97987 9.24919 6.05667 9.25872 6.1323C9.26825 6.20793 9.29494 6.28037 9.33676 6.3441C9.37858 6.40783 9.43442 6.46116 9.50001 6.5L10.235 7.235C10.3281 7.32737 10.4538 7.37945 10.585 7.38H10.655C10.7256 7.36857 10.793 7.34213 10.8525 7.30245C10.912 7.26277 10.9623 7.21078 11 7.15L12.465 4.58C12.5302 4.46519 12.5473 4.32926 12.5127 4.20187C12.478 4.07447 12.3944 3.96596 12.28 3.9Z" fill="#2D373D"/>
<path d="M3.66501 9.9C3.59914 9.96515 3.54739 10.0432 3.51299 10.1292C3.47858 10.2152 3.46225 10.3074 3.46501 10.4C3.46283 10.4925 3.47944 10.5845 3.51381 10.6705C3.54819 10.7564 3.59962 10.8345 3.66501 10.9C3.79394 11.0261 3.96714 11.0968 4.14751 11.0968C4.32787 11.0968 4.50107 11.0261 4.63001 10.9C4.69606 10.8347 4.74827 10.7568 4.78349 10.6709C4.81872 10.585 4.83624 10.4928 4.83501 10.4C4.83633 10.3076 4.81934 10.2158 4.78501 10.13C4.75069 10.0442 4.6997 9.96601 4.63501 9.9C4.50137 9.7698 4.32157 9.69788 4.13501 9.7C3.95841 9.70358 3.79003 9.77523 3.66501 9.9Z" fill="#2D373D"/>
<path d="M11.595 10.87C11.6611 10.8047 11.7133 10.7268 11.7485 10.6409C11.7837 10.555 11.8012 10.4628 11.8 10.37C11.8028 10.2774 11.7864 10.1852 11.752 10.0992C11.7176 10.0132 11.6659 9.93516 11.6 9.87C11.534 9.8053 11.4558 9.75432 11.37 9.72C11.2842 9.68567 11.1924 9.66868 11.1 9.67C10.9192 9.67132 10.7463 9.74407 10.6189 9.87239C10.4915 10.0007 10.42 10.1742 10.42 10.355C10.4163 10.491 10.4534 10.6249 10.5266 10.7395C10.5998 10.8542 10.7057 10.9442 10.8306 10.998C10.9555 11.0519 11.0937 11.067 11.2273 11.0415C11.3608 11.016 11.4837 10.9511 11.58 10.855L11.595 10.87Z" fill="#2D373D"/>
<path d="M12.765 9.7C12.6324 9.7 12.5052 9.75268 12.4115 9.84645C12.3177 9.94022 12.265 10.0674 12.265 10.2V11.3C12.2647 11.3612 12.2415 11.42 12.2 11.465C12.1564 11.5092 12.0971 11.5344 12.035 11.535H3.23501C3.20413 11.5356 3.17348 11.5296 3.14506 11.5176C3.11663 11.5055 3.09106 11.4876 3.07001 11.465C3.04766 11.4438 3.02991 11.4182 3.01787 11.3898C3.00583 11.3614 2.99975 11.3308 3.00001 11.3V10.2C2.99867 10.0729 3.02272 9.94682 3.07074 9.82913C3.11876 9.71145 3.18979 9.60454 3.27967 9.51466C3.36954 9.42478 3.47646 9.35375 3.59414 9.30573C3.71182 9.25771 3.83791 9.23366 3.96501 9.235H6.90001C7.03262 9.235 7.15979 9.18232 7.25356 9.08855C7.34733 8.99479 7.40001 8.86761 7.40001 8.735C7.40001 8.60239 7.34733 8.47522 7.25356 8.38145C7.15979 8.28768 7.03262 8.235 6.90001 8.235H4.37001L4.90001 7.055C4.94217 6.94091 5.01913 6.84296 5.12001 6.775C5.21954 6.70465 5.33813 6.66628 5.46001 6.665H6.90001C7.03262 6.665 7.15979 6.61232 7.25356 6.51855C7.34733 6.42479 7.40001 6.29761 7.40001 6.165C7.40001 6.03239 7.34733 5.90521 7.25356 5.81145C7.15979 5.71768 7.03262 5.665 6.90001 5.665H5.46001C5.13481 5.66561 4.81746 5.765 4.55001 5.95C4.29912 6.13207 4.10775 6.38434 4.00001 6.675L3.20501 8.385C2.97013 8.48575 2.75638 8.62994 2.57501 8.81C2.39213 8.99225 2.24716 9.20891 2.14847 9.44748C2.04978 9.68606 1.99932 9.94182 2.00001 10.2V11.3C1.99967 11.4616 2.0313 11.6217 2.09308 11.771C2.15487 11.9203 2.24558 12.0559 2.36001 12.17V12.76C2.35867 12.9232 2.38984 13.0851 2.45168 13.2361C2.51353 13.3871 2.60481 13.5244 2.72022 13.6398C2.83564 13.7552 2.97286 13.8465 3.12391 13.9083C3.27495 13.9702 3.4368 14.0013 3.60001 14C3.92714 13.9987 4.24051 13.8681 4.47183 13.6368C4.70315 13.4055 4.83369 13.0921 4.83501 12.765V12.535H10.435V12.765C10.4343 12.9269 10.4657 13.0874 10.5272 13.2372C10.5887 13.387 10.6792 13.5232 10.7935 13.638C10.9078 13.7527 11.0436 13.8438 11.1931 13.9059C11.3427 13.968 11.5031 14 11.665 14C11.8274 14.0007 11.9883 13.9692 12.1384 13.9073C12.2885 13.8455 12.4249 13.7546 12.5398 13.6398C12.6546 13.5249 12.7455 13.3885 12.8073 13.2384C12.8692 13.0883 12.9007 12.9274 12.9 12.765V12.175C13.0153 12.0616 13.1066 11.9261 13.1685 11.7766C13.2303 11.6271 13.2615 11.4668 13.26 11.305V10.2C13.26 10.0683 13.208 9.94183 13.1153 9.8482C13.0226 9.75458 12.8967 9.70132 12.765 9.7ZM3.83501 12.765C3.83557 12.7959 3.82963 12.8265 3.81757 12.855C3.80551 12.8834 3.7876 12.909 3.76501 12.93C3.72103 12.9734 3.66176 12.9977 3.60001 12.9977C3.53825 12.9977 3.47898 12.9734 3.43501 12.93C3.41241 12.909 3.3945 12.8834 3.38244 12.855C3.37038 12.8265 3.36444 12.7959 3.36501 12.765V12.535H3.83501V12.765ZM11.835 12.93C11.8028 12.9631 11.7614 12.9858 11.7162 12.9951C11.6709 13.0044 11.6239 12.9999 11.5813 12.982C11.5387 12.9642 11.5024 12.934 11.4772 12.8953C11.452 12.8566 11.439 12.8112 11.44 12.765V12.535H11.905V12.765C11.9049 12.7963 11.8982 12.8271 11.8853 12.8556C11.8724 12.884 11.8535 12.9094 11.83 12.93H11.835Z" fill="#2D373D"/>
</svg>
