<svg width="32" height="33" viewBox="0 0 32 33" fill="none" xmlns="http://www.w3.org/2000/svg">
<path d="M20.9 15.9233H17V11.9233C17 11.3233 16.6 10.9233 16 10.9233C15.4 10.9233 15 11.3233 15 11.9233V15.9233H11C10.4 15.9233 10 16.3233 10 16.9233C10 17.5233 10.4 17.9233 11 17.9233H15V21.9233C15 22.5233 15.4 22.9233 16 22.9233C16.6 22.9233 17 22.4233 17 21.8233V17.9233H21C21.5 17.9233 21.9 17.5233 21.9 16.9233C21.9 16.3233 21.5 15.9233 20.9 15.9233Z" fill="#2D373D"/>
<path d="M15.9996 3.52344C8.59961 3.52344 2.59961 9.52344 2.59961 16.8234C2.59961 16.9234 2.59961 16.9234 2.59961 16.9234C2.59961 20.5234 3.99961 23.8234 6.49961 26.4234C9.09961 28.9234 12.3996 30.3234 15.9996 30.3234C23.3996 30.3234 29.3996 24.3234 29.3996 16.9234C29.3996 9.52344 23.3996 3.52344 15.9996 3.52344ZM15.9996 28.3234C12.8996 28.3234 10.0996 27.2234 7.89961 25.0234C5.79961 22.9234 4.59961 20.0234 4.59961 17.0234C4.59961 10.6234 9.69961 5.52344 15.9996 5.52344C22.2996 5.52344 27.3996 10.6234 27.3996 16.9234C27.3996 23.2234 22.2996 28.3234 15.9996 28.3234Z" fill="#2D373D"/>
</svg>
