<svg width="32" height="33" viewBox="0 0 32 33" fill="none" xmlns="http://www.w3.org/2000/svg">
<path d="M14.834 14.3934C15.1654 13.9517 15.0759 13.3248 14.6341 12.9934C14.1923 12.662 13.5655 12.7515 13.2341 13.1933L11.1063 16.0297L10.0401 14.9645C9.64944 14.5742 9.01628 14.5744 8.62592 14.9651C8.23557 15.3558 8.23584 15.989 8.62653 16.3793L9.85729 17.609C10.0393 17.791 10.2583 17.9317 10.4994 18.0217C10.7406 18.1117 10.9983 18.1489 11.2551 18.1308C11.512 18.1126 11.7619 18.0394 11.988 17.9163C12.2141 17.7932 12.4114 17.6225 12.5661 17.4166L14.834 14.3934Z" fill="#2D373D"/>
<path d="M14.834 21.5737C15.1654 21.1319 15.0759 20.5051 14.6341 20.1737C14.1923 19.8423 13.5655 19.9318 13.2341 20.3735L11.1063 23.2099L10.0404 22.144C9.64992 21.7535 9.01675 21.7535 8.62623 22.144C8.2357 22.5346 8.2357 23.1677 8.62623 23.5583L9.85704 24.7891C10.0391 24.9711 10.2582 25.1119 10.4994 25.202C10.7406 25.292 10.9983 25.3292 11.2551 25.311C11.512 25.2929 11.7619 25.2197 11.988 25.0966C12.2141 24.9734 12.4114 24.8028 12.5661 24.5969L14.834 21.5737Z" fill="#2D373D"/>
<path d="M16.3112 17.1356C16.3112 16.5834 16.7589 16.1356 17.3112 16.1356H22.0981C22.6503 16.1356 23.0981 16.5834 23.0981 17.1356C23.0981 17.6879 22.6503 18.1356 22.0981 18.1356H17.3112C16.7589 18.1356 16.3112 17.6879 16.3112 17.1356Z" fill="#2D373D"/>
<path d="M17.3112 22.5181C16.7589 22.5181 16.3112 22.9658 16.3112 23.5181C16.3112 24.0704 16.7589 24.5181 17.3112 24.5181H22.0981C22.6503 24.5181 23.0981 24.0704 23.0981 23.5181C23.0981 22.9658 22.6503 22.5181 22.0981 22.5181H17.3112Z" fill="#2D373D"/>
<path fill-rule="evenodd" clip-rule="evenodd" d="M24.0999 3.95813C23.6248 3.47306 22.9777 3.19312 22.2942 3.19336H6.62831C5.93359 3.19336 5.2772 3.48278 4.80068 3.98177C4.32565 4.47919 4.06641 5.14441 4.06641 5.82892V27.0911C4.06641 27.7756 4.32565 28.4409 4.80068 28.9383C5.2772 29.4373 5.93359 29.7267 6.62831 29.7267H25.3712C26.0659 29.7267 26.7223 29.4373 27.1988 28.9383C27.6738 28.4409 27.9331 27.7756 27.9331 27.0911V8.97236C27.933 8.62696 27.867 8.28403 27.7379 7.96336C27.6087 7.64263 27.4183 7.3492 27.1757 7.10157L24.0999 3.95813ZM22.3333 5.19486C22.4526 5.20421 22.5727 5.25737 22.6707 5.35723L25.7471 8.50123C25.803 8.55831 25.8499 8.62909 25.8827 8.71061C25.8935 8.73743 25.9027 8.76508 25.9101 8.79336H22.3333V5.19486ZM20.3333 5.19336L6.62831 5.19336C6.49454 5.19336 6.35639 5.24858 6.24708 5.36304C6.13628 5.47907 6.06641 5.64587 6.06641 5.82892V27.0911C6.06641 27.2742 6.13628 27.441 6.24708 27.557C6.35639 27.6715 6.49454 27.7267 6.62831 27.7267H25.3712C25.5049 27.7267 25.6431 27.6715 25.7524 27.557C25.8632 27.441 25.9331 27.2742 25.9331 27.0911V10.7934H21.3333C20.781 10.7934 20.3333 10.3456 20.3333 9.79336V5.19336Z" fill="#2D373D"/>
</svg>
