<svg width="32" height="33" viewBox="0 0 32 33" fill="none" xmlns="http://www.w3.org/2000/svg">
<path d="M14.9999 15.8623C15.1999 15.3623 14.9999 14.7623 14.4999 14.5623C14.0999 14.3623 13.5999 14.2623 13.1999 14.1623C15.1999 13.4623 16.5999 11.5623 16.5999 9.4623C16.5999 6.6623 14.2999 4.3623 11.4999 4.3623C8.7999 4.3623 6.4999 6.6623 6.3999 9.3623C6.3999 11.5623 7.7999 13.4623 9.7999 14.1623C6.3999 14.9623 3.8999 17.9623 3.8999 21.5623C3.8999 22.1623 4.2999 22.5623 4.8999 22.5623C5.4999 22.5623 5.8999 22.1623 5.8999 21.5623C5.8999 20.0623 6.4999 18.6623 7.5999 17.5623C8.6999 16.4623 10.0999 15.8623 11.5999 15.8623C12.3999 15.8623 13.0999 16.0623 13.7999 16.3623C14.2999 16.6623 14.8999 16.3623 14.9999 15.8623ZM8.4999 9.4623C8.4999 7.7623 9.8999 6.3623 11.4999 6.3623C13.1999 6.3623 14.5999 7.6623 14.5999 9.3623C14.5999 11.0623 13.0999 12.4623 11.4999 12.4623C9.8999 12.4623 8.4999 11.1623 8.4999 9.4623Z" fill="#2D373D"/>
<path d="M27.4999 18.2623C27.3999 17.9623 27.0999 17.5623 26.7999 17.2623C26.0999 16.4623 25.0999 16.0623 23.9999 16.0623C22.8999 16.0623 21.9999 16.4623 21.1999 17.2623L21.0999 17.3623L20.9999 17.2623C20.6999 16.9623 20.3999 16.7623 19.9999 16.5623C18.0999 15.5623 15.6999 16.3623 14.6999 18.3623C13.8999 19.9623 14.1999 21.7623 15.3999 22.9623L20.3999 28.1623C20.5999 28.3623 20.7999 28.4623 21.0999 28.4623C21.3999 28.4623 21.6999 28.3623 21.7999 28.0623L26.7999 22.8623C27.9999 21.6623 28.2999 19.7623 27.4999 18.2623ZM25.3999 21.5623L21.0999 26.0623L16.7999 21.5623C16.1999 20.9623 15.9999 20.0623 16.3999 19.2623C16.7999 18.5623 17.4999 18.1623 18.1999 18.1623C18.4999 18.1623 18.7999 18.2623 19.0999 18.3623C19.2999 18.4623 19.3999 18.5623 19.5999 18.7623L20.3999 19.5623C20.7999 19.9623 21.3999 19.9623 21.7999 19.5623L22.5999 18.7623C22.9999 18.3623 23.4999 18.1623 23.9999 18.1623C24.4999 18.1623 24.9999 18.3623 25.3999 18.7623C25.5999 18.8623 25.6999 19.0623 25.7999 19.2623C26.1999 20.0623 25.9999 20.9623 25.3999 21.5623Z" fill="#2D373D"/>
</svg>
