<svg width="32" height="33" viewBox="0 0 32 33" fill="none" xmlns="http://www.w3.org/2000/svg">
<path d="M27.3002 21.1617L18.8002 13.1617C19.4002 12.7617 20.0002 12.3617 20.7002 11.9617C20.8002 11.9617 20.8002 11.8617 20.9002 11.8617C21.0002 11.7617 21.0002 11.7617 21.0002 11.7617C21.5002 11.3617 21.7002 10.7617 21.7002 10.1617C21.7002 9.56172 21.4002 8.96172 21.0002 8.56172L17.5002 5.06172C16.6002 4.16172 15.2002 4.16172 14.3002 5.06172C14.2002 5.06172 14.1002 5.16172 14.1002 5.26172C12.5002 8.16172 10.1002 10.5617 7.2002 12.1617C7.1002 12.2617 7.1002 12.2617 7.0002 12.3617C6.1002 13.2617 6.1002 14.6617 7.0002 15.4617L10.5002 18.9617C10.9002 19.4617 11.5002 19.6617 12.1002 19.6617C12.7002 19.6617 13.2002 19.4617 13.6002 19.0617C13.7002 19.0617 13.8002 18.9617 13.8002 18.8617C14.2002 18.0617 14.7002 17.3617 15.2002 16.6617L23.2002 25.1617C23.6002 25.6617 24.2002 25.8617 24.8002 25.8617C25.4002 25.8617 26.0002 25.5617 26.4002 25.3617L27.3002 24.4617C28.2002 23.5617 28.2002 22.0617 27.3002 21.1617ZM12.2002 17.7617C12.0002 17.7617 12.0002 17.7617 11.9002 17.6617L8.4002 14.1617C8.3002 14.0617 8.2002 13.9617 8.3002 13.8617C11.4002 12.0617 14.0002 9.46172 15.8002 6.36172H15.9002C16.0002 6.36172 16.0002 6.36172 16.0002 6.56172L19.5002 10.0617C19.6002 10.1617 19.6002 10.1617 19.6002 10.2617V10.3617C16.5002 12.0617 13.9002 14.6617 12.2002 17.7617ZM25.9002 22.8617L25.0002 23.7617C24.9002 23.8617 24.9002 23.8617 24.8002 23.8617C24.7002 23.8617 24.7002 23.8617 24.6002 23.7617L16.5002 15.1617C16.8002 14.8617 17.0002 14.6617 17.3002 14.3617L25.9002 22.3617C26.0002 22.5617 26.0002 22.7617 25.9002 22.8617Z" fill="#2D373D"/>
<path d="M18.2004 26.4618H17.8004V25.7618C17.8004 24.3618 16.8004 23.1618 15.3004 23.0618H7.80039C6.40039 23.1618 5.30039 24.3618 5.40039 25.7618V26.4618H4.90039C4.30039 26.4618 3.90039 26.8618 3.90039 27.4618C3.90039 28.0618 4.30039 28.4618 4.90039 28.4618H18.2004C18.8004 28.4618 19.2004 28.0618 19.2004 27.4618C19.2004 26.8618 18.8004 26.4618 18.2004 26.4618ZM7.40039 26.4618V25.6618C7.40039 25.3618 7.60039 25.0618 7.90039 25.0618H15.2004C15.5004 25.0618 15.7004 25.3618 15.7004 25.6618C15.7004 25.7618 15.7004 25.7618 15.7004 25.7618V26.4618H7.40039Z" fill="#2D373D"/>
</svg>
