<svg width="64" height="65" viewBox="0 0 64 65" fill="none" xmlns="http://www.w3.org/2000/svg">
<path fill-rule="evenodd" clip-rule="evenodd" d="M34.787 9.12695H13.6496C12.328 9.12695 11.0605 9.65196 10.126 10.5865C9.19151 11.521 8.6665 12.7885 8.6665 14.1101V52.8905C8.6665 54.2121 9.19151 55.4796 10.126 56.4141C11.0605 57.3486 12.328 57.8736 13.6496 57.8736H19.6158C20.7204 57.8736 21.6158 56.9782 21.6158 55.8736C21.6158 54.7691 20.7204 53.8736 19.6158 53.8736H13.6496C13.3889 53.8736 13.1388 53.77 12.9545 53.5857C12.7701 53.4013 12.6665 53.1512 12.6665 52.8905V14.1101C12.6665 13.8493 12.7701 13.5993 12.9545 13.4149C13.1388 13.2305 13.3889 13.127 13.6496 13.127H32.5314V23.0594C32.5314 24.381 33.0564 25.6485 33.9909 26.583C34.9254 27.5175 36.1929 28.0425 37.5145 28.0425H47.4469V34.9918C47.4469 36.0964 48.3424 36.9918 49.4469 36.9918C50.5515 36.9918 51.4469 36.0964 51.4469 34.9918V26.0513L51.447 26.0425L51.4469 26.0337V25.7855C51.4467 24.4649 50.9218 23.198 49.9882 22.2638L38.3118 10.5853C37.8488 10.1227 37.2992 9.75577 36.6945 9.50553C36.09 9.25542 35.4412 9.12678 34.787 9.12695ZM36.5314 14.462L46.1103 24.0425H37.5145C37.2538 24.0425 37.0037 23.9389 36.8194 23.7546C36.635 23.5702 36.5314 23.3201 36.5314 23.0594V14.462Z" fill="#2D373D"/>
<path fill-rule="evenodd" clip-rule="evenodd" d="M25.5815 38.9577C24.477 38.9577 23.5815 39.8531 23.5815 40.9577V55.8732C23.5815 56.4037 23.7923 56.9124 24.1673 57.2874C24.5424 57.6625 25.0511 57.8732 25.5815 57.8732C27.6943 57.8732 29.7206 57.0339 31.2145 55.54C32.7085 54.046 33.5478 52.0198 33.5478 49.907V46.9239C33.5478 44.8111 32.7085 42.7849 31.2145 41.2909C29.7206 39.797 27.6943 38.9577 25.5815 38.9577ZM27.5815 53.3321V43.4988C27.8728 43.6689 28.1435 43.8768 28.3861 44.1194C29.1299 44.8632 29.5478 45.872 29.5478 46.9239V49.907C29.5478 50.9589 29.1299 51.9677 28.3861 52.7116C28.1435 52.9541 27.8728 53.162 27.5815 53.3321Z" fill="#2D373D"/>
<path fill-rule="evenodd" clip-rule="evenodd" d="M36.9743 40.4172C37.9088 39.4827 39.1763 38.9577 40.4979 38.9577C41.8195 38.9577 43.087 39.4827 44.0215 40.4172C44.956 41.3517 45.481 42.6192 45.481 43.9408V52.8901C45.481 54.2117 44.956 55.4792 44.0215 56.4137C43.087 57.3482 41.8195 57.8732 40.4979 57.8732C39.1763 57.8732 37.9088 57.3482 36.9743 56.4137C36.0398 55.4792 35.5148 54.2117 35.5148 52.8901V43.9408C35.5148 42.6192 36.0398 41.3517 36.9743 40.4172ZM40.4979 42.9577C40.2372 42.9577 39.9871 43.0613 39.8028 43.2456C39.6184 43.43 39.5148 43.6801 39.5148 43.9408V52.8901C39.5148 53.1509 39.6184 53.4009 39.8028 53.5853C39.9871 53.7697 40.2372 53.8732 40.4979 53.8732C40.7587 53.8732 41.0087 53.7697 41.1931 53.5853C41.3775 53.4009 41.481 53.1509 41.481 52.8901V43.9408C41.481 43.68 41.3775 43.43 41.1931 43.2456C41.0087 43.0613 40.7587 42.9577 40.4979 42.9577Z" fill="#2D373D"/>
<path d="M55.4127 38.9577C53.2999 38.9577 51.2737 39.797 49.7797 41.2909C48.2857 42.7849 47.4464 44.8111 47.4464 46.9239V49.907C47.4464 52.0198 48.2857 54.046 49.7797 55.54C51.2737 57.0339 53.2999 57.8732 55.4127 57.8732C56.5172 57.8732 57.4127 56.9778 57.4127 55.8732C57.4127 54.7687 56.5172 53.8732 55.4127 53.8732C54.3608 53.8732 53.3519 53.4554 52.6081 52.7116C51.8643 51.9677 51.4464 50.9589 51.4464 49.907V46.9239C51.4464 45.872 51.8643 44.8632 52.6081 44.1194C53.3519 43.3755 54.3608 42.9577 55.4127 42.9577C56.5172 42.9577 57.4127 42.0623 57.4127 40.9577C57.4127 39.8531 56.5172 38.9577 55.4127 38.9577Z" fill="#2D373D"/>
</svg>
