<svg width="16" height="17" viewBox="0 0 16 17" fill="none" xmlns="http://www.w3.org/2000/svg">
<path d="M13.6501 10.8113L9.4001 6.81133C9.7001 6.61133 10.0001 6.41133 10.3501 6.21133C10.4001 6.21133 10.4001 6.16133 10.4501 6.16133C10.5001 6.11133 10.5001 6.11133 10.5001 6.11133C10.7501 5.91133 10.8501 5.61133 10.8501 5.31133C10.8501 5.01133 10.7001 4.71133 10.5001 4.51133L8.7501 2.76133C8.3001 2.31133 7.6001 2.31133 7.1501 2.76133C7.1001 2.76133 7.0501 2.81133 7.0501 2.86133C6.2501 4.31133 5.0501 5.51133 3.6001 6.31133C3.5501 6.36133 3.5501 6.36133 3.5001 6.41133C3.0501 6.86133 3.0501 7.56133 3.5001 7.96133L5.2501 9.71133C5.4501 9.96133 5.7501 10.0613 6.0501 10.0613C6.3501 10.0613 6.6001 9.96133 6.8001 9.76133C6.8501 9.76133 6.9001 9.71133 6.9001 9.66133C7.1001 9.26133 7.3501 8.91133 7.6001 8.56133L11.6001 12.8113C11.8001 13.0613 12.1001 13.1613 12.4001 13.1613C12.7001 13.1613 13.0001 13.0113 13.2001 12.9113L13.6501 12.4613C14.1001 12.0113 14.1001 11.2613 13.6501 10.8113ZM6.1001 9.11133C6.0001 9.11133 6.0001 9.11133 5.9501 9.06133L4.2001 7.31133C4.1501 7.26133 4.1001 7.21133 4.1501 7.16133C5.7001 6.26133 7.0001 4.96133 7.9001 3.41133H7.9501C8.0001 3.41133 8.0001 3.41133 8.0001 3.51133L9.7501 5.26133C9.8001 5.31133 9.8001 5.31133 9.8001 5.36133V5.41133C8.2501 6.26133 6.9501 7.56133 6.1001 9.11133ZM12.9501 11.6613L12.5001 12.1113C12.4501 12.1613 12.4501 12.1613 12.4001 12.1613C12.3501 12.1613 12.3501 12.1613 12.3001 12.1113L8.2501 7.81133C8.4001 7.66133 8.5001 7.56133 8.6501 7.41133L12.9501 11.4113C13.0001 11.5113 13.0001 11.6113 12.9501 11.6613Z" fill="#2D373D"/>
<path d="M9.1002 13.4614H8.9002V13.1114C8.9002 12.4114 8.4002 11.8114 7.6502 11.7614H3.9002C3.2002 11.8114 2.6502 12.4114 2.7002 13.1114V13.4614H2.4502C2.1502 13.4614 1.9502 13.6614 1.9502 13.9614C1.9502 14.2614 2.1502 14.4614 2.4502 14.4614H9.1002C9.4002 14.4614 9.6002 14.2614 9.6002 13.9614C9.6002 13.6614 9.4002 13.4614 9.1002 13.4614ZM3.7002 13.4614V13.0614C3.7002 12.9114 3.8002 12.7614 3.9502 12.7614H7.6002C7.7502 12.7614 7.8502 12.9114 7.8502 13.0614C7.8502 13.1114 7.8502 13.1114 7.8502 13.1114V13.4614H3.7002Z" fill="#2D373D"/>
</svg>
