<svg width="32" height="32" viewBox="0 0 32 32" fill="none" xmlns="http://www.w3.org/2000/svg">
<path d="M20 4.09998C19.7 3.89998 19.3 3.89998 19 4.09998L10.3 9.19998H3.60005C3.00005 9.19998 2.60005 9.59998 2.60005 10.2V21.8C2.60005 22.4 3.00005 22.8 3.60005 22.8H10.3L19 27.9C19.2 28 19.3 28 19.5 28C19.7 28 19.8 28 20 27.9C20.3 27.7 20.5 27.4 20.5 27V4.89998C20.5 4.59998 20.3 4.29998 20 4.09998ZM18.5 25.3L11.1 20.9C10.9 20.8 10.8 20.8 10.6 20.8H4.60005V11.2H10.6C10.8 11.2 11 11.2 11.1 11.1L18.5 6.69998V25.3Z" fill="#2D373D"/>
<path d="M29.1 17.6L27.5 16L29.1 14.4C29.5 14 29.5 13.4 29.1 13C28.7 12.6 28.1 12.6 27.7 13L26.1 14.6L24.5 13C24.1 12.6 23.5 12.6 23.1 13C22.7 13.4 22.7 14 23.1 14.4L24.7 16L23.1 17.6C22.7 18 22.7 18.6 23.1 19C23.3 19.2 23.6 19.3 23.8 19.3C24 19.3 24.3 19.2 24.5 19L26.1 17.4L27.7 19C27.9 19.2 28.2 19.3 28.4 19.3C28.6 19.3 28.9 19.2 29.1 19C29.5 18.6 29.5 18 29.1 17.6Z" fill="#2D373D"/>
</svg>
