<svg width="16" height="17" viewBox="0 0 16 17" fill="none" xmlns="http://www.w3.org/2000/svg">
<path fill-rule="evenodd" clip-rule="evenodd" d="M8.00014 14.5872C9.8897 14.5872 11.6668 12.8014 11.6668 10.8009C11.6668 10.324 11.5231 9.59072 11.2361 8.70775C10.9551 7.84325 10.5596 6.90462 10.1105 6.04024C9.65817 5.16988 9.17067 4.41206 8.71734 3.88797C8.4902 3.62537 8.29514 3.44899 8.14192 3.3451C8.06571 3.29342 8.01562 3.27022 7.98961 3.26013C7.96376 3.27021 7.91418 3.29329 7.83885 3.34449C7.68646 3.44807 7.49231 3.62411 7.2662 3.88653C6.8149 4.41028 6.32998 5.16783 5.88025 6.03818C5.43363 6.9025 5.04069 7.84119 4.7615 8.70588C4.47641 9.58884 4.3335 10.3229 4.3335 10.8009C4.3335 12.8014 6.11059 14.5872 8.00014 14.5872ZM8.00014 15.5872C10.4657 15.5872 12.6668 13.3297 12.6668 10.8009C12.6668 8.27214 9.77519 2.25391 7.98948 2.25391C6.20376 2.25391 3.3335 8.27214 3.3335 10.8009C3.3335 13.3297 5.53458 15.5872 8.00014 15.5872Z" fill="#2D373D"/>
<path fill-rule="evenodd" clip-rule="evenodd" d="M5.55274 10.7562C5.82764 10.73 6.07172 10.9316 6.09791 11.2065C6.13487 11.5944 6.34278 12.0352 6.66898 12.3794C6.99479 12.7232 7.3888 12.9206 7.76683 12.9206C8.04297 12.9206 8.26683 13.1444 8.26683 13.4206C8.26683 13.6967 8.04297 13.9206 7.76683 13.9206C7.04023 13.9206 6.39996 13.5494 5.94311 13.0672C5.48666 12.5855 5.16355 11.943 5.10242 11.3013C5.07622 11.0264 5.27784 10.7824 5.55274 10.7562Z" fill="#2D373D"/>
</svg>
