<svg width="32" height="33" viewBox="0 0 32 33" fill="none" xmlns="http://www.w3.org/2000/svg">
<path d="M23.9998 3.06055H8.0998C6.5998 3.06055 5.3998 4.16055 5.2998 5.76055V28.0605C5.2998 28.7605 5.6998 29.4605 6.4998 29.6605C6.9998 29.9605 7.6998 29.8605 8.2998 29.5605L15.4998 25.9605C15.4998 25.8605 15.5998 25.8605 15.5998 25.8605C15.8998 25.6605 16.2998 25.6605 16.5998 25.8605C16.5998 25.9605 16.6998 25.9605 16.6998 25.9605L23.8998 29.5605C24.1998 29.7605 24.4998 29.8605 24.8998 29.8605C25.1998 29.8605 25.3998 29.8605 25.6998 29.6605C26.3998 29.4605 26.7998 28.7605 26.7998 28.0605V5.66055C26.6998 4.16055 25.4998 3.06055 23.9998 3.06055ZM24.7998 27.8605L17.5998 24.2605C16.5998 23.6605 15.3998 23.6605 14.4998 24.2605L7.2998 27.8605V5.76055C7.2998 5.36055 7.5998 5.06055 7.9998 5.06055H23.9998C24.2998 5.06055 24.6998 5.36055 24.6998 5.76055V27.8605H24.7998Z" fill="#2D373D"/>
<path d="M20.3 11.5606H18.6L17.5 9.36056C17.4 9.06056 17.1 8.86056 16.8 8.66056C16.4 8.46056 15.9 8.46056 15.5 8.56056C15 8.66056 14.7 8.96056 14.5 9.36056L13.4 11.5606H11.7C11.3 11.5606 10.9 11.7606 10.5 12.0606C10.2 12.3606 10 12.8606 10 13.2606C10 13.7606 10.2 14.1606 10.5 14.4606L12.2 16.0606L11.3 18.1606C11.1 18.6606 11.1 19.2606 11.4 19.6606C11.8 20.4606 12.8 20.7606 13.6 20.2606L16 18.9606L18.4 20.2606C18.6 20.3606 18.9 20.4606 19.2 20.4606C19.5 20.4606 19.7 20.4606 19.8 20.3606C20.2 20.1606 20.5 19.8606 20.7 19.4606C20.9 19.0606 20.9 18.5606 20.7 18.1606L19.8 16.0606L21.5 14.4606C21.8 14.1606 22 13.6606 22 13.2606C22 12.7606 21.8 12.3606 21.5 12.0606C21.1 11.7606 20.7 11.5606 20.3 11.5606ZM17.9 15.0606C17.6 15.3606 17.5 15.7606 17.7 16.1606L18.5 17.9606L16.5 16.8606C16.3 16.7606 16.2 16.7606 16 16.7606C15.9 16.7606 15.7 16.7606 15.5 16.8606L13.5 17.9606L14.3 16.1606C14.5 15.7606 14.4 15.3606 14.1 15.0606L12.6 13.5606H14.1C14.4 13.5606 14.8 13.3606 15 13.0606L16 10.9606L17 13.0606C17.2 13.3606 17.5 13.5606 17.9 13.5606H19.4L17.9 15.0606Z" fill="#2D373D"/>
</svg>
