<svg width="16" height="17" viewBox="0 0 16 17" fill="none" xmlns="http://www.w3.org/2000/svg">
<path fill-rule="evenodd" clip-rule="evenodd" d="M7.99964 11.6539C9.41981 11.6539 10.733 10.3407 10.733 8.92057C10.733 8.58674 10.6273 8.04323 10.4006 7.36306C10.1801 6.70192 9.86903 5.98163 9.51529 5.31792C9.15845 4.64842 8.77789 4.07352 8.43041 3.68184C8.25631 3.48559 8.1137 3.36183 8.01055 3.29364C8.00376 3.28915 7.99739 3.28506 7.99143 3.28134C7.98577 3.2849 7.97973 3.28879 7.97331 3.29304C7.87087 3.36092 7.72903 3.48434 7.55575 3.68041C7.20991 4.07174 6.8314 4.64636 6.47659 5.31585C6.12488 5.97948 5.81574 6.69982 5.59673 7.36115C5.37149 8.04131 5.26633 8.5856 5.26633 8.92057C5.26633 10.3407 6.57949 11.6539 7.99964 11.6539ZM7.99964 12.6539C9.97209 12.6539 11.733 10.893 11.733 8.92057C11.733 6.94813 9.41969 2.25391 7.99111 2.25391C6.56254 2.25391 4.26633 6.94813 4.26633 8.92057C4.26633 10.893 6.0272 12.6539 7.99964 12.6539Z" fill="#2D373D"/>
<path fill-rule="evenodd" clip-rule="evenodd" d="M6.45105 8.42294C6.72589 8.39609 6.97046 8.59711 6.99731 8.87194C7.05867 9.49977 7.44714 9.92057 7.99968 9.92057C8.27583 9.92057 8.49968 10.1444 8.49968 10.4206C8.49968 10.6967 8.27583 10.9206 7.99968 10.9206C6.78482 10.9206 6.09766 9.94751 6.00205 8.9692C5.9752 8.69437 6.17622 8.4498 6.45105 8.42294Z" fill="#2D373D"/>
<path fill-rule="evenodd" clip-rule="evenodd" d="M2.75605 11.197C2.87955 11.444 2.77944 11.7443 2.53245 11.8678C2.49978 11.8841 2.36897 12.0092 2.33865 12.2632C2.31251 12.4821 2.37005 12.7747 2.6624 13.067C3.11364 13.5183 3.63741 13.8892 4.43616 14.1532C5.24767 14.4214 6.36188 14.5853 7.99968 14.5853C9.63748 14.5853 10.7517 14.4214 11.5632 14.1532C12.362 13.8892 12.8857 13.5183 13.337 13.067C13.6293 12.7747 13.6869 12.4821 13.6607 12.2632C13.6304 12.0092 13.4996 11.8841 13.4669 11.8678C13.2199 11.7443 13.1198 11.444 13.2433 11.197C13.3668 10.95 13.6671 10.8499 13.9141 10.9734C14.3259 11.1792 14.5951 11.6542 14.6537 12.1446C14.7164 12.6702 14.5517 13.2665 14.0441 13.7741C13.4953 14.3229 12.8403 14.7843 11.877 15.1027C10.9264 15.4168 9.69522 15.5853 7.99968 15.5853C6.30413 15.5853 5.07293 15.4168 4.12236 15.1027C3.15903 14.7843 2.50405 14.3229 1.95529 13.7741C1.44764 13.2665 1.28296 12.6702 1.3457 12.1446C1.40426 11.6542 1.67345 11.1792 2.08523 10.9734C2.33222 10.8499 2.63256 10.95 2.75605 11.197Z" fill="#2D373D"/>
</svg>
