<svg width="64" height="64" viewBox="0 0 64 64" fill="none" xmlns="http://www.w3.org/2000/svg">
<path d="M55.9999 53.5999L46.3999 24.3999C46.1999 23.3999 45.5999 22.5999 44.9999 21.9999C42.9999 19.9999 39.7999 19.9999 37.7999 21.9999L31.3999 28.3999L27.5999 24.5999C27.7999 23.9999 27.9999 23.3999 27.9999 22.5999C27.9999 21.1999 27.3999 19.9999 26.5999 19.1999L16.5999 9.3999C14.5999 7.3999 11.3999 7.3999 9.3999 9.3999C7.3999 11.3999 7.3999 14.5999 9.3999 16.5999L19.1999 26.3999C19.9999 27.1999 21.3999 27.7999 22.5999 27.7999C23.3999 27.7999 23.9999 27.5999 24.5999 27.3999L29.3999 32.1999C29.3999 32.3999 29.5999 32.5999 29.7999 32.7999C29.9999 32.9999 30.1999 33.1999 30.3999 33.1999L35.3999 38.1999C35.7999 38.5999 36.1999 38.7999 36.7999 38.7999C37.1999 38.7999 37.7999 38.5999 38.1999 38.1999C38.9999 37.3999 38.9999 36.1999 38.1999 35.3999L34.1999 31.3999L40.5999 24.9999C41.1999 24.5999 41.7999 24.5999 42.1999 24.9999C42.3999 24.9999 42.5999 25.1999 42.5999 25.5999L50.9999 51.1999L25.1999 42.7999C24.9999 42.7999 24.7999 42.5999 24.5999 42.3999C24.3999 42.1999 24.3999 41.7999 24.3999 41.5999C24.3999 41.3999 24.3999 41.1999 24.5999 40.9999L28.3999 37.1999C29.1999 36.3999 29.1999 35.1999 28.3999 34.3999C27.5999 33.5999 26.3999 33.5999 25.5999 34.3999L21.7999 37.9999C20.9999 38.5999 20.5999 39.3999 20.3999 40.3999C19.9999 41.5999 20.1999 42.9999 20.9999 44.1999C21.7999 45.3999 22.7999 46.1999 23.9999 46.3999L53.5999 56.1999C53.7999 56.1999 53.9999 56.1999 54.1999 56.1999C54.5999 56.1999 55.1999 55.9999 55.5999 55.5999C55.9999 55.1999 56.1999 54.3999 55.9999 53.5999ZM21.7999 23.3999L12.1999 13.5999C11.5999 13.1999 11.5999 12.5999 11.9999 12.1999C12.3999 11.7999 13.1999 11.7999 13.5999 12.1999L23.3999 21.7999C23.5999 21.9999 23.7999 22.3999 23.7999 22.5999C23.7999 22.9999 23.5999 23.1999 23.3999 23.3999C23.1999 23.5999 22.7999 23.7999 22.5999 23.7999C22.3999 23.7999 22.1999 23.5999 21.7999 23.3999Z" fill="#2D373D"/>
</svg>
