<svg width="24" height="25" viewBox="0 0 24 25" fill="none" xmlns="http://www.w3.org/2000/svg">
<path d="M20.625 4.58658C20.175 3.98658 19.425 3.53658 18.675 3.38658C17.85 3.31158 17.1 3.46158 16.425 3.91158C16.275 4.06158 16.125 4.13658 16.05 4.21158L13.875 6.38658L7.425 4.73658C6.825 4.58658 6.15 4.73658 5.7 5.18658L5.175 5.71158C4.8 6.08658 4.575 6.61158 4.575 7.06158C4.575 7.51158 4.8 7.96158 5.175 8.33658C5.25 8.48658 5.4 8.56158 5.475 8.63658L9.375 11.0366L6.675 14.1116H5.925C5.4 14.0366 4.8 14.1866 4.425 14.5616L3.3 15.6116C2.775 16.1366 2.775 16.9616 3.3 17.4866C3.45 17.5616 3.525 17.6366 3.675 17.7116L5.7 18.8366L6.975 20.8616C7.125 21.0866 7.35 21.3116 7.65 21.4616C7.8 21.5366 7.95 21.5366 8.1 21.5366C8.25 21.5366 8.4 21.4616 8.55 21.3866C8.7 21.3866 8.85 21.2366 9.075 21.0866L10.05 20.1866C10.5 19.8116 10.725 19.2116 10.65 18.6116V17.8616L13.65 15.0866L15.975 18.9866C16.2 19.3616 16.65 19.6616 17.1 19.8116C17.625 19.8866 18.075 19.8116 18.525 19.5866C18.6 19.5116 18.75 19.4366 18.825 19.3616C18.9 19.2866 18.9 19.2866 18.9 19.2866L19.425 18.7616C19.875 18.3116 20.025 17.5616 19.875 16.9616L18.15 10.5116L20.175 8.48658C21.3 7.51158 21.45 5.86158 20.625 4.58658ZM18.975 7.36158L16.575 9.76158C16.35 9.98658 16.275 10.2866 16.35 10.5116L18.15 17.3366C18.225 17.4866 18.15 17.6366 18.075 17.7116L17.625 18.1616C17.625 18.2366 17.55 18.2366 17.55 18.2366C17.4 18.3116 17.325 18.3116 17.25 18.3116C17.175 18.3116 17.1 18.2366 17.025 18.1616L14.25 13.5116C14.175 13.2866 13.95 13.1366 13.725 13.1366C13.5 13.1366 13.275 13.2116 13.125 13.3616L9.225 17.0366C9.075 17.1866 9 17.3366 9 17.5616V18.6866C9 18.7616 9 18.7616 9 18.8366C9.075 18.9116 9 19.0616 8.925 19.1366L8.1 19.8866L6.825 17.8616C6.75 17.7866 6.6 17.7116 6.525 17.6366L4.575 16.5116L5.55 15.6116C5.625 15.5366 5.775 15.5366 5.85 15.5366C5.925 15.5366 5.925 15.5366 6 15.5366H7.125C7.275 15.5366 7.5 15.4616 7.65 15.3116L11.175 11.2616C11.325 11.1116 11.325 10.8866 11.325 10.6616C11.25 10.4366 11.175 10.2866 10.95 10.1366L6.225 7.36158L6.15 7.28658C6.075 7.21158 6.075 7.13658 6.075 7.06158C6.075 6.98658 6.075 6.83658 6.225 6.76158L6.675 6.23658C6.825 6.16158 6.9 6.16158 7.05 6.16158L13.725 7.88658C14.025 7.96158 14.25 7.88658 14.475 7.66158L16.95 5.18658C17.025 5.11158 17.1 5.11158 17.175 5.03658C17.55 4.81158 17.925 4.73658 18.3 4.81158C18.675 4.88658 18.975 5.11158 19.2 5.41158C19.65 6.01158 19.5 6.83658 18.975 7.36158Z" fill="#2D373D"/>
</svg>
