<svg width="16" height="17" viewBox="0 0 16 17" fill="none" xmlns="http://www.w3.org/2000/svg">
<path d="M14.6535 10.384C14.6259 10.3258 14.59 10.2719 14.5469 10.224L12.8802 8.55738C12.7865 8.46375 12.6594 8.41115 12.5269 8.41115C12.3944 8.41115 12.2673 8.46375 12.1735 8.55738C12.1264 8.60334 12.0889 8.65829 12.0633 8.71897C12.0377 8.77966 12.0245 8.84485 12.0245 8.91071C12.0245 8.97658 12.0377 9.04177 12.0633 9.10245C12.0889 9.16314 12.1264 9.21808 12.1735 9.26405L12.9802 10.0774H7.08687C6.95427 10.0774 6.82709 10.1301 6.73332 10.2238C6.63955 10.3176 6.58687 10.4448 6.58687 10.5774C6.58687 10.71 6.63955 10.8372 6.73332 10.9309C6.82709 11.0247 6.95427 11.0774 7.08687 11.0774H12.9602L12.1535 11.8907C12.1064 11.9367 12.0689 11.9916 12.0433 12.0523C12.0177 12.113 12.0045 12.1782 12.0045 12.244C12.0045 12.3099 12.0177 12.3751 12.0433 12.4358C12.0689 12.4965 12.1064 12.5514 12.1535 12.5974C12.199 12.6451 12.2539 12.6827 12.3147 12.708C12.3756 12.7333 12.441 12.7455 12.5069 12.744C12.5726 12.7444 12.6377 12.7315 12.6983 12.7064C12.759 12.6812 12.814 12.6441 12.8602 12.5974L14.5269 10.9307C14.57 10.8828 14.6059 10.8289 14.6335 10.7707C14.6866 10.6484 14.6937 10.5111 14.6535 10.384Z" fill="#2D373D"/>
<path d="M3.04021 7.74404H8.91355C9.04615 7.74404 9.17333 7.69136 9.2671 7.59759C9.36087 7.50382 9.41355 7.37665 9.41355 7.24404C9.41355 7.11143 9.36087 6.98425 9.2671 6.89049C9.17333 6.79672 9.04615 6.74404 8.91355 6.74404H3.04021L3.85355 5.93071C3.94187 5.83592 3.98995 5.71056 3.98766 5.58102C3.98538 5.45149 3.9329 5.3279 3.84129 5.23629C3.74969 5.14468 3.6261 5.09221 3.49656 5.08992C3.36703 5.08764 3.24166 5.13572 3.14688 5.22404L1.48021 6.9107C1.43502 6.95694 1.39885 7.0112 1.37355 7.0707C1.34713 7.13174 1.3335 7.19753 1.3335 7.26404C1.3335 7.33054 1.34713 7.39634 1.37355 7.45737C1.39885 7.51687 1.43502 7.57113 1.48021 7.61737L3.14688 9.28404C3.24063 9.37767 3.36771 9.43026 3.50021 9.43026C3.63271 9.43026 3.7598 9.37767 3.85355 9.28404C3.94718 9.19029 3.99977 9.06321 3.99977 8.9307C3.99977 8.7982 3.94718 8.67112 3.85355 8.57737L3.04021 7.74404Z" fill="#2D373D"/>
</svg>
