<svg width="16" height="17" viewBox="0 0 16 17" fill="none" xmlns="http://www.w3.org/2000/svg">
<path d="M11.7004 7.51013L12.3004 6.46013C12.4504 6.21013 12.4504 5.91013 12.3004 5.66013C12.1504 5.41013 11.9004 5.26013 11.6504 5.26013H8.75039C8.50039 5.26013 8.25039 5.41013 8.10039 5.66013C7.95039 5.91013 7.95039 6.21013 8.10039 6.46013L8.70039 7.51013C7.90039 7.96013 6.40039 8.96013 6.40039 10.9601C6.40039 12.9101 8.05039 14.4601 10.1504 14.4601C12.3004 14.4601 14.0004 12.9101 14.0004 10.9101C14.0004 8.91013 12.5004 7.96013 11.7004 7.51013ZM10.1004 13.4601C8.55039 13.4601 7.35039 12.3601 7.35039 10.9601C7.35039 9.36013 8.70039 8.66013 9.35039 8.31013C9.50039 8.26013 9.60039 8.21013 9.65039 8.16013C9.85039 8.06013 9.95039 7.76013 9.80039 7.51013L9.15039 6.36013V6.31013H11.1504L10.5004 7.46013C10.4004 7.66013 10.4504 7.96013 10.6504 8.11013C10.7504 8.16013 10.9004 8.26013 11.0504 8.36013C11.7504 8.76013 12.9504 9.46013 12.9504 10.9601C12.9504 12.3601 11.7004 13.4601 10.1004 13.4601Z" fill="#2D373D"/>
<path d="M5.0502 10.1602H3.0002C2.9502 10.1602 2.9502 10.1602 2.9502 10.1102V5.26016H7.60019C7.9002 5.26016 8.1002 5.06016 8.1002 4.76016C8.1002 4.46016 7.9002 4.26016 7.60019 4.26016H2.9502V3.46016L3.0002 3.41016H11.1002C11.1502 3.41016 11.1502 3.41016 11.1502 3.46016V4.41016C11.1502 4.71016 11.3502 4.91016 11.6502 4.91016C11.9502 4.91016 12.1502 4.71016 12.1502 4.41016V3.46016C12.1502 2.86016 11.7002 2.41016 11.1002 2.41016H3.0002C2.7502 2.41016 2.4502 2.51016 2.2502 2.71016C2.0502 2.91016 1.9502 3.16016 1.9502 3.46016V10.1102C1.9502 10.7102 2.4502 11.1602 3.0002 11.1602H5.0502C5.3502 11.1602 5.5502 10.9602 5.5502 10.6602C5.5502 10.3602 5.3502 10.1602 5.0502 10.1602Z" fill="#2D373D"/>
<path d="M10.2 10.3602C9.9 10.3602 9.7 10.2102 9.7 10.1102C9.7 10.0102 9.9 9.86018 10.25 9.86018C10.45 9.86018 10.65 9.96018 10.75 10.1102C10.9 10.3102 11.25 10.3602 11.45 10.2102C11.65 10.0602 11.7 9.71018 11.55 9.51018C11.35 9.21018 11.05 9.01018 10.7 8.91018V8.81018C10.7 8.51018 10.5 8.31018 10.2 8.31018C9.9 8.31018 9.7 8.51018 9.7 8.81018V8.96018C9.15 9.16018 8.75 9.61018 8.75 10.1102C8.75 10.8102 9.4 11.3602 10.25 11.3602C10.55 11.3602 10.75 11.5102 10.75 11.6102C10.75 11.7102 10.55 11.8602 10.2 11.8602C10 11.8602 9.8 11.7602 9.7 11.6102C9.55 11.4102 9.2 11.3602 9 11.5102C8.8 11.6602 8.75 12.0102 8.9 12.2102C9.1 12.4602 9.4 12.6602 9.7 12.7602V12.8602C9.7 13.1602 9.9 13.3602 10.2 13.3602C10.45 13.3602 10.7 13.1602 10.7 12.8602V12.8102C11.3 12.6602 11.7 12.2102 11.7 11.6102C11.7 10.9102 11.05 10.3602 10.2 10.3602Z" fill="#2D373D"/>
</svg>
