<svg width="64" height="65" viewBox="0 0 64 65" fill="none" xmlns="http://www.w3.org/2000/svg">
<path d="M12.8 35.862C15.4 35.862 17.8 33.662 17.8 30.862C17.8 28.862 16.4 27.262 14.8 26.462V25.062C14.8 23.862 14 23.062 12.8 23.062C11.6 23.062 10.8 23.862 10.8 25.062V28.062C10.8 29.262 11.6 30.062 12.8 30.062C13.2 30.062 13.8 30.262 13.8 30.862C13.8 31.462 13.4 31.862 12.8 31.862C12.2 31.862 11.8 31.462 11.8 30.862C11.8 29.662 11 28.862 9.80005 28.862C8.60005 28.862 7.80005 29.662 7.80005 30.862C7.80005 33.662 10 35.862 12.8 35.862Z" fill="#2D373D"/>
<path d="M49.2001 37.8619L44.6001 28.6619C43.8001 26.8619 42.0001 25.8619 40.2001 25.8619H36.2001C33.4001 25.8619 31.2001 28.0619 31.2001 30.8619V32.2619L15.6001 9.06191C14.8001 7.86191 13.2001 7.46191 12.0001 8.26191C11.2001 8.66191 10.8001 9.66191 10.8001 10.4619V18.8619C10.8001 20.0619 11.6001 20.8619 12.8001 20.8619C14.0001 20.8619 14.8001 20.0619 14.8001 18.8619V15.0619L29.8001 37.6619H12.6001C9.8001 37.6619 7.6001 39.8619 7.6001 42.6619V48.6619C7.6001 51.4619 9.8001 53.6619 12.6001 53.6619H17.0001C17.8001 55.4619 19.6001 56.6619 21.6001 56.6619C23.6001 56.6619 25.4001 55.4619 26.2001 53.6619H40.6001C41.4001 55.4619 43.2001 56.6619 45.2001 56.6619C47.2001 56.6619 49.0001 55.4619 49.8001 53.6619H50.8001C53.6001 53.6619 55.8001 51.4619 55.8001 48.6619V45.6619C55.8001 41.6619 53.0001 38.4619 49.2001 37.8619ZM35.2001 30.6619C35.2001 30.0619 35.6001 29.6619 36.2001 29.6619H40.2001C40.6001 29.6619 40.8001 29.8619 41.0001 30.2619L44.6001 37.6619H35.2001V30.6619ZM21.6001 52.6619C21.0001 52.6619 20.6001 52.2619 20.6001 51.6619C20.6001 51.0619 21.0001 50.6619 21.6001 50.6619C22.2001 50.6619 22.6001 51.0619 22.6001 51.6619C22.6001 52.2619 22.2001 52.6619 21.6001 52.6619ZM45.2001 52.6619C44.6001 52.6619 44.2001 52.2619 44.2001 51.6619C44.2001 51.0619 44.6001 50.6619 45.2001 50.6619C45.8001 50.6619 46.2001 51.0619 46.2001 51.6619C46.2001 52.2619 45.8001 52.6619 45.2001 52.6619ZM51.8001 48.6619C51.8001 49.2619 51.4001 49.6619 50.8001 49.6619H49.8001C49.0001 47.8619 47.2001 46.6619 45.2001 46.6619C43.2001 46.6619 41.4001 47.8619 40.6001 49.6619H26.2001C25.4001 47.8619 23.6001 46.6619 21.6001 46.6619C19.6001 46.6619 17.8001 47.8619 17.0001 49.6619H12.8001C12.2001 49.6619 11.8001 49.2619 11.8001 48.6619V42.6619C11.8001 42.2619 12.2001 41.8619 12.8001 41.4619H32.6001C32.8001 41.4619 33.0001 41.6619 33.2001 41.6619H47.2001C47.4001 41.6619 47.6001 41.6619 47.8001 41.6619C50.0001 41.6619 51.8001 43.4619 51.8001 45.6619V48.6619Z" fill="#2D373D"/>
</svg>
