<svg width="24" height="24" viewBox="0 0 24 24" fill="none" xmlns="http://www.w3.org/2000/svg">
<path d="M13.875 8.02521C11.325 8.02521 9.22498 10.1252 9.22498 12.6752C9.22498 15.2252 11.325 17.3252 13.875 17.3252C16.425 17.3252 18.525 15.2252 18.525 12.6752C18.525 10.1252 16.425 8.02521 13.875 8.02521ZM13.875 15.7502C12.15 15.7502 10.725 14.3252 10.725 12.6002C10.725 10.8752 12.15 9.45021 13.875 9.45021C15.6 9.45021 17.025 10.8752 17.025 12.6002C17.025 14.3252 15.6 15.7502 13.875 15.7502Z" fill="#2D373D"/>
<path d="M21.4499 6.7501C21.0749 6.3751 20.5499 6.1501 20.0249 6.1501H18.5999L17.9249 5.1001C17.5499 4.4251 16.8749 3.9751 16.1249 3.9751H11.4749C10.7249 3.9751 10.0499 4.4251 9.8999 5.0251L9.2249 6.1501H7.1999V5.7001C7.1999 5.2501 6.8999 4.9501 6.4499 4.9501C5.9999 4.9501 5.6999 5.2501 5.6999 5.7001V6.1501H4.0499C3.5249 6.1501 2.9999 6.3751 2.6249 6.7501C2.2499 7.1251 2.0249 7.6501 2.0249 8.1751V18.0751C2.0249 19.1251 2.8499 20.0251 3.9749 20.0251H20.0249C21.1499 20.0251 22.0499 19.1251 22.0499 18.0751V8.1751C22.0499 7.6501 21.8249 7.1251 21.4499 6.7501ZM20.6249 18.0751C20.6249 18.3751 20.3999 18.6001 20.0999 18.6001H3.9749C3.6749 18.6001 3.4499 18.3751 3.4499 18.0751V8.1751C3.4499 7.8751 3.6749 7.6501 3.9749 7.6501H9.5249C9.7499 7.6501 10.0499 7.5001 10.1249 7.2751L11.0249 5.7751C11.0999 5.5501 11.3249 5.4751 11.4749 5.4751H16.1249C16.3499 5.4751 16.4999 5.5501 16.6499 5.7751L17.5499 7.2751C17.6999 7.5001 17.9999 7.6501 18.2249 7.6501H20.0999C20.2499 7.6501 20.3999 7.7251 20.4749 7.8001C20.5499 7.9501 20.6249 8.0251 20.6249 8.1751V18.0751Z" fill="#2D373D"/>
<path d="M5.47487 10.7251C6.05476 10.7251 6.52487 10.255 6.52487 9.67506C6.52487 9.09516 6.05476 8.62506 5.47487 8.62506C4.89497 8.62506 4.42487 9.09516 4.42487 9.67506C4.42487 10.255 4.89497 10.7251 5.47487 10.7251Z" fill="#2D373D"/>
</svg>
