<svg width="32" height="32" viewBox="0 0 32 32" fill="none" xmlns="http://www.w3.org/2000/svg">
<path d="M13.8998 17.4C14.6998 17.4 15.2998 16.7 15.2998 15.9C15.2998 15.6 15.0998 15.2 14.8998 15C14.5998 14.7 14.2998 14.6 13.8998 14.6C13.7998 14.6 13.7998 14.6 13.7998 14.6C13.0998 14.7 12.4998 15.3 12.4998 16.1C12.4998 16.8 13.1998 17.4 13.8998 17.4Z" fill="#2D373D"/>
<path d="M24.5998 5H21.1998C20.5998 5 20.1998 5.4 20.1998 6C20.1998 6.6 20.5998 7 21.1998 7H24.4998C24.4998 7.1 24.6998 7.3 24.6998 7.7V24.2C24.6998 24.6 24.5998 24.9 24.5998 24.9H21.1998C20.5998 24.9 20.1998 25.3 20.1998 25.9C20.1998 26.5 20.5998 26.9 21.1998 26.9H24.5998C25.7998 26.9 26.6998 25.8 26.6998 24.2V7.7C26.6998 6.2 25.7998 5 24.5998 5Z" fill="#2D373D"/>
<path d="M16.5998 2.59997L6.6998 5.09997C5.8998 5.29997 5.2998 5.99997 5.2998 6.89997V26.2C5.2998 27.1 5.9998 27.8 6.7998 28L16.6998 29.4C16.7998 29.4 16.8998 29.4 16.9998 29.4C18.0998 29.4 18.8998 28.6 18.7998 27.6V4.39997C18.7998 4.29997 18.7998 4.09997 18.7998 3.99997C18.5998 2.99997 17.5998 2.39997 16.5998 2.59997ZM16.8998 27.4L7.2998 26V6.99997L16.8998 4.59997V27.4Z" fill="#2D373D"/>
</svg>
