<svg width="64" height="65" viewBox="0 0 64 65" fill="none" xmlns="http://www.w3.org/2000/svg">
<path d="M18.8 19.8604H8V59.0603H18.8V19.8604Z" fill="#2D373D"/>
<path d="M13.3998 16.4602C16.4926 16.4602 18.9998 14.0425 18.9998 11.0602C18.9998 8.07782 16.4926 5.66016 13.3998 5.66016C10.307 5.66016 7.7998 8.07782 7.7998 11.0602C7.7998 14.0425 10.307 16.4602 13.3998 16.4602Z" fill="#2D373D"/>
<path d="M41.1996 19.8604C38.3996 19.8604 35.5996 21.0604 33.5996 23.0604V19.8604H22.5996V59.0603H33.5996V34.4604C33.5996 34.4604 33.1996 29.4604 39.1996 29.4604C42.7996 29.4604 44.5996 31.4604 44.5996 34.4604V59.2604H56.1996V34.8604C55.9996 21.4604 44.9996 19.8604 41.1996 19.8604Z" fill="#2D373D"/>
</svg>
