<svg width="16" height="17" viewBox="0 0 16 17" fill="none" xmlns="http://www.w3.org/2000/svg">
<path fill-rule="evenodd" clip-rule="evenodd" d="M4.02046 3.19804C4.49242 2.72608 5.13254 2.46094 5.8 2.46094C6.46745 2.46094 7.10757 2.72608 7.57953 3.19804C8.05149 3.67001 8.31664 4.31012 8.31664 4.97758C8.31664 5.64503 8.05149 6.28515 7.57953 6.75711C7.32298 7.01366 7.01674 7.2091 6.68343 7.33406C6.88008 7.38179 7.07356 7.44542 7.26191 7.52483C8.03442 7.85051 8.67713 8.42317 9.08943 9.15313C9.22523 9.39358 9.14041 9.69858 8.89996 9.83439C8.65952 9.97019 8.35452 9.88537 8.21871 9.64492C7.91521 9.10757 7.4421 8.68603 6.87343 8.44629C6.30477 8.20654 5.67265 8.16213 5.07605 8.32C4.47945 8.47787 3.95204 8.82911 3.57638 9.31874C3.20072 9.80837 2.99802 10.4087 3.00001 11.0259C3.00091 11.302 2.77777 11.5266 2.50163 11.5275C2.22549 11.5284 2.00091 11.3053 2.00002 11.0291C1.99731 10.1908 2.27267 9.37517 2.78299 8.71003C3.29331 8.04488 4.00978 7.56773 4.82024 7.35327C4.84961 7.3455 4.87905 7.33809 4.90854 7.33104C4.57834 7.20596 4.27495 7.0116 4.02046 6.75711C3.5485 6.28515 3.28336 5.64503 3.28336 4.97758C3.28336 4.31012 3.5485 3.67001 4.02046 3.19804ZM5.8 3.46094C5.39776 3.46094 5.01199 3.62073 4.72757 3.90515C4.44314 4.18958 4.28336 4.57534 4.28336 4.97758C4.28336 5.37982 4.44314 5.76558 4.72757 6.05C5.01199 6.33443 5.39776 6.49422 5.8 6.49422C6.20223 6.49422 6.588 6.33443 6.87242 6.05C7.15685 5.76558 7.31664 5.37982 7.31664 4.97758C7.31664 4.57534 7.15685 4.18958 6.87242 3.90515C6.588 3.62073 6.20223 3.46094 5.8 3.46094Z" fill="#2D373D"/>
<path fill-rule="evenodd" clip-rule="evenodd" d="M13.55 10.2173L9.82019 13.9476C9.75038 14.0175 9.66147 14.065 9.56467 14.0844L7.73136 14.4511C7.56743 14.4839 7.39796 14.4325 7.27975 14.3143C7.16154 14.1961 7.11022 14.0267 7.14301 13.8627L7.50967 12.0294C7.52903 11.9326 7.5766 11.8437 7.64639 11.7739L11.3766 8.04328C11.6643 7.75561 12.0546 7.59393 12.4615 7.59393C12.8684 7.59393 13.2586 7.75553 13.5464 8.0432L13.5518 8.04869C13.5547 8.05166 13.5575 8.05467 13.5603 8.05772C13.6981 8.19792 13.8077 8.36335 13.8831 8.54502C13.9603 8.73119 14 8.93077 14 9.13233C14 9.33389 13.9603 9.53347 13.8831 9.71964C13.8059 9.90576 13.6926 10.075 13.55 10.2173ZM12.0836 8.75042L8.46057 12.374L8.27068 13.3234L9.22009 13.1335L12.8432 9.50992C12.8928 9.46042 12.9325 9.40126 12.9594 9.33653C12.9862 9.2718 13 9.20241 13 9.13233C13 9.06225 12.9862 8.99286 12.9594 8.92813C12.9325 8.8634 12.8932 8.8046 12.8436 8.75509C12.8412 8.75274 12.8389 8.75036 12.8366 8.74797C12.8351 8.74645 12.8337 8.74493 12.8322 8.7434C12.7327 8.6476 12.5999 8.59393 12.4615 8.59393C12.3198 8.59393 12.1839 8.65027 12.0836 8.75042Z" fill="#2D373D"/>
</svg>
