<svg width="16" height="17" viewBox="0 0 16 17" fill="none" xmlns="http://www.w3.org/2000/svg">
<path d="M7.5286 5.06255C7.78895 5.3229 8.21106 5.3229 8.4714 5.06255C8.73175 4.8022 8.73175 4.38009 8.4714 4.11974C8.21106 3.85939 7.78895 3.85939 7.5286 4.11974C7.26825 4.38009 7.26825 4.8022 7.5286 5.06255Z" fill="#2D373D"/>
<path fill-rule="evenodd" clip-rule="evenodd" d="M7.80963 2.29547C7.93157 2.24526 8.06843 2.24526 8.19038 2.29547L11.0237 3.46214C11.2111 3.53928 11.3333 3.72187 11.3333 3.92448V5.59115H11.6667C11.9428 5.59115 12.1667 5.815 12.1667 6.09115C12.1667 6.36729 11.9428 6.59115 11.6667 6.59115H4.33333C4.05719 6.59115 3.83333 6.36729 3.83333 6.09115C3.83333 5.815 4.05719 5.59115 4.33333 5.59115H4.66667V3.92448C4.66667 3.72187 4.78894 3.53928 4.97629 3.46214L7.80963 2.29547ZM10.3333 4.25933V5.59115H5.66667V4.25933L8 3.29854L10.3333 4.25933Z" fill="#2D373D"/>
<path fill-rule="evenodd" clip-rule="evenodd" d="M7.57129 14.5145L5.97631 11.8562L5.28291 13.7052L6.91859 14.6594C7.15711 14.7985 7.23768 15.1047 7.09854 15.3432C6.9594 15.5817 6.65324 15.6623 6.41471 15.5232L4.41471 14.3565C4.20427 14.2337 4.11294 13.9772 4.19849 13.7491L4.81382 12.1082C4.73648 12.1611 4.66071 12.2158 4.58668 12.2722C3.61676 13.0118 3 14.0038 3 15.0911C3 15.3673 2.77614 15.5911 2.5 15.5911C2.22386 15.5911 2 15.3673 2 15.0911C2 13.6012 2.84457 12.3431 3.98032 11.4771C5.11584 10.6112 6.59635 10.0911 8 10.0911C9.40365 10.0911 10.8842 10.6112 12.0197 11.4771C13.1554 12.3431 14 13.6012 14 15.0911C14 15.3673 13.7761 15.5911 13.5 15.5911C13.2239 15.5911 13 15.3673 13 15.0911C13 14.0038 12.3832 13.0118 11.4133 12.2722C11.3393 12.2158 11.2636 12.1612 11.1864 12.1083L11.8015 13.7487C11.8871 13.9768 11.7957 14.2334 11.5853 14.3561L9.58529 15.5228C9.34676 15.662 9.0406 15.5814 8.90146 15.3429C8.76232 15.1043 8.84289 14.7982 9.08141 14.659L10.7171 13.7049L10.0238 11.8561L8.42878 14.5145C8.33842 14.6651 8.17567 14.7572 8.00004 14.7572C7.8244 14.7572 7.66165 14.6651 7.57129 14.5145ZM8.00004 13.2854L6.77359 11.2413C7.18303 11.1431 7.59716 11.0911 8 11.0911C8.40286 11.0911 8.81702 11.1431 9.22648 11.2414L8.00004 13.2854Z" fill="#2D373D"/>
<path d="M6.21427 7.35807C6.21427 7.08193 5.99042 6.85807 5.71427 6.85807C5.43813 6.85807 5.21427 7.08193 5.21427 7.35807C5.21427 8.0958 5.60737 8.7259 6.12243 9.15605C6.63705 9.58585 7.31978 9.85807 8.00002 9.85807C8.68026 9.85807 9.36297 9.58585 9.87759 9.15605C10.3926 8.72589 10.7857 8.09579 10.7857 7.35807C10.7857 7.08193 10.5618 6.85807 10.2857 6.85807C10.0096 6.85807 9.7857 7.08193 9.7857 7.35807C9.7857 7.72493 9.58822 8.09482 9.23656 8.38853C8.88448 8.68258 8.42434 8.85807 8.00002 8.85807C7.57569 8.85807 7.11554 8.68258 6.76344 8.38852C6.41176 8.09481 6.21427 7.72492 6.21427 7.35807Z" fill="#2D373D"/>
</svg>
