<svg width="32" height="33" viewBox="0 0 32 33" fill="none" xmlns="http://www.w3.org/2000/svg">
<path d="M25.9998 15.2338C25.5136 14.05 24.8193 12.9628 23.9498 12.0238L24.6598 11.3038C24.8743 11.3835 25.1098 11.3873 25.3267 11.3144C25.5437 11.2415 25.7291 11.0964 25.852 10.9033C25.9749 10.7102 26.0278 10.4808 26.0019 10.2534C25.9761 10.026 25.8729 9.81431 25.7098 9.65375L25.3198 9.26375L24.9298 8.86375C24.8369 8.77002 24.7262 8.69563 24.6044 8.64486C24.4825 8.59409 24.3518 8.56795 24.2198 8.56795C24.0878 8.56795 23.9571 8.59409 23.8352 8.64486C23.7134 8.69563 23.6028 8.77002 23.5098 8.86375C23.365 8.99397 23.2613 9.16365 23.2116 9.35196C23.1619 9.54026 23.1682 9.73899 23.2298 9.92375L22.4398 10.7137C20.854 9.52376 18.9727 8.79059 16.9998 8.59375V5.59375H18.4498C18.715 5.59375 18.9694 5.48839 19.1569 5.30086C19.3445 5.11332 19.4498 4.85897 19.4498 4.59375C19.4498 4.32853 19.3445 4.07418 19.1569 3.88664C18.9694 3.69911 18.715 3.59375 18.4498 3.59375H13.5498C13.2846 3.59375 13.0302 3.69911 12.8427 3.88664C12.6552 4.07418 12.5498 4.32853 12.5498 4.59375C12.5498 4.85897 12.6552 5.11332 12.8427 5.30086C13.0302 5.48839 13.2846 5.59375 13.5498 5.59375H14.9998V8.59375C12.4896 8.83228 10.1413 9.93924 8.35981 11.7238C7.34949 12.7268 6.54745 13.9196 5.99981 15.2338C4.90631 17.8924 4.90631 20.8751 5.99981 23.5338C6.54151 24.8462 7.33667 26.0389 8.33981 27.0438C10.3706 29.0773 13.1259 30.2211 15.9998 30.2237C18.8668 30.2158 21.6139 29.0724 23.6398 27.0438C24.6501 26.0407 25.4522 24.8479 25.9998 23.5338C27.0933 20.8751 27.0933 17.8924 25.9998 15.2338ZM24.1498 22.7638C23.7074 23.8364 23.0585 24.8115 22.2398 25.6337C21.4262 26.456 20.4575 27.1087 19.3898 27.5537C17.2313 28.4438 14.8083 28.4438 12.6498 27.5537C11.5821 27.1087 10.6134 26.456 9.79981 25.6337C8.5676 24.3956 7.72887 22.8209 7.38903 21.1075C7.0492 19.3941 7.22342 17.6184 7.88981 16.0037C8.78193 13.8413 10.493 12.1194 12.6498 11.2137C14.8077 10.3204 17.232 10.3204 19.3898 11.2137C20.4575 11.6588 21.4262 12.3115 22.2398 13.1337C23.472 14.3719 24.3108 15.9466 24.6506 17.66C24.9904 19.3734 24.8162 21.1491 24.1498 22.7638Z" fill="#2D373D"/>
<path d="M19.5498 16.2038C19.78 16.3599 20.0517 16.4433 20.3298 16.4433C20.6079 16.4433 20.8796 16.3599 21.1098 16.2038C21.3473 16.0562 21.5299 15.835 21.6298 15.5738C21.7411 15.319 21.7691 15.0355 21.7098 14.7638C21.659 14.4908 21.5265 14.2397 21.3298 14.0438C21.2008 13.9083 21.0438 13.8025 20.8698 13.7338C20.6988 13.6623 20.5152 13.6255 20.3298 13.6255C20.1444 13.6255 19.9609 13.6623 19.7898 13.7338C19.5795 13.8204 19.3933 13.9565 19.2471 14.1307C19.1008 14.3048 18.9988 14.5117 18.9498 14.7338C18.8952 15.0024 18.9231 15.2813 19.0298 15.5338C19.1205 15.8105 19.3043 16.0473 19.5498 16.2038Z" fill="#2D373D"/>
<path d="M21.327 20.5021C21.5572 20.6582 21.8289 20.7416 22.107 20.7416C22.3851 20.7416 22.6568 20.6582 22.887 20.5021C23.1245 20.3546 23.3072 20.1333 23.407 19.8721C23.5184 19.6173 23.5464 19.3338 23.487 19.0621C23.4362 18.7892 23.3037 18.5381 23.107 18.3421C22.978 18.2067 22.821 18.1009 22.647 18.0321C22.476 17.9606 22.2924 17.9238 22.107 17.9238C21.9216 17.9238 21.7381 17.9606 21.567 18.0321C21.3568 18.1187 21.1705 18.2549 21.0243 18.429C20.878 18.6031 20.776 18.8101 20.727 19.0321C20.6725 19.3008 20.7003 19.5796 20.807 19.8321C20.8977 20.1088 21.0815 20.3456 21.327 20.5021Z" fill="#2D373D"/>
<path d="M19.627 24.902C19.8572 25.0581 20.1289 25.1415 20.407 25.1415C20.6851 25.1415 20.9568 25.0581 21.187 24.902C21.4245 24.7545 21.6072 24.5332 21.707 24.272C21.8184 24.0172 21.8464 23.7337 21.787 23.462C21.7363 23.1891 21.6037 22.938 21.407 22.742C21.278 22.6066 21.121 22.5008 20.947 22.432C20.776 22.3605 20.5924 22.3237 20.407 22.3237C20.2216 22.3237 20.0381 22.3605 19.867 22.432C19.6568 22.5186 19.4705 22.6548 19.3243 22.8289C19.178 23.003 19.076 23.21 19.027 23.432C18.9725 23.7007 19.0004 23.9795 19.107 24.232C19.1977 24.5087 19.3815 24.7455 19.627 24.902Z" fill="#2D373D"/>
<path d="M15.227 26.7021C15.4572 26.8581 15.7289 26.9416 16.007 26.9416C16.2851 26.9416 16.5568 26.8581 16.787 26.7021C17.0245 26.5545 17.2072 26.3332 17.307 26.0721C17.4183 25.8173 17.4463 25.5338 17.387 25.2621C17.3362 24.9891 17.2037 24.738 17.007 24.5421C16.878 24.4066 16.721 24.3008 16.547 24.2321C16.376 24.1606 16.1924 24.1238 16.007 24.1238C15.8216 24.1238 15.6381 24.1606 15.467 24.2321C15.2567 24.3187 15.0705 24.4548 14.9243 24.629C14.778 24.8031 14.676 25.01 14.627 25.2321C14.5725 25.5007 14.6003 25.7796 14.707 26.0321C14.7977 26.3088 14.9815 26.5455 15.227 26.7021Z" fill="#2D373D"/>
<path d="M10.927 24.902C11.1572 25.0581 11.4289 25.1415 11.707 25.1415C11.9851 25.1415 12.2568 25.0581 12.487 24.902C12.7245 24.7545 12.9072 24.5332 13.007 24.272C13.1184 24.0172 13.1464 23.7337 13.087 23.462C13.0363 23.1891 12.9037 22.938 12.707 22.742C12.578 22.6066 12.421 22.5008 12.247 22.432C12.076 22.3605 11.8924 22.3237 11.707 22.3237C11.5216 22.3237 11.3381 22.3605 11.167 22.432C10.9568 22.5186 10.7705 22.6548 10.6243 22.8289C10.478 23.003 10.376 23.21 10.327 23.432C10.2725 23.7007 10.3004 23.9795 10.407 24.232C10.4977 24.5087 10.6815 24.7455 10.927 24.902Z" fill="#2D373D"/>
<path d="M9.12703 20.5521C9.35722 20.7081 9.62893 20.7916 9.90703 20.7916C10.1851 20.7916 10.4568 20.7081 10.687 20.5521C10.9245 20.4045 11.1072 20.1832 11.207 19.9221C11.3184 19.6673 11.3464 19.3838 11.287 19.1121C11.2362 18.8391 11.1037 18.588 10.907 18.3921C10.778 18.2566 10.621 18.1508 10.447 18.0821C10.276 18.0106 10.0924 17.9738 9.90703 17.9738C9.72163 17.9738 9.53808 18.0106 9.36703 18.0821C9.15676 18.1687 8.97054 18.3048 8.82427 18.479C8.67801 18.6531 8.57603 18.86 8.52703 19.0821C8.47247 19.3507 8.50035 19.6296 8.60703 19.8821C8.69774 20.1588 8.88148 20.3955 9.12703 20.5521Z" fill="#2D373D"/>
<path d="M10.927 16.2021C11.1572 16.3581 11.4289 16.4416 11.707 16.4416C11.9851 16.4416 12.2568 16.3581 12.487 16.2021C12.7245 16.0545 12.9072 15.8332 13.007 15.5721C13.1184 15.3173 13.1464 15.0338 13.087 14.7621C13.0363 14.4891 12.9037 14.238 12.707 14.0421C12.578 13.9066 12.421 13.8008 12.247 13.7321C12.076 13.6606 11.8924 13.6237 11.707 13.6237C11.5216 13.6237 11.3381 13.6606 11.167 13.7321C10.9568 13.8187 10.7705 13.9548 10.6243 14.129C10.478 14.3031 10.376 14.51 10.327 14.7321C10.2725 15.0007 10.3004 15.2796 10.407 15.5321C10.4977 15.8088 10.6815 16.0455 10.927 16.2021Z" fill="#2D373D"/>
<path d="M15.227 14.4021C15.4572 14.5581 15.7289 14.6416 16.007 14.6416C16.2851 14.6416 16.5568 14.5581 16.787 14.4021C17.0245 14.2545 17.2072 14.0332 17.307 13.7721C17.4183 13.5173 17.4463 13.2338 17.387 12.9621C17.3362 12.6891 17.2037 12.438 17.007 12.2421C16.878 12.1066 16.721 12.0008 16.547 11.9321C16.376 11.8606 16.1924 11.8237 16.007 11.8237C15.8216 11.8237 15.6381 11.8606 15.467 11.9321C15.2567 12.0187 15.0705 12.1548 14.9243 12.329C14.778 12.5031 14.676 12.71 14.627 12.9321C14.5725 13.2007 14.6003 13.4796 14.707 13.7321C14.7977 14.0088 14.9815 14.2455 15.227 14.4021Z" fill="#2D373D"/>
</svg>
