<svg width="64" height="65" viewBox="0 0 64 65" fill="none" xmlns="http://www.w3.org/2000/svg">
<path fill-rule="evenodd" clip-rule="evenodd" d="M32.0015 14.4503C29.6603 11.7875 26.3309 9.53506 22.5755 8.75393C17.5902 7.717 12.163 9.3412 7.73485 15.2454L7.73482 15.2453L7.72717 15.2557C5.36298 18.4505 4.89306 21.945 5.725 25.4699C6.53356 28.8958 8.55997 32.3303 11.121 35.6707C14.9257 40.6333 20.2612 45.8094 25.442 50.8355C27.1967 52.5377 28.9336 54.2228 30.5873 55.8765C30.9624 56.2516 31.4711 56.4623 32.0015 56.4623C32.532 56.4623 33.0407 56.2516 33.4157 55.8765C35.0694 54.2228 36.8064 52.5377 38.561 50.8355C43.7419 45.8094 49.0773 40.6333 52.8821 35.6707C55.4431 32.3303 57.4695 28.8958 58.278 25.4699C59.11 21.945 58.6401 18.4505 56.2759 15.2557L56.2759 15.2556L56.2682 15.2454C51.8401 9.3412 46.4128 7.717 41.4276 8.75393C37.6721 9.53506 34.3428 11.7875 32.0015 14.4503ZM10.9388 17.6401C14.5096 12.8822 18.4141 11.974 21.7609 12.6701C25.3058 13.4075 28.5435 16.0194 30.3055 18.8387C30.671 19.4234 31.3119 19.7787 32.0015 19.7787C32.6911 19.7787 33.332 19.4234 33.6975 18.8387C35.4596 16.0194 38.6972 13.4075 42.2421 12.6701C45.5891 11.974 49.4936 12.8822 53.0644 17.6404C54.6435 19.7773 54.9792 22.0333 54.385 24.5511C53.7669 27.17 52.1333 30.0731 49.7076 33.2369C46.0976 37.9456 41.0848 42.8096 35.9686 47.7739C34.6457 49.0576 33.3158 50.348 32.0015 51.6442C30.6872 50.348 29.3574 49.0576 28.0344 47.7739C22.9183 42.8096 17.9054 37.9456 14.2954 33.2369C11.8697 30.0731 10.2361 27.17 9.61804 24.5511C9.02378 22.0332 9.35953 19.7771 10.9388 17.6401Z" fill="#2D373D"/>
</svg>
