<svg width="32" height="33" viewBox="0 0 32 33" fill="none" xmlns="http://www.w3.org/2000/svg">
<path d="M26.3001 12.1613C25.6001 11.3613 24.7001 10.7613 23.7001 10.3613C23.6001 8.46133 22.8001 6.66133 21.4001 5.36133C18.3001 2.36133 13.5001 2.36133 10.4001 5.36133C9.10005 6.66133 8.30005 8.46133 8.30005 10.3613C7.30005 10.7613 6.50005 11.3613 5.70005 12.1613C2.90005 15.2613 3.10005 19.9613 6.10005 22.7613L16.0001 29.8613L25.8001 22.8613L26.0001 22.7613C28.9001 19.9613 29.1001 15.2613 26.3001 12.1613ZM12.3001 6.96133C13.3001 6.16133 14.6001 5.56133 16.0001 5.56133C17.4001 5.56133 18.7001 6.16133 19.7001 7.06133C20.4001 7.76133 20.9001 8.66133 21.1001 9.66133C19.7001 9.56133 18.3001 9.86133 17.0001 10.4613C16.4001 10.7613 15.6001 10.7613 15.0001 10.4613C13.7001 9.76133 12.3001 9.56133 10.9001 9.56133C11.1001 8.56133 11.6001 7.66133 12.3001 6.96133ZM21.0001 12.2613C20.7001 13.0613 20.3001 13.7613 19.7001 14.3613C17.7001 16.3613 14.4001 16.3613 12.4001 14.3613C11.8001 13.7613 11.4001 13.0613 11.1001 12.2613C12.1001 12.1613 13.0001 12.3613 13.9001 12.8613C14.6001 13.1613 15.3001 13.3613 16.1001 13.3613C16.9001 13.3613 17.6001 13.1613 18.3001 12.8613C19.1001 12.3613 20.0001 12.1613 21.0001 12.2613ZM25.0001 20.0613C24.8001 20.3613 24.5001 20.6613 24.2001 20.9613L16.0001 26.7613L7.80005 20.9613C5.80005 19.0613 5.70005 15.8613 7.60005 13.8613C7.90005 13.5613 8.20005 13.2613 8.60005 13.0613C9.00005 14.2613 9.60005 15.2613 10.5001 16.1613C13.6001 19.1613 18.4001 19.1613 21.5001 16.1613C22.4001 15.2613 23.0001 14.2613 23.4001 13.0613C25.8001 14.5613 26.5001 17.6613 25.0001 20.0613Z" fill="#2D373D"/>
</svg>
