<svg width="24" height="25" viewBox="0 0 24 25" fill="none" xmlns="http://www.w3.org/2000/svg">
<path d="M17.2268 6.22283C16.3349 5.18067 15.8625 3.844 15.9016 2.47283L12.5603 2.39258V16.1258C12.6068 20.3648 5.90931 20.2621 6.43956 15.5761C6.5232 15.1341 6.7014 14.7155 6.96197 14.3488C7.22254 13.9822 7.5593 13.6762 7.94918 13.4519C8.33905 13.2276 8.77282 13.0902 9.22075 13.0492C9.66869 13.0082 10.1202 13.0645 10.5443 13.2143V9.80558C9.62308 9.65383 8.67989 9.70369 7.77979 9.95173C6.87969 10.1998 6.0441 10.6401 5.33065 11.2423C4.61719 11.8446 4.04285 12.5944 3.64722 13.4401C3.2516 14.2858 3.04411 15.2072 3.03906 16.1408C3.37731 24.6578 15.5933 24.6586 15.9323 16.1408C15.8468 15.8363 15.8948 10.1603 15.8828 9.68183C17.4034 10.6276 19.1707 11.1001 20.9603 11.0393V7.51808C20.2825 7.56917 19.6014 7.48057 18.9592 7.25778C18.317 7.03498 17.7274 6.68273 17.2268 6.22283Z" fill="#2D373D"/>
</svg>
