<svg width="64" height="65" viewBox="0 0 64 65" fill="none" xmlns="http://www.w3.org/2000/svg">
<path d="M48.1998 23.0617H41.3998V16.2617C41.3998 11.8617 37.9998 8.26172 33.5998 8.26172H30.5998C26.1998 8.26172 22.5998 11.8617 22.5998 16.2617V22.8617H15.7998C11.3998 22.8617 7.7998 26.4617 7.7998 30.8617V33.8617C7.9998 38.0617 11.3998 41.6617 15.7998 41.6617H22.3998V48.4617C22.3998 52.8617 25.9998 56.4617 30.3998 56.4617H33.3998C37.7998 56.4617 41.3998 53.0617 41.3998 48.6617V41.8617H48.1998C52.5998 41.8617 56.1998 38.4617 56.1998 34.0617V31.0617C56.1998 26.6617 52.5998 23.0617 48.1998 23.0617ZM52.3998 34.0617C52.3998 36.0617 50.5998 37.8617 48.3998 37.8617H39.5998C38.3998 37.8617 37.5998 38.6617 37.5998 39.8617V48.6617C37.5998 50.8617 35.7998 52.6617 33.5998 52.6617H30.5998C28.3998 52.6617 26.5998 50.8617 26.5998 48.6617V39.8617C26.5998 38.6617 25.7998 37.8617 24.5998 37.8617H15.7998C13.5998 37.8617 11.7998 36.2617 11.7998 34.0617V31.0617C11.7998 28.8617 13.5998 27.0617 15.7998 27.0617H24.7998C25.9998 27.0617 26.7998 26.2617 26.7998 25.0617V16.2617C26.7998 14.0617 28.5998 12.2617 30.7998 12.2617H33.7998C35.7998 12.4617 37.5998 14.0617 37.5998 16.2617V25.0617C37.5998 26.2617 38.3998 27.0617 39.5998 27.0617H48.3998C50.5998 27.0617 52.3998 28.8617 52.3998 31.0617V34.0617Z" fill="#2D373D"/>
</svg>
