<svg width="16" height="17" viewBox="0 0 16 17" fill="none" xmlns="http://www.w3.org/2000/svg">
<path d="M11.0501 8.46191C10.8501 8.26191 10.5501 8.26191 10.3501 8.46191L8.5001 10.2619V5.46191C8.5001 5.16191 8.3001 4.96191 8.0001 4.96191C7.7001 4.96191 7.5001 5.16191 7.5001 5.46191V10.2619L5.7001 8.46191C5.5001 8.26191 5.2001 8.26191 5.0001 8.46191C4.8001 8.66191 4.8001 8.96191 5.0001 9.16191L7.6501 11.8119C7.7501 11.9119 7.8501 11.9619 8.0001 11.9619C8.1501 11.9619 8.2501 11.9119 8.3501 11.8119L11.0501 9.16191C11.2501 8.96191 11.2501 8.66191 11.0501 8.46191Z" fill="#2D373D"/>
</svg>
