<svg width="24" height="25" viewBox="0 0 24 25" fill="none" xmlns="http://www.w3.org/2000/svg">
<path d="M12 13.4607H3.65C2.74 13.4607 2 14.1907 2 15.0707V21.3207C2 22.2007 2.74 22.9207 3.65 22.9207H12C12.91 22.9207 13.65 22.2007 13.65 21.3207V15.0707C13.65 14.1907 12.91 13.4607 12 13.4607ZM12.15 21.3207C12.15 21.3207 12.09 21.4207 12 21.4207H3.65C3.56 21.4207 3.5 21.3707 3.5 21.3207V15.0707C3.5 15.0707 3.56 14.9607 3.65 14.9607H12C12.09 14.9607 12.15 15.0207 12.15 15.0707V21.3207Z" fill="#2D373D"/>
<path d="M9.55 19.1119C9.48 19.3919 9.31 19.6319 9.07 19.8019C8.89 19.9319 8.66 20.0119 8.44 20.0319C8.39 20.2619 8.19 20.4219 7.95 20.4219C7.71 20.4219 7.52 20.2719 7.47 20.0519H7.05C6.77 20.0519 6.55 19.8219 6.55 19.5519C6.55 19.2819 6.77 19.0519 7.05 19.0519H8.27C8.35 19.0519 8.44 19.0219 8.5 18.9819C8.54 18.9519 8.57 18.9219 8.57 18.8919C8.53 18.7819 8.48 18.7519 8.41 18.7319L7.17 18.3119C6.89 18.2219 6.66 18.0419 6.5 17.8119C6.34 17.5619 6.29 17.2619 6.35 16.9819C6.42 16.7019 6.59 16.4519 6.84 16.2919C7.02 16.1619 7.23 16.0919 7.46 16.0719C7.51 15.8419 7.7 15.6719 7.95 15.6719C8.2 15.6719 8.38 15.8319 8.43 16.0519H8.85C9.13 16.0519 9.35 16.2719 9.35 16.5519C9.35 16.8319 9.13 17.0519 8.85 17.0519H7.63C7.54 17.0519 7.46 17.0719 7.4 17.1119C7.36 17.1419 7.33 17.1719 7.33 17.2019C7.37 17.3119 7.42 17.3419 7.49 17.3619L8.73 17.7819C9.01 17.8719 9.24 18.0519 9.39 18.2819C9.56 18.5319 9.61 18.8319 9.55 19.1119Z" fill="#2D373D"/>
<path d="M16.25 2.92188C13.08 2.92188 10.5 5.50187 10.5 8.67187C10.5 11.8419 13.08 14.4219 16.25 14.4219C19.42 14.4219 22 11.8419 22 8.67187C22 5.50187 19.42 2.92188 16.25 2.92188ZM16.25 4.42187C18.05 4.42187 19.6 5.55187 20.21 7.14187H12.29C12.9 5.55187 14.45 4.42187 16.25 4.42187ZM18.72 8.55187C18.72 8.91187 18.43 9.20187 18.07 9.20187C17.71 9.20187 17.42 8.91187 17.42 8.55187C17.42 8.19187 17.71 7.91187 18.07 7.91187C18.43 7.91187 18.72 8.20187 18.72 8.55187ZM14.7 8.55187C14.7 8.91187 14.41 9.20187 14.05 9.20187C13.69 9.20187 13.4 8.91187 13.4 8.55187C13.4 8.19187 13.7 7.91187 14.05 7.91187C14.4 7.91187 14.7 8.20187 14.7 8.55187ZM16.25 12.9219C14.45 12.9219 12.9 11.7919 12.29 10.2019H20.21C19.6 11.7919 18.05 12.9219 16.25 12.9219Z" fill="#2D373D"/>
<path d="M16.96 6.73127C16.74 6.73127 16.53 6.58127 16.47 6.35127C16.4 6.08127 16.57 5.81127 16.83 5.74127L18.33 5.36127C18.59 5.29127 18.87 5.46127 18.94 5.72127C19.01 5.99127 18.84 6.26127 18.58 6.33127L17.08 6.71127C17.08 6.71127 17 6.73127 16.96 6.73127Z" fill="#2D373D"/>
<path d="M15.36 6.76224C15.36 6.76224 15.27 6.76224 15.22 6.74224L13.73 6.31224C13.46 6.23224 13.31 5.96224 13.39 5.69224C13.47 5.43224 13.74 5.27224 14.01 5.35224L15.5 5.78224C15.77 5.86224 15.92 6.13224 15.84 6.40224C15.78 6.62224 15.58 6.76224 15.36 6.76224Z" fill="#2D373D"/>
<path d="M15.31 12.6614C15.23 12.6614 15.14 12.6414 15.06 12.6014C14.82 12.4614 14.73 12.1614 14.87 11.9214C15.43 10.9314 16.77 10.0814 18.86 10.6614C19.13 10.7314 19.28 11.0114 19.21 11.2814C19.14 11.5514 18.86 11.7114 18.59 11.6314C16.67 11.1014 15.92 12.1014 15.74 12.4214C15.65 12.5814 15.48 12.6714 15.3 12.6714L15.31 12.6614Z" fill="#2D373D"/>
</svg>
