<svg width="32" height="33" viewBox="0 0 32 33" fill="none" xmlns="http://www.w3.org/2000/svg">
<path d="M29.6 12.9238C29.611 12.3117 29.4175 11.7135 29.05 11.2238L25.18 6.03383C24.9142 5.68723 24.572 5.40662 24.18 5.21383H24.1C23.7583 5.03956 23.3832 4.94066 23 4.92383H9.00003C8.61306 4.92563 8.16104 5.01091 7.81003 5.17383C7.41625 5.36378 7.07344 5.64489 6.81003 5.99383L3.00003 11.2538C2.62391 11.7298 2.4164 12.3172 2.41003 12.9238C2.39976 13.5546 2.60824 14.1694 3.00003 14.6638L13.89 27.9238C14.1544 28.2286 14.4775 28.4768 14.84 28.6538C15.2017 28.8294 15.598 28.9216 16 28.9238H16.09C16.4764 28.917 16.8574 28.832 17.21 28.6738C17.5734 28.4983 17.8941 28.2458 18.15 27.9338L29 14.6738C29.3901 14.1912 29.6114 13.5941 29.63 12.9738L29.6 12.9238ZM19.92 13.9238L16 24.9238L12.09 13.9238H19.92ZM12.76 11.9238L16 7.60383L19.25 11.9238H12.76ZM18 6.92383H22.44L21 10.9238L18 6.92383ZM11 10.9238L9.58003 6.92383H14L11 10.9238ZM13.75 24.5638L5.00003 13.9238H10L13.75 24.5638ZM22 13.9238H27L18.25 24.6038L22 13.9238ZM27.05 11.9238H22.76L24.16 7.98383L27.05 11.9238ZM7.84003 8.02383L9.25003 11.9238H4.91003L7.84003 8.02383Z" fill="#2D373D"/>
</svg>
