<svg width="24" height="25" viewBox="0 0 24 25" fill="none" xmlns="http://www.w3.org/2000/svg">
<path d="M21.825 10.1361C21.15 7.51113 19.575 5.33613 17.325 3.91113C15.675 2.93613 13.875 2.41113 12 2.41113C6.45 2.41113 1.95 6.91113 1.95 12.3861C1.95 14.1861 2.4 15.9111 3.3 17.4111L1.95 21.5361C1.875 21.7611 1.95 22.0611 2.175 22.2861C2.325 22.4361 2.475 22.5111 2.7 22.5111C2.775 22.5111 2.925 22.5111 3 22.5111L7.05 21.1611C9.3 22.4361 11.85 22.8111 14.325 22.2111C16.95 21.5361 19.125 19.9611 20.55 17.7111C21.975 15.4611 22.425 12.7611 21.825 10.1361ZM19.275 16.8861C18.075 18.8361 16.2 20.1861 13.95 20.7111C11.7 21.2361 9.45 20.8611 7.5 19.7361C7.425 19.6611 7.275 19.5861 7.125 19.5861C7.05 19.5861 6.9 19.5861 6.825 19.5861L3.825 20.5611L4.8 17.4861C4.875 17.2611 4.875 17.0361 4.725 16.8861C3.9 15.5361 3.45 13.9611 3.45 12.3861C3.45 7.73613 7.275 3.91113 12 3.91113C13.575 3.91113 15.15 4.36113 16.5 5.18613C18.45 6.38613 19.8 8.18613 20.325 10.4361C20.85 12.6861 20.475 14.9361 19.275 16.8861Z" fill="#2D373D"/>
</svg>
