<svg width="24" height="25" viewBox="0 0 24 25" fill="none" xmlns="http://www.w3.org/2000/svg">
<path fill-rule="evenodd" clip-rule="evenodd" d="M22 12.9219C22 18.4447 17.5228 22.9219 12 22.9219C6.47715 22.9219 2 18.4447 2 12.9219C2 7.39903 6.47715 2.92188 12 2.92188C17.5228 2.92188 22 7.39903 22 12.9219ZM17.4567 19.4393C15.9803 20.6768 14.0772 21.4219 12 21.4219C9.92284 21.4219 8.0197 20.6768 6.54325 19.4393L8.3208 17.6618C9.33681 18.4516 10.6135 18.9219 12 18.9219C13.3865 18.9219 14.6632 18.4516 15.6792 17.6618L17.4567 19.4393ZM7.26013 16.6011L5.48259 18.3787C4.24509 16.9022 3.5 14.9991 3.5 12.9219C3.5 10.8447 4.24507 8.94157 5.48254 7.46513L7.26008 9.24267C6.4703 10.2587 6 11.5354 6 12.9219C6 14.3084 6.47032 15.5851 7.26013 16.6011ZM18.5174 18.3787C19.7549 16.9022 20.5 14.9991 20.5 12.9219C20.5 10.8447 19.7549 8.94158 18.5175 7.46513L16.7399 9.24268C17.5297 10.2587 18 11.5354 18 12.9219C18 14.3084 17.5297 15.5851 16.7399 16.6011L18.5174 18.3787ZM15.6793 8.18201C14.6632 7.3922 13.3865 6.92188 12 6.92188C10.6135 6.92188 9.33675 7.3922 8.32074 8.18201L6.54319 6.40446C8.01965 5.16697 9.92281 4.42188 12 4.42188C14.0772 4.42188 15.9804 5.16697 17.4568 6.40446L15.6793 8.18201ZM16.5 12.9219C16.5 15.4072 14.4853 17.4219 12 17.4219C9.51472 17.4219 7.5 15.4072 7.5 12.9219C7.5 10.4366 9.51472 8.42188 12 8.42188C14.4853 8.42188 16.5 10.4366 16.5 12.9219Z" fill="#2D373D"/>
</svg>
