<svg width="32" height="32" viewBox="0 0 32 32" fill="none" xmlns="http://www.w3.org/2000/svg">
<path d="M23.1832 9.41084L16.6832 2.91084C16.5832 2.81084 16.4832 2.71084 16.3832 2.71084C16.3832 2.71084 16.3832 2.71084 16.2832 2.71084C16.1832 2.61084 16.0832 2.61084 15.9832 2.61084C15.8832 2.61084 15.8832 2.61084 15.7832 2.61084C15.6832 2.61084 15.6832 2.61084 15.5832 2.61084C15.4832 2.71084 15.3832 2.81084 15.2832 2.91084L8.78318 9.41084C8.38318 9.81084 8.38318 10.4108 8.78318 10.8108C9.18318 11.2108 9.78318 11.2108 10.1832 10.8108L14.9832 6.01084V23.0108C14.9832 23.6108 15.3832 24.0108 15.9832 24.0108C16.5832 24.0108 16.9832 23.6108 16.9832 23.0108V6.01084L21.7832 10.8108C21.9832 11.0108 22.2832 11.1108 22.4832 11.1108C22.7832 11.1108 22.9832 11.0108 23.1832 10.8108C23.5832 10.4108 23.5832 9.81084 23.1832 9.41084Z" fill="#2D373D"/>
<path d="M25.6832 29.3108H6.2832C5.6832 29.3108 5.2832 28.9108 5.2832 28.3108C5.2832 27.7108 5.6832 27.3108 6.2832 27.3108H25.6832C26.2832 27.3108 26.6832 27.7108 26.6832 28.3108C26.6832 28.9108 26.2832 29.3108 25.6832 29.3108Z" fill="#2D373D"/>
</svg>
