<svg width="24" height="24" viewBox="0 0 24 24" fill="none" xmlns="http://www.w3.org/2000/svg">
<path d="M20.5146 22.0126H3.51431C3.30348 22.0154 3.09423 21.9758 2.89891 21.8964C2.70359 21.817 2.52615 21.6992 2.37706 21.5501C2.22796 21.4011 2.11023 21.2236 2.03079 21.0283C1.95136 20.833 1.91184 20.6237 1.91456 20.4129V10.1131C1.90836 9.87923 1.95986 9.6474 2.0645 9.43811C2.16915 9.22882 2.32372 9.04853 2.51456 8.91314L11.5146 2.11289C11.6444 2.01552 11.8023 1.96289 11.9646 1.96289C12.1268 1.96289 12.2847 2.01552 12.4146 2.11289L21.4146 8.91314C21.5897 9.06295 21.733 9.24631 21.836 9.45242C21.9391 9.65852 21.9998 9.88318 22.0146 10.1131V20.5126C22.0049 20.9074 21.8437 21.2833 21.5645 21.5626C21.2853 21.8418 20.9093 22.0029 20.5146 22.0126ZM3.51431 10.1131V20.5126L20.5146 20.6131C20.5277 20.6133 20.5408 20.6109 20.553 20.606C20.5652 20.601 20.5762 20.5937 20.5855 20.5844C20.5949 20.5751 20.6022 20.564 20.6071 20.5518C20.6121 20.5396 20.6145 20.5265 20.6143 20.5134V10.1131C20.6146 10.0999 20.6123 10.0868 20.6074 10.0745C20.6025 10.0622 20.5951 10.0511 20.5858 10.0417C20.5765 10.0323 20.5654 10.0249 20.5532 10.0199C20.5409 10.0149 20.5278 10.0124 20.5146 10.0126L12.0148 3.61289L3.51431 10.1131Z" fill="#2D373D"/>
</svg>
