<svg width="24" height="24" viewBox="0 0 24 24" fill="none" xmlns="http://www.w3.org/2000/svg">
<path d="M20.7002 10.2C20.1002 9.37496 19.4252 8.62496 18.8252 7.79996L19.1252 7.49996C19.8752 6.74996 19.8752 5.54996 19.1252 4.79996C18.7502 4.49996 18.3002 4.27496 17.7752 4.27496C17.2502 4.27496 16.8002 4.42496 16.4252 4.79996L16.1252 5.09996C15.3752 4.42496 14.6252 3.74996 13.8002 3.22496C12.9752 2.69996 12.0002 2.77496 11.3252 3.44996L8.6252 6.14996C7.9502 6.82496 7.8752 7.87496 8.4002 8.62496C9.0002 9.44996 9.6002 10.2 10.2752 10.95L3.4502 17.775C2.7002 18.525 2.7002 19.725 3.4502 20.475C3.8252 20.775 4.2752 21 4.8002 21C5.3252 21 5.7752 20.85 6.0752 20.4L12.9002 13.575C13.6502 14.25 14.4752 14.925 15.3002 15.525C15.6752 15.75 16.0502 15.9 16.4252 15.9C16.9502 15.9 17.4002 15.75 17.7752 15.375L20.4752 12.675C21.1502 12 21.2252 10.95 20.7002 10.2ZM17.4752 5.92496C17.5502 5.84996 17.7002 5.77496 17.7752 5.77496C17.9252 5.77496 18.0002 5.84996 18.0752 5.92496C18.2252 6.07496 18.2252 6.29996 18.0752 6.44996L17.7752 6.74996C17.6252 6.52496 17.4002 6.37496 17.2502 6.14996L17.4752 5.92496ZM5.0252 19.35C4.8752 19.5 4.6502 19.5 4.5002 19.35C4.3502 19.2 4.3502 18.975 4.5002 18.825L11.2502 12.075C11.4002 12.225 11.6252 12.45 11.7752 12.6L5.0252 19.35ZM19.4252 11.55L16.7252 14.25C16.5752 14.4 16.3502 14.475 16.2002 14.325C13.6502 12.45 11.4002 10.275 9.6002 7.72496C9.5252 7.57496 9.52519 7.34996 9.67519 7.27496L12.3752 4.57496C12.4502 4.49996 12.6002 4.42496 12.6752 4.42496C12.7502 4.42496 12.8252 4.42496 12.9002 4.42496C13.8002 5.09996 14.6252 5.77496 15.4502 6.52496C15.4502 6.59996 15.5252 6.67496 15.6002 6.74996C15.6752 6.82496 15.7502 6.89996 15.9002 6.89996C16.3502 7.34996 16.8002 7.72496 17.1752 8.17496C17.1752 8.17496 17.1752 8.24996 17.2502 8.24996C17.2502 8.24996 17.3252 8.24996 17.3252 8.32496C18.0752 9.14996 18.8252 10.05 19.5002 10.95C19.5752 11.175 19.5752 11.4 19.4252 11.55Z" fill="#2D373D"/>
</svg>
