<svg width="16" height="17" viewBox="0 0 16 17" fill="none" xmlns="http://www.w3.org/2000/svg">
<path d="M14.5651 7.83793C14.4651 7.96459 14.3184 8.03793 14.1651 8.03793C14.0584 8.03793 13.9584 8.00459 13.8651 7.93793L8.0784 3.63126C8.0784 3.63126 7.96506 3.55793 7.8784 3.61793C6.84506 4.31126 3.56506 6.61793 2.17173 7.90459C1.96506 8.09126 1.65173 8.07793 1.46506 7.87793C1.2784 7.67126 1.29173 7.35793 1.49173 7.17126C2.90506 5.86459 6.08506 3.61793 7.32506 2.78459C7.7384 2.51126 8.27173 2.52459 8.67173 2.83126L14.4651 7.13793C14.6851 7.29793 14.7317 7.61126 14.5651 7.83793Z" fill="#2D373D"/>
<path d="M12.665 7.87109C12.3917 7.87109 12.165 8.09776 12.165 8.37109V10.3844C11.4117 10.2711 11.0317 9.91776 11.0184 9.90443C10.8317 9.71776 10.5317 9.71109 10.3317 9.88443C10.0784 10.1111 9.58504 10.4244 9.33171 10.4244C9.06504 10.4244 8.57837 10.1044 8.33171 9.88443C8.13837 9.71776 7.85837 9.71776 7.66504 9.88443C7.41171 10.1111 6.91837 10.4244 6.66504 10.4244C6.39837 10.4244 5.91171 10.1044 5.66504 9.88443C5.46504 9.71109 5.17171 9.71776 4.98504 9.89776C4.96504 9.91776 4.58504 10.2711 3.83171 10.3844V8.37109C3.83171 8.09776 3.60504 7.87109 3.33171 7.87109C3.05837 7.87109 2.83171 8.09776 2.83171 8.37109V14.3311C2.83171 15.0244 3.39837 15.5911 4.09837 15.5911H11.8984C12.5984 15.5911 13.165 15.0244 13.165 14.3311V8.37109C13.165 8.09776 12.9384 7.87109 12.665 7.87109ZM12.165 14.3311C12.165 14.4711 12.045 14.5911 11.8984 14.5911H4.09837C3.95171 14.5911 3.83171 14.4711 3.83171 14.3311V13.7244C4.51837 13.6444 5.01171 13.4111 5.31837 13.2178C5.65171 13.4578 6.17171 13.7578 6.66504 13.7578C7.15837 13.7578 7.66504 13.4644 7.99837 13.2244C8.33171 13.4644 8.83837 13.7578 9.33171 13.7578C9.82504 13.7578 10.345 13.4578 10.6717 13.2178C10.9784 13.4111 11.4784 13.6444 12.165 13.7244V14.3311ZM11.0184 12.2378C10.8317 12.0511 10.5317 12.0444 10.3317 12.2178C10.0784 12.4444 9.58504 12.7578 9.33171 12.7578C9.06504 12.7578 8.57837 12.4378 8.33171 12.2178C8.13837 12.0511 7.85837 12.0511 7.66504 12.2178C7.41171 12.4444 6.91837 12.7578 6.66504 12.7578C6.39837 12.7578 5.91171 12.4378 5.66504 12.2178C5.46504 12.0444 5.17171 12.0511 4.98504 12.2311C4.96504 12.2511 4.58504 12.6044 3.83171 12.7178V11.3911C4.51837 11.3111 5.01171 11.0778 5.31837 10.8844C5.65171 11.1244 6.17171 11.4244 6.66504 11.4244C7.15837 11.4244 7.66504 11.1311 7.99837 10.8911C8.33171 11.1311 8.83837 11.4244 9.33171 11.4244C9.82504 11.4244 10.345 11.1244 10.6717 10.8844C10.9784 11.0778 11.4784 11.3111 12.165 11.3911V12.7178C11.4117 12.6044 11.0317 12.2511 11.0184 12.2378Z" fill="#2D373D"/>
<path d="M13.6584 2.75781V4.67115C13.6584 4.94448 13.4384 5.17115 13.1584 5.17115C12.8784 5.17115 12.6584 4.94448 12.6584 4.67115V3.25781H11.245C10.9717 3.25781 10.745 3.03115 10.745 2.75781C10.745 2.48448 10.9717 2.25781 11.245 2.25781H13.1584C13.4384 2.25781 13.6584 2.48448 13.6584 2.75781Z" fill="#2D373D"/>
</svg>
