<svg width="24" height="25" viewBox="0 0 24 25" fill="none" xmlns="http://www.w3.org/2000/svg">
<path d="M3.75 12.6634C3.91917 12.6625 4.08305 12.6043 4.215 12.4984L9.0825 8.63594C9.14092 8.59212 9.21198 8.56844 9.285 8.56844C9.35803 8.56844 9.42908 8.59212 9.4875 8.63594L11.9025 10.3534C12.2578 10.6111 12.6936 10.7332 13.1311 10.6974C13.5686 10.6616 13.9788 10.4704 14.2875 10.1584L18.3975 6.04844V8.64344C18.3975 8.84235 18.4765 9.03312 18.6172 9.17377C18.7578 9.31442 18.9486 9.39344 19.1475 9.39344C19.3464 9.39344 19.5372 9.31442 19.6778 9.17377C19.8185 9.03312 19.8975 8.84235 19.8975 8.64344V4.21094C19.8987 4.11343 19.8809 4.01662 19.845 3.92594C19.7689 3.74268 19.6233 3.59704 19.44 3.52094C19.347 3.48315 19.2479 3.46281 19.1475 3.46094H14.7525C14.5536 3.46094 14.3628 3.53996 14.2222 3.68061C14.0815 3.82126 14.0025 4.01203 14.0025 4.21094C14.0025 4.40985 14.0815 4.60062 14.2222 4.74127C14.3628 4.88192 14.5536 4.96094 14.7525 4.96094H17.34L13.23 9.07094C13.1721 9.13046 13.0951 9.16764 13.0125 9.17594C12.9299 9.17767 12.8488 9.15412 12.78 9.10844L10.35 7.37594C10.0139 7.15 9.61462 7.03704 9.21 7.05344C8.81435 7.07434 8.43582 7.22155 8.13 7.47344L3.285 11.3209C3.2074 11.3823 3.1427 11.4584 3.09463 11.5448C3.04657 11.6313 3.01608 11.7264 3.00492 11.8247C2.99377 11.923 3.00217 12.0225 3.02964 12.1176C3.05712 12.2126 3.10312 12.3013 3.165 12.3784C3.23484 12.4668 3.3237 12.5383 3.42498 12.5877C3.52626 12.637 3.63735 12.6629 3.75 12.6634Z" fill="#2D373D"/>
<path d="M21 14.2909V12.4609C21 12.1168 20.8633 11.7868 20.62 11.5435C20.3766 11.3001 20.0466 11.1634 19.7025 11.1634H14.1975C13.8534 11.1634 13.5234 11.3001 13.28 11.5435C13.0367 11.7868 12.9 12.1168 12.9 12.4609V14.1109C12.5939 14.159 12.3149 14.3144 12.1129 14.5494C11.9109 14.7844 11.7991 15.0836 11.7975 15.3934V17.2309C11.7939 17.2909 11.7939 17.351 11.7975 17.4109C11.5962 17.2085 11.3314 17.0814 11.0475 17.0509V15.3934C11.0455 15.0499 10.9082 14.721 10.6653 14.4781C10.4224 14.2352 10.0935 14.0979 9.75 14.0959H4.2975C3.95399 14.0979 3.62511 14.2352 3.3822 14.4781C3.1393 14.721 3.00197 15.0499 3 15.3934V17.2309C3.00185 17.5399 3.11391 17.8381 3.31602 18.0718C3.51813 18.3056 3.79701 18.4595 4.1025 18.5059V20.1634C4.1025 20.5076 4.2392 20.8376 4.48253 21.0809C4.72586 21.3242 5.05588 21.4609 5.4 21.4609H10.8975C11.2423 21.4609 11.5731 21.3245 11.8176 21.0814C12.0622 20.8383 12.2005 20.5082 12.2025 20.1634V18.3259C12.2061 18.266 12.2061 18.2059 12.2025 18.1459C12.4081 18.3423 12.6707 18.4684 12.9525 18.5059V20.1634C12.9541 20.4981 13.0841 20.8194 13.3159 21.0608C13.5476 21.3023 13.8632 21.4456 14.1975 21.4609H19.7025C20.046 21.459 20.3749 21.3216 20.6178 21.0787C20.8607 20.8358 20.998 20.5069 21 20.1634V18.3259C20.9982 18.0169 20.8861 17.7188 20.684 17.485C20.4819 17.2513 20.203 17.0974 19.8975 17.0509V15.5509C20.2005 15.5049 20.4774 15.3532 20.6792 15.1226C20.881 14.8919 20.9946 14.5973 21 14.2909ZM13.2975 17.0284V15.5959H18.3975V17.0284H13.2975ZM14.4 12.6634H19.5V14.0959H14.4V12.6634ZM4.5 15.5959H9.6V17.0284H4.5V15.5959ZM10.7025 19.9609H5.6025V18.5284H10.7025V19.9609ZM19.5 19.9609H14.4V18.5284H19.5V19.9609Z" fill="#2D373D"/>
</svg>
