<svg width="16" height="17" viewBox="0 0 16 17" fill="none" xmlns="http://www.w3.org/2000/svg">
<path d="M12.85 4.81211H11.55V3.51211C11.55 2.91211 11.05 2.41211 10.45 2.41211H8.64999C8.04999 2.41211 7.54999 2.91211 7.54999 3.51211V4.81211H6.24999C5.64999 4.81211 5.14999 5.31211 5.14999 5.91211V7.41211C5.14999 7.71211 5.34999 7.91211 5.64999 7.91211C5.94999 7.91211 6.14999 7.71211 6.14999 7.41211V5.91211C6.14999 5.86211 6.19999 5.81211 6.24999 5.81211H8.04999C8.34999 5.81211 8.54999 5.61211 8.54999 5.31211V3.51211C8.54999 3.46211 8.59999 3.41211 8.64999 3.41211H10.45C10.5 3.41211 10.55 3.46211 10.55 3.51211V5.31211C10.55 5.61211 10.75 5.81211 11.05 5.81211H12.85C12.9 5.81211 12.95 5.86211 12.95 5.91211V7.76211C12.95 7.81211 12.9 7.86211 12.85 7.86211H11.05C10.75 7.86211 10.55 8.06211 10.55 8.36211V10.1621C10.55 10.2121 10.5 10.2621 10.45 10.2621H8.99999C8.69999 10.2621 8.49999 10.4621 8.49999 10.7621C8.49999 11.0621 8.69999 11.2621 8.99999 11.2621H10.45C11.1 11.2621 11.6 10.7621 11.6 10.1121V8.81211H12.9C13.5 8.81211 14 8.31211 14 7.71211V5.91211C14 5.31211 13.5 4.81211 12.85 4.81211Z" fill="#2D373D"/>
<path d="M4.95001 9.91206C5.15001 9.91206 5.35001 9.81206 5.50001 9.71206C5.60001 9.56206 5.70001 9.36206 5.70001 9.16206C5.70001 9.16206 5.70001 9.16206 5.70001 9.11206C5.70001 8.71206 5.35001 8.36206 4.95001 8.36206C4.55001 8.36206 4.20001 8.71206 4.20001 9.11206C4.20001 9.11206 4.20001 9.11206 4.20001 9.16206C4.20001 9.56206 4.55001 9.91206 4.95001 9.91206Z" fill="#2D373D"/>
<path d="M7.14999 9.41211C6.74999 9.41211 6.39999 9.76211 6.39999 10.1621C6.39999 10.5621 6.74999 10.9121 7.14999 10.9121C7.34999 10.9121 7.54999 10.8621 7.69999 10.7121C7.79999 10.5621 7.89999 10.3621 7.89999 10.1621C7.89999 9.76211 7.54999 9.41211 7.14999 9.41211Z" fill="#2D373D"/>
<path d="M3.3 10.7121C3.4 10.5621 3.5 10.3621 3.5 10.1621C3.5 9.76211 3.2 9.41211 2.75 9.41211C2.35 9.41211 2 9.76211 2 10.1621C2 10.5621 2.35 10.9121 2.75 10.9121C2.95 10.9121 3.15 10.8621 3.3 10.7121Z" fill="#2D373D"/>
<path d="M5.89999 10.9121C5.64999 10.6621 5.29999 10.5121 4.94999 10.5121C4.59999 10.5121 4.24999 10.6621 3.99999 10.9121L2.69999 12.1621C2.44999 12.4121 2.29999 12.7621 2.29999 13.1121C2.29999 13.8621 2.89999 14.4621 3.64999 14.4621H6.24999C6.59999 14.4621 6.94999 14.3621 7.19999 14.1121C7.44999 13.8621 7.59999 13.5121 7.59999 13.1621C7.59999 12.8121 7.44999 12.4621 7.19999 12.2121L5.89999 10.9121ZM6.49999 13.4121C6.39999 13.4621 6.34999 13.5121 6.24999 13.5121H3.64999C3.44999 13.5121 3.29999 13.3621 3.29999 13.1621C3.29999 13.0621 3.34999 12.9621 3.39999 12.9121L4.69999 11.6121C4.79999 11.5621 4.84999 11.5121 4.94999 11.5121C5.04999 11.5121 5.14999 11.5621 5.19999 11.6121L6.49999 12.9121C6.54999 13.0121 6.59999 13.0621 6.59999 13.1621C6.59999 13.2621 6.54999 13.3621 6.49999 13.4121Z" fill="#2D373D"/>
</svg>
