<svg width="32" height="33" viewBox="0 0 32 33" fill="none" xmlns="http://www.w3.org/2000/svg">
<path fill-rule="evenodd" clip-rule="evenodd" d="M11.587 4.92188C10.2543 4.92188 8.9762 5.45276 8.03385 6.39775C7.39308 7.04031 6.94323 7.83856 6.72094 8.70383H6.46201C5.91065 8.70383 5.46368 9.15205 5.46368 9.70495C5.46368 10.2578 5.91065 10.7061 6.46201 10.7061H6.61734C6.7755 11.7667 7.26847 12.7564 8.03385 13.5239C8.6887 14.1806 9.50567 14.6373 10.3904 14.8548C9.32105 15.031 8.29979 15.4408 7.39586 16.0576C6.34894 16.7719 5.49277 17.741 4.90133 18.876C4.30995 20.0108 4.00085 21.2775 4 22.563C3.99964 23.1159 4.4463 23.5644 4.99766 23.5648C5.54902 23.5652 5.99628 23.1173 5.99664 22.5644C5.99728 21.5991 6.22951 20.6504 6.67091 19.8033C7.11225 18.9564 7.74812 18.239 8.51908 17.7129C9.28986 17.187 10.1724 16.8681 11.0877 16.7824C12.0029 16.6966 12.9251 16.8463 13.7727 17.2194C14.2776 17.4417 14.8665 17.2114 15.0881 16.7052C15.3097 16.1989 15.0801 15.6083 14.5753 15.3861C14.0003 15.133 13.3993 14.9549 12.7861 14.8542C13.6699 14.6364 14.4859 14.1799 15.1401 13.5239C15.9055 12.7564 16.3985 11.7667 16.5566 10.7061H16.7114C17.2628 10.7061 17.7098 10.2578 17.7098 9.70495C17.7098 9.15205 17.2628 8.70383 16.7114 8.70383H16.453C16.2307 7.83856 15.7809 7.04031 15.1401 6.39775C14.1978 5.45276 12.9197 4.92188 11.587 4.92188ZM14.3436 8.70383C14.1948 8.37557 13.9874 8.07343 13.7283 7.81353C13.6141 7.69902 13.4917 7.5946 13.3625 7.50084L13.3793 8.70383H14.3436ZM12.0237 6.95583C11.8799 6.93482 11.734 6.9241 11.587 6.9241C11.4414 6.9241 11.297 6.93461 11.1546 6.9552L11.1546 8.70383H12.0481L12.0237 6.95583ZM9.82354 7.4921C9.6899 7.5881 9.56344 7.69545 9.44569 7.81353C9.18652 8.07343 8.97918 8.37557 8.83034 8.70383H9.82354L9.82354 7.4921ZM8.65134 10.7061C8.78419 11.2322 9.0565 11.7178 9.44569 12.1081C10.0136 12.6776 10.7838 12.9975 11.587 12.9975C12.3901 12.9975 13.1604 12.6776 13.7283 12.1081C14.1175 11.7178 14.3898 11.2322 14.5226 10.7061H8.65134Z" fill="#2D373D"/>
<path fill-rule="evenodd" clip-rule="evenodd" d="M18.3496 16.2411C16.6955 16.2411 15.3546 17.5857 15.3546 19.2444V25.9185C15.3546 27.5772 16.6955 28.9219 18.3496 28.9219H25.005C26.6591 28.9219 28 27.5772 28 25.9185V19.2444C28 17.5857 26.6591 16.2411 25.005 16.2411H18.3496ZM17.3512 19.2444C17.3512 18.6915 17.7982 18.2433 18.3496 18.2433H20.679V21.5804H17.3512V19.2444ZM22.6756 21.5804V18.2433H25.005C25.5564 18.2433 26.0034 18.6915 26.0034 19.2444V21.5804H22.6756ZM22.6756 23.5826H26.0034V25.9185C26.0034 26.4714 25.5564 26.9196 25.005 26.9196H22.6756V23.5826ZM20.679 23.5826V26.9196H18.3496C17.7982 26.9196 17.3512 26.4714 17.3512 25.9185V23.5826H20.679Z" fill="#2D373D"/>
</svg>
