<svg width="24" height="24" viewBox="0 0 24 24" fill="none" xmlns="http://www.w3.org/2000/svg">
<path d="M18.9749 14.3999L18.6749 12.8999C19.2749 12.8999 19.9499 13.1249 20.4749 13.4999C20.5499 13.4999 20.6249 13.5749 20.6999 13.6499L20.9249 13.8749C21.2249 14.1749 21.6749 14.1749 21.9749 13.8749C22.2749 13.5749 22.2749 13.1249 21.9749 12.8249L21.7499 12.5999C21.6749 12.4499 21.5249 12.3749 21.4499 12.2999C20.5499 11.5499 19.4999 11.2499 18.3749 11.3249L17.6999 8.0999C17.6999 8.0249 17.7749 7.9499 17.7749 7.8749C17.7749 7.7249 17.6999 7.6499 17.6249 7.4999L17.0249 4.7249C16.7999 3.8249 15.9749 3.1499 15.0749 3.1499H13.5749C13.1249 3.1499 12.8249 3.4499 12.8249 3.8999C12.8249 4.3499 13.1249 4.6499 13.5749 4.6499H15.0749C15.2999 4.6499 15.5249 4.7999 15.5999 5.0249L16.0499 7.2749L8.0999 7.7999C8.0249 7.7999 7.9499 7.7999 7.8749 7.7999L4.0499 8.0999C2.9249 8.0999 2.0249 9.0749 2.0249 10.1249C2.0249 11.1749 2.9249 12.0749 4.0499 12.0749H5.3999C6.6749 12.0749 7.7999 12.6749 8.6249 13.5749L8.8499 13.8749L7.2749 15.0749C6.7499 14.6249 5.9999 14.3249 5.2499 14.3249C3.4499 14.3249 2.0249 15.7499 2.0249 17.5499C2.0249 19.3499 3.4499 20.7749 5.2499 20.7749C7.0499 20.7749 8.4749 19.3499 8.4749 17.5499C8.4749 17.0999 8.3999 16.6499 8.1749 16.2749L9.7499 14.9999L10.4249 15.7499C10.7999 16.1999 11.3249 16.4249 11.9249 16.4249H13.2749C13.8749 16.4249 14.3999 16.1999 14.8499 15.8999L16.4999 13.8749C16.7249 13.6499 16.9499 13.4249 17.1749 13.2749L17.4749 14.6249C16.3499 15.1499 15.5999 16.1999 15.5999 17.5499C15.5999 19.3499 17.0249 20.7749 18.8249 20.7749C20.6249 20.7749 22.0499 19.3499 22.0499 17.5499C22.0499 15.8249 20.6999 14.4749 18.9749 14.3999ZM6.8999 17.6249C6.8999 18.5999 6.1499 19.3499 5.1749 19.3499C4.1999 19.3499 3.4499 18.5999 3.4499 17.6249C3.4499 16.6499 4.1999 15.8999 5.1749 15.8999C5.4749 15.8999 5.6999 15.9749 5.9249 16.0499L4.7249 17.0249C4.4249 17.2499 4.3499 17.7749 4.5749 18.0749C4.7249 18.2999 4.9499 18.3749 5.1749 18.3749C5.3249 18.3749 5.4749 18.2999 5.6249 18.2249L6.8999 17.2499C6.8999 17.3249 6.8999 17.4749 6.8999 17.6249ZM13.1999 8.9999V10.0499C13.1999 10.3499 12.9749 10.5749 12.6749 10.5749H11.3249C11.1749 10.5749 11.0249 10.4999 10.9499 10.4249L9.6749 9.2249L13.1999 8.9999ZM15.3749 12.8999L13.7249 14.9249C13.6499 14.9999 13.4999 15.0749 13.3499 15.0749H11.9999C11.8499 15.0749 11.6999 14.9999 11.6249 14.9249L10.5749 13.6499C10.5749 13.6499 10.5749 13.5749 10.4999 13.5749C10.4999 13.4999 10.4249 13.4999 10.3499 13.4249L9.7499 12.7499C8.6249 11.4749 7.0499 10.7249 5.3999 10.7249H3.9749C3.6749 10.7249 3.4499 10.4999 3.4499 10.1999C3.4499 9.8999 3.6749 9.6749 3.9749 9.6749L7.7249 9.4499L9.8249 11.5499C10.1999 11.9249 10.7249 12.1499 11.2499 12.1499H12.5999C13.7249 12.1499 14.6249 11.2499 14.6999 10.1999V8.9249L16.2749 8.8499L16.8749 11.7749C16.2749 11.9999 15.8249 12.3749 15.3749 12.8999ZM18.8249 19.3499C17.8499 19.3499 17.0999 18.5999 17.0999 17.6249C17.0999 17.0249 17.3249 16.5749 17.7749 16.2749L18.0749 17.7749C18.1499 18.1499 18.4499 18.3749 18.8249 18.3749C18.8999 18.3749 18.8999 18.3749 18.9749 18.3749C19.4249 18.2999 19.6499 17.8499 19.5749 17.4749L19.2749 15.9749C20.0249 16.1249 20.5499 16.7999 20.5499 17.6249C20.5499 18.5999 19.7999 19.3499 18.8249 19.3499Z" fill="#2D373D"/>
<path d="M20.3999 10.2749H20.9999C21.3749 10.2749 21.7499 9.97492 21.7499 9.52492V6.44992C21.7499 5.99992 21.4499 5.69992 20.9999 5.69992H20.3999C19.1999 5.69992 18.1499 6.74992 18.1499 7.94992C18.1499 9.22492 19.1249 10.2749 20.3999 10.2749ZM20.2499 7.19992V8.77492C19.9499 8.69992 19.6499 8.32492 19.6499 7.94992C19.6499 7.57492 19.8749 7.27492 20.2499 7.19992Z" fill="#2D373D"/>
</svg>
