<svg width="64" height="65" viewBox="0 0 64 65" fill="none" xmlns="http://www.w3.org/2000/svg">
<path d="M25.2634 58.2149C31.0531 59.7219 37.1816 59.2362 42.6617 56.836C44.6451 55.9673 46.5019 54.8661 48.1974 53.5643C49.0735 52.8916 49.2384 51.636 48.5658 50.7599C47.8931 49.8838 46.6375 49.7189 45.7614 50.3916C44.3205 51.4979 42.7426 52.4338 41.0569 53.1721C36.3997 55.2118 31.1914 55.6246 26.271 54.3439C21.3506 53.0631 17.0046 50.1635 13.9328 46.1119C10.8611 42.0603 9.24261 37.0928 9.33797 32.0093C9.43333 26.9259 11.237 22.0225 14.4585 18.089C17.68 14.1555 22.1318 11.4208 27.0968 10.3255C32.0617 9.23026 37.2508 9.83808 41.8283 12.0511C43.227 12.7273 44.5437 13.5414 45.7614 14.4763C46.6375 15.149 47.8931 14.9841 48.5658 14.108C49.2384 13.2319 49.0735 11.9763 48.1974 11.3036C46.7645 10.2035 45.2151 9.24556 43.5694 8.44989C38.1832 5.84587 32.0772 5.13066 26.2351 6.41947C20.3929 7.70827 15.1546 10.9261 11.3639 15.5545C7.57325 20.183 5.45088 25.9527 5.33867 31.9343C5.22646 37.9159 7.13095 43.7611 10.7454 48.5285C14.3598 53.2959 19.4737 56.7079 25.2634 58.2149Z" fill="#2D373D"/>
<path d="M46.4786 22.2187C47.2597 21.4376 48.526 21.4376 49.307 22.2187L58.0702 30.9818C58.4544 31.3463 58.6939 31.8617 58.6939 32.433C58.6939 33.0068 58.4523 33.5241 58.0653 33.8888L49.307 42.6471C48.526 43.4281 47.2597 43.4281 46.4786 42.6471C45.6976 41.866 45.6976 40.5997 46.4786 39.8186L51.8642 34.433H19.734C18.6294 34.433 17.734 33.5376 17.734 32.433C17.734 31.3284 18.6294 30.433 19.734 30.433H51.8645L46.4786 25.0471C45.6976 24.266 45.6976 22.9997 46.4786 22.2187Z" fill="#2D373D"/>
</svg>
