<svg width="16" height="17" viewBox="0 0 16 17" fill="none" xmlns="http://www.w3.org/2000/svg">
<path d="M10.5249 10.6814C10.4098 10.5632 10.2711 10.4703 10.1177 10.4088C9.80986 10.2824 9.46432 10.2824 9.15645 10.4088C9.00306 10.4703 8.86433 10.5632 8.74924 10.6814C8.69892 10.7267 8.6335 10.7518 8.56566 10.7518C8.49782 10.7518 8.4324 10.7267 8.38208 10.6814L6.24591 8.54704C6.1994 8.49875 6.17343 8.43443 6.17343 8.36751C6.17343 8.3006 6.1994 8.23627 6.24591 8.18799C6.36026 8.06978 6.4529 7.9325 6.5196 7.78239C6.58012 7.62991 6.61181 7.4676 6.61306 7.30365C6.61172 7.13755 6.58005 6.97308 6.5196 6.81826C6.4529 6.66816 6.36026 6.53088 6.24591 6.41267L4.91079 5.08284C4.6713 4.85599 4.35344 4.72949 4.02295 4.72949C3.69245 4.72949 3.37459 4.85599 3.1351 5.08284L2.82135 5.402C2.37189 5.84471 2.08881 6.42782 2.01954 7.05364C1.95027 7.67946 2.09901 8.30999 2.44084 8.8396C3.05412 9.80057 3.77038 10.6924 4.57702 11.4993L5.43816 12.357C6.24979 13.1607 7.14489 13.8762 8.10839 14.4914C8.55479 14.7693 9.0706 14.9167 9.59703 14.9169C9.69706 14.9235 9.79741 14.9235 9.89744 14.9169C10.5252 14.8472 11.1109 14.5684 11.5596 14.1257L11.8734 13.8065C11.9901 13.6904 12.0826 13.5526 12.1458 13.4008C12.2089 13.2491 12.2414 13.0864 12.2414 12.9222C12.2414 12.7579 12.2089 12.5953 12.1458 12.4435C12.0826 12.2918 11.9901 12.1539 11.8734 12.0378L10.5249 10.6814ZM11.1524 13.0751L10.8387 13.3943C10.5507 13.6749 10.1774 13.8526 9.77728 13.8996C9.38573 13.9327 8.99411 13.8369 8.66246 13.627C7.76038 13.0566 6.92519 12.3876 6.17248 11.6322L5.27795 10.7811C4.52206 10.0268 3.85058 9.193 3.27528 8.29437C3.05993 7.95642 2.968 7.55491 3.01494 7.15737C3.05629 6.75908 3.23569 6.3876 3.52228 6.10681L3.83603 5.78765C3.87754 5.74683 3.93161 5.72107 3.98957 5.71451C4.02302 5.71391 4.05624 5.72008 4.08723 5.73265C4.11821 5.74522 4.1463 5.76394 4.16981 5.78765L5.50492 7.11748C5.52794 7.14021 5.54611 7.16735 5.55832 7.19727C5.56464 7.23021 5.56464 7.26405 5.55832 7.297C5.56522 7.32765 5.56522 7.35944 5.55832 7.39009C5.54449 7.42116 5.52653 7.45023 5.50492 7.47653C5.38825 7.59262 5.2957 7.73048 5.23256 7.88222C5.16941 8.03396 5.13691 8.1966 5.13691 8.36086C5.13691 8.52512 5.16941 8.68777 5.23256 8.83951C5.2957 8.99125 5.38825 9.12911 5.50492 9.2452L7.6411 11.3796C7.8856 11.5964 8.20157 11.7162 8.52895 11.7162C8.85633 11.7162 9.17229 11.5964 9.4168 11.3796C9.44119 11.3538 9.47076 11.3334 9.50358 11.3197C9.56827 11.2964 9.63915 11.2964 9.70384 11.3197C9.73359 11.3353 9.76064 11.3555 9.78395 11.3796L11.1191 12.7094C11.1656 12.7577 11.1915 12.822 11.1915 12.8889C11.1915 12.9558 11.1656 13.0202 11.1191 13.0684L11.1524 13.0751Z" fill="#2D373D"/>
<path d="M13.7359 4.69719C13.6544 4.61616 13.5575 4.55209 13.451 4.50871C13.3444 4.46533 13.2302 4.44351 13.1151 4.44453H12.4475V3.77961C12.441 3.55645 12.35 3.344 12.1927 3.18491C12.0355 3.02582 11.8236 2.93185 11.5997 2.92188H10.0844C9.85234 2.92272 9.62974 3.01331 9.46352 3.17454C9.30183 3.3429 9.21105 3.56657 9.20985 3.79956V4.46447H8.5423C8.31001 4.4639 8.08689 4.5547 7.92147 4.71714C7.83921 4.79797 7.77385 4.89423 7.72916 5.00037C7.68448 5.10651 7.66135 5.22042 7.66112 5.33551V6.82491C7.66135 6.94001 7.68448 7.05391 7.72916 7.16005C7.77385 7.26619 7.83921 7.36245 7.92147 7.44328C8.08621 7.60755 8.3092 7.70069 8.5423 7.7026H9.20985V8.36751C9.20884 8.48219 9.23074 8.59593 9.27429 8.70209C9.31785 8.80825 9.38217 8.90472 9.46352 8.98588C9.62974 9.14711 9.85234 9.2377 10.0844 9.23855H11.5997C11.832 9.23912 12.0551 9.14832 12.2205 8.98588C12.3028 8.90505 12.3681 8.80879 12.4128 8.70265C12.4575 8.59651 12.4806 8.4826 12.4809 8.36751V7.7026H13.1484C13.378 7.69737 13.5964 7.60238 13.7562 7.43816C13.9161 7.27394 14.0047 7.05366 14.0029 6.82491V5.31556C14.0022 5.19994 13.9782 5.08564 13.9323 4.97942C13.8864 4.87321 13.8196 4.77724 13.7359 4.69719ZM12.9882 6.69193H12.0002C11.9342 6.69104 11.8687 6.70332 11.8076 6.72807C11.7464 6.75281 11.6909 6.78951 11.6442 6.836C11.5975 6.88249 11.5607 6.93782 11.5359 6.99872C11.511 7.05963 11.4987 7.12488 11.4996 7.19062V8.24118H10.2312V7.20391C10.2312 7.07165 10.1785 6.94481 10.0846 6.85129C9.99068 6.75777 9.86333 6.70523 9.73055 6.70523H8.69584V5.4419H9.71052C9.7783 5.44106 9.84523 5.4267 9.90734 5.39967C9.96946 5.37265 10.0255 5.33349 10.0722 5.28453C10.1189 5.23556 10.1552 5.17778 10.1791 5.11458C10.2029 5.05139 10.2139 4.98408 10.2112 4.91661V3.93254H11.4795V4.91661C11.4795 5.04887 11.5323 5.17572 11.6262 5.26924C11.7201 5.36276 11.8474 5.4153 11.9802 5.4153H12.9882V6.69193Z" fill="#2D373D"/>
</svg>
