<svg width="24" height="25" viewBox="0 0 24 25" fill="none" xmlns="http://www.w3.org/2000/svg">
<path d="M18 14.6719H15.21C14.7353 14.6719 14.28 14.8605 13.9443 15.1962C13.6086 15.5318 13.42 15.9871 13.42 16.4619V18.5819C13.423 18.6207 13.4176 18.6598 13.404 18.6963C13.3905 18.7329 13.3693 18.766 13.3417 18.7936C13.3142 18.8211 13.281 18.8424 13.2444 18.8559C13.2079 18.8694 13.1688 18.8749 13.13 18.8719H7.86L8 18.7819C8.07076 18.7129 8.12699 18.6305 8.16539 18.5395C8.20379 18.4485 8.22357 18.3507 8.22357 18.2519C8.22357 18.1531 8.20379 18.0553 8.16539 17.9643C8.12699 17.8732 8.07076 17.7908 8 17.7219C7.85937 17.5814 7.66875 17.5025 7.47 17.5025C7.27125 17.5025 7.08063 17.5814 6.94 17.7219L5.47 19.1419C5.39613 19.2162 5.33913 19.3056 5.3029 19.404C5.26666 19.5024 5.25203 19.6074 5.26 19.7119C5.25268 19.8163 5.26762 19.9212 5.30382 20.0194C5.34002 20.1177 5.39666 20.2071 5.47 20.2819L6.89 21.7019C6.95924 21.772 7.04179 21.8276 7.13281 21.8653C7.22382 21.9031 7.32146 21.9223 7.42 21.9219C7.5269 21.93 7.63429 21.9146 7.73453 21.8765C7.83477 21.8385 7.92541 21.7789 8 21.7019C8.07076 21.6329 8.12699 21.5505 8.16539 21.4595C8.20379 21.3685 8.22357 21.2707 8.22357 21.1719C8.22357 21.0731 8.20379 20.9753 8.16539 20.8843C8.12699 20.7932 8.07076 20.7108 8 20.6419L7.73 20.3719H13.18C13.6546 20.3688 14.1096 20.1825 14.45 19.8519C14.6164 19.6851 14.748 19.487 14.8373 19.269C14.9266 19.051 14.9717 18.8174 14.97 18.5819V16.4619C14.9688 16.4239 14.9763 16.3861 14.9919 16.3515C15.0075 16.3168 15.0308 16.2862 15.06 16.2619C15.0852 16.2337 15.116 16.2112 15.1505 16.1957C15.1849 16.1802 15.2222 16.172 15.26 16.1719H18C18.1989 16.1719 18.3897 16.0929 18.5303 15.9522C18.671 15.8116 18.75 15.6208 18.75 15.4219C18.75 15.223 18.671 15.0322 18.5303 14.8915C18.3897 14.7509 18.1989 14.6719 18 14.6719Z" fill="#2D373D"/>
<path d="M6.34 15.7625C6.50996 15.8501 6.6988 15.8947 6.89 15.8925C7.08427 15.8936 7.27609 15.8491 7.45 15.7625C7.62161 15.6767 7.77193 15.5537 7.89 15.4024C9.2 13.7324 10.76 11.4025 10.76 9.99245C10.7586 8.966 10.3526 7.98149 9.63 7.25245C8.88816 6.55495 7.90825 6.16662 6.89 6.16662C5.87175 6.16662 4.89184 6.55495 4.15 7.25245C3.78679 7.61054 3.49816 8.03705 3.30077 8.50735C3.10338 8.97765 3.00115 9.48241 3 9.99245C3 11.4325 4.56 13.7324 5.87 15.4024C5.9953 15.5586 6.15656 15.6822 6.34 15.7625ZM5.21 8.31245C5.54148 7.97931 5.96452 7.75225 6.42535 7.66011C6.88618 7.56797 7.36401 7.61492 7.7981 7.79498C8.23219 7.97505 8.60294 8.28011 8.86325 8.67138C9.12355 9.06266 9.26165 9.5225 9.26 9.99245C9.26 10.7025 8.34 12.3624 6.89 14.2424C5.44 12.3624 4.52 10.7125 4.52 9.99245C4.52105 9.36369 4.76881 8.76044 5.21 8.31245Z" fill="#2D373D"/>
<path d="M6.9 10.5325C7.31421 10.5325 7.65 10.1967 7.65 9.78245C7.65 9.36824 7.31421 9.03245 6.9 9.03245C6.48579 9.03245 6.15 9.36824 6.15 9.78245C6.15 10.1967 6.48579 10.5325 6.9 10.5325Z" fill="#2D373D"/>
<path d="M17.18 12.8724C17.332 12.9602 17.5045 13.0064 17.68 13.0064C17.8555 13.0064 18.028 12.9602 18.18 12.8724C18.3252 12.7891 18.4485 12.6726 18.54 12.5324C19.65 10.8124 21 8.49245 21 7.24245C20.9982 6.80092 20.909 6.36412 20.7373 5.95732C20.5657 5.55052 20.3151 5.18178 20 4.87245C19.3606 4.26468 18.5122 3.92578 17.63 3.92578C16.7478 3.92578 15.8994 4.26468 15.26 4.87245C14.9449 5.18178 14.6943 5.55052 14.5227 5.95732C14.351 6.36412 14.2618 6.80092 14.26 7.24245C14.26 8.49245 15.62 10.8124 16.77 12.5324C16.8755 12.6788 17.0166 12.7959 17.18 12.8724ZM16.35 5.93245C16.6087 5.67297 16.9387 5.49618 17.2981 5.42449C17.6574 5.3528 18.03 5.38944 18.3685 5.52977C18.707 5.6701 18.9962 5.90779 19.1994 6.2127C19.4026 6.51762 19.5107 6.87602 19.51 7.24245C19.1365 8.62597 18.5092 9.92807 17.66 11.0824C16.8108 9.92807 16.1835 8.62597 15.81 7.24245C15.8095 6.99932 15.857 6.75848 15.9496 6.5337C16.0423 6.30892 16.1783 6.10461 16.35 5.93245Z" fill="#2D373D"/>
<path d="M17.69 8.07245C18.1042 8.07245 18.44 7.73666 18.44 7.32245C18.44 6.90824 18.1042 6.57245 17.69 6.57245C17.2758 6.57245 16.94 6.90824 16.94 7.32245C16.94 7.73666 17.2758 8.07245 17.69 8.07245Z" fill="#2D373D"/>
</svg>
