<svg width="24" height="25" viewBox="0 0 24 25" fill="none" xmlns="http://www.w3.org/2000/svg">
<path fill-rule="evenodd" clip-rule="evenodd" d="M11.2502 5.92188C10.8359 5.92189 10.5001 6.25768 10.5001 6.67189V12.9219C10.5001 13.3361 10.8359 13.6719 11.2501 13.6719H16.0001C16.4144 13.6719 16.7501 13.3361 16.7502 12.9219C16.7502 12.5077 16.4144 12.1719 16.0002 12.1719H12.0002V6.67186C12.0002 6.25765 11.6644 5.92187 11.2502 5.92188Z" fill="#2D373D"/>
<path d="M4.589 8.67364C6.94277 4.60874 12.1574 3.21442 16.2366 5.56262C20.3144 7.91009 21.7098 13.1069 19.3568 17.1705C17.003 21.2354 11.7884 22.6297 7.70926 20.2815C6.36351 19.5068 5.31038 18.4225 4.58863 17.1727C4.38149 16.814 3.92279 16.6911 3.56409 16.8982C3.20539 17.1054 3.08253 17.5641 3.28967 17.9228C4.14025 19.3957 5.38106 20.672 6.96091 21.5815C11.7549 24.3412 17.8857 22.7045 20.6549 17.9221C23.4248 13.1385 21.7802 7.02311 16.9849 4.26264C12.1912 1.50309 6.06095 3.13945 3.2915 7.92099C2.82938 8.71624 2.48193 9.56791 2.25595 10.4509L2.20691 10.3834C1.96344 10.0483 1.49441 9.97404 1.15931 10.2175C0.824204 10.461 0.74992 10.93 0.99339 11.2651L2.16864 12.8827C2.41207 13.2177 2.88099 13.2921 3.2161 13.0487L4.83695 11.8717C5.17211 11.6283 5.24651 11.1593 5.00313 10.8241C4.75974 10.489 4.29073 10.4146 3.95557 10.658L3.7047 10.8401C3.89644 10.0843 4.19296 9.35517 4.58842 8.67464L4.589 8.67364Z" fill="#2D373D"/>
</svg>
