<svg width="64" height="64" viewBox="0 0 64 64" fill="none" xmlns="http://www.w3.org/2000/svg">
<path fill-rule="evenodd" clip-rule="evenodd" d="M15.0502 12.3819C14.9114 12.5214 14.6665 12.8945 14.6665 13.8824V50.1176C14.6665 50.6716 14.9206 51.11 15.369 51.4701C15.5988 51.6547 15.8577 51.7968 16.0998 51.8893C16.2189 51.9349 16.3231 51.9643 16.4054 51.9815C16.4908 51.9993 16.5334 52 16.5332 52H47.4665C48.4451 52 48.8121 51.756 48.9494 51.6181C49.0883 51.4786 49.3332 51.1055 49.3332 50.1176V13.8824C49.3332 12.8945 49.0883 12.5214 48.9494 12.3819C48.8121 12.244 48.4451 12 47.4665 12H40.6741L36.4174 19.2124L39.8157 27.3467C40.1073 28.0448 39.9801 28.8478 39.4868 29.4215L28.3609 42.3627C27.7508 43.0722 26.7303 43.264 25.9044 42.8242C25.0784 42.3844 24.6678 41.4308 24.9159 40.5285L28.2453 28.4211L23.1689 20.1005C22.8815 19.6293 22.8015 19.0603 22.9479 18.5281L24.7446 12H16.5332C15.5546 12 15.1876 12.244 15.0502 12.3819ZM12.2161 9.55924C13.3676 8.40306 14.9339 8 16.5332 8H27.3693C27.9935 8 28.5819 8.29139 28.9601 8.78785C29.3384 9.28431 29.4633 9.92891 29.2976 10.5307L27.0341 18.7556L32.1104 27.076C32.3978 27.5471 32.4778 28.1159 32.3314 28.6479L31.1344 33.0009L35.649 27.7497L32.3403 19.8298C32.0972 19.2479 32.1428 18.5854 32.4633 18.0423L37.8098 8.98346C38.1695 8.37399 38.8245 8 39.5322 8H47.4665C49.0657 8 50.6321 8.40306 51.7836 9.55924C52.9336 10.7139 53.3332 12.282 53.3332 13.8824V50.1176C53.3332 51.718 52.9336 53.2861 51.7836 54.4408C50.6321 55.5969 49.0657 56 47.4665 56H16.5332C15.3599 56 13.963 55.4714 12.864 54.5887C11.7013 53.6547 10.6665 52.1519 10.6665 50.1176V13.8824C10.6665 12.282 11.0661 10.7139 12.2161 9.55924Z" fill="#2D373D"/>
</svg>
