<svg width="16" height="17" viewBox="0 0 16 17" fill="none" xmlns="http://www.w3.org/2000/svg">
<path d="M12.898 10.6645C12.898 13.2778 10.618 15.5911 7.99801 15.5911C6.73801 15.5911 5.53134 15.0578 4.64467 14.2245C4.44467 14.0311 4.43801 13.7178 4.62467 13.5178C4.81134 13.3111 5.13134 13.3045 5.33134 13.4911C6.05134 14.1711 7.01801 14.5911 7.99801 14.5911C10.058 14.5911 11.898 12.7311 11.898 10.6645C11.898 9.05781 11.1113 7.64448 11.0847 7.58448C10.9647 7.33781 11.0713 7.03781 11.318 6.91781C11.5647 6.80448 11.8647 6.90448 11.9847 7.15781C11.9847 7.15781 12.2247 7.58448 12.4447 8.21115C12.6713 8.84448 12.898 9.71781 12.898 10.6645Z" fill="#2D373D"/>
<path d="M10.3113 5.31781C10.0913 5.49115 9.77801 5.45115 9.61134 5.23115C9.10467 4.57781 8.61801 4.05115 8.25801 3.69115C8.15801 3.58448 8.07134 3.49781 7.99134 3.43115C7.89134 3.52448 7.76467 3.64448 7.62467 3.78448C7.20467 4.20448 6.64467 4.81781 6.09134 5.57115C4.99134 7.08448 3.97134 9.13115 4.11134 11.3578C4.13134 11.6378 3.91801 11.8711 3.64467 11.8911C3.37134 11.9045 3.13134 11.6978 3.11134 11.4245C2.95134 8.85115 4.12467 6.57781 5.28467 4.97781C5.87134 4.17781 6.46467 3.52448 6.91801 3.07781C7.13801 2.85115 7.33134 2.67781 7.46467 2.55781C7.53134 2.49781 7.58468 2.45115 7.61801 2.42448C7.63801 2.40448 7.65134 2.39115 7.66467 2.38448C7.66467 2.38448 7.66912 2.38226 7.67801 2.37781H7.68467C7.86467 2.21781 8.13801 2.21781 8.31801 2.37781H8.32467C8.32467 2.37781 8.33134 2.38448 8.33801 2.39115C8.34468 2.39781 8.35801 2.40448 8.37134 2.41781C8.40468 2.44448 8.44467 2.48448 8.50467 2.53781C8.61801 2.63781 8.77134 2.79115 8.96467 2.98448C9.35134 3.36448 9.86467 3.92448 10.4047 4.61781C10.5713 4.83781 10.5313 5.15115 10.3113 5.31781Z" fill="#2D373D"/>
<path d="M14.518 3.11115L2.18467 15.4445C2.08467 15.5445 1.95801 15.5911 1.83134 15.5911C1.70467 15.5911 1.57801 15.5445 1.47801 15.4445C1.28467 15.2511 1.28467 14.9311 1.47801 14.7378L13.8113 2.40448C14.0047 2.21115 14.3247 2.21115 14.518 2.40448C14.7113 2.59781 14.7113 2.91781 14.518 3.11115Z" fill="#2D373D"/>
</svg>
