<svg width="16" height="17" viewBox="0 0 16 17" fill="none" xmlns="http://www.w3.org/2000/svg">
<path fill-rule="evenodd" clip-rule="evenodd" d="M7.50012 6.86532H3.48247C3.28063 6.86505 3.09318 6.78749 2.95027 6.6599C2.8087 6.53351 2.71798 6.36608 2.68036 6.19043C2.64275 6.01484 2.65762 5.82959 2.72517 5.66133C2.79284 5.4928 2.91381 5.34149 3.08123 5.24316C3.09176 5.23697 3.10252 5.23117 3.11348 5.22577L7.44189 3.09325C7.60967 2.99278 7.80146 2.9375 8.00015 2.9375C8.19885 2.9375 8.39064 2.99278 8.55842 3.09325L12.8868 5.22577C12.8978 5.23117 12.9085 5.23697 12.9191 5.24316C13.0865 5.34149 13.2075 5.4928 13.2751 5.66133C13.3427 5.82959 13.3576 6.01484 13.3199 6.19043C13.2823 6.36608 13.1916 6.53351 13.05 6.6599C12.9071 6.78749 12.7203 6.86505 12.5185 6.86532H8.50012V9.15924H10.259C10.5351 9.15924 10.759 9.3831 10.759 9.65924C10.759 9.93538 10.5351 10.1592 10.259 10.1592H8.50012V14.4173C8.50012 14.6935 8.27626 14.9173 8.00012 14.9173C7.72398 14.9173 7.50012 14.6935 7.50012 14.4173V10.1592H5.74129C5.46515 10.1592 5.24129 9.93538 5.24129 9.65924C5.24129 9.3831 5.46515 9.15924 5.74129 9.15924H7.50012V6.86532ZM7.95272 3.953C7.97184 3.94081 7.98796 3.9375 8.00015 3.9375C8.01235 3.9375 8.02847 3.94081 8.04759 3.953C8.06303 3.96284 8.07899 3.97183 8.09542 3.97992L11.9222 5.86532H8.01678C8.01125 5.86514 8.00569 5.86505 8.00012 5.86505C7.99455 5.86505 7.989 5.86514 7.98347 5.86532H4.07806L7.90489 3.97992C7.92131 3.97183 7.93728 3.96284 7.95272 3.953Z" fill="#2D373D"/>
<path d="M3.38634 8.07088C3.65733 8.01779 3.92005 8.19443 3.97315 8.46542L4.53936 11.3554H5.41861C5.74417 11.3554 6.0415 11.5027 6.25002 11.7392C6.45675 11.9737 6.564 12.2796 6.564 12.5875V14.4175C6.564 14.6937 6.34014 14.9175 6.064 14.9175C5.78785 14.9175 5.564 14.6937 5.564 14.4175V12.5875C5.564 12.507 5.53525 12.4406 5.49991 12.4005C5.46637 12.3624 5.43539 12.3554 5.41861 12.3554H4.51751L3.96731 14.5397C3.89986 14.8074 3.6281 14.9698 3.36033 14.9024C3.09255 14.8349 2.93015 14.5632 2.99761 14.2954L3.61564 11.8419L2.9918 8.65769C2.93871 8.3867 3.11535 8.12398 3.38634 8.07088Z" fill="#2D373D"/>
<path d="M13.0085 8.65769C13.0616 8.3867 12.885 8.12398 12.614 8.07088C12.343 8.01779 12.0803 8.19443 12.0272 8.46542L11.461 11.3554H10.5817C10.2561 11.3554 9.95878 11.5027 9.75026 11.7392C9.54353 11.9737 9.43628 12.2796 9.43628 12.5875V14.4175C9.43628 14.6937 9.66014 14.9175 9.93628 14.9175C10.2124 14.9175 10.4363 14.6937 10.4363 14.4175V12.5875C10.4363 12.507 10.465 12.4406 10.5004 12.4005C10.5339 12.3624 10.5649 12.3554 10.5817 12.3554H11.4828L12.033 14.5397C12.1004 14.8074 12.3722 14.9698 12.6399 14.9024C12.9077 14.8349 13.0701 14.5632 13.0027 14.2954L12.3846 11.8419L13.0085 8.65769Z" fill="#2D373D"/>
</svg>
