<svg width="16" height="17" viewBox="0 0 16 17" fill="none" xmlns="http://www.w3.org/2000/svg">
<path fill-rule="evenodd" clip-rule="evenodd" d="M6.63068 3.0514C7 2.68209 7.50091 2.47461 8.02321 2.47461C8.5455 2.47461 9.04641 2.68209 9.41573 3.0514C9.78506 3.42072 9.99254 3.92162 9.99254 4.44392C9.99254 4.96621 9.78506 5.46711 9.41573 5.83643C9.22777 6.02439 9.00573 6.17043 8.76413 6.26853C9.10433 6.38228 9.41704 6.57392 9.67546 6.83233C10.1137 7.27053 10.3599 7.86487 10.3599 8.48458V9.58657C10.3599 9.86271 10.136 10.0866 9.85986 10.0866H9.56658L9.254 12.5872C9.22272 12.8374 9.01002 13.0252 8.75786 13.0252H7.28852C7.03636 13.0252 6.82366 12.8374 6.79238 12.5872L6.4798 10.0866H6.18652C5.91038 10.0866 5.68652 9.86271 5.68652 9.58657V8.48458C5.68652 7.86487 5.93271 7.27053 6.37092 6.83233C6.62934 6.57391 6.94206 6.38228 7.28227 6.26852C7.04067 6.17042 6.81864 6.02438 6.63068 5.83643C6.26136 5.46711 6.05387 4.96621 6.05387 4.44392C6.05387 3.92162 6.26136 3.42072 6.63068 3.0514ZM8.02321 3.47461C7.76612 3.47461 7.51957 3.57673 7.33778 3.75852C7.156 3.9403 7.05387 4.18684 7.05387 4.44392C7.05387 4.70099 7.156 4.94754 7.33778 5.12932C7.51957 5.3111 7.76612 5.41323 8.02321 5.41323C8.28029 5.41323 8.52685 5.3111 8.70863 5.12932C8.89042 4.94754 8.99254 4.70099 8.99254 4.44392C8.99254 4.18684 8.89042 3.9403 8.70863 3.75852C8.52685 3.57673 8.28029 3.47461 8.02321 3.47461ZM8.02319 7.14795C7.66868 7.14795 7.32869 7.28877 7.07802 7.53944C6.82735 7.79011 6.68652 8.13009 6.68652 8.48458V9.08657H6.92119C7.17335 9.08657 7.38605 9.27433 7.41733 9.52455L7.72991 12.0252H8.31647L8.62905 9.52455C8.66033 9.27433 8.87303 9.08657 9.12519 9.08657H9.35986V8.48458C9.35986 8.13009 9.21903 7.79011 8.96836 7.53944C8.71769 7.28877 8.3777 7.14795 8.02319 7.14795Z" fill="#2D373D"/>
<path fill-rule="evenodd" clip-rule="evenodd" d="M4.34988 3.94385C3.92501 3.94385 3.51754 4.11263 3.2171 4.41305C2.91667 4.71348 2.74788 5.12095 2.74788 5.54583C2.74788 5.9707 2.91667 6.37817 3.2171 6.6786C3.34566 6.80716 3.49382 6.91161 3.65455 6.98904C3.41674 7.06328 3.19156 7.17529 2.98792 7.32146C2.68665 7.5377 2.44114 7.8225 2.27166 8.15233C2.10218 8.48217 2.01358 8.84813 2.01318 9.21896V9.58629C2.01318 9.86243 2.23704 10.0863 2.51318 10.0863H2.82429L3.12199 11.8725C3.16217 12.1135 3.37076 12.2903 3.61518 12.2903H5.08452C5.32894 12.2903 5.53753 12.1135 5.57771 11.8725L5.76187 10.7675C5.80727 10.4951 5.62326 10.2375 5.35087 10.1921C5.07849 10.1467 4.82087 10.3307 4.77548 10.6031L4.66095 11.2903H4.03875L3.74105 9.50409C3.70086 9.26299 3.49227 9.08629 3.24785 9.08629H3.01997C3.03676 8.92028 3.08449 8.75847 3.16111 8.60937C3.2581 8.4206 3.39861 8.25761 3.57103 8.13386C3.74344 8.0101 3.94283 7.92913 4.15271 7.89763C4.3626 7.86613 4.57696 7.88501 4.77811 7.9527C5.03983 8.04077 5.3234 7.9 5.41147 7.63828C5.49954 7.37656 5.35877 7.093 5.09705 7.00492C5.0802 6.99925 5.0633 6.99378 5.04634 6.9885C5.20664 6.91112 5.35441 6.80686 5.48267 6.6786C5.7831 6.37817 5.95188 5.9707 5.95188 5.54583C5.95188 5.12095 5.7831 4.71348 5.48267 4.41305C5.18223 4.11263 4.77476 3.94385 4.34988 3.94385ZM3.9242 5.12017C4.0371 5.00727 4.19022 4.94385 4.34988 4.94385C4.50955 4.94385 4.66267 5.00727 4.77557 5.12017C4.88846 5.23306 4.95188 5.38618 4.95188 5.54583C4.95188 5.70548 4.88846 5.8586 4.77557 5.97149C4.66267 6.08438 4.50955 6.14781 4.34988 6.14781C4.19022 6.14781 4.0371 6.08438 3.9242 5.97149C3.81131 5.8586 3.74788 5.70548 3.74788 5.54583C3.74788 5.38618 3.81131 5.23306 3.9242 5.12017Z" fill="#2D373D"/>
<path fill-rule="evenodd" clip-rule="evenodd" d="M11.6965 3.94385C11.2716 3.94385 10.8641 4.11263 10.5637 4.41305C10.2633 4.71348 10.0945 5.12095 10.0945 5.54583C10.0945 5.9707 10.2633 6.37817 10.5637 6.6786C10.692 6.80686 10.8397 6.91112 11 6.9885C10.9831 6.99378 10.9661 6.99925 10.9493 7.00492C10.6876 7.093 10.5468 7.37656 10.6349 7.63828C10.7229 7.9 11.0065 8.04077 11.2682 7.9527C11.4694 7.88501 11.6837 7.86613 11.8936 7.89763C12.1035 7.92913 12.3029 8.0101 12.4753 8.13386C12.6477 8.25761 12.7882 8.4206 12.8852 8.60937C12.9618 8.75847 13.0096 8.92028 13.0264 9.08629H12.7985C12.5541 9.08629 12.3455 9.26299 12.3053 9.50409L12.0076 11.2903H11.3854L11.2709 10.6031C11.2255 10.3307 10.9679 10.1467 10.6955 10.1921C10.4231 10.2375 10.2391 10.4951 10.2845 10.7675L10.4686 11.8725C10.5088 12.1135 10.7174 12.2903 10.9618 12.2903H12.4312C12.6756 12.2903 12.8842 12.1135 12.9244 11.8725L13.2221 10.0863H13.5332C13.8093 10.0863 14.0332 9.86243 14.0332 9.58629V9.21896C14.0328 8.84813 13.9442 8.48217 13.7747 8.15233C13.6052 7.82249 13.3597 7.5377 13.0584 7.32146C12.8548 7.1753 12.6296 7.06329 12.3918 6.98905C12.5525 6.91162 12.7007 6.80716 12.8293 6.6786C13.1297 6.37817 13.2985 5.9707 13.2985 5.54583C13.2985 5.12095 13.1297 4.71348 12.8293 4.41305C12.5288 4.11263 12.1214 3.94385 11.6965 3.94385ZM11.2708 5.12017C11.3837 5.00727 11.5368 4.94385 11.6965 4.94385C11.8561 4.94385 12.0093 5.00727 12.1222 5.12017C12.2351 5.23306 12.2985 5.38618 12.2985 5.54583C12.2985 5.70548 12.2351 5.8586 12.1222 5.97149C12.0093 6.08438 11.8561 6.14781 11.6965 6.14781C11.5368 6.14781 11.3837 6.08438 11.2708 5.97149C11.1579 5.8586 11.0945 5.70548 11.0945 5.54583C11.0945 5.38618 11.1579 5.23306 11.2708 5.12017Z" fill="#2D373D"/>
<path d="M2.51318 12.3926C2.75 12.3926 2.94836 12.5572 3.00006 12.7783C3.02896 12.7998 3.07928 12.8314 3.15994 12.8696C3.38513 12.9761 3.74293 13.0851 4.22511 13.1816C5.18123 13.3728 6.52433 13.4946 8.02318 13.4946C9.52204 13.4946 10.8651 13.3728 11.8213 13.1816C12.3034 13.0851 12.6612 12.9761 12.8864 12.8696C12.9671 12.8314 13.0174 12.7998 13.0463 12.7783C13.098 12.5572 13.2964 12.3926 13.5332 12.3926C13.8093 12.3926 14.0332 12.6164 14.0332 12.8926C14.0332 13.1505 13.9004 13.3456 13.7707 13.4723C13.642 13.5981 13.4789 13.6956 13.3139 13.7736C12.9814 13.9308 12.5323 14.0592 12.0174 14.1622C10.9792 14.3698 9.56732 14.4946 8.02318 14.4946C6.47905 14.4946 5.06715 14.3698 4.02902 14.1622C3.51407 14.0592 3.06493 13.9308 2.73246 13.7736C2.5675 13.6956 2.4044 13.5981 2.27563 13.4723C2.14601 13.3456 2.01318 13.1505 2.01318 12.8926C2.01318 12.6164 2.23704 12.3926 2.51318 12.3926Z" fill="#2D373D"/>
</svg>
