<svg width="24" height="25" viewBox="0 0 24 25" fill="none" xmlns="http://www.w3.org/2000/svg">
<path d="M18.9915 6.53912C18.9915 6.95333 19.3272 7.28912 19.7415 7.28912C20.1557 7.28912 20.4915 6.95333 20.4915 6.53912L20.4915 3.67187C20.4915 3.25766 20.1557 2.92188 19.7415 2.92188H16.8743C16.46 2.92188 16.1243 3.25766 16.1243 3.67188C16.1243 4.08609 16.46 4.42188 16.8743 4.42188L18.9915 4.42188L18.9915 6.53912Z" fill="#2D373D"/>
<path d="M12.1189 4.98213C12.0116 4.90229 11.9044 4.90851 11.8232 4.96291C10.1061 6.1124 5.30561 9.50193 3.25872 11.3914C2.95436 11.6724 2.47986 11.6534 2.19891 11.349C1.91795 11.0447 1.93693 10.5702 2.24129 10.2892C4.38457 8.31076 9.2762 4.86288 10.9887 3.71644C11.6272 3.28906 12.4267 3.34153 13.0142 3.77863L21.6977 10.2386C22.03 10.4858 22.099 10.9556 21.8518 11.288C21.6045 11.6203 21.1347 11.6893 20.8023 11.4421L12.1189 4.98213Z" fill="#2D373D"/>
<path d="M19 11.3419C19.4142 11.3419 19.75 11.6776 19.75 12.0919V21.0273C19.75 22.0753 18.9004 22.9248 17.8524 22.9248L6.14755 22.925C5.09956 22.925 4.25 22.0754 4.25 21.0274V12.092C4.25 11.6778 4.58579 11.342 5 11.342C5.41421 11.342 5.75 11.6778 5.75 12.092V21.0274C5.75 21.247 5.92799 21.425 6.14755 21.425L17.8524 21.4248C18.072 21.4248 18.25 21.2469 18.25 21.0273V12.0919C18.25 11.6776 18.5858 11.3419 19 11.3419Z" fill="#2D373D"/>
<path d="M10.7803 10.8916C11.0732 11.1845 11.0732 11.6594 10.7803 11.9523L10.779 11.9536C10.6366 12.0959 9.66247 13.0699 10.4208 14.5865C11.003 15.7509 10.836 16.854 10.5485 17.6253C10.4051 18.01 10.2285 18.3234 10.0878 18.5413C10.017 18.6509 9.95401 18.7383 9.90686 18.8004C9.88325 18.8315 9.86349 18.8565 9.84856 18.8749L9.82986 18.8977L9.82343 18.9054L9.82098 18.9082L9.81995 18.9095L9.81905 18.9105C9.54922 19.2248 9.07571 19.2608 8.76145 18.991C8.44818 18.722 8.41138 18.2507 8.67839 17.9364L8.68295 17.9308C8.6884 17.9241 8.69829 17.9117 8.71176 17.8939C8.73877 17.8583 8.77969 17.8019 8.82778 17.7274C8.92485 17.5771 9.04611 17.3613 9.14295 17.1015C9.33591 16.5838 9.41892 15.9369 9.07914 15.2573C7.83985 12.7788 9.5238 11.0874 9.71963 10.8916C10.0125 10.5987 10.4874 10.5987 10.7803 10.8916Z" fill="#2D373D"/>
<path d="M15.2803 11.9523C15.5732 11.6594 15.5732 11.1845 15.2803 10.8916C14.9874 10.5987 14.5125 10.5987 14.2196 10.8916C14.0238 11.0874 12.3399 12.7788 13.5791 15.2573C13.9189 15.9369 13.8359 16.5838 13.643 17.1015C13.5461 17.3613 13.4248 17.5771 13.3278 17.7274C13.2797 17.8019 13.2388 17.8583 13.2118 17.8939C13.1983 17.9117 13.1884 17.9241 13.183 17.9308L13.1784 17.9364C12.9114 18.2507 12.9482 18.722 13.2614 18.991C13.5757 19.2608 14.0492 19.2248 14.319 18.9105L14.3199 18.9095L14.321 18.9082L14.3234 18.9054L14.3299 18.8977L14.3486 18.8749C14.3635 18.8565 14.3833 18.8315 14.4069 18.8004C14.454 18.7383 14.517 18.6509 14.5878 18.5413C14.7285 18.3234 14.9051 18.01 15.0485 17.6253C15.336 16.854 15.503 15.7509 14.9208 14.5865C14.1625 13.0699 15.1366 12.0959 15.279 11.9536L15.2803 11.9523Z" fill="#2D373D"/>
</svg>
