<svg width="16" height="17" viewBox="0 0 16 17" fill="none" xmlns="http://www.w3.org/2000/svg">
<path d="M11.4999 7.9617H11.3999C10.9499 7.9617 10.5499 7.7117 10.3499 7.3117L10.2499 7.1117C9.89987 6.5117 9.34987 5.9617 8.69987 5.7117C8.44987 5.5617 8.14987 5.7117 8.04987 5.9617C7.94987 6.2117 8.09987 6.5117 8.29987 6.6617C8.69987 6.8617 9.09987 7.1617 9.29987 7.6117L9.39987 7.8117C9.79987 8.5617 10.5499 9.0117 11.3499 9.0117H11.4499C11.5999 9.0117 11.7499 9.1617 11.7499 9.3117C11.7499 9.5117 11.5999 9.6617 11.4499 9.6617H11.3499C10.3999 9.6617 9.49987 9.1617 8.99987 8.3617C8.89987 8.1617 8.64987 8.1117 8.44987 8.1617C8.24987 8.2617 8.09987 8.4617 8.09987 8.6617V13.9117C8.09987 14.0617 7.94987 14.2117 7.79987 14.2117C7.69987 14.2117 7.59987 14.1617 7.54987 14.1117C7.49987 14.0117 7.44987 13.9617 7.44987 13.8617V11.3617C7.44987 11.0617 7.24987 10.8617 6.94987 10.8617C6.64987 10.8617 6.44987 11.0617 6.44987 11.3617V13.8617C6.44987 14.0117 6.29987 14.1617 6.14987 14.1617C6.04987 14.1617 5.94987 14.1117 5.89987 14.0617C5.84987 14.0117 5.79987 13.9617 5.79987 13.8617V11.3617C5.79987 11.0617 5.59987 10.8617 5.29987 10.8617C4.99987 10.8617 4.79987 11.0617 4.79987 11.3617V13.8617C4.79987 14.2617 4.94987 14.5617 5.19987 14.8117C5.44987 15.0617 5.79987 15.1617 6.14987 15.1617C6.44987 15.1617 6.74987 15.0117 6.94987 14.8617C7.19987 15.0617 7.49987 15.1617 7.79987 15.1617C8.54987 15.1117 9.09987 14.5617 9.09987 13.8617V9.8617C9.74987 10.3617 10.4999 10.6117 11.3499 10.6117H11.4999C12.2499 10.6117 12.7999 10.0117 12.7999 9.2617C12.7999 8.5617 12.1999 7.9617 11.4999 7.9617Z" fill="#2D373D"/>
<path d="M6.4999 10.2117C7.1999 10.2117 7.7999 9.61172 7.7999 8.91172C7.7999 8.56172 7.6999 8.21172 7.4499 7.96172C7.2499 7.76172 6.9999 7.66172 6.7499 7.61172L7.3999 6.16172C7.4499 5.96172 7.4499 5.76172 7.2999 5.61172C8.1999 5.46172 8.8999 4.61172 8.8999 3.71172C8.8999 2.61172 7.9999 1.76172 6.9499 1.76172C5.8999 1.76172 4.9999 2.61172 4.9999 3.71172C4.9999 4.66172 5.6999 5.46172 6.5999 5.61172C6.5499 5.66172 6.5499 5.71172 6.4999 5.76172L5.6499 7.71172C5.5499 7.81172 5.4999 7.91172 5.4999 8.06172L4.9999 9.21172H4.4999C4.2999 9.21172 4.1499 9.06172 4.1499 8.86172V8.46172C4.1499 7.61172 4.6999 6.86172 5.4999 6.61172C5.7499 6.51172 5.8999 6.21172 5.7999 5.96172C5.6999 5.71172 5.3999 5.56172 5.1499 5.66172C3.9499 6.06172 3.1499 7.16172 3.1499 8.46172V8.86172C3.1499 9.61172 3.7499 10.2117 4.4999 10.2117H6.4999ZM6.4999 8.56172C6.5999 8.56172 6.6999 8.61172 6.7499 8.66172C6.7999 8.76172 6.8499 8.81172 6.8499 8.91172C6.8499 9.06172 6.6999 9.21172 6.5499 9.21172H6.0499L6.3499 8.56172H6.4999ZM5.9999 3.71172C5.9999 3.21172 6.4499 2.76172 6.9499 2.76172C7.4999 2.76172 7.8999 3.21172 7.8999 3.71172C7.8999 4.21172 7.4499 4.66172 6.9499 4.66172C6.4499 4.66172 5.9999 4.21172 5.9999 3.71172Z" fill="#2D373D"/>
</svg>
