<svg width="64" height="64" viewBox="0 0 64 64" fill="none" xmlns="http://www.w3.org/2000/svg">
<path d="M24.269 13.069C24.269 11.5393 24.7226 10.044 25.5725 8.77218C26.4223 7.50033 27.6302 6.50905 29.0434 5.92368C30.4566 5.33831 32.0116 5.18515 33.5119 5.48357C35.0121 5.78199 36.3902 6.51858 37.4718 7.6002C38.5534 8.68182 39.29 10.0599 39.5884 11.5601C39.8869 13.0604 39.7337 14.6154 39.1483 16.0286C38.563 17.4418 37.5717 18.6497 36.2998 19.4996C35.028 20.3494 33.5327 20.803 32.003 20.803C29.9522 20.8019 27.9856 19.9867 26.5354 18.5366C25.0853 17.0864 24.2701 15.1198 24.269 13.069ZM35.735 13.069C35.7466 12.5715 35.6585 12.0767 35.4761 11.6137C35.2937 11.1507 35.0205 10.7289 34.6728 10.3729C34.325 10.017 33.9096 9.7342 33.4509 9.54111C32.9923 9.34802 32.4997 9.24855 32.002 9.24855C31.5044 9.24855 31.0118 9.34802 30.5532 9.54111C30.0945 9.7342 29.6791 10.017 29.3313 10.3729C28.9836 10.7289 28.7104 11.1507 28.528 11.6137C28.3456 12.0767 28.2575 12.5715 28.269 13.069C28.2575 13.5665 28.3456 14.0612 28.528 14.5242C28.7104 14.9872 28.9836 15.4091 29.3313 15.765C29.6791 16.1209 30.0945 16.4037 30.5532 16.5968C31.0118 16.7899 31.5044 16.8894 32.002 16.8894C32.4997 16.8894 32.9923 16.7899 33.4509 16.5968C33.9096 16.4037 34.325 16.1209 34.6728 15.765C35.0205 15.4091 35.2937 14.9872 35.4761 14.5242C35.6585 14.0612 35.7466 13.5665 35.735 13.069Z" fill="#2D373D"/>
<path d="M24.269 50.9352C24.269 49.4055 24.7226 47.9102 25.5725 46.6384C26.4223 45.3665 27.6302 44.3753 29.0434 43.7899C30.4566 43.2045 32.0116 43.0514 33.5119 43.3498C35.0121 43.6482 36.3902 44.3848 37.4718 45.4664C38.5534 46.548 39.29 47.9261 39.5884 49.4263C39.8869 50.9266 39.7337 52.4816 39.1483 53.8948C38.563 55.3081 37.5717 56.5159 36.2998 57.3658C35.028 58.2156 33.5327 58.6692 32.003 58.6692C29.9522 58.6681 27.9856 57.8529 26.5354 56.4028C25.0853 54.9526 24.2701 52.986 24.269 50.9352ZM35.735 50.9352C35.735 50.1967 35.5161 49.4747 35.1058 48.8607C34.6955 48.2466 34.1123 47.768 33.43 47.4854C32.7477 47.2028 31.9969 47.1288 31.2726 47.2729C30.5483 47.417 29.8829 47.7726 29.3607 48.2948C28.8385 48.817 28.4829 49.4824 28.3388 50.2067C28.1947 50.931 28.2687 51.6818 28.5513 52.3641C28.8339 53.0464 29.3125 53.6296 29.9265 54.0399C30.5406 54.4502 31.2625 54.6692 32.001 54.6692C32.4947 54.6812 32.9857 54.5929 33.4441 54.4095C33.9026 54.2261 34.3191 53.9515 34.6682 53.6024C35.0174 53.2532 35.292 52.8368 35.4754 52.3783C35.6588 51.9198 35.7471 51.4288 35.735 50.9352Z" fill="#2D373D"/>
<path d="M24.269 32.003C24.269 30.4734 24.7226 28.9781 25.5725 27.7063C26.4223 26.4344 27.6302 25.4431 29.0434 24.8578C30.4566 24.2724 32.0116 24.1192 33.5119 24.4177C35.0121 24.7161 36.3902 25.4527 37.4718 26.5343C38.5534 27.6159 39.29 28.994 39.5884 30.4942C39.8869 31.9945 39.7337 33.5495 39.1483 34.9627C38.563 36.3759 37.5717 37.5838 36.2998 38.4336C35.028 39.2835 33.5327 39.737 32.003 39.737C29.9522 39.736 27.9856 38.9208 26.5354 37.4706C25.0853 36.0205 24.2701 34.0539 24.269 32.003ZM35.735 32.003C35.735 31.2645 35.5161 30.5426 35.1058 29.9285C34.6955 29.3145 34.1123 28.8359 33.43 28.5533C32.7477 28.2707 31.9969 28.1967 31.2726 28.3408C30.5483 28.4849 29.8829 28.8405 29.3607 29.3627C28.8385 29.8849 28.4829 30.5503 28.3388 31.2746C28.1947 31.9989 28.2687 32.7497 28.5513 33.432C28.8339 34.1143 29.3125 34.6975 29.9265 35.1078C30.5406 35.5181 31.2625 35.737 32.001 35.737C32.4947 35.7491 32.9857 35.6608 33.4441 35.4774C33.9026 35.294 34.3191 35.0194 34.6682 34.6702C35.0174 34.3211 35.292 33.9046 35.4754 33.4461C35.6588 32.9877 35.7471 32.4967 35.735 32.003Z" fill="#2D373D"/>
</svg>
