<svg width="16" height="16" viewBox="0 0 16 16" fill="none" xmlns="http://www.w3.org/2000/svg">
<path d="M13.5999 2.6998C13.3999 2.4998 13.0999 2.4998 12.8999 2.6998L2.5499 12.5998C2.3499 12.7998 2.3499 13.0998 2.5499 13.2998C2.6499 13.3998 2.7499 13.4498 2.8999 13.4498C3.0499 13.4498 3.1499 13.3998 3.2499 13.3498L13.5999 3.3998C13.7999 3.1998 13.7999 2.8998 13.5999 2.6998Z" fill="#2D373D"/>
<path d="M14.3499 7.44979C13.8499 6.84979 13.2499 6.29979 12.5999 5.84979C12.3999 5.69979 12.0499 5.74979 11.8999 5.94979C11.7499 6.14979 11.7999 6.49979 11.9999 6.64979C12.5499 7.09979 13.0999 7.54979 13.5999 8.09979C13.7499 8.24979 13.7499 8.49979 13.5999 8.64979C12.2999 10.0998 10.1499 11.6498 7.99991 11.5998C7.49991 11.6498 6.99991 11.5498 6.49991 11.3998C6.19991 11.3498 5.89991 11.4498 5.84991 11.7498C5.79991 12.0498 5.94991 12.2998 6.19991 12.3998C6.74991 12.5498 7.34991 12.6498 7.94991 12.6498C7.99991 12.6498 8.04991 12.6498 8.09991 12.6498C10.4999 12.6498 12.8999 10.9498 14.3499 9.34979C14.8499 8.79979 14.8499 7.99979 14.3499 7.44979Z" fill="#2D373D"/>
<path d="M3.4499 10.8498C3.5999 10.8498 3.7499 10.7998 3.8499 10.6498C3.9999 10.4498 3.9499 10.0998 3.7499 9.94981C3.2999 9.59981 2.7999 9.14981 2.3999 8.64981C2.2499 8.49981 2.2499 8.24981 2.3999 8.09981C3.6999 6.64981 5.8499 5.09981 7.9999 5.14981C8.3999 5.14981 8.7999 5.19981 9.1999 5.29981C9.4499 5.39981 9.7499 5.19981 9.7999 4.94981C9.8999 4.69981 9.6999 4.39981 9.4499 4.34981C8.9499 4.24981 8.4999 4.19981 7.9999 4.19981C5.5499 4.14981 3.0999 5.84981 1.6499 7.44981C1.1499 7.99981 1.1499 8.79981 1.6499 9.34981C2.0999 9.84981 2.5999 10.3498 3.1499 10.7498C3.2499 10.7998 3.3499 10.8498 3.4499 10.8498Z" fill="#2D373D"/>
<path d="M5.44995 8.39985C5.44995 8.69985 5.64995 8.89985 5.94995 8.89985C6.19995 8.89985 6.44995 8.69985 6.44995 8.39985C6.44995 7.54985 7.14995 6.84985 7.99995 6.84985C8.29995 6.84985 8.49995 6.64985 8.49995 6.34985C8.49995 6.04985 8.29995 5.84985 7.99995 5.84985C6.59995 5.84985 5.44995 6.99985 5.44995 8.39985Z" fill="#2D373D"/>
<path d="M9.54988 8.44983C9.54988 8.84983 9.39988 9.24983 9.09988 9.54983C8.79988 9.84983 8.39988 9.99983 7.99988 9.99983V10.9998C8.69988 10.9998 9.29988 10.6998 9.79988 10.2498C10.2999 9.79983 10.5499 9.14983 10.5499 8.44983C10.5499 8.14983 10.3499 7.94983 10.0499 7.94983C9.74988 7.94983 9.54988 8.14983 9.54988 8.44983Z" fill="#2D373D"/>
</svg>
