<svg width="16" height="17" viewBox="0 0 16 17" fill="none" xmlns="http://www.w3.org/2000/svg">
<path d="M11.3001 10.7602L10.3001 10.3602C10.2501 10.3602 10.2001 10.2602 10.2001 10.2102C10.2001 10.1602 10.2501 10.1102 10.2501 10.1102C10.2501 10.1102 10.3001 10.0602 10.3501 10.0602H11.3501C11.6501 10.0602 11.8501 9.86021 11.8501 9.56021C11.8501 9.26021 11.6501 9.06021 11.3501 9.06021H11.0001C10.9501 8.86021 10.7501 8.71021 10.5501 8.71021C10.3001 8.71021 10.1001 8.86021 10.0501 9.11021C9.80015 9.16021 9.65015 9.26021 9.50015 9.41021C9.30015 9.61021 9.15015 9.91021 9.15015 10.2102C9.15015 10.7102 9.45015 11.1602 9.90015 11.3102L10.9001 11.7102C11.0001 11.7602 11.0501 11.8102 11.0001 11.9102C10.9501 11.9602 10.9001 12.0102 10.8501 12.0102H9.85015C9.55015 12.0102 9.35015 12.2102 9.35015 12.5102C9.35015 12.8102 9.55015 13.0102 9.85015 13.0102H10.1001C10.1501 13.2102 10.3501 13.3602 10.5501 13.3602C10.8001 13.3602 11.0001 13.2102 11.0501 12.9602C11.4001 12.9102 11.7501 12.6102 11.9501 12.2602C12.1001 11.9602 12.0501 11.6602 11.9501 11.3602C11.8001 11.1102 11.6001 10.8602 11.3001 10.7602Z" fill="#2D373D"/>
<path d="M10.5503 7.56018C8.65034 7.56018 7.10034 9.11018 7.10034 11.0102C7.10034 12.9102 8.65034 14.4602 10.5503 14.4602C12.4503 14.4602 14.0003 12.9102 14.0003 11.0102C14.0003 9.11018 12.4503 7.56018 10.5503 7.56018ZM10.5503 13.4602C9.20034 13.4602 8.10034 12.3602 8.10034 11.0102C8.10034 9.66018 9.20034 8.56018 10.5503 8.56018C11.9003 8.56018 13.0003 9.66018 13.0003 11.0102C13.0003 12.3602 11.9003 13.4602 10.5503 13.4602Z" fill="#2D373D"/>
<path d="M6.10019 11.9602H3.1502C3.1002 11.9602 3.0502 11.9602 3.0002 11.9102C3.0002 11.9102 2.9502 11.8602 2.9502 11.7602V3.66016C2.9502 3.51016 3.0502 3.41016 3.2002 3.41016H8.4002C8.5002 3.41016 8.5502 3.46016 8.6002 3.51016L10.0002 4.91016C10.0502 4.96016 10.0502 5.01016 10.0502 5.06016V6.61016C10.0502 6.91016 10.2502 7.11016 10.5502 7.11016C10.8502 7.11016 11.0502 6.91016 11.0502 6.61016V5.06016C11.0502 4.71016 10.9502 4.41016 10.7502 4.16016L9.3502 2.76016C9.1002 2.56016 8.8002 2.41016 8.4502 2.41016H3.2002C2.5002 2.41016 1.9502 2.96016 1.9502 3.66016V11.7602C1.9502 12.1102 2.1502 12.4602 2.3502 12.6602C2.5502 12.8602 2.8502 13.0102 3.2002 13.0102C3.2002 13.0102 3.2002 13.0102 3.2002 12.9602H6.10019C6.4002 12.9602 6.60019 12.7602 6.60019 12.4602C6.60019 12.1602 6.4002 11.9602 6.10019 11.9602Z" fill="#2D373D"/>
</svg>
