<svg width="64" height="64" viewBox="0 0 64 64" fill="none" xmlns="http://www.w3.org/2000/svg">
<path d="M53.2002 52C50.6002 52.4 48.0002 51.4 46.0002 49.6C45.6002 49.2 45.2002 49 44.6002 49C44.0002 49 43.6002 49.2 43.2002 49.6C43.2002 49.6 43.0002 49.8 42.8002 50C40.0002 52.6 35.6002 52.4 33.0002 49.6C32.8002 49.2 32.2002 49 31.6002 49C31.2002 49 30.6002 49.2 30.2002 49.6C30.2002 49.6 30.0002 49.8 29.8002 50C27.0002 52.6 22.6002 52.4 20.0002 49.6C19.6002 49.2 19.2002 49 18.6002 49C18.2002 49 17.6002 49.2 17.2002 49.6C15.2002 51.4 12.6002 52.4 10.0002 52C9.00016 52 8.00016 52.8 7.80016 53.8C7.60016 55 8.40016 56 9.60016 56.2C10.2002 56.2 10.6002 56.2 11.2002 56.2C13.8002 56.2 16.4002 55.4 18.0002 53.8C22.0002 56.8 27.4002 56.8 31.4002 53.8C33.0002 55.2 35.2002 55.8 37.4002 56C40.0002 56.2 42.6002 55.4 44.6002 53.8C47.2002 55.6 50.4002 56.4 53.6002 56C54.8002 55.8 55.6002 54.8 55.4002 53.8C55.2002 52.6 54.2002 51.8 53.2002 52Z" fill="#2D373D"/>
<path d="M55.8 42.6C55.6 41.6 54.8 41 54 40.6C53.6 40.4 53 40.4001 52.6 40.4001H32.2001V12.2C32.2001 9.80005 30.2 7.80005 27.8 7.80005C26.4 7.80005 25.2001 8.60005 24.2001 9.80005L11 30C10 31.6 10.4 33.8 12 34.8C12.6 35.2 13.2 35.4001 14 35.4001H28.4V40.4001H11.2C10.4 40.4001 9.40005 40.8001 8.80005 41.4001C8.20005 42 7.80005 42.8 7.80005 43.8C7.80005 44.2001 8.00005 44.8 8.20005 45.2001C9.00005 47.2001 10.4 49 12.2 50.4001C12.6 50.6001 13 50.8 13.4 50.8C14 50.8 14.6 50.6001 15.2 50.2001C15.8 49.4001 15.6 48 14.8 47.4001C13.8 46.6001 12.8 45.6001 12.2 44.4001H52C51.4001 45.2001 50.8 46 50 46.8C49.2001 47.6 49 48.8 49.8 49.6C50.6 50.4 51.8 50.6 52.6 49.8C53.8 48.4 55 47 55.8 45.2001C56.2001 44.4001 56.2001 43.4 55.8 42.6ZM15 31.4L27.6 12C27.6 11.8 27.8 11.8 28 11.8C28.2001 11.8 28.4 12 28.4 12.2V31.4H15Z" fill="#2D373D"/>
<path d="M36.4001 38.4001H47.0001C48.8001 38.4001 50.4001 36.8001 50.6001 34.8001C50.6001 34.2001 50.4001 33.6001 50.0001 33.0001L40.8001 18.8001C39.8001 17.2001 37.6001 16.8001 36.0001 17.8001C35.0001 18.6001 34.4001 19.6001 34.4001 20.8001V36.4001C34.4001 37.6001 35.2001 38.4001 36.4001 38.4001ZM38.4001 22.6001L46.0001 34.4001H38.4001V22.6001Z" fill="#2D373D"/>
</svg>
