<svg width="24" height="25" viewBox="0 0 24 25" fill="none" xmlns="http://www.w3.org/2000/svg">
<path d="M18.9375 14.8369C20.1456 14.8369 21.125 13.8575 21.125 12.6494C21.125 11.4413 20.1456 10.4619 18.9375 10.4619C17.7294 10.4619 16.75 11.4413 16.75 12.6494C16.75 13.8575 17.7294 14.8369 18.9375 14.8369Z" fill="#2D373D"/>
<path d="M4.1875 14.8369C5.39562 14.8369 6.375 13.8575 6.375 12.6494C6.375 11.4413 5.39562 10.4619 4.1875 10.4619C2.97938 10.4619 2 11.4413 2 12.6494C2 13.8575 2.97938 14.8369 4.1875 14.8369Z" fill="#2D373D"/>
<path d="M11.5625 14.8369C12.7706 14.8369 13.75 13.8575 13.75 12.6494C13.75 11.4413 12.7706 10.4619 11.5625 10.4619C10.3544 10.4619 9.375 11.4413 9.375 12.6494C9.375 13.8575 10.3544 14.8369 11.5625 14.8369Z" fill="#2D373D"/>
</svg>
