<svg width="16" height="17" viewBox="0 0 16 17" fill="none" xmlns="http://www.w3.org/2000/svg">
<path d="M7.16346 3.00458C7.4026 3.14266 7.48453 3.44846 7.34645 3.6876L6.97976 4.32266C6.84168 4.56181 6.53588 4.64373 6.29674 4.50565C6.0576 4.36757 5.97567 4.06177 6.11375 3.82263L6.48044 3.18757C6.61852 2.94842 6.92432 2.8665 7.16346 3.00458Z" fill="#2D373D"/>
<path fill-rule="evenodd" clip-rule="evenodd" d="M5.44671 4.37777C5.02235 4.37777 4.61537 4.54633 4.3153 4.84638C4.01523 5.14644 3.84664 5.55341 3.84664 5.97776C3.84664 6.40212 4.01523 6.80908 4.3153 7.10914C4.61537 7.40919 5.02235 7.57775 5.44671 7.57775C5.87106 7.57775 6.27804 7.40919 6.57811 7.10914C6.87819 6.80908 7.04677 6.40212 7.04677 5.97776C7.04677 5.55341 6.87819 5.14644 6.57811 4.84638C6.27804 4.54633 5.87106 4.37777 5.44671 4.37777ZM5.02238 5.55351C5.13491 5.44099 5.28755 5.37777 5.44671 5.37777C5.60587 5.37777 5.7585 5.44099 5.87103 5.55351C5.98356 5.66604 6.04677 5.81864 6.04677 5.97776C6.04677 6.13688 5.98356 6.28949 5.87103 6.40201C5.7585 6.51453 5.60587 6.57775 5.44671 6.57775C5.28755 6.57775 5.13491 6.51453 5.02238 6.40201C4.90985 6.28949 4.84664 6.13688 4.84664 5.97776C4.84664 5.81864 4.90985 5.66604 5.02238 5.55351Z" fill="#2D373D"/>
<path fill-rule="evenodd" clip-rule="evenodd" d="M12.7022 8.46409C12.2849 8.38755 11.8543 8.47984 11.5051 8.72066L9.32085 10.271H4.71331C4.28895 10.271 3.88197 10.4396 3.5819 10.7396C3.28183 11.0397 3.11324 11.4467 3.11324 11.871C3.11324 12.2954 3.28183 12.7023 3.5819 13.0024C3.81779 13.2383 4.11974 13.3929 4.44426 13.4482L4.22725 14.3162C4.16027 14.5841 4.32315 14.8556 4.59104 14.9226C4.85894 14.9896 5.13041 14.8267 5.19739 14.5588L5.46935 13.471L9.84759 13.471C9.86617 13.471 9.88472 13.4706 9.90323 13.47L10.4988 14.6611C10.6223 14.9081 10.9227 15.0082 11.1697 14.8847C11.4167 14.7612 11.5168 14.4609 11.3933 14.2139L10.8454 13.1182C10.8654 13.102 10.8851 13.0853 10.9045 13.0681L13.3256 11.3516C13.673 11.1105 13.9108 10.7416 13.987 10.3256C14.0634 9.90851 13.9709 9.47792 13.7302 9.12884C13.4892 8.77973 13.1194 8.54063 12.7022 8.46409ZM5.09518 12.471H9.84633C9.99599 12.4708 10.1402 12.4139 10.2497 12.3119C10.266 12.2967 10.2833 12.2827 10.3014 12.2698L12.7543 10.5308C12.8851 10.4404 12.9747 10.3018 13.0033 10.1454C13.032 9.98905 12.9974 9.82773 12.9072 9.69684C12.8168 9.566 12.6782 9.47638 12.5217 9.44768C12.3662 9.41915 12.2057 9.45317 12.0752 9.54227L9.76968 11.1788C9.68511 11.2388 9.58397 11.271 9.48027 11.271H4.71331C4.55415 11.271 4.40152 11.3343 4.28898 11.4468C4.17645 11.5593 4.11324 11.7119 4.11324 11.871C4.11324 12.0301 4.17645 12.1827 4.28898 12.2953C4.40152 12.4078 4.55415 12.471 4.71331 12.471H5.06208C5.07306 12.4707 5.0841 12.4706 5.09518 12.471Z" fill="#2D373D"/>
<path d="M7.14685 5.97791C7.14685 5.70176 7.37071 5.47791 7.64685 5.47791H8.38023C8.65637 5.47791 8.88023 5.70176 8.88023 5.97791C8.88023 6.25405 8.65637 6.47791 8.38023 6.47791H7.64685C7.37071 6.47791 7.14685 6.25405 7.14685 5.97791Z" fill="#2D373D"/>
<path d="M2.51318 5.47791C2.23704 5.47791 2.01318 5.70176 2.01318 5.97791C2.01318 6.25405 2.23704 6.47791 2.51318 6.47791H3.24656C3.5227 6.47791 3.74656 6.25405 3.74656 5.97791C3.74656 5.70176 3.5227 5.47791 3.24656 5.47791H2.51318Z" fill="#2D373D"/>
<path d="M4.77963 8.133C4.91771 7.89385 4.83579 7.58806 4.59665 7.44997C4.35751 7.31189 4.05171 7.39382 3.91363 7.63296L3.54694 8.26802C3.40886 8.50716 3.49078 8.81296 3.72992 8.95104C3.96906 9.08912 4.27486 9.0072 4.41294 8.76806L4.77963 8.133Z" fill="#2D373D"/>
<path d="M3.72992 3.00458C3.96906 2.8665 4.27486 2.94842 4.41294 3.18757L4.77963 3.82263C4.91771 4.06177 4.83579 4.36757 4.59665 4.50565C4.35751 4.64373 4.05171 4.56181 3.91363 4.32266L3.54694 3.6876C3.40886 3.44846 3.49078 3.14266 3.72992 3.00458Z" fill="#2D373D"/>
<path d="M6.97976 7.63296C6.84168 7.39382 6.53588 7.31189 6.29674 7.44997C6.0576 7.58806 5.97567 7.89385 6.11375 8.133L6.48044 8.76806C6.61852 9.0072 6.92432 9.08912 7.16346 8.95104C7.4026 8.81296 7.48453 8.50716 7.34645 8.26802L6.97976 7.63296Z" fill="#2D373D"/>
</svg>
