<svg width="64" height="65" viewBox="0 0 64 65" fill="none" xmlns="http://www.w3.org/2000/svg">
<path d="M54 27.0221C52.5173 25.0407 50.3992 23.6286 48 23.0221L46.82 22.7621C44.46 22.3021 44.46 22.0621 44.46 21.4821V14.8021C44.4652 13.9612 44.3015 13.1278 43.9786 12.3514C43.6556 11.5749 43.18 10.8713 42.58 10.2821C41.363 9.11828 39.7439 8.46875 38.06 8.46875C36.3761 8.46875 34.757 9.11828 33.54 10.2821C32.9266 10.8904 32.4435 11.6174 32.1203 12.4186C31.797 13.2198 31.6404 14.0784 31.66 14.9421C31.66 15.7421 31.96 22.9421 27.92 27.1621C26.0206 29.0734 23.4888 30.2255 20.8 30.4021V27.9821C20.8 27.4517 20.5893 26.943 20.2142 26.5679C19.8391 26.1928 19.3304 25.9821 18.8 25.9821H10C9.46957 25.9821 8.96086 26.1928 8.58579 26.5679C8.21071 26.943 8 27.4517 8 27.9821V54.4021C8 54.9325 8.21071 55.4412 8.58579 55.8163C8.96086 56.1914 9.46957 56.4021 10 56.4021H18.8C19.3304 56.4021 19.8391 56.1914 20.2142 55.8163C20.5893 55.4412 20.8 54.9325 20.8 54.4021V53.7621C20.9636 53.8138 21.1307 53.8539 21.3 53.8821L24.82 54.9021C27.1677 55.8077 29.6463 56.3278 32.16 56.4421H41.8C45.2171 56.4421 48.5113 55.1668 51.0378 52.866C53.5643 50.5652 55.1412 47.4043 55.46 44.0021L56.06 34.0021C56.1966 31.5078 55.469 29.0426 54 27.0221V27.0221ZM16.8 52.4021H12V29.9821H16.8V52.4021ZM51.48 43.6821C51.2324 46.0761 50.1054 48.2931 48.3172 49.904C46.529 51.5148 44.2068 52.405 41.8 52.4021H32.16C30.0466 52.2711 27.9673 51.8053 26 51.0221L22.4 50.0021C21.8765 49.8421 21.3416 49.7218 20.8 49.6421V34.4021C24.5195 34.1775 28.0213 32.5728 30.62 29.9021C35.8 24.5621 35.64 16.4021 35.56 14.8021C35.56 14.4869 35.6221 14.1748 35.7427 13.8837C35.8633 13.5925 36.0401 13.3279 36.2629 13.105C36.4858 12.8822 36.7504 12.7054 37.0416 12.5848C37.3327 12.4642 37.6448 12.4021 37.96 12.4021C38.2752 12.4021 38.5873 12.4642 38.8784 12.5848C39.1696 12.7054 39.4342 12.8822 39.6571 13.105C39.8799 13.3279 40.0567 13.5925 40.1773 13.8837C40.2979 14.1748 40.36 14.4869 40.36 14.8021V21.4421C40.36 25.5621 44 26.2621 45.94 26.6421L46.94 26.8621C48.4499 27.2521 49.7784 28.1521 50.7006 29.4096C51.6228 30.6672 52.0819 32.2048 52 33.7621L51.48 43.6821Z" fill="#2D373D"/>
</svg>
