<svg width="32" height="33" viewBox="0 0 32 33" fill="none" xmlns="http://www.w3.org/2000/svg">
<path d="M16.0003 21.9615C15.2003 21.9615 14.6003 22.5615 14.6003 23.3615C14.6003 24.1615 15.2003 24.7615 16.0003 24.7615C16.7003 24.7615 17.4003 24.1615 17.4003 23.3615C17.4003 22.5615 16.8003 21.9615 16.0003 21.9615Z" fill="#2D373D"/>
<path d="M16.0002 21.1616C16.5002 21.1616 17.0002 20.6616 17.0002 20.1616V12.7616C17.0002 12.1616 16.6002 11.7616 16.0002 11.7616C15.4002 11.7616 15.0002 12.1616 15.0002 12.7616V20.1616C15.0002 20.7616 15.4002 21.1616 16.0002 21.1616Z" fill="#2D373D"/>
<path d="M27.8002 24.8616L18.5002 5.86156C18.2002 5.16156 17.6002 4.66156 16.9002 4.46156C16.2002 4.26156 15.4002 4.36156 14.7002 4.56156C14.1002 4.86156 13.7002 5.36156 13.4002 5.86156L4.10023 24.8616C3.80023 25.4616 3.80023 26.1616 4.00023 26.7616C4.20023 27.3616 4.70023 27.8616 5.30023 28.1616C5.60023 28.3616 6.00023 28.4616 6.40023 28.4616H25.6002C27.0002 28.4616 28.1002 27.3616 28.1002 25.9616C28.1002 25.5616 28.0002 25.1616 27.8002 24.8616ZM25.5002 26.5616H6.40023C6.30023 26.5616 6.30023 26.4616 6.20023 26.4616C6.00023 26.3616 5.90023 26.2616 5.90023 26.1616C5.90023 26.0616 5.80023 25.9616 5.90023 25.7616L15.3002 6.86156C15.4002 6.66156 15.5002 6.56156 15.7002 6.46156C15.8002 6.36156 15.9002 6.36156 16.0002 6.36156C16.0002 6.36156 16.1002 6.36156 16.2002 6.46156C16.4002 6.56156 16.5002 6.66156 16.6002 6.86156L25.9002 25.8616C26.0002 25.9616 26.0002 25.9616 26.0002 26.0616C26.0002 26.3616 25.8002 26.5616 25.5002 26.5616Z" fill="#2D373D"/>
</svg>
