<svg width="32" height="33" viewBox="0 0 32 33" fill="none" xmlns="http://www.w3.org/2000/svg">
<path d="M11.0309 12.4333C11.3722 11.0682 12.2338 9.08203 13.6638 7.60155C14.8951 6.32676 16.5221 5.44173 18.6602 5.60646C18.4985 8.53539 19.214 10.2931 20.2376 11.3169C20.7911 11.8705 21.3836 12.154 21.846 12.2975C22.0764 12.369 22.2755 12.4062 22.4245 12.4256C22.4991 12.4354 22.5618 12.4407 22.6103 12.4437C22.6346 12.4451 22.6554 12.446 22.6725 12.4465L22.6952 12.447L22.7045 12.4471L22.7085 12.4471L22.7104 12.4471C22.7104 12.4471 22.7137 12.4471 22.7085 12.4471L22.7137 12.4471L22.7152 12.4471L22.7184 12.4471L22.7251 12.447L22.7404 12.4468L22.7561 12.4463L22.7777 12.4454C22.8055 12.4441 22.8393 12.4417 22.8786 12.4378C22.9573 12.4299 23.058 12.4157 23.1776 12.39C23.4173 12.3387 23.7304 12.2421 24.0897 12.0625C24.5672 11.8237 25.1084 11.4473 25.6602 10.8615C26.168 11.5633 26.683 12.355 27.0135 13.2957C27.491 14.6548 27.5682 16.3244 26.3234 18.3687C26.0361 18.8404 26.1857 19.4556 26.6574 19.7429C27.1291 20.0301 27.7443 19.8805 28.0316 19.4088C29.6096 16.8174 29.5627 14.5179 28.9004 12.6328C28.3733 11.1324 27.4421 9.89129 26.8255 9.06946C26.7038 8.90729 26.5944 8.76144 26.5027 8.63315C26.3117 8.36575 26.0015 8.20928 25.6729 8.2146C25.3443 8.21991 25.0393 8.38634 24.857 8.65978C24.2019 9.64252 23.5862 10.0782 23.1953 10.2736C22.9965 10.373 22.8444 10.416 22.7585 10.4344C22.7349 10.4395 22.7161 10.4427 22.7025 10.4448L22.6832 10.4424C22.6315 10.4357 22.5458 10.4206 22.4389 10.3874C22.2269 10.3216 21.9356 10.1865 21.6519 9.90274C21.1093 9.36006 20.3759 8.04 20.7293 4.859C20.7866 4.34347 20.4402 3.86973 19.9315 3.768C16.556 3.09287 13.9933 4.38159 12.2253 6.21209C10.7299 7.76027 9.78116 9.70776 9.29025 11.2483C9.1079 11.1804 8.88304 11.0546 8.627 10.8655C8.03996 10.4318 7.4738 9.80354 7.13973 9.35812C6.82129 8.93353 6.22662 8.83167 5.78502 9.12607C3.70015 10.516 2.82201 12.5637 2.68915 14.51C2.55903 16.4161 3.13592 18.3012 4.05929 19.4992C4.39644 19.9366 5.02437 20.0179 5.4618 19.6808C5.89923 19.3436 5.98051 18.7157 5.64336 18.2783C5.04905 17.5072 4.58405 16.1177 4.68451 14.6462C4.76529 13.4629 5.20632 12.2785 6.19695 11.3433C6.55483 11.731 6.98153 12.1365 7.43862 12.4741C7.83284 12.7654 8.29615 13.0411 8.79452 13.1905C9.30154 13.3425 9.91502 13.3817 10.508 13.0852C10.7691 12.9546 10.9601 12.7165 11.0309 12.4333Z" fill="#2D373D"/>
<path d="M23.9705 22.3033L15.9718 14.5402C15.2526 15.2263 14.0731 16.3935 12.8005 17.653L12.1986 18.2486C10.6125 19.8175 8.97249 21.4338 8.01197 22.3205C7.60616 22.6951 6.9735 22.6698 6.59888 22.264C6.22427 21.8582 6.24955 21.2256 6.65536 20.8509C7.58453 19.9932 9.19591 18.4057 10.7921 16.8267L11.394 16.2311C12.763 14.8762 14.0497 13.6028 14.7637 12.9296C15.5075 12.2283 16.5592 12.3232 17.2229 12.9674L25.3635 20.8681C25.7598 21.2528 25.7692 21.8859 25.3846 22.2822C25 22.6785 24.3669 22.688 23.9705 22.3033Z" fill="#2D373D"/>
<path d="M23.3051 22.9193C23.3051 22.367 22.8574 21.9193 22.3051 21.9193C21.7528 21.9193 21.3051 22.367 21.3051 22.9193L21.3051 28.2517H18.8015V24.2528C18.8015 23.3323 18.0553 22.5861 17.1348 22.5861H14.859C13.9385 22.5861 13.1923 23.3323 13.1923 24.2528V28.2518L10.6952 28.2518L10.6952 22.9194C10.6952 22.3671 10.2475 21.9194 9.69517 21.9194C9.14288 21.9194 8.69517 22.3671 8.69517 22.9194L8.69516 28.2572C8.69508 28.4808 8.695 28.7242 8.71743 28.9262C8.74037 29.1325 8.80483 29.5172 9.11721 29.8297C9.42961 30.1421 9.81431 30.2066 10.0207 30.2296C10.2227 30.252 10.4663 30.2519 10.6899 30.2519L14.1923 30.2518C14.7446 30.2518 15.1923 29.8041 15.1923 29.2518V24.5861H16.8015V29.2517C16.8015 29.804 17.2492 30.2517 17.8015 30.2517L21.3104 30.2518C21.534 30.2519 21.7774 30.252 21.9794 30.2295C22.1858 30.2066 22.5706 30.1422 22.883 29.8297C23.1954 29.5173 23.2599 29.1325 23.2828 28.9261C23.3053 28.7242 23.3052 28.4807 23.3051 28.2571L23.3051 22.9193Z" fill="#2D373D"/>
<path d="M22.9728 17.8359C22.4205 17.8359 21.9728 17.3882 21.9728 16.8359L21.9728 15.2533H20.3903C19.838 15.2533 19.3903 14.8055 19.3903 14.2533C19.3903 13.701 19.838 13.2533 20.3903 13.2533H22.9728C23.5251 13.2533 23.9728 13.701 23.9728 14.2533L23.9728 16.8359C23.9728 17.3882 23.5251 17.8359 22.9728 17.8359Z" fill="#2D373D"/>
</svg>
