<svg width="16" height="17" viewBox="0 0 16 17" fill="none" xmlns="http://www.w3.org/2000/svg">
<path d="M13.5503 11.1609L11.9503 9.56094C11.4003 9.01094 10.5003 9.01094 9.9503 9.56094C9.8003 9.71094 9.5503 9.71094 9.4003 9.56094L6.8503 7.01094C6.7003 6.81094 6.7003 6.56094 6.8503 6.41094C7.4003 5.86094 7.4003 4.96094 6.8503 4.41094L5.3003 2.81094C4.7503 2.26094 3.8503 2.26094 3.3003 2.81094L2.9003 3.21094C1.8003 4.26094 1.6003 5.91094 2.4503 7.21094C4.2503 9.91094 6.5503 12.1609 9.2003 13.9609C9.7503 14.3109 10.3503 14.4609 10.9503 14.4609C11.7503 14.4609 12.6003 14.1609 13.1503 13.5609L13.5503 13.1609C14.1003 12.6109 14.1003 11.7109 13.5503 11.1609ZM12.9003 12.4109L12.5003 12.8109C11.8003 13.5609 10.6503 13.6609 9.7503 13.1109C7.2003 11.4109 5.0003 9.21094 3.3003 6.66094C2.7503 5.81094 2.8503 4.66094 3.6003 3.91094L3.9503 3.51094C4.1503 3.36094 4.4003 3.36094 4.5503 3.51094L6.1503 5.16094C6.3003 5.31094 6.3003 5.56094 6.1503 5.71094C5.6003 6.26094 5.6003 7.16094 6.1503 7.71094L8.7003 10.2109C9.2503 10.7609 10.1503 10.7609 10.7003 10.2109C10.9003 10.0609 11.1503 10.0609 11.3003 10.2109L12.9003 11.8109C13.0503 12.0109 13.0503 12.2609 12.9003 12.4109Z" fill="#2D373D"/>
</svg>
