<svg width="24" height="25" viewBox="0 0 24 25" fill="none" xmlns="http://www.w3.org/2000/svg">
<path d="M11.75 13.4619H11.1V12.7019C11.1 11.8319 10.74 10.9819 10.09 10.3719C8.81 9.15187 6.59 9.14187 5.31 10.3719C4.66 10.9819 4.3 11.8319 4.3 12.7019V13.4619H3.65C2.74 13.4619 2 14.1819 2 15.0719V21.3119C2 22.2019 2.74 22.9219 3.65 22.9219H11.75C12.66 22.9219 13.4 22.2019 13.4 21.3119V15.0719C13.4 14.1819 12.66 13.4619 11.75 13.4619ZM5.8 12.7019C5.8 12.2319 5.99 11.7919 6.34 11.4519C7.05 10.7719 8.35 10.7819 9.06 11.4519C9.41 11.7919 9.6 12.2319 9.6 12.7019V13.4619H5.8V12.7019ZM11.9 21.3119C11.9 21.3119 11.84 21.4219 11.75 21.4219H3.65C3.56 21.4219 3.5 21.3619 3.5 21.3119V15.0719C3.5 15.0219 3.56 14.9619 3.65 14.9619H11.75C11.84 14.9619 11.9 15.0219 11.9 15.0719V21.3119Z" fill="#2D373D"/>
<path d="M9.3 19.0619C9.23 19.3419 9.06 19.5819 8.82 19.7519C8.64 19.8819 8.41 19.9519 8.19 19.9719C8.14 20.2019 7.94 20.3719 7.7 20.3719C7.46 20.3719 7.27 20.2119 7.22 19.9919H6.8C6.52 19.9919 6.3 19.7719 6.3 19.4919C6.3 19.2119 6.52 18.9919 6.8 18.9919H8.02C8.1 18.9919 8.19 18.9719 8.25 18.9319C8.29 18.9019 8.32 18.8719 8.32 18.8419C8.28 18.7319 8.23 18.7019 8.16 18.6819L6.92 18.2619C6.64 18.1719 6.41 17.9919 6.25 17.7619C6.09 17.5119 6.04 17.2119 6.1 16.9219C6.17 16.6519 6.34 16.4019 6.58 16.2419C6.77 16.1119 6.98 16.0319 7.21 16.0119C7.26 15.7819 7.46 15.6219 7.7 15.6219C7.94 15.6219 8.13 15.7719 8.18 15.9919H8.6C8.88 15.9919 9.1 16.2219 9.1 16.4919C9.1 16.7619 8.88 16.9919 8.6 16.9919H7.38C7.29 16.9919 7.21 17.0219 7.15 17.0619C7.1 17.0919 7.08 17.1319 7.08 17.1519C7.12 17.2519 7.17 17.2919 7.24 17.3119L8.48 17.7319C8.76 17.8219 8.99 18.0019 9.14 18.2319C9.31 18.4819 9.36 18.7819 9.3 19.0619Z" fill="#2D373D"/>
<path d="M16.25 2.92188C13.08 2.92188 10.5 5.50187 10.5 8.67188C10.5 11.8419 13.08 14.4219 16.25 14.4219C19.42 14.4219 22 11.8419 22 8.67188C22 5.50187 19.42 2.92188 16.25 2.92188ZM16.25 4.42188C18.05 4.42188 19.6 5.55187 20.21 7.14187H12.29C12.9 5.55187 14.45 4.42188 16.25 4.42188ZM18.72 8.55188C18.72 8.91188 18.42 9.20188 18.07 9.20188C17.72 9.20188 17.42 8.91188 17.42 8.55188C17.42 8.19188 17.71 7.91187 18.07 7.91187C18.43 7.91187 18.72 8.20188 18.72 8.55188ZM14.7 8.55188C14.7 8.91188 14.41 9.20188 14.05 9.20188C13.69 9.20188 13.4 8.91188 13.4 8.55188C13.4 8.19188 13.69 7.91187 14.05 7.91187C14.41 7.91187 14.7 8.20188 14.7 8.55188ZM16.25 12.9219C14.45 12.9219 12.9 11.7919 12.29 10.2019H20.21C19.6 11.7919 18.05 12.9219 16.25 12.9219Z" fill="#2D373D"/>
<path d="M16.96 6.73187C16.74 6.73187 16.53 6.58187 16.47 6.35187C16.4 6.08187 16.57 5.81187 16.83 5.74187L18.33 5.36188C18.59 5.29188 18.87 5.46187 18.94 5.72187C19.01 5.99187 18.84 6.26187 18.58 6.33187L17.08 6.71187C17.08 6.71187 17 6.73187 16.96 6.73187Z" fill="#2D373D"/>
<path d="M15.36 6.76187C15.36 6.76187 15.27 6.76187 15.22 6.74187L13.73 6.31188C13.46 6.23188 13.31 5.96187 13.39 5.69187C13.47 5.43187 13.74 5.27188 14.01 5.35188L15.5 5.78187C15.77 5.86187 15.92 6.13188 15.84 6.40188C15.78 6.62188 15.58 6.76187 15.36 6.76187Z" fill="#2D373D"/>
<path d="M15.31 12.6619C15.23 12.6619 15.14 12.6419 15.06 12.6019C14.82 12.4619 14.73 12.1619 14.87 11.9219C15.43 10.9319 16.77 10.0819 18.86 10.6619C19.13 10.7319 19.28 11.0119 19.21 11.2819C19.14 11.5519 18.86 11.7119 18.59 11.6319C16.67 11.1019 15.92 12.1019 15.74 12.4219C15.65 12.5819 15.48 12.6719 15.3 12.6719L15.31 12.6619Z" fill="#2D373D"/>
</svg>
