<svg width="32" height="33" viewBox="0 0 32 33" fill="none" xmlns="http://www.w3.org/2000/svg">
<path d="M18.0999 22.061H15.2999C14.8999 20.461 13.2999 19.161 11.4999 19.161H5.8999V18.561C5.8999 17.961 5.4999 17.561 4.8999 17.561C4.2999 17.561 3.8999 17.961 3.8999 18.561V27.461C3.8999 28.061 4.2999 28.461 4.8999 28.461C5.4999 28.461 5.8999 28.061 5.8999 27.461V27.061H21.0999C21.6999 27.061 22.0999 26.561 22.0999 26.061C22.0999 24.961 21.5999 23.961 20.8999 23.261C20.0999 22.461 19.1999 22.061 18.0999 22.061ZM5.8999 25.061V21.161H11.4999C12.1999 21.161 12.8999 21.561 13.1999 22.061H10.7999C10.1999 22.061 9.7999 22.461 9.7999 23.061C9.7999 23.661 10.1999 24.061 10.7999 24.061H18.1999C18.8999 24.061 19.5999 24.461 19.8999 25.061H5.8999Z" fill="#2D373D"/>
<path d="M22.6002 4.46094C19.6002 4.46094 17.2002 6.86094 17.2002 9.86094C17.2002 12.8609 19.6002 15.2609 22.6002 15.2609C25.6002 15.2609 28.0002 12.7609 28.0002 9.86094C28.0002 6.86094 25.6002 4.46094 22.6002 4.46094ZM22.6002 13.1609C20.7002 13.1609 19.2002 11.6609 19.2002 9.76094C19.2002 7.86094 20.7002 6.36094 22.6002 6.36094C24.5002 6.36094 26.0002 7.86094 26.0002 9.76094C26.0002 11.6609 24.5002 13.1609 22.6002 13.1609Z" fill="#2D373D"/>
<path d="M22.7002 16.1609C22.1002 16.1609 21.7002 16.5609 21.7002 17.1609C21.7002 18.2609 20.8002 19.1609 19.7002 19.1609C18.6002 19.1609 17.7002 18.2609 17.7002 17.1609C17.7002 16.6609 17.9002 16.2609 18.2002 15.8609C18.6002 15.4609 18.5002 14.8609 18.1002 14.4609C17.7002 14.0609 17.1002 14.1609 16.7002 14.5609C16.1002 15.2609 15.7002 16.1609 15.7002 17.1609C15.7002 19.3609 17.5002 21.1609 19.7002 21.1609C21.8002 21.1609 23.6002 19.3609 23.7002 17.1609C23.7002 16.5609 23.3002 16.1609 22.7002 16.1609Z" fill="#2D373D"/>
</svg>
