<svg width="32" height="33" viewBox="0 0 32 33" fill="none" xmlns="http://www.w3.org/2000/svg">
<path fill-rule="evenodd" clip-rule="evenodd" d="M5.3335 12.7951C5.88578 12.7951 6.3335 13.2428 6.3335 13.7951V17.7951C6.3335 21.6611 9.4675 24.7951 13.3335 24.7951H17.3335C21.1995 24.7951 24.3335 21.6611 24.3335 17.7951V13.7951C24.3335 13.2428 24.7812 12.7951 25.3335 12.7951C25.8858 12.7951 26.3335 13.2428 26.3335 13.7951V17.7951C26.3335 22.7656 22.3041 26.7951 17.3335 26.7951H13.3335C8.36293 26.7951 4.3335 22.7656 4.3335 17.7951V13.7951C4.3335 13.2428 4.78121 12.7951 5.3335 12.7951Z" fill="#2D373D"/>
<path fill-rule="evenodd" clip-rule="evenodd" d="M16.0002 24.7951C16.5524 24.7951 17.0002 25.2428 17.0002 25.7951V29.1284C17.0002 29.6807 16.5524 30.1284 16.0002 30.1284C15.4479 30.1284 15.0002 29.6807 15.0002 29.1284V25.7951C15.0002 25.2428 15.4479 24.7951 16.0002 24.7951Z" fill="#2D373D"/>
<path fill-rule="evenodd" clip-rule="evenodd" d="M15.5823 3.12844L15.5867 3.12842L15.7215 3.12843C16.7666 3.13001 17.798 3.36555 18.7401 3.81776C19.6822 4.26997 20.5111 4.92739 21.166 5.74176C21.5121 6.17215 21.4438 6.80162 21.0134 7.14772C20.583 7.49381 19.9535 7.42548 19.6074 6.99509C19.1396 6.4134 18.5476 5.94382 17.8746 5.62081C17.2019 5.2979 16.4654 5.12966 15.7192 5.12843H15.589C14.2502 5.13483 12.968 5.66952 12.0212 6.61627C11.0745 7.56301 10.5398 8.84522 10.5334 10.1841V15.8856C10.5357 16.2832 10.5844 16.6791 10.6784 17.0654C10.8089 17.602 10.4797 18.1429 9.94307 18.2734C9.40644 18.404 8.86558 18.0748 8.73504 17.5381C8.60407 16.9998 8.53639 16.4479 8.53338 15.8939L8.53337 15.8884V10.1774C8.54154 8.3104 9.28682 6.52222 10.607 5.20205C11.9272 3.88189 13.7153 3.13661 15.5823 3.12844Z" fill="#2D373D"/>
<path fill-rule="evenodd" clip-rule="evenodd" d="M20.7601 15.8862V10.9018H22.7601V15.8884L22.7601 15.8928C22.752 17.7571 22.0089 19.543 20.692 20.8627C19.3752 22.1824 17.591 22.9295 15.7267 22.9418L15.7201 22.9418L15.59 22.9418C14.0839 22.9512 12.6144 22.4773 11.3975 21.5897C11.2032 21.4476 11.0184 21.2909 10.8465 21.1223L12.2471 19.6946C12.3501 19.7956 12.4603 19.8891 12.5768 19.9743C13.4485 20.61 14.5012 20.9491 15.5801 20.9418L15.5868 20.9418L15.7167 20.9418C17.0532 20.9322 18.3322 20.3962 19.2763 19.45C20.2206 18.5036 20.7538 17.2231 20.7601 15.8862Z" fill="#2D373D"/>
<path fill-rule="evenodd" clip-rule="evenodd" d="M26.7073 5.75464C27.0978 6.14517 27.0978 6.77833 26.7073 7.16886L6.0406 27.8355C5.65008 28.226 5.01691 28.226 4.62639 27.8355C4.23587 27.445 4.23587 26.8118 4.62639 26.4213L25.2931 5.75464C25.6836 5.36412 26.3167 5.36412 26.7073 5.75464Z" fill="#2D373D"/>
</svg>
