<svg width="32" height="32" viewBox="0 0 32 32" fill="none" xmlns="http://www.w3.org/2000/svg">
<path d="M12.1999 22.9999H6.2999C6.1999 22.9999 5.9999 22.8999 5.9999 22.8999C5.9999 22.8999 5.8999 22.7999 5.8999 22.5999V10.2999H24.6999V14.4999C24.6999 15.0999 25.0999 15.4999 25.6999 15.4999C26.2999 15.4999 26.6999 15.0999 26.6999 14.4999V6.3999C26.6999 4.9999 25.5999 3.8999 24.1999 3.8999H6.3999C5.6999 3.8999 5.0999 4.1999 4.5999 4.5999C4.1999 5.0999 3.8999 5.6999 3.8999 6.3999V22.5999C3.8999 23.2999 4.1999 23.8999 4.6999 24.3999C5.0999 24.7999 5.6999 25.0999 6.3999 25.0999C6.3999 25.0999 6.3999 25.0999 6.3999 24.9999H12.1999C12.7999 24.9999 13.1999 24.5999 13.1999 23.9999C13.1999 23.3999 12.7999 22.9999 12.1999 22.9999ZM5.9999 5.9999C6.0999 5.9999 6.1999 5.8999 6.3999 5.8999H24.1999C24.4999 5.8999 24.6999 6.0999 24.6999 6.3999V8.2999H5.8999V6.3999C5.8999 6.1999 5.8999 5.9999 5.9999 5.9999Z" fill="#2D373D"/>
<path d="M20.3999 23.6999C20.1999 23.8999 20.0999 24.0999 20.0999 24.3999C20.0999 24.6999 20.1999 24.8999 20.3999 25.0999C20.5999 25.2999 20.7999 25.3999 21.0999 25.3999C21.3999 25.3999 21.5999 25.2999 21.7999 25.0999C21.9999 24.8999 22.0999 24.6999 22.0999 24.3999C22.0999 24.0999 21.9999 23.8999 21.7999 23.6999C21.3999 23.2999 20.7999 23.2999 20.3999 23.6999Z" fill="#2D373D"/>
<path d="M21.0999 17.8999C20.4999 17.8999 20.0999 18.2999 20.0999 18.8999V21.8999C20.0999 22.4999 20.4999 22.8999 21.0999 22.8999C21.6999 22.8999 22.0999 22.3999 22.0999 21.8999V18.8999C22.0999 18.2999 21.6999 17.8999 21.0999 17.8999Z" fill="#2D373D"/>
<path d="M27.8998 24.0998L23.6998 15.7998C23.4998 15.2998 22.9998 14.8998 22.4998 14.5998C21.0998 13.8998 19.4998 14.3998 18.7998 15.7998L14.5998 24.0998C14.3998 24.3998 14.2998 24.8998 14.2998 25.2998C14.2998 26.7998 15.4998 27.9998 16.9998 27.9998H25.2998C25.6998 27.9998 26.0998 27.8998 26.5998 27.7998C27.2998 27.4998 27.7998 26.8998 27.9998 26.1998C28.2998 25.4998 28.1998 24.7998 27.8998 24.0998ZM25.7998 25.3998C25.6998 25.5998 25.5998 25.6998 25.3998 25.7998C25.2998 25.8998 25.1998 25.8998 25.0998 25.8998H16.7998C16.3998 25.8998 16.0998 25.5998 16.0998 25.1998C16.0998 25.0998 16.0998 24.9998 16.1998 24.8998L20.3998 16.5998C20.5998 16.3998 20.7998 16.1998 21.0998 16.1998C21.1998 16.1998 21.3998 16.2998 21.2998 16.1998C21.3998 16.1998 21.4998 16.3998 21.5998 16.4998L25.7998 24.7998C25.7998 24.9998 25.8998 25.1998 25.7998 25.3998Z" fill="#2D373D"/>
</svg>
