<svg width="16" height="17" viewBox="0 0 16 17" fill="none" xmlns="http://www.w3.org/2000/svg">
<path d="M5.7892 2.25391H7.46584C7.38587 3.81533 7.30607 5.37679 7.22629 6.93824H4.79629L5.7892 2.25391Z" fill="#2D373D"/>
<path d="M11.2033 6.93824C10.8724 5.37679 10.5413 3.81533 10.2101 2.25391H8.53346L8.77324 6.93824H11.2033Z" fill="#2D373D"/>
<path d="M8.90078 9.43099C9.00592 11.4831 9.11094 13.5351 9.21592 15.5872H13.0367C12.6457 13.7431 12.2549 11.8991 11.8641 10.055L11.7318 9.43099H8.90078Z" fill="#2D373D"/>
<path d="M2.96261 15.5872H6.7834C6.88878 13.5351 6.99379 11.4831 7.09867 9.43099H4.26794C3.83297 11.4831 3.39794 13.5351 2.96261 15.5872Z" fill="#2D373D"/>
<path d="M14.5116 7.58594C14.5971 7.58594 14.6664 7.65837 14.6663 7.74772V8.62234C14.6663 8.71169 14.5971 8.78412 14.5116 8.78412H13.6741V10.0942C13.6741 10.1835 13.6049 10.256 13.5193 10.256H12.6838C12.613 10.256 12.5512 10.2058 12.5338 10.1341L12.2056 8.78419H3.79373L3.46548 10.1341C3.4481 10.2057 3.38635 10.256 3.31557 10.256H2.47987C2.39441 10.256 2.32517 10.1835 2.32517 10.0942V8.78412H1.48774C1.40228 8.78412 1.33301 8.71169 1.33301 8.62234V7.74772C1.33301 7.65837 1.40228 7.58594 1.48774 7.58594H14.5116Z" fill="#2D373D"/>
</svg>
