<svg width="16" height="17" viewBox="0 0 16 17" fill="none" xmlns="http://www.w3.org/2000/svg">
<path d="M13.7423 7.56971L12.8383 6.67471L13.6514 5.86969C13.8484 5.67469 13.8484 5.35969 13.6514 5.16469L11.313 2.84969C11.116 2.65469 10.7979 2.65469 10.6009 2.84969L9.78776 3.65469L8.69685 2.57469C8.60089 2.47969 8.47463 2.42969 8.33827 2.42969H5.27261C3.89888 2.42969 2.78271 3.53469 2.78271 4.89469V13.9947C2.78271 14.7847 3.42918 15.4247 4.22716 15.4247H12.4443C13.2423 15.4247 13.8888 14.7847 13.8888 13.9947V7.92471C13.8888 7.78971 13.8332 7.66471 13.7423 7.56971ZM10.9544 3.90969L12.5756 5.51469L12.1211 5.96471L10.4999 4.35969L10.9544 3.90969ZM12.8787 13.9947C12.8787 14.2347 12.6817 14.4247 12.4443 14.4247H4.22211C3.97968 14.4247 3.78777 14.2297 3.78777 13.9947V4.88969C3.78777 4.07969 4.45443 3.42469 5.26756 3.42469H8.12109L12.8736 8.12971V13.9897L12.8787 13.9947Z" fill="#2D373D"/>
<path d="M8.60089 7.20471C8.51503 7.03471 8.34332 6.92471 8.1514 6.92471C7.95443 6.90971 7.78271 7.02971 7.69685 7.19471L6.1312 10.2197C5.60089 11.2397 5.96453 12.5047 6.98473 13.1097C7.33827 13.3197 7.73221 13.4247 8.12109 13.4247C8.50998 13.4247 8.93928 13.3097 9.30291 13.0847C10.2575 12.4897 10.6059 11.2797 10.111 10.2747L8.60089 7.20471ZM8.76756 12.2397C8.38372 12.4797 7.89887 12.4847 7.48473 12.2397C6.94433 11.9197 6.74736 11.2347 7.03524 10.6747L8.1413 8.53971L9.212 10.7097C9.47968 11.2547 9.29281 11.9097 8.77261 12.2347L8.76756 12.2397Z" fill="#2D373D"/>
<path d="M8.33322 5.42468C8.33322 5.14968 8.10594 4.92468 7.82816 4.92468H5.30291C5.02513 4.92468 4.79786 5.14968 4.79786 5.42468C4.79786 5.69968 5.02513 5.92466 5.30291 5.92466H7.82816C8.10594 5.92466 8.33322 5.69968 8.33322 5.42468Z" fill="#2D373D"/>
</svg>
