<svg width="24" height="25" viewBox="0 0 24 25" fill="none" xmlns="http://www.w3.org/2000/svg">
<path d="M16.5749 12.4619C16.2749 12.1619 15.8249 12.1619 15.5249 12.4619L12.7499 15.1619V7.96191C12.7499 7.51191 12.4499 7.21191 11.9999 7.21191C11.5499 7.21191 11.2499 7.51191 11.2499 7.96191V15.1619L8.5499 12.4619C8.2499 12.1619 7.7999 12.1619 7.4999 12.4619C7.1999 12.7619 7.1999 13.2119 7.4999 13.5119L11.4749 17.4869C11.6249 17.6369 11.7749 17.7119 11.9999 17.7119C12.2249 17.7119 12.3749 17.6369 12.5249 17.4869L16.5749 13.5119C16.8749 13.2119 16.8749 12.7619 16.5749 12.4619Z" fill="#2D373D"/>
</svg>
