<svg width="32" height="33" viewBox="0 0 32 33" fill="none" xmlns="http://www.w3.org/2000/svg">
<path d="M10.9032 12.648C11.1676 12.3835 11.5262 12.235 11.9002 12.235C12.179 12.235 12.4517 12.3177 12.6835 12.4726C12.9154 12.6275 13.0961 12.8478 13.2028 13.1054C13.3096 13.363 13.3375 13.6466 13.2831 13.9201C13.2287 14.1936 13.0944 14.4448 12.8972 14.642C12.7 14.8392 12.4488 14.9735 12.1753 15.0279C11.9017 15.0823 11.6182 15.0544 11.3606 14.9477C11.1029 14.8409 10.8827 14.6602 10.7278 14.4283C10.5729 14.1965 10.4902 13.9239 10.4902 13.645C10.4902 13.271 10.6387 12.9124 10.9032 12.648Z" fill="#2D373D"/>
<path d="M20.1002 12.235C19.7262 12.235 19.3676 12.3835 19.1032 12.648C18.8387 12.9124 18.6902 13.271 18.6902 13.645C18.6902 13.9239 18.7729 14.1965 18.9278 14.4283C19.0827 14.6602 19.303 14.8409 19.5606 14.9477C19.8182 15.0544 20.1018 15.0823 20.3753 15.0279C20.6488 14.9735 20.9 14.8392 21.0972 14.642C21.2944 14.4448 21.4287 14.1936 21.4831 13.9201C21.5375 13.6466 21.5096 13.363 21.4029 13.1054C21.2961 12.8478 21.1154 12.6275 20.8835 12.4726C20.6517 12.3177 20.3791 12.235 20.1002 12.235Z" fill="#2D373D"/>
<path d="M10.2794 19.7609C10.0342 19.2661 9.43421 19.0637 8.93935 19.3089C8.44448 19.5541 8.2421 20.1541 8.48731 20.6489C9.18073 22.0483 10.2513 23.2262 11.5784 24.0497C12.9055 24.8731 14.4362 25.3095 15.998 25.3095C17.5598 25.3095 19.0905 24.8731 20.4176 24.0497C21.7447 23.2262 22.8153 22.0483 23.5087 20.6489C23.7539 20.1541 23.5515 19.5541 23.0567 19.3089C22.5618 19.0637 21.9619 19.2661 21.7166 19.7609C21.1887 20.8265 20.3735 21.7233 19.3631 22.3503C18.3527 22.9773 17.1872 23.3095 15.998 23.3095C14.8089 23.3095 13.6434 22.9773 12.6329 22.3503C11.6225 21.7233 10.8073 20.8265 10.2794 19.7609Z" fill="#2D373D"/>
<path fill-rule="evenodd" clip-rule="evenodd" d="M16.0002 3.625C12.4728 3.625 9.08991 5.02625 6.59568 7.52048C4.10144 10.0147 2.7002 13.3976 2.7002 16.925C2.7002 20.4524 4.10144 23.8353 6.59568 26.3295C9.08991 28.8238 12.4728 30.225 16.0002 30.225C19.5276 30.225 22.9105 28.8238 25.4047 26.3295C27.899 23.8353 29.3002 20.4524 29.3002 16.925C29.3002 13.3976 27.899 10.0147 25.4047 7.52048C22.9105 5.02625 19.5276 3.625 16.0002 3.625ZM8.00989 8.93469C10.1291 6.81553 13.0032 5.625 16.0002 5.625C18.9971 5.625 21.8713 6.81553 23.9905 8.93469C26.1097 11.0539 27.3002 13.9281 27.3002 16.925C27.3002 19.9219 26.1097 22.7961 23.9905 24.9153C21.8713 27.0345 18.9971 28.225 16.0002 28.225C13.0032 28.225 10.129 27.0345 8.00989 24.9153C5.89073 22.7961 4.7002 19.9219 4.7002 16.925C4.7002 13.9281 5.89073 11.0539 8.00989 8.93469Z" fill="#2D373D"/>
</svg>
