<svg width="16" height="17" viewBox="0 0 16 17" fill="none" xmlns="http://www.w3.org/2000/svg">
<path d="M10.1501 5.56077C10.1501 4.36077 9.2001 3.41077 8.0001 3.41077C6.8001 3.41077 5.8501 4.36077 5.8501 5.56077C5.8501 6.76077 6.8001 7.71077 8.0001 7.71077C9.1501 7.71077 10.1501 6.76077 10.1501 5.56077ZM6.8501 5.56077C6.8501 4.91077 7.3501 4.41077 8.0001 4.41077C8.6001 4.41077 9.1501 4.91077 9.1501 5.56077C9.1501 6.21077 8.6501 6.71077 8.0001 6.71077C7.3501 6.71077 6.8501 6.21077 6.8501 5.56077Z" fill="#2D373D"/>
<path d="M7.45015 11.4107C7.60015 11.5607 7.80015 11.6107 8.00015 11.6107C8.25015 11.6107 8.50015 11.5107 8.70015 11.2607C9.85015 9.81074 11.8001 7.11074 11.8001 5.56074C11.8001 3.46074 10.1001 1.76074 8.00015 1.76074C5.90015 1.76074 4.15015 3.46074 4.15015 5.56074C4.15015 7.11074 6.10015 9.81074 7.30015 11.2607C7.35015 11.3107 7.40015 11.3607 7.45015 11.4107ZM8.00015 2.76074C9.55015 2.76074 10.8001 4.01074 10.7501 5.56074C10.7501 6.61074 9.30015 8.81074 7.95015 10.5607C6.20015 8.36074 5.15015 6.46074 5.15015 5.56074C5.15015 4.01074 6.45015 2.76074 8.00015 2.76074Z" fill="#2D373D"/>
<path d="M8.9001 13.8607C8.9001 13.6107 8.8001 13.4607 8.6001 13.4107L7.9001 12.7107C7.7001 12.5107 7.4001 12.5107 7.2001 12.7107C7.0501 12.8607 7.0001 13.1107 7.1501 13.3107C4.7001 13.1107 3.1001 12.2107 3.1001 11.3607C3.1001 10.9107 3.6001 10.4107 4.4501 10.0107C4.7001 9.91071 4.8001 9.61071 4.7001 9.36071C4.6001 9.11071 4.3001 9.01071 4.0501 9.11071C2.8001 9.66071 2.1001 10.4607 2.1001 11.3607C2.1001 12.9107 4.2501 14.1607 7.2001 14.3107C7.0001 14.5107 7.0001 14.8107 7.2001 15.0107C7.3001 15.1107 7.4001 15.1607 7.5501 15.1607C7.7001 15.1607 7.8001 15.1107 7.9001 15.1107L8.7501 14.2607C8.9001 14.1607 8.9001 14.0107 8.9001 13.8607Z" fill="#2D373D"/>
<path d="M11.8501 9.11071C11.6001 9.01071 11.3001 9.11071 11.2001 9.36071C11.1001 9.61071 11.2001 9.91071 11.4501 10.0107C12.3001 10.4107 12.8001 10.9107 12.8001 11.3607C12.8001 12.0107 11.8001 12.7107 10.3001 13.0607C10.0501 13.1107 9.90007 13.4107 9.95007 13.6607C10.0001 13.9107 10.2001 14.0607 10.4501 14.0607H10.5001C12.5501 13.5607 13.8001 12.5607 13.8001 11.3607C13.8001 10.4607 13.1001 9.66071 11.8501 9.11071Z" fill="#2D373D"/>
</svg>
