<svg width="24" height="24" viewBox="0 0 24 24" fill="none" xmlns="http://www.w3.org/2000/svg">
<path d="M21.3752 16.9501H2.7002C2.2502 16.9501 1.9502 17.2501 1.9502 17.7001C1.9502 18.1501 2.2502 18.4501 2.7002 18.4501H21.3752C21.7502 18.4501 22.1252 18.1501 22.1252 17.7001C22.1252 17.2501 21.8252 16.9501 21.3752 16.9501Z" fill="#2D373D"/>
<path d="M21.3752 11.2501H2.7002C2.2502 11.2501 1.9502 11.5501 1.9502 12.0001C1.9502 12.4501 2.2502 12.7501 2.7002 12.7501H21.3752C21.7502 12.7501 22.1252 12.4501 22.1252 12.0001C22.1252 11.5501 21.8252 11.2501 21.3752 11.2501Z" fill="#2D373D"/>
<path d="M2.7002 6.9751H21.3752C21.7502 6.9751 22.1252 6.6751 22.1252 6.2251C22.1252 5.7751 21.8252 5.4751 21.3752 5.4751H2.7002C2.2502 5.4751 1.9502 5.7751 1.9502 6.2251C1.9502 6.6751 2.2502 6.9751 2.7002 6.9751Z" fill="#2D373D"/>
</svg>
