<svg width="24" height="25" viewBox="0 0 24 25" fill="none" xmlns="http://www.w3.org/2000/svg">
<path fill-rule="evenodd" clip-rule="evenodd" d="M8.70621 3.92188C7.70389 3.92188 6.74263 4.31894 6.03388 5.02571C5.55194 5.50631 5.21361 6.10334 5.04642 6.75051H4.85169C4.43701 6.75051 4.10085 7.08573 4.10085 7.49926C4.10085 7.91278 4.43701 8.24801 4.85169 8.24801H4.96852C5.08748 9.04129 5.45824 9.78145 6.03388 10.3555C6.5264 10.8466 7.14085 11.1882 7.80628 11.3509C7.002 11.4827 6.2339 11.7892 5.55404 12.2505C4.76665 12.7848 4.12272 13.5096 3.67789 14.3584C3.23312 15.2072 3.00064 16.1545 3 17.1161C2.99973 17.5296 3.33567 17.865 3.75035 17.8653C4.16503 17.8656 4.50141 17.5306 4.50169 17.117C4.50216 16.3951 4.67682 15.6855 5.00881 15.052C5.34074 14.4186 5.81898 13.882 6.39883 13.4886C6.97854 13.0952 7.64229 12.8567 8.33066 12.7926C9.019 12.7284 9.71266 12.8404 10.3501 13.1195C10.7298 13.2857 11.1728 13.1135 11.3394 12.7348C11.5061 12.3562 11.3334 11.9145 10.9537 11.7483C10.5213 11.559 10.0693 11.4258 9.60806 11.3505C10.2728 11.1876 10.8865 10.8462 11.3785 10.3555C11.9542 9.78145 12.3249 9.04129 12.4439 8.24801H12.5603C12.975 8.24801 13.3112 7.91278 13.3112 7.49926C13.3112 7.08573 12.975 6.75051 12.5603 6.75051H12.366C12.1988 6.10334 11.8605 5.50631 11.3785 5.02571C10.6698 4.31894 9.70853 3.92188 8.70621 3.92188ZM10.7795 6.75051C10.6676 6.50498 10.5116 6.27899 10.3167 6.0846C10.2308 5.99896 10.1388 5.92086 10.0416 5.85073L10.0543 6.75051H10.7795ZM9.03465 5.44311C8.92652 5.4274 8.81678 5.41938 8.70621 5.41938C8.59676 5.41938 8.48811 5.42724 8.38104 5.44264L8.38104 6.75051H9.05304L9.03465 5.44311ZM7.37992 5.8442C7.27941 5.91599 7.1843 5.99629 7.09574 6.0846C6.90081 6.27899 6.74486 6.50498 6.63292 6.75051H7.37992L7.37992 5.8442ZM6.49831 8.24801C6.59823 8.64154 6.80303 9.0047 7.09574 9.29659C7.52286 9.72252 8.10217 9.96181 8.70621 9.96181C9.31026 9.96181 9.88956 9.72252 10.3167 9.29659C10.6094 9.0047 10.8142 8.64154 10.9141 8.24801H6.49831Z" fill="#2D373D"/>
<path fill-rule="evenodd" clip-rule="evenodd" d="M15.9946 14.4543C15.5963 14.4543 15.2143 14.6121 14.9327 14.8929C14.6511 15.1738 14.4929 15.5547 14.4929 15.9518C14.4929 16.349 14.6511 16.7299 14.9327 17.0107C15.0926 17.1702 15.2848 17.2899 15.494 17.3637V18.9468C15.494 19.2225 15.7181 19.446 15.9946 19.446C16.271 19.446 16.4951 19.2225 16.4951 18.9468V17.3637C16.7043 17.2899 16.8965 17.1702 17.0564 17.0107C17.338 16.7299 17.4963 16.349 17.4963 15.9518C17.4963 15.5547 17.338 15.1738 17.0564 14.8929C16.7748 14.6121 16.3928 14.4543 15.9946 14.4543ZM15.9946 16.451C16.1273 16.451 16.2547 16.3984 16.3485 16.3048C16.4424 16.2112 16.4951 16.0842 16.4951 15.9518C16.4951 15.8194 16.4424 15.6925 16.3485 15.5989C16.2547 15.5052 16.1273 15.4527 15.9946 15.4527C15.8618 15.4527 15.7345 15.5052 15.6406 15.5989C15.5467 15.6925 15.494 15.8194 15.494 15.9518C15.494 16.0842 15.5467 16.2112 15.6406 16.3048C15.7345 16.3984 15.8618 16.451 15.9946 16.451Z" fill="#2D373D"/>
<path fill-rule="evenodd" clip-rule="evenodd" d="M12.284 13.2301C13.2415 12.2753 14.5401 11.7388 15.8943 11.7388C17.2484 11.7388 18.5471 12.2753 19.5046 13.2301C20.4621 14.185 21 15.48 21 16.8304C21 18.1807 20.4621 19.4758 19.5046 20.4306C18.5471 21.3854 17.2484 21.9219 15.8943 21.9219C14.5401 21.9219 13.2415 21.3854 12.284 20.4306C11.3265 19.4758 10.7885 18.1807 10.7885 16.8304C10.7885 15.48 11.3265 14.185 12.284 13.2301ZM15.8943 13.2363C14.9384 13.2363 14.0217 13.615 13.3458 14.289C12.6699 14.963 12.2902 15.8772 12.2902 16.8304C12.2902 17.7835 12.6699 18.6977 13.3458 19.3717C14.0217 20.0457 14.9384 20.4244 15.8943 20.4244C16.8501 20.4244 17.7668 20.0457 18.4427 19.3717C19.1186 18.6977 19.4983 17.7835 19.4983 16.8304C19.4983 15.8772 19.1186 14.963 18.4427 14.289C17.7668 13.615 16.8501 13.2363 15.8943 13.2363Z" fill="#2D373D"/>
</svg>
