<svg width="64" height="65" viewBox="0 0 64 65" fill="none" xmlns="http://www.w3.org/2000/svg">
<path fill-rule="evenodd" clip-rule="evenodd" d="M23.174 8.92188C20.5086 8.92188 17.9524 9.98365 16.0677 11.8736C14.7862 13.1588 13.8865 14.7552 13.4419 16.4858H12.924C11.8213 16.4858 10.9274 17.3822 10.9274 18.488C10.9274 19.5938 11.8213 20.4902 12.924 20.4902H13.2347C13.551 22.6116 14.5369 24.5908 16.0677 26.1259C17.3774 27.4392 19.0113 28.3527 20.7809 28.7878C18.6421 29.1401 16.5996 29.9597 14.7917 31.1933C12.6979 32.622 10.9855 34.5602 9.80265 36.8301C8.61991 39.0997 8.0017 41.6331 8 44.2042C7.99927 45.31 8.89261 46.207 9.99532 46.2078C11.098 46.2085 11.9926 45.3126 11.9933 44.2069C11.9946 42.2763 12.459 40.3788 13.3418 38.6848C14.2245 36.991 15.4962 35.5561 17.0382 34.504C18.5797 33.4521 20.3448 32.8144 22.1753 32.6428C24.0057 32.4713 25.8503 32.7708 27.5454 33.517C28.5551 33.9615 29.733 33.501 30.1762 32.4884C30.6195 31.4759 30.1603 30.2948 29.1506 29.8503C28.0007 29.3441 26.7986 28.9879 25.5722 28.7865C27.3397 28.3509 28.9718 27.438 30.2802 26.1259C31.811 24.5908 32.7969 22.6116 33.1132 20.4902H33.4229C34.5256 20.4902 35.4195 19.5938 35.4195 18.488C35.4195 17.3822 34.5256 16.4858 33.4229 16.4858H32.906C32.4615 14.7552 31.5618 13.1588 30.2802 11.8736C28.3955 9.98365 25.8393 8.92188 23.174 8.92188ZM28.6872 16.4858C28.3896 15.8293 27.9749 15.225 27.4565 14.7052C27.2282 14.4762 26.9834 14.2673 26.725 14.0798L26.7587 16.4858H28.6872ZM24.0474 12.9898C23.7598 12.9478 23.468 12.9263 23.174 12.9263C22.8829 12.9263 22.594 12.9473 22.3093 12.9885L22.3093 16.4858H24.0962L24.0474 12.9898ZM19.6471 14.0623C19.3798 14.2543 19.1269 14.469 18.8914 14.7052C18.373 15.225 17.9584 15.8293 17.6607 16.4858H19.6471L19.6471 14.0623ZM17.3027 20.4902C17.5684 21.5426 18.113 22.5137 18.8914 23.2943C20.0272 24.4333 21.5677 25.0732 23.174 25.0732C24.7802 25.0732 26.3207 24.4333 27.4565 23.2943C28.2349 22.5137 28.7795 21.5426 29.0452 20.4902H17.3027Z" fill="#2D373D"/>
<path fill-rule="evenodd" clip-rule="evenodd" d="M36.6991 31.5603C33.391 31.5603 30.7092 34.2496 30.7092 37.567V50.9152C30.7092 54.2326 33.391 56.9219 36.6991 56.9219H50.0101C53.3182 56.9219 56 54.2326 56 50.9152V37.567C56 34.2496 53.3182 31.5603 50.0101 31.5603H36.6991ZM34.7025 37.567C34.7025 36.4612 35.5964 35.5648 36.6991 35.5648H41.358V42.2389H34.7025V37.567ZM45.3512 42.2389V35.5648H50.0101C51.1128 35.5648 52.0067 36.4612 52.0067 37.567V42.2389H45.3512ZM45.3512 46.2433H52.0067V50.9152C52.0067 52.021 51.1128 52.9174 50.0101 52.9174H45.3512V46.2433ZM41.358 46.2433V52.9174H36.6991C35.5964 52.9174 34.7025 52.021 34.7025 50.9152V46.2433H41.358Z" fill="#2D373D"/>
</svg>
