<svg width="16" height="17" viewBox="0 0 16 17" fill="none" xmlns="http://www.w3.org/2000/svg">
<path d="M5.34017 2.25781C5.61631 2.25781 5.84017 2.48167 5.84017 2.75781V8.13306L6.22756 7.74775C6.42335 7.55301 6.73993 7.55387 6.93466 7.74965C7.1294 7.94544 7.12855 8.26202 6.93276 8.45676L5.69409 9.68878C5.68941 9.69347 5.68465 9.69806 5.67979 9.70255C5.63658 9.74259 5.58803 9.77359 5.53656 9.79555C5.47627 9.82132 5.40988 9.83559 5.34017 9.83559C5.30573 9.83558 5.27188 9.83208 5.2394 9.82543C5.14711 9.80658 5.0591 9.76148 4.98732 9.69009L3.74733 8.45676C3.55155 8.26202 3.5507 7.94544 3.74543 7.74965C3.94017 7.55387 4.25675 7.55301 4.45254 7.74775L4.84017 8.1333V2.75781C4.84017 2.48167 5.06403 2.25781 5.34017 2.25781Z" fill="#2D373D"/>
<path d="M10.6732 2.25781C10.9493 2.25781 11.1732 2.48167 11.1732 2.75781V4.25781C11.1732 4.53395 10.9493 4.75781 10.6732 4.75781C10.397 4.75781 10.1732 4.53395 10.1732 4.25781V2.75781C10.1732 2.48167 10.397 2.25781 10.6732 2.25781Z" fill="#2D373D"/>
<path fill-rule="evenodd" clip-rule="evenodd" d="M11.1732 6.42354L14.0889 3.52344C14.2847 3.3287 14.2856 3.01212 14.0908 2.81633C13.8961 2.62054 13.5795 2.61969 13.3837 2.81443L1.81049 14.3255C1.6147 14.5203 1.61385 14.8369 1.80858 15.0326C2.00332 15.2284 2.3199 15.2293 2.51569 15.0346L9.10483 8.48078L10.3151 9.68454C10.3199 9.68948 10.3248 9.69431 10.3298 9.69904C10.3739 9.74079 10.4238 9.77297 10.4768 9.79557C10.5371 9.82133 10.6035 9.83559 10.6732 9.83559C10.731 9.83559 10.7865 9.82578 10.8382 9.80772C10.9075 9.78356 10.9725 9.74372 11.0278 9.68819L11.0312 9.68468L12.2658 8.45676C12.4616 8.26202 12.4624 7.94544 12.2677 7.74965C12.0729 7.55387 11.7564 7.55301 11.5606 7.74775L11.1732 8.13306V6.42354ZM10.1732 7.41817L9.81384 7.77557L10.1732 8.13298V7.41817Z" fill="#2D373D"/>
<path d="M4.22905 11.3549C4.49102 11.2676 4.6326 10.9844 4.54528 10.7225C4.45795 10.4605 4.17479 10.3189 3.91282 10.4062C2.82434 10.7691 2.22107 11.2496 1.50202 11.8847C1.29505 12.0675 1.27545 12.3834 1.45826 12.5904C1.64106 12.7974 1.95704 12.817 2.16401 12.6342C2.84445 12.0332 3.32827 11.6552 4.22905 11.3549Z" fill="#2D373D"/>
<path d="M14.5199 11.5622C14.7152 11.3669 14.7152 11.0503 14.5199 10.8551C14.3246 10.6598 14.0081 10.6598 13.8128 10.8551C12.7204 11.9474 11.6086 12.202 10.5262 12.1059C9.49553 12.0143 8.49359 11.6075 7.52587 11.2145C7.43751 11.1787 7.34945 11.1429 7.26167 11.1075C7.00556 11.0042 6.71423 11.1281 6.61096 11.3842C6.50769 11.6403 6.63159 11.9317 6.88769 12.0349C6.97732 12.0711 7.06902 12.1084 7.16263 12.1466C8.10783 12.5316 9.24886 12.9964 10.4378 13.102C11.7869 13.2218 13.199 12.883 14.5199 11.5622Z" fill="#2D373D"/>
<path d="M4.55632 13.4927C4.55632 13.2166 4.78017 12.9927 5.05632 12.9927C5.6837 12.9927 6.39129 13.2505 7.06834 13.519C7.20824 13.5745 7.34872 13.6313 7.48999 13.6884C8.06685 13.9216 8.65715 14.1603 9.27507 14.3365C10.0371 14.5538 10.7976 14.6617 11.5444 14.5407C12.2816 14.4213 13.0402 14.0735 13.797 13.3208C13.9928 13.126 14.3093 13.1269 14.5041 13.3227C14.6988 13.5185 14.698 13.835 14.5022 14.0298C13.6056 14.9215 12.6593 15.3731 11.7043 15.5278C10.7592 15.6809 9.84045 15.5376 9.00083 15.2982C8.32631 15.1058 7.67429 14.8419 7.09428 14.6072L7.09274 14.6066C6.9576 14.5519 6.82637 14.4988 6.69968 14.4486C5.99466 14.1689 5.46226 13.9927 5.05632 13.9927C4.78017 13.9927 4.55632 13.7689 4.55632 13.4927Z" fill="#2D373D"/>
</svg>
