<svg width="64" height="65" viewBox="0 0 64 65" fill="none" xmlns="http://www.w3.org/2000/svg">
<path d="M41.8 30.9248H34V22.9248C34 21.7248 33.2 20.9248 32 20.9248C30.8 20.9248 30 21.7248 30 22.9248V30.9248H22C20.8 30.9248 20 31.7248 20 32.9248C20 34.1248 20.8 34.9248 22 34.9248H30V42.9248C30 44.1248 30.8 44.9248 32 44.9248C33.2 44.9248 34 43.9248 34 42.7248V34.9248H42C43 34.9248 43.8 34.1248 43.8 32.9248C43.8 31.7248 43 30.9248 41.8 30.9248Z" fill="#2D373D"/>
<path d="M31.9992 6.125C17.1992 6.125 5.19922 18.125 5.19922 32.725C5.19922 32.925 5.19922 32.925 5.19922 32.925C5.19922 40.125 7.99922 46.725 12.9992 51.925C18.1992 56.925 24.7992 59.725 31.9992 59.725C46.7992 59.725 58.7992 47.725 58.7992 32.925C58.7992 18.125 46.7992 6.125 31.9992 6.125ZM31.9992 55.725C25.7992 55.725 20.1992 53.525 15.7992 49.125C11.5992 44.925 9.19922 39.125 9.19922 33.125C9.19922 20.325 19.3992 10.125 31.9992 10.125C44.5992 10.125 54.7992 20.325 54.7992 32.925C54.7992 45.525 44.5992 55.725 31.9992 55.725Z" fill="#2D373D"/>
</svg>
