<svg width="16" height="17" viewBox="0 0 16 17" fill="none" xmlns="http://www.w3.org/2000/svg">
<path d="M10.2931 9.57377C10.2931 9.51367 10.2812 9.45417 10.258 9.39873C10.2348 9.34329 10.2008 9.29301 10.158 9.25083C10.1152 9.20865 10.0644 9.17539 10.0086 9.15301C9.95286 9.13062 9.8932 9.11955 9.8331 9.12043C9.77332 9.11953 9.71397 9.13065 9.65856 9.15311C9.60316 9.17557 9.55282 9.20893 9.51055 9.25121C9.46827 9.29348 9.43491 9.34382 9.41245 9.39922C9.38998 9.45463 9.37887 9.51398 9.37977 9.57377V10.0338C9.37889 10.0939 9.38996 10.1535 9.41235 10.2093C9.43473 10.2651 9.46798 10.3158 9.51017 10.3586C9.55235 10.4014 9.60263 10.4354 9.65807 10.4586C9.71351 10.4818 9.77301 10.4938 9.8331 10.4938C9.9551 10.4938 10.0721 10.4453 10.1584 10.359C10.2446 10.2728 10.2931 10.1558 10.2931 10.0338V9.57377Z" fill="#2D373D"/>
<path d="M6.49836 9.2485C6.58463 9.33477 6.63309 9.45177 6.63309 9.57377V10.0338C6.63309 10.1558 6.58463 10.2728 6.49836 10.359C6.4121 10.4453 6.29509 10.4938 6.17309 10.4938C6.05109 10.4938 5.93409 10.4453 5.84782 10.359C5.76156 10.2728 5.71309 10.1558 5.71309 10.0338V9.57377C5.71309 9.45177 5.76156 9.33477 5.84782 9.2485C5.93409 9.16223 6.05109 9.11377 6.17309 9.11377C6.29509 9.11377 6.4121 9.16223 6.49836 9.2485Z" fill="#2D373D"/>
<path fill-rule="evenodd" clip-rule="evenodd" d="M5.48646 11.9671H10.5198C11.0927 11.9671 11.6421 11.7395 12.0471 11.3344C12.4522 10.9294 12.6798 10.38 12.6798 9.8071C12.6798 9.23423 12.4522 8.68482 12.0471 8.27974C11.6421 7.87467 11.0927 7.64709 10.5198 7.64709H5.48646C4.91359 7.64709 4.36418 7.87467 3.95911 8.27974C3.55403 8.68482 3.32646 9.23423 3.32646 9.8071C3.32646 10.38 3.55403 10.9294 3.95911 11.3344C4.36418 11.7395 4.91359 11.9671 5.48646 11.9671ZM4.66621 8.97352C4.88376 8.75598 5.17881 8.63376 5.48646 8.63376H10.5198C10.8274 8.63376 11.1225 8.75598 11.34 8.97352C11.5576 9.19106 11.6798 9.48611 11.6798 9.79376C11.6798 10.1014 11.5576 10.3965 11.34 10.614C11.1225 10.8315 10.8274 10.9538 10.5198 10.9538H5.48646C5.17881 10.9538 4.88376 10.8315 4.66621 10.614C4.44867 10.3965 4.32646 10.1014 4.32646 9.79376C4.32646 9.48611 4.44867 9.19106 4.66621 8.97352Z" fill="#2D373D"/>
<path fill-rule="evenodd" clip-rule="evenodd" d="M8.50643 3.96568C8.55567 3.94182 8.60333 3.91438 8.64901 3.88347C8.83684 3.75637 8.98276 3.57644 9.06833 3.36641C9.15389 3.15639 9.17526 2.9257 9.12972 2.70353C9.08418 2.48136 8.97379 2.27769 8.8125 2.11826C8.6512 1.95883 8.44626 1.85081 8.22357 1.80786C8.00089 1.76491 7.77047 1.78896 7.56145 1.87696C7.35244 1.96496 7.17421 2.11297 7.04931 2.30226C6.92441 2.49156 6.85845 2.71364 6.85976 2.94042C6.85975 3.09126 6.88967 3.2406 6.9478 3.37978C7.00592 3.51897 7.09108 3.64524 7.19836 3.75128C7.28842 3.8403 7.39257 3.91357 7.50643 3.96823V4.32835C5.71034 4.41647 3.99746 5.14067 2.67977 6.38043C1.94175 7.03511 1.49343 7.95572 1.43311 8.94043C1.43311 10.9004 2.11311 13.4204 3.15977 14.0671C4.68079 14.7704 6.33735 15.1322 8.01311 15.1271C10.2064 15.1271 12.5731 14.4604 13.1664 14.0338C14.0131 13.4271 14.5598 11.4271 14.5598 8.94043C14.5598 6.03954 11.5101 4.55861 8.50643 4.34429V3.96568ZM3.40644 7.1271C4.61465 5.99216 6.20234 5.34805 7.85977 5.32043H8.00644C10.7731 5.3871 13.5798 6.65376 13.5798 8.94043C13.5798 11.5538 12.9798 12.9538 12.6064 13.2204C11.1526 13.8295 9.58923 14.1336 8.01311 14.1138C6.5168 14.1312 5.03356 13.8337 3.65977 13.2404C3.16644 12.9338 2.43311 10.9738 2.43311 8.97376C2.50397 8.25473 2.85331 7.59194 3.40644 7.1271Z" fill="#2D373D"/>
</svg>
