<svg width="16" height="17" viewBox="0 0 16 17" fill="none" xmlns="http://www.w3.org/2000/svg">
<path d="M4.35764 2.25391H11.6417C11.785 2.25389 11.9612 2.25387 12.132 2.27402C12.31 2.29502 12.518 2.34122 12.7136 2.45706C13.1543 2.71815 13.333 3.19992 13.333 3.82058V7.08724C13.333 7.36339 13.1091 7.58724 12.833 7.58724C12.5569 7.58724 12.333 7.36339 12.333 7.08724V3.82058C12.333 3.38802 12.2204 3.32648 12.205 3.31806L12.2039 3.31742C12.1744 3.29994 12.1193 3.27946 12.0148 3.26713C11.908 3.25453 11.7873 3.25391 11.6293 3.25391H4.37004C4.21204 3.25391 4.09134 3.25453 3.98453 3.26713C3.88 3.27946 3.82499 3.29994 3.79547 3.31742L3.79432 3.31806C3.77893 3.32648 3.66634 3.38802 3.66634 3.82058V7.58724L5.99968 7.58724C6.27582 7.58724 6.49968 7.8111 6.49968 8.08724C6.49968 8.36338 6.27582 8.58724 5.99968 8.58724H2.4705C2.52758 8.76327 2.59878 8.94293 2.68374 9.10425C2.89084 9.49747 3.06987 9.58724 3.16635 9.58724H5.99968C6.27582 9.58724 6.49968 9.8111 6.49968 10.0872C6.49968 10.3634 6.27582 10.5872 5.99968 10.5872H3.16635C2.46282 10.5872 2.03074 10.0103 1.79895 9.57024C1.54743 9.09267 1.40118 8.53766 1.33981 8.16944C1.31565 8.02446 1.3565 7.8762 1.4515 7.76405C1.5465 7.65191 1.68604 7.58724 1.83301 7.58724L2.66634 7.58724V3.82058C2.66634 3.19992 2.84507 2.71815 3.28579 2.45706C3.48134 2.34122 3.68932 2.29502 3.86738 2.27402C4.03818 2.25387 4.21438 2.25389 4.35764 2.25391Z" fill="#2D373D"/>
<path fill-rule="evenodd" clip-rule="evenodd" d="M10.833 12.694C11.5694 12.694 12.1663 12.0971 12.1663 11.3607C12.1663 10.6243 11.5694 10.0273 10.833 10.0273C10.0966 10.0273 9.49967 10.6243 9.49967 11.3607C9.49967 12.0971 10.0966 12.694 10.833 12.694ZM11.333 11.3607C11.333 11.6368 11.1091 11.8607 10.833 11.8607C10.5569 11.8607 10.333 11.6368 10.333 11.3607C10.333 11.0845 10.5569 10.8607 10.833 10.8607C11.1091 10.8607 11.333 11.0845 11.333 11.3607Z" fill="#2D373D"/>
<path fill-rule="evenodd" clip-rule="evenodd" d="M12.0247 8.0449C11.701 6.82184 9.96507 6.82184 9.6413 8.0449L9.47435 8.6756C9.44131 8.80041 9.31301 8.87448 9.1884 8.84069L8.55872 8.66993C7.33764 8.33879 6.46967 9.84212 7.367 10.7341L7.82972 11.194C7.92129 11.285 7.92129 11.4332 7.82972 11.5242L7.367 11.9841C6.46968 12.876 7.33763 14.3794 8.55872 14.0482L9.1884 13.8775C9.31301 13.8437 9.44131 13.9178 9.47435 14.0426L9.6413 14.6733C9.96507 15.8963 11.701 15.8963 12.0247 14.6733L12.1917 14.0426C12.2247 13.9178 12.353 13.8437 12.4776 13.8775L13.1073 14.0482C14.3284 14.3794 15.1964 12.876 14.2991 11.9841L13.8363 11.5242C13.7448 11.4332 13.7448 11.285 13.8363 11.194L14.2991 10.7341C15.1964 9.84212 14.3284 8.33879 13.1073 8.66993L12.4776 8.84069C12.353 8.87448 12.2247 8.80041 12.1917 8.6756L12.0247 8.0449ZM10.608 8.30081C10.6691 8.06987 10.9969 8.06987 11.058 8.30081L11.225 8.93151C11.4 9.59248 12.0795 9.98479 12.7394 9.80583L13.3691 9.63507C13.5996 9.57254 13.7635 9.85641 13.5941 10.0248L13.1314 10.4848C12.6464 10.9668 12.6464 11.7514 13.1314 12.2334L13.5941 12.6933C13.7635 12.8617 13.5996 13.1456 13.3691 13.0831L12.7394 12.9123C12.0795 12.7334 11.4 13.1257 11.225 13.7866L11.058 14.4173C10.9969 14.6483 10.6691 14.6483 10.608 14.4173L10.441 13.7866C10.2661 13.1257 9.58658 12.7334 8.92667 12.9123L8.29699 13.0831C8.06642 13.1456 7.90254 12.8617 8.07197 12.6933L8.53469 12.2334C9.01963 11.7514 9.01963 10.9668 8.53469 10.4848L8.07197 10.0248C7.90254 9.85641 8.06642 9.57254 8.29699 9.63507L8.92667 9.80583C9.58658 9.98479 10.2661 9.59248 10.441 8.93151L10.608 8.30081Z" fill="#2D373D"/>
</svg>
