<svg width="64" height="65" viewBox="0 0 64 65" fill="none" xmlns="http://www.w3.org/2000/svg">
<path d="M32.0004 17.061C29.8004 17.061 27.6004 18.061 26.0004 19.661C24.2004 21.261 23.4004 23.461 23.4004 25.661C23.4004 26.861 24.2004 27.661 25.4004 27.661C26.6004 27.661 27.4004 26.861 27.4004 25.661C27.4004 24.461 28.0004 23.261 28.8004 22.461C29.6004 21.461 30.8004 21.061 32.0004 21.061C33.2004 21.061 34.4004 21.661 35.2004 22.461C36.2004 23.261 36.6004 24.461 36.6004 25.661C36.6004 27.661 35.4004 29.461 33.6004 30.061C31.4004 30.861 30.0004 32.861 30.0004 35.061V37.261C30.0004 38.461 30.8004 39.261 32.0004 39.261C33.0004 39.261 34.0004 38.461 34.0004 37.261V35.061C34.0004 34.461 34.2004 34.061 34.8004 33.861C38.2004 32.461 40.6004 29.261 40.6004 25.661C40.6004 23.461 39.6004 21.261 38.0004 19.661C36.4004 17.861 34.2004 17.061 32.0004 17.061Z" fill="#2D373D"/>
<path d="M32.0002 42.061C30.4002 42.061 29.2002 43.261 29.2002 44.861C29.2002 46.461 30.4002 47.661 32.0002 47.661C33.6002 47.661 34.8002 46.461 34.8002 44.861C34.8002 43.261 33.6002 42.061 32.0002 42.061Z" fill="#2D373D"/>
<path d="M32.0002 5.66113C17.2002 5.66113 5.2002 17.6611 5.2002 32.4611C5.2002 47.0611 17.2002 59.0611 32.0002 59.0611C46.6002 59.0611 58.6002 47.0611 58.8002 32.4611C58.8002 17.6611 46.8002 5.66113 32.0002 5.66113ZM32.0002 55.2611C19.4002 55.2611 9.2002 45.0611 9.2002 32.4611C9.2002 19.8611 19.4002 9.66113 32.0002 9.66113C44.4002 9.66113 54.8002 19.8611 54.8002 32.4611C54.8002 45.0611 44.6002 55.2611 32.0002 55.2611Z" fill="#2D373D"/>
</svg>
