<svg width="32" height="33" viewBox="0 0 32 33" fill="none" xmlns="http://www.w3.org/2000/svg">
<path d="M20.9 15.9233H17V11.9233C17 11.3233 16.6 10.9233 16 10.9233C15.4 10.9233 15 11.3233 15 11.9233V15.9233H11C10.4 15.9233 10 16.3233 10 16.9233C10 17.5233 10.4 17.9233 11 17.9233H15V21.9233C15 22.5233 15.4 22.9233 16 22.9233C16.6 22.9233 17 22.4233 17 21.8233V17.9233H21C21.5 17.9233 21.9 17.5233 21.9 16.9233C21.9 16.3233 21.5 15.9233 20.9 15.9233Z" fill="#2D373D"/>
<path d="M16.0001 3.52344C8.6001 3.52344 2.6001 9.52344 2.6001 16.8234C2.6001 16.9234 2.6001 16.9234 2.6001 16.9234C2.6001 20.5234 4.0001 23.8234 6.5001 26.4234C9.1001 28.9234 12.4001 30.3234 16.0001 30.3234C23.4001 30.3234 29.4001 24.3234 29.4001 16.9234C29.4001 9.52344 23.4001 3.52344 16.0001 3.52344ZM16.0001 28.3234C12.9001 28.3234 10.1001 27.2234 7.9001 25.0234C5.8001 22.9234 4.6001 20.0234 4.6001 17.0234C4.6001 10.6234 9.7001 5.52344 16.0001 5.52344C22.3001 5.52344 27.4001 10.6234 27.4001 16.9234C27.4001 23.2234 22.3001 28.3234 16.0001 28.3234Z" fill="#2D373D"/>
</svg>
