<svg width="32" height="33" viewBox="0 0 32 33" fill="none" xmlns="http://www.w3.org/2000/svg">
<path d="M15.9001 27.7605C13.5001 27.7605 11.3001 27.0605 9.4001 25.6605L10.2001 21.5605H11.0001C11.6001 21.5605 12.0001 21.1605 12.0001 20.5605C12.0001 19.9605 11.6001 19.5605 11.0001 19.5605H9.4001C8.9001 19.5605 8.5001 19.8605 8.4001 20.3605L7.6001 24.1605C7.5001 24.0605 7.4001 23.9605 7.3001 23.8605C7.2001 23.7605 7.1001 23.6605 7.0001 23.5605C6.9001 23.3605 6.7001 23.1605 6.6001 22.9605C6.5001 22.8605 6.4001 22.6605 6.3001 22.5605C6.2001 22.3605 6.1001 22.1605 5.9001 21.9605C6.0001 21.7605 5.9001 21.6605 5.8001 21.4605C5.7001 21.2605 5.6001 21.0605 5.5001 20.9605C5.4001 20.6605 5.3001 20.4605 5.2001 20.1605C5.2001 20.0605 5.1001 19.9605 5.1001 19.8605C4.6001 18.3605 4.5001 16.7605 4.7001 15.0605V14.9605H9.8001C10.1001 14.9605 10.3001 15.1605 10.4001 15.4605L10.9001 17.4605C11.0001 18.0605 11.6001 18.3605 12.1001 18.2605C12.6001 18.0605 13.0001 17.5605 12.9001 17.0605L12.4001 15.0605C12.1001 13.8605 11.0001 13.0605 9.8001 13.0605H5.1001C6.5001 8.46055 10.9001 5.06055 16.1001 5.06055C18.9001 5.06055 21.6001 6.16055 23.8001 8.06055H21.4001C20.2001 8.06055 19.1001 8.86055 18.8001 10.0605L18.6001 11.2605C18.4001 11.7605 18.8001 12.3605 19.3001 12.4605C19.3001 12.4605 19.4001 12.4605 19.5001 12.4605C20.0001 12.4605 20.4001 12.1605 20.5001 11.7605L20.8001 10.5605C20.8001 10.2605 21.1001 10.0605 21.4001 10.0605H25.5001C26.7001 11.9605 27.4001 14.1605 27.4001 16.4605H29.4001C29.4001 12.8605 28.0001 9.46055 25.5001 6.96055C22.9001 4.46055 19.6001 3.06055 16.0001 3.06055C8.6001 3.06055 2.6001 9.06055 2.6001 16.4605C2.6001 20.0605 4.0001 23.3605 6.5001 25.9605C9.1001 28.4605 12.4001 29.8605 16.0001 29.8605C16.5001 29.8605 17.0001 29.3605 16.9001 28.7605C16.9001 28.1605 16.5001 27.7605 15.9001 27.7605Z" fill="#2D373D"/>
<path d="M25.5999 24.6605C26.3999 23.5605 26.8999 22.1605 26.8999 20.5605C26.8999 16.7605 23.7999 13.7605 20.0999 13.7605C16.3999 13.7605 13.3999 16.7605 13.2999 20.4605V20.5605C13.2999 24.3605 16.3999 27.3605 20.0999 27.3605C21.5999 27.3605 22.9999 26.8605 24.1999 26.0605L27.6999 29.5605C27.8999 29.7605 28.0999 29.8605 28.3999 29.8605C28.5999 29.8605 28.8999 29.7605 29.0999 29.5605C29.4999 29.1605 29.4999 28.5605 29.0999 28.1605L25.5999 24.6605ZM15.3999 20.6605C15.3999 17.9605 17.4999 15.7605 20.1999 15.7605C22.8999 15.7605 24.9999 17.9605 24.9999 20.5605C24.9999 21.8605 24.4999 22.9605 23.6999 23.8605C23.5999 23.8605 23.5999 23.9605 23.4999 23.9605C23.4999 23.9605 23.3999 24.0605 23.3999 24.1605C22.4999 24.9605 21.3999 25.3605 20.1999 25.3605C17.5999 25.3605 15.3999 23.2605 15.3999 20.6605Z" fill="#2D373D"/>
</svg>
