<svg width="16" height="17" viewBox="0 0 16 17" fill="none" xmlns="http://www.w3.org/2000/svg">
<path d="M13.55 8.36133H11.05C10.75 8.36133 10.55 8.56133 10.55 8.86133C10.55 9.16133 10.75 9.36133 11.05 9.36133H12.45L10.55 11.3113C10.35 11.4613 10.1 11.5613 9.85 11.4613L6.85 10.6613C6.25 10.5113 5.6 10.6613 5.2 11.1113L2.15 14.2613C1.95 14.4613 1.95 14.7613 2.15 14.9613C2.25 15.0613 2.35 15.1113 2.5 15.1113C2.65 15.1113 2.75 15.0613 2.85 15.0113L5.9 11.8613C6.05 11.6613 6.3 11.6113 6.55 11.6613L9.55 12.4613C10.15 12.6113 10.8 12.4613 11.25 12.0113L13.05 10.1613V11.3613C13.05 11.6613 13.25 11.8613 13.55 11.8613C13.85 11.8613 14.05 11.6113 14.05 11.3613V8.86133C14.05 8.56133 13.85 8.36133 13.55 8.36133Z" fill="#2D373D"/>
<path d="M7.3 9.16125C7.55 9.16125 7.8 8.91125 7.8 8.66125V8.51126C8.2 8.46126 8.6 8.16125 8.75 7.71126C8.9 7.41126 8.9 7.06126 8.75 6.76126C8.6 6.46126 8.35 6.21126 8.05 6.11126L6.9 5.66125C6.8 5.66125 6.75 5.56125 6.75 5.46125C6.75 5.41125 6.8 5.36125 6.85 5.31125C6.85 5.31125 6.9 5.26126 7 5.26126H8.15C8.45 5.26126 8.65 5.06125 8.65 4.76126C8.65 4.46126 8.45 4.26125 8.15 4.26125H7.8V4.16125C7.8 3.86125 7.6 3.66125 7.3 3.66125C7 3.66125 6.8 3.86125 6.8 4.16125V4.26125C6.2 4.36125 5.75 4.86126 5.75 5.51126C5.75 6.01126 6.05 6.46126 6.55 6.61126L7.6 7.06125C7.7 7.11125 7.75 7.16126 7.75 7.21126C7.75 7.26126 7.8 7.31125 7.75 7.41125C7.75 7.51125 7.65 7.56125 7.55 7.56125H6.45C6.15 7.56125 5.95 7.76125 5.95 8.06125C5.95 8.36125 6.15 8.56126 6.45 8.56126H6.8V8.66125C6.8 8.96126 7 9.16125 7.3 9.16125Z" fill="#2D373D"/>
<path d="M4.49984 10.1113C4.59984 10.1613 4.69984 10.2113 4.79984 10.2113C4.94984 10.2113 5.09984 10.1113 5.19984 10.0113C5.34984 9.81134 5.29984 9.46134 5.09984 9.31134C3.99984 8.46134 3.44984 7.06134 3.74984 5.66134C3.89984 4.71134 4.44984 3.91134 5.29984 3.36134C6.14984 2.81134 7.09984 2.61134 8.04984 2.81134C8.99984 3.01134 9.79984 3.56134 10.3498 4.36134C10.8998 5.21134 11.0998 6.16134 10.8998 7.11134C10.8498 7.41134 11.0498 7.66134 11.2998 7.71134C11.5998 7.76134 11.8498 7.56134 11.8998 7.31134C12.1498 6.06134 11.8998 4.86134 11.1998 3.81134C10.4998 2.76134 9.44984 2.06134 8.24984 1.81134C6.99984 1.56134 5.79984 1.81134 4.74984 2.51134C3.69984 3.21134 2.99984 4.26134 2.74984 5.51134C2.39984 7.21134 3.09984 9.06134 4.49984 10.1113Z" fill="#2D373D"/>
</svg>
