<svg width="32" height="33" viewBox="0 0 32 33" fill="none" xmlns="http://www.w3.org/2000/svg">
<path d="M11.6665 18.137V17.337C12.0865 17.1422 12.4425 16.8319 12.6927 16.4423C12.943 16.0528 13.0772 15.6001 13.0798 15.137C13.0792 14.7037 12.9619 14.2785 12.7402 13.9062C12.5185 13.5338 12.2007 13.228 11.8201 13.0209C11.4395 12.8137 11.0101 12.7129 10.5771 12.729C10.144 12.745 9.72329 12.8774 9.35905 13.1121C8.99481 13.3469 8.70051 13.6754 8.50704 14.0632C8.31356 14.4509 8.22806 14.8836 8.25951 15.3158C8.29096 15.748 8.4382 16.1637 8.68577 16.5194C8.93333 16.875 9.27209 17.1575 9.66648 17.337V18.137C8.09014 18.3697 6.64924 19.1592 5.60483 20.3626C4.56042 21.566 3.98157 23.1036 3.97314 24.697V27.897C3.9766 28.1612 4.08306 28.4135 4.26986 28.6003C4.45665 28.7871 4.709 28.8936 4.97314 28.897H16.3065C16.5706 28.8936 16.823 28.7871 17.0098 28.6003C17.1966 28.4135 17.303 28.1612 17.3065 27.897V24.697C17.3 23.1115 16.7287 21.5802 15.695 20.378C14.6614 19.1757 13.2331 18.3812 11.6665 18.137ZM10.6398 14.7237C10.7216 14.7237 10.8015 14.7479 10.8694 14.7934C10.9374 14.8388 10.9904 14.9033 11.0217 14.9789C11.053 15.0544 11.0612 15.1375 11.0452 15.2177C11.0293 15.2979 10.9899 15.3715 10.9321 15.4293C10.8743 15.4871 10.8006 15.5265 10.7204 15.5424C10.6403 15.5584 10.5572 15.5502 10.4816 15.5189C10.4061 15.4876 10.3416 15.4346 10.2961 15.3667C10.2507 15.2987 10.2265 15.2188 10.2265 15.137C10.2265 15.0274 10.27 14.9223 10.3475 14.8448C10.4251 14.7673 10.5302 14.7237 10.6398 14.7237ZM15.3065 26.897H5.97314V24.697C5.97314 23.4594 6.46481 22.2724 7.33998 21.3972C8.21515 20.522 9.40213 20.0304 10.6398 20.0304C11.8775 20.0304 13.0645 20.522 13.9396 21.3972C14.8148 22.2724 15.3065 23.4594 15.3065 24.697V26.897Z" fill="#2D373D"/>
<path d="M29.1331 13.1504C29.0426 13.0143 28.9196 12.9028 28.7753 12.826C28.631 12.7492 28.4699 12.7095 28.3065 12.7104H23.7598C23.613 12.7105 23.4677 12.681 23.3326 12.6237C23.1974 12.5665 23.0752 12.4826 22.9731 12.377C22.814 12.2212 22.705 12.0214 22.6601 11.8032C22.6151 11.5851 22.6361 11.3585 22.7206 11.1524C22.805 10.9463 22.949 10.7701 23.1341 10.6462C23.3192 10.5223 23.5371 10.4565 23.7598 10.457H28.3065C28.4695 10.4556 28.6298 10.4149 28.7737 10.3383C28.9176 10.2617 29.0409 10.1515 29.1331 10.017C29.2261 9.8794 29.2833 9.72079 29.2996 9.55551C29.3159 9.39024 29.2908 9.22351 29.2265 9.07037C28.8839 8.22401 28.371 7.45705 27.7198 6.81704C27.0631 6.18041 26.2825 5.68571 25.4265 5.3637C24.5781 5.03343 23.6689 4.88797 22.7598 4.93704C21.3817 5.00323 20.0581 5.49534 18.9716 6.34551C17.885 7.19568 17.0889 8.36202 16.6931 9.6837C16.235 11.1823 16.3296 12.7956 16.9598 14.2304L14.7065 16.4704C14.5192 16.6579 14.414 16.912 14.414 17.177C14.414 17.442 14.5192 17.6962 14.7065 17.8837C14.7984 17.978 14.9083 18.053 15.0297 18.1042C15.151 18.1554 15.2814 18.1818 15.4131 18.1818C15.5449 18.1818 15.6753 18.1554 15.7966 18.1042C15.918 18.053 16.0279 17.978 16.1198 17.8837L18.8798 15.1637C19.0351 15.0066 19.1348 14.803 19.1637 14.5839C19.1926 14.3649 19.1491 14.1424 19.0398 13.9504C18.71 13.4007 18.501 12.7871 18.4265 12.1504C18.366 11.5025 18.4386 10.8491 18.6398 10.2304C18.8131 9.61255 19.1178 9.03947 19.5331 8.55037C19.9517 8.0623 20.4641 7.66329 21.0398 7.37704C21.6157 7.09793 22.2409 6.93484 22.8798 6.89704C23.5207 6.87155 24.1602 6.97586 24.7598 7.2037C25.3583 7.43183 25.9031 7.78139 26.3598 8.23037L26.5598 8.43037H23.7598C22.9361 8.43298 22.1462 8.7585 21.5598 9.33704C21.2659 9.62823 21.0332 9.97519 20.8752 10.3576C20.7172 10.7399 20.6372 11.15 20.6398 11.5637C20.6425 12.394 20.9732 13.1895 21.5598 13.777C21.847 14.0689 22.1894 14.3006 22.5672 14.4586C22.9449 14.6166 23.3504 14.6976 23.7598 14.697H26.5198C26.4398 14.7904 26.3465 14.8704 26.2531 14.9637C25.7666 15.4271 25.1839 15.7777 24.5465 15.9904C23.9115 16.2082 23.2368 16.2852 22.5691 16.2162C21.9014 16.1471 21.2567 15.9336 20.6798 15.5904C20.4891 15.4766 20.2655 15.4305 20.0453 15.4595C19.8252 15.4886 19.6212 15.591 19.4665 15.7504L16.6798 18.537C16.4925 18.7245 16.3874 18.9787 16.3874 19.2437C16.3874 19.5087 16.4925 19.7629 16.6798 19.9504C16.7721 20.0439 16.8822 20.118 17.0036 20.1683C17.1249 20.2187 17.2551 20.2443 17.3865 20.2437C17.651 20.2406 17.9042 20.1355 18.0931 19.9504L20.3731 17.6704C21.0026 17.9532 21.6733 18.1333 22.3598 18.2037C23.3184 18.2978 24.2862 18.1888 25.1998 17.8837C26.1071 17.58 26.9358 17.0791 27.6265 16.417C28.3467 15.7682 28.9195 14.9725 29.3065 14.0837C29.356 13.9258 29.3661 13.7582 29.3359 13.5955C29.3056 13.4328 29.236 13.28 29.1331 13.1504Z" fill="#2D373D"/>
<path d="M8.35981 23.9904C8.84582 23.9904 9.23981 23.5964 9.23981 23.1104C9.23981 22.6244 8.84582 22.2304 8.35981 22.2304C7.8738 22.2304 7.47981 22.6244 7.47981 23.1104C7.47981 23.5964 7.8738 23.9904 8.35981 23.9904Z" fill="#2D373D"/>
<path d="M12.9598 23.9904C13.4458 23.9904 13.8398 23.5964 13.8398 23.1104C13.8398 22.6244 13.4458 22.2304 12.9598 22.2304C12.4738 22.2304 12.0798 22.6244 12.0798 23.1104C12.0798 23.5964 12.4738 23.9904 12.9598 23.9904Z" fill="#2D373D"/>
</svg>
