<svg width="24" height="24" viewBox="0 0 24 24" fill="none" xmlns="http://www.w3.org/2000/svg">
<path d="M5.96716 13.9319C6.50131 13.9319 6.93432 13.4994 6.93432 12.9659C6.93432 12.4325 6.50131 12 5.96716 12C5.43301 12 5 12.4325 5 12.9659C5 13.4994 5.43301 13.9319 5.96716 13.9319Z" fill="#2D373D"/>
<path fill-rule="evenodd" clip-rule="evenodd" d="M21.75 12.6025C21.75 10.4663 19.9604 9.24308 18.2509 9.13328C18.6077 8.76503 18.8493 8.28459 18.9177 7.75H21.75C22.1642 7.75 22.5 7.41421 22.5 7C22.5 6.58579 22.1642 6.25 21.75 6.25H18.75C18.7106 6.25 18.6719 6.25304 18.6341 6.2589C18.2187 5.50824 17.4187 5 16.5 5C15.5541 5 14.734 5.53883 14.33 6.3263C14.2304 6.27744 14.1184 6.25 14 6.25H11C10.5858 6.25 10.25 6.58579 10.25 7C10.25 7.41421 10.5858 7.75 11 7.75H14C14.0276 7.75 14.0549 7.7485 14.0818 7.74559C14.1494 8.28195 14.3914 8.76402 14.7491 9.13328C13.0396 9.24307 11.25 10.4663 11.25 12.6025V16.0115C11.25 16.8595 11.7407 17.4193 12.2857 17.729C12.803 18.0229 13.4085 18.1252 13.875 18.1252H14.625C14.6252 19.1605 15.4646 19.9998 16.5 19.9998C17.5354 19.9998 18.3748 19.1605 18.375 18.1252H19.125C19.5915 18.1252 20.197 18.0229 20.7143 17.729C21.2593 17.4193 21.75 16.8595 21.75 16.0115V12.6025ZM16.5 8.375C17.0178 8.375 17.4375 7.95527 17.4375 7.4375C17.4375 6.91973 17.0178 6.5 16.5 6.5C15.9823 6.5 15.5625 6.91973 15.5625 7.4375C15.5625 7.95527 15.9823 8.375 16.5 8.375ZM15 10.6252C13.7804 10.6252 12.75 11.4344 12.75 12.6025V16.0115C12.75 16.1863 12.8218 16.3084 13.0268 16.4248C13.2595 16.5571 13.5915 16.6252 13.875 16.6252H14.625L14.625 15.1248C14.625 14.0893 15.4645 13.2498 16.5 13.2498C17.5356 13.2498 18.375 14.0893 18.375 15.1248V16.6252H19.125C19.4085 16.6252 19.7405 16.5571 19.9732 16.4248C20.1782 16.3084 20.25 16.1863 20.25 16.0115V12.6025C20.25 11.4344 19.2196 10.6252 18 10.6252H15ZM16.875 18.1248V15.1248C16.875 14.9177 16.7071 14.7498 16.5 14.7498C16.2929 14.7498 16.125 14.9177 16.125 15.1248V18.1248C16.125 18.3319 16.2929 18.4998 16.5 18.4998C16.7071 18.4998 16.875 18.3319 16.875 18.1248Z" fill="#2D373D"/>
<path d="M11.4598 4H8.37458C7.80739 3.99938 7.25361 4.16841 6.7877 4.48435C6.33745 4.79378 5.99459 5.23005 5.80493 5.73485L4.2451 9.03723C3.78837 9.20548 3.37346 9.46664 3.0279 9.80338C2.70002 10.1235 2.44036 10.5039 2.26394 10.9226C2.08751 11.3413 1.99782 11.79 2.00004 12.2427V14.321C2.00223 14.8624 2.22247 15.3812 2.61315 15.7653L2.71233 15.8445V17.0774C2.70019 17.4908 2.81733 17.8979 3.04812 18.2446C3.27891 18.5913 3.6124 18.8611 4.00414 19.0179C4.39588 19.1748 4.82727 19.2114 5.24081 19.1227C5.65435 19.034 6.0304 18.8244 6.31886 18.5217C6.51393 18.3326 6.66858 18.1076 6.77384 17.8597C6.87909 17.6117 6.93284 17.3458 6.93197 17.0774V16.3465H9.27459C9.45393 16.3465 9.62593 16.2769 9.75275 16.153C9.87956 16.0292 9.95081 15.8612 9.95081 15.686C9.95081 15.5109 9.87956 15.3429 9.75275 15.219C9.62593 15.0951 9.45393 15.0255 9.27459 15.0255H4.09183C3.89883 15.0256 3.71345 14.9519 3.57531 14.8203C3.43716 14.6887 3.3572 14.5095 3.35249 14.321V12.2427C3.35129 11.9672 3.40599 11.6941 3.5134 11.4393C3.62082 11.1845 3.77884 10.953 3.97834 10.7581C4.17784 10.5633 4.41488 10.4089 4.67577 10.304C4.93666 10.1991 5.21624 10.1457 5.49837 10.1468H9.88688C10.0662 10.1468 10.2382 10.0772 10.365 9.95338C10.4919 9.82952 10.5631 9.66152 10.5631 9.48635C10.5631 9.31119 10.4919 9.14319 10.365 9.01933C10.2382 8.89546 10.0662 8.82588 9.88688 8.82588H5.80493L7.03114 6.22801C7.13213 5.96075 7.31466 5.73021 7.55409 5.56753C7.79684 5.40838 8.08222 5.32262 8.37458 5.32095H11.4598C11.6391 5.32095 11.8111 5.25137 11.9379 5.1275C12.0648 5.00364 12.136 4.83565 12.136 4.66048C12.136 4.48531 12.0648 4.31731 11.9379 4.19345C11.8111 4.06959 11.6391 4 11.4598 4ZM5.53444 17.0598C5.53277 17.2009 5.48884 17.3384 5.40805 17.4554C5.32726 17.5723 5.21317 17.6636 5.07986 17.7179C4.94655 17.7723 4.79986 17.7873 4.65792 17.7611C4.51598 17.7349 4.385 17.6687 4.28117 17.5706C4.21171 17.5041 4.15673 17.4246 4.11954 17.3368C4.08235 17.249 4.06373 17.1548 4.06478 17.0598V16.3377H5.53444V17.0598Z" fill="#2D373D"/>
</svg>
