<svg width="32" height="33" viewBox="0 0 32 33" fill="none" xmlns="http://www.w3.org/2000/svg">
<path d="M25.5999 16.5242C24.9999 16.5242 24.5999 16.9242 24.5999 17.5242V26.4242C24.5999 26.7242 24.3999 26.9242 24.0999 26.9242H23.4999V21.3242C23.4999 20.2242 22.9999 19.2242 22.2999 18.5242C21.5999 17.8242 20.5999 17.4242 19.4999 17.4242C17.3999 17.5242 15.7999 19.2242 15.6999 21.3242V26.9242H7.8999C7.5999 26.9242 7.3999 26.7242 7.3999 26.4242V17.5242C7.3999 16.9242 6.9999 16.5242 6.3999 16.5242C5.7999 16.5242 5.3999 16.9242 5.3999 17.5242V26.4242C5.3999 27.8242 6.4999 28.9242 7.8999 28.9242H24.0999C25.3999 28.9242 26.5999 27.8242 26.5999 26.4242V17.5242C26.5999 16.9242 26.1999 16.5242 25.5999 16.5242ZM17.6999 26.9242V21.3242C17.6999 20.3242 18.5999 19.4242 19.5999 19.4242C20.1999 19.3242 20.5999 19.5242 20.9999 19.9242C21.3999 20.3242 21.5999 20.8242 21.5999 21.3242V26.9242H17.6999Z" fill="#2D373D"/>
<path d="M26.6999 6.22422C26.4999 5.42422 25.7999 4.82422 24.9999 4.82422H6.9999C6.0999 4.82422 5.3999 5.42422 5.1999 6.12422L3.8999 12.2242C3.8999 12.3242 3.8999 12.3242 3.8999 12.4242C3.8999 14.2242 5.2999 15.7242 7.0999 15.7242C7.9999 15.7242 8.7999 15.3242 9.2999 14.8242C9.8999 15.3242 10.6999 15.7242 11.4999 15.7242C12.3999 15.7242 13.1999 15.3242 13.7999 14.8242C14.2999 15.3242 15.1999 15.7242 15.9999 15.7242C16.7999 15.7242 17.5999 15.3242 18.1999 14.8242C18.7999 15.4242 19.4999 15.7242 20.3999 15.7242C21.1999 15.7242 21.9999 15.3242 22.5999 14.8242C23.1999 15.4242 23.8999 15.7242 24.7999 15.7242C26.5999 15.7242 27.9999 14.2242 28.0999 12.5242C28.0999 12.4242 28.0999 12.4242 28.0999 12.3242L26.6999 6.22422ZM24.7999 13.6242C24.0999 13.6242 23.5999 13.1242 23.5999 12.4242C23.5999 11.8242 23.1999 11.4242 22.5999 11.4242C22.0999 11.4242 21.5999 11.9242 21.4999 12.4242C21.4999 13.1242 20.9999 13.6242 20.2999 13.6242C19.5999 13.6242 19.0999 13.1242 19.0999 12.4242C19.0999 11.8242 18.6999 11.4242 18.0999 11.4242C17.4999 11.4242 17.0999 11.8242 17.0999 12.4242C17.0999 13.1242 16.5999 13.6242 15.8999 13.6242C15.1999 13.6242 14.6999 13.1242 14.6999 12.4242C14.6999 11.8242 14.2999 11.4242 13.6999 11.4242C13.0999 11.4242 12.6999 11.8242 12.6999 12.4242C12.6999 13.1242 12.1999 13.6242 11.4999 13.6242C10.7999 13.6242 10.2999 13.1242 10.2999 12.4242C10.2999 11.8242 9.8999 11.4242 9.2999 11.4242C8.6999 11.4242 8.2999 11.8242 8.2999 12.4242C8.2999 13.1242 7.7999 13.6242 7.0999 13.6242C6.4999 13.6242 5.8999 13.1242 5.8999 12.5242L7.1999 6.82422H24.7999L25.9999 12.5242C25.9999 13.1242 25.3999 13.6242 24.7999 13.6242Z" fill="#2D373D"/>
<path d="M13.4002 23.1242C14.0002 23.1242 14.4002 22.7242 14.5002 22.1242V18.3242C14.5002 17.7242 14.1002 17.3242 13.5002 17.3242H9.7002C9.1002 17.3242 8.7002 17.7242 8.7002 18.3242V22.1242C8.7002 22.7242 9.1002 23.1242 9.7002 23.1242H13.4002ZM10.7002 19.3242H12.5002V21.1242H10.7002V19.3242Z" fill="#2D373D"/>
</svg>
