<svg width="24" height="24" viewBox="0 0 24 24" fill="none" xmlns="http://www.w3.org/2000/svg">
<path fill-rule="evenodd" clip-rule="evenodd" d="M4.07488 2.42335C4.20014 2.16446 4.46241 2 4.75001 2H19.25C19.5376 2 19.7999 2.16446 19.9251 2.42335C20.0504 2.68224 20.0166 2.98995 19.8381 3.21546L14.4231 10.057V19C14.4231 19.251 14.2975 19.4854 14.0885 19.6244L10.7424 21.8507C10.5122 22.0038 10.2164 22.0179 9.97273 21.8874C9.72903 21.7568 9.57693 21.5027 9.57693 21.2263V10.057L4.16192 3.21546C3.98343 2.98995 3.94962 2.68224 4.07488 2.42335ZM6.30012 3.5L10.915 9.33066C11.0199 9.46315 11.0769 9.62716 11.0769 9.79612V19.8264L12.9231 18.5982V9.79612C12.9231 9.62716 12.9801 9.46315 13.085 9.33066L17.6999 3.5H6.30012Z" fill="#2D373D"/>
</svg>
