<svg width="64" height="65" viewBox="0 0 64 65" fill="none" xmlns="http://www.w3.org/2000/svg">
<path d="M49.8001 25.6621C48.2001 24.0621 46.2001 23.0621 43.8001 22.4621C47.4001 21.4621 50.2001 18.2621 50.2001 14.2621C50.2001 9.46211 46.4001 5.66211 41.6001 5.66211C36.8001 5.66211 33.0001 9.46211 33.0001 14.2621C33.0001 18.2621 35.6001 21.4621 39.2001 22.4621C36.8001 22.8621 34.8001 24.0621 33.0001 25.6621C30.8001 27.8621 29.6001 30.8621 29.6001 34.0621V40.6621C29.6001 41.8621 30.4001 42.6621 31.6001 42.6621H33.2001L34.6001 57.4621C34.8001 58.4621 35.6001 59.2621 36.6001 59.2621H46.6001C47.6001 59.2621 48.4001 58.4621 48.6001 57.4621L49.8001 42.6621H51.2001C52.4001 42.6621 53.2001 41.8621 53.2001 40.6621V34.0621C53.2001 30.8621 52.0001 27.8621 49.8001 25.6621ZM37.0001 14.2621C37.0001 11.6621 39.0001 9.66211 41.6001 9.66211C44.2001 9.66211 46.2001 11.6621 46.2001 14.2621C46.2001 16.8621 44.2001 18.8621 41.6001 18.8621C39.0001 18.8621 37.0001 16.8621 37.0001 14.2621ZM49.6001 38.6621H48.2001C47.2001 38.6621 46.4001 39.4621 46.2001 40.4621L44.8001 55.2621H38.4001L37.0001 40.4621C36.8001 39.4621 36.0001 38.6621 35.0001 38.6621H33.6001V34.0621C33.6001 29.6621 37.2001 26.0621 41.6001 26.0621C43.8001 26.0621 45.6001 27.0621 47.2001 28.4621C48.8001 29.8621 49.6001 31.8621 49.6001 34.0621V38.6621Z" fill="#2D373D"/>
<path d="M17.6001 30.462C13.8001 30.462 10.6001 33.662 10.6001 37.462C10.6001 38.662 11.4001 39.462 12.6001 39.462C13.8001 39.462 14.6001 38.662 14.6001 37.462C14.6001 35.862 16.0001 34.462 17.6001 34.462C19.2001 34.462 20.6001 35.862 20.6001 37.462V57.262C20.6001 58.462 21.4001 59.262 22.6001 59.262C23.6001 59.262 24.6001 58.462 24.6001 57.262V37.462C24.6001 33.662 21.4001 30.462 17.6001 30.462Z" fill="#2D373D"/>
</svg>
