<svg width="24" height="25" viewBox="0 0 24 25" fill="none" xmlns="http://www.w3.org/2000/svg">
<path d="M14 3.67188C14 3.25766 13.6642 2.92188 13.25 2.92188C12.8358 2.92188 12.5 3.25766 12.5 3.67188V4.67188L11.5 4.67187V3.67188C11.5 3.25766 11.1642 2.92188 10.75 2.92188C10.3358 2.92188 10 3.25766 10 3.67188V6.92188C10 7.33609 10.3358 7.67188 10.75 7.67188C11.1642 7.67188 11.5 7.33609 11.5 6.92188V6.17188H12.5V6.92188C12.5 7.33609 12.8358 7.67188 13.25 7.67188C13.6642 7.67188 14 7.33609 14 6.92188V3.67188Z" fill="#2D373D"/>
<path d="M11.125 12.1719C11.125 11.7577 10.7892 11.4219 10.375 11.4219C9.96079 11.4219 9.625 11.7577 9.625 12.1719V13.1719C9.625 13.5861 9.96079 13.9219 10.375 13.9219C10.7892 13.9219 11.125 13.5861 11.125 13.1719V12.1719Z" fill="#2D373D"/>
<path d="M14.375 12.1719C14.375 11.7577 14.0392 11.4219 13.625 11.4219C13.2108 11.4219 12.875 11.7577 12.875 12.1719V13.1719C12.875 13.5861 13.2108 13.9219 13.625 13.9219C14.0392 13.9219 14.375 13.5861 14.375 13.1719V12.1719Z" fill="#2D373D"/>
<path d="M13.625 14.6719C14.0392 14.6719 14.375 15.0077 14.375 15.4219V16.4219C14.375 16.8361 14.0392 17.1719 13.625 17.1719C13.2108 17.1719 12.875 16.8361 12.875 16.4219V15.4219C12.875 15.0077 13.2108 14.6719 13.625 14.6719Z" fill="#2D373D"/>
<path d="M17.625 12.1719C17.625 11.7577 17.2892 11.4219 16.875 11.4219C16.4608 11.4219 16.125 11.7577 16.125 12.1719V13.1719C16.125 13.5861 16.4608 13.9219 16.875 13.9219C17.2892 13.9219 17.625 13.5861 17.625 13.1719V12.1719Z" fill="#2D373D"/>
<path d="M16.875 14.6719C17.2892 14.6719 17.625 15.0077 17.625 15.4219V16.4219C17.625 16.8361 17.2892 17.1719 16.875 17.1719C16.4608 17.1719 16.125 16.8361 16.125 16.4219V15.4219C16.125 15.0077 16.4608 14.6719 16.875 14.6719Z" fill="#2D373D"/>
<path d="M17.625 18.6719C17.625 18.2577 17.2892 17.9219 16.875 17.9219C16.4608 17.9219 16.125 18.2577 16.125 18.6719V19.6719C16.125 20.0861 16.4608 20.4219 16.875 20.4219C17.2892 20.4219 17.625 20.0861 17.625 19.6719V18.6719Z" fill="#2D373D"/>
<path d="M10.375 14.6719C10.7892 14.6719 11.125 15.0077 11.125 15.4219V16.4219C11.125 16.8361 10.7892 17.1719 10.375 17.1719C9.96079 17.1719 9.625 16.8361 9.625 16.4219V15.4219C9.625 15.0077 9.96079 14.6719 10.375 14.6719Z" fill="#2D373D"/>
<path d="M7.875 12.1719C7.875 11.7577 7.53921 11.4219 7.125 11.4219C6.71079 11.4219 6.375 11.7577 6.375 12.1719V13.1719C6.375 13.5861 6.71079 13.9219 7.125 13.9219C7.53921 13.9219 7.875 13.5861 7.875 13.1719V12.1719Z" fill="#2D373D"/>
<path d="M7.125 14.6719C7.53921 14.6719 7.875 15.0077 7.875 15.4219V16.4219C7.875 16.8361 7.53921 17.1719 7.125 17.1719C6.71079 17.1719 6.375 16.8361 6.375 16.4219V15.4219C6.375 15.0077 6.71079 14.6719 7.125 14.6719Z" fill="#2D373D"/>
<path d="M7.875 18.6719C7.875 18.2577 7.53921 17.9219 7.125 17.9219C6.71079 17.9219 6.375 18.2577 6.375 18.6719V19.6719C6.375 20.0861 6.71079 20.4219 7.125 20.4219C7.53921 20.4219 7.875 20.0861 7.875 19.6719V18.6719Z" fill="#2D373D"/>
<path fill-rule="evenodd" clip-rule="evenodd" d="M5.93492 9.17188L6.60162 6.17171H8.49999C8.91421 6.17171 9.24999 5.83593 9.24999 5.42171C9.24999 5.0075 8.91421 4.67171 8.49999 4.67171H5.99999C5.64847 4.67171 5.34411 4.91586 5.26785 5.25902L4.39833 9.17188H3.75C3.33579 9.17188 3 9.50766 3 9.92188C3 10.3361 3.33579 10.6719 3.75 10.6719H4.25V22.1719C4.25 22.5861 4.58579 22.9219 5 22.9219H19C19.4142 22.9219 19.75 22.5861 19.75 22.1719V10.6719H20.25C20.6642 10.6719 21 10.3361 21 9.92188C21 9.50766 20.6642 9.17188 20.25 9.17188H19.6017L18.7321 5.25902C18.6559 4.91586 18.3515 4.67171 18 4.67171H15.5C15.0858 4.67171 14.75 5.0075 14.75 5.42171C14.75 5.83593 15.0858 6.17171 15.5 6.17171H17.3984L18.0651 9.17188H5.93492ZM13 21.4219H11V19.9219C11 19.7838 11.1119 19.6719 11.25 19.6719H12.75C12.8881 19.6719 13 19.7838 13 19.9219V21.4219ZM14.5 19.9219V21.4219H18.25V10.6719H5.75V21.4219H9.5V19.9219C9.5 18.9554 10.2835 18.1719 11.25 18.1719H12.75C13.7165 18.1719 14.5 18.9554 14.5 19.9219Z" fill="#2D373D"/>
</svg>
