<svg width="32" height="33" viewBox="0 0 32 33" fill="none" xmlns="http://www.w3.org/2000/svg">
<path fill-rule="evenodd" clip-rule="evenodd" d="M18.8707 5.06674C19.1935 5.04386 19.5176 5.08451 19.8247 5.18643C20.1318 5.28836 20.416 5.44962 20.661 5.66121C20.906 5.87281 21.1069 6.13062 21.2522 6.42005L23.2803 10.4586C24.0842 10.5914 24.8332 10.971 25.4179 11.5531C26.1563 12.2883 26.5719 13.2864 26.5719 14.3281V15.0004C26.8462 15.1216 27.0987 15.2929 27.3152 15.5085C27.7785 15.9697 28.0395 16.5962 28.0395 17.2503V21.6337C28.0395 22.2879 27.7785 22.9143 27.3152 23.3755C27.0987 23.5912 26.8462 23.7625 26.5719 23.8837V24.5559C26.5719 25.5976 26.1563 26.5957 25.4179 27.3309C24.6796 28.066 23.6792 28.4782 22.6369 28.4782H7.96187C6.91964 28.4782 5.91923 28.066 5.18094 27.3309C4.4425 26.5957 4.02686 25.5976 4.02686 24.5559V14.3281C4.02686 13.2864 4.4425 12.2883 5.18094 11.5531C5.85971 10.8773 6.76004 10.4744 7.71072 10.4138L17.9431 5.31989C18.2327 5.17567 18.5481 5.08961 18.8707 5.06674ZM25.5749 22.0948L25.572 22.0948L25.5669 22.0948H21.9032C21.194 22.0948 20.5147 21.8143 20.0146 21.3163C19.5146 20.8185 19.2345 20.1442 19.2345 19.442C19.2345 18.7399 19.5146 18.0656 20.0146 17.5678C20.5147 17.0698 21.194 16.7892 21.9032 16.7892H25.572C25.6974 16.7892 25.8168 16.8389 25.9041 16.9258C25.9913 17.0126 26.0395 17.1295 26.0395 17.2503V21.6337C26.0395 21.7546 25.9913 21.8714 25.9041 21.9582C25.8174 22.0445 25.6992 22.0941 25.5749 22.0948ZM24.5719 24.0948V24.5559C24.5719 25.0643 24.3691 25.5528 24.0067 25.9136C23.6442 26.2746 23.1515 26.4782 22.6369 26.4782H7.96187C7.44727 26.4782 6.95462 26.2746 6.59206 25.9136C6.22966 25.5528 6.02686 25.0643 6.02686 24.5559V14.3281C6.02686 13.8197 6.22966 13.3312 6.59206 12.9704C6.95059 12.6134 7.43634 12.4104 7.94472 12.4059C7.95792 12.4062 7.97114 12.4061 7.98438 12.4058H22.6161C22.6291 12.4061 22.6421 12.4062 22.655 12.4059C23.1631 12.4106 23.6484 12.6137 24.0067 12.9704C24.3691 13.3312 24.5719 13.8197 24.5719 14.3281V14.7892H21.9032C20.6664 14.7892 19.4793 15.2784 18.6034 16.1505C17.7274 17.0227 17.2345 18.2066 17.2345 19.442C17.2345 20.6774 17.7274 21.8614 18.6034 22.7336C19.4793 23.6057 20.6664 24.0948 21.9032 24.0948H24.5719ZM19.4648 7.31736L21.0158 10.4058H12.2145L18.8349 7.11006C18.8901 7.08259 18.9503 7.06612 19.0121 7.06173C19.074 7.05735 19.1361 7.06515 19.1947 7.08462C19.2534 7.10409 19.3074 7.13479 19.3536 7.17477C19.3999 7.21473 19.4377 7.26339 19.4648 7.31736Z" fill="#2D373D"/>
<path fill-rule="evenodd" clip-rule="evenodd" d="M21.9032 18.0768C21.5421 18.0768 21.1949 18.2195 20.9382 18.4751C20.6814 18.7308 20.5363 19.0785 20.5363 19.442C20.5363 19.713 20.6171 19.9776 20.7678 20.2022C20.9185 20.4268 21.1323 20.6012 21.3816 20.704C21.6308 20.8068 21.9048 20.8336 22.1691 20.7813C22.4334 20.7289 22.6768 20.5996 22.8682 20.409C23.0597 20.2183 23.1906 19.9749 23.2437 19.7092C23.2967 19.4435 23.2695 19.1682 23.1655 18.9181C23.0615 18.6682 22.8857 18.4552 22.6609 18.3057C22.4363 18.1563 22.1726 18.0768 21.9032 18.0768Z" fill="#2D373D"/>
</svg>
