<svg width="24" height="25" viewBox="0 0 24 25" fill="none" xmlns="http://www.w3.org/2000/svg">
<path d="M17.5506 11.0367L18.4506 9.46168C18.6756 9.08668 18.6756 8.63668 18.4506 8.26168C18.2256 7.88668 17.8506 7.66168 17.4756 7.66168H13.1256C12.7506 7.66168 12.3756 7.88668 12.1506 8.26168C11.9256 8.63668 11.9256 9.08668 12.1506 9.46168L13.0506 11.0367C11.8506 11.7117 9.60059 13.2117 9.60059 16.2117C9.60059 19.1367 12.0756 21.4617 15.2256 21.4617C18.4506 21.4617 21.0006 19.1367 21.0006 16.1367C21.0006 13.1367 18.7506 11.7117 17.5506 11.0367ZM15.1506 19.9617C12.8256 19.9617 11.0256 18.3117 11.0256 16.2117C11.0256 13.8117 13.0506 12.7617 14.0256 12.2367C14.2506 12.1617 14.4006 12.0867 14.4756 12.0117C14.7756 11.8617 14.9256 11.4117 14.7006 11.0367L13.7256 9.31168V9.23668H16.7256L15.7506 10.9617C15.6006 11.2617 15.6756 11.7117 15.9756 11.9367C16.1256 12.0117 16.3506 12.1617 16.5756 12.3117C17.6256 12.9117 19.4256 13.9617 19.4256 16.2117C19.4256 18.3117 17.5506 19.9617 15.1506 19.9617Z" fill="#2D373D"/>
<path d="M7.57529 15.0117H4.50029C4.42529 15.0117 4.42529 15.0117 4.42529 14.9367V7.66172H11.4003C11.8503 7.66172 12.1503 7.36172 12.1503 6.91172C12.1503 6.46172 11.8503 6.16172 11.4003 6.16172H4.42529V4.96172L4.50029 4.88672H16.6503C16.7253 4.88672 16.7253 4.88672 16.7253 4.96172V6.38672C16.7253 6.83672 17.0253 7.13672 17.4753 7.13672C17.9253 7.13672 18.2253 6.83672 18.2253 6.38672V4.96172C18.2253 4.06172 17.5503 3.38672 16.6503 3.38672H4.50029C4.12529 3.38672 3.67529 3.53672 3.37529 3.83672C3.07529 4.13672 2.92529 4.51172 2.92529 4.96172V14.9367C2.92529 15.8367 3.67529 16.5117 4.50029 16.5117H7.57529C8.02529 16.5117 8.32529 16.2117 8.32529 15.7617C8.32529 15.3117 8.02529 15.0117 7.57529 15.0117Z" fill="#2D373D"/>
<path d="M15.3 15.3118C14.85 15.3118 14.55 15.0868 14.55 14.9368C14.55 14.7868 14.85 14.5618 15.375 14.5618C15.675 14.5618 15.975 14.7118 16.125 14.9368C16.35 15.2368 16.875 15.3118 17.175 15.0868C17.475 14.8618 17.55 14.3368 17.325 14.0368C17.025 13.5868 16.575 13.2868 16.05 13.1368V12.9868C16.05 12.5368 15.75 12.2368 15.3 12.2368C14.85 12.2368 14.55 12.5368 14.55 12.9868V13.2118C13.725 13.5118 13.125 14.1868 13.125 14.9368C13.125 15.9868 14.1 16.8118 15.375 16.8118C15.825 16.8118 16.125 17.0368 16.125 17.1868C16.125 17.3368 15.825 17.5618 15.3 17.5618C15 17.5618 14.7 17.4118 14.55 17.1868C14.325 16.8868 13.8 16.8118 13.5 17.0368C13.2 17.2618 13.125 17.7868 13.35 18.0868C13.65 18.4618 14.1 18.7618 14.55 18.9118V19.0618C14.55 19.5118 14.85 19.8118 15.3 19.8118C15.675 19.8118 16.05 19.5118 16.05 19.0618V18.9868C16.95 18.7618 17.55 18.0868 17.55 17.1868C17.55 16.1368 16.575 15.3118 15.3 15.3118Z" fill="#2D373D"/>
</svg>
