<svg width="16" height="17" viewBox="0 0 16 17" fill="none" xmlns="http://www.w3.org/2000/svg">
<path d="M14.55 6.91074C14.1 5.16074 13.05 3.71074 11.55 2.76074C10.45 2.11074 9.25 1.76074 8 1.76074C4.3 1.76074 1.3 4.76074 1.3 8.41074C1.3 9.61074 1.6 10.7607 2.2 11.7607L1.3 14.5107C1.25 14.6607 1.3 14.8607 1.45 15.0107C1.55 15.1107 1.65 15.1607 1.8 15.1607C1.85 15.1607 1.95 15.1607 2 15.1607L4.7 14.2607C6.2 15.1107 7.9 15.3607 9.55 14.9607C11.3 14.5107 12.75 13.4607 13.7 11.9607C14.65 10.4607 14.95 8.66074 14.55 6.91074ZM12.85 11.4107C12.05 12.7107 10.8 13.6107 9.3 13.9607C7.8 14.3107 6.3 14.0607 5 13.3107C4.95 13.2607 4.85 13.2107 4.75 13.2107C4.7 13.2107 4.6 13.2107 4.55 13.2107L2.55 13.8607L3.2 11.8107C3.25 11.6607 3.25 11.5107 3.15 11.4107C2.6 10.5107 2.3 9.46074 2.3 8.41074C2.3 5.31074 4.85 2.76074 8 2.76074C9.05 2.76074 10.1 3.06074 11 3.61074C12.3 4.41074 13.2 5.61074 13.55 7.11074C13.9 8.61074 13.65 10.1107 12.85 11.4107Z" fill="#2D373D"/>
</svg>
