<svg width="64" height="65" viewBox="0 0 64 65" fill="none" xmlns="http://www.w3.org/2000/svg">
<path d="M5.3335 13.5879C5.3335 12.4833 6.22893 11.5879 7.3335 11.5879H56.6668C57.7714 11.5879 58.6668 12.4833 58.6668 13.5879C58.6668 14.6925 57.7714 15.5879 56.6668 15.5879H7.3335C6.22893 15.5879 5.3335 14.6925 5.3335 13.5879Z" fill="#2D373D"/>
<path d="M5.3335 52.2546C5.3335 51.15 6.22893 50.2546 7.3335 50.2546H56.6668C57.7714 50.2546 58.6668 51.15 58.6668 52.2546C58.6668 53.3591 57.7714 54.2546 56.6668 54.2546H7.3335C6.22893 54.2546 5.3335 53.3591 5.3335 52.2546Z" fill="#2D373D"/>
<path d="M9.3335 22.2546C8.22893 22.2546 7.3335 23.15 7.3335 24.2546C7.3335 25.3591 8.22893 26.2546 9.3335 26.2546H11.3335L11.3335 41.5879C11.3335 42.6925 12.2289 43.5879 13.3335 43.5879C14.4381 43.5879 15.3335 42.6925 15.3335 41.5879L15.3335 26.2546H17.3335C18.4381 26.2546 19.3335 25.3591 19.3335 24.2546C19.3335 23.15 18.4381 22.2546 17.3335 22.2546H9.3335Z" fill="#2D373D"/>
<path d="M54.0002 24.2546C54.0002 23.15 53.1047 22.2546 52.0002 22.2546C50.8956 22.2546 50.0002 23.15 50.0002 24.2546V41.5879C50.0002 42.6925 50.8956 43.5879 52.0002 43.5879C53.1047 43.5879 54.0002 42.6925 54.0002 41.5879V24.2546Z" fill="#2D373D"/>
<path fill-rule="evenodd" clip-rule="evenodd" d="M20.6668 27.5879C20.6668 26.6012 20.9464 25.1656 21.8438 23.9193C22.8146 22.571 24.415 21.5879 26.6668 21.5879C28.9187 21.5879 30.5191 22.571 31.4899 23.9193C32.3873 25.1656 32.6668 26.6012 32.6668 27.5879V41.5879C32.6668 42.6925 31.7714 43.5879 30.6668 43.5879C29.5623 43.5879 28.6668 42.6925 28.6668 41.5879V36.9212H24.6668V41.5879C24.6668 42.6925 23.7714 43.5879 22.6668 43.5879C21.5623 43.5879 20.6668 42.6925 20.6668 41.5879V27.5879ZM24.6668 32.9212V27.5879C24.6668 27.2413 24.7873 26.6768 25.0899 26.2565C25.3191 25.9382 25.7187 25.5879 26.6668 25.5879C27.615 25.5879 28.0146 25.9382 28.2438 26.2565C28.5464 26.6768 28.6668 27.2413 28.6668 27.5879V32.9212H24.6668Z" fill="#2D373D"/>
<path d="M46.1718 22.4391C47.1747 22.902 47.6124 24.0903 47.1496 25.0932L43.5362 32.922L47.1493 40.7503C47.6121 41.7532 47.1744 42.9414 46.1715 43.4043C45.1685 43.8672 43.9803 43.4294 43.5174 42.4265L41.3335 37.6947L39.1496 42.4265C38.6867 43.4294 37.4984 43.8672 36.4955 43.4043C35.4926 42.9414 35.0549 41.7532 35.5177 40.7503L39.1308 32.922L35.5174 25.0932C35.0545 24.0903 35.4923 22.902 36.4952 22.4391C37.4981 21.9762 38.6864 22.414 39.1493 23.4169L41.3335 28.1494L43.5177 23.4169C43.9806 22.414 45.1689 21.9762 46.1718 22.4391Z" fill="#2D373D"/>
</svg>
