<svg width="64" height="65" viewBox="0 0 64 65" fill="none" xmlns="http://www.w3.org/2000/svg">
<path d="M21.3607 6.25781C22.4652 6.25781 23.3607 7.15324 23.3607 8.25781V29.7588L24.9102 28.2176C25.6934 27.4386 26.9597 27.442 27.7387 28.2252C28.5176 29.0083 28.5142 30.2746 27.731 31.0536L22.7763 35.9817C22.7576 36.0004 22.7386 36.0188 22.7192 36.0368C22.5463 36.1969 22.3521 36.3209 22.1462 36.4088C21.9051 36.5119 21.6395 36.5689 21.3607 36.5689C21.2229 36.5689 21.0875 36.5549 20.9576 36.5283C20.5884 36.4529 20.2364 36.2725 19.9493 35.9869L14.9893 31.0536C14.2062 30.2746 14.2028 29.0083 14.9817 28.2252C15.7607 27.442 17.027 27.4386 17.8101 28.2176L19.3607 29.7598V8.25781C19.3607 7.15324 20.2561 6.25781 21.3607 6.25781Z" fill="#2D373D"/>
<path d="M42.6927 6.25781C43.7973 6.25781 44.6927 7.15324 44.6927 8.25781V14.2578C44.6927 15.3624 43.7973 16.2578 42.6927 16.2578C41.5881 16.2578 40.6927 15.3624 40.6927 14.2578V8.25781C40.6927 7.15324 41.5881 6.25781 42.6927 6.25781Z" fill="#2D373D"/>
<path fill-rule="evenodd" clip-rule="evenodd" d="M44.6927 22.9207L56.3557 11.3203C57.1389 10.5414 57.1423 9.27503 56.3633 8.49189C55.5844 7.70874 54.3181 7.70533 53.5349 8.48428L7.24195 54.5287C6.4588 55.3077 6.45539 56.574 7.23433 57.3572C8.01328 58.1403 9.2796 58.1437 10.0627 57.3648L36.4193 31.1497L41.2603 35.9647C41.2796 35.9845 41.2992 36.0038 41.3192 36.0227C41.4958 36.1897 41.6953 36.3184 41.9074 36.4089C42.1485 36.5119 42.4139 36.5689 42.6927 36.5689C42.924 36.5689 43.1462 36.5297 43.3528 36.4574C43.63 36.3608 43.8901 36.2014 44.111 35.9793L44.1249 35.9653L49.0631 31.0536C49.8462 30.2746 49.8496 29.0083 49.0707 28.2252C48.2917 27.442 47.0254 27.4386 46.2423 28.2176L44.6927 29.7588V22.9207ZM40.6927 26.8992L39.2554 28.3289L40.6927 29.7585V26.8992Z" fill="#2D373D"/>
<path d="M16.9162 42.6462C17.9641 42.2969 18.5304 41.1643 18.1811 40.1164C17.8318 39.0685 16.6992 38.5022 15.6513 38.8515C11.2973 40.3028 8.88427 42.2248 6.00807 44.7652C5.18018 45.4964 5.10182 46.7603 5.83304 47.5882C6.56426 48.4161 7.82816 48.4945 8.65604 47.7632C11.3778 45.3593 13.3131 43.8472 16.9162 42.6462Z" fill="#2D373D"/>
<path d="M58.0796 43.4752C58.8607 42.6942 58.8607 41.4278 58.0796 40.6468C57.2986 39.8658 56.0322 39.8658 55.2512 40.6468C50.8818 45.0162 46.4345 46.0347 42.105 45.6501C37.9821 45.284 33.9744 43.6565 30.1035 42.0847C29.7501 41.9412 29.3978 41.7981 29.0467 41.6565C28.0223 41.2435 26.8569 41.739 26.4438 42.7635C26.0308 43.7879 26.5264 44.9532 27.5508 45.3663C27.9093 45.5109 28.2761 45.6603 28.6505 45.8128C32.4313 47.3529 36.9955 49.2121 41.7511 49.6345C47.1477 50.1138 52.7961 48.7587 58.0796 43.4752Z" fill="#2D373D"/>
<path d="M18.2253 51.1975C18.2253 50.093 19.1207 49.1975 20.2253 49.1975C22.7348 49.1975 25.5652 50.2285 28.2733 51.3025C28.833 51.5244 29.3949 51.7516 29.96 51.9801C32.2674 52.9131 34.6286 53.8678 37.1003 54.5726C40.1484 55.4419 43.1902 55.8733 46.1777 55.3893C49.1262 54.9117 52.1608 53.5205 55.1879 50.5097C55.9711 49.7307 57.2374 49.7341 58.0163 50.5173C58.7953 51.3004 58.7919 52.5668 58.0087 53.3457C54.4225 56.9126 50.6372 58.7191 46.8174 59.3379C43.0366 59.9503 39.3618 59.377 36.0033 58.4193C33.3053 57.6499 30.6972 56.5944 28.3771 55.6554L28.3709 55.6529C27.8304 55.4342 27.3055 55.2217 26.7987 55.0208C23.9786 53.9023 21.849 53.1975 20.2253 53.1975C19.1207 53.1975 18.2253 52.3021 18.2253 51.1975Z" fill="#2D373D"/>
</svg>
