<svg width="64" height="65" viewBox="0 0 64 65" fill="none" xmlns="http://www.w3.org/2000/svg">
<path fill-rule="evenodd" clip-rule="evenodd" d="M30.8562 31.2591C29.3255 30.5658 27.6201 30.3551 25.9667 30.655C24.3134 30.9549 22.7906 31.7512 21.6009 32.9378C20.8189 33.7179 19.5526 33.7163 18.7725 32.9343C17.9924 32.1523 17.994 30.8859 18.7761 30.1059C20.5409 28.3454 22.8001 27.1641 25.2528 26.7192C27.7056 26.2743 30.2357 26.5869 32.5064 27.6154C33.5126 28.0711 33.9589 29.2562 33.5031 30.2624C33.0474 31.2685 31.8623 31.7148 30.8562 31.2591Z" fill="#2D373D"/>
<path fill-rule="evenodd" clip-rule="evenodd" d="M38.9348 26.1734C35.7821 23.3007 31.668 21.7128 27.4028 21.7222C23.1376 21.7315 19.0305 23.3376 15.8905 26.2241C15.0773 26.9716 13.8121 26.9184 13.0645 26.1052C12.317 25.292 12.3703 24.0268 13.1835 23.2793C17.0595 19.7163 22.1292 17.7338 27.394 17.7222C32.6588 17.7106 37.7372 19.6707 41.6289 23.2166C42.4453 23.9606 42.5041 25.2255 41.7602 26.042C41.0163 26.8585 39.7513 26.9173 38.9348 26.1734Z" fill="#2D373D"/>
<path fill-rule="evenodd" clip-rule="evenodd" d="M27.455 12.918C21.5631 12.9157 15.8469 14.9246 11.2519 18.6125C10.3905 19.3038 9.13168 19.166 8.4403 18.3045C7.74893 17.4431 7.88679 16.1843 8.74823 15.4929C14.0537 11.2348 20.6537 8.9153 27.4566 8.91797C34.2595 8.92064 40.8577 11.2453 46.1598 15.5076C47.0207 16.1996 47.1576 17.4585 46.4655 18.3194C45.7735 19.1803 44.5146 19.3172 43.6537 18.6252C39.0615 14.9337 33.3469 12.9203 27.455 12.918Z" fill="#2D373D"/>
<path fill-rule="evenodd" clip-rule="evenodd" d="M32.5558 33.4777C35.1313 30.9022 38.6244 29.4553 42.2667 29.4553C45.909 29.4553 49.4022 30.9022 51.9777 33.4777C54.5532 36.0532 56.0001 39.5464 56.0001 43.1887C56.0001 46.831 54.5532 50.3241 51.9777 52.8996C49.4022 55.4751 45.909 56.922 42.2667 56.922C38.6244 56.922 35.1313 55.4751 32.5558 52.8996C29.9803 50.3241 28.5334 46.831 28.5334 43.1887C28.5334 39.5464 29.9803 36.0532 32.5558 33.4777ZM42.2667 33.4553C39.6853 33.4553 37.2096 34.4808 35.3842 36.3062C33.5589 38.1315 32.5334 40.6072 32.5334 43.1887C32.5334 45.7701 33.5589 48.2458 35.3842 50.0712C37.2096 51.8965 39.6853 52.922 42.2667 52.922C44.8482 52.922 47.3239 51.8965 49.1492 50.0712C50.9746 48.2458 52.0001 45.7701 52.0001 43.1887C52.0001 40.6072 50.9746 38.1315 49.1492 36.3062C47.3239 34.4808 44.8482 33.4553 42.2667 33.4553Z" fill="#2D373D"/>
<path fill-rule="evenodd" clip-rule="evenodd" d="M42.6959 38.831C42.2692 38.7461 41.8268 38.7896 41.4248 38.9561C41.0228 39.1227 40.6792 39.4046 40.4375 39.7664C40.1957 40.1282 40.0667 40.5536 40.0667 40.9887C40.0667 41.7987 39.4101 42.4553 38.6001 42.4553C37.79 42.4553 37.1334 41.7987 37.1334 40.9887C37.1334 39.9734 37.4344 38.9809 37.9985 38.1368C38.5626 37.2926 39.3643 36.6346 40.3023 36.2461C41.2403 35.8576 42.2724 35.7559 43.2682 35.954C44.2639 36.1521 45.1786 36.641 45.8965 37.3589C46.6144 38.0768 47.1033 38.9914 47.3014 39.9872C47.4995 40.983 47.3978 42.0151 47.0093 42.9531C46.6208 43.8911 45.9628 44.6928 45.1186 45.2569C44.2745 45.8209 43.282 46.122 42.2667 46.122C41.4567 46.122 40.8 45.4654 40.8 44.6553C40.8 43.8453 41.4567 43.1887 42.2667 43.1887C42.7018 43.1887 43.1272 43.0596 43.489 42.8179C43.8508 42.5762 44.1327 42.2326 44.2992 41.8306C44.4658 41.4286 44.5093 40.9862 44.4244 40.5595C44.3396 40.1327 44.13 39.7407 43.8223 39.433C43.5147 39.1254 43.1227 38.9158 42.6959 38.831Z" fill="#2D373D"/>
<path d="M42.169 47.7842C42.5558 47.7842 42.9339 47.8989 43.2554 48.1138C43.577 48.3287 43.8277 48.6341 43.9757 48.9914C44.1237 49.3488 44.1624 49.742 44.087 50.1213C44.0115 50.5006 43.8253 50.8491 43.5518 51.1226C43.2783 51.3961 42.9298 51.5823 42.5505 51.6578C42.1712 51.7332 41.778 51.6945 41.4206 51.5465C41.0633 51.3985 40.7579 51.1478 40.543 50.8262C40.3281 50.5046 40.2134 50.1266 40.2134 49.7398C40.2134 49.2211 40.4195 48.7237 40.7862 48.357C41.1529 47.9903 41.6503 47.7842 42.169 47.7842Z" fill="#2D373D"/>
</svg>
