<svg width="24" height="25" viewBox="0 0 24 25" fill="none" xmlns="http://www.w3.org/2000/svg">
<path fill-rule="evenodd" clip-rule="evenodd" d="M13.1591 21.9219C13.5744 21.9219 13.911 21.5861 13.911 21.1719V20.9861H14.0451L14.0481 20.9861C15.4927 20.9805 16.8829 20.4378 17.9759 19.4634C18.91 18.6306 19.576 17.5286 19.9005 16.3072H20.248C20.6633 16.3072 21 15.9714 21 15.5572L21 13.0572C21 12.643 20.6633 12.3072 20.248 12.3072H15.8174C15.4021 12.3072 15.0654 12.643 15.0654 13.0572L15.0654 15.5572C15.0654 15.7897 15.1715 15.9975 15.338 16.1351C15.2728 16.1999 15.2035 16.2598 15.1304 16.3143C14.8089 16.5544 14.4301 16.6794 14.0464 16.6788H13.911V16.493C13.911 16.0788 13.5744 15.743 13.1591 15.743H10.6525C10.2372 15.743 9.90048 16.0788 9.90048 16.493L9.90048 21.1719C9.90048 21.5861 10.2372 21.9219 10.6525 21.9219H13.1591ZM12.407 17.4288L12.4071 17.4211V17.243H11.4044L11.4044 20.4219H12.4071V20.2438L12.407 20.2361L12.407 17.4288ZM14.0436 19.4861H13.911V18.1788H14.0445C14.7607 18.1798 15.4551 17.9456 16.0316 17.5152C16.4593 17.196 16.8058 16.7813 17.0498 16.3072H18.3284C18.0503 17.0978 17.5842 17.8007 16.9736 18.3451C16.1477 19.0814 15.1101 19.4816 14.0436 19.4861ZM19.496 14.8072H19.2974L19.2934 14.8072H16.5694L16.5694 13.8072H19.496L19.496 14.8072Z" fill="#2D373D"/>
<path fill-rule="evenodd" clip-rule="evenodd" d="M8.73149 3.92188C7.72765 3.92187 6.76493 4.3196 6.05512 5.02755C5.58754 5.49389 5.25494 6.06968 5.08237 6.69455H4.86477C4.44946 6.69455 4.11279 7.03033 4.11279 7.44455C4.11279 7.85876 4.44946 8.19455 4.86477 8.19455H4.97955C5.08854 9.01204 5.46396 9.7766 6.05512 10.3662C6.46669 10.7767 6.9633 11.0829 7.50365 11.2677C7.16829 11.342 6.83878 11.4465 6.51925 11.5807C5.47535 12.019 4.58448 12.7551 3.9584 13.6965C3.33232 14.6379 2.99891 15.7427 3 16.8724C3.0004 17.2866 3.3374 17.6221 3.75271 17.6217C4.16801 17.6213 4.50436 17.2852 4.50396 16.871C4.50315 16.0367 4.74937 15.2208 5.21171 14.5256C5.67406 13.8304 6.33195 13.2868 7.10285 12.9631C7.87375 12.6394 8.72333 12.5499 9.54501 12.706C10.3667 12.862 11.1239 13.2565 11.7216 13.8401C12.0184 14.1299 12.4945 14.1248 12.785 13.8288C13.0755 13.5328 13.0705 13.058 12.7737 12.7682C12.0003 12.0131 11.0298 11.4918 9.97434 11.2626C10.5089 11.0772 11.0001 10.7729 11.4079 10.3662C11.999 9.7766 12.3744 9.01204 12.4834 8.19455H12.6488C13.0641 8.19455 13.4007 7.85876 13.4007 7.44455C13.4007 7.03033 13.0641 6.69455 12.6488 6.69455H12.3806C12.208 6.06968 11.8754 5.49389 11.4079 5.02755C10.698 4.3196 9.73532 3.92188 8.73149 3.92188ZM10.7792 6.69455C10.6697 6.47202 10.5235 6.2668 10.3444 6.08821C10.268 6.01198 10.1867 5.94171 10.1012 5.87772L10.1131 6.69455H10.7792ZM9.11033 6.69455L9.09231 5.45051C8.97373 5.43156 8.85311 5.42188 8.73149 5.42188C8.62787 5.42187 8.52497 5.42891 8.42345 5.44271L8.42345 6.69455L9.11033 6.69455ZM7.42081 6.69455L6.6838 6.69455C6.7933 6.47202 6.93951 6.2668 7.11858 6.08821C7.21243 5.9946 7.31363 5.90999 7.42081 5.83493L7.42081 6.69455ZM6.50572 8.19455L10.9572 8.19455C10.8634 8.61203 10.6525 8.99822 10.3444 9.30554C9.91663 9.73219 9.33645 9.97188 8.73149 9.97188C8.12653 9.97188 7.54635 9.73219 7.11858 9.30554C6.81045 8.99822 6.59958 8.61203 6.50572 8.19455Z" fill="#2D373D"/>
</svg>
