<svg width="16" height="17" viewBox="0 0 16 17" fill="none" xmlns="http://www.w3.org/2000/svg">
<path d="M11.55 2.76172C10.45 2.11172 9.25 1.76172 8 1.76172C6.2 1.76172 4.55 2.46172 3.25 3.71172C2 4.96172 1.3 6.61172 1.3 8.41172C1.3 9.61172 1.6 10.7617 2.2 11.7617L1.3 14.5617C1.25 14.7117 1.3 14.9117 1.45 15.0617C1.55 15.1617 1.65 15.2117 1.8 15.2117C1.85 15.2117 1.95 15.1617 1.95 15.1617L4.65 14.2617C7.8 16.0617 11.8 15.0617 13.7 11.9617C15.65 8.86172 14.7 4.71172 11.55 2.76172ZM12.85 11.4617C11.2 14.1617 7.65 14.9617 5 13.3117C4.95 13.2617 4.85 13.2117 4.75 13.2117C4.7 13.2117 4.65 13.2117 4.6 13.2117L2.6 13.8617L3.25 11.8117C3.3 11.6617 3.3 11.5117 3.2 11.4117C2.65 10.5117 2.35 9.46172 2.35 8.41172C2.35 6.91172 2.95 5.46172 4 4.41172C5.05 3.36172 6.5 2.76172 8 2.76172C9.05 2.76172 10.1 3.06172 11 3.61172C13.7 5.26172 14.5 8.81172 12.85 11.4617Z" fill="#2D373D"/>
<path d="M10.8499 10.8618H10.4499V6.06177C10.4499 5.51177 9.9999 5.06177 9.4499 5.06177H6.5999C6.0499 5.06177 5.5999 5.51177 5.5999 6.06177V10.8618H5.1499C4.8499 10.8618 4.6499 11.0618 4.6499 11.3618C4.6499 11.6618 4.8499 11.8618 5.1499 11.8618H10.8499C11.1499 11.8618 11.3499 11.6618 11.3499 11.3618C11.3499 11.0618 11.1499 10.8618 10.8499 10.8618ZM6.5999 6.06177H9.4499V7.01177H7.9999C7.6999 7.01177 7.4999 7.21177 7.4999 7.51177C7.4999 7.81177 7.6999 8.01177 7.9999 8.01177H9.4499V8.91177H7.9999C7.6999 8.91177 7.4999 9.11177 7.4999 9.41177C7.4999 9.71177 7.6999 9.91177 7.9999 9.91177H9.4499V10.8618H6.5999V6.06177Z" fill="#2D373D"/>
</svg>
