<svg width="32" height="33" viewBox="0 0 32 33" fill="none" xmlns="http://www.w3.org/2000/svg">
<path d="M27.2998 5.56093C26.5998 4.36093 24.8998 3.96093 23.6998 4.76093L5.4998 16.1609C4.7998 16.5609 4.2998 17.4609 4.2998 18.3609C4.2998 19.8609 5.4998 20.9609 6.9998 21.0609H11.6998V25.1609C11.6998 26.5609 12.7998 27.7609 14.2998 27.7609C14.7998 27.7609 15.3998 27.5609 15.8998 27.3609L18.1998 25.7609L19.4998 27.4609C19.8998 27.9609 20.3998 28.3609 21.0998 28.4609C21.2998 28.4609 21.3998 28.4609 21.5998 28.4609C22.7998 28.4609 23.8998 27.5609 24.1998 26.3609L27.6998 7.46093C27.7998 6.76093 27.6998 6.16093 27.2998 5.56093ZM6.8998 18.9609C6.5998 18.9609 6.2998 18.7609 6.2998 18.3609C6.2998 18.1609 6.3998 17.9609 6.5998 17.8609L23.4998 7.26093L14.5998 18.9609H6.8998ZM14.6998 25.5609C14.2998 25.8609 13.6998 25.5609 13.6998 25.0609V21.0609H14.6998L16.9998 24.0609L14.6998 25.5609ZM22.0998 25.8609C22.0998 26.1609 21.6998 26.4609 21.3998 26.3609C21.1998 26.3609 21.0998 26.2609 20.9998 26.1609L19.1998 23.7609L16.3998 19.9609L25.3998 8.16093L22.0998 25.8609Z" fill="#2D373D"/>
</svg>
