<svg width="32" height="32" viewBox="0 0 32 32" fill="none" xmlns="http://www.w3.org/2000/svg">
<path d="M27.7999 15.3L16.6999 4.20002C16.4999 4.00002 16.2999 3.90002 15.9999 3.90002C15.6999 3.90002 15.4999 4.00002 15.2999 4.20002L4.1999 15.3C3.9999 15.5 3.8999 15.7 3.8999 16V27.1C3.8999 27.7 4.2999 28.1 4.8999 28.1C5.4999 28.1 5.8999 27.7 5.8999 27.1V16.4L15.9999 6.30002L26.0999 16.4V27.1C26.0999 27.7 26.4999 28.1 27.0999 28.1C27.5999 28.1 28.0999 27.6 28.0999 27.1V16C28.0999 15.7 27.9999 15.5 27.7999 15.3Z" fill="#2D373D"/>
<path d="M17.2999 15.9C18.3999 15.4 19.1999 14.3 19.1999 13C19.1999 11.2 17.7999 9.80005 15.9999 9.80005C14.1999 9.80005 12.7999 11.2 12.7999 13C12.7999 14.3 13.5999 15.4 14.6999 15.9C12.7999 16.5 11.2999 18.3 11.2999 20.4V22.6C11.2999 23.2 11.6999 23.6 12.2999 23.6H12.8999L13.4999 27.3C13.5999 27.7 13.9999 28.1 14.4999 28.1H17.4999C17.8999 28.1 18.3999 27.7001 18.4999 27.2001L19.0999 23.6H19.6999C20.2999 23.6 20.6999 23.2 20.6999 22.6V20.4C20.6999 18.3 19.2999 16.5 17.2999 15.9ZM15.9999 11.8C16.5999 11.8 17.1999 12.3 17.1999 13C17.1999 13.7 16.6999 14.2 15.9999 14.2C15.2999 14.2 14.7999 13.7 14.7999 13C14.7999 12.3 15.2999 11.8 15.9999 11.8ZM18.6999 21.7H18.1999C17.6999 21.7 17.2999 22 17.1999 22.5L16.5999 26.1H15.2999L14.7999 22.4C14.6999 22 14.2999 21.6 13.7999 21.6H13.2999V20.4C13.2999 18.9 14.4999 17.8 15.9999 17.8C17.4999 17.8 18.6999 19 18.6999 20.5V21.7Z" fill="#2D373D"/>
</svg>
