<svg width="64" height="65" viewBox="0 0 64 65" fill="none" xmlns="http://www.w3.org/2000/svg">
<path d="M38.3846 16.4324C36.8399 14.8958 37.1016 12.5862 38.5135 11.1951C39.1751 10.5432 40.0061 10.2029 40.8999 10.2755C41.7946 10.3482 43.0535 10.8621 44.4776 12.5091C44.8525 12.9428 45.3956 13.1947 45.9689 13.2009C46.5422 13.2071 47.0906 12.967 47.4749 12.5414C48.9324 10.9274 50.2097 10.4272 51.1216 10.3648C52.0327 10.3024 52.8658 10.6543 53.5193 11.3043C54.911 12.6884 55.1334 14.9298 53.6377 16.3922L44.6454 24.564C43.828 25.3069 43.7675 26.5718 44.5104 27.3892C45.2532 28.2067 46.5181 28.2671 47.3356 27.5243L56.352 19.3305C56.3665 19.3173 56.3809 19.3038 56.395 19.2902C59.8534 15.9561 58.9842 11.0979 56.34 8.46816C54.9728 7.10833 53.0466 6.22362 50.8484 6.37412C49.2017 6.48686 47.5637 7.16779 46.02 8.41692C44.5003 7.13424 42.8729 6.42264 41.2238 6.28868C39.0229 6.1099 37.0849 6.98735 35.7062 8.34571C33.0375 10.9751 32.1335 15.8562 35.5636 19.2683C36.3467 20.0473 37.613 20.044 38.392 19.2609C39.171 18.4778 39.1677 17.2114 38.3846 16.4324Z" fill="#2D373D"/>
<path d="M19.251 21.3698L18.3811 18.1241L12.9008 19.5923L13.7708 22.8385L9.90705 23.8736L9.5586 22.5734L8.38435 22.8879L7.86284 20.942L7.85127 20.9451C6.78433 21.2309 5.68761 20.5977 5.40167 19.5308C5.11574 18.4639 5.74888 17.3672 6.81582 17.0814L6.82739 17.0783L6.30633 15.1341L7.48058 14.8195L7.13218 13.5195L10.9959 12.4844L11.8654 15.7286L17.3457 14.2604L16.4761 11.0157L20.3398 9.98058L20.6905 11.2889L21.8559 10.9766L22.3749 12.9131L22.3957 12.9075C23.4627 12.6217 24.5594 13.2549 24.8453 14.3218C25.1313 15.3887 24.4981 16.4854 23.4312 16.7712L23.4103 16.7768L23.9339 18.7305L22.7685 19.0427L23.1147 20.3347L19.251 21.3698Z" fill="#2D373D"/>
<path fill-rule="evenodd" clip-rule="evenodd" d="M24.2995 26.9859C23.2081 25.2719 21.3381 23.901 18.8273 23.901C15.5293 23.901 12.1368 26.7096 12.7295 30.7763C13.1362 33.5665 14.131 36.2577 15.659 38.6496C17.2237 41.1244 19.3041 43.2185 21.7466 44.7956V53.2552H7.33349C6.22892 53.2552 5.33349 54.1506 5.33349 55.2552C5.33349 56.3598 6.22892 57.2552 7.33349 57.2552H21.7466V57.2719H41.6043C42.727 58.604 44.3875 59.5783 46.5044 59.5783C48.3336 59.5783 50.1888 58.7156 51.3798 57.2552H56.6585C57.7631 57.2552 58.6585 56.3598 58.6585 55.2552C58.6585 54.1506 57.7631 53.2552 56.6585 53.2552H52.6609C52.6504 53.076 52.632 52.894 52.6054 52.7094C51.989 48.4276 50.005 44.4293 46.91 41.3343C44.5646 38.9888 41.7004 37.2814 38.5871 36.3237C39.5362 35.2174 40.1941 33.8888 40.4921 32.436C40.8368 30.7557 40.6675 29.0239 40.0197 27.459C39.3572 25.8356 38.2246 24.5042 36.832 23.5758C35.4393 22.6473 33.7954 22.1198 32.0531 22.1198C29.7953 22.1198 27.5937 23.0078 25.9724 24.652C25.2756 25.3391 24.7147 26.1304 24.2995 26.9859ZM32.0531 26.1198C30.8307 26.1198 29.6544 26.6041 28.801 27.4806C27.9246 28.334 27.4402 29.5103 27.4402 30.7327C27.4402 31.6552 27.717 32.5317 28.2244 33.2928C28.7318 34.0539 29.4468 34.6536 30.2771 34.9996C31.1218 35.3458 32.05 35.4342 32.9448 35.2536C33.8396 35.073 34.6609 34.6315 35.3052 33.9847C35.951 33.3389 36.3892 32.5317 36.5737 31.6322C36.7582 30.7327 36.666 29.8101 36.32 28.9798C35.974 28.1264 35.3743 27.4114 34.6132 26.904C33.8521 26.3966 32.9757 26.1198 32.0531 26.1198ZM16.6877 30.1995C17.0138 32.4365 17.8121 34.5924 19.0349 36.5041C20.6634 39.0832 22.991 41.1468 25.7466 42.4547V53.2719H39.5853V46.3525C41.0152 47.4366 42.1685 48.8204 42.9757 50.4119C43.213 50.8863 43.4163 51.3728 43.5853 51.8688C43.7436 52.3338 43.8717 52.8073 43.969 53.2873C44.2222 54.5356 45.2307 55.5783 46.5044 55.5783C47.7783 55.5783 48.8278 54.5403 48.6463 53.2794C48.1522 49.8476 46.5621 46.6432 44.0816 44.1627C42.4888 42.5699 40.5975 41.3442 38.5392 40.5401C37.586 40.1678 36.597 39.8858 35.5853 39.6997C34.6288 39.5237 33.652 39.4334 32.6659 39.4332C29.5984 39.4332 26.6692 38.2108 24.5011 36.0658C22.8987 34.4462 21.8112 32.4018 21.3635 30.1922C21.1106 28.9438 20.1011 27.901 18.8273 27.901C17.5535 27.901 16.504 28.939 16.6877 30.1995Z" fill="#2D373D"/>
</svg>
