<svg width="16" height="16" viewBox="0 0 16 16" fill="none" xmlns="http://www.w3.org/2000/svg">
<path d="M14.2498 11.2999H1.7998C1.4998 11.2999 1.2998 11.4999 1.2998 11.7999C1.2998 12.0999 1.4998 12.2999 1.7998 12.2999H14.2498C14.4998 12.2999 14.7498 12.0999 14.7498 11.7999C14.7498 11.4999 14.5498 11.2999 14.2498 11.2999Z" fill="#2D373D"/>
<path d="M14.2498 7.49988H1.7998C1.4998 7.49988 1.2998 7.69988 1.2998 7.99988C1.2998 8.29988 1.4998 8.49988 1.7998 8.49988H14.2498C14.4998 8.49988 14.7498 8.29988 14.7498 7.99988C14.7498 7.69988 14.5498 7.49988 14.2498 7.49988Z" fill="#2D373D"/>
<path d="M1.7998 4.6499H14.2498C14.4998 4.6499 14.7498 4.4499 14.7498 4.1499C14.7498 3.8499 14.5498 3.6499 14.2498 3.6499H1.7998C1.4998 3.6499 1.2998 3.8499 1.2998 4.1499C1.2998 4.4499 1.4998 4.6499 1.7998 4.6499Z" fill="#2D373D"/>
</svg>
