<svg width="64" height="65" viewBox="0 0 64 65" fill="none" xmlns="http://www.w3.org/2000/svg">
<path fill-rule="evenodd" clip-rule="evenodd" d="M11.3335 23.3232C11.3335 22.2186 12.2289 21.3232 13.3335 21.3232H50.6668C51.7714 21.3232 52.6668 22.2186 52.6668 23.3232V56.9232C52.6668 58.0277 51.7714 58.9232 50.6668 58.9232H13.3335C12.2289 58.9232 11.3335 58.0277 11.3335 56.9232V23.3232ZM15.3335 25.3232V54.9232H48.6668V25.3232H15.3335Z" fill="#2D373D"/>
<path fill-rule="evenodd" clip-rule="evenodd" d="M32.0002 13.5898C28.0028 13.5898 24.6668 16.939 24.6668 21.1898C24.6668 21.8898 24.7577 22.5645 24.9265 23.2033L21.0593 24.2254C20.8029 23.2554 20.6668 22.2373 20.6668 21.1898C20.6668 14.8368 25.6882 9.58984 32.0002 9.58984C38.3121 9.58984 43.3335 14.8368 43.3335 21.1898C43.3335 22.2373 43.1974 23.2554 42.941 24.2254L39.0738 23.2033C39.2427 22.5645 39.3335 21.8898 39.3335 21.1898C39.3335 16.939 35.9975 13.5898 32.0002 13.5898Z" fill="#2D373D"/>
<path d="M36.6668 37.7232C36.6668 40.3741 34.5775 42.5232 32.0002 42.5232C29.4228 42.5232 27.3335 40.3741 27.3335 37.7232C27.3335 35.0722 29.4228 32.9232 32.0002 32.9232C34.5775 32.9232 36.6668 35.0722 36.6668 37.7232Z" fill="#2D373D"/>
</svg>
