<svg width="32" height="32" viewBox="0 0 32 32" fill="none" xmlns="http://www.w3.org/2000/svg">
<path d="M28.0002 26.7999L23.2002 12.2C23.1002 11.7 22.8002 11.3 22.5002 11C21.5002 9.99995 19.9002 9.99995 18.9002 11L15.7002 14.2L13.8002 12.3C13.9002 12 14.0002 11.7 14.0002 11.3C14.0002 10.6 13.7002 9.99995 13.3002 9.59995L8.3002 4.69995C7.3002 3.69995 5.7002 3.69995 4.7002 4.69995C3.7002 5.69995 3.7002 7.29995 4.7002 8.29995L9.6002 13.2C10.0002 13.6 10.7002 13.9 11.3002 13.9C11.7002 13.9 12.0002 13.8 12.3002 13.7L14.7002 16.1C14.7002 16.2 14.8002 16.3 14.9002 16.4C15.0002 16.5 15.1002 16.6 15.2002 16.6L17.7002 19.1C17.9002 19.3 18.1002 19.4 18.4002 19.4C18.6002 19.4 18.9002 19.3 19.1002 19.1C19.5002 18.7 19.5002 18.1 19.1002 17.7L17.1002 15.7L20.3002 12.5C20.6002 12.3 20.9002 12.3 21.1002 12.5C21.2002 12.5 21.3002 12.6 21.3002 12.8L25.5002 25.6L12.6002 21.4C12.5002 21.4 12.4002 21.3 12.3002 21.2C12.2002 21.1 12.2002 20.8999 12.2002 20.7999C12.2002 20.6999 12.2002 20.6 12.3002 20.5L14.2002 18.6C14.6002 18.2 14.6002 17.6 14.2002 17.2C13.8002 16.8 13.2002 16.8 12.8002 17.2L10.9002 19C10.5002 19.3 10.3002 19.7 10.2002 20.2C10.0002 20.8 10.1002 21.5 10.5002 22.1C10.9002 22.7 11.4002 23.1 12.0002 23.2L26.8002 28.1C26.9002 28.1 27.0002 28.1 27.1002 28.1C27.3002 28.1 27.6002 27.9999 27.8002 27.7999C28.0002 27.5999 28.1002 27.1999 28.0002 26.7999ZM10.9002 11.7L6.1002 6.79995C5.8002 6.59995 5.8002 6.29995 6.0002 6.09995C6.2002 5.89995 6.6002 5.89995 6.8002 6.09995L11.7002 10.9C11.8002 11 11.9002 11.2 11.9002 11.3C11.9002 11.5 11.8002 11.6 11.7002 11.7C11.6002 11.8 11.4002 11.9 11.3002 11.9C11.2002 11.9 11.1002 11.8 10.9002 11.7Z" fill="#2D373D"/>
</svg>
