<svg width="24" height="25" viewBox="0 0 24 25" fill="none" xmlns="http://www.w3.org/2000/svg">
<path d="M9.47354 22.1188C11.6447 22.6839 13.9429 22.5018 15.9979 21.6017C16.7417 21.276 17.438 20.863 18.0738 20.3748C18.4023 20.1225 18.4642 19.6517 18.2119 19.3232C17.9597 18.9946 17.4888 18.9328 17.1603 19.185C16.6199 19.5999 16.0282 19.9509 15.3961 20.2277C13.6496 20.9927 11.6965 21.1474 9.85139 20.6672C8.00624 20.1869 6.37646 19.0995 5.22457 17.5802C4.07268 16.0608 3.46573 14.198 3.50149 12.2917C3.53726 10.3854 4.21364 8.54664 5.4217 7.07158C6.62977 5.59651 8.29918 4.57102 10.161 4.16029C12.0229 3.74955 13.9688 3.97749 15.6854 4.80737C16.2099 5.06096 16.7037 5.36623 17.1603 5.71683C17.4888 5.96909 17.9597 5.90724 18.2119 5.5787C18.4642 5.25016 18.4023 4.77933 18.0738 4.52707C17.5364 4.11451 16.9554 3.75529 16.3383 3.45692C14.3184 2.48041 12.0287 2.2122 9.8379 2.69551C7.64709 3.17881 5.68273 4.38548 4.26123 6.12116C2.83973 7.85684 2.04384 10.0205 2.00176 12.2636C1.95968 14.5067 2.67386 16.6986 4.02927 18.4864C5.38467 20.2742 7.30239 21.5537 9.47354 22.1188Z" fill="#2D373D"/>
<path d="M17.4292 8.6202C17.7221 8.32731 18.197 8.32731 18.4899 8.6202L21.7761 11.9064C21.9201 12.0431 22.01 12.2363 22.01 12.4506C22.01 12.6658 21.9194 12.8598 21.7742 12.9965L18.4899 16.2809C18.197 16.5738 17.7221 16.5738 17.4292 16.2809C17.1363 15.988 17.1363 15.5131 17.4292 15.2202L19.4488 13.2006H7.39999C6.98578 13.2006 6.64999 12.8648 6.64999 12.4506C6.64999 12.0364 6.98578 11.7006 7.39999 11.7006H19.449L17.4292 9.68086C17.1363 9.38797 17.1363 8.9131 17.4292 8.6202Z" fill="#2D373D"/>
</svg>
