<svg width="32" height="33" viewBox="0 0 32 33" fill="none" xmlns="http://www.w3.org/2000/svg">
<path d="M27.1001 21.8609L23.9001 18.6609C22.8001 17.5609 21.0001 17.5609 19.9001 18.6609C19.6001 18.9609 19.1001 18.9609 18.8001 18.6609L13.7001 13.5609C13.4001 13.1609 13.4001 12.6609 13.7001 12.3609C14.8001 11.2609 14.8001 9.46094 13.7001 8.36094L10.6001 5.16094C9.50012 4.06094 7.70012 4.06094 6.60012 5.16094L5.80012 5.96094C3.60012 8.06094 3.20012 11.3609 4.90012 13.9609C8.50012 19.3609 13.1001 23.8609 18.4001 27.4609C19.5001 28.1609 20.7001 28.4609 21.9001 28.4609C23.5001 28.4609 25.2001 27.8609 26.3001 26.6609L27.1001 25.8609C28.2001 24.7609 28.2001 22.9609 27.1001 21.8609ZM25.8001 24.3609L25.0001 25.1609C23.6001 26.6609 21.3001 26.8609 19.5001 25.7609C14.4001 22.3609 10.0001 17.9609 6.60012 12.8609C5.50012 11.1609 5.70012 8.86094 7.20012 7.36094L7.90012 6.56094C8.30012 6.26094 8.80012 6.26094 9.10012 6.56094L12.3001 9.86094C12.6001 10.1609 12.6001 10.6609 12.3001 10.9609C11.2001 12.0609 11.2001 13.8609 12.3001 14.9609L17.4001 19.9609C18.5001 21.0609 20.3001 21.0609 21.4001 19.9609C21.8001 19.6609 22.3001 19.6609 22.6001 19.9609L25.8001 23.1609C26.1001 23.5609 26.1001 24.0609 25.8001 24.3609Z" fill="#2D373D"/>
</svg>
