<svg width="24" height="25" viewBox="0 0 24 25" fill="none" xmlns="http://www.w3.org/2000/svg">
<path d="M4.80008 13.7366C5.77508 13.7366 6.67508 12.9116 6.67508 11.8616C6.67508 11.1116 6.15008 10.5116 5.55008 10.2116V9.68658C5.55008 9.23658 5.25008 8.93658 4.80008 8.93658C4.35008 8.93658 4.05008 9.23658 4.05008 9.68658V10.8116C4.05008 11.2616 4.35008 11.5616 4.80008 11.5616C4.95008 11.5616 5.17508 11.6366 5.17508 11.8616C5.17508 12.0866 5.02508 12.2366 4.80008 12.2366C4.57508 12.2366 4.42508 12.0866 4.42508 11.8616C4.42508 11.4116 4.12508 11.1116 3.67508 11.1116C3.22508 11.1116 2.92508 11.4116 2.92508 11.8616C2.92508 12.9116 3.75008 13.7366 4.80008 13.7366Z" fill="#2D373D"/>
<path d="M18.4501 14.4865L16.7251 11.0365C16.4251 10.3615 15.7501 9.98655 15.0751 9.98655H13.5751C12.5251 9.98655 11.7001 10.8115 11.7001 11.8615V12.3865L5.8501 3.68655C5.5501 3.23655 4.9501 3.08655 4.5001 3.38655C4.2001 3.53655 4.0501 3.91155 4.0501 4.21155V7.36155C4.0501 7.81155 4.3501 8.11155 4.8001 8.11155C5.2501 8.11155 5.5501 7.81155 5.5501 7.36155V5.93655L11.1751 14.4115H4.7251C3.6751 14.4115 2.8501 15.2365 2.8501 16.2865V18.5365C2.8501 19.5865 3.6751 20.4115 4.7251 20.4115H6.3751C6.6751 21.0865 7.3501 21.5365 8.1001 21.5365C8.8501 21.5365 9.5251 21.0865 9.8251 20.4115H15.2251C15.5251 21.0865 16.2001 21.5365 16.9501 21.5365C17.7001 21.5365 18.3751 21.0865 18.6751 20.4115H19.0501C20.1001 20.4115 20.9251 19.5865 20.9251 18.5365V17.4115C20.9251 15.9115 19.8751 14.7115 18.4501 14.4865ZM13.2001 11.7865C13.2001 11.5615 13.3501 11.4115 13.5751 11.4115H15.0751C15.2251 11.4115 15.3001 11.4865 15.3751 11.6365L16.7251 14.4115H13.2001V11.7865ZM8.1001 20.0365C7.8751 20.0365 7.7251 19.8865 7.7251 19.6615C7.7251 19.4365 7.8751 19.2865 8.1001 19.2865C8.3251 19.2865 8.4751 19.4365 8.4751 19.6615C8.4751 19.8865 8.3251 20.0365 8.1001 20.0365ZM16.9501 20.0365C16.7251 20.0365 16.5751 19.8865 16.5751 19.6615C16.5751 19.4365 16.7251 19.2865 16.9501 19.2865C17.1751 19.2865 17.3251 19.4365 17.3251 19.6615C17.3251 19.8865 17.1751 20.0365 16.9501 20.0365ZM19.4251 18.5365C19.4251 18.7615 19.2751 18.9115 19.0501 18.9115H18.6751C18.3751 18.2365 17.7001 17.7865 16.9501 17.7865C16.2001 17.7865 15.5251 18.2365 15.2251 18.9115H9.8251C9.5251 18.2365 8.8501 17.7865 8.1001 17.7865C7.3501 17.7865 6.6751 18.2365 6.3751 18.9115H4.8001C4.5751 18.9115 4.4251 18.7615 4.4251 18.5365V16.2865C4.4251 16.1365 4.5751 15.9865 4.8001 15.8365H12.2251C12.3001 15.8365 12.3751 15.9115 12.4501 15.9115H17.7001C17.7751 15.9115 17.8501 15.9115 17.9251 15.9115C18.7501 15.9115 19.4251 16.5865 19.4251 17.4115V18.5365Z" fill="#2D373D"/>
</svg>
