<svg width="64" height="65" viewBox="0 0 64 65" fill="none" xmlns="http://www.w3.org/2000/svg">
<path d="M58.6132 38.7667C58.5026 38.5338 58.3589 38.3182 58.1865 38.1267L51.5199 31.46C51.1449 31.0855 50.6365 30.8751 50.1065 30.8751C49.5765 30.8751 49.0682 31.0855 48.6932 31.46C48.5045 31.6438 48.3545 31.8636 48.2521 32.1064C48.1497 32.3491 48.097 32.6099 48.097 32.8733C48.097 33.1368 48.1497 33.3976 48.2521 33.6403C48.3545 33.883 48.5045 34.1028 48.6932 34.2867L51.9199 37.54H28.3465C27.8161 37.54 27.3074 37.7507 26.9323 38.1258C26.5572 38.5008 26.3465 39.0096 26.3465 39.54C26.3465 40.0704 26.5572 40.5791 26.9323 40.9542C27.3074 41.3293 27.8161 41.54 28.3465 41.54H51.8399L48.6132 44.7933C48.4245 44.9772 48.2745 45.197 48.1721 45.4397C48.0698 45.6824 48.017 45.9432 48.017 46.2067C48.017 46.4701 48.0698 46.7309 48.1721 46.9736C48.2745 47.2164 48.4245 47.4361 48.6132 47.62C48.795 47.8107 49.0146 47.9614 49.2579 48.0625C49.5013 48.1635 49.7631 48.2126 50.0265 48.2067C50.2893 48.2079 50.5497 48.1566 50.7924 48.0559C51.0351 47.9552 51.2552 47.807 51.4399 47.62L58.1065 40.9533C58.2789 40.7617 58.4226 40.5462 58.5332 40.3133C58.7452 39.8242 58.7737 39.275 58.6132 38.7667Z" fill="#2D373D"/>
<path d="M12.1599 28.2066H35.6532C36.1836 28.2066 36.6923 27.9959 37.0674 27.6208C37.4425 27.2458 37.6532 26.7371 37.6532 26.2066C37.6532 25.6762 37.4425 25.1675 37.0674 24.7924C36.6923 24.4173 36.1836 24.2066 35.6532 24.2066H12.1599L15.4132 20.9533C15.7665 20.5742 15.9588 20.0727 15.9497 19.5546C15.9405 19.0364 15.7306 18.5421 15.3642 18.1756C14.9978 17.8092 14.5034 17.5993 13.9853 17.5902C13.4671 17.581 12.9657 17.7733 12.5865 18.1266L5.91987 24.8733C5.7391 25.0582 5.5944 25.2753 5.49321 25.5133C5.38753 25.7574 5.33301 26.0206 5.33301 26.2866C5.33301 26.5526 5.38753 26.8158 5.49321 27.06C5.5944 27.298 5.7391 27.515 5.91987 27.7L12.5865 34.3666C12.9615 34.7412 13.4699 34.9515 13.9999 34.9515C14.5299 34.9515 15.0382 34.7412 15.4132 34.3666C15.7877 33.9916 15.9981 33.4833 15.9981 32.9533C15.9981 32.4233 15.7877 31.915 15.4132 31.54L12.1599 28.2066Z" fill="#2D373D"/>
</svg>
