<svg width="32" height="33" viewBox="0 0 32 33" fill="none" xmlns="http://www.w3.org/2000/svg">
<path d="M29.3066 19.8462C29.2513 19.7298 29.1795 19.622 29.0933 19.5262L25.7599 16.1929C25.5724 16.0056 25.3183 15.9004 25.0533 15.9004C24.7883 15.9004 24.5341 16.0056 24.3466 16.1929C24.2523 16.2848 24.1773 16.3947 24.1261 16.5161C24.0749 16.6374 24.0485 16.7678 24.0485 16.8996C24.0485 17.0313 24.0749 17.1617 24.1261 17.283C24.1773 17.4044 24.2523 17.5143 24.3466 17.6062L25.9599 19.2329H14.1733C13.908 19.2329 13.6537 19.3382 13.4662 19.5258C13.2786 19.7133 13.1733 19.9677 13.1733 20.2329C13.1733 20.4981 13.2786 20.7525 13.4662 20.94C13.6537 21.1275 13.908 21.2329 14.1733 21.2329H25.9199L24.3066 22.8596C24.2122 22.9515 24.1373 23.0614 24.0861 23.1827C24.0349 23.3041 24.0085 23.4345 24.0085 23.5662C24.0085 23.6979 24.0349 23.8283 24.0861 23.9497C24.1373 24.0711 24.2122 24.181 24.3066 24.2729C24.3975 24.3683 24.5073 24.4436 24.629 24.4941C24.7507 24.5446 24.8815 24.5692 25.0133 24.5662C25.1446 24.5668 25.2748 24.5412 25.3962 24.4908C25.5175 24.4405 25.6276 24.3664 25.7199 24.2729L29.0533 20.9396C29.1395 20.8438 29.2113 20.736 29.2666 20.6196C29.3726 20.375 29.3868 20.1004 29.3066 19.8462Z" fill="#2D373D"/>
<path d="M6.07994 14.5662H17.8266C18.0918 14.5662 18.3462 14.4608 18.5337 14.2733C18.7212 14.0858 18.8266 13.8314 18.8266 13.5662C18.8266 13.301 18.7212 13.0466 18.5337 12.8591C18.3462 12.6716 18.0918 12.5662 17.8266 12.5662H6.07994L7.7066 10.9395C7.88324 10.75 7.97941 10.4992 7.97484 10.2402C7.97027 9.9811 7.86532 9.73392 7.6821 9.55071C7.49888 9.36749 7.2517 9.26254 6.99263 9.25797C6.73357 9.2534 6.48284 9.34956 6.29327 9.5262L2.95994 12.8995C2.86955 12.992 2.7972 13.1005 2.7466 13.2195C2.69376 13.3416 2.6665 13.4732 2.6665 13.6062C2.6665 13.7392 2.69376 13.8708 2.7466 13.9929C2.7972 14.1119 2.86955 14.2204 2.95994 14.3129L6.29327 17.6462C6.48077 17.8335 6.73494 17.9387 6.99994 17.9387C7.26494 17.9387 7.5191 17.8335 7.7066 17.6462C7.89387 17.4587 7.99906 17.2045 7.99906 16.9395C7.99906 16.6745 7.89387 16.4204 7.7066 16.2329L6.07994 14.5662Z" fill="#2D373D"/>
</svg>
