<svg width="32" height="32" viewBox="0 0 32 32" fill="none" xmlns="http://www.w3.org/2000/svg">
<path d="M21.8001 17.4C20.3001 17.4 19.1001 18.6 19.1001 20.1C19.1001 21.6 20.3001 22.8 21.8001 22.8C23.3001 22.8 24.4001 21.6 24.5001 20.1C24.5001 18.6 23.3001 17.4 21.8001 17.4ZM21.8001 20.9C21.4001 20.9 21.1001 20.6 21.1001 20.2C21.1001 19.8 21.4001 19.5 21.8001 19.5C22.2001 19.5 22.5001 19.8 22.5001 20.2C22.5001 20.6 22.2001 20.9 21.8001 20.9Z" fill="#2D373D"/>
<path d="M27.6001 20.1L28.8001 18.8C29.3001 18.2 29.6001 17.4 29.4001 16.6C29.1001 15.2 27.7001 14.4 26.4001 14.7L24.8001 15.1L24.7001 15L24.2001 13.4C24.1001 13.4 24.1001 13.3 24.1001 13.3C23.8001 12.6 23.2001 12 22.5001 11.8C21.2001 11.4 19.8001 12.1 19.4001 13.4L18.8001 15.1C18.8001 15.2 18.7001 15.2 18.7001 15.2L17.1001 14.8C16.3001 14.6 15.5001 14.8 14.9001 15.4C14.4001 15.8 14.1001 16.4 14.1001 17.1C14.1001 17.8 14.4001 18.4 14.8001 18.9L15.9001 20.1V20.2L14.8001 21.4C14.3001 22 14.0001 22.8 14.2001 23.6C14.4001 24.3 14.7001 24.8 15.3001 25.2C15.9001 25.5 16.5001 25.6 17.2001 25.5L18.8001 25.1C18.8001 25.1 18.9001 25.1 18.9001 25.2L19.4001 26.8C19.7001 27.6 20.3001 28.3 21.1001 28.5C21.3001 28.6 21.6001 28.6 21.8001 28.6C22.2001 28.6 22.6001 28.5 23.0001 28.2C23.6001 27.8 24.0001 27.3 24.2001 26.7L24.7001 25.1C24.7001 25 24.7001 25 24.8001 25L26.4001 25.4C27.2001 25.6 28.0001 25.4 28.6001 24.8C29.1001 24.4 29.4001 23.8 29.4001 23.1C29.4001 22.4 29.1001 21.8 28.7001 21.3L27.6001 20.1ZM26.2001 21.7L27.3001 22.9C27.4001 23 27.4001 23.1 27.4001 23.2C27.3001 23.2 27.3001 23.4 27.2001 23.5C27.1001 23.6 27.0001 23.6 26.8001 23.6L25.2001 23.2C24.1001 22.9 23.0001 23.6 22.7001 24.6L22.2001 26.2C22.2001 26.4 22.1001 26.5 22.0001 26.5C21.9001 26.5 21.8001 26.5 21.6001 26.5C21.5001 26.5 21.3001 26.4 21.3001 26.2L20.8001 24.6C20.5001 23.7 19.8001 23.2 18.9001 23.2C18.8001 23.2 18.5001 23.1 18.3001 23.3L16.8001 23.7C16.6001 23.7 16.5001 23.7 16.4001 23.7C16.3001 23.7 16.1001 23.5 16.1001 23.3C16.1001 23.2 16.2001 23 16.3001 22.9L17.4001 21.7C18.1001 20.9 18.1001 19.6 17.4001 18.8L16.3001 17.6C16.1001 17.4 16.1001 17.1 16.3001 16.9C16.4001 16.8 16.6001 16.8 16.7001 16.8L18.3001 17.2C19.4001 17.5 20.5001 16.8 20.8001 15.8L21.3001 14.2C21.4001 14 21.7001 13.8 21.9001 13.9C22.0001 13.9 22.2001 14 22.2001 14.2V14.3L22.7001 15.8C23.0001 16.8 24.1001 17.4 25.2001 17.2L26.8001 16.8C27.0001 16.8 27.1001 16.9 27.2001 16.9C27.3001 16.9 27.4001 17 27.4001 17.2C27.5001 17.3 27.4001 17.5 27.3001 17.6L26.2001 18.8C25.5001 19.6 25.5001 20.9 26.2001 21.7Z" fill="#2D373D"/>
<path d="M7.70005 12.6C7.60005 12.5 7.40005 12.5 7.30005 12.5C7.20005 12.5 7.00005 12.5 6.90005 12.6C6.50006 12.7 6.10005 13.1 6.00005 13.5C5.90005 13.6 5.90005 13.8 5.90005 13.9C5.90005 14.5 6.30006 15 6.90005 15.2C7.00005 15.3 7.20005 15.3 7.30005 15.3C7.40005 15.3 7.60005 15.3 7.70005 15.2C8.10005 15.1 8.50005 14.7 8.60005 14.3C8.70005 14.2 8.70005 14 8.70005 13.9C8.70005 13.8 8.70005 13.6 8.60005 13.5C8.50005 13.1 8.20005 12.7 7.70005 12.6Z" fill="#2D373D"/>
<path d="M11.9001 16.7H5.3001C4.9001 16.7 4.6001 16.4 4.6001 16V13.5C4.6001 12.2 5.6001 11.2 6.9001 11.2H23.3001C24.1001 11.2 24.9001 11.7 25.3001 12.4C25.6001 12.9 26.2001 13.1 26.7001 12.8C27.2001 12.5 27.4001 11.9 27.1001 11.4C26.7001 10.6 26.0001 9.90002 25.2001 9.60002L23.4001 5.70002C22.9001 4.30002 21.5001 3.40002 20.1001 3.40002H10.3001C8.8001 3.40002 7.5001 4.30002 7.0001 5.60002L5.3001 9.50002C3.7001 10.1 2.6001 11.7 2.6001 13.5V16C2.6001 16.7 2.9001 17.4 3.4001 17.8V19.2C3.4001 20.7 4.6001 21.9 6.1001 21.9C7.5001 21.9 8.7001 20.8 8.8001 19.3V18.6H11.9001C12.4001 18.6 12.9001 18.3 12.9001 17.7C12.9001 17.1 12.5001 16.7 11.9001 16.7ZM8.9001 6.40002C9.1001 5.80002 9.7001 5.40002 10.3001 5.40002H20.1001C20.7001 5.40002 21.3001 5.80002 21.5001 6.40002L22.8001 9.20002H7.6001L8.9001 6.40002ZM6.8001 19.3C6.8001 19.7 6.5001 20 6.1001 20C5.7001 20 5.4001 19.7 5.4001 19.3V18.6H6.8001V19.3Z" fill="#2D373D"/>
</svg>
