<svg width="32" height="33" viewBox="0 0 32 33" fill="none" xmlns="http://www.w3.org/2000/svg">
<path d="M28.4001 5.76074H3.6001C3.0001 5.76074 2.6001 6.16074 2.6001 6.76074V26.1607C2.6001 26.7607 3.0001 27.1607 3.6001 27.1607H28.4001C28.9001 27.1607 29.4001 26.7607 29.4001 26.1607V6.76074C29.4001 6.16074 29.0001 5.76074 28.4001 5.76074ZM26.2001 7.76074L17.7001 15.1607C16.7001 16.0607 15.3001 16.0607 14.3001 15.1607L5.8001 7.76074H26.2001ZM4.6001 25.1607V9.26074L13.0001 16.5607C13.8001 17.3607 14.9001 17.7607 16.0001 17.7607C17.1001 17.7607 18.2001 17.3607 19.0001 16.6607L27.4001 9.26074V25.1607H4.6001Z" fill="#2D373D"/>
</svg>
