<svg width="64" height="64" viewBox="0 0 64 64" fill="none" xmlns="http://www.w3.org/2000/svg">
<path d="M55.7998 43.9999C57.5998 40.1999 58.7998 36.1999 58.7998 31.7999C58.7998 31.3999 58.7998 30.9999 58.7998 30.5999C58.7998 30.3999 58.7998 30.3999 58.7998 30.1999C58.7998 29.9999 58.7998 29.5999 58.5998 29.3999C58.1998 25.9999 57.3998 22.3999 55.7998 19.3999C55.1998 18.3999 54.5998 17.3999 53.9998 16.3999C53.7998 15.7999 53.5998 15.3999 52.9998 15.1999C49.5998 10.9999 45.1998 7.99994 39.9998 6.39994C33.1998 4.19994 25.9998 4.79994 19.5998 8.19994C16.1998 10.1999 13.1998 12.5999 10.9998 15.5999C10.9998 15.5999 10.7998 15.7999 10.7998 15.9999C8.79981 18.3999 7.39981 20.9999 6.3998 23.9999C5.7998 25.9999 5.3998 27.9999 5.1998 30.1999C4.9998 35.1999 5.9998 39.9999 8.1998 44.3999C11.5998 50.5999 17.1998 55.1999 23.9998 57.3999C24.3998 57.5999 24.5998 57.5999 24.9998 57.5999C25.3998 57.9999 25.7998 57.9999 25.9998 57.9999H26.1998C28.1998 58.3999 30.1998 58.5999 31.9998 58.5999C33.9998 58.5999 35.7998 58.3999 37.7998 57.9999C38.3998 57.9999 38.7998 57.7999 39.1998 57.5999C40.7998 57.1999 42.3998 56.5999 43.7998 55.7999L56.1998 58.5999C56.9998 58.5999 57.7998 58.3999 58.1998 57.7999C58.5998 57.1999 58.7998 56.1999 58.3998 55.5999L53.9998 46.7999C54.3998 46.1999 54.7998 45.3999 55.1998 44.7999C55.5998 44.5999 55.7998 44.1999 55.7998 43.9999ZM11.3998 41.3999C9.9998 38.3999 9.3998 35.3999 9.3998 32.1999H18.5998C18.5998 35.3999 18.7998 38.3999 19.1998 41.3999H11.3998ZM50.7998 18.9999C51.3998 19.7999 51.9998 20.5999 52.3998 21.5999C53.3998 23.5999 54.1998 25.7999 54.5998 28.1999H45.3998C45.1998 24.9999 44.7998 21.7999 44.1998 18.9999H50.7998ZM43.1998 14.9999C42.7998 13.7999 42.3998 12.5999 41.9998 11.5999C43.7998 12.3999 45.5998 13.5999 47.1998 14.9999H43.1998ZM41.1998 28.1999H22.5998C22.7998 24.9999 23.1998 21.7999 23.7998 18.9999H39.7998C40.5998 21.7999 40.9998 24.9999 41.1998 28.1999ZM22.5998 32.1999H41.3998C41.3998 35.3999 41.1998 38.5999 40.5998 41.3999H23.1998C22.7998 38.5999 22.5998 35.3999 22.5998 32.1999ZM45.3998 32.1999H54.9998C54.9998 35.3999 54.3998 38.5999 52.9998 41.3999H44.7998C45.1998 38.5999 45.3998 35.3999 45.3998 32.1999ZM36.3998 9.79994C37.3998 11.1999 38.1998 12.9999 38.7998 15.1999H24.9998C25.5998 13.1999 26.5998 11.3999 27.3998 9.79994C28.7998 9.59994 30.3998 9.39994 31.7998 9.39994C33.3998 9.19994 34.9998 9.39994 36.3998 9.79994ZM21.1998 11.7999C21.3998 11.5999 21.5998 11.5999 21.9998 11.3999C21.5998 12.5999 21.1998 13.5999 20.7998 14.9999H16.7998C18.1998 13.7999 19.5998 12.7999 21.1998 11.7999ZM13.3998 18.9999H19.7998C19.1998 21.7999 18.7998 24.9999 18.5998 28.1999H9.59981C9.79981 27.1999 9.9998 26.1999 10.1998 25.1999C10.9998 22.9999 11.9998 20.9999 13.3998 18.9999ZM13.5998 45.3999H19.7998C20.3998 47.9999 20.9998 50.3999 21.7998 52.3999C18.5998 50.7999 15.7998 48.3999 13.5998 45.3999ZM27.3998 54.3999C25.9998 52.1999 24.7998 48.9999 23.9998 45.3999H39.7998C38.9998 48.9999 37.7998 52.1999 36.1998 54.3999C33.3998 54.9999 30.3998 54.9999 27.3998 54.3999ZM43.9998 51.9999C43.3998 51.9999 42.9998 51.9999 42.5998 52.1999C42.3998 52.3999 42.1998 52.3999 41.9998 52.3999C42.7998 50.1999 43.5998 47.7999 43.9998 45.3999H50.5998C50.5998 45.5999 50.3998 45.5999 50.3998 45.7999C49.9998 46.3999 49.7998 47.1999 50.1998 47.7999L53.1998 53.9999L43.9998 51.9999Z" fill="#2D373D"/>
</svg>
