<svg width="32" height="32" viewBox="0 0 32 32" fill="none" xmlns="http://www.w3.org/2000/svg">
<path fill-rule="evenodd" clip-rule="evenodd" d="M5.43333 3.23097C5.60035 2.88578 5.95004 2.6665 6.3335 2.6665H25.6668C26.0503 2.6665 26.4 2.88578 26.567 3.23097C26.734 3.57615 26.6889 3.98644 26.451 4.28712L19.2309 13.4092V25.3332C19.2309 25.6679 19.0635 25.9803 18.7849 26.1657L14.3233 29.1341C14.0164 29.3383 13.6221 29.3571 13.2971 29.183C12.9722 29.0089 12.7694 28.6701 12.7694 28.3015V13.4092L5.54939 4.28712C5.31141 3.98644 5.26632 3.57615 5.43333 3.23097ZM8.40032 4.6665L14.5535 12.4407C14.6933 12.6174 14.7694 12.836 14.7694 13.0613V26.4351L17.2309 24.7974V13.0613C17.2309 12.836 17.307 12.6174 17.4468 12.4407L23.6 4.6665H8.40032Z" fill="#2D373D"/>
</svg>
