<svg width="64" height="65" viewBox="0 0 64 65" fill="none" xmlns="http://www.w3.org/2000/svg">
<path fill-rule="evenodd" clip-rule="evenodd" d="M47.7556 7.75313C48.9332 7.74516 50.1006 7.97058 51.1906 8.41637C52.2805 8.86216 53.2713 9.51948 54.1057 10.3504L54.1113 10.3559C54.9425 11.1901 55.6001 12.1807 56.0461 13.2706C56.4921 14.3605 56.7176 15.528 56.7096 16.7056C56.7017 17.8831 56.4603 19.0475 55.9996 20.1312C55.5406 21.2111 54.8727 22.1896 54.0345 23.0107L26.4923 50.5529C26.2389 50.8063 25.922 50.987 25.5749 51.076L12.4554 54.4409C11.7708 54.6165 11.0443 54.4177 10.5444 53.9179C10.0446 53.4181 9.84567 52.6917 10.0212 52.007L13.3842 38.8875C13.4732 38.5403 13.6539 38.2233 13.9073 37.9699L41.4497 10.4275C42.2711 9.58942 43.2499 8.92175 44.33 8.46281C45.4138 8.00231 46.5781 7.76111 47.7556 7.75313ZM49.6763 12.1187C49.0754 11.8729 48.4319 11.7486 47.7827 11.753C47.1336 11.7574 46.4917 11.8904 45.8943 12.1443C45.2968 12.3981 44.7556 12.7679 44.3018 13.2321L44.2858 13.2484L17.1229 40.4111L14.735 49.7267L24.0509 47.3374L51.2305 20.1578C51.6947 19.7044 52.0646 19.1635 52.3185 18.5663C52.5723 17.969 52.7053 17.3274 52.7097 16.6785C52.7141 16.0295 52.5898 15.3862 52.3441 14.7855C52.0988 14.1861 51.7373 13.6411 51.2805 13.182C50.8211 12.7253 50.2759 12.3639 49.6763 12.1187Z" fill="#2D373D"/>
<path fill-rule="evenodd" clip-rule="evenodd" d="M40.6706 11.2083C41.4516 10.4273 42.718 10.4273 43.499 11.2083L53.2536 20.9629C54.0347 21.744 54.0347 23.0103 53.2536 23.7914C52.4726 24.5724 51.2062 24.5724 50.4252 23.7914L40.6706 14.0368C39.8895 13.2557 39.8895 11.9894 40.6706 11.2083Z" fill="#2D373D"/>
<path fill-rule="evenodd" clip-rule="evenodd" d="M13.9073 37.9699C14.6877 37.1881 15.9546 37.1863 16.7364 37.9667L26.5005 47.7137C27.2822 48.4941 27.2833 49.7604 26.503 50.5421C25.7226 51.3239 24.4563 51.325 23.6745 50.5446L13.9104 40.7976C13.1287 40.0172 13.127 38.7516 13.9073 37.9699Z" fill="#2D373D"/>
</svg>
