<svg width="64" height="64" viewBox="0 0 64 64" fill="none" xmlns="http://www.w3.org/2000/svg">
<path d="M26.4002 37.3998C25.0002 38.9998 22.8002 39.9998 20.6002 39.9998H17.2002C12.8002 39.9998 9.2002 36.3998 9.2002 31.9998C9.2002 27.5998 12.8002 23.9998 17.2002 23.9998H20.4002C22.6002 23.9998 24.8002 24.9998 26.2002 26.5998C27.0002 27.3998 28.2002 27.5998 29.0002 26.7998C29.8002 25.9998 30.0002 24.7998 29.2002 23.9998C27.0002 21.3998 23.8002 19.9998 20.6002 19.7998H17.2002C10.6002 19.7998 5.2002 25.1998 5.2002 31.7998C5.2002 38.3998 10.6002 43.7998 17.2002 43.7998H20.4002C23.8002 43.7998 27.0002 42.3998 29.4002 39.9998C30.0002 39.1998 30.0002 37.9998 29.2002 37.1998C28.4002 36.3998 27.2002 36.5998 26.4002 37.3998Z" fill="#2D373D"/>
<path d="M46.8001 19.7998H43.4001C40.0001 19.7998 36.8001 21.1998 34.6001 23.7998C33.8001 24.5998 34.0001 25.7998 34.8001 26.5998C35.6001 27.1998 36.8001 27.1998 37.6001 26.3998C39.0001 24.7998 41.2001 23.7998 43.4001 23.7998H46.8001C51.2001 23.7998 54.8001 27.3998 54.8001 31.7998C54.8001 36.1998 51.2001 39.7998 46.8001 39.7998H43.4001C41.2001 39.7998 39.0001 38.7998 37.6001 37.1998C36.8001 36.3998 35.6001 36.1998 34.8001 36.9998C34.0001 37.7998 33.8001 38.9998 34.6001 39.7998C36.8001 42.3998 40.0001 43.7998 43.4001 43.7998H46.8001C53.4001 43.7998 58.8001 38.3998 58.8001 31.7998C58.8001 25.1998 53.4001 19.7998 46.8001 19.7998Z" fill="#2D373D"/>
<path d="M18.4004 32C18.4004 33.2 19.2004 34 20.4004 34H43.6004C44.6004 34 45.6004 33.2 45.6004 32C45.6004 30.8 44.8004 30 43.6004 30H20.4004C19.2004 30 18.4004 30.8 18.4004 32Z" fill="#2D373D"/>
</svg>
