<svg width="64" height="65" viewBox="0 0 64 65" fill="none" xmlns="http://www.w3.org/2000/svg">
<path fill-rule="evenodd" clip-rule="evenodd" d="M53.332 5.79395C54.4366 5.79395 55.332 6.68938 55.332 7.79395V32.4606C55.332 32.5884 55.3201 32.7133 55.2972 32.8344C55.9549 33.0946 56.5713 33.4907 57.1033 34.0227C59.1861 36.1055 59.1861 39.4824 57.1033 41.5652C56.5807 42.0878 55.9767 42.4792 55.332 42.7396V52.8606C55.332 52.8606 55.332 52.8606 53.332 52.8606H55.332L55.332 52.8651L55.332 52.87L55.3319 52.8811L55.3316 52.9081L55.3296 52.9814C55.3275 53.0384 55.3237 53.112 55.3168 53.1997C55.3032 53.3745 55.277 53.6097 55.2267 53.8859C55.1275 54.4299 54.9258 55.1813 54.5034 55.9536C54.075 56.7369 53.4113 57.5545 52.4042 58.1684C51.3928 58.7849 50.1473 59.1273 48.6654 59.1273C47.1835 59.1273 45.9379 58.7849 44.9265 58.1684C43.9194 57.5545 43.2557 56.7369 42.8273 55.9536C42.405 55.1813 42.2032 54.4299 42.104 53.8859C42.0537 53.6097 42.0275 53.3745 42.0139 53.1997C42.007 53.112 42.0032 53.0384 42.0012 52.9814L41.9991 52.9081L41.9988 52.8811L41.9987 52.87L41.9987 52.8651C41.9987 52.8651 41.9987 52.8606 43.9987 52.8606L41.9987 52.8606V49.7939C41.9987 48.6894 42.8941 47.7939 43.9987 47.7939C45.1033 47.7939 45.9987 48.6894 45.9987 49.7939V52.8403C45.9987 52.8403 45.9992 52.8514 45.9998 52.8603C46.0002 52.868 46.0009 52.8773 46.0017 52.8882C46.0063 52.9467 46.0166 53.0449 46.0392 53.1686C46.0859 53.4246 46.1758 53.7399 46.3368 54.0343C46.4917 54.3176 46.703 54.5667 47.0084 54.7528C47.3094 54.9364 47.8139 55.1273 48.6654 55.1273C49.5168 55.1273 50.0213 54.9364 50.3224 54.7528C50.6277 54.5667 50.839 54.3176 50.994 54.0343C51.155 53.7399 51.2449 53.4246 51.2915 53.1686C51.3141 53.0449 51.3244 52.9467 51.329 52.8882L51.3304 52.8682L51.332 52.8403V42.7396C50.6874 42.4792 50.0834 42.0878 49.5608 41.5652C47.478 39.4824 47.478 36.1055 49.5608 34.0227C50.0928 33.4907 50.7092 33.0946 51.3669 32.8344C51.344 32.7133 51.332 32.5884 51.332 32.4606V7.79395C51.332 6.68938 52.2275 5.79395 53.332 5.79395ZM54.2748 36.8511C54.7955 37.3718 54.7955 38.2161 54.2748 38.7368C53.7541 39.2575 52.9099 39.2575 52.3892 38.7368C51.8685 38.2161 51.8685 37.3718 52.3892 36.8511C52.9099 36.3304 53.7541 36.3304 54.2748 36.8511Z" fill="#2D373D"/>
<path d="M33.2432 34.2062C34.118 35.081 35.5363 35.081 36.411 34.2062C37.2858 33.3315 37.2858 31.9132 36.411 31.0384C35.5363 30.1636 34.118 30.1636 33.2432 31.0384C32.3684 31.9132 32.3684 33.3315 33.2432 34.2062Z" fill="#2D373D"/>
<path fill-rule="evenodd" clip-rule="evenodd" d="M8.32429 40.1971C9.99005 39.2453 11.8974 37.8562 13.8627 36.387C14.2712 36.0816 14.6837 35.7716 15.0998 35.4589L15.7754 34.9514C16.4543 35.4472 17.1435 35.9416 17.8375 36.4247C20.0744 37.9816 22.4342 39.4728 24.7865 40.5788C27.1236 41.6777 29.5853 42.4604 31.9987 42.4604C35.1391 42.4604 38.2201 41.2944 40.532 39.5605C42.7937 37.8643 44.6654 35.341 44.6654 32.4605C44.6654 29.58 42.7936 27.0568 40.532 25.3606C38.2201 23.6267 35.1391 22.4606 31.9987 22.4606C29.5853 22.4606 27.1235 23.2433 24.7865 24.3422C22.4342 25.4483 20.0743 26.9395 17.8374 28.4965C17.1434 28.9795 16.4543 29.4739 15.7754 29.9698L15.1034 29.465C14.6861 29.1514 14.2724 28.8405 13.8626 28.5342C11.8973 27.065 9.99004 25.676 8.32429 24.7241C7.70529 24.3704 6.9448 24.3729 6.32817 24.7308C5.71154 25.0886 5.33203 25.7477 5.33203 26.4606V38.4606C5.33203 39.1735 5.71154 39.8326 6.32817 40.1904C6.9448 40.5483 7.70529 40.5508 8.32429 40.1971ZM11.4676 33.1833C11.783 32.9475 12.1045 32.7062 12.4313 32.4606C12.1045 32.215 11.783 31.9737 11.4676 31.7379C10.7169 31.1766 10.0045 30.6501 9.33203 30.1684V34.7528C10.0045 34.2711 10.7168 33.7446 11.4676 33.1833ZM20.1225 33.1416C19.7993 32.9166 19.4776 32.6894 19.1573 32.4606C19.4776 32.2317 19.7993 32.0045 20.1225 31.7795C22.2807 30.2773 24.4302 28.9299 26.4886 27.962C28.5621 26.987 30.4121 26.4606 31.9987 26.4606C34.1916 26.4606 36.4439 27.2945 38.132 28.5606C39.8704 29.8644 40.6654 31.3411 40.6654 32.4605C40.6654 33.58 39.8704 35.0568 38.132 36.3605C36.4439 37.6265 34.1916 38.4604 31.9987 38.4604C30.4121 38.4604 28.562 37.934 26.4885 36.959C24.4302 35.9912 22.2807 34.6437 20.1225 33.1416Z" fill="#2D373D"/>
</svg>
