<svg width="16" height="17" viewBox="0 0 16 17" fill="none" xmlns="http://www.w3.org/2000/svg">
<path fill-rule="evenodd" clip-rule="evenodd" d="M2 12.2949C2 12.0188 2.22386 11.7949 2.5 11.7949H6C6.27614 11.7949 6.5 12.0188 6.5 12.2949C6.5 12.5711 6.27614 12.7949 6 12.7949H2.5C2.22386 12.7949 2 12.5711 2 12.2949Z" fill="#2D373D"/>
<path fill-rule="evenodd" clip-rule="evenodd" d="M2 8.29492C2 8.01878 2.22386 7.79492 2.5 7.79492H6.83333C7.10948 7.79492 7.33333 8.01878 7.33333 8.29492C7.33333 8.57106 7.10948 8.79492 6.83333 8.79492H2.5C2.22386 8.79492 2 8.57106 2 8.29492Z" fill="#2D373D"/>
<path d="M11.1921 12.9766C11.1904 12.9784 11.1886 12.9801 11.1869 12.9819C10.9916 13.1771 10.675 13.1771 10.4798 12.9819L7.81311 10.3152C7.61785 10.12 7.61785 9.80337 7.81311 9.60811C8.00838 9.41285 8.32496 9.41285 8.52022 9.60811L10.3333 11.4212V6.62826C10.3333 6.35211 10.5572 6.12826 10.8333 6.12826C11.1095 6.12826 11.3333 6.35211 11.3333 6.62826V11.4211L13.1464 9.60804C13.3417 9.41277 13.6583 9.41277 13.8536 9.60804C14.0488 9.8033 14.0488 10.1199 13.8536 10.3151L11.1921 12.9766Z" fill="#2D373D"/>
<path fill-rule="evenodd" clip-rule="evenodd" d="M2 4.29492C2 4.01878 2.22386 3.79492 2.5 3.79492H10.8333C11.1095 3.79492 11.3333 4.01878 11.3333 4.29492C11.3333 4.57106 11.1095 4.79492 10.8333 4.79492H2.5C2.22386 4.79492 2 4.57106 2 4.29492Z" fill="#2D373D"/>
</svg>
