<svg width="64" height="65" viewBox="0 0 64 65" fill="none" xmlns="http://www.w3.org/2000/svg">
<path d="M32.0004 3.86133C16.2004 3.86133 3.40039 16.6613 3.40039 32.4613C3.40039 48.2613 16.2004 61.0613 32.0004 61.0613C47.8004 61.0613 60.6004 48.2613 60.6004 32.4613C60.6004 16.6613 47.8004 3.86133 32.0004 3.86133ZM32.0004 57.0613C18.4004 57.0613 7.40039 46.0613 7.40039 32.4613C7.40039 18.8613 18.4004 7.86133 32.0004 7.86133C45.6004 7.86133 56.6004 18.8613 56.6004 32.4613C56.6004 46.0613 45.6004 57.0613 32.0004 57.0613Z" fill="#2D373D"/>
<path d="M39.6 24.8612C38.8 24.0612 37.6 24.0612 36.8 24.8612L24.6 37.0612C23.8 37.8612 23.8 39.0612 24.6 39.8612C25 40.2612 25.4 40.4612 26 40.4612C26.6 40.4612 27 40.2612 27.4 39.8612L39.6 27.6612C40.4 26.8612 40.4 25.6612 39.6 24.8612Z" fill="#2D373D"/>
<path d="M24.0004 26.6614C25.4363 26.6614 26.6004 25.4974 26.6004 24.0614C26.6004 22.6255 25.4363 21.4614 24.0004 21.4614C22.5645 21.4614 21.4004 22.6255 21.4004 24.0614C21.4004 25.4974 22.5645 26.6614 24.0004 26.6614Z" fill="#2D373D"/>
<path d="M40.4008 37.8613C39.0008 37.8613 37.8008 39.0613 37.8008 40.4613C37.8008 41.8613 39.0008 43.0613 40.4008 43.0613C41.8008 43.0613 43.0008 42.0613 43.0008 40.4613C43.0008 39.0613 41.8008 37.8613 40.4008 37.8613Z" fill="#2D373D"/>
</svg>
