<svg width="16" height="17" viewBox="0 0 16 17" fill="none" xmlns="http://www.w3.org/2000/svg">
<path d="M13.3002 14.2118C13.4002 14.0618 13.4002 13.9118 13.3502 13.7118V11.7618C13.3502 11.4618 13.1502 11.2618 12.8502 11.2618C12.5502 11.2618 12.3502 11.4618 12.3502 11.7618V12.6618L10.7502 11.0618C10.3002 10.6618 9.7002 10.5118 9.1502 10.6618L6.3502 11.4118C6.1002 11.4618 5.9002 11.4118 5.7502 11.2618L2.8002 8.21177C2.6002 8.01177 2.3002 8.01177 2.1002 8.21177C1.9002 8.41177 1.9002 8.71177 2.1002 8.91177L5.0502 12.0118C5.4502 12.4118 6.0502 12.5618 6.6002 12.4118L9.4002 11.6618C9.6002 11.6118 9.8502 11.6618 10.0002 11.8118L11.6502 13.4618H10.6502C10.3502 13.4618 10.1502 13.6618 10.1502 13.9618C10.1502 14.2618 10.3502 14.4618 10.6502 14.4618H12.8502C12.9002 14.4618 12.9502 14.4618 13.0002 14.4118C13.1502 14.4118 13.2502 14.3118 13.3002 14.2118Z" fill="#2D373D"/>
<path d="M3.45008 7.81172C3.70008 7.76172 3.90008 7.51172 3.80008 7.21172C3.45008 5.51172 4.60008 3.81172 6.30008 3.46172C7.15008 3.26172 8.00008 3.46172 8.70008 3.91172C9.40008 4.41172 9.90008 5.11172 10.0501 5.96172C10.3001 7.16172 9.85008 8.41172 8.85008 9.16172C8.65008 9.31172 8.60008 9.66172 8.75008 9.86172C8.85008 10.0117 9.00008 10.0617 9.15008 10.0617C9.25008 10.0617 9.35008 10.0117 9.50008 9.91172C10.8001 8.91172 11.4001 7.31172 11.1001 5.71172C10.8501 4.61172 10.2501 3.66172 9.30008 3.06172C8.35008 2.46172 7.25008 2.26172 6.15008 2.46172C3.85008 2.91172 2.40008 5.16172 2.85008 7.41172C2.90008 7.71172 3.15008 7.86172 3.45008 7.81172Z" fill="#2D373D"/>
<path d="M7.20024 7.56172H6.20024C5.90024 7.56172 5.70024 7.76172 5.70024 8.06172C5.70024 8.36172 5.90024 8.56172 6.20024 8.56172H6.50024C6.55024 8.81172 6.70024 8.96172 7.00024 8.96172C7.25024 8.96172 7.45024 8.76172 7.50024 8.51172C7.90024 8.46172 8.20024 8.21172 8.30024 7.81172C8.45024 7.51172 8.45024 7.16172 8.30024 6.91172C8.15024 6.66172 7.95024 6.41172 7.65024 6.31172L6.65024 5.91172C6.60024 5.91172 6.55024 5.86172 6.55024 5.76172C6.55024 5.71172 6.60024 5.66172 6.60024 5.66172C6.60024 5.66172 6.65024 5.61172 6.70024 5.61172H7.70024C8.00024 5.61172 8.20024 5.41172 8.20024 5.11172C8.20024 4.81172 8.00024 4.61172 7.70024 4.61172H7.45024C7.40024 4.41172 7.20024 4.26172 7.00024 4.26172C6.75024 4.26172 6.55024 4.41172 6.50024 4.61172C6.25024 4.71172 6.00024 4.81172 5.85024 4.96172C5.60024 5.16172 5.50024 5.46172 5.50024 5.76172C5.50024 6.26172 5.80024 6.66172 6.25024 6.86172L7.25024 7.26172C7.30024 7.31172 7.35024 7.36172 7.35024 7.36172C7.35024 7.36172 7.35024 7.41172 7.35024 7.46172C7.35024 7.51172 7.25024 7.56172 7.20024 7.56172Z" fill="#2D373D"/>
</svg>
