<svg width="64" height="65" viewBox="0 0 64 65" fill="none" xmlns="http://www.w3.org/2000/svg">
<path d="M39.5996 5.66016H24.5996C18.9996 5.66016 14.5996 10.0602 14.5996 15.6602V49.2602C14.5996 54.8602 18.9996 59.2602 24.5996 59.2602H39.5996C44.9996 59.2602 49.5996 54.8602 49.5996 49.2602V15.6602C49.5996 10.0602 45.1996 5.66016 39.5996 5.66016ZM24.5996 9.66016H39.5996C42.9996 9.66016 45.5996 12.2602 45.5996 15.6602V42.4602H18.5996V15.6602C18.5996 12.2602 21.1996 9.66016 24.5996 9.66016ZM39.5996 55.2602H24.5996C21.1996 55.2602 18.5996 52.6602 18.5996 49.2602V46.4602H45.5996V49.2602C45.5996 52.6602 42.9996 55.2602 39.5996 55.2602Z" fill="#2D373D"/>
<path d="M31.9995 52.8604C33.1041 52.8604 33.9995 51.9649 33.9995 50.8604C33.9995 49.7558 33.1041 48.8604 31.9995 48.8604C30.8949 48.8604 29.9995 49.7558 29.9995 50.8604C29.9995 51.9649 30.8949 52.8604 31.9995 52.8604Z" fill="#2D373D"/>
</svg>
