<svg width="32" height="33" viewBox="0 0 32 33" fill="none" xmlns="http://www.w3.org/2000/svg">
<path d="M23.1 5.06055C20.9 3.76055 18.5 3.06055 16 3.06055C12.4 3.06055 9.1 4.46055 6.5 6.96055C4 9.46055 2.6 12.7605 2.6 16.3605C2.6 18.7605 3.2 21.0605 4.4 23.0605L2.6 28.6605C2.5 28.9605 2.6 29.3605 2.9 29.6605C3.1 29.8605 3.3 29.9605 3.6 29.9605C3.7 29.9605 3.9 29.8605 3.9 29.8605L9.3 28.0605C15.6 31.6605 23.6 29.6605 27.4 23.4605C31.3 17.2605 29.4 8.96055 23.1 5.06055ZM25.7 22.4605C22.4 27.8605 15.3 29.4605 10 26.1605C9.9 26.0605 9.7 25.9605 9.5 25.9605C9.4 25.9605 9.3 25.9605 9.2 25.9605L5.2 27.2605L6.5 23.1605C6.6 22.8605 6.6 22.5605 6.4 22.3605C5.3 20.5605 4.7 18.4605 4.7 16.3605C4.7 13.3605 5.9 10.4605 8 8.36055C10.1 6.26055 13 5.06055 16 5.06055C18.1 5.06055 20.2 5.66055 22 6.76055C27.4 10.0605 29 17.1605 25.7 22.4605Z" fill="#2D373D"/>
<path d="M21.6998 21.2606H20.8998V11.6606C20.8998 10.5606 19.9998 9.66064 18.8998 9.66064H13.1998C12.0998 9.66064 11.1998 10.5606 11.1998 11.6606V21.2606H10.2998C9.6998 21.2606 9.2998 21.6606 9.2998 22.2606C9.2998 22.8606 9.6998 23.2606 10.2998 23.2606H21.6998C22.2998 23.2606 22.6998 22.8606 22.6998 22.2606C22.6998 21.6606 22.2998 21.2606 21.6998 21.2606ZM13.1998 11.6606H18.8998V13.5606H15.9998C15.3998 13.5606 14.9998 13.9606 14.9998 14.5606C14.9998 15.1606 15.3998 15.5606 15.9998 15.5606H18.8998V17.3606H15.9998C15.3998 17.3606 14.9998 17.7606 14.9998 18.3606C14.9998 18.9606 15.3998 19.3606 15.9998 19.3606H18.8998V21.2606H13.1998V11.6606Z" fill="#2D373D"/>
</svg>
