<svg width="64" height="64" viewBox="0 0 64 64" fill="none" xmlns="http://www.w3.org/2000/svg">
<path d="M31.553 9.43492C31.7149 9.3681 31.8895 9.33337 32.0664 9.33337C32.2433 9.33337 32.4179 9.3681 32.5798 9.43492C32.7417 9.50173 32.8869 9.59899 33.0077 9.71982L55.6608 32.0989C56.4466 32.8752 57.7129 32.8675 58.4892 32.0817C59.2655 31.2959 59.2578 30.0296 58.472 29.2533L35.8362 6.89142L35.8315 6.88675C35.3374 6.39381 34.7507 6.00362 34.1059 5.73748C33.4591 5.47053 32.7659 5.33337 32.0664 5.33337C31.3669 5.33337 30.6737 5.47053 30.0269 5.73748C29.3822 6.00359 28.7955 6.39374 28.3014 6.88662L28.2966 6.89142L5.66083 29.2533C4.87504 30.0296 4.86733 31.2959 5.64361 32.0817C6.41989 32.8675 7.6862 32.8752 8.47199 32.0989L31.1165 9.72842L31.1251 9.71979C31.2459 9.59897 31.3911 9.50173 31.553 9.43492Z" fill="#2D373D"/>
<path fill-rule="evenodd" clip-rule="evenodd" d="M15.7331 33.9691C15.7331 32.8645 14.8376 31.9691 13.7331 31.9691C12.6285 31.9691 11.7331 32.8645 11.7331 33.9691V41.9086C9.68805 42.8013 7.77616 44.0047 6.07183 45.4918C5.23955 46.218 5.15356 47.4815 5.87977 48.3137C6.60598 49.146 7.86938 49.232 8.70167 48.5058C12.0108 45.6184 16.285 44.0333 20.7084 44.0593L20.7201 44.0593C22.3634 44.0593 24.5151 44.7673 27.3569 45.8867C27.87 46.0888 28.4014 46.3024 28.9486 46.5224C31.2873 47.4625 33.915 48.5187 36.6334 49.2886C40.0169 50.247 43.7168 50.82 47.5222 50.2077C51.3663 49.5892 55.1785 47.7832 58.7923 44.2132C59.5781 43.4369 59.5858 42.1706 58.8095 41.3848C58.0333 40.599 56.767 40.5913 55.9812 41.3676C54.787 42.5473 53.5913 43.4791 52.3997 44.2051V33.9691C52.3997 32.8645 51.5043 31.9691 50.3997 31.9691C49.2952 31.9691 48.3997 32.8645 48.3997 33.9691V45.9346C47.8933 46.0709 47.3888 46.1777 46.8867 46.2585C44.3087 46.6733 41.6916 46.4176 39.0664 45.7912V38.9086C39.0664 37.4969 38.4985 36.148 37.4957 35.1573C36.4937 34.1674 35.1398 33.6156 33.7331 33.6156H30.3997C28.9931 33.6156 27.6391 34.1674 26.6371 35.1573C25.6343 36.148 25.0664 37.4969 25.0664 38.9086V40.8185C23.571 40.3662 22.1005 40.0602 20.7262 40.0593C19.0344 40.0498 17.3598 40.2336 15.7331 40.5993V33.9691ZM29.0664 42.2612C29.5501 42.4527 30.0356 42.6477 30.5235 42.8437C32.0105 43.4408 33.5198 44.0469 35.0664 44.591V38.9086C35.0664 38.5736 34.9319 38.2473 34.6845 38.0029C34.4363 37.7576 34.0945 37.6156 33.7331 37.6156H30.3997C30.0383 37.6156 29.6965 37.7576 29.4483 38.0029C29.2009 38.2473 29.0664 38.5736 29.0664 38.9086V42.2612Z" fill="#2D373D"/>
<path d="M44.4271 10.6018C44.4271 9.4972 45.3225 8.60177 46.4271 8.60177H53.3087C54.4133 8.60177 55.3087 9.4972 55.3087 10.6018V17.4001C55.3087 18.5047 54.4133 19.4001 53.3087 19.4001C52.2041 19.4001 51.3087 18.5047 51.3087 17.4001V12.6018H46.4271C45.3225 12.6018 44.4271 11.7063 44.4271 10.6018Z" fill="#2D373D"/>
<path d="M21.2214 52.2918C16.798 52.2659 12.5238 53.8509 9.21469 56.7383C8.3824 57.4645 7.119 57.3785 6.39279 56.5463C5.66658 55.714 5.75257 54.4506 6.58485 53.7244C10.6316 50.1934 15.8485 48.2616 21.2392 48.2918C23.761 48.2935 26.607 49.3226 29.3359 50.3975C29.8999 50.6197 30.4664 50.8472 31.0361 51.076C33.3623 52.0102 35.7434 52.9664 38.2365 53.6726C41.3113 54.5435 44.3823 54.9765 47.3998 54.491C50.3785 54.0117 53.4413 52.616 56.4942 49.6001C57.28 48.8238 58.5463 48.8315 59.3226 49.6173C60.0988 50.4031 60.0911 51.6694 59.3054 52.4457C55.6915 56.0158 51.8793 57.8217 48.0352 58.4402C44.2298 59.0525 40.5299 58.4795 37.1464 57.5212C34.4281 56.7512 31.8005 55.695 29.4618 54.755C28.9145 54.535 28.383 54.3213 27.8699 54.1192C25.0281 52.9998 22.8764 52.2918 21.2331 52.2918H21.2214Z" fill="#2D373D"/>
</svg>
