<svg width="24" height="25" viewBox="0 0 24 25" fill="none" xmlns="http://www.w3.org/2000/svg">
<path d="M11.425 12.4619L7.975 9.01194C7.675 8.71194 7.675 8.26194 7.975 7.96194C8.275 7.66194 8.725 7.66194 9.025 7.96194L13 11.9369C13.3 12.2369 13.3 12.6869 13 12.9869L9.025 17.0369C8.875 17.1869 8.725 17.2619 8.5 17.2619C8.275 17.2619 8.125 17.1869 7.975 17.0369C7.675 16.7369 7.675 16.2869 7.975 15.9869L11.425 12.4619Z" fill="#2D373D"/>
<path fill-rule="evenodd" clip-rule="evenodd" d="M16.0004 7.71191C15.5862 7.71191 15.2504 8.0477 15.2504 8.46191V16.4619C15.2504 16.8761 15.5862 17.2119 16.0004 17.2119C16.4146 17.2119 16.7504 16.8761 16.7504 16.4619V8.46191C16.7504 8.0477 16.4146 7.71191 16.0004 7.71191Z" fill="#2D373D"/>
</svg>
