<svg width="64" height="65" viewBox="0 0 64 65" fill="none" xmlns="http://www.w3.org/2000/svg">
<path d="M40.3966 17.7698C39.292 17.7698 38.3966 18.6652 38.3966 19.7698C38.3966 20.8744 39.292 21.7698 40.3966 21.7698H45.3351C46.4397 21.7698 47.3351 20.8744 47.3351 19.7698C47.3351 18.6652 46.4397 17.7698 45.3351 17.7698H40.3966Z" fill="#2D373D"/>
<path d="M43.3597 26.6591C42.2552 26.6591 41.3597 27.5546 41.3597 28.6591C41.3597 29.7637 42.2552 30.6591 43.3597 30.6591H45.3351C46.4397 30.6591 47.3351 29.7637 47.3351 28.6591C47.3351 27.5546 46.4397 26.6591 45.3351 26.6591H43.3597Z" fill="#2D373D"/>
<path d="M38.4212 35.5485C37.3166 35.5485 36.4212 36.4439 36.4212 37.5485C36.4212 38.653 37.3166 39.5485 38.4212 39.5485H45.3351C46.4397 39.5485 47.3351 38.653 47.3351 37.5485C47.3351 36.4439 46.4397 35.5485 45.3351 35.5485H38.4212Z" fill="#2D373D"/>
<path d="M20.6426 44.4378C19.538 44.4378 18.6426 45.3332 18.6426 46.4378C18.6426 47.5423 19.538 48.4378 20.6426 48.4378H45.3351C46.4397 48.4378 47.3351 47.5423 47.3351 46.4378C47.3351 45.3332 46.4397 44.4378 45.3351 44.4378H20.6426Z" fill="#2D373D"/>
<path fill-rule="evenodd" clip-rule="evenodd" d="M27.5648 15.7944L27.5579 15.7944C21.5439 15.7944 16.6686 20.6697 16.6686 26.6837C16.6686 32.6977 21.5439 37.573 27.5579 37.573C33.5719 37.573 38.4473 32.6977 38.4473 26.6837C38.4473 20.672 33.5757 15.7981 27.5648 15.7944ZM25.5584 20.0891C22.7286 20.9459 20.6686 23.5742 20.6686 26.6837C20.6686 27.8585 20.9627 28.9646 21.4812 29.9325L25.5584 25.8553V20.0891ZM29.5584 20.0893V26.6837C29.5584 27.2141 29.3477 27.7229 28.9726 28.0979L24.3097 32.7608C25.2775 33.2791 26.3834 33.573 27.5579 33.573C31.3628 33.573 34.4473 30.4886 34.4473 26.6837C34.4473 23.5746 32.3877 20.9465 29.5584 20.0893Z" fill="#2D373D"/>
<path fill-rule="evenodd" clip-rule="evenodd" d="M48.2017 7.45727C47.2515 6.48714 45.9573 5.92725 44.5904 5.92773H13.2586C11.8691 5.92773 10.5563 6.50657 9.6033 7.50455C8.65325 8.4994 8.13477 9.82983 8.13477 11.1988V53.7233C8.13477 55.0923 8.65325 56.4227 9.6033 57.4176C10.5563 58.4156 11.8691 58.9944 13.2586 58.9944H50.7443C52.1337 58.9944 53.4465 58.4156 54.3996 57.4176C55.3496 56.4227 55.8681 55.0923 55.8681 53.7233V17.4857C55.868 16.7949 55.736 16.1091 55.4777 15.4677C55.2193 14.8263 54.8386 14.2394 54.3533 13.7441L48.2017 7.45727ZM44.5916 9.92773C44.8548 9.92758 45.1263 10.0342 45.3434 10.2555L51.4961 16.5435C51.608 16.6576 51.7017 16.7992 51.7674 16.9622C51.8331 17.1253 51.8681 17.3038 51.8681 17.4861V53.7233C51.8681 54.0894 51.7284 54.423 51.5067 54.655C51.2881 54.884 51.0118 54.9944 50.7443 54.9944H13.2586C12.991 54.9944 12.7147 54.884 12.4961 54.655C12.2745 54.423 12.1348 54.0894 12.1348 53.7233V11.1988C12.1348 10.8328 12.2745 10.4991 12.4961 10.2671C12.7147 10.0382 12.991 9.92774 13.2586 9.92774L44.5916 9.92773Z" fill="#2D373D"/>
</svg>
