<svg width="16" height="17" viewBox="0 0 16 17" fill="none" xmlns="http://www.w3.org/2000/svg">
<path d="M12.5502 6.71172H11.4002V5.11172C11.3502 3.26172 9.8502 1.76172 8.0002 1.76172H7.9502C7.0502 1.76172 6.2002 2.11172 5.5502 2.76172C4.9502 3.41172 4.6002 4.26172 4.6002 5.16172V6.71172H3.4502C3.1502 6.71172 2.9502 6.91172 2.9502 7.21172V14.6617C2.9502 14.9617 3.1502 15.1617 3.4502 15.1617H12.5502C12.8002 15.1617 13.0502 14.9117 13.0502 14.6617V7.21172C13.0502 6.91172 12.8502 6.71172 12.5502 6.71172ZM5.6002 5.16172C5.6002 4.51172 5.8502 3.86172 6.3002 3.41172C6.7502 2.96172 7.3502 2.71172 8.0002 2.71172C9.3002 2.66172 10.4002 3.76172 10.4002 5.06172V6.71172H5.6002V5.16172ZM12.0502 14.1617H3.9502V7.71172H12.0502V14.1617Z" fill="#2D373D"/>
<path d="M8.00024 9.16174C7.05024 9.16174 6.25024 9.96174 6.25024 10.9117C6.25024 11.8617 7.05024 12.6617 8.00024 12.6617C8.95024 12.6617 9.75024 11.9117 9.75024 10.9117C9.75024 9.96174 8.95024 9.16174 8.00024 9.16174ZM8.00024 11.7117C7.60024 11.7117 7.25024 11.3617 7.25024 10.9617C7.25024 10.5617 7.60024 10.2117 8.00024 10.2117C8.40024 10.2117 8.75024 10.5617 8.75024 10.9617C8.75024 11.3617 8.40024 11.7117 8.00024 11.7117Z" fill="#2D373D"/>
</svg>
