<svg width="24" height="25" viewBox="0 0 24 25" fill="none" xmlns="http://www.w3.org/2000/svg">
<path d="M15.4399 14.1312C15.4399 14.041 15.422 13.9518 15.3872 13.8686C15.3524 13.7854 15.3014 13.71 15.2372 13.6468C15.173 13.5835 15.0969 13.5336 15.0132 13.5C14.9295 13.4664 14.84 13.4498 14.7499 13.4512C14.6602 13.4498 14.5712 13.4665 14.4881 13.5002C14.405 13.5339 14.3295 13.5839 14.2661 13.6473C14.2026 13.7107 14.1526 13.7862 14.1189 13.8693C14.0852 13.9525 14.0686 14.0415 14.0699 14.1312V14.8212C14.0686 14.9113 14.0852 15.0008 14.1188 15.0845C14.1523 15.1681 14.2022 15.2443 14.2655 15.3085C14.3288 15.3727 14.4042 15.4237 14.4873 15.4585C14.5705 15.4933 14.6598 15.5112 14.7499 15.5112C14.9329 15.5112 15.1084 15.4385 15.2378 15.3091C15.3672 15.1797 15.4399 15.0042 15.4399 14.8212V14.1312Z" fill="#2D373D"/>
<path d="M9.74779 13.6433C9.87719 13.7727 9.94988 13.9482 9.94988 14.1312V14.8212C9.94988 15.0042 9.87719 15.1797 9.74779 15.3091C9.61839 15.4385 9.44288 15.5112 9.25988 15.5112C9.07689 15.5112 8.90138 15.4385 8.77198 15.3091C8.64258 15.1797 8.56989 15.0042 8.56989 14.8212V14.1312C8.56989 13.9482 8.64258 13.7727 8.77198 13.6433C8.90138 13.5139 9.07689 13.4412 9.25988 13.4412C9.44288 13.4412 9.61839 13.5139 9.74779 13.6433Z" fill="#2D373D"/>
<path fill-rule="evenodd" clip-rule="evenodd" d="M8.22993 17.7212H15.7799C16.6392 17.7212 17.4633 17.3798 18.071 16.7722C18.6786 16.1646 19.0199 15.3405 19.0199 14.4812C19.0199 13.6218 18.6786 12.7977 18.071 12.1901C17.4633 11.5825 16.6392 11.2411 15.7799 11.2411H8.22993C7.37063 11.2411 6.54652 11.5825 5.9389 12.1901C5.33129 12.7977 4.98993 13.6218 4.98993 14.4812C4.98993 15.3405 5.33129 16.1646 5.9389 16.7722C6.54652 17.3798 7.37063 17.7212 8.22993 17.7212ZM6.99956 13.2308C7.32588 12.9045 7.76845 12.7212 8.22993 12.7212H15.7799C16.2414 12.7212 16.684 12.9045 17.0103 13.2308C17.3366 13.5571 17.5199 13.9997 17.5199 14.4612C17.5199 14.9226 17.3366 15.3652 17.0103 15.6915C16.684 16.0178 16.2414 16.2011 15.7799 16.2011H8.22993C7.76845 16.2011 7.32588 16.0178 6.99956 15.6915C6.67325 15.3652 6.48993 14.9226 6.48993 14.4612C6.48993 13.9997 6.67325 13.5571 6.99956 13.2308Z" fill="#2D373D"/>
<path fill-rule="evenodd" clip-rule="evenodd" d="M12.7599 5.71903C12.8337 5.68324 12.9052 5.64207 12.9738 5.59571C13.2555 5.40507 13.4744 5.13516 13.6027 4.82013C13.7311 4.50509 13.7631 4.15906 13.6948 3.82581C13.6265 3.49256 13.4609 3.18704 13.219 2.9479C12.977 2.70876 12.6696 2.54673 12.3356 2.4823C12.0016 2.41787 11.656 2.45394 11.3424 2.58595C11.0289 2.71795 10.7616 2.93996 10.5742 3.2239C10.3869 3.50785 10.2879 3.84097 10.2899 4.18114C10.2899 4.4074 10.3348 4.6314 10.4219 4.84018C10.5091 5.04897 10.6369 5.23837 10.7978 5.39742C10.9329 5.53096 11.0891 5.64087 11.2599 5.72285V6.26303C8.56575 6.39522 5.99643 7.48151 4.0199 9.34115C2.91286 10.3232 2.24039 11.7041 2.1499 13.1812C2.1499 16.1212 3.1699 19.9012 4.7399 20.8712C7.02144 21.9261 9.50627 22.4688 12.0199 22.4612C15.3099 22.4612 18.8599 21.4612 19.7499 20.8212C21.0199 19.9112 21.8399 16.9112 21.8399 13.1812C21.8399 8.82982 17.2655 6.60843 12.7599 6.28694V5.71903ZM5.1099 10.4612C6.92221 8.75875 9.30375 7.79258 11.7899 7.75115H12.0099C16.1599 7.85115 20.3699 9.75115 20.3699 13.1812C20.3699 17.1012 19.4699 19.2012 18.9099 19.6012C16.7292 20.5148 14.3841 20.9708 12.0199 20.9412C9.77544 20.9674 7.55058 20.521 5.4899 19.6312C4.7499 19.1712 3.6499 16.2312 3.6499 13.2312C3.7562 12.1526 4.28021 11.1584 5.1099 10.4612Z" fill="#2D373D"/>
</svg>
