<svg width="16" height="17" viewBox="0 0 16 17" fill="none" xmlns="http://www.w3.org/2000/svg">
<path d="M10.8652 9.64563C10.5891 9.64563 10.3652 9.86949 10.3652 10.1456C10.3652 10.4218 10.5891 10.6456 10.8652 10.6456H12.5052C12.7814 10.6456 13.0052 10.4218 13.0052 10.1456C13.0052 9.86949 12.7814 9.64563 12.5052 9.64563H10.8652Z" fill="#2D373D"/>
<path d="M5.88999 7.75767C6.08457 7.95361 6.08346 8.27019 5.88751 8.46477L5.21979 9.12784L5.88751 9.79091C6.08346 9.98549 6.08457 10.3021 5.88999 10.498C5.69541 10.694 5.37883 10.6951 5.18288 10.5005L4.5102 9.83249L3.83751 10.5005C3.64157 10.6951 3.32499 10.694 3.13041 10.498C2.93583 10.3021 2.93694 9.98549 3.13288 9.79091L3.80061 9.12784L3.13288 8.46477C2.93694 8.27019 2.93583 7.95361 3.13041 7.75767C3.32499 7.56173 3.64157 7.56062 3.83751 7.7552L4.5102 8.4232L5.18288 7.7552C5.37883 7.56062 5.69541 7.56173 5.88999 7.75767Z" fill="#2D373D"/>
<path d="M9.58002 7.75767C9.7746 7.95361 9.77349 8.27019 9.57755 8.46477L8.90982 9.12784L9.57755 9.79091C9.77349 9.98549 9.7746 10.3021 9.58002 10.498C9.38544 10.694 9.06886 10.6951 8.87292 10.5005L8.20023 9.83249L7.52755 10.5005C7.3316 10.6951 7.01502 10.694 6.82044 10.498C6.62587 10.3021 6.62697 9.98549 6.82292 9.79091L7.49064 9.12784L6.82292 8.46477C6.62697 8.27019 6.62587 7.95361 6.82044 7.75767C7.01502 7.56173 7.3316 7.56062 7.52755 7.7552L8.20023 8.4232L8.87292 7.7552C9.06886 7.56062 9.38544 7.56173 9.58002 7.75767Z" fill="#2D373D"/>
<path fill-rule="evenodd" clip-rule="evenodd" d="M2.66521 5.57422C1.9395 5.57422 1.34521 6.15935 1.34521 6.8885V10.9599C1.34521 11.6891 1.9395 12.2742 2.66521 12.2742H13.3252C14.0509 12.2742 14.6452 11.6891 14.6452 10.9599V6.8885C14.6452 6.15935 14.0509 5.57422 13.3252 5.57422H2.66521ZM2.34521 6.8885C2.34521 6.71822 2.48518 6.57422 2.66521 6.57422H13.3252C13.5052 6.57422 13.6452 6.71822 13.6452 6.8885V10.9599C13.6452 11.1302 13.5052 11.2742 13.3252 11.2742H2.66521C2.48518 11.2742 2.34521 11.1302 2.34521 10.9599V6.8885Z" fill="#2D373D"/>
</svg>
