<svg width="16" height="17" viewBox="0 0 16 17" fill="none" xmlns="http://www.w3.org/2000/svg">
<path d="M14.55 6.91172C14.1 5.16172 13.05 3.71172 11.55 2.76172C10.45 2.11172 9.25 1.76172 8 1.76172C4.3 1.76172 1.3 4.76172 1.3 8.41172C1.3 9.61172 1.6 10.7617 2.2 11.7617L1.3 14.5117C1.25 14.6617 1.3 14.8617 1.45 15.0117C1.55 15.1117 1.65 15.1617 1.8 15.1617C1.85 15.1617 1.95 15.1617 2 15.1617L4.7 14.2617C6.2 15.1117 7.9 15.3617 9.55 14.9617C11.3 14.5117 12.75 13.4617 13.7 11.9617C14.65 10.4617 14.95 8.66172 14.55 6.91172ZM12.85 11.4117C12.05 12.7117 10.8 13.6117 9.3 13.9617C7.8 14.3117 6.3 14.0617 5 13.3117C4.95 13.2617 4.85 13.2117 4.75 13.2117C4.7 13.2117 4.6 13.2117 4.55 13.2117L2.55 13.8617L3.2 11.8117C3.25 11.6617 3.25 11.5117 3.15 11.4117C2.6 10.5117 2.3 9.46172 2.3 8.41172C2.3 5.31172 4.85 2.76172 8 2.76172C9.05 2.76172 10.1 3.06172 11 3.61172C12.3 4.41172 13.2 5.61172 13.55 7.11172C13.9 8.61172 13.65 10.1117 12.85 11.4117Z" fill="#2D373D"/>
<path d="M9.15 6.61169C9 6.61169 8.9 6.66169 8.85 6.71169C8.5 6.86169 8.25 7.16169 8.25 7.56169C8.25 8.06169 8.65 8.46169 9.15 8.46169C9.35 8.46169 9.5 8.41169 9.65 8.31169C9.65 8.36169 9.65 8.36169 9.65 8.41169C9.65 8.81169 9.4 9.16169 9.05 9.31169C8.8 9.41169 8.7 9.71169 8.8 9.96169C8.9 10.1617 9.05 10.2617 9.25 10.2617C9.3 10.2617 9.4 10.2617 9.45 10.1617C10.15 9.86169 10.6 9.21169 10.65 8.41169C10.65 7.56169 10.15 6.61169 9.15 6.61169Z" fill="#2D373D"/>
<path d="M6.2501 6.61169C6.1001 6.61169 6.0001 6.66169 5.9501 6.71169C5.6001 6.86169 5.3501 7.16169 5.3501 7.56169C5.3501 8.06169 5.7501 8.46169 6.2501 8.46169C6.4501 8.46169 6.6001 8.41169 6.7501 8.31169C6.7501 8.36169 6.7501 8.36169 6.7501 8.41169C6.7501 8.81169 6.5001 9.16169 6.1501 9.31169C5.9001 9.41169 5.8001 9.71169 5.9001 9.96169C6.0001 10.1617 6.1501 10.2617 6.3501 10.2617C6.4501 10.2617 6.5001 10.2617 6.5501 10.1617C7.2501 9.86169 7.7001 9.21169 7.7501 8.41169C7.7501 7.56169 7.2501 6.61169 6.2501 6.61169Z" fill="#2D373D"/>
</svg>
