<svg width="16" height="17" viewBox="0 0 16 17" fill="none" xmlns="http://www.w3.org/2000/svg">
<path fill-rule="evenodd" clip-rule="evenodd" d="M12.8775 13.5175C12.8678 13.5271 12.8678 13.5367 12.8678 13.5367L12.8727 13.5319L13.1927 13.9104C13.4351 14.1979 13.4836 14.5908 13.3236 14.931C13.1636 15.2713 12.8242 15.4821 12.446 15.4821H3.59752C3.20965 15.4821 2.85571 15.2569 2.7054 14.9023C2.5551 14.5477 2.62783 14.1404 2.89934 13.8625L3.17571 13.575C2.01692 12.3675 1.37207 10.7719 1.37207 9.09C1.37207 7.22125 2.18177 5.43878 3.59268 4.19774C5.0036 2.95669 6.89935 2.37211 8.79511 2.59253C11.8206 2.94232 14.2545 5.3669 14.5794 8.35688C14.7878 10.2544 14.1672 12.1375 12.8775 13.5175ZM3.87874 14.241L3.60237 14.5285H12.446L12.1212 14.1452C11.806 13.7715 11.8254 13.2348 12.1648 12.8706C13.28 11.6727 13.7939 10.1106 13.6145 8.4623C13.3381 5.91315 11.263 3.84315 8.6836 3.54607C8.45087 3.52211 8.21814 3.50774 7.99026 3.50774C6.6036 3.50774 5.28966 3.99649 4.24237 4.91649C3.0351 5.97544 2.34662 7.49438 2.34662 9.09C2.34662 10.5275 2.89934 11.8883 3.89328 12.9281C4.24237 13.2971 4.23752 13.8721 3.87874 14.241ZM7.99991 4.94528C9.9587 4.94528 11.6169 6.22465 12.1696 7.98318L12.1648 7.98797C12.2908 8.39047 12.3587 8.81693 12.3587 9.26255C12.3587 11.6392 10.3999 13.5751 7.99506 13.5751C6.91385 13.5751 5.92476 13.1821 5.16355 12.5353C5.1587 12.5305 5.149 12.5257 5.1393 12.5209C5.13446 12.5161 5.13203 12.5113 5.12961 12.5065C5.12718 12.5017 5.12476 12.4969 5.11991 12.4921C4.21324 11.7015 3.63627 10.5467 3.63627 9.25776C3.63627 8.81693 3.70415 8.38568 3.83021 7.98318C4.38294 6.22465 6.04112 4.94528 7.99991 4.94528ZM9.41082 8.32818L11.0642 7.82026H11.0593C10.5842 6.82838 9.62415 6.10486 8.48476 5.94195V7.66213C8.86779 7.77713 9.19264 8.00713 9.41082 8.32818ZM8.00476 8.53901C7.60233 8.53901 7.27749 8.86005 7.27749 9.25776C7.27749 9.65547 7.60233 9.97651 8.00476 9.97651C8.40718 9.97651 8.73203 9.65547 8.73203 9.25776C8.73203 8.86005 8.40718 8.53901 8.00476 8.53901ZM7.51991 7.65734V5.94195L7.51506 5.93715C6.37567 6.10007 5.42052 6.82359 4.94052 7.81547L6.59385 8.32339C6.81203 8.00714 7.14173 7.77234 7.51991 7.65734ZM4.64961 8.73547C4.62537 8.90797 4.60597 9.08047 4.60597 9.25776V9.26255C4.60597 10.0963 4.92112 10.863 5.43506 11.4523L6.56961 10.1586C6.40476 9.89984 6.30294 9.59318 6.30294 9.26255V9.24338L4.64961 8.73547ZM7.30173 10.7815L6.16718 12.0753C6.69567 12.4155 7.30658 12.6119 7.99991 12.6119C8.69324 12.6119 9.33324 12.4059 9.87143 12.0561L8.73688 10.7623C8.51385 10.8678 8.26658 10.9348 7.99991 10.9348C7.74779 10.9348 7.51506 10.8773 7.30173 10.7815ZM9.69688 9.25297C9.69688 9.56922 9.59991 9.86151 9.44961 10.1107L10.5939 11.414V11.4044C11.0932 10.8246 11.3938 10.0676 11.3938 9.24818C11.3938 9.07088 11.3793 8.89838 11.3502 8.72588L9.69688 9.2338V9.25297Z" fill="#2D373D"/>
</svg>
