<svg width="24" height="25" viewBox="0 0 24 25" fill="none" xmlns="http://www.w3.org/2000/svg">
<path fill-rule="evenodd" clip-rule="evenodd" d="M4.85398 3.92383C4.36383 3.92383 3.89375 4.11854 3.54716 4.46513C3.20057 4.81172 3.00586 5.2818 3.00586 5.77195V17.8513C3.00586 18.3415 3.20057 18.8116 3.54716 19.1581C3.89375 19.5047 4.36383 19.6995 4.85398 19.6995H9.24648C9.6607 19.6995 9.99648 19.3637 9.99648 18.9495C9.99648 18.5352 9.6607 18.1995 9.24648 18.1995H4.85398C4.76166 18.1995 4.67311 18.1628 4.60782 18.0975C4.54254 18.0322 4.50586 17.9437 4.50586 17.8513V8.71884H18.3796V10.1645C18.3796 10.5787 18.7154 10.9145 19.1296 10.9145C19.5438 10.9145 19.8796 10.5787 19.8796 10.1645V5.77195C19.8796 5.2818 19.6849 4.81172 19.3383 4.46513C18.9917 4.11854 18.5216 3.92383 18.0315 3.92383H4.85398ZM18.3796 7.21884V5.77195C18.3796 5.67963 18.3429 5.59108 18.2776 5.52579C18.2124 5.46051 18.1238 5.42383 18.0315 5.42383H4.85398C4.76166 5.42383 4.67311 5.46051 4.60782 5.52579C4.54254 5.59108 4.50586 5.67962 4.50586 5.77195V7.21884H18.3796Z" fill="#2D373D"/>
<path fill-rule="evenodd" clip-rule="evenodd" d="M13.8679 12.0028C14.4918 11.7443 15.1605 11.6113 15.8359 11.6113C16.5112 11.6113 17.1799 11.7443 17.8038 12.0028C18.4277 12.2612 18.9946 12.64 19.4722 13.1175C19.9497 13.5951 20.3285 14.162 20.5869 14.7859C20.8454 15.4098 20.9784 16.0785 20.9784 16.7538C20.9784 17.4292 20.8454 18.0979 20.5869 18.7218C20.3285 19.3457 19.9497 19.9126 19.4722 20.3901C18.9946 20.8676 18.4277 21.2464 17.8038 21.5049C17.1799 21.7633 16.5112 21.8963 15.8359 21.8963C15.1605 21.8963 14.4918 21.7633 13.8679 21.5049C13.244 21.2464 12.6771 20.8676 12.1996 20.3901C11.722 19.9126 11.3433 19.3457 11.0848 18.7218C10.8264 18.0979 10.6934 17.4292 10.6934 16.7538C10.6934 16.0785 10.8264 15.4098 11.0848 14.7859C11.3433 14.162 11.722 13.5951 12.1996 13.1175C12.6771 12.64 13.244 12.2612 13.8679 12.0028ZM15.8359 13.1113C15.3575 13.1113 14.8839 13.2055 14.4419 13.3886C14 13.5717 13.5985 13.84 13.2602 14.1782C12.922 14.5164 12.6537 14.918 12.4706 15.3599C12.2876 15.8018 12.1934 16.2755 12.1934 16.7538C12.1934 17.2322 12.2876 17.7058 12.4706 18.1478C12.6537 18.5897 12.922 18.9912 13.2602 19.3295C13.5985 19.6677 14 19.936 14.4419 20.1191C14.8839 20.3021 15.3575 20.3963 15.8359 20.3963C16.3142 20.3963 16.7879 20.3021 17.2298 20.1191C17.6717 19.936 18.0733 19.6677 18.4115 19.3295C18.7497 18.9912 19.018 18.5897 19.2011 18.1478C19.3842 17.7058 19.4784 17.2322 19.4784 16.7538C19.4784 16.2755 19.3842 15.8018 19.2011 15.3599C19.018 14.918 18.7497 14.5164 18.4115 14.1782C18.0733 13.84 17.6717 13.5717 17.2298 13.3886C16.7879 13.2055 16.3142 13.1113 15.8359 13.1113Z" fill="#2D373D"/>
<path d="M16.5859 14.5576C16.5859 14.1434 16.2501 13.8076 15.8359 13.8076C15.4217 13.8076 15.0859 14.1434 15.0859 14.5576V16.0038H13.6396C13.2254 16.0038 12.8896 16.3396 12.8896 16.7538C12.8896 17.1681 13.2254 17.5038 13.6396 17.5038H15.0859V18.9501C15.0859 19.3643 15.4217 19.7001 15.8359 19.7001C16.2501 19.7001 16.5859 19.3643 16.5859 18.9501V17.5038H18.0321C18.4463 17.5038 18.7821 17.1681 18.7821 16.7538C18.7821 16.3396 18.4463 16.0038 18.0321 16.0038H16.5859V14.5576Z" fill="#2D373D"/>
</svg>
