<svg width="32" height="33" viewBox="0 0 32 33" fill="none" xmlns="http://www.w3.org/2000/svg">
<path fill-rule="evenodd" clip-rule="evenodd" d="M10.6866 7.80432C10.6866 5.95782 9.18972 4.46094 7.34322 4.46094C5.49672 4.46094 3.99984 5.95782 3.99984 7.80432C3.99984 9.65082 5.49672 11.1477 7.34322 11.1477C8.05769 11.1477 8.71984 10.9231 9.26272 10.5419L9.69849 10.9001C10.1251 11.2509 10.7553 11.1893 11.106 10.7627C11.4567 10.336 11.3952 9.70587 10.9685 9.35515L10.4827 8.95579C10.6146 8.59646 10.6866 8.20838 10.6866 7.80432ZM7.34322 6.46094C8.08515 6.46094 8.6866 7.06239 8.6866 7.80432C8.6866 8.10795 8.58706 8.38545 8.41843 8.6099C8.17164 8.93837 7.78202 9.1477 7.34322 9.1477C6.60129 9.1477 5.99984 8.54625 5.99984 7.80432C5.99984 7.06239 6.60129 6.46094 7.34322 6.46094Z" fill="#2D373D"/>
<path fill-rule="evenodd" clip-rule="evenodd" d="M16.0037 9.46094C13.8983 9.46094 12.1916 11.1677 12.1916 13.273C12.1916 14.623 12.8934 15.8092 13.9521 16.4865C12.3554 17.2517 11.2528 18.883 11.2528 20.7718C11.2528 21.3241 11.7005 21.7718 12.2528 21.7718H19.7516C20.3039 21.7718 20.7516 21.3241 20.7516 20.7718C20.7516 18.8837 19.6498 17.2528 18.054 16.4873C19.1134 15.8101 19.8157 14.6236 19.8157 13.273C19.8157 11.1677 18.109 9.46094 16.0037 9.46094ZM14.1916 13.273C14.1916 12.2722 15.0029 11.4609 16.0037 11.4609C17.0044 11.4609 17.8157 12.2722 17.8157 13.273C17.8157 14.2738 17.0044 15.0851 16.0037 15.0851C15.0029 15.0851 14.1916 14.2738 14.1916 13.273ZM16.0022 18.0224C17.1679 18.0224 18.1641 18.7478 18.5641 19.7718H13.4403C13.8403 18.7478 14.8366 18.0224 16.0022 18.0224Z" fill="#2D373D"/>
<path fill-rule="evenodd" clip-rule="evenodd" d="M10.6853 25.1842C10.6853 27.0307 9.18841 28.5276 7.34192 28.5276C5.49542 28.5276 3.99854 27.0307 3.99854 25.1842C3.99854 23.3377 5.49542 21.8408 7.34192 21.8408C8.05639 21.8408 8.71854 22.0654 9.26142 22.4466L9.69718 22.0884C10.1238 21.7377 10.754 21.7992 11.1047 22.2259C11.4554 22.6525 11.3939 23.2827 10.9672 23.6334L10.4814 24.0327C10.6133 24.3921 10.6853 24.7801 10.6853 25.1842ZM7.34192 26.5276C8.08384 26.5276 8.6853 25.9261 8.6853 25.1842C8.6853 24.8806 8.58576 24.6031 8.41713 24.3786C8.17034 24.0502 7.78072 23.8408 7.34192 23.8408C6.59999 23.8408 5.99854 24.4423 5.99854 25.1842C5.99854 25.9261 6.59999 26.5276 7.34192 26.5276Z" fill="#2D373D"/>
<path fill-rule="evenodd" clip-rule="evenodd" d="M24.6572 28.5275C22.8107 28.5275 21.3138 27.0307 21.3138 25.1842C21.3138 24.7801 21.3858 24.392 21.5177 24.0327L21.0319 23.6333C20.6052 23.2826 20.5437 22.6524 20.8944 22.2258C21.2451 21.7992 21.8753 21.7376 22.3019 22.0883L22.7377 22.4466C23.2806 22.0653 23.9427 21.8408 24.6572 21.8408C26.5037 21.8408 28.0006 23.3377 28.0006 25.1842C28.0006 27.0307 26.5037 28.5275 24.6572 28.5275ZM23.3138 25.1842C23.3138 25.9261 23.9153 26.5275 24.6572 26.5275C25.3991 26.5275 26.0006 25.9261 26.0006 25.1842C26.0006 24.4422 25.3991 23.8408 24.6572 23.8408C24.2184 23.8408 23.8288 24.0501 23.582 24.3786C23.4134 24.603 23.3138 24.8805 23.3138 25.1842Z" fill="#2D373D"/>
<path fill-rule="evenodd" clip-rule="evenodd" d="M24.6572 4.46094C22.8107 4.46094 21.3138 5.95782 21.3138 7.80432C21.3138 8.20838 21.3858 8.59646 21.5177 8.95579L21.0319 9.35515C20.6052 9.70587 20.5437 10.336 20.8944 10.7627C21.2451 11.1893 21.8753 11.2509 22.3019 10.9001L22.7377 10.5419C23.2806 10.9231 23.9427 11.1477 24.6572 11.1477C26.5037 11.1477 28.0006 9.65082 28.0006 7.80432C28.0006 5.95782 26.5037 4.46094 24.6572 4.46094ZM23.3138 7.80432C23.3138 7.06239 23.9153 6.46094 24.6572 6.46094C25.3991 6.46094 26.0006 7.06239 26.0006 7.80432C26.0006 8.54625 25.3991 9.1477 24.6572 9.1477C24.2184 9.1477 23.8288 8.93837 23.582 8.6099C23.4134 8.38545 23.3138 8.10795 23.3138 7.80432Z" fill="#2D373D"/>
</svg>
