<svg width="32" height="33" viewBox="0 0 32 33" fill="none" xmlns="http://www.w3.org/2000/svg">
<path fill-rule="evenodd" clip-rule="evenodd" d="M12.3333 25.3077L12.3236 25.3076L12.32 25.3076C12.017 25.3062 11.7028 25.2527 11.4133 25.1343L5.54667 22.7876C5.09333 22.6009 4.70667 22.2943 4.42667 21.8809C4.14667 21.4676 4 20.9876 4 20.4943V6.44094C4 6.16094 4.06667 5.88094 4.2 5.6276C4.33333 5.37427 4.52 5.16094 4.76 5.00094C4.98667 4.84094 5.26667 4.7476 5.54667 4.7076C5.82667 4.68094 6.12 4.7076 6.38667 4.8276L12.16 7.13427C12.2667 7.17427 12.4 7.17427 12.5067 7.13427L18.7467 4.64094C19.3333 4.40094 19.9867 4.40094 20.5733 4.64094L26.44 6.9876C26.8933 7.17427 27.2933 7.48094 27.56 7.89427C27.84 8.29427 27.9867 8.77427 27.9867 9.28094V13.5343C27.9867 14.0809 27.5333 14.5343 26.9867 14.5343C26.44 14.5343 25.9867 14.0809 25.9867 13.5343V9.28094C25.9867 9.1876 25.96 9.09427 25.9067 9.0276C25.8533 8.9476 25.7733 8.89427 25.6933 8.85427L20.6667 6.8436V12.8009C20.6667 13.3476 20.2133 13.8009 19.6667 13.8009C19.12 13.8009 18.6667 13.3476 18.6667 12.8009V6.83259L13.3333 8.96364V22.9518L15.32 22.1609C15.84 21.9609 16.4133 22.2009 16.6133 22.7209C16.8133 23.2276 16.5733 23.8143 16.0533 24.0143L13.24 25.1343C12.958 25.2496 12.6637 25.3034 12.3571 25.3074L12.3333 25.3077ZM11.3333 8.97411V22.9503L6.29333 20.9343C6.2 20.8943 6.13333 20.8409 6.08 20.7609C6.02667 20.6809 6 20.5876 6 20.4943V6.8276L11.3333 8.97411Z" fill="#2D373D"/>
<path d="M22.6002 21.5943C23.366 21.5943 23.9869 20.9735 23.9869 20.2076C23.9869 19.4418 23.366 18.821 22.6002 18.821C21.8344 18.821 21.2135 19.4418 21.2135 20.2076C21.2135 20.9735 21.8344 21.5943 22.6002 21.5943Z" fill="#2D373D"/>
<path fill-rule="evenodd" clip-rule="evenodd" d="M22.6005 28.4676C22.3339 28.4676 22.0672 28.401 21.8405 28.2943C21.6139 28.1876 21.4005 28.0143 21.2405 27.8143C19.4005 25.4543 17.2005 22.2276 17.2005 20.2143C17.2005 18.7743 17.7605 17.4143 18.7872 16.401C19.7872 15.401 21.1872 14.8143 22.6005 14.8143C24.0139 14.8143 25.4005 15.3743 26.4139 16.401C27.4272 17.4276 28.0005 18.7743 28.0005 20.2143C28.0005 22.2276 25.8005 25.4543 23.9605 27.8143C23.8005 28.0276 23.5872 28.201 23.3472 28.3076C23.1205 28.4143 22.8539 28.481 22.5872 28.481L22.6005 28.4676ZM22.6005 16.8143C21.7072 16.8143 20.8272 17.1743 20.2005 17.8143C19.5739 18.4543 19.2005 19.3076 19.2005 20.2143C19.2005 21.241 20.5339 23.6143 22.6005 26.3076C24.6672 23.6143 26.0005 21.241 26.0005 20.2143C26.0005 19.3076 25.6539 18.4543 25.0005 17.8143C24.3739 17.1876 23.4939 16.8143 22.6005 16.8143Z" fill="#2D373D"/>
</svg>
