<svg width="24" height="24" viewBox="0 0 24 24" fill="none" xmlns="http://www.w3.org/2000/svg">
<path fill-rule="evenodd" clip-rule="evenodd" d="M19.1429 7.95242C19.1429 9.66187 17.7571 11.0477 16.0476 11.0477C14.3382 11.0477 12.9524 9.66187 12.9524 7.95242C12.9524 6.24296 14.3382 4.85718 16.0476 4.85718C17.7571 4.85718 19.1429 6.24296 19.1429 7.95242ZM17.6429 7.95242C17.6429 8.83344 16.9287 9.54765 16.0476 9.54765C15.1666 9.54765 14.4524 8.83344 14.4524 7.95242C14.4524 7.07139 15.1666 6.35718 16.0476 6.35718C16.9287 6.35718 17.6429 7.07139 17.6429 7.95242Z" fill="#526570"/>
<path d="M9.732 14.8089C8.03165 14.5771 6.35494 15.0693 5.34694 15.5953C4.97972 15.7869 4.52669 15.6446 4.33506 15.2774C4.14343 14.9101 4.28578 14.4571 4.653 14.2655C5.86723 13.6318 7.85719 13.0394 9.93461 13.3227C11.2907 13.5075 12.6605 14.0639 13.8504 15.1806C14.4101 14.8036 15.2045 14.4239 16.094 14.2955C17.2042 14.1353 18.4754 14.3708 19.541 15.4805C19.8279 15.7793 19.8183 16.2541 19.5195 16.541C19.2207 16.8279 18.746 16.8182 18.4591 16.5195C17.7855 15.818 17.0277 15.6763 16.3083 15.7801C15.7599 15.8593 15.2434 16.0833 14.8518 16.3202C15.1429 16.7196 15.4164 17.1648 15.6684 17.6598C15.8563 18.0289 15.7093 18.4805 15.3402 18.6684C14.9711 18.8563 14.5195 18.7094 14.3316 18.3402C13.1127 15.9457 11.3837 15.0341 9.732 14.8089Z" fill="#526570"/>
<path fill-rule="evenodd" clip-rule="evenodd" d="M2 3.42857C2 2.63959 2.63959 2 3.42857 2H20.5714C21.3604 2 22 2.63959 22 3.42857V20.5714C22 21.3604 21.3604 22 20.5714 22H3.42857C2.63959 22 2 21.3604 2 20.5714V3.42857ZM3.5 20.5V3.5H20.5V20.5H3.5Z" fill="#526570"/>
</svg>
