<svg width="24" height="24" viewBox="0 0 24 24" fill="none" xmlns="http://www.w3.org/2000/svg">
<path d="M8 12.875C8 13.4273 7.55228 13.875 7 13.875C6.44772 13.875 6 13.4273 6 12.875C6 12.3227 6.44772 11.875 7 11.875C7.55228 11.875 8 12.3227 8 12.875Z" fill="#2D373D"/>
<path d="M12 13.875C12.5523 13.875 13 13.4273 13 12.875C13 12.3227 12.5523 11.875 12 11.875C11.4477 11.875 11 12.3227 11 12.875C11 13.4273 11.4477 13.875 12 13.875Z" fill="#2D373D"/>
<path d="M18 12.875C18 13.4273 17.5523 13.875 17 13.875C16.4477 13.875 16 13.4273 16 12.875C16 12.3227 16.4477 11.875 17 11.875C17.5523 11.875 18 12.3227 18 12.875Z" fill="#2D373D"/>
<path d="M7 17.375C7.55228 17.375 8 16.9273 8 16.375C8 15.8227 7.55228 15.375 7 15.375C6.44772 15.375 6 15.8227 6 16.375C6 16.9273 6.44772 17.375 7 17.375Z" fill="#2D373D"/>
<path d="M13 16.375C13 16.9273 12.5523 17.375 12 17.375C11.4477 17.375 11 16.9273 11 16.375C11 15.8227 11.4477 15.375 12 15.375C12.5523 15.375 13 15.8227 13 16.375Z" fill="#2D373D"/>
<path d="M17 17.375C17.5523 17.375 18 16.9273 18 16.375C18 15.8227 17.5523 15.375 17 15.375C16.4477 15.375 16 15.8227 16 16.375C16 16.9273 16.4477 17.375 17 17.375Z" fill="#2D373D"/>
<path fill-rule="evenodd" clip-rule="evenodd" d="M8.75 4.125C8.75 3.71079 8.41421 3.375 8 3.375C7.58579 3.375 7.25 3.71079 7.25 4.125V4.375H2.67502C2.30222 4.375 2 4.67722 2 5.05002V19.7C2 20.0728 2.30222 20.375 2.67502 20.375H21.325C21.6978 20.375 22 20.0728 22 19.7V5.05002C22 4.67722 21.6978 4.375 21.325 4.375H16.75V4.125C16.75 3.71079 16.4142 3.375 16 3.375C15.5858 3.375 15.25 3.71079 15.25 4.125V4.375H8.75V4.125ZM3.5 5.875H7.25V5.92511C7.25 6.33932 7.58579 6.67511 8 6.67511C8.41421 6.67511 8.75 6.33932 8.75 5.92511V5.875H15.25V5.92511C15.25 6.33932 15.5858 6.67511 16 6.67511C16.4142 6.67511 16.75 6.33932 16.75 5.92511V5.875H20.5V8.875L3.5 8.875V5.875ZM3.5 10.375V18.875H20.5V10.375L3.5 10.375Z" fill="#2D373D"/>
</svg>
