<svg width="24" height="25" viewBox="0 0 24 25" fill="none" xmlns="http://www.w3.org/2000/svg">
<path d="M8.03309 4.42188C5.8998 4.42188 3.90227 5.50609 3.20001 6.03272C2.86863 6.28123 2.39853 6.21405 2.15002 5.88267C1.90151 5.55128 1.96869 5.08118 2.30008 4.83267C3.16317 4.18543 5.47035 2.92188 8.03309 2.92188C10.5958 2.92188 12.903 4.18543 13.7661 4.83267C14.0975 5.08118 14.1647 5.55128 13.9162 5.88267C13.6677 6.21405 13.1976 6.28123 12.8662 6.03272C12.1639 5.50609 10.1664 4.42188 8.03309 4.42188Z" fill="#2D373D"/>
<path fill-rule="evenodd" clip-rule="evenodd" d="M15.9336 15.7892C17.6918 15.7892 19.1172 14.3638 19.1172 12.6055C19.1172 10.8473 17.6918 9.42188 15.9336 9.42188C14.1753 9.42188 12.7499 10.8473 12.7499 12.6055C12.7499 14.3638 14.1753 15.7892 15.9336 15.7892ZM15.9336 14.2892C16.8634 14.2892 17.6172 13.5354 17.6172 12.6055C17.6172 11.6757 16.8634 10.9219 15.9336 10.9219C15.0037 10.9219 14.2499 11.6757 14.2499 12.6055C14.2499 13.5354 15.0037 14.2892 15.9336 14.2892Z" fill="#2D373D"/>
<path fill-rule="evenodd" clip-rule="evenodd" d="M9.99584 17.8809C9.26322 17.8809 8.66931 18.4748 8.66931 19.2074C8.66931 19.94 9.26322 20.5339 9.99584 20.5339C10.7285 20.5339 11.3224 19.94 11.3224 19.2074C11.3224 18.4748 10.7285 17.8809 9.99584 17.8809ZM9.73054 19.2074C9.73054 19.0609 9.84932 18.9421 9.99584 18.9421C10.1424 18.9421 10.2611 19.0609 10.2611 19.2074C10.2611 19.3539 10.1424 19.4727 9.99584 19.4727C9.84932 19.4727 9.73054 19.3539 9.73054 19.2074Z" fill="#2D373D"/>
<path fill-rule="evenodd" clip-rule="evenodd" d="M4.11941 16.9659C3.8252 16.2664 4.33881 15.4932 5.09762 15.4932H12.6703C13.0974 15.4932 13.4829 15.7492 13.6485 16.1429L15.8805 21.449C16.1747 22.1485 15.6611 22.9217 14.9023 22.9217H7.32957C6.90246 22.9217 6.51697 22.6657 6.35136 22.272L4.11941 16.9659ZM7.62102 21.4217L5.7582 16.9932H12.3789L14.2417 21.4217H7.62102Z" fill="#2D373D"/>
<path d="M15.4999 16.1719C15.0857 16.1719 14.7499 16.5077 14.7499 16.9219C14.7499 17.3361 15.0857 17.6719 15.4999 17.6719C17.4247 17.6719 18.6507 18.3545 19.4044 19.2161C19.9804 19.8746 20.309 20.6709 20.4388 21.4259H17.4999C17.0857 21.4259 16.7499 21.7617 16.7499 22.1759C16.7499 22.5901 17.0857 22.9259 17.4999 22.9259H21.2542C21.6684 22.9259 22.0042 22.5901 22.0042 22.1759C22.0042 20.9183 21.5771 19.4217 20.5334 18.2285C19.4711 17.0141 17.8199 16.1719 15.4999 16.1719Z" fill="#2D373D"/>
<path d="M5.54803 8.77162C5.90244 8.50585 6.94336 7.94336 8.03309 7.94336C9.12283 7.94336 10.1638 8.50585 10.5182 8.77162C10.8495 9.02013 11.3196 8.95295 11.5681 8.62156C11.8167 8.29018 11.7495 7.82008 11.4181 7.57157C10.9029 7.18519 9.55227 6.44336 8.03309 6.44336C6.51392 6.44336 5.16333 7.18519 4.6481 7.57157C4.31671 7.82008 4.24953 8.29018 4.49804 8.62156C4.74655 8.95295 5.21665 9.02013 5.54803 8.77162Z" fill="#2D373D"/>
</svg>
