<svg width="24" height="25" viewBox="0 0 24 25" fill="none" xmlns="http://www.w3.org/2000/svg">
<path d="M19.0496 13.7359C19.4996 13.7359 19.7996 13.4359 19.7996 12.9859V10.0609C19.8746 9.98594 19.8746 9.83594 19.8746 9.76094C19.8746 9.61094 19.7996 9.53594 19.7996 9.38594C19.7246 9.01094 19.5746 8.63594 19.2746 8.33594L14.9246 3.98594C14.6246 3.68594 14.1746 3.46094 13.6496 3.46094H5.84961C4.79961 3.46094 3.97461 4.21094 3.97461 5.33594V19.6609C3.97461 20.7109 4.79961 21.4609 5.84961 21.4609H8.02461C8.47461 21.4609 8.77461 21.2359 8.77461 20.7859C8.77461 20.3359 8.47461 20.0359 8.02461 20.0359H5.84961C5.62461 20.0359 5.47461 19.8859 5.47461 19.6609V5.33594C5.47461 5.11094 5.62461 4.96094 5.84961 4.96094H12.8246V8.63594C12.8246 9.68594 13.6496 10.5109 14.6996 10.5109H18.2996V12.9859C18.2996 13.3609 18.5996 13.7359 19.0496 13.7359ZM14.3246 8.56094V5.41094L17.8496 8.93594H14.6996C14.4746 8.93594 14.3246 8.86094 14.3246 8.56094Z" fill="#2D373D"/>
<path d="M10.7995 14.561C10.5745 14.486 10.4245 14.411 10.2745 14.411C9.82454 14.411 9.52454 14.711 9.52454 15.161V20.711C9.52454 21.161 9.82454 21.461 10.2745 21.461C10.6495 21.461 11.0245 21.161 11.0245 20.711V19.361C12.2995 19.286 13.2745 18.236 13.2745 16.886C13.2745 16.286 12.9745 15.686 12.5245 15.236C11.9995 14.861 11.3995 14.561 10.7995 14.561ZM11.0245 17.786V16.136C11.1745 16.136 11.3995 16.211 11.4745 16.361C11.6995 16.511 11.7745 16.736 11.7745 16.961C11.7745 17.336 11.3995 17.636 11.0245 17.786Z" fill="#2D373D"/>
<path d="M14.6995 14.4859C14.2495 14.4859 13.9495 14.7859 13.9495 15.2359V20.7109C13.9495 21.1609 14.2495 21.4609 14.6995 21.4609C16.2745 21.4609 17.6245 20.1109 17.6245 18.4609V17.3359C17.6245 15.8359 16.3495 14.4859 14.6995 14.4859ZM16.1245 18.4609C16.1245 18.9859 15.8995 19.5109 15.4495 19.7359V16.2109C15.8245 16.5109 16.1245 16.9609 16.1245 17.4109V18.4609Z" fill="#2D373D"/>
<path d="M20.2498 15.9859H21.3748C21.8248 15.9859 22.1248 15.6859 22.1248 15.2359C22.1248 14.7859 21.8248 14.4859 21.3748 14.4859H20.2498C19.1998 14.4859 18.3748 15.3109 18.3748 16.3609V20.7109C18.3748 21.1609 18.6748 21.4609 19.1248 21.4609C19.4998 21.4609 19.8748 21.1609 19.8748 20.7109V19.2859H20.7748C21.1498 19.2859 21.5248 18.9859 21.5248 18.5359C21.5248 18.0859 21.2248 17.7859 20.7748 17.7859H19.8748V16.2859C19.8748 16.0609 20.0248 15.9859 20.2498 15.9859Z" fill="#2D373D"/>
</svg>
