<svg width="16" height="17" viewBox="0 0 16 17" fill="none" xmlns="http://www.w3.org/2000/svg">
<path fill-rule="evenodd" clip-rule="evenodd" d="M7.50026 4.25586C7.22412 4.25587 7.00026 4.47973 7.00026 4.75587V8.92254C7.00026 9.19867 7.22411 9.42252 7.50025 9.42252H10.6669C10.9431 9.42252 11.1669 9.19867 11.1669 8.92253C11.1669 8.64638 10.9431 8.42253 10.6669 8.42253H8.00027V4.75585C8.00027 4.47971 7.77641 4.25586 7.50026 4.25586Z" fill="#2D373D"/>
<path d="M3.0595 6.09037C4.62867 3.38043 8.1051 2.45089 10.8245 4.01636C13.5431 5.58134 14.4734 9.04586 12.9047 11.7549C11.3355 14.4649 7.8591 15.3944 5.13967 13.8289C4.2425 13.3125 3.54042 12.5896 3.05925 11.7564C2.92116 11.5172 2.61535 11.4353 2.37622 11.5734C2.13709 11.7115 2.05518 12.0173 2.19328 12.2565C2.76033 13.2384 3.58754 14.0893 4.64077 14.6956C7.83679 16.5354 11.924 15.4442 13.7701 12.256C15.6167 9.06696 14.5203 4.99002 11.3234 3.1497C8.12763 1.31 4.0408 2.40091 2.1945 5.5886C1.88641 6.11877 1.65478 6.68655 1.50413 7.27522L1.47144 7.23023C1.30912 7.00683 0.996438 6.9573 0.773035 7.11962C0.549632 7.28193 0.500109 7.59462 0.662423 7.81802L1.44593 8.89641C1.60821 9.11977 1.92082 9.16932 2.14423 9.00709L3.22479 8.22241C3.44824 8.06016 3.49784 7.74748 3.33558 7.52404C3.17332 7.3006 2.86065 7.251 2.63721 7.41325L2.46996 7.5347C2.59779 7.03079 2.79547 6.54473 3.05911 6.09104L3.0595 6.09037Z" fill="#2D373D"/>
</svg>
