<svg width="32" height="33" viewBox="0 0 32 33" fill="none" xmlns="http://www.w3.org/2000/svg">
<path d="M24.0999 11.7613H20.6999V8.36133C20.6999 6.16133 18.9999 4.36133 16.7999 4.36133H15.2999C13.0999 4.36133 11.2999 6.16133 11.2999 8.36133V11.6613H7.8999C5.6999 11.6613 3.8999 13.4613 3.8999 15.6613V17.1613C3.9999 19.2613 5.6999 21.0613 7.8999 21.0613H11.1999V24.4613C11.1999 26.6613 12.9999 28.4613 15.1999 28.4613H16.6999C18.8999 28.4613 20.6999 26.7613 20.6999 24.5613V21.1613H24.0999C26.2999 21.1613 28.0999 19.4613 28.0999 17.2613V15.7613C28.0999 13.5613 26.2999 11.7613 24.0999 11.7613ZM26.1999 17.2613C26.1999 18.2613 25.2999 19.1613 24.1999 19.1613H19.7999C19.1999 19.1613 18.7999 19.5613 18.7999 20.1613V24.5613C18.7999 25.6613 17.8999 26.5613 16.7999 26.5613H15.2999C14.1999 26.5613 13.2999 25.6613 13.2999 24.5613V20.1613C13.2999 19.5613 12.8999 19.1613 12.2999 19.1613H7.8999C6.7999 19.1613 5.8999 18.3613 5.8999 17.2613V15.7613C5.8999 14.6613 6.7999 13.7613 7.8999 13.7613H12.3999C12.9999 13.7613 13.3999 13.3613 13.3999 12.7613V8.36133C13.3999 7.26133 14.2999 6.36133 15.3999 6.36133H16.8999C17.8999 6.46133 18.7999 7.26133 18.7999 8.36133V12.7613C18.7999 13.3613 19.1999 13.7613 19.7999 13.7613H24.1999C25.2999 13.7613 26.1999 14.6613 26.1999 15.7613V17.2613V17.2613Z" fill="#2D373D"/>
</svg>
