<svg width="16" height="17" viewBox="0 0 16 17" fill="none" xmlns="http://www.w3.org/2000/svg">
<path d="M9.33333 2.75391C9.33333 2.47776 9.10948 2.25391 8.83333 2.25391C8.55719 2.25391 8.33333 2.47776 8.33333 2.75391V3.42057L7.66667 3.42057V2.75391C7.66667 2.47776 7.44281 2.25391 7.16667 2.25391C6.89052 2.25391 6.66667 2.47776 6.66667 2.75391V4.92057C6.66667 5.19672 6.89052 5.42057 7.16667 5.42057C7.44281 5.42057 7.66667 5.19672 7.66667 4.92057V4.42057H8.33333V4.92057C8.33333 5.19672 8.55719 5.42057 8.83333 5.42057C9.10948 5.42057 9.33333 5.19672 9.33333 4.92057V2.75391Z" fill="#2D373D"/>
<path d="M7.41667 8.42057C7.41667 8.14443 7.19281 7.92057 6.91667 7.92057C6.64052 7.92057 6.41667 8.14443 6.41667 8.42057V9.08724C6.41667 9.36338 6.64052 9.58724 6.91667 9.58724C7.19281 9.58724 7.41667 9.36338 7.41667 9.08724V8.42057Z" fill="#2D373D"/>
<path d="M9.58333 8.42057C9.58333 8.14443 9.35948 7.92057 9.08333 7.92057C8.80719 7.92057 8.58333 8.14443 8.58333 8.42057V9.08724C8.58333 9.36338 8.80719 9.58724 9.08333 9.58724C9.35948 9.58724 9.58333 9.36338 9.58333 9.08724V8.42057Z" fill="#2D373D"/>
<path d="M9.08333 10.0872C9.35948 10.0872 9.58333 10.3111 9.58333 10.5872V11.2539C9.58333 11.53 9.35948 11.7539 9.08333 11.7539C8.80719 11.7539 8.58333 11.53 8.58333 11.2539V10.5872C8.58333 10.3111 8.80719 10.0872 9.08333 10.0872Z" fill="#2D373D"/>
<path d="M11.75 8.42057C11.75 8.14443 11.5261 7.92057 11.25 7.92057C10.9739 7.92057 10.75 8.14443 10.75 8.42057V9.08724C10.75 9.36338 10.9739 9.58724 11.25 9.58724C11.5261 9.58724 11.75 9.36338 11.75 9.08724V8.42057Z" fill="#2D373D"/>
<path d="M11.25 10.0872C11.5261 10.0872 11.75 10.3111 11.75 10.5872V11.2539C11.75 11.53 11.5261 11.7539 11.25 11.7539C10.9739 11.7539 10.75 11.53 10.75 11.2539V10.5872C10.75 10.3111 10.9739 10.0872 11.25 10.0872Z" fill="#2D373D"/>
<path d="M11.75 12.7539C11.75 12.4778 11.5261 12.2539 11.25 12.2539C10.9739 12.2539 10.75 12.4778 10.75 12.7539V13.4206C10.75 13.6967 10.9739 13.9206 11.25 13.9206C11.5261 13.9206 11.75 13.6967 11.75 13.4206V12.7539Z" fill="#2D373D"/>
<path d="M6.91667 10.0872C7.19281 10.0872 7.41667 10.3111 7.41667 10.5872V11.2539C7.41667 11.53 7.19281 11.7539 6.91667 11.7539C6.64052 11.7539 6.41667 11.53 6.41667 11.2539V10.5872C6.41667 10.3111 6.64052 10.0872 6.91667 10.0872Z" fill="#2D373D"/>
<path d="M5.25 8.42057C5.25 8.14443 5.02614 7.92057 4.75 7.92057C4.47386 7.92057 4.25 8.14443 4.25 8.42057V9.08724C4.25 9.36338 4.47386 9.58724 4.75 9.58724C5.02614 9.58724 5.25 9.36338 5.25 9.08724V8.42057Z" fill="#2D373D"/>
<path d="M4.75 10.0872C5.02614 10.0872 5.25 10.3111 5.25 10.5872V11.2539C5.25 11.53 5.02614 11.7539 4.75 11.7539C4.47386 11.7539 4.25 11.53 4.25 11.2539V10.5872C4.25 10.3111 4.47386 10.0872 4.75 10.0872Z" fill="#2D373D"/>
<path d="M5.25 12.7539C5.25 12.4778 5.02614 12.2539 4.75 12.2539C4.47386 12.2539 4.25 12.4778 4.25 12.7539V13.4206C4.25 13.6967 4.47386 13.9206 4.75 13.9206C5.02614 13.9206 5.25 13.6967 5.25 13.4206V12.7539Z" fill="#2D373D"/>
<path fill-rule="evenodd" clip-rule="evenodd" d="M3.95661 6.42057L4.40108 4.42047H5.66666C5.9428 4.42047 6.16666 4.19661 6.16666 3.92047C6.16666 3.64432 5.9428 3.42047 5.66666 3.42047H4C3.76565 3.42047 3.56274 3.58323 3.5119 3.812L2.93222 6.42057H2.5C2.22386 6.42057 2 6.64443 2 6.92057C2 7.19671 2.22386 7.42057 2.5 7.42057H2.83333V15.0872C2.83333 15.3634 3.05719 15.5872 3.33333 15.5872H12.6667C12.9428 15.5872 13.1667 15.3634 13.1667 15.0872V7.42057H13.5C13.7761 7.42057 14 7.19671 14 6.92057C14 6.64443 13.7761 6.42057 13.5 6.42057H13.0678L12.4881 3.812C12.4373 3.58323 12.2343 3.42047 12 3.42047H10.3333C10.0572 3.42047 9.83333 3.64432 9.83333 3.92047C9.83333 4.19661 10.0572 4.42047 10.3333 4.42047H11.5989L12.0434 6.42057H3.95661ZM8.66667 14.5872H7.33333V13.5872C7.33333 13.4952 7.40795 13.4206 7.5 13.4206H8.5C8.59205 13.4206 8.66667 13.4952 8.66667 13.5872V14.5872ZM9.66667 13.5872V14.5872H12.1667V7.42057H3.83333V14.5872H6.33333V13.5872C6.33333 12.9429 6.85567 12.4206 7.5 12.4206H8.5C9.14433 12.4206 9.66667 12.9429 9.66667 13.5872Z" fill="#2D373D"/>
</svg>
