<svg width="64" height="64" viewBox="0 0 64 64" fill="none" xmlns="http://www.w3.org/2000/svg">
<path d="M15.9126 37.1517C17.337 37.1517 18.4917 35.9984 18.4917 34.5758C18.4917 33.1532 17.337 32 15.9126 32C14.4882 32 13.3335 33.1532 13.3335 34.5758C13.3335 35.9984 14.4882 37.1517 15.9126 37.1517Z" fill="#2D373D"/>
<path fill-rule="evenodd" clip-rule="evenodd" d="M29.2803 35.6907C30.3849 35.6907 31.2803 36.5861 31.2803 37.6907V48.524H36.2547V41.1907C36.2547 40.0662 36.6834 38.9727 37.4701 38.1545C38.2594 37.3337 39.3469 36.8573 40.4982 36.8573H42.7418C43.8932 36.8573 44.9807 37.3337 45.77 38.1545C46.5566 38.9727 46.9854 40.0662 46.9854 41.1907V48.524H51.9598V37.6907C51.9598 36.5861 52.8552 35.6907 53.9598 35.6907C55.0643 35.6907 55.9598 36.5861 55.9598 37.6907V50.524C55.9598 51.6286 55.0643 52.524 53.9598 52.524H44.9854C43.8809 52.524 42.9854 51.6286 42.9854 50.524V41.1907C42.9854 41.0775 42.9415 40.984 42.8866 40.927C42.8343 40.8726 42.7806 40.8573 42.7418 40.8573H40.4982C40.4595 40.8573 40.4057 40.8726 40.3534 40.927C40.2986 40.984 40.2547 41.0775 40.2547 41.1907V50.524C40.2547 51.6286 39.3592 52.524 38.2547 52.524H29.2803C28.1757 52.524 27.2803 51.6286 27.2803 50.524V37.6907C27.2803 36.5861 28.1757 35.6907 29.2803 35.6907Z" fill="#2D373D"/>
<path fill-rule="evenodd" clip-rule="evenodd" d="M41.62 20.8238C41.5992 20.8238 41.5765 20.828 41.5527 20.8383C41.5286 20.8486 41.5016 20.8661 41.4752 20.8935L26.2348 36.7436C25.4692 37.5398 24.2031 37.5646 23.4069 36.799C22.6107 36.0334 22.5859 34.7673 23.3514 33.9711L38.591 18.122C38.5908 18.1222 38.5911 18.1219 38.591 18.122C38.9812 17.7161 39.4492 17.3892 39.9695 17.1649C40.4903 16.9405 41.0514 16.8238 41.62 16.8238C42.1887 16.8238 42.7498 16.9405 43.2705 17.1649C43.7909 17.3892 44.2585 17.7156 44.6487 18.1216C44.6486 18.1215 44.6488 18.1217 44.6487 18.1216L59.8886 33.9711C60.6542 34.7673 60.6294 36.0334 59.8332 36.799C59.037 37.5646 57.7709 37.5398 57.0053 36.7436L41.7653 20.894C41.7389 20.8665 41.7114 20.8486 41.6874 20.8383C41.6635 20.828 41.6409 20.8238 41.62 20.8238Z" fill="#2D373D"/>
<path d="M43.1812 10.6667H21.9365C20.4592 10.665 19.0169 11.1158 17.8034 11.9583C16.6307 12.7834 15.7377 13.9468 15.2437 15.2929L11.181 24.0993C9.99141 24.548 8.91077 25.2444 8.01073 26.1424C7.15675 26.9959 6.48045 28.0103 6.02094 29.1268C5.56142 30.2434 5.32781 31.4399 5.3336 32.6473V38.1894C5.33931 39.6331 5.91294 41.0166 6.93048 42.0407L7.1888 42.2521V45.5398C7.15719 46.6421 7.46227 47.7278 8.06338 48.6523C8.66449 49.5768 9.53309 50.2962 10.5534 50.7145C11.5737 51.1328 12.6973 51.2303 13.7744 50.9938C14.8515 50.7574 15.8309 50.1983 16.5822 49.3911C17.0903 48.887 17.4931 48.2869 17.7673 47.6257C18.0414 46.9646 18.1814 46.2555 18.1791 45.5398V43.5907H24.4048C24.8719 43.5907 25.3199 43.4051 25.6502 43.0748C25.9805 42.7445 26.1661 42.2965 26.1661 41.8294C26.1661 41.3623 25.9805 40.9143 25.6502 40.584C25.3199 40.2537 24.8719 40.0681 24.4048 40.0681H10.7818C10.2791 40.0683 9.7963 39.8718 9.43649 39.5208C9.07668 39.1698 8.8684 38.692 8.85614 38.1894V32.6473C8.85303 31.9125 8.99548 31.1843 9.27525 30.5048C9.55503 29.8253 9.9666 29.2079 10.4862 28.6883C11.0058 28.1687 11.6232 27.7571 12.3027 27.4773C12.9822 27.1976 13.7104 27.0551 14.4452 27.0582H26.0617C26.5288 27.0582 26.9768 26.8727 27.3071 26.5423C27.6374 26.212 27.823 25.7641 27.823 25.2969C27.823 24.8298 27.6374 24.3818 27.3071 24.0515C26.9768 23.7212 26.5288 23.5357 26.0617 23.5357H15.2437L18.4374 16.608C18.7005 15.8953 19.1759 15.2806 19.7995 14.8468C20.4317 14.4223 21.175 14.1936 21.9365 14.1892H43.1812C43.6484 14.1892 44.0963 14.0036 44.4266 13.6733C44.7569 13.343 44.9425 12.8951 44.9425 12.4279C44.9425 11.9608 44.7569 11.5128 44.4266 11.1825C44.0963 10.8522 43.6484 10.6667 43.1812 10.6667ZM14.5392 45.4928C14.5348 45.869 14.4204 46.2357 14.21 46.5476C13.9996 46.8595 13.7024 47.1029 13.3552 47.2478C13.008 47.3927 12.6259 47.4327 12.2562 47.3629C11.8865 47.293 11.5454 47.1164 11.2749 46.8549C11.094 46.6776 10.9508 46.4655 10.854 46.2314C10.7571 45.9974 10.7086 45.7461 10.7113 45.4928V43.5672H14.5392V45.4928Z" fill="#2D373D"/>
</svg>
