<svg width="16" height="16" viewBox="0 0 16 16" fill="none" xmlns="http://www.w3.org/2000/svg">
<path d="M14.6301 6.32501C14.563 5.9823 14.4099 5.66228 14.1851 5.39501C13.4225 4.51588 12.4725 3.8188 11.4051 3.35501C10.3429 2.89415 9.19248 2.67226 8.0351 2.70501C6.87091 2.67012 5.7135 2.89424 4.64648 3.36117C3.57945 3.8281 2.62945 4.52619 1.8651 5.40501C1.6507 5.67219 1.50342 5.98683 1.43556 6.32261C1.36771 6.65839 1.38127 7.00554 1.4751 7.33501L2.5851 11.22C2.6401 11.4161 2.74126 11.5961 2.8801 11.745C3.00642 11.8839 3.16103 11.9942 3.33352 12.0683C3.50601 12.1425 3.69238 12.1789 3.8801 12.175H3.9951C4.18767 12.1491 4.37209 12.0807 4.5351 11.975C4.83665 11.7983 5.15281 11.6477 5.4801 11.525V12.84C5.4801 12.9726 5.53278 13.0998 5.62655 13.1936C5.72032 13.2873 5.84749 13.34 5.9801 13.34C6.11271 13.34 6.23989 13.2873 6.33365 13.1936C6.42742 13.0998 6.4801 12.9726 6.4801 12.84V11.2C6.99072 11.0894 7.51282 11.0407 8.0351 11.055C8.55078 11.0403 9.06631 11.089 9.5701 11.2V12.82C9.5701 12.9526 9.62278 13.0798 9.71655 13.1736C9.81032 13.2673 9.93749 13.32 10.0701 13.32C10.2027 13.32 10.3299 13.2673 10.4237 13.1736C10.5174 13.0798 10.5701 12.9526 10.5701 12.82V11.525C10.9038 11.6477 11.2266 11.7982 11.5351 11.975C11.7071 12.0839 11.9024 12.1507 12.1051 12.17C12.3089 12.1872 12.514 12.1581 12.7051 12.085C12.896 12.0122 13.0672 11.8958 13.2051 11.745C13.3439 11.5961 13.4451 11.4161 13.5001 11.22L14.6151 7.33501C14.7 7.00428 14.7052 6.65811 14.6301 6.32501V6.32501ZM13.6301 7.06001L12.5351 10.945C12.5198 10.9907 12.496 11.0331 12.4651 11.07C12.4318 11.1056 12.3907 11.133 12.3451 11.15C12.2958 11.1621 12.2444 11.1621 12.1951 11.15C12.1405 11.1582 12.0846 11.1495 12.0351 11.125C11.5731 10.8428 11.0819 10.6115 10.5701 10.435V7.90001L10.9451 8.27501C10.9917 8.3213 11.047 8.35795 11.1078 8.38288C11.1686 8.40781 11.2337 8.42052 11.2994 8.42028C11.3651 8.42005 11.4301 8.40688 11.4907 8.38153C11.5513 8.35617 11.6063 8.31913 11.6526 8.27251C11.6989 8.22589 11.7355 8.17061 11.7605 8.10982C11.7854 8.04904 11.7981 7.98394 11.7979 7.91824C11.7976 7.85254 11.7845 7.78753 11.7591 7.72692C11.7338 7.66632 11.6967 7.6113 11.6501 7.56501L10.4201 6.34001C10.3755 6.29556 10.3229 6.25993 10.2651 6.23501C10.2041 6.20956 10.1387 6.19646 10.0726 6.19646C10.0065 6.19646 9.94109 6.20956 9.8801 6.23501C9.82261 6.26053 9.77013 6.29609 9.7251 6.34001V6.34001L8.4951 7.56501C8.44824 7.61149 8.41104 7.66679 8.38566 7.72772C8.36027 7.78865 8.3472 7.854 8.3472 7.92001C8.3472 7.98601 8.36027 8.05136 8.38566 8.11229C8.41104 8.17322 8.44824 8.22852 8.4951 8.27501C8.58878 8.36813 8.71551 8.4204 8.8476 8.4204C8.97969 8.4204 9.10642 8.36813 9.2001 8.27501L9.5801 7.90001V10.17C9.07109 10.0735 8.55279 10.0349 8.0351 10.055C7.51079 10.0357 6.98595 10.0742 6.4701 10.17V7.90001L6.8501 8.27501C6.94323 8.36738 7.06893 8.41945 7.2001 8.42001C7.2659 8.42039 7.33114 8.40777 7.39205 8.38289C7.45297 8.35801 7.50838 8.32135 7.5551 8.27501C7.60197 8.22852 7.63916 8.17322 7.66455 8.11229C7.68993 8.05136 7.703 7.98601 7.703 7.92001C7.703 7.854 7.68993 7.78865 7.66455 7.72772C7.63916 7.66679 7.60197 7.61149 7.5551 7.56501L6.3351 6.34001C6.29038 6.29937 6.23981 6.26566 6.1851 6.24001C6.12411 6.21456 6.05868 6.20146 5.9926 6.20146C5.92652 6.20146 5.86109 6.21456 5.8001 6.24001C5.74539 6.26566 5.69483 6.29937 5.6501 6.34001L4.4001 7.56501C4.35324 7.61149 4.31604 7.66679 4.29066 7.72772C4.26527 7.78865 4.2522 7.854 4.2522 7.92001C4.2522 7.98601 4.26527 8.05136 4.29066 8.11229C4.31604 8.17322 4.35324 8.22852 4.4001 8.27501C4.49378 8.36813 4.62051 8.4204 4.7526 8.4204C4.88469 8.4204 5.01142 8.36813 5.1051 8.27501L5.4801 7.90001V10.435C4.97485 10.612 4.49033 10.8433 4.0351 11.125C3.99338 11.1524 3.94499 11.168 3.8951 11.17C3.84752 11.1821 3.79768 11.1821 3.7501 11.17C3.70445 11.153 3.66338 11.1256 3.6301 11.09C3.58782 11.0495 3.55533 10.9999 3.5351 10.945L2.4301 7.06001C2.38523 6.88449 2.38523 6.70052 2.4301 6.52501C2.46446 6.3523 2.53801 6.18979 2.6451 6.05001C3.29001 5.31036 4.0862 4.71779 4.97985 4.31237C5.8735 3.90695 6.84379 3.69812 7.8251 3.70001H8.0351C9.04893 3.66395 10.0581 3.85387 10.9895 4.25599C11.9208 4.65812 12.7511 5.26238 13.4201 6.02501C13.5366 6.17028 13.6156 6.34199 13.6501 6.52501C13.6884 6.70219 13.6816 6.88618 13.6301 7.06001Z" fill="#2D373D"/>
</svg>
