<svg width="64" height="65" viewBox="0 0 64 65" fill="none" xmlns="http://www.w3.org/2000/svg">
<path fill-rule="evenodd" clip-rule="evenodd" d="M18.8 8.46094C17.4916 8.46094 16.2368 8.9807 15.3116 9.90588C14.3865 10.8311 13.8667 12.0859 13.8667 13.3943V20.7276C13.8667 21.8322 14.7621 22.7276 15.8667 22.7276C16.7866 22.7276 17.5614 22.1066 17.7948 21.261H52V35.3943C52 36.4988 52.8955 37.3943 54 37.3943C55.1046 37.3943 56 36.4988 56 35.3943V13.3943C56 12.0859 55.4803 10.8311 54.5551 9.90588C53.6299 8.9807 52.3751 8.46094 51.0667 8.46094H18.8ZM52 17.261V13.3943C52 13.1467 51.9017 12.9093 51.7267 12.7343C51.5516 12.5593 51.3142 12.4609 51.0667 12.4609H18.8C18.5525 12.4609 18.3151 12.5593 18.1401 12.7343C17.965 12.9093 17.8667 13.1467 17.8667 13.3943V17.261H52Z" fill="#2D373D"/>
<path d="M13.8667 44.1943C13.8667 43.0898 14.7621 42.1943 15.8667 42.1943H20.2667C21.3713 42.1943 22.2667 43.0898 22.2667 44.1943C22.2667 45.2989 21.3713 46.1943 20.2667 46.1943H15.8667C14.7621 46.1943 13.8667 45.2989 13.8667 44.1943Z" fill="#2D373D"/>
<path fill-rule="evenodd" clip-rule="evenodd" d="M34.423 39.5187C33.2878 39.1641 32.0697 39.1757 30.9414 39.5518C29.8131 39.9279 28.8318 40.6495 28.1363 41.6143C27.4409 42.5791 27.0667 43.7383 27.0667 44.9277C27.0667 46.117 27.4409 47.2762 28.1363 48.241C28.8318 49.2059 29.8131 49.9274 30.9414 50.3035C32.0697 50.6796 33.2878 50.6912 34.423 50.3366C34.8612 50.1997 35.2785 50.0109 35.6667 49.776C36.055 50.0109 36.4722 50.1997 36.9104 50.3366C38.0457 50.6912 39.2637 50.6796 40.392 50.3035C41.5203 49.9274 42.5017 49.2059 43.1971 48.241C43.8925 47.2762 44.2667 46.117 44.2667 44.9277C44.2667 43.7383 43.8925 42.5791 43.1971 41.6143C42.5017 40.6495 41.5203 39.9279 40.392 39.5518C39.2637 39.1757 38.0457 39.1641 36.9104 39.5187C36.4722 39.6556 36.055 39.8444 35.6667 40.0793C35.2785 39.8444 34.8612 39.6556 34.423 39.5187ZM32.2063 43.3465C32.5382 43.2359 32.8964 43.2325 33.2303 43.3368C33.5642 43.4411 33.8568 43.6478 34.0667 43.9277C34.4444 44.4313 35.0372 44.7277 35.6667 44.7277C36.2962 44.7277 36.889 44.4313 37.2667 43.9277C37.4766 43.6478 37.7692 43.4411 38.1031 43.3368C38.437 43.2325 38.7952 43.2359 39.1271 43.3465C39.4589 43.4571 39.7476 43.6694 39.9521 43.9531C40.1566 44.2369 40.2667 44.5778 40.2667 44.9277C40.2667 45.2775 40.1566 45.6184 39.9521 45.9022C39.7476 46.1859 39.4589 46.3982 39.1271 46.5088C38.7952 46.6194 38.437 46.6228 38.1031 46.5185C37.7692 46.4142 37.4766 46.2075 37.2667 45.9277C36.889 45.424 36.2962 45.1277 35.6667 45.1277C35.0372 45.1277 34.4444 45.424 34.0667 45.9277C33.8568 46.2075 33.5642 46.4142 33.2303 46.5185C32.8964 46.6228 32.5382 46.6194 32.2063 46.5088C31.8745 46.3982 31.5858 46.1859 31.3813 45.9022C31.1768 45.6184 31.0667 45.2775 31.0667 44.9277C31.0667 44.5779 31.1768 44.2369 31.3813 43.9531C31.5858 43.6694 31.8745 43.4571 32.2063 43.3465Z" fill="#2D373D"/>
<path fill-rule="evenodd" clip-rule="evenodd" d="M8 51.5276C8 54.2522 10.2087 56.4609 12.9333 56.4609H45.2C47.9246 56.4609 50.1333 54.2522 50.1333 51.5276V29.5276C50.1333 26.803 47.9246 24.5942 45.2 24.5942H12.9333C10.2087 24.5942 8 26.803 8 29.5276V51.5276ZM12.9333 28.5942C12.4179 28.5942 12 29.0121 12 29.5276V33.3943H46.1333V29.5276C46.1333 29.0121 45.7155 28.5942 45.2 28.5942H12.9333ZM46.1333 37.3943H12V51.5276C12 52.043 12.4179 52.4609 12.9333 52.4609H45.2C45.7155 52.4609 46.1333 52.043 46.1333 51.5276V37.3943Z" fill="#2D373D"/>
</svg>
