<svg width="63" height="64" viewBox="0 0 63 64" fill="none" xmlns="http://www.w3.org/2000/svg">
<path fill-rule="evenodd" clip-rule="evenodd" d="M5.88086 18.6665C5.88086 14.6164 9.09896 11.3332 13.0687 11.3332H37.8994C38.982 11.3332 39.8597 12.2286 39.8597 13.3332C39.8597 14.4377 38.982 15.3332 37.8994 15.3332H13.0687C11.2643 15.3332 9.80149 16.8256 9.80149 18.6665V45.3332C9.80149 46.4377 8.92383 47.3332 7.84118 47.3332C6.75852 47.3332 5.88086 46.4377 5.88086 45.3332V18.6665ZM44.4338 16.6665C45.5164 16.6665 46.3941 17.5619 46.3941 18.6665V45.331C46.3941 49.3801 43.177 52.6665 39.2063 52.6665H13.0687C11.986 52.6665 11.1084 51.7711 11.1084 50.6665C11.1084 49.5619 11.986 48.6665 13.0687 48.6665H39.2063C41.0097 48.6665 42.4735 47.173 42.4735 45.331V18.6665C42.4735 17.5619 43.3511 16.6665 44.4338 16.6665Z" fill="#2D373D"/>
<path fill-rule="evenodd" clip-rule="evenodd" d="M56.9486 23.9998C56.9486 21.9978 56.1275 20.0899 54.6758 18.9362C53.1271 17.7053 51.0109 17.4794 49.0763 18.7269C48.1174 19.3452 47.2101 20.0366 46.4279 20.6325L46.2167 20.7934C45.34 21.4602 44.6843 21.9427 44.1492 22.2302L45.9761 25.7694C46.8322 25.3094 47.7384 24.6253 48.5602 24.0001L48.7569 23.8504C49.5591 23.2395 50.3476 22.6391 51.171 22.1082C51.4719 21.9141 51.6819 21.8892 51.8058 21.8961C51.9366 21.9035 52.0925 21.9535 52.2665 22.0918C52.637 22.3863 53.028 23.0563 53.028 23.9998V31.9988L53.0194 40.0168C53.0184 40.9613 52.626 41.6302 52.2558 41.923C52.0821 42.0604 51.9267 42.1097 51.7966 42.1165C51.6733 42.123 51.4634 42.0975 51.1626 41.9019C50.3453 41.3704 49.563 40.7706 48.7669 40.1604L48.5653 40.0059C47.7477 39.3798 46.8461 38.6948 45.9935 38.2332L44.1564 41.7664C44.6886 42.0545 45.3407 42.5373 46.2123 43.2048L46.4272 43.3695C47.2037 43.9651 48.1043 44.6559 49.0559 45.2748C50.9874 46.5309 53.1057 46.3126 54.6585 45.0845C56.1134 43.9337 56.9378 42.0258 56.94 40.0222L56.9472 33.3331H56.9486V23.9998Z" fill="#2D373D"/>
<path fill-rule="evenodd" clip-rule="evenodd" d="M53.6612 9.25229C54.4267 10.0333 54.4267 11.2997 53.6612 12.0807L11.8411 54.7474C11.0755 55.5284 9.83433 55.5284 9.06878 54.7474C8.30323 53.9663 8.30323 52.7 9.06878 51.919L50.8889 9.25229C51.6544 8.47124 52.8956 8.47124 53.6612 9.25229Z" fill="#2D373D"/>
<path fill-rule="evenodd" clip-rule="evenodd" d="M15.6824 24.6665C16.7651 24.6665 17.6428 25.5619 17.6428 26.6665V33.3332C17.6428 34.4377 16.7651 35.3332 15.6824 35.3332C14.5998 35.3332 13.7221 34.4377 13.7221 33.3332V26.6665C13.7221 25.5619 14.5998 24.6665 15.6824 24.6665Z" fill="#2D373D"/>
</svg>
