<svg width="64" height="64" viewBox="0 0 64 64" fill="none" xmlns="http://www.w3.org/2000/svg">
<path d="M43.6002 34.8C40.6002 34.8 38.2002 37.2001 38.2002 40.2001C38.2002 43.2001 40.6002 45.6 43.6002 45.6C46.6002 45.6 48.8002 43.2001 49.0002 40.2001C49.0002 37.2001 46.6002 34.8 43.6002 34.8ZM43.6002 41.8C42.8002 41.8 42.2002 41.2001 42.2002 40.4001C42.2002 39.6001 42.8002 39 43.6002 39C44.4002 39 45.0002 39.6001 45.0002 40.4001C45.0002 41.2001 44.4002 41.8 43.6002 41.8Z" fill="#2D373D"/>
<path d="M55.2002 40.2001L57.6002 37.6001C58.6002 36.4001 59.2002 34.8001 58.8002 33.2001C58.2002 30.4001 55.4002 28.8001 52.8002 29.4001L49.6002 30.2001L49.4002 30.0001L48.4002 26.8001C48.2002 26.8001 48.2002 26.6001 48.2002 26.6001C47.6002 25.2001 46.4002 24.0001 45.0002 23.6001C42.4002 22.8001 39.6002 24.2001 38.8002 26.8001L37.6002 30.2001C37.6002 30.4001 37.4002 30.4001 37.4002 30.4001L34.2002 29.6001C32.6002 29.2001 31.0002 29.6001 29.8002 30.8001C28.8002 31.6001 28.2002 32.8001 28.2002 34.2001C28.2002 35.6001 28.8002 36.8001 29.6002 37.8001L31.8002 40.2001V40.4001L29.6002 42.8001C28.6002 44.0001 28.0002 45.6001 28.4002 47.2001C28.8002 48.6001 29.4002 49.6001 30.6002 50.4001C31.8002 51.0001 33.0002 51.2001 34.4002 51.0001L37.6002 50.2001C37.6002 50.2001 37.8002 50.2001 37.8002 50.4001L38.8002 53.6001C39.4002 55.2001 40.6002 56.6001 42.2002 57.0001C42.6002 57.2001 43.2002 57.2001 43.6002 57.2001C44.4002 57.2001 45.2002 57.0001 46.0002 56.4001C47.2002 55.6001 48.0002 54.6001 48.4002 53.4001L49.4002 50.2001C49.4002 50.0001 49.4002 50.0001 49.6002 50.0001L52.8002 50.8001C54.4002 51.2001 56.0002 50.8001 57.2002 49.6001C58.2002 48.8001 58.8002 47.6001 58.8002 46.2001C58.8002 44.8001 58.2002 43.6001 57.4002 42.6001L55.2002 40.2001ZM52.4002 43.4001L54.6002 45.8001C54.8002 46.0001 54.8002 46.2001 54.8002 46.4001C54.6002 46.4001 54.6002 46.8001 54.4002 47.0001C54.2002 47.2001 54.0002 47.2001 53.6002 47.2001L50.4002 46.4001C48.2002 45.8001 46.0002 47.2001 45.4002 49.2001L44.4002 52.4001C44.4002 52.8001 44.2002 53.0001 44.0002 53.0001C43.8002 53.0001 43.6002 53.0001 43.2002 53.0001C43.0002 53.0001 42.6002 52.8001 42.6002 52.4001L41.6002 49.2001C41.0002 47.4001 39.6002 46.4001 37.8002 46.4001C37.6002 46.4001 37.0002 46.2001 36.6002 46.6001L33.6002 47.4001C33.2002 47.4001 33.0002 47.4001 32.8002 47.4001C32.6002 47.4001 32.2002 47.0001 32.2002 46.6001C32.2002 46.4001 32.4002 46.0001 32.6002 45.8001L34.8002 43.4001C36.2002 41.8001 36.2002 39.2001 34.8002 37.6001L32.6002 35.2001C32.2002 34.8001 32.2002 34.2001 32.6002 33.8001C32.8002 33.6001 33.2002 33.6001 33.4002 33.6001L36.6002 34.4001C38.8002 35.0001 41.0002 33.6001 41.6002 31.6001L42.6002 28.4001C42.8002 28.0001 43.4002 27.6001 43.8002 27.8001C44.0002 27.8001 44.4002 28.0001 44.4002 28.4001V28.6001L45.4002 31.6001C46.0002 33.6001 48.2002 34.8001 50.4002 34.4001L53.6002 33.6001C54.0002 33.6001 54.2002 33.8001 54.4002 33.8001C54.6002 33.8001 54.8002 34.0001 54.8002 34.4001C55.0002 34.6001 54.8002 35.0001 54.6002 35.2001L52.4002 37.6001C51.0002 39.2001 51.0002 41.8001 52.4002 43.4001Z" fill="#2D373D"/>
<path d="M15.4001 25.2C15.2001 25 14.8001 25 14.6001 25C14.4001 25 14.0001 25 13.8001 25.2C13.0001 25.4 12.2001 26.2 12.0001 27C11.8001 27.2 11.8001 27.6 11.8001 27.8C11.8001 29 12.6001 30 13.8001 30.4C14.0001 30.6 14.4001 30.6 14.6001 30.6C14.8001 30.6 15.2001 30.6 15.4001 30.4C16.2001 30.2 17.0001 29.4 17.2001 28.6C17.4001 28.4 17.4001 28 17.4001 27.8C17.4001 27.6 17.4001 27.2 17.2001 27C17.0001 26.2 16.4001 25.4 15.4001 25.2Z" fill="#2D373D"/>
<path d="M23.8002 33.4001H10.6002C9.8002 33.4001 9.2002 32.8 9.2002 32V27C9.2002 24.4 11.2002 22.4 13.8002 22.4H46.6002C48.2002 22.4 49.8002 23.4 50.6002 24.8C51.2002 25.8 52.4002 26.2 53.4002 25.6C54.4002 25 54.8002 23.8 54.2002 22.8C53.4002 21.2 52.0002 19.8 50.4002 19.2L46.8002 11.4C45.8002 8.60005 43.0002 6.80005 40.2002 6.80005H20.6002C17.6002 6.80005 15.0002 8.60005 14.0002 11.2L10.6002 19C7.4002 20.2 5.2002 23.4 5.2002 27V32C5.2002 33.4 5.8002 34.8 6.8002 35.6V38.4001C6.8002 41.4001 9.2002 43.8 12.2002 43.8C15.0002 43.8 17.4002 41.6 17.6002 38.6V37.2001H23.8002C24.8002 37.2001 25.8002 36.6001 25.8002 35.4001C25.8002 34.2001 25.0002 33.4001 23.8002 33.4001ZM17.8002 12.8C18.2002 11.6 19.4002 10.8 20.6002 10.8H40.2002C41.4002 10.8 42.6002 11.6 43.0002 12.8L45.6002 18.4H15.2002L17.8002 12.8ZM13.6002 38.6C13.6002 39.4 13.0002 40 12.2002 40C11.4002 40 10.8002 39.4 10.8002 38.6V37.2001H13.6002V38.6Z" fill="#2D373D"/>
</svg>
