<svg width="32" height="33" viewBox="0 0 32 33" fill="none" xmlns="http://www.w3.org/2000/svg">
<path fill-rule="evenodd" clip-rule="evenodd" d="M22.2543 4.95122H6.13457C5.8612 4.94944 5.5901 5.00119 5.33657 5.10355C5.08144 5.20657 4.84909 5.35883 4.65281 5.55164C4.45652 5.74446 4.30013 5.97405 4.19258 6.2273C4.08502 6.48056 4.02836 6.75252 4.02592 7.02765L4.02588 20.256L4.02596 20.2649C4.03087 20.8199 4.2548 21.3505 4.64901 21.7412C5.04321 22.1319 5.57582 22.3511 6.13084 22.3511H12.3592C12.9115 22.3511 13.3592 21.9034 13.3592 21.3511C13.3592 20.7988 12.9115 20.3511 12.3592 20.3511H6.13077C6.10311 20.3511 6.07657 20.3402 6.05692 20.3207C6.03778 20.3018 6.02669 20.2762 6.02592 20.2493V11.5951H22.4992C22.6735 11.8881 22.9934 12.0845 23.3592 12.0845C23.9115 12.0845 24.3592 11.6368 24.3592 11.0845L24.3592 10.6106L24.3593 10.5951L24.3592 10.5795L24.3593 7.04632L24.3592 7.03747C24.3543 6.48245 24.1303 5.95184 23.7361 5.56112C23.3419 5.17041 22.8093 4.9512 22.2543 4.95122ZM22.3592 9.59505H6.02592V7.04341C6.02627 7.03161 6.02882 7.01998 6.03344 7.0091C6.03832 6.99761 6.04542 6.98718 6.05433 6.97843C6.06324 6.96968 6.07379 6.96277 6.08537 6.95809C6.09696 6.95341 6.10935 6.9511 6.12184 6.95122H22.2544C22.282 6.95121 22.3086 6.96214 22.3282 6.98161C22.3474 7.00059 22.3584 7.02621 22.3592 7.05312V9.59505Z" fill="#2D373D"/>
<path d="M22.1593 19.1507C22.1593 18.5984 21.7116 18.1507 21.1593 18.1507C20.6071 18.1507 20.1593 18.5984 20.1593 19.1507V22.8174C20.1593 23.3696 20.6071 23.8174 21.1593 23.8174H23.154C23.7063 23.8174 24.154 23.3696 24.154 22.8174C24.154 22.2651 23.7063 21.8174 23.154 21.8174H22.1593V19.1507Z" fill="#2D373D"/>
<path fill-rule="evenodd" clip-rule="evenodd" d="M22.1593 15.0179H23.3593C23.9116 15.0179 24.3593 14.5702 24.3593 14.0179C24.3593 13.4656 23.9116 13.0179 23.3593 13.0179H18.9593C18.407 13.0179 17.9593 13.4656 17.9593 14.0179C17.9593 14.5702 18.407 15.0179 18.9593 15.0179H20.1593V15.2901C16.8409 15.7742 14.2926 18.6317 14.2926 22.0844C14.2926 25.8767 17.367 28.951 21.1593 28.951C24.9516 28.951 28.026 25.8767 28.026 22.0844C28.026 18.6317 25.4777 15.7743 22.1593 15.2901V15.0179ZM21.1593 17.2179L21.1453 17.2178C18.4639 17.2254 16.2926 19.4013 16.2926 22.0844C16.2926 24.7722 18.4715 26.951 21.1593 26.951C23.8471 26.951 26.026 24.7722 26.026 22.0844C26.026 19.4013 23.8547 17.2254 21.1734 17.2178L21.1593 17.2179Z" fill="#2D373D"/>
</svg>
