<svg width="16" height="16" viewBox="0 0 16 16" fill="none" xmlns="http://www.w3.org/2000/svg">
<path d="M7.9998 1.2998C4.2998 1.2998 1.2998 4.2998 1.2998 7.9998C1.2998 11.6998 4.2998 14.6998 7.9998 14.6998C11.6998 14.6998 14.6998 11.6998 14.6998 7.9998C14.6998 4.2998 11.6998 1.2998 7.9998 1.2998ZM7.9998 13.6998C4.8498 13.6998 2.2998 11.1498 2.2998 7.9998C2.2998 4.8498 4.8498 2.2998 7.9998 2.2998C11.1498 2.2998 13.6998 4.8498 13.6998 7.9998C13.6998 11.1498 11.1498 13.6998 7.9998 13.6998Z" fill="#2D373D"/>
<path d="M11.1998 7.4998H8.49976V3.7998C8.49976 3.4998 8.29976 3.2998 7.99976 3.2998C7.69976 3.2998 7.49976 3.4998 7.49976 3.7998V7.9998C7.49976 8.2998 7.69976 8.4998 7.99976 8.4998H11.1998C11.4498 8.4998 11.6998 8.2998 11.6998 7.9998C11.6998 7.6998 11.4998 7.4998 11.1998 7.4998Z" fill="#2D373D"/>
</svg>
