<svg width="32" height="33" viewBox="0 0 32 33" fill="none" xmlns="http://www.w3.org/2000/svg">
<path fill-rule="evenodd" clip-rule="evenodd" d="M2.95891 5.29304C2.56838 4.90252 2.56838 4.26935 2.95891 3.87883C3.34943 3.48831 3.9826 3.48831 4.37312 3.87883L12.1139 11.6196L16.4668 4.08575C16.6932 3.69391 17.1545 3.50295 17.5916 3.62014C18.0287 3.73734 18.3326 4.13348 18.3326 4.58603V13.2527H23.5023C24.5514 13.2527 25.1895 14.4083 24.6307 15.2962L21.2162 20.7219L29.0398 28.5455C29.4303 28.936 29.4303 29.5692 29.0398 29.9597C28.6493 30.3502 28.0161 30.3502 27.6256 29.9597L2.95891 5.29304ZM19.7658 19.2715L22.295 15.2527H17.666C16.9296 15.2527 16.3326 14.6557 16.3326 13.9194V8.31569L13.5779 13.0836L19.7658 19.2715Z" fill="#2D373D"/>
<path d="M11.5318 16.6248C11.8081 16.1466 11.6444 15.5349 11.1662 15.2586C10.688 14.9823 10.0764 15.146 9.8001 15.6242L8.08904 18.5857C7.57546 19.4745 8.21694 20.586 9.24353 20.586H13.666V29.2527C13.666 29.6982 13.9607 30.09 14.3888 30.2135C14.8169 30.337 15.275 30.1624 15.5123 29.7853L19.0785 24.1187C19.3727 23.6512 19.2322 23.0338 18.7648 22.7397C18.2974 22.4455 17.68 22.586 17.3858 23.0534L15.666 25.7862V19.9194C15.666 19.183 15.069 18.586 14.3326 18.586H10.3987L11.5318 16.6248Z" fill="#2D373D"/>
</svg>
