<svg width="16" height="17" viewBox="0 0 16 17" fill="none" xmlns="http://www.w3.org/2000/svg">
<path fill-rule="evenodd" clip-rule="evenodd" d="M8.69664 2.62695H3.41228C3.08188 2.62695 2.76501 2.7582 2.53138 2.99183C2.29776 3.22546 2.1665 3.54233 2.1665 3.87273V13.5678C2.1665 13.8982 2.29775 14.2151 2.53138 14.4487C2.76501 14.6824 3.08188 14.8136 3.41228 14.8136H4.90384C5.17998 14.8136 5.40384 14.5898 5.40384 14.3136C5.40384 14.0375 5.17998 13.8136 4.90384 13.8136H3.41228C3.3471 13.8136 3.28458 13.7877 3.23849 13.7416C3.1924 13.6955 3.1665 13.633 3.1665 13.5678V3.87273C3.1665 3.80755 3.1924 3.74503 3.23849 3.69894C3.28458 3.65285 3.3471 3.62695 3.41228 3.62695H8.13273V6.11006C8.13273 6.44046 8.26398 6.75733 8.49761 6.99096C8.73124 7.22459 9.04811 7.35584 9.37851 7.35584H11.8616V9.09318C11.8616 9.36932 12.0855 9.59318 12.3616 9.59318C12.6378 9.59318 12.8616 9.36932 12.8616 9.09318V6.85805L12.8616 6.85584L12.8616 6.85363V6.7916C12.8615 6.46143 12.7303 6.14471 12.4969 5.91117L9.57782 2.99155C9.46208 2.87589 9.32469 2.78416 9.17349 2.7216C9.02237 2.65907 8.86019 2.62691 8.69664 2.62695ZM9.13273 3.96072L11.5274 6.35584H9.37851C9.31332 6.35584 9.25081 6.32995 9.20472 6.28385C9.15863 6.23776 9.13273 6.17525 9.13273 6.11006V3.96072Z" fill="#2D373D"/>
<path d="M7.91021 9.96822C8.18636 9.96822 8.41021 10.1921 8.41021 10.4682V13.2649C8.41021 13.5829 8.28387 13.8879 8.05899 14.1128C7.8341 14.3377 7.52909 14.4641 7.21105 14.4641H6.51188C6.23574 14.4641 6.01188 14.2402 6.01188 13.9641C6.01188 13.6879 6.23574 13.4641 6.51188 13.4641H7.21105C7.26387 13.4641 7.31453 13.4431 7.35188 13.4057C7.38923 13.3684 7.41021 13.3177 7.41021 13.2649V10.4682C7.41021 10.1921 7.63407 9.96822 7.91021 9.96822Z" fill="#2D373D"/>
<path fill-rule="evenodd" clip-rule="evenodd" d="M8.80859 10.4682C8.80859 10.1921 9.03245 9.96822 9.30859 9.96822H9.65818C10.0689 9.96822 10.4629 10.1314 10.7533 10.4218C11.0438 10.7123 11.2069 11.1062 11.2069 11.517C11.2069 11.9277 11.0438 12.3217 10.7533 12.6121C10.4985 12.8669 10.1641 13.0237 9.80859 13.0584V13.9641C9.80859 14.2402 9.58474 14.4641 9.30859 14.4641C9.03245 14.4641 8.80859 14.2402 8.80859 13.9641V10.4682ZM9.80859 12.0447V10.9892C9.89761 11.0146 9.97959 11.0623 10.0462 11.1289C10.1491 11.2319 10.2069 11.3714 10.2069 11.517C10.2069 11.6625 10.1491 11.8021 10.0462 11.905C9.97959 11.9716 9.89761 12.0193 9.80859 12.0447Z" fill="#2D373D"/>
<path d="M12.8044 10.9682C12.7516 10.9682 12.7009 10.9892 12.6636 11.0266C12.6262 11.0639 12.6052 11.1146 12.6052 11.1674V13.2649C12.6052 13.3177 12.6262 13.3684 12.6636 13.4057C12.7009 13.4431 12.7516 13.4641 12.8044 13.4641C12.8572 13.4641 12.9079 13.4431 12.9452 13.4057C12.9826 13.3684 13.0036 13.3177 13.0036 13.2649V13.0427C12.8009 12.9789 12.654 12.7894 12.654 12.5657C12.654 12.2896 12.8778 12.0657 13.154 12.0657H13.5036C13.7797 12.0657 14.0036 12.2896 14.0036 12.5657V13.2649C14.0036 13.5829 13.8772 13.8879 13.6523 14.1128C13.4274 14.3377 13.1224 14.4641 12.8044 14.4641C12.4864 14.4641 12.1813 14.3377 11.9565 14.1128C11.7316 13.8879 11.6052 13.5829 11.6052 13.2649V11.1674C11.6052 10.8493 11.7316 10.5443 11.9565 10.3194C12.1813 10.0946 12.4864 9.96822 12.8044 9.96822H13.5036C13.7797 9.96822 14.0036 10.1921 14.0036 10.4682C14.0036 10.7444 13.7797 10.9682 13.5036 10.9682H12.8044Z" fill="#2D373D"/>
</svg>
