<svg width="16" height="17" viewBox="0 0 16 17" fill="none" xmlns="http://www.w3.org/2000/svg">
<path fill-rule="evenodd" clip-rule="evenodd" d="M9.66667 5.92057C9.66667 6.84105 8.92047 7.58724 8 7.58724C7.07953 7.58724 6.33333 6.84105 6.33333 5.92057C6.33333 5.0001 7.07953 4.25391 8 4.25391C8.92047 4.25391 9.66667 5.0001 9.66667 5.92057ZM8.66667 5.92057C8.66667 6.28876 8.36819 6.58724 8 6.58724C7.63181 6.58724 7.33333 6.28876 7.33333 5.92057C7.33333 5.55238 7.63181 5.25391 8 5.25391C8.36819 5.25391 8.66667 5.55238 8.66667 5.92057Z" fill="#2D373D"/>
<path fill-rule="evenodd" clip-rule="evenodd" d="M5.11114 2.73375C5.71056 2.47001 6.61603 2.25391 8.00002 2.25391C9.384 2.25391 10.2895 2.47001 10.8889 2.73375C11.449 2.98021 11.7187 3.26052 11.8268 3.37287C11.837 3.38349 11.8461 3.39293 11.8536 3.40035C11.9473 3.49412 12 3.6213 12 3.75391V11.5872C12 11.7917 11.8755 11.9755 11.6857 12.0515C11.5411 12.1093 11.3691 12.1689 11.1667 12.2265V13.2539C11.1667 13.4211 11.0831 13.5772 10.944 13.6699C10.697 13.8346 10.2885 13.9753 9.81209 14.0764C9.65803 14.109 9.49184 14.1386 9.31482 14.1638V15.0897C9.31482 15.3658 9.09096 15.5897 8.81482 15.5897C8.53867 15.5897 8.31482 15.3658 8.31482 15.0897V14.249C8.21189 14.2522 8.1069 14.2539 8 14.2539C7.94391 14.2539 7.88835 14.2534 7.83333 14.2525V15.0897C7.83333 15.3658 7.60948 15.5897 7.33333 15.5897C7.05719 15.5897 6.83333 15.3658 6.83333 15.0897V14.1836C6.60028 14.1546 6.38425 14.118 6.18791 14.0764C5.71152 13.9753 5.30297 13.8346 5.05598 13.6699C4.91688 13.5772 4.83333 13.4211 4.83333 13.2539V12.2265C4.63087 12.1689 4.4589 12.1093 4.3143 12.0515C4.12448 11.9755 4 11.7917 4 11.5872V3.75391C4 3.6213 4.05268 3.49412 4.14645 3.40035C4.15395 3.39285 4.16282 3.38363 4.17317 3.37287C4.28128 3.26052 4.55099 2.98021 5.11114 2.73375ZM8.00002 12.5872C8.87524 12.5872 9.58933 12.5277 10.1667 12.4392V12.9411C10.033 12.9908 9.84626 13.0469 9.60458 13.0981C9.18156 13.1879 8.63304 13.2539 8 13.2539C7.36696 13.2539 6.81844 13.1879 6.39542 13.0981C6.15374 13.0469 5.96695 12.9908 5.83333 12.9411V12.4392C6.41068 12.5277 7.12478 12.5872 8.00002 12.5872ZM11 3.96336V9.08724H5V3.96336C5.10225 3.87364 5.25909 3.76117 5.51388 3.64906C5.95613 3.45447 6.71733 3.25391 8.00002 3.25391C9.2827 3.25391 10.0439 3.45447 10.4861 3.64906C10.7409 3.76117 10.8977 3.87364 11 3.96336ZM5 11.233V10.0872H11V11.233C10.4401 11.4052 9.49123 11.5872 8.00002 11.5872C6.5088 11.5872 5.55989 11.4052 5 11.233Z" fill="#2D373D"/>
</svg>
