<svg width="24" height="25" viewBox="0 0 24 25" fill="none" xmlns="http://www.w3.org/2000/svg">
<path d="M20.25 18.2214L18.8 18.3114V13.7214H20.27C20.4689 13.7214 20.6597 13.6424 20.8003 13.5017C20.941 13.3611 21.02 13.1703 21.02 12.9714C21.02 12.7725 20.941 12.5817 20.8003 12.4411C20.6597 12.3004 20.4689 12.2214 20.27 12.2214H18.78C18.4096 12.2217 18.0528 12.3609 17.78 12.6114L14.65 11.4814C14.3826 11.3905 14.1024 11.3432 13.82 11.3414C13.4307 11.3323 13.0455 11.4217 12.7 11.6014L11.03 12.4414C10.6663 12.1966 10.2384 12.0644 9.8 12.0614C9.5088 12.0572 9.21973 12.1116 8.95 12.2214L6.57 13.1614C6.46982 12.8824 6.2848 12.6417 6.0409 12.4731C5.797 12.3045 5.50645 12.2165 5.21 12.2214H3.75C3.55109 12.2214 3.36032 12.3004 3.21967 12.4411C3.07902 12.5817 3 12.7725 3 12.9714C3 13.1703 3.07902 13.3611 3.21967 13.5017C3.36032 13.6424 3.55109 13.7214 3.75 13.7214L5.2 13.6414V18.2114H3.75C3.55109 18.2114 3.36032 18.2904 3.21967 18.4311C3.07902 18.5717 3 18.7625 3 18.9614C3 19.1603 3.07902 19.3511 3.21967 19.4917C3.36032 19.6324 3.55109 19.7114 3.75 19.7114H5.22C5.58888 19.7129 5.9452 19.5775 6.22 19.3314L6.29 19.2414H7.37L9.72 21.8614C9.88149 22.0383 10.0793 22.1782 10.3 22.2714C10.5168 22.3724 10.7511 22.4301 10.99 22.4414C11.1475 22.4408 11.3011 22.392 11.43 22.3014C12.4197 21.5817 13.371 20.8106 14.28 19.9914L17.76 19.3114C18.0323 19.5628 18.3894 19.7021 18.76 19.7014H20.24C20.4389 19.7014 20.6297 19.6224 20.7703 19.4817C20.911 19.3411 20.99 19.1503 20.99 18.9514C20.99 18.7525 20.911 18.5617 20.7703 18.4211C20.6297 18.2804 20.4389 18.2014 20.24 18.2014L20.25 18.2214ZM13.36 12.9514C13.4934 12.8844 13.6408 12.8501 13.79 12.8514C13.9019 12.8518 14.013 12.8686 14.12 12.9014L17.29 14.0514V17.8814L15.94 18.1414C15.9617 17.7409 15.8293 17.3474 15.57 17.0414L14.36 15.5014C14.5274 15.4146 14.6554 15.2672 14.7177 15.0892C14.7801 14.9113 14.7722 14.7162 14.6956 14.5439C14.619 14.3716 14.4795 14.235 14.3057 14.1621C14.1318 14.0891 13.9366 14.0853 13.76 14.1514L11.22 14.9814C11.1171 15.0216 11.0029 15.0216 10.9 14.9814C10.8499 14.9597 10.8046 14.9281 10.7668 14.8886C10.729 14.8491 10.6995 14.8025 10.68 14.7514C10.658 14.7009 10.6466 14.6465 10.6466 14.5914C10.6466 14.5363 10.658 14.4819 10.68 14.4314C10.7224 14.3278 10.8004 14.2426 10.9 14.1914L11.25 14.0114L13.36 12.9514ZM10.85 20.8814L8.27 18.0114C8.19826 17.9349 8.11148 17.8741 8.0151 17.8328C7.91873 17.7915 7.81485 17.7706 7.71 17.7714H6.71V14.7714L9.4 13.7114C9.4 13.8014 9.31 13.8914 9.27 13.9814C9.123 14.4459 9.15059 14.9481 9.34761 15.3936C9.54462 15.8392 9.8975 16.1976 10.34 16.4014C10.5842 16.5032 10.8455 16.5575 11.11 16.5614C11.3214 16.5599 11.531 16.5227 11.73 16.4514L12.9 16.0714L14.38 17.9614C13.2743 19.0174 12.0946 19.9933 10.85 20.8814Z" fill="#2D373D"/>
<path d="M11.91 10.7714H12.06C14.54 10.7714 16.56 8.77141 17.13 8.09141C17.3683 7.82253 17.4999 7.47569 17.4999 7.11641C17.4999 6.75713 17.3683 6.41029 17.13 6.14141C15.96 4.83141 14 3.44141 12 3.44141C10 3.44141 8 4.80141 6.87 6.11141C6.61767 6.38328 6.47745 6.74049 6.47745 7.11141C6.47745 7.48233 6.61767 7.83954 6.87 8.11141C7.43 8.72141 9.46 10.7714 11.91 10.7714ZM11.91 4.97141H12.03C13.5653 5.15972 14.9745 5.91603 15.98 7.09141C15.4941 7.70509 14.8894 8.21445 14.2022 8.58903C13.5149 8.9636 12.7591 9.19569 11.98 9.27141C10.4195 9.11159 8.98363 8.347 7.98 7.14141C8.96706 5.93 10.3878 5.15148 11.94 4.97141H11.91Z" fill="#2D373D"/>
<path d="M10.98 7.15141C10.9811 7.41375 11.0853 7.66515 11.27 7.85141C11.3626 7.94589 11.4731 8.02106 11.5949 8.07256C11.7168 8.12406 11.8477 8.15086 11.98 8.15141C12.2452 8.15141 12.4996 8.04605 12.6871 7.85851C12.8746 7.67098 12.98 7.41662 12.98 7.15141C12.9808 7.0198 12.9555 6.88934 12.9058 6.7675C12.856 6.64566 12.7827 6.53485 12.69 6.44141C12.5966 6.34872 12.4857 6.2754 12.3639 6.22564C12.2421 6.17587 12.1116 6.15065 11.98 6.15141C11.7148 6.15141 11.4604 6.25676 11.2729 6.4443C11.0854 6.63184 10.98 6.88619 10.98 7.15141Z" fill="#2D373D"/>
</svg>
