<svg width="16" height="17" viewBox="0 0 16 17" fill="none" xmlns="http://www.w3.org/2000/svg">
<path d="M14.1501 6.71172H8.1001V5.11172C8.1001 3.26172 6.6001 1.76172 4.7501 1.76172H4.7001C2.8001 1.81172 1.3501 3.31172 1.3501 5.16172V7.21172C1.3501 7.51172 1.5501 7.71172 1.8501 7.71172C2.1501 7.71172 2.3501 7.51172 2.3501 7.21172V5.16172C2.3501 3.86172 3.4001 2.81172 4.7001 2.76172C6.0001 2.76172 7.1001 3.81172 7.1001 5.11172V6.71172H5.1501C4.8501 6.71172 4.6501 6.91172 4.6501 7.21172V14.6117C4.6501 14.9117 4.8501 15.1117 5.1501 15.1117H14.1501C14.4501 15.1117 14.6501 14.9117 14.6501 14.6117V7.21172C14.6501 6.91172 14.4501 6.71172 14.1501 6.71172ZM13.6501 14.1117H5.6501V7.71172H13.6501V14.1117Z" fill="#2D373D"/>
<path d="M9.65015 12.6617C10.6001 12.6617 11.4001 11.8617 11.4001 10.9117C11.4001 9.96174 10.6001 9.16174 9.65015 9.16174C8.70015 9.16174 7.90015 9.96174 7.90015 10.9117C7.90015 11.8617 8.70015 12.6617 9.65015 12.6617ZM9.65015 10.2117C10.0501 10.2117 10.4001 10.5617 10.4001 10.9617C10.4001 11.3617 10.0501 11.7117 9.65015 11.7117C9.25015 11.7117 8.90015 11.3617 8.90015 10.9617C8.90015 10.5617 9.25015 10.2117 9.65015 10.2117Z" fill="#2D373D"/>
</svg>
