<svg width="64" height="65" viewBox="0 0 64 65" fill="none" xmlns="http://www.w3.org/2000/svg">
<path d="M33.9995 25.0606C33.9995 19.8606 29.7995 15.6606 24.5995 15.6606C19.3995 15.6606 15.1995 19.8606 15.1995 25.0606C15.1995 30.2606 19.3995 34.4606 24.5995 34.4606C29.7995 34.4606 33.9995 30.2606 33.9995 25.0606ZM24.5995 30.4606C21.5995 30.4606 19.1995 28.0606 19.1995 25.0606C19.1995 22.0606 21.5995 19.6606 24.5995 19.6606C27.5995 19.6606 29.9995 22.0606 29.9995 25.0606C29.9995 28.0606 27.5995 30.4606 24.5995 30.4606Z" fill="#2D373D"/>
<path d="M11.7998 25.0607C11.7998 21.6607 13.1998 18.4607 15.5998 16.0607C17.9998 13.6607 21.1998 12.2607 24.5998 12.2607C30.1998 12.2607 34.9998 15.8607 36.5998 21.2607C36.9998 22.4607 38.1998 23.0607 39.1998 22.6607C40.3998 22.2607 40.9998 21.0607 40.5998 20.0607C38.3998 13.0607 31.9998 8.26074 24.5998 8.26074C19.9998 8.26074 15.9998 10.2607 12.7998 13.2607C9.5998 16.2607 7.7998 20.4607 7.7998 25.0607C7.7998 32.4607 17.9998 49.2607 20.1998 52.6607C20.3998 53.2607 21.1998 53.6607 21.7998 53.6607C22.1998 53.6607 22.5998 53.4607 22.9998 53.2607C23.7998 52.6607 24.1998 51.4607 23.5998 50.4607C17.7998 41.4607 11.7998 29.6607 11.7998 25.0607Z" fill="#2D373D"/>
<path d="M52.3996 24.6606H39.1996C37.3996 24.6606 35.7996 26.0606 35.7996 28.0606V36.2606H31.5996C29.9996 36.2606 28.5996 37.6606 28.5996 39.2606V52.4606H27.5996C26.3996 52.4606 25.5996 53.2606 25.5996 54.4606C25.5996 55.6606 26.3996 56.4606 27.5996 56.4606H30.3996C30.3996 56.4606 30.3996 56.4606 30.5996 56.4606H53.9996C55.1996 56.4606 55.9996 55.6606 55.7996 54.6606V28.0606C55.7996 26.2606 54.3996 24.6606 52.3996 24.6606ZM32.5996 40.2606H41.7996V52.4606H32.5996V40.2606ZM52.1996 52.4606H45.9996V39.2606C45.9996 37.6606 44.5996 36.2606 42.9996 36.2606H39.7996V28.4606H52.1996V52.4606Z" fill="#2D373D"/>
</svg>
