<svg width="16" height="17" viewBox="0 0 16 17" fill="none" xmlns="http://www.w3.org/2000/svg">
<path d="M9.14978 10.3617H8.74978C8.59978 10.3617 8.44978 10.2617 8.44978 10.0617V8.01169C8.44978 7.51169 8.04978 7.11169 7.54978 7.11169H7.14978C6.84978 7.11169 6.64978 7.31169 6.64978 7.61169C6.64978 7.91169 6.84978 8.11169 7.14978 8.11169H7.49978V10.1117C7.49978 10.8117 8.04978 11.4117 8.79978 11.4117H9.19978C9.49978 11.4117 9.64978 11.1617 9.64978 10.8617C9.64978 10.5617 9.44978 10.3617 9.14978 10.3617Z" fill="#2D373D"/>
<path d="M7.79985 6.46171C8.14985 6.46171 8.49985 6.16171 8.49985 5.76171C8.49985 5.36171 8.19985 5.06171 7.79985 5.06171C7.39985 5.06171 7.09985 5.36171 7.09985 5.76171C7.09985 6.16171 7.39985 6.46171 7.79985 6.46171Z" fill="#2D373D"/>
<path d="M7.9998 1.76172C4.2998 1.76172 1.2998 4.81172 1.2998 8.46172C1.2998 12.1117 4.2998 15.1117 7.9998 15.1117C11.6498 15.1117 14.6998 12.1617 14.6998 8.46172C14.6998 4.76172 11.6998 1.76172 7.9998 1.76172ZM7.9998 14.1617C4.8498 14.1617 2.2998 11.6117 2.2998 8.46172C2.2998 5.31172 4.8498 2.76172 7.9998 2.76172C11.0998 2.76172 13.6998 5.31172 13.6998 8.46172C13.6998 11.6117 11.1498 14.1617 7.9998 14.1617Z" fill="#2D373D"/>
</svg>
