<svg width="32" height="33" viewBox="0 0 32 33" fill="none" xmlns="http://www.w3.org/2000/svg">
<path d="M15.5999 10.4234V8.62344C15.4999 7.62344 14.6999 6.82344 13.6999 6.82344H12.2999V4.52344C12.2999 3.92344 11.8999 3.52344 11.2999 3.52344C10.6999 3.52344 10.2999 3.92344 10.2999 4.52344V6.82344H8.4999C7.4999 6.72344 6.5999 7.52344 6.5999 8.62344V10.1234C6.5999 10.3234 6.5999 10.6234 6.6999 10.8234L3.8999 25.6234C3.8999 25.8234 3.8999 26.1234 3.9999 26.4234C4.1999 26.6234 4.3999 26.8234 4.6999 26.8234L5.3999 26.9234L4.9999 29.1234C4.8999 29.7234 5.2999 30.2234 5.7999 30.3234C5.8999 30.3234 5.8999 30.3234 5.9999 30.3234C6.4999 30.3234 6.8999 29.9234 6.9999 29.5234L7.2999 27.2234L7.9999 27.3234C8.0999 27.3234 8.0999 27.3234 8.1999 27.3234C8.5999 27.3234 8.9999 27.0234 9.0999 26.5234L11.1999 15.9234L13.1999 26.5234C13.2999 27.0234 13.6999 27.3234 14.1999 27.3234C14.2999 27.3234 14.2999 27.3234 14.2999 27.3234L15.0999 27.2234L15.4999 29.5234C15.5999 30.0234 15.9999 30.3234 16.4999 30.3234C16.5999 30.3234 16.5999 30.3234 16.6999 30.3234C17.1999 30.2234 17.5999 29.6234 17.4999 29.1234L17.1999 26.9234L17.5999 26.8234C17.8999 26.8234 18.0999 26.6234 18.2999 26.4234C18.4999 26.1234 18.4999 25.9234 18.4999 25.6234L15.6999 10.7234C15.6999 10.6234 15.6999 10.5234 15.5999 10.4234ZM8.5999 8.82344H13.6999V10.3234C13.6999 10.9234 13.2999 11.6234 12.7999 12.0234C12.1999 12.5234 11.4999 12.7234 10.6999 12.5234C9.6999 12.4234 8.8999 11.7234 8.6999 10.7234C8.6999 10.6234 8.6999 10.5234 8.5999 10.4234C8.5999 10.3234 8.5999 10.2234 8.5999 10.0234V8.82344ZM7.3999 25.2234L7.0999 25.1234C6.9999 25.0234 6.8999 25.0234 6.6999 25.0234C6.4999 25.0234 6.3999 25.0234 6.1999 25.0234H6.0999L8.1999 13.6234C8.5999 13.9234 8.9999 14.1234 9.3999 14.3234L7.3999 25.2234ZM16.1999 25.0234C16.0999 25.0234 15.8999 25.0234 15.7999 25.0234C15.6999 25.0234 15.5999 25.1234 15.4999 25.1234L14.9999 25.2234L12.8999 14.2234C13.2999 14.0234 13.5999 13.8234 13.9999 13.6234C14.0999 13.6234 14.0999 13.5234 14.1999 13.4234L16.2999 25.0234H16.1999Z" fill="#2D373D"/>
<path d="M25.3997 3.52344H20.3997C18.8997 3.52344 17.6997 4.62344 17.6997 6.12344V12.0234C17.6997 12.6234 18.0997 13.0234 18.6997 13.0234C19.2997 13.0234 19.6997 12.6234 19.6997 12.0234V6.22344C19.6997 5.82344 19.9997 5.52344 20.3997 5.52344H25.3997C25.7997 5.52344 26.0997 5.72344 26.0997 6.12344V8.52344H23.6997C23.0997 8.52344 22.6997 8.92344 22.6997 9.52344C22.6997 10.1234 23.0997 10.5234 23.6997 10.5234H26.0997V13.4234H23.6997C23.0997 13.4234 22.6997 13.8234 22.6997 14.4234C22.6997 15.0234 23.0997 15.4234 23.6997 15.4234H26.0997V18.4234H23.6997C23.0997 18.4234 22.6997 18.8234 22.6997 19.4234C22.6997 20.0234 23.0997 20.4234 23.6997 20.4234H26.0997V23.3234H23.6997C23.0997 23.3234 22.6997 23.7234 22.6997 24.3234C22.6997 24.9234 23.0997 25.3234 23.6997 25.3234H26.0997V27.6234C26.0997 28.0234 25.7997 28.3234 25.3997 28.3234H20.3997C19.7997 28.3234 19.3997 28.7234 19.3997 29.3234C19.3997 29.9234 19.7997 30.3234 20.3997 30.3234H25.3997C26.7997 30.3234 27.9997 29.1234 28.0997 27.6234V6.12344C28.0997 4.72344 26.8997 3.52344 25.3997 3.52344Z" fill="#2D373D"/>
</svg>
