<svg width="64" height="64" viewBox="0 0 64 64" fill="none" xmlns="http://www.w3.org/2000/svg">
<path d="M58.5199 25.3C58.2515 23.9292 57.639 22.6491 56.7399 21.58C53.6893 18.0635 49.8896 15.2752 45.6199 13.42C41.3712 11.5766 36.7694 10.689 32.1399 10.82C27.4831 10.6805 22.8535 11.5769 18.5854 13.4447C14.3173 15.3124 10.5173 18.1047 7.45992 21.62C6.60232 22.6887 6.01317 23.9473 5.74176 25.2905C5.47036 26.6336 5.52459 28.0222 5.89992 29.34L10.3399 44.88C10.5599 45.6642 10.9645 46.3843 11.5199 46.98C12.0252 47.5357 12.6436 47.9767 13.3336 48.2733C14.0235 48.57 14.769 48.7155 15.5199 48.7H15.9799C16.7502 48.5962 17.4879 48.323 18.1399 47.9C19.3461 47.193 20.6107 46.5908 21.9199 46.1V51.36C21.9199 51.8905 22.1306 52.3992 22.5057 52.7742C22.8808 53.1493 23.3895 53.36 23.9199 53.36C24.4503 53.36 24.9591 53.1493 25.3341 52.7742C25.7092 52.3992 25.9199 51.8905 25.9199 51.36V44.8C27.9624 44.3574 30.0508 44.1627 32.1399 44.22C34.2026 44.161 36.2647 44.3558 38.2799 44.8V51.28C38.2799 51.8105 38.4906 52.3192 38.8657 52.6942C39.2408 53.0693 39.7495 53.28 40.2799 53.28C40.8103 53.28 41.3191 53.0693 41.6941 52.6942C42.0692 52.3192 42.2799 51.8105 42.2799 51.28V46.1C43.6147 46.5908 44.906 47.1929 46.1399 47.9C46.828 48.3356 47.6092 48.6029 48.4199 48.68C49.2353 48.7486 50.0557 48.6324 50.8199 48.34C51.5835 48.0489 52.2684 47.5831 52.8199 46.98C53.3753 46.3843 53.7799 45.6642 53.9999 44.88L58.4599 29.34C58.7997 28.0171 58.8203 26.6324 58.5199 25.3V25.3ZM54.5199 28.24L50.1399 43.78C50.0787 43.9627 49.9837 44.1323 49.8599 44.28C49.7268 44.4224 49.5625 44.5319 49.3799 44.6C49.1828 44.6483 48.977 44.6483 48.7799 44.6C48.5614 44.633 48.338 44.5981 48.1399 44.5C46.2919 43.3712 44.3271 42.4458 42.2799 41.74V31.6L43.7799 33.1C43.9664 33.2852 44.1875 33.4318 44.4307 33.5315C44.6738 33.6312 44.9342 33.6821 45.197 33.6811C45.4598 33.6802 45.7198 33.6275 45.9622 33.5261C46.2047 33.4247 46.4248 33.2765 46.6099 33.09C46.7951 32.9035 46.9417 32.6824 47.0414 32.4393C47.1411 32.1961 47.192 31.9357 47.191 31.673C47.1901 31.4102 47.1374 31.1501 47.036 30.9077C46.9346 30.6653 46.7864 30.4452 46.5999 30.26L41.6799 25.36C41.5015 25.1822 41.2912 25.0397 41.0599 24.94C40.816 24.8383 40.5542 24.7859 40.2899 24.7859C40.0256 24.7859 39.7639 24.8383 39.5199 24.94C39.29 25.0421 39.08 25.1843 38.8999 25.36V25.36L33.9799 30.26C33.7925 30.4459 33.6437 30.6672 33.5421 30.9109C33.4406 31.1546 33.3883 31.416 33.3883 31.68C33.3883 31.944 33.4406 32.2055 33.5421 32.4492C33.6437 32.6929 33.7925 32.9141 33.9799 33.1C34.3546 33.4725 34.8615 33.6816 35.3899 33.6816C35.9183 33.6816 36.4252 33.4725 36.7999 33.1L38.3199 31.6V40.68C36.2839 40.294 34.2107 40.1397 32.1399 40.22C30.0427 40.1427 27.9433 40.297 25.8799 40.68V31.6L27.3999 33.1C27.7724 33.4695 28.2752 33.6778 28.7999 33.68C29.0631 33.6815 29.3241 33.6311 29.5677 33.5316C29.8114 33.432 30.033 33.2854 30.2199 33.1C30.4074 32.9141 30.5562 32.6929 30.6577 32.4492C30.7592 32.2055 30.8115 31.944 30.8115 31.68C30.8115 31.416 30.7592 31.1546 30.6577 30.9109C30.5562 30.6672 30.4074 30.4459 30.2199 30.26L25.3399 25.36C25.161 25.1975 24.9588 25.0626 24.7399 24.96C24.496 24.8583 24.2342 24.8059 23.9699 24.8059C23.7056 24.8059 23.4439 24.8583 23.1999 24.96C22.9811 25.0626 22.7788 25.1975 22.5999 25.36L17.5999 30.26C17.4125 30.4459 17.2637 30.6672 17.1621 30.9109C17.0606 31.1546 17.0083 31.416 17.0083 31.68C17.0083 31.944 17.0606 32.2055 17.1621 32.4492C17.2637 32.6929 17.4125 32.9141 17.5999 33.1C17.9746 33.4725 18.4815 33.6816 19.0099 33.6816C19.5383 33.6816 20.0452 33.4725 20.4199 33.1L21.9199 31.6V41.74C19.8989 42.4478 17.9609 43.3732 16.1399 44.5C15.973 44.6097 15.7795 44.672 15.5799 44.68C15.3896 44.7283 15.1902 44.7283 14.9999 44.68C14.8173 44.6119 14.653 44.5024 14.5199 44.36C14.3508 44.1981 14.2208 43.9997 14.1399 43.78L9.71991 28.24C9.54044 27.538 9.54044 26.8021 9.71991 26.1C9.85734 25.4092 10.1516 24.7592 10.5799 24.2C13.1595 21.2414 16.3443 18.8712 19.9189 17.2495C23.4935 15.6278 27.3747 14.7925 31.2999 14.8H32.1399C36.1952 14.6558 40.2319 15.4155 43.9574 17.024C47.6829 18.6325 51.0039 21.0495 53.6799 24.1C54.146 24.6811 54.462 25.368 54.5999 26.1C54.7533 26.8088 54.7258 27.5447 54.5199 28.24Z" fill="#2D373D"/>
</svg>
