<svg width="24" height="25" viewBox="0 0 24 25" fill="none" xmlns="http://www.w3.org/2000/svg">
<path fill-rule="evenodd" clip-rule="evenodd" d="M12.5386 4.16345C12.9884 3.71364 13.5985 3.46094 14.2346 3.46094C14.8708 3.46094 15.4808 3.71364 15.9307 4.16345C16.3805 4.61326 16.6332 5.22334 16.6332 5.85947V8.35058C16.6332 8.49504 16.6665 8.54056 16.6737 8.55038C16.6866 8.56803 16.7236 8.60748 16.8339 8.6554C16.9491 8.70538 17.1002 8.74621 17.3045 8.78907C17.3579 8.80029 17.4207 8.81264 17.4883 8.82593C17.6395 8.85569 17.8146 8.89014 17.9623 8.92702C18.872 9.15345 19.6747 9.68925 20.2328 10.4426C20.7909 11.1961 21.0695 12.1202 21.0209 13.0566L21.0206 13.0618L20.8008 16.7985C20.8002 16.8088 20.7994 16.8191 20.7984 16.8294C20.6704 18.1032 20.0722 19.2835 19.1206 20.1399C18.1694 20.996 16.9335 21.4669 15.6539 21.4609H12.0586C11.3074 21.4609 10.9626 21.3611 9.27967 20.8742C8.91621 20.769 8.49034 20.6458 7.98447 20.5017L7.97987 20.5003C7.9193 20.4826 7.85834 20.4665 7.79706 20.4518V20.6962C7.79706 21.1104 7.46127 21.4462 7.04706 21.4462H3.75C3.33579 21.4462 3 21.1104 3 20.6962V10.8051C3 10.3908 3.33579 10.0551 3.75 10.0551H7.04706C7.46127 10.0551 7.79706 10.3908 7.79706 10.8051V11.704C8.77241 11.6 9.48402 11.2808 10.0127 10.8715C10.67 10.3625 11.1004 9.67027 11.3795 8.9359C11.9073 7.54681 11.8482 6.14968 11.8374 5.8965C11.8366 5.87767 11.8361 5.86517 11.8361 5.85947C11.8361 5.22334 12.0888 4.61326 12.5386 4.16345ZM6.29706 19.5969V11.5551H4.5V19.9462H6.29706V19.5969C6.29706 19.5972 6.29706 19.5967 6.29706 19.5969Z" fill="#2D373D"/>
</svg>
