<svg width="16" height="16" viewBox="0 0 16 16" fill="none" xmlns="http://www.w3.org/2000/svg">
<path d="M11.8 4.60001H11.75C11.75 4.60001 11.75 4.60001 11.7 4.60001H10.55V4.45001C10.65 3.70001 10.05 3.00001 9.25003 2.95001H2.60003C1.80003 3.00001 1.25003 3.70001 1.30003 4.40001V9.20001C1.30003 9.50001 1.50003 9.70001 1.80003 9.70001C2.10003 9.70001 2.30003 9.50001 2.30003 9.20001V4.35001C2.30003 4.15001 2.45003 3.95001 2.60003 3.95001H9.20003C9.40003 3.95001 9.55003 4.15001 9.55003 4.40001V4.85001C9.50003 4.90001 9.50003 5.00001 9.50003 5.10001V8.35001C9.50003 8.65001 9.70003 8.85001 10 8.85001C10.25 8.85001 10.4 8.70001 10.45 8.50001C10.5 8.40001 10.55 8.35001 10.55 8.25001V5.55001H11.25V7.55001C11.2 8.30001 11.8 8.90001 12.55 8.90001H13.65V10.85C13.65 11.05 13.55 11.2 13.35 11.2H12.95C12.65 11.2 12.45 11.4 12.45 11.7C12.45 12 12.65 12.2 12.95 12.2H13.35C14.1 12.2 14.7 11.6 14.65 10.9V7.60001C14.65 6.00001 13.4 4.70001 11.8 4.60001ZM12.6 7.90001C12.4 7.90001 12.25 7.75001 12.25 7.55001V5.65001C13.05 5.90001 13.65 6.65001 13.65 7.55001V7.90001H12.6Z" fill="#2D373D"/>
<path d="M10.45 9.5C9.50001 9.5 8.70001 10.3 8.70001 11.25C8.70001 12.2 9.50001 13 10.45 13C11.45 13 12.2 12.25 12.2 11.25C12.2 10.3 11.4 9.5 10.45 9.5ZM10.45 12.05C10.05 12.05 9.70001 11.7 9.70001 11.3C9.70001 10.9 10.05 10.55 10.45 10.55C10.9 10.55 11.2 10.85 11.2 11.3C11.2 11.7 10.85 12.05 10.45 12.05Z" fill="#2D373D"/>
<path d="M3.85004 9.5C2.90004 9.5 2.10004 10.3 2.10004 11.25C2.10004 12.2 2.90004 13 3.85004 13C4.80004 13 5.60004 12.25 5.60004 11.25C5.60004 10.3 4.80004 9.5 3.85004 9.5ZM3.85004 12.05C3.45004 12.05 3.10004 11.7 3.10004 11.3C3.10004 10.9 3.45004 10.55 3.85004 10.55C4.25004 10.55 4.60004 10.85 4.60004 11.3C4.60004 11.7 4.25004 12.05 3.85004 12.05Z" fill="#2D373D"/>
<path d="M8.00004 11.2H6.35004C6.05004 11.2 5.85004 11.4 5.85004 11.7C5.85004 12 6.05004 12.2 6.35004 12.2H8.00004C8.25004 12.2 8.50004 11.95 8.50004 11.7C8.50004 11.4 8.30004 11.2 8.00004 11.2Z" fill="#2D373D"/>
</svg>
