<svg width="64" height="65" viewBox="0 0 64 65" fill="none" xmlns="http://www.w3.org/2000/svg">
<path d="M17.1992 35.9229C15.9992 35.9229 15.1992 36.7229 15.1992 37.9229V42.7229C10.7992 34.9229 11.9992 25.1229 18.5992 18.9229C24.1992 13.5229 32.3992 12.1229 39.3992 14.9229C40.3992 15.5229 41.5992 14.9229 41.9992 13.9229C42.5992 12.9229 41.9992 11.7229 40.9992 11.3229C32.3992 7.72286 22.5992 9.52286 15.7992 16.1229C7.39922 23.9229 6.19922 36.5229 12.3992 45.9229H7.19922C5.99922 45.9229 5.19922 46.7229 5.19922 47.9229C5.19922 49.1229 5.99922 49.9229 7.19922 49.9229H17.1992C18.1992 49.9229 19.1992 48.9229 19.1992 47.9229V37.9229C19.1992 36.7229 18.3992 35.9229 17.1992 35.9229Z" fill="#2D373D"/>
<path d="M56.7991 16.123H46.7991C45.5992 16.123 44.7991 16.923 44.7991 18.123V28.123C44.7991 29.323 45.5992 30.123 46.7991 30.123C47.9991 30.123 48.7991 29.123 48.7991 28.123V23.323C50.5992 26.523 51.7991 29.923 51.5991 33.523C51.3991 38.723 49.3992 43.523 45.5992 47.123C39.9992 52.523 31.7992 54.123 24.5992 51.123C23.5992 50.523 22.3992 51.123 21.9992 52.123C21.3992 53.123 21.9992 54.323 22.9992 54.723C25.7992 55.923 28.9992 56.523 31.9992 56.523C37.9992 56.523 43.7991 54.323 48.1992 49.923C52.7991 45.723 55.1992 39.723 55.3992 33.523C55.3992 28.523 53.9991 24.123 51.3992 20.123H56.7991C57.9991 20.123 58.7991 19.323 58.7991 18.123C58.7991 16.923 57.9991 16.123 56.7991 16.123Z" fill="#2D373D"/>
</svg>
