<svg width="16" height="17" viewBox="0 0 16 17" fill="none" xmlns="http://www.w3.org/2000/svg">
<path fill-rule="evenodd" clip-rule="evenodd" d="M13.1667 11.7845C13.1667 12.5135 12.5827 13.1178 11.8462 13.1178H2.82051C2.08396 13.1178 1.5 12.5135 1.5 11.7845L1.5 6.78446C1.5 6.05543 2.08395 5.45113 2.82051 5.45113L11.8462 5.45113C12.5827 5.45113 13.1667 6.05544 13.1667 6.78446V11.7845ZM11.8462 12.1178C12.0159 12.1178 12.1667 11.9759 12.1667 11.7845V6.78446C12.1667 6.59303 12.0159 6.45112 11.8462 6.45112L2.82051 6.45113C2.65079 6.45113 2.5 6.59304 2.5 6.78446L2.5 11.7845C2.5 11.9759 2.65079 12.1178 2.82051 12.1178H11.8462Z" fill="#2D373D"/>
<path fill-rule="evenodd" clip-rule="evenodd" d="M14.3922 10.6276C14.6683 10.6276 14.8922 10.4037 14.8922 10.1276V5.22564C14.8922 4.89029 14.759 4.56855 14.5218 4.33134C14.2845 4.09413 13.9628 3.96094 13.6275 3.96094L4.33333 3.96094C4.05719 3.96094 3.83333 4.1848 3.83333 4.46094C3.83333 4.73708 4.05719 4.96094 4.33333 4.96094L13.6275 4.96094C13.6977 4.96094 13.765 4.98884 13.8146 5.03845C13.8643 5.08805 13.8922 5.1554 13.8922 5.22564V10.1276C13.8922 10.4037 14.116 10.6276 14.3922 10.6276Z" fill="#2D373D"/>
<path d="M6.58236 7.33387C6.67665 7.20893 6.83024 7.1276 7.00369 7.1276C7.17504 7.1276 7.327 7.20697 7.42157 7.32934C7.54353 7.34796 7.66883 7.37435 7.79677 7.4086C8.06352 7.48002 8.22187 7.75415 8.15046 8.0209C8.07904 8.28765 7.80491 8.446 7.53816 8.37458C6.76556 8.16775 6.53745 8.41367 6.51328 8.45271C6.49675 8.47941 6.49811 8.49854 6.5041 8.51429C6.50989 8.52949 6.53536 8.57815 6.63456 8.61609L6.6534 8.6233L7.36349 8.96278L7.35107 8.98878L7.79044 9.19883L7.80692 9.20831C8.4081 9.5541 8.76096 10.332 8.27895 10.9607C8.10101 11.1928 7.84889 11.3452 7.54087 11.4223C7.4831 11.6362 7.27991 11.7943 7.03812 11.7943C6.80451 11.7943 6.60694 11.6468 6.54172 11.4438C6.32144 11.4102 6.08921 11.3547 5.84817 11.2778C5.58506 11.194 5.43975 10.9127 5.5236 10.6496C5.60746 10.3865 5.88872 10.2412 6.15182 10.3251C7.1461 10.6419 7.45297 10.3945 7.48535 10.3523C7.49794 10.3358 7.50658 10.3153 7.49371 10.2737C7.47974 10.2284 7.43439 10.1518 7.32234 10.0834L6.65007 9.76205L6.66249 9.73605L6.25652 9.54196C5.93325 9.41246 5.68563 9.17511 5.56951 8.86999C5.45111 8.5589 5.48492 8.21397 5.66308 7.92624C5.8579 7.61163 6.17937 7.41238 6.58236 7.33387Z" fill="#2D373D"/>
</svg>
