<svg width="64" height="65" viewBox="0 0 64 65" fill="none" xmlns="http://www.w3.org/2000/svg">
<path fill-rule="evenodd" clip-rule="evenodd" d="M11.9171 12.3756C12.1014 12.1914 12.3513 12.0879 12.6119 12.0879H31.4891V22.0177C31.4891 23.3391 32.014 24.6065 32.9484 25.5408C33.8828 26.4752 35.1501 27.0002 36.4716 27.0002H46.4013V33.9475C46.4013 35.0521 47.2968 35.9475 48.4013 35.9475C49.5059 35.9475 50.4013 35.0521 50.4013 33.9475V25.0149L50.4014 25.0002L50.4013 24.9854V24.7433C50.401 23.4227 49.8761 22.1559 48.9427 21.2219L37.2669 9.54609C36.3329 8.61265 35.066 8.08817 33.7455 8.08789H12.6119C11.2904 8.08789 10.0231 8.61283 9.08872 9.54722C8.15433 10.4816 7.62939 11.7489 7.62939 13.0703V51.8423C7.62939 53.1637 8.15433 54.431 9.08872 55.3654C10.0231 56.2998 11.2904 56.8247 12.6119 56.8247H18.5768C19.6813 56.8247 20.5768 55.9293 20.5768 54.8247C20.5768 53.7202 19.6813 52.8247 18.5768 52.8247H12.6119C12.3513 52.8247 12.1014 52.7212 11.9171 52.537C11.7329 52.3527 11.6294 52.1028 11.6294 51.8423V13.0703C11.6294 12.8098 11.7329 12.5599 11.9171 12.3756ZM35.4891 13.4251V22.0177C35.4891 22.2783 35.5926 22.5282 35.7769 22.7124C35.9611 22.8967 36.211 23.0002 36.4716 23.0002H45.0641L35.4891 13.4251Z" fill="#2D373D"/>
<path d="M23.7989 38.0555C24.8245 37.6453 25.9884 38.1441 26.3987 39.1697L27.5242 41.9835L28.6497 39.1697C29.0599 38.1441 30.2238 37.6453 31.2494 38.0555C32.275 38.4658 32.7738 39.6297 32.3636 40.6553L29.6782 47.3686L32.3636 54.082C32.7738 55.1075 32.275 56.2715 31.2494 56.6817C30.2238 57.0919 29.0599 56.5931 28.6497 55.5675L27.5242 52.7538L26.3987 55.5675C25.9884 56.5931 24.8245 57.0919 23.7989 56.6817C22.7734 56.2715 22.2745 55.1075 22.6848 54.082L25.3701 47.3686L22.6848 40.6553C22.2745 39.6297 22.7734 38.4658 23.7989 38.0555Z" fill="#2D373D"/>
<path d="M36.4715 37.9124C37.5761 37.9124 38.4715 38.8079 38.4715 39.9124V51.8423C38.4715 52.1028 38.575 52.3527 38.7593 52.537C38.9435 52.7212 39.1934 52.8247 39.454 52.8247H42.4364C43.541 52.8247 44.4364 53.7201 44.4364 54.8247C44.4364 55.9293 43.541 56.8247 42.4364 56.8247H39.454C38.1325 56.8247 36.8652 56.2998 35.9308 55.3654C34.9965 54.431 34.4715 53.1637 34.4715 51.8423V39.9124C34.4715 38.8079 35.3669 37.9124 36.4715 37.9124Z" fill="#2D373D"/>
<path d="M51.384 37.9124C50.0626 37.9124 48.7952 38.4374 47.8609 39.3718C46.9265 40.3062 46.4015 41.5735 46.4015 42.8949C46.4015 46.1423 48.6389 47.814 50.0428 48.8629L50.184 48.9686C51.7772 50.1635 52.3664 50.7273 52.3664 51.8423C52.3664 52.1028 52.2629 52.3527 52.0787 52.537C51.8944 52.7212 51.6446 52.8247 51.384 52.8247H48.4015C47.297 52.8247 46.4015 53.7201 46.4015 54.8247C46.4015 55.9293 47.297 56.8247 48.4015 56.8247H51.384C52.7054 56.8247 53.9727 56.2998 54.9071 55.3654C55.8415 54.431 56.3664 53.1637 56.3664 51.8423C56.3664 48.5948 54.1291 46.9232 52.7252 45.8742L52.584 45.7686C50.9907 44.5736 50.4015 44.0099 50.4015 42.8949C50.4015 42.6343 50.505 42.3844 50.6893 42.2002C50.8735 42.0159 51.1234 41.9124 51.384 41.9124H54.3664C55.471 41.9124 56.3664 41.017 56.3664 39.9124C56.3664 38.8079 55.471 37.9124 54.3664 37.9124H51.384Z" fill="#2D373D"/>
</svg>
