<svg width="24" height="25" viewBox="0 0 24 25" fill="none" xmlns="http://www.w3.org/2000/svg">
<path fill-rule="evenodd" clip-rule="evenodd" d="M15.6944 12.17C14.5982 12.17 13.7095 13.0587 13.7095 14.155C13.7095 15.2512 14.5982 16.1399 15.6944 16.1399C16.7907 16.1399 17.6794 15.2512 17.6794 14.155C17.6794 13.0587 16.7907 12.17 15.6944 12.17ZM15.2132 14.155C15.2132 13.8892 15.4287 13.6738 15.6944 13.6738C15.9602 13.6738 16.1756 13.8892 16.1756 14.155C16.1756 14.4207 15.9602 14.6362 15.6944 14.6362C15.4287 14.6362 15.2132 14.4207 15.2132 14.155Z" fill="#2D373D"/>
<path fill-rule="evenodd" clip-rule="evenodd" d="M11.3786 14.6362C10.2824 14.6362 9.39368 15.5249 9.39368 16.6211C9.39368 17.7174 10.2824 18.6061 11.3786 18.6061C12.4749 18.6061 13.3636 17.7174 13.3636 16.6211C13.3636 15.5249 12.4749 14.6362 11.3786 14.6362ZM10.8974 16.6211C10.8974 16.3554 11.1129 16.1399 11.3786 16.1399C11.6444 16.1399 11.8599 16.3554 11.8599 16.6211C11.8599 16.8869 11.6444 17.1023 11.3786 17.1023C11.1129 17.1023 10.8974 16.8869 10.8974 16.6211Z" fill="#2D373D"/>
<path fill-rule="evenodd" clip-rule="evenodd" d="M18.0252 16.6211C18.0252 15.5249 18.9139 14.6362 20.0102 14.6362C21.1064 14.6362 21.9951 15.5249 21.9951 16.6211C21.9951 17.7174 21.1064 18.6061 20.0102 18.6061C18.9139 18.6061 18.0252 17.7174 18.0252 16.6211ZM20.0102 16.1399C19.7444 16.1399 19.529 16.3554 19.529 16.6211C19.529 16.8869 19.7444 17.1023 20.0102 17.1023C20.2759 17.1023 20.4914 16.8869 20.4914 16.6211C20.4914 16.3554 20.2759 16.1399 20.0102 16.1399Z" fill="#2D373D"/>
<path fill-rule="evenodd" clip-rule="evenodd" d="M15.6944 16.8968C15.482 16.8968 15.2724 16.9463 15.0824 17.0413C14.8924 17.1363 14.7271 17.2742 14.5997 17.4442L12.1335 20.7324C11.981 20.9357 11.8882 21.1775 11.8653 21.4306C11.8425 21.6837 11.8906 21.9381 12.0043 22.1654C12.1179 22.3927 12.2926 22.5839 12.5088 22.7175C12.725 22.8511 12.9741 22.9219 13.2282 22.9219H18.1606C18.4147 22.9219 18.6638 22.8511 18.88 22.7175C19.0962 22.5839 19.2709 22.3927 19.3845 22.1654C19.4982 21.9381 19.5463 21.6837 19.5235 21.4306C19.5006 21.1775 19.4078 20.9357 19.2553 20.7324L16.7891 17.4442C16.6617 17.2742 16.4964 17.1363 16.3064 17.0413C16.1164 16.9463 15.9068 16.8968 15.6944 16.8968ZM13.4989 21.4181L15.6944 18.4908L17.8899 21.4181H13.4989Z" fill="#2D373D"/>
<path d="M10.4979 3.08664C10.7725 2.86695 11.1627 2.86695 11.4373 3.08664L17.3934 7.85149C17.3957 7.85332 17.398 7.85516 17.4003 7.85702L19.6578 9.66308C19.9821 9.92248 20.0347 10.3956 19.7753 10.7199C19.5159 11.0441 19.0427 11.0967 18.7184 10.8373L17.6794 10.006V10.6612C17.6794 11.0765 17.3427 11.4131 16.9275 11.4131C16.5122 11.4131 16.1756 11.0765 16.1756 10.6612V8.80304L10.9676 4.63663L5.75954 8.80306V15.3881C5.75954 15.5157 5.81023 15.6381 5.90048 15.7283C5.99072 15.8186 6.11312 15.8693 6.24074 15.8693H7.67934C8.09459 15.8693 8.43122 16.2059 8.43122 16.6211C8.43122 17.0364 8.09459 17.373 7.67934 17.373H6.24074C5.71429 17.373 5.20941 17.1639 4.83716 16.7916C4.4649 16.4194 4.25578 15.9145 4.25578 15.3881V10.0061L3.21672 10.8373C2.89246 11.0967 2.41931 11.0441 2.15991 10.7199C1.9005 10.3956 1.95307 9.92248 2.27733 9.66308L10.4979 3.08664Z" fill="#2D373D"/>
</svg>
