<svg width="64" height="65" viewBox="0 0 64 65" fill="none" xmlns="http://www.w3.org/2000/svg">
<path fill-rule="evenodd" clip-rule="evenodd" d="M51.0478 21.668C51.0478 26.2266 47.3524 29.922 42.7938 29.922C38.2353 29.922 34.5399 26.2266 34.5399 21.668C34.5399 17.1095 38.2353 13.4141 42.7938 13.4141C47.3524 13.4141 51.0478 17.1095 51.0478 21.668ZM47.0478 21.668C47.0478 24.0174 45.1432 25.922 42.7938 25.922C40.4444 25.922 38.5399 24.0174 38.5399 21.668C38.5399 19.3186 40.4444 17.4141 42.7938 17.4141C45.1432 17.4141 47.0478 19.3186 47.0478 21.668Z" fill="#2D373D"/>
<path d="M25.9522 39.952C21.4179 39.3339 16.9467 40.6464 14.2587 42.049C13.2794 42.5601 12.0713 42.1805 11.5603 41.2012C11.0493 40.222 11.4289 39.0139 12.4082 38.5028C15.6461 36.8132 20.9527 35.2334 26.4925 35.9887C30.1086 36.4816 33.7614 37.9652 36.9347 40.9432C38.4271 39.938 40.5455 38.9254 42.9174 38.583C45.8781 38.1556 49.2679 38.7838 52.1095 41.7429C52.8745 42.5397 52.8489 43.8057 52.0522 44.5708C51.2554 45.3359 49.9894 45.3102 49.2243 44.5135C47.4282 42.643 45.4074 42.265 43.4889 42.542C42.0265 42.7531 40.6492 43.3504 39.605 43.9822C40.3814 45.0472 41.1107 46.2345 41.7825 47.5543C42.2835 48.5387 41.8917 49.7428 40.9074 50.2439C39.923 50.745 38.7188 50.3532 38.2177 49.3688C34.9674 42.9834 30.3566 40.5524 25.9522 39.952Z" fill="#2D373D"/>
<path fill-rule="evenodd" clip-rule="evenodd" d="M5.3335 9.60445C5.3335 7.5005 7.03908 5.79492 9.14302 5.79492H54.8573C56.9612 5.79492 58.6668 7.5005 58.6668 9.60445V55.3187C58.6668 57.4227 56.9612 59.1283 54.8573 59.1283H9.14302C7.03908 59.1283 5.3335 57.4227 5.3335 55.3187V9.60445ZM9.3335 55.1283V9.79492H54.6668V55.1283H9.3335Z" fill="#2D373D"/>
</svg>
