<svg width="24" height="24" viewBox="0 0 24 24" fill="none" xmlns="http://www.w3.org/2000/svg">
<path d="M18.7197 19.7808C19.0126 20.0737 19.4874 20.0737 19.7803 19.7808C20.0732 19.4879 20.0732 19.013 19.7803 18.7202L13.0607 12.0005L19.7803 5.28082C20.0732 4.98793 20.0732 4.51305 19.7803 4.22016C19.4874 3.92727 19.0126 3.92727 18.7197 4.22016L12 10.9398L5.28033 4.22016C4.98744 3.92726 4.51256 3.92726 4.21967 4.22016C3.92678 4.51305 3.92678 4.98793 4.21967 5.28082L10.9393 12.0005L4.21967 18.7202C3.92678 19.0131 3.92678 19.4879 4.21967 19.7808C4.51257 20.0737 4.98744 20.0737 5.28033 19.7808L12 13.0611L18.7197 19.7808Z" fill="#2D373D"/>
</svg>
