<svg width="24" height="25" viewBox="0 0 24 25" fill="none" xmlns="http://www.w3.org/2000/svg">
<path d="M20.6137 10.8917L19.2576 9.54918L20.4773 8.34164C20.7728 8.04914 20.7728 7.57664 20.4773 7.28414L16.9698 3.81164C16.6743 3.51914 16.197 3.51914 15.9016 3.81164L14.6819 5.01914L13.0455 3.39914C12.9016 3.25664 12.7122 3.18164 12.5076 3.18164H7.90916C5.84856 3.18164 4.17432 4.83914 4.17432 6.87914V20.5292C4.17432 21.7142 5.14401 22.6742 6.34098 22.6742H18.6667C19.8637 22.6742 20.8334 21.7142 20.8334 20.5292V11.4242C20.8334 11.2217 20.7501 11.0342 20.6137 10.8917ZM16.4319 5.40164L18.8637 7.80914L18.1819 8.48418L15.7501 6.07664L16.4319 5.40164ZM19.3182 20.5292C19.3182 20.8892 19.0228 21.1742 18.6667 21.1742H6.33341C5.96977 21.1742 5.68189 20.8817 5.68189 20.5292V6.87164C5.68189 5.65664 6.68189 4.67414 7.90158 4.67414H12.1819L19.3107 11.7317V20.5217L19.3182 20.5292Z" fill="#2D373D"/>
<path d="M12.9016 10.3442C12.7728 10.0892 12.5152 9.92418 12.2273 9.92418C11.9319 9.90168 11.6743 10.0817 11.5455 10.3292L9.19704 14.8667C8.40158 16.3967 8.94704 18.2942 10.4773 19.2017C11.0076 19.5167 11.5986 19.6742 12.1819 19.6742C12.7652 19.6742 13.4092 19.5017 13.9546 19.1642C15.3864 18.2717 15.9092 16.4567 15.1667 14.9492L12.9016 10.3442ZM13.1516 17.8967C12.5758 18.2567 11.8486 18.2642 11.2273 17.8967C10.4167 17.4167 10.1213 16.3892 10.5531 15.5492L12.2122 12.3467L13.8182 15.6017C14.2198 16.4192 13.9395 17.4017 13.1592 17.8892L13.1516 17.8967Z" fill="#2D373D"/>
<path d="M12.5001 7.67413C12.5001 7.26163 12.1592 6.92413 11.7425 6.92413H7.95461C7.53795 6.92413 7.19704 7.26163 7.19704 7.67413C7.19704 8.08663 7.53795 8.4241 7.95461 8.4241H11.7425C12.1592 8.4241 12.5001 8.08663 12.5001 7.67413Z" fill="#2D373D"/>
</svg>
