<svg width="16" height="17" viewBox="0 0 16 17" fill="none" xmlns="http://www.w3.org/2000/svg">
<path fill-rule="evenodd" clip-rule="evenodd" d="M5.34354 4.13263C5.34354 3.20938 4.5951 2.46094 3.67185 2.46094C2.7486 2.46094 2.00016 3.20938 2.00016 4.13263C2.00016 5.05588 2.7486 5.80432 3.67185 5.80432C4.02909 5.80432 4.36016 5.69204 4.63161 5.50143L4.84949 5.68054C5.0628 5.85589 5.37789 5.82512 5.55325 5.6118C5.7286 5.39849 5.69783 5.0834 5.48451 4.90805L5.24161 4.70837C5.30753 4.5287 5.34354 4.33466 5.34354 4.13263ZM3.67185 3.46094C4.04282 3.46094 4.34354 3.76166 4.34354 4.13263C4.34354 4.28444 4.29378 4.42319 4.20946 4.53542C4.08606 4.69966 3.89125 4.80432 3.67185 4.80432C3.30089 4.80432 3.00016 4.50359 3.00016 4.13263C3.00016 3.76166 3.30089 3.46094 3.67185 3.46094Z" fill="#2D373D"/>
<path fill-rule="evenodd" clip-rule="evenodd" d="M8.00208 4.96094C6.94941 4.96094 6.09605 5.8143 6.09605 6.86697C6.09605 7.54199 6.44695 8.13506 6.97629 8.4737C6.17795 8.85632 5.62665 9.67197 5.62665 10.6164C5.62665 10.8925 5.85051 11.1164 6.12665 11.1164H9.87606C10.1522 11.1164 10.3761 10.8925 10.3761 10.6164C10.3761 9.6723 9.82514 8.85689 9.02724 8.4741C9.55693 8.13552 9.90811 7.54225 9.90811 6.86697C9.90811 5.8143 9.05475 4.96094 8.00208 4.96094ZM7.09605 6.86697C7.09605 6.36658 7.50169 5.96094 8.00208 5.96094C8.50246 5.96094 8.90811 6.36658 8.90811 6.86697C8.90811 7.36735 8.50246 7.77299 8.00208 7.77299C7.50169 7.77299 7.09605 7.36735 7.09605 6.86697ZM8.00135 9.24168C8.58418 9.24168 9.0823 9.60438 9.2823 10.1164H6.72041C6.92041 9.60438 7.41852 9.24168 8.00135 9.24168Z" fill="#2D373D"/>
<path fill-rule="evenodd" clip-rule="evenodd" d="M5.34289 12.8226C5.34289 13.7458 4.59445 14.4943 3.6712 14.4943C2.74795 14.4943 1.99951 13.7458 1.99951 12.8226C1.99951 11.8993 2.74795 11.1509 3.6712 11.1509C4.02844 11.1509 4.35951 11.2632 4.63096 11.4538L4.84884 11.2747C5.06215 11.0993 5.37724 11.1301 5.55259 11.3434C5.72795 11.5567 5.69718 11.8718 5.48386 12.0472L5.24096 12.2468C5.30688 12.4265 5.34289 12.6205 5.34289 12.8226ZM3.6712 13.4943C4.04217 13.4943 4.34289 13.1935 4.34289 12.8226C4.34289 12.6708 4.29312 12.532 4.20881 12.4198C4.08541 12.2555 3.8906 12.1509 3.6712 12.1509C3.30024 12.1509 2.99951 12.4516 2.99951 12.8226C2.99951 13.1935 3.30024 13.4943 3.6712 13.4943Z" fill="#2D373D"/>
<path fill-rule="evenodd" clip-rule="evenodd" d="M12.3288 14.4942C11.4056 14.4942 10.6572 13.7458 10.6572 12.8226C10.6572 12.6205 10.6932 12.4265 10.7591 12.2468L10.5162 12.0471C10.3029 11.8718 10.2721 11.5567 10.4474 11.3434C10.6228 11.1301 10.9379 11.0993 11.1512 11.2746L11.3691 11.4538C11.6405 11.2631 11.9716 11.1509 12.3288 11.1509C13.2521 11.1509 14.0005 11.8993 14.0005 12.8226C14.0005 13.7458 13.2521 14.4942 12.3288 14.4942ZM11.6572 12.8226C11.6572 13.1935 11.9579 13.4942 12.3288 13.4942C12.6998 13.4942 13.0005 13.1935 13.0005 12.8226C13.0005 12.4516 12.6998 12.1509 12.3288 12.1509C12.1094 12.1509 11.9146 12.2555 11.7912 12.4198C11.7069 12.532 11.6572 12.6707 11.6572 12.8226Z" fill="#2D373D"/>
<path fill-rule="evenodd" clip-rule="evenodd" d="M12.3288 2.46094C11.4056 2.46094 10.6572 3.20938 10.6572 4.13263C10.6572 4.33466 10.6932 4.5287 10.7591 4.70837L10.5162 4.90805C10.3029 5.0834 10.2721 5.39849 10.4474 5.6118C10.6228 5.82512 10.9379 5.85589 11.1512 5.68054L11.3691 5.50143C11.6405 5.69204 11.9716 5.80432 12.3288 5.80432C13.2521 5.80432 14.0005 5.05588 14.0005 4.13263C14.0005 3.20938 13.2521 2.46094 12.3288 2.46094ZM11.6572 4.13263C11.6572 3.76166 11.9579 3.46094 12.3288 3.46094C12.6998 3.46094 13.0005 3.76166 13.0005 4.13263C13.0005 4.50359 12.6998 4.80432 12.3288 4.80432C12.1094 4.80432 11.9146 4.69966 11.7912 4.53542C11.7069 4.42319 11.6572 4.28444 11.6572 4.13263Z" fill="#2D373D"/>
</svg>
