<svg width="24" height="25" viewBox="0 0 24 25" fill="none" xmlns="http://www.w3.org/2000/svg">
<path d="M5.50091 6.36498C5.19227 6.08874 4.71812 6.115 4.44187 6.42365C2.89227 8.15501 1.99902 10.4363 1.99902 12.9238C1.99902 15.4114 2.89227 17.6927 4.44187 19.424C4.71812 19.7327 5.19227 19.7589 5.50091 19.4827C5.80956 19.2064 5.83582 18.7323 5.55958 18.4236C4.25895 16.9705 3.49902 15.0464 3.49902 12.9238C3.49902 10.8012 4.25895 8.8772 5.55958 7.42402C5.83582 7.11538 5.80956 6.64123 5.50091 6.36498Z" fill="#2D373D"/>
<path d="M19.5595 6.42365C19.2833 6.115 18.8091 6.08874 18.5005 6.36498C18.1918 6.64123 18.1656 7.11538 18.4418 7.42402C19.7425 8.8772 20.5024 10.8012 20.5024 12.9238C20.5024 15.0464 19.7425 16.9705 18.4418 18.4236C18.1656 18.7323 18.1918 19.2064 18.5005 19.4827C18.8091 19.7589 19.2833 19.7327 19.5595 19.424C21.1091 17.6927 22.0024 15.4114 22.0024 12.9238C22.0024 10.4363 21.1091 8.15501 19.5595 6.42365Z" fill="#2D373D"/>
<path fill-rule="evenodd" clip-rule="evenodd" d="M11.2507 15.3094C10.2364 14.9908 9.5007 14.0432 9.5007 12.9238C9.5007 11.5431 10.62 10.4238 12.0007 10.4238C13.3814 10.4238 14.5007 11.5431 14.5007 12.9238C14.5007 14.0432 13.765 14.9908 12.7507 15.3094V22.1776C12.7507 22.5918 12.4149 22.9276 12.0007 22.9276C11.5865 22.9276 11.2507 22.5918 11.2507 22.1776V15.3094ZM12.0007 13.9238C11.4484 13.9238 11.0007 13.4761 11.0007 12.9238C11.0007 12.3715 11.4484 11.9238 12.0007 11.9238C12.553 11.9238 13.0007 12.3715 13.0007 12.9238C13.0007 13.4761 12.553 13.9238 12.0007 13.9238Z" fill="#2D373D"/>
<path d="M15.4511 8.3242C15.1199 8.07543 14.6498 8.14225 14.401 8.47344C14.1523 8.80463 14.2191 9.27478 14.5503 9.52355C15.5842 10.3002 16.2507 11.5343 16.2507 12.9242C16.2507 14.3142 15.5842 15.5483 14.5503 16.3249C14.2191 16.5737 14.1523 17.0438 14.401 17.375C14.6498 17.7062 15.1199 17.773 15.4511 17.5243C16.8461 16.4765 17.7507 14.8059 17.7507 12.9242C17.7507 11.0426 16.8461 9.37196 15.4511 8.3242Z" fill="#2D373D"/>
<path d="M9.60036 8.47344C9.3516 8.14225 8.88145 8.07543 8.55026 8.3242C7.15533 9.37196 6.25069 11.0426 6.25069 12.9242C6.25069 14.8059 7.15533 16.4765 8.55026 17.5243C8.88145 17.773 9.3516 17.7062 9.60036 17.375C9.84913 17.0438 9.78231 16.5737 9.45112 16.3249C8.41715 15.5483 7.75069 14.3142 7.75069 12.9242C7.75069 11.5343 8.41715 10.3002 9.45112 9.52355C9.78231 9.27478 9.84913 8.80463 9.60036 8.47344Z" fill="#2D373D"/>
</svg>
