<svg width="24" height="25" viewBox="0 0 24 25" fill="none" xmlns="http://www.w3.org/2000/svg">
<path d="M20.0996 10.0605H19.7246V8.56055C19.7246 7.51055 18.8996 6.68555 17.8496 6.68555H10.7246V6.31055C10.7246 5.26055 9.89961 4.43555 8.84961 4.43555H5.47461C4.42461 4.43555 3.59961 5.26055 3.59961 6.31055V18.5355C3.59961 19.0605 3.82461 19.5855 4.19961 19.8855C4.49961 20.1855 4.94961 20.3355 5.32461 20.4105C5.39961 20.4855 5.54961 20.4855 5.62461 20.4855H18.4496C19.2746 20.4855 20.0246 19.9605 20.2496 19.1355L21.8996 12.3855C21.9746 12.2355 21.9746 12.0855 21.9746 11.9355C21.9746 10.8855 21.1496 10.0605 20.0996 10.0605ZM5.62461 19.0605C5.47461 19.0605 5.32461 18.9855 5.24961 18.9105C5.17461 18.7605 5.09961 18.6855 5.09961 18.5355V6.31055C5.09961 6.08555 5.24961 5.93555 5.47461 5.93555H8.84961C9.07461 5.93555 9.22461 6.08555 9.22461 6.31055V7.43555C9.22461 7.88555 9.52461 8.18555 9.97461 8.18555H17.7746C17.9996 8.18555 18.1496 8.33555 18.1496 8.56055V10.0605H9.67461C8.84961 10.0605 8.09961 10.5855 7.87461 11.4855L6.14961 18.6855C6.07461 18.9105 5.84961 19.0605 5.62461 19.0605ZM20.4746 11.9355L18.8246 18.6855C18.7496 18.8355 18.5996 18.9855 18.4496 18.9855H7.57461L9.29961 11.7855C9.37461 11.5605 9.52461 11.4855 9.67461 11.4855H18.9746H20.0996C20.3246 11.4855 20.4746 11.6355 20.4746 11.8605C20.4746 11.8605 20.4746 11.8605 20.4746 11.9355Z" fill="#2D373D"/>
</svg>
