<svg width="24" height="24" viewBox="0 0 24 24" fill="none" xmlns="http://www.w3.org/2000/svg">
<path d="M21.2252 3.9748H16.6502V3.6748C16.6502 3.2248 16.3502 2.9248 15.9002 2.9248C15.4502 2.9248 15.1502 3.2248 15.1502 3.6748V3.9748H8.77519V3.6748C8.77519 3.2248 8.4752 2.9248 8.02519 2.9248C7.5752 2.9248 7.27519 3.2248 7.27519 3.6748V3.9748H2.7002C2.2502 3.9748 1.9502 4.2748 1.9502 4.7248V19.2748C1.9502 19.7248 2.2502 20.0248 2.7002 20.0248H21.2252C21.6752 20.0248 21.9752 19.7248 21.9752 19.3498V4.7248C21.9752 4.2748 21.6752 3.9748 21.2252 3.9748ZM7.27519 5.4748V5.6998C7.27519 6.1498 7.5752 6.4498 8.02519 6.4498C8.4752 6.4498 8.77519 6.1498 8.77519 5.6998V5.4748H15.1502V5.6998C15.1502 6.1498 15.4502 6.4498 15.9002 6.4498C16.3502 6.4498 16.6502 6.1498 16.6502 5.6998V5.4748H20.4752V8.47481H3.4502V5.4748H7.27519ZM3.4502 18.5248V9.9748H20.4752V18.5248H3.4502Z" fill="#2D373D"/>
<path fill-rule="evenodd" clip-rule="evenodd" d="M12.0166 11.05C12.4308 11.05 12.7666 11.3858 12.7666 11.8V16.7333C12.7666 17.1475 12.4308 17.4833 12.0166 17.4833C11.6024 17.4833 11.2666 17.1475 11.2666 16.7333V11.8C11.2666 11.3858 11.6024 11.05 12.0166 11.05Z" fill="#2D373D"/>
<path fill-rule="evenodd" clip-rule="evenodd" d="M8.8 14.2667C8.8 13.8525 9.13578 13.5167 9.55 13.5167H14.4833C14.8975 13.5167 15.2333 13.8525 15.2333 14.2667C15.2333 14.6809 14.8975 15.0167 14.4833 15.0167H9.55C9.13578 15.0167 8.8 14.6809 8.8 14.2667Z" fill="#2D373D"/>
</svg>
