<svg width="16" height="16" viewBox="0 0 16 16" fill="none" xmlns="http://www.w3.org/2000/svg">
<path fill-rule="evenodd" clip-rule="evenodd" d="M9.63684 2.00274C9.3222 1.7079 8.91849 1.47002 8.46708 1.37613C7.72363 1.22149 6.93002 1.47467 6.30574 2.30704L6.30382 2.30962C5.95092 2.7865 5.88212 3.31301 6.00402 3.82948C6.12007 4.32119 6.40581 4.79738 6.74515 5.24C7.24898 5.89715 7.9586 6.5855 8.63196 7.23867C8.85606 7.45606 9.07614 7.66954 9.28328 7.87669C9.37705 7.97045 9.50423 8.02313 9.63684 8.02313C9.76945 8.02313 9.89662 7.97045 9.99039 7.87669C10.1975 7.66954 10.4176 7.45606 10.6417 7.23867C11.3151 6.5855 12.0247 5.89715 12.5285 5.24C12.8679 4.79738 13.1536 4.32119 13.2697 3.82948C13.3916 3.31301 13.3227 2.7865 12.9699 2.30962L12.9679 2.30704C12.3437 1.47467 11.55 1.22149 10.8066 1.37613C10.3552 1.47002 9.95148 1.7079 9.63684 2.00274ZM7.10675 2.90569C6.95006 3.11809 6.9148 3.33508 6.97728 3.59978C7.04571 3.88975 7.23325 4.23309 7.53875 4.63156C7.9939 5.22521 8.62287 5.83556 9.28003 6.47327C9.39834 6.58807 9.51755 6.70376 9.63684 6.8204C9.75612 6.70376 9.87534 6.58807 9.99364 6.47327C10.6508 5.83556 11.2798 5.22521 11.7349 4.63156C12.0404 4.23309 12.228 3.88975 12.2964 3.59978C12.3589 3.33507 12.3236 3.11807 12.1669 2.90567C11.757 2.35995 11.3441 2.28572 11.0102 2.35517C10.6269 2.43491 10.26 2.72584 10.0608 3.04446C9.96947 3.19065 9.80923 3.27946 9.63684 3.27946C9.46444 3.27946 9.30421 3.19065 9.21284 3.04446C9.0137 2.72584 8.64681 2.43491 8.26344 2.35517C7.92955 2.28572 7.51664 2.35996 7.10675 2.90569Z" fill="#2D373D"/>
<path fill-rule="evenodd" clip-rule="evenodd" d="M6.10894 9.44426C5.59662 9.43508 5.09328 9.57948 4.66374 9.85886L4.66283 9.85945L2.96681 10.9573L3.53884 12.9569L6.60733 13.1838C6.61255 13.1842 6.61776 13.1847 6.62295 13.1852C6.85356 13.2096 7.09737 13.1543 7.3736 13.0301C7.64513 12.908 7.91088 12.7374 8.20316 12.5498C8.2139 12.5429 8.22467 12.536 8.23548 12.5291L8.23627 12.5286L11.2183 10.5982C11.3366 10.5216 11.4196 10.4012 11.4491 10.2634C11.4786 10.1257 11.4522 9.9818 11.3756 9.86352C11.2991 9.74524 11.1786 9.66222 11.0409 9.63273C10.9031 9.60323 10.7592 9.62968 10.641 9.70624L10.6395 9.70718L8.3972 11.1477C8.37681 11.1608 8.35582 11.1722 8.3344 11.182C8.1575 11.2861 7.95922 11.3527 7.75193 11.3754C7.73384 11.3774 7.71565 11.3784 7.69745 11.3784H5.87528C5.59914 11.3784 5.37528 11.1545 5.37528 10.8784C5.37528 10.6022 5.59914 10.3784 5.87528 10.3784H7.66516C7.76849 10.3619 7.86345 10.3109 7.93426 10.2333C8.01012 10.1501 8.05304 10.0422 8.05501 9.92965L8.05527 9.91986C8.05761 9.85679 8.04682 9.79393 8.02358 9.73525C8.00035 9.67658 7.96518 9.62337 7.92031 9.579C7.87543 9.53462 7.82183 9.50006 7.76289 9.47749C7.70396 9.45492 7.64098 9.44484 7.57794 9.44789C7.56942 9.4483 7.56089 9.4485 7.55235 9.44847L6.10894 9.44426ZM9.01511 9.56214C8.99916 9.49592 8.97855 9.43074 8.95335 9.36711C8.87913 9.17965 8.76677 9.00966 8.62341 8.8679C8.48004 8.72615 8.30879 8.61572 8.12051 8.54362C7.93663 8.47321 7.74042 8.44085 7.54377 8.44845L6.12296 8.44435C5.41252 8.4324 4.71468 8.63294 4.11896 9.02028L2.67927 9.95224L2.60584 9.69557C2.52989 9.43008 2.2531 9.27642 1.98761 9.35237C1.72211 9.42833 1.56846 9.70512 1.64441 9.97061L2.88417 14.3043C2.96012 14.5698 3.23692 14.7234 3.50241 14.6475C3.7679 14.5715 3.92156 14.2947 3.8456 14.0292L3.8319 13.9813L6.52632 14.1806C6.99196 14.2278 7.41713 14.1069 7.78371 13.9421C8.12527 13.7885 8.44858 13.5808 8.72427 13.4036C8.74178 13.3924 8.75911 13.3813 8.77624 13.3703L8.77796 13.3692L11.7618 11.4376C12.1027 11.217 12.342 10.8699 12.427 10.4728C12.512 10.0756 12.4358 9.66103 12.2151 9.32011C11.9944 8.97919 11.6473 8.7399 11.2502 8.65488C10.8534 8.56994 10.4391 8.64597 10.0984 8.86625L10.0975 8.86678L9.01511 9.56214Z" fill="#2D373D"/>
</svg>
