<svg width="64" height="64" viewBox="0 0 64 64" fill="none" xmlns="http://www.w3.org/2000/svg">
<path d="M48.6002 32C47.8002 32 47.0002 32.2 46.4002 32.2L39.6002 17L45.8002 15.2C47.0002 15 47.6002 13.8 47.2002 12.8C47.0002 11.6 45.8002 11 44.8002 11.4L38.2002 13.4C38.0002 13.4 38.0002 13.6 37.8002 13.6C36.8002 14 36.2002 14.6 35.8002 15.6C35.4002 16.6 35.4002 17.6 35.8002 18.4L38.4002 24.4L25.2002 28L22.2002 22.6H25.4002C26.6002 22.6 27.4002 21.8 27.4002 20.6C27.4002 19.4 26.6002 18.6 25.4002 18.6H13.8002C12.6002 18.6 11.8002 19.4 11.8002 20.6C11.8002 21.8 12.6002 22.6 13.8002 22.6H17.6002L22.0002 30.2L19.8002 33C18.4002 32.4 17.0002 32 15.4002 32C9.8002 32 5.2002 36.6 5.2002 42.2C5.2002 47.8 9.8002 52.4 15.4002 52.4C21.2002 52.4 25.8002 47.8 25.6002 42.2C25.6002 39.6 24.6002 37.4 23.0002 35.6L25.6002 32.2L40.0002 28L42.6002 34C40.0002 35.8 38.2002 38.8 38.2002 42.2C38.2002 47.8 42.8002 52.4 48.4002 52.4C54.0002 52.4 58.6002 47.8 58.6002 42.2C58.8002 36.6 54.2002 32 48.6002 32ZM21.6002 42C21.6002 45.4 18.8002 48.2 15.4002 48.2C12.0002 48.2 9.2002 45.4 9.2002 42C9.2002 38.6 12.0002 35.8 15.4002 35.8C16.2002 35.8 16.8002 36 17.4002 36.2L13.8002 41C13.2002 41.8 13.4002 43.2 14.2002 43.8C14.6002 44 15.0002 44.2 15.4002 44.2C16.0002 44.2 16.6002 43.8 17.0002 43.4L20.6002 38.6C21.2002 39.8 21.6002 40.8 21.6002 42ZM48.6002 48.2C45.2002 48.2 42.4002 45.4 42.4002 42C42.4002 40.2 43.2002 38.6 44.4002 37.6L46.8002 43C47.2002 43.8 47.8002 44.2 48.6002 44.2C48.8002 44.2 49.2002 44.2 49.4002 44C50.4002 43.6 50.8002 42.4 50.4002 41.4L48.0002 36C48.2002 36 48.4002 36 48.6002 36C52.0002 36 54.8002 38.8 54.8002 42.2C54.8002 45.6 52.0002 48.2 48.6002 48.2Z" fill="#2D373D"/>
</svg>
