<svg width="24" height="25" viewBox="0 0 24 25" fill="none" xmlns="http://www.w3.org/2000/svg">
<path fill-rule="evenodd" clip-rule="evenodd" d="M8.88671 10.5107C9.35538 10.8057 9.66683 11.3276 9.66683 11.9223C9.66683 12.8428 8.92064 13.589 8.00016 13.589C7.07969 13.589 6.3335 12.8428 6.3335 11.9223C6.3335 11.0297 7.03515 10.301 7.91697 10.2577L8.85962 7.42928C8.94693 7.16731 9.23008 7.02571 9.49206 7.11303C9.75403 7.20034 9.89563 7.48349 9.80832 7.74547L8.88671 10.5107ZM8.66683 11.9223C8.66683 12.2905 8.36835 12.589 8.00016 12.589C7.63197 12.589 7.3335 12.2905 7.3335 11.9223C7.3335 11.5541 7.63197 11.2556 8.00016 11.2556C8.36835 11.2556 8.66683 11.5541 8.66683 11.9223Z" fill="#2D373D"/>
<path d="M4.10016 8.92279C4.10016 6.76888 5.84625 5.02279 8.00016 5.02279C10.1541 5.02279 11.9002 6.76888 11.9002 8.92279C11.9002 9.19893 12.124 9.42279 12.4002 9.42279C12.6763 9.42279 12.9002 9.19893 12.9002 8.92279C12.9002 6.21659 10.7064 4.02279 8.00016 4.02279C5.29396 4.02279 3.10016 6.21659 3.10016 8.92279C3.10016 9.19893 3.32402 9.42279 3.60016 9.42279C3.8763 9.42279 4.10016 9.19893 4.10016 8.92279Z" fill="#2D373D"/>
<path fill-rule="evenodd" clip-rule="evenodd" d="M8.00016 15.5892C11.6821 15.5892 14.6668 12.6044 14.6668 8.92253C14.6668 5.24063 11.6821 2.25586 8.00016 2.25586C4.31826 2.25586 1.3335 5.24063 1.3335 8.92253C1.3335 12.6044 4.31826 15.5892 8.00016 15.5892ZM8.00016 14.5892C11.1298 14.5892 13.6668 12.0521 13.6668 8.92253C13.6668 5.79291 11.1298 3.25586 8.00016 3.25586C4.87055 3.25586 2.3335 5.79291 2.3335 8.92253C2.3335 12.0521 4.87055 14.5892 8.00016 14.5892Z" fill="#2D373D"/>
</svg>
