<svg width="16" height="17" viewBox="0 0 16 17" fill="none" xmlns="http://www.w3.org/2000/svg">
<path d="M9.2499 12.273L9.5499 9.77305H9.8499C10.1499 9.77305 10.3499 9.57305 10.3499 9.27305V8.17305C10.3499 7.27305 9.8499 6.47305 9.0999 6.07305C9.5499 5.72305 9.7999 5.22305 9.7999 4.67305C9.7999 3.67305 8.9999 2.87305 7.9999 2.87305C6.9999 2.87305 6.1999 3.67305 6.1999 4.67305C6.1999 5.27305 6.4999 5.77305 6.8999 6.12305C6.1499 6.52305 5.6499 7.27305 5.6499 8.17305V9.27305C5.6499 9.57305 5.8499 9.77305 6.1499 9.77305H6.3999L6.6999 12.273C6.7499 12.523 6.9499 12.723 7.1999 12.723H8.6999C8.9499 12.723 9.1999 12.523 9.2499 12.273ZM7.9999 3.87305C8.3999 3.87305 8.7999 4.22305 8.7999 4.67305C8.7999 5.12305 8.4499 5.47305 7.9999 5.47305C7.5499 5.47305 7.1999 5.12305 7.1999 4.67305C7.1999 4.22305 7.5499 3.87305 7.9999 3.87305ZM8.2999 11.723H7.6999L7.3999 9.22305C7.3499 8.97305 7.1499 8.77305 6.8999 8.77305H6.6499V8.17305C6.6499 7.42305 7.2499 6.82305 7.9999 6.82305C8.7499 6.82305 9.3499 7.42305 9.3499 8.17305V8.77305H9.0999C8.8499 8.77305 8.6499 8.97305 8.5999 9.22305L8.2999 11.723Z" fill="#2D373D"/>
<path d="M6.0499 13.373L5.4999 11.373C5.4499 11.073 5.1499 10.923 4.8999 11.023C4.6499 11.073 4.4999 11.373 4.5499 11.623L4.8999 12.773C3.6499 12.423 2.9499 11.923 2.9499 11.473C2.9499 11.123 3.4999 10.573 4.6999 10.173C4.9999 10.123 5.1499 9.82299 5.0499 9.57299C4.9999 9.27299 4.6999 9.12299 4.4499 9.22299C2.7999 9.72299 1.8999 10.523 1.8999 11.473C1.8999 12.373 2.7499 13.173 4.2499 13.673L3.6999 13.973C3.4499 14.123 3.3499 14.423 3.4999 14.673C3.5999 14.823 3.7999 14.923 3.9499 14.923C3.9999 14.923 4.0999 14.923 4.1999 14.873L5.7999 13.923C5.8499 13.923 5.8499 13.873 5.8499 13.873C5.8999 13.823 5.8999 13.823 5.9499 13.773C5.9999 13.723 5.9999 13.673 5.9999 13.623C6.0999 13.523 6.0999 13.473 6.0499 13.373Z" fill="#2D373D"/>
<path d="M11.45 9.27301C11.2 9.22301 10.95 9.37301 10.85 9.62301C10.8 9.87301 10.95 10.123 11.2 10.223C12.5 10.623 13.05 11.173 13.05 11.523C13.05 12.223 11.05 13.223 8 13.223C7.7 13.223 7.5 13.423 7.5 13.723C7.5 14.023 7.7 14.223 8 14.223C10.9 14.223 14 13.273 14 11.523C14 10.573 13.1 9.77301 11.45 9.27301Z" fill="#2D373D"/>
</svg>
