<svg width="32" height="33" viewBox="0 0 32 33" fill="none" xmlns="http://www.w3.org/2000/svg">
<path d="M21.73 18.3674C21.1777 18.3674 20.73 18.8151 20.73 19.3674C20.73 19.9197 21.1777 20.3674 21.73 20.3674H25.01C25.5623 20.3674 26.01 19.9197 26.01 19.3674C26.01 18.8151 25.5623 18.3674 25.01 18.3674H21.73Z" fill="#2D373D"/>
<path d="M11.7795 14.5915C12.1686 14.9834 12.1664 15.6166 11.7745 16.0057L10.4391 17.3319L11.7745 18.658C12.1664 19.0472 12.1686 19.6803 11.7795 20.0722C11.3903 20.4641 10.7572 20.4663 10.3653 20.0771L9.01991 18.7412L7.67454 20.0771C7.28265 20.4663 6.64949 20.4641 6.26033 20.0722C5.87118 19.6803 5.87339 19.0472 6.26528 18.658L7.60073 17.3319L6.26528 16.0057C5.87339 15.6166 5.87118 14.9834 6.26033 14.5915C6.64949 14.1996 7.28265 14.1974 7.67454 14.5866L9.01991 15.9226L10.3653 14.5866C10.7572 14.1974 11.3903 14.1996 11.7795 14.5915Z" fill="#2D373D"/>
<path d="M19.1596 14.5915C19.5487 14.9834 19.5465 15.6166 19.1546 16.0057L17.8192 17.3319L19.1546 18.658C19.5465 19.0472 19.5487 19.6803 19.1596 20.0722C18.7704 20.4641 18.1372 20.4663 17.7453 20.0771L16.4 18.7412L15.0546 20.0771C14.6627 20.4663 14.0296 20.4641 13.6404 20.0722C13.2512 19.6803 13.2535 19.0472 13.6453 18.658L14.9808 17.3319L13.6453 16.0057C13.2535 15.6166 13.2512 14.9834 13.6404 14.5915C14.0296 14.1996 14.6627 14.1974 15.0546 14.5866L16.4 15.9226L17.7453 14.5866C18.1372 14.1974 18.7704 14.1996 19.1596 14.5915Z" fill="#2D373D"/>
<path fill-rule="evenodd" clip-rule="evenodd" d="M5.32994 10.2246C3.87851 10.2246 2.68994 11.3949 2.68994 12.8532V20.996C2.68994 22.4543 3.87851 23.6246 5.32994 23.6246H26.6499C28.1014 23.6246 29.2899 22.4543 29.2899 20.996V12.8532C29.2899 11.3949 28.1014 10.2246 26.6499 10.2246H5.32994ZM4.68994 12.8532C4.68994 12.5126 4.96987 12.2246 5.32994 12.2246H26.6499C27.01 12.2246 27.2899 12.5126 27.2899 12.8532V20.996C27.2899 21.3366 27.01 21.6246 26.6499 21.6246H5.32994C4.96987 21.6246 4.68994 21.3366 4.68994 20.996V12.8532Z" fill="#2D373D"/>
</svg>
