<svg width="24" height="25" viewBox="0 0 24 25" fill="none" xmlns="http://www.w3.org/2000/svg">
<path d="M16.5748 3.38672H7.4248C4.9498 3.38672 2.9248 5.41172 2.9248 7.88672V17.0367C2.9248 19.5117 4.9498 21.5367 7.4248 21.5367H16.5748C19.0498 21.5367 21.0748 19.5117 21.0748 17.0367V7.88672C21.0748 5.41172 19.0498 3.38672 16.5748 3.38672ZM19.5748 17.0367C19.5748 18.6867 18.2248 20.0367 16.5748 20.0367H7.4248C5.7748 20.0367 4.4248 18.6867 4.4248 17.0367V7.88672C4.4248 6.23672 5.7748 4.88672 7.4248 4.88672H16.5748C18.2248 4.88672 19.5748 6.23672 19.5748 7.88672V17.0367Z" fill="#2D373D"/>
<path d="M11.9999 7.58679C9.29988 7.58679 7.12488 9.76179 7.12488 12.4618C7.12488 15.1618 9.29988 17.3368 11.9999 17.3368C14.6999 17.3368 16.8749 15.1618 16.8749 12.4618C16.8749 9.76179 14.6999 7.58679 11.9999 7.58679ZM11.9999 15.7618C10.1249 15.7618 8.62488 14.2618 8.62488 12.3868C8.62488 10.5118 10.1249 9.01179 11.9999 9.01179C13.8749 9.01179 15.3749 10.5118 15.3749 12.3868C15.3749 14.2618 13.8749 15.7618 11.9999 15.7618Z" fill="#2D373D"/>
<path d="M16.8749 8.63672C17.4962 8.63672 17.9999 8.13304 17.9999 7.51172C17.9999 6.8904 17.4962 6.38672 16.8749 6.38672C16.2536 6.38672 15.7499 6.8904 15.7499 7.51172C15.7499 8.13304 16.2536 8.63672 16.8749 8.63672Z" fill="#2D373D"/>
</svg>
