<svg width="24" height="25" viewBox="0 0 24 25" fill="none" xmlns="http://www.w3.org/2000/svg">
<path fill-rule="evenodd" clip-rule="evenodd" d="M19.0002 3.92238H15.1102C14.9288 3.92377 14.7542 3.99177 14.6196 4.11345C14.485 4.23513 14.3998 4.40201 14.3802 4.58238C14.3757 4.60886 14.3757 4.6359 14.3802 4.66238C14.3802 4.66238 14.3802 4.66238 14.3802 4.73238C14.3747 4.79893 14.3747 4.86583 14.3802 4.93238L15.7902 8.82238H14.8802C14.7638 8.82238 14.6489 8.84949 14.5448 8.90156C14.4407 8.95363 14.3501 9.02924 14.2802 9.12238C14.2117 9.21621 14.1653 9.32433 14.1446 9.43863C14.1238 9.55293 14.1291 9.67045 14.1602 9.78238L14.7902 11.9224L12.2502 9.33238H12.9102C13.044 9.32831 13.1742 9.28803 13.2869 9.21583C13.3996 9.14363 13.4906 9.04221 13.5502 8.92238C13.6142 8.80957 13.6478 8.68208 13.6478 8.55238C13.6478 8.42268 13.6142 8.2952 13.5502 8.18238L11.4402 4.33238C11.3768 4.20491 11.278 4.09843 11.1556 4.02571C11.0332 3.95299 10.8925 3.91711 10.7502 3.92238H5.15022C4.86676 3.91834 4.58537 3.97119 4.32269 4.07781C4.06001 4.18443 3.82139 4.34264 3.62093 4.5431C3.42048 4.74356 3.26226 4.98218 3.15564 5.24486C3.04903 5.50753 2.99617 5.78892 3.00022 6.07238V19.8224C3.00282 20.1016 3.06058 20.3776 3.17017 20.6345C3.27975 20.8914 3.43901 21.1241 3.6388 21.3192C3.83858 21.5143 4.07495 21.6681 4.33432 21.7716C4.5937 21.8751 4.87097 21.9263 5.15022 21.9224H18.9002C19.4556 21.9172 19.9867 21.6942 20.3794 21.3015C20.7721 20.9088 20.995 20.3777 21.0002 19.8224V5.99238C21.0056 5.45379 20.7989 4.9347 20.4246 4.54735C20.0503 4.15999 19.5387 3.93549 19.0002 3.92238V3.92238ZM12.8602 12.0624L12.9902 12.1924H12.8602V12.0624ZM11.3602 20.4424H5.15022C4.98301 20.4406 4.8225 20.3764 4.70022 20.2624C4.58845 20.1426 4.52442 19.9861 4.52022 19.8224V13.6924H11.3602V20.4424ZM4.52022 12.1924V6.07238C4.52196 5.90518 4.58616 5.74467 4.70022 5.62238C4.8225 5.50833 4.98301 5.44413 5.15022 5.44238H10.3402L11.6402 7.83238H10.4402C10.2924 7.83138 10.1477 7.87466 10.0247 7.95665C9.90175 8.03863 9.80614 8.15557 9.75022 8.29238C9.69255 8.42952 9.67697 8.58071 9.70546 8.72672C9.73396 8.87274 9.80523 9.00698 9.91022 9.11238L11.3602 10.5624V12.1924H4.52022ZM19.5202 19.8224C19.5216 19.9042 19.5065 19.9854 19.4758 20.0612C19.4451 20.1371 19.3995 20.206 19.3416 20.2638C19.2838 20.3216 19.2149 20.3673 19.1391 20.3979C19.0632 20.4286 18.982 20.4437 18.9002 20.4424H12.9002V13.6924H14.5302L15.8702 15.0324C15.988 15.1499 16.1415 15.2249 16.3065 15.2456C16.4716 15.2663 16.6389 15.2316 16.782 15.1468C16.9252 15.0621 17.0361 14.9322 17.0973 14.7775C17.1585 14.6228 17.1666 14.4521 17.1202 14.2924L16.9402 13.6924H19.5602L19.5202 19.8224ZM19.5202 12.1924H16.4502L15.8902 10.3224H16.8902C17.0101 10.3217 17.128 10.2922 17.2341 10.2366C17.3403 10.1809 17.4315 10.1006 17.5002 10.0024C17.5706 9.90357 17.6157 9.78895 17.6314 9.66862C17.6471 9.5483 17.6329 9.42596 17.5902 9.31238L16.1702 5.44238H19.0002C19.0724 5.44238 19.144 5.45661 19.2107 5.48425C19.2774 5.51189 19.3381 5.5524 19.3891 5.60347C19.4402 5.65455 19.4807 5.71518 19.5083 5.78191C19.536 5.84864 19.5502 5.92016 19.5502 5.99238L19.5202 12.1924Z" fill="#2D373D"/>
</svg>
