<svg width="64" height="65" viewBox="0 0 64 65" fill="none" xmlns="http://www.w3.org/2000/svg">
<path d="M27.0687 12.8289C25.9586 12.8289 25.0587 13.7289 25.0587 14.839C25.0587 15.9491 25.9586 16.849 27.0687 16.849H36.931C38.041 16.849 38.941 15.9491 38.941 14.839C38.941 13.7289 38.041 12.8289 36.931 12.8289H27.0687Z" fill="#2D373D"/>
<path d="M36.9276 42.4169C35.8175 42.4169 34.9176 43.3169 34.9176 44.427C34.9176 45.5371 35.8175 46.437 36.9276 46.437H43.5024C44.6125 46.437 45.5124 45.5371 45.5124 44.427C45.5124 43.3169 44.6125 42.4169 43.5024 42.4169H36.9276Z" fill="#2D373D"/>
<path d="M18.4817 44.427C18.4817 43.3169 19.3816 42.4169 20.4917 42.4169H27.0666C28.1767 42.4169 29.0766 43.3169 29.0766 44.427C29.0766 45.5371 28.1767 46.437 27.0666 46.437H20.4917C19.3816 46.437 18.4817 45.5371 18.4817 44.427Z" fill="#2D373D"/>
<path fill-rule="evenodd" clip-rule="evenodd" d="M11.91 20.1366V46.6186C11.91 49.0202 13.234 51.1124 15.1919 52.2052V54.2896C15.1919 55.6947 15.75 57.0421 16.7435 58.0356C17.7369 59.0291 19.0844 59.5872 20.4893 59.5872C21.8943 59.5872 23.2417 59.0291 24.2352 58.0356C25.2286 57.0421 25.7868 55.6947 25.7868 54.2896V53.0121H38.2047V54.2896C38.2047 55.6947 38.7629 57.0421 39.7563 58.0356C40.7498 59.0291 42.0972 59.5872 43.5022 59.5872C44.9071 59.5872 46.2545 59.0291 47.248 58.0356C48.2415 57.0421 48.7996 55.6947 48.7996 54.2896V52.2109C50.7631 51.1197 52.0917 49.0243 52.0917 46.6186V20.1366H53.3689C53.7077 20.1366 54.0326 20.2712 54.2722 20.5108C54.5118 20.7504 54.6464 21.0753 54.6464 21.4141V27.9892C54.6464 29.0993 55.5463 29.9993 56.6563 29.9993C57.7664 29.9993 58.6663 29.0993 58.6663 27.9892V21.4141C58.6663 20.0091 58.1082 18.6616 57.1148 17.6682C56.1213 16.6747 54.7739 16.1165 53.3689 16.1165H52.0917V12.6473C52.0917 9.11636 49.2294 6.25391 45.6985 6.25391H18.3032C14.7723 6.25391 11.91 9.11636 11.91 12.6473V16.1165H10.6304C9.22547 16.1165 7.87804 16.6747 6.88459 17.6682C5.89113 18.6616 5.33301 20.0091 5.33301 21.4141V27.9892C5.33301 29.0993 6.23291 29.9993 7.343 29.9993C8.45309 29.9993 9.35299 29.0993 9.35299 27.9892V21.4141C9.35299 21.0753 9.48758 20.7504 9.72715 20.5108C9.96672 20.2712 10.2916 20.1366 10.6304 20.1366H11.91ZM15.93 12.6473C15.93 11.3366 16.9925 10.274 18.3032 10.274H45.6985C47.0092 10.274 48.0718 11.3366 48.0718 12.6473V18.0926L48.0715 18.1266L48.0718 18.1605V35.8418H15.93V12.6473ZM15.93 39.8619H48.0718V46.6186C48.0718 47.6962 47.3537 48.606 46.3701 48.8956C46.3154 48.9072 46.2615 48.9211 46.2086 48.937C46.0443 48.973 45.8736 48.992 45.6985 48.992H18.3032C18.1105 48.992 17.9231 48.969 17.7437 48.9256C17.7193 48.9189 17.6948 48.9125 17.6702 48.9066C16.6668 48.6296 15.93 47.7102 15.93 46.6186V39.8619ZM21.7668 53.0121H19.2119V54.2896C19.2119 54.6285 19.3465 54.9534 19.586 55.193C19.8256 55.4326 20.1505 55.5671 20.4893 55.5671C20.8281 55.5671 21.1531 55.4326 21.3926 55.193C21.6322 54.9534 21.7668 54.6285 21.7668 54.2896V53.0121ZM42.2247 53.0121V54.2896C42.2247 54.6285 42.3593 54.9534 42.5989 55.193C42.8384 55.4326 43.1634 55.5671 43.5022 55.5671C43.841 55.5671 44.1659 55.4326 44.4054 55.193C44.645 54.9534 44.7796 54.6285 44.7796 54.2896V53.0121H42.2247Z" fill="#2D373D"/>
</svg>
