<svg width="32" height="33" viewBox="0 0 32 33" fill="none" xmlns="http://www.w3.org/2000/svg">
<path fill-rule="evenodd" clip-rule="evenodd" d="M27 4.92188H24.0667C23.8025 4.92533 23.5502 5.03179 23.3634 5.21859C23.1766 5.40538 23.0701 5.65773 23.0667 5.92188V6.38854H22.6C20.4328 6.40236 18.3302 7.12741 16.6151 8.45226C14.9 9.77711 13.6674 11.6285 13.1067 13.7219H12.3333C12.0692 13.7253 11.8168 13.8318 11.63 14.0186C11.4433 14.2054 11.3368 14.4577 11.3333 14.7219V19.1219C11.3332 19.3051 11.3827 19.4849 11.4766 19.6422C11.5705 19.7995 11.7053 19.9284 11.8667 20.0152C11.7114 20.1677 11.5466 20.3102 11.3733 20.4419C10.7936 20.8429 10.105 21.057 9.4 21.0552H8.93333V20.5885C8.93333 20.3233 8.82798 20.069 8.64044 19.8814C8.4529 19.6939 8.19855 19.5885 7.93333 19.5885H5C4.73586 19.592 4.4835 19.6985 4.29671 19.8853C4.10992 20.072 4.00345 20.3244 4 20.5885V27.9219C4 28.1871 4.10536 28.4414 4.29289 28.629C4.48043 28.8165 4.73478 28.9219 5 28.9219H7.93333C8.06515 28.9237 8.19599 28.899 8.31813 28.8494C8.44026 28.7998 8.55122 28.7262 8.64444 28.633C8.73765 28.5398 8.81125 28.4288 8.86087 28.3067C8.91049 28.1845 8.93513 28.0537 8.93333 27.9219V27.4552H9.41333C11.5799 27.4452 13.6828 26.7213 15.3965 25.3956C17.1102 24.07 18.3392 22.2164 18.8933 20.1219H19.6667C19.7985 20.1237 19.9293 20.099 20.0515 20.0494C20.1736 19.9998 20.2846 19.9262 20.3778 19.833C20.471 19.7398 20.5446 19.6288 20.5942 19.5067C20.6438 19.3845 20.6685 19.2537 20.6667 19.1219V14.7219C20.6644 14.5426 20.6152 14.367 20.524 14.2126C20.4327 14.0582 20.3026 13.9304 20.1467 13.8419C20.2955 13.6825 20.4609 13.5395 20.64 13.4152C21.2137 13.0105 21.8979 12.7917 22.6 12.7885H23.0667V13.2552C23.0667 13.5204 23.172 13.7748 23.3596 13.9623C23.5471 14.1499 23.8014 14.2552 24.0667 14.2552H27C27.1318 14.257 27.2627 14.2324 27.3848 14.1827C27.5069 14.1331 27.6179 14.0595 27.7111 13.9663C27.8043 13.8731 27.8779 13.7621 27.9275 13.64C27.9772 13.5179 28.0018 13.387 28 13.2552V5.92188C28 5.65666 27.8946 5.4023 27.7071 5.21477C27.5196 5.02723 27.2652 4.92188 27 4.92188V4.92188ZM7 26.9219H6V21.5885H6.93333L7 26.9219ZM14.5067 23.6152C13.0965 24.8042 11.3112 25.456 9.46667 25.4552H8.93333V23.0552H9.4C10.5248 23.0677 11.6237 22.717 12.5333 22.0552C13.2468 21.5527 13.8278 20.8847 14.2267 20.1085H16.8C16.3455 21.4696 15.5298 22.6817 14.44 23.6152H14.5067ZM18.7333 18.1219H13.4V15.7219H18.7333V18.1219ZM23.1333 10.7885H22.6667C21.5475 10.7863 20.456 11.1361 19.5467 11.7885C18.8379 12.287 18.2613 12.9505 17.8667 13.7219H15.2C15.657 12.3662 16.478 11.1623 17.5733 10.2419C18.9816 9.05697 20.7596 8.40141 22.6 8.38854H23.0667L23.1333 10.7885ZM26.0667 12.2552H25.1333V11.8019V7.38854V6.92188H26.0667V12.2552Z" fill="#2D373D"/>
</svg>
