<svg width="16" height="17" viewBox="0 0 16 17" fill="none" xmlns="http://www.w3.org/2000/svg">
<path d="M6.6502 6.41016V4.01016C6.6502 3.11016 5.9502 2.41016 5.0502 2.41016C4.1502 2.41016 3.4502 3.11016 3.4502 4.01016V6.41016C2.5002 7.51016 2.0002 8.86016 1.9502 10.3102C1.9502 11.6602 2.4502 12.9602 3.3002 14.0102C3.5002 14.3102 3.8502 14.4602 4.2502 14.4602H5.8002C6.2002 14.4602 6.5502 14.3102 6.8002 14.0102C7.6502 12.9602 8.1502 11.6102 8.1502 10.2602C8.1002 8.86016 7.5502 7.51016 6.6502 6.41016ZM4.4502 6.11016V5.61016H5.6502V6.11016H4.4502ZM5.0502 3.41016C5.3502 3.41016 5.6502 3.66016 5.6502 4.01016V4.61016H4.4502V4.01016C4.4502 3.66016 4.7002 3.41016 5.0502 3.41016ZM6.0002 13.4102C5.9502 13.4602 5.8502 13.5102 5.8002 13.5102H4.2502C4.1502 13.5102 4.1002 13.4602 4.0502 13.4102C3.3502 12.5102 2.9502 11.4102 2.9502 10.3102C3.0002 9.11016 3.4002 8.01016 4.1502 7.11016H5.9002C6.6502 8.01016 7.1002 9.11016 7.1502 10.3102C7.1002 11.4102 6.7002 12.5102 6.0002 13.4102Z" fill="#2D373D"/>
<path d="M13.7502 8.91016C13.3502 7.86016 12.6002 7.01016 11.6002 6.51016C10.4502 5.96016 9.10019 5.96016 7.95019 6.51016C7.70019 6.61016 7.60019 6.91016 7.70019 7.16016C7.80019 7.41016 8.10019 7.51016 8.35019 7.41016C9.25019 6.96016 10.2502 6.96016 11.1502 7.41016C11.9002 7.81016 12.4502 8.46016 12.7502 9.26016C13.0502 10.0602 12.9502 10.9602 12.6002 11.7102C11.8502 13.2602 9.95019 13.9102 8.35019 13.1602C8.10019 13.0602 7.80019 13.1602 7.70019 13.4102C7.60019 13.6602 7.70019 13.9602 7.95019 14.0602C8.55019 14.3102 9.20019 14.4602 9.80019 14.4602C11.3502 14.4602 12.8502 13.6102 13.5502 12.1102C14.0502 11.1102 14.1002 9.96016 13.7502 8.91016Z" fill="#2D373D"/>
<path d="M9.65034 9.56016C9.60034 9.61016 9.55034 9.66016 9.50034 9.71016C9.40034 9.81016 9.35034 9.91016 9.35034 10.1102C9.35034 10.4102 9.55034 10.6602 9.85034 10.7602C9.90034 10.8102 10.0003 10.8102 10.0503 10.8102C10.4503 10.8102 10.7503 10.4602 10.7503 10.1102C10.7503 10.0102 10.7503 9.96016 10.7003 9.91016C10.6503 9.76016 10.5503 9.66016 10.4503 9.56016C10.3503 9.46016 10.2503 9.41016 10.1003 9.41016C9.85034 9.41016 9.75034 9.46016 9.65034 9.56016Z" fill="#2D373D"/>
<path d="M12.4001 9.36018C12.3501 9.31018 12.3001 9.26018 12.2501 9.21018C12.1501 9.11018 12.0501 9.06018 11.9001 9.06018C11.9001 9.06018 11.9001 9.06018 11.8501 9.06018C11.7001 9.06018 11.5501 9.11018 11.5001 9.21018C11.4501 9.26018 11.4501 9.26018 11.4001 9.31018C11.2501 9.41018 11.1501 9.56018 11.1501 9.71018C11.1501 10.0102 11.3501 10.2602 11.6501 10.3602C11.7001 10.4102 11.8001 10.4102 11.8501 10.4102C11.9001 10.4102 12.0001 10.4102 12.0501 10.3602C12.2501 10.3102 12.4001 10.1602 12.5001 9.96018C12.5501 9.91018 12.5501 9.86018 12.5501 9.76018C12.5501 9.76018 12.5501 9.76018 12.5501 9.71018C12.5501 9.56018 12.5001 9.46018 12.4001 9.36018Z" fill="#2D373D"/>
<path d="M10.2002 8.96011C10.2502 9.01011 10.3502 9.01011 10.4002 9.01011C10.7502 9.01011 11.0502 8.71011 11.1002 8.31011C11.1002 8.16011 11.0502 8.01011 10.9502 7.91011C10.9002 7.86011 10.8502 7.81011 10.8002 7.76011C10.7002 7.66011 10.6002 7.61011 10.4502 7.61011C10.4502 7.61011 10.4502 7.61011 10.4002 7.61011C10.2502 7.61011 10.1002 7.66011 10.0502 7.76011C9.95024 7.86011 9.85024 7.96011 9.80024 8.11011C9.75024 8.16011 9.75024 8.26011 9.75024 8.31011C9.75024 8.36011 9.75024 8.46011 9.80024 8.51011C9.80024 8.71011 10.0002 8.86011 10.2002 8.96011Z" fill="#2D373D"/>
</svg>
