<svg width="64" height="65" viewBox="0 0 64 65" fill="none" xmlns="http://www.w3.org/2000/svg">
<path fill-rule="evenodd" clip-rule="evenodd" d="M35.5463 39.2753C37.421 40.4552 38.6668 42.5429 38.6668 44.9216C38.6668 48.6035 35.6821 51.5882 32.0002 51.5882C28.3183 51.5882 25.3335 48.6035 25.3335 44.9216C25.3335 41.3513 28.1401 38.4365 31.6674 38.2631L35.438 26.9496C35.7872 25.9017 36.9198 25.3353 37.9677 25.6845C39.0156 26.0338 39.582 27.1664 39.2328 28.2143L35.5463 39.2753ZM34.6668 44.9216C34.6668 46.3943 33.4729 47.5882 32.0002 47.5882C30.5274 47.5882 29.3335 46.3943 29.3335 44.9216C29.3335 43.4488 30.5274 42.2549 32.0002 42.2549C33.4729 42.2549 34.6668 43.4488 34.6668 44.9216Z" fill="#2D373D"/>
<path d="M16.4001 32.9236C16.4001 24.3079 23.3845 17.3236 32.0001 17.3236C40.6158 17.3236 47.6001 24.3079 47.6001 32.9236C47.6001 34.0281 48.4956 34.9236 49.6001 34.9236C50.7047 34.9236 51.6001 34.0281 51.6001 32.9236C51.6001 22.0988 42.8249 13.3236 32.0001 13.3236C21.1754 13.3236 12.4001 22.0988 12.4001 32.9236C12.4001 34.0281 13.2956 34.9236 14.4001 34.9236C15.5047 34.9236 16.4001 34.0281 16.4001 32.9236Z" fill="#2D373D"/>
<path fill-rule="evenodd" clip-rule="evenodd" d="M32.0002 59.5892C46.7278 59.5892 58.6668 47.6501 58.6668 32.9225C58.6668 18.1949 46.7278 6.25586 32.0002 6.25586C17.2726 6.25586 5.3335 18.1949 5.3335 32.9225C5.3335 47.6501 17.2726 59.5892 32.0002 59.5892ZM32.0002 55.5892C44.5186 55.5892 54.6668 45.441 54.6668 32.9225C54.6668 20.4041 44.5186 10.2559 32.0002 10.2559C19.4817 10.2559 9.3335 20.4041 9.3335 32.9225C9.3335 45.441 19.4817 55.5892 32.0002 55.5892Z" fill="#2D373D"/>
</svg>
