<svg width="64" height="65" viewBox="0 0 64 65" fill="none" xmlns="http://www.w3.org/2000/svg">
<path fill-rule="evenodd" clip-rule="evenodd" d="M18.6538 11.4867C18.6538 10.0527 19.6139 9.08792 20.3779 8.54608C21.1937 7.9674 22.2446 7.52813 23.3631 7.19258C25.6255 6.51384 28.6312 6.12305 31.8659 6.12305C35.1006 6.12305 38.1063 6.51384 40.3688 7.19258C41.4873 7.52813 42.5381 7.9674 43.354 8.54608C44.1179 9.08792 45.078 10.0526 45.078 11.4867V27.1837C45.078 28.6178 44.1179 29.5825 43.354 30.1243C42.5381 30.703 41.4873 31.1423 40.3688 31.4778C38.1063 32.1565 35.1006 32.5473 31.8659 32.5473C28.6312 32.5473 25.6255 32.1565 23.3631 31.4778C22.2446 31.1423 21.1937 30.703 20.3779 30.1243C19.6139 29.5825 18.6538 28.6178 18.6538 27.1837V11.4867ZM22.5167 11.0177C22.516 11.0177 22.5207 11.0241 22.533 11.0364C22.5237 11.0238 22.5175 11.0176 22.5167 11.0177ZM23.2646 11.4867C23.5839 11.6362 23.997 11.7948 24.5125 11.9495C26.308 12.4881 28.9084 12.8503 31.8659 12.8503C34.8235 12.8503 37.4239 12.4881 39.2194 11.9495C39.7349 11.7948 40.148 11.6362 40.4672 11.4867C40.148 11.3371 39.7349 11.1785 39.2194 11.0239C37.4239 10.4852 34.8235 10.123 31.8659 10.123C28.9084 10.123 26.308 10.4852 24.5125 11.0239C23.997 11.1785 23.5839 11.3371 23.2646 11.4867ZM41.2151 11.0177C41.2144 11.0176 41.2082 11.0238 41.1989 11.0364C41.2112 11.0241 41.2159 11.0177 41.2151 11.0177ZM23.3631 15.7808C25.6255 16.4595 28.6312 16.8503 31.8659 16.8503C35.1006 16.8503 38.1063 16.4595 40.3688 15.7808C40.6089 15.7088 40.8458 15.632 41.078 15.55V18.9854C41.0662 18.9941 41.0535 19.0033 41.0399 19.013C40.721 19.2392 40.1299 19.5247 39.2194 19.7979C37.4239 20.3365 34.8235 20.6987 31.8659 20.6987C28.9084 20.6987 26.308 20.3365 24.5125 19.7979C23.602 19.5247 23.0108 19.2392 22.692 19.013C22.6783 19.0033 22.6656 18.9941 22.6538 18.9854V15.55C22.886 15.632 23.123 15.7088 23.3631 15.7808ZM41.078 23.3984V26.834L41.0399 26.8617C40.721 27.0878 40.1299 27.3734 39.2194 27.6465C37.4239 28.1852 34.8235 28.5473 31.8659 28.5473C28.9084 28.5473 26.308 28.1852 24.5125 27.6465C23.602 27.3734 23.0108 27.0878 22.692 26.8617L22.6538 26.834V23.3984C22.886 23.4803 23.123 23.5571 23.3631 23.6292C25.6255 24.3079 28.6312 24.6987 31.8659 24.6987C35.1006 24.6987 38.1063 24.3079 40.3688 23.6292C40.6089 23.5571 40.8458 23.4803 41.078 23.3984ZM22.5167 26.7147C22.516 26.7148 22.5207 26.7211 22.533 26.7335C22.5237 26.7208 22.5175 26.7146 22.5167 26.7147ZM41.2151 26.7147C41.2144 26.7146 41.2082 26.7208 41.1989 26.7335C41.2112 26.7211 41.2159 26.7148 41.2151 26.7147Z" fill="#2D373D"/>
<path d="M11.4455 26.0623C11.4455 25.8218 11.5341 25.4164 11.7413 25.1287C11.8304 25.005 11.934 24.9117 12.0652 24.844C12.1949 24.7772 12.4219 24.6987 12.8091 24.6987C13.9137 24.6987 14.8091 23.8033 14.8091 22.6987C14.8091 21.5941 13.9137 20.6987 12.8091 20.6987C10.8118 20.6987 9.37047 21.5757 8.49513 22.7915C7.69322 23.9052 7.44548 25.1817 7.44548 26.0623V30.5472C7.44548 31.6518 8.34091 32.5472 9.44548 32.5472C10.55 32.5472 11.4455 31.6518 11.4455 30.5472V26.0623Z" fill="#2D373D"/>
<path fill-rule="evenodd" clip-rule="evenodd" d="M5.20068 39.5776C5.20068 37.2011 7.12722 35.2746 9.50371 35.2746H25.0795C27.456 35.2746 29.3825 37.2011 29.3825 39.5776V48.4261C29.3825 50.8026 27.456 52.7291 25.0795 52.7291H19.2916V55.4564H22.8977C24.0022 55.4564 24.8977 56.3518 24.8977 57.4564C24.8977 58.5609 24.0022 59.4564 22.8977 59.4564H11.6855C10.581 59.4564 9.68553 58.5609 9.68553 57.4564C9.68553 56.3518 10.581 55.4564 11.6855 55.4564H15.2916V52.7291H9.50372C7.12722 52.7291 5.20068 50.8026 5.20068 48.4261V39.5776ZM9.50371 39.2746C9.33635 39.2746 9.20068 39.4102 9.20068 39.5776V48.4261C9.20068 48.5934 9.33635 48.7291 9.50372 48.7291H25.0795C25.2468 48.7291 25.3825 48.5934 25.3825 48.4261V39.5776C25.3825 39.4102 25.2468 39.2746 25.0795 39.2746H9.50371Z" fill="#2D373D"/>
<path fill-rule="evenodd" clip-rule="evenodd" d="M58.534 39.5776C58.534 37.2011 56.6075 35.2746 54.231 35.2746H38.6552C36.2787 35.2746 34.3522 37.2011 34.3522 39.5776V48.4261C34.3522 50.8026 36.2787 52.7291 38.6552 52.7291H44.4431V55.4564H40.837C39.7325 55.4564 38.837 56.3518 38.837 57.4564C38.837 58.5609 39.7325 59.4564 40.837 59.4564H52.0492C53.1537 59.4564 54.0492 58.5609 54.0492 57.4564C54.0492 56.3518 53.1537 55.4564 52.0492 55.4564H48.4431V52.7291H54.231C56.6075 52.7291 58.534 50.8026 58.534 48.4261V39.5776ZM54.231 39.2746C54.3983 39.2746 54.534 39.4102 54.534 39.5776V48.4261C54.534 48.5934 54.3983 48.7291 54.231 48.7291H38.6552C38.4879 48.7291 38.3522 48.5934 38.3522 48.4261V39.5776C38.3522 39.4102 38.4879 39.2746 38.6552 39.2746H54.231Z" fill="#2D373D"/>
<path d="M51.9934 25.1287C52.2006 25.4164 52.2892 25.8218 52.2892 26.0623V30.5472C52.2892 31.6518 53.1847 32.5472 54.2892 32.5472C55.3938 32.5472 56.2892 31.6518 56.2892 30.5472V26.0623C56.2892 25.1817 56.0415 23.9052 55.2396 22.7915C54.3642 21.5757 52.9229 20.6987 50.9256 20.6987C49.821 20.6987 48.9256 21.5941 48.9256 22.6987C48.9256 23.8033 49.821 24.6987 50.9256 24.6987C51.3128 24.6987 51.5398 24.7772 51.6695 24.844C51.8007 24.9117 51.9043 25.005 51.9934 25.1287Z" fill="#2D373D"/>
</svg>
