<svg width="32" height="33" viewBox="0 0 32 33" fill="none" xmlns="http://www.w3.org/2000/svg">
<path fill-rule="evenodd" clip-rule="evenodd" d="M6.58942 7.47696C9.08815 4.98781 12.4717 3.58984 15.9993 3.58984C19.5356 3.58984 22.927 4.9946 25.4274 7.49509C27.9279 9.99557 29.3327 13.387 29.3327 16.9232C29.3327 20.4594 27.9279 23.8508 25.4274 26.3513C22.927 28.8518 19.5356 30.2565 15.9993 30.2565C12.4631 30.2565 9.07174 28.8518 6.57126 26.3513C4.07077 23.8508 2.66602 20.4594 2.66602 16.9232C2.66602 13.3957 4.06387 10.0123 6.55283 7.51355C6.55875 7.50732 6.56477 7.50115 6.57088 7.49504C6.577 7.48892 6.58318 7.48289 6.58942 7.47696ZM7.31335 9.65882L8.71327 11.0587C9.10575 11.4512 9.7421 11.4512 10.1346 11.0587C10.5271 10.6663 10.5271 10.0299 10.1346 9.63742L8.73464 8.23747C10.7636 6.54031 13.333 5.59989 15.9993 5.59989C19.0025 5.59989 21.8826 6.79288 24.0061 8.91641C26.1296 11.0399 27.3226 13.9201 27.3226 16.9232C27.3226 19.5895 26.3822 22.1588 24.6851 24.1878L21.6412 21.1438C21.2487 20.7514 20.6123 20.7514 20.2199 21.1438C19.8274 21.5363 19.8274 22.1727 20.2199 22.5652L23.2638 25.6091C21.2349 27.3061 18.6656 28.2465 15.9993 28.2465C12.9962 28.2465 10.1161 27.0535 7.99258 24.9299C5.86905 22.8064 4.67607 19.9263 4.67607 16.9232C4.67607 14.257 5.61638 11.6877 7.31335 9.65882Z" fill="#2D373D"/>
<path fill-rule="evenodd" clip-rule="evenodd" d="M14.2816 10.5312H19.3039L17.5659 14.0081C17.4102 14.3197 17.4269 14.6896 17.61 14.9859C17.7931 15.2822 18.1166 15.4625 18.4649 15.4625H19.7995L14.9091 22.3091L15.3555 17.845C15.3837 17.5625 15.2912 17.2812 15.1006 17.0707C14.9101 16.8601 14.6394 16.74 14.3555 16.74H12.4189L14.2816 10.5312ZM14.1451 8.52113C13.7523 8.52101 13.37 8.64752 13.0549 8.8819C12.7396 9.11635 12.5084 9.44624 12.3956 9.82255L10.4233 16.397C10.3414 16.6696 10.3241 16.9582 10.3733 17.2386C10.4225 17.5191 10.5366 17.7843 10.7065 18.013C10.8764 18.2416 11.0975 18.4273 11.352 18.5553C11.6065 18.6833 11.8874 18.75 12.1722 18.7501H13.2449L12.5335 25.8639C12.4882 26.3171 12.7533 26.7441 13.1796 26.9045C13.6058 27.0649 14.0867 26.9187 14.3514 26.5481L22.5703 15.0416C22.7891 14.7353 22.8183 14.3323 22.6461 13.9976C22.4738 13.6629 22.1289 13.4525 21.7524 13.4525H20.0908L21.2345 11.1645C21.3735 10.886 21.4393 10.5761 21.4252 10.2651C21.4111 9.95411 21.3177 9.6519 21.1539 9.38713C20.9902 9.12236 20.7615 8.90383 20.4896 8.75227C20.2177 8.6007 19.9115 8.52114 19.6002 8.52113H14.1451Z" fill="#2D373D"/>
</svg>
