<svg width="24" height="25" viewBox="0 0 24 25" fill="none" xmlns="http://www.w3.org/2000/svg">
<path d="M7.30664 8.64505C6.89243 8.64505 6.55664 8.98084 6.55664 9.39505C6.55664 9.80926 6.89243 10.1451 7.30664 10.1451H16.5638C16.978 10.1451 17.3138 9.80926 17.3138 9.39505C17.3138 8.98084 16.978 8.64505 16.5638 8.64505H7.30664Z" fill="#2D373D"/>
<path d="M6.55664 13.0751C6.55664 12.6608 6.89243 12.3251 7.30664 12.3251H16.5638C16.978 12.3251 17.3138 12.6608 17.3138 13.0751C17.3138 13.4893 16.978 13.8251 16.5638 13.8251H7.30664C6.89243 13.8251 6.55664 13.4893 6.55664 13.0751Z" fill="#2D373D"/>
<path d="M7.30664 16.0051C6.89243 16.0051 6.55664 16.3408 6.55664 16.7551C6.55664 17.1693 6.89243 17.5051 7.30664 17.5051H11.9352C12.3494 17.5051 12.6852 17.1693 12.6852 16.7551C12.6852 16.3408 12.3494 16.0051 11.9352 16.0051H7.30664Z" fill="#2D373D"/>
<path fill-rule="evenodd" clip-rule="evenodd" d="M18.0759 3.0853C17.7196 2.7215 17.2342 2.51154 16.7216 2.51172H4.97221C4.45117 2.51172 3.95887 2.72878 3.60148 3.10302C3.24521 3.47609 3.05078 3.97501 3.05078 4.48839V20.4351C3.05078 20.9484 3.24521 21.4473 3.60148 21.8204C3.95887 22.1947 4.45117 22.4117 4.97221 22.4117H19.0294C19.5504 22.4117 20.0427 22.1947 20.4001 21.8204C20.7563 21.4473 20.9508 20.9484 20.9508 20.4351V6.84597C20.9508 6.58692 20.9013 6.32972 20.8044 6.08922C20.7075 5.84867 20.5647 5.6286 20.3827 5.44287L18.0759 3.0853ZM16.7221 4.01172C16.8208 4.01166 16.9226 4.05165 17.004 4.13462L19.3113 6.49262C19.3532 6.53543 19.3884 6.58852 19.413 6.64965C19.4376 6.71082 19.4508 6.77776 19.4508 6.84611V20.4351C19.4508 20.5723 19.3984 20.6974 19.3153 20.7845C19.2333 20.8703 19.1297 20.9117 19.0294 20.9117H4.97221C4.87188 20.9117 4.76827 20.8703 4.68629 20.7845C4.60318 20.6974 4.55078 20.5723 4.55078 20.4351V4.48839C4.55078 4.3511 4.60319 4.226 4.68629 4.13898C4.76827 4.05313 4.87188 4.01172 4.97221 4.01172L16.7221 4.01172Z" fill="#2D373D"/>
</svg>
