<svg width="24" height="24" viewBox="0 0 24 24" fill="none" xmlns="http://www.w3.org/2000/svg">
<path d="M22.05 12.2252C22.05 12.1502 22.05 12.0752 22.05 12.0002C22.05 11.8502 22.05 11.7002 22.05 11.5502C22.05 11.4002 22.05 11.3252 22.05 11.1752C22.05 10.9502 21.975 10.7252 21.975 10.5752V10.5002C21.225 5.70019 17.025 1.9502 12 1.9502C7.27502 1.9502 3.30002 5.25019 2.25002 9.67519C2.17502 9.75019 2.17502 9.8252 2.10002 9.9752C1.35002 13.6502 2.70002 17.4752 5.70002 19.8002C5.77502 19.8752 5.85002 19.9502 5.92502 19.9502C7.57502 21.2252 9.67502 21.9752 12 21.9752C15.75 21.9752 18.975 19.8752 20.7 16.8752C20.775 16.8002 20.775 16.8002 20.85 16.7252C21.675 15.3002 22.05 13.8002 22.05 12.2252ZM20.325 14.0252C20.325 14.1752 20.25 14.3252 20.25 14.4752C20.175 14.7752 20.025 15.1502 19.875 15.4502H18.75C18.525 15.4502 18.375 15.3002 18.3 15.0752L17.625 11.1752C17.55 10.8752 17.25 10.5752 16.875 10.5752H15.6C15.525 10.5752 15.45 10.5752 15.45 10.5752C15.3 10.5752 15.225 10.4252 15.15 10.3502C15 10.2002 15 10.1252 15 9.9752L15.6 7.5002C15.6 7.2752 15.825 7.1252 16.05 7.1252V7.0502H18.975C19.95 8.4752 20.55 10.1252 20.55 12.0002C20.55 12.6002 20.475 13.1252 20.4 13.6502C20.4 13.8002 20.325 13.9502 20.325 14.0252ZM6.30002 14.9252L5.70002 17.7752L5.62502 17.7002C5.47502 17.5502 5.32502 17.3252 5.17502 17.1002C5.10002 17.0252 5.10002 17.0252 5.02502 16.9502C4.87502 16.7252 4.72502 16.5752 4.65002 16.3502C4.65002 16.2752 4.57502 16.2752 4.57502 16.2002C4.42502 15.9752 4.27502 15.6752 4.20002 15.4502C3.60002 14.1002 3.37502 12.5252 3.52502 10.9502C3.52502 10.8752 3.52502 10.8752 3.52502 10.8002H7.42502C7.65002 10.8002 7.80002 10.9502 7.87502 11.1752L8.47502 13.6502C8.47502 13.7252 8.47502 13.7252 8.47502 13.8002C8.47502 13.9502 8.40002 14.1002 8.32502 14.1752C8.17502 14.2502 8.10002 14.3252 7.95002 14.3252H7.05002C6.67502 14.3252 6.37502 14.5502 6.30002 14.9252ZM12 20.5502C10.125 20.5502 8.47502 19.9502 7.05002 18.9752L7.65002 15.8252H7.95002C8.47502 15.8252 8.92502 15.6002 9.30002 15.2252C9.67502 14.8502 9.90002 14.3252 9.90002 13.8002C9.90002 13.6502 9.90002 13.5002 9.82502 13.3502L9.22502 10.8752C9.00002 9.97519 8.17502 9.3752 7.27502 9.3752H3.90002C5.02502 5.9252 8.17502 3.4502 12 3.4502C14.175 3.4502 16.2 4.2752 17.775 5.7002H16.05C15.15 5.7002 14.325 6.3002 14.1 7.2002L13.575 9.67519C13.425 10.2002 13.5 10.7252 13.8 11.1752C14.025 11.6252 14.475 11.9252 15 12.0752C15.15 12.1502 15.3 12.1502 15.45 12.1502H16.125L16.65 15.4502C16.8 16.4252 17.625 17.1002 18.6 17.1002H18.825C17.325 19.2002 14.85 20.5502 12 20.5502Z" fill="#2D373D"/>
</svg>
