<svg width="32" height="33" viewBox="0 0 32 33" fill="none" xmlns="http://www.w3.org/2000/svg">
<path fill-rule="evenodd" clip-rule="evenodd" d="M11.6006 4.92188C10.2656 4.92188 8.98532 5.45219 8.04135 6.39616C7.42709 7.01042 6.98798 7.7671 6.75618 8.58858H6.4668C5.91451 8.58858 5.4668 9.0363 5.4668 9.58858C5.4668 10.1409 5.91451 10.5886 6.4668 10.5886H6.60702C6.74666 11.6901 7.24787 12.7212 8.04135 13.5147C8.5521 14.0254 9.16131 14.4151 9.82436 14.6651C9.42375 14.7611 9.0299 14.8899 8.64692 15.0512C7.26852 15.6315 6.09219 16.606 5.26549 17.8523C4.4388 19.0987 3.99856 20.5614 4 22.057C4.00054 22.6093 4.44868 23.0566 5.00097 23.056C5.55325 23.0555 6.00054 22.6073 6 22.0551C5.99894 20.9534 6.32323 19.8759 6.93218 18.9578C7.54114 18.0398 8.40764 17.322 9.423 16.8945C10.4383 16.467 11.5573 16.3488 12.6396 16.5549C13.7218 16.7609 14.7191 17.2819 15.5064 18.0526C15.901 18.4389 16.5341 18.4322 16.9205 18.0375C17.3068 17.6429 17.3001 17.0098 16.9054 16.6234C15.924 15.6627 14.7021 14.9877 13.3713 14.6672C14.0365 14.4172 14.6477 14.0268 15.1598 13.5147C15.9533 12.7212 16.4545 11.6901 16.5942 10.5886H16.734C17.2863 10.5886 17.734 10.1409 17.734 9.58858C17.734 9.0363 17.2863 8.58858 16.734 8.58858H16.445C16.2132 7.7671 15.7741 7.01042 15.1598 6.39616C14.2159 5.45219 12.9356 4.92188 11.6006 4.92188ZM14.3088 8.58858C14.1649 8.30353 13.9756 8.04039 13.7456 7.81038C13.6312 7.69598 13.5086 7.59166 13.3792 7.498L13.395 8.58858H14.3088ZM12.0615 8.58858L12.0379 6.95355C11.8939 6.93258 11.7478 6.92187 11.6006 6.92187C11.4545 6.92187 11.3095 6.93241 11.1667 6.95306L11.1667 8.58858H12.0615ZM9.83333 8.58858L9.83333 7.48981C9.69973 7.58557 9.5733 7.69263 9.45556 7.81038C9.22555 8.04039 9.03629 8.30353 8.89243 8.58858H9.83333ZM8.63386 10.5886C8.75517 11.1569 9.03831 11.6832 9.45556 12.1004C10.0245 12.6693 10.796 12.9889 11.6006 12.9889C12.4051 12.9889 13.1767 12.6693 13.7456 12.1004C14.1629 11.6832 14.446 11.1569 14.5673 10.5886H8.63386Z" fill="#2D373D"/>
<path fill-rule="evenodd" clip-rule="evenodd" d="M24.4146 13.7846C24.8069 13.9299 25.0672 14.304 25.0672 14.7223V19.5893H26.6356C26.8964 19.5897 27.1516 19.6647 27.3711 19.8055C27.5906 19.9462 27.7653 20.1468 27.8745 20.3836C27.9837 20.6204 28.0229 20.8835 27.9874 21.1418C27.9519 21.4002 27.8433 21.643 27.6743 21.8416L27.6713 21.8451L21.8924 28.5745C21.6199 28.8918 21.1786 29.006 20.7863 28.8607C20.3941 28.7154 20.1337 28.3413 20.1337 27.923V23.056H18.568C18.3073 23.0561 18.0509 22.9816 17.8312 22.8413C17.6111 22.7008 17.4359 22.5002 17.3262 22.2633C17.2166 22.0264 17.1771 21.763 17.2124 21.5043C17.2478 21.2457 17.3565 21.0025 17.5256 20.8037L17.5287 20.8001L23.3086 14.0707C23.5812 13.7534 24.0224 13.6393 24.4146 13.7846ZM19.9454 21.056H21.1337C21.686 21.056 22.1337 21.5037 22.1337 22.056V25.2236L25.2547 21.5893H24.0672C23.5149 21.5893 23.0672 21.1415 23.0672 20.5893V17.4213L19.9454 21.056Z" fill="#2D373D"/>
</svg>
