<svg width="16" height="17" viewBox="0 0 16 17" fill="none" xmlns="http://www.w3.org/2000/svg">
<path fill-rule="evenodd" clip-rule="evenodd" d="M3.0993 4.87689C3.33055 4.64582 3.64409 4.51602 3.97101 4.51602C4.29803 4.51602 4.61166 4.6459 4.84294 4.8771M4.84294 4.8771L6.13936 6.17303C6.25394 6.28756 6.34489 6.42358 6.40691 6.57324C6.46893 6.72292 6.50086 6.88336 6.50086 7.04539C6.50086 7.20741 6.46893 7.36785 6.40691 7.51753C6.34491 7.66714 6.25405 7.80307 6.13952 7.91757C6.09579 7.96132 6.07122 8.02065 6.07122 8.08251C6.07122 8.14437 6.09578 8.20369 6.13951 8.24744L8.21318 10.3216C8.25693 10.3653 8.31626 10.3899 8.37812 10.3899C8.43998 10.3899 8.49931 10.3653 8.54306 10.3216C8.65756 10.2071 8.79349 10.1162 8.9431 10.0542C9.09278 9.99218 9.25322 9.96026 9.41524 9.96026C9.57727 9.96026 9.73771 9.99218 9.88739 10.0542C10.037 10.1162 10.1729 10.207 10.2873 10.3215L11.5843 11.6175C11.6989 11.732 11.7898 11.868 11.8519 12.0177C11.9139 12.1674 11.9458 12.3278 11.9458 12.4899C11.9458 12.6519 11.9139 12.8123 11.8519 12.962C11.7898 13.1117 11.6989 13.2477 11.5843 13.3622L11.2771 13.6695C10.8427 14.1041 10.2729 14.3777 9.66202 14.4448C9.05112 14.5119 8.43561 14.3685 7.91721 14.0385C7.91106 14.0345 7.90499 14.0305 7.89902 14.0263L7.89752 14.0253C5.74376 12.5695 3.88884 10.7145 2.4331 8.56073C2.42819 8.55347 2.42347 8.54607 2.41895 8.53855C2.09146 8.02145 1.94936 7.40834 2.01609 6.79976C2.08307 6.18886 2.35646 5.6191 2.79109 5.18461L3.0993 4.87689M8.46074 13.199C8.78579 13.4039 9.17075 13.4927 9.55286 13.4508C9.93749 13.4085 10.2962 13.2363 10.5697 12.9626L10.8773 12.655C10.899 12.6333 10.9163 12.6075 10.9281 12.5792C10.9398 12.5509 10.9458 12.5205 10.9458 12.4899C10.9458 12.4592 10.9398 12.4289 10.9281 12.4006C10.9163 12.3722 10.8991 12.3465 10.8775 12.3249L9.58051 11.0289C9.55884 11.0072 9.53287 10.9898 9.50456 10.978C9.47624 10.9663 9.44589 10.9603 9.41524 10.9603C9.38459 10.9603 9.35425 10.9663 9.32593 10.978C9.29761 10.9898 9.27189 11.007 9.25022 11.0286C9.01895 11.2598 8.70514 11.3899 8.37812 11.3899C8.05109 11.3899 7.73746 11.26 7.50618 11.0288L5.43232 8.95446C5.20111 8.72319 5.07122 8.40954 5.07122 8.08251C5.07122 7.75548 5.2011 7.44185 5.43231 7.21057C5.45399 7.18891 5.47135 7.16301 5.48309 7.1347C5.49482 7.10638 5.50086 7.07604 5.50086 7.04539C5.50086 7.01474 5.49482 6.98439 5.48309 6.95607C5.47135 6.92776 5.45416 6.90203 5.43248 6.88037L4.13596 5.58434C4.09221 5.54061 4.03287 5.51602 3.97101 5.51602C3.90915 5.51602 3.84982 5.54059 3.80607 5.58433L3.49808 5.89183C3.22456 6.16536 3.05229 6.52423 3.01013 6.90875C2.96796 7.29338 3.05827 7.68089 3.26614 8.00724C3.26683 8.00832 3.26751 8.0094 3.26818 8.01048C4.65214 10.0554 6.41466 11.8166 8.46074 13.199Z" fill="#2D373D"/>
<path d="M13.9635 2.77378C13.9391 2.71322 13.9023 2.65647 13.8533 2.60738C13.7556 2.50975 13.6277 2.46094 13.4997 2.46094C13.4997 2.46094 13.4997 2.46094 13.4997 2.46094H10.5665C10.2904 2.46094 10.0665 2.6848 10.0665 2.96094C10.0665 3.23708 10.2904 3.46094 10.5665 3.46094H12.2926L8.37972 7.37381C8.18446 7.56907 8.18446 7.88565 8.37972 8.08091C8.57499 8.27618 8.89157 8.27618 9.08683 8.08091L12.9997 4.16805V5.89412C12.9997 6.17026 13.2236 6.39412 13.4997 6.39412C13.7758 6.39412 13.9997 6.17026 13.9997 5.89412V2.96094C13.9997 2.95573 13.9996 2.95055 13.9995 2.94538" fill="#2D373D"/>
</svg>
