<svg width="24" height="25" viewBox="0 0 24 25" fill="none" xmlns="http://www.w3.org/2000/svg">
<path d="M5.77485 12.9231C6.37485 12.9231 6.82485 12.4731 6.82485 11.8731C6.82485 11.2731 6.37485 10.8231 5.77485 10.8231C5.17485 10.8231 4.72485 11.2731 4.72485 11.8731C4.72485 12.4731 5.17485 12.9231 5.77485 12.9231Z" fill="#2D373D"/>
<path d="M18.2246 19.148C18.8246 19.148 19.2746 18.698 19.2746 18.098C19.2746 17.498 18.8246 17.048 18.2246 17.048C17.6246 17.048 17.1746 17.498 17.1746 18.098C17.1746 18.698 17.6246 19.148 18.2246 19.148Z" fill="#2D373D"/>
<path d="M21.2997 8.04797H2.69971C2.24971 8.04797 1.94971 8.34797 1.94971 8.79797V21.173C1.94971 21.623 2.24971 21.923 2.69971 21.923H21.2997C21.7497 21.923 22.0497 21.623 22.0497 21.173V8.79797C22.0497 8.34797 21.7497 8.04797 21.2997 8.04797ZM20.5497 20.423H3.44971V9.54797H20.5497V20.423Z" fill="#2D373D"/>
<path d="M11.9994 18.248C13.7994 18.248 15.2244 16.748 15.2244 15.023C15.2244 13.223 13.7994 11.798 11.9994 11.798C10.1994 11.798 8.77441 13.223 8.77441 15.023C8.77441 16.823 10.1994 18.248 11.9994 18.248ZM11.9994 13.223C12.9744 13.223 13.7244 13.973 13.7244 14.948C13.7244 15.923 12.9744 16.673 11.9994 16.673C11.0244 16.673 10.2744 15.923 10.2744 14.948C10.2744 13.973 11.0244 13.223 11.9994 13.223Z" fill="#2D373D"/>
<path d="M3.97485 6.92316H20.0999C20.4749 6.92316 20.8499 6.62316 20.8499 6.17316C20.8499 5.72316 20.5499 5.42316 20.0999 5.42316H3.97485C3.52485 5.42316 3.22485 5.72316 3.22485 6.17316C3.22485 6.62316 3.52485 6.92316 3.97485 6.92316Z" fill="#2D373D"/>
<path d="M6.44971 4.37305H17.5497C17.9997 4.37305 18.3747 4.07305 18.3747 3.62305C18.3747 3.17305 18.0747 2.87305 17.6247 2.87305H6.44971C5.99971 2.87305 5.69971 3.17305 5.69971 3.62305C5.69971 4.07305 5.99971 4.37305 6.44971 4.37305Z" fill="#2D373D"/>
</svg>
