<svg width="32" height="32" viewBox="0 0 32 32" fill="none" xmlns="http://www.w3.org/2000/svg">
<path d="M27.1998 5.4001C26.7998 5.0001 26.1998 5.0001 25.7998 5.4001L5.0998 25.2001C4.6998 25.6001 4.6998 26.2001 5.0998 26.6001C5.2998 26.8001 5.4998 26.9001 5.7998 26.9001C6.0998 26.9001 6.2998 26.8001 6.4998 26.7001L27.1998 6.8001C27.5998 6.4001 27.5998 5.8001 27.1998 5.4001Z" fill="#2D373D"/>
<path d="M28.6998 14.9001C27.6998 13.7001 26.4998 12.6001 25.1998 11.7001C24.7998 11.4001 24.0998 11.5001 23.7998 11.9001C23.4998 12.3001 23.5998 13.0001 23.9998 13.3001C25.0998 14.2001 26.1998 15.1001 27.1998 16.2001C27.4998 16.5001 27.4998 17.0001 27.1998 17.3001C24.5998 20.2001 20.2998 23.3001 15.9998 23.2001C14.9998 23.3001 13.9998 23.1001 12.9998 22.8001C12.3998 22.7001 11.7998 22.9001 11.6998 23.5001C11.5998 24.1001 11.8998 24.6001 12.3998 24.8001C13.4998 25.1001 14.6998 25.3001 15.8998 25.3001C15.9998 25.3001 16.0998 25.3001 16.1998 25.3001C20.9998 25.3001 25.7998 21.9001 28.6998 18.7001C29.6998 17.6001 29.6998 16.0001 28.6998 14.9001Z" fill="#2D373D"/>
<path d="M6.89981 21.7001C7.19981 21.7001 7.4998 21.6001 7.6998 21.3001C7.9998 20.9001 7.8998 20.2001 7.4998 19.9001C6.5998 19.2001 5.5998 18.3001 4.7998 17.3001C4.4998 17.0001 4.4998 16.5001 4.7998 16.2001C7.39981 13.3001 11.6998 10.2001 15.9998 10.3001C16.7998 10.3001 17.5998 10.4001 18.3998 10.6001C18.8998 10.8001 19.4998 10.4001 19.5998 9.9001C19.7998 9.4001 19.3998 8.8001 18.8998 8.7001C17.8998 8.5001 16.9998 8.4001 15.9998 8.4001C11.0998 8.3001 6.1998 11.7001 3.2998 14.9001C2.2998 16.0001 2.2998 17.6001 3.2998 18.7001C4.1998 19.7001 5.1998 20.7001 6.2998 21.5001C6.4998 21.6001 6.69981 21.7001 6.89981 21.7001Z" fill="#2D373D"/>
<path d="M10.8999 16.8002C10.8999 17.4002 11.2999 17.8002 11.8999 17.8002C12.3999 17.8002 12.8999 17.4002 12.8999 16.8002C12.8999 15.1002 14.2999 13.7002 15.9999 13.7002C16.5999 13.7002 16.9999 13.3002 16.9999 12.7002C16.9999 12.1002 16.5999 11.7002 15.9999 11.7002C13.1999 11.7002 10.8999 14.0002 10.8999 16.8002Z" fill="#2D373D"/>
<path d="M19.0998 16.9001C19.0998 17.7001 18.7998 18.5001 18.1998 19.1001C17.5998 19.7001 16.7998 20.0001 15.9998 20.0001V22.0001C17.3998 22.0001 18.5998 21.4001 19.5998 20.5001C20.5998 19.6001 21.0998 18.3001 21.0998 16.9001C21.0998 16.3001 20.6998 15.9001 20.0998 15.9001C19.4998 15.9001 19.0998 16.3001 19.0998 16.9001Z" fill="#2D373D"/>
</svg>
