<svg width="64" height="65" viewBox="0 0 64 65" fill="none" xmlns="http://www.w3.org/2000/svg">
<path fill-rule="evenodd" clip-rule="evenodd" d="M19.9998 23.5911C24.7863 23.5911 28.6665 19.7109 28.6665 14.9245C28.6665 10.138 24.7863 6.25781 19.9998 6.25781C15.2134 6.25781 11.3332 10.138 11.3332 14.9245C11.3332 19.7109 15.2134 23.5911 19.9998 23.5911ZM19.9998 19.5911C22.5772 19.5911 24.6665 17.5018 24.6665 14.9245C24.6665 12.3472 22.5772 10.2578 19.9998 10.2578C17.4225 10.2578 15.3332 12.3472 15.3332 14.9245C15.3332 17.5018 17.4225 19.5911 19.9998 19.5911Z" fill="#2D373D"/>
<path d="M16.6565 24.3531C17.2799 25.2649 17.0461 26.5095 16.1343 27.1329C15.3876 27.6435 14.6665 28.4292 14.6665 29.5927V40.2594C14.6665 40.924 14.8282 41.9051 15.2263 42.6424C15.5777 43.2931 15.9912 43.5927 16.6665 43.5927C17.7711 43.5927 18.6665 44.4882 18.6665 45.5927V52.2594C18.6665 53.2582 18.9458 54.1337 19.3871 54.7092C19.7797 55.2213 20.3625 55.5927 21.3332 55.5927C22.3038 55.5927 22.8867 55.2213 23.2793 54.7092C23.7205 54.1337 23.9998 53.2582 23.9998 52.2594V45.5927C23.9998 44.7319 24.5507 43.9676 25.3674 43.6954C26.019 43.4782 27.2048 42.7519 27.7239 41.5924C28.1752 40.5843 29.3583 40.1328 30.3665 40.5841C31.3746 41.0354 31.8261 42.2186 31.3748 43.2267C30.5851 44.9908 29.2104 46.1685 27.9998 46.8648V52.2594C27.9998 53.9273 27.5458 55.7184 26.4537 57.1429C25.313 58.6308 23.5625 59.5927 21.3332 59.5927C19.1038 59.5927 17.3533 58.6308 16.2126 57.1429C15.1205 55.7184 14.6665 53.9273 14.6665 52.2594V47.2403C13.2675 46.7098 12.3042 45.6496 11.7067 44.543C10.9048 43.0581 10.6665 41.3725 10.6665 40.2594V29.5927C10.6665 26.5031 12.6588 24.6637 13.8767 23.831C14.7885 23.2075 16.033 23.4413 16.6565 24.3531Z" fill="#2D373D"/>
<path fill-rule="evenodd" clip-rule="evenodd" d="M22.1074 25.5363C21.3264 24.7553 20.06 24.7553 19.279 25.5363C18.4979 26.3174 18.4979 27.5837 19.279 28.3647L33.7956 42.8814C32.5976 44.9493 32.4205 47.5028 33.4744 49.9086C33.7875 50.6233 34.4434 51.5655 35.0834 52.4262C35.7683 53.3473 36.5899 54.3764 37.3719 55.3293C38.1562 56.2852 38.9126 57.1789 39.4721 57.8328C39.7521 58.16 39.9835 58.428 40.1453 58.6147L40.3332 58.831L40.4013 58.909C40.7659 59.3253 41.2867 59.572 41.8398 59.5903C42.3929 59.6086 42.9289 59.3969 43.3202 59.0056L52.7483 49.5775C53.1347 49.1911 53.3462 48.6633 53.3335 48.1169C53.3208 47.5706 53.0835 47.0516 52.6795 46.6835L52.6616 46.6672L52.6087 46.6192L52.4097 46.4399C52.238 46.2857 51.991 46.0651 51.687 45.7971C51.0799 45.2618 50.2418 44.534 49.3209 43.7671C48.4027 43.0024 47.3878 42.1866 46.4295 41.4804C45.5024 40.7971 44.5186 40.1335 43.6903 39.7493C41.2632 38.6235 38.6868 38.8449 36.622 40.0509L22.1074 25.5363ZM48.4177 48.2513L42.017 54.6519C41.5538 54.1056 41.0152 53.4636 40.4641 52.7919C39.7 51.8608 38.9237 50.8872 38.2932 50.0394C37.6178 49.1311 37.2409 48.538 37.1383 48.3036C36.4455 46.7221 36.7967 45.1701 37.8547 44.112C38.9379 43.0288 40.501 42.6793 42.0072 43.378C42.445 43.581 43.155 44.0361 44.0563 44.7003C44.9264 45.3416 45.8745 46.1024 46.7611 46.8407C47.3636 47.3426 47.9311 47.8285 48.4177 48.2513Z" fill="#2D373D"/>
</svg>
