<svg width="64" height="65" viewBox="0 0 64 65" fill="none" xmlns="http://www.w3.org/2000/svg">
<path d="M50.5002 38.7956C53.7218 38.7956 56.3335 36.1839 56.3335 32.9622C56.3335 29.7406 53.7218 27.1289 50.5002 27.1289C47.2785 27.1289 44.6668 29.7406 44.6668 32.9622C44.6668 36.1839 47.2785 38.7956 50.5002 38.7956Z" fill="#2D373D"/>
<path d="M11.1668 38.7956C14.3885 38.7956 17.0002 36.1839 17.0002 32.9622C17.0002 29.7406 14.3885 27.1289 11.1668 27.1289C7.94517 27.1289 5.3335 29.7406 5.3335 32.9622C5.3335 36.1839 7.94517 38.7956 11.1668 38.7956Z" fill="#2D373D"/>
<path d="M30.8335 38.7956C34.0552 38.7956 36.6668 36.1839 36.6668 32.9622C36.6668 29.7406 34.0552 27.1289 30.8335 27.1289C27.6118 27.1289 25.0002 29.7406 25.0002 32.9622C25.0002 36.1839 27.6118 38.7956 30.8335 38.7956Z" fill="#2D373D"/>
</svg>
