<svg width="64" height="65" viewBox="0 0 64 65" fill="none" xmlns="http://www.w3.org/2000/svg">
<path d="M28.6543 9.24489C29.6109 9.79721 29.9386 11.0204 29.3863 11.977L27.9195 14.5172C27.3672 15.4738 26.144 15.8015 25.1874 15.2492C24.2309 14.6968 23.9032 13.4736 24.4555 12.5171L25.9223 9.97682C26.4746 9.02026 27.6978 8.69256 28.6543 9.24489Z" fill="#2D373D"/>
<path fill-rule="evenodd" clip-rule="evenodd" d="M21.7873 14.7376C20.0899 14.7376 18.462 15.4119 17.2617 16.6121C16.0614 17.8123 15.387 19.4402 15.387 21.1376C15.387 22.835 16.0614 24.4629 17.2617 25.6631C18.462 26.8633 20.0899 27.5376 21.7873 27.5376C23.4847 27.5376 25.1126 26.8633 26.3129 25.6631C27.5132 24.4629 28.1876 22.835 28.1876 21.1376C28.1876 19.4402 27.5132 17.8123 26.3129 16.6121C25.1126 15.4119 23.4847 14.7376 21.7873 14.7376ZM20.09 19.4406C20.5401 18.9905 21.1507 18.7376 21.7873 18.7376C22.4239 18.7376 23.0345 18.9905 23.4846 19.4406C23.9347 19.8907 24.1876 20.5011 24.1876 21.1376C24.1876 21.7741 23.9347 22.3845 23.4846 22.8346C23.0345 23.2847 22.4239 23.5376 21.7873 23.5376C21.1507 23.5376 20.5401 23.2847 20.09 22.8346C19.6399 22.3845 19.387 21.7741 19.387 21.1376C19.387 20.5011 19.6399 19.8907 20.09 19.4406Z" fill="#2D373D"/>
<path fill-rule="evenodd" clip-rule="evenodd" d="M50.8092 31.0829C49.1401 30.7768 47.4178 31.1459 46.0209 32.1092L37.2839 38.3107H18.8537C17.1563 38.3107 15.5284 38.9849 14.3281 40.1851C13.1278 41.3854 12.4535 43.0132 12.4535 44.7107C12.4535 46.4081 13.1278 48.036 14.3281 49.2362C15.2716 50.1797 16.4794 50.7981 17.7775 51.0195L16.9095 54.4915C16.6416 55.5631 17.2931 56.649 18.3647 56.9169C19.4362 57.1848 20.5221 56.5333 20.79 55.4617L21.8779 51.1106L39.3908 51.1106C39.4652 51.1105 39.5394 51.1092 39.6134 51.1065L41.9959 55.8711C42.4899 56.859 43.6912 57.2594 44.6792 56.7654C45.6671 56.2714 46.0675 55.0701 45.5735 54.0821L43.3819 49.6992C43.4622 49.6345 43.541 49.5677 43.6184 49.4988L53.3029 42.6329C54.6923 41.6684 55.6436 40.1929 55.9484 38.5289C56.254 36.8606 55.8842 35.1382 54.9214 33.7419C53.9574 32.3455 52.4782 31.3891 50.8092 31.0829ZM20.3812 47.1106H39.3858C39.9844 47.1097 40.5614 46.8823 40.9994 46.4742C41.0645 46.4135 41.1336 46.3572 41.2062 46.3057L51.0177 39.3498C51.5409 38.9881 51.8993 38.4337 52.0139 37.8081C52.1284 37.1828 51.9901 36.5375 51.6293 36.0139C51.2678 35.4906 50.7133 35.1321 50.0875 35.0173C49.4653 34.9032 48.8234 35.0392 48.3012 35.3956L39.0792 41.9416C38.7409 42.1817 38.3364 42.3107 37.9216 42.3107H18.8537C18.2171 42.3107 17.6066 42.5636 17.1564 43.0137C16.7063 43.4638 16.4535 44.0742 16.4535 44.7107C16.4535 45.3471 16.7063 45.9576 17.1564 46.4077C17.6066 46.8578 18.2171 47.1106 18.8537 47.1106H20.2488C20.2927 47.1092 20.3369 47.1092 20.3812 47.1106Z" fill="#2D373D"/>
<path d="M28.5879 21.1382C28.5879 20.0336 29.4833 19.1382 30.5879 19.1382H33.5214C34.626 19.1382 35.5214 20.0336 35.5214 21.1382C35.5214 22.2428 34.626 23.1382 33.5214 23.1382H30.5879C29.4833 23.1382 28.5879 22.2428 28.5879 21.1382Z" fill="#2D373D"/>
<path d="M10.0532 19.1382C8.94865 19.1382 8.05322 20.0336 8.05322 21.1382C8.05322 22.2428 8.94865 23.1382 10.0532 23.1382H12.9867C14.0913 23.1382 14.9867 22.2428 14.9867 21.1382C14.9867 20.0336 14.0913 19.1382 12.9867 19.1382H10.0532Z" fill="#2D373D"/>
<path d="M19.119 29.7585C19.6713 28.802 19.3436 27.5788 18.3871 27.0265C17.4305 26.4741 16.2073 26.8018 15.655 27.7584L14.1882 30.2987C13.6359 31.2552 13.9636 32.4784 14.9202 33.0307C15.8767 33.5831 17.0999 33.2554 17.6523 32.2988L19.119 29.7585Z" fill="#2D373D"/>
<path d="M14.9202 9.24489C15.8767 8.69256 17.0999 9.02026 17.6523 9.97682L19.119 12.5171C19.6713 13.4736 19.3436 14.6968 18.3871 15.2492C17.4305 15.8015 16.2073 15.4738 15.655 14.5172L14.1882 11.977C13.6359 11.0204 13.9636 9.79721 14.9202 9.24489Z" fill="#2D373D"/>
<path d="M27.9195 27.7584C27.3672 26.8018 26.144 26.4741 25.1874 27.0265C24.2309 27.5788 23.9032 28.802 24.4555 29.7585L25.9223 32.2988C26.4746 33.2554 27.6978 33.5831 28.6543 33.0307C29.6109 32.4784 29.9386 31.2552 29.3863 30.2987L27.9195 27.7584Z" fill="#2D373D"/>
</svg>
