<svg width="16" height="17" viewBox="0 0 16 17" fill="none" xmlns="http://www.w3.org/2000/svg">
<path d="M14.2002 10.4745H13.8502V10.1245C13.8502 8.92449 12.9002 7.97449 11.7002 7.97449C10.5002 7.97449 9.55023 8.92449 9.55023 10.1245V10.4745H9.25023C8.95023 10.4745 8.75023 10.6745 8.75023 10.9745V15.1245C8.75023 15.4245 8.95023 15.6245 9.25023 15.6245H14.2002C14.5002 15.6245 14.7002 15.4245 14.7002 15.1245V10.9745C14.7002 10.6745 14.5002 10.4745 14.2002 10.4745ZM10.5502 10.1245C10.5502 9.47449 11.0502 8.97449 11.7002 8.97449C12.3502 8.97449 12.8502 9.47449 12.8502 10.1245V10.4745H10.5502V10.1245ZM13.7002 14.6245H9.75023V11.4745H13.7002V14.6245Z" fill="#2D373D"/>
<path d="M11.7002 12.3745C11.3002 12.3745 11.0002 12.6745 11.0002 13.0745C11.0002 13.4745 11.3002 13.7745 11.7002 13.7745C12.1002 13.7745 12.4002 13.4745 12.4002 13.0745C12.4002 12.6745 12.1002 12.3745 11.7002 12.3745Z" fill="#2D373D"/>
<path d="M7.60022 12.3245C7.85022 12.3245 8.05022 12.1245 8.05022 11.8245C8.05022 11.5245 7.85022 11.3245 7.55022 11.3245H5.80022C5.70022 10.5745 5.65022 9.82451 5.60022 9.02451H8.85022C9.10022 9.02451 9.30023 8.8245 9.30023 8.5245C9.30023 8.2245 9.10022 8.0245 8.80022 8.0245H5.65022C5.70022 7.2245 5.80022 6.4245 5.95022 5.7245H10.0502C10.1502 6.1245 10.2002 6.5245 10.2502 6.9245C10.3002 7.1745 10.5002 7.3745 10.7502 7.3745C11.1002 7.3245 11.3002 7.12451 11.3002 6.8245C11.2502 6.4745 11.2002 6.0745 11.1502 5.7245H12.7502C13.2502 6.4245 13.5502 7.2245 13.7002 8.1245C13.7002 8.4245 14.0002 8.62451 14.2502 8.5745C14.5502 8.5745 14.7502 8.2745 14.7002 8.0245C14.2002 4.8745 11.6002 2.4245 8.45022 2.2245C4.75022 1.9745 1.55022 4.7745 1.30022 8.4745C1.25022 9.7245 1.50022 10.9245 2.00022 11.9745C2.00022 12.0745 2.05022 12.1245 2.10022 12.2245C2.35022 12.6245 2.60022 13.0245 2.90022 13.3745C4.10022 14.7245 5.75023 15.5745 7.55022 15.6745C7.80022 15.6745 8.00022 15.4745 8.00022 15.1745C8.05022 14.8745 7.85022 14.6245 7.55022 14.6245C7.25022 14.6245 7.00022 14.5745 6.70022 14.5245C6.35022 13.9745 6.10022 13.2245 5.90022 12.3745H7.60022V12.3245ZM4.80022 11.3245H2.85022C2.50022 10.6245 2.35022 9.82451 2.30022 9.02451H4.60022C4.60022 9.82451 4.65022 10.5745 4.80022 11.3245ZM4.65022 8.0245H2.35022C2.50022 7.1745 2.80022 6.4245 3.30022 5.7245H4.90022C4.75022 6.4245 4.65022 7.2245 4.65022 8.0245ZM4.20022 4.7245C4.60022 4.3745 5.00022 4.0745 5.50022 3.8245C5.40022 4.1245 5.30022 4.4245 5.20022 4.7245H4.20022ZM10.8502 4.7245C10.7502 4.4245 10.6502 4.1245 10.5002 3.8245C11.0002 4.0745 11.4502 4.3745 11.8502 4.7245H10.8502ZM8.40022 3.2245C8.65022 3.2245 8.90022 3.2745 9.15022 3.3245C9.40022 3.7745 9.60023 4.2245 9.80023 4.7245H6.25022C6.45022 4.1745 6.65022 3.7245 6.90022 3.3245C7.35022 3.2245 7.85022 3.1745 8.40022 3.2245ZM5.45022 14.0245C4.65022 13.6245 3.95022 13.0245 3.45022 12.3245H4.95022C5.10022 12.9245 5.25022 13.4745 5.45022 14.0245Z" fill="#2D373D"/>
</svg>
