<svg width="64" height="65" viewBox="0 0 64 65" fill="none" xmlns="http://www.w3.org/2000/svg">
<path d="M26.5998 24.2617V14.6617C26.5998 11.0617 23.7998 8.26172 20.1998 8.26172C16.5998 8.26172 13.7998 11.0617 13.7998 14.6617V24.2617C9.9998 28.6617 7.9998 34.0617 7.7998 39.8617C7.7998 45.2617 9.7998 50.4617 13.1998 54.6617C13.9998 55.8617 15.3998 56.4617 16.9998 56.4617H23.1998C24.7998 56.4617 26.1998 55.8617 27.1998 54.6617C30.5998 50.4617 32.5998 45.0617 32.5998 39.6617C32.3998 34.0617 30.1998 28.6617 26.5998 24.2617ZM17.7998 23.0617V21.0617H22.5998V23.0617H17.7998ZM20.1998 12.2617C21.3998 12.2617 22.5998 13.2617 22.5998 14.6617V17.0617H17.7998V14.6617C17.7998 13.2617 18.7998 12.2617 20.1998 12.2617ZM23.9998 52.2617C23.7998 52.4617 23.3998 52.6617 23.1998 52.6617H16.9998C16.5998 52.6617 16.3998 52.4617 16.1998 52.2617C13.3998 48.6617 11.7998 44.2617 11.7998 39.8617C11.9998 35.0617 13.5998 30.6617 16.5998 27.0617H23.5998C26.5998 30.6617 28.3998 35.0617 28.5998 39.8617C28.3998 44.2617 26.7998 48.6617 23.9998 52.2617Z" fill="#2D373D"/>
<path d="M54.9998 34.2617C53.3998 30.0617 50.3998 26.6617 46.3998 24.6617C41.7998 22.4617 36.3998 22.4617 31.7998 24.6617C30.7998 25.0617 30.3998 26.2617 30.7998 27.2617C31.1998 28.2617 32.3998 28.6617 33.3998 28.2617C36.9998 26.4617 40.9998 26.4617 44.5998 28.2617C47.5998 29.8617 49.7998 32.4617 50.9998 35.6617C52.1998 38.8617 51.7998 42.4617 50.3998 45.4617C47.3998 51.6617 39.7998 54.2617 33.3998 51.2617C32.3998 50.8617 31.1998 51.2617 30.7998 52.2617C30.3998 53.2617 30.7998 54.4617 31.7998 54.8617C34.1998 55.8617 36.7998 56.4617 39.1998 56.4617C45.3998 56.4617 51.3998 53.0617 54.1998 47.0617C56.1998 43.0617 56.3998 38.4617 54.9998 34.2617Z" fill="#2D373D"/>
<path d="M38.6004 36.8617C38.4004 37.0617 38.2004 37.2617 38.0004 37.4617C37.6004 37.8617 37.4004 38.2617 37.4004 39.0617C37.4004 40.2617 38.2004 41.2617 39.4004 41.6617C39.6004 41.8617 40.0004 41.8617 40.2004 41.8617C41.8004 41.8617 43.0004 40.4617 43.0004 39.0617C43.0004 38.6617 43.0004 38.4617 42.8004 38.2617C42.6004 37.6617 42.2004 37.2617 41.8004 36.8617C41.4004 36.4617 41.0004 36.2617 40.4004 36.2617C39.4004 36.2617 39.0004 36.4617 38.6004 36.8617Z" fill="#2D373D"/>
<path d="M49.5996 36.0618C49.3996 35.8618 49.1996 35.6618 48.9996 35.4618C48.5996 35.0618 48.1996 34.8618 47.5996 34.8618C47.5996 34.8618 47.5996 34.8618 47.3996 34.8618C46.7996 34.8618 46.1996 35.0618 45.9996 35.4618C45.7996 35.6618 45.7996 35.6618 45.5996 35.8618C44.9996 36.2618 44.5996 36.8618 44.5996 37.4618C44.5996 38.6618 45.3996 39.6618 46.5996 40.0618C46.7996 40.2618 47.1996 40.2618 47.3996 40.2618C47.5996 40.2618 47.9996 40.2618 48.1996 40.0618C48.9996 39.8618 49.5996 39.2618 49.9996 38.4618C50.1996 38.2618 50.1996 38.0618 50.1996 37.6618C50.1996 37.6618 50.1996 37.6618 50.1996 37.4618C50.1996 36.8618 49.9996 36.4618 49.5996 36.0618Z" fill="#2D373D"/>
<path d="M40.8 34.4615C41 34.6615 41.4 34.6615 41.6 34.6615C43 34.6615 44.2 33.4615 44.4 31.8615C44.4 31.2615 44.2 30.6615 43.8 30.2615C43.6 30.0615 43.4 29.8615 43.2 29.6615C42.8 29.2615 42.4 29.0615 41.8 29.0615C41.8 29.0615 41.8 29.0615 41.6 29.0615C41 29.0615 40.4 29.2615 40.2 29.6615C39.8 30.0615 39.4 30.4615 39.2 31.0615C39 31.2615 39 31.6615 39 31.8615C39 32.0615 39 32.4615 39.2 32.6615C39.2 33.4615 40 34.0615 40.8 34.4615Z" fill="#2D373D"/>
</svg>
