<svg width="64" height="65" viewBox="0 0 64 65" fill="none" xmlns="http://www.w3.org/2000/svg">
<path d="M17.4315 6.25391H46.5678C47.1408 6.25385 47.8456 6.25377 48.5288 6.33436C49.2411 6.41837 50.073 6.60315 50.8552 7.06653C52.6181 8.11086 53.333 10.038 53.333 12.5206V25.5873C53.333 26.6918 52.4376 27.5873 51.333 27.5873C50.2284 27.5873 49.333 26.6918 49.333 25.5873V12.5206C49.333 10.7904 48.8827 10.5442 48.8211 10.5105L48.8165 10.508C48.6984 10.438 48.4784 10.3561 48.0603 10.3068C47.633 10.2564 47.1502 10.2539 46.5182 10.2539H17.4812C16.8492 10.2539 16.3663 10.2564 15.9391 10.3068C15.521 10.3561 15.3009 10.438 15.1829 10.508L15.1783 10.5105C15.1167 10.5442 14.6663 10.7904 14.6663 12.5206V27.5873L23.9997 27.5872C25.1043 27.5872 25.9997 28.4827 25.9997 29.5872C25.9997 30.6918 25.1043 31.5872 23.9997 31.5872H9.88298C10.1113 32.2913 10.3961 33.01 10.7359 33.6553C11.5643 35.2281 12.2805 35.5872 12.6664 35.5872H23.9997C25.1043 35.5872 25.9997 36.4827 25.9997 37.5872C25.9997 38.6918 25.1043 39.5872 23.9997 39.5872H12.6664C9.85224 39.5872 8.12395 37.2797 7.19678 35.5192C6.19071 33.609 5.60571 31.3889 5.36024 29.916C5.26358 29.3361 5.42698 28.7431 5.80698 28.2945C6.18699 27.8459 6.74512 27.5872 7.33302 27.5872L10.6663 27.5873V12.5206C10.6663 10.038 11.3812 8.11086 13.1441 7.06653C13.9263 6.60315 14.7583 6.41837 15.4705 6.33436C16.1537 6.25377 16.8585 6.25385 17.4315 6.25391Z" fill="#2D373D"/>
<path fill-rule="evenodd" clip-rule="evenodd" d="M43.333 48.0143C46.2785 48.0143 48.6663 45.6265 48.6663 42.681C48.6663 39.7355 46.2785 37.3477 43.333 37.3477C40.3875 37.3477 37.9997 39.7355 37.9997 42.681C37.9997 45.6265 40.3875 48.0143 43.333 48.0143ZM45.333 42.681C45.333 43.7856 44.4376 44.681 43.333 44.681C42.2284 44.681 41.333 43.7856 41.333 42.681C41.333 41.5764 42.2284 40.681 43.333 40.681C44.4376 40.681 45.333 41.5764 45.333 42.681Z" fill="#2D373D"/>
<path fill-rule="evenodd" clip-rule="evenodd" d="M48.1 29.4179C46.8049 24.5256 39.8613 24.5256 38.5662 29.4179L37.8984 31.9407C37.7662 32.4399 37.253 32.7362 36.7546 32.601L34.2359 31.918C29.3515 30.5934 25.8797 36.6068 29.469 40.1745L31.3199 42.0142C31.6861 42.3783 31.6861 42.9709 31.3199 43.3349L29.469 45.1747C25.8797 48.7424 29.3515 54.7557 34.2359 53.4312L36.7546 52.7481C37.253 52.613 37.7662 52.9093 37.8984 53.4085L38.5662 55.9313C39.8613 60.8235 46.8049 60.8236 48.1 55.9313L48.7678 53.4085C48.8999 52.9093 49.4132 52.613 49.9116 52.7481L52.4303 53.4312C57.3146 54.7557 60.7865 48.7424 57.1972 45.1747L55.3463 43.3349C54.98 42.9709 54.98 42.3783 55.3463 42.0142L57.1972 40.1745C60.7865 36.6068 57.3146 30.5934 52.4303 31.918L49.9116 32.601C49.4132 32.7362 48.8999 32.4399 48.7678 31.9407L48.1 29.4179ZM42.433 30.4415C42.6775 29.5178 43.9886 29.5178 44.2332 30.4415L44.901 32.9643C45.6009 35.6082 48.3189 37.1774 50.9585 36.4616L53.4772 35.7786C54.3995 35.5285 55.055 36.6639 54.3773 37.3375L52.5264 39.1773C50.5867 41.1054 50.5867 44.2438 52.5264 46.1719L54.3773 48.0116C55.055 48.6853 54.3995 49.8207 53.4772 49.5706L50.9585 48.8876C48.3189 48.1718 45.6009 49.741 44.901 52.3849L44.2332 54.9077C43.9886 55.8314 42.6775 55.8314 42.433 54.9077L41.7652 52.3849C41.0653 49.741 38.3473 48.1718 35.7077 48.8876L33.1889 49.5706C32.2667 49.8207 31.6111 48.6853 32.2889 48.0116L34.1397 46.1719C36.0795 44.2438 36.0795 41.1054 34.1397 39.1773L32.2889 37.3375C31.6111 36.6639 32.2667 35.5285 33.1889 35.7786L35.7077 36.4616C38.3473 37.1774 41.0653 35.6082 41.7652 32.9643L42.433 30.4415Z" fill="#2D373D"/>
</svg>
