<svg width="32" height="33" viewBox="0 0 32 33" fill="none" xmlns="http://www.w3.org/2000/svg">
<path fill-rule="evenodd" clip-rule="evenodd" d="M13.2619 5.64089C14.0005 4.90226 15.0023 4.4873 16.0469 4.4873C17.0915 4.4873 18.0933 4.90226 18.832 5.64089C19.5706 6.37953 19.9856 7.38133 19.9856 8.42592C19.9856 9.47051 19.5706 10.4723 18.832 11.2109C18.456 11.5869 18.012 11.8789 17.5288 12.0751C18.2091 12.3026 18.8346 12.6859 19.3514 13.2027C20.2278 14.0792 20.7202 15.2678 20.7202 16.5073V18.7112C20.7202 19.2635 20.2725 19.7112 19.7202 19.7112H19.1336L18.5085 24.7125C18.4459 25.2129 18.0205 25.5884 17.5162 25.5884H14.5775C14.0732 25.5884 13.6478 25.2129 13.5853 24.7125L12.9601 19.7112H12.3735C11.8213 19.7112 11.3735 19.2635 11.3735 18.7112V16.5073C11.3735 15.2678 11.8659 14.0792 12.7423 13.2027C13.2592 12.6859 13.8846 12.3026 14.565 12.0751C14.0818 11.8789 13.6378 11.5869 13.2619 11.2109C12.5232 10.4723 12.1082 9.47051 12.1082 8.42592C12.1082 7.38133 12.5232 6.37953 13.2619 5.64089ZM16.0469 6.4873C15.5327 6.4873 15.0396 6.69156 14.6761 7.05512C14.3125 7.41868 14.1082 7.91177 14.1082 8.42592C14.1082 8.94007 14.3125 9.43316 14.6761 9.79672C15.0396 10.1603 15.5327 10.3645 16.0469 10.3645C16.5611 10.3645 17.0542 10.1603 17.4178 9.79672C17.7813 9.43316 17.9856 8.94007 17.9856 8.42592C17.9856 7.91177 17.7813 7.41868 17.4178 7.05512C17.0542 6.69156 16.5611 6.4873 16.0469 6.4873ZM16.0469 13.834C15.3379 13.834 14.6579 14.1156 14.1565 14.617C13.6552 15.1183 13.3735 15.7983 13.3735 16.5073V17.7112H13.8429C14.3472 17.7112 14.7726 18.0868 14.8351 18.5872L15.4603 23.5884H16.6334L17.2586 18.5872C17.3211 18.0868 17.7465 17.7112 18.2509 17.7112H18.7202V16.5073C18.7202 15.7983 18.4386 15.1183 17.9372 14.617C17.4359 14.1156 16.7559 13.834 16.0469 13.834Z" fill="#2D373D"/>
<path fill-rule="evenodd" clip-rule="evenodd" d="M8.70026 7.42578C7.85051 7.42578 7.03556 7.76334 6.43469 8.36419C5.83382 8.96505 5.49626 9.77999 5.49626 10.6297C5.49626 11.4795 5.83382 12.2944 6.43469 12.8953C6.69181 13.1524 6.98812 13.3613 7.30959 13.5162C6.83396 13.6647 6.38362 13.8887 5.97633 14.181C5.3738 14.6135 4.88278 15.1831 4.54381 15.8428C4.20484 16.5024 4.02764 17.2343 4.02686 17.976V18.7107C4.02686 19.2629 4.47457 19.7107 5.02686 19.7107H5.64906L6.24446 23.283C6.32483 23.7652 6.74202 24.1186 7.23086 24.1186H10.1695C10.6584 24.1186 11.0755 23.7652 11.1559 23.283L11.5242 21.0731C11.615 20.5284 11.247 20.0131 10.7022 19.9224C10.1575 19.8316 9.64224 20.1996 9.55144 20.7443L9.3224 22.1186H8.07798L7.48258 18.5463C7.40222 18.0641 6.98503 17.7107 6.49619 17.7107H6.04043C6.07401 17.3787 6.16947 17.055 6.32271 16.7568C6.5167 16.3793 6.79771 16.0533 7.14254 15.8058C7.48738 15.5583 7.88614 15.3964 8.30591 15.3334C8.72568 15.2704 9.15441 15.3081 9.55671 15.4435C10.0802 15.6196 10.6473 15.3381 10.8234 14.8146C10.9996 14.2912 10.718 13.7241 10.1946 13.5479C10.1609 13.5366 10.1271 13.5256 10.0932 13.5151C10.4138 13.3603 10.7093 13.1518 10.9658 12.8953C11.5667 12.2944 11.9043 11.4795 11.9043 10.6297C11.9043 9.77999 11.5667 8.96505 10.9658 8.36419C10.365 7.76334 9.55001 7.42578 8.70026 7.42578ZM7.84889 9.77842C8.07469 9.55263 8.38093 9.42578 8.70026 9.42578C9.01958 9.42578 9.32583 9.55263 9.55162 9.77842C9.77741 10.0042 9.90426 10.3104 9.90426 10.6297C9.90426 10.949 9.77741 11.2553 9.55162 11.4811C9.32583 11.7069 9.01958 11.8337 8.70026 11.8337C8.38093 11.8337 8.07469 11.7069 7.84889 11.4811C7.6231 11.2553 7.49626 10.949 7.49626 10.6297C7.49626 10.3104 7.6231 10.0042 7.84889 9.77842Z" fill="#2D373D"/>
<path fill-rule="evenodd" clip-rule="evenodd" d="M23.3935 7.42578C22.5437 7.42578 21.7288 7.76334 21.1279 8.36419C20.527 8.96505 20.1895 9.77999 20.1895 10.6297C20.1895 11.4795 20.527 12.2944 21.1279 12.8953C21.3844 13.1518 21.6799 13.3603 22.0005 13.5151C21.9666 13.5256 21.9328 13.5366 21.8991 13.5479C21.3756 13.7241 21.0941 14.2912 21.2702 14.8146C21.4464 15.3381 22.0135 15.6196 22.5369 15.4435C22.9392 15.3081 23.368 15.2704 23.7877 15.3334C24.2075 15.3964 24.6063 15.5583 24.9511 15.8058C25.2959 16.0533 25.577 16.3793 25.771 16.7568C25.9242 17.055 26.0196 17.3787 26.0532 17.7107H25.5975C25.1086 17.7107 24.6914 18.0641 24.6111 18.5463L24.0157 22.1186H22.7713L22.5422 20.7443C22.4514 20.1996 21.9362 19.8316 21.3914 19.9224C20.8466 20.0131 20.4786 20.5284 20.5694 21.0731L20.9377 23.283C21.0181 23.7652 21.4353 24.1186 21.9241 24.1186H24.8628C25.3516 24.1186 25.7688 23.7652 25.8492 23.283L26.4446 19.7107H27.0668C27.6191 19.7107 28.0668 19.2629 28.0668 18.7107V17.976C28.066 17.2343 27.8888 16.5024 27.5498 15.8428C27.2109 15.1831 26.7199 14.6135 26.1173 14.181C25.71 13.8887 25.2597 13.6647 24.7841 13.5162C25.1056 13.3613 25.4019 13.1524 25.659 12.8953C26.2599 12.2944 26.5975 11.4795 26.5975 10.6297C26.5975 9.77999 26.2599 8.96505 25.659 8.36419C25.0581 7.76334 24.2432 7.42578 23.3935 7.42578ZM22.5421 9.77842C22.7679 9.55263 23.0741 9.42578 23.3935 9.42578C23.7128 9.42578 24.019 9.55263 24.2448 9.77842C24.4706 10.0042 24.5975 10.3104 24.5975 10.6297C24.5975 10.949 24.4706 11.2553 24.2448 11.4811C24.019 11.7069 23.7128 11.8337 23.3935 11.8337C23.0741 11.8337 22.7679 11.7069 22.5421 11.4811C22.3163 11.2553 22.1895 10.949 22.1895 10.6297C22.1895 10.3104 22.3163 10.0042 22.5421 9.77842Z" fill="#2D373D"/>
<path d="M5.02686 24.3232C5.50048 24.3232 5.89721 24.6525 6.0006 25.0946C6.0584 25.1376 6.15905 25.201 6.32037 25.2772C6.77075 25.4902 7.48634 25.7084 8.4507 25.9012C10.3629 26.2836 13.0491 26.5272 16.0469 26.5272C19.0446 26.5272 21.7308 26.2836 23.643 25.9012C24.6074 25.7084 25.323 25.4902 25.7733 25.2772C25.9347 25.201 26.0353 25.1376 26.0931 25.0946C26.1965 24.6525 26.5932 24.3232 27.0669 24.3232C27.6191 24.3232 28.0669 24.771 28.0669 25.3232C28.0669 25.839 27.8012 26.2292 27.542 26.4826C27.2844 26.7344 26.9582 26.9293 26.6283 27.0853C25.9634 27.3997 25.0651 27.6564 24.0352 27.8624C21.9589 28.2776 19.1351 28.5272 16.0469 28.5272C12.9586 28.5272 10.1348 28.2776 8.05852 27.8624C7.02863 27.6564 6.13034 27.3997 5.46541 27.0853C5.13548 26.9293 4.80928 26.7344 4.55174 26.4826C4.29251 26.2292 4.02686 25.839 4.02686 25.3232C4.02686 24.771 4.47457 24.3232 5.02686 24.3232Z" fill="#2D373D"/>
</svg>
