<svg width="64" height="65" viewBox="0 0 64 65" fill="none" xmlns="http://www.w3.org/2000/svg">
<path fill-rule="evenodd" clip-rule="evenodd" d="M30.0006 14.2578C28.896 14.2578 28.0006 15.1533 28.0006 16.2579V32.9245C28.0006 34.0291 28.896 34.9245 30.0005 34.9245H42.6672C43.7718 34.9245 44.6672 34.029 44.6672 32.9245C44.6673 31.8199 43.7719 30.9245 42.6673 30.9245H32.0006V16.2578C32.0006 15.1532 31.1051 14.2578 30.0006 14.2578Z" fill="#2D373D"/>
<path d="M12.2375 21.5959C18.5142 10.7561 32.4199 7.03793 43.2976 13.2998C54.172 19.5597 57.893 33.4178 51.6183 44.2541C45.3416 55.0939 31.4359 58.812 20.5582 52.5502C16.9695 50.4843 14.1612 47.5927 12.2365 44.2599C11.6841 43.3034 10.4609 42.9757 9.5044 43.5281C8.54787 44.0805 8.22024 45.3037 8.77261 46.2602C11.0408 50.188 14.3497 53.5916 18.5626 56.0168C31.3467 63.3761 47.6954 59.0114 55.0799 46.2585C62.4663 33.5022 58.0808 17.1944 45.2932 9.83318C32.51 2.47439 16.1627 6.83801 8.77749 19.5888C7.54516 21.7094 6.61865 23.9806 6.01602 26.3353L5.88526 26.1553C5.23601 25.2617 3.98526 25.0636 3.09165 25.7128C2.19804 26.3621 1.99995 27.6128 2.6492 28.5065L5.78321 32.82C6.43235 33.7135 7.6828 33.9117 8.57642 33.2627L12.8987 30.124C13.7925 29.475 13.9909 28.2243 13.3418 27.3305C12.6928 26.4368 11.4421 26.2384 10.5483 26.8874L9.87936 27.3732C10.3907 25.3575 11.1814 23.4133 12.236 21.5985L12.2375 21.5959Z" fill="#2D373D"/>
</svg>
