<svg width="64" height="65" viewBox="0 0 64 65" fill="none" xmlns="http://www.w3.org/2000/svg">
<path d="M37 52.0609C36 51.8609 35 52.4609 34.6 53.4609C34.4 54.2609 33.6 55.0609 32.8 55.2609C32.2 55.4609 31.4 55.4609 30.8 55.0609C30.2 54.6609 29.8 54.0609 29.6 53.4609C29.2 52.2609 28.2 51.6609 27 52.0609C25.8 52.2609 25.2 53.4609 25.6 54.4609C26.2 56.2609 27.2 57.6609 28.8 58.4609C29.8 59.0609 31 59.2609 32 59.2609C32.6 59.2609 33.2 59.2609 34 58.8609C36 58.2609 37.8 56.6609 38.4 54.4609C38.6 53.4609 38 52.4609 37 52.0609Z" fill="#2D373D"/>
<path d="M53.1997 45.6611C53.1997 45.4611 50.5997 42.4611 50.5997 28.8611C50.5997 19.2611 43.1997 11.4611 33.9997 10.4611V7.66113C33.9997 6.46113 33.1997 5.66113 31.9997 5.66113C30.7997 5.66113 29.9997 6.46113 29.9997 7.66113V10.4611C20.7997 11.4611 13.3997 19.4611 13.3997 28.8611C13.3997 41.6611 10.5997 45.8611 10.5997 45.8611C10.1997 46.4611 9.99967 47.4611 10.3997 48.0611C10.7997 48.8611 11.3997 49.2611 12.1997 49.2611H51.7997C52.7997 49.2611 53.5997 48.6611 53.7997 47.8611C53.9997 47.0611 53.7997 46.2611 53.1997 45.6611ZM15.3997 45.2611C16.3997 42.4611 17.5997 37.4611 17.3997 29.0611C17.3997 21.2611 23.5997 14.8611 31.1997 14.4611C31.3997 14.4611 31.7997 14.6611 31.9997 14.6611C32.1997 14.6611 32.5997 14.6611 32.7997 14.4611C40.3997 14.8611 46.5997 21.2611 46.5997 29.0611C46.5997 37.4611 47.5997 42.4611 48.5997 45.2611H15.3997Z" fill="#2D373D"/>
</svg>
