<svg width="24" height="24" viewBox="0 0 24 24" fill="none" xmlns="http://www.w3.org/2000/svg">
<path fill-rule="evenodd" clip-rule="evenodd" d="M5.6439 4.64323C5.59183 4.69551 5.5 4.83543 5.5 5.20588V18.7941C5.5 19.0019 5.5953 19.1663 5.76343 19.3013C5.8496 19.3705 5.94672 19.4238 6.03747 19.4585C6.08216 19.4756 6.12122 19.4866 6.1521 19.4931C6.1841 19.4997 6.20009 19.5 6.2 19.5H17.8C18.167 19.5 18.3046 19.4085 18.3561 19.3568C18.4082 19.3045 18.5 19.1646 18.5 18.7941V5.20588C18.5 4.83543 18.4082 4.69551 18.3561 4.64323C18.3046 4.5915 18.167 4.5 17.8 4.5H15.2529L13.6566 7.20466L14.9309 10.255C15.0403 10.5168 14.9926 10.8179 14.8076 11.0331L10.6354 15.886C10.4066 16.1521 10.0239 16.224 9.7142 16.0591C9.40446 15.8942 9.25047 15.5365 9.34351 15.1982L10.5921 10.6579L8.68841 7.53767C8.58061 7.36099 8.55062 7.14761 8.60554 6.94805L9.27927 4.5H6.2C5.83304 4.5 5.69542 4.5915 5.6439 4.64323ZM4.5811 3.58472C5.01291 3.15115 5.60029 3 6.2 3H10.2636C10.4976 3 10.7183 3.10927 10.8601 3.29544C11.002 3.48162 11.0488 3.72334 10.9867 3.94901L10.1378 7.03334L12.0414 10.1535C12.1492 10.3301 12.1792 10.5435 12.1244 10.743L11.6755 12.3753L13.3684 10.4061L12.1277 7.43617C12.0365 7.21796 12.0536 6.96952 12.1738 6.76585L14.1787 3.3688C14.3136 3.14025 14.5592 3 14.8246 3H17.8C18.3997 3 18.9871 3.15115 19.4189 3.58471C19.8502 4.01773 20 4.60574 20 5.20588V18.7941C20 19.3943 19.8502 19.9823 19.4189 20.4153C18.9871 20.8489 18.3997 21 17.8 21H6.2C5.76003 21 5.23618 20.8018 4.82407 20.4708C4.38803 20.1205 4 19.557 4 18.7941V5.20588C4 4.60574 4.14984 4.01773 4.5811 3.58472Z" fill="#2D373D"/>
</svg>
