<svg width="32" height="33" viewBox="0 0 32 33" fill="none" xmlns="http://www.w3.org/2000/svg">
<path d="M27.5 12.5606C27.2 12.2606 26.8 11.9606 26.3 11.9606L20.5 11.3606L17.5 5.36055C17.3 4.96055 17 4.76055 16.7 4.56055C15.8 4.16055 14.8 4.46055 14.3 5.36055L11.3 11.3606L5.5 11.8606C5.1 11.8606 4.7 12.0606 4.4 12.3606C3.7 13.0606 3.7 14.1606 4.4 14.8606L9.2 19.6606L7.4 26.1606C7.3 26.6606 7.3 27.0606 7.5 27.4606C7.9 28.3606 9 28.6606 9.9 28.2606L15.9 25.2606L21.9 28.2606C22.1 28.3606 22.4 28.4606 22.7 28.4606C22.9 28.4606 23.1 28.4606 23.2 28.4606C23.7 28.3606 24.1 28.0606 24.3 27.6606C24.6 27.2606 24.6 26.7606 24.5 26.2606L22.7 19.7606L27.5 14.9606C27.8 14.6606 28 14.2606 28 13.8606C28.1 13.3606 27.9 12.9606 27.5 12.5606Z" fill="#2D373D"/>
</svg>
