<svg width="64" height="65" viewBox="0 0 64 65" fill="none" xmlns="http://www.w3.org/2000/svg">
<path d="M32 5.66211C19.8 5.66211 10 15.4621 10 27.6621C10 45.8621 25.4 56.0621 30.2 58.8621C30.8 59.0621 31.4 59.2621 32 59.2621C32.6 59.2621 33.2 59.0621 33.8 58.8621C38.6 56.2621 54 46.0621 54 27.6621C54 15.4621 44.2 5.66211 32 5.66211ZM32 55.2621C28.6 53.2621 14 43.8621 14 27.6621C14 17.6621 22 9.66211 32 9.66211C41.8 9.66211 49.8 17.6621 50 27.6621C50 43.6621 36.4 52.6621 32 55.2621Z" fill="#2D373D"/>
<path d="M40.4 22.0621H38.2V19.8621C38.2 17.4621 36.2 15.6621 34 15.6621H29.7999C27.4 15.6621 25.6 17.6621 25.6 19.8621V22.0621H23.4C21 22.0621 19.2 24.0621 19.2 26.2621V30.4621C19.2 32.8621 21.2 34.6621 23.4 34.6621H25.6V36.8621C25.6 39.2621 27.5999 41.0621 29.7999 41.0621H34C36.4 41.0621 38.2 39.2621 38.2 36.8621V34.6621H40.4C42.7999 34.6621 44.5999 32.6621 44.5999 30.4621V26.2621C44.5999 23.8621 42.6 22.0621 40.4 22.0621ZM40.4 30.8621H36.2C35 30.8621 34.2 31.6621 34.2 32.8621L34 37.2621L29.6 37.0621V32.8621C29.6 31.6621 28.7999 30.8621 27.6 30.8621L23.2 30.6621L23.4 26.2621H27.6C28.7999 26.2621 29.6 25.4621 29.6 24.2621L29.7999 19.8621H34.2V24.2621C34.2 25.4621 35 26.2621 36.2 26.2621H40.4C40.6 26.2621 40.5999 26.4621 40.5999 26.4621L40.4 30.8621Z" fill="#2D373D"/>
</svg>
