<svg width="16" height="17" viewBox="0 0 16 17" fill="none" xmlns="http://www.w3.org/2000/svg">
<path d="M5.8502 6.67305C6.0502 6.57305 6.2502 6.42305 6.4502 6.27305C6.8002 5.87305 7.0002 5.37305 7.0002 4.87305C7.0002 4.32305 6.8002 3.82305 6.4502 3.47305C6.0502 3.07305 5.6002 2.87305 5.0502 2.87305C3.9502 2.87305 3.0502 3.77305 3.0502 4.82305C3.0502 5.62305 3.5502 6.32305 4.2502 6.62305C2.9502 6.97305 1.9502 8.17305 1.9502 9.62305V10.723C1.9502 11.023 2.1502 11.223 2.4502 11.223H3.1002L3.4002 14.473C3.4502 14.723 3.6502 14.923 3.9002 14.923H6.1502C6.4002 14.923 6.6002 14.723 6.6502 14.473L6.9502 11.223H7.6502C7.9502 11.223 8.1502 11.023 8.1502 10.723V9.62305C8.1502 8.22305 7.2002 7.02305 5.8502 6.67305ZM5.0502 3.87305C5.3002 3.87305 5.5002 3.97305 5.7002 4.17305C5.9002 4.37305 6.0002 4.62305 6.0002 4.87305C6.0002 5.12305 5.9002 5.37305 5.7502 5.52305C5.5502 5.72305 5.3002 5.82305 5.0502 5.82305C4.5002 5.82305 4.0502 5.37305 4.0502 4.82305C4.1002 4.32305 4.5502 3.87305 5.0502 3.87305ZM7.1002 10.223H6.5002C6.2502 10.223 6.0502 10.423 6.0002 10.673L5.7002 13.923H4.4002L4.0502 10.673C4.0002 10.423 3.8002 10.223 3.5502 10.223H2.9502V9.62305C2.9502 8.62305 3.6002 7.77305 4.5502 7.57305V9.37305C4.5502 9.67305 4.7502 9.87305 5.0502 9.87305C5.3002 9.87305 5.5502 9.67305 5.5502 9.37305V7.62305C6.4502 7.87305 7.1002 8.67305 7.1002 9.62305V10.223Z" fill="#2D373D"/>
<path d="M11.8003 6.62305C12.0003 6.52305 12.2003 6.42305 12.3503 6.27305C12.7503 5.87305 12.9503 5.42305 12.9503 4.87305C12.9503 4.32305 12.7003 3.82305 12.3503 3.47305C11.9503 3.07305 11.5003 2.87305 10.9503 2.87305C9.85034 2.87305 8.95034 3.77305 8.95034 4.82305C8.95034 5.37305 9.15034 5.82305 9.55034 6.22305C9.70034 6.37305 9.85034 6.47305 10.0503 6.57305C9.30034 6.77305 8.60034 7.27305 8.20034 7.97305C8.05034 8.22305 8.10034 8.52305 8.35034 8.67305C8.60034 8.82305 8.90034 8.77305 9.05034 8.52305C9.40034 8.02305 9.85034 7.67305 10.4503 7.57305V9.37305C10.4503 9.67305 10.6503 9.87305 10.9503 9.87305C11.2003 9.87305 11.4503 9.67305 11.4503 9.37305V7.62305C12.3003 7.87305 12.9503 8.67305 12.9503 9.62305V10.223H12.3503C12.1003 10.223 11.9003 10.423 11.8503 10.673L11.5503 13.923H10.2503L9.95034 10.673C9.90034 10.423 9.70034 10.223 9.45034 10.223H8.75034C8.45034 10.223 8.25034 10.423 8.25034 10.723C8.25034 11.023 8.45034 11.223 8.75034 11.223H9.05034L9.35034 14.473C9.40034 14.723 9.60034 14.923 9.85034 14.923H12.0503C12.3003 14.923 12.5003 14.723 12.5003 14.423L12.8003 11.173H13.4503C13.7503 11.173 13.9503 10.973 13.9503 10.673V9.57305C13.9503 8.22305 13.0503 7.02305 11.8003 6.62305ZM10.9503 3.87305C11.2003 3.87305 11.4003 3.97305 11.6003 4.17305C11.8003 4.37305 11.9003 4.62305 11.9003 4.87305C11.9003 5.12305 11.8003 5.37305 11.6503 5.52305C11.4503 5.72305 11.2003 5.82305 10.9503 5.82305C10.6503 5.82305 10.4503 5.72305 10.2503 5.52305C10.0503 5.32305 9.95034 5.07305 9.95034 4.82305C9.95034 4.32305 10.4003 3.87305 10.9503 3.87305Z" fill="#2D373D"/>
</svg>
