<svg width="16" height="17" viewBox="0 0 16 17" fill="none" xmlns="http://www.w3.org/2000/svg">
<path d="M5.45158 6.78492C5.58379 6.65271 5.76311 6.57843 5.95009 6.57843C6.08952 6.57843 6.22583 6.61978 6.34176 6.69724C6.4577 6.77471 6.54806 6.88482 6.60142 7.01364C6.65478 7.14246 6.66874 7.28421 6.64154 7.42097C6.61434 7.55772 6.5472 7.68334 6.4486 7.78194C6.35 7.88054 6.22438 7.94768 6.08763 7.97488C5.95087 8.00209 5.80912 7.98813 5.68029 7.93476C5.55147 7.88141 5.44137 7.79104 5.3639 7.67511C5.28643 7.55917 5.24509 7.42287 5.24509 7.28343C5.24509 7.09645 5.31936 6.91713 5.45158 6.78492Z" fill="#2D373D"/>
<path d="M10.0501 6.57843C9.86312 6.57843 9.6838 6.65271 9.55158 6.78492C9.41937 6.91713 9.34509 7.09645 9.34509 7.28343C9.34509 7.42287 9.38644 7.55917 9.46391 7.67511C9.54137 7.79104 9.65148 7.88141 9.7803 7.93476C9.90912 7.98813 10.0509 8.00209 10.1876 7.97488C10.3244 7.94768 10.45 7.88054 10.5486 7.78194C10.6472 7.68334 10.7143 7.55772 10.7415 7.42097C10.7687 7.28421 10.7548 7.14246 10.7014 7.01364C10.6481 6.88482 10.5577 6.77471 10.4418 6.69724C10.3258 6.61978 10.1895 6.57843 10.0501 6.57843Z" fill="#2D373D"/>
<path d="M5.13969 10.3414C5.01708 10.094 4.71711 9.99278 4.46967 10.1154C4.22224 10.238 4.12105 10.538 4.24365 10.7854C4.59037 11.4851 5.12567 12.074 5.7892 12.4858C6.45274 12.8975 7.2181 13.1157 7.999 13.1157C8.7799 13.1157 9.54527 12.8975 10.2088 12.4858C10.8723 12.074 11.4076 11.4851 11.7544 10.7854C11.877 10.538 11.7758 10.238 11.5283 10.1154C11.2809 9.99278 10.9809 10.094 10.8583 10.3414C10.5943 10.8742 10.1868 11.3226 9.68154 11.6361C9.17633 11.9496 8.59358 12.1157 7.999 12.1157C7.40443 12.1157 6.82168 11.9496 6.31646 11.6361C5.81125 11.3226 5.40367 10.8742 5.13969 10.3414Z" fill="#2D373D"/>
<path fill-rule="evenodd" clip-rule="evenodd" d="M8.0001 2.27344C6.23641 2.27344 4.54495 2.97406 3.29784 4.22118C2.05072 5.46829 1.3501 7.15975 1.3501 8.92344C1.3501 10.6871 2.05072 12.3786 3.29784 13.6257C4.54495 14.8728 6.23641 15.5734 8.0001 15.5734C9.76379 15.5734 11.4552 14.8728 12.7024 13.6257C13.9495 12.3786 14.6501 10.6871 14.6501 8.92344C14.6501 7.15975 13.9495 5.46829 12.7024 4.22118C11.4552 2.97406 9.76379 2.27344 8.0001 2.27344ZM4.00494 4.92828C5.06453 3.8687 6.50162 3.27344 8.0001 3.27344C9.49857 3.27344 10.9357 3.8687 11.9953 4.92828C13.0548 5.98786 13.6501 7.42496 13.6501 8.92344C13.6501 10.4219 13.0548 11.859 11.9953 12.9186C10.9357 13.9782 9.49857 14.5734 8.0001 14.5734C6.50162 14.5734 5.06452 13.9782 4.00494 12.9186C2.94536 11.859 2.3501 10.4219 2.3501 8.92344C2.3501 7.42496 2.94536 5.98786 4.00494 4.92828Z" fill="#2D373D"/>
</svg>
