<svg width="32" height="33" viewBox="0 0 32 33" fill="none" xmlns="http://www.w3.org/2000/svg">
<path d="M13.2999 12.3613V7.56133C13.2999 5.76133 11.8999 4.36133 10.0999 4.36133C8.2999 4.36133 6.8999 5.76133 6.8999 7.56133V12.3613C4.9999 14.5613 3.9999 17.2613 3.8999 20.1613C3.8999 22.8613 4.8999 25.4613 6.5999 27.5613C6.9999 28.1613 7.6999 28.4613 8.4999 28.4613H11.5999C12.3999 28.4613 13.0999 28.1613 13.5999 27.5613C15.2999 25.4613 16.2999 22.7613 16.2999 20.0613C16.1999 17.2613 15.0999 14.5613 13.2999 12.3613ZM8.8999 11.7613V10.7613H11.2999V11.7613H8.8999ZM10.0999 6.36133C10.6999 6.36133 11.2999 6.86133 11.2999 7.56133V8.76133H8.8999V7.56133C8.8999 6.86133 9.3999 6.36133 10.0999 6.36133ZM11.9999 26.3613C11.8999 26.4613 11.6999 26.5613 11.5999 26.5613H8.4999C8.2999 26.5613 8.1999 26.4613 8.0999 26.3613C6.6999 24.5613 5.8999 22.3613 5.8999 20.1613C5.9999 17.7613 6.7999 15.5613 8.2999 13.7613H11.7999C13.2999 15.5613 14.1999 17.7613 14.2999 20.1613C14.1999 22.3613 13.3999 24.5613 11.9999 26.3613Z" fill="#2D373D"/>
<path d="M27.4999 17.3613C26.6999 15.2613 25.1999 13.5613 23.1999 12.5613C20.8999 11.4613 18.1999 11.4613 15.8999 12.5613C15.3999 12.7613 15.1999 13.3613 15.3999 13.8613C15.5999 14.3613 16.1999 14.5613 16.6999 14.3613C18.4999 13.4613 20.4999 13.4613 22.2999 14.3613C23.7999 15.1613 24.8999 16.4613 25.4999 18.0613C26.0999 19.6613 25.8999 21.4613 25.1999 22.9613C23.6999 26.0613 19.8999 27.3613 16.6999 25.8613C16.1999 25.6613 15.5999 25.8613 15.3999 26.3613C15.1999 26.8613 15.3999 27.4613 15.8999 27.6613C17.0999 28.1613 18.3999 28.4613 19.5999 28.4613C22.6999 28.4613 25.6999 26.7613 27.0999 23.7613C28.0999 21.7613 28.1999 19.4613 27.4999 17.3613Z" fill="#2D373D"/>
<path d="M19.3002 18.6613C19.2002 18.7613 19.1002 18.8613 19.0002 18.9613C18.8002 19.1613 18.7002 19.3613 18.7002 19.7613C18.7002 20.3613 19.1002 20.8613 19.7002 21.0613C19.8002 21.1613 20.0002 21.1613 20.1002 21.1613C20.9002 21.1613 21.5002 20.4613 21.5002 19.7613C21.5002 19.5613 21.5002 19.4613 21.4002 19.3613C21.3002 19.0613 21.1002 18.8613 20.9002 18.6613C20.7002 18.4613 20.5002 18.3613 20.2002 18.3613C19.7002 18.3613 19.5002 18.4613 19.3002 18.6613Z" fill="#2D373D"/>
<path d="M24.7998 18.2614C24.6998 18.1614 24.5998 18.0614 24.4998 17.9614C24.2998 17.7614 24.0998 17.6614 23.7998 17.6614C23.7998 17.6614 23.7998 17.6614 23.6998 17.6614C23.3998 17.6614 23.0998 17.7614 22.9998 17.9614C22.8998 18.0614 22.8998 18.0614 22.7998 18.1614C22.4998 18.3614 22.2998 18.6614 22.2998 18.9614C22.2998 19.5614 22.6998 20.0614 23.2998 20.2614C23.3998 20.3614 23.5998 20.3614 23.6998 20.3614C23.7998 20.3614 23.9998 20.3614 24.0998 20.2614C24.4998 20.1614 24.7998 19.8614 24.9998 19.4614C25.0998 19.3614 25.0998 19.2614 25.0998 19.0614C25.0998 19.0614 25.0998 19.0614 25.0998 18.9614C25.0998 18.6614 24.9998 18.4614 24.7998 18.2614Z" fill="#2D373D"/>
<path d="M20.4 17.4612C20.5 17.5612 20.7 17.5612 20.8 17.5612C21.5 17.5612 22.1 16.9612 22.2 16.1612C22.2 15.8612 22.1 15.5612 21.9 15.3612C21.8 15.2612 21.7 15.1612 21.6 15.0612C21.4 14.8612 21.2 14.7612 20.9 14.7612C20.9 14.7612 20.9 14.7612 20.8 14.7612C20.5 14.7612 20.2 14.8612 20.1 15.0612C19.9 15.2612 19.7 15.4612 19.6 15.7612C19.5 15.8612 19.5 16.0612 19.5 16.1612C19.5 16.2612 19.5 16.4612 19.6 16.5612C19.6 16.9612 20 17.2612 20.4 17.4612Z" fill="#2D373D"/>
</svg>
