<svg width="64" height="65" viewBox="0 0 64 65" fill="none" xmlns="http://www.w3.org/2000/svg">
<path fill-rule="evenodd" clip-rule="evenodd" d="M54 8.92188H48.1333C47.605 8.92878 47.1003 9.14171 46.7268 9.5153C46.3532 9.88888 46.1402 10.3936 46.1333 10.9219V11.8552H45.2C40.8657 11.8829 36.6604 13.3329 33.2302 15.9826C29.8 18.6324 27.3348 22.3351 26.2133 26.5219H24.6667C24.1384 26.5288 23.6337 26.7417 23.2601 27.1153C22.8865 27.4889 22.6736 27.9936 22.6667 28.5219V37.3219C22.6663 37.6883 22.7654 38.0479 22.9532 38.3626C23.141 38.6772 23.4106 38.935 23.7333 39.1085C23.4228 39.4135 23.0932 39.6985 22.7467 39.9619C21.5872 40.764 20.2099 41.1921 18.8 41.1885H17.8667V40.2552C17.8667 39.7248 17.656 39.2161 17.2809 38.841C16.9058 38.4659 16.3971 38.2552 15.8667 38.2552H10C9.47171 38.2621 8.96701 38.475 8.59342 38.8486C8.21984 39.2222 8.00691 39.7269 8 40.2552V54.9219C8 55.4523 8.21071 55.961 8.58579 56.3361C8.96086 56.7112 9.46957 56.9219 10 56.9219H15.8667C16.1303 56.9255 16.392 56.8762 16.6363 56.7769C16.8805 56.6777 17.1024 56.5305 17.2889 56.3441C17.4753 56.1576 17.6225 55.9357 17.7217 55.6915C17.821 55.4472 17.8703 55.1855 17.8667 54.9219V53.9885H18.8267C23.1598 53.9685 27.3656 52.5207 30.793 49.8694C34.2205 47.2181 36.6785 43.511 37.7867 39.3219H39.3333C39.597 39.3255 39.8587 39.2762 40.1029 39.1769C40.3472 39.0777 40.5691 38.9305 40.7555 38.7441C40.942 38.5576 41.0892 38.3357 41.1884 38.0915C41.2876 37.8472 41.3369 37.5855 41.3333 37.3219V28.5219C41.3288 28.1632 41.2304 27.812 41.0479 27.5032C40.8655 27.1945 40.6053 26.9389 40.2933 26.7619C40.591 26.4432 40.9217 26.1571 41.28 25.9085C42.4274 25.099 43.7958 24.6615 45.2 24.6552H46.1333V25.5885C46.1333 26.119 46.344 26.6277 46.7191 27.0028C47.0942 27.3778 47.6029 27.5885 48.1333 27.5885H54C54.2636 27.5921 54.5253 27.5428 54.7696 27.4436C55.0139 27.3444 55.2358 27.1972 55.4222 27.0107C55.6086 26.8243 55.7558 26.6024 55.8551 26.3581C55.9543 26.1139 56.0036 25.8522 56 25.5885V10.9219C56 10.3914 55.7893 9.88273 55.4142 9.50766C55.0391 9.13259 54.5304 8.92188 54 8.92188V8.92188ZM14 52.9219H12V42.2552H13.8667L14 52.9219ZM29.0133 46.3085C26.193 48.6866 22.6224 49.9901 18.9333 49.9885H17.8667V45.1885H18.8C21.0497 45.2136 23.2474 44.5122 25.0667 43.1885C26.4936 42.1835 27.6556 40.8476 28.4533 39.2952H33.6C32.6911 42.0174 31.0596 44.4415 28.88 46.3085H29.0133ZM37.4667 35.3219H26.8V30.5219H37.4667V35.3219ZM46.2667 20.6552H45.3333C43.095 20.6507 40.912 21.3503 39.0933 22.6552C37.6759 23.652 36.5226 24.9792 35.7333 26.5219H30.4C31.314 23.8105 32.9561 21.4027 35.1467 19.5619C37.9632 17.1921 41.5192 15.881 45.2 15.8552H46.1333L46.2667 20.6552ZM52.1333 23.5885H50.2667V22.6819V13.8552V12.9219H52.1333V23.5885Z" fill="#2D373D"/>
</svg>
