<svg width="16" height="17" viewBox="0 0 16 17" fill="none" xmlns="http://www.w3.org/2000/svg">
<path fill-rule="evenodd" clip-rule="evenodd" d="M5.43067 4.00168C5.91866 3.51369 6.53117 3.17885 7.19351 3.02809C7.20875 3.02395 7.22423 3.02053 7.23988 3.01785C7.4878 2.96482 7.7424 2.9375 7.99983 2.9375C8.25719 2.9375 8.51174 2.96481 8.75961 3.01781C8.77541 3.02051 8.79103 3.02397 8.80641 3.02815C9.46865 3.17894 10.0811 3.51376 10.569 4.00168C10.9476 4.3803 11.234 4.83388 11.4138 5.32755C11.4229 5.34855 11.4306 5.37029 11.4368 5.39267C11.5656 5.76839 11.6332 6.16613 11.6332 6.57083C11.6332 6.97554 11.5656 7.37329 11.4368 7.74901C11.4306 7.77137 11.4229 7.79311 11.4138 7.8141C11.234 8.30777 10.9476 8.76136 10.569 9.13999C10.0157 9.69332 9.30222 10.0497 8.53757 10.1642C8.51982 10.1677 8.50184 10.1702 8.4837 10.1718C8.32419 10.1932 8.16257 10.2042 7.99983 10.2042C7.83566 10.2042 7.67263 10.1931 7.51175 10.1712C7.49793 10.1699 7.4842 10.1679 7.47061 10.1654C6.70274 10.0524 5.98606 9.69538 5.43067 9.13999C5.05196 8.76127 4.76548 8.30755 4.5857 7.81375C4.57671 7.79298 4.56909 7.77149 4.56295 7.74938C4.43406 7.37355 4.3665 6.97567 4.3665 6.57083C4.3665 6.166 4.43406 5.76813 4.56294 5.3923C4.56908 5.37018 4.57671 5.34867 4.58571 5.3279C4.76549 4.8341 5.05196 4.38039 5.43067 4.00168ZM9.20027 8.91463C9.44236 8.79065 9.66596 8.62879 9.86188 8.43288C9.96105 8.33371 10.0515 8.22744 10.1327 8.11528H9.37658C9.32817 8.38379 9.26936 8.65045 9.20027 8.91463ZM8.35873 8.11528C8.2853 8.48271 8.19028 8.84597 8.07399 9.20312C8.04931 9.20382 8.02459 9.20417 7.99983 9.20417C7.97579 9.20417 7.95178 9.20384 7.92782 9.20318C7.81149 8.84525 7.71658 8.48198 7.64316 8.11528H8.35873ZM9.50798 7.11528H10.5763C10.6138 6.9376 10.6332 6.75521 10.6332 6.57083C10.6332 6.38645 10.6138 6.20407 10.5763 6.02639H9.54267C9.54382 6.09174 9.54437 6.15712 9.54431 6.22252C9.54478 6.5209 9.53263 6.81875 9.50798 7.11528ZM8.5425 6.02639C8.54377 6.09163 8.54437 6.15691 8.54431 6.22221V6.22352C8.5448 6.52168 8.53137 6.81925 8.50417 7.11528H7.49693C7.46325 6.75336 7.45004 6.38981 7.45737 6.02639H8.5425ZM9.47762 5.02639H10.1327C10.0515 4.91422 9.96105 4.80796 9.86188 4.70879C9.71393 4.56084 9.55019 4.43231 9.37462 4.32485C9.41678 4.5575 9.45113 4.79148 9.47762 5.02639ZM8.2739 3.95179C8.3599 4.30619 8.42555 4.66498 8.47062 5.02639H7.52964C7.57462 4.66587 7.64007 4.30708 7.72605 3.95176C7.81659 3.9423 7.90796 3.9375 7.99983 3.9375C8.09179 3.9375 8.18326 3.94231 8.2739 3.95179ZM6.13778 4.70879C6.2859 4.56067 6.44985 4.43202 6.62564 4.32448C6.58345 4.55759 6.54911 4.79169 6.52262 5.02639H5.86695C5.94817 4.91422 6.03861 4.80796 6.13778 4.70879ZM5.42338 6.02639H6.45718C6.45054 6.38975 6.4625 6.75319 6.49302 7.11528H5.42338C5.38583 6.9376 5.3665 6.75521 5.3665 6.57083C5.3665 6.38645 5.38583 6.20407 5.42338 6.02639ZM5.86694 8.11528H6.62523C6.67378 8.3839 6.73274 8.65101 6.80206 8.916C6.55894 8.79184 6.33441 8.62951 6.13778 8.43288C6.03861 8.33371 5.94817 8.22744 5.86694 8.11528Z" fill="#2D373D"/>
<path fill-rule="evenodd" clip-rule="evenodd" d="M3.9096 9.65992C4.12596 9.5703 4.35786 9.52417 4.59205 9.52417C4.82624 9.52417 5.05814 9.5703 5.2745 9.65992C5.49087 9.74954 5.68746 9.8809 5.85306 10.0465C6.01865 10.2121 6.15001 10.4087 6.23963 10.6251C6.32925 10.8414 6.37538 11.0733 6.37538 11.3075C6.37538 11.5417 6.32925 11.7736 6.23963 11.99C6.15001 12.2063 6.01865 12.4029 5.85306 12.5685C5.80675 12.6148 5.75802 12.6584 5.70711 12.6992C5.86119 12.7695 6.00905 12.8545 6.14852 12.9536C6.60318 13.2765 6.9461 13.7329 7.12973 14.2595C7.22066 14.5203 7.083 14.8053 6.82225 14.8963C6.56151 14.9872 6.27642 14.8495 6.1855 14.5888C6.0702 14.2582 5.85489 13.9716 5.56942 13.7688C5.28395 13.566 4.94246 13.4571 4.5923 13.4571C4.24214 13.4571 3.90066 13.566 3.61519 13.7688C3.32972 13.9716 3.11441 14.2582 2.99911 14.5888C2.90818 14.8495 2.6231 14.9872 2.36235 14.8963C2.10161 14.8053 1.96395 14.5203 2.05488 14.2595C2.23851 13.7329 2.58143 13.2765 3.03608 12.9536C3.17545 12.8546 3.32321 12.7696 3.47717 12.6994C3.4262 12.6586 3.37741 12.6149 3.33104 12.5685C3.16544 12.4029 3.03408 12.2063 2.94446 11.99C2.85484 11.7736 2.80872 11.5417 2.80872 11.3075C2.80872 11.0733 2.85484 10.8414 2.94446 10.6251C3.03408 10.4087 3.16544 10.2121 3.33104 10.0465C3.49664 9.8809 3.69323 9.74954 3.9096 9.65992ZM4.59205 10.5242C4.48918 10.5242 4.38732 10.5444 4.29228 10.5838C4.19724 10.6232 4.11089 10.6809 4.03815 10.7536C3.96541 10.8263 3.90771 10.9127 3.86834 11.0077C3.82898 11.1028 3.80872 11.2046 3.80872 11.3075C3.80872 11.4104 3.82898 11.5122 3.86834 11.6073C3.90771 11.7023 3.96541 11.7887 4.03815 11.8614C4.11089 11.9341 4.19724 11.9918 4.29228 12.0312C4.38732 12.0706 4.48918 12.0908 4.59205 12.0908C4.69492 12.0908 4.79678 12.0706 4.89182 12.0312C4.98686 11.9918 5.07321 11.9341 5.14595 11.8614C5.21869 11.7887 5.27639 11.7023 5.31575 11.6073C5.35512 11.5122 5.37538 11.4104 5.37538 11.3075C5.37538 11.2046 5.35512 11.1028 5.31575 11.0077C5.27639 10.9127 5.21869 10.8263 5.14595 10.7536C5.07321 10.6809 4.98686 10.6232 4.89182 10.5838C4.79678 10.5444 4.69492 10.5242 4.59205 10.5242Z" fill="#2D373D"/>
<path fill-rule="evenodd" clip-rule="evenodd" d="M10.2004 10.0465C10.5349 9.71206 10.9885 9.52417 11.4614 9.52417C11.9344 9.52417 12.388 9.71206 12.7224 10.0465C13.0569 10.3809 13.2448 10.8345 13.2448 11.3075C13.2448 11.7805 13.0569 12.2341 12.7224 12.5685C12.6759 12.615 12.6272 12.6587 12.5763 12.6994C12.7303 12.7696 12.878 12.8546 13.0174 12.9536C13.4721 13.2765 13.815 13.7329 13.9986 14.2595C14.0896 14.5203 13.9519 14.8053 13.6911 14.8963C13.4304 14.9872 13.1453 14.8495 13.0544 14.5888C12.9391 14.2582 12.7238 13.9716 12.4383 13.7688C12.1528 13.566 11.8114 13.4571 11.4612 13.4571C11.111 13.4571 10.7696 13.566 10.4841 13.7688C10.1986 13.9716 9.9833 14.2582 9.868 14.5888C9.77708 14.8495 9.49199 14.9872 9.23125 14.8963C8.97051 14.8053 8.83284 14.5203 8.92377 14.2595C9.10741 13.7329 9.45032 13.2765 9.90498 12.9536C10.0444 12.8545 10.1923 12.7695 10.3464 12.6992C10.2956 12.6586 10.2469 12.615 10.2004 12.5685C9.86599 12.2341 9.6781 11.7805 9.6781 11.3075C9.6781 10.8345 9.86599 10.3809 10.2004 10.0465ZM11.4614 10.5242C11.2537 10.5242 11.0544 10.6067 10.9075 10.7536C10.7606 10.9005 10.6781 11.0998 10.6781 11.3075C10.6781 11.5153 10.7606 11.7145 10.9075 11.8614C11.0544 12.0083 11.2537 12.0908 11.4614 12.0908C11.6692 12.0908 11.8684 12.0083 12.0153 11.8614C12.1622 11.7145 12.2448 11.5153 12.2448 11.3075C12.2448 11.0998 12.1622 10.9005 12.0153 10.7536C11.8684 10.6067 11.6692 10.5242 11.4614 10.5242Z" fill="#2D373D"/>
</svg>
