<svg width="24" height="25" viewBox="0 0 24 25" fill="none" xmlns="http://www.w3.org/2000/svg">
<path fill-rule="evenodd" clip-rule="evenodd" d="M4.46924 4.92822C4.53833 4.85913 4.63204 4.82031 4.72975 4.82031H11.8087V8.544C11.8087 9.03953 12.0056 9.51477 12.356 9.86517C12.7064 10.2156 13.1816 10.4124 13.6771 10.4124H17.4008V13.0177C17.4008 13.4319 17.7366 13.7677 18.1508 13.7677C18.565 13.7677 18.9008 13.4319 18.9008 13.0177V9.66796L18.9008 9.66242L18.9008 9.65688V9.56607C18.9007 9.07088 18.7038 8.59582 18.3538 8.24555L13.9754 3.86714C13.6251 3.5171 13.1501 3.32042 12.6549 3.32031H4.72975C4.23421 3.32031 3.75897 3.51716 3.40858 3.86756C3.05818 4.21796 2.86133 4.6932 2.86133 5.18873V19.7282C2.86133 20.2237 3.05818 20.699 3.40858 21.0494C3.75897 21.3998 4.23421 21.5966 4.72975 21.5966H6.96659C7.3808 21.5966 7.71659 21.2608 7.71659 20.8466C7.71659 20.4324 7.3808 20.0966 6.96659 20.0966H4.72975C4.63204 20.0966 4.53833 20.0578 4.46924 19.9887C4.40014 19.9196 4.36133 19.8259 4.36133 19.7282V5.18873C4.36133 5.09102 4.40014 4.99731 4.46924 4.92822ZM13.3087 5.32178V8.544C13.3087 8.64171 13.3475 8.73542 13.4166 8.80451C13.4857 8.8736 13.5794 8.91242 13.6771 8.91242H16.8994L13.3087 5.32178Z" fill="#2D373D"/>
<path d="M8.9249 14.5582C9.30949 14.4043 9.74597 14.5914 9.8998 14.976L10.3219 16.0311L10.7439 14.976C10.8978 14.5914 11.3342 14.4043 11.7188 14.5582C12.1034 14.712 12.2905 15.1485 12.1366 15.5331L11.1296 18.0506L12.1366 20.5681C12.2905 20.9527 12.1034 21.3892 11.7188 21.543C11.3342 21.6968 10.8978 21.5098 10.7439 21.1252L10.3219 20.07L9.8998 21.1252C9.74597 21.5098 9.30949 21.6968 8.9249 21.543C8.54032 21.3892 8.35325 20.9527 8.50709 20.5681L9.51409 18.0506L8.50709 15.5331C8.35325 15.1485 8.54032 14.712 8.9249 14.5582Z" fill="#2D373D"/>
<path d="M13.6771 14.5045C14.0913 14.5045 14.4271 14.8403 14.4271 15.2545V19.7282C14.4271 19.8259 14.4659 19.9196 14.535 19.9887C14.6041 20.0578 14.6978 20.0966 14.7955 20.0966H15.914C16.3282 20.0966 16.664 20.4324 16.664 20.8466C16.664 21.2608 16.3282 21.5966 15.914 21.5966H14.7955C14.3 21.5966 13.8248 21.3998 13.4744 21.0494C13.124 20.699 12.9271 20.2237 12.9271 19.7282V15.2545C12.9271 14.8403 13.2629 14.5045 13.6771 14.5045Z" fill="#2D373D"/>
<path d="M19.2693 14.5045C18.7738 14.5045 18.2985 14.7014 17.9481 15.0518C17.5977 15.4022 17.4009 15.8774 17.4009 16.3729C17.4009 17.5907 18.2399 18.2176 18.7663 18.611L18.8193 18.6506C19.4168 19.0987 19.6377 19.3101 19.6377 19.7282C19.6377 19.8259 19.5989 19.9196 19.5298 19.9887C19.4607 20.0578 19.367 20.0966 19.2693 20.0966H18.1509C17.7367 20.0966 17.4009 20.4324 17.4009 20.8466C17.4009 21.2608 17.7367 21.5966 18.1509 21.5966H19.2693C19.7648 21.5966 20.2401 21.3998 20.5905 21.0494C20.9409 20.699 21.1377 20.2237 21.1377 19.7282C21.1377 18.5104 20.2987 17.8835 19.7723 17.4902L19.7193 17.4506C19.1218 17.0025 18.9009 16.7911 18.9009 16.3729C18.9009 16.2752 18.9397 16.1815 19.0088 16.1124C19.0779 16.0433 19.1716 16.0045 19.2693 16.0045H20.3877C20.8019 16.0045 21.1377 15.6687 21.1377 15.2545C21.1377 14.8403 20.8019 14.5045 20.3877 14.5045H19.2693Z" fill="#2D373D"/>
</svg>
