<svg width="16" height="17" viewBox="0 0 16 17" fill="none" xmlns="http://www.w3.org/2000/svg">
<path fill-rule="evenodd" clip-rule="evenodd" d="M2.97917 3.43913C3.02523 3.39306 3.0877 3.36719 3.15284 3.36719H7.87215V5.84964C7.87215 6.18 8.00339 6.49683 8.23698 6.73043C8.47058 6.96402 8.78741 7.09526 9.11777 7.09526H11.6002V8.8321C11.6002 9.10824 11.8241 9.3321 12.1002 9.3321C12.3764 9.3321 12.6002 9.10824 12.6002 8.8321V6.59895L12.6002 6.59526L12.6002 6.59157V6.53103C12.6001 6.2009 12.4689 5.88419 12.2355 5.65068L9.3166 2.73174C9.08309 2.49838 8.76639 2.36726 8.43626 2.36719H3.15284C2.82248 2.36719 2.50566 2.49842 2.27206 2.73202C2.03846 2.96562 1.90723 3.28244 1.90723 3.6128V13.3058C1.90723 13.6361 2.03846 13.953 2.27206 14.1866C2.50566 14.4202 2.82248 14.5514 3.15284 14.5514H4.64407C4.92021 14.5514 5.14407 14.3275 5.14407 14.0514C5.14407 13.7753 4.92021 13.5514 4.64407 13.5514H3.15284C3.0877 13.5514 3.02523 13.5255 2.97917 13.4795C2.9331 13.4334 2.90723 13.3709 2.90723 13.3058V3.6128C2.90723 3.54766 2.9331 3.48519 2.97917 3.43913ZM8.87215 3.7015V5.84964C8.87215 5.91478 8.89803 5.97726 8.94409 6.02332C8.99015 6.06938 9.05263 6.09526 9.11777 6.09526H11.2659L8.87215 3.7015Z" fill="#2D373D"/>
<path d="M5.94961 9.8591C6.206 9.75654 6.49699 9.88125 6.59954 10.1376L6.88092 10.8411L7.1623 10.1376C7.26485 9.88125 7.55584 9.75654 7.81223 9.8591C8.06862 9.96165 8.19333 10.2526 8.09077 10.509L7.41944 12.1874L8.09077 13.8657C8.19333 14.1221 8.06862 14.4131 7.81223 14.5156C7.55584 14.6182 7.26485 14.4935 7.1623 14.2371L6.88092 13.5337L6.59954 14.2371C6.49699 14.4935 6.206 14.6182 5.94961 14.5156C5.69322 14.4131 5.56851 14.1221 5.67107 13.8657L6.3424 12.1874L5.67107 10.509C5.56851 10.2526 5.69322 9.96165 5.94961 9.8591Z" fill="#2D373D"/>
<path d="M9.11776 9.82332C9.3939 9.82332 9.61776 10.0472 9.61776 10.3233V13.3058C9.61776 13.3709 9.64363 13.4334 9.6897 13.4795C9.73576 13.5255 9.79823 13.5514 9.86337 13.5514H10.609C10.8851 13.5514 11.109 13.7753 11.109 14.0514C11.109 14.3275 10.8851 14.5514 10.609 14.5514H9.86337C9.53301 14.5514 9.21619 14.4202 8.98259 14.1866C8.74899 13.953 8.61776 13.6361 8.61776 13.3058V10.3233C8.61776 10.0472 8.84161 9.82332 9.11776 9.82332Z" fill="#2D373D"/>
<path d="M12.8459 9.82332C12.5155 9.82332 12.1987 9.95456 11.9651 10.1882C11.7315 10.4218 11.6003 10.7386 11.6003 11.0689C11.6003 11.8808 12.1596 12.2987 12.5106 12.5609L12.5459 12.5874C12.9442 12.8861 13.0915 13.027 13.0915 13.3058C13.0915 13.3709 13.0656 13.4334 13.0195 13.4795C12.9735 13.5255 12.911 13.5514 12.8459 13.5514H12.1003C11.8241 13.5514 11.6003 13.7753 11.6003 14.0514C11.6003 14.3275 11.8241 14.5514 12.1003 14.5514H12.8459C13.1762 14.5514 13.4931 14.4202 13.7267 14.1866C13.9603 13.953 14.0915 13.6361 14.0915 13.3058C14.0915 12.4939 13.5322 12.076 13.1812 11.8138L13.1459 11.7874C12.7476 11.4886 12.6003 11.3477 12.6003 11.0689C12.6003 11.0038 12.6261 10.9413 12.6722 10.8953C12.7183 10.8492 12.7807 10.8233 12.8459 10.8233H13.5915C13.8676 10.8233 14.0915 10.5995 14.0915 10.3233C14.0915 10.0472 13.8676 9.82332 13.5915 9.82332H12.8459Z" fill="#2D373D"/>
</svg>
