<svg width="24" height="25" viewBox="0 0 24 25" fill="none" xmlns="http://www.w3.org/2000/svg">
<path fill-rule="evenodd" clip-rule="evenodd" d="M17.9083 3.19637C18.3499 3.19338 18.7877 3.27791 19.1964 3.44508C19.6051 3.61225 19.9767 3.85874 20.2896 4.17033L20.2917 4.1724C20.6034 4.48521 20.85 4.85671 21.0172 5.26542C21.1845 5.67413 21.269 6.11193 21.2661 6.55352C21.2631 6.99512 21.1726 7.43174 20.9998 7.83814C20.8276 8.2431 20.5772 8.61006 20.2629 8.91795L9.93453 19.2463C9.83951 19.3413 9.7207 19.409 9.59053 19.4424L4.67072 20.7043C4.41397 20.7701 4.14153 20.6956 3.9541 20.5082C3.76666 20.3207 3.69206 20.0483 3.75788 19.7916L5.01901 14.8717C5.05238 14.7415 5.12014 14.6227 5.21519 14.5276L15.5436 4.19925C15.8516 3.88497 16.2187 3.6346 16.6237 3.4625C17.0301 3.28981 17.4667 3.19936 17.9083 3.19637ZM18.6285 4.83344C18.4032 4.74128 18.1619 4.69468 17.9185 4.69633C17.675 4.69798 17.4343 4.74784 17.2103 4.84304C16.9862 4.93824 16.7833 5.07689 16.6131 5.25097L16.6071 5.25709L6.42104 15.4431L5.52557 18.9365L9.01903 18.0405L19.2114 7.84813C19.3855 7.67809 19.5242 7.47526 19.6194 7.25129C19.7146 7.02733 19.7644 6.78672 19.7661 6.54337C19.7677 6.30001 19.7211 6.05875 19.629 5.83352C19.537 5.60873 19.4014 5.40437 19.2301 5.2322C19.0579 5.06093 18.8534 4.92541 18.6285 4.83344Z" fill="#2D373D"/>
<path fill-rule="evenodd" clip-rule="evenodd" d="M15.2514 4.49207C15.5443 4.19918 16.0192 4.19918 16.3121 4.49207L19.97 8.15004C20.2629 8.44294 20.2629 8.91781 19.97 9.2107C19.6771 9.5036 19.2023 9.5036 18.9094 9.2107L15.2514 5.55273C14.9585 5.25984 14.9585 4.78496 15.2514 4.49207Z" fill="#2D373D"/>
<path fill-rule="evenodd" clip-rule="evenodd" d="M5.21519 14.5276C5.50782 14.2345 5.98293 14.2338 6.27608 14.5265L9.93762 18.1816C10.2308 18.4742 10.2312 18.9491 9.93855 19.2422C9.64591 19.5354 9.17104 19.5358 8.87789 19.2432L5.21635 15.588C4.9232 15.2954 4.92255 14.8208 5.21519 14.5276Z" fill="#2D373D"/>
</svg>
