<svg width="16" height="17" viewBox="0 0 16 17" fill="none" xmlns="http://www.w3.org/2000/svg">
<path d="M13.6499 3.01045C13.2999 2.41045 12.4499 2.21045 11.8499 2.61045L2.7499 8.31045C2.3999 8.51045 2.1499 8.96045 2.1499 9.41045C2.1499 10.1604 2.7499 10.7104 3.4999 10.7604H5.8499V12.8104C5.8499 13.5104 6.3999 14.1104 7.1499 14.1104C7.3999 14.1104 7.6999 14.0104 7.9499 13.9104L9.0999 13.1104L9.7499 13.9604C9.9499 14.2104 10.1999 14.4104 10.5499 14.4604C10.6499 14.4604 10.6999 14.4604 10.7999 14.4604C11.3999 14.4604 11.9499 14.0104 12.0999 13.4104L13.8499 3.96045C13.8999 3.61045 13.8499 3.31045 13.6499 3.01045ZM3.4499 9.71045C3.2999 9.71045 3.1499 9.61045 3.1499 9.41045C3.1499 9.31045 3.1999 9.21045 3.2999 9.16045L11.7499 3.86045L7.2999 9.71045H3.4499ZM7.3499 13.0104C7.1499 13.1604 6.8499 13.0104 6.8499 12.7604V10.7604H7.3499L8.4999 12.2604L7.3499 13.0104ZM11.0499 13.1604C11.0499 13.3104 10.8499 13.4604 10.6999 13.4104C10.5999 13.4104 10.5499 13.3604 10.4999 13.3104L9.5999 12.1104L8.1999 10.2104L12.6999 4.31045L11.0499 13.1604Z" fill="#2D373D"/>
</svg>
