<svg width="64" height="65" viewBox="0 0 64 65" fill="none" xmlns="http://www.w3.org/2000/svg">
<path d="M40.0002 35.5848C41.4729 35.5848 42.6668 34.3909 42.6668 32.9181C42.6668 31.4454 41.4729 30.2515 40.0002 30.2515C38.5274 30.2515 37.3335 31.4454 37.3335 32.9181C37.3335 34.3909 38.5274 35.5848 40.0002 35.5848Z" fill="#2D373D"/>
<path fill-rule="evenodd" clip-rule="evenodd" d="M13.3381 55.5848L13.338 11.2852C13.338 8.78833 15.1438 6.25029 17.9609 6.25029L46.0489 6.25C48.866 6.25 50.6719 8.78804 50.6719 11.2849L50.672 55.5848H56.6652C57.7697 55.5848 58.6652 56.4802 58.6652 57.5848C58.6652 58.6894 57.7697 59.5848 56.6652 59.5848H7.3335C6.22893 59.5848 5.3335 58.6894 5.3335 57.5848C5.3335 56.4802 6.22893 55.5848 7.3335 55.5848H13.3381ZM46.672 55.5848L46.6719 11.2849C46.6719 10.9102 46.5403 10.62 46.3905 10.4467C46.2443 10.2775 46.118 10.25 46.0489 10.25L30.2354 10.2502L33.789 17.3575C34.1351 18.0496 34.0509 18.8791 33.5728 19.4876L27.0225 27.8244L31.789 37.3575C32.283 38.3454 31.8826 39.5468 30.8946 40.0408C29.9067 40.5347 28.7053 40.1343 28.2113 39.1463L22.878 28.4797C22.532 27.7876 22.6162 26.958 23.0942 26.3496L29.6446 18.0128L25.7633 10.2502L17.9609 10.2503C17.8919 10.2503 17.7656 10.2778 17.6194 10.447C17.4696 10.6203 17.338 10.9105 17.338 11.2852L17.3381 55.5848H46.672Z" fill="#2D373D"/>
</svg>
