<svg width="24" height="24" viewBox="0 0 24 24" fill="none" xmlns="http://www.w3.org/2000/svg">
<path d="M15 3.07498C14.775 2.92498 14.475 2.92498 14.25 3.07498L7.72504 6.89998H2.70004C2.25004 6.89998 1.95004 7.19998 1.95004 7.64998V16.35C1.95004 16.8 2.25004 17.1 2.70004 17.1H7.72504L14.25 20.925C14.4 21 14.475 21 14.625 21C14.775 21 14.85 21 15 20.925C15.225 20.775 15.375 20.55 15.375 20.25V3.67498C15.375 3.44998 15.225 3.22498 15 3.07498ZM13.875 18.975L8.32504 15.675C8.17504 15.6 8.10004 15.6 7.95004 15.6H3.45004V8.39998H7.95004C8.10004 8.39998 8.25004 8.39998 8.32504 8.32498L13.875 5.02498V18.975Z" fill="#2D373D"/>
<path d="M21.825 13.2L20.625 12L21.825 10.8C22.125 10.5 22.125 10.05 21.825 9.74998C21.525 9.44998 21.075 9.44998 20.775 9.74998L19.575 10.95L18.375 9.74998C18.075 9.44998 17.625 9.44998 17.325 9.74998C17.025 10.05 17.025 10.5 17.325 10.8L18.525 12L17.325 13.2C17.025 13.5 17.025 13.95 17.325 14.25C17.475 14.4 17.7 14.475 17.85 14.475C18 14.475 18.225 14.4 18.375 14.25L19.575 13.05L20.775 14.25C20.925 14.4 21.15 14.475 21.3 14.475C21.45 14.475 21.675 14.4 21.825 14.25C22.125 13.95 22.125 13.5 21.825 13.2Z" fill="#2D373D"/>
</svg>
