<svg width="64" height="65" viewBox="0 0 64 65" fill="none" xmlns="http://www.w3.org/2000/svg">
<path d="M14.6684 15.4336C13.8454 14.6969 12.581 14.767 11.8443 15.59C7.71206 20.207 5.33008 26.2904 5.33008 32.9238C5.33008 39.5572 7.71206 45.6407 11.8443 50.2577C12.581 51.0807 13.8454 51.1508 14.6684 50.4141C15.4915 49.6775 15.5615 48.4131 14.8249 47.59C11.3565 43.7149 9.33008 38.5841 9.33008 32.9238C9.33008 27.2636 11.3565 22.1328 14.8249 18.2577C15.5615 17.4346 15.4915 16.1702 14.6684 15.4336Z" fill="#2D373D"/>
<path d="M52.1581 15.59C51.4214 14.767 50.157 14.6969 49.334 15.4336C48.5109 16.1702 48.4409 17.4346 49.1776 18.2577C52.6459 22.1328 54.6724 27.2636 54.6724 32.9238C54.6724 38.5841 52.6459 43.7149 49.1776 47.59C48.4409 48.4131 48.5109 49.6775 49.334 50.4141C50.157 51.1508 51.4214 51.0807 52.1581 50.2577C56.2904 45.6407 58.6724 39.5572 58.6724 32.9238C58.6724 26.2904 56.2904 20.207 52.1581 15.59Z" fill="#2D373D"/>
<path fill-rule="evenodd" clip-rule="evenodd" d="M30.0012 39.2853C27.2965 38.4358 25.3346 35.9089 25.3346 32.9238C25.3346 29.2419 28.3193 26.2572 32.0012 26.2572C35.6831 26.2572 38.6679 29.2419 38.6679 32.9238C38.6679 35.9089 36.706 38.4358 34.0012 39.2853V57.6005C34.0012 58.7051 33.1058 59.6005 32.0012 59.6005C30.8967 59.6005 30.0012 58.7051 30.0012 57.6005V39.2853ZM32.0012 35.5905C30.5285 35.5905 29.3346 34.3966 29.3346 32.9238C29.3346 31.4511 30.5285 30.2572 32.0012 30.2572C33.474 30.2572 34.6679 31.4511 34.6679 32.9238C34.6679 34.3966 33.474 35.5905 32.0012 35.5905Z" fill="#2D373D"/>
<path d="M41.2024 20.6581C40.3192 19.9948 39.0655 20.1729 38.4021 21.0561C37.7387 21.9393 37.9169 23.193 38.8001 23.8564C41.5573 25.9275 43.3346 29.2184 43.3346 32.9249C43.3346 36.6315 41.5573 39.9224 38.8001 41.9934C37.9169 42.6568 37.7387 43.9105 38.4021 44.7937C39.0655 45.6769 40.3192 45.8551 41.2024 45.1917C44.9222 42.3977 47.3346 37.9427 47.3346 32.9249C47.3346 27.9071 44.9222 23.4522 41.2024 20.6581Z" fill="#2D373D"/>
<path d="M25.6003 21.0561C24.9369 20.1729 23.6832 19.9948 22.8 20.6581C19.0802 23.4522 16.6679 27.9071 16.6679 32.9249C16.6679 37.9427 19.0802 42.3977 22.8 45.1917C23.6832 45.8551 24.9369 45.6769 25.6003 44.7937C26.2637 43.9105 26.0855 42.6568 25.2023 41.9934C22.4451 39.9224 20.6679 36.6315 20.6679 32.9249C20.6679 29.2184 22.4451 25.9275 25.2023 23.8564C26.0855 23.193 26.2637 21.9393 25.6003 21.0561Z" fill="#2D373D"/>
</svg>
