<svg width="16" height="16" viewBox="0 0 16 16" fill="none" xmlns="http://www.w3.org/2000/svg">
<path d="M3.97827 9.28791C4.33437 9.28791 4.62304 8.9996 4.62304 8.64395C4.62304 8.28831 4.33437 8 3.97827 8C3.62217 8 3.3335 8.28831 3.3335 8.64395C3.3335 8.9996 3.62217 9.28791 3.97827 9.28791Z" fill="#2D373D"/>
<path fill-rule="evenodd" clip-rule="evenodd" d="M14.5002 8.40163C14.5002 6.97755 13.3071 6.16205 12.1675 6.08885C12.4053 5.84335 12.5663 5.52306 12.6119 5.16666H14.5002C14.7763 5.16666 15.0002 4.94281 15.0002 4.66666C15.0002 4.39052 14.7763 4.16666 14.5002 4.16666H12.5002C12.4739 4.16666 12.4481 4.16869 12.4229 4.17259C12.146 3.67216 11.6126 3.33333 11.0002 3.33333C10.3696 3.33333 9.82283 3.69255 9.55347 4.21753C9.48709 4.18495 9.41243 4.16666 9.3335 4.16666H7.3335C7.05735 4.16666 6.8335 4.39052 6.8335 4.66666C6.8335 4.94281 7.05735 5.16666 7.3335 5.16666H9.3335C9.35192 5.16666 9.37012 5.16567 9.38803 5.16372C9.43313 5.5213 9.59442 5.84267 9.83289 6.08885C8.69325 6.16204 7.50016 6.97754 7.50016 8.40163V10.6744C7.50016 11.2397 7.82726 11.6128 8.19066 11.8193C8.53547 12.0152 8.93919 12.0835 9.25016 12.0835H9.75016C9.75029 12.7737 10.3099 13.3332 11.0002 13.3332C11.6904 13.3332 12.25 12.7737 12.2502 12.0835H12.7502C13.0611 12.0835 13.4648 12.0152 13.8097 11.8193C14.1731 11.6128 14.5002 11.2397 14.5002 10.6744V8.40163ZM11.0002 5.58333C11.3454 5.58333 11.6252 5.30351 11.6252 4.95833C11.6252 4.61315 11.3454 4.33333 11.0002 4.33333C10.655 4.33333 10.3752 4.61315 10.3752 4.95833C10.3752 5.30351 10.655 5.58333 11.0002 5.58333ZM10.0002 7.08345C9.18708 7.08345 8.50016 7.6229 8.50016 8.40163V10.6744C8.50016 10.7909 8.54806 10.8722 8.68467 10.9499C8.83985 11.038 9.06113 11.0835 9.25016 11.0835H9.75016L9.75017 10.0832C9.75017 9.39285 10.3098 8.83321 11.0002 8.83321C11.6905 8.83321 12.2502 9.39285 12.2502 10.0832V11.0835H12.7502C12.9392 11.0835 13.1605 11.038 13.3157 10.9499C13.4523 10.8722 13.5002 10.7909 13.5002 10.6744V8.40163C13.5002 7.6229 12.8132 7.08345 12.0002 7.08345H10.0002ZM11.2502 12.0832V10.0832C11.2502 9.94514 11.1382 9.83321 11.0002 9.83321C10.8621 9.83321 10.7502 9.94514 10.7502 10.0832V12.0832C10.7502 12.2213 10.8621 12.3332 11.0002 12.3332C11.1382 12.3332 11.2502 12.2213 11.2502 12.0832Z" fill="#2D373D"/>
<path d="M7.64001 2.66667H5.58321C5.20509 2.66625 4.8359 2.77894 4.5253 2.98956C4.22513 3.19585 3.99656 3.48669 3.87011 3.82323L2.83023 6.02482C2.52574 6.13699 2.24914 6.31109 2.01876 6.53559C1.80018 6.74897 1.62707 7.00257 1.50945 7.2817C1.39184 7.56084 1.33204 7.85998 1.33352 8.16182V9.54736C1.33499 9.90828 1.48181 10.2541 1.74226 10.5102L1.80838 10.563V11.3849C1.80029 11.6605 1.87838 11.932 2.03224 12.1631C2.1861 12.3942 2.40843 12.574 2.66959 12.6786C2.93075 12.7832 3.21834 12.8076 3.49403 12.7485C3.76973 12.6893 4.02043 12.5496 4.21273 12.3478C4.34278 12.2217 4.44588 12.0717 4.51605 11.9064C4.58622 11.7411 4.62206 11.5639 4.62147 11.3849V10.8977H6.18322C6.30278 10.8977 6.41745 10.8513 6.50199 10.7687C6.58654 10.6861 6.63403 10.5741 6.63403 10.4573C6.63403 10.3406 6.58654 10.2286 6.50199 10.146C6.41745 10.0634 6.30278 10.017 6.18322 10.017H2.72805C2.59938 10.0171 2.4758 9.96796 2.3837 9.8802C2.2916 9.79244 2.23829 9.67299 2.23515 9.54736V8.16182C2.23436 7.97811 2.27082 7.79607 2.34243 7.62619C2.41404 7.45632 2.51939 7.30197 2.65239 7.17207C2.78539 7.04217 2.94342 6.93927 3.11734 6.86933C3.29127 6.79939 3.47765 6.76377 3.66574 6.76455H6.59142C6.71098 6.76455 6.82565 6.71816 6.91019 6.63558C6.99474 6.55301 7.04223 6.44101 7.04223 6.32423C7.04223 6.20745 6.99474 6.09546 6.91019 6.01288C6.82565 5.93031 6.71098 5.88392 6.59142 5.88392H3.87011L4.68759 4.152C4.75491 3.97383 4.8766 3.82014 5.03622 3.71168C5.19805 3.60558 5.38831 3.54841 5.58321 3.5473H7.64001C7.75958 3.5473 7.87425 3.50091 7.95879 3.41833C8.04333 3.33576 8.09083 3.22376 8.09083 3.10698C8.09083 2.9902 8.04333 2.87821 7.95879 2.79563C7.87425 2.71306 7.75958 2.66667 7.64001 2.66667ZM3.68979 11.3732C3.68868 11.4673 3.65939 11.5589 3.60553 11.6369C3.55167 11.7149 3.47561 11.7757 3.38673 11.812C3.29786 11.8482 3.20007 11.8582 3.10544 11.8407C3.01082 11.8233 2.9235 11.7791 2.85427 11.7137C2.80797 11.6694 2.77132 11.6164 2.74652 11.5579C2.72173 11.4993 2.70931 11.4365 2.71001 11.3732V10.8918H3.68979V11.3732Z" fill="#2D373D"/>
</svg>
