<svg width="32" height="33" viewBox="0 0 32 33" fill="none" xmlns="http://www.w3.org/2000/svg">
<path d="M28.6059 6.88281H25.4544V5.38281C25.4544 4.1224 24.4249 3.10156 23.1538 3.10156H20.4014C19.1303 3.10156 18.1008 4.1224 18.1008 5.38281V6.88281H13.8988V5.38281C13.8988 4.1224 12.8693 3.10156 11.5982 3.10156H8.84589C7.57478 3.10156 6.54528 4.1224 6.54528 5.38281V6.88281H3.39377C2.81599 6.88281 2.34326 7.35156 2.34326 7.92448V28.7579C2.34326 29.3308 2.81599 29.7995 3.39377 29.7995H28.6059C29.1837 29.7995 29.6564 29.3308 29.6564 28.7579V7.92448C29.6564 7.35156 29.1837 6.88281 28.6059 6.88281ZM20.2019 5.38281C20.2019 5.26823 20.2859 5.1849 20.4014 5.1849H23.1538C23.2693 5.1849 23.3534 5.27865 23.3534 5.38281V6.88281H20.2019V5.38281ZM8.64629 5.38281C8.64629 5.26823 8.73033 5.1849 8.84589 5.1849H11.5982C11.7138 5.1849 11.7978 5.27865 11.7978 5.38281V6.88281H8.64629V5.38281ZM27.5554 8.96615V11.0495H4.44427V8.96615H27.5554ZM27.5554 27.7162H4.44427V13.1329H27.5554V27.7162Z" fill="#2D373D"/>
<path d="M7.59579 20.9765H9.17155V22.539C9.17155 23.1119 9.64427 23.5807 10.2221 23.5807C10.7998 23.5807 11.2726 23.1119 11.2726 22.539V20.9765H12.8483C13.4261 20.9765 13.8988 20.5077 13.8988 19.9348C13.8988 19.3619 13.4261 18.8932 12.8483 18.8932H11.2726V17.3307C11.2726 16.7577 10.7998 16.289 10.2221 16.289C9.64427 16.289 9.17155 16.7577 9.17155 17.3307V18.8932H7.59579C7.01801 18.8932 6.54528 19.3619 6.54528 19.9348C6.54528 20.5077 7.01801 20.9765 7.59579 20.9765Z" fill="#2D373D"/>
<path d="M19.1513 21.466H24.4039C24.9816 21.466 25.4544 20.9972 25.4544 20.4243C25.4544 19.8514 24.9816 19.3826 24.4039 19.3826H19.1513C18.5736 19.3826 18.1008 19.8514 18.1008 20.4243C18.1008 20.9972 18.5736 21.466 19.1513 21.466Z" fill="#2D373D"/>
</svg>
