<svg width="16" height="16" viewBox="0 0 16 16" fill="none" xmlns="http://www.w3.org/2000/svg">
<path d="M14.2498 8.35007H12.5998C12.5498 7.45007 11.7998 6.70007 10.8498 6.70007C9.89982 6.70007 9.14982 7.45007 9.09982 8.35007H7.49982C7.19982 8.35007 6.99982 8.55007 6.99982 8.85007V13.9001C6.99982 14.2001 7.19982 14.4001 7.49982 14.4001H14.1998C14.4998 14.4001 14.6998 14.1501 14.7498 13.9001V8.85007C14.7498 8.55007 14.5498 8.35007 14.2498 8.35007ZM10.8498 7.70007C11.1998 7.70007 11.5498 8.00007 11.5998 8.35007H10.0998C10.1498 8.00007 10.4998 7.70007 10.8498 7.70007ZM13.7498 9.35007V10.4501H11.3498C11.3498 10.2001 11.1498 10.0001 10.8498 10.0001C10.5498 10.0001 10.3998 10.2001 10.3498 10.4501H7.99982V9.35007H13.7498ZM7.99982 13.4001V11.4501H10.3498V11.7501C10.3498 12.0501 10.5498 12.2501 10.8498 12.2501C11.0998 12.2501 11.3498 12.0501 11.3498 11.7501V11.4501H13.7498V13.4001H7.99982Z" fill="#2D373D"/>
<path d="M3.89982 6.30006C3.84982 6.25006 3.74982 6.25006 3.69982 6.25006C3.64982 6.25006 3.54982 6.25006 3.49982 6.30006C3.29982 6.35006 3.09982 6.55006 3.04982 6.75006C2.99982 6.80006 2.99982 6.90006 2.99982 6.95006C2.99982 7.00006 2.99982 7.10006 3.04982 7.15006C3.09982 7.35006 3.29982 7.55006 3.49982 7.60006C3.54982 7.65006 3.64982 7.65006 3.69982 7.65006C4.09982 7.65006 4.39982 7.35006 4.39982 6.95006C4.39982 6.85006 4.39982 6.80006 4.34982 6.75006C4.29982 6.55006 4.14982 6.35006 3.89982 6.30006Z" fill="#2D373D"/>
<path d="M5.5998 8.35005H2.6498C2.5998 8.35005 2.5498 8.35005 2.4998 8.30005L2.4498 8.25005C2.3498 8.20005 2.2998 8.10005 2.2998 7.95005V6.70005C2.2998 6.00005 2.8498 5.50005 3.4998 5.50005H11.8998C12.2998 5.50005 12.6998 5.75005 12.8998 6.10005C13.0498 6.35005 13.3498 6.45005 13.5998 6.30005C13.8498 6.15005 13.9498 5.85005 13.7998 5.60005C13.5498 5.15005 13.1498 4.85005 12.6998 4.65005L11.8498 2.70005C11.5998 2.00005 10.9498 1.55005 10.1998 1.55005H5.1998C4.4498 1.55005 3.7998 2.00005 3.5998 2.65005L2.6998 4.65005C1.8998 5.00005 1.2998 5.75005 1.2998 6.70005V8.00005C1.2998 8.40005 1.4998 8.75005 1.7498 9.00005V9.70005C1.6998 10.05 1.8498 10.4 2.0998 10.65C2.3498 10.9 2.6498 11.05 3.0498 11.05C3.7998 11.05 4.3998 10.45 4.4498 9.75005V9.35005H5.5998C5.8498 9.35005 6.0998 9.15005 6.0998 8.85005C6.0998 8.55005 5.89981 8.35005 5.5998 8.35005ZM4.4998 3.10005C4.5998 2.80005 4.8998 2.60005 5.1998 2.60005H10.1998C10.4998 2.60005 10.7998 2.75005 10.8998 3.10005L11.5498 4.55005H3.8498L4.4998 3.10005ZM3.4498 9.70005C3.4498 9.90005 3.2998 10.05 3.0998 10.05C2.9998 10.05 2.8998 10 2.8498 9.95005C2.7998 9.90005 2.7498 9.80005 2.7498 9.70005V9.35005H3.4498V9.70005Z" fill="#2D373D"/>
</svg>
