<svg width="16" height="16" viewBox="0 0 16 16" fill="none" xmlns="http://www.w3.org/2000/svg">
<path d="M13.3998 4.60005H12.2498V2.60005C12.2498 1.90005 11.6498 1.30005 10.8998 1.30005H5.0998C4.3998 1.30005 3.7998 1.90005 3.7998 2.60005V4.60005H2.6498C1.8998 4.60005 1.2998 5.20005 1.2998 5.95005V10.1C1.2998 10.8 1.8998 11.4 2.6498 11.4H3.7998V14.2C3.7998 14.5 3.9998 14.7 4.2998 14.7H11.7498C11.9998 14.7 12.2498 14.5 12.2498 14.2V11.4H13.3998C14.1498 11.4 14.7498 10.8 14.7498 10.05V5.90005C14.7498 5.20005 14.1498 4.60005 13.3998 4.60005ZM4.7998 2.65005C4.7998 2.45005 4.9498 2.30005 5.0998 2.25005H10.8998C11.0998 2.25005 11.2498 2.40005 11.2498 2.60005V4.60005H4.7998V2.65005ZM11.2498 13.7H4.7998V8.90005H11.2498V13.7ZM13.7498 10.05C13.7498 10.25 13.5998 10.4 13.3998 10.4H12.2498V8.40005C12.2498 8.10005 12.0498 7.90005 11.7498 7.90005H4.2998C3.9998 7.90005 3.7998 8.10005 3.7998 8.40005V10.45H2.6498C2.4498 10.45 2.2998 10.3 2.2998 10.1V5.95005C2.2998 5.75005 2.4498 5.60005 2.6498 5.60005H13.3998C13.5998 5.60005 13.7498 5.75005 13.7498 5.95005V10.05Z" fill="#2D373D"/>
<path d="M4.29983 6.25H3.44983C3.14983 6.25 2.94983 6.45 2.94983 6.75C2.94983 7.05 3.14983 7.25 3.44983 7.25H4.29983C4.54983 7.25 4.79983 7.05 4.79983 6.75C4.79983 6.45 4.59983 6.25 4.29983 6.25Z" fill="#2D373D"/>
<path d="M10.0998 9.6001H5.94983C5.64983 9.6001 5.44983 9.8001 5.44983 10.1001C5.44983 10.4001 5.64983 10.6001 5.94983 10.6001H10.0998C10.3498 10.6001 10.5998 10.4001 10.5998 10.1001C10.5998 9.8001 10.3998 9.6001 10.0998 9.6001Z" fill="#2D373D"/>
<path d="M8.84983 11.25H5.94983C5.64983 11.25 5.44983 11.45 5.44983 11.75C5.44983 12.05 5.64983 12.25 5.94983 12.25H8.84983C9.09983 12.25 9.34983 12.05 9.34983 11.75C9.34983 11.45 9.14983 11.25 8.84983 11.25Z" fill="#2D373D"/>
</svg>
