<svg width="64" height="65" viewBox="0 0 64 65" fill="none" xmlns="http://www.w3.org/2000/svg">
<path fill-rule="evenodd" clip-rule="evenodd" d="M31.9986 43.8539C37.6792 43.8539 42.932 38.6012 42.932 32.9206C42.932 31.5852 42.5093 29.4112 41.6022 26.6905C40.7205 24.046 39.4761 21.1648 38.0612 18.51C36.6338 15.832 35.1116 13.5324 33.7216 11.9656C33.0252 11.1806 32.4548 10.6856 32.0422 10.4128C32.015 10.3949 31.9896 10.3785 31.9657 10.3637C31.9431 10.3779 31.9189 10.3934 31.8932 10.4104C31.4835 10.682 30.9161 11.1757 30.223 11.9599C28.8396 13.5252 27.3256 15.8237 25.9063 18.5017C24.4995 21.1562 23.2629 24.0376 22.3869 26.6829C21.486 29.4035 21.0653 31.5807 21.0653 32.9206C21.0653 38.6012 26.318 43.8539 31.9986 43.8539ZM31.9986 47.8539C39.8884 47.8539 46.932 40.8104 46.932 32.9206C46.932 25.0308 37.6787 6.25391 31.9645 6.25391C26.2502 6.25391 17.0653 25.0308 17.0653 32.9206C17.0653 40.8104 24.1088 47.8539 31.9986 47.8539Z" fill="#2D373D"/>
<path fill-rule="evenodd" clip-rule="evenodd" d="M25.8042 30.9301C26.9036 30.8226 27.8818 31.6267 27.9893 32.7261C28.2347 35.2374 29.7886 36.9206 31.9987 36.9206C33.1033 36.9206 33.9987 37.816 33.9987 38.9206C33.9987 40.0251 33.1033 40.9206 31.9987 40.9206C27.1393 40.9206 24.3906 37.0283 24.0082 33.1151C23.9008 32.0158 24.7049 31.0375 25.8042 30.9301Z" fill="#2D373D"/>
<path fill-rule="evenodd" clip-rule="evenodd" d="M11.0242 42.0261C11.5182 43.0141 11.1177 44.2154 10.1298 44.7094C9.99913 44.7748 9.4759 45.2751 9.3546 46.291C9.25006 47.1666 9.48021 48.337 10.6496 49.5064C12.4546 51.3113 14.5496 52.7951 17.7446 53.851C20.9907 54.9238 25.4475 55.5794 31.9987 55.5794C38.5499 55.5794 43.0068 54.9238 46.2528 53.851C49.4478 52.7951 51.5429 51.3113 53.3479 49.5064C54.5173 48.337 54.7474 47.1666 54.6429 46.291C54.5216 45.2751 53.9983 44.7748 53.8677 44.7094C52.8797 44.2154 52.4793 43.0141 52.9733 42.0261C53.4672 41.0382 54.6686 40.6377 55.6565 41.1317C57.3037 41.9553 58.3804 43.8549 58.6147 45.8168C58.8657 47.919 58.2069 50.3042 56.1763 52.3348C53.9812 54.5298 51.3613 56.3755 47.508 57.649C43.7057 58.9056 38.7809 59.5794 31.9987 59.5794C25.2165 59.5794 20.2917 58.9056 16.4894 57.649C12.6361 56.3755 10.0162 54.5298 7.82118 52.3348C5.79057 50.3042 5.13182 47.919 5.38281 45.8168C5.61706 43.8549 6.69381 41.9553 8.34093 41.1317C9.32889 40.6377 10.5302 41.0382 11.0242 42.0261Z" fill="#2D373D"/>
</svg>
