<svg width="24" height="25" viewBox="0 0 24 25" fill="none" xmlns="http://www.w3.org/2000/svg">
<path fill-rule="evenodd" clip-rule="evenodd" d="M20.3057 15.3622V12.5669C20.3021 10.2599 19.391 8.04681 17.7689 6.40293C16.1481 4.76039 13.9466 3.81704 11.637 3.77439C11.1675 3.76009 10.7071 3.90686 10.3327 4.19064L7.79242 6.09001C6.78376 6.42861 5.84932 6.97876 5.05643 7.71407C3.73399 8.94049 2.89769 10.5964 2.69385 12.3801C2.24854 12.8719 2 13.5125 2 14.179C2 14.8914 2.28387 15.5741 2.78843 16.0771C3.26841 16.5557 3.91065 16.8343 4.58551 16.8602V19.3342C4.58551 20.0466 4.86939 20.7293 5.37394 21.2323C5.87843 21.7353 6.56217 22.0174 7.27463 22.0174C7.98709 22.0174 8.67083 21.7353 9.17531 21.2323C9.65488 20.7542 9.93508 20.1138 9.96166 19.4398H15.6775C16.1949 19.4398 16.7053 19.3197 17.1683 19.0889C17.6313 18.8581 18.0343 18.5229 18.3452 18.1097L19.2836 16.8622H21.25C21.6642 16.8622 22 16.5264 22 16.1122C22 15.698 21.6642 15.3622 21.25 15.3622H20.3057ZM11.593 5.27375C11.4649 5.26945 11.3394 5.30948 11.238 5.38664L11.2331 5.39035L10.7901 5.72155C11.7821 5.803 12.7504 6.07965 13.6381 6.53773C14.7056 7.08864 15.6259 7.88606 16.322 8.86374C16.5623 9.20116 16.4835 9.66945 16.1461 9.9097C15.8087 10.15 15.3404 10.0712 15.1001 9.73376C14.5428 8.95102 13.8057 8.3122 12.9502 7.87071C12.0952 7.42949 11.1467 7.1982 10.1837 7.1962C8.65888 7.2012 7.19231 7.77904 6.07641 8.81391C5.27929 9.55315 4.70298 10.4868 4.39688 11.5117C4.49349 11.5012 4.59103 11.4958 4.68912 11.4958H12.4456C12.8598 11.4958 13.1956 11.8316 13.1956 12.2458C13.1956 12.66 12.8598 12.9958 12.4456 12.9958H4.68912C4.41044 12.9958 4.14219 13.0931 3.92989 13.2684C3.91486 13.2826 3.89925 13.2962 3.8831 13.3091C3.87101 13.3202 3.85913 13.3316 3.84747 13.3432C3.62472 13.5653 3.5 13.866 3.5 14.179C3.5 14.4921 3.62472 14.7928 3.84747 15.0149C4.0703 15.237 4.373 15.3622 4.68912 15.3622H5.33132L5.33551 15.3622L5.3397 15.3622H18.8057V12.5692C18.8025 10.6567 18.0472 8.82058 16.7012 7.4565C15.3549 6.09221 13.5252 5.30836 11.6048 5.27406L11.593 5.27375ZM17.4066 16.8622H6.08551V19.3342C6.08551 19.6473 6.21023 19.948 6.43298 20.1701C6.65581 20.3922 6.95852 20.5174 7.27463 20.5174C7.59074 20.5174 7.89344 20.3922 8.11627 20.1701C8.33902 19.948 8.46374 19.6473 8.46374 19.3342V18.6898C8.46374 18.2756 8.79953 17.9398 9.21374 17.9398H15.6775C15.9628 17.9398 16.2441 17.8736 16.4991 17.7465C16.7541 17.6193 16.9757 17.4349 17.1465 17.2079L17.4066 16.8622Z" fill="#2D373D"/>
</svg>
