<svg width="16" height="17" viewBox="0 0 16 17" fill="none" xmlns="http://www.w3.org/2000/svg">
<path fill-rule="evenodd" clip-rule="evenodd" d="M8.69664 2.62695H3.41228C3.08188 2.62695 2.76501 2.7582 2.53138 2.99183C2.29776 3.22546 2.1665 3.54233 2.1665 3.87273V13.5678C2.1665 13.8982 2.29775 14.2151 2.53138 14.4487C2.76501 14.6824 3.08188 14.8136 3.41228 14.8136H4.90384C5.17998 14.8136 5.40384 14.5898 5.40384 14.3136C5.40384 14.0375 5.17998 13.8136 4.90384 13.8136H3.41228C3.3471 13.8136 3.28458 13.7877 3.23849 13.7416C3.1924 13.6955 3.1665 13.633 3.1665 13.5678V3.87273C3.1665 3.80755 3.1924 3.74503 3.23849 3.69894C3.28458 3.65285 3.3471 3.62695 3.41228 3.62695H8.13273V6.11006C8.13273 6.44046 8.26398 6.75733 8.49761 6.99096C8.73124 7.22459 9.04811 7.35584 9.37851 7.35584H11.8616V9.09318C11.8616 9.36932 12.0855 9.59318 12.3616 9.59318C12.6378 9.59318 12.8616 9.36932 12.8616 9.09318V6.85805L12.8616 6.85584L12.8616 6.85363V6.7916C12.8615 6.46143 12.7303 6.14471 12.4969 5.91117L9.57782 2.99155C9.46208 2.87589 9.32469 2.78416 9.17349 2.7216C9.02237 2.65907 8.86019 2.62691 8.69664 2.62695ZM9.13273 3.96072L11.5274 6.35584H9.37851C9.31333 6.35584 9.25081 6.32995 9.20472 6.28385C9.15863 6.23776 9.13273 6.17525 9.13273 6.11006V3.96072Z" fill="#2D373D"/>
<path fill-rule="evenodd" clip-rule="evenodd" d="M6.39526 10.0846C6.11912 10.0846 5.89526 10.3085 5.89526 10.5846V14.3135C5.89526 14.4461 5.94794 14.5733 6.04171 14.6671C6.13548 14.7608 6.26266 14.8135 6.39526 14.8135C6.92346 14.8135 7.43002 14.6037 7.80351 14.2302C8.177 13.8567 8.38682 13.3502 8.38682 12.822V12.0762C8.38682 11.548 8.177 11.0414 7.80351 10.6679C7.43002 10.2945 6.92346 10.0846 6.39526 10.0846ZM6.89526 13.6782V11.2199C6.96807 11.2624 7.03576 11.3144 7.0964 11.3751C7.28235 11.561 7.38682 11.8132 7.38682 12.0762V12.822C7.38682 13.0849 7.28235 13.3372 7.0964 13.5231C7.03576 13.5837 6.96807 13.6357 6.89526 13.6782Z" fill="#2D373D"/>
<path fill-rule="evenodd" clip-rule="evenodd" d="M9.24346 10.4495C9.47709 10.2159 9.79396 10.0846 10.1244 10.0846C10.4548 10.0846 10.7716 10.2159 11.0053 10.4495C11.2389 10.6831 11.3701 11 11.3701 11.3304V13.5677C11.3701 13.8981 11.2389 14.215 11.0053 14.4486C10.7716 14.6823 10.4548 14.8135 10.1244 14.8135C9.79396 14.8135 9.47709 14.6823 9.24346 14.4486C9.00983 14.215 8.87858 13.8981 8.87858 13.5677V11.3304C8.87858 11 9.00983 10.6831 9.24346 10.4495ZM10.1244 11.0846C10.0592 11.0846 9.99666 11.1105 9.95057 11.1566C9.90448 11.2027 9.87858 11.2652 9.87858 11.3304V13.5677C9.87858 13.6329 9.90448 13.6954 9.95057 13.7415C9.99666 13.7876 10.0592 13.8135 10.1244 13.8135C10.1895 13.8135 10.2521 13.7876 10.2982 13.7415C10.3442 13.6954 10.3701 13.6329 10.3701 13.5677V11.3304C10.3701 11.2652 10.3442 11.2027 10.2982 11.1566C10.2521 11.1105 10.1895 11.0846 10.1244 11.0846Z" fill="#2D373D"/>
<path d="M13.853 10.0846C13.3249 10.0846 12.8183 10.2945 12.4448 10.6679C12.0713 11.0414 11.8615 11.548 11.8615 12.0762V12.822C11.8615 13.3502 12.0713 13.8567 12.4448 14.2302C12.8183 14.6037 13.3249 14.8135 13.853 14.8135C14.1292 14.8135 14.353 14.5897 14.353 14.3135C14.353 14.0374 14.1292 13.8135 13.853 13.8135C13.5901 13.8135 13.3379 13.7091 13.1519 13.5231C12.966 13.3372 12.8615 13.0849 12.8615 12.822V12.0762C12.8615 11.8132 12.966 11.561 13.1519 11.3751C13.3379 11.1891 13.5901 11.0846 13.853 11.0846C14.1292 11.0846 14.353 10.8608 14.353 10.5846C14.353 10.3085 14.1292 10.0846 13.853 10.0846Z" fill="#2D373D"/>
</svg>
