<svg width="24" height="25" viewBox="0 0 24 25" fill="none" xmlns="http://www.w3.org/2000/svg">
<path d="M11.9948 19.6719C9.65338 19.6719 7.75224 17.7719 7.75224 15.4319C7.75224 12.8419 8.83289 11.6319 8.95296 11.5019C9.10305 11.3419 9.30317 11.2519 9.53331 11.2719C9.75344 11.2719 9.95356 11.3819 10.0836 11.5519L10.764 12.4119C11.9848 9.17187 12.0348 9.17188 12.5551 9.17188C12.8353 9.17188 13.0054 9.26187 13.5957 9.85187C14.4062 10.6619 16.2773 12.8419 16.2573 15.4419C16.2573 17.7719 14.3462 19.6719 11.9948 19.6719ZM9.60335 13.3519C9.42324 13.8219 9.25314 14.5119 9.25314 15.4319C9.25314 16.9419 10.4839 18.1719 11.9948 18.1719C13.5057 18.1719 14.7564 16.9419 14.7564 15.4319C14.7664 13.7219 13.6358 12.1119 12.8353 11.2219C12.5351 12.0019 12.1048 13.1319 11.7146 14.1819C11.6246 14.4319 11.3944 14.6219 11.1243 14.6619C10.8541 14.7019 10.5839 14.6019 10.4238 14.3819L9.60335 13.3519Z" fill="#2D373D"/>
<path d="M11.9848 22.9219C7.66219 22.9219 4 19.3719 4 15.1719C4 10.2119 8.27255 5.60188 8.45266 5.41188C8.60275 5.25188 8.80287 5.15188 9.023 5.17188C9.23313 5.17188 9.44325 5.27187 9.57333 5.44187L10.4138 6.45187C12.5951 2.92188 12.6352 2.92188 13.1155 2.92188C13.3856 2.92188 13.4957 2.92188 14.4362 3.87187C15.757 5.20188 20.0496 9.93188 19.9996 15.1819C19.9996 19.3719 16.3274 22.9219 11.9748 22.9219H11.9848ZM9.00299 7.08187C7.89233 8.45187 5.5109 11.8019 5.5109 15.1719C5.5109 18.5419 8.48268 21.4219 11.9948 21.4219C15.5069 21.4219 18.5187 18.5619 18.5187 15.1719C18.5587 10.6619 14.7965 6.29188 13.2555 4.78188C12.7552 5.54188 11.9147 6.88187 11.1543 8.12187C11.0242 8.33187 10.8141 8.46188 10.5739 8.47188C10.3338 8.49188 10.1036 8.39188 9.94355 8.20188L9.00299 7.08187Z" fill="#2D373D"/>
</svg>
