<svg width="24" height="24" viewBox="0 0 24 24" fill="none" xmlns="http://www.w3.org/2000/svg">
<path d="M13.6497 9.59973H6.97473C6.52473 9.59973 6.22473 9.89973 6.22473 10.3497C6.22473 10.7997 6.52473 11.0997 6.97473 11.0997H13.6497C14.0247 11.0997 14.3997 10.7997 14.3997 10.3497C14.3997 9.89973 14.0997 9.59973 13.6497 9.59973Z" fill="#2D373D"/>
<path d="M20.7748 19.7248L16.1248 15.0748C17.2498 13.7248 17.7748 12.0748 17.7748 10.3498C17.7748 6.2248 14.4748 2.9248 10.3498 2.9248C8.3998 2.9248 6.5248 3.6748 5.0998 5.0998C3.6748 6.5248 2.9248 8.3998 2.9248 10.3498C2.9248 12.3748 3.6748 14.2498 5.0998 15.5998C6.5248 17.0248 8.3998 17.7748 10.3498 17.7748C12.1498 17.7748 13.7998 17.1748 15.0748 16.1248L19.7248 20.7748C19.8748 20.9248 20.0248 20.9998 20.2498 20.9998C20.4748 20.9998 20.6248 20.9248 20.7748 20.7748C21.0748 20.4748 21.0748 20.0248 20.7748 19.7248ZM6.1498 14.5498C5.0248 13.4248 4.4248 11.9248 4.4248 10.3498C4.4248 8.7748 5.0248 7.2748 6.1498 6.1498C7.2748 5.0248 8.7748 4.4248 10.3498 4.4248C11.9248 4.4248 13.4248 5.0248 14.5498 6.1498C15.6748 7.2748 16.2748 8.7748 16.2748 10.3498C16.2748 11.9248 15.6748 13.4248 14.5498 14.5498C13.4248 15.6748 11.9248 16.2748 10.3498 16.2748C8.7748 16.2748 7.2748 15.6748 6.1498 14.5498Z" fill="#2D373D"/>
</svg>
