<svg width="16" height="17" viewBox="0 0 16 17" fill="none" xmlns="http://www.w3.org/2000/svg">
<path fill-rule="evenodd" clip-rule="evenodd" d="M3.28086 5.43985C3.28086 4.04921 4.40878 2.92188 5.80013 2.92188C7.19149 2.92188 8.31941 4.04921 8.31941 5.43985C8.31941 6.51747 7.6421 7.43699 6.68975 7.79633L6.70186 7.79926C7.45011 7.98194 8.12515 8.38758 8.63752 8.9624C8.82131 9.16858 8.80306 9.48464 8.59677 9.66833C8.39047 9.85202 8.07425 9.83378 7.89047 9.6276C7.513 9.20412 7.01569 8.90528 6.46444 8.7707C5.91319 8.63611 5.33404 8.67213 4.80374 8.87398C4.27344 9.07583 3.81703 9.43398 3.495 9.90097C3.17297 10.3679 3.00053 10.9217 3.00052 11.4889C3.00052 11.765 2.77654 11.9889 2.50025 11.9889C2.22397 11.9889 2 11.765 2 11.4889C2.00001 10.719 2.23409 9.96734 2.6712 9.33346C3.10832 8.69959 3.72784 8.21345 4.44766 7.93946C4.59932 7.88173 4.75392 7.834 4.91049 7.79632C3.95815 7.43697 3.28086 6.51746 3.28086 5.43985ZM5.80013 3.92188C4.96135 3.92188 4.28138 4.60149 4.28138 5.43985C4.28138 6.2782 4.96135 6.95782 5.80013 6.95782C6.63892 6.95782 7.31889 6.2782 7.31889 5.43985C7.31889 4.60149 6.63892 3.92188 5.80013 3.92188Z" fill="#2D373D"/>
<path fill-rule="evenodd" clip-rule="evenodd" d="M10.3904 9.59002C10.2684 9.53979 10.1314 9.53979 10.0094 9.59002L6.72013 10.944C6.67669 10.9607 6.63618 10.9834 6.59957 11.0109C6.56974 11.0333 6.54271 11.0588 6.51884 11.0869C6.44491 11.1738 6.40018 11.2862 6.39979 11.4091L6.39978 11.4107V13.243C6.39978 13.5191 6.62376 13.743 6.90004 13.743C7.17633 13.743 7.4003 13.5191 7.4003 13.243V12.1261L7.86637 12.2965L7.86637 13.4677L7.86637 13.4694C7.86694 13.6414 7.91843 13.8094 8.01438 13.9522C8.11032 14.0951 8.24641 14.2063 8.4055 14.272L9.87719 14.8604L9.88108 14.8619C10.0861 14.9419 10.3137 14.9419 10.5187 14.8619L11.9892 14.274L11.9942 14.2719C12.1533 14.2063 12.2894 14.0951 12.3854 13.9522C12.4813 13.8094 12.5328 13.6414 12.5334 13.4694V12.2965L13.6716 11.8802C13.8654 11.8094 13.9958 11.6269 13.9999 11.4207C14.004 11.2145 13.881 11.0269 13.6902 10.9484L10.3904 9.59002ZM8.48044 11.4563C8.52039 11.4656 8.5585 11.4796 8.59414 11.4979L10.1999 12.0851L11.8055 11.4979C11.8412 11.4796 11.8794 11.4656 11.9194 11.4563L12.1192 11.3832L10.1999 10.5931L8.28055 11.3832L8.48044 11.4563ZM8.86689 13.3794V12.6625L10.028 13.0871C10.139 13.1277 10.2608 13.1277 10.3718 13.0871L11.5329 12.6625V13.3794L10.1999 13.9123L8.86689 13.3794Z" fill="#2D373D"/>
</svg>
