<svg width="64" height="64" viewBox="0 0 64 64" fill="none" xmlns="http://www.w3.org/2000/svg">
<path d="M58.2001 45.4002L50.8001 38.0002C52.6001 35.6002 53.6001 32.6002 53.6001 29.4002C53.6001 21.6002 47.2001 15.2002 39.4001 15.2002C31.6001 15.2002 25.2001 21.6002 25.2001 29.4002C25.2001 37.2002 31.6001 43.6002 39.4001 43.6002C42.6001 43.6002 45.6001 42.6002 48.0001 40.8002L55.4001 48.2002C55.8001 48.6002 56.2001 48.8002 56.8001 48.8002C57.4001 48.8002 57.8001 48.6002 58.2001 48.2002C58.6001 47.8002 58.8001 47.4002 58.8001 46.8002C58.8001 46.4002 58.6001 45.8002 58.2001 45.4002ZM29.2001 29.4002C29.2001 23.8002 33.8001 19.2002 39.4001 19.2002C45.2001 19.2002 49.6001 23.8002 49.6001 29.4002C49.6001 35.0002 45.0001 39.6002 39.4001 39.6002C33.8001 39.6002 29.2001 35.0002 29.2001 29.4002Z" fill="#2D373D"/>
<path d="M7.2001 19.2002H24.0001C25.0001 19.2002 26.0001 18.2002 26.0001 17.2002C26.0001 16.0002 25.2001 15.2002 24.0001 15.2002H7.2001C6.0001 15.2002 5.2001 16.0002 5.2001 17.2002C5.2001 18.4002 6.0001 19.2002 7.2001 19.2002Z" fill="#2D373D"/>
<path d="M7.2001 31.4003H20.2001C21.2001 31.4003 22.2001 30.6003 22.2001 29.4003C22.2001 28.2003 21.4001 27.4003 20.2001 27.4003H7.2001C6.0001 27.4003 5.2001 28.2003 5.2001 29.4003C5.2001 30.6003 6.0001 31.4003 7.2001 31.4003Z" fill="#2D373D"/>
<path d="M23.8 39.6001H7C5.8 39.6001 5 40.4001 5 41.6001C5 42.8001 5.8 43.6001 7 43.6001H23.8C25 43.6001 25.8 42.8001 25.8 41.6001C25.8 40.4001 25 39.6001 23.8 39.6001Z" fill="#2D373D"/>
</svg>
