<svg width="32" height="32" viewBox="0 0 32 32" fill="none" xmlns="http://www.w3.org/2000/svg">
<path fill-rule="evenodd" clip-rule="evenodd" d="M7.52537 6.19097C7.45594 6.26068 7.3335 6.44724 7.3335 6.94118V25.0588C7.3335 25.3358 7.46057 25.555 7.68473 25.7351C7.79963 25.8274 7.92912 25.8984 8.05013 25.9447C8.1097 25.9675 8.16179 25.9822 8.20297 25.9907C8.24564 25.9996 8.26695 26 8.26683 26H23.7335C24.2228 26 24.4063 25.878 24.475 25.809C24.5444 25.7393 24.6668 25.5528 24.6668 25.0588V6.94118C24.6668 6.44724 24.5444 6.26068 24.475 6.19097C24.4063 6.122 24.2228 6 23.7335 6H20.3373L18.2089 9.60621L19.9081 13.6733C20.0539 14.0224 19.9903 14.4239 19.7437 14.7107L14.1807 21.1813C13.8757 21.5361 13.3654 21.632 12.9524 21.4121C12.5394 21.1922 12.3341 20.7154 12.4582 20.2643L14.1229 14.2106L11.5847 10.0502C11.441 9.81465 11.401 9.53014 11.4742 9.26407L12.3725 6H8.26683C7.77755 6 7.59405 6.122 7.52537 6.19097ZM6.10829 4.77962C6.68405 4.20153 7.46722 4 8.26683 4H13.6849C13.997 4 14.2912 4.1457 14.4803 4.39392C14.6695 4.64215 14.7319 4.96445 14.6491 5.26534L13.5173 9.37778L16.0554 13.538C16.1991 13.7735 16.2391 14.058 16.166 14.324L15.5674 16.5005L17.8248 13.8749L16.1704 9.9149C16.0488 9.62394 16.0716 9.2927 16.2319 9.02114L18.9051 4.49173C19.085 4.187 19.4125 4 19.7663 4H23.7335C24.5331 4 25.3163 4.20153 25.892 4.77962C26.467 5.35697 26.6668 6.14099 26.6668 6.94118V25.0588C26.6668 25.859 26.467 26.643 25.892 27.2204C25.3163 27.7985 24.5331 28 23.7335 28H8.26683C7.6802 28 6.98174 27.7357 6.43226 27.2943C5.85087 26.8273 5.3335 26.076 5.3335 25.0588V6.94118C5.3335 6.14099 5.53328 5.35697 6.10829 4.77962Z" fill="#2D373D"/>
</svg>
