<svg width="16" height="17" viewBox="0 0 16 17" fill="none" xmlns="http://www.w3.org/2000/svg">
<path d="M14.6103 6.68834L14.3903 7.48167C14.3169 7.74834 14.0369 7.90167 13.7769 7.82834C13.5103 7.755 13.3569 7.48167 13.4303 7.215L13.6503 6.42167C13.6903 6.26834 13.6569 6.10834 13.5636 5.98167C13.4703 5.855 13.3236 5.78834 13.1636 5.78834H2.83692C2.67692 5.78834 2.53026 5.855 2.43692 5.98167C2.34359 6.10834 2.31026 6.26834 2.35692 6.42167L3.74359 11.2817C3.80359 11.495 4.00359 11.6417 4.22359 11.6417H6.37026C6.65026 11.6417 6.87026 11.8683 6.87026 12.1417C6.87026 12.415 6.65026 12.6417 6.37026 12.6417H4.22359C3.55692 12.6417 2.96359 12.195 2.78359 11.555L1.39026 6.695C1.26359 6.24167 1.35026 5.76167 1.63692 5.38167C1.92359 5.00167 2.36359 4.78167 2.83692 4.78167H3.59692L5.80359 2.415C5.99692 2.215 6.31026 2.20167 6.51026 2.38834C6.71026 2.575 6.72359 2.895 6.53692 3.095L4.96359 4.78167H11.0436L9.47026 3.095C9.28359 2.895 9.29692 2.575 9.49692 2.38834C9.69692 2.20167 10.0169 2.20834 10.2036 2.415L12.4103 4.78167H13.1636C13.6369 4.78167 14.0703 5.00167 14.3569 5.375C14.6436 5.755 14.7369 6.22834 14.6103 6.68834Z" fill="#2D373D"/>
<path d="M14.6369 12.127C14.4969 13.4203 13.8902 14.607 13.0169 15.307C12.2769 15.8003 11.5035 15.5403 11.0035 15.2136C10.6969 15.4136 10.2969 15.587 9.86354 15.587C9.59021 15.5936 9.29688 15.5203 9.01688 15.3336C7.82354 14.3736 7.14354 12.5603 7.37688 10.9936C7.52354 10.007 8.01688 9.29365 8.77021 8.99365C9.39021 8.74698 9.99688 8.82698 10.5035 9.08698V8.78031C10.5035 8.50031 10.7235 8.28031 11.0035 8.28031C11.2835 8.28031 11.5035 8.50031 11.5035 8.78031V10.1403C11.5035 10.3536 11.3635 10.547 11.1569 10.6136C10.9569 10.6803 10.7302 10.6136 10.6035 10.4403C10.5769 10.407 9.95688 9.59365 9.14354 9.92031C8.59021 10.1403 8.42354 10.7803 8.37021 11.1403C8.21021 12.187 8.63688 13.747 9.61021 14.527C10.0369 14.807 10.6435 14.227 10.6502 14.2203C10.8435 14.027 11.1635 14.027 11.3569 14.2203C11.3569 14.227 11.9635 14.807 12.4302 14.5003C13.0569 13.9936 13.5369 13.0336 13.6435 12.0203C13.7235 11.2736 13.5902 10.627 13.2835 10.2403C13.2502 10.2003 13.2235 10.167 13.1902 10.1336C12.9902 9.94698 12.9769 9.62698 13.1702 9.42698C13.3569 9.22698 13.6769 9.22031 13.8769 9.40698C13.9435 9.47365 14.0035 9.54031 14.0569 9.60698C14.5435 10.207 14.7502 11.1003 14.6369 12.127Z" fill="#2D373D"/>
<path d="M13.3569 8.16076C13.3569 8.43409 13.3235 8.88076 13.0435 9.16076C12.7702 9.43409 12.3235 9.47409 12.0502 9.46743C11.9035 9.46743 11.7902 9.35409 11.7902 9.20743C11.7835 8.93409 11.8235 8.49409 12.1035 8.21409C12.3835 7.93409 12.8235 7.89409 13.0969 7.90076C13.2435 7.90743 13.3569 8.01409 13.3569 8.16076Z" fill="#2D373D"/>
</svg>
