<svg width="24" height="25" viewBox="0 0 24 25" fill="none" xmlns="http://www.w3.org/2000/svg">
<path d="M10.7454 4.04398C11.1041 4.2511 11.227 4.7098 11.0199 5.06851L10.4699 6.02111C10.2628 6.37982 9.80406 6.5027 9.44535 6.29558C9.08664 6.08846 8.96375 5.62976 9.17087 5.27105L9.72091 4.31846C9.92803 3.95975 10.3867 3.83686 10.7454 4.04398Z" fill="#2D373D"/>
<path fill-rule="evenodd" clip-rule="evenodd" d="M8.1703 6.10376C7.53377 6.10376 6.9233 6.3566 6.47319 6.80668C6.02308 7.25676 5.7702 7.86722 5.7702 8.50375C5.7702 9.14028 6.02308 9.75074 6.47319 10.2008C6.9233 10.6509 7.53377 10.9037 8.1703 10.9037C8.80684 10.9037 9.4173 10.6509 9.86741 10.2008C10.3175 9.75074 10.5704 9.14028 10.5704 8.50375C10.5704 7.86722 10.3175 7.25676 9.86741 6.80668C9.4173 6.3566 8.80683 6.10376 8.1703 6.10376ZM7.53382 7.86738C7.70262 7.69859 7.93157 7.60376 8.1703 7.60376C8.40904 7.60376 8.63799 7.69859 8.80679 7.86738C8.97559 8.03616 9.07041 8.26507 9.07041 8.50375C9.07041 8.74243 8.97559 8.97134 8.80679 9.14012C8.63799 9.30891 8.40904 9.40374 8.1703 9.40374C7.93157 9.40374 7.70262 9.30891 7.53382 9.14012C7.36502 8.97134 7.2702 8.74243 7.2702 8.50375C7.2702 8.26507 7.36502 8.03616 7.53382 7.86738Z" fill="#2D373D"/>
<path fill-rule="evenodd" clip-rule="evenodd" d="M19.0535 12.2332C18.4276 12.1184 17.7817 12.2569 17.2579 12.6181L13.9815 14.9437H7.07021C6.43368 14.9437 5.82321 15.1965 5.3731 15.6466C4.92298 16.0967 4.6701 16.7071 4.6701 17.3436C4.6701 17.9802 4.92298 18.5906 5.3731 19.0407C5.72693 19.3945 6.17985 19.6264 6.66664 19.7095L6.34112 21.0115C6.24065 21.4133 6.48496 21.8205 6.88681 21.921C7.28865 22.0215 7.69586 21.7771 7.79632 21.3753L8.20427 19.7436L14.7716 19.7436C14.7995 19.7436 14.8273 19.7431 14.8551 19.7421L15.7485 21.5288C15.9338 21.8993 16.3843 22.0494 16.7548 21.8642C17.1252 21.6789 17.2754 21.2284 17.0901 20.858L16.2683 19.2144C16.2984 19.1901 16.328 19.165 16.357 19.1392L19.9887 16.5645C20.5097 16.2028 20.8664 15.6495 20.9807 15.0255C21.0953 14.3999 20.9566 13.754 20.5956 13.2304C20.2341 12.7067 19.6794 12.3481 19.0535 12.2332ZM7.64301 18.2436H14.7697C14.9942 18.2433 15.2106 18.158 15.3748 18.005C15.3992 17.9822 15.4252 17.9611 15.4524 17.9418L19.1317 15.3333C19.3279 15.1977 19.4623 14.9898 19.5053 14.7552C19.5482 14.5207 19.4964 14.2787 19.3611 14.0824C19.2255 13.8861 19.0175 13.7517 18.7829 13.7086C18.5495 13.6658 18.3088 13.7169 18.113 13.8505L14.6548 16.3052C14.5279 16.3953 14.3762 16.4437 14.2206 16.4437H7.07021C6.83147 16.4437 6.60252 16.5385 6.43372 16.7073C6.26492 16.8761 6.1701 17.105 6.1701 17.3436C6.1701 17.5823 6.26492 17.8112 6.43372 17.98C6.60252 18.1488 6.83147 18.2436 7.07021 18.2436H7.59337C7.60984 18.2431 7.6264 18.2431 7.64301 18.2436Z" fill="#2D373D"/>
<path d="M10.7205 8.50397C10.7205 8.08975 11.0563 7.75397 11.4705 7.75397H12.5706C12.9848 7.75397 13.3206 8.08975 13.3206 8.50397C13.3206 8.91818 12.9848 9.25397 12.5706 9.25397H11.4705C11.0563 9.25397 10.7205 8.91818 10.7205 8.50397Z" fill="#2D373D"/>
<path d="M3.77002 7.75397C3.35581 7.75397 3.02002 8.08975 3.02002 8.50397C3.02002 8.91818 3.35581 9.25397 3.77002 9.25397H4.87009C5.2843 9.25397 5.62009 8.91818 5.62009 8.50397C5.62009 8.08975 5.2843 7.75397 4.87009 7.75397H3.77002Z" fill="#2D373D"/>
<path d="M7.16969 11.7366C7.37682 11.3779 7.25393 10.9192 6.89522 10.7121C6.53651 10.505 6.07781 10.6278 5.87069 10.9865L5.32065 11.9391C5.11353 12.2979 5.23642 12.7566 5.59513 12.9637C5.95384 13.1708 6.41254 13.0479 6.61966 12.6892L7.16969 11.7366Z" fill="#2D373D"/>
<path d="M5.59513 4.04398C5.95384 3.83686 6.41254 3.95975 6.61966 4.31846L7.16969 5.27105C7.37682 5.62976 7.25393 6.08846 6.89522 6.29558C6.53651 6.5027 6.07781 6.37982 5.87069 6.02111L5.32065 5.06851C5.11353 4.7098 5.23642 4.2511 5.59513 4.04398Z" fill="#2D373D"/>
<path d="M10.4699 10.9865C10.2628 10.6278 9.80406 10.505 9.44535 10.7121C9.08664 10.9192 8.96375 11.3779 9.17087 11.7366L9.72091 12.6892C9.92803 13.0479 10.3867 13.1708 10.7454 12.9637C11.1041 12.7566 11.227 12.2979 11.0199 11.9391L10.4699 10.9865Z" fill="#2D373D"/>
</svg>
