<svg width="16" height="17" viewBox="0 0 16 17" fill="none" xmlns="http://www.w3.org/2000/svg">
<path fill-rule="evenodd" clip-rule="evenodd" d="M7.99915 4.72058C6.88524 4.72058 5.81696 5.16308 5.0293 5.95073C4.24165 6.73839 3.79915 7.80667 3.79915 8.92058C3.79915 10.0345 4.24165 11.1028 5.0293 11.8904C5.81696 12.6781 6.88524 13.1206 7.99915 13.1206C8.88338 13.1206 9.73886 12.8417 10.448 12.3328C10.455 12.3282 10.4619 12.3235 10.4687 12.3185C10.4756 12.3136 10.4823 12.3084 10.4888 12.3031C10.658 12.1786 10.8186 12.0408 10.969 11.8904C11.7567 11.1028 12.1992 10.0345 12.1992 8.92058C12.1992 8.48712 12.1321 8.06056 12.0039 7.65476C12.0011 7.64402 11.9981 7.6333 11.9946 7.62261C11.9911 7.61196 11.9873 7.6015 11.9832 7.59124C11.7789 6.97881 11.4341 6.41584 10.969 5.95073C10.1815 5.16327 9.11357 4.72079 7.99995 4.72058H7.99915ZM10.8508 7.4686C10.6997 7.1718 10.5018 6.89774 10.2619 6.65784C9.78105 6.177 9.16295 5.86499 8.49967 5.75995V7.26086C8.77133 7.34266 9.02133 7.49068 9.22559 7.69494C9.29916 7.76851 9.36543 7.84801 9.42394 7.93232L10.8508 7.4686ZM9.73287 8.88341C9.73313 8.89579 9.73327 8.90818 9.73327 8.92059C9.73327 9.30146 9.60792 9.6694 9.38006 9.96926L10.262 11.1833C10.862 10.5831 11.1992 9.76924 11.1992 8.92058C11.1992 8.75177 11.1858 8.58433 11.1597 8.41968L9.73287 8.88341ZM9.45308 11.7712L8.5711 10.5571C8.38918 10.6206 8.19628 10.6539 7.99993 10.6539C7.80359 10.6539 7.61068 10.6206 7.42876 10.5571L6.54611 11.7717C6.99204 11.9989 7.48932 12.1206 7.99915 12.1206C8.50932 12.1206 9.00693 11.9988 9.45308 11.7712ZM8.4311 9.51368L8.43667 9.50969C8.46547 9.48834 8.49283 9.46479 8.51848 9.43913C8.65601 9.30161 8.73327 9.11508 8.73327 8.92059C8.73327 8.7261 8.65601 8.53957 8.51848 8.40204C8.38095 8.26452 8.19443 8.18726 7.99993 8.18726C7.80544 8.18726 7.61892 8.26452 7.48139 8.40204C7.34386 8.53957 7.2666 8.7261 7.2666 8.92059C7.2666 9.11508 7.34386 9.30161 7.48139 9.43913C7.50662 9.46436 7.53349 9.48756 7.56176 9.50863L7.56892 9.51373L7.57597 9.51895C7.69908 9.60618 7.84705 9.65392 7.99993 9.65392C8.15345 9.65392 8.30201 9.60579 8.42542 9.51787L8.4311 9.51368ZM5.73704 11.184L6.6198 9.96925C6.39195 9.66939 6.2666 9.30145 6.2666 8.92059C6.2666 8.90824 6.26673 8.8959 6.267 8.88358L4.83864 8.41936C4.81251 8.58412 4.79915 8.75166 4.79915 8.92058C4.79915 9.76927 5.1363 10.5832 5.73641 11.1833L5.73704 11.184ZM6.77428 7.69494C6.70067 7.76855 6.63436 7.8481 6.57583 7.93246L5.14767 7.46831C5.29877 7.17163 5.49659 6.89766 5.73641 6.65784C6.2175 6.17675 6.83601 5.86466 7.49967 5.75979V7.26101C7.22822 7.34285 6.97841 7.49081 6.77428 7.69494Z" fill="#2D373D"/>
<path fill-rule="evenodd" clip-rule="evenodd" d="M7.99967 2.25391C6.23156 2.25391 4.53587 2.95629 3.28563 4.20653C2.03539 5.45677 1.33301 7.15246 1.33301 8.92057C1.33301 10.6887 2.03539 12.3844 3.28563 13.6346C4.53587 14.8849 6.23156 15.5872 7.99967 15.5872C9.76778 15.5872 11.4635 14.8849 12.7137 13.6346C13.964 12.3844 14.6663 10.6887 14.6663 8.92057C14.6663 7.15246 13.964 5.45677 12.7137 4.20653C11.4635 2.95629 9.76778 2.25391 7.99967 2.25391ZM3.99274 4.91363C5.05544 3.85093 6.49678 3.25391 7.99967 3.25391C9.50257 3.25391 10.9439 3.85093 12.0066 4.91363C13.0693 5.97634 13.6663 7.41768 13.6663 8.92057C13.6663 10.4235 13.0693 11.8648 12.0066 12.9275C10.9439 13.9902 9.50257 14.5872 7.99967 14.5872C6.49678 14.5872 5.05544 13.9902 3.99274 12.9275C2.93003 11.8648 2.33301 10.4235 2.33301 8.92057C2.33301 7.41768 2.93003 5.97634 3.99274 4.91363Z" fill="#2D373D"/>
</svg>
