<svg width="32" height="32" viewBox="0 0 32 32" fill="none" xmlns="http://www.w3.org/2000/svg">
<path d="M7.95605 18.5758C8.66825 18.5758 9.2456 17.9992 9.2456 17.2879C9.2456 16.5766 8.66825 16 7.95605 16C7.24385 16 6.6665 16.5766 6.6665 17.2879C6.6665 17.9992 7.24385 18.5758 7.95605 18.5758Z" fill="#2D373D"/>
<path fill-rule="evenodd" clip-rule="evenodd" d="M28.9998 16.8033C28.9998 13.9551 26.6137 12.3241 24.3344 12.1777C24.8101 11.6867 25.1322 11.0461 25.2234 10.3333H28.9998C29.5521 10.3333 29.9998 9.88562 29.9998 9.33334C29.9998 8.78105 29.5521 8.33334 28.9998 8.33334H24.9998C24.9473 8.33334 24.8957 8.33739 24.8454 8.3452C24.2914 7.34433 23.2248 6.66667 21.9999 6.66667C20.7386 6.66667 19.6452 7.38511 19.1065 8.43506C18.9737 8.36992 18.8244 8.33334 18.6665 8.33334H14.6665C14.1142 8.33334 13.6665 8.78105 13.6665 9.33334C13.6665 9.88562 14.1142 10.3333 14.6665 10.3333H18.6665C18.7034 10.3333 18.7397 10.3313 18.7756 10.3275C18.8658 11.0426 19.1883 11.6854 19.6653 12.1777C17.386 12.3241 14.9998 13.9551 14.9998 16.8033V21.3487C14.9998 22.4793 15.654 23.2257 16.3808 23.6386C17.0705 24.0305 17.8779 24.1669 18.4998 24.1669H19.4998C19.5001 25.5474 20.6193 26.6664 21.9999 26.6664C23.3804 26.6664 24.4996 25.5474 24.4999 24.1669H25.4998C26.1218 24.1669 26.9292 24.0305 27.6188 23.6386C28.3456 23.2257 28.9998 22.4793 28.9998 21.3487V16.8033ZM21.9999 11.1667C22.6902 11.1667 23.2499 10.607 23.2499 9.91667C23.2499 9.22631 22.6902 8.66667 21.9999 8.66667C21.3095 8.66667 20.7499 9.22631 20.7499 9.91667C20.7499 10.607 21.3095 11.1667 21.9999 11.1667ZM19.9998 14.1669C18.3737 14.1669 16.9998 15.2458 16.9998 16.8033V21.3487C16.9998 21.5818 17.0956 21.7445 17.3688 21.8997C17.6792 22.0761 18.1218 22.1669 18.4998 22.1669H19.4998L19.4999 20.1664C19.4999 18.7857 20.6191 17.6664 21.9999 17.6664C23.3806 17.6664 24.4999 18.7857 24.4999 20.1664V22.1669H25.4998C25.8779 22.1669 26.3205 22.0761 26.6308 21.8997C26.904 21.7445 26.9998 21.5818 26.9998 21.3487V16.8033C26.9998 15.2458 25.626 14.1669 23.9998 14.1669H19.9998ZM22.4999 24.1664V20.1664C22.4999 19.8903 22.276 19.6664 21.9999 19.6664C21.7237 19.6664 21.4999 19.8903 21.4999 20.1664V24.1664C21.4999 24.4426 21.7237 24.6664 21.9999 24.6664C22.276 24.6664 22.4999 24.4426 22.4999 24.1664Z" fill="#2D373D"/>
<path d="M15.2795 5.33334H11.1659C10.4097 5.33251 9.67131 5.55788 9.05011 5.97914C8.44977 6.39172 7.99262 6.9734 7.73974 7.64647L5.65997 12.0496C5.05099 12.274 4.49779 12.6222 4.03704 13.0712C3.59987 13.498 3.25366 14.0051 3.01842 14.5634C2.78318 15.1217 2.66359 15.72 2.66656 16.3237V19.0947C2.66948 19.8166 2.96314 20.5083 3.48404 21.0204L3.61628 21.126V22.7699C3.60009 23.321 3.75627 23.8639 4.06399 24.3262C4.37171 24.7884 4.81637 25.1481 5.33869 25.3573C5.86101 25.5664 6.43619 25.6151 6.98758 25.4969C7.53897 25.3787 8.04038 25.0992 8.42498 24.6956C8.68507 24.4435 8.89128 24.1435 9.03162 23.8129C9.17196 23.4823 9.24362 23.1278 9.24246 22.7699V21.7953H12.366C12.6051 21.7953 12.8344 21.7025 13.0035 21.5374C13.1726 21.3722 13.2676 21.1483 13.2676 20.9147C13.2676 20.6811 13.1726 20.4571 13.0035 20.292C12.8344 20.1268 12.6051 20.0341 12.366 20.0341H5.4556C5.19827 20.0341 4.95111 19.9359 4.76691 19.7604C4.58272 19.5849 4.4761 19.346 4.46982 19.0947V16.3237C4.46823 15.9562 4.54115 15.5921 4.68438 15.2524C4.8276 14.9126 5.03829 14.604 5.30429 14.3441C5.5703 14.0843 5.88634 13.8786 6.23419 13.7387C6.58205 13.5988 6.95482 13.5276 7.331 13.5291H13.1823C13.4215 13.5291 13.6508 13.4363 13.8199 13.2712C13.989 13.106 14.084 12.882 14.084 12.6485C14.084 12.4149 13.989 12.1909 13.8199 12.0258C13.6508 11.8606 13.4215 11.7678 13.1823 11.7678H7.73974L9.3747 8.30401C9.50934 7.94767 9.75272 7.64028 10.072 7.42338C10.3956 7.21118 10.7761 7.09682 11.1659 7.09461H15.2795C15.5187 7.09461 15.748 7.00183 15.9171 6.83668C16.0862 6.67152 16.1812 6.44753 16.1812 6.21397C16.1812 5.98041 16.0862 5.75642 15.9171 5.59127C15.748 5.42612 15.5187 5.33334 15.2795 5.33334ZM7.37909 22.7464C7.37687 22.9345 7.31828 23.1179 7.21057 23.2738C7.10285 23.4298 6.95073 23.5515 6.77298 23.6239C6.59523 23.6963 6.39965 23.7163 6.2104 23.6814C6.02114 23.6465 5.84651 23.5582 5.70806 23.4274C5.61545 23.3388 5.54214 23.2328 5.49256 23.1157C5.44298 22.9987 5.41814 22.8731 5.41954 22.7464V21.7836H7.37909V22.7464Z" fill="#2D373D"/>
</svg>
