<svg width="32" height="33" viewBox="0 0 32 33" fill="none" xmlns="http://www.w3.org/2000/svg">
<path fill-rule="evenodd" clip-rule="evenodd" d="M8.04093 5.93515C8.98485 4.99123 10.2651 4.46094 11.6 4.46094C12.9349 4.46094 14.2151 4.99123 15.1591 5.93515C16.103 6.87907 16.6333 8.15931 16.6333 9.49422C16.6333 10.8291 16.103 12.1094 15.1591 13.0533C14.646 13.5664 14.0335 13.9573 13.3669 14.2072C13.7602 14.3026 14.1471 14.4299 14.5238 14.5887C16.0688 15.2401 17.3543 16.3854 18.1789 17.8453C18.4505 18.3262 18.2808 18.9362 17.7999 19.2078C17.319 19.4794 16.709 19.3098 16.4374 18.8289C15.8304 17.7542 14.8842 16.9111 13.7469 16.4316C12.6095 15.9521 11.3453 15.8633 10.1521 16.1791C8.9589 16.4948 7.90407 17.1973 7.15276 18.1765C6.40144 19.1558 5.99604 20.3566 6.00003 21.5908C6.00181 22.1431 5.55555 22.5923 5.00327 22.5941C4.45098 22.5958 4.00182 22.1496 4.00004 21.5973C3.99462 19.9206 4.54534 18.2894 5.56598 16.9591C6.58661 15.6288 8.01956 14.6745 9.64048 14.2456C9.69922 14.2301 9.75809 14.2152 9.81707 14.2011C9.15667 13.951 8.54991 13.5623 8.04093 13.0533C7.097 12.1094 6.56671 10.8291 6.56671 9.49422C6.56671 8.15931 7.097 6.87907 8.04093 5.93515ZM11.6 6.46094C10.7955 6.46094 10.024 6.78051 9.45514 7.34936C8.88629 7.91821 8.56671 8.68974 8.56671 9.49422C8.56671 10.2987 8.88629 11.0702 9.45514 11.6391C10.024 12.2079 10.7955 12.5275 11.6 12.5275C12.4045 12.5275 13.176 12.2079 13.7448 11.6391C14.3137 11.0702 14.6333 10.2987 14.6333 9.49422C14.6333 8.68974 14.3137 7.91821 13.7448 7.34936C13.176 6.78051 12.4045 6.46094 11.6 6.46094Z" fill="#2D373D"/>
<path fill-rule="evenodd" clip-rule="evenodd" d="M27.1 19.9737L19.6404 27.4344C19.5008 27.574 19.3229 27.6692 19.1293 27.7079L15.4627 28.4412C15.1349 28.5068 14.7959 28.4041 14.5595 28.1677C14.3231 27.9313 14.2204 27.5924 14.286 27.2645L15.0193 23.5979C15.0581 23.4043 15.1532 23.2265 15.2928 23.0869L22.7531 15.6256C23.3286 15.0503 24.1092 14.7269 24.923 14.7269C25.7368 14.7269 26.5172 15.0501 27.0927 15.6255L27.1035 15.6364C27.1093 15.6424 27.115 15.6484 27.1206 15.6545C27.3962 15.9349 27.6154 16.2658 27.7661 16.6291C27.9205 17.0015 28 17.4006 28 17.8037C28 18.2068 27.9205 18.606 27.7661 18.9784C27.6117 19.3506 27.3852 19.689 27.1 19.9737ZM24.1673 17.0399L16.9211 24.287L16.5414 26.1859L18.4402 25.8061L25.6864 18.5589C25.7856 18.4599 25.865 18.3416 25.9187 18.2121C25.9724 18.0827 26 17.9439 26 17.8037C26 17.6636 25.9724 17.5248 25.9187 17.3953C25.865 17.2659 25.7863 17.1483 25.6871 17.0492C25.6824 17.0445 25.6777 17.0398 25.6731 17.035C25.6702 17.032 25.6673 17.0289 25.6644 17.0259C25.4655 16.8343 25.1998 16.7269 24.923 16.7269C24.6396 16.7269 24.3677 16.8396 24.1673 17.0399Z" fill="#2D373D"/>
</svg>
