<svg width="24" height="25" viewBox="0 0 24 25" fill="none" xmlns="http://www.w3.org/2000/svg">
<path fill-rule="evenodd" clip-rule="evenodd" d="M8.69023 3.92188C7.69072 3.92188 6.73215 4.32004 6.02539 5.02878C5.54481 5.5107 5.20742 6.10939 5.0407 6.75834H4.8465C4.43299 6.75834 4.09776 7.0945 4.09776 7.50918C4.09776 7.92385 4.43299 8.26001 4.8465 8.26001H4.963C5.08162 9.05551 5.45135 9.79774 6.02539 10.3734C6.51652 10.8659 7.12925 11.2084 7.79282 11.3716C6.99079 11.5037 6.22484 11.8111 5.54689 12.2737C4.7617 12.8094 4.11958 13.5363 3.676 14.3875C3.23246 15.2386 3.00064 16.1886 3 17.1527C2.99973 17.5674 3.33473 17.9038 3.74825 17.9041C4.16176 17.9044 4.49721 17.5684 4.49748 17.1537C4.49796 16.4298 4.67213 15.7182 5.00318 15.083C5.33418 14.4478 5.81109 13.9097 6.38931 13.5152C6.96739 13.1207 7.62929 12.8816 8.31574 12.8172C9.00214 12.7529 9.69386 12.8652 10.3295 13.145C10.7082 13.3117 11.1499 13.139 11.3161 12.7593C11.4823 12.3796 11.3101 11.9367 10.9315 11.77C10.5003 11.5802 10.0495 11.4466 9.58956 11.3711C10.2524 11.2078 10.8644 10.8654 11.3551 10.3734C11.9291 9.79774 12.2988 9.05551 12.4175 8.26001H12.5336C12.9471 8.26001 13.2823 7.92385 13.2823 7.50918C13.2823 7.0945 12.9471 6.75834 12.5336 6.75834H12.3398C12.173 6.10939 11.8357 5.5107 11.3551 5.02878C10.6483 4.32004 9.68975 3.92188 8.69023 3.92188ZM10.7577 6.75834C10.6461 6.51215 10.4906 6.28554 10.2962 6.09062C10.2106 6.00473 10.1188 5.92642 10.0219 5.8561L10.0345 6.75834H10.7577ZM9.01776 5.44734C8.90993 5.43159 8.80049 5.42355 8.69023 5.42355C8.58109 5.42355 8.47275 5.43142 8.36598 5.44687L8.36598 6.75834H9.03609L9.01776 5.44734ZM7.36765 5.84954C7.26742 5.92154 7.17258 6.00206 7.08427 6.09062C6.88989 6.28554 6.73439 6.51215 6.62276 6.75834H7.36765L7.36765 5.84954ZM6.4885 8.26001C6.58814 8.65465 6.79237 9.01883 7.08427 9.31154C7.5102 9.73866 8.08788 9.97861 8.69023 9.97861C9.29259 9.97861 9.87027 9.73866 10.2962 9.31154C10.5881 9.01883 10.7923 8.65465 10.892 8.26001H6.4885Z" fill="#2D373D"/>
<path fill-rule="evenodd" clip-rule="evenodd" d="M13.7622 12.4113C12.5216 12.4113 11.516 13.4198 11.516 14.6638V19.6694C11.516 20.9134 12.5216 21.9219 13.7622 21.9219H18.7538C19.9943 21.9219 21 20.9134 21 19.6694V14.6638C21 13.4198 19.9943 12.4113 18.7538 12.4113H13.7622ZM13.0134 14.6638C13.0134 14.2491 13.3487 13.913 13.7622 13.913H15.5092V16.4158H13.0134V14.6638ZM17.0067 16.4158V13.913H18.7538C19.1673 13.913 19.5025 14.2491 19.5025 14.6638V16.4158H17.0067ZM17.0067 17.9174H19.5025V19.6694C19.5025 20.084 19.1673 20.4202 18.7538 20.4202H17.0067V17.9174ZM15.5092 17.9174V20.4202H13.7622C13.3487 20.4202 13.0134 20.084 13.0134 19.6694V17.9174H15.5092Z" fill="#2D373D"/>
</svg>
