<svg width="24" height="25" viewBox="0 0 24 25" fill="none" xmlns="http://www.w3.org/2000/svg">
<path d="M8.27294 9.5574C8.52889 8.53357 9.17514 7.04395 10.2476 5.93359C11.1711 4.9775 12.3914 4.31372 13.9949 4.43726C13.8736 6.63397 14.4102 7.95225 15.178 8.72008C15.5931 9.13527 16.0374 9.3479 16.3843 9.45556C16.557 9.50918 16.7064 9.53708 16.8181 9.55165C16.8741 9.55896 16.9211 9.56298 16.9575 9.56517C16.9757 9.56627 16.9913 9.56692 17.0041 9.56729L17.0212 9.56767L17.0281 9.56774L17.0312 9.56776L17.0326 9.56776C17.0326 9.56776 17.0351 9.56776 17.0312 9.56776L17.0351 9.56776L17.0362 9.56776L17.0386 9.56775L17.0436 9.56771L17.055 9.5675L17.0668 9.56715L17.083 9.56648C17.1039 9.56547 17.1292 9.56372 17.1587 9.56077C17.2177 9.55487 17.2933 9.54417 17.383 9.52495C17.5627 9.48643 17.7975 9.41403 18.067 9.27927C18.4251 9.10023 18.8311 8.81788 19.2449 8.37852C19.6258 8.90492 20.012 9.49865 20.2599 10.2042C20.618 11.2235 20.6759 12.4757 19.7423 14.0089C19.5268 14.3627 19.639 14.8241 19.9928 15.0396C20.3466 15.255 20.808 15.1428 21.0234 14.789C22.2069 12.8455 22.1718 11.1208 21.6751 9.70701C21.2797 8.5817 20.5813 7.65089 20.1189 7.03451C20.0276 6.91289 19.9456 6.8035 19.8768 6.70729C19.7335 6.50674 19.5009 6.38938 19.2544 6.39337C19.008 6.39736 18.7792 6.52217 18.6425 6.72725C18.1511 7.46431 17.6894 7.79106 17.3962 7.93764C17.2471 8.01219 17.1331 8.04445 17.0687 8.05825C17.051 8.06204 17.0369 8.06447 17.0267 8.066L17.0121 8.06425C16.9734 8.0592 16.9091 8.04785 16.8289 8.02298C16.67 7.97364 16.4515 7.87227 16.2387 7.65948C15.8317 7.25247 15.2817 6.26242 15.5467 3.87667C15.5897 3.49003 15.3299 3.13472 14.9484 3.05842C12.4167 2.55208 10.4948 3.51862 9.16873 4.89149C8.0472 6.05262 7.33562 7.51324 6.96744 8.66861C6.83068 8.61769 6.66204 8.52341 6.47001 8.38155C6.02972 8.05629 5.6051 7.58508 5.35456 7.25101C5.11573 6.93257 4.66972 6.85617 4.33852 7.07698C2.77487 8.11943 2.11627 9.65523 2.01662 11.1149C1.91903 12.5445 2.35169 13.9583 3.04422 14.8568C3.29709 15.1849 3.76803 15.2459 4.0961 14.993C4.42418 14.7401 4.48514 14.2692 4.23228 13.9411C3.78654 13.3628 3.4378 12.3207 3.51314 11.2171C3.57372 10.3296 3.90449 9.44132 4.64747 8.73992C4.91588 9.03068 5.2359 9.33477 5.57872 9.58803C5.87439 9.80646 6.22186 10.0133 6.59565 10.1253C6.97591 10.2393 7.43602 10.2687 7.88075 10.0463C8.07658 9.9484 8.21984 9.76981 8.27294 9.5574Z" fill="#2D373D"/>
<path d="M17.9777 16.9599L11.9786 11.1376C11.4392 11.6521 10.5546 12.5276 9.60014 13.4722L9.14873 13.9189C7.95916 15.0956 6.72912 16.3078 6.00873 16.9728C5.70438 17.2538 5.22988 17.2348 4.94892 16.9304C4.66796 16.6261 4.68692 16.1516 4.99127 15.8706C5.68815 15.2273 6.89669 14.0367 8.09385 12.8525L8.54525 12.4058C9.572 11.3896 10.537 10.4345 11.0725 9.9296C11.6304 9.40365 12.4191 9.47482 12.9169 9.95795L19.0223 15.8835C19.3196 16.172 19.3267 16.6468 19.0382 16.9441C18.7497 17.2413 18.2749 17.2484 17.9777 16.9599Z" fill="#2D373D"/>
<path d="M17.4786 17.4219C17.4786 17.0077 17.1428 16.6719 16.7286 16.6719C16.3144 16.6719 15.9786 17.0077 15.9786 17.4219L15.9786 21.4212H14.1009V18.422C14.1009 17.7317 13.5412 17.172 12.8509 17.172H11.144C10.4536 17.172 9.89399 17.7317 9.89399 18.422V21.4213L8.02113 21.4213L8.02113 17.422C8.02113 17.0077 7.68535 16.672 7.27113 16.672C6.85692 16.672 6.52113 17.0077 6.52113 17.422L6.52112 21.4253C6.52107 21.593 6.521 21.7756 6.53783 21.927C6.55503 22.0818 6.60338 22.3703 6.83766 22.6047C7.07196 22.839 7.36049 22.8874 7.51531 22.9046C7.66682 22.9214 7.84947 22.9214 8.0172 22.9213L10.644 22.9213C11.0582 22.9213 11.394 22.5855 11.394 22.1713V18.672H12.6009V22.1712C12.6009 22.5854 12.9367 22.9212 13.3509 22.9212L15.9825 22.9212C16.1502 22.9213 16.3328 22.9214 16.4843 22.9046C16.6391 22.8874 16.9277 22.8391 17.162 22.6047C17.3963 22.3704 17.4447 22.0818 17.4619 21.927C17.4787 21.7756 17.4786 21.593 17.4786 21.4253L17.4786 17.4219Z" fill="#2D373D"/>
<path d="M17.2294 13.6094C16.8152 13.6094 16.4794 13.2736 16.4794 12.8594L16.4794 11.6724H15.2925C14.8783 11.6724 14.5425 11.3366 14.5425 10.9224C14.5425 10.5082 14.8783 10.1724 15.2925 10.1724H17.2294C17.6436 10.1724 17.9794 10.5082 17.9794 10.9224L17.9794 12.8594C17.9794 13.2736 17.6436 13.6094 17.2294 13.6094Z" fill="#2D373D"/>
</svg>
