<svg width="16" height="16" viewBox="0 0 16 16" fill="none" xmlns="http://www.w3.org/2000/svg">
<path fill-rule="evenodd" clip-rule="evenodd" d="M7.99772 3.83336C7.96664 3.83336 7.93601 3.83946 7.90766 3.85116C7.87933 3.86286 7.85402 3.87983 7.83306 3.9008L7.8309 3.90295L2.84911 8.82445C2.65267 9.01853 2.33609 9.0166 2.14202 8.82015C1.94795 8.62371 1.94988 8.30713 2.14632 8.11306L7.12715 3.19249C7.24144 3.07852 7.37709 2.98832 7.52614 2.9268C7.67571 2.86507 7.83598 2.83336 7.99772 2.83336C8.15945 2.83336 8.31973 2.86507 8.46929 2.9268C8.61833 2.98831 8.75397 3.0785 8.86825 3.19246C8.86867 3.19287 8.86908 3.19329 8.8695 3.1937L13.8491 8.11306C14.0456 8.30713 14.0475 8.62371 13.8534 8.82015C13.6593 9.0166 13.3428 9.01853 13.1463 8.82445L8.16237 3.9008C8.14141 3.87984 8.11611 3.86286 8.08777 3.85116C8.05943 3.83946 8.0288 3.83336 7.99772 3.83336Z" fill="#2D373D"/>
<path fill-rule="evenodd" clip-rule="evenodd" d="M3.99987 9.16669C4.27602 9.16669 4.49987 9.39055 4.49987 9.66669V13H6.49987V10.5C6.49987 10.4913 6.49985 10.482 6.49983 10.4723C6.49948 10.329 6.4989 10.0885 6.5672 9.88358C6.60842 9.75991 6.68551 9.6111 6.83353 9.49597C6.98587 9.37748 7.16341 9.33336 7.33321 9.33336H8.66654C8.83634 9.33336 9.01388 9.37748 9.16622 9.49597C9.31424 9.6111 9.39133 9.75991 9.43255 9.88358C9.50085 10.0885 9.50027 10.329 9.49992 10.4723C9.4999 10.482 9.49987 10.4913 9.49987 10.5V13H11.4999V9.66669C11.4999 9.39055 11.7237 9.16669 11.9999 9.16669C12.276 9.16669 12.4999 9.39055 12.4999 9.66669V13.5C12.4999 13.7762 12.276 14 11.9999 14H8.99987C8.72373 14 8.49987 13.7762 8.49987 13.5V10.5C8.49987 10.4346 8.49976 10.3809 8.49804 10.3334H7.50171C7.49999 10.3809 7.49987 10.4346 7.49987 10.5V13.5C7.49987 13.7762 7.27602 14 6.99987 14H3.99987C3.72373 14 3.49987 13.7762 3.49987 13.5V9.66669C3.49987 9.39055 3.72373 9.16669 3.99987 9.16669Z" fill="#2D373D"/>
<path fill-rule="evenodd" clip-rule="evenodd" d="M5.29696 3.69511C5.32718 3.96959 5.12916 4.2166 4.85467 4.24681C4.78162 4.25485 4.69717 4.27818 4.60773 4.32084C4.51851 4.3634 4.43051 4.42229 4.35057 4.49479C4.27062 4.56728 4.20342 4.64911 4.15236 4.73375C4.10118 4.8186 4.06972 4.90037 4.05459 4.97229C3.99774 5.24252 3.7326 5.4155 3.46237 5.35865C3.19214 5.3018 3.01916 5.03666 3.07601 4.76643C3.11651 4.57393 3.19306 4.38802 3.2961 4.21722C3.39926 4.04621 3.52947 3.88943 3.67884 3.75399C3.82821 3.61854 3.99694 3.50425 4.1772 3.41827C4.35724 3.33239 4.54973 3.27434 4.74526 3.25281C5.01974 3.2226 5.26675 3.42062 5.29696 3.69511Z" fill="#2D373D"/>
<path fill-rule="evenodd" clip-rule="evenodd" d="M10.7696 3.69511C10.7394 3.96959 10.9374 4.2166 11.2119 4.24681C11.2849 4.25485 11.3694 4.27818 11.4588 4.32084C11.5481 4.3634 11.6361 4.42229 11.716 4.49479C11.7959 4.56728 11.8631 4.64911 11.9142 4.73375C11.9654 4.8186 11.9968 4.90037 12.012 4.97229C12.0688 5.24252 12.334 5.4155 12.6042 5.35865C12.8744 5.3018 13.0474 5.03666 12.9906 4.76643C12.9501 4.57393 12.8735 4.38802 12.7705 4.21722C12.6673 4.04621 12.5371 3.88943 12.3877 3.75399C12.2384 3.61854 12.0696 3.50425 11.8894 3.41827C11.7093 3.33239 11.5168 3.27434 11.3213 3.25281C11.0468 3.2226 10.7998 3.42062 10.7696 3.69511Z" fill="#2D373D"/>
<path fill-rule="evenodd" clip-rule="evenodd" d="M4.84456 2.47009C4.86109 2.74573 4.65103 2.98259 4.37538 2.99912C3.99667 3.02183 3.59373 3.19618 3.26744 3.50095C2.94114 3.80572 2.73974 4.19584 2.69127 4.57212C2.656 4.846 2.40538 5.03943 2.1315 5.00416C1.85762 4.96888 1.66419 4.71826 1.69946 4.44438C1.78039 3.81602 2.10472 3.2186 2.58485 2.77015C3.06497 2.3217 3.68311 2.03884 4.31553 2.00091C4.59117 1.98438 4.82803 2.19444 4.84456 2.47009Z" fill="#2D373D"/>
<path fill-rule="evenodd" clip-rule="evenodd" d="M11.222 2.47009C11.2055 2.74573 11.4155 2.98259 11.6912 2.99912C12.0699 3.02183 12.4728 3.19618 12.7991 3.50095C13.1254 3.80572 13.3268 4.19584 13.3753 4.57212C13.4106 4.846 13.6612 5.03943 13.9351 5.00416C14.2089 4.96888 14.4024 4.71826 14.3671 4.44438C14.2862 3.81602 13.9618 3.2186 13.4817 2.77015C13.0016 2.3217 12.3835 2.03884 11.751 2.00091C11.4754 1.98438 11.2385 2.19444 11.222 2.47009Z" fill="#2D373D"/>
</svg>
