<svg width="24" height="25" viewBox="0 0 24 25" fill="none" xmlns="http://www.w3.org/2000/svg">
<path d="M8.78998 14.9439C8.65843 14.7256 8.48512 14.5353 8.27998 14.3839C8.07636 14.2382 7.84487 14.1361 7.59998 14.0839C7.35638 14.0289 7.10358 14.0289 6.85998 14.0839V12.8739C6.86117 12.6191 6.81135 12.3666 6.71346 12.1313C6.61557 11.896 6.47158 11.6827 6.28998 11.5039C5.9196 11.1581 5.43174 10.9657 4.92498 10.9657C4.41822 10.9657 3.93036 11.1581 3.55998 11.5039C3.19767 11.869 2.98995 12.3597 2.97998 12.8739V16.9639C2.9938 17.9489 3.347 18.8991 3.97998 19.6539L5.54998 21.6539C5.61984 21.7439 5.70928 21.8168 5.81151 21.867C5.91374 21.9172 6.02607 21.9436 6.13998 21.9439C6.30697 21.944 6.46909 21.8876 6.59998 21.7839C6.75604 21.6616 6.85732 21.4825 6.88168 21.2857C6.90604 21.089 6.8515 20.8906 6.72998 20.7339L5.14998 18.7339C4.74958 18.2346 4.53093 17.6139 4.52998 16.9739V12.8739C4.52998 12.7599 4.57528 12.6505 4.65592 12.5699C4.73656 12.4892 4.84594 12.4439 4.95998 12.4439C5.07402 12.4439 5.1834 12.4892 5.26404 12.5699C5.34468 12.6505 5.38998 12.7599 5.38998 12.8739V15.7439C5.35253 16.1167 5.42556 16.4923 5.59998 16.8239L6.66998 18.6039C6.77314 18.7655 6.93425 18.8814 7.12023 18.9279C7.3062 18.9744 7.50292 18.9479 7.66998 18.8539C7.83518 18.7541 7.95483 18.5936 8.00341 18.4068C8.05198 18.22 8.02563 18.0216 7.92998 17.8539L6.92998 16.1239C6.90024 16.0398 6.90024 15.948 6.92998 15.8639C6.92165 15.771 6.93894 15.6776 6.97998 15.5939L7.10998 15.5439H7.24998C7.30049 15.5534 7.34828 15.5739 7.38998 15.6039C7.43843 15.64 7.4764 15.6883 7.49998 15.7439L8.39998 17.1039C8.70893 17.5653 8.87263 18.1086 8.86998 18.6639V21.1439C8.86998 21.3428 8.949 21.5336 9.08965 21.6742C9.2303 21.8149 9.42107 21.8939 9.61998 21.8939C9.81889 21.8939 10.0097 21.8149 10.1503 21.6742C10.291 21.5336 10.37 21.3428 10.37 21.1439V18.6639C10.3716 17.8136 10.121 16.9819 9.64998 16.2739L8.78998 14.9439Z" fill="#2D373D"/>
<path d="M20.44 11.4639C20.0696 11.1181 19.5817 10.9257 19.075 10.9257C18.5682 10.9257 18.0804 11.1181 17.71 11.4639C17.5235 11.6474 17.3766 11.8672 17.2786 12.1097C17.1805 12.3523 17.1334 12.6124 17.14 12.8739V14.0739C16.8964 14.0189 16.6436 14.0189 16.4 14.0739C16.1505 14.1269 15.9153 14.2326 15.71 14.3839C15.5119 14.5208 15.3449 14.698 15.22 14.9039L14.33 16.2639C13.8578 16.9713 13.6072 17.8034 13.61 18.6539V21.1339C13.61 21.3328 13.689 21.5236 13.8296 21.6642C13.9703 21.8049 14.1611 21.8839 14.36 21.8839C14.5589 21.8839 14.7497 21.8049 14.8903 21.6642C15.031 21.5236 15.11 21.3328 15.11 21.1339V18.6539C15.1087 18.102 15.2724 17.5622 15.58 17.1039L16.49 15.7139C16.5153 15.6707 16.5494 15.6332 16.59 15.6039C16.6291 15.5759 16.6732 15.5555 16.72 15.5439H16.87C16.9346 15.5605 16.9941 15.5929 17.043 15.6383C17.0919 15.6837 17.1287 15.7407 17.15 15.8039C17.1661 15.8696 17.1661 15.9382 17.15 16.0039L16.07 17.7939C15.9743 17.9616 15.948 18.16 15.9966 18.3468C16.0451 18.5336 16.1648 18.6941 16.33 18.7939C16.497 18.8879 16.6938 18.9144 16.8797 18.8679C17.0657 18.8214 17.2268 18.7055 17.33 18.5439L18.43 16.7139C18.5827 16.4041 18.645 16.0575 18.61 15.7139V12.8739C18.61 12.7599 18.6553 12.6505 18.7359 12.5699C18.8166 12.4892 18.9259 12.4439 19.04 12.4439C19.154 12.4439 19.2634 12.4892 19.344 12.5699C19.4247 12.6505 19.47 12.7599 19.47 12.8739V16.9639C19.469 17.6039 19.2504 18.2246 18.85 18.7239L17.27 20.7239C17.1485 20.8806 17.0939 21.079 17.1183 21.2757C17.1426 21.4725 17.2439 21.6516 17.4 21.7739C17.5309 21.8776 17.693 21.934 17.86 21.9339C17.9739 21.9336 18.0862 21.9072 18.1884 21.857C18.2907 21.8068 18.3801 21.7339 18.45 21.6439L20.02 19.6439C20.6336 18.8776 20.9685 17.9256 20.97 16.9439V12.8739C20.9838 12.3528 20.7937 11.8469 20.44 11.4639Z" fill="#2D373D"/>
<path d="M14.83 12.7239C14.8545 12.8257 14.9 12.9213 14.9636 13.0045C15.0273 13.0876 15.1076 13.1565 15.1995 13.2067C15.2914 13.257 15.3928 13.2874 15.4971 13.2961C15.6015 13.3047 15.7065 13.2915 15.8054 13.2571C15.9043 13.2227 15.9949 13.168 16.0714 13.0965C16.1479 13.025 16.2086 12.9382 16.2495 12.8418C16.2905 12.7455 16.3108 12.6416 16.3091 12.5369C16.3075 12.4322 16.2839 12.329 16.24 12.2339C15.9299 11.404 15.353 10.7006 14.6 10.2339C14.2551 9.98401 13.8741 9.78841 13.47 9.65391C13.7202 9.51711 13.9521 9.3491 14.16 9.15391C14.7304 8.57568 15.0502 7.79613 15.0502 6.98391C15.0502 6.1717 14.7304 5.39214 14.16 4.81391C13.579 4.25654 12.8051 3.94531 12 3.94531C11.1949 3.94531 10.4209 4.25654 9.83998 4.81391C9.26959 5.39214 8.9498 6.1717 8.9498 6.98391C8.9498 7.79613 9.26959 8.57568 9.83998 9.15391C10.0479 9.3491 10.2798 9.51711 10.53 9.65391C10.1277 9.7926 9.74719 9.98789 9.39998 10.2339C8.63299 10.7696 8.05814 11.5372 7.75998 12.4239C7.72042 12.5194 7.70102 12.622 7.703 12.7254C7.70498 12.8287 7.7283 12.9305 7.7715 13.0244C7.81469 13.1183 7.87683 13.2023 7.954 13.271C8.03118 13.3398 8.12173 13.3918 8.21998 13.4239C8.29969 13.4335 8.38027 13.4335 8.45998 13.4239C8.62183 13.4211 8.77844 13.3661 8.90641 13.2669C9.03438 13.1678 9.12684 13.0299 9.16998 12.8739C9.3234 12.436 9.57634 12.0396 9.90889 11.7159C10.2414 11.3922 10.6445 11.1501 11.0865 11.0086C11.5284 10.8671 11.9972 10.8301 12.4559 10.9004C12.9146 10.9707 13.3507 11.1465 13.73 11.4139C14.2387 11.7083 14.628 12.1719 14.83 12.7239ZM10.9 5.87391C11.0441 5.72878 11.2154 5.6136 11.4042 5.535C11.593 5.4564 11.7955 5.41593 12 5.41593C12.2045 5.41593 12.407 5.4564 12.5957 5.535C12.7845 5.6136 12.9559 5.72878 13.1 5.87391C13.3908 6.16991 13.5526 6.56899 13.55 6.98391C13.55 7.18746 13.5099 7.38902 13.432 7.57707C13.3541 7.76513 13.2399 7.936 13.096 8.07993C12.9521 8.22386 12.7812 8.33803 12.5931 8.41593C12.4051 8.49382 12.2035 8.53391 12 8.53391C11.7964 8.53391 11.5949 8.49382 11.4068 8.41593C11.2188 8.33803 11.0479 8.22386 10.904 8.07993C10.76 7.936 10.6459 7.76513 10.568 7.57707C10.4901 7.38902 10.45 7.18746 10.45 6.98391C10.4474 6.56899 10.6092 6.16991 10.9 5.87391Z" fill="#2D373D"/>
</svg>
