<svg width="32" height="32" viewBox="0 0 32 32" fill="none" xmlns="http://www.w3.org/2000/svg">
<path d="M12.9001 12.9001C12.3001 12.9001 11.9001 13.3001 11.9001 13.9001V22.2001C11.9001 22.8001 12.3001 23.2001 12.9001 23.2001C13.5001 23.2001 13.9001 22.8001 13.9001 22.2001V13.9001C13.9001 13.3001 13.5001 12.9001 12.9001 12.9001Z" fill="#2D373D"/>
<path d="M19.1001 12.9001C18.5001 12.9001 18.1001 13.3001 18.1001 13.9001V22.2001C18.1001 22.8001 18.5001 23.2001 19.1001 23.2001C19.7001 23.2001 20.1001 22.8001 20.1001 22.2001V13.9001C20.1001 13.3001 19.7001 12.9001 19.1001 12.9001Z" fill="#2D373D"/>
<path d="M28.4001 6.7001H22.2001V5.7001C22.2001 4.0001 20.8001 2.6001 19.1001 2.6001H12.9001C12.1001 2.6001 11.3001 2.9001 10.7001 3.5001C10.1001 4.1001 9.8001 4.9001 9.8001 5.7001V6.7001H3.6001C3.0001 6.7001 2.6001 7.1001 2.6001 7.7001C2.6001 8.3001 3.0001 8.7001 3.6001 8.7001H5.7001V26.3001C5.7001 28.0001 7.1001 29.4001 8.8001 29.4001H23.2001C24.9001 29.4001 26.3001 28.0001 26.3001 26.3001V8.7001H28.4001C29.0001 8.7001 29.4001 8.3001 29.4001 7.7001C29.4001 7.1001 29.0001 6.7001 28.4001 6.7001ZM11.8001 5.7001C11.8001 5.4001 12.0001 5.1001 12.2001 4.9001C12.4001 4.7001 12.6001 4.6001 12.9001 4.6001H19.0001C19.6001 4.6001 20.1001 5.1001 20.1001 5.7001V6.7001H11.8001V5.7001ZM24.4001 26.3001C24.4001 26.9001 23.9001 27.4001 23.3001 27.4001H8.8001C8.2001 27.4001 7.7001 26.9001 7.7001 26.3001V8.7001H24.4001V26.3001Z" fill="#2D373D"/>
</svg>
