<svg width="16" height="17" viewBox="0 0 16 17" fill="none" xmlns="http://www.w3.org/2000/svg">
<path d="M13.8002 6.51016C13.6502 6.36016 13.4502 6.21016 13.2002 6.21016L10.3002 5.91016L8.80024 2.91016C8.70024 2.71016 8.55024 2.61016 8.40024 2.51016C8.30024 2.46016 8.15024 2.41016 8.00024 2.41016C7.90024 2.41016 7.85024 2.41016 7.75024 2.46016H7.70024C7.45024 2.51016 7.25024 2.71016 7.15024 2.91016L5.65024 5.91016L2.75024 6.16016C2.55024 6.16016 2.35024 6.26016 2.20024 6.41016C2.00024 6.61016 1.90024 6.91016 1.95024 7.21016C1.95024 7.41016 2.05024 7.56016 2.20024 7.66016L4.60024 10.0602L3.70024 13.3102C3.65024 13.5602 3.65024 13.7602 3.75024 13.9602C3.90024 14.2602 4.15024 14.4102 4.45024 14.4602C4.50024 14.4602 4.55024 14.4602 4.60024 14.4602C4.75024 14.4602 4.90024 14.4602 5.00024 14.4102L8.05024 12.9102L10.9502 14.3602C11.0502 14.4102 11.2002 14.4602 11.3502 14.4602C11.4502 14.4602 11.5502 14.4602 11.6002 14.4602C11.8502 14.4102 12.0502 14.2602 12.1502 14.0602C12.3002 13.8602 12.3002 13.6102 12.2502 13.3602L11.3502 10.1102L13.7502 7.71016C13.9002 7.56016 14.0002 7.36016 14.0002 7.16016C14.0502 6.91016 13.9502 6.71016 13.8002 6.51016ZM10.4502 9.61016C10.3002 9.76016 10.2502 9.96016 10.3002 10.1102L11.2002 13.4102L8.50024 12.0602V4.56016L9.55024 6.66016C9.65024 6.81016 9.80024 6.91016 9.95024 6.91016L12.9002 7.16016L10.4502 9.61016Z" fill="#2D373D"/>
</svg>
