<svg width="64" height="65" viewBox="0 0 64 65" fill="none" xmlns="http://www.w3.org/2000/svg">
<path fill-rule="evenodd" clip-rule="evenodd" d="M27.2965 10.2539L18.0627 30.9206H25.7444C27.5609 30.9206 28.8458 32.6971 28.2769 34.4223L23.2269 49.7382L44.8895 26.9206H37.2177C35.1103 26.9206 33.8357 24.5914 34.9716 22.8164L43.0116 10.2539H27.2965ZM23.9971 7.83276C24.4263 6.87232 25.3799 6.25391 26.4318 6.25391H45.448C47.5553 6.25391 48.83 8.58309 47.6941 10.358L39.654 22.9206H47.9939C50.3364 22.9206 51.5407 25.7244 49.9278 27.4233L19.9834 58.9643C19.3389 59.6431 18.3098 59.7841 17.5064 59.3037C16.7031 58.8233 16.3404 57.8499 16.6335 56.961L23.9008 34.9206H16.0066C14.0746 34.9206 12.7838 32.93 13.5719 31.1661L23.9971 7.83276Z" fill="#2D373D"/>
</svg>
