<svg width="32" height="33" viewBox="0 0 32 33" fill="none" xmlns="http://www.w3.org/2000/svg">
<path d="M22.3332 7.46224C22.3332 8.01453 22.7809 8.46224 23.3332 8.46224C23.8855 8.46224 24.3332 8.01452 24.3332 7.46224L24.3332 4.1289C24.3332 3.57662 23.8854 3.12891 23.3332 3.12891H19.9998C19.4475 3.12891 18.9998 3.57662 18.9998 4.12891C18.9998 4.68119 19.4475 5.12891 19.9998 5.12891L22.3332 5.12891L22.3332 7.46224Z" fill="#2D373D"/>
<path d="M14.2827 5.71245C14.2592 5.71151 14.2332 5.7166 14.2023 5.73754C12.2215 7.07705 6.71623 11.0081 4.34479 13.1971C3.93897 13.5717 3.30631 13.5464 2.93171 13.1406C2.5571 12.7348 2.58241 12.1021 2.98823 11.7275C5.48311 9.42457 11.1036 5.41863 13.0819 4.0808C13.8742 3.54501 14.8677 3.61325 15.5924 4.15673L25.5998 11.6623C26.0417 11.9937 26.1312 12.6205 25.7998 13.0623C25.4685 13.5042 24.8417 13.5937 24.3998 13.2623L14.3924 5.75673C14.347 5.72271 14.3081 5.71346 14.2827 5.71245Z" fill="#2D373D"/>
<path d="M6.6665 12.7956C7.21879 12.7956 7.6665 13.2433 7.6665 13.7956V23.1289C7.6665 23.313 7.81574 23.4622 7.99984 23.4622H11.9998C12.5521 23.4622 12.9998 23.91 12.9998 24.4622C12.9998 25.0145 12.5521 25.4622 11.9998 25.4622H7.99984C6.71117 25.4622 5.6665 24.4176 5.6665 23.1289V13.7956C5.6665 13.2433 6.11422 12.7956 6.6665 12.7956Z" fill="#2D373D"/>
<path d="M23.3332 17.2956C22.4139 17.2956 21.2026 17.3929 20.21 18.0428C19.5496 18.4752 19.0506 19.106 18.7668 19.9622H17.9998C17.5396 19.9622 17.1665 20.3353 17.1665 20.7956C17.1665 21.2558 17.5396 21.6289 17.9998 21.6289H18.5016C18.5004 21.6839 18.4998 21.7394 18.4998 21.7956C18.4998 21.9677 18.504 22.1343 18.5123 22.2956H17.9998C17.5396 22.2956 17.1665 22.6687 17.1665 23.1289C17.1665 23.5891 17.5396 23.9622 17.9998 23.9622H18.803C19.0911 24.8183 19.5813 25.4205 20.2595 25.8001C20.7899 26.097 21.3632 26.2121 21.8805 26.2605C22.3042 26.3002 22.742 26.2981 23.1164 26.2963C23.1914 26.2959 23.2639 26.2956 23.3332 26.2956C23.7934 26.2956 24.1665 25.9225 24.1665 25.4622C24.1665 25.002 23.7934 24.6289 23.3332 24.6289C23.2488 24.6289 23.1663 24.6292 23.0854 24.6296H23.0836C22.711 24.6311 22.3704 24.6325 22.0358 24.6011C21.6364 24.5637 21.3208 24.4842 21.0735 24.3458C20.9345 24.268 20.7842 24.1522 20.6466 23.9622H21.6665C22.1267 23.9622 22.4998 23.5891 22.4998 23.1289C22.4998 22.6687 22.1267 22.2956 21.6665 22.2956H20.1812C20.1716 22.1407 20.1665 21.9744 20.1665 21.7956C20.1665 21.7387 20.1673 21.6832 20.1687 21.6289H22.6665C23.1267 21.6289 23.4998 21.2558 23.4998 20.7956C23.4998 20.3353 23.1267 19.9622 22.6665 19.9622H20.5973C20.7526 19.7255 20.936 19.5596 21.123 19.4372C21.6859 19.0686 22.4746 18.9622 23.3332 18.9622C23.7934 18.9622 24.1665 18.5891 24.1665 18.1289C24.1665 17.6687 23.7934 17.2956 23.3332 17.2956Z" fill="#2D373D"/>
<path fill-rule="evenodd" clip-rule="evenodd" d="M21.3332 29.7956C25.7514 29.7956 29.3332 26.2139 29.3332 21.7956C29.3332 17.3773 25.7514 13.7956 21.3332 13.7956C16.9149 13.7956 13.3332 17.3773 13.3332 21.7956C13.3332 26.2139 16.9149 29.7956 21.3332 29.7956ZM21.3332 27.7956C24.6469 27.7956 27.3332 25.1093 27.3332 21.7956C27.3332 18.4819 24.6469 15.7956 21.3332 15.7956C18.0195 15.7956 15.3332 18.4819 15.3332 21.7956C15.3332 25.1093 18.0195 27.7956 21.3332 27.7956Z" fill="#2D373D"/>
</svg>
