<svg width="24" height="25" viewBox="0 0 24 25" fill="none" xmlns="http://www.w3.org/2000/svg">
<path d="M18.9748 13.8871C20.2498 12.1621 20.9248 10.2121 21.0748 8.1121C21.0748 5.7871 19.7248 3.6871 17.5498 2.7871C15.5998 2.0371 13.4998 2.4121 11.9998 3.6871C10.4998 2.4121 8.32481 2.0371 6.44981 2.7871C4.2748 3.6871 2.9248 5.7871 2.9248 8.1871C3.0748 10.2121 3.7498 12.2371 5.0248 13.8871C5.1748 13.9621 5.1748 14.1871 5.0998 14.3371C4.7998 15.0121 3.6748 19.6621 4.7998 21.6871C5.2498 22.2871 5.77481 22.5871 6.44981 22.5871C7.94981 22.5871 8.3248 21.1621 8.5498 20.1871C8.9248 18.7621 9.22481 17.5621 11.5498 17.5621H12.2248C14.5498 17.5621 14.8498 18.6871 15.2248 20.1121C15.5248 21.1621 15.8248 22.5121 17.3998 22.5121C18.0748 22.5121 18.5998 22.2121 19.0498 21.6121C20.3248 19.6621 19.1998 15.0121 18.8998 14.3371C18.8248 14.1871 18.8998 14.0371 18.9748 13.8871ZM17.5498 15.0121C17.8498 15.7621 18.5248 19.7371 17.7748 20.8621C17.6248 21.0871 17.5498 21.0871 17.3998 21.0871C17.0998 21.0871 17.0248 20.9371 16.7248 19.8121C16.3498 18.3871 15.8248 16.0621 12.2998 16.0621H11.6248C8.17481 16.0621 7.5748 18.3871 7.2748 19.7371C6.9748 20.9371 6.89981 21.0121 6.59981 21.0121C6.44981 21.0121 6.37481 20.9371 6.22481 20.7871C5.3998 19.6621 6.14981 15.6871 6.44981 14.9371C6.74981 14.3371 6.67481 13.5121 6.22481 12.9871C5.1748 11.5621 4.5748 9.8371 4.4248 8.1121C4.4248 6.3871 5.4748 4.8871 7.0498 4.2121C8.5498 3.6121 10.3498 3.9871 11.4748 5.3371C11.7748 5.6371 12.2998 5.6371 12.5998 5.3371C13.6498 4.1371 15.4498 3.6871 16.9498 4.2871C18.5248 4.9621 19.5748 6.5371 19.5748 8.1871C19.4248 9.9121 18.8248 11.6371 17.7748 13.0621C17.3998 13.5871 17.2498 14.3371 17.5498 15.0121Z" fill="#2D373D"/>
</svg>
