<svg width="32" height="33" viewBox="0 0 32 33" fill="none" xmlns="http://www.w3.org/2000/svg">
<path d="M17.1333 19.1359C17.0015 19.1341 16.8707 19.1587 16.7485 19.2083C16.6264 19.2579 16.5154 19.3315 16.4222 19.4248C16.329 19.518 16.2554 19.6289 16.2058 19.7511C16.1562 19.8732 16.1315 20.004 16.1333 20.1359V21.7492H6.02667V8.92252C6.03082 8.67244 6.07586 8.42472 6.16 8.18919C6.25214 7.96459 6.38812 7.76062 6.56 7.58919C6.71681 7.41835 6.90754 7.28211 7.12 7.18919C7.3332 7.10776 7.55855 7.06269 7.78667 7.05585H10.2533C10.5185 7.05585 10.7729 6.9505 10.9604 6.76296C11.148 6.57542 11.2533 6.32107 11.2533 6.05585C11.2533 5.79064 11.148 5.53628 10.9604 5.34875C10.7729 5.16121 10.5185 5.05585 10.2533 5.05585H7.77333C7.27372 5.05223 6.77878 5.15227 6.31979 5.34963C5.8608 5.547 5.44773 5.83741 5.10667 6.20252C4.75444 6.56168 4.47787 6.98787 4.29333 7.45585C4.10421 7.92195 4.00469 8.41954 4 8.92252V25.1092C4.0168 26.1013 4.40172 27.0517 5.08 27.7759C5.43166 28.1348 5.84781 28.4243 6.30667 28.6292C6.76736 28.8208 7.26107 28.9204 7.76 28.9225H14.3467C14.8463 28.9261 15.3412 28.8261 15.8002 28.6287C16.2592 28.4314 16.6723 28.141 17.0133 27.7759C17.3656 27.4167 17.6421 26.9905 17.8267 26.5225C18.0112 26.0555 18.1062 25.558 18.1067 25.0559V20.1359C18.1068 19.8752 18.0051 19.6248 17.8233 19.438C17.6415 19.2512 17.3939 19.1428 17.1333 19.1359ZM15.9867 25.8025C15.8994 26.0265 15.7679 26.2306 15.6 26.4025C15.441 26.5768 15.2451 26.7135 15.0267 26.8025C14.8212 26.8939 14.5982 26.9394 14.3733 26.9359H7.78667C7.55608 26.939 7.32746 26.8931 7.11598 26.8011C6.90449 26.7092 6.71498 26.5733 6.56 26.4025C6.38812 26.2311 6.25214 26.0271 6.16 25.8025C6.07586 25.567 6.03082 25.3193 6.02667 25.0692V23.7359H16.1333V25.0692C16.1422 25.3377 16.0968 25.6052 16 25.8559L15.9867 25.8025Z" fill="#2D373D"/>
<path d="M28 10.2559C28.0022 9.89535 27.9312 9.53816 27.7914 9.20586C27.6516 8.87357 27.4459 8.57307 27.1867 8.32252C26.662 7.82745 25.968 7.55169 25.2467 7.55169C24.5253 7.55169 23.8313 7.82745 23.3067 8.32252C23.0595 8.57863 22.8661 8.88164 22.7378 9.21368C22.6096 9.54572 22.5491 9.90008 22.56 10.2559C22.5251 10.8292 22.6763 11.3984 22.991 11.8789C23.3057 12.3594 23.7672 12.7254 24.3067 12.9225V14.2559C24.3062 14.6405 24.2293 15.0213 24.0805 15.3761C23.9317 15.7308 23.714 16.0525 23.44 16.3225C22.8787 16.8503 22.1372 17.1442 21.3667 17.1442C20.5962 17.1442 19.8547 16.8503 19.2933 16.3225C18.8478 15.8812 18.5617 15.3043 18.48 14.6825C19.2853 14.4869 20.0225 14.0769 20.6133 13.4959C21.0338 13.0809 21.3681 12.587 21.5969 12.0423C21.8258 11.4977 21.9446 10.9132 21.9467 10.3225V6.81585C21.9477 6.56858 21.9 6.32352 21.8062 6.09473C21.7124 5.86593 21.5743 5.65789 21.4 5.48252C21.217 5.2989 20.9984 5.15453 20.7577 5.05825C20.517 4.96196 20.2592 4.91578 20 4.92252H19.1333C18.8681 4.92252 18.6138 5.02788 18.4262 5.21541C18.2387 5.40295 18.1333 5.6573 18.1333 5.92252C18.1333 6.18774 18.2387 6.44209 18.4262 6.62963C18.6138 6.81716 18.8681 6.92252 19.1333 6.92252H20V10.2559C19.9969 10.9162 19.7334 11.5487 19.2667 12.0159C18.7905 12.4699 18.1579 12.7232 17.5 12.7232C16.8421 12.7232 16.2095 12.4699 15.7333 12.0159C15.4889 11.791 15.2922 11.5193 15.1548 11.217C15.0173 10.9147 14.942 10.5878 14.9333 10.2559V6.94919H15.68C15.9452 6.94919 16.1996 6.84383 16.3871 6.65629C16.5746 6.46876 16.68 6.2144 16.68 5.94919C16.68 5.68397 16.5746 5.42962 16.3871 5.24208C16.1996 5.05454 15.9452 4.94919 15.68 4.94919H14.8133C14.5671 4.94743 14.3229 4.99441 14.0949 5.08743C13.8669 5.18045 13.6595 5.31767 13.4848 5.49118C13.31 5.6647 13.1713 5.87107 13.0767 6.09842C12.982 6.32577 12.9333 6.56959 12.9333 6.81585V10.2559C12.9347 11.2821 13.2873 12.277 13.9325 13.0751C14.5778 13.8732 15.4768 14.4263 16.48 14.6425C16.5723 15.7857 17.0686 16.8587 17.88 17.6692C18.5676 18.3502 19.4398 18.8146 20.3886 19.0048C21.3374 19.195 22.3212 19.1028 23.2182 18.7395C24.1151 18.3762 24.8858 17.7577 25.4347 16.9608C25.9837 16.1638 26.2869 15.2234 26.3067 14.2559V12.9225C26.6594 12.7822 26.9811 12.5738 27.2533 12.3092C27.5097 12.0349 27.708 11.7116 27.8363 11.3587C27.9646 11.0059 28.0203 10.6308 28 10.2559ZM24.72 9.73585C24.7883 9.66319 24.871 9.60551 24.9629 9.56649C25.0547 9.52747 25.1536 9.50796 25.2533 9.50919C25.3529 9.50952 25.4513 9.52974 25.5429 9.56867C25.6345 9.60759 25.7174 9.66444 25.7867 9.73585C25.8547 9.80424 25.9085 9.88537 25.9451 9.9746C25.9817 10.0638 26.0004 10.1594 26 10.2559C25.9987 10.4542 25.9225 10.6447 25.7867 10.7892C25.6414 10.9232 25.451 10.9976 25.2533 10.9976C25.0557 10.9976 24.8653 10.9232 24.72 10.7892C24.6504 10.7192 24.5956 10.6359 24.5589 10.5443C24.5223 10.4526 24.5045 10.3545 24.5067 10.2559C24.5306 10.0712 24.528 9.93998 24.72 9.73585Z" fill="#2D373D"/>
</svg>
