<svg width="16" height="17" viewBox="0 0 16 17" fill="none" xmlns="http://www.w3.org/2000/svg">
<path fill-rule="evenodd" clip-rule="evenodd" d="M11.7003 2.92188C11.3715 2.92188 11.0561 3.05186 10.8228 3.28337C10.634 3.46648 10.4833 3.68519 10.3795 3.92688C10.2752 4.16982 10.2202 4.43111 10.2179 4.6955C10.2156 4.9599 10.266 5.2221 10.3661 5.46682C10.4022 5.55504 10.4445 5.64035 10.4926 5.72214L7.21883 8.99592L5.72725 7.50434C5.53203 7.30912 5.21555 7.30907 5.02027 7.50421L2.91104 9.61194C2.32771 10.1953 2 10.9864 2 11.8114C2 12.6363 2.32771 13.4275 2.91104 14.0108C3.49437 14.5942 4.28554 14.9219 5.11049 14.9219C5.93544 14.9219 6.72665 14.5941 7.30998 14.0108L9.41858 11.9017C9.51235 11.8079 9.56502 11.6807 9.56499 11.5481C9.56496 11.4155 9.51224 11.2883 9.41843 11.1945L8.62758 10.4042C8.43226 10.209 8.11567 10.2091 7.92047 10.4044C7.72527 10.5997 7.72537 10.9163 7.9207 11.1115L8.35781 11.5483L6.60279 13.3038C6.207 13.6995 5.67021 13.9219 5.11049 13.9219C4.55075 13.9219 4.01394 13.6995 3.61815 13.3037C3.22235 12.9079 3 12.3711 3 11.8114C3 11.2517 3.22243 10.7148 3.61815 10.3191L5.37357 8.56487L6.51173 9.70303L5.54704 10.6677C5.35178 10.863 5.35178 11.1796 5.54704 11.3748C5.7423 11.5701 6.05889 11.5701 6.25415 11.3748L7.56983 10.0591L7.5724 10.0566L7.57495 10.054L11.1997 6.42925C11.2815 6.47736 11.3668 6.51966 11.4551 6.55576C11.6998 6.65588 11.962 6.70626 12.2264 6.70396C12.4908 6.70167 12.7521 6.64673 12.995 6.54238C13.2369 6.43849 13.4557 6.28769 13.6389 6.09871C13.8696 5.86554 13.999 5.55074 13.999 5.22263C13.999 4.89315 13.8681 4.5767 13.6356 4.34325L12.5809 3.28657C12.3473 3.05306 12.0306 2.92188 11.7003 2.92188ZM11.5266 3.99379C11.5727 3.94774 11.6351 3.92188 11.7003 3.92188C11.7653 3.92188 11.8279 3.94782 11.8739 3.99379L12.9276 5.04943C12.9733 5.09545 12.999 5.15772 12.999 5.22263C12.999 5.2876 12.9732 5.34988 12.9274 5.39591L12.9221 5.40143C12.8306 5.4961 12.7213 5.57161 12.6003 5.62356C12.4794 5.67551 12.3493 5.70286 12.2177 5.704C12.0861 5.70514 11.9556 5.68006 11.8337 5.63022C11.7119 5.58038 11.6012 5.50678 11.5082 5.41371C11.4151 5.32064 11.3415 5.20997 11.2917 5.08815C11.2418 4.96633 11.2167 4.83581 11.2179 4.70419C11.219 4.57258 11.2464 4.44251 11.2983 4.32157C11.3503 4.20064 11.4258 4.09132 11.5205 3.99988L11.5266 3.99379Z" fill="#2D373D"/>
</svg>
