<svg width="64" height="64" viewBox="0 0 64 64" fill="none" xmlns="http://www.w3.org/2000/svg">
<path d="M53.0002 15.6395C50.2228 12.1307 46.605 9.37936 42.4818 7.6401C38.3586 5.90084 33.8633 5.22992 29.412 5.68945C24.9606 6.14898 20.6971 7.72411 17.0162 10.269C13.3353 12.8139 10.3559 16.2463 8.3539 20.2485C6.35188 24.2507 5.39191 28.6933 5.56288 33.1651C5.73384 37.6368 7.03021 41.9931 9.33197 45.8308C11.6337 49.6685 14.8665 52.8634 18.731 55.1198C22.5955 57.3762 26.9667 58.6212 31.4402 58.7395H32.1402C37.9075 58.7367 43.5195 56.8707 48.1402 53.4195C48.5645 53.1013 48.8451 52.6275 48.9201 52.1024C48.9951 51.5773 48.8584 51.0439 48.5402 50.6195C48.2219 50.1952 47.7481 49.9147 47.223 49.8396C46.6979 49.7646 46.1645 49.9013 45.7402 50.2195C41.6645 53.2762 36.6757 54.8662 31.583 54.7315C26.4902 54.5969 21.5924 52.7455 17.684 49.4777C13.7756 46.2099 11.0859 41.7174 10.0513 36.7291C9.01667 31.7407 9.69783 26.5491 11.9843 21.9965C14.2707 17.4439 18.0282 13.7973 22.6474 11.6484C27.2665 9.49947 32.4761 8.97423 37.4312 10.1579C42.3863 11.3416 46.7962 14.1647 49.9453 18.1693C53.0945 22.1739 54.7982 27.1251 54.7802 32.2195V37.1395C54.7812 37.7383 54.6633 38.3312 54.4333 38.884C54.2032 39.4368 53.8657 39.9383 53.4402 40.3595C52.5731 41.1884 51.4197 41.651 50.2202 41.651C49.0206 41.651 47.8673 41.1884 47.0002 40.3595C46.5747 39.9383 46.2371 39.4368 46.0071 38.884C45.7771 38.3312 45.6591 37.7383 45.6602 37.1395V32.1395C45.6575 29.9239 45.1087 27.7431 44.0624 25.7901C43.0161 23.8371 41.5045 22.1722 39.6615 20.9425C37.8184 19.7129 35.7006 18.9565 33.4956 18.7403C31.2906 18.5241 29.0662 18.8547 27.0194 19.703C24.9726 20.5512 23.1664 21.8909 21.7607 23.6035C20.355 25.3161 19.3931 27.3487 18.9601 29.5216C18.5271 31.6945 18.6364 33.9406 19.2783 36.0612C19.9202 38.1818 21.0749 40.1115 22.6402 41.6795C24.5282 43.5581 26.9283 44.8382 29.5402 45.3595C30.4091 45.5352 31.2937 45.6223 32.1802 45.6195C33.9503 45.6196 35.7032 45.2731 37.3402 44.5995C39.3562 43.7553 41.1347 42.43 42.5202 40.7395C42.9246 41.6171 43.472 42.4214 44.1402 43.1195C45.3338 44.316 46.8548 45.1324 48.5116 45.4658C50.1684 45.7992 51.8868 45.6347 53.4503 44.9931C55.0137 44.3514 56.3523 43.2613 57.2972 41.8602C58.2422 40.459 58.7512 38.8095 58.7602 37.1195V32.1395C58.7471 26.1488 56.7182 20.3369 53.0002 15.6395V15.6395ZM35.7602 40.8995C34.0266 41.6154 32.1202 41.8033 30.2802 41.4395C28.4434 41.0665 26.7576 40.1597 25.4341 38.8326C24.1106 37.5055 23.2083 35.8173 22.8402 33.9795C22.4476 31.9861 22.7058 29.9193 23.5767 28.0838C24.4476 26.2482 25.8852 24.741 27.6776 23.7843C29.47 22.8277 31.5223 22.4721 33.532 22.7701C35.5417 23.0681 37.4026 24.0039 38.8402 25.4395C39.727 26.3145 40.4298 27.358 40.9072 28.5086C41.3846 29.6593 41.627 30.8938 41.6202 32.1395C41.6194 34.0126 41.0625 35.8433 40.0202 37.3995C38.9847 38.9683 37.5 40.1881 35.7602 40.8995V40.8995Z" fill="#2D373D"/>
</svg>
