<svg width="64" height="65" viewBox="0 0 64 65" fill="none" xmlns="http://www.w3.org/2000/svg">
<path d="M21.1998 38.3237C17.5998 38.3237 14.7998 41.1237 14.7998 44.7237C14.7998 48.3237 17.5998 51.1237 21.1998 51.1237C24.5998 51.1237 27.5998 48.3237 27.5998 44.7237C27.5998 41.1237 24.7998 38.3237 21.1998 38.3237ZM21.1998 47.1237C19.7998 47.1237 18.7998 46.1237 18.7998 44.7237C18.7998 43.3237 19.7998 42.3237 21.1998 42.3237C22.3998 42.3237 23.5998 43.3237 23.5998 44.7237C23.5998 46.1237 22.5998 47.1237 21.1998 47.1237Z" fill="#2D373D"/>
<path d="M53.1998 42.1238V34.1238C53.1998 31.9238 51.5998 29.9238 49.5998 29.3238L43.5998 27.3238L40.1998 18.3238C40.5998 17.9238 40.7998 17.5238 40.9998 16.9238V12.9238C40.9998 10.7238 39.1998 8.92383 36.9998 8.92383H20.1998C17.9998 8.92383 16.1998 10.7238 16.1998 12.9238V16.9238C16.1998 17.5238 16.3998 18.1238 16.7998 18.5238L12.9998 28.5238C12.1998 28.9238 11.3998 29.3238 10.7998 29.7238C9.99981 30.3238 9.1998 31.1238 8.3998 31.7238C7.5998 32.5238 7.5998 33.7238 8.3998 34.5238C9.1998 35.3238 10.3998 35.3238 11.1998 34.5238C11.7998 34.1238 12.3998 33.5238 12.9998 33.1238C19.7998 28.7238 28.7998 30.5238 33.1998 37.1238L34.1998 38.5238C34.5998 38.9238 35.1998 39.3238 35.7998 39.3238H41.7998C42.3998 39.3238 42.7998 39.1238 43.1998 38.7238C43.5998 38.3238 43.7998 37.9238 43.7998 37.3238V31.3238L48.5998 32.9238C48.9998 33.1238 49.1998 33.5238 49.1998 33.9238V40.1238C48.5998 39.9238 47.9998 39.9238 47.3998 39.9238C42.9998 39.9238 39.3998 43.1238 38.9998 47.3238H33.3998C33.5998 46.5238 33.7998 45.5238 33.7998 44.7238C33.7998 37.9238 28.1998 32.3238 21.3998 32.3238C14.5998 32.3238 8.99981 37.9238 8.99981 44.7238C8.99981 51.5238 14.5998 57.1238 21.3998 57.1238C25.7998 57.1238 29.5998 54.9238 31.7998 51.3238H39.3998C40.5998 54.7238 43.5998 57.1238 47.5998 57.1238C52.3998 57.1238 56.1998 53.3238 56.1998 48.5238C55.9998 45.9238 54.9998 43.5238 53.1998 42.1238ZM20.1998 12.7238H36.7998V14.7238H20.1998V12.7238ZM39.7998 35.3238H36.9998L36.5998 34.7238C32.3998 28.3238 24.9998 25.5238 17.9998 26.7238L20.9998 18.7238H35.9998L39.5998 28.5238V35.3238H39.7998ZM29.1998 47.7238C28.7998 48.1238 28.5998 48.5238 28.5998 48.9238C27.1998 51.5238 24.3998 53.1238 21.3998 53.1238C16.7998 53.1238 12.9998 49.3238 12.9998 44.7238C12.9998 40.1238 16.7998 36.3238 21.3998 36.3238C23.5998 36.3238 25.5998 37.1238 27.3998 38.9238C28.9998 40.3238 29.7998 42.5238 29.7998 44.7238C29.5998 45.7238 29.3998 46.7238 29.1998 47.7238ZM47.3998 52.9238C44.7998 52.9238 42.7998 50.9238 42.7998 48.3238C42.7998 45.7238 44.7998 43.7238 47.3998 43.7238C48.1998 43.7238 48.9998 43.9238 49.7998 44.3238C49.9998 44.5238 50.1998 44.5238 50.1998 44.7238C51.1998 45.5238 51.9998 46.9238 51.9998 48.3238C51.9998 50.9238 49.9998 52.9238 47.3998 52.9238Z" fill="#2D373D"/>
<path d="M48.3998 45.7239C48.1998 45.5239 47.7998 45.5239 47.5998 45.5239C47.3998 45.5239 46.9998 45.5239 46.7998 45.7239C45.9998 45.9239 45.1998 46.7239 44.9998 47.5239C44.7998 47.7239 44.7998 48.1239 44.7998 48.3239C44.7998 48.5239 44.7998 48.9239 44.9998 49.1239C45.1998 49.9239 45.9998 50.7239 46.7998 50.9239C46.9998 51.1239 47.3998 51.1239 47.5998 51.1239C49.1998 51.1239 50.3998 49.9239 50.3998 48.3239C50.3998 47.9239 50.3998 47.7239 50.1998 47.5239C49.7998 46.7239 49.1998 45.9239 48.3998 45.7239Z" fill="#2D373D"/>
</svg>
