<svg width="16" height="17" viewBox="0 0 16 17" fill="none" xmlns="http://www.w3.org/2000/svg">
<path d="M3.66711 4.55127C3.46135 4.3671 3.14525 4.38461 2.96109 4.59038C1.92802 5.74461 1.33252 7.26548 1.33252 8.92383C1.33252 10.5822 1.92802 12.103 2.96109 13.2573C3.14525 13.4631 3.46135 13.4806 3.66711 13.2964C3.87287 13.1122 3.89039 12.7961 3.70622 12.5904C2.83913 11.6216 2.33252 10.3389 2.33252 8.92383C2.33252 7.50877 2.83913 6.22608 3.70622 5.25729C3.89039 5.05153 3.87287 4.73543 3.66711 4.55127Z" fill="#2D373D"/>
<path d="M13.0395 4.59038C12.8554 4.38461 12.5393 4.3671 12.3335 4.55127C12.1277 4.73543 12.1102 5.05153 12.2944 5.25729C13.1615 6.22608 13.6681 7.50877 13.6681 8.92383C13.6681 10.3389 13.1615 11.6216 12.2944 12.5904C12.1102 12.7961 12.1277 13.1122 12.3335 13.2964C12.5393 13.4806 12.8554 13.4631 13.0395 13.2573C14.0726 12.103 14.6681 10.5822 14.6681 8.92383C14.6681 7.26548 14.0726 5.74461 13.0395 4.59038Z" fill="#2D373D"/>
<path fill-rule="evenodd" clip-rule="evenodd" d="M7.50031 10.5142C6.82412 10.3018 6.33364 9.6701 6.33364 8.92383C6.33364 8.00335 7.07983 7.25716 8.00031 7.25716C8.92078 7.25716 9.66697 8.00335 9.66697 8.92383C9.66697 9.6701 9.17649 10.3018 8.50031 10.5142V15.093C8.50031 15.3691 8.27645 15.593 8.00031 15.593C7.72416 15.593 7.50031 15.3691 7.50031 15.093V10.5142ZM8.00031 9.5905C7.63212 9.5905 7.33364 9.29202 7.33364 8.92383C7.33364 8.55564 7.63212 8.25716 8.00031 8.25716C8.3685 8.25716 8.66697 8.55564 8.66697 8.92383C8.66697 9.29202 8.36849 9.5905 8.00031 9.5905Z" fill="#2D373D"/>
<path d="M10.3006 5.85741C10.0798 5.69156 9.76637 5.73611 9.60052 5.9569C9.43468 6.1777 9.47922 6.49113 9.70002 6.65697C10.3893 7.17474 10.8336 7.99746 10.8336 8.9241C10.8336 9.85074 10.3893 10.6735 9.70002 11.1912C9.47922 11.3571 9.43468 11.6705 9.60052 11.8913C9.76637 12.1121 10.0798 12.1566 10.3006 11.9908C11.2305 11.2923 11.8336 10.1786 11.8336 8.9241C11.8336 7.66965 11.2305 6.55592 10.3006 5.85741Z" fill="#2D373D"/>
<path d="M6.40008 5.9569C6.23423 5.73611 5.9208 5.69156 5.70001 5.85741C4.77006 6.55592 4.16696 7.66965 4.16696 8.9241C4.16696 10.1786 4.77006 11.2923 5.70001 11.9908C5.9208 12.1566 6.23424 12.1121 6.40008 11.8913C6.56593 11.6705 6.52138 11.3571 6.30059 11.1912C5.61127 10.6735 5.16696 9.85074 5.16696 8.9241C5.16696 7.99746 5.61127 7.17474 6.30059 6.65697C6.52138 6.49113 6.56593 6.1777 6.40008 5.9569Z" fill="#2D373D"/>
</svg>
