<svg width="24" height="25" viewBox="0 0 24 25" fill="none" xmlns="http://www.w3.org/2000/svg">
<path d="M20.6999 9.53672C20.4749 9.31172 20.1749 9.08672 19.7999 9.08672L15.4499 8.63672L13.1999 4.13672C13.0499 3.83672 12.8249 3.68672 12.5999 3.53672C12.4499 3.46172 12.2249 3.38672 11.9999 3.38672C11.8499 3.38672 11.7749 3.38672 11.6249 3.46172H11.5499C11.1749 3.53672 10.8749 3.83672 10.7249 4.13672L8.47487 8.63672L4.12487 9.01172C3.82487 9.01172 3.52487 9.16172 3.29987 9.38672C2.99987 9.68672 2.84987 10.1367 2.92487 10.5867C2.92487 10.8867 3.07487 11.1117 3.29987 11.2617L6.89987 14.8617L5.54987 19.7367C5.47487 20.1117 5.47487 20.4117 5.62487 20.7117C5.84987 21.1617 6.22487 21.3867 6.67487 21.4617C6.74987 21.4617 6.82487 21.4617 6.89987 21.4617C7.12487 21.4617 7.34987 21.4617 7.49987 21.3867L12.0749 19.1367L16.4249 21.3117C16.5749 21.3867 16.7999 21.4617 17.0249 21.4617C17.1749 21.4617 17.3249 21.4617 17.3999 21.4617C17.7749 21.3867 18.0749 21.1617 18.2249 20.8617C18.4499 20.5617 18.4499 20.1867 18.3749 19.8117L17.0249 14.9367L20.6249 11.3367C20.8499 11.1117 20.9999 10.8117 20.9999 10.5117C21.0749 10.1367 20.9249 9.83672 20.6999 9.53672ZM15.6749 14.1867C15.4499 14.4117 15.3749 14.7117 15.4499 14.9367L16.7999 19.8867L12.7499 17.8617V6.61172L14.3249 9.76172C14.4749 9.98672 14.6999 10.1367 14.9249 10.1367L19.3499 10.5117L15.6749 14.1867Z" fill="#2D373D"/>
</svg>
