<svg width="16" height="17" viewBox="0 0 16 17" fill="none" xmlns="http://www.w3.org/2000/svg">
<path d="M4.70024 5.31177H2.00024V15.1118H4.70024V5.31177Z" fill="#2D373D"/>
<path d="M3.3502 4.46172C4.12339 4.46172 4.7502 3.8573 4.7502 3.11172C4.7502 2.36613 4.12339 1.76172 3.3502 1.76172C2.577 1.76172 1.9502 2.36613 1.9502 3.11172C1.9502 3.8573 2.577 4.46172 3.3502 4.46172Z" fill="#2D373D"/>
<path d="M10.3001 5.31177C9.60015 5.31177 8.90015 5.61177 8.40015 6.11177V5.31177H5.65015V15.1118H8.40015V8.96177C8.40015 8.96177 8.30015 7.71177 9.80015 7.71177C10.7001 7.71177 11.1501 8.21177 11.1501 8.96177V15.1618H14.0501V9.06177C14.0001 5.71177 11.2501 5.31177 10.3001 5.31177Z" fill="#2D373D"/>
</svg>
