<svg width="64" height="65" viewBox="0 0 64 65" fill="none" xmlns="http://www.w3.org/2000/svg">
<path fill-rule="evenodd" clip-rule="evenodd" d="M10.6741 46.8967C9.96231 46.8967 9.38525 46.3196 9.38525 45.6078V25.8745C9.38525 25.1626 9.96231 24.5856 10.6741 24.5856H46.8519C47.5638 24.5856 48.1408 25.1626 48.1408 25.8745V45.6078C48.1408 46.3196 47.5638 46.8967 46.8519 46.8967H10.6741ZM5.38525 45.6078C5.38525 48.5288 7.75317 50.8967 10.6741 50.8967H46.8519C49.7729 50.8967 52.1408 48.5288 52.1408 45.6078V25.8745C52.1408 22.9535 49.7729 20.5856 46.8519 20.5856H10.6741C7.75317 20.5856 5.38525 22.9535 5.38525 25.8745V45.6078Z" fill="#2D373D"/>
<path d="M27.1705 32.5042C28.029 31.6457 29.1934 31.1634 30.4075 31.1634C31.5121 31.1634 32.4075 30.2679 32.4075 29.1634C32.4075 28.0588 31.5121 27.1634 30.4075 27.1634C28.1325 27.1634 25.9507 28.0671 24.3421 29.6757C23.2128 30.805 22.431 32.2166 22.0652 33.7447C21.0165 33.8067 20.1852 34.6768 20.1852 35.7411C20.1852 36.8055 21.0165 37.6756 22.0652 37.7376C22.431 39.2657 23.2128 40.6773 24.3421 41.8065C25.9507 43.4152 28.1325 44.3189 30.4075 44.3189C31.5121 44.3189 32.4075 43.4235 32.4075 42.3189C32.4075 41.2144 31.5121 40.3189 30.4075 40.3189C29.1934 40.3189 28.029 39.8366 27.1705 38.9781C26.8066 38.6142 26.5103 38.1954 26.2897 37.7411H30.4074C31.512 37.7411 32.4074 36.8457 32.4074 35.7411C32.4074 34.6366 31.512 33.7411 30.4074 33.7411H26.2897C26.5103 33.2869 26.8066 32.868 27.1705 32.5042Z" fill="#2D373D"/>
<path fill-rule="evenodd" clip-rule="evenodd" d="M56.7186 41.03C57.8232 41.03 58.7186 40.1346 58.7186 39.03V19.2967C58.7186 17.894 58.1614 16.5487 57.1695 15.5569C56.1777 14.565 54.8324 14.0078 53.4297 14.0078H17.2519C16.1474 14.0078 15.2519 14.9032 15.2519 16.0078C15.2519 17.1124 16.1474 18.0078 17.2519 18.0078H53.4297C53.7715 18.0078 54.0994 18.1436 54.3411 18.3853C54.5828 18.627 54.7186 18.9549 54.7186 19.2967V39.03C54.7186 40.1346 55.614 41.03 56.7186 41.03Z" fill="#2D373D"/>
</svg>
