<svg width="32" height="33" viewBox="0 0 32 33" fill="none" xmlns="http://www.w3.org/2000/svg">
<path fill-rule="evenodd" clip-rule="evenodd" d="M14.2822 6.17328C14.2587 6.17234 14.2327 6.17744 14.2018 6.19838C12.221 7.53789 6.71574 11.469 4.3443 13.658C3.93848 14.0326 3.30582 14.0073 2.93122 13.6015C2.55661 13.1956 2.58192 12.563 2.98774 12.1884C5.48262 9.8854 11.1031 5.87947 13.0814 4.54164C13.8737 4.00585 14.8672 4.07409 15.5919 4.61757L25.5994 12.1232C26.0412 12.4545 26.1307 13.0813 25.7994 13.5232C25.468 13.965 24.8412 14.0545 24.3994 13.7232L14.3919 6.21757C14.3465 6.18354 14.3076 6.1743 14.2822 6.17328Z" fill="#2D373D"/>
<path fill-rule="evenodd" clip-rule="evenodd" d="M6.66602 13.2565C7.21831 13.2565 7.66602 13.7042 7.66602 14.2565V23.5898C7.66602 23.7739 7.81526 23.9232 7.99935 23.9232H11.9994C12.5516 23.9232 12.9994 24.3709 12.9994 24.9232C12.9994 25.4755 12.5516 25.9232 11.9994 25.9232H7.99935C6.71069 25.9232 5.66602 24.8785 5.66602 23.5898V14.2565C5.66602 13.7042 6.11374 13.2565 6.66602 13.2565Z" fill="#2D373D"/>
<path fill-rule="evenodd" clip-rule="evenodd" d="M23.3327 8.92318C22.7804 8.92318 22.3327 8.47546 22.3327 7.92318L22.3327 5.58984L19.9993 5.58984C19.4471 5.58984 18.9993 5.14213 18.9993 4.58984C18.9993 4.03756 19.4471 3.58984 19.9993 3.58984L23.3327 3.58984C23.885 3.58984 24.3327 4.03756 24.3327 4.58984L24.3327 7.92318C24.3327 8.47546 23.885 8.92318 23.3327 8.92318Z" fill="#2D373D"/>
<path fill-rule="evenodd" clip-rule="evenodd" d="M22.5873 16.8036L27.2149 26.9502C27.5193 27.5634 27.0234 28.2565 26.2804 28.2565H17.025C16.2819 28.2565 15.786 27.5634 16.0904 26.9502L20.7181 16.8036C21.0802 16.0742 22.2251 16.0742 22.5873 16.8036ZM14.2816 26.0964C13.2099 28.3171 15.1483 30.2565 17.025 30.2565H26.2804C28.157 30.2565 30.0955 28.3171 29.0237 26.0964L24.4069 15.9736C24.3978 15.9537 24.3884 15.9339 24.3786 15.9142C23.7962 14.7412 22.6348 14.2565 21.6527 14.2565C20.6706 14.2565 19.5091 14.7412 18.9267 15.9142C18.917 15.9339 18.9075 15.9537 18.8984 15.9736L14.2816 26.0964Z" fill="#2D373D"/>
<path fill-rule="evenodd" clip-rule="evenodd" d="M21.661 18.4336C22.2133 18.4336 22.661 18.8813 22.661 19.4336V22.668C22.661 23.2202 22.2133 23.668 21.661 23.668C21.1087 23.668 20.661 23.2202 20.661 22.668V19.4336C20.661 18.8813 21.1087 18.4336 21.661 18.4336Z" fill="#2D373D"/>
<path d="M23.0202 25.8618C23.0202 26.5974 22.4232 27.1937 21.6869 27.1937C20.9505 27.1937 20.3535 26.5974 20.3535 25.8618C20.3535 25.1262 20.9505 24.5299 21.6869 24.5299C22.4232 24.5299 23.0202 25.1262 23.0202 25.8618Z" fill="#2D373D"/>
</svg>
