<svg width="64" height="64" viewBox="0 0 64 64" fill="none" xmlns="http://www.w3.org/2000/svg">
<path fill-rule="evenodd" clip-rule="evenodd" d="M19.5533 6.90878C19.7851 7.98875 19.0976 9.05217 18.0176 9.28399C14.2559 10.0915 10.3755 12.744 9.29273 18.0302C9.07109 19.1123 8.0142 19.8099 6.9321 19.5882C5.84999 19.3666 5.15244 18.3097 5.37408 17.2276C6.84423 10.0498 12.2299 6.43526 17.1781 5.37308C18.258 5.14126 19.3215 5.82882 19.5533 6.90878Z" fill="#2D373D"/>
<path fill-rule="evenodd" clip-rule="evenodd" d="M20.8129 12.1877C21.2934 13.1823 20.8766 14.378 19.8821 14.8586C17.8209 15.8543 15.9631 17.4869 14.8156 19.895C14.3404 20.8921 13.1469 21.3153 12.1497 20.8401C11.1526 20.365 10.7294 19.1714 11.2046 18.1743C12.7946 14.8376 15.3749 12.5937 18.142 11.2569C19.1366 10.7764 20.3324 11.1931 20.8129 12.1877Z" fill="#2D373D"/>
<path fill-rule="evenodd" clip-rule="evenodd" d="M44.4455 6.90878C44.2137 7.98875 44.9012 9.05217 45.9812 9.28399C49.7429 10.0915 53.6233 12.744 54.7061 18.0302C54.9277 19.1123 55.9846 19.8099 57.0667 19.5882C58.1488 19.3666 58.8463 18.3097 58.6247 17.2276C57.1546 10.0498 51.7689 6.43526 46.8207 5.37308C45.7407 5.14126 44.6773 5.82882 44.4455 6.90878Z" fill="#2D373D"/>
<path fill-rule="evenodd" clip-rule="evenodd" d="M43.1859 12.1877C42.7054 13.1823 43.1221 14.378 44.1167 14.8586C46.1778 15.8543 48.0357 17.4869 49.1832 19.895C49.6584 20.8921 50.8519 21.3153 51.8491 20.8401C52.8462 20.365 53.2693 19.1714 52.7942 18.1743C51.2042 14.8376 48.6239 12.5937 45.8568 11.2569C44.8622 10.7764 43.6664 11.1931 43.1859 12.1877Z" fill="#2D373D"/>
<path fill-rule="evenodd" clip-rule="evenodd" d="M34.0002 9.99521C34.0002 8.89064 33.1047 7.99521 32.0002 7.99521C30.8956 7.99521 30.0002 8.89064 30.0002 9.99521V13.4565C27.0701 13.8268 23.9085 15.0172 21.2892 17.2443C18.0001 20.041 15.6888 24.3723 15.6888 30.3914C15.6888 35.7616 15.6803 38.3541 15.3444 40.201C15.0446 41.8498 14.488 42.8838 13.0118 45.0979C12.6026 45.7116 12.5644 46.5007 12.9125 47.151C13.2605 47.8014 13.9382 48.2074 14.6759 48.2074H49.3245C50.0621 48.2074 50.7398 47.8014 51.0879 47.151C51.4359 46.5007 51.3977 45.7116 50.9885 45.0979C49.5123 42.8838 48.9557 41.8498 48.6559 40.201C48.3201 38.3541 48.3116 35.7616 48.3116 30.3914C48.3116 24.3723 46.0002 20.041 42.7111 17.2443C40.0918 15.0172 36.9302 13.8268 34.0002 13.4565V9.99521ZM19.6888 30.3914C19.6888 25.4985 21.5202 22.2984 23.8803 20.2916C26.3002 18.2341 29.4021 17.3285 32.0002 17.3285C34.5982 17.3285 37.7001 18.2341 40.12 20.2916C42.4801 22.2984 44.3116 25.4985 44.3116 30.3914L44.3116 30.6957C44.3114 35.6856 44.3113 38.6666 44.7204 40.9166C44.9486 42.1716 45.3026 43.2008 45.7939 44.2074H18.2064C18.6977 43.2008 19.0517 42.1716 19.2799 40.9166C19.689 38.6665 19.6889 35.6856 19.6888 30.6956L19.6888 30.3914Z" fill="#2D373D"/>
<path fill-rule="evenodd" clip-rule="evenodd" d="M26.6667 49.9952C27.7713 49.9952 28.6667 50.8906 28.6667 51.9952C28.6667 52.6223 28.9755 53.2634 29.6159 53.7986C30.2663 54.3422 31.1486 54.6714 32 54.6714C32.8515 54.6714 33.7338 54.3422 34.3842 53.7986C35.0246 53.2634 35.3334 52.6222 35.3334 51.9952C35.3334 50.8906 36.2288 49.9952 37.3334 49.9952C38.438 49.9952 39.3334 50.8906 39.3334 51.9952C39.3334 54.0348 38.3088 55.7317 36.9492 56.8679C35.5996 57.9958 33.8152 58.6714 32 58.6714C30.1848 58.6714 28.4005 57.9958 27.0509 56.8679C25.6913 55.7317 24.6667 54.0348 24.6667 51.9952C24.6667 50.8906 25.5622 49.9952 26.6667 49.9952Z" fill="#2D373D"/>
</svg>
