<svg width="24" height="24" viewBox="0 0 24 24" fill="none" xmlns="http://www.w3.org/2000/svg">
<path d="M17.3874 7.0585L12.5124 2.1835C12.4374 2.1085 12.3624 2.0335 12.2874 2.0335C12.2874 2.0335 12.2874 2.0335 12.2124 2.0335C12.1374 1.9585 12.0624 1.9585 11.9874 1.9585C11.9124 1.9585 11.9124 1.9585 11.8374 1.9585C11.7624 1.9585 11.7624 1.9585 11.6874 1.9585C11.6124 2.0335 11.5374 2.1085 11.4624 2.1835L6.58738 7.0585C6.28738 7.3585 6.28738 7.8085 6.58738 8.1085C6.88738 8.4085 7.33738 8.4085 7.63738 8.1085L11.2374 4.5085V17.2585C11.2374 17.7085 11.5374 18.0085 11.9874 18.0085C12.4374 18.0085 12.7374 17.7085 12.7374 17.2585V4.5085L16.3374 8.1085C16.4874 8.2585 16.7124 8.3335 16.8624 8.3335C17.0874 8.3335 17.2374 8.2585 17.3874 8.1085C17.6874 7.8085 17.6874 7.3585 17.3874 7.0585Z" fill="#2D373D"/>
<path d="M19.2624 21.9835H4.7124C4.2624 21.9835 3.9624 21.6835 3.9624 21.2335C3.9624 20.7835 4.2624 20.4835 4.7124 20.4835H19.2624C19.7124 20.4835 20.0124 20.7835 20.0124 21.2335C20.0124 21.6835 19.7124 21.9835 19.2624 21.9835Z" fill="#2D373D"/>
</svg>
