<svg width="32" height="33" viewBox="0 0 32 33" fill="none" xmlns="http://www.w3.org/2000/svg">
<path fill-rule="evenodd" clip-rule="evenodd" d="M7.65524 8.5777C8.11782 8.11511 8.74522 7.85522 9.39942 7.85522H15.266C15.9202 7.85522 16.5476 8.11511 17.0102 8.5777C17.4728 9.04029 17.7326 9.6677 17.7326 10.3219C17.7326 10.9761 17.4728 11.6035 17.0102 12.0661C16.5476 12.5287 15.9202 12.7886 15.266 12.7886H9.39942C8.74522 12.7886 8.11782 12.5287 7.65524 12.0661C7.19265 11.6035 6.93278 10.9761 6.93278 10.3219C6.93278 9.6677 7.19265 9.04029 7.65524 8.5777ZM9.39942 9.85522C9.27567 9.85522 9.15698 9.90439 9.06946 9.9919C8.98195 10.0794 8.93278 10.1981 8.93278 10.3219C8.93278 10.4457 8.98195 10.5644 9.06946 10.6519C9.15698 10.7394 9.27567 10.7886 9.39942 10.7886H15.266C15.3898 10.7886 15.5084 10.7394 15.596 10.6519C15.6835 10.5644 15.7326 10.4457 15.7326 10.3219C15.7326 10.1981 15.6835 10.0794 15.596 9.9919C15.5084 9.90439 15.3898 9.85522 15.266 9.85522H9.39942Z" fill="#2D373D"/>
<path fill-rule="evenodd" clip-rule="evenodd" d="M4.00049 26.9441C4.00049 28.0364 4.88595 28.9219 5.97825 28.9219H18.6892C19.7815 28.9219 20.6669 28.0364 20.6669 26.9441V11.3219H21.1312C21.255 11.3219 21.3736 11.3711 21.4612 11.4586C21.5487 11.5461 21.5978 11.6648 21.5978 11.7886V26.4553C21.5978 27.1095 21.8577 27.7369 22.3203 28.1994C22.7829 28.662 23.4103 28.9219 24.0645 28.9219C24.7187 28.9219 25.3461 28.662 25.8087 28.1994C26.2712 27.7369 26.5311 27.1095 26.5311 26.4553V18.6552H27.001C27.5533 18.6552 28.001 18.2075 28.001 17.6552C28.001 17.1029 27.5533 16.6552 27.001 16.6552H26.6632C26.7712 16.2538 26.944 15.8704 27.1769 15.5208L27.8293 14.5441C28.1361 14.0848 28.0125 13.4638 27.5532 13.1571C27.094 12.8503 26.473 12.9739 26.1662 13.4331L25.5124 14.4119C24.8724 15.3725 24.531 16.5011 24.5311 17.6554V26.4553C24.5311 26.579 24.482 26.6977 24.3944 26.7852C24.3069 26.8728 24.1882 26.9219 24.0645 26.9219C23.9407 26.9219 23.822 26.8728 23.7345 26.7852C23.647 26.6977 23.5978 26.579 23.5978 26.4553V11.7886C23.5978 11.1344 23.338 10.507 22.8754 10.0444C22.4128 9.58182 21.7854 9.32194 21.1312 9.32194H20.6669V6.89965C20.6669 5.80737 19.7815 4.92188 18.6892 4.92188H5.97825C4.88595 4.92188 4.00049 5.80737 4.00049 6.89965V26.9441ZM6.00049 15.7219V26.9219H18.6669V15.7219H6.00049ZM18.6646 10.3219C18.6646 10.2986 18.6653 10.2755 18.6669 10.2526V6.92188H6.00049V13.7219H18.6669V10.3913C18.6653 10.3684 18.6646 10.3452 18.6646 10.3219Z" fill="#2D373D"/>
</svg>
