<svg width="24" height="25" viewBox="0 0 24 25" fill="none" xmlns="http://www.w3.org/2000/svg">
<path d="M12.7497 9.68571C12.7497 7.73571 11.1747 6.16071 9.22468 6.16071C7.27468 6.16071 5.69968 7.73571 5.69968 9.68571C5.69968 11.6357 7.27468 13.2107 9.22468 13.2107C11.1747 13.2107 12.7497 11.6357 12.7497 9.68571ZM9.22468 11.7107C8.09968 11.7107 7.19968 10.8107 7.19968 9.68571C7.19968 8.56071 8.09968 7.66071 9.22468 7.66071C10.3497 7.66071 11.2497 8.56071 11.2497 9.68571C11.2497 10.8107 10.3497 11.7107 9.22468 11.7107Z" fill="#2D373D"/>
<path d="M4.4248 9.68574C4.4248 8.41074 4.9498 7.21074 5.8498 6.31074C6.74981 5.41074 7.9498 4.88574 9.2248 4.88574C11.3248 4.88574 13.1248 6.23574 13.7248 8.26074C13.8748 8.71074 14.3248 8.93574 14.6998 8.78574C15.1498 8.63574 15.3748 8.18574 15.2248 7.81074C14.3998 5.18574 11.9998 3.38574 9.2248 3.38574C7.4998 3.38574 5.9998 4.13574 4.7998 5.26074C3.5998 6.38574 2.9248 7.96074 2.9248 9.68574C2.9248 12.4607 6.74981 18.7607 7.57481 20.0357C7.64981 20.2607 7.9498 20.4107 8.1748 20.4107C8.3248 20.4107 8.47481 20.3357 8.62481 20.2607C8.92481 20.0357 9.07481 19.5857 8.84981 19.2107C6.6748 15.8357 4.4248 11.4107 4.4248 9.68574Z" fill="#2D373D"/>
<path d="M19.6497 9.53571H14.6997C14.0247 9.53571 13.4247 10.0607 13.4247 10.8107V13.8857H11.8497C11.2497 13.8857 10.7247 14.4107 10.7247 15.0107V19.9607H10.3497C9.89973 19.9607 9.59973 20.2607 9.59973 20.7107C9.59973 21.1607 9.89973 21.4607 10.3497 21.4607H11.3997C11.3997 21.4607 11.3997 21.4607 11.4747 21.4607H20.2497C20.6997 21.4607 20.9997 21.1607 20.9247 20.7857V10.8107C20.9247 10.1357 20.3997 9.53571 19.6497 9.53571ZM12.2247 15.3857H15.6747V19.9607H12.2247V15.3857ZM19.5747 19.9607H17.2497V15.0107C17.2497 14.4107 16.7247 13.8857 16.1247 13.8857H14.9247V10.9607H19.5747V19.9607Z" fill="#2D373D"/>
</svg>
