<svg width="16" height="16" viewBox="0 0 16 16" fill="none" xmlns="http://www.w3.org/2000/svg">
<path d="M6.10019 11.5002H3.1502C3.1002 11.5002 3.0002 11.4502 3.0002 11.4502C3.0002 11.4502 2.9502 11.4002 2.9502 11.3002V5.1502H12.3502V7.2502C12.3502 7.5502 12.5502 7.7502 12.8502 7.7502C13.1502 7.7502 13.3502 7.5502 13.3502 7.2502V3.2002C13.3502 2.5002 12.8002 1.9502 12.1002 1.9502H3.2002C2.8502 1.9502 2.5502 2.1002 2.3002 2.3002C2.1002 2.5502 1.9502 2.8502 1.9502 3.2002V11.3002C1.9502 11.6502 2.1002 11.9502 2.3502 12.2002C2.5502 12.4002 2.8502 12.5502 3.2002 12.5502C3.2002 12.5502 3.2002 12.5502 3.2002 12.5002H6.10019C6.4002 12.5002 6.60019 12.3002 6.60019 12.0002C6.60019 11.7002 6.4002 11.5002 6.10019 11.5002ZM3.0002 3.0002C3.0502 3.0002 3.1002 2.9502 3.2002 2.9502H12.1002C12.2502 2.9502 12.3502 3.0502 12.3502 3.2002V4.1502H2.9502V3.2002C2.9502 3.1002 2.9502 3.0002 3.0002 3.0002Z" fill="#2D373D"/>
<path d="M10.2002 11.8502C10.1002 11.9502 10.0502 12.0502 10.0502 12.2002C10.0502 12.3502 10.1002 12.4502 10.2002 12.5502C10.3002 12.6502 10.4002 12.7002 10.5502 12.7002C10.7002 12.7002 10.8002 12.6502 10.9002 12.5502C11.0002 12.4502 11.0502 12.3502 11.0502 12.2002C11.0502 12.0502 11.0002 11.9502 10.9002 11.8502C10.7002 11.6502 10.4002 11.6502 10.2002 11.8502Z" fill="#2D373D"/>
<path d="M10.5502 8.9502C10.2502 8.9502 10.0502 9.1502 10.0502 9.4502V10.9502C10.0502 11.2502 10.2502 11.4502 10.5502 11.4502C10.8502 11.4502 11.0502 11.2002 11.0502 10.9502V9.4502C11.0502 9.1502 10.8502 8.9502 10.5502 8.9502Z" fill="#2D373D"/>
<path d="M13.9501 12.0501L11.8501 7.90013C11.7501 7.65013 11.5001 7.45013 11.2501 7.30013C10.5501 6.95013 9.75015 7.20013 9.40015 7.90013L7.30015 12.0501C7.20015 12.2001 7.15015 12.4501 7.15015 12.6501C7.15015 13.4001 7.75015 14.0001 8.50015 14.0001H12.6501C12.8501 14.0001 13.0501 13.9501 13.3001 13.9001C13.6501 13.7501 13.9001 13.4501 14.0001 13.1001C14.1501 12.7501 14.1001 12.4001 13.9501 12.0501ZM12.9001 12.7001C12.8501 12.8001 12.8001 12.8501 12.7001 12.9001C12.6501 12.9501 12.6001 12.9501 12.5501 12.9501H8.40015C8.20015 12.9501 8.05015 12.8001 8.05015 12.6001C8.05015 12.5501 8.05015 12.5001 8.10015 12.4501L10.2001 8.30013C10.3001 8.20013 10.4001 8.10013 10.5501 8.10013C10.6001 8.10013 10.7001 8.15013 10.6501 8.10013C10.7001 8.10013 10.7501 8.20013 10.8001 8.25013L12.9001 12.4001C12.9001 12.5001 12.9501 12.6001 12.9001 12.7001Z" fill="#2D373D"/>
</svg>
