<svg width="16" height="16" viewBox="0 0 16 16" fill="none" xmlns="http://www.w3.org/2000/svg">
<path d="M12.7998 10.15C12.7498 10.15 12.7498 10.15 12.7998 10.15C12.3998 10.15 12.0998 10.45 12.0998 10.8C12.0998 10.95 12.1498 11.1 12.2498 11.15C12.3498 11.3 12.4498 11.4 12.5998 11.45C12.6498 11.5 12.7498 11.5 12.7998 11.5C13.1498 11.5 13.4498 11.2 13.4498 10.85C13.4498 10.85 13.4498 10.85 13.4498 10.8C13.4498 10.45 13.1498 10.15 12.7998 10.15Z" fill="#2D373D"/>
<path d="M6.09981 10.15C6.04981 10.15 6.04981 10.15 6.04981 10.15C5.69981 10.15 5.39981 10.45 5.39981 10.8C5.39981 11.05 5.59981 11.3 5.84981 11.4C5.89981 11.45 5.99981 11.45 6.04981 11.45C6.39981 11.45 6.64981 11.25 6.69981 11C6.74981 10.95 6.74981 10.85 6.74981 10.75C6.74981 10.45 6.44981 10.15 6.09981 10.15Z" fill="#2D373D"/>
<path d="M13.4998 8.95L12.9498 7.7C12.7498 7.15 12.1998 6.75 11.5998 6.75H7.19979C6.59979 6.75 6.04979 7.1 5.84979 7.65L5.24979 8.95C4.59979 9.05 4.09979 9.6 4.09979 10.3V11.9C4.14979 12.15 4.24979 12.4 4.44979 12.55V12.95C4.44979 13.6 4.94979 14.1 5.59979 14.1C6.19979 14.1 6.74979 13.55 6.74979 12.95V12.8H12.0998V12.95C12.0998 13.6 12.5998 14.1 13.2498 14.1C13.8998 14.1 14.3998 13.55 14.3998 12.95V12.5C14.5498 12.35 14.6998 12.1 14.6498 11.85V10.25C14.6498 9.6 14.1498 9.05 13.4998 8.95ZM13.6998 11.75H5.14979V10.25C5.14979 10.05 5.29979 9.9 5.49979 9.9H12.9998C13.0998 9.95 13.2498 9.95 13.3498 9.9C13.5498 9.9 13.6498 10.05 13.6498 10.25V11.75H13.6998ZM7.19979 7.7H11.5998C11.7998 7.7 11.9498 7.85 12.0498 8.05L12.3998 8.9H6.34979L6.74979 8C6.84979 7.8 6.99979 7.7 7.19979 7.7ZM5.74979 12.9C5.74979 13.05 5.44979 13.05 5.44979 12.9V12.75H5.74979V12.9ZM13.0998 12.9V12.75H13.3998V12.9C13.3998 13.05 13.0998 13.05 13.0998 12.9Z" fill="#2D373D"/>
<path d="M3.44979 5.55C3.39979 5.55 3.34979 5.5 3.24979 5.5C3.14979 5.5 3.09979 5.5 3.04979 5.55C2.84979 5.6 2.74979 5.75 2.64979 5.95C2.59979 6 2.59979 6.1 2.59979 6.15C2.59979 6.2 2.59979 6.3 2.64979 6.35C2.69979 6.55 2.84979 6.65 3.04979 6.75C3.09979 6.8 3.19979 6.8 3.24979 6.8C3.29979 6.8 3.39979 6.8 3.44979 6.75C3.64979 6.7 3.79979 6.55 3.84979 6.35C3.89979 6.3 3.89979 6.25 3.89979 6.15C3.89979 6.05 3.89979 6 3.84979 5.95C3.79979 5.75 3.64979 5.6 3.44979 5.55Z" fill="#2D373D"/>
<path d="M4.6998 8.10002C4.9498 8.10002 5.1998 7.90002 5.1998 7.60002C5.1998 7.30002 4.9998 7.10002 4.6998 7.10002H2.4498C2.3998 7.10002 2.3998 7.10002 2.3498 7.05002C2.3498 7.05002 2.2998 7.00002 2.2998 6.95002V6.00002C2.2998 5.55002 2.6498 5.20002 3.0998 5.20002H9.4998C9.5498 5.20002 9.6498 5.20002 9.6998 5.20002C9.6998 5.20002 9.6998 5.20002 9.7498 5.20002C9.9498 5.25002 10.0998 5.40002 10.1998 5.55002C10.3498 5.80002 10.6498 5.90002 10.8998 5.75002C11.1498 5.60002 11.2498 5.30002 11.0998 5.05002C10.8998 4.70002 10.5998 4.40002 10.1998 4.25002L9.5498 2.85002C9.3498 2.30002 8.7998 1.90002 8.1998 1.90002H4.3998C3.7998 1.90002 3.2498 2.30002 3.0498 2.85002L2.3998 4.35002C1.7498 4.60002 1.2998 5.25002 1.2998 6.00002V6.95002C1.2998 7.25002 1.3998 7.55002 1.5998 7.75002V8.20002C1.5998 8.85002 2.0998 9.40002 2.7498 9.40002C3.3998 9.40002 3.8998 8.90002 3.8998 8.25002V8.10002H4.6998ZM4.3998 2.95002H8.1998C8.3998 2.95002 8.5498 3.05002 8.6498 3.30002L9.0498 4.20002H3.5498L3.9498 3.25002C4.0498 3.05002 4.1998 2.95002 4.3998 2.95002ZM2.8998 8.25002C2.8998 8.35002 2.8498 8.40002 2.7498 8.40002C2.6498 8.40002 2.5998 8.35002 2.5998 8.25002V8.10002H2.8998V8.25002Z" fill="#2D373D"/>
</svg>
