<svg width="24" height="24" viewBox="0 0 24 24" fill="none" xmlns="http://www.w3.org/2000/svg">
<path d="M20.8498 11.475L12.5248 3.15002C12.3748 3.00002 12.2248 2.92502 11.9998 2.92502C11.7748 2.92502 11.6248 3.00002 11.4748 3.15002L3.1498 11.475C2.9998 11.625 2.9248 11.775 2.9248 12V20.325C2.9248 20.775 3.2248 21.075 3.6748 21.075C4.1248 21.075 4.4248 20.775 4.4248 20.325V12.3L11.9998 4.72502L19.5748 12.3V20.325C19.5748 20.775 19.8748 21.075 20.3248 21.075C20.6998 21.075 21.0748 20.7 21.0748 20.325V12C21.0748 11.775 20.9998 11.625 20.8498 11.475Z" fill="#2D373D"/>
<path d="M12.9748 11.925C13.7998 11.55 14.3998 10.725 14.3998 9.75004C14.3998 8.40004 13.3498 7.35004 11.9998 7.35004C10.6498 7.35004 9.59982 8.40004 9.59982 9.75004C9.59982 10.725 10.1998 11.55 11.0248 11.925C9.59982 12.375 8.47482 13.725 8.47482 15.3V16.95C8.47482 17.4 8.77482 17.7 9.22482 17.7H9.67482L10.1248 20.475C10.1998 20.775 10.4998 21.075 10.8748 21.075H13.1248C13.4248 21.075 13.7998 20.775 13.8748 20.4L14.3248 17.7H14.7748C15.2248 17.7 15.5248 17.4 15.5248 16.95V15.3C15.5248 13.725 14.4748 12.375 12.9748 11.925ZM11.9998 8.85004C12.4498 8.85004 12.8998 9.22504 12.8998 9.75004C12.8998 10.275 12.5248 10.65 11.9998 10.65C11.4748 10.65 11.0998 10.275 11.0998 9.75004C11.0998 9.22504 11.4748 8.85004 11.9998 8.85004ZM14.0248 16.275H13.6498C13.2748 16.275 12.9748 16.5 12.8998 16.875L12.4498 19.575H11.4748L11.0998 16.8C11.0248 16.5 10.7248 16.2 10.3498 16.2H9.97482V15.3C9.97482 14.175 10.8748 13.35 11.9998 13.35C13.1248 13.35 14.0248 14.25 14.0248 15.375V16.275Z" fill="#2D373D"/>
</svg>
