<svg width="16" height="17" viewBox="0 0 16 17" fill="none" xmlns="http://www.w3.org/2000/svg">
<path d="M10.9998 7.76191L8.34981 5.11191C8.14981 4.91191 7.84981 4.91191 7.64981 5.11191L4.9498 7.76191C4.7498 7.96191 4.7498 8.26191 4.9498 8.46191C5.0498 8.56191 5.14981 8.61191 5.29981 8.61191C5.44981 8.61191 5.5498 8.56191 5.6498 8.46191L7.4998 6.66191V11.4619C7.4998 11.7619 7.6998 11.9619 7.9998 11.9619C8.2498 11.9619 8.4998 11.7619 8.4998 11.4619V6.66191L10.2998 8.46191C10.4998 8.66191 10.7998 8.66191 10.9998 8.46191C11.1998 8.26191 11.1998 7.96191 10.9998 7.76191Z" fill="#2D373D"/>
</svg>
