<svg width="64" height="64" viewBox="0 0 64 64" fill="none" xmlns="http://www.w3.org/2000/svg">
<path fill-rule="evenodd" clip-rule="evenodd" d="M32 12C21.0235 12 12 21.1839 12 30.6667V51.3333C12 52.4379 11.1046 53.3333 10 53.3333C8.89543 53.3333 8 52.4379 8 51.3333V30.6667C8 18.8161 18.9765 8 32 8C45.0235 8 56 18.8161 56 30.6667V51.3333C56 52.4379 55.1046 53.3333 54 53.3333C52.8954 53.3333 52 52.4379 52 51.3333V30.6667C52 21.1839 42.9765 12 32 12Z" fill="#2D373D"/>
<path fill-rule="evenodd" clip-rule="evenodd" d="M20.6667 24C20.1362 24 19.6275 24.2107 19.2525 24.5858C18.8774 24.9609 18.6667 25.4696 18.6667 26C18.6667 29.4886 21.345 34.1333 26.5161 34.1333C29.0013 34.1333 30.8049 32.861 32.0002 31.4143C33.1955 32.861 34.999 34.1333 37.4842 34.1333C42.6592 34.1333 45.3337 29.4627 45.3337 26C45.3337 24.8954 44.4383 24 43.3337 24H20.6667ZM26.5161 30.1333C24.9913 30.1333 23.8057 29.2027 23.1737 28H29.5085C29.3822 28.2213 29.2431 28.4379 29.0909 28.6436C28.3839 29.5988 27.5525 30.1333 26.5161 30.1333ZM34.9095 28.6436C34.7573 28.4379 34.6181 28.2213 34.4919 28H40.8219C40.188 29.1992 39.0034 30.1333 37.4842 30.1333C36.4478 30.1333 35.6165 29.5988 34.9095 28.6436Z" fill="#2D373D"/>
<path fill-rule="evenodd" clip-rule="evenodd" d="M39.5521 44.5947C39.1723 45.062 38.6022 45.3333 38 45.3333H26C25.3978 45.3333 24.8277 45.062 24.4479 44.5947C24.0681 44.1273 23.9191 43.5138 24.0422 42.9243C24.2941 41.7191 24.9486 39.9739 26.1563 38.484C27.3967 36.9538 29.3224 35.5895 32 35.5895C34.6775 35.5895 36.6032 36.9538 37.8436 38.484C39.0514 39.9739 39.7059 41.7191 39.9577 42.9243C40.0809 43.5138 39.9319 44.1273 39.5521 44.5947ZM34.9844 41.3333C34.906 41.2207 34.8233 41.1102 34.7363 41.0029C34.0367 40.1398 33.1624 39.5895 32 39.5895C30.8375 39.5895 29.9632 40.1398 29.2636 41.0029C29.1766 41.1102 29.0939 41.2207 29.0155 41.3333H34.9844Z" fill="#2D373D"/>
</svg>
