<svg width="32" height="32" viewBox="0 0 32 32" fill="none" xmlns="http://www.w3.org/2000/svg">
<path d="M24.3001 16C23.9001 16 23.5001 16.1 23.2001 16.1L19.8001 8.50001L22.9001 7.60001C23.5001 7.50001 23.8001 6.90001 23.6001 6.40001C23.5001 5.80001 22.9001 5.50001 22.4001 5.70001L19.1001 6.70001C19.0001 6.70001 19.0001 6.80001 18.9001 6.80001C18.4001 7.00001 18.1001 7.30001 17.9001 7.80001C17.7001 8.30001 17.7001 8.80001 17.9001 9.20001L19.2001 12.2L12.6001 14L11.1001 11.3H12.7001C13.3001 11.3 13.7001 10.9 13.7001 10.3C13.7001 9.70001 13.3001 9.30001 12.7001 9.30001H6.9001C6.3001 9.30001 5.9001 9.70001 5.9001 10.3C5.9001 10.9 6.3001 11.3 6.9001 11.3H8.8001L11.0001 15.1L9.9001 16.5C9.2001 16.2 8.5001 16 7.7001 16C4.9001 16 2.6001 18.3 2.6001 21.1C2.6001 23.9 4.9001 26.2 7.7001 26.2C10.6001 26.2 12.9001 23.9 12.8001 21.1C12.8001 19.8 12.3001 18.7 11.5001 17.8L12.8001 16.1L20.0001 14L21.3001 17C20.0001 17.9 19.1001 19.4 19.1001 21.1C19.1001 23.9 21.4001 26.2 24.2001 26.2C27.0001 26.2 29.3001 23.9 29.3001 21.1C29.4001 18.3 27.1001 16 24.3001 16ZM10.8001 21C10.8001 22.7 9.4001 24.1 7.7001 24.1C6.0001 24.1 4.6001 22.7 4.6001 21C4.6001 19.3 6.0001 17.9 7.7001 17.9C8.1001 17.9 8.4001 18 8.7001 18.1L6.9001 20.5C6.6001 20.9 6.7001 21.6 7.1001 21.9C7.3001 22 7.5001 22.1 7.7001 22.1C8.0001 22.1 8.3001 21.9 8.5001 21.7L10.3001 19.3C10.6001 19.9 10.8001 20.4 10.8001 21ZM24.3001 24.1C22.6001 24.1 21.2001 22.7 21.2001 21C21.2001 20.1 21.6001 19.3 22.2001 18.8L23.4001 21.5C23.6001 21.9 23.9001 22.1 24.3001 22.1C24.4001 22.1 24.6001 22.1 24.7001 22C25.2001 21.8 25.4001 21.2 25.2001 20.7L24.0001 18C24.1001 18 24.2001 18 24.3001 18C26.0001 18 27.4001 19.4 27.4001 21.1C27.4001 22.8 26.0001 24.1 24.3001 24.1Z" fill="#2D373D"/>
</svg>
