<svg width="16" height="17" viewBox="0 0 16 17" fill="none" xmlns="http://www.w3.org/2000/svg">
<path d="M5.83348 9.53043V9.13043C6.04351 9.03302 6.22148 8.87787 6.34661 8.68309C6.47174 8.48831 6.53887 8.26194 6.54015 8.03043C6.53983 7.81377 6.48117 7.60118 6.37034 7.415C6.25951 7.22883 6.1006 7.07592 5.91029 6.97235C5.71998 6.86878 5.50529 6.81837 5.28877 6.8264C5.07225 6.83442 4.86189 6.9006 4.67977 7.01798C4.49765 7.13536 4.3505 7.29962 4.25376 7.49349C4.15703 7.68736 4.11428 7.90371 4.13 8.11981C4.14572 8.3359 4.21934 8.54378 4.34313 8.72161C4.46691 8.89943 4.63629 9.04065 4.83348 9.13043V9.53043C4.04531 9.64674 3.32487 10.0415 2.80266 10.6432C2.28045 11.2449 1.99103 12.0137 1.98682 12.8104V14.4104C1.98854 14.5425 2.04178 14.6687 2.13517 14.7621C2.22857 14.8555 2.35475 14.9087 2.48682 14.9104H8.15348C8.28555 14.9087 8.41173 14.8555 8.50513 14.7621C8.59852 14.6687 8.65176 14.5425 8.65348 14.4104V12.8104C8.65025 12.0177 8.36459 11.252 7.84777 10.6509C7.33094 10.0498 6.61679 9.65251 5.83348 9.53043ZM5.32015 7.82377C5.36102 7.82377 5.40098 7.83589 5.43497 7.8586C5.46895 7.8813 5.49544 7.91358 5.51108 7.95134C5.52673 7.98911 5.53082 8.03066 5.52285 8.07075C5.51487 8.11084 5.49519 8.14767 5.46628 8.17657C5.43738 8.20547 5.40056 8.22515 5.36047 8.23313C5.32038 8.2411 5.27883 8.23701 5.24106 8.22137C5.2033 8.20573 5.17102 8.17924 5.14831 8.14525C5.1256 8.11126 5.11348 8.07131 5.11348 8.03043C5.11348 7.97562 5.13526 7.92306 5.17401 7.8843C5.21277 7.84554 5.26534 7.82377 5.32015 7.82377ZM7.65348 13.9104H2.98682V12.8104C2.98682 12.1916 3.23265 11.5981 3.67023 11.1605C4.10782 10.7229 4.70131 10.4771 5.32015 10.4771C5.93899 10.4771 6.53248 10.7229 6.97007 11.1605C7.40765 11.5981 7.65348 12.1916 7.65348 12.8104V13.9104Z" fill="#2D373D"/>
<path d="M14.5668 7.0371C14.5215 6.96906 14.4601 6.91334 14.3879 6.87494C14.3158 6.83654 14.2352 6.81666 14.1535 6.8171H11.8801C11.8068 6.81715 11.7341 6.80241 11.6665 6.77378C11.599 6.74514 11.5378 6.70319 11.4868 6.65043C11.4073 6.57249 11.3528 6.47261 11.3303 6.36354C11.3078 6.25447 11.3183 6.14117 11.3605 6.03812C11.4028 5.93507 11.4748 5.84694 11.5673 5.78501C11.6599 5.72308 11.7688 5.69015 11.8801 5.69043H14.1535C14.235 5.68972 14.3151 5.66934 14.3871 5.63104C14.459 5.59274 14.5207 5.53765 14.5668 5.47043C14.6133 5.40162 14.6419 5.32231 14.65 5.23967C14.6582 5.15703 14.6456 5.07367 14.6135 4.9971C14.4422 4.57392 14.1858 4.19044 13.8601 3.87043C13.5318 3.55212 13.1415 3.30477 12.7135 3.14377C12.2893 2.97863 11.8347 2.9059 11.3801 2.93043C10.6911 2.96353 10.0293 3.20958 9.48602 3.63467C8.94272 4.05975 8.54469 4.64292 8.34682 5.30377C8.11774 6.05308 8.16505 6.8597 8.48015 7.5771L7.35348 8.6971C7.25985 8.79085 7.20726 8.91793 7.20726 9.05043C7.20726 9.18293 7.25985 9.31002 7.35348 9.40377C7.39945 9.45094 7.45439 9.48843 7.51507 9.51403C7.57576 9.53962 7.64095 9.55281 7.70682 9.55281C7.77268 9.55281 7.83787 9.53962 7.89856 9.51403C7.95924 9.48843 8.01419 9.45094 8.06015 9.40377L9.44015 8.04377C9.5178 7.96519 9.56764 7.86339 9.58208 7.75387C9.59652 7.64435 9.57477 7.53312 9.52015 7.4371C9.35526 7.16224 9.25073 6.85545 9.21348 6.5371C9.18324 6.21317 9.21953 5.88648 9.32015 5.5771C9.40678 5.26819 9.55915 4.98165 9.76682 4.7371C9.9761 4.49306 10.2323 4.29356 10.5201 4.15043C10.8081 4.01088 11.1207 3.92933 11.4401 3.91043C11.7606 3.89769 12.0803 3.94984 12.3801 4.06377C12.6794 4.17783 12.9518 4.35261 13.1801 4.5771L13.2801 4.6771H11.8801C11.4683 4.67841 11.0733 4.84117 10.7801 5.13043C10.6332 5.27603 10.5168 5.44951 10.4378 5.64069C10.3588 5.83188 10.3188 6.03691 10.3201 6.24377C10.3215 6.6589 10.4868 7.05668 10.7801 7.35043C10.9237 7.49637 11.095 7.61222 11.2838 7.69121C11.4727 7.77019 11.6754 7.81072 11.8801 7.81043H13.2601C13.2201 7.8571 13.1735 7.8971 13.1268 7.94377C12.8835 8.17549 12.5922 8.35076 12.2735 8.4571C11.956 8.56601 11.6186 8.60453 11.2848 8.56999C10.9509 8.53546 10.6286 8.42869 10.3401 8.2571C10.2448 8.20021 10.133 8.17716 10.0229 8.19168C9.91282 8.20619 9.81084 8.25743 9.73348 8.3371L8.34015 9.73043C8.24652 9.82418 8.19392 9.95127 8.19392 10.0838C8.19392 10.2163 8.24652 10.3433 8.34015 10.4371C8.38631 10.4838 8.44135 10.5209 8.50202 10.5461C8.56269 10.5713 8.62779 10.5841 8.69348 10.5838C8.82576 10.5822 8.95234 10.5297 9.04682 10.4371L10.1868 9.2971C10.5015 9.43853 10.8369 9.52856 11.1801 9.56377C11.6595 9.61082 12.1433 9.5563 12.6001 9.40377C13.0538 9.25189 13.4681 9.00145 13.8135 8.67043C14.1736 8.346 14.46 7.94818 14.6535 7.50377C14.6782 7.42482 14.6833 7.34101 14.6682 7.25966C14.6531 7.17831 14.6183 7.1019 14.5668 7.0371Z" fill="#2D373D"/>
<path d="M4.18015 12.4571C4.42315 12.4571 4.62015 12.2601 4.62015 12.0171C4.62015 11.7741 4.42315 11.5771 4.18015 11.5771C3.93714 11.5771 3.74015 11.7741 3.74015 12.0171C3.74015 12.2601 3.93714 12.4571 4.18015 12.4571Z" fill="#2D373D"/>
<path d="M6.48015 12.4571C6.72315 12.4571 6.92015 12.2601 6.92015 12.0171C6.92015 11.7741 6.72315 11.5771 6.48015 11.5771C6.23714 11.5771 6.04015 11.7741 6.04015 12.0171C6.04015 12.2601 6.23714 12.4571 6.48015 12.4571Z" fill="#2D373D"/>
</svg>
