<svg width="64" height="64" viewBox="0 0 64 64" fill="none" xmlns="http://www.w3.org/2000/svg">
<path d="M32.0002 5.2002C17.2002 5.2002 5.2002 17.2002 5.2002 32.0002C5.2002 46.8002 17.2002 58.8002 32.0002 58.8002C46.8002 58.8002 58.8002 46.8002 58.8002 32.0002C58.8002 17.2002 46.8002 5.2002 32.0002 5.2002ZM32.0002 54.8002C19.4002 54.8002 9.2002 44.6002 9.2002 32.0002C9.2002 19.4002 19.4002 9.2002 32.0002 9.2002C44.6002 9.2002 54.8002 19.4002 54.8002 32.0002C54.8002 44.6002 44.6002 54.8002 32.0002 54.8002Z" fill="#2D373D"/>
<path d="M44.8 30.0002H34V15.2002C34 14.0002 33.2 13.2002 32 13.2002C30.8 13.2002 30 14.0002 30 15.2002V32.0002C30 33.2002 30.8 34.0002 32 34.0002H44.8C45.8 34.0002 46.8 33.2002 46.8 32.0002C46.8 30.8002 46 30.0002 44.8 30.0002Z" fill="#2D373D"/>
</svg>
