<svg width="64" height="65" viewBox="0 0 64 65" fill="none" xmlns="http://www.w3.org/2000/svg">
<path d="M29.3335 9.58333C29.3335 10.33 28.7468 10.9167 28.0002 10.9167H27.3335V11.5833C27.3335 12.33 26.7468 12.9167 26.0002 12.9167C25.2535 12.9167 24.6668 12.33 24.6668 11.5833V10.9167H24.0002C23.2535 10.9167 22.6668 10.33 22.6668 9.58333C22.6668 8.83667 23.2535 8.25 24.0002 8.25H24.6668V7.58333C24.6668 6.83667 25.2535 6.25 26.0002 6.25C26.7468 6.25 27.3335 6.83667 27.3335 7.58333V8.25H28.0002C28.7468 8.25 29.3335 8.83667 29.3335 9.58333Z" fill="#2D373D"/>
<path d="M23.3335 38.25V47.5833C23.3335 48.6767 22.4268 49.5833 21.3335 49.5833C20.2402 49.5833 19.3335 48.6767 19.3335 47.5833V38.25C19.3335 37.1567 20.2402 36.25 21.3335 36.25C22.4268 36.25 23.3335 37.1567 23.3335 38.25Z" fill="#2D373D"/>
<path d="M21.3335 25.5807C20.2402 25.5807 19.3335 24.6741 19.3335 23.5807V20.9141C19.3335 19.8207 20.2402 18.9141 21.3335 18.9141C22.4268 18.9141 23.3335 19.8207 23.3335 20.9141V23.5807C23.3335 24.6741 22.4268 25.5807 21.3335 25.5807Z" fill="#2D373D"/>
<path d="M46.0535 13.2109H44.0002C42.9068 13.2109 42.0002 14.1176 42.0002 15.2109C42.0002 16.3043 42.9068 17.2109 44.0002 17.2109H46.0535C46.2935 17.2109 46.6668 17.6109 46.6668 18.2509V28.2509H17.3335V18.2509C17.3335 17.6109 17.7068 17.2109 17.9735 17.2109H22.6668C23.7602 17.2109 24.6668 16.3309 24.6668 15.2109C24.6668 14.0909 23.7602 13.2109 22.6668 13.2109H17.9735C15.4135 13.2109 13.3335 15.4776 13.3335 18.2509V51.8776C13.3335 54.6509 15.4135 56.9176 17.9735 56.9176H19.3335V57.5843C19.3335 58.6776 20.2402 59.5843 21.3335 59.5843C22.4268 59.5843 23.3335 58.6776 23.3335 57.5843V56.9176H40.6668V57.5843C40.6668 58.6776 41.5735 59.5843 42.6668 59.5843C43.7602 59.5843 44.6668 58.6776 44.6668 57.5843V56.9176H46.0535C48.5868 56.9176 50.6668 54.6509 50.6668 51.8776V18.2509C50.6668 15.4776 48.5868 13.2109 46.0535 13.2109ZM46.6668 51.8776C46.6668 52.5176 46.2935 52.9176 46.0535 52.9176H17.9735C17.7068 52.9176 17.3335 52.5176 17.3335 51.8776V32.2509H46.6668V51.8776Z" fill="#2D373D"/>
<path d="M40.1068 11.5833C39.0935 11.5033 37.4135 11.13 36.9335 10.65C36.4535 10.17 36.0802 8.49 36.0002 7.47667C35.9468 6.78333 35.3602 6.25 34.6668 6.25C33.9735 6.25 33.3868 6.78333 33.3335 7.47667C33.2535 8.49 32.8802 10.17 32.4002 10.65C31.9202 11.13 30.2402 11.5033 29.2268 11.5833C28.5335 11.6367 28.0002 12.2233 28.0002 12.9167C28.0002 13.61 28.5335 14.1967 29.2268 14.25C30.2402 14.33 31.9202 14.7033 32.4002 15.1833C32.8802 15.6633 33.2535 17.3433 33.3335 18.3567C33.3868 19.05 33.9735 19.5833 34.6668 19.5833C35.3602 19.5833 35.9468 19.05 36.0002 18.3567C36.0802 17.3433 36.4535 15.69 36.9335 15.1833C37.4135 14.7033 39.0935 14.33 40.1068 14.25C40.8002 14.1967 41.3335 13.61 41.3335 12.9167C41.3335 12.2233 40.8002 11.6367 40.1068 11.5833ZM35.0668 13.3167C34.9068 13.45 34.7735 13.61 34.6668 13.77C34.5602 13.61 34.4268 13.45 34.2668 13.3167C34.1335 13.1567 33.9735 13.0233 33.8135 12.9167C33.9735 12.7833 34.1335 12.6767 34.2668 12.5167C34.4268 12.3833 34.5602 12.2233 34.6668 12.0633C34.7735 12.2233 34.9068 12.3833 35.0668 12.5167C35.2002 12.6767 35.3602 12.7833 35.5202 12.9167C35.3602 13.0233 35.2002 13.1567 35.0668 13.3167Z" fill="#2D373D"/>
</svg>
