<svg width="16" height="17" viewBox="0 0 16 17" fill="none" xmlns="http://www.w3.org/2000/svg">
<path d="M11.55 2.76172C10.45 2.11172 9.25 1.76172 8 1.76172C7.95 1.76172 7.95 1.76172 7.95 1.76172C4.3 1.76172 1.3 4.76172 1.3 8.41172C1.3 9.61172 1.6 10.7617 2.2 11.7617L1.3 14.5117C1.25 14.6617 1.3 14.8617 1.45 15.0117C1.55 15.1117 1.65 15.1617 1.8 15.1617C1.85 15.1617 1.95 15.1617 2 15.1117L4.7 14.2117C7.8 16.0117 11.8 15.0117 13.7 11.9617C15.65 8.86172 14.7 4.71172 11.55 2.76172ZM12.8 11.4617C11.15 14.1117 7.65 14.9117 5 13.2617C4.95 13.2117 4.85 13.1617 4.75 13.1617C4.65 13.1617 4.6 13.2117 4.6 13.2117L2.6 13.8617L3.2 11.8117C3.25 11.6617 3.25 11.5117 3.15 11.4117C2.6 10.5117 2.3 9.46172 2.3 8.41172C2.3 5.31172 4.85 2.76172 8 2.76172C9.05 2.76172 10.1 3.06172 11 3.61172C13.65 5.26172 14.45 8.81172 12.8 11.4617Z" fill="#2D373D"/>
<path d="M9.65005 6.36178L7.30005 9.51178L5.90005 8.11178C5.70005 7.91178 5.40005 7.91178 5.20005 8.11178C5.00005 8.31178 5.00005 8.61178 5.20005 8.81178L7.00005 10.6118C7.10005 10.7118 7.20005 10.7618 7.35005 10.7618C7.50005 10.7618 7.65005 10.7118 7.75005 10.5618L10.45 6.96178C10.6 6.76178 10.55 6.41178 10.35 6.26178C10.1501 6.11178 9.80005 6.16178 9.65005 6.36178Z" fill="#2D373D"/>
</svg>
