<svg width="24" height="24" viewBox="0 0 24 24" fill="none" xmlns="http://www.w3.org/2000/svg">
<path d="M11.4001 17.7C11.5501 17.925 11.7001 18 12.0001 18C12.1501 18 12.2251 18 12.3001 17.925C12.3751 17.85 12.5251 17.775 12.5251 17.7L17.4001 12.825C17.7001 12.525 17.7001 12.075 17.4001 11.775C17.1001 11.475 16.6501 11.475 16.3501 11.775L12.7501 15.45V2.69995C12.7501 2.24995 12.4501 1.94995 12.0001 1.94995C11.5501 1.94995 11.2501 2.24995 11.2501 2.69995V15.45L7.65006 11.85C7.35006 11.55 6.90006 11.55 6.60006 11.85C6.30006 12.15 6.30006 12.6 6.60006 12.9L11.4001 17.7Z" fill="#2D373D"/>
<path d="M19.2751 20.4749H4.7251C4.2751 20.4749 3.9751 20.7749 3.9751 21.2249C3.9751 21.6749 4.2751 21.9749 4.7251 21.9749H19.2751C19.7251 21.9749 20.0251 21.6749 20.0251 21.2249C20.0251 20.7749 19.7251 20.4749 19.2751 20.4749Z" fill="#2D373D"/>
</svg>
