<svg width="24" height="25" viewBox="0 0 24 25" fill="none" xmlns="http://www.w3.org/2000/svg">
<path fill-rule="evenodd" clip-rule="evenodd" d="M2.21918 4.20221C1.92629 3.90931 1.92629 3.43444 2.21918 3.14154C2.51208 2.84865 2.98695 2.84865 3.27984 3.14154L9.08541 8.94711L12.3501 3.29673C12.5199 3.00285 12.8659 2.85963 13.1937 2.94753C13.5215 3.03543 13.7495 3.33253 13.7495 3.67194V10.1719H17.6267C18.4135 10.1719 18.8921 11.0386 18.4731 11.7046L15.9121 15.7738L21.7798 21.6415C22.0727 21.9344 22.0727 22.4093 21.7798 22.7022C21.4869 22.9951 21.0121 22.9951 20.7192 22.7022L2.21918 4.20221ZM14.8244 14.6861L16.7213 11.6719H13.2495C12.6972 11.6719 12.2495 11.2242 12.2495 10.6719V6.46919L10.1834 10.0451L14.8244 14.6861Z" fill="#2D373D"/>
<path d="M8.64887 12.701C8.85609 12.3423 8.73333 11.8836 8.37468 11.6764C8.01603 11.4692 7.5573 11.5919 7.35007 11.9506L6.06678 14.1717C5.68159 14.8383 6.1627 15.6719 6.93265 15.6719H10.2495V22.1719C10.2495 22.5061 10.4705 22.7999 10.7916 22.8926C11.1126 22.9852 11.4563 22.8542 11.6342 22.5714L14.3089 18.3214C14.5295 17.9708 14.4242 17.5078 14.0736 17.2872C13.723 17.0666 13.26 17.1719 13.0394 17.5225L11.7495 19.5721V15.1719C11.7495 14.6197 11.3018 14.1719 10.7495 14.1719H7.79899L8.64887 12.701Z" fill="#2D373D"/>
</svg>
