<svg width="24" height="25" viewBox="0 0 24 25" fill="none" xmlns="http://www.w3.org/2000/svg">
<path d="M14.85 15.1742C14.4 15.1742 14.1 15.4742 14.1 15.9242V17.5742H4.5V6.99916C4.575 6.02416 5.325 5.34916 6.3 5.42416H10.2C10.65 5.42416 10.95 5.12416 10.95 4.67416C10.95 4.22416 10.65 3.92416 10.2 3.92416H6.3C4.575 3.84916 3.075 5.12416 3 6.92416V19.9742C3.075 21.6242 4.5 22.9742 6.15 22.9742C6.15 22.9742 6.225 22.9742 6.3 22.8992H12.3C14.025 22.9742 15.525 21.6992 15.6 19.8992V15.9242C15.6 15.4742 15.3 15.1742 14.85 15.1742ZM14.1 19.8992C14.025 20.7992 13.275 21.5492 12.3 21.4742H6.225C5.325 21.5492 4.575 20.8742 4.5 19.9742V19.0742H14.1V19.8992Z" fill="#2D373D"/>
<path d="M15.3749 10.5242C14.9249 10.5242 14.5499 10.8992 14.5499 11.3492C14.5499 11.7992 14.9249 12.1742 15.3749 12.1742C15.8249 12.1742 16.1999 11.7992 16.1999 11.3492C16.1999 10.8992 15.8249 10.5242 15.3749 10.5242Z" fill="#2D373D"/>
<path d="M15.375 9.9241C15.75 9.9241 16.125 9.6241 16.125 9.1741V6.6991C16.125 6.2491 15.825 5.9491 15.375 5.9491C14.925 5.9491 14.625 6.2491 14.625 6.6991V9.1741C14.625 9.6241 14.925 9.9241 15.375 9.9241Z" fill="#2D373D"/>
<path d="M20.7749 11.0492L17.3249 4.07418C17.0999 3.69918 16.7999 3.32418 16.3499 3.09918C15.7499 2.79918 15.1499 2.72418 14.6249 2.94918C14.0999 3.17418 13.5749 3.54918 13.3499 4.07418L9.82485 11.0492C9.67485 11.3492 9.59985 11.6492 9.59985 12.0242C9.59985 12.6242 9.82485 13.1492 10.2749 13.5992C10.7249 14.0492 11.2499 14.2742 11.8499 14.2742H18.8249C19.1999 14.2742 19.4999 14.1992 19.7999 14.0492C20.3249 13.8242 20.7749 13.2992 20.9249 12.7742C21.0749 12.1742 21.0749 11.5742 20.7749 11.0492ZM19.5749 12.2492C19.4999 12.4742 19.3499 12.6242 19.1999 12.6992C19.1249 12.7742 18.9749 12.7742 18.8999 12.7742H11.9249C11.6999 12.7742 11.5499 12.6992 11.3999 12.5492C11.2499 12.3992 11.1749 12.2492 11.1749 12.0242C11.1749 11.9492 11.1749 11.7992 11.2499 11.7242L14.7749 4.82418C14.8499 4.67418 14.9999 4.52418 15.1499 4.44918C15.2249 4.37418 15.2999 4.37418 15.3749 4.37418C15.4499 4.37418 15.5999 4.37418 15.7499 4.44918C15.8999 4.52418 15.9749 4.59918 16.0499 4.74918L19.4999 11.7242C19.6499 11.8742 19.6499 12.0992 19.5749 12.2492Z" fill="#2D373D"/>
</svg>
