<svg width="24" height="24" viewBox="0 0 24 24" fill="none" xmlns="http://www.w3.org/2000/svg">
<path d="M6.3752 12.075C6.8252 12.075 7.1252 11.775 7.1252 11.325V10.125C7.1252 9.67502 6.8252 9.37502 6.3752 9.37502C5.9252 9.37502 5.6252 9.67502 5.6252 10.125V11.325C5.6252 11.775 5.9252 12.075 6.3752 12.075Z" fill="#2D373D"/>
<path d="M10.1252 12.075C10.5752 12.075 10.8752 11.775 10.8752 11.325V10.125C10.8752 9.67502 10.5752 9.37502 10.1252 9.37502C9.6752 9.37502 9.3752 9.67502 9.3752 10.125V11.325C9.3752 11.775 9.6752 12.075 10.1252 12.075Z" fill="#2D373D"/>
<path d="M13.8002 12.075C14.2502 12.075 14.5502 11.775 14.5502 11.325V10.125C14.5502 9.67502 14.2502 9.37502 13.8002 9.37502C13.3502 9.37502 13.0502 9.67502 13.0502 10.125V11.325C13.0502 11.775 13.3502 12.075 13.8002 12.075Z" fill="#2D373D"/>
<path d="M17.5502 12.075C17.9252 12.075 18.3002 11.775 18.3002 11.325V10.125C18.3002 9.67502 18.0002 9.37502 17.5502 9.37502C17.1002 9.37502 16.8002 9.67502 16.8002 10.125V11.325C16.8002 11.775 17.1002 12.075 17.5502 12.075Z" fill="#2D373D"/>
<path d="M6.3752 15.825C6.8252 15.825 7.1252 15.525 7.1252 15.075V13.8C7.1252 13.35 6.8252 13.05 6.3752 13.05C5.9252 13.05 5.6252 13.35 5.6252 13.8V15.075C5.6252 15.525 5.9252 15.825 6.3752 15.825Z" fill="#2D373D"/>
<path d="M10.1252 15.825C10.5752 15.825 10.8752 15.525 10.8752 15.075V13.8C10.8752 13.35 10.5752 13.05 10.1252 13.05C9.6752 13.05 9.3752 13.35 9.3752 13.8V15.075C9.3752 15.525 9.6752 15.825 10.1252 15.825Z" fill="#2D373D"/>
<path d="M13.8002 15.825C14.2502 15.825 14.5502 15.525 14.5502 15.075V13.8C14.5502 13.35 14.2502 13.05 13.8002 13.05C13.3502 13.05 13.0502 13.35 13.0502 13.8V15.075C13.0502 15.525 13.3502 15.825 13.8002 15.825Z" fill="#2D373D"/>
<path d="M17.5502 15.825C17.9252 15.825 18.3002 15.525 18.3002 15.075V13.8C18.3002 13.35 18.0002 13.05 17.5502 13.05C17.1002 13.05 16.8002 13.35 16.8002 13.8V15.075C16.8002 15.525 17.1002 15.825 17.5502 15.825Z" fill="#2D373D"/>
<path d="M21.3002 6.90001H20.6252L19.8002 3.45001C19.5752 2.55001 18.7502 1.95001 17.8502 1.95001H6.15019C5.25019 1.95001 4.4252 2.55001 4.2002 3.45001L3.3752 6.90001H2.7002C2.2502 6.90001 1.9502 7.20001 1.9502 7.65001C1.9502 8.10001 2.2502 8.40001 2.7002 8.40001H3.1502V21.225C3.1502 21.675 3.4502 21.975 3.9002 21.975H20.0252C20.4752 21.975 20.7752 21.675 20.7002 21.225V8.40001H21.2252C21.6752 8.40001 22.0502 8.10001 22.0502 7.65001C22.0502 7.20001 21.7502 6.90001 21.3002 6.90001ZM5.7002 3.82501C5.7002 3.60001 5.92519 3.45001 6.15019 3.45001H17.8502C18.0752 3.45001 18.2252 3.60001 18.3002 3.82501L19.0502 6.90001H4.8752L5.7002 3.82501ZM10.8752 20.475V18.75C10.8752 18.45 11.0252 18.225 11.3252 18.225H12.6002C12.8252 18.225 13.0502 18.45 13.0502 18.75V20.475H10.8752ZM19.2002 20.475H14.5502V18.75C14.5502 17.625 13.6502 16.725 12.5252 16.725H11.3252C10.2752 16.725 9.37519 17.625 9.37519 18.75V20.475H4.6502V8.40001H19.2002V20.475Z" fill="#2D373D"/>
<path d="M6.3752 19.5C6.8252 19.5 7.1252 19.2 7.1252 18.75V17.475C7.1252 17.025 6.8252 16.725 6.3752 16.725C5.9252 16.725 5.6252 17.025 5.6252 17.475V18.75C5.6252 19.2 5.9252 19.5 6.3752 19.5Z" fill="#2D373D"/>
<path d="M17.5502 19.5C17.9252 19.5 18.3002 19.2 18.3002 18.75V17.475C18.3002 17.025 18.0002 16.725 17.5502 16.725C17.1002 16.725 16.8002 17.025 16.8002 17.475V18.75C16.8002 19.2 17.1002 19.5 17.5502 19.5Z" fill="#2D373D"/>
</svg>
