<svg width="24" height="25" viewBox="0 0 24 25" fill="none" xmlns="http://www.w3.org/2000/svg">
<path fill-rule="evenodd" clip-rule="evenodd" d="M4.92128 7.69883C4.92128 5.61288 6.61316 3.92188 8.7002 3.92188C10.7872 3.92188 12.4791 5.61288 12.4791 7.69883C12.4791 9.31527 11.4632 10.6945 10.0346 11.2336L10.0528 11.238C11.1752 11.512 12.1877 12.1204 12.9563 12.9827C13.232 13.2919 13.2046 13.766 12.8951 14.0416C12.5857 14.3171 12.1114 14.2897 11.8357 13.9805C11.2695 13.3452 10.5235 12.897 9.69666 12.6951C8.86979 12.4932 8.00107 12.5473 7.20562 12.85C6.41017 13.1528 5.72555 13.69 5.24251 14.3905C4.75946 15.091 4.50079 15.9216 4.50078 16.7724C4.50077 17.1866 4.16481 17.5224 3.75038 17.5224C3.33595 17.5224 2.99999 17.1866 3 16.7724C3.00002 15.6176 3.35113 14.4901 4.00681 13.5393C4.66248 12.5884 5.59177 11.8592 6.67149 11.4482C6.89898 11.3617 7.13088 11.2901 7.36573 11.2335C5.93723 10.6945 4.92128 9.31526 4.92128 7.69883ZM8.7002 5.42188C7.44202 5.42188 6.42206 6.4413 6.42206 7.69883C6.42206 8.95636 7.44202 9.97579 8.7002 9.97579C9.95838 9.97579 10.9783 8.95636 10.9783 7.69883C10.9783 6.4413 9.95838 5.42188 8.7002 5.42188Z" fill="#2D373D"/>
<path fill-rule="evenodd" clip-rule="evenodd" d="M15.5856 13.9241C15.4026 13.8487 15.1971 13.8487 15.0141 13.9241L10.0802 15.9551C10.015 15.9802 9.95427 16.0141 9.89935 16.0554C9.85461 16.089 9.81406 16.1273 9.77826 16.1694C9.66737 16.2997 9.60026 16.4684 9.59968 16.6527L9.59968 16.6551V19.4036C9.59968 19.8178 9.93564 20.1536 10.3501 20.1536C10.7645 20.1536 11.1005 19.8178 11.1005 19.4036V17.7282L11.7996 17.9839L11.7995 19.7407L11.7996 19.7432C11.8004 20.0012 11.8777 20.2532 12.0216 20.4674C12.1655 20.6817 12.3696 20.8486 12.6082 20.947L14.8158 21.8296L14.8216 21.8319C15.1291 21.9519 15.4705 21.9519 15.778 21.8319L17.9837 20.9501L17.9914 20.947C18.23 20.8485 18.4341 20.6817 18.5781 20.4674C18.722 20.2532 18.7992 20.0012 18.8001 19.7432V17.9839L20.5075 17.3594C20.7981 17.2531 20.9937 16.9793 20.9998 16.6701C21.006 16.3608 20.8216 16.0794 20.5354 15.9616L15.5856 13.9241ZM12.7207 16.7235C12.7806 16.7374 12.8378 16.7585 12.8912 16.7859L15.2998 17.6668L17.7083 16.7859C17.7618 16.7585 17.8191 16.7374 17.8791 16.7234L18.1789 16.6138L15.2998 15.4287L12.4208 16.6138L12.7207 16.7235ZM13.3003 19.6082V18.5328L15.042 19.1697C15.2085 19.2306 15.3912 19.2306 15.5577 19.1697L17.2993 18.5328V19.6082L15.2998 20.4075L13.3003 19.6082Z" fill="#2D373D"/>
</svg>
