<svg width="16" height="17" viewBox="0 0 16 17" fill="none" xmlns="http://www.w3.org/2000/svg">
<path d="M11.0502 2.41016H4.9502C3.3002 2.41016 1.9502 3.76016 1.9502 5.41016V11.5102C1.9502 13.1602 3.3002 14.5102 4.9502 14.5102H11.0502C12.7002 14.5102 14.0502 13.1602 14.0502 11.5102V5.41016C14.0502 3.76016 12.7002 2.41016 11.0502 2.41016ZM13.0502 11.5102C13.0502 12.6102 12.1502 13.5102 11.0502 13.5102H4.9502C3.8502 13.5102 2.9502 12.6102 2.9502 11.5102V5.41016C2.9502 4.31016 3.8502 3.41016 4.9502 3.41016H11.0502C12.1502 3.41016 13.0502 4.31016 13.0502 5.41016V11.5102Z" fill="#2D373D"/>
<path d="M8.00024 5.21021C6.20024 5.21021 4.75024 6.66021 4.75024 8.46021C4.75024 10.2602 6.20024 11.7102 8.00024 11.7102C9.80024 11.7102 11.2502 10.2602 11.2502 8.46021C11.2502 6.66021 9.80024 5.21021 8.00024 5.21021ZM8.00024 10.6602C6.75024 10.6602 5.75024 9.66021 5.75024 8.41021C5.75024 7.16021 6.75024 6.1602 8.00024 6.1602C9.25024 6.1602 10.2502 7.16021 10.2502 8.41021C10.2502 9.66021 9.25024 10.6602 8.00024 10.6602Z" fill="#2D373D"/>
<path d="M11.2502 5.91016C11.6645 5.91016 12.0002 5.57437 12.0002 5.16016C12.0002 4.74594 11.6645 4.41016 11.2502 4.41016C10.836 4.41016 10.5002 4.74594 10.5002 5.16016C10.5002 5.57437 10.836 5.91016 11.2502 5.91016Z" fill="#2D373D"/>
</svg>
