<svg width="32" height="33" viewBox="0 0 32 33" fill="none" xmlns="http://www.w3.org/2000/svg">
<path d="M24.0001 15.9623C26.5001 15.9623 28.5001 13.9623 28.5001 11.4623C28.5001 8.96234 26.5001 6.96234 24.0001 6.96234C21.5001 6.96234 19.5001 8.96234 19.5001 11.4623C19.5001 13.9623 21.5001 15.9623 24.0001 15.9623ZM24.0001 8.86234C25.4001 8.86234 26.5001 9.96234 26.5001 11.3623C26.5001 12.7623 25.4001 13.8623 24.0001 13.8623C22.6001 13.8623 21.5001 12.7623 21.5001 11.3623C21.5001 9.96234 22.6001 8.86234 24.0001 8.86234Z" fill="#2D373D"/>
<path d="M24.0001 16.1624C22.8001 16.1624 21.6001 16.5624 20.7001 17.2624C20.3001 17.5624 20.2001 18.2624 20.5001 18.6624C20.8001 19.0624 21.5001 19.1624 21.9001 18.8624C22.5001 18.3624 23.3001 18.1624 24.0001 18.1624C25.9001 18.1624 27.4001 19.6624 27.4001 21.5624C27.4001 22.1624 27.8001 22.5624 28.4001 22.5624C29.0001 22.5624 29.4001 22.1624 29.4001 21.5624C29.4001 18.5624 27.0001 16.1624 24.0001 16.1624Z" fill="#2D373D"/>
<path d="M8.00012 15.9623C10.5001 15.9623 12.6001 13.8623 12.6001 11.3623C12.6001 8.8623 10.5001 6.8623 8.00012 6.8623C5.50012 6.8623 3.50012 8.9623 3.50012 11.4623C3.50012 13.9623 5.50012 15.9623 8.00012 15.9623ZM8.00012 8.8623C9.40012 8.8623 10.6001 9.8623 10.6001 11.3623C10.6001 12.8623 9.40012 13.9623 8.00012 13.9623C6.60012 13.9623 5.50012 12.7623 5.50012 11.3623C5.50012 9.9623 6.60012 8.8623 8.00012 8.8623Z" fill="#2D373D"/>
<path d="M11.5001 18.6624C11.8001 18.2624 11.7001 17.5624 11.3001 17.2624C10.3001 16.5624 9.2001 16.1624 8.0001 16.1624C5.0001 16.1624 2.6001 18.5624 2.6001 21.5624C2.6001 22.1624 3.0001 22.5624 3.6001 22.5624C4.2001 22.5624 4.6001 22.1624 4.6001 21.5624C4.6001 19.6624 6.1001 18.1624 8.0001 18.1624C8.8001 18.1624 9.5001 18.4624 10.1001 18.8624C10.5001 19.1624 11.2001 19.0624 11.5001 18.6624Z" fill="#2D373D"/>
<path d="M16.0001 19.4623C18.0001 19.4623 19.7001 17.8623 19.7001 15.7623C19.7001 13.6623 18.0001 12.0623 16.0001 12.0623C13.9001 12.0623 12.3001 13.6623 12.3001 15.7623C12.3001 17.8623 14.0001 19.4623 16.0001 19.4623ZM16.0001 14.1623C16.9001 14.1623 17.7001 14.9623 17.7001 15.8623C17.7001 16.8623 17.0001 17.5623 16.0001 17.5623C15.0001 17.5623 14.3001 16.7623 14.3001 15.8623C14.3001 14.8623 15.1001 14.1623 16.0001 14.1623Z" fill="#2D373D"/>
<path d="M19.1001 20.5623C17.9001 19.7623 16.4001 19.4623 15.0001 19.7623C14.8001 19.7623 14.7001 19.8623 14.5001 19.9623C12.6001 20.5623 11.1001 22.0623 10.8001 24.0623C10.7001 24.6623 11.1001 25.1623 11.6001 25.2623C11.7001 25.2623 11.7001 25.2623 11.8001 25.2623C12.3001 25.2623 12.7001 24.8623 12.8001 24.5623C13.0001 23.1623 14.1001 22.1623 15.4001 21.8623C15.5001 21.8623 15.7001 21.7623 15.8001 21.7623C17.5001 21.5623 19.1001 22.6623 19.5001 24.3623C19.6001 24.8623 20.0001 25.1623 20.5001 25.1623C20.5001 25.1623 20.6001 25.1623 20.7001 25.1623C21.3001 25.0623 21.6001 24.4623 21.5001 23.9623C21.2001 22.5623 20.3001 21.3623 19.1001 20.5623Z" fill="#2D373D"/>
</svg>
