<svg width="24" height="24" viewBox="0 0 24 24" fill="none" xmlns="http://www.w3.org/2000/svg">
<path d="M20.3248 4.42495H18.8248C18.5248 3.67495 17.7748 3.14995 16.9498 3.14995H14.4748C13.8748 2.39995 12.9748 1.94995 11.9998 1.94995C11.0248 1.94995 10.0498 2.39995 9.5248 3.14995H7.0498C6.2248 3.14995 5.4748 3.67495 5.1748 4.42495H3.6748C3.2248 4.42495 2.9248 4.72495 2.9248 5.17495C2.9248 5.62495 3.2248 5.92495 3.6748 5.92495H5.1748C5.4748 6.67495 6.2248 7.19995 7.0498 7.19995H9.5248C9.5998 7.27495 9.59981 7.34995 9.67481 7.42495C7.72481 8.32495 6.2998 10.2749 6.2998 12.5999V16.3499C6.2998 18.1499 7.7248 19.5749 9.5248 19.5749H9.9748V20.025C9.9748 20.5499 10.1998 21.0749 10.5748 21.4499C10.9498 21.8249 11.4748 22.0499 11.9998 22.0499C13.0498 22.0499 13.9498 21.1499 14.0248 19.9499V19.5749H14.4748C16.1998 19.5749 17.6998 18.1499 17.6998 16.3499V12.5999C17.6998 10.2749 16.2748 8.24995 14.3248 7.42495C14.3998 7.34995 14.3998 7.27495 14.4748 7.19995H16.9498C17.7748 7.19995 18.5248 6.67495 18.8248 5.92495H20.3248C20.6998 5.92495 21.0748 5.62495 21.0748 5.17495C21.0748 4.72495 20.7748 4.42495 20.3248 4.42495ZM8.84981 5.69995H7.0498C6.7498 5.69995 6.5248 5.47495 6.5248 5.17495C6.5248 4.87495 6.7498 4.64995 7.0498 4.64995H8.84981C8.84981 4.79995 8.7748 5.02495 8.7748 5.17495C8.7748 5.32495 8.84981 5.54995 8.84981 5.69995ZM11.9998 3.44995C12.8998 3.44995 13.7248 4.19995 13.7248 5.17495C13.7248 6.14995 12.9748 6.89995 11.9998 6.89995C11.0248 6.89995 10.2748 6.14995 10.2748 5.17495C10.2748 4.19995 11.0248 3.44995 11.9998 3.44995ZM12.4498 8.39995V10.65H11.4748V8.39995C11.6248 8.39995 11.8498 8.39995 11.9998 8.39995C12.1498 8.39995 12.2998 8.39995 12.4498 8.39995ZM12.5248 18.4499C12.5248 18.5249 12.5248 18.6749 12.5248 18.7499C12.5248 18.8999 12.5248 18.9749 12.5248 19.1249V20.025C12.5248 20.325 12.2998 20.5499 11.9998 20.5499C11.8498 20.5499 11.6998 20.5499 11.6248 20.3999C11.5498 20.25 11.4748 20.175 11.4748 20.025V19.1249C11.4748 18.9749 11.4748 18.8999 11.4748 18.8249C11.4748 18.7499 11.4748 18.5999 11.4748 18.4499V15.15C11.4748 14.85 11.6998 14.6249 11.9998 14.6249C12.2248 14.6249 12.4498 14.85 12.5248 15.15V18.4499ZM16.1998 12.5999V16.3499C16.1998 17.3249 15.4498 18.0749 14.4748 18.0749H14.0248V14.9999C14.0248 13.9499 13.1248 13.0499 11.9998 13.0499C10.8748 13.0499 9.9748 13.95 9.9748 15.075V18.0749H9.5248C8.5498 18.0749 7.7998 17.3249 7.7998 16.3499V12.5999C7.7998 11.0249 8.6998 9.59995 9.9748 8.92495V10.7999C9.9748 11.5499 10.5748 12.15 11.3248 12.15H12.5998C13.3498 12.15 13.9498 11.55 13.9498 10.725V8.84995C15.2998 9.59995 16.1998 10.9499 16.1998 12.5999ZM16.9498 5.69995H15.1498C15.1498 5.54995 15.2248 5.32495 15.2248 5.17495C15.2248 5.02495 15.2248 4.79995 15.1498 4.64995H16.9498C17.2498 4.64995 17.4748 4.87495 17.4748 5.17495C17.4748 5.47495 17.2498 5.69995 16.9498 5.69995Z" fill="#2D373D"/>
</svg>
