<svg width="24" height="25" viewBox="0 0 24 25" fill="none" xmlns="http://www.w3.org/2000/svg">
<path d="M15.6751 12.173H12.7501V9.17297C12.7501 8.72297 12.4501 8.42297 12.0001 8.42297C11.5501 8.42297 11.2501 8.72297 11.2501 9.17297V12.173H8.25012C7.80012 12.173 7.50012 12.473 7.50012 12.923C7.50012 13.373 7.80012 13.673 8.25012 13.673H11.2501V16.673C11.2501 17.123 11.5501 17.423 12.0001 17.423C12.4501 17.423 12.7501 17.048 12.7501 16.598V13.673H15.7501C16.1251 13.673 16.4251 13.373 16.4251 12.923C16.4251 12.473 16.1251 12.173 15.6751 12.173Z" fill="#2D373D"/>
<path d="M12.0002 2.87305C6.45019 2.87305 1.9502 7.37305 1.9502 12.848C1.9502 12.923 1.9502 12.923 1.9502 12.923C1.9502 15.623 3.0002 18.098 4.8752 20.048C6.82519 21.923 9.30019 22.973 12.0002 22.973C17.5502 22.973 22.0502 18.473 22.0502 12.923C22.0502 7.37305 17.5502 2.87305 12.0002 2.87305ZM12.0002 21.473C9.67519 21.473 7.57519 20.648 5.9252 18.998C4.3502 17.423 3.4502 15.248 3.4502 12.998C3.4502 8.19805 7.27519 4.37305 12.0002 4.37305C16.7252 4.37305 20.5502 8.19805 20.5502 12.923C20.5502 17.648 16.7252 21.473 12.0002 21.473Z" fill="#2D373D"/>
</svg>
