<svg width="16" height="17" viewBox="0 0 16 17" fill="none" xmlns="http://www.w3.org/2000/svg">
<path fill-rule="evenodd" clip-rule="evenodd" d="M13.5 2.92188H12.0333C11.9013 2.9236 11.7751 2.97683 11.6817 3.07023C11.5883 3.16363 11.5351 3.2898 11.5333 3.42188V3.65521H11.3C10.2164 3.66212 9.16509 4.02464 8.30755 4.68707C7.45001 5.34949 6.8337 6.27518 6.55333 7.32188H6.16667C6.0346 7.3236 5.90842 7.37683 5.81502 7.47023C5.72163 7.56363 5.66839 7.6898 5.66667 7.82188V10.0219C5.66659 10.1135 5.69134 10.2034 5.7383 10.282C5.78526 10.3607 5.85266 10.4252 5.93333 10.4685C5.85569 10.5448 5.77331 10.616 5.68667 10.6819C5.39679 10.8824 5.05248 10.9894 4.7 10.9885H4.46667V10.7552C4.46667 10.6226 4.41399 10.4954 4.32022 10.4017C4.22645 10.3079 4.09927 10.2552 3.96667 10.2552H2.5C2.36793 10.2569 2.24175 10.3102 2.14836 10.4036C2.05496 10.497 2.00173 10.6231 2 10.7552V14.4219C2 14.5545 2.05268 14.6817 2.14645 14.7754C2.24021 14.8692 2.36739 14.9219 2.5 14.9219H3.96667C4.03258 14.9228 4.098 14.9105 4.15906 14.8856C4.22013 14.8608 4.27561 14.824 4.32222 14.7774C4.36883 14.7308 4.40562 14.6753 4.43043 14.6143C4.45524 14.5532 4.46756 14.4878 4.46667 14.4219V14.1885H4.70667C5.78996 14.1835 6.8414 13.8216 7.69826 13.1588C8.55512 12.4959 9.16962 11.5692 9.44667 10.5219H9.83333C9.89924 10.5228 9.96466 10.5105 10.0257 10.4856C10.0868 10.4608 10.1423 10.424 10.1889 10.3774C10.2355 10.3308 10.2723 10.2753 10.2971 10.2143C10.3219 10.1532 10.3342 10.0878 10.3333 10.0219V7.82188C10.3322 7.73221 10.3076 7.64441 10.262 7.56722C10.2164 7.49002 10.1513 7.42612 10.0733 7.38188C10.1477 7.3022 10.2304 7.23068 10.32 7.16854C10.6069 6.96616 10.9489 6.85679 11.3 6.85521H11.5333V7.08854C11.5333 7.22115 11.586 7.34833 11.6798 7.4421C11.7735 7.53586 11.9007 7.58854 12.0333 7.58854H13.5C13.5659 7.58944 13.6313 7.57712 13.6924 7.55231C13.7535 7.5275 13.8089 7.4907 13.8556 7.44409C13.9022 7.39748 13.939 7.34201 13.9638 7.28094C13.9886 7.21987 14.0009 7.15445 14 7.08854V3.42188C14 3.28927 13.9473 3.16209 13.8536 3.06832C13.7598 2.97455 13.6326 2.92188 13.5 2.92188ZM3.5 13.9219H3V11.2552H3.46667L3.5 13.9219ZM7.25333 12.2685C6.54826 12.863 5.65559 13.1889 4.73333 13.1885H4.46667V11.9885H4.7C5.26242 11.9948 5.81186 11.8195 6.26667 11.4885C6.62339 11.2373 6.91391 10.9033 7.11333 10.5152H8.4C8.17277 11.1958 7.76491 11.8018 7.22 12.2685H7.25333ZM9.36667 9.52187H6.7V8.32188H9.36667V9.52187ZM11.5667 5.85521H11.3333C10.7738 5.85407 10.228 6.02899 9.77333 6.35521C9.41897 6.60442 9.13066 6.9362 8.93333 7.32188H7.6C7.8285 6.64402 8.23902 6.04207 8.78667 5.58187C9.49079 4.98942 10.3798 4.66164 11.3 4.65521H11.5333L11.5667 5.85521ZM13.0333 6.58854H12.5667V6.36188V4.15521V3.92188H13.0333V6.58854Z" fill="#2D373D"/>
</svg>
