<svg width="24" height="25" viewBox="0 0 24 25" fill="none" xmlns="http://www.w3.org/2000/svg">
<path d="M20.025 13.073L16.2 9.24805C16.125 9.17305 16.125 9.17305 16.05 9.09805C15.3 8.42305 14.325 8.04805 13.35 8.04805L11.925 6.62305L12.3 6.24805C12.6 5.94805 12.6 5.49805 12.3 5.19805L10.2 3.09805C9.9 2.79805 9.45 2.79805 9.15 3.09805L4.875 7.37305C4.575 7.67305 4.575 8.12305 4.875 8.42305L7.05 10.523C7.2 10.673 7.35 10.748 7.575 10.748C7.725 10.748 7.95 10.673 8.1 10.523L8.325 10.298L9.675 11.723C9.675 11.798 9.675 11.948 9.675 12.023C9.675 12.398 9.75 12.698 9.9 12.998L3.675 19.223C3.225 19.523 3 20.123 3 20.723C3 21.323 3.225 21.923 3.675 22.298C4.05 22.748 4.65 22.973 5.25 22.973C5.85 22.973 6.375 22.748 6.825 22.298L12.75 16.373L12.975 16.673C13.275 16.898 13.725 16.898 14.025 16.673C14.925 15.923 16.35 15.923 17.25 16.673L18.975 18.398C19.125 18.548 19.275 18.623 19.5 18.623C19.65 18.623 19.875 18.548 20.025 18.398C21.525 16.898 21.525 14.573 20.025 13.073ZM7.5 8.94805L6.45 7.89805L9.675 4.67305L10.725 5.72305L7.5 8.94805ZM9.375 9.17305L10.875 7.67305L11.7 8.49805C11.325 8.64805 11.025 8.94805 10.725 9.24805C10.5 9.47305 10.35 9.69805 10.2 9.99805L9.375 9.17305ZM5.775 21.248C5.475 21.548 5.025 21.548 4.725 21.248C4.575 21.098 4.5 20.948 4.5 20.723C4.5 20.498 4.575 20.348 4.725 20.198L10.65 14.273C10.725 14.348 10.8 14.498 10.875 14.573L11.625 15.323L5.775 21.248ZM19.35 16.748L18.225 15.623C17.475 14.948 16.575 14.648 15.6 14.648C14.925 14.648 14.175 14.798 13.5 15.173L11.85 13.523C11.7 13.373 11.55 13.148 11.4 12.923C11.4 12.848 11.325 12.848 11.325 12.773C11.175 12.473 11.175 12.248 11.175 11.948C11.175 11.798 11.175 11.723 11.175 11.573C11.175 11.498 11.25 11.423 11.25 11.273C11.325 10.898 11.475 10.523 11.775 10.223C12.675 9.32305 14.1 9.32305 15 10.148C15 10.148 15.075 10.148 15.075 10.298L18.9 14.123C19.35 14.498 19.575 15.098 19.575 15.698C19.575 16.148 19.5 16.448 19.35 16.748Z" fill="#2D373D"/>
</svg>
