<svg width="64" height="65" viewBox="0 0 64 65" fill="none" xmlns="http://www.w3.org/2000/svg">
<path d="M55.2 24.6617C54.6 24.0617 53.8 23.4617 52.8 23.4617L41.2 22.2617L35.2 10.2617C34.8 9.46172 34.2 9.06172 33.6 8.66172C33.2 8.46172 32.6 8.26172 32 8.26172C31.6 8.26172 31.4 8.26172 31 8.46172H30.8C29.8 8.66172 29 9.46172 28.6 10.2617L22.6 22.2617L11 23.2617C10.2 23.2617 9.39999 23.6617 8.79999 24.2617C7.99999 25.0617 7.59999 26.2617 7.79999 27.4617C7.79999 28.2617 8.19999 28.8617 8.79999 29.2617L18.4 38.8617L14.8 51.8617C14.6 52.8617 14.6 53.6617 15 54.4617C15.6 55.6617 16.6 56.2617 17.8 56.4617C18 56.4617 18.2 56.4617 18.4 56.4617C19 56.4617 19.6 56.4617 20 56.2617L32.2 50.2617L43.8 56.0617C44.2 56.2617 44.8 56.4617 45.4 56.4617C45.8 56.4617 46.2 56.4617 46.4 56.4617C47.4 56.2617 48.2 55.6617 48.6 54.8617C49.2 54.0617 49.2 53.0617 49 52.0617L45.4 39.0617L55 29.4617C55.6 28.8617 56 28.0617 56 27.2617C56.2 26.2617 55.8 25.4617 55.2 24.6617ZM41.8 37.0617C41.2 37.6617 41 38.4617 41.2 39.0617L44.8 52.2617L34 46.8617V16.8617L38.2 25.2617C38.6 25.8617 39.2 26.2617 39.8 26.2617L51.6 27.2617L41.8 37.0617Z" fill="#2D373D"/>
</svg>
