<svg width="32" height="33" viewBox="0 0 32 33" fill="none" xmlns="http://www.w3.org/2000/svg">
<path fill-rule="evenodd" clip-rule="evenodd" d="M9.32666 6.20528C9.32666 5.48826 9.80672 5.00587 10.1887 4.73496C10.5966 4.44562 11.122 4.22598 11.6813 4.0582C12.8125 3.71884 14.3154 3.52344 15.9327 3.52344C17.5501 3.52344 19.0529 3.71884 20.1842 4.0582C20.7434 4.22598 21.2688 4.44562 21.6768 4.73496C22.0587 5.00587 22.5388 5.48823 22.5388 6.20526V14.0538C22.5388 14.7708 22.0587 15.2532 21.6768 15.5241C21.2688 15.8134 20.7434 16.033 20.1842 16.2008C19.0529 16.5402 17.5501 16.7356 15.9327 16.7356C14.3154 16.7356 12.8125 16.5402 11.6813 16.2008C11.122 16.033 10.5966 15.8134 10.1887 15.5241C9.80672 15.2532 9.32666 14.7708 9.32666 14.0538V6.20528ZM11.2581 5.97076C11.2577 5.97079 11.2601 5.97394 11.2663 5.98013C11.2616 5.97382 11.2585 5.97073 11.2581 5.97076ZM11.6321 6.20526C11.7917 6.28003 11.9983 6.35934 12.256 6.43665C13.1538 6.70598 14.4539 6.88707 15.9327 6.88707C17.4115 6.88707 18.7117 6.70598 19.6095 6.43665C19.8672 6.35934 20.0737 6.28003 20.2334 6.20526C20.0737 6.13048 19.8672 6.05118 19.6095 5.97386C18.7117 5.70453 17.4115 5.52344 15.9327 5.52344C14.4539 5.52344 13.1538 5.70453 12.256 5.97386C11.9983 6.05118 11.7917 6.13048 11.6321 6.20526ZM20.6073 5.97076C20.6069 5.97073 20.6039 5.97382 20.5992 5.98013C20.6054 5.97394 20.6077 5.97079 20.6073 5.97076ZM11.6813 8.35231C12.8125 8.69168 14.3154 8.88707 15.9327 8.88707C17.5501 8.88707 19.0529 8.69168 20.1842 8.35231C20.3042 8.31629 20.4227 8.27789 20.5388 8.23692V9.9546C20.5329 9.95897 20.5265 9.96359 20.5197 9.96843C20.3603 10.0815 20.0647 10.2243 19.6095 10.3608C18.7117 10.6302 17.4115 10.8113 15.9327 10.8113C14.4539 10.8113 13.1538 10.6302 12.256 10.3608C11.8007 10.2243 11.5052 10.0815 11.3457 9.96843C11.3389 9.96359 11.3326 9.95897 11.3267 9.9546V8.23692C11.4428 8.27789 11.5612 8.31629 11.6813 8.35231ZM20.5388 12.1611V13.8789L20.5197 13.8927C20.3603 14.0058 20.0647 14.1486 19.6095 14.2852C18.7117 14.5545 17.4115 14.7356 15.9327 14.7356C14.4539 14.7356 13.1538 14.5545 12.256 14.2852C11.8007 14.1486 11.5052 14.0058 11.3457 13.8927L11.3267 13.8789V12.1611C11.4428 12.2021 11.5612 12.2405 11.6813 12.2765C12.8125 12.6159 14.3154 12.8113 15.9327 12.8113C17.5501 12.8113 19.0529 12.6159 20.1842 12.2765C20.3042 12.2405 20.4227 12.2021 20.5388 12.1611ZM11.2581 13.8193C11.2577 13.8193 11.2601 13.8225 11.2662 13.8286C11.2616 13.8223 11.2585 13.8192 11.2581 13.8193ZM20.6073 13.8193C20.6069 13.8192 20.6039 13.8223 20.5992 13.8286C20.6054 13.8225 20.6077 13.8193 20.6073 13.8193Z" fill="#2D373D"/>
<path d="M5.72249 13.4931C5.72249 13.3728 5.7668 13.1701 5.87039 13.0263C5.91493 12.9644 5.96677 12.9178 6.03238 12.8839C6.09719 12.8505 6.21071 12.8113 6.40431 12.8113C6.9566 12.8113 7.40431 12.3636 7.40431 11.8113C7.40431 11.259 6.9566 10.8113 6.40431 10.8113C5.40566 10.8113 4.68499 11.2498 4.24732 11.8576C3.84637 12.4145 3.72249 13.0528 3.72249 13.4931V15.7355C3.72249 16.2878 4.17021 16.7355 4.72249 16.7355C5.27478 16.7355 5.72249 16.2878 5.72249 15.7355V13.4931Z" fill="#2D373D"/>
<path fill-rule="evenodd" clip-rule="evenodd" d="M2.6001 20.2507C2.6001 19.0625 3.56336 18.0992 4.75161 18.0992H12.5395C13.7277 18.0992 14.691 19.0625 14.691 20.2507V24.675C14.691 25.8632 13.7277 26.8265 12.5395 26.8265H9.64555V28.1901H11.4486C12.0009 28.1901 12.4486 28.6378 12.4486 29.1901C12.4486 29.7424 12.0009 30.1901 11.4486 30.1901H5.84252C5.29024 30.1901 4.84252 29.7424 4.84252 29.1901C4.84252 28.6378 5.29024 28.1901 5.84252 28.1901H7.64555V26.8265H4.75161C3.56337 26.8265 2.6001 25.8632 2.6001 24.675V20.2507ZM4.75161 20.0992C4.66793 20.0992 4.6001 20.167 4.6001 20.2507V24.675C4.6001 24.7586 4.66793 24.8265 4.75161 24.8265H12.5395C12.6232 24.8265 12.691 24.7586 12.691 24.675V20.2507C12.691 20.167 12.6232 20.0992 12.5395 20.0992H4.75161Z" fill="#2D373D"/>
<path fill-rule="evenodd" clip-rule="evenodd" d="M29.2668 20.2507C29.2668 19.0625 28.3035 18.0992 27.1153 18.0992H19.3274C18.1391 18.0992 17.1759 19.0625 17.1759 20.2507V24.675C17.1759 25.8632 18.1391 26.8265 19.3274 26.8265H22.2213V28.1901H20.4183C19.866 28.1901 19.4183 28.6378 19.4183 29.1901C19.4183 29.7424 19.866 30.1901 20.4183 30.1901H26.0243C26.5766 30.1901 27.0243 29.7424 27.0243 29.1901C27.0243 28.6378 26.5766 28.1901 26.0243 28.1901H24.2213V26.8265H27.1152C28.3035 26.8265 29.2668 25.8632 29.2668 24.675V20.2507ZM27.1153 20.0992C27.1989 20.0992 27.2668 20.167 27.2668 20.2507V24.675C27.2668 24.7586 27.1989 24.8265 27.1152 24.8265H19.3274C19.2437 24.8265 19.1759 24.7586 19.1759 24.675V20.2507C19.1759 20.167 19.2437 20.0992 19.3274 20.0992H27.1153Z" fill="#2D373D"/>
<path d="M25.9965 13.0263C26.1001 13.1701 26.1444 13.3728 26.1444 13.4931V15.7355C26.1444 16.2878 26.5921 16.7355 27.1444 16.7355C27.6967 16.7355 28.1444 16.2878 28.1444 15.7355V13.4931C28.1444 13.0528 28.0205 12.4145 27.6195 11.8576C27.1819 11.2498 26.4612 10.8113 25.4626 10.8113C24.9103 10.8113 24.4626 11.259 24.4626 11.8113C24.4626 12.3636 24.9103 12.8113 25.4626 12.8113C25.6562 12.8113 25.7697 12.8505 25.8345 12.8839C25.9001 12.9178 25.9519 12.9644 25.9965 13.0263Z" fill="#2D373D"/>
</svg>
