<svg width="16" height="17" viewBox="0 0 16 17" fill="none" xmlns="http://www.w3.org/2000/svg">
<path fill-rule="evenodd" clip-rule="evenodd" d="M8.53013 2.46094H3.24578C2.91538 2.46094 2.59851 2.59219 2.36488 2.82582C2.13125 3.05945 2 3.37631 2 3.70672V13.4018C2 13.7322 2.13125 14.0491 2.36488 14.2827C2.59851 14.5164 2.91538 14.6476 3.24578 14.6476H4.73733C5.01348 14.6476 5.23733 14.4237 5.23733 14.1476C5.23733 13.8715 5.01348 13.6476 4.73733 13.6476H3.24578C3.18059 13.6476 3.11808 13.6217 3.07199 13.5756C3.02589 13.5295 3 13.467 3 13.4018V3.70672C3 3.64153 3.02589 3.57902 3.07199 3.53292C3.11808 3.48683 3.18059 3.46094 3.24578 3.46094H7.96623V5.94405C7.96623 6.27445 8.09748 6.59132 8.33111 6.82495C8.56474 7.05857 8.8816 7.18983 9.212 7.18983H11.6951V8.92716C11.6951 9.2033 11.919 9.42716 12.1951 9.42716C12.4713 9.42716 12.6951 9.2033 12.6951 8.92716V6.69203L12.6951 6.68983L12.6951 6.68762V6.62558C12.695 6.29541 12.5638 5.97869 12.3304 5.74515L9.41131 2.82554C9.29557 2.70987 9.15818 2.61814 9.00699 2.55558C8.85587 2.49305 8.69368 2.46089 8.53013 2.46094ZM8.96623 3.79471L11.3609 6.18983H9.212C9.14682 6.18983 9.08431 6.16393 9.03821 6.11784C8.99212 6.07175 8.96623 6.00923 8.96623 5.94405V3.79471Z" fill="#2D373D"/>
<path d="M9.77299 10.2831C9.68398 10.0606 9.44956 9.93254 9.2142 9.97786C8.97884 10.0232 8.80876 10.2292 8.80876 10.4688V13.9647C8.80876 14.2408 9.03261 14.4647 9.30876 14.4647C9.5849 14.4647 9.80876 14.2408 9.80876 13.9647V13.0651L10.2429 14.1504C10.3319 14.3729 10.5663 14.501 10.8016 14.4557C11.037 14.4103 11.2071 14.2044 11.2071 13.9647V10.4688C11.2071 10.1927 10.9832 9.96884 10.7071 9.96884C10.4309 9.96884 10.2071 10.1927 10.2071 10.4688V11.3684L9.77299 10.2831Z" fill="#2D373D"/>
<path fill-rule="evenodd" clip-rule="evenodd" d="M7.9568 12.6127C7.70202 12.8675 7.36762 13.0243 7.01208 13.059V13.9647C7.01208 14.2408 6.78823 14.4647 6.51208 14.4647C6.23594 14.4647 6.01208 14.2408 6.01208 13.9647V10.4688C6.01208 10.1927 6.23594 9.96882 6.51208 9.96882H6.86167C7.27242 9.96882 7.66635 10.132 7.9568 10.4224C8.24725 10.7129 8.41042 11.1068 8.41042 11.5176C8.41042 11.9283 8.24725 12.3223 7.9568 12.6127ZM7.01208 10.9898V12.0453C7.1011 12.0199 7.18308 11.9722 7.24969 11.9056C7.3526 11.8027 7.41042 11.6631 7.41042 11.5176C7.41042 11.372 7.3526 11.2325 7.24969 11.1295C7.18308 11.0629 7.1011 11.0152 7.01208 10.9898Z" fill="#2D373D"/>
<path d="M12.8046 10.9689C12.7518 10.9689 12.7011 10.9899 12.6638 11.0272C12.6264 11.0646 12.6054 11.1152 12.6054 11.168V13.2655C12.6054 13.3184 12.6264 13.369 12.6638 13.4064C12.7011 13.4437 12.7518 13.4647 12.8046 13.4647C12.8574 13.4647 12.9081 13.4437 12.9454 13.4064C12.9828 13.369 13.0038 13.3184 13.0038 13.2655V13.0434C12.8011 12.9795 12.6542 12.7901 12.6542 12.5664C12.6542 12.2902 12.878 12.0664 13.1542 12.0664H13.5038C13.7799 12.0664 14.0038 12.2902 14.0038 12.5664V13.2655C14.0038 13.5836 13.8774 13.8886 13.6525 14.1135C13.4276 14.3384 13.1226 14.4647 12.8046 14.4647C12.4866 14.4647 12.1815 14.3384 11.9567 14.1135C11.7318 13.8886 11.6054 13.5836 11.6054 13.2655V11.168C11.6054 10.85 11.7318 10.545 11.9567 10.3201C12.1815 10.0952 12.4866 9.96887 12.8046 9.96887H13.5038C13.7799 9.96887 14.0038 10.1927 14.0038 10.4689C14.0038 10.745 13.7799 10.9689 13.5038 10.9689H12.8046Z" fill="#2D373D"/>
</svg>
