<svg width="32" height="33" viewBox="0 0 32 33" fill="none" xmlns="http://www.w3.org/2000/svg">
<path d="M25.0999 12.9615H22.7999V9.76152C22.6999 6.06152 19.6999 3.06152 15.9999 3.06152H15.8999C14.0999 3.06152 12.3999 3.76152 11.0999 5.06152C9.8999 6.36152 9.1999 8.06152 9.1999 9.86152V12.9615H6.8999C6.2999 12.9615 5.8999 13.3615 5.8999 13.9615V28.8615C5.8999 29.4615 6.2999 29.8615 6.8999 29.8615H25.0999C25.5999 29.8615 26.0999 29.3615 26.0999 28.8615V13.9615C26.0999 13.3615 25.6999 12.9615 25.0999 12.9615ZM11.1999 9.86152C11.1999 8.56152 11.6999 7.26152 12.5999 6.36152C13.4999 5.46152 14.6999 4.96152 15.9999 4.96152C18.5999 4.86152 20.7999 7.06152 20.7999 9.66152V12.9615H11.1999V9.86152ZM24.0999 27.8615H7.8999V14.9615H24.0999V27.8615Z" fill="#2D373D"/>
<path d="M16 17.8616C14.1 17.8616 12.5 19.4616 12.5 21.3616C12.5 23.2616 14.1 24.8616 16 24.8616C17.9 24.8616 19.5 23.3616 19.5 21.3616C19.5 19.4616 17.9 17.8616 16 17.8616ZM16 22.9616C15.2 22.9616 14.5 22.2616 14.5 21.4616C14.5 20.6616 15.2 19.9616 16 19.9616C16.8 19.9616 17.5 20.6616 17.5 21.4616C17.5 22.2616 16.8 22.9616 16 22.9616Z" fill="#2D373D"/>
</svg>
