<svg width="64" height="64" viewBox="0 0 64 64" fill="none" xmlns="http://www.w3.org/2000/svg">
<path d="M36.2 26.7999C37.2 26.3999 37.8 25.1999 37.4 24.1999C37.2 23.3999 37 22.7999 37 21.9999C37.2 20.9999 37.4 19.9999 38 19.5999C38.4 20.1999 39 20.7999 39.8 21.1999C40.8 21.5999 42.4 22.1999 44.4 21.3999C46.4 20.5999 47.8 19.1999 48.2 17.3999C48.4 16.9999 48.4 16.3999 48.4 15.9999C49.8 17.9999 50.8 20.1999 50.8 21.9999C50.8 23.7999 50 25.7999 48.6 26.9999C47.8 27.7999 47.6 28.9999 48.4 29.7999C48.8 30.1999 49.2 30.3999 49.8 30.3999C50.2 30.3999 50.8 30.1999 51.2 29.9999C53.4 27.9999 54.8 24.9999 54.8 21.9999C54.8 16.9999 50.2 9.79989 44.4 8.19989C43.6 7.79989 42.6 8.19989 42.2 8.99989C41.6 9.79989 41.8 10.7999 42.4 11.3999C43.6 12.5999 44.6 14.7999 44.2 16.1999C44 16.5999 43.8 16.9999 43 17.3999C42.2 17.5999 41.8 17.5999 41.6 17.3999C40.8 16.9999 40.4 15.5999 40.2 15.1999C40 14.5999 39.6 13.9999 39 13.9999C38.2 13.7999 37.6 13.9999 37 14.3999C34.8 16.3999 33.4 18.9999 33 21.7999V21.9999C33 23.1999 33.2 24.3999 33.6 25.5999C34 26.5999 35.2 27.1999 36.2 26.7999Z" fill="#2D373D"/>
<path d="M49.4 37.5998L46.4 31.3999C45.6 29.5999 43.8 28.5999 42 28.5999H26.6C24.8 28.5999 23 29.7999 22.2 31.3999L19.2 37.3999H16C13.8 37.3999 11.8 38.3999 10.4 39.7999C8.8 41.3998 8 43.1999 8 45.3999V48.3999C8 51.1999 10.2 53.3999 13 53.3999H17.4C18.2 54.9999 19.8 56.1999 21.8 56.1999C23.8 56.1999 25.6 54.9999 26.4 53.1999H40.8C41.6 54.9999 43.4 56.1999 45.4 56.1999C47.4 56.1999 49 54.9999 49.8 53.1999H51.2C54 53.1999 56.2 50.9999 56 48.3999V45.3999C56 41.3999 53.2 38.1999 49.4 37.5998ZM26.6 32.3999H42.2C42.6 32.3999 42.8 32.5999 43 32.9999L45.2 37.5998H23.4L25.8 32.9999C26 32.5999 26.2 32.3999 26.6 32.3999ZM21.8 52.1999C21.2 52.1999 20.8 51.7999 20.8 51.1999C20.8 50.5999 21.2 50.1999 21.8 50.1999C22.4 50.1999 22.8 50.5999 22.8 51.1999C22.8 51.7999 22.4 52.1999 21.8 52.1999ZM45.4 52.1999C44.8 52.1999 44.4 51.7999 44.4 51.1999C44.4 50.5999 44.8 50.1999 45.4 50.1999C45.6 50.1999 46 50.3998 46.2 50.7999C46.2 50.9999 46.2 50.9999 46.2 51.1999C46.2 51.3999 46.2 51.5998 46.2 51.5998C46 51.9998 45.8 52.1999 45.4 52.1999ZM52.2 48.1999C52.2 48.7999 51.8 49.1999 51.2 49.1999H50C49.2 47.3999 47.4 46.1999 45.4 46.1999C43.4 46.1999 41.6 47.3999 40.8 49.1999H26.4C25.6 47.3999 23.8 46.1999 21.8 46.1999C19.6 46.1999 17.8 47.5999 17.2 49.3999H13C12.4 49.3999 12 48.9999 12 48.3999V45.3999C12 44.1999 12.4 43.1999 13 42.7999C13.8 41.9999 14.8 41.5998 15.8 41.5998H20.2C20.4 41.5998 20.4 41.5998 20.6 41.5998L48 41.3999H48.4C50.4 41.3999 52.2 42.9999 52.2 45.1999V48.1999Z" fill="#2D373D"/>
</svg>
