<svg width="32" height="33" viewBox="0 0 32 33" fill="none" xmlns="http://www.w3.org/2000/svg">
<path d="M26.9999 4.36133H4.8999C4.2999 4.36133 3.8999 4.76133 3.8999 5.36133V27.4613C3.8999 28.0613 4.2999 28.4613 4.8999 28.4613H26.9999C27.5999 28.4613 27.9999 28.0613 27.9999 27.4613V5.36133C27.9999 4.76133 27.5999 4.36133 26.9999 4.36133ZM25.9999 26.4613H5.8999V6.36133H25.9999V26.4613Z" fill="#2D373D"/>
<path d="M10.7996 15.6613C10.9996 15.8613 11.1996 15.9613 11.4996 15.9613C11.8996 15.9613 12.1996 15.7613 12.2996 15.4613L16.6996 9.56125C16.9996 9.16125 16.8996 8.46125 16.4996 8.16125C16.0996 7.86125 15.3996 7.96125 15.0996 8.36125L11.3996 13.3612L9.29961 11.2613C8.89961 10.8613 8.29961 10.8613 7.89961 11.2613C7.49961 11.6613 7.49961 12.3612 7.89961 12.6613L10.7996 15.6613Z" fill="#2D373D"/>
<path d="M18.2002 13.7612H22.6002C23.2002 13.7612 23.6002 13.3612 23.6002 12.7612C23.6002 12.1612 23.2002 11.7612 22.6002 11.7612H18.2002C17.6002 11.7612 17.2002 12.1612 17.2002 12.7612C17.2002 13.3612 17.6002 13.7612 18.2002 13.7612Z" fill="#2D373D"/>
<path d="M10.8 24.4614C11 24.6614 11.2 24.7614 11.5 24.7614C11.9 24.7614 12.2 24.6614 12.3 24.3614L16.6 18.4614C16.9 18.0614 16.8 17.3614 16.4 17.0614C16 16.7614 15.3 16.8614 15 17.2614L11.3 22.2614L9.2 20.1614C8.8 19.7614 8.2 19.7614 7.8 20.1614C7.4 20.5614 7.4 21.1614 7.8 21.5614L10.8 24.4614Z" fill="#2D373D"/>
<path d="M18.2002 22.5613H22.6002C23.2002 22.5613 23.6002 22.1613 23.6002 21.5613C23.6002 20.9613 23.2002 20.5613 22.6002 20.5613H18.2002C17.6002 20.5613 17.2002 20.9613 17.2002 21.5613C17.2002 22.1613 17.6002 22.5613 18.2002 22.5613Z" fill="#2D373D"/>
</svg>
