<svg width="32" height="32" viewBox="0 0 32 32" fill="none" xmlns="http://www.w3.org/2000/svg">
<path fill-rule="evenodd" clip-rule="evenodd" d="M9.77665 3.45439C9.89256 3.99438 9.54878 4.52609 9.00879 4.642C7.12795 5.04574 5.18773 6.37198 4.64636 9.01511C4.53555 9.55616 4.0071 9.90493 3.46605 9.79412C2.925 9.6833 2.57622 9.15485 2.68704 8.6138C3.42211 5.0249 6.11494 3.21763 8.58904 2.68654C9.12902 2.57063 9.66073 2.91441 9.77665 3.45439Z" fill="#2D373D"/>
<path fill-rule="evenodd" clip-rule="evenodd" d="M10.4064 6.09384C10.6467 6.59113 10.4383 7.18902 9.94103 7.42928C8.91046 7.92717 7.98154 8.74345 7.40778 9.9475C7.1702 10.4461 6.57343 10.6576 6.07486 10.4201C5.57629 10.1825 5.36471 9.58571 5.6023 9.08714C6.3973 7.41881 7.68745 6.29685 9.071 5.62843C9.56829 5.38818 10.1662 5.59655 10.4064 6.09384Z" fill="#2D373D"/>
<path fill-rule="evenodd" clip-rule="evenodd" d="M22.2227 3.45439C22.1068 3.99438 22.4506 4.52609 22.9906 4.642C24.8714 5.04574 26.8117 6.37198 27.353 9.01511C27.4638 9.55616 27.9923 9.90493 28.5333 9.79412C29.0744 9.6833 29.4232 9.15485 29.3124 8.6138C28.5773 5.0249 25.8844 3.21763 23.4104 2.68654C22.8704 2.57063 22.3387 2.91441 22.2227 3.45439Z" fill="#2D373D"/>
<path fill-rule="evenodd" clip-rule="evenodd" d="M21.5929 6.09384C21.3527 6.59113 21.5611 7.18902 22.0584 7.42928C23.0889 7.92717 24.0178 8.74345 24.5916 9.9475C24.8292 10.4461 25.426 10.6576 25.9245 10.4201C26.4231 10.1825 26.6347 9.58571 26.3971 9.08714C25.6021 7.41881 24.3119 6.29685 22.9284 5.62843C22.4311 5.38818 21.8332 5.59655 21.5929 6.09384Z" fill="#2D373D"/>
<path fill-rule="evenodd" clip-rule="evenodd" d="M17.0001 4.9976C17.0001 4.44532 16.5524 3.9976 16.0001 3.9976C15.4478 3.9976 15.0001 4.44532 15.0001 4.9976V6.72827C13.5351 6.91342 11.9543 7.50859 10.6446 8.62215C9.00005 10.0205 7.84439 12.1861 7.84439 15.1957C7.84439 17.8808 7.84013 19.1771 7.67221 20.1005C7.52231 20.9249 7.24401 21.4419 6.50591 22.5489C6.30131 22.8558 6.28222 23.2503 6.45624 23.5755C6.63025 23.9007 6.96912 24.1037 7.33793 24.1037H24.6622C25.031 24.1037 25.3699 23.9007 25.5439 23.5755C25.7179 23.2503 25.6989 22.8558 25.4943 22.5489C24.7562 21.4419 24.4779 20.9249 24.328 20.1005C24.16 19.1771 24.1558 17.8808 24.1558 15.1957C24.1558 12.1861 23.0001 10.0205 21.3555 8.62215C20.0459 7.50859 18.4651 6.91341 17.0001 6.72827V4.9976ZM9.84439 15.1957C9.84439 12.7493 10.7601 11.1492 11.9402 10.1458C13.1501 9.11704 14.701 8.66427 16.0001 8.66427C17.2991 8.66427 18.8501 9.11704 20.06 10.1458C21.2401 11.1492 22.1558 12.7493 22.1558 15.1957L22.1558 15.3478C22.1557 17.8428 22.1556 19.3333 22.3602 20.4583C22.4743 21.0858 22.6513 21.6004 22.8969 22.1037H9.10322C9.34886 21.6004 9.52584 21.0858 9.63995 20.4583C9.84452 19.3333 9.84447 17.8428 9.84439 15.3478L9.84439 15.1957Z" fill="#2D373D"/>
<path fill-rule="evenodd" clip-rule="evenodd" d="M13.3334 24.9976C13.8857 24.9976 14.3334 25.4453 14.3334 25.9976C14.3334 26.3111 14.4878 26.6317 14.808 26.8993C15.1332 27.1711 15.5743 27.3357 16 27.3357C16.4257 27.3357 16.8669 27.1711 17.1921 26.8993C17.5123 26.6317 17.6667 26.3111 17.6667 25.9976C17.6667 25.4453 18.1144 24.9976 18.6667 24.9976C19.219 24.9976 19.6667 25.4453 19.6667 25.9976C19.6667 27.0174 19.1544 27.8659 18.4746 28.434C17.7998 28.9979 16.9076 29.3357 16 29.3357C15.0924 29.3357 14.2002 28.9979 13.5254 28.434C12.8456 27.8659 12.3334 27.0174 12.3334 25.9976C12.3334 25.4453 12.7811 24.9976 13.3334 24.9976Z" fill="#2D373D"/>
</svg>
