<svg width="24" height="25" viewBox="0 0 24 25" fill="none" xmlns="http://www.w3.org/2000/svg">
<path d="M17.025 11.9371L13.05 7.88711C12.75 7.58711 12.3 7.58711 12 7.88711C11.7 8.18711 11.7 8.63711 12 8.93711L14.7 11.7121H7.5C7.05 11.7121 6.75 12.0121 6.75 12.4621C6.75 12.9121 7.05 13.2121 7.5 13.2121H14.7L12 15.9121C11.7 16.2121 11.7 16.6621 12 16.9621C12.15 17.1121 12.3 17.1871 12.525 17.1871C12.675 17.1871 12.9 17.1121 13.05 16.9621L17.025 12.9871C17.325 12.6871 17.325 12.2371 17.025 11.9371Z" fill="#2D373D"/>
</svg>
