<svg width="32" height="33" viewBox="0 0 32 33" fill="none" xmlns="http://www.w3.org/2000/svg">
<path fill-rule="evenodd" clip-rule="evenodd" d="M25.3336 4.92255H20.147C19.905 4.9244 19.6723 5.01506 19.4928 5.1773C19.3134 5.33954 19.1998 5.56205 19.1736 5.80255C19.1677 5.83786 19.1677 5.87391 19.1736 5.90922C19.1736 5.90922 19.1736 5.90922 19.1736 6.00255C19.1662 6.09129 19.1662 6.18048 19.1736 6.26922L21.0536 11.4559H19.8403C19.685 11.4559 19.5319 11.492 19.3931 11.5615C19.2542 11.6309 19.1334 11.7317 19.0403 11.8559C18.949 11.981 18.8871 12.1251 18.8594 12.2775C18.8317 12.4299 18.8388 12.5866 18.8803 12.7359L19.7203 15.5892L16.3336 12.1359H17.2136C17.392 12.1305 17.5656 12.0767 17.7158 11.9805C17.8661 11.8842 17.9875 11.749 18.067 11.5892C18.1523 11.4388 18.1971 11.2688 18.1971 11.0959C18.1971 10.923 18.1523 10.753 18.067 10.6026L15.2536 5.46922C15.1691 5.29926 15.0374 5.15728 14.8742 5.06032C14.711 4.96336 14.5233 4.91552 14.3336 4.92255H6.86695C6.48901 4.91716 6.11382 4.98763 5.76359 5.12979C5.41335 5.27195 5.09519 5.4829 4.82791 5.75018C4.56064 6.01745 4.34968 6.33562 4.20752 6.68585C4.06537 7.03609 3.9949 7.41127 4.00029 7.78922V26.1226C4.00376 26.4949 4.08077 26.8629 4.22689 27.2054C4.373 27.5479 4.58535 27.8581 4.85173 28.1183C5.1181 28.3785 5.43326 28.5835 5.7791 28.7215C6.12493 28.8595 6.49463 28.9278 6.86695 28.9226H25.2003C25.9407 28.9156 26.6489 28.6184 27.1725 28.0948C27.6961 27.5712 27.9933 26.863 28.0003 26.1226V7.68255C28.0075 6.96443 27.7318 6.27231 27.2328 5.75584C26.7338 5.23937 26.0516 4.94003 25.3336 4.92255V4.92255ZM17.147 15.7759L17.3203 15.9492H17.147V15.7759ZM15.147 26.9492H6.86695C6.64401 26.9469 6.43 26.8613 6.26695 26.7092C6.11793 26.5496 6.03255 26.3409 6.02695 26.1226V17.9492H15.147V26.9492ZM6.02695 15.9492V7.78922C6.02928 7.56628 6.11488 7.35226 6.26695 7.18922C6.43 7.03715 6.64401 6.95154 6.86695 6.94922H13.787L15.5203 10.1359H13.9203C13.7232 10.1346 13.5303 10.1923 13.3663 10.3016C13.2023 10.4109 13.0748 10.5668 13.0003 10.7492C12.9234 10.9321 12.9026 11.1337 12.9406 11.3283C12.9786 11.523 13.0736 11.702 13.2136 11.8426L15.147 13.7759V15.9492H6.02695ZM26.027 26.1226C26.0288 26.2316 26.0086 26.3399 25.9677 26.441C25.9268 26.5421 25.866 26.634 25.7888 26.7111C25.7117 26.7882 25.6199 26.8491 25.5188 26.89C25.4177 26.9309 25.3093 26.951 25.2003 26.9492H17.2003V17.9492H19.3736L21.1603 19.7359C21.3173 19.8926 21.522 19.9926 21.742 20.0202C21.9621 20.0478 22.1851 20.0015 22.376 19.8885C22.5669 19.7755 22.7148 19.6023 22.7964 19.396C22.878 19.1898 22.8888 18.9622 22.827 18.7492L22.587 17.9492H26.0803L26.027 26.1226ZM26.027 15.9492H21.9336L21.187 13.4559H22.5203C22.6801 13.4549 22.8373 13.4157 22.9788 13.3415C23.1203 13.2672 23.242 13.1601 23.3336 13.0292C23.4275 12.8975 23.4876 12.7446 23.5085 12.5842C23.5294 12.4238 23.5106 12.2607 23.4536 12.1092L21.5603 6.94922H25.3336C25.4299 6.94922 25.5253 6.96819 25.6143 7.00504C25.7032 7.04189 25.7841 7.09591 25.8522 7.16401C25.9203 7.2321 25.9743 7.31295 26.0111 7.40192C26.048 7.49089 26.067 7.58625 26.067 7.68255L26.027 15.9492Z" fill="#2D373D"/>
</svg>
