<svg width="24" height="25" viewBox="0 0 24 25" fill="none" xmlns="http://www.w3.org/2000/svg">
<path d="M16.2976 14.0056C15.8834 14.0056 15.5476 14.3413 15.5476 14.7556C15.5476 15.1698 15.8834 15.5056 16.2976 15.5056H18.7576C19.1718 15.5056 19.5076 15.1698 19.5076 14.7556C19.5076 14.3413 19.1718 14.0056 18.7576 14.0056H16.2976Z" fill="#2D373D"/>
<path d="M8.83474 11.1736C9.1266 11.4675 9.12494 11.9424 8.83103 12.2343L7.82944 13.2289L8.83103 14.2235C9.12494 14.5153 9.1266 14.9902 8.83474 15.2841C8.54287 15.578 8.068 15.5797 7.77408 15.2878L6.76505 14.2858L5.75603 15.2878C5.46211 15.5797 4.98724 15.578 4.69537 15.2841C4.40351 14.9902 4.40517 14.5153 4.69908 14.2235L5.70067 13.2289L4.69908 12.2343C4.40517 11.9424 4.40351 11.4675 4.69537 11.1736C4.98724 10.8797 5.46211 10.878 5.75603 11.1699L6.76505 12.1719L7.77408 11.1699C8.068 10.878 8.54287 10.8797 8.83474 11.1736Z" fill="#2D373D"/>
<path d="M14.3698 11.1736C14.6617 11.4675 14.66 11.9424 14.3661 12.2343L13.3645 13.2289L14.3661 14.2235C14.66 14.5153 14.6617 14.9902 14.3698 15.2841C14.0779 15.578 13.603 15.5797 13.3091 15.2878L12.3001 14.2858L11.2911 15.2878C10.9972 15.5797 10.5223 15.578 10.2304 15.2841C9.93856 14.9902 9.94022 14.5153 10.2341 14.2235L11.2357 13.2289L10.2341 12.2343C9.94022 11.9424 9.93856 11.4675 10.2304 11.1736C10.5223 10.8797 10.9972 10.878 11.2911 11.1699L12.3001 12.1719L13.3091 11.1699C13.603 10.878 14.0779 10.8797 14.3698 11.1736Z" fill="#2D373D"/>
<path fill-rule="evenodd" clip-rule="evenodd" d="M3.99758 7.89844C2.90901 7.89844 2.01758 8.77614 2.01758 9.86987V15.977C2.01758 17.0707 2.90901 17.9484 3.99758 17.9484H19.9876C21.0761 17.9484 21.9676 17.0707 21.9676 15.977V9.86987C21.9676 8.77614 21.0761 7.89844 19.9876 7.89844H3.99758ZM3.51758 9.86987C3.51758 9.61444 3.72753 9.39844 3.99758 9.39844H19.9876C20.2576 9.39844 20.4676 9.61444 20.4676 9.86987V15.977C20.4676 16.2324 20.2576 16.4484 19.9876 16.4484H3.99758C3.72753 16.4484 3.51758 16.2324 3.51758 15.977V9.86987Z" fill="#2D373D"/>
</svg>
