<svg width="32" height="33" viewBox="0 0 32 33" fill="none" xmlns="http://www.w3.org/2000/svg">
<path fill-rule="evenodd" clip-rule="evenodd" d="M16.0008 7.45613C14.8301 6.12472 13.1655 4.99849 11.2877 4.60792C8.79511 4.08946 6.08149 4.90156 3.86743 7.85364L3.86741 7.85362L3.86359 7.85879C2.68149 9.45622 2.44653 11.2034 2.8625 12.9659C3.26678 14.6789 4.27999 16.3961 5.56049 18.0663C7.46286 20.5476 10.1306 23.1356 12.721 25.6487C13.5983 26.4998 14.4668 27.3423 15.2937 28.1692C15.4812 28.3567 15.7355 28.4621 16.0008 28.4621C16.266 28.4621 16.5203 28.3567 16.7079 28.1692C17.5347 27.3423 18.4032 26.4998 19.2805 25.6487C21.8709 23.1356 24.5387 20.5476 26.441 18.0663C27.7215 16.3961 28.7347 14.6789 29.139 12.9659C29.555 11.2034 29.32 9.45622 28.1379 7.85879L28.138 7.85878L28.1341 7.85364C25.92 4.90156 23.2064 4.08946 20.7138 4.60792C18.8361 4.99849 17.1714 6.12472 16.0008 7.45613ZM5.4694 9.05101C7.2548 6.67205 9.20703 6.21794 10.8805 6.56601C12.6529 6.93469 14.2717 8.24066 15.1528 9.6503C15.3355 9.94268 15.656 10.1203 16.0008 10.1203C16.3455 10.1203 16.666 9.94268 16.8488 9.6503C17.7298 8.24066 19.3486 6.93469 21.1211 6.56601C22.7945 6.21793 24.7468 6.67206 26.5322 9.05115C27.3218 10.1196 27.4896 11.2476 27.1925 12.5065C26.8834 13.816 26.0666 15.2675 24.8538 16.8494C23.0488 19.2037 20.5424 21.6358 17.9843 24.1179C17.3228 24.7598 16.6579 25.405 16.0008 26.053C15.3436 25.405 14.6787 24.7598 14.0172 24.1179C11.4591 21.6358 8.95271 19.2037 7.14769 16.8494C5.93487 15.2675 5.11807 13.816 4.80902 12.5065C4.51189 11.2475 4.67976 10.1195 5.4694 9.05101Z" fill="#2D373D"/>
</svg>
