<svg width="24" height="24" viewBox="0 0 24 24" fill="none" xmlns="http://www.w3.org/2000/svg">
<path d="M9.10107 4.90074C9.10107 4.32712 9.27117 3.76639 9.58986 3.28945C9.90854 2.8125 10.3615 2.44077 10.8914 2.22126C11.4214 2.00174 12.0045 1.94431 12.5671 2.05622C13.1297 2.16812 13.6465 2.44435 14.0521 2.84995C14.4577 3.25556 14.7339 3.77234 14.8458 4.33493C14.9578 4.89752 14.9003 5.48067 14.6808 6.01062C14.4613 6.54057 14.0896 6.99353 13.6126 7.31221C13.1357 7.63089 12.5749 7.80099 12.0013 7.80099C11.2323 7.80059 10.4948 7.4949 9.95098 6.95109C9.40716 6.40727 9.10147 5.66981 9.10107 4.90074ZM13.4008 4.90074C13.4051 4.71418 13.3721 4.52864 13.3037 4.35502C13.2353 4.1814 13.1329 4.0232 13.0025 3.88973C12.8721 3.75626 12.7163 3.6502 12.5443 3.57779C12.3723 3.50539 12.1876 3.46809 12.001 3.46809C11.8143 3.46809 11.6296 3.50539 11.4576 3.57779C11.2856 3.6502 11.1299 3.75626 10.9994 3.88973C10.869 4.0232 10.7666 4.1814 10.6982 4.35502C10.6298 4.52864 10.5968 4.71418 10.6011 4.90074C10.5968 5.0873 10.6298 5.27284 10.6982 5.44646C10.7666 5.62008 10.869 5.77827 10.9994 5.91175C11.1299 6.04522 11.2856 6.15128 11.4576 6.22368C11.6296 6.29609 11.8143 6.33339 12.001 6.33339C12.1876 6.33339 12.3723 6.29609 12.5443 6.22368C12.7163 6.15128 12.872 6.04522 13.0025 5.91175C13.1329 5.77827 13.2353 5.62008 13.3037 5.44646C13.3721 5.27284 13.4051 5.0873 13.4008 4.90074Z" fill="#2D373D"/>
<path d="M9.10107 19.1006C9.10107 18.527 9.27117 17.9662 9.58986 17.4893C9.90854 17.0123 10.3615 16.6406 10.8914 16.4211C11.4214 16.2016 12.0045 16.1441 12.5671 16.256C13.1297 16.368 13.6465 16.6442 14.0521 17.0498C14.4577 17.4554 14.7339 17.9722 14.8458 18.5348C14.9578 19.0974 14.9003 19.6805 14.6808 20.2104C14.4613 20.7404 14.0896 21.1934 13.6126 21.512C13.1357 21.8307 12.5749 22.0008 12.0013 22.0008C11.2323 22.0004 10.4948 21.6947 9.95098 21.1509C9.40716 20.6071 9.10147 19.8696 9.10107 19.1006ZM13.4008 19.1006C13.4008 18.8236 13.3187 18.5529 13.1648 18.3226C13.011 18.0924 12.7923 17.9129 12.5364 17.8069C12.2806 17.7009 11.999 17.6732 11.7274 17.7272C11.4558 17.7813 11.2063 17.9146 11.0104 18.1104C10.8146 18.3063 10.6813 18.5558 10.6272 18.8274C10.5732 19.099 10.6009 19.3806 10.7069 19.6364C10.8129 19.8923 10.9924 20.111 11.2226 20.2648C11.4529 20.4187 11.7236 20.5008 12.0006 20.5008C12.1857 20.5053 12.3698 20.4722 12.5417 20.4035C12.7137 20.3347 12.8698 20.2317 13.0008 20.1008C13.1317 19.9698 13.2347 19.8137 13.3035 19.6417C13.3722 19.4698 13.4054 19.2857 13.4008 19.1006Z" fill="#2D373D"/>
<path d="M9.10107 12.001C9.10107 11.4274 9.27117 10.8667 9.58986 10.3897C9.90854 9.91278 10.3615 9.54105 10.8914 9.32154C11.4214 9.10203 12.0045 9.04459 12.5671 9.1565C13.1297 9.2684 13.6465 9.54463 14.0521 9.95023C14.4577 10.3558 14.7339 10.8726 14.8458 11.4352C14.9578 11.9978 14.9003 12.5809 14.6808 13.1109C14.4613 13.6408 14.0896 14.0938 13.6126 14.4125C13.1357 14.7312 12.5749 14.9013 12.0013 14.9013C11.2323 14.9009 10.4948 14.5952 9.95098 14.0514C9.40716 13.5076 9.10147 12.7701 9.10107 12.001ZM13.4008 12.001C13.4008 11.7241 13.3187 11.4534 13.1648 11.2231C13.011 10.9928 12.7923 10.8133 12.5364 10.7074C12.2806 10.6014 11.999 10.5736 11.7274 10.6277C11.4558 10.6817 11.2063 10.8151 11.0104 11.0109C10.8146 11.2067 10.6813 11.4562 10.6272 11.7278C10.5732 11.9995 10.6009 12.281 10.7069 12.5369C10.8129 12.7927 10.9924 13.0114 11.2226 13.1653C11.4529 13.3191 11.7236 13.4013 12.0006 13.4013C12.1857 13.4058 12.3698 13.3727 12.5417 13.3039C12.7137 13.2351 12.8698 13.1322 13.0008 13.0012C13.1317 12.8703 13.2347 12.7141 13.3035 12.5422C13.3722 12.3702 13.4054 12.1861 13.4008 12.001Z" fill="#2D373D"/>
</svg>
