<svg width="32" height="33" viewBox="0 0 32 33" fill="none" xmlns="http://www.w3.org/2000/svg">
<path d="M17.6999 17.2613C17.6999 16.6613 17.2999 16.2613 16.6999 16.2613H6.3999C6.0999 16.2613 5.8999 16.0613 5.8999 15.7613V6.86133C5.8999 6.56133 6.0999 6.36133 6.3999 6.36133H24.0999C24.3999 6.36133 24.5999 6.56133 24.5999 6.86133V12.7613C24.5999 13.3613 24.9999 13.7613 25.5999 13.7613C26.1999 13.7613 26.5999 13.3613 26.5999 12.7613V6.86133C26.5999 5.46133 25.4999 4.36133 24.0999 4.36133H6.3999C4.9999 4.36133 3.8999 5.46133 3.8999 6.86133V15.6613C3.8999 17.0613 4.9999 18.1613 6.3999 18.1613H16.6999C17.2999 18.1613 17.6999 17.7613 17.6999 17.2613Z" fill="#2D373D"/>
<path d="M8.2999 10.2613C7.9999 10.5613 7.8999 10.8613 7.8999 11.2613C7.8999 12.0613 8.4999 12.6613 9.2999 12.6613C10.0999 12.6613 10.6999 12.0613 10.6999 11.2613C10.6999 10.4613 10.0999 9.86133 9.2999 9.86133C8.8999 9.86133 8.5999 9.96133 8.2999 10.2613Z" fill="#2D373D"/>
<path d="M14.2999 10.2613C13.9999 10.5613 13.8999 10.8613 13.8999 11.2613C13.8999 11.6613 13.9999 11.9613 14.1999 12.2613C14.4999 12.5613 14.7999 12.6613 15.1999 12.6613C15.9999 12.6613 16.5999 12.0613 16.6999 11.2613C16.6999 10.4613 16.0999 9.86133 15.2999 9.86133C14.8999 9.86133 14.5999 9.96133 14.2999 10.2613Z" fill="#2D373D"/>
<path d="M20.0994 10.2613C19.7994 10.5613 19.6994 10.8613 19.6994 11.2613C19.6994 11.6613 19.7994 11.9613 20.0994 12.2613C20.3994 12.5613 20.6994 12.6613 21.0994 12.6613C21.8994 12.6613 22.4994 12.0613 22.4994 11.2613C22.4994 10.8613 22.3994 10.5613 22.0994 10.2613C21.7994 9.96133 21.4994 9.86133 21.0994 9.86133C20.6994 9.86133 20.3994 9.96133 20.0994 10.2613Z" fill="#2D373D"/>
<path d="M27.0994 19.1611H26.5994V18.6611C26.5994 16.5611 24.7994 14.7611 22.5994 14.7611C20.4994 14.7611 18.6994 16.4611 18.6994 18.6611V19.1611H18.1994C17.5994 19.1611 17.1994 19.5611 17.1994 20.1611V27.5611C17.1994 28.1611 17.5994 28.5611 18.1994 28.5611H27.0994C27.5994 28.5611 28.0994 28.0611 28.0994 27.5611V20.1611C28.0994 19.5611 27.6994 19.1611 27.0994 19.1611ZM20.5994 18.7611C20.5994 17.6611 21.4994 16.7611 22.5994 16.7611C23.6994 16.7611 24.5994 17.5611 24.5994 18.6611V19.1611H20.6994L20.5994 18.7611ZM26.0994 26.5611H19.1994V21.1611H26.0994V26.5611Z" fill="#2D373D"/>
<path d="M22.5994 22.4613C21.7994 22.4613 21.1994 23.0613 21.1994 23.8613C21.1994 24.6613 21.7994 25.2613 22.5994 25.2613C23.3994 25.2613 23.9994 24.6613 23.9994 23.8613C23.9994 23.0613 23.3994 22.4613 22.5994 22.4613Z" fill="#2D373D"/>
</svg>
