<svg width="16" height="17" viewBox="0 0 16 17" fill="none" xmlns="http://www.w3.org/2000/svg">
<path d="M4.87093 5.91701C4.59479 5.91701 4.37093 6.14087 4.37093 6.41701C4.37093 6.69316 4.59479 6.91701 4.87093 6.91701H11.0424C11.3185 6.91701 11.5424 6.69316 11.5424 6.41701C11.5424 6.14087 11.3185 5.91701 11.0424 5.91701H4.87093Z" fill="#2D373D"/>
<path d="M4.37093 8.87035C4.37093 8.5942 4.59479 8.37035 4.87093 8.37035H11.0424C11.3185 8.37035 11.5424 8.5942 11.5424 8.87035C11.5424 9.14649 11.3185 9.37035 11.0424 9.37035H4.87093C4.59479 9.37035 4.37093 9.14649 4.37093 8.87035Z" fill="#2D373D"/>
<path d="M4.87093 10.8237C4.59479 10.8237 4.37093 11.0475 4.37093 11.3237C4.37093 11.5998 4.59479 11.8237 4.87093 11.8237H7.95665C8.23279 11.8237 8.45665 11.5998 8.45665 11.3237C8.45665 11.0475 8.23279 10.8237 7.95665 10.8237H4.87093Z" fill="#2D373D"/>
<path fill-rule="evenodd" clip-rule="evenodd" d="M12.0504 2.21051C11.8129 1.96798 11.4893 1.828 11.1476 1.82813H3.31464C2.96729 1.82813 2.63909 1.97283 2.40083 2.22233C2.16331 2.47104 2.03369 2.80365 2.03369 3.1459V13.777C2.03369 14.1193 2.16331 14.4519 2.40083 14.7006C2.63909 14.9501 2.96729 15.0948 3.31464 15.0948H12.6861C13.0334 15.0948 13.3616 14.9501 13.5999 14.7006C13.8374 14.4519 13.967 14.1193 13.967 13.777V4.71763C13.967 4.54493 13.934 4.37346 13.8694 4.21312C13.8048 4.05276 13.7096 3.90604 13.5883 3.78223L12.0504 2.21051ZM11.1479 2.82813C11.2137 2.82809 11.2816 2.85475 11.3358 2.91006L12.874 4.48206C12.902 4.5106 12.9254 4.54599 12.9418 4.58675C12.9583 4.62752 12.967 4.67215 12.967 4.71772V13.777C12.967 13.8685 12.9321 13.9519 12.8767 14.01C12.822 14.0672 12.753 14.0948 12.6861 14.0948H3.31464C3.24776 14.0948 3.17868 14.0672 3.12403 14.01C3.06863 13.9519 3.03369 13.8685 3.03369 13.777V3.1459C3.03369 3.05438 3.06863 2.97098 3.12403 2.91296C3.17868 2.85573 3.24776 2.82813 3.31464 2.82813L11.1479 2.82813Z" fill="#2D373D"/>
</svg>
