<svg width="64" height="65" viewBox="0 0 64 65" fill="none" xmlns="http://www.w3.org/2000/svg">
<path fill-rule="evenodd" clip-rule="evenodd" d="M38.6667 20.9206C38.6667 24.6025 35.6819 27.5872 32 27.5872C28.3181 27.5872 25.3333 24.6025 25.3333 20.9206C25.3333 17.2387 28.3181 14.2539 32 14.2539C35.6819 14.2539 38.6667 17.2387 38.6667 20.9206ZM34.6667 20.9206C34.6667 22.3933 33.4728 23.5872 32 23.5872C30.5272 23.5872 29.3333 22.3933 29.3333 20.9206C29.3333 19.4478 30.5272 18.2539 32 18.2539C33.4728 18.2539 34.6667 19.4478 34.6667 20.9206Z" fill="#2D373D"/>
<path fill-rule="evenodd" clip-rule="evenodd" d="M20.4446 8.17327C22.8422 7.11831 26.4641 6.25391 32.0001 6.25391C37.536 6.25391 41.1579 7.11831 43.5555 8.17328C45.7961 9.15912 46.8749 10.2803 47.3073 10.7298C47.3482 10.7722 47.3845 10.81 47.4142 10.8397C47.7893 11.2148 48 11.7235 48 12.2539V43.5872C48 44.4051 47.5021 45.1405 46.7428 45.4442C46.1644 45.6755 45.4765 45.914 44.6667 46.1441V50.2539C44.6667 50.9226 44.3325 51.5471 43.7761 51.918C42.7881 52.5766 41.1539 53.1395 39.2483 53.5437C38.6321 53.6744 37.9674 53.7927 37.2593 53.8936V57.597C37.2593 58.7016 36.3638 59.597 35.2593 59.597C34.1547 59.597 33.2593 58.7016 33.2593 57.597V54.2341C32.8476 54.2471 32.4276 54.2539 32 54.2539C31.7756 54.2539 31.5534 54.252 31.3333 54.2484V57.597C31.3333 58.7016 30.4379 59.597 29.3333 59.597C28.2288 59.597 27.3333 58.7016 27.3333 57.597V53.9727C26.4011 53.8567 25.537 53.7103 24.7517 53.5437C22.8461 53.1395 21.2119 52.5766 20.2239 51.918C19.6675 51.5471 19.3333 50.9226 19.3333 50.2539V46.1441C18.5235 45.914 17.8356 45.6755 17.2572 45.4442C16.4979 45.1405 16 44.4051 16 43.5872V12.2539C16 11.7235 16.2107 11.2148 16.5858 10.8397C16.6158 10.8097 16.6513 10.7728 16.6927 10.7298C17.1251 10.2803 18.204 9.15913 20.4446 8.17327ZM32.0001 47.5872C35.501 47.5872 38.3573 47.3493 40.6667 46.9949V49.0029C40.1322 49.2015 39.385 49.4257 38.4183 49.6308C36.7262 49.9897 34.5322 50.2539 32 50.2539C29.4678 50.2539 27.2738 49.9897 25.5817 49.6308C24.615 49.4257 23.8678 49.2015 23.3333 49.0029V46.9949C25.6427 47.3492 28.4991 47.5872 32.0001 47.5872ZM44 13.0917V33.5872H20V13.0917C20.409 12.7329 21.0363 12.283 22.0555 11.8345C23.8245 11.0562 26.8693 10.2539 32.0001 10.2539C37.1308 10.2539 40.1756 11.0562 41.9446 11.8345C42.9637 12.283 43.591 12.7328 44 13.0917ZM20 42.1703V37.5872H44V42.1703C41.7605 42.8589 37.9649 43.5872 32.0001 43.5872C26.0352 43.5872 22.2396 42.8589 20 42.1703Z" fill="#2D373D"/>
</svg>
