<svg width="16" height="17" viewBox="0 0 16 17" fill="none" xmlns="http://www.w3.org/2000/svg">
<path d="M5.43279 6.86096C5.15664 6.86096 4.93279 7.08482 4.93279 7.36096C4.93279 7.6371 5.15664 7.86096 5.43279 7.86096H10.5661C10.8423 7.86096 11.0661 7.6371 11.0661 7.36096C11.0661 7.08482 10.8423 6.86096 10.5661 6.86096H5.43279Z" fill="#2D373D"/>
<path d="M4.93279 9.56097C4.93279 9.28483 5.15664 9.06097 5.43279 9.06097H10.5661C10.8423 9.06097 11.0661 9.28483 11.0661 9.56097C11.0661 9.83712 10.8423 10.061 10.5661 10.061H5.43279C5.15664 10.061 4.93279 9.83712 4.93279 9.56097Z" fill="#2D373D"/>
<path d="M5.43279 11.261C5.15664 11.261 4.93279 11.4848 4.93279 11.761C4.93279 12.0371 5.15664 12.261 5.43279 12.261H7.99946C8.27561 12.261 8.49946 12.0371 8.49946 11.761C8.49946 11.4848 8.27561 11.261 7.99946 11.261H5.43279Z" fill="#2D373D"/>
<path fill-rule="evenodd" clip-rule="evenodd" d="M5.19945 2.96094C5.19945 2.6848 4.97559 2.46094 4.69945 2.46094C4.42331 2.46094 4.19945 2.6848 4.19945 2.96094V3.92761H3.23277C3.22676 3.92761 3.22074 3.92772 3.21473 3.92794C2.88118 3.93998 2.566 4.08374 2.33826 4.32774C2.11261 4.56948 1.99102 4.89008 1.99943 5.22043V13.1682C1.99102 13.4985 2.11261 13.8191 2.33826 14.0609C2.566 14.3049 2.88118 14.4486 3.21473 14.4607C3.22074 14.4609 3.22676 14.461 3.23277 14.461H12.7661C12.7722 14.461 12.7782 14.4609 12.7842 14.4607C13.1177 14.4486 13.4329 14.3049 13.6607 14.0609C13.8863 13.8191 14.0079 13.4985 13.9995 13.1682V5.22041C14.0079 4.89007 13.8863 4.56948 13.6607 4.32774C13.4329 4.08374 13.1177 3.93998 12.7842 3.92794C12.7782 3.92772 12.7722 3.92761 12.7661 3.92761H11.7995V2.96094C11.7995 2.6848 11.5756 2.46094 11.2995 2.46094C11.0233 2.46094 10.7995 2.6848 10.7995 2.96094V3.92761H9.59947V2.96094C9.59947 2.6848 9.37561 2.46094 9.09947 2.46094C8.82333 2.46094 8.59947 2.6848 8.59947 2.96094V3.92761H7.39945V2.96094C7.39945 2.6848 7.17559 2.46094 6.89945 2.46094C6.62331 2.46094 6.39945 2.6848 6.39945 2.96094V3.92761H5.19945V2.96094ZM10.7995 5.16095V4.92761H9.59947V5.16095C9.59947 5.43709 9.37561 5.66095 9.09947 5.66095C8.82333 5.66095 8.59947 5.43709 8.59947 5.16095V4.92761H7.39945V5.16095C7.39945 5.43709 7.17559 5.66095 6.89945 5.66095C6.62331 5.66095 6.39945 5.43709 6.39945 5.16095V4.92761H5.19945V5.16095C5.19945 5.43709 4.97559 5.66095 4.69945 5.66095C4.42331 5.66095 4.19945 5.43709 4.19945 5.16095V4.92761H3.24415C3.17754 4.93172 3.11493 4.96118 3.06928 5.01009C3.02211 5.06062 2.9969 5.12779 2.99916 5.19688C2.99934 5.20234 2.99943 5.2078 2.99943 5.21326V13.1753C2.99943 13.1808 2.99934 13.1863 2.99916 13.1917C2.9969 13.2608 3.02211 13.328 3.06928 13.3785C3.11493 13.4274 3.17754 13.4569 3.24415 13.461H12.7548C12.8214 13.4569 12.884 13.4274 12.9296 13.3785C12.9768 13.328 13.002 13.2608 12.9998 13.1917C12.9996 13.1863 12.9995 13.1808 12.9995 13.1753V5.21326C12.9995 5.2078 12.9996 5.20234 12.9998 5.19688C13.002 5.12779 12.9768 5.06062 12.9296 5.01009C12.884 4.96118 12.8214 4.93172 12.7548 4.92761H11.7995V5.16095C11.7995 5.43709 11.5756 5.66095 11.2995 5.66095C11.0233 5.66095 10.7995 5.43709 10.7995 5.16095Z" fill="#2D373D"/>
</svg>
