<svg width="64" height="65" viewBox="0 0 64 65" fill="none" xmlns="http://www.w3.org/2000/svg">
<path fill-rule="evenodd" clip-rule="evenodd" d="M34.1205 8.46094H12.9831C11.6615 8.46094 10.394 8.98594 9.45952 9.92046C8.52501 10.855 8 12.1224 8 13.444V52.2245C8 53.5461 8.525 54.8136 9.45952 55.7481C10.394 56.6826 11.6615 57.2076 12.9831 57.2076H18.9493C20.0539 57.2076 20.9493 56.3122 20.9493 55.2076C20.9493 54.103 20.0539 53.2076 18.9493 53.2076H12.9831C12.7224 53.2076 12.4723 53.104 12.2879 52.9197C12.1036 52.7353 12 52.4852 12 52.2245V13.444C12 13.1833 12.1036 12.9333 12.2879 12.7489C12.4723 12.5645 12.7224 12.4609 12.9831 12.4609H31.8649V22.3934C31.8649 23.715 32.3899 24.9825 33.3244 25.917C34.2589 26.8515 35.5264 27.3765 36.848 27.3765H46.7804V34.3258C46.7804 35.4304 47.6759 36.3258 48.7804 36.3258C49.885 36.3258 50.7804 35.4304 50.7804 34.3258V25.3853L50.7805 25.3765L50.7804 25.3677V25.1195C50.7802 23.7988 50.2553 22.532 49.3217 21.5978L37.6453 9.91933C37.1823 9.45667 36.6327 9.08975 36.028 8.83952C35.4235 8.5894 34.7747 8.46076 34.1205 8.46094ZM35.8649 13.796L45.4437 23.3765H36.848C36.5873 23.3765 36.3372 23.2729 36.1529 23.0885C35.9685 22.9042 35.8649 22.6541 35.8649 22.3934V13.796Z" fill="#2D373D"/>
<path d="M39.092 39.7498C38.7359 38.8596 37.7982 38.3473 36.8568 38.5286C35.9154 38.7099 35.235 39.5338 35.235 40.4925V54.4759C35.235 55.5804 36.1305 56.4759 37.235 56.4759C38.3396 56.4759 39.235 55.5804 39.235 54.4759V50.8777L40.9714 55.2187C41.3275 56.1088 42.2651 56.6211 43.2066 56.4398C44.148 56.2585 44.8284 55.4346 44.8284 54.4759V40.4925C44.8284 39.388 43.9329 38.4925 42.8284 38.4925C41.7238 38.4925 40.8284 39.388 40.8284 40.4925V44.0907L39.092 39.7498Z" fill="#2D373D"/>
<path fill-rule="evenodd" clip-rule="evenodd" d="M31.8272 49.068C30.8081 50.0871 29.4705 50.7145 28.0483 50.8532V54.4758C28.0483 55.5804 27.1529 56.4758 26.0483 56.4758C24.9438 56.4758 24.0483 55.5804 24.0483 54.4758V40.4925C24.0483 39.3879 24.9438 38.4925 26.0483 38.4925H27.4467C29.0897 38.4925 30.6654 39.1452 31.8272 40.3069C32.989 41.4687 33.6417 43.0445 33.6417 44.6875C33.6417 46.3305 32.989 47.9062 31.8272 49.068ZM28.0483 42.5765V46.7984C28.4044 46.6969 28.7323 46.506 28.9988 46.2396C29.4104 45.8279 29.6417 45.2696 29.6417 44.6875C29.6417 44.1053 29.4104 43.547 28.9988 43.1354C28.7323 42.8689 28.4044 42.678 28.0483 42.5765Z" fill="#2D373D"/>
<path d="M51.2184 42.4927C51.0071 42.4927 50.8045 42.5766 50.6551 42.726C50.5056 42.8754 50.4217 43.0781 50.4217 43.2893V51.6793C50.4217 51.8906 50.5056 52.0933 50.6551 52.2427C50.8045 52.3921 51.0071 52.476 51.2184 52.476C51.4297 52.476 51.6323 52.3921 51.7817 52.2427C51.9311 52.0933 52.015 51.8906 52.015 51.6793V50.7906C51.2045 50.5352 50.6167 49.7776 50.6167 48.8827C50.6167 47.7781 51.5121 46.8827 52.6167 46.8827H54.015C55.1196 46.8827 56.015 47.7781 56.015 48.8827V51.6793C56.015 52.9515 55.5097 54.1716 54.6101 55.0711C53.7106 55.9706 52.4905 56.476 51.2184 56.476C49.9462 56.476 48.7262 55.9706 47.8266 55.0711C46.9271 54.1716 46.4217 52.9515 46.4217 51.6793V43.2893C46.4217 42.0172 46.9271 40.7971 47.8266 39.8976C48.7262 38.998 49.9462 38.4927 51.2184 38.4927H54.015C55.1196 38.4927 56.015 39.3881 56.015 40.4927C56.015 41.5972 55.1196 42.4927 54.015 42.4927H51.2184Z" fill="#2D373D"/>
</svg>
