<svg width="32" height="32" viewBox="0 0 32 32" fill="none" xmlns="http://www.w3.org/2000/svg">
<path d="M27.6001 13.6C26.8001 12.5 25.9001 11.5 25.1001 10.4L25.5001 9.99995C26.5001 8.99995 26.5001 7.39995 25.5001 6.39995C25.0001 5.99995 24.4001 5.69995 23.7001 5.69995C23.0001 5.69995 22.4001 5.89995 21.9001 6.39995L21.5001 6.79995C20.5001 5.89995 19.5001 4.99995 18.4001 4.29995C17.3001 3.59995 16.0001 3.69995 15.1001 4.59995L11.5001 8.19995C10.6001 9.09995 10.5001 10.5 11.2001 11.5C12.0001 12.6 12.8001 13.6 13.7001 14.6L4.6001 23.7C3.6001 24.7 3.6001 26.2999 4.6001 27.2999C5.1001 27.6999 5.7001 28 6.4001 28C7.1001 28 7.7001 27.8 8.1001 27.2L17.2001 18.1C18.2001 19 19.3001 19.9 20.4001 20.7C20.9001 21 21.4001 21.2 21.9001 21.2C22.6001 21.2 23.2001 21 23.7001 20.5L27.3001 16.9C28.2001 16 28.3001 14.6 27.6001 13.6ZM23.3001 7.89995C23.4001 7.79995 23.6001 7.69995 23.7001 7.69995C23.9001 7.69995 24.0001 7.79995 24.1001 7.89995C24.3001 8.09995 24.3001 8.39995 24.1001 8.59995L23.7001 8.99995C23.5001 8.69995 23.2001 8.49995 23.0001 8.19995L23.3001 7.89995ZM6.7001 25.7999C6.5001 25.9999 6.2001 25.9999 6.0001 25.7999C5.8001 25.5999 5.8001 25.3 6.0001 25.1L15.0001 16.1C15.2001 16.3 15.5001 16.6 15.7001 16.8L6.7001 25.7999ZM25.9001 15.4L22.3001 19C22.1001 19.2 21.8001 19.3 21.6001 19.1C18.2001 16.6 15.2001 13.7 12.8001 10.3C12.7001 10.1 12.7001 9.79995 12.9001 9.69995L16.5001 6.09995C16.6001 5.99995 16.8001 5.89995 16.9001 5.89995C17.0001 5.89995 17.1001 5.89995 17.2001 5.89995C18.4001 6.79995 19.5001 7.69995 20.6001 8.69995C20.6001 8.79995 20.7001 8.89995 20.8001 8.99995C20.9001 9.09995 21.0001 9.19995 21.2001 9.19995C21.8001 9.79995 22.4001 10.3 22.9001 10.9C22.9001 10.9 22.9001 11 23.0001 11C23.0001 11 23.1001 11 23.1001 11.1C24.1001 12.2 25.1001 13.4 26.0001 14.6C26.1001 14.9 26.1001 15.2 25.9001 15.4Z" fill="#2D373D"/>
</svg>
