<svg width="16" height="17" viewBox="0 0 16 17" fill="none" xmlns="http://www.w3.org/2000/svg">
<path d="M7.8002 5.67461V4.77461C7.7502 4.27461 7.3502 3.87461 6.8502 3.87461H6.1502V2.72461C6.1502 2.42461 5.9502 2.22461 5.6502 2.22461C5.3502 2.22461 5.1502 2.42461 5.1502 2.72461V3.87461H4.2502C3.7502 3.82461 3.3002 4.22461 3.3002 4.77461V5.52461C3.3002 5.62461 3.3002 5.77461 3.3502 5.87461L1.9502 13.2746C1.9502 13.3746 1.9502 13.5246 2.0002 13.6746C2.1002 13.7746 2.2002 13.8746 2.3502 13.8746L2.7002 13.9246L2.5002 15.0246C2.4502 15.3246 2.6502 15.5746 2.9002 15.6246C2.9502 15.6246 2.9502 15.6246 3.0002 15.6246C3.2502 15.6246 3.4502 15.4246 3.5002 15.2246L3.6502 14.0746L4.0002 14.1246C4.0502 14.1246 4.0502 14.1246 4.1002 14.1246C4.3002 14.1246 4.5002 13.9746 4.5502 13.7246L5.6002 8.42461L6.6002 13.7246C6.6502 13.9746 6.8502 14.1246 7.1002 14.1246C7.1502 14.1246 7.1502 14.1246 7.1502 14.1246L7.5502 14.0746L7.7502 15.2246C7.8002 15.4746 8.0002 15.6246 8.2502 15.6246C8.3002 15.6246 8.3002 15.6246 8.3502 15.6246C8.6002 15.5746 8.8002 15.2746 8.7502 15.0246L8.6002 13.9246L8.8002 13.8746C8.9502 13.8746 9.0502 13.7746 9.1502 13.6746C9.2502 13.5246 9.2502 13.4246 9.2502 13.2746L7.8502 5.82461C7.8502 5.77461 7.8502 5.72461 7.8002 5.67461ZM4.3002 4.87461H6.8502V5.62461C6.8502 5.92461 6.6502 6.27461 6.4002 6.47461C6.1002 6.72461 5.7502 6.82461 5.3502 6.72461C4.8502 6.67461 4.4502 6.32461 4.3502 5.82461C4.3502 5.77461 4.3502 5.72461 4.3002 5.67461C4.3002 5.62461 4.3002 5.57461 4.3002 5.47461V4.87461ZM3.7002 13.0746L3.5502 13.0246C3.5002 12.9746 3.4502 12.9746 3.3502 12.9746C3.2502 12.9746 3.2002 12.9746 3.1002 12.9746H3.0502L4.1002 7.27461C4.3002 7.42461 4.5002 7.52461 4.7002 7.62461L3.7002 13.0746ZM8.1002 12.9746C8.0502 12.9746 7.9502 12.9746 7.9002 12.9746C7.8502 12.9746 7.8002 13.0246 7.7502 13.0246L7.5002 13.0746L6.4502 7.57461C6.6502 7.47461 6.8002 7.37461 7.0002 7.27461C7.0502 7.27461 7.0502 7.22461 7.1002 7.17461L8.1502 12.9746H8.1002Z" fill="#2D373D"/>
<path d="M12.7001 2.22461H10.2001C9.4501 2.22461 8.8501 2.77461 8.8501 3.52461V6.47461C8.8501 6.77461 9.0501 6.97461 9.3501 6.97461C9.6501 6.97461 9.8501 6.77461 9.8501 6.47461V3.57461C9.8501 3.37461 10.0001 3.22461 10.2001 3.22461H12.7001C12.9001 3.22461 13.0501 3.32461 13.0501 3.52461V4.72461H11.8501C11.5501 4.72461 11.3501 4.92461 11.3501 5.22461C11.3501 5.52461 11.5501 5.72461 11.8501 5.72461H13.0501V7.17461H11.8501C11.5501 7.17461 11.3501 7.37461 11.3501 7.67461C11.3501 7.97461 11.5501 8.17461 11.8501 8.17461H13.0501V9.67461H11.8501C11.5501 9.67461 11.3501 9.87461 11.3501 10.1746C11.3501 10.4746 11.5501 10.6746 11.8501 10.6746H13.0501V12.1246H11.8501C11.5501 12.1246 11.3501 12.3246 11.3501 12.6246C11.3501 12.9246 11.5501 13.1246 11.8501 13.1246H13.0501V14.2746C13.0501 14.4746 12.9001 14.6246 12.7001 14.6246H10.2001C9.9001 14.6246 9.7001 14.8246 9.7001 15.1246C9.7001 15.4246 9.9001 15.6246 10.2001 15.6246H12.7001C13.4001 15.6246 14.0001 15.0246 14.0501 14.2746V3.52461C14.0501 2.82461 13.4501 2.22461 12.7001 2.22461Z" fill="#2D373D"/>
</svg>
