<svg width="16" height="17" viewBox="0 0 16 17" fill="none" xmlns="http://www.w3.org/2000/svg">
<path fill-rule="evenodd" clip-rule="evenodd" d="M11.375 9.39728C11.5379 9.47603 11.6629 9.53644 11.75 9.71061C11.8 9.76061 11.8 9.81061 11.8 9.86061C11.9 10.2606 11.85 10.6606 11.65 10.9606C11.25 11.7606 10.5 12.2106 9.6 12.2106H9.5C8.45 12.1606 7.45 11.7606 6.6 11.1606C5.7 10.5606 5 9.71061 4.5 8.71061C3.95 7.61061 4.15 6.26061 5 5.31061C5.25 5.06061 5.55 4.96061 5.85 4.96061C6.25 4.91061 6.65 5.11061 6.85 5.46061L6.9 5.51061L7.05 5.81061V5.86061C7.15 6.16061 7.25 6.41061 7.4 6.66061C7.55 6.91061 7.55 7.16061 7.4 7.41061C7.35 7.51061 7.25 7.66061 7.15 7.71061L7.1 7.76061C7.55 8.46061 8.2 8.96061 8.95 9.31061C8.975 9.26061 9.0125 9.21061 9.05 9.16061C9.0875 9.11061 9.125 9.06061 9.15 9.01061C9.25 8.81061 9.5 8.66061 9.75 8.66061H9.8C9.9 8.66061 10.05 8.71061 10.15 8.76061C10.2 8.76061 10.4 8.86061 11.15 9.26061L11.3 9.36061C11.3258 9.37352 11.3508 9.38561 11.375 9.39728ZM10.85 10.4106C10.85 10.4106 10.85 10.3606 10.9 10.3606C10.95 10.3106 10.95 10.2606 10.95 10.2106L10.75 10.1106C10.3 9.86061 10.05 9.76061 9.9 9.71061C9.85 9.78561 9.8 9.84811 9.75 9.91061C9.7 9.97311 9.65 10.0356 9.6 10.1106C9.5 10.2606 9.3 10.3606 9.05 10.3606C8.9 10.3606 8.75 10.3106 8.65 10.2606C7.6 9.81061 6.75 9.06061 6.15 8.11061C5.95 7.91061 6.05 7.46061 6.3 7.21061L6.45 7.06061L6.15 6.31061V6.26061C6.1 6.16061 6.05 6.06061 6.05 6.01061C6 6.01061 5.95 5.96061 5.95 5.96061H5.85C5.8 5.96061 5.75 5.96061 5.7 6.01061C5.15 6.61061 5 7.51061 5.4 8.21061C5.8 9.06061 6.4 9.76061 7.15 10.2606C7.85 10.8106 8.65 11.1106 9.55 11.1606C10.1 11.1606 10.6 10.9106 10.85 10.4106Z" fill="#2D373D"/>
<path fill-rule="evenodd" clip-rule="evenodd" d="M3.30004 3.76055C4.50004 2.51055 6.25004 1.81055 8.05004 1.81055C11.7 1.81055 14.7 4.76055 14.75 8.41055C14.75 10.9105 13.4 13.2105 11.2 14.3605C10.2 14.8605 9.10004 15.1605 8.00004 15.1605C6.75004 15.1605 5.55004 14.8105 4.50004 14.2105L2.35004 14.9105C2.15004 14.9605 1.95004 14.9105 1.85004 14.7605C1.70004 14.6105 1.65004 14.4105 1.75004 14.2605L2.45004 12.2105C0.650036 9.56055 1.00004 5.96055 3.30004 3.76055ZM8.00004 14.1605C8.95004 14.1605 9.85004 13.9105 10.7 13.5105C12.6 12.5105 13.75 10.6105 13.75 8.46055C13.7 5.31055 11.15 2.81055 8.10004 2.81055H8.05004C6.50004 2.81055 5.05004 3.41055 4.00004 4.46055C2.00004 6.41055 1.75004 9.56055 3.40004 11.8105C3.50004 11.9605 3.50004 12.1105 3.45004 12.2605L3.00004 13.6105L4.45004 13.1605C4.50004 13.1105 4.55004 13.1105 4.60004 13.1105C4.70004 13.1105 4.80004 13.1605 4.85004 13.2105C5.80004 13.8105 6.85004 14.1605 8.00004 14.1605Z" fill="#2D373D"/>
</svg>
