<svg width="32" height="32" viewBox="0 0 32 32" fill="none" xmlns="http://www.w3.org/2000/svg">
<path d="M23.6001 9.20002H23.5001C23.5001 9.20002 23.5001 9.20002 23.4001 9.20002H21.1001V8.90002C21.3001 7.40002 20.1001 6.00002 18.5001 5.90002H5.20005C3.60005 6.00002 2.50005 7.40002 2.60005 8.80002V18.4C2.60005 19 3.00005 19.4 3.60005 19.4C4.20005 19.4 4.60005 19 4.60005 18.4V8.70002C4.60005 8.30002 4.90005 7.90002 5.20005 7.90002H18.4001C18.8001 7.90002 19.1001 8.30002 19.1001 8.80002V9.70002C19.0001 9.80002 19.0001 10 19.0001 10.2V16.7C19.0001 17.3 19.4001 17.7 20.0001 17.7C20.5001 17.7 20.8001 17.4 20.9001 17C21.0001 16.8 21.1001 16.7 21.1001 16.5V11.1H22.5001V15.1C22.4001 16.6 23.6001 17.8 25.1001 17.8H27.3001V21.7C27.3001 22.1 27.1001 22.4 26.7001 22.4H25.9001C25.3001 22.4 24.9001 22.8 24.9001 23.4C24.9001 24 25.3001 24.4 25.9001 24.4H26.7001C28.2001 24.4 29.4001 23.2 29.3001 21.8V15.2C29.3001 12 26.8001 9.40002 23.6001 9.20002ZM25.2001 15.8C24.8001 15.8 24.5001 15.5 24.5001 15.1V11.3C26.1001 11.8 27.3001 13.3 27.3001 15.1V15.8H25.2001Z" fill="#2D373D"/>
<path d="M20.9 19C19 19 17.4 20.6 17.4 22.5C17.4 24.4 19 26 20.9 26C22.9 26 24.4 24.5 24.4 22.5C24.4 20.6 22.8 19 20.9 19ZM20.9 24.1C20.1 24.1 19.4 23.4 19.4 22.6C19.4 21.8 20.1 21.1 20.9 21.1C21.8 21.1 22.4 21.7 22.4 22.6C22.4 23.4 21.7 24.1 20.9 24.1Z" fill="#2D373D"/>
<path d="M7.70007 19C5.80007 19 4.20007 20.6 4.20007 22.5C4.20007 24.4 5.80007 26 7.70007 26C9.60007 26 11.2001 24.5 11.2001 22.5C11.2001 20.6 9.60007 19 7.70007 19ZM7.70007 24.1C6.90007 24.1 6.20007 23.4 6.20007 22.6C6.20007 21.8 6.90007 21.1 7.70007 21.1C8.50007 21.1 9.20007 21.7 9.20007 22.6C9.20007 23.4 8.50007 24.1 7.70007 24.1Z" fill="#2D373D"/>
<path d="M16.0001 22.4H12.7001C12.1001 22.4 11.7001 22.8 11.7001 23.4C11.7001 24 12.1001 24.4 12.7001 24.4H16.0001C16.5001 24.4 17.0001 23.9 17.0001 23.4C17.0001 22.8 16.6001 22.4 16.0001 22.4Z" fill="#2D373D"/>
</svg>
