<svg width="64" height="65" viewBox="0 0 64 65" fill="none" xmlns="http://www.w3.org/2000/svg">
<path d="M41.2002 40.0608C40.2002 39.2608 39.0002 38.6608 37.6002 38.6608C36.2002 38.6608 35.0002 39.0608 34.0002 40.0608C33.8002 40.2608 33.6002 40.2608 33.4002 40.2608C33.4002 40.2608 33.0002 40.2608 32.8002 40.0608L24.4002 31.6608C24.0002 31.2608 24.0002 30.6608 24.4002 30.2608C25.4002 29.2608 25.8002 27.8608 25.8002 26.6608C25.8002 25.4608 25.4002 24.0608 24.4002 23.0608L19.2002 17.8608C17.2002 15.8608 14.2002 15.8608 12.2002 17.8608L11.0002 19.0608C7.4002 22.6608 6.8002 28.2608 9.6002 32.6608C15.4002 41.4608 22.8002 48.8608 31.6002 54.6608C33.4002 55.8608 35.4002 56.4608 37.4002 56.4608C40.2002 56.4608 43.0002 55.4608 45.2002 53.4608L46.4002 52.2608C48.4002 50.2608 48.4002 47.2608 46.4002 45.2608L41.2002 40.0608ZM43.4002 49.4608L42.2002 50.6608C40.0002 53.0608 36.4002 53.2608 33.8002 51.6608C25.4002 46.0608 18.4002 38.8608 12.8002 30.6608C11.2002 27.8608 11.6002 24.2608 13.8002 22.0608L15.2002 20.6608C15.4002 20.4608 15.6002 20.4608 15.8002 20.4608C16.0002 20.4608 16.2002 20.6608 16.4002 20.8608L21.6002 26.0608C22.0002 26.4608 22.0002 27.0608 21.6002 27.4608C19.6002 29.4608 19.6002 32.4608 21.6002 34.4608L30.0002 42.8608C31.0002 43.6608 32.2002 44.2608 33.6002 44.2608C34.8002 44.2608 36.0002 43.8608 37.0002 42.8608C37.2002 42.6608 37.4002 42.6608 37.6002 42.6608C37.6002 42.6608 38.0002 42.6608 38.2002 42.8608L43.4002 48.0608C43.8002 48.4608 43.8002 49.0608 43.4002 49.4608Z" fill="#2D373D"/>
<path d="M37.3996 33.8605C37.3996 35.0606 38.1996 35.8605 39.3996 35.8605C40.3996 35.8605 41.3996 35.0606 41.3996 33.8605C41.3996 27.8605 36.5996 23.0605 30.5996 23.0605C29.3996 23.0605 28.5996 23.8605 28.5996 25.0605C28.5996 26.2605 29.3996 27.0605 30.5996 27.0605C34.3996 27.0605 37.3996 30.0606 37.3996 33.8605Z" fill="#2D373D"/>
<path d="M30.4004 15.6606C29.2004 15.6606 28.4004 16.4606 28.4004 17.6606C28.4004 18.8606 29.2004 19.6606 30.4004 19.6606C38.2004 19.6606 44.6004 26.0606 44.6004 33.8606C44.6004 35.0606 45.4004 35.8606 46.6004 35.8606C47.8004 35.8606 48.6004 35.0606 48.6004 33.8606C48.6004 23.8606 40.4004 15.6606 30.4004 15.6606Z" fill="#2D373D"/>
<path d="M30.4004 8.26074C29.2004 8.26074 28.4004 9.06074 28.4004 10.2607C28.4004 11.4607 29.2004 12.2607 30.4004 12.2607C42.4004 12.2607 52.0004 21.8607 52.0004 33.8607C52.0004 35.0607 52.8004 35.8607 54.0004 35.8607C55.2004 35.8607 56.0004 35.0607 56.0004 33.8607C56.0004 19.6607 44.6004 8.26074 30.4004 8.26074Z" fill="#2D373D"/>
</svg>
