<svg width="64" height="64" viewBox="0 0 64 64" fill="none" xmlns="http://www.w3.org/2000/svg">
<path d="M53.9998 30H33.9998V9.80005C33.9998 8.60005 33.1998 7.80005 31.9998 7.80005C30.7998 7.80005 29.9998 8.60005 29.9998 9.80005V30H9.7998C8.5998 30 7.7998 30.8 7.7998 32C7.7998 33.2001 8.5998 34 9.7998 34H29.9998V54C29.9998 55.2001 30.7998 56 31.9998 56C32.9998 56 33.9998 55.2001 33.9998 54V34H53.9998C55.1998 34 55.9998 33.2001 55.9998 32C55.9998 30.8 55.1998 30 53.9998 30Z" fill="#2D373D"/>
</svg>
