<svg width="32" height="32" viewBox="0 0 32 32" fill="none" xmlns="http://www.w3.org/2000/svg">
<path fill-rule="evenodd" clip-rule="evenodd" d="M13.1217 10.2304C13.1217 6.92669 15.7998 4.24854 19.1035 4.24854C22.4071 4.24854 25.0853 6.92669 25.0853 10.2304C25.0853 13.3087 22.7592 15.8451 19.7694 16.1756C19.2204 16.2363 18.8246 16.7305 18.8853 17.2794C18.946 17.8284 19.4402 18.2242 19.9891 18.1635C23.981 17.7222 27.0853 14.3395 27.0853 10.2304C27.0853 5.82212 23.5117 2.24854 19.1035 2.24854C15.5585 2.24854 12.5533 4.55952 11.5122 7.75712C11.2054 7.7056 10.8906 7.67883 10.5701 7.67883C7.44715 7.67883 4.91553 10.2105 4.91553 13.3334C4.91553 16.4563 7.44715 18.9879 10.5701 18.9879C11.373 18.9879 12.1394 18.8199 12.8339 18.5163C13.3399 18.295 13.5707 17.7054 13.3494 17.1994C13.1282 16.6934 12.5386 16.4625 12.0326 16.6838C11.586 16.8791 11.0921 16.9879 10.5701 16.9879C8.55172 16.9879 6.91553 15.3517 6.91553 13.3334C6.91553 11.315 8.55172 9.67883 10.5701 9.67883C10.7635 9.67883 10.953 9.69377 11.1375 9.72248C11.127 9.89042 11.1217 10.0598 11.1217 10.2304C11.1217 10.6825 11.1593 11.1266 11.232 11.5594C11.3233 12.1041 11.839 12.4716 12.3836 12.3802C12.9283 12.2888 13.2958 11.7732 13.2044 11.2285C13.1501 10.9046 13.1217 10.5712 13.1217 10.2304Z" fill="#2D373D"/>
<path fill-rule="evenodd" clip-rule="evenodd" d="M16.7708 16.2883C17.1444 16.4431 17.3881 16.8077 17.3881 17.2122V21.3873L19.2446 21.6525C19.6092 21.7046 19.9156 21.9528 20.0422 22.2985C20.1689 22.6443 20.0953 23.0317 19.8506 23.3069L13.6446 30.2887C13.3687 30.599 12.9299 30.7066 12.5418 30.559C12.1537 30.4115 11.8972 30.0395 11.8972 29.6243V25.3627L9.5516 24.7763C9.20208 24.6889 8.92659 24.4203 8.83042 24.0731C8.73425 23.7259 8.83227 23.3538 9.08702 23.099L15.681 16.5051C15.967 16.2191 16.3971 16.1335 16.7708 16.2883ZM11.7501 23.2643L13.1397 23.6117C13.5849 23.723 13.8972 24.123 13.8972 24.5819V26.9941L17.1193 23.3692L16.2466 23.2446C15.754 23.1742 15.3881 22.7523 15.3881 22.2546V19.6264L11.7501 23.2643Z" fill="#2D373D"/>
</svg>
