<svg width="16" height="16" viewBox="0 0 16 16" fill="none" xmlns="http://www.w3.org/2000/svg">
<path d="M9.25015 5.34998C7.55015 5.34998 6.15015 6.74998 6.15015 8.44998C6.15015 10.15 7.55015 11.55 9.25015 11.55C10.9501 11.55 12.3501 10.15 12.3501 8.44998C12.3501 6.74998 10.9501 5.34998 9.25015 5.34998ZM9.25015 10.5C8.10015 10.5 7.15015 9.54998 7.15015 8.39998C7.15015 7.24998 8.10015 6.29998 9.25015 6.29998C10.4001 6.29998 11.3501 7.24998 11.3501 8.39998C11.3501 9.54998 10.4001 10.5 9.25015 10.5Z" fill="#2D373D"/>
<path d="M14.3001 4.4999C14.0501 4.2499 13.7001 4.0999 13.3501 4.0999H12.4001L11.9501 3.3999C11.7001 2.9499 11.2501 2.6499 10.7501 2.6499H7.6501C7.1501 2.6499 6.7001 2.9499 6.6001 3.3499L6.1501 4.0999H4.8001V3.7999C4.8001 3.4999 4.6001 3.2999 4.3001 3.2999C4.0001 3.2999 3.8001 3.4999 3.8001 3.7999V4.0999H2.7001C2.3501 4.0999 2.0001 4.2499 1.7501 4.4999C1.5001 4.7499 1.3501 5.0999 1.3501 5.4499V12.0499C1.3501 12.7499 1.9001 13.3499 2.6501 13.3499H13.3501C14.1001 13.3499 14.7001 12.7499 14.7001 12.0499V5.4499C14.7001 5.0999 14.5501 4.7499 14.3001 4.4999ZM13.7501 12.0499C13.7501 12.2499 13.6001 12.3999 13.4001 12.3999H2.6501C2.4501 12.3999 2.3001 12.2499 2.3001 12.0499V5.4499C2.3001 5.2499 2.4501 5.0999 2.6501 5.0999H6.3501C6.5001 5.0999 6.7001 4.9999 6.7501 4.8499L7.3501 3.8499C7.4001 3.6999 7.5501 3.6499 7.6501 3.6499H10.7501C10.9001 3.6499 11.0001 3.6999 11.1001 3.8499L11.7001 4.8499C11.8001 4.9999 12.0001 5.0999 12.1501 5.0999H13.4001C13.5001 5.0999 13.6001 5.1499 13.6501 5.1999C13.7001 5.2999 13.7501 5.3499 13.7501 5.4499V12.0499Z" fill="#2D373D"/>
<path d="M3.65007 7.14988C4.03667 7.14988 4.35007 6.83648 4.35007 6.44988C4.35007 6.06328 4.03667 5.74988 3.65007 5.74988C3.26347 5.74988 2.95007 6.06328 2.95007 6.44988C2.95007 6.83648 3.26347 7.14988 3.65007 7.14988Z" fill="#2D373D"/>
</svg>
