<svg width="32" height="32" viewBox="0 0 32 32" fill="none" xmlns="http://www.w3.org/2000/svg">
<path d="M27.3529 29.3502H4.68591C4.4048 29.3538 4.1258 29.3011 3.86538 29.1952C3.60495 29.0893 3.36837 28.9323 3.16957 28.7335C2.97078 28.5347 2.8138 28.2981 2.70789 28.0377C2.60198 27.7773 2.54929 27.4983 2.55291 27.2172V13.4842C2.54465 13.1723 2.61331 12.8632 2.75283 12.5841C2.89236 12.3051 3.09845 12.0647 3.35291 11.8842L15.3529 2.81719C15.526 2.68737 15.7365 2.61719 15.9529 2.61719C16.1693 2.61719 16.3798 2.68737 16.5529 2.81719L28.5529 11.8842C28.7864 12.0839 28.9774 12.3284 29.1148 12.6032C29.2522 12.878 29.3332 13.1776 29.3529 13.4842V27.3502C29.34 27.8765 29.1251 28.3778 28.7528 28.7501C28.3805 29.1224 27.8793 29.3373 27.3529 29.3502ZM4.68591 13.4842V27.3502L27.3529 27.4842C27.3705 27.4845 27.3879 27.4812 27.4041 27.4746C27.4204 27.468 27.4352 27.4582 27.4476 27.4458C27.46 27.4334 27.4698 27.4187 27.4763 27.4024C27.4829 27.3861 27.4862 27.3687 27.4859 27.3512V13.4842C27.4863 13.4666 27.4832 13.449 27.4766 13.4327C27.4701 13.4163 27.4603 13.4014 27.4479 13.3889C27.4355 13.3764 27.4207 13.3665 27.4044 13.3598C27.388 13.3532 27.3705 13.3499 27.3529 13.3502L16.0199 4.81719L4.68591 13.4842Z" fill="#2D373D"/>
</svg>
