<svg width="16" height="17" viewBox="0 0 16 17" fill="none" xmlns="http://www.w3.org/2000/svg">
<path d="M9.1 10.2617C8.8 10.2617 8.6 10.4617 8.6 10.7617V11.7117H3V4.61169C3 4.31169 3.1 4.06169 3.3 3.91169C3.5 3.71169 3.75 3.61169 4 3.61169H6.65C6.95 3.61169 7.15 3.41169 7.15 3.11169C7.15 2.81169 6.95 2.61169 6.65 2.61169H4C3.45 2.61169 2.95 2.81169 2.6 3.21169C2.2 3.56169 2 4.06169 2 4.61169V13.1617C2 14.2617 2.9 15.1617 4 15.1617H7.6C8.1 15.1617 8.6 14.9617 9 14.5617C9.4 14.2117 9.6 13.7117 9.6 13.1617V10.7617C9.6 10.4617 9.4 10.2617 9.1 10.2617ZM8.3 13.8617C8.1 14.0617 7.85 14.1617 7.6 14.1617H4C3.45 14.1617 3 13.7117 3 13.1617V12.7117H8.6V13.1617C8.6 13.4117 8.5 13.6617 8.3 13.8617Z" fill="#2D373D"/>
<path d="M13.1501 4.06172H11.7501V2.66172C11.7501 2.16172 11.3501 1.76172 10.8501 1.76172H9.3001C8.8001 1.76172 8.4001 2.16172 8.4001 2.66172V4.06172H7.0001C6.5001 4.06172 6.1001 4.46172 6.1001 4.96172V6.46172C6.1001 6.96172 6.5001 7.36172 7.0001 7.36172H8.4001V8.76172C8.4001 9.26172 8.8001 9.66172 9.3001 9.66172H10.8501C11.3501 9.66172 11.7501 9.26172 11.7501 8.81172V7.41172H13.1501C13.6501 7.41172 14.0501 7.01172 14.0501 6.51172V4.96172C14.0501 4.46172 13.6501 4.06172 13.1501 4.06172ZM13.0501 6.36172H11.2501C10.9501 6.36172 10.7501 6.56172 10.7501 6.86172V8.66172H9.4501V6.86172C9.4501 6.56172 9.2501 6.36172 8.9501 6.36172H7.1501V5.06172H8.9501C9.2501 5.06172 9.4501 4.86172 9.4501 4.56172V2.76172H10.7501V4.56172C10.7501 4.86172 10.9501 5.06172 11.2501 5.06172H13.0501V6.36172Z" fill="#2D373D"/>
</svg>
