<svg width="64" height="65" viewBox="0 0 64 65" fill="none" xmlns="http://www.w3.org/2000/svg">
<path d="M50.1998 25.4621H45.5998V19.0621C45.3998 11.6621 39.3998 5.66211 31.9998 5.66211H31.7998C28.1998 5.66211 24.7998 7.06211 22.1998 9.66211C19.7998 12.2621 18.3998 15.6621 18.3998 19.2621V25.4621H13.7998C12.5998 25.4621 11.7998 26.2621 11.7998 27.4621V57.2621C11.7998 58.4621 12.5998 59.2621 13.7998 59.2621H50.1998C51.1998 59.2621 52.1998 58.2621 52.1998 57.2621V27.4621C52.1998 26.2621 51.3998 25.4621 50.1998 25.4621ZM22.3998 19.2621C22.3998 16.6621 23.3998 14.0621 25.1998 12.2621C26.9998 10.4621 29.3998 9.46211 31.9998 9.46211C37.1998 9.26211 41.5998 13.6621 41.5998 18.8621V25.4621H22.3998V19.2621ZM48.1998 55.2621H15.7998V29.4621H48.1998V55.2621Z" fill="#2D373D"/>
<path d="M32 35.2622C28.2 35.2622 25 38.4622 25 42.2622C25 46.0622 28.2 49.2622 32 49.2622C35.8 49.2622 39 46.2622 39 42.2622C39 38.4622 35.8 35.2622 32 35.2622ZM32 45.4622C30.4 45.4622 29 44.0622 29 42.4622C29 40.8622 30.4 39.4622 32 39.4622C33.6 39.4622 35 40.8622 35 42.4622C35 44.0622 33.6 45.4622 32 45.4622Z" fill="#2D373D"/>
</svg>
