<svg width="32" height="33" viewBox="0 0 32 33" fill="none" xmlns="http://www.w3.org/2000/svg">
<path fill-rule="evenodd" clip-rule="evenodd" d="M27.074 20.1763V16.4492C27.0693 13.3732 25.8545 10.4224 23.6917 8.2306C21.5306 6.04055 18.5953 4.78275 15.5158 4.72588C14.8899 4.70681 14.2759 4.90251 13.7767 5.28088L10.3897 7.81337C9.04486 8.26483 7.79892 8.99837 6.74175 9.97878C4.97849 11.614 3.86342 13.8219 3.59164 16.2002C2.99789 16.8558 2.6665 17.71 2.6665 18.5987C2.6665 19.5486 3.045 20.4589 3.71775 21.1296C4.35772 21.7676 5.21404 22.1391 6.11385 22.1737V25.4723C6.11385 26.4221 6.49235 27.3325 7.1651 28.0031C7.83774 28.6737 8.74939 29.0499 9.69934 29.0499C10.6493 29.0499 11.5609 28.6737 12.2336 28.0031C12.873 27.3657 13.2466 26.5117 13.2821 25.6131H20.9031C21.593 25.6131 22.2736 25.453 22.8909 25.1453C23.5083 24.8375 24.0456 24.3906 24.4601 23.8396L25.7113 22.1763H28.3332C28.8855 22.1763 29.3332 21.7286 29.3332 21.1763C29.3332 20.624 28.8855 20.1763 28.3332 20.1763H27.074ZM15.4572 6.72503C15.2863 6.71929 15.1191 6.77266 14.9838 6.87554L14.9773 6.88049L14.3866 7.32209C15.7094 7.43069 17.0003 7.79955 18.1839 8.41034C19.6074 9.14488 20.8344 10.2081 21.7625 11.5117C22.0829 11.9616 21.9778 12.586 21.5279 12.9063C21.078 13.2266 20.4537 13.1216 20.1333 12.6717C19.3902 11.6281 18.4075 10.7763 17.2668 10.1876C16.1268 9.59935 14.8621 9.29097 13.5782 9.28829C11.545 9.29496 9.58958 10.0654 8.10172 11.4452C7.03888 12.4309 6.27047 13.6757 5.86235 15.0423C5.99116 15.0283 6.12121 15.0211 6.25199 15.0211H16.5939C17.1462 15.0211 17.5939 15.4688 17.5939 16.0211C17.5939 16.5734 17.1462 17.0211 16.5939 17.0211H6.25199C5.88043 17.0211 5.52276 17.1509 5.2397 17.3845C5.21965 17.4035 5.19884 17.4216 5.1773 17.4388C5.16119 17.4536 5.14535 17.4688 5.1298 17.4843C4.8328 17.7804 4.6665 18.1813 4.6665 18.5987C4.6665 19.0161 4.8328 19.4171 5.1298 19.7132C5.42691 20.0094 5.83051 20.1763 6.25199 20.1763H7.10827L7.11385 20.1763L7.11943 20.1763H25.074V16.4523C25.0699 13.9022 24.0628 11.4541 22.2681 9.63537C20.4731 7.81631 18.0334 6.77117 15.4729 6.72543L15.4572 6.72503ZM23.2086 22.1763H8.11385V25.4723C8.11385 25.8897 8.28015 26.2907 8.57715 26.5868C8.87425 26.883 9.27786 27.0499 9.69934 27.0499C10.1208 27.0499 10.5244 26.883 10.8215 26.5868C11.1185 26.2907 11.2848 25.8897 11.2848 25.4723V24.6131C11.2848 24.0608 11.7325 23.6131 12.2848 23.6131H20.9031C21.2836 23.6131 21.6587 23.5248 21.9987 23.3553C22.3387 23.1858 22.6342 22.9399 22.8619 22.6372L23.2086 22.1763Z" fill="#2D373D"/>
</svg>
