<svg width="16" height="17" viewBox="0 0 16 17" fill="none" xmlns="http://www.w3.org/2000/svg">
<path d="M6.31586 14.8992C7.76329 15.2759 9.2954 15.1545 10.6654 14.5545C11.1613 14.3373 11.6255 14.062 12.0494 13.7365C12.2684 13.5684 12.3096 13.2545 12.1414 13.0354C11.9733 12.8164 11.6594 12.7752 11.4404 12.9433C11.0801 13.2199 10.6856 13.4539 10.2642 13.6385C9.09992 14.1484 7.79785 14.2516 6.56775 13.9314C5.33765 13.6112 4.25114 12.8863 3.48321 11.8734C2.71528 10.8605 2.31065 9.61865 2.33449 8.34779C2.35833 7.07693 2.80926 5.85108 3.61463 4.86771C4.42001 3.88433 5.53295 3.20067 6.77419 2.92685C8.01543 2.65302 9.31271 2.80498 10.4571 3.35823C10.8068 3.52729 11.1359 3.73081 11.4404 3.96454C11.6594 4.13271 11.9733 4.09148 12.1414 3.87245C12.3096 3.65342 12.2684 3.33954 12.0493 3.17137C11.6911 2.89633 11.3038 2.65685 10.8923 2.45793C9.54579 1.80693 8.01931 1.62812 6.55877 1.95033C5.09822 2.27253 3.78865 3.07698 2.84098 4.23409C1.89331 5.39121 1.36272 6.83364 1.33467 8.32903C1.30662 9.82443 1.78274 11.2857 2.68634 12.4776C3.58994 13.6694 4.86843 14.5224 6.31586 14.8992Z" fill="#2D373D"/>
<path d="M11.6197 5.90012C11.8149 5.70486 12.1315 5.70486 12.3268 5.90012L14.5176 8.09092C14.6136 8.18203 14.6735 8.31088 14.6735 8.45371C14.6735 8.59715 14.6131 8.72649 14.5163 8.81767L12.3268 11.0072C12.1315 11.2025 11.8149 11.2025 11.6197 11.0072C11.4244 10.812 11.4244 10.4954 11.6197 10.3001L12.9661 8.95371H4.93349C4.65735 8.95371 4.43349 8.72985 4.43349 8.45371C4.43349 8.17757 4.65735 7.95371 4.93349 7.95371H12.9661L11.6197 6.60723C11.4244 6.41197 11.4244 6.09539 11.6197 5.90012Z" fill="#2D373D"/>
</svg>
