<svg width="16" height="17" viewBox="0 0 16 17" fill="none" xmlns="http://www.w3.org/2000/svg">
<path d="M5.09734 4.51264C5.09734 4.18622 5.19886 3.74612 5.44238 3.40202C5.67019 3.0801 6.02828 2.82813 6.61801 2.82813C7.19737 2.82813 7.57437 3.0937 7.82332 3.43947C8.0867 3.80527 8.1933 4.24809 8.1933 4.51264C8.1933 4.78878 8.41716 5.01264 8.6933 5.01264H10.6047C10.6613 5.01264 10.7572 5.03371 10.8246 5.08224C10.8533 5.10288 10.8745 5.12663 10.89 5.15658C10.9052 5.18614 10.9239 5.23937 10.9239 5.33183V6.69715C10.9239 6.97329 11.1478 7.19715 11.4239 7.19715C11.7001 7.19715 11.9239 6.97329 11.9239 6.69715V5.33183C11.9239 4.84119 11.7083 4.48629 11.4089 4.27071C11.135 4.07349 10.8213 4.01264 10.6047 4.01264H9.13872C9.06155 3.63866 8.89966 3.22295 8.63486 2.85516C8.22846 2.29072 7.56782 1.82812 6.61801 1.82812C5.67859 1.82812 5.02634 2.25881 4.62611 2.82435C4.36163 3.19806 4.21083 3.62324 4.14244 4.01264H2.68589C2.19525 4.01264 1.84035 4.22827 1.62477 4.52768C1.42755 4.8016 1.3667 5.11529 1.3667 5.33183V13.7968C1.3667 14.2874 1.58233 14.6424 1.88174 14.8579C2.15566 15.0552 2.46935 15.116 2.68589 15.116H7.00016C7.27631 15.116 7.50016 14.8921 7.50016 14.616C7.50016 14.3399 7.27631 14.116 7.00016 14.116H2.68589C2.62937 14.116 2.53346 14.0949 2.46605 14.0464C2.43738 14.0258 2.41611 14.002 2.40066 13.9721C2.38541 13.9425 2.3667 13.8893 2.3667 13.7968V5.33183C2.3667 5.27531 2.38777 5.1794 2.4363 5.11199C2.45695 5.08332 2.48069 5.06205 2.51065 5.04659C2.5402 5.03135 2.59343 5.01264 2.68589 5.01264H4.59734C4.87348 5.01264 5.09734 4.78878 5.09734 4.51264Z" fill="#2D373D"/>
<path d="M6.67259 4.7857C6.97421 4.7857 7.21872 4.54119 7.21872 4.23957C7.21872 3.93795 6.97421 3.69344 6.67259 3.69344C6.37097 3.69344 6.12646 3.93795 6.12646 4.23957C6.12646 4.54119 6.37097 4.7857 6.67259 4.7857Z" fill="#2D373D"/>
<path d="M4.05094 7.28939C3.7748 7.28939 3.55094 7.51325 3.55094 7.78939C3.55094 8.06553 3.7748 8.28939 4.05094 8.28939H7.05465C7.33079 8.28939 7.55465 8.06553 7.55465 7.78939C7.55465 7.51325 7.33079 7.28939 7.05465 7.28939H4.05094Z" fill="#2D373D"/>
<path d="M3.55094 9.70085C3.55094 9.4247 3.7748 9.20085 4.05094 9.20085H5.68933C5.96547 9.20085 6.18933 9.4247 6.18933 9.70085C6.18933 9.97699 5.96547 10.2008 5.68933 10.2008H4.05094C3.7748 10.2008 3.55094 9.97699 3.55094 9.70085Z" fill="#2D373D"/>
<path d="M4.05094 11.3854C3.7748 11.3854 3.55094 11.6092 3.55094 11.8854C3.55094 12.1615 3.7748 12.3854 4.05094 12.3854H5.68933C5.96547 12.3854 6.18933 12.1615 6.18933 11.8854C6.18933 11.6092 5.96547 11.3854 5.68933 11.3854H4.05094Z" fill="#2D373D"/>
<path d="M12.8883 10.5792C13.0717 10.3728 13.0531 10.0567 12.8467 9.87329C12.6404 9.68983 12.3243 9.70842 12.1409 9.91481L10.3086 11.9761L9.59135 11.2588C9.39608 11.0635 9.0795 11.0635 8.88424 11.2588C8.68898 11.454 8.68898 11.7706 8.88424 11.9659L9.9765 13.0581C10.0739 13.1555 10.2071 13.2084 10.3447 13.2044C10.4824 13.2003 10.6123 13.1397 10.7038 13.0368L12.8883 10.5792Z" fill="#2D373D"/>
<path fill-rule="evenodd" clip-rule="evenodd" d="M7.09977 11.3392C7.09977 9.25338 8.79069 7.56246 10.8765 7.56246C12.9624 7.56246 14.6533 9.25338 14.6533 11.3392C14.6533 13.4251 12.9624 15.116 10.8765 15.116C8.79069 15.116 7.09977 13.4251 7.09977 11.3392ZM10.8765 8.56246C9.34297 8.56246 8.09977 9.80566 8.09977 11.3392C8.09977 12.8728 9.34297 14.116 10.8765 14.116C12.4101 14.116 13.6533 12.8728 13.6533 11.3392C13.6533 9.80566 12.4101 8.56246 10.8765 8.56246Z" fill="#2D373D"/>
</svg>
