<svg width="64" height="65" viewBox="0 0 64 65" fill="none" xmlns="http://www.w3.org/2000/svg">
<path fill-rule="evenodd" clip-rule="evenodd" d="M8 47.7949C8 46.6904 8.89543 45.7949 10 45.7949H24C25.1046 45.7949 26 46.6904 26 47.7949C26 48.8995 25.1046 49.7949 24 49.7949H10C8.89543 49.7949 8 48.8995 8 47.7949Z" fill="#2D373D"/>
<path fill-rule="evenodd" clip-rule="evenodd" d="M8 31.7949C8 30.6904 8.89543 29.7949 10 29.7949H27.3333C28.4379 29.7949 29.3333 30.6904 29.3333 31.7949C29.3333 32.8995 28.4379 33.7949 27.3333 33.7949H10C8.89543 33.7949 8 32.8995 8 31.7949Z" fill="#2D373D"/>
<path d="M44.7684 50.5216C44.7615 50.5287 44.7546 50.5358 44.7476 50.5428C43.9665 51.3238 42.7002 51.3238 41.9191 50.5428L31.2525 39.8761C30.4714 39.0951 30.4714 37.8287 31.2525 37.0477C32.0335 36.2666 33.2998 36.2666 34.0809 37.0477L41.3333 44.3001V25.1283C41.3333 24.0237 42.2288 23.1283 43.3333 23.1283C44.4379 23.1283 45.3333 24.0237 45.3333 25.1283V44.2998L52.5858 37.0474C53.3668 36.2663 54.6332 36.2663 55.4142 37.0474C56.1953 37.8284 56.1953 39.0948 55.4142 39.8758L44.7684 50.5216Z" fill="#2D373D"/>
<path fill-rule="evenodd" clip-rule="evenodd" d="M8 15.7949C8 14.6904 8.89543 13.7949 10 13.7949H43.3333C44.4379 13.7949 45.3333 14.6904 45.3333 15.7949C45.3333 16.8995 44.4379 17.7949 43.3333 17.7949H10C8.89543 17.7949 8 16.8995 8 15.7949Z" fill="#2D373D"/>
</svg>
