<svg width="16" height="17" viewBox="0 0 16 17" fill="none" xmlns="http://www.w3.org/2000/svg">
<path d="M3.8499 8.92466C4.2499 8.92466 4.5499 8.62466 4.5499 8.22466C4.5499 7.82466 4.2499 7.52466 3.8499 7.52466C3.4499 7.52466 3.1499 7.82466 3.1499 8.22466C3.1499 8.62466 3.4499 8.92466 3.8499 8.92466Z" fill="#2D373D"/>
<path d="M12.1497 13.0746C12.5497 13.0746 12.8497 12.7746 12.8497 12.3746C12.8497 11.9746 12.5497 11.6746 12.1497 11.6746C11.7497 11.6746 11.4497 11.9746 11.4497 12.3746C11.4497 12.7746 11.7497 13.0746 12.1497 13.0746Z" fill="#2D373D"/>
<path d="M14.1998 5.67456H1.7998C1.4998 5.67456 1.2998 5.87456 1.2998 6.17456V14.4246C1.2998 14.7246 1.4998 14.9246 1.7998 14.9246H14.1998C14.4998 14.9246 14.6998 14.7246 14.6998 14.4246V6.17456C14.6998 5.87456 14.4998 5.67456 14.1998 5.67456ZM13.6998 13.9246H2.2998V6.67456H13.6998V13.9246Z" fill="#2D373D"/>
<path d="M7.99961 12.4746C9.19961 12.4746 10.1496 11.4746 10.1496 10.3246C10.1496 9.12456 9.19961 8.17456 7.99961 8.17456C6.79961 8.17456 5.84961 9.12456 5.84961 10.3246C5.84961 11.5246 6.79961 12.4746 7.99961 12.4746ZM7.99961 9.12456C8.64961 9.12456 9.14961 9.62456 9.14961 10.2746C9.14961 10.9246 8.64961 11.4246 7.99961 11.4246C7.34961 11.4246 6.84961 10.9246 6.84961 10.2746C6.84961 9.62456 7.34961 9.12456 7.99961 9.12456Z" fill="#2D373D"/>
<path d="M2.6499 4.92468H13.3999C13.6499 4.92468 13.8999 4.72468 13.8999 4.42468C13.8999 4.12468 13.6999 3.92468 13.3999 3.92468H2.6499C2.3499 3.92468 2.1499 4.12468 2.1499 4.42468C2.1499 4.72468 2.3499 4.92468 2.6499 4.92468Z" fill="#2D373D"/>
<path d="M4.2998 3.22461H11.6998C11.9998 3.22461 12.2498 3.02461 12.2498 2.72461C12.2498 2.42461 12.0498 2.22461 11.7498 2.22461H4.2998C3.9998 2.22461 3.7998 2.42461 3.7998 2.72461C3.7998 3.02461 3.9998 3.22461 4.2998 3.22461Z" fill="#2D373D"/>
</svg>
