<svg width="64" height="65" viewBox="0 0 64 65" fill="none" xmlns="http://www.w3.org/2000/svg">
<path d="M30.1144 17.4768C31.1558 18.5182 32.8442 18.5182 33.8856 17.4768C34.927 16.4354 34.927 14.7469 33.8856 13.7055C32.8442 12.6641 31.1558 12.6641 30.1144 13.7055C29.073 14.7469 29.073 16.4354 30.1144 17.4768Z" fill="#2D373D"/>
<path fill-rule="evenodd" clip-rule="evenodd" d="M31.2385 6.40846C31.7263 6.2076 32.2737 6.2076 32.7615 6.40846L44.0948 11.0751C44.8442 11.3837 45.3333 12.114 45.3333 12.9245V19.5911H46.6667C47.7712 19.5911 48.6667 20.4866 48.6667 21.5911C48.6667 22.6957 47.7712 23.5911 46.6667 23.5911H17.3333C16.2288 23.5911 15.3333 22.6957 15.3333 21.5911C15.3333 20.4866 16.2288 19.5911 17.3333 19.5911H18.6667V12.9245C18.6667 12.114 19.1558 11.3837 19.9052 11.0751L31.2385 6.40846ZM41.3333 14.2639V19.5911H22.6667V14.2639L32 10.4207L41.3333 14.2639Z" fill="#2D373D"/>
<path fill-rule="evenodd" clip-rule="evenodd" d="M30.2852 55.2845L23.9052 44.6513L21.1316 52.0476L27.6743 55.8641C28.6284 56.4207 28.9507 57.6453 28.3942 58.5994C27.8376 59.5535 26.613 59.8758 25.6589 59.3192L17.6589 54.6526C16.8171 54.1615 16.4518 53.1353 16.7939 52.2228L19.2553 45.6592C18.9459 45.8709 18.6428 46.0897 18.3467 46.3155C14.4671 49.274 12 53.2416 12 57.5911C12 58.6957 11.1046 59.5911 10 59.5911C8.89543 59.5911 8 58.6957 8 57.5911C8 51.6314 11.3783 46.599 15.9213 43.1348C20.4634 39.6712 26.3854 37.5911 32 37.5911C37.6146 37.5911 43.5366 39.6712 48.0787 43.1348C52.6217 46.599 56 51.6314 56 57.5911C56 58.6957 55.1046 59.5911 54 59.5911C52.8954 59.5911 52 58.6957 52 57.5911C52 53.2416 49.5329 49.274 45.6533 46.3155C45.3574 46.0899 45.0546 45.8712 44.7455 45.6597L47.2061 52.2214C47.5482 53.1338 47.1829 54.1601 46.3411 54.6512L38.3411 59.3178C37.387 59.8744 36.1624 59.5521 35.6058 58.598C35.0493 57.6439 35.3716 56.4193 36.3257 55.8627L42.8684 52.0461L40.0952 44.6511L33.7151 55.2845C33.3537 55.887 32.7027 56.2556 32.0001 56.2556C31.2976 56.2556 30.6466 55.887 30.2852 55.2845ZM32.0001 50.3683L27.0943 42.1919C28.7321 41.7991 30.3886 41.5911 32 41.5911C33.6115 41.5911 35.2681 41.7991 36.9059 42.192L32.0001 50.3683Z" fill="#2D373D"/>
<path d="M24.8571 26.6589C24.8571 25.5543 23.9617 24.6589 22.8571 24.6589C21.7525 24.6589 20.8571 25.5543 20.8571 26.6589C20.8571 29.6097 22.4295 32.1302 24.4897 33.8508C26.5482 35.57 29.2791 36.6589 32.0001 36.6589C34.721 36.6589 37.4519 35.5699 39.5103 33.8507C41.5705 32.1301 43.1428 29.6097 43.1428 26.6589C43.1428 25.5543 42.2474 24.6589 41.1428 24.6589C40.0382 24.6589 39.1428 25.5543 39.1428 26.6589C39.1428 28.1263 38.3529 29.6059 36.9462 30.7807C35.5379 31.9569 33.6974 32.6589 32.0001 32.6589C30.3028 32.6589 28.4622 31.9569 27.0538 30.7806C25.647 29.6058 24.8571 28.1262 24.8571 26.6589Z" fill="#2D373D"/>
</svg>
