<svg width="24" height="25" viewBox="0 0 24 25" fill="none" xmlns="http://www.w3.org/2000/svg">
<path fill-rule="evenodd" clip-rule="evenodd" d="M11.3552 3.0467C11.7698 2.88547 12.2297 2.88547 12.6442 3.0467L21.5169 6.49746C21.8055 6.6097 21.9956 6.88758 21.9956 7.19723V12.3338C21.9956 12.7484 21.6594 13.0846 21.2447 13.0846C20.8301 13.0846 20.4939 12.7484 20.4939 12.3338V8.29485L12.7506 11.3064V21.0659C12.7506 21.3137 12.6282 21.5456 12.4236 21.6856C12.2191 21.8255 11.9586 21.8555 11.7276 21.7656L2.48258 18.1701C2.19399 18.0578 2.00391 17.7799 2.00391 17.4703V7.19723C2.00391 6.88758 2.19399 6.6097 2.48258 6.49746L11.3552 3.0467ZM11.9997 9.98719L14.5508 8.99502L7.37723 6.20505L4.82613 7.19723L11.9997 9.98719ZM3.50556 8.29485V16.9567L11.2489 19.9683V11.3064L3.50556 8.29485ZM9.44863 5.39944L16.6222 8.1894L19.1733 7.19723L12.0999 4.44623C12.0355 4.42117 11.964 4.42117 11.8995 4.44623L9.44863 5.39944Z" fill="#2D373D"/>
<path fill-rule="evenodd" clip-rule="evenodd" d="M18.1247 21.4216C19.4364 21.4216 20.4997 20.3583 20.4997 19.0467C20.4997 18.7376 20.4064 18.2049 20.1841 17.5126C19.9694 16.8442 19.6645 16.1189 19.3154 15.454C18.9615 14.7798 18.5918 14.2243 18.2668 13.8614C18.2147 13.8033 18.1672 13.754 18.1247 13.7126C18.0822 13.754 18.0348 13.8033 17.9827 13.8614C17.6576 14.2243 17.288 14.7798 16.9341 15.454C16.585 16.1189 16.28 16.8442 16.0654 17.5126C15.8431 18.2049 15.7497 18.7376 15.7497 19.0467C15.7497 20.3583 16.813 21.4216 18.1247 21.4216ZM18.1247 22.9216C20.2648 22.9216 21.9997 21.1868 21.9997 19.0467C21.9997 16.9066 19.6747 12.0718 18.1247 12.0718C16.5747 12.0718 14.2497 16.9066 14.2497 19.0467C14.2497 21.1868 15.9846 22.9216 18.1247 22.9216Z" fill="#2D373D"/>
</svg>
