<svg width="64" height="64" viewBox="0 0 64 64" fill="none" xmlns="http://www.w3.org/2000/svg">
<path d="M54.1999 9.8001C51.5999 7.2001 47.1999 7.2001 44.5999 9.8001L24.1999 30.4001C23.7999 30.8001 23.5999 31.2001 23.5999 31.6001L22.3999 39.6001C22.3999 40.2001 22.5999 40.8001 22.9999 41.2001C23.3999 41.6001 23.7999 41.8001 24.3999 41.8001H24.5999L32.5999 40.6001C32.9999 40.6001 33.3999 40.4001 33.7999 40.0001L54.1999 19.4001C55.3999 18.2001 56.1999 16.4001 56.1999 14.6001C56.1999 12.8001 55.3999 11.0001 54.1999 9.8001ZM51.3999 16.6001L31.3999 36.6001L26.7999 37.2001L27.3999 32.6001L47.3999 12.6001C48.3999 11.4001 50.1999 11.4001 51.3999 12.6001C52.5999 13.6001 52.5999 15.4001 51.3999 16.6001Z" fill="#2D373D"/>
<path d="M48.6 32.6004C47.4 32.6004 46.6 33.4004 46.6 34.6004V50.8004C46.6 51.0004 46.4 51.4004 46.2 51.6004C46 51.8004 45.8 52.0004 45.4 52.0004H13.2C12.6 52.0004 12 51.4004 12 50.8004V18.6004C12 17.8004 12.6 17.2004 13.2 17.4004H29.4C30.6 17.4004 31.4 16.6004 31.4 15.4004C31.4 14.2004 30.6 13.4004 29.4 13.4004H13.2C10.4 13.4004 8 15.8004 8 18.6004V50.8004C8 53.6004 10.4 56.0004 13.2 56.0004H45.4C46.8 56.0004 48.2 55.4004 49 54.4004C50 53.6004 50.6 52.2004 50.6 50.8004V34.6004C50.6 33.4004 49.8 32.6004 48.6 32.6004Z" fill="#2D373D"/>
</svg>
