<svg width="24" height="25" viewBox="0 0 24 25" fill="none" xmlns="http://www.w3.org/2000/svg">
<path d="M18.8248 9.83711H17.0998V7.43711C17.0248 4.66211 14.7748 2.41211 11.9998 2.41211H11.9248C10.5748 2.41211 9.29981 2.93711 8.32481 3.91211C7.42481 4.88711 6.8998 6.16211 6.8998 7.51211V9.83711H5.1748C4.7248 9.83711 4.4248 10.1371 4.4248 10.5871V21.7621C4.4248 22.2121 4.7248 22.5121 5.1748 22.5121H18.8248C19.1998 22.5121 19.5748 22.1371 19.5748 21.7621V10.5871C19.5748 10.1371 19.2748 9.83711 18.8248 9.83711ZM8.3998 7.51211C8.3998 6.53711 8.77481 5.56211 9.44981 4.88711C10.1248 4.21211 11.0248 3.83711 11.9998 3.83711C13.9498 3.76211 15.5998 5.41211 15.5998 7.36211V9.83711H8.3998V7.51211ZM18.0748 21.0121H5.9248V11.3371H18.0748V21.0121Z" fill="#2D373D"/>
<path d="M11.9999 13.5121C10.5749 13.5121 9.37488 14.7121 9.37488 16.1371C9.37488 17.5621 10.5749 18.7621 11.9999 18.7621C13.4249 18.7621 14.6249 17.6371 14.6249 16.1371C14.6249 14.7121 13.4249 13.5121 11.9999 13.5121ZM11.9999 17.3371C11.3999 17.3371 10.8749 16.8121 10.8749 16.2121C10.8749 15.6121 11.3999 15.0871 11.9999 15.0871C12.5999 15.0871 13.1249 15.6121 13.1249 16.2121C13.1249 16.8121 12.5999 17.3371 11.9999 17.3371Z" fill="#2D373D"/>
</svg>
