<svg width="64" height="65" viewBox="0 0 64 65" fill="none" xmlns="http://www.w3.org/2000/svg">
<path fill-rule="evenodd" clip-rule="evenodd" d="M23.2161 8.92188C20.5432 8.92188 17.9799 9.9807 16.0899 11.8654C14.8047 13.147 13.9025 14.7391 13.4566 16.4649H12.9373C11.8315 16.4649 10.9351 17.3588 10.9351 18.4616C10.9351 19.5643 11.8315 20.4582 12.9373 20.4582H13.2489C13.5661 22.5737 14.5548 24.5474 16.0899 26.0782C17.4032 27.3879 19.0418 28.2988 20.8163 28.7327C18.6715 29.084 16.6232 29.9014 14.8103 31.1315C12.7106 32.5563 10.9934 34.4891 9.80723 36.7527C8.62116 39.016 8.00121 41.5423 7.99951 44.1063C7.99878 45.2091 8.89463 46.1036 10.0004 46.1043C11.1062 46.1051 12.0033 45.2117 12.004 44.109C12.0053 42.1838 12.471 40.2916 13.3563 38.6022C14.2415 36.9131 15.5168 35.4823 17.0631 34.4331C18.6089 33.3841 20.379 32.7481 22.2146 32.577C24.0502 32.406 25.8999 32.7046 27.5998 33.4488C28.6124 33.892 29.7935 33.4328 30.238 32.4231C30.6825 31.4133 30.222 30.2355 29.2095 29.7922C28.0564 29.2874 26.8509 28.9322 25.621 28.7314C27.3935 28.297 29.0302 27.3866 30.3423 26.0782C31.8773 24.5474 32.866 22.5737 33.1833 20.4582H33.4938C34.5996 20.4582 35.496 19.5643 35.496 18.4616C35.496 17.3588 34.5996 16.4649 33.4938 16.4649H32.9755C32.5297 14.7391 31.6275 13.147 30.3423 11.8654C28.4523 9.9807 25.8889 8.92188 23.2161 8.92188ZM28.7449 16.4649C28.4464 15.8102 28.0305 15.2075 27.5107 14.6892C27.2817 14.4608 27.0362 14.2525 26.7771 14.0655L26.8109 16.4649H28.7449ZM24.0919 12.9785C23.8036 12.9366 23.5109 12.9152 23.2161 12.9152C22.9242 12.9152 22.6345 12.9362 22.349 12.9772L22.349 16.4649H24.141L24.0919 12.9785ZM19.6793 14.0481C19.4113 14.2395 19.1576 14.4536 18.9215 14.6892C18.4017 15.2075 17.9858 15.8102 17.6873 16.4649H19.6793L19.6793 14.0481ZM17.3283 20.4582C17.5948 21.5076 18.1409 22.4761 18.9215 23.2544C20.0605 24.3903 21.6053 25.0284 23.2161 25.0284C24.8269 25.0284 26.3717 24.3903 27.5107 23.2544C28.2912 22.4761 28.8374 21.5076 29.1038 20.4582H17.3283Z" fill="#2D373D"/>
<path fill-rule="evenodd" clip-rule="evenodd" d="M42.6517 37.0084C41.5896 37.0084 40.5711 37.4291 39.8201 38.178C39.0691 38.9269 38.6472 39.9426 38.6472 41.0017C38.6472 42.0608 39.0691 43.0766 39.8201 43.8255C40.2465 44.2506 40.759 44.57 41.3169 44.7667V48.9884C41.3169 49.7236 41.9145 50.3195 42.6517 50.3195C43.3889 50.3195 43.9865 49.7236 43.9865 48.9884V44.7667C44.5444 44.57 45.057 44.2506 45.4833 43.8255C46.2343 43.0766 46.6562 42.0608 46.6562 41.0017C46.6562 39.9426 46.2343 38.9269 45.4833 38.178C44.7323 37.4291 43.7138 37.0084 42.6517 37.0084ZM42.6517 42.3328C43.0057 42.3328 43.3452 42.1926 43.5956 41.943C43.8459 41.6933 43.9865 41.3548 43.9865 41.0017C43.9865 40.6487 43.8459 40.3101 43.5956 40.0605C43.3452 39.8109 43.0057 39.6706 42.6517 39.6706C42.2977 39.6706 41.9582 39.8109 41.7078 40.0605C41.4575 40.3101 41.3169 40.6487 41.3169 41.0017C41.3169 41.3548 41.4575 41.6933 41.7078 41.943C41.9582 42.1926 42.2977 42.3328 42.6517 42.3328Z" fill="#2D373D"/>
<path fill-rule="evenodd" clip-rule="evenodd" d="M32.7568 33.7438C35.3101 31.1976 38.7732 29.7671 42.3842 29.7671C45.9952 29.7671 49.4583 31.1976 52.0117 33.7438C54.565 36.2901 55.9995 39.7435 55.9995 43.3445C55.9995 46.9454 54.565 50.3989 52.0117 52.9452C49.4583 55.4914 45.9952 56.9219 42.3842 56.9219C38.7732 56.9219 35.3101 55.4914 32.7568 52.9452C30.2034 50.3989 28.7689 46.9454 28.7689 43.3445C28.7689 39.7435 30.2034 36.2901 32.7568 33.7438ZM42.3842 33.7605C39.8353 33.7605 37.3907 34.7702 35.5884 36.5676C33.786 38.3649 32.7734 40.8026 32.7734 43.3445C32.7734 45.8863 33.786 48.3241 35.5884 50.1214C37.3907 51.9188 39.8353 52.9285 42.3842 52.9285C44.9332 52.9285 47.3777 51.9188 49.1801 50.1214C50.9824 48.3241 51.995 45.8863 51.995 43.3445C51.995 40.8026 50.9824 38.3649 49.1801 36.5676C47.3777 34.7702 44.9332 33.7605 42.3842 33.7605Z" fill="#2D373D"/>
</svg>
