<svg width="24" height="24" viewBox="0 0 24 24" fill="none" xmlns="http://www.w3.org/2000/svg">
<path d="M15.9375 12.765C16.1364 12.765 16.3271 12.686 16.4678 12.5454C16.6084 12.4047 16.6875 12.2139 16.6875 12.015V6.76503C16.6875 6.56612 16.6084 6.37535 16.4678 6.2347C16.3271 6.09405 16.1364 6.01503 15.9375 6.01503C15.043 6.01701 14.1857 6.37322 13.5532 7.00573C12.9207 7.63824 12.5644 8.49553 12.5625 9.39003V10.05C12.5625 10.2489 12.6415 10.4397 12.7821 10.5804C12.9228 10.721 13.1136 10.8 13.3125 10.8H15.1875V12.015C15.1875 12.2139 15.2665 12.4047 15.4071 12.5454C15.5478 12.686 15.7386 12.765 15.9375 12.765ZM14.0625 9.29253C14.0853 8.82643 14.2804 8.38541 14.61 8.05503C14.7794 7.89175 14.9745 7.75746 15.1875 7.65753V9.29253H14.0625Z" fill="#2D373D"/>
<path d="M11.4375 8.08503C11.4348 7.53814 11.2196 7.01371 10.8375 6.62253C10.4412 6.25078 9.91829 6.04387 9.37496 6.04387C8.83164 6.04387 8.3087 6.25078 7.91246 6.62253C7.52756 7.01192 7.31193 7.53751 7.31246 8.08503C7.31246 8.28394 7.39148 8.47471 7.53213 8.61536C7.67279 8.75601 7.86355 8.83503 8.06246 8.83503C8.26138 8.83503 8.45214 8.75601 8.59279 8.61536C8.73345 8.47471 8.81246 8.28394 8.81246 8.08503C8.81259 7.93589 8.87194 7.79292 8.97746 7.68753C9.08477 7.58571 9.22705 7.52896 9.37496 7.52896C9.52288 7.52896 9.66516 7.58571 9.77246 7.68753C9.87798 7.79292 9.93733 7.93589 9.93746 8.08503C9.93535 8.34096 9.8483 8.58894 9.68996 8.79003L7.49996 11.565C7.41995 11.6709 7.36946 11.7961 7.35365 11.9279C7.33784 12.0596 7.35727 12.1932 7.40996 12.315C7.47075 12.4427 7.56637 12.5505 7.6858 12.6261C7.80523 12.7018 7.9436 12.7421 8.08496 12.7425H10.71C10.9089 12.7425 11.0996 12.6635 11.2403 12.5229C11.3809 12.3822 11.46 12.1914 11.46 11.9925C11.46 11.7936 11.3809 11.6029 11.2403 11.4622C11.0996 11.3215 10.9089 11.2425 10.71 11.2425H9.62246L10.86 9.76503C11.2419 9.28916 11.4461 8.69513 11.4375 8.08503Z" fill="#2D373D"/>
<path d="M21.6225 9.53253C21.0659 7.37407 19.7992 5.46566 18.0264 4.11444C16.2536 2.76322 14.0776 2.04779 11.8489 2.08329C9.62008 2.11879 7.46805 2.90316 5.73915 4.31016C4.01025 5.71715 2.80503 7.66494 2.31746 9.84003L2.12246 9.54753C2.06731 9.46578 1.99659 9.3957 1.91435 9.34128C1.83211 9.28686 1.73996 9.24917 1.64315 9.23037C1.44765 9.19239 1.24506 9.23364 1.07996 9.34503C0.914866 9.45642 0.800781 9.62883 0.762805 9.82434C0.724828 10.0198 0.766072 10.2224 0.877463 10.3875L2.18996 12.3375C2.20303 12.3543 2.21814 12.3695 2.23496 12.3825C2.26676 12.4232 2.30472 12.4586 2.34746 12.4875L2.45246 12.57L2.59496 12.6225C2.59496 12.6225 2.63996 12.6225 2.66996 12.6225H2.83496C2.91419 12.6185 2.99245 12.6033 3.06746 12.5775L3.23246 12.495L5.18246 11.265C5.34655 11.1526 5.45928 10.9797 5.49585 10.7842C5.53242 10.5887 5.48983 10.3866 5.37746 10.2225C5.26633 10.0593 5.09533 9.94655 4.90157 9.90864C4.7078 9.87073 4.5069 9.91075 4.34246 10.02L3.74996 10.4025C4.03383 8.9689 4.6852 7.63358 5.64029 6.52737C6.59537 5.42116 7.82141 4.582 9.19831 4.09208C10.5752 3.60216 12.0558 3.47828 13.4949 3.73258C14.9341 3.98688 16.2825 4.61064 17.4082 5.54275C18.5338 6.47487 19.398 7.68338 19.9162 9.04991C20.4343 10.4164 20.5886 11.8941 20.364 13.3382C20.1394 14.7823 19.5435 16.1433 18.6348 17.2879C17.726 18.4325 16.5355 19.3214 15.18 19.8675C13.2863 20.6374 11.1774 20.6929 9.24579 20.0237C7.31422 19.3546 5.6916 18.0063 4.67996 16.23C4.63072 16.1443 4.56508 16.0692 4.48679 16.0089C4.4085 15.9486 4.3191 15.9042 4.22369 15.8785C4.12827 15.8527 4.02872 15.846 3.93071 15.8587C3.8327 15.8714 3.73815 15.9033 3.65246 15.9525C3.56678 16.0018 3.49163 16.0674 3.43131 16.1457C3.37099 16.224 3.32668 16.3134 3.30091 16.4088C3.27514 16.5042 3.26842 16.6038 3.28113 16.7018C3.29383 16.7998 3.32572 16.8943 3.37496 16.98C4.56835 19.0722 6.48252 20.6585 8.75996 21.4425C9.80146 21.806 10.8969 21.9911 12 21.99C13.5191 21.9871 15.0174 21.6367 16.3802 20.9657C17.7431 20.2947 18.9344 19.3208 19.863 18.1186C20.7916 16.9164 21.433 15.5177 21.7379 14.0295C22.0429 12.5413 22.0034 11.0031 21.6225 9.53253Z" fill="#2D373D"/>
<path d="M10.1775 14.52C9.98157 14.3225 9.74762 14.1668 9.48978 14.0624C9.23195 13.958 8.95559 13.907 8.67746 13.9125C8.47855 13.9125 8.28779 13.9915 8.14713 14.1322C8.00648 14.2729 7.92746 14.4636 7.92746 14.6625C7.92746 14.8614 8.00648 15.0522 8.14713 15.1929C8.28779 15.3335 8.47855 15.4125 8.67746 15.4125C8.75143 15.4118 8.82479 15.426 8.89311 15.4543C8.96142 15.4827 9.02329 15.5246 9.07496 15.5775C9.12961 15.6283 9.17314 15.6898 9.20283 15.7582C9.23252 15.8266 9.24772 15.9005 9.24746 15.975C9.24335 16.127 9.1817 16.2718 9.07496 16.38C9.02329 16.433 8.96142 16.4749 8.89311 16.5032C8.82479 16.5316 8.75143 16.5458 8.67746 16.545C8.47855 16.545 8.28779 16.624 8.14713 16.7647C8.00648 16.9054 7.92746 17.0961 7.92746 17.295C7.92746 17.4939 8.00648 17.6847 8.14713 17.8254C8.28779 17.966 8.47855 18.045 8.67746 18.045C8.95536 18.0489 9.23121 17.9971 9.48881 17.8927C9.74641 17.7884 9.98055 17.6336 10.1775 17.4375C10.3766 17.2334 10.5322 16.991 10.635 16.725H13.365C13.4677 16.991 13.6233 17.2334 13.8225 17.4375C14.2111 17.8245 14.7365 18.0428 15.285 18.045C15.4839 18.045 15.6746 17.966 15.8153 17.8254C15.9559 17.6847 16.035 17.4939 16.035 17.295C16.035 17.0961 15.9559 16.9054 15.8153 16.7647C15.6746 16.624 15.4839 16.545 15.285 16.545C15.2094 16.5446 15.1347 16.5291 15.0651 16.4995C14.9956 16.4698 14.9327 16.4267 14.88 16.3725C14.7771 16.2654 14.7182 16.1235 14.715 15.975C14.7147 15.9005 14.7299 15.8266 14.7596 15.7582C14.7893 15.6898 14.8328 15.6283 14.8875 15.5775C14.9929 15.472 15.1358 15.4127 15.285 15.4125C15.4839 15.4125 15.6746 15.3335 15.8153 15.1929C15.9559 15.0522 16.035 14.8614 16.035 14.6625C16.035 14.4636 15.9559 14.2729 15.8153 14.1322C15.6746 13.9915 15.4839 13.9125 15.285 13.9125C15.0131 13.912 14.7439 13.9655 14.4928 14.0697C14.2418 14.174 14.0139 14.3271 13.8225 14.52C13.6211 14.7194 13.465 14.9599 13.365 15.225H10.635C10.5349 14.9599 10.3788 14.7194 10.1775 14.52Z" fill="#2D373D"/>
</svg>
