<svg width="16" height="17" viewBox="0 0 16 17" fill="none" xmlns="http://www.w3.org/2000/svg">
<path d="M14.6998 7.26016C14.6998 6.96016 14.4998 6.76016 14.1998 6.76016C13.8998 6.76016 13.6998 6.96016 13.6998 7.26016C13.6998 7.51016 13.6498 7.66016 13.5498 7.76016C13.4998 7.81016 13.3998 7.86016 13.2998 7.91016C13.1498 6.51016 12.3998 5.36016 11.2998 4.51016C9.8498 3.46016 7.8498 3.11016 6.0498 3.56016C5.1998 2.41016 3.5498 2.41016 3.4998 2.41016C3.3498 2.41016 3.1998 2.46016 3.0998 2.56016C2.9998 2.66016 2.9998 2.81016 2.9998 2.96016L3.3498 5.26016C2.9998 5.66016 2.6998 6.16016 2.4998 6.66016H1.7998C1.4998 6.66016 1.2998 6.86016 1.2998 7.16016V10.5102C1.2998 10.8102 1.4998 11.0102 1.7998 11.0102H2.9498C3.1998 11.4102 3.4998 11.8102 3.8498 12.1102V13.5102C3.8498 14.0602 4.2998 14.4602 4.7998 14.4602H5.5998C6.14981 14.4602 6.5498 14.0102 6.5498 13.5102V13.4602C7.3498 13.6102 8.1498 13.6102 8.9498 13.4602V13.5102C8.9498 14.0602 9.3998 14.4602 9.8998 14.4602H10.7498C11.2498 14.4602 11.6498 14.0602 11.6498 13.6102V12.2102C12.5998 11.4102 13.1998 10.2102 13.3498 8.91016C13.7498 8.81016 14.0498 8.66016 14.2498 8.46016C14.5498 8.16016 14.6998 7.76016 14.6998 7.26016ZM10.8498 11.5102C10.6998 11.6102 10.6498 11.7602 10.6498 11.9102V13.4602H9.9498V12.8102C9.9498 12.6602 9.8998 12.5102 9.7498 12.4102C9.5998 12.3602 9.4498 12.3102 9.2998 12.3602C8.2998 12.7102 7.1998 12.7102 6.1998 12.3602C6.0498 12.3102 5.8998 12.3102 5.7498 12.4102C5.6498 12.5102 5.5498 12.6602 5.5498 12.8102V13.4602H4.8498V11.9102C4.8498 11.7602 4.7998 11.6102 4.6498 11.5102C4.2498 11.1602 3.8998 10.7602 3.6498 10.3102C3.5498 10.1602 3.3998 10.0602 3.1998 10.0602H2.2998V7.66016H2.8498C3.0998 7.66016 3.2998 7.51016 3.3498 7.31016C3.4998 6.71016 3.7998 6.16016 4.1998 5.76016C4.2998 5.66016 4.3498 5.51016 4.3498 5.36016L4.0998 3.51016C4.5498 3.61016 5.14981 3.81016 5.39981 4.31016C5.4998 4.56016 5.7498 4.66016 5.9998 4.56016C7.5998 4.06016 9.4498 4.31016 10.7498 5.26016C11.4498 5.76016 12.3498 6.76016 12.3498 8.41016C12.3498 9.61016 11.7998 10.7602 10.8498 11.5102Z" fill="#2D373D"/>
<path d="M9.69984 5.46013C8.49984 4.86013 7.04984 4.86013 5.84984 5.46013C5.59984 5.56013 5.49984 5.86013 5.59984 6.11013C5.69984 6.31013 5.84984 6.41013 6.04984 6.41013C6.14984 6.41013 6.19984 6.36013 6.29984 6.36013C7.19984 5.86013 8.29984 5.86013 9.29984 6.36013C9.54984 6.46013 9.84984 6.36013 9.94984 6.11013C10.0498 5.86013 9.94984 5.56013 9.69984 5.46013Z" fill="#2D373D"/>
<path d="M4.9998 7.11011C4.5998 7.11011 4.2998 7.41011 4.2998 7.81011C4.2998 8.21011 4.5998 8.51011 4.9998 8.51011C5.3998 8.51011 5.6998 8.21011 5.6998 7.81011C5.6998 7.41011 5.3998 7.11011 4.9998 7.11011Z" fill="#2D373D"/>
</svg>
