<svg width="32" height="33" viewBox="0 0 32 33" fill="none" xmlns="http://www.w3.org/2000/svg">
<path fill-rule="evenodd" clip-rule="evenodd" d="M23.4817 6.51229C21.3861 5.91068 18.581 5.58998 15.9999 5.58984C13.4189 5.58971 10.6139 5.91034 8.51826 6.51195C7.45772 6.81641 6.71117 7.15599 6.27341 7.46809C6.12029 7.57725 6.03969 7.6559 6 7.70208V16.923C6 19.977 7.39406 22.8327 9.43881 24.9505C11.5155 27.1014 14.0277 28.2565 16.0001 28.2565C17.9724 28.2566 20.4845 27.1016 22.5612 24.9507C24.6059 22.8329 26 19.9771 26 16.923V7.7023C25.9603 7.65613 25.8797 7.5775 25.7267 7.46839C25.2889 7.15631 24.5423 6.81675 23.4817 6.51229ZM26.0341 7.75087C26.0341 7.75087 26.0292 7.74497 26.024 7.73283C26.0323 7.74476 26.0341 7.75087 26.0341 7.75087ZM5.9659 7.75063C5.9659 7.75063 5.96769 7.74451 5.97601 7.73257C5.97085 7.74471 5.9659 7.75063 5.9659 7.75063ZM16 3.58984C21.4229 3.59012 28 4.92318 28 7.58972V16.923C28 24.2565 21.3333 30.2567 16 30.2565C10.6667 30.2564 4 24.2564 4 16.923V7.58957C4 4.9229 10.5771 3.58956 16 3.58984Z" fill="#2D373D"/>
<path d="M19.3 12.8232L14.2 17.9232L12.7 16.4232C12.3 16.0232 11.7 16.0232 11.3 16.4232C10.9 16.8232 10.9 17.4232 11.3 17.8232L13 19.5232C13.3 19.8232 13.8 20.0232 14.2 20.0232C14.7 20.0232 15.1 19.8232 15.4 19.5232L20.7 14.2232C21.1 13.8232 21.1 13.2232 20.7 12.8232C20.3 12.4232 19.7 12.4232 19.3 12.8232Z" fill="#2D373D"/>
</svg>
