<svg width="32" height="32" viewBox="0 0 32 32" fill="none" xmlns="http://www.w3.org/2000/svg">
<path d="M24.9592 26.3744C25.3498 26.7649 25.9829 26.7649 26.3734 26.3744C26.764 25.9839 26.764 25.3507 26.3734 24.9602L17.4139 16.0007L26.3734 7.04109C26.764 6.65057 26.764 6.0174 26.3734 5.62688C25.9829 5.23635 25.3498 5.23636 24.9592 5.62688L15.9997 14.5864L7.04011 5.62688C6.64959 5.23635 6.01642 5.23635 5.6259 5.62688C5.23538 6.0174 5.23538 6.65057 5.6259 7.04109L14.5855 16.0007L5.62591 24.9602C5.23538 25.3507 5.23538 25.9839 5.62591 26.3744C6.01643 26.7649 6.64959 26.7649 7.04012 26.3744L15.9997 17.4149L24.9592 26.3744Z" fill="#2D373D"/>
</svg>
