<svg width="32" height="33" viewBox="0 0 32 33" fill="none" xmlns="http://www.w3.org/2000/svg">
<path d="M26.7998 13.2617H26.2998V11.2617C26.2998 9.86172 25.1998 8.76172 23.7998 8.76172H14.2998V8.26172C14.2998 6.86172 13.1998 5.76172 11.7998 5.76172H7.2998C5.8998 5.76172 4.7998 6.86172 4.7998 8.26172V24.5617C4.7998 25.2617 5.0998 25.9617 5.5998 26.3617C5.9998 26.7617 6.5998 26.9617 7.0998 27.0617C7.1998 27.1617 7.3998 27.1617 7.4998 27.1617H24.5998C25.6998 27.1617 26.6998 26.4617 26.9998 25.3617L29.1998 16.3617C29.2998 16.1617 29.2998 15.9617 29.2998 15.7617C29.2998 14.3617 28.1998 13.2617 26.7998 13.2617ZM7.4998 25.2617C7.2998 25.2617 7.0998 25.1617 6.9998 25.0617C6.8998 24.8617 6.7998 24.7617 6.7998 24.5617V8.26172C6.7998 7.96172 6.9998 7.76172 7.2998 7.76172H11.7998C12.0998 7.76172 12.2998 7.96172 12.2998 8.26172V9.76172C12.2998 10.3617 12.6998 10.7617 13.2998 10.7617H23.6998C23.9998 10.7617 24.1998 10.9617 24.1998 11.2617V13.2617H12.8998C11.7998 13.2617 10.7998 13.9617 10.4998 15.1617L8.1998 24.7617C8.0998 25.0617 7.7998 25.2617 7.4998 25.2617ZM27.2998 15.7617L25.0998 24.7617C24.9998 24.9617 24.7998 25.1617 24.5998 25.1617H10.0998L12.3998 15.5617C12.4998 15.2617 12.6998 15.1617 12.8998 15.1617H25.2998H26.7998C27.0998 15.1617 27.2998 15.3617 27.2998 15.6617C27.2998 15.6617 27.2998 15.6617 27.2998 15.7617Z" fill="#2D373D"/>
</svg>
