<svg width="16" height="16" viewBox="0 0 16 16" fill="none" xmlns="http://www.w3.org/2000/svg">
<path d="M10.5531 5.44564C10.7483 5.6409 10.7483 5.95749 10.5531 6.15275L8.70648 7.99933L10.5531 9.84591C10.7483 10.0412 10.7483 10.3578 10.5531 10.553C10.3578 10.7483 10.0412 10.7483 9.84596 10.553L7.99937 8.70644L6.15279 10.553C5.95753 10.7483 5.64095 10.7483 5.44569 10.553C5.25042 10.3578 5.25042 10.0412 5.44569 9.84591L7.29227 7.99933L5.44569 6.15275C5.25042 5.95749 5.25042 5.6409 5.44569 5.44564C5.64095 5.25038 5.95753 5.25038 6.15279 5.44564L7.99937 7.29222L9.84596 5.44564C10.0412 5.25038 10.3578 5.25038 10.5531 5.44564Z" fill="#2D373D"/>
<path fill-rule="evenodd" clip-rule="evenodd" d="M1.99902 3.2324C1.99902 2.55123 2.55123 1.99902 3.2324 1.99902H12.7663C13.4475 1.99902 13.9997 2.55123 13.9997 3.2324V12.7663C13.9997 13.4475 13.4475 13.9997 12.7663 13.9997H3.2324C2.55123 13.9997 1.99902 13.4475 1.99902 12.7663V3.2324ZM3.2324 2.99902C3.10351 2.99902 2.99902 3.10351 2.99902 3.2324V12.7663C2.99902 12.8952 3.10351 12.9997 3.2324 12.9997H12.7663C12.8952 12.9997 12.9997 12.8952 12.9997 12.7663V3.2324C12.9997 3.10351 12.8952 2.99902 12.7663 2.99902H3.2324Z" fill="#2D373D"/>
</svg>
