<svg width="64" height="65" viewBox="0 0 64 65" fill="none" xmlns="http://www.w3.org/2000/svg">
<path fill-rule="evenodd" clip-rule="evenodd" d="M31.9996 26.2578C33.1601 26.2578 34.2635 26.7619 35.0233 27.6392L37.3327 30.3059C38.3577 31.4895 38.5979 33.1624 37.9473 34.5866C37.2966 36.0109 35.8748 36.9245 34.309 36.9245H29.6902C28.1244 36.9245 26.7025 36.0109 26.0519 34.5866C25.4012 33.1624 25.6414 31.4895 26.6664 30.3059L28.9758 27.6392C29.7356 26.7619 30.839 26.2578 31.9996 26.2578ZM31.9996 30.2578L29.6902 32.9245H34.309L31.9996 30.2578Z" fill="#2D373D"/>
<path d="M30.1141 24.1434C31.1555 25.1848 32.8439 25.1848 33.8853 24.1434C34.9267 23.102 34.9267 21.4136 33.8853 20.3722C32.8439 19.3308 31.1555 19.3308 30.1141 20.3722C29.0727 21.4136 29.0727 23.102 30.1141 24.1434Z" fill="#2D373D"/>
<path d="M27.8853 26.8101C26.8439 27.8515 25.1555 27.8515 24.1141 26.8101C23.0727 25.7687 23.0727 24.0803 24.1141 23.0389C25.1555 21.9975 26.8439 21.9975 27.8853 23.0389C28.9267 24.0803 28.9267 25.7687 27.8853 26.8101Z" fill="#2D373D"/>
<path d="M36.1141 26.8101C37.1555 27.8515 38.8439 27.8515 39.8853 26.8101C40.9267 25.7687 40.9267 24.0803 39.8853 23.0389C38.8439 21.9975 37.1555 21.9975 36.1141 23.0389C35.0727 24.0803 35.0727 25.7687 36.1141 26.8101Z" fill="#2D373D"/>
<path d="M33.8853 52.8101C32.8439 53.8515 31.1555 53.8515 30.1141 52.8101C29.0727 51.7687 29.0727 50.0803 30.1141 49.0389C31.1555 47.9975 32.8439 47.9975 33.8853 49.0389C34.9267 50.0803 34.9267 51.7687 33.8853 52.8101Z" fill="#2D373D"/>
<path fill-rule="evenodd" clip-rule="evenodd" d="M18.6663 6.25781C15.7208 6.25781 13.333 8.64563 13.333 11.5911V54.2578C13.333 57.2033 15.7208 59.5911 18.6663 59.5911H45.333C48.2785 59.5911 50.6663 57.2033 50.6663 54.2578V11.5911C50.6663 8.64563 48.2785 6.25781 45.333 6.25781H18.6663ZM45.333 10.2578H18.6663C17.93 10.2578 17.333 10.8548 17.333 11.5911V41.5911H46.6663V11.5911C46.6663 10.8548 46.0694 10.2578 45.333 10.2578ZM46.6663 45.5911H17.333V54.2578C17.333 54.9942 17.93 55.5911 18.6663 55.5911H45.333C46.0694 55.5911 46.6663 54.9942 46.6663 54.2578V45.5911Z" fill="#2D373D"/>
</svg>
