<svg width="16" height="16" viewBox="0 0 16 16" fill="none" xmlns="http://www.w3.org/2000/svg">
<path d="M10.5002 3.80005H10.1502V1.80005C10.1502 1.50005 9.9502 1.30005 9.6502 1.30005C9.3502 1.30005 9.1502 1.50005 9.1502 1.80005V3.80005H6.8502V1.80005C6.8502 1.50005 6.6502 1.30005 6.3502 1.30005C6.0502 1.30005 5.8502 1.50005 5.8502 1.80005V3.80005H5.5502C4.8002 3.80005 4.2002 4.35005 4.2002 5.10005V7.60005C4.2002 8.90005 4.8502 10.05 5.8502 10.75V11.7C5.8502 12.45 6.4502 13.05 7.2002 13.05H7.5002V14.2C7.5002 14.5 7.7002 14.7 8.0002 14.7C8.3002 14.7 8.5002 14.5 8.5002 14.2V13.05H8.8502C9.5502 13.05 10.1502 12.45 10.2002 11.7V10.7C11.1502 10 11.8002 8.90005 11.8502 7.60005V5.10005C11.8502 4.40005 11.2502 3.80005 10.5002 3.80005ZM9.2002 11.7C9.2002 11.9 9.0502 12.05 8.8502 12.05H7.2002C7.0002 12.05 6.8502 11.9 6.8502 11.7V11.2C7.2002 11.3 7.6002 11.4 8.0002 11.4C8.4002 11.4 8.8002 11.35 9.2002 11.2V11.7ZM10.8002 7.60005C10.8002 9.15005 9.5502 10.4 8.0002 10.4C7.5502 10.4 7.1002 10.3 6.7002 10.1C6.6502 10.05 6.6002 10 6.5002 10C5.7002 9.50005 5.1502 8.65005 5.1502 7.60005V5.10005C5.1502 4.95005 5.3002 4.80005 5.5002 4.80005H10.4002C10.6002 4.80005 10.7502 4.90005 10.7502 5.10005V7.60005H10.8002Z" fill="#2D373D"/>
</svg>
