<svg width="16" height="17" viewBox="0 0 16 17" fill="none" xmlns="http://www.w3.org/2000/svg">
<path d="M1.3335 4.08789C1.3335 3.81175 1.55735 3.58789 1.8335 3.58789H14.1668C14.443 3.58789 14.6668 3.81175 14.6668 4.08789C14.6668 4.36403 14.443 4.58789 14.1668 4.58789H1.8335C1.55735 4.58789 1.3335 4.36403 1.3335 4.08789Z" fill="#2D373D"/>
<path d="M1.3335 13.7546C1.3335 13.4784 1.55735 13.2546 1.8335 13.2546H14.1668C14.443 13.2546 14.6668 13.4784 14.6668 13.7546C14.6668 14.0307 14.443 14.2546 14.1668 14.2546H1.8335C1.55735 14.2546 1.3335 14.0307 1.3335 13.7546Z" fill="#2D373D"/>
<path d="M2.3335 6.25456C2.05735 6.25456 1.8335 6.47842 1.8335 6.75456C1.8335 7.0307 2.05735 7.25456 2.3335 7.25456H2.8335L2.8335 11.0879C2.8335 11.364 3.05735 11.5879 3.3335 11.5879C3.60964 11.5879 3.8335 11.364 3.8335 11.0879V7.25456H4.3335C4.60964 7.25456 4.8335 7.0307 4.8335 6.75456C4.8335 6.47842 4.60964 6.25456 4.3335 6.25456H2.3335Z" fill="#2D373D"/>
<path d="M13.5002 6.75456C13.5002 6.47842 13.2763 6.25456 13.0002 6.25456C12.724 6.25456 12.5002 6.47842 12.5002 6.75456V11.0879C12.5002 11.364 12.724 11.5879 13.0002 11.5879C13.2763 11.5879 13.5002 11.364 13.5002 11.0879V6.75456Z" fill="#2D373D"/>
<path fill-rule="evenodd" clip-rule="evenodd" d="M5.16683 7.58789C5.16683 7.34121 5.23672 6.98233 5.46106 6.67074C5.70376 6.33366 6.10387 6.08789 6.66683 6.08789C7.22979 6.08789 7.6299 6.33366 7.8726 6.67074C8.09694 6.98233 8.16683 7.34121 8.16683 7.58789V11.0879C8.16683 11.364 7.94297 11.5879 7.66683 11.5879C7.39069 11.5879 7.16683 11.364 7.16683 11.0879V9.92122H6.16683V11.0879C6.16683 11.364 5.94297 11.5879 5.66683 11.5879C5.39069 11.5879 5.16683 11.364 5.16683 11.0879V7.58789ZM6.16683 8.92122V7.58789C6.16683 7.50124 6.19694 7.36012 6.2726 7.25504C6.3299 7.17546 6.42979 7.08789 6.66683 7.08789C6.90387 7.08789 7.00376 7.17546 7.06106 7.25504C7.13672 7.36012 7.16683 7.50124 7.16683 7.58789V8.92122H6.16683Z" fill="#2D373D"/>
<path d="M11.5431 6.3007C11.7938 6.41642 11.9032 6.71348 11.7875 6.96421L10.8842 8.92143L11.7874 10.8785C11.9032 11.1292 11.7937 11.4263 11.543 11.542C11.2923 11.6577 10.9952 11.5483 10.8795 11.2975L10.3335 10.1146L9.78751 11.2975C9.67179 11.5483 9.37473 11.6577 9.12401 11.542C8.87328 11.4263 8.76384 11.1292 8.87955 10.8785L9.78281 8.92143L8.87948 6.96421C8.76376 6.71348 8.8732 6.41642 9.12393 6.3007C9.37465 6.18498 9.67172 6.29442 9.78744 6.54515L10.3335 7.72828L10.8796 6.54515C10.9953 6.29442 11.2923 6.18498 11.5431 6.3007Z" fill="#2D373D"/>
</svg>
