<svg width="32" height="33" viewBox="0 0 32 33" fill="none" xmlns="http://www.w3.org/2000/svg">
<path d="M9.4 10.1606H4V29.7606H9.4V10.1606Z" fill="#2D373D"/>
<path d="M6.6999 8.46055C8.2463 8.46055 9.4999 7.25172 9.4999 5.76055C9.4999 4.26938 8.2463 3.06055 6.6999 3.06055C5.1535 3.06055 3.8999 4.26938 3.8999 5.76055C3.8999 7.25172 5.1535 8.46055 6.6999 8.46055Z" fill="#2D373D"/>
<path d="M20.5998 10.1606C19.1998 10.1606 17.7998 10.7606 16.7998 11.7606V10.1606H11.2998V29.7606H16.7998V17.4606C16.7998 17.4606 16.5998 14.9606 19.5998 14.9606C21.3998 14.9606 22.2998 15.9606 22.2998 17.4606V29.8606H28.0998V17.6606C27.9998 10.9606 22.4998 10.1606 20.5998 10.1606Z" fill="#2D373D"/>
</svg>
