<svg width="16" height="17" viewBox="0 0 16 17" fill="none" xmlns="http://www.w3.org/2000/svg">
<path d="M13.5002 2.41016H2.4502C2.1502 2.41016 1.9502 2.61016 1.9502 2.91016V13.9602C1.9502 14.2602 2.1502 14.4602 2.4502 14.4602H13.5002C13.8002 14.4602 14.0002 14.2602 14.0002 13.9602V2.91016C14.0002 2.61016 13.8002 2.41016 13.5002 2.41016ZM13.0002 13.4602H2.9502V3.41016H13.0002V13.4602Z" fill="#2D373D"/>
<path d="M5.40005 8.06012C5.50005 8.16012 5.60005 8.21012 5.75005 8.21012C5.95005 8.21012 6.10005 8.11012 6.15005 7.96012L8.35005 5.01012C8.50005 4.81012 8.45005 4.46012 8.25005 4.31012C8.05005 4.16012 7.70005 4.21012 7.55005 4.41012L5.70005 6.91012L4.65005 5.86012C4.45005 5.66012 4.15005 5.66012 3.95005 5.86012C3.75005 6.06012 3.75005 6.41012 3.95005 6.56012L5.40005 8.06012Z" fill="#2D373D"/>
<path d="M9.10034 7.11011H11.3003C11.6003 7.11011 11.8003 6.91011 11.8003 6.61011C11.8003 6.31011 11.6003 6.11011 11.3003 6.11011H9.10034C8.80034 6.11011 8.60034 6.31011 8.60034 6.61011C8.60034 6.91011 8.80034 7.11011 9.10034 7.11011Z" fill="#2D373D"/>
<path d="M5.40024 12.4602C5.50024 12.5602 5.60024 12.6102 5.75024 12.6102C5.95024 12.6102 6.10024 12.5602 6.15024 12.4102L8.30024 9.46019C8.45024 9.26019 8.40024 8.91019 8.20024 8.76019C8.00024 8.61019 7.65024 8.66019 7.50024 8.86019L5.65024 11.3602L4.60024 10.3102C4.40024 10.1102 4.10024 10.1102 3.90024 10.3102C3.70024 10.5102 3.70024 10.8102 3.90024 11.0102L5.40024 12.4602Z" fill="#2D373D"/>
<path d="M9.10034 11.5101H11.3003C11.6003 11.5101 11.8003 11.3101 11.8003 11.0101C11.8003 10.7101 11.6003 10.5101 11.3003 10.5101H9.10034C8.80034 10.5101 8.60034 10.7101 8.60034 11.0101C8.60034 11.3101 8.80034 11.5101 9.10034 11.5101Z" fill="#2D373D"/>
</svg>
