<svg width="24" height="25" viewBox="0 0 24 25" fill="none" xmlns="http://www.w3.org/2000/svg">
<path fill-rule="evenodd" clip-rule="evenodd" d="M5.19993 10.5202H4.75485C3.78567 10.5202 3 11.3059 3 12.2751V20.167C3 21.1362 3.78568 21.9219 4.75486 21.9219H6.50133C6.9167 21.9219 7.25341 21.5852 7.25341 21.1698C7.25341 20.7544 6.9167 20.4177 6.50133 20.4177H4.75486C4.6164 20.4177 4.50416 20.3055 4.50416 20.167V12.2751C4.50416 12.1366 4.6164 12.0244 4.75485 12.0244H14.846C14.9845 12.0244 15.0967 12.1366 15.0967 12.2751V12.9219C15.0967 13.3372 15.4334 13.674 15.8488 13.674C16.2642 13.674 16.6009 13.3372 16.6009 12.9219V12.2751C16.6009 11.3059 15.8152 10.5202 14.846 10.5202H14.402V8.52296C14.402 5.98185 12.342 3.92188 9.80097 3.92188C7.25989 3.92188 5.19993 5.98185 5.19993 8.52296L5.19993 10.5202ZM6.70409 10.5202H12.8978V8.52296C12.8978 6.81259 11.5113 5.42605 9.80097 5.42605C8.09061 5.42605 6.70409 6.81258 6.70409 8.52296L6.70409 10.5202Z" fill="#2D373D"/>
<path d="M12.7274 16.8938C12.9253 16.7 13.2427 16.7034 13.4364 16.9012L14.0229 17.5002L14.6422 16.8938C14.8401 16.7 15.1575 16.7034 15.3513 16.9012C15.545 17.0991 15.5417 17.4165 15.3438 17.6103L14.7245 18.2167L15.2827 18.7867C15.4764 18.9846 15.4731 19.302 15.2752 19.4957C15.0774 19.6895 14.7599 19.6861 14.5662 19.4883L14.008 18.9183L13.4584 19.4565C13.2605 19.6502 12.9431 19.6469 12.7493 19.449C12.5556 19.2512 12.5589 18.9337 12.7568 18.74L13.3065 18.2018L12.72 17.6028C12.5262 17.4049 12.5296 17.0875 12.7274 16.8938Z" fill="#2D373D"/>
<path fill-rule="evenodd" clip-rule="evenodd" d="M10.9692 14.2318C8.84567 14.2318 7.1242 15.9532 7.1242 18.0768C7.1242 20.2004 8.84567 21.9219 10.9692 21.9219H17.155C19.2785 21.9219 21 20.2004 21 18.0768C21 15.9532 19.2785 14.2318 17.155 14.2318H10.9692ZM8.62836 18.0768C8.62836 16.784 9.6764 15.7359 10.9692 15.7359H17.155C18.4478 15.7359 19.4958 16.784 19.4958 18.0768C19.4958 19.3696 18.4478 20.4177 17.155 20.4177H10.9692C9.6764 20.4177 8.62836 19.3696 8.62836 18.0768Z" fill="#2D373D"/>
</svg>
