<svg width="16" height="17" viewBox="0 0 16 17" fill="none" xmlns="http://www.w3.org/2000/svg">
<path d="M14.1998 3.11133H1.7998C1.4998 3.11133 1.2998 3.31133 1.2998 3.61133V13.3113C1.2998 13.6113 1.4998 13.8113 1.7998 13.8113H14.1998C14.4498 13.8113 14.6998 13.6113 14.6998 13.3113V3.61133C14.6998 3.31133 14.4998 3.11133 14.1998 3.11133ZM13.0998 4.11133L8.8498 7.81133C8.3498 8.26133 7.64981 8.26133 7.14981 7.81133L2.8998 4.11133H13.0998ZM2.2998 12.8113V4.86133L6.4998 8.51133C6.8998 8.91133 7.4498 9.11133 7.9998 9.11133C8.5498 9.11133 9.0998 8.91133 9.4998 8.56133L13.6998 4.86133V12.8113H2.2998Z" fill="#2D373D"/>
</svg>
