<svg width="24" height="25" viewBox="0 0 24 25" fill="none" xmlns="http://www.w3.org/2000/svg">
<path fill-rule="evenodd" clip-rule="evenodd" d="M2.74951 2.92188C3.16373 2.92188 3.49951 3.25766 3.49951 3.67188V8.17188H6.81659C7.21031 7.68911 7.69707 7.28521 8.24951 6.98753V4.42188H6.99951C6.5853 4.42188 6.24951 4.08609 6.24951 3.67188C6.24951 3.25766 6.5853 2.92188 6.99951 2.92188H13.9995C14.4137 2.92188 14.7495 3.25766 14.7495 3.67188C14.7495 4.08609 14.4137 4.42188 13.9995 4.42188H12.7495V6.98753C13.302 7.28521 13.7887 7.68911 14.1824 8.17188H17.2495C19.8729 8.17188 21.9995 10.2985 21.9995 12.9219V15.1719C21.9995 15.5861 21.6637 15.9219 21.2495 15.9219H17.2495C16.8353 15.9219 16.4995 15.5861 16.4995 15.1719V13.6719H14.5392C13.7016 15.0224 12.2056 15.9219 10.4995 15.9219C8.79345 15.9219 7.29746 15.0224 6.45987 13.6719H3.49951V18.1719C3.49951 18.5861 3.16373 18.9219 2.74951 18.9219C2.3353 18.9219 1.99951 18.5861 1.99951 18.1719V3.67188C1.99951 3.25766 2.3353 2.92188 2.74951 2.92188ZM3.49951 9.67188H5.99121C5.83441 10.1434 5.74951 10.6477 5.74951 11.1719C5.74951 11.5149 5.78588 11.8495 5.85496 12.1719H3.49951V9.67188ZM10.4995 6.42188C10.2443 6.42188 9.99381 6.442 9.74951 6.48075V4.42188H11.2495V6.48075C11.0052 6.442 10.7547 6.42188 10.4995 6.42188ZM15.2495 11.1719C15.2495 10.6477 15.1646 10.1434 15.0078 9.67188H17.2495C19.0444 9.67188 20.4995 11.1269 20.4995 12.9219V14.4219H17.9995V13.4219C17.9995 12.7315 17.4399 12.1719 16.7495 12.1719H15.1441C15.2131 11.8495 15.2495 11.5149 15.2495 11.1719ZM10.4995 14.4219C12.2944 14.4219 13.7495 12.9668 13.7495 11.1719C13.7495 9.37695 12.2944 7.92188 10.4995 7.92188C8.70459 7.92188 7.24951 9.37695 7.24951 11.1719C7.24951 12.9668 8.70459 14.4219 10.4995 14.4219Z" fill="#2D373D"/>
<path fill-rule="evenodd" clip-rule="evenodd" d="M21.9995 20.2435C21.9995 21.7228 20.8003 22.922 19.3209 22.922C17.8415 22.922 16.6422 21.7228 16.6422 20.2435C16.6422 18.7641 18.4995 16.4219 19.3209 16.4219C20.1422 16.4219 21.9995 18.7641 21.9995 20.2435ZM20.4995 20.2435C20.4995 20.8943 19.9719 21.422 19.3209 21.422C18.6699 21.422 18.1422 20.8943 18.1422 20.2435C18.1422 20.1599 18.1763 19.9509 18.3196 19.6231C18.4554 19.3127 18.6535 18.9771 18.8817 18.667C19.0334 18.4608 19.1847 18.2845 19.3209 18.1458C19.4571 18.2845 19.6084 18.4608 19.7601 18.667C19.9883 18.9771 20.1864 19.3127 20.3221 19.6231C20.4654 19.9509 20.4995 20.1599 20.4995 20.2435Z" fill="#2D373D"/>
</svg>
