<svg width="16" height="17" viewBox="0 0 16 17" fill="none" xmlns="http://www.w3.org/2000/svg">
<path fill-rule="evenodd" clip-rule="evenodd" d="M2.98771 3.04562C3.18183 2.96521 3.38989 2.92383 3.6 2.92383C3.81011 2.92383 4.01817 2.96521 4.21229 3.04562C4.40641 3.12603 4.5828 3.24388 4.73137 3.39246C4.87994 3.54103 4.9978 3.71741 5.07821 3.91153C5.15861 4.10566 5.2 4.31371 5.2 4.52383C5.2 4.73394 5.15861 4.942 5.07821 5.13612C4.9978 5.33024 4.87994 5.50663 4.73137 5.6552C4.5828 5.80377 4.40641 5.92163 4.21229 6.00204C4.01817 6.08244 3.81011 6.12383 3.6 6.12383C3.38989 6.12383 3.18183 6.08244 2.98771 6.00204C2.79359 5.92163 2.6172 5.80377 2.46863 5.6552C2.32006 5.50663 2.2022 5.33024 2.12179 5.13612C2.04139 4.942 2 4.73394 2 4.52383C2 4.31371 2.04139 4.10566 2.12179 3.91153C2.2022 3.71741 2.32006 3.54103 2.46863 3.39246C2.6172 3.24388 2.79359 3.12603 2.98771 3.04562ZM3.6 3.92383C3.52121 3.92383 3.44319 3.93935 3.37039 3.9695C3.29759 3.99965 3.23145 4.04385 3.17574 4.09956C3.12002 4.15528 3.07583 4.22142 3.04567 4.29422C3.01552 4.36701 3 4.44503 3 4.52383C3 4.60262 3.01552 4.68064 3.04567 4.75344C3.07583 4.82623 3.12002 4.89238 3.17574 4.94809C3.23145 5.00381 3.29759 5.048 3.37039 5.07816C3.44319 5.10831 3.52121 5.12383 3.6 5.12383C3.67879 5.12383 3.75681 5.10831 3.82961 5.07816C3.9024 5.048 3.96855 5.00381 4.02426 4.94809C4.07998 4.89238 4.12418 4.82623 4.15433 4.75344C4.18448 4.68064 4.2 4.60262 4.2 4.52383C4.2 4.44503 4.18448 4.36701 4.15433 4.29422C4.12418 4.22142 4.07998 4.15528 4.02426 4.09956C3.96855 4.04385 3.90241 3.99965 3.82961 3.9695C3.75681 3.93935 3.67879 3.92383 3.6 3.92383Z" fill="#2D373D"/>
<path fill-rule="evenodd" clip-rule="evenodd" d="M6.86861 3.39246C7.16867 3.0924 7.57563 2.92383 7.99998 2.92383C8.42433 2.92383 8.83129 3.0924 9.13135 3.39246C9.43141 3.69252 9.59998 4.09948 9.59998 4.52383C9.59998 4.94817 9.43141 5.35514 9.13135 5.6552C8.83129 5.95526 8.42433 6.12383 7.99998 6.12383C7.57563 6.12383 7.16867 5.95526 6.86861 5.6552C6.56855 5.35514 6.39998 4.94817 6.39998 4.52383C6.39998 4.09948 6.56855 3.69252 6.86861 3.39246ZM7.99998 3.92383C7.84085 3.92383 7.68824 3.98704 7.57572 4.09956C7.4632 4.21209 7.39998 4.3647 7.39998 4.52383C7.39998 4.68296 7.4632 4.83557 7.57572 4.94809C7.68824 5.06061 7.84085 5.12383 7.99998 5.12383C8.15911 5.12383 8.31172 5.06061 8.42424 4.94809C8.53677 4.83557 8.59998 4.68296 8.59998 4.52383C8.59998 4.3647 8.53677 4.21209 8.42424 4.09956C8.31172 3.98704 8.15911 3.92383 7.99998 3.92383Z" fill="#2D373D"/>
<path fill-rule="evenodd" clip-rule="evenodd" d="M11.2686 3.39246C11.5687 3.0924 11.9756 2.92383 12.4 2.92383C12.8243 2.92383 13.2313 3.0924 13.5314 3.39246C13.8314 3.69252 14 4.09948 14 4.52383C14 4.94817 13.8314 5.35514 13.5314 5.6552C13.2313 5.95526 12.8243 6.12383 12.4 6.12383C11.9756 6.12383 11.5687 5.95526 11.2686 5.6552C10.9686 5.35514 10.8 4.94817 10.8 4.52383C10.8 4.09948 10.9686 3.69252 11.2686 3.39246ZM12.4 3.92383C12.2409 3.92383 12.0883 3.98704 11.9757 4.09956C11.8632 4.21209 11.8 4.3647 11.8 4.52383C11.8 4.68296 11.8632 4.83557 11.9757 4.94809C12.0883 5.06061 12.2409 5.12383 12.4 5.12383C12.5591 5.12383 12.7117 5.06061 12.8243 4.94809C12.9368 4.83557 13 4.68296 13 4.52383C13 4.3647 12.9368 4.21209 12.8243 4.09956C12.7117 3.98704 12.5591 3.92383 12.4 3.92383Z" fill="#2D373D"/>
<path fill-rule="evenodd" clip-rule="evenodd" d="M2.98771 7.4456C3.18183 7.36519 3.38988 7.32381 3.6 7.32381C3.81012 7.32381 4.01817 7.36519 4.21229 7.4456C4.40641 7.52601 4.5828 7.64386 4.73137 7.79244C4.87994 7.94101 4.9978 8.11739 5.07821 8.31152C5.15862 8.50564 5.2 8.71369 5.2 8.92381C5.2 9.13392 5.15862 9.34198 5.07821 9.5361C4.9978 9.73022 4.87994 9.90661 4.73137 10.0552C4.5828 10.2038 4.40641 10.3216 4.21229 10.402C4.01817 10.4824 3.81012 10.5238 3.6 10.5238C3.38988 10.5238 3.18183 10.4824 2.98771 10.402C2.79359 10.3216 2.6172 10.2038 2.46863 10.0552C2.32006 9.90661 2.2022 9.73022 2.12179 9.5361C2.04139 9.34198 2 9.13392 2 8.92381C2 8.71369 2.04139 8.50564 2.12179 8.31152C2.2022 8.11739 2.32006 7.94101 2.46863 7.79244C2.6172 7.64386 2.79359 7.52601 2.98771 7.4456ZM3.6 8.32381C3.52121 8.32381 3.44319 8.33933 3.37039 8.36948C3.29759 8.39963 3.23145 8.44383 3.17574 8.49955C3.12002 8.55526 3.07582 8.6214 3.04567 8.6942C3.01552 8.76699 3 8.84502 3 8.92381C3 9.0026 3.01552 9.08062 3.04567 9.15342C3.07582 9.22621 3.12002 9.29236 3.17574 9.34807C3.23145 9.40379 3.29759 9.44798 3.37039 9.47814C3.44319 9.50829 3.52121 9.52381 3.6 9.52381C3.67879 9.52381 3.75681 9.50829 3.82961 9.47814C3.90241 9.44798 3.96855 9.40379 4.02426 9.34807C4.07998 9.29236 4.12418 9.22621 4.15433 9.15342C4.18448 9.08062 4.2 9.0026 4.2 8.92381C4.2 8.84502 4.18448 8.76699 4.15433 8.6942C4.12418 8.6214 4.07998 8.55526 4.02426 8.49955C3.96855 8.44383 3.90241 8.39963 3.82961 8.36948C3.75681 8.33933 3.67879 8.32381 3.6 8.32381Z" fill="#2D373D"/>
<path fill-rule="evenodd" clip-rule="evenodd" d="M6.86861 7.79244C7.16867 7.49238 7.57563 7.32381 7.99998 7.32381C8.42433 7.32381 8.83129 7.49238 9.13135 7.79244C9.43141 8.0925 9.59998 8.49946 9.59998 8.92381C9.59998 9.34816 9.43141 9.75512 9.13135 10.0552C8.83129 10.3552 8.42433 10.5238 7.99998 10.5238C7.57563 10.5238 7.16867 10.3552 6.86861 10.0552C6.56855 9.75512 6.39998 9.34816 6.39998 8.92381C6.39998 8.49946 6.56855 8.0925 6.86861 7.79244ZM7.99998 8.32381C7.84085 8.32381 7.68824 8.38702 7.57572 8.49955C7.4632 8.61207 7.39998 8.76468 7.39998 8.92381C7.39998 9.08294 7.4632 9.23555 7.57572 9.34807C7.68824 9.46059 7.84085 9.52381 7.99998 9.52381C8.15911 9.52381 8.31172 9.46059 8.42424 9.34807C8.53677 9.23555 8.59998 9.08294 8.59998 8.92381C8.59998 8.76468 8.53677 8.61207 8.42424 8.49955C8.31172 8.38702 8.15911 8.32381 7.99998 8.32381Z" fill="#2D373D"/>
<path fill-rule="evenodd" clip-rule="evenodd" d="M11.2686 7.79244C11.5687 7.49238 11.9756 7.32381 12.4 7.32381C12.8243 7.32381 13.2313 7.49238 13.5314 7.79244C13.8314 8.0925 14 8.49946 14 8.92381C14 9.34816 13.8314 9.75512 13.5314 10.0552C13.2313 10.3552 12.8243 10.5238 12.4 10.5238C11.9756 10.5238 11.5687 10.3552 11.2686 10.0552C10.9686 9.75512 10.8 9.34816 10.8 8.92381C10.8 8.49946 10.9686 8.0925 11.2686 7.79244ZM12.4 8.32381C12.2409 8.32381 12.0883 8.38702 11.9757 8.49955C11.8632 8.61207 11.8 8.76468 11.8 8.92381C11.8 9.08294 11.8632 9.23555 11.9757 9.34807C12.0883 9.46059 12.2409 9.52381 12.4 9.52381C12.5591 9.52381 12.7117 9.46059 12.8243 9.34807C12.9368 9.23555 13 9.08294 13 8.92381C13 8.76468 12.9368 8.61207 12.8243 8.49955C12.7117 8.38702 12.5591 8.32381 12.4 8.32381Z" fill="#2D373D"/>
<path fill-rule="evenodd" clip-rule="evenodd" d="M6.86861 12.1925C7.16867 11.8924 7.57563 11.7238 7.99998 11.7238C8.42433 11.7238 8.83129 11.8924 9.13135 12.1925C9.43141 12.4925 9.59998 12.8995 9.59998 13.3238C9.59998 13.7482 9.43141 14.1551 9.13135 14.4552C8.83129 14.7553 8.42433 14.9238 7.99998 14.9238C7.57563 14.9238 7.16867 14.7553 6.86861 14.4552C6.56855 14.1551 6.39998 13.7482 6.39998 13.3238C6.39998 12.8995 6.56855 12.4925 6.86861 12.1925ZM7.99998 12.7238C7.84085 12.7238 7.68824 12.787 7.57572 12.8996C7.4632 13.0121 7.39998 13.1647 7.39998 13.3238C7.39998 13.483 7.4632 13.6356 7.57572 13.7481C7.68824 13.8606 7.84085 13.9238 7.99998 13.9238C8.15911 13.9238 8.31172 13.8606 8.42424 13.7481C8.53677 13.6356 8.59998 13.483 8.59998 13.3238C8.59998 13.1647 8.53677 13.0121 8.42424 12.8996C8.31172 12.787 8.15911 12.7238 7.99998 12.7238Z" fill="#2D373D"/>
</svg>
