<svg width="16" height="17" viewBox="0 0 16 17" fill="none" xmlns="http://www.w3.org/2000/svg">
<path d="M10.9799 6.46253C10.7133 5.64919 9.95992 5.19586 9.13992 5.32919C9.00659 4.49586 8.34659 3.93586 7.49992 3.93586C6.65325 3.93586 5.98659 4.50253 5.85325 5.32253C5.03325 5.19586 4.28659 5.64919 4.01992 6.46253C3.75992 7.26919 4.09992 8.07586 4.84659 8.44919C4.45992 9.19586 4.65992 10.0425 5.35325 10.5492C6.03992 11.0492 6.90659 10.9759 7.49992 10.3892C7.82659 10.7159 8.23992 10.8825 8.65992 10.8825C8.99992 10.8825 9.33992 10.7692 9.64659 10.5492C10.3399 10.0492 10.5399 9.19586 10.1599 8.45586C10.9066 8.07586 11.2399 7.26919 10.9799 6.46253ZM9.65992 7.58253L9.41992 7.68919C9.24659 7.76919 9.11325 7.91586 9.05325 8.09586C8.99325 8.27586 9.01992 8.46919 9.11325 8.63586L9.24659 8.86253C9.53325 9.35586 9.13992 9.67586 9.05992 9.73586C8.97992 9.79586 8.55325 10.0692 8.17325 9.64253L7.99992 9.44919C7.87325 9.30253 7.68659 9.22253 7.49992 9.22253C7.31325 9.22253 7.12659 9.30253 6.99992 9.44919L6.82659 9.64253C6.44659 10.0692 6.01992 9.79586 5.93992 9.73586C5.85992 9.67586 5.46659 9.35586 5.75325 8.86253L5.88659 8.63586C5.97992 8.46919 6.00659 8.27586 5.94659 8.09586C5.88659 7.91586 5.75325 7.76919 5.57992 7.68919L5.33992 7.58253C4.81325 7.35586 4.93992 6.86253 4.97325 6.76919C5.00659 6.67586 5.19325 6.20253 5.74659 6.32253L6.00659 6.37586C6.18659 6.41586 6.38659 6.37586 6.53992 6.26253C6.69325 6.15586 6.79325 5.98253 6.81325 5.79586L6.83325 5.53586C6.89325 4.96253 7.39992 4.93586 7.49992 4.93586C7.59992 4.93586 8.10659 4.96253 8.16659 5.53586L8.18659 5.79586C8.20659 5.98253 8.30659 6.15586 8.45992 6.26919C8.61325 6.37586 8.80659 6.41586 8.99325 6.37586L9.25325 6.32253C9.81325 6.20253 9.99325 6.67586 10.0266 6.76919C10.0599 6.86253 10.1866 7.35586 9.65992 7.58253Z" fill="#2D373D"/>
<path d="M7.97325 7.92919C7.71325 8.18919 7.29325 8.18919 7.03325 7.92919C6.77325 7.66919 6.77325 7.24919 7.03325 6.98919C7.29325 6.72919 7.71325 6.72919 7.97325 6.98919C8.23325 7.24919 8.23325 7.66919 7.97325 7.92919Z" fill="#2D373D"/>
<path d="M13.9927 8.96919C14.0127 9.18253 13.9927 9.41586 13.8795 9.64253C13.7663 9.87586 13.5865 10.0625 13.3401 10.2159C13.3135 10.2359 13.2802 10.2492 13.2536 10.2625C13.1137 10.3092 12.9939 10.3492 12.8873 10.3825V11.6425C12.8873 11.6425 12.8873 11.6892 12.8873 11.7225C12.8807 11.7892 12.8673 11.8825 12.8407 11.9892C12.7941 12.1959 12.6875 12.4825 12.4745 12.7492C12.2547 13.0159 11.9284 13.2492 11.4756 13.3492C11.1826 13.4159 10.8497 13.4292 10.4634 13.3692V15.0892C10.4634 15.3625 10.237 15.5892 9.96403 15.5892C9.69101 15.5892 9.46461 15.3625 9.46461 15.0892V12.7559C9.46461 12.5959 9.53786 12.4492 9.65772 12.3559C9.78424 12.2625 9.94405 12.2292 10.0972 12.2759C10.6499 12.4292 11.0228 12.4292 11.2559 12.3759C11.4889 12.3225 11.6154 12.2225 11.702 12.1159C11.7886 12.0092 11.8419 11.8759 11.8685 11.7625C11.8818 11.7025 11.8885 11.6559 11.8885 11.6292C11.8885 11.6159 11.8885 11.6025 11.8885 11.5959V10.0092C11.8885 9.78253 12.0416 9.57586 12.268 9.52253H12.2747C12.2747 9.52253 12.2947 9.51586 12.308 9.51586C12.3413 9.50253 12.3879 9.49586 12.4412 9.47586C12.5477 9.44253 12.6942 9.39586 12.854 9.33586C12.9406 9.28253 12.9672 9.22919 12.9805 9.20919C13.0005 9.17586 13.0072 9.13586 13.0005 9.08253C12.9872 8.95586 12.9206 8.80919 12.8207 8.66253C12.8141 8.64253 12.8007 8.62919 12.7874 8.60919C12.7741 8.59586 12.7674 8.58919 12.7608 8.57586C12.6143 8.32253 12.4278 8.04919 12.268 7.82919C12.1881 7.72253 12.1215 7.62919 12.0683 7.56253C12.0483 7.53586 12.0283 7.50919 12.015 7.48919C12.015 7.48919 12.0017 7.47586 12.0017 7.46919H11.995C11.9218 7.37586 11.8885 7.26919 11.8885 7.15586C11.8885 5.57586 11.156 4.62919 10.2504 4.04919C9.31145 3.45586 8.16611 3.25586 7.42031 3.25586C4.62355 3.25586 2.96547 5.44253 2.99876 7.91586C2.99876 9.15586 3.76454 10.5959 5.36935 11.4825C5.52917 11.5692 5.62905 11.7425 5.62905 11.9225V15.0892C5.62905 15.3625 5.40265 15.5892 5.12963 15.5892C4.85661 15.5892 4.63021 15.3625 4.63021 15.0892V12.2092C2.91886 11.1559 1.99992 9.48919 1.99992 7.92919C1.96663 4.99586 3.97097 2.25586 7.42031 2.25586C8.30595 2.25586 9.6444 2.48919 10.7831 3.20919C11.9151 3.92919 12.8274 5.11586 12.8806 6.97586C12.9273 7.04253 13.0005 7.12919 13.0738 7.24253C13.2336 7.46253 13.44 7.75586 13.6065 8.04253C13.6131 8.04919 13.6198 8.06253 13.6265 8.07586C13.6265 8.08253 13.6398 8.08919 13.6398 8.09586C13.773 8.28919 13.9527 8.60919 13.9927 8.96919Z" fill="#2D373D"/>
</svg>
