<svg width="64" height="65" viewBox="0 0 64 65" fill="none" xmlns="http://www.w3.org/2000/svg">
<path d="M14.4 33.4639C14.9305 33.4639 15.4392 33.2532 15.8143 32.8781C16.1893 32.503 16.4 31.9943 16.4 31.4639C16.4 30.9334 16.1893 30.4247 15.8143 30.0497C15.4392 29.6746 14.9305 29.4639 14.4 29.4639H12.94C12.8167 29.4649 12.6945 29.4406 12.581 29.3924C12.4674 29.3443 12.365 29.2733 12.28 29.1839C12.1032 29.0095 12.0025 28.7722 12 28.5239V13.8639C12.0051 13.6162 12.1058 13.38 12.281 13.2048C12.4562 13.0297 12.6923 12.929 12.94 12.9239H33.46C33.9905 12.9239 34.4992 12.7132 34.8743 12.3381C35.2493 11.963 35.46 11.4543 35.46 10.9239C35.46 10.3934 35.2493 9.88473 34.8743 9.50966C34.4992 9.13458 33.9905 8.92387 33.46 8.92387H12.94C12.2906 8.92122 11.647 9.04719 11.0465 9.29452C10.4459 9.54184 9.90028 9.90561 9.44104 10.3649C8.98179 10.8241 8.61801 11.3697 8.37069 11.9703C8.12337 12.5708 7.9974 13.2144 8.00004 13.8639V28.5239C8.00531 29.8324 8.52746 31.0859 9.45275 32.0112C10.378 32.9364 11.6315 33.4586 12.94 33.4639H14.4Z" fill="#2D373D"/>
<path d="M32 41.6439H30.72V29.1439C30.7168 28.4529 30.5753 27.7696 30.3039 27.1342C30.0326 26.4988 29.6369 25.9241 29.14 25.4439C28.1318 24.499 26.8018 23.9732 25.42 23.9732C24.0383 23.9732 22.7083 24.499 21.7 25.4439C21.1814 25.9138 20.7634 26.4839 20.4712 27.1198C20.1791 27.7557 20.0188 28.4443 20 29.1439V43.3039L19.26 42.4639C18.7791 41.9339 18.2023 41.4996 17.56 41.1839C16.9324 40.8853 16.2537 40.7088 15.56 40.6639C14.883 40.6246 14.2046 40.7128 13.56 40.9239C12.891 41.1571 12.2731 41.517 11.74 41.9839C11.2031 42.4555 10.7618 43.0258 10.44 43.6639C10.1267 44.2872 9.94299 44.9676 9.90004 45.6639C9.86669 46.3709 9.97318 47.0776 10.2134 47.7434C10.4537 48.4092 10.8229 49.021 11.3 49.5439L17.3 56.2239C17.487 56.4311 17.7153 56.5968 17.9702 56.7105C18.2251 56.8241 18.501 56.8832 18.78 56.8839C19.2757 56.8826 19.7532 56.6973 20.12 56.3639C20.5117 56.008 20.7464 55.5114 20.7726 54.9828C20.7989 54.4542 20.6146 53.9368 20.26 53.5439L14.16 46.9239C14.037 46.7907 13.9418 46.6343 13.88 46.4639C13.8496 46.2986 13.8496 46.1291 13.88 45.9639C13.8848 45.7778 13.9255 45.5944 14 45.4239C14.0491 45.2402 14.1379 45.0695 14.26 44.9239C14.4003 44.8003 14.5634 44.7052 14.74 44.6439C14.9256 44.6147 15.1145 44.6147 15.3 44.6439C15.4935 44.6571 15.6831 44.7045 15.86 44.7839C16.0302 44.8807 16.1852 45.002 16.32 45.1439L20.56 49.8239C20.8339 50.1082 21.1857 50.3051 21.5712 50.3899C21.9567 50.4746 22.3587 50.4434 22.7265 50.3001C23.0944 50.1568 23.4115 49.9079 23.6382 49.5847C23.8648 49.2615 23.9907 48.8785 24 48.4839V29.1439C24.0045 28.8273 24.1339 28.5254 24.36 28.3039C24.6143 28.072 24.9459 27.9434 25.29 27.9434C25.6341 27.9434 25.9658 28.072 26.22 28.3039C26.3384 28.4097 26.4333 28.5391 26.4987 28.6837C26.5642 28.8284 26.5987 28.9851 26.6 29.1439V43.6439C26.6 44.1743 26.8108 44.683 27.1858 45.0581C27.5609 45.4332 28.0696 45.6439 28.6 45.6439H32C34.0858 45.629 36.0925 46.4417 37.58 47.9039C38.3068 48.6031 38.885 49.4417 39.2802 50.3695C39.6754 51.2974 39.8794 52.2954 39.88 53.3039V54.9239C39.88 55.4543 40.0908 55.963 40.4658 56.3381C40.8409 56.7132 41.3496 56.9239 41.88 56.9239C42.4105 56.9239 42.9192 56.7132 43.2943 56.3381C43.6693 55.963 43.88 55.4543 43.88 54.9239V53.3039C43.8698 51.7643 43.5553 50.242 42.9547 48.8244C42.354 47.4069 41.479 46.1221 40.38 45.0439C38.1442 42.8501 35.1324 41.6281 32 41.6439Z" fill="#2D373D"/>
<path d="M54 17.7239H53.06V16.7839C53.0628 15.7511 52.861 14.7281 52.4662 13.7738C52.0714 12.8195 51.4916 11.9528 50.76 11.2239C49.2683 9.78195 47.2747 8.97595 45.2 8.97595C43.1253 8.97595 41.1318 9.78195 39.64 11.2239C38.9085 11.9528 38.3286 12.8195 37.9339 13.7738C37.5391 14.7281 37.3373 15.7511 37.34 16.7839V17.7239H36.4C35.8696 17.7239 35.3609 17.9346 34.9858 18.3097C34.6108 18.6847 34.4 19.1934 34.4 19.7239V34.3839C34.4 34.9143 34.6108 35.423 34.9858 35.7981C35.3609 36.1732 35.8696 36.3839 36.4 36.3839H54C54.5305 36.3839 55.0392 36.1732 55.4143 35.7981C55.7893 35.423 56 34.9143 56 34.3839V19.7239C56 19.1934 55.7893 18.6847 55.4143 18.3097C55.0392 17.9346 54.5305 17.7239 54 17.7239ZM41.34 16.7839C41.3388 16.2791 41.4371 15.7791 41.6293 15.3124C41.8214 14.8456 42.1038 14.4214 42.46 14.0639C43.2019 13.3664 44.1818 12.978 45.2 12.978C46.2183 12.978 47.1982 13.3664 47.94 14.0639C48.2963 14.4214 48.5786 14.8456 48.7708 15.3124C48.963 15.7791 49.0613 16.2791 49.06 16.7839V17.7239H41.34V16.7839ZM52 32.3839H38.4V21.7239H52V32.3839Z" fill="#2D373D"/>
<path d="M46.66 24.9239C46.1528 24.5983 45.5501 24.4546 44.9505 24.5164C44.351 24.5782 43.7902 24.8417 43.36 25.2639C42.8848 25.7504 42.6192 26.4038 42.62 27.0839C42.615 27.6039 42.7685 28.1132 43.06 28.5439C43.339 28.9707 43.7447 29.2994 44.22 29.4839C44.5348 29.6226 44.8761 29.6909 45.22 29.6839C45.3861 29.7036 45.554 29.7036 45.72 29.6839C46.2302 29.5876 46.6982 29.3362 47.06 28.9639C47.4185 28.6025 47.662 28.1433 47.76 27.6439C47.8661 27.1412 47.8173 26.6182 47.62 26.1439C47.4285 25.6508 47.0942 25.226 46.66 24.9239Z" fill="#2D373D"/>
</svg>
