<svg width="16" height="16" viewBox="0 0 16 16" fill="none" xmlns="http://www.w3.org/2000/svg">
<path d="M12.8999 6.14978C12.5999 6.14978 12.3999 6.34978 12.3999 6.64978V8.59978C12.3999 10.4998 10.8499 11.9998 8.9999 11.9998H7.0499C5.1499 11.9998 3.6499 10.4498 3.6499 8.59978V6.64978C3.6499 6.34978 3.4499 6.14978 3.1499 6.14978C2.8499 6.14978 2.6499 6.34978 2.6499 6.64978V8.59978C2.6499 11.0498 4.6499 12.9998 7.0499 12.9998H7.4999V14.1998C7.4999 14.4998 7.6999 14.6998 7.9999 14.6998C8.2999 14.6998 8.4999 14.4998 8.4999 14.1998V12.9998H8.9999C11.3999 12.9998 13.3999 11.0498 13.3999 8.59978V6.64978C13.3999 6.34978 13.1999 6.14978 12.8999 6.14978Z" fill="#2D373D"/>
<path d="M7.04994 11.0498H8.99994C10.4499 10.9998 11.5499 9.7498 11.4499 8.3498V3.9998C11.5499 2.5998 10.4499 1.3998 8.99994 1.2998H6.99994C5.59994 1.3998 4.49994 2.5998 4.59994 3.9998V8.3498C4.49994 9.7498 5.59994 10.9498 7.04994 11.0498ZM5.59994 3.9498C5.54994 3.0998 6.19994 2.3498 7.04994 2.2998H8.94994C9.84994 2.3498 10.4999 3.0998 10.4499 3.9998V8.3998C10.4999 9.2498 9.84995 9.9998 8.99994 10.0498H7.09994C6.19994 9.9998 5.54994 9.2498 5.59994 8.3498V3.9498Z" fill="#2D373D"/>
</svg>
