<svg width="24" height="24" viewBox="0 0 24 24" fill="none" xmlns="http://www.w3.org/2000/svg">
<path d="M4.80008 13.275C5.77508 13.275 6.67508 12.45 6.67508 11.4C6.67508 10.65 6.15008 10.05 5.55008 9.75004V9.22504C5.55008 8.77504 5.25008 8.47504 4.80008 8.47504C4.35008 8.47504 4.05008 8.77504 4.05008 9.22504V10.35C4.05008 10.8 4.35008 11.1 4.80008 11.1C4.95008 11.1 5.17508 11.175 5.17508 11.4C5.17508 11.625 5.02508 11.775 4.80008 11.775C4.57508 11.775 4.42508 11.625 4.42508 11.4C4.42508 10.95 4.12508 10.65 3.67508 10.65C3.22508 10.65 2.92508 10.95 2.92508 11.4C2.92508 12.45 3.75008 13.275 4.80008 13.275Z" fill="#2D373D"/>
<path d="M18.4501 14.025L16.7251 10.575C16.4251 9.9 15.7501 9.525 15.0751 9.525H13.5751C12.5251 9.525 11.7001 10.35 11.7001 11.4V11.925L5.8501 3.225C5.5501 2.775 4.9501 2.625 4.5001 2.925C4.2001 3.075 4.0501 3.45 4.0501 3.75V6.9C4.0501 7.35 4.3501 7.65 4.8001 7.65C5.2501 7.65 5.5501 7.35 5.5501 6.9V5.475L11.1751 13.95H4.7251C3.6751 13.95 2.8501 14.775 2.8501 15.825V18.075C2.8501 19.125 3.6751 19.95 4.7251 19.95H6.3751C6.6751 20.625 7.3501 21.075 8.1001 21.075C8.8501 21.075 9.5251 20.625 9.8251 19.95H15.2251C15.5251 20.625 16.2001 21.075 16.9501 21.075C17.7001 21.075 18.3751 20.625 18.6751 19.95H19.0501C20.1001 19.95 20.9251 19.125 20.9251 18.075V16.95C20.9251 15.45 19.8751 14.25 18.4501 14.025ZM13.2001 11.325C13.2001 11.1 13.3501 10.95 13.5751 10.95H15.0751C15.2251 10.95 15.3001 11.025 15.3751 11.175L16.7251 13.95H13.2001V11.325ZM8.1001 19.575C7.8751 19.575 7.7251 19.425 7.7251 19.2C7.7251 18.975 7.8751 18.825 8.1001 18.825C8.3251 18.825 8.4751 18.975 8.4751 19.2C8.4751 19.425 8.3251 19.575 8.1001 19.575ZM16.9501 19.575C16.7251 19.575 16.5751 19.425 16.5751 19.2C16.5751 18.975 16.7251 18.825 16.9501 18.825C17.1751 18.825 17.3251 18.975 17.3251 19.2C17.3251 19.425 17.1751 19.575 16.9501 19.575ZM19.4251 18.075C19.4251 18.3 19.2751 18.45 19.0501 18.45H18.6751C18.3751 17.775 17.7001 17.325 16.9501 17.325C16.2001 17.325 15.5251 17.775 15.2251 18.45H9.8251C9.5251 17.775 8.8501 17.325 8.1001 17.325C7.3501 17.325 6.6751 17.775 6.3751 18.45H4.8001C4.5751 18.45 4.4251 18.3 4.4251 18.075V15.825C4.4251 15.675 4.5751 15.525 4.8001 15.375H12.2251C12.3001 15.375 12.3751 15.45 12.4501 15.45H17.7001C17.7751 15.45 17.8501 15.45 17.9251 15.45C18.7501 15.45 19.4251 16.125 19.4251 16.95V18.075Z" fill="#2D373D"/>
</svg>
