<svg width="32" height="33" viewBox="0 0 32 33" fill="none" xmlns="http://www.w3.org/2000/svg">
<path d="M18.5 26.2604C18 26.1604 17.5 26.4604 17.3 26.9604C17.2 27.3604 16.8 27.7604 16.4 27.8604C16.1 27.9604 15.7 27.9604 15.4 27.7604C15.1 27.5604 14.9 27.2604 14.8 26.9604C14.6 26.3604 14.1 26.0604 13.5 26.2604C12.9 26.3604 12.6 26.9604 12.8 27.4604C13.1 28.3604 13.6 29.0604 14.4 29.4604C14.9 29.7604 15.5 29.8604 16 29.8604C16.3 29.8604 16.6 29.8604 17 29.6604C18 29.3604 18.9 28.5604 19.2 27.4604C19.3 26.9604 19 26.4604 18.5 26.2604Z" fill="#2D373D"/>
<path d="M26.5998 23.0605C26.5998 22.9605 25.2998 21.4605 25.2998 14.6605C25.2998 9.86055 21.5998 5.96055 16.9998 5.46055V4.06055C16.9998 3.46055 16.5998 3.06055 15.9998 3.06055C15.3998 3.06055 14.9998 3.46055 14.9998 4.06055V5.46055C10.3998 5.96055 6.69984 9.96055 6.69984 14.6605C6.69984 21.0605 5.29984 23.1605 5.29984 23.1605C5.09984 23.4605 4.99984 23.9605 5.19984 24.2605C5.39984 24.6605 5.69984 24.8605 6.09984 24.8605H25.8998C26.3998 24.8605 26.7998 24.5605 26.8998 24.1605C26.9998 23.7605 26.8998 23.3605 26.5998 23.0605ZM7.69984 22.8605C8.19984 21.4605 8.79984 18.9605 8.69984 14.7605C8.69984 10.8605 11.7998 7.66055 15.5998 7.46055C15.6998 7.46055 15.8998 7.56055 15.9998 7.56055C16.0998 7.56055 16.2998 7.56055 16.3998 7.46055C20.1998 7.66055 23.2998 10.8605 23.2998 14.7605C23.2998 18.9605 23.7998 21.4605 24.2998 22.8605H7.69984Z" fill="#2D373D"/>
</svg>
