<svg width="16" height="17" viewBox="0 0 16 17" fill="none" xmlns="http://www.w3.org/2000/svg">
<path fill-rule="evenodd" clip-rule="evenodd" d="M8.35909 2.92928C8.65896 2.6294 9.06568 2.46094 9.48976 2.46094C9.91385 2.46094 10.3206 2.62941 10.6204 2.92928C10.9203 3.22915 11.0888 3.63587 11.0888 4.05996V5.7207C11.0888 5.817 11.111 5.84736 11.1158 5.8539C11.1244 5.86567 11.149 5.89196 11.2226 5.92391C11.2994 5.95723 11.4001 5.98445 11.5363 6.01303C11.572 6.02051 11.6138 6.02874 11.6588 6.0376C11.7597 6.05744 11.8764 6.0804 11.9748 6.105C12.5814 6.25594 13.1165 6.61315 13.4885 7.11539C13.8606 7.6177 14.0464 8.2338 14.0139 8.85807L14.0138 8.86151L13.8672 11.3526C13.8668 11.3595 13.8663 11.3664 13.8656 11.3732C13.7802 12.2224 13.3814 13.0093 12.7471 13.5803C12.113 14.151 11.289 14.4649 10.4359 14.4609H8.03906C7.53826 14.4609 7.30843 14.3944 6.18645 14.0698C5.94414 13.9997 5.66022 13.9175 5.32298 13.8214L5.31991 13.8205C5.27953 13.8087 5.2389 13.7979 5.19804 13.7881V13.9511C5.19804 14.2273 4.97418 14.4511 4.69804 14.4511H2.5C2.22386 14.4511 2 14.2273 2 13.9511V7.35702C2 7.08087 2.22386 6.85702 2.5 6.85702H4.69804C4.97418 6.85702 5.19804 7.08087 5.19804 7.35702V7.95634C5.84827 7.88695 6.32268 7.6742 6.67513 7.40129C7.11333 7.06198 7.40028 6.6005 7.58632 6.11091C7.93822 5.18485 7.89878 4.25344 7.89163 4.08465C7.8911 4.07209 7.89074 4.06376 7.89074 4.05996C7.89074 3.63587 8.05921 3.22915 8.35909 2.92928ZM4.19804 13.2183V7.85702H3V13.4511H4.19804V13.2183C4.19804 13.2181 4.19804 13.2184 4.19804 13.2183Z" fill="#2D373D"/>
</svg>
