<svg width="64" height="64" viewBox="0 0 64 64" fill="none" xmlns="http://www.w3.org/2000/svg">
<path d="M42.5001 34.0401C43.0305 34.0401 43.5392 33.8294 43.9143 33.4543C44.2894 33.0792 44.5001 32.5705 44.5001 32.0401V18.0401C44.5001 17.5097 44.2894 17.0009 43.9143 16.6259C43.5392 16.2508 43.0305 16.0401 42.5001 16.0401C40.1147 16.0454 37.8286 16.9953 36.1419 18.682C34.4553 20.3686 33.5054 22.6548 33.5001 25.0401V26.8001C33.5001 27.3305 33.7108 27.8392 34.0859 28.2143C34.4609 28.5894 34.9696 28.8001 35.5001 28.8001H40.5001V32.0401C40.5001 32.5705 40.7108 33.0792 41.0859 33.4543C41.4609 33.8294 41.9696 34.0401 42.5001 34.0401ZM37.5001 24.7801C37.5609 23.5371 38.0812 22.3611 38.9601 21.4801C39.4118 21.0447 39.9321 20.6866 40.5001 20.4201V24.7801H37.5001Z" fill="#2D373D"/>
<path d="M30.5001 21.5601C30.493 20.1017 29.9192 18.7032 28.9001 17.6601C27.8434 16.6688 26.4489 16.117 25.0001 16.117C23.5512 16.117 22.1567 16.6688 21.1001 17.6601C20.0737 18.6985 19.4986 20.1 19.5001 21.5601C19.5001 22.0905 19.7108 22.5992 20.0859 22.9743C20.4609 23.3494 20.9696 23.5601 21.5001 23.5601C22.0305 23.5601 22.5392 23.3494 22.9143 22.9743C23.2894 22.5992 23.5001 22.0905 23.5001 21.5601C23.5004 21.1624 23.6587 20.7811 23.9401 20.5001C24.2262 20.2286 24.6056 20.0772 25.0001 20.0772C25.3945 20.0772 25.7739 20.2286 26.0601 20.5001C26.3415 20.7811 26.4997 21.1624 26.5001 21.5601C26.4944 22.2426 26.2623 22.9039 25.8401 23.4401L20.0001 30.8401C19.7867 31.1224 19.6521 31.4563 19.6099 31.8077C19.5677 32.159 19.6196 32.5153 19.7601 32.8401C19.9222 33.1804 20.1772 33.468 20.4956 33.6697C20.8141 33.8714 21.1831 33.979 21.5601 33.9801H28.5601C29.0905 33.9801 29.5992 33.7694 29.9743 33.3943C30.3494 33.0192 30.5601 32.5105 30.5601 31.9801C30.5601 31.4497 30.3494 30.9409 29.9743 30.5659C29.5992 30.1908 29.0905 29.9801 28.5601 29.9801H25.6601L28.9601 26.0401C29.9785 24.7711 30.523 23.187 30.5001 21.5601Z" fill="#2D373D"/>
<path d="M57.6601 25.4201C56.1758 19.6642 52.7981 14.5751 48.0705 10.9718C43.343 7.3686 37.5405 5.46078 31.5971 5.55545C25.6537 5.65012 19.915 7.74177 15.3046 11.4938C10.6942 15.2458 7.48025 20.4398 6.18007 26.2401L5.66007 25.4601C5.51299 25.2421 5.32441 25.0552 5.1051 24.9101C4.88579 24.765 4.64005 24.6645 4.3819 24.6143C3.86055 24.5131 3.32032 24.623 2.88007 24.9201C2.43981 25.2171 2.13558 25.6769 2.03431 26.1983C1.93304 26.7196 2.04302 27.2598 2.34007 27.7001L5.84007 32.9001C5.8749 32.9449 5.91521 32.9853 5.96007 33.0201C6.04486 33.1285 6.14608 33.223 6.26007 33.3001L6.54007 33.5201L6.92007 33.6601C6.92007 33.6601 7.04007 33.6601 7.12007 33.6601H7.56007C7.77133 33.6493 7.98003 33.6089 8.18007 33.5401L8.62007 33.3201L13.8201 30.0401C14.2576 29.7404 14.5582 29.2791 14.6558 28.7578C14.7533 28.2364 14.6397 27.6977 14.3401 27.2601C14.0437 26.8249 13.5877 26.5241 13.071 26.4231C12.5543 26.322 12.0186 26.4287 11.5801 26.7201L10.0001 27.7401C10.757 23.9171 12.494 20.3562 15.0409 17.4063C17.5878 14.4564 20.8573 12.2187 24.529 10.9122C28.2007 9.60576 32.1489 9.27542 35.9866 9.95356C39.8244 10.6317 43.4203 12.295 46.422 14.7807C49.4236 17.2663 51.7282 20.489 53.11 24.1331C54.4917 27.7772 54.9032 31.7177 54.3042 35.5686C53.7052 39.4195 52.1162 43.0488 49.6929 46.101C47.2695 49.1532 44.0949 51.5236 40.4801 52.9801C35.4302 55.033 29.8065 55.181 24.6556 53.3966C19.5048 51.6122 15.1778 48.0169 12.4801 43.2801C12.3487 43.0516 12.1737 42.8512 11.9649 42.6903C11.7562 42.5295 11.5178 42.4113 11.2633 42.3426C11.0089 42.2739 10.7434 42.256 10.4821 42.2899C10.2207 42.3237 9.96857 42.4088 9.74007 42.5401C9.51157 42.6714 9.31117 42.8465 9.15032 43.0552C8.98947 43.264 8.87131 43.5024 8.80259 43.7568C8.73388 44.0113 8.71595 44.2767 8.74983 44.5381C8.78371 44.7995 8.86874 45.0516 9.00007 45.2801C12.1824 50.8593 17.2869 55.0893 23.3601 57.1801C26.1374 58.1494 29.0584 58.643 32.0001 58.6401C36.051 58.6322 40.0465 57.6979 43.6808 55.9085C47.3151 54.1191 50.4919 51.5221 52.9682 48.3162C55.4446 45.1103 57.1548 41.3804 57.968 37.412C58.7812 33.4435 58.6759 29.3416 57.6601 25.4201Z" fill="#2D373D"/>
<path d="M27.1401 38.7201C26.6177 38.1934 25.9938 37.7782 25.3063 37.4998C24.6187 37.2213 23.8817 37.0853 23.1401 37.1001C22.6096 37.1001 22.1009 37.3108 21.7259 37.6859C21.3508 38.0609 21.1401 38.5697 21.1401 39.1001C21.1401 39.6305 21.3508 40.1392 21.7259 40.5143C22.1009 40.8894 22.6096 41.1001 23.1401 41.1001C23.3373 41.098 23.5329 41.1359 23.7151 41.2116C23.8973 41.2872 24.0623 41.3989 24.2001 41.5401C24.3458 41.6754 24.4619 41.8395 24.5411 42.0219C24.6202 42.2044 24.6607 42.4012 24.6601 42.6001C24.6491 43.0054 24.4847 43.3914 24.2001 43.6801C24.0623 43.8212 23.8973 43.933 23.7151 44.0086C23.5329 44.0842 23.3373 44.1222 23.1401 44.1201C22.6096 44.1201 22.1009 44.3308 21.7259 44.7059C21.3508 45.0809 21.1401 45.5897 21.1401 46.1201C21.1401 46.6505 21.3508 47.1592 21.7259 47.5343C22.1009 47.9094 22.6096 48.1201 23.1401 48.1201C23.8811 48.1303 24.6167 47.9922 25.3037 47.714C25.9906 47.4358 26.615 47.0231 27.1401 46.5001C27.6711 45.9558 28.0861 45.3094 28.3601 44.6001H35.6401C35.914 45.3094 36.3291 45.9558 36.8601 46.5001C37.8964 47.532 39.2976 48.114 40.7601 48.1201C41.2905 48.1201 41.7992 47.9094 42.1743 47.5343C42.5494 47.1592 42.7601 46.6505 42.7601 46.1201C42.7601 45.5897 42.5494 45.0809 42.1743 44.7059C41.7992 44.3308 41.2905 44.1201 40.7601 44.1201C40.5585 44.1188 40.3593 44.0775 40.1739 43.9986C39.9885 43.9196 39.8206 43.8045 39.6801 43.6601C39.4057 43.3744 39.2487 42.9961 39.2401 42.6001C39.2394 42.4012 39.2799 42.2044 39.3591 42.0219C39.4383 41.8395 39.5544 41.6754 39.7001 41.5401C39.9811 41.2587 40.3624 41.1004 40.7601 41.1001C41.2905 41.1001 41.7992 40.8894 42.1743 40.5143C42.5494 40.1392 42.7601 39.6305 42.7601 39.1001C42.7601 38.5697 42.5494 38.0609 42.1743 37.6859C41.7992 37.3108 41.2905 37.1001 40.7601 37.1001C40.0352 37.0987 39.3172 37.2412 38.6477 37.5193C37.9783 37.7974 37.3707 38.2055 36.8601 38.7201C36.3231 39.2518 35.907 39.8931 35.6401 40.6001H28.3601C28.0932 39.8931 27.6771 39.2518 27.1401 38.7201Z" fill="#2D373D"/>
</svg>
