<svg width="16" height="16" viewBox="0 0 16 16" fill="none" xmlns="http://www.w3.org/2000/svg">
<path d="M14.1998 2.6499H1.7998C1.4998 2.6499 1.2998 2.8499 1.2998 3.1499V12.8999C1.2998 13.1999 1.4998 13.3999 1.7998 13.3999H14.1998C14.4498 13.3999 14.6998 13.1499 14.6998 12.8999V3.1499C14.6998 2.8499 14.4998 2.6499 14.1998 2.6499ZM13.6998 3.6499V4.8499H2.2998V3.6499H13.6998ZM2.2998 12.3999V5.8499H13.6998V12.3999H2.2998Z" fill="#2D373D"/>
<path d="M5.59976 6.99988C4.44976 6.99988 3.49976 7.94988 3.49976 9.09988V9.89988C3.49976 10.1999 3.69976 10.3999 3.99976 10.3999H5.09976V10.6999C5.09976 10.9999 5.29976 11.1999 5.59976 11.1999C5.89976 11.1999 6.09976 10.9999 6.09976 10.6999V7.49988C6.09976 7.19988 5.89976 6.99988 5.59976 6.99988ZM5.09976 9.39988H4.49976V9.14988C4.49976 8.69988 4.74976 8.34988 5.09976 8.14988V9.39988Z" fill="#2D373D"/>
<path d="M11.9998 6.99988C10.8498 6.99988 9.89978 7.94988 9.89978 9.09988V9.89988C9.89978 10.1999 10.0998 10.3999 10.3998 10.3999H11.4998V10.6999C11.4998 10.9999 11.6998 11.1999 11.9998 11.1999C12.2498 11.1999 12.4998 10.9999 12.4998 10.6999V7.49988C12.4998 7.19988 12.2998 6.99988 11.9998 6.99988ZM11.4998 9.39988H10.8998V9.14988C10.8998 8.69988 11.1498 8.34988 11.4998 8.14988V9.39988Z" fill="#2D373D"/>
<path d="M7.99983 6.99988C7.64983 6.99988 7.34983 7.14988 7.09983 7.39988C6.84983 7.64988 6.69983 7.94988 6.69983 8.29988V9.89988C6.69983 10.5999 7.29983 11.1999 7.99983 11.1999C8.69983 11.1999 9.29983 10.6499 9.29983 9.89988V8.29988C9.29983 7.59988 8.69983 6.99988 7.99983 6.99988ZM8.29983 9.89988C8.29983 10.0499 8.14983 10.1999 7.99983 10.1999C7.84983 10.1999 7.69983 10.0499 7.69983 9.89988V8.29988C7.69983 8.24988 7.74983 8.14988 7.79983 8.09988C7.84983 8.04988 7.89983 7.99988 7.99983 7.99988C8.14983 7.99988 8.29983 8.14988 8.29983 8.29988V9.89988Z" fill="#2D373D"/>
</svg>
