<svg width="24" height="25" viewBox="0 0 24 25" fill="none" xmlns="http://www.w3.org/2000/svg">
<path d="M19.9498 21.0852C20.0998 20.8602 20.0998 20.6352 20.0248 20.3352V17.4102C20.0248 16.9602 19.7248 16.6602 19.2748 16.6602C18.8248 16.6602 18.5248 16.9602 18.5248 17.4102V18.7602L16.1248 16.3602C15.4498 15.7602 14.5498 15.5352 13.7248 15.7602L9.52481 16.8852C9.14981 16.9602 8.84981 16.8852 8.62481 16.6602L4.19981 12.0852C3.8998 11.7852 3.4498 11.7852 3.1498 12.0852C2.8498 12.3852 2.8498 12.8352 3.1498 13.1352L7.57481 17.7852C8.17481 18.3852 9.07481 18.6102 9.89981 18.3852L14.0998 17.2602C14.3998 17.1852 14.7748 17.2602 14.9998 17.4852L17.4748 19.9602H15.9748C15.5248 19.9602 15.2248 20.2602 15.2248 20.7102C15.2248 21.1602 15.5248 21.4602 15.9748 21.4602H19.2748C19.3498 21.4602 19.4248 21.4602 19.4998 21.3852C19.7248 21.3852 19.8748 21.2352 19.9498 21.0852Z" fill="#2D373D"/>
<path d="M5.17463 11.4852C5.54963 11.4102 5.84963 11.0352 5.69963 10.5852C5.17463 8.03516 6.89963 5.48516 9.44963 4.96016C10.7246 4.66016 11.9996 4.96016 13.0496 5.63516C14.0996 6.38516 14.8496 7.43516 15.0746 8.71016C15.4496 10.5102 14.7746 12.3852 13.2746 13.5102C12.9746 13.7352 12.8996 14.2602 13.1246 14.5602C13.2746 14.7852 13.4996 14.8602 13.7246 14.8602C13.8746 14.8602 14.0246 14.7852 14.2496 14.6352C16.1996 13.1352 17.0996 10.7352 16.6496 8.33516C16.2746 6.68516 15.3746 5.26016 13.9496 4.36016C12.5246 3.46016 10.8746 3.16016 9.22463 3.46016C5.77463 4.13516 3.59963 7.51016 4.27463 10.8852C4.34963 11.3352 4.72463 11.5602 5.17463 11.4852Z" fill="#2D373D"/>
<path d="M10.7999 11.1102H9.29988C8.84988 11.1102 8.54988 11.4102 8.54988 11.8602C8.54988 12.3102 8.84988 12.6102 9.29988 12.6102H9.74988C9.82488 12.9852 10.0499 13.2102 10.4999 13.2102C10.8749 13.2102 11.1749 12.9102 11.2499 12.5352C11.8499 12.4602 12.2999 12.0852 12.4499 11.4852C12.6749 11.0352 12.6749 10.5102 12.4499 10.1352C12.2249 9.76016 11.9249 9.38516 11.4749 9.23516L9.97488 8.63516C9.89988 8.63516 9.82488 8.56016 9.82488 8.41016C9.82488 8.33516 9.89988 8.26016 9.89988 8.26016C9.89988 8.26016 9.97488 8.18516 10.0499 8.18516H11.5499C11.9999 8.18516 12.2999 7.88516 12.2999 7.43516C12.2999 6.98516 11.9999 6.68516 11.5499 6.68516H11.1749C11.0999 6.38516 10.7999 6.16016 10.4999 6.16016C10.1249 6.16016 9.82488 6.38516 9.74988 6.68516C9.37488 6.83516 8.99988 6.98516 8.77488 7.21016C8.39988 7.51016 8.24988 7.96016 8.24988 8.41016C8.24988 9.16016 8.69988 9.76016 9.37488 10.0602L10.8749 10.6602C10.9499 10.7352 11.0249 10.8102 11.0249 10.8102C11.0249 10.8102 11.0249 10.8852 11.0249 10.9602C11.0249 11.0352 10.8749 11.1102 10.7999 11.1102Z" fill="#2D373D"/>
</svg>
