<svg width="16" height="17" viewBox="0 0 16 17" fill="none" xmlns="http://www.w3.org/2000/svg">
<path fill-rule="evenodd" clip-rule="evenodd" d="M5.79349 2.92188C5.12715 2.92188 4.4881 3.18732 4.01693 3.65981C3.69654 3.98109 3.47162 4.38022 3.36047 4.81285H3.231C2.95532 4.81285 2.73184 5.03696 2.73184 5.31341C2.73184 5.58986 2.95532 5.81397 3.231 5.81397H3.30867C3.38775 6.3443 3.63423 6.83912 4.01693 7.22288C4.34435 7.55121 4.75283 7.77957 5.19521 7.88835C4.66053 7.97642 4.1499 8.18133 3.69793 8.48973C3.17447 8.84691 2.74639 9.33146 2.45066 9.89893C2.15498 10.4663 2.00042 11.0997 2 11.7425C1.99982 12.0189 2.22315 12.2432 2.49883 12.2433C2.77451 12.2435 2.99814 12.0196 2.99832 11.7431C2.99864 11.2605 3.11475 10.7861 3.33546 10.3626C3.55612 9.93915 3.87406 9.58044 4.25954 9.31741C4.64493 9.05444 5.0862 8.89499 5.54383 8.85211C6.00143 8.80923 6.46257 8.8841 6.88636 9.07065C7.13879 9.18177 7.43325 9.06665 7.54406 8.81351C7.65487 8.56038 7.54007 8.26509 7.28764 8.15397C7.00017 8.02743 6.69965 7.93838 6.39304 7.88803C6.83493 7.77913 7.24295 7.5509 7.57005 7.22288C7.95275 6.83912 8.19923 6.3443 8.27831 5.81397H8.35572C8.6314 5.81397 8.85488 5.58986 8.85488 5.31341C8.85488 5.03696 8.6314 4.81285 8.35572 4.81285H8.22651C8.11536 4.38022 7.89044 3.98109 7.57005 3.65981C7.09888 3.18732 6.45983 2.92188 5.79349 2.92188ZM7.17181 4.81285C7.09739 4.64872 6.99372 4.49765 6.86413 4.3677C6.80704 4.31045 6.74585 4.25824 6.68126 4.21136L6.68967 4.81285H7.17181ZM6.01184 3.93885C5.93995 3.92835 5.867 3.92299 5.79349 3.92299C5.72072 3.92299 5.6485 3.92824 5.57732 3.93854L5.57732 4.81285H6.02406L6.01184 3.93885ZM4.91177 4.20699C4.84495 4.25499 4.78172 4.30866 4.72285 4.3677C4.59326 4.49765 4.48959 4.64872 4.41517 4.81285H4.91177L4.91177 4.20699ZM4.32567 5.81397C4.39209 6.07706 4.52825 6.31984 4.72285 6.51498C5.0068 6.79973 5.39192 6.9597 5.79349 6.9597C6.19506 6.9597 6.58018 6.79973 6.86413 6.51498C7.05873 6.31984 7.19489 6.07706 7.26131 5.81397H4.32567Z" fill="#2D373D"/>
<path fill-rule="evenodd" clip-rule="evenodd" d="M9.17478 8.58149C8.34775 8.58149 7.6773 9.25381 7.6773 10.0832V13.4202C7.6773 14.2496 8.34775 14.9219 9.17478 14.9219H12.5025C13.3296 14.9219 14 14.2496 14 13.4202V10.0832C14 9.25381 13.3296 8.58149 12.5025 8.58149H9.17478ZM8.67562 10.0832C8.67562 9.80671 8.8991 9.5826 9.17478 9.5826H10.3395V11.2511H8.67562V10.0832ZM11.3378 11.2511V9.5826H12.5025C12.7782 9.5826 13.0017 9.80671 13.0017 10.0832V11.2511H11.3378ZM11.3378 12.2522H13.0017V13.4202C13.0017 13.6967 12.7782 13.9208 12.5025 13.9208H11.3378V12.2522ZM10.3395 12.2522V13.9208H9.17478C8.8991 13.9208 8.67562 13.6967 8.67562 13.4202V12.2522H10.3395Z" fill="#2D373D"/>
</svg>
