<svg width="16" height="17" viewBox="0 0 16 17" fill="none" xmlns="http://www.w3.org/2000/svg">
<path d="M13.4347 3.03573C13.2573 2.85465 13.0458 2.71059 12.8123 2.61188C12.5789 2.51318 12.3281 2.4618 12.0747 2.46073V2.46073C11.7218 2.45966 11.3756 2.55659 11.0747 2.74073C10.9874 2.68456 10.8953 2.63604 10.7997 2.59573C10.5621 2.49644 10.3072 2.44531 10.0497 2.44531C9.79217 2.44531 9.53725 2.49644 9.29967 2.59573C9.06535 2.69529 8.85169 2.83774 8.66967 3.01573L7.16967 4.51573C7.07551 4.60988 7.02262 4.73758 7.02262 4.87073C7.02262 5.00388 7.07551 5.13158 7.16967 5.22573C7.26382 5.31988 7.39152 5.37278 7.52467 5.37278C7.65782 5.37278 7.78551 5.31988 7.87967 5.22573L9.37967 3.72573C9.46546 3.63863 9.56735 3.56901 9.67967 3.52073C9.85904 3.44284 10.058 3.4219 10.2497 3.46073L8.93467 4.79573L4.36467 9.36073C4.25145 9.4734 4.16176 9.60745 4.10082 9.75509C4.03987 9.90273 4.00889 10.061 4.00967 10.2207C4.01081 10.3151 4.02255 10.409 4.04467 10.5007C3.77271 10.5734 3.52559 10.7186 3.32967 10.9207C2.82967 11.4207 2.38967 13.0857 2.26467 13.5907C2.24612 13.6656 2.24515 13.7437 2.26183 13.819C2.2785 13.8944 2.31237 13.9648 2.36079 14.0248C2.40921 14.0849 2.47087 14.1329 2.54093 14.1651C2.61099 14.1974 2.68757 14.213 2.76467 14.2107C2.80282 14.2159 2.84151 14.2159 2.87967 14.2107C3.37967 14.0907 5.07467 13.6557 5.56467 13.1657C5.76936 12.965 5.91618 12.7128 5.98967 12.4357C6.07656 12.4558 6.16548 12.4659 6.25467 12.4657C6.41563 12.4659 6.57515 12.4354 6.72467 12.3757C6.8706 12.3135 7.00305 12.2235 7.11467 12.1107L13.4447 5.76073C13.8052 5.39775 14.0082 4.90733 14.0097 4.39573C14.0083 4.14231 13.9568 3.89166 13.8581 3.65825C13.7594 3.42483 13.6155 3.21326 13.4347 3.03573ZM4.84967 12.4607C4.41942 12.7137 3.9545 12.9023 3.46967 13.0207C3.5874 12.5357 3.77969 12.0718 4.03967 11.6457C4.09284 11.5872 4.15769 11.5405 4.23004 11.5087C4.30238 11.4768 4.38061 11.4605 4.45967 11.4607V11.4607C4.60927 11.4601 4.75371 11.5154 4.86467 11.6157C4.96998 11.7296 5.02573 11.8807 5.01967 12.0357C5.02107 12.1143 5.00676 12.1924 4.97756 12.2654C4.94837 12.3384 4.90489 12.4048 4.84967 12.4607V12.4607ZM6.39467 11.4107C6.37457 11.4302 6.35077 11.4456 6.32467 11.4557C6.29893 11.4681 6.27073 11.4746 6.24217 11.4746C6.2136 11.4746 6.1854 11.4681 6.15967 11.4557C6.13297 11.4468 6.10891 11.4313 6.08967 11.4107L5.58967 10.9107L5.08967 10.4107C5.06823 10.3912 5.05132 10.3672 5.04009 10.3404C5.02887 10.3136 5.02361 10.2847 5.02467 10.2557C5.024 10.2275 5.02947 10.1995 5.04069 10.1736C5.05191 10.1477 5.06862 10.1245 5.08967 10.1057L9.29967 5.89573L10.6197 7.21573L6.39467 11.4107ZM12.7347 5.05573L11.3147 6.46073L10.0097 5.15573L11.4097 3.73573C11.5836 3.56192 11.8188 3.46319 12.0647 3.46073V3.46073C12.1863 3.45994 12.3069 3.4834 12.4194 3.52976C12.5318 3.57612 12.6339 3.64445 12.7197 3.73073C12.8928 3.90577 12.9899 4.14203 12.9899 4.38823C12.9899 4.63443 12.8928 4.87069 12.7197 5.04573L12.7347 5.05573Z" fill="#2D373D"/>
</svg>
