<svg width="24" height="25" viewBox="0 0 24 25" fill="none" xmlns="http://www.w3.org/2000/svg">
<path fill-rule="evenodd" clip-rule="evenodd" d="M14.5 11.6719C14.5 13.0526 13.3807 14.1719 12 14.1719C10.6193 14.1719 9.5 13.0526 9.5 11.6719C9.5 10.2912 11 7.17188 12 7.17188C13 7.17188 14.5 10.2912 14.5 11.6719ZM13 11.6719C13 12.2242 12.5523 12.6719 12 12.6719C11.4477 12.6719 11 12.2242 11 11.6719C11 11.5526 11.0418 11.2696 11.1782 10.8449C11.3069 10.4441 11.4915 10.0044 11.7031 9.60134C11.8038 9.40947 11.9043 9.23816 12 9.09067C12.0957 9.23816 12.1962 9.40947 12.2969 9.60134C12.5085 10.0044 12.6931 10.4441 12.8218 10.8449C12.9582 11.2696 13 11.5526 13 11.6719Z" fill="#2D373D"/>
<path fill-rule="evenodd" clip-rule="evenodd" d="M12 2.92188C9.92405 2.92188 8.56584 3.24603 7.66671 3.64164C6.82649 4.01133 6.42192 4.43179 6.25975 4.60033C6.24423 4.61646 6.23092 4.63029 6.21967 4.64154C6.07902 4.7822 6 4.97296 6 5.17188V16.9219C6 17.2286 6.18671 17.5043 6.47146 17.6182C6.68835 17.705 6.9463 17.7944 7.25 17.8807V19.4219C7.25 19.6726 7.37533 19.9068 7.58397 20.0459C7.95445 20.2929 8.56728 20.504 9.28187 20.6556C9.57637 20.718 9.90041 20.7729 10.25 20.8164V22.1755C10.25 22.5898 10.5858 22.9255 11 22.9255C11.4142 22.9255 11.75 22.5898 11.75 22.1755V20.9198C11.8325 20.9212 11.9159 20.9219 12 20.9219C12.1604 20.9219 12.3178 20.9193 12.4722 20.9145V22.1755C12.4722 22.5898 12.808 22.9255 13.2222 22.9255C13.6364 22.9255 13.9722 22.5898 13.9722 22.1755V20.7868C14.2378 20.7489 14.487 20.7046 14.7181 20.6556C15.4327 20.504 16.0455 20.2929 16.416 20.0459C16.6247 19.9068 16.75 19.6726 16.75 19.4219V17.8807C17.0537 17.7944 17.3117 17.705 17.5285 17.6182C17.8133 17.5043 18 17.2286 18 16.9219V5.17188C18 4.97296 17.921 4.7822 17.7803 4.64154C17.7692 4.63038 17.756 4.61667 17.7406 4.60069C17.5784 4.43215 17.1735 4.01133 16.3333 3.64164C15.4342 3.24603 14.076 2.92188 12 2.92188ZM8.75 18.9527V18.1997C9.61602 18.3326 10.6872 18.4219 12 18.4219C13.3129 18.4219 14.384 18.3326 15.25 18.1998V18.9527C15.0496 19.0272 14.7694 19.1113 14.4069 19.1882C13.7723 19.3228 12.9496 19.4219 12 19.4219C11.0504 19.4219 10.2277 19.3228 9.59313 19.1882C9.23061 19.1113 8.95043 19.0272 8.75 18.9527ZM7.5 16.3905V5.48606C7.65338 5.35148 7.88863 5.18277 8.27081 5.01461C8.9342 4.72273 10.076 4.42188 12 4.42188C13.924 4.42188 15.0658 4.72272 15.7292 5.01461C16.1114 5.18277 16.3466 5.35148 16.5 5.48605V16.3905C15.6602 16.6488 14.2368 16.9219 12 16.9219C9.7632 16.9219 8.33984 16.6488 7.5 16.3905Z" fill="#2D373D"/>
</svg>
