<svg width="16" height="17" viewBox="0 0 16 17" fill="none" xmlns="http://www.w3.org/2000/svg">
<path fill-rule="evenodd" clip-rule="evenodd" d="M3.48318 8.37512C3.75932 8.37512 3.98318 8.59898 3.98318 8.87512V13.8051C3.98318 13.8904 4.01707 13.9722 4.07739 14.0326C4.13772 14.0929 4.21953 14.1268 4.30485 14.1268H11.6998C11.7852 14.1268 11.867 14.0929 11.9273 14.0326C11.9876 13.9722 12.0215 13.8904 12.0215 13.8051V8.87512C12.0215 8.59898 12.2454 8.37512 12.5215 8.37512C12.7977 8.37512 13.0215 8.59898 13.0215 8.87512V13.8051C13.0215 14.1556 12.8823 14.4918 12.6344 14.7397C12.3865 14.9875 12.0504 15.1268 11.6998 15.1268H4.30485C3.95432 15.1268 3.61815 14.9875 3.37029 14.7397C3.12242 14.4918 2.98318 14.1556 2.98318 13.8051V8.87512C2.98318 8.59898 3.20704 8.37512 3.48318 8.37512Z" fill="#2D373D"/>
<path fill-rule="evenodd" clip-rule="evenodd" d="M7.66119 1.93623C7.85329 1.75693 8.1514 1.75693 8.3435 1.93623L14.506 7.6879C14.7079 7.87631 14.7188 8.19271 14.5304 8.39458C14.342 8.59646 14.0256 8.60737 13.8237 8.41895L8.00235 2.9857L2.181 8.41895C1.97913 8.60737 1.66273 8.59646 1.47432 8.39458C1.2859 8.19271 1.29681 7.87631 1.49869 7.6879L7.66119 1.93623Z" fill="#2D373D"/>
<path fill-rule="evenodd" clip-rule="evenodd" d="M6.94746 6.99855C7.11827 6.82773 7.34995 6.73177 7.59151 6.73177H8.41318C8.65475 6.73177 8.88642 6.82773 9.05724 6.99855C9.22805 7.16936 9.32402 7.40104 9.32402 7.6426V8.3751H10.0565C10.2981 8.3751 10.5298 8.47107 10.7006 8.64188C10.8714 8.8127 10.9673 9.04437 10.9673 9.28594V10.1076C10.9673 10.3492 10.8714 10.5808 10.7006 10.7517C10.5298 10.9225 10.2981 11.0184 10.0565 11.0184H9.32402V11.7509C9.32402 11.9925 9.22805 12.2242 9.05724 12.395C8.88642 12.5658 8.65475 12.6618 8.41318 12.6618H7.59151C7.34995 12.6618 7.11827 12.5658 6.94746 12.395C6.77664 12.2242 6.68068 11.9925 6.68068 11.7509V11.0184H5.94818C5.70661 11.0184 5.47494 10.9225 5.30412 10.7517C5.13331 10.5808 5.03735 10.3492 5.03735 10.1076V9.28594C5.03735 9.04437 5.13331 8.8127 5.30412 8.64188C5.47494 8.47107 5.70661 8.3751 5.94818 8.3751H6.68068V7.6426C6.68068 7.40104 6.77664 7.16936 6.94746 6.99855ZM7.68068 7.73177V8.8751C7.68068 9.15125 7.45682 9.3751 7.18068 9.3751H6.03735V10.0184H7.18068C7.45682 10.0184 7.68068 10.2423 7.68068 10.5184V11.6618H8.32401V10.5184C8.32401 10.2423 8.54787 10.0184 8.82401 10.0184H9.96735V9.3751H8.82401C8.54787 9.3751 8.32401 9.15125 8.32401 8.8751V7.73177H7.68068Z" fill="#2D373D"/>
</svg>
