<svg width="24" height="25" viewBox="0 0 24 25" fill="none" xmlns="http://www.w3.org/2000/svg">
<path d="M7.9498 14.9488C6.5998 14.9488 5.5498 15.9988 5.5498 17.3488C5.5498 18.6988 6.5998 19.7488 7.9498 19.7488C9.22481 19.7488 10.3498 18.6988 10.3498 17.3488C10.3498 15.9988 9.29981 14.9488 7.9498 14.9488ZM7.9498 18.2488C7.42481 18.2488 7.0498 17.8738 7.0498 17.3488C7.0498 16.8238 7.42481 16.4488 7.9498 16.4488C8.39981 16.4488 8.8498 16.8238 8.8498 17.3488C8.8498 17.8738 8.47481 18.2488 7.9498 18.2488Z" fill="#2D373D"/>
<path d="M19.9498 16.3738V13.3738C19.9498 12.5488 19.3498 11.7988 18.5998 11.5738L16.3498 10.8238L15.0748 7.44883C15.2248 7.29883 15.2998 7.14883 15.3748 6.92383V5.42383C15.3748 4.59883 14.6998 3.92383 13.8748 3.92383H7.57481C6.74981 3.92383 6.07481 4.59883 6.07481 5.42383V6.92383C6.07481 7.14883 6.14981 7.37383 6.2998 7.52383L4.8748 11.2738C4.5748 11.4238 4.2748 11.5738 4.0498 11.7238C3.7498 11.9488 3.4498 12.2488 3.1498 12.4738C2.8498 12.7738 2.8498 13.2238 3.1498 13.5238C3.4498 13.8238 3.8998 13.8238 4.1998 13.5238C4.4248 13.3738 4.6498 13.1488 4.8748 12.9988C7.42481 11.3488 10.7998 12.0238 12.4498 14.4988L12.8248 15.0238C12.9748 15.1738 13.1998 15.3238 13.4248 15.3238H15.6748C15.8998 15.3238 16.0498 15.2488 16.1998 15.0988C16.3498 14.9488 16.4248 14.7988 16.4248 14.5738V12.3238L18.2248 12.9238C18.3748 12.9988 18.4498 13.1488 18.4498 13.2988V15.6238C18.2248 15.5488 17.9998 15.5488 17.7748 15.5488C16.1248 15.5488 14.7748 16.7488 14.6248 18.3238H12.5248C12.5998 18.0238 12.6748 17.6488 12.6748 17.3488C12.6748 14.7988 10.5748 12.6988 8.02481 12.6988C5.4748 12.6988 3.3748 14.7988 3.3748 17.3488C3.3748 19.8988 5.4748 21.9988 8.02481 21.9988C9.67481 21.9988 11.0998 21.1738 11.9248 19.8238H14.7748C15.2248 21.0988 16.3498 21.9988 17.8498 21.9988C19.6498 21.9988 21.0748 20.5738 21.0748 18.7738C20.9998 17.7988 20.6248 16.8988 19.9498 16.3738ZM7.57481 5.34883H13.7998V6.09883H7.57481V5.34883ZM14.9248 13.8238H13.8748L13.7248 13.5988C12.1498 11.1988 9.37481 10.1488 6.74981 10.5988L7.87481 7.59883H13.4998L14.8498 11.2738V13.8238H14.9248ZM10.9498 18.4738C10.7998 18.6238 10.7248 18.7738 10.7248 18.9238C10.1998 19.8988 9.14981 20.4988 8.02481 20.4988C6.2998 20.4988 4.8748 19.0738 4.8748 17.3488C4.8748 15.6238 6.2998 14.1988 8.02481 14.1988C8.84981 14.1988 9.59981 14.4988 10.2748 15.1738C10.8748 15.6988 11.1748 16.5238 11.1748 17.3488C11.0998 17.7238 11.0248 18.0988 10.9498 18.4738ZM17.7748 20.4238C16.7998 20.4238 16.0498 19.6738 16.0498 18.6988C16.0498 17.7238 16.7998 16.9738 17.7748 16.9738C18.0748 16.9738 18.3748 17.0488 18.6748 17.1988C18.7498 17.2738 18.8248 17.2738 18.8248 17.3488C19.1998 17.6488 19.4998 18.1738 19.4998 18.6988C19.4998 19.6738 18.7498 20.4238 17.7748 20.4238Z" fill="#2D373D"/>
<path d="M18.1498 17.7239C18.0748 17.6489 17.9248 17.6489 17.8498 17.6489C17.7748 17.6489 17.6248 17.6489 17.5498 17.7239C17.2498 17.7989 16.9498 18.0989 16.8748 18.3989C16.7998 18.4739 16.7998 18.6239 16.7998 18.6989C16.7998 18.7739 16.7998 18.9239 16.8748 18.9989C16.9498 19.2989 17.2498 19.5989 17.5498 19.6739C17.6248 19.7489 17.7748 19.7489 17.8498 19.7489C18.4498 19.7489 18.8998 19.2989 18.8998 18.6989C18.8998 18.5489 18.8998 18.4739 18.8248 18.3989C18.6748 18.0989 18.4498 17.7989 18.1498 17.7239Z" fill="#2D373D"/>
</svg>
