<svg width="32" height="33" viewBox="0 0 32 33" fill="none" xmlns="http://www.w3.org/2000/svg">
<path fill-rule="evenodd" clip-rule="evenodd" d="M20.5766 4.96013C21.9248 4.81899 23.2841 5.09144 24.4738 5.74127C24.7503 5.89228 24.9394 6.16474 24.9842 6.47656C25.0291 6.78838 24.9244 7.10309 24.7016 7.32588L21.7204 10.308V11.2022H22.6147L25.5981 8.21974C25.8209 7.99717 26.1356 7.89258 26.4473 7.93747C26.759 7.98237 27.0314 8.17149 27.1824 8.44789C27.8322 9.63758 28.1047 10.9968 27.9635 12.3451C27.8224 13.6933 27.2743 14.9667 26.3922 15.996C25.5101 17.0253 24.3356 17.7618 23.0249 18.1077C21.9248 18.398 20.7723 18.4016 19.6764 18.1232L9.8917 27.9117C9.24448 28.5589 8.36651 28.9227 7.4512 28.9227C6.53588 28.9227 5.65806 28.5591 5.01083 27.9118C4.36361 27.2646 4 26.3868 4 25.4715C4 24.5562 4.36361 23.6783 5.01083 23.0311L14.7985 13.2473C14.5201 12.1513 14.5237 10.9989 14.814 9.89874C15.1599 8.58801 15.8964 7.41356 16.9257 6.53144C17.955 5.64931 19.2284 5.10127 20.5766 4.96013ZM22.1855 7.01388C21.7271 6.92262 21.255 6.90004 20.7849 6.94926C19.8403 7.04814 18.9483 7.43208 18.2272 8.05006C17.5061 8.66804 16.9901 9.49081 16.7478 10.409C16.5055 11.3273 16.5483 12.2975 16.8706 13.1908C17.0021 13.5555 16.9111 13.9634 16.6369 14.2374L6.42505 24.4453C6.15289 24.7175 6 25.0866 6 25.4715C6 25.8564 6.15289 26.2255 6.42505 26.4976C6.6972 26.7698 7.06632 26.9227 7.4512 26.9227C7.83608 26.9227 8.2052 26.7698 8.47735 26.4976L18.6862 16.2848C18.9603 16.0106 19.3681 15.9196 19.7328 16.0511C20.6261 16.3734 21.5964 16.4162 22.5146 16.1739C23.4328 15.9316 24.2556 15.4156 24.8736 14.6945C25.4916 13.9734 25.8755 13.0813 25.9744 12.1368C26.0236 11.6666 26.001 11.1945 25.9098 10.7361L23.7358 12.9095C23.5483 13.0969 23.294 13.2022 23.0288 13.2022H20.7204C20.1681 13.2022 19.7204 12.7545 19.7204 12.2022V9.89386C19.7204 9.6287 19.8257 9.37439 20.0132 9.18686L22.1855 7.01388Z" fill="#2D373D"/>
</svg>
