<svg width="16" height="17" viewBox="0 0 16 17" fill="none" xmlns="http://www.w3.org/2000/svg">
<path d="M12.5 11.3118C11.8 11.0118 11.35 10.3118 11.35 9.56178C11.35 9.51178 11.35 9.51178 11.35 9.51178C11.4 8.86178 11.75 8.26178 12.3 7.91178C12.45 7.86178 12.5 7.76178 12.55 7.61178C12.55 7.46178 12.55 7.31178 12.45 7.21178C11.9 6.41178 11 5.96178 10.1 5.91178C9.5 5.86178 8.9 6.11178 8.45 6.26178C8.3 6.31178 8.05 6.41178 8 6.41178C7.9 6.41178 7.7 6.31178 7.5 6.26178C7.15 6.11178 6.7 5.96178 6.2 5.96178C5.1 5.96178 4.1 6.61178 3.55 7.56178C2.5 9.31178 3.15 11.9618 4.25 13.5618C4.7 14.2118 5.35 15.1618 6.35 15.1618C6.4 15.1618 6.4 15.1618 6.35 15.1118C6.8 15.1118 7.1 14.9618 7.35 14.8618C7.6 14.7618 7.8 14.6618 8.15 14.6618C8.45 14.6618 8.65 14.7618 8.9 14.8618C9.2 14.9618 9.5 15.1118 9.95 15.1118C10.95 15.1118 11.6 14.1618 12 13.5618C12.35 13.0618 12.6 12.5118 12.8 11.9118C12.85 11.6618 12.75 11.4118 12.5 11.3118ZM11.25 13.0618C10.85 13.6618 10.45 14.1618 10 14.1618C9.75 14.1618 9.55 14.1118 9.35 14.0118C9.1 13.9118 8.75 13.7618 8.2 13.7618C7.65 13.7618 7.3 13.9118 7 14.0118C6.8 14.0618 6.65 14.1618 6.4 14.1618C5.95 14.1618 5.5 13.5618 5.1 13.0118C4.3 11.8618 3.6 9.56178 4.45 8.06178C4.85 7.41178 5.55 6.96178 6.3 6.96178C6.55 6.96178 6.9 7.11178 7.2 7.16178C7.5 7.31178 7.75 7.41178 8.05 7.41178C8.3 7.41178 8.55 7.31178 8.9 7.26178C9.3 7.11178 9.7 6.91178 10.15 6.96178C10.6 6.96178 11.05 7.16178 11.4 7.46178C10.8 8.01178 10.45 8.81178 10.45 9.61178V9.66178C10.45 10.6618 11 11.5618 11.8 12.0618C11.65 12.4118 11.45 12.7618 11.25 13.0618Z" fill="#2D373D"/>
<path d="M8.00001 5.66172C8.85001 5.66172 9.65001 5.26172 10.2 4.56172C10.75 3.91172 11 3.06172 10.95 2.21172C10.9 2.06172 10.85 1.96172 10.75 1.86172C10.65 1.81172 10.55 1.76172 10.4 1.76172C9.55001 1.86172 8.80001 2.26172 8.25001 2.86172C7.70001 3.51172 7.40001 4.36172 7.50001 5.21172C7.50001 5.46172 7.75001 5.66172 8.00001 5.66172ZM9.00001 3.51172C9.25001 3.26172 9.55001 3.01172 9.90001 2.91172C9.85001 3.26172 9.70001 3.61172 9.40001 3.91172C9.20001 4.21172 8.85001 4.46172 8.50001 4.56172C8.55001 4.16172 8.75001 3.81172 9.00001 3.51172Z" fill="#2D373D"/>
</svg>
