<svg width="16" height="16" viewBox="0 0 16 16" fill="none" xmlns="http://www.w3.org/2000/svg">
<path d="M6.5998 9.3502C6.2498 9.7502 5.6998 10.0002 5.1498 10.0002H4.2998C3.1998 10.0002 2.2998 9.1002 2.2998 8.0002C2.2998 6.9002 3.1998 6.0002 4.2998 6.0002H5.0998C5.6498 6.0002 6.1998 6.2502 6.5498 6.6502C6.7498 6.8502 7.0498 6.9002 7.2498 6.7002C7.4498 6.5002 7.4998 6.2002 7.2998 6.0002C6.7498 5.3502 5.9498 5.0002 5.1498 4.9502H4.2998C2.6498 4.9502 1.2998 6.3002 1.2998 7.9502C1.2998 9.6002 2.6498 10.9502 4.2998 10.9502H5.0998C5.9498 10.9502 6.7498 10.6002 7.3498 10.0002C7.4998 9.8002 7.4998 9.5002 7.2998 9.3002C7.0998 9.1002 6.7998 9.1502 6.5998 9.3502Z" fill="#2D373D"/>
<path d="M11.6998 4.9502H10.8498C9.99978 4.9502 9.19978 5.3002 8.64978 5.9502C8.44978 6.1502 8.49978 6.4502 8.69978 6.6502C8.89978 6.8002 9.19978 6.8002 9.39978 6.6002C9.74978 6.2002 10.2998 5.9502 10.8498 5.9502H11.6998C12.7998 5.9502 13.6998 6.8502 13.6998 7.9502C13.6998 9.0502 12.7998 9.9502 11.6998 9.9502H10.8498C10.2998 9.9502 9.74978 9.7002 9.39978 9.3002C9.19978 9.1002 8.89978 9.0502 8.69978 9.2502C8.49978 9.4502 8.44978 9.7502 8.64978 9.9502C9.19978 10.6002 9.99978 10.9502 10.8498 10.9502H11.6998C13.3498 10.9502 14.6998 9.6002 14.6998 7.9502C14.6998 6.3002 13.3498 4.9502 11.6998 4.9502Z" fill="#2D373D"/>
<path d="M4.59985 8.00024C4.59985 8.30024 4.79985 8.50024 5.09985 8.50024H10.8999C11.1499 8.50024 11.3999 8.30024 11.3999 8.00024C11.3999 7.70024 11.1999 7.50024 10.8999 7.50024H5.09985C4.79985 7.50024 4.59985 7.70024 4.59985 8.00024Z" fill="#2D373D"/>
</svg>
