<svg width="24" height="25" viewBox="0 0 24 25" fill="none" xmlns="http://www.w3.org/2000/svg">
<path d="M15.7874 15.5612C15.6148 15.3838 15.4067 15.2445 15.1766 15.1523C14.7148 14.9627 14.1965 14.9627 13.7347 15.1523C13.5046 15.2445 13.2965 15.3838 13.1239 15.5612C13.0484 15.6292 12.9503 15.6668 12.8485 15.6668C12.7467 15.6668 12.6486 15.6292 12.5731 15.5612L9.36886 12.3596C9.29909 12.2872 9.26014 12.1907 9.26014 12.0903C9.26014 11.99 9.29909 11.8935 9.36886 11.821C9.54039 11.6437 9.67935 11.4378 9.77941 11.2126C9.87018 10.9839 9.91771 10.7405 9.91959 10.4945C9.91757 10.2454 9.87007 9.99868 9.77941 9.76646C9.67935 9.5413 9.54039 9.33538 9.36886 9.15806L7.36619 7.16333C7.00695 6.82305 6.53016 6.63329 6.03442 6.63329C5.53867 6.63329 5.06189 6.82305 4.70265 7.16333L4.23202 7.64206C3.55783 8.30613 3.13322 9.18079 3.02931 10.1195C2.9254 11.0583 3.14851 12.004 3.66126 12.7985C4.58118 14.2399 5.65557 15.5776 6.86553 16.7879L8.15725 18.0745C9.37468 19.2801 10.7173 20.3533 12.1626 21.2761C12.8322 21.693 13.6059 21.9142 14.3956 21.9144C14.5456 21.9244 14.6961 21.9244 14.8462 21.9144C15.7878 21.8098 16.6663 21.3916 17.3395 20.7275L17.8101 20.2488C17.9851 20.0747 18.1239 19.8679 18.2186 19.6403C18.3134 19.4127 18.3621 19.1687 18.3621 18.9223C18.3621 18.6759 18.3134 18.432 18.2186 18.2043C18.1239 17.9767 17.9851 17.7699 17.8101 17.5958L15.7874 15.5612ZM16.7287 19.1517L16.258 19.6304C15.826 20.0515 15.2662 20.318 14.6659 20.3884C14.0786 20.438 13.4912 20.2944 12.9937 19.9795C11.6406 19.124 10.3878 18.1204 9.25871 16.9874L7.91693 15.7108C6.7831 14.5793 5.77587 13.3286 4.91293 11.9806C4.5899 11.4737 4.452 10.8714 4.52241 10.2751C4.58444 9.67769 4.85353 9.12046 5.28342 8.69927L5.75405 8.22054C5.81631 8.1593 5.89741 8.12066 5.98435 8.11083C6.03453 8.10992 6.08436 8.11918 6.13084 8.13804C6.17731 8.1569 6.21946 8.18497 6.25471 8.22054L8.25738 10.2153C8.29191 10.2494 8.31916 10.2901 8.33749 10.335C8.34696 10.3844 8.34696 10.4351 8.33749 10.4846C8.34783 10.5305 8.34783 10.5782 8.33749 10.6242C8.31674 10.6708 8.2898 10.7144 8.25738 10.7539C8.08238 10.928 7.94355 11.1348 7.84884 11.3624C7.75412 11.59 7.70537 11.834 7.70537 12.0804C7.70537 12.3267 7.75412 12.5707 7.84884 12.7983C7.94355 13.0259 8.08238 13.2327 8.25738 13.4069L11.4616 16.6084C11.8284 16.9337 12.3024 17.1134 12.7934 17.1134C13.2845 17.1134 13.7584 16.9337 14.1252 16.6084C14.1618 16.5697 14.2061 16.5391 14.2554 16.5187C14.3524 16.4836 14.4587 16.4836 14.5558 16.5187C14.6004 16.542 14.641 16.5723 14.6759 16.6084L16.6786 18.6032C16.7484 18.6756 16.7873 18.7721 16.7873 18.8724C16.7873 18.9728 16.7484 19.0693 16.6786 19.1417L16.7287 19.1517Z" fill="#2D373D"/>
<path d="M20.6038 6.58485C20.4816 6.4633 20.3363 6.3672 20.1764 6.30213C20.0166 6.23706 19.8453 6.20433 19.6726 6.20585H18.6712V5.20848C18.6615 4.87374 18.5249 4.55507 18.2891 4.31643C18.0532 4.07779 17.7354 3.93684 17.3996 3.92188H15.1265C14.7785 3.92314 14.4446 4.05903 14.1953 4.30088C13.9527 4.55342 13.8166 4.88892 13.8148 5.2384V6.23577H12.8134C12.465 6.23491 12.1303 6.37112 11.8822 6.61477C11.7588 6.73601 11.6608 6.88041 11.5937 7.03962C11.5267 7.19883 11.492 7.36969 11.4917 7.54233V9.77643C11.492 9.94907 11.5267 10.1199 11.5937 10.2791C11.6608 10.4383 11.7588 10.5827 11.8822 10.704C12.1293 10.9504 12.4638 11.0901 12.8134 11.093H13.8148V12.0903C13.8133 12.2623 13.8461 12.433 13.9114 12.5922C13.9768 12.7514 14.0733 12.8961 14.1953 13.0179C14.4446 13.2597 14.7785 13.3956 15.1265 13.3969H17.3996C17.748 13.3977 18.0827 13.2615 18.3308 13.0179C18.4542 12.8966 18.5522 12.7522 18.6193 12.593C18.6863 12.4338 18.721 12.263 18.7213 12.0903V11.093H19.7226C20.0671 11.0851 20.3945 10.9426 20.6344 10.6963C20.8742 10.45 21.0071 10.1196 21.0044 9.77643V7.5124C21.0033 7.33897 20.9673 7.16752 20.8985 7.0082C20.8297 6.84887 20.7295 6.70492 20.6038 6.58485ZM19.4823 9.57696H18.0004C17.9014 9.57562 17.8031 9.59405 17.7114 9.63117C17.6196 9.66828 17.5363 9.72333 17.4663 9.79306C17.3963 9.86279 17.341 9.94579 17.3038 10.0371C17.2665 10.1285 17.248 10.2264 17.2494 10.325V11.9008H15.3468V10.3449C15.3468 10.1465 15.2677 9.95628 15.1269 9.816C14.986 9.67572 14.795 9.59691 14.5958 9.59691H13.0438V7.70191H14.5658C14.6675 7.70065 14.7678 7.67912 14.861 7.63857C14.9542 7.59803 15.0383 7.5393 15.1083 7.46585C15.1783 7.3924 15.2328 7.30573 15.2686 7.21094C15.3044 7.11615 15.3208 7.01518 15.3168 6.91398V5.43788H17.2193V6.91398C17.2193 7.11237 17.2984 7.30264 17.4393 7.44292C17.5801 7.5832 17.7711 7.66201 17.9703 7.66201H19.4823V9.57696Z" fill="#2D373D"/>
</svg>
