<svg width="64" height="65" viewBox="0 0 64 65" fill="none" xmlns="http://www.w3.org/2000/svg">
<path d="M58.2 26.2611C56.4 19.2611 52.2 13.4611 46.2 9.66113C41.8 7.06113 37 5.66113 32 5.66113C17.2 5.66113 5.2 17.6611 5.2 32.2611C5.2 37.0611 6.4 41.6611 8.8 45.6611L5.2 56.6611C5 57.2611 5.2 58.0611 5.8 58.6611C6.2 59.0611 6.6 59.2611 7.2 59.2611C7.4 59.2611 7.8 59.2611 8 59.2611L18.8 55.6611C24.8 59.0611 31.6 60.0611 38.2 58.4611C45.2 56.6611 51 52.4611 54.8 46.4611C58.6 40.4611 59.8 33.2611 58.2 26.2611ZM51.4 44.2611C48.2 49.4611 43.2 53.0611 37.2 54.4611C31.2 55.8611 25.2 54.8611 20 51.8611C19.8 51.6611 19.4 51.4611 19 51.4611C18.8 51.4611 18.4 51.4611 18.2 51.4611L10.2 54.0611L12.8 45.8611C13 45.2611 13 44.6611 12.6 44.2611C10.4 40.6611 9.2 36.4611 9.2 32.2611C9.2 19.8611 19.4 9.66113 32 9.66113C36.2 9.66113 40.4 10.8611 44 13.0611C49.2 16.2611 52.8 21.0611 54.2 27.0611C55.6 33.0611 54.6 39.0611 51.4 44.2611Z" fill="#2D373D"/>
</svg>
