<svg width="64" height="65" viewBox="0 0 64 65" fill="none" xmlns="http://www.w3.org/2000/svg">
<path fill-rule="evenodd" clip-rule="evenodd" d="M12.9435 12.9442C12.435 12.9442 12.0228 13.3564 12.0228 13.8649V51.9789C12.0228 52.4873 12.435 52.8995 12.9435 52.8995H51.0575C51.5659 52.8995 51.9781 52.4873 51.9781 51.9789V13.8649C51.9781 13.3564 51.5659 12.9442 51.0575 12.9442H12.9435ZM8.00049 13.8649C8.00049 11.1349 10.2136 8.92188 12.9435 8.92188H51.0575C53.7874 8.92188 56.0005 11.1349 56.0005 13.8649V51.9789C56.0005 54.7088 53.7874 56.9219 51.0575 56.9219H12.9435C10.2136 56.9219 8.00049 54.7088 8.00049 51.9789V13.8649Z" fill="#2D373D"/>
<path fill-rule="evenodd" clip-rule="evenodd" d="M27.6027 24.6716C27.0943 24.6716 26.6821 25.0838 26.6821 25.5923V40.2515C26.6821 40.76 27.0943 41.1722 27.6027 41.1722H36.3983C36.9067 41.1722 37.3189 40.76 37.3189 40.2515V25.5923C37.3189 25.0838 36.9067 24.6716 36.3983 24.6716H27.6027ZM22.6597 25.5923C22.6597 22.8623 24.8728 20.6493 27.6027 20.6493H36.3983C39.1282 20.6493 41.3413 22.8623 41.3413 25.5923V40.2515C41.3413 42.9815 39.1282 45.1945 36.3983 45.1945H27.6027C24.8728 45.1945 22.6597 42.9815 22.6597 40.2515V25.5923Z" fill="#2D373D"/>
<path fill-rule="evenodd" clip-rule="evenodd" d="M28.523 28.5242C28.523 27.4134 29.4235 26.513 30.5342 26.513H33.4643C34.575 26.513 35.4754 27.4134 35.4754 28.5242C35.4754 29.6349 34.575 30.5353 33.4643 30.5353H30.5342C29.4235 30.5353 28.523 29.6349 28.523 28.5242Z" fill="#2D373D"/>
</svg>
