<svg width="16" height="17" viewBox="0 0 16 17" fill="none" xmlns="http://www.w3.org/2000/svg">
<path fill-rule="evenodd" clip-rule="evenodd" d="M4.70001 2.46094C4.37291 2.46094 4.0592 2.59088 3.82791 2.82217C3.59661 3.05347 3.46667 3.36717 3.46667 3.69427V5.5276C3.46667 5.80375 3.69053 6.0276 3.96667 6.0276C4.19664 6.0276 4.39034 5.87236 4.4487 5.66095H13V9.19427C13 9.47041 13.2239 9.69427 13.5 9.69427C13.7761 9.69427 14 9.47041 14 9.19427V3.69427C14 3.36717 13.8701 3.05347 13.6388 2.82217C13.4075 2.59088 13.0938 2.46094 12.7667 2.46094H4.70001ZM13 4.66095V3.69427C13 3.63239 12.9754 3.57304 12.9317 3.52928C12.8879 3.48552 12.8286 3.46094 12.7667 3.46094H4.70001C4.63812 3.46094 4.57877 3.48552 4.53502 3.52928C4.49126 3.57304 4.46667 3.63239 4.46667 3.69427V4.66095H13Z" fill="#2D373D"/>
<path d="M3.46667 11.3943C3.46667 11.1181 3.69053 10.8943 3.96667 10.8943H5.06667C5.34282 10.8943 5.56667 11.1181 5.56667 11.3943C5.56667 11.6704 5.34282 11.8943 5.06667 11.8943H3.96667C3.69053 11.8943 3.46667 11.6704 3.46667 11.3943Z" fill="#2D373D"/>
<path fill-rule="evenodd" clip-rule="evenodd" d="M8.60575 10.2254C8.32194 10.1367 8.01743 10.1396 7.73536 10.2336C7.45328 10.3277 7.20794 10.5081 7.03408 10.7493C6.86023 10.9905 6.76668 11.2803 6.76668 11.5776C6.76668 11.8749 6.86023 12.1647 7.03408 12.406C7.20794 12.6472 7.45328 12.8276 7.73536 12.9216C8.01743 13.0156 8.32194 13.0185 8.60575 12.9298C8.71529 12.8956 8.81961 12.8484 8.91668 12.7897C9.01374 12.8484 9.11806 12.8956 9.22761 12.9298C9.51142 13.0185 9.81592 13.0156 10.098 12.9216C10.3801 12.8276 10.6254 12.6472 10.7993 12.406C10.9731 12.1647 11.0667 11.8749 11.0667 11.5776C11.0667 11.2803 10.9731 10.9905 10.7993 10.7493C10.6254 10.5081 10.3801 10.3277 10.098 10.2336C9.81592 10.1396 9.51142 10.1367 9.22761 10.2254C9.11806 10.2596 9.01374 10.3068 8.91668 10.3655C8.81961 10.3068 8.71529 10.2596 8.60575 10.2254ZM8.05158 11.1823C8.13455 11.1547 8.22411 11.1538 8.30758 11.1799C8.39105 11.206 8.46421 11.2577 8.51668 11.3276C8.6111 11.4535 8.7593 11.5276 8.91668 11.5276C9.07406 11.5276 9.22225 11.4535 9.31668 11.3276C9.36915 11.2577 9.4423 11.206 9.52577 11.1799C9.60925 11.1538 9.69881 11.1547 9.78177 11.1823C9.86474 11.21 9.9369 11.263 9.98803 11.334C10.0392 11.4049 10.0667 11.4902 10.0667 11.5776C10.0667 11.6651 10.0392 11.7503 9.98803 11.8212C9.9369 11.8922 9.86474 11.9452 9.78177 11.9729C9.69881 12.0006 9.60925 12.0014 9.52577 11.9753C9.4423 11.9493 9.36915 11.8976 9.31668 11.8276C9.22225 11.7017 9.07406 11.6276 8.91668 11.6276C8.7593 11.6276 8.6111 11.7017 8.51668 11.8276C8.46421 11.8976 8.39105 11.9493 8.30758 11.9753C8.22411 12.0014 8.13455 12.0006 8.05158 11.9729C7.96862 11.9452 7.89646 11.8922 7.84533 11.8212C7.79419 11.7503 7.76668 11.6651 7.76668 11.5776C7.76668 11.4902 7.79419 11.4049 7.84533 11.334C7.89646 11.263 7.96862 11.21 8.05158 11.1823Z" fill="#2D373D"/>
<path fill-rule="evenodd" clip-rule="evenodd" d="M2 13.2276C2 13.9087 2.55218 14.4609 3.23333 14.4609H11.3C11.9812 14.4609 12.5333 13.9087 12.5333 13.2276V7.7276C12.5333 7.04644 11.9812 6.49426 11.3 6.49426H3.23333C2.55218 6.49426 2 7.04644 2 7.7276V13.2276ZM3.23333 7.49426C3.10447 7.49426 3 7.59873 3 7.7276V8.69427H11.5333V7.7276C11.5333 7.59873 11.4289 7.49426 11.3 7.49426H3.23333ZM11.5333 9.69427H3V13.2276C3 13.3565 3.10447 13.4609 3.23333 13.4609H11.3C11.4289 13.4609 11.5333 13.3565 11.5333 13.2276V9.69427Z" fill="#2D373D"/>
</svg>
