<svg width="24" height="25" viewBox="0 0 24 25" fill="none" xmlns="http://www.w3.org/2000/svg">
<path fill-rule="evenodd" clip-rule="evenodd" d="M12 2.71191C6.61522 2.71191 2.25 7.07714 2.25 12.4619C2.25 17.8467 6.61522 22.2119 12 22.2119C17.3848 22.2119 21.75 17.8467 21.75 12.4619C21.75 7.07714 17.3848 2.71191 12 2.71191ZM3.75 12.4619C3.75 7.90556 7.44365 4.21191 12 4.21191C14.0081 4.21191 15.8486 4.92935 17.2792 6.12187L5.65933 17.7403C4.46718 16.3098 3.75 14.4696 3.75 12.4619ZM6.71985 18.8012C8.15059 19.9942 9.99148 20.7119 12 20.7119C16.5563 20.7119 20.25 17.0183 20.25 12.4619C20.25 10.4537 19.5325 8.61315 18.3399 7.18251L6.71985 18.8012Z" fill="#2D373D"/>
</svg>
