<svg width="32" height="33" viewBox="0 0 32 33" fill="none" xmlns="http://www.w3.org/2000/svg">
<path d="M10.8656 13.261C10.3133 13.261 9.86557 13.7087 9.86557 14.261C9.86557 14.8133 10.3133 15.261 10.8656 15.261H21.1323C21.6846 15.261 22.1323 14.8133 22.1323 14.261C22.1323 13.7087 21.6846 13.261 21.1323 13.261H10.8656Z" fill="#2D373D"/>
<path d="M9.86557 18.661C9.86557 18.1087 10.3133 17.661 10.8656 17.661H21.1323C21.6846 17.661 22.1323 18.1087 22.1323 18.661C22.1323 19.2133 21.6846 19.661 21.1323 19.661H10.8656C10.3133 19.661 9.86557 19.2133 9.86557 18.661Z" fill="#2D373D"/>
<path d="M10.8656 22.061C10.3133 22.061 9.86557 22.5088 9.86557 23.061C9.86557 23.6133 10.3133 24.061 10.8656 24.061H15.9989C16.5512 24.061 16.9989 23.6133 16.9989 23.061C16.9989 22.5088 16.5512 22.061 15.9989 22.061H10.8656Z" fill="#2D373D"/>
<path fill-rule="evenodd" clip-rule="evenodd" d="M10.3989 5.46094C10.3989 4.90865 9.95118 4.46094 9.3989 4.46094C8.84661 4.46094 8.3989 4.90865 8.3989 5.46094V7.39429H6.46554C6.45351 7.39429 6.44149 7.3945 6.42947 7.39494C5.76236 7.41902 5.13201 7.70655 4.67651 8.19454C4.22521 8.67803 3.98204 9.31923 3.99887 9.97992V25.8754C3.98204 26.5361 4.22521 27.1773 4.67651 27.6608C5.13201 28.1488 5.76236 28.4363 6.42947 28.4604C6.44149 28.4608 6.45351 28.461 6.46554 28.461H25.5323C25.5443 28.461 25.5563 28.4608 25.5684 28.4604C26.2355 28.4363 26.8658 28.1488 27.3213 27.6608C27.7726 27.1773 28.0158 26.5361 27.999 25.8755V9.97988C28.0158 9.31921 27.7726 8.67802 27.3213 8.19454C26.8658 7.70655 26.2355 7.41902 25.5684 7.39494C25.5563 7.3945 25.5443 7.39429 25.5323 7.39429H23.5989V5.46094C23.5989 4.90865 23.1512 4.46094 22.5989 4.46094C22.0467 4.46094 21.5989 4.90865 21.5989 5.46094V7.39429H19.1989V5.46094C19.1989 4.90865 18.7512 4.46094 18.1989 4.46094C17.6467 4.46094 17.1989 4.90865 17.1989 5.46094V7.39429H14.7989V5.46094C14.7989 4.90865 14.3512 4.46094 13.7989 4.46094C13.2466 4.46094 12.7989 4.90865 12.7989 5.46094V7.39429H10.3989V5.46094ZM21.5989 9.86096V9.39429H19.1989V9.86096C19.1989 10.4132 18.7512 10.861 18.1989 10.861C17.6467 10.861 17.1989 10.4132 17.1989 9.86096V9.39429H14.7989V9.86096C14.7989 10.4132 14.3512 10.861 13.7989 10.861C13.2466 10.861 12.7989 10.4132 12.7989 9.86096V9.39429H10.3989V9.86096C10.3989 10.4132 9.95118 10.861 9.3989 10.861C8.84661 10.861 8.3989 10.4132 8.3989 9.86096V9.39429H6.48829C6.35508 9.4025 6.22986 9.46143 6.13856 9.55924C6.04423 9.6603 5.9938 9.79464 5.99833 9.93282C5.99869 9.94374 5.99887 9.95466 5.99887 9.96558V25.8897C5.99887 25.9007 5.99869 25.9116 5.99833 25.9225C5.9938 26.0607 6.04423 26.195 6.13856 26.2961C6.22986 26.3939 6.35508 26.4528 6.4883 26.461H25.5095C25.6427 26.4528 25.768 26.3939 25.8593 26.2961C25.9536 26.195 26.004 26.0607 25.9995 25.9225C25.9991 25.9116 25.999 25.9007 25.999 25.8897V9.96558C25.999 9.95466 25.9991 9.94374 25.9995 9.93282C26.004 9.79464 25.9536 9.6603 25.8593 9.55924C25.768 9.46143 25.6428 9.4025 25.5095 9.39429H23.5989V9.86096C23.5989 10.4132 23.1512 10.861 22.5989 10.861C22.0467 10.861 21.5989 10.4132 21.5989 9.86096Z" fill="#2D373D"/>
</svg>
