<svg width="32" height="33" viewBox="0 0 32 33" fill="none" xmlns="http://www.w3.org/2000/svg">
<path fill-rule="evenodd" clip-rule="evenodd" d="M29.3332 16.9212C29.3332 24.285 23.3636 30.2546 15.9998 30.2546C8.63604 30.2546 2.6665 24.285 2.6665 16.9212C2.6665 9.55743 8.63604 3.58789 15.9998 3.58789C23.3636 3.58789 29.3332 9.55743 29.3332 16.9212ZM23.2755 25.6112C21.3069 27.2611 18.7694 28.2546 15.9998 28.2546C13.2303 28.2546 10.6928 27.2611 8.72417 25.6112L11.0942 23.2411C12.4489 24.2942 14.1511 24.9212 15.9998 24.9212C17.8485 24.9212 19.5508 24.2942 20.9054 23.2411L23.2755 25.6112ZM9.68001 21.8269L7.30995 24.197C5.65996 22.2284 4.6665 19.6908 4.6665 16.9212C4.6665 14.1517 5.65993 11.6142 7.30989 9.64556L9.67995 12.0156C8.62691 13.3703 7.99984 15.0725 7.99984 16.9212C7.99984 18.77 8.62693 20.4722 9.68001 21.8269ZM24.6897 24.197C26.3397 22.2284 27.3332 19.6908 27.3332 16.9212C27.3332 14.1517 26.3397 11.6142 24.6898 9.64556L22.3197 12.0156C23.3728 13.3703 23.9998 15.0725 23.9998 16.9212C23.9998 18.77 23.3727 20.4722 22.3197 21.8269L24.6897 24.197ZM20.9055 10.6014C19.5508 9.54832 17.8486 8.92122 15.9998 8.92122C14.1511 8.92122 12.4488 9.54832 11.0942 10.6014L8.72409 8.23134C10.6927 6.58134 13.2303 5.58789 15.9998 5.58789C18.7694 5.58789 21.307 6.58135 23.2756 8.23134L20.9055 10.6014ZM21.9998 16.9212C21.9998 20.2349 19.3135 22.9212 15.9998 22.9212C12.6861 22.9212 9.99984 20.2349 9.99984 16.9212C9.99984 13.6075 12.6861 10.9212 15.9998 10.9212C19.3135 10.9212 21.9998 13.6075 21.9998 16.9212Z" fill="#2D373D"/>
</svg>
