<svg width="16" height="17" viewBox="0 0 16 17" fill="none" xmlns="http://www.w3.org/2000/svg">
<path d="M5.35556 3.25781C3.93336 3.25781 2.60168 3.98062 2.1335 4.33171C1.91258 4.49738 1.59918 4.4526 1.43351 4.23167C1.26784 4.01075 1.31262 3.69735 1.53355 3.53168C2.10894 3.10018 3.64706 2.25781 5.35556 2.25781C7.06406 2.25781 8.60218 3.10018 9.17757 3.53168C9.39849 3.69735 9.44328 4.01075 9.27761 4.23167C9.11193 4.4526 8.79854 4.49738 8.57761 4.33171C8.10944 3.98062 6.77776 3.25781 5.35556 3.25781Z" fill="#2D373D"/>
<path fill-rule="evenodd" clip-rule="evenodd" d="M10.6225 10.836C11.7947 10.836 12.745 9.88579 12.745 8.7136C12.745 7.5414 11.7947 6.59115 10.6225 6.59115C9.45033 6.59115 8.50008 7.5414 8.50008 8.7136C8.50008 9.88579 9.45033 10.836 10.6225 10.836ZM10.6225 9.83604C11.2424 9.83604 11.745 9.33351 11.745 8.7136C11.745 8.09368 11.2424 7.59115 10.6225 7.59115C10.0026 7.59115 9.50008 8.09368 9.50008 8.7136C9.50008 9.33351 10.0026 9.83604 10.6225 9.83604Z" fill="#2D373D"/>
<path fill-rule="evenodd" clip-rule="evenodd" d="M6.66406 12.2305C6.17564 12.2305 5.7797 12.6264 5.7797 13.1148C5.7797 13.6032 6.17564 13.9992 6.66406 13.9992C7.15247 13.9992 7.54841 13.6032 7.54841 13.1148C7.54841 12.6264 7.15247 12.2305 6.66406 12.2305ZM6.48719 13.1148C6.48719 13.0171 6.56637 12.938 6.66406 12.938C6.76174 12.938 6.84093 13.0171 6.84093 13.1148C6.84093 13.2125 6.76174 13.2917 6.66406 13.2917C6.56637 13.2917 6.48719 13.2125 6.48719 13.1148Z" fill="#2D373D"/>
<path fill-rule="evenodd" clip-rule="evenodd" d="M2.74644 11.6205C2.5503 11.1542 2.89271 10.6387 3.39858 10.6387H8.44704C8.73178 10.6387 8.98877 10.8094 9.09918 11.0718L10.5871 14.6093C10.7833 15.0756 10.4409 15.5911 9.93501 15.5911H4.88654C4.6018 15.5911 4.34481 15.4204 4.2344 15.1579L2.74644 11.6205ZM5.08084 14.5911L3.83896 11.6387H8.25274L9.49462 14.5911H5.08084Z" fill="#2D373D"/>
<path d="M10.3334 11.0911C10.0573 11.0911 9.83342 11.315 9.83342 11.5911C9.83342 11.8673 10.0573 12.0911 10.3334 12.0911C11.6166 12.0911 12.434 12.5462 12.9364 13.1206C13.3204 13.5596 13.5395 14.0905 13.6261 14.5938H11.6667C11.3906 14.5938 11.1667 14.8177 11.1667 15.0938C11.1667 15.37 11.3906 15.5938 11.6667 15.5938H14.1696C14.4458 15.5938 14.6696 15.37 14.6696 15.0938C14.6696 14.2555 14.3849 13.2577 13.6891 12.4622C12.9809 11.6527 11.8801 11.0911 10.3334 11.0911Z" fill="#2D373D"/>
<path d="M3.69885 6.15764C3.93512 5.98046 4.62907 5.60547 5.35556 5.60547C6.08205 5.60547 6.776 5.98046 7.01227 6.15764C7.23319 6.32332 7.54659 6.27853 7.71226 6.0576C7.87793 5.83668 7.83315 5.52328 7.61222 5.35761C7.26873 5.10002 6.36835 4.60547 5.35556 4.60547C4.34277 4.60547 3.44239 5.10002 3.09889 5.35761C2.87797 5.52328 2.83318 5.83668 2.99886 6.0576C3.16453 6.27853 3.47793 6.32332 3.69885 6.15764Z" fill="#2D373D"/>
</svg>
