<svg width="24" height="25" viewBox="0 0 24 25" fill="none" xmlns="http://www.w3.org/2000/svg">
<path fill-rule="evenodd" clip-rule="evenodd" d="M19.9995 2.46094C20.4137 2.46094 20.7495 2.79672 20.7495 3.21094V12.4609C20.7495 12.5088 20.745 12.5557 20.7364 12.6011C20.9831 12.6987 21.2142 12.8472 21.4137 13.0467C22.1948 13.8278 22.1948 15.0941 21.4137 15.8752C21.2178 16.0711 20.9912 16.2179 20.7495 16.3155V20.1109C20.7495 20.1109 20.7495 20.1109 19.9995 20.1109H20.7495L20.7495 20.1126L20.7495 20.1145L20.7495 20.1186L20.7493 20.1288L20.7486 20.1562C20.7478 20.1776 20.7464 20.2052 20.7438 20.2381C20.7387 20.3036 20.7289 20.3918 20.71 20.4954C20.6728 20.6994 20.5972 20.9812 20.4388 21.2708C20.2781 21.5646 20.0293 21.8711 19.6516 22.1014C19.2723 22.3325 18.8052 22.4609 18.2495 22.4609C17.6938 22.4609 17.2267 22.3325 16.8474 22.1014C16.4698 21.8711 16.2209 21.5646 16.0602 21.2708C15.9019 20.9812 15.8262 20.6994 15.789 20.4954C15.7701 20.3918 15.7603 20.3036 15.7552 20.2381C15.7526 20.2052 15.7512 20.1776 15.7504 20.1562L15.7497 20.1288L15.7495 20.1186L15.7495 20.1145L15.7495 20.1126C15.7495 20.1126 15.7495 20.1109 16.4995 20.1109L15.7495 20.1109V18.9609C15.7495 18.5467 16.0853 18.2109 16.4995 18.2109C16.9137 18.2109 17.2495 18.5467 17.2495 18.9609V20.1033C17.2495 20.1033 17.2497 20.1075 17.2499 20.1108C17.2501 20.1137 17.2503 20.1172 17.2507 20.1213C17.2524 20.1432 17.2562 20.18 17.2647 20.2264C17.2822 20.3224 17.3159 20.4407 17.3763 20.5511C17.4344 20.6573 17.5136 20.7507 17.6281 20.8205C17.741 20.8893 17.9302 20.9609 18.2495 20.9609C18.5688 20.9609 18.758 20.8893 18.8709 20.8205C18.9854 20.7507 19.0646 20.6573 19.1227 20.5511C19.1831 20.4407 19.2168 20.3224 19.2343 20.2264C19.2428 20.18 19.2467 20.1432 19.2484 20.1213L19.2489 20.1138L19.2495 20.1033V16.3155C19.0078 16.2179 18.7813 16.0711 18.5853 15.8752C17.8042 15.0941 17.8042 13.8278 18.5853 13.0467C18.7848 12.8472 19.0159 12.6987 19.2626 12.6011C19.254 12.5557 19.2495 12.5088 19.2495 12.4609V3.21094C19.2495 2.79672 19.5853 2.46094 19.9995 2.46094ZM20.3531 14.1074C20.5483 14.3026 20.5483 14.6192 20.3531 14.8145C20.1578 15.0098 19.8412 15.0098 19.646 14.8145C19.4507 14.6192 19.4507 14.3026 19.646 14.1074C19.8412 13.9121 20.1578 13.9121 20.3531 14.1074Z" fill="#2D373D"/>
<path d="M12.4662 13.1155C12.7942 13.4436 13.3261 13.4436 13.6541 13.1155C13.9822 12.7875 13.9822 12.2557 13.6541 11.9276C13.3261 11.5996 12.7942 11.5996 12.4662 11.9276C12.1382 12.2557 12.1382 12.7875 12.4662 13.1155Z" fill="#2D373D"/>
<path fill-rule="evenodd" clip-rule="evenodd" d="M3.12161 15.3621C3.74627 15.0052 4.46151 14.4843 5.1985 13.9333C5.35171 13.8188 5.50639 13.7026 5.66244 13.5853L5.91578 13.395C6.17036 13.5809 6.4288 13.7663 6.68904 13.9475C7.52789 14.5313 8.41284 15.0905 9.29493 15.5053C10.1713 15.9174 11.0945 16.2109 11.9995 16.2109C13.1772 16.2109 14.3325 15.7736 15.1995 15.1234C16.0476 14.4873 16.7495 13.5411 16.7495 12.4609C16.7495 11.3807 16.0476 10.4345 15.1995 9.79843C14.3326 9.14822 13.1772 8.71094 11.9995 8.71094C11.0945 8.71094 10.1713 9.00445 9.29493 9.41655C8.41284 9.83132 7.52788 10.3905 6.68904 10.9744C6.42879 11.1555 6.17035 11.3409 5.91578 11.5269L5.66379 11.3376C5.50728 11.22 5.35215 11.1034 5.19849 10.9885C4.4615 10.4376 3.74627 9.91669 3.12161 9.55975C2.88948 9.42711 2.6043 9.42806 2.37306 9.56226C2.14183 9.69645 1.99951 9.94359 1.99951 10.2109V14.7109C1.99951 14.9783 2.14183 15.2254 2.37306 15.3596C2.6043 15.4938 2.88948 15.4948 3.12161 15.3621ZM4.30036 12.7319C4.41863 12.6435 4.53918 12.553 4.66173 12.4609C4.53919 12.3688 4.41863 12.2783 4.30037 12.1899C4.01882 11.9794 3.75167 11.782 3.49951 11.6014V13.3205C3.75167 13.1399 4.01882 12.9424 4.30036 12.7319ZM7.54594 12.7163C7.42474 12.6319 7.30408 12.5467 7.184 12.4609C7.30408 12.3751 7.42475 12.2899 7.54595 12.2055C8.35528 11.6422 9.16133 11.1369 9.93321 10.774C10.7108 10.4083 11.4045 10.2109 11.9995 10.2109C12.8219 10.2109 13.6665 10.5237 14.2995 10.9984C14.9514 11.4873 15.2495 12.0411 15.2495 12.4609C15.2495 12.8807 14.9514 13.4345 14.2995 13.9234C13.6665 14.3982 12.8219 14.7109 11.9995 14.7109C11.4045 14.7109 10.7108 14.5135 9.9332 14.1478C9.16133 13.7849 8.35528 13.2796 7.54594 12.7163Z" fill="#2D373D"/>
</svg>
