<svg width="16" height="17" viewBox="0 0 16 17" fill="none" xmlns="http://www.w3.org/2000/svg">
<path d="M11.0698 4.39359C11.1398 4.42756 11.2169 4.44468 11.2948 4.44359C11.3879 4.44424 11.4795 4.41884 11.559 4.37025C11.6385 4.32166 11.7028 4.25181 11.7448 4.16859L12.1498 3.34859C12.2091 3.23051 12.2192 3.09375 12.178 2.9682C12.1368 2.84266 12.0475 2.73854 11.9298 2.67859C11.8695 2.64929 11.804 2.63238 11.7372 2.62888C11.6703 2.62537 11.6034 2.63534 11.5404 2.65819C11.4774 2.68104 11.4197 2.71631 11.3706 2.7619C11.3216 2.80749 11.2822 2.86248 11.2548 2.92359L10.8498 3.72359C10.7905 3.84168 10.7803 3.97844 10.8215 4.10398C10.8628 4.22953 10.952 4.33365 11.0698 4.39359Z" fill="#2D373D"/>
<path d="M9.24977 3.62859C9.38237 3.62859 9.50955 3.57592 9.60332 3.48215C9.69709 3.38838 9.74977 3.2612 9.74977 3.12859V2.30859C9.74977 2.17599 9.69709 2.04881 9.60332 1.95504C9.50955 1.86127 9.38237 1.80859 9.24977 1.80859C9.11716 1.80859 8.98998 1.86127 8.89621 1.95504C8.80244 2.04881 8.74977 2.17599 8.74977 2.30859V3.12859C8.74977 3.2612 8.80244 3.38838 8.89621 3.48215C8.98998 3.57592 9.11716 3.62859 9.24977 3.62859Z" fill="#2D373D"/>
<path d="M11.2948 9.17359H10.5698V8.42359C10.5698 8.29099 10.5171 8.16381 10.4233 8.07004C10.3296 7.97627 10.2024 7.92359 10.0698 7.92359C9.93716 7.92359 9.80998 7.97627 9.71621 8.07004C9.62244 8.16381 9.56977 8.29099 9.56977 8.42359V9.17359H8.83977C8.70716 9.17359 8.57998 9.22627 8.48621 9.32004C8.39244 9.41381 8.33977 9.54099 8.33977 9.67359C8.33977 9.8062 8.39244 9.93338 8.48621 10.0271C8.57998 10.1209 8.70716 10.1736 8.83977 10.1736H9.56977V10.9236C9.56977 11.0562 9.62244 11.1834 9.71621 11.2771C9.80998 11.3709 9.93716 11.4236 10.0698 11.4236C10.2024 11.4236 10.3296 11.3709 10.4233 11.2771C10.5171 11.1834 10.5698 11.0562 10.5698 10.9236V10.1736H11.2948C11.4274 10.1736 11.5546 10.1209 11.6483 10.0271C11.7421 9.93338 11.7948 9.8062 11.7948 9.67359C11.7948 9.54099 11.7421 9.41381 11.6483 9.32004C11.5546 9.22627 11.4274 9.17359 11.2948 9.17359Z" fill="#2D373D"/>
<path d="M6.75477 4.16859C6.7967 4.25181 6.86105 4.32166 6.94056 4.37025C7.02007 4.41884 7.11158 4.44424 7.20477 4.44359C7.28095 4.44391 7.3562 4.4268 7.42477 4.39359C7.5434 4.33454 7.63374 4.23079 7.67593 4.10516C7.71812 3.97953 7.70871 3.84229 7.64977 3.72359L7.23977 2.92359C7.21489 2.85832 7.17662 2.79899 7.12741 2.74941C7.0782 2.69984 7.01915 2.66112 6.95406 2.63576C6.88898 2.61041 6.8193 2.59897 6.74952 2.60218C6.67974 2.6054 6.61142 2.6232 6.54894 2.65444C6.48646 2.68568 6.43122 2.72966 6.38678 2.78355C6.34234 2.83744 6.30969 2.90005 6.29093 2.96733C6.27216 3.03462 6.2677 3.10508 6.27784 3.1742C6.28797 3.24331 6.31247 3.30953 6.34977 3.36859L6.75477 4.16859Z" fill="#2D373D"/>
<path d="M14.2748 6.28859C14.0236 6.04809 13.6874 5.91685 13.3398 5.92359H10.9748C10.9505 5.48229 10.7583 5.06702 10.4375 4.76298C10.1167 4.45894 9.69173 4.2892 9.24977 4.28859C8.79325 4.28877 8.3551 4.46834 8.02977 4.78859C7.72142 5.08866 7.53753 5.49394 7.51477 5.92359H6.79477C6.62167 5.92393 6.45036 5.95858 6.29073 6.02552C6.13111 6.09246 5.98633 6.19037 5.86477 6.31359C5.73875 6.43478 5.63991 6.58135 5.57477 6.74359H4.15977C3.85986 6.74447 3.56919 6.84745 3.33563 7.03558C3.10206 7.2237 2.93952 7.48576 2.87477 7.77859L2.65977 8.98859L1.97477 9.42359C1.79362 9.54436 1.64502 9.70791 1.54212 9.89977C1.43921 10.0916 1.38517 10.3059 1.38477 10.5236V12.9536C1.38577 13.3022 1.5241 13.6363 1.76977 13.8836C1.89233 14.0065 2.03811 14.1039 2.19862 14.1699C2.35913 14.236 2.53118 14.2696 2.70477 14.2686H4.09977C4.25434 14.5188 4.4703 14.7253 4.72715 14.8685C4.98399 15.0117 5.27319 15.0869 5.56727 15.0869C5.86134 15.0869 6.15054 15.0117 6.40739 14.8685C6.66423 14.7253 6.88019 14.5188 7.03477 14.2686H10.2348C10.39 14.5187 10.6064 14.7251 10.8637 14.8682C11.1209 15.0113 11.4104 15.0865 11.7048 15.0865C11.9991 15.0865 12.2886 15.0113 12.5459 14.8682C12.8031 14.7251 13.0196 14.5187 13.1748 14.2686H13.3398C13.5129 14.2693 13.6844 14.2357 13.8445 14.1699C14.0047 14.1041 14.1502 14.0074 14.2728 13.8852C14.3955 13.763 14.4928 13.6179 14.5592 13.458C14.6256 13.2981 14.6598 13.1267 14.6598 12.9536V7.21859C14.6609 7.04573 14.6274 6.87438 14.5613 6.71466C14.4952 6.55493 14.3978 6.41007 14.2748 6.28859ZM8.73477 5.47859C8.87341 5.34595 9.05789 5.27192 9.24977 5.27192C9.44164 5.27192 9.62612 5.34595 9.76477 5.47859C9.87854 5.59145 9.95079 5.73947 9.96977 5.89859H8.51477C8.53781 5.73752 8.61547 5.58925 8.73477 5.47859ZM3.83977 13.2636H2.70477C2.66318 13.2642 2.62188 13.2565 2.58326 13.2411C2.54465 13.2256 2.50947 13.2027 2.47977 13.1736C2.42005 13.1138 2.38598 13.0331 2.38477 12.9486V10.5186C2.38558 10.4661 2.39932 10.4146 2.42477 10.3686C2.44976 10.3237 2.48381 10.2846 2.52477 10.2536L3.38977 9.67859C3.44553 9.64157 3.4933 9.59373 3.53023 9.5379C3.56716 9.48207 3.59251 9.4194 3.60477 9.35359L3.85477 7.95859C3.87033 7.88939 3.90916 7.82763 3.96477 7.78359C4.0215 7.74233 4.08962 7.71962 4.15977 7.71859H5.47477V11.6336C5.04936 11.6563 4.64729 11.8352 4.34559 12.136C4.0439 12.4367 3.86378 12.8383 3.83977 13.2636ZM6.25977 13.5736V13.6236C6.20549 13.7589 6.11195 13.8748 5.9912 13.9565C5.87046 14.0381 5.72803 14.0818 5.58227 14.0818C5.4365 14.0818 5.29407 14.0381 5.17333 13.9565C5.05258 13.8748 4.95904 13.7589 4.90477 13.6236V13.5736C4.88019 13.5046 4.86833 13.4318 4.86977 13.3586C4.86142 13.258 4.87403 13.1567 4.9068 13.0613C4.93957 12.9658 4.99179 12.8781 5.06016 12.8038C5.12853 12.7296 5.21156 12.6703 5.30401 12.6297C5.39646 12.5892 5.49631 12.5682 5.59727 12.5682C5.69822 12.5682 5.79807 12.5892 5.89052 12.6297C5.98297 12.6703 6.066 12.7296 6.13437 12.8038C6.20274 12.8781 6.25496 12.9658 6.28773 13.0613C6.3205 13.1567 6.33311 13.258 6.32477 13.3586C6.31671 13.4337 6.29466 13.5066 6.25977 13.5736ZM12.3998 13.5736C12.3977 13.5868 12.3977 13.6003 12.3998 13.6136C12.3463 13.7505 12.2528 13.868 12.1315 13.9509C12.0102 14.0337 11.8667 14.0781 11.7198 14.0781C11.5728 14.0781 11.4293 14.0337 11.308 13.9509C11.1867 13.868 11.0932 13.7505 11.0398 13.6136V13.5736C11.018 13.5022 11.0062 13.4282 11.0048 13.3536C10.9964 13.253 11.009 13.1517 11.0418 13.0563C11.0746 12.9608 11.1268 12.8731 11.1952 12.7988C11.2635 12.7246 11.3466 12.6653 11.439 12.6247C11.5315 12.5842 11.6313 12.5632 11.7323 12.5632C11.8332 12.5632 11.9331 12.5842 12.0255 12.6247C12.118 12.6653 12.201 12.7246 12.2694 12.7988C12.3377 12.8731 12.39 12.9608 12.4227 13.0563C12.4555 13.1517 12.4681 13.253 12.4598 13.3536C12.4508 13.4311 12.4306 13.5069 12.3998 13.5786V13.5736ZM13.6598 12.9436C13.6586 13.0281 13.6245 13.1088 13.5648 13.1686C13.5267 13.2056 13.4805 13.233 13.4298 13.2486C13.3966 12.8138 13.2005 12.4075 12.8807 12.1111C12.5608 11.8147 12.1408 11.65 11.7048 11.65C11.2687 11.65 10.8487 11.8147 10.5289 12.1111C10.209 12.4075 10.0129 12.8138 9.97977 13.2486H7.29477C7.27856 12.9704 7.19557 12.7002 7.05284 12.4609C6.91011 12.2215 6.71182 12.0201 6.47477 11.8736V7.21859C6.47606 7.13413 6.51018 7.05348 6.56992 6.99375C6.62965 6.93401 6.7103 6.89988 6.79477 6.89859H13.3398C13.3817 6.89837 13.4233 6.90667 13.462 6.923C13.5007 6.93933 13.5356 6.96335 13.5648 6.99359C13.6249 7.05308 13.6591 7.13398 13.6598 7.21859V12.9436Z" fill="#2D373D"/>
</svg>
