<svg width="24" height="25" viewBox="0 0 24 25" fill="none" xmlns="http://www.w3.org/2000/svg">
<path fill-rule="evenodd" clip-rule="evenodd" d="M4.48156 4.10652C4.77274 3.98591 5.08483 3.92383 5.4 3.92383C5.71517 3.92383 6.02726 3.98591 6.31844 4.10652C6.60962 4.22713 6.8742 4.40391 7.09706 4.62677C7.31992 4.84963 7.4967 5.11421 7.61731 5.40539C7.73792 5.69657 7.8 6.00866 7.8 6.32383C7.8 6.639 7.73792 6.95109 7.61731 7.24227C7.4967 7.53345 7.31992 7.79802 7.09706 8.02088C6.8742 8.24374 6.60962 8.42053 6.31844 8.54114C6.02726 8.66175 5.71517 8.72383 5.4 8.72383C5.08483 8.72383 4.77274 8.66175 4.48156 8.54114C4.19038 8.42053 3.9258 8.24374 3.70294 8.02088C3.48008 7.79802 3.3033 7.53345 3.18269 7.24227C3.06208 6.95109 3 6.639 3 6.32383C3 6.00866 3.06208 5.69657 3.18269 5.40539C3.3033 5.11421 3.48008 4.84963 3.70294 4.62677C3.9258 4.40391 4.19038 4.22713 4.48156 4.10652ZM5.4 5.42383C5.28181 5.42383 5.16478 5.44711 5.05558 5.49234C4.94639 5.53757 4.84718 5.60386 4.7636 5.68743C4.68003 5.771 4.61374 5.87022 4.56851 5.97941C4.52328 6.08861 4.5 6.20564 4.5 6.32383C4.5 6.44202 4.52328 6.55905 4.56851 6.66824C4.61374 6.77744 4.68003 6.87665 4.7636 6.96022C4.84718 7.0438 4.94639 7.11009 5.05558 7.15532C5.16478 7.20055 5.28181 7.22383 5.4 7.22383C5.51819 7.22383 5.63522 7.20055 5.74442 7.15532C5.85361 7.11009 5.95282 7.0438 6.0364 6.96022C6.11997 6.87665 6.18626 6.77744 6.23149 6.66824C6.27672 6.55905 6.3 6.44202 6.3 6.32383C6.3 6.20564 6.27672 6.08861 6.23149 5.97941C6.18626 5.87022 6.11997 5.77101 6.0364 5.68743C5.95282 5.60386 5.85361 5.53757 5.74442 5.49234C5.63522 5.44711 5.51819 5.42383 5.4 5.42383Z" fill="#2D373D"/>
<path fill-rule="evenodd" clip-rule="evenodd" d="M10.3029 4.62677C10.753 4.17668 11.3635 3.92383 12 3.92383C12.6365 3.92383 13.2469 4.17668 13.697 4.62677C14.1471 5.07686 14.4 5.68731 14.4 6.32383C14.4 6.96035 14.1471 7.5708 13.697 8.02088C13.2469 8.47097 12.6365 8.72383 12 8.72383C11.3635 8.72383 10.753 8.47097 10.3029 8.02088C9.85283 7.5708 9.59997 6.96035 9.59997 6.32383C9.59997 5.68731 9.85283 5.07686 10.3029 4.62677ZM12 5.42383C11.7613 5.42383 11.5324 5.51865 11.3636 5.68743C11.1948 5.85621 11.1 6.08513 11.1 6.32383C11.1 6.56252 11.1948 6.79144 11.3636 6.96022C11.5324 7.12901 11.7613 7.22383 12 7.22383C12.2387 7.22383 12.4676 7.12901 12.6364 6.96022C12.8052 6.79144 12.9 6.56252 12.9 6.32383C12.9 6.08513 12.8052 5.85621 12.6364 5.68743C12.4676 5.51865 12.2387 5.42383 12 5.42383Z" fill="#2D373D"/>
<path fill-rule="evenodd" clip-rule="evenodd" d="M16.9029 4.62677C17.353 4.17668 17.9635 3.92383 18.6 3.92383C19.2365 3.92383 19.847 4.17668 20.297 4.62677C20.7471 5.07686 21 5.68731 21 6.32383C21 6.96035 20.7471 7.5708 20.297 8.02088C19.847 8.47097 19.2365 8.72383 18.6 8.72383C17.9635 8.72383 17.353 8.47097 16.9029 8.02088C16.4528 7.5708 16.2 6.96035 16.2 6.32383C16.2 5.68731 16.4528 5.07686 16.9029 4.62677ZM18.6 5.42383C18.3613 5.42383 18.1324 5.51865 17.9636 5.68743C17.7948 5.85621 17.7 6.08513 17.7 6.32383C17.7 6.56252 17.7948 6.79144 17.9636 6.96022C18.1324 7.12901 18.3613 7.22383 18.6 7.22383C18.8387 7.22383 19.0676 7.12901 19.2364 6.96022C19.4052 6.79144 19.5 6.56252 19.5 6.32383C19.5 6.08513 19.4052 5.85621 19.2364 5.68743C19.0676 5.51865 18.8387 5.42383 18.6 5.42383Z" fill="#2D373D"/>
<path fill-rule="evenodd" clip-rule="evenodd" d="M4.48156 10.7065C4.77274 10.5859 5.08483 10.5238 5.4 10.5238C5.71517 10.5238 6.02726 10.5859 6.31844 10.7065C6.60962 10.8271 6.8742 11.0039 7.09706 11.2267C7.31992 11.4496 7.4967 11.7142 7.61731 12.0054C7.73792 12.2965 7.8 12.6086 7.8 12.9238C7.8 13.239 7.73792 13.5511 7.61731 13.8422C7.4967 14.1334 7.31992 14.398 7.09706 14.6209C6.8742 14.8437 6.60962 15.0205 6.31844 15.1411C6.02726 15.2617 5.71517 15.3238 5.4 15.3238C5.08483 15.3238 4.77274 15.2617 4.48156 15.1411C4.19038 15.0205 3.9258 14.8437 3.70294 14.6209C3.48008 14.398 3.3033 14.1334 3.18269 13.8422C3.06208 13.5511 3 13.239 3 12.9238C3 12.6086 3.06208 12.2965 3.18269 12.0054C3.3033 11.7142 3.48008 11.4496 3.70294 11.2267C3.9258 11.0039 4.19038 10.8271 4.48156 10.7065ZM5.4 12.0238C5.28181 12.0238 5.16478 12.0471 5.05558 12.0923C4.94639 12.1375 4.84718 12.2038 4.7636 12.2874C4.68003 12.371 4.61374 12.4702 4.56851 12.5794C4.52328 12.6886 4.5 12.8056 4.5 12.9238C4.5 13.042 4.52328 13.159 4.56851 13.2682C4.61374 13.3774 4.68003 13.4766 4.7636 13.5602C4.84718 13.6438 4.94639 13.7101 5.05558 13.7553C5.16478 13.8005 5.28181 13.8238 5.4 13.8238C5.51819 13.8238 5.63522 13.8005 5.74442 13.7553C5.85361 13.7101 5.95282 13.6438 6.0364 13.5602C6.11997 13.4766 6.18626 13.3774 6.23149 13.2682C6.27672 13.159 6.3 13.042 6.3 12.9238C6.3 12.8056 6.27672 12.6886 6.23149 12.5794C6.18626 12.4702 6.11997 12.371 6.0364 12.2874C5.95282 12.2038 5.85361 12.1375 5.74442 12.0923C5.63522 12.0471 5.51819 12.0238 5.4 12.0238Z" fill="#2D373D"/>
<path fill-rule="evenodd" clip-rule="evenodd" d="M10.3029 11.2267C10.753 10.7767 11.3635 10.5238 12 10.5238C12.6365 10.5238 13.2469 10.7767 13.697 11.2267C14.1471 11.6768 14.4 12.2873 14.4 12.9238C14.4 13.5603 14.1471 14.1708 13.697 14.6209C13.2469 15.0709 12.6365 15.3238 12 15.3238C11.3635 15.3238 10.753 15.0709 10.3029 14.6209C9.85283 14.1708 9.59997 13.5603 9.59997 12.9238C9.59997 12.2873 9.85283 11.6768 10.3029 11.2267ZM12 12.0238C11.7613 12.0238 11.5324 12.1186 11.3636 12.2874C11.1948 12.4562 11.1 12.6851 11.1 12.9238C11.1 13.1625 11.1948 13.3914 11.3636 13.5602C11.5324 13.729 11.7613 13.8238 12 13.8238C12.2387 13.8238 12.4676 13.729 12.6364 13.5602C12.8052 13.3914 12.9 13.1625 12.9 12.9238C12.9 12.6851 12.8052 12.4562 12.6364 12.2874C12.4676 12.1186 12.2387 12.0238 12 12.0238Z" fill="#2D373D"/>
<path fill-rule="evenodd" clip-rule="evenodd" d="M16.9029 11.2267C17.353 10.7767 17.9635 10.5238 18.6 10.5238C19.2365 10.5238 19.847 10.7767 20.297 11.2267C20.7471 11.6768 21 12.2873 21 12.9238C21 13.5603 20.7471 14.1708 20.297 14.6209C19.847 15.0709 19.2365 15.3238 18.6 15.3238C17.9635 15.3238 17.353 15.0709 16.9029 14.6209C16.4528 14.1708 16.2 13.5603 16.2 12.9238C16.2 12.2873 16.4528 11.6768 16.9029 11.2267ZM18.6 12.0238C18.3613 12.0238 18.1324 12.1186 17.9636 12.2874C17.7948 12.4562 17.7 12.6851 17.7 12.9238C17.7 13.1625 17.7948 13.3914 17.9636 13.5602C18.1324 13.729 18.3613 13.8238 18.6 13.8238C18.8387 13.8238 19.0676 13.729 19.2364 13.5602C19.4052 13.3914 19.5 13.1625 19.5 12.9238C19.5 12.6851 19.4052 12.4562 19.2364 12.2874C19.0676 12.1186 18.8387 12.0238 18.6 12.0238Z" fill="#2D373D"/>
<path fill-rule="evenodd" clip-rule="evenodd" d="M10.3029 17.8268C10.753 17.3767 11.3635 17.1238 12 17.1238C12.6365 17.1238 13.2469 17.3767 13.697 17.8268C14.1471 18.2768 14.4 18.8873 14.4 19.5238C14.4 20.1603 14.1471 20.7708 13.697 21.2209C13.2469 21.671 12.6365 21.9238 12 21.9238C11.3635 21.9238 10.753 21.671 10.3029 21.2209C9.85283 20.7708 9.59997 20.1603 9.59997 19.5238C9.59997 18.8873 9.85283 18.2768 10.3029 17.8268ZM12 18.6238C11.7613 18.6238 11.5324 18.7186 11.3636 18.8874C11.1948 19.0562 11.1 19.2851 11.1 19.5238C11.1 19.7625 11.1948 19.9914 11.3636 20.1602C11.5324 20.329 11.7613 20.4238 12 20.4238C12.2387 20.4238 12.4676 20.329 12.6364 20.1602C12.8052 19.9914 12.9 19.7625 12.9 19.5238C12.9 19.2851 12.8052 19.0562 12.6364 18.8874C12.4676 18.7186 12.2387 18.6238 12 18.6238Z" fill="#2D373D"/>
</svg>
