<svg width="16" height="17" viewBox="0 0 16 17" fill="none" xmlns="http://www.w3.org/2000/svg">
<path fill-rule="evenodd" clip-rule="evenodd" d="M10.463 8.41932C9.73211 8.41932 9.13965 9.01179 9.13965 9.74263C9.13965 10.4735 9.73211 11.0659 10.463 11.0659C11.1938 11.0659 11.7863 10.4735 11.7863 9.74263C11.7863 9.01179 11.1938 8.41932 10.463 8.41932ZM10.1422 9.74263C10.1422 9.56546 10.2858 9.42183 10.463 9.42183C10.6401 9.42183 10.7838 9.56546 10.7838 9.74263C10.7838 9.9198 10.6401 10.0634 10.463 10.0634C10.2858 10.0634 10.1422 9.9198 10.1422 9.74263Z" fill="#2D373D"/>
<path fill-rule="evenodd" clip-rule="evenodd" d="M7.58576 10.0634C6.85492 10.0634 6.26246 10.6559 6.26246 11.3867C6.26246 12.1176 6.85492 12.71 7.58576 12.71C8.31661 12.71 8.90907 12.1176 8.90907 11.3867C8.90907 10.6559 8.31661 10.0634 7.58576 10.0634ZM7.26496 11.3867C7.26496 11.2096 7.40859 11.0659 7.58576 11.0659C7.76294 11.0659 7.90657 11.2096 7.90657 11.3867C7.90657 11.5639 7.76294 11.7075 7.58576 11.7075C7.40859 11.7075 7.26496 11.5639 7.26496 11.3867Z" fill="#2D373D"/>
<path fill-rule="evenodd" clip-rule="evenodd" d="M12.0168 11.3867C12.0168 10.6559 12.6093 10.0634 13.3401 10.0634C14.0709 10.0634 14.6634 10.6559 14.6634 11.3867C14.6634 12.1176 14.0709 12.71 13.3401 12.71C12.6093 12.71 12.0168 12.1176 12.0168 11.3867ZM13.3401 11.0659C13.1629 11.0659 13.0193 11.2096 13.0193 11.3867C13.0193 11.5639 13.1629 11.7075 13.3401 11.7075C13.5173 11.7075 13.6609 11.5639 13.6609 11.3867C13.6609 11.2096 13.5173 11.0659 13.3401 11.0659Z" fill="#2D373D"/>
<path fill-rule="evenodd" clip-rule="evenodd" d="M10.4629 11.5705C10.3213 11.5705 10.1816 11.6035 10.0549 11.6668C9.92828 11.7302 9.81809 11.8221 9.73311 11.9354L8.089 14.1276C7.98734 14.2631 7.92544 14.4243 7.91023 14.593C7.89501 14.7618 7.92709 14.9314 8.00285 15.0829C8.07862 15.2345 8.19509 15.3619 8.33921 15.451C8.48333 15.5401 8.6494 15.5872 8.81882 15.5872H12.107C12.2765 15.5872 12.4425 15.5401 12.5867 15.451C12.7308 15.3619 12.8472 15.2345 12.923 15.0829C12.9988 14.9314 13.0309 14.7618 13.0156 14.593C13.0004 14.4243 12.9385 14.2631 12.8369 14.1276L11.1928 11.9354C11.1078 11.8221 10.9976 11.7302 10.8709 11.6668C10.7442 11.6035 10.6046 11.5705 10.4629 11.5705ZM8.99927 14.5847L10.4629 12.6332L11.9266 14.5847H8.99927Z" fill="#2D373D"/>
<path d="M6.99859 2.36375C7.18166 2.21729 7.44178 2.21729 7.62485 2.36375L11.5956 5.54032C11.5971 5.54154 11.5986 5.54277 11.6002 5.544L13.1052 6.74804C13.3214 6.92098 13.3564 7.23641 13.1835 7.45258C13.0106 7.66875 12.6951 7.7038 12.479 7.53087L11.7862 6.97669V7.41348C11.7862 7.69031 11.5618 7.91473 11.285 7.91473C11.0081 7.91473 10.7837 7.69031 10.7837 7.41348V6.17468L7.31172 3.39708L3.83969 6.1747V10.5647C3.83969 10.6498 3.87349 10.7314 3.93365 10.7915C3.99381 10.8517 4.07541 10.8855 4.16049 10.8855H5.11956C5.39639 10.8855 5.62081 11.1099 5.62081 11.3867C5.62081 11.6636 5.39639 11.888 5.11956 11.888H4.16049C3.80953 11.888 3.47294 11.7486 3.22477 11.5004C2.9766 11.2522 2.83718 10.9157 2.83718 10.5647V6.9767L2.14448 7.53087C1.92831 7.7038 1.61287 7.66875 1.43994 7.45258C1.267 7.23641 1.30205 6.92098 1.51822 6.74804L6.99859 2.36375Z" fill="#2D373D"/>
</svg>
