<svg width="32" height="33" viewBox="0 0 32 33" fill="none" xmlns="http://www.w3.org/2000/svg">
<path fill-rule="evenodd" clip-rule="evenodd" d="M15.1037 9.6353C15.3744 9.47032 15.6853 9.38305 16.0024 9.38305C16.3194 9.38305 16.6303 9.47032 16.9011 9.6353C17.1718 9.80027 17.3919 10.0366 17.5373 10.3184C17.5423 10.3282 17.5472 10.3381 17.552 10.3481L18.8115 13.0021H20.7712C21.1094 12.9983 21.4413 13.0948 21.7249 13.2795C22.0114 13.4661 22.2355 13.7344 22.3682 14.0496C22.5009 14.3648 22.5362 14.7125 22.4694 15.0479C22.4026 15.3834 22.2369 15.6911 21.9936 15.9315C21.9813 15.9437 21.9686 15.9556 21.9556 15.9672L20.1058 17.6131L21.1439 19.9983C21.2832 20.3307 21.3145 20.6986 21.2335 21.0498C21.1524 21.401 20.963 21.7179 20.6921 21.9556C20.4211 22.1934 20.0823 22.3399 19.7235 22.3746C19.3678 22.409 19.0103 22.3317 18.7006 22.1535L16.0002 20.6347L13.2998 22.1535C12.9901 22.3317 12.6326 22.409 12.2768 22.3746C11.918 22.3399 11.5792 22.1934 11.3083 21.9556C11.0373 21.7179 10.848 21.401 10.7669 21.0498C10.6859 20.6986 10.7172 20.3308 10.8566 19.9984L10.8618 19.9859L11.8948 17.6125L10.0485 15.9666C10.0357 15.9552 10.0233 15.9435 10.0111 15.9315C9.76781 15.6911 9.60209 15.3834 9.53533 15.0479C9.46856 14.7125 9.50381 14.3648 9.63651 14.0496C9.76921 13.7344 9.9933 13.4661 10.2799 13.2795C10.5634 13.0948 10.8953 12.9983 11.2336 13.0021H13.1932L14.4528 10.3481C14.4575 10.3381 14.4624 10.3282 14.4675 10.3184C14.6128 10.0366 14.8329 9.80028 15.1037 9.6353ZM16.0024 11.7476L17.2758 14.4309C17.4413 14.7798 17.793 15.0021 18.1792 15.0021H20.0315L18.235 16.6007C17.912 16.888 17.8103 17.3504 17.9828 17.7468L18.9672 20.0088L16.4904 18.6158C16.186 18.4446 15.8144 18.4446 15.51 18.6158L13.0331 20.0088L14.0176 17.7468C14.19 17.3507 14.0885 16.8887 13.7661 16.6013L11.9722 15.0021H13.8255C14.2117 15.0021 14.5634 14.7798 14.729 14.4309L16.0024 11.7476Z" fill="#2D373D"/>
<path fill-rule="evenodd" clip-rule="evenodd" d="M6.59568 7.05759C9.08991 4.56336 12.4728 3.16211 16.0002 3.16211C19.5276 3.16211 22.9105 4.56336 25.4047 7.05759C27.899 9.55182 29.3002 12.9347 29.3002 16.4621C29.3002 19.9895 27.899 23.3724 25.4047 25.8666C22.9105 28.3609 19.5276 29.7621 16.0002 29.7621C12.4728 29.7621 9.08991 28.3609 6.59568 25.8666C4.10144 23.3724 2.7002 19.9895 2.7002 16.4621C2.7002 12.9347 4.10144 9.55182 6.59568 7.05759ZM16.0002 5.16211C13.0032 5.16211 10.1291 6.35264 8.00989 8.4718C5.89073 10.591 4.7002 13.4652 4.7002 16.4621C4.7002 19.4591 5.89073 22.3333 8.00989 24.4524C10.129 26.5716 13.0032 27.7621 16.0002 27.7621C18.9971 27.7621 21.8713 26.5716 23.9905 24.4524C26.1097 22.3333 27.3002 19.4591 27.3002 16.4621C27.3002 13.4652 26.1097 10.591 23.9905 8.4718C21.8713 6.35264 18.9971 5.16211 16.0002 5.16211Z" fill="#2D373D"/>
</svg>
