<svg width="32" height="33" viewBox="0 0 32 33" fill="none" xmlns="http://www.w3.org/2000/svg">
<path fill-rule="evenodd" clip-rule="evenodd" d="M17.0003 4.12891C17.0003 3.57662 16.5526 3.12891 16.0003 3.12891C15.448 3.12891 15.0003 3.57662 15.0003 4.12891V4.83034C11.8493 5.0502 8.85402 6.31017 6.57956 8.53821C4.07687 10.9898 2.66699 14.3194 2.66699 17.7956C2.66699 18.1818 2.88939 18.5335 3.23831 18.699C3.58724 18.8646 4.00031 18.8144 4.29946 18.5702L5.18843 17.8443C5.61314 17.4976 6.10532 17.2365 6.63651 17.0773C7.16772 16.918 7.72648 16.8641 8.2798 16.9188C8.83311 16.9736 9.36893 17.1359 9.85583 17.3955C10.3427 17.6551 10.7704 18.0065 11.1146 18.428C11.2924 18.6457 11.5535 18.7786 11.8341 18.7941C12.1147 18.8095 12.3888 18.7063 12.5894 18.5095C13.0353 18.0722 13.5659 17.7242 14.1514 17.4864C14.4262 17.3748 14.7104 17.2886 15.0003 17.2285V27.1246C15.0003 27.8318 15.2813 28.5101 15.7814 29.0102C16.2815 29.5103 16.9597 29.7912 17.667 29.7912C18.3742 29.7912 19.0525 29.5103 19.5526 29.0102C20.0527 28.5101 20.3337 27.8318 20.3337 27.1246C20.3337 26.5723 19.8859 26.1246 19.3337 26.1246C18.7814 26.1246 18.3337 26.5723 18.3337 27.1246C18.3337 27.3014 18.2634 27.4709 18.1384 27.596C18.0134 27.721 17.8438 27.7912 17.667 27.7912C17.4902 27.7912 17.3206 27.721 17.1956 27.596C17.0706 27.4709 17.0003 27.3014 17.0003 27.1246V17.2285C17.2902 17.2886 17.5745 17.3748 17.8493 17.4864C18.4348 17.7242 18.9654 18.0722 19.4112 18.5095C19.6118 18.7063 19.886 18.8095 20.1666 18.7941C20.4472 18.7786 20.7083 18.6457 20.886 18.428C21.2303 18.0065 21.658 17.6551 22.1448 17.3955C22.6317 17.1359 23.1675 16.9736 23.7208 16.9188C24.2742 16.8641 24.8329 16.918 25.3641 17.0773C25.8953 17.2365 26.3875 17.4976 26.8122 17.8443L27.7012 18.5702C28.0003 18.8144 28.4134 18.8646 28.7623 18.699C29.1113 18.5335 29.3337 18.1818 29.3337 17.7956C29.3337 14.3194 27.9238 10.9898 25.4211 8.53821C23.1466 6.31017 20.1514 5.0502 17.0003 4.83034V4.12891ZM16.0003 6.79557C15.8313 6.79557 15.4248 6.95217 14.8628 7.70583C14.3396 8.40759 13.8364 9.42845 13.4341 10.6163C12.8244 12.4169 12.5074 14.4111 12.6032 16.0179C12.8592 15.8731 13.1249 15.7446 13.3988 15.6334C14.2241 15.2982 15.1081 15.126 16.0003 15.126C16.8926 15.126 17.7765 15.2982 18.6018 15.6334C18.8757 15.7446 19.1414 15.8731 19.3974 16.0179C19.4932 14.4111 19.1763 12.4169 18.5665 10.6163C18.1642 9.42845 17.6611 8.40759 17.1378 7.70583C16.5758 6.95217 16.1693 6.79557 16.0003 6.79557ZM12.7803 7.22752C10.9754 7.72658 9.32206 8.65139 7.97912 9.96693C6.38044 11.533 5.31145 13.5166 4.88084 15.6529C5.25544 15.4495 5.65129 15.2847 6.06217 15.1615C6.84358 14.9272 7.6644 14.8481 8.47683 14.9286C9.2109 15.0013 9.92557 15.2029 10.5868 15.5238C10.5733 13.6992 10.9579 11.6931 11.5398 9.9748C11.8772 8.97871 12.2966 8.03044 12.7803 7.22752ZM21.4138 15.5238C21.4273 13.6992 21.0427 11.6931 20.4608 9.9748C20.1235 8.97871 19.704 8.03044 19.2203 7.22751C21.0253 7.72658 22.6786 8.65139 24.0215 9.96693C25.6202 11.533 26.6892 13.5166 27.1198 15.6529C26.7452 15.4495 26.3494 15.2847 25.9385 15.1615C25.1571 14.9272 24.3363 14.8481 23.5238 14.9286C22.7897 15.0013 22.0751 15.2029 21.4138 15.5238Z" fill="#2D373D"/>
</svg>
