<svg width="32" height="33" viewBox="0 0 32 33" fill="none" xmlns="http://www.w3.org/2000/svg">
<path d="M10.5999 19.6238C8.7999 19.6238 7.3999 21.0238 7.3999 22.8238C7.3999 24.6238 8.7999 26.0238 10.5999 26.0238C12.2999 26.0238 13.7999 24.6238 13.7999 22.8238C13.7999 21.0238 12.3999 19.6238 10.5999 19.6238ZM10.5999 24.0238C9.8999 24.0238 9.3999 23.5238 9.3999 22.8238C9.3999 22.1238 9.8999 21.6238 10.5999 21.6238C11.1999 21.6238 11.7999 22.1238 11.7999 22.8238C11.7999 23.5238 11.2999 24.0238 10.5999 24.0238Z" fill="#2D373D"/>
<path d="M26.5999 21.5238V17.5238C26.5999 16.4238 25.7999 15.4238 24.7999 15.1238L21.7999 14.1238L20.0999 9.62383C20.2999 9.42383 20.3999 9.22383 20.4999 8.92383V6.92383C20.4999 5.82383 19.5999 4.92383 18.4999 4.92383H10.0999C8.9999 4.92383 8.0999 5.82383 8.0999 6.92383V8.92383C8.0999 9.22383 8.1999 9.52383 8.3999 9.72383L6.4999 14.7238C6.0999 14.9238 5.6999 15.1238 5.3999 15.3238C4.9999 15.6238 4.5999 16.0238 4.1999 16.3238C3.7999 16.7238 3.7999 17.3238 4.1999 17.7238C4.5999 18.1238 5.1999 18.1238 5.5999 17.7238C5.8999 17.5238 6.1999 17.2238 6.4999 17.0238C9.8999 14.8238 14.3999 15.7238 16.5999 19.0238L17.0999 19.7238C17.2999 19.9238 17.5999 20.1238 17.8999 20.1238H20.8999C21.1999 20.1238 21.3999 20.0238 21.5999 19.8238C21.7999 19.6238 21.8999 19.4238 21.8999 19.1238V16.1238L24.2999 16.9238C24.4999 17.0238 24.5999 17.2238 24.5999 17.4238V20.5238C24.2999 20.4238 23.9999 20.4238 23.6999 20.4238C21.4999 20.4238 19.6999 22.0238 19.4999 24.1238H16.6999C16.7999 23.7238 16.8999 23.2238 16.8999 22.8238C16.8999 19.4238 14.0999 16.6238 10.6999 16.6238C7.2999 16.6238 4.4999 19.4238 4.4999 22.8238C4.4999 26.2238 7.2999 29.0238 10.6999 29.0238C12.8999 29.0238 14.7999 27.9238 15.8999 26.1238H19.6999C20.2999 27.8238 21.7999 29.0238 23.7999 29.0238C26.1999 29.0238 28.0999 27.1238 28.0999 24.7238C27.9999 23.4238 27.4999 22.2238 26.5999 21.5238ZM10.0999 6.82383H18.3999V7.82383H10.0999V6.82383ZM19.8999 18.1238H18.4999L18.2999 17.8238C16.1999 14.6238 12.4999 13.2238 8.9999 13.8238L10.4999 9.82383H17.9999L19.7999 14.7238V18.1238H19.8999ZM14.5999 24.3238C14.3999 24.5238 14.2999 24.7238 14.2999 24.9238C13.5999 26.2238 12.1999 27.0238 10.6999 27.0238C8.3999 27.0238 6.4999 25.1238 6.4999 22.8238C6.4999 20.5238 8.3999 18.6238 10.6999 18.6238C11.7999 18.6238 12.7999 19.0238 13.6999 19.9238C14.4999 20.6238 14.8999 21.7238 14.8999 22.8238C14.7999 23.3238 14.6999 23.8238 14.5999 24.3238ZM23.6999 26.9238C22.3999 26.9238 21.3999 25.9238 21.3999 24.6238C21.3999 23.3238 22.3999 22.3238 23.6999 22.3238C24.0999 22.3238 24.4999 22.4238 24.8999 22.6238C24.9999 22.7238 25.0999 22.7238 25.0999 22.8238C25.5999 23.2238 25.9999 23.9238 25.9999 24.6238C25.9999 25.9238 24.9999 26.9238 23.6999 26.9238Z" fill="#2D373D"/>
<path d="M24.1999 23.3239C24.0999 23.2239 23.8999 23.2239 23.7999 23.2239C23.6999 23.2239 23.4999 23.2239 23.3999 23.3239C22.9999 23.4239 22.5999 23.8239 22.4999 24.2239C22.3999 24.3239 22.3999 24.5239 22.3999 24.6239C22.3999 24.7239 22.3999 24.9239 22.4999 25.0239C22.5999 25.4239 22.9999 25.8239 23.3999 25.9239C23.4999 26.0239 23.6999 26.0239 23.7999 26.0239C24.5999 26.0239 25.1999 25.4239 25.1999 24.6239C25.1999 24.4239 25.1999 24.3239 25.0999 24.2239C24.8999 23.8239 24.5999 23.4239 24.1999 23.3239Z" fill="#2D373D"/>
</svg>
