<svg width="16" height="17" viewBox="0 0 16 17" fill="none" xmlns="http://www.w3.org/2000/svg">
<path fill-rule="evenodd" clip-rule="evenodd" d="M8 2.25586C10.7115 2.256 14 2.92253 14 4.2558V8.92245C14 12.5892 10.6667 15.5893 8 15.5892C5.33333 15.5891 2 12.5891 2 8.92245V4.25572C2 2.92239 5.28853 2.25572 8 2.25586ZM7.99992 8.48284C7.98651 8.48284 7.73183 7.983 7.43248 7.37158L6.88738 6.25586H5.18506V10.808H6.88291L6.89184 9.70567L6.90525 8.59888L7.45482 9.71014L7.99992 10.8214L8.54948 9.71014L9.09458 8.59888L9.10799 9.70121L9.11692 10.808H10.8148V6.25586H9.95691L9.09458 6.26032L8.55842 7.37158C8.26353 7.983 8.01332 8.48284 7.99992 8.48284Z" fill="#2D373D"/>
</svg>
