<svg width="16" height="16" viewBox="0 0 16 16" fill="none" xmlns="http://www.w3.org/2000/svg">
<path d="M13.55 2.4499C12.9 1.7999 11.8 1.7999 11.15 2.4499L6.04998 7.5999C5.94998 7.6999 5.89998 7.7999 5.89998 7.8999L5.59998 9.8999C5.59998 10.0499 5.64998 10.1999 5.74998 10.2999C5.84998 10.3999 5.94998 10.4499 6.09998 10.4499H6.14998L8.14998 10.1499C8.24998 10.1499 8.34998 10.0999 8.44998 9.9999L13.55 4.8499C13.85 4.5499 14.05 4.0999 14.05 3.6499C14.05 3.1999 13.85 2.7499 13.55 2.4499ZM12.85 4.1499L7.84998 9.1499L6.69998 9.2999L6.84998 8.1499L11.85 3.1499C12.1 2.8499 12.55 2.8499 12.85 3.1499C13.15 3.3999 13.15 3.8499 12.85 4.1499Z" fill="#2D373D"/>
<path d="M12.15 8.14998C11.85 8.14998 11.65 8.34998 11.65 8.64998V12.7C11.65 12.75 11.6 12.85 11.55 12.9C11.5 12.95 11.45 13 11.35 13H3.3C3.15 13 3 12.85 3 12.7V4.64998C3 4.44998 3.15 4.29998 3.3 4.34998H7.35C7.65 4.34998 7.85 4.14998 7.85 3.84998C7.85 3.54998 7.65 3.34998 7.35 3.34998H3.3C2.6 3.34998 2 3.94998 2 4.64998V12.7C2 13.4 2.6 14 3.3 14H11.35C11.7 14 12.05 13.85 12.25 13.6C12.5 13.4 12.65 13.05 12.65 12.7V8.64998C12.65 8.34998 12.45 8.14998 12.15 8.14998Z" fill="#2D373D"/>
</svg>
