<svg width="32" height="33" viewBox="0 0 32 33" fill="none" xmlns="http://www.w3.org/2000/svg">
<path d="M12.1998 22.2614H9.29984C8.99984 22.2614 8.79984 22.0614 8.79984 21.7614V14.4614C8.79984 13.8614 8.39984 13.4614 7.79984 13.4614C7.19984 13.4614 6.79984 13.8614 6.79984 14.4614V21.6614C6.79984 23.0614 7.89984 24.1614 9.29984 24.1614H12.1998C12.7998 24.1614 13.1998 23.8614 13.1998 23.2614C13.1998 22.6614 12.7998 22.2614 12.1998 22.2614Z" fill="#2D373D"/>
<path d="M21.7999 12.4613C22.1999 12.8613 22.7999 12.7613 23.1999 12.3613C23.5999 11.9613 23.4999 11.3613 23.0999 10.9613L15.9999 4.96133C15.0999 4.16133 13.6999 4.16133 12.7999 4.96133L4.19985 12.1613C3.79985 12.4613 3.69985 13.1613 4.09985 13.5613C4.29985 13.8613 4.59985 13.9613 4.89985 13.9613C5.09985 13.9613 5.39985 13.8613 5.49985 13.7613L14.0999 6.46133C14.2999 6.36133 14.4999 6.36133 14.6999 6.46133L21.7999 12.4613Z" fill="#2D373D"/>
<path d="M19.7998 6.36133H21.6998V8.26133C21.6998 8.86133 22.0998 9.26133 22.6998 9.26133C23.2998 9.26133 23.6998 8.86133 23.6998 8.26133V5.36133C23.6998 4.76133 23.2998 4.36133 22.6998 4.36133H19.7998C19.1998 4.36133 18.7998 4.76133 18.7998 5.36133C18.7998 5.96133 19.1998 6.36133 19.7998 6.36133Z" fill="#2D373D"/>
<path d="M22.5999 19.7614L20.5999 18.9614C20.4999 18.8614 20.3999 18.7614 20.3999 18.6614C20.3999 18.5614 20.4999 18.4614 20.4999 18.4614C20.4999 18.4614 20.5999 18.3614 20.6999 18.3614H22.6999C23.2999 18.3614 23.6999 17.9614 23.6999 17.3614C23.6999 16.7614 23.2999 16.3614 22.6999 16.3614H22.1999C22.0999 15.9614 21.6999 15.6614 21.2999 15.6614C20.7999 15.6614 20.3999 15.9614 20.2999 16.3614C19.7999 16.4614 19.3999 16.6614 19.0999 17.0614C18.5999 17.4614 18.3999 18.0614 18.3999 18.6614C18.3999 19.5614 18.9999 20.3614 19.8999 20.7614L21.8999 21.5614C22.0999 21.6614 22.1999 21.7614 22.0999 21.9614C21.9999 22.0614 21.8999 22.1614 21.7999 22.1614H19.7999C19.1999 22.1614 18.7999 22.5614 18.7999 23.1614C18.7999 23.7614 19.1999 24.1614 19.7999 24.1614H20.2999C20.3999 24.6614 20.6999 24.9614 21.2999 24.9614C21.7999 24.9614 22.1999 24.5614 22.2999 24.0614C22.9999 23.9614 23.6999 23.4614 23.8999 22.7614C24.3999 21.5614 23.7999 20.2614 22.5999 19.7614Z" fill="#2D373D"/>
<path d="M21.3 13.5613C17.6 13.5613 14.5 16.5613 14.5 20.3613C14.5 22.1613 15.2 23.8613 16.5 25.1613C17.7 26.4613 19.5 27.1613 21.3 27.1613C25 27.1613 28.1 24.0613 28.2 20.4613C28.2 16.6613 25.1 13.5613 21.3 13.5613ZM21.2 25.0613C19.9 25.0613 18.7 24.5613 17.8 23.6613C16.9 22.7613 16.4 21.5613 16.4 20.2613C16.4 17.5613 18.6 15.4613 21.2 15.2613C23.9 15.2613 26.1 17.4613 26.1 20.1613C26.1 22.8613 23.9 25.0613 21.2 25.0613Z" fill="#2D373D"/>
</svg>
