<svg width="64" height="65" viewBox="0 0 64 65" fill="none" xmlns="http://www.w3.org/2000/svg">
<path d="M56.5999 25.4621H32.3999V19.0621C32.3999 11.6621 26.3999 5.66211 18.9999 5.66211H18.7999C11.1999 5.86211 5.3999 11.8621 5.3999 19.2621V27.4621C5.3999 28.6621 6.1999 29.4621 7.3999 29.4621C8.5999 29.4621 9.3999 28.6621 9.3999 27.4621V19.2621C9.3999 14.0621 13.5999 9.86211 18.7999 9.66211C23.9999 9.66211 28.3999 13.8621 28.3999 19.0621V25.4621H20.5999C19.3999 25.4621 18.5999 26.2621 18.5999 27.4621V57.0621C18.5999 58.2621 19.3999 59.0621 20.5999 59.0621H56.5999C57.7999 59.0621 58.5999 58.2621 58.5999 57.0621V27.4621C58.5999 26.2621 57.7999 25.4621 56.5999 25.4621ZM54.5999 55.0621H22.5999V29.4621H54.5999V55.0621Z" fill="#2D373D"/>
<path d="M38.6001 49.2622C42.4001 49.2622 45.6001 46.0622 45.6001 42.2622C45.6001 38.4622 42.4001 35.2622 38.6001 35.2622C34.8001 35.2622 31.6001 38.4622 31.6001 42.2622C31.6001 46.0622 34.8001 49.2622 38.6001 49.2622ZM38.6001 39.4622C40.2001 39.4622 41.6001 40.8622 41.6001 42.4622C41.6001 44.0622 40.2001 45.4622 38.6001 45.4622C37.0001 45.4622 35.6001 44.0622 35.6001 42.4622C35.6001 40.8622 37.0001 39.4622 38.6001 39.4622Z" fill="#2D373D"/>
</svg>
