<svg width="64" height="65" viewBox="0 0 64 65" fill="none" xmlns="http://www.w3.org/2000/svg">
<path fill-rule="evenodd" clip-rule="evenodd" d="M58.6663 32.9225C58.6663 47.6501 46.7273 59.5892 31.9997 59.5892C17.2721 59.5892 5.33301 47.6501 5.33301 32.9225C5.33301 18.1949 17.2721 6.25586 31.9997 6.25586C46.7273 6.25586 58.6663 18.1949 58.6663 32.9225ZM46.551 50.3024C42.6138 53.6023 37.5388 55.5892 31.9997 55.5892C26.4606 55.5892 21.3855 53.6023 17.4483 50.3024L22.1885 45.5623C24.8978 47.6684 28.3023 48.9225 31.9997 48.9225C35.6971 48.9225 39.1015 47.6684 41.8109 45.5623L46.551 50.3024ZM19.36 42.7339L14.6199 47.474C11.3199 43.5368 9.33301 38.4617 9.33301 32.9225C9.33301 27.3834 11.3199 22.3084 14.6198 18.3712L19.3599 23.1113C17.2538 25.8207 15.9997 29.2251 15.9997 32.9225C15.9997 36.62 17.2539 40.0245 19.36 42.7339ZM49.3794 47.474C52.6794 43.5368 54.6663 38.4617 54.6663 32.9225C54.6663 27.3834 52.6795 22.3084 49.3796 18.3712L44.6395 23.1113C46.7455 25.8207 47.9997 29.2251 47.9997 32.9225C47.9997 36.62 46.7455 40.0245 44.6393 42.7339L49.3794 47.474ZM41.8111 20.2829C39.1017 18.1767 35.6971 16.9225 31.9997 16.9225C28.3022 16.9225 24.8977 18.1767 22.1883 20.2829L17.4482 15.5428C21.3854 12.2428 26.4605 10.2559 31.9997 10.2559C37.5388 10.2559 42.614 12.2428 46.5512 15.5428L41.8111 20.2829ZM43.9997 32.9225C43.9997 39.5499 38.6271 44.9225 31.9997 44.9225C25.3723 44.9225 19.9997 39.5499 19.9997 32.9225C19.9997 26.2951 25.3723 20.9225 31.9997 20.9225C38.6271 20.9225 43.9997 26.2951 43.9997 32.9225Z" fill="#2D373D"/>
</svg>
