<svg width="64" height="65" viewBox="0 0 64 65" fill="none" xmlns="http://www.w3.org/2000/svg">
<path d="M54.0004 34.8618H48.8004V33.8618C48.8004 31.0618 46.6004 28.8618 43.8004 28.8618H40.8004C38.0004 28.8618 35.8004 31.0618 35.8004 33.8618V34.8618H30.4004C29.2004 34.8618 28.4004 35.6618 28.4004 36.8618V54.4618C28.4004 55.6618 29.2004 56.4618 30.4004 56.4618H54.0004C55.2004 56.4618 56.0004 55.6618 56.0004 54.4618V36.8618C56.0004 35.6618 55.2004 34.8618 54.0004 34.8618ZM39.6004 33.8618C39.6004 33.2618 40.0004 32.8618 40.6004 32.8618H43.6004C44.2004 32.8618 44.6004 33.2618 44.6004 33.8618V34.8618H39.6004V33.8618ZM52.0004 38.8618V40.6618H32.4004V38.8618H52.0004ZM32.4004 52.4618V44.6618H40.2004V45.6618C40.2004 46.8618 41.0004 47.6618 42.2004 47.6618C43.4004 47.6618 44.2004 46.8618 44.2004 45.6618V44.6618H52.0004V52.4618H32.4004Z" fill="#2D373D"/>
<path d="M28.1998 28.6617C26.7998 26.0617 24.5998 24.4617 21.7998 23.4617C24.5998 22.2617 26.5998 19.4617 26.5998 16.2617C26.5998 14.0617 25.7998 12.0617 24.1998 10.6617C22.5998 9.06172 20.7998 8.26172 18.5998 8.26172C14.1998 8.26172 10.7998 11.8617 10.7998 16.0617C10.7998 18.2617 11.5998 20.2617 12.9998 21.6617C13.7998 22.4617 14.5998 23.0617 15.3998 23.4617C14.7998 23.6617 13.9998 24.0617 13.3998 24.2617C9.9998 26.0617 7.7998 29.6617 7.7998 33.6617V39.6617C7.7998 40.8617 8.5998 41.6617 9.7998 41.6617H10.9998L12.1998 54.6617C12.3998 55.6617 13.1998 56.4617 14.1998 56.4617H22.9998C24.1998 56.4617 24.9998 55.6617 24.9998 54.6617L25.9998 44.6617C26.1998 43.4617 25.1998 42.6617 24.1998 42.4617C22.9998 42.4617 22.1998 43.2617 21.9998 44.2617L21.1998 52.6617H15.9998L14.7998 39.6617C14.5998 38.6617 13.7998 37.8617 12.7998 37.8617H11.7998V33.8617C11.7998 31.4617 13.1998 29.0617 15.3998 27.8617C15.7998 27.6617 16.1998 27.4617 16.5998 27.4617V33.8617C16.5998 35.0617 17.3998 35.8617 18.5998 35.8617C19.7998 35.8617 20.5998 35.0617 20.5998 33.8617V27.2617C22.3998 27.8617 23.7998 28.8617 24.5998 30.6617C25.1998 31.6617 26.3998 32.0617 27.3998 31.4617C28.3998 30.8617 28.7998 29.6617 28.1998 28.6617ZM14.5998 16.0617C14.7998 13.8617 16.3998 12.2617 18.5998 12.2617C19.5998 12.2617 20.5998 12.6617 21.5998 13.2617C22.3998 14.0617 22.7998 15.0617 22.7998 16.0617C22.7998 18.2617 20.9998 20.0617 18.7998 20.0617C17.7998 20.0617 16.7998 19.6617 15.9998 18.8617C15.1998 18.0617 14.7998 17.0617 14.5998 16.0617Z" fill="#2D373D"/>
</svg>
