<svg width="24" height="25" viewBox="0 0 24 25" fill="none" xmlns="http://www.w3.org/2000/svg">
<path d="M4.60251 5.06345C4.66815 4.99781 4.75717 4.96094 4.85 4.96094H12.55C12.6428 4.96094 12.7319 4.99781 12.7975 5.06345C12.8631 5.12909 12.9 5.21811 12.9 5.31094V7.51094C12.9 7.92515 13.2358 8.26094 13.65 8.26094C14.0642 8.26094 14.4 7.92515 14.4 7.51094V5.31094C14.4 4.82029 14.2051 4.34973 13.8581 4.00279C13.5112 3.65585 13.0407 3.46094 12.55 3.46094H4.85C4.35935 3.46094 3.88879 3.65585 3.54185 4.00279C3.19491 4.34973 3 4.82029 3 5.31094V10.8109C3 11.3016 3.19491 11.7721 3.54185 12.1191C3.8888 12.466 4.35935 12.6609 4.85 12.6609H5.2V15.2109C5.2 15.5143 5.38273 15.7878 5.66299 15.9038C5.94324 16.0199 6.26583 15.9558 6.48033 15.7413L8.68033 13.5413C8.97322 13.2484 8.97322 12.7735 8.68033 12.4806C8.38744 12.1877 7.91256 12.1877 7.61967 12.4806L6.7 13.4003V11.9109C6.7 11.4967 6.36421 11.1609 5.95 11.1609H4.85C4.75717 11.1609 4.66815 11.1241 4.60251 11.0584C4.53687 10.9928 4.5 10.9038 4.5 10.8109V5.31094C4.5 5.21811 4.53687 5.12909 4.60251 5.06345Z" fill="#2D373D"/>
<path fill-rule="evenodd" clip-rule="evenodd" d="M11.45 8.96097C10.9594 8.96097 10.4888 9.15588 10.1419 9.50282C9.79495 9.84976 9.60004 10.3203 9.60004 10.811V16.311C9.60004 16.8016 9.79495 17.2722 10.1419 17.6191C10.4888 17.9661 10.9594 18.161 11.45 18.161H14.4394L17.5197 21.2413C17.7342 21.4558 18.0568 21.52 18.3371 21.4039C18.6173 21.2878 18.8 21.0143 18.8 20.711V18.161H19.15C19.6407 18.161 20.1112 17.9661 20.4582 17.6191C20.8051 17.2722 21 16.8016 21 16.311V10.811C21 10.3203 20.8051 9.84976 20.4582 9.50282C20.1112 9.15588 19.6407 8.96097 19.15 8.96097H11.45ZM11.2025 10.5635C11.2682 10.4978 11.3572 10.461 11.45 10.461H19.15C19.2429 10.461 19.3319 10.4978 19.3975 10.5635C19.4632 10.6291 19.5 10.7181 19.5 10.811V16.311C19.5 16.4038 19.4632 16.4928 19.3975 16.5585C19.3319 16.6241 19.2429 16.661 19.15 16.661H18.05C17.6358 16.661 17.3 16.9968 17.3 17.411V18.9003L15.2804 16.8806C15.1397 16.74 14.949 16.661 14.75 16.661H11.45C11.3572 16.661 11.2682 16.6241 11.2025 16.5585C11.1369 16.4928 11.1 16.4038 11.1 16.311V10.811C11.1 10.7181 11.1369 10.6291 11.2025 10.5635Z" fill="#2D373D"/>
</svg>
