<svg width="64" height="64" viewBox="0 0 64 64" fill="none" xmlns="http://www.w3.org/2000/svg">
<path d="M38.0002 32.0002C38.0002 35.3139 35.3139 38.0002 32.0002 38.0002C28.6865 38.0002 26.0002 35.3139 26.0002 32.0002C26.0002 28.6865 28.6865 26.0002 32.0002 26.0002C35.3139 26.0002 38.0002 28.6865 38.0002 32.0002Z" fill="#2D373D"/>
<path fill-rule="evenodd" clip-rule="evenodd" d="M5.20068 32.0002C5.20068 17.199 17.1995 5.2002 32.0007 5.2002C46.8019 5.2002 58.8007 17.199 58.8007 32.0002C58.8007 46.8014 46.8019 58.8002 32.0007 58.8002C17.1995 58.8002 5.20068 46.8014 5.20068 32.0002ZM30.0002 9.28675C19.004 10.2426 10.2428 19.0039 9.2872 30.0002H18.6668C19.7714 30.0002 20.6668 30.8956 20.6668 32.0002C20.6668 33.1047 19.7714 34.0002 18.6668 34.0002H9.28719C10.2428 44.9964 19.004 53.7578 30.0002 54.7136V45.3335C30.0002 44.2289 30.8956 43.3335 32.0002 43.3335C33.1047 43.3335 34.0002 44.2289 34.0002 45.3335V54.7137C44.9968 53.7583 53.7585 44.9968 54.7142 34.0002H45.3335C44.2289 34.0002 43.3335 33.1047 43.3335 32.0002C43.3335 30.8956 44.2289 30.0002 45.3335 30.0002H54.7142C53.7585 19.0036 44.9968 10.2421 34.0002 9.28666V18.6668C34.0002 19.7714 33.1047 20.6668 32.0002 20.6668C30.8956 20.6668 30.0002 19.7714 30.0002 18.6668V9.28675Z" fill="#2D373D"/>
</svg>
