<svg width="16" height="17" viewBox="0 0 16 17" fill="none" xmlns="http://www.w3.org/2000/svg">
<path fill-rule="evenodd" clip-rule="evenodd" d="M6.82436 3.25391L4.51592 8.42057H6.43634C6.89047 8.42057 7.21169 8.86471 7.06948 9.296L5.80697 13.125L11.2226 7.42057H9.30467C8.77783 7.42057 8.45916 6.83827 8.74315 6.39454L10.7532 3.25391H6.82436ZM5.99953 2.64862C6.10681 2.40851 6.34522 2.25391 6.6082 2.25391H11.3622C11.8891 2.25391 12.2078 2.8362 11.9238 3.27994L9.91376 6.42057H11.9987C12.5843 6.42057 12.8854 7.12154 12.4822 7.54625L4.99609 15.4315C4.83497 15.6012 4.57769 15.6365 4.37686 15.5164C4.17602 15.3963 4.08535 15.1529 4.15863 14.9307L5.97545 9.42057H4.00189C3.51889 9.42057 3.19619 8.92294 3.39322 8.48195L5.99953 2.64862Z" fill="#2D373D"/>
</svg>
