<svg width="16" height="17" viewBox="0 0 16 17" fill="none" xmlns="http://www.w3.org/2000/svg">
<path fill-rule="evenodd" clip-rule="evenodd" d="M6.83302 4.77701V2.75781C6.83302 2.48167 6.60916 2.25781 6.33302 2.25781C6.05688 2.25781 5.83302 2.48167 5.83302 2.75781V4.77701H5.3331C4.68956 4.77701 4.16642 5.29773 4.16643 5.94287L4.16642 9.00093C4.16642 9.77987 4.32996 10.6301 4.91729 11.2998L1.47945 14.7376C1.28419 14.9329 1.28419 15.2494 1.47945 15.4447C1.67472 15.64 1.9913 15.64 2.18656 15.4447L5.70596 11.9253C5.73793 11.9428 5.77044 11.9598 5.80347 11.9765V12.7578C5.80347 13.4021 6.3258 13.9245 6.97013 13.9245H7.52515V15.0911C7.52515 15.3673 7.749 15.5911 8.02515 15.5911C8.30129 15.5911 8.52515 15.3673 8.52515 15.0911V13.9245H9.10169C9.74602 13.9245 10.2684 13.4021 10.2684 12.7578V11.9216C11.3762 11.2923 11.9979 10.1723 11.9979 9.00059L11.9979 7.47156C11.9979 7.19542 11.774 6.97156 11.4979 6.97156C11.2217 6.97156 10.9979 7.19542 10.9979 7.47156L10.9979 9.00059C10.9979 10.2007 10.0382 11.4433 8.16466 11.4433C7.42044 11.4433 6.86803 11.3383 6.45688 11.1744L14.5199 3.11137C14.7152 2.9161 14.7152 2.59952 14.5199 2.40426C14.3246 2.209 14.008 2.209 13.8128 2.40426L5.62687 10.5902C5.29513 10.1804 5.16642 9.63157 5.16642 9.00093L5.16643 5.94286C5.16643 5.85161 5.24025 5.77701 5.3331 5.77701H9.66622C9.94236 5.77701 10.1662 5.55315 10.1662 5.27701V2.75781C10.1662 2.48167 9.94236 2.25781 9.66622 2.25781C9.39008 2.25781 9.16622 2.48167 9.16622 2.75781V4.77701H6.83302ZM9.26836 12.3151C8.92791 12.3983 8.5593 12.4433 8.16466 12.4433C7.65855 12.4433 7.20593 12.3997 6.80347 12.3157V12.7578C6.80347 12.8499 6.87809 12.9245 6.97013 12.9245H9.10169C9.19374 12.9245 9.26836 12.8499 9.26836 12.7578V12.3151Z" fill="#2D373D"/>
</svg>
