<svg width="16" height="16" viewBox="0 0 16 16" fill="none" xmlns="http://www.w3.org/2000/svg">
<path d="M10.8998 8.69995C10.1498 8.69995 9.5498 9.29995 9.5498 10.05C9.5498 10.8 10.1498 11.4 10.8998 11.4C11.6498 11.4 12.1998 10.8 12.2498 10.05C12.2498 9.29995 11.6498 8.69995 10.8998 8.69995ZM10.8998 10.45C10.6998 10.45 10.5498 10.3 10.5498 10.1C10.5498 9.89995 10.6998 9.74995 10.8998 9.74995C11.0998 9.74995 11.2498 9.89995 11.2498 10.1C11.2498 10.3 11.0998 10.45 10.8998 10.45Z" fill="#2D373D"/>
<path d="M13.7998 10.05L14.3998 9.39996C14.6498 9.09996 14.7998 8.69996 14.6998 8.29996C14.5498 7.59996 13.8498 7.19996 13.1998 7.34996L12.3998 7.54996L12.3498 7.49996L12.0998 6.69996C12.0498 6.69996 12.0498 6.64996 12.0498 6.64996C11.8998 6.29996 11.5998 5.99996 11.2498 5.89996C10.5998 5.69996 9.8998 6.04996 9.6998 6.69996L9.3998 7.54996C9.3998 7.59996 9.3498 7.59996 9.3498 7.59996L8.5498 7.39996C8.1498 7.29996 7.7498 7.39996 7.4498 7.69996C7.1998 7.89996 7.0498 8.19996 7.0498 8.54996C7.0498 8.89996 7.1998 9.19996 7.3998 9.44996L7.9498 10.05V10.1L7.3998 10.7C7.1498 11 6.9998 11.4 7.0998 11.8C7.1998 12.15 7.3498 12.4 7.6498 12.6C7.9498 12.75 8.2498 12.8 8.5998 12.75L9.3998 12.55C9.3998 12.55 9.4498 12.55 9.4498 12.6L9.6998 13.4C9.8498 13.8 10.1498 14.15 10.5498 14.25C10.6498 14.3 10.7998 14.3 10.8998 14.3C11.0998 14.3 11.2998 14.25 11.4998 14.1C11.7998 13.9 11.9998 13.65 12.0998 13.35L12.3498 12.55C12.3498 12.5 12.3498 12.5 12.3998 12.5L13.1998 12.7C13.5998 12.8 13.9998 12.7 14.2998 12.4C14.5498 12.2 14.6998 11.9 14.6998 11.55C14.6998 11.2 14.5498 10.9 14.3498 10.65L13.7998 10.05ZM13.0998 10.85L13.6498 11.45C13.6998 11.5 13.6998 11.55 13.6998 11.6C13.6498 11.6 13.6498 11.7 13.5998 11.75C13.5498 11.8 13.4998 11.8 13.3998 11.8L12.5998 11.6C12.0498 11.45 11.4998 11.8 11.3498 12.3L11.0998 13.1C11.0998 13.2 11.0498 13.25 10.9998 13.25C10.9498 13.25 10.8998 13.25 10.7998 13.25C10.7498 13.25 10.6498 13.2 10.6498 13.1L10.3998 12.3C10.2498 11.85 9.8998 11.6 9.4498 11.6C9.3998 11.6 9.2498 11.55 9.1498 11.65L8.3998 11.85C8.2998 11.85 8.2498 11.85 8.1998 11.85C8.1498 11.85 8.0498 11.75 8.0498 11.65C8.0498 11.6 8.0998 11.5 8.1498 11.45L8.6998 10.85C9.0498 10.45 9.0498 9.79996 8.6998 9.39996L8.1498 8.79996C8.0498 8.69996 8.0498 8.54996 8.1498 8.44996C8.1998 8.39996 8.2998 8.39996 8.3498 8.39996L9.1498 8.59996C9.6998 8.74996 10.2498 8.39996 10.3998 7.89996L10.6498 7.09996C10.6998 6.99996 10.8498 6.89996 10.9498 6.94996C10.9998 6.94996 11.0998 6.99996 11.0998 7.09996V7.14996L11.3498 7.89996C11.4998 8.39996 12.0498 8.69996 12.5998 8.59996L13.3998 8.39996C13.4998 8.39996 13.5498 8.44996 13.5998 8.44996C13.6498 8.44996 13.6998 8.49996 13.6998 8.59996C13.7498 8.64996 13.6998 8.74996 13.6498 8.79996L13.0998 9.39996C12.7498 9.79996 12.7498 10.45 13.0998 10.85Z" fill="#2D373D"/>
<path d="M3.84978 6.29994C3.79978 6.24994 3.69978 6.24994 3.64978 6.24994C3.59978 6.24994 3.49978 6.24994 3.44978 6.29994C3.24978 6.34994 3.04978 6.54994 2.99978 6.74994C2.94978 6.79994 2.94978 6.89994 2.94978 6.94994C2.94978 7.24994 3.14978 7.49994 3.44978 7.59994C3.49978 7.64994 3.59978 7.64994 3.64978 7.64994C3.69978 7.64994 3.79978 7.64994 3.84978 7.59994C4.04978 7.54994 4.24978 7.34994 4.29978 7.14994C4.34978 7.09994 4.34978 6.99994 4.34978 6.94994C4.34978 6.89994 4.34978 6.79994 4.29978 6.74994C4.24978 6.54994 4.09978 6.34994 3.84978 6.29994Z" fill="#2D373D"/>
<path d="M5.9498 8.34995H2.6498C2.4498 8.34995 2.2998 8.19995 2.2998 7.99995V6.74995C2.2998 6.09995 2.7998 5.59995 3.4498 5.59995H11.6498C12.0498 5.59995 12.4498 5.84995 12.6498 6.19995C12.7998 6.44995 13.0998 6.54995 13.3498 6.39995C13.5998 6.24995 13.6998 5.94995 13.5498 5.69995C13.3498 5.29995 12.9998 4.94995 12.5998 4.79995L11.6998 2.84995C11.4498 2.14995 10.7498 1.69995 10.0498 1.69995H5.1498C4.3998 1.69995 3.7498 2.14995 3.4998 2.79995L2.6498 4.74995C1.8498 5.04995 1.2998 5.84995 1.2998 6.74995V7.99995C1.2998 8.34995 1.4498 8.69995 1.6998 8.89995V9.59995C1.6998 10.35 2.2998 10.95 3.0498 10.95C3.7498 10.95 4.3498 10.4 4.3998 9.64995V9.29995H5.9498C6.1998 9.29995 6.4498 9.14995 6.4498 8.84995C6.4498 8.54995 6.2498 8.34995 5.9498 8.34995ZM4.4498 3.19995C4.5498 2.89995 4.8498 2.69995 5.1498 2.69995H10.0498C10.3498 2.69995 10.6498 2.89995 10.7498 3.19995L11.3998 4.59995H3.7998L4.4498 3.19995ZM3.3998 9.64995C3.3998 9.84995 3.2498 9.99995 3.0498 9.99995C2.8498 9.99995 2.6998 9.84995 2.6998 9.64995V9.29995H3.3998V9.64995Z" fill="#2D373D"/>
</svg>
