<svg width="16" height="17" viewBox="0 0 16 17" fill="none" xmlns="http://www.w3.org/2000/svg">
<path fill-rule="evenodd" clip-rule="evenodd" d="M4.33334 2.92383C4.0572 2.92383 3.83334 3.14769 3.83334 3.42383C3.83334 4.40198 4.3336 5.25636 5.02653 5.85718H3.23333C2.90623 5.85718 2.59253 5.98712 2.36123 6.21841C2.12994 6.44971 2 6.76341 2 7.09051V8.19051C2 8.42037 2.09131 8.64081 2.25384 8.80334C2.3846 8.9341 2.55285 9.01876 2.73332 9.04686V13.6905C2.73332 14.0176 2.86326 14.3313 3.09456 14.5626C3.32585 14.7939 3.63955 14.9239 3.96666 14.9239H12.0333C12.3604 14.9239 12.6741 14.7939 12.9054 14.5626C13.1367 14.3313 13.2667 14.0176 13.2667 13.6905V9.04686C13.4471 9.01877 13.6154 8.9341 13.7462 8.80334C13.9087 8.6408 14 8.42036 14 8.19051V7.09051C14 6.76341 13.8701 6.44971 13.6388 6.21841C13.4075 5.98712 13.0938 5.85718 12.7667 5.85718H10.9735C11.6664 5.25636 12.1667 4.40198 12.1667 3.42383C12.1667 3.14769 11.9428 2.92383 11.6667 2.92383C10.7275 2.92383 9.78957 3.30138 9.08467 3.90247C8.59369 4.32116 8.19636 4.86626 8.00001 5.49251C7.80365 4.86626 7.40633 4.32116 6.91534 3.90247C6.21045 3.30138 5.27254 2.92383 4.33334 2.92383ZM9.73353 4.66338C10.1188 4.33482 10.5917 4.09864 11.0784 3.99027C10.9469 4.4093 10.6744 4.79817 10.2998 5.11761C9.9145 5.44617 9.44162 5.68235 8.95495 5.79072C9.08641 5.37169 9.35893 4.98282 9.73353 4.66338ZM5.70021 5.11761C6.08551 5.44617 6.55839 5.68235 7.04506 5.79072C6.9136 5.37169 6.64109 4.98282 6.26648 4.66338C5.88117 4.33482 5.4083 4.09864 4.92163 3.99027C5.05309 4.4093 5.3256 4.79817 5.70021 5.11761ZM3.23333 6.85718C3.17145 6.85718 3.1121 6.88176 3.06834 6.92552C3.02458 6.96928 3 7.02863 3 7.09051V8.05718H6.39999V6.85718H3.23333ZM8.59999 6.85718H7.39999V8.05718H8.59999V6.85718ZM9.59999 8.05718V6.85718H12.7667C12.8286 6.85718 12.8879 6.88176 12.9317 6.92552C12.9754 6.96928 13 7.02863 13 7.09051V8.05718H9.59999ZM8.59999 9.05719H7.39999V13.9238H8.59999V9.05719ZM6.39999 9.05719H3.73332V13.6905C3.73332 13.7524 3.75791 13.8118 3.80166 13.8555C3.84542 13.8993 3.90477 13.9239 3.96666 13.9239H6.39999V9.05719ZM9.59999 13.9239V9.05719H12.2667V13.6905C12.2667 13.7524 12.2421 13.8118 12.1983 13.8555C12.1546 13.8993 12.0952 13.9239 12.0333 13.9239H9.59999Z" fill="#2D373D"/>
</svg>
