<svg width="16" height="17" viewBox="0 0 16 17" fill="none" xmlns="http://www.w3.org/2000/svg">
<path fill-rule="evenodd" clip-rule="evenodd" d="M11.7409 3.71708C10.693 3.41628 9.29049 3.25593 7.99995 3.25586C6.70946 3.25579 5.30696 3.41611 4.25913 3.71691C3.72886 3.86914 3.35559 4.03893 3.1367 4.19498C3.06014 4.24956 3.01985 4.28889 3 4.31198V8.92245C3 10.4494 3.69703 11.8773 4.7194 12.9362C5.75777 14.0117 7.01383 14.5892 8.00003 14.5892C8.98619 14.5892 10.2422 14.0118 11.2806 12.9363C12.303 11.8774 13 10.4495 13 8.92245V4.31209C12.9802 4.289 12.9399 4.24969 12.8633 4.19513C12.6444 4.03909 12.2712 3.86931 11.7409 3.71708ZM13.0171 4.33637C13.0171 4.33637 13.0146 4.33342 13.012 4.32735C13.0162 4.33332 13.0171 4.33637 13.0171 4.33637ZM2.98295 4.33625C2.98295 4.33625 2.98385 4.33319 2.98801 4.32722C2.98543 4.33329 2.98295 4.33625 2.98295 4.33625ZM8 2.25586C10.7115 2.256 14 2.92253 14 4.2558V8.92245C14 12.5892 10.6667 15.5893 8 15.5892C5.33333 15.5891 2 12.5891 2 8.92245V4.25572C2 2.92239 5.28853 2.25572 8 2.25586Z" fill="#2D373D"/>
<path fill-rule="evenodd" clip-rule="evenodd" d="M8 8.48284C7.9866 8.48284 7.73192 7.983 7.43256 7.37158L6.88746 6.25586H5.18514V10.808H6.88299L6.89193 9.70567L6.90533 8.59888L7.4549 9.71014L8 10.8214L8.54957 9.71014L9.09467 8.59888L9.10807 9.70121L9.11701 10.808H10.8149V6.25586H9.957L9.09467 6.26032L8.5585 7.37158C8.26361 7.983 8.0134 8.48284 8 8.48284Z" fill="#2D373D"/>
<path d="M7.43256 7.37158C7.73192 7.983 7.9866 8.48284 8 8.48284C8.0134 8.48284 8.26361 7.983 8.5585 7.37158L9.09467 6.26032L9.957 6.25586H10.8149V10.808H9.11701L9.10807 9.70121L9.09467 8.59888L8.54957 9.71014L8 10.8214L7.4549 9.71014L6.90533 8.59888L6.89193 9.70567L6.88299 10.808H5.18514V6.25586H6.88746L7.43256 7.37158Z" fill="#2D373D"/>
</svg>
