<svg width="32" height="33" viewBox="0 0 32 33" fill="none" xmlns="http://www.w3.org/2000/svg">
<path d="M24.8998 13.0615C24.0998 12.2615 23.0998 11.7615 21.8998 11.4615C23.6998 10.9615 25.0998 9.36152 25.0998 7.36152C25.0998 4.96152 23.1998 3.06152 20.7998 3.06152C18.3998 3.06152 16.4998 4.96152 16.4998 7.36152C16.4998 9.36152 17.7998 10.9615 19.5998 11.4615C18.3998 11.6615 17.3998 12.2615 16.4998 13.0615C15.3998 14.1615 14.7998 15.6615 14.7998 17.2615V20.5615C14.7998 21.1615 15.1998 21.5615 15.7998 21.5615H16.5998L17.2998 28.9615C17.3998 29.4615 17.7998 29.8615 18.2998 29.8615H23.2998C23.7998 29.8615 24.1998 29.4615 24.2998 28.9615L24.8998 21.5615H25.5998C26.1998 21.5615 26.5998 21.1615 26.5998 20.5615V17.2615C26.5998 15.6615 25.9998 14.1615 24.8998 13.0615ZM18.4998 7.36152C18.4998 6.06152 19.4998 5.06152 20.7998 5.06152C22.0998 5.06152 23.0998 6.06152 23.0998 7.36152C23.0998 8.66152 22.0998 9.66152 20.7998 9.66152C19.4998 9.66152 18.4998 8.66152 18.4998 7.36152ZM24.7998 19.5615H24.0998C23.5998 19.5615 23.1998 19.9615 23.0998 20.4615L22.3998 27.8615H19.1998L18.4998 20.4615C18.3998 19.9615 17.9998 19.5615 17.4998 19.5615H16.7998V17.2615C16.7998 15.0615 18.5998 13.2615 20.7998 13.2615C21.8998 13.2615 22.7998 13.7615 23.5998 14.4615C24.3998 15.1615 24.7998 16.1615 24.7998 17.2615V19.5615Z" fill="#2D373D"/>
<path d="M8.7998 15.4615C6.8998 15.4615 5.2998 17.0615 5.2998 18.9615C5.2998 19.5615 5.6998 19.9615 6.2998 19.9615C6.8998 19.9615 7.2998 19.5615 7.2998 18.9615C7.2998 18.1615 7.9998 17.4615 8.7998 17.4615C9.5998 17.4615 10.2998 18.1615 10.2998 18.9615V28.8615C10.2998 29.4615 10.6998 29.8615 11.2998 29.8615C11.7998 29.8615 12.2998 29.4615 12.2998 28.8615V18.9615C12.2998 17.0615 10.6998 15.4615 8.7998 15.4615Z" fill="#2D373D"/>
</svg>
