<svg width="32" height="33" viewBox="0 0 32 33" fill="none" xmlns="http://www.w3.org/2000/svg">
<path d="M28.0399 19.1409C27.193 18.0975 26.0204 17.3685 24.7099 17.0709H24.6299C18.9849 15.9859 13.1849 15.9859 7.53988 17.0709H7.43988C6.12598 17.3592 4.95062 18.0892 4.10987 19.1392C3.26912 20.1892 2.81381 21.4958 2.81988 22.8409V23.8409C2.82237 24.5281 3.09374 25.1871 3.57593 25.6767C4.05811 26.1664 4.71279 26.4479 5.39988 26.4609H9.48988C10.1874 26.4609 10.8564 26.1838 11.3496 25.6906C11.8428 25.1974 12.1199 24.5285 12.1199 23.8309C12.1225 23.662 12.1907 23.5007 12.3102 23.3812C12.4297 23.2618 12.591 23.1935 12.7599 23.1909H19.2999C19.4689 23.1934 19.6303 23.2615 19.7499 23.3809C19.8081 23.4403 19.854 23.5107 19.8849 23.5879C19.9158 23.6652 19.9311 23.7478 19.9299 23.8309C19.9319 24.5281 20.2085 25.1964 20.6999 25.6909C20.945 25.9368 21.2366 26.1314 21.5576 26.2636C21.8786 26.3958 22.2227 26.4629 22.5699 26.4609H26.6499C26.9971 26.4629 27.3411 26.3958 27.6622 26.2636C27.9832 26.1314 28.2747 25.9368 28.5199 25.6909C29.0112 25.1964 29.2879 24.5281 29.2899 23.8309V22.8309C29.2999 21.4954 28.8595 20.1954 28.0399 19.1409ZM27.3399 23.8109C27.3385 23.9802 27.2702 24.142 27.1499 24.2609C27.0905 24.3192 27.0201 24.365 26.9429 24.3959C26.8657 24.4268 26.7831 24.4421 26.6999 24.4409H22.5699C22.4867 24.4421 22.4041 24.4268 22.3269 24.3959C22.2496 24.365 22.1793 24.3192 22.1199 24.2609C21.9995 24.142 21.9312 23.9802 21.9299 23.8109C21.9273 23.1133 21.6497 22.4448 21.1573 21.9506C20.6649 21.4563 19.9975 21.1762 19.2999 21.1709H12.7599C12.0605 21.1736 11.3906 21.4526 10.896 21.9471C10.4015 22.4416 10.1225 23.1116 10.1199 23.8109C10.1212 23.9787 10.0566 24.1403 9.93988 24.2609C9.88047 24.3192 9.81012 24.365 9.73289 24.3959C9.65565 24.4268 9.57306 24.4421 9.48988 24.4409H5.39988C5.31671 24.4421 5.23412 24.4268 5.15688 24.3959C5.07965 24.365 5.00929 24.3192 4.94988 24.2609C4.83321 24.1403 4.76857 23.9787 4.76988 23.8109V22.8109C4.76749 21.9199 5.07107 21.055 5.62988 20.3609C6.17489 19.6873 6.92723 19.2127 7.76988 19.0109C13.1991 17.9559 18.7807 17.9559 24.2099 19.0109C25.0658 19.2121 25.8283 19.6973 26.3731 20.3873C26.9179 21.0774 27.2129 21.9317 27.2099 22.8109L27.3399 23.8109Z" fill="#2D373D"/>
<path d="M16.0399 14.1809C16.3051 14.1809 16.5595 14.0756 16.747 13.888C16.9345 13.7005 17.0399 13.4462 17.0399 13.1809V7.46094C17.0399 7.19572 16.9345 6.94137 16.747 6.75383C16.5595 6.56629 16.3051 6.46094 16.0399 6.46094C15.7747 6.46094 15.5203 6.56629 15.3328 6.75383C15.1452 6.94137 15.0399 7.19572 15.0399 7.46094V13.1809C15.0399 13.4462 15.1452 13.7005 15.3328 13.888C15.5203 14.0756 15.7747 14.1809 16.0399 14.1809Z" fill="#2D373D"/>
<path d="M9.44988 13.7009C9.53963 13.8484 9.66599 13.97 9.81669 14.0542C9.9674 14.1383 10.1373 14.1819 10.3099 14.1809C10.4894 14.1809 10.6655 14.1325 10.8199 14.0409C11.0463 13.904 11.2091 13.6829 11.2729 13.4262C11.3366 13.1694 11.296 12.8978 11.1599 12.6709L8.70988 8.58094C8.65816 8.44254 8.57641 8.31731 8.47051 8.21428C8.36462 8.11125 8.2372 8.03296 8.09744 7.98504C7.95767 7.93713 7.80902 7.92079 7.66218 7.93718C7.51535 7.95358 7.37397 8.00231 7.24821 8.07987C7.12245 8.15744 7.01545 8.2619 6.93489 8.38576C6.85433 8.50961 6.80221 8.64978 6.78229 8.79618C6.76237 8.94258 6.77514 9.09158 6.81968 9.23246C6.86422 9.37334 6.93942 9.50259 7.03988 9.61094L9.44988 13.7009Z" fill="#2D373D"/>
<path d="M21.2399 14.0409C21.393 14.1355 21.57 14.184 21.7499 14.1809C21.9225 14.1819 22.0924 14.1383 22.2431 14.0542C22.3938 13.97 22.5201 13.8484 22.6099 13.7009L25.0399 9.61094C25.1418 9.38535 25.1565 9.12996 25.081 8.89419C25.0055 8.65841 24.8453 8.45902 24.6313 8.33459C24.4172 8.21016 24.1647 8.16954 23.9224 8.22059C23.6802 8.27164 23.4655 8.41072 23.3199 8.61094L20.8699 12.7009C20.7457 12.9287 20.7149 13.1957 20.784 13.4457C20.853 13.6958 21.0165 13.9092 21.2399 14.0409Z" fill="#2D373D"/>
</svg>
