<svg width="32" height="32" viewBox="0 0 32 32" fill="none" xmlns="http://www.w3.org/2000/svg">
<path d="M28.5001 22.6001H3.6001C3.0001 22.6001 2.6001 23.0001 2.6001 23.6001C2.6001 24.2001 3.0001 24.6001 3.6001 24.6001H28.5001C29.0001 24.6001 29.5001 24.2001 29.5001 23.6001C29.5001 23.0001 29.1001 22.6001 28.5001 22.6001Z" fill="#2D373D"/>
<path d="M28.5001 15H3.6001C3.0001 15 2.6001 15.4 2.6001 16C2.6001 16.6 3.0001 17 3.6001 17H28.5001C29.0001 17 29.5001 16.6 29.5001 16C29.5001 15.4 29.1001 15 28.5001 15Z" fill="#2D373D"/>
<path d="M3.6001 9.30005H28.5001C29.0001 9.30005 29.5001 8.90005 29.5001 8.30005C29.5001 7.70005 29.1001 7.30005 28.5001 7.30005H3.6001C3.0001 7.30005 2.6001 7.70005 2.6001 8.30005C2.6001 8.90005 3.0001 9.30005 3.6001 9.30005Z" fill="#2D373D"/>
</svg>
