<svg width="16" height="17" viewBox="0 0 16 17" fill="none" xmlns="http://www.w3.org/2000/svg">
<path fill-rule="evenodd" clip-rule="evenodd" d="M5.83301 12.7539C6.66144 12.7539 7.33301 12.0823 7.33301 11.2539C7.33301 10.4255 6.66144 9.75391 5.83301 9.75391C5.00458 9.75391 4.33301 10.4255 4.33301 11.2539C4.33301 12.0823 5.00458 12.7539 5.83301 12.7539ZM5.83301 11.7539C6.10915 11.7539 6.33301 11.53 6.33301 11.2539C6.33301 10.9778 6.10915 10.7539 5.83301 10.7539C5.55687 10.7539 5.33301 10.9778 5.33301 11.2539C5.33301 11.53 5.55687 11.7539 5.83301 11.7539Z" fill="#2D373D"/>
<path fill-rule="evenodd" clip-rule="evenodd" d="M10.1663 12.7539C10.9948 12.7539 11.6663 12.0823 11.6663 11.2539C11.6663 10.4255 10.9948 9.75391 10.1663 9.75391C9.33791 9.75391 8.66634 10.4255 8.66634 11.2539C8.66634 12.0823 9.33791 12.7539 10.1663 12.7539ZM10.1663 11.7539C10.4425 11.7539 10.6663 11.53 10.6663 11.2539C10.6663 10.9778 10.4425 10.7539 10.1663 10.7539C9.8902 10.7539 9.66634 10.9778 9.66634 11.2539C9.66634 11.53 9.8902 11.7539 10.1663 11.7539Z" fill="#2D373D"/>
<path fill-rule="evenodd" clip-rule="evenodd" d="M8.49967 6.1909C9.36229 5.96888 9.99967 5.18583 9.99967 4.25391C9.99967 3.14934 9.10424 2.25391 7.99967 2.25391C6.8951 2.25391 5.99967 3.14934 5.99967 4.25391C5.99967 5.18583 6.63706 5.96888 7.49967 6.1909V6.92057H3.99968C3.2633 6.92057 2.66634 7.51753 2.66634 8.25391L2.66634 14.2513C2.66634 14.9876 3.26307 15.5845 3.99931 15.5847L11.9993 15.5869C12.7358 15.5871 13.333 14.9901 13.333 14.2535V8.25391C13.333 7.51753 12.7361 6.92057 11.9997 6.92057H8.49967V6.1909ZM8.99967 4.25391C8.99967 4.80619 8.55196 5.25391 7.99967 5.25391C7.44739 5.25391 6.99967 4.80619 6.99967 4.25391C6.99967 3.70162 7.44739 3.25391 7.99967 3.25391C8.55196 3.25391 8.99967 3.70162 8.99967 4.25391ZM12.333 14.2535V8.25391C12.333 8.06981 12.1838 7.92057 11.9997 7.92057L3.99968 7.92057C3.81558 7.92057 3.66634 8.06981 3.66634 8.25391L3.66634 14.2513C3.66634 14.4354 3.81552 14.5846 3.99958 14.5847L11.9996 14.5869C12.1837 14.5869 12.333 14.4377 12.333 14.2535Z" fill="#2D373D"/>
<path d="M2.33301 10.0872C2.33301 9.8111 2.10915 9.58724 1.83301 9.58724C1.55687 9.58724 1.33301 9.8111 1.33301 10.0872V12.7539C1.33301 13.03 1.55687 13.2539 1.83301 13.2539C2.10915 13.2539 2.33301 13.03 2.33301 12.7539L2.33301 10.0872Z" fill="#2D373D"/>
<path d="M14.1663 9.58724C14.4425 9.58724 14.6663 9.8111 14.6663 10.0872V12.7539C14.6663 13.03 14.4425 13.2539 14.1663 13.2539C13.8902 13.2539 13.6663 13.03 13.6663 12.7539V10.0872C13.6663 9.8111 13.8902 9.58724 14.1663 9.58724Z" fill="#2D373D"/>
</svg>
