<svg width="32" height="33" viewBox="0 0 32 33" fill="none" xmlns="http://www.w3.org/2000/svg">
<path fill-rule="evenodd" clip-rule="evenodd" d="M25.6631 15.2526L15.6656 15.2526V26.5807C15.6656 26.8459 15.5602 27.1003 15.3727 27.2878C15.1851 27.4754 14.9308 27.5807 14.6656 27.5807H5.18543C3.93699 27.5807 2.66797 26.6778 2.66797 25.2692V5.89743C2.66797 4.48888 3.93698 3.58594 5.18543 3.58594L24.1457 3.58595C25.3941 3.58595 26.6631 4.48889 26.6631 5.89744V14.2526C26.6631 14.8049 26.2154 15.2526 25.6631 15.2526ZM24.6631 5.89744V6.78646H15.6656V5.58594L24.1457 5.58595C24.333 5.58595 24.4782 5.65178 24.5648 5.72666C24.6494 5.79976 24.6631 5.86293 24.6631 5.89744ZM15.6656 8.78646H24.6631V9.98698H15.6656V8.78646ZM13.6656 9.98698V8.78646H4.66797V9.98698H13.6656ZM4.66797 11.987H13.6656V13.2526H4.66797V11.987ZM15.6656 11.987H24.6631V13.2526L15.6656 13.2526V11.987ZM13.6656 5.58594V6.78646H4.66797V5.89743C4.66797 5.86292 4.68173 5.79975 4.76631 5.72665C4.85295 5.65177 4.99806 5.58594 5.18543 5.58594L13.6656 5.58594ZM13.6656 15.2526H4.66797L4.66797 25.2692C4.66797 25.3037 4.68173 25.3669 4.76631 25.44C4.85295 25.5149 4.99806 25.5807 5.18543 25.5807H13.6656V15.2526Z" fill="#2D373D"/>
<path d="M20.0828 19.5811C21.0137 18.6502 22.4243 18.307 23.7776 18.5052L22.2303 20.0525C22.0952 20.1876 21.6614 20.6407 21.4335 21.2787C21.3145 21.6121 21.2398 22.0285 21.322 22.4866C21.4059 22.9543 21.6402 23.3909 22.0208 23.7714C22.402 24.1526 22.8394 24.3866 23.3078 24.4699C23.7662 24.5513 24.1828 24.476 24.5158 24.3567C25.1536 24.1284 25.6062 23.6954 25.7396 23.5619L27.287 22.0146C27.4852 23.3679 27.142 24.7785 26.211 25.7094C25.7544 26.1661 25.2234 26.4982 24.658 26.708L24.32 26.7828C23.862 26.8841 23.536 27.2901 23.536 27.7592V29.2486C23.536 29.8008 23.9837 30.2486 24.536 30.2486C25.0883 30.2486 25.536 29.8008 25.536 29.2486V28.5122C26.2972 28.2026 27.0097 27.7391 27.6253 27.1236C29.635 25.1139 29.738 21.9752 28.6535 19.7051C28.5136 19.4122 28.2402 19.2054 27.9202 19.1505C27.6003 19.0956 27.2736 19.1995 27.0441 19.429L24.3254 22.1477C24.2494 22.2237 24.0525 22.3983 23.8417 22.4738C23.7505 22.5064 23.693 22.507 23.6577 22.5007C23.6325 22.4962 23.5566 22.4788 23.435 22.3572C23.3127 22.2349 23.2951 22.1587 23.2906 22.1335C23.2843 22.0985 23.2847 22.0418 23.317 21.9515C23.3918 21.7421 23.5657 21.5456 23.6445 21.4667L26.3632 18.7481C26.5927 18.5186 26.6965 18.1919 26.6417 17.8719C26.5868 17.552 26.38 17.2786 26.0871 17.1387C23.8169 16.0542 20.6783 16.1572 18.6686 18.1669C16.1952 20.6403 16.1952 24.6503 18.6685 27.1237C19.2339 27.6891 19.8813 28.1262 20.573 28.4337V29.2486C20.573 29.8008 21.0207 30.2486 21.573 30.2486C22.1253 30.2486 22.573 29.8008 22.573 29.2486V27.7592C22.573 27.3532 22.3276 26.9875 21.9519 26.8337L21.7348 26.7448L21.7096 26.735L21.691 26.7281C21.1049 26.5197 20.5542 26.1809 20.0827 25.7095C18.3905 24.0172 18.3905 21.2735 20.0828 19.5811Z" fill="#2D373D"/>
</svg>
