<svg width="64" height="65" viewBox="0 0 64 65" fill="none" xmlns="http://www.w3.org/2000/svg">
<path fill-rule="evenodd" clip-rule="evenodd" d="M44.5091 8.97665H12.2696C11.7229 8.97311 11.1807 9.0766 10.6736 9.28133C10.1634 9.48736 9.69868 9.79188 9.3061 10.1775C8.91352 10.5631 8.60075 11.0223 8.38564 11.5288C8.17053 12.0353 8.05722 12.5793 8.05232 13.1295L8.05225 39.5863L8.0524 39.604C8.06223 40.714 8.51009 41.7752 9.29851 42.5567C10.0869 43.3381 11.1521 43.7765 12.2622 43.7765H24.719C25.8235 43.7765 26.719 42.881 26.719 41.7765C26.719 40.6719 25.8235 39.7765 24.719 39.7765H12.262C12.2067 39.7765 12.1536 39.7546 12.1143 39.7157C12.076 39.6777 12.0539 39.6265 12.0523 39.5727V22.2643H44.9988C45.3475 22.8505 45.9874 23.2433 46.7189 23.2433C47.8235 23.2433 48.7189 22.3478 48.7189 21.2433L48.7189 20.2955L48.7192 20.2643L48.7189 20.2332L48.719 13.1669L48.7188 13.1492C48.709 12.0391 48.2611 10.9779 47.4727 10.1965C46.6843 9.41503 45.6191 8.97663 44.5091 8.97665ZM44.7189 18.2643H12.0523V13.161C12.053 13.1374 12.0581 13.1142 12.0674 13.0924C12.0771 13.0694 12.0913 13.0486 12.1092 13.0311C12.127 13.0136 12.1481 12.9998 12.1712 12.9904C12.1944 12.981 12.2192 12.9764 12.2442 12.9767H44.5092C44.5645 12.9766 44.6176 12.9985 44.6569 13.0374C44.6952 13.0754 44.7174 13.1266 44.7189 13.1805V18.2643Z" fill="#2D373D"/>
<path d="M44.3192 37.3756C44.3192 36.2711 43.4237 35.3756 42.3192 35.3756C41.2146 35.3756 40.3192 36.2711 40.3192 37.3756V44.7089C40.3192 45.8135 41.2146 46.7089 42.3192 46.7089H46.3085C47.4131 46.7089 48.3085 45.8135 48.3085 44.7089C48.3085 43.6044 47.4131 42.7089 46.3085 42.7089H44.3192V37.3756Z" fill="#2D373D"/>
<path fill-rule="evenodd" clip-rule="evenodd" d="M44.3192 29.11H46.7191C47.8237 29.11 48.7191 28.2146 48.7191 27.11C48.7191 26.0055 47.8237 25.11 46.7191 25.11H37.9191C36.8145 25.11 35.9191 26.0055 35.9191 27.11C35.9191 28.2146 36.8145 29.11 37.9191 29.11H40.3192V29.6543C33.6824 30.6226 28.5858 36.3376 28.5858 43.243C28.5858 50.8277 34.7344 56.9763 42.3191 56.9763C49.9038 56.9763 56.0524 50.8277 56.0524 43.243C56.0524 36.3377 50.9559 30.6227 44.3192 29.6544V29.11ZM42.3192 33.51L42.291 33.5098C36.9284 33.5249 32.5858 37.8769 32.5858 43.243C32.5858 48.6186 36.9435 52.9763 42.3191 52.9763C47.6946 52.9763 52.0524 48.6186 52.0524 43.243C52.0524 37.8769 47.7099 33.525 42.3473 33.5098L42.3192 33.51Z" fill="#2D373D"/>
</svg>
