<svg width="24" height="24" viewBox="0 0 24 24" fill="none" xmlns="http://www.w3.org/2000/svg">
<path d="M14.625 21.075C14.475 21.075 14.325 21.075 14.25 21L7.72504 17.175H2.70004C2.25004 17.175 1.95004 16.875 1.95004 16.425V7.64998C1.95004 7.19998 2.25004 6.89998 2.70004 6.89998H7.72504L14.25 3.07498C14.475 2.92498 14.775 2.92498 15 3.07498C15.225 3.22498 15.375 3.44998 15.375 3.74998V20.325C15.375 20.625 15.225 20.85 15 21C14.925 21 14.775 21.075 14.625 21.075ZM3.45004 15.6H7.95004C8.10004 15.6 8.25004 15.6 8.32504 15.675L13.875 18.975V5.02498L8.32504 8.24998C8.17504 8.32498 8.10004 8.32498 7.95004 8.32498H3.45004V15.6Z" fill="#2D373D"/>
<path d="M18.15 17.6251C17.925 17.6251 17.7 17.5501 17.625 17.4001C17.325 17.1001 17.4 16.6501 17.7 16.3501C18.9 15.3001 19.575 13.7251 19.575 12.1501C19.65 10.5751 18.9 9.07507 17.7 8.10007C17.4 7.87507 17.325 7.35007 17.55 7.05007C17.775 6.75007 18.3 6.67507 18.6 6.90007C20.175 8.17507 21.075 10.1251 21 12.1501C21 14.1751 20.175 16.1251 18.6 17.4751C18.525 17.5501 18.3 17.6251 18.15 17.6251Z" fill="#2D373D"/>
</svg>
