<svg width="32" height="33" viewBox="0 0 32 33" fill="none" xmlns="http://www.w3.org/2000/svg">
<path fill-rule="evenodd" clip-rule="evenodd" d="M25.7256 4.46367C26.2769 4.4961 26.6975 4.96933 26.6651 5.52067C26.4906 8.48686 25.7076 11.182 24.8797 13.1426C24.4662 14.122 24.0322 14.9404 23.6408 15.5304L23.6066 15.5814C24.4782 16.2864 24.9445 17.2215 25.1445 18.1516C25.4073 19.3739 25.2212 20.5995 24.9655 21.3939C24.7281 22.4458 24.2423 24.0872 23.5249 25.4983C23.1618 26.2128 22.7133 26.9206 22.1675 27.4629C21.6223 28.0048 20.8946 28.4619 20.0002 28.4619C19.3056 28.4619 18.4729 28.2617 17.649 27.9975C16.8035 27.7264 15.8781 27.358 14.9681 26.9623C13.3405 26.2546 11.7058 25.4348 10.5908 24.8756L10.2196 24.6896C9.80479 24.4822 9.58702 24.0167 9.69359 23.5654C9.80016 23.114 10.2031 22.7951 10.6669 22.7951C10.9064 22.7952 11.2771 22.6876 11.775 22.387C12.2583 22.0953 12.7809 21.6706 13.3021 21.1625C14.3416 20.1489 15.2754 18.9017 15.7829 17.9936C16.1748 17.2179 16.937 16.1506 18.0151 15.4057C19.0103 14.7181 20.3169 14.2863 21.7968 14.6761C21.849 14.6073 21.9083 14.524 21.9741 14.4248C22.2807 13.9627 22.6591 13.2602 23.0372 12.3646C23.7928 10.5752 24.5097 8.1037 24.6686 5.40322C24.701 4.85189 25.1742 4.43124 25.7256 4.46367ZM18.5928 17.5144L23.2711 19.4637C23.2759 19.1709 23.2527 18.8674 23.1892 18.5721C23.024 17.8038 22.5999 17.1121 21.6288 16.7236C20.6783 16.3434 19.863 16.5599 19.1519 17.0512C18.952 17.1893 18.765 17.347 18.5928 17.5144ZM22.8882 21.4709L17.4043 19.1859C16.783 20.2381 15.7902 21.5298 14.6983 22.5945C14.2025 23.0779 13.6686 23.5319 13.1218 23.8994C13.9456 24.3017 14.8574 24.7333 15.7656 25.1281C16.2709 25.3479 16.7693 25.5536 17.2456 25.735L18.4391 23.3481C18.6861 22.8541 19.2867 22.6539 19.7807 22.9009C20.2747 23.1478 20.4749 23.7485 20.2279 24.2425L19.1753 26.3478C19.5151 26.4246 19.7917 26.4619 20.0002 26.4619C20.1724 26.4619 20.4225 26.3775 20.7578 26.0443C21.0926 25.7115 21.4274 25.211 21.7421 24.5921C22.2567 23.5796 22.6478 22.3902 22.8882 21.4709Z" fill="#2D373D"/>
<path d="M12.0002 17.7953C12.0002 18.5317 11.4032 19.1286 10.6668 19.1286C9.93045 19.1286 9.3335 18.5317 9.3335 17.7953C9.3335 17.0589 9.93045 16.4619 10.6668 16.4619C11.4032 16.4619 12.0002 17.0589 12.0002 17.7953Z" fill="#2D373D"/>
<path d="M10.6668 12.4619C10.6668 13.1983 10.0699 13.7953 9.3335 13.7953C8.59712 13.7953 8.00016 13.1983 8.00016 12.4619C8.00016 11.7256 8.59712 11.1286 9.3335 11.1286C10.0699 11.1286 10.6668 11.7256 10.6668 12.4619Z" fill="#2D373D"/>
<path d="M8.00016 16.4619C8.00016 17.1983 7.40321 17.7953 6.66683 17.7953C5.93045 17.7953 5.3335 17.1983 5.3335 16.4619C5.3335 15.7256 5.93045 15.1286 6.66683 15.1286C7.40321 15.1286 8.00016 15.7256 8.00016 16.4619Z" fill="#2D373D"/>
</svg>
