<svg width="32" height="33" viewBox="0 0 32 33" fill="none" xmlns="http://www.w3.org/2000/svg">
<path d="M26.7 17.1234L21.6 12.0234C21.5 11.9234 21.5 11.9234 21.4 11.8234C20.4 10.9234 19.1 10.4234 17.8 10.4234L15.9 8.52344L16.4 8.02344C16.8 7.62344 16.8 7.02344 16.4 6.62344L13.6 3.82344C13.2 3.42344 12.6 3.42344 12.2 3.82344L6.5 9.52344C6.1 9.92344 6.1 10.5234 6.5 10.9234L9.4 13.7234C9.6 13.9234 9.8 14.0234 10.1 14.0234C10.3 14.0234 10.6 13.9234 10.8 13.7234L11.1 13.4234L12.9 15.3234C12.9 15.4234 12.9 15.6234 12.9 15.7234C12.9 16.2234 13 16.6234 13.2 17.0234L4.9 25.3234C4.3 25.7234 4 26.5234 4 27.3234C4 28.1234 4.3 28.9234 4.9 29.4234C5.4 30.0234 6.2 30.3234 7 30.3234C7.8 30.3234 8.5 30.0234 9.1 29.4234L17 21.5234L17.3 21.9234C17.7 22.2234 18.3 22.2234 18.7 21.9234C19.9 20.9234 21.8 20.9234 23 21.9234L25.3 24.2234C25.5 24.4234 25.7 24.5234 26 24.5234C26.2 24.5234 26.5 24.4234 26.7 24.2234C28.7 22.2234 28.7 19.1234 26.7 17.1234ZM10 11.6234L8.6 10.2234L12.9 5.92344L14.3 7.32344L10 11.6234ZM12.5 11.9234L14.5 9.92344L15.6 11.0234C15.1 11.2234 14.7 11.6234 14.3 12.0234C14 12.3234 13.8 12.6234 13.6 13.0234L12.5 11.9234ZM7.7 28.0234C7.3 28.4234 6.7 28.4234 6.3 28.0234C6.1 27.8234 6 27.6234 6 27.3234C6 27.0234 6.1 26.8234 6.3 26.6234L14.2 18.7234C14.3 18.8234 14.4 19.0234 14.5 19.1234L15.5 20.1234L7.7 28.0234ZM25.8 22.0234L24.3 20.5234C23.3 19.6234 22.1 19.2234 20.8 19.2234C19.9 19.2234 18.9 19.4234 18 19.9234L15.8 17.7234C15.6 17.5234 15.4 17.2234 15.2 16.9234C15.2 16.8234 15.1 16.8234 15.1 16.7234C14.9 16.3234 14.9 16.0234 14.9 15.6234C14.9 15.4234 14.9 15.3234 14.9 15.1234C14.9 15.0234 15 14.9234 15 14.7234C15.1 14.2234 15.3 13.7234 15.7 13.3234C16.9 12.1234 18.8 12.1234 20 13.2234C20 13.2234 20.1 13.2234 20.1 13.4234L25.2 18.5234C25.8 19.0234 26.1 19.8234 26.1 20.6234C26.1 21.2234 26 21.6234 25.8 22.0234Z" fill="#2D373D"/>
</svg>
