<svg width="24" height="25" viewBox="0 0 24 25" fill="none" xmlns="http://www.w3.org/2000/svg">
<path d="M15.2249 8.11117C15.2249 6.31117 13.7999 4.88617 11.9999 4.88617C10.1999 4.88617 8.7749 6.31117 8.7749 8.11117C8.7749 9.91117 10.1999 11.3362 11.9999 11.3362C13.7249 11.3362 15.2249 9.91117 15.2249 8.11117ZM10.2749 8.11117C10.2749 7.13617 11.0249 6.38617 11.9999 6.38617C12.8999 6.38617 13.7249 7.13617 13.7249 8.11117C13.7249 9.08617 12.9749 9.83617 11.9999 9.83617C11.0249 9.83617 10.2749 9.08617 10.2749 8.11117Z" fill="#2D373D"/>
<path d="M11.175 16.8861C11.4 17.1111 11.7 17.1861 12 17.1861C12.375 17.1861 12.75 17.0361 13.05 16.6611C14.775 14.4861 17.7 10.4361 17.7 8.11113C17.7 4.96113 15.15 2.41113 12 2.41113C8.84998 2.41113 6.22498 4.96113 6.22498 8.11113C6.22498 10.4361 9.14998 14.4861 10.95 16.6611C11.025 16.7361 11.1 16.8111 11.175 16.8861ZM12 3.91113C14.325 3.91113 16.2 5.78613 16.125 8.11113C16.125 9.68613 13.95 12.9861 11.925 15.6111C9.29998 12.3111 7.72498 9.46113 7.72498 8.11113C7.72498 5.78613 9.67498 3.91113 12 3.91113Z" fill="#2D373D"/>
<path d="M13.3499 20.5611C13.3499 20.1861 13.1999 19.9611 12.8999 19.8861L11.8499 18.8361C11.5499 18.5361 11.0999 18.5361 10.7999 18.8361C10.5749 19.0611 10.4999 19.4361 10.7249 19.7361C7.0499 19.4361 4.6499 18.0861 4.6499 16.8111C4.6499 16.1361 5.3999 15.3861 6.6749 14.7861C7.0499 14.6361 7.1999 14.1861 7.0499 13.8111C6.8999 13.4361 6.4499 13.2861 6.0749 13.4361C4.1999 14.2611 3.1499 15.4611 3.1499 16.8111C3.1499 19.1361 6.3749 21.0111 10.7999 21.2361C10.4999 21.5361 10.4999 21.9861 10.7999 22.2861C10.9499 22.4361 11.0999 22.5111 11.3249 22.5111C11.5499 22.5111 11.6999 22.4361 11.8499 22.4361L13.1249 21.1611C13.3499 21.0111 13.3499 20.7861 13.3499 20.5611Z" fill="#2D373D"/>
<path d="M17.7749 13.4361C17.3999 13.2861 16.9499 13.4361 16.7999 13.8111C16.6499 14.1861 16.7999 14.6361 17.1749 14.7861C18.4499 15.3861 19.1999 16.1361 19.1999 16.8111C19.1999 17.7861 17.6999 18.8361 15.4499 19.3611C15.0749 19.4361 14.8499 19.8861 14.9249 20.2611C14.9999 20.6361 15.2999 20.8611 15.6749 20.8611H15.7499C18.8249 20.1111 20.6999 18.6111 20.6999 16.8111C20.6999 15.4611 19.6499 14.2611 17.7749 13.4361Z" fill="#2D373D"/>
</svg>
