<svg width="64" height="65" viewBox="0 0 64 65" fill="none" xmlns="http://www.w3.org/2000/svg">
<path fill-rule="evenodd" clip-rule="evenodd" d="M30.0005 24.6879H13.9299C13.1225 24.6868 12.3727 24.3765 11.8011 23.8662C11.2348 23.3606 10.8719 22.6909 10.7215 21.9883C10.571 21.2859 10.6305 20.5449 10.9007 19.8719C11.1713 19.1978 11.6552 18.5925 12.3249 18.1992C12.3671 18.1744 12.4101 18.1512 12.4539 18.1296L29.7676 9.59957C30.4387 9.19767 31.2058 8.97656 32.0006 8.97656C32.7954 8.97656 33.5626 9.19767 34.2337 9.59957L51.5473 18.1296C51.5911 18.1512 51.6342 18.1744 51.6763 18.1992C52.346 18.5925 52.8299 19.1978 53.1005 19.8719C53.3708 20.5449 53.4302 21.2859 53.2798 21.9883C53.1293 22.6909 52.7665 23.3606 52.2001 23.8662C51.6285 24.3765 50.8814 24.6868 50.074 24.6879H34.0005V33.8635H41.0359C42.1405 33.8635 43.0359 34.759 43.0359 35.8635C43.0359 36.9681 42.1405 37.8635 41.0359 37.8635H34.0005V54.896C34.0005 56.0005 33.1051 56.896 32.0005 56.896C30.8959 56.896 30.0005 56.0005 30.0005 54.896V37.8635H22.9652C21.8606 37.8635 20.9652 36.9681 20.9652 35.8635C20.9652 34.759 21.8606 33.8635 22.9652 33.8635H30.0005V24.6879ZM31.8109 13.0386C31.8873 12.9898 31.9518 12.9766 32.0006 12.9766C32.0494 12.9766 32.1139 12.9898 32.1904 13.0386C32.2521 13.0779 32.316 13.1139 32.3817 13.1463L47.689 20.6879H32.0671C32.045 20.6871 32.0228 20.6868 32.0005 20.6868C31.9782 20.6868 31.956 20.6871 31.9339 20.6879H16.3122L31.6196 13.1463C31.6853 13.1139 31.7491 13.0779 31.8109 13.0386Z" fill="#2D373D"/>
<path d="M13.5454 29.5101C14.6293 29.2977 15.6802 30.0043 15.8926 31.0883L18.1574 42.6483H21.6744C22.9767 42.6483 24.166 43.2372 25.0001 44.1833C25.827 45.1212 26.256 46.345 26.256 47.5764V54.8966C26.256 56.0012 25.3606 56.8966 24.256 56.8966C23.1514 56.8966 22.256 56.0012 22.256 54.8966V47.5764C22.256 47.2546 22.141 46.9889 21.9997 46.8285C21.8655 46.6763 21.7415 46.6483 21.6744 46.6483H18.0701L15.8693 55.3852C15.5994 56.4563 14.5124 57.1059 13.4413 56.8361C12.3702 56.5663 11.7206 55.4792 11.9904 54.4081L14.4626 44.594L11.9672 31.8573C11.7548 30.7734 12.4614 29.7225 13.5454 29.5101Z" fill="#2D373D"/>
<path d="M52.034 31.8573C52.2464 30.7734 51.5398 29.7225 50.4559 29.5101C49.3719 29.2977 48.321 30.0043 48.1086 31.0883L45.8438 42.6483H42.3267C41.0244 42.6483 39.8351 43.2372 39.001 44.1833C38.1741 45.1212 37.7451 46.345 37.7451 47.5764V54.8966C37.7451 56.0012 38.6405 56.8966 39.7451 56.8966C40.8497 56.8966 41.7451 56.0012 41.7451 54.8966V47.5764C41.7451 47.2546 41.8601 46.9889 42.0014 46.8285C42.1356 46.6763 42.2596 46.6483 42.3267 46.6483H45.931L48.1318 55.3852C48.4017 56.4563 49.4887 57.1059 50.5598 56.8361C51.6309 56.5663 52.2805 55.4792 52.0107 54.4081L49.5386 44.5943L52.034 31.8573Z" fill="#2D373D"/>
</svg>
