<svg width="64" height="65" viewBox="0 0 64 65" fill="none" xmlns="http://www.w3.org/2000/svg">
<path d="M56.6669 56.9211C56.1603 56.9211 55.6536 56.7344 55.2536 56.3344L54.9336 55.9877C48.7469 49.3211 41.1736 48.3344 33.0403 53.1077C15.6003 63.3744 5.78692 49.1077 5.68025 48.9744C5.06692 48.0677 5.30692 46.8144 6.24025 46.2011C7.17358 45.5877 8.40025 45.8277 9.01358 46.7611C9.33358 47.2144 16.8803 57.9877 30.9869 49.6677C40.8003 43.8811 50.3469 45.1611 57.8669 53.2677L58.0803 53.5077C58.8536 54.2811 58.8536 55.5611 58.0803 56.3344C57.6803 56.7344 57.1736 56.9211 56.6669 56.9211Z" fill="#2D373D"/>
<path d="M56.6669 38.4677C56.1603 38.4677 55.6536 38.2811 55.2536 37.8811L54.9336 37.5344C48.7469 30.8677 41.1736 29.8811 33.0403 34.6544C15.6003 44.9211 5.78692 30.6544 5.68025 30.5211C5.06692 29.5877 5.30692 28.3611 6.24025 27.7477C7.17358 27.1344 8.40025 27.3744 9.01358 28.3077C9.33358 28.7611 16.8803 39.5344 30.9869 31.2144C40.8003 25.4277 50.3469 26.7077 57.8669 34.8144L58.0803 35.0544C58.8536 35.8277 58.8536 37.1077 58.0803 37.8811C57.6803 38.2811 57.1736 38.4677 56.6669 38.4677Z" fill="#2D373D"/>
<path d="M56.667 19.9693C56.1603 19.9693 55.6537 19.7826 55.2537 19.3826L54.9337 19.036C48.747 12.3693 41.1737 11.3826 33.0403 16.1826C15.6003 26.476 5.78699 12.1826 5.68033 12.0493C5.06699 11.116 5.30699 9.88929 6.24033 9.27595C7.17366 8.66262 8.40033 8.90262 9.01366 9.83595C9.33366 10.2893 16.8803 21.0626 30.987 12.7426C40.8003 6.95595 50.347 8.23595 57.867 16.3426L58.0803 16.5826C58.8537 17.356 58.8537 18.636 58.0803 19.4093C57.6803 19.8093 57.1737 19.996 56.667 19.996V19.9693Z" fill="#2D373D"/>
</svg>
