<svg width="32" height="33" viewBox="0 0 32 33" fill="none" xmlns="http://www.w3.org/2000/svg">
<path d="M11.7198 19.6179C11.5444 19.3268 11.3133 19.0731 11.0398 18.8713C10.7683 18.677 10.4597 18.5408 10.1331 18.4713C9.80834 18.3979 9.47128 18.3979 9.14648 18.4713V16.8579C9.14806 16.5181 9.08164 16.1815 8.95112 15.8678C8.82059 15.5541 8.62861 15.2696 8.38648 15.0313C7.89264 14.5701 7.24215 14.3136 6.56648 14.3136C5.8908 14.3136 5.24032 14.5701 4.74648 15.0313C4.2634 15.5181 3.98644 16.1722 3.97314 16.8579V22.3113C3.99157 23.6246 4.46251 24.8914 5.30648 25.8979L7.39981 28.5646C7.49296 28.6846 7.61222 28.7817 7.74852 28.8487C7.88482 28.9157 8.0346 28.9508 8.18648 28.9513C8.40914 28.9514 8.62529 28.8762 8.79981 28.7379C9.00788 28.5749 9.14293 28.336 9.17541 28.0737C9.20789 27.8113 9.13517 27.5468 8.97314 27.3379L6.86648 24.6713C6.33261 24.0055 6.04108 23.178 6.03981 22.3246V16.8579C6.03981 16.7059 6.10022 16.56 6.20774 16.4525C6.31526 16.345 6.46109 16.2846 6.61314 16.2846C6.7652 16.2846 6.91103 16.345 7.01855 16.4525C7.12607 16.56 7.18648 16.7059 7.18648 16.8579V20.6846C7.13655 21.1817 7.23392 21.6824 7.46648 22.1246L8.89314 24.4979C9.03069 24.7134 9.24551 24.868 9.49347 24.9299C9.74144 24.9919 10.0037 24.9566 10.2265 24.8313C10.4467 24.6981 10.6063 24.4842 10.671 24.2351C10.7358 23.986 10.7007 23.7215 10.5731 23.4979L9.23981 21.1913C9.20016 21.0791 9.20016 20.9567 9.23981 20.8446C9.2287 20.7208 9.25176 20.5962 9.30648 20.4846L9.47981 20.4179H9.66648C9.73382 20.4306 9.79755 20.4579 9.85314 20.4979C9.91775 20.546 9.96837 20.6104 9.99981 20.6846L11.1998 22.4979C11.6117 23.1131 11.83 23.8376 11.8265 24.5779V27.8846C11.8265 28.1498 11.9318 28.4042 12.1194 28.5917C12.3069 28.7792 12.5613 28.8846 12.8265 28.8846C13.0917 28.8846 13.346 28.7792 13.5336 28.5917C13.7211 28.4042 13.8265 28.1498 13.8265 27.8846V24.5779C13.8286 23.4441 13.4945 22.3352 12.8665 21.3913L11.7198 19.6179Z" fill="#2D373D"/>
<path d="M27.2531 14.9779C26.7593 14.5168 26.1088 14.2603 25.4331 14.2603C24.7575 14.2603 24.107 14.5168 23.6131 14.9779C23.3645 15.2225 23.1687 15.5156 23.038 15.839C22.9072 16.1624 22.8443 16.5092 22.8531 16.8579V18.4579C22.5283 18.3846 22.1913 18.3846 21.8665 18.4579C21.5339 18.5286 21.2202 18.6695 20.9465 18.8713C20.6823 19.0538 20.4597 19.2901 20.2931 19.5646L19.1065 21.3779C18.477 22.3212 18.1427 23.4306 18.1465 24.5646V27.8713C18.1465 28.1365 18.2518 28.3908 18.4394 28.5784C18.6269 28.7659 18.8813 28.8713 19.1465 28.8713C19.4117 28.8713 19.666 28.7659 19.8536 28.5784C20.0411 28.3908 20.1465 28.1365 20.1465 27.8713V24.5646C20.1448 23.8287 20.363 23.109 20.7731 22.4979L21.9865 20.6446C22.0202 20.587 22.0656 20.537 22.1198 20.4979C22.172 20.4605 22.2308 20.4334 22.2931 20.4179H22.4931C22.5794 20.44 22.6587 20.4833 22.7239 20.5438C22.7891 20.6043 22.8381 20.6803 22.8665 20.7646C22.888 20.8522 22.888 20.9437 22.8665 21.0313L21.4265 23.4179C21.2989 23.6415 21.2638 23.906 21.3286 24.1551C21.3933 24.4042 21.5529 24.6181 21.7731 24.7513C21.9959 24.8766 22.2582 24.9119 22.5061 24.8499C22.7541 24.788 22.9689 24.6334 23.1065 24.4179L24.5731 21.9779C24.7767 21.5648 24.8599 21.1028 24.8131 20.6446V16.8579C24.8131 16.7059 24.8735 16.56 24.9811 16.4525C25.0886 16.345 25.2344 16.2846 25.3865 16.2846C25.5385 16.2846 25.6844 16.345 25.7919 16.4525C25.8994 16.56 25.9598 16.7059 25.9598 16.8579V22.3113C25.9585 23.1646 25.667 23.9922 25.1331 24.6579L23.0265 27.3246C22.8645 27.5335 22.7917 27.798 22.8242 28.0604C22.8567 28.3227 22.9917 28.5615 23.1998 28.7246C23.3743 28.8629 23.5905 28.9381 23.8131 28.9379C23.965 28.9374 24.1148 28.9024 24.2511 28.8354C24.3874 28.7684 24.5067 28.6712 24.5998 28.5513L26.6931 25.8846C27.5112 24.8629 27.9579 23.5935 27.9598 22.2846V16.8579C27.9783 16.1631 27.7247 15.4885 27.2531 14.9779Z" fill="#2D373D"/>
<path d="M19.7731 16.6579C19.8058 16.7937 19.8665 16.9211 19.9513 17.032C20.0362 17.1429 20.1433 17.2347 20.2658 17.3017C20.3883 17.3687 20.5235 17.4092 20.6627 17.4208C20.8018 17.4324 20.9418 17.4147 21.0737 17.3688C21.2056 17.323 21.3264 17.25 21.4284 17.1547C21.5304 17.0593 21.6113 16.9437 21.6659 16.8152C21.7205 16.6867 21.7475 16.5481 21.7453 16.4085C21.7431 16.2689 21.7117 16.1313 21.6531 16.0046C21.2397 14.8981 20.4706 13.9601 19.4665 13.3379C19.0067 13.0047 18.4986 12.7439 17.9598 12.5646C18.2935 12.3822 18.6026 12.1582 18.8798 11.8979C19.6403 11.127 20.0667 10.0875 20.0667 9.00459C20.0667 7.92164 19.6403 6.88223 18.8798 6.11126C18.1052 5.36809 17.0733 4.95312 15.9998 4.95312C14.9263 4.95312 13.8944 5.36809 13.1198 6.11126C12.3593 6.88223 11.9329 7.92164 11.9329 9.00459C11.9329 10.0875 12.3593 11.127 13.1198 11.8979C13.397 12.1582 13.7062 12.3822 14.0398 12.5646C13.5034 12.7495 12.9961 13.0099 12.5331 13.3379C11.5105 14.0521 10.744 15.0756 10.3465 16.2579C10.2937 16.3852 10.2679 16.5221 10.2705 16.6599C10.2732 16.7976 10.3042 16.9334 10.3618 17.0586C10.4194 17.1838 10.5023 17.2957 10.6052 17.3874C10.7081 17.4791 10.8288 17.5485 10.9598 17.5913C11.0661 17.6041 11.1735 17.6041 11.2798 17.5913C11.4956 17.5876 11.7044 17.5141 11.875 17.382C12.0457 17.2498 12.169 17.066 12.2265 16.8579C12.431 16.274 12.7683 15.7455 13.2117 15.3139C13.6551 14.8824 14.1926 14.5596 14.7818 14.3709C15.3711 14.1822 15.9961 14.1328 16.6077 14.2266C17.2193 14.3204 17.8008 14.5547 18.3065 14.9113C18.9848 15.3038 19.5039 15.9219 19.7731 16.6579ZM14.5331 7.52459C14.7252 7.33109 14.9537 7.17751 15.2055 7.07271C15.4572 6.9679 15.7271 6.91395 15.9998 6.91395C16.2725 6.91395 16.5424 6.9679 16.7942 7.07271C17.0459 7.17751 17.2744 7.33109 17.4665 7.52459C17.8542 7.91926 18.0699 8.45136 18.0665 9.00459C18.0665 9.27599 18.013 9.54473 17.9092 9.79547C17.8053 10.0462 17.6531 10.274 17.4612 10.4659C17.2693 10.6579 17.0414 10.8101 16.7907 10.9139C16.54 11.0178 16.2712 11.0713 15.9998 11.0713C15.7284 11.0713 15.4597 11.0178 15.2089 10.9139C14.9582 10.8101 14.7304 10.6579 14.5385 10.4659C14.3465 10.274 14.1943 10.0462 14.0905 9.79547C13.9866 9.54473 13.9331 9.27599 13.9331 9.00459C13.9297 8.45136 14.1454 7.91926 14.5331 7.52459Z" fill="#2D373D"/>
</svg>
