<svg width="16" height="17" viewBox="0 0 16 17" fill="none" xmlns="http://www.w3.org/2000/svg">
<path fill-rule="evenodd" clip-rule="evenodd" d="M4.99984 6.59115C6.19645 6.59115 7.1665 5.6211 7.1665 4.42448C7.1665 3.22786 6.19645 2.25781 4.99984 2.25781C3.80322 2.25781 2.83317 3.22786 2.83317 4.42448C2.83317 5.6211 3.80322 6.59115 4.99984 6.59115ZM4.99984 5.59115C5.64417 5.59115 6.1665 5.06881 6.1665 4.42448C6.1665 3.78015 5.64417 3.25781 4.99984 3.25781C4.3555 3.25781 3.83317 3.78015 3.83317 4.42448C3.83317 5.06881 4.3555 5.59115 4.99984 5.59115Z" fill="#2D373D"/>
<path d="M4.164 6.78164C4.31986 7.00959 4.26142 7.32073 4.03346 7.47659C3.84677 7.60425 3.6665 7.80067 3.6665 8.09154V10.7582C3.6665 10.9244 3.70692 11.1696 3.80646 11.354C3.89429 11.5166 3.99768 11.5915 4.1665 11.5915C4.44265 11.5915 4.6665 11.8154 4.6665 12.0915V13.7582C4.6665 14.0079 4.73634 14.2268 4.84664 14.3707C4.9448 14.4987 5.09051 14.5915 5.33317 14.5915C5.57584 14.5915 5.72155 14.4987 5.8197 14.3707C5.93 14.2268 5.99984 14.0079 5.99984 13.7582V12.0915C5.99984 11.8763 6.13755 11.6853 6.34172 11.6172C6.50463 11.5629 6.80108 11.3813 6.93084 11.0915C7.04367 10.8394 7.33945 10.7266 7.59149 10.8394C7.84353 10.9522 7.95639 11.248 7.84357 11.5C7.64615 11.9411 7.30247 12.2355 6.99984 12.4096V13.7582C6.99984 14.1752 6.88634 14.623 6.61331 14.9791C6.32813 15.3511 5.89051 15.5915 5.33317 15.5915C4.77584 15.5915 4.33821 15.3511 4.05303 14.9791C3.78 14.623 3.6665 14.1752 3.6665 13.7582V12.5034C3.31675 12.3708 3.07593 12.1058 2.92655 11.8291C2.72608 11.4579 2.6665 11.0365 2.6665 10.7582V8.09154C2.6665 7.31913 3.16458 6.85928 3.46904 6.65111C3.697 6.49525 4.00814 6.55369 4.164 6.78164Z" fill="#2D373D"/>
<path fill-rule="evenodd" clip-rule="evenodd" d="M5.52673 7.07744C5.33147 6.88217 5.01489 6.88217 4.81962 7.07744C4.62436 7.2727 4.62436 7.58928 4.81962 7.78454L8.44878 11.4137C8.14929 11.9307 8.105 12.569 8.36847 13.1705C8.44674 13.3492 8.61072 13.5847 8.77073 13.7999C8.94196 14.0302 9.14736 14.2875 9.34284 14.5257C9.53893 14.7646 9.72802 14.9881 9.86789 15.1516C9.9379 15.2334 9.99575 15.3004 10.0362 15.347L10.0832 15.4011L10.1002 15.4206C10.1914 15.5247 10.3216 15.5864 10.4598 15.5909C10.5981 15.5955 10.7321 15.5426 10.8299 15.4448L13.1869 13.0877C13.2836 12.9911 13.3364 12.8592 13.3333 12.7226C13.3301 12.586 13.2707 12.4563 13.1698 12.3642L13.1653 12.3602L13.152 12.3482L13.1023 12.3033C13.0594 12.2648 12.9976 12.2096 12.9216 12.1426C12.7698 12.0088 12.5603 11.8269 12.3301 11.6351C12.1006 11.444 11.8468 11.24 11.6072 11.0635C11.3755 10.8926 11.1295 10.7267 10.9225 10.6307C10.3157 10.3492 9.67158 10.4046 9.15538 10.7061L5.52673 7.07744ZM12.1043 12.7562L10.5041 14.3563C10.3883 14.2198 10.2537 14.0593 10.1159 13.8913C9.92489 13.6586 9.7308 13.4152 9.57319 13.2032C9.40434 12.9761 9.31011 12.8279 9.28444 12.7693C9.11125 12.3739 9.19904 11.9859 9.46355 11.7214C9.73436 11.4506 10.1251 11.3632 10.5017 11.5378C10.6111 11.5886 10.7886 11.7024 11.014 11.8684C11.2315 12.0288 11.4685 12.219 11.6902 12.4035C11.8408 12.529 11.9827 12.6505 12.1043 12.7562Z" fill="#2D373D"/>
</svg>
