<svg width="64" height="65" viewBox="0 0 64 65" fill="none" xmlns="http://www.w3.org/2000/svg">
<path d="M54.9998 36.0616C54.7998 35.2616 54.1998 34.6616 53.5998 34.0616C52.1998 32.4616 50.1998 31.6616 47.9998 31.6616C45.7998 31.6616 43.9998 32.4616 42.3998 34.0616L42.1998 34.2616L41.9998 34.0616C41.3998 33.4616 40.7998 33.0616 39.9998 32.6616C36.1998 30.6616 31.3998 32.2616 29.3998 36.2616C27.7998 39.4616 28.3998 43.0616 30.7998 45.4616L40.7998 55.8616C41.1998 56.2616 41.5998 56.4616 42.1998 56.4616C42.7998 56.4616 43.3998 56.2616 43.5998 55.6616L53.5998 45.2616C55.9998 42.8616 56.5998 39.0616 54.9998 36.0616ZM50.7998 42.6616L42.1998 51.6616L33.5998 42.6616C32.3998 41.4616 31.9998 39.6616 32.7998 38.0616C33.5998 36.6616 34.9998 35.8616 36.3998 35.8616C36.9998 35.8616 37.5998 36.0616 38.1998 36.2616C38.5998 36.4616 38.7998 36.6616 39.1998 37.0616L40.7998 38.6616C41.5998 39.4616 42.7998 39.4616 43.5998 38.6616L45.1998 37.0616C45.9998 36.2616 46.9998 35.8616 47.9998 35.8616C48.9998 35.8616 49.9998 36.2616 50.7998 37.0616C51.1998 37.2616 51.3998 37.6616 51.5998 38.0616C52.3998 39.6616 51.9998 41.4616 50.7998 42.6616Z" fill="#2D373D"/>
<path d="M24.5998 46.6617H12.7998C12.1998 46.6617 11.7998 46.2617 11.7998 45.6617V13.2617C11.7998 12.6617 12.1998 12.2617 12.7998 12.2617H33.5998C33.9998 12.2617 34.1998 12.2617 34.3998 12.6617L39.9998 18.2617C40.1998 18.4617 40.1998 18.6617 40.1998 18.8617V27.8617C40.1998 29.0617 40.9998 29.8617 42.1998 29.8617C43.3998 29.8617 44.1998 29.0617 44.1998 27.8617V18.8617C44.1998 17.4617 43.7998 16.2617 42.7998 15.2617L37.1998 9.66172C36.3998 8.86172 35.1998 8.26172 33.7998 8.26172H12.7998C9.9998 8.26172 7.7998 10.4617 7.7998 13.2617V45.6617C7.7998 48.4617 9.9998 50.6617 12.7998 50.6617H24.5998C25.7998 50.6617 26.5998 49.8617 26.5998 48.6617C26.5998 47.4617 25.7998 46.6617 24.5998 46.6617Z" fill="#2D373D"/>
</svg>
