<svg width="64" height="65" viewBox="0 0 64 65" fill="none" xmlns="http://www.w3.org/2000/svg">
<path fill-rule="evenodd" clip-rule="evenodd" d="M33.4363 10.3343C34.6358 9.13481 36.2627 8.46094 37.9591 8.46094C39.6554 8.46094 41.2823 9.13481 42.4818 10.3343C43.6813 11.5338 44.3551 13.1607 44.3551 14.857V21.5C44.3551 21.8852 44.444 22.0066 44.4631 22.0328C44.4976 22.0799 44.5962 22.185 44.8905 22.3128C45.1975 22.4461 45.6005 22.555 46.1453 22.6693C46.2878 22.6992 46.4553 22.7322 46.6354 22.7676C47.0387 22.8469 47.5057 22.9388 47.8993 23.0372C50.3254 23.641 52.4659 25.0698 53.9541 27.0787C55.4424 29.088 56.1854 31.5524 56.0558 34.0495L56.0551 34.0632L55.4689 44.0276C55.4672 44.0552 55.4651 44.0827 55.4623 44.1102C55.121 47.5069 53.5258 50.6545 50.9883 52.9382C48.4519 55.221 45.1559 56.4768 41.7436 56.4608H32.1562C30.1531 56.4608 29.2337 56.1948 24.7458 54.8963C23.7766 54.6159 22.6409 54.2873 21.2919 53.9029L21.2797 53.8993C21.1181 53.8522 20.9556 53.809 20.7922 53.7698V54.4217C20.7922 55.5263 19.8967 56.4217 18.7922 56.4217H10C8.89543 56.4217 8 55.5263 8 54.4217V28.0452C8 26.9407 8.89543 26.0452 10 26.0452H18.7922C19.8967 26.0452 20.7922 26.9407 20.7922 28.0452V30.4426C23.3931 30.165 25.2907 29.314 26.7005 28.2223C28.4533 26.8651 29.6011 25.0192 30.3453 23.0608C31.7529 19.3566 31.5951 15.6309 31.5665 14.9558C31.5644 14.9056 31.563 14.8722 31.563 14.857C31.563 13.1607 32.2368 11.5338 33.4363 10.3343ZM16.7922 51.4902V30.0452H12V52.4217H16.7922V51.4902C16.7922 51.4896 16.7922 51.4909 16.7922 51.4902Z" fill="#2D373D"/>
</svg>
