<svg width="24" height="25" viewBox="0 0 24 25" fill="none" xmlns="http://www.w3.org/2000/svg">
<path d="M21.3002 4.36133H2.7002C2.2502 4.36133 1.9502 4.66133 1.9502 5.11133V19.7363C1.9502 20.1863 2.2502 20.4863 2.7002 20.4863H21.3002C21.7502 20.4863 22.0502 20.1113 22.0502 19.7363V5.11133C22.0502 4.66133 21.7502 4.36133 21.3002 4.36133ZM20.5502 5.86133V7.81133H3.4502V5.86133H20.5502ZM3.4502 18.9863V10.4363H20.5502V18.9863H3.4502Z" fill="#2D373D"/>
<path d="M7.72512 13.5864H5.25012C4.80012 13.5864 4.50012 13.8864 4.50012 14.3364C4.50012 14.7864 4.80012 15.0864 5.25012 15.0864H7.72512C8.10012 15.0864 8.47512 14.7864 8.47512 14.3364C8.47512 13.8864 8.17512 13.5864 7.72512 13.5864Z" fill="#2D373D"/>
<path d="M14.9253 12.4614C13.9503 11.7114 12.6003 11.7114 11.6253 12.4614C11.0253 12.9114 10.5753 13.5864 10.5003 14.3364C10.3503 15.0864 10.5753 15.8364 11.0253 16.4364C11.4753 17.0364 12.1503 17.4864 12.9003 17.5614C12.9753 17.5614 13.1253 17.5614 13.2753 17.5614C13.8753 17.5614 14.4003 17.3364 15.0003 16.9614C15.9753 17.7114 17.3253 17.7114 18.3003 16.9614C19.5003 16.0614 19.7253 14.2614 18.8253 13.0614C17.9253 11.8614 16.1253 11.5614 14.9253 12.4614ZM17.7753 15.0114C17.7003 15.3114 17.5503 15.6114 17.2503 15.8364C16.9503 15.9864 16.6503 16.1364 16.2753 16.0614C15.9753 15.9864 15.6753 15.8364 15.4503 15.5364C15.3003 15.3114 15.0753 15.2364 14.8503 15.2364C14.6253 15.2364 14.4003 15.3114 14.2503 15.5364C14.1753 15.6114 14.1003 15.6864 14.0253 15.7614C13.7253 15.9114 13.4253 16.0614 13.0503 15.9864C12.7503 15.9114 12.4503 15.7614 12.2253 15.4614C12.0753 15.1614 11.9253 14.8614 12.0003 14.4864C12.0753 14.1864 12.2253 13.8864 12.5253 13.6614C12.7503 13.5114 12.9753 13.4364 13.2753 13.4364C13.3503 13.4364 13.3503 13.4364 13.5003 13.5114C13.8003 13.5864 14.1003 13.7364 14.3253 14.0364C14.6253 14.4114 15.2253 14.4114 15.5253 14.0364C15.6003 13.9614 15.6753 13.8864 15.7503 13.8114C16.2753 13.3614 17.1003 13.4364 17.5503 14.0364C17.7003 14.3364 17.8503 14.6364 17.7753 15.0114Z" fill="#2D373D"/>
</svg>
