<svg width="16" height="17" viewBox="0 0 16 17" fill="none" xmlns="http://www.w3.org/2000/svg">
<path d="M8.0001 1.31055C4.0501 1.31055 0.850098 4.51055 0.850098 8.46055C0.850098 12.4105 4.0501 15.6105 8.0001 15.6105C11.9501 15.6105 15.1501 12.4105 15.1501 8.46055C15.1501 4.51055 11.9501 1.31055 8.0001 1.31055ZM8.0001 14.6105C4.6001 14.6105 1.8501 11.8605 1.8501 8.46055C1.8501 5.06055 4.6001 2.31055 8.0001 2.31055C11.4001 2.31055 14.1501 5.06055 14.1501 8.46055C14.1501 11.8605 11.4001 14.6105 8.0001 14.6105Z" fill="#2D373D"/>
<path d="M9.9 6.56052C9.7 6.36052 9.4 6.36052 9.2 6.56052L6.15 9.61052C5.95 9.81052 5.95 10.1105 6.15 10.3105C6.25 10.4105 6.35 10.4605 6.5 10.4605C6.65 10.4605 6.75 10.4105 6.85 10.3105L9.9 7.26052C10.1 7.06052 10.1 6.76052 9.9 6.56052Z" fill="#2D373D"/>
<path d="M6.0001 7.01057C6.35908 7.01057 6.6501 6.71956 6.6501 6.36057C6.6501 6.00159 6.35908 5.71057 6.0001 5.71057C5.64111 5.71057 5.3501 6.00159 5.3501 6.36057C5.3501 6.71956 5.64111 7.01057 6.0001 7.01057Z" fill="#2D373D"/>
<path d="M10.1002 9.81055C9.7502 9.81055 9.4502 10.1105 9.4502 10.4605C9.4502 10.8105 9.7502 11.1105 10.1002 11.1105C10.4502 11.1105 10.7502 10.8605 10.7502 10.4605C10.7502 10.1105 10.4502 9.81055 10.1002 9.81055Z" fill="#2D373D"/>
</svg>
