<svg width="24" height="25" viewBox="0 0 24 25" fill="none" xmlns="http://www.w3.org/2000/svg">
<path fill-rule="evenodd" clip-rule="evenodd" d="M9.94627 4.34566C10.5002 3.79169 11.2516 3.48047 12.0351 3.48047C12.8185 3.48047 13.5699 3.79169 14.1238 4.34566C14.6778 4.89963 14.9891 5.65099 14.9891 6.43443C14.9891 7.21787 14.6778 7.96923 14.1238 8.5232C13.8419 8.80514 13.5088 9.0242 13.1464 9.17135C13.6567 9.34198 14.1258 9.62943 14.5134 10.0171C15.1707 10.6744 15.54 11.5659 15.54 12.4954V14.1484C15.54 14.5626 15.2042 14.8984 14.79 14.8984H14.3501L13.8812 18.6494C13.8343 19.0247 13.5153 19.3063 13.137 19.3063H10.933C10.5548 19.3063 10.2357 19.0247 10.1888 18.6494L9.71994 14.8984H9.28003C8.86582 14.8984 8.53003 14.5626 8.53003 14.1484V12.4954C8.53003 11.5659 8.89931 10.6744 9.55662 10.0171C9.94426 9.62942 10.4133 9.34197 10.9236 9.17134C10.5613 9.02419 10.2282 8.80513 9.94627 8.5232C9.39228 7.96923 9.08105 7.21787 9.08105 6.43443C9.08105 5.65099 9.39228 4.89963 9.94627 4.34566ZM12.0351 4.98047C11.6494 4.98047 11.2796 5.13366 11.0069 5.40633C10.7342 5.679 10.5811 6.04882 10.5811 6.43443C10.5811 6.82004 10.7342 7.18986 11.0069 7.46253C11.2796 7.7352 11.6494 7.88839 12.0351 7.88839C12.4207 7.88839 12.7905 7.7352 13.0632 7.46253C13.3359 7.18986 13.4891 6.82004 13.4891 6.43443C13.4891 6.04882 13.3359 5.679 13.0632 5.40633C12.7905 5.13366 12.4207 4.98047 12.0351 4.98047ZM12.035 10.4905C11.5033 10.4905 10.9933 10.7017 10.6173 11.0777C10.2413 11.4537 10.03 11.9637 10.03 12.4954V13.3984H10.382C10.7603 13.3984 11.0793 13.6801 11.1262 14.0554L11.5951 17.8063H12.4749L12.9438 14.0554C12.9907 13.6801 13.3098 13.3984 13.688 13.3984H14.04V12.4954C14.04 11.9637 13.8288 11.4537 13.4528 11.0777C13.0768 10.7017 12.5668 10.4905 12.035 10.4905Z" fill="#2D373D"/>
<path fill-rule="evenodd" clip-rule="evenodd" d="M6.52507 5.68433C5.88776 5.68433 5.27655 5.93749 4.8259 6.38814C4.37525 6.83878 4.12207 7.44999 4.12207 8.0873C4.12207 8.72461 4.37525 9.33582 4.8259 9.78646C5.01873 9.97929 5.24097 10.136 5.48207 10.2521C5.12535 10.3635 4.78759 10.5315 4.48212 10.7507C4.03023 11.0751 3.66196 11.5023 3.40773 11.9971C3.15351 12.4918 3.02061 13.0407 3.02002 13.597V14.148C3.02002 14.5622 3.35581 14.898 3.77002 14.898H4.23668L4.68322 17.5772C4.7435 17.9389 5.05639 18.2039 5.42302 18.2039H7.62702C7.99365 18.2039 8.30654 17.9389 8.36681 17.5772L8.64305 15.9199C8.71115 15.5113 8.43513 15.1249 8.02656 15.0568C7.61798 14.9887 7.23156 15.2647 7.16346 15.6733L6.99168 16.7039H6.05836L5.61181 14.0247C5.55154 13.663 5.23865 13.398 4.87202 13.398H4.5302C4.55538 13.149 4.62698 12.9063 4.74191 12.6826C4.8874 12.3995 5.09816 12.155 5.35679 11.9693C5.61541 11.7837 5.91448 11.6623 6.22931 11.615C6.54414 11.5678 6.86569 11.5961 7.16741 11.6976C7.55999 11.8297 7.98534 11.6186 8.11745 11.226C8.24956 10.8334 8.03841 10.408 7.64582 10.2759C7.62055 10.2674 7.59519 10.2592 7.56976 10.2513C7.81021 10.1352 8.03186 9.97884 8.22424 9.78646C8.67489 9.33582 8.92807 8.72461 8.92807 8.0873C8.92807 7.44999 8.67489 6.83878 8.22424 6.38814C7.77359 5.93749 7.16238 5.68433 6.52507 5.68433ZM5.88655 7.44881C6.05589 7.27946 6.28558 7.18433 6.52507 7.18433C6.76456 7.18433 6.99425 7.27946 7.16359 7.44881C7.33294 7.61815 7.42807 7.84782 7.42807 8.0873C7.42807 8.32678 7.33294 8.55645 7.16359 8.72579C6.99425 8.89513 6.76456 8.99027 6.52507 8.99027C6.28558 8.99027 6.05589 8.89513 5.88655 8.72579C5.7172 8.55645 5.62207 8.32678 5.62207 8.0873C5.62207 7.84782 5.7172 7.61815 5.88655 7.44881Z" fill="#2D373D"/>
<path fill-rule="evenodd" clip-rule="evenodd" d="M17.545 5.68433C16.9077 5.68433 16.2964 5.93749 15.8458 6.38814C15.3951 6.83878 15.142 7.44999 15.142 8.0873C15.142 8.72461 15.3951 9.33582 15.8458 9.78646C16.0382 9.97884 16.2598 10.1352 16.5003 10.2513C16.4748 10.2592 16.4495 10.2674 16.4242 10.2759C16.0316 10.408 15.8204 10.8334 15.9525 11.226C16.0847 11.6186 16.51 11.8297 16.9026 11.6976C17.2043 11.5961 17.5259 11.5678 17.8407 11.615C18.1555 11.6623 18.4546 11.7837 18.7132 11.9693C18.9718 12.155 19.1826 12.3995 19.3281 12.6826C19.443 12.9063 19.5146 13.149 19.5398 13.398H19.198C18.8313 13.398 18.5185 13.663 18.4582 14.0247L18.0116 16.7039H17.0783L16.9065 15.6733C16.8384 15.2647 16.452 14.9887 16.0434 15.0568C15.6349 15.1249 15.3589 15.5113 15.4269 15.9199L15.7032 17.5772C15.7635 17.9389 16.0763 18.2039 16.443 18.2039H18.647C19.0136 18.2039 19.3265 17.9389 19.3868 17.5772L19.8333 14.898H20.3C20.7142 14.898 21.05 14.5622 21.05 14.148V13.597C21.0494 13.0407 20.9165 12.4918 20.6623 11.9971C20.408 11.5023 20.0398 11.0751 19.5879 10.7507C19.2824 10.5315 18.9447 10.3635 18.5879 10.2521C18.8291 10.136 19.0513 9.9793 19.2441 9.78646C19.6948 9.33582 19.948 8.72461 19.948 8.0873C19.948 7.44999 19.6948 6.83878 19.2441 6.38814C18.7935 5.93749 18.1823 5.68433 17.545 5.68433ZM16.9064 7.44881C17.0758 7.27946 17.3055 7.18433 17.545 7.18433C17.7845 7.18433 18.0141 7.27946 18.1835 7.44881C18.3528 7.61815 18.448 7.84782 18.448 8.0873C18.448 8.32678 18.3528 8.55645 18.1835 8.72579C18.0141 8.89513 17.7845 8.99027 17.545 8.99027C17.3055 8.99027 17.0758 8.89513 16.9064 8.72579C16.7371 8.55645 16.642 8.32678 16.642 8.0873C16.642 7.84782 16.7371 7.61815 16.9064 7.44881Z" fill="#2D373D"/>
<path d="M3.77002 18.3574C4.12524 18.3574 4.42278 18.6044 4.50033 18.936C4.54368 18.9682 4.61916 19.0157 4.74015 19.0729C5.07794 19.2327 5.61463 19.3963 6.33791 19.5409C7.77209 19.8277 9.78674 20.0104 12.035 20.0104C14.2833 20.0104 16.298 19.8277 17.7321 19.5409C18.4554 19.3963 18.9921 19.2327 19.3299 19.0729C19.4509 19.0157 19.5264 18.9682 19.5697 18.936C19.6473 18.6044 19.9448 18.3574 20.3 18.3574C20.7142 18.3574 21.05 18.6932 21.05 19.1074C21.05 19.4943 20.8508 19.7869 20.6564 19.977C20.4632 20.1658 20.2185 20.312 19.9711 20.429C19.4724 20.6648 18.7987 20.8573 18.0263 21.0118C16.4691 21.3232 14.3512 21.5104 12.035 21.5104C9.71882 21.5104 7.60097 21.3232 6.04377 21.0118C5.27135 20.8573 4.59763 20.6648 4.09894 20.429C3.85149 20.312 3.60684 20.1658 3.41368 19.977C3.21926 19.7869 3.02002 19.4943 3.02002 19.1074C3.02002 18.6932 3.35581 18.3574 3.77002 18.3574Z" fill="#2D373D"/>
</svg>
