<svg width="16" height="17" viewBox="0 0 16 17" fill="none" xmlns="http://www.w3.org/2000/svg">
<path d="M13.6002 4.51211C13.1002 4.46211 12.4502 4.41211 11.7502 4.46211V2.91211C11.7502 2.76211 11.7002 2.66211 11.6002 2.56211C11.5002 2.46211 11.4002 2.41211 11.2502 2.41211C11.1502 2.41211 9.2002 2.46211 8.0002 3.46211C7.1002 2.81211 5.9502 2.46211 4.8002 2.41211C4.6002 2.41211 4.5002 2.46211 4.4002 2.56211C4.3002 2.66211 4.2502 2.76211 4.2502 2.91211V4.76211C3.3002 4.61211 2.6002 4.51211 2.5002 4.51211C2.3502 4.51211 2.2002 4.56211 2.1002 4.66211C2.0002 4.71211 1.9502 4.86211 1.9502 5.01211V8.71211C2.0502 11.9121 4.65019 14.4621 7.85019 14.4621C7.90019 14.4621 7.9002 14.4621 7.9502 14.4621C10.0002 14.5121 11.8502 13.5121 12.9502 11.9621C13.0002 11.9121 13.0502 11.8121 13.1002 11.7121C13.6502 10.8621 13.9502 9.81211 14.0002 8.71211V5.01211C14.0002 4.76211 13.8502 4.56211 13.6002 4.51211ZM10.7502 3.46211V4.56211C10.3002 4.66211 9.8502 4.76211 9.4502 4.96211C9.2502 4.66211 9.0002 4.36211 8.8002 4.11211C9.4002 3.71211 10.2002 3.56211 10.7502 3.46211ZM5.2502 3.46211C6.5502 3.61211 7.7502 4.31211 8.5502 5.41211C8.4002 5.51211 8.2502 5.66211 8.1502 5.81211C7.2002 5.46211 6.1502 5.16211 5.2502 4.96211V3.46211ZM7.9502 13.4621C5.2502 13.5621 3.0002 11.4121 2.9502 8.71211V5.61211C4.0002 5.71211 6.3502 6.11211 8.0502 6.86211H8.1002C8.5502 7.06211 8.9502 7.26211 9.3002 7.51211C10.6502 8.46211 11.6502 9.81211 12.0502 11.4121C11.1502 12.7121 9.6502 13.5121 7.9502 13.4621ZM13.0502 8.66211C13.0002 9.21211 12.9002 9.71211 12.7502 10.2121C12.1502 8.81211 11.2002 7.61211 9.9502 6.71211C9.7002 6.56211 9.4502 6.41211 9.1502 6.26211C10.1002 5.46211 11.8002 5.36211 13.0502 5.46211V8.66211V8.66211Z" fill="#2D373D"/>
</svg>
