<svg width="64" height="64" viewBox="0 0 64 64" fill="none" xmlns="http://www.w3.org/2000/svg">
<path d="M13.7999 40.5999C13.9999 40.7999 14.3999 40.7999 14.5999 40.7999C16.1999 40.7999 17.3999 39.4 17.3999 38C17.3999 36.7999 16.5999 35.8 15.3999 35.4C15.1999 35.2 14.7999 35.2 14.5999 35.2C14.3999 35.2 13.9999 35.2 13.7999 35.4C12.5999 35.8 11.7999 36.7999 11.7999 38C11.7999 39.2 12.5999 40.1999 13.7999 40.5999Z" fill="#2D373D"/>
<path d="M48.6 40.5999C48.8 40.7999 49.2 40.7999 49.4 40.7999C51 40.7999 52.2 39.4 52.2 38C52.2 36.7999 51.4 35.8 50.2 35.4C50 35.2 49.6 35.2 49.4 35.2C49.2 35.2 48.8 35.2 48.6 35.4C47.4 35.8 46.6 36.7999 46.6 38C46.6 39.2 47.4 40.1999 48.6 40.5999Z" fill="#2D373D"/>
<path d="M52.3999 28.4V25.6H56.7999C57.9999 25.6 58.7999 24.8 58.7999 23.6C58.7999 22.4 57.9999 21.6 56.7999 21.6H52.3999V20C52.3999 13.4 46.9999 7.80005 40.3999 7.80005H23.7999C16.9999 7.80005 11.7999 13.4 11.7999 20V21.6H7.19992C5.99992 21.6 5.19992 22.4 5.19992 23.6C5.19992 24.8 5.99992 25.6 7.19992 25.6H11.7999V28.4C8.19992 29.4 5.19992 32.6 5.19992 36.6V36.8C4.99992 39.8 5.99992 42.8 7.99992 45C8.19992 45.2001 8.39992 45.4 8.59992 45.6V50.4001C8.59992 53.4001 10.7999 55.8 13.9999 56C16.9999 56 19.1999 53.4 19.1999 50.6V48.8H23.5999C23.5999 48.8 23.5999 48.8 23.7999 48.8H40.3999C40.3999 48.8 40.3999 48.8 40.5999 48.8H44.7999V50.2001C44.7999 50.4001 44.7999 50.8 44.7999 51C45.1999 53.8 47.3999 56 50.1999 56C50.3999 56 50.5999 56 50.7999 56C52.1999 56 53.5999 55.4001 54.3999 54.2001C55.1999 53 55.7999 51.6001 55.5999 50.4001V45.8C55.7999 45.6 56.1999 45.4001 56.3999 45C58.3999 42.8 59.3999 39.8 59.1999 37V36.6C59.1999 32.4 56.1999 29.2 52.3999 28.4ZM39.9999 32.8L34.7999 29.2001C32.9999 28 30.5999 28 28.7999 29.2001L23.9999 32.6C22.1999 30.6 19.5999 29.2 16.9999 28.6C18.1999 27.2 20.7999 25.6 25.3999 25.6H38.5999C43.1999 25.6 45.7999 27.2 46.9999 28.8C44.3999 29.4 41.9999 30.8 39.9999 32.8ZM15.7999 20C15.7999 15.6 19.3999 11.8 23.7999 11.8H40.3999C44.7999 11.8 48.3999 15.6 48.3999 20V22.6C48.1999 22.8 48.1999 23.2 48.1999 23.6C48.1999 24 48.1999 24.2 48.3999 24.4C46.3999 22.8 43.1999 21.6 38.5999 21.6H25.3999C20.9999 21.6 17.7999 22.8 15.7999 24.4V20ZM9.19992 36.6C9.39992 34.2 11.3999 32.2001 13.7999 32.2001C16.7999 32.2001 19.7999 33.6 21.7999 35.8V44.8H16.9999C16.5999 44.8 16.3999 44.8 15.9999 44.8C14.5999 44.8 13.3999 44.2001 12.1999 43.4001C11.9999 43 11.7999 42.8 11.3999 42.8C11.1999 42.6 11.1999 42.6001 10.9999 42.4001C9.79992 40.8001 8.99992 39 9.19992 37V36.6ZM13.9999 52C13.1999 52 12.5999 51.2001 12.5999 50.4001V48C13.3999 48.4001 14.3999 48.6 15.1999 48.6V50.6C15.1999 51.4 14.5999 52 13.9999 52ZM38.3999 44.8H25.5999V36.2001L31.1999 32.4001C31.7999 32.0001 32.3999 32.0001 32.7999 32.4001L38.3999 36.2001V44.8ZM42.3999 35.8C44.3999 33.6 47.3999 32.2001 50.3999 32.2001C52.7999 32.2001 54.7999 34.2 54.7999 36.6V37C54.9999 39 54.3999 41 52.9999 42.4001C52.7999 42.6001 52.5999 42.8 52.1999 43L51.9999 43.2001C50.7999 44 49.3999 44.6 47.9999 44.8C47.7999 44.8 47.3999 44.8 46.9999 44.8H42.3999V35.8ZM51.5999 50.6C51.5999 51 51.3999 51.4 51.1999 51.6C50.7999 51.8 50.5999 52 50.1999 52C49.5999 52 48.7999 51.6 48.7999 50.8V48.8C49.7999 48.8 50.5999 48.4001 51.5999 48.2001V50.6Z" fill="#2D373D"/>
</svg>
