<svg width="16" height="16" viewBox="0 0 16 16" fill="none" xmlns="http://www.w3.org/2000/svg">
<path d="M13.9002 7.65001L8.3502 2.10001C8.2502 2.00001 8.1502 1.95001 8.0002 1.95001C7.8502 1.95001 7.7502 2.00001 7.6502 2.10001L2.1002 7.65001C2.0002 7.75001 1.9502 7.85001 1.9502 8.00001V13.55C1.9502 13.85 2.1502 14.05 2.4502 14.05C2.7502 14.05 2.9502 13.85 2.9502 13.55V8.20001L8.0002 3.15001L13.0502 8.20001V13.55C13.0502 13.85 13.2502 14.05 13.5502 14.05C13.8002 14.05 14.0502 13.8 14.0502 13.55V8.00001C14.0502 7.85001 14.0002 7.75001 13.9002 7.65001Z" fill="#2D373D"/>
<path d="M8.65021 7.95002C9.20021 7.70002 9.60021 7.15002 9.60021 6.50002C9.60021 5.60002 8.90021 4.90002 8.00021 4.90002C7.10021 4.90002 6.40021 5.60002 6.40021 6.50002C6.40021 7.15002 6.80021 7.70002 7.35021 7.95002C6.40021 8.25002 5.65021 9.15002 5.65021 10.2V11.3C5.65021 11.6 5.85021 11.8 6.15021 11.8H6.45021L6.75021 13.65C6.80021 13.85 7.00021 14.05 7.25021 14.05H8.75021C8.95021 14.05 9.20021 13.85 9.25021 13.6L9.55021 11.8H9.85021C10.1502 11.8 10.3502 11.6 10.3502 11.3V10.2C10.3502 9.15002 9.65021 8.25002 8.65021 7.95002ZM8.00021 5.90002C8.30021 5.90002 8.60021 6.15002 8.60021 6.50002C8.60021 6.85002 8.35021 7.10002 8.00021 7.10002C7.65021 7.10002 7.40021 6.85002 7.40021 6.50002C7.40021 6.15002 7.65021 5.90002 8.00021 5.90002ZM9.35021 10.85H9.10021C8.85021 10.85 8.65021 11 8.60021 11.25L8.30021 13.05H7.65021L7.40021 11.2C7.35021 11 7.15021 10.8 6.90021 10.8H6.65021V10.2C6.65021 9.45002 7.25021 8.90002 8.00021 8.90002C8.75021 8.90002 9.35021 9.50002 9.35021 10.25V10.85Z" fill="#2D373D"/>
</svg>
