<svg width="24" height="25" viewBox="0 0 24 25" fill="none" xmlns="http://www.w3.org/2000/svg">
<path d="M21.3371 5.59638C20.9453 5.24046 20.4339 5.04501 19.9046 5.04888H4.15461C3.62707 5.04726 3.1173 5.23943 2.72211 5.58888C2.52585 5.76757 2.36909 5.98531 2.26189 6.22812C2.15469 6.47093 2.09942 6.73346 2.09961 6.99888V18.9989C2.10236 19.2642 2.16048 19.5259 2.27026 19.7675C2.38004 20.009 2.53905 20.2249 2.73711 20.4014C3.13156 20.7521 3.64182 20.9444 4.16961 20.9414H20.0021C20.5052 20.9425 20.9911 20.7582 21.3671 20.4239C21.5573 20.2556 21.7098 20.049 21.8145 19.8176C21.9192 19.5863 21.9738 19.3354 21.9746 19.0814V6.99888C21.9737 6.7333 21.9165 6.47092 21.8066 6.22914C21.6967 5.98735 21.5366 5.77167 21.3371 5.59638V5.59638ZM20.3321 6.70638C20.3746 6.74118 20.4092 6.78455 20.4338 6.83367C20.4584 6.88278 20.4723 6.93652 20.4746 6.99138V8.37138H12.1721V6.54888H19.9046C20.0616 6.54694 20.2139 6.60302 20.3321 6.70638V6.70638ZM8.49711 8.37138V6.54888H10.6721V8.37138H8.49711ZM3.77211 6.70638C3.89173 6.60537 4.04305 6.54962 4.19961 6.54888H6.99711V8.37138H3.59961V6.99888C3.60498 6.94042 3.62323 6.88386 3.65305 6.83329C3.68288 6.78271 3.72354 6.73937 3.77211 6.70638V6.70638ZM20.3621 19.3214C20.2616 19.4063 20.1336 19.4517 20.0021 19.4489H4.16961C4.02293 19.4437 3.88253 19.3881 3.77211 19.2914C3.72317 19.2588 3.68223 19.2155 3.65235 19.1649C3.62248 19.1142 3.60445 19.0575 3.59961 18.9989V9.87138H20.4746V19.0889C20.4734 19.1334 20.4627 19.1771 20.4433 19.2172C20.4239 19.2573 20.3962 19.2928 20.3621 19.3214Z" fill="#2D373D"/>
</svg>
