<svg width="24" height="25" viewBox="0 0 24 25" fill="none" xmlns="http://www.w3.org/2000/svg">
<path d="M21.25 4.92188C20.83 4.92188 20.5 5.26188 20.5 5.67188V9.79187C18.63 9.65187 17.71 8.79187 17.67 8.75187C17.39 8.47187 16.94 8.46188 16.65 8.72188C16.24 9.08188 15.2 9.81188 14.57 9.81188C13.94 9.81188 12.9 9.08188 12.5 8.72188C12.21 8.47188 11.79 8.47188 11.5 8.72188C11.1 9.08188 10.06 9.81188 9.43 9.81188C8.8 9.81188 7.76 9.08188 7.35 8.72188C7.06 8.46188 6.61 8.47188 6.33 8.74188C6.29 8.79188 5.37 9.65187 3.5 9.79187V5.67188C3.5 5.26188 3.16 4.92188 2.75 4.92188C2.34 4.92188 2 5.26188 2 5.67188V19.0319C2 20.0919 3.01 20.9219 4.31 20.9219H19.69C20.98 20.9219 22 20.0919 22 19.0319V5.67188C22 5.26188 21.66 4.92188 21.25 4.92188ZM20.5 19.0319C20.5 19.1719 20.18 19.4219 19.69 19.4219H4.31C3.81 19.4219 3.5 19.1719 3.5 19.0319V15.7919C5.12 15.7019 6.24 15.1419 6.85 14.7319C7.44 15.1719 8.48 15.8119 9.43 15.8119C10.38 15.8119 11.4 15.1819 12 14.7419C12.6 15.1819 13.62 15.8119 14.57 15.8119C15.52 15.8119 16.56 15.1719 17.15 14.7319C17.76 15.1419 18.88 15.7019 20.5 15.7919V19.0319ZM20.5 14.2919C18.63 14.1519 17.71 13.2919 17.67 13.2519C17.39 12.9719 16.94 12.9619 16.65 13.2219C16.24 13.5819 15.2 14.3119 14.57 14.3119C13.94 14.3119 12.9 13.5819 12.5 13.2219C12.21 12.9719 11.79 12.9719 11.5 13.2219C11.1 13.5819 10.06 14.3119 9.43 14.3119C8.8 14.3119 7.76 13.5819 7.35 13.2219C7.06 12.9619 6.61 12.9719 6.33 13.2419C6.29 13.2919 5.37 14.1519 3.5 14.2919V11.2919C5.12 11.2019 6.24 10.6419 6.85 10.2319C7.44 10.6719 8.48 11.3119 9.43 11.3119C10.38 11.3119 11.4 10.6819 12 10.2419C12.6 10.6819 13.62 11.3119 14.57 11.3119C15.52 11.3119 16.56 10.6719 17.15 10.2319C17.76 10.6419 18.88 11.2019 20.5 11.2919V14.2919Z" fill="#2D373D"/>
</svg>
