<svg width="24" height="25" viewBox="0 0 24 25" fill="none" xmlns="http://www.w3.org/2000/svg">
<path d="M12 2.41211C7.425 2.41211 3.75 6.08711 3.75 10.6621C3.75 17.4871 9.525 21.3121 11.325 22.3621C11.55 22.4371 11.775 22.5121 12 22.5121C12.225 22.5121 12.45 22.4371 12.675 22.3621C14.475 21.3871 20.25 17.5621 20.25 10.6621C20.25 6.08711 16.575 2.41211 12 2.41211ZM12 21.0121C10.725 20.2621 5.25 16.7371 5.25 10.6621C5.25 6.91211 8.25 3.91211 12 3.91211C15.675 3.91211 18.675 6.91211 18.75 10.6621C18.75 16.6621 13.65 20.0371 12 21.0121Z" fill="#2D373D"/>
<path d="M15.15 8.56211H14.325V7.73711C14.325 6.83711 13.575 6.16211 12.75 6.16211H11.175C10.275 6.16211 9.59998 6.91211 9.59998 7.73711V8.56211H8.77498C7.87498 8.56211 7.19998 9.31211 7.19998 10.1371V11.7121C7.19998 12.6121 7.94998 13.2871 8.77498 13.2871H9.59998V14.1121C9.59998 15.0121 10.35 15.6871 11.175 15.6871H12.75C13.65 15.6871 14.325 15.0121 14.325 14.1121V13.2871H15.15C16.05 13.2871 16.725 12.5371 16.725 11.7121V10.1371C16.725 9.23711 15.975 8.56211 15.15 8.56211ZM15.15 11.8621H13.575C13.125 11.8621 12.825 12.1621 12.825 12.6121L12.75 14.2621L11.1 14.1871V12.6121C11.1 12.1621 10.8 11.8621 10.35 11.8621L8.69998 11.7871L8.77498 10.1371H10.35C10.8 10.1371 11.1 9.83711 11.1 9.38711L11.175 7.73711H12.825V9.38711C12.825 9.83711 13.125 10.1371 13.575 10.1371H15.15C15.225 10.1371 15.225 10.2121 15.225 10.2121L15.15 11.8621Z" fill="#2D373D"/>
</svg>
