<svg width="32" height="32" viewBox="0 0 32 32" fill="none" xmlns="http://www.w3.org/2000/svg">
<path d="M3.6665 7C3.11422 7 2.6665 7.44772 2.6665 8C2.6665 8.55228 3.11422 9 3.6665 9H3.69984C4.25212 9 4.69984 8.55228 4.69984 8C4.69984 7.44772 4.25212 7 3.69984 7H3.6665Z" fill="#2D373D"/>
<path d="M3.6665 15.0182C3.11422 15.0182 2.6665 15.4659 2.6665 16.0182C2.6665 16.5705 3.11422 17.0182 3.6665 17.0182H3.69984C4.25212 17.0182 4.69984 16.5705 4.69984 16.0182C4.69984 15.4659 4.25212 15.0182 3.69984 15.0182H3.6665Z" fill="#2D373D"/>
<path d="M3.6665 23C3.11422 23 2.6665 23.4477 2.6665 24C2.6665 24.5523 3.11422 25 3.6665 25H3.69984C4.25212 25 4.69984 24.5523 4.69984 24C4.69984 23.4477 4.25212 23 3.69984 23H3.6665Z" fill="#2D373D"/>
<path d="M8.33317 7C7.78089 7 7.33317 7.44772 7.33317 8C7.33317 8.55228 7.78089 9 8.33317 9H28.3332C28.8855 9 29.3332 8.55228 29.3332 8C29.3332 7.44772 28.8855 7 28.3332 7H8.33317Z" fill="#2D373D"/>
<path d="M8.33317 15.0182C7.78089 15.0182 7.33317 15.4659 7.33317 16.0182C7.33317 16.5705 7.78089 17.0182 8.33317 17.0182H28.3332C28.8855 17.0182 29.3332 16.5705 29.3332 16.0182C29.3332 15.4659 28.8855 15.0182 28.3332 15.0182H8.33317Z" fill="#2D373D"/>
<path d="M8.33317 23C7.78089 23 7.33317 23.4477 7.33317 24C7.33317 24.5523 7.78089 25 8.33317 25H28.3332C28.8855 25 29.3332 24.5523 29.3332 24C29.3332 23.4477 28.8855 23 28.3332 23H8.33317Z" fill="#2D373D"/>
</svg>
