<svg width="64" height="65" viewBox="0 0 64 65" fill="none" xmlns="http://www.w3.org/2000/svg">
<path fill-rule="evenodd" clip-rule="evenodd" d="M32 6.46191C17.6406 6.46191 6 18.1025 6 32.4619C6 46.8213 17.6406 58.4619 32 58.4619C46.3594 58.4619 58 46.8213 58 32.4619C58 18.1025 46.3594 6.46191 32 6.46191ZM10 32.4619C10 20.3116 19.8497 10.4619 32 10.4619C37.3549 10.4619 42.2629 12.3751 46.0778 15.5551L15.0916 46.5377C11.9125 42.7231 10 37.8158 10 32.4619ZM17.9196 49.3666C21.7349 52.5479 26.6439 54.4619 32 54.4619C44.1503 54.4619 54 44.6122 54 32.4619C54 27.1068 52.0867 22.1985 48.9063 18.3835L17.9196 49.3666Z" fill="#2D373D"/>
</svg>
