<svg width="24" height="25" viewBox="0 0 24 25" fill="none" xmlns="http://www.w3.org/2000/svg">
<path fill-rule="evenodd" clip-rule="evenodd" d="M11.3872 5.53682C11.3872 4.09263 12.5586 2.92188 14.0037 2.92188C15.4487 2.92188 16.6201 4.09263 16.6201 5.53682C16.6201 6.98102 15.4487 8.15177 14.0037 8.15177C12.5586 8.15177 11.3872 6.98102 11.3872 5.53682ZM14.0037 4.42101C13.3871 4.42101 12.8872 4.92057 12.8872 5.53682C12.8872 6.15307 13.3871 6.65263 14.0037 6.65263C14.6203 6.65263 15.1201 6.15307 15.1201 5.53682C15.1201 4.92057 14.6203 4.42101 14.0037 4.42101Z" fill="#2D373D"/>
<path fill-rule="evenodd" clip-rule="evenodd" d="M9.90255 16.4653L6.78674 18.8873H8.18469C9.29622 18.8873 10.1973 19.7879 10.1973 20.8988C10.1973 22.0097 9.29622 22.9102 8.18469 22.9102H4.0126C2.90107 22.9102 2 22.0097 2 20.8988C2 19.7879 2.90107 18.8873 4.0126 18.8873H4.3435L9.0331 15.242C8.98888 15.0639 8.96821 14.8794 8.97279 14.6931C8.97312 14.6795 8.97382 14.666 8.97489 14.6525C9.01127 14.1915 9.21729 13.76 9.55359 13.442C9.56337 13.4328 9.5734 13.4238 9.58366 13.4151C9.67132 13.3407 9.89624 13.1859 10.1176 13.0351C10.3627 12.8682 10.6696 12.6623 10.9687 12.4627C11.2681 12.2628 11.5612 12.0683 11.7794 11.9239L12.0453 11.7479L14.3149 8.96181C14.4751 8.75292 14.6752 8.57783 14.9037 8.44688C15.1368 8.31332 15.3946 8.22848 15.6616 8.19758C15.6712 8.19647 15.6808 8.19554 15.6905 8.1948C16.0672 8.16591 16.4445 8.24208 16.7805 8.41473C17.1164 8.58737 17.3979 8.84965 17.594 9.17227C17.6065 9.19283 17.618 9.21398 17.6284 9.23564L19.918 13.978C19.9279 13.9984 19.9368 14.0193 19.9448 14.0405C20.7206 16.1081 21.3873 18.2152 21.9419 20.3531C21.9439 20.3609 21.9458 20.3687 21.9475 20.3765C22.0438 20.8036 22.0413 21.3715 21.7526 21.8497C21.5931 22.1139 21.372 22.3356 21.1081 22.4958C21.1017 22.4997 21.0953 22.5035 21.0888 22.5071C20.6197 22.7731 20.0665 22.8488 19.5432 22.7184C19.1034 22.6088 18.7802 22.3441 18.5573 22.1068C18.3716 21.9092 18.2386 21.6176 18.1762 21.4758C18.1367 21.3858 18.104 21.3037 18.0812 21.2444C18.0697 21.2145 18.0605 21.1897 18.0539 21.1719L18.0461 21.1504L18.0438 21.1438L18.043 21.1416L18.0425 21.1402L18.0369 21.1236L17.1007 18.2515L17.0703 18.2842V20.6167L17.0704 20.6722C17.0719 21.0512 17.0747 21.7513 16.5542 22.3041C16.2339 22.6553 15.7939 22.8748 15.32 22.9187C15.297 22.9208 15.2739 22.9219 15.2508 22.9219C14.5669 22.9219 14.0614 22.7065 13.714 22.3723C13.3912 22.0618 13.275 21.7113 13.2344 21.589L13.232 21.5819C13.1651 21.3806 13.1466 21.1387 13.1389 21.0139C13.1343 20.9378 13.1321 20.8699 13.131 20.8211C13.1305 20.7965 13.1302 20.7762 13.1301 20.7615L13.13 20.7438L13.13 20.7383C13.13 20.3735 13.1109 19.9652 13.0904 19.5277C13.0739 19.1775 13.0566 18.808 13.0474 18.4259C13.0378 18.0261 13.0387 17.6259 13.0696 17.2882C13.085 17.1195 13.1096 16.9459 13.1516 16.7856C13.1897 16.6399 13.261 16.4288 13.4153 16.2484C13.6252 16.0028 14.2502 15.3899 14.7817 14.8754C15.0276 14.6373 15.2643 14.41 15.4505 14.2318L15.2825 13.8542L14.5691 14.7138C14.5238 14.7685 14.4709 14.8164 14.412 14.8562L11.9202 16.5406C11.9139 16.5449 11.9075 16.549 11.9011 16.5531C11.2276 16.9791 10.5685 16.8225 10.1583 16.616C10.0635 16.5682 9.97786 16.5164 9.90255 16.4653ZM3.5 20.8988C3.5 20.6158 3.7295 20.3865 4.0126 20.3865H8.18469C8.46779 20.3865 8.69729 20.6158 8.69729 20.8988C8.69729 21.1817 8.46779 21.4111 8.18469 21.4111H4.0126C3.7295 21.4111 3.5 21.1817 3.5 20.8988ZM15.6497 9.74746C15.7025 9.71726 15.7602 9.69734 15.82 9.68861C15.915 9.68393 16.0096 9.70431 16.0946 9.74797C16.1756 9.78959 16.245 9.85097 16.2965 9.92656L18.5522 14.5987C19.3029 16.6025 19.9485 18.6444 20.4864 20.7159C20.5265 20.9039 20.4917 21.0364 20.4683 21.0752C20.4356 21.1294 20.3911 21.1751 20.3384 21.2089C20.206 21.2805 20.0519 21.3001 19.906 21.2638C19.8554 21.2512 19.7745 21.2097 19.6611 21.0915C19.6575 21.0861 19.6478 21.0714 19.6328 21.0442C19.6066 20.9969 19.5779 20.9372 19.5497 20.873C19.522 20.8102 19.4983 20.7508 19.4814 20.7069C19.4731 20.6851 19.4666 20.6678 19.4625 20.6565L19.4597 20.6487L18.133 16.5786C18.0508 16.3263 17.8412 16.1363 17.582 16.0789C17.3228 16.0216 17.0526 16.1055 16.8715 16.2995L15.7719 17.4775C15.6423 17.6163 15.5703 17.799 15.5703 17.9888V20.6167C15.5703 20.8393 15.5678 20.9762 15.5449 21.0928C15.5258 21.1898 15.498 21.2387 15.4606 21.278L15.4471 21.2926C15.3845 21.362 15.3008 21.4073 15.2101 21.4223C14.8922 21.4149 14.7845 21.3214 14.7543 21.2922C14.7061 21.2459 14.6835 21.1926 14.6577 21.1157C14.6577 21.1154 14.6575 21.1149 14.6574 21.1141C14.6564 21.1092 14.6533 21.0942 14.6495 21.0668C14.6438 21.025 14.6393 20.9748 14.6361 20.9224C14.633 20.871 14.6314 20.8236 14.6307 20.7889C14.6303 20.7718 14.6302 20.7584 14.6301 20.7497L14.63 20.7399V20.7375C14.63 20.3646 14.6078 19.8729 14.5858 19.3868C14.5699 19.036 14.5541 18.688 14.547 18.39C14.5377 18.0044 14.5406 17.6739 14.5634 17.4246C14.5744 17.3043 14.5884 17.2219 14.6012 17.1709C14.7992 16.9542 15.3109 16.4501 15.8253 15.9522C16.0969 15.6893 16.3575 15.4393 16.5502 15.255C16.6466 15.1628 16.7259 15.0872 16.7811 15.0346L16.8671 14.9527C17.0971 14.7342 17.1647 14.3947 17.0357 14.1048L16.162 12.1415C16.0566 11.9045 15.8362 11.7389 15.5792 11.7035C15.3222 11.6681 15.0651 11.7679 14.8995 11.9675L13.4829 13.6744L11.0918 15.2908C11.0184 15.335 10.9546 15.3383 10.8332 15.2771C10.7671 15.2439 10.7063 15.1996 10.6601 15.1604C10.6381 15.1417 10.6221 15.1264 10.6133 15.1177L10.609 15.1134C10.5226 15.0129 10.474 14.8847 10.4722 14.7515C10.4821 14.6757 10.5151 14.6052 10.5662 14.5495C10.5817 14.5382 10.6123 14.5159 10.6636 14.4799C10.7405 14.4258 10.8425 14.3556 10.9623 14.2739C11.2016 14.111 11.5039 13.9081 11.8017 13.7094C12.0991 13.5109 12.3907 13.3174 12.6079 13.1735L12.9676 12.9357C13.0312 12.8938 13.088 12.8424 13.1361 12.7834L15.486 9.89871C15.4919 9.89146 15.4976 9.88411 15.5033 9.87665C15.543 9.82396 15.5929 9.78005 15.6497 9.74746Z" fill="#2D373D"/>
</svg>
