<svg width="16" height="17" viewBox="0 0 16 17" fill="none" xmlns="http://www.w3.org/2000/svg">
<path fill-rule="evenodd" clip-rule="evenodd" d="M9.43511 2.76482C9.59648 2.75338 9.75856 2.7737 9.91211 2.82466C10.0657 2.87562 10.2078 2.95625 10.3303 3.06205C10.4527 3.16785 10.5532 3.29675 10.6258 3.44147L11.6399 5.46075C12.0419 5.52715 12.4164 5.71695 12.7087 6.008C13.0779 6.37561 13.2857 6.87466 13.2857 7.39549V7.73163C13.4228 7.79225 13.5491 7.87789 13.6574 7.98571C13.889 8.21632 14.0195 8.52955 14.0195 8.85662V11.0483C14.0195 11.3754 13.889 11.6886 13.6574 11.9192C13.5491 12.027 13.4228 12.1127 13.2857 12.1733V12.5094C13.2857 13.0302 13.0779 13.5293 12.7087 13.8969C12.3395 14.2645 11.8393 14.4705 11.3182 14.4705H3.98069C3.45958 14.4705 2.95937 14.2645 2.59022 13.8969C2.22101 13.5293 2.01318 13.0302 2.01318 12.5094V7.39549C2.01318 6.87466 2.22101 6.37561 2.59022 6.008C2.92961 5.67009 3.37977 5.46865 3.85512 5.43836L8.97132 2.89139C9.11611 2.81928 9.27379 2.77625 9.43511 2.76482ZM12.7872 11.2789L12.7857 11.2789L12.7832 11.2789H10.9514C10.5968 11.2789 10.2571 11.1386 10.007 10.8896C9.75704 10.6407 9.61698 10.3035 9.61698 9.95246C9.61698 9.60138 9.75704 9.26424 10.007 9.01532C10.2571 8.76633 10.5968 8.62606 10.9514 8.62606H12.7858C12.8484 8.62606 12.9081 8.65088 12.9518 8.69436C12.9954 8.73777 13.0195 8.79618 13.0195 8.85662V11.0483C13.0195 11.1087 12.9954 11.1672 12.9518 11.2106C12.9085 11.2537 12.8494 11.2785 12.7872 11.2789ZM12.2857 12.2789V12.5094C12.2857 12.7636 12.1843 13.0079 12.0031 13.1883C11.8218 13.3688 11.5755 13.4705 11.3182 13.4705H3.98069C3.72339 13.4705 3.47706 13.3688 3.29579 13.1883C3.11459 13.0079 3.01318 12.7636 3.01318 12.5094V7.39549C3.01318 7.14129 3.11459 6.89706 3.29579 6.71664C3.47505 6.53816 3.71792 6.43664 3.97212 6.4344C3.97872 6.43452 3.98533 6.43451 3.99194 6.43437H11.3078C11.3143 6.43451 11.3208 6.43452 11.3273 6.43441C11.5813 6.43677 11.824 6.53827 12.0031 6.71664C12.1843 6.89706 12.2857 7.14129 12.2857 7.39549V7.62606H10.9514C10.333 7.62606 9.73943 7.87063 9.30148 8.30668C8.86346 8.74279 8.61698 9.33476 8.61698 9.95246C8.61698 10.5702 8.86346 11.1621 9.30148 11.5982C9.73943 12.0343 10.333 12.2789 10.9514 12.2789H12.2857ZM9.73214 3.89013L10.5076 5.43437H6.10703L9.41721 3.78648C9.44479 3.77274 9.4749 3.7645 9.50583 3.76231C9.53676 3.76012 9.56779 3.76402 9.59712 3.77376C9.62645 3.78349 9.65344 3.79884 9.67658 3.81883C9.69971 3.83881 9.7186 3.86314 9.73214 3.89013Z" fill="#2D373D"/>
<path fill-rule="evenodd" clip-rule="evenodd" d="M10.9514 9.26983C10.7708 9.26983 10.5972 9.34122 10.4689 9.469C10.3405 9.59685 10.2679 9.77072 10.2679 9.95247C10.2679 10.088 10.3083 10.2202 10.3837 10.3326C10.459 10.4448 10.5659 10.532 10.6905 10.5834C10.8151 10.6348 10.9521 10.6482 11.0843 10.6221C11.2164 10.5959 11.3381 10.5312 11.4339 10.4359C11.5296 10.3406 11.5951 10.2189 11.6216 10.0861C11.6481 9.95321 11.6345 9.81553 11.5825 9.69052C11.5305 9.56554 11.4426 9.45907 11.3302 9.38431C11.2179 9.30958 11.0861 9.26983 10.9514 9.26983Z" fill="#2D373D"/>
</svg>
