<svg width="32" height="33" viewBox="0 0 32 33" fill="none" xmlns="http://www.w3.org/2000/svg">
<path d="M23.1 5.06055C20.9 3.76055 18.5 3.06055 16 3.06055C15.9 3.06055 15.9 3.06055 15.9 3.06055C8.6 3.06055 2.6 9.06055 2.6 16.3605C2.6 18.7605 3.2 21.0605 4.4 23.0605L2.6 28.5605C2.5 28.8605 2.6 29.2605 2.9 29.5605C3.1 29.7605 3.3 29.8605 3.6 29.8605C3.7 29.8605 3.9 29.8605 4 29.7605L9.4 27.9605C15.6 31.5605 23.6 29.5605 27.4 23.4605C31.3 17.2605 29.4 8.96055 23.1 5.06055ZM25.6 22.4605C22.3 27.7605 15.3 29.3605 10 26.0605C9.9 25.9605 9.7 25.8605 9.5 25.8605C9.3 25.8605 9.2 25.9605 9.2 25.9605L5.2 27.2605L6.4 23.1605C6.5 22.8605 6.5 22.5605 6.3 22.3605C5.2 20.5605 4.6 18.4605 4.6 16.3605C4.6 10.1605 9.7 5.06055 16 5.06055C18.1 5.06055 20.2 5.66055 22 6.76055C27.3 10.0605 28.9 17.1605 25.6 22.4605Z" fill="#2D373D"/>
<path d="M19.3001 12.2607L14.6001 18.5607L11.8001 15.7607C11.4001 15.3607 10.8001 15.3607 10.4001 15.7607C10.0001 16.1607 10.0001 16.7607 10.4001 17.1607L14.0001 20.7607C14.2001 20.9607 14.4001 21.0607 14.7001 21.0607C15.0001 21.0607 15.3001 20.9607 15.5001 20.6607L20.9001 13.4607C21.2001 13.0607 21.1001 12.3607 20.7001 12.0607C20.3001 11.7607 19.6001 11.8607 19.3001 12.2607Z" fill="#2D373D"/>
</svg>
