<svg width="16" height="17" viewBox="0 0 16 17" fill="none" xmlns="http://www.w3.org/2000/svg">
<path d="M13.5003 9.06018H12.2003V8.81018C12.2003 8.11018 11.6503 7.56018 10.9503 7.56018H10.2003C9.50034 7.56018 8.95034 8.11018 8.95034 8.81018V9.06018H7.60034C7.30034 9.06018 7.10034 9.26018 7.10034 9.56018V13.9602C7.10034 14.2602 7.30034 14.4602 7.60034 14.4602H13.5003C13.8003 14.4602 14.0003 14.2602 14.0003 13.9602V9.56018C14.0003 9.26018 13.8003 9.06018 13.5003 9.06018ZM9.90034 8.81018C9.90034 8.66018 10.0003 8.56018 10.1503 8.56018H10.9003C11.0503 8.56018 11.1503 8.66018 11.1503 8.81018V9.06018H9.90034V8.81018ZM13.0003 10.0602V10.5102H8.10034V10.0602H13.0003ZM8.10034 13.4602V11.5102H10.0503V11.7602C10.0503 12.0602 10.2503 12.2602 10.5503 12.2602C10.8503 12.2602 11.0503 12.0602 11.0503 11.7602V11.5102H13.0003V13.4602H8.10034Z" fill="#2D373D"/>
<path d="M7.0502 7.51016C6.7002 6.86016 6.1502 6.46016 5.4502 6.21016C6.1502 5.91016 6.6502 5.21016 6.6502 4.41016C6.6502 3.86016 6.4502 3.36016 6.0502 3.01016C5.6502 2.61016 5.2002 2.41016 4.6502 2.41016C3.5502 2.41016 2.7002 3.31016 2.7002 4.36016C2.7002 4.91016 2.9002 5.41016 3.2502 5.76016C3.4502 5.96016 3.6502 6.11016 3.8502 6.21016C3.7002 6.26016 3.5002 6.36016 3.3502 6.41016C2.5002 6.86016 1.9502 7.76016 1.9502 8.76016V10.2602C1.9502 10.5602 2.1502 10.7602 2.4502 10.7602H2.7502L3.0502 14.0102C3.1002 14.2602 3.3002 14.4602 3.5502 14.4602H5.7502C6.0502 14.4602 6.2502 14.2602 6.2502 14.0102L6.5002 11.5102C6.5502 11.2102 6.3002 11.0102 6.0502 10.9602C5.7502 10.9602 5.5502 11.1602 5.5002 11.4102L5.3002 13.5102H4.0002L3.7002 10.2602C3.6502 10.0102 3.4502 9.81016 3.2002 9.81016H2.9502V8.81016C2.9502 8.21016 3.3002 7.61016 3.8502 7.31016C3.9502 7.26016 4.0502 7.21016 4.1502 7.21016V8.81016C4.1502 9.11016 4.3502 9.31016 4.6502 9.31016C4.9502 9.31016 5.1502 9.11016 5.1502 8.81016V7.16016C5.6002 7.31016 5.9502 7.56016 6.1502 8.01016C6.3002 8.26016 6.60019 8.36016 6.85019 8.21016C7.10019 8.06016 7.2002 7.76016 7.0502 7.51016ZM3.6502 4.36016C3.7002 3.81016 4.1002 3.41016 4.6502 3.41016C4.9002 3.41016 5.1502 3.51016 5.4002 3.66016C5.6002 3.86016 5.7002 4.11016 5.7002 4.36016C5.7002 4.91016 5.2502 5.36016 4.7002 5.36016C4.4502 5.36016 4.2002 5.26016 4.0002 5.06016C3.8002 4.86016 3.7002 4.61016 3.6502 4.36016Z" fill="#2D373D"/>
</svg>
