<svg width="16" height="17" viewBox="0 0 16 17" fill="none" xmlns="http://www.w3.org/2000/svg">
<path d="M9.45 5.16174H5.75C5.45 5.16174 5.25 5.36174 5.25 5.66174C5.25 5.96174 5.45 6.16174 5.75 6.16174H9.45C9.75 6.16174 9.95 5.96174 9.95 5.66174C9.95 5.36174 9.75 5.16174 9.45 5.16174Z" fill="#2D373D"/>
<path d="M9.45 7.86169H5.75C5.45 7.86169 5.25 8.06169 5.25 8.36169C5.25 8.66169 5.45 8.86169 5.75 8.86169H9.45C9.75 8.86169 9.95 8.66169 9.95 8.36169C9.95 8.06169 9.75 7.86169 9.45 7.86169Z" fill="#2D373D"/>
<path d="M9.45 10.7117H5.75C5.45 10.7117 5.25 10.9117 5.25 11.2117C5.25 11.5117 5.45 11.7117 5.75 11.7117H9.45C9.75 11.7117 9.95 11.5117 9.95 11.2117C9.95 10.9117 9.75 10.7117 9.45 10.7117Z" fill="#2D373D"/>
<path d="M12.9999 1.76172H5.54993C4.34993 1.76172 3.39993 2.71172 3.39993 3.91172V12.1617C3.39993 13.5117 2.79993 13.8617 2.04993 14.1617C1.84993 14.2617 1.69993 14.4617 1.74993 14.7117C1.79993 14.9617 1.99993 15.1117 2.24993 15.1117H8.84993C10.4999 15.1117 11.7999 13.8117 11.7999 12.1617V6.46172H13.2499C13.8499 6.46172 14.2999 6.01172 14.2999 5.41172V3.06172C14.2999 2.36172 13.7499 1.76172 12.9999 1.76172ZM10.7999 12.1617C10.7999 13.2117 9.94993 14.1117 8.84993 14.1117H3.84993C4.19992 13.7117 4.39993 13.0617 4.39993 12.1617V3.91172C4.39993 3.26172 4.89993 2.76172 5.54993 2.76172H10.8499C10.8499 2.86172 10.7999 2.96172 10.7999 3.06172V12.1617ZM13.2999 5.41172C13.2999 5.46172 13.2999 5.46172 13.2499 5.46172H11.7999V3.06172C11.7999 2.91172 11.9499 2.76172 12.1499 2.76172H12.9999C13.1499 2.76172 13.2999 2.86172 13.2999 3.06172V5.41172Z" fill="#2D373D"/>
</svg>
