<svg width="16" height="16" viewBox="0 0 16 16" fill="none" xmlns="http://www.w3.org/2000/svg">
<path d="M12.4796 13.1872C12.6749 13.3825 12.9915 13.3825 13.1867 13.1872C13.382 12.9919 13.382 12.6754 13.1867 12.4801L8.70694 8.00033L13.1867 3.52055C13.382 3.32528 13.382 3.0087 13.1867 2.81344C12.9915 2.61818 12.6749 2.61818 12.4796 2.81344L7.99984 7.29322L3.52006 2.81344C3.32479 2.61818 3.00821 2.61818 2.81295 2.81344C2.61769 3.0087 2.61769 3.32528 2.81295 3.52055L7.29273 8.00033L2.81295 12.4801C2.61769 12.6754 2.61769 12.9919 2.81295 13.1872C3.00821 13.3825 3.3248 13.3825 3.52006 13.1872L7.99984 8.70743L12.4796 13.1872Z" fill="#2D373D"/>
</svg>
