<svg width="16" height="17" viewBox="0 0 16 17" fill="none" xmlns="http://www.w3.org/2000/svg">
<path fill-rule="evenodd" clip-rule="evenodd" d="M13.333 1.79492C13.6091 1.79492 13.833 2.01878 13.833 2.29492V8.46159C13.833 8.49352 13.83 8.52476 13.8243 8.55503C13.9887 8.62009 14.1428 8.71912 14.2758 8.85211C14.7965 9.37281 14.7965 10.217 14.2758 10.7377C14.1452 10.8684 13.9942 10.9662 13.833 11.0313V13.5616C13.833 13.5616 13.833 13.5616 13.333 13.5616H13.833L13.833 13.5627L13.833 13.5639L13.833 13.5667L13.8329 13.5735L13.8324 13.5918C13.8319 13.606 13.8309 13.6244 13.8292 13.6464C13.8258 13.6901 13.8193 13.7489 13.8067 13.8179C13.7819 13.9539 13.7314 14.1418 13.6259 14.3348C13.5188 14.5307 13.3528 14.7351 13.1011 14.8885C12.8482 15.0427 12.5368 15.1283 12.1663 15.1283C11.7959 15.1283 11.4845 15.0427 11.2316 14.8885C10.9798 14.7351 10.8139 14.5307 10.7068 14.3348C10.6012 14.1418 10.5508 13.9539 10.526 13.8179C10.5134 13.7489 10.5069 13.6901 10.5035 13.6464C10.5018 13.6244 10.5008 13.606 10.5003 13.5918L10.4998 13.5735L10.4997 13.5667L10.4997 13.5639L10.4997 13.5627C10.4997 13.5627 10.4997 13.5616 10.9997 13.5616L10.4997 13.5616V12.7949C10.4997 12.5188 10.7235 12.2949 10.9997 12.2949C11.2758 12.2949 11.4997 12.5188 11.4997 12.7949V13.5565C11.4997 13.5565 11.4998 13.5593 11.4999 13.5615C11.5001 13.5634 11.5002 13.5658 11.5004 13.5685C11.5016 13.5831 11.5042 13.6077 11.5098 13.6386C11.5215 13.7026 11.5439 13.7814 11.5842 13.855C11.6229 13.9258 11.6758 13.9881 11.7521 14.0346C11.8274 14.0805 11.9535 14.1283 12.1663 14.1283C12.3792 14.1283 12.5053 14.0805 12.5806 14.0346C12.6569 13.9881 12.7098 13.9258 12.7485 13.855C12.7887 13.7814 12.8112 13.7026 12.8229 13.6386C12.8285 13.6077 12.8311 13.5831 12.8322 13.5685L12.8326 13.5635L12.833 13.5565V11.0313C12.6719 10.9662 12.5208 10.8684 12.3902 10.7377C11.8695 10.217 11.8695 9.37281 12.3902 8.85211C12.5232 8.71912 12.6773 8.62009 12.8417 8.55503C12.836 8.52476 12.833 8.49352 12.833 8.46159V2.29492C12.833 2.01878 13.0569 1.79492 13.333 1.79492ZM13.5687 9.55922C13.6989 9.68939 13.6989 9.90045 13.5687 10.0306C13.4385 10.1608 13.2275 10.1608 13.0973 10.0306C12.9671 9.90045 12.9671 9.68939 13.0973 9.55922C13.2275 9.42904 13.4385 9.42904 13.5687 9.55922Z" fill="#2D373D"/>
<path d="M8.3108 8.898C8.52949 9.11669 8.88407 9.11669 9.10276 8.898C9.32145 8.6793 9.32145 8.32473 9.10276 8.10604C8.88407 7.88734 8.52949 7.88734 8.3108 8.10604C8.09211 8.32473 8.09211 8.6793 8.3108 8.898Z" fill="#2D373D"/>
<path fill-rule="evenodd" clip-rule="evenodd" d="M2.08107 10.3957C2.49751 10.1578 2.97434 9.8105 3.46566 9.44319C3.5678 9.36684 3.67092 9.28934 3.77496 9.21115L3.94385 9.08428C4.11357 9.20824 4.28587 9.33184 4.45936 9.4526C5.01859 9.84183 5.60856 10.2146 6.19662 10.4911C6.78089 10.7659 7.39632 10.9615 7.99967 10.9615C8.78477 10.9615 9.55503 10.67 10.133 10.2366C10.6984 9.81251 11.1663 9.18169 11.1663 8.46155C11.1663 7.74144 10.6984 7.11063 10.133 6.68658C9.55504 6.25311 8.78478 5.96159 7.99967 5.96159C7.39632 5.96159 6.78088 6.15726 6.19662 6.43199C5.60856 6.70851 5.01859 7.08132 4.45936 7.47055C4.28586 7.59131 4.11357 7.71492 3.94385 7.83888L3.77586 7.71269C3.67152 7.63427 3.5681 7.55655 3.46566 7.47997C2.97434 7.11268 2.49751 6.76542 2.08107 6.52746C1.92632 6.43904 1.7362 6.43967 1.58204 6.52913C1.42789 6.6186 1.33301 6.78335 1.33301 6.96159V9.96159C1.33301 10.1398 1.42789 10.3046 1.58204 10.394C1.7362 10.4835 1.92632 10.4841 2.08107 10.3957ZM2.86691 8.64226C2.94575 8.58332 3.02612 8.52298 3.10782 8.46158C3.02612 8.40019 2.94576 8.33985 2.86691 8.28091C2.67921 8.14059 2.50111 8.00896 2.33301 7.88854V9.03463C2.50111 8.91421 2.67921 8.78258 2.86691 8.64226ZM5.03063 8.63183C4.94983 8.5756 4.86939 8.51878 4.78933 8.46158C4.86939 8.40437 4.94983 8.34755 5.03063 8.29132C5.57019 7.91577 6.10756 7.57891 6.62214 7.33694C7.14052 7.09319 7.60303 6.96159 7.99967 6.96159C8.5479 6.96159 9.11098 7.17007 9.53301 7.48659C9.9676 7.81253 10.1663 8.1817 10.1663 8.46155C10.1663 8.74145 9.9676 9.11062 9.53301 9.43656C9.11098 9.75307 8.54791 9.96154 7.99967 9.96154C7.60302 9.96154 7.14051 9.82993 6.62213 9.58619C6.10755 9.34423 5.57018 9.00737 5.03063 8.63183Z" fill="#2D373D"/>
</svg>
