<svg width="32" height="33" viewBox="0 0 32 33" fill="none" xmlns="http://www.w3.org/2000/svg">
<path d="M13.5343 6.8754C12.9793 6.8754 12.5293 7.32537 12.5293 7.88043C12.5293 8.43549 12.9793 8.88545 13.5343 8.88545H18.4655C19.0205 8.88545 19.4705 8.43549 19.4705 7.88043C19.4705 7.32537 19.0205 6.8754 18.4655 6.8754H13.5343Z" fill="#2D373D"/>
<path d="M18.4638 21.6694C17.9087 21.6694 17.4588 22.1194 17.4588 22.6744C17.4588 23.2295 17.9087 23.6795 18.4638 23.6795H21.7512C22.3063 23.6795 22.7562 23.2295 22.7562 22.6744C22.7562 22.1194 22.3063 21.6694 21.7512 21.6694H18.4638Z" fill="#2D373D"/>
<path d="M9.24085 22.6744C9.24085 22.1194 9.6908 21.6694 10.2458 21.6694H13.5333C14.0883 21.6694 14.5383 22.1194 14.5383 22.6744C14.5383 23.2295 14.0883 23.6795 13.5333 23.6795H10.2458C9.6908 23.6795 9.24085 23.2295 9.24085 22.6744Z" fill="#2D373D"/>
<path fill-rule="evenodd" clip-rule="evenodd" d="M5.95499 10.5292V23.7703C5.95499 24.971 6.61701 26.0172 7.59595 26.5636V27.6058C7.59595 28.3083 7.87501 28.982 8.37174 29.4787C8.86847 29.9755 9.54219 30.2546 10.2447 30.2546C10.9472 30.2546 11.6209 29.9755 12.1176 29.4787C12.6143 28.982 12.8934 28.3083 12.8934 27.6058V26.967H19.1024V27.6058C19.1024 28.3083 19.3814 28.982 19.8782 29.4787C20.3749 29.9755 21.0486 30.2546 21.7511 30.2546C22.4536 30.2546 23.1273 29.9755 23.624 29.4787C24.1207 28.982 24.3998 28.3083 24.3998 27.6058V26.5664C25.3815 26.0208 26.0459 24.9731 26.0459 23.7703V10.5292H26.6845C26.8539 10.5292 27.0163 10.5965 27.1361 10.7163C27.2559 10.8361 27.3232 10.9986 27.3232 11.168V14.4555C27.3232 15.0106 27.7731 15.4606 28.3282 15.4606C28.8832 15.4606 29.3332 15.0106 29.3332 14.4555V11.168C29.3332 10.4655 29.0541 9.79176 28.5574 9.29502C28.0607 8.79827 27.3869 8.5192 26.6845 8.5192H26.0459V6.78461C26.0459 5.01912 24.6147 3.58789 22.8493 3.58789H9.1516C7.38616 3.58789 5.95499 5.01912 5.95499 6.78461V8.5192H5.31522C4.61273 8.5192 3.93902 8.79827 3.44229 9.29502C2.94556 9.79176 2.6665 10.4655 2.6665 11.168V14.4555C2.6665 15.0106 3.11646 15.4606 3.6715 15.4606C4.22654 15.4606 4.67649 15.0106 4.67649 14.4555V11.168C4.67649 10.9986 4.74379 10.8361 4.86357 10.7163C4.98336 10.5965 5.14582 10.5292 5.31522 10.5292H5.95499ZM7.96498 6.78461C7.96498 6.12923 8.49625 5.59794 9.1516 5.59794H22.8493C23.5046 5.59794 24.0359 6.12923 24.0359 6.78461V9.50724L24.0357 9.52422L24.0359 9.54121V18.3818H7.96498V6.78461ZM7.96498 20.3919H24.0359V23.7703C24.0359 24.309 23.6769 24.7639 23.185 24.9088C23.1577 24.9146 23.1308 24.9215 23.1043 24.9295C23.0221 24.9475 22.9368 24.9569 22.8493 24.9569H9.1516C9.05523 24.9569 8.96154 24.9454 8.87183 24.9238C8.85967 24.9204 8.84742 24.9172 8.83508 24.9142C8.33339 24.7757 7.96498 24.316 7.96498 23.7703V20.3919ZM10.8834 26.967H9.60595V27.6058C9.60595 27.7752 9.67324 27.9376 9.79302 28.0574C9.91281 28.1772 10.0753 28.2445 10.2447 28.2445C10.4141 28.2445 10.5765 28.1772 10.6963 28.0574C10.8161 27.9376 10.8834 27.7752 10.8834 27.6058V26.967ZM21.1124 26.967V27.6058C21.1124 27.7752 21.1797 27.9376 21.2994 28.0574C21.4192 28.1772 21.5817 28.2445 21.7511 28.2445C21.9205 28.2445 22.0829 28.1772 22.2027 28.0574C22.3225 27.9376 22.3898 27.7752 22.3898 27.6058V26.967H21.1124Z" fill="#2D373D"/>
</svg>
