<svg width="16" height="17" viewBox="0 0 16 17" fill="none" xmlns="http://www.w3.org/2000/svg">
<path d="M12 10.0859H10.14C9.82351 10.0859 9.51998 10.2117 9.29619 10.4355C9.07239 10.6592 8.94667 10.9628 8.94667 11.2793V12.6926C8.94867 12.7185 8.94504 12.7445 8.93603 12.7689C8.92702 12.7933 8.91285 12.8154 8.89448 12.8338C8.87611 12.8521 8.85399 12.8663 8.82962 12.8753C8.80526 12.8843 8.77923 12.8879 8.75333 12.8859H5.24L5.33333 12.8259C5.38051 12.78 5.418 12.725 5.44359 12.6643C5.46919 12.6037 5.48238 12.5385 5.48238 12.4726C5.48238 12.4067 5.46919 12.3415 5.44359 12.2809C5.418 12.2202 5.38051 12.1652 5.33333 12.1193C5.23958 12.0256 5.1125 11.973 4.98 11.973C4.8475 11.973 4.72042 12.0256 4.62667 12.1193L3.64667 13.0659C3.59742 13.1155 3.55942 13.1751 3.53526 13.2407C3.51111 13.3063 3.50135 13.3763 3.50667 13.4459C3.50179 13.5156 3.51174 13.5855 3.53588 13.651C3.56001 13.7165 3.59777 13.7761 3.64667 13.8259L4.59333 14.7726C4.6395 14.8193 4.69453 14.8564 4.7552 14.8816C4.81588 14.9068 4.88097 14.9196 4.94667 14.9193C5.01793 14.9247 5.08953 14.9144 5.15635 14.8891C5.22318 14.8637 5.28361 14.8239 5.33333 14.7726C5.38051 14.7266 5.418 14.6717 5.44359 14.611C5.46919 14.5503 5.48238 14.4851 5.48238 14.4193C5.48238 14.3534 5.46919 14.2882 5.44359 14.2275C5.418 14.1668 5.38051 14.1119 5.33333 14.0659L5.15333 13.8859H8.78667C9.10303 13.8839 9.40638 13.7597 9.63333 13.5393C9.74427 13.4281 9.83203 13.296 9.89154 13.1507C9.95105 13.0054 9.98112 12.8496 9.98 12.6926V11.2793C9.97921 11.2539 9.9842 11.2288 9.9946 11.2057C10.005 11.1826 10.0205 11.1621 10.04 11.1459C10.0568 11.1272 10.0773 11.1121 10.1003 11.1018C10.1233 11.0915 10.1481 11.0861 10.1733 11.0859H12C12.1326 11.0859 12.2598 11.0333 12.3536 10.9395C12.4473 10.8457 12.5 10.7185 12.5 10.5859C12.5 10.4533 12.4473 10.3262 12.3536 10.2324C12.2598 10.1386 12.1326 10.0859 12 10.0859Z" fill="#2D373D"/>
<path d="M4.22667 10.813C4.33997 10.8714 4.46587 10.9012 4.59333 10.8997C4.72285 10.9004 4.85073 10.8707 4.96667 10.813C5.08108 10.7558 5.18129 10.6738 5.26 10.573C6.13333 9.45965 7.17333 7.90632 7.17333 6.96632C7.17239 6.28202 6.90171 5.62568 6.42 5.13965C5.92544 4.67465 5.27216 4.41577 4.59333 4.41577C3.9145 4.41577 3.26122 4.67465 2.76667 5.13965C2.52453 5.37838 2.3321 5.66272 2.20051 5.97626C2.06892 6.28979 2.00077 6.62629 2 6.96632C2 7.92632 3.04 9.45965 3.91333 10.573C3.99687 10.6771 4.10438 10.7595 4.22667 10.813ZM3.47333 5.84632C3.69432 5.62423 3.97634 5.47285 4.28357 5.41143C4.59079 5.35 4.90934 5.3813 5.19873 5.50134C5.48812 5.62139 5.7353 5.82476 5.90883 6.08561C6.08237 6.34646 6.17444 6.65302 6.17333 6.96632C6.17333 7.43965 5.56 8.54632 4.59333 9.79965C3.62667 8.54632 3.01333 7.44632 3.01333 6.96632C3.01403 6.54714 3.17921 6.14498 3.47333 5.84632Z" fill="#2D373D"/>
<path d="M4.6 7.32632C4.87614 7.32632 5.1 7.10246 5.1 6.82632C5.1 6.55018 4.87614 6.32632 4.6 6.32632C4.32386 6.32632 4.1 6.55018 4.1 6.82632C4.1 7.10246 4.32386 7.32632 4.6 7.32632Z" fill="#2D373D"/>
<path d="M11.4533 8.88632C11.5547 8.94483 11.6696 8.97564 11.7867 8.97564C11.9037 8.97564 12.0187 8.94483 12.12 8.88632C12.2168 8.83077 12.299 8.7531 12.36 8.65965C13.1 7.51299 14 5.96632 14 5.13299C13.9988 4.83863 13.9393 4.54744 13.8249 4.27623C13.7104 4.00503 13.5434 3.75921 13.3333 3.55299C12.9071 3.14781 12.3414 2.92188 11.7533 2.92188C11.1652 2.92188 10.5996 3.14781 10.1733 3.55299C9.96329 3.75921 9.79622 4.00503 9.68179 4.27623C9.56736 4.54744 9.50784 4.83863 9.50667 5.13299C9.50667 5.96632 10.4133 7.51299 11.18 8.65965C11.2503 8.75724 11.3444 8.83526 11.4533 8.88632ZM10.9 4.25965C11.0725 4.08667 11.2925 3.96881 11.532 3.92101C11.7716 3.87322 12.02 3.89765 12.2456 3.9912C12.4713 4.08475 12.6641 4.24321 12.7996 4.44649C12.9351 4.64977 13.0072 4.8887 13.0067 5.13299C12.7576 6.05534 12.3394 6.9234 11.7733 7.69299C11.2072 6.9234 10.789 6.05534 10.54 5.13299C10.5397 4.9709 10.5713 4.81034 10.6331 4.66049C10.6948 4.51064 10.7856 4.37443 10.9 4.25965Z" fill="#2D373D"/>
<path d="M11.7933 5.68632C12.0695 5.68632 12.2933 5.46246 12.2933 5.18632C12.2933 4.91018 12.0695 4.68632 11.7933 4.68632C11.5172 4.68632 11.2933 4.91018 11.2933 5.18632C11.2933 5.46246 11.5172 5.68632 11.7933 5.68632Z" fill="#2D373D"/>
</svg>
