<svg width="24" height="25" viewBox="0 0 24 25" fill="none" xmlns="http://www.w3.org/2000/svg">
<path fill-rule="evenodd" clip-rule="evenodd" d="M16.6908 3.94339H4.60105C4.39602 3.94206 4.1927 3.98087 4.00255 4.05765C3.8112 4.13491 3.63694 4.2491 3.48973 4.39371C3.34251 4.53832 3.22522 4.71052 3.14455 4.90046C3.06389 5.0904 3.02139 5.29437 3.01956 5.50072L3.01953 15.422L3.01959 15.4286C3.02327 15.8449 3.19122 16.2429 3.48688 16.5359C3.78253 16.8289 4.18199 16.9933 4.59825 16.9933H9.26955C9.68376 16.9933 10.0195 16.6575 10.0195 16.2433C10.0195 15.8291 9.68376 15.4933 9.26955 15.4933H4.5982C4.57745 15.4933 4.55755 15.4851 4.54282 15.4705C4.52845 15.4563 4.52014 15.4371 4.51956 15.4169V8.92627H16.8745C17.0053 9.14608 17.2452 9.29337 17.5195 9.29337C17.9337 9.29337 18.2695 8.95758 18.2695 8.54337L18.2695 8.18795L18.2696 8.17627L18.2695 8.1646L18.2696 5.51472L18.2695 5.50808C18.2658 5.09182 18.0979 4.69386 17.8022 4.40082C17.5066 4.10779 17.1071 3.94338 16.6908 3.94339ZM16.7695 7.42627H4.51956V5.51254C4.51983 5.50369 4.52174 5.49496 4.5252 5.48681C4.52887 5.47818 4.53419 5.47037 4.54087 5.4638C4.54755 5.45724 4.55547 5.45206 4.56415 5.44855C4.57284 5.44504 4.58213 5.44331 4.5915 5.44339H16.6909C16.7116 5.44339 16.7315 5.45158 16.7463 5.46619C16.7606 5.48043 16.769 5.49964 16.7695 5.51982V7.42627Z" fill="#2D373D"/>
<path d="M16.6196 14.593C16.6196 14.1788 16.2838 13.843 15.8696 13.843C15.4554 13.843 15.1196 14.1788 15.1196 14.593V17.343C15.1196 17.7572 15.4554 18.093 15.8696 18.093H17.3656C17.7798 18.093 18.1156 17.7572 18.1156 17.343C18.1156 16.9288 17.7798 16.593 17.3656 16.593H16.6196V14.593Z" fill="#2D373D"/>
<path fill-rule="evenodd" clip-rule="evenodd" d="M16.6196 11.4934H17.5196C17.9338 11.4934 18.2696 11.1576 18.2696 10.7434C18.2696 10.3292 17.9338 9.99341 17.5196 9.99341H14.2196C13.8054 9.99341 13.4696 10.3292 13.4696 10.7434C13.4696 11.1576 13.8054 11.4934 14.2196 11.4934H15.1196V11.6975C12.6308 12.0606 10.7196 14.2038 10.7196 16.7933C10.7196 19.6375 13.0253 21.9433 15.8696 21.9433C18.7139 21.9433 21.0196 19.6375 21.0196 16.7933C21.0196 14.2038 19.1084 12.0607 16.6196 11.6975V11.4934ZM15.8696 13.1434L15.8591 13.1433C13.8481 13.149 12.2196 14.781 12.2196 16.7933C12.2196 18.8091 13.8538 20.4433 15.8696 20.4433C17.8854 20.4433 19.5196 18.8091 19.5196 16.7933C19.5196 14.781 17.8911 13.149 15.8802 13.1433L15.8696 13.1434Z" fill="#2D373D"/>
</svg>
