<svg width="32" height="32" viewBox="0 0 32 32" fill="none" xmlns="http://www.w3.org/2000/svg">
<path d="M8.50011 16.1C9.10011 16.1 9.50011 15.7 9.50011 15.1V13.5C9.50011 12.9 9.10011 12.5 8.50011 12.5C7.90011 12.5 7.50011 12.9 7.50011 13.5V15.1C7.50011 15.7 7.90011 16.1 8.50011 16.1Z" fill="#2D373D"/>
<path d="M13.5001 16.1C14.1001 16.1 14.5001 15.7 14.5001 15.1V13.5C14.5001 12.9 14.1001 12.5 13.5001 12.5C12.9001 12.5 12.5001 12.9 12.5001 13.5V15.1C12.5001 15.7 12.9001 16.1 13.5001 16.1Z" fill="#2D373D"/>
<path d="M18.4001 16.1C19.0001 16.1 19.4001 15.7 19.4001 15.1V13.5C19.4001 12.9 19.0001 12.5 18.4001 12.5C17.8001 12.5 17.4001 12.9 17.4001 13.5V15.1C17.4001 15.7 17.8001 16.1 18.4001 16.1Z" fill="#2D373D"/>
<path d="M23.4001 16.1C23.9001 16.1 24.4001 15.7 24.4001 15.1V13.5C24.4001 12.9 24.0001 12.5 23.4001 12.5C22.8001 12.5 22.4001 12.9 22.4001 13.5V15.1C22.4001 15.7 22.8001 16.1 23.4001 16.1Z" fill="#2D373D"/>
<path d="M8.50011 21.1C9.10011 21.1 9.50011 20.7 9.50011 20.1V18.4C9.50011 17.8 9.10011 17.4 8.50011 17.4C7.90011 17.4 7.50011 17.8 7.50011 18.4V20.1C7.50011 20.7 7.90011 21.1 8.50011 21.1Z" fill="#2D373D"/>
<path d="M13.5001 21.1C14.1001 21.1 14.5001 20.7 14.5001 20.1V18.4C14.5001 17.8 14.1001 17.4 13.5001 17.4C12.9001 17.4 12.5001 17.8 12.5001 18.4V20.1C12.5001 20.7 12.9001 21.1 13.5001 21.1Z" fill="#2D373D"/>
<path d="M18.4001 21.1C19.0001 21.1 19.4001 20.7 19.4001 20.1V18.4C19.4001 17.8 19.0001 17.4 18.4001 17.4C17.8001 17.4 17.4001 17.8 17.4001 18.4V20.1C17.4001 20.7 17.8001 21.1 18.4001 21.1Z" fill="#2D373D"/>
<path d="M23.4001 21.1C23.9001 21.1 24.4001 20.7 24.4001 20.1V18.4C24.4001 17.8 24.0001 17.4 23.4001 17.4C22.8001 17.4 22.4001 17.8 22.4001 18.4V20.1C22.4001 20.7 22.8001 21.1 23.4001 21.1Z" fill="#2D373D"/>
<path d="M28.4001 9.19998H27.5001L26.4001 4.59998C26.1001 3.39998 25.0001 2.59998 23.8001 2.59998H8.2001C7.0001 2.59998 5.9001 3.39998 5.6001 4.59998L4.5001 9.19998H3.6001C3.0001 9.19998 2.6001 9.59998 2.6001 10.2C2.6001 10.8 3.0001 11.2 3.6001 11.2H4.2001V28.3C4.2001 28.9 4.6001 29.3 5.2001 29.3H26.7001C27.3001 29.3 27.7001 28.9 27.6001 28.3V11.2H28.3001C28.9001 11.2 29.4001 10.8 29.4001 10.2C29.4001 9.59998 29.0001 9.19998 28.4001 9.19998ZM7.6001 5.09998C7.6001 4.79998 7.9001 4.59998 8.2001 4.59998H23.8001C24.1001 4.59998 24.3001 4.79998 24.4001 5.09998L25.4001 9.19998H6.5001L7.6001 5.09998ZM14.5001 27.3V25C14.5001 24.6 14.7001 24.3 15.1001 24.3H16.8001C17.1001 24.3 17.4001 24.6 17.4001 25V27.3H14.5001ZM25.6001 27.3H19.4001V25C19.4001 23.5 18.2001 22.3 16.7001 22.3H15.1001C13.7001 22.3 12.5001 23.5 12.5001 25V27.3H6.2001V11.2H25.6001V27.3Z" fill="#2D373D"/>
<path d="M8.50011 26C9.10011 26 9.50011 25.6 9.50011 25V23.3C9.50011 22.7 9.10011 22.3 8.50011 22.3C7.90011 22.3 7.50011 22.7 7.50011 23.3V25C7.50011 25.6 7.90011 26 8.50011 26Z" fill="#2D373D"/>
<path d="M23.4001 26C23.9001 26 24.4001 25.6 24.4001 25V23.3C24.4001 22.7 24.0001 22.3 23.4001 22.3C22.8001 22.3 22.4001 22.7 22.4001 23.3V25C22.4001 25.6 22.8001 26 23.4001 26Z" fill="#2D373D"/>
</svg>
