<svg width="16" height="17" viewBox="0 0 16 17" fill="none" xmlns="http://www.w3.org/2000/svg">
<path d="M10.4172 6.20329C10.6125 6.39855 10.6125 6.71513 10.4172 6.9104L8.78664 8.54099L10.4172 10.1715C10.6125 10.3668 10.6125 10.6834 10.4172 10.8787C10.2219 11.0739 9.90535 11.0739 9.71009 10.8787L8.07953 9.24809L6.44897 10.8787C6.25371 11.0739 5.93713 11.0739 5.74186 10.8787C5.5466 10.6834 5.5466 10.3668 5.74186 10.1715L7.37242 8.54099L5.74183 6.9104C5.54657 6.71513 5.54657 6.39855 5.74183 6.20329C5.93709 6.00803 6.25368 6.00803 6.44894 6.20329L8.07953 7.83388L9.71012 6.20329C9.90538 6.00803 10.222 6.00803 10.4172 6.20329Z" fill="#2D373D"/>
<path fill-rule="evenodd" clip-rule="evenodd" d="M8.00016 15.1283C11.6821 15.1283 14.6668 12.1435 14.6668 8.46159C14.6668 4.77969 11.6821 1.79492 8.00016 1.79492C4.31826 1.79492 1.3335 4.77969 1.3335 8.46159C1.3335 12.1435 4.31826 15.1283 8.00016 15.1283ZM8.00016 14.1283C11.1298 14.1283 13.6668 11.5912 13.6668 8.46159C13.6668 5.33197 11.1298 2.79492 8.00016 2.79492C4.87055 2.79492 2.3335 5.33197 2.3335 8.46159C2.3335 11.5912 4.87055 14.1283 8.00016 14.1283Z" fill="#2D373D"/>
</svg>
