<svg width="24" height="25" viewBox="0 0 24 25" fill="none" xmlns="http://www.w3.org/2000/svg">
<path d="M19.4999 11.6558C19.1352 10.7679 18.6145 9.95257 17.9624 9.24828L18.4949 8.70828C18.6558 8.76811 18.8323 8.77094 18.9951 8.71628C19.1578 8.66162 19.2968 8.55279 19.389 8.40797C19.4812 8.26314 19.5209 8.09108 19.5015 7.92051C19.482 7.74994 19.4047 7.5912 19.2824 7.47078L18.9899 7.17828L18.6974 6.87828C18.6276 6.80798 18.5447 6.75219 18.4533 6.71411C18.3619 6.67604 18.2639 6.65643 18.1649 6.65643C18.0659 6.65643 17.9678 6.67604 17.8764 6.71411C17.785 6.75219 17.7021 6.80798 17.6324 6.87828C17.5237 6.97595 17.446 7.10321 17.4087 7.24444C17.3714 7.38567 17.3761 7.53471 17.4224 7.67328L16.8299 8.26578C15.6405 7.37329 14.2295 6.82341 12.7499 6.67578V4.42578H13.8374C14.0363 4.42578 14.227 4.34676 14.3677 4.20611C14.5083 4.06546 14.5874 3.87469 14.5874 3.67578C14.5874 3.47687 14.5083 3.2861 14.3677 3.14545C14.227 3.0048 14.0363 2.92578 13.8374 2.92578H10.1624C9.96345 2.92578 9.77268 3.0048 9.63203 3.14545C9.49138 3.2861 9.41236 3.47687 9.41236 3.67578C9.41236 3.87469 9.49138 4.06546 9.63203 4.20611C9.77268 4.34676 9.96345 4.42578 10.1624 4.42578H11.2499V6.67578C9.36719 6.85468 7.60596 7.6849 6.26986 9.02328C5.51212 9.77554 4.91058 10.6702 4.49986 11.6558C3.67973 13.6497 3.67973 15.8868 4.49986 17.8808C4.90613 18.8651 5.5025 19.7597 6.25486 20.5133C7.77799 22.0384 9.84442 22.8963 11.9999 22.8983C14.1501 22.8923 16.2104 22.0347 17.7299 20.5133C18.4876 19.761 19.0891 18.8664 19.4999 17.8808C20.32 15.8868 20.32 13.6497 19.4999 11.6558ZM18.1124 17.3033C17.7806 18.1077 17.2938 18.8391 16.6799 19.4558C16.0697 20.0725 15.3431 20.562 14.5424 20.8958C12.9235 21.5633 11.1062 21.5633 9.48736 20.8958C8.68659 20.562 7.96004 20.0725 7.34986 19.4558C6.4257 18.5272 5.79665 17.3461 5.54177 16.0611C5.2869 14.776 5.41757 13.4443 5.91736 12.2333C6.58645 10.6115 7.86977 9.32005 9.48736 8.64078C11.1058 7.97076 12.924 7.97076 14.5424 8.64078C15.3431 8.9746 16.0697 9.46406 16.6799 10.0808C17.604 11.0094 18.2331 12.1904 18.4879 13.4755C18.7428 14.7605 18.6122 16.0923 18.1124 17.3033Z" fill="#2D373D"/>
<path d="M14.6624 12.3833C14.835 12.5004 15.0388 12.5629 15.2474 12.5629C15.4559 12.5629 15.6597 12.5004 15.8324 12.3833C16.0105 12.2726 16.1475 12.1067 16.2224 11.9108C16.3058 11.7197 16.3268 11.5071 16.2824 11.3033C16.2443 11.0986 16.1449 10.9103 15.9974 10.7633C15.9006 10.6617 15.7829 10.5824 15.6524 10.5308C15.5241 10.4772 15.3864 10.4496 15.2474 10.4496C15.1083 10.4496 14.9706 10.4772 14.8424 10.5308C14.6846 10.5958 14.545 10.6979 14.4353 10.8285C14.3256 10.9591 14.2491 11.1143 14.2124 11.2808C14.1714 11.4823 14.1923 11.6914 14.2724 11.8808C14.3404 12.0883 14.4782 12.2659 14.6624 12.3833Z" fill="#2D373D"/>
<path d="M15.9953 15.6071C16.1679 15.7241 16.3717 15.7867 16.5803 15.7867C16.7888 15.7867 16.9926 15.7241 17.1653 15.6071C17.3434 15.4964 17.4804 15.3304 17.5553 15.1346C17.6388 14.9434 17.6598 14.7308 17.6153 14.5271C17.5772 14.3223 17.4778 14.134 17.3303 13.9871C17.2335 13.8855 17.1158 13.8061 16.9853 13.7546C16.857 13.7009 16.7193 13.6733 16.5803 13.6733C16.4412 13.6733 16.3036 13.7009 16.1753 13.7546C16.0176 13.8195 15.8779 13.9216 15.7682 14.0522C15.6585 14.1828 15.582 14.338 15.5453 14.5046C15.5043 14.706 15.5253 14.9152 15.6053 15.1046C15.6733 15.3121 15.8111 15.4897 15.9953 15.6071Z" fill="#2D373D"/>
<path d="M14.7203 18.907C14.8929 19.024 15.0967 19.0866 15.3053 19.0866C15.5139 19.0866 15.7176 19.024 15.8903 18.907C16.0684 18.7963 16.2054 18.6304 16.2803 18.4345C16.3638 18.2434 16.3848 18.0308 16.3403 17.827C16.3022 17.6223 16.2028 17.434 16.0553 17.287C15.9585 17.1854 15.8408 17.1061 15.7103 17.0545C15.582 17.0009 15.4443 16.9732 15.3053 16.9732C15.1662 16.9732 15.0286 17.0009 14.9003 17.0545C14.7426 17.1194 14.6029 17.2216 14.4932 17.3522C14.3835 17.4828 14.307 17.6379 14.2703 17.8045C14.2294 18.006 14.2503 18.2151 14.3303 18.4045C14.3983 18.612 14.5361 18.7896 14.7203 18.907Z" fill="#2D373D"/>
<path d="M11.4203 20.257C11.5929 20.3741 11.7967 20.4366 12.0053 20.4366C12.2138 20.4366 12.4176 20.3741 12.5903 20.257C12.7684 20.1464 12.9054 19.9804 12.9803 19.7845C13.0638 19.5934 13.0848 19.3808 13.0403 19.177C13.0022 18.9723 12.9028 18.784 12.7553 18.637C12.6585 18.5354 12.5408 18.4561 12.4103 18.4045C12.282 18.3509 12.1443 18.3233 12.0053 18.3233C11.8662 18.3233 11.7286 18.3509 11.6003 18.4045C11.4426 18.4695 11.3029 18.5716 11.1932 18.7022C11.0835 18.8328 11.007 18.988 10.9703 19.1545C10.9293 19.356 10.9503 19.5651 11.0303 19.7545C11.0983 19.9621 11.2361 20.1396 11.4203 20.257Z" fill="#2D373D"/>
<path d="M8.19528 18.907C8.36792 19.024 8.5717 19.0866 8.78028 19.0866C8.98885 19.0866 9.19264 19.024 9.36528 18.907C9.54339 18.7963 9.68037 18.6304 9.75528 18.4345C9.83877 18.2434 9.85977 18.0308 9.81528 17.827C9.77719 17.6223 9.6778 17.434 9.53028 17.287C9.4335 17.1854 9.31578 17.1061 9.18528 17.0545C9.05699 17.0009 8.91932 16.9732 8.78028 16.9732C8.64123 16.9732 8.50357 17.0009 8.37528 17.0545C8.21757 17.1194 8.07791 17.2216 7.96821 17.3522C7.85851 17.4828 7.78202 17.6379 7.74528 17.8045C7.70435 18.006 7.72527 18.2151 7.80528 18.4045C7.8733 18.612 8.01112 18.7896 8.19528 18.907Z" fill="#2D373D"/>
<path d="M6.84527 15.6445C7.01792 15.7616 7.2217 15.8241 7.43027 15.8241C7.63885 15.8241 7.84263 15.7616 8.01527 15.6445C8.19339 15.5339 8.33037 15.3679 8.40527 15.172C8.48877 14.9809 8.50976 14.7683 8.46527 14.5645C8.42719 14.3598 8.3278 14.1715 8.18027 14.0245C8.08349 13.9229 7.96577 13.8436 7.83527 13.792C7.70699 13.7384 7.56932 13.7108 7.43027 13.7108C7.29123 13.7108 7.15356 13.7384 7.02527 13.792C6.86757 13.857 6.72791 13.9591 6.61821 14.0897C6.5085 14.2203 6.43202 14.3755 6.39527 14.542C6.35435 14.7435 6.37526 14.9526 6.45527 15.142C6.5233 15.3496 6.66111 15.5271 6.84527 15.6445Z" fill="#2D373D"/>
<path d="M8.19528 12.382C8.36792 12.4991 8.5717 12.5616 8.78028 12.5616C8.98885 12.5616 9.19264 12.4991 9.36528 12.382C9.54339 12.2714 9.68037 12.1054 9.75528 11.9095C9.83877 11.7184 9.85977 11.5058 9.81528 11.302C9.77719 11.0973 9.6778 10.909 9.53028 10.762C9.4335 10.6604 9.31578 10.5811 9.18528 10.5295C9.05699 10.4759 8.91932 10.4483 8.78028 10.4483C8.64123 10.4483 8.50357 10.4759 8.37528 10.5295C8.21757 10.5945 8.07791 10.6966 7.96821 10.8272C7.85851 10.9578 7.78202 11.113 7.74528 11.2795C7.70435 11.481 7.72527 11.6901 7.80528 11.8795C7.8733 12.0871 8.01112 12.2646 8.19528 12.382Z" fill="#2D373D"/>
<path d="M11.4203 11.032C11.5929 11.1491 11.7967 11.2116 12.0053 11.2116C12.2138 11.2116 12.4176 11.1491 12.5903 11.032C12.7684 10.9214 12.9054 10.7554 12.9803 10.5595C13.0638 10.3684 13.0848 10.1558 13.0403 9.95203C13.0022 9.74731 12.9028 9.55899 12.7553 9.41203C12.6585 9.31043 12.5408 9.2311 12.4103 9.17953C12.282 9.1259 12.1443 9.09828 12.0053 9.09828C11.8662 9.09828 11.7286 9.1259 11.6003 9.17953C11.4426 9.24447 11.3029 9.3466 11.1932 9.47719C11.0835 9.60779 11.007 9.76298 10.9703 9.92953C10.9293 10.131 10.9503 10.3401 11.0303 10.5295C11.0983 10.7371 11.2361 10.9146 11.4203 11.032Z" fill="#2D373D"/>
</svg>
