<svg width="24" height="25" viewBox="0 0 24 25" fill="none" xmlns="http://www.w3.org/2000/svg">
<path fill-rule="evenodd" clip-rule="evenodd" d="M6.99512 4.88443C6.99512 4.34666 7.35516 3.98487 7.64163 3.78169C7.94758 3.56468 8.34165 3.39995 8.76109 3.27412C9.60951 3.0196 10.7366 2.87305 11.9497 2.87305C13.1627 2.87305 14.2898 3.0196 15.1382 3.27412C15.5577 3.39995 15.9517 3.56468 16.2577 3.78169C16.5442 3.98487 16.9042 4.34664 16.9042 4.88441V10.7708C16.9042 11.3086 16.5442 11.6703 16.2577 11.8735C15.9517 12.0905 15.5577 12.2553 15.1382 12.3811C14.2898 12.6356 13.1627 12.7822 11.9497 12.7822C10.7366 12.7822 9.60951 12.6356 8.76109 12.3811C8.34165 12.2553 7.94758 12.0905 7.64163 11.8735C7.35516 11.6703 6.99512 11.3086 6.99512 10.7708V4.88443ZM8.44371 4.70854C8.44343 4.70856 8.44518 4.71092 8.44981 4.71557C8.44631 4.71083 8.444 4.70851 8.44371 4.70854ZM8.72417 4.88441C8.8439 4.94049 8.99881 4.99997 9.19211 5.05796C9.86544 5.25996 10.8406 5.39577 11.9497 5.39577C13.0588 5.39577 14.0339 5.25996 14.7072 5.05796C14.9005 4.99997 15.0554 4.94049 15.1752 4.88441C15.0554 4.82833 14.9005 4.76885 14.7072 4.71086C14.0339 4.50886 13.0588 4.37305 11.9497 4.37305C10.8406 4.37305 9.86544 4.50886 9.19211 4.71086C8.99881 4.76885 8.8439 4.82833 8.72417 4.88441ZM15.4556 4.70854C15.4553 4.70851 15.453 4.71083 15.4495 4.71557C15.4541 4.71092 15.4559 4.70856 15.4556 4.70854ZM8.76109 6.4947C9.60951 6.74923 10.7366 6.89577 11.9497 6.89577C13.1627 6.89577 14.2898 6.74923 15.1382 6.4947C15.2283 6.46769 15.3171 6.43889 15.4042 6.40816V7.69642C15.3998 7.6997 15.395 7.70316 15.3899 7.70679C15.2703 7.7916 15.0487 7.89867 14.7072 8.00111C14.0339 8.2031 13.0588 8.33892 11.9497 8.33892C10.8406 8.33892 9.86544 8.2031 9.19211 8.00111C8.85067 7.89867 8.629 7.7916 8.50943 7.70679C8.50431 7.70316 8.49954 7.6997 8.49512 7.69642V6.40816C8.58219 6.43889 8.67106 6.46769 8.76109 6.4947ZM15.4042 9.35131V10.6397L15.3899 10.65C15.2703 10.7348 15.0487 10.8419 14.7072 10.9443C14.0339 11.1463 13.0588 11.2822 11.9497 11.2822C10.8406 11.2822 9.86543 11.1463 9.19211 10.9443C8.85067 10.8419 8.629 10.7348 8.50943 10.65L8.49512 10.6397V9.35131C8.58219 9.38203 8.67106 9.41083 8.76109 9.43784C9.60951 9.69237 10.7366 9.83892 11.9497 9.83892C13.1627 9.83892 14.2898 9.69237 15.1382 9.43784C15.2283 9.41083 15.3171 9.38203 15.4042 9.35131ZM8.44371 10.5949C8.44343 10.5949 8.44518 10.5973 8.44981 10.6019C8.44631 10.5972 8.444 10.5949 8.44371 10.5949ZM15.4556 10.5949C15.4553 10.5949 15.453 10.5972 15.4495 10.6019C15.4541 10.5973 15.4559 10.5949 15.4556 10.5949Z" fill="#2D373D"/>
<path d="M4.29199 10.3503C4.29199 10.2601 4.32522 10.1081 4.40292 10.0002C4.43632 9.95376 4.4752 9.9188 4.52441 9.89342C4.57301 9.86834 4.65816 9.83892 4.80336 9.83892C5.21757 9.83892 5.55336 9.50313 5.55336 9.08892C5.55336 8.67471 5.21757 8.33892 4.80336 8.33892C4.05437 8.33892 3.51387 8.6678 3.18561 9.1237C2.8849 9.54137 2.79199 10.02 2.79199 10.3503V12.0321C2.79199 12.4463 3.12778 12.7821 3.54199 12.7821C3.95621 12.7821 4.29199 12.4463 4.29199 12.0321V10.3503Z" fill="#2D373D"/>
<path fill-rule="evenodd" clip-rule="evenodd" d="M1.9502 15.4185C1.9502 14.5273 2.67265 13.8049 3.56383 13.8049H9.40474C10.2959 13.8049 11.0184 14.5273 11.0184 15.4185V18.7367C11.0184 19.6279 10.2959 20.3503 9.40474 20.3503H7.23429V21.373H8.58656C9.00077 21.373 9.33656 21.7088 9.33656 22.123C9.33656 22.5373 9.00077 22.873 8.58656 22.873H4.38201C3.9678 22.873 3.63201 22.5373 3.63201 22.123C3.63201 21.7088 3.9678 21.373 4.38201 21.373H5.73429V20.3503H3.56383C2.67265 20.3503 1.9502 19.6279 1.9502 18.7367V15.4185ZM3.56383 15.3049C3.50107 15.3049 3.4502 15.3557 3.4502 15.4185V18.7367C3.4502 18.7994 3.50107 18.8503 3.56383 18.8503H9.40474C9.4675 18.8503 9.51838 18.7994 9.51838 18.7367V15.4185C9.51838 15.3557 9.4675 15.3049 9.40474 15.3049H3.56383Z" fill="#2D373D"/>
<path fill-rule="evenodd" clip-rule="evenodd" d="M21.9502 15.4185C21.9502 14.5273 21.2277 13.8049 20.3366 13.8049H14.4957C13.6045 13.8049 12.882 14.5273 12.882 15.4185V18.7367C12.882 19.6279 13.6045 20.3503 14.4956 20.3503H16.6661V21.373H15.3138C14.8996 21.373 14.5638 21.7088 14.5638 22.123C14.5638 22.5373 14.8996 22.873 15.3138 22.873H19.5184C19.9326 22.873 20.2684 22.5373 20.2684 22.123C20.2684 21.7088 19.9326 21.373 19.5184 21.373H18.1661V20.3503H20.3366C21.2277 20.3503 21.9502 19.6279 21.9502 18.7367V15.4185ZM20.3366 15.3049C20.3993 15.3049 20.4502 15.3557 20.4502 15.4185V18.7367C20.4502 18.7994 20.3993 18.8503 20.3366 18.8503H14.4956C14.4329 18.8503 14.382 18.7994 14.382 18.7367V15.4185C14.382 15.3557 14.4329 15.3049 14.4957 15.3049H20.3366Z" fill="#2D373D"/>
<path d="M19.4975 10.0002C19.5752 10.1081 19.6084 10.2601 19.6084 10.3503V12.0321C19.6084 12.4463 19.9442 12.7821 20.3584 12.7821C20.7726 12.7821 21.1084 12.4463 21.1084 12.0321V10.3503C21.1084 10.02 21.0155 9.54137 20.7148 9.1237C20.3865 8.6678 19.846 8.33892 19.097 8.33892C18.6828 8.33892 18.347 8.67471 18.347 9.08892C18.347 9.50313 18.6828 9.83892 19.097 9.83892C19.2422 9.83892 19.3274 9.86834 19.376 9.89342C19.4252 9.9188 19.4641 9.95376 19.4975 10.0002Z" fill="#2D373D"/>
</svg>
