<svg width="64" height="64" viewBox="0 0 64 64" fill="none" xmlns="http://www.w3.org/2000/svg">
<path d="M57.0002 33.4001H50.4002C50.2002 29.8001 47.2002 26.8 43.4002 26.8C39.6002 26.8 36.6002 29.8001 36.4002 33.4001H30.0002C28.8002 33.4001 28.0002 34.2001 28.0002 35.4001V55.6C28.0002 56.8 28.8002 57.6 30.0002 57.6H56.8002C58.0002 57.6 58.8002 56.6 59.0002 55.6V35.4001C59.0002 34.2001 58.2002 33.4001 57.0002 33.4001ZM43.4002 30.8C44.8002 30.8 46.2002 32.0001 46.4002 33.4001H40.4002C40.6002 32.0001 42.0002 30.8 43.4002 30.8ZM55.0002 37.4001V41.8H45.4002C45.4002 40.8 44.6002 40 43.4002 40C42.2002 40 41.6002 40.8 41.4002 41.8H32.0002V37.4001H55.0002ZM32.0002 53.6V45.8H41.4002V47C41.4002 48.2001 42.2002 49 43.4002 49C44.4002 49 45.4002 48.2001 45.4002 47V45.8H55.0002V53.6H32.0002Z" fill="#2D373D"/>
<path d="M15.6002 25.2C15.4002 25 15.0002 25 14.8002 25C14.6002 25 14.2002 25 14.0002 25.2C13.2002 25.4 12.4002 26.2 12.2002 27C12.0002 27.2 12.0002 27.6 12.0002 27.8C12.0002 28 12.0002 28.4 12.2002 28.6C12.4002 29.4 13.2002 30.2 14.0002 30.4C14.2002 30.6 14.6002 30.6 14.8002 30.6C16.4002 30.6 17.6002 29.4 17.6002 27.8C17.6002 27.4 17.6002 27.2 17.4002 27C17.2002 26.2 16.6002 25.4 15.6002 25.2Z" fill="#2D373D"/>
<path d="M22.4002 33.4H10.6002C10.4002 33.4 10.2002 33.4 10.0002 33.2L9.8002 33C9.4002 32.7999 9.2002 32.4 9.2002 31.7999V26.7999C9.2002 24 11.4002 22 14.0002 22H47.6002C49.2002 22 50.8002 23 51.6002 24.4C52.2002 25.4 53.4002 25.8 54.4002 25.2C55.4002 24.6 55.8002 23.4 55.2002 22.4C54.2002 20.6 52.6002 19.4 50.8002 18.6L47.4002 10.8C46.4002 7.99995 43.8002 6.19995 40.8002 6.19995H20.8002C17.8002 6.19995 15.2002 7.99995 14.4002 10.6L10.8002 18.6C7.6002 20 5.2002 23 5.2002 26.7999V32C5.2002 33.6 6.0002 35 7.0002 36V38.7999C6.8002 40.2 7.4002 41.5999 8.4002 42.5999C9.4002 43.5999 10.6002 44.2 12.2002 44.2C15.2002 44.2 17.6002 41.7999 17.8002 39V37.4H22.4002C23.4002 37.4 24.4002 36.6 24.4002 35.4C24.4002 34.2 23.6002 33.4 22.4002 33.4ZM18.0002 12.4C18.4002 11.2 19.6002 10.4 20.8002 10.4H40.8002C42.0002 10.4 43.2002 11 43.6002 12.4L46.2002 18.2H15.4002L18.0002 12.4ZM13.8002 38.7999C13.8002 39.5999 13.2002 40.2 12.4002 40.2C12.0002 40.2 11.6002 40 11.4002 39.7999C11.2002 39.5999 11.0002 39.2 11.0002 38.7999V37.4H13.8002V38.7999Z" fill="#2D373D"/>
</svg>
