<svg width="24" height="24" viewBox="0 0 24 24" fill="none" xmlns="http://www.w3.org/2000/svg">
<path d="M17.9753 22.0883H5.97535C5.44534 22.0867 4.93748 21.8755 4.56271 21.5007C4.18793 21.1259 3.97668 20.618 3.9751 20.088V3.98853C3.97668 3.45852 4.18793 2.95067 4.56271 2.57589C4.93748 2.20111 5.44534 1.98986 5.97535 1.98828H18.0751C18.6051 1.98986 19.113 2.20111 19.4877 2.57589C19.8625 2.95067 20.0738 3.45852 20.0753 3.98853V20.088C20.0349 20.6222 19.7978 21.1224 19.4099 21.4919C19.022 21.8613 18.5109 22.0738 17.9753 22.0883ZM5.97535 3.48828C5.9086 3.48423 5.84175 3.4944 5.77922 3.5181C5.71669 3.54181 5.65991 3.57852 5.61262 3.62581C5.56534 3.67309 5.52863 3.72988 5.50492 3.7924C5.48121 3.85493 5.47105 3.92178 5.4751 3.98853V20.088C5.47105 20.1548 5.48121 20.2216 5.50492 20.2842C5.52863 20.3467 5.56534 20.4035 5.61262 20.4508C5.65991 20.498 5.71669 20.5348 5.77922 20.5585C5.84175 20.5822 5.9086 20.5923 5.97535 20.5883H18.0751C18.1418 20.5923 18.2087 20.5822 18.2712 20.5585C18.3338 20.5348 18.3905 20.498 18.4378 20.4508C18.4851 20.4035 18.5218 20.3467 18.5455 20.2842C18.5692 20.2216 18.5794 20.1548 18.5753 20.088V3.98853C18.5794 3.92178 18.5692 3.85493 18.5455 3.7924C18.5218 3.72988 18.4851 3.67309 18.4378 3.62581C18.3905 3.57852 18.3338 3.54181 18.2712 3.5181C18.2087 3.4944 18.1418 3.48423 18.0751 3.48828H5.97535Z" fill="#2D373D"/>
<path d="M16.2752 9.7882H7.67493C7.28016 9.7785 6.90424 9.61735 6.62501 9.33812C6.34578 9.05889 6.18463 8.68297 6.17493 8.2882V5.78845C6.18463 5.39368 6.34578 5.01776 6.62501 4.73853C6.90424 4.4593 7.28016 4.29815 7.67493 4.28845H16.2752C16.6699 4.29815 17.0459 4.4593 17.3251 4.73853C17.6043 5.01776 17.7655 5.39368 17.7752 5.78845V8.2882C17.7788 8.48619 17.7425 8.68289 17.6685 8.86653C17.5944 9.05018 17.484 9.217 17.344 9.35702C17.204 9.49705 17.0372 9.6074 16.8535 9.68148C16.6699 9.75557 16.4732 9.79187 16.2752 9.7882ZM7.67493 5.78845V8.2882H16.2752V5.78845H7.67493Z" fill="#2D373D"/>
<path d="M8.37527 10.788C8.08426 10.7905 7.80588 10.9072 7.60009 11.113C7.39431 11.3188 7.27757 11.5972 7.27502 11.8882C7.27843 12.0271 7.30997 12.1639 7.36776 12.2903C7.42555 12.4167 7.50837 12.5301 7.61123 12.6235C7.71408 12.717 7.83482 12.7886 7.96615 12.834C8.09747 12.8795 8.23666 12.8978 8.37527 12.888C8.64024 12.8874 8.89419 12.7818 9.08155 12.5945C9.26891 12.4071 9.37443 12.1532 9.37502 11.8882C9.36072 11.6177 9.2534 11.3604 9.07122 11.1599C8.88904 10.9594 8.64319 10.828 8.37527 10.788Z" fill="#2D373D"/>
<path d="M11.9746 10.788C11.8357 10.7914 11.6989 10.8229 11.5725 10.8807C11.4461 10.9385 11.3328 11.0213 11.2393 11.1242C11.1459 11.227 11.0743 11.3478 11.0288 11.4791C10.9834 11.6104 10.965 11.7496 10.9749 11.8882C10.9755 12.1532 11.081 12.4071 11.2684 12.5945C11.4557 12.7818 11.7097 12.8874 11.9746 12.888C12.234 12.8703 12.4781 12.7592 12.6619 12.5755C12.8457 12.3917 12.9567 12.1475 12.9744 11.8882C12.9778 11.6124 12.8766 11.3455 12.6911 11.1413C12.5055 10.9372 12.2495 10.8109 11.9746 10.788Z" fill="#2D373D"/>
<path d="M15.3751 10.788C15.2362 10.7914 15.0994 10.8229 14.973 10.8807C14.8466 10.9385 14.7332 11.0213 14.6398 11.1242C14.5463 11.227 14.4747 11.3478 14.4293 11.4791C14.3838 11.6104 14.3655 11.7496 14.3753 11.8882C14.3759 12.1532 14.4815 12.4071 14.6688 12.5945C14.8562 12.7818 15.1101 12.8874 15.3751 12.888C15.6344 12.8703 15.8785 12.7592 16.0623 12.5755C16.2461 12.3917 16.3571 12.1475 16.3748 11.8882C16.3783 11.6124 16.277 11.3455 16.0915 11.1413C15.906 10.9372 15.65 10.8109 15.3751 10.788Z" fill="#2D373D"/>
<path d="M8.37527 13.9883C8.09973 13.986 7.83343 14.0876 7.62949 14.2729C7.42556 14.4582 7.29898 14.7136 7.27502 14.9881C7.29898 15.2626 7.42556 15.518 7.62949 15.7033C7.83343 15.8886 8.09973 15.9902 8.37527 15.9878C8.64024 15.9872 8.89419 15.8817 9.08155 15.6943C9.26891 15.507 9.37443 15.253 9.37502 14.9881C9.35732 14.7288 9.24631 14.4846 9.06252 14.3008C8.87872 14.117 8.63459 14.006 8.37527 13.9883Z" fill="#2D373D"/>
<path d="M11.9746 13.9883C11.7096 13.9889 11.4557 14.0944 11.2683 14.2818C11.081 14.4691 10.9754 14.7231 10.9749 14.988C10.9926 15.2473 11.1036 15.4915 11.2874 15.6753C11.4712 15.8591 11.7153 15.9701 11.9746 15.9878C12.2339 15.9701 12.4781 15.8591 12.6618 15.6753C12.8456 15.4915 12.9567 15.2473 12.9744 14.988C12.9738 14.7231 12.8682 14.4691 12.6809 14.2818C12.4935 14.0944 12.2396 13.9889 11.9746 13.9883Z" fill="#2D373D"/>
<path d="M15.3751 16.0876C15.9272 16.0876 16.3748 15.64 16.3748 15.0878C16.3748 14.5357 15.9272 14.0881 15.3751 14.0881C14.8229 14.0881 14.3753 14.5357 14.3753 15.0878C14.3753 15.64 14.8229 16.0876 15.3751 16.0876Z" fill="#2D373D"/>
<path d="M15.3751 19.3875C15.9272 19.3875 16.3748 18.9399 16.3748 18.3878C16.3748 17.8356 15.9272 17.388 15.3751 17.388C14.8229 17.388 14.3753 17.8356 14.3753 18.3878C14.3753 18.9399 14.8229 19.3875 15.3751 19.3875Z" fill="#2D373D"/>
<path d="M11.9746 17.388C11.7096 17.3886 11.4557 17.4941 11.2683 17.6815C11.081 17.8688 10.9754 18.1228 10.9749 18.3878C10.9926 18.6471 11.1036 18.8912 11.2874 19.075C11.4712 19.2588 11.7153 19.3698 11.9746 19.3875C12.2339 19.3698 12.4781 19.2588 12.6618 19.075C12.8456 18.8912 12.9567 18.6471 12.9744 18.3878C12.9738 18.1228 12.8682 17.8688 12.6809 17.6815C12.4935 17.4941 12.2396 17.3886 11.9746 17.388Z" fill="#2D373D"/>
<path d="M8.37527 17.388C8.09973 17.3857 7.83343 17.4873 7.62949 17.6726C7.42556 17.8579 7.29898 18.1133 7.27502 18.3878C7.29898 18.6623 7.42556 18.9177 7.62949 19.103C7.83343 19.2883 8.09973 19.3899 8.37527 19.3875C8.64024 19.3869 8.89419 19.2814 9.08155 19.0941C9.26891 18.9067 9.37443 18.6528 9.37502 18.3878C9.35732 18.1285 9.24631 17.8843 9.06252 17.7006C8.87872 17.5168 8.63459 17.4057 8.37527 17.388Z" fill="#2D373D"/>
</svg>
