<svg width="64" height="65" viewBox="0 0 64 65" fill="none" xmlns="http://www.w3.org/2000/svg">
<path fill-rule="evenodd" clip-rule="evenodd" d="M15.8667 8.46191C16.9713 8.46191 17.8667 9.35734 17.8667 10.4619V17.7952C17.8667 18.8998 16.9713 19.7952 15.8667 19.7952C14.7621 19.7952 13.8667 18.8998 13.8667 17.7952V15.3953H12.9333C12.6858 15.3953 12.4484 15.4936 12.2734 15.6686C12.0983 15.8437 12 16.0811 12 16.3286V28.0619C12 30.6434 13.0255 33.1191 14.8508 34.9444C16.6712 36.7649 19.1385 37.7897 21.7124 37.7952C21.7194 37.7952 21.7264 37.7951 21.7333 37.7951C21.7403 37.7951 21.7473 37.7952 21.7543 37.7952C24.3282 37.7897 26.7954 36.7649 28.6158 34.9444C30.4412 33.1191 31.4667 30.6434 31.4667 28.0619V16.3286C31.4667 16.0811 31.3683 15.8437 31.1933 15.6686C31.0183 15.4936 30.7809 15.3953 30.5333 15.3953H29.6V17.7952C29.6 18.8998 28.7045 19.7952 27.6 19.7952C26.4954 19.7952 25.6 18.8998 25.6 17.7952V10.4619C25.6 9.35734 26.4954 8.46191 27.6 8.46191C28.7045 8.46191 29.6 9.35734 29.6 10.4619V11.3953H30.5333C31.8417 11.3953 33.0965 11.915 34.0217 12.8402C34.9469 13.7654 35.4667 15.0202 35.4667 16.3286V28.0619C35.4667 31.7042 34.0198 35.1974 31.4443 37.7729C29.3465 39.8706 26.64 41.2196 23.74 41.6479C23.8375 44.4782 25.0045 47.1722 27.0137 49.1814C29.1141 51.2818 31.9629 52.4618 34.9333 52.4618C37.9038 52.4618 40.7525 51.2818 42.8529 49.1814C44.9533 47.081 46.1333 44.2322 46.1333 41.2618V35.6702C44.797 35.3189 43.5646 34.6184 42.5708 33.6246C41.0955 32.1493 40.2667 30.1483 40.2667 28.062C40.2667 25.9756 41.0955 23.9747 42.5708 22.4994C44.046 21.0241 46.047 20.1953 48.1333 20.1953C50.2197 20.1953 52.2206 21.0241 53.6959 22.4994C55.1712 23.9747 56 25.9756 56 28.062C56 30.1483 55.1712 32.1493 53.6959 33.6246C52.7021 34.6184 51.4697 35.3188 50.1333 35.6702V41.2618C50.1333 45.2931 48.5319 49.1593 45.6814 52.0098C42.8308 54.8604 38.9646 56.4618 34.9333 56.4618C30.902 56.4618 27.0359 54.8604 24.1853 52.0098C21.4263 49.2508 19.8375 45.5404 19.7383 41.6496C16.8339 41.2232 14.1229 39.8734 12.0224 37.7729C9.4469 35.1974 8 31.7042 8 28.0619V16.3286C8 15.0202 8.51976 13.7654 9.44494 12.8402C10.3701 11.915 11.6249 11.3953 12.9333 11.3953H13.8667V10.4619C13.8667 9.35734 14.7621 8.46191 15.8667 8.46191ZM48.1552 31.9286C49.1728 31.9228 50.1475 31.5161 50.8675 30.7961C51.5926 30.071 52 29.0875 52 28.062C52 27.0365 51.5926 26.053 50.8675 25.3278C50.1423 24.6027 49.1588 24.1953 48.1333 24.1953C47.1078 24.1953 46.1243 24.6027 45.3992 25.3278C44.674 26.053 44.2667 27.0365 44.2667 28.062C44.2667 29.0875 44.674 30.071 45.3992 30.7961C46.1192 31.5161 47.0938 31.9228 48.1114 31.9286C48.1187 31.9285 48.126 31.9285 48.1333 31.9285C48.1406 31.9285 48.1479 31.9285 48.1552 31.9286Z" fill="#2D373D"/>
</svg>
