<svg width="64" height="64" viewBox="0 0 64 64" fill="none" xmlns="http://www.w3.org/2000/svg">
<path fill-rule="evenodd" clip-rule="evenodd" d="M31.9914 15.3334C31.867 15.3334 31.7445 15.3578 31.6311 15.4046C31.5178 15.4514 31.4166 15.5193 31.3327 15.6032L31.3241 15.6118L11.3969 35.2978C10.6112 36.0741 9.34485 36.0664 8.56857 35.2806C7.79229 34.4948 7.79999 33.2285 8.58578 32.4522L28.5091 12.77C28.9662 12.3141 29.5089 11.9533 30.1051 11.7072C30.7033 11.4603 31.3444 11.3334 31.9914 11.3334C32.6383 11.3334 33.2794 11.4603 33.8777 11.7072C34.4738 11.9533 35.0164 12.314 35.4735 12.7698C35.4752 12.7715 35.4768 12.7731 35.4785 12.7748L55.3969 32.4522C56.1827 33.2285 56.1904 34.4948 55.4142 35.2806C54.6379 36.0664 53.3716 36.0741 52.5858 35.2978L32.65 15.6032C32.5661 15.5193 32.4649 15.4514 32.3516 15.4046C32.2382 15.3578 32.1157 15.3334 31.9914 15.3334Z" fill="#2D373D"/>
<path fill-rule="evenodd" clip-rule="evenodd" d="M16 36.6668C17.1046 36.6668 18 37.5622 18 38.6668V52.0001H26V42.0001C26 41.965 25.9999 41.928 25.9998 41.8893C25.9984 41.316 25.9961 40.354 26.2693 39.5343C26.4342 39.0396 26.7425 38.4444 27.3346 37.9839C27.944 37.5099 28.6541 37.3334 29.3333 37.3334H34.6667C35.3458 37.3334 36.056 37.5099 36.6654 37.9839C37.2575 38.4444 37.5658 39.0396 37.7307 39.5343C38.0039 40.354 38.0016 41.316 38.0002 41.8893C38.0001 41.928 38 41.965 38 42.0001V52.0001H46V38.6668C46 37.5622 46.8954 36.6668 48 36.6668C49.1046 36.6668 50 37.5622 50 38.6668V54.0001C50 55.1047 49.1046 56.0001 48 56.0001H36C34.8954 56.0001 34 55.1047 34 54.0001V42.0001C34 41.7382 33.9995 41.5235 33.9926 41.3334H30.0073C30.0004 41.5235 30 41.7382 30 42.0001V54.0001C30 55.1047 29.1046 56.0001 28 56.0001H16C14.8954 56.0001 14 55.1047 14 54.0001V38.6668C14 37.5622 14.8954 36.6668 16 36.6668Z" fill="#2D373D"/>
<path fill-rule="evenodd" clip-rule="evenodd" d="M21.1883 14.7804C21.3092 15.8784 20.5171 16.8664 19.4192 16.9872C19.127 17.0194 18.7892 17.1127 18.4314 17.2834C18.0745 17.4536 17.7225 17.6892 17.4028 17.9791C17.083 18.2691 16.8142 18.5965 16.6099 18.935C16.4052 19.2744 16.2794 19.6015 16.2189 19.8892C15.9915 20.9701 14.9309 21.662 13.85 21.4346C12.7691 21.2072 12.0771 20.1466 12.3045 19.0657C12.4665 18.2957 12.7727 17.5521 13.1849 16.8689C13.5975 16.1848 14.1183 15.5577 14.7158 15.016C15.3133 14.4742 15.9882 14.017 16.7093 13.6731C17.4294 13.3296 18.1994 13.0973 18.9815 13.0113C20.0795 12.8904 21.0675 13.6825 21.1883 14.7804Z" fill="#2D373D"/>
<path fill-rule="evenodd" clip-rule="evenodd" d="M43.0789 14.7804C42.958 15.8784 43.7501 16.8664 44.8481 16.9872C45.1403 17.0194 45.4781 17.1127 45.8358 17.2834C46.1927 17.4536 46.5447 17.6892 46.8645 17.9791C47.1843 18.2691 47.4531 18.5965 47.6573 18.935C47.862 19.2744 47.9879 19.6015 48.0484 19.8892C48.2758 20.9701 49.3363 21.662 50.4173 21.4346C51.4982 21.2072 52.1901 20.1466 51.9627 19.0657C51.8007 18.2957 51.4945 17.5521 51.0824 16.8689C50.6697 16.1848 50.1489 15.5577 49.5514 15.016C48.9539 14.4742 48.279 14.017 47.5579 13.6731C46.8378 13.3296 46.0678 13.0973 45.2857 13.0113C44.1878 12.8904 43.1997 13.6825 43.0789 14.7804Z" fill="#2D373D"/>
<path fill-rule="evenodd" clip-rule="evenodd" d="M19.3787 9.88035C19.4448 10.9829 18.6046 11.9304 17.502 11.9965C15.9872 12.0873 14.3754 12.7847 13.0702 14.0038C11.765 15.2229 10.9594 16.7834 10.7656 18.2885C10.6245 19.384 9.622 20.1577 8.52648 20.0166C7.43096 19.8755 6.65724 18.8731 6.79834 17.7775C7.12207 15.2641 8.41937 12.8744 10.3399 11.0806C12.2604 9.28678 14.7329 8.15534 17.2626 8.00365C18.3652 7.93753 19.3126 8.77776 19.3787 9.88035Z" fill="#2D373D"/>
<path fill-rule="evenodd" clip-rule="evenodd" d="M44.8885 9.88035C44.8224 10.9829 45.6626 11.9304 46.7652 11.9965C48.2801 12.0873 49.8918 12.7847 51.197 14.0038C52.5022 15.2229 53.3078 16.7834 53.5017 18.2885C53.6427 19.384 54.6452 20.1577 55.7408 20.0166C56.8363 19.8755 57.61 18.8731 57.4689 17.7775C57.1452 15.2641 55.8479 12.8744 53.9273 11.0806C52.0068 9.28678 49.5343 8.15534 47.0046 8.00365C45.902 7.93753 44.9546 8.77776 44.8885 9.88035Z" fill="#2D373D"/>
</svg>
