<svg width="24" height="25" viewBox="0 0 24 25" fill="none" xmlns="http://www.w3.org/2000/svg">
<path d="M19.347 15.5319C19.347 19.4519 15.927 22.9219 11.997 22.9219C10.107 22.9219 8.29701 22.1219 6.96701 20.8719C6.66701 20.5819 6.65701 20.1119 6.93701 19.8119C7.21701 19.5019 7.69701 19.4919 7.99701 19.7719C9.07701 20.7919 10.527 21.4219 11.997 21.4219C15.087 21.4219 17.847 18.6319 17.847 15.5319C17.847 13.1219 16.667 11.0019 16.627 10.9119C16.447 10.5419 16.607 10.0919 16.977 9.91187C17.347 9.74187 17.797 9.89187 17.977 10.2719C17.977 10.2719 18.337 10.9119 18.667 11.8519C19.007 12.8019 19.347 14.1119 19.347 15.5319Z" fill="#2D373D"/>
<path d="M15.467 7.51188C15.137 7.77188 14.667 7.71188 14.417 7.38188C13.657 6.40188 12.927 5.61188 12.387 5.07188C12.237 4.91188 12.107 4.78187 11.987 4.68187C11.837 4.82187 11.647 5.00187 11.437 5.21187C10.807 5.84187 9.96701 6.76187 9.13701 7.89187C7.48701 10.1619 5.95701 13.2319 6.16701 16.5719C6.19701 16.9919 5.87701 17.3419 5.46701 17.3719C5.05701 17.3919 4.69701 17.0819 4.66701 16.6719C4.42701 12.8119 6.18701 9.40188 7.92701 7.00187C8.80701 5.80187 9.69701 4.82188 10.377 4.15188C10.707 3.81188 10.997 3.55187 11.197 3.37187C11.297 3.28187 11.377 3.21187 11.427 3.17187C11.457 3.14187 11.477 3.12187 11.497 3.11187C11.497 3.11187 11.5037 3.10854 11.517 3.10187H11.527C11.797 2.86187 12.207 2.86187 12.477 3.10187H12.487C12.487 3.10187 12.497 3.11187 12.507 3.12187C12.517 3.13187 12.537 3.14187 12.557 3.16187C12.607 3.20187 12.667 3.26187 12.757 3.34187C12.927 3.49187 13.157 3.72188 13.447 4.01188C14.027 4.58188 14.797 5.42188 15.607 6.46187C15.857 6.79187 15.797 7.26188 15.467 7.51188Z" fill="#2D373D"/>
<path d="M21.777 4.20187L3.27701 22.7019C3.12701 22.8519 2.93701 22.9219 2.74701 22.9219C2.55701 22.9219 2.36701 22.8519 2.21701 22.7019C1.92701 22.4119 1.92701 21.9319 2.21701 21.6419L20.717 3.14187C21.007 2.85188 21.487 2.85188 21.777 3.14187C22.067 3.43187 22.067 3.91187 21.777 4.20187Z" fill="#2D373D"/>
</svg>
