<svg width="16" height="17" viewBox="0 0 16 17" fill="none" xmlns="http://www.w3.org/2000/svg">
<path d="M9.50837 10.9804C9.9635 10.6982 10.4884 10.5487 11.024 10.5488C11.3001 10.5489 11.524 10.3251 11.524 10.0489C11.5241 9.77277 11.3003 9.54887 11.0241 9.54883C10.3024 9.54871 9.59488 9.75014 8.98142 10.1305C8.36796 10.5109 7.87291 11.055 7.55213 11.7016C7.4294 11.949 7.53044 12.249 7.77781 12.3717C8.02518 12.4945 8.3252 12.3934 8.44793 12.1461C8.68594 11.6663 9.05325 11.2626 9.50837 10.9804Z" fill="#2D373D"/>
<path d="M6.125 6.73633C6.5047 6.73633 6.8125 7.04413 6.8125 7.42383C6.8125 7.80353 6.5047 8.11133 6.125 8.11133C5.7453 8.11133 5.4375 7.80353 5.4375 7.42383C5.4375 7.04413 5.7453 6.73633 6.125 6.73633Z" fill="#2D373D"/>
<path d="M9.875 6.73633C10.2547 6.73633 10.5625 7.04412 10.5625 7.42383C10.5625 7.80353 10.2547 8.11133 9.875 8.11133C9.49532 8.11133 9.1875 7.80353 9.1875 7.42383C9.1875 7.04412 9.49532 6.73633 9.875 6.73633Z" fill="#2D373D"/>
<path fill-rule="evenodd" clip-rule="evenodd" d="M8 2.79883C4.61726 2.79883 1.875 5.54109 1.875 8.92383C1.875 12.3066 4.61726 15.0488 8 15.0488C11.3827 15.0488 14.125 12.3066 14.125 8.92383C14.125 5.54109 11.3827 2.79883 8 2.79883ZM2.875 8.92383C2.875 6.09337 5.16954 3.79883 8 3.79883C10.8305 3.79883 13.125 6.09337 13.125 8.92383C13.125 11.7543 10.8305 14.0488 8 14.0488C5.16954 14.0488 2.875 11.7543 2.875 8.92383Z" fill="#2D373D"/>
</svg>
