<svg width="32" height="33" viewBox="0 0 32 33" fill="none" xmlns="http://www.w3.org/2000/svg">
<path d="M27 24.1412L25.0667 24.2612V18.1412H27.0267C27.2919 18.1412 27.5462 18.0359 27.7338 17.8483C27.9213 17.6608 28.0267 17.4065 28.0267 17.1412C28.0267 16.876 27.9213 16.6217 27.7338 16.4341C27.5462 16.2466 27.2919 16.1412 27.0267 16.1412H25.04C24.5461 16.1416 24.0704 16.3272 23.7067 16.6612L19.5333 15.1546C19.1769 15.0333 18.8032 14.9703 18.4267 14.9679C17.9076 14.9557 17.3939 15.075 16.9333 15.3146L14.7067 16.4346C14.2217 16.1081 13.6513 15.9319 13.0667 15.9279C12.6784 15.9222 12.293 15.9948 11.9333 16.1412L8.76 17.3946C8.62642 17.0225 8.37974 16.7016 8.05453 16.4768C7.72933 16.252 7.34193 16.1347 6.94667 16.1412H5C4.73478 16.1412 4.48043 16.2466 4.29289 16.4341C4.10536 16.6217 4 16.876 4 17.1412C4 17.4065 4.10536 17.6608 4.29289 17.8483C4.48043 18.0359 4.73478 18.1412 5 18.1412L6.93333 18.0346V24.1279H5C4.73478 24.1279 4.48043 24.2333 4.29289 24.4208C4.10536 24.6083 4 24.8627 4 25.1279C4 25.3931 4.10536 25.6475 4.29289 25.835C4.48043 26.0225 4.73478 26.1279 5 26.1279H6.96C7.45184 26.1299 7.92693 25.9493 8.29333 25.6212L8.38667 25.5012H9.82666L12.96 28.9946C13.1753 29.2305 13.4391 29.4169 13.7333 29.5412C14.0224 29.6759 14.3348 29.7528 14.6533 29.7679C14.8634 29.7672 15.0681 29.702 15.24 29.5812C16.5595 28.6216 17.8279 27.5935 19.04 26.5012L23.68 25.5946C24.043 25.9298 24.5192 26.1155 25.0133 26.1146H26.9867C27.2519 26.1146 27.5062 26.0092 27.6938 25.8217C27.8813 25.6341 27.9867 25.3798 27.9867 25.1146C27.9867 24.8494 27.8813 24.595 27.6938 24.4075C27.5062 24.2199 27.2519 24.1146 26.9867 24.1146L27 24.1412ZM17.8133 17.1146C17.9911 17.0252 18.1877 16.9795 18.3867 16.9812C18.5358 16.9818 18.6841 17.0042 18.8267 17.0479L23.0533 18.5812V23.6879L21.2533 24.0346C21.2823 23.5006 21.1057 22.9758 20.76 22.5679L19.1467 20.5146C19.3699 20.3988 19.5405 20.2023 19.6236 19.965C19.7068 19.7277 19.6963 19.4677 19.5941 19.2379C19.492 19.0082 19.3061 18.8261 19.0742 18.7288C18.8424 18.6315 18.5821 18.6264 18.3467 18.7146L14.96 19.8212C14.8228 19.8748 14.6705 19.8748 14.5333 19.8212C14.4665 19.7923 14.4061 19.7502 14.3557 19.6975C14.3053 19.6449 14.266 19.5827 14.24 19.5146C14.2106 19.4473 14.1955 19.3747 14.1955 19.3012C14.1955 19.2278 14.2106 19.1552 14.24 19.0879C14.2965 18.9497 14.4006 18.8362 14.5333 18.7679L15 18.5279L17.8133 17.1146ZM14.4667 27.6879L11.0267 23.8612C10.931 23.7593 10.8153 23.6782 10.6868 23.6231C10.5583 23.5681 10.4198 23.5402 10.28 23.5412H8.94667V19.5412L12.5333 18.1279C12.5333 18.2479 12.4133 18.3679 12.36 18.4879C12.164 19.1072 12.2008 19.7768 12.4635 20.3709C12.7262 20.965 13.1967 21.4428 13.7867 21.7146C14.1122 21.8503 14.4607 21.9227 14.8133 21.9279C15.0952 21.9258 15.3746 21.8763 15.64 21.7812L17.2 21.2746L19.1733 23.7946C17.699 25.2026 16.1261 26.5037 14.4667 27.6879Z" fill="#2D373D"/>
<path d="M15.88 14.2079H16.08C19.3867 14.2079 22.08 11.5412 22.84 10.6346C23.1577 10.2761 23.3332 9.81361 23.3332 9.33457C23.3332 8.85553 23.1577 8.39308 22.84 8.03457C21.28 6.2879 18.6667 4.43457 16 4.43457C13.3333 4.43457 10.6667 6.2479 9.16 7.99457C8.82356 8.35706 8.6366 8.83334 8.6366 9.3279C8.6366 9.82246 8.82356 10.2987 9.16 10.6612C9.90666 11.4746 12.6133 14.2079 15.88 14.2079ZM15.88 6.47457H16.04C18.0871 6.72566 19.9659 7.73407 21.3067 9.30124C20.6588 10.1195 19.8526 10.7986 18.9362 11.2981C18.0198 11.7975 17.0121 12.1069 15.9733 12.2079C13.8927 11.9948 11.9782 10.9754 10.64 9.3679C11.9561 7.7527 13.8504 6.71466 15.92 6.47457H15.88Z" fill="#2D373D"/>
<path d="M14.64 9.38124C14.6415 9.73102 14.7803 10.0662 15.0267 10.3146C15.1502 10.4406 15.2974 10.5408 15.4599 10.6094C15.6224 10.6781 15.7969 10.7138 15.9733 10.7146C16.327 10.7146 16.6661 10.5741 16.9161 10.324C17.1662 10.074 17.3067 9.73486 17.3067 9.38124C17.3077 9.20576 17.274 9.03181 17.2077 8.86936C17.1413 8.70691 17.0436 8.55916 16.92 8.43457C16.7954 8.31099 16.6477 8.21323 16.4852 8.14688C16.3228 8.08052 16.1488 8.04689 15.9733 8.0479C15.6197 8.0479 15.2806 8.18838 15.0305 8.43843C14.7805 8.68848 14.64 9.02761 14.64 9.38124Z" fill="#2D373D"/>
</svg>
