<svg width="64" height="65" viewBox="0 0 64 65" fill="none" xmlns="http://www.w3.org/2000/svg">
<path d="M51.9996 29.5437C51.0271 27.1761 49.6386 25.0018 47.8996 23.1237L49.3196 21.6837C49.7487 21.8432 50.2195 21.8508 50.6535 21.705C51.0874 21.5593 51.4583 21.269 51.704 20.8828C51.9498 20.4966 52.0556 20.0378 52.0039 19.5829C51.9521 19.1281 51.7459 18.7048 51.4196 18.3837L50.6396 17.6037L49.8596 16.8037C49.6737 16.6162 49.4525 16.4674 49.2088 16.3659C48.9651 16.2644 48.7036 16.2121 48.4396 16.2121C48.1756 16.2121 47.9142 16.2644 47.6705 16.3659C47.4268 16.4674 47.2056 16.6162 47.0196 16.8037C46.73 17.0641 46.5227 17.4035 46.4232 17.7801C46.3237 18.1567 46.3364 18.5542 46.4596 18.9237L44.8796 20.5037C41.708 18.1237 37.9453 16.6574 33.9996 16.2637V10.2637H36.8996C37.4301 10.2637 37.9388 10.053 38.3138 9.67789C38.6889 9.30281 38.8996 8.7941 38.8996 8.26367C38.8996 7.73324 38.6889 7.22453 38.3138 6.84946C37.9388 6.47439 37.4301 6.26367 36.8996 6.26367H27.0996C26.5692 6.26367 26.0605 6.47439 25.6854 6.84946C25.3103 7.22453 25.0996 7.73324 25.0996 8.26367C25.0996 8.7941 25.3103 9.30281 25.6854 9.67789C26.0605 10.053 26.5692 10.2637 27.0996 10.2637H29.9996V16.2637C24.9792 16.7407 20.2826 18.9547 16.7196 22.5237C14.699 24.5297 13.0949 26.9154 11.9996 29.5437C9.81263 34.8609 9.81263 40.8264 11.9996 46.1437C13.083 48.7686 14.6733 51.1541 16.6796 53.1637C20.7413 57.2307 26.2518 59.5183 31.9996 59.5237C37.7336 59.5077 43.2278 57.2209 47.2796 53.1637C49.3003 51.1576 50.9044 48.7719 51.9996 46.1437C54.1866 40.8264 54.1866 34.8609 51.9996 29.5437ZM48.2996 44.6037C47.4149 46.7489 46.1169 48.6992 44.4796 50.3437C42.8525 51.9883 40.915 53.2935 38.7796 54.1837C34.4626 55.9638 29.6166 55.9638 25.2996 54.1837C23.1642 53.2935 21.2268 51.9883 19.5996 50.3437C17.1352 47.8674 15.4577 44.718 14.7781 41.2911C14.0984 37.8643 14.4468 34.313 15.7796 31.0837C17.5639 26.7588 20.9861 23.3151 25.2996 21.5037C29.6153 19.7169 34.4639 19.7169 38.7796 21.5037C40.915 22.3939 42.8525 23.6991 44.4796 25.3437C46.944 27.8199 48.6215 30.9694 49.3012 34.3962C49.9809 37.823 49.6324 41.3743 48.2996 44.6037Z" fill="#2D373D"/>
<path d="M39.0996 31.4838C39.56 31.7959 40.1034 31.9627 40.6596 31.9627C41.2158 31.9627 41.7592 31.7959 42.2196 31.4838C42.6946 31.1886 43.0599 30.7461 43.2596 30.2238C43.4823 29.7141 43.5383 29.1471 43.4196 28.6038C43.3181 28.0578 43.053 27.5557 42.6596 27.1638C42.4015 26.8928 42.0876 26.6813 41.7396 26.5438C41.3975 26.4007 41.0304 26.3271 40.6596 26.3271C40.2888 26.3271 39.9217 26.4007 39.5796 26.5438C39.1591 26.7169 38.7866 26.9893 38.4941 27.3375C38.2016 27.6858 37.9976 28.0996 37.8996 28.5438C37.7905 29.081 37.8463 29.6387 38.0596 30.1438C38.241 30.6972 38.6085 31.1707 39.0996 31.4838Z" fill="#2D373D"/>
<path d="M42.6541 40.0804C43.1144 40.3926 43.6579 40.5594 44.2141 40.5594C44.7703 40.5594 45.3137 40.3926 45.7741 40.0804C46.249 39.7853 46.6143 39.3428 46.8141 38.8204C47.0367 38.3108 47.0927 37.7438 46.9741 37.2004C46.8725 36.6545 46.6075 36.1523 46.2141 35.7604C45.956 35.4895 45.6421 35.2779 45.2941 35.1404C44.952 34.9974 44.5849 34.9238 44.2141 34.9238C43.8433 34.9238 43.4762 34.9974 43.1341 35.1404C42.7135 35.3136 42.3411 35.5859 42.0485 35.9342C41.756 36.2825 41.5521 36.6963 41.4541 37.1404C41.3449 37.6777 41.4007 38.2354 41.6141 38.7404C41.7955 39.2939 42.163 39.7674 42.6541 40.0804Z" fill="#2D373D"/>
<path d="M39.2541 48.8802C39.7144 49.1924 40.2579 49.3592 40.8141 49.3592C41.3703 49.3592 41.9137 49.1924 42.3741 48.8802C42.849 48.5851 43.2143 48.1426 43.4141 47.6202C43.6367 47.1106 43.6927 46.5436 43.5741 46.0002C43.4725 45.4543 43.2075 44.9521 42.8141 44.5602C42.556 44.2893 42.2421 44.0777 41.8941 43.9402C41.552 43.7972 41.1849 43.7236 40.8141 43.7236C40.4433 43.7236 40.0762 43.7972 39.7341 43.9402C39.3135 44.1134 38.9411 44.3858 38.6485 44.734C38.356 45.0823 38.1521 45.4961 38.0541 45.9402C37.9449 46.4775 38.0007 47.0352 38.2141 47.5402C38.3955 48.0937 38.763 48.5672 39.2541 48.8802Z" fill="#2D373D"/>
<path d="M30.454 52.4803C30.9144 52.7925 31.4578 52.9593 32.014 52.9593C32.5703 52.9593 33.1137 52.7925 33.574 52.4803C34.049 52.1852 34.4143 51.7427 34.614 51.2203C34.8367 50.7107 34.8927 50.1437 34.774 49.6003C34.6725 49.0544 34.4074 48.5522 34.014 48.1603C33.756 47.8894 33.442 47.6778 33.094 47.5403C32.7519 47.3973 32.3848 47.3237 32.014 47.3237C31.6433 47.3237 31.2762 47.3973 30.934 47.5403C30.5135 47.7135 30.1411 47.9859 29.8485 48.3341C29.556 48.6824 29.352 49.0962 29.254 49.5403C29.1449 50.0776 29.2007 50.6353 29.414 51.1403C29.5955 51.6938 29.9629 52.1673 30.454 52.4803Z" fill="#2D373D"/>
<path d="M21.8541 48.8802C22.3144 49.1924 22.8579 49.3592 23.4141 49.3592C23.9703 49.3592 24.5137 49.1924 24.9741 48.8802C25.4491 48.5851 25.8143 48.1426 26.0141 47.6202C26.2367 47.1106 26.2927 46.5436 26.1741 46.0002C26.0725 45.4543 25.8075 44.9521 25.4141 44.5602C25.156 44.2893 24.8421 44.0777 24.4941 43.9402C24.152 43.7972 23.7849 43.7236 23.4141 43.7236C23.0433 43.7236 22.6762 43.7972 22.3341 43.9402C21.9135 44.1134 21.5411 44.3858 21.2486 44.734C20.956 45.0823 20.7521 45.4961 20.6541 45.9402C20.5449 46.4775 20.6007 47.0352 20.8141 47.5402C20.9955 48.0937 21.363 48.5672 21.8541 48.8802Z" fill="#2D373D"/>
<path d="M18.2541 40.1803C18.7144 40.4925 19.2579 40.6593 19.8141 40.6593C20.3703 40.6593 20.9137 40.4925 21.3741 40.1803C21.849 39.8852 22.2143 39.4427 22.4141 38.9203C22.6367 38.4107 22.6927 37.8437 22.5741 37.3003C22.4725 36.7544 22.2075 36.2522 21.8141 35.8603C21.556 35.5894 21.2421 35.3778 20.8941 35.2403C20.552 35.0973 20.1849 35.0237 19.8141 35.0237C19.4433 35.0237 19.0762 35.0973 18.7341 35.2403C18.3135 35.4135 17.9411 35.6859 17.6485 36.0341C17.356 36.3824 17.1521 36.7962 17.0541 37.2403C16.9449 37.7776 17.0007 38.3353 17.2141 38.8403C17.3955 39.3938 17.763 39.8673 18.2541 40.1803Z" fill="#2D373D"/>
<path d="M21.8541 31.4803C22.3144 31.7925 22.8579 31.9593 23.4141 31.9593C23.9703 31.9593 24.5137 31.7925 24.9741 31.4803C25.4491 31.1852 25.8143 30.7427 26.0141 30.2203C26.2367 29.7107 26.2927 29.1437 26.1741 28.6003C26.0725 28.0544 25.8075 27.5522 25.4141 27.1603C25.156 26.8894 24.8421 26.6778 24.4941 26.5403C24.152 26.3973 23.7849 26.3237 23.4141 26.3237C23.0433 26.3237 22.6762 26.3973 22.3341 26.5403C21.9135 26.7135 21.5411 26.9859 21.2486 27.3341C20.956 27.6824 20.7521 28.0962 20.6541 28.5403C20.5449 29.0776 20.6007 29.6353 20.8141 30.1403C20.9955 30.6938 21.363 31.1673 21.8541 31.4803Z" fill="#2D373D"/>
<path d="M30.454 27.8803C30.9144 28.1925 31.4578 28.3593 32.014 28.3593C32.5703 28.3593 33.1137 28.1925 33.574 27.8803C34.049 27.5852 34.4143 27.1427 34.614 26.6203C34.8367 26.1107 34.8927 25.5437 34.774 25.0003C34.6725 24.4544 34.4074 23.9522 34.014 23.5603C33.756 23.2894 33.442 23.0778 33.094 22.9403C32.7519 22.7973 32.3848 22.7237 32.014 22.7237C31.6433 22.7237 31.2762 22.7973 30.934 22.9403C30.5135 23.1135 30.1411 23.3859 29.8485 23.7341C29.556 24.0824 29.352 24.4962 29.254 24.9403C29.1449 25.4776 29.2007 26.0353 29.414 26.5403C29.5955 27.0938 29.9629 27.5673 30.454 27.8803Z" fill="#2D373D"/>
</svg>
