<svg width="32" height="33" viewBox="0 0 32 33" fill="none" xmlns="http://www.w3.org/2000/svg">
<path d="M27.0998 21.7613L23.6998 11.0613H27.0998C27.5998 11.0613 28.0998 10.6613 28.0998 10.0613C28.0998 9.46133 27.6998 9.06133 27.0998 9.06133H16.9998V5.36133C16.9998 4.76133 16.5998 4.36133 15.9998 4.36133C15.3998 4.36133 14.9998 4.76133 14.9998 5.36133V9.06133H4.8998C4.2998 9.06133 3.8998 9.46133 3.8998 10.0613C3.8998 10.6613 4.2998 11.0613 4.8998 11.0613H8.1998L4.7998 21.7613C4.1998 21.7613 3.7998 22.1613 3.7998 22.7613C3.7998 25.9613 6.3998 28.5613 9.5998 28.5613C12.7998 28.5613 15.3998 25.9613 15.2998 22.7613C15.2998 22.1613 14.8998 21.8613 14.3998 21.7613L10.9998 11.0613H20.8998L17.4998 21.7613C16.8998 21.7613 16.4998 22.1613 16.4998 22.7613C16.4998 25.9613 19.0998 28.5613 22.2998 28.5613C25.4998 28.5613 28.0998 25.9613 27.9998 22.7613C27.9998 22.2613 27.6998 21.8613 27.0998 21.7613ZM9.5998 13.4613L12.1998 21.7613H6.9998L9.5998 13.4613ZM9.5998 26.5613C7.8998 26.5613 6.4998 25.3613 5.9998 23.7613H13.1998C12.7998 25.3613 11.2998 26.5613 9.5998 26.5613ZM22.2998 13.4613L24.8998 21.7613H19.6998L22.2998 13.4613ZM22.2998 26.5613C20.5998 26.5613 19.0998 25.3613 18.6998 23.7613H25.8998C25.4998 25.3613 23.9998 26.5613 22.2998 26.5613Z" fill="#2D373D"/>
</svg>
