<svg width="64" height="65" viewBox="0 0 64 65" fill="none" xmlns="http://www.w3.org/2000/svg">
<path d="M37.8 19.2603H23C21.8 19.2603 21 20.0603 21 21.2603C21 22.4603 21.8 23.2603 23 23.2603H37.8C39 23.2603 39.8 22.4603 39.8 21.2603C39.8 20.0603 39 19.2603 37.8 19.2603Z" fill="#2D373D"/>
<path d="M37.8 30.0601H23C21.8 30.0601 21 30.8601 21 32.0601C21 33.2601 21.8 34.0601 23 34.0601H37.8C39 34.0601 39.8 33.2601 39.8 32.0601C39.8 30.8601 39 30.0601 37.8 30.0601Z" fill="#2D373D"/>
<path d="M37.8 41.46H23C21.8 41.46 21 42.26 21 43.46C21 44.66 21.8 45.46 23 45.46H37.8C39 45.46 39.8 44.66 39.8 43.46C39.8 42.26 39 41.46 37.8 41.46Z" fill="#2D373D"/>
<path d="M51.9997 5.66016H22.1997C17.3997 5.66016 13.5997 9.46016 13.5997 14.2602V47.2602C13.5997 52.6602 11.1997 54.0602 8.1997 55.2602C7.3997 55.6602 6.7997 56.4602 6.9997 57.4602C7.1997 58.4602 7.9997 59.0602 8.9997 59.0602H35.3997C41.9997 59.0602 47.1997 53.8602 47.1997 47.2602V24.4602H52.9997C55.3997 24.4602 57.1997 22.6602 57.1997 20.2602V10.8602C57.1997 8.06016 54.9997 5.66016 51.9997 5.66016ZM43.1997 47.2602C43.1997 51.4602 39.7997 55.0602 35.3997 55.0602H15.3997C16.7997 53.4602 17.5997 50.8602 17.5997 47.2602V14.2602C17.5997 11.6602 19.5997 9.66016 22.1997 9.66016H43.3997C43.3997 10.0602 43.1997 10.4602 43.1997 10.8602V47.2602ZM53.1997 20.2602C53.1997 20.4602 53.1997 20.4602 52.9997 20.4602H47.1997V10.8602C47.1997 10.2602 47.7997 9.66016 48.5997 9.66016H51.9997C52.5997 9.66016 53.1997 10.0602 53.1997 10.8602V20.2602Z" fill="#2D373D"/>
</svg>
