<svg width="64" height="65" viewBox="0 0 64 65" fill="none" xmlns="http://www.w3.org/2000/svg">
<path d="M46 30.462H45.5999C43.7999 30.462 42.2 29.462 41.4 27.862L41 27.062C39.6 24.662 37.4 22.462 34.7999 21.462C33.7999 20.862 32.6 21.462 32.2 22.462C31.8 23.462 32.4 24.662 33.2 25.262C34.8 26.062 36.4 27.262 37.2 29.062L37.5999 29.862C39.1999 32.862 42.2 34.662 45.4 34.662H45.7999C46.3999 34.662 47 35.262 47 35.862C47 36.662 46.3999 37.262 45.7999 37.262H45.4C41.6 37.262 38 35.262 36 32.062C35.6 31.262 34.5999 31.062 33.7999 31.262C33 31.662 32.4 32.462 32.4 33.262V54.262C32.4 54.862 31.8 55.462 31.2 55.462C30.8 55.462 30.4 55.262 30.2 55.062C30 54.662 29.7999 54.462 29.7999 54.062V44.062C29.7999 42.862 29 42.062 27.7999 42.062C26.5999 42.062 25.7999 42.862 25.7999 44.062V54.062C25.7999 54.662 25.2 55.262 24.6 55.262C24.2 55.262 23.8 55.062 23.6 54.862C23.4 54.662 23.2 54.462 23.2 54.062V44.062C23.2 42.862 22.4 42.062 21.2 42.062C20 42.062 19.2 42.862 19.2 44.062V54.062C19.2 55.662 19.7999 56.862 20.7999 57.862C21.7999 58.862 23.2 59.262 24.6 59.262C25.8 59.262 26.9999 58.662 27.7999 58.062C28.7999 58.862 30 59.262 31.2 59.262C34.2 59.062 36.4 56.862 36.4 54.062V38.062C39 40.062 42 41.062 45.4 41.062H46C49 41.062 51.2 38.662 51.2 35.662C51.2 32.862 48.7999 30.462 46 30.462Z" fill="#2D373D"/>
<path d="M26.0001 39.4621C28.8001 39.4621 31.2001 37.0621 31.2001 34.2621C31.2001 32.8621 30.8001 31.4621 29.8001 30.4621C29.0001 29.6621 28.0001 29.2621 27.0001 29.0621L29.6001 23.2621C29.8001 22.4621 29.8001 21.6621 29.2001 21.0621C32.8001 20.4621 35.6001 17.0621 35.6001 13.4621C35.6001 9.06211 32.0001 5.66211 27.8001 5.66211C23.6001 5.66211 20.0001 9.06211 20.0001 13.4621C20.0001 17.2621 22.8001 20.4621 26.4001 21.0621C26.2001 21.2621 26.2001 21.4621 26.0001 21.6621L22.6001 29.4621C22.2001 29.8621 22.0001 30.2621 22.0001 30.8621L20.0001 35.4621H18.0001C17.2001 35.4621 16.6001 34.8621 16.6001 34.0621V32.4621C16.6001 29.0621 18.8001 26.0621 22.0001 25.0621C23.0001 24.6621 23.6001 23.4621 23.2001 22.4621C22.8001 21.4621 21.6001 20.8621 20.6001 21.2621C15.8001 22.8621 12.6001 27.2621 12.6001 32.4621V34.0621C12.6001 37.0621 15.0001 39.4621 18.0001 39.4621H26.0001ZM26.0001 32.8621C26.4001 32.8621 26.8001 33.0621 27.0001 33.2621C27.2001 33.6621 27.4001 33.8621 27.4001 34.2621C27.4001 34.8621 26.8001 35.4621 26.2001 35.4621H24.2001L25.4001 32.8621H26.0001ZM24.0001 13.4621C24.0001 11.4621 25.8001 9.66211 27.8001 9.66211C30.0001 9.66211 31.6001 11.4621 31.6001 13.4621C31.6001 15.4621 29.8001 17.2621 27.8001 17.2621C25.8001 17.2621 24.0001 15.4621 24.0001 13.4621Z" fill="#2D373D"/>
</svg>
