<svg width="16" height="17" viewBox="0 0 16 17" fill="none" xmlns="http://www.w3.org/2000/svg">
<path fill-rule="evenodd" clip-rule="evenodd" d="M10.2883 2.94198C10.9624 2.87141 11.6421 3.00763 12.2369 3.33255C12.3751 3.40806 12.4697 3.54429 12.4921 3.7002C12.5145 3.8561 12.4622 4.01346 12.3508 4.12486L10.8602 5.61591V6.06303H11.3073L12.799 4.57178C12.9105 4.4605 13.0678 4.4082 13.2237 4.43065C13.3795 4.4531 13.5157 4.54766 13.5912 4.68586C13.9161 5.2807 14.0523 5.96033 13.9818 6.63445C13.9112 7.30856 13.6372 7.94524 13.1961 8.4599C12.755 8.97456 12.1678 9.34282 11.5125 9.51577C10.9624 9.66093 10.3862 9.66272 9.83819 9.52353L4.94585 14.4178C4.62224 14.7414 4.18326 14.9232 3.7256 14.9232C3.26794 14.9232 2.82903 14.7414 2.50542 14.4178C2.1818 14.0942 2 13.6553 2 13.1976C2 12.74 2.1818 12.3011 2.50542 11.9775L7.39923 7.08555C7.26004 6.53759 7.26183 5.96136 7.40699 5.41128C7.57993 4.75592 7.9482 4.1687 8.46286 3.72763C8.97751 3.28657 9.6142 3.01255 10.2883 2.94198ZM11.0928 3.96885C10.8636 3.92323 10.6275 3.91194 10.3924 3.93655C9.92017 3.98598 9.47413 4.17795 9.11359 4.48694C8.75304 4.79593 8.49505 5.20732 8.37389 5.66644C8.25273 6.12556 8.27414 6.61068 8.43528 7.05734C8.50106 7.23967 8.45553 7.4436 8.31844 7.58064L3.21252 12.6846C3.07645 12.8206 3 13.0052 3 13.1976C3 13.3901 3.07645 13.5746 3.21252 13.7107C3.3486 13.8468 3.53316 13.9232 3.7256 13.9232C3.91804 13.9232 4.1026 13.8468 4.23868 13.7107L9.34311 8.60432C9.48015 8.46723 9.68407 8.4217 9.86641 8.48748C10.3131 8.64861 10.7982 8.67003 11.2573 8.54887C11.7164 8.42771 12.1278 8.16972 12.4368 7.80917C12.7458 7.44862 12.9378 7.00259 12.9872 6.53033C13.0118 6.29524 13.0005 6.05919 12.9549 5.82998L11.8679 6.91664C11.7741 7.01038 11.647 7.06303 11.5144 7.06303H10.3602C10.0841 7.06303 9.86022 6.83918 9.86022 6.56303V5.40884C9.86022 5.27626 9.91287 5.14911 10.0066 5.05534L11.0928 3.96885Z" fill="#2D373D"/>
</svg>
