<svg width="32" height="33" viewBox="0 0 32 33" fill="none" xmlns="http://www.w3.org/2000/svg">
<path d="M15.9927 25.9232C12.8708 25.9232 10.336 23.3898 10.336 20.2698C10.336 16.8165 11.7769 15.2032 11.937 15.0298C12.1371 14.8165 12.4039 14.6965 12.7108 14.7232C13.0043 14.7232 13.2711 14.8698 13.4445 15.0965L14.3517 16.2432C15.9794 11.9232 16.0461 11.9232 16.7398 11.9232C17.1134 11.9232 17.3402 12.0432 18.1273 12.8298C19.208 13.9098 21.7028 16.8165 21.6761 20.2832C21.6761 23.3898 19.1279 25.9232 15.9927 25.9232ZM12.8041 17.4965C12.564 18.1232 12.3372 19.0432 12.3372 20.2698C12.3372 22.2832 13.9782 23.9232 15.9927 23.9232C18.0073 23.9232 19.6749 22.2832 19.6749 20.2698C19.6883 17.9898 18.1807 15.8432 17.1134 14.6565C16.7131 15.6965 16.1395 17.2032 15.6192 18.6032C15.4991 18.9365 15.1922 19.1898 14.832 19.2432C14.4718 19.2965 14.1116 19.1632 13.8981 18.8698L12.8041 17.4965Z" fill="#2D373D"/>
<path d="M15.9794 30.2565C10.2159 30.2565 5.33301 25.5232 5.33301 19.9232C5.33301 13.3098 11.0297 7.16318 11.2699 6.90984C11.47 6.69651 11.7368 6.56318 12.0303 6.58984C12.3105 6.58984 12.5907 6.72318 12.7641 6.94984L13.8848 8.29651C16.7932 3.58984 16.8466 3.58984 17.4869 3.58984C17.8472 3.58984 17.9939 3.58984 19.248 4.85651C21.009 6.62984 26.7325 12.9365 26.6658 19.9365C26.6658 25.5232 21.7695 30.2565 15.966 30.2565H15.9794ZM12.0037 9.13651C10.5228 10.9632 7.34755 15.4298 7.34755 19.9232C7.34755 24.4165 11.3099 28.2565 15.9927 28.2565C20.6755 28.2565 24.6913 24.4432 24.6913 19.9232C24.7446 13.9098 19.7283 8.08318 17.6737 6.06984C17.0067 7.08318 15.886 8.86984 14.872 10.5232C14.6986 10.8032 14.4184 10.9765 14.0982 10.9898C13.7781 11.0165 13.4712 10.8832 13.2577 10.6298L12.0037 9.13651Z" fill="#2D373D"/>
</svg>
