<svg width="64" height="65" viewBox="0 0 64 65" fill="none" xmlns="http://www.w3.org/2000/svg">
<path d="M42.0998 39.96C41.6394 39.487 41.0845 39.1155 40.4709 38.8696C39.2394 38.3642 37.8573 38.3642 36.6258 38.8696C36.0122 39.1155 35.4573 39.487 34.997 39.96C34.7957 40.1413 34.534 40.2417 34.2626 40.2417C33.9913 40.2417 33.7296 40.1413 33.5283 39.96L24.9836 31.4225C24.7976 31.2294 24.6937 30.9721 24.6937 30.7044C24.6937 30.4368 24.7976 30.1795 24.9836 29.9863C25.441 29.5135 25.8116 28.9644 26.0784 28.3639C26.3205 27.754 26.4472 27.1048 26.4522 26.449C26.4469 25.7846 26.3202 25.1267 26.0784 24.5074C25.8116 23.907 25.441 23.3579 24.9836 22.885L19.6432 17.5657C18.6852 16.6583 17.4138 16.1523 16.0918 16.1523C14.7698 16.1523 13.4984 16.6583 12.5404 17.5657L11.2854 18.8424C9.48754 20.6132 8.35524 22.9457 8.07816 25.4489C7.80107 27.9522 8.39602 30.4743 9.76336 32.5928C12.2165 36.4367 15.0815 40.0038 18.3081 43.2314L21.7527 46.6623C24.9992 49.8771 28.5796 52.739 32.4335 55.1998C34.2192 56.3115 36.2824 56.9013 38.3881 56.902C38.7882 56.9285 39.1897 56.9285 39.5897 56.902C42.1007 56.6231 44.4435 55.5078 46.2386 53.737L47.4936 52.4604C47.9603 51.996 48.3305 51.4446 48.583 50.8376C48.8356 50.2307 48.9656 49.5801 48.9656 48.923C48.9656 48.266 48.8356 47.6154 48.583 47.0085C48.3305 46.4015 47.9603 45.8501 47.4936 45.3857L42.0998 39.96ZM44.6098 49.5348L43.3548 50.8114C42.2028 51.9341 40.7097 52.645 39.1091 52.8327C37.5429 52.965 35.9764 52.5819 34.6498 51.7423C31.0415 49.4609 27.7008 46.7846 24.6899 43.7633L21.1118 40.359C18.0883 37.3416 15.4023 34.0064 13.1011 30.4119C12.2397 29.06 11.872 27.454 12.0597 25.8639C12.2252 24.2707 12.9428 22.7848 14.0891 21.6616L15.3441 20.385C15.5102 20.2217 15.7264 20.1186 15.9583 20.0924C16.0921 20.09 16.225 20.1147 16.3489 20.165C16.4728 20.2153 16.5852 20.2901 16.6792 20.385L22.0197 25.7043C22.1118 25.7952 22.1844 25.9038 22.2333 26.0234C22.2586 26.1552 22.2586 26.2906 22.2333 26.4224C22.2609 26.545 22.2609 26.6721 22.2333 26.7947C22.178 26.919 22.1061 27.0353 22.0197 27.1405C21.553 27.6049 21.1828 28.1563 20.9302 28.7632C20.6776 29.3702 20.5476 30.0208 20.5476 30.6778C20.5476 31.3349 20.6776 31.9855 20.9302 32.5924C21.1828 33.1994 21.553 33.7508 22.0197 34.2152L30.5644 42.7526C31.5424 43.62 32.8063 44.0993 34.1158 44.0993C35.4253 44.0993 36.6892 43.62 37.6672 42.7526C37.7648 42.6495 37.883 42.5679 38.0143 42.5133C38.2731 42.4198 38.5566 42.4198 38.8154 42.5133C38.9344 42.5755 39.0426 42.6563 39.1358 42.7526L44.4762 48.0719C44.6623 48.2651 44.7662 48.5224 44.7662 48.7901C44.7662 49.0577 44.6623 49.315 44.4762 49.5082L44.6098 49.5348Z" fill="#2D373D"/>
<path d="M54.9435 16.0231C54.6176 15.699 54.2302 15.4427 53.8038 15.2692C53.3775 15.0957 52.9208 15.0084 52.4602 15.0125H49.79V12.3528C49.7639 11.4602 49.3999 10.6104 48.7709 9.97402C48.1419 9.33765 47.2945 8.96178 46.3988 8.92188H40.3374C39.4094 8.92525 38.519 9.28763 37.8541 9.93254C37.2073 10.606 36.8442 11.5007 36.8394 12.4326V15.0923H34.1692C33.24 15.09 32.3476 15.4532 31.6859 16.1029C31.3568 16.4262 31.0954 16.8113 30.9167 17.2359C30.7379 17.6604 30.6454 18.116 30.6445 18.5764V24.534C30.6454 24.9944 30.7379 25.45 30.9167 25.8746C31.0954 26.2991 31.3568 26.6842 31.6859 27.0075C32.3449 27.6646 33.2368 28.0371 34.1692 28.0448H36.8394V30.7044C36.8353 31.1631 36.923 31.6181 37.0972 32.0427C37.2714 32.4674 37.5287 32.8533 37.8541 33.1779C38.519 33.8228 39.4094 34.1852 40.3374 34.1886H46.3988C47.328 34.1909 48.2204 33.8276 48.8821 33.1779C49.2112 32.8546 49.4726 32.4695 49.6513 32.045C49.8301 31.6204 49.9226 31.1648 49.9235 30.7044V28.0448H52.5937C53.5121 28.0238 54.3854 27.6439 55.0249 26.987C55.6645 26.3301 56.0189 25.449 56.0116 24.534V18.4966C56.0087 18.0341 55.9127 17.5769 55.7292 17.1521C55.5458 16.7272 55.2786 16.3433 54.9435 16.0231ZM51.9529 24.0021H48.0009C47.737 23.9985 47.4749 24.0477 47.2303 24.1467C46.9857 24.2456 46.7635 24.3924 46.5768 24.5784C46.3902 24.7643 46.2428 24.9856 46.1434 25.2293C46.044 25.4729 45.9947 25.7339 45.9983 25.9968V30.1991H40.9249V26.05C40.9249 25.521 40.7139 25.0136 40.3383 24.6395C39.9627 24.2655 39.4533 24.0553 38.9222 24.0553H34.7833V19.002H38.8421C39.1132 18.9986 39.3809 18.9412 39.6294 18.8331C39.8778 18.725 40.102 18.5683 40.2887 18.3725C40.4754 18.1766 40.6208 17.9455 40.7163 17.6927C40.8118 17.44 40.8555 17.1707 40.8447 16.9008V12.9645H45.9182V16.9008C45.9182 17.4299 46.1292 17.9372 46.5047 18.3113C46.8803 18.6854 47.3897 18.8956 47.9208 18.8956H51.9529V24.0021Z" fill="#2D373D"/>
</svg>
