<svg width="24" height="25" viewBox="0 0 24 25" fill="none" xmlns="http://www.w3.org/2000/svg">
<path fill-rule="evenodd" clip-rule="evenodd" d="M12.0006 5.70757C11.1226 4.70902 9.87409 3.86434 8.4658 3.57142C6.59634 3.18257 4.56112 3.79165 2.90057 6.00571L2.90056 6.0057L2.89769 6.00957C2.01112 7.20764 1.8349 8.51806 2.14687 9.83991C2.45009 11.1246 3.20999 12.4126 4.17037 13.6652C5.59714 15.5262 7.59794 17.4672 9.54076 19.352C10.1988 19.9903 10.8501 20.6222 11.4702 21.2424C11.6109 21.383 11.8017 21.462 12.0006 21.462C12.1995 21.462 12.3902 21.383 12.5309 21.2424C13.151 20.6222 13.8024 19.9903 14.4604 19.352C16.4032 17.4672 18.404 15.5262 19.8308 13.6652C20.7912 12.4126 21.5511 11.1246 21.8543 9.83991C22.1662 8.51806 21.99 7.20764 21.1035 6.00957L21.1035 6.00956L21.1006 6.00571C19.44 3.79165 17.4048 3.18257 15.5353 3.57142C14.127 3.86434 12.8785 4.70902 12.0006 5.70757ZM4.10205 6.90374C5.4411 5.11951 6.90527 4.77893 8.16034 5.03999C9.48969 5.31649 10.7038 6.29597 11.3646 7.3532C11.5016 7.57249 11.742 7.7057 12.0006 7.7057C12.2592 7.7057 12.4995 7.57249 12.6366 7.3532C13.2973 6.29597 14.5115 5.31649 15.8408 5.03999C17.0959 4.77893 18.5601 5.11953 19.8992 6.90384C20.4913 7.70518 20.6172 8.55118 20.3944 9.49536C20.1626 10.4775 19.55 11.5661 18.6404 12.7525C17.2866 14.5183 15.4068 16.3423 13.4882 18.2039C12.9921 18.6853 12.4934 19.1692 12.0006 19.6553C11.5077 19.1692 11.009 18.6853 10.5129 18.2039C8.59435 16.3423 6.71453 14.5183 5.36077 12.7525C4.45115 11.5661 3.83855 10.4775 3.60677 9.49536C3.38392 8.55114 3.50982 7.70511 4.10205 6.90374Z" fill="#2D373D"/>
</svg>
