<svg width="16" height="17" viewBox="0 0 16 17" fill="none" xmlns="http://www.w3.org/2000/svg">
<path d="M12.9999 8.07781C12.7568 7.48592 12.4096 6.94234 11.9749 6.47281L12.3299 6.11281C12.4372 6.1527 12.5549 6.15458 12.6634 6.11814C12.7719 6.08171 12.8646 6.00915 12.926 5.9126C12.9874 5.81605 13.0139 5.70134 13.001 5.58763C12.988 5.47392 12.9365 5.36809 12.8549 5.28781L12.6599 5.09281L12.4649 4.89281C12.4184 4.84595 12.3631 4.80875 12.3022 4.78337C12.2413 4.75798 12.1759 4.74491 12.1099 4.74491C12.0439 4.74491 11.9785 4.75798 11.9176 4.78337C11.8567 4.80875 11.8014 4.84595 11.7549 4.89281C11.6825 4.95792 11.6307 5.04276 11.6058 5.13692C11.5809 5.23107 11.5841 5.33043 11.6149 5.42281L11.2199 5.81781C10.427 5.22282 9.48633 4.85623 8.49991 4.75781V3.25781H9.22491C9.35752 3.25781 9.48469 3.20513 9.57846 3.11137C9.67223 3.0176 9.72491 2.89042 9.72491 2.75781C9.72491 2.6252 9.67223 2.49803 9.57846 2.40426C9.48469 2.31049 9.35752 2.25781 9.22491 2.25781H6.77491C6.6423 2.25781 6.51512 2.31049 6.42135 2.40426C6.32758 2.49803 6.27491 2.6252 6.27491 2.75781C6.27491 2.89042 6.32758 3.0176 6.42135 3.11137C6.51512 3.20513 6.6423 3.25781 6.77491 3.25781H7.49991V4.75781C6.2448 4.87708 5.07064 5.43056 4.17991 6.32281C3.67474 6.82432 3.27372 7.42076 2.99991 8.07781C2.45316 9.40712 2.45316 10.8985 2.99991 12.2278C3.27075 12.884 3.66834 13.4804 4.16991 13.9828C5.18532 14.9996 6.56294 15.5715 7.99991 15.5728C9.4334 15.5688 10.8069 14.9971 11.8199 13.9828C12.3251 13.4813 12.7261 12.8849 12.9999 12.2278C13.5467 10.8985 13.5467 9.40712 12.9999 8.07781ZM12.0749 11.8428C11.8537 12.3791 11.5292 12.8667 11.1199 13.2778C10.7131 13.689 10.2288 14.0153 9.69491 14.2378C8.61565 14.6829 7.40416 14.6829 6.32491 14.2378C5.79106 14.0153 5.3067 13.689 4.89991 13.2778C4.2838 12.6588 3.86443 11.8714 3.69452 11.0147C3.5246 10.158 3.61171 9.27015 3.94491 8.46281C4.39097 7.3816 5.24651 6.52066 6.32491 6.06781C7.40383 5.62113 8.61598 5.62113 9.69491 6.06781C10.2288 6.29036 10.7131 6.61666 11.1199 7.02781C11.736 7.64687 12.1554 8.43424 12.3253 9.29094C12.4952 10.1477 12.4081 11.0355 12.0749 11.8428Z" fill="#2D373D"/>
<path d="M9.7749 8.56283C9.89 8.64086 10.0259 8.68257 10.1649 8.68257C10.304 8.68257 10.4398 8.64086 10.5549 8.56283C10.6736 8.48905 10.765 8.37841 10.8149 8.24783C10.8706 8.12042 10.8846 7.97868 10.8549 7.84283C10.8295 7.70635 10.7633 7.58081 10.6649 7.48283C10.6004 7.4151 10.5219 7.36221 10.4349 7.32783C10.3494 7.29208 10.2576 7.27367 10.1649 7.27367C10.0722 7.27367 9.98043 7.29208 9.8949 7.32783C9.78977 7.37113 9.69666 7.43921 9.62353 7.52628C9.55039 7.61334 9.4994 7.7168 9.4749 7.82783C9.44762 7.96215 9.46156 8.10158 9.5149 8.22783C9.56026 8.36619 9.65213 8.48457 9.7749 8.56283Z" fill="#2D373D"/>
<path d="M10.6635 10.712C10.7786 10.79 10.9145 10.8317 11.0535 10.8317C11.1926 10.8317 11.3284 10.79 11.4435 10.712C11.5623 10.6382 11.6536 10.5276 11.7035 10.397C11.7592 10.2696 11.7732 10.1278 11.7435 9.992C11.7181 9.85552 11.6519 9.72998 11.5535 9.632C11.489 9.56427 11.4105 9.51138 11.3235 9.477C11.238 9.44125 11.1462 9.42284 11.0535 9.42284C10.9608 9.42284 10.869 9.44125 10.7835 9.477C10.6784 9.5203 10.5853 9.58838 10.5121 9.67545C10.439 9.76251 10.388 9.86597 10.3635 9.977C10.3362 10.1113 10.3502 10.2507 10.4035 10.377C10.4489 10.5154 10.5407 10.6337 10.6635 10.712Z" fill="#2D373D"/>
<path d="M9.81352 12.912C9.92861 12.99 10.0645 13.0317 10.2035 13.0317C10.3426 13.0317 10.4784 12.99 10.5935 12.912C10.7123 12.8382 10.8036 12.7275 10.8535 12.597C10.9092 12.4695 10.9232 12.3278 10.8935 12.192C10.8681 12.0555 10.8019 11.9299 10.7035 11.832C10.639 11.7642 10.5605 11.7113 10.4735 11.677C10.388 11.6412 10.2962 11.6228 10.2035 11.6228C10.1108 11.6228 10.019 11.6412 9.93352 11.677C9.82838 11.7203 9.73527 11.7883 9.66214 11.8754C9.589 11.9625 9.53801 12.0659 9.51352 12.177C9.48623 12.3113 9.50018 12.4507 9.55352 12.577C9.59887 12.7153 9.69074 12.8337 9.81352 12.912Z" fill="#2D373D"/>
<path d="M7.61351 13.812C7.72861 13.89 7.86446 13.9317 8.00351 13.9317C8.14256 13.9317 8.27842 13.89 8.39351 13.812C8.51226 13.7382 8.60358 13.6276 8.65351 13.497C8.70917 13.3696 8.72317 13.2278 8.69351 13.092C8.66812 12.9555 8.60186 12.83 8.50351 12.732C8.43899 12.6642 8.36051 12.6114 8.27351 12.577C8.18799 12.5412 8.09621 12.5228 8.00351 12.5228C7.91081 12.5228 7.81904 12.5412 7.73351 12.577C7.62837 12.6203 7.53527 12.6884 7.46213 12.7754C7.389 12.8625 7.33801 12.9659 7.31351 13.077C7.28623 13.2113 7.30017 13.3507 7.35351 13.477C7.39886 13.6153 7.49074 13.7337 7.61351 13.812Z" fill="#2D373D"/>
<path d="M5.46352 12.912C5.57861 12.99 5.71447 13.0317 5.85352 13.0317C5.99257 13.0317 6.12842 12.99 6.24352 12.912C6.36226 12.8382 6.45358 12.7275 6.50352 12.597C6.55918 12.4695 6.57318 12.3278 6.54352 12.192C6.51813 12.0555 6.45187 11.9299 6.35352 11.832C6.289 11.7642 6.21052 11.7113 6.12352 11.677C6.03799 11.6412 5.94622 11.6228 5.85352 11.6228C5.76082 11.6228 5.66904 11.6412 5.58352 11.677C5.47838 11.7203 5.38527 11.7883 5.31214 11.8754C5.23901 11.9625 5.18802 12.0659 5.16352 12.177C5.13623 12.3113 5.15018 12.4507 5.20352 12.577C5.24887 12.7153 5.34074 12.8337 5.46352 12.912Z" fill="#2D373D"/>
<path d="M4.56352 10.737C4.67861 10.815 4.81446 10.8567 4.95352 10.8567C5.09257 10.8567 5.22842 10.815 5.34352 10.737C5.46226 10.6632 5.55358 10.5526 5.60352 10.422C5.65918 10.2946 5.67318 10.1528 5.64352 10.017C5.61812 9.8805 5.55187 9.75495 5.45352 9.65698C5.389 9.58925 5.31052 9.53636 5.22352 9.50198C5.13799 9.46622 5.04621 9.44781 4.95352 9.44781C4.86082 9.44781 4.76904 9.46622 4.68352 9.50198C4.57838 9.54527 4.48527 9.61336 4.41214 9.70042C4.339 9.78749 4.28801 9.89095 4.26352 10.002C4.23623 10.1363 4.25018 10.2757 4.30352 10.402C4.34887 10.5403 4.44074 10.6587 4.56352 10.737Z" fill="#2D373D"/>
<path d="M5.46352 8.56198C5.57861 8.64001 5.71447 8.68172 5.85352 8.68172C5.99257 8.68172 6.12842 8.64001 6.24352 8.56198C6.36226 8.48819 6.45358 8.37756 6.50352 8.24698C6.55918 8.11956 6.57318 7.97782 6.54352 7.84198C6.51813 7.7055 6.45187 7.57995 6.35352 7.48198C6.289 7.41425 6.21052 7.36136 6.12352 7.32698C6.03799 7.29122 5.94622 7.27281 5.85352 7.27281C5.76082 7.27281 5.66904 7.29122 5.58352 7.32698C5.47838 7.37027 5.38527 7.43836 5.31214 7.52542C5.23901 7.61248 5.18802 7.71595 5.16352 7.82698C5.13623 7.9613 5.15018 8.10072 5.20352 8.22698C5.24887 8.36534 5.34074 8.48371 5.46352 8.56198Z" fill="#2D373D"/>
<path d="M7.61351 7.66198C7.72861 7.74001 7.86446 7.78172 8.00351 7.78172C8.14256 7.78172 8.27842 7.74001 8.39351 7.66198C8.51226 7.58819 8.60358 7.47756 8.65351 7.34698C8.70917 7.21956 8.72317 7.07782 8.69351 6.94198C8.66812 6.8055 8.60186 6.67995 8.50351 6.58198C8.43899 6.51425 8.36051 6.46136 8.27351 6.42698C8.18799 6.39122 8.09621 6.37281 8.00351 6.37281C7.91081 6.37281 7.81904 6.39122 7.73351 6.42698C7.62837 6.47027 7.53527 6.53836 7.46213 6.62542C7.389 6.71248 7.33801 6.81595 7.31351 6.92698C7.28623 7.0613 7.30017 7.20072 7.35351 7.32698C7.39886 7.46534 7.49074 7.58371 7.61351 7.66198Z" fill="#2D373D"/>
</svg>
