<svg width="32" height="33" viewBox="0 0 32 33" fill="none" xmlns="http://www.w3.org/2000/svg">
<path d="M14.667 5.2526C14.667 5.62594 14.3737 5.91927 14.0003 5.91927H13.667V6.2526C13.667 6.62594 13.3737 6.91927 13.0003 6.91927C12.627 6.91927 12.3337 6.62594 12.3337 6.2526V5.91927H12.0003C11.627 5.91927 11.3337 5.62594 11.3337 5.2526C11.3337 4.87927 11.627 4.58594 12.0003 4.58594H12.3337V4.2526C12.3337 3.87927 12.627 3.58594 13.0003 3.58594C13.3737 3.58594 13.667 3.87927 13.667 4.2526V4.58594H14.0003C14.3737 4.58594 14.667 4.87927 14.667 5.2526Z" fill="#2D373D"/>
<path d="M11.667 19.5859V24.2526C11.667 24.7993 11.2137 25.2526 10.667 25.2526C10.1203 25.2526 9.66699 24.7993 9.66699 24.2526V19.5859C9.66699 19.0393 10.1203 18.5859 10.667 18.5859C11.2137 18.5859 11.667 19.0393 11.667 19.5859Z" fill="#2D373D"/>
<path d="M10.667 13.2513C10.1203 13.2513 9.66699 12.798 9.66699 12.2513V10.918C9.66699 10.3713 10.1203 9.91797 10.667 9.91797C11.2137 9.91797 11.667 10.3713 11.667 10.918V12.2513C11.667 12.798 11.2137 13.2513 10.667 13.2513Z" fill="#2D373D"/>
<path d="M23.027 7.06641H22.0003C21.4537 7.06641 21.0003 7.51974 21.0003 8.06641C21.0003 8.61307 21.4537 9.06641 22.0003 9.06641H23.027C23.147 9.06641 23.3337 9.26641 23.3337 9.58641V14.5864H8.66699V9.58641C8.66699 9.26641 8.85366 9.06641 8.98699 9.06641H11.3337C11.8803 9.06641 12.3337 8.62641 12.3337 8.06641C12.3337 7.50641 11.8803 7.06641 11.3337 7.06641H8.98699C7.70699 7.06641 6.66699 8.19974 6.66699 9.58641V26.3997C6.66699 27.7864 7.70699 28.9197 8.98699 28.9197H9.66699V29.2531C9.66699 29.7997 10.1203 30.2531 10.667 30.2531C11.2137 30.2531 11.667 29.7997 11.667 29.2531V28.9197H20.3337V29.2531C20.3337 29.7997 20.787 30.2531 21.3337 30.2531C21.8803 30.2531 22.3337 29.7997 22.3337 29.2531V28.9197H23.027C24.2937 28.9197 25.3337 27.7864 25.3337 26.3997V9.58641C25.3337 8.19974 24.2937 7.06641 23.027 7.06641ZM23.3337 26.3997C23.3337 26.7197 23.147 26.9197 23.027 26.9197H8.98699C8.85366 26.9197 8.66699 26.7197 8.66699 26.3997V16.5864H23.3337V26.3997Z" fill="#2D373D"/>
<path d="M20.0537 6.2526C19.547 6.2126 18.707 6.02594 18.467 5.78594C18.227 5.54594 18.0403 4.70594 18.0003 4.19927C17.9737 3.8526 17.6803 3.58594 17.3337 3.58594C16.987 3.58594 16.6937 3.8526 16.667 4.19927C16.627 4.70594 16.4403 5.54594 16.2003 5.78594C15.9603 6.02594 15.1203 6.2126 14.6137 6.2526C14.267 6.27927 14.0003 6.5726 14.0003 6.91927C14.0003 7.26594 14.267 7.55927 14.6137 7.58594C15.1203 7.62594 15.9603 7.8126 16.2003 8.0526C16.4403 8.2926 16.627 9.1326 16.667 9.63927C16.6937 9.98594 16.987 10.2526 17.3337 10.2526C17.6803 10.2526 17.9737 9.98594 18.0003 9.63927C18.0403 9.1326 18.227 8.30594 18.467 8.0526C18.707 7.8126 19.547 7.62594 20.0537 7.58594C20.4003 7.55927 20.667 7.26594 20.667 6.91927C20.667 6.5726 20.4003 6.27927 20.0537 6.2526ZM17.5337 7.11927C17.4537 7.18594 17.387 7.26594 17.3337 7.34594C17.2803 7.26594 17.2137 7.18594 17.1337 7.11927C17.067 7.03927 16.987 6.9726 16.907 6.91927C16.987 6.8526 17.067 6.79927 17.1337 6.71927C17.2137 6.6526 17.2803 6.5726 17.3337 6.4926C17.387 6.5726 17.4537 6.6526 17.5337 6.71927C17.6003 6.79927 17.6803 6.8526 17.7603 6.91927C17.6803 6.9726 17.6003 7.03927 17.5337 7.11927Z" fill="#2D373D"/>
</svg>
