<svg width="24" height="25" viewBox="0 0 24 25" fill="none" xmlns="http://www.w3.org/2000/svg">
<path d="M8.68428 2.91992H11.1993C11.0793 5.26205 10.9596 7.60424 10.8399 9.94642H7.19493L8.68428 2.91992Z" fill="#2D373D"/>
<path d="M16.8055 9.94642C16.309 7.60424 15.8125 5.26205 15.3157 2.91992H12.8007L13.1603 9.94642H16.8055Z" fill="#2D373D"/>
<path d="M13.3517 13.6855C13.5094 16.7637 13.6669 19.8417 13.8244 22.9198H19.5556C18.9691 20.1537 18.3828 17.3877 17.7966 14.6215L17.5983 13.6855H13.3517Z" fill="#2D373D"/>
<path d="M4.4444 22.9198H10.1756C10.3337 19.8417 10.4912 16.7637 10.6485 13.6855H6.4024C5.74995 16.7637 5.0974 19.8418 4.4444 22.9198Z" fill="#2D373D"/>
<path d="M21.7679 10.918C21.8961 10.918 22 11.0266 22 11.1606V12.4726C22 12.6066 21.8961 12.7152 21.7679 12.7152H20.5117V14.6803C20.5117 14.8143 20.4078 14.923 20.2795 14.923H19.0262C18.92 14.923 18.8273 14.8477 18.8012 14.7401L18.3089 12.7153H5.69109L5.19871 14.7401C5.17264 14.8476 5.08001 14.923 4.97384 14.923H3.72029C3.59211 14.923 3.48825 14.8143 3.48825 14.6803V12.7152H2.23209C2.10391 12.7152 2 12.6066 2 12.4726V11.1606C2 11.0266 2.10391 10.918 2.23209 10.918H21.7679Z" fill="#2D373D"/>
</svg>
