<svg width="32" height="33" viewBox="0 0 32 33" fill="none" xmlns="http://www.w3.org/2000/svg">
<path fill-rule="evenodd" clip-rule="evenodd" d="M20 11.7952H6.66667C6.29848 11.7952 6 12.0937 6 12.4619V25.7952C6 26.1634 6.29848 26.4619 6.66667 26.4619H20C20.3682 26.4619 20.6667 26.1634 20.6667 25.7952V12.4619C20.6667 12.0937 20.3682 11.7952 20 11.7952ZM6.66667 9.79525C5.19391 9.79525 4 10.9892 4 12.4619V25.7952C4 27.268 5.19391 28.4619 6.66667 28.4619H20C21.4728 28.4619 22.6667 27.268 22.6667 25.7952V12.4619C22.6667 10.9892 21.4728 9.79525 20 9.79525H6.66667Z" fill="#2D373D"/>
<path fill-rule="evenodd" clip-rule="evenodd" d="M25.6667 4.46191C26.9553 4.46191 28 5.50658 28 6.79525V20.1286C28 21.4172 26.9553 22.4619 25.6667 22.4619H24.6871C24.1348 22.4619 23.6871 22.0142 23.6871 21.4619C23.6871 20.9096 24.1348 20.4619 24.6871 20.4619H25.6667C25.8508 20.4619 26 20.3127 26 20.1286V6.79525C26 6.61115 25.8508 6.46191 25.6667 6.46191L12.3333 6.46191C12.1492 6.46191 12 6.61115 12 6.79525V7.77484C12 8.32712 11.5523 8.77484 11 8.77484C10.4477 8.77484 10 8.32712 10 7.77484V6.79525C10 5.50658 11.0447 4.46191 12.3333 4.46191L25.6667 4.46191Z" fill="#2D373D"/>
</svg>
