<svg width="16" height="17" viewBox="0 0 16 17" fill="none" xmlns="http://www.w3.org/2000/svg">
<path d="M14.55 6.91172C14.1 5.16172 13.05 3.71172 11.55 2.76172C10.45 2.11172 9.25 1.76172 8 1.76172C4.3 1.76172 1.3 4.76172 1.3 8.41172C1.3 9.61172 1.6 10.7617 2.2 11.7617L1.3 14.5117C1.25 14.6617 1.3 14.8617 1.45 15.0117C1.55 15.1117 1.65 15.1617 1.8 15.1617C1.85 15.1617 1.95 15.1617 2 15.1617L4.7 14.2617C6.2 15.1117 7.9 15.3617 9.55 14.9617C11.3 14.5117 12.75 13.4617 13.7 11.9617C14.65 10.4617 14.95 8.66172 14.55 6.91172ZM12.85 11.4117C12.05 12.7117 10.8 13.6117 9.3 13.9617C7.8 14.3117 6.3 14.0617 5 13.3117C4.95 13.2617 4.85 13.2117 4.75 13.2117C4.7 13.2117 4.6 13.2117 4.55 13.2117L2.55 13.8617L3.2 11.8117C3.25 11.6617 3.25 11.5117 3.15 11.4117C2.6 10.5117 2.3 9.46172 2.3 8.41172C2.3 5.31172 4.85 2.76172 8 2.76172C9.05 2.76172 10.1 3.06172 11 3.61172C12.3 4.41172 13.2 5.61172 13.55 7.11172C13.9 8.61172 13.65 10.1117 12.85 11.4117Z" fill="#2D373D"/>
<path d="M10.9999 6.21169C10.1999 5.41169 8.89995 5.41169 8.09995 6.21169L7.99995 6.31169L7.89995 6.21169C7.74995 6.06169 7.54995 5.91169 7.34995 5.81169C6.34995 5.26169 5.09995 5.71169 4.59995 6.71169C4.19995 7.46169 4.39995 8.46169 4.99995 9.06169L7.64995 11.8117C7.74995 11.9117 7.84995 11.9617 7.99995 11.9617C8.14995 11.9617 8.24995 11.8617 8.34995 11.7617L10.9999 9.16169C11.6499 8.51169 11.7999 7.56169 11.3999 6.76169C11.2999 6.56169 11.1499 6.36169 10.9999 6.21169ZM10.2499 8.36169L7.99995 10.7617L5.69995 8.36169C5.39995 8.01169 5.29995 7.51169 5.49995 7.11169C5.69995 6.71169 6.04995 6.51169 6.44995 6.51169C6.59995 6.51169 6.79995 6.56169 6.94995 6.61169C7.04995 6.66169 7.09995 6.71169 7.19995 6.81169L7.64995 7.26169C7.84995 7.46169 8.14995 7.46169 8.34995 7.26169L8.74995 6.86169C9.14995 6.46169 9.84995 6.46169 10.2499 6.86169C10.3499 6.91169 10.3999 7.01169 10.4499 7.11169C10.6499 7.56169 10.5999 8.01169 10.2499 8.36169Z" fill="#2D373D"/>
</svg>
