<svg width="16" height="17" viewBox="0 0 16 17" fill="none" xmlns="http://www.w3.org/2000/svg">
<path d="M5.5837 6.58497C5.90187 6.40091 6.27119 6.29541 6.66667 6.29541C7.7673 6.29541 8.67626 7.11609 8.815 8.17889C8.68873 8.10159 8.52155 8.11575 8.40991 8.22322C8.27729 8.3509 8.27327 8.56191 8.40095 8.69454L9.09448 9.41497C9.22215 9.54759 9.43317 9.55161 9.5658 9.42393L10.2862 8.7304C10.4189 8.60273 10.4229 8.39171 10.2952 8.25908C10.1683 8.12723 9.95896 8.12249 9.8262 8.24789C9.71607 6.59887 8.34359 5.29541 6.66667 5.29541C6.09071 5.29541 5.54925 5.44963 5.08297 5.71936C4.84394 5.85763 4.76226 6.1635 4.90053 6.40253C5.0388 6.64156 5.34467 6.72324 5.5837 6.58497Z" fill="#2D373D"/>
<path d="M3.53763 7.97285L3.53253 7.97628C3.37971 8.07892 3.17261 8.03824 3.06997 7.88542C2.96732 7.73259 3.008 7.52549 3.16083 7.42285L3.99097 6.86529C4.14379 6.76265 4.35089 6.80333 4.45353 6.95615L5.01109 7.78629C5.11373 7.93912 5.07305 8.14621 4.92023 8.24886C4.79141 8.33538 4.62403 8.32007 4.51315 8.22159C4.50447 8.30044 4.5 8.38067 4.5 8.46208C4.5 9.65869 5.47005 10.6287 6.66667 10.6287C7.17954 10.6287 7.64957 10.4512 8.0206 10.1537C8.23606 9.98102 8.55074 10.0157 8.72346 10.2311C8.89618 10.4466 8.86153 10.7613 8.64607 10.934C8.10403 11.3685 7.41505 11.6287 6.66667 11.6287C4.91777 11.6287 3.5 10.211 3.5 8.46208C3.5 8.29594 3.51284 8.13253 3.53763 7.97285Z" fill="#2D373D"/>
<path fill-rule="evenodd" clip-rule="evenodd" d="M1.5 5.12874C1.5 4.11622 2.32081 3.29541 3.33333 3.29541H10C11.0125 3.29541 11.8333 4.11622 11.8333 5.12874V5.62668L11.842 5.62024C12.0414 5.47127 12.2729 5.2984 12.5175 5.14384C13.0109 4.83196 13.5507 4.88845 13.9457 5.19616C14.3159 5.48458 14.5254 5.96156 14.5254 6.46207V8.7954L14.5232 10.4677C14.5226 10.9686 14.3124 11.4456 13.9413 11.7332C13.5452 12.0403 13.0049 12.0948 12.5123 11.7808C12.2695 11.6261 12.0398 11.4534 11.8418 11.3045L11.8333 11.2981V11.7954C11.8333 12.8079 11.0125 13.6287 10 13.6287H3.33333C2.32081 13.6287 1.5 12.8079 1.5 11.7954V5.12874ZM11.8333 10.078V6.84469C12.0191 6.73463 12.2101 6.59321 12.3858 6.46215L12.436 6.42472C12.6406 6.272 12.8417 6.12189 13.0517 5.98916C13.1285 5.94064 13.182 5.93441 13.2137 5.93615C13.247 5.93798 13.2868 5.95049 13.3312 5.98506C13.4257 6.05868 13.5254 6.2262 13.5254 6.46207V8.46183L13.5232 10.4663C13.5229 10.7024 13.4229 10.8697 13.3284 10.9429C13.2841 10.9772 13.2445 10.9895 13.2113 10.9912C13.1798 10.9929 13.1263 10.9865 13.0496 10.9376C12.8411 10.8047 12.6416 10.6548 12.4385 10.5022L12.3871 10.4636C12.211 10.3314 12.0196 10.1887 11.8333 10.078ZM3.33333 4.29541C2.8731 4.29541 2.5 4.66851 2.5 5.12874V11.7954C2.5 12.2556 2.8731 12.6287 3.33333 12.6287H10C10.4602 12.6287 10.8333 12.2556 10.8333 11.7954V5.12874C10.8333 4.66851 10.4602 4.29541 10 4.29541H3.33333Z" fill="#2D373D"/>
</svg>
