<svg width="32" height="33" viewBox="0 0 32 33" fill="none" xmlns="http://www.w3.org/2000/svg">
<path d="M15.2335 16.4623L10.6335 11.8623C10.2335 11.4623 10.2335 10.8623 10.6335 10.4623C11.0335 10.0623 11.6335 10.0623 12.0335 10.4623L17.3335 15.7623C17.7335 16.1623 17.7335 16.7623 17.3335 17.1623L12.0335 22.5623C11.8335 22.7623 11.6335 22.8623 11.3335 22.8623C11.0335 22.8623 10.8335 22.7623 10.6335 22.5623C10.2335 22.1623 10.2335 21.5623 10.6335 21.1623L15.2335 16.4623Z" fill="#2D373D"/>
<path fill-rule="evenodd" clip-rule="evenodd" d="M21.334 10.1289C20.7817 10.1289 20.334 10.5766 20.334 11.1289V21.7956C20.334 22.3479 20.7817 22.7956 21.334 22.7956C21.8863 22.7956 22.334 22.3479 22.334 21.7956V11.1289C22.334 10.5766 21.8863 10.1289 21.334 10.1289Z" fill="#2D373D"/>
</svg>
