<svg width="24" height="25" viewBox="0 0 24 25" fill="none" xmlns="http://www.w3.org/2000/svg">
<path d="M15.6256 9.07447C15.9185 9.36736 15.9185 9.84223 15.6256 10.1351L13.1797 12.581L15.6255 15.0268C15.9184 15.3197 15.9184 15.7946 15.6255 16.0875C15.3327 16.3804 14.8578 16.3804 14.5649 16.0875L12.119 13.6417L9.67321 16.0875C9.38032 16.3804 8.90545 16.3804 8.61255 16.0875C8.31966 15.7946 8.31966 15.3197 8.61255 15.0268L11.0584 12.581L8.6125 10.1351C8.31961 9.84223 8.31961 9.36736 8.6125 9.07447C8.9054 8.78157 9.38027 8.78157 9.67316 9.07447L12.119 11.5204L14.5649 9.07447C14.8578 8.78157 15.3327 8.78157 15.6256 9.07447Z" fill="#2D373D"/>
<path fill-rule="evenodd" clip-rule="evenodd" d="M12 22.4619C17.5228 22.4619 22 17.9848 22 12.4619C22 6.93907 17.5228 2.46191 12 2.46191C6.47715 2.46191 2 6.93907 2 12.4619C2 17.9848 6.47715 22.4619 12 22.4619ZM12 20.9619C16.6944 20.9619 20.5 17.1563 20.5 12.4619C20.5 7.76749 16.6944 3.96191 12 3.96191C7.30558 3.96191 3.5 7.76749 3.5 12.4619C3.5 17.1563 7.30558 20.9619 12 20.9619Z" fill="#2D373D"/>
</svg>
