<svg width="16" height="16" viewBox="0 0 16 16" fill="none" xmlns="http://www.w3.org/2000/svg">
<path d="M12.4135 2.06775C12.625 1.99151 12.8538 1.97703 13.0733 2.02601C13.2929 2.07503 13.4941 2.18561 13.6532 2.34481C13.8123 2.50401 13.9228 2.70523 13.9717 2.92493C14.0206 3.1445 14.0059 3.37343 13.9295 3.58497C13.2729 5.40972 11.8852 8.79408 9.94608 10.7332C8.88241 11.7969 7.56529 11.9616 6.47233 12.0624C6.39044 12.07 6.31023 12.0771 6.2316 12.0841C5.76608 12.1257 5.35587 12.1622 4.97935 12.2483C4.55179 12.3461 4.21844 12.4983 3.96049 12.7563C3.93758 12.7792 3.913 12.7994 3.88714 12.817L2.85354 13.8505C2.65827 14.0457 2.34169 14.0457 2.14644 13.8505C1.95118 13.6552 1.95119 13.3386 2.14646 13.1434L10.204 5.08626C10.3993 4.891 10.7159 4.89101 10.9112 5.08628C11.1064 5.28154 11.1064 5.59813 10.9111 5.79338L5.55993 11.1443C5.75949 11.1218 5.95921 11.1042 6.15409 11.0869C6.23026 11.0802 6.30606 11.0735 6.38045 11.0666C7.47016 10.9661 8.45125 10.8138 9.23897 10.0261C11.0025 8.26258 12.3295 5.07816 12.9887 3.24601L12.989 3.24521C13.0009 3.2122 13.0032 3.17647 12.9956 3.1422C12.988 3.10794 12.9707 3.07655 12.9459 3.05172C12.9211 3.02689 12.8897 3.00964 12.8555 3.002C12.8212 2.99435 12.7855 2.99662 12.7524 3.00854L12.7518 3.00877C11.8495 3.3332 10.5903 3.83044 9.33314 4.47148C8.07005 5.11552 6.8392 5.88965 5.97094 6.75837L5.96734 6.76197C5.47319 7.24641 5.15622 7.88285 5.06732 8.56906C5.04141 8.79327 5.04617 9.01998 5.0815 9.24291C5.12471 9.51565 4.93864 9.77178 4.6659 9.81499C4.39316 9.85821 4.13703 9.67214 4.09382 9.3994C4.04406 9.08538 4.03753 8.76602 4.0744 8.45022L4.07508 8.44443C4.19198 7.53523 4.61127 6.69179 5.26542 6.04967C6.24155 5.07364 7.57834 4.24375 8.87889 3.5806C10.1861 2.91405 11.4874 2.40073 12.4135 2.06775Z" fill="#2D373D"/>
<path d="M5.80804 13.0033C5.5319 13.0033 5.30804 13.2272 5.30804 13.5033C5.30804 13.7794 5.5319 14.0033 5.80804 14.0033H12.0446C12.3207 14.0033 12.5446 13.7794 12.5446 13.5033C12.5446 13.2272 12.3207 13.0033 12.0446 13.0033H5.80804Z" fill="#2D373D"/>
</svg>
