<svg width="64" height="65" viewBox="0 0 64 65" fill="none" xmlns="http://www.w3.org/2000/svg">
<path d="M43.6802 35.0819C41.082 35.082 38.5858 36.0934 36.7202 37.9019C36.4646 38.182 36.2243 38.4758 36.0002 38.7819L24.9002 33.3419C25.1205 32.5533 25.2414 31.7404 25.2602 30.9219C25.2476 30.4051 25.1941 29.8902 25.1002 29.3819L35.4402 25.3819C35.8099 25.9523 36.239 26.4819 36.7202 26.9619C38.5895 28.7941 41.1027 29.8204 43.7202 29.8204C46.3378 29.8204 48.851 28.7941 50.7202 26.9619C51.6389 26.069 52.3692 25.001 52.8679 23.821C53.3665 22.641 53.6235 21.3729 53.6235 20.0919C53.6235 18.8108 53.3665 17.5427 52.8679 16.3627C52.3692 15.1827 51.6389 14.1147 50.7202 13.2219C48.851 11.3896 46.3378 10.3633 43.7202 10.3633C41.1027 10.3633 38.5895 11.3896 36.7202 13.2219C35.8064 14.1202 35.0795 15.1908 34.5818 16.3717C34.084 17.5525 33.8252 18.8204 33.8202 20.1019C33.8329 20.6186 33.8864 21.1335 33.9802 21.6419L23.6402 25.6419C23.2706 25.0714 22.8415 24.5418 22.3602 24.0619C20.491 22.2296 17.9778 21.2033 15.3602 21.2033C12.7427 21.2033 10.2295 22.2296 8.36024 24.0619C7.44157 24.9547 6.7113 26.0227 6.21263 27.2027C5.71396 28.3827 5.45703 29.6508 5.45703 30.9319C5.45703 32.2129 5.71396 33.481 6.21263 34.661C6.7113 35.841 7.44157 36.909 8.36024 37.8019C10.2295 39.6341 12.7427 40.6604 15.3602 40.6604C17.9778 40.6604 20.491 39.6341 22.3602 37.8019C22.6202 37.5219 22.8402 37.2019 23.0802 36.9219L34.1402 42.3419C33.9216 43.1307 33.8007 43.9435 33.7802 44.7619C33.7852 46.0433 34.044 47.3112 34.5418 48.4921C35.0395 49.6729 35.7664 50.7435 36.6802 51.6419C38.5495 53.4741 41.0627 54.5004 43.6802 54.5004C46.2978 54.5004 48.811 53.4741 50.6802 51.6419C51.5989 50.749 52.3292 49.681 52.8279 48.501C53.3265 47.321 53.5835 46.0529 53.5835 44.7719C53.5835 43.4908 53.3265 42.2227 52.8279 41.0427C52.3292 39.8627 51.5989 38.7947 50.6802 37.9019C48.8048 36.0837 46.2923 35.0715 43.6802 35.0819ZM39.5202 16.1419C40.6381 15.0663 42.129 14.4656 43.6802 14.4656C45.2315 14.4656 46.7224 15.0663 47.8402 16.1419C48.3749 16.6619 48.7998 17.2837 49.09 17.9708C49.3802 18.6578 49.5297 19.3961 49.5297 20.1419C49.5297 20.8877 49.3802 21.6259 49.09 22.3129C48.7998 23 48.3749 23.6219 47.8402 24.1419C46.7003 25.1734 45.2177 25.7446 43.6802 25.7446C42.1428 25.7446 40.6602 25.1734 39.5202 24.1419C38.9856 23.6219 38.5607 23 38.2705 22.3129C37.9803 21.6259 37.8308 20.8877 37.8308 20.1419C37.8308 19.3961 37.9803 18.6578 38.2705 17.9708C38.5607 17.2837 38.9856 16.6619 39.5202 16.1419V16.1419ZM11.2402 34.9419C10.7037 34.4227 10.2768 33.8012 9.98479 33.1142C9.69278 32.4271 9.54161 31.6884 9.54024 30.9419C9.53701 30.1946 9.68609 29.4545 9.97837 28.7668C10.2707 28.0791 10.7 27.4581 11.2402 26.9419C12.3581 25.8663 13.849 25.2656 15.4002 25.2656C16.9515 25.2656 18.4424 25.8663 19.5602 26.9419C20.1005 27.4581 20.5298 28.0791 20.8221 28.7668C21.1144 29.4545 21.2635 30.1946 21.2602 30.9419C21.2589 31.6884 21.1077 32.4271 20.8157 33.1142C20.5237 33.8012 20.0968 34.4227 19.5602 34.9419C18.4203 35.9734 16.9377 36.5446 15.4002 36.5446C13.8628 36.5446 12.3802 35.9734 11.2402 34.9419V34.9419ZM47.8402 48.7819C46.7044 49.8219 45.2203 50.3987 43.6802 50.3987C42.1402 50.3987 40.656 49.8219 39.5202 48.7819C38.9856 48.2619 38.5607 47.64 38.2705 46.9529C37.9803 46.2659 37.8308 45.5277 37.8308 44.7819C37.8308 44.0361 37.9803 43.2978 38.2705 42.6108C38.5607 41.9237 38.9856 41.3018 39.5202 40.7819C40.6381 39.7063 42.129 39.1056 43.6802 39.1056C45.2315 39.1056 46.7224 39.7063 47.8402 40.7819C48.3749 41.3018 48.7998 41.9237 49.09 42.6108C49.3802 43.2978 49.5297 44.0361 49.5297 44.7819C49.5297 45.5277 49.3802 46.2659 49.09 46.9529C48.7998 47.64 48.3749 48.2619 47.8402 48.7819Z" fill="#2D373D"/>
</svg>
