<svg width="32" height="33" viewBox="0 0 32 33" fill="none" xmlns="http://www.w3.org/2000/svg">
<path fill-rule="evenodd" clip-rule="evenodd" d="M17.5454 28.9219C18.0991 28.9219 18.548 28.4742 18.548 27.9219V27.6742H18.7269L18.7307 27.6742C20.657 27.6667 22.5105 26.9431 23.9678 25.6439C25.2134 24.5335 26.1013 23.0642 26.534 21.4357H26.9974C27.5511 21.4357 28 20.988 28 20.4357L28 17.1023C28 16.55 27.5511 16.1023 26.9974 16.1023H21.0899C20.5361 16.1023 20.0872 16.55 20.0872 17.1023L20.0872 20.4357C20.0872 20.7456 20.2286 21.0227 20.4506 21.2061C20.3638 21.2925 20.2713 21.3724 20.1739 21.4452C19.7452 21.7652 19.2401 21.9319 18.7285 21.9311H18.548V21.6834C18.548 21.1311 18.0991 20.6834 17.5454 20.6834H14.2033C13.6495 20.6834 13.2006 21.1311 13.2006 21.6834L13.2006 27.9219C13.2006 28.4742 13.6495 28.9219 14.2033 28.9219H17.5454ZM16.5427 22.9311L16.5428 22.9209V22.6834H15.2059L15.2059 26.9219H16.5428V26.6844L16.5427 26.6742L16.5427 22.9311ZM18.7248 25.6742H18.548V23.9311H18.726C19.6809 23.9325 20.6067 23.6202 21.3755 23.0463C21.9457 22.6207 22.4077 22.0677 22.733 21.4357H24.4378C24.0671 22.4898 23.4456 23.427 22.6314 24.1528C21.5302 25.1345 20.1468 25.6682 18.7248 25.6742ZM25.9947 19.4357H25.7299L25.7245 19.4357H22.0925L22.0925 18.1023H25.9947L25.9947 19.4357Z" fill="#2D373D"/>
<path fill-rule="evenodd" clip-rule="evenodd" d="M11.642 4.92188C10.3035 4.92187 9.01991 5.45217 8.07349 6.3961C7.45006 7.01789 7.00658 7.78562 6.7765 8.61877H6.48636C5.93262 8.61877 5.48372 9.06649 5.48372 9.61877C5.48372 10.1711 5.93262 10.6188 6.48636 10.6188H6.6394C6.78472 11.7088 7.28528 12.7282 8.07349 13.5143C8.62226 14.0616 9.2844 14.4699 10.0049 14.7163C9.55772 14.8154 9.11838 14.9547 8.69234 15.1336C7.30046 15.7181 6.11264 16.6995 5.27786 17.9547C4.44309 19.2099 3.99855 20.683 4 22.1893C4.00054 22.7415 4.44987 23.1888 5.00361 23.1883C5.55735 23.1878 6.00581 22.7396 6.00528 22.1873C6.0042 21.075 6.33249 19.9871 6.94895 19.0602C7.56541 18.1332 8.4426 17.4085 9.47046 16.9769C10.4983 16.5452 11.6311 16.426 12.7267 16.634C13.8223 16.842 14.8319 17.3681 15.6288 18.1462C16.0245 18.5325 16.6593 18.5258 17.0467 18.1311C17.434 17.7365 17.4273 17.1034 17.0316 16.717C16.0004 15.7102 14.7064 15.0151 13.2991 14.7094C14.0118 14.4623 14.6668 14.0566 15.2105 13.5143C15.9987 12.7282 16.4992 11.7088 16.6446 10.6188H16.865C17.4188 10.6188 17.8677 10.1711 17.8677 9.61877C17.8677 9.06649 17.4188 8.61877 16.865 8.61877H16.5075C16.2774 7.78562 15.8339 7.01789 15.2105 6.3961C14.2641 5.45217 12.9804 4.92188 11.642 4.92188ZM14.3722 8.61877C14.2262 8.32207 14.0313 8.04844 13.7925 7.81032C13.6906 7.70868 13.5822 7.61499 13.4683 7.52967L13.4841 8.61877H14.3722ZM12.1471 8.61877L12.1231 6.96005C11.965 6.93479 11.8041 6.92188 11.642 6.92188C11.5038 6.92188 11.3666 6.93125 11.2313 6.94965L11.2313 8.61877L12.1471 8.61877ZM9.89442 8.61877L8.91174 8.61877C9.05773 8.32207 9.25269 8.04844 9.49143 7.81032C9.61658 7.6855 9.7515 7.57269 9.89442 7.47262L9.89442 8.61877ZM8.6743 10.6188L14.6097 10.6188C14.4845 11.1754 14.2034 11.6903 13.7925 12.1001C13.2222 12.669 12.4486 12.9885 11.642 12.9885C10.8354 12.9885 10.0618 12.669 9.49143 12.1001C9.08059 11.6903 8.79943 11.1754 8.6743 10.6188Z" fill="#2D373D"/>
</svg>
