<svg width="16" height="17" viewBox="0 0 16 17" fill="none" xmlns="http://www.w3.org/2000/svg">
<path d="M9.56657 6.83884C9.56657 6.56269 9.34271 6.33884 9.06657 6.33884C8.79043 6.33884 8.56657 6.56269 8.56657 6.83884V8.18328C8.56657 8.45942 8.79043 8.68328 9.06657 8.68328C9.34271 8.68328 9.56657 8.45942 9.56657 8.18328V6.83884Z" fill="#2D373D"/>
<path d="M11.9995 6.33884C12.2757 6.33884 12.4995 6.56269 12.4995 6.83884V8.18328C12.4995 8.45942 12.2757 8.68328 11.9995 8.68328C11.7234 8.68328 11.4995 8.45942 11.4995 8.18328V6.83884C11.4995 6.56269 11.7234 6.33884 11.9995 6.33884Z" fill="#2D373D"/>
<path d="M11.0334 5.73885C11.0334 5.46271 10.8095 5.23885 10.5334 5.23885C10.2572 5.23885 10.0334 5.46271 10.0334 5.73885V8.1833C10.0334 8.45944 10.2572 8.6833 10.5334 8.6833C10.8095 8.6833 11.0334 8.45944 11.0334 8.1833V5.73885Z" fill="#2D373D"/>
<path fill-rule="evenodd" clip-rule="evenodd" d="M1.96631 10.2611C1.96631 11.3472 2.84682 12.2277 3.93298 12.2277H6.27595L6.07595 13.4277H5.39925C5.12311 13.4277 4.89925 13.6516 4.89925 13.9277C4.89925 14.2039 5.12311 14.4277 5.39925 14.4277H10.5326C10.8087 14.4277 11.0326 14.2039 11.0326 13.9277C11.0326 13.6516 10.8087 13.4277 10.5326 13.4277H9.85641L9.65641 12.2277H11.9996C13.0858 12.2277 13.9663 11.3472 13.9663 10.2611V4.3944C13.9663 3.30824 13.0858 2.42773 11.9996 2.42773H3.93298C2.84682 2.42773 1.96631 3.30824 1.96631 4.3944V10.2611ZM3.93298 3.42773C3.3991 3.42773 2.96631 3.86053 2.96631 4.3944V6.60952L4.06831 5.50751C4.23081 5.34521 4.45131 5.25383 4.68098 5.25383C4.91064 5.25383 5.13092 5.34499 5.29342 5.50729L5.29911 5.51298L6.13448 6.37468L7.99409 4.51507C8.18935 4.31981 8.50593 4.31981 8.70119 4.51507C8.89646 4.71033 8.89646 5.02691 8.70119 5.22218L6.74564 7.17773C6.58314 7.34003 6.36264 7.43141 6.13298 7.43141C5.90331 7.43141 5.68303 7.34025 5.52053 7.17795L5.51484 7.17227L4.67947 6.31056L2.96631 8.02373V9.27218H12.9663V4.3944C12.9663 3.86053 12.5335 3.42773 11.9996 3.42773H3.93298ZM11.9996 11.2277C12.5298 11.2277 12.9603 10.8009 12.9662 10.2722H2.96637C2.97232 10.8009 3.40281 11.2277 3.93298 11.2277H6.86458L6.86618 11.2277H9.06618L9.06779 11.2277H11.9996ZM7.08975 13.4277L7.28975 12.2277H8.64262L8.84262 13.4277H7.08975Z" fill="#2D373D"/>
</svg>
