<svg width="64" height="65" viewBox="0 0 64 65" fill="none" xmlns="http://www.w3.org/2000/svg">
<path d="M41.6684 23.4284C42.4495 24.2094 42.4495 25.4758 41.6684 26.2568L35.1461 32.7792L41.6683 39.3014C42.4493 40.0825 42.4493 41.3488 41.6683 42.1298C40.8872 42.9109 39.6209 42.9109 38.8399 42.1298L32.3176 35.6076L25.7954 42.1298C25.0143 42.9109 23.748 42.9109 22.967 42.1298C22.1859 41.3488 22.1859 40.0825 22.967 39.3014L29.4892 32.7792L22.9668 26.2568C22.1858 25.4758 22.1858 24.2094 22.9668 23.4284C23.7479 22.6473 25.0142 22.6473 25.7953 23.4284L32.3176 29.9508L38.84 23.4284C39.621 22.6473 40.8874 22.6473 41.6684 23.4284Z" fill="#2D373D"/>
<path fill-rule="evenodd" clip-rule="evenodd" d="M32.0002 59.1283C46.7278 59.1283 58.6668 47.1892 58.6668 32.4616C58.6668 17.734 46.7278 5.79492 32.0002 5.79492C17.2726 5.79492 5.3335 17.734 5.3335 32.4616C5.3335 47.1892 17.2726 59.1283 32.0002 59.1283ZM32.0002 55.1283C44.5186 55.1283 54.6668 44.98 54.6668 32.4616C54.6668 19.9431 44.5186 9.79492 32.0002 9.79492C19.4817 9.79492 9.3335 19.9431 9.3335 32.4616C9.3335 44.98 19.4817 55.1283 32.0002 55.1283Z" fill="#2D373D"/>
</svg>
