<svg width="32" height="33" viewBox="0 0 32 33" fill="none" xmlns="http://www.w3.org/2000/svg">
<path d="M29.1 13.3605C28.2 9.86055 26.1 6.96055 23.1 5.06055C20.9 3.76055 18.5 3.06055 16 3.06055C8.6 3.06055 2.6 9.06055 2.6 16.3605C2.6 18.7605 3.2 21.0605 4.4 23.0605L2.6 28.5605C2.5 28.8605 2.6 29.2605 2.9 29.5605C3.1 29.7605 3.3 29.8605 3.6 29.8605C3.7 29.8605 3.9 29.8605 4 29.8605L9.4 28.0605C12.4 29.7605 15.8 30.2605 19.1 29.4605C22.6 28.5605 25.5 26.4605 27.4 23.4605C29.3 20.4605 29.9 16.8605 29.1 13.3605ZM25.7 22.3605C24.1 24.9605 21.6 26.7605 18.6 27.4605C15.6 28.1605 12.6 27.6605 10 26.1605C9.9 26.0605 9.7 25.9605 9.5 25.9605C9.4 25.9605 9.2 25.9605 9.1 25.9605L5.1 27.2605L6.4 23.1605C6.5 22.8605 6.5 22.5605 6.3 22.3605C5.2 20.5605 4.6 18.4605 4.6 16.3605C4.6 10.1605 9.7 5.06055 16 5.06055C18.1 5.06055 20.2 5.66055 22 6.76055C24.6 8.36055 26.4 10.7605 27.1 13.7605C27.8 16.7605 27.3 19.7605 25.7 22.3605Z" fill="#2D373D"/>
<path d="M21.9999 11.9605C20.3999 10.3605 17.7999 10.3605 16.1999 11.9605L15.9999 12.1605L15.7999 11.9605C15.4999 11.6605 15.0999 11.3605 14.6999 11.1605C12.6999 10.0605 10.1999 10.9605 9.1999 12.9605C8.3999 14.4605 8.7999 16.4605 9.9999 17.6605L15.2999 23.1605C15.4999 23.3605 15.6999 23.4605 15.9999 23.4605C16.2999 23.4605 16.4999 23.2605 16.6999 23.0605L21.9999 17.8605C23.2999 16.5605 23.5999 14.6605 22.7999 13.0605C22.5999 12.6605 22.2999 12.2605 21.9999 11.9605ZM20.4999 16.2605L15.9999 21.0605L11.3999 16.2605C10.7999 15.5605 10.5999 14.5605 10.9999 13.7605C11.3999 12.9605 12.0999 12.5605 12.8999 12.5605C13.1999 12.5605 13.5999 12.6605 13.8999 12.7605C14.0999 12.8605 14.1999 12.9605 14.3999 13.1605L15.2999 14.0605C15.6999 14.4605 16.2999 14.4605 16.6999 14.0605L17.4999 13.2605C18.2999 12.4605 19.6999 12.4605 20.4999 13.2605C20.6999 13.3605 20.7999 13.5605 20.8999 13.7605C21.2999 14.6605 21.1999 15.5605 20.4999 16.2605Z" fill="#2D373D"/>
</svg>
