<svg width="32" height="33" viewBox="0 0 32 33" fill="none" xmlns="http://www.w3.org/2000/svg">
<path fill-rule="evenodd" clip-rule="evenodd" d="M5.97541 5.16741C6.36365 5.0066 6.77977 4.92383 7.2 4.92383C7.62023 4.92383 8.03635 5.0066 8.42459 5.16741C8.81283 5.32823 9.16559 5.56394 9.46274 5.86109C9.75989 6.15823 9.9956 6.511 10.1564 6.89924C10.3172 7.28748 10.4 7.7036 10.4 8.12383C10.4 8.54406 10.3172 8.96017 10.1564 9.34842C9.9956 9.73666 9.75989 10.0894 9.46274 10.3866C9.16559 10.6837 8.81283 10.9194 8.42459 11.0802C8.03635 11.2411 7.62023 11.3238 7.2 11.3238C6.77977 11.3238 6.36366 11.2411 5.97541 11.0802C5.58717 10.9194 5.23441 10.6837 4.93726 10.3866C4.64011 10.0894 4.4044 9.73666 4.24359 9.34842C4.08277 8.96017 4 8.54406 4 8.12383C4 7.7036 4.08277 7.28748 4.24359 6.89924C4.4044 6.511 4.64011 6.15823 4.93726 5.86109C5.23441 5.56394 5.58717 5.32823 5.97541 5.16741ZM7.2 6.92383C7.04241 6.92383 6.88637 6.95487 6.74078 7.01517C6.59519 7.07548 6.4629 7.16387 6.35147 7.2753C6.24004 7.38673 6.15165 7.51902 6.09134 7.66461C6.03104 7.8102 6 7.96624 6 8.12383C6 8.28141 6.03104 8.43746 6.09134 8.58305C6.15165 8.72864 6.24004 8.86093 6.35147 8.97236C6.4629 9.08379 6.59519 9.17218 6.74078 9.23248C6.88637 9.29279 7.04241 9.32383 7.2 9.32383C7.35759 9.32383 7.51363 9.29279 7.65922 9.23248C7.80481 9.17218 7.9371 9.08379 8.04853 8.97236C8.15996 8.86092 8.24835 8.72864 8.30866 8.58305C8.36896 8.43746 8.4 8.28141 8.4 8.12383C8.4 7.96624 8.36896 7.8102 8.30866 7.66461C8.24835 7.51902 8.15996 7.38673 8.04853 7.2753C7.9371 7.16387 7.80481 7.07548 7.65922 7.01517C7.51363 6.95487 7.35759 6.92383 7.2 6.92383Z" fill="#2D373D"/>
<path fill-rule="evenodd" clip-rule="evenodd" d="M13.7372 5.86109C14.3373 5.26097 15.1513 4.92383 16 4.92383C16.8487 4.92383 17.6626 5.26097 18.2627 5.86109C18.8628 6.4612 19.2 7.27514 19.2 8.12383C19.2 8.97252 18.8628 9.78645 18.2627 10.3866C17.6626 10.9867 16.8487 11.3238 16 11.3238C15.1513 11.3238 14.3373 10.9867 13.7372 10.3866C13.1371 9.78645 12.8 8.97252 12.8 8.12383C12.8 7.27514 13.1371 6.4612 13.7372 5.86109ZM16 6.92383C15.6817 6.92383 15.3765 7.05026 15.1514 7.2753C14.9264 7.50034 14.8 7.80557 14.8 8.12383C14.8 8.44209 14.9264 8.74731 15.1514 8.97236C15.3765 9.1974 15.6817 9.32383 16 9.32383C16.3182 9.32383 16.6234 9.1974 16.8485 8.97236C17.0735 8.74731 17.2 8.44209 17.2 8.12383C17.2 7.80557 17.0735 7.50034 16.8485 7.2753C16.6234 7.05026 16.3182 6.92383 16 6.92383Z" fill="#2D373D"/>
<path fill-rule="evenodd" clip-rule="evenodd" d="M22.5372 5.86109C23.1374 5.26097 23.9513 4.92383 24.8 4.92383C25.6487 4.92383 26.4626 5.26097 27.0627 5.86109C27.6628 6.4612 28 7.27514 28 8.12383C28 8.97252 27.6628 9.78645 27.0627 10.3866C26.4626 10.9867 25.6487 11.3238 24.8 11.3238C23.9513 11.3238 23.1374 10.9867 22.5372 10.3866C21.9371 9.78645 21.6 8.97252 21.6 8.12383C21.6 7.27514 21.9371 6.4612 22.5372 5.86109ZM24.8 6.92383C24.4817 6.92383 24.1765 7.05026 23.9515 7.2753C23.7264 7.50034 23.6 7.80557 23.6 8.12383C23.6 8.44209 23.7264 8.74731 23.9515 8.97236C24.1765 9.1974 24.4817 9.32383 24.8 9.32383C25.1182 9.32383 25.4235 9.1974 25.6485 8.97236C25.8736 8.74731 26 8.44209 26 8.12383C26 7.80557 25.8736 7.50034 25.6485 7.2753C25.4235 7.05026 25.1182 6.92383 24.8 6.92383Z" fill="#2D373D"/>
<path fill-rule="evenodd" clip-rule="evenodd" d="M5.97541 13.9674C6.36365 13.8066 6.77977 13.7238 7.2 13.7238C7.62023 13.7238 8.03635 13.8066 8.42459 13.9674C8.81283 14.1282 9.16559 14.3639 9.46274 14.661C9.75989 14.9582 9.9956 15.311 10.1564 15.6992C10.3172 16.0874 10.4 16.5036 10.4 16.9238C10.4 17.344 10.3172 17.7601 10.1564 18.1484C9.9956 18.5366 9.75989 18.8894 9.46274 19.1865C9.16559 19.4837 8.81283 19.7194 8.42459 19.8802C8.03635 20.041 7.62023 20.1238 7.2 20.1238C6.77977 20.1238 6.36365 20.041 5.97541 19.8802C5.58717 19.7194 5.23441 19.4837 4.93726 19.1865C4.64011 18.8894 4.4044 18.5366 4.24359 18.1484C4.08277 17.7601 4 17.344 4 16.9238C4 16.5036 4.08277 16.0874 4.24359 15.6992C4.4044 15.311 4.64011 14.9582 4.93726 14.661C5.23441 14.3639 5.58717 14.1282 5.97541 13.9674ZM7.2 15.7238C7.04241 15.7238 6.88637 15.7548 6.74078 15.8151C6.59519 15.8754 6.4629 15.9638 6.35147 16.0753C6.24004 16.1867 6.15165 16.319 6.09134 16.4646C6.03104 16.6102 6 16.7662 6 16.9238C6 17.0814 6.03104 17.2374 6.09134 17.383C6.15165 17.5286 6.24004 17.6609 6.35147 17.7723C6.4629 17.8837 6.59519 17.9721 6.74078 18.0324C6.88637 18.0928 7.04241 18.1238 7.2 18.1238C7.35759 18.1238 7.51363 18.0928 7.65922 18.0324C7.80481 17.9721 7.9371 17.8837 8.04853 17.7723C8.15996 17.6609 8.24835 17.5286 8.30866 17.383C8.36896 17.2374 8.4 17.0814 8.4 16.9238C8.4 16.7662 8.36896 16.6102 8.30866 16.4646C8.24835 16.319 8.15996 16.1867 8.04853 16.0753C7.9371 15.9638 7.80481 15.8754 7.65922 15.8151C7.51363 15.7548 7.35759 15.7238 7.2 15.7238Z" fill="#2D373D"/>
<path fill-rule="evenodd" clip-rule="evenodd" d="M13.7372 14.661C14.3373 14.0609 15.1513 13.7238 16 13.7238C16.8487 13.7238 17.6626 14.0609 18.2627 14.661C18.8628 15.2612 19.2 16.0751 19.2 16.9238C19.2 17.7725 18.8628 18.5864 18.2627 19.1865C17.6626 19.7866 16.8487 20.1238 16 20.1238C15.1513 20.1238 14.3373 19.7866 13.7372 19.1865C13.1371 18.5864 12.8 17.7725 12.8 16.9238C12.8 16.0751 13.1371 15.2612 13.7372 14.661ZM16 15.7238C15.6817 15.7238 15.3765 15.8502 15.1514 16.0753C14.9264 16.3003 14.8 16.6055 14.8 16.9238C14.8 17.242 14.9264 17.5473 15.1514 17.7723C15.3765 17.9974 15.6817 18.1238 16 18.1238C16.3182 18.1238 16.6234 17.9974 16.8485 17.7723C17.0735 17.5473 17.2 17.242 17.2 16.9238C17.2 16.6055 17.0735 16.3003 16.8485 16.0753C16.6234 15.8502 16.3182 15.7238 16 15.7238Z" fill="#2D373D"/>
<path fill-rule="evenodd" clip-rule="evenodd" d="M22.5372 14.661C23.1374 14.0609 23.9513 13.7238 24.8 13.7238C25.6487 13.7238 26.4626 14.0609 27.0627 14.661C27.6628 15.2612 28 16.0751 28 16.9238C28 17.7725 27.6628 18.5864 27.0627 19.1865C26.4626 19.7866 25.6487 20.1238 24.8 20.1238C23.9513 20.1238 23.1374 19.7866 22.5372 19.1865C21.9371 18.5864 21.6 17.7725 21.6 16.9238C21.6 16.0751 21.9371 15.2612 22.5372 14.661ZM24.8 15.7238C24.4817 15.7238 24.1765 15.8502 23.9515 16.0753C23.7264 16.3003 23.6 16.6055 23.6 16.9238C23.6 17.242 23.7264 17.5473 23.9515 17.7723C24.1765 17.9974 24.4817 18.1238 24.8 18.1238C25.1182 18.1238 25.4235 17.9974 25.6485 17.7723C25.8736 17.5473 26 17.242 26 16.9238C26 16.6055 25.8736 16.3003 25.6485 16.0753C25.4235 15.8502 25.1182 15.7238 24.8 15.7238Z" fill="#2D373D"/>
<path fill-rule="evenodd" clip-rule="evenodd" d="M13.7372 23.4611C14.3373 22.861 15.1513 22.5238 16 22.5238C16.8487 22.5238 17.6626 22.861 18.2627 23.4611C18.8628 24.0612 19.2 24.8751 19.2 25.7238C19.2 26.5725 18.8628 27.3864 18.2627 27.9866C17.6626 28.5867 16.8487 28.9238 16 28.9238C15.1513 28.9238 14.3373 28.5867 13.7372 27.9866C13.1371 27.3864 12.8 26.5725 12.8 25.7238C12.8 24.8751 13.1371 24.0612 13.7372 23.4611ZM16 24.5238C15.6817 24.5238 15.3765 24.6502 15.1514 24.8753C14.9264 25.1003 14.8 25.4056 14.8 25.7238C14.8 26.0421 14.9264 26.3473 15.1514 26.5723C15.3765 26.7974 15.6817 26.9238 16 26.9238C16.3182 26.9238 16.6234 26.7974 16.8485 26.5723C17.0735 26.3473 17.2 26.0421 17.2 25.7238C17.2 25.4056 17.0735 25.1003 16.8485 24.8753C16.6234 24.6502 16.3182 24.5238 16 24.5238Z" fill="#2D373D"/>
</svg>
