<svg width="32" height="32" viewBox="0 0 32 32" fill="none" xmlns="http://www.w3.org/2000/svg">
<path d="M15.1998 23.6001C15.3998 23.9001 15.5998 24.0001 15.9998 24.0001C16.1998 24.0001 16.2998 24.0001 16.3998 23.9001C16.4998 23.8001 16.6998 23.7001 16.6998 23.6001L23.1998 17.1001C23.5998 16.7001 23.5998 16.1001 23.1998 15.7001C22.7998 15.3001 22.1998 15.3001 21.7998 15.7001L16.9998 20.6001V3.6001C16.9998 3.0001 16.5998 2.6001 15.9998 2.6001C15.3998 2.6001 14.9998 3.0001 14.9998 3.6001V20.6001L10.1998 15.8001C9.79976 15.4001 9.19976 15.4001 8.79976 15.8001C8.39976 16.2001 8.39976 16.8001 8.79976 17.2001L15.1998 23.6001Z" fill="#2D373D"/>
<path d="M25.6998 27.3H6.2998C5.6998 27.3 5.2998 27.7 5.2998 28.3C5.2998 28.9 5.6998 29.3 6.2998 29.3H25.6998C26.2998 29.3 26.6998 28.9 26.6998 28.3C26.6998 27.7 26.2998 27.3 25.6998 27.3Z" fill="#2D373D"/>
</svg>
