<svg width="24" height="25" viewBox="0 0 24 25" fill="none" xmlns="http://www.w3.org/2000/svg">
<path d="M16.748 15.5157C16.6783 15.4469 16.5389 15.4469 16.4692 15.4469C16.3995 15.4469 16.2601 15.4469 16.1904 15.5157C15.9116 15.5844 15.6329 15.8594 15.5632 16.1344C15.4935 16.2032 15.4935 16.3407 15.4935 16.4094C15.4935 16.4782 15.4935 16.5469 15.5632 16.6844C15.6329 16.9594 15.9116 17.2344 16.1904 17.3032C16.2601 17.3719 16.3995 17.3719 16.4692 17.3719C17.0268 17.3719 17.445 16.9594 17.445 16.4094C17.445 16.2719 17.445 16.2032 17.3753 16.1344C17.3056 15.8594 17.0268 15.5844 16.748 15.5157Z" fill="#2D373D"/>
<path d="M5.31768 15.5157C5.24798 15.4469 5.10859 15.4469 5.03889 15.4469C4.9692 15.4469 4.8298 15.4469 4.7601 15.5157C4.41162 15.5157 4.20253 15.7907 4.13283 16.0657C4.06313 16.1344 4.06313 16.2719 4.06313 16.3407C4.06313 16.4094 4.06313 16.5469 4.13283 16.6157C4.20253 16.9594 4.41162 17.1657 4.7601 17.3032C4.8298 17.3719 4.9692 17.3719 5.03889 17.3719C5.10859 17.3719 5.24798 17.3719 5.31768 17.3032C5.59647 17.2344 5.87526 16.9594 5.94495 16.6844C6.01465 16.6157 6.01465 16.4782 6.01465 16.4094C6.01465 16.3407 6.01465 16.2032 5.94495 16.1344C5.87526 15.8594 5.59647 15.5844 5.31768 15.5157Z" fill="#2D373D"/>
<path d="M17.7935 13.1782L16.6783 10.7032C16.3298 9.74067 15.3541 9.12192 14.3783 9.12192H7.12983C6.0844 9.12192 5.17833 9.74067 4.89955 10.6344L3.7844 13.1094C2.66924 13.2469 1.76318 14.1407 1.76318 15.3094V18.1282C1.76318 18.6094 1.97227 19.0219 2.32076 19.2969V19.9844C2.32076 21.0157 3.15712 21.8407 4.20258 21.8407C5.17833 21.8407 6.0147 21.0157 6.0844 19.9844V19.5719H15.4238V19.9844C15.4238 21.0157 16.2601 21.8407 17.3056 21.8407C18.351 21.8407 19.1874 21.0157 19.1874 19.9844V19.2969C19.5359 19.0219 19.745 18.6094 19.745 18.1282V15.3094C19.745 14.2094 18.9086 13.2469 17.7935 13.1782ZM6.15409 11.1844C6.29349 10.7719 6.71167 10.4969 7.12983 10.4969H14.3783C14.7965 10.4969 15.2147 10.7719 15.3541 11.1844L16.2601 13.1094H5.24803L6.15409 11.1844ZM4.69046 19.9844C4.69046 20.2594 4.48137 20.4657 4.20258 20.4657C3.92379 20.4657 3.7147 20.2594 3.7147 19.9844V19.5719H4.69046V19.9844ZM17.7935 19.9844C17.7935 20.2594 17.5844 20.4657 17.3056 20.4657C17.0268 20.4657 16.8177 20.2594 16.8177 19.9844V19.5719H17.7935V19.9844ZM18.351 18.1282C18.351 18.174 18.3278 18.1969 18.2813 18.1969H3.22682C3.18035 18.1969 3.15712 18.174 3.15712 18.1282V15.3094C3.15712 14.8282 3.50561 14.4844 4.06318 14.4844H17.5147C18.0026 14.4844 18.351 14.8282 18.351 15.3094V18.1282Z" fill="#2D373D"/>
<path d="M21.8638 6.31003C21.7035 6.09691 21.4386 5.99378 21.1738 6.03503L17.6889 6.67441L17.2289 3.20941C17.1941 2.94816 17.0059 2.72816 16.755 2.64566C16.5041 2.56316 16.2183 2.63191 16.0371 2.82441L13.5977 5.36128L11.1583 2.82441C10.9771 2.63191 10.6913 2.56316 10.4404 2.64566C10.1826 2.72816 10.0013 2.94816 9.9665 3.20941L9.52044 6.55066L8.32165 6.13128C7.95922 6.00066 7.56195 6.19316 7.42953 6.55066C7.30407 6.90816 7.49225 7.30003 7.85468 7.43066L9.86195 8.13878C10.0571 8.20753 10.2801 8.18691 10.4613 8.07691C10.6426 7.96691 10.761 7.78816 10.7889 7.58191L11.1583 4.82503L13.0959 6.83941C13.3607 7.11441 13.8416 7.11441 14.1065 6.83941L16.0441 4.82503L16.4135 7.58191C16.4413 7.76753 16.5389 7.93941 16.6923 8.04941C16.8456 8.15941 17.0407 8.20066 17.2289 8.16628L19.9959 7.65753L18.6507 10.0982C18.4695 10.4213 18.588 10.8338 18.9086 11.0194L20.4001 11.8857C20.5116 11.9475 20.6301 11.9819 20.7486 11.9819C20.9856 11.9819 21.2226 11.8582 21.348 11.645C21.5432 11.315 21.4316 10.8957 21.0971 10.7032L20.1841 10.1738L21.9056 7.05253C22.031 6.81878 22.0171 6.53691 21.8568 6.31691L21.8638 6.31003Z" fill="#2D373D"/>
</svg>
