<svg width="64" height="64" viewBox="0 0 64 64" fill="none" xmlns="http://www.w3.org/2000/svg">
<path d="M27.8001 34.7999C29.4001 34.7999 30.6001 33.4 30.6001 31.7999C30.6001 31.1999 30.2001 30.4 29.8001 30C29.2001 29.4 28.6001 29.2 27.8001 29.2C27.6001 29.2 27.6001 29.2 27.6001 29.2C26.2001 29.4 25.0001 30.6 25.0001 32.2C25.0001 33.6 26.4001 34.7999 27.8001 34.7999Z" fill="#2D373D"/>
<path d="M49.2001 10H42.4001C41.2001 10 40.4001 10.8 40.4001 12C40.4001 13.2 41.2001 14 42.4001 14H49.0001C49.0001 14.2 49.4001 14.6 49.4001 15.4V48.4C49.4001 49.2 49.2001 49.8 49.2001 49.8H42.4001C41.2001 49.8 40.4001 50.6 40.4001 51.8C40.4001 53 41.2001 53.8 42.4001 53.8H49.2001C51.6001 53.8 53.4001 51.6 53.4001 48.4V15.4C53.4001 12.4 51.6001 10 49.2001 10Z" fill="#2D373D"/>
<path d="M33.2001 5.19993L13.4001 10.1999C11.8001 10.5999 10.6001 11.9999 10.6001 13.7999V52.3999C10.6001 54.1999 12.0001 55.5999 13.6001 55.9999L33.4001 58.7999C33.6001 58.7999 33.8001 58.7999 34.0001 58.7999C36.2001 58.7999 37.8001 57.1999 37.6001 55.1999V8.79993C37.6001 8.59993 37.6001 8.19993 37.6001 7.99993C37.2001 5.99993 35.2001 4.79993 33.2001 5.19993ZM33.8001 54.7999L14.6001 51.9999V13.9999L33.8001 9.19993V54.7999Z" fill="#2D373D"/>
</svg>
