<svg width="64" height="65" viewBox="0 0 64 65" fill="none" xmlns="http://www.w3.org/2000/svg">
<path fill-rule="evenodd" clip-rule="evenodd" d="M26.5232 10.8218C28.0005 9.34456 30.0041 8.51465 32.0933 8.51465C34.1825 8.51465 36.1861 9.34456 37.6634 10.8218C39.1407 12.2991 39.9707 14.3027 39.9707 16.3919C39.9707 18.4811 39.1407 20.4847 37.6634 21.9619C36.9116 22.7138 36.0234 23.2979 35.057 23.6903C36.4178 24.1453 37.6687 24.9119 38.7023 25.9455C40.4552 27.6983 41.4399 30.0757 41.4399 32.5545V36.9625C41.4399 38.067 40.5445 38.9625 39.4399 38.9625H38.2668L37.0165 48.965C36.8914 49.9659 36.0406 50.7169 35.0319 50.7169H29.1546C28.1459 50.7169 27.2951 49.9659 27.17 48.965L25.9197 38.9625H24.7466C23.642 38.9625 22.7466 38.067 22.7466 36.9625V32.5545C22.7466 30.0757 23.7313 27.6983 25.4842 25.9455C26.5179 24.9119 27.7687 24.1453 29.1296 23.6903C28.1632 23.2979 27.275 22.7137 26.5232 21.9619C25.0459 20.4847 24.216 18.4811 24.216 16.3919C24.216 14.3027 25.0459 12.2991 26.5232 10.8218ZM32.0933 12.5146C31.065 12.5146 30.0788 12.9231 29.3516 13.6503C28.6245 14.3774 28.216 15.3636 28.216 16.3919C28.216 17.4202 28.6245 18.4064 29.3516 19.1335C30.0788 19.8606 31.065 20.2691 32.0933 20.2691C33.1217 20.2691 34.1079 19.8606 34.835 19.1335C35.5622 18.4064 35.9707 17.4202 35.9707 16.3919C35.9707 15.3636 35.5622 14.3774 34.835 13.6503C34.1079 12.9231 33.1217 12.5146 32.0933 12.5146ZM32.0932 27.208C30.6752 27.208 29.3153 27.7713 28.3126 28.774C27.3099 29.7767 26.7466 31.1366 26.7466 32.5545V34.9625H27.6852C28.6939 34.9625 29.5447 35.7135 29.6698 36.7144L30.9201 46.7169H33.2664L34.5167 36.7144C34.6418 35.7135 35.4926 34.9625 36.5012 34.9625H37.4399V32.5545C37.4399 31.1366 36.8766 29.7767 35.8739 28.774C34.8712 27.7713 33.5113 27.208 32.0932 27.208Z" fill="#2D373D"/>
<path fill-rule="evenodd" clip-rule="evenodd" d="M17.4 14.3916C15.7005 14.3916 14.0706 15.0667 12.8689 16.2684C11.6672 17.4701 10.992 19.1 10.992 20.7995C10.992 22.499 11.6672 24.1289 12.8689 25.3306C13.3831 25.8448 13.9758 26.2626 14.6187 26.5724C13.6674 26.8694 12.7667 27.3174 11.9522 27.9021C10.7471 28.767 9.76506 29.9062 9.08713 31.2255C8.40919 32.5449 8.0548 34.0087 8.05322 35.4921V36.9614C8.05322 38.0659 8.94865 38.9614 10.0532 38.9614H11.2976L12.4884 46.106C12.6492 47.0704 13.4835 47.7772 14.4612 47.7772H20.3386C21.3162 47.7772 22.1506 47.0704 22.3113 46.106L23.048 41.6863C23.2296 40.5968 22.4935 39.5663 21.404 39.3847C20.3144 39.2032 19.284 39.9392 19.1024 41.0287L18.6443 43.7772H16.1555L14.9647 36.6326C14.8039 35.6682 13.9696 34.9614 12.9919 34.9614H12.0804C12.1475 34.2973 12.3385 33.6501 12.6449 33.0537C13.0329 32.2986 13.5949 31.6467 14.2846 31.1516C14.9743 30.6566 15.7718 30.3327 16.6113 30.2067C17.4509 30.0807 18.3083 30.1562 19.1129 30.427C20.1598 30.7793 21.2941 30.2162 21.6464 29.1693C21.9987 28.1225 21.4356 26.9882 20.3887 26.6359C20.3213 26.6132 20.2537 26.5913 20.1859 26.5702C20.8271 26.2607 21.4181 25.8436 21.9312 25.3306C23.1329 24.1289 23.808 22.499 23.808 20.7995C23.808 19.1 23.1329 17.4701 21.9312 16.2684C20.7294 15.0667 19.0995 14.3916 17.4 14.3916ZM15.6973 19.0969C16.1489 18.6453 16.7614 18.3916 17.4 18.3916C18.0387 18.3916 18.6512 18.6453 19.1028 19.0969C19.5543 19.5485 19.808 20.1609 19.808 20.7995C19.808 21.4381 19.5543 22.0506 19.1028 22.5022C18.6512 22.9537 18.0387 23.2074 17.4 23.2074C16.7614 23.2074 16.1489 22.9537 15.6973 22.5022C15.2457 22.0506 14.992 21.4381 14.992 20.7995C14.992 20.1609 15.2457 19.5485 15.6973 19.0969Z" fill="#2D373D"/>
<path fill-rule="evenodd" clip-rule="evenodd" d="M46.7864 14.3916C45.0869 14.3916 43.457 15.0667 42.2553 16.2684C41.0536 17.4701 40.3784 19.1 40.3784 20.7995C40.3784 22.499 41.0536 24.1289 42.2553 25.3306C42.7683 25.8436 43.3594 26.2607 44.0005 26.5702C43.9327 26.5913 43.8651 26.6132 43.7976 26.6359C42.7507 26.9882 42.1877 28.1225 42.54 29.1693C42.8923 30.2162 44.0265 30.7793 45.0734 30.427C45.878 30.1562 46.7355 30.0807 47.575 30.2067C48.4145 30.3327 49.2121 30.6566 49.9017 31.1516C50.5914 31.6467 51.1534 32.2986 51.5414 33.0537C51.8479 33.6501 52.0388 34.2973 52.106 34.9614H51.1944C50.2168 34.9614 49.3824 35.6682 49.2217 36.6326L48.0309 43.7772H45.542L45.0839 41.0287C44.9023 39.9392 43.8719 39.2032 42.7823 39.3847C41.6928 39.5663 40.9568 40.5968 41.1384 41.6863L41.875 46.106C42.0357 47.0704 42.8701 47.7772 43.8478 47.7772H49.7251C50.7028 47.7772 51.5372 47.0704 51.6979 46.106L52.8887 38.9614H54.1331C55.2377 38.9614 56.1331 38.0659 56.1331 36.9614V35.4921C56.1315 34.0087 55.7771 32.5449 55.0992 31.2255C54.4213 29.9062 53.4392 28.767 52.2342 27.9021C51.4196 27.3174 50.5189 26.8694 49.5677 26.5724C50.2106 26.2627 50.8033 25.8449 51.3175 25.3306C52.5193 24.1289 53.1944 22.499 53.1944 20.7995C53.1944 19.1 52.5193 17.4701 51.3175 16.2684C50.1158 15.0667 48.4859 14.3916 46.7864 14.3916ZM45.0837 19.0969C45.5353 18.6453 46.1478 18.3916 46.7864 18.3916C47.4251 18.3916 48.0376 18.6453 48.4891 19.0969C48.9407 19.5485 49.1944 20.1609 49.1944 20.7995C49.1944 21.4381 48.9407 22.0506 48.4891 22.5022C48.0376 22.9537 47.4251 23.2074 46.7864 23.2074C46.1478 23.2074 45.5353 22.9537 45.0837 22.5022C44.6321 22.0506 44.3784 21.4381 44.3784 20.7995C44.3784 20.1609 44.6321 19.5485 45.0837 19.0969Z" fill="#2D373D"/>
<path d="M10.0532 48.1865C11.0005 48.1865 11.7939 48.8451 12.0007 49.7293C12.1163 49.8153 12.3176 49.942 12.6402 50.0945C13.541 50.5205 14.9722 50.9568 16.9009 51.3425C20.7254 52.1073 26.0978 52.5944 32.0932 52.5944C38.0886 52.5944 43.461 52.1073 47.2855 51.3425C49.2143 50.9568 50.6454 50.5205 51.5462 50.0945C51.8688 49.942 52.0701 49.8153 52.1857 49.7293C52.3925 48.8451 53.186 48.1865 54.1332 48.1865C55.2378 48.1865 56.1332 49.082 56.1332 50.1865C56.1332 51.2181 55.6019 51.9985 55.0835 52.5053C54.5684 53.0088 53.916 53.3986 53.2561 53.7106C51.9263 54.3395 50.1297 54.8529 48.0699 55.2648C43.9174 56.0952 38.2698 56.5944 32.0932 56.5944C25.9167 56.5944 20.2691 56.0952 16.1166 55.2648C14.0568 54.8529 12.2602 54.3395 10.9303 53.7106C10.2705 53.3986 9.61808 53.0088 9.10299 52.5053C8.58453 51.9985 8.05322 51.2181 8.05322 50.1865C8.05322 49.082 8.94865 48.1865 10.0532 48.1865Z" fill="#2D373D"/>
</svg>
