<svg width="64" height="65" viewBox="0 0 64 65" fill="none" xmlns="http://www.w3.org/2000/svg">
<path fill-rule="evenodd" clip-rule="evenodd" d="M40 23.1286H13.3333C12.597 23.1286 12 23.7255 12 24.4619V51.1286C12 51.865 12.597 52.4619 13.3333 52.4619H40C40.7364 52.4619 41.3333 51.865 41.3333 51.1286V24.4619C41.3333 23.7255 40.7364 23.1286 40 23.1286ZM13.3333 19.1286C10.3878 19.1286 8 21.5164 8 24.4619V51.1286C8 54.0741 10.3878 56.4619 13.3333 56.4619H40C42.9455 56.4619 45.3333 54.0741 45.3333 51.1286V24.4619C45.3333 21.5164 42.9455 19.1286 40 19.1286H13.3333Z" fill="#2D373D"/>
<path fill-rule="evenodd" clip-rule="evenodd" d="M51.3333 8.46192C53.9107 8.46192 56 10.5513 56 13.1286V39.7952C56 42.3726 53.9107 44.4619 51.3333 44.4619H49.3741C48.2696 44.4619 47.3741 43.5665 47.3741 42.4619C47.3741 41.3573 48.2696 40.4619 49.3741 40.4619H51.3333C51.7015 40.4619 52 40.1634 52 39.7952V13.1286C52 12.7604 51.7015 12.4619 51.3333 12.4619L24.6667 12.4619C24.2985 12.4619 24 12.7604 24 13.1286V15.0878C24 16.1923 23.1046 17.0878 22 17.0878C20.8954 17.0878 20 16.1923 20 15.0878V13.1286C20 10.5512 22.0893 8.46191 24.6667 8.46191L51.3333 8.46192Z" fill="#2D373D"/>
</svg>
