<svg width="64" height="64" viewBox="0 0 64 64" fill="none" xmlns="http://www.w3.org/2000/svg">
<path d="M17.0002 32.2C18.2002 32.2 19.0002 31.4 19.0002 30.2V27C19.0002 25.8 18.2002 25 17.0002 25C15.8002 25 15.0002 25.8 15.0002 27V30.2C15.0002 31.4 15.8002 32.2 17.0002 32.2Z" fill="#2D373D"/>
<path d="M27.0002 32.2C28.2002 32.2 29.0002 31.4 29.0002 30.2V27C29.0002 25.8 28.2002 25 27.0002 25C25.8002 25 25.0002 25.8 25.0002 27V30.2C25.0002 31.4 25.8002 32.2 27.0002 32.2Z" fill="#2D373D"/>
<path d="M36.8002 32.2C38.0002 32.2 38.8002 31.4 38.8002 30.2V27C38.8002 25.8 38.0002 25 36.8002 25C35.6002 25 34.8002 25.8 34.8002 27V30.2C34.8002 31.4 35.6002 32.2 36.8002 32.2Z" fill="#2D373D"/>
<path d="M46.8002 32.2C47.8002 32.2 48.8002 31.4 48.8002 30.2V27C48.8002 25.8 48.0002 25 46.8002 25C45.6002 25 44.8002 25.8 44.8002 27V30.2C44.8002 31.4 45.6002 32.2 46.8002 32.2Z" fill="#2D373D"/>
<path d="M17.0002 42.2C18.2002 42.2 19.0002 41.4 19.0002 40.2V36.8C19.0002 35.6 18.2002 34.8 17.0002 34.8C15.8002 34.8 15.0002 35.6 15.0002 36.8V40.2C15.0002 41.4 15.8002 42.2 17.0002 42.2Z" fill="#2D373D"/>
<path d="M27.0002 42.2C28.2002 42.2 29.0002 41.4 29.0002 40.2V36.8C29.0002 35.6 28.2002 34.8 27.0002 34.8C25.8002 34.8 25.0002 35.6 25.0002 36.8V40.2C25.0002 41.4 25.8002 42.2 27.0002 42.2Z" fill="#2D373D"/>
<path d="M36.8002 42.2C38.0002 42.2 38.8002 41.4 38.8002 40.2V36.8C38.8002 35.6 38.0002 34.8 36.8002 34.8C35.6002 34.8 34.8002 35.6 34.8002 36.8V40.2C34.8002 41.4 35.6002 42.2 36.8002 42.2Z" fill="#2D373D"/>
<path d="M46.8002 42.2C47.8002 42.2 48.8002 41.4 48.8002 40.2V36.8C48.8002 35.6 48.0002 34.8 46.8002 34.8C45.6002 34.8 44.8002 35.6 44.8002 36.8V40.2C44.8002 41.4 45.6002 42.2 46.8002 42.2Z" fill="#2D373D"/>
<path d="M56.8002 18.4H55.0002L52.8002 9.19995C52.2002 6.79995 50.0002 5.19995 47.6002 5.19995H16.4002C14.0002 5.19995 11.8002 6.79995 11.2002 9.19995L9.0002 18.4H7.2002C6.0002 18.4 5.2002 19.2 5.2002 20.4C5.2002 21.6 6.0002 22.4 7.2002 22.4H8.4002V56.5999C8.4002 57.7999 9.2002 58.5999 10.4002 58.5999H53.4002C54.6002 58.5999 55.4002 57.7999 55.2002 56.5999V22.4H56.6002C57.8002 22.4 58.8002 21.6 58.8002 20.4C58.8002 19.2 58.0002 18.4 56.8002 18.4ZM15.2002 10.2C15.2002 9.59995 15.8002 9.19995 16.4002 9.19995H47.6002C48.2002 9.19995 48.6002 9.59995 48.8002 10.2L50.8002 18.4H13.0002L15.2002 10.2ZM29.0002 54.5999V50C29.0002 49.2 29.4002 48.5999 30.2002 48.5999H33.6002C34.2002 48.5999 34.8002 49.2 34.8002 50V54.5999H29.0002ZM51.2002 54.5999H38.8002V50C38.8002 47 36.4002 44.5999 33.4002 44.5999H30.2002C27.4002 44.5999 25.0002 47 25.0002 50V54.5999H12.4002V22.4H51.2002V54.5999Z" fill="#2D373D"/>
<path d="M17.0002 51.9999C18.2002 51.9999 19.0002 51.1999 19.0002 49.9999V46.5999C19.0002 45.3999 18.2002 44.5999 17.0002 44.5999C15.8002 44.5999 15.0002 45.3999 15.0002 46.5999V49.9999C15.0002 51.1999 15.8002 51.9999 17.0002 51.9999Z" fill="#2D373D"/>
<path d="M46.8002 51.9999C47.8002 51.9999 48.8002 51.1999 48.8002 49.9999V46.5999C48.8002 45.3999 48.0002 44.5999 46.8002 44.5999C45.6002 44.5999 44.8002 45.3999 44.8002 46.5999V49.9999C44.8002 51.1999 45.6002 51.9999 46.8002 51.9999Z" fill="#2D373D"/>
</svg>
