<svg width="24" height="25" viewBox="0 0 24 25" fill="none" xmlns="http://www.w3.org/2000/svg">
<path fill-rule="evenodd" clip-rule="evenodd" d="M8.01507 5.96847C8.01507 4.5836 6.89241 3.46094 5.50754 3.46094C4.12266 3.46094 3 4.5836 3 5.96847C3 7.35335 4.12266 8.47601 5.50754 8.47601C6.04339 8.47601 6.54 8.30759 6.94717 8.02167L7.27399 8.29034C7.59396 8.55337 8.06659 8.50721 8.32962 8.18724C8.59266 7.86726 8.5465 7.39464 8.22653 7.1316L7.86217 6.83208C7.96105 6.56258 8.01507 6.27152 8.01507 5.96847ZM5.50754 4.96094C6.06398 4.96094 6.51507 5.41203 6.51507 5.96847C6.51507 6.1962 6.44042 6.40432 6.31394 6.57266C6.12885 6.81901 5.83664 6.97601 5.50754 6.97601C4.95109 6.97601 4.5 6.52492 4.5 5.96847C4.5 5.41203 4.95109 4.96094 5.50754 4.96094Z" fill="#2D373D"/>
<path fill-rule="evenodd" clip-rule="evenodd" d="M12.0029 7.21094C10.4239 7.21094 9.14383 8.49097 9.14383 10.07C9.14383 11.0825 9.67018 11.9721 10.4642 12.4801C9.26669 13.054 8.43973 14.2775 8.43973 15.6941C8.43973 16.1083 8.77552 16.4441 9.18973 16.4441H14.8138C15.2281 16.4441 15.5638 16.1083 15.5638 15.6941C15.5638 14.278 14.7375 13.0549 13.5406 12.4807C14.3352 11.9728 14.8619 11.0829 14.8619 10.07C14.8619 8.49097 13.5819 7.21094 12.0029 7.21094ZM10.6438 10.07C10.6438 9.3194 11.2523 8.71094 12.0029 8.71094C12.7535 8.71094 13.3619 9.3194 13.3619 10.07C13.3619 10.8206 12.7535 11.429 12.0029 11.429C11.2523 11.429 10.6438 10.8206 10.6438 10.07ZM12.0018 13.632C12.876 13.632 13.6232 14.1761 13.9232 14.9441H10.0804C10.3804 14.1761 11.1275 13.632 12.0018 13.632Z" fill="#2D373D"/>
<path fill-rule="evenodd" clip-rule="evenodd" d="M8.01409 19.0034C8.01409 20.3883 6.89143 21.5109 5.50656 21.5109C4.12169 21.5109 2.99902 20.3883 2.99902 19.0034C2.99902 17.6185 4.12169 16.4959 5.50656 16.4959C6.04241 16.4959 6.53903 16.6643 6.94619 16.9502L7.27301 16.6815C7.59299 16.4185 8.06561 16.4646 8.32865 16.7846C8.59168 17.1046 8.54553 17.5772 8.22555 17.8403L7.86119 18.1398C7.96008 18.4093 8.01409 18.7003 8.01409 19.0034ZM5.50656 20.0109C6.063 20.0109 6.51409 19.5598 6.51409 19.0034C6.51409 18.7757 6.43944 18.5675 6.31297 18.3992C6.12788 18.1528 5.83566 17.9959 5.50656 17.9959C4.95011 17.9959 4.49902 18.4469 4.49902 19.0034C4.49902 19.5598 4.95011 20.0109 5.50656 20.0109Z" fill="#2D373D"/>
<path fill-rule="evenodd" clip-rule="evenodd" d="M18.493 21.5109C17.1081 21.5109 15.9855 20.3882 15.9855 19.0034C15.9855 18.7003 16.0395 18.4093 16.1384 18.1398L15.774 17.8402C15.4541 17.5772 15.4079 17.1046 15.6709 16.7846C15.934 16.4646 16.4066 16.4185 16.7266 16.6815L17.0534 16.9502C17.4606 16.6642 17.9572 16.4958 18.493 16.4958C19.8779 16.4958 21.0006 17.6185 21.0006 19.0034C21.0006 20.3882 19.8779 21.5109 18.493 21.5109ZM17.4855 19.0034C17.4855 19.5598 17.9366 20.0109 18.493 20.0109C19.0495 20.0109 19.5006 19.5598 19.5006 19.0034C19.5006 18.4469 19.0495 17.9958 18.493 17.9958C18.1639 17.9958 17.8717 18.1528 17.6866 18.3992C17.5601 18.5675 17.4855 18.7756 17.4855 19.0034Z" fill="#2D373D"/>
<path fill-rule="evenodd" clip-rule="evenodd" d="M18.493 3.46094C17.1081 3.46094 15.9855 4.5836 15.9855 5.96847C15.9855 6.27152 16.0395 6.56258 16.1384 6.83208L15.774 7.1316C15.4541 7.39464 15.4079 7.86726 15.6709 8.18724C15.934 8.50721 16.4066 8.55337 16.7266 8.29034L17.0534 8.02167C17.4606 8.30759 17.9572 8.47601 18.493 8.47601C19.8779 8.47601 21.0006 7.35335 21.0006 5.96847C21.0006 4.5836 19.8779 3.46094 18.493 3.46094ZM17.4855 5.96847C17.4855 5.41203 17.9366 4.96094 18.493 4.96094C19.0495 4.96094 19.5006 5.41203 19.5006 5.96847C19.5006 6.52492 19.0495 6.97601 18.493 6.97601C18.1639 6.97601 17.8717 6.81901 17.6866 6.57266C17.5601 6.40432 17.4855 6.1962 17.4855 5.96847Z" fill="#2D373D"/>
</svg>
