<svg width="32" height="33" viewBox="0 0 32 33" fill="none" xmlns="http://www.w3.org/2000/svg">
<path d="M28.4498 7.1539C27.9274 6.67934 27.2456 6.41874 26.5398 6.4239H5.53981C4.83642 6.42174 4.15673 6.67796 3.62981 7.1439C3.36812 7.38216 3.15911 7.67246 3.01618 7.99621C2.87325 8.31996 2.79955 8.67001 2.79981 9.0239V25.0239C2.80347 25.3776 2.88097 25.7266 3.02734 26.0487C3.17371 26.3707 3.38573 26.6586 3.64981 26.8939C4.17574 27.3615 4.85608 27.6179 5.55981 27.6139H26.6698C27.3406 27.6153 27.9885 27.3697 28.4898 26.9239C28.7435 26.6996 28.9468 26.4241 29.0864 26.1156C29.226 25.8071 29.2987 25.4725 29.2998 25.1339V9.0239C29.2986 8.66978 29.2223 8.31995 29.0757 7.99757C28.9292 7.67519 28.7158 7.38762 28.4498 7.1539ZM27.1098 8.6339C27.1664 8.6803 27.2126 8.73813 27.2454 8.80361C27.2781 8.8691 27.2967 8.94076 27.2998 9.0139V10.8539H16.2298V8.4239H26.5398C26.7492 8.4213 26.9522 8.49608 27.1098 8.6339ZM11.3298 10.8539V8.4239H14.2298V10.8539H11.3298ZM5.02981 8.6339C5.1893 8.49922 5.39106 8.42489 5.59981 8.4239H9.32981V10.8539H4.79981V9.0239C4.80696 8.94595 4.8313 8.87054 4.87106 8.80311C4.91083 8.73567 4.96504 8.67789 5.02981 8.6339ZM27.1498 25.4539C27.0159 25.5671 26.8452 25.6276 26.6698 25.6239H5.55981C5.36423 25.617 5.17703 25.5428 5.02981 25.4139C4.96455 25.3704 4.90996 25.3128 4.87013 25.2452C4.8303 25.1777 4.80626 25.102 4.79981 25.0239V12.8539H27.2998V25.1439C27.2981 25.2032 27.2839 25.2615 27.258 25.315C27.2322 25.3684 27.1953 25.4158 27.1498 25.4539Z" fill="#2D373D"/>
</svg>
