<svg width="16" height="17" viewBox="0 0 16 17" fill="none" xmlns="http://www.w3.org/2000/svg">
<path d="M7.83301 9.28253H7.39967V8.77586C7.39967 8.19586 7.15967 7.62919 6.72634 7.22253C5.87301 6.40919 4.39301 6.40253 3.53967 7.22253C3.10634 7.62919 2.86634 8.19586 2.86634 8.77586V9.28253H2.43301C1.82634 9.28253 1.33301 9.76253 1.33301 10.3559V14.5159C1.33301 15.1092 1.82634 15.5892 2.43301 15.5892H7.83301C8.43967 15.5892 8.93301 15.1092 8.93301 14.5159V10.3559C8.93301 9.76253 8.43967 9.28253 7.83301 9.28253ZM3.86634 8.77586C3.86634 8.46253 3.99301 8.16919 4.22634 7.94253C4.69967 7.48919 5.56634 7.49586 6.03967 7.94253C6.27301 8.16919 6.39967 8.46253 6.39967 8.77586V9.28253H3.86634V8.77586ZM7.93301 14.5159C7.93301 14.5159 7.89301 14.5892 7.83301 14.5892H2.43301C2.37301 14.5892 2.33301 14.5492 2.33301 14.5159V10.3559C2.33301 10.3225 2.37301 10.2825 2.43301 10.2825H7.83301C7.89301 10.2825 7.93301 10.3225 7.93301 10.3559V14.5159Z" fill="#2D373D"/>
<path d="M6.19967 13.0159C6.15301 13.2025 6.03967 13.3625 5.87967 13.4759C5.75967 13.5625 5.60634 13.6092 5.45967 13.6225C5.42634 13.7759 5.29301 13.8892 5.13301 13.8892C4.97301 13.8892 4.84634 13.7825 4.81301 13.6359H4.53301C4.34634 13.6359 4.19967 13.4892 4.19967 13.3025C4.19967 13.1159 4.34634 12.9692 4.53301 12.9692H5.34634C5.39967 12.9692 5.45967 12.9559 5.49967 12.9292C5.52634 12.9092 5.54634 12.8892 5.54634 12.8692C5.51967 12.7959 5.48634 12.7759 5.43967 12.7625L4.61301 12.4825C4.42634 12.4225 4.27301 12.3025 4.16634 12.1492C4.05967 11.9825 4.02634 11.7825 4.06634 11.5892C4.11301 11.4092 4.22634 11.2425 4.38634 11.1359C4.51301 11.0492 4.65301 10.9959 4.80634 10.9825C4.83967 10.8292 4.97301 10.7225 5.13301 10.7225C5.29301 10.7225 5.41967 10.8225 5.45301 10.9692H5.73301C5.91967 10.9692 6.06634 11.1225 6.06634 11.3025C6.06634 11.4825 5.91967 11.6359 5.73301 11.6359H4.91967C4.85967 11.6359 4.80634 11.6559 4.76634 11.6825C4.73301 11.7025 4.71967 11.7292 4.71967 11.7425C4.74634 11.8092 4.77967 11.8359 4.82634 11.8492L5.65301 12.1292C5.83967 12.1892 5.99301 12.3092 6.09301 12.4625C6.20634 12.6292 6.23967 12.8292 6.19967 13.0159Z" fill="#2D373D"/>
<path d="M10.833 2.25586C8.71967 2.25586 6.99967 3.97586 6.99967 6.08919C6.99967 8.20253 8.71967 9.92253 10.833 9.92253C12.9463 9.92253 14.6663 8.20253 14.6663 6.08919C14.6663 3.97586 12.9463 2.25586 10.833 2.25586ZM10.833 3.25586C12.033 3.25586 13.0663 4.00919 13.473 5.06919H8.19301C8.59967 4.00919 9.63301 3.25586 10.833 3.25586ZM12.4797 6.00919C12.4797 6.24919 12.2797 6.44253 12.0463 6.44253C11.813 6.44253 11.613 6.24919 11.613 6.00919C11.613 5.76919 11.8063 5.58253 12.0463 5.58253C12.2863 5.58253 12.4797 5.77586 12.4797 6.00919ZM9.79967 6.00919C9.79967 6.24919 9.60634 6.44253 9.36634 6.44253C9.12634 6.44253 8.93301 6.24919 8.93301 6.00919C8.93301 5.76919 9.12634 5.58253 9.36634 5.58253C9.60634 5.58253 9.79967 5.77586 9.79967 6.00919ZM10.833 8.92253C9.63301 8.92253 8.59967 8.16919 8.19301 7.10919H13.473C13.0663 8.16919 12.033 8.92253 10.833 8.92253Z" fill="#2D373D"/>
<path d="M11.3063 4.79586C11.1597 4.79586 11.0197 4.69586 10.9797 4.54253C10.933 4.36253 11.0463 4.18253 11.2197 4.13586L12.2197 3.88253C12.393 3.83586 12.5797 3.94919 12.6263 4.12253C12.673 4.30253 12.5597 4.48253 12.3863 4.52919L11.3863 4.78253C11.3863 4.78253 11.333 4.79586 11.3063 4.79586Z" fill="#2D373D"/>
<path d="M10.2397 4.81586C10.2397 4.81586 10.1797 4.81586 10.1463 4.80253L9.15301 4.51586C8.97301 4.46253 8.87301 4.28253 8.92634 4.10253C8.97967 3.92919 9.15967 3.82253 9.33967 3.87586L10.333 4.16253C10.513 4.21586 10.613 4.39586 10.5597 4.57586C10.5197 4.72253 10.3863 4.81586 10.2397 4.81586Z" fill="#2D373D"/>
<path d="M10.2063 8.74919C10.153 8.74919 10.093 8.73586 10.0397 8.70919C9.87967 8.61586 9.81967 8.41586 9.91301 8.25586C10.2863 7.59586 11.1797 7.02919 12.573 7.41586C12.753 7.46253 12.853 7.64919 12.8063 7.82919C12.7597 8.00919 12.573 8.11586 12.393 8.06253C11.113 7.70919 10.613 8.37586 10.493 8.58919C10.433 8.69586 10.3197 8.75586 10.1997 8.75586L10.2063 8.74919Z" fill="#2D373D"/>
</svg>
