<svg width="16" height="17" viewBox="0 0 16 17" fill="none" xmlns="http://www.w3.org/2000/svg">
<path d="M14.55 6.91172C14.15 5.16172 13.05 3.71172 11.55 2.76172C10.45 2.11172 9.25 1.76172 8 1.76172C6.2 1.76172 4.55 2.46172 3.25 3.76172C2 5.01172 1.3 6.66172 1.3 8.46172C1.3 9.61172 1.6 10.7617 2.2 11.7617L1.3 14.5617C1.25 14.7117 1.3 14.9117 1.45 15.0617C1.55 15.1617 1.65 15.2117 1.8 15.2117C1.85 15.2117 1.95 15.1617 2 15.1617L4.7 14.2617C6.15 15.1117 7.9 15.3617 9.55 14.9617C11.3 14.5617 12.75 13.4617 13.7 11.9617C14.65 10.4617 14.95 8.66172 14.55 6.91172ZM12.85 11.4617C11.2 14.1617 7.65 14.9617 5 13.3117C4.95 13.2617 4.85 13.2117 4.75 13.2117C4.7 13.2117 4.65 13.2117 4.6 13.2117L2.6 13.8617L3.25 11.8117C3.3 11.6617 3.3 11.5117 3.2 11.4117C2.65 10.5117 2.35 9.46172 2.35 8.41172C2.35 6.91172 2.9 5.46172 4 4.41172C5.05 3.36172 6.5 2.76172 8 2.76172C9.05 2.71172 10.1 3.06172 11 3.61172C12.3 4.41172 13.2 5.66172 13.55 7.16172C13.9 8.66172 13.65 10.1617 12.85 11.4617Z" fill="#2D373D"/>
<path d="M8.0001 4.56177C6.8001 4.56177 5.8501 5.51177 5.8501 6.71177C5.8501 7.01177 6.0501 7.21177 6.3501 7.21177C6.6501 7.21177 6.8501 7.01177 6.8501 6.71177C6.8501 6.06177 7.3501 5.56177 8.0001 5.56177C8.6501 5.56177 9.1501 6.06177 9.1501 6.71177C9.1501 7.21177 8.8501 7.66177 8.4001 7.81177C7.8501 8.01177 7.5001 8.51177 7.5001 9.06177V9.61177C7.5001 9.91177 7.7001 10.1118 8.0001 10.1118C8.3001 10.1118 8.5001 9.86177 8.5001 9.61177V9.06177C8.5001 8.91177 8.5501 8.81177 8.7001 8.76177C9.5501 8.46177 10.1501 7.61177 10.1501 6.71177C10.1501 5.51177 9.2001 4.56177 8.0001 4.56177Z" fill="#2D373D"/>
<path d="M8.00005 11.1117C7.60005 11.1117 7.30005 11.4117 7.30005 11.8117C7.30005 12.2117 7.60005 12.5117 8.00005 12.5117C8.40005 12.5117 8.70005 12.2117 8.70005 11.8117C8.70005 11.4117 8.40005 11.1117 8.00005 11.1117Z" fill="#2D373D"/>
</svg>
