<svg width="24" height="25" viewBox="0 0 24 25" fill="none" xmlns="http://www.w3.org/2000/svg">
<path fill-rule="evenodd" clip-rule="evenodd" d="M5.95001 3.46191C6.36423 3.46191 6.70001 3.7977 6.70001 4.21191V6.96191C6.70001 7.37613 6.36423 7.71191 5.95001 7.71191C5.5358 7.71191 5.20001 7.37613 5.20001 6.96191V6.06192H4.85C4.75717 6.06192 4.66815 6.0988 4.60251 6.16443C4.53687 6.23007 4.5 6.31909 4.5 6.41192V10.8119C4.5 11.78 4.88455 12.7084 5.56906 13.3929C6.25172 14.0755 7.17694 14.4598 8.14215 14.4619C8.14477 14.4619 8.14738 14.4619 8.15 14.4619C8.15262 14.4619 8.15524 14.4619 8.15785 14.4619C9.12306 14.4598 10.0483 14.0755 10.7309 13.3929C11.4154 12.7084 11.8 11.78 11.8 10.8119V6.41192C11.8 6.31909 11.7631 6.23007 11.6975 6.16443C11.6318 6.0988 11.5428 6.06192 11.45 6.06192H11.1V6.96191C11.1 7.37613 10.7642 7.71191 10.35 7.71191C9.93578 7.71191 9.59999 7.37613 9.59999 6.96191V4.21191C9.59999 3.7977 9.93578 3.46191 10.35 3.46191C10.7642 3.46191 11.1 3.7977 11.1 4.21191V4.56192H11.45C11.9407 4.56192 12.4112 4.75683 12.7581 5.10377C13.1051 5.45072 13.3 5.92127 13.3 6.41192V10.8119C13.3 12.1778 12.7574 13.4877 11.7916 14.4535C11.0049 15.2402 9.99001 15.7461 8.9025 15.9067C8.93907 16.968 9.37669 17.9783 10.1302 18.7317C10.9178 19.5194 11.9861 19.9619 13.1 19.9619C14.2139 19.9619 15.2822 19.5194 16.0698 18.7317C16.8575 17.9441 17.3 16.8758 17.3 15.7619V13.665C16.7989 13.5333 16.3367 13.2706 15.964 12.8979C15.4108 12.3447 15.1 11.5943 15.1 10.8119C15.1 10.0296 15.4108 9.27921 15.964 8.72597C16.5173 8.17274 17.2676 7.86194 18.05 7.86194C18.8324 7.86194 19.5827 8.17274 20.136 8.72597C20.6892 9.27921 21 10.0296 21 10.8119C21 11.5943 20.6892 12.3447 20.136 12.8979C19.7633 13.2706 19.3011 13.5333 18.8 13.665V15.7619C18.8 17.2736 18.1995 18.7234 17.1305 19.7924C16.0616 20.8613 14.6117 21.4619 13.1 21.4619C11.5883 21.4619 10.1384 20.8613 9.06949 19.7924C8.03486 18.7578 7.43906 17.3663 7.40186 15.9073C6.3127 15.7474 5.2961 15.2412 4.5084 14.4535C3.54259 13.4877 3 12.1778 3 10.8119V6.41192C3 5.92127 3.19491 5.45072 3.54185 5.10377C3.88879 4.75683 4.35935 4.56192 4.85 4.56192H5.20001V4.21191C5.20001 3.7977 5.5358 3.46191 5.95001 3.46191ZM18.0582 12.2619C18.4398 12.2598 18.8053 12.1072 19.0753 11.8372C19.3472 11.5653 19.5 11.1965 19.5 10.8119C19.5 10.4274 19.3472 10.0586 19.0753 9.78663C18.8034 9.51471 18.4346 9.36194 18.05 9.36194C17.6654 9.36194 17.2966 9.51471 17.0247 9.78663C16.7528 10.0586 16.6 10.4274 16.6 10.8119C16.6 11.1965 16.7528 11.5653 17.0247 11.8372C17.2947 12.1072 17.6602 12.2598 18.0418 12.2619C18.0445 12.2619 18.0473 12.2619 18.05 12.2619C18.0527 12.2619 18.0555 12.2619 18.0582 12.2619Z" fill="#2D373D"/>
</svg>
