<svg width="24" height="25" viewBox="0 0 24 25" fill="none" xmlns="http://www.w3.org/2000/svg">
<path fill-rule="evenodd" clip-rule="evenodd" d="M6.24675 10.2119C6.10595 10.2119 5.97642 10.266 5.88527 10.3537C5.79509 10.4405 5.75 10.552 5.75 10.6619V20.2619C5.75 20.3718 5.79509 20.4833 5.88527 20.57C5.97642 20.6578 6.10595 20.7119 6.24675 20.7119H17.4675C17.6083 20.7119 17.7379 20.6578 17.829 20.57C17.9192 20.4833 17.9643 20.3718 17.9643 20.2619V10.6619C17.9643 10.552 17.9192 10.4405 17.829 10.3537C17.7379 10.266 17.6083 10.2119 17.4675 10.2119H16.2208C15.8066 10.2119 15.4708 9.8761 15.4708 9.46188C15.4708 9.04767 15.8066 8.71188 16.2208 8.71188H17.4675C17.9881 8.71188 18.4928 8.91064 18.8692 9.27299C19.2467 9.63628 19.4643 10.1353 19.4643 10.6619V20.2619C19.4643 20.7885 19.2467 21.2875 18.8692 21.6508C18.4928 22.0131 17.9881 22.2119 17.4675 22.2119H6.24675C5.72623 22.2119 5.22154 22.0131 4.84506 21.6508C4.46762 21.2875 4.25 20.7885 4.25 20.2619V10.6619C4.25 10.1353 4.46762 9.63628 4.84506 9.27299C5.22154 8.91064 5.72623 8.71188 6.24675 8.71188H7.49351C7.90772 8.71188 8.24351 9.04767 8.24351 9.46188C8.24351 9.8761 7.90772 10.2119 7.49351 10.2119H6.24675Z" fill="#2D373D"/>
<path fill-rule="evenodd" clip-rule="evenodd" d="M11.8571 2.71191C12.2713 2.71191 12.6071 3.0477 12.6071 3.46191V12.0333C12.6071 12.4476 12.2713 12.7833 11.8571 12.7833C11.4428 12.7833 11.1071 12.4476 11.1071 12.0333V3.46191C11.1071 3.0477 11.4428 2.71191 11.8571 2.71191Z" fill="#2D373D"/>
<path fill-rule="evenodd" clip-rule="evenodd" d="M11.327 2.93158C11.6198 2.63869 12.0947 2.63869 12.3876 2.93158L15.8162 6.36016C16.1091 6.65305 16.1091 7.12792 15.8162 7.42082C15.5233 7.71371 15.0484 7.71371 14.7555 7.42082L11.8573 4.52257L8.95904 7.42082C8.66615 7.71371 8.19127 7.71371 7.89838 7.42082C7.60549 7.12792 7.60549 6.65305 7.89838 6.36016L11.327 2.93158Z" fill="#2D373D"/>
</svg>
