<svg width="16" height="17" viewBox="0 0 16 17" fill="none" xmlns="http://www.w3.org/2000/svg">
<path d="M11.6668 4.92057C11.3907 4.92057 11.1668 4.69672 11.1668 4.42057L11.1668 3.25391L10.0002 3.25391C9.72402 3.25391 9.50016 3.03005 9.50016 2.75391C9.50016 2.47776 9.72402 2.25391 10.0002 2.25391H11.6668C11.943 2.25391 12.1668 2.47776 12.1668 2.75391L12.1668 4.42057C12.1668 4.69671 11.943 4.92057 11.6668 4.92057Z" fill="#2D373D"/>
<path d="M7.10138 3.55822C7.11686 3.54775 7.12985 3.54521 7.14159 3.54568C7.15427 3.54618 7.17374 3.55081 7.19643 3.56782L12.2002 7.32062C12.4211 7.48631 12.7345 7.44154 12.9002 7.22062C13.0659 6.99971 13.0211 6.68631 12.8002 6.52062L7.79643 2.76782C7.4341 2.49608 6.93735 2.46196 6.54119 2.72985C5.55203 3.39877 2.7418 5.40174 1.49436 6.55322C1.29145 6.74052 1.27879 7.05685 1.4661 7.25976C1.6534 7.46267 1.96973 7.47533 2.17264 7.28803C3.35836 6.19351 6.11097 4.22798 7.10138 3.55822Z" fill="#2D373D"/>
<path d="M3.8335 7.58724C3.8335 7.3111 3.60964 7.08724 3.3335 7.08724C3.05735 7.08724 2.8335 7.3111 2.8335 7.58724V12.2539C2.8335 12.8982 3.35583 13.4206 4.00016 13.4206H6.00016C6.2763 13.4206 6.50016 13.1967 6.50016 12.9206C6.50016 12.6444 6.2763 12.4206 6.00016 12.4206H4.00016C3.90812 12.4206 3.8335 12.346 3.8335 12.2539V7.58724Z" fill="#2D373D"/>
<path d="M10.6668 9.42057C10.943 9.42057 11.1668 9.64443 11.1668 9.92057V11.0872H12.3335C12.6096 11.0872 12.8335 11.3111 12.8335 11.5872C12.8335 11.8634 12.6096 12.0872 12.3335 12.0872H11.1668V13.2539C11.1668 13.53 10.943 13.7539 10.6668 13.7539C10.3907 13.7539 10.1668 13.53 10.1668 13.2539V12.0872H9.00016C8.72402 12.0872 8.50016 11.8634 8.50016 11.5872C8.50016 11.3111 8.72402 11.0872 9.00016 11.0872H10.1668V9.92057C10.1668 9.64443 10.3907 9.42057 10.6668 9.42057Z" fill="#2D373D"/>
<path fill-rule="evenodd" clip-rule="evenodd" d="M14.6668 11.5872C14.6668 13.7964 12.876 15.5872 10.6668 15.5872C8.45769 15.5872 6.66683 13.7964 6.66683 11.5872C6.66683 9.3781 8.45769 7.58724 10.6668 7.58724C12.876 7.58724 14.6668 9.3781 14.6668 11.5872ZM13.6668 11.5872C13.6668 13.2441 12.3237 14.5872 10.6668 14.5872C9.00997 14.5872 7.66683 13.2441 7.66683 11.5872C7.66683 9.93039 9.00997 8.58724 10.6668 8.58724C12.3237 8.58724 13.6668 9.93039 13.6668 11.5872Z" fill="#2D373D"/>
</svg>
