<svg width="16" height="17" viewBox="0 0 16 17" fill="none" xmlns="http://www.w3.org/2000/svg">
<path d="M7.5002 8.16211C7.6002 7.91211 7.5002 7.61211 7.2502 7.51211C7.0502 7.41211 6.8002 7.36211 6.6002 7.31211C7.6002 6.96211 8.3002 6.01211 8.3002 4.96211C8.3002 3.56211 7.1502 2.41211 5.7502 2.41211C4.4002 2.41211 3.2502 3.56211 3.2002 4.91211C3.2002 6.01211 3.9002 6.96211 4.9002 7.31211C3.2002 7.71211 1.9502 9.21211 1.9502 11.0121C1.9502 11.3121 2.1502 11.5121 2.4502 11.5121C2.7502 11.5121 2.9502 11.3121 2.9502 11.0121C2.9502 10.2621 3.2502 9.56211 3.8002 9.01211C4.3502 8.46211 5.0502 8.16211 5.8002 8.16211C6.2002 8.16211 6.5502 8.26211 6.9002 8.41211C7.1502 8.56211 7.4502 8.41211 7.5002 8.16211ZM4.2502 4.96211C4.2502 4.11211 4.9502 3.41211 5.7502 3.41211C6.6002 3.41211 7.3002 4.06211 7.3002 4.91211C7.3002 5.76211 6.5502 6.46211 5.7502 6.46211C4.9502 6.46211 4.2502 5.81211 4.2502 4.96211Z" fill="#2D373D"/>
<path d="M13.7502 9.36208C13.7002 9.21208 13.5502 9.01208 13.4002 8.86208C13.0502 8.46208 12.5502 8.26208 12.0002 8.26208C11.4502 8.26208 11.0002 8.46208 10.6002 8.86208L10.5502 8.91208L10.5002 8.86208C10.3502 8.71208 10.2002 8.61208 10.0002 8.51208C9.0502 8.01208 7.8502 8.41208 7.3502 9.41208C6.9502 10.2121 7.1002 11.1121 7.7002 11.7121L10.2002 14.3121C10.3002 14.4121 10.4002 14.4621 10.5502 14.4621C10.7002 14.4621 10.8502 14.4121 10.9002 14.2621L13.4002 11.6621C14.0002 11.0621 14.1502 10.1121 13.7502 9.36208ZM12.7002 11.0121L10.5502 13.2621L8.4002 11.0121C8.1002 10.7121 8.0002 10.2621 8.2002 9.86208C8.4002 9.51208 8.7502 9.31209 9.1002 9.31209C9.2502 9.31209 9.4002 9.36208 9.5502 9.41208C9.6502 9.46208 9.7002 9.51208 9.8002 9.61208L10.2002 10.0121C10.4002 10.2121 10.7002 10.2121 10.9002 10.0121L11.3002 9.61208C11.5002 9.41208 11.7502 9.31209 12.0002 9.31209C12.2502 9.31209 12.5002 9.41208 12.7002 9.61208C12.8002 9.66208 12.8502 9.76208 12.9002 9.86208C13.1002 10.2621 13.0002 10.7121 12.7002 11.0121Z" fill="#2D373D"/>
</svg>
