<svg width="24" height="24" viewBox="0 0 24 24" fill="none" xmlns="http://www.w3.org/2000/svg">
<path d="M5.96716 13.9319C6.50131 13.9319 6.93432 13.4994 6.93432 12.9659C6.93432 12.4325 6.50131 12 5.96716 12C5.43301 12 5 12.4325 5 12.9659C5 13.4994 5.43301 13.9319 5.96716 13.9319Z" fill="#2D373D"/>
<path fill-rule="evenodd" clip-rule="evenodd" d="M10.98 13.384C11.3943 13.384 11.73 13.7198 11.73 14.134V18.1965H13.5954V15.4465C13.5954 15.0248 13.7562 14.6148 14.0512 14.3079C14.3472 14.0001 14.755 13.8215 15.1868 13.8215H16.0281C16.4599 13.8215 16.8677 14.0001 17.1637 14.3079C17.4587 14.6148 17.6195 15.0248 17.6195 15.4465V18.1965H19.4849V14.134C19.4849 13.7198 19.8206 13.384 20.2349 13.384C20.6491 13.384 20.9849 13.7198 20.9849 14.134V18.9465C20.9849 19.3607 20.6491 19.6965 20.2349 19.6965H16.8695C16.4553 19.6965 16.1195 19.3607 16.1195 18.9465V15.4465C16.1195 15.4041 16.103 15.369 16.0824 15.3476C16.0628 15.3272 16.0426 15.3215 16.0281 15.3215H15.1868C15.1723 15.3215 15.1521 15.3272 15.1325 15.3476C15.1119 15.369 15.0954 15.4041 15.0954 15.4465V18.9465C15.0954 19.3607 14.7596 19.6965 14.3454 19.6965H10.98C10.5658 19.6965 10.23 19.3607 10.23 18.9465V14.134C10.23 13.7198 10.5658 13.384 10.98 13.384Z" fill="#2D373D"/>
<path fill-rule="evenodd" clip-rule="evenodd" d="M15.6075 7.80894C15.5996 7.80894 15.5911 7.8105 15.5822 7.81435C15.5732 7.81824 15.563 7.82477 15.5531 7.83508L9.83798 13.7788C9.55089 14.0774 9.0761 14.0867 8.77752 13.7996C8.47894 13.5125 8.46964 13.0377 8.75673 12.7392L14.4715 6.79576C14.4716 6.7957 14.4715 6.79582 14.4715 6.79576C14.6179 6.64352 14.7934 6.52094 14.9885 6.43684C15.1838 6.35268 15.3942 6.30894 15.6075 6.30894C15.8207 6.30894 16.0311 6.35268 16.2264 6.43684C16.4215 6.52094 16.5969 6.64336 16.7432 6.7956C16.7433 6.79565 16.7432 6.79555 16.7432 6.7956L22.4582 12.7392C22.7453 13.0377 22.736 13.5125 22.4374 13.7996C22.1388 14.0867 21.664 14.0774 21.3769 13.7788L15.6619 7.83525C15.652 7.82494 15.6417 7.81824 15.6327 7.81435C15.6238 7.8105 15.6153 7.80894 15.6075 7.80894Z" fill="#2D373D"/>
<path d="M16.1929 4H8.22612C7.67215 3.99938 7.13126 4.16841 6.67621 4.48435C6.23644 4.79378 5.90156 5.23004 5.71632 5.73485L4.19282 9.03723C3.74672 9.20548 3.34148 9.46664 3.00396 9.80338C2.68372 10.1235 2.43011 10.5039 2.25779 10.9226C2.08547 11.3413 1.99787 11.79 2.00004 12.2427V14.321C2.00218 14.8624 2.21729 15.3812 2.59887 15.7653L2.69574 15.8445V17.0774C2.68389 17.4908 2.79829 17.8979 3.02371 18.2446C3.24912 18.5913 3.57485 18.8611 3.95746 19.0179C4.34008 19.1748 4.76142 19.2114 5.16534 19.1227C5.56925 19.034 5.93654 18.8244 6.21828 18.5217C6.40881 18.3326 6.55986 18.1076 6.66266 17.8597C6.76546 17.6117 6.81796 17.3458 6.81711 17.0774V16.3465H9.15175C9.32692 16.3465 9.49491 16.2769 9.61878 16.153C9.74264 16.0292 9.81223 15.8612 9.81223 15.686C9.81223 15.5109 9.74264 15.3429 9.61878 15.219C9.49491 15.0951 9.32692 15.0255 9.15175 15.0255H4.04311C3.85461 15.0256 3.67355 14.9519 3.53862 14.8203C3.40369 14.6887 3.32559 14.5095 3.32099 14.321V12.2427C3.31983 11.9672 3.37324 11.6941 3.47816 11.4393C3.58308 11.1845 3.73742 10.953 3.93227 10.7581C4.12713 10.5633 4.35864 10.4089 4.61345 10.304C4.86827 10.1991 5.14134 10.1457 5.4169 10.1468H9.77308C9.94825 10.1468 10.1162 10.0772 10.2401 9.95338C10.364 9.82952 10.4336 9.66152 10.4336 9.48635C10.4336 9.31119 10.364 9.14319 10.2401 9.01933C10.1162 8.89546 9.94825 8.82588 9.77308 8.82588H5.71632L6.91398 6.22801C7.01261 5.96075 7.19089 5.73021 7.42475 5.56753C7.66184 5.40838 7.94057 5.32262 8.22612 5.32095H16.1929C16.3681 5.32095 16.5361 5.25137 16.6599 5.1275C16.7838 5.00364 16.8534 4.83565 16.8534 4.66048C16.8534 4.48531 16.7838 4.31731 16.6599 4.19345C16.5361 4.06959 16.3681 4 16.1929 4ZM5.45213 17.0598C5.4505 17.2009 5.40759 17.3384 5.32868 17.4554C5.24978 17.5723 5.13834 17.6636 5.00813 17.7179C4.87793 17.7723 4.73466 17.7873 4.59602 17.7611C4.45739 17.7349 4.32946 17.6687 4.22804 17.5706C4.1602 17.5041 4.1065 17.4246 4.07018 17.3368C4.03386 17.249 4.01567 17.1548 4.01669 17.0598V16.3377H5.45213V17.0598Z" fill="#2D373D"/>
</svg>
