<svg width="24" height="25" viewBox="0 0 24 25" fill="none" xmlns="http://www.w3.org/2000/svg">
<path fill-rule="evenodd" clip-rule="evenodd" d="M14.5 8.42188C14.5 9.80259 13.3807 10.9219 12 10.9219C10.6193 10.9219 9.5 9.80259 9.5 8.42188C9.5 7.04116 10.6193 5.92188 12 5.92188C13.3807 5.92188 14.5 7.04116 14.5 8.42188ZM13 8.42188C13 8.97416 12.5523 9.42188 12 9.42188C11.4477 9.42188 11 8.97416 11 8.42188C11 7.86959 11.4477 7.42188 12 7.42188C12.5523 7.42188 13 7.86959 13 8.42188Z" fill="#2D373D"/>
<path fill-rule="evenodd" clip-rule="evenodd" d="M7.66671 3.64164C8.56584 3.24603 9.92405 2.92188 12 2.92188C14.076 2.92188 15.4342 3.24603 16.3333 3.64164C17.1735 4.01133 17.5781 4.43179 17.7402 4.60032C17.7556 4.61625 17.7692 4.63041 17.7803 4.64154C17.921 4.7822 18 4.97296 18 5.17188V16.9219C18 17.2286 17.8133 17.5043 17.5285 17.6182C17.3117 17.705 17.0537 17.7944 16.75 17.8807V19.4219C16.75 19.6726 16.6247 19.9068 16.416 20.0459C16.0455 20.2929 15.4327 20.504 14.7181 20.6556C14.487 20.7046 14.2378 20.7489 13.9722 20.7868V22.1755C13.9722 22.5898 13.6364 22.9255 13.2222 22.9255C12.808 22.9255 12.4722 22.5898 12.4722 22.1755V20.9145C12.3178 20.9193 12.1604 20.9219 12 20.9219C11.9159 20.9219 11.8325 20.9212 11.75 20.9198V22.1755C11.75 22.5898 11.4142 22.9255 11 22.9255C10.5858 22.9255 10.25 22.5898 10.25 22.1755V20.8164C9.90041 20.7729 9.57637 20.718 9.28187 20.6556C8.56728 20.504 7.95445 20.2929 7.58397 20.0459C7.37533 19.9068 7.25 19.6726 7.25 19.4219V17.8807C6.9463 17.7944 6.68835 17.705 6.47146 17.6182C6.18671 17.5043 6 17.2286 6 16.9219V5.17188C6 4.97296 6.07902 4.7822 6.21967 4.64154C6.23092 4.63029 6.24423 4.61646 6.25975 4.60033C6.42192 4.43179 6.82649 4.01133 7.66671 3.64164ZM12 18.4219C13.3129 18.4219 14.384 18.3326 15.25 18.1998V18.9527C15.0496 19.0272 14.7694 19.1113 14.4069 19.1882C13.7723 19.3228 12.9496 19.4219 12 19.4219C11.0504 19.4219 10.2277 19.3228 9.59313 19.1882C9.23061 19.1113 8.95043 19.0272 8.75 18.9527V18.1997C9.61602 18.3326 10.6872 18.4219 12 18.4219ZM16.5 5.48605V13.1719H7.5V5.48606C7.65338 5.35148 7.88863 5.18277 8.27081 5.01461C8.9342 4.72273 10.076 4.42188 12 4.42188C13.924 4.42188 15.0658 4.72272 15.7292 5.01461C16.1114 5.18277 16.3466 5.35148 16.5 5.48605ZM7.5 16.3905V14.6719H16.5V16.3905C15.6602 16.6488 14.2368 16.9219 12 16.9219C9.7632 16.9219 8.33984 16.6488 7.5 16.3905Z" fill="#2D373D"/>
</svg>
