<svg width="24" height="25" viewBox="0 0 24 25" fill="none" xmlns="http://www.w3.org/2000/svg">
<path d="M11.2929 7.12898C11.6834 7.51951 12.3166 7.51951 12.7071 7.12898C13.0976 6.73846 13.0976 6.10529 12.7071 5.71477C12.3166 5.32424 11.6834 5.32424 11.2929 5.71477C10.9024 6.10529 10.9024 6.73846 11.2929 7.12898Z" fill="#2D373D"/>
<path fill-rule="evenodd" clip-rule="evenodd" d="M11.7144 2.97837C11.8974 2.90304 12.1026 2.90304 12.2856 2.97837L16.5356 4.72837C16.8166 4.84408 17 5.11796 17 5.42188V7.92188H17.5C17.9142 7.92188 18.25 8.25766 18.25 8.67188C18.25 9.08609 17.9142 9.42188 17.5 9.42188H6.5C6.08579 9.42188 5.75 9.08609 5.75 8.67188C5.75 8.25766 6.08579 7.92188 6.5 7.92188H7V5.42188C7 5.11796 7.18341 4.84408 7.46444 4.72837L11.7144 2.97837ZM15.5 5.92414V7.92188H8.5V5.92414L12 4.48297L15.5 5.92414Z" fill="#2D373D"/>
<path fill-rule="evenodd" clip-rule="evenodd" d="M11.3569 21.3069L8.96446 17.3194L7.92437 20.093L10.3779 21.5242C10.7357 21.733 10.8565 22.1922 10.6478 22.55C10.4391 22.9078 9.97986 23.0286 9.62207 22.8199L6.62207 21.0699C6.3064 20.8858 6.16941 20.5009 6.29773 20.1587L7.22072 17.6974C7.10472 17.7768 6.99106 17.8588 6.88002 17.9435C5.42515 19.0529 4.5 20.5408 4.5 22.1719C4.5 22.5861 4.16421 22.9219 3.75 22.9219C3.33579 22.9219 3 22.5861 3 22.1719C3 19.937 4.26685 18.0498 5.97047 16.7507C7.67377 15.4519 9.89453 14.6719 12 14.6719C14.1055 14.6719 16.3262 15.4519 18.0295 16.7507C19.7331 18.0498 21 19.937 21 22.1719C21 22.5861 20.6642 22.9219 20.25 22.9219C19.8358 22.9219 19.5 22.5861 19.5 22.1719C19.5 20.5408 18.5749 19.0529 17.12 17.9435C17.009 17.8589 16.8955 17.7769 16.7795 17.6976L17.7023 20.1582C17.8306 20.5004 17.6936 20.8852 17.3779 21.0694L14.3779 22.8194C14.0201 23.0281 13.5609 22.9072 13.3522 22.5494C13.1435 22.1917 13.2643 21.7324 13.6221 21.5237L16.0756 20.0925L15.0357 17.3194L12.6432 21.3069C12.5076 21.5328 12.2635 21.671 12.0001 21.671C11.7366 21.671 11.4925 21.5328 11.3569 21.3069ZM12.0001 19.4633L10.1604 16.3972C10.7745 16.2499 11.3957 16.1719 12 16.1719C12.6043 16.1719 13.2255 16.2499 13.8397 16.3972L12.0001 19.4633Z" fill="#2D373D"/>
<path d="M9.32141 10.5723C9.32141 10.1581 8.98562 9.82227 8.57141 9.82227C8.1572 9.82227 7.82141 10.1581 7.82141 10.5723C7.82141 11.6788 8.41106 12.624 9.18364 13.2692C9.95558 13.9139 10.9797 14.3223 12 14.3223C13.0204 14.3223 14.0445 13.9139 14.8164 13.2692C15.5889 12.624 16.1786 11.6788 16.1786 10.5723C16.1786 10.1581 15.8428 9.82227 15.4286 9.82227C15.0143 9.82227 14.6786 10.1581 14.6786 10.5723C14.6786 11.1226 14.3823 11.6774 13.8548 12.1179C13.3267 12.559 12.6365 12.8223 12 12.8223C11.3635 12.8223 10.6733 12.559 10.1452 12.1179C9.61764 11.6774 9.32141 11.1225 9.32141 10.5723Z" fill="#2D373D"/>
</svg>
