<svg width="24" height="25" viewBox="0 0 24 25" fill="none" xmlns="http://www.w3.org/2000/svg">
<path d="M16.4701 9.23188C16.0701 8.01188 14.9401 7.33188 13.7101 7.53188C13.5101 6.28188 12.5201 5.44187 11.2501 5.44187C9.98012 5.44187 8.98012 6.29187 8.78012 7.52187C7.55012 7.33187 6.43012 8.01188 6.03012 9.23188C5.64012 10.4419 6.15012 11.6519 7.27012 12.2119C6.69012 13.3319 6.99012 14.6019 8.03012 15.3619C9.06012 16.1119 10.3601 16.0019 11.2501 15.1219C11.7401 15.6119 12.3601 15.8619 12.9901 15.8619C13.5001 15.8619 14.0101 15.6919 14.4701 15.3619C15.5101 14.6119 15.8101 13.3319 15.2401 12.2219C16.3601 11.6519 16.8601 10.4419 16.4701 9.23188ZM14.4901 10.9119L14.1301 11.0719C13.8701 11.1919 13.6701 11.4119 13.5801 11.6819C13.4901 11.9519 13.5301 12.2419 13.6701 12.4919L13.8701 12.8319C14.3001 13.5719 13.7101 14.0519 13.5901 14.1419C13.4701 14.2319 12.8301 14.6419 12.2601 14.0019L12.0001 13.7119C11.8101 13.4919 11.5301 13.3719 11.2501 13.3719C10.9701 13.3719 10.6901 13.4919 10.5001 13.7119L10.2401 14.0019C9.67012 14.6419 9.03012 14.2319 8.91012 14.1419C8.79012 14.0519 8.20013 13.5719 8.63013 12.8319L8.83012 12.4919C8.97012 12.2419 9.01013 11.9519 8.92013 11.6819C8.83013 11.4119 8.63012 11.1919 8.37012 11.0719L8.01013 10.9119C7.22013 10.5719 7.41012 9.83188 7.46012 9.69188C7.51012 9.55188 7.79012 8.84188 8.62012 9.02188L9.01013 9.10188C9.28013 9.16188 9.58013 9.10188 9.81013 8.93188C10.0401 8.77188 10.1901 8.51187 10.2201 8.23187L10.2501 7.84188C10.3401 6.98188 11.1001 6.94187 11.2501 6.94187C11.4001 6.94187 12.1601 6.98188 12.2501 7.84188L12.2801 8.23187C12.3101 8.51187 12.4601 8.77188 12.6901 8.94188C12.9201 9.10188 13.2101 9.16188 13.4901 9.10188L13.8801 9.02188C14.7201 8.84188 14.9901 9.55188 15.0401 9.69188C15.0901 9.83188 15.2801 10.5719 14.4901 10.9119Z" fill="#2D373D"/>
<path d="M11.9601 11.4319C11.5701 11.8219 10.9401 11.8219 10.5501 11.4319C10.1601 11.0419 10.1601 10.4119 10.5501 10.0219C10.9401 9.63188 11.5701 9.63188 11.9601 10.0219C12.3501 10.4119 12.3501 11.0419 11.9601 11.4319Z" fill="#2D373D"/>
<path d="M20.9893 12.9919C21.0193 13.3119 20.9893 13.6619 20.8195 14.0019C20.6497 14.3519 20.38 14.6319 20.0104 14.8619C19.9705 14.8919 19.9205 14.9119 19.8806 14.9319C19.6708 15.0019 19.491 15.0619 19.3312 15.1119V17.0019C19.3312 17.0019 19.3312 17.0719 19.3312 17.1219C19.3212 17.2219 19.3012 17.3619 19.2613 17.5219C19.1914 17.8319 19.0316 18.2619 18.7119 18.6619C18.3823 19.0619 17.8929 19.4119 17.2137 19.5619C16.7742 19.6619 16.2747 19.6819 15.6954 19.5919V22.1719C15.6954 22.5819 15.3558 22.9219 14.9463 22.9219C14.5368 22.9219 14.1972 22.5819 14.1972 22.1719V18.6719C14.1972 18.4319 14.307 18.2119 14.4868 18.0719C14.6766 17.9319 14.9163 17.8819 15.1461 17.9519C15.9751 18.1819 16.5344 18.1819 16.884 18.1019C17.2336 18.0219 17.4234 17.8719 17.5533 17.7119C17.6831 17.5519 17.763 17.3519 17.803 17.1819C17.823 17.0919 17.8329 17.0219 17.8329 16.9819C17.8329 16.9619 17.8329 16.9419 17.8329 16.9319V14.5519C17.8329 14.2119 18.0627 13.9019 18.4023 13.8219H18.4123C18.4123 13.8219 18.4422 13.8119 18.4622 13.8119C18.5122 13.7919 18.5821 13.7819 18.662 13.7519C18.8218 13.7019 19.0415 13.6319 19.2813 13.5419C19.4111 13.4619 19.4511 13.3819 19.471 13.3519C19.501 13.3019 19.511 13.2419 19.501 13.1619C19.481 12.9719 19.3811 12.7519 19.2313 12.5319C19.2213 12.5019 19.2014 12.4819 19.1814 12.4519C19.1614 12.4319 19.1514 12.4219 19.1414 12.4019C18.9217 12.0219 18.642 11.6119 18.4023 11.2819C18.2824 11.1219 18.1825 10.9819 18.1026 10.8819C18.0727 10.8419 18.0427 10.8019 18.0227 10.7719C18.0227 10.7719 18.0027 10.7519 18.0027 10.7419H17.9928C17.8829 10.6019 17.8329 10.4419 17.8329 10.2719C17.8329 7.90188 16.7342 6.48188 15.3758 5.61188C13.9674 4.72188 12.2494 4.42188 11.1307 4.42188C6.93557 4.42188 4.44845 7.70187 4.49839 11.4119C4.49839 13.2719 5.64706 15.4319 8.05427 16.7619C8.29399 16.8919 8.44382 17.1519 8.44382 17.4219V22.1719C8.44382 22.5819 8.10421 22.9219 7.69469 22.9219C7.28516 22.9219 6.94555 22.5819 6.94555 22.1719V17.8519C4.37853 16.2719 3.00012 13.7719 3.00012 11.4319C2.95018 7.03188 5.9567 2.92188 11.1307 2.92188C12.4592 2.92188 14.4668 3.27188 16.1749 4.35188C17.8729 5.43188 19.2413 7.21187 19.3212 10.0019C19.3911 10.1019 19.501 10.2319 19.6109 10.4019C19.8506 10.7319 20.1602 11.1719 20.41 11.6019C20.4199 11.6119 20.4299 11.6319 20.4399 11.6519C20.4399 11.6619 20.4599 11.6719 20.4599 11.6819C20.6597 11.9719 20.9294 12.4519 20.9893 12.9919Z" fill="#2D373D"/>
</svg>
