<svg width="24" height="24" viewBox="0 0 24 24" fill="none" xmlns="http://www.w3.org/2000/svg">
<path d="M9.67523 9.67523C9.22523 9.67523 8.92523 9.97523 8.92523 10.4252V16.6502C8.92523 17.1002 9.22523 17.4002 9.67523 17.4002C10.1252 17.4002 10.4252 17.1002 10.4252 16.6502V10.4252C10.4252 9.97523 10.1252 9.67523 9.67523 9.67523Z" fill="#2D373D"/>
<path d="M14.3252 9.67523C13.8752 9.67523 13.5752 9.97523 13.5752 10.4252V16.6502C13.5752 17.1002 13.8752 17.4002 14.3252 17.4002C14.7752 17.4002 15.0752 17.1002 15.0752 16.6502V10.4252C15.0752 9.97523 14.7752 9.67523 14.3252 9.67523Z" fill="#2D373D"/>
<path d="M21.3002 5.02519H16.6502V4.2752C16.6502 3.0002 15.6002 1.9502 14.3252 1.9502H9.67519C9.07519 1.9502 8.4752 2.1752 8.0252 2.6252C7.5752 3.0752 7.3502 3.6752 7.3502 4.2752V5.02519H2.7002C2.2502 5.02519 1.9502 5.3252 1.9502 5.77519C1.9502 6.22519 2.2502 6.52519 2.7002 6.52519H4.2752V19.7252C4.2752 21.0002 5.3252 22.0502 6.6002 22.0502H17.4002C18.6752 22.0502 19.7252 21.0002 19.7252 19.7252V6.52519H21.3002C21.7502 6.52519 22.0502 6.22519 22.0502 5.77519C22.0502 5.3252 21.7502 5.02519 21.3002 5.02519ZM8.8502 4.2752C8.8502 4.0502 9.0002 3.8252 9.1502 3.6752C9.30019 3.5252 9.45019 3.4502 9.67519 3.4502H14.2502C14.7002 3.4502 15.0752 3.8252 15.0752 4.2752V5.02519H8.8502V4.2752ZM18.3002 19.7252C18.3002 20.1752 17.9252 20.5502 17.4752 20.5502H6.6002C6.1502 20.5502 5.77519 20.1752 5.77519 19.7252V6.52519H18.3002V19.7252Z" fill="#2D373D"/>
</svg>
