<svg width="24" height="25" viewBox="0 0 24 25" fill="none" xmlns="http://www.w3.org/2000/svg">
<path fill-rule="evenodd" clip-rule="evenodd" d="M11.6404 3.67188C11.6404 3.42842 11.5222 3.2001 11.3234 3.05953C11.1246 2.91895 10.87 2.88362 10.6404 2.96475C8.86138 3.59357 7.25147 5.31267 7.25147 7.44434C7.25147 9.42474 8.3904 11.1555 10.1502 11.8601L10.1514 15.9219H3.5L3.5 9.32185C3.5 8.68673 4.01486 8.17187 4.64997 8.17187L5.99998 8.17187C6.41419 8.17187 6.74998 7.83609 6.74998 7.42187C6.74998 7.00766 6.41419 6.67187 5.99998 6.67187H4.64997C3.18643 6.67187 2 7.85831 2 9.32185V17.2723C2 18.7356 3.18608 19.922 4.6494 19.9223L9.92239 19.9234L9.38294 21.4219H8.00001C7.5858 21.4219 7.25001 21.7577 7.25001 22.1719C7.25001 22.5861 7.5858 22.9219 8.00001 22.9219H16C16.4142 22.9219 16.75 22.5861 16.75 22.1719C16.75 21.7577 16.4142 21.4219 16 21.4219H14.6171L14.078 19.9243L19.3495 19.9255C20.8132 19.9258 22 18.7393 22 17.2755V9.32185C22 7.85831 20.8136 6.67188 19.35 6.67188L18 6.67187C17.5858 6.67187 17.25 7.00766 17.25 7.42188C17.25 7.83609 17.5858 8.17188 18 8.17188H19.35C19.9851 8.17188 20.5 8.68674 20.5 9.32185V15.9219H13.8734L13.8704 11.8598C15.6305 11.1536 16.7515 9.42005 16.7515 7.44434C16.7515 5.31267 15.1416 3.59357 13.3625 2.96475C13.133 2.88362 12.8783 2.91895 12.6795 3.05953C12.4808 3.2001 12.3626 3.42842 12.3626 3.67188V6.55543C12.3626 6.63608 12.3507 6.83308 12.279 6.98492C12.2479 7.05059 12.2178 7.08137 12.1957 7.09676C12.1799 7.10779 12.1305 7.13879 12.0015 7.13879C11.8718 7.13879 11.822 7.10771 11.8062 7.09674C11.7844 7.08153 11.7545 7.05119 11.7237 6.98618C11.6524 6.83547 11.6404 6.63908 11.6404 6.55543V3.67188ZM12.4836 19.924L11.5165 19.9238L10.9772 21.4219H13.0228L12.4836 19.924ZM12.3734 15.9219H11.6514L11.65 11.3178C11.6499 10.9758 11.4184 10.6771 11.0872 10.5918C9.71411 10.2378 8.75147 8.98676 8.75147 7.44434C8.75147 6.45694 9.31752 5.52685 10.1404 4.91427V6.55543C10.1404 6.69875 10.1506 7.16903 10.3681 7.62826C10.4818 7.86822 10.663 8.12866 10.9495 8.328C11.2421 8.53157 11.5979 8.63879 12.0015 8.63879C12.4058 8.63879 12.7619 8.5309 13.0544 8.32664C13.3407 8.12675 13.5217 7.86587 13.6351 7.62598C13.8522 7.16669 13.8626 6.69701 13.8626 6.55543V4.91427C14.6854 5.52685 15.2515 6.45694 15.2515 7.44434C15.2515 8.99199 14.3011 10.239 12.9328 10.5918C12.6013 10.6772 12.3698 10.9762 12.37 11.3186L12.3734 15.9219ZM4.64972 18.4223C4.06539 18.4222 3.58293 17.9862 3.50964 17.4219H20.4908C20.4189 17.988 19.9354 18.4256 19.3498 18.4255L4.64972 18.4223Z" fill="#2D373D"/>
</svg>
