<svg width="64" height="65" viewBox="0 0 64 65" fill="none" xmlns="http://www.w3.org/2000/svg">
<path d="M56.8002 10.8613H7.2002C6.0002 10.8613 5.2002 11.6613 5.2002 12.8613V51.8613C5.2002 53.0613 6.0002 53.8613 7.2002 53.8613H56.8002C58.0002 53.8613 58.8002 52.8613 58.8002 51.8613V12.8613C58.8002 11.6613 58.0002 10.8613 56.8002 10.8613ZM54.8002 14.8613V20.0613H9.2002V14.8613H54.8002ZM9.2002 49.8613V27.0613H54.8002V49.8613H9.2002Z" fill="#2D373D"/>
<path d="M20.6 35.4614H14C12.8 35.4614 12 36.2614 12 37.4614C12 38.6614 12.8 39.4614 14 39.4614H20.6C21.6 39.4614 22.6 38.6614 22.6 37.4614C22.6 36.2614 21.8 35.4614 20.6 35.4614Z" fill="#2D373D"/>
<path d="M39.8004 32.4614C37.2004 30.4614 33.6004 30.4614 31.0004 32.4614C29.4004 33.6614 28.2004 35.4614 28.0004 37.4614C27.6004 39.4614 28.2004 41.4614 29.4004 43.0614C30.6004 44.6614 32.4004 45.8614 34.4004 46.0614C34.6004 46.0614 35.0004 46.0614 35.4004 46.0614C37.0004 46.0614 38.4004 45.4614 40.0004 44.4614C42.6004 46.4614 46.2004 46.4614 48.8004 44.4614C52.0004 42.0614 52.6004 37.2614 50.2004 34.0614C47.8004 30.8614 43.0004 30.0614 39.8004 32.4614ZM47.4004 39.2614C47.2004 40.0614 46.8004 40.8614 46.0004 41.4614C45.2004 41.8614 44.4004 42.2614 43.4004 42.0614C42.6004 41.8614 41.8004 41.4614 41.2004 40.6614C40.8004 40.0614 40.2004 39.8614 39.6004 39.8614C39.0004 39.8614 38.4004 40.0614 38.0004 40.6614C37.8004 40.8614 37.6004 41.0614 37.4004 41.2614C36.6004 41.6614 35.8004 42.0614 34.8004 41.8614C34.0004 41.6614 33.2004 41.2614 32.6004 40.4614C32.2004 39.6614 31.8004 38.8614 32.0004 37.8614C32.2004 37.0614 32.6004 36.2614 33.4004 35.6614C34.0004 35.2614 34.6004 35.0614 35.4004 35.0614C35.6004 35.0614 35.6004 35.0614 36.0004 35.2614C36.8004 35.4614 37.6004 35.8614 38.2004 36.6614C39.0004 37.6614 40.6004 37.6614 41.4004 36.6614C41.6004 36.4614 41.8004 36.2614 42.0004 36.0614C43.4004 34.8614 45.6004 35.0614 46.8004 36.6614C47.2004 37.4614 47.6004 38.2614 47.4004 39.2614Z" fill="#2D373D"/>
</svg>
