<svg width="16" height="17" viewBox="0 0 16 17" fill="none" xmlns="http://www.w3.org/2000/svg">
<path d="M3.19989 9.31169C3.84989 9.31169 4.44989 8.76169 4.44989 8.06169C4.44989 7.56169 4.09989 7.16169 3.69989 6.96169V6.61169C3.69989 6.31169 3.49989 6.11169 3.19989 6.11169C2.89989 6.11169 2.69989 6.31169 2.69989 6.61169V7.36169C2.69989 7.66169 2.89989 7.86169 3.19989 7.86169C3.29989 7.86169 3.44989 7.91169 3.44989 8.06169C3.44989 8.21169 3.34989 8.31169 3.19989 8.31169C3.04989 8.31169 2.94989 8.21169 2.94989 8.06169C2.94989 7.76169 2.74989 7.56169 2.44989 7.56169C2.14989 7.56169 1.94989 7.76169 1.94989 8.06169C1.94989 8.76169 2.49989 9.31169 3.19989 9.31169Z" fill="#2D373D"/>
<path d="M12.2999 9.81167L11.1499 7.51167C10.9499 7.06167 10.4999 6.81167 10.0499 6.81167H9.0499C8.3499 6.81167 7.7999 7.36167 7.7999 8.06167V8.41167L3.8999 2.61167C3.6999 2.31167 3.2999 2.21167 2.9999 2.41167C2.7999 2.51167 2.6999 2.76167 2.6999 2.96167V5.06167C2.6999 5.36167 2.8999 5.56167 3.1999 5.56167C3.4999 5.56167 3.6999 5.36167 3.6999 5.06167V4.11167L7.4499 9.76167H3.1499C2.4499 9.76167 1.8999 10.3117 1.8999 11.0117V12.5117C1.8999 13.2117 2.4499 13.7617 3.1499 13.7617H4.2499C4.4499 14.2117 4.8999 14.5117 5.3999 14.5117C5.8999 14.5117 6.3499 14.2117 6.5499 13.7617H10.1499C10.3499 14.2117 10.7999 14.5117 11.2999 14.5117C11.7999 14.5117 12.2499 14.2117 12.4499 13.7617H12.6999C13.3999 13.7617 13.9499 13.2117 13.9499 12.5117V11.7617C13.9499 10.7617 13.2499 9.96167 12.2999 9.81167ZM8.7999 8.01167C8.7999 7.86167 8.8999 7.76167 9.0499 7.76167H10.0499C10.1499 7.76167 10.1999 7.81167 10.2499 7.91167L11.1499 9.76167H8.7999V8.01167ZM5.3999 13.5117C5.2499 13.5117 5.1499 13.4117 5.1499 13.2617C5.1499 13.1117 5.2499 13.0117 5.3999 13.0117C5.5499 13.0117 5.6499 13.1117 5.6499 13.2617C5.6499 13.4117 5.5499 13.5117 5.3999 13.5117ZM11.2999 13.5117C11.1499 13.5117 11.0499 13.4117 11.0499 13.2617C11.0499 13.1117 11.1499 13.0117 11.2999 13.0117C11.4499 13.0117 11.5499 13.1117 11.5499 13.2617C11.5499 13.4117 11.4499 13.5117 11.2999 13.5117ZM12.9499 12.5117C12.9499 12.6617 12.8499 12.7617 12.6999 12.7617H12.4499C12.2499 12.3117 11.7999 12.0117 11.2999 12.0117C10.7999 12.0117 10.3499 12.3117 10.1499 12.7617H6.5499C6.3499 12.3117 5.8999 12.0117 5.3999 12.0117C4.8999 12.0117 4.4499 12.3117 4.2499 12.7617H3.1999C3.0499 12.7617 2.9499 12.6617 2.9499 12.5117V11.0117C2.9499 10.9117 3.0499 10.8117 3.1999 10.7117H8.1499C8.1999 10.7117 8.2499 10.7617 8.2999 10.7617H11.7999C11.8499 10.7617 11.8999 10.7617 11.9499 10.7617C12.4999 10.7617 12.9499 11.2117 12.9499 11.7617V12.5117Z" fill="#2D373D"/>
</svg>
