<svg width="24" height="25" viewBox="0 0 24 25" fill="none" xmlns="http://www.w3.org/2000/svg">
<path fill-rule="evenodd" clip-rule="evenodd" d="M4.64943 7.08486C4.99632 6.73827 5.46662 6.54357 5.957 6.54357C6.44753 6.54357 6.91798 6.73839 7.26489 7.08519M7.26489 7.08519L9.20952 9.02908C9.3814 9.20087 9.51782 9.4049 9.61085 9.62939C9.70389 9.85392 9.75178 10.0946 9.75178 10.3376C9.75178 10.5806 9.70389 10.8213 9.61085 11.0458C9.51785 11.2702 9.38157 11.4741 9.20977 11.6459C9.14417 11.7115 9.10731 11.8005 9.10731 11.8933C9.10731 11.9861 9.14416 12.0751 9.20976 12.1407L12.3203 15.2519C12.3859 15.3175 12.4749 15.3544 12.5677 15.3544C12.6605 15.3544 12.7495 15.3175 12.8151 15.2519C12.9868 15.0801 13.1907 14.9438 13.4151 14.8509C13.6397 14.7578 13.8803 14.7099 14.1234 14.7099C14.3664 14.7099 14.607 14.7578 14.8316 14.8509C15.0559 14.9438 15.2598 15.0801 15.4315 15.2518L17.3769 17.1958C17.5489 17.3676 17.6853 17.5716 17.7783 17.7961C17.8713 18.0206 17.9192 18.2613 17.9192 18.5043C17.9192 18.7474 17.8713 18.988 17.7783 19.2125C17.6853 19.4371 17.5489 19.6411 17.377 19.8129L16.9161 20.2737C16.2645 20.9257 15.4098 21.3361 14.4935 21.4367C13.5772 21.5373 12.6539 21.3223 11.8763 20.8272C11.8671 20.8213 11.858 20.8153 11.849 20.809L11.8468 20.8074C8.61612 18.6238 5.83375 15.8414 3.65014 12.6106C3.64277 12.5997 3.63569 12.5886 3.62891 12.5774C3.13768 11.8017 2.92453 10.882 3.02462 9.96917C3.12509 9.05283 3.53518 8.19818 4.18712 7.54644L4.64943 7.08486M12.6916 19.5681C13.1792 19.8754 13.7566 20.0086 14.3298 19.9457C14.9067 19.8823 15.4448 19.624 15.8551 19.2135L16.3165 18.752C16.349 18.7195 16.375 18.6808 16.3926 18.6383C16.4102 18.5958 16.4192 18.5503 16.4192 18.5043C16.4192 18.4584 16.4102 18.4128 16.3926 18.3704C16.375 18.3279 16.3492 18.2893 16.3167 18.2568L14.3713 16.3129C14.3388 16.2803 14.2998 16.2542 14.2573 16.2366C14.2149 16.219 14.1693 16.2099 14.1234 16.2099C14.0774 16.2099 14.0319 16.219 13.9894 16.2366C13.9469 16.2542 13.9083 16.28 13.8758 16.3125C13.5289 16.6593 13.0582 16.8544 12.5677 16.8544C12.0771 16.8544 11.6067 16.6596 11.2598 16.3127L8.14897 13.2012C7.80216 12.8543 7.60731 12.3838 7.60731 11.8933C7.60731 11.4028 7.80214 10.9323 8.14895 10.5854C8.18147 10.5529 8.20752 10.5141 8.22512 10.4716C8.24272 10.4291 8.25178 10.3836 8.25178 10.3376C8.25178 10.2916 8.24272 10.2461 8.22512 10.2036C8.20752 10.1612 8.18172 10.1226 8.1492 10.0901L6.20443 8.14605C6.13881 8.08044 6.04979 8.04357 5.957 8.04357C5.86421 8.04357 5.77522 8.08042 5.70959 8.14603L5.24761 8.60727C4.83733 9.01757 4.57892 9.55587 4.51568 10.1327C4.45243 10.7096 4.58789 11.2909 4.8997 11.7804C4.90073 11.782 4.90175 11.7836 4.90276 11.7852C6.97869 14.8526 9.62248 17.4945 12.6916 19.5681Z" fill="#2D373D"/>
<path d="M20.9457 3.9302C20.9091 3.83935 20.854 3.75423 20.7804 3.68061C20.6339 3.53416 20.442 3.46094 20.25 3.46094C20.25 3.46094 20.2501 3.46094 20.25 3.46094H15.8503C15.436 3.46094 15.1003 3.79672 15.1003 4.21094C15.1003 4.62515 15.436 4.96094 15.8503 4.96094H18.4394L12.5701 10.8302C12.2772 11.1231 12.2772 11.598 12.5701 11.8909C12.863 12.1838 13.3378 12.1838 13.6307 11.8909L19.5 6.0216V8.61071C19.5 9.02493 19.8358 9.36071 20.25 9.36071C20.6642 9.36071 21 9.02493 21 8.61071V4.21094C21 4.20313 20.9999 4.19535 20.9997 4.1876" fill="#2D373D"/>
</svg>
