<svg width="64" height="65" viewBox="0 0 64 65" fill="none" xmlns="http://www.w3.org/2000/svg">
<path fill-rule="evenodd" clip-rule="evenodd" d="M12.944 8.92578C11.6369 8.92578 10.3833 9.44501 9.4591 10.3693C8.53486 11.2935 8.01562 12.547 8.01562 13.8541V46.0658C8.01562 47.3729 8.53486 48.6264 9.4591 49.5506C10.3833 50.4749 11.6369 50.9941 12.944 50.9941H24.6573C25.7619 50.9941 26.6573 50.0987 26.6573 48.9941C26.6573 47.8895 25.7619 46.9941 24.6573 46.9941H12.944C12.6978 46.9941 12.4616 46.8963 12.2875 46.7222C12.1134 46.5481 12.0156 46.312 12.0156 46.0658V21.7125H49.0123V25.5674C49.0123 26.672 49.9077 27.5674 51.0123 27.5674C52.1169 27.5674 53.0123 26.672 53.0123 25.5674V13.8541C53.0123 12.547 52.493 11.2935 51.5688 10.3693C50.6446 9.44502 49.391 8.92578 48.084 8.92578H12.944ZM49.0123 17.7125V13.8541C49.0123 13.6079 48.9145 13.3718 48.7404 13.1977C48.5663 13.0236 48.3302 12.9258 48.084 12.9258H12.944C12.6977 12.9258 12.4616 13.0236 12.2875 13.1977C12.1134 13.3718 12.0156 13.6079 12.0156 13.8541V17.7125H49.0123Z" fill="#2D373D"/>
<path fill-rule="evenodd" clip-rule="evenodd" d="M36.9811 30.4697C38.6449 29.7805 40.4281 29.4258 42.229 29.4258C44.0298 29.4258 45.8131 29.7805 47.4768 30.4697C49.1406 31.1588 50.6524 32.1689 51.9258 33.4423C53.1992 34.7157 54.2093 36.2275 54.8985 37.8913C55.5876 39.555 55.9423 41.3383 55.9423 43.1391C55.9423 44.94 55.5876 46.7232 54.8985 48.387C54.2093 50.0508 53.1992 51.5625 51.9258 52.8359C50.6524 54.1093 49.1406 55.1194 47.4768 55.8086C45.8131 56.4977 44.0298 56.8524 42.229 56.8524C40.4281 56.8524 38.6449 56.4977 36.9811 55.8086C35.3173 55.1194 33.8056 54.1093 32.5322 52.8359C31.2588 51.5625 30.2487 50.0508 29.5595 48.387C28.8704 46.7232 28.5157 44.94 28.5157 43.1391C28.5157 41.3383 28.8704 39.555 29.5595 37.8913C30.2487 36.2275 31.2588 34.7157 32.5322 33.4423C33.8056 32.1689 35.3173 31.1588 36.9811 30.4697ZM42.229 33.4258C40.9534 33.4258 39.6903 33.677 38.5119 34.1652C37.3334 34.6533 36.2626 35.3688 35.3606 36.2708C34.4587 37.1727 33.7432 38.2435 33.255 39.422C32.7669 40.6005 32.5157 41.8635 32.5157 43.1391C32.5157 44.4147 32.7669 45.6778 33.255 46.8563C33.7432 48.0347 34.4587 49.1055 35.3606 50.0075C36.2626 50.9094 37.3334 51.6249 38.5119 52.1131C39.6903 52.6012 40.9534 52.8524 42.229 52.8524C43.5046 52.8524 44.7676 52.6012 45.9461 52.1131C47.1246 51.6249 48.1954 50.9094 49.0973 50.0075C49.9993 49.1055 50.7148 48.0347 51.2029 46.8563C51.6911 45.6778 51.9423 44.4147 51.9423 43.1391C51.9423 41.8635 51.6911 40.6005 51.2029 39.422C50.7148 38.2435 49.9993 37.1727 49.0973 36.2708C48.1954 35.3688 47.1246 34.6533 45.9461 34.1652C44.7676 33.677 43.5046 33.4258 42.229 33.4258Z" fill="#2D373D"/>
<path d="M44.229 37.2825C44.229 36.1779 43.3336 35.2825 42.229 35.2825C41.1244 35.2825 40.229 36.1779 40.229 37.2825V41.1392H36.3722C35.2677 41.1392 34.3722 42.0346 34.3722 43.1392C34.3722 44.2437 35.2677 45.1392 36.3722 45.1392H40.229V48.9958C40.229 50.1004 41.1244 50.9958 42.229 50.9958C43.3336 50.9958 44.229 50.1004 44.229 48.9958V45.1392H48.0856C49.1901 45.1392 50.0856 44.2437 50.0856 43.1392C50.0856 42.0346 49.1901 41.1392 48.0856 41.1392H44.229V37.2825Z" fill="#2D373D"/>
</svg>
