<svg width="32" height="33" viewBox="0 0 32 33" fill="none" xmlns="http://www.w3.org/2000/svg">
<path fill-rule="evenodd" clip-rule="evenodd" d="M8.96071 5.64064C8.11021 6.17117 7.3159 6.80026 6.59568 7.52048C5.87852 8.23763 5.25173 9.02825 4.72262 9.87465C4.68955 9.91949 4.6607 9.96646 4.63607 10.015C3.38023 12.0805 2.7002 14.4677 2.7002 16.925C2.7002 19.382 3.38006 21.7689 4.63561 23.8342C4.66049 23.8834 4.6897 23.931 4.72324 23.9763C5.25222 24.8224 5.8788 25.6126 6.59568 26.3295C7.31259 27.0464 8.10291 27.673 8.94899 28.202C8.99433 28.2356 9.04187 28.2647 9.09103 28.2896C11.1563 29.5451 13.5432 30.225 16.0002 30.225C18.4568 30.225 20.8434 29.5453 22.9085 28.2901C22.9583 28.265 23.0065 28.2354 23.0524 28.2015C23.8981 27.6726 24.6881 27.0462 25.4047 26.3295C26.1214 25.6128 26.7479 24.8227 27.2768 23.9769C27.3107 23.9311 27.3401 23.8832 27.3652 23.8335C28.6205 21.7684 29.3002 19.3817 29.3002 16.925C29.3002 14.4681 28.6204 12.0812 27.3649 10.0159C27.34 9.96675 27.3108 9.91919 27.2773 9.87383C26.7483 9.02774 26.1216 8.2374 25.4047 7.52048C24.6847 6.80046 23.8906 6.17151 23.0404 5.64107C23.0022 5.61368 22.9626 5.5893 22.9218 5.56793C20.8536 4.30758 18.4621 3.625 16.0002 3.625C13.5381 3.625 11.1463 4.3077 9.07808 5.56827C9.03771 5.58944 8.99848 5.61356 8.96071 5.64064ZM9.41568 7.74158C8.91853 8.09804 8.44807 8.49651 8.00989 8.93469C7.57152 9.37306 7.17289 9.84374 6.81631 10.3411L10.8622 14.387C11.1365 13.8315 11.5016 13.3192 11.948 12.8728C12.3943 12.4265 12.9066 12.0614 13.4621 11.7871L9.41568 7.74158ZM5.77079 12.124C5.07232 13.6123 4.7002 15.2495 4.7002 16.925C4.7002 18.6006 5.07233 20.2378 5.77084 21.7261L10.277 17.2199C10.272 17.1219 10.2695 17.0237 10.2695 16.9251C10.2695 16.8265 10.272 16.7282 10.2771 16.6303L5.77079 12.124ZM6.81638 23.509C7.17294 24.0063 7.57155 24.477 8.00989 24.9153C8.44828 25.3537 8.91898 25.7523 9.41639 26.1089L13.4627 22.0635C12.907 21.7891 12.3945 21.4239 11.948 20.9774C11.5016 20.531 11.1365 20.0186 10.8622 19.4632L6.81638 23.509ZM11.1994 27.1545C12.6876 27.8529 14.3247 28.225 16.0002 28.225C17.6757 28.225 19.3129 27.8529 20.8012 27.1544L16.2951 22.6483C16.1971 22.6533 16.0988 22.6559 16.0002 22.6559C15.902 22.6559 15.8041 22.6534 15.7065 22.6483L11.1994 27.1545ZM22.5841 26.1089C23.0815 25.7523 23.5521 25.3537 23.9905 24.9153C24.4288 24.477 24.8275 24.0063 25.184 23.509L21.138 19.4638C20.8637 20.019 20.4987 20.5312 20.0525 20.9774C19.6062 21.4237 19.0938 21.7888 18.5384 22.0632L22.5841 26.1089ZM26.2295 21.7261C26.928 20.2378 27.3002 18.6006 27.3002 16.925C27.3002 15.2495 26.9281 13.6124 26.2296 12.1241L21.7234 16.6303C21.7285 16.7282 21.731 16.8265 21.731 16.9251C21.731 17.024 21.7285 17.1227 21.7234 17.221L26.2295 21.7261ZM25.1841 10.3412C24.8275 9.84377 24.4289 9.37308 23.9905 8.93469C23.5523 8.49653 23.0819 8.09806 22.5848 7.74161L18.5384 11.7871C19.0938 12.0614 19.6062 12.4265 20.0525 12.8728C20.4988 13.3192 20.8639 13.8315 21.1383 14.387L25.1841 10.3412ZM20.8019 6.69595C19.3134 5.99725 17.676 5.625 16.0002 5.625C14.3244 5.625 12.687 5.99724 11.1985 6.69592L15.7055 11.2019C15.8034 11.1969 15.9017 11.1943 16.0002 11.1943C16.0988 11.1943 16.197 11.1969 16.295 11.2019L20.8019 6.69595ZM16.5794 13.2396C16.5437 13.2364 16.5081 13.2313 16.4728 13.2244C16.3169 13.2045 16.1591 13.1943 16.0002 13.1943C15.8414 13.1943 15.6836 13.2045 15.5277 13.2244C15.4924 13.2313 15.4568 13.2364 15.4211 13.2396C14.6461 13.3613 13.9238 13.7254 13.3622 14.2871C12.8011 14.8482 12.4372 15.5696 12.315 16.3437C12.3118 16.3809 12.3066 16.4181 12.2992 16.4549C12.2795 16.61 12.2695 16.767 12.2695 16.9251C12.2695 17.0831 12.2795 17.2401 12.2992 17.3952C12.3066 17.4321 12.3119 17.4693 12.3151 17.5066C12.4372 18.2807 12.8011 19.0021 13.3622 19.5632C13.928 20.129 14.6568 20.4943 15.4383 20.6133C15.4625 20.6159 15.4866 20.6193 15.5107 20.6236C15.6721 20.645 15.8356 20.6559 16.0002 20.6559C16.1581 20.6559 16.3148 20.6459 16.4697 20.6262C16.507 20.6187 16.5447 20.6134 16.5825 20.6102C17.3563 20.4879 18.0774 20.1241 18.6383 19.5632C19.1997 19.0017 19.5638 18.2797 19.6857 17.5051C19.6888 17.4694 19.6939 17.4339 19.7009 17.3986C19.7208 17.2424 19.731 17.0843 19.731 16.9251C19.731 16.767 19.721 16.61 19.7013 16.4548C19.6939 16.4181 19.6886 16.3809 19.6854 16.3437C19.5633 15.5696 19.1994 14.8482 18.6383 14.2871C18.0766 13.7254 17.3544 13.3613 16.5794 13.2396Z" fill="#2D373D"/>
</svg>
