<svg width="24" height="24" viewBox="0 0 24 24" fill="none" xmlns="http://www.w3.org/2000/svg">
<path d="M21.825 17.0252L19.05 14.2502C19.725 13.3502 20.1 12.2252 20.1 11.0252C20.1 8.10019 17.7 5.7002 14.775 5.7002C11.85 5.7002 9.45004 8.10019 9.45004 11.0252C9.45004 13.9502 11.85 16.3502 14.775 16.3502C15.975 16.3502 17.1 15.9752 18 15.3002L20.775 18.0752C20.925 18.2252 21.075 18.3002 21.3 18.3002C21.525 18.3002 21.675 18.2252 21.825 18.0752C21.975 17.9252 22.05 17.7752 22.05 17.5502C22.05 17.4002 21.975 17.1752 21.825 17.0252ZM10.95 11.0252C10.95 8.9252 12.675 7.2002 14.775 7.2002C16.95 7.2002 18.6 8.9252 18.6 11.0252C18.6 13.1252 16.875 14.8502 14.775 14.8502C12.675 14.8502 10.95 13.1252 10.95 11.0252Z" fill="#2D373D"/>
<path d="M2.70004 7.2002H9.00004C9.37504 7.2002 9.75004 6.8252 9.75004 6.4502C9.75004 6.0002 9.45004 5.7002 9.00004 5.7002H2.70004C2.25004 5.7002 1.95004 6.0002 1.95004 6.4502C1.95004 6.9002 2.25004 7.2002 2.70004 7.2002Z" fill="#2D373D"/>
<path d="M2.70004 11.7752H7.57504C7.95004 11.7752 8.32504 11.4752 8.32504 11.0252C8.32504 10.5752 8.02504 10.2752 7.57504 10.2752H2.70004C2.25004 10.2752 1.95004 10.5752 1.95004 11.0252C1.95004 11.4752 2.25004 11.7752 2.70004 11.7752Z" fill="#2D373D"/>
<path d="M8.925 14.8502H2.625C2.175 14.8502 1.875 15.1502 1.875 15.6002C1.875 16.0502 2.175 16.3502 2.625 16.3502H8.925C9.375 16.3502 9.675 16.0502 9.675 15.6002C9.675 15.1502 9.375 14.8502 8.925 14.8502Z" fill="#2D373D"/>
</svg>
