<svg width="16" height="17" viewBox="0 0 16 17" fill="none" xmlns="http://www.w3.org/2000/svg">
<path d="M10.0002 9.58761C10.3684 9.58761 10.6668 9.28913 10.6668 8.92094C10.6668 8.55275 10.3684 8.25427 10.0002 8.25427C9.63197 8.25427 9.3335 8.55275 9.3335 8.92094C9.3335 9.28913 9.63197 9.58761 10.0002 9.58761Z" fill="#2D373D"/>
<path fill-rule="evenodd" clip-rule="evenodd" d="M3.33464 14.5876L3.33461 3.51271C3.33461 2.88849 3.78608 2.25398 4.49036 2.25398L11.5124 2.25391C12.2166 2.25391 12.6681 2.88842 12.6681 3.51264L12.6681 14.5876H14.1664C14.4426 14.5876 14.6664 14.8115 14.6664 15.0876C14.6664 15.3637 14.4426 15.5876 14.1664 15.5876H1.8335C1.55735 15.5876 1.3335 15.3637 1.3335 15.0876C1.3335 14.8115 1.55735 14.5876 1.8335 14.5876H3.33464ZM11.6681 14.5876L11.6681 3.51264C11.6681 3.41895 11.6352 3.3464 11.5977 3.30308C11.5612 3.26079 11.5296 3.25391 11.5124 3.25391L7.55897 3.25395L8.44738 5.03078C8.53389 5.20379 8.51284 5.41119 8.39333 5.56329L6.75574 7.6475L7.94738 10.0308C8.07088 10.2778 7.97076 10.5781 7.72377 10.7016C7.47678 10.8251 7.17645 10.725 7.05295 10.478L5.71962 7.81132C5.63311 7.63831 5.65416 7.43091 5.77367 7.27881L7.41126 5.1946L6.44094 3.25396L4.49036 3.25398C4.4731 3.25398 4.44152 3.26086 4.40497 3.30315C4.36753 3.34647 4.33461 3.41903 4.33461 3.51271L4.33464 14.5876H11.6681Z" fill="#2D373D"/>
</svg>
