<svg width="32" height="33" viewBox="0 0 32 33" fill="none" xmlns="http://www.w3.org/2000/svg">
<path d="M27.1 16.2617H22.1C21.5 16.2617 21.1 16.6617 21.1 17.2617C21.1 17.8617 21.5 18.2617 22.1 18.2617H24.9L21.1 22.1617C20.7 22.4617 20.2 22.6617 19.7 22.4617L13.7 20.8617C12.5 20.5617 11.2 20.8617 10.4 21.7617L4.3 28.0617C3.9 28.4617 3.9 29.0617 4.3 29.4617C4.5 29.6617 4.7 29.7617 5 29.7617C5.3 29.7617 5.5 29.6617 5.7 29.5617L11.8 23.2617C12.1 22.8617 12.6 22.7617 13.1 22.8617L19.1 24.4617C20.3 24.7617 21.6 24.4617 22.5 23.5617L26.1 19.8617V22.2617C26.1 22.8617 26.5 23.2617 27.1 23.2617C27.7 23.2617 28.1 22.7617 28.1 22.2617V17.2617C28.1 16.6617 27.7 16.2617 27.1 16.2617Z" fill="#2D373D"/>
<path d="M14.6 17.8616C15.1 17.8616 15.6 17.3616 15.6 16.8616V16.5616C16.4 16.4616 17.2 15.8616 17.5 14.9616C17.8 14.3616 17.8 13.6616 17.5 13.0616C17.2 12.4616 16.7 11.9616 16.1 11.7616L13.8 10.8616C13.6 10.8616 13.5 10.6616 13.5 10.4616C13.5 10.3616 13.6 10.2616 13.7 10.1616C13.7 10.1616 13.8 10.0616 14 10.0616H16.3C16.9 10.0616 17.3 9.66157 17.3 9.06157C17.3 8.46157 16.9 8.06157 16.3 8.06157H15.6V7.86157C15.6 7.26157 15.2 6.86157 14.6 6.86157C14 6.86157 13.6 7.26157 13.6 7.86157V8.06157C12.4 8.26157 11.5 9.26157 11.5 10.5616C11.5 11.5616 12.1 12.4616 13.1 12.7616L15.2 13.6616C15.4 13.7616 15.5 13.8616 15.5 13.9616C15.5 14.0616 15.6 14.1616 15.5 14.3616C15.5 14.5616 15.3 14.6616 15.1 14.6616H12.9C12.3 14.6616 11.9 15.0616 11.9 15.6616C11.9 16.2616 12.3 16.6616 12.9 16.6616H13.6V16.8616C13.6 17.4616 14 17.8616 14.6 17.8616Z" fill="#2D373D"/>
<path d="M8.99967 19.7617C9.19967 19.8617 9.39967 19.9617 9.59967 19.9617C9.89967 19.9617 10.1997 19.7617 10.3997 19.5617C10.6997 19.1617 10.5997 18.4618 10.1997 18.1617C7.99967 16.4618 6.89967 13.6617 7.49967 10.8617C7.79967 8.96175 8.89967 7.36175 10.5997 6.26175C12.2997 5.16175 14.1997 4.76175 16.0997 5.16175C17.9997 5.56175 19.5997 6.66175 20.6997 8.26175C21.7997 9.96175 22.1997 11.8617 21.7997 13.7617C21.6997 14.3617 22.0997 14.8617 22.5997 14.9617C23.1997 15.0617 23.6997 14.6617 23.7997 14.1617C24.2997 11.6617 23.7997 9.26175 22.3997 7.16175C20.9997 5.06175 18.8997 3.66175 16.4997 3.16175C13.9997 2.66175 11.5997 3.16175 9.49967 4.56175C7.39967 5.96175 5.99967 8.06175 5.49967 10.5617C4.79967 13.9617 6.19967 17.6617 8.99967 19.7617Z" fill="#2D373D"/>
</svg>
