<svg width="32" height="32" viewBox="0 0 32 32" fill="none" xmlns="http://www.w3.org/2000/svg">
<path d="M16.0001 2.6001C8.6001 2.6001 2.6001 8.6001 2.6001 16.0001C2.6001 23.4001 8.6001 29.4001 16.0001 29.4001C23.4001 29.4001 29.4001 23.4001 29.4001 16.0001C29.4001 8.6001 23.4001 2.6001 16.0001 2.6001ZM16.0001 27.4001C9.7001 27.4001 4.6001 22.3001 4.6001 16.0001C4.6001 9.7001 9.7001 4.6001 16.0001 4.6001C22.3001 4.6001 27.4001 9.7001 27.4001 16.0001C27.4001 22.3001 22.3001 27.4001 16.0001 27.4001Z" fill="#2D373D"/>
<path d="M22.4 15.0001H17V7.6001C17 7.0001 16.6 6.6001 16 6.6001C15.4 6.6001 15 7.0001 15 7.6001V16.0001C15 16.6001 15.4 17.0001 16 17.0001H22.4C22.9 17.0001 23.4 16.6001 23.4 16.0001C23.4 15.4001 23 15.0001 22.4 15.0001Z" fill="#2D373D"/>
</svg>
