<svg width="32" height="33" viewBox="0 0 32 33" fill="none" xmlns="http://www.w3.org/2000/svg">
<path fill-rule="evenodd" clip-rule="evenodd" d="M15.5208 4.58985C15.5208 4.26523 15.3632 3.96081 15.0982 3.77338C14.8332 3.58595 14.4936 3.53883 14.1876 3.64701C11.8155 4.48543 9.66896 6.77757 9.66896 9.61979C9.66896 12.2603 11.1875 14.568 13.5339 15.5075L13.5355 20.9232H4.66699L4.66699 12.1231C4.66699 11.2763 5.35347 10.5898 6.20029 10.5898L8.0003 10.5898C8.55258 10.5898 9.0003 10.1421 9.0003 9.58984C9.0003 9.03756 8.55258 8.58984 8.0003 8.58984H6.20029C4.2489 8.58984 2.66699 10.1718 2.66699 12.1231V22.7238C2.66699 24.6749 4.24844 26.2566 6.19952 26.2571L13.2302 26.2586L12.5109 28.2565H10.667C10.1147 28.2565 9.66701 28.7042 9.66701 29.2565C9.66701 29.8088 10.1147 30.2565 10.667 30.2565H21.3337C21.886 30.2565 22.3337 29.8088 22.3337 29.2565C22.3337 28.7042 21.886 28.2565 21.3337 28.2565H19.4898L18.7709 26.2598L25.7996 26.2613C27.7513 26.2617 29.3337 24.6797 29.3337 22.728V12.1231C29.3337 10.1718 27.7518 8.58984 25.8004 8.58984L24.0003 8.58984C23.448 8.58984 23.0003 9.03756 23.0003 9.58984C23.0003 10.1421 23.448 10.5898 24.0003 10.5898H25.8004C26.6472 10.5898 27.3337 11.2763 27.3337 12.1231V20.9232H18.4981L18.4942 15.507C20.841 14.5655 22.3356 12.2541 22.3356 9.61979C22.3356 6.77757 20.1891 4.48543 17.817 3.64701C17.511 3.53883 17.1714 3.58595 16.9064 3.77338C16.6413 3.96081 16.4838 4.26523 16.4838 4.58985V8.43459C16.4838 8.54212 16.468 8.80478 16.3723 9.00723C16.3309 9.09479 16.2907 9.13584 16.2613 9.15636C16.2402 9.17106 16.1743 9.2124 16.0023 9.2124C15.8293 9.2124 15.763 9.17095 15.742 9.15632C15.7128 9.13606 15.673 9.0956 15.632 9.00892C15.5368 8.80798 15.5208 8.54611 15.5208 8.43459V4.58985ZM16.6451 26.2593L15.3557 26.259L14.6366 28.2565H17.3641L16.6451 26.2593ZM16.4981 20.9232H15.5355L15.5337 14.7844C15.5335 14.3284 15.2249 13.9302 14.7833 13.8163C12.9525 13.3444 11.669 11.6764 11.669 9.61979C11.669 8.30327 12.4237 7.06315 13.5208 6.24637V8.43459C13.5208 8.62567 13.5345 9.25271 13.8245 9.86502C13.976 10.185 14.2177 10.5322 14.5997 10.798C14.9897 11.0694 15.4641 11.2124 16.0023 11.2124C16.5414 11.2124 17.0162 11.0685 17.4063 10.7962C17.788 10.5297 18.0292 10.1818 18.1804 9.86198C18.4699 9.2496 18.4838 8.62335 18.4838 8.43459V6.24637C19.5809 7.06315 20.3356 8.30327 20.3356 9.61979C20.3356 11.6833 19.0684 13.346 17.244 13.8163C16.8021 13.9303 16.4933 14.329 16.4937 14.7854L16.4981 20.9232ZM6.19996 24.2571C5.42085 24.2569 4.77757 23.6757 4.67984 22.9232H27.3214C27.2255 23.678 26.5809 24.2615 25.8 24.2613L6.19996 24.2571Z" fill="#2D373D"/>
</svg>
