<svg width="24" height="24" viewBox="0 0 24 24" fill="none" xmlns="http://www.w3.org/2000/svg">
<path d="M20.7748 13.3499L19.9498 12.5999L19.4248 13.1249L19.8748 12.5249C19.7248 12.3749 19.6498 12.2249 19.6498 11.9999C19.6498 11.7749 19.7248 11.6249 19.8748 11.4749L20.6998 10.7249C21.2248 10.2749 21.4498 9.59987 21.4498 8.92487C21.3748 8.32487 21.1498 7.72487 20.6998 7.34987C20.2498 6.89987 19.6498 6.67487 19.0498 6.74987H17.9998C17.5498 6.67487 17.2498 6.37487 17.2498 5.92487L17.3248 4.87487C17.3248 4.19987 17.0998 3.52487 16.5748 3.07487C15.5998 2.24987 14.1748 2.32487 13.3498 3.22487L12.5998 4.04987C12.5998 4.12487 12.5248 4.12487 12.5248 4.12487C12.3748 4.27487 12.2248 4.34987 11.9998 4.34987C11.7748 4.34987 11.6248 4.27487 11.4748 4.12487L10.7248 3.29987C10.2748 2.77487 9.5998 2.54987 8.9248 2.54987C8.3248 2.54987 7.7248 2.84987 7.3498 3.29987C6.8998 3.74987 6.7498 4.34987 6.7498 4.94987L6.8248 5.99987V6.07487C6.8248 6.29987 6.7498 6.52487 6.5248 6.59987C6.3748 6.74987 6.2248 6.82487 5.9998 6.82487L4.9498 6.74987C4.2748 6.74987 3.5998 6.97487 3.1498 7.49987C2.3248 8.47487 2.3998 9.89987 3.2998 10.7249L4.0498 11.3249L4.1248 11.3999C4.2748 11.5499 4.3498 11.6999 4.3498 11.9249C4.3498 12.1499 4.2748 12.2999 4.1248 12.4499L3.2998 13.1999C2.7748 13.6499 2.5498 14.3249 2.5498 14.9999C2.6248 16.2749 3.6748 17.2499 4.9498 17.1749L5.9998 17.0999H6.0748C6.5248 17.1749 6.8248 17.4749 6.8248 17.9249L6.7498 19.0499C6.7498 19.7249 6.9748 20.3999 7.4998 20.8499C7.8748 21.2249 8.47481 21.4499 8.9998 21.4499C9.6748 21.4499 10.2748 21.2249 10.7248 20.9249L11.4748 20.0999C11.5498 20.0249 11.5498 20.0249 11.5498 20.0249C11.6998 19.8749 11.8498 19.7999 12.0748 19.7999C12.2998 19.7999 12.4498 19.8749 12.5998 20.0249L13.3498 20.8499C13.7998 21.3749 14.4748 21.5999 15.1498 21.5999C15.7498 21.5249 16.3498 21.2999 16.7248 20.8499C17.1748 20.3999 17.3248 19.7999 17.3248 19.1999L17.2498 18.0749V17.9999C17.3248 17.5499 17.6248 17.2499 18.0748 17.2499L19.1248 17.3249C19.7998 17.3249 20.4748 17.0999 20.9248 16.5749C21.3748 16.1249 21.5248 15.5249 21.5248 14.9249C21.5248 14.3249 21.2248 13.7249 20.7748 13.3499ZM19.7998 15.5999C19.6498 15.7499 19.4248 15.8249 19.1998 15.8249L18.1498 15.7499C16.8748 15.7499 15.8248 16.6499 15.7498 17.9249C15.7498 17.9999 15.7498 18.0749 15.7498 18.1499L15.8248 19.1999C15.8248 19.3499 15.7498 19.5749 15.5998 19.7249C15.4498 19.8749 15.2998 19.9499 15.0748 19.9499C14.8498 19.9499 14.6248 19.8749 14.4748 19.7249L13.7248 18.8999C13.2748 18.4499 12.7498 18.1499 12.1498 18.1499C11.5498 18.1499 10.9498 18.3749 10.4998 18.7499C10.4248 18.8249 10.4248 18.8249 10.3498 18.8999L9.5998 19.7249C9.4498 19.8749 9.29981 19.9499 9.07481 19.9499C8.92481 19.9499 8.6998 19.8749 8.5498 19.7249C8.3998 19.5749 8.3248 19.3499 8.3248 19.1249L8.3998 18.0749C8.3998 16.7999 7.4998 15.7499 6.2248 15.6749C6.1498 15.6749 6.1498 15.6749 6.0748 15.6749C5.9998 15.6749 5.9998 15.6749 5.9248 15.6749L4.8748 15.7499C4.4248 15.7499 4.0498 15.4499 4.0498 14.9999C4.0498 14.7749 4.1248 14.5499 4.2748 14.4749L5.0998 13.7249C5.5498 13.2749 5.8498 12.7499 5.8498 12.1499C5.8498 11.5499 5.6248 10.9499 5.2498 10.4999C5.1748 10.4249 5.1748 10.4249 5.0998 10.3499L4.2748 9.59987C3.9748 9.29987 3.9748 8.84987 4.2748 8.54987C4.4248 8.32487 4.6498 8.24987 4.8748 8.24987L5.9248 8.32487C7.1998 8.39987 8.2498 7.42487 8.3248 6.14987C8.3248 6.07487 8.3248 5.99987 8.3248 5.92487L8.2498 4.87487C8.2498 4.64987 8.3248 4.42487 8.4748 4.27487C8.6248 4.12487 8.7748 4.04987 8.9998 4.04987C9.22481 4.04987 9.44981 4.12487 9.7498 4.42487L10.4998 5.24987C10.9498 5.69987 11.4748 5.99987 12.0748 5.99987C12.6748 5.99987 13.2748 5.77487 13.7248 5.39987C13.7998 5.32487 13.7998 5.32487 13.8748 5.24987L14.6248 4.42487C14.8498 4.12487 15.3748 4.04987 15.6748 4.34987C15.8248 4.49987 15.8998 4.72487 15.8998 4.94987L15.8248 5.99987C15.8248 7.27487 16.7248 8.32487 17.9998 8.39987C18.0748 8.39987 18.1498 8.39987 18.2248 8.39987L19.2748 8.32487C19.4248 8.32487 19.6498 8.39987 19.7998 8.54987C19.9498 8.69987 20.0248 8.84987 20.0248 9.07487C20.0248 9.29987 19.9498 9.52487 19.7998 9.67487L18.9748 10.4249C18.5248 10.8749 18.2248 11.3999 18.2248 11.9999C18.2248 12.5999 18.4498 13.1999 18.8248 13.6499C18.8998 13.7249 18.8998 13.7249 18.9748 13.7999L19.7998 14.5499C19.9498 14.6999 20.0248 14.9249 20.0248 15.0749C20.0248 15.2249 19.9498 15.4499 19.7998 15.5999Z" fill="#2D373D"/>
<path d="M11.9998 7.79987C9.6748 7.79987 7.7998 9.67487 7.7998 12.0749C7.7998 14.3999 9.6748 16.2749 11.9998 16.2749C13.1248 16.2749 14.1748 15.8249 14.9248 14.9999C15.7498 14.1749 16.1998 13.1249 16.1998 11.9999C16.1998 9.67487 14.3248 7.79987 11.9998 7.79987ZM13.9498 13.8749C13.4248 14.3999 12.7498 14.6999 11.9998 14.6999C10.4998 14.6999 9.2998 13.4999 9.2998 11.9999C9.2998 10.4999 10.5748 9.22487 12.0748 9.22487C13.5748 9.22487 14.7748 10.4249 14.7748 11.9249C14.7748 12.6749 14.4748 13.3499 13.9498 13.8749Z" fill="#2D373D"/>
</svg>
