<svg width="64" height="65" viewBox="0 0 64 65" fill="none" xmlns="http://www.w3.org/2000/svg">
<path d="M31.76 59.0476C31.4966 59.0535 31.2348 59.0044 30.9914 58.9034C30.7481 58.8024 30.5285 58.6517 30.3467 58.4609C30.1165 58.2301 29.9455 57.9472 29.848 57.6362C29.7505 57.3251 29.7295 56.9952 29.7867 56.6743L31.36 48.9143C31.4388 48.5252 31.6234 48.1653 31.8933 47.8743L47.7067 32.0876C48.2862 31.4863 48.9858 31.0139 49.76 30.7009C51.324 30.0622 53.076 30.0622 54.64 30.7009C55.4187 31.0201 56.1259 31.4915 56.72 32.0876C57.321 32.6795 57.798 33.3853 58.1231 34.1636C58.4482 34.942 58.6148 35.7774 58.6133 36.6209C58.5948 38.3127 57.9152 39.9302 56.72 41.1276V41.1276L40.9333 56.9143C40.6612 57.2008 40.3074 57.3963 39.92 57.4743L32.16 59.0209L31.76 59.0476ZM35.1467 50.2743L34.32 54.5143L38.64 53.6609L54 38.3009C54.4362 37.8364 54.6916 37.2309 54.72 36.5943C54.711 35.9612 54.4522 35.3574 54 34.9143C53.7781 34.6894 53.5157 34.5084 53.2267 34.3809C52.6434 34.1546 51.9966 34.1546 51.4133 34.3809C51.1208 34.5021 50.8572 34.6838 50.64 34.9143L35.1467 50.2743ZM25.5467 52.8343H13.12C12.4506 52.8383 11.7872 52.7082 11.1689 52.4518C10.5506 52.1953 9.98998 51.8176 9.52 51.3409C9.04213 50.8705 8.66186 50.3103 8.40102 49.6925C8.14018 49.0747 8.0039 48.4115 8 47.7409V13.5809C8.00666 12.2185 8.55327 10.9143 9.52 9.95427C10.4762 9.00137 11.7701 8.46467 13.12 8.46094H44.1867C44.8556 8.45989 45.5181 8.59131 46.136 8.84761C46.7539 9.10392 47.3149 9.48003 47.7867 9.95427C48.2665 10.4288 48.6479 10.9935 48.9087 11.6159C49.1696 12.2383 49.3048 12.9061 49.3067 13.5809V27.5543C49.2998 28.0826 49.0868 28.5873 48.7132 28.9609C48.3397 29.3344 47.835 29.5474 47.3067 29.5543C46.7784 29.5474 46.2737 29.3344 45.9001 28.9609C45.5265 28.5873 45.3136 28.0826 45.3067 27.5543V13.5809C45.3115 13.4367 45.2854 13.2931 45.2302 13.1597C45.175 13.0263 45.092 12.9063 44.9867 12.8076C44.8873 12.7013 44.7677 12.6158 44.635 12.5563C44.5022 12.4968 44.3588 12.4644 44.2133 12.4609H13.12C12.8311 12.4664 12.5549 12.5807 12.3467 12.7809C12.1303 12.9916 12.0057 13.279 12 13.5809V47.7409C12.0003 47.887 12.0313 48.0313 12.091 48.1645C12.1507 48.2978 12.2378 48.4169 12.3467 48.5143C12.4453 48.6196 12.5654 48.7027 12.6988 48.7578C12.8321 48.813 12.9757 48.8391 13.12 48.8343H25.5467C26.075 48.8412 26.5797 49.0541 26.9532 49.4277C27.3268 49.8013 27.5398 50.306 27.5467 50.8343C27.5467 51.0969 27.4949 51.357 27.3944 51.5996C27.2939 51.8423 27.1466 52.0628 26.9609 52.2485C26.7752 52.4342 26.5547 52.5815 26.312 52.682C26.0694 52.7825 25.8093 52.8343 25.5467 52.8343V52.8343ZM34.8533 40.4343H19.3333C18.8029 40.4343 18.2942 40.2236 17.9191 39.8485C17.544 39.4734 17.3333 38.9647 17.3333 38.4343C17.3297 38.1706 17.379 37.909 17.4783 37.6647C17.5775 37.4204 17.7247 37.1985 17.9111 37.0121C18.0976 36.8256 18.3195 36.6784 18.5637 36.5792C18.808 36.48 19.0697 36.4307 19.3333 36.4343H34.8533C35.117 36.4307 35.3787 36.48 35.6229 36.5792C35.8672 36.6784 36.0891 36.8256 36.2755 37.0121C36.462 37.1985 36.6092 37.4204 36.7084 37.6647C36.8076 37.909 36.8569 38.1706 36.8533 38.4343C36.8533 38.6969 36.8016 38.957 36.7011 39.1996C36.6006 39.4423 36.4533 39.6628 36.2675 39.8485C36.0818 40.0342 35.8614 40.1815 35.6187 40.282C35.376 40.3825 35.116 40.4343 34.8533 40.4343V40.4343ZM37.9733 31.1009H19.3067C19.043 31.1045 18.7813 31.0552 18.5371 30.956C18.2928 30.8568 18.0709 30.7096 17.8845 30.5231C17.698 30.3367 17.5508 30.1148 17.4516 29.8705C17.3524 29.6263 17.3031 29.3646 17.3067 29.1009C17.3067 28.5705 17.5174 28.0618 17.8925 27.6867C18.2675 27.3117 18.7762 27.1009 19.3067 27.1009H37.9733C38.5016 27.1078 39.0063 27.3208 39.3799 27.6944C39.7535 28.068 39.9664 28.5727 39.9733 29.1009C39.9733 29.6314 39.7626 30.1401 39.3875 30.5152C39.0125 30.8902 38.5038 31.1009 37.9733 31.1009ZM37.9733 21.7943H25.5467C25.0162 21.7943 24.5075 21.5836 24.1325 21.2085C23.7574 20.8334 23.5467 20.3247 23.5467 19.7943C23.5431 19.5306 23.5924 19.269 23.6916 19.0247C23.7908 18.7804 23.938 18.5585 24.1245 18.3721C24.3109 18.1856 24.5328 18.0384 24.7771 17.9392C25.0213 17.84 25.283 17.7907 25.5467 17.7943H37.9733C38.5038 17.7943 39.0125 18.005 39.3875 18.3801C39.7626 18.7551 39.9733 19.2638 39.9733 19.7943C39.9664 20.3226 39.7535 20.8273 39.3799 21.2009C39.0063 21.5744 38.5016 21.7874 37.9733 21.7943V21.7943Z" fill="#2D373D"/>
</svg>
