<svg width="16" height="17" viewBox="0 0 16 17" fill="none" xmlns="http://www.w3.org/2000/svg">
<path d="M14.1998 3.06055H1.7998C1.4998 3.06055 1.2998 3.26055 1.2998 3.56055V13.3105C1.2998 13.6105 1.4998 13.8105 1.7998 13.8105H14.1998C14.4998 13.8105 14.6998 13.5605 14.6998 13.3105V3.56055C14.6998 3.26055 14.4998 3.06055 14.1998 3.06055ZM13.6998 4.06055V5.36055H2.2998V4.06055H13.6998ZM2.2998 12.8105V7.11055H13.6998V12.8105H2.2998Z" fill="#2D373D"/>
<path d="M5.14976 9.21057H3.49976C3.19976 9.21057 2.99976 9.41057 2.99976 9.71057C2.99976 10.0106 3.19976 10.2106 3.49976 10.2106H5.14976C5.39976 10.2106 5.64976 10.0106 5.64976 9.71057C5.64976 9.41057 5.44976 9.21057 5.14976 9.21057Z" fill="#2D373D"/>
<path d="M9.94985 8.46057C9.29985 7.96057 8.39985 7.96057 7.74985 8.46057C7.34985 8.76057 7.04985 9.21057 6.99985 9.71057C6.89985 10.2106 7.04985 10.7106 7.34985 11.1106C7.64985 11.5106 8.09985 11.8106 8.59985 11.8606C8.64985 11.8606 8.74985 11.8606 8.84985 11.8606C9.24985 11.8606 9.59985 11.7106 9.99985 11.4606C10.6498 11.9606 11.5498 11.9606 12.1998 11.4606C12.9998 10.8606 13.1498 9.66057 12.5498 8.86057C11.9498 8.06057 10.7498 7.86057 9.94985 8.46057ZM11.8498 10.1606C11.7998 10.3606 11.6998 10.5606 11.4998 10.7106C11.2998 10.8106 11.0998 10.9106 10.8498 10.8606C10.6498 10.8106 10.4498 10.7106 10.2998 10.5106C10.1998 10.3606 10.0498 10.3106 9.89985 10.3106C9.74985 10.3106 9.59985 10.3606 9.49985 10.5106C9.44985 10.5606 9.39985 10.6106 9.34985 10.6606C9.14985 10.7606 8.94985 10.8606 8.69985 10.8106C8.49985 10.7606 8.29985 10.6606 8.14985 10.4606C8.04985 10.2606 7.94985 10.0606 7.99985 9.81057C8.04985 9.61057 8.14985 9.41057 8.34985 9.26057C8.49985 9.16057 8.64985 9.11057 8.84985 9.11057C8.89985 9.11057 8.89985 9.11057 8.99985 9.16057C9.19985 9.21057 9.39985 9.31057 9.54985 9.51057C9.74985 9.76057 10.1498 9.76057 10.3498 9.51057C10.3998 9.46057 10.4498 9.41057 10.4998 9.36057C10.8498 9.06057 11.3998 9.11057 11.6998 9.51057C11.7998 9.71057 11.8998 9.91057 11.8498 10.1606Z" fill="#2D373D"/>
</svg>
