<svg width="16" height="17" viewBox="0 0 16 17" fill="none" xmlns="http://www.w3.org/2000/svg">
<path d="M8.85978 9.50131C8.7592 8.66535 8.35319 7.89606 7.71978 7.34131C7.29533 6.97975 6.78992 6.7259 6.24645 6.60131C6.71352 6.41597 7.10136 6.07359 7.34319 5.63311C7.58503 5.19263 7.66571 4.68161 7.57137 4.18805C7.47702 3.69448 7.21355 3.24926 6.8263 2.92902C6.43906 2.60879 5.95228 2.43359 5.44978 2.43359C4.94728 2.43359 4.4605 2.60879 4.07326 2.92902C3.68602 3.24926 3.42254 3.69448 3.32819 4.18805C3.23385 4.68161 3.31454 5.19263 3.55637 5.63311C3.7982 6.07359 4.18604 6.41597 4.65311 6.60131C4.10755 6.72564 3.59992 6.97946 3.17312 7.34131C2.52236 7.8884 2.0992 8.65865 1.98645 9.50131C1.97034 9.56974 1.96884 9.64079 1.98205 9.70984C1.99526 9.77889 2.02288 9.84437 2.06312 9.90202C2.10335 9.95967 2.15528 10.0082 2.21553 10.0444C2.27578 10.0806 2.34299 10.1037 2.41278 10.1122C2.48256 10.1207 2.55335 10.1144 2.62053 10.0937C2.68771 10.0729 2.74976 10.0383 2.80263 9.99196C2.85551 9.94564 2.89802 9.88868 2.9274 9.82482C2.95677 9.76095 2.97235 9.6916 2.97311 9.62131C3.05279 9.03148 3.34137 8.4898 3.78645 8.09464C4.23411 7.70636 4.80719 7.49323 5.39978 7.49464C5.99019 7.49424 6.56083 7.70734 7.00645 8.09464C7.45153 8.4898 7.74011 9.03148 7.81978 9.62131C7.83438 9.74212 7.89254 9.85346 7.98336 9.93447C8.07418 10.0155 8.19142 10.0606 8.31311 10.0613H8.37311C8.44335 10.061 8.51271 10.0457 8.57656 10.0164C8.64041 9.98717 8.69727 9.9446 8.74334 9.89159C8.78941 9.83857 8.82363 9.77633 8.84372 9.70902C8.8638 9.64172 8.86927 9.5709 8.85978 9.50131ZM4.27978 4.61464C4.28241 4.38712 4.35228 4.16546 4.4806 3.97756C4.60892 3.78966 4.78995 3.64391 5.00091 3.55866C5.21188 3.4734 5.44334 3.45246 5.66618 3.49845C5.88902 3.54445 6.09328 3.65533 6.25324 3.81715C6.41321 3.97896 6.52173 4.18448 6.56517 4.40783C6.6086 4.63118 6.58499 4.86239 6.49732 5.07236C6.40965 5.28233 6.26183 5.46168 6.07247 5.58783C5.8831 5.71398 5.66065 5.78129 5.43311 5.78131C5.28053 5.78132 5.12946 5.75105 4.98865 5.69226C4.84785 5.63347 4.72011 5.54732 4.61283 5.43881C4.50556 5.33029 4.42089 5.20157 4.36372 5.0601C4.30655 4.91863 4.27802 4.76722 4.27978 4.61464Z" fill="#2D373D"/>
<path d="M8.93311 7.02131C9.09334 6.83884 9.27788 6.64661 9.49978 6.54798C9.71987 6.44899 9.95846 6.39781 10.1998 6.39781C10.4411 6.39781 10.6797 6.44899 10.8998 6.54798C11.1217 6.64661 11.3196 6.79217 11.4798 6.97464C11.5264 7.02805 11.5837 7.07107 11.6481 7.10093C11.7124 7.13079 11.7822 7.14681 11.8531 7.14798C11.9762 7.14945 12.0954 7.10418 12.1864 7.02131C12.2765 6.93631 12.3312 6.82058 12.3399 6.69708C12.3485 6.57358 12.3104 6.45135 12.2331 6.35464C11.9792 6.06748 11.6651 5.83985 11.3131 5.68798C11.6046 5.45802 11.8172 5.14298 11.9213 4.78664C12.0255 4.4303 12.0161 4.05035 11.8944 3.69961C11.7727 3.34887 11.5447 3.04476 11.2422 2.82953C10.9397 2.6143 10.5777 2.49865 10.2064 2.49865C9.83519 2.49865 9.47316 2.6143 9.17066 2.82953C8.86815 3.04476 8.64021 3.34887 8.51851 3.69961C8.39681 4.05035 8.38738 4.4303 8.49156 4.78664C8.59573 5.14298 8.80832 5.45802 9.09978 5.68798C8.74879 5.84153 8.435 6.06891 8.17978 6.35464C8.09138 6.45454 8.04628 6.58547 8.0544 6.71862C8.06253 6.85177 8.12322 6.97624 8.22311 7.06464C8.32301 7.15305 8.45394 7.19815 8.58709 7.19002C8.72024 7.18189 8.84471 7.12121 8.93311 7.02131ZM10.1998 3.46131C10.3557 3.46131 10.508 3.50763 10.6375 3.59436C10.767 3.6811 10.8678 3.80436 10.9272 3.94849C10.9865 4.09263 11.0017 4.25114 10.9708 4.40392C10.9399 4.55669 10.8643 4.69685 10.7536 4.8066C10.643 4.91634 10.5022 4.99073 10.3491 5.02033C10.1961 5.04993 10.0377 5.03339 9.89409 4.97283C9.75047 4.91227 9.62807 4.8104 9.54244 4.68016C9.45681 4.54992 9.41179 4.39717 9.41311 4.24131C9.41487 4.03383 9.49853 3.83545 9.64587 3.68936C9.79321 3.54327 9.99229 3.4613 10.1998 3.46131Z" fill="#2D373D"/>
<path d="M13.2664 9.90131V9.56131C13.2484 9.18351 13.1236 8.81856 12.9065 8.50882C12.6895 8.19908 12.389 7.95724 12.04 7.81137C11.6911 7.6655 11.3079 7.62158 10.935 7.6847C10.562 7.74782 10.2146 7.91539 9.93311 8.16798C9.55299 8.53341 9.33256 9.03417 9.31978 9.56131V9.90131C9.10166 9.99804 8.91628 10.156 8.78612 10.3559C8.65596 10.5559 8.5866 10.7894 8.58645 11.028V13.228C8.58819 13.3899 8.62182 13.55 8.68541 13.6989C8.74901 13.8479 8.84132 13.9829 8.95709 14.0962C9.07286 14.2095 9.2098 14.2989 9.36011 14.3592C9.51042 14.4196 9.67115 14.4497 9.83311 14.448H12.7664C13.0889 14.4445 13.3972 14.3149 13.6253 14.0868C13.8533 13.8588 13.983 13.5505 13.9864 13.228V11.028C13.9875 10.7908 13.9201 10.5584 13.7924 10.3586C13.6647 10.1588 13.4821 10 13.2664 9.90131ZM10.3331 9.56131C10.3367 9.31123 10.4371 9.07228 10.6131 8.89464C10.798 8.71779 11.0439 8.61908 11.2998 8.61908C11.5556 8.61908 11.8016 8.71779 11.9864 8.89464C12.1637 9.07147 12.2643 9.31094 12.2664 9.56131V9.78131H10.3331V9.56131ZM12.9998 13.228C12.9998 13.2899 12.9752 13.3492 12.9314 13.393C12.8877 13.4367 12.8283 13.4613 12.7664 13.4613H9.83311C9.77123 13.4613 9.71188 13.4367 9.66812 13.393C9.62436 13.3492 9.59978 13.2899 9.59978 13.228V11.028C9.59978 10.9661 9.62436 10.9067 9.66812 10.863C9.71188 10.8192 9.77123 10.7946 9.83311 10.7946H12.7664C12.8283 10.7946 12.8877 10.8192 12.9314 10.863C12.9752 10.9067 12.9998 10.9661 12.9998 11.028V13.228Z" fill="#2D373D"/>
<path d="M11.2931 12.8146C11.6613 12.8146 11.9598 12.5162 11.9598 12.148C11.9598 11.7798 11.6613 11.4813 11.2931 11.4813C10.9249 11.4813 10.6264 11.7798 10.6264 12.148C10.6264 12.5162 10.9249 12.8146 11.2931 12.8146Z" fill="#2D373D"/>
</svg>
