<svg width="32" height="32" viewBox="0 0 32 32" fill="none" xmlns="http://www.w3.org/2000/svg">
<path d="M24.8998 17C24.2998 17 23.8998 17.4 23.8998 18V26H19.3998V20.5C19.3998 19.1 18.1998 17.9 16.7998 17.9H15.1998C13.7998 17.9 12.5998 19.1 12.5998 20.5V26H8.09979V18C8.09979 17.4 7.69979 17 7.09979 17C6.49979 17 6.09979 17.4 6.09979 18V27C6.09979 27.6 6.49979 28 7.09979 28H13.6998C14.2998 28 14.6998 27.6 14.6998 27V20.5C14.6998 20.2 14.8998 19.9 15.2998 19.9H16.8998C17.1998 19.9 17.4998 20.2 17.4998 20.5V27C17.4998 27.6 17.8998 28 18.4998 28H24.9998C25.4998 28 25.9998 27.6 25.8998 27V18C25.8998 17.4 25.4998 17 24.8998 17Z" fill="#2D373D"/>
<path d="M28.9998 15.8L25.9998 12.8V7.49998C25.9998 6.89998 25.5998 6.49998 24.9998 6.49998H20.8998C20.4998 6.49998 20.2998 6.69998 20.0998 6.89998L17.8998 4.69998C16.8998 3.69998 15.1998 3.69998 14.1998 4.69998L3.0998 15.7C2.6998 16.1 2.6998 16.7 3.0998 17.1C3.2998 17.3 3.4998 17.4 3.7998 17.4C4.0998 17.4 4.2998 17.3 4.4998 17.1L15.5998 6.09998C15.8998 5.89998 16.2998 5.89998 16.4998 6.09998L20.0998 9.69998C20.1998 9.79998 20.1998 9.89998 20.2998 9.89998L24.1998 13.8C24.2998 13.9 24.2998 14 24.3998 14L27.5998 17.2C27.9998 17.6 28.5998 17.6 28.9998 17.2C29.3998 16.8 29.3998 16.2 28.9998 15.8ZM21.8998 8.49998H23.9998V10.8L21.8998 8.69998V8.49998Z" fill="#2D373D"/>
</svg>
