<svg width="64" height="65" viewBox="0 0 64 65" fill="none" xmlns="http://www.w3.org/2000/svg">
<path fill-rule="evenodd" clip-rule="evenodd" d="M28.5644 11.4247C28.5174 11.4228 28.4655 11.433 28.4036 11.4749C24.4419 14.1539 13.4315 22.016 8.6886 26.3941C7.87696 27.1433 6.61164 27.0927 5.86243 26.281C5.11323 25.4694 5.16384 24.2041 5.97548 23.4549C10.9652 18.8489 22.2062 10.8371 26.1628 8.1614C27.7474 7.08982 29.7345 7.2263 31.1838 8.31326L51.1987 23.3245C52.0824 23.9872 52.2615 25.2408 51.5987 26.1245C50.936 27.0081 49.6824 27.1872 48.7987 26.5245L28.7838 11.5133C28.693 11.4452 28.6151 11.4267 28.5644 11.4247Z" fill="#2D373D"/>
<path fill-rule="evenodd" clip-rule="evenodd" d="M13.332 25.5911C14.4366 25.5911 15.332 26.4866 15.332 27.5911V46.2578C15.332 46.626 15.6305 46.9245 15.9987 46.9245H23.9987C25.1033 46.9245 25.9987 47.8199 25.9987 48.9245C25.9987 50.029 25.1033 50.9245 23.9987 50.9245H15.9987C13.4214 50.9245 11.332 48.8351 11.332 46.2578V27.5911C11.332 26.4866 12.2275 25.5911 13.332 25.5911Z" fill="#2D373D"/>
<path fill-rule="evenodd" clip-rule="evenodd" d="M46.6654 16.9245C45.5608 16.9245 44.6654 16.0291 44.6654 14.9245L44.6654 10.2578L39.9987 10.2578C38.8941 10.2578 37.9987 9.36238 37.9987 8.25781C37.9987 7.15324 38.8941 6.25781 39.9987 6.25781L46.6654 6.25781C47.7699 6.25781 48.6654 7.15324 48.6654 8.25781L48.6654 14.9245C48.6654 16.029 47.7699 16.9245 46.6654 16.9245Z" fill="#2D373D"/>
<path fill-rule="evenodd" clip-rule="evenodd" d="M45.1745 32.6853L54.4299 52.9785C55.0387 54.2048 54.0469 55.5911 52.5607 55.5911H34.05C32.5638 55.5911 31.572 54.2048 32.1809 52.9785L41.4362 32.6853C42.1605 31.2264 44.4502 31.2264 45.1745 32.6853ZM28.5632 51.271C26.4197 55.7124 30.2967 59.5911 34.05 59.5911H52.5607C56.314 59.5911 60.191 55.7124 58.0475 51.271L48.8139 31.0254C48.7957 30.9855 48.7768 30.9458 48.7573 30.9065C47.5925 28.5604 45.2695 27.5911 43.3054 27.5911C41.3412 27.5911 39.0182 28.5604 37.8535 30.9065C37.8339 30.9458 37.8151 30.9855 37.7968 31.0254L28.5632 51.271Z" fill="#2D373D"/>
<path fill-rule="evenodd" clip-rule="evenodd" d="M43.322 35.9453C44.4266 35.9453 45.322 36.8407 45.322 37.9453V44.414C45.322 45.5186 44.4266 46.414 43.322 46.414C42.2174 46.414 41.322 45.5186 41.322 44.414V37.9453C41.322 36.8407 42.2174 35.9453 43.322 35.9453Z" fill="#2D373D"/>
<path d="M46.0404 50.8017C46.0404 52.2728 44.8465 53.4654 43.3737 53.4654C41.901 53.4654 40.7071 52.2728 40.7071 50.8017C40.7071 49.3306 41.901 48.138 43.3737 48.138C44.8465 48.138 46.0404 49.3306 46.0404 50.8017Z" fill="#2D373D"/>
</svg>
