<svg width="16" height="17" viewBox="0 0 16 17" fill="none" xmlns="http://www.w3.org/2000/svg">
<path fill-rule="evenodd" clip-rule="evenodd" d="M14.6663 8.92253C14.6663 12.6044 11.6816 15.5892 7.99967 15.5892C4.31778 15.5892 1.33301 12.6044 1.33301 8.92253C1.33301 5.24063 4.31778 2.25586 7.99967 2.25586C11.6816 2.25586 14.6663 5.24063 14.6663 8.92253ZM11.6375 13.2675C10.6532 14.0925 9.38445 14.5892 7.99967 14.5892C6.6149 14.5892 5.34614 14.0925 4.36184 13.2675L5.54687 12.0825C6.22421 12.609 7.07533 12.9225 7.99967 12.9225C8.92402 12.9225 9.77514 12.609 10.4525 12.0825L11.6375 13.2675ZM4.83976 11.3754L3.65473 12.5604C2.82973 11.5761 2.33301 10.3073 2.33301 8.92253C2.33301 7.53775 2.82972 6.26899 3.6547 5.28469L4.83973 6.46972C4.31321 7.14706 3.99967 7.99818 3.99967 8.92253C3.99967 9.84689 4.31322 10.698 4.83976 11.3754ZM12.3446 12.5604C13.1696 11.5761 13.6663 10.3073 13.6663 8.92253C13.6663 7.53775 13.1696 6.26899 12.3447 5.2847L11.1596 6.46973C11.6861 7.14707 11.9997 7.99818 11.9997 8.92253C11.9997 9.84689 11.6861 10.698 11.1596 11.3754L12.3446 12.5604ZM10.4525 5.76261C9.77517 5.23607 8.92404 4.92253 7.99967 4.92253C7.07531 4.92253 6.22418 5.23607 5.54683 5.76261L4.3618 4.57758C5.34611 3.75259 6.61488 3.25586 7.99967 3.25586C9.38447 3.25586 10.6532 3.75259 11.6375 4.57759L10.4525 5.76261ZM10.9997 8.92253C10.9997 10.5794 9.65653 11.9225 7.99967 11.9225C6.34282 11.9225 4.99967 10.5794 4.99967 8.92253C4.99967 7.26567 6.34282 5.92253 7.99967 5.92253C9.65653 5.92253 10.9997 7.26567 10.9997 8.92253Z" fill="#2D373D"/>
</svg>
