<svg width="32" height="33" viewBox="0 0 32 33" fill="none" xmlns="http://www.w3.org/2000/svg">
<path d="M6.39978 18.1625C7.69978 18.1625 8.89978 17.0625 8.89978 15.6625C8.89978 14.6625 8.19978 13.8625 7.39978 13.4625V12.7625C7.39978 12.1625 6.99978 11.7625 6.39978 11.7625C5.79978 11.7625 5.39978 12.1625 5.39978 12.7625V14.2625C5.39978 14.8625 5.79978 15.2625 6.39978 15.2625C6.59978 15.2625 6.89978 15.3625 6.89978 15.6625C6.89978 15.9625 6.69978 16.1625 6.39978 16.1625C6.09978 16.1625 5.89978 15.9625 5.89978 15.6625C5.89978 15.0625 5.49978 14.6625 4.89978 14.6625C4.29978 14.6625 3.89978 15.0625 3.89978 15.6625C3.89978 17.0625 4.99978 18.1625 6.39978 18.1625Z" fill="#2D373D"/>
<path d="M24.5998 19.1624L22.2998 14.5624C21.8998 13.6624 20.9998 13.1624 20.0998 13.1624H18.0998C16.6998 13.1624 15.5998 14.2624 15.5998 15.6624V16.3624L7.7998 4.7624C7.3998 4.1624 6.5998 3.9624 5.9998 4.3624C5.5998 4.5624 5.3998 5.0624 5.3998 5.4624V9.6624C5.3998 10.2624 5.7998 10.6624 6.3998 10.6624C6.9998 10.6624 7.3998 10.2624 7.3998 9.6624V7.7624L14.8998 19.0624H6.2998C4.8998 19.0624 3.7998 20.1624 3.7998 21.5624V24.5624C3.7998 25.9624 4.8998 27.0624 6.2998 27.0624H8.4998C8.8998 27.9624 9.7998 28.5624 10.7998 28.5624C11.7998 28.5624 12.6998 27.9624 13.0998 27.0624H20.2998C20.6998 27.9624 21.5998 28.5624 22.5998 28.5624C23.5998 28.5624 24.4998 27.9624 24.8998 27.0624H25.3998C26.7998 27.0624 27.8998 25.9624 27.8998 24.5624V23.0624C27.8998 21.0624 26.4998 19.4624 24.5998 19.1624ZM17.5998 15.5624C17.5998 15.2624 17.7998 15.0624 18.0998 15.0624H20.0998C20.2998 15.0624 20.3998 15.1624 20.4998 15.3624L22.2998 19.0624H17.5998V15.5624ZM10.7998 26.5624C10.4998 26.5624 10.2998 26.3624 10.2998 26.0624C10.2998 25.7624 10.4998 25.5624 10.7998 25.5624C11.0998 25.5624 11.2998 25.7624 11.2998 26.0624C11.2998 26.3624 11.0998 26.5624 10.7998 26.5624ZM22.5998 26.5624C22.2998 26.5624 22.0998 26.3624 22.0998 26.0624C22.0998 25.7624 22.2998 25.5624 22.5998 25.5624C22.8998 25.5624 23.0998 25.7624 23.0998 26.0624C23.0998 26.3624 22.8998 26.5624 22.5998 26.5624ZM25.8998 24.5624C25.8998 24.8624 25.6998 25.0624 25.3998 25.0624H24.8998C24.4998 24.1624 23.5998 23.5624 22.5998 23.5624C21.5998 23.5624 20.6998 24.1624 20.2998 25.0624H13.0998C12.6998 24.1624 11.7998 23.5624 10.7998 23.5624C9.7998 23.5624 8.8998 24.1624 8.4998 25.0624H6.3998C6.0998 25.0624 5.8998 24.8624 5.8998 24.5624V21.5624C5.8998 21.3624 6.0998 21.1624 6.3998 20.9624H16.2998C16.3998 20.9624 16.4998 21.0624 16.5998 21.0624H23.5998C23.6998 21.0624 23.7998 21.0624 23.8998 21.0624C24.9998 21.0624 25.8998 21.9624 25.8998 23.0624V24.5624Z" fill="#2D373D"/>
</svg>
