<svg width="32" height="32" viewBox="0 0 32 32" fill="none" xmlns="http://www.w3.org/2000/svg">
<path fill-rule="evenodd" clip-rule="evenodd" d="M26.6668 25C26.4827 25 26.3334 25.1492 26.3334 25.3333C26.3334 25.5174 26.4827 25.6667 26.6668 25.6667C26.8509 25.6667 27.0001 25.5174 27.0001 25.3333C27.0001 25.1492 26.8509 25 26.6668 25ZM24.3334 25.3333C24.3334 24.0447 25.3781 23 26.6668 23C27.9554 23 29.0001 24.0447 29.0001 25.3333C29.0001 26.622 27.9554 27.6667 26.6668 27.6667C25.3781 27.6667 24.3334 26.622 24.3334 25.3333Z" fill="#2D373D"/>
<path fill-rule="evenodd" clip-rule="evenodd" d="M5.33344 25C5.14934 25 5.0001 25.1492 5.0001 25.3333C5.0001 25.5174 5.14934 25.6667 5.33344 25.6667C5.51753 25.6667 5.66677 25.5174 5.66677 25.3333C5.66677 25.1492 5.51753 25 5.33344 25ZM3.0001 25.3333C3.0001 24.0447 4.04477 23 5.33344 23C6.6221 23 7.66677 24.0447 7.66677 25.3333C7.66677 26.622 6.6221 27.6667 5.33344 27.6667C4.04477 27.6667 3.0001 26.622 3.0001 25.3333Z" fill="#2D373D"/>
<path fill-rule="evenodd" clip-rule="evenodd" d="M24.2868 5.99132C24.7996 5.78621 25.049 5.20424 24.8439 4.69145C24.6388 4.17867 24.0568 3.92925 23.544 4.13437L19.946 5.57356C19.4601 5.76794 19.2062 6.3041 19.3638 6.80317L23.473 19.8155C22.2153 20.5665 21.2687 21.7996 20.8734 23.2232H10.9865C10.8483 22.554 10.5839 21.8995 10.1869 21.2953C8.61157 18.8979 5.50093 18.1178 3.00503 19.3988C2.51368 19.6509 2.31979 20.2537 2.57197 20.745C2.82415 21.2364 3.4269 21.4303 3.91825 21.1781C5.51494 20.3586 7.50727 20.8593 8.51544 22.3936C8.87254 22.937 9.06083 23.5393 9.09518 24.1422C9.11264 24.4486 9.26625 24.7149 9.4939 24.8856C9.67711 25.0927 9.94482 25.2232 10.243 25.2232H21.3165C21.3816 25.2232 21.4452 25.217 21.5069 25.2051C21.534 25.2103 21.5616 25.2144 21.5896 25.2174C22.1387 25.2765 22.6317 24.8793 22.6908 24.3301C22.8857 22.5189 24.4481 21.0423 26.2575 21.0423C26.9078 21.0423 27.5145 21.2156 28.0373 21.518C28.5154 21.7946 29.1271 21.6312 29.4036 21.1532C29.6802 20.6751 29.5168 20.0634 29.0388 19.7868C28.2198 19.3131 27.2688 19.0423 26.2575 19.0423C25.9485 19.0423 25.6455 19.0686 25.3504 19.119L21.5504 7.08586L24.2868 5.99132Z" fill="#2D373D"/>
</svg>
