<svg width="16" height="17" viewBox="0 0 16 17" fill="none" xmlns="http://www.w3.org/2000/svg">
<path d="M3.60001 9.05884C3.73262 9.05884 3.8598 9.00616 3.95356 8.91239C4.04733 8.81862 4.10001 8.69145 4.10001 8.55884C4.10001 8.42623 4.04733 8.29905 3.95356 8.20528C3.8598 8.11152 3.73262 8.05884 3.60001 8.05884H3.23501C3.20418 8.0591 3.17362 8.05302 3.14524 8.04098C3.11686 8.02894 3.09125 8.01119 3.07001 7.98884C3.0258 7.94525 3.00063 7.88593 3.00001 7.82384V4.15884C3.00129 4.09691 3.02646 4.03788 3.07025 3.99408C3.11405 3.95028 3.17308 3.92512 3.23501 3.92384H8.36501C8.49762 3.92384 8.6248 3.87116 8.71856 3.77739C8.81233 3.68362 8.86501 3.55645 8.86501 3.42384C8.86501 3.29123 8.81233 3.16405 8.71856 3.07029C8.6248 2.97652 8.49762 2.92384 8.36501 2.92384H3.23501C3.07264 2.92318 2.91175 2.95467 2.76161 3.0165C2.61148 3.07833 2.47507 3.16927 2.36026 3.28409C2.24545 3.3989 2.1545 3.53531 2.09267 3.68544C2.03084 3.83558 1.99935 3.99647 2.00001 4.15884V7.82384C2.00133 8.15098 2.13187 8.46434 2.36319 8.69566C2.59451 8.92698 2.90787 9.05752 3.23501 9.05884H3.60001Z" fill="#2D373D"/>
<path d="M8.00001 11.1038H7.68001V7.97884C7.67919 7.8061 7.64382 7.63528 7.57598 7.47642C7.50815 7.31757 7.40921 7.17388 7.28501 7.05384C7.03296 6.81761 6.70046 6.68616 6.35501 6.68616C6.00956 6.68616 5.67706 6.81761 5.42501 7.05384C5.29536 7.17132 5.19086 7.31385 5.11781 7.47283C5.04476 7.63181 5.00469 7.80394 5.00001 7.97884V11.5188L4.81501 11.3088C4.69477 11.1764 4.55057 11.0678 4.39001 10.9888C4.2331 10.9142 4.06341 10.8701 3.89001 10.8588C3.72074 10.849 3.55114 10.8711 3.39001 10.9238C3.22274 10.9822 3.06826 11.0721 2.93501 11.1888C2.80078 11.3067 2.69045 11.4493 2.61001 11.6088C2.53167 11.7647 2.48575 11.9348 2.47501 12.1088C2.46667 12.2856 2.4933 12.4623 2.55336 12.6287C2.61342 12.7952 2.70573 12.9481 2.82501 13.0788L4.32501 14.7488C4.37176 14.8006 4.42883 14.8421 4.49255 14.8705C4.55627 14.8989 4.62524 14.9137 4.69501 14.9138C4.81893 14.9135 4.93831 14.8672 5.03001 14.7838C5.12793 14.6949 5.1866 14.5707 5.19316 14.4386C5.19972 14.3064 5.15364 14.1771 5.06501 14.0788L3.54001 12.4238C3.50924 12.3906 3.48545 12.3515 3.47001 12.3088C3.4624 12.2675 3.4624 12.2252 3.47001 12.1838C3.47119 12.1373 3.48138 12.0915 3.50001 12.0488C3.51228 12.0029 3.53446 11.9603 3.56501 11.9238C3.60009 11.8929 3.64084 11.8692 3.68501 11.8538C3.73139 11.8465 3.77863 11.8465 3.82501 11.8538C3.87338 11.8571 3.92078 11.869 3.96501 11.8888C4.00754 11.913 4.04629 11.9434 4.08001 11.9788L5.14001 13.1488C5.20846 13.2199 5.29642 13.2692 5.3928 13.2903C5.48919 13.3115 5.58968 13.3037 5.68164 13.2679C5.77359 13.2321 5.85289 13.1699 5.90954 13.0891C5.9662 13.0083 5.99767 12.9125 6.00001 12.8138V7.97884C6.00114 7.89971 6.03349 7.82423 6.09001 7.76884C6.15357 7.71087 6.23649 7.67873 6.32251 7.67873C6.40853 7.67873 6.49145 7.71087 6.55501 7.76884C6.58459 7.7953 6.60833 7.82764 6.62469 7.86381C6.64105 7.89997 6.64967 7.93915 6.65001 7.97884V11.6038C6.65001 11.7364 6.70269 11.8636 6.79646 11.9574C6.89023 12.0512 7.0174 12.1038 7.15001 12.1038H8.00001C8.52146 12.1001 9.02312 12.3033 9.39501 12.6688C9.57669 12.8436 9.72126 13.0533 9.82006 13.2853C9.91885 13.5172 9.96985 13.7667 9.97001 14.0188V14.4238C9.97001 14.5564 10.0227 14.6836 10.1165 14.7774C10.2102 14.8712 10.3374 14.9238 10.47 14.9238C10.6026 14.9238 10.7298 14.8712 10.8236 14.7774C10.9173 14.6836 10.97 14.5564 10.97 14.4238V14.0188C10.9675 13.634 10.8888 13.2534 10.7387 12.899C10.5885 12.5446 10.3698 12.2234 10.095 11.9538C9.53604 11.4054 8.78309 11.0999 8.00001 11.1038Z" fill="#2D373D"/>
<path d="M13.5 5.12384H13.265V4.88884C13.2657 4.63066 13.2152 4.3749 13.1165 4.13632C13.0179 3.89775 12.8729 3.68108 12.69 3.49884C12.3171 3.13836 11.8187 2.93686 11.3 2.93686C10.7813 2.93686 10.2829 3.13836 9.91001 3.49884C9.72713 3.68108 9.58216 3.89775 9.48347 4.13632C9.38478 4.3749 9.33432 4.63066 9.33501 4.88884V5.12384H9.10001C8.9674 5.12384 8.84022 5.17652 8.74646 5.27028C8.65269 5.36405 8.60001 5.49123 8.60001 5.62384V9.28884C8.60001 9.42145 8.65269 9.54862 8.74646 9.64239C8.84022 9.73616 8.9674 9.78884 9.10001 9.78884H13.5C13.6326 9.78884 13.7598 9.73616 13.8536 9.64239C13.9473 9.54862 14 9.42145 14 9.28884V5.62384C14 5.49123 13.9473 5.36405 13.8536 5.27028C13.7598 5.17652 13.6326 5.12384 13.5 5.12384ZM10.335 4.88884C10.3347 4.76265 10.3593 4.63765 10.4073 4.52096C10.4554 4.40428 10.5259 4.29822 10.615 4.20884C10.8005 4.03446 11.0454 3.93738 11.3 3.93738C11.5546 3.93738 11.7996 4.03446 11.985 4.20884C12.0741 4.29822 12.1447 4.40428 12.1927 4.52096C12.2407 4.63765 12.2653 4.76265 12.265 4.88884V5.12384H10.335V4.88884ZM13 8.78884H9.60001V6.12384H13V8.78884Z" fill="#2D373D"/>
<path d="M11.665 6.92384C11.5382 6.84244 11.3875 6.80653 11.2376 6.82197C11.0878 6.83741 10.9476 6.9033 10.84 7.00884C10.7212 7.13047 10.6548 7.29381 10.655 7.46384C10.6537 7.59385 10.6921 7.72117 10.765 7.82884C10.8347 7.93555 10.9362 8.01773 11.055 8.06384C11.1337 8.09853 11.219 8.11559 11.305 8.11384C11.3465 8.11877 11.3885 8.11877 11.43 8.11384C11.5576 8.08978 11.6746 8.02691 11.765 7.93384C11.8546 7.84351 11.9155 7.72869 11.94 7.60384C11.9665 7.47817 11.9543 7.34742 11.905 7.22884C11.8571 7.10557 11.7736 6.99938 11.665 6.92384Z" fill="#2D373D"/>
</svg>
