<svg width="16" height="17" viewBox="0 0 16 17" fill="none" xmlns="http://www.w3.org/2000/svg">
<path d="M11.4844 4.30155C10.8898 3.60678 10.5748 2.71566 10.6009 1.80155L8.37338 1.74805V10.9035C8.40438 13.7295 3.93938 13.661 4.29288 10.537C4.34863 10.2424 4.46744 9.9633 4.64115 9.71887C4.81486 9.47444 5.03937 9.27046 5.29929 9.12091C5.5592 8.97136 5.84839 8.87978 6.14701 8.85245C6.44563 8.82511 6.74663 8.86267 7.02938 8.96255V6.69005C6.41522 6.58888 5.78643 6.62212 5.18636 6.78748C4.5863 6.95285 4.02924 7.2464 3.5536 7.64789C3.07797 8.04937 2.69507 8.54925 2.43132 9.11304C2.16757 9.67683 2.02924 10.2911 2.02588 10.9135C2.25138 16.5915 10.3954 16.592 10.6214 10.9135C10.5644 10.7105 10.5964 6.92655 10.5884 6.60755C11.6021 7.23803 12.7803 7.55303 13.9734 7.51255V5.16505C13.5215 5.19911 13.0674 5.14004 12.6393 4.99151C12.2112 4.84298 11.8181 4.60815 11.4844 4.30155Z" fill="#2D373D"/>
</svg>
