<svg width="16" height="16" viewBox="0 0 16 16" fill="none" xmlns="http://www.w3.org/2000/svg">
<path d="M7.88825 2.35876C7.92873 2.34205 7.97237 2.33337 8.0166 2.33337C8.06083 2.33337 8.10447 2.34205 8.14495 2.35876C8.18542 2.37546 8.22172 2.39978 8.25192 2.42999L13.9152 8.02475C14.1117 8.21882 14.4282 8.2169 14.6223 8.02045C14.8164 7.824 14.8144 7.50743 14.618 7.31336L8.95905 1.72288L8.95788 1.72172C8.83434 1.59848 8.68767 1.50093 8.52647 1.4344C8.36477 1.36766 8.19149 1.33337 8.0166 1.33337C7.84172 1.33337 7.66843 1.36766 7.50673 1.4344C7.34555 1.50093 7.19888 1.59847 7.07535 1.72169L7.07415 1.72288L1.41521 7.31336C1.21876 7.50743 1.21683 7.824 1.4109 8.02045C1.60497 8.2169 1.92155 8.21882 2.118 8.02475L7.77911 2.43214L7.78127 2.42998C7.81148 2.39977 7.84779 2.37546 7.88825 2.35876Z" fill="#2D373D"/>
<path fill-rule="evenodd" clip-rule="evenodd" d="M3.93327 8.49229C3.93327 8.21615 3.70941 7.99229 3.43327 7.99229C3.15713 7.99229 2.93327 8.21615 2.93327 8.49229V10.4772C2.42201 10.7004 1.94404 11.0012 1.51796 11.373C1.30989 11.5545 1.28839 11.8704 1.46994 12.0785C1.65149 12.2865 1.96735 12.308 2.17542 12.1265C3.0027 11.4046 4.07126 11.0084 5.17709 11.0148L5.18002 11.0149C5.59086 11.0149 6.12877 11.1919 6.83922 11.4717C6.96749 11.5222 7.10035 11.5756 7.23716 11.6306C7.82184 11.8656 8.47875 12.1297 9.15834 12.3222C10.0042 12.5618 10.9292 12.705 11.8805 12.552C12.8416 12.3973 13.7946 11.9458 14.6981 11.0533C14.8945 10.8592 14.8965 10.5427 14.7024 10.3462C14.5083 10.1498 14.1917 10.1479 13.9953 10.3419C13.6968 10.6368 13.3978 10.8698 13.0999 11.0513V8.49229C13.0999 8.21615 12.8761 7.99229 12.5999 7.99229C12.3238 7.99229 12.0999 8.21615 12.0999 8.49229V11.4837C11.9733 11.5177 11.8472 11.5445 11.7217 11.5646C11.0772 11.6684 10.4229 11.6044 9.7666 11.4478V9.72717C9.7666 9.37425 9.62463 9.03702 9.37392 8.78935C9.12342 8.54187 8.78494 8.40392 8.43327 8.40392H7.59994C7.24826 8.40392 6.90979 8.54188 6.65928 8.78935C6.40857 9.03702 6.2666 9.37425 6.2666 9.72717V10.2047C5.89275 10.0916 5.52511 10.0151 5.18154 10.0149C4.75861 10.0125 4.33995 10.0584 3.93327 10.1499V8.49229ZM7.2666 10.5653C7.38752 10.6132 7.5089 10.662 7.63089 10.7109C8.00262 10.8602 8.37995 11.0118 8.7666 11.1478V9.72717C8.7666 9.64342 8.73298 9.56185 8.67113 9.50074C8.60907 9.43944 8.52362 9.40392 8.43327 9.40392H7.59994C7.50958 9.40392 7.42413 9.43944 7.36207 9.50074C7.30022 9.56185 7.2666 9.64342 7.2666 9.72717V10.5653Z" fill="#2D373D"/>
<path d="M11.1068 2.65047C11.1068 2.37433 11.3306 2.15047 11.6068 2.15047H13.3272C13.6033 2.15047 13.8272 2.37433 13.8272 2.65047V4.35006C13.8272 4.6262 13.6033 4.85006 13.3272 4.85006C13.051 4.85006 12.8272 4.6262 12.8272 4.35006V3.15047H11.6068C11.3306 3.15047 11.1068 2.92661 11.1068 2.65047Z" fill="#2D373D"/>
<path d="M5.30534 13.073C4.19951 13.0665 3.13096 13.4628 2.30367 14.1846C2.0956 14.3662 1.77975 14.3447 1.5982 14.1366C1.41664 13.9285 1.43814 13.6127 1.64621 13.4311C2.6579 12.5484 3.96214 12.0654 5.3098 12.073C5.94025 12.0734 6.65174 12.3307 7.33397 12.5994C7.47498 12.655 7.6166 12.7118 7.75903 12.769C8.34057 13.0026 8.93585 13.2416 9.55912 13.4182C10.3278 13.6359 11.0956 13.7442 11.8499 13.6228C12.5946 13.503 13.3603 13.154 14.1235 12.4001C14.32 12.206 14.6366 12.2079 14.8306 12.4044C15.0247 12.6008 15.0228 12.9174 14.8263 13.1114C13.9229 14.004 12.9698 14.4555 12.0088 14.6101C11.0574 14.7632 10.1325 14.6199 9.2866 14.3803C8.60701 14.1878 7.95013 13.9238 7.36545 13.6888C7.22864 13.6338 7.09575 13.5804 6.96747 13.5298C6.25703 13.25 5.71911 13.073 5.30828 13.073H5.30534Z" fill="#2D373D"/>
</svg>
