<svg width="16" height="17" viewBox="0 0 16 17" fill="none" xmlns="http://www.w3.org/2000/svg">
<path d="M9.5959 4.79952C9.20972 4.41535 9.27515 3.83795 9.62814 3.49017C9.79354 3.3272 10.0013 3.24214 10.2247 3.26029C10.4484 3.27846 10.7631 3.40692 11.1191 3.81868C11.2129 3.92711 11.3487 3.99009 11.492 3.99164C11.6353 3.99318 11.7724 3.93315 11.8685 3.82677C12.2328 3.42325 12.5522 3.29821 12.7802 3.2826C13.0079 3.26701 13.2162 3.35498 13.3796 3.51748C13.7275 3.8635 13.7831 4.42386 13.4092 4.78945L11.1611 6.83241C10.9567 7.01813 10.9416 7.33435 11.1273 7.53871C11.3131 7.74307 11.6293 7.75819 11.8336 7.57247L14.0877 5.52403C14.0914 5.52072 14.095 5.51737 14.0985 5.51396C14.9631 4.68044 14.7458 3.46589 14.0848 2.80845C13.7429 2.46849 13.2614 2.24731 12.7119 2.28494C12.3002 2.31312 11.8907 2.48335 11.5048 2.79564C11.1248 2.47497 10.718 2.29707 10.3057 2.26358C9.75549 2.21888 9.27097 2.43824 8.9263 2.77783C8.25913 3.43517 8.03314 4.65545 8.89065 5.50847C9.08643 5.70322 9.40301 5.70239 9.59776 5.50662C9.79251 5.31085 9.79168 4.99427 9.5959 4.79952Z" fill="#2D373D"/>
<path d="M4.8125 6.03385L4.59504 5.22243L3.22496 5.58948L3.44246 6.40103L2.47652 6.6598L2.3894 6.33474L2.09584 6.41339L1.96547 5.9269L1.96257 5.92767C1.69584 5.99913 1.42166 5.84083 1.35017 5.5741C1.27869 5.30737 1.43698 5.03322 1.70371 4.96176L1.7066 4.96098L1.57634 4.47492L1.8699 4.39628L1.7828 4.07128L2.74874 3.8125L2.9661 4.62356L4.33618 4.25652L4.11878 3.44533L5.08472 3.18655L5.17237 3.51362L5.46373 3.43557L5.59347 3.91969L5.59869 3.91829C5.86542 3.84683 6.1396 4.00513 6.21109 4.27186C6.28257 4.53859 6.12429 4.81275 5.85755 4.88421L5.85233 4.8856L5.98323 5.37404L5.69188 5.45209L5.77844 5.77508L4.8125 6.03385Z" fill="#2D373D"/>
<path fill-rule="evenodd" clip-rule="evenodd" d="M6.07464 7.43789C5.80179 7.00937 5.33427 6.66667 4.70658 6.66667C3.88209 6.66667 3.03397 7.36881 3.18214 8.38549C3.2838 9.08302 3.53251 9.75583 3.9145 10.3538C4.30567 10.9725 4.82579 11.496 5.43641 11.8903V14.0052H1.83313C1.55699 14.0052 1.33313 14.2291 1.33313 14.5052C1.33313 14.7814 1.55699 15.0052 1.83313 15.0052H5.43641V15.0094H10.4008C10.6815 15.3424 11.0966 15.586 11.6259 15.586C12.0832 15.586 12.547 15.3703 12.8447 15.0052H14.1644C14.4405 15.0052 14.6644 14.7814 14.6644 14.5052C14.6644 14.2291 14.4405 14.0052 14.1644 14.0052H13.165C13.1624 13.9604 13.1578 13.9149 13.1511 13.8688C12.997 12.7983 12.501 11.7987 11.7273 11.025C11.1409 10.4386 10.4249 10.0118 9.64654 9.77232C9.88382 9.49577 10.0483 9.16361 10.1228 8.80039C10.2089 8.38034 10.1666 7.94738 10.0047 7.55617C9.83905 7.1503 9.55592 6.81745 9.20776 6.58535C8.85958 6.35323 8.4486 6.22135 8.01302 6.22135C7.44858 6.22135 6.89819 6.44335 6.49286 6.85441C6.31867 7.02618 6.17842 7.22399 6.07464 7.43789ZM8.01302 7.22135C7.70742 7.22135 7.41335 7.34244 7.2 7.56155C6.98089 7.7749 6.85981 8.06897 6.85981 8.37457C6.85981 8.60522 6.929 8.82433 7.05585 9.01461C7.18271 9.20489 7.36146 9.35481 7.56903 9.4413C7.78019 9.52787 8.01226 9.54997 8.23596 9.50482C8.45967 9.45966 8.66499 9.34928 8.82604 9.18759C8.98749 9.02614 9.09705 8.82433 9.14318 8.59945C9.18931 8.37457 9.16624 8.14393 9.07975 7.93635C8.99326 7.723 8.84334 7.54426 8.65306 7.4174C8.46278 7.29055 8.24367 7.22135 8.01302 7.22135ZM4.17169 8.24127C4.25319 8.80053 4.45279 9.33952 4.75848 9.81742C5.16561 10.4622 5.7475 10.9781 6.43641 11.3051V14.0094H9.89607V12.2795C10.2536 12.5505 10.5419 12.8965 10.7437 13.2944C10.803 13.413 10.8538 13.5346 10.8961 13.6586C10.9357 13.7749 10.9677 13.8932 10.992 14.0132C11.0553 14.3253 11.3074 14.586 11.6259 14.586C11.9443 14.586 12.2067 14.3265 12.1613 14.0113C12.0378 13.1533 11.6403 12.3522 11.0201 11.7321C10.6219 11.3339 10.1491 11.0275 9.63455 10.8264C9.39626 10.7333 9.14901 10.6629 8.89607 10.6163C8.65696 10.5723 8.41276 10.5497 8.16624 10.5497C7.39935 10.5497 6.66706 10.2441 6.12504 9.70786C5.72444 9.30295 5.45255 8.79185 5.34064 8.23946C5.27741 7.92735 5.02504 7.66667 4.70658 7.66667C4.38813 7.66667 4.12576 7.92615 4.17169 8.24127Z" fill="#2D373D"/>
</svg>
