<svg width="32" height="33" viewBox="0 0 32 33" fill="none" xmlns="http://www.w3.org/2000/svg">
<path fill-rule="evenodd" clip-rule="evenodd" d="M16.7182 5.39762C17.3179 4.79787 18.1314 4.46094 18.9795 4.46094C19.8277 4.46094 20.6411 4.79787 21.2409 5.39762C21.8406 5.99737 22.1776 6.8108 22.1776 7.65898V10.9805C22.1776 11.1731 22.222 11.2338 22.2316 11.2469C22.2488 11.2704 22.2981 11.323 22.4452 11.3869C22.5987 11.4535 22.8002 11.508 23.0726 11.5651C23.1439 11.5801 23.2276 11.5965 23.3177 11.6143C23.5194 11.6539 23.7528 11.6999 23.9497 11.7491C25.1627 12.051 26.233 12.7654 26.977 13.7698C27.7212 14.7745 28.0927 16.0067 28.0279 17.2552L28.0275 17.2621L27.7344 22.2443C27.7336 22.2581 27.7325 22.2718 27.7311 22.2856C27.5605 23.9839 26.7629 25.5577 25.4942 26.6996C24.2259 27.841 22.578 28.4689 20.8718 28.4609H16.0781C15.0765 28.4609 14.6169 28.3279 12.3729 27.6786C11.8883 27.5384 11.3204 27.3741 10.646 27.1819L10.6398 27.1801C10.5591 27.1566 10.4778 27.135 10.3961 27.1154V27.4413C10.3961 27.9936 9.94836 28.4413 9.39608 28.4413H5C4.44772 28.4413 4 27.9936 4 27.4413V14.2531C4 13.7008 4.44772 13.2531 5 13.2531H9.39608C9.94836 13.2531 10.3961 13.7008 10.3961 14.2531V15.4517C11.6965 15.313 12.6454 14.8875 13.3503 14.3416C14.2267 13.663 14.8006 12.7401 15.1726 11.7609C15.8764 9.90877 15.7976 8.04593 15.7833 7.70836C15.7822 7.68325 15.7815 7.66658 15.7815 7.65898C15.7815 6.8108 16.1184 5.99737 16.7182 5.39762ZM8.39608 25.9756V15.2531H6V26.4413H8.39608V25.9756C8.39608 25.9753 8.39608 25.9759 8.39608 25.9756Z" fill="#2D373D"/>
</svg>
