<svg width="32" height="33" viewBox="0 0 32 33" fill="none" xmlns="http://www.w3.org/2000/svg">
<path d="M22.5998 21.0614L20.5998 20.2614C20.4998 20.2614 20.3998 20.0614 20.3998 19.9614C20.3998 19.8614 20.4998 19.7614 20.4998 19.7614C20.4998 19.7614 20.5998 19.6614 20.6998 19.6614H22.6998C23.2998 19.6614 23.6998 19.2614 23.6998 18.6614C23.6998 18.0614 23.2998 17.6614 22.6998 17.6614H21.9998C21.8998 17.2614 21.4998 16.9614 21.0998 16.9614C20.5998 16.9614 20.1998 17.2614 20.0998 17.7614C19.5998 17.8614 19.2998 18.0614 18.9998 18.3614C18.5998 18.7614 18.2998 19.3614 18.2998 19.9614C18.2998 20.9614 18.8998 21.8614 19.7998 22.1614L21.7998 22.9614C21.9998 23.0614 22.0998 23.1614 21.9998 23.3614C21.8998 23.4614 21.7998 23.5614 21.6998 23.5614H19.6998C19.0998 23.5614 18.6998 23.9614 18.6998 24.5614C18.6998 25.1614 19.0998 25.5614 19.6998 25.5614H20.1998C20.2998 25.9614 20.6998 26.2614 21.0998 26.2614C21.5998 26.2614 21.9998 25.9614 22.0998 25.4614C22.7998 25.3614 23.4998 24.7614 23.8998 24.0614C24.1998 23.4614 24.0998 22.8614 23.8998 22.2614C23.5998 21.7614 23.1998 21.2614 22.5998 21.0614Z" fill="#2D373D"/>
<path d="M21.1002 14.6614C17.3002 14.6614 14.2002 17.7614 14.2002 21.5614C14.2002 25.3614 17.3002 28.4614 21.1002 28.4614C24.9002 28.4614 28.0002 25.3614 28.0002 21.5614C28.0002 17.7614 24.9002 14.6614 21.1002 14.6614ZM21.1002 26.4614C18.4002 26.4614 16.2002 24.2614 16.2002 21.5614C16.2002 18.8614 18.4002 16.6614 21.1002 16.6614C23.8002 16.6614 26.0002 18.8614 26.0002 21.5614C26.0002 24.2614 23.8002 26.4614 21.1002 26.4614Z" fill="#2D373D"/>
<path d="M12.1999 23.4613H6.2999C6.1999 23.4613 6.0999 23.4613 5.9999 23.3613C5.9999 23.3613 5.8999 23.2613 5.8999 23.0613V6.86133C5.8999 6.56133 6.0999 6.36133 6.3999 6.36133H16.7999C16.9999 6.36133 17.0999 6.46133 17.1999 6.56133L19.9999 9.36133C20.0999 9.46133 20.0999 9.56133 20.0999 9.66133V12.7613C20.0999 13.3613 20.4999 13.7613 21.0999 13.7613C21.6999 13.7613 22.0999 13.3613 22.0999 12.7613V9.66133C22.0999 8.96133 21.8999 8.36133 21.4999 7.86133L18.6999 5.06133C18.1999 4.66133 17.5999 4.36133 16.8999 4.36133H6.3999C4.9999 4.36133 3.8999 5.46133 3.8999 6.86133V23.0613C3.8999 23.7613 4.2999 24.4613 4.6999 24.8613C5.0999 25.2613 5.6999 25.5613 6.3999 25.5613C6.3999 25.5613 6.3999 25.5613 6.3999 25.4613H12.1999C12.7999 25.4613 13.1999 25.0613 13.1999 24.4613C13.1999 23.8613 12.7999 23.4613 12.1999 23.4613Z" fill="#2D373D"/>
</svg>
