<svg width="16" height="17" viewBox="0 0 16 17" fill="none" xmlns="http://www.w3.org/2000/svg">
<path d="M12.5499 8.81169C12.2999 8.81169 12.0499 9.01169 11.9999 9.26169C11.8999 10.0617 11.4999 12.1117 10.2499 13.3117C9.69985 13.0617 9.19985 12.5617 8.89985 12.0617C9.44985 11.8117 9.79985 11.4117 9.79985 10.8617C9.79985 10.1117 9.04985 9.51169 8.04985 9.51169C7.04985 9.51169 6.29985 10.1117 6.29985 10.8617C6.29985 11.4117 6.69985 11.8617 7.24985 12.0617C6.89985 12.5117 6.39985 13.0617 5.84985 13.2617C4.59985 12.0617 4.19985 10.0117 4.09985 9.21169C4.09985 8.91169 3.79985 8.71169 3.54985 8.76169C3.24985 8.76169 3.04985 9.06169 3.09985 9.31169C3.59985 12.9617 5.44985 15.1117 8.04985 15.1117C8.94985 15.1117 9.74985 14.8617 10.4499 14.3617C10.6498 14.3617 10.8498 14.2117 10.8998 14.0117C11.9998 13.0117 12.7499 11.4117 12.9999 9.31169C12.9999 9.11169 12.7999 8.86169 12.5499 8.81169ZM8.04985 10.6117C8.54985 10.6117 8.79985 10.8117 8.79985 10.9617C8.79985 11.0617 8.59985 11.2117 8.24985 11.2617C8.19985 11.2617 8.14985 11.2617 8.09985 11.2617C8.04985 11.2617 7.99985 11.2617 7.89985 11.3117C7.49985 11.2617 7.29985 11.0617 7.29985 10.9617C7.29985 10.8617 7.54985 10.6117 8.04985 10.6117ZM6.89985 14.0117C7.39985 13.6617 7.84985 13.1617 8.14985 12.7617C8.44985 13.1117 8.79985 13.6117 9.29985 13.9617C8.94985 14.1117 8.49985 14.2117 8.04985 14.2117C7.59985 14.2117 7.24985 14.1617 6.89985 14.0117Z" fill="#2D373D"/>
<path d="M14.2498 3.66172C13.8498 2.86172 13.0998 2.26172 12.1998 2.06172C11.9498 2.01172 11.6498 2.01172 11.3998 2.06172C11.0498 2.11172 10.7998 2.31172 10.5498 2.56172C9.79984 2.01172 8.89984 1.76172 7.94984 1.76172C7.04984 1.81172 6.14984 2.11172 5.49984 2.61172C5.29984 2.31172 4.94984 2.06172 4.54984 2.01172C4.29984 1.96172 3.99984 1.96172 3.74984 2.01172C2.84984 2.21172 2.09984 2.81172 1.69984 3.56172C1.09984 4.51172 1.24984 5.86172 2.14984 7.41172C2.39984 7.86172 2.84984 8.11172 3.29984 8.11172C3.49984 8.11172 3.74984 8.06172 3.94984 7.96172C4.19984 7.81172 4.39984 7.61172 4.49984 7.41172C5.04984 6.41172 5.49984 5.31172 5.84984 4.16172C5.89984 4.01172 5.89984 3.81172 5.84984 3.66172C6.44984 3.11172 7.19984 2.76172 7.99984 2.76172C8.79984 2.76172 9.49984 3.01172 10.0998 3.46172C10.0498 3.66172 10.0998 3.91172 10.1498 4.16172C10.4998 5.26172 10.9498 6.36172 11.4998 7.41172C11.6498 7.66172 11.7998 7.81172 12.0498 7.96172C12.2498 8.06172 12.4998 8.11172 12.6998 8.11172C12.8498 8.11172 12.9498 8.11172 12.9998 8.16172C13.3498 8.06172 13.6498 7.81172 13.7998 7.51172C14.6998 5.96172 14.8498 4.61172 14.2498 3.66172ZM4.84984 3.91172C4.54984 4.96172 4.14984 5.96172 3.59984 6.96172C3.54984 7.01172 3.49984 7.06172 3.44984 7.11172C3.29984 7.16172 3.09984 7.11172 2.99984 6.96172C2.59984 6.26172 2.04984 4.96172 2.54984 4.06172C2.84984 3.51172 3.39984 3.11172 3.99984 2.96172C4.04984 2.96172 4.09984 2.96172 4.14984 2.96172C4.19984 2.96172 4.24984 2.96172 4.29984 3.01172C4.69984 3.11172 4.94984 3.51172 4.84984 3.91172ZM12.9998 6.91172C12.8998 7.11172 12.6998 7.16172 12.5498 7.06172C12.4998 7.01172 12.4498 6.96172 12.3998 6.91172C11.8998 5.96172 11.4498 4.91172 11.1498 3.86172C11.0998 3.71172 11.1498 3.51172 11.2498 3.31172C11.3498 3.11172 11.4998 3.01172 11.6998 2.96172C11.7998 2.96172 11.9498 2.96172 12.0498 2.96172C12.6498 3.11172 13.1498 3.51172 13.4498 4.06172C13.9998 4.91172 13.3998 6.21172 12.9998 6.91172Z" fill="#2D373D"/>
<path d="M5.99985 8.06167C6.04985 8.11167 6.14985 8.11167 6.19985 8.11167C6.59985 8.11167 6.89985 7.81167 6.89985 7.41167C6.89985 7.31167 6.89985 7.26167 6.84985 7.21167C6.79985 7.01167 6.59985 6.81167 6.39985 6.76167C6.34985 6.71167 6.24985 6.71167 6.19985 6.71167C6.14985 6.71167 6.04985 6.71167 5.99985 6.76167C5.79985 6.81167 5.59985 7.01167 5.54985 7.21167C5.49985 7.26167 5.49985 7.36167 5.49985 7.41167C5.49985 7.46167 5.49985 7.56167 5.54985 7.61167C5.59985 7.86167 5.74985 8.01167 5.99985 8.06167Z" fill="#2D373D"/>
<path d="M9.69983 8.06167C9.74983 8.11167 9.84983 8.11167 9.89983 8.11167C10.2998 8.11167 10.5998 7.81167 10.5998 7.41167C10.5998 7.31167 10.5998 7.26167 10.5498 7.21167C10.4998 7.01167 10.2998 6.81167 10.0998 6.76167C10.0498 6.71167 9.94983 6.71167 9.89983 6.71167C9.84983 6.71167 9.74983 6.71167 9.69983 6.76167C9.49983 6.81167 9.29983 7.01167 9.24983 7.21167C9.19983 7.26167 9.19983 7.36167 9.19983 7.41167C9.19983 7.46167 9.19983 7.56167 9.24983 7.61167C9.29983 7.86167 9.44983 8.01167 9.69983 8.06167Z" fill="#2D373D"/>
</svg>
