<svg width="64" height="64" viewBox="0 0 64 64" fill="none" xmlns="http://www.w3.org/2000/svg">
<path d="M7.3335 14C6.22893 14 5.3335 14.8954 5.3335 16C5.3335 17.1046 6.22893 18 7.3335 18H7.40016C8.50473 18 9.40016 17.1046 9.40016 16C9.40016 14.8954 8.50473 14 7.40016 14H7.3335Z" fill="#2D373D"/>
<path d="M7.3335 30.0364C6.22893 30.0364 5.3335 30.9318 5.3335 32.0364C5.3335 33.1409 6.22893 34.0364 7.3335 34.0364H7.40016C8.50473 34.0364 9.40016 33.1409 9.40016 32.0364C9.40016 30.9318 8.50473 30.0364 7.40016 30.0364H7.3335Z" fill="#2D373D"/>
<path d="M7.3335 46C6.22893 46 5.3335 46.8954 5.3335 48C5.3335 49.1046 6.22893 50 7.3335 50H7.40016C8.50473 50 9.40016 49.1046 9.40016 48C9.40016 46.8954 8.50473 46 7.40016 46H7.3335Z" fill="#2D373D"/>
<path d="M16.6668 14C15.5623 14 14.6668 14.8954 14.6668 16C14.6668 17.1046 15.5623 18 16.6668 18H56.6668C57.7714 18 58.6668 17.1046 58.6668 16C58.6668 14.8954 57.7714 14 56.6668 14H16.6668Z" fill="#2D373D"/>
<path d="M16.6668 30.0364C15.5623 30.0364 14.6668 30.9318 14.6668 32.0364C14.6668 33.1409 15.5623 34.0364 16.6668 34.0364H56.6668C57.7714 34.0364 58.6668 33.1409 58.6668 32.0364C58.6668 30.9318 57.7714 30.0364 56.6668 30.0364H16.6668Z" fill="#2D373D"/>
<path d="M16.6668 46C15.5623 46 14.6668 46.8954 14.6668 48C14.6668 49.1046 15.5623 50 16.6668 50H56.6668C57.7714 50 58.6668 49.1046 58.6668 48C58.6668 46.8954 57.7714 46 56.6668 46H16.6668Z" fill="#2D373D"/>
</svg>
