<svg width="32" height="33" viewBox="0 0 32 33" fill="none" xmlns="http://www.w3.org/2000/svg">
<path d="M16.8097 22.6238H13.9697C13.7411 21.7832 13.2443 21.0402 12.5548 20.5078C11.8653 19.9753 11.0208 19.6825 10.1497 19.6738H5.96973V19.2038C5.96973 18.9386 5.86437 18.6843 5.67683 18.4967C5.4893 18.3092 5.23494 18.2038 4.96973 18.2038C4.70451 18.2038 4.45016 18.3092 4.26262 18.4967C4.07508 18.6843 3.96973 18.9386 3.96973 19.2038V28.0538C3.96973 28.319 4.07508 28.5734 4.26262 28.7609C4.45016 28.9485 4.70451 29.0538 4.96973 29.0538C5.23494 29.0538 5.4893 28.9485 5.67683 28.7609C5.86437 28.5734 5.96973 28.319 5.96973 28.0538V27.5738H19.7597C20.0249 27.5738 20.2793 27.4685 20.4668 27.2809C20.6544 27.0934 20.7597 26.839 20.7597 26.5738C20.7468 25.5303 20.3264 24.5331 19.5885 23.7951C18.8505 23.0571 17.8533 22.6368 16.8097 22.6238ZM5.96973 25.5738V21.6738H10.1697C10.6861 21.6786 11.1806 21.8828 11.5497 22.2438C11.655 22.3613 11.7487 22.4885 11.8297 22.6238H10.1697C9.90451 22.6238 9.65016 22.7292 9.46262 22.9167C9.27508 23.1043 9.16973 23.3586 9.16973 23.6238C9.16973 23.889 9.27508 24.1434 9.46262 24.3309C9.65016 24.5185 9.90451 24.6238 10.1697 24.6238H16.8097C17.3275 24.6312 17.8221 24.8391 18.1897 25.2038C18.3002 25.3157 18.3975 25.4398 18.4797 25.5738H5.96973Z" fill="#2D373D"/>
<path d="M21.2897 17.0438C21.5879 16.7457 21.8244 16.3919 21.9857 16.0024C22.1471 15.6129 22.2301 15.1954 22.2301 14.7738C22.2301 14.3522 22.1471 13.9348 21.9857 13.5453C21.8244 13.1558 21.5879 12.8019 21.2897 12.5038C20.6779 11.9206 19.865 11.5953 19.0197 11.5953C18.1744 11.5953 17.3616 11.9206 16.7497 12.5038C16.1477 13.1059 15.8095 13.9224 15.8095 14.7738C15.8095 15.6252 16.1477 16.4418 16.7497 17.0438C17.3518 17.6459 18.1683 17.9841 19.0197 17.9841C19.8711 17.9841 20.6877 17.6459 21.2897 17.0438ZM18.1597 15.6338C17.9918 15.4641 17.8778 15.2485 17.8321 15.0141C17.7864 14.7797 17.8111 14.5371 17.903 14.3167C17.995 14.0964 18.1501 13.9081 18.3488 13.7757C18.5475 13.6433 18.7809 13.5727 19.0197 13.5727C19.2585 13.5727 19.492 13.6433 19.6907 13.7757C19.8894 13.9081 20.0445 14.0964 20.1364 14.3167C20.2284 14.5371 20.2531 14.7797 20.2074 15.0141C20.1617 15.2485 20.0477 15.4641 19.8797 15.6338C19.6475 15.854 19.3397 15.9767 19.0197 15.9767C18.6997 15.9767 18.3919 15.854 18.1597 15.6338Z" fill="#2D373D"/>
<path d="M27.9697 17.8238C27.8574 17.2384 27.5379 16.713 27.0697 16.3438L25.9197 15.4438C25.9698 14.9986 25.9698 14.5491 25.9197 14.1038L27.0697 13.2038C27.5399 12.8365 27.8599 12.3103 27.9697 11.7238C28.0811 11.1375 27.9782 10.5307 27.6797 10.0138L27.4897 9.68383C27.1883 9.16704 26.7136 8.77376 26.1497 8.57383C25.5921 8.36437 24.9774 8.36437 24.4197 8.57383L22.9697 9.17383C22.6153 8.92057 22.2368 8.70285 21.8397 8.52383L21.6697 7.05383C21.5844 6.46115 21.29 5.9185 20.8397 5.52383C20.3891 5.13614 19.8142 4.92321 19.2197 4.92383H18.8197C18.2238 4.92509 17.6485 5.14174 17.1997 5.53383C16.7535 5.92346 16.4595 6.45833 16.3697 7.04383L16.1597 8.51383C15.7604 8.69247 15.3815 8.91375 15.0297 9.17383L13.6497 8.62383C13.0921 8.41437 12.4774 8.41437 11.9197 8.62383C11.3583 8.82275 10.8842 9.21192 10.5797 9.72383L10.3897 10.0638C10.0921 10.581 9.98924 11.1875 10.0997 11.7738C10.2095 12.3603 10.5295 12.8865 10.9997 13.2538L12.1497 14.1538C12.0997 14.5991 12.0997 15.0486 12.1497 15.4938L10.9997 16.3938C10.8457 16.5713 10.7592 16.7974 10.7553 17.0324C10.7513 17.2673 10.8303 17.4962 10.9782 17.6787C11.1262 17.8613 11.3337 17.9859 11.5644 18.0307C11.7951 18.0756 12.0342 18.0377 12.2397 17.9238L13.8397 16.6638C13.9895 16.549 14.1037 16.3942 14.1691 16.2173C14.2346 16.0403 14.2487 15.8484 14.2097 15.6638C14.0899 15.0732 14.0899 14.4645 14.2097 13.8738C14.2487 13.6892 14.2346 13.4974 14.1691 13.3204C14.1037 13.1435 13.9895 12.9886 13.8397 12.8738L12.2397 11.6138C12.1455 11.5431 12.0813 11.4396 12.0597 11.3238C12.0381 11.2134 12.0595 11.0989 12.1197 11.0038L12.3197 10.6638C12.3719 10.5612 12.4613 10.4825 12.5697 10.4438C12.6803 10.4086 12.7991 10.4086 12.9097 10.4438L14.8197 11.2138C14.9864 11.2772 15.167 11.2949 15.3429 11.265C15.5187 11.2351 15.6833 11.1588 15.8197 11.0438C16.2766 10.6457 16.8064 10.34 17.3797 10.1438C17.5524 10.0836 17.7052 9.97713 17.8215 9.83608C17.9379 9.69503 18.0134 9.52477 18.0397 9.34383L18.3297 7.34383C18.35 7.23231 18.4062 7.13047 18.4897 7.05383C18.5785 6.96906 18.697 6.9224 18.8197 6.92383H19.2197C19.3342 6.92473 19.4445 6.9674 19.5297 7.04383C19.6132 7.12047 19.6694 7.22231 19.6897 7.33383L19.9797 9.33383C20.0061 9.51477 20.0815 9.68503 20.1979 9.82608C20.3143 9.96713 20.4671 10.0736 20.6397 10.1338C21.2113 10.334 21.7403 10.6393 22.1997 11.0338C22.3361 11.1488 22.5007 11.2251 22.6766 11.255C22.8524 11.2849 23.033 11.2672 23.1997 11.2038L25.1097 10.4338C25.2169 10.3987 25.3325 10.3987 25.4397 10.4338C25.549 10.4752 25.6408 10.5529 25.6997 10.6538L25.8897 10.9938C25.9485 11.0915 25.9698 11.2073 25.9495 11.3195C25.9293 11.4318 25.8689 11.5328 25.7797 11.6038L24.1997 12.9238C24.0518 13.0398 23.9396 13.1952 23.8759 13.372C23.8122 13.5489 23.7997 13.7402 23.8397 13.9238C23.9599 14.5178 23.9599 15.1298 23.8397 15.7238C23.7997 15.9075 23.8122 16.0987 23.8759 16.2756C23.9396 16.4525 24.0518 16.6078 24.1997 16.7238L25.8097 17.9238C25.8988 17.9931 25.9593 18.0928 25.9797 18.2038C25.9983 18.3163 25.9808 18.4319 25.9297 18.5338L25.7297 18.8738C25.6703 18.9721 25.5783 19.0465 25.4697 19.0838C25.3633 19.1237 25.2461 19.1237 25.1397 19.0838L23.2197 18.3138C23.053 18.2504 22.8724 18.2327 22.6966 18.2626C22.5207 18.2925 22.3561 18.3689 22.2197 18.4838C21.7629 18.882 21.2331 19.1877 20.6597 19.3838C20.4871 19.4441 20.3343 19.5505 20.2179 19.6916C20.1015 19.8326 20.0261 20.0029 19.9997 20.1838L19.8397 21.2838C19.8026 21.5464 19.8713 21.8129 20.0307 22.0248C20.1901 22.2367 20.4272 22.3767 20.6897 22.4138H20.8297C21.0724 22.4162 21.3076 22.3303 21.4916 22.1721C21.6756 22.0138 21.7958 21.7941 21.8297 21.5538L21.9097 21.0338C22.2848 20.8509 22.64 20.6297 22.9697 20.3738L24.3497 20.9338C24.9082 21.1388 25.5213 21.1388 26.0797 20.9338C26.6453 20.7722 27.1347 20.4141 27.4597 19.9238L27.6597 19.5838C27.9829 19.0578 28.0937 18.4286 27.9697 17.8238Z" fill="#2D373D"/>
</svg>
