<svg width="24" height="24" viewBox="0 0 24 24" fill="none" xmlns="http://www.w3.org/2000/svg">
<path fill-rule="evenodd" clip-rule="evenodd" d="M7.39849 16.5996C7.20323 16.4044 6.88665 16.4044 6.69138 16.5996C6.49612 16.7949 6.49612 17.1115 6.69138 17.3067C6.88665 17.502 7.20323 17.502 7.39849 17.3067C7.59375 17.1115 7.59375 16.7949 7.39849 16.5996ZM5.63072 15.539C6.41177 14.7579 7.6781 14.7579 8.45915 15.539C9.2402 16.32 9.2402 17.5863 8.45915 18.3674C7.6781 19.1484 6.41177 19.1484 5.63072 18.3674C4.84968 17.5863 4.84968 16.32 5.63072 15.539Z" fill="#2D373D"/>
<path fill-rule="evenodd" clip-rule="evenodd" d="M10.9434 11.5096C10.527 11.9238 9.90717 12.0569 9.35746 11.8502C7.63933 11.204 5.90907 11.3898 4.80631 12.5444C3.06994 14.3626 3.06554 17.3599 4.79515 19.171C6.49057 20.9463 9.63807 20.9459 11.3342 19.1699C12.5061 17.9428 12.7134 16.3307 12.1024 14.5493C11.9161 14.0061 12.0562 13.4042 12.4634 12.9992L13.917 11.5532C14.3861 11.0865 15.1049 10.9828 15.6863 11.2961L15.6882 11.297L15.6989 11.3023C15.7181 11.3115 15.7537 11.3279 15.802 11.3472C15.9029 11.3873 16.0354 11.4301 16.1742 11.4531C16.4643 11.5012 16.5724 11.4422 16.6426 11.3724C16.723 11.2924 16.7909 11.1541 16.7489 10.8303C16.7293 10.6788 16.6893 10.5355 16.6517 10.4276C16.6336 10.3757 16.618 10.3371 16.6089 10.316C16.6058 10.3087 16.6036 10.3037 16.6025 10.3012C16.3266 9.72638 16.4442 9.03919 16.8969 8.58879L17.115 8.37189C17.5666 7.92259 18.2523 7.80793 18.8251 8.08453C18.8277 8.08572 18.8334 8.08829 18.8419 8.09195C18.8643 8.10159 18.9045 8.11806 18.9583 8.13697C19.07 8.17628 19.2171 8.21788 19.3713 8.23845C19.7047 8.28292 19.8254 8.2099 19.8879 8.14462C19.9724 8.05645 20.026 7.93151 19.9804 7.65064C19.9583 7.5147 19.9171 7.38614 19.8788 7.28915C19.8605 7.24269 19.8449 7.20872 19.8363 7.19088C19.8338 7.18569 19.832 7.18202 19.831 7.17998C19.5389 6.63565 19.6104 5.96706 20.0124 5.49653C20.0378 5.46685 20.0641 5.43835 20.0914 5.41104L20.251 5.24934C20.3441 5.15504 20.4672 4.95505 20.4906 4.74714C20.5006 4.65825 20.4942 4.55889 20.4514 4.4409C20.4079 4.32095 20.3108 4.13848 20.0842 3.9085C19.8625 3.68349 19.6855 3.58853 19.5697 3.54619C19.4551 3.5043 19.3547 3.49711 19.2606 3.50784C19.039 3.53314 18.8295 3.66473 18.7413 3.75241L10.9434 11.5096ZM21.4947 7.748C21.4704 7.04713 21.1528 6.47093 21.1528 6.47093L21.3185 6.30315C21.873 5.7414 22.5865 4.31103 21.1527 2.85575C19.7189 1.40047 18.244 2.13132 17.6834 2.68898L9.88548 10.4462C7.81856 9.66887 5.37743 9.77458 3.72154 11.5085C1.43491 13.9028 1.42375 17.8127 3.71038 20.207C5.99701 22.6013 10.1323 22.6002 12.419 20.2059C14.0748 18.472 14.2636 16.2269 13.5212 14.0626L14.9749 12.6166C14.9749 12.6166 16.6102 13.5204 17.7004 12.4358C18.1142 12.0242 18.2506 11.5241 18.2604 11.0619C18.2725 10.4994 18.0972 9.99309 18.0068 9.77111C17.9758 9.69492 17.9548 9.65222 17.9548 9.65222L18.1729 9.43531C18.1729 9.43531 18.2151 9.45618 18.2903 9.48719C18.5119 9.57847 19.0201 9.75763 19.582 9.75109C20.0529 9.7456 20.5617 9.60968 20.9711 9.18226C21.3967 8.73797 21.5109 8.21528 21.4947 7.748Z" fill="#2D373D"/>
</svg>
