<svg width="64" height="65" viewBox="0 0 64 65" fill="none" xmlns="http://www.w3.org/2000/svg">
<path d="M58.2002 30.3242L48.0002 12.1242C47.2002 10.3242 45.4002 9.32422 43.4002 9.32422H20.8002C18.8002 9.32422 17.0002 10.3242 16.2002 12.1242L5.8002 30.3242C5.0002 31.9242 5.0002 33.7242 5.8002 35.3242L16.2002 53.5242C17.0002 55.3242 18.8002 56.3242 20.8002 56.3242H43.4002C45.2002 56.3242 47.0002 55.3242 47.8002 53.5242L58.2002 35.3242C59.0002 33.7242 59.0002 31.9242 58.2002 30.3242ZM54.8002 33.5242L44.4002 51.7242C44.2002 52.1242 43.6002 52.3242 43.2002 52.3242H20.6002C20.0002 52.3242 19.6002 51.9242 19.4002 51.5242L9.20019 33.3242C9.00019 32.9242 9.00019 32.5242 9.20019 32.1242L19.6002 13.9242C19.8002 13.5242 20.4002 13.3242 20.8002 13.3242H43.4002C43.8002 13.3242 44.2002 13.5242 44.6002 14.1242L54.8002 32.3242C55.0002 32.7242 55.0002 33.1242 54.8002 33.5242Z" fill="#2D373D"/>
<path d="M31.9996 19.5239C24.5996 19.5239 18.5996 25.5239 18.5996 32.9239C18.5996 40.3239 24.5996 46.3239 31.9996 46.3239C39.3996 46.3239 45.3996 40.3239 45.3996 32.9239C45.3996 25.5239 39.3996 19.5239 31.9996 19.5239ZM31.9996 42.3239C26.7996 42.3239 22.5996 38.1239 22.5996 32.9239C22.5996 27.7239 26.7996 23.5239 31.9996 23.5239C37.1996 23.5239 41.3996 27.7239 41.3996 32.9239C41.3996 38.1239 37.1996 42.3239 31.9996 42.3239Z" fill="#2D373D"/>
</svg>
