<svg width="24" height="25" viewBox="0 0 24 25" fill="none" xmlns="http://www.w3.org/2000/svg">
<path fill-rule="evenodd" clip-rule="evenodd" d="M19.2474 11.6699L11.7492 11.6699V20.166C11.7492 20.3649 11.6701 20.5557 11.5295 20.6963C11.3888 20.837 11.1981 20.916 10.9992 20.916H3.88907C2.95274 20.916 2.00098 20.2388 2.00098 19.1824V4.65354C2.00098 3.59713 2.95274 2.91992 3.88907 2.91992L18.1093 2.91993C19.0456 2.91993 19.9974 3.59713 19.9974 4.65355V10.9199C19.9974 11.3341 19.6616 11.6699 19.2474 11.6699ZM18.4974 4.65355V5.32031H11.7492V4.41993L18.1093 4.41993C18.2498 4.41993 18.3586 4.46931 18.4236 4.52547C18.487 4.58029 18.4974 4.62767 18.4974 4.65355ZM11.7492 6.82031H18.4974V7.7207H11.7492V6.82031ZM10.2492 7.7207V6.82031H3.50098V7.7207H10.2492ZM3.50098 9.2207H10.2492V10.1699H3.50098V9.2207ZM11.7492 9.2207H18.4974V10.1699L11.7492 10.1699V9.2207ZM10.2492 4.41993V5.32031H3.50098V4.65354C3.50098 4.62766 3.5113 4.58028 3.57474 4.52546C3.63972 4.4693 3.74855 4.41992 3.88907 4.41992L10.2492 4.41993ZM10.2492 11.6699H3.50098L3.50098 19.1824C3.50098 19.2083 3.5113 19.2557 3.57473 19.3105C3.63972 19.3666 3.74854 19.416 3.88907 19.416H10.2492V11.6699Z" fill="#2D373D"/>
<path d="M15.0621 14.9163C15.7603 14.2181 16.8182 13.9607 17.8332 14.1094L16.6727 15.2699C16.5714 15.3712 16.2461 15.711 16.0752 16.1895C15.9859 16.4395 15.9299 16.7519 15.9915 17.0954C16.0544 17.4462 16.2302 17.7736 16.5156 18.059C16.8015 18.3449 17.1296 18.5204 17.4809 18.5829C17.8246 18.644 18.1371 18.5874 18.3869 18.498C18.8652 18.3268 19.2046 18.002 19.3047 17.9019L20.4652 16.7414C20.6139 17.7564 20.3565 18.8143 19.6583 19.5125C19.3158 19.855 18.9175 20.1041 18.4935 20.2615L18.24 20.3176C17.8965 20.3935 17.652 20.6981 17.652 21.0499V22.1669C17.652 22.5811 17.9878 22.9169 18.402 22.9169C18.8162 22.9169 19.152 22.5811 19.152 22.1669V21.6146C19.7229 21.3824 20.2573 21.0348 20.7189 20.5732C22.2263 19.0659 22.3035 16.7119 21.4901 15.0093C21.3852 14.7896 21.1801 14.6345 20.9402 14.5934C20.7002 14.5522 20.4552 14.6301 20.2831 14.8022L18.2441 16.8412C18.187 16.8982 18.0394 17.0292 17.8813 17.0858C17.8129 17.1103 17.7698 17.1107 17.7433 17.106C17.7243 17.1026 17.6675 17.0896 17.5762 16.9984C17.4845 16.9066 17.4713 16.8495 17.4679 16.8306C17.4632 16.8044 17.4636 16.7618 17.4878 16.6941C17.5438 16.537 17.6742 16.3897 17.7334 16.3305L19.7724 14.2915C19.9445 14.1194 20.0224 13.8744 19.9812 13.6344C19.9401 13.3945 19.785 13.1894 19.5653 13.0845C17.8627 12.2711 15.5087 12.3483 14.0014 13.8557C12.1464 15.7107 12.1464 18.7182 14.0014 20.5732C14.4255 20.9973 14.911 21.3251 15.4298 21.5557V22.1669C15.4298 22.5811 15.7655 22.9169 16.1798 22.9169C16.594 22.9169 16.9298 22.5811 16.9298 22.1669V21.0499C16.9298 20.7454 16.7457 20.4711 16.4639 20.3558L16.3011 20.2891L16.2822 20.2817L16.2682 20.2765C15.8287 20.1202 15.4156 19.8662 15.062 19.5126C13.7928 18.2434 13.7928 16.1856 15.0621 14.9163Z" fill="#2D373D"/>
</svg>
