<svg width="32" height="32" viewBox="0 0 32 32" fill="none" xmlns="http://www.w3.org/2000/svg">
<path d="M25.3002 19.2L24.9002 17.2C25.7002 17.2 26.6002 17.5 27.3002 18C27.4002 18 27.5002 18.1 27.6002 18.2L27.9002 18.5C28.3002 18.9 28.9002 18.9 29.3002 18.5C29.7002 18.1 29.7002 17.5 29.3002 17.1L29.0002 16.8C28.9002 16.6 28.7002 16.5 28.6002 16.4C27.4002 15.4 26.0002 15 24.5002 15.1L23.6002 10.8C23.6002 10.7 23.7002 10.6 23.7002 10.5C23.7002 10.3 23.6002 10.2 23.5002 9.99995L22.7002 6.29995C22.4002 5.09995 21.3002 4.19995 20.1002 4.19995H18.1002C17.5002 4.19995 17.1002 4.59995 17.1002 5.19995C17.1002 5.79995 17.5002 6.19995 18.1002 6.19995H20.1002C20.4002 6.19995 20.7002 6.39995 20.8002 6.69995L21.4002 9.69995L10.8002 10.4C10.7002 10.4 10.6002 10.4 10.5002 10.4L5.4002 10.8C3.9002 10.8 2.7002 12.1 2.7002 13.5C2.7002 14.9 3.9002 16.1 5.4002 16.1H7.2002C8.9002 16.1 10.4002 16.9 11.5002 18.1L11.8002 18.5L9.7002 20.1C9.0002 19.5 8.0002 19.1 7.0002 19.1C4.6002 19.1 2.7002 21 2.7002 23.4C2.7002 25.8 4.6002 27.7 7.0002 27.7C9.4002 27.7 11.3002 25.8 11.3002 23.4C11.3002 22.8 11.2002 22.2 10.9002 21.7L13.0002 20L13.9002 21C14.4002 21.6 15.1002 21.9 15.9002 21.9H17.7002C18.5002 21.9 19.2002 21.6 19.8002 21.2L22.0002 18.5C22.3002 18.2 22.6002 17.9 22.9002 17.7L23.3002 19.5C21.8002 20.2 20.8002 21.6 20.8002 23.4C20.8002 25.8 22.7002 27.7 25.1002 27.7C27.5002 27.7 29.4002 25.8 29.4002 23.4C29.4002 21.1 27.6002 19.3 25.3002 19.2ZM9.2002 23.5C9.2002 24.7999 8.2002 25.7999 6.9002 25.7999C5.6002 25.7999 4.6002 24.7999 4.6002 23.5C4.6002 22.2 5.6002 21.2 6.9002 21.2C7.3002 21.2 7.60019 21.3 7.9002 21.4L6.3002 22.7C5.9002 23 5.8002 23.7 6.1002 24.1C6.3002 24.4 6.6002 24.5 6.9002 24.5C7.10019 24.5 7.3002 24.4 7.5002 24.2999L9.2002 23C9.2002 23.1 9.2002 23.2999 9.2002 23.5ZM17.6002 12V13.4C17.6002 13.8 17.3002 14.1 16.9002 14.1H15.1002C14.9002 14.1 14.7002 14 14.6002 13.9L12.9002 12.3L17.6002 12ZM20.5002 17.2L18.3002 19.9C18.2002 20 18.0002 20.1 17.8002 20.1H16.0002C15.8002 20.1 15.6002 20 15.5002 19.9L14.1002 18.2C14.1002 18.2 14.1002 18.1 14.0002 18.1C14.0002 18 13.9002 18 13.8002 17.9L13.0002 17C11.5002 15.3 9.4002 14.3 7.2002 14.3H5.3002C4.9002 14.3 4.6002 14 4.6002 13.6C4.6002 13.2 4.9002 12.9 5.3002 12.9L10.3002 12.6L13.1002 15.4C13.6002 15.9 14.3002 16.2 15.0002 16.2H16.8002C18.3002 16.2 19.5002 15 19.6002 13.6V11.9L21.7002 11.8L22.5002 15.7C21.7002 16 21.1002 16.5 20.5002 17.2ZM25.1002 25.7999C23.8002 25.7999 22.8002 24.7999 22.8002 23.5C22.8002 22.7 23.1002 22.1 23.7002 21.7L24.1002 23.7C24.2002 24.2 24.6002 24.5 25.1002 24.5C25.2002 24.5 25.2002 24.5 25.3002 24.5C25.9002 24.4 26.2002 23.7999 26.1002 23.2999L25.7002 21.2999C26.7002 21.5 27.4002 22.4 27.4002 23.5C27.4002 24.7999 26.4002 25.7999 25.1002 25.7999Z" fill="#2D373D"/>
<path d="M27.2002 13.7H28.0002C28.5002 13.7 29.0002 13.3 29.0002 12.7V8.59998C29.0002 7.99998 28.6002 7.59998 28.0002 7.59998H27.2002C25.6002 7.59998 24.2002 8.99998 24.2002 10.6C24.2002 12.3 25.5002 13.7 27.2002 13.7ZM27.0002 9.59998V11.7C26.6002 11.6 26.2002 11.1 26.2002 10.6C26.2002 10.1 26.5002 9.69998 27.0002 9.59998Z" fill="#2D373D"/>
</svg>
