<svg width="32" height="33" viewBox="0 0 32 33" fill="none" xmlns="http://www.w3.org/2000/svg">
<path d="M19.7998 3.06055H12.2998C9.4998 3.06055 7.2998 5.26055 7.2998 8.06055V24.8605C7.2998 27.6605 9.4998 29.8605 12.2998 29.8605H19.7998C22.4998 29.8605 24.7998 27.6605 24.7998 24.8605V8.06055C24.7998 5.26055 22.5998 3.06055 19.7998 3.06055ZM12.2998 5.06055H19.7998C21.4998 5.06055 22.7998 6.36055 22.7998 8.06055V21.4605H9.2998V8.06055C9.2998 6.36055 10.5998 5.06055 12.2998 5.06055ZM19.7998 27.8605H12.2998C10.5998 27.8605 9.2998 26.5605 9.2998 24.8605V23.4605H22.7998V24.8605C22.7998 26.5605 21.4998 27.8605 19.7998 27.8605Z" fill="#2D373D"/>
<path d="M15.9998 26.6606C16.552 26.6606 16.9998 26.2129 16.9998 25.6606C16.9998 25.1084 16.552 24.6606 15.9998 24.6606C15.4475 24.6606 14.9998 25.1084 14.9998 25.6606C14.9998 26.2129 15.4475 26.6606 15.9998 26.6606Z" fill="#2D373D"/>
</svg>
