<svg width="24" height="25" viewBox="0 0 24 25" fill="none" xmlns="http://www.w3.org/2000/svg">
<path d="M21.8252 11.9492L18.0002 5.12422C17.7002 4.44922 17.0252 4.07422 16.2752 4.07422H7.80019C7.05019 4.07422 6.3752 4.44922 6.0752 5.12422L2.1752 11.9492C1.8752 12.5492 1.8752 13.2242 2.1752 13.8242L6.0752 20.6492C6.3752 21.3242 7.05019 21.6992 7.80019 21.6992H16.2752C16.9502 21.6992 17.6252 21.3242 17.9252 20.6492L21.8252 13.8242C22.1252 13.2242 22.1252 12.5492 21.8252 11.9492ZM20.5502 13.1492L16.6502 19.9742C16.5752 20.1242 16.3502 20.1992 16.2002 20.1992H7.7252C7.5002 20.1992 7.35019 20.0492 7.27519 19.8992L3.4502 13.0742C3.3752 12.9242 3.3752 12.7742 3.4502 12.6242L7.3502 5.79922C7.4252 5.64922 7.65019 5.57422 7.80019 5.57422H16.2752C16.4252 5.57422 16.5752 5.64922 16.7252 5.87422L20.5502 12.6992C20.6252 12.8492 20.6252 12.9992 20.5502 13.1492Z" fill="#2D373D"/>
<path d="M12 7.89911C9.22498 7.89911 6.97498 10.1491 6.97498 12.9241C6.97498 15.6991 9.22498 17.9491 12 17.9491C14.775 17.9491 17.025 15.6991 17.025 12.9241C17.025 10.1491 14.775 7.89911 12 7.89911ZM12 16.4491C10.05 16.4491 8.47498 14.8741 8.47498 12.9241C8.47498 10.9741 10.05 9.39911 12 9.39911C13.95 9.39911 15.525 10.9741 15.525 12.9241C15.525 14.8741 13.95 16.4491 12 16.4491Z" fill="#2D373D"/>
</svg>
