<svg width="16" height="17" viewBox="0 0 16 17" fill="none" xmlns="http://www.w3.org/2000/svg">
<path d="M14.3032 3.90234H12.7274V3.15234C12.7274 2.52214 12.2127 2.01172 11.5771 2.01172H10.201C9.56541 2.01172 9.05066 2.52214 9.05066 3.15234V3.90234H6.94965V3.15234C6.94965 2.52214 6.43491 2.01172 5.79935 2.01172H4.42319C3.78763 2.01172 3.27289 2.52214 3.27289 3.15234V3.90234H1.69713C1.40824 3.90234 1.17188 4.13672 1.17188 4.42318V14.8399C1.17188 15.1263 1.40824 15.3607 1.69713 15.3607H14.3032C14.5921 15.3607 14.8284 15.1263 14.8284 14.8399V4.42318C14.8284 4.13672 14.5921 3.90234 14.3032 3.90234ZM10.1012 3.15234C10.1012 3.09505 10.1432 3.05339 10.201 3.05339H11.5771C11.6349 3.05339 11.6769 3.10026 11.6769 3.15234V3.90234H10.1012V3.15234ZM4.32339 3.15234C4.32339 3.09505 4.36541 3.05339 4.42319 3.05339H5.79935C5.85713 3.05339 5.89915 3.10026 5.89915 3.15234V3.90234H4.32339V3.15234ZM13.7779 4.94401V5.9857H2.22238V4.94401H13.7779ZM13.7779 14.319H2.22238V7.02736H13.7779V14.319Z" fill="#2D373D"/>
<path d="M3.79814 10.9492H4.58602V11.7304C4.58602 12.0169 4.82238 12.2513 5.11127 12.2513C5.40016 12.2513 5.63652 12.0169 5.63652 11.7304V10.9492H6.4244C6.71329 10.9492 6.94965 10.7148 6.94965 10.4284C6.94965 10.1419 6.71329 9.90752 6.4244 9.90752H5.63652V9.12627C5.63652 8.83981 5.40016 8.60544 5.11127 8.60544C4.82238 8.60544 4.58602 8.83981 4.58602 9.12627V9.90752H3.79814C3.50925 9.90752 3.27289 10.1419 3.27289 10.4284C3.27289 10.7148 3.50925 10.9492 3.79814 10.9492Z" fill="#2D373D"/>
<path d="M9.57592 11.1939H12.2022C12.4911 11.1939 12.7274 10.9596 12.7274 10.6731C12.7274 10.3866 12.4911 10.1523 12.2022 10.1523H9.57592C9.28703 10.1523 9.05066 10.3866 9.05066 10.6731C9.05066 10.9596 9.28703 11.1939 9.57592 11.1939Z" fill="#2D373D"/>
</svg>
