<svg width="64" height="65" viewBox="0 0 64 65" fill="none" xmlns="http://www.w3.org/2000/svg">
<path fill-rule="evenodd" clip-rule="evenodd" d="M7.33203 6.25781C8.4366 6.25781 9.33203 7.15324 9.33203 8.25781V20.2578H18.1776C19.2275 18.9704 20.5255 17.8934 21.9987 17.0996V10.2578H18.6654C17.5608 10.2578 16.6654 9.36238 16.6654 8.25781C16.6654 7.15324 17.5608 6.25781 18.6654 6.25781H37.332C38.4366 6.25781 39.332 7.15324 39.332 8.25781C39.332 9.36238 38.4366 10.2578 37.332 10.2578H33.9987V17.0996C35.4719 17.8934 36.7699 18.9704 37.8198 20.2578H45.9987C52.9943 20.2578 58.6654 25.9289 58.6654 32.9245V38.9245C58.6654 40.029 57.7699 40.9245 56.6654 40.9245H45.9987C44.8941 40.9245 43.9987 40.029 43.9987 38.9245V34.9245H38.7711C36.5375 38.526 32.5482 40.9245 27.9987 40.9245C23.4492 40.9245 19.4599 38.526 17.2263 34.9245H9.33203V46.9245C9.33203 48.029 8.4366 48.9245 7.33203 48.9245C6.22746 48.9245 5.33203 48.029 5.33203 46.9245V8.25781C5.33203 7.15324 6.22746 6.25781 7.33203 6.25781ZM9.33203 24.2578H15.9766C15.5584 25.5152 15.332 26.86 15.332 28.2578C15.332 29.1726 15.429 30.0647 15.6132 30.9245H9.33203V24.2578ZM27.9987 15.5911C27.3182 15.5911 26.6502 15.6448 25.9987 15.7481V10.2578H29.9987V15.7481C29.3472 15.6448 28.6792 15.5911 27.9987 15.5911ZM40.6654 28.2578C40.6654 26.86 40.439 25.5152 40.0208 24.2578H45.9987C50.7852 24.2578 54.6654 28.138 54.6654 32.9245V36.9245H47.9987V34.2578C47.9987 32.4169 46.5063 30.9245 44.6654 30.9245H40.3842C40.5684 30.0647 40.6654 29.1726 40.6654 28.2578ZM27.9987 36.9245C32.7852 36.9245 36.6654 33.0443 36.6654 28.2578C36.6654 23.4713 32.7852 19.5911 27.9987 19.5911C23.2122 19.5911 19.332 23.4713 19.332 28.2578C19.332 33.0443 23.2122 36.9245 27.9987 36.9245Z" fill="#2D373D"/>
<path fill-rule="evenodd" clip-rule="evenodd" d="M58.6655 52.4487C58.6655 56.3936 55.4674 59.5915 51.5223 59.5915C47.5773 59.5915 44.3792 56.3936 44.3792 52.4487C44.3792 48.5038 49.332 42.2578 51.5223 42.2578C53.7127 42.2578 58.6655 48.5038 58.6655 52.4487ZM54.6655 52.4487C54.6655 54.1843 53.2584 55.5915 51.5223 55.5915C49.7863 55.5915 48.3792 54.1843 48.3792 52.4487C48.3792 52.2258 48.4702 51.6685 48.8524 50.7945C49.2143 49.9666 49.7425 49.0717 50.3511 48.2447C50.7557 47.695 51.1591 47.2249 51.5223 46.8549C51.8856 47.2249 52.289 47.695 52.6936 48.2447C53.3022 49.0717 53.8304 49.9666 54.1923 50.7945C54.5745 51.6685 54.6655 52.2258 54.6655 52.4487Z" fill="#2D373D"/>
</svg>
