<svg width="64" height="64" viewBox="0 0 64 64" fill="none" xmlns="http://www.w3.org/2000/svg">
<path fill-rule="evenodd" clip-rule="evenodd" d="M10.8662 6.46242C11.2002 5.77206 11.8996 5.3335 12.6665 5.3335H51.3332C52.1001 5.3335 52.7995 5.77206 53.1335 6.46242C53.4676 7.15279 53.3774 7.97337 52.9014 8.57473L38.4614 26.8189V50.6668C38.4614 51.3362 38.1265 51.9612 37.5692 52.332L28.6462 58.2687C28.0323 58.677 27.2436 58.7146 26.5938 58.3664C25.9439 58.0183 25.5383 57.3408 25.5383 56.6035V26.8189L11.0983 8.57473C10.6223 7.97337 10.5322 7.15279 10.8662 6.46242ZM16.8001 9.3335L29.1065 24.8819C29.3862 25.2352 29.5383 25.6726 29.5383 26.1232V52.8707L34.4614 49.5953V26.1232C34.4614 25.6726 34.6135 25.2352 34.8932 24.8819L47.1996 9.3335H16.8001Z" fill="#2D373D"/>
</svg>
