<svg width="16" height="16" viewBox="0 0 16 16" fill="none" xmlns="http://www.w3.org/2000/svg">
<path d="M12.6501 9.59998L12.4501 8.59998C12.8501 8.59998 13.3001 8.74998 13.6501 8.99998C13.7001 8.99998 13.7501 9.04998 13.8001 9.09998L13.9501 9.24998C14.1501 9.44998 14.4501 9.44998 14.6501 9.24998C14.8501 9.04998 14.8501 8.74998 14.6501 8.54998L14.5001 8.39998C14.4501 8.29998 14.3501 8.24998 14.3001 8.19998C13.7001 7.69998 13.0001 7.49998 12.2501 7.54998L11.8001 5.39998C11.8001 5.34998 11.8501 5.29998 11.8501 5.24998C11.8501 5.14998 11.8001 5.09998 11.7501 4.99998L11.3501 3.14998C11.2001 2.54998 10.6501 2.09998 10.0501 2.09998H9.0501C8.7501 2.09998 8.5501 2.29998 8.5501 2.59998C8.5501 2.89998 8.7501 3.09998 9.0501 3.09998H10.0501C10.2001 3.09998 10.3501 3.19998 10.4001 3.34998L10.7001 4.84998L5.4001 5.19998C5.3501 5.19998 5.3001 5.19998 5.2501 5.19998L2.7001 5.39998C1.9501 5.39998 1.3501 6.04998 1.3501 6.74998C1.3501 7.44998 1.9501 8.04998 2.7001 8.04998H3.6001C4.4501 8.04998 5.2001 8.44998 5.7501 9.04998L5.9001 9.24998L4.8501 10.05C4.5001 9.74998 4.0001 9.54998 3.5001 9.54998C2.3001 9.54998 1.3501 10.5 1.3501 11.7C1.3501 12.9 2.3001 13.85 3.5001 13.85C4.7001 13.85 5.6501 12.9 5.6501 11.7C5.6501 11.4 5.6001 11.1 5.4501 10.85L6.5001 9.99998L6.9501 10.5C7.2001 10.8 7.5501 10.95 7.9501 10.95H8.8501C9.2501 10.95 9.6001 10.8 9.9001 10.6L11.0001 9.24998C11.1501 9.09998 11.3001 8.94998 11.4501 8.84998L11.6501 9.74998C10.9001 10.1 10.4001 10.8 10.4001 11.7C10.4001 12.9 11.3501 13.85 12.5501 13.85C13.7501 13.85 14.7001 12.9 14.7001 11.7C14.7001 10.55 13.8001 9.64998 12.6501 9.59998ZM4.6001 11.75C4.6001 12.4 4.1001 12.9 3.4501 12.9C2.8001 12.9 2.3001 12.4 2.3001 11.75C2.3001 11.1 2.8001 10.6 3.4501 10.6C3.6501 10.6 3.8001 10.65 3.9501 10.7L3.1501 11.35C2.9501 11.5 2.9001 11.85 3.0501 12.05C3.1501 12.2 3.3001 12.25 3.4501 12.25C3.5501 12.25 3.6501 12.2 3.7501 12.15L4.6001 11.5C4.6001 11.55 4.6001 11.65 4.6001 11.75ZM8.8001 5.99998V6.69998C8.8001 6.89998 8.6501 7.04998 8.4501 7.04998H7.5501C7.4501 7.04998 7.3501 6.99998 7.3001 6.94998L6.4501 6.14998L8.8001 5.99998ZM10.2501 8.59998L9.1501 9.94998C9.1001 9.99998 9.0001 10.05 8.9001 10.05H8.0001C7.9001 10.05 7.8001 9.99998 7.7501 9.94998L7.0501 9.09998C7.0501 9.09998 7.0501 9.04998 7.0001 9.04998C7.0001 8.99998 6.9501 8.99998 6.9001 8.94998L6.5001 8.49998C5.7501 7.64998 4.7001 7.14998 3.6001 7.14998H2.6501C2.4501 7.14998 2.3001 6.99998 2.3001 6.79998C2.3001 6.59998 2.4501 6.44998 2.6501 6.44998L5.1501 6.29998L6.5501 7.69998C6.8001 7.94998 7.1501 8.09998 7.5001 8.09998H8.4001C9.1501 8.09998 9.7501 7.49998 9.8001 6.79998V5.94998L10.8501 5.89998L11.2501 7.84998C10.8501 7.99998 10.5501 8.24998 10.2501 8.59998ZM12.5501 12.9C11.9001 12.9 11.4001 12.4 11.4001 11.75C11.4001 11.35 11.5501 11.05 11.8501 10.85L12.0501 11.85C12.1001 12.1 12.3001 12.25 12.5501 12.25C12.6001 12.25 12.6001 12.25 12.6501 12.25C12.9501 12.2 13.1001 11.9 13.0501 11.65L12.8501 10.65C13.3501 10.75 13.7001 11.2 13.7001 11.75C13.7001 12.4 13.2001 12.9 12.5501 12.9Z" fill="#2D373D"/>
<path d="M13.6001 6.84999H14.0001C14.2501 6.84999 14.5001 6.64999 14.5001 6.34999V4.29999C14.5001 3.99999 14.3001 3.79999 14.0001 3.79999H13.6001C12.8001 3.79999 12.1001 4.49999 12.1001 5.29999C12.1001 6.14999 12.7501 6.84999 13.6001 6.84999ZM13.5001 4.79999V5.84999C13.3001 5.79999 13.1001 5.54999 13.1001 5.29999C13.1001 5.04999 13.2501 4.84999 13.5001 4.79999Z" fill="#2D373D"/>
</svg>
