<svg width="24" height="25" viewBox="0 0 24 25" fill="none" xmlns="http://www.w3.org/2000/svg">
<path d="M7.04988 7.73523H2.99988V22.4352H7.04988V7.73523Z" fill="#2D373D"/>
<path d="M5.0248 6.46016C6.1846 6.46016 7.12481 5.55353 7.12481 4.43516C7.12481 3.31678 6.1846 2.41016 5.0248 2.41016C3.86501 2.41016 2.9248 3.31678 2.9248 4.43516C2.9248 5.55353 3.86501 6.46016 5.0248 6.46016Z" fill="#2D373D"/>
<path d="M15.4497 7.73523C14.3997 7.73523 13.3497 8.18523 12.5997 8.93523V7.73523H8.47473V22.4352H12.5997V13.2102C12.5997 13.2102 12.4497 11.3352 14.6997 11.3352C16.0497 11.3352 16.7247 12.0852 16.7247 13.2102V22.5102H21.0747V13.3602C20.9997 8.33523 16.8747 7.73523 15.4497 7.73523Z" fill="#2D373D"/>
</svg>
