<svg width="64" height="65" viewBox="0 0 64 65" fill="none" xmlns="http://www.w3.org/2000/svg">
<path d="M20.3898 16.6658C20.3898 15.3601 20.7959 13.5997 21.77 12.2233C22.6813 10.9356 24.1136 9.92773 26.4725 9.92773C28.79 9.92773 30.298 10.99 31.2938 12.3731C32.3473 13.8363 32.7737 15.6076 32.7737 16.6658C32.7737 17.7704 33.6691 18.6658 34.7737 18.6658H42.4195C42.6456 18.6658 43.0292 18.7501 43.2988 18.9442C43.4135 19.0268 43.4986 19.1218 43.5604 19.2416C43.6214 19.3598 43.6962 19.5727 43.6962 19.9425V25.4038C43.6962 26.5084 44.5917 27.4038 45.6962 27.4038C46.8008 27.4038 47.6962 26.5084 47.6962 25.4038V19.9425C47.6962 17.98 46.8337 16.5604 45.6361 15.6981C44.5404 14.9092 43.2856 14.6658 42.4195 14.6658H36.5553C36.2467 13.1699 35.5991 11.507 34.5399 10.0359C32.9143 7.77811 30.2718 5.92773 26.4725 5.92773C22.7148 5.92773 20.1058 7.65047 18.5049 9.91263C17.447 11.4075 16.8438 13.1082 16.5703 14.6658H10.7441C8.78151 14.6658 7.36188 15.5283 6.49957 16.726C5.71069 17.8216 5.46729 19.0764 5.46729 19.9425V53.8025C5.46729 55.765 6.32981 57.1847 7.52746 58.047C8.62314 58.8358 9.87788 59.0793 10.7441 59.0793H28.0011C29.1057 59.0793 30.0011 58.1838 30.0011 57.0793C30.0011 55.9747 29.1057 55.0793 28.0011 55.0793H10.7441C10.518 55.0793 10.1343 54.995 9.86468 54.8008C9.75001 54.7183 9.66492 54.6233 9.60311 54.5035C9.54212 54.3852 9.46729 54.1723 9.46729 53.8025V19.9425C9.46729 19.7165 9.55156 19.3328 9.74571 19.0632C9.82827 18.9485 9.92326 18.8634 10.0431 18.8016C10.1613 18.7406 10.3742 18.6658 10.7441 18.6658H18.3898C19.4944 18.6658 20.3898 17.7704 20.3898 16.6658Z" fill="#2D373D"/>
<path d="M26.6909 17.758C27.8973 17.758 28.8754 16.78 28.8754 15.5735C28.8754 14.367 27.8973 13.389 26.6909 13.389C25.4844 13.389 24.5063 14.367 24.5063 15.5735C24.5063 16.78 25.4844 17.758 26.6909 17.758Z" fill="#2D373D"/>
<path d="M16.2043 27.7728C15.0997 27.7728 14.2043 28.6682 14.2043 29.7728C14.2043 30.8774 15.0997 31.7728 16.2043 31.7728H28.2191C29.3236 31.7728 30.2191 30.8774 30.2191 29.7728C30.2191 28.6682 29.3236 27.7728 28.2191 27.7728H16.2043Z" fill="#2D373D"/>
<path d="M14.2043 37.4186C14.2043 36.3141 15.0997 35.4186 16.2043 35.4186H22.7578C23.8624 35.4186 24.7578 36.3141 24.7578 37.4186C24.7578 38.5232 23.8624 39.4186 22.7578 39.4186H16.2043C15.0997 39.4186 14.2043 38.5232 14.2043 37.4186Z" fill="#2D373D"/>
<path d="M16.2043 44.1567C15.0997 44.1567 14.2043 45.0522 14.2043 46.1567C14.2043 47.2613 15.0997 48.1567 16.2043 48.1567H22.7578C23.8624 48.1567 24.7578 47.2613 24.7578 46.1567C24.7578 45.0522 23.8624 44.1567 22.7578 44.1567H16.2043Z" fill="#2D373D"/>
<path d="M51.5535 40.9319C52.2874 40.1064 52.213 38.8422 51.3875 38.1084C50.5619 37.3746 49.2978 37.4489 48.5639 38.2745L41.235 46.5195L38.3659 43.6503C37.5848 42.8692 36.3185 42.8692 35.5374 43.6503C34.7564 44.4313 34.7564 45.6977 35.5374 46.4787L39.9065 50.8477C40.296 51.2372 40.8288 51.4488 41.3794 51.4327C41.93 51.4165 42.4496 51.1739 42.8155 50.7622L51.5535 40.9319Z" fill="#2D373D"/>
<path fill-rule="evenodd" clip-rule="evenodd" d="M28.3996 43.9721C28.3996 35.6287 35.1632 28.8651 43.5066 28.8651C51.8501 28.8651 58.6137 35.6287 58.6137 43.9721C58.6137 52.3155 51.8501 59.0792 43.5066 59.0792C35.1632 59.0792 28.3996 52.3155 28.3996 43.9721ZM43.5066 32.8651C37.3724 32.8651 32.3996 37.8379 32.3996 43.9721C32.3996 50.1064 37.3724 55.0792 43.5066 55.0792C49.6409 55.0792 54.6137 50.1064 54.6137 43.9721C54.6137 37.8379 49.6409 32.8651 43.5066 32.8651Z" fill="#2D373D"/>
</svg>
