<svg width="24" height="25" viewBox="0 0 24 25" fill="none" xmlns="http://www.w3.org/2000/svg">
<path fill-rule="evenodd" clip-rule="evenodd" d="M12 21.4219C14.8343 21.4219 17.5 18.7431 17.5 15.7424C17.5 15.0271 17.2844 13.9271 16.8539 12.6026C16.4324 11.3059 15.8392 9.89794 15.1654 8.60137C14.487 7.29584 13.7558 6.1591 13.0758 5.37297C12.7351 4.97908 12.4425 4.71451 12.2126 4.55867C12.0983 4.48114 12.0232 4.44635 11.9842 4.43121C11.9454 4.44633 11.871 4.48095 11.758 4.55775C11.5294 4.71311 11.2382 4.97718 10.899 5.37081C10.2221 6.15644 9.49473 7.29277 8.82013 8.59829C8.15021 9.89476 7.56079 11.3028 7.14201 12.5998C6.71437 13.9243 6.5 15.0254 6.5 15.7424C6.5 18.7432 9.16564 21.4219 12 21.4219ZM12 22.9219C15.6983 22.9219 19 19.5356 19 15.7424C19 11.9492 14.6625 2.92188 11.984 2.92188C9.3054 2.92188 5 11.9492 5 15.7424C5 19.5356 8.30163 22.9219 12 22.9219Z" fill="#2D373D"/>
<path fill-rule="evenodd" clip-rule="evenodd" d="M8.32886 15.6753C8.74121 15.636 9.10733 15.9384 9.14662 16.3507C9.20206 16.9326 9.51393 17.5938 10.0032 18.1101C10.4919 18.6259 11.083 18.9219 11.65 18.9219C12.0642 18.9219 12.4 19.2577 12.4 19.6719C12.4 20.0861 12.0642 20.4219 11.65 20.4219C10.5601 20.4219 9.59969 19.8651 8.91442 19.1419C8.22975 18.4193 7.74509 17.4555 7.65338 16.493C7.61409 16.0807 7.91652 15.7145 8.32886 15.6753Z" fill="#2D373D"/>
</svg>
