<svg width="24" height="25" viewBox="0 0 24 25" fill="none" xmlns="http://www.w3.org/2000/svg">
<path d="M11.91 22.4309C11.8112 22.4332 11.713 22.4148 11.6218 22.3769C11.5305 22.339 11.4482 22.2825 11.38 22.2109C11.2937 22.1244 11.2295 22.0183 11.193 21.9016C11.1564 21.785 11.1485 21.6613 11.17 21.5409L11.76 18.6309C11.7896 18.485 11.8588 18.3501 11.96 18.2409L17.89 12.3209C18.1073 12.0955 18.3697 11.9183 18.66 11.8009C19.2465 11.5614 19.9035 11.5614 20.49 11.8009C20.782 11.9206 21.0472 12.0974 21.27 12.3209C21.4954 12.5429 21.6743 12.8076 21.7962 13.0995C21.9181 13.3913 21.9806 13.7046 21.98 14.0209C21.973 14.6554 21.7182 15.2619 21.27 15.7109L15.35 21.6309C15.248 21.7384 15.1153 21.8117 14.97 21.8409L12.06 22.4209L11.91 22.4309ZM13.18 19.1409L12.87 20.7309L14.49 20.4109L20.25 14.6509C20.4136 14.4767 20.5094 14.2497 20.52 14.0109C20.5166 13.7735 20.4196 13.5471 20.25 13.3809C20.1668 13.2966 20.0684 13.2287 19.96 13.1809C19.7413 13.0961 19.4987 13.0961 19.28 13.1809C19.1703 13.2264 19.0714 13.2945 18.99 13.3809L13.18 19.1409ZM9.58 20.1009H4.92C4.66899 20.1024 4.42021 20.0537 4.18835 19.9575C3.95649 19.8613 3.74624 19.7197 3.57 19.5409C3.3908 19.3645 3.2482 19.1544 3.15038 18.9228C3.05257 18.6911 3.00146 18.4424 3 18.1909V5.38094C3.0025 4.87003 3.20748 4.38095 3.57 4.02094C3.92858 3.6636 4.41377 3.46234 4.92 3.46094H16.57C16.8208 3.46054 17.0693 3.50983 17.301 3.60594C17.5327 3.70206 17.7431 3.8431 17.92 4.02094C18.1 4.19888 18.2429 4.41063 18.3408 4.64403C18.4386 4.87743 18.4893 5.12787 18.49 5.38094V10.6209C18.4874 10.819 18.4076 11.0083 18.2675 11.1484C18.1274 11.2885 17.9381 11.3683 17.74 11.3709C17.5419 11.3683 17.3526 11.2885 17.2125 11.1484C17.0724 11.0083 16.9926 10.819 16.99 10.6209V5.38094C16.9918 5.32684 16.982 5.27298 16.9613 5.22297C16.9406 5.17296 16.9095 5.12794 16.87 5.09094C16.8327 5.05106 16.7879 5.01902 16.7381 4.9967C16.6883 4.97438 16.6346 4.96222 16.58 4.96094H4.92C4.81167 4.96297 4.7081 5.00583 4.63 5.08094C4.54886 5.15992 4.50214 5.26772 4.5 5.38094V18.1909C4.5001 18.2457 4.51172 18.2998 4.53412 18.3498C4.55652 18.3997 4.58919 18.4444 4.63 18.4809C4.667 18.5204 4.71202 18.5516 4.76203 18.5723C4.81205 18.593 4.8659 18.6027 4.92 18.6009H9.58C9.77811 18.6035 9.96737 18.6834 10.1075 18.8235C10.2476 18.9636 10.3274 19.1528 10.33 19.3509C10.33 19.4494 10.3106 19.547 10.2729 19.638C10.2352 19.7289 10.18 19.8116 10.1103 19.8813C10.0407 19.9509 9.95801 20.0062 9.86701 20.0438C9.77602 20.0815 9.67849 20.1009 9.58 20.1009ZM13.07 15.4509H7.25C7.05109 15.4509 6.86032 15.3719 6.71967 15.2313C6.57902 15.0906 6.5 14.8999 6.5 14.7009C6.49865 14.6021 6.51714 14.5039 6.55435 14.4123C6.59156 14.3207 6.64676 14.2375 6.71667 14.1676C6.78659 14.0977 6.8698 14.0425 6.9614 14.0053C7.053 13.9681 7.15114 13.9496 7.25 13.9509H13.07C13.1689 13.9496 13.267 13.9681 13.3586 14.0053C13.4502 14.0425 13.5334 14.0977 13.6033 14.1676C13.6732 14.2375 13.7284 14.3207 13.7656 14.4123C13.8029 14.5039 13.8213 14.6021 13.82 14.7009C13.82 14.7994 13.8006 14.897 13.7629 14.988C13.7252 15.0789 13.67 15.1616 13.6003 15.2313C13.5307 15.3009 13.448 15.3562 13.357 15.3938C13.266 15.4315 13.1685 15.4509 13.07 15.4509ZM14.24 11.9509H7.24C7.14114 11.9523 7.043 11.9338 6.9514 11.8966C6.8598 11.8594 6.77659 11.8042 6.70667 11.7343C6.63676 11.6644 6.58156 11.5811 6.54435 11.4895C6.50713 11.3979 6.48865 11.2998 6.49 11.2009C6.49 11.002 6.56902 10.8113 6.70967 10.6706C6.85032 10.53 7.04109 10.4509 7.24 10.4509H14.24C14.4381 10.4535 14.6274 10.5334 14.7675 10.6735C14.9076 10.8136 14.9874 11.0028 14.99 11.2009C14.99 11.3999 14.911 11.5906 14.7703 11.7313C14.6297 11.8719 14.4389 11.9509 14.24 11.9509ZM14.24 8.46094H9.58C9.38109 8.46094 9.19032 8.38192 9.04967 8.24127C8.90902 8.10062 8.83 7.90985 8.83 7.71094C8.82865 7.61208 8.84714 7.51394 8.88435 7.42234C8.92156 7.33074 8.97676 7.24752 9.04667 7.17761C9.11659 7.1077 9.1998 7.0525 9.2914 7.01529C9.383 6.97807 9.48114 6.95959 9.58 6.96094H14.24C14.4389 6.96094 14.6297 7.03996 14.7703 7.18061C14.911 7.32126 14.99 7.51203 14.99 7.71094C14.9874 7.90905 14.9076 8.09831 14.7675 8.23841C14.6274 8.3785 14.4381 8.45835 14.24 8.46094Z" fill="#2D373D"/>
</svg>
