<svg width="16" height="16" viewBox="0 0 16 16" fill="none" xmlns="http://www.w3.org/2000/svg">
<path fill-rule="evenodd" clip-rule="evenodd" d="M3.76244 3.09548C3.72772 3.13034 3.6665 3.22362 3.6665 3.47059V12.5294C3.6665 12.6679 3.73004 12.7775 3.84212 12.8675C3.89957 12.9137 3.96431 12.9492 4.02482 12.9723C4.05461 12.9837 4.08065 12.9911 4.10124 12.9954C4.12257 12.9998 4.13323 13 4.13317 13H11.8665C12.1111 13 12.2029 12.939 12.2372 12.9045C12.272 12.8697 12.3332 12.7764 12.3332 12.5294V3.47059C12.3332 3.22362 12.272 3.13034 12.2372 3.09548C12.2029 3.061 12.1111 3 11.8665 3H10.1684L9.10423 4.80311L9.9538 6.83667C10.0267 7.0112 9.9949 7.21194 9.87158 7.35537L7.09009 10.5907C6.93758 10.7681 6.68246 10.816 6.47597 10.7061C6.26948 10.5961 6.16682 10.3577 6.22885 10.1321L7.06121 7.10528L5.79211 5.02512C5.72024 4.90732 5.70025 4.76507 5.73686 4.63203L6.18602 3H4.13317C3.88853 3 3.79678 3.061 3.76244 3.09548ZM3.0539 2.38981C3.34178 2.10076 3.73336 2 4.13317 2H6.84221C6.99825 2 7.14534 2.07285 7.23991 2.19696C7.33449 2.32108 7.36569 2.48223 7.32429 2.63267L6.7584 4.68889L8.02747 6.769C8.09932 6.88676 8.11932 7.02898 8.08274 7.16199L7.78348 8.25023L8.91213 6.93743L8.08495 4.95745C8.02417 4.81197 8.03557 4.64635 8.11571 4.51057L9.45232 2.24586C9.54225 2.0935 9.706 2 9.88292 2H11.8665C12.2663 2 12.6579 2.10076 12.9458 2.38981C13.2333 2.67848 13.3332 3.0705 13.3332 3.47059V12.5294C13.3332 12.9295 13.2333 13.3215 12.9458 13.6102C12.6579 13.8992 12.2663 14 11.8665 14H4.13317C3.83986 14 3.49063 13.8679 3.21589 13.6472C2.92519 13.4137 2.6665 13.038 2.6665 12.5294V3.47059C2.6665 3.0705 2.76639 2.67848 3.0539 2.38981Z" fill="#2D373D"/>
</svg>
