<svg width="24" height="25" viewBox="0 0 24 25" fill="none" xmlns="http://www.w3.org/2000/svg">
<path fill-rule="evenodd" clip-rule="evenodd" d="M3.5 11.5892C3.5 11.313 3.72386 11.0892 4 11.0892H6C6.27614 11.0892 6.5 11.313 6.5 11.5892C6.5 11.8653 6.27614 12.0892 6 12.0892H4C3.72386 12.0892 3.5 11.8653 3.5 11.5892Z" fill="#2D373D"/>
<path fill-rule="evenodd" clip-rule="evenodd" d="M11.6667 4.58919H9.83333V4.92253H11.3333C12.8061 4.92253 14 6.11643 14 7.58919V12.9225C14 13.2907 13.7015 13.5892 13.3333 13.5892H9.83333V15.0892C9.83333 15.3653 9.60948 15.5892 9.33333 15.5892H6.66667C6.39052 15.5892 6.16667 15.3653 6.16667 15.0892V13.5892H2.66667C2.64366 13.5892 2.62092 13.588 2.5985 13.5857C2.26233 13.5516 2 13.2677 2 12.9225V7.58919C2 6.11643 3.19391 4.92253 4.66667 4.92253H8.83333V2.75586C8.83333 2.47972 9.05719 2.25586 9.33333 2.25586H11.6667C11.7993 2.25586 11.9265 2.30854 12.0202 2.40231C12.114 2.49607 12.1667 2.62325 12.1667 2.75586V4.08919C12.1667 4.36533 11.9428 4.58919 11.6667 4.58919ZM9.83333 3.25586L11.1667 3.25586V3.58919L9.83333 3.58919V3.25586ZM7.16667 13.5892V14.5892H8.83333V13.5892H7.16667ZM8.83333 7.58913V5.92253H7.41512C7.78109 6.37906 8 6.95856 8 7.58919V12.5892H13V7.58919C13 6.66872 12.2538 5.92253 11.3333 5.92253H9.83333V7.58913C10.0357 7.74117 10.1667 7.98322 10.1667 8.25586C10.1667 8.7161 9.79357 9.08919 9.33333 9.08919C8.8731 9.08919 8.5 8.7161 8.5 8.25586C8.5 7.98322 8.63093 7.74117 8.83333 7.58913ZM9.5 8.25586C9.5 8.34791 9.42538 8.42253 9.33333 8.42253C9.24129 8.42253 9.16667 8.34791 9.16667 8.25586C9.16667 8.16381 9.24129 8.08919 9.33333 8.08919C9.42538 8.08919 9.5 8.16381 9.5 8.25586ZM5.33333 5.92253H4.66667C3.74619 5.92253 3 6.66872 3 7.58919V12.5892H7V7.58919C7 6.66872 6.25381 5.92253 5.33333 5.92253Z" fill="#2D373D"/>
</svg>
