<svg width="16" height="17" viewBox="0 0 16 17" fill="none" xmlns="http://www.w3.org/2000/svg">
<path d="M1.83775 10.6646C1.74439 10.6646 1.64436 10.6379 1.55767 10.5779C1.33094 10.4246 1.26425 10.1112 1.41763 9.88458C1.44431 9.85125 3.89832 6.27792 8.25954 8.85125C10.2934 10.0513 12.1873 9.80458 13.7344 8.13792L13.8144 8.05125C14.0078 7.85792 14.3279 7.85792 14.5213 8.05125C14.7147 8.24458 14.7147 8.56458 14.5213 8.75792L14.4679 8.81792C12.5874 10.8446 10.2001 11.1646 7.74606 9.71792C4.21841 7.63792 2.32455 10.3313 2.2512 10.4446C2.15117 10.5846 1.99779 10.6646 1.83775 10.6646Z" fill="#2D373D"/>
<path d="M1.83775 13.1242C1.74439 13.1242 1.64436 13.0976 1.55767 13.0376C1.33094 12.8842 1.26425 12.5709 1.41763 12.3442C1.44431 12.3109 3.89832 8.73755 8.25954 11.3109C10.2934 12.5109 12.1873 12.2642 13.7344 10.5976L13.8144 10.5109C14.0078 10.3176 14.3279 10.3176 14.5213 10.5109C14.7147 10.7042 14.7147 11.0242 14.5213 11.2176L14.4679 11.2776C12.5874 13.3042 10.2001 13.6242 7.74606 12.1776C4.21841 10.0976 2.32455 12.7909 2.2512 12.9042C2.15117 13.0442 1.99779 13.1242 1.83775 13.1242Z" fill="#2D373D"/>
<path d="M1.83776 15.5917C1.7444 15.5917 1.64437 15.565 1.55768 15.505C1.32429 15.3517 1.26427 15.0383 1.41764 14.8117C1.44432 14.7783 3.89834 11.205 8.25955 13.7783C10.2935 14.9783 12.1873 14.7317 13.7344 13.065L13.8144 12.9783C14.0078 12.785 14.3279 12.785 14.5213 12.9783C14.7147 13.1717 14.7147 13.4917 14.5213 13.685L14.4613 13.745C12.5808 15.7717 10.1934 16.085 7.73941 14.6383C4.18508 12.545 2.3179 15.2517 2.24454 15.365C2.14451 15.5117 1.99114 15.585 1.82443 15.585L1.83776 15.5917Z" fill="#2D373D"/>
<path d="M9.99963 8.58615C9.7263 8.58615 9.49963 8.35948 9.49963 8.08615V3.95948L9.01963 4.43948C8.8263 4.63281 8.5063 4.63281 8.31297 4.43948C8.11963 4.24615 8.11963 3.92615 8.31297 3.73281L9.6463 2.39948C9.69297 2.35281 9.7463 2.31281 9.8063 2.29281C9.9263 2.24615 10.073 2.24615 10.193 2.29281C10.253 2.31948 10.3063 2.35281 10.353 2.39948L11.6863 3.73281C11.8796 3.92615 11.8796 4.24615 11.6863 4.43948C11.493 4.63281 11.173 4.63281 10.9796 4.43948L10.4996 3.95948V8.08615C10.4996 8.35948 10.273 8.58615 9.99963 8.58615Z" fill="#2D373D"/>
<path d="M5.99964 7.41948C5.7263 7.41948 5.49964 7.19281 5.49964 6.91948V3.95948L5.01964 4.43948C4.8263 4.63281 4.5063 4.63281 4.31297 4.43948C4.11964 4.24615 4.11964 3.92615 4.31297 3.73281L5.6463 2.39948C5.69297 2.35281 5.7463 2.31281 5.8063 2.29281C5.9263 2.24615 6.07297 2.24615 6.19297 2.29281C6.25297 2.31948 6.3063 2.35281 6.35297 2.39948L7.6863 3.73281C7.87964 3.92615 7.87964 4.24615 7.6863 4.43948C7.49297 4.63281 7.17297 4.63281 6.97964 4.43948L6.49964 3.95948V6.91948C6.49964 7.19281 6.27297 7.41948 5.99964 7.41948Z" fill="#2D373D"/>
</svg>
