<svg width="24" height="25" viewBox="0 0 24 25" fill="none" xmlns="http://www.w3.org/2000/svg">
<path d="M13.7252 15.3121H13.1252C12.9002 15.3121 12.6752 15.1621 12.6752 14.8621V11.7871C12.6752 11.0371 12.0752 10.4371 11.3252 10.4371H10.7252C10.2752 10.4371 9.97516 10.7371 9.97516 11.1871C9.97516 11.6371 10.2752 11.9371 10.7252 11.9371H11.2502V14.9371C11.2502 15.9871 12.0752 16.8871 13.2002 16.8871H13.8002C14.2502 16.8871 14.4752 16.5121 14.4752 16.0621C14.4752 15.6121 14.1752 15.3121 13.7252 15.3121Z" fill="#2D373D"/>
<path d="M11.7003 9.46209C12.2253 9.46209 12.7503 9.01209 12.7503 8.41209C12.7503 7.81209 12.3003 7.36209 11.7003 7.36209C11.1003 7.36209 10.6503 7.81209 10.6503 8.41209C10.6503 9.01209 11.1003 9.46209 11.7003 9.46209Z" fill="#2D373D"/>
<path d="M12.0002 2.41211C6.45019 2.41211 1.9502 6.98711 1.9502 12.4621C1.9502 17.9371 6.45019 22.4371 12.0002 22.4371C17.4752 22.4371 22.0502 18.0121 22.0502 12.4621C22.0502 6.91211 17.5502 2.41211 12.0002 2.41211ZM12.0002 21.0121C7.27519 21.0121 3.4502 17.1871 3.4502 12.4621C3.4502 7.73711 7.27519 3.91211 12.0002 3.91211C16.6502 3.91211 20.5502 7.73711 20.5502 12.4621C20.5502 17.1871 16.7252 21.0121 12.0002 21.0121Z" fill="#2D373D"/>
</svg>
