<svg width="32" height="32" viewBox="0 0 32 32" fill="none" xmlns="http://www.w3.org/2000/svg">
<path fill-rule="evenodd" clip-rule="evenodd" d="M3 9.3335C3 7.30845 4.64162 5.66683 6.66667 5.66683H19.3333C19.8856 5.66683 20.3333 6.11454 20.3333 6.66683C20.3333 7.21911 19.8856 7.66683 19.3333 7.66683H6.66667C5.74619 7.66683 5 8.41302 5 9.3335V22.6668C5 23.2191 4.55228 23.6668 4 23.6668C3.44772 23.6668 3 23.2191 3 22.6668V9.3335ZM22.6667 8.3335C23.219 8.3335 23.6667 8.78121 23.6667 9.3335V22.6658C23.6667 24.6903 22.0256 26.3335 20 26.3335H6.66667C6.11438 26.3335 5.66667 25.8858 5.66667 25.3335C5.66667 24.7812 6.11438 24.3335 6.66667 24.3335H20C20.92 24.3335 21.6667 23.5868 21.6667 22.6658V9.3335C21.6667 8.78121 22.1144 8.3335 22.6667 8.3335Z" fill="#2D373D"/>
<path fill-rule="evenodd" clip-rule="evenodd" d="M29.0508 12.0001C29.0508 10.9991 28.6319 10.0452 27.8914 9.46833C27.1013 8.85291 26.0218 8.73993 25.0349 9.36369C24.5458 9.67284 24.0829 10.0185 23.6839 10.3165L23.5762 10.3969C23.129 10.7304 22.7945 10.9716 22.5215 11.1154L23.4535 12.8849C23.8902 12.655 24.3524 12.3129 24.7716 12.0003L24.872 11.9255C25.2812 11.62 25.6834 11.3198 26.1035 11.0543C26.257 10.9573 26.3641 10.9448 26.4273 10.9483C26.494 10.952 26.5735 10.977 26.6623 11.0461C26.8513 11.1934 27.0508 11.5284 27.0508 12.0001V15.9997L27.0464 20.0086C27.0458 20.4809 26.8457 20.8153 26.6569 20.9617C26.5682 21.0305 26.489 21.0551 26.4226 21.0585C26.3597 21.0617 26.2527 21.049 26.0992 20.9512C25.6823 20.6854 25.2832 20.3856 24.8771 20.0804L24.7743 20.0032C24.3572 19.6901 23.8972 19.3476 23.4623 19.1168L22.5252 20.8834C22.7967 21.0275 23.1293 21.2689 23.5739 21.6026L23.6835 21.685C24.0797 21.9828 24.5391 22.3282 25.0245 22.6376C26.0098 23.2657 27.0904 23.1566 27.8825 22.5425C28.6247 21.9671 29.0453 21.0131 29.0464 20.0113L29.05 16.6668H29.0508V12.0001Z" fill="#2D373D"/>
<path fill-rule="evenodd" clip-rule="evenodd" d="M27.3738 4.62639C27.7643 5.01691 27.7643 5.65008 27.3738 6.0406L6.04044 27.3739C5.64992 27.7645 5.01675 27.7645 4.62623 27.3739C4.2357 26.9834 4.2357 26.3502 4.62623 25.9597L25.9596 4.62639C26.3501 4.23587 26.9832 4.23587 27.3738 4.62639Z" fill="#2D373D"/>
<path fill-rule="evenodd" clip-rule="evenodd" d="M8 12.3335C8.55228 12.3335 9 12.7812 9 13.3335V16.6668C9 17.2191 8.55228 17.6668 8 17.6668C7.44772 17.6668 7 17.2191 7 16.6668V13.3335C7 12.7812 7.44772 12.3335 8 12.3335Z" fill="#2D373D"/>
</svg>
