<svg width="64" height="65" viewBox="0 0 64 65" fill="none" xmlns="http://www.w3.org/2000/svg">
<path fill-rule="evenodd" clip-rule="evenodd" d="M13.2 22.4619C12.5373 22.4619 12 22.9992 12 23.6619V51.2619C12 51.9247 12.5373 52.4619 13.2 52.4619H40.8C41.4627 52.4619 42 51.9247 42 51.2619V38.4619C42 37.3573 42.8954 36.4619 44 36.4619C45.1046 36.4619 46 37.3573 46 38.4619V51.2619C46 54.1338 43.6719 56.4619 40.8 56.4619H13.2C10.3281 56.4619 8 54.1338 8 51.2619V23.6619C8 20.79 10.3281 18.4619 13.2 18.4619H26C27.1046 18.4619 28 19.3573 28 20.4619C28 21.5665 27.1046 22.4619 26 22.4619H13.2Z" fill="#2D373D"/>
<path d="M55.8482 9.69635C55.7514 9.4622 55.6081 9.24271 55.4184 9.05195L55.4142 9.0477L55.41 9.04347C55.0484 8.68403 54.5501 8.46191 54 8.46191H43.3333C42.2288 8.46191 41.3333 9.35734 41.3333 10.4619C41.3333 11.5665 42.2288 12.4619 43.3333 12.4619H49.1716L27.9191 33.7144C27.1381 34.4954 27.1381 35.7617 27.9191 36.5428C28.7002 37.3238 29.9665 37.3238 30.7475 36.5428L52 15.2903V21.1286C52 22.2332 52.8954 23.1286 54 23.1286C55.1046 23.1286 56 22.2332 56 21.1286V10.4619C56 10.1907 55.946 9.93216 55.8482 9.69635Z" fill="#2D373D"/>
</svg>
