<svg width="64" height="64" viewBox="0 0 64 64" fill="none" xmlns="http://www.w3.org/2000/svg">
<path d="M47.9341 58.9018H15.9341C14.5207 58.8975 13.1665 58.3342 12.1671 57.3348C11.1676 56.3354 10.6043 54.9811 10.6001 53.5678V10.6358C10.6043 9.22239 11.1676 7.86812 12.1671 6.86871C13.1665 5.86931 14.5207 5.30598 15.9341 5.30176H48.2001C49.6135 5.30598 50.9677 5.86931 51.9671 6.86871C52.9665 7.86812 53.5299 9.22239 53.5341 10.6358V53.5678C53.4262 54.9922 52.7939 56.3261 51.7595 57.3113C50.7251 58.2966 49.3621 58.8633 47.9341 58.9018ZM15.9341 9.30176C15.7561 9.29096 15.5778 9.31806 15.4111 9.38128C15.2443 9.4445 15.0929 9.54239 14.9668 9.66849C14.8407 9.79459 14.7428 9.94601 14.6796 10.1128C14.6164 10.2795 14.5893 10.4578 14.6001 10.6358V53.5678C14.5893 53.7458 14.6164 53.924 14.6796 54.0908C14.7428 54.2575 14.8407 54.4089 14.9668 54.535C15.0929 54.6611 15.2443 54.759 15.4111 54.8222C15.5778 54.8855 15.7561 54.9126 15.9341 54.9018H48.2001C48.3781 54.9126 48.5564 54.8855 48.7231 54.8222C48.8898 54.759 49.0413 54.6611 49.1674 54.535C49.2935 54.4089 49.3913 54.2575 49.4546 54.0908C49.5178 53.924 49.5449 53.7458 49.5341 53.5678V10.6358C49.5449 10.4578 49.5178 10.2795 49.4546 10.1128C49.3913 9.94601 49.2935 9.79459 49.1674 9.66849C49.0413 9.54239 48.8898 9.4445 48.7231 9.38128C48.5564 9.31806 48.3781 9.29096 48.2001 9.30176H15.9341Z" fill="#2D373D"/>
<path d="M43.4003 26.1015H20.4663C19.4136 26.0757 18.4111 25.6459 17.6665 24.9013C16.9219 24.1567 16.4922 23.1543 16.4663 22.1015V15.4355C16.4922 14.3828 16.9219 13.3804 17.6665 12.6358C18.4111 11.8911 19.4136 11.4614 20.4663 11.4355H43.4003C44.453 11.4614 45.4555 11.8911 46.2001 12.6358C46.9447 13.3804 47.3744 14.3828 47.4003 15.4355V22.1015C47.4101 22.6295 47.3133 23.154 47.1157 23.6438C46.9182 24.1335 46.6239 24.5783 46.2505 24.9517C45.8771 25.3251 45.4322 25.6194 44.9425 25.817C44.4528 26.0145 43.9283 26.1113 43.4003 26.1015ZM20.4663 15.4355V22.1015H43.4003V15.4355H20.4663Z" fill="#2D373D"/>
<path d="M22.3339 28.7676C21.5579 28.7744 20.8155 29.0857 20.2668 29.6344C19.718 30.1832 19.4067 30.9255 19.3999 31.7016C19.409 32.0721 19.4931 32.4368 19.6472 32.7739C19.8013 33.1109 20.0222 33.4132 20.2964 33.6624C20.5707 33.9116 20.8927 34.1026 21.2429 34.2238C21.5931 34.345 21.9643 34.3939 22.3339 34.3676C23.0405 34.366 23.7177 34.0846 24.2173 33.585C24.7169 33.0853 24.9983 32.4082 24.9999 31.7016C24.9618 30.9802 24.6756 30.2941 24.1897 29.7595C23.7039 29.2248 23.0483 28.8744 22.3339 28.7676Z" fill="#2D373D"/>
<path d="M31.9322 28.7676C31.5617 28.7766 31.1969 28.8608 30.8599 29.0149C30.5229 29.169 30.2206 29.3898 29.9714 29.6641C29.7222 29.9384 29.5312 30.2604 29.41 30.6106C29.2888 30.9608 29.2399 31.3319 29.2662 31.7016C29.2678 32.4082 29.5492 33.0853 30.0488 33.585C30.5484 34.0846 31.2256 34.366 31.9322 34.3676C32.6237 34.3204 33.2747 34.0243 33.7649 33.5342C34.255 33.0441 34.551 32.3931 34.5982 31.7016C34.6073 30.966 34.3374 30.2543 33.8426 29.7099C33.3479 29.1655 32.6653 28.8287 31.9322 28.7676Z" fill="#2D373D"/>
<path d="M41.0001 28.7676C40.6296 28.7766 40.2648 28.8608 39.9278 29.0149C39.5908 29.169 39.2885 29.3898 39.0393 29.6641C38.7901 29.9384 38.5991 30.2604 38.4779 30.6106C38.3566 30.9608 38.3077 31.3319 38.3341 31.7016C38.3357 32.4082 38.6171 33.0853 39.1167 33.585C39.6163 34.0846 40.2935 34.366 41.0001 34.3676C41.6916 34.3204 42.3426 34.0243 42.8327 33.5342C43.3228 33.0441 43.6189 32.3931 43.6661 31.7016C43.6752 30.966 43.4052 30.2543 42.9105 29.7099C42.4158 29.1655 41.7332 28.8287 41.0001 28.7676Z" fill="#2D373D"/>
<path d="M22.3339 37.3019C21.5991 37.2956 20.889 37.5665 20.3452 38.0607C19.8013 38.5548 19.4638 39.2358 19.3999 39.9679C19.4638 40.6999 19.8013 41.3809 20.3452 41.8751C20.889 42.3692 21.5991 42.6402 22.3339 42.6339C23.0405 42.6323 23.7177 42.3509 24.2173 41.8513C24.7169 41.3516 24.9983 40.6744 24.9999 39.9679C24.9527 39.2764 24.6567 38.6253 24.1665 38.1352C23.6764 37.6451 23.0254 37.3491 22.3339 37.3019Z" fill="#2D373D"/>
<path d="M31.9321 37.3018C31.2255 37.3033 30.5483 37.5847 30.0487 38.0844C29.5491 38.584 29.2677 39.2612 29.2661 39.9678C29.3133 40.6593 29.6094 41.3103 30.0995 41.8004C30.5896 42.2905 31.2406 42.5865 31.9321 42.6338C32.6236 42.5865 33.2746 42.2905 33.7648 41.8004C34.2549 41.3103 34.5509 40.6593 34.5981 39.9678C34.5965 39.2612 34.3151 38.584 33.8155 38.0844C33.3159 37.5847 32.6387 37.3033 31.9321 37.3018Z" fill="#2D373D"/>
<path d="M41 42.8999C42.4724 42.8999 43.666 41.7063 43.666 40.2339C43.666 38.7615 42.4724 37.5679 41 37.5679C39.5276 37.5679 38.334 38.7615 38.334 40.2339C38.334 41.7063 39.5276 42.8999 41 42.8999Z" fill="#2D373D"/>
<path d="M41 51.6997C42.4724 51.6997 43.666 50.5061 43.666 49.0337C43.666 47.5613 42.4724 46.3677 41 46.3677C39.5276 46.3677 38.334 47.5613 38.334 49.0337C38.334 50.5061 39.5276 51.6997 41 51.6997Z" fill="#2D373D"/>
<path d="M31.9321 46.3677C31.2255 46.3693 30.5483 46.6507 30.0487 47.1503C29.5491 47.6499 29.2677 48.3271 29.2661 49.0337C29.3133 49.7252 29.6094 50.3762 30.0995 50.8663C30.5896 51.3564 31.2406 51.6525 31.9321 51.6997C32.6236 51.6525 33.2746 51.3564 33.7648 50.8663C34.2549 50.3762 34.5509 49.7252 34.5981 49.0337C34.5965 48.3271 34.3151 47.6499 33.8155 47.1503C33.3159 46.6507 32.6387 46.3693 31.9321 46.3677Z" fill="#2D373D"/>
<path d="M22.3339 46.3678C21.5991 46.3615 20.889 46.6324 20.3452 47.1266C19.8013 47.6207 19.4638 48.3018 19.3999 49.0338C19.4638 49.7658 19.8013 50.4468 20.3452 50.941C20.889 51.4351 21.5991 51.7061 22.3339 51.6998C23.0405 51.6982 23.7177 51.4168 24.2173 50.9172C24.7169 50.4175 24.9983 49.7404 24.9999 49.0338C24.9527 48.3423 24.6567 47.6913 24.1665 47.2011C23.6764 46.711 23.0254 46.415 22.3339 46.3678Z" fill="#2D373D"/>
</svg>
