<svg width="16" height="17" viewBox="0 0 16 17" fill="none" xmlns="http://www.w3.org/2000/svg">
<path d="M7.6165 8.46161L5.3165 6.1616C5.1165 5.9616 5.1165 5.6616 5.3165 5.4616C5.5165 5.2616 5.8165 5.2616 6.0165 5.4616L8.6665 8.11161C8.8665 8.31161 8.8665 8.61161 8.6665 8.81161L6.0165 11.5116C5.9165 11.6116 5.8165 11.6616 5.6665 11.6616C5.5165 11.6616 5.4165 11.6116 5.3165 11.5116C5.1165 11.3116 5.1165 11.0116 5.3165 10.8116L7.6165 8.46161Z" fill="#2D373D"/>
<path fill-rule="evenodd" clip-rule="evenodd" d="M10.6668 5.29492C10.3906 5.29492 10.1668 5.51878 10.1668 5.79492V11.1283C10.1668 11.4044 10.3906 11.6283 10.6668 11.6283C10.9429 11.6283 11.1668 11.4044 11.1668 11.1283V5.79492C11.1668 5.51878 10.9429 5.29492 10.6668 5.29492Z" fill="#2D373D"/>
</svg>
