<svg width="32" height="33" viewBox="0 0 32 33" fill="none" xmlns="http://www.w3.org/2000/svg">
<path d="M7.33422 8.1787C6.9227 7.81038 6.2905 7.8454 5.92217 8.25692C3.85603 10.5654 2.66504 13.6071 2.66504 16.9238C2.66504 20.2405 3.85603 23.2823 5.92217 25.5907C6.2905 26.0023 6.9227 26.0373 7.33422 25.669C7.74575 25.3006 7.78077 24.6684 7.41244 24.2569C5.67827 22.3193 4.66504 19.754 4.66504 16.9238C4.66504 14.0937 5.67827 11.5283 7.41244 9.59075C7.78077 9.17922 7.74575 8.54703 7.33422 8.1787Z" fill="#2D373D"/>
<path d="M26.079 8.25692C25.7107 7.8454 25.0785 7.81038 24.667 8.1787C24.2555 8.54703 24.2205 9.17922 24.5888 9.59075C26.323 11.5283 27.3362 14.0937 27.3362 16.9238C27.3362 19.754 26.323 22.3193 24.5888 24.2569C24.2205 24.6684 24.2555 25.3006 24.667 25.669C25.0785 26.0373 25.7107 26.0023 26.079 25.5907C28.1452 23.2823 29.3362 20.2405 29.3362 16.9238C29.3362 13.6071 28.1452 10.5654 26.079 8.25692Z" fill="#2D373D"/>
<path fill-rule="evenodd" clip-rule="evenodd" d="M15.0006 20.1046C13.6482 19.6798 12.6673 18.4164 12.6673 16.9238C12.6673 15.0829 14.1597 13.5905 16.0006 13.5905C17.8416 13.5905 19.3339 15.0829 19.3339 16.9238C19.3339 18.4164 18.353 19.6798 17.0006 20.1046V29.2622C17.0006 29.8145 16.5529 30.2622 16.0006 30.2622C15.4483 30.2622 15.0006 29.8145 15.0006 29.2622V20.1046ZM16.0006 18.2572C15.2642 18.2572 14.6673 17.6602 14.6673 16.9238C14.6673 16.1874 15.2642 15.5905 16.0006 15.5905C16.737 15.5905 17.3339 16.1874 17.3339 16.9238C17.3339 17.6602 16.737 18.2572 16.0006 18.2572Z" fill="#2D373D"/>
<path d="M20.6012 10.791C20.1596 10.4593 19.5327 10.5484 19.201 10.99C18.8694 11.4316 18.9584 12.0584 19.4 12.3901C20.7787 13.4256 21.6673 15.0711 21.6673 16.9244C21.6673 18.7777 20.7787 20.4231 19.4 21.4586C18.9584 21.7903 18.8694 22.4172 19.201 22.8588C19.5327 23.3004 20.1596 23.3895 20.6012 23.0578C22.4611 21.6607 23.6673 19.4333 23.6673 16.9244C23.6673 14.4155 22.4611 12.188 20.6012 10.791Z" fill="#2D373D"/>
<path d="M12.8002 10.99C12.4685 10.5484 11.8416 10.4593 11.4 10.791C9.54012 12.188 8.33393 14.4155 8.33393 16.9244C8.33393 19.4333 9.54012 21.6607 11.4 23.0578C11.8416 23.3895 12.4685 23.3004 12.8002 22.8588C13.1319 22.4172 13.0428 21.7903 12.6012 21.4586C11.2225 20.4231 10.3339 18.7777 10.3339 16.9244C10.3339 15.0711 11.2225 13.4256 12.6012 12.3901C13.0428 12.0584 13.1319 11.4316 12.8002 10.99Z" fill="#2D373D"/>
</svg>
