<svg width="32" height="33" viewBox="0 0 32 33" fill="none" xmlns="http://www.w3.org/2000/svg">
<path d="M23.9999 4.36133H7.7999C6.7999 4.36133 5.7999 4.76133 5.0999 5.56133C4.2999 6.36133 3.8999 7.26133 3.8999 8.36133V17.1613C3.8999 19.3613 5.6999 21.1613 7.7999 21.1613C8.3999 21.1613 8.7999 20.7613 8.7999 20.1613C8.7999 19.5613 8.3999 19.1613 7.7999 19.1613C6.7999 19.1613 5.8999 18.3613 5.8999 17.2613V8.36133C5.8999 7.76133 5.9999 7.36133 6.3999 6.96133C6.7999 6.56133 7.2999 6.36133 7.7999 6.36133H23.9999C25.0999 6.36133 25.9999 7.26133 25.9999 8.36133V17.2613C25.9999 17.7613 25.7999 18.1613 25.4999 18.5613C25.0999 18.9613 25.1999 19.5613 25.5999 19.9613C25.9999 20.3613 26.5999 20.2613 26.9999 19.8613C27.6999 19.1613 27.9999 18.2613 27.9999 17.2613V8.36133C27.9999 6.16133 26.1999 4.36133 23.9999 4.36133Z" fill="#2D373D"/>
<path d="M22.4998 17.7614L19.1998 17.0614V11.9614C19.1998 10.5614 18.0998 9.46143 16.6998 9.46143C15.2998 9.46143 14.1998 10.5614 14.1998 11.9614V19.5614H14.0998L13.9998 19.4614C13.3998 19.0614 12.7998 18.9614 12.0998 19.0614C11.3998 19.2614 10.8998 19.5614 10.4998 20.1614C9.89979 21.0614 9.99979 22.2614 10.5998 23.0614L14.3998 28.0614C14.5998 28.3614 14.8998 28.4614 15.1998 28.4614H24.0998C24.5998 28.4614 24.9998 28.0614 25.0998 27.4614L25.5998 21.9614C25.7998 19.9614 24.3998 18.1614 22.4998 17.7614ZM23.4998 21.8614L23.0998 26.4614H15.6998L12.0998 21.7614C11.9998 21.5614 11.9998 21.3614 12.0998 21.1614C12.1998 21.0614 12.2998 20.9614 12.3998 20.9614C12.4998 20.9614 12.6998 20.9614 12.7998 21.0614L14.4998 22.3614C14.7998 22.5614 15.1998 22.6614 15.4998 22.4614C15.8998 22.2614 16.0998 21.9614 16.0998 21.5614V11.9614C16.0998 11.6614 16.2998 11.4614 16.5998 11.4614C16.8998 11.4614 17.0998 11.6614 17.0998 11.9614V17.8614C17.0998 18.3614 17.3998 18.7614 17.8998 18.8614L21.9998 19.7614C22.8998 19.9614 23.5998 20.8614 23.4998 21.8614Z" fill="#2D373D"/>
</svg>
