<svg width="16" height="17" viewBox="0 0 16 17" fill="none" xmlns="http://www.w3.org/2000/svg">
<path d="M13.7502 9.36208C13.7002 9.16208 13.5502 9.01208 13.4002 8.86208C13.0502 8.46208 12.5502 8.26208 12.0002 8.26208C11.4502 8.26208 11.0002 8.46208 10.6002 8.86208L10.5502 8.91208L10.5002 8.86208C10.3502 8.71208 10.2002 8.61208 10.0002 8.51208C9.0502 8.01208 7.8502 8.41208 7.3502 9.41208C6.9502 10.2121 7.1002 11.1121 7.7002 11.7121L10.2002 14.3121C10.3002 14.4121 10.4002 14.4621 10.5502 14.4621C10.7002 14.4621 10.8502 14.4121 10.9002 14.2621L13.4002 11.6621C14.0002 11.0621 14.1502 10.1121 13.7502 9.36208ZM12.7002 11.0121L10.5502 13.2621L8.4002 11.0121C8.1002 10.7121 8.0002 10.2621 8.2002 9.86208C8.4002 9.51208 8.7502 9.31209 9.1002 9.31209C9.2502 9.31209 9.4002 9.36208 9.5502 9.41208C9.6502 9.46208 9.7002 9.51208 9.8002 9.61208L10.2002 10.0121C10.4002 10.2121 10.7002 10.2121 10.9002 10.0121L11.3002 9.61208C11.5002 9.41208 11.7502 9.31209 12.0002 9.31209C12.2502 9.31209 12.5002 9.41208 12.7002 9.61208C12.8002 9.66208 12.8502 9.76208 12.9002 9.86208C13.1002 10.2621 13.0002 10.7121 12.7002 11.0121Z" fill="#2D373D"/>
<path d="M6.1502 12.0121H3.2002C3.0502 12.0121 2.9502 11.9121 2.9502 11.7621V3.66211C2.9502 3.51211 3.0502 3.41211 3.2002 3.41211H8.4002C8.5002 3.41211 8.5502 3.41211 8.6002 3.51211L10.0002 4.91211C10.0502 4.96211 10.0502 5.01211 10.0502 5.06211V7.31211C10.0502 7.61211 10.2502 7.81211 10.5502 7.81211C10.8502 7.81211 11.0502 7.61211 11.0502 7.31211V5.06211C11.0502 4.71211 10.9502 4.41211 10.7002 4.16211L9.3002 2.76211C9.1002 2.56211 8.8002 2.41211 8.4502 2.41211H3.2002C2.5002 2.41211 1.9502 2.96211 1.9502 3.66211V11.7621C1.9502 12.4621 2.5002 13.0121 3.2002 13.0121H6.1502C6.4502 13.0121 6.6502 12.8121 6.6502 12.5121C6.6502 12.2121 6.4502 12.0121 6.1502 12.0121Z" fill="#2D373D"/>
</svg>
