<svg width="32" height="32" viewBox="0 0 32 32" fill="none" xmlns="http://www.w3.org/2000/svg">
<path d="M19.5 28.1C19.3 28.1 19.1 28.1 19 28L10.3 22.9H3.60005C3.00005 22.9 2.60005 22.5 2.60005 21.9V10.2C2.60005 9.59998 3.00005 9.19998 3.60005 9.19998H10.3L19 4.09998C19.3 3.89998 19.7 3.89998 20 4.09998C20.3 4.29998 20.5 4.59998 20.5 4.99998V27.1C20.5 27.5 20.3 27.8 20 28C19.9 28 19.7 28.1 19.5 28.1ZM4.60005 20.8H10.6C10.8 20.8 11 20.8 11.1 20.9L18.5 25.3V6.69998L11.1 11C10.9 11.1 10.8 11.1 10.6 11.1H4.60005V20.8Z" fill="#2D373D"/>
<path d="M24.2 23.5001C23.9 23.5001 23.6 23.4001 23.5 23.2001C23.1 22.8001 23.2 22.2001 23.6 21.8001C25.2 20.4001 26.1 18.3001 26.1 16.2001C26.2 14.1001 25.2 12.1001 23.6 10.8001C23.2 10.5001 23.1 9.80009 23.4 9.40009C23.7 9.00009 24.4 8.90009 24.8 9.20009C26.9 10.9001 28.1 13.5001 28 16.2001C28 18.9001 26.9 21.5001 24.8 23.3001C24.7 23.4001 24.4 23.5001 24.2 23.5001Z" fill="#2D373D"/>
</svg>
