<svg width="64" height="64" viewBox="0 0 64 64" fill="none" xmlns="http://www.w3.org/2000/svg">
<path d="M58.8003 32.6001C58.8003 32.0001 58.4003 31.4001 57.8003 31.2001C50.0003 27.2001 40.6003 27.2001 32.6003 31.4001C29.4003 33.2001 27.4003 35.8001 26.8003 38.8001C26.4003 41.6001 27.2003 44.4001 29.0003 47.4001C27.8003 49.2001 26.4003 51.6001 25.4003 54.4001C24.8003 55.4001 25.4003 56.6001 26.4003 57.0001C26.6003 57.2001 27.0003 57.2001 27.2003 57.2001C28.0003 57.2001 28.8003 56.8001 29.2003 56.0001C30.0003 54.2001 30.8003 52.6001 31.6003 51.2001C33.0003 53.4001 36.2003 57.2001 41.0003 57.2001C41.2003 57.2001 41.4003 57.2001 41.8003 57.2001C51.0003 56.2001 53.6003 48.0001 55.6003 41.2001C56.4003 38.4001 57.2003 35.6001 58.4003 34.2001C58.8003 33.8001 59.0003 33.2001 58.8003 32.6001ZM51.6003 40.2001C49.8003 46.2001 47.8003 52.6001 41.2003 53.2001C37.0003 53.6001 34.0003 47.8001 34.0003 47.8001C37.4003 43.8001 40.6003 43.4001 40.8003 43.4001C41.8003 43.2001 42.6003 42.2001 42.6003 41.2001C42.4003 40.2001 41.4003 39.4001 40.4003 39.4001C40.2003 39.4001 36.0003 39.8001 31.6003 44.4001C30.6003 42.6001 30.2003 41.0001 30.4003 39.6001C30.8003 37.8001 32.0003 36.2001 34.2003 35.0001C40.2003 32.0001 47.4003 31.6001 53.8003 34.0001C53.0003 35.8001 52.2003 38.0001 51.6003 40.2001Z" fill="#2D373D"/>
<path d="M14.0002 30.7999C14.2002 31 14.6002 31 14.8002 31C16.4002 31 17.6002 29.6 17.6002 28C17.6002 27.6 17.6002 27.4 17.4002 27.2C17.2002 26.4 16.4002 25.6 15.6002 25.4C15.4002 25.1999 15.0002 25.2 14.8002 25.2C13.2002 25.2 12.0002 26.6 12.0002 28C12.0002 29.6 12.8002 30.5999 14.0002 30.7999Z" fill="#2D373D"/>
<path d="M22.4002 33.6001H10.6002C9.8002 33.6001 9.2002 33.0001 9.2002 32.2001V27.2001C9.2002 25.2001 10.6002 23.4001 12.4002 22.8001C12.6002 22.8001 13.0002 22.6001 13.2002 22.6001C13.4002 22.6001 13.8002 22.6001 14.0002 22.6001H47.6002C48.0002 22.6001 48.4002 22.6001 48.6002 22.8001C48.8002 23.0001 49.0002 23.0001 49.4002 23.0001C50.4002 23.4001 51.4002 24.2001 51.8002 25.0001C52.4002 26.0001 53.6002 26.4001 54.6002 25.8001C55.6002 25.2001 56.0002 24.0001 55.4002 23.0001C54.4002 21.2001 52.8002 20.0001 51.0002 19.2001L47.4002 11.4001C46.4002 8.60006 43.8002 6.80007 40.8002 6.80007H20.8002C18.0002 6.60007 15.2002 8.40007 14.4002 11.0001L10.8002 19.0001C7.6002 20.4001 5.2002 23.4001 5.2002 27.2001V32.4001C5.2002 34.0001 5.8002 35.2001 6.8002 36.2001V39.0001C6.8002 42.0001 9.2002 44.4001 12.2002 44.4001C15.2002 44.4001 17.6002 42.0001 17.6002 39.0001V37.8001H22.4002C23.6002 37.8001 24.4002 36.8001 24.4002 35.6001C24.4002 34.4001 23.6002 33.6001 22.4002 33.6001ZM18.0002 12.6001C18.4002 11.4001 19.6002 10.6001 21.0002 10.6001H41.0002C42.2002 10.6001 43.4002 11.4001 43.8002 12.8001L46.4002 18.4001H15.4002L18.0002 12.6001ZM13.6002 39.0001C13.6002 39.8001 13.0002 40.4001 12.2002 40.4001C11.4002 40.4001 10.8002 39.8001 10.8002 39.0001V37.8001H13.6002V39.0001Z" fill="#2D373D"/>
</svg>
