<svg width="32" height="33" viewBox="0 0 32 33" fill="none" xmlns="http://www.w3.org/2000/svg">
<path d="M15.0572 9.19932C15.5779 9.72002 16.4221 9.72002 16.9428 9.19932C17.4635 8.67862 17.4635 7.8344 16.9428 7.3137C16.4221 6.793 15.5779 6.793 15.0572 7.3137C14.5365 7.8344 14.5365 8.67862 15.0572 9.19932Z" fill="#2D373D"/>
<path fill-rule="evenodd" clip-rule="evenodd" d="M15.6193 3.66517C15.8631 3.56474 16.1369 3.56474 16.3808 3.66517L22.0474 5.9985C22.4221 6.15279 22.6667 6.51795 22.6667 6.92318V10.2565H23.3333C23.8856 10.2565 24.3333 10.7042 24.3333 11.2565C24.3333 11.8088 23.8856 12.2565 23.3333 12.2565H8.66667C8.11438 12.2565 7.66667 11.8088 7.66667 11.2565C7.66667 10.7042 8.11438 10.2565 8.66667 10.2565H9.33333V6.92318C9.33333 6.51795 9.57788 6.15279 9.95258 5.9985L15.6193 3.66517ZM20.6667 7.59287V10.2565H11.3333V7.59287L16 5.6713L20.6667 7.59287Z" fill="#2D373D"/>
<path fill-rule="evenodd" clip-rule="evenodd" d="M15.1426 28.1032L11.9526 22.7866L10.5658 26.4847L13.8372 28.393C14.3142 28.6713 14.4754 29.2836 14.1971 29.7607C13.9188 30.2377 13.3065 30.3988 12.8294 30.1206L8.82943 27.7872C8.40854 27.5417 8.22588 27.0286 8.39697 26.5723L9.62763 23.2906C9.47296 23.3964 9.32142 23.5058 9.17336 23.6187C7.23353 25.0979 6 27.0817 6 29.2565C6 29.8088 5.55228 30.2565 5 30.2565C4.44772 30.2565 4 29.8088 4 29.2565C4 26.2766 5.68914 23.7604 7.96063 22.0283C10.2317 20.2965 13.1927 19.2565 16 19.2565C18.8073 19.2565 21.7683 20.2965 24.0394 22.0283C26.3109 23.7604 28 26.2766 28 29.2565C28 29.8088 27.5523 30.2565 27 30.2565C26.4477 30.2565 26 29.8088 26 29.2565C26 27.0817 24.7665 25.0979 22.8266 23.6187C22.6787 23.5059 22.5273 23.3965 22.3727 23.2908L23.603 26.5716C23.7741 27.0279 23.5915 27.541 23.1706 27.7865L19.1706 30.1199C18.6935 30.3981 18.0812 30.237 17.8029 29.7599C17.5246 29.2829 17.6858 28.6706 18.1628 28.3923L21.4342 26.484L20.0476 22.7865L16.8576 28.1032C16.6768 28.4044 16.3513 28.5887 16.0001 28.5887C15.6488 28.5887 15.3233 28.4044 15.1426 28.1032ZM16.0001 25.6451L13.5472 21.5569C14.3661 21.3605 15.1943 21.2565 16 21.2565C16.8057 21.2565 17.634 21.3605 18.453 21.5569L16.0001 25.6451Z" fill="#2D373D"/>
<path d="M12.4285 13.7904C12.4285 13.2381 11.9808 12.7904 11.4285 12.7904C10.8763 12.7904 10.4285 13.2381 10.4285 13.7904C10.4285 15.2658 11.2147 16.526 12.2449 17.3863C13.2741 18.2459 14.6396 18.7904 16 18.7904C17.3605 18.7904 18.7259 18.2459 19.7552 17.3863C20.7853 16.526 21.5714 15.2658 21.5714 13.7904C21.5714 13.2381 21.1237 12.7904 20.5714 12.7904C20.0191 12.7904 19.5714 13.2381 19.5714 13.7904C19.5714 14.5241 19.1764 15.2639 18.4731 15.8513C17.769 16.4394 16.8487 16.7904 16 16.7904C15.1514 16.7904 14.2311 16.4394 13.5269 15.8513C12.8235 15.2638 12.4285 14.5241 12.4285 13.7904Z" fill="#2D373D"/>
</svg>
