<svg width="24" height="25" viewBox="0 0 24 25" fill="none" xmlns="http://www.w3.org/2000/svg">
<path d="M19.275 7.50694H17.325V5.56503C17.325 4.66876 16.575 3.92188 15.675 3.92188H12.975C12.075 3.92188 11.325 4.66876 11.325 5.56503V7.50694H9.37499C8.47499 7.50694 7.72499 8.25383 7.72499 9.1501V11.3908C7.72499 11.8389 8.02499 12.1377 8.47499 12.1377C8.92499 12.1377 9.22499 11.8389 9.22499 11.3908V9.1501C9.22499 9.07541 9.29999 9.00072 9.37499 9.00072H12.075C12.525 9.00072 12.825 8.70197 12.825 8.25383V5.56503C12.825 5.49034 12.9 5.41565 12.975 5.41565H15.675C15.75 5.41565 15.825 5.49034 15.825 5.56503V8.25383C15.825 8.70197 16.125 9.00072 16.575 9.00072H19.275C19.35 9.00072 19.425 9.07541 19.425 9.1501V11.9136C19.425 11.9883 19.35 12.063 19.275 12.063H16.575C16.125 12.063 15.825 12.3617 15.825 12.8099V15.4987C15.825 15.5734 15.75 15.648 15.675 15.648H13.5C13.05 15.648 12.75 15.9468 12.75 16.3949C12.75 16.8431 13.05 17.1418 13.5 17.1418H15.675C16.65 17.1418 17.4 16.3949 17.4 15.424V13.4821H19.35C20.25 13.4821 21 12.7352 21 11.8389V9.1501C21 8.25383 20.25 7.50694 19.275 7.50694Z" fill="#2D373D"/>
<path d="M8.25005 14.8264C8.02505 14.9758 7.72505 15.1251 7.42505 15.1251C6.82505 15.1251 6.30005 14.6023 6.30005 14.0048V13.9301C6.30005 13.3326 6.82505 12.8098 7.42505 12.8098C8.02505 12.8098 8.55005 13.3326 8.55005 13.9301V14.0048C8.55005 14.3036 8.40005 14.6023 8.25005 14.8264Z" fill="#2D373D"/>
<path d="M9.59998 15.4987C9.59998 14.9012 10.125 14.3783 10.725 14.3783C11.325 14.3783 11.85 14.9012 11.85 15.4987C11.85 15.7974 11.7 16.0962 11.55 16.3202C11.325 16.5443 11.025 16.619 10.725 16.619C10.125 16.619 9.59998 16.0962 9.59998 15.4987Z" fill="#2D373D"/>
<path d="M4.95 16.3202C5.1 16.0962 5.25 15.7974 5.25 15.4987C5.25 14.9012 4.8 14.3783 4.125 14.3783C3.525 14.3783 3 14.9012 3 15.4987C3 16.0962 3.525 16.619 4.125 16.619C4.425 16.619 4.725 16.5443 4.95 16.3202Z" fill="#2D373D"/>
<path fill-rule="evenodd" clip-rule="evenodd" d="M7.42495 16.0214C7.94995 16.0214 8.47495 16.2455 8.84995 16.619L10.8 18.5609C11.175 18.9343 11.4 19.4571 11.4 19.98C11.4 20.5028 11.175 21.0256 10.8 21.3991C10.425 21.7725 9.89995 21.9219 9.37495 21.9219H5.47495C4.34995 21.9219 3.44995 21.0256 3.44995 19.9053C3.44995 19.3825 3.67495 18.8596 4.04995 18.4862L5.99995 16.619C6.37495 16.2455 6.89995 16.0214 7.42495 16.0214ZM9.64264 20.412C9.67495 20.3934 9.70976 20.3734 9.74995 20.3534C9.82495 20.2787 9.89995 20.1293 9.89995 19.98C9.89995 19.8706 9.85976 19.8013 9.8088 19.7134C9.79014 19.6812 9.77005 19.6465 9.74995 19.6065L7.79995 17.6646C7.72495 17.5899 7.57495 17.5152 7.42495 17.5152C7.31514 17.5152 7.24553 17.5553 7.15726 17.606C7.12495 17.6246 7.09014 17.6446 7.04995 17.6646L5.09995 19.6065C5.02495 19.6812 4.94995 19.8306 4.94995 19.98C4.94995 20.2787 5.17495 20.5028 5.47495 20.5028H9.37495C9.48476 20.5028 9.55437 20.4628 9.64264 20.412Z" fill="#2D373D"/>
</svg>
