<svg width="24" height="25" viewBox="0 0 24 25" fill="none" xmlns="http://www.w3.org/2000/svg">
<path d="M16.0946 13.9963C15.8957 13.9963 15.7049 14.0753 15.5643 14.216C15.4236 14.3566 15.3446 14.5474 15.3446 14.7463C15.373 15.4852 15.107 16.2051 14.6049 16.7479C14.1029 17.2907 13.4059 17.612 12.6671 17.6413C12.5654 17.6412 12.4647 17.6617 12.3712 17.7018C12.2776 17.7418 12.1932 17.8004 12.1231 17.8741C12.0529 17.9477 11.9985 18.0349 11.9631 18.1303C11.9277 18.2256 11.912 18.3272 11.9171 18.4288C11.9267 18.6211 12.01 18.8024 12.1496 18.9351C12.2892 19.0677 12.4745 19.1415 12.6671 19.1413C13.2335 19.1243 13.7907 18.9941 14.3059 18.7584C14.8211 18.5227 15.284 18.1862 15.6671 17.7688C16.4405 16.9329 16.8505 15.8243 16.8071 14.6863C16.7927 14.5043 16.7124 14.3337 16.5812 14.2067C16.45 14.0797 16.277 14.0049 16.0946 13.9963Z" fill="#2D373D"/>
<path d="M10.7696 3.00881C10.558 2.98485 10.344 3.02399 10.1546 3.12131C9.96358 3.21993 9.80771 3.37521 9.70835 3.56586C9.609 3.75652 9.57102 3.97323 9.59961 4.18631C9.62194 4.40224 9.7141 4.605 9.86211 4.76381C13.9421 9.30881 12.1121 12.1063 11.0021 13.1713C10.6438 12.8416 10.3665 12.4335 10.1921 11.9788C9.99822 11.4753 9.93375 10.9312 10.0046 10.3963C10.0271 10.217 9.99847 10.0351 9.92211 9.87131C9.85095 9.70259 9.73405 9.55712 9.58461 9.45131C9.44112 9.34001 9.26997 9.26999 9.08961 9.24881C8.9148 9.22597 8.73706 9.24658 8.57211 9.30881C7.23039 9.82465 6.07937 10.74 5.27459 11.931C4.46982 13.1221 4.05008 14.5315 4.07211 15.9688C4.07211 19.6363 7.82211 22.8538 12.1796 22.8538C17.7521 22.8538 20.2946 18.3538 20.2946 14.1313C20.2496 9.01631 15.6521 3.60881 10.7696 3.00881ZM12.1571 21.3538C8.63961 21.3538 5.54961 18.8413 5.54961 15.9613C5.53412 14.944 5.79971 13.9421 6.31713 13.0661C6.83455 12.1901 7.58371 11.4738 8.48211 10.9963C8.50061 11.5099 8.60453 12.0169 8.78961 12.4963C9.06415 13.2415 9.52352 13.9048 10.1246 14.4238C10.3789 14.6362 10.7008 14.7506 11.0321 14.7463C11.3633 14.738 11.6803 14.6101 11.9246 14.3863C12.9596 13.4338 15.8396 10.0438 11.8121 4.79381C15.4796 5.94881 18.7496 10.2088 18.7496 14.1313C18.7496 17.7238 16.7246 21.3538 12.1571 21.3538Z" fill="#2D373D"/>
</svg>
