<svg width="32" height="33" viewBox="0 0 32 33" fill="none" xmlns="http://www.w3.org/2000/svg">
<path d="M28.0001 19.6612L25.8001 15.1612C26.3001 15.0612 26.6001 14.7612 26.6001 14.1612C26.6001 13.5612 26.2001 13.1612 25.6001 13.1612H19.2001V12.7612C19.2001 12.1612 18.8001 11.7612 18.2001 11.7612C17.6001 11.7612 17.2001 12.1612 17.2001 12.7612V13.1612H10.8001C10.2001 13.1612 9.80013 13.5612 9.80013 14.1612C9.80013 14.6612 10.1001 15.0612 10.7001 15.1612L8.40013 19.5612C8.20013 19.9612 8.20013 20.2612 8.50013 20.5612C8.70013 22.5612 10.3001 24.0612 12.3001 24.0612C14.5001 24.0612 16.2001 22.2612 16.3001 20.0612C16.3001 19.8612 16.2001 19.7612 16.2001 19.5612L14.0001 15.1612H17.3001V23.6612C16.6001 23.8612 16.0001 24.2612 15.5001 24.6612C14.7001 25.4612 14.3001 26.3612 14.3001 27.4612C14.3001 28.0612 14.7001 28.4612 15.3001 28.4612L21.3001 28.3612C21.6001 28.3612 21.8001 28.2612 22.0001 28.0612C22.2001 27.8612 22.3001 27.6612 22.3001 27.3612C22.3001 25.5612 21.0001 24.0612 19.3001 23.5612V15.1612H22.7001L20.4001 19.4612C20.2001 19.6612 20.1001 19.8612 20.1001 20.1612C20.2001 22.2612 21.9001 24.0612 24.1001 24.0612C25.1001 24.0612 26.1001 23.6612 26.8001 22.9612C27.5001 22.2612 27.9001 21.4612 28.0001 20.5612C28.1001 20.3612 28.2001 19.9612 28.0001 19.6612ZM12.3001 22.0612C11.6001 22.0612 10.9001 21.6612 10.6001 21.0612H14.0001C13.6001 21.6612 13.0001 22.0612 12.3001 22.0612ZM10.9001 19.0612L12.3001 16.3612L13.7001 19.0612H10.9001ZM19.8001 26.4612H16.5001C16.6001 26.3612 16.7001 26.2612 16.7001 26.0612C17.0001 25.7612 17.4001 25.5612 17.8001 25.4612C17.9001 25.4612 18.1001 25.5612 18.2001 25.5612C18.3001 25.5612 18.4001 25.5612 18.4001 25.4612C19.0001 25.6612 19.6001 25.9612 19.8001 26.4612ZM25.6001 19.1612H22.8001L24.2001 16.4612L25.6001 19.1612ZM25.5001 21.3612C25.1001 21.7612 24.6001 21.9612 24.1001 21.9612C23.4001 21.9612 22.7001 21.6612 22.4001 21.0612V20.9612H25.8001C25.7001 21.1612 25.6001 21.2612 25.5001 21.3612Z" fill="#2D373D"/>
<path d="M10.7999 25.0613H6.3999C6.0999 25.0613 5.8999 24.8613 5.8999 24.5613V6.86133C5.8999 6.56133 6.0999 6.36133 6.3999 6.36133H16.2999L20.0999 10.1613V11.2613C20.0999 11.8613 20.4999 12.2613 21.0999 12.2613C21.6999 12.2613 22.0999 11.8613 22.0999 11.2613V10.0613C22.0999 9.66133 21.8999 9.16133 21.5999 8.86133L17.5999 4.86133C17.2999 4.56133 16.8999 4.36133 16.3999 4.36133H6.3999C4.9999 4.36133 3.8999 5.46133 3.8999 6.86133V24.4613C3.8999 25.8613 4.9999 26.9613 6.3999 26.9613H10.7999C11.3999 26.9613 11.7999 26.6613 11.7999 26.0613C11.7999 25.4613 11.3999 25.0613 10.7999 25.0613Z" fill="#2D373D"/>
</svg>
