<svg width="24" height="24" viewBox="0 0 24 24" fill="none" xmlns="http://www.w3.org/2000/svg">
<path d="M21.5248 10.5751C19.3498 8.1751 15.6748 5.6251 11.9998 5.7001C8.32481 5.6251 4.6498 8.1751 2.5498 10.6501C1.7998 11.4751 1.7998 12.6751 2.5498 13.5001C4.7248 15.8251 8.3248 18.3751 11.9248 18.3751C11.9998 18.3751 12.0748 18.3751 12.1498 18.3751C15.7498 18.3751 19.3498 15.8251 21.5248 13.4251C22.2748 12.6001 22.2748 11.4001 21.5248 10.5751ZM20.3998 12.4501C18.4498 14.6251 15.2248 16.8751 12.0748 16.8751H11.9998C8.7748 16.9501 5.5498 14.6251 3.5998 12.4501C3.3748 12.2251 3.3748 11.8501 3.5998 11.6251C5.5498 9.4501 8.84981 7.1251 11.9998 7.2001C15.2248 7.1251 18.4498 9.4501 20.3998 11.6251C20.6248 11.8501 20.6248 12.2251 20.3998 12.4501Z" fill="#2D373D"/>
<path d="M11.9998 8.25006C9.8998 8.25006 8.1748 9.97506 8.1748 12.0751C8.1748 13.0501 8.5498 14.0251 9.2998 14.7751C9.9748 15.5251 10.9498 15.9001 11.9998 15.9001C13.0498 15.9001 13.9498 15.4501 14.6998 14.7751C15.4498 14.1001 15.8248 13.1251 15.8248 12.0751C15.8248 11.1001 15.4498 10.1251 14.6998 9.37506C14.0248 8.62506 13.0498 8.25006 11.9998 8.25006ZM13.6498 13.6501C13.1998 14.1001 12.5998 14.3251 11.9998 14.3251C11.3998 14.3251 10.7998 14.1001 10.3498 13.6501C9.89981 13.2001 9.6748 12.6001 9.6748 12.0001C9.6748 10.7251 10.7248 9.67506 11.9998 9.67506C12.5998 9.67506 13.1998 9.90006 13.6498 10.3501C14.0998 10.8001 14.3248 11.4001 14.3248 12.0001C14.3248 12.6001 14.0998 13.2001 13.6498 13.6501Z" fill="#2D373D"/>
</svg>
