<svg width="64" height="65" viewBox="0 0 64 65" fill="none" xmlns="http://www.w3.org/2000/svg">
<path d="M58.2 26.2602C56.4 19.2602 52.2 13.4602 46.2 9.66016C41.8 7.06016 37 5.66016 32 5.66016C17.2 5.66016 5.2 17.6602 5.2 32.2602C5.2 37.0602 6.4 41.6602 8.8 45.6602L5.2 56.6602C5 57.2602 5.2 58.0602 5.8 58.6602C6.2 59.0602 6.6 59.2602 7.2 59.2602C7.4 59.2602 7.8 59.2602 8 59.2602L18.8 55.6602C24.8 59.0602 31.6 60.0602 38.2 58.4602C45.2 56.6602 51 52.4602 54.8 46.4602C58.6 40.4602 59.8 33.2602 58.2 26.2602ZM51.4 44.2602C48.2 49.4602 43.2 53.0602 37.2 54.4602C31.2 55.8602 25.2 54.8602 20 51.8602C19.8 51.6602 19.4 51.4602 19 51.4602C18.8 51.4602 18.4 51.4602 18.2 51.4602L10.2 54.0602L12.8 45.8602C13 45.2602 13 44.6602 12.6 44.2602C10.4 40.6602 9.2 36.4602 9.2 32.2602C9.2 19.8602 19.4 9.66016 32 9.66016C36.2 9.66016 40.4 10.8602 44 13.0602C49.2 16.2602 52.8 21.0602 54.2 27.0602C55.6 33.0602 54.6 39.0602 51.4 44.2602Z" fill="#2D373D"/>
<path d="M43.9998 23.46C40.7998 20.26 35.5998 20.26 32.3998 23.46L31.9998 23.86L31.5998 23.46C30.9998 22.86 30.1998 22.26 29.3998 21.86C25.3998 19.66 20.3998 21.46 18.3998 25.46C16.7998 28.46 17.5998 32.46 19.9998 34.86L30.5998 45.86C30.9998 46.26 31.3998 46.46 31.9998 46.46C32.5998 46.46 32.9998 46.06 33.3998 45.66L43.9998 35.26C46.5998 32.66 47.1998 28.86 45.5998 25.66C45.1998 24.86 44.5998 24.06 43.9998 23.46ZM40.9998 32.06L31.9998 41.66L22.7998 32.06C21.5998 30.66 21.1998 28.66 21.9998 27.06C22.7998 25.46 24.1998 24.66 25.7998 24.66C26.3998 24.66 27.1998 24.86 27.7998 25.06C28.1998 25.26 28.3998 25.46 28.7998 25.86L30.5998 27.66C31.3998 28.46 32.5998 28.46 33.3998 27.66L34.9998 26.06C36.5998 24.46 39.3998 24.46 40.9998 26.06C41.3998 26.26 41.5998 26.66 41.7998 27.06C42.5998 28.86 42.3998 30.66 40.9998 32.06Z" fill="#2D373D"/>
</svg>
