<svg width="32" height="33" viewBox="0 0 32 33" fill="none" xmlns="http://www.w3.org/2000/svg">
<path d="M15.9998 17.6416H4.8665C3.65317 17.6416 2.6665 18.6149 2.6665 19.7883V28.1216C2.6665 29.2949 3.65317 30.2549 4.8665 30.2549H15.9998C17.2132 30.2549 18.1998 29.2949 18.1998 28.1216V19.7883C18.1998 18.6149 17.2132 17.6416 15.9998 17.6416ZM16.1998 28.1216C16.1998 28.1216 16.1198 28.2549 15.9998 28.2549H4.8665C4.7465 28.2549 4.6665 28.1883 4.6665 28.1216V19.7883C4.6665 19.7883 4.7465 19.6416 4.8665 19.6416H15.9998C16.1198 19.6416 16.1998 19.7216 16.1998 19.7883V28.1216Z" fill="#2D373D"/>
<path d="M12.7332 25.1765C12.6398 25.5498 12.4132 25.8698 12.0932 26.0965C11.8532 26.2698 11.5465 26.3765 11.2532 26.4032C11.1865 26.7098 10.9198 26.9232 10.5998 26.9232C10.2798 26.9232 10.0265 26.7232 9.95984 26.4298H9.39984C9.0265 26.4298 8.73317 26.1232 8.73317 25.7632C8.73317 25.4032 9.0265 25.0965 9.39984 25.0965H11.0265C11.1332 25.0965 11.2532 25.0565 11.3332 25.0032C11.3865 24.9632 11.4265 24.9232 11.4265 24.8832C11.3732 24.7365 11.3065 24.6965 11.2132 24.6698L9.55984 24.1098C9.1865 23.9898 8.87984 23.7498 8.6665 23.4432C8.45317 23.1098 8.3865 22.7098 8.4665 22.3365C8.55984 21.9632 8.7865 21.6298 9.11984 21.4165C9.35984 21.2432 9.63984 21.1498 9.9465 21.1232C10.0132 20.8165 10.2665 20.5898 10.5998 20.5898C10.9332 20.5898 11.1732 20.8032 11.2398 21.0965H11.7998C12.1732 21.0965 12.4665 21.3898 12.4665 21.7632C12.4665 22.1365 12.1732 22.4298 11.7998 22.4298H10.1732C10.0532 22.4298 9.9465 22.4565 9.8665 22.5098C9.81317 22.5498 9.77317 22.5898 9.77317 22.6298C9.8265 22.7765 9.89317 22.8165 9.9865 22.8432L11.6398 23.4032C12.0132 23.5232 12.3198 23.7632 12.5198 24.0698C12.7465 24.4032 12.8132 24.8032 12.7332 25.1765Z" fill="#2D373D"/>
<path d="M21.6665 3.58984C17.4398 3.58984 13.9998 7.02984 13.9998 11.2565C13.9998 15.4832 17.4398 18.9232 21.6665 18.9232C25.8931 18.9232 29.3331 15.4832 29.3331 11.2565C29.3331 7.02984 25.8931 3.58984 21.6665 3.58984ZM21.6665 5.58984C24.0665 5.58984 26.1331 7.09651 26.9465 9.21651H16.3865C17.1998 7.09651 19.2665 5.58984 21.6665 5.58984ZM24.9598 11.0965C24.9598 11.5765 24.5731 11.9632 24.0931 11.9632C23.6131 11.9632 23.2265 11.5765 23.2265 11.0965C23.2265 10.6165 23.6131 10.2432 24.0931 10.2432C24.5731 10.2432 24.9598 10.6298 24.9598 11.0965ZM19.5998 11.0965C19.5998 11.5765 19.2132 11.9632 18.7332 11.9632C18.2532 11.9632 17.8665 11.5765 17.8665 11.0965C17.8665 10.6165 18.2665 10.2432 18.7332 10.2432C19.1998 10.2432 19.5998 10.6298 19.5998 11.0965ZM21.6665 16.9232C19.2665 16.9232 17.1998 15.4165 16.3865 13.2965H26.9465C26.1331 15.4165 24.0665 16.9232 21.6665 16.9232Z" fill="#2D373D"/>
<path d="M22.6132 8.66904C22.3199 8.66904 22.0399 8.46904 21.9599 8.16237C21.8666 7.80237 22.0932 7.44237 22.4399 7.34904L24.4399 6.84237C24.7866 6.74904 25.1599 6.97571 25.2532 7.32237C25.3466 7.68237 25.1199 8.04237 24.7732 8.13571L22.7732 8.64237C22.7732 8.64237 22.6666 8.66904 22.6132 8.66904Z" fill="#2D373D"/>
<path d="M20.4798 8.71034C20.4798 8.71034 20.3598 8.71034 20.2932 8.68367L18.3065 8.11034C17.9465 8.00367 17.7465 7.64367 17.8532 7.28367C17.9598 6.937 18.3198 6.72367 18.6798 6.83034L20.6665 7.40367C21.0265 7.51034 21.2265 7.87034 21.1198 8.23034C21.0398 8.52367 20.7732 8.71034 20.4798 8.71034Z" fill="#2D373D"/>
<path d="M20.4131 16.5759C20.3064 16.5759 20.1864 16.5492 20.0798 16.4959C19.7598 16.3092 19.6398 15.9092 19.8264 15.5892C20.5731 14.2692 22.3598 13.1359 25.1464 13.9092C25.5064 14.0026 25.7064 14.3759 25.6131 14.7359C25.5198 15.0959 25.1464 15.3092 24.7864 15.2026C22.2264 14.4959 21.2264 15.8292 20.9864 16.2559C20.8664 16.4692 20.6398 16.5892 20.3998 16.5892L20.4131 16.5759Z" fill="#2D373D"/>
</svg>
