<svg width="64" height="65" viewBox="0 0 64 65" fill="none" xmlns="http://www.w3.org/2000/svg">
<path d="M53.7396 10.7601C53.0302 10.0358 52.1841 9.45953 51.2502 9.06472C50.3164 8.6699 49.3135 8.46439 48.2996 8.46011V8.46011C46.8883 8.45581 45.5035 8.84355 44.2996 9.58011C43.9504 9.35541 43.5823 9.16136 43.1996 9.00011C42.2493 8.60295 41.2296 8.39844 40.1996 8.39844C39.1697 8.39844 38.15 8.60295 37.1996 9.00011C36.2624 9.39837 35.4077 9.96813 34.6796 10.6801L28.6796 16.6801C28.303 17.0567 28.0915 17.5675 28.0915 18.1001C28.0915 18.6327 28.303 19.1435 28.6796 19.5201C29.0563 19.8967 29.567 20.1083 30.0996 20.1083C30.6322 20.1083 31.143 19.8967 31.5196 19.5201L37.5196 13.5201C37.8628 13.1717 38.2704 12.8932 38.7196 12.7001C39.4371 12.3886 40.233 12.3048 40.9996 12.4601L35.7396 17.8001L17.4596 36.0601C17.0068 36.5108 16.648 37.047 16.4042 37.6375C16.1605 38.2281 16.0365 38.8612 16.0396 39.5001C16.0442 39.8775 16.0912 40.2532 16.1796 40.6201C15.0918 40.9109 14.1033 41.4916 13.3196 42.3001C11.3196 44.3001 9.55964 50.9601 9.05964 52.9801C8.98547 53.2796 8.98158 53.5922 9.04828 53.8934C9.11499 54.1946 9.25047 54.4763 9.44415 54.7165C9.63783 54.9566 9.88444 55.1487 10.1647 55.2777C10.445 55.4067 10.7513 55.4692 11.0596 55.4601C11.2123 55.481 11.367 55.481 11.5196 55.4601C13.5196 54.9801 20.2996 53.2401 22.2596 51.2801C23.0784 50.4772 23.6657 49.4685 23.9596 48.3601C24.3072 48.4406 24.6629 48.4808 25.0196 48.4801C25.6635 48.4808 26.3016 48.3586 26.8996 48.1201C27.4834 47.8711 28.0132 47.5111 28.4596 47.0601L53.7796 21.6601C55.2217 20.2082 56.0337 18.2465 56.0396 16.2001C56.0343 15.1864 55.8283 14.1838 55.4335 13.2502C55.0387 12.3165 54.4631 11.4702 53.7396 10.7601ZM19.3996 48.4601C17.6787 49.4718 15.819 50.2265 13.8796 50.7001C14.3506 48.7599 15.1197 46.9045 16.1596 45.2001C16.3723 44.9661 16.6317 44.7793 16.9211 44.6518C17.2105 44.5244 17.5234 44.4591 17.8396 44.4601V44.4601C18.4381 44.4576 19.0158 44.6787 19.4596 45.0801C19.8809 45.5358 20.1039 46.1401 20.0796 46.7601C20.0853 47.0745 20.028 47.3868 19.9112 47.6787C19.7945 47.9707 19.6205 48.2363 19.3996 48.4601V48.4601ZM25.5796 44.2601C25.4993 44.3382 25.4041 44.3994 25.2996 44.4401C25.1967 44.4897 25.0839 44.5155 24.9696 44.5155C24.8554 44.5155 24.7426 44.4897 24.6396 44.4401C24.5328 44.4042 24.4366 44.3424 24.3596 44.2601L22.3596 42.2601L20.3596 40.2601C20.2739 40.1818 20.2063 40.0858 20.1614 39.9787C20.1165 39.8717 20.0954 39.7561 20.0996 39.6401C20.097 39.5272 20.1188 39.4151 20.1637 39.3116C20.2086 39.208 20.2755 39.1153 20.3596 39.0401L37.1996 22.2001L42.4796 27.4801L25.5796 44.2601ZM50.9396 18.8401L45.2596 24.4601L40.0396 19.2401L45.6396 13.5601C46.3355 12.8649 47.276 12.47 48.2596 12.4601V12.4601C48.7462 12.4569 49.2285 12.5508 49.6784 12.7362C50.1283 12.9217 50.5366 13.195 50.8796 13.5401C51.5722 14.2403 51.9606 15.1853 51.9606 16.1701C51.9606 17.1549 51.5722 18.0999 50.8796 18.8001L50.9396 18.8401Z" fill="#2D373D"/>
</svg>
