<svg width="64" height="65" viewBox="0 0 64 65" fill="none" xmlns="http://www.w3.org/2000/svg">
<path d="M38.0335 41.1502C39.854 40.0213 41.9537 39.4235 44.0958 39.4238C45.2004 39.424 46.0959 38.5287 46.0961 37.4241C46.0963 36.3196 45.201 35.424 44.0964 35.4238C41.2094 35.4234 38.3795 36.2291 35.9257 37.7506C33.4718 39.2719 31.4916 41.4487 30.2085 44.0349C29.7176 45.0244 30.1217 46.2245 31.1112 46.7154C32.1007 47.2064 33.3008 46.8022 33.7917 45.8127C34.7438 43.8938 36.213 42.2788 38.0335 41.1502Z" fill="#2D373D"/>
<path d="M24.5 24.1738C26.0188 24.1738 27.25 25.405 27.25 26.9238C27.25 28.4426 26.0188 29.6738 24.5 29.6738C22.9812 29.6738 21.75 28.4426 21.75 26.9238C21.75 25.405 22.9812 24.1738 24.5 24.1738Z" fill="#2D373D"/>
<path d="M39.5 24.1738C41.0187 24.1738 42.25 25.405 42.25 26.9238C42.25 28.4427 41.0187 29.6738 39.5 29.6738C37.9813 29.6738 36.75 28.4427 36.75 26.9238C36.75 25.405 37.9813 24.1738 39.5 24.1738Z" fill="#2D373D"/>
<path fill-rule="evenodd" clip-rule="evenodd" d="M32 8.42383C18.469 8.42383 7.5 19.3929 7.5 32.9238C7.5 46.4548 18.469 57.4238 32 57.4238C45.531 57.4238 56.5 46.4548 56.5 32.9238C56.5 19.3929 45.531 8.42383 32 8.42383ZM11.5 32.9238C11.5 21.602 20.6782 12.4238 32 12.4238C43.3218 12.4238 52.5 21.602 52.5 32.9238C52.5 44.2457 43.3218 53.4238 32 53.4238C20.6782 53.4238 11.5 44.2457 11.5 32.9238Z" fill="#2D373D"/>
</svg>
