<svg width="24" height="25" viewBox="0 0 24 25" fill="none" xmlns="http://www.w3.org/2000/svg">
<path d="M5.40002 13.1263C5.59893 13.1263 5.78969 13.0473 5.93035 12.9067C6.071 12.766 6.15002 12.5753 6.15002 12.3763C6.15002 12.1774 6.071 11.9867 5.93035 11.846C5.78969 11.7054 5.59893 11.6263 5.40002 11.6263H4.85252C4.80627 11.6267 4.76043 11.6176 4.71786 11.5996C4.67528 11.5815 4.63687 11.5549 4.60502 11.5213C4.53869 11.456 4.50094 11.367 4.50002 11.2738V5.77634C4.50193 5.68346 4.53968 5.5949 4.60538 5.52921C4.67108 5.46351 4.75963 5.42576 4.85252 5.42384H12.5475C12.7464 5.42384 12.9372 5.34483 13.0778 5.20417C13.2185 5.06352 13.2975 4.87276 13.2975 4.67384C13.2975 4.47493 13.2185 4.28417 13.0778 4.14351C12.9372 4.00286 12.7464 3.92384 12.5475 3.92384H4.85252C4.60896 3.92285 4.36763 3.97009 4.14242 4.06284C3.91722 4.15558 3.71261 4.292 3.54039 4.46422C3.36817 4.63643 3.23175 4.84105 3.13901 5.06625C3.04626 5.29145 2.99902 5.53279 3.00002 5.77634V11.2738C3.00199 11.7645 3.1978 12.2346 3.54478 12.5816C3.89177 12.9286 4.36181 13.1244 4.85252 13.1263H5.40002Z" fill="#2D373D"/>
<path d="M12 16.1938H11.52V11.5063C11.5188 11.2472 11.4657 10.991 11.364 10.7527C11.2622 10.5144 11.1138 10.2989 10.9275 10.1188C10.5494 9.76451 10.0507 9.56732 9.53252 9.56732C9.01435 9.56732 8.5156 9.76451 8.13752 10.1188C7.94304 10.2951 7.78628 10.5089 7.67672 10.7473C7.56715 10.9858 7.50704 11.244 7.50002 11.5063V16.8163L7.22252 16.5013C7.04215 16.3026 6.82586 16.1398 6.58502 16.0213C6.34964 15.9094 6.09512 15.8432 5.83502 15.8263C5.58112 15.8116 5.32671 15.8447 5.08502 15.9238C4.83411 16.0113 4.60239 16.1463 4.40252 16.3213C4.20117 16.4982 4.03568 16.7121 3.91502 16.9513C3.79751 17.1851 3.72862 17.4402 3.71252 17.7013C3.70001 17.9665 3.73994 18.2315 3.83003 18.4812C3.92012 18.7308 4.0586 18.9603 4.23752 19.1563L6.48752 21.6613C6.55764 21.739 6.64324 21.8012 6.73883 21.8438C6.83441 21.8864 6.93786 21.9086 7.04252 21.9088C7.22839 21.9084 7.40747 21.8389 7.54502 21.7138C7.6919 21.5804 7.7799 21.3942 7.78974 21.1959C7.79958 20.9977 7.73046 20.8037 7.59752 20.6563L5.31002 18.1738C5.26387 18.1239 5.22817 18.0653 5.20502 18.0013C5.1936 17.9394 5.1936 17.8758 5.20502 17.8138C5.20679 17.7441 5.22207 17.6753 5.25002 17.6113C5.26841 17.5425 5.3017 17.4785 5.34752 17.4238C5.40013 17.3775 5.46127 17.3418 5.52752 17.3188C5.59709 17.3079 5.66794 17.3079 5.73752 17.3188C5.81007 17.3238 5.88117 17.3416 5.94752 17.3713C6.01131 17.4077 6.06943 17.4531 6.12002 17.5063L7.71002 19.2613C7.8127 19.368 7.94463 19.4418 8.08921 19.4736C8.23378 19.5054 8.38452 19.4937 8.52245 19.4399C8.66038 19.3862 8.77933 19.2929 8.86431 19.1717C8.94929 19.0505 8.99651 18.9068 9.00002 18.7588V11.5063C9.00171 11.3876 9.05023 11.2744 9.13502 11.1913C9.23035 11.1044 9.35473 11.0562 9.48377 11.0562C9.6128 11.0562 9.73718 11.1044 9.83251 11.1913C9.87689 11.231 9.91249 11.2796 9.93703 11.3338C9.96157 11.388 9.97451 11.4468 9.97502 11.5063V16.9438C9.97502 17.1428 10.054 17.3335 10.1947 17.4742C10.3353 17.6148 10.5261 17.6938 10.725 17.6938H12C12.7822 17.6883 13.5347 17.993 14.0925 18.5413C14.365 18.8036 14.5819 19.118 14.7301 19.466C14.8783 19.8139 14.9548 20.1882 14.955 20.5663V21.1738C14.955 21.3728 15.034 21.5635 15.1747 21.7042C15.3153 21.8448 15.5061 21.9238 15.705 21.9238C15.9039 21.9238 16.0947 21.8448 16.2353 21.7042C16.376 21.5635 16.455 21.3728 16.455 21.1738V20.5663C16.4512 19.989 16.3333 19.4181 16.108 18.8866C15.8828 18.355 15.5546 17.8732 15.1425 17.4688C14.3041 16.6462 13.1746 16.1879 12 16.1938Z" fill="#2D373D"/>
<path d="M20.25 7.22384H19.8975V6.87134C19.8985 6.48407 19.8229 6.10043 19.6748 5.74257C19.5268 5.38471 19.3093 5.05971 19.035 4.78634C18.4756 4.24562 17.728 3.94337 16.95 3.94337C16.172 3.94337 15.4244 4.24562 14.865 4.78634C14.5907 5.05971 14.3732 5.38471 14.2252 5.74257C14.0772 6.10043 14.0015 6.48407 14.0025 6.87134V7.22384H13.65C13.4511 7.22384 13.2603 7.30286 13.1197 7.44351C12.979 7.58417 12.9 7.77493 12.9 7.97384V13.4713C12.9 13.6703 12.979 13.861 13.1197 14.0017C13.2603 14.1423 13.4511 14.2213 13.65 14.2213H20.25C20.4489 14.2213 20.6397 14.1423 20.7803 14.0017C20.921 13.861 21 13.6703 21 13.4713V7.97384C21 7.77493 20.921 7.58417 20.7803 7.44351C20.6397 7.30286 20.4489 7.22384 20.25 7.22384ZM15.5025 6.87134C15.5021 6.68207 15.5389 6.49455 15.611 6.31953C15.683 6.14451 15.7889 5.98542 15.9225 5.85134C16.2007 5.58978 16.5682 5.44416 16.95 5.44416C17.3319 5.44416 17.6993 5.58978 17.9775 5.85134C18.1111 5.98542 18.217 6.14451 18.2891 6.31953C18.3611 6.49455 18.398 6.68207 18.3975 6.87134V7.22384H15.5025V6.87134ZM19.5 12.7213H14.4V8.72384H19.5V12.7213Z" fill="#2D373D"/>
<path d="M17.4975 9.92384C17.3073 9.80175 17.0813 9.74788 16.8565 9.77104C16.6316 9.7942 16.4213 9.89304 16.26 10.0513C16.0818 10.2338 15.9822 10.4788 15.9825 10.7338C15.9806 10.9289 16.0382 11.1198 16.1475 11.2813C16.2521 11.4414 16.4042 11.5647 16.5825 11.6338C16.7006 11.6859 16.8285 11.7115 16.9575 11.7088C17.0198 11.7162 17.0827 11.7162 17.145 11.7088C17.3363 11.6728 17.5118 11.5785 17.6475 11.4388C17.7819 11.3033 17.8733 11.1311 17.91 10.9438C17.9498 10.7553 17.9315 10.5592 17.8575 10.3813C17.7857 10.1964 17.6603 10.0372 17.4975 9.92384Z" fill="#2D373D"/>
</svg>
