<svg width="32" height="33" viewBox="0 0 32 33" fill="none" xmlns="http://www.w3.org/2000/svg">
<path d="M25.3213 8.40893C25.3213 8.96121 25.769 9.40893 26.3213 9.40893C26.8736 9.40893 27.3213 8.96121 27.3213 8.40893L27.3213 4.58594C27.3213 4.03365 26.8736 3.58594 26.3213 3.58594L22.4984 3.58594C21.9461 3.58594 21.4984 4.03365 21.4984 4.58594C21.4984 5.13822 21.9461 5.58594 22.4984 5.58594L25.3213 5.58594L25.3213 8.40893Z" fill="#2D373D"/>
<path d="M16.1579 6.33294C16.0148 6.2265 15.8719 6.23479 15.7636 6.30732C13.4741 7.83997 7.07349 12.3593 4.34431 14.8786C3.93849 15.2532 3.30583 15.2279 2.93122 14.8221C2.55662 14.4163 2.58192 13.7837 2.98773 13.409C5.84544 10.7711 12.3676 6.17394 14.651 4.64535C15.5022 4.07551 16.5683 4.14548 17.3517 4.72828L28.9296 13.3415C29.3727 13.6712 29.4647 14.2976 29.135 14.7407C28.8054 15.1838 28.1789 15.2758 27.7358 14.9462L16.1579 6.33294Z" fill="#2D373D"/>
<path d="M25.3327 14.8126C25.885 14.8126 26.3327 15.2603 26.3327 15.8126V27.7265C26.3327 29.1238 25.1999 30.2566 23.8026 30.2566L8.19609 30.2567C6.79877 30.2567 5.66602 29.124 5.66602 27.7266V15.8127C5.66602 15.2604 6.11373 14.8127 6.66602 14.8127C7.2183 14.8127 7.66602 15.2604 7.66602 15.8127V27.7266C7.66602 28.0194 7.90334 28.2567 8.19609 28.2567L23.8026 28.2566C24.0954 28.2566 24.3327 28.0192 24.3327 27.7265V15.8126C24.3327 15.2603 24.7804 14.8126 25.3327 14.8126Z" fill="#2D373D"/>
<path fill-rule="evenodd" clip-rule="evenodd" d="M19.6014 12.8752C19.6562 13.1951 19.5524 13.5218 19.3229 13.7513L16.6042 16.47C16.5254 16.5488 16.3515 16.7453 16.2767 16.9547C16.2445 17.045 16.244 17.1018 16.2503 17.1367C16.2548 17.1619 16.2724 17.2381 16.3947 17.3604C16.5163 17.4821 16.5922 17.4994 16.6175 17.5039C16.6527 17.5102 16.7102 17.5096 16.8014 17.477C17.0122 17.4015 17.2091 17.2269 17.2851 17.1509L20.0038 14.4322C20.2333 14.2027 20.56 14.0989 20.8799 14.1537C21.1999 14.2086 21.4733 14.4154 21.6132 14.7083C22.6977 16.9785 22.5947 20.1171 20.585 22.1268C19.9682 22.7436 19.2559 23.2065 18.4957 23.5157V26.0974C18.4957 26.6497 18.048 27.0974 17.4957 27.0974C16.9434 27.0974 16.4957 26.6497 16.4957 26.0974V23.97C16.1749 23.9896 15.8529 23.9849 15.5327 23.956V26.0974C15.5327 26.6497 15.085 27.0974 14.5327 27.0974C13.9804 27.0974 13.5327 26.6497 13.5327 26.0974V23.4372C12.8419 23.1302 12.1947 22.6934 11.6282 22.1269C9.15487 19.6536 9.15493 15.6435 11.6283 13.1701C13.638 11.1604 16.7766 11.0574 19.0468 12.1419C19.3397 12.2818 19.5465 12.5552 19.6014 12.8752ZM16.7373 13.5084C15.384 13.3102 13.9734 13.6534 13.0425 14.5844C11.3502 16.2767 11.3502 19.0204 13.0424 20.7127C14.7347 22.4049 17.4784 22.4049 19.1707 20.7126C20.1017 19.7817 20.4449 18.3711 20.2467 17.0178L18.6994 18.5651C18.5659 18.6986 18.1133 19.1316 17.4755 19.3599C17.1425 19.4792 16.7259 19.5545 16.2675 19.4731C15.7991 19.3898 15.3617 19.1558 14.9805 18.7746C14.5999 18.3941 14.3656 17.9576 14.2817 17.4898C14.1995 17.0318 14.2742 16.6153 14.3933 16.2819C14.6212 15.6439 15.0549 15.1909 15.19 15.0557L16.7373 13.5084Z" fill="#2D373D"/>
</svg>
