<svg width="64" height="65" viewBox="0 0 64 65" fill="none" xmlns="http://www.w3.org/2000/svg">
<path d="M44.1999 32.4619C43.3999 31.6619 42.1999 31.6619 41.3999 32.4619L33.9999 39.6619V20.4619C33.9999 19.2619 33.1999 18.4619 31.9999 18.4619C30.7999 18.4619 29.9999 19.2619 29.9999 20.4619V39.6619L22.7999 32.4619C21.9999 31.6619 20.7999 31.6619 19.9999 32.4619C19.1999 33.2619 19.1999 34.4619 19.9999 35.2619L30.5999 45.8619C30.9999 46.2619 31.3999 46.4619 31.9999 46.4619C32.5999 46.4619 32.9999 46.2619 33.3999 45.8619L44.1999 35.2619C44.9999 34.4619 44.9999 33.2619 44.1999 32.4619Z" fill="#2D373D"/>
</svg>
