<svg width="24" height="25" viewBox="0 0 24 25" fill="none" xmlns="http://www.w3.org/2000/svg">
<path d="M20.3998 6.53672C19.6498 6.46172 18.6748 6.38672 17.6248 6.46172V4.13672C17.6248 3.91172 17.5498 3.76172 17.3998 3.61172C17.2498 3.46172 17.0998 3.38672 16.8748 3.38672C16.7248 3.38672 13.7998 3.46172 11.9998 4.96172C10.6498 3.98672 8.9248 3.46172 7.1998 3.38672C6.8998 3.38672 6.7498 3.46172 6.5998 3.61172C6.4498 3.76172 6.3748 3.91172 6.3748 4.13672V6.91172C4.9498 6.68672 3.8998 6.53672 3.7498 6.53672C3.5248 6.53672 3.2998 6.61172 3.1498 6.76172C2.9998 6.83672 2.9248 7.06172 2.9248 7.28672V12.8367C3.0748 17.6367 6.9748 21.4617 11.7748 21.4617C11.8498 21.4617 11.8498 21.4617 11.9248 21.4617C14.9998 21.5367 17.7748 20.0367 19.4248 17.7117C19.4998 17.6367 19.5748 17.4867 19.6498 17.3367C20.4748 16.0617 20.9248 14.4867 20.9998 12.8367V7.28672C20.9998 6.91172 20.7748 6.61172 20.3998 6.53672ZM16.1248 4.96172V6.61172C15.4498 6.76172 14.7748 6.91172 14.1748 7.21172C13.8748 6.76172 13.4998 6.31172 13.1998 5.93672C14.0998 5.33672 15.2998 5.11172 16.1248 4.96172ZM7.8748 4.96172C9.8248 5.18672 11.6248 6.23672 12.8248 7.88672C12.5998 8.03672 12.3748 8.26172 12.2248 8.48672C10.7998 7.96172 9.2248 7.51172 7.8748 7.21172V4.96172ZM11.9248 19.9617C7.8748 20.1117 4.4998 16.8867 4.4248 12.8367V8.18672C5.9998 8.33672 9.52481 8.93672 12.0748 10.0617H12.1498C12.8248 10.3617 13.4248 10.6617 13.9498 11.0367C15.9748 12.4617 17.4748 14.4867 18.0748 16.8867C16.7248 18.8367 14.4748 20.0367 11.9248 19.9617ZM19.5748 12.7617C19.4998 13.5867 19.3498 14.3367 19.1248 15.0867C18.2248 12.9867 16.7998 11.1867 14.9248 9.83672C14.5498 9.61172 14.1748 9.38672 13.7248 9.16172C15.1498 7.96172 17.6998 7.81172 19.5748 7.96172V12.7617V12.7617Z" fill="#2D373D"/>
</svg>
