<svg width="16" height="16" viewBox="0 0 16 16" fill="none" xmlns="http://www.w3.org/2000/svg">
<path d="M10.3502 10.6002V2.4502C10.3502 2.1502 10.1502 1.9502 9.8502 1.9502H2.4502C2.1502 1.9502 1.9502 2.1502 1.9502 2.4502V10.6002C1.9502 10.9002 2.1502 11.1002 2.4502 11.1002H9.8502C10.1002 11.1002 10.3502 10.8502 10.3502 10.6002ZM9.3502 7.85019H5.6002L7.10019 5.7502C7.20019 5.6002 7.3502 5.6002 7.4502 5.6502L7.5002 5.7002L9.3502 7.85019ZM9.3502 2.9502V6.3002L8.2502 5.0502C8.2002 5.0002 8.1502 4.9002 8.0502 4.8502C7.4502 4.4502 6.7002 4.6002 6.3002 5.1502L4.4002 7.85019H2.9502V2.9502H9.3502ZM2.9502 10.1002V8.8502H9.3502V10.1002H2.9502Z" fill="#2D373D"/>
<path d="M13.4502 5.35027L11.5002 4.70027C11.2002 4.60027 10.9502 4.75027 10.8502 5.00027C10.7502 5.30027 10.9002 5.55027 11.1502 5.65027L13.0002 6.25027L10.7502 13.0003L5.55024 11.2503L5.25024 12.2003L10.6002 14.0003C10.6502 14.0503 10.7502 14.0503 10.8502 14.0503C11.2002 14.0503 11.5502 13.8003 11.6502 13.4503L14.0002 6.45027C14.1502 5.95027 13.9002 5.50027 13.4502 5.35027Z" fill="#2D373D"/>
<path d="M4.5502 5.9002C5.3002 5.9002 5.9002 5.3002 5.9002 4.5502C5.9002 3.8002 5.3002 3.2002 4.5502 3.2002C3.8002 3.2002 3.2002 3.8002 3.2002 4.5502C3.2002 5.3002 3.8002 5.9002 4.5502 5.9002ZM4.5502 4.2502C4.7502 4.2502 4.9002 4.4002 4.9002 4.6002C4.9002 4.8002 4.7502 4.9502 4.5502 4.9502C4.3502 4.9502 4.2002 4.8002 4.2002 4.6002C4.2002 4.4002 4.3502 4.2502 4.5502 4.2502Z" fill="#2D373D"/>
</svg>
