<svg width="64" height="65" viewBox="0 0 64 65" fill="none" xmlns="http://www.w3.org/2000/svg">
<path d="M51.4 17.8617H46.2V12.6617C46.2 10.2617 44.2 8.26172 41.8 8.26172H34.6C32.2 8.26172 30.2 10.2617 30.2 12.6617V17.8617H25C22.6 17.8617 20.6 19.8617 20.6 22.2617V28.2617C20.6 29.4617 21.4 30.2617 22.6 30.2617C23.8 30.2617 24.6 29.4617 24.6 28.2617V22.2617C24.6 22.0617 24.8 21.8617 25 21.8617H32.2C33.4 21.8617 34.2 21.0617 34.2 19.8617V12.6617C34.2 12.4617 34.4 12.2617 34.6 12.2617H41.8C42 12.2617 42.2 12.4617 42.2 12.6617V19.8617C42.2 21.0617 43 21.8617 44.2 21.8617H51.4C51.6 21.8617 51.8 22.0617 51.8 22.2617V29.6617C51.8 29.8617 51.6 30.0617 51.4 30.0617H44.2C43 30.0617 42.2 30.8617 42.2 32.0617V39.2617C42.2 39.4617 42 39.6617 41.8 39.6617H36C34.8 39.6617 34 40.4617 34 41.6617C34 42.8617 34.8 43.6617 36 43.6617H41.8C44.4 43.6617 46.4 41.6617 46.4 39.0617V33.8617H51.6C54 33.8617 56 31.8617 56 29.4617V22.2617C56 19.8617 54 17.8617 51.4 17.8617Z" fill="#2D373D"/>
<path d="M19.8 38.2615C20.6 38.2615 21.4 37.8615 22 37.4615C22.4 36.8615 22.8 36.0615 22.8 35.2615C22.8 35.2615 22.8 35.2615 22.8 35.0615C22.8 33.4615 21.4 32.0615 19.8 32.0615C18.2 32.0615 16.8 33.4615 16.8 35.0615C16.8 35.0615 16.8 35.0615 16.8 35.2615C16.8 36.8615 18.2 38.2615 19.8 38.2615Z" fill="#2D373D"/>
<path d="M28.6 36.2617C27 36.2617 25.6 37.6617 25.6 39.2617C25.6 40.8617 27 42.2617 28.6 42.2617C29.4 42.2617 30.2 42.0617 30.8 41.4617C31.2 40.8617 31.6 40.0617 31.6 39.2617C31.6 37.6617 30.2 36.2617 28.6 36.2617Z" fill="#2D373D"/>
<path d="M13.2 41.4617C13.6 40.8617 14 40.0617 14 39.2617C14 37.6617 12.8 36.2617 11 36.2617C9.4 36.2617 8 37.6617 8 39.2617C8 40.8617 9.4 42.2617 11 42.2617C11.8 42.2617 12.6 42.0617 13.2 41.4617Z" fill="#2D373D"/>
<path d="M23.6 42.2616C22.6 41.2616 21.2 40.6616 19.8 40.6616C18.4 40.6616 17 41.2616 16 42.2616L10.8 47.2616C9.79995 48.2616 9.19995 49.6616 9.19995 51.0616C9.19995 54.0616 11.6 56.4616 14.6 56.4616H25C26.4 56.4616 27.7999 56.0616 28.7999 55.0616C29.7999 54.0616 30.4 52.6616 30.4 51.2616C30.4 49.8616 29.7999 48.4616 28.7999 47.4616L23.6 42.2616ZM26 52.2616C25.6 52.4616 25.4 52.6616 25 52.6616H14.6C13.8 52.6616 13.2 52.0616 13.2 51.2616C13.2 50.8616 13.4 50.4616 13.6 50.2616L18.8 45.0616C19.2 44.8616 19.4 44.6616 19.8 44.6616C20.2 44.6616 20.6 44.8616 20.8 45.0616L26 50.2616C26.2 50.6616 26.4 50.8616 26.4 51.2616C26.4 51.6616 26.2 52.0616 26 52.2616Z" fill="#2D373D"/>
</svg>
