<svg width="64" height="64" viewBox="0 0 64 64" fill="none" xmlns="http://www.w3.org/2000/svg">
<path d="M36.3996 25.5996H18.5996C17.3996 25.5996 16.5996 26.3996 16.5996 27.5996C16.5996 28.7996 17.3996 29.5996 18.5996 29.5996H36.3996C37.3996 29.5996 38.3996 28.7996 38.3996 27.5996C38.3996 26.3996 37.5996 25.5996 36.3996 25.5996Z" fill="#2D373D"/>
<path d="M55.3998 52.5998L42.9998 40.1998C45.9998 36.5998 47.3998 32.1998 47.3998 27.5998C47.3998 16.5998 38.5998 7.7998 27.5998 7.7998C22.3998 7.7998 17.3998 9.7998 13.5998 13.5998C9.7998 17.3998 7.7998 22.3998 7.7998 27.5998C7.7998 32.9998 9.7998 37.9998 13.5998 41.5998C17.3998 45.3998 22.3998 47.3998 27.5998 47.3998C32.3998 47.3998 36.7998 45.7998 40.1998 42.9998L52.5998 55.3998C52.9998 55.7998 53.3998 55.9998 53.9998 55.9998C54.5998 55.9998 54.9998 55.7998 55.3998 55.3998C56.1998 54.5998 56.1998 53.3998 55.3998 52.5998ZM16.3998 38.7998C13.3998 35.7998 11.7998 31.7998 11.7998 27.5998C11.7998 23.3998 13.3998 19.3998 16.3998 16.3998C19.3998 13.3998 23.3998 11.7998 27.5998 11.7998C31.7998 11.7998 35.7998 13.3998 38.7998 16.3998C41.7998 19.3998 43.3998 23.3998 43.3998 27.5998C43.3998 31.7998 41.7998 35.7998 38.7998 38.7998C35.7998 41.7998 31.7998 43.3998 27.5998 43.3998C23.3998 43.3998 19.3998 41.7998 16.3998 38.7998Z" fill="#2D373D"/>
</svg>
