<svg width="32" height="32" viewBox="0 0 32 32" fill="none" xmlns="http://www.w3.org/2000/svg">
<path d="M28.42 25.49L25.25 22.32C26.1957 21.0262 26.619 19.4235 26.4355 17.8315C26.252 16.2395 25.4752 14.7752 24.2599 13.7305C23.0447 12.6858 21.4803 12.1375 19.8788 12.1951C18.2773 12.2526 16.7563 12.9116 15.6191 14.0408C14.4819 15.17 13.8121 16.6863 13.7433 18.2874C13.6745 19.8884 14.2116 21.4566 15.2477 22.6792C16.2838 23.9018 17.7426 24.689 19.3333 24.8837C20.924 25.0785 22.5296 24.6665 23.83 23.73L27 26.91C27.0935 27.0027 27.2043 27.076 27.3261 27.1258C27.448 27.1755 27.5784 27.2008 27.71 27.2C27.9078 27.1992 28.1009 27.1397 28.2649 27.0292C28.4288 26.9186 28.5564 26.7619 28.6313 26.5789C28.7062 26.3958 28.7252 26.1947 28.6858 26.0009C28.6464 25.8071 28.5504 25.6293 28.41 25.49H28.42ZM17.1 21.67C16.2988 20.8611 15.8494 19.7686 15.8494 18.63C15.8494 17.4915 16.2988 16.3989 17.1 15.59C17.7013 14.9885 18.4675 14.5788 19.3017 14.4127C20.1358 14.2467 21.0005 14.3318 21.7863 14.6572C22.5721 14.9826 23.2438 15.5337 23.7163 16.2409C24.1889 16.9481 24.4411 17.7795 24.4411 18.63C24.4411 19.4805 24.1889 20.312 23.7163 21.0191C23.2438 21.7263 22.5721 22.2774 21.7863 22.6028C21.0005 22.9283 20.1358 23.0133 19.3017 22.8473C18.4675 22.6812 17.7013 22.2715 17.1 21.67Z" fill="#2D373D"/>
<path d="M7.43002 12.73C7.29972 12.8614 7.19715 13.0176 7.12844 13.1894C7.05972 13.3612 7.02625 13.545 7.03002 13.73C7.0245 13.9152 7.05716 14.0996 7.12598 14.2716C7.19479 14.4437 7.29829 14.5997 7.43002 14.73C7.56088 14.8617 7.71679 14.9658 7.88854 15.0362C8.06029 15.1066 8.24441 15.1419 8.43002 15.14C8.79441 15.1348 9.14242 14.9878 9.40011 14.7301C9.6578 14.4724 9.80485 14.1244 9.81002 13.76C9.81192 13.5744 9.77661 13.3903 9.70619 13.2185C9.63578 13.0468 9.53167 12.8909 9.40002 12.76C9.26971 12.6283 9.11368 12.5248 8.94164 12.456C8.7696 12.3871 8.58523 12.3545 8.40002 12.36C8.04085 12.3524 7.69287 12.4851 7.43002 12.73Z" fill="#2D373D"/>
<path d="M11.82 16.11H6.51002C6.38039 16.1206 6.2516 16.0812 6.15002 16C6.09758 15.9481 6.05702 15.8855 6.03112 15.8165C6.00523 15.7474 5.99461 15.6736 6.00002 15.6V13.33C5.99978 12.7911 6.21173 12.2738 6.59002 11.89C6.96811 11.5215 7.47218 11.3106 8.00002 11.3H23.17C23.3491 11.298 23.5276 11.3215 23.7 11.37C23.9572 11.4371 24.1985 11.5548 24.4097 11.7162C24.6208 11.8776 24.7978 12.0795 24.93 12.31C24.9925 12.4295 25.0786 12.5351 25.183 12.6205C25.2874 12.7059 25.408 12.7693 25.5375 12.8069C25.667 12.8445 25.8028 12.8555 25.9367 12.8392C26.0706 12.8229 26.1998 12.7797 26.3165 12.7123C26.4333 12.6448 26.5352 12.5543 26.6161 12.4464C26.6971 12.3385 26.7553 12.2154 26.7874 12.0844C26.8195 11.9534 26.8247 11.8173 26.8028 11.6842C26.781 11.5511 26.7324 11.4238 26.66 11.31C26.3081 10.699 25.801 10.1919 25.19 9.84001C25.0406 9.74943 24.8833 9.67246 24.72 9.61001L23.15 6.12001C22.9161 5.49736 22.4979 4.96086 21.9511 4.58207C21.4044 4.20329 20.7552 4.00023 20.09 4.00001H11.09C10.4222 3.99846 9.76977 4.20081 9.22002 4.58001C8.70127 4.94897 8.30435 5.46427 8.08002 6.06001L6.49002 9.60001C6.00025 9.80529 5.55526 10.1042 5.18002 10.48C4.80449 10.8533 4.50681 11.2975 4.30425 11.7867C4.10169 12.2759 3.99828 12.8005 4.00002 13.33V15.6C3.99943 15.9309 4.06453 16.2586 4.19156 16.5642C4.31859 16.8698 4.50501 17.147 4.74002 17.38V18.61C4.81716 19.2186 5.11365 19.7782 5.5739 20.1838C6.03415 20.5894 6.62655 20.8132 7.24002 20.8132C7.85349 20.8132 8.44589 20.5894 8.90614 20.1838C9.36639 19.7782 9.66289 19.2186 9.74002 18.61V18.09H11.74C12.0052 18.09 12.2596 17.9847 12.4471 17.7971C12.6347 17.6096 12.74 17.3552 12.74 17.09C12.74 16.8248 12.6347 16.5704 12.4471 16.3829C12.2596 16.1954 12.0052 16.09 11.74 16.09L11.82 16.11ZM9.93002 6.83001C10.0153 6.58601 10.1765 6.37574 10.39 6.23001C10.6045 6.08126 10.859 6.00106 11.12 6.00001H20.12C20.3878 6.0042 20.6477 6.09098 20.8643 6.24849C21.0809 6.406 21.2435 6.62656 21.33 6.88001L22.39 9.30001H8.82002L9.93002 6.83001ZM7.79002 18.63C7.78969 18.7651 7.73574 18.8946 7.64002 18.99C7.54153 19.0836 7.41087 19.1357 7.27502 19.1357C7.13918 19.1357 7.00852 19.0836 6.91002 18.99C6.86122 18.9438 6.82265 18.8879 6.79681 18.8259C6.77097 18.7639 6.75844 18.6972 6.76002 18.63V18.11H7.76002L7.79002 18.63Z" fill="#2D373D"/>
</svg>
