<svg width="16" height="16" viewBox="0 0 16 16" fill="none" xmlns="http://www.w3.org/2000/svg">
<path d="M4.5 6.66683C4.5 6.39069 4.27614 6.16683 4 6.16683C3.72386 6.16683 3.5 6.39069 3.5 6.66683V8.3335C3.5 8.60964 3.72386 8.8335 4 8.8335C4.27614 8.8335 4.5 8.60964 4.5 8.3335V6.66683Z" fill="#2D373D"/>
<path fill-rule="evenodd" clip-rule="evenodd" d="M1.5 4.66683C1.5 3.65431 2.32081 2.8335 3.33333 2.8335H10C11.0125 2.8335 11.8333 3.65431 11.8333 4.66683V5.16478L11.842 5.15833C12.0414 5.00936 12.2729 4.8365 12.5175 4.68194C13.0109 4.37006 13.5507 4.42655 13.9457 4.73426C14.3159 5.02268 14.5254 5.49966 14.5254 6.00017V8.3335L14.5232 10.0058C14.5226 10.5067 14.3124 10.9836 13.9413 11.2713C13.5452 11.5784 13.0049 11.6329 12.5123 11.3189C12.2695 11.1642 12.0399 10.9915 11.8418 10.8426L11.8333 10.8362V11.3335C11.8333 12.346 11.0125 13.1668 10 13.1668H3.33333C2.32081 13.1668 1.5 12.346 1.5 11.3335V4.66683ZM11.8333 9.6161V6.38278C12.0191 6.27273 12.2101 6.1313 12.3858 6.00025L12.436 5.96282C12.6406 5.81009 12.8417 5.65999 13.0517 5.52725C13.1285 5.47874 13.182 5.47251 13.2137 5.47425C13.247 5.47608 13.2868 5.48858 13.3312 5.52315C13.4257 5.59678 13.5254 5.7643 13.5254 6.00017V7.99992L13.5232 10.0044C13.5229 10.2405 13.4229 10.4078 13.3284 10.481C13.2841 10.5153 13.2445 10.5276 13.2113 10.5293C13.1798 10.531 13.1263 10.5246 13.0496 10.4757C12.8411 10.3428 12.6416 10.1929 12.4385 10.0403L12.3871 10.0017C12.211 9.86948 12.0196 9.72679 11.8333 9.6161ZM3.33333 3.8335C2.8731 3.8335 2.5 4.20659 2.5 4.66683V11.3335C2.5 11.7937 2.8731 12.1668 3.33333 12.1668H10C10.4602 12.1668 10.8333 11.7937 10.8333 11.3335V4.66683C10.8333 4.20659 10.4602 3.8335 10 3.8335H3.33333Z" fill="#2D373D"/>
</svg>
