<svg width="16" height="17" viewBox="0 0 16 17" fill="none" xmlns="http://www.w3.org/2000/svg">
<path d="M7.3335 3.08724C7.3335 3.27391 7.18683 3.42057 7.00016 3.42057H6.8335V3.58724C6.8335 3.77391 6.68683 3.92057 6.50016 3.92057C6.3135 3.92057 6.16683 3.77391 6.16683 3.58724V3.42057H6.00016C5.8135 3.42057 5.66683 3.27391 5.66683 3.08724C5.66683 2.90057 5.8135 2.75391 6.00016 2.75391H6.16683V2.58724C6.16683 2.40057 6.3135 2.25391 6.50016 2.25391C6.68683 2.25391 6.8335 2.40057 6.8335 2.58724V2.75391H7.00016C7.18683 2.75391 7.3335 2.90057 7.3335 3.08724Z" fill="#2D373D"/>
<path d="M5.8335 10.2539V12.5872C5.8335 12.8606 5.60683 13.0872 5.3335 13.0872C5.06016 13.0872 4.8335 12.8606 4.8335 12.5872V10.2539C4.8335 9.98057 5.06016 9.75391 5.3335 9.75391C5.60683 9.75391 5.8335 9.98057 5.8335 10.2539Z" fill="#2D373D"/>
<path d="M5.3335 7.08659C5.06016 7.08659 4.8335 6.85992 4.8335 6.58659V5.91992C4.8335 5.64659 5.06016 5.41992 5.3335 5.41992C5.60683 5.41992 5.8335 5.64659 5.8335 5.91992V6.58659C5.8335 6.85992 5.60683 7.08659 5.3335 7.08659Z" fill="#2D373D"/>
<path d="M11.5135 3.99414H11.0002C10.7268 3.99414 10.5002 4.22081 10.5002 4.49414C10.5002 4.76747 10.7268 4.99414 11.0002 4.99414H11.5135C11.5735 4.99414 11.6668 5.09414 11.6668 5.25414V7.75414H4.3335V5.25414C4.3335 5.09414 4.42683 4.99414 4.4935 4.99414H5.66683C5.94016 4.99414 6.16683 4.77414 6.16683 4.49414C6.16683 4.21414 5.94016 3.99414 5.66683 3.99414H4.4935C3.8535 3.99414 3.3335 4.56081 3.3335 5.25414V13.6608C3.3335 14.3541 3.8535 14.9208 4.4935 14.9208H4.8335V15.0875C4.8335 15.3608 5.06016 15.5875 5.3335 15.5875C5.60683 15.5875 5.8335 15.3608 5.8335 15.0875V14.9208H10.1668V15.0875C10.1668 15.3608 10.3935 15.5875 10.6668 15.5875C10.9402 15.5875 11.1668 15.3608 11.1668 15.0875V14.9208H11.5135C12.1468 14.9208 12.6668 14.3541 12.6668 13.6608V5.25414C12.6668 4.56081 12.1468 3.99414 11.5135 3.99414ZM11.6668 13.6608C11.6668 13.8208 11.5735 13.9208 11.5135 13.9208H4.4935C4.42683 13.9208 4.3335 13.8208 4.3335 13.6608V8.75414H11.6668V13.6608Z" fill="#2D373D"/>
<path d="M10.0268 3.58724C9.7735 3.56724 9.3535 3.47391 9.2335 3.35391C9.1135 3.23391 9.02016 2.81391 9.00016 2.56057C8.98683 2.38724 8.84016 2.25391 8.66683 2.25391C8.4935 2.25391 8.34683 2.38724 8.3335 2.56057C8.3135 2.81391 8.22016 3.23391 8.10016 3.35391C7.98016 3.47391 7.56016 3.56724 7.30683 3.58724C7.1335 3.60057 7.00016 3.74724 7.00016 3.92057C7.00016 4.09391 7.1335 4.24057 7.30683 4.25391C7.56016 4.27391 7.98016 4.36724 8.10016 4.48724C8.22016 4.60724 8.3135 5.02724 8.3335 5.28057C8.34683 5.45391 8.4935 5.58724 8.66683 5.58724C8.84016 5.58724 8.98683 5.45391 9.00016 5.28057C9.02016 5.02724 9.1135 4.61391 9.2335 4.48724C9.3535 4.36724 9.7735 4.27391 10.0268 4.25391C10.2002 4.24057 10.3335 4.09391 10.3335 3.92057C10.3335 3.74724 10.2002 3.60057 10.0268 3.58724ZM8.76683 4.02057C8.72683 4.05391 8.6935 4.09391 8.66683 4.13391C8.64016 4.09391 8.60683 4.05391 8.56683 4.02057C8.5335 3.98057 8.4935 3.94724 8.4535 3.92057C8.4935 3.88724 8.5335 3.86057 8.56683 3.82057C8.60683 3.78724 8.64016 3.74724 8.66683 3.70724C8.6935 3.74724 8.72683 3.78724 8.76683 3.82057C8.80016 3.86057 8.84016 3.88724 8.88016 3.92057C8.84016 3.94724 8.80016 3.98057 8.76683 4.02057Z" fill="#2D373D"/>
</svg>
