<svg width="32" height="33" viewBox="0 0 32 33" fill="none" xmlns="http://www.w3.org/2000/svg">
<path d="M20.5867 18.6885C20.5867 18.5684 20.5628 18.4494 20.5164 18.3385C20.47 18.2276 20.4021 18.127 20.3164 18.0427C20.2308 17.9583 20.1293 17.8918 20.0178 17.847C19.9062 17.8023 19.7869 17.7801 19.6667 17.7819C19.5471 17.7801 19.4284 17.8023 19.3176 17.8472C19.2068 17.8922 19.1061 17.9589 19.0216 18.0434C18.937 18.128 18.8703 18.2287 18.8254 18.3395C18.7805 18.4503 18.7582 18.569 18.76 18.6885V19.6085C18.7583 19.7287 18.7804 19.8481 18.8252 19.9596C18.87 20.0712 18.9365 20.1727 19.0208 20.2583C19.1052 20.3439 19.2057 20.4119 19.3166 20.4583C19.4275 20.5047 19.5465 20.5286 19.6667 20.5285C19.9107 20.5285 20.1447 20.4316 20.3172 20.2591C20.4898 20.0866 20.5867 19.8525 20.5867 19.6085V18.6885Z" fill="#2D373D"/>
<path d="M12.9972 18.038C13.1697 18.2106 13.2667 18.4446 13.2667 18.6886V19.6086C13.2667 19.8526 13.1697 20.0866 12.9972 20.2591C12.8247 20.4316 12.5907 20.5286 12.3467 20.5286C12.1027 20.5286 11.8687 20.4316 11.6961 20.2591C11.5236 20.0866 11.4267 19.8526 11.4267 19.6086V18.6886C11.4267 18.4446 11.5236 18.2106 11.6961 18.038C11.8687 17.8655 12.1027 17.7686 12.3467 17.7686C12.5907 17.7686 12.8247 17.8655 12.9972 18.038Z" fill="#2D373D"/>
<path fill-rule="evenodd" clip-rule="evenodd" d="M10.9734 23.4752H21.0401C22.1858 23.4752 23.2846 23.0201 24.0948 22.2099C24.9049 21.3998 25.3601 20.3009 25.3601 19.1552C25.3601 18.0095 24.9049 16.9107 24.0948 16.1005C23.2846 15.2903 22.1858 14.8352 21.0401 14.8352H10.9734C9.82767 14.8352 8.72886 15.2903 7.9187 16.1005C7.10854 16.9107 6.6534 18.0095 6.6534 19.1552C6.6534 20.3009 7.10854 21.3998 7.9187 22.2099C8.72886 23.0201 9.82767 23.4752 10.9734 23.4752ZM9.33291 17.4881C9.768 17.053 10.3581 16.8085 10.9734 16.8085H21.0401C21.6554 16.8085 22.2455 17.053 22.6806 17.4881C23.1156 17.9231 23.3601 18.5132 23.3601 19.1285C23.3601 19.7438 23.1156 20.3339 22.6806 20.769C22.2455 21.2041 21.6554 21.4485 21.0401 21.4485H10.9734C10.3581 21.4485 9.768 21.2041 9.33291 20.769C8.89783 20.3339 8.6534 19.7438 8.6534 19.1285C8.6534 18.5132 8.89783 17.9231 9.33291 17.4881Z" fill="#2D373D"/>
<path fill-rule="evenodd" clip-rule="evenodd" d="M17.0133 7.47238C17.1118 7.42466 17.2071 7.36977 17.2985 7.30795C17.6742 7.05376 17.966 6.69389 18.1371 6.27384C18.3083 5.85379 18.351 5.39242 18.2599 4.94808C18.1689 4.50375 17.9481 4.09639 17.6255 3.77754C17.3029 3.45868 16.893 3.24264 16.4476 3.15674C16.0023 3.07084 15.5414 3.11893 15.1234 3.29494C14.7054 3.47094 14.3489 3.76695 14.0991 4.14554C13.8493 4.52413 13.7174 4.9683 13.72 5.42186C13.72 5.72353 13.7798 6.02221 13.8961 6.30059C14.0123 6.57896 14.1827 6.8315 14.3972 7.04357C14.5773 7.22161 14.7856 7.36816 15.0133 7.47747V8.19772C11.4212 8.37396 7.9954 9.82235 5.36003 12.3019C3.88398 13.6112 2.98734 15.4525 2.8667 17.4219C2.8667 21.3419 4.2267 26.3819 6.32003 27.6752C9.36208 29.0819 12.6752 29.8055 16.0267 29.7952C20.4134 29.7952 25.1467 28.4619 26.3334 27.6085C28.0267 26.3952 29.12 22.3952 29.12 17.4219C29.12 11.6201 23.0208 8.65824 17.0133 8.2296V7.47238ZM6.81337 13.7952C9.22978 11.5253 12.4052 10.2371 15.72 10.1819H16.0134C21.5467 10.3152 27.16 12.8485 27.16 17.4219C27.16 22.6485 25.96 25.4485 25.2134 25.9819C22.3057 27.2 19.1789 27.8081 16.0267 27.7685C13.0341 27.8035 10.0676 27.2084 7.32003 26.0219C6.33337 25.4085 4.8667 21.4885 4.8667 17.4885C5.00844 16.0505 5.70711 14.7249 6.81337 13.7952Z" fill="#2D373D"/>
</svg>
