<svg width="16" height="16" viewBox="0 0 16 16" fill="none" xmlns="http://www.w3.org/2000/svg">
<path d="M9.10015 6.3999H4.65015C4.35015 6.3999 4.15015 6.5999 4.15015 6.8999C4.15015 7.1999 4.35015 7.3999 4.65015 7.3999H9.10015C9.35015 7.3999 9.60015 7.1999 9.60015 6.8999C9.60015 6.5999 9.40015 6.3999 9.10015 6.3999Z" fill="#2D373D"/>
<path d="M13.8502 13.15L10.7502 10.05C11.5002 9.14995 11.8502 8.04995 11.8502 6.89995C11.8502 4.14995 9.6502 1.94995 6.9002 1.94995C5.6002 1.94995 4.3502 2.44995 3.4002 3.39995C2.4502 4.34995 1.9502 5.59995 1.9502 6.89995C1.9502 8.24995 2.4502 9.49995 3.4002 10.4C4.3502 11.35 5.6002 11.85 6.9002 11.85C8.10019 11.85 9.2002 11.45 10.0502 10.75L13.1502 13.85C13.2502 13.95 13.3502 14 13.5002 14C13.6502 14 13.7502 13.95 13.8502 13.85C14.0502 13.65 14.0502 13.35 13.8502 13.15ZM4.1002 9.69995C3.3502 8.94995 2.9502 7.94995 2.9502 6.89995C2.9502 5.84995 3.3502 4.84995 4.1002 4.09995C4.8502 3.34995 5.8502 2.94995 6.9002 2.94995C7.9502 2.94995 8.9502 3.34995 9.7002 4.09995C10.4502 4.84995 10.8502 5.84995 10.8502 6.89995C10.8502 7.94995 10.4502 8.94995 9.7002 9.69995C8.9502 10.45 7.9502 10.85 6.9002 10.85C5.8502 10.85 4.8502 10.45 4.1002 9.69995Z" fill="#2D373D"/>
</svg>
