<svg width="24" height="24" viewBox="0 0 24 24" fill="none" xmlns="http://www.w3.org/2000/svg">
<path d="M22.0502 12.225C22.0502 12 21.9002 11.775 21.6752 11.7C18.7502 10.2 15.2252 10.2 12.2252 11.775C11.0252 12.45 10.2752 13.425 10.0502 14.55C9.90023 15.6 10.2002 16.65 10.8752 17.775C10.4252 18.45 9.90023 19.35 9.52523 20.4C9.30023 20.775 9.52523 21.225 9.90023 21.375C9.97523 21.45 10.1252 21.45 10.2002 21.45C10.5002 21.45 10.8002 21.3 10.9502 21C11.2502 20.325 11.5502 19.725 11.8502 19.2C12.3752 20.025 13.5752 21.45 15.3752 21.45C15.4502 21.45 15.5252 21.45 15.6752 21.45C19.1252 21.075 20.1002 18 20.8502 15.45C21.1502 14.4 21.4502 13.35 21.9002 12.825C22.0502 12.675 22.1252 12.45 22.0502 12.225ZM19.3502 15.075C18.6752 17.325 17.9252 19.725 15.4502 19.95C13.8752 20.1 12.7502 17.925 12.7502 17.925C14.0252 16.425 15.2252 16.275 15.3002 16.275C15.6752 16.2 15.9752 15.825 15.9752 15.45C15.9002 15.075 15.5252 14.775 15.1502 14.775C15.0752 14.775 13.5002 14.925 11.8502 16.65C11.4752 15.975 11.3252 15.375 11.4002 14.85C11.5502 14.175 12.0002 13.575 12.8252 13.125C15.0752 12 17.7752 11.85 20.1752 12.75C19.8752 13.425 19.5752 14.25 19.3502 15.075Z" fill="#2D373D"/>
<path d="M5.25021 11.5499C5.32521 11.6249 5.47521 11.625 5.55021 11.625C6.15021 11.625 6.60021 11.1 6.60021 10.5C6.60021 10.35 6.60021 10.275 6.52521 10.2C6.45021 9.89995 6.15021 9.59995 5.85021 9.52495C5.77521 9.44995 5.62521 9.44995 5.55021 9.44995C4.95021 9.44995 4.50021 9.97495 4.50021 10.5C4.50021 11.1 4.80021 11.4749 5.25021 11.5499Z" fill="#2D373D"/>
<path d="M8.4002 12.6H3.9752C3.6752 12.6 3.4502 12.375 3.4502 12.075V10.2C3.4502 9.44999 3.9752 8.77499 4.6502 8.54999C4.7252 8.54999 4.8752 8.47499 4.9502 8.47499C5.0252 8.47499 5.1752 8.47499 5.2502 8.47499H17.8502C18.0002 8.47499 18.1502 8.47499 18.2252 8.54999C18.3002 8.62499 18.3752 8.62499 18.5252 8.62499C18.9002 8.77499 19.2752 9.07499 19.4252 9.37499C19.6502 9.74999 20.1002 9.89999 20.4752 9.67499C20.8502 9.44999 21.0002 8.99999 20.7752 8.62499C20.4002 7.94999 19.8002 7.49999 19.1252 7.19999L17.7752 4.27499C17.4002 3.22499 16.4252 2.54999 15.3002 2.54999H7.8002C6.7502 2.47499 5.7002 3.14999 5.4002 4.12499L4.0502 7.12499C2.8502 7.64999 1.9502 8.77499 1.9502 10.2V12.15C1.9502 12.75 2.1752 13.2 2.5502 13.575V14.625C2.5502 15.75 3.4502 16.65 4.5752 16.65C5.7002 16.65 6.6002 15.75 6.6002 14.625V14.175H8.4002C8.8502 14.175 9.1502 13.8 9.1502 13.35C9.1502 12.9 8.8502 12.6 8.4002 12.6ZM6.7502 4.72499C6.9002 4.27499 7.3502 3.97499 7.8752 3.97499H15.3752C15.8252 3.97499 16.2752 4.27499 16.4252 4.79999L17.4002 6.89999H5.7752L6.7502 4.72499ZM5.1002 14.625C5.1002 14.925 4.8752 15.15 4.5752 15.15C4.2752 15.15 4.0502 14.925 4.0502 14.625V14.175H5.1002V14.625Z" fill="#2D373D"/>
</svg>
