<svg width="24" height="24" viewBox="0 0 24 24" fill="none" xmlns="http://www.w3.org/2000/svg">
<path d="M19.8749 5.86507C18.8334 4.54927 17.4767 3.5175 15.9305 2.86528C14.3843 2.21306 12.6986 1.96147 11.0293 2.13379C9.36004 2.30611 7.76124 2.89678 6.3809 3.85112C5.00056 4.80546 3.88329 6.09262 3.13253 7.59345C2.38177 9.09427 2.02178 10.7602 2.0859 12.4371C2.15001 14.114 2.63615 15.7477 3.49931 17.1868C4.36247 18.6259 5.57475 19.824 7.02393 20.6702C8.47311 21.5163 10.1123 21.9832 11.7899 22.0276H12.0524C14.2151 22.0265 16.3196 21.3268 18.0524 20.0326C18.2115 19.9132 18.3167 19.7355 18.3448 19.5386C18.373 19.3417 18.3217 19.1417 18.2024 18.9826C18.083 18.8234 17.9054 18.7182 17.7085 18.6901C17.5115 18.662 17.3115 18.7132 17.1524 18.8326C15.624 19.9788 13.7532 20.5751 11.8434 20.5246C9.93365 20.4741 8.09696 19.7798 6.6313 18.5544C5.16565 17.329 4.15702 15.6443 3.76904 13.7737C3.38107 11.903 3.6365 9.95617 4.49391 8.24894C5.35132 6.5417 6.76041 5.17424 8.49257 4.36839C10.2247 3.56254 12.1784 3.36558 14.0365 3.80945C15.8947 4.25333 17.5484 5.312 18.7293 6.81373C19.9103 8.31546 20.5492 10.1721 20.5424 12.0826V13.9276C20.5428 14.1521 20.4986 14.3745 20.4123 14.5817C20.326 14.789 20.1994 14.9771 20.0399 15.1351C19.7147 15.4459 19.2822 15.6194 18.8324 15.6194C18.3826 15.6194 17.9501 15.4459 17.6249 15.1351C17.4653 14.9771 17.3387 14.789 17.2525 14.5817C17.1662 14.3745 17.122 14.1521 17.1224 13.9276V12.0526C17.1214 11.2217 16.9156 10.4039 16.5232 9.67155C16.1309 8.93917 15.564 8.31481 14.8729 7.85369C14.1817 7.39257 13.3876 7.10893 12.5607 7.02785C11.7338 6.94678 10.8996 7.07077 10.1321 7.38886C9.36454 7.70695 8.68723 8.20933 8.16008 8.85155C7.63294 9.49377 7.27223 10.256 7.10986 11.0709C6.94749 11.8857 6.98847 12.728 7.22917 13.5232C7.46988 14.3184 7.90289 15.0421 8.48989 15.6301C9.19789 16.3345 10.0979 16.8146 11.0774 17.0101C11.4032 17.0759 11.7349 17.1086 12.0674 17.1076C12.7312 17.1076 13.3885 16.9776 14.0024 16.7251C14.7584 16.4085 15.4253 15.9115 15.9449 15.2776C16.0965 15.6067 16.3018 15.9083 16.5524 16.1701C17 16.6187 17.5704 16.9249 18.1917 17.0499C18.813 17.1749 19.4574 17.1133 20.0437 16.8726C20.63 16.632 21.1319 16.2232 21.4863 15.6978C21.8406 15.1724 22.0315 14.5538 22.0349 13.9201V12.0526C22.03 9.80606 21.2691 7.62658 19.8749 5.86507V5.86507ZM13.4099 15.3376C12.7598 15.606 12.0449 15.6765 11.3549 15.5401C10.6661 15.4002 10.0339 15.0601 9.53761 14.5625C9.04129 14.0648 8.70291 13.4317 8.56489 12.7426C8.41766 11.995 8.51448 11.22 8.84108 10.5317C9.16768 9.84332 9.70678 9.27812 10.3789 8.91937C11.0511 8.56061 11.8207 8.42729 12.5743 8.53904C13.328 8.65079 14.0258 9.00171 14.5649 9.54007C14.8974 9.86818 15.161 10.2595 15.34 10.691C15.519 11.1225 15.61 11.5854 15.6074 12.0526C15.6071 12.755 15.3983 13.4415 15.0074 14.0251C14.6191 14.6134 14.0623 15.0708 13.4099 15.3376V15.3376Z" fill="#2D373D"/>
</svg>
