<svg width="24" height="24" viewBox="0 0 24 24" fill="none" xmlns="http://www.w3.org/2000/svg">
<path d="M19.5 3H13.2825C12.8847 3 12.5032 3.15804 12.2218 3.43934C11.9405 3.72064 11.7825 4.10218 11.7825 4.5V12.3675C11.7825 12.7653 11.9405 13.1469 12.2218 13.4282C12.5032 13.7095 12.8847 13.8675 13.2825 13.8675H19.5C19.8978 13.8675 20.2794 13.7095 20.5607 13.4282C20.842 13.1469 21 12.7653 21 12.3675V4.5C21 4.10218 20.842 3.72064 20.5607 3.43934C20.2794 3.15804 19.8978 3 19.5 3ZM13.2975 12.3675L13.2825 4.5H19.5V12.3525L13.2975 12.3675Z" fill="#2D373D"/>
<path d="M18.42 5.85C18.2478 5.75222 18.0439 5.72652 17.8528 5.77851C17.6617 5.8305 17.499 5.95595 17.4 6.1275L15.6825 9.1275L15.2775 8.7225C15.2192 8.62412 15.1393 8.54036 15.0437 8.47763C14.9481 8.4149 14.8394 8.37486 14.726 8.36056C14.6125 8.34627 14.4973 8.3581 14.3891 8.39515C14.281 8.43221 14.1827 8.4935 14.1019 8.57435C14.021 8.6552 13.9597 8.75346 13.9227 8.86163C13.8856 8.9698 13.8738 9.08501 13.8881 9.19845C13.9024 9.31189 13.9424 9.42056 14.0051 9.51616C14.0679 9.61175 14.1516 9.69174 14.25 9.75L15.3525 10.8525C15.4922 10.9911 15.6808 11.0692 15.8775 11.07H15.9825C16.0884 11.0529 16.1894 11.0132 16.2787 10.9537C16.368 10.8942 16.4434 10.8162 16.5 10.725L18.6975 6.87C18.7953 6.69779 18.821 6.49389 18.769 6.3028C18.717 6.11171 18.5916 5.94894 18.42 5.85Z" fill="#2D373D"/>
<path d="M5.49751 14.85C5.39871 14.9477 5.32109 15.0648 5.26948 15.1938C5.21787 15.3228 5.19337 15.4611 5.19751 15.6C5.19425 15.7388 5.21916 15.8768 5.27072 16.0057C5.32228 16.1346 5.39943 16.2517 5.49751 16.35C5.69091 16.5392 5.95071 16.6451 6.22126 16.6451C6.49181 16.6451 6.75161 16.5392 6.94501 16.35C7.04409 16.2521 7.1224 16.1352 7.17524 16.0064C7.22807 15.8775 7.25436 15.7393 7.25251 15.6C7.2545 15.4614 7.22901 15.3237 7.17752 15.195C7.12603 15.0663 7.04955 14.949 6.95251 14.85C6.75206 14.6547 6.48236 14.5468 6.20251 14.55C5.93762 14.5554 5.68504 14.6628 5.49751 14.85Z" fill="#2D373D"/>
<path d="M17.3925 16.305C17.4916 16.2071 17.5699 16.0902 17.6227 15.9614C17.6756 15.8325 17.7019 15.6943 17.7 15.555C17.7042 15.4161 17.6797 15.2778 17.628 15.1488C17.5764 15.0198 17.4988 14.9027 17.4 14.805C17.301 14.708 17.1837 14.6315 17.055 14.58C16.9263 14.5285 16.7886 14.503 16.65 14.505C16.3788 14.507 16.1194 14.6161 15.9283 14.8086C15.7372 15.0011 15.63 15.2613 15.63 15.5325C15.6244 15.7364 15.6801 15.9374 15.7899 16.1093C15.8997 16.2812 16.0585 16.4163 16.2459 16.4971C16.4332 16.5778 16.6405 16.6005 16.8409 16.5623C17.0413 16.524 17.2256 16.4266 17.37 16.2825L17.3925 16.305Z" fill="#2D373D"/>
<path d="M19.1475 14.55C18.9486 14.55 18.7578 14.629 18.6172 14.7697C18.4765 14.9103 18.3975 15.1011 18.3975 15.3V16.95C18.3971 17.0418 18.3623 17.1301 18.3 17.1975C18.2346 17.2638 18.1456 17.3016 18.0525 17.3025H4.85251C4.8062 17.3033 4.76022 17.2944 4.71758 17.2763C4.67494 17.2583 4.63658 17.2314 4.60501 17.1975C4.57148 17.1656 4.54486 17.1272 4.5268 17.0847C4.50874 17.0421 4.49962 16.9962 4.50001 16.95V15.3C4.498 15.1094 4.53407 14.9202 4.60611 14.7437C4.67814 14.5672 4.78469 14.4068 4.9195 14.272C5.05432 14.1372 5.21469 14.0306 5.39121 13.9586C5.56774 13.8866 5.75686 13.8505 5.94751 13.8525H10.35C10.5489 13.8525 10.7397 13.7735 10.8803 13.6328C11.021 13.4922 11.1 13.3014 11.1 13.1025C11.1 12.9036 11.021 12.7128 10.8803 12.5722C10.7397 12.4315 10.5489 12.3525 10.35 12.3525H6.55501L7.35001 10.5825C7.41325 10.4114 7.52869 10.2644 7.68001 10.1625C7.82931 10.057 8.0072 9.99942 8.19001 9.9975H10.35C10.5489 9.9975 10.7397 9.91848 10.8803 9.77783C11.021 9.63718 11.1 9.44641 11.1 9.2475C11.1 9.04859 11.021 8.85782 10.8803 8.71717C10.7397 8.57652 10.5489 8.4975 10.35 8.4975H8.19001C7.70221 8.49842 7.22619 8.6475 6.82501 8.925C6.44868 9.1981 6.16162 9.5765 6.00001 10.0125L4.80751 12.5775C4.45519 12.7286 4.13457 12.9449 3.86251 13.215C3.58819 13.4884 3.37074 13.8134 3.2227 14.1712C3.07467 14.5291 2.99898 14.9127 3.00001 15.3V16.95C2.9995 17.1924 3.04695 17.4325 3.13963 17.6565C3.2323 17.8804 3.36838 18.0838 3.54001 18.255V19.14C3.53801 19.3848 3.58476 19.6276 3.67752 19.8541C3.77029 20.0807 3.90722 20.2866 4.08034 20.4597C4.25345 20.6328 4.45929 20.7697 4.68586 20.8625C4.91243 20.9553 5.15519 21.002 5.40001 21C5.89072 20.998 6.36076 20.8022 6.70774 20.4552C7.05473 20.1083 7.25054 19.6382 7.25251 19.1475V18.8025H15.6525V19.1475C15.6515 19.3904 15.6985 19.6311 15.7908 19.8559C15.8831 20.0806 16.0188 20.2848 16.1902 20.457C16.3617 20.6291 16.5654 20.7657 16.7897 20.8588C17.0141 20.952 17.2546 21 17.4975 21C17.7411 21.001 17.9824 20.9538 18.2076 20.861C18.4328 20.7683 18.6374 20.6318 18.8096 20.4596C18.9819 20.2874 19.1183 20.0828 19.211 19.8576C19.3038 19.6324 19.351 19.3911 19.35 19.1475V18.2625C19.523 18.0924 19.66 17.8891 19.7527 17.6649C19.8455 17.4407 19.8922 17.2001 19.89 16.9575V15.3C19.89 15.1024 19.812 14.9127 19.673 14.7723C19.534 14.6319 19.3451 14.552 19.1475 14.55ZM5.75251 19.1475C5.75336 19.1938 5.74445 19.2398 5.72636 19.2824C5.70827 19.3251 5.6814 19.3634 5.64751 19.395C5.58155 19.46 5.49264 19.4965 5.40001 19.4965C5.30738 19.4965 5.21847 19.46 5.15251 19.395C5.11862 19.3634 5.09175 19.3251 5.07366 19.2824C5.05557 19.2398 5.04666 19.1938 5.04751 19.1475V18.8025H5.75251V19.1475ZM17.7525 19.395C17.7043 19.4447 17.6421 19.4788 17.5743 19.4927C17.5064 19.5066 17.4359 19.4998 17.372 19.4731C17.308 19.4464 17.2536 19.401 17.2158 19.343C17.178 19.2849 17.1586 19.2168 17.16 19.1475V18.8025H17.8575V19.1475C17.8574 19.1944 17.8473 19.2407 17.8279 19.2834C17.8085 19.326 17.7803 19.3641 17.745 19.395H17.7525Z" fill="#2D373D"/>
</svg>
