<svg width="16" height="17" viewBox="0 0 16 17" fill="none" xmlns="http://www.w3.org/2000/svg">
<path d="M3.06834 3.52928C3.1121 3.48552 3.17145 3.46094 3.23333 3.46094H8.36667C8.42855 3.46094 8.4879 3.48552 8.53166 3.52928C8.57542 3.57304 8.6 3.63239 8.6 3.69427V5.16094C8.6 5.43708 8.82386 5.66094 9.1 5.66094C9.37614 5.66094 9.6 5.43708 9.6 5.16094V3.69427C9.6 3.36717 9.47006 3.05347 9.23877 2.82217C9.00747 2.59088 8.69377 2.46094 8.36667 2.46094H3.23333C2.90623 2.46094 2.59253 2.59088 2.36124 2.82217C2.12994 3.05347 2 3.36717 2 3.69427V7.36094C2 7.68804 2.12994 8.00174 2.36124 8.23304C2.59253 8.46433 2.90623 8.59427 3.23333 8.59427H3.46667V10.2943C3.46667 10.4965 3.58849 10.6788 3.77533 10.7562C3.96216 10.8336 4.17722 10.7908 4.32022 10.6478L5.78689 9.18116C5.98215 8.9859 5.98215 8.66931 5.78689 8.47405C5.59162 8.27879 5.27504 8.27879 5.07978 8.47405L4.46667 9.08716V8.09427C4.46667 7.81813 4.24281 7.59427 3.96667 7.59427H3.23333C3.17145 7.59427 3.1121 7.56969 3.06834 7.52593C3.02458 7.48217 3 7.42282 3 7.36094V3.69427C3 3.63239 3.02458 3.57304 3.06834 3.52928Z" fill="#2D373D"/>
<path fill-rule="evenodd" clip-rule="evenodd" d="M7.63336 6.12762C7.30626 6.12762 6.99255 6.25756 6.76126 6.48886C6.52996 6.72015 6.40002 7.03386 6.40002 7.36096V11.0276C6.40002 11.3547 6.52996 11.6684 6.76126 11.8997C6.99255 12.131 7.30626 12.261 7.63336 12.261H9.62625L11.6798 14.3145C11.8228 14.4575 12.0379 14.5003 12.2247 14.4229C12.4115 14.3455 12.5334 14.1632 12.5334 13.961V12.261H12.7667C13.0938 12.261 13.4075 12.131 13.6388 11.8997C13.8701 11.6684 14 11.3547 14 11.0276V7.36096C14 7.03386 13.8701 6.72015 13.6388 6.48886C13.4075 6.25756 13.0938 6.12762 12.7667 6.12762H7.63336ZM7.46837 7.19597C7.51212 7.15221 7.57147 7.12762 7.63336 7.12762H12.7667C12.8286 7.12762 12.8879 7.15221 12.9317 7.19597C12.9754 7.23973 13 7.29907 13 7.36096V11.0276C13 11.0895 12.9754 11.1489 12.9317 11.1926C12.8879 11.2364 12.8286 11.261 12.7667 11.261H12.0334C11.7572 11.261 11.5334 11.4848 11.5334 11.761V12.7539L10.1869 11.4074C10.0931 11.3136 9.96597 11.261 9.83336 11.261H7.63336C7.57147 11.261 7.51213 11.2364 7.46837 11.1926C7.42461 11.1489 7.40002 11.0895 7.40002 11.0276V7.36096C7.40002 7.29907 7.42461 7.23972 7.46837 7.19597Z" fill="#2D373D"/>
</svg>
