<svg width="32" height="33" viewBox="0 0 32 33" fill="none" xmlns="http://www.w3.org/2000/svg">
<path d="M29.1 13.3625C28.3 9.8625 26.1 6.9625 23.1 5.0625C20.9 3.7625 18.5 3.0625 16 3.0625C12.4 3.0625 9.1 4.4625 6.5 7.0625C4 9.5625 2.6 12.8625 2.6 16.4625C2.6 18.7625 3.2 21.0625 4.4 23.0625L2.6 28.6625C2.5 28.9625 2.6 29.3625 2.9 29.6625C3.1 29.8625 3.3 29.9625 3.6 29.9625C3.7 29.9625 3.9 29.8625 4 29.8625L9.4 28.0625C12.3 29.7625 15.8 30.2625 19.1 29.4625C22.6 28.6625 25.5 26.4625 27.4 23.4625C29.3 20.4625 29.9 16.8625 29.1 13.3625ZM25.7 22.4625C22.4 27.8625 15.3 29.4625 10 26.1625C9.9 26.0625 9.7 25.9625 9.5 25.9625C9.4 25.9625 9.3 25.9625 9.2 25.9625L5.2 27.2625L6.5 23.1625C6.6 22.8625 6.6 22.5625 6.4 22.3625C5.3 20.5625 4.7 18.4625 4.7 16.3625C4.7 13.3625 5.8 10.4625 8 8.3625C10.1 6.2625 13 5.0625 16 5.0625C18.1 4.9625 20.2 5.6625 22 6.7625C24.6 8.3625 26.4 10.8625 27.1 13.8625C27.8 16.8625 27.3 19.8625 25.7 22.4625Z" fill="#2D373D"/>
<path d="M16.0002 8.6626C13.6002 8.6626 11.7002 10.5626 11.7002 12.9626C11.7002 13.5626 12.1002 13.9626 12.7002 13.9626C13.3002 13.9626 13.7002 13.5626 13.7002 12.9626C13.7002 11.6626 14.7002 10.6626 16.0002 10.6626C17.3002 10.6626 18.3002 11.6626 18.3002 12.9626C18.3002 13.9626 17.7002 14.8626 16.8002 15.1626C15.7002 15.5626 15.0002 16.5626 15.0002 17.6626V18.7626C15.0002 19.3626 15.4002 19.7626 16.0002 19.7626C16.6002 19.7626 17.0002 19.2626 17.0002 18.7626V17.6626C17.0002 17.3626 17.1002 17.1626 17.4002 17.0626C19.1002 16.4626 20.3002 14.7626 20.3002 12.9626C20.3002 10.5626 18.4002 8.6626 16.0002 8.6626Z" fill="#2D373D"/>
<path d="M16.0001 21.7625C15.2001 21.7625 14.6001 22.3625 14.6001 23.1625C14.6001 23.9625 15.2001 24.5625 16.0001 24.5625C16.8001 24.5625 17.4001 23.9625 17.4001 23.1625C17.4001 22.3625 16.8001 21.7625 16.0001 21.7625Z" fill="#2D373D"/>
</svg>
