<svg width="16" height="17" viewBox="0 0 16 17" fill="none" xmlns="http://www.w3.org/2000/svg">
<path fill-rule="evenodd" clip-rule="evenodd" d="M3.23599 2.92383C2.90922 2.92383 2.59584 3.05364 2.36478 3.2847C2.13371 3.51576 2.00391 3.82914 2.00391 4.15591V12.2088C2.00391 12.5356 2.13371 12.849 2.36478 13.08C2.59584 13.3111 2.90922 13.4409 3.23599 13.4409H6.16432C6.44046 13.4409 6.66432 13.2171 6.66432 12.9409C6.66432 12.6648 6.44046 12.4409 6.16432 12.4409H3.23599C3.17444 12.4409 3.11541 12.4165 3.07188 12.3729C3.02836 12.3294 3.00391 12.2704 3.00391 12.2088V6.1205H12.2531V7.08424C12.2531 7.36039 12.4769 7.58424 12.7531 7.58424C13.0292 7.58424 13.2531 7.36039 13.2531 7.08424V4.15591C13.2531 3.82914 13.1233 3.51576 12.8922 3.2847C12.6611 3.05364 12.3478 2.92383 12.021 2.92383H3.23599ZM12.2531 5.1205V4.15591C12.2531 4.09436 12.2286 4.03533 12.1851 3.9918C12.1416 3.94828 12.0825 3.92383 12.021 3.92383H3.23599C3.17444 3.92383 3.11541 3.94828 3.07188 3.9918C3.02836 4.03533 3.00391 4.09436 3.00391 4.15591V5.1205H12.2531Z" fill="#2D373D"/>
<path fill-rule="evenodd" clip-rule="evenodd" d="M9.24528 8.3098C9.66122 8.13751 10.107 8.04883 10.5572 8.04883C11.0075 8.04883 11.4533 8.13751 11.8692 8.3098C12.2852 8.48209 12.6631 8.73462 12.9814 9.05297C13.2998 9.37132 13.5523 9.74925 13.7246 10.1652C13.8969 10.5811 13.9856 11.0269 13.9856 11.4772C13.9856 11.9274 13.8969 12.3732 13.7246 12.7891C13.5523 13.2051 13.2998 13.583 12.9814 13.9014C12.6631 14.2197 12.2852 14.4722 11.8692 14.6445C11.4533 14.8168 11.0075 14.9055 10.5572 14.9055C10.107 14.9055 9.66122 14.8168 9.24528 14.6445C8.82933 14.4722 8.4514 14.2197 8.13305 13.9014C7.8147 13.583 7.56217 13.2051 7.38988 12.7891C7.21759 12.3732 7.12891 11.9274 7.12891 11.4772C7.12891 11.0269 7.21759 10.5811 7.38988 10.1652C7.56217 9.74925 7.8147 9.37132 8.13305 9.05297C8.4514 8.73462 8.82934 8.48209 9.24528 8.3098ZM10.5572 9.04883C10.2384 9.04883 9.92258 9.11164 9.62796 9.23368C9.33334 9.35571 9.06565 9.53458 8.84016 9.76007C8.61466 9.98556 8.43579 10.2533 8.31376 10.5479C8.19172 10.8425 8.12891 11.1583 8.12891 11.4772C8.12891 11.7961 8.19172 12.1118 8.31376 12.4064C8.43579 12.7011 8.61466 12.9688 8.84016 13.1943C9.06565 13.4197 9.33334 13.5986 9.62796 13.7207C9.92258 13.8427 10.2384 13.9055 10.5572 13.9055C10.8761 13.9055 11.1919 13.8427 11.4865 13.7207C11.7811 13.5986 12.0488 13.4197 12.2743 13.1943C12.4998 12.9688 12.6787 12.7011 12.8007 12.4064C12.9228 12.1118 12.9856 11.7961 12.9856 11.4772C12.9856 11.1583 12.9228 10.8425 12.8007 10.5479C12.6787 10.2533 12.4998 9.98556 12.2743 9.76007C12.0488 9.53458 11.7811 9.35571 11.4865 9.23368C11.1919 9.11164 10.8761 9.04883 10.5572 9.04883Z" fill="#2D373D"/>
<path d="M11.0573 10.013C11.0573 9.73686 10.8334 9.513 10.5573 9.513C10.2811 9.513 10.0573 9.73686 10.0573 10.013V10.9772H9.09306C8.81692 10.9772 8.59306 11.201 8.59306 11.4772C8.59306 11.7533 8.81692 11.9772 9.09306 11.9772H10.0573V12.9413C10.0573 13.2175 10.2811 13.4413 10.5573 13.4413C10.8334 13.4413 11.0573 13.2175 11.0573 12.9413V11.9772H12.0214C12.2975 11.9772 12.5214 11.7533 12.5214 11.4772C12.5214 11.201 12.2975 10.9772 12.0214 10.9772H11.0573V10.013Z" fill="#2D373D"/>
</svg>
