<svg width="32" height="33" viewBox="0 0 32 33" fill="none" xmlns="http://www.w3.org/2000/svg">
<path fill-rule="evenodd" clip-rule="evenodd" d="M25.7551 26.1092C25.7357 26.1284 25.7357 26.1476 25.7357 26.1476L25.7454 26.138L26.3854 26.8951C26.8702 27.4701 26.9672 28.2559 26.6472 28.9363C26.3272 29.6167 25.6484 30.0384 24.892 30.0384H7.19505C6.41929 30.0384 5.71141 29.588 5.41081 28.8788C5.1102 28.1696 5.25566 27.3551 5.79869 26.7992L6.35141 26.2242C4.03384 23.8092 2.74414 20.618 2.74414 17.2542C2.74414 13.5167 4.36353 9.95177 7.18535 7.46969C10.0072 4.98761 13.7987 3.81844 17.5902 4.25927C23.6411 4.95886 28.509 9.80802 29.1587 15.788C29.5757 19.583 28.3345 23.3492 25.7551 26.1092ZM7.75747 27.5563L7.20475 28.1313H24.892L24.2423 27.3646C23.612 26.6171 23.6508 25.5438 24.3296 24.8155C26.5599 22.4196 27.5878 19.2955 27.229 15.9988C26.6763 10.9005 22.526 6.76052 17.3672 6.16636C16.9017 6.11844 16.4363 6.08969 15.9805 6.08969C13.2072 6.08969 10.5793 7.06719 8.48475 8.90719C6.0702 11.0251 4.69323 14.063 4.69323 17.2542C4.69323 20.1292 5.79869 22.8509 7.78656 24.9305C8.48475 25.6684 8.47505 26.8184 7.75747 27.5563ZM15.9998 8.96478C19.9174 8.96478 23.2338 11.5235 24.3392 15.0406L24.3295 15.0502C24.5816 15.8552 24.7174 16.7081 24.7174 17.5993C24.7174 22.3527 20.7998 26.2243 15.9901 26.2243C13.8277 26.2243 11.8495 25.4385 10.3271 24.1447C10.3174 24.1352 10.298 24.1256 10.2786 24.116C10.2689 24.1064 10.2641 24.0968 10.2592 24.0872C10.2544 24.0777 10.2495 24.0681 10.2398 24.0585C8.42649 22.4772 7.27255 20.1677 7.27255 17.5897C7.27255 16.7081 7.40831 15.8456 7.66043 15.0406C8.76588 11.5235 12.0822 8.96478 15.9998 8.96478ZM18.8216 15.7306L22.1283 14.7147H22.1186C21.1683 12.731 19.2483 11.2839 16.9695 10.9581V14.3985C17.7356 14.6285 18.3853 15.0885 18.8216 15.7306ZM16.0095 16.1522C15.2047 16.1522 14.555 16.7943 14.555 17.5897C14.555 18.3852 15.2047 19.0272 16.0095 19.0272C16.8144 19.0272 17.4641 18.3852 17.4641 17.5897C17.4641 16.7943 16.8144 16.1522 16.0095 16.1522ZM15.0398 14.3889V10.9581L15.0301 10.9485C12.7513 11.2744 10.841 12.7214 9.88103 14.7052L13.1877 15.721C13.6241 15.0885 14.2835 14.6189 15.0398 14.3889ZM9.29921 16.5452C9.25073 16.8902 9.21194 17.2352 9.21194 17.5897V17.5993C9.21194 19.2668 9.84225 20.8002 10.8701 21.9789L13.1392 19.3914C12.8095 18.8739 12.6059 18.2606 12.6059 17.5993V17.561L9.29921 16.5452ZM14.6035 20.6372L12.3344 23.2247C13.3913 23.9052 14.6132 24.2981 15.9998 24.2981C17.3865 24.2981 18.6665 23.886 19.7429 23.1864L17.4738 20.5989C17.0277 20.8097 16.5332 20.9439 15.9998 20.9439C15.4956 20.9439 15.0301 20.8289 14.6035 20.6372ZM19.3938 17.5802C19.3938 18.2127 19.1998 18.7972 18.8992 19.2956L21.1877 21.9022V21.8831C22.1865 20.7235 22.7877 19.2093 22.7877 17.5706C22.7877 17.216 22.7586 16.871 22.7004 16.526L19.3938 17.5418V17.5802Z" fill="#2D373D"/>
</svg>
