<svg width="24" height="25" viewBox="0 0 24 25" fill="none" xmlns="http://www.w3.org/2000/svg">
<path fill-rule="evenodd" clip-rule="evenodd" d="M12.7296 7.52486C12.5725 7.44635 12.3762 7.35652 12.183 7.32482C12.0876 7.30915 11.8872 7.28846 11.6715 7.38645C11.4056 7.50723 11.2665 7.73556 11.2177 7.9393C11.1779 8.10521 11.1971 8.24927 11.2084 8.31715C11.2216 8.3965 11.2421 8.46967 11.2581 8.52262C11.2706 8.56376 11.3006 8.65367 11.3251 8.72721C11.34 8.77197 11.3529 8.81077 11.3586 8.82867C11.4242 9.03546 11.4439 9.16741 11.4316 9.25454L11.4312 9.25736C11.4278 9.28239 11.4222 9.32297 11.3578 9.37853C11.342 9.37568 11.3265 9.37264 11.3078 9.36899C11.283 9.36413 11.2526 9.35819 11.2089 9.35017C11.1276 9.33529 11.015 9.31669 10.8902 9.31161C10.6211 9.30066 10.2805 9.35303 9.96554 9.60884C9.67565 9.8443 9.48946 10.187 9.35913 10.5797C8.86456 12.0697 9.85744 13.5619 11.2611 13.938C12.7056 14.325 14.1903 13.4679 14.5774 12.0234C15.0592 10.2252 14.4011 8.35986 12.7296 7.52486ZM12.0314 10.7325C12.5133 10.4478 12.7869 10.0519 12.8886 9.61583C13.2276 10.1534 13.335 10.8645 13.1285 11.6352C12.9559 12.2794 12.2936 12.6617 11.6494 12.4891C10.9643 12.3056 10.5962 11.6144 10.7828 11.0522C10.8232 10.9304 10.8591 10.8574 10.8832 10.8163C10.8983 10.8185 10.9165 10.8216 10.9386 10.8256L10.9827 10.834C11.0338 10.8439 11.1086 10.8583 11.1661 10.8672C11.3296 10.8927 11.6844 10.9375 12.0314 10.7325Z" fill="#2D373D"/>
<path fill-rule="evenodd" clip-rule="evenodd" d="M12 2.92188C9.92405 2.92188 8.56584 3.24603 7.66671 3.64164C6.82649 4.01133 6.42192 4.43179 6.25975 4.60033C6.24423 4.61646 6.23092 4.63029 6.21967 4.64154C6.07902 4.7822 6 4.97296 6 5.17188V16.9219C6 17.2286 6.18671 17.5043 6.47146 17.6182C6.68835 17.705 6.9463 17.7944 7.25 17.8807V19.4219C7.25 19.6726 7.37533 19.9068 7.58397 20.0459C7.95445 20.2929 8.56728 20.504 9.28187 20.6556C9.57637 20.718 9.90041 20.7729 10.25 20.8164V22.1755C10.25 22.5898 10.5858 22.9255 11 22.9255C11.4142 22.9255 11.75 22.5898 11.75 22.1755V20.9198C11.8325 20.9212 11.9159 20.9219 12 20.9219C12.1604 20.9219 12.3178 20.9193 12.4722 20.9145V22.1755C12.4722 22.5898 12.808 22.9255 13.2222 22.9255C13.6364 22.9255 13.9722 22.5898 13.9722 22.1755V20.7868C14.2378 20.7489 14.487 20.7046 14.7181 20.6556C15.4327 20.504 16.0455 20.2929 16.416 20.0459C16.6247 19.9068 16.75 19.6726 16.75 19.4219V17.8807C17.0537 17.7944 17.3117 17.705 17.5285 17.6182C17.8133 17.5043 18 17.2286 18 16.9219V5.17188C18 4.97296 17.921 4.7822 17.7803 4.64154C17.7692 4.63038 17.756 4.61667 17.7406 4.60069C17.5784 4.43215 17.1735 4.01133 16.3333 3.64164C15.4342 3.24603 14.076 2.92188 12 2.92188ZM15.25 18.1998C14.384 18.3326 13.3129 18.4219 12 18.4219C10.6872 18.4219 9.61602 18.3326 8.75 18.1997V18.9527C8.95043 19.0272 9.23061 19.1113 9.59313 19.1882C10.2277 19.3228 11.0504 19.4219 12 19.4219C12.9496 19.4219 13.7723 19.3228 14.4069 19.1882C14.7694 19.1113 15.0496 19.0272 15.25 18.9527V18.1998ZM7.5 16.3905V5.48606C7.65338 5.35148 7.88863 5.18277 8.27081 5.01461C8.9342 4.72273 10.076 4.42188 12 4.42188C13.924 4.42188 15.0658 4.72272 15.7292 5.01461C16.1114 5.18277 16.3466 5.35148 16.5 5.48605V16.3905C15.6602 16.6488 14.2368 16.9219 12 16.9219C9.7632 16.9219 8.33984 16.6488 7.5 16.3905Z" fill="#2D373D"/>
</svg>
