<svg width="32" height="32" viewBox="0 0 32 32" fill="none" xmlns="http://www.w3.org/2000/svg">
<path fill-rule="evenodd" clip-rule="evenodd" d="M16.0006 2.6001C8.59997 2.6001 2.60059 8.59948 2.60059 16.0001C2.60059 23.4007 8.59997 29.4001 16.0006 29.4001C23.4012 29.4001 29.4006 23.4007 29.4006 16.0001C29.4006 8.59948 23.4012 2.6001 16.0006 2.6001ZM15.0003 4.64338C9.50224 5.12131 5.12166 9.50197 4.64384 15.0001H9.33366C9.88594 15.0001 10.3337 15.4478 10.3337 16.0001C10.3337 16.5524 9.88594 17.0001 9.33366 17.0001H4.64384C5.12165 22.4982 9.50223 26.8789 15.0003 27.3568V22.6667C15.0003 22.1145 15.448 21.6667 16.0003 21.6667C16.5526 21.6667 17.0003 22.1145 17.0003 22.6667V27.3569C22.4987 26.8792 26.8795 22.4984 27.3573 17.0001H22.667C22.1147 17.0001 21.667 16.5524 21.667 16.0001C21.667 15.4478 22.1147 15.0001 22.667 15.0001H27.3573C26.8795 9.50179 22.4987 5.12104 17.0003 4.64333V9.33341C17.0003 9.8857 16.5526 10.3334 16.0003 10.3334C15.448 10.3334 15.0003 9.8857 15.0003 9.33341V4.64338Z" fill="#2D373D"/>
</svg>
