<svg width="32" height="32" viewBox="0 0 32 32" fill="none" xmlns="http://www.w3.org/2000/svg">
<path d="M21.2498 17.02C21.515 17.02 21.7694 16.9147 21.9569 16.7271C22.1444 16.5396 22.2498 16.2852 22.2498 16.02V9.02003C22.2498 8.75481 22.1444 8.50046 21.9569 8.31292C21.7694 8.12538 21.515 8.02003 21.2498 8.02003C20.0571 8.02267 18.9141 8.49762 18.0707 9.34097C17.2274 10.1843 16.7524 11.3274 16.7498 12.52V13.4C16.7498 13.6652 16.8551 13.9196 17.0427 14.1071C17.2302 14.2947 17.4846 14.4 17.7498 14.4H20.2498V16.02C20.2498 16.2852 20.3551 16.5396 20.5427 16.7271C20.7302 16.9147 20.9846 17.02 21.2498 17.02ZM18.7498 12.39C18.7802 11.7686 19.0404 11.1805 19.4798 10.74C19.7057 10.5223 19.9658 10.3433 20.2498 10.21V12.39H18.7498Z" fill="#2D373D"/>
<path d="M15.2498 10.78C15.2462 10.0509 14.9594 9.35161 14.4498 8.83003C13.9215 8.33436 13.2242 8.05849 12.4998 8.05849C11.7754 8.05849 11.0781 8.33436 10.5498 8.83003C10.0366 9.34921 9.74908 10.05 9.74979 10.78C9.74979 11.0452 9.85515 11.2996 10.0427 11.4871C10.2302 11.6747 10.4846 11.78 10.7498 11.78C11.015 11.78 11.2694 11.6747 11.4569 11.4871C11.6444 11.2996 11.7498 11.0452 11.7498 10.78C11.75 10.5812 11.8291 10.3905 11.9698 10.25C12.1129 10.1143 12.3026 10.0386 12.4998 10.0386C12.697 10.0386 12.8867 10.1143 13.0298 10.25C13.1705 10.3905 13.2496 10.5812 13.2498 10.78C13.247 11.1213 13.1309 11.4519 12.9198 11.72L9.99979 15.42C9.89311 15.5612 9.82579 15.7281 9.8047 15.9038C9.78362 16.0795 9.80953 16.2576 9.87979 16.42C9.96084 16.5902 10.0883 16.734 10.2476 16.8349C10.4068 16.9357 10.5913 16.9895 10.7798 16.99H14.2798C14.545 16.99 14.7994 16.8847 14.9869 16.6971C15.1744 16.5096 15.2798 16.2552 15.2798 15.99C15.2798 15.7248 15.1744 15.4705 14.9869 15.2829C14.7994 15.0954 14.545 14.99 14.2798 14.99H12.8298L14.4798 13.02C14.989 12.3855 15.2613 11.5935 15.2498 10.78Z" fill="#2D373D"/>
<path d="M28.8298 12.71C28.0877 9.83208 26.3988 7.28753 24.035 5.48591C21.6712 3.68428 18.77 2.73038 15.7983 2.77771C12.8266 2.82505 9.95724 3.87087 7.65204 5.74687C5.34684 7.62286 3.73988 10.2199 3.08979 13.12L2.82979 12.73C2.75625 12.621 2.66196 12.5276 2.55231 12.455C2.44265 12.3825 2.31978 12.3322 2.19071 12.3072C1.93003 12.2565 1.65992 12.3115 1.43979 12.46C1.21966 12.6085 1.06754 12.8384 1.01691 13.0991C0.966275 13.3598 1.02127 13.6299 1.16979 13.85L2.91979 16.45C2.9372 16.4725 2.95736 16.4926 2.97979 16.51C3.02218 16.5642 3.0728 16.6115 3.12979 16.65L3.26979 16.76L3.45979 16.83C3.45979 16.83 3.51979 16.83 3.55979 16.83H3.77979C3.88542 16.8246 3.98977 16.8044 4.08979 16.77L4.30979 16.66L6.90979 15.02C7.12858 14.8702 7.27888 14.6395 7.32764 14.3789C7.3764 14.1182 7.31962 13.8488 7.16979 13.63C7.02161 13.4124 6.79361 13.2621 6.53526 13.2115C6.27691 13.161 6.00904 13.2143 5.78979 13.36L4.99979 13.87C5.37827 11.9585 6.24678 10.1781 7.52022 8.70315C8.79367 7.2282 10.4284 6.10932 12.2643 5.45609C14.1001 4.80287 16.0742 4.6377 17.9931 4.97676C19.912 5.31583 21.7099 6.14751 23.2107 7.39033C24.7116 8.63315 25.8639 10.2445 26.5547 12.0665C27.2456 13.8886 27.4514 15.8588 27.1519 17.7843C26.8524 19.7097 26.0579 21.5244 24.8462 23.0505C23.6345 24.5766 22.0472 25.7618 20.2398 26.49C17.7149 27.5165 14.903 27.5905 12.3276 26.6983C9.75213 25.8061 7.58864 24.0085 6.23979 21.64C6.17413 21.5258 6.08661 21.4256 5.98222 21.3452C5.87784 21.2647 5.75863 21.2057 5.63142 21.1713C5.5042 21.1369 5.37146 21.128 5.24078 21.1449C5.1101 21.1619 4.98404 21.2044 4.86979 21.27C4.75554 21.3357 4.65534 21.4232 4.57491 21.5276C4.49449 21.632 4.43541 21.7512 4.40105 21.8784C4.36669 22.0056 4.35773 22.1384 4.37467 22.269C4.39161 22.3997 4.43413 22.5258 4.49979 22.64C6.09097 25.4296 8.64319 27.5446 11.6798 28.59C13.0685 29.0747 14.529 29.3215 15.9998 29.32C18.0253 29.3161 20.023 28.8489 21.8401 27.9542C23.6573 27.0595 25.2457 25.7611 26.4839 24.1581C27.722 22.5551 28.5771 20.6902 28.9837 18.706C29.3903 16.7217 29.3377 14.6708 28.8298 12.71Z" fill="#2D373D"/>
<path d="M13.5698 19.36C13.3086 19.0967 12.9967 18.8891 12.6529 18.7499C12.3091 18.6106 11.9406 18.5426 11.5698 18.55C11.3046 18.55 11.0502 18.6554 10.8627 18.8429C10.6751 19.0305 10.5698 19.2848 10.5698 19.55C10.5698 19.8152 10.6751 20.0696 10.8627 20.2571C11.0502 20.4447 11.3046 20.55 11.5698 20.55C11.6684 20.549 11.7662 20.568 11.8573 20.6058C11.9484 20.6436 12.0309 20.6995 12.0998 20.77C12.1726 20.8377 12.2307 20.9197 12.2703 21.0109C12.3099 21.1022 12.3301 21.2006 12.3298 21.3C12.3243 21.5027 12.2421 21.6957 12.0998 21.84C12.0309 21.9106 11.9484 21.9665 11.8573 22.0043C11.7662 22.0421 11.6684 22.0611 11.5698 22.06C11.3046 22.06 11.0502 22.1654 10.8627 22.3529C10.6751 22.5405 10.5698 22.7948 10.5698 23.06C10.5698 23.3252 10.6751 23.5796 10.8627 23.7671C11.0502 23.9547 11.3046 24.06 11.5698 24.06C11.9403 24.0651 12.3081 23.9961 12.6516 23.857C12.995 23.7179 13.3072 23.5115 13.5698 23.25C13.8353 22.9779 14.0428 22.6547 14.1798 22.3H17.8198C17.9568 22.6547 18.1643 22.9779 18.4298 23.25C18.948 23.766 19.6486 24.057 20.3798 24.06C20.645 24.06 20.8994 23.9547 21.0869 23.7671C21.2744 23.5796 21.3798 23.3252 21.3798 23.06C21.3798 22.7948 21.2744 22.5405 21.0869 22.3529C20.8994 22.1654 20.645 22.06 20.3798 22.06C20.279 22.0594 20.1794 22.0387 20.0867 21.9993C19.994 21.9598 19.9101 21.9022 19.8398 21.83C19.7026 21.6872 19.6241 21.498 19.6198 21.3C19.6195 21.2006 19.6397 21.1022 19.6793 21.0109C19.7189 20.9197 19.7769 20.8377 19.8498 20.77C19.9903 20.6293 20.1809 20.5502 20.3798 20.55C20.645 20.55 20.8994 20.4447 21.0869 20.2571C21.2744 20.0696 21.3798 19.8152 21.3798 19.55C21.3798 19.2848 21.2744 19.0305 21.0869 18.8429C20.8994 18.6554 20.645 18.55 20.3798 18.55C20.0173 18.5494 19.6584 18.6206 19.3236 18.7596C18.9889 18.8987 18.6851 19.1028 18.4298 19.36C18.1613 19.6259 17.9532 19.9465 17.8198 20.3H14.1798C14.0463 19.9465 13.8383 19.6259 13.5698 19.36Z" fill="#2D373D"/>
</svg>
