<svg width="64" height="65" viewBox="0 0 64 65" fill="none" xmlns="http://www.w3.org/2000/svg">
<path fill-rule="evenodd" clip-rule="evenodd" d="M31.9976 16.1206C27.542 16.1206 23.2688 17.8906 20.1182 21.0412C16.9676 24.1918 15.1976 28.465 15.1976 32.9206C15.1976 37.3762 16.9676 41.6494 20.1182 44.8C23.2688 47.9506 27.542 49.7206 31.9976 49.7206C35.5345 49.7206 38.9564 48.6053 41.7931 46.5694C41.821 46.5512 41.8485 46.5322 41.8757 46.5124C41.9032 46.4925 41.93 46.472 41.9562 46.4509C42.633 45.9527 43.2755 45.4015 43.877 44.8C47.0276 41.6494 48.7976 37.3762 48.7976 32.9206C48.7976 31.1868 48.5296 29.4805 48.0165 27.8573C48.0056 27.8144 47.9932 27.7715 47.9793 27.7287C47.9654 27.6861 47.9503 27.6443 47.9339 27.6032C47.1165 25.1535 45.7374 22.9017 43.877 21.0412C40.7271 17.8914 36.4553 16.1215 32.0008 16.1206H31.9976ZM43.4041 27.1127C42.7996 25.9255 42.0081 24.8292 41.0486 23.8696C39.1252 21.9463 36.6528 20.6982 33.9997 20.2781V26.2817C35.0863 26.6089 36.0863 27.201 36.9033 28.018C37.1976 28.3123 37.4627 28.6303 37.6967 28.9676L43.4041 27.1127ZM38.9325 32.7719C38.9335 32.8214 38.934 32.871 38.934 32.9206C38.934 34.4441 38.4326 35.9159 37.5212 37.1153L41.0488 41.9713C43.4491 39.5708 44.7976 36.3152 44.7976 32.9206C44.7976 32.2454 44.7442 31.5756 44.6399 30.917L38.9325 32.7719ZM37.8133 44.3231L34.2854 39.4667C33.5577 39.7207 32.7861 39.854 32.0007 39.854C31.2153 39.854 30.4437 39.7207 29.716 39.4667L26.1854 44.325C27.9691 45.2339 29.9583 45.7206 31.9976 45.7206C34.0383 45.7206 36.0287 45.2333 37.8133 44.3231ZM33.7254 35.293L33.7477 35.2771C33.8628 35.1917 33.9723 35.0974 34.0749 34.9948C34.625 34.4447 34.934 33.6986 34.934 32.9206C34.934 32.1427 34.625 31.3966 34.0749 30.8465C33.5248 30.2963 32.7787 29.9873 32.0007 29.9873C31.2227 29.9873 30.4766 30.2963 29.9265 30.8465C29.3764 31.3966 29.0674 32.1427 29.0674 32.9206C29.0674 33.6986 29.3764 34.4447 29.9265 34.9948C30.0274 35.0957 30.1349 35.1885 30.248 35.2728L30.2767 35.2932L30.3049 35.3141C30.7973 35.663 31.3892 35.854 32.0007 35.854C32.6148 35.854 33.209 35.6614 33.7026 35.3098L33.7254 35.293ZM22.9492 41.9741L26.4802 37.1153C25.5688 35.9158 25.0674 34.4441 25.0674 32.9206C25.0674 32.8712 25.0679 32.8219 25.069 32.7726L19.3555 30.9157C19.251 31.5747 19.1976 32.2449 19.1976 32.9206C19.1976 36.3154 20.5462 39.5711 22.9466 41.9716L22.9492 41.9741ZM27.0981 28.018C26.8037 28.3125 26.5384 28.6307 26.3043 28.9681L20.5917 27.1115C21.196 25.9248 21.9873 24.8289 22.9466 23.8696C24.871 21.9453 27.345 20.6969 29.9997 20.2774V26.2823C28.9138 26.6097 27.9146 27.2015 27.0981 28.018Z" fill="#2D373D"/>
<path fill-rule="evenodd" clip-rule="evenodd" d="M31.9997 6.25391C24.9272 6.25391 18.1445 9.06342 13.1435 14.0644C8.14252 19.0654 5.33301 25.8481 5.33301 32.9206C5.33301 39.993 8.14252 46.7758 13.1435 51.7768C18.1445 56.7777 24.9272 59.5872 31.9997 59.5872C39.0721 59.5872 45.8549 56.7777 50.8559 51.7768C55.8568 46.7758 58.6663 39.993 58.6663 32.9206C58.6663 25.8481 55.8568 19.0654 50.8559 14.0644C45.8549 9.06342 39.0721 6.25391 31.9997 6.25391ZM15.9719 16.8928C20.2227 12.642 25.9881 10.2539 31.9997 10.2539C38.0112 10.2539 43.7766 12.642 48.0274 16.8928C52.2783 21.1436 54.6663 26.909 54.6663 32.9206C54.6663 38.9321 52.2783 44.6975 48.0274 48.9483C43.7766 53.1991 38.0112 55.5872 31.9997 55.5872C25.9881 55.5872 20.2227 53.1991 15.9719 48.9483C11.7211 44.6975 9.33301 38.9321 9.33301 32.9206C9.33301 26.909 11.7211 21.1436 15.9719 16.8928Z" fill="#2D373D"/>
</svg>
