<svg width="64" height="64" viewBox="0 0 64 64" fill="none" xmlns="http://www.w3.org/2000/svg">
<path d="M42.2132 21.7835C42.9943 22.5646 42.9943 23.8309 42.2132 24.612L34.8269 31.9983L42.2132 39.3846C42.9943 40.1657 42.9943 41.432 42.2132 42.213C41.4322 42.9941 40.1658 42.9941 39.3848 42.213L31.9985 34.8267L24.6122 42.213C23.8311 42.9941 22.5648 42.9941 21.7837 42.213C21.0027 41.432 21.0027 40.1657 21.7837 39.3846L29.17 31.9983L21.7837 24.612C21.0027 23.8309 21.0027 22.5646 21.7837 21.7835C22.5648 21.0025 23.8311 21.0025 24.6122 21.7835L31.9985 29.1699L39.3848 21.7835C40.1658 21.0025 41.4322 21.0025 42.2132 21.7835Z" fill="#2D373D"/>
<path fill-rule="evenodd" clip-rule="evenodd" d="M7.99707 12.9306C7.99707 10.2059 10.2059 7.99707 12.9306 7.99707H51.0662C53.7909 7.99707 55.9998 10.2059 55.9998 12.9306V51.0662C55.9998 53.7909 53.7909 55.9998 51.0662 55.9998H12.9306C10.2059 55.9998 7.99707 53.7909 7.99707 51.0662V12.9306ZM12.9306 11.9971C12.415 11.9971 11.9971 12.415 11.9971 12.9306V51.0662C11.9971 51.5818 12.415 51.9998 12.9306 51.9998H51.0662C51.5818 51.9998 51.9998 51.5818 51.9998 51.0662V12.9306C51.9998 12.415 51.5818 11.9971 51.0662 11.9971H12.9306Z" fill="#2D373D"/>
</svg>
