<svg width="32" height="33" viewBox="0 0 32 33" fill="none" xmlns="http://www.w3.org/2000/svg">
<path fill-rule="evenodd" clip-rule="evenodd" d="M16 3.46191C8.8203 3.46191 3 9.28221 3 16.4619C3 23.6416 8.8203 29.4619 16 29.4619C23.1797 29.4619 29 23.6416 29 16.4619C29 9.28221 23.1797 3.46191 16 3.46191ZM5 16.4619C5 10.3868 9.92487 5.46191 16 5.46191C18.6774 5.46191 21.1314 6.41849 23.0389 8.00852L7.54578 23.4998C5.95624 21.5925 5 19.1389 5 16.4619ZM8.9598 24.9142C10.8675 26.5049 13.322 27.4619 16 27.4619C22.0751 27.4619 27 22.537 27 16.4619C27 13.7843 26.0433 11.3302 24.4531 9.42271L8.9598 24.9142Z" fill="#2D373D"/>
</svg>
