<svg width="32" height="33" viewBox="0 0 32 33" fill="none" xmlns="http://www.w3.org/2000/svg">
<path fill-rule="evenodd" clip-rule="evenodd" d="M15.9998 5.58984C13.7583 5.58984 11.5671 6.25453 9.70338 7.49985C7.83962 8.74518 6.387 10.5152 5.52921 12.5861C4.67142 14.657 4.44698 16.9357 4.88428 19.1342C5.32158 21.3327 6.40097 23.3521 7.98597 24.9371C9.57096 26.522 11.5904 27.6014 13.7888 28.0387C15.9873 28.476 18.266 28.2516 20.3369 27.3938C22.4078 26.536 24.1778 25.0834 25.4232 23.2196C26.6685 21.3559 27.3332 19.1647 27.3332 16.9232C27.3332 15.4349 27.04 13.9611 26.4705 12.5861C25.9009 11.2111 25.0661 9.9617 24.0137 8.9093C22.9613 7.8569 21.7119 7.0221 20.3369 6.45254C18.9619 5.88299 17.4882 5.58984 15.9998 5.58984ZM8.59224 5.83692C10.7849 4.37183 13.3628 3.58984 15.9998 3.58984C17.7508 3.58984 19.4846 3.93472 21.1023 4.60478C22.72 5.27485 24.1898 6.25697 25.4279 7.49509C26.666 8.7332 27.6482 10.2031 28.3182 11.8207C28.9883 13.4384 29.3332 15.1722 29.3332 16.9232C29.3332 19.5603 28.5512 22.1381 27.0861 24.3308C25.621 26.5234 23.5386 28.2324 21.1023 29.2416C18.6659 30.2507 15.9851 30.5148 13.3986 30.0003C10.8122 29.4858 8.43645 28.216 6.57175 26.3513C4.70705 24.4866 3.43718 22.1108 2.92271 19.5244C2.40824 16.938 2.67228 14.2571 3.68145 11.8207C4.69062 9.38438 6.39958 7.302 8.59224 5.83692Z" fill="#2D373D"/>
<path fill-rule="evenodd" clip-rule="evenodd" d="M22.6957 11.8597C23.0932 12.2432 23.1045 12.8763 22.721 13.2737L14.3382 21.9614C13.9619 22.3514 13.3434 22.3706 12.9436 22.0048L9.32634 18.6952C8.91887 18.3224 8.89078 17.6899 9.26359 17.2824C9.6364 16.8749 10.2689 16.8468 10.6764 17.2196L13.5752 19.8719L21.2818 11.885C21.6652 11.4875 22.2983 11.4762 22.6957 11.8597Z" fill="#2D373D"/>
</svg>
