<svg width="64" height="65" viewBox="0 0 64 65" fill="none" xmlns="http://www.w3.org/2000/svg">
<path d="M36.9996 46.3227L38.1996 36.3227H39.3996C40.5996 36.3227 41.3996 35.5227 41.3996 34.3227V29.9227C41.3996 26.3227 39.3996 23.1227 36.3996 21.5227C38.1996 20.1227 39.1996 18.1227 39.1996 15.9227C39.1996 11.9227 35.9996 8.72266 31.9996 8.72266C27.9996 8.72266 24.7996 11.9227 24.7996 15.9227C24.7996 18.3227 25.9996 20.3227 27.5996 21.7227C24.5996 23.3227 22.5996 26.3227 22.5996 29.9227V34.3227C22.5996 35.5227 23.3996 36.3227 24.5996 36.3227H25.5996L26.7996 46.3227C26.9996 47.3227 27.7996 48.1227 28.7996 48.1227H34.7996C35.7996 48.1227 36.7996 47.3227 36.9996 46.3227ZM31.9996 12.7227C33.5996 12.7227 35.1996 14.1227 35.1996 15.9227C35.1996 17.7227 33.7996 19.1227 31.9996 19.1227C30.1996 19.1227 28.7996 17.7227 28.7996 15.9227C28.7996 14.1227 30.1996 12.7227 31.9996 12.7227ZM33.1996 44.1227H30.7996L29.5996 34.1227C29.3996 33.1227 28.5996 32.3227 27.5996 32.3227H26.5996V29.9227C26.5996 26.9227 28.9996 24.5227 31.9996 24.5227C34.9996 24.5227 37.3996 26.9227 37.3996 29.9227V32.3227H36.3996C35.3996 32.3227 34.5996 33.1227 34.3996 34.1227L33.1996 44.1227Z" fill="#2D373D"/>
<path d="M24.1996 50.7224L21.9996 42.7224C21.7996 41.5224 20.5996 40.9224 19.5996 41.3224C18.5996 41.5224 17.9996 42.7224 18.1996 43.7224L19.5996 48.3224C14.5996 46.9224 11.7996 44.9224 11.7996 43.1224C11.7996 41.7224 13.9996 39.5224 18.7996 37.9224C19.9996 37.7224 20.5996 36.5224 20.1996 35.5224C19.9996 34.3224 18.7996 33.7224 17.7996 34.1224C11.1996 36.1224 7.59961 39.3224 7.59961 43.1224C7.59961 46.7224 10.9996 49.9224 16.9996 51.9224L14.7996 53.1224C13.7996 53.7224 13.3996 54.9224 13.9996 55.9224C14.3996 56.5224 15.1996 56.9224 15.7996 56.9224C15.9996 56.9224 16.3996 56.9224 16.7996 56.7224L23.1996 52.9224C23.3996 52.9224 23.3996 52.7224 23.3996 52.7224C23.5996 52.5224 23.5996 52.5224 23.7996 52.3224C23.9996 52.1224 23.9996 51.9224 23.9996 51.7224C24.3996 51.3224 24.3996 51.1224 24.1996 50.7224Z" fill="#2D373D"/>
<path d="M45.8 34.3225C44.8 34.1225 43.8 34.7225 43.4 35.7225C43.2 36.7225 43.8 37.7225 44.8 38.1225C50 39.7225 52.2 41.9225 52.2 43.3225C52.2 46.1225 44.2 50.1225 32 50.1225C30.8 50.1225 30 50.9225 30 52.1225C30 53.3225 30.8 54.1225 32 54.1225C43.6 54.1225 56 50.3225 56 43.3225C56 39.5225 52.4 36.3225 45.8 34.3225Z" fill="#2D373D"/>
</svg>
