<svg width="16" height="17" viewBox="0 0 16 17" fill="none" xmlns="http://www.w3.org/2000/svg">
<path fill-rule="evenodd" clip-rule="evenodd" d="M2.66841 12.0699C2.49046 12.0699 2.34619 11.9256 2.34619 11.7477V6.81432C2.34619 6.63636 2.49046 6.4921 2.66841 6.4921H11.7129C11.8908 6.4921 12.0351 6.63636 12.0351 6.81432V11.7477C12.0351 11.9256 11.8908 12.0699 11.7129 12.0699H2.66841ZM1.34619 11.7477C1.34619 12.4779 1.93817 13.0699 2.66841 13.0699H11.7129C12.4431 13.0699 13.0351 12.4779 13.0351 11.7477V6.81432C13.0351 6.08408 12.4431 5.4921 11.7129 5.4921H2.66841C1.93817 5.4921 1.34619 6.08408 1.34619 6.81432V11.7477Z" fill="#2D373D"/>
<path d="M6.7925 8.47174C7.00713 8.25712 7.29822 8.13654 7.60175 8.13654C7.87789 8.13654 8.10175 7.91269 8.10175 7.63654C8.10175 7.3604 7.87789 7.13654 7.60175 7.13654C7.03301 7.13654 6.48756 7.36248 6.0854 7.76464C5.80309 8.04695 5.60762 8.39986 5.51619 8.78187C5.25401 8.79738 5.04617 9.01491 5.04617 9.28099C5.04617 9.54707 5.25401 9.7646 5.51619 9.78011C5.60762 10.1621 5.80309 10.515 6.0854 10.7973C6.48756 11.1995 7.03301 11.4254 7.60175 11.4254C7.87789 11.4254 8.10175 11.2016 8.10175 10.9254C8.10175 10.6493 7.87789 10.4254 7.60175 10.4254C7.29822 10.4254 7.00713 10.3049 6.7925 10.0902C6.70153 9.99926 6.62746 9.89456 6.5723 9.78099H7.60173C7.87787 9.78099 8.10173 9.55713 8.10173 9.28099C8.10173 9.00485 7.87787 8.78099 7.60173 8.78099H6.5723C6.62746 8.66742 6.70153 8.56271 6.7925 8.47174Z" fill="#2D373D"/>
<path fill-rule="evenodd" clip-rule="evenodd" d="M14.1795 10.6032C14.4557 10.6032 14.6795 10.3794 14.6795 10.1032V5.16988C14.6795 4.8192 14.5402 4.48289 14.2923 4.23493C14.0443 3.98696 13.708 3.84766 13.3573 3.84766H4.31286C4.03672 3.84766 3.81286 4.07151 3.81286 4.34766C3.81286 4.6238 4.03672 4.84766 4.31286 4.84766H13.3573C13.4428 4.84766 13.5247 4.8816 13.5852 4.94203C13.6456 5.00246 13.6795 5.08442 13.6795 5.16988V10.1032C13.6795 10.3794 13.9034 10.6032 14.1795 10.6032Z" fill="#2D373D"/>
</svg>
