<svg width="32" height="33" viewBox="0 0 32 33" fill="none" xmlns="http://www.w3.org/2000/svg">
<path fill-rule="evenodd" clip-rule="evenodd" d="M17.3938 4.79492H6.82505C6.16425 4.79492 5.53051 5.05742 5.06326 5.52468C4.596 5.99194 4.3335 6.62568 4.3335 7.28648V26.6767C4.3335 27.3375 4.596 27.9712 5.06326 28.4385C5.53051 28.9058 6.16425 29.1683 6.82505 29.1683H9.80816C10.3604 29.1683 10.8082 28.7205 10.8082 28.1683C10.8082 27.616 10.3604 27.1683 9.80816 27.1683H6.82505C6.69468 27.1683 6.56965 27.1165 6.47747 27.0243C6.38529 26.9321 6.3335 26.8071 6.3335 26.6767V7.28648C6.3335 7.15611 6.38529 7.03108 6.47747 6.9389C6.56965 6.84671 6.69468 6.79492 6.82505 6.79492H16.266V11.7611C16.266 12.4219 16.5285 13.0557 16.9957 13.5229C17.463 13.9902 18.0967 14.2527 18.7575 14.2527H23.7237V17.7274C23.7237 18.2797 24.1714 18.7274 24.7237 18.7274C25.276 18.7274 25.7237 18.2797 25.7237 17.7274V13.2571L25.7237 13.2527L25.7237 13.2483V13.1242C25.7236 12.4639 25.4611 11.8304 24.9944 11.3633L19.1561 5.52412C18.9246 5.29279 18.6499 5.10933 18.3475 4.98421C18.0452 4.85915 17.7209 4.79483 17.3938 4.79492ZM18.266 7.46246L23.0554 12.2527H18.7575C18.6271 12.2527 18.5021 12.2009 18.4099 12.1087C18.3177 12.0165 18.266 11.8915 18.266 11.7611V7.46246Z" fill="#2D373D"/>
<path fill-rule="evenodd" clip-rule="evenodd" d="M12.791 19.7103C12.2387 19.7103 11.791 20.158 11.791 20.7103V28.1681C11.791 28.4333 11.8964 28.6876 12.0839 28.8752C12.2714 29.0627 12.5258 29.1681 12.791 29.1681C13.8474 29.1681 14.8605 28.7484 15.6075 28.0014C16.3545 27.2545 16.7741 26.2413 16.7741 25.185V23.6934C16.7741 22.637 16.3545 21.6239 15.6075 20.8769C14.8605 20.1299 13.8474 19.7103 12.791 19.7103ZM13.791 26.8975V21.9809C13.9366 22.0659 14.072 22.1698 14.1933 22.2911C14.5652 22.663 14.7741 23.1674 14.7741 23.6934V25.185C14.7741 25.7109 14.5652 26.2153 14.1933 26.5872C14.072 26.7085 13.9366 26.8125 13.791 26.8975Z" fill="#2D373D"/>
<path fill-rule="evenodd" clip-rule="evenodd" d="M18.4874 20.44C18.9547 19.9728 19.5884 19.7103 20.2492 19.7103C20.91 19.7103 21.5437 19.9728 22.011 20.44C22.4783 20.9073 22.7408 21.541 22.7408 22.2018V26.6765C22.7408 27.3373 22.4783 27.971 22.011 28.4383C21.5437 28.9056 20.91 29.1681 20.2492 29.1681C19.5884 29.1681 18.9547 28.9056 18.4874 28.4383C18.0202 27.971 17.7577 27.3373 17.7577 26.6765V22.2018C17.7577 21.541 18.0202 20.9073 18.4874 20.44ZM20.2492 21.7103C20.1188 21.7103 19.9938 21.7621 19.9016 21.8543C19.8094 21.9464 19.7577 22.0715 19.7577 22.2018V26.6765C19.7577 26.8069 19.8094 26.9319 19.9016 27.0241C19.9938 27.1163 20.1188 27.1681 20.2492 27.1681C20.3796 27.1681 20.5046 27.1163 20.5968 27.0241C20.689 26.9319 20.7408 26.8069 20.7408 26.6765V22.2018C20.7408 22.0715 20.689 21.9464 20.5968 21.8543C20.5046 21.7621 20.3796 21.7103 20.2492 21.7103Z" fill="#2D373D"/>
<path d="M27.7066 19.7103C26.6502 19.7103 25.6371 20.1299 24.8901 20.8769C24.1431 21.6239 23.7235 22.637 23.7235 23.6934V25.185C23.7235 26.2413 24.1431 27.2545 24.8901 28.0014C25.6371 28.7484 26.6502 29.1681 27.7066 29.1681C28.2589 29.1681 28.7066 28.7203 28.7066 28.1681C28.7066 27.6158 28.2589 27.1681 27.7066 27.1681C27.1806 27.1681 26.6762 26.9591 26.3043 26.5872C25.9324 26.2153 25.7235 25.7109 25.7235 25.185V23.6934C25.7235 23.1674 25.9324 22.663 26.3043 22.2911C26.6762 21.9192 27.1806 21.7103 27.7066 21.7103C28.2589 21.7103 28.7066 21.2626 28.7066 20.7103C28.7066 20.158 28.2589 19.7103 27.7066 19.7103Z" fill="#2D373D"/>
</svg>
