<svg width="64" height="65" viewBox="0 0 64 65" fill="none" xmlns="http://www.w3.org/2000/svg">
<path d="M36.1998 43.6611H30.5998C29.7998 40.4611 26.5998 37.8611 22.9998 37.8611H11.7998V36.6611C11.7998 35.4611 10.9998 34.6611 9.7998 34.6611C8.5998 34.6611 7.7998 35.4611 7.7998 36.6611V54.4611C7.7998 55.6611 8.5998 56.4611 9.7998 56.4611C10.9998 56.4611 11.7998 55.6611 11.7998 54.4611V53.6611H42.1998C43.3998 53.6611 44.1998 52.6611 44.1998 51.6611C44.1998 49.4611 43.1998 47.4611 41.7998 46.0611C40.1998 44.4611 38.3998 43.6611 36.1998 43.6611ZM11.7998 49.6611V41.8611H22.9998C24.3998 41.8611 25.7998 42.6611 26.3998 43.6611H21.5998C20.3998 43.6611 19.5998 44.4611 19.5998 45.6611C19.5998 46.8611 20.3998 47.6611 21.5998 47.6611H36.3998C37.7998 47.6611 39.1998 48.4611 39.7998 49.6611H11.7998Z" fill="#2D373D"/>
<path d="M45.2004 8.46094C39.2004 8.46094 34.4004 13.2609 34.4004 19.2609C34.4004 25.2609 39.2004 30.0609 45.2004 30.0609C51.2004 30.0609 56.0004 25.0609 56.0004 19.2609C56.0004 13.2609 51.2004 8.46094 45.2004 8.46094ZM45.2004 25.8609C41.4004 25.8609 38.4004 22.8609 38.4004 19.0609C38.4004 15.2609 41.4004 12.2609 45.2004 12.2609C49.0004 12.2609 52.0004 15.2609 52.0004 19.0609C52.0004 22.8609 49.0004 25.8609 45.2004 25.8609Z" fill="#2D373D"/>
<path d="M45.4004 31.8609C44.2004 31.8609 43.4004 32.6609 43.4004 33.8609C43.4004 36.0609 41.6004 37.8609 39.4004 37.8609C37.2004 37.8609 35.4004 36.0609 35.4004 33.8609C35.4004 32.8609 35.8004 32.0609 36.4004 31.2609C37.2004 30.4609 37.0004 29.2609 36.2004 28.4609C35.4004 27.6609 34.2004 27.8609 33.4004 28.6609C32.2004 30.0609 31.4004 31.8609 31.4004 33.8609C31.4004 38.2609 35.0004 41.8609 39.4004 41.8609C43.6004 41.8609 47.2004 38.2609 47.4004 33.8609C47.4004 32.6609 46.6004 31.8609 45.4004 31.8609Z" fill="#2D373D"/>
</svg>
