<svg width="16" height="16" viewBox="0 0 16 16" fill="none" xmlns="http://www.w3.org/2000/svg">
<path d="M12.1498 8.00001C11.9498 8.00001 11.7498 8.05001 11.5998 8.05001L9.8998 4.25001L11.4498 3.80001C11.7498 3.75001 11.8998 3.45001 11.7998 3.20001C11.7498 2.90001 11.4498 2.75001 11.1998 2.85001L9.5498 3.35001C9.4998 3.35001 9.4998 3.40001 9.4498 3.40001C9.1998 3.50001 9.0498 3.65001 8.9498 3.90001C8.8498 4.15001 8.8498 4.40001 8.9498 4.60001L9.5998 6.10001L6.2998 7.00001L5.5498 5.65001H6.3498C6.6498 5.65001 6.8498 5.45001 6.8498 5.15001C6.8498 4.85001 6.6498 4.65001 6.3498 4.65001H3.4498C3.1498 4.65001 2.9498 4.85001 2.9498 5.15001C2.9498 5.45001 3.1498 5.65001 3.4498 5.65001H4.3998L5.4998 7.55001L4.9498 8.25001C4.5998 8.10001 4.2498 8.00001 3.8498 8.00001C2.4498 8.00001 1.2998 9.15001 1.2998 10.55C1.2998 11.95 2.4498 13.1 3.8498 13.1C5.2998 13.1 6.44981 11.95 6.39981 10.55C6.39981 9.90001 6.1498 9.35 5.7498 8.9L6.39981 8.05001L9.9998 7.00001L10.6498 8.50001C9.9998 8.95001 9.5498 9.70001 9.5498 10.55C9.5498 11.95 10.6998 13.1 12.0998 13.1C13.4998 13.1 14.6498 11.95 14.6498 10.55C14.6998 9.15001 13.5498 8.00001 12.1498 8.00001ZM5.39981 10.5C5.39981 11.35 4.6998 12.05 3.8498 12.05C2.9998 12.05 2.2998 11.35 2.2998 10.5C2.2998 9.65001 2.9998 8.95001 3.8498 8.95001C4.0498 8.95001 4.1998 9.00001 4.3498 9.05001L3.4498 10.25C3.2998 10.45 3.3498 10.8 3.5498 10.95C3.6498 11 3.7498 11.05 3.8498 11.05C3.9998 11.05 4.1498 10.95 4.2498 10.85L5.1498 9.65C5.2998 9.95 5.39981 10.2 5.39981 10.5ZM12.1498 12.05C11.2998 12.05 10.5998 11.35 10.5998 10.5C10.5998 10.05 10.7998 9.65 11.0998 9.4L11.6998 10.75C11.7998 10.95 11.9498 11.05 12.1498 11.05C12.1998 11.05 12.2998 11.05 12.3498 11C12.5998 10.9 12.6998 10.6 12.5998 10.35L11.9998 9.00001C12.0498 9.00001 12.0998 9.00001 12.1498 9.00001C12.9998 9.00001 13.6998 9.70001 13.6998 10.55C13.6998 11.4 12.9998 12.05 12.1498 12.05Z" fill="#2D373D"/>
</svg>
