<svg width="32" height="33" viewBox="0 0 32 33" fill="none" xmlns="http://www.w3.org/2000/svg">
<path d="M22.0001 15.0619L16.7001 9.76191C16.3001 9.36191 15.7001 9.36191 15.3001 9.76191L9.9001 15.0619C9.5001 15.4619 9.5001 16.0619 9.9001 16.4619C10.1001 16.6619 10.3001 16.7619 10.6001 16.7619C10.9001 16.7619 11.1001 16.6619 11.3001 16.4619L15.0001 12.8619V22.4619C15.0001 23.0619 15.4001 23.4619 16.0001 23.4619C16.5001 23.4619 17.0001 23.0619 17.0001 22.4619V12.8619L20.6001 16.4619C21.0001 16.8619 21.6001 16.8619 22.0001 16.4619C22.4001 16.0619 22.4001 15.4619 22.0001 15.0619Z" fill="#2D373D"/>
</svg>
