<svg width="64" height="64" viewBox="0 0 64 64" fill="none" xmlns="http://www.w3.org/2000/svg">
<path d="M46.3659 18.8222L33.3659 5.82217C33.1659 5.62217 32.9659 5.42217 32.7659 5.42217C32.7659 5.42217 32.7659 5.42217 32.5659 5.42217C32.3659 5.22217 32.1659 5.22217 31.9659 5.22217C31.7659 5.22217 31.7659 5.22217 31.5659 5.22217C31.3659 5.22217 31.3659 5.22217 31.1659 5.22217C30.9659 5.42217 30.7659 5.62217 30.5659 5.82217L17.5659 18.8222C16.7659 19.6222 16.7659 20.8222 17.5659 21.6222C18.3659 22.4222 19.5659 22.4222 20.3659 21.6222L29.9659 12.0222V46.0222C29.9659 47.2222 30.7659 48.0222 31.9659 48.0222C33.1659 48.0222 33.9659 47.2222 33.9659 46.0222V12.0222L43.5659 21.6222C43.9659 22.0222 44.5659 22.2222 44.9659 22.2222C45.5659 22.2222 45.9659 22.0222 46.3659 21.6222C47.1659 20.8222 47.1659 19.6222 46.3659 18.8222Z" fill="#2D373D"/>
<path d="M51.3659 58.6221H12.5659C11.3659 58.6221 10.5659 57.8221 10.5659 56.6221C10.5659 55.4221 11.3659 54.6221 12.5659 54.6221H51.3659C52.5659 54.6221 53.3659 55.4221 53.3659 56.6221C53.3659 57.8221 52.5659 58.6221 51.3659 58.6221Z" fill="#2D373D"/>
</svg>
