<svg width="24" height="25" viewBox="0 0 24 25" fill="none" xmlns="http://www.w3.org/2000/svg">
<path d="M12.0003 6.6861C11.1753 6.6861 10.3503 7.0611 9.75027 7.6611C9.07527 8.2611 8.77527 9.0861 8.77527 9.9111C8.77527 10.3611 9.07527 10.6611 9.52527 10.6611C9.97527 10.6611 10.2753 10.3611 10.2753 9.9111C10.2753 9.4611 10.5003 9.0111 10.8003 8.7111C11.1003 8.3361 11.5503 8.1861 12.0003 8.1861C12.4503 8.1861 12.9003 8.4111 13.2003 8.7111C13.5753 9.0111 13.7253 9.4611 13.7253 9.9111C13.7253 10.6611 13.2753 11.3361 12.6003 11.5611C11.7753 11.8611 11.2503 12.6111 11.2503 13.4361V14.2611C11.2503 14.7111 11.5503 15.0111 12.0003 15.0111C12.3753 15.0111 12.7503 14.7111 12.7503 14.2611V13.4361C12.7503 13.2111 12.8253 13.0611 13.0503 12.9861C14.3253 12.4611 15.2253 11.2611 15.2253 9.9111C15.2253 9.0861 14.8503 8.2611 14.2503 7.6611C13.6503 6.9861 12.8253 6.6861 12.0003 6.6861Z" fill="#2D373D"/>
<path d="M12.0002 16.0611C11.4002 16.0611 10.9502 16.5111 10.9502 17.1111C10.9502 17.7111 11.4002 18.1611 12.0002 18.1611C12.6002 18.1611 13.0502 17.7111 13.0502 17.1111C13.0502 16.5111 12.6002 16.0611 12.0002 16.0611Z" fill="#2D373D"/>
<path d="M12.0002 2.41113C6.45019 2.41113 1.9502 6.91113 1.9502 12.4611C1.9502 17.9361 6.45019 22.4361 12.0002 22.4361C17.4752 22.4361 21.9752 17.9361 22.0502 12.4611C22.0502 6.91113 17.5502 2.41113 12.0002 2.41113ZM12.0002 21.0111C7.27519 21.0111 3.4502 17.1861 3.4502 12.4611C3.4502 7.73613 7.27519 3.91113 12.0002 3.91113C16.6502 3.91113 20.5502 7.73613 20.5502 12.4611C20.5502 17.1861 16.7252 21.0111 12.0002 21.0111Z" fill="#2D373D"/>
</svg>
