<svg width="16" height="16" viewBox="0 0 16 16" fill="none" xmlns="http://www.w3.org/2000/svg">
<path d="M9.75002 14.05C9.65002 14.05 9.55002 14.05 9.50002 14L5.15002 11.45H1.80002C1.50002 11.45 1.30002 11.25 1.30002 10.95V5.09999C1.30002 4.79999 1.50002 4.59999 1.80002 4.59999H5.15002L9.50002 2.04999C9.65002 1.94999 9.85002 1.94999 10 2.04999C10.15 2.14999 10.25 2.29999 10.25 2.49999V13.55C10.25 13.75 10.15 13.9 10 14C9.95002 14 9.85002 14.05 9.75002 14.05ZM2.30002 10.4H5.30002C5.40002 10.4 5.50002 10.4 5.55002 10.45L9.25002 12.65V3.34999L5.55002 5.49999C5.45002 5.54999 5.40002 5.54999 5.30002 5.54999H2.30002V10.4Z" fill="#2D373D"/>
<path d="M12.1 11.75C11.95 11.75 11.8 11.7 11.75 11.6C11.55 11.4 11.6 11.1 11.8 10.9C12.6 10.2 13.05 9.15005 13.05 8.10005C13.1 7.05005 12.6 6.05005 11.8 5.40005C11.6 5.25005 11.55 4.90005 11.7 4.70005C11.85 4.50005 12.2 4.45005 12.4 4.60005C13.45 5.45005 14.05 6.75005 14 8.10005C14 9.45005 13.45 10.75 12.4 11.65C12.35 11.7 12.2 11.75 12.1 11.75Z" fill="#2D373D"/>
</svg>
