<svg width="16" height="17" viewBox="0 0 16 17" fill="none" xmlns="http://www.w3.org/2000/svg">
<path fill-rule="evenodd" clip-rule="evenodd" d="M13.9968 3.52402C14.0136 3.37304 13.9609 3.22262 13.8534 3.1152C13.746 3.00778 13.5956 2.95503 13.4446 2.97182L12.3016 3.09894C11.2923 3.21113 10.3511 3.66351 9.63304 4.38165L6.62359 7.3911L6.25154 7.26719C5.60354 7.05125 4.90821 7.02003 4.24346 7.17701C3.5787 7.334 2.97079 7.673 2.48784 8.15603L2.36496 8.27891C2.25684 8.38693 2.17812 8.5208 2.13628 8.6678C2.09439 8.81497 2.09085 8.97041 2.12601 9.11933C2.16117 9.26825 2.23386 9.4057 2.33715 9.51859C2.44037 9.63141 2.57072 9.71596 2.71582 9.7642L4.522 10.3666L6.60087 12.4464L7.20324 14.2525C7.25148 14.3976 7.33614 14.5283 7.44894 14.6315C7.56184 14.7348 7.69928 14.8075 7.8482 14.8426C7.99712 14.8778 8.15256 14.8743 8.29973 14.8324C8.44656 14.7906 8.58028 14.712 8.68824 14.6041L8.68899 14.6033L8.81206 14.4808C9.295 13.9978 9.6339 13.3898 9.79078 12.725C9.94764 12.0603 9.91634 11.3651 9.70038 10.7172L9.57663 10.3454L12.587 7.33562C13.3053 6.61768 13.7578 5.6763 13.8697 4.66687L13.9968 3.52402ZM12.4121 4.09281L12.9339 4.03479L12.8758 4.55668C12.7889 5.34033 12.4376 6.0711 11.8799 6.62844L7.03808 11.4693L5.4992 9.9297L10.3402 5.08873C10.8977 4.53114 11.6285 4.17991 12.4121 4.09281ZM4.47329 8.15024C4.92174 8.04434 5.38931 8.05607 5.83087 8.18342L4.6571 9.3575L3.18991 8.86817L3.19498 8.8631C3.54662 8.51139 3.98926 8.26455 4.47329 8.15024ZM8.09949 13.7791L7.61014 12.3119L8.78471 11.1398C8.91158 11.5808 8.92319 12.0476 8.81752 12.4954C8.70332 12.9792 8.45668 13.4218 8.10522 13.7734L8.09949 13.7791Z" fill="#2D373D"/>
<path fill-rule="evenodd" clip-rule="evenodd" d="M4.46716 11.7686C4.74271 11.7507 4.95154 11.5127 4.93358 11.2372C4.91562 10.9616 4.67768 10.7528 4.40212 10.7707C3.9924 10.7974 3.60643 10.9724 3.31634 11.263C3.12655 11.4524 2.96646 11.7669 2.84146 12.047C2.70595 12.3507 2.57469 12.7024 2.46117 13.0306C2.34711 13.3603 2.2483 13.6741 2.17813 13.905C2.14298 14.0206 2.11488 14.1159 2.09549 14.1825C2.08579 14.2159 2.07826 14.2421 2.07311 14.2601L2.0672 14.2809L2.06503 14.2885C2.01614 14.4626 2.065 14.6496 2.19286 14.7774C2.32071 14.9053 2.50771 14.9541 2.68177 14.9052L2.68944 14.903L2.7102 14.8971C2.72821 14.8919 2.75439 14.8844 2.7877 14.8747C2.8543 14.8553 2.94953 14.8272 3.06509 14.7921C3.29584 14.7219 3.60949 14.6231 3.9391 14.509C4.26717 14.3955 4.61874 14.2643 4.92248 14.1288C5.20293 14.0037 5.51728 13.8437 5.70684 13.6543C5.86425 13.4972 5.98908 13.3107 6.07417 13.1052C6.15928 12.8998 6.20295 12.6795 6.20266 12.4571C6.2023 12.1809 5.97815 11.9574 5.70201 11.9577C5.42586 11.9581 5.2023 12.1822 5.20266 12.4584C5.20278 12.549 5.18498 12.6388 5.15029 12.7226C5.1156 12.8063 5.06469 12.8824 5.00051 12.9464L5.00005 12.9469C4.95705 12.9899 4.80444 13.0864 4.5151 13.2155C4.24888 13.3343 3.92771 13.4548 3.6121 13.564C3.50621 13.6006 3.40181 13.6357 3.30139 13.6687C3.33442 13.5681 3.36953 13.4635 3.40622 13.3575C3.51543 13.0418 3.63595 12.7206 3.75468 12.4545C3.88381 12.1651 3.98023 12.0131 4.02275 11.9708L4.02378 11.9697C4.14221 11.851 4.29983 11.7795 4.46716 11.7686Z" fill="#2D373D"/>
</svg>
