<svg width="64" height="65" viewBox="0 0 64 65" fill="none" xmlns="http://www.w3.org/2000/svg">
<path d="M31.971 56.4688C35.1927 56.4688 37.8044 53.8571 37.8044 50.6354C37.8044 47.4138 35.1927 44.8021 31.971 44.8021C28.7494 44.8021 26.1377 47.4138 26.1377 50.6354C26.1377 53.8571 28.7494 56.4688 31.971 56.4688Z" fill="#2D373D"/>
<path d="M31.971 19.1354C35.1927 19.1354 37.8044 16.5237 37.8044 13.3021C37.8044 10.0804 35.1927 7.46875 31.971 7.46875C28.7494 7.46875 26.1377 10.0804 26.1377 13.3021C26.1377 16.5237 28.7494 19.1354 31.971 19.1354Z" fill="#2D373D"/>
<path d="M31.971 37.8021C35.1927 37.8021 37.8044 35.1904 37.8044 31.9688C37.8044 28.7471 35.1927 26.1354 31.971 26.1354C28.7494 26.1354 26.1377 28.7471 26.1377 31.9688C26.1377 35.1904 28.7494 37.8021 31.971 37.8021Z" fill="#2D373D"/>
</svg>
