<svg width="64" height="64" viewBox="0 0 64 64" fill="none" xmlns="http://www.w3.org/2000/svg">
<path d="M57.3998 28.2001C51.5998 21.8001 41.7998 15.0001 31.9998 15.2001C22.1998 15.0001 12.3998 21.8001 6.7998 28.4001C4.7998 30.6001 4.7998 33.8001 6.7998 36.0001C12.5998 42.2001 22.1998 49.0001 31.7998 49.0001C31.9998 49.0001 32.1998 49.0001 32.3998 49.0001C41.9998 49.0001 51.5998 42.2001 57.3998 35.8001C59.3998 33.6001 59.3998 30.4001 57.3998 28.2001ZM54.3998 33.2001C49.1998 39.0001 40.5998 45.0001 32.1998 45.0001H31.9998C23.3998 45.2001 14.7998 39.0001 9.5998 33.2001C8.9998 32.6001 8.9998 31.6001 9.5998 31.0001C14.7998 25.2001 23.5998 19.0001 31.9998 19.2001C40.5998 19.0001 49.1998 25.2001 54.3998 31.0001C54.9998 31.6001 54.9998 32.6001 54.3998 33.2001Z" fill="#2D373D"/>
<path d="M31.9998 22C26.3998 22 21.7998 26.6 21.7998 32.2C21.7998 34.8 22.7998 37.4 24.7998 39.4C26.5998 41.4 29.1998 42.4 31.9998 42.4C34.7998 42.4 37.1998 41.2 39.1998 39.4C41.1998 37.6 42.1998 35 42.1998 32.2C42.1998 29.6 41.1998 27 39.1998 25C37.3998 23 34.7998 22 31.9998 22ZM36.3998 36.4C35.1998 37.6 33.5998 38.2 31.9998 38.2C30.3998 38.2 28.7998 37.6 27.5998 36.4C26.3998 35.2 25.7998 33.6 25.7998 32C25.7998 28.6 28.5998 25.8 31.9998 25.8C33.5998 25.8 35.1998 26.4 36.3998 27.6C37.5998 28.8 38.1998 30.4 38.1998 32C38.1998 33.6 37.5998 35.2 36.3998 36.4Z" fill="#2D373D"/>
</svg>
