<svg width="16" height="17" viewBox="0 0 16 17" fill="none" xmlns="http://www.w3.org/2000/svg">
<path fill-rule="evenodd" clip-rule="evenodd" d="M13.5373 10.5501V8.6865C13.5349 7.14852 12.9275 5.67313 11.8461 4.57721C10.7655 3.48219 9.2979 2.85329 7.75814 2.82486C7.44518 2.81532 7.13821 2.91317 6.8886 3.10235L5.19511 4.3686C4.52267 4.59433 3.89971 4.9611 3.37112 5.45131C2.48949 6.26892 1.93195 7.37289 1.79606 8.56202C1.49919 8.88983 1.3335 9.3169 1.3335 9.76128C1.3335 10.2362 1.52275 10.6913 1.85912 11.0267C2.1791 11.3457 2.60726 11.5315 3.05717 11.5488V13.1981C3.05717 13.673 3.24642 14.1281 3.58279 14.4635C3.91911 14.7988 4.37494 14.9869 4.84991 14.9869C5.32489 14.9869 5.78071 14.7988 6.11703 14.4635C6.43675 14.1447 6.62355 13.7178 6.64127 13.2685H10.4518C10.7968 13.2685 11.137 13.1884 11.4457 13.0345C11.7544 12.8807 12.023 12.6572 12.2303 12.3817L12.8559 11.5501H14.1668C14.443 11.5501 14.6668 11.3262 14.6668 11.0501C14.6668 10.7739 14.443 10.5501 14.1668 10.5501H13.5373ZM7.72884 3.82443C7.64341 3.82156 7.55978 3.84825 7.49214 3.89969L7.48889 3.90216L7.19356 4.12296C7.85493 4.17726 8.50041 4.36169 9.09221 4.66708C9.80392 5.03435 10.4174 5.56597 10.8815 6.21775C11.0417 6.4427 10.9892 6.75489 10.7642 6.91506C10.5393 7.07523 10.2271 7.02271 10.0669 6.79777C9.69536 6.27594 9.20398 5.85006 8.63363 5.55574C8.06363 5.26159 7.43131 5.1074 6.78932 5.10606C5.77275 5.10939 4.79503 5.49462 4.0511 6.18453C3.51969 6.67736 3.13548 7.29976 2.93142 7.98306C2.99582 7.97604 3.06085 7.97247 3.12624 7.97247H8.29722C8.57336 7.97247 8.79722 8.19633 8.79722 8.47247C8.79722 8.74862 8.57336 8.97247 8.29722 8.97247H3.12624C2.94046 8.97247 2.76162 9.03735 2.62009 9.15418C2.61007 9.16365 2.59966 9.17271 2.5889 9.18133C2.58084 9.18872 2.57292 9.1963 2.56515 9.20405C2.41665 9.35209 2.3335 9.55257 2.3335 9.76128C2.3335 9.96999 2.41664 10.1705 2.56515 10.3185C2.7137 10.4666 2.9155 10.5501 3.12624 10.5501H3.55438L3.55717 10.5501L3.55996 10.5501H12.5373V8.68805C12.5352 7.41303 12.0316 6.18898 11.1343 5.2796C10.2368 4.37007 9.01693 3.8475 7.73671 3.82463L7.72884 3.82443ZM11.6045 11.5501H4.05717V13.1981C4.05717 13.4068 4.14032 13.6073 4.28882 13.7553C4.43737 13.9034 4.63917 13.9869 4.84991 13.9869C5.06065 13.9869 5.26246 13.9034 5.41101 13.7553C5.55951 13.6073 5.64266 13.4068 5.64266 13.1981V12.7685C5.64266 12.4923 5.86651 12.2685 6.14266 12.2685H10.4518C10.642 12.2685 10.8296 12.2243 10.9996 12.1396C11.1696 12.0548 11.3173 11.9319 11.4312 11.7805L11.6045 11.5501Z" fill="#2D373D"/>
</svg>
