<svg width="32" height="33" viewBox="0 0 32 33" fill="none" xmlns="http://www.w3.org/2000/svg">
<path d="M22.14 7.86336C22.2802 7.93128 22.4343 7.96553 22.59 7.96336C22.7764 7.96466 22.9594 7.91385 23.1184 7.81667C23.2775 7.71948 23.4062 7.57979 23.49 7.41336L24.3 5.77336C24.4186 5.53719 24.4389 5.26367 24.3565 5.01258C24.274 4.76149 24.0955 4.55324 23.86 4.43336C23.7396 4.37475 23.6086 4.34093 23.4748 4.33392C23.341 4.32691 23.2072 4.34685 23.0813 4.39256C22.9554 4.43826 22.8399 4.5088 22.7418 4.59998C22.6436 4.69116 22.5648 4.80113 22.51 4.92336L21.7 6.52336C21.5814 6.75953 21.5611 7.03305 21.6436 7.28414C21.726 7.53523 21.9045 7.74347 22.14 7.86336Z" fill="#2D373D"/>
<path d="M18.5 6.33336C18.7652 6.33336 19.0196 6.228 19.2071 6.04047C19.3947 5.85293 19.5 5.59858 19.5 5.33336V3.69336C19.5 3.42814 19.3947 3.17379 19.2071 2.98625C19.0196 2.79872 18.7652 2.69336 18.5 2.69336C18.2348 2.69336 17.9804 2.79872 17.7929 2.98625C17.6054 3.17379 17.5 3.42814 17.5 3.69336V5.33336C17.5 5.59858 17.6054 5.85293 17.7929 6.04047C17.9804 6.228 18.2348 6.33336 18.5 6.33336Z" fill="#2D373D"/>
<path d="M22.59 17.4234H21.14V15.9234C21.14 15.6581 21.0347 15.4038 20.8471 15.2163C20.6596 15.0287 20.4052 14.9234 20.14 14.9234C19.8748 14.9234 19.6204 15.0287 19.4329 15.2163C19.2454 15.4038 19.14 15.6581 19.14 15.9234V17.4234H17.68C17.4148 17.4234 17.1604 17.5287 16.9729 17.7163C16.7854 17.9038 16.68 18.1581 16.68 18.4234C16.68 18.6886 16.7854 18.9429 16.9729 19.1305C17.1604 19.318 17.4148 19.4234 17.68 19.4234H19.14V20.9234C19.14 21.1886 19.2454 21.4429 19.4329 21.6305C19.6204 21.818 19.8748 21.9234 20.14 21.9234C20.4052 21.9234 20.6596 21.818 20.8471 21.6305C21.0347 21.4429 21.14 21.1886 21.14 20.9234V19.4234H22.59C22.8552 19.4234 23.1096 19.318 23.2971 19.1305C23.4847 18.9429 23.59 18.6886 23.59 18.4234C23.59 18.1581 23.4847 17.9038 23.2971 17.7163C23.1096 17.5287 22.8552 17.4234 22.59 17.4234Z" fill="#2D373D"/>
<path d="M13.51 7.41336C13.5939 7.57979 13.7226 7.71948 13.8816 7.81667C14.0406 7.91385 14.2237 7.96466 14.41 7.96336C14.5624 7.96398 14.7129 7.92978 14.85 7.86336C15.0873 7.74524 15.268 7.53776 15.3524 7.28649C15.4367 7.03523 15.4179 6.76075 15.3 6.52336L14.48 4.92336C14.4303 4.79282 14.3537 4.67414 14.2553 4.575C14.1569 4.47585 14.0388 4.39842 13.9086 4.3477C13.7784 4.29698 13.6391 4.27411 13.4995 4.28054C13.36 4.28697 13.2233 4.32257 13.0984 4.38505C12.9734 4.44753 12.8629 4.53549 12.7741 4.64328C12.6852 4.75106 12.6199 4.87627 12.5823 5.01084C12.5448 5.1454 12.5359 5.28634 12.5562 5.42457C12.5764 5.56279 12.6254 5.69523 12.7 5.81336L13.51 7.41336Z" fill="#2D373D"/>
<path d="M28.55 11.6534C28.0477 11.1723 27.3754 10.9099 26.68 10.9234H21.95C21.9015 10.0408 21.517 9.21021 20.8754 8.60213C20.2339 7.99406 19.3839 7.65458 18.5 7.65336C17.587 7.6537 16.7107 8.01285 16.06 8.65336C15.4433 9.2535 15.0755 10.0641 15.03 10.9234H13.59C13.2438 10.924 12.9012 10.9933 12.582 11.1272C12.2627 11.2611 11.9731 11.4569 11.73 11.7034C11.478 11.9457 11.2803 12.2389 11.15 12.5634H8.32002C7.72021 12.5651 7.13887 12.7711 6.67174 13.1473C6.2046 13.5236 5.87952 14.0477 5.75002 14.6334L5.32002 17.0534L3.95002 17.9234C3.58773 18.1649 3.29054 18.492 3.08472 18.8757C2.87891 19.2594 2.77083 19.6879 2.77002 20.1234V24.9834C2.77203 25.6805 3.04868 26.3488 3.54002 26.8434C3.78516 27.0892 4.07671 27.2839 4.39773 27.4161C4.71876 27.5482 5.06285 27.6153 5.41002 27.6134H8.20002C8.50916 28.1137 8.94109 28.5267 9.45478 28.8132C9.96847 29.0996 10.5469 29.25 11.135 29.25C11.7232 29.25 12.3016 29.0996 12.8153 28.8132C13.3289 28.5267 13.7609 28.1137 14.07 27.6134H20.47C20.7804 28.1136 21.2134 28.5264 21.7278 28.8126C22.2423 29.0989 22.8213 29.2491 23.41 29.2491C23.9988 29.2491 24.5777 29.0989 25.0922 28.8126C25.6067 28.5264 26.0396 28.1136 26.35 27.6134H26.68C27.0262 27.6147 27.3693 27.5476 27.6895 27.416C28.0098 27.2845 28.3009 27.0909 28.5462 26.8466C28.7915 26.6022 28.9861 26.3119 29.1189 25.9921C29.2517 25.6724 29.32 25.3296 29.32 24.9834V13.5134C29.3223 13.1676 29.2554 12.8249 29.1231 12.5055C28.9909 12.186 28.796 11.8963 28.55 11.6534ZM17.47 10.0334C17.7473 9.76808 18.1163 9.62002 18.5 9.62002C18.8838 9.62002 19.2527 9.76808 19.53 10.0334C19.7576 10.2591 19.9021 10.5551 19.94 10.8734H17.03C17.0761 10.5512 17.2314 10.2547 17.47 10.0334ZM7.68002 25.6034H5.41002C5.32684 25.6046 5.24425 25.5893 5.16702 25.5584C5.08978 25.5275 5.01943 25.4816 4.96002 25.4234C4.84059 25.3038 4.77244 25.1424 4.77002 24.9734V20.1134C4.77166 20.0083 4.79913 19.9053 4.85002 19.8134C4.9 19.7236 4.96812 19.6453 5.05002 19.5834L6.78002 18.4334C6.89155 18.3593 6.98708 18.2636 7.06095 18.152C7.13481 18.0403 7.1855 17.915 7.21002 17.7834L7.71002 14.9934C7.74115 14.855 7.8188 14.7314 7.93002 14.6434C8.04349 14.5608 8.17972 14.5154 8.32002 14.5134H10.95V22.3434C10.0992 22.3888 9.29507 22.7466 8.69168 23.3481C8.08828 23.9497 7.72806 24.7527 7.68002 25.6034ZM12.52 26.2234V26.3234C12.4115 26.5939 12.2244 26.8258 11.9829 26.9891C11.7414 27.1524 11.4565 27.2397 11.165 27.2397C10.8735 27.2397 10.5886 27.1524 10.3471 26.9891C10.1057 26.8258 9.91858 26.5939 9.81002 26.3234V26.2234C9.76086 26.0854 9.73714 25.9397 9.74002 25.7934C9.72332 25.5921 9.74854 25.3897 9.81409 25.1987C9.87963 25.0077 9.98407 24.8324 10.1208 24.6839C10.2575 24.5353 10.4236 24.4167 10.6085 24.3356C10.7934 24.2545 10.9931 24.2126 11.195 24.2126C11.3969 24.2126 11.5966 24.2545 11.7815 24.3356C11.9664 24.4167 12.1325 24.5353 12.2692 24.6839C12.406 24.8324 12.5104 25.0077 12.576 25.1987C12.6415 25.3897 12.6667 25.5921 12.65 25.7934C12.6339 25.9436 12.5898 26.0894 12.52 26.2234ZM24.8 26.2234C24.7959 26.2499 24.7959 26.2769 24.8 26.3034C24.6931 26.5771 24.5062 26.8122 24.2635 26.9779C24.0209 27.1437 23.7339 27.2323 23.44 27.2323C23.1462 27.2323 22.8592 27.1437 22.6165 26.9779C22.3739 26.8122 22.1869 26.5771 22.08 26.3034V26.2234C22.0365 26.0806 22.013 25.9326 22.01 25.7834C21.9933 25.5821 22.0185 25.3797 22.0841 25.1887C22.1496 24.9977 22.2541 24.8224 22.3908 24.6739C22.5275 24.5253 22.6936 24.4067 22.8785 24.3256C23.0634 24.2445 23.2631 24.2026 23.465 24.2026C23.6669 24.2026 23.8666 24.2445 24.0515 24.3256C24.2364 24.4067 24.4025 24.5253 24.5392 24.6739C24.676 24.8224 24.7804 24.9977 24.846 25.1887C24.9115 25.3797 24.9367 25.5821 24.92 25.7834C24.902 25.9384 24.8616 26.09 24.8 26.2334V26.2234ZM27.32 24.9634C27.3176 25.1324 27.2495 25.2938 27.13 25.4134C27.054 25.4873 26.9614 25.5422 26.86 25.5734C26.7938 24.7037 26.4015 23.8912 25.7618 23.2984C25.1221 22.7056 24.2822 22.3762 23.41 22.3762C22.5379 22.3762 21.6979 22.7056 21.0582 23.2984C20.4185 23.8912 20.0263 24.7037 19.96 25.5734H14.59C14.5576 25.017 14.3916 24.4766 14.1062 23.9979C13.8207 23.5192 13.4241 23.1163 12.95 22.8234V13.5134C12.9526 13.3444 13.0209 13.1831 13.1403 13.0637C13.2598 12.9442 13.4211 12.8759 13.59 12.8734H26.68C26.764 12.8729 26.8472 12.8895 26.9245 12.9222C27.0019 12.9548 27.0718 13.0029 27.13 13.0634C27.2504 13.1823 27.3187 13.3441 27.32 13.5134V24.9634Z" fill="#2D373D"/>
</svg>
