<svg width="64" height="65" viewBox="0 0 64 65" fill="none" xmlns="http://www.w3.org/2000/svg">
<path d="M54.9697 27.5035L51.3536 23.9235L54.6061 20.7034C55.394 19.9234 55.394 18.6634 54.6061 17.8834L45.2525 8.62336C44.4647 7.84336 43.1919 7.84336 42.4041 8.62336L39.1515 11.8434L34.7879 7.52336C34.4041 7.14336 33.899 6.94336 33.3536 6.94336H21.0909C15.596 6.94336 11.1313 11.3634 11.1313 16.8034V53.2035C11.1313 56.3635 13.7172 58.9235 16.9091 58.9235H49.7778C52.9697 58.9235 55.5556 56.3635 55.5556 53.2035V28.9235C55.5556 28.3835 55.3333 27.8835 54.9697 27.5035ZM43.8182 12.8634L50.303 19.2834L48.4849 21.0835L42 14.6634L43.8182 12.8634ZM51.5152 53.2035C51.5152 54.1635 50.7273 54.9235 49.7778 54.9235H16.8889C15.9192 54.9235 15.1516 54.1435 15.1516 53.2035V16.7834C15.1516 13.5434 17.8182 10.9234 21.0707 10.9234H32.4849L51.495 29.7435V53.1835L51.5152 53.2035Z" fill="#2D373D"/>
<path d="M34.4041 26.0435C34.0606 25.3635 33.3738 24.9235 32.6061 24.9235C31.8182 24.8635 31.1313 25.3435 30.7879 26.0035L24.5253 38.1035C22.4041 42.1835 23.8586 47.2435 27.9394 49.6635C29.3536 50.5035 30.9293 50.9235 32.4849 50.9235C34.0404 50.9235 35.7576 50.4635 37.2121 49.5635C41.0303 47.1835 42.4243 42.3435 40.4445 38.3235L34.4041 26.0435ZM35.0707 46.1835C33.5354 47.1435 31.596 47.1635 29.9394 46.1835C27.7778 44.9035 26.9899 42.1635 28.1414 39.9235L32.5657 31.3835L36.8485 40.0635C37.9192 42.2435 37.1717 44.8635 35.0909 46.1635L35.0707 46.1835Z" fill="#2D373D"/>
<path d="M33.3333 18.9233C33.3333 17.8233 32.4243 16.9233 31.3131 16.9233H21.2121C20.101 16.9233 19.1919 17.8233 19.1919 18.9233C19.1919 20.0233 20.101 20.9233 21.2121 20.9233H31.3131C32.4243 20.9233 33.3333 20.0233 33.3333 18.9233Z" fill="#2D373D"/>
</svg>
