<svg width="24" height="24" viewBox="0 0 24 24" fill="none" xmlns="http://www.w3.org/2000/svg">
<path d="M15.7498 5.69995H15.2248V2.69995C15.2248 2.24995 14.9248 1.94995 14.4748 1.94995C14.0248 1.94995 13.7248 2.24995 13.7248 2.69995V5.69995H10.2748V2.69995C10.2748 2.24995 9.9748 1.94995 9.5248 1.94995C9.0748 1.94995 8.7748 2.24995 8.7748 2.69995V5.69995H8.32481C7.19981 5.69995 6.2998 6.52495 6.2998 7.64995V11.4C6.2998 13.35 7.2748 15.0749 8.7748 16.1249V17.5499C8.7748 18.6749 9.6748 19.5749 10.7998 19.5749H11.2498V21.2999C11.2498 21.7499 11.5498 22.0499 11.9998 22.0499C12.4498 22.0499 12.7498 21.7499 12.7498 21.2999V19.5749H13.2748C14.3248 19.5749 15.2248 18.6749 15.2998 17.5499V16.0499C16.7248 14.9999 17.6998 13.35 17.7748 11.4V7.64995C17.7748 6.59995 16.8748 5.69995 15.7498 5.69995ZM13.7998 17.5499C13.7998 17.8499 13.5748 18.0749 13.2748 18.0749H10.7998C10.4998 18.0749 10.2748 17.8499 10.2748 17.5499V16.7999C10.7998 16.9499 11.3998 17.0999 11.9998 17.0999C12.5998 17.0999 13.1998 17.0249 13.7998 16.7999V17.5499ZM16.1998 11.4C16.1998 13.725 14.3248 15.5999 11.9998 15.5999C11.3248 15.5999 10.6498 15.45 10.0498 15.15C9.9748 15.075 9.8998 14.9999 9.7498 14.9999C8.5498 14.2499 7.72481 12.975 7.72481 11.4V7.64995C7.72481 7.42495 7.9498 7.19995 8.2498 7.19995H15.5998C15.8998 7.19995 16.1248 7.34995 16.1248 7.64995V11.4H16.1998Z" fill="#2D373D"/>
</svg>
