<svg width="32" height="33" viewBox="0 0 32 33" fill="none" xmlns="http://www.w3.org/2000/svg">
<path d="M20.6001 20.2614C20.1001 19.8614 19.5001 19.5614 18.8001 19.5614C18.1001 19.5614 17.5001 19.7614 17.0001 20.2614C16.9001 20.3614 16.8001 20.3614 16.7001 20.3614C16.7001 20.3614 16.5001 20.3614 16.4001 20.2614L12.2001 16.0614C12.0001 15.8614 12.0001 15.5614 12.2001 15.3614C12.7001 14.8614 12.9001 14.1614 12.9001 13.5614C12.9001 12.9614 12.7001 12.2614 12.2001 11.7614L9.6001 9.16138C8.6001 8.16138 7.1001 8.16138 6.1001 9.16138L5.5001 9.76138C3.7001 11.5614 3.4001 14.3614 4.8001 16.5614C7.7001 20.9614 11.4001 24.6614 15.8001 27.5614C16.7001 28.1614 17.7001 28.4614 18.7001 28.4614C20.1001 28.4614 21.5001 27.9614 22.6001 26.9614L23.2001 26.3614C24.2001 25.3614 24.2001 23.8614 23.2001 22.8614L20.6001 20.2614ZM21.7001 24.9614L21.1001 25.5614C20.0001 26.7614 18.2001 26.8614 16.9001 26.0614C12.7001 23.2614 9.2001 19.6614 6.4001 15.5614C5.6001 14.1614 5.8001 12.3614 6.9001 11.2614L7.6001 10.5614C7.7001 10.4614 7.8001 10.4614 7.9001 10.4614C8.0001 10.4614 8.1001 10.5614 8.2001 10.6614L10.8001 13.2614C11.0001 13.4614 11.0001 13.7614 10.8001 13.9614C9.8001 14.9614 9.8001 16.4614 10.8001 17.4614L15.0001 21.6614C15.5001 22.0614 16.1001 22.3614 16.8001 22.3614C17.4001 22.3614 18.0001 22.1614 18.5001 21.6614C18.6001 21.5614 18.7001 21.5614 18.8001 21.5614C18.8001 21.5614 19.0001 21.5614 19.1001 21.6614L21.7001 24.2614C21.9001 24.4614 21.9001 24.7614 21.7001 24.9614Z" fill="#2D373D"/>
<path d="M18.6998 17.1612C18.6998 17.7612 19.0998 18.1612 19.6998 18.1612C20.1998 18.1612 20.6998 17.7612 20.6998 17.1612C20.6998 14.1612 18.2998 11.7612 15.2998 11.7612C14.6998 11.7612 14.2998 12.1612 14.2998 12.7612C14.2998 13.3612 14.6998 13.7612 15.2998 13.7612C17.1998 13.7612 18.6998 15.2612 18.6998 17.1612Z" fill="#2D373D"/>
<path d="M15.2002 8.06128C14.6002 8.06128 14.2002 8.46128 14.2002 9.06128C14.2002 9.66128 14.6002 10.0613 15.2002 10.0613C19.1002 10.0613 22.3002 13.2613 22.3002 17.1613C22.3002 17.7613 22.7002 18.1613 23.3002 18.1613C23.9002 18.1613 24.3002 17.7613 24.3002 17.1613C24.3002 12.1613 20.2002 8.06128 15.2002 8.06128Z" fill="#2D373D"/>
<path d="M15.2002 4.36133C14.6002 4.36133 14.2002 4.76133 14.2002 5.36133C14.2002 5.96133 14.6002 6.36133 15.2002 6.36133C21.2002 6.36133 26.0002 11.1613 26.0002 17.1613C26.0002 17.7613 26.4002 18.1613 27.0002 18.1613C27.6002 18.1613 28.0002 17.7613 28.0002 17.1613C28.0002 10.0613 22.3002 4.36133 15.2002 4.36133Z" fill="#2D373D"/>
</svg>
