<svg width="64" height="65" viewBox="0 0 64 65" fill="none" xmlns="http://www.w3.org/2000/svg">
<path d="M56.7992 16.6617H40.9992C40.5992 11.8617 36.7992 8.26172 31.9992 8.26172C27.1992 8.26172 23.3992 11.8617 22.9992 16.6617H7.19922C5.99922 16.6617 5.19922 17.4617 5.19922 18.6617V51.8617C5.19922 53.0617 5.99922 53.8617 7.19922 53.8617H56.7992C57.9992 53.8617 58.7992 53.0617 58.7992 51.8617V18.6617C58.7992 17.4617 57.9992 16.6617 56.7992 16.6617ZM31.9992 12.2617C34.5992 12.2617 36.5992 14.0617 36.9992 16.6617H27.1992C27.3992 14.2617 29.3992 12.2617 31.9992 12.2617ZM54.7992 49.8617H9.19922V34.0617H26.5992C26.7992 36.8617 29.1992 38.8617 31.9992 38.8617C34.7992 38.8617 37.1992 36.8617 37.1992 34.0617H54.7992V49.8617ZM30.5992 33.6617V30.4617C30.5992 30.0617 30.7992 29.6617 30.9992 29.4617C31.3992 29.2617 31.5992 29.0617 31.9992 29.0617C32.7992 29.0617 33.3992 29.6617 33.3992 30.2617V33.6617C33.3992 34.4617 32.7992 35.0617 31.9992 35.0617C31.1992 35.0617 30.5992 34.4617 30.5992 33.6617ZM54.7992 30.0617H37.1992C36.9992 27.2617 34.7992 25.0617 31.9992 25.0617C30.5992 24.8617 29.1992 25.4617 28.1992 26.4617C27.1992 27.4617 26.5992 28.6617 26.5992 30.0617H9.19922V20.6617H54.7992V30.0617Z" fill="#2D373D"/>
</svg>
