<svg width="16" height="16" viewBox="0 0 16 16" fill="none" xmlns="http://www.w3.org/2000/svg">
<path d="M14.0001 13.4L11.6001 6.09998C11.5501 5.84998 11.4001 5.64998 11.2501 5.49998C10.7501 4.99998 9.9501 4.99998 9.4501 5.49998L7.8501 7.09998L6.9001 6.14998C6.9501 5.99998 7.0001 5.84998 7.0001 5.64998C7.0001 5.29998 6.8501 4.99998 6.6501 4.79998L4.1501 2.34998C3.6501 1.84998 2.8501 1.84998 2.3501 2.34998C1.8501 2.84998 1.8501 3.64998 2.3501 4.14998L4.8001 6.59998C5.0001 6.79998 5.3501 6.94998 5.6501 6.94998C5.8501 6.94998 6.0001 6.89998 6.1501 6.84998L7.3501 8.04998C7.3501 8.09998 7.4001 8.14998 7.4501 8.19998C7.5001 8.24998 7.5501 8.29998 7.6001 8.29998L8.8501 9.54998C8.9501 9.64998 9.0501 9.69998 9.2001 9.69998C9.3001 9.69998 9.4501 9.64998 9.5501 9.54998C9.7501 9.34998 9.7501 9.04998 9.5501 8.84998L8.5501 7.84998L10.1501 6.24998C10.3001 6.14998 10.4501 6.14998 10.5501 6.24998C10.6001 6.24998 10.6501 6.29998 10.6501 6.39998L12.7501 12.8L6.3001 10.7C6.2501 10.7 6.2001 10.65 6.1501 10.6C6.1001 10.55 6.1001 10.45 6.1001 10.4C6.1001 10.35 6.1001 10.3 6.1501 10.25L7.1001 9.29998C7.3001 9.09998 7.3001 8.79998 7.1001 8.59998C6.9001 8.39998 6.6001 8.39998 6.4001 8.59998L5.4501 9.49998C5.2501 9.64998 5.1501 9.84998 5.1001 10.1C5.0001 10.4 5.0501 10.75 5.2501 11.05C5.4501 11.35 5.7001 11.55 6.0001 11.6L13.4001 14.05C13.4501 14.05 13.5001 14.05 13.5501 14.05C13.6501 14.05 13.8001 14 13.9001 13.9C14.0001 13.8 14.0501 13.6 14.0001 13.4ZM5.4501 5.84998L3.0501 3.39998C2.9001 3.29998 2.9001 3.14998 3.0001 3.04998C3.1001 2.94998 3.3001 2.94998 3.4001 3.04998L5.8501 5.44998C5.9001 5.49998 5.9501 5.59998 5.9501 5.64998C5.9501 5.74998 5.9001 5.79998 5.8501 5.84998C5.8001 5.89998 5.7001 5.94998 5.6501 5.94998C5.6001 5.94998 5.5501 5.89998 5.4501 5.84998Z" fill="#2D373D"/>
</svg>
