<svg width="64" height="64" viewBox="0 0 64 64" fill="none" xmlns="http://www.w3.org/2000/svg">
<path d="M52 8H35.42C34.3592 8 33.3417 8.42143 32.5916 9.17157C31.8415 9.92172 31.42 10.9391 31.42 12V32.98C31.42 34.0409 31.8415 35.0583 32.5916 35.8084C33.3417 36.5586 34.3592 36.98 35.42 36.98H52C53.0609 36.98 54.0783 36.5586 54.8285 35.8084C55.5786 35.0583 56 34.0409 56 32.98V12C56 10.9391 55.5786 9.92172 54.8285 9.17157C54.0783 8.42143 53.0609 8 52 8ZM35.46 32.98L35.42 12H52V32.94L35.46 32.98Z" fill="#2D373D"/>
<path d="M49.12 15.6C48.6608 15.3393 48.1171 15.2707 47.6075 15.4094C47.0979 15.548 46.6639 15.8825 46.4 16.34L41.82 24.34L40.74 23.26C40.5847 22.9977 40.3714 22.7743 40.1164 22.607C39.8615 22.4397 39.5717 22.333 39.2692 22.2948C38.9667 22.2567 38.6595 22.2883 38.371 22.3871C38.0826 22.4859 37.8206 22.6493 37.605 22.8649C37.3894 23.0805 37.2259 23.3426 37.1271 23.631C37.0283 23.9195 36.9967 24.2267 37.0349 24.5292C37.073 24.8317 37.1798 25.1215 37.3471 25.3764C37.5143 25.6313 37.7377 25.8446 38 26L40.94 28.94C41.3125 29.3095 41.8153 29.5178 42.34 29.52H42.62C42.9025 29.4743 43.1718 29.3685 43.4099 29.2098C43.648 29.0511 43.8492 28.8431 44 28.6L49.86 18.32C50.1208 17.8608 50.1893 17.317 50.0507 16.8075C49.912 16.2979 49.5775 15.8638 49.12 15.6Z" fill="#2D373D"/>
<path d="M14.66 39.6C14.3966 39.8606 14.1896 40.1727 14.0519 40.5168C13.9143 40.8608 13.849 41.2296 13.86 41.6C13.8513 41.9701 13.9177 42.3382 14.0552 42.6819C14.1927 43.0257 14.3985 43.338 14.66 43.6C15.1758 44.1045 15.8686 44.387 16.59 44.387C17.3115 44.387 18.0043 44.1045 18.52 43.6C18.7843 43.339 18.9931 43.0273 19.134 42.6836C19.2749 42.34 19.345 41.9714 19.34 41.6C19.3453 41.2303 19.2774 40.8633 19.14 40.52C19.0027 40.1767 18.7988 39.864 18.54 39.6C18.0055 39.0792 17.2863 38.7915 16.54 38.8C15.8337 38.8143 15.1601 39.1009 14.66 39.6Z" fill="#2D373D"/>
<path d="M46.38 43.48C46.6442 43.219 46.8531 42.9073 46.994 42.5636C47.1349 42.22 47.205 41.8514 47.2 41.48C47.2111 41.1096 47.1457 40.7408 47.0081 40.3968C46.8705 40.0527 46.6635 39.7406 46.4 39.48C46.136 39.2212 45.8233 39.0173 45.48 38.88C45.1368 38.7427 44.7697 38.6747 44.4 38.68C43.6768 38.6853 42.985 38.9763 42.4755 39.4896C41.9659 40.0028 41.68 40.6968 41.68 41.42C41.6652 41.9638 41.8137 42.4996 42.1065 42.9581C42.3992 43.4167 42.8228 43.7769 43.3224 43.9922C43.8219 44.2075 44.3746 44.2681 44.909 44.1661C45.4434 44.0641 45.9349 43.8042 46.32 43.42L46.38 43.48Z" fill="#2D373D"/>
<path d="M51.06 38.8C50.5296 38.8 50.0209 39.0107 49.6458 39.3858C49.2707 39.7609 49.06 40.2696 49.06 40.8V45.2C49.0588 45.4447 48.9661 45.6802 48.8 45.86C48.6257 46.0369 48.3884 46.1375 48.14 46.14H12.94C12.8165 46.1423 12.6939 46.1185 12.5802 46.0703C12.4665 46.022 12.3642 45.9504 12.28 45.86C12.1906 45.775 12.1196 45.6726 12.0715 45.5591C12.0233 45.4456 11.999 45.3233 12 45.2V40.8C11.9947 40.2916 12.0909 39.7873 12.283 39.3165C12.475 38.8458 12.7592 38.4181 13.1187 38.0586C13.4782 37.6991 13.9058 37.415 14.3766 37.2229C14.8473 37.0308 15.3516 36.9346 15.86 36.94H27.6C28.1305 36.94 28.6392 36.7293 29.0142 36.3542C29.3893 35.9791 29.6 35.4704 29.6 34.94C29.6 34.4096 29.3893 33.9009 29.0142 33.5258C28.6392 33.1507 28.1305 32.94 27.6 32.94H17.48L19.6 28.22C19.7687 27.7636 20.0765 27.3718 20.48 27.1C20.8781 26.8186 21.3525 26.6651 21.84 26.66H27.6C28.1305 26.66 28.6392 26.4493 29.0142 26.0742C29.3893 25.6991 29.6 25.1904 29.6 24.66C29.6 24.1296 29.3893 23.6209 29.0142 23.2458C28.6392 22.8707 28.1305 22.66 27.6 22.66H21.84C20.5392 22.6625 19.2699 23.06 18.2 23.8C17.1965 24.5283 16.431 25.5373 16 26.7L12.82 33.54C11.8805 33.943 11.0255 34.5198 10.3 35.24C9.56851 35.969 8.98864 36.8356 8.59387 37.7899C8.19911 38.7442 7.99728 39.7673 8.00003 40.8V45.2C7.99866 45.8464 8.12519 46.4866 8.37233 47.0839C8.61947 47.6811 8.98234 48.2236 9.44003 48.68V51.04C9.4347 51.6928 9.55935 52.3402 9.80673 52.9444C10.0541 53.5486 10.4193 54.0975 10.8809 54.5591C11.3425 55.0208 11.8914 55.3859 12.4956 55.6333C13.0998 55.8807 13.7472 56.0053 14.4 56C15.7086 55.9947 16.962 55.4726 17.8873 54.5473C18.8126 53.622 19.3348 52.3685 19.34 51.06V50.14H41.74V51.06C41.7374 51.7078 41.8627 52.3497 42.1088 52.9489C42.3549 53.5482 42.7168 54.0929 43.174 54.5519C43.6311 55.0109 44.1744 55.3751 44.7726 55.6236C45.3708 55.8721 46.0122 56 46.66 56C47.3095 56.0026 47.9531 55.8767 48.5536 55.6294C49.1542 55.382 49.6998 55.0183 50.159 54.559C50.6183 54.0998 50.9821 53.5541 51.2294 52.9536C51.4767 52.353 51.6027 51.7095 51.6 51.06V48.7C52.0613 48.2463 52.4266 47.7043 52.674 47.1065C52.9214 46.5086 53.0459 45.867 53.04 45.22V40.8C53.0401 40.273 52.8321 39.7673 52.4613 39.3928C52.0906 39.0183 51.587 38.8053 51.06 38.8ZM15.34 51.06C15.3423 51.1835 15.3185 51.3061 15.2703 51.4198C15.222 51.5335 15.1504 51.6358 15.06 51.72C14.8841 51.8934 14.647 51.9907 14.4 51.9907C14.153 51.9907 13.9159 51.8934 13.74 51.72C13.6496 51.6358 13.578 51.5335 13.5298 51.4198C13.4815 51.3061 13.4578 51.1835 13.46 51.06V50.14H15.34V51.06ZM47.34 51.72C47.2113 51.8526 47.0457 51.9434 46.8647 51.9805C46.6837 52.0176 46.4957 51.9994 46.3252 51.9282C46.1547 51.857 46.0096 51.7361 45.9088 51.5812C45.808 51.4264 45.7562 51.2447 45.76 51.06V50.14H47.62V51.06C47.6198 51.185 47.5929 51.3085 47.5412 51.4223C47.4894 51.5361 47.414 51.6376 47.32 51.72H47.34Z" fill="#2D373D"/>
</svg>
