<svg width="32" height="33" viewBox="0 0 32 33" fill="none" xmlns="http://www.w3.org/2000/svg">
<path fill-rule="evenodd" clip-rule="evenodd" d="M8.32884 13.4619C8.14111 13.4619 7.96839 13.534 7.84686 13.651C7.72662 13.7667 7.6665 13.9153 7.6665 14.0619V26.8619C7.6665 27.0084 7.72662 27.157 7.84686 27.2728C7.9684 27.3897 8.14111 27.4619 8.32884 27.4619H23.2899C23.4776 27.4619 23.6503 27.3897 23.7719 27.2728C23.8921 27.157 23.9522 27.0084 23.9522 26.8619V14.0619C23.9522 13.9153 23.8921 13.7667 23.7719 13.651C23.6503 13.534 23.4776 13.4619 23.2899 13.4619H21.6275C21.0753 13.4619 20.6275 13.0142 20.6275 12.4619C20.6275 11.9096 21.0753 11.4619 21.6275 11.4619H23.2899C23.9839 11.4619 24.6568 11.7269 25.1588 12.21C25.6621 12.6944 25.9522 13.3597 25.9522 14.0619V26.8619C25.9522 27.564 25.6621 28.2293 25.1588 28.7137C24.6568 29.1969 23.9839 29.4619 23.2899 29.4619H8.32884C7.63481 29.4619 6.96188 29.1969 6.45992 28.7137C5.95666 28.2293 5.6665 27.564 5.6665 26.8619V14.0619C5.6665 13.3597 5.95666 12.6944 6.45992 12.21C6.96189 11.7269 7.63482 11.4619 8.32884 11.4619H9.99118C10.5435 11.4619 10.9912 11.9096 10.9912 12.4619C10.9912 13.0142 10.5435 13.4619 9.99118 13.4619H8.32884Z" fill="#2D373D"/>
<path fill-rule="evenodd" clip-rule="evenodd" d="M15.8092 3.46191C16.3615 3.46191 16.8092 3.90963 16.8092 4.46191V15.8905C16.8092 16.4428 16.3615 16.8905 15.8092 16.8905C15.257 16.8905 14.8092 16.4428 14.8092 15.8905V4.46191C14.8092 3.90963 15.257 3.46191 15.8092 3.46191Z" fill="#2D373D"/>
<path fill-rule="evenodd" clip-rule="evenodd" d="M15.1024 3.75481C15.493 3.36428 16.1261 3.36428 16.5167 3.75481L21.0881 8.32624C21.4786 8.71676 21.4786 9.34992 21.0881 9.74045C20.6976 10.131 20.0644 10.131 19.6739 9.74045L15.8095 5.87613L11.9452 9.74045C11.5547 10.131 10.9215 10.131 10.531 9.74045C10.1405 9.34992 10.1405 8.71676 10.531 8.32624L15.1024 3.75481Z" fill="#2D373D"/>
</svg>
