<svg width="64" height="65" viewBox="0 0 64 65" fill="none" xmlns="http://www.w3.org/2000/svg">
<path d="M38.2658 25.9716C38.2658 24.867 37.3704 23.9716 36.2658 23.9716C35.1612 23.9716 34.2658 24.867 34.2658 25.9716V31.3493C34.2658 32.4539 35.1612 33.3493 36.2658 33.3493C37.3704 33.3493 38.2658 32.4539 38.2658 31.3493V25.9716Z" fill="#2D373D"/>
<path d="M47.9976 23.9716C49.1021 23.9716 49.9976 24.867 49.9976 25.9716V31.3493C49.9976 32.4539 49.1021 33.3493 47.9976 33.3493C46.893 33.3493 45.9976 32.4539 45.9976 31.3493V25.9716C45.9976 24.867 46.893 23.9716 47.9976 23.9716Z" fill="#2D373D"/>
<path d="M44.133 21.5716C44.133 20.467 43.2375 19.5716 42.133 19.5716C41.0284 19.5716 40.133 20.467 40.133 21.5716V31.3494C40.133 32.454 41.0284 33.3494 42.133 33.3494C43.2375 33.3494 44.133 32.454 44.133 31.3494V21.5716Z" fill="#2D373D"/>
<path fill-rule="evenodd" clip-rule="evenodd" d="M7.86475 39.6605C7.86475 44.0051 11.3868 47.5272 15.7314 47.5272H25.1033L24.3033 52.3271H21.5965C20.4919 52.3271 19.5965 53.2226 19.5965 54.3271C19.5965 55.4317 20.4919 56.3271 21.5965 56.3271H42.1298C43.2344 56.3271 44.1299 55.4317 44.1299 54.3271C44.1299 53.2226 43.2344 52.3271 42.1298 52.3271H39.4252L38.6252 47.5272H47.9981C52.3427 47.5272 55.8647 44.0051 55.8647 39.6605V16.1938C55.8647 11.8492 52.3427 8.32715 47.9981 8.32715H15.7314C11.3868 8.32715 7.86475 11.8492 7.86475 16.1938V39.6605ZM15.7314 12.3271C13.5959 12.3271 11.8647 14.0583 11.8647 16.1938V25.0543L16.2728 20.6463C16.9228 19.9971 17.8047 19.6315 18.7234 19.6315C19.6421 19.6315 20.5232 19.9962 21.1732 20.6454L21.196 20.6681L24.5374 24.1149L31.9759 16.6765C32.7569 15.8954 34.0232 15.8954 34.8043 16.6765C35.5853 17.4575 35.5853 18.7239 34.8043 19.5049L26.9821 27.3271C26.3321 27.9763 25.4501 28.3419 24.5314 28.3419C23.6127 28.3419 22.7316 27.9772 22.0816 27.328L22.0589 27.3053L18.7174 23.8585L11.8647 30.7111V35.7049H51.8647V16.1938C51.8647 14.0583 50.1336 12.3271 47.9981 12.3271H15.7314ZM47.9981 43.5272C50.1188 43.5272 51.8407 41.8199 51.8645 39.7049H11.865C11.8888 41.8199 13.6107 43.5272 15.7314 43.5272H27.4578L27.4642 43.5271H36.2642L36.2707 43.5272H47.9981ZM28.3585 52.3271L29.1585 47.5271H34.57L35.37 52.3271H28.3585Z" fill="#2D373D"/>
</svg>
