<svg width="16" height="17" viewBox="0 0 16 17" fill="none" xmlns="http://www.w3.org/2000/svg">
<path d="M7.6499 10.3112C7.4499 10.5112 7.4499 10.8112 7.6499 11.0112C7.7499 11.1112 7.8499 11.1612 7.9999 11.1612C8.1499 11.1612 8.2499 11.1112 8.3499 11.0112L10.4999 8.86123C10.6499 8.76123 10.6999 8.66123 10.6999 8.46123C10.6999 8.26123 10.5999 8.16123 10.4999 8.06123L8.3499 5.91123C8.1499 5.71123 7.8499 5.71123 7.6499 5.91123C7.4499 6.11123 7.4499 6.41123 7.6499 6.61123L8.9999 7.96123H1.1499C0.849902 7.96123 0.649902 8.16123 0.649902 8.46123C0.649902 8.76123 0.849902 8.96123 1.1499 8.96123H8.9999L7.6499 10.3112Z" fill="#2D373D"/>
<path d="M13.9997 5.56119C12.3497 2.21119 8.34975 0.861195 5.04975 2.46119C3.79975 3.06119 2.74975 4.06119 2.09975 5.31119C1.99975 5.56119 2.04975 5.8612 2.29975 5.96119C2.54975 6.1112 2.84975 6.0112 2.99975 5.76119C3.54975 4.71119 4.44975 3.86119 5.49975 3.31119C6.84975 2.66119 8.39975 2.56119 9.84975 3.06119C11.2997 3.56119 12.4497 4.6112 13.0997 5.96119C14.4997 8.7612 13.2997 12.2112 10.4997 13.5612C7.69975 14.9612 4.24975 13.7612 2.89975 10.9612C2.79975 10.7112 2.49975 10.6112 2.24975 10.7112C1.99975 10.8112 1.89975 11.1112 1.99975 11.3612C3.14975 13.7112 5.49975 15.1112 7.99975 15.1112C8.99975 15.1112 9.99975 14.9112 10.8997 14.5112C14.2497 12.9112 15.5997 8.86119 13.9997 5.56119Z" fill="#2D373D"/>
</svg>
