<svg width="24" height="25" viewBox="0 0 24 25" fill="none" xmlns="http://www.w3.org/2000/svg">
<path d="M22.0502 10.6617C22.0502 10.2117 21.7502 9.91172 21.3002 9.91172C20.8502 9.91172 20.5502 10.2117 20.5502 10.6617C20.5502 11.0367 20.4752 11.2617 20.3252 11.4117C20.2502 11.4867 20.1002 11.5617 19.9502 11.6367C19.7252 9.53672 18.6002 7.81172 16.9502 6.53672C14.7752 4.96172 11.7752 4.43672 9.07519 5.11172C7.80019 3.38672 5.3252 3.38672 5.2502 3.38672C5.02519 3.38672 4.8002 3.46172 4.6502 3.61172C4.5002 3.76172 4.5002 3.98672 4.5002 4.21172L5.02519 7.66172C4.5002 8.26172 4.0502 9.01172 3.7502 9.76172H2.7002C2.2502 9.76172 1.9502 10.0617 1.9502 10.5117V15.5367C1.9502 15.9867 2.2502 16.2867 2.7002 16.2867H4.4252C4.8002 16.8867 5.2502 17.4867 5.77519 17.9367V20.0367C5.77519 20.8617 6.4502 21.4617 7.2002 21.4617H8.4002C9.2252 21.4617 9.82519 20.7867 9.82519 20.0367V19.9617C11.0252 20.1867 12.2252 20.1867 13.4252 19.9617V20.0367C13.4252 20.8617 14.1002 21.4617 14.8502 21.4617H16.1252C16.8752 21.4617 17.4752 20.8617 17.4752 20.1867V18.0867C18.9002 16.8867 19.8002 15.0867 20.0252 13.1367C20.6252 12.9867 21.0752 12.7617 21.3752 12.4617C21.8252 12.0117 22.0502 11.4117 22.0502 10.6617ZM16.2752 17.0367C16.0502 17.1867 15.9752 17.4117 15.9752 17.6367V19.9617H14.9252V18.9867C14.9252 18.7617 14.8502 18.5367 14.6252 18.3867C14.4002 18.3117 14.1752 18.2367 13.9502 18.3117C12.4502 18.8367 10.8002 18.8367 9.30019 18.3117C9.07519 18.2367 8.85019 18.2367 8.62519 18.3867C8.47519 18.5367 8.32519 18.7617 8.32519 18.9867V19.9617H7.27519V17.6367C7.27519 17.4117 7.2002 17.1867 6.9752 17.0367C6.3752 16.5117 5.8502 15.9117 5.4752 15.2367C5.3252 15.0117 5.1002 14.8617 4.8002 14.8617H3.4502V11.2617H4.2752C4.6502 11.2617 4.9502 11.0367 5.02519 10.7367C5.2502 9.83672 5.70019 9.01172 6.30019 8.41172C6.45019 8.26172 6.52519 8.03672 6.52519 7.81172L6.15019 5.03672C6.82519 5.18672 7.7252 5.48672 8.1002 6.23672C8.2502 6.61172 8.62519 6.76172 9.00019 6.61172C11.4002 5.86172 14.1752 6.23672 16.1252 7.66172C17.1752 8.41172 18.5252 9.91172 18.5252 12.3867C18.5252 14.1867 17.7002 15.9117 16.2752 17.0367Z" fill="#2D373D"/>
<path d="M14.5503 7.96168C12.7503 7.06168 10.5753 7.06168 8.77525 7.96168C8.40025 8.11168 8.25025 8.56168 8.40025 8.93668C8.55025 9.23668 8.77525 9.38668 9.07525 9.38668C9.22525 9.38668 9.30025 9.31168 9.45025 9.31168C10.8003 8.56168 12.4503 8.56168 13.9503 9.31168C14.3253 9.46168 14.7753 9.31168 14.9253 8.93668C15.0753 8.56168 14.9253 8.11168 14.5503 7.96168Z" fill="#2D373D"/>
<path d="M7.50019 10.4366C6.90019 10.4366 6.45019 10.8866 6.45019 11.4866C6.45019 12.0866 6.90019 12.5366 7.50019 12.5366C8.10019 12.5366 8.55019 12.0866 8.55019 11.4866C8.55019 10.8866 8.10019 10.4366 7.50019 10.4366Z" fill="#2D373D"/>
</svg>
