<svg width="16" height="16" viewBox="0 0 16 16" fill="none" xmlns="http://www.w3.org/2000/svg">
<path d="M11.5916 4.70566L8.34159 1.45566C8.29159 1.40566 8.24159 1.35566 8.19159 1.35566C8.19159 1.35566 8.19159 1.35566 8.14159 1.35566C8.09159 1.30566 8.04159 1.30566 7.99159 1.30566C7.94159 1.30566 7.94159 1.30566 7.89159 1.30566C7.84159 1.30566 7.84159 1.30566 7.79159 1.30566C7.74159 1.35566 7.69159 1.40566 7.64159 1.45566L4.39159 4.70566C4.19159 4.90566 4.19159 5.20566 4.39159 5.40566C4.59159 5.60566 4.89159 5.60566 5.09159 5.40566L7.49159 3.00566V11.5057C7.49159 11.8057 7.69159 12.0057 7.99159 12.0057C8.29159 12.0057 8.49159 11.8057 8.49159 11.5057V3.00566L10.8916 5.40566C10.9916 5.50566 11.1416 5.55566 11.2416 5.55566C11.3916 5.55566 11.4916 5.50566 11.5916 5.40566C11.7916 5.20566 11.7916 4.90566 11.5916 4.70566Z" fill="#2D373D"/>
<path d="M12.8416 14.6557H3.1416C2.8416 14.6557 2.6416 14.4557 2.6416 14.1557C2.6416 13.8557 2.8416 13.6557 3.1416 13.6557H12.8416C13.1416 13.6557 13.3416 13.8557 13.3416 14.1557C13.3416 14.4557 13.1416 14.6557 12.8416 14.6557Z" fill="#2D373D"/>
</svg>
