<svg width="24" height="25" viewBox="0 0 24 25" fill="none" xmlns="http://www.w3.org/2000/svg">
<path fill-rule="evenodd" clip-rule="evenodd" d="M6.03069 4.5666C6.73864 3.85866 7.69881 3.46094 8.69999 3.46094C9.70117 3.46094 10.6614 3.85866 11.3693 4.5666C12.0772 5.27454 12.475 6.23472 12.475 7.2359C12.475 8.23708 12.0772 9.19725 11.3693 9.9052C10.9845 10.29 10.5251 10.5832 10.0251 10.7706C10.3201 10.8422 10.6103 10.9377 10.8929 11.0568C12.0516 11.5453 13.0157 12.4043 13.6341 13.4992C13.8378 13.8599 13.7106 14.3174 13.3499 14.5211C12.9893 14.7248 12.5318 14.5976 12.3281 14.2369C11.8728 13.4309 11.1631 12.7986 10.3101 12.439C9.45715 12.0793 8.50898 12.0127 7.61408 12.2495C6.71918 12.4863 5.92806 13.0132 5.36457 13.7476C4.80108 14.4821 4.49703 15.3827 4.50002 16.3084C4.50136 16.7226 4.16666 17.0594 3.75245 17.0608C3.33824 17.0621 3.00137 16.7274 3.00003 16.3132C2.99597 15.0557 3.409 13.8323 4.17448 12.8346C4.93996 11.8369 6.01467 11.1211 7.23036 10.7994C7.27442 10.7878 7.31857 10.7767 7.3628 10.7661C6.86751 10.5785 6.41243 10.2869 6.03069 9.9052C5.32275 9.19725 4.92503 8.23708 4.92503 7.2359C4.92503 6.23472 5.32275 5.27454 6.03069 4.5666ZM8.69999 4.96094C8.09664 4.96094 7.51799 5.20062 7.09135 5.62726C6.66472 6.0539 6.42503 6.63254 6.42503 7.2359C6.42503 7.83925 6.66472 8.4179 7.09135 8.84454C7.51799 9.27117 8.09664 9.51086 8.69999 9.51086C9.30335 9.51086 9.88199 9.27117 10.3086 8.84454C10.7353 8.4179 10.975 7.83925 10.975 7.2359C10.975 6.63254 10.7353 6.0539 10.3086 5.62726C9.88199 5.20062 9.30335 4.96094 8.69999 4.96094Z" fill="#2D373D"/>
<path fill-rule="evenodd" clip-rule="evenodd" d="M20.325 15.0955L14.7303 20.691C14.6256 20.7957 14.4922 20.8671 14.347 20.8961L11.597 21.4461C11.3511 21.4953 11.0969 21.4183 10.9196 21.241C10.7423 21.0637 10.6653 20.8095 10.7145 20.5636L11.2645 17.8136C11.2935 17.6685 11.3649 17.5351 11.4696 17.4304L17.0648 11.8344C17.4965 11.403 18.0819 11.1604 18.6923 11.1604C19.3026 11.1604 19.8879 11.4028 20.3196 11.8343L20.3277 11.8426C20.332 11.847 20.3363 11.8515 20.3405 11.8561C20.5472 12.0664 20.7116 12.3146 20.8246 12.5871C20.9404 12.8663 21 13.1657 21 13.468C21 13.7704 20.9404 14.0697 20.8246 14.349C20.7088 14.6282 20.5389 14.882 20.325 15.0955ZM18.1254 12.8952L12.6909 18.3305L12.406 19.7546L13.8301 19.4698L19.2648 14.0344C19.3392 13.9602 19.3988 13.8714 19.439 13.7743C19.4793 13.6772 19.5 13.5731 19.5 13.468C19.5 13.3629 19.4793 13.2588 19.439 13.1617C19.3988 13.0646 19.3397 12.9764 19.2653 12.9022C19.2618 12.8986 19.2583 12.8951 19.2548 12.8915C19.2527 12.8892 19.2505 12.8869 19.2483 12.8846C19.0991 12.7409 18.8998 12.6604 18.6923 12.6604C18.4797 12.6604 18.2758 12.7449 18.1254 12.8952Z" fill="#2D373D"/>
</svg>
