<svg width="64" height="65" viewBox="0 0 64 65" fill="none" xmlns="http://www.w3.org/2000/svg">
<path d="M53.5996 26.0605H52.5996V22.0605C52.5996 19.2605 50.3996 17.0605 47.5996 17.0605H28.5996V16.0605C28.5996 13.2605 26.3996 11.0605 23.5996 11.0605H14.5996C11.7996 11.0605 9.59961 13.2605 9.59961 16.0605V48.6605C9.59961 50.0605 10.1996 51.4605 11.1996 52.2605C11.9996 53.0605 13.1996 53.4605 14.1996 53.6605C14.3996 53.8605 14.7996 53.8605 14.9996 53.8605H49.1996C51.3996 53.8605 53.3996 52.4605 53.9996 50.2605L58.3996 32.2605C58.5996 31.8605 58.5996 31.4605 58.5996 31.0605C58.5996 28.2605 56.3996 26.0605 53.5996 26.0605ZM14.9996 50.0605C14.5996 50.0605 14.1996 49.8605 13.9996 49.6605C13.7996 49.2605 13.5996 49.0605 13.5996 48.6605V16.0605C13.5996 15.4605 13.9996 15.0605 14.5996 15.0605H23.5996C24.1996 15.0605 24.5996 15.4605 24.5996 16.0605V19.0605C24.5996 20.2605 25.3996 21.0605 26.5996 21.0605H47.3996C47.9996 21.0605 48.3996 21.4605 48.3996 22.0605V26.0605H25.7996C23.5996 26.0605 21.5996 27.4605 20.9996 29.8605L16.3996 49.0605C16.1996 49.6605 15.5996 50.0605 14.9996 50.0605ZM54.5996 31.0605L50.1996 49.0605C49.9996 49.4605 49.5996 49.8605 49.1996 49.8605H20.1996L24.7996 30.6605C24.9996 30.0605 25.3996 29.8605 25.7996 29.8605H50.5996H53.5996C54.1996 29.8605 54.5996 30.2605 54.5996 30.8605C54.5996 30.8605 54.5996 30.8605 54.5996 31.0605Z" fill="#2D373D"/>
</svg>
