<svg width="32" height="33" viewBox="0 0 32 33" fill="none" xmlns="http://www.w3.org/2000/svg">
<path fill-rule="evenodd" clip-rule="evenodd" d="M16.9728 9.7252C16.7633 9.62053 16.5015 9.50076 16.2441 9.45849C16.1167 9.43759 15.8496 9.41 15.562 9.54065C15.2075 9.70169 15.0219 10.0061 14.9569 10.2778C14.9039 10.499 14.9295 10.6911 14.9446 10.7816C14.9621 10.8874 14.9895 10.9849 15.0109 11.0555C15.0275 11.1104 15.0674 11.2303 15.1001 11.3283C15.12 11.388 15.1372 11.4398 15.1448 11.4636C15.2323 11.7393 15.2586 11.9153 15.2422 12.0314L15.2416 12.0352C15.237 12.0686 15.2296 12.1227 15.1438 12.1968C15.1227 12.193 15.102 12.1889 15.0771 12.184C15.044 12.1776 15.0035 12.1696 14.9452 12.159C14.8368 12.1391 14.6866 12.1143 14.5202 12.1075C14.1614 12.0929 13.7073 12.1628 13.2874 12.5038C12.9009 12.8178 12.6526 13.2748 12.4788 13.7983C11.8194 15.785 13.1433 17.7746 15.0148 18.2761C16.9408 18.7921 18.9204 17.6492 19.4365 15.7233C20.0789 13.3256 19.2014 10.8385 16.9728 9.7252ZM16.0419 14.002C16.6844 13.6225 17.0492 13.0946 17.1848 12.5132C17.6369 13.2299 17.78 14.178 17.5046 15.2056C17.2745 16.0646 16.3915 16.5744 15.5325 16.3442C14.6191 16.0995 14.1282 15.1779 14.377 14.4283C14.4309 14.2659 14.4787 14.1686 14.511 14.1138C14.5311 14.1168 14.5553 14.1208 14.5849 14.1262L14.6436 14.1374C14.7118 14.1506 14.8114 14.1698 14.8881 14.1817C15.1061 14.2156 15.5792 14.2754 16.0419 14.002Z" fill="#2D373D"/>
<path fill-rule="evenodd" clip-rule="evenodd" d="M16 3.58789C13.2321 3.58789 11.4211 4.02009 10.2223 4.54757C9.10199 5.0405 8.56256 5.60111 8.34634 5.82583C8.32564 5.84734 8.3079 5.86578 8.29289 5.88078C8.10536 6.06832 8 6.32267 8 6.58789V22.2546C8 22.6635 8.24895 23.0312 8.62861 23.183C8.9178 23.2987 9.26174 23.418 9.66667 23.533V25.5879C9.66667 25.9222 9.83377 26.2345 10.112 26.4199C10.6059 26.7493 11.423 27.0307 12.3758 27.2328C12.7685 27.3161 13.2006 27.3893 13.6667 27.4473V29.2595C13.6667 29.8117 14.1144 30.2595 14.6667 30.2595C15.219 30.2595 15.6667 29.8117 15.6667 29.2595V27.5851C15.7767 27.587 15.8878 27.5879 16 27.5879C16.2138 27.5879 16.4238 27.5845 16.6296 27.578V29.2595C16.6296 29.8117 17.0773 30.2595 17.6296 30.2595C18.1819 30.2595 18.6296 29.8117 18.6296 29.2595V27.4077C18.9837 27.3573 19.3161 27.2981 19.6242 27.2328C20.577 27.0307 21.3941 26.7493 21.888 26.4199C22.1662 26.2345 22.3333 25.9222 22.3333 25.5879V23.533C22.7383 23.418 23.0822 23.2987 23.3714 23.183C23.751 23.0312 24 22.6635 24 22.2546V6.58789C24 6.32267 23.8946 6.06832 23.7071 5.88078C23.6922 5.86589 23.6746 5.84762 23.6541 5.8263C23.4379 5.60159 22.898 5.0405 21.7778 4.54758C20.5789 4.02009 18.768 3.58789 16 3.58789ZM20.3333 23.9584C19.1787 24.1356 17.7505 24.2546 16 24.2546C14.2496 24.2546 12.8214 24.1356 11.6667 23.9584V24.9624C11.9339 25.0617 12.3075 25.1738 12.7908 25.2763C13.6369 25.4558 14.7339 25.5879 16 25.5879C17.2661 25.5879 18.3631 25.4558 19.2092 25.2763C19.6925 25.1738 20.0661 25.0617 20.3333 24.9624V23.9584ZM10 21.5461V7.0068C10.2045 6.82737 10.5182 6.60242 11.0278 6.37821C11.9123 5.98902 13.4347 5.58789 16 5.58789C18.5654 5.58789 20.0878 5.98902 20.9723 6.3782C21.4818 6.60242 21.7955 6.82736 22 7.0068V21.5461C20.8802 21.8904 18.9825 22.2546 16 22.2546C13.0176 22.2546 11.1198 21.8904 10 21.5461Z" fill="#2D373D"/>
</svg>
