<svg width="16" height="16" viewBox="0 0 16 16" fill="none" xmlns="http://www.w3.org/2000/svg">
<path d="M10.6251 8.51003C10.7577 8.51003 10.8849 8.45735 10.9787 8.36358C11.0725 8.26982 11.1251 8.14264 11.1251 8.01003V4.51003C11.1251 4.37742 11.0725 4.25024 10.9787 4.15648C10.8849 4.06271 10.7577 4.01003 10.6251 4.01003C10.0288 4.01135 9.45728 4.24883 9.03561 4.6705C8.61394 5.09217 8.37646 5.6637 8.37514 6.26003V6.70003C8.37514 6.83264 8.42782 6.95981 8.52159 7.05358C8.61535 7.14735 8.74253 7.20003 8.87514 7.20003H10.1251V8.01003C10.1251 8.14264 10.1778 8.26982 10.2716 8.36358C10.3654 8.45735 10.4925 8.51003 10.6251 8.51003ZM9.37514 6.19503C9.39034 5.88429 9.52042 5.59028 9.74014 5.37003C9.85307 5.26118 9.98314 5.17165 10.1251 5.10503V6.19503H9.37514Z" fill="#2D373D"/>
<path d="M7.62514 5.39003C7.62336 5.02544 7.47993 4.67582 7.22514 4.41503C6.96098 4.1672 6.61236 4.02926 6.25014 4.02926C5.88792 4.02926 5.5393 4.1672 5.27514 4.41503C5.01854 4.67462 4.87478 5.02502 4.87514 5.39003C4.87514 5.52264 4.92782 5.64981 5.02159 5.74358C5.11535 5.83735 5.24253 5.89003 5.37514 5.89003C5.50775 5.89003 5.63492 5.83735 5.72869 5.74358C5.82246 5.64981 5.87514 5.52264 5.87514 5.39003C5.87523 5.29061 5.91479 5.19529 5.98514 5.12503C6.05667 5.05715 6.15153 5.01931 6.25014 5.01931C6.34875 5.01931 6.4436 5.05715 6.51514 5.12503C6.58549 5.19529 6.62505 5.29061 6.62514 5.39003C6.62373 5.56065 6.56569 5.72597 6.46014 5.86003L5.00014 7.71003C4.9468 7.78061 4.91314 7.86408 4.9026 7.95192C4.89206 8.03977 4.90501 8.12883 4.94014 8.21003C4.98066 8.29512 5.04441 8.36702 5.12403 8.41744C5.20365 8.46787 5.2959 8.49476 5.39014 8.49503H7.14014C7.27275 8.49503 7.39992 8.44235 7.49369 8.34858C7.58746 8.25481 7.64014 8.12764 7.64014 7.99503C7.64014 7.86242 7.58746 7.73524 7.49369 7.64148C7.39992 7.54771 7.27275 7.49503 7.14014 7.49503H6.41514L7.24014 6.51003C7.49474 6.19279 7.63087 5.79676 7.62514 5.39003Z" fill="#2D373D"/>
<path d="M14.4151 6.35503C14.0441 4.91606 13.1996 3.64378 12.0178 2.74297C10.8359 1.84216 9.38526 1.3652 7.8994 1.38887C6.41355 1.41254 4.97887 1.93545 3.82627 2.87345C2.67366 3.81145 1.87018 5.10997 1.54514 6.56003L1.41514 6.36503C1.37837 6.31053 1.33122 6.26381 1.2764 6.22753C1.22157 6.19125 1.16013 6.16613 1.0956 6.15359C0.96526 6.12827 0.830203 6.15577 0.720138 6.23003C0.610074 6.30429 0.534017 6.41923 0.508699 6.54957C0.483382 6.67991 0.510878 6.81496 0.585138 6.92503L1.46014 8.22503C1.46885 8.23624 1.47893 8.24632 1.49014 8.25503C1.51134 8.28213 1.53664 8.30575 1.56514 8.32503L1.63514 8.38003L1.73014 8.41503C1.73014 8.41503 1.76014 8.41503 1.78014 8.41503H1.89014C1.94295 8.41233 1.99513 8.40223 2.04514 8.38503L2.15514 8.33003L3.45514 7.51003C3.56453 7.4351 3.63968 7.31979 3.66406 7.18945C3.68844 7.05912 3.66005 6.92443 3.58514 6.81503C3.51105 6.70624 3.39705 6.63104 3.26787 6.60577C3.1387 6.5805 3.00477 6.60718 2.89514 6.68003L2.50014 6.93503C2.68938 5.97927 3.12363 5.08906 3.76035 4.35159C4.39708 3.61412 5.21444 3.05468 6.13237 2.72806C7.05031 2.40145 8.03734 2.31886 8.99678 2.4884C9.95623 2.65793 10.8552 3.07377 11.6056 3.69518C12.356 4.31659 12.9322 5.12226 13.2776 6.03328C13.623 6.9443 13.7259 7.92942 13.5762 8.89216C13.4264 9.85489 13.0292 10.7622 12.4233 11.5253C11.8175 12.2883 11.0239 12.8809 10.1201 13.245C8.85768 13.7582 7.45174 13.7953 6.16402 13.3492C4.87631 12.9031 3.79456 12.0042 3.12014 10.82C3.08731 10.7629 3.04355 10.7128 2.99136 10.6726C2.93916 10.6324 2.87956 10.6028 2.81595 10.5857C2.75235 10.5685 2.68598 10.564 2.62064 10.5725C2.5553 10.5809 2.49226 10.6022 2.43514 10.635C2.37801 10.6679 2.32791 10.7116 2.2877 10.7638C2.24749 10.816 2.21795 10.8756 2.20077 10.9392C2.18359 11.0028 2.17911 11.0692 2.18758 11.1345C2.19605 11.1999 2.21731 11.2629 2.25014 11.32C3.04573 12.7148 4.32184 13.7723 5.84014 14.295C6.53447 14.5374 7.26473 14.6608 8.00014 14.66C9.01287 14.6581 10.0117 14.4245 10.9203 13.9771C11.8289 13.5298 12.6231 12.8805 13.2422 12.0791C13.8613 11.2776 14.2888 10.3451 14.4921 9.353C14.6954 8.36088 14.6691 7.33541 14.4151 6.35503Z" fill="#2D373D"/>
<path d="M6.78514 9.68003C6.65455 9.54835 6.49858 9.44456 6.32669 9.37495C6.15479 9.30533 5.97056 9.27134 5.78514 9.27503C5.65253 9.27503 5.52535 9.32771 5.43159 9.42148C5.33782 9.51524 5.28514 9.64242 5.28514 9.77503C5.28514 9.90764 5.33782 10.0348 5.43159 10.1286C5.52535 10.2224 5.65253 10.275 5.78514 10.275C5.83445 10.2745 5.88335 10.284 5.9289 10.3029C5.97445 10.3218 6.01569 10.3497 6.05014 10.385C6.08657 10.4189 6.11559 10.4599 6.13539 10.5055C6.15518 10.5511 6.16531 10.6003 6.16514 10.65C6.1624 10.7513 6.1213 10.8479 6.05014 10.92C6.01569 10.9553 5.97445 10.9833 5.9289 11.0022C5.88335 11.0211 5.83445 11.0305 5.78514 11.03C5.65253 11.03 5.52535 11.0827 5.43159 11.1765C5.33782 11.2702 5.28514 11.3974 5.28514 11.53C5.28514 11.6626 5.33782 11.7898 5.43159 11.8836C5.52535 11.9774 5.65253 12.03 5.78514 12.03C5.9704 12.0326 6.15431 11.9981 6.32604 11.9285C6.49777 11.859 6.65386 11.7558 6.78514 11.625C6.91789 11.489 7.02165 11.3274 7.09014 11.15H8.91014C8.97862 11.3274 9.08239 11.489 9.21514 11.625C9.47423 11.883 9.82452 12.0285 10.1901 12.03C10.3227 12.03 10.4499 11.9774 10.5437 11.8836C10.6375 11.7898 10.6901 11.6626 10.6901 11.53C10.6901 11.3974 10.6375 11.2702 10.5437 11.1765C10.4499 11.0827 10.3227 11.03 10.1901 11.03C10.1398 11.0297 10.0899 11.0194 10.0436 10.9996C9.99724 10.9799 9.95527 10.9511 9.92014 10.915C9.85155 10.8436 9.81229 10.749 9.81014 10.65C9.80997 10.6003 9.8201 10.5511 9.83989 10.5055C9.85969 10.4599 9.88871 10.4189 9.92514 10.385C9.9954 10.3147 10.0907 10.2751 10.1901 10.275C10.3227 10.275 10.4499 10.2224 10.5437 10.1286C10.6375 10.0348 10.6901 9.90764 10.6901 9.77503C10.6901 9.64242 10.6375 9.51524 10.5437 9.42148C10.4499 9.32771 10.3227 9.27503 10.1901 9.27503C10.0089 9.27469 9.82942 9.31032 9.66206 9.37984C9.4947 9.44936 9.34279 9.55139 9.21514 9.68003C9.08089 9.81297 8.97686 9.97327 8.91014 10.15H7.09014C7.02342 9.97327 6.91939 9.81297 6.78514 9.68003Z" fill="#2D373D"/>
</svg>
