<svg width="16" height="17" viewBox="0 0 16 17" fill="none" xmlns="http://www.w3.org/2000/svg">
<path fill-rule="evenodd" clip-rule="evenodd" d="M10 6.12858H3.33333C3.14924 6.12858 3 6.27782 3 6.46191V13.1286C3 13.3127 3.14924 13.4619 3.33333 13.4619H10C10.1841 13.4619 10.3333 13.3127 10.3333 13.1286V6.46191C10.3333 6.27782 10.1841 6.12858 10 6.12858ZM3.33333 5.12858C2.59695 5.12858 2 5.72553 2 6.46191V13.1286C2 13.865 2.59695 14.4619 3.33333 14.4619H10C10.7364 14.4619 11.3333 13.865 11.3333 13.1286V6.46191C11.3333 5.72553 10.7364 5.12858 10 5.12858H3.33333Z" fill="#2D373D"/>
<path fill-rule="evenodd" clip-rule="evenodd" d="M12.8333 2.46191C13.4777 2.46191 14 2.98425 14 3.62858V10.2952C14 10.9396 13.4777 11.4619 12.8333 11.4619H12.3435C12.0674 11.4619 11.8435 11.2381 11.8435 10.9619C11.8435 10.6858 12.0674 10.4619 12.3435 10.4619H12.8333C12.9254 10.4619 13 10.3873 13 10.2952V3.62858C13 3.53653 12.9254 3.46191 12.8333 3.46191L6.16667 3.46191C6.07462 3.46191 6 3.53653 6 3.62858V4.11838C6 4.39452 5.77614 4.61838 5.5 4.61838C5.22386 4.61838 5 4.39452 5 4.11838V3.62858C5 2.98425 5.52234 2.46191 6.16667 2.46191L12.8333 2.46191Z" fill="#2D373D"/>
</svg>
