<svg width="64" height="65" viewBox="0 0 64 65" fill="none" xmlns="http://www.w3.org/2000/svg">
<path d="M53.4 33.323L43.2 23.123C43 22.923 43 22.923 42.8 22.723C40.8 20.923 38.2 19.923 35.6 19.923L31.8 16.123L32.8 15.123C33.6 14.323 33.6 13.123 32.8 12.323L27.2 6.72305C26.4 5.92305 25.2 5.92305 24.4 6.72305L13 18.123C12.2 18.923 12.2 20.123 13 20.923L18.8 26.523C19.2 26.923 19.6 27.123 20.2 27.123C20.6 27.123 21.2 26.923 21.6 26.523L22.2 25.923L25.8 29.723C25.8 29.923 25.8 30.323 25.8 30.523C25.8 31.523 26 32.323 26.4 33.123L9.8 49.723C8.6 50.523 8 52.123 8 53.723C8 55.323 8.6 56.923 9.8 57.923C10.8 59.123 12.4 59.723 14 59.723C15.6 59.723 17 59.123 18.2 57.923L34 42.123L34.6 42.923C35.4 43.523 36.6 43.523 37.4 42.923C39.8 40.923 43.6 40.923 46 42.923L50.6 47.523C51 47.923 51.4 48.123 52 48.123C52.4 48.123 53 47.923 53.4 47.523C57.4 43.523 57.4 37.323 53.4 33.323ZM20 22.323L17.2 19.523L25.8 10.923L28.6 13.723L20 22.323ZM25 22.923L29 18.923L31.2 21.123C30.2 21.523 29.4 22.323 28.6 23.123C28 23.723 27.6 24.323 27.2 25.123L25 22.923ZM15.4 55.123C14.6 55.923 13.4 55.923 12.6 55.123C12.2 54.723 12 54.323 12 53.723C12 53.123 12.2 52.723 12.6 52.323L28.4 36.523C28.6 36.723 28.8 37.123 29 37.323L31 39.323L15.4 55.123ZM51.6 43.123L48.6 40.123C46.6 38.323 44.2 37.523 41.6 37.523C39.8 37.523 37.8 37.923 36 38.923L31.6 34.523C31.2 34.123 30.8 33.523 30.4 32.923C30.4 32.723 30.2 32.723 30.2 32.523C29.8 31.723 29.8 31.123 29.8 30.323C29.8 29.923 29.8 29.723 29.8 29.323C29.8 29.123 30 28.923 30 28.523C30.2 27.523 30.6 26.523 31.4 25.723C33.8 23.323 37.6 23.323 40 25.523C40 25.523 40.2 25.523 40.2 25.923L50.4 36.123C51.6 37.123 52.2 38.723 52.2 40.323C52.2 41.523 52 42.323 51.6 43.123Z" fill="#2D373D"/>
</svg>
