<svg width="32" height="33" viewBox="0 0 32 33" fill="none" xmlns="http://www.w3.org/2000/svg">
<path d="M27.4999 18.2623C27.3999 17.8623 27.0999 17.5623 26.7999 17.2623C26.0999 16.4623 25.0999 16.0623 23.9999 16.0623C22.8999 16.0623 21.9999 16.4623 21.1999 17.2623L21.0999 17.3623L20.9999 17.2623C20.6999 16.9623 20.3999 16.7623 19.9999 16.5623C18.0999 15.5623 15.6999 16.3623 14.6999 18.3623C13.8999 19.9623 14.1999 21.7623 15.3999 22.9623L20.3999 28.1623C20.5999 28.3623 20.7999 28.4623 21.0999 28.4623C21.3999 28.4623 21.6999 28.3623 21.7999 28.0623L26.7999 22.8623C27.9999 21.6623 28.2999 19.7623 27.4999 18.2623ZM25.3999 21.5623L21.0999 26.0623L16.7999 21.5623C16.1999 20.9623 15.9999 20.0623 16.3999 19.2623C16.7999 18.5623 17.4999 18.1623 18.1999 18.1623C18.4999 18.1623 18.7999 18.2623 19.0999 18.3623C19.2999 18.4623 19.3999 18.5623 19.5999 18.7623L20.3999 19.5623C20.7999 19.9623 21.3999 19.9623 21.7999 19.5623L22.5999 18.7623C22.9999 18.3623 23.4999 18.1623 23.9999 18.1623C24.4999 18.1623 24.9999 18.3623 25.3999 18.7623C25.5999 18.8623 25.6999 19.0623 25.7999 19.2623C26.1999 20.0623 25.9999 20.9623 25.3999 21.5623Z" fill="#2D373D"/>
<path d="M12.2999 23.5623H6.3999C6.0999 23.5623 5.8999 23.3623 5.8999 23.0623V6.8623C5.8999 6.5623 6.0999 6.3623 6.3999 6.3623H16.7999C16.9999 6.3623 17.0999 6.3623 17.1999 6.5623L19.9999 9.3623C20.0999 9.4623 20.0999 9.5623 20.0999 9.6623V14.1623C20.0999 14.7623 20.4999 15.1623 21.0999 15.1623C21.6999 15.1623 22.0999 14.7623 22.0999 14.1623V9.6623C22.0999 8.9623 21.8999 8.3623 21.3999 7.8623L18.5999 5.0623C18.1999 4.6623 17.5999 4.3623 16.8999 4.3623H6.3999C4.9999 4.3623 3.8999 5.4623 3.8999 6.8623V23.0623C3.8999 24.4623 4.9999 25.5623 6.3999 25.5623H12.2999C12.8999 25.5623 13.2999 25.1623 13.2999 24.5623C13.2999 23.9623 12.8999 23.5623 12.2999 23.5623Z" fill="#2D373D"/>
</svg>
