<svg width="32" height="33" viewBox="0 0 32 33" fill="none" xmlns="http://www.w3.org/2000/svg">
<path d="M20.1983 9.1144C19.646 9.1144 19.1983 9.56212 19.1983 10.1144C19.1983 10.6667 19.646 11.1144 20.1983 11.1144H22.6676C23.2199 11.1144 23.6676 10.6667 23.6676 10.1144C23.6676 9.56212 23.2199 9.1144 22.6676 9.1144H20.1983Z" fill="#2D373D"/>
<path d="M21.6799 13.5591C21.1276 13.5591 20.6799 14.0068 20.6799 14.5591C20.6799 15.1113 21.1276 15.5591 21.6799 15.5591H22.6676C23.2199 15.5591 23.6676 15.1113 23.6676 14.5591C23.6676 14.0068 23.2199 13.5591 22.6676 13.5591H21.6799Z" fill="#2D373D"/>
<path d="M19.2106 18.0037C18.6583 18.0037 18.2106 18.4514 18.2106 19.0037C18.2106 19.556 18.6583 20.0037 19.2106 20.0037H22.6676C23.2199 20.0037 23.6676 19.556 23.6676 19.0037C23.6676 18.4514 23.2199 18.0037 22.6676 18.0037H19.2106Z" fill="#2D373D"/>
<path d="M10.3213 22.4484C9.769 22.4484 9.32129 22.8961 9.32129 23.4484C9.32129 24.0007 9.769 24.4484 10.3213 24.4484H22.6676C23.2199 24.4484 23.6676 24.0007 23.6676 23.4484C23.6676 22.8961 23.2199 22.4484 22.6676 22.4484H10.3213Z" fill="#2D373D"/>
<path fill-rule="evenodd" clip-rule="evenodd" d="M13.7824 8.12669L13.779 8.12669C10.772 8.12669 8.33431 10.5643 8.33431 13.5713C8.33431 16.5784 10.772 19.016 13.779 19.016C16.786 19.016 19.2236 16.5784 19.2236 13.5713C19.2236 10.5655 16.7878 8.12855 13.7824 8.12669ZM12.7792 10.274C11.3643 10.7025 10.3343 12.0166 10.3343 13.5713C10.3343 14.1587 10.4813 14.7118 10.7406 15.1957L12.7792 13.1571V10.274ZM14.7792 10.2741V13.5713C14.7792 13.8366 14.6738 14.0909 14.4863 14.2785L12.1549 16.6099C12.6387 16.869 13.1917 17.016 13.779 17.016C15.6814 17.016 17.2236 15.4738 17.2236 13.5713C17.2236 12.0168 16.1938 10.7027 14.7792 10.2741Z" fill="#2D373D"/>
<path fill-rule="evenodd" clip-rule="evenodd" d="M24.1009 3.95813C23.6258 3.47306 22.9786 3.19312 22.2952 3.19336H6.62929C5.93457 3.19336 5.27817 3.48278 4.80165 3.98177C4.32663 4.47919 4.06738 5.14441 4.06738 5.82892V27.0911C4.06738 27.7756 4.32663 28.4409 4.80165 28.9383C5.27817 29.4373 5.93457 29.7267 6.62929 29.7267H25.3721C26.0669 29.7267 26.7233 29.4373 27.1998 28.9383C27.6748 28.4409 27.934 27.7756 27.934 27.0911V8.97236C27.934 8.62696 27.868 8.28403 27.7389 7.96336C27.6097 7.64263 27.4193 7.3492 27.1767 7.10157L24.1009 3.95813ZM22.2958 5.19336C22.4274 5.19328 22.5632 5.2466 22.6717 5.35723L25.748 8.50123C25.804 8.55831 25.8509 8.62909 25.8837 8.71061C25.9165 8.79216 25.934 8.88141 25.934 8.97255V27.0911C25.934 27.2742 25.8642 27.441 25.7534 27.557C25.6441 27.6715 25.5059 27.7267 25.3721 27.7267H6.62929C6.49552 27.7267 6.35736 27.6715 6.24806 27.557C6.13725 27.441 6.06738 27.2742 6.06738 27.0911V5.82892C6.06738 5.64587 6.13725 5.47907 6.24806 5.36304C6.35736 5.24858 6.49552 5.19336 6.62929 5.19336L22.2958 5.19336Z" fill="#2D373D"/>
</svg>
