<svg width="24" height="25" viewBox="0 0 24 25" fill="none" xmlns="http://www.w3.org/2000/svg">
<path fill-rule="evenodd" clip-rule="evenodd" d="M11.7409 3.71904C10.693 3.41823 9.29049 3.25788 7.99995 3.25781C6.70946 3.25775 5.30696 3.41806 4.25913 3.71887C3.72886 3.8711 3.35559 4.04089 3.1367 4.19693C3.06014 4.25152 3.01985 4.29084 3 4.31393V8.9244C3 10.4514 3.69703 11.8793 4.7194 12.9382C5.75777 14.0136 7.01383 14.5911 8.00003 14.5911C8.98619 14.5912 10.2422 14.0137 11.2806 12.9382C12.303 11.8793 13 10.4514 13 8.9244V4.31404C12.9802 4.29095 12.9399 4.25164 12.8633 4.19708C12.6444 4.04105 12.2712 3.87126 11.7409 3.71904ZM13.0171 4.33833C13.0171 4.33833 13.0146 4.33537 13.012 4.32931C13.0162 4.33527 13.0171 4.33833 13.0171 4.33833ZM2.98295 4.33821C2.98295 4.33821 2.98385 4.33515 2.98801 4.32918C2.98543 4.33525 2.98295 4.33821 2.98295 4.33821ZM8 2.25781C10.7115 2.25795 14 2.92448 14 4.25775V8.9244C14 12.5911 10.6667 15.5912 8 15.5911C5.33333 15.5911 2 12.5911 2 8.9244V4.25767C2 2.92434 5.28853 2.25767 8 2.25781Z" fill="#2D373D"/>
<path d="M9.65 6.87448L7.1 9.42448L6.35 8.67448C6.15 8.47448 5.85 8.47448 5.65 8.67448C5.45 8.87448 5.45 9.17448 5.65 9.37448L6.5 10.2245C6.65 10.3745 6.9 10.4745 7.1 10.4745C7.35 10.4745 7.55 10.3745 7.7 10.2245L10.35 7.57448C10.55 7.37448 10.55 7.07448 10.35 6.87448C10.15 6.67448 9.85 6.67448 9.65 6.87448Z" fill="#2D373D"/>
</svg>
