<svg width="24" height="25" viewBox="0 0 24 25" fill="none" xmlns="http://www.w3.org/2000/svg">
<path fill-rule="evenodd" clip-rule="evenodd" d="M8.04944 16.42C5.89037 15.0953 4.4502 12.713 4.4502 9.99426C4.4502 5.83372 7.82298 2.46094 11.9835 2.46094C16.1441 2.46094 19.5168 5.83372 19.5168 9.99426C19.5168 12.7129 18.0767 15.0953 15.9177 16.42L17.0331 21.5517C17.096 21.8412 16.9827 22.1405 16.7438 22.3158C16.5049 22.491 16.1853 22.5091 15.9281 22.3622L11.9836 20.1081L8.03901 22.3622C7.7818 22.5091 7.46219 22.491 7.22332 22.3158C6.98446 22.1405 6.87109 21.8412 6.93401 21.5517L8.04944 16.42ZM5.9502 9.99426C5.9502 6.66215 8.65141 3.96094 11.9835 3.96094C15.3156 3.96094 18.0168 6.66215 18.0168 9.99426C18.0168 12.3261 16.694 14.349 14.7578 15.3533C14.7356 15.3634 14.714 15.3744 14.6932 15.3864C13.8784 15.7966 12.9579 16.0276 11.9835 16.0276C11.0094 16.0276 10.0891 15.7967 9.27456 15.3867C9.25333 15.3745 9.23138 15.3632 9.20876 15.3531C7.27283 14.3486 5.9502 12.3259 5.9502 9.99426ZM9.43944 17.0872L8.75765 20.2239L11.6115 18.5931C11.842 18.4614 12.1251 18.4614 12.3557 18.5931L15.2095 20.2239L14.5277 17.0872C13.7329 17.3723 12.8764 17.5276 11.9835 17.5276C11.0907 17.5276 10.2342 17.3723 9.43944 17.0872Z" fill="#2D373D"/>
<path fill-rule="evenodd" clip-rule="evenodd" d="M11.3422 5.28885C11.5359 5.17211 11.7578 5.11042 11.984 5.11042C12.2102 5.11042 12.432 5.17211 12.6257 5.28885C12.8195 5.40558 12.9776 5.57294 13.0833 5.77291L12.4202 6.12328L13.0889 5.78375L13.9067 7.3943H15.1881C15.4314 7.39059 15.6704 7.45921 15.8748 7.59159C16.0823 7.726 16.2444 7.9199 16.34 8.14793C16.4355 8.37596 16.46 8.62752 16.4103 8.8697C16.3608 9.11075 16.2401 9.33137 16.0638 9.50299L14.8281 10.7172L15.5153 12.2969C15.6153 12.5354 15.6377 12.7993 15.5796 13.0512C15.5215 13.3032 15.3857 13.5306 15.1915 13.7013C14.9972 13.8719 14.7542 13.9773 14.4968 14.0024C14.2416 14.0273 13.9849 13.9721 13.7625 13.8445L11.9836 12.8438L10.2046 13.8445C9.98226 13.9721 9.72561 14.0273 9.47033 14.0024C9.21296 13.9773 8.96998 13.8719 8.7757 13.7013C8.58142 13.5306 8.44565 13.3032 8.38755 13.0512C8.32945 12.7993 8.35196 12.5354 8.45191 12.2969L8.45592 12.2873L9.1399 10.7166L7.90312 9.49948C7.72696 9.3279 7.60631 9.10737 7.55686 8.86642C7.50715 8.62422 7.53167 8.37267 7.62721 8.14464C7.72276 7.91661 7.88488 7.72271 8.09239 7.5883C8.29674 7.45593 8.53574 7.38731 8.77902 7.39102H10.061L10.8846 5.77286C10.9903 5.5729 11.1485 5.40558 11.3422 5.28885ZM11.9837 6.92029L11.1893 8.48121C11.0613 8.73266 10.803 8.89102 10.5208 8.89102H9.42334L10.5593 10.009C10.7806 10.2267 10.8449 10.5583 10.7209 10.843L10.15 12.1542L11.6159 11.3296C11.8442 11.2011 12.123 11.2011 12.3513 11.3296L13.8176 12.1544L13.247 10.8427C13.1231 10.5579 13.1875 10.2262 13.4091 10.0086L14.5431 8.8943H13.4463C13.1639 8.8943 12.9054 8.73566 12.7776 8.48384L11.9837 6.92029ZM15.2135 8.89408C15.2113 8.89413 15.2091 8.89416 15.2069 8.89416L15.2135 8.89408ZM15.0152 8.43041L15.0181 8.42764L15.0152 8.43041ZM8.75367 8.89079L8.7603 8.89087C8.75809 8.89087 8.75588 8.89085 8.75367 8.89079Z" fill="#2D373D"/>
</svg>
