<svg width="32" height="33" viewBox="0 0 32 33" fill="none" xmlns="http://www.w3.org/2000/svg">
<path d="M27 13.7415C26.2587 12.7508 25.1996 12.0448 24 11.7415L23.41 11.6115C22.23 11.3815 22.23 11.2615 22.23 10.9715V7.63152C22.2326 7.21107 22.1508 6.79437 21.9893 6.40616C21.8278 6.01794 21.59 5.6661 21.29 5.37152C20.6815 4.78961 19.872 4.46484 19.03 4.46484C18.188 4.46484 17.3785 4.78961 16.77 5.37152C16.4633 5.67569 16.2217 6.03916 16.0601 6.43975C15.8985 6.84034 15.8202 7.26966 15.83 7.70152C15.83 8.10152 15.98 11.7015 13.96 13.8115C13.0103 14.7672 11.7444 15.3432 10.4 15.4315V14.2215C10.4 13.9563 10.2946 13.702 10.1071 13.5144C9.91957 13.3269 9.66522 13.2215 9.4 13.2215H5C4.73478 13.2215 4.48043 13.3269 4.29289 13.5144C4.10536 13.702 4 13.9563 4 14.2215V27.4315C4 27.6967 4.10536 27.9511 4.29289 28.1386C4.48043 28.3262 4.73478 28.4315 5 28.4315H9.4C9.66522 28.4315 9.91957 28.3262 10.1071 28.1386C10.2946 27.9511 10.4 27.6967 10.4 27.4315V27.1115C10.4818 27.1374 10.5654 27.1574 10.65 27.1715L12.41 27.6815C13.5838 28.1343 14.8232 28.3944 16.08 28.4515H20.9C22.6086 28.4515 24.2556 27.8139 25.5189 26.6635C26.7821 25.5131 27.5706 23.9326 27.73 22.2315L28.03 17.2315C28.0983 15.9843 27.7345 14.7518 27 13.7415ZM8.4 26.4315H6V15.2215H8.4V26.4315ZM25.74 22.0715C25.6162 23.2685 25.0527 24.377 24.1586 25.1824C23.2645 25.9879 22.1034 26.433 20.9 26.4315H16.08C15.0233 26.366 13.9837 26.1331 13 25.7415L11.2 25.2315C10.9382 25.1515 10.6708 25.0913 10.4 25.0515V17.4315C12.2598 17.3192 14.0107 16.5169 15.31 15.1815C17.9 12.5115 17.82 8.43152 17.78 7.63152C17.78 7.47393 17.811 7.31789 17.8713 7.1723C17.9316 7.02671 18.02 6.89442 18.1315 6.78299C18.2429 6.67156 18.3752 6.58317 18.5208 6.52286C18.6664 6.46256 18.8224 6.43152 18.98 6.43152C19.1376 6.43152 19.2936 6.46256 19.4392 6.52286C19.5848 6.58317 19.7171 6.67156 19.8285 6.78299C19.94 6.89442 20.0283 7.02671 20.0887 7.1723C20.149 7.31789 20.18 7.47393 20.18 7.63152V10.9515C20.18 13.0115 22 13.3615 22.97 13.5515L23.47 13.6615C24.2249 13.8565 24.8892 14.3065 25.3503 14.9353C25.8114 15.5641 26.0409 16.3329 26 17.1115L25.74 22.0715Z" fill="#2D373D"/>
</svg>
