<svg width="24" height="25" viewBox="0 0 24 25" fill="none" xmlns="http://www.w3.org/2000/svg">
<path fill-rule="evenodd" clip-rule="evenodd" d="M12 4.42383C10.3189 4.42383 8.67548 4.92234 7.27766 5.85634C5.87984 6.79033 4.79037 8.11785 4.14703 9.67102C3.50368 11.2242 3.33536 12.9333 3.66333 14.5821C3.9913 16.2309 4.80085 17.7455 5.9896 18.9342C7.17834 20.123 8.6929 20.9325 10.3417 21.2605C11.9906 21.5885 13.6996 21.4202 15.2528 20.7768C16.806 20.1335 18.1335 19.044 19.0675 17.6462C20.0015 16.2484 20.5 14.605 20.5 12.9238C20.5 11.8076 20.2801 10.7023 19.853 9.67102C19.4258 8.63975 18.7997 7.70272 18.0104 6.91342C17.2211 6.12412 16.2841 5.49802 15.2528 5.07085C14.2215 4.64369 13.1162 4.42383 12 4.42383ZM6.4443 4.60913C8.08879 3.51032 10.0222 2.92383 12 2.92383C13.3132 2.92383 14.6136 3.18249 15.8268 3.68503C17.0401 4.18758 18.1425 4.92417 19.0711 5.85276C19.9997 6.78135 20.7363 7.88374 21.2388 9.09699C21.7413 10.3102 22 11.6106 22 12.9238C22 14.9016 21.4135 16.835 20.3147 18.4795C19.2159 20.124 17.6541 21.4057 15.8268 22.1626C13.9996 22.9195 11.9889 23.1175 10.0491 22.7317C8.10929 22.3458 6.32746 21.3934 4.92894 19.9949C3.53041 18.5964 2.578 16.8145 2.19215 14.8747C1.8063 12.9349 2.00433 10.9243 2.76121 9.09699C3.51809 7.26973 4.79981 5.70795 6.4443 4.60913Z" fill="#2D373D"/>
<path fill-rule="evenodd" clip-rule="evenodd" d="M17.0219 9.12624C17.32 9.41386 17.3285 9.88866 17.0409 10.1867L10.7538 16.7025C10.4716 16.995 10.0077 17.0094 9.7078 16.735L6.99488 14.2529C6.68927 13.9732 6.6682 13.4988 6.94781 13.1932C7.22742 12.8876 7.70183 12.8666 8.00743 13.1462L10.1815 15.1353L15.9614 9.14518C16.2491 8.84711 16.7239 8.83863 17.0219 9.12624Z" fill="#2D373D"/>
</svg>
