<svg width="32" height="33" viewBox="0 0 32 33" fill="none" xmlns="http://www.w3.org/2000/svg">
<path d="M15.88 29.7543C15.7483 29.7572 15.6174 29.7327 15.4957 29.6822C15.374 29.6317 15.2642 29.5563 15.1733 29.4609C15.0583 29.3455 14.9727 29.2041 14.924 29.0485C14.8752 28.893 14.8647 28.7281 14.8933 28.5676L15.68 24.6876C15.7194 24.4931 15.8117 24.3131 15.9467 24.1676L23.8533 16.2743C24.1431 15.9736 24.4929 15.7374 24.88 15.5809C25.662 15.2616 26.538 15.2616 27.32 15.5809C27.7094 15.7405 28.063 15.9762 28.36 16.2743C28.6605 16.5702 28.899 16.9231 29.0615 17.3123C29.2241 17.7015 29.3074 18.1192 29.3067 18.5409C29.2974 19.3868 28.9576 20.1955 28.36 20.7943V20.7943L20.4667 28.6876C20.3306 28.8308 20.1537 28.9286 19.96 28.9676L16.08 29.7409L15.88 29.7543ZM17.5733 25.3676L17.16 27.4876L19.32 27.0609L27 19.3809C27.2181 19.1486 27.3458 18.8459 27.36 18.5276C27.3555 18.2111 27.2261 17.9092 27 17.6876C26.8891 17.5751 26.7579 17.4847 26.6133 17.4209C26.3217 17.3078 25.9983 17.3078 25.7067 17.4209C25.5604 17.4815 25.4286 17.5724 25.32 17.6876L17.5733 25.3676ZM12.7733 26.6476H6.56C6.22532 26.6496 5.89362 26.5846 5.58447 26.4563C5.27532 26.3281 4.99499 26.1393 4.76 25.9009C4.52106 25.6657 4.33093 25.3856 4.20051 25.0767C4.07009 24.7678 4.00195 24.4362 4 24.1009V7.02094C4.00333 6.33973 4.27664 5.68763 4.76 5.2076C5.2381 4.73115 5.88503 4.4628 6.56 4.46094H22.0933C22.4278 4.46041 22.7591 4.52612 23.068 4.65427C23.3769 4.78243 23.6574 4.97049 23.8933 5.2076C24.1333 5.44486 24.3239 5.7272 24.4544 6.0384C24.5848 6.3496 24.6524 6.68351 24.6533 7.02094V14.0076C24.6499 14.2717 24.5434 14.5241 24.3566 14.7109C24.1698 14.8977 23.9175 15.0042 23.6533 15.0076C23.3892 15.0042 23.1368 14.8977 22.95 14.7109C22.7633 14.5241 22.6568 14.2717 22.6533 14.0076V7.02094C22.6557 6.94881 22.6427 6.877 22.6151 6.81032C22.5875 6.74363 22.546 6.68361 22.4933 6.63428C22.4437 6.5811 22.3839 6.53838 22.3175 6.50862C22.2511 6.47886 22.1794 6.46265 22.1067 6.46094H6.56C6.41556 6.46365 6.27746 6.52079 6.17333 6.62094C6.06514 6.72625 6.00286 6.86998 6 7.02094V24.1009C6.00013 24.1739 6.01563 24.2461 6.04549 24.3127C6.07536 24.3793 6.11892 24.4389 6.17333 24.4876C6.22267 24.5403 6.28269 24.5818 6.34938 24.6094C6.41606 24.637 6.48787 24.65 6.56 24.6476H12.7733C13.0375 24.6511 13.2898 24.7575 13.4766 24.9443C13.6634 25.1311 13.7699 25.3835 13.7733 25.6476C13.7733 25.7789 13.7475 25.909 13.6972 26.0303C13.647 26.1516 13.5733 26.2619 13.4804 26.3547C13.3876 26.4476 13.2773 26.5212 13.156 26.5715C13.0347 26.6217 12.9047 26.6476 12.7733 26.6476V26.6476ZM17.4267 20.4476H9.66667C9.40145 20.4476 9.1471 20.3422 8.95956 20.1547C8.77202 19.9672 8.66667 19.7128 8.66667 19.4476C8.66487 19.3158 8.68951 19.1849 8.73913 19.0628C8.78875 18.9407 8.86235 18.8297 8.95556 18.7365C9.04878 18.6433 9.15973 18.5697 9.28187 18.5201C9.40401 18.4705 9.53485 18.4458 9.66667 18.4476H17.4267C17.5585 18.4458 17.6893 18.4705 17.8115 18.5201C17.9336 18.5697 18.0446 18.6433 18.1378 18.7365C18.231 18.8297 18.3046 18.9407 18.3542 19.0628C18.4038 19.1849 18.4285 19.3158 18.4267 19.4476C18.4267 19.5789 18.4008 19.709 18.3505 19.8303C18.3003 19.9516 18.2266 20.0619 18.1338 20.1547C18.0409 20.2476 17.9307 20.3212 17.8093 20.3715C17.688 20.4217 17.558 20.4476 17.4267 20.4476V20.4476ZM18.9867 15.7809H9.65333C9.52151 15.7827 9.39067 15.7581 9.26854 15.7085C9.1464 15.6589 9.03545 15.5853 8.94223 15.492C8.84901 15.3988 8.77542 15.2879 8.7258 15.1657C8.67618 15.0436 8.65154 14.9128 8.65333 14.7809C8.65333 14.5157 8.75869 14.2614 8.94623 14.0738C9.13376 13.8863 9.38812 13.7809 9.65333 13.7809H18.9867C19.2508 13.7844 19.5032 13.8909 19.69 14.0777C19.8767 14.2644 19.9832 14.5168 19.9867 14.7809C19.9867 15.0462 19.8813 15.3005 19.6938 15.488C19.5062 15.6756 19.2519 15.7809 18.9867 15.7809ZM18.9867 11.1276H12.7733C12.5081 11.1276 12.2538 11.0223 12.0662 10.8347C11.8787 10.6472 11.7733 10.3928 11.7733 10.1276C11.7715 9.99579 11.7962 9.86495 11.8458 9.74281C11.8954 9.62067 11.969 9.50972 12.0622 9.4165C12.1554 9.32328 12.2664 9.24969 12.3885 9.20007C12.5107 9.15045 12.6415 9.12581 12.7733 9.12761H18.9867C19.2519 9.12761 19.5062 9.23296 19.6938 9.4205C19.8813 9.60804 19.9867 9.86239 19.9867 10.1276C19.9832 10.3917 19.8767 10.6441 19.69 10.8309C19.5032 11.0177 19.2508 11.1242 18.9867 11.1276V11.1276Z" fill="#2D373D"/>
</svg>
