<svg width="32" height="32" viewBox="0 0 32 32" fill="none" xmlns="http://www.w3.org/2000/svg">
<path d="M18.1998 12.7998H14.7998V9.2998C14.7998 8.6998 14.3998 8.2998 13.7998 8.2998C13.1998 8.2998 12.7998 8.6998 12.7998 9.2998V12.7998H9.2998C8.6998 12.7998 8.2998 13.1998 8.2998 13.7998C8.2998 14.3998 8.6998 14.7998 9.2998 14.7998H12.7998V18.1998C12.7998 18.7998 13.1998 19.1998 13.7998 19.1998C14.2998 19.1998 14.7998 18.6998 14.7998 18.1998V14.7998H18.1998C18.6998 14.7998 19.1998 14.3998 19.1998 13.7998C19.1998 13.1998 18.7998 12.7998 18.1998 12.7998Z" fill="#2D373D"/>
<path d="M27.6999 26.2999L21.4999 20.0999C22.9999 18.2999 23.6999 16.0999 23.6999 13.7999C23.6999 8.2999 19.2999 3.8999 13.7999 3.8999C11.1999 3.8999 8.6999 4.8999 6.7999 6.7999C4.8999 8.6999 3.8999 11.0999 3.8999 13.7999C3.8999 16.4999 4.8999 18.9999 6.7999 20.7999C8.6999 22.6999 11.1999 23.6999 13.7999 23.6999C16.1999 23.6999 18.3999 22.8999 20.0999 21.4999L26.2999 27.6999C26.4999 27.8999 26.6999 27.9999 26.9999 27.9999C27.2999 27.9999 27.4999 27.8999 27.6999 27.6999C28.0999 27.2999 28.0999 26.6999 27.6999 26.2999ZM8.1999 19.3999C6.6999 17.8999 5.8999 15.8999 5.8999 13.7999C5.8999 11.6999 6.6999 9.6999 8.1999 8.1999C9.6999 6.6999 11.6999 5.8999 13.7999 5.8999C18.1999 5.8999 21.6999 9.3999 21.6999 13.7999C21.6999 15.8999 20.8999 17.8999 19.3999 19.3999C17.8999 20.8999 15.8999 21.6999 13.7999 21.6999C11.6999 21.6999 9.6999 20.8999 8.1999 19.3999Z" fill="#2D373D"/>
</svg>
