<svg width="24" height="24" viewBox="0 0 24 24" fill="none" xmlns="http://www.w3.org/2000/svg">
<path fill-rule="evenodd" clip-rule="evenodd" d="M12 4.5C7.88381 4.5 4.5 7.94398 4.5 11.5V19.25C4.5 19.6642 4.16421 20 3.75 20C3.33579 20 3 19.6642 3 19.25V11.5C3 7.05602 7.11619 3 12 3C16.8838 3 21 7.05602 21 11.5V19.25C21 19.6642 20.6642 20 20.25 20C19.8358 20 19.5 19.6642 19.5 19.25V11.5C19.5 7.94398 16.1162 4.5 12 4.5Z" fill="#2D373D"/>
<path fill-rule="evenodd" clip-rule="evenodd" d="M7.75 9C7.55109 9 7.36032 9.07902 7.21967 9.21967C7.07902 9.36032 7 9.55109 7 9.75C7 11.0582 8.00436 12.8 9.94355 12.8C10.8755 12.8 11.5518 12.3229 12.0001 11.7804C12.4483 12.3229 13.1246 12.8 14.0566 12.8C15.9972 12.8 17.0001 11.0485 17.0001 9.75C17.0001 9.33579 16.6643 9 16.2501 9H7.75ZM9.94355 11.3C9.37173 11.3 8.92715 10.951 8.69012 10.5H11.0657C11.0183 10.583 10.9662 10.6642 10.9091 10.7413C10.644 11.0996 10.3322 11.3 9.94355 11.3ZM13.0911 10.7413C13.034 10.6642 12.9818 10.583 12.9345 10.5H15.3082C15.0705 10.9497 14.6263 11.3 14.0566 11.3C13.6679 11.3 13.3562 11.0996 13.0911 10.7413Z" fill="#2D373D"/>
<path fill-rule="evenodd" clip-rule="evenodd" d="M14.832 16.723C14.6896 16.8983 14.4758 17 14.25 17H9.75C9.52418 17 9.31038 16.8983 9.16796 16.723C9.02555 16.5478 8.96967 16.3177 9.01585 16.0966C9.11028 15.6447 9.35573 14.9902 9.80863 14.4315C10.2738 13.8577 10.9959 13.3461 12 13.3461C13.0041 13.3461 13.7262 13.8577 14.1914 14.4315C14.6443 14.9902 14.8897 15.6447 14.9841 16.0966C15.0303 16.3177 14.9745 16.5478 14.832 16.723ZM13.1192 15.5C13.0898 15.4578 13.0588 15.4163 13.0261 15.3761C12.7638 15.0524 12.4359 14.8461 12 14.8461C11.5641 14.8461 11.2362 15.0524 10.9739 15.3761C10.9412 15.4163 10.9102 15.4578 10.8808 15.5H13.1192Z" fill="#2D373D"/>
</svg>
