<svg width="16" height="16" viewBox="0 0 16 16" fill="none" xmlns="http://www.w3.org/2000/svg">
<path d="M13.5002 7.49995H8.5002V2.44995C8.5002 2.14995 8.3002 1.94995 8.0002 1.94995C7.7002 1.94995 7.5002 2.14995 7.5002 2.44995V7.49995H2.4502C2.1502 7.49995 1.9502 7.69995 1.9502 7.99995C1.9502 8.29995 2.1502 8.49995 2.4502 8.49995H7.5002V13.5C7.5002 13.8 7.7002 14 8.0002 14C8.2502 14 8.5002 13.8 8.5002 13.5V8.49995H13.5002C13.8002 8.49995 14.0002 8.29995 14.0002 7.99995C14.0002 7.69995 13.8002 7.49995 13.5002 7.49995Z" fill="#2D373D"/>
</svg>
