<svg width="16" height="17" viewBox="0 0 16 17" fill="none" xmlns="http://www.w3.org/2000/svg">
<path fill-rule="evenodd" clip-rule="evenodd" d="M7.55183 5.04714C7.6872 4.96465 7.84266 4.92102 8.00118 4.92102C8.1597 4.92102 8.31517 4.96465 8.45053 5.04714C8.5859 5.12963 8.69595 5.24779 8.76863 5.38867C8.77116 5.39358 8.77361 5.39853 8.77598 5.40352L9.40576 6.73056H10.3856C10.5547 6.72864 10.7207 6.77687 10.8624 6.86923C11.0057 6.96257 11.1178 7.09668 11.1841 7.25428C11.2505 7.41189 11.2681 7.58575 11.2347 7.75347C11.2013 7.92118 11.1185 8.07504 10.9968 8.19523C10.9906 8.20134 10.9843 8.2073 10.9778 8.21308L10.0529 9.03605L10.5719 10.2287C10.6416 10.3949 10.6573 10.5788 10.6167 10.7544C10.5762 10.93 10.4815 11.0884 10.346 11.2073C10.2106 11.3262 10.0412 11.3995 9.86177 11.4168C9.6839 11.434 9.50513 11.3953 9.3503 11.3062L8.00009 10.5468L6.64988 11.3062C6.49506 11.3953 6.31628 11.434 6.13841 11.4168C5.95902 11.3995 5.78962 11.3262 5.65414 11.2073C5.51867 11.0884 5.42398 10.93 5.38345 10.7544C5.34293 10.5788 5.35861 10.3949 5.4283 10.2287L5.43091 10.2225L5.94742 9.03573L5.02425 8.21278C5.01786 8.20709 5.01163 8.20124 5.00555 8.19523C4.8839 8.07505 4.80105 7.92118 4.76766 7.75347C4.73428 7.58576 4.7519 7.41189 4.81825 7.25428C4.88461 7.09668 4.99665 6.96257 5.13993 6.86923C5.28172 6.77687 5.44767 6.72864 5.61679 6.73056H6.59661L7.22639 5.40352C7.22876 5.39853 7.23121 5.39358 7.23374 5.38867C7.30642 5.24779 7.41647 5.12963 7.55183 5.04714ZM8.00118 6.10331L8.63789 7.44493C8.72067 7.61937 8.89651 7.73056 9.0896 7.73056H10.0157L9.11748 8.52982C8.956 8.67351 8.90513 8.90469 8.99139 9.10288L9.48362 10.2339L8.2452 9.53738C8.093 9.45178 7.90718 9.45178 7.75498 9.53738L6.51657 10.2339L7.0088 9.10288C7.09498 8.90484 7.04427 8.67385 6.88304 8.53013L5.9861 7.73056H6.91277C7.10586 7.73056 7.2817 7.61937 7.36448 7.44493L8.00118 6.10331Z" fill="#2D373D"/>
<path fill-rule="evenodd" clip-rule="evenodd" d="M3.29784 3.75829C4.54495 2.51117 6.23641 1.81055 8.0001 1.81055C9.76379 1.81055 11.4552 2.51117 12.7024 3.75829C13.9495 5.0054 14.6501 6.69686 14.6501 8.46055C14.6501 10.2242 13.9495 11.9157 12.7024 13.1628C11.4552 14.4099 9.76379 15.1105 8.0001 15.1105C6.23641 15.1105 4.54495 14.4099 3.29784 13.1628C2.05072 11.9157 1.3501 10.2242 1.3501 8.46055C1.3501 6.69686 2.05072 5.0054 3.29784 3.75829ZM8.0001 2.81055C6.50162 2.81055 5.06453 3.40581 4.00494 4.46539C2.94536 5.52497 2.3501 6.96207 2.3501 8.46055C2.3501 9.95902 2.94536 11.3961 4.00494 12.4557C5.06452 13.5153 6.50162 14.1105 8.0001 14.1105C9.49857 14.1105 10.9357 13.5153 11.9953 12.4557C13.0548 11.3961 13.6501 9.95902 13.6501 8.46055C13.6501 6.96207 13.0548 5.52497 11.9953 4.46539C10.9357 3.40581 9.49857 2.81055 8.0001 2.81055Z" fill="#2D373D"/>
</svg>
