<svg width="24" height="25" viewBox="0 0 24 25" fill="none" xmlns="http://www.w3.org/2000/svg">
<path fill-rule="evenodd" clip-rule="evenodd" d="M16.1875 7.06291H20.1875C21.2921 7.06291 22.1875 7.95835 22.1875 9.06291V19.4629C22.1875 20.5675 21.2921 21.4629 20.1875 21.4629H4.1875C3.08293 21.4629 2.1875 20.5675 2.1875 19.4629V9.06292C2.1875 7.95835 3.08293 7.06291 4.1875 7.06291H8.1875V5.46289C8.1875 4.35832 9.08293 3.46289 10.1875 3.46289H14.1875C15.2921 3.46289 16.1875 4.35832 16.1875 5.46289V7.06291ZM9.6875 6.91289H14.6875V5.46289C14.6875 5.18675 14.4636 4.96289 14.1875 4.96289H10.1875C9.91136 4.96289 9.6875 5.18675 9.6875 5.46289V6.91289ZM17.6875 19.9629V8.56291H20.1875C20.4636 8.56291 20.6875 8.78677 20.6875 9.06291V19.4629C20.6875 19.7391 20.4636 19.9629 20.1875 19.9629H17.6875ZM16.1875 8.56291V19.9629H8.1875V8.56291H16.1875ZM6.6875 8.56291V19.9629H4.1875C3.91136 19.9629 3.6875 19.7391 3.6875 19.4629V9.06292C3.6875 8.78677 3.91136 8.56291 4.1875 8.56291H6.6875Z" fill="#2D373D"/>
</svg>
