<svg width="64" height="65" viewBox="0 0 64 65" fill="none" xmlns="http://www.w3.org/2000/svg">
<path d="M57.2123 12.8418H50.9092V9.8418C50.9092 7.32096 48.8502 5.2793 46.308 5.2793H40.8034C38.2612 5.2793 36.2022 7.32096 36.2022 9.8418V12.8418H27.7981V9.8418C27.7981 7.32096 25.7391 5.2793 23.1969 5.2793H17.6923C15.15 5.2793 13.0911 7.32096 13.0911 9.8418V12.8418H6.78802C5.63247 12.8418 4.68701 13.7793 4.68701 14.9251V56.5919C4.68701 57.7377 5.63247 58.6752 6.78802 58.6752H57.2123C58.3678 58.6752 59.3133 57.7377 59.3133 56.5919V14.9251C59.3133 13.7793 58.3678 12.8418 57.2123 12.8418ZM40.4042 9.8418C40.4042 9.61263 40.5723 9.44596 40.8034 9.44596H46.308C46.5391 9.44596 46.7072 9.63346 46.7072 9.8418V12.8418H40.4042V9.8418ZM17.2931 9.8418C17.2931 9.61263 17.4612 9.44596 17.6923 9.44596H23.1969C23.428 9.44596 23.5961 9.63346 23.5961 9.8418V12.8418H17.2931V9.8418ZM55.1113 17.0085V21.1752H8.88903V17.0085H55.1113ZM55.1113 54.5085H8.88903V25.3419H55.1113V54.5085Z" fill="#2D373D"/>
<path d="M15.1921 41.0292H18.3436V44.1542C18.3436 45.3 19.289 46.2375 20.4446 46.2375C21.6001 46.2375 22.5456 45.3 22.5456 44.1542V41.0292H25.6971C26.8527 41.0292 27.7981 40.0917 27.7981 38.9458C27.7981 37.8 26.8527 36.8625 25.6971 36.8625H22.5456V33.7375C22.5456 32.5917 21.6001 31.6542 20.4446 31.6542C19.289 31.6542 18.3436 32.5917 18.3436 33.7375V36.8625H15.1921C14.0365 36.8625 13.0911 37.8 13.0911 38.9458C13.0911 40.0917 14.0365 41.0292 15.1921 41.0292Z" fill="#2D373D"/>
<path d="M38.3032 42.0081H48.8082C49.9638 42.0081 50.9092 41.0706 50.9092 39.9248C50.9092 38.779 49.9638 37.8415 48.8082 37.8415H38.3032C37.1476 37.8415 36.2022 38.779 36.2022 39.9248C36.2022 41.0706 37.1476 42.0081 38.3032 42.0081Z" fill="#2D373D"/>
</svg>
