<svg width="16" height="17" viewBox="0 0 16 17" fill="none" xmlns="http://www.w3.org/2000/svg">
<path d="M8.84971 8.86016C8.84971 8.56016 8.64971 8.36016 8.34971 8.36016H3.19971C3.04971 8.36016 2.94971 8.26016 2.94971 8.11016V3.66016C2.94971 3.51016 3.04971 3.41016 3.19971 3.41016H12.0497C12.1997 3.41016 12.2997 3.51016 12.2997 3.66016V6.61016C12.2997 6.91016 12.4997 7.11016 12.7997 7.11016C13.0997 7.11016 13.2997 6.91016 13.2997 6.61016V3.66016C13.2997 2.96016 12.7497 2.41016 12.0497 2.41016H3.19971C2.49971 2.41016 1.94971 2.96016 1.94971 3.66016V8.06016C1.94971 8.76016 2.49971 9.31016 3.19971 9.31016H8.34971C8.64971 9.31016 8.84971 9.11016 8.84971 8.86016Z" fill="#2D373D"/>
<path d="M4.14971 5.36016C3.99971 5.51016 3.94971 5.66016 3.94971 5.86016C3.94971 6.26016 4.24971 6.56016 4.64971 6.56016C5.04971 6.56016 5.34971 6.26016 5.34971 5.86016C5.34971 5.46016 5.04971 5.16016 4.64971 5.16016C4.44971 5.16016 4.29971 5.21016 4.14971 5.36016Z" fill="#2D373D"/>
<path d="M7.14971 5.36016C6.99971 5.51016 6.94971 5.66016 6.94971 5.86016C6.94971 6.06016 6.99971 6.21016 7.09971 6.36016C7.24971 6.51016 7.39971 6.56016 7.59971 6.56016C7.99971 6.56016 8.29971 6.26016 8.34971 5.86016C8.34971 5.46016 8.04971 5.16016 7.64971 5.16016C7.44971 5.16016 7.29971 5.21016 7.14971 5.36016Z" fill="#2D373D"/>
<path d="M10.0494 5.36016C9.89945 5.51016 9.84945 5.66016 9.84945 5.86016C9.84945 6.06016 9.89945 6.21016 10.0494 6.36016C10.1994 6.51016 10.3494 6.56016 10.5494 6.56016C10.9494 6.56016 11.2494 6.26016 11.2494 5.86016C11.2494 5.66016 11.1994 5.51016 11.0494 5.36016C10.8994 5.21016 10.7494 5.16016 10.5494 5.16016C10.3494 5.16016 10.1994 5.21016 10.0494 5.36016Z" fill="#2D373D"/>
<path d="M13.5494 9.81003H13.2994V9.56003C13.2994 8.51003 12.3994 7.61003 11.2994 7.61003C10.2494 7.61003 9.34945 8.46003 9.34945 9.56003V9.81003H9.09945C8.79945 9.81003 8.59945 10.01 8.59945 10.31V14.01C8.59945 14.31 8.79945 14.51 9.09945 14.51H13.5494C13.7994 14.51 14.0494 14.26 14.0494 14.01V10.31C14.0494 10.01 13.8494 9.81003 13.5494 9.81003ZM10.2994 9.61003C10.2994 9.06003 10.7494 8.61003 11.2994 8.61003C11.8494 8.61003 12.2994 9.01003 12.2994 9.56003V9.81003H10.3494L10.2994 9.61003ZM13.0494 13.51H9.59945V10.81H13.0494V13.51Z" fill="#2D373D"/>
<path d="M11.2994 11.4601C10.8994 11.4601 10.5994 11.7601 10.5994 12.1601C10.5994 12.5601 10.8994 12.8601 11.2994 12.8601C11.6994 12.8601 11.9994 12.5601 11.9994 12.1601C11.9994 11.7601 11.6994 11.4601 11.2994 11.4601Z" fill="#2D373D"/>
</svg>
