<svg width="64" height="65" viewBox="0 0 64 65" fill="none" xmlns="http://www.w3.org/2000/svg">
<path d="M58.2603 28.5783C57.8603 29.0849 57.2736 29.3783 56.6602 29.3783C56.2336 29.3783 55.8336 29.2449 55.4602 28.9783L32.3136 11.7516C32.3136 11.7516 31.8602 11.4583 31.5136 11.6983C27.3802 14.4716 14.2602 23.6983 8.68692 28.8449C7.86025 29.5916 6.60692 29.5383 5.86025 28.7383C5.11358 27.9116 5.16692 26.6583 5.96692 25.9116C11.6202 20.6849 24.3402 11.6983 29.3002 8.36493C30.9536 7.2716 33.0869 7.32493 34.6869 8.5516L57.8603 25.7783C58.7403 26.4183 58.9269 27.6716 58.2603 28.5783Z" fill="#2D373D"/>
<path d="M50.6602 28.7109C49.5668 28.7109 48.6602 29.6176 48.6602 30.7109V38.7643C45.6468 38.3109 44.1268 36.8976 44.0735 36.8443C43.3268 36.0976 42.1268 36.0709 41.3268 36.7643C40.3135 37.6709 38.3402 38.9243 37.3268 38.9243C36.2602 38.9243 34.3135 37.6443 33.3268 36.7643C32.5535 36.0976 31.4335 36.0976 30.6602 36.7643C29.6468 37.6709 27.6735 38.9243 26.6602 38.9243C25.5935 38.9243 23.6468 37.6443 22.6602 36.7643C21.8602 36.0709 20.6868 36.0976 19.9402 36.8176C19.8602 36.8976 18.3402 38.3109 15.3268 38.7643V30.7109C15.3268 29.6176 14.4202 28.7109 13.3268 28.7109C12.2335 28.7109 11.3268 29.6176 11.3268 30.7109V54.5509C11.3268 57.3243 13.5935 59.5909 16.3935 59.5909H47.5935C50.3935 59.5909 52.6602 57.3243 52.6602 54.5509V30.7109C52.6602 29.6176 51.7535 28.7109 50.6602 28.7109ZM48.6602 54.5509C48.6602 55.1109 48.1802 55.5909 47.5935 55.5909H16.3935C15.8068 55.5909 15.3268 55.1109 15.3268 54.5509V52.1243C18.0735 51.8043 20.0468 50.8709 21.2735 50.0976C22.6068 51.0576 24.6868 52.2576 26.6602 52.2576C28.6335 52.2576 30.6602 51.0843 31.9935 50.1243C33.3268 51.0843 35.3535 52.2576 37.3268 52.2576C39.3002 52.2576 41.3802 51.0576 42.6868 50.0976C43.9135 50.8709 45.9135 51.8043 48.6602 52.1243V54.5509ZM44.0735 46.1776C43.3268 45.4309 42.1268 45.4043 41.3268 46.0976C40.3135 47.0043 38.3402 48.2576 37.3268 48.2576C36.2602 48.2576 34.3135 46.9776 33.3268 46.0976C32.5535 45.4309 31.4335 45.4309 30.6602 46.0976C29.6468 47.0043 27.6735 48.2576 26.6602 48.2576C25.5935 48.2576 23.6468 46.9776 22.6602 46.0976C21.8602 45.4043 20.6868 45.4309 19.9402 46.1509C19.8602 46.2309 18.3402 47.6443 15.3268 48.0976V42.7909C18.0735 42.4709 20.0468 41.5376 21.2735 40.7643C22.6068 41.7243 24.6868 42.9243 26.6602 42.9243C28.6335 42.9243 30.6602 41.7509 31.9935 40.7909C33.3268 41.7509 35.3535 42.9243 37.3268 42.9243C39.3002 42.9243 41.3802 41.7243 42.6868 40.7643C43.9135 41.5376 45.9135 42.4709 48.6602 42.7909V48.0976C45.6468 47.6443 44.1268 46.2309 44.0735 46.1776Z" fill="#2D373D"/>
<path d="M54.6335 8.25781V15.9111C54.6335 17.0045 53.7535 17.9111 52.6335 17.9111C51.5135 17.9111 50.6335 17.0045 50.6335 15.9111V10.2578H44.9801C43.8868 10.2578 42.9801 9.35115 42.9801 8.25781C42.9801 7.16448 43.8868 6.25781 44.9801 6.25781H52.6335C53.7535 6.25781 54.6335 7.16448 54.6335 8.25781Z" fill="#2D373D"/>
</svg>
