<svg width="64" height="65" viewBox="0 0 64 65" fill="none" xmlns="http://www.w3.org/2000/svg">
<path fill-rule="evenodd" clip-rule="evenodd" d="M21.7232 13.2333C23.6751 11.2813 26.1252 9.94196 28.7745 9.33891C28.8355 9.32237 28.8974 9.30869 28.96 9.29796C29.9517 9.08584 30.9701 8.97656 31.9998 8.97656C33.0293 8.97656 34.0475 9.08579 35.0389 9.29782C35.1021 9.30861 35.1646 9.32243 35.2261 9.33915C37.8751 9.94232 40.3247 11.2816 42.2764 13.2333C43.7909 14.7478 44.9366 16.5621 45.6558 18.5367C45.6922 18.6207 45.7231 18.7077 45.7479 18.7973C46.2631 20.3001 46.5331 21.8911 46.5331 23.5099C46.5331 25.1287 46.2631 26.7197 45.7478 28.2226C45.7231 28.3121 45.6922 28.399 45.6558 28.483C44.9367 30.4576 43.7909 32.272 42.2764 33.7865C40.0631 35.9998 37.2094 37.4256 34.1508 37.8832C34.0798 37.8973 34.0079 37.9075 33.9353 37.9138C33.2972 37.9996 32.6508 38.0432 31.9998 38.0432C31.3431 38.0432 30.691 37.9988 30.0475 37.9116C29.9922 37.9061 29.9373 37.8983 29.8829 37.8883C26.8114 37.4361 23.9447 36.0081 21.7232 33.7865C20.2083 32.2716 19.0624 30.4568 18.3433 28.4816C18.3073 28.3985 18.2768 28.3125 18.2523 28.2241C17.7367 26.7207 17.4665 25.1293 17.4665 23.5099C17.4665 21.8906 17.7367 20.2991 18.2523 18.7958C18.2768 18.7073 18.3073 18.6213 18.3433 18.5381C19.0624 16.563 20.2083 14.7481 21.7232 13.2333ZM36.8016 32.8851C37.7699 32.3892 38.6643 31.7417 39.448 30.9581C39.8447 30.5614 40.2065 30.1363 40.5313 29.6877H37.5068C37.3132 30.7617 37.0779 31.8283 36.8016 32.8851ZM33.4354 29.6877C33.1417 31.1574 32.7616 32.6104 32.2965 34.0391C32.1977 34.0418 32.0988 34.0432 31.9998 34.0432C31.9036 34.0432 31.8076 34.0419 31.7117 34.0393C31.2464 32.6076 30.8668 31.1545 30.5731 29.6877H33.4354ZM38.0324 25.6877H42.3056C42.4558 24.9769 42.5331 24.2474 42.5331 23.5099C42.5331 22.7724 42.4558 22.0428 42.3056 21.3321H38.1712C38.1758 21.5935 38.178 21.855 38.1777 22.1166C38.1796 23.3102 38.131 24.5016 38.0324 25.6877ZM34.1705 21.3321C34.1756 21.5931 34.178 21.8542 34.1777 22.1154V22.1206C34.1797 23.3133 34.126 24.5036 34.0172 25.6877H29.9882C29.8535 24.24 29.8006 22.7858 29.8299 21.3321H34.1705ZM37.911 17.3321H40.5313C40.2064 16.8834 39.8447 16.4584 39.448 16.0617C38.8562 15.4699 38.2013 14.9558 37.499 14.526C37.6676 15.4566 37.805 16.3925 37.911 17.3321ZM33.0961 13.0337C33.4401 14.4513 33.7027 15.8865 33.883 17.3321H30.119C30.299 15.8901 30.5608 14.4549 30.9047 13.0336C31.2669 12.9958 31.6323 12.9766 31.9998 12.9766C32.3677 12.9766 32.7335 12.9958 33.0961 13.0337ZM24.5516 16.0617C25.1441 15.4692 25.7999 14.9546 26.5031 14.5245C26.3343 15.4569 26.1969 16.3933 26.091 17.3321H23.4683C23.7932 16.8834 24.1549 16.4584 24.5516 16.0617ZM21.694 21.3321H25.8292C25.8027 22.7855 25.8505 24.2393 25.9726 25.6877H21.694C21.5438 24.9769 21.4665 24.2474 21.4665 23.5099C21.4665 22.7724 21.5438 22.0428 21.694 21.3321ZM23.4683 29.6877H26.5014C26.6956 30.7622 26.9314 31.8306 27.2087 32.8906C26.2362 32.3939 25.3381 31.7446 24.5516 30.9581C24.1549 30.5614 23.7932 30.1363 23.4683 29.6877Z" fill="#2D373D"/>
<path fill-rule="evenodd" clip-rule="evenodd" d="M15.6389 35.8662C16.5043 35.5077 17.4319 35.3232 18.3687 35.3232C19.3054 35.3232 20.233 35.5077 21.0985 35.8662C21.9639 36.2247 22.7503 36.7502 23.4127 37.4125C24.0751 38.0749 24.6005 38.8613 24.959 39.7268C25.3175 40.5922 25.502 41.5198 25.502 42.4566C25.502 43.3933 25.3175 44.3209 24.959 45.1864C24.6005 46.0518 24.0751 46.8382 23.4127 47.5006C23.2275 47.6858 23.0326 47.8604 22.8289 48.0235C23.4452 48.3045 24.0367 48.6445 24.5946 49.0408C26.4132 50.3326 27.7849 52.1583 28.5194 54.2646C28.8831 55.3076 28.3325 56.4479 27.2895 56.8117C26.2465 57.1754 25.1062 56.6247 24.7425 55.5817C24.2813 54.2592 23.42 53.1129 22.2782 52.3018C21.1363 51.4907 19.7703 51.0549 18.3697 51.0549C16.9691 51.0549 15.6031 51.4907 14.4612 52.3018C13.3194 53.1129 12.4581 54.2592 11.9969 55.5817C11.6332 56.6247 10.4929 57.1754 9.4499 56.8117C8.40693 56.4479 7.85628 55.3076 8.21999 54.2646C8.95452 52.1583 10.3262 50.3326 12.1448 49.0408C12.7023 48.6448 13.2933 48.305 13.9092 48.0241C13.7053 47.8608 13.5101 47.6861 13.3247 47.5006C12.6623 46.8382 12.1368 46.0518 11.7783 45.1864C11.4199 44.3209 11.2354 43.3933 11.2354 42.4566C11.2354 41.5198 11.4199 40.5922 11.7783 39.7268C12.1368 38.8613 12.6623 38.0749 13.3247 37.4125C13.987 36.7502 14.7734 36.2247 15.6389 35.8662ZM18.3687 39.3232C17.9572 39.3232 17.5498 39.4043 17.1696 39.5618C16.7895 39.7192 16.444 39.95 16.1531 40.241C15.8621 40.5319 15.6313 40.8773 15.4739 41.2575C15.3164 41.6377 15.2354 42.0451 15.2354 42.4566C15.2354 42.8681 15.3164 43.2755 15.4739 43.6556C15.6313 44.0358 15.8621 44.3812 16.1531 44.6722C16.444 44.9631 16.7895 45.1939 17.1696 45.3514C17.5498 45.5089 17.9572 45.5899 18.3687 45.5899C18.7802 45.5899 19.1876 45.5089 19.5678 45.3514C19.9479 45.1939 20.2933 44.9631 20.5843 44.6722C20.8752 44.3812 21.106 44.0358 21.2635 43.6556C21.421 43.2755 21.502 42.8681 21.502 42.4566C21.502 42.0451 21.421 41.6377 21.2635 41.2575C21.106 40.8773 20.8752 40.5319 20.5843 40.241C20.2933 39.95 19.9479 39.7192 19.5678 39.5618C19.1876 39.4043 18.7802 39.3232 18.3687 39.3232Z" fill="#2D373D"/>
<path fill-rule="evenodd" clip-rule="evenodd" d="M40.8022 37.4125C42.14 36.0748 43.9543 35.3232 45.8462 35.3232C47.7381 35.3232 49.5525 36.0748 50.8902 37.4125C52.228 38.7503 52.9796 40.5647 52.9796 42.4566C52.9796 44.3485 52.228 46.1628 50.8902 47.5006C50.7043 47.6866 50.5091 47.8612 50.3058 48.0241C50.9216 48.305 51.5127 48.6448 52.0702 49.0408C53.8888 50.3326 55.2605 52.1583 55.995 54.2646C56.3587 55.3076 55.8081 56.4479 54.7651 56.8117C53.7221 57.1754 52.5818 56.6247 52.2181 55.5817C51.7569 54.2592 50.8956 53.1129 49.7537 52.3018C48.6119 51.4907 47.2459 51.0549 45.8453 51.0549C44.4446 51.0549 43.0787 51.4907 41.9368 52.3018C40.7949 53.1129 39.9337 54.2592 39.4725 55.5817C39.1088 56.6247 37.9685 57.1754 36.9255 56.8117C35.8825 56.4479 35.3319 55.3076 35.6956 54.2646C36.4301 52.1583 37.8018 50.3326 39.6204 49.0408C40.1783 48.6445 40.7697 48.3045 41.386 48.0235C41.1829 47.8608 40.988 47.6864 40.8022 47.5006C39.4644 46.1628 38.7129 44.3485 38.7129 42.4566C38.7129 40.5647 39.4644 38.7503 40.8022 37.4125ZM45.8462 39.3232C45.0152 39.3232 44.2182 39.6534 43.6306 40.241C43.043 40.8286 42.7129 41.6256 42.7129 42.4566C42.7129 43.2876 43.043 44.0846 43.6306 44.6722C44.2182 45.2598 45.0152 45.5899 45.8462 45.5899C46.6772 45.5899 47.4742 45.2598 48.0618 44.6722C48.6494 44.0846 48.9796 43.2876 48.9796 42.4566C48.9796 41.6256 48.6494 40.8286 48.0618 40.241C47.4742 39.6534 46.6772 39.3232 45.8462 39.3232Z" fill="#2D373D"/>
</svg>
