<svg width="24" height="25" viewBox="0 0 24 25" fill="none" xmlns="http://www.w3.org/2000/svg">
<path fill-rule="evenodd" clip-rule="evenodd" d="M15.4325 3.95106C16.4436 3.8452 17.4631 4.04954 18.3553 4.53691C18.5627 4.65017 18.7046 4.85452 18.7382 5.08838C18.7718 5.32224 18.6933 5.55828 18.5262 5.72537L16.2903 7.96195V8.63264H16.961L19.1986 6.39576C19.3657 6.22883 19.6017 6.15039 19.8355 6.18406C20.0693 6.21773 20.2736 6.35958 20.3868 6.56688C20.8742 7.45914 21.0785 8.47859 20.9726 9.48976C20.8668 10.5009 20.4558 11.4559 19.7942 12.2279C19.1326 12.9999 18.2517 13.5523 17.2687 13.8117C16.4436 14.0295 15.5792 14.0322 14.7573 13.8234L7.41878 21.1647C6.93336 21.6502 6.27489 21.923 5.5884 21.923C4.90191 21.923 4.24354 21.6503 3.75812 21.1648C3.27271 20.6794 3 20.021 3 19.3346C3 18.6481 3.27271 17.9897 3.75812 17.5043L11.0988 10.1664C10.8901 9.34447 10.8927 8.48013 11.1105 7.65501C11.3699 6.67197 11.9223 5.79113 12.6943 5.12954C13.4663 4.46794 14.4213 4.05691 15.4325 3.95106ZM16.6392 5.49136C16.2954 5.42292 15.9413 5.40599 15.5886 5.4429C14.8803 5.51706 14.2112 5.80501 13.6704 6.2685C13.1296 6.73199 12.7426 7.34906 12.5608 8.03774C12.3791 8.72642 12.4112 9.4541 12.6529 10.1241C12.7516 10.3976 12.6833 10.7035 12.4777 10.909L4.81878 18.5649C4.61467 18.7691 4.5 19.0459 4.5 19.3346C4.5 19.6232 4.61467 19.9001 4.81878 20.1042C5.0229 20.3083 5.29974 20.423 5.5884 20.423C5.87706 20.423 6.1539 20.3083 6.35801 20.1042L14.0147 12.4446C14.2202 12.2389 14.5261 12.1706 14.7996 12.2693C15.4696 12.511 16.1973 12.5431 16.886 12.3614C17.5746 12.1797 18.1917 11.7927 18.6552 11.2518C19.1187 10.711 19.4066 10.042 19.4808 9.33358C19.5177 8.98094 19.5008 8.62687 19.4323 8.28306L17.8019 9.91305C17.6612 10.0536 17.4705 10.1326 17.2716 10.1326H15.5403C15.1261 10.1326 14.7903 9.79685 14.7903 9.38264V7.65135C14.7903 7.45248 14.8693 7.26175 15.0099 7.1211L16.6392 5.49136Z" fill="#2D373D"/>
</svg>
