<svg width="16" height="17" viewBox="0 0 16 17" fill="none" xmlns="http://www.w3.org/2000/svg">
<path d="M14.0202 9.80094C13.5968 9.27921 13.0104 8.91474 12.3552 8.76594H12.3152C9.49269 8.22342 6.59269 8.22342 3.77019 8.76594H3.72019C3.06323 8.91005 2.47555 9.27506 2.05518 9.80008C1.6348 10.3251 1.40715 10.9784 1.41019 11.6509V12.1509C1.41143 12.4945 1.54712 12.824 1.78821 13.0688C2.0293 13.3137 2.35664 13.4544 2.70019 13.4609H4.74519C5.09395 13.4609 5.42842 13.3224 5.67503 13.0758C5.92164 12.8292 6.06019 12.4947 6.06019 12.1459C6.06148 12.0615 6.0956 11.9808 6.15534 11.9211C6.21507 11.8614 6.29572 11.8272 6.38019 11.8259H9.65019C9.73469 11.8271 9.81539 11.8612 9.87519 11.9209C9.9043 11.9506 9.92724 11.9858 9.94269 12.0244C9.95814 12.0631 9.96578 12.1043 9.96519 12.1459C9.96619 12.4945 10.1045 12.8286 10.3502 13.0759C10.4728 13.1989 10.6185 13.2962 10.779 13.3623C10.9396 13.4284 11.1116 13.4619 11.2852 13.4609H13.3252C13.4988 13.4619 13.6708 13.4284 13.8313 13.3623C13.9918 13.2962 14.1376 13.1989 14.2602 13.0759C14.5059 12.8286 14.6442 12.4945 14.6452 12.1459V11.6459C14.6502 10.9782 14.43 10.3282 14.0202 9.80094ZM13.6702 12.1359C13.6695 12.2205 13.6354 12.3014 13.5752 12.3609C13.5455 12.3901 13.5103 12.413 13.4717 12.4284C13.4331 12.4439 13.3918 12.4515 13.3502 12.4509H11.2852C11.2436 12.4515 11.2023 12.4439 11.1637 12.4284C11.1251 12.413 11.0899 12.3901 11.0602 12.3609C11 12.3014 10.9659 12.2205 10.9652 12.1359C10.9639 11.7871 10.8251 11.4529 10.5789 11.2058C10.3327 10.9586 9.999 10.8186 9.65019 10.8159H6.38019C6.03051 10.8173 5.69552 10.9567 5.44826 11.204C5.201 11.4513 5.0615 11.7863 5.06019 12.1359C5.06084 12.2198 5.02852 12.3006 4.97019 12.3609C4.94048 12.3901 4.90531 12.413 4.86669 12.4284C4.82807 12.4439 4.78677 12.4515 4.74519 12.4509H2.70019C2.6586 12.4515 2.6173 12.4439 2.57869 12.4284C2.54007 12.413 2.50489 12.3901 2.47519 12.3609C2.41685 12.3006 2.38453 12.2198 2.38519 12.1359V11.6359C2.38399 11.1904 2.53578 10.758 2.81519 10.4109C3.08769 10.0741 3.46386 9.83683 3.88519 9.73594C6.59979 9.2084 9.39058 9.2084 12.1052 9.73594C12.5331 9.83651 12.9144 10.0791 13.1868 10.4241C13.4592 10.7692 13.6067 11.1963 13.6052 11.6359L13.6702 12.1359Z" fill="#2D373D"/>
<path d="M8.02019 7.32094C8.15279 7.32094 8.27997 7.26826 8.37374 7.17449C8.46751 7.08072 8.52019 6.95355 8.52019 6.82094V3.96094C8.52019 3.82833 8.46751 3.70115 8.37374 3.60738C8.27997 3.51362 8.15279 3.46094 8.02019 3.46094C7.88758 3.46094 7.7604 3.51362 7.66663 3.60738C7.57286 3.70115 7.52019 3.82833 7.52019 3.96094V6.82094C7.52019 6.95355 7.57286 7.08072 7.66663 7.17449C7.7604 7.26826 7.88758 7.32094 8.02019 7.32094Z" fill="#2D373D"/>
<path d="M4.72519 7.08094C4.77006 7.15465 4.83324 7.21549 4.90859 7.25754C4.98394 7.2996 5.0689 7.32144 5.15519 7.32094C5.24493 7.32091 5.33301 7.29673 5.41019 7.25094C5.52337 7.18247 5.60482 7.07194 5.63668 6.94355C5.66854 6.81516 5.64823 6.67938 5.58019 6.56594L4.35519 4.52094C4.32932 4.45174 4.28845 4.38913 4.2355 4.33761C4.18255 4.28609 4.11885 4.24695 4.04896 4.22299C3.97908 4.19903 3.90476 4.19086 3.83134 4.19906C3.75792 4.20726 3.68723 4.23162 3.62435 4.27041C3.56147 4.30919 3.50797 4.36142 3.46769 4.42335C3.42741 4.48527 3.40135 4.55536 3.39139 4.62856C3.38143 4.70176 3.38781 4.77626 3.41008 4.8467C3.43235 4.91714 3.46996 4.98177 3.52019 5.03594L4.72519 7.08094Z" fill="#2D373D"/>
<path d="M10.6202 7.25094C10.6967 7.29819 10.7852 7.32249 10.8752 7.32094C10.9615 7.32144 11.0464 7.2996 11.1218 7.25754C11.1971 7.21549 11.2603 7.15465 11.3052 7.08094L12.5202 5.03594C12.5712 4.92314 12.5785 4.79545 12.5407 4.67756C12.503 4.55968 12.4229 4.45998 12.3159 4.39777C12.2089 4.33555 12.0826 4.31524 11.9615 4.34076C11.8403 4.36629 11.733 4.43583 11.6602 4.53594L10.4352 6.58094C10.3731 6.6948 10.3577 6.82833 10.3922 6.95334C10.4267 7.07835 10.5085 7.18506 10.6202 7.25094Z" fill="#2D373D"/>
</svg>
