<svg width="24" height="25" viewBox="0 0 24 25" fill="none" xmlns="http://www.w3.org/2000/svg">
<path d="M17.325 3.91016C15.675 2.93516 13.875 2.41016 12 2.41016C11.925 2.41016 11.925 2.41016 11.925 2.41016C6.45 2.41016 1.95 6.91016 1.95 12.3852C1.95 14.1852 2.4 15.9102 3.3 17.4102L1.95 21.5352C1.875 21.7602 1.95 22.0602 2.175 22.2852C2.325 22.4352 2.475 22.5102 2.7 22.5102C2.775 22.5102 2.925 22.5102 3 22.4352L7.05 21.0852C11.7 23.7852 17.7 22.2852 20.55 17.7102C23.475 13.0602 22.05 6.83516 17.325 3.91016ZM19.2 16.9602C16.725 20.9352 11.475 22.1352 7.5 19.6602C7.425 19.5852 7.275 19.5102 7.125 19.5102C6.975 19.5102 6.9 19.5852 6.9 19.5852L3.9 20.5602L4.8 17.4852C4.875 17.2602 4.875 17.0352 4.725 16.8852C3.9 15.5352 3.45 13.9602 3.45 12.3852C3.45 7.73516 7.275 3.91016 12 3.91016C13.575 3.91016 15.15 4.36016 16.5 5.18516C20.475 7.66016 21.675 12.9852 19.2 16.9602Z" fill="#2D373D"/>
<path d="M14.4751 9.31024L10.9501 14.0352L8.85007 11.9352C8.55007 11.6352 8.10007 11.6352 7.80007 11.9352C7.50007 12.2352 7.50007 12.6852 7.80007 12.9852L10.5001 15.6852C10.6501 15.8352 10.8001 15.9102 11.0251 15.9102C11.2501 15.9102 11.4751 15.8352 11.6251 15.6102L15.6751 10.2102C15.9001 9.91024 15.8251 9.38524 15.5251 9.16024C15.2251 8.93524 14.7001 9.01024 14.4751 9.31024Z" fill="#2D373D"/>
</svg>
