<svg width="24" height="25" viewBox="0 0 24 25" fill="none" xmlns="http://www.w3.org/2000/svg">
<path d="M14.2626 16.0087C14.9453 15.5854 15.7326 15.3612 16.5359 15.3613C16.9501 15.3614 17.286 15.0257 17.286 14.6114C17.2861 14.1972 16.9504 13.8614 16.5362 13.8613C15.4535 13.8612 14.3923 14.1633 13.4721 14.7339C12.5519 15.3044 11.8094 16.1206 11.3282 17.0905C11.1441 17.4616 11.2957 17.9116 11.6667 18.0957C12.0378 18.2798 12.4878 18.1282 12.6719 17.7572C13.0289 17.0376 13.5799 16.432 14.2626 16.0087Z" fill="#2D373D"/>
<path d="M9.1875 9.64258C9.75705 9.64258 10.2188 10.1043 10.2188 10.6738C10.2188 11.2434 9.75705 11.7051 9.1875 11.7051C8.61795 11.7051 8.15625 11.2434 8.15625 10.6738C8.15625 10.1043 8.61795 9.64258 9.1875 9.64258Z" fill="#2D373D"/>
<path d="M14.8125 9.64258C15.382 9.64258 15.8438 10.1043 15.8438 10.6738C15.8438 11.2434 15.382 11.7051 14.8125 11.7051C14.243 11.7051 13.7812 11.2434 13.7812 10.6738C13.7812 10.1043 14.243 9.64258 14.8125 9.64258Z" fill="#2D373D"/>
<path fill-rule="evenodd" clip-rule="evenodd" d="M12 3.73633C6.92589 3.73633 2.8125 7.84971 2.8125 12.9238C2.8125 17.9979 6.92589 22.1113 12 22.1113C17.0741 22.1113 21.1875 17.9979 21.1875 12.9238C21.1875 7.84971 17.0741 3.73633 12 3.73633ZM4.3125 12.9238C4.3125 8.67814 7.75431 5.23633 12 5.23633C16.2457 5.23633 19.6875 8.67814 19.6875 12.9238C19.6875 17.1695 16.2457 20.6113 12 20.6113C7.75431 20.6113 4.3125 17.1695 4.3125 12.9238Z" fill="#2D373D"/>
</svg>
