<svg width="32" height="33" viewBox="0 0 32 33" fill="none" xmlns="http://www.w3.org/2000/svg">
<path d="M7.20002 17.1938C7.46524 17.1938 7.71959 17.0885 7.90713 16.901C8.09466 16.7134 8.20002 16.4591 8.20002 16.1938C8.20002 15.9286 8.09466 15.6743 7.90713 15.4867C7.71959 15.2992 7.46524 15.1938 7.20002 15.1938H6.47002C6.40836 15.1944 6.34725 15.1822 6.29048 15.1581C6.23371 15.134 6.1825 15.0985 6.14002 15.0538C6.05159 14.9667 6.00126 14.848 6.00002 14.7238V7.39385C6.00257 7.27 6.05291 7.15193 6.14051 7.06434C6.2281 6.97674 6.34617 6.9264 6.47002 6.92385H16.73C16.9952 6.92385 17.2496 6.81849 17.4371 6.63096C17.6247 6.44342 17.73 6.18906 17.73 5.92385C17.73 5.65863 17.6247 5.40428 17.4371 5.21674C17.2496 5.02921 16.9952 4.92385 16.73 4.92385H6.47002C6.14528 4.92253 5.8235 4.98551 5.52323 5.10917C5.22296 5.23283 4.95014 5.41472 4.72052 5.64435C4.49089 5.87397 4.309 6.14679 4.18534 6.44706C4.06168 6.74733 3.9987 7.06911 4.00002 7.39385V14.7238C4.00265 15.3781 4.26373 16.0048 4.72638 16.4675C5.18902 16.9301 5.81575 17.1912 6.47002 17.1938H7.20002Z" fill="#2D373D"/>
<path d="M16 21.2838H15.36V15.0338C15.3584 14.6884 15.2876 14.3467 15.152 14.029C15.0163 13.7113 14.8184 13.4239 14.57 13.1838C14.0659 12.7114 13.4009 12.4485 12.71 12.4485C12.0191 12.4485 11.3541 12.7114 10.85 13.1838C10.5907 13.4188 10.3817 13.7039 10.2356 14.0218C10.0895 14.3398 10.0094 14.6841 10 15.0338V22.1138L9.63002 21.6938C9.38954 21.4289 9.10114 21.2117 8.78002 21.0538C8.46619 20.9045 8.12683 20.8163 7.78002 20.7938C7.44149 20.7742 7.10228 20.8183 6.78002 20.9238C6.44548 21.0405 6.13653 21.2204 5.87002 21.4538C5.60156 21.6896 5.3809 21.9748 5.22002 22.2938C5.06334 22.6055 4.97149 22.9457 4.95002 23.2938C4.93334 23.6474 4.98659 24.0007 5.10671 24.3336C5.22683 24.6665 5.41146 24.9724 5.65002 25.2338L8.65002 28.5738C8.74351 28.6774 8.85766 28.7603 8.9851 28.8172C9.11255 28.874 9.25048 28.9035 9.39002 28.9038C9.63786 28.9032 9.87662 28.8105 10.06 28.6438C10.2559 28.4659 10.3732 28.2176 10.3863 27.9533C10.3994 27.689 10.3073 27.4303 10.13 27.2338L7.08002 23.9238C7.01849 23.8573 6.97089 23.7791 6.94002 23.6938C6.9248 23.6112 6.9248 23.5265 6.94002 23.4438C6.94238 23.3508 6.96276 23.2591 7.00002 23.1738C7.02455 23.082 7.06893 22.9967 7.13002 22.9238C7.20017 22.862 7.28169 22.8145 7.37002 22.7838C7.46278 22.7692 7.55726 22.7692 7.65002 22.7838C7.74676 22.7904 7.84156 22.8141 7.93002 22.8538C8.01508 22.9023 8.09258 22.9629 8.16002 23.0338L10.28 25.3738C10.4169 25.516 10.5928 25.6145 10.7856 25.6568C10.9784 25.6992 11.1794 25.6836 11.3633 25.612C11.5472 25.5403 11.7058 25.4159 11.8191 25.2543C11.9324 25.0927 11.9953 24.9012 12 24.7038V15.0338C12.0023 14.8756 12.067 14.7246 12.18 14.6138C12.3071 14.4979 12.473 14.4336 12.645 14.4336C12.8171 14.4336 12.9829 14.4979 13.11 14.6138C13.1692 14.6668 13.2167 14.7315 13.2494 14.8038C13.2821 14.8761 13.2993 14.9545 13.3 15.0338V22.2838C13.3 22.5491 13.4054 22.8034 13.5929 22.991C13.7804 23.1785 14.0348 23.2838 14.3 23.2838H16C17.0429 23.2764 18.0462 23.6828 18.79 24.4138C19.1534 24.7635 19.4425 25.1828 19.6401 25.6467C19.8377 26.1106 19.9397 26.6096 19.94 27.1138V27.9238C19.94 28.1891 20.0454 28.4434 20.2329 28.631C20.4205 28.8185 20.6748 28.9238 20.94 28.9238C21.2052 28.9238 21.4596 28.8185 21.6471 28.631C21.8347 28.4434 21.94 28.1891 21.94 27.9238V27.1138C21.9349 26.3441 21.7777 25.5829 21.4773 24.8741C21.177 24.1654 20.7395 23.5229 20.19 22.9838C19.0721 21.887 17.5662 21.276 16 21.2838Z" fill="#2D373D"/>
<path d="M27 9.32385H26.53V8.85385C26.5314 8.33749 26.4305 7.82597 26.2331 7.34882C26.0357 6.87167 25.7458 6.43834 25.38 6.07385C24.6342 5.35289 23.6374 4.94989 22.6 4.94989C21.5627 4.94989 20.5659 5.35289 19.82 6.07385C19.4543 6.43834 19.1643 6.87167 18.9669 7.34882C18.7696 7.82597 18.6686 8.33749 18.67 8.85385V9.32385H18.2C17.9348 9.32385 17.6804 9.42921 17.4929 9.61674C17.3054 9.80428 17.2 10.0586 17.2 10.3238V17.6538C17.2 17.9191 17.3054 18.1734 17.4929 18.361C17.6804 18.5485 17.9348 18.6538 18.2 18.6538H27C27.2652 18.6538 27.5196 18.5485 27.7071 18.361C27.8947 18.1734 28 17.9191 28 17.6538V10.3238C28 10.0586 27.8947 9.80428 27.7071 9.61674C27.5196 9.42921 27.2652 9.32385 27 9.32385ZM20.67 8.85385C20.6694 8.60148 20.7185 8.35146 20.8146 8.1181C20.9107 7.88474 21.0519 7.67261 21.23 7.49385C21.6009 7.1451 22.0909 6.95093 22.6 6.95093C23.1091 6.95093 23.5991 7.1451 23.97 7.49385C24.1482 7.67261 24.2893 7.88474 24.3854 8.1181C24.4815 8.35146 24.5306 8.60148 24.53 8.85385V9.32385H20.67V8.85385ZM26 16.6538H19.2V11.3238H26V16.6538Z" fill="#2D373D"/>
<path d="M23.33 12.9238C23.0764 12.7611 22.775 12.6892 22.4753 12.7201C22.1755 12.751 21.8951 12.8828 21.68 13.0938C21.4424 13.3371 21.3096 13.6638 21.31 14.0038C21.3075 14.2639 21.3842 14.5185 21.53 14.7338C21.6695 14.9473 21.8723 15.1116 22.11 15.2038C22.2674 15.2732 22.4381 15.3074 22.61 15.3038C22.6931 15.3137 22.777 15.3137 22.86 15.3038C23.1151 15.2557 23.3491 15.13 23.53 14.9438C23.7092 14.7632 23.831 14.5336 23.88 14.2838C23.9331 14.0325 23.9087 13.771 23.81 13.5338C23.7142 13.2873 23.5471 13.0749 23.33 12.9238Z" fill="#2D373D"/>
</svg>
