<svg width="32" height="33" viewBox="0 0 32 33" fill="none" xmlns="http://www.w3.org/2000/svg">
<path d="M26.5999 27.9606C26.7999 27.6606 26.7999 27.3606 26.6999 26.9606V23.0606C26.6999 22.4606 26.2999 22.0606 25.6999 22.0606C25.0999 22.0606 24.6999 22.4606 24.6999 23.0606V24.8606L21.4999 21.6606C20.5999 20.8606 19.3999 20.5606 18.2999 20.8606L12.6999 22.3606C12.1999 22.4606 11.7999 22.3606 11.4999 22.0606L5.5999 15.9606C5.1999 15.5606 4.5999 15.5606 4.1999 15.9606C3.7999 16.3606 3.7999 16.9606 4.1999 17.3606L10.0999 23.5606C10.8999 24.3606 12.0999 24.6606 13.1999 24.3606L18.7999 22.8606C19.1999 22.7606 19.6999 22.8606 19.9999 23.1606L23.2999 26.4606H21.2999C20.6999 26.4606 20.2999 26.8606 20.2999 27.4606C20.2999 28.0606 20.6999 28.4606 21.2999 28.4606H25.6999C25.7999 28.4606 25.8999 28.4606 25.9999 28.3606C26.2999 28.3606 26.4999 28.1606 26.5999 27.9606Z" fill="#2D373D"/>
<path d="M6.89967 15.1605C7.39967 15.0605 7.79967 14.5605 7.59967 13.9605C6.89967 10.5605 9.19967 7.16055 12.5997 6.46055C14.2997 6.06055 15.9997 6.46055 17.3997 7.36055C18.7997 8.36055 19.7997 9.76055 20.0997 11.4605C20.5997 13.8605 19.6997 16.3605 17.6997 17.8605C17.2997 18.1605 17.1997 18.8605 17.4997 19.2605C17.6997 19.5605 17.9997 19.6605 18.2997 19.6605C18.4997 19.6605 18.6997 19.5605 18.9997 19.3605C21.5997 17.3605 22.7997 14.1605 22.1997 10.9605C21.6997 8.76055 20.4997 6.86055 18.5997 5.66055C16.6997 4.46055 14.4997 4.06055 12.2997 4.46055C7.69967 5.36055 4.79967 9.86055 5.69967 14.3605C5.79967 14.9605 6.29967 15.2605 6.89967 15.1605Z" fill="#2D373D"/>
<path d="M14.4 14.6605H12.4C11.8 14.6605 11.4 15.0605 11.4 15.6605C11.4 16.2605 11.8 16.6605 12.4 16.6605H13C13.1 17.1605 13.4 17.4605 14 17.4605C14.5 17.4605 14.9 17.0605 15 16.5605C15.8 16.4605 16.4 15.9605 16.6 15.1605C16.9 14.5605 16.9 13.8605 16.6 13.3605C16.3 12.8605 15.9 12.3605 15.3 12.1605L13.3 11.3605C13.2 11.3605 13.1 11.2605 13.1 11.0605C13.1 10.9605 13.2 10.8605 13.2 10.8605C13.2 10.8605 13.3 10.7605 13.4 10.7605H15.4C16 10.7605 16.4 10.3605 16.4 9.76055C16.4 9.16055 16 8.76055 15.4 8.76055H14.9C14.8 8.36055 14.4 8.06055 14 8.06055C13.5 8.06055 13.1 8.36055 13 8.76055C12.5 8.96055 12 9.16055 11.7 9.46055C11.2 9.86055 11 10.4605 11 11.0605C11 12.0605 11.6 12.8605 12.5 13.2605L14.5 14.0605C14.6 14.1605 14.7 14.2605 14.7 14.2605C14.7 14.2605 14.7 14.3605 14.7 14.4605C14.7 14.5605 14.5 14.6605 14.4 14.6605Z" fill="#2D373D"/>
</svg>
