<svg width="64" height="64" viewBox="0 0 64 64" fill="none" xmlns="http://www.w3.org/2000/svg">
<path d="M14.8002 31.5999C14.2002 31.5999 13.6002 31.7999 13.2002 32.1999C12.6002 32.5999 12.2002 32.9999 12.2002 33.5999C12.0002 33.9999 12.0002 34.1999 12.0002 34.5999C12.0002 34.9999 12.0002 35.1999 12.2002 35.3999C12.4002 36.1999 13.2002 36.9999 14.0002 37.1999C14.2002 37.3999 14.6002 37.3999 14.8002 37.3999C16.4002 37.3999 17.6002 35.9999 17.6002 34.5999C17.6002 34.5999 17.6002 34.5999 17.6002 34.3999C17.6002 32.7999 16.4002 31.5999 14.8002 31.5999Z" fill="#2D373D"/>
<path d="M19.8002 40H10.6002C9.8002 40 9.2002 39.3999 9.2002 38.5999V33.5999C9.2002 31.3999 10.8002 29.6 12.8002 29H13.0002C13.4002 29 13.6002 28.8 14.0002 28.8H47.8002C49.4002 28.8 51.0002 29.8 51.8002 31.2C52.4002 32.4 52.6002 33.5999 52.6002 34.7999C52.6002 35.7999 53.4002 36.7999 54.6002 36.7999C55.6002 36.7999 56.6002 36 56.6002 34.7999C56.6002 32.7999 56.2002 31 55.2002 29.2C54.2002 27.4 52.6002 26 50.8002 25.4L47.4002 17.8C46.4002 15 43.8002 13.2 40.8002 13.2H20.8002C17.8002 13.2 15.2002 15 14.4002 17.6L10.8002 25.4C7.6002 26.6 5.2002 29.7999 5.2002 33.5999V38.5999C5.2002 40.1999 6.0002 41.5999 7.0002 42.5999V45.4C6.8002 46.8 7.4002 48.2 8.4002 49.2C9.4002 50.2 10.6002 50.7999 12.2002 50.7999C13.6002 50.7999 15.0002 50.4 16.2002 49.4C17.2002 48.4 17.8002 47 17.8002 45.5999V44H19.8002C21.0002 44 21.8002 43.2 21.8002 42C21.8002 40.7999 21.0002 40 19.8002 40ZM18.0002 19.2C18.4002 18 19.6002 17.2 20.8002 17.2H40.8002C42.0002 17.2 43.2002 18 43.6002 19.2L46.2002 24.8H15.4002L18.0002 19.2ZM13.8002 45.4C13.8002 45.8 13.6002 46.2 13.4002 46.4C13.2002 46.6 12.8002 46.7999 12.4002 46.7999C12.0002 46.7999 11.6002 46.6 11.4002 46.4C11.2002 46.2 11.0002 45.8 11.0002 45.4V44H13.8002V45.4Z" fill="#2D373D"/>
<path d="M56.8002 39.9999H42.0002C41.2002 36.1999 37.8002 33.3999 33.6002 33.3999C28.8002 33.3999 25.0002 37.1999 25.0002 41.9999C25.0002 46.7999 28.8002 50.5999 33.6002 50.5999C37.8002 50.5999 41.0002 47.7999 42.0002 43.9999H48.2002V45.3999C48.2002 46.5999 49.0002 47.3999 50.2002 47.3999C51.2002 47.3999 52.2002 46.3999 52.2002 45.3999V43.9999H54.8002V46.9999C54.8002 48.1999 55.6002 48.9999 56.8002 48.9999C57.8002 48.9999 58.8002 47.9999 58.8002 46.9999V41.9999C58.8002 40.7999 58.0002 39.9999 56.8002 39.9999ZM33.6002 46.5999C31.0002 46.5999 29.0002 44.5999 29.0002 41.9999C29.0002 39.3999 31.0002 37.3999 33.6002 37.3999C36.2002 37.3999 38.2002 39.3999 38.2002 41.9999C38.2002 44.5999 36.2002 46.5999 33.6002 46.5999Z" fill="#2D373D"/>
</svg>
