<svg width="16" height="16" viewBox="0 0 16 16" fill="none" xmlns="http://www.w3.org/2000/svg">
<path d="M3.26749 9.9339C2.88507 9.9339 2.51125 9.8205 2.19329 9.60804C1.87533 9.39559 1.62751 9.09362 1.48116 8.74031C1.33482 8.38701 1.29653 7.99825 1.37114 7.62319C1.44574 7.24813 1.62989 6.90361 1.90029 6.6332C2.1707 6.3628 2.51522 6.17865 2.89028 6.10405C3.26534 6.02944 3.6541 6.06773 4.0074 6.21407C4.3607 6.36042 4.66268 6.60824 4.87513 6.9262C5.08759 7.24416 5.20099 7.61799 5.20099 8.0004C5.20072 8.51311 4.99693 9.00475 4.63438 9.36729C4.27184 9.72984 3.7802 9.93363 3.26749 9.9339ZM3.26749 7.0674C3.14311 7.06452 3.01942 7.08653 2.90367 7.13213C2.78792 7.17774 2.68246 7.24602 2.59348 7.33297C2.5045 7.41991 2.43379 7.52377 2.38552 7.63843C2.33725 7.75309 2.31238 7.87624 2.31238 8.00065C2.31238 8.12505 2.33725 8.2482 2.38552 8.36286C2.43379 8.47752 2.5045 8.58138 2.59348 8.66832C2.68246 8.75527 2.78792 8.82355 2.90367 8.86916C3.01942 8.91476 3.14311 8.93678 3.26749 8.9339C3.39186 8.93678 3.51555 8.91476 3.6313 8.86916C3.74705 8.82355 3.85251 8.75527 3.94149 8.66832C4.03047 8.58138 4.10118 8.47752 4.14945 8.36286C4.19772 8.2482 4.22259 8.12505 4.22259 8.00065C4.22259 7.87624 4.19772 7.75309 4.14945 7.63843C4.10118 7.52377 4.03047 7.41991 3.94149 7.33297C3.85251 7.24602 3.74705 7.17774 3.6313 7.13213C3.51555 7.08653 3.39186 7.06452 3.26749 7.0674Z" fill="#2D373D"/>
<path d="M12.734 9.9339C12.3516 9.9339 11.9778 9.8205 11.6598 9.60804C11.3419 9.39559 11.0941 9.09362 10.9477 8.74031C10.8014 8.38701 10.7631 7.99825 10.8377 7.62319C10.9123 7.24813 11.0964 6.90361 11.3668 6.6332C11.6373 6.3628 11.9818 6.17865 12.3568 6.10405C12.7319 6.02944 13.1207 6.06773 13.474 6.21407C13.8273 6.36042 14.1292 6.60824 14.3417 6.9262C14.5541 7.24416 14.6675 7.61799 14.6675 8.0004C14.6673 8.51311 14.4635 9.00475 14.1009 9.36729C13.7384 9.72984 13.2468 9.93363 12.734 9.9339ZM12.734 7.0674C12.5494 7.0674 12.3689 7.12214 12.2154 7.22472C12.0619 7.32729 11.9423 7.47309 11.8716 7.64366C11.8009 7.81424 11.7825 8.00193 11.8185 8.18301C11.8545 8.36409 11.9434 8.53043 12.074 8.66098C12.2045 8.79153 12.3708 8.88044 12.5519 8.91646C12.733 8.95248 12.9207 8.93399 13.0913 8.86334C13.2618 8.79268 13.4076 8.67303 13.5102 8.51952C13.6128 8.36601 13.6675 8.18552 13.6675 8.0009C13.6706 7.87748 13.6485 7.75474 13.6026 7.64012C13.5568 7.5255 13.4881 7.42139 13.4008 7.3341C13.3135 7.2468 13.2094 7.17815 13.0948 7.13231C12.9802 7.08646 12.8575 7.06438 12.734 7.0674Z" fill="#2D373D"/>
<path d="M8.00101 9.9339C7.6186 9.9339 7.24477 9.8205 6.92681 9.60804C6.60885 9.39559 6.36103 9.09362 6.21468 8.74031C6.06834 8.38701 6.03005 7.99825 6.10466 7.62319C6.17926 7.24813 6.36341 6.90361 6.63381 6.6332C6.90422 6.3628 7.24874 6.17865 7.6238 6.10405C7.99886 6.02944 8.38762 6.06773 8.74092 6.21407C9.09422 6.36042 9.3962 6.60824 9.60865 6.9262C9.82111 7.24416 9.93451 7.61799 9.93451 8.0004C9.93424 8.51311 9.73045 9.00475 9.3679 9.36729C9.00536 9.72984 8.51372 9.93363 8.00101 9.9339ZM8.00101 7.0674C7.81638 7.0674 7.63589 7.12214 7.48238 7.22472C7.32887 7.32729 7.20922 7.47309 7.13856 7.64366C7.06791 7.81424 7.04942 8.00193 7.08544 8.18301C7.12146 8.36409 7.21037 8.53043 7.34092 8.66098C7.47147 8.79153 7.63781 8.88044 7.81889 8.91646C7.99997 8.95248 8.18767 8.93399 8.35824 8.86334C8.52882 8.79268 8.67461 8.67303 8.77718 8.51952C8.87976 8.36601 8.93451 8.18552 8.93451 8.0009C8.93752 7.87748 8.91544 7.75474 8.86959 7.64012C8.82375 7.5255 8.7551 7.42139 8.66781 7.3341C8.58051 7.2468 8.4764 7.17815 8.36178 7.13231C8.24716 7.08646 8.12442 7.06438 8.00101 7.0674Z" fill="#2D373D"/>
</svg>
