<svg width="24" height="25" viewBox="0 0 24 25" fill="none" xmlns="http://www.w3.org/2000/svg">
<path fill-rule="evenodd" clip-rule="evenodd" d="M20.4576 20.7205C20.6055 21.0498 20.3646 21.4219 20.0036 21.4219H15.5079C15.147 21.4219 14.9061 21.0498 15.054 20.7205L17.3018 15.2724C17.4777 14.8808 18.0338 14.8808 18.2097 15.2724L20.4576 20.7205ZM13.6735 20.1335C13.1053 21.4487 14.0693 22.9219 15.5079 22.9219H20.0036C21.4422 22.9219 22.4062 21.4487 21.838 20.1335L19.5964 14.7003C19.5905 14.6861 19.5844 14.6719 19.5781 14.6579C18.8719 13.0856 16.6396 13.0856 15.9335 14.6579C15.9272 14.6719 15.9211 14.6861 15.9152 14.7003L13.6735 20.1335Z" fill="#2D373D"/>
<path fill-rule="evenodd" clip-rule="evenodd" d="M17.7597 16.547C18.1049 16.547 18.3847 16.8268 18.3847 17.172V18.422C18.3847 18.7671 18.1049 19.047 17.7597 19.047C17.4146 19.047 17.1347 18.7671 17.1347 18.422V17.172C17.1347 16.8268 17.4146 16.547 17.7597 16.547Z" fill="#2D373D"/>
<path d="M18.3747 20.047C18.3747 20.3921 18.0949 20.672 17.7497 20.672C17.4045 20.672 17.1247 20.3921 17.1247 20.047C17.1247 19.7018 17.4045 19.422 17.7497 19.422C18.0949 19.422 18.3747 19.7018 18.3747 20.047Z" fill="#2D373D"/>
<path fill-rule="evenodd" clip-rule="evenodd" d="M11.3552 3.0467C11.7698 2.88547 12.2297 2.88547 12.6442 3.0467L21.5169 6.49746C21.8055 6.6097 21.9956 6.88758 21.9956 7.19723V12.3338C21.9956 12.7484 21.6594 13.0846 21.2447 13.0846C20.8301 13.0846 20.4939 12.7484 20.4939 12.3338V8.29485L12.7506 11.3064V21.0659C12.7506 21.3137 12.6282 21.5456 12.4236 21.6856C12.2191 21.8255 11.9586 21.8555 11.7276 21.7656L2.48258 18.1701C2.19399 18.0578 2.00391 17.7799 2.00391 17.4703V7.19723C2.00391 6.88758 2.19399 6.6097 2.48258 6.49746L11.3552 3.0467ZM11.9997 9.98719L14.5508 8.99501L7.37723 6.20505L4.82613 7.19723L11.9997 9.98719ZM3.50556 8.29485V16.9567L11.2489 19.9683V11.3064L3.50556 8.29485ZM9.44863 5.39944L16.6222 8.1894L19.1733 7.19723L12.0999 4.44623C12.0355 4.42117 11.964 4.42117 11.8995 4.44623L9.44863 5.39944Z" fill="#2D373D"/>
</svg>
