<svg width="24" height="25" viewBox="0 0 24 25" fill="none" xmlns="http://www.w3.org/2000/svg">
<path d="M16.5 11.7123H9.3L12 9.0123C12.3 8.7123 12.3 8.2623 12 7.9623C11.7 7.6623 11.25 7.6623 10.95 7.9623L6.975 11.9373C6.675 12.2373 6.675 12.6873 6.975 12.9873L10.95 17.0373C11.1 17.1873 11.25 17.2623 11.475 17.2623C11.7 17.2623 11.85 17.1873 12 17.0373C12.3 16.7373 12.3 16.2873 12 15.9873L9.3 13.2123H16.5C16.95 13.2123 17.25 12.9123 17.25 12.4623C17.25 12.0123 16.95 11.7123 16.5 11.7123Z" fill="#2D373D"/>
</svg>
