<svg width="32" height="32" viewBox="0 0 32 32" fill="none" xmlns="http://www.w3.org/2000/svg">
<path d="M29.2602 12.65C29.126 11.9646 28.8197 11.3246 28.3702 10.79C26.8449 9.03175 24.945 7.6376 22.8102 6.71001C20.6859 5.7883 18.385 5.34451 16.0702 5.41001C13.7418 5.34024 11.427 5.78847 9.29295 6.72234C7.15891 7.6562 5.25891 9.05237 3.7302 10.81C3.30141 11.3444 3.00683 11.9737 2.87113 12.6452C2.73542 13.3168 2.76254 14.0111 2.9502 14.67L5.1702 22.44C5.28021 22.8321 5.48252 23.1921 5.7602 23.49C6.01285 23.7678 6.32206 23.9883 6.66704 24.1367C7.01202 24.285 7.38476 24.3578 7.7602 24.35H7.9902C8.37533 24.2981 8.74418 24.1615 9.0702 23.95C9.6733 23.5965 10.3056 23.2954 10.9602 23.05V25.68C10.9602 25.9452 11.0656 26.1996 11.2531 26.3871C11.4406 26.5747 11.695 26.68 11.9602 26.68C12.2254 26.68 12.4798 26.5747 12.6673 26.3871C12.8548 26.1996 12.9602 25.9452 12.9602 25.68V22.4C13.9814 22.1787 15.0256 22.0813 16.0702 22.11C17.1016 22.0805 18.1326 22.1779 19.1402 22.4V25.64C19.1402 25.9052 19.2456 26.1596 19.4331 26.3471C19.6206 26.5347 19.875 26.64 20.1402 26.64C20.4054 26.64 20.6598 26.5347 20.8473 26.3471C21.0348 26.1596 21.1402 25.9052 21.1402 25.64V23.05C21.8076 23.2954 22.4532 23.5965 23.0702 23.95C23.4143 24.1678 23.8048 24.3014 24.2102 24.34C24.6179 24.3743 25.0281 24.3162 25.4102 24.17C25.792 24.0244 26.1345 23.7916 26.4102 23.49C26.6879 23.1921 26.8902 22.8321 27.0002 22.44L29.2302 14.67C29.4001 14.0086 29.4104 13.3162 29.2602 12.65ZM27.2602 14.12L25.0702 21.89C25.0396 21.9814 24.9921 22.0662 24.9302 22.14C24.8637 22.2112 24.7815 22.266 24.6902 22.3C24.5917 22.3242 24.4887 22.3242 24.3902 22.3C24.2809 22.3165 24.1692 22.299 24.0702 22.25C23.1462 21.6856 22.1638 21.2229 21.1402 20.87V15.8L21.8902 16.55C21.9834 16.6426 22.094 16.7159 22.2156 16.7658C22.3371 16.8156 22.4673 16.841 22.5987 16.8406C22.7301 16.8401 22.8601 16.8138 22.9814 16.7631C23.1026 16.7123 23.2126 16.6383 23.3052 16.545C23.3978 16.4518 23.4711 16.3412 23.5209 16.2196C23.5708 16.0981 23.5962 15.9679 23.5958 15.8365C23.5953 15.7051 23.569 15.5751 23.5182 15.4538C23.4675 15.3326 23.3934 15.2226 23.3002 15.13L20.8402 12.68C20.751 12.5911 20.6458 12.5199 20.5302 12.47C20.4082 12.4191 20.2774 12.3929 20.1452 12.3929C20.013 12.3929 19.8822 12.4191 19.7602 12.47C19.6452 12.5211 19.5403 12.5922 19.4502 12.68L16.9902 15.13C16.8965 15.223 16.8221 15.3336 16.7713 15.4554C16.7205 15.5773 16.6944 15.708 16.6944 15.84C16.6944 15.972 16.7205 16.1027 16.7713 16.2246C16.8221 16.3464 16.8965 16.457 16.9902 16.55C17.1776 16.7363 17.431 16.8408 17.6952 16.8408C17.9594 16.8408 18.2128 16.7363 18.4002 16.55L19.1602 15.8V20.34C18.1422 20.147 17.1056 20.0698 16.0702 20.11C15.0216 20.0714 13.9719 20.1485 12.9402 20.34V15.8L13.7002 16.55C13.8865 16.7348 14.1379 16.8389 14.4002 16.84C14.5318 16.8408 14.6623 16.8155 14.7841 16.7658C14.9059 16.716 15.0168 16.6427 15.1102 16.55C15.2039 16.457 15.2783 16.3464 15.3291 16.2246C15.3799 16.1027 15.406 15.972 15.406 15.84C15.406 15.708 15.3799 15.5773 15.3291 15.4554C15.2783 15.3336 15.2039 15.223 15.1102 15.13L12.6702 12.68C12.5808 12.5987 12.4796 12.5313 12.3702 12.48C12.2482 12.4291 12.1174 12.4029 11.9852 12.4029C11.853 12.4029 11.7222 12.4291 11.6002 12.48C11.4908 12.5313 11.3897 12.5987 11.3002 12.68L8.8002 15.13C8.70647 15.223 8.63208 15.3336 8.58131 15.4554C8.53054 15.5773 8.5044 15.708 8.5044 15.84C8.5044 15.972 8.53054 16.1027 8.58131 16.2246C8.63208 16.3464 8.70647 16.457 8.8002 16.55C8.98756 16.7363 9.24102 16.8408 9.5052 16.8408C9.76939 16.8408 10.0228 16.7363 10.2102 16.55L10.9602 15.8V20.87C9.9497 21.2239 8.98067 21.6866 8.0702 22.25C7.98677 22.3049 7.88997 22.336 7.7902 22.34C7.69504 22.3641 7.59536 22.3641 7.5002 22.34C7.4089 22.306 7.32675 22.2512 7.2602 22.18C7.17565 22.099 7.11067 21.9999 7.0702 21.89L4.8602 14.12C4.77046 13.769 4.77046 13.401 4.8602 13.05C4.92891 12.7046 5.07603 12.3796 5.2902 12.1C6.58001 10.6207 8.1724 9.43558 9.9597 8.62474C11.747 7.81389 13.6876 7.39624 15.6502 7.40001H16.0702C18.0979 7.32791 20.1162 7.70774 21.9789 8.51199C23.8417 9.31624 25.5022 10.5248 26.8402 12.05C27.0733 12.3406 27.2312 12.684 27.3002 13.05C27.3769 13.4044 27.3631 13.7724 27.2602 14.12Z" fill="#2D373D"/>
</svg>
