<svg width="64" height="65" viewBox="0 0 64 65" fill="none" xmlns="http://www.w3.org/2000/svg">
<path d="M51.592 39.8845C51.592 50.3378 42.472 59.5911 31.992 59.5911C26.952 59.5911 22.1254 57.4578 18.5787 54.1245C17.7787 53.3511 17.752 52.0978 18.4987 51.2978C19.2454 50.4711 20.5254 50.4445 21.3254 51.1911C24.2054 53.9111 28.072 55.5911 31.992 55.5911C40.232 55.5911 47.592 48.1511 47.592 39.8845C47.592 33.4578 44.4454 27.8045 44.3387 27.5645C43.8587 26.5778 44.2854 25.3778 45.272 24.8978C46.2587 24.4445 47.4587 24.8445 47.9387 25.8578C47.9387 25.8578 48.8987 27.5645 49.7787 30.0711C50.6854 32.6045 51.592 36.0978 51.592 39.8845Z" fill="#2D373D"/>
<path d="M41.2454 18.4978C40.3654 19.1911 39.112 19.0311 38.4454 18.1511C36.4187 15.5378 34.472 13.4311 33.032 11.9911C32.632 11.5645 32.2854 11.2178 31.9654 10.9511C31.5654 11.3245 31.0587 11.8045 30.4987 12.3645C28.8187 14.0445 26.5787 16.4978 24.3654 19.5111C19.9654 25.5645 15.8854 33.7511 16.4454 42.6578C16.5254 43.7778 15.672 44.7111 14.5787 44.7911C13.4854 44.8445 12.5254 44.0178 12.4454 42.9245C11.8054 32.6311 16.4987 23.5378 21.1387 17.1378C23.4854 13.9378 25.8587 11.3245 27.672 9.53781C28.552 8.63115 29.3254 7.93781 29.8587 7.45781C30.1254 7.21781 30.3387 7.03115 30.472 6.92448C30.552 6.84448 30.6054 6.79115 30.6587 6.76448C30.6587 6.76448 30.6765 6.75559 30.712 6.73781H30.7387C31.4587 6.09781 32.552 6.09781 33.272 6.73781H33.2987C33.2987 6.73781 33.3254 6.76448 33.352 6.79115C33.3787 6.81781 33.432 6.84448 33.4854 6.89781C33.6187 7.00448 33.7787 7.16448 34.0187 7.37781C34.472 7.77781 35.0854 8.39115 35.8587 9.16448C37.4054 10.6845 39.4587 12.9245 41.6187 15.6978C42.2854 16.5778 42.1254 17.8311 41.2454 18.4978Z" fill="#2D373D"/>
<path d="M58.072 9.67115L8.7387 59.0045C8.3387 59.4045 7.83203 59.5911 7.32536 59.5911C6.8187 59.5911 6.31203 59.4045 5.91203 59.0045C5.1387 58.2311 5.1387 56.9511 5.91203 56.1778L55.2454 6.84448C56.0187 6.07115 57.2987 6.07115 58.072 6.84448C58.8454 7.61781 58.8454 8.89781 58.072 9.67115Z" fill="#2D373D"/>
</svg>
