<svg width="64" height="65" viewBox="0 0 64 65" fill="none" xmlns="http://www.w3.org/2000/svg">
<path d="M31.9997 34.3594H9.73301C7.30634 34.3594 5.33301 36.306 5.33301 38.6527V55.3194C5.33301 57.666 7.30634 59.586 9.73301 59.586H31.9997C34.4263 59.586 36.3997 57.666 36.3997 55.3194V38.6527C36.3997 36.306 34.4263 34.3594 31.9997 34.3594ZM32.3997 55.3194C32.3997 55.3194 32.2397 55.586 31.9997 55.586H9.73301C9.49301 55.586 9.33301 55.4527 9.33301 55.3194V38.6527C9.33301 38.6527 9.49301 38.3594 9.73301 38.3594H31.9997C32.2397 38.3594 32.3997 38.5194 32.3997 38.6527V55.3194Z" fill="#2D373D"/>
<path d="M25.4663 49.4292C25.2797 50.1759 24.8263 50.8159 24.1863 51.2692C23.7063 51.6159 23.093 51.8292 22.5063 51.8825C22.373 52.4959 21.8397 52.9225 21.1997 52.9225C20.5597 52.9225 20.053 52.5225 19.9197 51.9359H18.7997C18.053 51.9359 17.4663 51.3225 17.4663 50.6025C17.4663 49.8825 18.053 49.2692 18.7997 49.2692H22.053C22.2663 49.2692 22.5063 49.1892 22.6663 49.0825C22.773 49.0025 22.853 48.9225 22.853 48.8425C22.7463 48.5492 22.613 48.4692 22.4263 48.4159L19.1197 47.2959C18.373 47.0559 17.7597 46.5759 17.333 45.9625C16.9063 45.2959 16.773 44.4959 16.933 43.7492C17.1197 43.0025 17.573 42.3359 18.2397 41.9092C18.7197 41.5625 19.2797 41.3759 19.893 41.3225C20.0263 40.7092 20.533 40.2559 21.1997 40.2559C21.8663 40.2559 22.3463 40.6825 22.4797 41.2692H23.5997C24.3463 41.2692 24.933 41.8559 24.933 42.6025C24.933 43.3492 24.3463 43.9359 23.5997 43.9359H20.3463C20.1063 43.9359 19.893 43.9892 19.733 44.0959C19.6263 44.1759 19.5463 44.2559 19.5463 44.3359C19.653 44.6292 19.7863 44.7092 19.973 44.7625L23.2797 45.8825C24.0263 46.1225 24.6397 46.6025 25.0397 47.2159C25.493 47.8825 25.6263 48.6825 25.4663 49.4292Z" fill="#2D373D"/>
<path d="M43.333 6.25586C34.8796 6.25586 27.9996 13.1359 27.9996 21.5892C27.9996 30.0425 34.8796 36.9225 43.333 36.9225C51.7863 36.9225 58.6663 30.0425 58.6663 21.5892C58.6663 13.1359 51.7863 6.25586 43.333 6.25586ZM43.333 10.2559C48.133 10.2559 52.2663 13.2692 53.893 17.5092H32.773C34.3996 13.2692 38.533 10.2559 43.333 10.2559ZM49.9196 21.2692C49.9196 22.2292 49.1463 23.0025 48.1863 23.0025C47.2263 23.0025 46.453 22.2292 46.453 21.2692C46.453 20.3092 47.2263 19.5625 48.1863 19.5625C49.1463 19.5625 49.9196 20.3359 49.9196 21.2692ZM39.1996 21.2692C39.1996 22.2292 38.4263 23.0025 37.4663 23.0025C36.5063 23.0025 35.733 22.2292 35.733 21.2692C35.733 20.3092 36.533 19.5625 37.4663 19.5625C38.3996 19.5625 39.1996 20.3359 39.1996 21.2692ZM43.333 32.9225C38.533 32.9225 34.3996 29.9092 32.773 25.6692H53.893C52.2663 29.9092 48.133 32.9225 43.333 32.9225Z" fill="#2D373D"/>
<path d="M45.2264 16.4143C44.6398 16.4143 44.0798 16.0143 43.9198 15.4009C43.7331 14.6809 44.1864 13.9609 44.8798 13.7743L48.8798 12.7609C49.5731 12.5743 50.3198 13.0276 50.5064 13.7209C50.6931 14.4409 50.2398 15.1609 49.5464 15.3476L45.5464 16.3609C45.5464 16.3609 45.3331 16.4143 45.2264 16.4143Z" fill="#2D373D"/>
<path d="M40.9597 16.4968C40.9597 16.4968 40.7197 16.4968 40.5863 16.4435L36.613 15.2968C35.893 15.0835 35.493 14.3635 35.7063 13.6435C35.9197 12.9502 36.6397 12.5235 37.3597 12.7368L41.333 13.8835C42.053 14.0968 42.453 14.8168 42.2397 15.5368C42.0797 16.1235 41.5463 16.4968 40.9597 16.4968Z" fill="#2D373D"/>
<path d="M40.8262 32.228C40.6129 32.228 40.3729 32.1747 40.1596 32.068C39.5196 31.6947 39.2796 30.8947 39.6529 30.2547C41.1462 27.6147 44.7196 25.348 50.2929 26.8947C51.0129 27.0813 51.4129 27.828 51.2262 28.548C51.0396 29.268 50.2929 29.6947 49.5729 29.4813C44.4529 28.068 42.4529 30.7347 41.9729 31.588C41.7329 32.0147 41.2796 32.2547 40.7996 32.2547L40.8262 32.228Z" fill="#2D373D"/>
</svg>
