<svg width="64" height="65" viewBox="0 0 64 65" fill="none" xmlns="http://www.w3.org/2000/svg">
<path fill-rule="evenodd" clip-rule="evenodd" d="M46.9635 12.1027C42.7721 10.8995 37.162 10.2581 31.9998 10.2578C26.8378 10.2575 21.2278 10.8988 17.0365 12.102C14.9154 12.7109 13.4223 13.3901 12.5468 14.0143C12.2406 14.2326 12.0794 14.3899 12 14.4823V32.9242C12 39.0321 14.7881 44.7436 18.8776 48.9792C23.0311 53.281 28.0553 55.591 32.0001 55.5911C35.9448 55.5913 40.9689 53.2814 45.1224 48.9795C49.2119 44.7439 52 39.0323 52 32.9242V14.4827C51.9206 14.3904 51.7594 14.2331 51.4533 14.0149C50.5778 13.3907 49.0846 12.7116 46.9635 12.1027ZM52.0682 14.5799C52.0682 14.5799 52.0584 14.5681 52.0481 14.5438C52.0647 14.5677 52.0682 14.5799 52.0682 14.5799ZM11.9318 14.5794C11.9318 14.5794 11.9354 14.5672 11.952 14.5433C11.9417 14.5675 11.9318 14.5794 11.9318 14.5794ZM32 6.25781C42.8459 6.25837 56 8.92448 56 14.2576V32.9242C56 47.5911 42.6667 59.5914 32 59.5911C21.3333 59.5908 8 47.5908 8 32.9242V14.2573C8 8.92393 21.1541 6.25725 32 6.25781Z" fill="#2D373D"/>
<path d="M42.0889 28.9244H34.0081V20.9244C34.0081 19.8245 33.099 18.9245 31.9879 18.9245C30.8768 18.9245 29.9677 19.8245 29.9677 20.9244V28.9244H21.8869C20.7758 28.9244 19.8667 29.8244 19.8667 30.9244C19.8667 32.0244 20.7758 32.9244 21.8869 32.9244H29.9677V40.9244C29.9677 42.0244 30.8768 42.9244 31.9879 42.9244C33.099 42.9244 34.0081 42.0244 34.0081 40.9244V32.9244H42.0889C43.2 32.9244 44.1091 32.0244 44.1091 30.9244C44.1091 29.8244 43.2 28.9244 42.0889 28.9244Z" fill="#2D373D"/>
</svg>
