<svg width="163" height="19" viewBox="0 0 163 19" fill="none" xmlns="http://www.w3.org/2000/svg">
<path fill-rule="evenodd" clip-rule="evenodd" d="M11.661 6.02924C11.8774 6.11841 12.0241 6.32419 12.0241 6.56426C12.0241 6.69458 11.9787 6.80776 11.9123 6.90379L9.92929 10.2477C9.8839 10.3437 9.78265 10.4088 9.67093 10.4088C9.55222 10.4088 9.44748 10.3403 9.39861 10.2408L7.42951 6.90036C7.35619 6.80433 7.32128 6.6843 7.32128 6.56426C7.32128 6.33448 7.46093 6.13213 7.65993 6.03953C8.32328 5.79603 8.97965 5.67599 9.67093 5.67599C10.3622 5.67599 11.0256 5.79603 11.6365 6.01552L11.661 6.02924ZM5.84794 7.12328C5.99109 7.01011 6.20406 6.99639 6.37862 7.09242C6.4694 7.14729 6.53573 7.21931 6.57763 7.30848L8.16966 10.035C8.21854 10.1105 8.22553 10.2031 8.18363 10.2854C8.13126 10.3643 8.03699 10.4088 7.94971 10.402L4.74818 10.4088C4.65392 10.4191 4.55267 10.3986 4.46888 10.3471C4.30129 10.2545 4.21401 10.0727 4.22448 9.8944C4.32573 9.34224 4.50379 8.83466 4.78659 8.36137C5.06938 7.88123 5.422 7.46968 5.827 7.13357L5.84794 7.12328ZM13.4939 7.12328C13.3438 7.01011 13.1343 6.99639 12.9597 7.09242C12.869 7.14729 12.8026 7.21931 12.7642 7.30848L11.1687 10.035C11.1163 10.1105 11.1093 10.2031 11.1582 10.2854C11.2106 10.3643 11.3014 10.4088 11.3852 10.402L14.5867 10.4088C14.6844 10.4191 14.7857 10.3986 14.8695 10.3471C15.0371 10.2545 15.1244 10.0727 15.1104 9.8944C15.0161 9.34224 14.8311 8.83466 14.5553 8.36137C14.2725 7.88123 13.9129 7.46968 13.5079 7.13357L13.4939 7.12328ZM10.1423 11.3417V14.25H9.19611V11.3417C8.74224 11.3383 8.14523 11.3383 7.92876 11.3314L4.7796 11.3383C4.51426 11.352 4.24194 11.2937 3.99057 11.1531C3.51226 10.8787 3.26088 10.3814 3.27834 9.87726C3.27834 9.80523 3.28881 9.74007 3.2958 9.6852C3.40752 9.0713 3.62747 8.46426 3.95915 7.89152C4.2978 7.31877 4.73072 6.82834 5.21951 6.42365C5.5442 6.18357 6.00505 6.06354 6.4275 6.13556C6.5497 5.74116 6.829 5.40505 7.19908 5.22672C7.26542 5.18899 7.32826 5.15469 7.38412 5.13755C8.09635 4.88718 8.86793 4.75 9.66395 4.75C10.4669 4.75 11.242 4.88718 11.9542 5.14783C12.3697 5.32274 12.7328 5.69314 12.8864 6.1287C13.2914 6.0361 13.7104 6.12527 14.0455 6.37563C14.5343 6.7769 15.0301 7.3222 15.3687 7.89495C15.7039 8.46769 15.9239 9.07473 16.0356 9.68863C16.0426 9.7435 16.0495 9.80866 16.053 9.88069C16.074 10.3848 15.8156 10.8821 15.3408 11.1565C15.0964 11.2971 14.8241 11.3554 14.5553 11.3417L11.4061 11.3348C11.1896 11.3383 10.5926 11.3383 10.1423 11.3417ZM9.66744 0.908845C4.83546 0.908845 0.918214 4.75686 0.918214 9.5C0.918214 14.2466 4.83546 18.098 9.66744 18.098C14.4994 18.098 18.4167 14.2466 18.4167 9.5C18.4167 4.75686 14.5029 0.908845 9.66744 0.908845ZM9.66744 0C15.0056 0 19.3384 4.25271 19.3384 9.49657C19.3384 14.7439 15.0056 19 9.66744 19C4.32922 19 0 14.7473 0 9.49657C0 4.25271 4.32922 0 9.66744 0Z" fill="#D81E05"/>
<path d="M34.5174 0L39.2312 9.50171L43.9521 0H51.0768V19H43.9521V9.50171L39.2312 19L34.5174 9.50171V19H27.3857V0H34.5174Z" fill="#D81E05"/>
<path d="M65.2149 2.85017L62.317 12.759H68.1058L65.2149 2.85017ZM53.3658 19L58.9146 0H71.5186L77.0604 19H69.9322L69.0173 15.8795H61.409L60.4975 19H53.3658Z" fill="#D81E05"/>
<path fill-rule="evenodd" clip-rule="evenodd" d="M88.1302 2.18955C89.7409 2.18955 91.303 3.03468 91.303 4.75573C91.303 6.48021 89.9253 7.87279 88.1302 7.87279H86.5856V2.19297H88.1302V2.18955ZM92.6806 0.0100098C95.7977 0.0100098 98.3164 2.49065 98.3164 5.54954C98.3164 8.60843 95.7942 11.0856 92.6806 11.0856H86.4673V18.9997H79.3356V0.0100098H92.6806Z" fill="#D81E05"/>
<path d="M100.786 0H119.739V3.1239H107.915V7.95174H119.739V11.0688H107.915V19H100.786V0Z" fill="#D81E05"/>
<path d="M151.021 15.8795H162.849V19H143.89V0H162.849V3.1239H151.021V7.95174H162.849V11.0688H151.021V15.8795Z" fill="#D81E05"/>
<path fill-rule="evenodd" clip-rule="evenodd" d="M131.032 2.18955C132.601 2.18955 134.204 3.03468 134.204 4.75573C134.204 6.47678 132.788 7.87279 131.032 7.87279H129.491V2.18955H131.032ZM141.211 14.0966V14.2506C141.211 14.1993 141.214 14.148 141.211 14.0966ZM141.211 14.2506V18.9997H136.382H134.197V14.4046C134.197 14.3532 134.201 14.2985 134.201 14.2506C134.201 12.533 132.778 11.1335 131.028 11.1335H129.487V18.9997H122.234V9.50146V0.0100098H130.158H136.382C139.05 0.0100098 141.211 2.13481 141.211 4.75573C141.211 7.38008 139.054 9.50146 136.382 9.50146C138.995 9.50146 141.127 11.5441 141.211 14.0966C141.214 14.148 141.211 14.1993 141.211 14.2506Z" fill="#D81E05"/>
</svg>
