<svg width="20" height="20" viewBox="0 0 20 20" fill="none" xmlns="http://www.w3.org/2000/svg">
<path fill-rule="evenodd" clip-rule="evenodd" d="M2 0C0.895431 0 0 0.895431 0 2V18C0 19.1046 0.895431 20 2 20H18C19.1046 20 20 19.1046 20 18V2C20 0.895431 19.1046 0 18 0H2ZM15.6934 5.22989L7.84787 13.1026L4.31032 9.57333C4.23966 9.50129 4.1562 9.44407 4.06454 9.40479C3.97102 9.36472 3.87078 9.34409 3.76956 9.34409C3.66833 9.34409 3.56809 9.36472 3.47457 9.40479C3.38233 9.44432 3.29839 9.50202 3.22745 9.5747C3.15603 9.64708 3.09909 9.73342 3.06001 9.82878C3.02041 9.92544 3 10.0293 3 10.1343C3 10.2393 3.02041 10.3432 3.06001 10.4399C3.09964 10.5366 3.15819 10.6246 3.23103 10.6976L7.31037 14.7736C7.31576 14.779 7.32127 14.7843 7.32689 14.7894C7.4639 14.9147 7.63776 14.9886 7.82033 14.9992C7.84642 15.0007 7.87259 15.0001 7.89859 14.9975C8.08366 14.9788 8.25699 14.8951 8.38962 14.7603L16.774 6.35283C16.7791 6.34772 16.7841 6.34251 16.789 6.33718C16.9244 6.18953 17 5.99381 17 5.79025C17 5.58669 16.9246 5.39085 16.7891 5.24319L16.7799 5.23363C16.7083 5.15953 16.6233 5.10077 16.5298 5.0607C16.4363 5.02062 16.336 5 16.2348 5C16.1336 5 16.0334 5.02062 15.9398 5.0607C15.8479 5.1001 15.7642 5.15755 15.6934 5.22989Z" fill="#526570"/>
</svg>
